<?xml version="1.0" encoding="UTF-8" standalone="yes"?>
<!DOCTYPE svg PUBLIC "-//W3C//DTD SVG 1.0//EN" "http://www.w3.org/TR/2001/REC-SVG-20010904/DTD/svg10.dtd">
<!-- generated using polymake; Michael Joswig, Georg Loho, Benjamin Lorenz, Rico Raber; license CC BY-NC-SA 3.0; see polymake.org and matchthenet.de -->
<svg height="841pt" id="document" viewBox="0 -759.477173603651 572 759.477173603651" width="595pt" xmlns="http://www.w3.org/2000/svg" xmlns:svg="http://www.w3.org/2000/svg" xmlns:xlink="http://www.w3.org/1999/xlink">
	<title id="document_title">planar_net_</title>
	<polygon points="226.761413198193,-388.238586801811 368.238586801817,-388.238586801811 368.238586801825,-529.71576040544 226.761413198205,-529.715760405447 " style="fill: rgb(14,173,105); fill-opacity: 1; stroke: rgb(0,0,0); stroke-width: 3" />
	<polygon points="297.500000000006,-265.715760405451 368.238586801817,-388.238586801811 226.761413198193,-388.238586801811 " style="fill: rgb(14,173,105); fill-opacity: 1; stroke: rgb(0,0,0); stroke-width: 3" />
	<polygon points="226.761413198193,-388.238586801811 104.238586801829,-317.499999999997 174.97717360363,-194.977173603643 297.500000000006,-265.715760405451 " style="fill: rgb(14,173,105); fill-opacity: 1; stroke: rgb(0,0,0); stroke-width: 3" />
	<polygon points="156.022826396402,-652.238586801824 33.5000000000477,-722.977173603651 33.5000000000423,-581.500000000028 " style="fill: rgb(14,173,105); fill-opacity: 1; stroke: rgb(0,0,0); stroke-width: 3" />
	<polygon points="226.761413198205,-529.715760405447 156.022826396402,-652.238586801824 33.5000000000423,-581.500000000028 104.238586801839,-458.977173603645 " style="fill: rgb(14,173,105); fill-opacity: 1; stroke: rgb(0,0,0); stroke-width: 3" />
	<polygon points="104.238586801829,-317.499999999997 33.5000000000103,-194.977173603639 174.97717360363,-194.977173603643 " style="fill: rgb(14,173,105); fill-opacity: 1; stroke: rgb(0,0,0); stroke-width: 3" />
	<polygon points="226.761413198193,-388.238586801811 226.761413198205,-529.715760405447 104.238586801839,-458.977173603645 " style="fill: rgb(14,173,105); fill-opacity: 1; stroke: rgb(0,0,0); stroke-width: 3" />
	<polygon points="226.761413198205,-529.715760405447 368.238586801825,-529.71576040544 297.500000000014,-652.238586801801 " style="fill: rgb(14,173,105); fill-opacity: 1; stroke: rgb(0,0,0); stroke-width: 3" />
	<polygon points="297.499999999984,-124.238586801819 297.500000000006,-265.715760405451 174.97717360363,-194.977173603643 " style="fill: rgb(14,173,105); fill-opacity: 1; stroke: rgb(0,0,0); stroke-width: 3" />
	<polygon points="174.977173603619,-53.500000000007 174.97717360363,-194.977173603643 33.5000000000103,-194.977173603639 33.5,-53.5 " style="fill: rgb(14,173,105); fill-opacity: 1; stroke: rgb(0,0,0); stroke-width: 3" />
	<polygon points="490.761413198182,-317.499999999983 420.022826396373,-194.97717360363 561.5,-194.977173603629 " style="fill: rgb(14,173,105); fill-opacity: 1; stroke: rgb(0,0,0); stroke-width: 3" />
	<polygon points="368.238586801825,-529.71576040544 368.238586801817,-388.238586801811 490.761413198183,-458.977173603617 " style="fill: rgb(14,173,105); fill-opacity: 1; stroke: rgb(0,0,0); stroke-width: 3" />
	<polygon points="368.238586801825,-529.71576040544 490.761413198197,-600.45434720726 420.02282639639,-722.977173603608 297.500000000014,-652.238586801801 " style="fill: rgb(14,173,105); fill-opacity: 1; stroke: rgb(0,0,0); stroke-width: 3" />
	<polygon points="490.761413198182,-317.499999999983 368.238586801817,-388.238586801811 297.500000000006,-265.715760405451 420.022826396373,-194.97717360363 " style="fill: rgb(14,173,105); fill-opacity: 1; stroke: rgb(0,0,0); stroke-width: 3" />
	<circle cx="226.761413198193" cy="-388.238586801811" r="2" style="fill: rgb(0,0,0)" />
	<circle cx="368.238586801817" cy="-388.238586801811" r="2" style="fill: rgb(0,0,0)" />
	<circle cx="368.238586801825" cy="-529.71576040544" r="2" style="fill: rgb(0,0,0)" />
	<circle cx="226.761413198205" cy="-529.715760405447" r="2" style="fill: rgb(0,0,0)" />
	<circle cx="297.500000000006" cy="-265.715760405451" r="2" style="fill: rgb(0,0,0)" />
	<circle cx="104.238586801839" cy="-458.977173603645" r="2" style="fill: rgb(0,0,0)" />
	<circle cx="297.500000000014" cy="-652.238586801801" r="2" style="fill: rgb(0,0,0)" />
	<circle cx="490.761413198183" cy="-458.977173603617" r="2" style="fill: rgb(0,0,0)" />
	<circle cx="104.238586801829" cy="-317.499999999997" r="2" style="fill: rgb(0,0,0)" />
	<circle cx="174.97717360363" cy="-194.977173603643" r="2" style="fill: rgb(0,0,0)" />
	<circle cx="420.022826396373" cy="-194.97717360363" r="2" style="fill: rgb(0,0,0)" />
	<circle cx="490.761413198182" cy="-317.499999999983" r="2" style="fill: rgb(0,0,0)" />
	<circle cx="156.022826396402" cy="-652.238586801824" r="2" style="fill: rgb(0,0,0)" />
	<circle cx="33.5000000000423" cy="-581.500000000028" r="2" style="fill: rgb(0,0,0)" />
	<circle cx="490.761413198197" cy="-600.45434720726" r="2" style="fill: rgb(0,0,0)" />
	<circle cx="420.02282639639" cy="-722.977173603608" r="2" style="fill: rgb(0,0,0)" />
	<circle cx="33.5000000000103" cy="-194.977173603639" r="2" style="fill: rgb(0,0,0)" />
	<circle cx="297.499999999984" cy="-124.238586801819" r="2" style="fill: rgb(0,0,0)" />
	<circle cx="561.5" cy="-194.977173603629" r="2" style="fill: rgb(0,0,0)" />
	<circle cx="33.5000000000477" cy="-722.977173603651" r="2" style="fill: rgb(0,0,0)" />
	<circle cx="33.5" cy="-53.5" r="2" style="fill: rgb(0,0,0)" />
	<circle cx="174.977173603619" cy="-53.500000000007" r="2" style="fill: rgb(0,0,0)" />
	<!-- 
	Generated using the Perl SVG Module V2.64
	by Ronan Oger
	Info: http://www.roitsystems.com/
 -->
</svg>