<?xml version="1.0" encoding="UTF-8" standalone="yes"?>
<!DOCTYPE svg PUBLIC "-//W3C//DTD SVG 1.0//EN" "http://www.w3.org/TR/2001/REC-SVG-20010904/DTD/svg10.dtd">
<!-- generated using polymake; Michael Joswig, Georg Loho, Benjamin Lorenz, Rico Raber; license CC BY-NC-ND 3.0; see polymake.org and matchthenet.de -->
<svg height="841pt" id="document" viewBox="0 -811 566.556324514268 811" width="595pt" xmlns="http://www.w3.org/2000/svg" xmlns:svg="http://www.w3.org/2000/svg" xmlns:xlink="http://www.w3.org/1999/xlink">
	<title id="document_title">planar_net_</title>
	<polygon points="285.836773787798,-542.118061094095 556.056324514268,-542.118061094095 303.870906518879,-582.940335261813 " style="fill: rgb(14,173,105); fill-opacity: 1; stroke: rgb(0,0,0); stroke-width: 3" />
	<polygon points="269.768091208789,-455.256155995169 325.163218268448,-351.870021532316 556.056324514268,-542.118061094095 " style="fill: rgb(14,173,105); fill-opacity: 1; stroke: rgb(0,0,0); stroke-width: 3" />
	<polygon points="387.033136840948,-733.677725825931 556.056324514268,-542.118061094095 411.948150285742,-770.703799320036 " style="fill: rgb(14,173,105); fill-opacity: 1; stroke: rgb(0,0,0); stroke-width: 3" />
	<polygon points="406.383736763722,-317.136457233191 556.056324514268,-542.118061094095 325.163218268448,-351.870021532316 " style="fill: rgb(14,173,105); fill-opacity: 1; stroke: rgb(0,0,0); stroke-width: 3" />
	<polygon points="285.836773787798,-542.118061094095 269.768091208789,-455.256155995169 556.056324514268,-542.118061094095 " style="fill: rgb(14,173,105); fill-opacity: 1; stroke: rgb(0,0,0); stroke-width: 3" />
	<polygon points="347.101159975115,-53.5 406.383736763722,-317.136457233191 325.163218268448,-351.870021532316 " style="fill: rgb(14,173,105); fill-opacity: 1; stroke: rgb(0,0,0); stroke-width: 3" />
	<polygon points="269.768091208789,-455.256155995169 38.8749850417278,-265.008116467787 325.163218268448,-351.870021532316 " style="fill: rgb(14,173,105); fill-opacity: 1; stroke: rgb(0,0,0); stroke-width: 3" />
	<polygon points="134.847719068064,-774.499999833623 387.033136840948,-733.677725825931 405.067269606454,-774.5 " style="fill: rgb(14,173,105); fill-opacity: 1; stroke: rgb(0,0,0); stroke-width: 3" />
	<polygon points="285.836773787798,-542.118061094095 33.5,-638.786349958006 269.768091208789,-455.256155995169 " style="fill: rgb(14,173,105); fill-opacity: 1; stroke: rgb(0,0,0); stroke-width: 3" />
	<polygon points="134.847719068064,-774.499999833623 556.056324514268,-542.118061094095 387.033136840948,-733.677725825931 " style="fill: rgb(14,173,105); fill-opacity: 1; stroke: rgb(0,0,0); stroke-width: 3" />
	<polygon points="303.870906518879,-582.940335261813 556.056324514268,-542.118061094095 134.847719068064,-774.499999833623 " style="fill: rgb(14,173,105); fill-opacity: 1; stroke: rgb(0,0,0); stroke-width: 3" />
	<polygon points="285.836773787798,-542.118061094095 303.870906518879,-582.940335261813 103.867480134774,-741.882376338162 " style="fill: rgb(14,173,105); fill-opacity: 1; stroke: rgb(0,0,0); stroke-width: 3" />
	<circle cx="285.836773787798" cy="-542.118061094095" r="2" style="fill: rgb(0,0,0)" />
	<circle cx="556.056324514268" cy="-542.118061094095" r="2" style="fill: rgb(0,0,0)" />
	<circle cx="303.870906518879" cy="-582.940335261813" r="2" style="fill: rgb(0,0,0)" />
	<circle cx="269.768091208789" cy="-455.256155995169" r="2" style="fill: rgb(0,0,0)" />
	<circle cx="134.847719068064" cy="-774.499999833623" r="2" style="fill: rgb(0,0,0)" />
	<circle cx="103.867480134774" cy="-741.882376338162" r="2" style="fill: rgb(0,0,0)" />
	<circle cx="325.163218268448" cy="-351.870021532316" r="2" style="fill: rgb(0,0,0)" />
	<circle cx="33.5" cy="-638.786349958006" r="2" style="fill: rgb(0,0,0)" />
	<circle cx="387.033136840948" cy="-733.677725825931" r="2" style="fill: rgb(0,0,0)" />
	<circle cx="406.383736763722" cy="-317.136457233191" r="2" style="fill: rgb(0,0,0)" />
	<circle cx="38.8749850417278" cy="-265.008116467787" r="2" style="fill: rgb(0,0,0)" />
	<circle cx="411.948150285742" cy="-770.703799320036" r="2" style="fill: rgb(0,0,0)" />
	<circle cx="405.067269606454" cy="-774.5" r="2" style="fill: rgb(0,0,0)" />
	<circle cx="347.101159975115" cy="-53.5" r="2" style="fill: rgb(0,0,0)" />
	<!--
	Generated using the Perl SVG Module V2.87
	by Ronan Oger

	-->
</svg>