<?xml version="1.0" encoding="UTF-8" standalone="yes"?>
<!DOCTYPE svg PUBLIC "-//W3C//DTD SVG 1.0//EN" "http://www.w3.org/TR/2001/REC-SVG-20010904/DTD/svg10.dtd">
<!-- generated using polymake; Michael Joswig, Georg Loho, Benjamin Lorenz, Rico Raber; license CC BY-NC-ND 3.0; see polymake.org and matchthenet.de -->
<svg height="841pt" id="document" viewBox="0 -739.638963243719 572 739.638963243719" width="595pt" xmlns="http://www.w3.org/2000/svg" xmlns:svg="http://www.w3.org/2000/svg" xmlns:xlink="http://www.w3.org/1999/xlink">
	<title id="document_title">planar_net_</title>
	<polygon points="293.371996392218,-484.024377570578 561.5,-484.024377570578 305.342471849748,-517.884516114994 " style="fill: rgb(14,173,105); fill-opacity: 1; stroke: rgb(0,0,0); stroke-width: 3" />
	<polygon points="293.371996392218,-484.024377570578 286.027441920739,-425.289099662878 561.5,-484.024377570578 " style="fill: rgb(14,173,105); fill-opacity: 1; stroke: rgb(0,0,0); stroke-width: 3" />
	<polygon points="310.250080588792,-356.712006340289 352.855417735889,-315.619913461018 561.5,-484.024377570578 " style="fill: rgb(14,173,105); fill-opacity: 1; stroke: rgb(0,0,0); stroke-width: 3" />
	<polygon points="370.193801822098,-650.011922923638 561.5,-484.024377570578 380.474951088367,-668.396611492872 " style="fill: rgb(14,173,105); fill-opacity: 1; stroke: rgb(0,0,0); stroke-width: 3" />
	<polygon points="383.436978355572,-296.789900783315 561.5,-484.024377570578 352.855417735889,-315.619913461018 " style="fill: rgb(14,173,105); fill-opacity: 1; stroke: rgb(0,0,0); stroke-width: 3" />
	<polygon points="286.027441920739,-425.289099662878 310.250080588792,-356.712006340289 561.5,-484.024377570578 " style="fill: rgb(14,173,105); fill-opacity: 1; stroke: rgb(0,0,0); stroke-width: 3" />
	<polygon points="305.342471849748,-517.884516114994 561.5,-484.024377570578 313.856222992153,-537.151449834858 " style="fill: rgb(14,173,105); fill-opacity: 1; stroke: rgb(0,0,0); stroke-width: 3" />
	<polygon points="296.412933800219,-53.5 383.436978355572,-296.789900783315 352.855417735889,-315.619913461018 " style="fill: rgb(14,173,105); fill-opacity: 1; stroke: rgb(0,0,0); stroke-width: 3" />
	<polygon points="310.250080588792,-356.712006340289 192.103172147515,-101.024203895486 352.855417735889,-315.619913461018 " style="fill: rgb(14,173,105); fill-opacity: 1; stroke: rgb(0,0,0); stroke-width: 3" />
	<polygon points="286.027441920739,-425.289099662878 34.777554333911,-297.976739489474 310.250080588792,-356.712006340289 " style="fill: rgb(14,173,105); fill-opacity: 1; stroke: rgb(0,0,0); stroke-width: 3" />
	<polygon points="122.550078574563,-703.138963243719 561.5,-484.024377570578 370.193801822098,-650.011922923638 " style="fill: rgb(14,173,105); fill-opacity: 1; stroke: rgb(0,0,0); stroke-width: 3" />
	<polygon points="313.856222992153,-537.151449834858 561.5,-484.024377570578 122.550078574563,-703.138963243719 " style="fill: rgb(14,173,105); fill-opacity: 1; stroke: rgb(0,0,0); stroke-width: 3" />
	<polygon points="305.342471849748,-517.884516114994 313.856222992153,-537.151449834858 107.8423992989,-684.488478265819 " style="fill: rgb(14,173,105); fill-opacity: 1; stroke: rgb(0,0,0); stroke-width: 3" />
	<polygon points="122.550078574563,-703.138963243719 370.193801822098,-650.011922923638 378.707556364092,-669.278858010008 " style="fill: rgb(14,173,105); fill-opacity: 1; stroke: rgb(0,0,0); stroke-width: 3" />
	<polygon points="293.371996392218,-484.024377570578 33.5,-550.048204109346 286.027441920739,-425.289099662878 " style="fill: rgb(14,173,105); fill-opacity: 1; stroke: rgb(0,0,0); stroke-width: 3" />
	<polygon points="293.371996392218,-484.024377570578 305.342471849748,-517.884516114994 84.8201854514056,-652.54364155249 " style="fill: rgb(14,173,105); fill-opacity: 1; stroke: rgb(0,0,0); stroke-width: 3" />
	<circle cx="293.371996392218" cy="-484.024377570578" r="2" style="fill: rgb(0,0,0)" />
	<circle cx="561.5" cy="-484.024377570578" r="2" style="fill: rgb(0,0,0)" />
	<circle cx="305.342471849748" cy="-517.884516114994" r="2" style="fill: rgb(0,0,0)" />
	<circle cx="286.027441920739" cy="-425.289099662878" r="2" style="fill: rgb(0,0,0)" />
	<circle cx="313.856222992153" cy="-537.151449834858" r="2" style="fill: rgb(0,0,0)" />
	<circle cx="84.8201854514056" cy="-652.54364155249" r="2" style="fill: rgb(0,0,0)" />
	<circle cx="310.250080588792" cy="-356.712006340289" r="2" style="fill: rgb(0,0,0)" />
	<circle cx="33.5" cy="-550.048204109346" r="2" style="fill: rgb(0,0,0)" />
	<circle cx="122.550078574563" cy="-703.138963243719" r="2" style="fill: rgb(0,0,0)" />
	<circle cx="107.8423992989" cy="-684.488478265819" r="2" style="fill: rgb(0,0,0)" />
	<circle cx="352.855417735889" cy="-315.619913461018" r="2" style="fill: rgb(0,0,0)" />
	<circle cx="34.777554333911" cy="-297.976739489474" r="2" style="fill: rgb(0,0,0)" />
	<circle cx="370.193801822098" cy="-650.011922923638" r="2" style="fill: rgb(0,0,0)" />
	<circle cx="383.436978355572" cy="-296.789900783315" r="2" style="fill: rgb(0,0,0)" />
	<circle cx="192.103172147515" cy="-101.024203895486" r="2" style="fill: rgb(0,0,0)" />
	<circle cx="380.474951088367" cy="-668.396611492872" r="2" style="fill: rgb(0,0,0)" />
	<circle cx="378.707556364092" cy="-669.278858010008" r="2" style="fill: rgb(0,0,0)" />
	<circle cx="296.412933800219" cy="-53.5" r="2" style="fill: rgb(0,0,0)" />
	<!--
	Generated using the Perl SVG Module V2.84
	by Ronan Oger
	Info: http://www.roitsystems.com/
	-->
</svg>