<?xml version="1.0" encoding="UTF-8" standalone="yes"?>
<!DOCTYPE svg PUBLIC "-//W3C//DTD SVG 1.0//EN" "http://www.w3.org/TR/2001/REC-SVG-20010904/DTD/svg10.dtd">
<!-- generated using polymake; Michael Joswig, Georg Loho, Benjamin Lorenz, Rico Raber; license CC BY-NC-ND 3.0; see polymake.org and matchthenet.de -->
<svg height="841pt" id="document" viewBox="0 -811 571.234149179198 811" width="595pt" xmlns="http://www.w3.org/2000/svg" xmlns:svg="http://www.w3.org/2000/svg" xmlns:xlink="http://www.w3.org/1999/xlink">
	<title id="document_title">planar_net_</title>
	<polygon points="296.43685647206,-322.476512139009 560.734149179198,-322.476512139009 289.712633485044,-454.856826084512 " style="fill: rgb(186,59,38); fill-opacity: 1; stroke: rgb(0,0,0); stroke-width: 3" />
	<polygon points="296.43685647206,-322.476512139009 330.91125354045,-263.690632817 560.734149179198,-322.476512139009 " style="fill: rgb(186,59,38); fill-opacity: 1; stroke: rgb(0,0,0); stroke-width: 3" />
	<polygon points="289.712633485044,-454.856826084512 560.734149179198,-322.476512139009 398.257750833256,-530.933884989834 " style="fill: rgb(186,59,38); fill-opacity: 1; stroke: rgb(0,0,0); stroke-width: 3" />
	<polygon points="398.257750833256,-530.933884989834 560.734149179198,-322.476512139009 465.816605382782,-539.881658226018 " style="fill: rgb(186,59,38); fill-opacity: 1; stroke: rgb(0,0,0); stroke-width: 3" />
	<polygon points="450.760535739232,-112.285784435749 560.734149179198,-322.476512139009 220.937804117901,-53.5 " style="fill: rgb(186,59,38); fill-opacity: 1; stroke: rgb(0,0,0); stroke-width: 3" />
	<polygon points="398.257750833256,-530.933884989834 465.816605382782,-539.881658226018 500.86642884682,-774.5 " style="fill: rgb(186,59,38); fill-opacity: 1; stroke: rgb(0,0,0); stroke-width: 3" />
	<polygon points="289.712633485044,-454.856826084512 398.257750833256,-530.933884989834 257.740500574797,-754.78181454166 " style="fill: rgb(186,59,38); fill-opacity: 1; stroke: rgb(0,0,0); stroke-width: 3" />
	<polygon points="330.91125354045,-263.690632817 220.937804117901,-53.5 560.734149179198,-322.476512139009 " style="fill: rgb(186,59,38); fill-opacity: 1; stroke: rgb(0,0,0); stroke-width: 3" />
	<polygon points="296.43685647206,-322.476512139009 289.712633485044,-454.856826084512 33.5,-295.695579461786 " style="fill: rgb(186,59,38); fill-opacity: 1; stroke: rgb(0,0,0); stroke-width: 3" />
	<polygon points="296.43685647206,-322.476512139009 167.409177253405,-91.814710269002 330.91125354045,-263.690632817 " style="fill: rgb(186,59,38); fill-opacity: 1; stroke: rgb(0,0,0); stroke-width: 3" />
	<circle cx="296.43685647206" cy="-322.476512139009" r="2" style="fill: rgb(0,0,0)" />
	<circle cx="560.734149179198" cy="-322.476512139009" r="2" style="fill: rgb(0,0,0)" />
	<circle cx="289.712633485044" cy="-454.856826084512" r="2" style="fill: rgb(0,0,0)" />
	<circle cx="330.91125354045" cy="-263.690632817" r="2" style="fill: rgb(0,0,0)" />
	<circle cx="398.257750833256" cy="-530.933884989834" r="2" style="fill: rgb(0,0,0)" />
	<circle cx="33.5" cy="-295.695579461786" r="2" style="fill: rgb(0,0,0)" />
	<circle cx="220.937804117901" cy="-53.5" r="2" style="fill: rgb(0,0,0)" />
	<circle cx="167.409177253405" cy="-91.814710269002" r="2" style="fill: rgb(0,0,0)" />
	<circle cx="465.816605382782" cy="-539.881658226018" r="2" style="fill: rgb(0,0,0)" />
	<circle cx="257.740500574797" cy="-754.78181454166" r="2" style="fill: rgb(0,0,0)" />
	<circle cx="450.760535739232" cy="-112.285784435749" r="2" style="fill: rgb(0,0,0)" />
	<circle cx="500.86642884682" cy="-774.5" r="2" style="fill: rgb(0,0,0)" />
	<!--
	Generated using the Perl SVG Module V2.86
	by Ronan Oger
	Info: http://www.roitsystems.com/
	-->
</svg>