<?xml version="1.0" encoding="UTF-8" standalone="yes"?>
<!DOCTYPE svg PUBLIC "-//W3C//DTD SVG 1.0//EN" "http://www.w3.org/TR/2001/REC-SVG-20010904/DTD/svg10.dtd">
<!-- generated using polymake; Michael Joswig, Georg Loho, Benjamin Lorenz, Rico Raber; license CC BY-NC-ND 3.0; see polymake.org and matchthenet.de -->
<svg height="841pt" id="document" viewBox="0 -811 551.016118737369 811" width="595pt" xmlns="http://www.w3.org/2000/svg" xmlns:svg="http://www.w3.org/2000/svg" xmlns:xlink="http://www.w3.org/1999/xlink">
	<title id="document_title">planar_net_</title>
	<polygon points="42.8371739965047,-362.738669175971 318.978507960556,-362.738669175971 264.374784792934,-527.587458508028 " style="fill: rgb(186,59,38); fill-opacity: 1; stroke: rgb(0,0,0); stroke-width: 3" />
	<polygon points="243.518432722292,-272.724031854319 318.978507960556,-362.738669175971 42.8371739965047,-362.738669175971 " style="fill: rgb(186,59,38); fill-opacity: 1; stroke: rgb(0,0,0); stroke-width: 3" />
	<polygon points="42.8371739965047,-362.738669175971 264.374784792934,-527.587458508028 150.099792641911,-554.755161124227 " style="fill: rgb(186,59,38); fill-opacity: 1; stroke: rgb(0,0,0); stroke-width: 3" />
	<polygon points="42.8371739965047,-362.738669175971 150.099792641911,-554.755161124227 33.5,-741.249372204447 " style="fill: rgb(186,59,38); fill-opacity: 1; stroke: rgb(0,0,0); stroke-width: 3" />
	<polygon points="264.374784792934,-527.587458508028 140.729189778073,-774.5 150.099792641911,-554.755161124227 " style="fill: rgb(186,59,38); fill-opacity: 1; stroke: rgb(0,0,0); stroke-width: 3" />
	<polygon points="367.182388368507,-90.8371755911488 318.978507960556,-362.738669175971 243.518432722292,-272.724031854319 " style="fill: rgb(186,59,38); fill-opacity: 1; stroke: rgb(0,0,0); stroke-width: 3" />
	<polygon points="264.374784792934,-527.587458508028 318.978507960556,-362.738669175971 540.516118737369,-527.587458408256 " style="fill: rgb(186,59,38); fill-opacity: 1; stroke: rgb(0,0,0); stroke-width: 3" />
	<polygon points="261.306807153133,-53.5 243.518432722292,-272.724031854319 42.8371739965047,-362.738669175971 " style="fill: rgb(186,59,38); fill-opacity: 1; stroke: rgb(0,0,0); stroke-width: 3" />
	<circle cx="42.8371739965047" cy="-362.738669175971" r="2" style="fill: rgb(0,0,0)" />
	<circle cx="318.978507960556" cy="-362.738669175971" r="2" style="fill: rgb(0,0,0)" />
	<circle cx="264.374784792934" cy="-527.587458508028" r="2" style="fill: rgb(0,0,0)" />
	<circle cx="243.518432722292" cy="-272.724031854319" r="2" style="fill: rgb(0,0,0)" />
	<circle cx="150.099792641911" cy="-554.755161124227" r="2" style="fill: rgb(0,0,0)" />
	<circle cx="540.516118737369" cy="-527.587458408256" r="2" style="fill: rgb(0,0,0)" />
	<circle cx="367.182388368507" cy="-90.8371755911488" r="2" style="fill: rgb(0,0,0)" />
	<circle cx="261.306807153133" cy="-53.5" r="2" style="fill: rgb(0,0,0)" />
	<circle cx="33.5" cy="-741.249372204447" r="2" style="fill: rgb(0,0,0)" />
	<circle cx="140.729189778073" cy="-774.5" r="2" style="fill: rgb(0,0,0)" />
	<!--
	Generated using the Perl SVG Module V2.86
	by Ronan Oger
	Info: http://www.roitsystems.com/
	-->
</svg>