<?xml version="1.0" encoding="UTF-8" standalone="yes"?>
<!DOCTYPE svg PUBLIC "-//W3C//DTD SVG 1.0//EN" "http://www.w3.org/TR/2001/REC-SVG-20010904/DTD/svg10.dtd">
<!-- generated using polymake; Michael Joswig, Georg Loho, Benjamin Lorenz, Rico Raber; license CC BY-NC-ND 3.0; see polymake.org and matchthenet.de -->
<svg height="841pt" id="document" viewBox="0 -811 566.556324600867 811" width="595pt" xmlns="http://www.w3.org/2000/svg" xmlns:svg="http://www.w3.org/2000/svg" xmlns:xlink="http://www.w3.org/1999/xlink">
	<title id="document_title">planar_net_</title>
	<polygon points="285.836773851928,-285.881938902638 556.056324600867,-285.881938902638 269.76809130767,-372.743843991237 " style="fill: rgb(186,59,38); fill-opacity: 1; stroke: rgb(0,0,0); stroke-width: 3" />
	<polygon points="285.836773851928,-285.881938902638 303.870906585187,-245.059664711932 556.056324600867,-285.881938902638 " style="fill: rgb(186,59,38); fill-opacity: 1; stroke: rgb(0,0,0); stroke-width: 3" />
	<polygon points="269.76809130767,-372.743843991237 556.056324600867,-285.881938902638 325.1632183169,-476.129978487643 " style="fill: rgb(186,59,38); fill-opacity: 1; stroke: rgb(0,0,0); stroke-width: 3" />
	<polygon points="406.383736848004,-510.863542766952 556.056324600867,-285.881938902638 450.360851003629,-518.459689311406 " style="fill: rgb(186,59,38); fill-opacity: 1; stroke: rgb(0,0,0); stroke-width: 3" />
	<polygon points="325.1632183169,-476.129978487643 556.056324600867,-285.881938902638 406.383736848004,-510.863542766952 " style="fill: rgb(186,59,38); fill-opacity: 1; stroke: rgb(0,0,0); stroke-width: 3" />
	<polygon points="325.1632183169,-476.129978487643 406.383736848004,-510.863542766952 347.101160130191,-774.5 " style="fill: rgb(186,59,38); fill-opacity: 1; stroke: rgb(0,0,0); stroke-width: 3" />
	<polygon points="387.033136941178,-94.3222741568635 556.056324600867,-285.881938902638 134.84771917955,-53.500000069047 " style="fill: rgb(186,59,38); fill-opacity: 1; stroke: rgb(0,0,0); stroke-width: 3" />
	<polygon points="405.067269702252,-53.5 387.033136941178,-94.3222741568635 134.84771917955,-53.500000069047 " style="fill: rgb(186,59,38); fill-opacity: 1; stroke: rgb(0,0,0); stroke-width: 3" />
	<polygon points="269.76809130767,-372.743843991237 325.1632183169,-476.129978487643 38.8749850959988,-562.991883529745 " style="fill: rgb(186,59,38); fill-opacity: 1; stroke: rgb(0,0,0); stroke-width: 3" />
	<polygon points="303.870906585187,-245.059664711932 134.84771917955,-53.500000069047 556.056324600867,-285.881938902638 " style="fill: rgb(186,59,38); fill-opacity: 1; stroke: rgb(0,0,0); stroke-width: 3" />
	<polygon points="285.836773851928,-285.881938902638 269.76809130767,-372.743843991237 33.5,-189.213650088033 " style="fill: rgb(186,59,38); fill-opacity: 1; stroke: rgb(0,0,0); stroke-width: 3" />
	<polygon points="285.836773851928,-285.881938902638 103.867480196864,-86.1176236032836 303.870906585187,-245.059664711932 " style="fill: rgb(186,59,38); fill-opacity: 1; stroke: rgb(0,0,0); stroke-width: 3" />
	<circle cx="285.836773851928" cy="-285.881938902638" r="2" style="fill: rgb(0,0,0)" />
	<circle cx="556.056324600867" cy="-285.881938902638" r="2" style="fill: rgb(0,0,0)" />
	<circle cx="269.76809130767" cy="-372.743843991237" r="2" style="fill: rgb(0,0,0)" />
	<circle cx="303.870906585187" cy="-245.059664711932" r="2" style="fill: rgb(0,0,0)" />
	<circle cx="325.1632183169" cy="-476.129978487643" r="2" style="fill: rgb(0,0,0)" />
	<circle cx="33.5" cy="-189.213650088033" r="2" style="fill: rgb(0,0,0)" />
	<circle cx="134.84771917955" cy="-53.500000069047" r="2" style="fill: rgb(0,0,0)" />
	<circle cx="103.867480196864" cy="-86.1176236032836" r="2" style="fill: rgb(0,0,0)" />
	<circle cx="406.383736848004" cy="-510.863542766952" r="2" style="fill: rgb(0,0,0)" />
	<circle cx="38.8749850959988" cy="-562.991883529745" r="2" style="fill: rgb(0,0,0)" />
	<circle cx="387.033136941178" cy="-94.3222741568635" r="2" style="fill: rgb(0,0,0)" />
	<circle cx="450.360851003629" cy="-518.459689311406" r="2" style="fill: rgb(0,0,0)" />
	<circle cx="347.101160130191" cy="-774.5" r="2" style="fill: rgb(0,0,0)" />
	<circle cx="405.067269702252" cy="-53.5" r="2" style="fill: rgb(0,0,0)" />
	<!--
	Generated using the Perl SVG Module V2.86
	by Ronan Oger
	Info: http://www.roitsystems.com/
	-->
</svg>