<?xml version="1.0" encoding="UTF-8" standalone="yes"?>
<!DOCTYPE svg PUBLIC "-//W3C//DTD SVG 1.0//EN" "http://www.w3.org/TR/2001/REC-SVG-20010904/DTD/svg10.dtd">
<!-- generated using polymake; Michael Joswig, Georg Loho, Benjamin Lorenz, Rico Raber; license CC BY-NC-ND 3.0; see polymake.org and matchthenet.de -->
<svg height="841pt" id="document" viewBox="0 -811 567.837162691874 811" width="595pt" xmlns="http://www.w3.org/2000/svg" xmlns:svg="http://www.w3.org/2000/svg" xmlns:xlink="http://www.w3.org/1999/xlink">
	<title id="document_title">planar_net_</title>
	<polygon points="250.677546280945,-413.999999999992 340.159616410896,-413.999999999992 367.811096772906,-499.102505888664 295.418581345928,-551.698747055652 223.026065918943,-499.102505888665 " style="fill: rgb(14,173,105); fill-opacity: 1; stroke: rgb(0,0,0); stroke-width: 3" />
	<polygon points="367.811096772895,-328.897494111319 340.159616410896,-413.999999999992 250.677546280945,-413.999999999992 223.026065918939,-328.89749411132 295.418581345915,-276.301252944331 " style="fill: rgb(14,173,105); fill-opacity: 1; stroke: rgb(0,0,0); stroke-width: 3" />
	<polygon points="223.026065918943,-499.102505888665 295.418581345928,-551.698747055652 267.767100983925,-636.801252944331 178.285030853972,-636.801252944332 150.633550491962,-551.698747055651 " style="fill: rgb(14,173,105); fill-opacity: 1; stroke: rgb(0,0,0); stroke-width: 3" />
	<polygon points="250.677546280945,-413.999999999992 223.026065918943,-499.102505888665 133.543995788988,-499.102505888672 105.892515426976,-414.000000000004 178.285030853958,-361.40375883301 " style="fill: rgb(14,173,105); fill-opacity: 1; stroke: rgb(0,0,0); stroke-width: 3" />
	<polygon points="150.633550491962,-551.698747055651 178.285030853972,-636.801252944332 105.892515426985,-689.397494111331 33.5,-636.801252944336 61.1514803620096,-551.698747055645 " style="fill: rgb(14,173,105); fill-opacity: 1; stroke: rgb(0,0,0); stroke-width: 3" />
	<polygon points="223.026065918939,-328.89749411132 150.633550491953,-276.301252944332 178.285030853946,-191.198747055664 267.767100983898,-191.198747055668 295.418581345915,-276.301252944331 " style="fill: rgb(14,173,105); fill-opacity: 1; stroke: rgb(0,0,0); stroke-width: 3" />
	<polygon points="295.4185813459,-106.096241167004 267.767100983898,-191.198747055668 178.285030853946,-191.198747055664 150.633550491937,-106.096241166981 223.026065918915,-53.5 " style="fill: rgb(14,173,105); fill-opacity: 1; stroke: rgb(0,0,0); stroke-width: 3" />
	<polygon points="267.767100983925,-636.801252944331 295.418581345931,-721.903758833015 223.026065918952,-774.5 150.63355049197,-721.903758832998 178.285030853972,-636.801252944332 " style="fill: rgb(14,173,105); fill-opacity: 1; stroke: rgb(0,0,0); stroke-width: 3" />
	<polygon points="440.203612199873,-276.301252944333 367.811096772895,-328.897494111319 295.418581345915,-276.301252944331 323.070061707927,-191.198747055653 412.552131837875,-191.198747055653 " style="fill: rgb(14,173,105); fill-opacity: 1; stroke: rgb(0,0,0); stroke-width: 3" />
	<polygon points="440.203612199897,-551.698747055652 529.68568232986,-551.698747055653 557.337162691874,-636.80125294431 484.944647264884,-689.397494111289 412.552131837899,-636.801252944321 " style="fill: rgb(14,173,105); fill-opacity: 1; stroke: rgb(0,0,0); stroke-width: 3" />
	<polygon points="295.418581345928,-551.698747055652 367.811096772906,-499.102505888664 440.203612199897,-551.698747055652 412.552131837899,-636.801252944321 323.070061707941,-636.801252944317 " style="fill: rgb(14,173,105); fill-opacity: 1; stroke: rgb(0,0,0); stroke-width: 3" />
	<polygon points="367.811096772906,-499.102505888664 340.159616410896,-413.999999999992 412.552131837882,-361.403758833002 484.944647264865,-413.999999999983 457.293166902856,-499.102505888655 " style="fill: rgb(14,173,105); fill-opacity: 1; stroke: rgb(0,0,0); stroke-width: 3" />
	<circle cx="250.677546280945" cy="-413.999999999992" r="2" style="fill: rgb(0,0,0)" />
	<circle cx="340.159616410896" cy="-413.999999999992" r="2" style="fill: rgb(0,0,0)" />
	<circle cx="367.811096772906" cy="-499.102505888664" r="2" style="fill: rgb(0,0,0)" />
	<circle cx="295.418581345928" cy="-551.698747055652" r="2" style="fill: rgb(0,0,0)" />
	<circle cx="223.026065918943" cy="-499.102505888665" r="2" style="fill: rgb(0,0,0)" />
	<circle cx="223.026065918939" cy="-328.89749411132" r="2" style="fill: rgb(0,0,0)" />
	<circle cx="295.418581345915" cy="-276.301252944331" r="2" style="fill: rgb(0,0,0)" />
	<circle cx="367.811096772895" cy="-328.897494111319" r="2" style="fill: rgb(0,0,0)" />
	<circle cx="267.767100983925" cy="-636.801252944331" r="2" style="fill: rgb(0,0,0)" />
	<circle cx="178.285030853972" cy="-636.801252944332" r="2" style="fill: rgb(0,0,0)" />
	<circle cx="150.633550491962" cy="-551.698747055651" r="2" style="fill: rgb(0,0,0)" />
	<circle cx="133.543995788988" cy="-499.102505888672" r="2" style="fill: rgb(0,0,0)" />
	<circle cx="105.892515426976" cy="-414.000000000004" r="2" style="fill: rgb(0,0,0)" />
	<circle cx="178.285030853958" cy="-361.40375883301" r="2" style="fill: rgb(0,0,0)" />
	<circle cx="440.203612199897" cy="-551.698747055652" r="2" style="fill: rgb(0,0,0)" />
	<circle cx="412.552131837899" cy="-636.801252944321" r="2" style="fill: rgb(0,0,0)" />
	<circle cx="323.070061707941" cy="-636.801252944317" r="2" style="fill: rgb(0,0,0)" />
	<circle cx="412.552131837882" cy="-361.403758833002" r="2" style="fill: rgb(0,0,0)" />
	<circle cx="484.944647264865" cy="-413.999999999983" r="2" style="fill: rgb(0,0,0)" />
	<circle cx="457.293166902856" cy="-499.102505888655" r="2" style="fill: rgb(0,0,0)" />
	<circle cx="150.633550491953" cy="-276.301252944332" r="2" style="fill: rgb(0,0,0)" />
	<circle cx="178.285030853946" cy="-191.198747055664" r="2" style="fill: rgb(0,0,0)" />
	<circle cx="267.767100983898" cy="-191.198747055668" r="2" style="fill: rgb(0,0,0)" />
	<circle cx="323.070061707927" cy="-191.198747055653" r="2" style="fill: rgb(0,0,0)" />
	<circle cx="412.552131837875" cy="-191.198747055653" r="2" style="fill: rgb(0,0,0)" />
	<circle cx="440.203612199873" cy="-276.301252944333" r="2" style="fill: rgb(0,0,0)" />
	<circle cx="105.892515426985" cy="-689.397494111331" r="2" style="fill: rgb(0,0,0)" />
	<circle cx="33.5" cy="-636.801252944336" r="2" style="fill: rgb(0,0,0)" />
	<circle cx="61.1514803620096" cy="-551.698747055645" r="2" style="fill: rgb(0,0,0)" />
	<circle cx="295.418581345931" cy="-721.903758833015" r="2" style="fill: rgb(0,0,0)" />
	<circle cx="223.026065918952" cy="-774.5" r="2" style="fill: rgb(0,0,0)" />
	<circle cx="150.63355049197" cy="-721.903758832998" r="2" style="fill: rgb(0,0,0)" />
	<circle cx="529.68568232986" cy="-551.698747055653" r="2" style="fill: rgb(0,0,0)" />
	<circle cx="557.337162691874" cy="-636.80125294431" r="2" style="fill: rgb(0,0,0)" />
	<circle cx="484.944647264884" cy="-689.397494111289" r="2" style="fill: rgb(0,0,0)" />
	<circle cx="150.633550491937" cy="-106.096241166981" r="2" style="fill: rgb(0,0,0)" />
	<circle cx="223.026065918915" cy="-53.5" r="2" style="fill: rgb(0,0,0)" />
	<circle cx="295.4185813459" cy="-106.096241167004" r="2" style="fill: rgb(0,0,0)" />
	<!--
	Generated using the Perl SVG Module V2.86
	by Ronan Oger
	Info: http://www.roitsystems.com/
	-->
</svg>