<?xml version="1.0" encoding="UTF-8" standalone="yes"?>
<!DOCTYPE svg PUBLIC "-//W3C//DTD SVG 1.0//EN" "http://www.w3.org/TR/2001/REC-SVG-20010904/DTD/svg10.dtd">
<!-- generated using polymake; Michael Joswig, Georg Loho, Benjamin Lorenz, Rico Raber; license CC BY-NC-ND 3.0; see polymake.org and matchthenet.de -->
<svg height="841pt" id="document" viewBox="0 -556.636640484686 572 556.636640484686" width="595pt" xmlns="http://www.w3.org/2000/svg" xmlns:svg="http://www.w3.org/2000/svg" xmlns:xlink="http://www.w3.org/1999/xlink">
	<title id="document_title">planar_net_</title>
	<polygon points="259.639022150067,-189.183413290043 350.094631010092,-189.183413290043 395.322435440105,-267.520268477613 304.866826580081,-424.193978852754 214.411217720054,-267.520268477612 " style="fill: rgb(61,81,50); fill-opacity: 1; stroke: rgb(0,0,0); stroke-width: 3" />
	<polygon points="259.639022150067,-98.7278044300179 350.094631010092,-189.183413290043 259.639022150067,-189.183413290043 214.411217720055,-143.95560886003 " style="fill: rgb(216,176,92); fill-opacity: 1; stroke: rgb(0,0,0); stroke-width: 3" />
	<polygon points="259.639022150067,-189.183413290043 214.411217720054,-267.520268477612 159.018696200091,-235.539381266974 204.2465006301,-157.202526079406 " style="fill: rgb(216,176,92); fill-opacity: 1; stroke: rgb(0,0,0); stroke-width: 3" />
	<polygon points="214.411217720056,-53.5000000000073 259.639022150067,-98.7278044300179 214.411217720055,-143.95560886003 123.955608860027,-143.955608860027 33.5,-53.5 " style="fill: rgb(61,81,50); fill-opacity: 1; stroke: rgb(0,0,0); stroke-width: 3" />
	<polygon points="214.411217720054,-267.520268477612 304.866826580081,-424.193978852754 119.519837153706,-374.530402716411 152.62888791127,-250.965743098828 " style="fill: rgb(216,176,92); fill-opacity: 1; stroke: rgb(0,0,0); stroke-width: 3" />
	<polygon points="395.322435440105,-267.520268477613 350.094631010092,-189.183413290043 383.203681767658,-65.6187536724599 444.986011576448,-82.1732790512391 " style="fill: rgb(216,176,92); fill-opacity: 1; stroke: rgb(0,0,0); stroke-width: 3" />
	<polygon points="304.866826580081,-424.193978852754 395.322435440105,-267.520268477613 561.5,-363.462930109543 471.044391139999,-520.136640484686 " style="fill: rgb(216,176,92); fill-opacity: 1; stroke: rgb(0,0,0); stroke-width: 3" />
	<circle cx="259.639022150067" cy="-189.183413290043" r="2" style="fill: rgb(0,0,0)" />
	<circle cx="350.094631010092" cy="-189.183413290043" r="2" style="fill: rgb(0,0,0)" />
	<circle cx="395.322435440105" cy="-267.520268477613" r="2" style="fill: rgb(0,0,0)" />
	<circle cx="304.866826580081" cy="-424.193978852754" r="2" style="fill: rgb(0,0,0)" />
	<circle cx="214.411217720054" cy="-267.520268477612" r="2" style="fill: rgb(0,0,0)" />
	<circle cx="214.411217720055" cy="-143.95560886003" r="2" style="fill: rgb(0,0,0)" />
	<circle cx="259.639022150067" cy="-98.7278044300179" r="2" style="fill: rgb(0,0,0)" />
	<circle cx="159.018696200091" cy="-235.539381266974" r="2" style="fill: rgb(0,0,0)" />
	<circle cx="204.2465006301" cy="-157.202526079406" r="2" style="fill: rgb(0,0,0)" />
	<circle cx="119.519837153706" cy="-374.530402716411" r="2" style="fill: rgb(0,0,0)" />
	<circle cx="152.62888791127" cy="-250.965743098828" r="2" style="fill: rgb(0,0,0)" />
	<circle cx="383.203681767658" cy="-65.6187536724599" r="2" style="fill: rgb(0,0,0)" />
	<circle cx="444.986011576448" cy="-82.1732790512391" r="2" style="fill: rgb(0,0,0)" />
	<circle cx="561.5" cy="-363.462930109543" r="2" style="fill: rgb(0,0,0)" />
	<circle cx="471.044391139999" cy="-520.136640484686" r="2" style="fill: rgb(0,0,0)" />
	<circle cx="123.955608860027" cy="-143.955608860027" r="2" style="fill: rgb(0,0,0)" />
	<circle cx="33.5" cy="-53.5" r="2" style="fill: rgb(0,0,0)" />
	<circle cx="214.411217720056" cy="-53.5000000000073" r="2" style="fill: rgb(0,0,0)" />
	<!--
	Generated using the Perl SVG Module V2.84
	by Ronan Oger
	Info: http://www.roitsystems.com/
	-->
</svg>