<?xml version="1.0" encoding="UTF-8" standalone="yes"?>
<!DOCTYPE svg PUBLIC "-//W3C//DTD SVG 1.0//EN" "http://www.w3.org/TR/2001/REC-SVG-20010904/DTD/svg10.dtd">
<!-- generated using polymake; Michael Joswig, Georg Loho, Benjamin Lorenz, Rico Raber; license CC BY-NC-ND 3.0; see polymake.org and matchthenet.de -->
<svg height="841pt" id="document" viewBox="0 -727.352380466507 572 727.352380466507" width="595pt" xmlns="http://www.w3.org/2000/svg" xmlns:svg="http://www.w3.org/2000/svg" xmlns:xlink="http://www.w3.org/1999/xlink">
	<title id="document_title">planar_net_</title>
	<polygon points="231.5,-372.17619023326 363.499999999998,-372.17619023326 363.500000000005,-558.85238046651 231.500000000004,-558.852380466508 " style="fill: rgb(14,173,105); fill-opacity: 1; stroke: rgb(0,0,0); stroke-width: 3" />
	<polygon points="429.499999999996,-306.176190233261 363.499999999998,-372.17619023326 231.5,-372.17619023326 165.500000000001,-306.17619023326 231.5,-240.176190233261 363.499999999997,-240.176190233262 " style="fill: rgb(14,173,105); fill-opacity: 1; stroke: rgb(0,0,0); stroke-width: 3" />
	<polygon points="363.500000000005,-558.85238046651 363.499999999998,-372.17619023326 456.838095116623,-372.176190233256 456.838095116624,-558.852380466505 " style="fill: rgb(14,173,105); fill-opacity: 1; stroke: rgb(0,0,0); stroke-width: 3" />
	<polygon points="561.5,-174.17619023326 429.499999999996,-306.176190233261 363.499999999997,-240.176190233262 495.500000000002,-108.17619023326 " style="fill: rgb(14,173,105); fill-opacity: 1; stroke: rgb(0,0,0); stroke-width: 3" />
	<polygon points="231.5,-372.17619023326 231.500000000004,-558.852380466508 138.16190488338,-558.852380466511 138.161904883378,-372.176190233258 " style="fill: rgb(14,173,105); fill-opacity: 1; stroke: rgb(0,0,0); stroke-width: 3" />
	<polygon points="231.500000000004,-53.5 363.5,-53.5000000000078 363.499999999997,-240.176190233262 231.5,-240.176190233261 " style="fill: rgb(14,173,105); fill-opacity: 1; stroke: rgb(0,0,0); stroke-width: 3" />
	<polygon points="231.500000000004,-558.852380466508 363.500000000005,-558.85238046651 429.500000000006,-624.852380466512 363.500000000003,-690.852380466507 231.499999999999,-690.852380466501 165.499999999998,-624.8523804665 " style="fill: rgb(14,173,105); fill-opacity: 1; stroke: rgb(0,0,0); stroke-width: 3" />
	<polygon points="33.5,-174.176190233258 99.4999999999995,-108.17619023326 231.5,-240.176190233261 165.500000000001,-306.17619023326 " style="fill: rgb(14,173,105); fill-opacity: 1; stroke: rgb(0,0,0); stroke-width: 3" />
	<circle cx="231.5" cy="-372.17619023326" r="2" style="fill: rgb(0,0,0)" />
	<circle cx="363.499999999998" cy="-372.17619023326" r="2" style="fill: rgb(0,0,0)" />
	<circle cx="363.500000000005" cy="-558.85238046651" r="2" style="fill: rgb(0,0,0)" />
	<circle cx="231.500000000004" cy="-558.852380466508" r="2" style="fill: rgb(0,0,0)" />
	<circle cx="165.500000000001" cy="-306.17619023326" r="2" style="fill: rgb(0,0,0)" />
	<circle cx="231.5" cy="-240.176190233261" r="2" style="fill: rgb(0,0,0)" />
	<circle cx="363.499999999997" cy="-240.176190233262" r="2" style="fill: rgb(0,0,0)" />
	<circle cx="429.499999999996" cy="-306.176190233261" r="2" style="fill: rgb(0,0,0)" />
	<circle cx="456.838095116623" cy="-372.176190233256" r="2" style="fill: rgb(0,0,0)" />
	<circle cx="456.838095116624" cy="-558.852380466505" r="2" style="fill: rgb(0,0,0)" />
	<circle cx="138.16190488338" cy="-558.852380466511" r="2" style="fill: rgb(0,0,0)" />
	<circle cx="138.161904883378" cy="-372.176190233258" r="2" style="fill: rgb(0,0,0)" />
	<circle cx="429.500000000006" cy="-624.852380466512" r="2" style="fill: rgb(0,0,0)" />
	<circle cx="363.500000000003" cy="-690.852380466507" r="2" style="fill: rgb(0,0,0)" />
	<circle cx="231.499999999999" cy="-690.852380466501" r="2" style="fill: rgb(0,0,0)" />
	<circle cx="165.499999999998" cy="-624.8523804665" r="2" style="fill: rgb(0,0,0)" />
	<circle cx="495.500000000002" cy="-108.17619023326" r="2" style="fill: rgb(0,0,0)" />
	<circle cx="561.5" cy="-174.17619023326" r="2" style="fill: rgb(0,0,0)" />
	<circle cx="231.500000000004" cy="-53.5" r="2" style="fill: rgb(0,0,0)" />
	<circle cx="363.5" cy="-53.5000000000078" r="2" style="fill: rgb(0,0,0)" />
	<circle cx="33.5" cy="-174.176190233258" r="2" style="fill: rgb(0,0,0)" />
	<circle cx="99.4999999999995" cy="-108.17619023326" r="2" style="fill: rgb(0,0,0)" />
	<!--
	Generated using the Perl SVG Module V2.84
	by Ronan Oger
	Info: http://www.roitsystems.com/
	-->
</svg>