<?xml version="1.0" encoding="UTF-8" standalone="yes"?>
<!DOCTYPE svg PUBLIC "-//W3C//DTD SVG 1.0//EN" "http://www.w3.org/TR/2001/REC-SVG-20010904/DTD/svg10.dtd">
<!-- generated using polymake; Michael Joswig, Georg Loho, Benjamin Lorenz, Rico Raber; license CC BY-NC-ND 3.0; see polymake.org and matchthenet.de -->
<svg height="841pt" id="document" viewBox="0 -794.000000000022 572 794.000000000022" width="595pt" xmlns="http://www.w3.org/2000/svg" xmlns:svg="http://www.w3.org/2000/svg" xmlns:xlink="http://www.w3.org/1999/xlink">
	<title id="document_title">planar_net_</title>
	<polygon points="209.499999999998,-405.500000000008 297.499999999996,-405.500000000008 297.499999999998,-581.500000000006 209.5,-581.500000000006 " style="fill: rgb(14,173,105); fill-opacity: 1; stroke: rgb(0,0,0); stroke-width: 3" />
	<polygon points="385.499999999994,-317.50000000001 297.499999999996,-405.500000000008 209.499999999998,-405.500000000008 209.499999999999,-229.500000000009 385.499999999995,-229.50000000001 " style="fill: rgb(14,173,105); fill-opacity: 1; stroke: rgb(0,0,0); stroke-width: 3" />
	<polygon points="297.499999999998,-581.500000000006 297.499999999996,-405.500000000008 421.950793488831,-405.500000000008 421.950793488825,-581.500000000004 " style="fill: rgb(14,173,105); fill-opacity: 1; stroke: rgb(0,0,0); stroke-width: 3" />
	<polygon points="561.499999999997,-317.500000000007 385.499999999994,-317.50000000001 385.499999999995,-229.50000000001 561.5,-229.500000000006 " style="fill: rgb(14,173,105); fill-opacity: 1; stroke: rgb(0,0,0); stroke-width: 3" />
	<polygon points="209.499999999998,-405.500000000008 209.5,-581.500000000006 33.5,-581.500000000015 33.5000000000011,-405.50000000001 " style="fill: rgb(14,173,105); fill-opacity: 1; stroke: rgb(0,0,0); stroke-width: 3" />
	<polygon points="209.500000000002,-53.5 385.499999999995,-53.5000000000134 385.499999999995,-229.50000000001 209.499999999999,-229.500000000009 " style="fill: rgb(14,173,105); fill-opacity: 1; stroke: rgb(0,0,0); stroke-width: 3" />
	<polygon points="209.5,-581.500000000006 297.499999999998,-581.500000000006 385.500000000002,-669.500000000019 385.500000000004,-757.500000000022 209.499999999998,-757.500000000001 " style="fill: rgb(14,173,105); fill-opacity: 1; stroke: rgb(0,0,0); stroke-width: 3" />
	<circle cx="209.499999999998" cy="-405.500000000008" r="2" style="fill: rgb(0,0,0)" />
	<circle cx="297.499999999996" cy="-405.500000000008" r="2" style="fill: rgb(0,0,0)" />
	<circle cx="297.499999999998" cy="-581.500000000006" r="2" style="fill: rgb(0,0,0)" />
	<circle cx="209.5" cy="-581.500000000006" r="2" style="fill: rgb(0,0,0)" />
	<circle cx="209.499999999999" cy="-229.500000000009" r="2" style="fill: rgb(0,0,0)" />
	<circle cx="385.499999999995" cy="-229.50000000001" r="2" style="fill: rgb(0,0,0)" />
	<circle cx="385.499999999994" cy="-317.50000000001" r="2" style="fill: rgb(0,0,0)" />
	<circle cx="421.950793488831" cy="-405.500000000008" r="2" style="fill: rgb(0,0,0)" />
	<circle cx="421.950793488825" cy="-581.500000000004" r="2" style="fill: rgb(0,0,0)" />
	<circle cx="33.5" cy="-581.500000000015" r="2" style="fill: rgb(0,0,0)" />
	<circle cx="33.5000000000011" cy="-405.50000000001" r="2" style="fill: rgb(0,0,0)" />
	<circle cx="385.500000000002" cy="-669.500000000019" r="2" style="fill: rgb(0,0,0)" />
	<circle cx="385.500000000004" cy="-757.500000000022" r="2" style="fill: rgb(0,0,0)" />
	<circle cx="209.499999999998" cy="-757.500000000001" r="2" style="fill: rgb(0,0,0)" />
	<circle cx="561.5" cy="-229.500000000006" r="2" style="fill: rgb(0,0,0)" />
	<circle cx="561.499999999997" cy="-317.500000000007" r="2" style="fill: rgb(0,0,0)" />
	<circle cx="209.500000000002" cy="-53.5" r="2" style="fill: rgb(0,0,0)" />
	<circle cx="385.499999999995" cy="-53.5000000000134" r="2" style="fill: rgb(0,0,0)" />
	<!--
	Generated using the Perl SVG Module V2.87
	by Ronan Oger

	-->
</svg>