<?xml version="1.0" encoding="UTF-8" standalone="yes"?>
<!DOCTYPE svg PUBLIC "-//W3C//DTD SVG 1.0//EN" "http://www.w3.org/TR/2001/REC-SVG-20010904/DTD/svg10.dtd">
<!-- generated using polymake; Michael Joswig, Georg Loho, Benjamin Lorenz, Rico Raber; license CC BY-NC-ND 3.0; see polymake.org and matchthenet.de -->
<svg height="841pt" id="document" viewBox="0 -595.287830312165 572 595.287830312165" width="595pt" xmlns="http://www.w3.org/2000/svg" xmlns:svg="http://www.w3.org/2000/svg" xmlns:xlink="http://www.w3.org/1999/xlink">
	<title id="document_title">planar_net_</title>
	<polygon points="235.615132124867,-199.981905438128 528.578943001122,-199.981905438128 235.615132124843,-558.787830312165 177.022369949608,-271.743090412936 " style="fill: rgb(67,184,206); fill-opacity: 1; stroke: rgb(0,0,0); stroke-width: 3" />
	<polygon points="235.615132124874,-53.5 528.578943001122,-199.981905438128 235.615132124867,-199.981905438128 177.022369949627,-170.685524350502 " style="fill: rgb(67,184,206); fill-opacity: 1; stroke: rgb(0,0,0); stroke-width: 3" />
	<polygon points="235.615132124867,-199.981905438128 177.022369949608,-271.743090412936 170.438158549837,-206.566116837904 " style="fill: rgb(14,173,105); fill-opacity: 1; stroke: rgb(0,0,0); stroke-width: 3" />
	<polygon points="177.022369949608,-271.743090412936 235.615132124843,-558.787830312165 33.5,-301.039471500536 136.599343524644,-220.193418650593 " style="fill: rgb(67,184,206); fill-opacity: 1; stroke: rgb(0,0,0); stroke-width: 3" />
	<polygon points="235.615132124843,-558.787830312165 528.578943001122,-199.981905438128 561.5,-525.866773313272 " style="fill: rgb(14,173,105); fill-opacity: 1; stroke: rgb(0,0,0); stroke-width: 3" />
	<circle cx="235.615132124867" cy="-199.981905438128" r="2" style="fill: rgb(0,0,0)" />
	<circle cx="528.578943001122" cy="-199.981905438128" r="2" style="fill: rgb(0,0,0)" />
	<circle cx="235.615132124843" cy="-558.787830312165" r="2" style="fill: rgb(0,0,0)" />
	<circle cx="177.022369949608" cy="-271.743090412936" r="2" style="fill: rgb(0,0,0)" />
	<circle cx="177.022369949627" cy="-170.685524350502" r="2" style="fill: rgb(0,0,0)" />
	<circle cx="235.615132124874" cy="-53.5" r="2" style="fill: rgb(0,0,0)" />
	<circle cx="170.438158549837" cy="-206.566116837904" r="2" style="fill: rgb(0,0,0)" />
	<circle cx="33.5" cy="-301.039471500536" r="2" style="fill: rgb(0,0,0)" />
	<circle cx="136.599343524644" cy="-220.193418650593" r="2" style="fill: rgb(0,0,0)" />
	<circle cx="561.5" cy="-525.866773313272" r="2" style="fill: rgb(0,0,0)" />
	<!--
	Generated using the Perl SVG Module V2.87
	by Ronan Oger

	-->
</svg>