<?xml version="1.0" encoding="UTF-8" standalone="yes"?>
<!DOCTYPE svg PUBLIC "-//W3C//DTD SVG 1.0//EN" "http://www.w3.org/TR/2001/REC-SVG-20010904/DTD/svg10.dtd">
<!-- generated using polymake; Michael Joswig, Georg Loho, Benjamin Lorenz, Rico Raber; license CC BY-NC-ND 3.0; see polymake.org and matchthenet.de -->
<svg height="841pt" id="document" viewBox="0 -767.552018876626 572 767.552018876626" width="595pt" xmlns="http://www.w3.org/2000/svg" xmlns:svg="http://www.w3.org/2000/svg" xmlns:xlink="http://www.w3.org/1999/xlink">
	<title id="document_title">planar_net_</title>
	<polygon points="33.5,-384.851175166981 489.799457615225,-384.851175166981 337.699638410154,-599.952802321296 " style="fill: rgb(14,173,105); fill-opacity: 1; stroke: rgb(0,0,0); stroke-width: 3" />
	<polygon points="540.499397350249,-313.150632782219 489.799457615225,-384.851175166981 33.5,-384.851175166981 236.299758940141,-98.0490056278963 " style="fill: rgb(14,173,105); fill-opacity: 1; stroke: rgb(0,0,0); stroke-width: 3" />
	<polygon points="337.699638410154,-599.952802321296 489.799457615225,-384.851175166981 561.5,-435.551114902006 409.400180794917,-650.652742056318 " style="fill: rgb(14,173,105); fill-opacity: 1; stroke: rgb(0,0,0); stroke-width: 3" />
	<polygon points="495.950391722376,-53.5 540.499397350249,-313.150632782219 236.299758940141,-98.0490056278963 " style="fill: rgb(14,173,105); fill-opacity: 1; stroke: rgb(0,0,0); stroke-width: 3" />
	<polygon points="33.5,-384.851175166981 337.699638410154,-599.952802321296 352.549306952804,-686.503013248715 92.8986741705624,-731.052018876626 " style="fill: rgb(14,173,105); fill-opacity: 1; stroke: rgb(0,0,0); stroke-width: 3" />
	<circle cx="33.5" cy="-384.851175166981" r="2" style="fill: rgb(0,0,0)" />
	<circle cx="489.799457615225" cy="-384.851175166981" r="2" style="fill: rgb(0,0,0)" />
	<circle cx="337.699638410154" cy="-599.952802321296" r="2" style="fill: rgb(0,0,0)" />
	<circle cx="236.299758940141" cy="-98.0490056278963" r="2" style="fill: rgb(0,0,0)" />
	<circle cx="540.499397350249" cy="-313.150632782219" r="2" style="fill: rgb(0,0,0)" />
	<circle cx="561.5" cy="-435.551114902006" r="2" style="fill: rgb(0,0,0)" />
	<circle cx="409.400180794917" cy="-650.652742056318" r="2" style="fill: rgb(0,0,0)" />
	<circle cx="352.549306952804" cy="-686.503013248715" r="2" style="fill: rgb(0,0,0)" />
	<circle cx="92.8986741705624" cy="-731.052018876626" r="2" style="fill: rgb(0,0,0)" />
	<circle cx="495.950391722376" cy="-53.5" r="2" style="fill: rgb(0,0,0)" />
	<!--
	Generated using the Perl SVG Module V2.87
	by Ronan Oger

	-->
</svg>