<?xml version="1.0" encoding="UTF-8" standalone="yes"?>
<!DOCTYPE svg PUBLIC "-//W3C//DTD SVG 1.0//EN" "http://www.w3.org/TR/2001/REC-SVG-20010904/DTD/svg10.dtd">
<!-- generated using polymake; Michael Joswig, Georg Loho, Benjamin Lorenz, Rico Raber; license CC BY-NC-ND 3.0; see polymake.org and matchthenet.de -->
<svg height="841pt" id="document" viewBox="0 -558.140886294246 572 558.140886294246" width="595pt" xmlns="http://www.w3.org/2000/svg" xmlns:svg="http://www.w3.org/2000/svg" xmlns:xlink="http://www.w3.org/1999/xlink">
	<title id="document_title">planar_net_</title>
	<polygon points="231.359619573596,-201.894714680197 330.289429360394,-201.894714680197 379.754334253798,-287.570443147128 330.289429360401,-373.246171614058 231.359619573598,-373.246171614056 181.894714680193,-287.570443147124 " style="fill: rgb(14,173,105); fill-opacity: 1; stroke: rgb(0,0,0); stroke-width: 3" />
	<polygon points="231.359619573597,-102.964904893399 330.289429360394,-201.894714680197 231.359619573596,-201.894714680197 181.894714680198,-152.429809786798 " style="fill: rgb(14,173,105); fill-opacity: 1; stroke: rgb(0,0,0); stroke-width: 3" />
	<polygon points="231.359619573596,-201.894714680197 181.894714680193,-287.570443147124 121.312826098126,-252.593473466255 170.777730991526,-166.91774499933 " style="fill: rgb(14,173,105); fill-opacity: 1; stroke: rgb(0,0,0); stroke-width: 3" />
	<polygon points="181.894714680198,-53.5000000000012 231.359619573597,-102.964904893399 181.894714680198,-152.429809786798 82.9649048933995,-152.429809786797 33.5,-102.964904893398 82.9649048933992,-53.5 " style="fill: rgb(14,173,105); fill-opacity: 1; stroke: rgb(0,0,0); stroke-width: 3" />
	<polygon points="181.894714680193,-287.570443147124 231.359619573598,-373.246171614056 96.2189862132719,-337.035348040534 114.324398000021,-269.465031360359 " style="fill: rgb(14,173,105); fill-opacity: 1; stroke: rgb(0,0,0); stroke-width: 3" />
	<polygon points="379.754334253798,-287.570443147128 330.289429360394,-201.894714680197 366.500252933923,-66.7540813198681 434.070569614089,-84.8594931066345 " style="fill: rgb(14,173,105); fill-opacity: 1; stroke: rgb(0,0,0); stroke-width: 3" />
	<polygon points="231.359619573598,-373.246171614056 330.289429360401,-373.246171614058 181.894714680203,-521.640886294246 132.4298097868,-472.175981400846 " style="fill: rgb(14,173,105); fill-opacity: 1; stroke: rgb(0,0,0); stroke-width: 3" />
	<polygon points="330.289429360401,-373.246171614058 379.754334253798,-287.570443147128 561.5,-392.501352189745 512.0350951066,-478.177080656671 " style="fill: rgb(14,173,105); fill-opacity: 1; stroke: rgb(0,0,0); stroke-width: 3" />
	<circle cx="231.359619573596" cy="-201.894714680197" r="2" style="fill: rgb(0,0,0)" />
	<circle cx="330.289429360394" cy="-201.894714680197" r="2" style="fill: rgb(0,0,0)" />
	<circle cx="379.754334253798" cy="-287.570443147128" r="2" style="fill: rgb(0,0,0)" />
	<circle cx="330.289429360401" cy="-373.246171614058" r="2" style="fill: rgb(0,0,0)" />
	<circle cx="231.359619573598" cy="-373.246171614056" r="2" style="fill: rgb(0,0,0)" />
	<circle cx="181.894714680193" cy="-287.570443147124" r="2" style="fill: rgb(0,0,0)" />
	<circle cx="181.894714680198" cy="-152.429809786798" r="2" style="fill: rgb(0,0,0)" />
	<circle cx="231.359619573597" cy="-102.964904893399" r="2" style="fill: rgb(0,0,0)" />
	<circle cx="121.312826098126" cy="-252.593473466255" r="2" style="fill: rgb(0,0,0)" />
	<circle cx="170.777730991526" cy="-166.91774499933" r="2" style="fill: rgb(0,0,0)" />
	<circle cx="96.2189862132719" cy="-337.035348040534" r="2" style="fill: rgb(0,0,0)" />
	<circle cx="114.324398000021" cy="-269.465031360359" r="2" style="fill: rgb(0,0,0)" />
	<circle cx="366.500252933923" cy="-66.7540813198681" r="2" style="fill: rgb(0,0,0)" />
	<circle cx="434.070569614089" cy="-84.8594931066345" r="2" style="fill: rgb(0,0,0)" />
	<circle cx="181.894714680203" cy="-521.640886294246" r="2" style="fill: rgb(0,0,0)" />
	<circle cx="132.4298097868" cy="-472.175981400846" r="2" style="fill: rgb(0,0,0)" />
	<circle cx="561.5" cy="-392.501352189745" r="2" style="fill: rgb(0,0,0)" />
	<circle cx="512.0350951066" cy="-478.177080656671" r="2" style="fill: rgb(0,0,0)" />
	<circle cx="82.9649048933995" cy="-152.429809786797" r="2" style="fill: rgb(0,0,0)" />
	<circle cx="33.5" cy="-102.964904893398" r="2" style="fill: rgb(0,0,0)" />
	<circle cx="82.9649048933992" cy="-53.5" r="2" style="fill: rgb(0,0,0)" />
	<circle cx="181.894714680198" cy="-53.5000000000012" r="2" style="fill: rgb(0,0,0)" />
	<!--
	Generated using the Perl SVG Module V2.87
	by Ronan Oger

	-->
</svg>