<?xml version="1.0" encoding="UTF-8" standalone="yes"?>
<!DOCTYPE svg PUBLIC "-//W3C//DTD SVG 1.0//EN" "http://www.w3.org/TR/2001/REC-SVG-20010904/DTD/svg10.dtd">
<!-- generated using polymake; Michael Joswig, Georg Loho, Benjamin Lorenz, Rico Raber; license CC BY-NC-ND 3.0; see polymake.org and matchthenet.de -->
<svg height="841pt" id="document" viewBox="0 -541.153210079696 572 541.153210079696" width="595pt" xmlns="http://www.w3.org/2000/svg" xmlns:svg="http://www.w3.org/2000/svg" xmlns:xlink="http://www.w3.org/1999/xlink">
	<title id="document_title">planar_net_</title>
	<polygon points="211.936714405768,-279.076605039849 282.510811282762,-279.076605039849 312.489188717241,-352.889799160032 261.900676796581,-402.098595240165 " style="fill: rgb(67,184,206); fill-opacity: 1; stroke: rgb(0,0,0); stroke-width: 3" />
	<polygon points="510.911488079322,-300.965726315036 460.947525688545,-177.943736114738 531.521622565544,-177.943736114745 561.5,-251.756930234927 " style="fill: rgb(67,184,206); fill-opacity: 1; stroke: rgb(0,0,0); stroke-width: 3" />
	<polygon points="440.337391202338,-300.965726315043 410.359013767863,-227.152532194861 460.947525688545,-177.943736114738 510.911488079322,-300.965726315036 " style="fill: rgb(67,184,206); fill-opacity: 1; stroke: rgb(0,0,0); stroke-width: 3" />
	<polygon points="312.489188717239,-205.26341091966 282.510811282762,-279.076605039849 211.936714405768,-279.076605039849 261.900676796561,-156.054614839548 " style="fill: rgb(67,184,206); fill-opacity: 1; stroke: rgb(0,0,0); stroke-width: 3" />
	<polygon points="426.689527115519,-424.953320542244 508.247714657714,-320.172264737942 543.53476309621,-381.291225482569 494.599850570882,-444.159858965147 " style="fill: rgb(67,184,206); fill-opacity: 1; stroke: rgb(0,0,0); stroke-width: 3" />
	<polygon points="312.489188717241,-352.889799160032 282.510811282762,-279.076605039849 331.445723808075,-216.207971557264 410.359013767863,-227.152532194861 440.337391202338,-300.965726315043 391.402478677025,-363.834359797629 " style="fill: rgb(238,66,102); fill-opacity: 1; stroke: rgb(0,0,0); stroke-width: 3" />
	<polygon points="391.402478677025,-363.834359797629 440.337391202338,-300.965726315043 508.247714657714,-320.172264737942 426.689527115519,-424.953320542244 " style="fill: rgb(67,184,206); fill-opacity: 1; stroke: rgb(0,0,0); stroke-width: 3" />
	<polygon points="261.900676796581,-402.098595240165 312.489188717241,-352.889799160032 385.445416986997,-384.897290415666 383.494390579527,-455.444413999555 " style="fill: rgb(67,184,206); fill-opacity: 1; stroke: rgb(0,0,0); stroke-width: 3" />
	<polygon points="385.445416986985,-173.255919663993 312.489188717239,-205.26341091966 261.900676796561,-156.054614839548 383.49439057946,-102.708796080112 " style="fill: rgb(67,184,206); fill-opacity: 1; stroke: rgb(0,0,0); stroke-width: 3" />
	<polygon points="383.49439057946,-102.708796080112 261.900676796561,-156.054614839548 259.94965038904,-85.5074912556557 332.905878658776,-53.5 " style="fill: rgb(67,184,206); fill-opacity: 1; stroke: rgb(0,0,0); stroke-width: 3" />
	<polygon points="161.348202485098,-328.285401119979 191.326579919587,-402.098595240172 142.39166739428,-464.967228722766 63.4783774344864,-454.022668085161 33.5,-380.209473964963 82.4349125253069,-317.340840482369 " style="fill: rgb(238,66,102); fill-opacity: 1; stroke: rgb(0,0,0); stroke-width: 3" />
	<polygon points="211.936714405768,-279.076605039849 161.348202485091,-229.867808959727 191.326579919568,-156.054614839547 261.900676796561,-156.054614839548 " style="fill: rgb(67,184,206); fill-opacity: 1; stroke: rgb(0,0,0); stroke-width: 3" />
	<polygon points="211.936714405768,-279.076605039849 261.900676796581,-402.098595240165 191.326579919587,-402.098595240172 161.348202485098,-328.285401119979 " style="fill: rgb(67,184,206); fill-opacity: 1; stroke: rgb(0,0,0); stroke-width: 3" />
	<polygon points="261.900676796581,-402.098595240165 383.494390579527,-455.444413999555 332.905878658868,-504.653210079695 259.949650389096,-472.645718824054 " style="fill: rgb(67,184,206); fill-opacity: 1; stroke: rgb(0,0,0); stroke-width: 3" />
	<circle cx="211.936714405768" cy="-279.076605039849" r="2" style="fill: rgb(0,0,0)" />
	<circle cx="282.510811282762" cy="-279.076605039849" r="2" style="fill: rgb(0,0,0)" />
	<circle cx="312.489188717241" cy="-352.889799160032" r="2" style="fill: rgb(0,0,0)" />
	<circle cx="261.900676796581" cy="-402.098595240165" r="2" style="fill: rgb(0,0,0)" />
	<circle cx="261.900676796561" cy="-156.054614839548" r="2" style="fill: rgb(0,0,0)" />
	<circle cx="312.489188717239" cy="-205.26341091966" r="2" style="fill: rgb(0,0,0)" />
	<circle cx="331.445723808075" cy="-216.207971557264" r="2" style="fill: rgb(0,0,0)" />
	<circle cx="410.359013767863" cy="-227.152532194861" r="2" style="fill: rgb(0,0,0)" />
	<circle cx="440.337391202338" cy="-300.965726315043" r="2" style="fill: rgb(0,0,0)" />
	<circle cx="391.402478677025" cy="-363.834359797629" r="2" style="fill: rgb(0,0,0)" />
	<circle cx="385.445416986997" cy="-384.897290415666" r="2" style="fill: rgb(0,0,0)" />
	<circle cx="383.494390579527" cy="-455.444413999555" r="2" style="fill: rgb(0,0,0)" />
	<circle cx="191.326579919587" cy="-402.098595240172" r="2" style="fill: rgb(0,0,0)" />
	<circle cx="161.348202485098" cy="-328.285401119979" r="2" style="fill: rgb(0,0,0)" />
	<circle cx="383.49439057946" cy="-102.708796080112" r="2" style="fill: rgb(0,0,0)" />
	<circle cx="385.445416986985" cy="-173.255919663993" r="2" style="fill: rgb(0,0,0)" />
	<circle cx="161.348202485091" cy="-229.867808959727" r="2" style="fill: rgb(0,0,0)" />
	<circle cx="191.326579919568" cy="-156.054614839547" r="2" style="fill: rgb(0,0,0)" />
	<circle cx="460.947525688545" cy="-177.943736114738" r="2" style="fill: rgb(0,0,0)" />
	<circle cx="510.911488079322" cy="-300.965726315036" r="2" style="fill: rgb(0,0,0)" />
	<circle cx="508.247714657714" cy="-320.172264737942" r="2" style="fill: rgb(0,0,0)" />
	<circle cx="426.689527115519" cy="-424.953320542244" r="2" style="fill: rgb(0,0,0)" />
	<circle cx="332.905878658868" cy="-504.653210079695" r="2" style="fill: rgb(0,0,0)" />
	<circle cx="259.949650389096" cy="-472.645718824054" r="2" style="fill: rgb(0,0,0)" />
	<circle cx="142.39166739428" cy="-464.967228722766" r="2" style="fill: rgb(0,0,0)" />
	<circle cx="63.4783774344864" cy="-454.022668085161" r="2" style="fill: rgb(0,0,0)" />
	<circle cx="33.5" cy="-380.209473964963" r="2" style="fill: rgb(0,0,0)" />
	<circle cx="82.4349125253069" cy="-317.340840482369" r="2" style="fill: rgb(0,0,0)" />
	<circle cx="259.94965038904" cy="-85.5074912556557" r="2" style="fill: rgb(0,0,0)" />
	<circle cx="332.905878658776" cy="-53.5" r="2" style="fill: rgb(0,0,0)" />
	<circle cx="531.521622565544" cy="-177.943736114745" r="2" style="fill: rgb(0,0,0)" />
	<circle cx="561.5" cy="-251.756930234927" r="2" style="fill: rgb(0,0,0)" />
	<circle cx="543.53476309621" cy="-381.291225482569" r="2" style="fill: rgb(0,0,0)" />
	<circle cx="494.599850570882" cy="-444.159858965147" r="2" style="fill: rgb(0,0,0)" />
	<!--
	Generated using the Perl SVG Module V2.87
	by Ronan Oger

	-->
</svg>