<?xml version="1.0" encoding="UTF-8" standalone="yes"?>
<!DOCTYPE svg PUBLIC "-//W3C//DTD SVG 1.0//EN" "http://www.w3.org/TR/2001/REC-SVG-20010904/DTD/svg10.dtd">
<!-- generated using polymake; Michael Joswig, Georg Loho, Benjamin Lorenz, Rico Raber; license CC BY-NC-ND 3.0; see polymake.org and matchthenet.de -->
<svg height="841pt" id="document" viewBox="0 -716.328337590607 572 716.328337590607" width="595pt" xmlns="http://www.w3.org/2000/svg" xmlns:svg="http://www.w3.org/2000/svg" xmlns:xlink="http://www.w3.org/1999/xlink">
	<title id="document_title">planar_net_</title>
	<polygon points="238.376167233001,-342.674014026998 258.218373910886,-342.674014026998 272.249037541486,-356.704677657596 272.249037541496,-376.546711501492 258.218373910908,-390.577375132094 238.376167233026,-390.577375132095 224.345676436418,-376.546711501496 224.345676436408,-356.7046776576 " style="fill: rgb(136,136,136); fill-opacity: 1; stroke: rgb(0,0,0); stroke-width: 3" />
	<polygon points="297.275816557165,-236.327500778656 246.404940164197,-151.988660552457 247.328713402596,-53.5 298.199589795562,-137.838840226211 " style="fill: rgb(67,184,206); fill-opacity: 1; stroke: rgb(0,0,0); stroke-width: 3" />
	<polygon points="246.404940164197,-151.988660552457 198.075675671091,-237.809218865988 194.210788895154,-139.392084866766 242.54005338826,-53.5715265532478 " style="fill: rgb(67,184,206); fill-opacity: 1; stroke: rgb(0,0,0); stroke-width: 3" />
	<polygon points="381.491004044388,-410.042489033137 463.094713321865,-354.890692436419 561.5,-350.735073564617 479.896290722508,-405.886870161333 " style="fill: rgb(67,184,206); fill-opacity: 1; stroke: rgb(0,0,0); stroke-width: 3" />
	<polygon points="123.414965605723,-303.143810676824 56.7702786518042,-230.622284655202 38.0658992248123,-133.921634167933 104.710586178723,-206.443160189546 " style="fill: rgb(67,184,206); fill-opacity: 1; stroke: rgb(0,0,0); stroke-width: 3" />
	<polygon points="311.779236903764,-491.508085236612 408.479886683741,-510.212468320252 481.001410185265,-576.857158016511 384.300760405277,-558.15277493286 " style="fill: rgb(67,184,206); fill-opacity: 1; stroke: rgb(0,0,0); stroke-width: 3" />
	<polygon points="123.414966177461,-430.107577522574 104.710585102252,-526.808227691033 38.0658969122356,-599.329752576739 56.7702779874542,-502.629102408268 " style="fill: rgb(67,184,206); fill-opacity: 1; stroke: rgb(0,0,0); stroke-width: 3" />
	<polygon points="373.179747646032,-303.143814664798 391.884130729725,-206.44316488483 458.528820426023,-133.921641383345 439.824437342319,-230.622291163322 " style="fill: rgb(67,184,206); fill-opacity: 1; stroke: rgb(0,0,0); stroke-width: 3" />
	<polygon points="204.880562535415,-499.819341635016 260.032359132156,-581.423050912473 264.18797800399,-679.828337590607 209.036181407249,-598.224628313134 " style="fill: rgb(67,184,206); fill-opacity: 1; stroke: rgb(0,0,0); stroke-width: 3" />
	<polygon points="123.414966177461,-430.107577522574 198.075675444778,-495.442170882058 104.710585102252,-526.808227691033 " style="fill: rgb(14,173,105); fill-opacity: 1; stroke: rgb(0,0,0); stroke-width: 3" />
	<polygon points="115.103729223725,-323.2088606174 121.698288523295,-422.200654357845 33.5,-378.360627701234 " style="fill: rgb(14,173,105); fill-opacity: 1; stroke: rgb(0,0,0); stroke-width: 3" />
	<polygon points="198.075675671091,-237.809218865988 123.414965605723,-303.143810676824 104.710586178723,-206.443160189546 " style="fill: rgb(14,173,105); fill-opacity: 1; stroke: rgb(0,0,0); stroke-width: 3" />
	<polygon points="297.275816557165,-236.327500778656 198.075675671091,-237.809218865988 246.404940164197,-151.988660552457 " style="fill: rgb(14,173,105); fill-opacity: 1; stroke: rgb(0,0,0); stroke-width: 3" />
	<polygon points="373.179747646032,-303.143814664798 298.519039735721,-237.809219754598 391.884130729725,-206.44316488483 " style="fill: rgb(14,173,105); fill-opacity: 1; stroke: rgb(0,0,0); stroke-width: 3" />
	<polygon points="381.491004044388,-410.042489033137 374.896408943349,-311.05069767769 463.094713321865,-354.890692436419 " style="fill: rgb(14,173,105); fill-opacity: 1; stroke: rgb(0,0,0); stroke-width: 3" />
	<polygon points="311.779236903764,-491.508085236612 377.11383181392,-416.847377326266 408.479886683741,-510.212468320252 " style="fill: rgb(14,173,105); fill-opacity: 1; stroke: rgb(0,0,0); stroke-width: 3" />
	<polygon points="204.880562535415,-499.819341635016 303.872353890852,-493.22474653394 260.032359132156,-581.423050912473 " style="fill: rgb(14,173,105); fill-opacity: 1; stroke: rgb(0,0,0); stroke-width: 3" />
	<polygon points="297.275816557165,-236.327500778656 248.29735698894,-278.684864663826 198.075675671091,-237.809218865988 " style="fill: rgb(14,173,105); fill-opacity: 1; stroke: rgb(0,0,0); stroke-width: 3" />
	<polygon points="308.440056657671,-301.798369117759 298.519039735721,-237.809219754598 373.179747646032,-303.143814664798 " style="fill: rgb(14,173,105); fill-opacity: 1; stroke: rgb(0,0,0); stroke-width: 3" />
	<polygon points="336.664608232358,-363.313162019288 374.896408943349,-311.05069767769 381.491004044388,-410.042489033137 " style="fill: rgb(14,173,105); fill-opacity: 1; stroke: rgb(0,0,0); stroke-width: 3" />
	<polygon points="313.124682450761,-426.768394248252 377.11383181392,-416.847377326266 311.779236903764,-491.508085236612 " style="fill: rgb(14,173,105); fill-opacity: 1; stroke: rgb(0,0,0); stroke-width: 3" />
	<polygon points="251.609889549236,-454.992945822967 303.872353890852,-493.22474653394 204.880562535415,-499.819341635016 " style="fill: rgb(14,173,105); fill-opacity: 1; stroke: rgb(0,0,0); stroke-width: 3" />
	<polygon points="188.154656413871,-431.453016694753 198.075675444778,-495.442170882058 123.414966177461,-430.107577522574 " style="fill: rgb(14,173,105); fill-opacity: 1; stroke: rgb(0,0,0); stroke-width: 3" />
	<polygon points="159.93010813558,-369.938203843197 121.698288523295,-422.200654357845 115.103729223725,-323.2088606174 " style="fill: rgb(14,173,105); fill-opacity: 1; stroke: rgb(0,0,0); stroke-width: 3" />
	<polygon points="188.154656640189,-301.798367348317 123.414965605723,-303.143810676824 198.075675671091,-237.809218865988 " style="fill: rgb(14,173,105); fill-opacity: 1; stroke: rgb(0,0,0); stroke-width: 3" />
	<polygon points="238.376167233001,-342.674014026998 188.154656640189,-301.798367348317 198.075675671091,-237.809218865988 248.29735698894,-278.684864663826 " style="fill: rgb(67,184,206); fill-opacity: 1; stroke: rgb(0,0,0); stroke-width: 3" />
	<polygon points="248.29735698894,-278.684864663826 258.218373910886,-342.674014026998 238.376167233001,-342.674014026998 " style="fill: rgb(14,173,105); fill-opacity: 1; stroke: rgb(0,0,0); stroke-width: 3" />
	<polygon points="308.440056657671,-301.798369117759 258.218373910886,-342.674014026998 248.29735698894,-278.684864663826 298.519039735721,-237.809219754598 " style="fill: rgb(67,184,206); fill-opacity: 1; stroke: rgb(0,0,0); stroke-width: 3" />
	<polygon points="272.249037541486,-356.704677657596 258.218373910886,-342.674014026998 310.480838252486,-304.442213315992 " style="fill: rgb(14,173,105); fill-opacity: 1; stroke: rgb(0,0,0); stroke-width: 3" />
	<polygon points="272.249037541486,-356.704677657596 310.480838252486,-304.442213315992 374.896408943349,-311.05069767769 336.664608232358,-363.313162019288 " style="fill: rgb(67,184,206); fill-opacity: 1; stroke: rgb(0,0,0); stroke-width: 3" />
	<polygon points="272.249037541496,-376.546711501492 272.249037541486,-356.704677657596 336.238186904663,-366.625694579509 " style="fill: rgb(14,173,105); fill-opacity: 1; stroke: rgb(0,0,0); stroke-width: 3" />
	<polygon points="272.249037541496,-376.546711501492 336.238186904663,-366.625694579509 377.11383181392,-416.847377326266 313.124682450761,-426.768394248252 " style="fill: rgb(67,184,206); fill-opacity: 1; stroke: rgb(0,0,0); stroke-width: 3" />
	<polygon points="258.218373910908,-390.577375132094 272.249037541496,-376.546711501492 310.480838252526,-428.809175843075 " style="fill: rgb(14,173,105); fill-opacity: 1; stroke: rgb(0,0,0); stroke-width: 3" />
	<polygon points="258.218373910908,-390.577375132094 310.480838252526,-428.809175843075 303.872353890852,-493.22474653394 251.609889549236,-454.992945822967 " style="fill: rgb(67,184,206); fill-opacity: 1; stroke: rgb(0,0,0); stroke-width: 3" />
	<polygon points="238.376167233026,-390.577375132095 258.218373910908,-390.577375132094 248.297356988963,-454.566524495266 " style="fill: rgb(14,173,105); fill-opacity: 1; stroke: rgb(0,0,0); stroke-width: 3" />
	<polygon points="238.376167233026,-390.577375132095 248.297356988963,-454.566524495266 198.075675444778,-495.442170882058 188.154656413871,-431.453016694753 " style="fill: rgb(67,184,206); fill-opacity: 1; stroke: rgb(0,0,0); stroke-width: 3" />
	<polygon points="224.345676436418,-376.546711501496 238.376167233026,-390.577375132095 186.113856824123,-428.809162016145 " style="fill: rgb(14,173,105); fill-opacity: 1; stroke: rgb(0,0,0); stroke-width: 3" />
	<polygon points="224.345676436418,-376.546711501496 186.113856824123,-428.809162016145 121.698288523295,-422.200654357845 159.93010813558,-369.938203843197 " style="fill: rgb(67,184,206); fill-opacity: 1; stroke: rgb(0,0,0); stroke-width: 3" />
	<polygon points="224.345676436408,-356.7046776576 224.345676436418,-376.546711501496 160.356527073241,-366.625694579584 " style="fill: rgb(14,173,105); fill-opacity: 1; stroke: rgb(0,0,0); stroke-width: 3" />
	<polygon points="224.345676436408,-356.7046776576 160.356527073241,-366.625694579584 119.480882163984,-316.404011832826 183.47003152714,-306.482994910836 " style="fill: rgb(67,184,206); fill-opacity: 1; stroke: rgb(0,0,0); stroke-width: 3" />
	<polygon points="238.376167233001,-342.674014026998 224.345676436408,-356.7046776576 186.113856824075,-304.44222714298 " style="fill: rgb(14,173,105); fill-opacity: 1; stroke: rgb(0,0,0); stroke-width: 3" />
	<circle cx="238.376167233001" cy="-342.674014026998" r="2" style="fill: rgb(0,0,0)" />
	<circle cx="258.218373910886" cy="-342.674014026998" r="2" style="fill: rgb(0,0,0)" />
	<circle cx="272.249037541486" cy="-356.704677657596" r="2" style="fill: rgb(0,0,0)" />
	<circle cx="272.249037541496" cy="-376.546711501492" r="2" style="fill: rgb(0,0,0)" />
	<circle cx="258.218373910908" cy="-390.577375132094" r="2" style="fill: rgb(0,0,0)" />
	<circle cx="238.376167233026" cy="-390.577375132095" r="2" style="fill: rgb(0,0,0)" />
	<circle cx="224.345676436418" cy="-376.546711501496" r="2" style="fill: rgb(0,0,0)" />
	<circle cx="224.345676436408" cy="-356.7046776576" r="2" style="fill: rgb(0,0,0)" />
	<circle cx="248.29735698894" cy="-278.684864663826" r="2" style="fill: rgb(0,0,0)" />
	<circle cx="310.480838252486" cy="-304.442213315992" r="2" style="fill: rgb(0,0,0)" />
	<circle cx="336.238186904663" cy="-366.625694579509" r="2" style="fill: rgb(0,0,0)" />
	<circle cx="310.480838252526" cy="-428.809175843075" r="2" style="fill: rgb(0,0,0)" />
	<circle cx="248.297356988963" cy="-454.566524495266" r="2" style="fill: rgb(0,0,0)" />
	<circle cx="186.113856824123" cy="-428.809162016145" r="2" style="fill: rgb(0,0,0)" />
	<circle cx="160.356527073241" cy="-366.625694579584" r="2" style="fill: rgb(0,0,0)" />
	<circle cx="186.113856824075" cy="-304.44222714298" r="2" style="fill: rgb(0,0,0)" />
	<circle cx="188.154656640189" cy="-301.798367348317" r="2" style="fill: rgb(0,0,0)" />
	<circle cx="198.075675671091" cy="-237.809218865988" r="2" style="fill: rgb(0,0,0)" />
	<circle cx="298.519039735721" cy="-237.809219754598" r="2" style="fill: rgb(0,0,0)" />
	<circle cx="308.440056657671" cy="-301.798369117759" r="2" style="fill: rgb(0,0,0)" />
	<circle cx="374.896408943349" cy="-311.05069767769" r="2" style="fill: rgb(0,0,0)" />
	<circle cx="336.664608232358" cy="-363.313162019288" r="2" style="fill: rgb(0,0,0)" />
	<circle cx="377.11383181392" cy="-416.847377326266" r="2" style="fill: rgb(0,0,0)" />
	<circle cx="313.124682450761" cy="-426.768394248252" r="2" style="fill: rgb(0,0,0)" />
	<circle cx="303.872353890852" cy="-493.22474653394" r="2" style="fill: rgb(0,0,0)" />
	<circle cx="251.609889549236" cy="-454.992945822967" r="2" style="fill: rgb(0,0,0)" />
	<circle cx="198.075675444778" cy="-495.442170882058" r="2" style="fill: rgb(0,0,0)" />
	<circle cx="188.154656413871" cy="-431.453016694753" r="2" style="fill: rgb(0,0,0)" />
	<circle cx="121.698288523295" cy="-422.200654357845" r="2" style="fill: rgb(0,0,0)" />
	<circle cx="159.93010813558" cy="-369.938203843197" r="2" style="fill: rgb(0,0,0)" />
	<circle cx="119.480882163984" cy="-316.404011832826" r="2" style="fill: rgb(0,0,0)" />
	<circle cx="183.47003152714" cy="-306.482994910836" r="2" style="fill: rgb(0,0,0)" />
	<circle cx="297.275816557165" cy="-236.327500778656" r="2" style="fill: rgb(0,0,0)" />
	<circle cx="123.414965605723" cy="-303.143810676824" r="2" style="fill: rgb(0,0,0)" />
	<circle cx="373.179747646032" cy="-303.143814664798" r="2" style="fill: rgb(0,0,0)" />
	<circle cx="381.491004044388" cy="-410.042489033137" r="2" style="fill: rgb(0,0,0)" />
	<circle cx="311.779236903764" cy="-491.508085236612" r="2" style="fill: rgb(0,0,0)" />
	<circle cx="204.880562535415" cy="-499.819341635016" r="2" style="fill: rgb(0,0,0)" />
	<circle cx="123.414966177461" cy="-430.107577522574" r="2" style="fill: rgb(0,0,0)" />
	<circle cx="115.103729223725" cy="-323.2088606174" r="2" style="fill: rgb(0,0,0)" />
	<circle cx="246.404940164197" cy="-151.988660552457" r="2" style="fill: rgb(0,0,0)" />
	<circle cx="104.710586178723" cy="-206.443160189546" r="2" style="fill: rgb(0,0,0)" />
	<circle cx="391.884130729725" cy="-206.44316488483" r="2" style="fill: rgb(0,0,0)" />
	<circle cx="463.094713321865" cy="-354.890692436419" r="2" style="fill: rgb(0,0,0)" />
	<circle cx="408.479886683741" cy="-510.212468320252" r="2" style="fill: rgb(0,0,0)" />
	<circle cx="260.032359132156" cy="-581.423050912473" r="2" style="fill: rgb(0,0,0)" />
	<circle cx="104.710585102252" cy="-526.808227691033" r="2" style="fill: rgb(0,0,0)" />
	<circle cx="33.5" cy="-378.360627701234" r="2" style="fill: rgb(0,0,0)" />
	<circle cx="247.328713402596" cy="-53.5" r="2" style="fill: rgb(0,0,0)" />
	<circle cx="298.199589795562" cy="-137.838840226211" r="2" style="fill: rgb(0,0,0)" />
	<circle cx="194.210788895154" cy="-139.392084866766" r="2" style="fill: rgb(0,0,0)" />
	<circle cx="242.54005338826" cy="-53.5715265532478" r="2" style="fill: rgb(0,0,0)" />
	<circle cx="56.7702786518042" cy="-230.622284655202" r="2" style="fill: rgb(0,0,0)" />
	<circle cx="38.0658992248123" cy="-133.921634167933" r="2" style="fill: rgb(0,0,0)" />
	<circle cx="458.528820426023" cy="-133.921641383345" r="2" style="fill: rgb(0,0,0)" />
	<circle cx="439.824437342319" cy="-230.622291163322" r="2" style="fill: rgb(0,0,0)" />
	<circle cx="561.5" cy="-350.735073564617" r="2" style="fill: rgb(0,0,0)" />
	<circle cx="479.896290722508" cy="-405.886870161333" r="2" style="fill: rgb(0,0,0)" />
	<circle cx="481.001410185265" cy="-576.857158016511" r="2" style="fill: rgb(0,0,0)" />
	<circle cx="384.300760405277" cy="-558.15277493286" r="2" style="fill: rgb(0,0,0)" />
	<circle cx="264.18797800399" cy="-679.828337590607" r="2" style="fill: rgb(0,0,0)" />
	<circle cx="209.036181407249" cy="-598.224628313134" r="2" style="fill: rgb(0,0,0)" />
	<circle cx="38.0658969122356" cy="-599.329752576739" r="2" style="fill: rgb(0,0,0)" />
	<circle cx="56.7702779874542" cy="-502.629102408268" r="2" style="fill: rgb(0,0,0)" />
	<!--
	Generated using the Perl SVG Module V2.87
	by Ronan Oger

	-->
</svg>