<?xml version="1.0" encoding="UTF-8" standalone="yes"?>
<!DOCTYPE svg PUBLIC "-//W3C//DTD SVG 1.0//EN" "http://www.w3.org/TR/2001/REC-SVG-20010904/DTD/svg10.dtd">
<!-- generated using polymake; Michael Joswig, Georg Loho, Benjamin Lorenz, Rico Raber; license CC BY-NC-ND 3.0; see polymake.org and matchthenet.de -->
<svg height="841pt" id="document" viewBox="0 -697.137415396102 572 697.137415396102" width="595pt" xmlns="http://www.w3.org/2000/svg" xmlns:svg="http://www.w3.org/2000/svg" xmlns:xlink="http://www.w3.org/1999/xlink">
	<title id="document_title">planar_net_</title>
	<polygon points="297.499999999996,-386.800333361041 365.719863104308,-386.800333361041 331.609931552152,-445.880467852072 " style="fill: rgb(14,173,105); fill-opacity: 1; stroke: rgb(0,0,0); stroke-width: 3" />
	<polygon points="331.609931552147,-281.82075856879 269.287985492202,-254.073240458655 276.418902946821,-186.227092902382 343.147998364689,-172.043385817002 377.257929916847,-231.12352030804 " style="fill: rgb(14,173,105); fill-opacity: 1; stroke: rgb(0,0,0); stroke-width: 3" />
	<polygon points="269.287985492202,-254.073240458655 214.096956886878,-213.974611012532 276.418902946821,-186.227092902382 " style="fill: rgb(14,173,105); fill-opacity: 1; stroke: rgb(0,0,0); stroke-width: 3" />
	<polygon points="214.096956886885,-349.66690612506 168.448958522172,-298.969667864324 202.558890074327,-239.889533373295 269.287985492202,-254.073240458655 276.41890294683,-321.91938801492 " style="fill: rgb(14,173,105); fill-opacity: 1; stroke: rgb(0,0,0); stroke-width: 3" />
	<polygon points="113.257929916862,-468.830188002694 134.339026970023,-533.711133348818 67.6099315521516,-519.527426263439 " style="fill: rgb(14,173,105); fill-opacity: 1; stroke: rgb(0,0,0); stroke-width: 3" />
	<polygon points="494.770904582129,-564.423853669076 540.418902946848,-513.726615408337 561.5,-578.607560754462 " style="fill: rgb(14,173,105); fill-opacity: 1; stroke: rgb(0,0,0); stroke-width: 3" />
	<polygon points="331.609931552147,-281.82075856879 276.41890294683,-321.91938801492 269.287985492202,-254.073240458655 " style="fill: rgb(14,173,105); fill-opacity: 1; stroke: rgb(0,0,0); stroke-width: 3" />
	<polygon points="230.770904582123,-400.98404044642 223.6399871275,-468.830188002688 168.448958522178,-428.731558556563 " style="fill: rgb(14,173,105); fill-opacity: 1; stroke: rgb(0,0,0); stroke-width: 3" />
	<polygon points="79.1479983646916,-629.304799015227 33.5,-578.607560754467 67.6099315521516,-519.527426263439 134.339026970023,-533.711133348818 141.469944424632,-601.557280905093 " style="fill: rgb(14,173,105); fill-opacity: 1; stroke: rgb(0,0,0); stroke-width: 3" />
	<polygon points="168.448958522157,-163.277372751784 202.558890074303,-104.197238260748 269.287985492184,-118.380945346121 276.418902946821,-186.227092902382 214.096956886878,-213.974611012532 " style="fill: rgb(14,173,105); fill-opacity: 1; stroke: rgb(0,0,0); stroke-width: 3" />
	<polygon points="168.448958522172,-298.969667864324 134.339026970015,-239.889533373293 202.558890074327,-239.889533373295 " style="fill: rgb(14,173,105); fill-opacity: 1; stroke: rgb(0,0,0); stroke-width: 3" />
	<polygon points="386.800960157467,-321.919388014918 331.609931552147,-281.82075856879 393.931877612092,-254.073240458653 " style="fill: rgb(14,173,105); fill-opacity: 1; stroke: rgb(0,0,0); stroke-width: 3" />
	<polygon points="343.147998364689,-172.043385817002 276.418902946821,-186.227092902382 297.49999999998,-121.34614755626 " style="fill: rgb(14,173,105); fill-opacity: 1; stroke: rgb(0,0,0); stroke-width: 3" />
	<polygon points="297.499999999996,-386.800333361041 230.770904582124,-372.616626275667 276.41890294683,-321.91938801492 " style="fill: rgb(14,173,105); fill-opacity: 1; stroke: rgb(0,0,0); stroke-width: 3" />
	<polygon points="386.800960157467,-321.919388014918 365.719863104308,-386.800333361041 297.499999999996,-386.800333361041 276.41890294683,-321.91938801492 331.609931552147,-281.82075856879 " style="fill: rgb(14,173,105); fill-opacity: 1; stroke: rgb(0,0,0); stroke-width: 3" />
	<polygon points="223.6399871275,-468.830188002688 202.558890074331,-533.711133348814 134.339026970023,-533.711133348818 113.257929916862,-468.830188002694 168.448958522178,-428.731558556563 " style="fill: rgb(14,173,105); fill-opacity: 1; stroke: rgb(0,0,0); stroke-width: 3" />
	<polygon points="297.499999999996,-386.800333361041 331.609931552152,-445.880467852072 285.961933187445,-496.577706112822 223.6399871275,-468.830188002688 230.770904582123,-400.98404044642 " style="fill: rgb(14,173,105); fill-opacity: 1; stroke: rgb(0,0,0); stroke-width: 3" />
	<polygon points="411.367861469001,-172.043385817003 377.257929916847,-231.12352030804 343.147998364689,-172.043385817002 " style="fill: rgb(14,173,105); fill-opacity: 1; stroke: rgb(0,0,0); stroke-width: 3" />
	<polygon points="248.206888439008,-53.5 269.287985492184,-118.380945346121 202.558890074303,-104.197238260748 " style="fill: rgb(14,173,105); fill-opacity: 1; stroke: rgb(0,0,0); stroke-width: 3" />
	<polygon points="377.257929916863,-496.577706112815 439.579875976812,-468.830188002677 432.448958522186,-536.676335558942 " style="fill: rgb(14,173,105); fill-opacity: 1; stroke: rgb(0,0,0); stroke-width: 3" />
	<polygon points="449.122906217412,-349.666906125056 386.800960157467,-321.919388014918 393.931877612092,-254.073240458653 460.660973029971,-239.889533373275 494.770904582127,-298.969667864304 " style="fill: rgb(14,173,105); fill-opacity: 1; stroke: rgb(0,0,0); stroke-width: 3" />
	<polygon points="405.46994442463,-144.29586770686 343.147998364689,-172.043385817002 297.49999999998,-121.34614755626 331.609931552134,-62.2660130652122 398.339026970004,-76.4497201505804 " style="fill: rgb(14,173,105); fill-opacity: 1; stroke: rgb(0,0,0); stroke-width: 3" />
	<polygon points="331.609931552152,-445.880467852072 365.719863104308,-386.800333361041 432.448958522185,-400.984040446415 439.579875976812,-468.830188002677 377.257929916863,-496.577706112815 " style="fill: rgb(14,173,105); fill-opacity: 1; stroke: rgb(0,0,0); stroke-width: 3" />
	<polygon points="223.6399871275,-468.830188002688 285.961933187445,-496.577706112822 230.770904582127,-536.676335558952 " style="fill: rgb(14,173,105); fill-opacity: 1; stroke: rgb(0,0,0); stroke-width: 3" />
	<polygon points="432.448958522179,-372.616626275659 365.719863104308,-386.800333361041 386.800960157467,-321.919388014918 " style="fill: rgb(14,173,105); fill-opacity: 1; stroke: rgb(0,0,0); stroke-width: 3" />
	<polygon points="202.558890074331,-533.711133348814 168.448958522175,-592.791267839845 134.339026970023,-533.711133348818 " style="fill: rgb(14,173,105); fill-opacity: 1; stroke: rgb(0,0,0); stroke-width: 3" />
	<polygon points="341.15296179277,-536.676335558951 320.071864739615,-601.55728090507 251.852001635303,-601.557280905066 230.770904582127,-536.676335558952 285.961933187445,-496.577706112822 " style="fill: rgb(14,173,105); fill-opacity: 1; stroke: rgb(0,0,0); stroke-width: 3" />
	<polygon points="494.770904582127,-298.969667864304 460.660973029971,-239.889533373275 528.880836134283,-239.889533373273 " style="fill: rgb(14,173,105); fill-opacity: 1; stroke: rgb(0,0,0); stroke-width: 3" />
	<polygon points="439.579875976812,-468.830188002677 506.308971394693,-454.64648091731 540.418902946848,-513.726615408337 494.770904582129,-564.423853669076 432.448958522186,-536.676335558942 " style="fill: rgb(14,173,105); fill-opacity: 1; stroke: rgb(0,0,0); stroke-width: 3" />
	<polygon points="331.609931552152,-445.880467852072 352.691028605319,-510.761413198191 285.961933187445,-496.577706112822 " style="fill: rgb(14,173,105); fill-opacity: 1; stroke: rgb(0,0,0); stroke-width: 3" />
	<polygon points="320.071864739615,-601.55728090507 285.961933187459,-660.637415396102 251.852001635303,-601.557280905066 " style="fill: rgb(14,173,105); fill-opacity: 1; stroke: rgb(0,0,0); stroke-width: 3" />
	<polygon points="439.579875976812,-468.830188002677 432.448958522185,-400.984040446415 494.770904582131,-428.73155855655 " style="fill: rgb(14,173,105); fill-opacity: 1; stroke: rgb(0,0,0); stroke-width: 3" />
	<circle cx="297.499999999996" cy="-386.800333361041" r="2" style="fill: rgb(0,0,0)" />
	<circle cx="365.719863104308" cy="-386.800333361041" r="2" style="fill: rgb(0,0,0)" />
	<circle cx="331.609931552152" cy="-445.880467852072" r="2" style="fill: rgb(0,0,0)" />
	<circle cx="276.41890294683" cy="-321.91938801492" r="2" style="fill: rgb(0,0,0)" />
	<circle cx="331.609931552147" cy="-281.82075856879" r="2" style="fill: rgb(0,0,0)" />
	<circle cx="386.800960157467" cy="-321.919388014918" r="2" style="fill: rgb(0,0,0)" />
	<circle cx="285.961933187445" cy="-496.577706112822" r="2" style="fill: rgb(0,0,0)" />
	<circle cx="223.6399871275" cy="-468.830188002688" r="2" style="fill: rgb(0,0,0)" />
	<circle cx="230.770904582123" cy="-400.98404044642" r="2" style="fill: rgb(0,0,0)" />
	<circle cx="432.448958522185" cy="-400.984040446415" r="2" style="fill: rgb(0,0,0)" />
	<circle cx="439.579875976812" cy="-468.830188002677" r="2" style="fill: rgb(0,0,0)" />
	<circle cx="377.257929916863" cy="-496.577706112815" r="2" style="fill: rgb(0,0,0)" />
	<circle cx="269.287985492202" cy="-254.073240458655" r="2" style="fill: rgb(0,0,0)" />
	<circle cx="393.931877612092" cy="-254.073240458653" r="2" style="fill: rgb(0,0,0)" />
	<circle cx="230.770904582124" cy="-372.616626275667" r="2" style="fill: rgb(0,0,0)" />
	<circle cx="432.448958522179" cy="-372.616626275659" r="2" style="fill: rgb(0,0,0)" />
	<circle cx="168.448958522178" cy="-428.731558556563" r="2" style="fill: rgb(0,0,0)" />
	<circle cx="230.770904582127" cy="-536.676335558952" r="2" style="fill: rgb(0,0,0)" />
	<circle cx="352.691028605319" cy="-510.761413198191" r="2" style="fill: rgb(0,0,0)" />
	<circle cx="432.448958522186" cy="-536.676335558942" r="2" style="fill: rgb(0,0,0)" />
	<circle cx="494.770904582131" cy="-428.73155855655" r="2" style="fill: rgb(0,0,0)" />
	<circle cx="276.418902946821" cy="-186.227092902382" r="2" style="fill: rgb(0,0,0)" />
	<circle cx="343.147998364689" cy="-172.043385817002" r="2" style="fill: rgb(0,0,0)" />
	<circle cx="377.257929916847" cy="-231.12352030804" r="2" style="fill: rgb(0,0,0)" />
	<circle cx="214.096956886885" cy="-349.66690612506" r="2" style="fill: rgb(0,0,0)" />
	<circle cx="168.448958522172" cy="-298.969667864324" r="2" style="fill: rgb(0,0,0)" />
	<circle cx="202.558890074327" cy="-239.889533373295" r="2" style="fill: rgb(0,0,0)" />
	<circle cx="460.660973029971" cy="-239.889533373275" r="2" style="fill: rgb(0,0,0)" />
	<circle cx="494.770904582127" cy="-298.969667864304" r="2" style="fill: rgb(0,0,0)" />
	<circle cx="449.122906217412" cy="-349.666906125056" r="2" style="fill: rgb(0,0,0)" />
	<circle cx="202.558890074331" cy="-533.711133348814" r="2" style="fill: rgb(0,0,0)" />
	<circle cx="134.339026970023" cy="-533.711133348818" r="2" style="fill: rgb(0,0,0)" />
	<circle cx="113.257929916862" cy="-468.830188002694" r="2" style="fill: rgb(0,0,0)" />
	<circle cx="341.15296179277" cy="-536.676335558951" r="2" style="fill: rgb(0,0,0)" />
	<circle cx="320.071864739615" cy="-601.55728090507" r="2" style="fill: rgb(0,0,0)" />
	<circle cx="251.852001635303" cy="-601.557280905066" r="2" style="fill: rgb(0,0,0)" />
	<circle cx="506.308971394693" cy="-454.64648091731" r="2" style="fill: rgb(0,0,0)" />
	<circle cx="540.418902946848" cy="-513.726615408337" r="2" style="fill: rgb(0,0,0)" />
	<circle cx="494.770904582129" cy="-564.423853669076" r="2" style="fill: rgb(0,0,0)" />
	<circle cx="214.096956886878" cy="-213.974611012532" r="2" style="fill: rgb(0,0,0)" />
	<circle cx="297.49999999998" cy="-121.34614755626" r="2" style="fill: rgb(0,0,0)" />
	<circle cx="411.367861469001" cy="-172.043385817003" r="2" style="fill: rgb(0,0,0)" />
	<circle cx="134.339026970015" cy="-239.889533373293" r="2" style="fill: rgb(0,0,0)" />
	<circle cx="528.880836134283" cy="-239.889533373273" r="2" style="fill: rgb(0,0,0)" />
	<circle cx="67.6099315521516" cy="-519.527426263439" r="2" style="fill: rgb(0,0,0)" />
	<circle cx="168.448958522175" cy="-592.791267839845" r="2" style="fill: rgb(0,0,0)" />
	<circle cx="285.961933187459" cy="-660.637415396102" r="2" style="fill: rgb(0,0,0)" />
	<circle cx="561.5" cy="-578.607560754462" r="2" style="fill: rgb(0,0,0)" />
	<circle cx="168.448958522157" cy="-163.277372751784" r="2" style="fill: rgb(0,0,0)" />
	<circle cx="202.558890074303" cy="-104.197238260748" r="2" style="fill: rgb(0,0,0)" />
	<circle cx="269.287985492184" cy="-118.380945346121" r="2" style="fill: rgb(0,0,0)" />
	<circle cx="331.609931552134" cy="-62.2660130652122" r="2" style="fill: rgb(0,0,0)" />
	<circle cx="398.339026970004" cy="-76.4497201505804" r="2" style="fill: rgb(0,0,0)" />
	<circle cx="405.46994442463" cy="-144.29586770686" r="2" style="fill: rgb(0,0,0)" />
	<circle cx="141.469944424632" cy="-601.557280905093" r="2" style="fill: rgb(0,0,0)" />
	<circle cx="79.1479983646916" cy="-629.304799015227" r="2" style="fill: rgb(0,0,0)" />
	<circle cx="33.5" cy="-578.607560754467" r="2" style="fill: rgb(0,0,0)" />
	<circle cx="248.206888439008" cy="-53.5" r="2" style="fill: rgb(0,0,0)" />
	<!--
	Generated using the Perl SVG Module V2.87
	by Ronan Oger

	-->
</svg>