<?xml version="1.0" encoding="UTF-8" standalone="yes"?>
<!DOCTYPE svg PUBLIC "-//W3C//DTD SVG 1.0//EN" "http://www.w3.org/TR/2001/REC-SVG-20010904/DTD/svg10.dtd">
<!-- generated using polymake; Michael Joswig, Georg Loho, Benjamin Lorenz, Rico Raber; license CC BY-NC-ND 3.0; see polymake.org and matchthenet.de -->
<svg height="841pt" id="document" viewBox="0 -691.815601296705 572 691.815601296705" width="595pt" xmlns="http://www.w3.org/2000/svg" xmlns:svg="http://www.w3.org/2000/svg" xmlns:xlink="http://www.w3.org/1999/xlink">
	<title id="document_title">planar_net_</title>
	<polygon points="278.90287517194,-354.407800648346 346.187904892898,-354.407800648346 316.09712482807,-414.589360778013 248.812095107119,-414.589360778024 " style="fill: rgb(123,33,31); fill-opacity: 1; stroke: rgb(0,0,0); stroke-width: 3" />
	<polygon points="278.90287517194,-354.407800648346 248.812095107108,-294.226240518683 316.097124828065,-294.226240518682 346.187904892898,-354.407800648346 " style="fill: rgb(123,33,31); fill-opacity: 1; stroke: rgb(0,0,0); stroke-width: 3" />
	<polygon points="316.09712482807,-414.589360778013 346.187904892898,-354.407800648346 386.558922725484,-408.235824425109 356.468142660668,-468.417384554774 " style="fill: rgb(123,33,31); fill-opacity: 1; stroke: rgb(0,0,0); stroke-width: 3" />
	<polygon points="278.90287517194,-354.407800648346 248.812095107119,-414.589360778024 208.441077274525,-360.761337001269 238.531857339333,-300.57977687159 " style="fill: rgb(123,33,31); fill-opacity: 1; stroke: rgb(0,0,0); stroke-width: 3" />
	<polygon points="386.558922725472,-300.579776871576 346.187904892898,-354.407800648346 316.097124828065,-294.226240518682 356.468142660639,-240.398216741914 " style="fill: rgb(123,33,31); fill-opacity: 1; stroke: rgb(0,0,0); stroke-width: 3" />
	<polygon points="248.812095107119,-414.589360778024 316.09712482807,-414.589360778013 346.187904892902,-474.770920907676 278.902875171952,-474.770920907688 " style="fill: rgb(123,33,31); fill-opacity: 1; stroke: rgb(0,0,0); stroke-width: 3" />
	<polygon points="386.558922725484,-408.235824425109 346.187904892898,-354.407800648346 412.387621035529,-342.371488622398 452.758638868117,-396.199512399148 " style="fill: rgb(123,33,31); fill-opacity: 1; stroke: rgb(0,0,0); stroke-width: 3" />
	<polygon points="208.441077274525,-360.761337001269 248.812095107119,-414.589360778024 182.612378964491,-426.625672803984 142.241361131894,-372.79764902724 " style="fill: rgb(123,33,31); fill-opacity: 1; stroke: rgb(0,0,0); stroke-width: 3" />
	<polygon points="316.097124828065,-294.226240518682 248.812095107108,-294.226240518683 278.902875171937,-234.044680389014 346.187904892885,-234.044680389004 " style="fill: rgb(123,33,31); fill-opacity: 1; stroke: rgb(0,0,0); stroke-width: 3" />
	<polygon points="248.812095107119,-414.589360778024 278.902875171952,-474.770920907688 238.531857339378,-528.598944684456 208.441077274545,-468.417384554794 " style="fill: rgb(123,33,31); fill-opacity: 1; stroke: rgb(0,0,0); stroke-width: 3" />
	<polygon points="238.531857339333,-300.57977687159 208.441077274525,-360.761337001269 141.156047553566,-360.761337001297 171.246827618373,-300.57977687162 " style="fill: rgb(123,33,31); fill-opacity: 1; stroke: rgb(0,0,0); stroke-width: 3" />
	<polygon points="356.468142660668,-468.417384554774 386.558922725484,-408.235824425109 453.843952446443,-408.235824425095 423.753172381628,-468.417384554757 " style="fill: rgb(123,33,31); fill-opacity: 1; stroke: rgb(0,0,0); stroke-width: 3" />
	<polygon points="248.812095107108,-294.226240518683 208.441077274524,-240.398216741917 238.531857339339,-180.216656612254 278.902875171937,-234.044680389014 " style="fill: rgb(123,33,31); fill-opacity: 1; stroke: rgb(0,0,0); stroke-width: 3" />
	<polygon points="278.902875171952,-474.770920907688 346.187904892902,-474.770920907676 316.097124828075,-534.952481037346 248.812095107131,-534.952481037365 " style="fill: rgb(123,33,31); fill-opacity: 1; stroke: rgb(0,0,0); stroke-width: 3" />
	<polygon points="453.843952446439,-300.579776871558 386.558922725472,-300.579776871576 356.468142660639,-240.398216741914 423.753172381602,-240.398216741905 " style="fill: rgb(123,33,31); fill-opacity: 1; stroke: rgb(0,0,0); stroke-width: 3" />
	<polygon points="356.468142660668,-468.417384554774 423.753172381628,-468.417384554757 453.843952446461,-528.598944684421 386.558922725501,-528.598944684437 " style="fill: rgb(123,33,31); fill-opacity: 1; stroke: rgb(0,0,0); stroke-width: 3" />
	<polygon points="278.902875171937,-234.044680389014 248.812095107105,-173.863120259351 316.097124828052,-173.863120259341 346.187904892885,-234.044680389004 " style="fill: rgb(123,33,31); fill-opacity: 1; stroke: rgb(0,0,0); stroke-width: 3" />
	<polygon points="182.612378964491,-426.625672803984 152.521598899686,-486.807232933661 112.150581067091,-432.979209156919 142.241361131894,-372.79764902724 " style="fill: rgb(123,33,31); fill-opacity: 1; stroke: rgb(0,0,0); stroke-width: 3" />
	<polygon points="423.753172381602,-240.398216741905 356.468142660639,-240.398216741914 386.55892272547,-180.216656612244 453.843952446422,-180.216656612228 " style="fill: rgb(123,33,31); fill-opacity: 1; stroke: rgb(0,0,0); stroke-width: 3" />
	<polygon points="423.753172381628,-468.417384554757 453.843952446443,-408.235824425095 494.21497027904,-462.063848201854 464.124190214232,-522.245408331512 " style="fill: rgb(123,33,31); fill-opacity: 1; stroke: rgb(0,0,0); stroke-width: 3" />
	<polygon points="171.246827618373,-300.57977687162 141.156047553566,-360.761337001297 100.78502972096,-306.933313224547 130.875809785758,-246.751753094872 " style="fill: rgb(123,33,31); fill-opacity: 1; stroke: rgb(0,0,0); stroke-width: 3" />
	<polygon points="453.843952446439,-300.579776871558 423.753172381602,-240.398216741905 464.124190214171,-186.570192965132 494.214970279007,-246.751753094784 " style="fill: rgb(123,33,31); fill-opacity: 1; stroke: rgb(0,0,0); stroke-width: 3" />
	<polygon points="142.241361131894,-372.79764902724 112.150581067091,-432.979209156919 44.865551346131,-432.979209156952 74.9563314109341,-372.797649027274 " style="fill: rgb(123,33,31); fill-opacity: 1; stroke: rgb(0,0,0); stroke-width: 3" />
	<polygon points="248.812095107131,-534.952481037365 316.097124828075,-534.952481037346 346.187904892907,-595.13404116701 278.902875171964,-595.134041167028 " style="fill: rgb(123,33,31); fill-opacity: 1; stroke: rgb(0,0,0); stroke-width: 3" />
	<polygon points="152.521598899686,-486.807232933661 86.3218827570571,-498.843544959632 45.9508649244623,-445.015521182898 112.150581067091,-432.979209156919 " style="fill: rgb(123,33,31); fill-opacity: 1; stroke: rgb(0,0,0); stroke-width: 3" />
	<polygon points="346.187904892873,-113.681560129664 316.097124828052,-173.863120259341 248.812095107105,-173.863120259351 278.902875171934,-113.681560129678 " style="fill: rgb(123,33,31); fill-opacity: 1; stroke: rgb(0,0,0); stroke-width: 3" />
	<polygon points="130.875809785758,-246.751753094872 100.78502972096,-306.933313224547 33.5,-306.933313224582 63.5907800647977,-246.751753094909 " style="fill: rgb(123,33,31); fill-opacity: 1; stroke: rgb(0,0,0); stroke-width: 3" />
	<polygon points="464.124190214232,-522.245408331512 494.21497027904,-462.063848201854 561.5,-462.063848201835 531.409219935192,-522.245408331491 " style="fill: rgb(123,33,31); fill-opacity: 1; stroke: rgb(0,0,0); stroke-width: 3" />
	<polygon points="278.902875171964,-595.134041167028 346.187904892907,-595.13404116701 316.097124828079,-655.315601296684 248.812095107143,-655.315601296705 " style="fill: rgb(123,33,31); fill-opacity: 1; stroke: rgb(0,0,0); stroke-width: 3" />
	<polygon points="316.09712482804,-53.5 346.187904892873,-113.681560129664 278.902875171934,-113.681560129678 248.812095107102,-53.5000000000136 " style="fill: rgb(123,33,31); fill-opacity: 1; stroke: rgb(0,0,0); stroke-width: 3" />
	<circle cx="278.90287517194" cy="-354.407800648346" r="2" style="fill: rgb(0,0,0)" />
	<circle cx="346.187904892898" cy="-354.407800648346" r="2" style="fill: rgb(0,0,0)" />
	<circle cx="316.09712482807" cy="-414.589360778013" r="2" style="fill: rgb(0,0,0)" />
	<circle cx="248.812095107119" cy="-414.589360778024" r="2" style="fill: rgb(0,0,0)" />
	<circle cx="248.812095107108" cy="-294.226240518683" r="2" style="fill: rgb(0,0,0)" />
	<circle cx="316.097124828065" cy="-294.226240518682" r="2" style="fill: rgb(0,0,0)" />
	<circle cx="386.558922725484" cy="-408.235824425109" r="2" style="fill: rgb(0,0,0)" />
	<circle cx="356.468142660668" cy="-468.417384554774" r="2" style="fill: rgb(0,0,0)" />
	<circle cx="208.441077274525" cy="-360.761337001269" r="2" style="fill: rgb(0,0,0)" />
	<circle cx="238.531857339333" cy="-300.57977687159" r="2" style="fill: rgb(0,0,0)" />
	<circle cx="346.187904892902" cy="-474.770920907676" r="2" style="fill: rgb(0,0,0)" />
	<circle cx="278.902875171952" cy="-474.770920907688" r="2" style="fill: rgb(0,0,0)" />
	<circle cx="356.468142660639" cy="-240.398216741914" r="2" style="fill: rgb(0,0,0)" />
	<circle cx="386.558922725472" cy="-300.579776871576" r="2" style="fill: rgb(0,0,0)" />
	<circle cx="278.902875171937" cy="-234.044680389014" r="2" style="fill: rgb(0,0,0)" />
	<circle cx="346.187904892885" cy="-234.044680389004" r="2" style="fill: rgb(0,0,0)" />
	<circle cx="412.387621035529" cy="-342.371488622398" r="2" style="fill: rgb(0,0,0)" />
	<circle cx="452.758638868117" cy="-396.199512399148" r="2" style="fill: rgb(0,0,0)" />
	<circle cx="453.843952446443" cy="-408.235824425095" r="2" style="fill: rgb(0,0,0)" />
	<circle cx="423.753172381628" cy="-468.417384554757" r="2" style="fill: rgb(0,0,0)" />
	<circle cx="182.612378964491" cy="-426.625672803984" r="2" style="fill: rgb(0,0,0)" />
	<circle cx="142.241361131894" cy="-372.79764902724" r="2" style="fill: rgb(0,0,0)" />
	<circle cx="141.156047553566" cy="-360.761337001297" r="2" style="fill: rgb(0,0,0)" />
	<circle cx="171.246827618373" cy="-300.57977687162" r="2" style="fill: rgb(0,0,0)" />
	<circle cx="238.531857339378" cy="-528.598944684456" r="2" style="fill: rgb(0,0,0)" />
	<circle cx="208.441077274545" cy="-468.417384554794" r="2" style="fill: rgb(0,0,0)" />
	<circle cx="316.097124828075" cy="-534.952481037346" r="2" style="fill: rgb(0,0,0)" />
	<circle cx="248.812095107131" cy="-534.952481037365" r="2" style="fill: rgb(0,0,0)" />
	<circle cx="423.753172381602" cy="-240.398216741905" r="2" style="fill: rgb(0,0,0)" />
	<circle cx="453.843952446439" cy="-300.579776871558" r="2" style="fill: rgb(0,0,0)" />
	<circle cx="208.441077274524" cy="-240.398216741917" r="2" style="fill: rgb(0,0,0)" />
	<circle cx="238.531857339339" cy="-180.216656612254" r="2" style="fill: rgb(0,0,0)" />
	<circle cx="248.812095107105" cy="-173.863120259351" r="2" style="fill: rgb(0,0,0)" />
	<circle cx="316.097124828052" cy="-173.863120259341" r="2" style="fill: rgb(0,0,0)" />
	<circle cx="453.843952446461" cy="-528.598944684421" r="2" style="fill: rgb(0,0,0)" />
	<circle cx="386.558922725501" cy="-528.598944684437" r="2" style="fill: rgb(0,0,0)" />
	<circle cx="494.21497027904" cy="-462.063848201854" r="2" style="fill: rgb(0,0,0)" />
	<circle cx="464.124190214232" cy="-522.245408331512" r="2" style="fill: rgb(0,0,0)" />
	<circle cx="152.521598899686" cy="-486.807232933661" r="2" style="fill: rgb(0,0,0)" />
	<circle cx="112.150581067091" cy="-432.979209156919" r="2" style="fill: rgb(0,0,0)" />
	<circle cx="100.78502972096" cy="-306.933313224547" r="2" style="fill: rgb(0,0,0)" />
	<circle cx="130.875809785758" cy="-246.751753094872" r="2" style="fill: rgb(0,0,0)" />
	<circle cx="346.187904892907" cy="-595.13404116701" r="2" style="fill: rgb(0,0,0)" />
	<circle cx="278.902875171964" cy="-595.134041167028" r="2" style="fill: rgb(0,0,0)" />
	<circle cx="386.55892272547" cy="-180.216656612244" r="2" style="fill: rgb(0,0,0)" />
	<circle cx="453.843952446422" cy="-180.216656612228" r="2" style="fill: rgb(0,0,0)" />
	<circle cx="464.124190214171" cy="-186.570192965132" r="2" style="fill: rgb(0,0,0)" />
	<circle cx="494.214970279007" cy="-246.751753094784" r="2" style="fill: rgb(0,0,0)" />
	<circle cx="278.902875171934" cy="-113.681560129678" r="2" style="fill: rgb(0,0,0)" />
	<circle cx="346.187904892873" cy="-113.681560129664" r="2" style="fill: rgb(0,0,0)" />
	<circle cx="561.5" cy="-462.063848201835" r="2" style="fill: rgb(0,0,0)" />
	<circle cx="531.409219935192" cy="-522.245408331491" r="2" style="fill: rgb(0,0,0)" />
	<circle cx="44.865551346131" cy="-432.979209156952" r="2" style="fill: rgb(0,0,0)" />
	<circle cx="74.9563314109341" cy="-372.797649027274" r="2" style="fill: rgb(0,0,0)" />
	<circle cx="86.3218827570571" cy="-498.843544959632" r="2" style="fill: rgb(0,0,0)" />
	<circle cx="45.9508649244623" cy="-445.015521182898" r="2" style="fill: rgb(0,0,0)" />
	<circle cx="33.5" cy="-306.933313224582" r="2" style="fill: rgb(0,0,0)" />
	<circle cx="63.5907800647977" cy="-246.751753094909" r="2" style="fill: rgb(0,0,0)" />
	<circle cx="316.097124828079" cy="-655.315601296684" r="2" style="fill: rgb(0,0,0)" />
	<circle cx="248.812095107143" cy="-655.315601296705" r="2" style="fill: rgb(0,0,0)" />
	<circle cx="248.812095107102" cy="-53.5000000000136" r="2" style="fill: rgb(0,0,0)" />
	<circle cx="316.09712482804" cy="-53.5" r="2" style="fill: rgb(0,0,0)" />
	<!--
	Generated using the Perl SVG Module V2.84
	by Ronan Oger
	Info: http://www.roitsystems.com/
	-->
</svg>