<?xml version="1.0" encoding="UTF-8" standalone="yes"?>
<!DOCTYPE svg PUBLIC "-//W3C//DTD SVG 1.0//EN" "http://www.w3.org/TR/2001/REC-SVG-20010904/DTD/svg10.dtd">
<!-- generated using polymake; Michael Joswig, Georg Loho, Benjamin Lorenz, Rico Raber; license CC BY-NC-ND 3.0; see polymake.org and matchthenet.de -->
<svg height="841pt" id="document" viewBox="0 -775.892119797277 572 775.892119797277" width="595pt" xmlns="http://www.w3.org/2000/svg" xmlns:svg="http://www.w3.org/2000/svg" xmlns:xlink="http://www.w3.org/1999/xlink">
	<title id="document_title">planar_net_</title>
	<polygon points="231.499999999999,-396.446059898639 363.499999999998,-396.446059898639 297.499999999999,-510.761413198184 " style="fill: rgb(14,173,105); fill-opacity: 1; stroke: rgb(0,0,0); stroke-width: 3" />
	<polygon points="165.5,-510.761413198185 297.499999999999,-510.761413198184 231.5,-625.07676649773 " style="fill: rgb(14,173,105); fill-opacity: 1; stroke: rgb(0,0,0); stroke-width: 3" />
	<polygon points="297.499999999999,-282.130706599093 363.499999999998,-396.446059898639 231.499999999999,-396.446059898639 " style="fill: rgb(14,173,105); fill-opacity: 1; stroke: rgb(0,0,0); stroke-width: 3" />
	<polygon points="231.499999999999,-396.446059898639 165.499999999999,-282.130706599093 297.499999999999,-282.130706599093 " style="fill: rgb(14,173,105); fill-opacity: 1; stroke: rgb(0,0,0); stroke-width: 3" />
	<polygon points="429.499999999999,-282.130706599093 363.499999999998,-396.446059898639 297.499999999999,-282.130706599093 " style="fill: rgb(14,173,105); fill-opacity: 1; stroke: rgb(0,0,0); stroke-width: 3" />
	<polygon points="231.499999999999,-396.446059898639 165.5,-510.761413198185 99.4999999999993,-396.44605989864 " style="fill: rgb(14,173,105); fill-opacity: 1; stroke: rgb(0,0,0); stroke-width: 3" />
	<polygon points="231.499999999999,-396.446059898639 297.499999999999,-510.761413198184 165.5,-510.761413198185 " style="fill: rgb(14,173,105); fill-opacity: 1; stroke: rgb(0,0,0); stroke-width: 3" />
	<polygon points="297.499999999999,-510.761413198184 363.499999999998,-396.446059898639 429.499999999999,-510.761413198184 " style="fill: rgb(14,173,105); fill-opacity: 1; stroke: rgb(0,0,0); stroke-width: 3" />
	<polygon points="297.499999999999,-282.130706599093 165.499999999999,-282.130706599093 231.499999999999,-167.815353299547 " style="fill: rgb(14,173,105); fill-opacity: 1; stroke: rgb(0,0,0); stroke-width: 3" />
	<polygon points="429.499999999999,-510.761413198184 363.499999999998,-396.446059898639 495.499999999999,-396.446059898638 " style="fill: rgb(14,173,105); fill-opacity: 1; stroke: rgb(0,0,0); stroke-width: 3" />
	<polygon points="99.4999999999993,-396.44605989864 165.5,-510.761413198185 33.5,-510.761413198186 " style="fill: rgb(14,173,105); fill-opacity: 1; stroke: rgb(0,0,0); stroke-width: 3" />
	<polygon points="429.499999999999,-282.130706599093 297.499999999999,-282.130706599093 363.499999999999,-167.815353299547 " style="fill: rgb(14,173,105); fill-opacity: 1; stroke: rgb(0,0,0); stroke-width: 3" />
	<polygon points="429.499999999999,-510.761413198184 495.499999999999,-396.446059898638 561.5,-510.761413198184 " style="fill: rgb(14,173,105); fill-opacity: 1; stroke: rgb(0,0,0); stroke-width: 3" />
	<polygon points="165.499999999999,-282.130706599093 99.4999999999993,-167.815353299547 231.499999999999,-167.815353299547 " style="fill: rgb(14,173,105); fill-opacity: 1; stroke: rgb(0,0,0); stroke-width: 3" />
	<polygon points="297.499999999999,-510.761413198184 429.499999999999,-510.761413198184 363.5,-625.07676649773 " style="fill: rgb(14,173,105); fill-opacity: 1; stroke: rgb(0,0,0); stroke-width: 3" />
	<polygon points="165.5,-510.761413198185 231.5,-625.07676649773 99.4999999999999,-625.076766497731 " style="fill: rgb(14,173,105); fill-opacity: 1; stroke: rgb(0,0,0); stroke-width: 3" />
	<polygon points="495.5,-167.815353299546 429.499999999999,-282.130706599093 363.499999999999,-167.815353299547 " style="fill: rgb(14,173,105); fill-opacity: 1; stroke: rgb(0,0,0); stroke-width: 3" />
	<polygon points="165.499999999998,-53.5 231.499999999999,-167.815353299547 99.4999999999993,-167.815353299547 " style="fill: rgb(14,173,105); fill-opacity: 1; stroke: rgb(0,0,0); stroke-width: 3" />
	<polygon points="363.5,-625.07676649773 429.499999999999,-510.761413198184 495.5,-625.07676649773 " style="fill: rgb(14,173,105); fill-opacity: 1; stroke: rgb(0,0,0); stroke-width: 3" />
	<polygon points="231.5,-625.07676649773 165.5,-739.392119797277 99.4999999999999,-625.076766497731 " style="fill: rgb(14,173,105); fill-opacity: 1; stroke: rgb(0,0,0); stroke-width: 3" />
	<circle cx="231.499999999999" cy="-396.446059898639" r="2" style="fill: rgb(0,0,0)" />
	<circle cx="363.499999999998" cy="-396.446059898639" r="2" style="fill: rgb(0,0,0)" />
	<circle cx="297.499999999999" cy="-510.761413198184" r="2" style="fill: rgb(0,0,0)" />
	<circle cx="297.499999999999" cy="-282.130706599093" r="2" style="fill: rgb(0,0,0)" />
	<circle cx="165.5" cy="-510.761413198185" r="2" style="fill: rgb(0,0,0)" />
	<circle cx="429.499999999999" cy="-510.761413198184" r="2" style="fill: rgb(0,0,0)" />
	<circle cx="165.499999999999" cy="-282.130706599093" r="2" style="fill: rgb(0,0,0)" />
	<circle cx="429.499999999999" cy="-282.130706599093" r="2" style="fill: rgb(0,0,0)" />
	<circle cx="231.5" cy="-625.07676649773" r="2" style="fill: rgb(0,0,0)" />
	<circle cx="99.4999999999993" cy="-396.44605989864" r="2" style="fill: rgb(0,0,0)" />
	<circle cx="495.499999999999" cy="-396.446059898638" r="2" style="fill: rgb(0,0,0)" />
	<circle cx="363.5" cy="-625.07676649773" r="2" style="fill: rgb(0,0,0)" />
	<circle cx="231.499999999999" cy="-167.815353299547" r="2" style="fill: rgb(0,0,0)" />
	<circle cx="363.499999999999" cy="-167.815353299547" r="2" style="fill: rgb(0,0,0)" />
	<circle cx="99.4999999999999" cy="-625.076766497731" r="2" style="fill: rgb(0,0,0)" />
	<circle cx="33.5" cy="-510.761413198186" r="2" style="fill: rgb(0,0,0)" />
	<circle cx="561.5" cy="-510.761413198184" r="2" style="fill: rgb(0,0,0)" />
	<circle cx="495.5" cy="-625.07676649773" r="2" style="fill: rgb(0,0,0)" />
	<circle cx="99.4999999999993" cy="-167.815353299547" r="2" style="fill: rgb(0,0,0)" />
	<circle cx="495.5" cy="-167.815353299546" r="2" style="fill: rgb(0,0,0)" />
	<circle cx="165.5" cy="-739.392119797277" r="2" style="fill: rgb(0,0,0)" />
	<circle cx="165.499999999998" cy="-53.5" r="2" style="fill: rgb(0,0,0)" />
	<!--
	Generated using the Perl SVG Module V2.87
	by Ronan Oger

	-->
</svg>