<?xml version="1.0" encoding="UTF-8" standalone="yes"?>
<!DOCTYPE svg PUBLIC "-//W3C//DTD SVG 1.0//EN" "http://www.w3.org/TR/2001/REC-SVG-20010904/DTD/svg10.dtd">
<!-- generated using polymake; Michael Joswig, Georg Loho, Benjamin Lorenz, Rico Raber; license CC BY-NC-SA 3.0; see polymake.org and matchthenet.de -->
<svg height="841pt" id="document" viewBox="0 -811 551.29150331092 811" width="595pt" xmlns="http://www.w3.org/2000/svg" xmlns:svg="http://www.w3.org/2000/svg" xmlns:xlink="http://www.w3.org/1999/xlink">
	<title id="document_title">planar_net_</title>
	<polygon points="248.188302988714,-458.480825421572 302.321966309802,-458.480825421572 319.050188243795,-509.964998674025 275.255134649284,-541.783967626742 231.460081054751,-509.96499867404 " style="fill: rgb(255,210,63); fill-opacity: 1; stroke: rgb(0,0,0); stroke-width: 3" />
	<polygon points="302.321966309793,-404.347162100474 302.321966309802,-458.480825421572 248.188302988714,-458.480825421572 248.188302988711,-404.347162100481 " style="fill: rgb(67,184,206); fill-opacity: 1; stroke: rgb(0,0,0); stroke-width: 3" />
	<polygon points="195.237590092248,-393.092140629227 155.008438311047,-356.869649666755 191.23092927351,-316.640497885556 231.460081054722,-352.862988848027 " style="fill: rgb(67,184,206); fill-opacity: 1; stroke: rgb(0,0,0); stroke-width: 3" />
	<polygon points="248.188302988711,-404.347162100481 195.237590092248,-393.092140629227 231.460081054722,-352.862988848027 " style="fill: rgb(14,173,105); fill-opacity: 1; stroke: rgb(0,0,0); stroke-width: 3" />
	<polygon points="302.321966309793,-404.347162100474 248.188302988711,-404.347162100481 231.460081054722,-352.862988848027 275.255134649241,-321.044019895315 319.050188243768,-352.862988848017 " style="fill: rgb(255,210,63); fill-opacity: 1; stroke: rgb(0,0,0); stroke-width: 3" />
	<polygon points="319.050188243795,-509.964998674025 302.321966309802,-458.480825421572 353.806139562252,-441.752603487578 370.534361496249,-493.236776740021 " style="fill: rgb(67,184,206); fill-opacity: 1; stroke: rgb(0,0,0); stroke-width: 3" />
	<polygon points="349.203093945775,-431.41399376101 302.321966309802,-458.480825421572 302.321966309793,-404.347162100474 " style="fill: rgb(14,173,105); fill-opacity: 1; stroke: rgb(0,0,0); stroke-width: 3" />
	<polygon points="142.570466415155,-387.618940166524 110.751497462461,-431.413993761059 66.9564438679195,-399.595024808364 98.7754128206044,-355.79997121383 " style="fill: rgb(67,184,206); fill-opacity: 1; stroke: rgb(0,0,0); stroke-width: 3" />
	<polygon points="138.280216377057,-305.385476414304 191.23092927351,-316.640497885556 155.008438311047,-356.869649666755 " style="fill: rgb(14,173,105); fill-opacity: 1; stroke: rgb(0,0,0); stroke-width: 3" />
	<polygon points="243.436165696512,-277.248966300789 275.255134649241,-321.044019895315 231.460081054722,-352.862988848027 199.641112102003,-309.067935253503 " style="fill: rgb(67,184,206); fill-opacity: 1; stroke: rgb(0,0,0); stroke-width: 3" />
	<polygon points="353.806139562256,-421.075384034444 302.321966309793,-404.347162100474 319.050188243768,-352.862988848017 370.534361496224,-369.59121078199 " style="fill: rgb(67,184,206); fill-opacity: 1; stroke: rgb(0,0,0); stroke-width: 3" />
	<polygon points="319.050188243795,-509.964998674025 370.534361496249,-493.236776740021 387.262583430253,-544.720949992468 335.778410177804,-561.449171926474 " style="fill: rgb(67,184,206); fill-opacity: 1; stroke: rgb(0,0,0); stroke-width: 3" />
	<polygon points="104.361885255072,-602.3072431553 121.090107189066,-653.79141640774 77.2950535945371,-685.610385360451 33.5,-653.791416407769 50.2282219339826,-602.307243155321 " style="fill: rgb(255,210,63); fill-opacity: 1; stroke: rgb(0,0,0); stroke-width: 3" />
	<polygon points="335.778410177804,-561.449171926474 387.262583430253,-544.720949992468 419.08155238297,-588.516003586991 387.262583430282,-632.311057181536 335.778410177823,-615.582835247565 " style="fill: rgb(255,210,63); fill-opacity: 1; stroke: rgb(0,0,0); stroke-width: 3" />
	<polygon points="172.574280441517,-637.063194473746 226.707943762599,-637.063194473732 226.707943762601,-691.196857794824 172.574280441526,-691.196857794843 " style="fill: rgb(67,184,206); fill-opacity: 1; stroke: rgb(0,0,0); stroke-width: 3" />
	<polygon points="172.574280441517,-637.063194473746 172.574280441526,-691.196857794843 125.693152805544,-664.130026134309 " style="fill: rgb(14,173,105); fill-opacity: 1; stroke: rgb(0,0,0); stroke-width: 3" />
	<polygon points="335.778410177823,-615.582835247565 387.262583430282,-632.311057181536 370.534361496314,-683.795230433995 319.050188243858,-667.067008500029 " style="fill: rgb(67,184,206); fill-opacity: 1; stroke: rgb(0,0,0); stroke-width: 3" />
	<polygon points="370.534361496249,-493.236776740021 423.485074392715,-504.49179821126 387.262583430253,-544.720949992468 " style="fill: rgb(14,173,105); fill-opacity: 1; stroke: rgb(0,0,0); stroke-width: 3" />
	<polygon points="172.574280441526,-691.196857794843 145.507448780992,-738.07798543083 98.6263211450135,-711.011153770304 125.693152805544,-664.130026134309 " style="fill: rgb(67,184,206); fill-opacity: 1; stroke: rgb(0,0,0); stroke-width: 3" />
	<polygon points="431.057637024775,-512.901981039748 462.876605977494,-556.69703463426 419.08155238297,-588.516003586991 387.262583430253,-544.720949992468 " style="fill: rgb(67,184,206); fill-opacity: 1; stroke: rgb(0,0,0); stroke-width: 3" />
	<polygon points="346.117019904308,-102.953562232547 302.321966309787,-134.772531185249 270.502997357078,-90.9774775907179 314.298050951593,-59.1585086380168 " style="fill: rgb(67,184,206); fill-opacity: 1; stroke: rgb(0,0,0); stroke-width: 3" />
	<polygon points="387.262583430282,-632.311057181536 423.485074392767,-672.540208962736 370.534361496314,-683.795230433995 " style="fill: rgb(14,173,105); fill-opacity: 1; stroke: rgb(0,0,0); stroke-width: 3" />
	<polygon points="424.668024817336,-493.236776740002 441.396246751322,-441.75260348755 492.880420003775,-458.480825421535 476.152198069795,-509.964998673982 " style="fill: rgb(67,184,206); fill-opacity: 1; stroke: rgb(0,0,0); stroke-width: 3" />
	<polygon points="346.117019904308,-102.953562232547 314.298050951593,-59.1585086380168 368.13516440091,-53.5 " style="fill: rgb(14,173,105); fill-opacity: 1; stroke: rgb(0,0,0); stroke-width: 3" />
	<polygon points="487.840790414454,-269.559846642866 504.569012348455,-218.075673390407 540.79150331092,-258.304825171622 " style="fill: rgb(14,173,105); fill-opacity: 1; stroke: rgb(0,0,0); stroke-width: 3" />
	<polygon points="389.912073498834,-134.772531185263 346.117019904308,-102.953562232547 377.935988857023,-59.1585086380188 421.731042451546,-90.9774775907251 " style="fill: rgb(67,184,206); fill-opacity: 1; stroke: rgb(0,0,0); stroke-width: 3" />
	<polygon points="433.707127093368,-269.559846642863 416.978905159383,-218.075673390412 460.773958753925,-186.256704437703 504.569012348455,-218.075673390407 487.840790414454,-269.559846642866 " style="fill: rgb(255,210,63); fill-opacity: 1; stroke: rgb(0,0,0); stroke-width: 3" />
	<polygon points="448.797874112086,-174.28061979587 405.002820517561,-142.461650843175 454.456382750105,-120.443506346564 " style="fill: rgb(14,173,105); fill-opacity: 1; stroke: rgb(0,0,0); stroke-width: 3" />
	<polygon points="416.978905159383,-218.075673390412 373.183851564856,-186.256704437709 405.002820517561,-142.461650843175 448.797874112086,-174.28061979587 " style="fill: rgb(67,184,206); fill-opacity: 1; stroke: rgb(0,0,0); stroke-width: 3" />
	<polygon points="504.569012348455,-218.075673390407 460.773958753925,-186.256704437703 492.592927706631,-142.461650843169 536.387981301158,-174.280619795867 " style="fill: rgb(67,184,206); fill-opacity: 1; stroke: rgb(0,0,0); stroke-width: 3" />
	<polygon points="373.183851564856,-186.256704437709 319.050188243773,-186.25670443771 302.321966309787,-134.772531185249 346.117019904308,-102.953562232547 389.912073498834,-134.772531185263 " style="fill: rgb(255,210,63); fill-opacity: 1; stroke: rgb(0,0,0); stroke-width: 3" />
	<polygon points="387.262583430282,-632.311057181536 419.08155238297,-588.516003586991 462.876605977517,-620.334972539678 431.057637024836,-664.130026134221 " style="fill: rgb(67,184,206); fill-opacity: 1; stroke: rgb(0,0,0); stroke-width: 3" />
	<polygon points="172.574280441526,-691.196857794843 226.707943762601,-691.196857794824 243.436165696591,-742.681031047276 199.641112102078,-774.5 155.846058507554,-742.681031047308 " style="fill: rgb(255,210,63); fill-opacity: 1; stroke: rgb(0,0,0); stroke-width: 3" />
	<polygon points="287.231219291058,-142.461650843177 243.436165696537,-174.280619795881 237.777657058536,-120.443506346556 " style="fill: rgb(14,173,105); fill-opacity: 1; stroke: rgb(0,0,0); stroke-width: 3" />
	<polygon points="319.050188243773,-186.25670443771 275.255134649244,-218.075673390413 243.436165696537,-174.280619795881 287.231219291058,-142.461650843177 " style="fill: rgb(67,184,206); fill-opacity: 1; stroke: rgb(0,0,0); stroke-width: 3" />
	<polygon points="416.97890515938,-321.044019895314 373.183851564851,-352.862988848017 319.050188243768,-352.862988848017 275.255134649241,-321.044019895315 258.526912715256,-269.559846642864 275.255134649244,-218.075673390413 319.050188243773,-186.25670443771 373.183851564856,-186.256704437709 416.978905159383,-218.075673390412 433.707127093368,-269.559846642863 " style="fill: rgb(136,136,136); fill-opacity: 1; stroke: rgb(0,0,0); stroke-width: 3" />
	<polygon points="172.574280441402,-225.764793048366 155.846058507453,-277.248966300813 104.361885254989,-260.52074436686 121.09010718893,-209.036571114417 " style="fill: rgb(67,184,206); fill-opacity: 1; stroke: rgb(0,0,0); stroke-width: 3" />
	<polygon points="370.534361496249,-493.236776740021 353.806139562252,-441.752603487578 397.601193156785,-409.933634534866 441.396246751322,-441.75260348755 424.668024817336,-493.236776740002 " style="fill: rgb(255,210,63); fill-opacity: 1; stroke: rgb(0,0,0); stroke-width: 3" />
	<polygon points="226.707943762487,-225.764793048356 243.436165696512,-277.248966300789 199.641112102003,-309.067935253503 155.846058507453,-277.248966300813 172.574280441402,-225.764793048366 " style="fill: rgb(255,210,63); fill-opacity: 1; stroke: rgb(0,0,0); stroke-width: 3" />
	<polygon points="253.236990152688,-591.237529859293 302.690552385226,-613.255674355886 258.895498790706,-645.074643308618 " style="fill: rgb(14,173,105); fill-opacity: 1; stroke: rgb(0,0,0); stroke-width: 3" />
	<polygon points="155.846058507526,-585.579021221298 172.574280441517,-637.063194473746 121.090107189066,-653.79141640774 104.361885255072,-602.3072431553 " style="fill: rgb(67,184,206); fill-opacity: 1; stroke: rgb(0,0,0); stroke-width: 3" />
	<polygon points="61.2979352299176,-453.432138257682 66.9564438679195,-399.595024808364 110.751497462461,-431.413993761059 " style="fill: rgb(14,173,105); fill-opacity: 1; stroke: rgb(0,0,0); stroke-width: 3" />
	<polygon points="275.255134649284,-541.783967626742 319.050188243795,-509.964998674025 324.708696881824,-563.802112123341 " style="fill: rgb(14,173,105); fill-opacity: 1; stroke: rgb(0,0,0); stroke-width: 3" />
	<polygon points="275.255134649284,-541.783967626742 324.708696881824,-563.802112123341 302.690552385226,-613.255674355886 253.236990152688,-591.237529859293 " style="fill: rgb(67,184,206); fill-opacity: 1; stroke: rgb(0,0,0); stroke-width: 3" />
	<polygon points="199.641112102051,-553.760052268584 243.436165696582,-585.579021221278 226.707943762599,-637.063194473732 172.574280441517,-637.063194473746 155.846058507526,-585.579021221298 " style="fill: rgb(255,210,63); fill-opacity: 1; stroke: rgb(0,0,0); stroke-width: 3" />
	<polygon points="199.641112102051,-553.760052268584 155.846058507526,-585.579021221298 150.187549869517,-531.741907771972 " style="fill: rgb(14,173,105); fill-opacity: 1; stroke: rgb(0,0,0); stroke-width: 3" />
	<polygon points="98.7754128206519,-507.028016308296 66.9564438679372,-463.232962713789 110.751497462461,-431.413993761059 142.570466415175,-475.209047355576 " style="fill: rgb(67,184,206); fill-opacity: 1; stroke: rgb(0,0,0); stroke-width: 3" />
	<polygon points="231.460081054751,-509.96499867404 275.255134649284,-541.783967626742 243.436165696582,-585.579021221278 199.641112102051,-553.760052268584 " style="fill: rgb(67,184,206); fill-opacity: 1; stroke: rgb(0,0,0); stroke-width: 3" />
	<polygon points="248.188302988714,-458.480825421572 231.460081054751,-509.96499867404 195.237590092262,-469.735846892859 " style="fill: rgb(14,173,105); fill-opacity: 1; stroke: rgb(0,0,0); stroke-width: 3" />
	<polygon points="231.460081054751,-509.96499867404 199.641112102051,-553.760052268584 155.84605850751,-521.941083315889 187.665027460201,-478.146029721347 " style="fill: rgb(67,184,206); fill-opacity: 1; stroke: rgb(0,0,0); stroke-width: 3" />
	<polygon points="194.054639667622,-458.480825421577 142.570466415175,-475.209047355576 110.751497462461,-431.413993761059 142.570466415155,-387.618940166524 194.054639667613,-404.347162100493 " style="fill: rgb(255,210,63); fill-opacity: 1; stroke: rgb(0,0,0); stroke-width: 3" />
	<polygon points="248.188302988714,-458.480825421572 194.054639667622,-458.480825421577 194.054639667613,-404.347162100493 248.188302988711,-404.347162100481 " style="fill: rgb(67,184,206); fill-opacity: 1; stroke: rgb(0,0,0); stroke-width: 3" />
	<circle cx="248.188302988714" cy="-458.480825421572" r="2" style="fill: rgb(0,0,0)" />
	<circle cx="302.321966309802" cy="-458.480825421572" r="2" style="fill: rgb(0,0,0)" />
	<circle cx="319.050188243795" cy="-509.964998674025" r="2" style="fill: rgb(0,0,0)" />
	<circle cx="275.255134649284" cy="-541.783967626742" r="2" style="fill: rgb(0,0,0)" />
	<circle cx="231.460081054751" cy="-509.96499867404" r="2" style="fill: rgb(0,0,0)" />
	<circle cx="248.188302988711" cy="-404.347162100481" r="2" style="fill: rgb(0,0,0)" />
	<circle cx="302.321966309793" cy="-404.347162100474" r="2" style="fill: rgb(0,0,0)" />
	<circle cx="353.806139562252" cy="-441.752603487578" r="2" style="fill: rgb(0,0,0)" />
	<circle cx="370.534361496249" cy="-493.236776740021" r="2" style="fill: rgb(0,0,0)" />
	<circle cx="324.708696881824" cy="-563.802112123341" r="2" style="fill: rgb(0,0,0)" />
	<circle cx="243.436165696582" cy="-585.579021221278" r="2" style="fill: rgb(0,0,0)" />
	<circle cx="199.641112102051" cy="-553.760052268584" r="2" style="fill: rgb(0,0,0)" />
	<circle cx="195.237590092262" cy="-469.735846892859" r="2" style="fill: rgb(0,0,0)" />
	<circle cx="231.460081054722" cy="-352.862988848027" r="2" style="fill: rgb(0,0,0)" />
	<circle cx="275.255134649241" cy="-321.044019895315" r="2" style="fill: rgb(0,0,0)" />
	<circle cx="319.050188243768" cy="-352.862988848017" r="2" style="fill: rgb(0,0,0)" />
	<circle cx="349.203093945775" cy="-431.41399376101" r="2" style="fill: rgb(0,0,0)" />
	<circle cx="194.054639667622" cy="-458.480825421577" r="2" style="fill: rgb(0,0,0)" />
	<circle cx="194.054639667613" cy="-404.347162100493" r="2" style="fill: rgb(0,0,0)" />
	<circle cx="387.262583430253" cy="-544.720949992468" r="2" style="fill: rgb(0,0,0)" />
	<circle cx="335.778410177804" cy="-561.449171926474" r="2" style="fill: rgb(0,0,0)" />
	<circle cx="397.601193156785" cy="-409.933634534866" r="2" style="fill: rgb(0,0,0)" />
	<circle cx="441.396246751322" cy="-441.75260348755" r="2" style="fill: rgb(0,0,0)" />
	<circle cx="424.668024817336" cy="-493.236776740002" r="2" style="fill: rgb(0,0,0)" />
	<circle cx="302.690552385226" cy="-613.255674355886" r="2" style="fill: rgb(0,0,0)" />
	<circle cx="253.236990152688" cy="-591.237529859293" r="2" style="fill: rgb(0,0,0)" />
	<circle cx="226.707943762599" cy="-637.063194473732" r="2" style="fill: rgb(0,0,0)" />
	<circle cx="172.574280441517" cy="-637.063194473746" r="2" style="fill: rgb(0,0,0)" />
	<circle cx="155.846058507526" cy="-585.579021221298" r="2" style="fill: rgb(0,0,0)" />
	<circle cx="155.84605850751" cy="-521.941083315889" r="2" style="fill: rgb(0,0,0)" />
	<circle cx="187.665027460201" cy="-478.146029721347" r="2" style="fill: rgb(0,0,0)" />
	<circle cx="195.237590092248" cy="-393.092140629227" r="2" style="fill: rgb(0,0,0)" />
	<circle cx="199.641112102003" cy="-309.067935253503" r="2" style="fill: rgb(0,0,0)" />
	<circle cx="243.436165696512" cy="-277.248966300789" r="2" style="fill: rgb(0,0,0)" />
	<circle cx="370.534361496224" cy="-369.59121078199" r="2" style="fill: rgb(0,0,0)" />
	<circle cx="353.806139562256" cy="-421.075384034444" r="2" style="fill: rgb(0,0,0)" />
	<circle cx="258.526912715256" cy="-269.559846642864" r="2" style="fill: rgb(0,0,0)" />
	<circle cx="275.255134649244" cy="-218.075673390413" r="2" style="fill: rgb(0,0,0)" />
	<circle cx="319.050188243773" cy="-186.25670443771" r="2" style="fill: rgb(0,0,0)" />
	<circle cx="373.183851564856" cy="-186.256704437709" r="2" style="fill: rgb(0,0,0)" />
	<circle cx="416.978905159383" cy="-218.075673390412" r="2" style="fill: rgb(0,0,0)" />
	<circle cx="433.707127093368" cy="-269.559846642863" r="2" style="fill: rgb(0,0,0)" />
	<circle cx="416.97890515938" cy="-321.044019895314" r="2" style="fill: rgb(0,0,0)" />
	<circle cx="373.183851564851" cy="-352.862988848017" r="2" style="fill: rgb(0,0,0)" />
	<circle cx="142.570466415175" cy="-475.209047355576" r="2" style="fill: rgb(0,0,0)" />
	<circle cx="110.751497462461" cy="-431.413993761059" r="2" style="fill: rgb(0,0,0)" />
	<circle cx="142.570466415155" cy="-387.618940166524" r="2" style="fill: rgb(0,0,0)" />
	<circle cx="419.08155238297" cy="-588.516003586991" r="2" style="fill: rgb(0,0,0)" />
	<circle cx="387.262583430282" cy="-632.311057181536" r="2" style="fill: rgb(0,0,0)" />
	<circle cx="335.778410177823" cy="-615.582835247565" r="2" style="fill: rgb(0,0,0)" />
	<circle cx="423.485074392715" cy="-504.49179821126" r="2" style="fill: rgb(0,0,0)" />
	<circle cx="492.880420003775" cy="-458.480825421535" r="2" style="fill: rgb(0,0,0)" />
	<circle cx="476.152198069795" cy="-509.964998673982" r="2" style="fill: rgb(0,0,0)" />
	<circle cx="258.895498790706" cy="-645.074643308618" r="2" style="fill: rgb(0,0,0)" />
	<circle cx="226.707943762601" cy="-691.196857794824" r="2" style="fill: rgb(0,0,0)" />
	<circle cx="172.574280441526" cy="-691.196857794843" r="2" style="fill: rgb(0,0,0)" />
	<circle cx="121.090107189066" cy="-653.79141640774" r="2" style="fill: rgb(0,0,0)" />
	<circle cx="104.361885255072" cy="-602.3072431553" r="2" style="fill: rgb(0,0,0)" />
	<circle cx="150.187549869517" cy="-531.741907771972" r="2" style="fill: rgb(0,0,0)" />
	<circle cx="155.008438311047" cy="-356.869649666755" r="2" style="fill: rgb(0,0,0)" />
	<circle cx="191.23092927351" cy="-316.640497885556" r="2" style="fill: rgb(0,0,0)" />
	<circle cx="155.846058507453" cy="-277.248966300813" r="2" style="fill: rgb(0,0,0)" />
	<circle cx="172.574280441402" cy="-225.764793048366" r="2" style="fill: rgb(0,0,0)" />
	<circle cx="226.707943762487" cy="-225.764793048356" r="2" style="fill: rgb(0,0,0)" />
	<circle cx="460.773958753925" cy="-186.256704437703" r="2" style="fill: rgb(0,0,0)" />
	<circle cx="504.569012348455" cy="-218.075673390407" r="2" style="fill: rgb(0,0,0)" />
	<circle cx="487.840790414454" cy="-269.559846642866" r="2" style="fill: rgb(0,0,0)" />
	<circle cx="405.002820517561" cy="-142.461650843175" r="2" style="fill: rgb(0,0,0)" />
	<circle cx="448.797874112086" cy="-174.28061979587" r="2" style="fill: rgb(0,0,0)" />
	<circle cx="302.321966309787" cy="-134.772531185249" r="2" style="fill: rgb(0,0,0)" />
	<circle cx="346.117019904308" cy="-102.953562232547" r="2" style="fill: rgb(0,0,0)" />
	<circle cx="389.912073498834" cy="-134.772531185263" r="2" style="fill: rgb(0,0,0)" />
	<circle cx="243.436165696537" cy="-174.280619795881" r="2" style="fill: rgb(0,0,0)" />
	<circle cx="287.231219291058" cy="-142.461650843177" r="2" style="fill: rgb(0,0,0)" />
	<circle cx="66.9564438679195" cy="-399.595024808364" r="2" style="fill: rgb(0,0,0)" />
	<circle cx="98.7754128206044" cy="-355.79997121383" r="2" style="fill: rgb(0,0,0)" />
	<circle cx="98.7754128206519" cy="-507.028016308296" r="2" style="fill: rgb(0,0,0)" />
	<circle cx="66.9564438679372" cy="-463.232962713789" r="2" style="fill: rgb(0,0,0)" />
	<circle cx="370.534361496314" cy="-683.795230433995" r="2" style="fill: rgb(0,0,0)" />
	<circle cx="319.050188243858" cy="-667.067008500029" r="2" style="fill: rgb(0,0,0)" />
	<circle cx="431.057637024775" cy="-512.901981039748" r="2" style="fill: rgb(0,0,0)" />
	<circle cx="462.876605977494" cy="-556.69703463426" r="2" style="fill: rgb(0,0,0)" />
	<circle cx="462.876605977517" cy="-620.334972539678" r="2" style="fill: rgb(0,0,0)" />
	<circle cx="431.057637024836" cy="-664.130026134221" r="2" style="fill: rgb(0,0,0)" />
	<circle cx="125.693152805544" cy="-664.130026134309" r="2" style="fill: rgb(0,0,0)" />
	<circle cx="243.436165696591" cy="-742.681031047276" r="2" style="fill: rgb(0,0,0)" />
	<circle cx="199.641112102078" cy="-774.5" r="2" style="fill: rgb(0,0,0)" />
	<circle cx="155.846058507554" cy="-742.681031047308" r="2" style="fill: rgb(0,0,0)" />
	<circle cx="77.2950535945371" cy="-685.610385360451" r="2" style="fill: rgb(0,0,0)" />
	<circle cx="33.5" cy="-653.791416407769" r="2" style="fill: rgb(0,0,0)" />
	<circle cx="50.2282219339826" cy="-602.307243155321" r="2" style="fill: rgb(0,0,0)" />
	<circle cx="138.280216377057" cy="-305.385476414304" r="2" style="fill: rgb(0,0,0)" />
	<circle cx="104.361885254989" cy="-260.52074436686" r="2" style="fill: rgb(0,0,0)" />
	<circle cx="121.09010718893" cy="-209.036571114417" r="2" style="fill: rgb(0,0,0)" />
	<circle cx="540.79150331092" cy="-258.304825171622" r="2" style="fill: rgb(0,0,0)" />
	<circle cx="492.592927706631" cy="-142.461650843169" r="2" style="fill: rgb(0,0,0)" />
	<circle cx="536.387981301158" cy="-174.280619795867" r="2" style="fill: rgb(0,0,0)" />
	<circle cx="454.456382750105" cy="-120.443506346564" r="2" style="fill: rgb(0,0,0)" />
	<circle cx="270.502997357078" cy="-90.9774775907179" r="2" style="fill: rgb(0,0,0)" />
	<circle cx="314.298050951593" cy="-59.1585086380168" r="2" style="fill: rgb(0,0,0)" />
	<circle cx="377.935988857023" cy="-59.1585086380188" r="2" style="fill: rgb(0,0,0)" />
	<circle cx="421.731042451546" cy="-90.9774775907251" r="2" style="fill: rgb(0,0,0)" />
	<circle cx="237.777657058536" cy="-120.443506346556" r="2" style="fill: rgb(0,0,0)" />
	<circle cx="61.2979352299176" cy="-453.432138257682" r="2" style="fill: rgb(0,0,0)" />
	<circle cx="423.485074392767" cy="-672.540208962736" r="2" style="fill: rgb(0,0,0)" />
	<circle cx="145.507448780992" cy="-738.07798543083" r="2" style="fill: rgb(0,0,0)" />
	<circle cx="98.6263211450135" cy="-711.011153770304" r="2" style="fill: rgb(0,0,0)" />
	<circle cx="368.13516440091" cy="-53.5" r="2" style="fill: rgb(0,0,0)" />
	<!-- 
	Generated using the Perl SVG Module V2.64
	by Ronan Oger
	Info: http://www.roitsystems.com/
 -->
</svg>