<?xml version="1.0" encoding="UTF-8" standalone="yes"?>
<!DOCTYPE svg PUBLIC "-//W3C//DTD SVG 1.0//EN" "http://www.w3.org/TR/2001/REC-SVG-20010904/DTD/svg10.dtd">
<!-- generated using polymake; Michael Joswig, Georg Loho, Benjamin Lorenz, Rico Raber; license CC BY-NC-ND 3.0; see polymake.org and matchthenet.de -->
<svg height="841pt" id="document" viewBox="0 -811 398.667145158639 811" width="595pt" xmlns="http://www.w3.org/2000/svg" xmlns:svg="http://www.w3.org/2000/svg" xmlns:xlink="http://www.w3.org/1999/xlink">
	<title id="document_title">planar_net_</title>
	<polygon points="141.757549450301,-391.902020253558 210.833572579315,-391.902020253558 279.909595708332,-561.103030380334 210.833572579317,-561.103030380333 " style="fill: rgb(67,184,206); fill-opacity: 1; stroke: rgb(0,0,0); stroke-width: 3" />
	<polygon points="279.909595708331,-222.701010126782 210.833572579315,-391.902020253558 141.757549450301,-391.902020253558 210.833572579316,-222.701010126782 " style="fill: rgb(67,184,206); fill-opacity: 1; stroke: rgb(0,0,0); stroke-width: 3" />
	<polygon points="210.833572579317,-561.103030380333 279.909595708332,-561.103030380334 210.833572579319,-730.304040507113 141.757549450305,-730.304040507113 " style="fill: rgb(67,184,206); fill-opacity: 1; stroke: rgb(0,0,0); stroke-width: 3" />
	<polygon points="141.757549450304,-53.5 210.833572579318,-53.5000000000019 279.909595708331,-222.701010126782 210.833572579316,-222.701010126782 " style="fill: rgb(67,184,206); fill-opacity: 1; stroke: rgb(0,0,0); stroke-width: 3" />
	<polygon points="141.757549450301,-391.902020253558 33.5000000000015,-178.505050633892 210.833572579316,-222.701010126782 " style="fill: rgb(14,173,105); fill-opacity: 1; stroke: rgb(0,0,0); stroke-width: 3" />
	<polygon points="279.909595708332,-561.103030380334 388.167145158639,-774.5 210.833572579319,-730.304040507113 " style="fill: rgb(14,173,105); fill-opacity: 1; stroke: rgb(0,0,0); stroke-width: 3" />
	<polygon points="141.757549450301,-391.902020253558 210.833572579317,-561.103030380333 33.5,-605.298989873234 " style="fill: rgb(14,173,105); fill-opacity: 1; stroke: rgb(0,0,0); stroke-width: 3" />
	<polygon points="279.909595708332,-561.103030380334 210.833572579315,-391.902020253558 388.167145158639,-347.706060760666 " style="fill: rgb(14,173,105); fill-opacity: 1; stroke: rgb(0,0,0); stroke-width: 3" />
	<circle cx="141.757549450301" cy="-391.902020253558" r="2" style="fill: rgb(0,0,0)" />
	<circle cx="210.833572579315" cy="-391.902020253558" r="2" style="fill: rgb(0,0,0)" />
	<circle cx="279.909595708332" cy="-561.103030380334" r="2" style="fill: rgb(0,0,0)" />
	<circle cx="210.833572579317" cy="-561.103030380333" r="2" style="fill: rgb(0,0,0)" />
	<circle cx="210.833572579316" cy="-222.701010126782" r="2" style="fill: rgb(0,0,0)" />
	<circle cx="279.909595708331" cy="-222.701010126782" r="2" style="fill: rgb(0,0,0)" />
	<circle cx="210.833572579319" cy="-730.304040507113" r="2" style="fill: rgb(0,0,0)" />
	<circle cx="141.757549450305" cy="-730.304040507113" r="2" style="fill: rgb(0,0,0)" />
	<circle cx="33.5" cy="-605.298989873234" r="2" style="fill: rgb(0,0,0)" />
	<circle cx="388.167145158639" cy="-347.706060760666" r="2" style="fill: rgb(0,0,0)" />
	<circle cx="141.757549450304" cy="-53.5" r="2" style="fill: rgb(0,0,0)" />
	<circle cx="210.833572579318" cy="-53.5000000000019" r="2" style="fill: rgb(0,0,0)" />
	<circle cx="33.5000000000015" cy="-178.505050633892" r="2" style="fill: rgb(0,0,0)" />
	<circle cx="388.167145158639" cy="-774.5" r="2" style="fill: rgb(0,0,0)" />
	<!--
	Generated using the Perl SVG Module V2.86
	by Ronan Oger
	Info: http://www.roitsystems.com/
	-->
</svg>