<?xml version="1.0" encoding="UTF-8" standalone="yes"?>
<!DOCTYPE svg PUBLIC "-//W3C//DTD SVG 1.0//EN" "http://www.w3.org/TR/2001/REC-SVG-20010904/DTD/svg10.dtd">
<!-- generated using polymake; Michael Joswig, Georg Loho, Benjamin Lorenz, Rico Raber; license CC BY-NC-ND 3.0; see polymake.org and matchthenet.de -->
<svg height="841pt" id="document" viewBox="0 -537.808874437173 572 537.808874437173" width="595pt" xmlns="http://www.w3.org/2000/svg" xmlns:svg="http://www.w3.org/2000/svg" xmlns:xlink="http://www.w3.org/1999/xlink">
	<title id="document_title">planar_net_</title>
	<polygon points="264.643543096593,-270.943710685474 326.369702688117,-270.943710685474 326.36970268812,-332.669870277001 264.643543096601,-332.669870277007 " style="fill: rgb(14,173,105); fill-opacity: 1; stroke: rgb(0,0,0); stroke-width: 3" />
	<polygon points="295.506622892353,-217.487288401158 326.369702688117,-270.943710685474 264.643543096593,-270.943710685474 " style="fill: rgb(14,173,105); fill-opacity: 1; stroke: rgb(0,0,0); stroke-width: 3" />
	<polygon points="264.643543096593,-270.943710685474 211.187120812275,-240.080630889714 242.050200608025,-186.624208605401 295.506622892353,-217.487288401158 " style="fill: rgb(14,173,105); fill-opacity: 1; stroke: rgb(0,0,0); stroke-width: 3" />
	<polygon points="264.643543096601,-332.669870277007 326.36970268812,-332.669870277001 295.506622892358,-386.126292561314 " style="fill: rgb(14,173,105); fill-opacity: 1; stroke: rgb(0,0,0); stroke-width: 3" />
	<polygon points="264.643543096593,-270.943710685474 264.643543096601,-332.669870277007 205.938476791208,-351.744302588297 169.65675050265,-301.806790481253 205.938476791194,-251.869278374199 " style="fill: rgb(14,173,105); fill-opacity: 1; stroke: rgb(0,0,0); stroke-width: 3" />
	<polygon points="242.050200608016,-124.898049013868 242.050200608025,-186.624208605401 180.324041016499,-186.624208605407 180.324041016496,-124.898049013878 " style="fill: rgb(14,173,105); fill-opacity: 1; stroke: rgb(0,0,0); stroke-width: 3" />
	<polygon points="295.506622892358,-386.126292561314 326.369702688126,-439.582714845628 272.913280403821,-470.445794641395 242.050200608044,-416.98937235708 " style="fill: rgb(14,173,105); fill-opacity: 1; stroke: rgb(0,0,0); stroke-width: 3" />
	<polygon points="326.369702688126,-439.582714845628 326.369702688125,-501.308874437157 272.913280403821,-470.445794641395 " style="fill: rgb(14,173,105); fill-opacity: 1; stroke: rgb(0,0,0); stroke-width: 3" />
	<polygon points="205.938476791194,-251.869278374199 169.65675050265,-301.806790481253 119.719238395591,-265.525064192713 156.000964684134,-215.58755208566 " style="fill: rgb(14,173,105); fill-opacity: 1; stroke: rgb(0,0,0); stroke-width: 3" />
	<polygon points="156.000964684134,-215.58755208566 119.719238395591,-265.525064192713 69.7817262885364,-229.243337904172 106.063452577073,-179.305825797121 " style="fill: rgb(14,173,105); fill-opacity: 1; stroke: rgb(0,0,0); stroke-width: 3" />
	<polygon points="242.050200608044,-416.98937235708 272.913280403821,-470.445794641395 219.456858119512,-501.308874437173 188.593778323734,-447.852452152864 " style="fill: rgb(14,173,105); fill-opacity: 1; stroke: rgb(0,0,0); stroke-width: 3" />
	<polygon points="169.65675050265,-301.806790481253 205.938476791208,-351.744302588297 156.000964684163,-388.026028876859 119.719238395611,-338.088516769818 " style="fill: rgb(14,173,105); fill-opacity: 1; stroke: rgb(0,0,0); stroke-width: 3" />
	<polygon points="169.65675050265,-301.806790481253 113.267097790096,-326.91308142349 119.719238395591,-265.525064192713 " style="fill: rgb(14,173,105); fill-opacity: 1; stroke: rgb(0,0,0); stroke-width: 3" />
	<polygon points="119.719238395611,-338.088516769818 156.000964684163,-388.026028876859 106.06345257712,-424.307755165417 69.7817262885674,-374.370243058382 " style="fill: rgb(14,173,105); fill-opacity: 1; stroke: rgb(0,0,0); stroke-width: 3" />
	<polygon points="83.437512107051,-315.462576299768 33.5,-279.180850011236 69.7817262885364,-229.243337904172 119.719238395591,-265.525064192713 " style="fill: rgb(14,173,105); fill-opacity: 1; stroke: rgb(0,0,0); stroke-width: 3" />
	<polygon points="69.7817262885674,-374.370243058382 106.06345257712,-424.307755165417 44.6754353463471,-430.759895770933 " style="fill: rgb(14,173,105); fill-opacity: 1; stroke: rgb(0,0,0); stroke-width: 3" />
	<polygon points="211.187120812284,-363.532950072778 242.050200608044,-416.98937235708 180.32404101652,-416.989372357084 " style="fill: rgb(14,173,105); fill-opacity: 1; stroke: rgb(0,0,0); stroke-width: 3" />
	<polygon points="106.063452577073,-179.305825797121 69.7817262885364,-229.243337904172 44.6754353463101,-172.853685191611 " style="fill: rgb(14,173,105); fill-opacity: 1; stroke: rgb(0,0,0); stroke-width: 3" />
	<polygon points="500.111982769216,-134.995943654778 443.722330056657,-109.889652712579 468.82862099887,-53.5 525.218273711409,-78.606290942205 " style="fill: rgb(14,173,105); fill-opacity: 1; stroke: rgb(0,0,0); stroke-width: 3" />
	<polygon points="493.659842163704,-196.383960885544 500.111982769216,-134.995943654778 561.5,-141.448084260282 555.047859394475,-202.836101491052 " style="fill: rgb(14,173,105); fill-opacity: 1; stroke: rgb(0,0,0); stroke-width: 3" />
	<polygon points="264.643543096601,-332.669870277007 295.506622892358,-386.126292561314 242.050200608044,-416.98937235708 211.187120812284,-363.532950072778 " style="fill: rgb(14,173,105); fill-opacity: 1; stroke: rgb(0,0,0); stroke-width: 3" />
	<polygon points="211.187120812275,-240.080630889714 180.324041016499,-186.624208605407 242.050200608025,-186.624208605401 " style="fill: rgb(14,173,105); fill-opacity: 1; stroke: rgb(0,0,0); stroke-width: 3" />
	<polygon points="242.050200608016,-124.898049013868 180.324041016496,-124.898049013878 180.324041016492,-63.1718894223478 242.050200608008,-63.1718894223342 " style="fill: rgb(14,173,105); fill-opacity: 1; stroke: rgb(0,0,0); stroke-width: 3" />
	<polygon points="433.282547256747,-209.217551093922 402.419467460981,-155.76112880962 443.722330056657,-109.889652712579 500.111982769216,-134.995943654778 493.659842163704,-196.383960885544 " style="fill: rgb(14,173,105); fill-opacity: 1; stroke: rgb(0,0,0); stroke-width: 3" />
	<polygon points="379.826124972437,-363.532950072764 433.282547256758,-394.396029868523 402.41946746101,-447.852452152829 348.963045176683,-416.989372357073 " style="fill: rgb(14,173,105); fill-opacity: 1; stroke: rgb(0,0,0); stroke-width: 3" />
	<polygon points="326.36970268812,-332.669870277001 379.826124972437,-363.532950072764 348.963045176683,-416.989372357073 295.506622892358,-386.126292561314 " style="fill: rgb(14,173,105); fill-opacity: 1; stroke: rgb(0,0,0); stroke-width: 3" />
	<polygon points="326.369702688101,-164.030866116827 272.913280403776,-133.167786321078 326.369702688087,-102.304706525305 " style="fill: rgb(14,173,105); fill-opacity: 1; stroke: rgb(0,0,0); stroke-width: 3" />
	<polygon points="326.369702688101,-164.030866116827 295.506622892353,-217.487288401158 242.050200608025,-186.624208605401 272.913280403776,-133.167786321078 " style="fill: rgb(14,173,105); fill-opacity: 1; stroke: rgb(0,0,0); stroke-width: 3" />
	<polygon points="388.095862279653,-332.66987027699 388.095862279645,-270.943710685469 441.552284563962,-301.806790481234 " style="fill: rgb(14,173,105); fill-opacity: 1; stroke: rgb(0,0,0); stroke-width: 3" />
	<polygon points="379.826124972433,-240.0806308897 348.963045176668,-186.624208605392 402.419467460981,-155.76112880962 433.282547256747,-209.217551093922 " style="fill: rgb(14,173,105); fill-opacity: 1; stroke: rgb(0,0,0); stroke-width: 3" />
	<polygon points="326.36970268812,-332.669870277001 326.369702688117,-270.943710685474 388.095862279645,-270.943710685469 388.095862279653,-332.66987027699 " style="fill: rgb(14,173,105); fill-opacity: 1; stroke: rgb(0,0,0); stroke-width: 3" />
	<polygon points="379.826124972433,-240.0806308897 326.369702688117,-270.943710685474 295.506622892353,-217.487288401158 348.963045176668,-186.624208605392 " style="fill: rgb(14,173,105); fill-opacity: 1; stroke: rgb(0,0,0); stroke-width: 3" />
	<circle cx="264.643543096593" cy="-270.943710685474" r="2" style="fill: rgb(0,0,0)" />
	<circle cx="326.369702688117" cy="-270.943710685474" r="2" style="fill: rgb(0,0,0)" />
	<circle cx="326.36970268812" cy="-332.669870277001" r="2" style="fill: rgb(0,0,0)" />
	<circle cx="264.643543096601" cy="-332.669870277007" r="2" style="fill: rgb(0,0,0)" />
	<circle cx="295.506622892353" cy="-217.487288401158" r="2" style="fill: rgb(0,0,0)" />
	<circle cx="295.506622892358" cy="-386.126292561314" r="2" style="fill: rgb(0,0,0)" />
	<circle cx="205.938476791208" cy="-351.744302588297" r="2" style="fill: rgb(0,0,0)" />
	<circle cx="169.65675050265" cy="-301.806790481253" r="2" style="fill: rgb(0,0,0)" />
	<circle cx="205.938476791194" cy="-251.869278374199" r="2" style="fill: rgb(0,0,0)" />
	<circle cx="388.095862279645" cy="-270.943710685469" r="2" style="fill: rgb(0,0,0)" />
	<circle cx="388.095862279653" cy="-332.66987027699" r="2" style="fill: rgb(0,0,0)" />
	<circle cx="211.187120812275" cy="-240.080630889714" r="2" style="fill: rgb(0,0,0)" />
	<circle cx="242.050200608025" cy="-186.624208605401" r="2" style="fill: rgb(0,0,0)" />
	<circle cx="348.963045176668" cy="-186.624208605392" r="2" style="fill: rgb(0,0,0)" />
	<circle cx="379.826124972433" cy="-240.0806308897" r="2" style="fill: rgb(0,0,0)" />
	<circle cx="242.050200608044" cy="-416.98937235708" r="2" style="fill: rgb(0,0,0)" />
	<circle cx="211.187120812284" cy="-363.532950072778" r="2" style="fill: rgb(0,0,0)" />
	<circle cx="379.826124972437" cy="-363.532950072764" r="2" style="fill: rgb(0,0,0)" />
	<circle cx="348.963045176683" cy="-416.989372357073" r="2" style="fill: rgb(0,0,0)" />
	<circle cx="119.719238395591" cy="-265.525064192713" r="2" style="fill: rgb(0,0,0)" />
	<circle cx="156.000964684134" cy="-215.58755208566" r="2" style="fill: rgb(0,0,0)" />
	<circle cx="156.000964684163" cy="-388.026028876859" r="2" style="fill: rgb(0,0,0)" />
	<circle cx="119.719238395611" cy="-338.088516769818" r="2" style="fill: rgb(0,0,0)" />
	<circle cx="441.552284563962" cy="-301.806790481234" r="2" style="fill: rgb(0,0,0)" />
	<circle cx="180.324041016499" cy="-186.624208605407" r="2" style="fill: rgb(0,0,0)" />
	<circle cx="272.913280403776" cy="-133.167786321078" r="2" style="fill: rgb(0,0,0)" />
	<circle cx="326.369702688101" cy="-164.030866116827" r="2" style="fill: rgb(0,0,0)" />
	<circle cx="402.419467460981" cy="-155.76112880962" r="2" style="fill: rgb(0,0,0)" />
	<circle cx="433.282547256747" cy="-209.217551093922" r="2" style="fill: rgb(0,0,0)" />
	<circle cx="326.369702688126" cy="-439.582714845628" r="2" style="fill: rgb(0,0,0)" />
	<circle cx="272.913280403821" cy="-470.445794641395" r="2" style="fill: rgb(0,0,0)" />
	<circle cx="180.32404101652" cy="-416.989372357084" r="2" style="fill: rgb(0,0,0)" />
	<circle cx="433.282547256758" cy="-394.396029868523" r="2" style="fill: rgb(0,0,0)" />
	<circle cx="402.41946746101" cy="-447.852452152829" r="2" style="fill: rgb(0,0,0)" />
	<circle cx="69.7817262885364" cy="-229.243337904172" r="2" style="fill: rgb(0,0,0)" />
	<circle cx="106.063452577073" cy="-179.305825797121" r="2" style="fill: rgb(0,0,0)" />
	<circle cx="113.267097790096" cy="-326.91308142349" r="2" style="fill: rgb(0,0,0)" />
	<circle cx="106.06345257712" cy="-424.307755165417" r="2" style="fill: rgb(0,0,0)" />
	<circle cx="69.7817262885674" cy="-374.370243058382" r="2" style="fill: rgb(0,0,0)" />
	<circle cx="180.324041016496" cy="-124.898049013878" r="2" style="fill: rgb(0,0,0)" />
	<circle cx="242.050200608016" cy="-124.898049013868" r="2" style="fill: rgb(0,0,0)" />
	<circle cx="326.369702688087" cy="-102.304706525305" r="2" style="fill: rgb(0,0,0)" />
	<circle cx="443.722330056657" cy="-109.889652712579" r="2" style="fill: rgb(0,0,0)" />
	<circle cx="500.111982769216" cy="-134.995943654778" r="2" style="fill: rgb(0,0,0)" />
	<circle cx="493.659842163704" cy="-196.383960885544" r="2" style="fill: rgb(0,0,0)" />
	<circle cx="326.369702688125" cy="-501.308874437157" r="2" style="fill: rgb(0,0,0)" />
	<circle cx="219.456858119512" cy="-501.308874437173" r="2" style="fill: rgb(0,0,0)" />
	<circle cx="188.593778323734" cy="-447.852452152864" r="2" style="fill: rgb(0,0,0)" />
	<circle cx="83.437512107051" cy="-315.462576299768" r="2" style="fill: rgb(0,0,0)" />
	<circle cx="33.5" cy="-279.180850011236" r="2" style="fill: rgb(0,0,0)" />
	<circle cx="44.6754353463101" cy="-172.853685191611" r="2" style="fill: rgb(0,0,0)" />
	<circle cx="44.6754353463471" cy="-430.759895770933" r="2" style="fill: rgb(0,0,0)" />
	<circle cx="180.324041016492" cy="-63.1718894223478" r="2" style="fill: rgb(0,0,0)" />
	<circle cx="242.050200608008" cy="-63.1718894223342" r="2" style="fill: rgb(0,0,0)" />
	<circle cx="468.82862099887" cy="-53.5" r="2" style="fill: rgb(0,0,0)" />
	<circle cx="525.218273711409" cy="-78.606290942205" r="2" style="fill: rgb(0,0,0)" />
	<circle cx="561.5" cy="-141.448084260282" r="2" style="fill: rgb(0,0,0)" />
	<circle cx="555.047859394475" cy="-202.836101491052" r="2" style="fill: rgb(0,0,0)" />
	<!--
	Generated using the Perl SVG Module V2.87
	by Ronan Oger

	-->
</svg>