<?xml version="1.0" encoding="UTF-8" standalone="yes"?>
<!DOCTYPE svg PUBLIC "-//W3C//DTD SVG 1.0//EN" "http://www.w3.org/TR/2001/REC-SVG-20010904/DTD/svg10.dtd">
<!-- generated using polymake; Michael Joswig, Georg Loho, Benjamin Lorenz, Rico Raber; license CC BY-NC-ND 3.0; see polymake.org and matchthenet.de -->
<svg height="841pt" id="document" viewBox="0 -701.778883053678 572 701.778883053678" width="595pt" xmlns="http://www.w3.org/2000/svg" xmlns:svg="http://www.w3.org/2000/svg" xmlns:xlink="http://www.w3.org/1999/xlink">
	<title id="document_title">planar_net_</title>
	<polygon points="310.06940124874,-356.656743935605 408.159530628043,-356.656743935605 289.754270286818,-428.93081457525 272.414221373927,-418.34652198205 " style="fill: rgb(14,173,105); fill-opacity: 1; stroke: rgb(0,0,0); stroke-width: 3" />
	<polygon points="310.06940124874,-356.656743935605 272.414221373928,-294.96696588916 289.754270286821,-284.382673295962 408.159530628043,-356.656743935605 " style="fill: rgb(14,173,105); fill-opacity: 1; stroke: rgb(0,0,0); stroke-width: 3" />
	<polygon points="272.414221373928,-294.96696588916 234.759041499114,-233.277187842713 279.59670480585,-146.034667069633 289.754270286821,-284.382673295962 " style="fill: rgb(14,173,105); fill-opacity: 1; stroke: rgb(0,0,0); stroke-width: 3" />
	<polygon points="234.759041499114,-233.277187842713 162.67898548915,-238.569334139321 161.191444464635,-218.308737709296 279.59670480585,-146.034667069633 " style="fill: rgb(14,173,105); fill-opacity: 1; stroke: rgb(0,0,0); stroke-width: 3" />
	<polygon points="90.598929479184,-243.861480435925 33.5000000000023,-164.103184729572 161.191444464635,-218.308737709296 162.67898548915,-238.569334139321 " style="fill: rgb(14,173,105); fill-opacity: 1; stroke: rgb(0,0,0); stroke-width: 3" />
	<polygon points="162.678985489147,-474.744153731878 161.191444464628,-495.004750161901 33.5,-549.210303141596 90.5989294791848,-469.452007435258 " style="fill: rgb(14,173,105); fill-opacity: 1; stroke: rgb(0,0,0); stroke-width: 3" />
	<polygon points="234.75904149911,-480.036300028493 279.596704805842,-567.278820801567 161.191444464628,-495.004750161901 162.678985489147,-474.744153731878 " style="fill: rgb(14,173,105); fill-opacity: 1; stroke: rgb(0,0,0); stroke-width: 3" />
	<polygon points="272.414221373927,-418.34652198205 289.754270286818,-428.93081457525 279.596704805842,-567.278820801567 234.75904149911,-480.036300028493 " style="fill: rgb(14,173,105); fill-opacity: 1; stroke: rgb(0,0,0); stroke-width: 3" />
	<polygon points="418.317096109004,-495.004750161921 408.159530628043,-356.656743935605 465.258460107204,-436.415039641965 437.017075201092,-502.942969606818 " style="fill: rgb(14,173,105); fill-opacity: 1; stroke: rgb(0,0,0); stroke-width: 3" />
	<polygon points="465.258460107201,-276.898448229248 408.159530628043,-356.656743935605 418.317096109003,-218.308737709286 437.017075201093,-210.370518264387 " style="fill: rgb(14,173,105); fill-opacity: 1; stroke: rgb(0,0,0); stroke-width: 3" />
	<polygon points="435.657145021894,-207.724445116091 418.317096109003,-218.308737709286 299.91183576778,-146.034667069643 398.001965147087,-146.034667069644 " style="fill: rgb(14,173,105); fill-opacity: 1; stroke: rgb(0,0,0); stroke-width: 3" />
	<polygon points="398.001965147087,-146.034667069644 299.91183576778,-146.034667069643 418.317096109005,-73.7605964300013 435.657145021896,-84.3448890232028 " style="fill: rgb(14,173,105); fill-opacity: 1; stroke: rgb(0,0,0); stroke-width: 3" />
	<polygon points="87.623847430145,-58.792146296592 159.703903440109,-53.5 161.19144446462,-73.7605964300212 42.7861841233974,-146.034667069665 " style="fill: rgb(14,173,105); fill-opacity: 1; stroke: rgb(0,0,0); stroke-width: 3" />
	<polygon points="161.191444464619,-639.55289144121 159.703903440099,-659.813487871237 87.6238474301265,-654.521341574613 42.786184123392,-567.278820801529 " style="fill: rgb(14,173,105); fill-opacity: 1; stroke: rgb(0,0,0); stroke-width: 3" />
	<polygon points="299.911835767782,-567.278820801564 398.001965147085,-567.278820801564 435.657145021898,-628.968598848011 418.317096109005,-639.552891441209 " style="fill: rgb(14,173,105); fill-opacity: 1; stroke: rgb(0,0,0); stroke-width: 3" />
	<polygon points="299.911835767782,-567.278820801564 418.317096109004,-495.004750161921 435.657145021898,-505.58904275512 398.001965147085,-567.278820801564 " style="fill: rgb(14,173,105); fill-opacity: 1; stroke: rgb(0,0,0); stroke-width: 3" />
	<polygon points="408.159530628043,-356.656743935605 289.754270286821,-284.382673295962 299.91183576778,-146.034667069643 " style="fill: rgb(14,173,105); fill-opacity: 1; stroke: rgb(0,0,0); stroke-width: 3" />
	<polygon points="408.159530628043,-356.656743935605 299.91183576778,-146.034667069643 418.317096109003,-218.308737709286 " style="fill: rgb(14,173,105); fill-opacity: 1; stroke: rgb(0,0,0); stroke-width: 3" />
	<polygon points="289.754270286818,-428.93081457525 408.159530628043,-356.656743935605 299.911835767782,-567.278820801564 " style="fill: rgb(14,173,105); fill-opacity: 1; stroke: rgb(0,0,0); stroke-width: 3" />
	<polygon points="299.911835767782,-567.278820801564 408.159530628043,-356.656743935605 418.317096109004,-495.004750161921 " style="fill: rgb(14,173,105); fill-opacity: 1; stroke: rgb(0,0,0); stroke-width: 3" />
	<polygon points="161.191444464628,-495.004750161901 279.596704805842,-567.278820801567 42.786184123392,-567.278820801529 " style="fill: rgb(14,173,105); fill-opacity: 1; stroke: rgb(0,0,0); stroke-width: 3" />
	<polygon points="42.786184123392,-567.278820801529 279.596704805842,-567.278820801567 161.191444464619,-639.55289144121 " style="fill: rgb(14,173,105); fill-opacity: 1; stroke: rgb(0,0,0); stroke-width: 3" />
	<polygon points="279.59670480585,-146.034667069633 161.191444464635,-218.308737709296 42.7861841233974,-146.034667069665 " style="fill: rgb(14,173,105); fill-opacity: 1; stroke: rgb(0,0,0); stroke-width: 3" />
	<polygon points="279.59670480585,-146.034667069633 42.7861841233974,-146.034667069665 161.19144446462,-73.7605964300212 " style="fill: rgb(14,173,105); fill-opacity: 1; stroke: rgb(0,0,0); stroke-width: 3" />
	<polygon points="437.017075201092,-502.942969606818 465.258460107204,-436.415039641965 537.433237252879,-440.202232639023 520.667424640046,-525.096745190073 " style="fill: rgb(14,173,105); fill-opacity: 1; stroke: rgb(0,0,0); stroke-width: 3" />
	<polygon points="502.364089226251,-152.603175820391 435.657145021894,-207.724445116091 398.001965147087,-146.034667069644 443.09480575562,-89.5530150693828 " style="fill: rgb(14,173,105); fill-opacity: 1; stroke: rgb(0,0,0); stroke-width: 3" />
	<polygon points="398.001965147085,-567.278820801564 435.657145021898,-505.58904275512 502.364089226254,-560.710312050819 443.094805755624,-623.760472801825 " style="fill: rgb(14,173,105); fill-opacity: 1; stroke: rgb(0,0,0); stroke-width: 3" />
	<polygon points="443.094805755624,-623.760472801825 502.364089226254,-560.710312050819 561.5,-623.885582456362 502.253599666454,-665.278883053678 " style="fill: rgb(14,173,105); fill-opacity: 1; stroke: rgb(0,0,0); stroke-width: 3" />
	<polygon points="192.896516224784,-384.212883124376 163.911349211876,-465.748340608126 99.9424984052314,-432.110156749572 109.676257989174,-360.494549433949 " style="fill: rgb(14,173,105); fill-opacity: 1; stroke: rgb(0,0,0); stroke-width: 3" />
	<polygon points="272.414221373927,-418.34652198205 234.75904149911,-480.036300028493 163.911349211876,-465.748340608126 192.896516224784,-384.212883124376 " style="fill: rgb(14,173,105); fill-opacity: 1; stroke: rgb(0,0,0); stroke-width: 3" />
	<polygon points="264.976560640203,-300.175091935346 205.707277169572,-363.225252686356 146.571366395828,-300.049982280825 205.817766729372,-258.656681683496 " style="fill: rgb(14,173,105); fill-opacity: 1; stroke: rgb(0,0,0); stroke-width: 3" />
	<polygon points="310.06940124874,-356.656743935605 272.414221373927,-418.34652198205 205.707277169572,-363.225252686356 264.976560640203,-300.175091935346 " style="fill: rgb(14,173,105); fill-opacity: 1; stroke: rgb(0,0,0); stroke-width: 3" />
	<circle cx="310.06940124874" cy="-356.656743935605" r="2" style="fill: rgb(0,0,0)" />
	<circle cx="408.159530628043" cy="-356.656743935605" r="2" style="fill: rgb(0,0,0)" />
	<circle cx="289.754270286818" cy="-428.93081457525" r="2" style="fill: rgb(0,0,0)" />
	<circle cx="272.414221373927" cy="-418.34652198205" r="2" style="fill: rgb(0,0,0)" />
	<circle cx="272.414221373928" cy="-294.96696588916" r="2" style="fill: rgb(0,0,0)" />
	<circle cx="289.754270286821" cy="-284.382673295962" r="2" style="fill: rgb(0,0,0)" />
	<circle cx="279.596704805842" cy="-567.278820801567" r="2" style="fill: rgb(0,0,0)" />
	<circle cx="234.75904149911" cy="-480.036300028493" r="2" style="fill: rgb(0,0,0)" />
	<circle cx="299.911835767782" cy="-567.278820801564" r="2" style="fill: rgb(0,0,0)" />
	<circle cx="205.707277169572" cy="-363.225252686356" r="2" style="fill: rgb(0,0,0)" />
	<circle cx="264.976560640203" cy="-300.175091935346" r="2" style="fill: rgb(0,0,0)" />
	<circle cx="234.759041499114" cy="-233.277187842713" r="2" style="fill: rgb(0,0,0)" />
	<circle cx="279.59670480585" cy="-146.034667069633" r="2" style="fill: rgb(0,0,0)" />
	<circle cx="299.91183576778" cy="-146.034667069643" r="2" style="fill: rgb(0,0,0)" />
	<circle cx="161.191444464628" cy="-495.004750161901" r="2" style="fill: rgb(0,0,0)" />
	<circle cx="162.678985489147" cy="-474.744153731878" r="2" style="fill: rgb(0,0,0)" />
	<circle cx="163.911349211876" cy="-465.748340608126" r="2" style="fill: rgb(0,0,0)" />
	<circle cx="192.896516224784" cy="-384.212883124376" r="2" style="fill: rgb(0,0,0)" />
	<circle cx="418.317096109004" cy="-495.004750161921" r="2" style="fill: rgb(0,0,0)" />
	<circle cx="146.571366395828" cy="-300.049982280825" r="2" style="fill: rgb(0,0,0)" />
	<circle cx="205.817766729372" cy="-258.656681683496" r="2" style="fill: rgb(0,0,0)" />
	<circle cx="162.67898548915" cy="-238.569334139321" r="2" style="fill: rgb(0,0,0)" />
	<circle cx="161.191444464635" cy="-218.308737709296" r="2" style="fill: rgb(0,0,0)" />
	<circle cx="418.317096109003" cy="-218.308737709286" r="2" style="fill: rgb(0,0,0)" />
	<circle cx="33.5" cy="-549.210303141596" r="2" style="fill: rgb(0,0,0)" />
	<circle cx="90.5989294791848" cy="-469.452007435258" r="2" style="fill: rgb(0,0,0)" />
	<circle cx="42.786184123392" cy="-567.278820801529" r="2" style="fill: rgb(0,0,0)" />
	<circle cx="99.9424984052314" cy="-432.110156749572" r="2" style="fill: rgb(0,0,0)" />
	<circle cx="109.676257989174" cy="-360.494549433949" r="2" style="fill: rgb(0,0,0)" />
	<circle cx="465.258460107204" cy="-436.415039641965" r="2" style="fill: rgb(0,0,0)" />
	<circle cx="437.017075201092" cy="-502.942969606818" r="2" style="fill: rgb(0,0,0)" />
	<circle cx="435.657145021898" cy="-505.58904275512" r="2" style="fill: rgb(0,0,0)" />
	<circle cx="398.001965147085" cy="-567.278820801564" r="2" style="fill: rgb(0,0,0)" />
	<circle cx="90.598929479184" cy="-243.861480435925" r="2" style="fill: rgb(0,0,0)" />
	<circle cx="33.5000000000023" cy="-164.103184729572" r="2" style="fill: rgb(0,0,0)" />
	<circle cx="42.7861841233974" cy="-146.034667069665" r="2" style="fill: rgb(0,0,0)" />
	<circle cx="437.017075201093" cy="-210.370518264387" r="2" style="fill: rgb(0,0,0)" />
	<circle cx="465.258460107201" cy="-276.898448229248" r="2" style="fill: rgb(0,0,0)" />
	<circle cx="398.001965147087" cy="-146.034667069644" r="2" style="fill: rgb(0,0,0)" />
	<circle cx="435.657145021894" cy="-207.724445116091" r="2" style="fill: rgb(0,0,0)" />
	<circle cx="161.191444464619" cy="-639.55289144121" r="2" style="fill: rgb(0,0,0)" />
	<circle cx="537.433237252879" cy="-440.202232639023" r="2" style="fill: rgb(0,0,0)" />
	<circle cx="520.667424640046" cy="-525.096745190073" r="2" style="fill: rgb(0,0,0)" />
	<circle cx="435.657145021898" cy="-628.968598848011" r="2" style="fill: rgb(0,0,0)" />
	<circle cx="418.317096109005" cy="-639.552891441209" r="2" style="fill: rgb(0,0,0)" />
	<circle cx="502.364089226254" cy="-560.710312050819" r="2" style="fill: rgb(0,0,0)" />
	<circle cx="443.094805755624" cy="-623.760472801825" r="2" style="fill: rgb(0,0,0)" />
	<circle cx="161.19144446462" cy="-73.7605964300212" r="2" style="fill: rgb(0,0,0)" />
	<circle cx="418.317096109005" cy="-73.7605964300013" r="2" style="fill: rgb(0,0,0)" />
	<circle cx="435.657145021896" cy="-84.3448890232028" r="2" style="fill: rgb(0,0,0)" />
	<circle cx="443.09480575562" cy="-89.5530150693828" r="2" style="fill: rgb(0,0,0)" />
	<circle cx="502.364089226251" cy="-152.603175820391" r="2" style="fill: rgb(0,0,0)" />
	<circle cx="159.703903440099" cy="-659.813487871237" r="2" style="fill: rgb(0,0,0)" />
	<circle cx="87.6238474301265" cy="-654.521341574613" r="2" style="fill: rgb(0,0,0)" />
	<circle cx="561.5" cy="-623.885582456362" r="2" style="fill: rgb(0,0,0)" />
	<circle cx="502.253599666454" cy="-665.278883053678" r="2" style="fill: rgb(0,0,0)" />
	<circle cx="87.623847430145" cy="-58.792146296592" r="2" style="fill: rgb(0,0,0)" />
	<circle cx="159.703903440109" cy="-53.5" r="2" style="fill: rgb(0,0,0)" />
	<!--
	Generated using the Perl SVG Module V2.86
	by Ronan Oger
	Info: http://www.roitsystems.com/
	-->
</svg>