<?xml version="1.0" encoding="UTF-8" standalone="yes"?>
<!DOCTYPE svg PUBLIC "-//W3C//DTD SVG 1.0//EN" "http://www.w3.org/TR/2001/REC-SVG-20010904/DTD/svg10.dtd">
<!-- generated using polymake; Michael Joswig, Georg Loho, Benjamin Lorenz, Rico Raber; license CC BY-NC-ND 3.0; see polymake.org and matchthenet.de -->
<svg height="841pt" id="document" viewBox="0 -768.501005191881 572 768.501005191881" width="595pt" xmlns="http://www.w3.org/2000/svg" xmlns:svg="http://www.w3.org/2000/svg" xmlns:xlink="http://www.w3.org/1999/xlink">
	<title id="document_title">planar_net_</title>
	<polygon points="253.958340500654,-345.744973115393 341.041659499318,-345.744973115393 367.951884996483,-428.566131109683 297.499999999994,-479.752421737781 227.048115003498,-428.566131109685 " style="fill: rgb(255,210,63); fill-opacity: 1; stroke: rgb(0,0,0); stroke-width: 3" />
	<polygon points="367.951884996474,-262.923815121102 341.041659499318,-345.744973115393 253.958340500654,-345.744973115393 227.048115003493,-262.923815121103 297.499999999982,-211.737524493005 " style="fill: rgb(255,210,63); fill-opacity: 1; stroke: rgb(0,0,0); stroke-width: 3" />
	<polygon points="156.596230006994,-211.737524493006 183.506455504145,-128.91636649872 270.589774502808,-128.916366498723 297.499999999982,-211.737524493005 227.048115003493,-262.923815121103 " style="fill: rgb(255,210,63); fill-opacity: 1; stroke: rgb(0,0,0); stroke-width: 3" />
	<polygon points="367.951884996483,-428.566131109683 341.041659499318,-345.744973115393 426.221999041801,-363.850613210436 " style="fill: rgb(14,173,105); fill-opacity: 1; stroke: rgb(0,0,0); stroke-width: 3" />
	<polygon points="426.221999041793,-327.639333020362 341.041659499318,-345.744973115393 367.951884996474,-262.923815121102 " style="fill: rgb(14,173,105); fill-opacity: 1; stroke: rgb(0,0,0); stroke-width: 3" />
	<polygon points="411.493544495808,-128.916366498708 438.403769992963,-211.737524493006 367.951884996474,-262.923815121102 297.499999999982,-211.737524493005 324.410225497149,-128.916366498709 " style="fill: rgb(255,210,63); fill-opacity: 1; stroke: rgb(0,0,0); stroke-width: 3" />
	<polygon points="426.221999041793,-327.639333020362 367.951884996474,-262.923815121102 453.13222453895,-244.81817502607 " style="fill: rgb(14,173,105); fill-opacity: 1; stroke: rgb(0,0,0); stroke-width: 3" />
	<polygon points="453.132224538967,-446.671771204728 426.221999041801,-363.850613210436 511.40233858429,-381.956253305463 " style="fill: rgb(14,173,105); fill-opacity: 1; stroke: rgb(0,0,0); stroke-width: 3" />
	<polygon points="411.493544495833,-562.573579732064 438.403769992984,-479.752421737777 525.487088991654,-479.75242173777 552.397314488829,-562.573579732046 481.945429492335,-613.759870360142 " style="fill: rgb(255,210,63); fill-opacity: 1; stroke: rgb(0,0,0); stroke-width: 3" />
	<polygon points="367.951884996506,-696.581028354456 438.403769992999,-645.394737726359 447.50645550417,-732.001005191881 " style="fill: rgb(14,173,105); fill-opacity: 1; stroke: rgb(0,0,0); stroke-width: 3" />
	<polygon points="481.945429492335,-613.759870360142 552.397314488829,-562.573579732046 561.5,-649.179847197567 " style="fill: rgb(14,173,105); fill-opacity: 1; stroke: rgb(0,0,0); stroke-width: 3" />
	<polygon points="411.493544495808,-128.916366498708 324.410225497149,-128.916366498709 367.951884996493,-53.5 " style="fill: rgb(14,173,105); fill-opacity: 1; stroke: rgb(0,0,0); stroke-width: 3" />
	<polygon points="42.6026855111693,-562.57357973211 113.054570507673,-613.759870360185 33.5,-649.179847197617 " style="fill: rgb(14,173,105); fill-opacity: 1; stroke: rgb(0,0,0); stroke-width: 3" />
	<polygon points="183.506455504145,-128.91636649872 227.048115003487,-53.5000000000102 270.589774502808,-128.916366498723 " style="fill: rgb(14,173,105); fill-opacity: 1; stroke: rgb(0,0,0); stroke-width: 3" />
	<polygon points="324.410225497167,-562.573579732065 411.493544495833,-562.573579732064 438.403769992999,-645.394737726359 367.951884996506,-696.581028354456 297.500000000007,-645.394737726354 " style="fill: rgb(255,210,63); fill-opacity: 1; stroke: rgb(0,0,0); stroke-width: 3" />
	<polygon points="367.951884996483,-428.566131109683 426.221999041801,-363.850613210436 453.132224538967,-446.671771204728 " style="fill: rgb(14,173,105); fill-opacity: 1; stroke: rgb(0,0,0); stroke-width: 3" />
	<polygon points="297.499999999994,-479.752421737781 367.951884996483,-428.566131109683 438.403769992984,-479.752421737777 411.493544495833,-562.573579732064 324.410225497167,-562.573579732065 " style="fill: rgb(255,210,63); fill-opacity: 1; stroke: rgb(0,0,0); stroke-width: 3" />
	<polygon points="156.596230007005,-479.752421737784 183.50645550417,-562.573579732077 113.054570507673,-613.759870360185 42.6026855111693,-562.57357973211 69.5129110083325,-479.752421737811 " style="fill: rgb(255,210,63); fill-opacity: 1; stroke: rgb(0,0,0); stroke-width: 3" />
	<polygon points="227.048115003498,-428.566131109685 297.499999999994,-479.752421737781 270.589774502834,-562.573579732074 183.50645550417,-562.573579732077 156.596230007005,-479.752421737784 " style="fill: rgb(255,210,63); fill-opacity: 1; stroke: rgb(0,0,0); stroke-width: 3" />
	<polygon points="156.596230007005,-479.752421737784 69.5129110083325,-479.752421737811 113.054570507673,-404.336055239107 " style="fill: rgb(14,173,105); fill-opacity: 1; stroke: rgb(0,0,0); stroke-width: 3" />
	<polygon points="227.048115003493,-262.923815121103 147.493544495814,-298.343791958511 156.596230006994,-211.737524493006 " style="fill: rgb(14,173,105); fill-opacity: 1; stroke: rgb(0,0,0); stroke-width: 3" />
	<polygon points="227.048115003498,-428.566131109685 156.596230007005,-479.752421737784 147.493544495833,-393.146154272268 " style="fill: rgb(14,173,105); fill-opacity: 1; stroke: rgb(0,0,0); stroke-width: 3" />
	<polygon points="253.958340500654,-345.744973115393 168.778000958171,-327.639333020347 227.048115003493,-262.923815121103 " style="fill: rgb(14,173,105); fill-opacity: 1; stroke: rgb(0,0,0); stroke-width: 3" />
	<polygon points="253.958340500654,-345.744973115393 227.048115003498,-428.566131109685 168.778000958178,-363.850613210424 " style="fill: rgb(14,173,105); fill-opacity: 1; stroke: rgb(0,0,0); stroke-width: 3" />
	<circle cx="253.958340500654" cy="-345.744973115393" r="2" style="fill: rgb(0,0,0)" />
	<circle cx="341.041659499318" cy="-345.744973115393" r="2" style="fill: rgb(0,0,0)" />
	<circle cx="367.951884996483" cy="-428.566131109683" r="2" style="fill: rgb(0,0,0)" />
	<circle cx="297.499999999994" cy="-479.752421737781" r="2" style="fill: rgb(0,0,0)" />
	<circle cx="227.048115003498" cy="-428.566131109685" r="2" style="fill: rgb(0,0,0)" />
	<circle cx="227.048115003493" cy="-262.923815121103" r="2" style="fill: rgb(0,0,0)" />
	<circle cx="297.499999999982" cy="-211.737524493005" r="2" style="fill: rgb(0,0,0)" />
	<circle cx="367.951884996474" cy="-262.923815121102" r="2" style="fill: rgb(0,0,0)" />
	<circle cx="426.221999041801" cy="-363.850613210436" r="2" style="fill: rgb(0,0,0)" />
	<circle cx="438.403769992984" cy="-479.752421737777" r="2" style="fill: rgb(0,0,0)" />
	<circle cx="411.493544495833" cy="-562.573579732064" r="2" style="fill: rgb(0,0,0)" />
	<circle cx="324.410225497167" cy="-562.573579732065" r="2" style="fill: rgb(0,0,0)" />
	<circle cx="270.589774502834" cy="-562.573579732074" r="2" style="fill: rgb(0,0,0)" />
	<circle cx="183.50645550417" cy="-562.573579732077" r="2" style="fill: rgb(0,0,0)" />
	<circle cx="156.596230007005" cy="-479.752421737784" r="2" style="fill: rgb(0,0,0)" />
	<circle cx="168.778000958178" cy="-363.850613210424" r="2" style="fill: rgb(0,0,0)" />
	<circle cx="156.596230006994" cy="-211.737524493006" r="2" style="fill: rgb(0,0,0)" />
	<circle cx="183.506455504145" cy="-128.91636649872" r="2" style="fill: rgb(0,0,0)" />
	<circle cx="270.589774502808" cy="-128.916366498723" r="2" style="fill: rgb(0,0,0)" />
	<circle cx="426.221999041793" cy="-327.639333020362" r="2" style="fill: rgb(0,0,0)" />
	<circle cx="324.410225497149" cy="-128.916366498709" r="2" style="fill: rgb(0,0,0)" />
	<circle cx="411.493544495808" cy="-128.916366498708" r="2" style="fill: rgb(0,0,0)" />
	<circle cx="438.403769992963" cy="-211.737524493006" r="2" style="fill: rgb(0,0,0)" />
	<circle cx="168.778000958171" cy="-327.639333020347" r="2" style="fill: rgb(0,0,0)" />
	<circle cx="453.132224538967" cy="-446.671771204728" r="2" style="fill: rgb(0,0,0)" />
	<circle cx="525.487088991654" cy="-479.75242173777" r="2" style="fill: rgb(0,0,0)" />
	<circle cx="552.397314488829" cy="-562.573579732046" r="2" style="fill: rgb(0,0,0)" />
	<circle cx="481.945429492335" cy="-613.759870360142" r="2" style="fill: rgb(0,0,0)" />
	<circle cx="438.403769992999" cy="-645.394737726359" r="2" style="fill: rgb(0,0,0)" />
	<circle cx="367.951884996506" cy="-696.581028354456" r="2" style="fill: rgb(0,0,0)" />
	<circle cx="297.500000000007" cy="-645.394737726354" r="2" style="fill: rgb(0,0,0)" />
	<circle cx="113.054570507673" cy="-613.759870360185" r="2" style="fill: rgb(0,0,0)" />
	<circle cx="42.6026855111693" cy="-562.57357973211" r="2" style="fill: rgb(0,0,0)" />
	<circle cx="69.5129110083325" cy="-479.752421737811" r="2" style="fill: rgb(0,0,0)" />
	<circle cx="147.493544495833" cy="-393.146154272268" r="2" style="fill: rgb(0,0,0)" />
	<circle cx="227.048115003487" cy="-53.5000000000102" r="2" style="fill: rgb(0,0,0)" />
	<circle cx="147.493544495814" cy="-298.343791958511" r="2" style="fill: rgb(0,0,0)" />
	<circle cx="453.13222453895" cy="-244.81817502607" r="2" style="fill: rgb(0,0,0)" />
	<circle cx="367.951884996493" cy="-53.5" r="2" style="fill: rgb(0,0,0)" />
	<circle cx="511.40233858429" cy="-381.956253305463" r="2" style="fill: rgb(0,0,0)" />
	<circle cx="561.5" cy="-649.179847197567" r="2" style="fill: rgb(0,0,0)" />
	<circle cx="447.50645550417" cy="-732.001005191881" r="2" style="fill: rgb(0,0,0)" />
	<circle cx="33.5" cy="-649.179847197617" r="2" style="fill: rgb(0,0,0)" />
	<circle cx="113.054570507673" cy="-404.336055239107" r="2" style="fill: rgb(0,0,0)" />
	<!--
	Generated using the Perl SVG Module V2.87
	by Ronan Oger

	-->
</svg>