<?xml version="1.0" encoding="UTF-8" standalone="yes"?>
<!DOCTYPE svg PUBLIC "-//W3C//DTD SVG 1.0//EN" "http://www.w3.org/TR/2001/REC-SVG-20010904/DTD/svg10.dtd">
<!-- generated using polymake; Michael Joswig, Georg Loho, Benjamin Lorenz, Rico Raber; license CC BY-NC-ND 3.0; see polymake.org and matchthenet.de -->
<svg height="841pt" id="document" viewBox="0 -638.90630655317 572 638.90630655317" width="595pt" xmlns="http://www.w3.org/2000/svg" xmlns:svg="http://www.w3.org/2000/svg" xmlns:xlink="http://www.w3.org/1999/xlink">
	<title id="document_title">planar_net_</title>
	<polygon points="241.488086295827,-327.684147163355 301.424577960412,-327.684147163355 298.801193075292,-377.312975924277 260.081809119091,-373.208085009445 " style="fill: rgb(67,184,206); fill-opacity: 1; stroke: rgb(0,0,0); stroke-width: 3" />
	<polygon points="299.369267041716,-288.802062337579 301.424577960412,-327.684147163355 241.488086295827,-327.684147163355 264.150990519095,-272.197429786795 " style="fill: rgb(67,184,206); fill-opacity: 1; stroke: rgb(0,0,0); stroke-width: 3" />
	<polygon points="298.801193075292,-377.312975924277 301.424577960412,-327.684147163355 361.027055004821,-334.002989084954 337.737561978559,-377.312975924268 " style="fill: rgb(67,184,206); fill-opacity: 1; stroke: rgb(0,0,0); stroke-width: 3" />
	<polygon points="241.488086295827,-327.684147163355 260.081809119091,-373.208085009445 235.307717280331,-403.24614747918 198.689976060288,-369.644900175279 " style="fill: rgb(67,184,206); fill-opacity: 1; stroke: rgb(0,0,0); stroke-width: 3" />
	<polygon points="361.027055004819,-321.365305241738 301.424577960412,-327.684147163355 299.369267041716,-288.802062337579 332.640725119176,-268.577055520012 " style="fill: rgb(67,184,206); fill-opacity: 1; stroke: rgb(0,0,0); stroke-width: 3" />
	<polygon points="241.488086295827,-327.684147163355 198.689976060277,-285.723394151463 227.378425008043,-259.398240394231 264.150990519095,-272.197429786795 " style="fill: rgb(67,184,206); fill-opacity: 1; stroke: rgb(0,0,0); stroke-width: 3" />
	<polygon points="337.737561978559,-377.312975924268 361.027055004821,-334.002989084954 399.162921055441,-380.241920232078 359.206811112135,-409.795466053753 " style="fill: rgb(67,184,206); fill-opacity: 1; stroke: rgb(0,0,0); stroke-width: 3" />
	<polygon points="330.67318645533,-265.648111212186 299.369267041716,-288.802062337579 264.150990519095,-272.197429786795 292.537320404725,-219.409180065069 " style="fill: rgb(67,184,206); fill-opacity: 1; stroke: rgb(0,0,0); stroke-width: 3" />
	<polygon points="241.488086295827,-327.684147163355 198.689976060288,-369.644900175279 172.936748071335,-340.441953893786 186.459941923579,-303.929434788609 " style="fill: rgb(67,184,206); fill-opacity: 1; stroke: rgb(0,0,0); stroke-width: 3" />
	<polygon points="361.027055004819,-321.365305241738 332.640725119176,-268.577055520012 367.859001641799,-251.972422969217 399.162921055419,-275.126374094594 " style="fill: rgb(67,184,206); fill-opacity: 1; stroke: rgb(0,0,0); stroke-width: 3" />
	<polygon points="280.837877006746,-214.630678511361 264.150990519095,-272.197429786795 227.378425008043,-259.398240394231 221.235399962336,-220.949520432982 " style="fill: rgb(67,184,206); fill-opacity: 1; stroke: rgb(0,0,0); stroke-width: 3" />
	<polygon points="198.689976060288,-369.644900175279 235.307717280331,-403.24614747918 207.504905300304,-430.504989519411 160.554110009699,-415.883831322434 " style="fill: rgb(67,184,206); fill-opacity: 1; stroke: rgb(0,0,0); stroke-width: 3" />
	<polygon points="399.162921055441,-380.241920232078 361.027055004821,-334.002989084954 418.252893369293,-316.182033539794 427.851370003209,-353.916766474833 " style="fill: rgb(67,184,206); fill-opacity: 1; stroke: rgb(0,0,0); stroke-width: 3" />
	<polygon points="330.67318645533,-265.648111212186 292.537320404725,-219.409180065069 349.763158769199,-201.588224519915 359.361635403104,-239.322957454947 " style="fill: rgb(67,184,206); fill-opacity: 1; stroke: rgb(0,0,0); stroke-width: 3" />
	<polygon points="198.689976060288,-369.644900175279 151.706633027641,-406.859796527892 135.019746539948,-349.29304525248 172.936748071335,-340.441953893786 " style="fill: rgb(67,184,206); fill-opacity: 1; stroke: rgb(0,0,0); stroke-width: 3" />
	<polygon points="198.689976060277,-285.723394151463 160.554110009662,-239.484463004338 217.779948374123,-221.663507459186 227.378425008043,-259.398240394231 " style="fill: rgb(67,184,206); fill-opacity: 1; stroke: rgb(0,0,0); stroke-width: 3" />
	<polygon points="359.206811112135,-409.795466053753 399.162921055441,-380.241920232078 432.211495126034,-430.243668051133 383.980902950918,-439.833528523474 " style="fill: rgb(67,184,206); fill-opacity: 1; stroke: rgb(0,0,0); stroke-width: 3" />
	<polygon points="280.837877006746,-214.630678511361 221.235399962336,-220.949520432982 219.180089043635,-182.067435607212 252.451547121093,-161.842428789643 " style="fill: rgb(67,184,206); fill-opacity: 1; stroke: rgb(0,0,0); stroke-width: 3" />
	<polygon points="207.504905300304,-430.504989519411 214.915189788243,-468.729700207381 165.694173461591,-475.599514193617 160.554110009699,-415.883831322434 " style="fill: rgb(67,184,206); fill-opacity: 1; stroke: rgb(0,0,0); stroke-width: 3" />
	<polygon points="186.459941923579,-303.929434788609 172.936748071335,-340.441953893786 134.374167010961,-345.82416211466 129.234103559093,-286.108479243487 " style="fill: rgb(67,184,206); fill-opacity: 1; stroke: rgb(0,0,0); stroke-width: 3" />
	<polygon points="399.162921055441,-380.241920232078 427.851370003209,-353.916766474833 464.623935514257,-366.715955867388 441.961031291003,-422.20267324396 " style="fill: rgb(67,184,206); fill-opacity: 1; stroke: rgb(0,0,0); stroke-width: 3" />
	<polygon points="399.162921055419,-275.126374094594 367.859001641799,-251.972422969217 373.425780103406,-213.436053122925 432.211495125977,-225.12462627552 " style="fill: rgb(67,184,206); fill-opacity: 1; stroke: rgb(0,0,0); stroke-width: 3" />
	<polygon points="349.763158769199,-201.588224519915 292.537320404725,-219.409180065069 297.677383856556,-159.693497193897 336.23996491693,-165.075705414747 " style="fill: rgb(67,184,206); fill-opacity: 1; stroke: rgb(0,0,0); stroke-width: 3" />
	<polygon points="135.019746539948,-349.29304525248 151.706633027641,-406.859796527892 92.1041559832309,-400.540954606322 98.2471810289069,-362.092234645076 " style="fill: rgb(67,184,206); fill-opacity: 1; stroke: rgb(0,0,0); stroke-width: 3" />
	<polygon points="217.779948374123,-221.663507459186 160.554110009662,-239.484463004338 165.694173461491,-179.768780133165 204.256754521857,-185.150988354016 " style="fill: rgb(67,184,206); fill-opacity: 1; stroke: rgb(0,0,0); stroke-width: 3" />
	<polygon points="383.980902950918,-439.833528523474 432.211495126034,-430.243668051133 420.804513248885,-489.084672440195 372.582050658355,-477.063986347465 " style="fill: rgb(67,184,206); fill-opacity: 1; stroke: rgb(0,0,0); stroke-width: 3" />
	<polygon points="427.851370003209,-353.916766474833 418.252893369293,-316.182033539794 477.038608391865,-304.493460387169 465.631626514716,-363.334464776219 " style="fill: rgb(67,184,206); fill-opacity: 1; stroke: rgb(0,0,0); stroke-width: 3" />
	<polygon points="214.915189788243,-468.729700207381 218.254314271357,-507.52262573585 177.101155338818,-534.440518582669 165.694173461591,-475.599514193617 " style="fill: rgb(67,184,206); fill-opacity: 1; stroke: rgb(0,0,0); stroke-width: 3" />
	<polygon points="160.554110009699,-415.883831322434 165.694173461591,-475.599514193617 126.779071649935,-476.886244297139 107.215344861427,-443.221701859792 " style="fill: rgb(67,184,206); fill-opacity: 1; stroke: rgb(0,0,0); stroke-width: 3" />
	<polygon points="129.234103559093,-286.108479243487 134.374167010961,-345.82416211466 95.4590651993044,-347.110892218165 75.8953384108105,-313.446349780819 " style="fill: rgb(67,184,206); fill-opacity: 1; stroke: rgb(0,0,0); stroke-width: 3" />
	<polygon points="441.961031291003,-422.20267324396 464.623935514257,-366.715955867388 499.842212036891,-383.320588418163 501.897522955594,-422.202673243931 " style="fill: rgb(67,184,206); fill-opacity: 1; stroke: rgb(0,0,0); stroke-width: 3" />
	<polygon points="432.211495125977,-225.12462627552 373.425780103406,-213.436053122925 383.024256737303,-175.701320187877 420.80451324879,-166.283621886463 " style="fill: rgb(67,184,206); fill-opacity: 1; stroke: rgb(0,0,0); stroke-width: 3" />
	<polygon points="265.931530818096,-502.178781352628 304.120324035583,-494.585567542749 311.225722222431,-543.773128053949 251.535333665281,-549.199042442714 " style="fill: rgb(67,184,206); fill-opacity: 1; stroke: rgb(0,0,0); stroke-width: 3" />
	<polygon points="252.451547121093,-161.842428789643 219.180089043635,-182.067435607212 185.609600691862,-162.342752208125 218.658174762413,-112.341004389055 " style="fill: rgb(67,184,206); fill-opacity: 1; stroke: rgb(0,0,0); stroke-width: 3" />
	<polygon points="160.554110009662,-239.484463004338 107.215344861359,-212.14659246705 126.779071649827,-178.482050029693 165.694173461491,-179.768780133165 " style="fill: rgb(67,184,206); fill-opacity: 1; stroke: rgb(0,0,0); stroke-width: 3" />
	<polygon points="420.804513248885,-489.084672440195 432.211495126034,-430.243668051133 482.370901514958,-463.052462356472 459.367094309271,-494.466880661036 " style="fill: rgb(67,184,206); fill-opacity: 1; stroke: rgb(0,0,0); stroke-width: 3" />
	<polygon points="465.631626514716,-363.334464776219 477.038608391865,-304.493460387169 527.198014780787,-337.302254692509 504.194207575101,-368.716672997064 " style="fill: rgb(67,184,206); fill-opacity: 1; stroke: rgb(0,0,0); stroke-width: 3" />
	<polygon points="165.694173461591,-475.599514193617 177.101155338818,-534.440518582669 118.315440316232,-522.75194543012 127.913916950098,-485.017212495065 " style="fill: rgb(67,184,206); fill-opacity: 1; stroke: rgb(0,0,0); stroke-width: 3" />
	<polygon points="336.23996491693,-165.075705414747 297.677383856556,-159.693497193897 309.084365733713,-100.852492804836 359.243772122621,-133.661287110177 " style="fill: rgb(67,184,206); fill-opacity: 1; stroke: rgb(0,0,0); stroke-width: 3" />
	<polygon points="98.2471810289069,-362.092234645076 92.1041559832309,-400.540954606322 33.5,-387.973698161403 67.2933723586253,-338.472273760801 " style="fill: rgb(67,184,206); fill-opacity: 1; stroke: rgb(0,0,0); stroke-width: 3" />
	<polygon points="432.211495125977,-225.12462627552 420.80451324879,-166.283621886463 459.367094309167,-160.90141366559 482.370901514876,-192.315831970139 " style="fill: rgb(67,184,206); fill-opacity: 1; stroke: rgb(0,0,0); stroke-width: 3" />
	<polygon points="251.535333665281,-549.199042442714 311.225722222431,-543.773128053949 312.698757325539,-582.681623154067 279.128268973786,-602.40630655317 " style="fill: rgb(67,184,206); fill-opacity: 1; stroke: rgb(0,0,0); stroke-width: 3" />
	<polygon points="185.609600691862,-162.342752208125 154.305681278236,-139.188801082753 159.872459739833,-100.652431236467 218.658174762413,-112.341004389055 " style="fill: rgb(67,184,206); fill-opacity: 1; stroke: rgb(0,0,0); stroke-width: 3" />
	<polygon points="107.215344861427,-443.221701859792 126.779071649935,-476.886244297139 106.394997830999,-510.060486683589 57.0559384725396,-476.03049616519 " style="fill: rgb(67,184,206); fill-opacity: 1; stroke: rgb(0,0,0); stroke-width: 3" />
	<polygon points="499.842212036891,-383.320588418163 533.113670114348,-363.095581600589 561.5,-415.883831322297 501.897522955594,-422.202673243931 " style="fill: rgb(67,184,206); fill-opacity: 1; stroke: rgb(0,0,0); stroke-width: 3" />
	<polygon points="177.101155338818,-534.440518582669 144.052581268302,-584.442266401769 112.748661854663,-561.288315276424 118.315440316232,-522.75194543012 " style="fill: rgb(67,184,206); fill-opacity: 1; stroke: rgb(0,0,0); stroke-width: 3" />
	<polygon points="359.243772122621,-133.661287110177 309.084365733713,-100.852492804836 358.423425092133,-66.8225022863887 378.807498911095,-99.9967446728097 " style="fill: rgb(67,184,206); fill-opacity: 1; stroke: rgb(0,0,0); stroke-width: 3" />
	<polygon points="107.215344861359,-212.14659246705 57.0559384724385,-179.337798161707 106.394997830847,-145.307807643265 126.779071649827,-178.482050029693 " style="fill: rgb(67,184,206); fill-opacity: 1; stroke: rgb(0,0,0); stroke-width: 3" />
	<polygon points="459.367094309271,-494.466880661036 482.370901514958,-463.052462356472 528.791891561775,-500.966506141496 476.140156436171,-529.605252994687 " style="fill: rgb(67,184,206); fill-opacity: 1; stroke: rgb(0,0,0); stroke-width: 3" />
	<polygon points="218.658174762413,-112.341004389055 159.872459739833,-100.652431236467 169.470936373723,-62.9176983014163 207.251192885215,-53.5 " style="fill: rgb(67,184,206); fill-opacity: 1; stroke: rgb(0,0,0); stroke-width: 3" />
	<polygon points="57.0559384725396,-476.03049616519 106.394997830999,-510.060486683589 82.6271054200488,-540.900851689738 44.2082380461769,-534.573810273755 " style="fill: rgb(67,184,206); fill-opacity: 1; stroke: rgb(0,0,0); stroke-width: 3" />
	<polygon points="482.370901514876,-192.315831970139 459.367094309167,-160.90141366559 476.140156436033,-125.763041331927 528.791891561663,-154.401788185076 " style="fill: rgb(67,184,206); fill-opacity: 1; stroke: rgb(0,0,0); stroke-width: 3" />
	<polygon points="57.0559384724385,-179.337798161707 44.2082380460025,-120.794484053161 82.6271054198579,-114.46744263714 106.394997830847,-145.307807643265 " style="fill: rgb(67,184,206); fill-opacity: 1; stroke: rgb(0,0,0); stroke-width: 3" />
	<polygon points="476.140156436171,-529.605252994687 528.791891561775,-500.966506141496 535.396028896616,-560.538046352588 496.524230255152,-562.779495381117 " style="fill: rgb(67,184,206); fill-opacity: 1; stroke: rgb(0,0,0); stroke-width: 3" />
	<polygon points="528.791891561663,-154.401788185076 476.140156436033,-125.763041331927 496.524230254981,-92.588798945481 535.396028896448,-94.8302479739761 " style="fill: rgb(67,184,206); fill-opacity: 1; stroke: rgb(0,0,0); stroke-width: 3" />
	<polygon points="298.801193075292,-377.312975924277 337.737561978559,-377.312975924268 356.178090970845,-411.605653187139 301.965024968613,-437.165905683907 " style="fill: rgb(67,184,206); fill-opacity: 1; stroke: rgb(0,0,0); stroke-width: 3" />
	<polygon points="260.081809119091,-373.208085009445 298.801193075292,-377.312975924277 289.344960257035,-436.498807792606 238.128718838047,-405.36555149055 " style="fill: rgb(67,184,206); fill-opacity: 1; stroke: rgb(0,0,0); stroke-width: 3" />
	<polygon points="301.965024968613,-437.165905683907 356.178090970845,-411.605653187139 370.900527582507,-447.651328150808 346.126435743745,-477.689390620543 " style="fill: rgb(67,184,206); fill-opacity: 1; stroke: rgb(0,0,0); stroke-width: 3" />
	<polygon points="238.128718838047,-405.36555149055 289.344960257035,-436.498807792606 241.157438979317,-472.140718882903 219.688189845764,-439.658228753431 " style="fill: rgb(67,184,206); fill-opacity: 1; stroke: rgb(0,0,0); stroke-width: 3" />
	<polygon points="241.157438979317,-472.140718882903 289.344960257035,-436.498807792606 304.120324035583,-494.585567542749 265.931530818096,-502.178781352628 " style="fill: rgb(67,184,206); fill-opacity: 1; stroke: rgb(0,0,0); stroke-width: 3" />
	<circle cx="241.488086295827" cy="-327.684147163355" r="2" style="fill: rgb(0,0,0)" />
	<circle cx="301.424577960412" cy="-327.684147163355" r="2" style="fill: rgb(0,0,0)" />
	<circle cx="298.801193075292" cy="-377.312975924277" r="2" style="fill: rgb(0,0,0)" />
	<circle cx="260.081809119091" cy="-373.208085009445" r="2" style="fill: rgb(0,0,0)" />
	<circle cx="264.150990519095" cy="-272.197429786795" r="2" style="fill: rgb(0,0,0)" />
	<circle cx="299.369267041716" cy="-288.802062337579" r="2" style="fill: rgb(0,0,0)" />
	<circle cx="361.027055004821" cy="-334.002989084954" r="2" style="fill: rgb(0,0,0)" />
	<circle cx="337.737561978559" cy="-377.312975924268" r="2" style="fill: rgb(0,0,0)" />
	<circle cx="235.307717280331" cy="-403.24614747918" r="2" style="fill: rgb(0,0,0)" />
	<circle cx="198.689976060288" cy="-369.644900175279" r="2" style="fill: rgb(0,0,0)" />
	<circle cx="289.344960257035" cy="-436.498807792606" r="2" style="fill: rgb(0,0,0)" />
	<circle cx="238.128718838047" cy="-405.36555149055" r="2" style="fill: rgb(0,0,0)" />
	<circle cx="332.640725119176" cy="-268.577055520012" r="2" style="fill: rgb(0,0,0)" />
	<circle cx="361.027055004819" cy="-321.365305241738" r="2" style="fill: rgb(0,0,0)" />
	<circle cx="198.689976060277" cy="-285.723394151463" r="2" style="fill: rgb(0,0,0)" />
	<circle cx="227.378425008043" cy="-259.398240394231" r="2" style="fill: rgb(0,0,0)" />
	<circle cx="292.537320404725" cy="-219.409180065069" r="2" style="fill: rgb(0,0,0)" />
	<circle cx="330.67318645533" cy="-265.648111212186" r="2" style="fill: rgb(0,0,0)" />
	<circle cx="399.162921055441" cy="-380.241920232078" r="2" style="fill: rgb(0,0,0)" />
	<circle cx="359.206811112135" cy="-409.795466053753" r="2" style="fill: rgb(0,0,0)" />
	<circle cx="356.178090970845" cy="-411.605653187139" r="2" style="fill: rgb(0,0,0)" />
	<circle cx="301.965024968613" cy="-437.165905683907" r="2" style="fill: rgb(0,0,0)" />
	<circle cx="172.936748071335" cy="-340.441953893786" r="2" style="fill: rgb(0,0,0)" />
	<circle cx="186.459941923579" cy="-303.929434788609" r="2" style="fill: rgb(0,0,0)" />
	<circle cx="207.504905300304" cy="-430.504989519411" r="2" style="fill: rgb(0,0,0)" />
	<circle cx="160.554110009699" cy="-415.883831322434" r="2" style="fill: rgb(0,0,0)" />
	<circle cx="241.157438979317" cy="-472.140718882903" r="2" style="fill: rgb(0,0,0)" />
	<circle cx="219.688189845764" cy="-439.658228753431" r="2" style="fill: rgb(0,0,0)" />
	<circle cx="367.859001641799" cy="-251.972422969217" r="2" style="fill: rgb(0,0,0)" />
	<circle cx="399.162921055419" cy="-275.126374094594" r="2" style="fill: rgb(0,0,0)" />
	<circle cx="221.235399962336" cy="-220.949520432982" r="2" style="fill: rgb(0,0,0)" />
	<circle cx="280.837877006746" cy="-214.630678511361" r="2" style="fill: rgb(0,0,0)" />
	<circle cx="160.554110009662" cy="-239.484463004338" r="2" style="fill: rgb(0,0,0)" />
	<circle cx="217.779948374123" cy="-221.663507459186" r="2" style="fill: rgb(0,0,0)" />
	<circle cx="349.763158769199" cy="-201.588224519915" r="2" style="fill: rgb(0,0,0)" />
	<circle cx="359.361635403104" cy="-239.322957454947" r="2" style="fill: rgb(0,0,0)" />
	<circle cx="418.252893369293" cy="-316.182033539794" r="2" style="fill: rgb(0,0,0)" />
	<circle cx="427.851370003209" cy="-353.916766474833" r="2" style="fill: rgb(0,0,0)" />
	<circle cx="432.211495126034" cy="-430.243668051133" r="2" style="fill: rgb(0,0,0)" />
	<circle cx="383.980902950918" cy="-439.833528523474" r="2" style="fill: rgb(0,0,0)" />
	<circle cx="370.900527582507" cy="-447.651328150808" r="2" style="fill: rgb(0,0,0)" />
	<circle cx="346.126435743745" cy="-477.689390620543" r="2" style="fill: rgb(0,0,0)" />
	<circle cx="151.706633027641" cy="-406.859796527892" r="2" style="fill: rgb(0,0,0)" />
	<circle cx="135.019746539948" cy="-349.29304525248" r="2" style="fill: rgb(0,0,0)" />
	<circle cx="134.374167010961" cy="-345.82416211466" r="2" style="fill: rgb(0,0,0)" />
	<circle cx="129.234103559093" cy="-286.108479243487" r="2" style="fill: rgb(0,0,0)" />
	<circle cx="214.915189788243" cy="-468.729700207381" r="2" style="fill: rgb(0,0,0)" />
	<circle cx="165.694173461591" cy="-475.599514193617" r="2" style="fill: rgb(0,0,0)" />
	<circle cx="304.120324035583" cy="-494.585567542749" r="2" style="fill: rgb(0,0,0)" />
	<circle cx="265.931530818096" cy="-502.178781352628" r="2" style="fill: rgb(0,0,0)" />
	<circle cx="373.425780103406" cy="-213.436053122925" r="2" style="fill: rgb(0,0,0)" />
	<circle cx="432.211495125977" cy="-225.12462627552" r="2" style="fill: rgb(0,0,0)" />
	<circle cx="219.180089043635" cy="-182.067435607212" r="2" style="fill: rgb(0,0,0)" />
	<circle cx="252.451547121093" cy="-161.842428789643" r="2" style="fill: rgb(0,0,0)" />
	<circle cx="165.694173461491" cy="-179.768780133165" r="2" style="fill: rgb(0,0,0)" />
	<circle cx="204.256754521857" cy="-185.150988354016" r="2" style="fill: rgb(0,0,0)" />
	<circle cx="297.677383856556" cy="-159.693497193897" r="2" style="fill: rgb(0,0,0)" />
	<circle cx="336.23996491693" cy="-165.075705414747" r="2" style="fill: rgb(0,0,0)" />
	<circle cx="464.623935514257" cy="-366.715955867388" r="2" style="fill: rgb(0,0,0)" />
	<circle cx="441.961031291003" cy="-422.20267324396" r="2" style="fill: rgb(0,0,0)" />
	<circle cx="477.038608391865" cy="-304.493460387169" r="2" style="fill: rgb(0,0,0)" />
	<circle cx="465.631626514716" cy="-363.334464776219" r="2" style="fill: rgb(0,0,0)" />
	<circle cx="420.804513248885" cy="-489.084672440195" r="2" style="fill: rgb(0,0,0)" />
	<circle cx="372.582050658355" cy="-477.063986347465" r="2" style="fill: rgb(0,0,0)" />
	<circle cx="92.1041559832309" cy="-400.540954606322" r="2" style="fill: rgb(0,0,0)" />
	<circle cx="98.2471810289069" cy="-362.092234645076" r="2" style="fill: rgb(0,0,0)" />
	<circle cx="95.4590651993044" cy="-347.110892218165" r="2" style="fill: rgb(0,0,0)" />
	<circle cx="75.8953384108105" cy="-313.446349780819" r="2" style="fill: rgb(0,0,0)" />
	<circle cx="218.254314271357" cy="-507.52262573585" r="2" style="fill: rgb(0,0,0)" />
	<circle cx="177.101155338818" cy="-534.440518582669" r="2" style="fill: rgb(0,0,0)" />
	<circle cx="126.779071649935" cy="-476.886244297139" r="2" style="fill: rgb(0,0,0)" />
	<circle cx="107.215344861427" cy="-443.221701859792" r="2" style="fill: rgb(0,0,0)" />
	<circle cx="311.225722222431" cy="-543.773128053949" r="2" style="fill: rgb(0,0,0)" />
	<circle cx="251.535333665281" cy="-549.199042442714" r="2" style="fill: rgb(0,0,0)" />
	<circle cx="383.024256737303" cy="-175.701320187877" r="2" style="fill: rgb(0,0,0)" />
	<circle cx="420.80451324879" cy="-166.283621886463" r="2" style="fill: rgb(0,0,0)" />
	<circle cx="185.609600691862" cy="-162.342752208125" r="2" style="fill: rgb(0,0,0)" />
	<circle cx="218.658174762413" cy="-112.341004389055" r="2" style="fill: rgb(0,0,0)" />
	<circle cx="107.215344861359" cy="-212.14659246705" r="2" style="fill: rgb(0,0,0)" />
	<circle cx="126.779071649827" cy="-178.482050029693" r="2" style="fill: rgb(0,0,0)" />
	<circle cx="309.084365733713" cy="-100.852492804836" r="2" style="fill: rgb(0,0,0)" />
	<circle cx="359.243772122621" cy="-133.661287110177" r="2" style="fill: rgb(0,0,0)" />
	<circle cx="499.842212036891" cy="-383.320588418163" r="2" style="fill: rgb(0,0,0)" />
	<circle cx="501.897522955594" cy="-422.202673243931" r="2" style="fill: rgb(0,0,0)" />
	<circle cx="527.198014780787" cy="-337.302254692509" r="2" style="fill: rgb(0,0,0)" />
	<circle cx="504.194207575101" cy="-368.716672997064" r="2" style="fill: rgb(0,0,0)" />
	<circle cx="482.370901514958" cy="-463.052462356472" r="2" style="fill: rgb(0,0,0)" />
	<circle cx="459.367094309271" cy="-494.466880661036" r="2" style="fill: rgb(0,0,0)" />
	<circle cx="33.5" cy="-387.973698161403" r="2" style="fill: rgb(0,0,0)" />
	<circle cx="67.2933723586253" cy="-338.472273760801" r="2" style="fill: rgb(0,0,0)" />
	<circle cx="118.315440316232" cy="-522.75194543012" r="2" style="fill: rgb(0,0,0)" />
	<circle cx="127.913916950098" cy="-485.017212495065" r="2" style="fill: rgb(0,0,0)" />
	<circle cx="106.394997830999" cy="-510.060486683589" r="2" style="fill: rgb(0,0,0)" />
	<circle cx="57.0559384725396" cy="-476.03049616519" r="2" style="fill: rgb(0,0,0)" />
	<circle cx="312.698757325539" cy="-582.681623154067" r="2" style="fill: rgb(0,0,0)" />
	<circle cx="279.128268973786" cy="-602.40630655317" r="2" style="fill: rgb(0,0,0)" />
	<circle cx="459.367094309167" cy="-160.90141366559" r="2" style="fill: rgb(0,0,0)" />
	<circle cx="482.370901514876" cy="-192.315831970139" r="2" style="fill: rgb(0,0,0)" />
	<circle cx="154.305681278236" cy="-139.188801082753" r="2" style="fill: rgb(0,0,0)" />
	<circle cx="159.872459739833" cy="-100.652431236467" r="2" style="fill: rgb(0,0,0)" />
	<circle cx="57.0559384724385" cy="-179.337798161707" r="2" style="fill: rgb(0,0,0)" />
	<circle cx="106.394997830847" cy="-145.307807643265" r="2" style="fill: rgb(0,0,0)" />
	<circle cx="358.423425092133" cy="-66.8225022863887" r="2" style="fill: rgb(0,0,0)" />
	<circle cx="378.807498911095" cy="-99.9967446728097" r="2" style="fill: rgb(0,0,0)" />
	<circle cx="533.113670114348" cy="-363.095581600589" r="2" style="fill: rgb(0,0,0)" />
	<circle cx="561.5" cy="-415.883831322297" r="2" style="fill: rgb(0,0,0)" />
	<circle cx="528.791891561775" cy="-500.966506141496" r="2" style="fill: rgb(0,0,0)" />
	<circle cx="476.140156436171" cy="-529.605252994687" r="2" style="fill: rgb(0,0,0)" />
	<circle cx="144.052581268302" cy="-584.442266401769" r="2" style="fill: rgb(0,0,0)" />
	<circle cx="112.748661854663" cy="-561.288315276424" r="2" style="fill: rgb(0,0,0)" />
	<circle cx="82.6271054200488" cy="-540.900851689738" r="2" style="fill: rgb(0,0,0)" />
	<circle cx="44.2082380461769" cy="-534.573810273755" r="2" style="fill: rgb(0,0,0)" />
	<circle cx="476.140156436033" cy="-125.763041331927" r="2" style="fill: rgb(0,0,0)" />
	<circle cx="528.791891561663" cy="-154.401788185076" r="2" style="fill: rgb(0,0,0)" />
	<circle cx="169.470936373723" cy="-62.9176983014163" r="2" style="fill: rgb(0,0,0)" />
	<circle cx="207.251192885215" cy="-53.5" r="2" style="fill: rgb(0,0,0)" />
	<circle cx="44.2082380460025" cy="-120.794484053161" r="2" style="fill: rgb(0,0,0)" />
	<circle cx="82.6271054198579" cy="-114.46744263714" r="2" style="fill: rgb(0,0,0)" />
	<circle cx="535.396028896616" cy="-560.538046352588" r="2" style="fill: rgb(0,0,0)" />
	<circle cx="496.524230255152" cy="-562.779495381117" r="2" style="fill: rgb(0,0,0)" />
	<circle cx="496.524230254981" cy="-92.588798945481" r="2" style="fill: rgb(0,0,0)" />
	<circle cx="535.396028896448" cy="-94.8302479739761" r="2" style="fill: rgb(0,0,0)" />
	<!--
	Generated using the Perl SVG Module V2.86
	by Ronan Oger
	Info: http://www.roitsystems.com/
	-->
</svg>