<?xml version="1.0" encoding="UTF-8" standalone="yes"?>
<!DOCTYPE svg PUBLIC "-//W3C//DTD SVG 1.0//EN" "http://www.w3.org/TR/2001/REC-SVG-20010904/DTD/svg10.dtd">
<!-- generated using polymake; Michael Joswig, Georg Loho, Benjamin Lorenz, Rico Raber; license CC BY-NC-ND 3.0; see polymake.org and matchthenet.de -->
<svg height="841pt" id="document" viewBox="0 -811 571.807627805714 811" width="595pt" xmlns="http://www.w3.org/2000/svg" xmlns:svg="http://www.w3.org/2000/svg" xmlns:xlink="http://www.w3.org/1999/xlink">
	<title id="document_title">planar_net_</title>
	<polygon points="231.426822238117,-413.999764475233 363.379145889613,-413.999764475233 297.40349180233,-528.273522386254 " style="fill: rgb(14,173,105); fill-opacity: 1; stroke: rgb(0,0,0); stroke-width: 3" />
	<polygon points="429.355505925057,-299.726439061565 363.379145889613,-413.999764475233 297.403492841255,-299.725924439123 " style="fill: rgb(14,173,105); fill-opacity: 1; stroke: rgb(0,0,0); stroke-width: 3" />
	<polygon points="297.403492841255,-299.725924439123 363.379145889613,-413.999764475233 231.426822238117,-413.999764475233 " style="fill: rgb(14,173,105); fill-opacity: 1; stroke: rgb(0,0,0); stroke-width: 3" />
	<polygon points="297.403794457075,-660.225550833409 363.380274666308,-774.499047893901 231.428275691512,-774.499497747772 " style="fill: rgb(14,173,105); fill-opacity: 1; stroke: rgb(0,0,0); stroke-width: 3" />
	<polygon points="543.629444355033,-233.750744983116 429.355505925057,-299.726439061565 429.355939813626,-167.774383502651 " style="fill: rgb(14,173,105); fill-opacity: 1; stroke: rgb(0,0,0); stroke-width: 3" />
	<polygon points="543.629444355033,-233.750744983116 429.355939813626,-167.774383502651 543.629919377881,-101.798746008402 " style="fill: rgb(14,173,105); fill-opacity: 1; stroke: rgb(0,0,0); stroke-width: 3" />
	<polygon points="429.355505925057,-299.726439061565 297.403492841255,-299.725924439123 297.403932476096,-167.773881310753 429.355939813626,-167.774383502651 " style="fill: rgb(14,173,105); fill-opacity: 1; stroke: rgb(0,0,0); stroke-width: 3" />
	<polygon points="297.403492841255,-299.725924439123 165.451574885407,-299.725415393746 231.427934067618,-185.451835817987 " style="fill: rgb(14,173,105); fill-opacity: 1; stroke: rgb(0,0,0); stroke-width: 3" />
	<polygon points="165.451458263593,-528.273918391754 165.451874224261,-660.225922154585 51.1784677136807,-594.250239991984 " style="fill: rgb(14,173,105); fill-opacity: 1; stroke: rgb(0,0,0); stroke-width: 3" />
	<polygon points="99.4747092555111,-414.000586211713 165.451458263593,-528.273918391754 33.5,-528.274815249699 " style="fill: rgb(14,173,105); fill-opacity: 1; stroke: rgb(0,0,0); stroke-width: 3" />
	<polygon points="51.1784677136807,-594.250239991984 165.451874224261,-660.225922154585 51.1780393280532,-726.202076663321 " style="fill: rgb(14,173,105); fill-opacity: 1; stroke: rgb(0,0,0); stroke-width: 3" />
	<polygon points="165.451574885407,-299.725415393746 99.4760243477122,-185.451672062994 231.427934067618,-185.451835817987 " style="fill: rgb(14,173,105); fill-opacity: 1; stroke: rgb(0,0,0); stroke-width: 3" />
	<polygon points="231.428281445322,-53.5 363.380118117095,-53.5002563940768 297.403932476096,-167.773881310753 " style="fill: rgb(14,173,105); fill-opacity: 1; stroke: rgb(0,0,0); stroke-width: 3" />
	<polygon points="429.355939813626,-167.774383502651 297.403932476096,-167.773881310753 363.380118117095,-53.5002563940768 " style="fill: rgb(14,173,105); fill-opacity: 1; stroke: rgb(0,0,0); stroke-width: 3" />
	<polygon points="165.451874224261,-660.225922154585 231.428275691512,-774.499497747772 99.4761405161091,-774.5 " style="fill: rgb(14,173,105); fill-opacity: 1; stroke: rgb(0,0,0); stroke-width: 3" />
	<polygon points="363.380118117095,-53.5002563940768 495.332253292374,-53.5007937818986 429.355939813626,-167.774383502651 " style="fill: rgb(14,173,105); fill-opacity: 1; stroke: rgb(0,0,0); stroke-width: 3" />
	<polygon points="231.426822238117,-413.999764475233 165.451458263593,-528.273918391754 99.4747092555111,-414.000586211713 " style="fill: rgb(14,173,105); fill-opacity: 1; stroke: rgb(0,0,0); stroke-width: 3" />
	<polygon points="231.426822238117,-413.999764475233 165.451574885407,-299.725415393746 297.403492841255,-299.725924439123 " style="fill: rgb(14,173,105); fill-opacity: 1; stroke: rgb(0,0,0); stroke-width: 3" />
	<polygon points="165.451874224261,-660.225922154585 297.403794457075,-660.225550833409 231.428275691512,-774.499497747772 " style="fill: rgb(14,173,105); fill-opacity: 1; stroke: rgb(0,0,0); stroke-width: 3" />
	<polygon points="231.426822238117,-413.999764475233 297.40349180233,-528.273522386254 165.451458263593,-528.273918391754 " style="fill: rgb(14,173,105); fill-opacity: 1; stroke: rgb(0,0,0); stroke-width: 3" />
	<polygon points="165.451458263593,-528.273918391754 297.40349180233,-528.273522386254 297.403794457075,-660.225550833409 165.451874224261,-660.225922154585 " style="fill: rgb(14,173,105); fill-opacity: 1; stroke: rgb(0,0,0); stroke-width: 3" />
	<polygon points="363.379461422849,-642.547356859185 429.355452319723,-528.273311214983 495.331452962305,-642.547297560307 " style="fill: rgb(14,173,105); fill-opacity: 1; stroke: rgb(0,0,0); stroke-width: 3" />
	<polygon points="297.40349180233,-528.273522386254 429.355452319723,-528.273311214983 363.379461422849,-642.547356859185 " style="fill: rgb(14,173,105); fill-opacity: 1; stroke: rgb(0,0,0); stroke-width: 3" />
	<polygon points="429.355452319723,-528.273311214983 495.330928690448,-413.999208939741 561.307627805714,-528.272565917183 " style="fill: rgb(14,173,105); fill-opacity: 1; stroke: rgb(0,0,0); stroke-width: 3" />
	<polygon points="429.355452319723,-528.273311214983 363.379145889613,-413.999764475233 495.330928690448,-413.999208939741 " style="fill: rgb(14,173,105); fill-opacity: 1; stroke: rgb(0,0,0); stroke-width: 3" />
	<polygon points="297.40349180233,-528.273522386254 363.379145889613,-413.999764475233 429.355452319723,-528.273311214983 " style="fill: rgb(14,173,105); fill-opacity: 1; stroke: rgb(0,0,0); stroke-width: 3" />
	<circle cx="231.426822238117" cy="-413.999764475233" r="2" style="fill: rgb(0,0,0)" />
	<circle cx="363.379145889613" cy="-413.999764475233" r="2" style="fill: rgb(0,0,0)" />
	<circle cx="297.40349180233" cy="-528.273522386254" r="2" style="fill: rgb(0,0,0)" />
	<circle cx="297.403492841255" cy="-299.725924439123" r="2" style="fill: rgb(0,0,0)" />
	<circle cx="165.451458263593" cy="-528.273918391754" r="2" style="fill: rgb(0,0,0)" />
	<circle cx="429.355452319723" cy="-528.273311214983" r="2" style="fill: rgb(0,0,0)" />
	<circle cx="429.355505925057" cy="-299.726439061565" r="2" style="fill: rgb(0,0,0)" />
	<circle cx="165.451574885407" cy="-299.725415393746" r="2" style="fill: rgb(0,0,0)" />
	<circle cx="99.4747092555111" cy="-414.000586211713" r="2" style="fill: rgb(0,0,0)" />
	<circle cx="297.403794457075" cy="-660.225550833409" r="2" style="fill: rgb(0,0,0)" />
	<circle cx="165.451874224261" cy="-660.225922154585" r="2" style="fill: rgb(0,0,0)" />
	<circle cx="363.379461422849" cy="-642.547356859185" r="2" style="fill: rgb(0,0,0)" />
	<circle cx="495.330928690448" cy="-413.999208939741" r="2" style="fill: rgb(0,0,0)" />
	<circle cx="297.403932476096" cy="-167.773881310753" r="2" style="fill: rgb(0,0,0)" />
	<circle cx="429.355939813626" cy="-167.774383502651" r="2" style="fill: rgb(0,0,0)" />
	<circle cx="231.427934067618" cy="-185.451835817987" r="2" style="fill: rgb(0,0,0)" />
	<circle cx="33.5" cy="-528.274815249699" r="2" style="fill: rgb(0,0,0)" />
	<circle cx="51.1784677136807" cy="-594.250239991984" r="2" style="fill: rgb(0,0,0)" />
	<circle cx="231.428275691512" cy="-774.499497747772" r="2" style="fill: rgb(0,0,0)" />
	<circle cx="495.331452962305" cy="-642.547297560307" r="2" style="fill: rgb(0,0,0)" />
	<circle cx="561.307627805714" cy="-528.272565917183" r="2" style="fill: rgb(0,0,0)" />
	<circle cx="543.629444355033" cy="-233.750744983116" r="2" style="fill: rgb(0,0,0)" />
	<circle cx="363.380118117095" cy="-53.5002563940768" r="2" style="fill: rgb(0,0,0)" />
	<circle cx="99.4760243477122" cy="-185.451672062994" r="2" style="fill: rgb(0,0,0)" />
	<circle cx="51.1780393280532" cy="-726.202076663321" r="2" style="fill: rgb(0,0,0)" />
	<circle cx="363.380274666308" cy="-774.499047893901" r="2" style="fill: rgb(0,0,0)" />
	<circle cx="99.4761405161091" cy="-774.5" r="2" style="fill: rgb(0,0,0)" />
	<circle cx="543.629919377881" cy="-101.798746008402" r="2" style="fill: rgb(0,0,0)" />
	<circle cx="231.428281445322" cy="-53.5" r="2" style="fill: rgb(0,0,0)" />
	<circle cx="495.332253292374" cy="-53.5007937818986" r="2" style="fill: rgb(0,0,0)" />
	<!--
	Generated using the Perl SVG Module V2.87
	by Ronan Oger

	-->
</svg>