<?xml version="1.0" encoding="UTF-8" standalone="yes"?>
<!DOCTYPE svg PUBLIC "-//W3C//DTD SVG 1.0//EN" "http://www.w3.org/TR/2001/REC-SVG-20010904/DTD/svg10.dtd">
<!-- generated using polymake; Michael Joswig, Georg Loho, Benjamin Lorenz, Rico Raber; license CC BY-NC-SA 3.0; see polymake.org and matchthenet.de -->
<svg height="841pt" id="document" viewBox="0 -811 450.425529618054 811" width="595pt" xmlns="http://www.w3.org/2000/svg" xmlns:svg="http://www.w3.org/2000/svg" xmlns:xlink="http://www.w3.org/1999/xlink">
	<title id="document_title">planar_net_</title>
	<polygon points="37.5672092966018,-368.454396873309 120.065703272786,-368.454396873309 128.367808093431,-393.586103115185 108.325233393399,-410.872595022873 " style="fill: rgb(14,173,105); fill-opacity: 1; stroke: rgb(0,0,0); stroke-width: 3" />
	<polygon points="128.367808093428,-343.322690631434 120.065703272786,-368.454396873309 37.5672092966018,-368.454396873309 108.325233393411,-326.036198723742 " style="fill: rgb(14,173,105); fill-opacity: 1; stroke: rgb(0,0,0); stroke-width: 3" />
	<polygon points="128.367808093431,-393.586103115185 120.065703272786,-368.454396873309 439.925529618054,-453.170783063036 " style="fill: rgb(14,173,105); fill-opacity: 1; stroke: rgb(0,0,0); stroke-width: 3" />
	<polygon points="37.5672092966018,-368.454396873309 108.325233393399,-410.872595022873 102.523901281938,-436.696462835683 76.4454273735661,-441.217613318836 " style="fill: rgb(14,173,105); fill-opacity: 1; stroke: rgb(0,0,0); stroke-width: 3" />
	<polygon points="439.925529618044,-283.738010683552 120.065703272786,-368.454396873309 128.367808093428,-343.322690631434 " style="fill: rgb(14,173,105); fill-opacity: 1; stroke: rgb(0,0,0); stroke-width: 3" />
	<polygon points="108.325233393399,-410.872595022873 128.367808093431,-393.586103115185 426.223954836938,-502.674433257379 " style="fill: rgb(14,173,105); fill-opacity: 1; stroke: rgb(0,0,0); stroke-width: 3" />
	<polygon points="37.5672092966018,-368.454396873309 76.445427373578,-295.691180427774 102.523901281945,-300.212330910936 108.325233393411,-326.036198723742 " style="fill: rgb(14,173,105); fill-opacity: 1; stroke: rgb(0,0,0); stroke-width: 3" />
	<polygon points="108.325233393399,-410.872595022873 339.10681408166,-647.995003524683 102.523901281938,-436.696462835683 " style="fill: rgb(14,173,105); fill-opacity: 1; stroke: rgb(0,0,0); stroke-width: 3" />
	<polygon points="426.223954836999,-234.2343604894 128.367808093428,-343.322690631434 108.325233393411,-326.036198723742 " style="fill: rgb(14,173,105); fill-opacity: 1; stroke: rgb(0,0,0); stroke-width: 3" />
	<polygon points="37.5672092966018,-368.454396873309 76.4454273735661,-441.217613318836 58.1918488337822,-460.383585080604 33.5,-450.852572319591 " style="fill: rgb(14,173,105); fill-opacity: 1; stroke: rgb(0,0,0); stroke-width: 3" />
	<polygon points="339.106814081614,-88.9137902218766 108.325233393411,-326.036198723742 102.523901281945,-300.212330910936 " style="fill: rgb(14,173,105); fill-opacity: 1; stroke: rgb(0,0,0); stroke-width: 3" />
	<polygon points="76.4454273735661,-441.217613318836 102.523901281938,-436.696462835683 301.901868225525,-683.408793746693 " style="fill: rgb(14,173,105); fill-opacity: 1; stroke: rgb(0,0,0); stroke-width: 3" />
	<polygon points="76.4454273735661,-441.217613318836 152.463097947234,-763.25563647639 58.1918488337822,-460.383585080604 " style="fill: rgb(14,173,105); fill-opacity: 1; stroke: rgb(0,0,0); stroke-width: 3" />
	<polygon points="76.445427373578,-295.691180427774 301.901868225626,-53.5 102.523901281945,-300.212330910936 " style="fill: rgb(14,173,105); fill-opacity: 1; stroke: rgb(0,0,0); stroke-width: 3" />
	<polygon points="33.5,-450.852572319591 58.1918488337822,-460.383585080604 102.344151200564,-774.5 " style="fill: rgb(14,173,105); fill-opacity: 1; stroke: rgb(0,0,0); stroke-width: 3" />
	<circle cx="37.5672092966018" cy="-368.454396873309" r="2" style="fill: rgb(0,0,0)" />
	<circle cx="120.065703272786" cy="-368.454396873309" r="2" style="fill: rgb(0,0,0)" />
	<circle cx="128.367808093431" cy="-393.586103115185" r="2" style="fill: rgb(0,0,0)" />
	<circle cx="108.325233393399" cy="-410.872595022873" r="2" style="fill: rgb(0,0,0)" />
	<circle cx="108.325233393411" cy="-326.036198723742" r="2" style="fill: rgb(0,0,0)" />
	<circle cx="128.367808093428" cy="-343.322690631434" r="2" style="fill: rgb(0,0,0)" />
	<circle cx="439.925529618054" cy="-453.170783063036" r="2" style="fill: rgb(0,0,0)" />
	<circle cx="102.523901281938" cy="-436.696462835683" r="2" style="fill: rgb(0,0,0)" />
	<circle cx="76.4454273735661" cy="-441.217613318836" r="2" style="fill: rgb(0,0,0)" />
	<circle cx="426.223954836938" cy="-502.674433257379" r="2" style="fill: rgb(0,0,0)" />
	<circle cx="439.925529618044" cy="-283.738010683552" r="2" style="fill: rgb(0,0,0)" />
	<circle cx="76.445427373578" cy="-295.691180427774" r="2" style="fill: rgb(0,0,0)" />
	<circle cx="102.523901281945" cy="-300.212330910936" r="2" style="fill: rgb(0,0,0)" />
	<circle cx="426.223954836999" cy="-234.2343604894" r="2" style="fill: rgb(0,0,0)" />
	<circle cx="339.10681408166" cy="-647.995003524683" r="2" style="fill: rgb(0,0,0)" />
	<circle cx="58.1918488337822" cy="-460.383585080604" r="2" style="fill: rgb(0,0,0)" />
	<circle cx="33.5" cy="-450.852572319591" r="2" style="fill: rgb(0,0,0)" />
	<circle cx="301.901868225525" cy="-683.408793746693" r="2" style="fill: rgb(0,0,0)" />
	<circle cx="339.106814081614" cy="-88.9137902218766" r="2" style="fill: rgb(0,0,0)" />
	<circle cx="301.901868225626" cy="-53.5" r="2" style="fill: rgb(0,0,0)" />
	<circle cx="152.463097947234" cy="-763.25563647639" r="2" style="fill: rgb(0,0,0)" />
	<circle cx="102.344151200564" cy="-774.5" r="2" style="fill: rgb(0,0,0)" />
	<!-- 
	Generated using the Perl SVG Module V2.64
	by Ronan Oger
	Info: http://www.roitsystems.com/
 -->
</svg>