<?xml version="1.0" encoding="UTF-8" standalone="yes"?>
<!DOCTYPE svg PUBLIC "-//W3C//DTD SVG 1.0//EN" "http://www.w3.org/TR/2001/REC-SVG-20010904/DTD/svg10.dtd">
<!-- generated using polymake; Michael Joswig, Georg Loho, Benjamin Lorenz, Rico Raber; license CC BY-NC-ND 3.0; see polymake.org and matchthenet.de -->
<svg height="841pt" id="document" viewBox="0 -701.778883053681 572 701.778883053681" width="595pt" xmlns="http://www.w3.org/2000/svg" xmlns:svg="http://www.w3.org/2000/svg" xmlns:xlink="http://www.w3.org/1999/xlink">
	<title id="document_title">planar_net_</title>
	<polygon points="310.069401248742,-356.656743935606 408.159530628045,-356.656743935606 289.754270286819,-428.930814575251 272.414221373928,-418.346521982051 " style="fill: rgb(14,173,105); fill-opacity: 1; stroke: rgb(0,0,0); stroke-width: 3" />
	<polygon points="310.069401248742,-356.656743935606 272.41422137393,-294.966965889161 289.754270286822,-284.382673295963 408.159530628045,-356.656743935606 " style="fill: rgb(14,173,105); fill-opacity: 1; stroke: rgb(0,0,0); stroke-width: 3" />
	<polygon points="272.41422137393,-294.966965889161 234.759041499116,-233.277187842714 279.596704805853,-146.034667069634 289.754270286822,-284.382673295963 " style="fill: rgb(14,173,105); fill-opacity: 1; stroke: rgb(0,0,0); stroke-width: 3" />
	<polygon points="234.759041499116,-233.277187842714 162.678985489152,-238.569334139322 161.191444464637,-218.308737709296 279.596704805853,-146.034667069634 " style="fill: rgb(14,173,105); fill-opacity: 1; stroke: rgb(0,0,0); stroke-width: 3" />
	<polygon points="90.5989294791863,-243.861480435926 33.5000000000052,-164.103184729572 161.191444464637,-218.308737709296 162.678985489152,-238.569334139322 " style="fill: rgb(14,173,105); fill-opacity: 1; stroke: rgb(0,0,0); stroke-width: 3" />
	<polygon points="162.678985489148,-474.744153731878 161.191444464628,-495.004750161902 33.5,-549.210303141595 90.5989294791857,-469.452007435257 " style="fill: rgb(14,173,105); fill-opacity: 1; stroke: rgb(0,0,0); stroke-width: 3" />
	<polygon points="234.75904149911,-480.036300028493 279.596704805842,-567.278820801567 161.191444464628,-495.004750161902 162.678985489148,-474.744153731878 " style="fill: rgb(14,173,105); fill-opacity: 1; stroke: rgb(0,0,0); stroke-width: 3" />
	<polygon points="272.414221373928,-418.346521982051 289.754270286819,-428.930814575251 279.596704805842,-567.278820801567 234.75904149911,-480.036300028493 " style="fill: rgb(14,173,105); fill-opacity: 1; stroke: rgb(0,0,0); stroke-width: 3" />
	<polygon points="418.317096109004,-495.004750161923 408.159530628045,-356.656743935606 465.258460107204,-436.415039641967 437.017075201092,-502.94296960682 " style="fill: rgb(14,173,105); fill-opacity: 1; stroke: rgb(0,0,0); stroke-width: 3" />
	<polygon points="465.258460107203,-276.898448229249 408.159530628045,-356.656743935606 418.317096109005,-218.308737709288 437.017075201095,-210.370518264389 " style="fill: rgb(14,173,105); fill-opacity: 1; stroke: rgb(0,0,0); stroke-width: 3" />
	<polygon points="435.657145021897,-207.724445116092 418.317096109005,-218.308737709288 299.911835767783,-146.034667069644 398.00196514709,-146.034667069646 " style="fill: rgb(14,173,105); fill-opacity: 1; stroke: rgb(0,0,0); stroke-width: 3" />
	<polygon points="398.00196514709,-146.034667069646 299.911835767783,-146.034667069644 418.317096109007,-73.7605964300028 435.657145021899,-84.3448890232048 " style="fill: rgb(14,173,105); fill-opacity: 1; stroke: rgb(0,0,0); stroke-width: 3" />
	<polygon points="87.623847430148,-58.7921462965922 159.703903440112,-53.5 161.191444464623,-73.7605964300214 42.7861841234003,-146.034667069665 " style="fill: rgb(14,173,105); fill-opacity: 1; stroke: rgb(0,0,0); stroke-width: 3" />
	<polygon points="161.191444464619,-639.55289144121 159.7039034401,-659.813487871237 87.6238474301264,-654.521341574612 42.7861841233913,-567.278820801529 " style="fill: rgb(14,173,105); fill-opacity: 1; stroke: rgb(0,0,0); stroke-width: 3" />
	<polygon points="299.91183576778,-567.27882080157 398.001965147084,-567.278820801567 435.657145021897,-628.968598848015 418.317096109004,-639.552891441213 " style="fill: rgb(14,173,105); fill-opacity: 1; stroke: rgb(0,0,0); stroke-width: 3" />
	<polygon points="299.91183576778,-567.27882080157 418.317096109004,-495.004750161923 435.657145021898,-505.589042755122 398.001965147084,-567.278820801567 " style="fill: rgb(14,173,105); fill-opacity: 1; stroke: rgb(0,0,0); stroke-width: 3" />
	<polygon points="408.159530628045,-356.656743935606 289.754270286822,-284.382673295963 299.911835767783,-146.034667069644 " style="fill: rgb(14,173,105); fill-opacity: 1; stroke: rgb(0,0,0); stroke-width: 3" />
	<polygon points="408.159530628045,-356.656743935606 299.911835767783,-146.034667069644 418.317096109005,-218.308737709288 " style="fill: rgb(14,173,105); fill-opacity: 1; stroke: rgb(0,0,0); stroke-width: 3" />
	<polygon points="289.754270286819,-428.930814575251 408.159530628045,-356.656743935606 299.91183576778,-567.27882080157 " style="fill: rgb(14,173,105); fill-opacity: 1; stroke: rgb(0,0,0); stroke-width: 3" />
	<polygon points="299.91183576778,-567.27882080157 408.159530628045,-356.656743935606 418.317096109004,-495.004750161923 " style="fill: rgb(14,173,105); fill-opacity: 1; stroke: rgb(0,0,0); stroke-width: 3" />
	<polygon points="161.191444464628,-495.004750161902 279.596704805842,-567.278820801567 42.7861841233913,-567.278820801529 " style="fill: rgb(14,173,105); fill-opacity: 1; stroke: rgb(0,0,0); stroke-width: 3" />
	<polygon points="42.7861841233913,-567.278820801529 279.596704805842,-567.278820801567 161.191444464619,-639.55289144121 " style="fill: rgb(14,173,105); fill-opacity: 1; stroke: rgb(0,0,0); stroke-width: 3" />
	<polygon points="279.596704805853,-146.034667069634 161.191444464637,-218.308737709296 42.7861841234003,-146.034667069665 " style="fill: rgb(14,173,105); fill-opacity: 1; stroke: rgb(0,0,0); stroke-width: 3" />
	<polygon points="279.596704805853,-146.034667069634 42.7861841234003,-146.034667069665 161.191444464623,-73.7605964300214 " style="fill: rgb(14,173,105); fill-opacity: 1; stroke: rgb(0,0,0); stroke-width: 3" />
	<polygon points="437.017075201092,-502.94296960682 465.258460107204,-436.415039641967 537.43323725288,-440.202232639025 520.667424640046,-525.096745190075 " style="fill: rgb(14,173,105); fill-opacity: 1; stroke: rgb(0,0,0); stroke-width: 3" />
	<polygon points="502.364089226254,-152.603175820393 435.657145021897,-207.724445116092 398.00196514709,-146.034667069646 443.094805755622,-89.5530150693849 " style="fill: rgb(14,173,105); fill-opacity: 1; stroke: rgb(0,0,0); stroke-width: 3" />
	<polygon points="398.001965147084,-567.278820801567 435.657145021898,-505.589042755122 502.364089226254,-560.710312050821 443.094805755622,-623.760472801829 " style="fill: rgb(14,173,105); fill-opacity: 1; stroke: rgb(0,0,0); stroke-width: 3" />
	<polygon points="443.094805755622,-623.760472801829 502.364089226254,-560.710312050821 561.5,-623.885582456364 502.253599666452,-665.278883053681 " style="fill: rgb(14,173,105); fill-opacity: 1; stroke: rgb(0,0,0); stroke-width: 3" />
	<polygon points="192.896516224785,-384.212883124376 163.911349211877,-465.748340608126 99.9424984052324,-432.110156749572 109.676257989175,-360.494549433949 " style="fill: rgb(14,173,105); fill-opacity: 1; stroke: rgb(0,0,0); stroke-width: 3" />
	<polygon points="272.414221373928,-418.346521982051 234.75904149911,-480.036300028493 163.911349211877,-465.748340608126 192.896516224785,-384.212883124376 " style="fill: rgb(14,173,105); fill-opacity: 1; stroke: rgb(0,0,0); stroke-width: 3" />
	<polygon points="264.976560640205,-300.175091935347 205.707277169574,-363.225252686356 146.57136639583,-300.049982280824 205.817766729374,-258.656681683496 " style="fill: rgb(14,173,105); fill-opacity: 1; stroke: rgb(0,0,0); stroke-width: 3" />
	<polygon points="310.069401248742,-356.656743935606 272.414221373928,-418.346521982051 205.707277169574,-363.225252686356 264.976560640205,-300.175091935347 " style="fill: rgb(14,173,105); fill-opacity: 1; stroke: rgb(0,0,0); stroke-width: 3" />
	<circle cx="310.069401248742" cy="-356.656743935606" r="2" style="fill: rgb(0,0,0)" />
	<circle cx="408.159530628045" cy="-356.656743935606" r="2" style="fill: rgb(0,0,0)" />
	<circle cx="289.754270286819" cy="-428.930814575251" r="2" style="fill: rgb(0,0,0)" />
	<circle cx="272.414221373928" cy="-418.346521982051" r="2" style="fill: rgb(0,0,0)" />
	<circle cx="272.41422137393" cy="-294.966965889161" r="2" style="fill: rgb(0,0,0)" />
	<circle cx="289.754270286822" cy="-284.382673295963" r="2" style="fill: rgb(0,0,0)" />
	<circle cx="279.596704805842" cy="-567.278820801567" r="2" style="fill: rgb(0,0,0)" />
	<circle cx="234.75904149911" cy="-480.036300028493" r="2" style="fill: rgb(0,0,0)" />
	<circle cx="299.91183576778" cy="-567.27882080157" r="2" style="fill: rgb(0,0,0)" />
	<circle cx="205.707277169574" cy="-363.225252686356" r="2" style="fill: rgb(0,0,0)" />
	<circle cx="264.976560640205" cy="-300.175091935347" r="2" style="fill: rgb(0,0,0)" />
	<circle cx="234.759041499116" cy="-233.277187842714" r="2" style="fill: rgb(0,0,0)" />
	<circle cx="279.596704805853" cy="-146.034667069634" r="2" style="fill: rgb(0,0,0)" />
	<circle cx="299.911835767783" cy="-146.034667069644" r="2" style="fill: rgb(0,0,0)" />
	<circle cx="161.191444464628" cy="-495.004750161902" r="2" style="fill: rgb(0,0,0)" />
	<circle cx="162.678985489148" cy="-474.744153731878" r="2" style="fill: rgb(0,0,0)" />
	<circle cx="163.911349211877" cy="-465.748340608126" r="2" style="fill: rgb(0,0,0)" />
	<circle cx="192.896516224785" cy="-384.212883124376" r="2" style="fill: rgb(0,0,0)" />
	<circle cx="418.317096109004" cy="-495.004750161923" r="2" style="fill: rgb(0,0,0)" />
	<circle cx="146.57136639583" cy="-300.049982280824" r="2" style="fill: rgb(0,0,0)" />
	<circle cx="205.817766729374" cy="-258.656681683496" r="2" style="fill: rgb(0,0,0)" />
	<circle cx="162.678985489152" cy="-238.569334139322" r="2" style="fill: rgb(0,0,0)" />
	<circle cx="161.191444464637" cy="-218.308737709296" r="2" style="fill: rgb(0,0,0)" />
	<circle cx="418.317096109005" cy="-218.308737709288" r="2" style="fill: rgb(0,0,0)" />
	<circle cx="33.5" cy="-549.210303141595" r="2" style="fill: rgb(0,0,0)" />
	<circle cx="90.5989294791857" cy="-469.452007435257" r="2" style="fill: rgb(0,0,0)" />
	<circle cx="42.7861841233913" cy="-567.278820801529" r="2" style="fill: rgb(0,0,0)" />
	<circle cx="99.9424984052324" cy="-432.110156749572" r="2" style="fill: rgb(0,0,0)" />
	<circle cx="109.676257989175" cy="-360.494549433949" r="2" style="fill: rgb(0,0,0)" />
	<circle cx="465.258460107204" cy="-436.415039641967" r="2" style="fill: rgb(0,0,0)" />
	<circle cx="437.017075201092" cy="-502.94296960682" r="2" style="fill: rgb(0,0,0)" />
	<circle cx="435.657145021898" cy="-505.589042755122" r="2" style="fill: rgb(0,0,0)" />
	<circle cx="398.001965147084" cy="-567.278820801567" r="2" style="fill: rgb(0,0,0)" />
	<circle cx="90.5989294791863" cy="-243.861480435926" r="2" style="fill: rgb(0,0,0)" />
	<circle cx="33.5000000000052" cy="-164.103184729572" r="2" style="fill: rgb(0,0,0)" />
	<circle cx="42.7861841234003" cy="-146.034667069665" r="2" style="fill: rgb(0,0,0)" />
	<circle cx="437.017075201095" cy="-210.370518264389" r="2" style="fill: rgb(0,0,0)" />
	<circle cx="465.258460107203" cy="-276.898448229249" r="2" style="fill: rgb(0,0,0)" />
	<circle cx="398.00196514709" cy="-146.034667069646" r="2" style="fill: rgb(0,0,0)" />
	<circle cx="435.657145021897" cy="-207.724445116092" r="2" style="fill: rgb(0,0,0)" />
	<circle cx="161.191444464619" cy="-639.55289144121" r="2" style="fill: rgb(0,0,0)" />
	<circle cx="537.43323725288" cy="-440.202232639025" r="2" style="fill: rgb(0,0,0)" />
	<circle cx="520.667424640046" cy="-525.096745190075" r="2" style="fill: rgb(0,0,0)" />
	<circle cx="435.657145021897" cy="-628.968598848015" r="2" style="fill: rgb(0,0,0)" />
	<circle cx="418.317096109004" cy="-639.552891441213" r="2" style="fill: rgb(0,0,0)" />
	<circle cx="502.364089226254" cy="-560.710312050821" r="2" style="fill: rgb(0,0,0)" />
	<circle cx="443.094805755622" cy="-623.760472801829" r="2" style="fill: rgb(0,0,0)" />
	<circle cx="161.191444464623" cy="-73.7605964300214" r="2" style="fill: rgb(0,0,0)" />
	<circle cx="418.317096109007" cy="-73.7605964300028" r="2" style="fill: rgb(0,0,0)" />
	<circle cx="435.657145021899" cy="-84.3448890232048" r="2" style="fill: rgb(0,0,0)" />
	<circle cx="443.094805755622" cy="-89.5530150693849" r="2" style="fill: rgb(0,0,0)" />
	<circle cx="502.364089226254" cy="-152.603175820393" r="2" style="fill: rgb(0,0,0)" />
	<circle cx="159.7039034401" cy="-659.813487871237" r="2" style="fill: rgb(0,0,0)" />
	<circle cx="87.6238474301264" cy="-654.521341574612" r="2" style="fill: rgb(0,0,0)" />
	<circle cx="561.5" cy="-623.885582456364" r="2" style="fill: rgb(0,0,0)" />
	<circle cx="502.253599666452" cy="-665.278883053681" r="2" style="fill: rgb(0,0,0)" />
	<circle cx="87.623847430148" cy="-58.7921462965922" r="2" style="fill: rgb(0,0,0)" />
	<circle cx="159.703903440112" cy="-53.5" r="2" style="fill: rgb(0,0,0)" />
	<!--
	Generated using the Perl SVG Module V2.87
	by Ronan Oger

	-->
</svg>