<?xml version="1.0" encoding="UTF-8" standalone="yes"?>
<!DOCTYPE svg PUBLIC "-//W3C//DTD SVG 1.0//EN" "http://www.w3.org/TR/2001/REC-SVG-20010904/DTD/svg10.dtd">
<!-- generated using polymake; Michael Joswig, Georg Loho, Benjamin Lorenz, Rico Raber; license CC BY-NC-ND 3.0; see polymake.org and matchthenet.de -->
<svg height="841pt" id="document" viewBox="0 -759.543787471802 572 759.543787471802" width="595pt" xmlns="http://www.w3.org/2000/svg" xmlns:svg="http://www.w3.org/2000/svg" xmlns:xlink="http://www.w3.org/1999/xlink">
	<title id="document_title">planar_net_</title>
	<polygon points="235.178053940052,-388.271893735897 318.273982019975,-388.271893735897 343.952035960035,-467.300817613904 276.726017980021,-516.143378664841 209.499999999999,-467.300817613904 " style="fill: rgb(61,81,50); fill-opacity: 1; stroke: rgb(0,0,0); stroke-width: 3" />
	<polygon points="343.952035960023,-309.242969857888 318.273982019975,-388.271893735897 235.178053940052,-388.271893735897 209.499999999996,-309.242969857891 276.726017980007,-260.400408806952 " style="fill: rgb(61,81,50); fill-opacity: 1; stroke: rgb(0,0,0); stroke-width: 3" />
	<polygon points="276.726017980007,-260.400408806952 209.499999999996,-309.242969857891 142.273982019974,-260.40040880696 167.952035960015,-181.371484928955 251.047964039937,-181.371484928951 " style="fill: rgb(61,81,50); fill-opacity: 1; stroke: rgb(0,0,0); stroke-width: 3" />
	<polygon points="343.952035960035,-467.300817613904 318.273982019975,-388.271893735897 385.499999999995,-339.429332684958 452.726017980015,-388.271893735886 427.047964039958,-467.300817613893 " style="fill: rgb(61,81,50); fill-opacity: 1; stroke: rgb(0,0,0); stroke-width: 3" />
	<polygon points="411.178053940035,-260.400408806948 343.952035960023,-309.242969857888 276.726017980007,-260.400408806952 302.404071920065,-181.371484928941 385.499999999985,-181.371484928936 " style="fill: rgb(61,81,50); fill-opacity: 1; stroke: rgb(0,0,0); stroke-width: 3" />
	<polygon points="276.726017979986,-102.342561050945 251.047964039937,-181.371484928951 167.952035960015,-181.371484928955 142.273982019956,-102.342561050939 209.499999999967,-53.5 " style="fill: rgb(61,81,50); fill-opacity: 1; stroke: rgb(0,0,0); stroke-width: 3" />
	<polygon points="427.047964039958,-467.300817613893 452.726017980015,-388.271893735886 535.821946059945,-388.271893735887 561.5,-467.300817613891 494.273982019976,-516.143378664827 " style="fill: rgb(61,81,50); fill-opacity: 1; stroke: rgb(0,0,0); stroke-width: 3" />
	<polygon points="302.404071920083,-595.172302542842 385.500000000011,-595.172302542844 411.178053940074,-674.201226420857 343.952035960072,-723.043787471802 276.726017980049,-674.201226420859 " style="fill: rgb(61,81,50); fill-opacity: 1; stroke: rgb(0,0,0); stroke-width: 3" />
	<polygon points="276.726017980021,-516.143378664841 343.952035960035,-467.300817613904 411.178053940058,-516.14337866484 385.500000000011,-595.172302542844 302.404071920083,-595.172302542842 " style="fill: rgb(61,81,50); fill-opacity: 1; stroke: rgb(0,0,0); stroke-width: 3" />
	<polygon points="142.273982019983,-516.143378664839 167.952035960042,-595.172302542855 100.72601798002,-644.014863593802 33.5,-595.172302542856 59.1780539400587,-516.14337866483 " style="fill: rgb(61,81,50); fill-opacity: 1; stroke: rgb(0,0,0); stroke-width: 3" />
	<polygon points="209.499999999999,-467.300817613904 276.726017980021,-516.143378664841 251.047964039968,-595.172302542855 167.952035960042,-595.172302542855 142.273982019983,-516.143378664839 " style="fill: rgb(61,81,50); fill-opacity: 1; stroke: rgb(0,0,0); stroke-width: 3" />
	<polygon points="142.273982019983,-516.143378664839 59.1780539400587,-516.14337866483 100.726017980028,-444.180193996574 " style="fill: rgb(186,59,38); fill-opacity: 1; stroke: rgb(0,0,0); stroke-width: 3" />
	<polygon points="209.499999999996,-309.242969857891 133.588092353978,-343.041128698385 142.273982019974,-260.40040880696 " style="fill: rgb(186,59,38); fill-opacity: 1; stroke: rgb(0,0,0); stroke-width: 3" />
	<polygon points="209.499999999999,-467.300817613904 142.273982019983,-516.143378664839 133.588092353996,-433.502658773403 " style="fill: rgb(186,59,38); fill-opacity: 1; stroke: rgb(0,0,0); stroke-width: 3" />
	<polygon points="235.178053940052,-388.271893735897 153.897971257921,-370.995278828719 209.499999999996,-309.242969857891 " style="fill: rgb(186,59,38); fill-opacity: 1; stroke: rgb(0,0,0); stroke-width: 3" />
	<polygon points="235.178053940052,-388.271893735897 209.499999999999,-467.300817613904 153.897971257928,-405.54850864306 " style="fill: rgb(186,59,38); fill-opacity: 1; stroke: rgb(0,0,0); stroke-width: 3" />
	<circle cx="235.178053940052" cy="-388.271893735897" r="2" style="fill: rgb(0,0,0)" />
	<circle cx="318.273982019975" cy="-388.271893735897" r="2" style="fill: rgb(0,0,0)" />
	<circle cx="343.952035960035" cy="-467.300817613904" r="2" style="fill: rgb(0,0,0)" />
	<circle cx="276.726017980021" cy="-516.143378664841" r="2" style="fill: rgb(0,0,0)" />
	<circle cx="209.499999999999" cy="-467.300817613904" r="2" style="fill: rgb(0,0,0)" />
	<circle cx="209.499999999996" cy="-309.242969857891" r="2" style="fill: rgb(0,0,0)" />
	<circle cx="276.726017980007" cy="-260.400408806952" r="2" style="fill: rgb(0,0,0)" />
	<circle cx="343.952035960023" cy="-309.242969857888" r="2" style="fill: rgb(0,0,0)" />
	<circle cx="385.499999999995" cy="-339.429332684958" r="2" style="fill: rgb(0,0,0)" />
	<circle cx="452.726017980015" cy="-388.271893735886" r="2" style="fill: rgb(0,0,0)" />
	<circle cx="427.047964039958" cy="-467.300817613893" r="2" style="fill: rgb(0,0,0)" />
	<circle cx="411.178053940058" cy="-516.14337866484" r="2" style="fill: rgb(0,0,0)" />
	<circle cx="385.500000000011" cy="-595.172302542844" r="2" style="fill: rgb(0,0,0)" />
	<circle cx="302.404071920083" cy="-595.172302542842" r="2" style="fill: rgb(0,0,0)" />
	<circle cx="251.047964039968" cy="-595.172302542855" r="2" style="fill: rgb(0,0,0)" />
	<circle cx="167.952035960042" cy="-595.172302542855" r="2" style="fill: rgb(0,0,0)" />
	<circle cx="142.273982019983" cy="-516.143378664839" r="2" style="fill: rgb(0,0,0)" />
	<circle cx="153.897971257928" cy="-405.54850864306" r="2" style="fill: rgb(0,0,0)" />
	<circle cx="142.273982019974" cy="-260.40040880696" r="2" style="fill: rgb(0,0,0)" />
	<circle cx="167.952035960015" cy="-181.371484928955" r="2" style="fill: rgb(0,0,0)" />
	<circle cx="251.047964039937" cy="-181.371484928951" r="2" style="fill: rgb(0,0,0)" />
	<circle cx="302.404071920065" cy="-181.371484928941" r="2" style="fill: rgb(0,0,0)" />
	<circle cx="385.499999999985" cy="-181.371484928936" r="2" style="fill: rgb(0,0,0)" />
	<circle cx="411.178053940035" cy="-260.400408806948" r="2" style="fill: rgb(0,0,0)" />
	<circle cx="153.897971257921" cy="-370.995278828719" r="2" style="fill: rgb(0,0,0)" />
	<circle cx="535.821946059945" cy="-388.271893735887" r="2" style="fill: rgb(0,0,0)" />
	<circle cx="561.5" cy="-467.300817613891" r="2" style="fill: rgb(0,0,0)" />
	<circle cx="494.273982019976" cy="-516.143378664827" r="2" style="fill: rgb(0,0,0)" />
	<circle cx="411.178053940074" cy="-674.201226420857" r="2" style="fill: rgb(0,0,0)" />
	<circle cx="343.952035960072" cy="-723.043787471802" r="2" style="fill: rgb(0,0,0)" />
	<circle cx="276.726017980049" cy="-674.201226420859" r="2" style="fill: rgb(0,0,0)" />
	<circle cx="100.72601798002" cy="-644.014863593802" r="2" style="fill: rgb(0,0,0)" />
	<circle cx="33.5" cy="-595.172302542856" r="2" style="fill: rgb(0,0,0)" />
	<circle cx="59.1780539400587" cy="-516.14337866483" r="2" style="fill: rgb(0,0,0)" />
	<circle cx="133.588092353996" cy="-433.502658773403" r="2" style="fill: rgb(0,0,0)" />
	<circle cx="142.273982019956" cy="-102.342561050939" r="2" style="fill: rgb(0,0,0)" />
	<circle cx="209.499999999967" cy="-53.5" r="2" style="fill: rgb(0,0,0)" />
	<circle cx="276.726017979986" cy="-102.342561050945" r="2" style="fill: rgb(0,0,0)" />
	<circle cx="133.588092353978" cy="-343.041128698385" r="2" style="fill: rgb(0,0,0)" />
	<circle cx="100.726017980028" cy="-444.180193996574" r="2" style="fill: rgb(0,0,0)" />
	<!--
	Generated using the Perl SVG Module V2.84
	by Ronan Oger
	Info: http://www.roitsystems.com/
	-->
</svg>