<?xml version="1.0" encoding="UTF-8" standalone="yes"?>
<!DOCTYPE svg PUBLIC "-//W3C//DTD SVG 1.0//EN" "http://www.w3.org/TR/2001/REC-SVG-20010904/DTD/svg10.dtd">
<!-- generated using polymake; Michael Joswig, Georg Loho, Benjamin Lorenz, Rico Raber; license CC BY-NC-ND 3.0; see polymake.org and matchthenet.de -->
<svg height="841pt" id="document" viewBox="0 -716.259229025205 572 716.259229025205" width="595pt" xmlns="http://www.w3.org/2000/svg" xmlns:svg="http://www.w3.org/2000/svg" xmlns:xlink="http://www.w3.org/1999/xlink">
	<title id="document_title">planar_net_</title>
	<polygon points="230.035445841095,-366.629614512599 251.092784954647,-366.629614512599 334.92063242203,-496.048811308528 318.628808112451,-527.325575678903 275.189346761674,-521.135613683119 " style="fill: rgb(14,173,105); fill-opacity: 1; stroke: rgb(0,0,0); stroke-width: 3" />
	<polygon points="334.92063242203,-237.210417716668 251.092784954647,-366.629614512599 230.035445841095,-366.629614512599 275.189346761675,-212.123615342077 318.628808112452,-205.933653346292 " style="fill: rgb(14,173,105); fill-opacity: 1; stroke: rgb(0,0,0); stroke-width: 3" />
	<polygon points="463.553617396338,-235.046190984289 334.92063242203,-237.210417716668 318.628808112452,-205.933653346292 418.753083959833,-129.993973369302 486.335483134147,-186.07952956892 " style="fill: rgb(14,173,105); fill-opacity: 1; stroke: rgb(0,0,0); stroke-width: 3" />
	<polygon points="418.75308395983,-603.265255655892 486.335483134147,-547.179699456279 561.5,-592.602884028722 544.067464571184,-664.7369815581 446.708392626443,-672.009142912944 " style="fill: rgb(14,173,105); fill-opacity: 1; stroke: rgb(0,0,0); stroke-width: 3" />
	<polygon points="318.628808112451,-527.325575678903 334.92063242203,-496.048811308528 463.553617396341,-498.213038040913 486.335483134147,-547.179699456279 418.75308395983,-603.265255655892 " style="fill: rgb(14,173,105); fill-opacity: 1; stroke: rgb(0,0,0); stroke-width: 3" />
	<polygon points="230.035445841095,-366.629614512599 123.162952816725,-234.563731803665 165.190427822957,-170.051846875496 275.189346761675,-212.123615342077 " style="fill: rgb(14,173,105); fill-opacity: 1; stroke: rgb(0,0,0); stroke-width: 3" />
	<polygon points="165.190427822956,-563.207382149709 122.854377559603,-620.547761130322 33.5,-581.209885849045 47.2014950109072,-511.263268718494 123.162952816728,-498.695497221527 " style="fill: rgb(14,173,105); fill-opacity: 1; stroke: rgb(0,0,0); stroke-width: 3" />
	<polygon points="230.035445841095,-366.629614512599 275.189346761674,-521.135613683119 165.190427822956,-563.207382149709 123.162952816728,-498.695497221527 " style="fill: rgb(14,173,105); fill-opacity: 1; stroke: rgb(0,0,0); stroke-width: 3" />
	<polygon points="318.628808112452,-205.933653346292 275.189346761675,-212.123615342077 217.785163116678,-109.290957253098 262.143130860067,-53.5 331.114061296337,-80.890364594343 " style="fill: rgb(14,173,105); fill-opacity: 1; stroke: rgb(0,0,0); stroke-width: 3" />
	<polygon points="275.189346761674,-521.135613683119 318.628808112451,-527.325575678903 331.114061296342,-652.368864430864 262.143130860071,-679.759229025205 217.785163116679,-623.968271772099 " style="fill: rgb(14,173,105); fill-opacity: 1; stroke: rgb(0,0,0); stroke-width: 3" />
	<polygon points="334.92063242203,-496.048811308528 251.092784954647,-366.629614512599 394.673122020339,-310.405746641186 444.681658302319,-428.939602562949 " style="fill: rgb(14,173,105); fill-opacity: 1; stroke: rgb(0,0,0); stroke-width: 3" />
	<circle cx="230.035445841095" cy="-366.629614512599" r="2" style="fill: rgb(0,0,0)" />
	<circle cx="251.092784954647" cy="-366.629614512599" r="2" style="fill: rgb(0,0,0)" />
	<circle cx="334.92063242203" cy="-496.048811308528" r="2" style="fill: rgb(0,0,0)" />
	<circle cx="318.628808112451" cy="-527.325575678903" r="2" style="fill: rgb(0,0,0)" />
	<circle cx="275.189346761674" cy="-521.135613683119" r="2" style="fill: rgb(0,0,0)" />
	<circle cx="275.189346761675" cy="-212.123615342077" r="2" style="fill: rgb(0,0,0)" />
	<circle cx="318.628808112452" cy="-205.933653346292" r="2" style="fill: rgb(0,0,0)" />
	<circle cx="334.92063242203" cy="-237.210417716668" r="2" style="fill: rgb(0,0,0)" />
	<circle cx="463.553617396341" cy="-498.213038040913" r="2" style="fill: rgb(0,0,0)" />
	<circle cx="486.335483134147" cy="-547.179699456279" r="2" style="fill: rgb(0,0,0)" />
	<circle cx="418.75308395983" cy="-603.265255655892" r="2" style="fill: rgb(0,0,0)" />
	<circle cx="165.190427822956" cy="-563.207382149709" r="2" style="fill: rgb(0,0,0)" />
	<circle cx="123.162952816728" cy="-498.695497221527" r="2" style="fill: rgb(0,0,0)" />
	<circle cx="331.114061296342" cy="-652.368864430864" r="2" style="fill: rgb(0,0,0)" />
	<circle cx="262.143130860071" cy="-679.759229025205" r="2" style="fill: rgb(0,0,0)" />
	<circle cx="217.785163116679" cy="-623.968271772099" r="2" style="fill: rgb(0,0,0)" />
	<circle cx="394.673122020339" cy="-310.405746641186" r="2" style="fill: rgb(0,0,0)" />
	<circle cx="444.681658302319" cy="-428.939602562949" r="2" style="fill: rgb(0,0,0)" />
	<circle cx="418.753083959833" cy="-129.993973369302" r="2" style="fill: rgb(0,0,0)" />
	<circle cx="486.335483134147" cy="-186.07952956892" r="2" style="fill: rgb(0,0,0)" />
	<circle cx="463.553617396338" cy="-235.046190984289" r="2" style="fill: rgb(0,0,0)" />
	<circle cx="123.162952816725" cy="-234.563731803665" r="2" style="fill: rgb(0,0,0)" />
	<circle cx="165.190427822957" cy="-170.051846875496" r="2" style="fill: rgb(0,0,0)" />
	<circle cx="217.785163116678" cy="-109.290957253098" r="2" style="fill: rgb(0,0,0)" />
	<circle cx="262.143130860067" cy="-53.5" r="2" style="fill: rgb(0,0,0)" />
	<circle cx="331.114061296337" cy="-80.890364594343" r="2" style="fill: rgb(0,0,0)" />
	<circle cx="561.5" cy="-592.602884028722" r="2" style="fill: rgb(0,0,0)" />
	<circle cx="544.067464571184" cy="-664.7369815581" r="2" style="fill: rgb(0,0,0)" />
	<circle cx="446.708392626443" cy="-672.009142912944" r="2" style="fill: rgb(0,0,0)" />
	<circle cx="122.854377559603" cy="-620.547761130322" r="2" style="fill: rgb(0,0,0)" />
	<circle cx="33.5" cy="-581.209885849045" r="2" style="fill: rgb(0,0,0)" />
	<circle cx="47.2014950109072" cy="-511.263268718494" r="2" style="fill: rgb(0,0,0)" />
	<!--
	Generated using the Perl SVG Module V2.87
	by Ronan Oger

	-->
</svg>