<?xml version="1.0" encoding="UTF-8" standalone="yes"?>
<!DOCTYPE svg PUBLIC "-//W3C//DTD SVG 1.0//EN" "http://www.w3.org/TR/2001/REC-SVG-20010904/DTD/svg10.dtd">
<!-- generated using polymake; Michael Joswig, Georg Loho, Benjamin Lorenz, Rico Raber; license CC BY-NC-ND 3.0; see polymake.org and matchthenet.de -->
<svg height="841pt" id="document" viewBox="0 -746.896078140296 572 746.896078140296" width="595pt" xmlns="http://www.w3.org/2000/svg" xmlns:svg="http://www.w3.org/2000/svg" xmlns:xlink="http://www.w3.org/1999/xlink">
	<title id="document_title">planar_net_</title>
	<polygon points="245.332467078506,-381.948039070149 349.667532921494,-381.948039070149 381.908841376208,-481.176583318208 297.500000000001,-542.50319631768 213.091158623792,-481.176583318207 " style="fill: rgb(14,173,105); fill-opacity: 1; stroke: rgb(0,0,0); stroke-width: 3" />
	<polygon points="381.908841376206,-282.719494822092 349.667532921494,-381.948039070149 245.332467078506,-381.948039070149 213.091158623794,-282.719494822091 297.5,-221.392881822619 " style="fill: rgb(14,173,105); fill-opacity: 1; stroke: rgb(0,0,0); stroke-width: 3" />
	<polygon points="381.908841376208,-481.176583318208 451.722627248225,-403.640519021141 529.258691545291,-473.454304893153 459.444905673282,-550.990369190217 " style="fill: rgb(14,173,105); fill-opacity: 1; stroke: rgb(0,0,0); stroke-width: 3" />
	<polygon points="245.332467078506,-381.948039070149 213.091158623792,-481.176583318207 143.277372751783,-403.640519021146 " style="fill: rgb(14,173,105); fill-opacity: 1; stroke: rgb(0,0,0); stroke-width: 3" />
	<polygon points="381.908841376208,-481.176583318208 349.667532921494,-381.948039070149 451.722627248225,-403.640519021141 " style="fill: rgb(14,173,105); fill-opacity: 1; stroke: rgb(0,0,0); stroke-width: 3" />
	<polygon points="213.091158623792,-481.176583318207 135.555094326731,-550.990369190222 65.7413084547215,-473.454304893171 143.277372751783,-403.640519021146 " style="fill: rgb(14,173,105); fill-opacity: 1; stroke: rgb(0,0,0); stroke-width: 3" />
	<polygon points="297.500000000001,-542.50319631768 381.908841376208,-481.176583318208 392.814825473705,-584.940090753751 " style="fill: rgb(14,173,105); fill-opacity: 1; stroke: rgb(0,0,0); stroke-width: 3" />
	<polygon points="297.500000000001,-542.50319631768 392.814825473705,-584.940090753751 381.908841376211,-688.703598189301 279.853747049486,-710.396078140296 227.686214127987,-620.039260614735 " style="fill: rgb(14,173,105); fill-opacity: 1; stroke: rgb(0,0,0); stroke-width: 3" />
	<polygon points="279.853747049482,-53.5 381.908841376205,-75.1924799510065 392.814825473706,-178.955987386542 297.5,-221.392881822619 227.68621412799,-143.85681752555 " style="fill: rgb(14,173,105); fill-opacity: 1; stroke: rgb(0,0,0); stroke-width: 3" />
	<polygon points="459.444905673282,-550.990369190217 529.258691545291,-473.454304893153 561.5,-572.682849141219 " style="fill: rgb(14,173,105); fill-opacity: 1; stroke: rgb(0,0,0); stroke-width: 3" />
	<polygon points="213.091158623792,-481.176583318207 297.500000000001,-542.50319631768 202.185174526296,-584.940090753758 " style="fill: rgb(14,173,105); fill-opacity: 1; stroke: rgb(0,0,0); stroke-width: 3" />
	<polygon points="135.555094326731,-550.990369190222 33.5,-572.682849141216 65.7413084547215,-473.454304893171 " style="fill: rgb(14,173,105); fill-opacity: 1; stroke: rgb(0,0,0); stroke-width: 3" />
	<polygon points="381.908841376206,-282.719494822092 297.5,-221.392881822619 392.814825473706,-178.955987386542 " style="fill: rgb(14,173,105); fill-opacity: 1; stroke: rgb(0,0,0); stroke-width: 3" />
	<polygon points="297.5,-221.392881822619 213.091158623794,-282.719494822091 202.185174526297,-178.955987386547 " style="fill: rgb(14,173,105); fill-opacity: 1; stroke: rgb(0,0,0); stroke-width: 3" />
	<circle cx="245.332467078506" cy="-381.948039070149" r="2" style="fill: rgb(0,0,0)" />
	<circle cx="349.667532921494" cy="-381.948039070149" r="2" style="fill: rgb(0,0,0)" />
	<circle cx="381.908841376208" cy="-481.176583318208" r="2" style="fill: rgb(0,0,0)" />
	<circle cx="297.500000000001" cy="-542.50319631768" r="2" style="fill: rgb(0,0,0)" />
	<circle cx="213.091158623792" cy="-481.176583318207" r="2" style="fill: rgb(0,0,0)" />
	<circle cx="213.091158623794" cy="-282.719494822091" r="2" style="fill: rgb(0,0,0)" />
	<circle cx="297.5" cy="-221.392881822619" r="2" style="fill: rgb(0,0,0)" />
	<circle cx="381.908841376206" cy="-282.719494822092" r="2" style="fill: rgb(0,0,0)" />
	<circle cx="143.277372751783" cy="-403.640519021146" r="2" style="fill: rgb(0,0,0)" />
	<circle cx="451.722627248225" cy="-403.640519021141" r="2" style="fill: rgb(0,0,0)" />
	<circle cx="392.814825473705" cy="-584.940090753751" r="2" style="fill: rgb(0,0,0)" />
	<circle cx="202.185174526296" cy="-584.940090753758" r="2" style="fill: rgb(0,0,0)" />
	<circle cx="392.814825473706" cy="-178.955987386542" r="2" style="fill: rgb(0,0,0)" />
	<circle cx="202.185174526297" cy="-178.955987386547" r="2" style="fill: rgb(0,0,0)" />
	<circle cx="135.555094326731" cy="-550.990369190222" r="2" style="fill: rgb(0,0,0)" />
	<circle cx="65.7413084547215" cy="-473.454304893171" r="2" style="fill: rgb(0,0,0)" />
	<circle cx="529.258691545291" cy="-473.454304893153" r="2" style="fill: rgb(0,0,0)" />
	<circle cx="459.444905673282" cy="-550.990369190217" r="2" style="fill: rgb(0,0,0)" />
	<circle cx="381.908841376211" cy="-688.703598189301" r="2" style="fill: rgb(0,0,0)" />
	<circle cx="279.853747049486" cy="-710.396078140296" r="2" style="fill: rgb(0,0,0)" />
	<circle cx="227.686214127987" cy="-620.039260614735" r="2" style="fill: rgb(0,0,0)" />
	<circle cx="227.68621412799" cy="-143.85681752555" r="2" style="fill: rgb(0,0,0)" />
	<circle cx="279.853747049482" cy="-53.5" r="2" style="fill: rgb(0,0,0)" />
	<circle cx="381.908841376205" cy="-75.1924799510065" r="2" style="fill: rgb(0,0,0)" />
	<circle cx="33.5" cy="-572.682849141216" r="2" style="fill: rgb(0,0,0)" />
	<circle cx="561.5" cy="-572.682849141219" r="2" style="fill: rgb(0,0,0)" />
	<!--
	Generated using the Perl SVG Module V2.87
	by Ronan Oger

	-->
</svg>