<?xml version="1.0" encoding="UTF-8" standalone="yes"?>
<!DOCTYPE svg PUBLIC "-//W3C//DTD SVG 1.0//EN" "http://www.w3.org/TR/2001/REC-SVG-20010904/DTD/svg10.dtd">
<!-- generated using polymake; Michael Joswig, Georg Loho, Benjamin Lorenz, Rico Raber; license CC BY-NC-ND 3.0; see polymake.org and matchthenet.de -->
<svg height="841pt" id="document" viewBox="0 -708.470236936989 572 708.470236936989" width="595pt" xmlns="http://www.w3.org/2000/svg" xmlns:svg="http://www.w3.org/2000/svg" xmlns:xlink="http://www.w3.org/1999/xlink">
	<title id="document_title">planar_net_</title>
	<polygon points="254.154575774333,-314.943633560867 337.204968765036,-314.943633560867 362.868951588684,-393.92925099555 295.679772269698,-442.745047192587 228.490592950701,-393.929250995557 " style="fill: rgb(255,210,63); fill-opacity: 1; stroke: rgb(0,0,0); stroke-width: 3" />
	<polygon points="295.679772269683,-243.019883436632 337.204968765036,-314.943633560867 254.154575774333,-314.943633560867 " style="fill: rgb(14,173,105); fill-opacity: 1; stroke: rgb(0,0,0); stroke-width: 3" />
	<polygon points="228.490592950701,-393.929250995557 295.679772269698,-442.745047192587 246.86397607267,-509.934226511586 179.674796753674,-461.118430314563 " style="fill: rgb(67,184,206); fill-opacity: 1; stroke: rgb(0,0,0); stroke-width: 3" />
	<polygon points="351.251332089898,-181.301413631724 284.062152770908,-132.485617434683 309.72613559456,-53.5 392.776528585266,-53.5000000000114 418.440511408911,-132.485617434698 " style="fill: rgb(255,210,63); fill-opacity: 1; stroke: rgb(0,0,0); stroke-width: 3" />
	<polygon points="362.868951588684,-393.92925099555 337.204968765036,-314.943633560867 418.440511408894,-332.210781190642 " style="fill: rgb(14,173,105); fill-opacity: 1; stroke: rgb(0,0,0); stroke-width: 3" />
	<polygon points="427.121641361988,-215.081051682891 351.251332089898,-181.301413631724 418.440511408911,-132.485617434698 " style="fill: rgb(14,173,105); fill-opacity: 1; stroke: rgb(0,0,0); stroke-width: 3" />
	<polygon points="329.459410320865,-518.615356464675 320.778280367778,-601.210790712871 238.182846119587,-592.529660759785 246.86397607267,-509.934226511586 " style="fill: rgb(67,184,206); fill-opacity: 1; stroke: rgb(0,0,0); stroke-width: 3" />
	<polygon points="138.149600258331,-588.919843946284 138.149600258349,-671.970236936989 66.2258501341105,-630.445040441655 " style="fill: rgb(14,173,105); fill-opacity: 1; stroke: rgb(0,0,0); stroke-width: 3" />
	<polygon points="418.440511408911,-132.485617434698 392.776528585266,-53.5000000000114 474.012071229121,-70.7671476297884 " style="fill: rgb(14,173,105); fill-opacity: 1; stroke: rgb(0,0,0); stroke-width: 3" />
	<polygon points="485.629690727909,-448.585853489996 494.31082068099,-365.990419241804 561.5,-414.806215438821 " style="fill: rgb(14,173,105); fill-opacity: 1; stroke: rgb(0,0,0); stroke-width: 3" />
	<polygon points="320.778280367778,-601.210790712871 271.962484170755,-668.399970031871 238.182846119587,-592.529660759785 " style="fill: rgb(14,173,105); fill-opacity: 1; stroke: rgb(0,0,0); stroke-width: 3" />
	<polygon points="427.121641361988,-215.081051682891 418.440511408911,-132.485617434698 494.310820681017,-98.7059793835367 549.882380501216,-160.424449188445 508.357184005838,-232.348199312677 " style="fill: rgb(255,210,63); fill-opacity: 1; stroke: rgb(0,0,0); stroke-width: 3" />
	<polygon points="138.149600258331,-588.919843946284 221.199993249029,-588.919843946275 221.199993249032,-671.970236936986 138.149600258349,-671.970236936989 " style="fill: rgb(67,184,206); fill-opacity: 1; stroke: rgb(0,0,0); stroke-width: 3" />
	<polygon points="418.440511408891,-297.676485931092 427.121641361988,-215.081051682891 494.310820680986,-263.896847879933 " style="fill: rgb(14,173,105); fill-opacity: 1; stroke: rgb(0,0,0); stroke-width: 3" />
	<polygon points="362.868951588684,-393.92925099555 418.440511408894,-332.210781190642 494.31082068099,-365.990419241804 485.629690727909,-448.585853489996 404.39414808405,-465.853001119775 " style="fill: rgb(255,210,63); fill-opacity: 1; stroke: rgb(0,0,0); stroke-width: 3" />
	<polygon points="295.679772269698,-442.745047192587 329.459410320865,-518.615356464675 246.86397607267,-509.934226511586 " style="fill: rgb(14,173,105); fill-opacity: 1; stroke: rgb(0,0,0); stroke-width: 3" />
	<polygon points="295.679772269698,-442.745047192587 362.868951588684,-393.92925099555 371.550081541795,-476.524685243745 " style="fill: rgb(14,173,105); fill-opacity: 1; stroke: rgb(0,0,0); stroke-width: 3" />
	<polygon points="112.485617434684,-509.934226511598 138.149600258331,-588.919843946284 59.1639828236456,-614.583826769937 33.5,-535.598209335253 " style="fill: rgb(67,184,206); fill-opacity: 1; stroke: rgb(0,0,0); stroke-width: 3" />
	<polygon points="179.674796753674,-461.118430314563 246.86397607267,-509.934226511586 221.199993249029,-588.919843946275 138.149600258331,-588.919843946284 112.485617434684,-509.934226511598 " style="fill: rgb(255,210,63); fill-opacity: 1; stroke: rgb(0,0,0); stroke-width: 3" />
	<polygon points="351.251332089898,-181.301413631724 295.679772269683,-243.019883436632 270.015789446049,-164.034266001939 " style="fill: rgb(14,173,105); fill-opacity: 1; stroke: rgb(0,0,0); stroke-width: 3" />
	<polygon points="418.440511408891,-297.676485931092 337.204968765036,-314.943633560867 295.679772269683,-243.019883436632 351.251332089898,-181.301413631724 427.121641361988,-215.081051682891 " style="fill: rgb(255,210,63); fill-opacity: 1; stroke: rgb(0,0,0); stroke-width: 3" />
	<polygon points="97.0487238583712,-166.265255485867 172.919033130457,-132.48561743471 164.237903177369,-215.081051682904 " style="fill: rgb(14,173,105); fill-opacity: 1; stroke: rgb(0,0,0); stroke-width: 3" />
	<polygon points="240.108212449458,-181.301413631735 164.237903177369,-215.081051682904 172.919033130457,-132.48561743471 " style="fill: rgb(14,173,105); fill-opacity: 1; stroke: rgb(0,0,0); stroke-width: 3" />
	<polygon points="228.490592950701,-393.929250995557 179.674796753674,-461.118430314563 145.895158702497,-385.248121042478 " style="fill: rgb(14,173,105); fill-opacity: 1; stroke: rgb(0,0,0); stroke-width: 3" />
	<polygon points="254.154575774333,-314.943633560867 228.490592950701,-393.929250995557 172.91903313048,-332.210781190663 " style="fill: rgb(14,173,105); fill-opacity: 1; stroke: rgb(0,0,0); stroke-width: 3" />
	<polygon points="90.3235988822763,-306.357615884206 81.6424689291574,-223.76218163603 164.237903177369,-215.081051682904 172.919033130474,-297.676485931095 " style="fill: rgb(67,184,206); fill-opacity: 1; stroke: rgb(0,0,0); stroke-width: 3" />
	<polygon points="254.154575774333,-314.943633560867 172.919033130474,-297.676485931095 164.237903177369,-215.081051682904 240.108212449458,-181.301413631735 295.679772269683,-243.019883436632 " style="fill: rgb(255,210,63); fill-opacity: 1; stroke: rgb(0,0,0); stroke-width: 3" />
	<circle cx="254.154575774333" cy="-314.943633560867" r="2" style="fill: rgb(0,0,0)" />
	<circle cx="337.204968765036" cy="-314.943633560867" r="2" style="fill: rgb(0,0,0)" />
	<circle cx="362.868951588684" cy="-393.92925099555" r="2" style="fill: rgb(0,0,0)" />
	<circle cx="295.679772269698" cy="-442.745047192587" r="2" style="fill: rgb(0,0,0)" />
	<circle cx="228.490592950701" cy="-393.929250995557" r="2" style="fill: rgb(0,0,0)" />
	<circle cx="295.679772269683" cy="-243.019883436632" r="2" style="fill: rgb(0,0,0)" />
	<circle cx="246.86397607267" cy="-509.934226511586" r="2" style="fill: rgb(0,0,0)" />
	<circle cx="179.674796753674" cy="-461.118430314563" r="2" style="fill: rgb(0,0,0)" />
	<circle cx="418.440511408894" cy="-332.210781190642" r="2" style="fill: rgb(0,0,0)" />
	<circle cx="371.550081541795" cy="-476.524685243745" r="2" style="fill: rgb(0,0,0)" />
	<circle cx="172.91903313048" cy="-332.210781190663" r="2" style="fill: rgb(0,0,0)" />
	<circle cx="351.251332089898" cy="-181.301413631724" r="2" style="fill: rgb(0,0,0)" />
	<circle cx="427.121641361988" cy="-215.081051682891" r="2" style="fill: rgb(0,0,0)" />
	<circle cx="418.440511408891" cy="-297.676485931092" r="2" style="fill: rgb(0,0,0)" />
	<circle cx="172.919033130474" cy="-297.676485931095" r="2" style="fill: rgb(0,0,0)" />
	<circle cx="164.237903177369" cy="-215.081051682904" r="2" style="fill: rgb(0,0,0)" />
	<circle cx="240.108212449458" cy="-181.301413631735" r="2" style="fill: rgb(0,0,0)" />
	<circle cx="329.459410320865" cy="-518.615356464675" r="2" style="fill: rgb(0,0,0)" />
	<circle cx="221.199993249029" cy="-588.919843946275" r="2" style="fill: rgb(0,0,0)" />
	<circle cx="138.149600258331" cy="-588.919843946284" r="2" style="fill: rgb(0,0,0)" />
	<circle cx="112.485617434684" cy="-509.934226511598" r="2" style="fill: rgb(0,0,0)" />
	<circle cx="145.895158702497" cy="-385.248121042478" r="2" style="fill: rgb(0,0,0)" />
	<circle cx="494.31082068099" cy="-365.990419241804" r="2" style="fill: rgb(0,0,0)" />
	<circle cx="485.629690727909" cy="-448.585853489996" r="2" style="fill: rgb(0,0,0)" />
	<circle cx="404.39414808405" cy="-465.853001119775" r="2" style="fill: rgb(0,0,0)" />
	<circle cx="418.440511408911" cy="-132.485617434698" r="2" style="fill: rgb(0,0,0)" />
	<circle cx="494.310820680986" cy="-263.896847879933" r="2" style="fill: rgb(0,0,0)" />
	<circle cx="270.015789446049" cy="-164.034266001939" r="2" style="fill: rgb(0,0,0)" />
	<circle cx="172.919033130457" cy="-132.48561743471" r="2" style="fill: rgb(0,0,0)" />
	<circle cx="90.3235988822763" cy="-306.357615884206" r="2" style="fill: rgb(0,0,0)" />
	<circle cx="81.6424689291574" cy="-223.76218163603" r="2" style="fill: rgb(0,0,0)" />
	<circle cx="320.778280367778" cy="-601.210790712871" r="2" style="fill: rgb(0,0,0)" />
	<circle cx="238.182846119587" cy="-592.529660759785" r="2" style="fill: rgb(0,0,0)" />
	<circle cx="221.199993249032" cy="-671.970236936986" r="2" style="fill: rgb(0,0,0)" />
	<circle cx="138.149600258349" cy="-671.970236936989" r="2" style="fill: rgb(0,0,0)" />
	<circle cx="59.1639828236456" cy="-614.583826769937" r="2" style="fill: rgb(0,0,0)" />
	<circle cx="33.5" cy="-535.598209335253" r="2" style="fill: rgb(0,0,0)" />
	<circle cx="561.5" cy="-414.806215438821" r="2" style="fill: rgb(0,0,0)" />
	<circle cx="284.062152770908" cy="-132.485617434683" r="2" style="fill: rgb(0,0,0)" />
	<circle cx="309.72613559456" cy="-53.5" r="2" style="fill: rgb(0,0,0)" />
	<circle cx="392.776528585266" cy="-53.5000000000114" r="2" style="fill: rgb(0,0,0)" />
	<circle cx="494.310820681017" cy="-98.7059793835367" r="2" style="fill: rgb(0,0,0)" />
	<circle cx="549.882380501216" cy="-160.424449188445" r="2" style="fill: rgb(0,0,0)" />
	<circle cx="508.357184005838" cy="-232.348199312677" r="2" style="fill: rgb(0,0,0)" />
	<circle cx="97.0487238583712" cy="-166.265255485867" r="2" style="fill: rgb(0,0,0)" />
	<circle cx="271.962484170755" cy="-668.399970031871" r="2" style="fill: rgb(0,0,0)" />
	<circle cx="66.2258501341105" cy="-630.445040441655" r="2" style="fill: rgb(0,0,0)" />
	<circle cx="474.012071229121" cy="-70.7671476297884" r="2" style="fill: rgb(0,0,0)" />
	<!--
	Generated using the Perl SVG Module V2.87
	by Ronan Oger

	-->
</svg>