<?xml version="1.0" encoding="UTF-8" standalone="yes"?>
<!DOCTYPE svg PUBLIC "-//W3C//DTD SVG 1.0//EN" "http://www.w3.org/TR/2001/REC-SVG-20010904/DTD/svg10.dtd">
<!-- generated using polymake; Michael Joswig, Georg Loho, Benjamin Lorenz, Rico Raber; license CC BY-NC-ND 3.0; see polymake.org and matchthenet.de -->
<svg height="841pt" id="document" viewBox="0 -744.293499597094 572 744.293499597094" width="595pt" xmlns="http://www.w3.org/2000/svg" xmlns:svg="http://www.w3.org/2000/svg" xmlns:xlink="http://www.w3.org/1999/xlink">
	<title id="document_title">planar_net_</title>
	<polygon points="322.69409387023,-367.547222775539 547.127483289146,-367.547222775539 337.738045708636,-448.333420332934 302.310283662248,-413.136918438401 " style="fill: rgb(14,173,105); fill-opacity: 1; stroke: rgb(0,0,0); stroke-width: 3" />
	<polygon points="322.69409387023,-367.547222775539 302.310283662261,-321.957527112676 337.738045708646,-286.761025218143 547.127483289146,-367.547222775539 " style="fill: rgb(14,173,105); fill-opacity: 1; stroke: rgb(0,0,0); stroke-width: 3" />
	<polygon points="337.738045708646,-286.761025218143 335.130873949099,-236.889964224378 380.853084675309,-216.805156146256 547.127483289146,-367.547222775539 " style="fill: rgb(14,173,105); fill-opacity: 1; stroke: rgb(0,0,0); stroke-width: 3" />
	<polygon points="380.853084675309,-216.805156146256 396.372073032837,-169.338525029363 446.259138817427,-167.058012667873 547.127483289146,-367.547222775539 " style="fill: rgb(14,173,105); fill-opacity: 1; stroke: rgb(0,0,0); stroke-width: 3" />
	<polygon points="525.187766585351,-144.188777407961 547.127483289146,-367.547222775539 446.259138817427,-167.058012667873 477.823786578336,-128.35926487213 " style="fill: rgb(14,173,105); fill-opacity: 1; stroke: rgb(0,0,0); stroke-width: 3" />
	<polygon points="446.259138817394,-568.036432883192 547.127483289146,-367.547222775539 525.187766585298,-590.905668143106 477.823786578274,-606.735180678926 " style="fill: rgb(14,173,105); fill-opacity: 1; stroke: rgb(0,0,0); stroke-width: 3" />
	<polygon points="380.853084675292,-518.289289404815 547.127483289146,-367.547222775539 446.259138817394,-568.036432883192 396.372073032798,-565.755920521697 " style="fill: rgb(14,173,105); fill-opacity: 1; stroke: rgb(0,0,0); stroke-width: 3" />
	<polygon points="337.738045708636,-448.333420332934 547.127483289146,-367.547222775539 380.853084675292,-518.289289404815 335.130873949076,-498.204481326692 " style="fill: rgb(14,173,105); fill-opacity: 1; stroke: rgb(0,0,0); stroke-width: 3" />
	<polygon points="302.310283662261,-321.957527112676 245.195117348595,-303.505304003385 238.945858648334,-223.046639102505 323.432382722583,-238.914728854095 337.738045708646,-286.761025218143 " style="fill: rgb(14,173,105); fill-opacity: 1; stroke: rgb(0,0,0); stroke-width: 3" />
	<polygon points="322.69409387023,-367.547222775539 302.310283662248,-413.136918438401 216.480003160999,-417.925652257423 233.100390989074,-338.95469113639 292.124778426192,-328.057514970715 " style="fill: rgb(14,173,105); fill-opacity: 1; stroke: rgb(0,0,0); stroke-width: 3" />
	<polygon points="302.310283662248,-413.136918438401 337.738045708636,-448.333420332934 323.432382722588,-496.17971669699 264.441941283338,-507.25918326875 220.509541778792,-439.564321826333 " style="fill: rgb(14,173,105); fill-opacity: 1; stroke: rgb(0,0,0); stroke-width: 3" />
	<polygon points="335.130873949076,-498.204481326692 380.853084675292,-518.289289404815 384.728914496531,-568.077822345887 311.61740836997,-613.293712190257 288.486176217789,-535.978797128165 " style="fill: rgb(14,173,105); fill-opacity: 1; stroke: rgb(0,0,0); stroke-width: 3" />
	<polygon points="396.372073032798,-565.755920521697 446.259138817394,-568.036432883192 467.796861422805,-613.092471037916 431.534616722175,-660.922130978 353.519056441112,-640.276977891443 " style="fill: rgb(14,173,105); fill-opacity: 1; stroke: rgb(0,0,0); stroke-width: 3" />
	<polygon points="477.823786578274,-606.735180678926 525.187766585298,-590.905668143106 561.5,-625.1889260639 537.703919358196,-707.793499597094 468.637806543341,-666.049972523037 " style="fill: rgb(14,173,105); fill-opacity: 1; stroke: rgb(0,0,0); stroke-width: 3" />
	<polygon points="366.451107607323,-117.306202491174 415.861820166336,-53.5 467.796861422824,-122.001974513153 446.259138817427,-167.058012667873 396.372073032837,-169.338525029363 " style="fill: rgb(14,173,105); fill-opacity: 1; stroke: rgb(0,0,0); stroke-width: 3" />
	<polygon points="335.130873949099,-236.889964224378 268.32601062444,-182.7893241294 333.680773175148,-135.445845128866 384.728914496536,-167.016623205189 380.853084675309,-216.805156146256 " style="fill: rgb(14,173,105); fill-opacity: 1; stroke: rgb(0,0,0); stroke-width: 3" />
	<polygon points="233.100390989074,-338.95469113639 216.480003160999,-417.925652257423 111.097580417627,-381.487098754142 170.987401659687,-287.43162301633 " style="fill: rgb(14,173,105); fill-opacity: 1; stroke: rgb(0,0,0); stroke-width: 3" />
	<polygon points="220.509541778792,-439.564321826333 264.441941283338,-507.25918326875 225.038485473535,-577.686576108344 135.307272648548,-511.493429562594 " style="fill: rgb(14,173,105); fill-opacity: 1; stroke: rgb(0,0,0); stroke-width: 3" />
	<polygon points="170.987401659687,-287.43162301633 111.097580417627,-381.487098754142 33.5,-301.413140952585 98.02583687349,-252.945973016853 " style="fill: rgb(14,173,105); fill-opacity: 1; stroke: rgb(0,0,0); stroke-width: 3" />
	<polygon points="135.307272648548,-511.493429562594 225.038485473535,-577.686576108344 169.380918147389,-636.123595122597 91.7342411472675,-614.13169791542 " style="fill: rgb(14,173,105); fill-opacity: 1; stroke: rgb(0,0,0); stroke-width: 3" />
	<circle cx="322.69409387023" cy="-367.547222775539" r="2" style="fill: rgb(0,0,0)" />
	<circle cx="547.127483289146" cy="-367.547222775539" r="2" style="fill: rgb(0,0,0)" />
	<circle cx="337.738045708636" cy="-448.333420332934" r="2" style="fill: rgb(0,0,0)" />
	<circle cx="302.310283662248" cy="-413.136918438401" r="2" style="fill: rgb(0,0,0)" />
	<circle cx="302.310283662261" cy="-321.957527112676" r="2" style="fill: rgb(0,0,0)" />
	<circle cx="337.738045708646" cy="-286.761025218143" r="2" style="fill: rgb(0,0,0)" />
	<circle cx="380.853084675292" cy="-518.289289404815" r="2" style="fill: rgb(0,0,0)" />
	<circle cx="335.130873949076" cy="-498.204481326692" r="2" style="fill: rgb(0,0,0)" />
	<circle cx="216.480003160999" cy="-417.925652257423" r="2" style="fill: rgb(0,0,0)" />
	<circle cx="233.100390989074" cy="-338.95469113639" r="2" style="fill: rgb(0,0,0)" />
	<circle cx="292.124778426192" cy="-328.057514970715" r="2" style="fill: rgb(0,0,0)" />
	<circle cx="323.432382722588" cy="-496.17971669699" r="2" style="fill: rgb(0,0,0)" />
	<circle cx="264.441941283338" cy="-507.25918326875" r="2" style="fill: rgb(0,0,0)" />
	<circle cx="220.509541778792" cy="-439.564321826333" r="2" style="fill: rgb(0,0,0)" />
	<circle cx="335.130873949099" cy="-236.889964224378" r="2" style="fill: rgb(0,0,0)" />
	<circle cx="380.853084675309" cy="-216.805156146256" r="2" style="fill: rgb(0,0,0)" />
	<circle cx="245.195117348595" cy="-303.505304003385" r="2" style="fill: rgb(0,0,0)" />
	<circle cx="238.945858648334" cy="-223.046639102505" r="2" style="fill: rgb(0,0,0)" />
	<circle cx="323.432382722583" cy="-238.914728854095" r="2" style="fill: rgb(0,0,0)" />
	<circle cx="446.259138817394" cy="-568.036432883192" r="2" style="fill: rgb(0,0,0)" />
	<circle cx="396.372073032798" cy="-565.755920521697" r="2" style="fill: rgb(0,0,0)" />
	<circle cx="384.728914496531" cy="-568.077822345887" r="2" style="fill: rgb(0,0,0)" />
	<circle cx="311.61740836997" cy="-613.293712190257" r="2" style="fill: rgb(0,0,0)" />
	<circle cx="288.486176217789" cy="-535.978797128165" r="2" style="fill: rgb(0,0,0)" />
	<circle cx="111.097580417627" cy="-381.487098754142" r="2" style="fill: rgb(0,0,0)" />
	<circle cx="170.987401659687" cy="-287.43162301633" r="2" style="fill: rgb(0,0,0)" />
	<circle cx="225.038485473535" cy="-577.686576108344" r="2" style="fill: rgb(0,0,0)" />
	<circle cx="135.307272648548" cy="-511.493429562594" r="2" style="fill: rgb(0,0,0)" />
	<circle cx="396.372073032837" cy="-169.338525029363" r="2" style="fill: rgb(0,0,0)" />
	<circle cx="446.259138817427" cy="-167.058012667873" r="2" style="fill: rgb(0,0,0)" />
	<circle cx="268.32601062444" cy="-182.7893241294" r="2" style="fill: rgb(0,0,0)" />
	<circle cx="333.680773175148" cy="-135.445845128866" r="2" style="fill: rgb(0,0,0)" />
	<circle cx="384.728914496536" cy="-167.016623205189" r="2" style="fill: rgb(0,0,0)" />
	<circle cx="525.187766585298" cy="-590.905668143106" r="2" style="fill: rgb(0,0,0)" />
	<circle cx="477.823786578274" cy="-606.735180678926" r="2" style="fill: rgb(0,0,0)" />
	<circle cx="467.796861422805" cy="-613.092471037916" r="2" style="fill: rgb(0,0,0)" />
	<circle cx="431.534616722175" cy="-660.922130978" r="2" style="fill: rgb(0,0,0)" />
	<circle cx="353.519056441112" cy="-640.276977891443" r="2" style="fill: rgb(0,0,0)" />
	<circle cx="33.5" cy="-301.413140952585" r="2" style="fill: rgb(0,0,0)" />
	<circle cx="98.02583687349" cy="-252.945973016853" r="2" style="fill: rgb(0,0,0)" />
	<circle cx="169.380918147389" cy="-636.123595122597" r="2" style="fill: rgb(0,0,0)" />
	<circle cx="91.7342411472675" cy="-614.13169791542" r="2" style="fill: rgb(0,0,0)" />
	<circle cx="477.823786578336" cy="-128.35926487213" r="2" style="fill: rgb(0,0,0)" />
	<circle cx="525.187766585351" cy="-144.188777407961" r="2" style="fill: rgb(0,0,0)" />
	<circle cx="366.451107607323" cy="-117.306202491174" r="2" style="fill: rgb(0,0,0)" />
	<circle cx="415.861820166336" cy="-53.5" r="2" style="fill: rgb(0,0,0)" />
	<circle cx="467.796861422824" cy="-122.001974513153" r="2" style="fill: rgb(0,0,0)" />
	<circle cx="561.5" cy="-625.1889260639" r="2" style="fill: rgb(0,0,0)" />
	<circle cx="537.703919358196" cy="-707.793499597094" r="2" style="fill: rgb(0,0,0)" />
	<circle cx="468.637806543341" cy="-666.049972523037" r="2" style="fill: rgb(0,0,0)" />
	<!--
	Generated using the Perl SVG Module V2.87
	by Ronan Oger

	-->
</svg>