<?xml version="1.0" encoding="UTF-8" standalone="yes"?>
<!DOCTYPE svg PUBLIC "-//W3C//DTD SVG 1.0//EN" "http://www.w3.org/TR/2001/REC-SVG-20010904/DTD/svg10.dtd">
<!-- generated using polymake; Michael Joswig, Georg Loho, Benjamin Lorenz, Rico Raber; license CC BY-NC-ND 3.0; see polymake.org and matchthenet.de -->
<svg height="841pt" id="document" viewBox="0 -811 542.263706902172 811" width="595pt" xmlns="http://www.w3.org/2000/svg" xmlns:svg="http://www.w3.org/2000/svg" xmlns:xlink="http://www.w3.org/1999/xlink">
	<title id="document_title">planar_net_</title>
	<polygon points="206.578269826188,-380.537196283417 414.947436974118,-380.537196283417 334.349480420002,-447.823725041192 216.912794249742,-414.51352861822 " style="fill: rgb(14,173,105); fill-opacity: 1; stroke: rgb(0,0,0); stroke-width: 3" />
	<polygon points="206.578269826188,-380.537196283417 251.181267829763,-251.702605968145 414.947436974118,-380.537196283417 " style="fill: rgb(14,173,105); fill-opacity: 1; stroke: rgb(0,0,0); stroke-width: 3" />
	<polygon points="393.205322814443,-277.820167389289 414.947436974118,-380.537196283417 251.181267829763,-251.702605968145 280.311164611646,-231.38899803003 " style="fill: rgb(14,173,105); fill-opacity: 1; stroke: rgb(0,0,0); stroke-width: 3" />
	<polygon points="385.085527033632,-601.440686206638 414.947436974118,-380.537196283417 474.787359826102,-466.808229579877 428.298913840314,-589.304783724887 " style="fill: rgb(14,173,105); fill-opacity: 1; stroke: rgb(0,0,0); stroke-width: 3" />
	<polygon points="334.349480420002,-447.823725041192 414.947436974118,-380.537196283417 385.085527033632,-601.440686206638 346.645347048364,-578.266789446446 " style="fill: rgb(14,173,105); fill-opacity: 1; stroke: rgb(0,0,0); stroke-width: 3" />
	<polygon points="206.578269826188,-380.537196283417 216.912794249742,-414.51352861822 137.913829405674,-507.57322987475 33.5,-496.561427941714 " style="fill: rgb(14,173,105); fill-opacity: 1; stroke: rgb(0,0,0); stroke-width: 3" />
	<polygon points="206.578269826188,-380.537196283417 42.8121006818275,-251.702605968135 251.181267829763,-251.702605968145 " style="fill: rgb(14,173,105); fill-opacity: 1; stroke: rgb(0,0,0); stroke-width: 3" />
	<polygon points="251.181267829763,-251.702605968145 186.889458045294,-53.5 275.761310304463,-109.404395435386 280.311164611646,-231.38899803003 " style="fill: rgb(14,173,105); fill-opacity: 1; stroke: rgb(0,0,0); stroke-width: 3" />
	<polygon points="385.085527033632,-601.440686206638 428.298913840314,-589.304783724887 531.763706902172,-669.688973614711 525.586628221237,-774.5 " style="fill: rgb(14,173,105); fill-opacity: 1; stroke: rgb(0,0,0); stroke-width: 3" />
	<polygon points="346.645347048364,-578.266789446446 385.085527033632,-601.440686206638 203.678336925978,-730.984180457785 225.551310123263,-628.294937610822 " style="fill: rgb(14,173,105); fill-opacity: 1; stroke: rgb(0,0,0); stroke-width: 3" />
	<polygon points="443.490892500573,-156.832800821878 393.205322814443,-277.820167389289 280.311164611646,-231.38899803003 319.110276002033,-115.649750582563 " style="fill: rgb(14,173,105); fill-opacity: 1; stroke: rgb(0,0,0); stroke-width: 3" />
	<polygon points="216.912794249742,-414.51352861822 334.349480420002,-447.823725041192 299.064592569598,-574.004381549864 175.845121873775,-529.467392102706 " style="fill: rgb(14,173,105); fill-opacity: 1; stroke: rgb(0,0,0); stroke-width: 3" />
	<circle cx="206.578269826188" cy="-380.537196283417" r="2" style="fill: rgb(0,0,0)" />
	<circle cx="414.947436974118" cy="-380.537196283417" r="2" style="fill: rgb(0,0,0)" />
	<circle cx="334.349480420002" cy="-447.823725041192" r="2" style="fill: rgb(0,0,0)" />
	<circle cx="216.912794249742" cy="-414.51352861822" r="2" style="fill: rgb(0,0,0)" />
	<circle cx="251.181267829763" cy="-251.702605968145" r="2" style="fill: rgb(0,0,0)" />
	<circle cx="385.085527033632" cy="-601.440686206638" r="2" style="fill: rgb(0,0,0)" />
	<circle cx="346.645347048364" cy="-578.266789446446" r="2" style="fill: rgb(0,0,0)" />
	<circle cx="137.913829405674" cy="-507.57322987475" r="2" style="fill: rgb(0,0,0)" />
	<circle cx="33.5" cy="-496.561427941714" r="2" style="fill: rgb(0,0,0)" />
	<circle cx="299.064592569598" cy="-574.004381549864" r="2" style="fill: rgb(0,0,0)" />
	<circle cx="175.845121873775" cy="-529.467392102706" r="2" style="fill: rgb(0,0,0)" />
	<circle cx="280.311164611646" cy="-231.38899803003" r="2" style="fill: rgb(0,0,0)" />
	<circle cx="393.205322814443" cy="-277.820167389289" r="2" style="fill: rgb(0,0,0)" />
	<circle cx="42.8121006818275" cy="-251.702605968135" r="2" style="fill: rgb(0,0,0)" />
	<circle cx="474.787359826102" cy="-466.808229579877" r="2" style="fill: rgb(0,0,0)" />
	<circle cx="428.298913840314" cy="-589.304783724887" r="2" style="fill: rgb(0,0,0)" />
	<circle cx="203.678336925978" cy="-730.984180457785" r="2" style="fill: rgb(0,0,0)" />
	<circle cx="225.551310123263" cy="-628.294937610822" r="2" style="fill: rgb(0,0,0)" />
	<circle cx="186.889458045294" cy="-53.5" r="2" style="fill: rgb(0,0,0)" />
	<circle cx="275.761310304463" cy="-109.404395435386" r="2" style="fill: rgb(0,0,0)" />
	<circle cx="319.110276002033" cy="-115.649750582563" r="2" style="fill: rgb(0,0,0)" />
	<circle cx="443.490892500573" cy="-156.832800821878" r="2" style="fill: rgb(0,0,0)" />
	<circle cx="531.763706902172" cy="-669.688973614711" r="2" style="fill: rgb(0,0,0)" />
	<circle cx="525.586628221237" cy="-774.5" r="2" style="fill: rgb(0,0,0)" />
	<!--
	Generated using the Perl SVG Module V2.86
	by Ronan Oger
	Info: http://www.roitsystems.com/
	-->
</svg>