<?xml version="1.0" encoding="UTF-8" standalone="yes"?>
<!DOCTYPE svg PUBLIC "-//W3C//DTD SVG 1.0//EN" "http://www.w3.org/TR/2001/REC-SVG-20010904/DTD/svg10.dtd">
<!-- generated using polymake; Michael Joswig, Georg Loho, Benjamin Lorenz, Rico Raber; license CC BY-NC-ND 3.0; see polymake.org and matchthenet.de -->
<svg height="841pt" id="document" viewBox="0 -641.884481756075 572 641.884481756075" width="595pt" xmlns="http://www.w3.org/2000/svg" xmlns:svg="http://www.w3.org/2000/svg" xmlns:xlink="http://www.w3.org/1999/xlink">
	<title id="document_title">planar_net_</title>
	<polygon points="262.985895109984,-313.791577217885 313.175278831243,-313.791577217885 310.795946357325,-356.705797934999 277.369652734806,-352.05680974833 " style="fill: rgb(67,184,206); fill-opacity: 1; stroke: rgb(0,0,0); stroke-width: 3" />
	<polygon points="310.496187685344,-280.776413661747 313.175278831243,-313.791577217885 262.985895109984,-313.791577217885 280.869653687207,-268.039672014663 " style="fill: rgb(67,184,206); fill-opacity: 1; stroke: rgb(0,0,0); stroke-width: 3" />
	<polygon points="310.795946357325,-356.705797934999 313.175278831243,-313.791577217885 365.632929406484,-318.257421368937 345.187956503308,-357.090389154959 " style="fill: rgb(67,184,206); fill-opacity: 1; stroke: rgb(0,0,0); stroke-width: 3" />
	<polygon points="262.985895109984,-313.791577217885 277.369652734806,-352.05680974833 255.212029938254,-376.552965025846 226.452242331111,-346.629936878589 " style="fill: rgb(67,184,206); fill-opacity: 1; stroke: rgb(0,0,0); stroke-width: 3" />
	<polygon points="365.417555194252,-307.272878861137 313.175278831243,-313.791577217885 310.496187685344,-280.776413661747 338.004918750608,-262.32517334612 " style="fill: rgb(67,184,206); fill-opacity: 1; stroke: rgb(0,0,0); stroke-width: 3" />
	<polygon points="262.985895109984,-313.791577217885 184.996226600669,-237.347267657037 280.869653687207,-268.039672014663 " style="fill: rgb(14,173,105); fill-opacity: 1; stroke: rgb(0,0,0); stroke-width: 3" />
	<polygon points="345.187956503308,-357.090389154959 365.632929406484,-318.257421368937 401.289094372115,-359.283328420058 364.669711626877,-386.725125805599 " style="fill: rgb(67,184,206); fill-opacity: 1; stroke: rgb(0,0,0); stroke-width: 3" />
	<polygon points="336.298387973966,-260.005640583402 310.496187685344,-280.776413661747 280.869653687207,-268.039672014663 301.767265307961,-223.583452212244 " style="fill: rgb(67,184,206); fill-opacity: 1; stroke: rgb(0,0,0); stroke-width: 3" />
	<polygon points="262.985895109984,-313.791577217885 226.452242331111,-346.629936878589 163.988609656573,-267.686714879036 " style="fill: rgb(14,173,105); fill-opacity: 1; stroke: rgb(0,0,0); stroke-width: 3" />
	<polygon points="365.417555194252,-307.272878861137 338.004918750608,-262.32517334612 367.124473601397,-245.72538736947 396.682859408234,-263.797437409917 " style="fill: rgb(67,184,206); fill-opacity: 1; stroke: rgb(0,0,0); stroke-width: 3" />
	<polygon points="292.881249395461,-220.407884108747 280.869653687207,-268.039672014663 184.996226600669,-237.347267657037 " style="fill: rgb(14,173,105); fill-opacity: 1; stroke: rgb(0,0,0); stroke-width: 3" />
	<polygon points="226.452242331111,-346.629936878589 255.212029938254,-376.552965025846 229.857023490533,-397.722412808217 192.191870701851,-381.83352457073 " style="fill: rgb(67,184,206); fill-opacity: 1; stroke: rgb(0,0,0); stroke-width: 3" />
	<polygon points="401.289094372115,-359.283328420058 365.632929406484,-318.257421368937 416.031654758595,-300.157649551226 426.624022484627,-333.822896873608 " style="fill: rgb(67,184,206); fill-opacity: 1; stroke: rgb(0,0,0); stroke-width: 3" />
	<polygon points="336.298387973966,-260.005640583402 301.767265307961,-223.583452212244 348.010447545327,-204.075957886172 359.308768599395,-235.633038082809 " style="fill: rgb(67,184,206); fill-opacity: 1; stroke: rgb(0,0,0); stroke-width: 3" />
	<polygon points="226.452242331111,-346.629936878589 186.092747130631,-374.633093803037 163.988609656573,-267.686714879036 " style="fill: rgb(14,173,105); fill-opacity: 1; stroke: rgb(0,0,0); stroke-width: 3" />
	<polygon points="364.669711626877,-386.725125805599 401.289094372115,-359.283328420058 432.600924321619,-405.704169559113 387.366857414455,-414.488251219157 " style="fill: rgb(67,184,206); fill-opacity: 1; stroke: rgb(0,0,0); stroke-width: 3" />
	<polygon points="292.881249395461,-220.407884108747 184.996226600669,-237.347267657037 266.849885008103,-178.749346944016 " style="fill: rgb(14,173,105); fill-opacity: 1; stroke: rgb(0,0,0); stroke-width: 3" />
	<polygon points="229.857023490533,-397.722412808217 233.177694250195,-431.306685052902 190.20289338999,-431.983481774844 192.191870701851,-381.83352457073 " style="fill: rgb(67,184,206); fill-opacity: 1; stroke: rgb(0,0,0); stroke-width: 3" />
	<polygon points="401.289094372115,-359.283328420058 426.624022484627,-333.822896873608 461.123696224864,-343.816128023461 442.893006108653,-396.759183514541 " style="fill: rgb(67,184,206); fill-opacity: 1; stroke: rgb(0,0,0); stroke-width: 3" />
	<polygon points="396.682859408234,-263.797437409917 367.124473601397,-245.72538736947 368.626837918078,-212.240401620054 421.128684823288,-216.152554402952 " style="fill: rgb(67,184,206); fill-opacity: 1; stroke: rgb(0,0,0); stroke-width: 3" />
	<polygon points="348.010447545327,-204.075957886172 301.767265307961,-223.583452212244 300.462146190598,-174.477828148778 332.709745307161,-174.6979548052 " style="fill: rgb(67,184,206); fill-opacity: 1; stroke: rgb(0,0,0); stroke-width: 3" />
	<polygon points="163.988609656573,-267.686714879036 186.092747130631,-374.633093803037 137.938779647628,-364.924279961031 " style="fill: rgb(14,173,105); fill-opacity: 1; stroke: rgb(0,0,0); stroke-width: 3" />
	<polygon points="387.366857414455,-414.488251219157 432.600924321619,-405.704169559113 420.938749275837,-460.470207028022 376.710235132686,-448.728402521038 " style="fill: rgb(67,184,206); fill-opacity: 1; stroke: rgb(0,0,0); stroke-width: 3" />
	<polygon points="426.624022484627,-333.822896873608 416.031654758595,-300.157649551226 467.714367387909,-286.138716915445 461.973055343414,-340.189845353527 " style="fill: rgb(67,184,206); fill-opacity: 1; stroke: rgb(0,0,0); stroke-width: 3" />
	<polygon points="233.177694250195,-431.306685052902 232.199047153431,-465.686919521965 192.586361911796,-484.576902900128 190.20289338999,-431.983481774844 " style="fill: rgb(67,184,206); fill-opacity: 1; stroke: rgb(0,0,0); stroke-width: 3" />
	<polygon points="192.191870701851,-381.83352457073 190.20289338999,-431.983481774844 157.319835947272,-427.998122666163 145.767182744952,-397.890111962785 " style="fill: rgb(67,184,206); fill-opacity: 1; stroke: rgb(0,0,0); stroke-width: 3" />
	<polygon points="442.893006108653,-396.759183514541 461.123696224864,-343.816128023461 503.597640469116,-360.845382168258 488.859270482168,-393.536849094035 " style="fill: rgb(67,184,206); fill-opacity: 1; stroke: rgb(0,0,0); stroke-width: 3" />
	<polygon points="421.128684823288,-216.152554402952 368.626837918078,-212.240401620054 372.511364366373,-179.345280275412 403.118659982756,-166.681473223145 " style="fill: rgb(67,184,206); fill-opacity: 1; stroke: rgb(0,0,0); stroke-width: 3" />
	<polygon points="273.588650834728,-464.861295029107 308.946441534094,-462.10756375928 309.686738938602,-507.862163485921 255.417374129492,-504.808773134542 " style="fill: rgb(67,184,206); fill-opacity: 1; stroke: rgb(0,0,0); stroke-width: 3" />
	<polygon points="266.849885008103,-178.749346944016 184.996226600669,-237.347267657037 235.805056220902,-140.679880751987 " style="fill: rgb(14,173,105); fill-opacity: 1; stroke: rgb(0,0,0); stroke-width: 3" />
	<polygon points="420.938749275837,-460.470207028022 432.600924321619,-405.704169559113 470.331824252756,-432.155258193787 466.113913850489,-467.766503488911 " style="fill: rgb(67,184,206); fill-opacity: 1; stroke: rgb(0,0,0); stroke-width: 3" />
	<polygon points="461.973055343414,-340.189845353527 467.714367387909,-286.138716915445 506.711411323705,-306.268964513318 507.708059625858,-341.719819103976 " style="fill: rgb(67,184,206); fill-opacity: 1; stroke: rgb(0,0,0); stroke-width: 3" />
	<polygon points="190.20289338999,-431.983481774844 192.586361911796,-484.576902900128 143.660036242744,-465.135618879234 157.208706419244,-434.909602098081 " style="fill: rgb(67,184,206); fill-opacity: 1; stroke: rgb(0,0,0); stroke-width: 3" />
	<polygon points="332.709745307161,-174.6979548052 300.462146190598,-174.477828148778 302.437516270862,-125.394597166915 348.410079793715,-145.531569170079 " style="fill: rgb(67,184,206); fill-opacity: 1; stroke: rgb(0,0,0); stroke-width: 3" />
	<polygon points="163.988609656573,-267.686714879036 137.938779647628,-364.924279961031 91.380341282235,-349.259751000711 " style="fill: rgb(14,173,105); fill-opacity: 1; stroke: rgb(0,0,0); stroke-width: 3" />
	<polygon points="421.128684823288,-216.152554402952 403.118659982756,-166.681473223145 443.922362950533,-153.177792728669 453.274973191996,-186.275933974953 " style="fill: rgb(67,184,206); fill-opacity: 1; stroke: rgb(0,0,0); stroke-width: 3" />
	<polygon points="255.417374129492,-504.808773134542 309.686738938602,-507.862163485921 303.818722902898,-553.244955645469 268.992974498705,-546.542445135675 " style="fill: rgb(67,184,206); fill-opacity: 1; stroke: rgb(0,0,0); stroke-width: 3" />
	<polygon points="235.805056220902,-140.679880751987 184.996226600669,-237.347267657037 186.843762036797,-136.697755391044 " style="fill: rgb(14,173,105); fill-opacity: 1; stroke: rgb(0,0,0); stroke-width: 3" />
	<polygon points="145.767182744952,-397.890111962785 157.319835947272,-427.998122666163 135.542852631138,-452.956919745659 100.517725039997,-417.009532141772 " style="fill: rgb(67,184,206); fill-opacity: 1; stroke: rgb(0,0,0); stroke-width: 3" />
	<polygon points="192.586361911796,-484.576902900128 161.787398519501,-515.840622417206 128.975282922926,-505.529301339671 143.660036242744,-465.135618879234 " style="fill: rgb(67,184,206); fill-opacity: 1; stroke: rgb(0,0,0); stroke-width: 3" />
	<polygon points="348.410079793715,-145.531569170079 302.437516270862,-125.394597166915 330.965543935364,-96.1153871094014 363.448687400664,-105.268287584708 " style="fill: rgb(67,184,206); fill-opacity: 1; stroke: rgb(0,0,0); stroke-width: 3" />
	<polygon points="163.988609656573,-267.686714879036 91.380341282235,-349.259751000711 70.4253961990381,-304.830527204509 " style="fill: rgb(14,173,105); fill-opacity: 1; stroke: rgb(0,0,0); stroke-width: 3" />
	<polygon points="235.805056220902,-140.679880751987 186.843762036797,-136.697755391044 191.587603181236,-95.4665903831777 224.057907905646,-101.524740470309 " style="fill: rgb(67,184,206); fill-opacity: 1; stroke: rgb(0,0,0); stroke-width: 3" />
	<polygon points="100.517725039997,-417.009532141772 135.542852631138,-452.956919745659 103.14575131688,-481.200846335508 83.1486693784095,-454.015429096761 " style="fill: rgb(67,184,206); fill-opacity: 1; stroke: rgb(0,0,0); stroke-width: 3" />
	<polygon points="91.380341282235,-349.259751000711 50.5957139063043,-352.040879157576 33.5,-323.778564365479 70.4253961990381,-304.830527204509 " style="fill: rgb(67,184,206); fill-opacity: 1; stroke: rgb(0,0,0); stroke-width: 3" />
	<polygon points="310.795946357325,-356.705797934999 345.187956503308,-357.090389154959 361.6634713613,-388.496022554254 311.874779920869,-409.689948158915 " style="fill: rgb(67,184,206); fill-opacity: 1; stroke: rgb(0,0,0); stroke-width: 3" />
	<polygon points="277.369652734806,-352.05680974833 310.795946357325,-356.705797934999 300.410008829111,-408.67325273575 257.46245696017,-378.414454327557 " style="fill: rgb(67,184,206); fill-opacity: 1; stroke: rgb(0,0,0); stroke-width: 3" />
	<polygon points="311.874779920869,-409.689948158915 361.6634713613,-388.496022554254 373.861607444285,-422.217781638448 349.525120241492,-448.555719110074 " style="fill: rgb(67,184,206); fill-opacity: 1; stroke: rgb(0,0,0); stroke-width: 3" />
	<polygon points="257.46245696017,-378.414454327557 300.410008829111,-408.67325273575 254.969327012354,-435.942805222661 239.342030517998,-406.03097143107 " style="fill: rgb(67,184,206); fill-opacity: 1; stroke: rgb(0,0,0); stroke-width: 3" />
	<polygon points="254.969327012354,-435.942805222661 300.410008829111,-408.67325273575 308.946441534094,-462.10756375928 273.588650834728,-464.861295029107 " style="fill: rgb(67,184,206); fill-opacity: 1; stroke: rgb(0,0,0); stroke-width: 3" />
	<polygon points="507.708059625858,-341.719819103976 506.711411323705,-306.268964513318 536.517800047065,-289.106870714498 561.5,-335.844154999293 " style="fill: rgb(67,184,206); fill-opacity: 1; stroke: rgb(0,0,0); stroke-width: 3" />
	<polygon points="488.859270482168,-393.536849094035 503.597640469116,-360.845382168258 551.621944134428,-385.780548807931 511.112802321921,-421.656804291177 " style="fill: rgb(67,184,206); fill-opacity: 1; stroke: rgb(0,0,0); stroke-width: 3" />
	<polygon points="374.785726580065,-53.5 363.448687400664,-105.268287584708 330.965543935364,-96.1153871094014 323.306121905292,-63.9851034888094 " style="fill: rgb(67,184,206); fill-opacity: 1; stroke: rgb(0,0,0); stroke-width: 3" />
	<polygon points="268.992974498705,-546.542445135675 303.818722902898,-553.244955645469 289.342325048197,-605.384481756075 247.247312585555,-573.189855145778 " style="fill: rgb(67,184,206); fill-opacity: 1; stroke: rgb(0,0,0); stroke-width: 3" />
	<polygon points="103.14575131688,-481.200846335508 58.6769242042566,-510.028046547044 50.3779833078661,-458.151128051036 83.1486693784095,-454.015429096761 " style="fill: rgb(67,184,206); fill-opacity: 1; stroke: rgb(0,0,0); stroke-width: 3" />
	<circle cx="262.985895109984" cy="-313.791577217885" r="2" style="fill: rgb(0,0,0)" />
	<circle cx="313.175278831243" cy="-313.791577217885" r="2" style="fill: rgb(0,0,0)" />
	<circle cx="310.795946357325" cy="-356.705797934999" r="2" style="fill: rgb(0,0,0)" />
	<circle cx="277.369652734806" cy="-352.05680974833" r="2" style="fill: rgb(0,0,0)" />
	<circle cx="280.869653687207" cy="-268.039672014663" r="2" style="fill: rgb(0,0,0)" />
	<circle cx="310.496187685344" cy="-280.776413661747" r="2" style="fill: rgb(0,0,0)" />
	<circle cx="365.632929406484" cy="-318.257421368937" r="2" style="fill: rgb(0,0,0)" />
	<circle cx="345.187956503308" cy="-357.090389154959" r="2" style="fill: rgb(0,0,0)" />
	<circle cx="255.212029938254" cy="-376.552965025846" r="2" style="fill: rgb(0,0,0)" />
	<circle cx="226.452242331111" cy="-346.629936878589" r="2" style="fill: rgb(0,0,0)" />
	<circle cx="300.410008829111" cy="-408.67325273575" r="2" style="fill: rgb(0,0,0)" />
	<circle cx="257.46245696017" cy="-378.414454327557" r="2" style="fill: rgb(0,0,0)" />
	<circle cx="338.004918750608" cy="-262.32517334612" r="2" style="fill: rgb(0,0,0)" />
	<circle cx="365.417555194252" cy="-307.272878861137" r="2" style="fill: rgb(0,0,0)" />
	<circle cx="184.996226600669" cy="-237.347267657037" r="2" style="fill: rgb(0,0,0)" />
	<circle cx="301.767265307961" cy="-223.583452212244" r="2" style="fill: rgb(0,0,0)" />
	<circle cx="336.298387973966" cy="-260.005640583402" r="2" style="fill: rgb(0,0,0)" />
	<circle cx="401.289094372115" cy="-359.283328420058" r="2" style="fill: rgb(0,0,0)" />
	<circle cx="364.669711626877" cy="-386.725125805599" r="2" style="fill: rgb(0,0,0)" />
	<circle cx="361.6634713613" cy="-388.496022554254" r="2" style="fill: rgb(0,0,0)" />
	<circle cx="311.874779920869" cy="-409.689948158915" r="2" style="fill: rgb(0,0,0)" />
	<circle cx="163.988609656573" cy="-267.686714879036" r="2" style="fill: rgb(0,0,0)" />
	<circle cx="229.857023490533" cy="-397.722412808217" r="2" style="fill: rgb(0,0,0)" />
	<circle cx="192.191870701851" cy="-381.83352457073" r="2" style="fill: rgb(0,0,0)" />
	<circle cx="254.969327012354" cy="-435.942805222661" r="2" style="fill: rgb(0,0,0)" />
	<circle cx="239.342030517998" cy="-406.03097143107" r="2" style="fill: rgb(0,0,0)" />
	<circle cx="367.124473601397" cy="-245.72538736947" r="2" style="fill: rgb(0,0,0)" />
	<circle cx="396.682859408234" cy="-263.797437409917" r="2" style="fill: rgb(0,0,0)" />
	<circle cx="292.881249395461" cy="-220.407884108747" r="2" style="fill: rgb(0,0,0)" />
	<circle cx="348.010447545327" cy="-204.075957886172" r="2" style="fill: rgb(0,0,0)" />
	<circle cx="359.308768599395" cy="-235.633038082809" r="2" style="fill: rgb(0,0,0)" />
	<circle cx="416.031654758595" cy="-300.157649551226" r="2" style="fill: rgb(0,0,0)" />
	<circle cx="426.624022484627" cy="-333.822896873608" r="2" style="fill: rgb(0,0,0)" />
	<circle cx="432.600924321619" cy="-405.704169559113" r="2" style="fill: rgb(0,0,0)" />
	<circle cx="387.366857414455" cy="-414.488251219157" r="2" style="fill: rgb(0,0,0)" />
	<circle cx="373.861607444285" cy="-422.217781638448" r="2" style="fill: rgb(0,0,0)" />
	<circle cx="349.525120241492" cy="-448.555719110074" r="2" style="fill: rgb(0,0,0)" />
	<circle cx="186.092747130631" cy="-374.633093803037" r="2" style="fill: rgb(0,0,0)" />
	<circle cx="233.177694250195" cy="-431.306685052902" r="2" style="fill: rgb(0,0,0)" />
	<circle cx="190.20289338999" cy="-431.983481774844" r="2" style="fill: rgb(0,0,0)" />
	<circle cx="308.946441534094" cy="-462.10756375928" r="2" style="fill: rgb(0,0,0)" />
	<circle cx="273.588650834728" cy="-464.861295029107" r="2" style="fill: rgb(0,0,0)" />
	<circle cx="368.626837918078" cy="-212.240401620054" r="2" style="fill: rgb(0,0,0)" />
	<circle cx="421.128684823288" cy="-216.152554402952" r="2" style="fill: rgb(0,0,0)" />
	<circle cx="266.849885008103" cy="-178.749346944016" r="2" style="fill: rgb(0,0,0)" />
	<circle cx="300.462146190598" cy="-174.477828148778" r="2" style="fill: rgb(0,0,0)" />
	<circle cx="332.709745307161" cy="-174.6979548052" r="2" style="fill: rgb(0,0,0)" />
	<circle cx="461.123696224864" cy="-343.816128023461" r="2" style="fill: rgb(0,0,0)" />
	<circle cx="442.893006108653" cy="-396.759183514541" r="2" style="fill: rgb(0,0,0)" />
	<circle cx="467.714367387909" cy="-286.138716915445" r="2" style="fill: rgb(0,0,0)" />
	<circle cx="461.973055343414" cy="-340.189845353527" r="2" style="fill: rgb(0,0,0)" />
	<circle cx="420.938749275837" cy="-460.470207028022" r="2" style="fill: rgb(0,0,0)" />
	<circle cx="376.710235132686" cy="-448.728402521038" r="2" style="fill: rgb(0,0,0)" />
	<circle cx="137.938779647628" cy="-364.924279961031" r="2" style="fill: rgb(0,0,0)" />
	<circle cx="232.199047153431" cy="-465.686919521965" r="2" style="fill: rgb(0,0,0)" />
	<circle cx="192.586361911796" cy="-484.576902900128" r="2" style="fill: rgb(0,0,0)" />
	<circle cx="157.319835947272" cy="-427.998122666163" r="2" style="fill: rgb(0,0,0)" />
	<circle cx="145.767182744952" cy="-397.890111962785" r="2" style="fill: rgb(0,0,0)" />
	<circle cx="309.686738938602" cy="-507.862163485921" r="2" style="fill: rgb(0,0,0)" />
	<circle cx="255.417374129492" cy="-504.808773134542" r="2" style="fill: rgb(0,0,0)" />
	<circle cx="372.511364366373" cy="-179.345280275412" r="2" style="fill: rgb(0,0,0)" />
	<circle cx="403.118659982756" cy="-166.681473223145" r="2" style="fill: rgb(0,0,0)" />
	<circle cx="235.805056220902" cy="-140.679880751987" r="2" style="fill: rgb(0,0,0)" />
	<circle cx="302.437516270862" cy="-125.394597166915" r="2" style="fill: rgb(0,0,0)" />
	<circle cx="348.410079793715" cy="-145.531569170079" r="2" style="fill: rgb(0,0,0)" />
	<circle cx="503.597640469116" cy="-360.845382168258" r="2" style="fill: rgb(0,0,0)" />
	<circle cx="488.859270482168" cy="-393.536849094035" r="2" style="fill: rgb(0,0,0)" />
	<circle cx="506.711411323705" cy="-306.268964513318" r="2" style="fill: rgb(0,0,0)" />
	<circle cx="507.708059625858" cy="-341.719819103976" r="2" style="fill: rgb(0,0,0)" />
	<circle cx="470.331824252756" cy="-432.155258193787" r="2" style="fill: rgb(0,0,0)" />
	<circle cx="466.113913850489" cy="-467.766503488911" r="2" style="fill: rgb(0,0,0)" />
	<circle cx="91.380341282235" cy="-349.259751000711" r="2" style="fill: rgb(0,0,0)" />
	<circle cx="143.660036242744" cy="-465.135618879234" r="2" style="fill: rgb(0,0,0)" />
	<circle cx="157.208706419244" cy="-434.909602098081" r="2" style="fill: rgb(0,0,0)" />
	<circle cx="135.542852631138" cy="-452.956919745659" r="2" style="fill: rgb(0,0,0)" />
	<circle cx="100.517725039997" cy="-417.009532141772" r="2" style="fill: rgb(0,0,0)" />
	<circle cx="303.818722902898" cy="-553.244955645469" r="2" style="fill: rgb(0,0,0)" />
	<circle cx="268.992974498705" cy="-546.542445135675" r="2" style="fill: rgb(0,0,0)" />
	<circle cx="443.922362950533" cy="-153.177792728669" r="2" style="fill: rgb(0,0,0)" />
	<circle cx="453.274973191996" cy="-186.275933974953" r="2" style="fill: rgb(0,0,0)" />
	<circle cx="186.843762036797" cy="-136.697755391044" r="2" style="fill: rgb(0,0,0)" />
	<circle cx="330.965543935364" cy="-96.1153871094014" r="2" style="fill: rgb(0,0,0)" />
	<circle cx="363.448687400664" cy="-105.268287584708" r="2" style="fill: rgb(0,0,0)" />
	<circle cx="551.621944134428" cy="-385.780548807931" r="2" style="fill: rgb(0,0,0)" />
	<circle cx="511.112802321921" cy="-421.656804291177" r="2" style="fill: rgb(0,0,0)" />
	<circle cx="536.517800047065" cy="-289.106870714498" r="2" style="fill: rgb(0,0,0)" />
	<circle cx="561.5" cy="-335.844154999293" r="2" style="fill: rgb(0,0,0)" />
	<circle cx="70.4253961990381" cy="-304.830527204509" r="2" style="fill: rgb(0,0,0)" />
	<circle cx="161.787398519501" cy="-515.840622417206" r="2" style="fill: rgb(0,0,0)" />
	<circle cx="128.975282922926" cy="-505.529301339671" r="2" style="fill: rgb(0,0,0)" />
	<circle cx="103.14575131688" cy="-481.200846335508" r="2" style="fill: rgb(0,0,0)" />
	<circle cx="83.1486693784095" cy="-454.015429096761" r="2" style="fill: rgb(0,0,0)" />
	<circle cx="289.342325048197" cy="-605.384481756075" r="2" style="fill: rgb(0,0,0)" />
	<circle cx="247.247312585555" cy="-573.189855145778" r="2" style="fill: rgb(0,0,0)" />
	<circle cx="191.587603181236" cy="-95.4665903831777" r="2" style="fill: rgb(0,0,0)" />
	<circle cx="224.057907905646" cy="-101.524740470309" r="2" style="fill: rgb(0,0,0)" />
	<circle cx="323.306121905292" cy="-63.9851034888094" r="2" style="fill: rgb(0,0,0)" />
	<circle cx="374.785726580065" cy="-53.5" r="2" style="fill: rgb(0,0,0)" />
	<circle cx="50.5957139063043" cy="-352.040879157576" r="2" style="fill: rgb(0,0,0)" />
	<circle cx="33.5" cy="-323.778564365479" r="2" style="fill: rgb(0,0,0)" />
	<circle cx="58.6769242042566" cy="-510.028046547044" r="2" style="fill: rgb(0,0,0)" />
	<circle cx="50.3779833078661" cy="-458.151128051036" r="2" style="fill: rgb(0,0,0)" />
	<!--
	Generated using the Perl SVG Module V2.87
	by Ronan Oger

	-->
</svg>