<?xml version="1.0" encoding="UTF-8" standalone="yes"?>
<!DOCTYPE svg PUBLIC "-//W3C//DTD SVG 1.0//EN" "http://www.w3.org/TR/2001/REC-SVG-20010904/DTD/svg10.dtd">
<!-- generated using polymake; Michael Joswig, Georg Loho, Benjamin Lorenz, Rico Raber; license CC BY-NC-ND 3.0; see polymake.org and matchthenet.de -->
<svg height="841pt" id="document" viewBox="0 -771.686648627003 572 771.686648627003" width="595pt" xmlns="http://www.w3.org/2000/svg" xmlns:svg="http://www.w3.org/2000/svg" xmlns:xlink="http://www.w3.org/1999/xlink">
	<title id="document_title">planar_net_</title>
	<polygon points="255.293848232263,-406.354139618767 304.000376897055,-406.354139618767 319.051521991487,-452.676801091535 279.647112564665,-481.305780331063 240.242703137838,-452.676801091538 " style="fill: rgb(255,210,63); fill-opacity: 1; stroke: rgb(0,0,0); stroke-width: 3" />
	<polygon points="304.000376897047,-357.647610953968 304.000376897055,-406.354139618767 255.293848232263,-406.354139618767 255.293848232261,-357.647610953974 " style="fill: rgb(67,184,206); fill-opacity: 1; stroke: rgb(0,0,0); stroke-width: 3" />
	<polygon points="207.651674078723,-347.520954225414 171.455669334513,-314.929925166307 204.046698393612,-278.733920422101 240.242703137829,-311.324949481207 " style="fill: rgb(67,184,206); fill-opacity: 1; stroke: rgb(0,0,0); stroke-width: 3" />
	<polygon points="255.293848232261,-357.647610953974 207.651674078723,-347.520954225414 240.242703137829,-311.324949481207 " style="fill: rgb(14,173,105); fill-opacity: 1; stroke: rgb(0,0,0); stroke-width: 3" />
	<polygon points="304.000376897047,-357.647610953968 255.293848232261,-357.647610953974 240.242703137829,-311.324949481207 279.647112564646,-282.695970241673 319.051521991469,-311.324949481194 " style="fill: rgb(255,210,63); fill-opacity: 1; stroke: rgb(0,0,0); stroke-width: 3" />
	<polygon points="319.051521991487,-452.676801091535 304.000376897055,-406.354139618767 350.323038369823,-391.302994524333 365.374183464258,-437.625655997093 " style="fill: rgb(67,184,206); fill-opacity: 1; stroke: rgb(0,0,0); stroke-width: 3" />
	<polygon points="346.181468050916,-382.000875286357 304.000376897055,-406.354139618767 304.000376897047,-357.647610953968 " style="fill: rgb(14,173,105); fill-opacity: 1; stroke: rgb(0,0,0); stroke-width: 3" />
	<polygon points="160.26465809469,-342.596465859567 131.635678855171,-382.000875286396 92.2312694283371,-353.371896046876 120.860248667849,-313.967486620049 " style="fill: rgb(67,184,206); fill-opacity: 1; stroke: rgb(0,0,0); stroke-width: 3" />
	<polygon points="171.455669334513,-314.929925166307 156.404524240076,-268.607263693542 204.046698393612,-278.733920422101 " style="fill: rgb(14,173,105); fill-opacity: 1; stroke: rgb(0,0,0); stroke-width: 3" />
	<polygon points="279.647112564646,-282.695970241673 240.242703137829,-311.324949481207 211.613723898291,-271.920540054387 251.0181333251,-243.291560814852 " style="fill: rgb(67,184,206); fill-opacity: 1; stroke: rgb(0,0,0); stroke-width: 3" />
	<polygon points="350.323038369827,-372.698756048384 304.000376897047,-357.647610953968 319.051521991469,-311.324949481194 365.374183464242,-326.376094575613 " style="fill: rgb(67,184,206); fill-opacity: 1; stroke: rgb(0,0,0); stroke-width: 3" />
	<polygon points="319.051521991487,-452.676801091535 365.374183464258,-437.625655997093 355.247526735707,-485.267830150634 " style="fill: rgb(14,173,105); fill-opacity: 1; stroke: rgb(0,0,0); stroke-width: 3" />
	<polygon points="125.886652998725,-535.761334852357 140.937798093162,-582.083996325114 101.53338866634,-610.712975564647 62.1289792395086,-582.083996325141 77.1801243339335,-535.761334852376 " style="fill: rgb(255,210,63); fill-opacity: 1; stroke: rgb(0,0,0); stroke-width: 3" />
	<polygon points="308.276091804205,-520.710189757888 347.680501231019,-492.081210518359 387.084910657854,-520.710189757876 372.033765563444,-567.032851230641 323.327236898656,-567.032851230649 " style="fill: rgb(255,210,63); fill-opacity: 1; stroke: rgb(0,0,0); stroke-width: 3" />
	<polygon points="187.260459565929,-567.032851230676 235.966988230715,-567.032851230663 235.966988230716,-615.739379895457 187.260459565937,-615.739379895475 " style="fill: rgb(67,184,206); fill-opacity: 1; stroke: rgb(0,0,0); stroke-width: 3" />
	<polygon points="187.260459565929,-567.032851230676 187.260459565937,-615.739379895475 145.079368412068,-591.386115563088 " style="fill: rgb(14,173,105); fill-opacity: 1; stroke: rgb(0,0,0); stroke-width: 3" />
	<polygon points="323.327236898656,-567.032851230649 323.327236898664,-615.739379895448 281.146145744796,-591.38611556306 " style="fill: rgb(14,173,105); fill-opacity: 1; stroke: rgb(0,0,0); stroke-width: 3" />
	<polygon points="308.276091804243,-662.062041368225 347.680501231065,-690.691020607744 319.051521991543,-730.095430034576 279.647112564722,-701.466450795064 " style="fill: rgb(67,184,206); fill-opacity: 1; stroke: rgb(0,0,0); stroke-width: 3" />
	<polygon points="323.327236898656,-567.032851230649 372.033765563444,-567.032851230641 372.033765563447,-615.739379895435 323.327236898664,-615.739379895448 " style="fill: rgb(67,184,206); fill-opacity: 1; stroke: rgb(0,0,0); stroke-width: 3" />
	<polygon points="62.1289792395086,-582.083996325141 101.53338866634,-610.712975564647 72.9044094268287,-650.117384991488 33.5,-621.488405751989 " style="fill: rgb(67,184,206); fill-opacity: 1; stroke: rgb(0,0,0); stroke-width: 3" />
	<polygon points="323.327236898664,-615.739379895448 372.033765563447,-615.739379895435 387.084910657879,-662.062041368203 347.680501231065,-690.691020607744 308.276091804243,-662.062041368225 " style="fill: rgb(255,210,63); fill-opacity: 1; stroke: rgb(0,0,0); stroke-width: 3" />
	<polygon points="372.033765563444,-567.032851230641 387.084910657854,-520.710189757876 419.675939716977,-556.906194502069 " style="fill: rgb(14,173,105); fill-opacity: 1; stroke: rgb(0,0,0); stroke-width: 3" />
	<polygon points="347.680501231065,-690.691020607744 367.491231196063,-735.186648627003 319.051521991543,-730.095430034576 " style="fill: rgb(14,173,105); fill-opacity: 1; stroke: rgb(0,0,0); stroke-width: 3" />
	<polygon points="372.033765563444,-567.032851230641 420.740294228238,-567.032851230638 420.740294228246,-615.739379895425 372.033765563447,-615.739379895435 " style="fill: rgb(67,184,206); fill-opacity: 1; stroke: rgb(0,0,0); stroke-width: 3" />
	<polygon points="372.033765563377,-196.968899342056 323.327236898596,-196.968899342073 323.327236898594,-148.262370677278 372.033765563369,-148.262370677257 " style="fill: rgb(67,184,206); fill-opacity: 1; stroke: rgb(0,0,0); stroke-width: 3" />
	<polygon points="387.084910657808,-243.291560814817 372.033765563377,-196.968899342056 419.675939716916,-207.095556070613 " style="fill: rgb(14,173,105); fill-opacity: 1; stroke: rgb(0,0,0); stroke-width: 3" />
	<polygon points="460.658531771345,-457.878969454188 509.098240975862,-452.787750861736 528.908970940878,-497.283378880973 492.712966196686,-529.874407940087 450.531875042806,-505.52114360772 " style="fill: rgb(255,210,63); fill-opacity: 1; stroke: rgb(0,0,0); stroke-width: 3" />
	<polygon points="372.033765563377,-196.968899342056 372.033765563369,-148.262370677257 420.740294228163,-148.262370677246 420.740294228176,-196.96889934204 " style="fill: rgb(67,184,206); fill-opacity: 1; stroke: rgb(0,0,0); stroke-width: 3" />
	<polygon points="251.018133325051,-101.939709204514 211.613723898231,-73.3107299650001 256.109351917488,-53.5 " style="fill: rgb(14,173,105); fill-opacity: 1; stroke: rgb(0,0,0); stroke-width: 3" />
	<polygon points="492.712966196686,-529.874407940087 528.908970940878,-497.283378880973 561.5,-533.47938362517 525.303995255814,-566.070412684284 " style="fill: rgb(67,184,206); fill-opacity: 1; stroke: rgb(0,0,0); stroke-width: 3" />
	<polygon points="372.033765563447,-615.739379895435 419.675939716986,-625.866036623997 387.084910657879,-662.062041368203 " style="fill: rgb(14,173,105); fill-opacity: 1; stroke: rgb(0,0,0); stroke-width: 3" />
	<polygon points="347.680501231065,-690.691020607744 387.084910657879,-662.062041368203 415.713889897423,-701.46645079502 376.309480470617,-730.09543003456 " style="fill: rgb(67,184,206); fill-opacity: 1; stroke: rgb(0,0,0); stroke-width: 3" />
	<polygon points="251.018133325051,-101.939709204514 235.966988230632,-148.262370677296 187.26045956585,-148.262370677316 172.209314471418,-101.939709204548 211.613723898231,-73.3107299650001 " style="fill: rgb(255,210,63); fill-opacity: 1; stroke: rgb(0,0,0); stroke-width: 3" />
	<polygon points="429.131857223477,-391.302994524312 465.32786196768,-358.711965465198 497.918891026792,-394.907970209394 461.722886282588,-427.498999268516 " style="fill: rgb(67,184,206); fill-opacity: 1; stroke: rgb(0,0,0); stroke-width: 3" />
	<polygon points="294.366623937152,-189.760633017876 245.926914732643,-194.851851610335 265.737644697611,-150.356223591062 " style="fill: rgb(14,173,105); fill-opacity: 1; stroke: rgb(0,0,0); stroke-width: 3" />
	<polygon points="414.08071212905,-437.625655997078 429.131857223477,-391.302994524312 461.722886282588,-427.498999268516 " style="fill: rgb(14,173,105); fill-opacity: 1; stroke: rgb(0,0,0); stroke-width: 3" />
	<polygon points="413.016357617801,-447.752312725643 460.658531771345,-457.878969454188 450.531875042806,-505.52114360772 402.889700889256,-495.394486879179 " style="fill: rgb(67,184,206); fill-opacity: 1; stroke: rgb(0,0,0); stroke-width: 3" />
	<polygon points="387.084910657808,-243.291560814817 347.680501230992,-271.920540054357 308.27609180417,-243.291560814842 323.327236898596,-196.968899342073 372.033765563377,-196.968899342056 " style="fill: rgb(255,210,63); fill-opacity: 1; stroke: rgb(0,0,0); stroke-width: 3" />
	<polygon points="145.079368411987,-172.615635009714 187.26045956585,-148.262370677316 187.260459565853,-196.96889934211 " style="fill: rgb(14,173,105); fill-opacity: 1; stroke: rgb(0,0,0); stroke-width: 3" />
	<polygon points="235.96698823064,-196.968899342095 187.260459565853,-196.96889934211 187.26045956585,-148.262370677316 235.966988230632,-148.262370677296 " style="fill: rgb(67,184,206); fill-opacity: 1; stroke: rgb(0,0,0); stroke-width: 3" />
	<polygon points="429.131857223477,-391.302994524312 389.727447796646,-362.674015284802 418.35642703616,-323.269605857964 457.760836462989,-351.898585097466 " style="fill: rgb(67,184,206); fill-opacity: 1; stroke: rgb(0,0,0); stroke-width: 3" />
	<polygon points="294.366623937152,-189.760633017876 299.457842529615,-238.200342222398 251.0181333251,-243.291560814852 245.926914732643,-194.851851610335 " style="fill: rgb(67,184,206); fill-opacity: 1; stroke: rgb(0,0,0); stroke-width: 3" />
	<polygon points="365.374183464258,-437.625655997093 413.016357617801,-447.752312725643 402.889700889256,-495.394486879179 355.247526735707,-485.267830150634 " style="fill: rgb(67,184,206); fill-opacity: 1; stroke: rgb(0,0,0); stroke-width: 3" />
	<polygon points="365.374183464242,-326.376094575613 319.051521991469,-311.324949481194 355.247526735667,-278.733920422077 " style="fill: rgb(14,173,105); fill-opacity: 1; stroke: rgb(0,0,0); stroke-width: 3" />
	<polygon points="279.647112564646,-282.695970241673 251.0181333251,-243.291560814852 299.457842529615,-238.200342222398 " style="fill: rgb(14,173,105); fill-opacity: 1; stroke: rgb(0,0,0); stroke-width: 3" />
	<polygon points="319.051521991469,-311.324949481194 279.647112564646,-282.695970241673 308.27609180417,-243.291560814842 347.680501230992,-271.920540054357 " style="fill: rgb(67,184,206); fill-opacity: 1; stroke: rgb(0,0,0); stroke-width: 3" />
	<polygon points="125.886652998674,-228.240415720473 140.937798093067,-181.917754247711 187.260459565853,-196.96889934211 172.209314471452,-243.291560814876 " style="fill: rgb(67,184,206); fill-opacity: 1; stroke: rgb(0,0,0); stroke-width: 3" />
	<polygon points="365.374183464258,-437.625655997093 350.323038369823,-391.302994524333 389.727447796646,-362.674015284802 429.131857223477,-391.302994524312 414.08071212905,-437.625655997078 " style="fill: rgb(255,210,63); fill-opacity: 1; stroke: rgb(0,0,0); stroke-width: 3" />
	<polygon points="251.0181333251,-243.291560814852 211.613723898291,-271.920540054387 172.209314471452,-243.291560814876 187.260459565853,-196.96889934211 235.96698823064,-196.968899342095 " style="fill: rgb(255,210,63); fill-opacity: 1; stroke: rgb(0,0,0); stroke-width: 3" />
	<polygon points="308.276091804205,-520.710189757888 323.327236898656,-567.032851230649 277.004575425895,-582.083996325103 261.95343033144,-535.761334852349 " style="fill: rgb(67,184,206); fill-opacity: 1; stroke: rgb(0,0,0); stroke-width: 3" />
	<polygon points="172.209314471496,-520.710189757913 187.260459565929,-567.032851230676 140.937798093162,-582.083996325114 125.886652998725,-535.761334852357 " style="fill: rgb(67,184,206); fill-opacity: 1; stroke: rgb(0,0,0); stroke-width: 3" />
	<polygon points="87.1400508359131,-401.811605251396 92.2312694283371,-353.371896046876 131.635678855171,-382.000875286396 " style="fill: rgb(14,173,105); fill-opacity: 1; stroke: rgb(0,0,0); stroke-width: 3" />
	<polygon points="279.647112564665,-481.305780331063 308.276091804205,-520.710189757888 259.836382599689,-525.801408350335 " style="fill: rgb(14,173,105); fill-opacity: 1; stroke: rgb(0,0,0); stroke-width: 3" />
	<polygon points="279.647112564665,-481.305780331063 319.051521991487,-452.676801091535 347.680501231019,-492.081210518359 308.276091804205,-520.710189757888 " style="fill: rgb(67,184,206); fill-opacity: 1; stroke: rgb(0,0,0); stroke-width: 3" />
	<polygon points="211.613723898314,-492.081210518375 251.01813332514,-520.710189757893 235.966988230715,-567.032851230663 187.260459565929,-567.032851230676 172.209314471496,-520.710189757913 " style="fill: rgb(255,210,63); fill-opacity: 1; stroke: rgb(0,0,0); stroke-width: 3" />
	<polygon points="211.613723898314,-492.081210518375 172.209314471496,-520.710189757913 167.118095879048,-472.270480553398 " style="fill: rgb(14,173,105); fill-opacity: 1; stroke: rgb(0,0,0); stroke-width: 3" />
	<polygon points="120.860248667886,-450.03426395275 92.2312694283509,-410.629854525944 131.635678855171,-382.000875286396 160.264658094705,-421.40528471321 " style="fill: rgb(67,184,206); fill-opacity: 1; stroke: rgb(0,0,0); stroke-width: 3" />
	<polygon points="240.242703137838,-452.676801091538 279.647112564665,-481.305780331063 251.01813332514,-520.710189757893 211.613723898314,-492.081210518375 " style="fill: rgb(67,184,206); fill-opacity: 1; stroke: rgb(0,0,0); stroke-width: 3" />
	<polygon points="255.293848232263,-406.354139618767 240.242703137838,-452.676801091538 207.651674078726,-416.480796347336 " style="fill: rgb(14,173,105); fill-opacity: 1; stroke: rgb(0,0,0); stroke-width: 3" />
	<polygon points="240.242703137838,-452.676801091538 211.613723898314,-492.081210518375 172.20931447148,-463.452231278857 200.838293710996,-424.047821852021 " style="fill: rgb(67,184,206); fill-opacity: 1; stroke: rgb(0,0,0); stroke-width: 3" />
	<polygon points="206.58731956747,-406.354139618771 160.264658094705,-421.40528471321 131.635678855171,-382.000875286396 160.26465809469,-342.596465859567 206.587319567462,-357.647610953983 " style="fill: rgb(255,210,63); fill-opacity: 1; stroke: rgb(0,0,0); stroke-width: 3" />
	<polygon points="255.293848232263,-406.354139618767 206.58731956747,-406.354139618771 206.587319567462,-357.647610953983 255.293848232261,-357.647610953974 " style="fill: rgb(67,184,206); fill-opacity: 1; stroke: rgb(0,0,0); stroke-width: 3" />
	<circle cx="255.293848232263" cy="-406.354139618767" r="2" style="fill: rgb(0,0,0)" />
	<circle cx="304.000376897055" cy="-406.354139618767" r="2" style="fill: rgb(0,0,0)" />
	<circle cx="319.051521991487" cy="-452.676801091535" r="2" style="fill: rgb(0,0,0)" />
	<circle cx="279.647112564665" cy="-481.305780331063" r="2" style="fill: rgb(0,0,0)" />
	<circle cx="240.242703137838" cy="-452.676801091538" r="2" style="fill: rgb(0,0,0)" />
	<circle cx="255.293848232261" cy="-357.647610953974" r="2" style="fill: rgb(0,0,0)" />
	<circle cx="304.000376897047" cy="-357.647610953968" r="2" style="fill: rgb(0,0,0)" />
	<circle cx="350.323038369823" cy="-391.302994524333" r="2" style="fill: rgb(0,0,0)" />
	<circle cx="365.374183464258" cy="-437.625655997093" r="2" style="fill: rgb(0,0,0)" />
	<circle cx="347.680501231019" cy="-492.081210518359" r="2" style="fill: rgb(0,0,0)" />
	<circle cx="308.276091804205" cy="-520.710189757888" r="2" style="fill: rgb(0,0,0)" />
	<circle cx="251.01813332514" cy="-520.710189757893" r="2" style="fill: rgb(0,0,0)" />
	<circle cx="211.613723898314" cy="-492.081210518375" r="2" style="fill: rgb(0,0,0)" />
	<circle cx="207.651674078726" cy="-416.480796347336" r="2" style="fill: rgb(0,0,0)" />
	<circle cx="240.242703137829" cy="-311.324949481207" r="2" style="fill: rgb(0,0,0)" />
	<circle cx="279.647112564646" cy="-282.695970241673" r="2" style="fill: rgb(0,0,0)" />
	<circle cx="319.051521991469" cy="-311.324949481194" r="2" style="fill: rgb(0,0,0)" />
	<circle cx="346.181468050916" cy="-382.000875286357" r="2" style="fill: rgb(0,0,0)" />
	<circle cx="206.58731956747" cy="-406.354139618771" r="2" style="fill: rgb(0,0,0)" />
	<circle cx="206.587319567462" cy="-357.647610953983" r="2" style="fill: rgb(0,0,0)" />
	<circle cx="355.247526735707" cy="-485.267830150634" r="2" style="fill: rgb(0,0,0)" />
	<circle cx="389.727447796646" cy="-362.674015284802" r="2" style="fill: rgb(0,0,0)" />
	<circle cx="429.131857223477" cy="-391.302994524312" r="2" style="fill: rgb(0,0,0)" />
	<circle cx="414.08071212905" cy="-437.625655997078" r="2" style="fill: rgb(0,0,0)" />
	<circle cx="387.084910657854" cy="-520.710189757876" r="2" style="fill: rgb(0,0,0)" />
	<circle cx="372.033765563444" cy="-567.032851230641" r="2" style="fill: rgb(0,0,0)" />
	<circle cx="323.327236898656" cy="-567.032851230649" r="2" style="fill: rgb(0,0,0)" />
	<circle cx="259.836382599689" cy="-525.801408350335" r="2" style="fill: rgb(0,0,0)" />
	<circle cx="235.966988230715" cy="-567.032851230663" r="2" style="fill: rgb(0,0,0)" />
	<circle cx="187.260459565929" cy="-567.032851230676" r="2" style="fill: rgb(0,0,0)" />
	<circle cx="172.209314471496" cy="-520.710189757913" r="2" style="fill: rgb(0,0,0)" />
	<circle cx="172.20931447148" cy="-463.452231278857" r="2" style="fill: rgb(0,0,0)" />
	<circle cx="200.838293710996" cy="-424.047821852021" r="2" style="fill: rgb(0,0,0)" />
	<circle cx="207.651674078723" cy="-347.520954225414" r="2" style="fill: rgb(0,0,0)" />
	<circle cx="211.613723898291" cy="-271.920540054387" r="2" style="fill: rgb(0,0,0)" />
	<circle cx="251.0181333251" cy="-243.291560814852" r="2" style="fill: rgb(0,0,0)" />
	<circle cx="365.374183464242" cy="-326.376094575613" r="2" style="fill: rgb(0,0,0)" />
	<circle cx="350.323038369827" cy="-372.698756048384" r="2" style="fill: rgb(0,0,0)" />
	<circle cx="308.27609180417" cy="-243.291560814842" r="2" style="fill: rgb(0,0,0)" />
	<circle cx="347.680501230992" cy="-271.920540054357" r="2" style="fill: rgb(0,0,0)" />
	<circle cx="160.264658094705" cy="-421.40528471321" r="2" style="fill: rgb(0,0,0)" />
	<circle cx="131.635678855171" cy="-382.000875286396" r="2" style="fill: rgb(0,0,0)" />
	<circle cx="160.26465809469" cy="-342.596465859567" r="2" style="fill: rgb(0,0,0)" />
	<circle cx="413.016357617801" cy="-447.752312725643" r="2" style="fill: rgb(0,0,0)" />
	<circle cx="402.889700889256" cy="-495.394486879179" r="2" style="fill: rgb(0,0,0)" />
	<circle cx="461.722886282588" cy="-427.498999268516" r="2" style="fill: rgb(0,0,0)" />
	<circle cx="418.35642703616" cy="-323.269605857964" r="2" style="fill: rgb(0,0,0)" />
	<circle cx="457.760836462989" cy="-351.898585097466" r="2" style="fill: rgb(0,0,0)" />
	<circle cx="372.033765563447" cy="-615.739379895435" r="2" style="fill: rgb(0,0,0)" />
	<circle cx="323.327236898664" cy="-615.739379895448" r="2" style="fill: rgb(0,0,0)" />
	<circle cx="419.675939716977" cy="-556.906194502069" r="2" style="fill: rgb(0,0,0)" />
	<circle cx="277.004575425895" cy="-582.083996325103" r="2" style="fill: rgb(0,0,0)" />
	<circle cx="261.95343033144" cy="-535.761334852349" r="2" style="fill: rgb(0,0,0)" />
	<circle cx="235.966988230716" cy="-615.739379895457" r="2" style="fill: rgb(0,0,0)" />
	<circle cx="187.260459565937" cy="-615.739379895475" r="2" style="fill: rgb(0,0,0)" />
	<circle cx="140.937798093162" cy="-582.083996325114" r="2" style="fill: rgb(0,0,0)" />
	<circle cx="125.886652998725" cy="-535.761334852357" r="2" style="fill: rgb(0,0,0)" />
	<circle cx="167.118095879048" cy="-472.270480553398" r="2" style="fill: rgb(0,0,0)" />
	<circle cx="171.455669334513" cy="-314.929925166307" r="2" style="fill: rgb(0,0,0)" />
	<circle cx="204.046698393612" cy="-278.733920422101" r="2" style="fill: rgb(0,0,0)" />
	<circle cx="299.457842529615" cy="-238.200342222398" r="2" style="fill: rgb(0,0,0)" />
	<circle cx="172.209314471452" cy="-243.291560814876" r="2" style="fill: rgb(0,0,0)" />
	<circle cx="187.260459565853" cy="-196.96889934211" r="2" style="fill: rgb(0,0,0)" />
	<circle cx="235.96698823064" cy="-196.968899342095" r="2" style="fill: rgb(0,0,0)" />
	<circle cx="355.247526735667" cy="-278.733920422077" r="2" style="fill: rgb(0,0,0)" />
	<circle cx="323.327236898596" cy="-196.968899342073" r="2" style="fill: rgb(0,0,0)" />
	<circle cx="372.033765563377" cy="-196.968899342056" r="2" style="fill: rgb(0,0,0)" />
	<circle cx="387.084910657808" cy="-243.291560814817" r="2" style="fill: rgb(0,0,0)" />
	<circle cx="92.2312694283371" cy="-353.371896046876" r="2" style="fill: rgb(0,0,0)" />
	<circle cx="120.860248667849" cy="-313.967486620049" r="2" style="fill: rgb(0,0,0)" />
	<circle cx="120.860248667886" cy="-450.03426395275" r="2" style="fill: rgb(0,0,0)" />
	<circle cx="92.2312694283509" cy="-410.629854525944" r="2" style="fill: rgb(0,0,0)" />
	<circle cx="460.658531771345" cy="-457.878969454188" r="2" style="fill: rgb(0,0,0)" />
	<circle cx="450.531875042806" cy="-505.52114360772" r="2" style="fill: rgb(0,0,0)" />
	<circle cx="465.32786196768" cy="-358.711965465198" r="2" style="fill: rgb(0,0,0)" />
	<circle cx="497.918891026792" cy="-394.907970209394" r="2" style="fill: rgb(0,0,0)" />
	<circle cx="281.146145744796" cy="-591.38611556306" r="2" style="fill: rgb(0,0,0)" />
	<circle cx="387.084910657879" cy="-662.062041368203" r="2" style="fill: rgb(0,0,0)" />
	<circle cx="347.680501231065" cy="-690.691020607744" r="2" style="fill: rgb(0,0,0)" />
	<circle cx="308.276091804243" cy="-662.062041368225" r="2" style="fill: rgb(0,0,0)" />
	<circle cx="420.740294228238" cy="-567.032851230638" r="2" style="fill: rgb(0,0,0)" />
	<circle cx="420.740294228246" cy="-615.739379895425" r="2" style="fill: rgb(0,0,0)" />
	<circle cx="145.079368412068" cy="-591.386115563088" r="2" style="fill: rgb(0,0,0)" />
	<circle cx="101.53338866634" cy="-610.712975564647" r="2" style="fill: rgb(0,0,0)" />
	<circle cx="62.1289792395086" cy="-582.083996325141" r="2" style="fill: rgb(0,0,0)" />
	<circle cx="77.1801243339335" cy="-535.761334852376" r="2" style="fill: rgb(0,0,0)" />
	<circle cx="156.404524240076" cy="-268.607263693542" r="2" style="fill: rgb(0,0,0)" />
	<circle cx="245.926914732643" cy="-194.851851610335" r="2" style="fill: rgb(0,0,0)" />
	<circle cx="294.366623937152" cy="-189.760633017876" r="2" style="fill: rgb(0,0,0)" />
	<circle cx="187.26045956585" cy="-148.262370677316" r="2" style="fill: rgb(0,0,0)" />
	<circle cx="235.966988230632" cy="-148.262370677296" r="2" style="fill: rgb(0,0,0)" />
	<circle cx="125.886652998674" cy="-228.240415720473" r="2" style="fill: rgb(0,0,0)" />
	<circle cx="140.937798093067" cy="-181.917754247711" r="2" style="fill: rgb(0,0,0)" />
	<circle cx="323.327236898594" cy="-148.262370677278" r="2" style="fill: rgb(0,0,0)" />
	<circle cx="372.033765563369" cy="-148.262370677257" r="2" style="fill: rgb(0,0,0)" />
	<circle cx="419.675939716916" cy="-207.095556070613" r="2" style="fill: rgb(0,0,0)" />
	<circle cx="87.1400508359131" cy="-401.811605251396" r="2" style="fill: rgb(0,0,0)" />
	<circle cx="509.098240975862" cy="-452.787750861736" r="2" style="fill: rgb(0,0,0)" />
	<circle cx="528.908970940878" cy="-497.283378880973" r="2" style="fill: rgb(0,0,0)" />
	<circle cx="492.712966196686" cy="-529.874407940087" r="2" style="fill: rgb(0,0,0)" />
	<circle cx="319.051521991543" cy="-730.095430034576" r="2" style="fill: rgb(0,0,0)" />
	<circle cx="279.647112564722" cy="-701.466450795064" r="2" style="fill: rgb(0,0,0)" />
	<circle cx="419.675939716986" cy="-625.866036623997" r="2" style="fill: rgb(0,0,0)" />
	<circle cx="415.713889897423" cy="-701.46645079502" r="2" style="fill: rgb(0,0,0)" />
	<circle cx="376.309480470617" cy="-730.09543003456" r="2" style="fill: rgb(0,0,0)" />
	<circle cx="72.9044094268287" cy="-650.117384991488" r="2" style="fill: rgb(0,0,0)" />
	<circle cx="33.5" cy="-621.488405751989" r="2" style="fill: rgb(0,0,0)" />
	<circle cx="265.737644697611" cy="-150.356223591062" r="2" style="fill: rgb(0,0,0)" />
	<circle cx="172.209314471418" cy="-101.939709204548" r="2" style="fill: rgb(0,0,0)" />
	<circle cx="211.613723898231" cy="-73.3107299650001" r="2" style="fill: rgb(0,0,0)" />
	<circle cx="251.018133325051" cy="-101.939709204514" r="2" style="fill: rgb(0,0,0)" />
	<circle cx="145.079368411987" cy="-172.615635009714" r="2" style="fill: rgb(0,0,0)" />
	<circle cx="420.740294228163" cy="-148.262370677246" r="2" style="fill: rgb(0,0,0)" />
	<circle cx="420.740294228176" cy="-196.96889934204" r="2" style="fill: rgb(0,0,0)" />
	<circle cx="561.5" cy="-533.47938362517" r="2" style="fill: rgb(0,0,0)" />
	<circle cx="525.303995255814" cy="-566.070412684284" r="2" style="fill: rgb(0,0,0)" />
	<circle cx="367.491231196063" cy="-735.186648627003" r="2" style="fill: rgb(0,0,0)" />
	<circle cx="256.109351917488" cy="-53.5" r="2" style="fill: rgb(0,0,0)" />
	<!--
	Generated using the Perl SVG Module V2.84
	by Ronan Oger
	Info: http://www.roitsystems.com/
	-->
</svg>