<?xml version="1.0" encoding="UTF-8" standalone="yes"?>
<!DOCTYPE svg PUBLIC "-//W3C//DTD SVG 1.0//EN" "http://www.w3.org/TR/2001/REC-SVG-20010904/DTD/svg10.dtd">
<!-- generated using polymake; Michael Joswig, Georg Loho, Benjamin Lorenz, Rico Raber; license CC BY-NC-ND 3.0; see polymake.org and matchthenet.de -->
<svg height="841pt" id="document" viewBox="0 -768.165894165803 572 768.165894165803" width="595pt" xmlns="http://www.w3.org/2000/svg" xmlns:svg="http://www.w3.org/2000/svg" xmlns:xlink="http://www.w3.org/1999/xlink">
	<title id="document_title">planar_net_</title>
	<polygon points="252.680169160525,-328.375693895011 321.158777203171,-328.375693895011 376.559134860814,-368.626409799995 397.720188497133,-433.753436205775 376.559134860815,-498.880462611554 321.158777203173,-539.131178516538 252.680169160526,-539.131178516538 197.279811502883,-498.880462611553 176.118757866563,-433.753436205774 197.279811502881,-368.626409799994 " style="fill: rgb(91,98,49); fill-opacity: 1; stroke: rgb(0,0,0); stroke-width: 3" />
	<polygon points="286.91947318186,-269.071479714283 321.158777203171,-328.375693895011 252.680169160525,-328.375693895011 " style="fill: rgb(186,59,38); fill-opacity: 1; stroke: rgb(0,0,0); stroke-width: 3" />
	<polygon points="443.541321019317,-484.642959428573 464.702374655646,-419.515933022789 533.180982698299,-419.515933022801 554.342036334608,-484.642959428587 498.941678676952,-524.893675333564 " style="fill: rgb(61,81,50); fill-opacity: 1; stroke: rgb(0,0,0); stroke-width: 3" />
	<polygon points="376.559134860819,-203.944453308516 321.158777203179,-163.693737403524 383.71709852623,-135.840978245761 " style="fill: rgb(186,59,38); fill-opacity: 1; stroke: rgb(0,0,0); stroke-width: 3" />
	<polygon points="397.720188497133,-433.753436205775 464.702374655646,-419.515933022789 443.541321019317,-484.642959428573 " style="fill: rgb(186,59,38); fill-opacity: 1; stroke: rgb(0,0,0); stroke-width: 3" />
	<polygon points="376.559134860815,-498.880462611554 397.720188497133,-433.753436205775 443.541321019317,-484.642959428573 " style="fill: rgb(186,59,38); fill-opacity: 1; stroke: rgb(0,0,0); stroke-width: 3" />
	<polygon points="151.458678980707,-317.7368865772 130.29762534438,-382.863912982976 61.81901730173,-382.863912982968 40.6579636654178,-317.736886577189 96.0583213230692,-277.486170672212 " style="fill: rgb(61,81,50); fill-opacity: 1; stroke: rgb(0,0,0); stroke-width: 3" />
	<polygon points="197.279811502881,-368.626409799994 130.29762534438,-382.863912982976 151.458678980707,-317.7368865772 " style="fill: rgb(186,59,38); fill-opacity: 1; stroke: rgb(0,0,0); stroke-width: 3" />
	<polygon points="79.3211325221921,-566.983937674297 100.482186158503,-632.110964080087 33.5,-617.873460897084 " style="fill: rgb(186,59,38); fill-opacity: 1; stroke: rgb(0,0,0); stroke-width: 3" />
	<polygon points="286.919473181839,-598.435392697268 355.398081224496,-598.435392697277 376.559134860818,-663.562419103066 321.158777203168,-703.81313500804 265.758419545516,-663.56241910304 " style="fill: rgb(61,81,50); fill-opacity: 1; stroke: rgb(0,0,0); stroke-width: 3" />
	<polygon points="265.758419545516,-663.56241910304 321.158777203168,-703.81313500804 258.600455880118,-731.665894165803 " style="fill: rgb(186,59,38); fill-opacity: 1; stroke: rgb(0,0,0); stroke-width: 3" />
	<polygon points="321.158777203173,-539.131178516538 355.398081224496,-598.435392697277 286.919473181839,-598.435392697268 " style="fill: rgb(186,59,38); fill-opacity: 1; stroke: rgb(0,0,0); stroke-width: 3" />
	<polygon points="252.680169160526,-539.131178516538 321.158777203173,-539.131178516538 286.919473181839,-598.435392697268 " style="fill: rgb(186,59,38); fill-opacity: 1; stroke: rgb(0,0,0); stroke-width: 3" />
	<polygon points="197.279811502883,-498.880462611553 190.12184783747,-566.983937674303 134.721490179832,-526.733221769316 " style="fill: rgb(186,59,38); fill-opacity: 1; stroke: rgb(0,0,0); stroke-width: 3" />
	<polygon points="252.680169160526,-539.131178516538 286.919473181839,-598.435392697268 218.440865139194,-598.435392697263 " style="fill: rgb(186,59,38); fill-opacity: 1; stroke: rgb(0,0,0); stroke-width: 3" />
	<polygon points="197.279811502883,-498.880462611553 252.680169160526,-539.131178516538 190.12184783747,-566.983937674303 " style="fill: rgb(186,59,38); fill-opacity: 1; stroke: rgb(0,0,0); stroke-width: 3" />
	<polygon points="218.440865139194,-598.435392697263 286.919473181839,-598.435392697268 252.680169160505,-657.739606877995 " style="fill: rgb(186,59,38); fill-opacity: 1; stroke: rgb(0,0,0); stroke-width: 3" />
	<polygon points="176.118757866563,-433.753436205774 197.279811502883,-498.880462611553 130.297625344374,-484.642959428552 " style="fill: rgb(186,59,38); fill-opacity: 1; stroke: rgb(0,0,0); stroke-width: 3" />
	<polygon points="134.721490179832,-526.733221769316 190.12184783747,-566.983937674303 168.960794201145,-632.110964080089 100.482186158503,-632.110964080087 79.3211325221921,-566.983937674297 " style="fill: rgb(61,81,50); fill-opacity: 1; stroke: rgb(0,0,0); stroke-width: 3" />
	<polygon points="176.118757866563,-433.753436205774 130.297625344374,-484.642959428552 109.136571708062,-419.515933022772 " style="fill: rgb(186,59,38); fill-opacity: 1; stroke: rgb(0,0,0); stroke-width: 3" />
	<polygon points="109.136571708062,-419.515933022772 130.297625344374,-484.642959428552 63.315439185869,-470.405456245544 " style="fill: rgb(186,59,38); fill-opacity: 1; stroke: rgb(0,0,0); stroke-width: 3" />
	<polygon points="321.158777203173,-539.131178516538 376.559134860815,-498.880462611554 383.717098526211,-566.983937674316 " style="fill: rgb(186,59,38); fill-opacity: 1; stroke: rgb(0,0,0); stroke-width: 3" />
	<polygon points="197.279811502881,-368.626409799994 176.118757866563,-433.753436205774 130.29762534438,-382.863912982976 " style="fill: rgb(186,59,38); fill-opacity: 1; stroke: rgb(0,0,0); stroke-width: 3" />
	<polygon points="376.559134860815,-498.880462611554 443.541321019317,-484.642959428573 422.38026738299,-549.769985834352 " style="fill: rgb(186,59,38); fill-opacity: 1; stroke: rgb(0,0,0); stroke-width: 3" />
	<polygon points="422.38026738299,-549.769985834352 443.541321019317,-484.642959428573 489.362453541492,-535.532482651375 " style="fill: rgb(186,59,38); fill-opacity: 1; stroke: rgb(0,0,0); stroke-width: 3" />
	<polygon points="498.941678676952,-524.893675333564 554.342036334608,-484.642959428587 561.5,-552.746434491341 " style="fill: rgb(186,59,38); fill-opacity: 1; stroke: rgb(0,0,0); stroke-width: 3" />
	<polygon points="321.158777203179,-163.693737403524 265.758419545542,-203.9444533085 258.600455880133,-135.840978245739 " style="fill: rgb(186,59,38); fill-opacity: 1; stroke: rgb(0,0,0); stroke-width: 3" />
	<polygon points="321.158777203179,-163.693737403524 275.337644681002,-112.804214180722 309.576948702324,-53.5 376.559134860823,-67.7375031830121 383.71709852623,-135.840978245761 " style="fill: rgb(61,81,50); fill-opacity: 1; stroke: rgb(0,0,0); stroke-width: 3" />
	<polygon points="252.680169160525,-328.375693895011 197.279811502881,-368.626409799994 190.121847837488,-300.522934737234 " style="fill: rgb(186,59,38); fill-opacity: 1; stroke: rgb(0,0,0); stroke-width: 3" />
	<polygon points="286.91947318186,-269.071479714283 218.440865139206,-269.071479714277 252.680169160539,-209.767265533547 " style="fill: rgb(186,59,38); fill-opacity: 1; stroke: rgb(0,0,0); stroke-width: 3" />
	<polygon points="252.680169160525,-328.375693895011 218.440865139206,-269.071479714277 286.91947318186,-269.071479714283 " style="fill: rgb(186,59,38); fill-opacity: 1; stroke: rgb(0,0,0); stroke-width: 3" />
	<polygon points="397.720188497133,-433.753436205775 376.559134860814,-368.626409799995 443.541321019323,-382.863912982998 " style="fill: rgb(186,59,38); fill-opacity: 1; stroke: rgb(0,0,0); stroke-width: 3" />
	<polygon points="443.541321019323,-382.863912982998 422.380267383009,-317.73688657721 489.362453541516,-331.974389760222 " style="fill: rgb(186,59,38); fill-opacity: 1; stroke: rgb(0,0,0); stroke-width: 3" />
	<polygon points="376.559134860814,-368.626409799995 422.380267383009,-317.73688657721 443.541321019323,-382.863912982998 " style="fill: rgb(186,59,38); fill-opacity: 1; stroke: rgb(0,0,0); stroke-width: 3" />
	<polygon points="355.398081224506,-269.071479714292 321.158777203171,-328.375693895011 286.91947318186,-269.071479714283 " style="fill: rgb(186,59,38); fill-opacity: 1; stroke: rgb(0,0,0); stroke-width: 3" />
	<polygon points="376.559134860814,-368.626409799995 321.158777203171,-328.375693895011 383.717098526227,-300.522934737248 " style="fill: rgb(186,59,38); fill-opacity: 1; stroke: rgb(0,0,0); stroke-width: 3" />
	<polygon points="355.398081224506,-269.071479714292 286.91947318186,-269.071479714283 265.758419545542,-203.9444533085 321.158777203179,-163.693737403524 376.559134860819,-203.944453308516 " style="fill: rgb(61,81,50); fill-opacity: 1; stroke: rgb(0,0,0); stroke-width: 3" />
	<circle cx="252.680169160525" cy="-328.375693895011" r="2" style="fill: rgb(0,0,0)" />
	<circle cx="321.158777203171" cy="-328.375693895011" r="2" style="fill: rgb(0,0,0)" />
	<circle cx="376.559134860814" cy="-368.626409799995" r="2" style="fill: rgb(0,0,0)" />
	<circle cx="397.720188497133" cy="-433.753436205775" r="2" style="fill: rgb(0,0,0)" />
	<circle cx="376.559134860815" cy="-498.880462611554" r="2" style="fill: rgb(0,0,0)" />
	<circle cx="321.158777203173" cy="-539.131178516538" r="2" style="fill: rgb(0,0,0)" />
	<circle cx="252.680169160526" cy="-539.131178516538" r="2" style="fill: rgb(0,0,0)" />
	<circle cx="197.279811502883" cy="-498.880462611553" r="2" style="fill: rgb(0,0,0)" />
	<circle cx="176.118757866563" cy="-433.753436205774" r="2" style="fill: rgb(0,0,0)" />
	<circle cx="197.279811502881" cy="-368.626409799994" r="2" style="fill: rgb(0,0,0)" />
	<circle cx="286.91947318186" cy="-269.071479714283" r="2" style="fill: rgb(0,0,0)" />
	<circle cx="443.541321019317" cy="-484.642959428573" r="2" style="fill: rgb(0,0,0)" />
	<circle cx="286.919473181839" cy="-598.435392697268" r="2" style="fill: rgb(0,0,0)" />
	<circle cx="190.12184783747" cy="-566.983937674303" r="2" style="fill: rgb(0,0,0)" />
	<circle cx="130.297625344374" cy="-484.642959428552" r="2" style="fill: rgb(0,0,0)" />
	<circle cx="383.717098526211" cy="-566.983937674316" r="2" style="fill: rgb(0,0,0)" />
	<circle cx="130.29762534438" cy="-382.863912982976" r="2" style="fill: rgb(0,0,0)" />
	<circle cx="190.121847837488" cy="-300.522934737234" r="2" style="fill: rgb(0,0,0)" />
	<circle cx="443.541321019323" cy="-382.863912982998" r="2" style="fill: rgb(0,0,0)" />
	<circle cx="383.717098526227" cy="-300.522934737248" r="2" style="fill: rgb(0,0,0)" />
	<circle cx="218.440865139206" cy="-269.071479714277" r="2" style="fill: rgb(0,0,0)" />
	<circle cx="355.398081224506" cy="-269.071479714292" r="2" style="fill: rgb(0,0,0)" />
	<circle cx="464.702374655646" cy="-419.515933022789" r="2" style="fill: rgb(0,0,0)" />
	<circle cx="422.38026738299" cy="-549.769985834352" r="2" style="fill: rgb(0,0,0)" />
	<circle cx="355.398081224496" cy="-598.435392697277" r="2" style="fill: rgb(0,0,0)" />
	<circle cx="218.440865139194" cy="-598.435392697263" r="2" style="fill: rgb(0,0,0)" />
	<circle cx="134.721490179832" cy="-526.733221769316" r="2" style="fill: rgb(0,0,0)" />
	<circle cx="109.136571708062" cy="-419.515933022772" r="2" style="fill: rgb(0,0,0)" />
	<circle cx="151.458678980707" cy="-317.7368865772" r="2" style="fill: rgb(0,0,0)" />
	<circle cx="422.380267383009" cy="-317.73688657721" r="2" style="fill: rgb(0,0,0)" />
	<circle cx="252.680169160539" cy="-209.767265533547" r="2" style="fill: rgb(0,0,0)" />
	<circle cx="265.758419545542" cy="-203.9444533085" r="2" style="fill: rgb(0,0,0)" />
	<circle cx="321.158777203179" cy="-163.693737403524" r="2" style="fill: rgb(0,0,0)" />
	<circle cx="376.559134860819" cy="-203.944453308516" r="2" style="fill: rgb(0,0,0)" />
	<circle cx="533.180982698299" cy="-419.515933022801" r="2" style="fill: rgb(0,0,0)" />
	<circle cx="554.342036334608" cy="-484.642959428587" r="2" style="fill: rgb(0,0,0)" />
	<circle cx="498.941678676952" cy="-524.893675333564" r="2" style="fill: rgb(0,0,0)" />
	<circle cx="489.362453541492" cy="-535.532482651375" r="2" style="fill: rgb(0,0,0)" />
	<circle cx="376.559134860818" cy="-663.562419103066" r="2" style="fill: rgb(0,0,0)" />
	<circle cx="321.158777203168" cy="-703.81313500804" r="2" style="fill: rgb(0,0,0)" />
	<circle cx="265.758419545516" cy="-663.56241910304" r="2" style="fill: rgb(0,0,0)" />
	<circle cx="252.680169160505" cy="-657.739606877995" r="2" style="fill: rgb(0,0,0)" />
	<circle cx="168.960794201145" cy="-632.110964080089" r="2" style="fill: rgb(0,0,0)" />
	<circle cx="100.482186158503" cy="-632.110964080087" r="2" style="fill: rgb(0,0,0)" />
	<circle cx="79.3211325221921" cy="-566.983937674297" r="2" style="fill: rgb(0,0,0)" />
	<circle cx="63.315439185869" cy="-470.405456245544" r="2" style="fill: rgb(0,0,0)" />
	<circle cx="61.81901730173" cy="-382.863912982968" r="2" style="fill: rgb(0,0,0)" />
	<circle cx="40.6579636654178" cy="-317.736886577189" r="2" style="fill: rgb(0,0,0)" />
	<circle cx="96.0583213230692" cy="-277.486170672212" r="2" style="fill: rgb(0,0,0)" />
	<circle cx="489.362453541516" cy="-331.974389760222" r="2" style="fill: rgb(0,0,0)" />
	<circle cx="383.71709852623" cy="-135.840978245761" r="2" style="fill: rgb(0,0,0)" />
	<circle cx="258.600455880133" cy="-135.840978245739" r="2" style="fill: rgb(0,0,0)" />
	<circle cx="561.5" cy="-552.746434491341" r="2" style="fill: rgb(0,0,0)" />
	<circle cx="258.600455880118" cy="-731.665894165803" r="2" style="fill: rgb(0,0,0)" />
	<circle cx="33.5" cy="-617.873460897084" r="2" style="fill: rgb(0,0,0)" />
	<circle cx="275.337644681002" cy="-112.804214180722" r="2" style="fill: rgb(0,0,0)" />
	<circle cx="309.576948702324" cy="-53.5" r="2" style="fill: rgb(0,0,0)" />
	<circle cx="376.559134860823" cy="-67.7375031830121" r="2" style="fill: rgb(0,0,0)" />
	<!--
	Generated using the Perl SVG Module V2.86
	by Ronan Oger
	Info: http://www.roitsystems.com/
	-->
</svg>