<?xml version="1.0" encoding="UTF-8" standalone="yes"?>
<!DOCTYPE svg PUBLIC "-//W3C//DTD SVG 1.0//EN" "http://www.w3.org/TR/2001/REC-SVG-20010904/DTD/svg10.dtd">
<!-- generated using polymake; Michael Joswig, Georg Loho, Benjamin Lorenz, Rico Raber; license CC BY-NC-ND 3.0; see polymake.org and matchthenet.de -->
<svg height="841pt" id="document" viewBox="0 -682.415662727845 572 682.415662727845" width="595pt" xmlns="http://www.w3.org/2000/svg" xmlns:svg="http://www.w3.org/2000/svg" xmlns:xlink="http://www.w3.org/1999/xlink">
	<title id="document_title">planar_net_</title>
	<polygon points="288.05201150488,-349.707831363921 355.168832232641,-349.707831363921 324.732650453661,-409.526778724432 258.366309194456,-409.066588974554 " style="fill: rgb(14,173,105); fill-opacity: 1; stroke: rgb(0,0,0); stroke-width: 3" />
	<polygon points="288.05201150488,-349.707831363921 258.366309194448,-290.349073753302 324.732650453655,-289.888884003414 355.168832232641,-349.707831363921 " style="fill: rgb(14,173,105); fill-opacity: 1; stroke: rgb(0,0,0); stroke-width: 3" />
	<polygon points="324.732650453661,-409.526778724432 355.168832232641,-349.707831363921 394.681211890691,-403.96130570761 364.175206528788,-462.902688993029 " style="fill: rgb(14,173,105); fill-opacity: 1; stroke: rgb(0,0,0); stroke-width: 3" />
	<polygon points="288.05201150488,-349.707831363921 258.366309194456,-409.066588974554 218.707483275006,-356.202964885804 247.859715129815,-296.894174618343 " style="fill: rgb(14,173,105); fill-opacity: 1; stroke: rgb(0,0,0); stroke-width: 3" />
	<polygon points="394.681211890677,-295.454357020228 355.168832232641,-349.707831363921 324.732650453655,-289.888884003414 364.175206528762,-236.512973734809 " style="fill: rgb(14,173,105); fill-opacity: 1; stroke: rgb(0,0,0); stroke-width: 3" />
	<polygon points="258.366309194456,-409.066588974554 324.732650453661,-409.526778724432 353.577242512752,-469.298783339341 287.497354000013,-468.385788679561 " style="fill: rgb(14,173,105); fill-opacity: 1; stroke: rgb(0,0,0); stroke-width: 3" />
	<polygon points="394.681211890691,-403.96130570761 355.168832232641,-349.707831363921 421.441215927993,-339.094689324956 460.13978882518,-393.012436704275 " style="fill: rgb(14,173,105); fill-opacity: 1; stroke: rgb(0,0,0); stroke-width: 3" />
	<polygon points="218.707483275006,-356.202964885804 258.366309194456,-409.066588974554 211.114979887642,-417.122180358838 200.845323580501,-359.528180226338 " style="fill: rgb(14,173,105); fill-opacity: 1; stroke: rgb(0,0,0); stroke-width: 3" />
	<polygon points="324.732650453655,-289.888884003414 258.366309194448,-290.349073753302 287.49735399999,-231.029874048284 353.577242512726,-230.11687938849 " style="fill: rgb(14,173,105); fill-opacity: 1; stroke: rgb(0,0,0); stroke-width: 3" />
	<polygon points="258.366309194456,-409.066588974554 287.497354000013,-468.385788679561 276.433557878666,-482.797805242079 229.759068502259,-447.527042089279 " style="fill: rgb(14,173,105); fill-opacity: 1; stroke: rgb(0,0,0); stroke-width: 3" />
	<polygon points="247.859715129815,-296.894174618343 218.707483275006,-356.202964885804 200.538516793826,-356.252593695606 199.934329257934,-297.753280457322 " style="fill: rgb(14,173,105); fill-opacity: 1; stroke: rgb(0,0,0); stroke-width: 3" />
	<polygon points="364.175206528788,-462.902688993029 394.681211890691,-403.96130570761 461.034438945444,-405.358548048928 430.254764702801,-463.839287430552 " style="fill: rgb(14,173,105); fill-opacity: 1; stroke: rgb(0,0,0); stroke-width: 3" />
	<polygon points="258.366309194448,-290.349073753302 229.759068502244,-251.888620638578 276.433557878643,-216.61785748577 287.49735399999,-231.029874048284 " style="fill: rgb(14,173,105); fill-opacity: 1; stroke: rgb(0,0,0); stroke-width: 3" />
	<polygon points="287.497354000013,-468.385788679561 353.577242512752,-469.298783339341 331.078313826789,-511.623467411352 279.213846174553,-484.556666952506 " style="fill: rgb(14,173,105); fill-opacity: 1; stroke: rgb(0,0,0); stroke-width: 3" />
	<polygon points="461.034438945435,-294.057114678885 394.681211890677,-295.454357020228 364.175206528762,-236.512973734809 430.254764702779,-235.576375297264 " style="fill: rgb(14,173,105); fill-opacity: 1; stroke: rgb(0,0,0); stroke-width: 3" />
	<polygon points="364.175206528788,-462.902688993029 430.254764702801,-463.839287430552 438.082488729362,-480.235645031465 385.480873676349,-505.840425556669 " style="fill: rgb(14,173,105); fill-opacity: 1; stroke: rgb(0,0,0); stroke-width: 3" />
	<polygon points="287.49735399999,-231.029874048284 279.213846174531,-214.858995775333 331.078313826758,-187.792195316485 353.577242512726,-230.11687938849 " style="fill: rgb(14,173,105); fill-opacity: 1; stroke: rgb(0,0,0); stroke-width: 3" />
	<polygon points="430.254764702779,-235.576375297264 364.175206528762,-236.512973734809 385.480873676318,-193.575237171161 438.082488729335,-219.180017696356 " style="fill: rgb(14,173,105); fill-opacity: 1; stroke: rgb(0,0,0); stroke-width: 3" />
	<polygon points="430.254764702801,-463.839287430552 461.034438945444,-405.358548048928 488.554165672778,-444.604507263408 440.910909592917,-478.555278124134 " style="fill: rgb(14,173,105); fill-opacity: 1; stroke: rgb(0,0,0); stroke-width: 3" />
	<polygon points="461.034438945435,-294.057114678885 430.254764702779,-235.576375297264 440.910909592904,-220.860384603679 488.554165672761,-254.811155464407 " style="fill: rgb(14,173,105); fill-opacity: 1; stroke: rgb(0,0,0); stroke-width: 3" />
	<polygon points="200.845323580501,-359.528180226338 211.114979887642,-417.122180358838 41.8240781280525,-417.596049702342 " style="fill: rgb(14,173,105); fill-opacity: 1; stroke: rgb(0,0,0); stroke-width: 3" />
	<polygon points="229.759068502259,-447.527042089279 276.433557878666,-482.797805242079 152.566570874749,-598.19539404402 " style="fill: rgb(14,173,105); fill-opacity: 1; stroke: rgb(0,0,0); stroke-width: 3" />
	<polygon points="199.934329257934,-297.753280457322 200.538516793826,-356.252593695606 33.5,-328.725009746977 " style="fill: rgb(14,173,105); fill-opacity: 1; stroke: rgb(0,0,0); stroke-width: 3" />
	<polygon points="229.759068502244,-251.888620638578 152.566570874706,-101.220268683851 276.433557878643,-216.61785748577 " style="fill: rgb(14,173,105); fill-opacity: 1; stroke: rgb(0,0,0); stroke-width: 3" />
	<polygon points="279.213846174553,-484.556666952506 331.078313826789,-511.623467411352 227.999507819892,-645.915662727845 " style="fill: rgb(14,173,105); fill-opacity: 1; stroke: rgb(0,0,0); stroke-width: 3" />
	<polygon points="385.480873676349,-505.840425556669 438.082488729362,-480.235645031465 484.761162171222,-642.964669536747 " style="fill: rgb(14,173,105); fill-opacity: 1; stroke: rgb(0,0,0); stroke-width: 3" />
	<polygon points="279.213846174531,-214.858995775333 227.999507819853,-53.5 331.078313826758,-187.792195316485 " style="fill: rgb(14,173,105); fill-opacity: 1; stroke: rgb(0,0,0); stroke-width: 3" />
	<polygon points="438.082488729335,-219.180017696356 385.480873676318,-193.575237171161 484.761162171166,-56.4509931910651 " style="fill: rgb(14,173,105); fill-opacity: 1; stroke: rgb(0,0,0); stroke-width: 3" />
	<polygon points="440.910909592917,-478.555278124134 488.554165672778,-444.604507263408 561.5,-597.374069758815 " style="fill: rgb(14,173,105); fill-opacity: 1; stroke: rgb(0,0,0); stroke-width: 3" />
	<polygon points="488.554165672761,-254.811155464407 440.910909592904,-220.860384603679 561.499999999997,-102.041592969007 " style="fill: rgb(14,173,105); fill-opacity: 1; stroke: rgb(0,0,0); stroke-width: 3" />
	<circle cx="288.05201150488" cy="-349.707831363921" r="2" style="fill: rgb(0,0,0)" />
	<circle cx="355.168832232641" cy="-349.707831363921" r="2" style="fill: rgb(0,0,0)" />
	<circle cx="324.732650453661" cy="-409.526778724432" r="2" style="fill: rgb(0,0,0)" />
	<circle cx="258.366309194456" cy="-409.066588974554" r="2" style="fill: rgb(0,0,0)" />
	<circle cx="258.366309194448" cy="-290.349073753302" r="2" style="fill: rgb(0,0,0)" />
	<circle cx="324.732650453655" cy="-289.888884003414" r="2" style="fill: rgb(0,0,0)" />
	<circle cx="394.681211890691" cy="-403.96130570761" r="2" style="fill: rgb(0,0,0)" />
	<circle cx="364.175206528788" cy="-462.902688993029" r="2" style="fill: rgb(0,0,0)" />
	<circle cx="218.707483275006" cy="-356.202964885804" r="2" style="fill: rgb(0,0,0)" />
	<circle cx="247.859715129815" cy="-296.894174618343" r="2" style="fill: rgb(0,0,0)" />
	<circle cx="353.577242512752" cy="-469.298783339341" r="2" style="fill: rgb(0,0,0)" />
	<circle cx="287.497354000013" cy="-468.385788679561" r="2" style="fill: rgb(0,0,0)" />
	<circle cx="364.175206528762" cy="-236.512973734809" r="2" style="fill: rgb(0,0,0)" />
	<circle cx="394.681211890677" cy="-295.454357020228" r="2" style="fill: rgb(0,0,0)" />
	<circle cx="287.49735399999" cy="-231.029874048284" r="2" style="fill: rgb(0,0,0)" />
	<circle cx="353.577242512726" cy="-230.11687938849" r="2" style="fill: rgb(0,0,0)" />
	<circle cx="421.441215927993" cy="-339.094689324956" r="2" style="fill: rgb(0,0,0)" />
	<circle cx="460.13978882518" cy="-393.012436704275" r="2" style="fill: rgb(0,0,0)" />
	<circle cx="461.034438945444" cy="-405.358548048928" r="2" style="fill: rgb(0,0,0)" />
	<circle cx="430.254764702801" cy="-463.839287430552" r="2" style="fill: rgb(0,0,0)" />
	<circle cx="211.114979887642" cy="-417.122180358838" r="2" style="fill: rgb(0,0,0)" />
	<circle cx="200.845323580501" cy="-359.528180226338" r="2" style="fill: rgb(0,0,0)" />
	<circle cx="200.538516793826" cy="-356.252593695606" r="2" style="fill: rgb(0,0,0)" />
	<circle cx="199.934329257934" cy="-297.753280457322" r="2" style="fill: rgb(0,0,0)" />
	<circle cx="276.433557878666" cy="-482.797805242079" r="2" style="fill: rgb(0,0,0)" />
	<circle cx="229.759068502259" cy="-447.527042089279" r="2" style="fill: rgb(0,0,0)" />
	<circle cx="331.078313826789" cy="-511.623467411352" r="2" style="fill: rgb(0,0,0)" />
	<circle cx="279.213846174553" cy="-484.556666952506" r="2" style="fill: rgb(0,0,0)" />
	<circle cx="430.254764702779" cy="-235.576375297264" r="2" style="fill: rgb(0,0,0)" />
	<circle cx="461.034438945435" cy="-294.057114678885" r="2" style="fill: rgb(0,0,0)" />
	<circle cx="229.759068502244" cy="-251.888620638578" r="2" style="fill: rgb(0,0,0)" />
	<circle cx="276.433557878643" cy="-216.61785748577" r="2" style="fill: rgb(0,0,0)" />
	<circle cx="279.213846174531" cy="-214.858995775333" r="2" style="fill: rgb(0,0,0)" />
	<circle cx="331.078313826758" cy="-187.792195316485" r="2" style="fill: rgb(0,0,0)" />
	<circle cx="438.082488729362" cy="-480.235645031465" r="2" style="fill: rgb(0,0,0)" />
	<circle cx="385.480873676349" cy="-505.840425556669" r="2" style="fill: rgb(0,0,0)" />
	<circle cx="488.554165672778" cy="-444.604507263408" r="2" style="fill: rgb(0,0,0)" />
	<circle cx="440.910909592917" cy="-478.555278124134" r="2" style="fill: rgb(0,0,0)" />
	<circle cx="41.8240781280525" cy="-417.596049702342" r="2" style="fill: rgb(0,0,0)" />
	<circle cx="33.5" cy="-328.725009746977" r="2" style="fill: rgb(0,0,0)" />
	<circle cx="152.566570874749" cy="-598.19539404402" r="2" style="fill: rgb(0,0,0)" />
	<circle cx="227.999507819892" cy="-645.915662727845" r="2" style="fill: rgb(0,0,0)" />
	<circle cx="385.480873676318" cy="-193.575237171161" r="2" style="fill: rgb(0,0,0)" />
	<circle cx="438.082488729335" cy="-219.180017696356" r="2" style="fill: rgb(0,0,0)" />
	<circle cx="440.910909592904" cy="-220.860384603679" r="2" style="fill: rgb(0,0,0)" />
	<circle cx="488.554165672761" cy="-254.811155464407" r="2" style="fill: rgb(0,0,0)" />
	<circle cx="152.566570874706" cy="-101.220268683851" r="2" style="fill: rgb(0,0,0)" />
	<circle cx="227.999507819853" cy="-53.5" r="2" style="fill: rgb(0,0,0)" />
	<circle cx="484.761162171222" cy="-642.964669536747" r="2" style="fill: rgb(0,0,0)" />
	<circle cx="561.5" cy="-597.374069758815" r="2" style="fill: rgb(0,0,0)" />
	<circle cx="484.761162171166" cy="-56.4509931910651" r="2" style="fill: rgb(0,0,0)" />
	<circle cx="561.499999999997" cy="-102.041592969007" r="2" style="fill: rgb(0,0,0)" />
	<!--
	Generated using the Perl SVG Module V2.87
	by Ronan Oger

	-->
</svg>