<?xml version="1.0" encoding="UTF-8" standalone="yes"?>
<!DOCTYPE svg PUBLIC "-//W3C//DTD SVG 1.0//EN" "http://www.w3.org/TR/2001/REC-SVG-20010904/DTD/svg10.dtd">
<!-- generated using polymake; Michael Joswig, Georg Loho, Benjamin Lorenz, Rico Raber; license CC BY-NC-ND 3.0; see polymake.org and matchthenet.de -->
<svg height="841pt" id="document" viewBox="0 -489.121741805107 572 489.121741805107" width="595pt" xmlns="http://www.w3.org/2000/svg" xmlns:svg="http://www.w3.org/2000/svg" xmlns:xlink="http://www.w3.org/1999/xlink">
	<title id="document_title">planar_net_</title>
	<polygon points="206.324783802953,-253.060870902557 321.541306338251,-253.060870902557 263.933045070603,-352.841306353828 " style="fill: rgb(14,173,105); fill-opacity: 1; stroke: rgb(0,0,0); stroke-width: 3" />
	<polygon points="148.716522535305,-352.841306353829 263.933045070603,-352.841306353828 206.324783802944,-452.621741805098 " style="fill: rgb(14,173,105); fill-opacity: 1; stroke: rgb(0,0,0); stroke-width: 3" />
	<polygon points="263.9330450706,-153.28043545128 321.541306338251,-253.060870902557 206.324783802953,-253.060870902557 " style="fill: rgb(14,173,105); fill-opacity: 1; stroke: rgb(0,0,0); stroke-width: 3" />
	<polygon points="206.324783802953,-253.060870902557 148.716522535292,-153.280435451287 263.9330450706,-153.28043545128 " style="fill: rgb(14,173,105); fill-opacity: 1; stroke: rgb(0,0,0); stroke-width: 3" />
	<polygon points="379.149567605905,-153.280435451292 321.541306338251,-253.060870902557 263.9330450706,-153.28043545128 " style="fill: rgb(14,173,105); fill-opacity: 1; stroke: rgb(0,0,0); stroke-width: 3" />
	<polygon points="206.324783802953,-253.060870902557 148.716522535305,-352.841306353829 91.1082612676528,-253.06087090256 " style="fill: rgb(14,173,105); fill-opacity: 1; stroke: rgb(0,0,0); stroke-width: 3" />
	<polygon points="206.324783802953,-253.060870902557 263.933045070603,-352.841306353828 148.716522535305,-352.841306353829 " style="fill: rgb(14,173,105); fill-opacity: 1; stroke: rgb(0,0,0); stroke-width: 3" />
	<polygon points="263.933045070603,-352.841306353828 321.541306338251,-253.060870902557 379.149567605896,-352.841306353835 " style="fill: rgb(14,173,105); fill-opacity: 1; stroke: rgb(0,0,0); stroke-width: 3" />
	<polygon points="263.9330450706,-153.28043545128 148.716522535292,-153.280435451287 206.324783802952,-53.5000000000159 " style="fill: rgb(14,173,105); fill-opacity: 1; stroke: rgb(0,0,0); stroke-width: 3" />
	<polygon points="379.149567605896,-352.841306353835 321.541306338251,-253.060870902557 436.757828873559,-253.06087090256 " style="fill: rgb(14,173,105); fill-opacity: 1; stroke: rgb(0,0,0); stroke-width: 3" />
	<polygon points="91.1082612676528,-253.06087090256 148.716522535305,-352.841306353829 33.5,-352.841306353822 " style="fill: rgb(14,173,105); fill-opacity: 1; stroke: rgb(0,0,0); stroke-width: 3" />
	<polygon points="379.149567605905,-153.280435451292 263.9330450706,-153.28043545128 321.54130633825,-53.5 " style="fill: rgb(14,173,105); fill-opacity: 1; stroke: rgb(0,0,0); stroke-width: 3" />
	<polygon points="379.149567605896,-352.841306353835 436.757828873559,-253.06087090256 549.456593956361,-277.015732913026 561.5,-391.601087282583 456.244469192484,-438.463868885453 " style="fill: rgb(14,173,105); fill-opacity: 1; stroke: rgb(0,0,0); stroke-width: 3" />
	<polygon points="91.1082612676429,-53.5000000000053 206.324783802952,-53.5000000000159 148.716522535292,-153.280435451287 " style="fill: rgb(14,173,105); fill-opacity: 1; stroke: rgb(0,0,0); stroke-width: 3" />
	<polygon points="263.933045070603,-352.841306353828 379.149567605896,-352.841306353835 321.541306338248,-452.621741805107 " style="fill: rgb(14,173,105); fill-opacity: 1; stroke: rgb(0,0,0); stroke-width: 3" />
	<polygon points="148.716522535305,-352.841306353829 206.324783802944,-452.621741805098 91.108261267645,-452.621741805091 " style="fill: rgb(14,173,105); fill-opacity: 1; stroke: rgb(0,0,0); stroke-width: 3" />
	<circle cx="206.324783802953" cy="-253.060870902557" r="2" style="fill: rgb(0,0,0)" />
	<circle cx="321.541306338251" cy="-253.060870902557" r="2" style="fill: rgb(0,0,0)" />
	<circle cx="263.933045070603" cy="-352.841306353828" r="2" style="fill: rgb(0,0,0)" />
	<circle cx="263.9330450706" cy="-153.28043545128" r="2" style="fill: rgb(0,0,0)" />
	<circle cx="148.716522535305" cy="-352.841306353829" r="2" style="fill: rgb(0,0,0)" />
	<circle cx="379.149567605896" cy="-352.841306353835" r="2" style="fill: rgb(0,0,0)" />
	<circle cx="148.716522535292" cy="-153.280435451287" r="2" style="fill: rgb(0,0,0)" />
	<circle cx="379.149567605905" cy="-153.280435451292" r="2" style="fill: rgb(0,0,0)" />
	<circle cx="206.324783802944" cy="-452.621741805098" r="2" style="fill: rgb(0,0,0)" />
	<circle cx="91.1082612676528" cy="-253.06087090256" r="2" style="fill: rgb(0,0,0)" />
	<circle cx="436.757828873559" cy="-253.06087090256" r="2" style="fill: rgb(0,0,0)" />
	<circle cx="321.541306338248" cy="-452.621741805107" r="2" style="fill: rgb(0,0,0)" />
	<circle cx="206.324783802952" cy="-53.5000000000159" r="2" style="fill: rgb(0,0,0)" />
	<circle cx="321.54130633825" cy="-53.5" r="2" style="fill: rgb(0,0,0)" />
	<circle cx="91.108261267645" cy="-452.621741805091" r="2" style="fill: rgb(0,0,0)" />
	<circle cx="33.5" cy="-352.841306353822" r="2" style="fill: rgb(0,0,0)" />
	<circle cx="549.456593956361" cy="-277.015732913026" r="2" style="fill: rgb(0,0,0)" />
	<circle cx="561.5" cy="-391.601087282583" r="2" style="fill: rgb(0,0,0)" />
	<circle cx="456.244469192484" cy="-438.463868885453" r="2" style="fill: rgb(0,0,0)" />
	<circle cx="91.1082612676429" cy="-53.5000000000053" r="2" style="fill: rgb(0,0,0)" />
	<!--
	Generated using the Perl SVG Module V2.86
	by Ronan Oger
	Info: http://www.roitsystems.com/
	-->
</svg>