<?xml version="1.0" encoding="UTF-8" standalone="yes"?>
<!DOCTYPE svg PUBLIC "-//W3C//DTD SVG 1.0//EN" "http://www.w3.org/TR/2001/REC-SVG-20010904/DTD/svg10.dtd">
<!-- generated using polymake; Michael Joswig, Georg Loho, Benjamin Lorenz, Rico Raber; license CC BY-NC-ND 3.0; see polymake.org and matchthenet.de -->
<svg height="841pt" id="document" viewBox="0 -771.713378212036 572 771.713378212036" width="595pt" xmlns="http://www.w3.org/2000/svg" xmlns:svg="http://www.w3.org/2000/svg" xmlns:xlink="http://www.w3.org/1999/xlink">
	<title id="document_title">planar_net_</title>
	<polygon points="203.92834455301,-394.356689106014 328.690551815661,-394.356689106014 328.690551815666,-519.118896368668 203.928344553024,-519.118896368678 " style="fill: rgb(67,184,206); fill-opacity: 1; stroke: rgb(0,0,0); stroke-width: 3" />
	<polygon points="391.071655446986,-286.309448184339 328.690551815661,-394.356689106014 203.92834455301,-394.356689106014 141.547240921686,-286.309448184338 203.928344553011,-178.262207262663 328.690551815661,-178.262207262664 " style="fill: rgb(238,66,102); fill-opacity: 1; stroke: rgb(0,0,0); stroke-width: 3" />
	<polygon points="33.500000000005,-223.928344553011 95.8811036313182,-115.881103631342 203.928344553011,-178.262207262663 141.547240921686,-286.309448184338 " style="fill: rgb(67,184,206); fill-opacity: 1; stroke: rgb(0,0,0); stroke-width: 3" />
	<polygon points="328.690551815666,-519.118896368668 328.690551815661,-394.356689106014 453.452759078318,-394.356689106006 453.45275907833,-519.118896368651 " style="fill: rgb(67,184,206); fill-opacity: 1; stroke: rgb(0,0,0); stroke-width: 3" />
	<polygon points="203.928344553008,-53.5000000000052 328.690551815648,-53.5 328.690551815661,-178.262207262664 203.928344553011,-178.262207262663 " style="fill: rgb(67,184,206); fill-opacity: 1; stroke: rgb(0,0,0); stroke-width: 3" />
	<polygon points="453.45275907833,-519.118896368651 453.452759078318,-394.356689106006 561.5,-456.737792737334 " style="fill: rgb(14,173,105); fill-opacity: 1; stroke: rgb(0,0,0); stroke-width: 3" />
	<polygon points="391.071655446986,-286.309448184339 328.690551815661,-178.262207262664 453.452759078319,-178.262207262675 " style="fill: rgb(14,173,105); fill-opacity: 1; stroke: rgb(0,0,0); stroke-width: 3" />
	<polygon points="328.690551815648,-53.5 436.73779273733,-115.881103631325 328.690551815661,-178.262207262664 " style="fill: rgb(14,173,105); fill-opacity: 1; stroke: rgb(0,0,0); stroke-width: 3" />
	<polygon points="328.690551815677,-735.213378212031 391.071655446993,-627.166137290347 453.452759078324,-735.213378212028 " style="fill: rgb(14,173,105); fill-opacity: 1; stroke: rgb(0,0,0); stroke-width: 3" />
	<polygon points="203.928344553024,-519.118896368678 328.690551815666,-519.118896368668 391.071655446993,-627.166137290347 328.690551815677,-735.213378212031 203.928344553032,-735.213378212036 141.547240921704,-627.166137290358 " style="fill: rgb(238,66,102); fill-opacity: 1; stroke: rgb(0,0,0); stroke-width: 3" />
	<polygon points="33.500000000005,-223.928344553011 141.547240921686,-286.309448184338 33.5,-348.690551815658 " style="fill: rgb(14,173,105); fill-opacity: 1; stroke: rgb(0,0,0); stroke-width: 3" />
	<polygon points="203.928344553024,-519.118896368678 141.547240921704,-627.166137290358 79.1661372903779,-519.118896368677 " style="fill: rgb(14,173,105); fill-opacity: 1; stroke: rgb(0,0,0); stroke-width: 3" />
	<polygon points="203.92834455301,-394.356689106014 79.166137290353,-394.356689106002 141.547240921686,-286.309448184338 " style="fill: rgb(14,173,105); fill-opacity: 1; stroke: rgb(0,0,0); stroke-width: 3" />
	<polygon points="203.92834455301,-394.356689106014 203.928344553024,-519.118896368678 95.8811036313419,-456.737792737351 " style="fill: rgb(14,173,105); fill-opacity: 1; stroke: rgb(0,0,0); stroke-width: 3" />
	<circle cx="203.92834455301" cy="-394.356689106014" r="2" style="fill: rgb(0,0,0)" />
	<circle cx="328.690551815661" cy="-394.356689106014" r="2" style="fill: rgb(0,0,0)" />
	<circle cx="328.690551815666" cy="-519.118896368668" r="2" style="fill: rgb(0,0,0)" />
	<circle cx="203.928344553024" cy="-519.118896368678" r="2" style="fill: rgb(0,0,0)" />
	<circle cx="141.547240921686" cy="-286.309448184338" r="2" style="fill: rgb(0,0,0)" />
	<circle cx="203.928344553011" cy="-178.262207262663" r="2" style="fill: rgb(0,0,0)" />
	<circle cx="328.690551815661" cy="-178.262207262664" r="2" style="fill: rgb(0,0,0)" />
	<circle cx="391.071655446986" cy="-286.309448184339" r="2" style="fill: rgb(0,0,0)" />
	<circle cx="453.452759078318" cy="-394.356689106006" r="2" style="fill: rgb(0,0,0)" />
	<circle cx="453.45275907833" cy="-519.118896368651" r="2" style="fill: rgb(0,0,0)" />
	<circle cx="391.071655446993" cy="-627.166137290347" r="2" style="fill: rgb(0,0,0)" />
	<circle cx="328.690551815677" cy="-735.213378212031" r="2" style="fill: rgb(0,0,0)" />
	<circle cx="203.928344553032" cy="-735.213378212036" r="2" style="fill: rgb(0,0,0)" />
	<circle cx="141.547240921704" cy="-627.166137290358" r="2" style="fill: rgb(0,0,0)" />
	<circle cx="95.8811036313419" cy="-456.737792737351" r="2" style="fill: rgb(0,0,0)" />
	<circle cx="33.500000000005" cy="-223.928344553011" r="2" style="fill: rgb(0,0,0)" />
	<circle cx="95.8811036313182" cy="-115.881103631342" r="2" style="fill: rgb(0,0,0)" />
	<circle cx="203.928344553008" cy="-53.5000000000052" r="2" style="fill: rgb(0,0,0)" />
	<circle cx="328.690551815648" cy="-53.5" r="2" style="fill: rgb(0,0,0)" />
	<circle cx="453.452759078319" cy="-178.262207262675" r="2" style="fill: rgb(0,0,0)" />
	<circle cx="79.166137290353" cy="-394.356689106002" r="2" style="fill: rgb(0,0,0)" />
	<circle cx="561.5" cy="-456.737792737334" r="2" style="fill: rgb(0,0,0)" />
	<circle cx="453.452759078324" cy="-735.213378212028" r="2" style="fill: rgb(0,0,0)" />
	<circle cx="79.1661372903779" cy="-519.118896368677" r="2" style="fill: rgb(0,0,0)" />
	<circle cx="33.5" cy="-348.690551815658" r="2" style="fill: rgb(0,0,0)" />
	<circle cx="436.73779273733" cy="-115.881103631325" r="2" style="fill: rgb(0,0,0)" />
	<!--
	Generated using the Perl SVG Module V2.87
	by Ronan Oger

	-->
</svg>