<?xml version="1.0" encoding="UTF-8" standalone="yes"?>
<!DOCTYPE svg PUBLIC "-//W3C//DTD SVG 1.0//EN" "http://www.w3.org/TR/2001/REC-SVG-20010904/DTD/svg10.dtd">
<!-- generated using polymake; Michael Joswig, Georg Loho, Benjamin Lorenz, Rico Raber; license CC BY-NC-ND 3.0; see polymake.org and matchthenet.de -->
<svg height="841pt" id="document" viewBox="0 -546.320208605577 572 546.320208605577" width="595pt" xmlns="http://www.w3.org/2000/svg" xmlns:svg="http://www.w3.org/2000/svg" xmlns:xlink="http://www.w3.org/1999/xlink">
	<title id="document_title">planar_net_</title>
	<polygon points="247.022890985298,-192.046884955201 299.780570519995,-192.046884955201 342.462429847352,-223.057070930868 358.765449407361,-273.232605836953 342.462429847353,-323.408140743037 299.780570519996,-354.418326718704 247.022890985299,-354.418326718703 204.341031657941,-323.408140743037 188.038012097932,-273.232605836952 204.341031657941,-223.057070930868 " style="fill: rgb(136,136,136); fill-opacity: 1; stroke: rgb(0,0,0); stroke-width: 3" />
	<polygon points="299.780570519985,-139.289205420495 299.780570519995,-192.046884955201 247.022890985298,-192.046884955201 247.022890985296,-139.289205420502 " style="fill: rgb(67,184,206); fill-opacity: 1; stroke: rgb(0,0,0); stroke-width: 3" />
	<polygon points="299.780570519985,-139.289205420495 247.022890985296,-139.289205420502 273.401730752651,-93.5997146987402 " style="fill: rgb(14,173,105); fill-opacity: 1; stroke: rgb(0,0,0); stroke-width: 3" />
	<polygon points="342.462429847353,-323.408140743037 358.765449407361,-273.232605836953 408.940984313452,-289.535625396962 392.637964753451,-339.711160303041 " style="fill: rgb(67,184,206); fill-opacity: 1; stroke: rgb(0,0,0); stroke-width: 3" />
	<polygon points="526.198221902865,-318.252678832625 561.5,-357.459275383026 535.121160232641,-403.148766104785 483.516362575497,-392.179827749109 478.00168340817,-339.711160303031 " style="fill: rgb(255,210,63); fill-opacity: 1; stroke: rgb(0,0,0); stroke-width: 3" />
	<polygon points="173.33084568225,-53.5 199.709685449597,-99.1894907217626 146.952005914902,-99.1894907217653 " style="fill: rgb(14,173,105); fill-opacity: 1; stroke: rgb(0,0,0); stroke-width: 3" />
	<polygon points="435.319824080814,-370.721346278694 478.00168340817,-339.711160303031 483.516362575497,-392.179827749109 " style="fill: rgb(14,173,105); fill-opacity: 1; stroke: rgb(0,0,0); stroke-width: 3" />
	<polygon points="247.022890985309,-407.176006253412 299.780570519999,-407.176006253407 316.083590080009,-457.351541159497 273.401730752662,-488.361727135169 230.719871425308,-457.351541159499 " style="fill: rgb(255,210,63); fill-opacity: 1; stroke: rgb(0,0,0); stroke-width: 3" />
	<polygon points="204.341031657941,-223.057070930868 188.038012097932,-273.232605836952 137.862477191843,-256.929586276947 154.165496751844,-206.754051370867 " style="fill: rgb(67,184,206); fill-opacity: 1; stroke: rgb(0,0,0); stroke-width: 3" />
	<polygon points="154.165496751844,-206.754051370867 137.862477191843,-256.929586276947 102.560699094706,-217.722989726546 " style="fill: rgb(14,173,105); fill-opacity: 1; stroke: rgb(0,0,0); stroke-width: 3" />
	<polygon points="247.022890985299,-354.418326718703 299.780570519996,-354.418326718704 299.780570519999,-407.176006253407 247.022890985309,-407.176006253412 " style="fill: rgb(67,184,206); fill-opacity: 1; stroke: rgb(0,0,0); stroke-width: 3" />
	<polygon points="137.862477191841,-289.535625396975 154.165496751854,-339.711160303052 111.483637424498,-370.721346278728 68.8017780971395,-339.711160303074 85.1047976571464,-289.535625396987 " style="fill: rgb(255,210,63); fill-opacity: 1; stroke: rgb(0,0,0); stroke-width: 3" />
	<polygon points="173.330845682277,-366.090000070409 216.012705009632,-397.100186046068 167.816166514941,-418.558667516479 " style="fill: rgb(14,173,105); fill-opacity: 1; stroke: rgb(0,0,0); stroke-width: 3" />
	<polygon points="204.341031657941,-323.408140743037 247.022890985299,-354.418326718703 216.012705009632,-397.100186046068 173.330845682277,-366.090000070409 " style="fill: rgb(67,184,206); fill-opacity: 1; stroke: rgb(0,0,0); stroke-width: 3" />
	<polygon points="188.038012097932,-273.232605836952 204.341031657941,-323.408140743037 154.165496751854,-339.711160303052 137.862477191841,-289.535625396975 " style="fill: rgb(67,184,206); fill-opacity: 1; stroke: rgb(0,0,0); stroke-width: 3" />
	<polygon points="230.719871425308,-457.351541159499 273.401730752662,-488.361727135169 225.205192257974,-509.820208605577 " style="fill: rgb(14,173,105); fill-opacity: 1; stroke: rgb(0,0,0); stroke-width: 3" />
	<polygon points="85.1047976571464,-289.535625396987 68.8017780971395,-339.711160303074 33.5,-300.504563752672 " style="fill: rgb(14,173,105); fill-opacity: 1; stroke: rgb(0,0,0); stroke-width: 3" />
	<polygon points="330.790756495677,-397.100186046065 373.472615823025,-366.090000070398 378.987294990349,-418.558667516477 " style="fill: rgb(14,173,105); fill-opacity: 1; stroke: rgb(0,0,0); stroke-width: 3" />
	<polygon points="299.780570519996,-354.418326718704 342.462429847353,-323.408140743037 373.472615823025,-366.090000070398 330.790756495677,-397.100186046065 " style="fill: rgb(67,184,206); fill-opacity: 1; stroke: rgb(0,0,0); stroke-width: 3" />
	<polygon points="247.022890985298,-192.046884955201 204.341031657941,-223.057070930868 173.33084568227,-180.375211603511 216.012705009618,-149.365025627842 " style="fill: rgb(67,184,206); fill-opacity: 1; stroke: rgb(0,0,0); stroke-width: 3" />
	<polygon points="216.012705009618,-149.365025627842 173.33084568227,-180.375211603511 130.648986354907,-149.365025627848 146.952005914902,-99.1894907217653 199.709685449597,-99.1894907217626 " style="fill: rgb(255,210,63); fill-opacity: 1; stroke: rgb(0,0,0); stroke-width: 3" />
	<polygon points="461.698663848153,-289.535625396959 513.30346150534,-300.504563752634 478.00168340817,-339.711160303031 " style="fill: rgb(14,173,105); fill-opacity: 1; stroke: rgb(0,0,0); stroke-width: 3" />
	<polygon points="392.637964753451,-339.711160303041 408.940984313452,-289.535625396962 461.698663848153,-289.535625396959 478.00168340817,-339.711160303031 435.319824080814,-370.721346278694 " style="fill: rgb(255,210,63); fill-opacity: 1; stroke: rgb(0,0,0); stroke-width: 3" />
	<polygon points="408.940984313453,-256.929586276932 392.637964753441,-206.754051370857 444.242762410592,-217.722989726544 " style="fill: rgb(14,173,105); fill-opacity: 1; stroke: rgb(0,0,0); stroke-width: 3" />
	<polygon points="373.472615823017,-180.375211603498 330.790756495663,-149.365025627841 347.093776055667,-99.1894907217525 399.851455590355,-99.1894907217382 416.154475150364,-149.365025627819 " style="fill: rgb(255,210,63); fill-opacity: 1; stroke: rgb(0,0,0); stroke-width: 3" />
	<polygon points="358.765449407361,-273.232605836953 342.462429847352,-223.057070930868 392.637964753441,-206.754051370857 408.940984313453,-256.929586276932 " style="fill: rgb(67,184,206); fill-opacity: 1; stroke: rgb(0,0,0); stroke-width: 3" />
	<polygon points="342.462429847352,-223.057070930868 299.780570519995,-192.046884955201 330.790756495663,-149.365025627841 373.472615823017,-180.375211603498 " style="fill: rgb(67,184,206); fill-opacity: 1; stroke: rgb(0,0,0); stroke-width: 3" />
	<circle cx="247.022890985298" cy="-192.046884955201" r="2" style="fill: rgb(0,0,0)" />
	<circle cx="299.780570519995" cy="-192.046884955201" r="2" style="fill: rgb(0,0,0)" />
	<circle cx="342.462429847352" cy="-223.057070930868" r="2" style="fill: rgb(0,0,0)" />
	<circle cx="358.765449407361" cy="-273.232605836953" r="2" style="fill: rgb(0,0,0)" />
	<circle cx="342.462429847353" cy="-323.408140743037" r="2" style="fill: rgb(0,0,0)" />
	<circle cx="299.780570519996" cy="-354.418326718704" r="2" style="fill: rgb(0,0,0)" />
	<circle cx="247.022890985299" cy="-354.418326718703" r="2" style="fill: rgb(0,0,0)" />
	<circle cx="204.341031657941" cy="-323.408140743037" r="2" style="fill: rgb(0,0,0)" />
	<circle cx="188.038012097932" cy="-273.232605836952" r="2" style="fill: rgb(0,0,0)" />
	<circle cx="204.341031657941" cy="-223.057070930868" r="2" style="fill: rgb(0,0,0)" />
	<circle cx="247.022890985296" cy="-139.289205420502" r="2" style="fill: rgb(0,0,0)" />
	<circle cx="299.780570519985" cy="-139.289205420495" r="2" style="fill: rgb(0,0,0)" />
	<circle cx="408.940984313452" cy="-289.535625396962" r="2" style="fill: rgb(0,0,0)" />
	<circle cx="392.637964753451" cy="-339.711160303041" r="2" style="fill: rgb(0,0,0)" />
	<circle cx="137.862477191843" cy="-256.929586276947" r="2" style="fill: rgb(0,0,0)" />
	<circle cx="154.165496751844" cy="-206.754051370867" r="2" style="fill: rgb(0,0,0)" />
	<circle cx="299.780570519999" cy="-407.176006253407" r="2" style="fill: rgb(0,0,0)" />
	<circle cx="247.022890985309" cy="-407.176006253412" r="2" style="fill: rgb(0,0,0)" />
	<circle cx="216.012705009632" cy="-397.100186046068" r="2" style="fill: rgb(0,0,0)" />
	<circle cx="173.330845682277" cy="-366.090000070409" r="2" style="fill: rgb(0,0,0)" />
	<circle cx="154.165496751854" cy="-339.711160303052" r="2" style="fill: rgb(0,0,0)" />
	<circle cx="137.862477191841" cy="-289.535625396975" r="2" style="fill: rgb(0,0,0)" />
	<circle cx="373.472615823025" cy="-366.090000070398" r="2" style="fill: rgb(0,0,0)" />
	<circle cx="330.790756495677" cy="-397.100186046065" r="2" style="fill: rgb(0,0,0)" />
	<circle cx="173.33084568227" cy="-180.375211603511" r="2" style="fill: rgb(0,0,0)" />
	<circle cx="216.012705009618" cy="-149.365025627842" r="2" style="fill: rgb(0,0,0)" />
	<circle cx="392.637964753441" cy="-206.754051370857" r="2" style="fill: rgb(0,0,0)" />
	<circle cx="408.940984313453" cy="-256.929586276932" r="2" style="fill: rgb(0,0,0)" />
	<circle cx="330.790756495663" cy="-149.365025627841" r="2" style="fill: rgb(0,0,0)" />
	<circle cx="373.472615823017" cy="-180.375211603498" r="2" style="fill: rgb(0,0,0)" />
	<circle cx="273.401730752651" cy="-93.5997146987402" r="2" style="fill: rgb(0,0,0)" />
	<circle cx="461.698663848153" cy="-289.535625396959" r="2" style="fill: rgb(0,0,0)" />
	<circle cx="478.00168340817" cy="-339.711160303031" r="2" style="fill: rgb(0,0,0)" />
	<circle cx="435.319824080814" cy="-370.721346278694" r="2" style="fill: rgb(0,0,0)" />
	<circle cx="102.560699094706" cy="-217.722989726546" r="2" style="fill: rgb(0,0,0)" />
	<circle cx="316.083590080009" cy="-457.351541159497" r="2" style="fill: rgb(0,0,0)" />
	<circle cx="273.401730752662" cy="-488.361727135169" r="2" style="fill: rgb(0,0,0)" />
	<circle cx="230.719871425308" cy="-457.351541159499" r="2" style="fill: rgb(0,0,0)" />
	<circle cx="167.816166514941" cy="-418.558667516479" r="2" style="fill: rgb(0,0,0)" />
	<circle cx="111.483637424498" cy="-370.721346278728" r="2" style="fill: rgb(0,0,0)" />
	<circle cx="68.8017780971395" cy="-339.711160303074" r="2" style="fill: rgb(0,0,0)" />
	<circle cx="85.1047976571464" cy="-289.535625396987" r="2" style="fill: rgb(0,0,0)" />
	<circle cx="378.987294990349" cy="-418.558667516477" r="2" style="fill: rgb(0,0,0)" />
	<circle cx="130.648986354907" cy="-149.365025627848" r="2" style="fill: rgb(0,0,0)" />
	<circle cx="146.952005914902" cy="-99.1894907217653" r="2" style="fill: rgb(0,0,0)" />
	<circle cx="199.709685449597" cy="-99.1894907217626" r="2" style="fill: rgb(0,0,0)" />
	<circle cx="444.242762410592" cy="-217.722989726544" r="2" style="fill: rgb(0,0,0)" />
	<circle cx="347.093776055667" cy="-99.1894907217525" r="2" style="fill: rgb(0,0,0)" />
	<circle cx="399.851455590355" cy="-99.1894907217382" r="2" style="fill: rgb(0,0,0)" />
	<circle cx="416.154475150364" cy="-149.365025627819" r="2" style="fill: rgb(0,0,0)" />
	<circle cx="483.516362575497" cy="-392.179827749109" r="2" style="fill: rgb(0,0,0)" />
	<circle cx="513.30346150534" cy="-300.504563752634" r="2" style="fill: rgb(0,0,0)" />
	<circle cx="225.205192257974" cy="-509.820208605577" r="2" style="fill: rgb(0,0,0)" />
	<circle cx="33.5" cy="-300.504563752672" r="2" style="fill: rgb(0,0,0)" />
	<circle cx="173.33084568225" cy="-53.5" r="2" style="fill: rgb(0,0,0)" />
	<circle cx="526.198221902865" cy="-318.252678832625" r="2" style="fill: rgb(0,0,0)" />
	<circle cx="561.5" cy="-357.459275383026" r="2" style="fill: rgb(0,0,0)" />
	<circle cx="535.121160232641" cy="-403.148766104785" r="2" style="fill: rgb(0,0,0)" />
	<!--
	Generated using the Perl SVG Module V2.87
	by Ronan Oger

	-->
</svg>