<?xml version="1.0" encoding="UTF-8" standalone="yes"?>
<!DOCTYPE svg PUBLIC "-//W3C//DTD SVG 1.0//EN" "http://www.w3.org/TR/2001/REC-SVG-20010904/DTD/svg10.dtd">
<!-- generated using polymake; Michael Joswig, Georg Loho, Benjamin Lorenz, Rico Raber; license CC BY-NC-ND 3.0; see polymake.org and matchthenet.de -->
<svg height="841pt" id="document" viewBox="0 -712.241727961644 572 712.241727961644" width="595pt" xmlns="http://www.w3.org/2000/svg" xmlns:svg="http://www.w3.org/2000/svg" xmlns:xlink="http://www.w3.org/1999/xlink">
	<title id="document_title">planar_net_</title>
	<polygon points="292.615038554612,-393.81364200237 331.979202390128,-393.81364200237 312.297120472373,-427.904007882664 " style="fill: rgb(14,173,105); fill-opacity: 1; stroke: rgb(0,0,0); stroke-width: 3" />
	<polygon points="363.825479902419,-370.675967031029 331.979202390128,-393.81364200237 292.615038554612,-393.81364200237 260.76876104232,-370.675967031029 248.604565447785,-333.238422506752 260.768761042319,-295.800877982474 292.615038554611,-272.663203011133 331.979202390127,-272.663203011134 363.825479902419,-295.800877982475 375.989675496953,-333.238422506752 " style="fill: rgb(14,173,105); fill-opacity: 1; stroke: rgb(0,0,0); stroke-width: 3" />
	<polygon points="402.329442313023,-362.491697170359 363.825479902419,-370.675967031029 375.989675496953,-333.238422506752 " style="fill: rgb(14,173,105); fill-opacity: 1; stroke: rgb(0,0,0); stroke-width: 3" />
	<polygon points="260.76876104232,-370.675967031029 222.264798631715,-362.491697170351 248.604565447785,-333.238422506752 " style="fill: rgb(14,173,105); fill-opacity: 1; stroke: rgb(0,0,0); stroke-width: 3" />
	<polygon points="432.783884682632,-415.240338670697 406.444117866563,-385.987064007089 444.948080277174,-377.802794146427 " style="fill: rgb(14,173,105); fill-opacity: 1; stroke: rgb(0,0,0); stroke-width: 3" />
	<polygon points="432.783884682632,-415.240338670697 444.948080277174,-377.802794146427 482.385624801456,-389.966989740968 470.221429206913,-427.404534265236 " style="fill: rgb(14,173,105); fill-opacity: 1; stroke: rgb(0,0,0); stroke-width: 3" />
	<polygon points="216.758287935493,-356.376097478093 177.394124099977,-356.376097478093 145.547846587685,-333.238422506752 133.383650993151,-295.800877982475 145.547846587685,-258.363333458198 177.394124099977,-235.225658486857 216.758287935493,-235.225658486857 248.604565447785,-258.363333458198 260.768761042319,-295.800877982474 248.604565447785,-333.238422506752 " style="fill: rgb(14,173,105); fill-opacity: 1; stroke: rgb(0,0,0); stroke-width: 3" />
	<polygon points="375.989675496953,-333.238422506752 363.825479902419,-295.800877982475 402.329442313026,-303.985147843154 " style="fill: rgb(14,173,105); fill-opacity: 1; stroke: rgb(0,0,0); stroke-width: 3" />
	<polygon points="402.329442313023,-362.491697170359 375.989675496953,-333.238422506752 405.242950160565,-306.898655690678 431.58271697663,-336.15193035428 " style="fill: rgb(14,173,105); fill-opacity: 1; stroke: rgb(0,0,0); stroke-width: 3" />
	<polygon points="511.363475712614,-446.562283502704 472.859513302012,-438.378013642037 499.19928011809,-409.12473897843 " style="fill: rgb(14,173,105); fill-opacity: 1; stroke: rgb(0,0,0); stroke-width: 3" />
	<polygon points="511.363475712614,-446.562283502704 499.19928011809,-409.12473897843 536.636824642379,-396.960543383903 548.801020236897,-434.398087908172 " style="fill: rgb(14,173,105); fill-opacity: 1; stroke: rgb(0,0,0); stroke-width: 3" />
	<polygon points="307.031270716704,-614.808816600686 294.867075122161,-652.246361124962 268.527308306097,-622.993086461348 " style="fill: rgb(14,173,105); fill-opacity: 1; stroke: rgb(0,0,0); stroke-width: 3" />
	<polygon points="176.923320256699,-556.88102486915 164.759124662145,-594.318569393426 138.419357846092,-565.065294729812 " style="fill: rgb(14,173,105); fill-opacity: 1; stroke: rgb(0,0,0); stroke-width: 3" />
	<polygon points="127.646997394206,-667.557458100985 89.1430349835918,-675.741727961644 53.1820819177526,-659.730880105692 33.5,-625.640514225399 37.6146755535554,-586.491991398118 63.9544423696389,-557.238716734519 102.458404780253,-549.05444687386 138.419357846092,-565.065294729812 158.101439763845,-599.155660610104 153.98676421029,-638.304183437386 " style="fill: rgb(14,173,105); fill-opacity: 1; stroke: rgb(0,0,0); stroke-width: 3" />
	<polygon points="537.703242528684,-475.815558166313 511.363475712614,-446.562283502704 549.867438123219,-438.378013642035 " style="fill: rgb(14,173,105); fill-opacity: 1; stroke: rgb(0,0,0); stroke-width: 3" />
	<polygon points="133.383650993151,-295.800877982475 107.043884177082,-266.547603318866 145.547846587685,-258.363333458198 " style="fill: rgb(14,173,105); fill-opacity: 1; stroke: rgb(0,0,0); stroke-width: 3" />
	<polygon points="435.035921250228,-76.6376749713448 447.200116844762,-114.075219495623 435.035921250227,-151.512764019901 403.189643737934,-174.650438991242 363.825479902419,-174.650438991239 331.979202390126,-151.512764019897 319.815006795593,-114.075219495618 331.979202390128,-76.6376749713402 363.82547990242,-53.5 403.189643737936,-53.5000000000019 " style="fill: rgb(14,173,105); fill-opacity: 1; stroke: rgb(0,0,0); stroke-width: 3" />
	<polygon points="522.135836164473,-549.054446873894 541.817918082228,-514.9640809936 561.5,-549.054446873888 " style="fill: rgb(14,173,105); fill-opacity: 1; stroke: rgb(0,0,0); stroke-width: 3" />
	<polygon points="82.7763228624923,-514.964080993566 102.458404780253,-549.05444687386 63.0942409447342,-549.054446873855 " style="fill: rgb(14,173,105); fill-opacity: 1; stroke: rgb(0,0,0); stroke-width: 3" />
	<polygon points="106.183682752169,-258.363333458197 74.337405239876,-235.225658486856 62.1732096453422,-197.788113962578 74.3374052398766,-160.350569438301 106.183682752169,-137.21289446696 145.547846587685,-137.212894466961 177.394124099978,-160.350569438303 189.558319694512,-197.78811396258 177.394124099977,-235.225658486857 145.547846587685,-258.363333458198 " style="fill: rgb(14,173,105); fill-opacity: 1; stroke: rgb(0,0,0); stroke-width: 3" />
	<polygon points="70.2227296863266,-121.202046611012 106.183682752169,-137.21289446696 74.3374052398766,-160.350569438301 " style="fill: rgb(14,173,105); fill-opacity: 1; stroke: rgb(0,0,0); stroke-width: 3" />
	<polygon points="331.979202390126,-151.512764019897 292.615038554611,-151.512764019896 312.297120472369,-117.422398139605 " style="fill: rgb(14,173,105); fill-opacity: 1; stroke: rgb(0,0,0); stroke-width: 3" />
	<polygon points="216.758287935493,-235.225658486857 177.394124099977,-235.225658486857 197.07620601773,-201.135292606559 " style="fill: rgb(14,173,105); fill-opacity: 1; stroke: rgb(0,0,0); stroke-width: 3" />
	<polygon points="375.989675496953,-212.087983515517 363.825479902419,-174.650438991239 402.329442313026,-182.834708851898 " style="fill: rgb(14,173,105); fill-opacity: 1; stroke: rgb(0,0,0); stroke-width: 3" />
	<polygon points="403.189643737934,-174.650438991242 435.035921250227,-151.512764019901 439.15059680376,-190.661286847191 " style="fill: rgb(14,173,105); fill-opacity: 1; stroke: rgb(0,0,0); stroke-width: 3" />
	<polygon points="375.989675496953,-212.087983515517 402.329442313026,-182.834708851898 431.582716976643,-209.174475667956 405.242950160574,-238.427750331583 " style="fill: rgb(14,173,105); fill-opacity: 1; stroke: rgb(0,0,0); stroke-width: 3" />
	<polygon points="331.979202390127,-272.663203011134 292.615038554611,-272.663203011133 260.768761042319,-249.525528039792 248.604565447785,-212.087983515514 260.768761042319,-174.650438991237 292.615038554611,-151.512764019896 331.979202390126,-151.512764019897 363.825479902419,-174.650438991239 375.989675496953,-212.087983515517 363.825479902419,-249.525528039794 " style="fill: rgb(14,173,105); fill-opacity: 1; stroke: rgb(0,0,0); stroke-width: 3" />
	<polygon points="363.825479902419,-249.525528039794 375.989675496953,-212.087983515517 402.329442313019,-241.341258179133 " style="fill: rgb(14,173,105); fill-opacity: 1; stroke: rgb(0,0,0); stroke-width: 3" />
	<polygon points="363.825479902419,-295.800877982475 372.0097497631,-257.296915571867 410.513712173698,-265.481185432544 402.329442313026,-303.985147843154 " style="fill: rgb(14,173,105); fill-opacity: 1; stroke: rgb(0,0,0); stroke-width: 3" />
	<polygon points="292.615038554611,-272.663203011133 260.768761042319,-295.800877982474 256.654085488777,-256.652355155189 " style="fill: rgb(14,173,105); fill-opacity: 1; stroke: rgb(0,0,0); stroke-width: 3" />
	<polygon points="363.825479902419,-295.800877982475 331.979202390127,-272.663203011134 367.940155455964,-256.652355155182 " style="fill: rgb(14,173,105); fill-opacity: 1; stroke: rgb(0,0,0); stroke-width: 3" />
	<polygon points="431.58271697663,-336.15193035428 405.242950160565,-306.898655690678 424.925032078322,-272.808289810385 463.42899448892,-280.992559671043 467.54367004246,-320.141082498326 " style="fill: rgb(14,173,105); fill-opacity: 1; stroke: rgb(0,0,0); stroke-width: 3" />
	<polygon points="191.810356262094,-415.240338670683 187.695680708552,-454.388861497968 155.849403196259,-431.251186526628 " style="fill: rgb(14,173,105); fill-opacity: 1; stroke: rgb(0,0,0); stroke-width: 3" />
	<polygon points="436.898560236178,-454.388861497985 432.783884682632,-415.240338670697 468.74483774847,-431.251186526639 " style="fill: rgb(14,173,105); fill-opacity: 1; stroke: rgb(0,0,0); stroke-width: 3" />
	<polygon points="187.695680708552,-454.388861497968 207.377762626313,-488.479227378263 203.26308707277,-527.627750205547 176.923320256699,-556.88102486915 138.419357846092,-565.065294729812 102.458404780253,-549.05444687386 82.7763228624923,-514.964080993566 86.8909984160352,-475.815558166281 113.230765232106,-446.562283502678 151.734727642713,-438.378013642016 " style="fill: rgb(14,173,105); fill-opacity: 1; stroke: rgb(0,0,0); stroke-width: 3" />
	<polygon points="417.216478318423,-488.479227378279 436.898560236178,-454.388861497985 472.859513302012,-438.378013642037 511.363475712614,-446.562283502704 537.703242528684,-475.815558166313 541.817918082228,-514.9640809936 522.135836164473,-549.054446873894 486.174883098639,-565.065294729842 447.670920688036,-556.881024869175 421.331153871966,-527.627750205566 " style="fill: rgb(14,173,105); fill-opacity: 1; stroke: rgb(0,0,0); stroke-width: 3" />
	<polygon points="207.377762626313,-488.479227378263 243.338715692152,-504.490075234214 211.492438179859,-527.627750205564 " style="fill: rgb(14,173,105); fill-opacity: 1; stroke: rgb(0,0,0); stroke-width: 3" />
	<polygon points="381.25552525259,-504.490075234227 417.216478318423,-488.479227378279 413.101802764891,-527.627750205568 " style="fill: rgb(14,173,105); fill-opacity: 1; stroke: rgb(0,0,0); stroke-width: 3" />
	<polygon points="317.803631168591,-512.316653229504 337.485713086338,-546.407019109799 333.371037532783,-585.555541937083 307.031270716704,-614.808816600686 268.527308306097,-622.993086461348 232.566355240266,-606.982238605396 212.884273322518,-572.891872725101 216.998948876073,-533.743349897817 243.338715692152,-504.490075234214 281.842678102759,-496.305805373553 " style="fill: rgb(14,173,105); fill-opacity: 1; stroke: rgb(0,0,0); stroke-width: 3" />
	<polygon points="308.18244491883,-467.052530709949 320.34664051336,-504.490075234229 281.842678102759,-496.305805373553 " style="fill: rgb(14,173,105); fill-opacity: 1; stroke: rgb(0,0,0); stroke-width: 3" />
	<polygon points="292.615038554612,-393.81364200237 312.297120472373,-427.904007882664 308.18244491883,-467.052530709949 281.842678102759,-496.305805373553 243.338715692152,-504.490075234214 207.377762626313,-488.479227378263 187.695680708552,-454.388861497968 191.810356262094,-415.240338670683 218.150123078165,-385.98706400708 256.654085488772,-377.802794146418 " style="fill: rgb(14,173,105); fill-opacity: 1; stroke: rgb(0,0,0); stroke-width: 3" />
	<polygon points="312.297120472373,-427.904007882664 331.979202390128,-393.81364200237 367.94015545596,-377.802794146422 406.444117866563,-385.987064007089 432.783884682632,-415.240338670697 436.898560236178,-454.388861497985 417.216478318423,-488.479227378279 381.25552525259,-504.490075234227 342.751562841988,-496.305805373561 316.411796025918,-467.052530709952 " style="fill: rgb(14,173,105); fill-opacity: 1; stroke: rgb(0,0,0); stroke-width: 3" />
	<circle cx="292.615038554612" cy="-393.81364200237" r="2" style="fill: rgb(0,0,0)" />
	<circle cx="331.979202390128" cy="-393.81364200237" r="2" style="fill: rgb(0,0,0)" />
	<circle cx="312.297120472373" cy="-427.904007882664" r="2" style="fill: rgb(0,0,0)" />
	<circle cx="260.76876104232" cy="-370.675967031029" r="2" style="fill: rgb(0,0,0)" />
	<circle cx="248.604565447785" cy="-333.238422506752" r="2" style="fill: rgb(0,0,0)" />
	<circle cx="260.768761042319" cy="-295.800877982474" r="2" style="fill: rgb(0,0,0)" />
	<circle cx="292.615038554611" cy="-272.663203011133" r="2" style="fill: rgb(0,0,0)" />
	<circle cx="331.979202390127" cy="-272.663203011134" r="2" style="fill: rgb(0,0,0)" />
	<circle cx="363.825479902419" cy="-295.800877982475" r="2" style="fill: rgb(0,0,0)" />
	<circle cx="375.989675496953" cy="-333.238422506752" r="2" style="fill: rgb(0,0,0)" />
	<circle cx="363.825479902419" cy="-370.675967031029" r="2" style="fill: rgb(0,0,0)" />
	<circle cx="308.18244491883" cy="-467.052530709949" r="2" style="fill: rgb(0,0,0)" />
	<circle cx="281.842678102759" cy="-496.305805373553" r="2" style="fill: rgb(0,0,0)" />
	<circle cx="243.338715692152" cy="-504.490075234214" r="2" style="fill: rgb(0,0,0)" />
	<circle cx="207.377762626313" cy="-488.479227378263" r="2" style="fill: rgb(0,0,0)" />
	<circle cx="187.695680708552" cy="-454.388861497968" r="2" style="fill: rgb(0,0,0)" />
	<circle cx="191.810356262094" cy="-415.240338670683" r="2" style="fill: rgb(0,0,0)" />
	<circle cx="218.150123078165" cy="-385.98706400708" r="2" style="fill: rgb(0,0,0)" />
	<circle cx="256.654085488772" cy="-377.802794146418" r="2" style="fill: rgb(0,0,0)" />
	<circle cx="367.94015545596" cy="-377.802794146422" r="2" style="fill: rgb(0,0,0)" />
	<circle cx="406.444117866563" cy="-385.987064007089" r="2" style="fill: rgb(0,0,0)" />
	<circle cx="432.783884682632" cy="-415.240338670697" r="2" style="fill: rgb(0,0,0)" />
	<circle cx="436.898560236178" cy="-454.388861497985" r="2" style="fill: rgb(0,0,0)" />
	<circle cx="417.216478318423" cy="-488.479227378279" r="2" style="fill: rgb(0,0,0)" />
	<circle cx="381.25552525259" cy="-504.490075234227" r="2" style="fill: rgb(0,0,0)" />
	<circle cx="342.751562841988" cy="-496.305805373561" r="2" style="fill: rgb(0,0,0)" />
	<circle cx="316.411796025918" cy="-467.052530709952" r="2" style="fill: rgb(0,0,0)" />
	<circle cx="402.329442313023" cy="-362.491697170359" r="2" style="fill: rgb(0,0,0)" />
	<circle cx="222.264798631715" cy="-362.491697170351" r="2" style="fill: rgb(0,0,0)" />
	<circle cx="216.758287935493" cy="-356.376097478093" r="2" style="fill: rgb(0,0,0)" />
	<circle cx="177.394124099977" cy="-356.376097478093" r="2" style="fill: rgb(0,0,0)" />
	<circle cx="145.547846587685" cy="-333.238422506752" r="2" style="fill: rgb(0,0,0)" />
	<circle cx="133.383650993151" cy="-295.800877982475" r="2" style="fill: rgb(0,0,0)" />
	<circle cx="145.547846587685" cy="-258.363333458198" r="2" style="fill: rgb(0,0,0)" />
	<circle cx="177.394124099977" cy="-235.225658486857" r="2" style="fill: rgb(0,0,0)" />
	<circle cx="216.758287935493" cy="-235.225658486857" r="2" style="fill: rgb(0,0,0)" />
	<circle cx="248.604565447785" cy="-258.363333458198" r="2" style="fill: rgb(0,0,0)" />
	<circle cx="402.329442313026" cy="-303.985147843154" r="2" style="fill: rgb(0,0,0)" />
	<circle cx="260.768761042319" cy="-249.525528039792" r="2" style="fill: rgb(0,0,0)" />
	<circle cx="248.604565447785" cy="-212.087983515514" r="2" style="fill: rgb(0,0,0)" />
	<circle cx="260.768761042319" cy="-174.650438991237" r="2" style="fill: rgb(0,0,0)" />
	<circle cx="292.615038554611" cy="-151.512764019896" r="2" style="fill: rgb(0,0,0)" />
	<circle cx="331.979202390126" cy="-151.512764019897" r="2" style="fill: rgb(0,0,0)" />
	<circle cx="363.825479902419" cy="-174.650438991239" r="2" style="fill: rgb(0,0,0)" />
	<circle cx="375.989675496953" cy="-212.087983515517" r="2" style="fill: rgb(0,0,0)" />
	<circle cx="363.825479902419" cy="-249.525528039794" r="2" style="fill: rgb(0,0,0)" />
	<circle cx="256.654085488777" cy="-256.652355155189" r="2" style="fill: rgb(0,0,0)" />
	<circle cx="367.940155455964" cy="-256.652355155182" r="2" style="fill: rgb(0,0,0)" />
	<circle cx="155.849403196259" cy="-431.251186526628" r="2" style="fill: rgb(0,0,0)" />
	<circle cx="203.26308707277" cy="-527.627750205547" r="2" style="fill: rgb(0,0,0)" />
	<circle cx="176.923320256699" cy="-556.88102486915" r="2" style="fill: rgb(0,0,0)" />
	<circle cx="138.419357846092" cy="-565.065294729812" r="2" style="fill: rgb(0,0,0)" />
	<circle cx="102.458404780253" cy="-549.05444687386" r="2" style="fill: rgb(0,0,0)" />
	<circle cx="82.7763228624923" cy="-514.964080993566" r="2" style="fill: rgb(0,0,0)" />
	<circle cx="86.8909984160352" cy="-475.815558166281" r="2" style="fill: rgb(0,0,0)" />
	<circle cx="113.230765232106" cy="-446.562283502678" r="2" style="fill: rgb(0,0,0)" />
	<circle cx="151.734727642713" cy="-438.378013642016" r="2" style="fill: rgb(0,0,0)" />
	<circle cx="211.492438179859" cy="-527.627750205564" r="2" style="fill: rgb(0,0,0)" />
	<circle cx="317.803631168591" cy="-512.316653229504" r="2" style="fill: rgb(0,0,0)" />
	<circle cx="337.485713086338" cy="-546.407019109799" r="2" style="fill: rgb(0,0,0)" />
	<circle cx="333.371037532783" cy="-585.555541937083" r="2" style="fill: rgb(0,0,0)" />
	<circle cx="307.031270716704" cy="-614.808816600686" r="2" style="fill: rgb(0,0,0)" />
	<circle cx="268.527308306097" cy="-622.993086461348" r="2" style="fill: rgb(0,0,0)" />
	<circle cx="232.566355240266" cy="-606.982238605396" r="2" style="fill: rgb(0,0,0)" />
	<circle cx="212.884273322518" cy="-572.891872725101" r="2" style="fill: rgb(0,0,0)" />
	<circle cx="216.998948876073" cy="-533.743349897817" r="2" style="fill: rgb(0,0,0)" />
	<circle cx="320.34664051336" cy="-504.490075234229" r="2" style="fill: rgb(0,0,0)" />
	<circle cx="444.948080277174" cy="-377.802794146427" r="2" style="fill: rgb(0,0,0)" />
	<circle cx="468.74483774847" cy="-431.251186526639" r="2" style="fill: rgb(0,0,0)" />
	<circle cx="472.859513302012" cy="-438.378013642037" r="2" style="fill: rgb(0,0,0)" />
	<circle cx="511.363475712614" cy="-446.562283502704" r="2" style="fill: rgb(0,0,0)" />
	<circle cx="537.703242528684" cy="-475.815558166313" r="2" style="fill: rgb(0,0,0)" />
	<circle cx="541.817918082228" cy="-514.9640809936" r="2" style="fill: rgb(0,0,0)" />
	<circle cx="522.135836164473" cy="-549.054446873894" r="2" style="fill: rgb(0,0,0)" />
	<circle cx="486.174883098639" cy="-565.065294729842" r="2" style="fill: rgb(0,0,0)" />
	<circle cx="447.670920688036" cy="-556.881024869175" r="2" style="fill: rgb(0,0,0)" />
	<circle cx="421.331153871966" cy="-527.627750205566" r="2" style="fill: rgb(0,0,0)" />
	<circle cx="413.101802764891" cy="-527.627750205568" r="2" style="fill: rgb(0,0,0)" />
	<circle cx="405.242950160565" cy="-306.898655690678" r="2" style="fill: rgb(0,0,0)" />
	<circle cx="431.58271697663" cy="-336.15193035428" r="2" style="fill: rgb(0,0,0)" />
	<circle cx="107.043884177082" cy="-266.547603318866" r="2" style="fill: rgb(0,0,0)" />
	<circle cx="106.183682752169" cy="-258.363333458197" r="2" style="fill: rgb(0,0,0)" />
	<circle cx="74.337405239876" cy="-235.225658486856" r="2" style="fill: rgb(0,0,0)" />
	<circle cx="62.1732096453422" cy="-197.788113962578" r="2" style="fill: rgb(0,0,0)" />
	<circle cx="74.3374052398766" cy="-160.350569438301" r="2" style="fill: rgb(0,0,0)" />
	<circle cx="106.183682752169" cy="-137.21289446696" r="2" style="fill: rgb(0,0,0)" />
	<circle cx="145.547846587685" cy="-137.212894466961" r="2" style="fill: rgb(0,0,0)" />
	<circle cx="177.394124099978" cy="-160.350569438303" r="2" style="fill: rgb(0,0,0)" />
	<circle cx="189.558319694512" cy="-197.78811396258" r="2" style="fill: rgb(0,0,0)" />
	<circle cx="197.07620601773" cy="-201.135292606559" r="2" style="fill: rgb(0,0,0)" />
	<circle cx="372.0097497631" cy="-257.296915571867" r="2" style="fill: rgb(0,0,0)" />
	<circle cx="410.513712173698" cy="-265.481185432544" r="2" style="fill: rgb(0,0,0)" />
	<circle cx="319.815006795593" cy="-114.075219495618" r="2" style="fill: rgb(0,0,0)" />
	<circle cx="331.979202390128" cy="-76.6376749713402" r="2" style="fill: rgb(0,0,0)" />
	<circle cx="363.82547990242" cy="-53.5" r="2" style="fill: rgb(0,0,0)" />
	<circle cx="403.189643737936" cy="-53.5000000000019" r="2" style="fill: rgb(0,0,0)" />
	<circle cx="435.035921250228" cy="-76.6376749713448" r="2" style="fill: rgb(0,0,0)" />
	<circle cx="447.200116844762" cy="-114.075219495623" r="2" style="fill: rgb(0,0,0)" />
	<circle cx="435.035921250227" cy="-151.512764019901" r="2" style="fill: rgb(0,0,0)" />
	<circle cx="403.189643737934" cy="-174.650438991242" r="2" style="fill: rgb(0,0,0)" />
	<circle cx="312.297120472369" cy="-117.422398139605" r="2" style="fill: rgb(0,0,0)" />
	<circle cx="402.329442313026" cy="-182.834708851898" r="2" style="fill: rgb(0,0,0)" />
	<circle cx="402.329442313019" cy="-241.341258179133" r="2" style="fill: rgb(0,0,0)" />
	<circle cx="164.759124662145" cy="-594.318569393426" r="2" style="fill: rgb(0,0,0)" />
	<circle cx="158.101439763845" cy="-599.155660610104" r="2" style="fill: rgb(0,0,0)" />
	<circle cx="153.98676421029" cy="-638.304183437386" r="2" style="fill: rgb(0,0,0)" />
	<circle cx="127.646997394206" cy="-667.557458100985" r="2" style="fill: rgb(0,0,0)" />
	<circle cx="89.1430349835918" cy="-675.741727961644" r="2" style="fill: rgb(0,0,0)" />
	<circle cx="53.1820819177526" cy="-659.730880105692" r="2" style="fill: rgb(0,0,0)" />
	<circle cx="33.5" cy="-625.640514225399" r="2" style="fill: rgb(0,0,0)" />
	<circle cx="37.6146755535554" cy="-586.491991398118" r="2" style="fill: rgb(0,0,0)" />
	<circle cx="63.9544423696389" cy="-557.238716734519" r="2" style="fill: rgb(0,0,0)" />
	<circle cx="63.0942409447342" cy="-549.054446873855" r="2" style="fill: rgb(0,0,0)" />
	<circle cx="294.867075122161" cy="-652.246361124962" r="2" style="fill: rgb(0,0,0)" />
	<circle cx="482.385624801456" cy="-389.966989740968" r="2" style="fill: rgb(0,0,0)" />
	<circle cx="470.221429206913" cy="-427.404534265236" r="2" style="fill: rgb(0,0,0)" />
	<circle cx="499.19928011809" cy="-409.12473897843" r="2" style="fill: rgb(0,0,0)" />
	<circle cx="549.867438123219" cy="-438.378013642035" r="2" style="fill: rgb(0,0,0)" />
	<circle cx="561.5" cy="-549.054446873888" r="2" style="fill: rgb(0,0,0)" />
	<circle cx="424.925032078322" cy="-272.808289810385" r="2" style="fill: rgb(0,0,0)" />
	<circle cx="463.42899448892" cy="-280.992559671043" r="2" style="fill: rgb(0,0,0)" />
	<circle cx="467.54367004246" cy="-320.141082498326" r="2" style="fill: rgb(0,0,0)" />
	<circle cx="70.2227296863266" cy="-121.202046611012" r="2" style="fill: rgb(0,0,0)" />
	<circle cx="439.15059680376" cy="-190.661286847191" r="2" style="fill: rgb(0,0,0)" />
	<circle cx="431.582716976643" cy="-209.174475667956" r="2" style="fill: rgb(0,0,0)" />
	<circle cx="405.242950160574" cy="-238.427750331583" r="2" style="fill: rgb(0,0,0)" />
	<circle cx="536.636824642379" cy="-396.960543383903" r="2" style="fill: rgb(0,0,0)" />
	<circle cx="548.801020236897" cy="-434.398087908172" r="2" style="fill: rgb(0,0,0)" />
	<!--
	Generated using the Perl SVG Module V2.87
	by Ronan Oger

	-->
</svg>