<?xml version="1.0" encoding="UTF-8" standalone="yes"?>
<!DOCTYPE svg PUBLIC "-//W3C//DTD SVG 1.0//EN" "http://www.w3.org/TR/2001/REC-SVG-20010904/DTD/svg10.dtd">
<!-- generated using polymake; Michael Joswig, Georg Loho, Benjamin Lorenz, Rico Raber; license CC BY-NC-ND 3.0; see polymake.org and matchthenet.de -->
<svg height="841pt" id="document" viewBox="0 -740.049295508129 572 740.049295508129" width="595pt" xmlns="http://www.w3.org/2000/svg" xmlns:svg="http://www.w3.org/2000/svg" xmlns:xlink="http://www.w3.org/1999/xlink">
	<title id="document_title">planar_net_</title>
	<polygon points="248.901977620035,-376.371188974551 298.719112053699,-376.371188974551 339.022020421596,-405.652965906131 354.416361572661,-453.031876232419 339.022020421598,-500.410786558706 298.719112053701,-529.692563490285 248.901977620035,-529.692563490284 208.599069252137,-500.410786558705 193.204728101072,-453.031876232417 208.599069252136,-405.652965906129 " style="fill: rgb(136,136,136); fill-opacity: 1; stroke: rgb(0,0,0); stroke-width: 3" />
	<polygon points="183.690502035306,-328.992278648265 143.387593667406,-299.710501716689 127.993252516336,-252.331591390405 143.387593667393,-204.952681064119 183.690502035285,-175.67090413254 233.507636468949,-175.670904132538 273.810544836849,-204.952681064113 289.20488598792,-252.331591390398 273.810544836862,-299.710501716681 233.507636468971,-328.992278648263 " style="fill: rgb(136,136,136); fill-opacity: 1; stroke: rgb(0,0,0); stroke-width: 3" />
	<polygon points="314.113453204757,-328.99227864826 298.719112053699,-376.371188974551 248.901977620035,-376.371188974551 233.507636468971,-328.992278648263 273.810544836862,-299.710501716681 " style="fill: rgb(255,210,63); fill-opacity: 1; stroke: rgb(0,0,0); stroke-width: 3" />
	<polygon points="248.901977620035,-376.371188974551 208.599069252136,-405.652965906129 179.317292320554,-365.350057538232 219.620200688447,-336.068280606652 " style="fill: rgb(67,184,206); fill-opacity: 1; stroke: rgb(0,0,0); stroke-width: 3" />
	<polygon points="314.113453204757,-328.99227864826 273.810544836862,-299.710501716681 303.092321768441,-259.407593348783 343.395230136335,-288.689370280357 " style="fill: rgb(67,184,206); fill-opacity: 1; stroke: rgb(0,0,0); stroke-width: 3" />
	<polygon points="339.022020421596,-405.652965906131 298.719112053699,-376.371188974551 328.000888985277,-336.068280606653 368.303797353173,-365.350057538226 " style="fill: rgb(67,184,206); fill-opacity: 1; stroke: rgb(0,0,0); stroke-width: 3" />
	<polygon points="303.092321768422,-164.649772696202 262.789413400523,-135.367995764635 308.299630275173,-115.105541737417 " style="fill: rgb(14,173,105); fill-opacity: 1; stroke: rgb(0,0,0); stroke-width: 3" />
	<polygon points="208.599069252136,-405.652965906129 193.204728101072,-453.031876232417 143.387593667405,-453.031876232419 127.993252516337,-405.652965906135 168.296160884235,-376.371188974554 " style="fill: rgb(255,210,63); fill-opacity: 1; stroke: rgb(0,0,0); stroke-width: 3" />
	<polygon points="127.993252516337,-405.652965906135 143.387593667405,-453.031876232419 96.0086833411175,-468.42621738349 80.6143421900461,-421.047307057213 " style="fill: rgb(67,184,206); fill-opacity: 1; stroke: rgb(0,0,0); stroke-width: 3" />
	<polygon points="354.416361572661,-453.031876232419 339.022020421596,-405.652965906131 379.324928789498,-376.371188974548 419.627837157399,-405.652965906104 404.23349600633,-453.03187623239 " style="fill: rgb(255,210,63); fill-opacity: 1; stroke: rgb(0,0,0); stroke-width: 3" />
	<polygon points="208.599069252137,-500.410786558705 248.901977620035,-529.692563490284 233.507636468972,-577.071473816583 183.690502035308,-577.071473816585 168.296160884244,-529.692563490286 " style="fill: rgb(255,210,63); fill-opacity: 1; stroke: rgb(0,0,0); stroke-width: 3" />
	<polygon points="193.204728101072,-453.031876232417 208.599069252137,-500.410786558705 161.220158925848,-515.805127709772 145.825817774779,-468.426217383493 " style="fill: rgb(67,184,206); fill-opacity: 1; stroke: rgb(0,0,0); stroke-width: 3" />
	<polygon points="237.88084618367,-58.7073085067488 278.183754551564,-87.9890854383206 248.901977619988,-128.291993806229 208.599069252092,-99.0102168746505 " style="fill: rgb(67,184,206); fill-opacity: 1; stroke: rgb(0,0,0); stroke-width: 3" />
	<polygon points="339.022020421598,-500.410786558706 354.416361572661,-453.031876232419 401.795271898951,-468.426217383482 386.400930747892,-515.805127709766 " style="fill: rgb(67,184,206); fill-opacity: 1; stroke: rgb(0,0,0); stroke-width: 3" />
	<polygon points="368.303797353173,-365.350057538226 328.000888985277,-336.068280606653 373.51110585992,-315.805826579438 " style="fill: rgb(14,173,105); fill-opacity: 1; stroke: rgb(0,0,0); stroke-width: 3" />
	<polygon points="145.825817774779,-468.426217383493 161.220158925848,-515.805127709772 112.491648404124,-505.447563057983 " style="fill: rgb(14,173,105); fill-opacity: 1; stroke: rgb(0,0,0); stroke-width: 3" />
	<polygon points="354.416361572644,-204.952681064086 339.022020421584,-252.331591390388 289.20488598792,-252.331591390398 273.810544836849,-204.952681064113 314.113453204743,-175.670904132517 " style="fill: rgb(255,210,63); fill-opacity: 1; stroke: rgb(0,0,0); stroke-width: 3" />
	<polygon points="419.627837157399,-405.652965906104 379.324928789498,-376.371188974548 408.606705721059,-336.068280606637 448.909614088958,-365.350057538186 " style="fill: rgb(67,184,206); fill-opacity: 1; stroke: rgb(0,0,0); stroke-width: 3" />
	<polygon points="183.690502035308,-577.071473816585 233.507636468972,-577.071473816583 233.507636468973,-626.88860825025 183.690502035316,-626.888608250257 " style="fill: rgb(67,184,206); fill-opacity: 1; stroke: rgb(0,0,0); stroke-width: 3" />
	<polygon points="248.901977620043,-579.509697923957 298.719112053703,-579.509697923952 273.810544836864,-622.652601887257 " style="fill: rgb(14,173,105); fill-opacity: 1; stroke: rgb(0,0,0); stroke-width: 3" />
	<polygon points="183.690502035285,-175.67090413254 143.387593667393,-204.952681064119 114.10581673581,-164.649772696224 154.408725103696,-135.367995764645 " style="fill: rgb(67,184,206); fill-opacity: 1; stroke: rgb(0,0,0); stroke-width: 3" />
	<polygon points="273.810544836849,-204.952681064113 233.507636468949,-175.670904132538 262.789413400523,-135.367995764635 303.092321768422,-164.649772696202 " style="fill: rgb(67,184,206); fill-opacity: 1; stroke: rgb(0,0,0); stroke-width: 3" />
	<polygon points="78.1761180826612,-252.331591390406 62.7817769315756,-204.952681064141 103.084685299476,-175.670904132568 143.387593667393,-204.952681064119 127.993252516336,-252.331591390405 " style="fill: rgb(255,210,63); fill-opacity: 1; stroke: rgb(0,0,0); stroke-width: 3" />
	<polygon points="168.296160884244,-529.692563490286 183.690502035308,-577.071473816585 136.311591709018,-592.46581496765 120.917250557949,-545.086904641359 " style="fill: rgb(67,184,206); fill-opacity: 1; stroke: rgb(0,0,0); stroke-width: 3" />
	<polygon points="404.23349600633,-453.03187623239 419.627837157399,-405.652965906104 467.006747483688,-421.047307057172 451.612406332623,-468.426217383455 " style="fill: rgb(67,184,206); fill-opacity: 1; stroke: rgb(0,0,0); stroke-width: 3" />
	<polygon points="233.507636468973,-626.88860825025 248.901977620037,-674.26751857654 208.599069252153,-703.549295508129 168.296160884261,-674.267518576553 183.690502035316,-626.888608250257 " style="fill: rgb(255,210,63); fill-opacity: 1; stroke: rgb(0,0,0); stroke-width: 3" />
	<polygon points="248.901977620035,-529.692563490284 298.719112053701,-529.692563490285 298.719112053703,-579.509697923952 248.901977620043,-579.509697923957 " style="fill: rgb(67,184,206); fill-opacity: 1; stroke: rgb(0,0,0); stroke-width: 3" />
	<polygon points="298.719112053701,-529.692563490285 339.022020421598,-500.410786558706 379.324928789498,-529.692563490287 363.930587638459,-577.071473816575 314.113453204794,-577.071473816574 " style="fill: rgb(255,210,63); fill-opacity: 1; stroke: rgb(0,0,0); stroke-width: 3" />
	<polygon points="233.507636468949,-175.670904132538 183.690502035285,-175.67090413254 168.296160884217,-128.291993806248 208.599069252092,-99.0102168746505 248.901977619988,-128.291993806229 " style="fill: rgb(255,210,63); fill-opacity: 1; stroke: rgb(0,0,0); stroke-width: 3" />
	<polygon points="363.930587638459,-577.071473816575 379.324928789498,-529.692563490287 426.703839115796,-545.086904641329 411.309497964761,-592.465814967613 " style="fill: rgb(67,184,206); fill-opacity: 1; stroke: rgb(0,0,0); stroke-width: 3" />
	<polygon points="354.416361572644,-204.952681064086 314.113453204743,-175.670904132517 343.395230136314,-135.367995764611 383.698138504213,-164.649772696173 " style="fill: rgb(67,184,206); fill-opacity: 1; stroke: rgb(0,0,0); stroke-width: 3" />
	<polygon points="419.627837157399,-405.652965906104 448.909614088958,-365.350057538186 469.172068116183,-410.860274412828 " style="fill: rgb(14,173,105); fill-opacity: 1; stroke: rgb(0,0,0); stroke-width: 3" />
	<polygon points="386.400930747892,-515.805127709766 401.795271898951,-468.426217383482 435.129441269622,-505.447563057965 " style="fill: rgb(14,173,105); fill-opacity: 1; stroke: rgb(0,0,0); stroke-width: 3" />
	<polygon points="139.014383952613,-87.9890854383658 179.317292320482,-58.7073085067698 208.599069252092,-99.0102168746505 168.296160884217,-128.291993806248 " style="fill: rgb(67,184,206); fill-opacity: 1; stroke: rgb(0,0,0); stroke-width: 3" />
	<polygon points="314.113453204794,-577.071473816574 363.930587638459,-577.071473816575 363.930587638462,-626.888608250243 314.113453204803,-626.888608250247 " style="fill: rgb(67,184,206); fill-opacity: 1; stroke: rgb(0,0,0); stroke-width: 3" />
	<polygon points="451.612406332623,-468.426217383455 467.006747483688,-421.047307057172 516.823881917354,-421.047307057174 532.218223068419,-468.426217383456 491.915314700521,-497.70799431503 " style="fill: rgb(255,210,63); fill-opacity: 1; stroke: rgb(0,0,0); stroke-width: 3" />
	<polygon points="33.5,-164.649772696239 73.8029083678948,-135.367995764667 103.084685299476,-175.670904132568 62.7817769315756,-204.952681064141 " style="fill: rgb(67,184,206); fill-opacity: 1; stroke: rgb(0,0,0); stroke-width: 3" />
	<polygon points="183.690502035308,-577.071473816585 183.690502035316,-626.888608250257 140.547598072009,-601.980041033438 " style="fill: rgb(14,173,105); fill-opacity: 1; stroke: rgb(0,0,0); stroke-width: 3" />
	<polygon points="491.915314700521,-497.70799431503 532.218223068419,-468.426217383456 561.5,-508.729125751356 521.197091632107,-538.01090268293 " style="fill: rgb(67,184,206); fill-opacity: 1; stroke: rgb(0,0,0); stroke-width: 3" />
	<polygon points="154.408725103696,-135.367995764645 114.10581673581,-164.649772696224 108.898508229044,-115.105541737438 " style="fill: rgb(14,173,105); fill-opacity: 1; stroke: rgb(0,0,0); stroke-width: 3" />
	<polygon points="237.88084618367,-58.7073085067488 208.599069252092,-99.0102168746505 188.336615224876,-53.5 " style="fill: rgb(14,173,105); fill-opacity: 1; stroke: rgb(0,0,0); stroke-width: 3" />
	<polygon points="363.930587638459,-577.071473816575 411.309497964761,-592.465814967613 374.288152290294,-625.799984338296 " style="fill: rgb(14,173,105); fill-opacity: 1; stroke: rgb(0,0,0); stroke-width: 3" />
	<circle cx="248.901977620035" cy="-376.371188974551" r="2" style="fill: rgb(0,0,0)" />
	<circle cx="298.719112053699" cy="-376.371188974551" r="2" style="fill: rgb(0,0,0)" />
	<circle cx="339.022020421596" cy="-405.652965906131" r="2" style="fill: rgb(0,0,0)" />
	<circle cx="354.416361572661" cy="-453.031876232419" r="2" style="fill: rgb(0,0,0)" />
	<circle cx="339.022020421598" cy="-500.410786558706" r="2" style="fill: rgb(0,0,0)" />
	<circle cx="298.719112053701" cy="-529.692563490285" r="2" style="fill: rgb(0,0,0)" />
	<circle cx="248.901977620035" cy="-529.692563490284" r="2" style="fill: rgb(0,0,0)" />
	<circle cx="208.599069252137" cy="-500.410786558705" r="2" style="fill: rgb(0,0,0)" />
	<circle cx="193.204728101072" cy="-453.031876232417" r="2" style="fill: rgb(0,0,0)" />
	<circle cx="208.599069252136" cy="-405.652965906129" r="2" style="fill: rgb(0,0,0)" />
	<circle cx="233.507636468971" cy="-328.992278648263" r="2" style="fill: rgb(0,0,0)" />
	<circle cx="273.810544836862" cy="-299.710501716681" r="2" style="fill: rgb(0,0,0)" />
	<circle cx="314.113453204757" cy="-328.99227864826" r="2" style="fill: rgb(0,0,0)" />
	<circle cx="179.317292320554" cy="-365.350057538232" r="2" style="fill: rgb(0,0,0)" />
	<circle cx="219.620200688447" cy="-336.068280606652" r="2" style="fill: rgb(0,0,0)" />
	<circle cx="328.000888985277" cy="-336.068280606653" r="2" style="fill: rgb(0,0,0)" />
	<circle cx="368.303797353173" cy="-365.350057538226" r="2" style="fill: rgb(0,0,0)" />
	<circle cx="143.387593667405" cy="-453.031876232419" r="2" style="fill: rgb(0,0,0)" />
	<circle cx="127.993252516337" cy="-405.652965906135" r="2" style="fill: rgb(0,0,0)" />
	<circle cx="168.296160884235" cy="-376.371188974554" r="2" style="fill: rgb(0,0,0)" />
	<circle cx="379.324928789498" cy="-376.371188974548" r="2" style="fill: rgb(0,0,0)" />
	<circle cx="419.627837157399" cy="-405.652965906104" r="2" style="fill: rgb(0,0,0)" />
	<circle cx="404.23349600633" cy="-453.03187623239" r="2" style="fill: rgb(0,0,0)" />
	<circle cx="233.507636468972" cy="-577.071473816583" r="2" style="fill: rgb(0,0,0)" />
	<circle cx="183.690502035308" cy="-577.071473816585" r="2" style="fill: rgb(0,0,0)" />
	<circle cx="168.296160884244" cy="-529.692563490286" r="2" style="fill: rgb(0,0,0)" />
	<circle cx="161.220158925848" cy="-515.805127709772" r="2" style="fill: rgb(0,0,0)" />
	<circle cx="145.825817774779" cy="-468.426217383493" r="2" style="fill: rgb(0,0,0)" />
	<circle cx="401.795271898951" cy="-468.426217383482" r="2" style="fill: rgb(0,0,0)" />
	<circle cx="386.400930747892" cy="-515.805127709766" r="2" style="fill: rgb(0,0,0)" />
	<circle cx="298.719112053703" cy="-579.509697923952" r="2" style="fill: rgb(0,0,0)" />
	<circle cx="248.901977620043" cy="-579.509697923957" r="2" style="fill: rgb(0,0,0)" />
	<circle cx="379.324928789498" cy="-529.692563490287" r="2" style="fill: rgb(0,0,0)" />
	<circle cx="363.930587638459" cy="-577.071473816575" r="2" style="fill: rgb(0,0,0)" />
	<circle cx="314.113453204794" cy="-577.071473816574" r="2" style="fill: rgb(0,0,0)" />
	<circle cx="183.690502035306" cy="-328.992278648265" r="2" style="fill: rgb(0,0,0)" />
	<circle cx="143.387593667406" cy="-299.710501716689" r="2" style="fill: rgb(0,0,0)" />
	<circle cx="127.993252516336" cy="-252.331591390405" r="2" style="fill: rgb(0,0,0)" />
	<circle cx="143.387593667393" cy="-204.952681064119" r="2" style="fill: rgb(0,0,0)" />
	<circle cx="183.690502035285" cy="-175.67090413254" r="2" style="fill: rgb(0,0,0)" />
	<circle cx="233.507636468949" cy="-175.670904132538" r="2" style="fill: rgb(0,0,0)" />
	<circle cx="273.810544836849" cy="-204.952681064113" r="2" style="fill: rgb(0,0,0)" />
	<circle cx="289.20488598792" cy="-252.331591390398" r="2" style="fill: rgb(0,0,0)" />
	<circle cx="303.092321768441" cy="-259.407593348783" r="2" style="fill: rgb(0,0,0)" />
	<circle cx="343.395230136335" cy="-288.689370280357" r="2" style="fill: rgb(0,0,0)" />
	<circle cx="373.51110585992" cy="-315.805826579438" r="2" style="fill: rgb(0,0,0)" />
	<circle cx="96.0086833411175" cy="-468.42621738349" r="2" style="fill: rgb(0,0,0)" />
	<circle cx="80.6143421900461" cy="-421.047307057213" r="2" style="fill: rgb(0,0,0)" />
	<circle cx="408.606705721059" cy="-336.068280606637" r="2" style="fill: rgb(0,0,0)" />
	<circle cx="448.909614088958" cy="-365.350057538186" r="2" style="fill: rgb(0,0,0)" />
	<circle cx="467.006747483688" cy="-421.047307057172" r="2" style="fill: rgb(0,0,0)" />
	<circle cx="451.612406332623" cy="-468.426217383455" r="2" style="fill: rgb(0,0,0)" />
	<circle cx="233.507636468973" cy="-626.88860825025" r="2" style="fill: rgb(0,0,0)" />
	<circle cx="183.690502035316" cy="-626.888608250257" r="2" style="fill: rgb(0,0,0)" />
	<circle cx="136.311591709018" cy="-592.46581496765" r="2" style="fill: rgb(0,0,0)" />
	<circle cx="120.917250557949" cy="-545.086904641359" r="2" style="fill: rgb(0,0,0)" />
	<circle cx="112.491648404124" cy="-505.447563057983" r="2" style="fill: rgb(0,0,0)" />
	<circle cx="435.129441269622" cy="-505.447563057965" r="2" style="fill: rgb(0,0,0)" />
	<circle cx="273.810544836864" cy="-622.652601887257" r="2" style="fill: rgb(0,0,0)" />
	<circle cx="426.703839115796" cy="-545.086904641329" r="2" style="fill: rgb(0,0,0)" />
	<circle cx="411.309497964761" cy="-592.465814967613" r="2" style="fill: rgb(0,0,0)" />
	<circle cx="363.930587638462" cy="-626.888608250243" r="2" style="fill: rgb(0,0,0)" />
	<circle cx="314.113453204803" cy="-626.888608250247" r="2" style="fill: rgb(0,0,0)" />
	<circle cx="314.113453204743" cy="-175.670904132517" r="2" style="fill: rgb(0,0,0)" />
	<circle cx="354.416361572644" cy="-204.952681064086" r="2" style="fill: rgb(0,0,0)" />
	<circle cx="339.022020421584" cy="-252.331591390388" r="2" style="fill: rgb(0,0,0)" />
	<circle cx="114.10581673581" cy="-164.649772696224" r="2" style="fill: rgb(0,0,0)" />
	<circle cx="154.408725103696" cy="-135.367995764645" r="2" style="fill: rgb(0,0,0)" />
	<circle cx="262.789413400523" cy="-135.367995764635" r="2" style="fill: rgb(0,0,0)" />
	<circle cx="303.092321768422" cy="-164.649772696202" r="2" style="fill: rgb(0,0,0)" />
	<circle cx="78.1761180826612" cy="-252.331591390406" r="2" style="fill: rgb(0,0,0)" />
	<circle cx="62.7817769315756" cy="-204.952681064141" r="2" style="fill: rgb(0,0,0)" />
	<circle cx="103.084685299476" cy="-175.670904132568" r="2" style="fill: rgb(0,0,0)" />
	<circle cx="168.296160884217" cy="-128.291993806248" r="2" style="fill: rgb(0,0,0)" />
	<circle cx="208.599069252092" cy="-99.0102168746505" r="2" style="fill: rgb(0,0,0)" />
	<circle cx="248.901977619988" cy="-128.291993806229" r="2" style="fill: rgb(0,0,0)" />
	<circle cx="469.172068116183" cy="-410.860274412828" r="2" style="fill: rgb(0,0,0)" />
	<circle cx="516.823881917354" cy="-421.047307057174" r="2" style="fill: rgb(0,0,0)" />
	<circle cx="532.218223068419" cy="-468.426217383456" r="2" style="fill: rgb(0,0,0)" />
	<circle cx="491.915314700521" cy="-497.70799431503" r="2" style="fill: rgb(0,0,0)" />
	<circle cx="248.901977620037" cy="-674.26751857654" r="2" style="fill: rgb(0,0,0)" />
	<circle cx="208.599069252153" cy="-703.549295508129" r="2" style="fill: rgb(0,0,0)" />
	<circle cx="168.296160884261" cy="-674.267518576553" r="2" style="fill: rgb(0,0,0)" />
	<circle cx="140.547598072009" cy="-601.980041033438" r="2" style="fill: rgb(0,0,0)" />
	<circle cx="374.288152290294" cy="-625.799984338296" r="2" style="fill: rgb(0,0,0)" />
	<circle cx="343.395230136314" cy="-135.367995764611" r="2" style="fill: rgb(0,0,0)" />
	<circle cx="383.698138504213" cy="-164.649772696173" r="2" style="fill: rgb(0,0,0)" />
	<circle cx="108.898508229044" cy="-115.105541737438" r="2" style="fill: rgb(0,0,0)" />
	<circle cx="308.299630275173" cy="-115.105541737417" r="2" style="fill: rgb(0,0,0)" />
	<circle cx="33.5" cy="-164.649772696239" r="2" style="fill: rgb(0,0,0)" />
	<circle cx="73.8029083678948" cy="-135.367995764667" r="2" style="fill: rgb(0,0,0)" />
	<circle cx="237.88084618367" cy="-58.7073085067488" r="2" style="fill: rgb(0,0,0)" />
	<circle cx="278.183754551564" cy="-87.9890854383206" r="2" style="fill: rgb(0,0,0)" />
	<circle cx="139.014383952613" cy="-87.9890854383658" r="2" style="fill: rgb(0,0,0)" />
	<circle cx="179.317292320482" cy="-58.7073085067698" r="2" style="fill: rgb(0,0,0)" />
	<circle cx="561.5" cy="-508.729125751356" r="2" style="fill: rgb(0,0,0)" />
	<circle cx="521.197091632107" cy="-538.01090268293" r="2" style="fill: rgb(0,0,0)" />
	<circle cx="188.336615224876" cy="-53.5" r="2" style="fill: rgb(0,0,0)" />
	<!--
	Generated using the Perl SVG Module V2.84
	by Ronan Oger
	Info: http://www.roitsystems.com/
	-->
</svg>