<?xml version="1.0" encoding="UTF-8" standalone="yes"?>
<!DOCTYPE svg PUBLIC "-//W3C//DTD SVG 1.0//EN" "http://www.w3.org/TR/2001/REC-SVG-20010904/DTD/svg10.dtd">
<!-- generated using polymake; Michael Joswig, Georg Loho, Benjamin Lorenz, Rico Raber; license CC BY-NC-SA 3.0; see polymake.org and matchthenet.de -->
<svg height="841pt" id="document" viewBox="0 -627.526923575486 572 627.526923575486" width="595pt" xmlns="http://www.w3.org/2000/svg" xmlns:svg="http://www.w3.org/2000/svg" xmlns:xlink="http://www.w3.org/1999/xlink">
	<title id="document_title">planar_net_</title>
	<polygon points="267.134104087754,-300.612670513018 327.683589942297,-300.612670513018 301.720949828717,-355.313507394939 239.059697540181,-356.648758262341 " style="fill: rgb(14,173,105); fill-opacity: 1; stroke: rgb(0,0,0); stroke-width: 3" />
	<polygon points="267.134104087754,-300.612670513018 239.059697540169,-244.576582763706 301.720949828699,-245.911833631091 327.683589942297,-300.612670513018 " style="fill: rgb(14,173,105); fill-opacity: 1; stroke: rgb(0,0,0); stroke-width: 3" />
	<polygon points="301.720949828717,-355.313507394939 327.683589942297,-300.612670513018 365.968355555072,-347.52233859141 340.306499299643,-404.703494287778 " style="fill: rgb(14,173,105); fill-opacity: 1; stroke: rgb(0,0,0); stroke-width: 3" />
	<polygon points="267.134104087754,-300.612670513018 239.059697540181,-356.648758262341 200.870272540843,-305.878273814621 230.562183382546,-249.71365235765 " style="fill: rgb(14,173,105); fill-opacity: 1; stroke: rgb(0,0,0); stroke-width: 3" />
	<polygon points="365.968355555057,-253.7030024346 327.683589942297,-300.612670513018 301.720949828699,-245.911833631091 340.306499299601,-196.521846738233 " style="fill: rgb(14,173,105); fill-opacity: 1; stroke: rgb(0,0,0); stroke-width: 3" />
	<polygon points="239.059697540181,-356.648758262341 301.720949828717,-355.313507394939 332.02203741258,-410.177516767954 268.551107179553,-412.91891936322 " style="fill: rgb(14,173,105); fill-opacity: 1; stroke: rgb(0,0,0); stroke-width: 3" />
	<polygon points="365.968355555072,-347.52233859141 327.683589942297,-300.612670513018 386.478006491603,-286.140047396363 427.132481044435,-333.841505781613 " style="fill: rgb(14,173,105); fill-opacity: 1; stroke: rgb(0,0,0); stroke-width: 3" />
	<polygon points="200.870272540843,-305.878273814621 239.059697540181,-356.648758262341 202.833803628283,-364.616596964974 180.540761582955,-339.252751148459 191.761030406673,-307.402947918895 " style="fill: rgb(14,173,105); fill-opacity: 1; stroke: rgb(0,0,0); stroke-width: 3" />
	<polygon points="301.720949828699,-245.911833631091 239.059697540169,-244.576582763706 268.551107179524,-188.306421662814 332.02203741254,-191.047824258053 " style="fill: rgb(14,173,105); fill-opacity: 1; stroke: rgb(0,0,0); stroke-width: 3" />
	<polygon points="239.059697540181,-356.648758262341 268.551107179553,-412.91891936322 263.267810051623,-420.494518008954 229.683401135012,-416.974308361732 216.328417956613,-385.959008547876 " style="fill: rgb(14,173,105); fill-opacity: 1; stroke: rgb(0,0,0); stroke-width: 3" />
	<polygon points="230.562183382546,-249.71365235765 200.870272540843,-305.878273814621 191.634556709783,-305.811367378986 175.525024421362,-276.133305318149 193.532549909089,-247.567006572117 " style="fill: rgb(14,173,105); fill-opacity: 1; stroke: rgb(0,0,0); stroke-width: 3" />
	<polygon points="340.306499299643,-404.703494287778 365.968355555072,-347.52233859141 428.525508699042,-343.672919963979 403.786803126521,-402.188479599271 " style="fill: rgb(14,173,105); fill-opacity: 1; stroke: rgb(0,0,0); stroke-width: 3" />
	<polygon points="239.059697540169,-244.576582763706 216.328417956594,-215.266332478172 229.683401134985,-184.251032664313 263.267810051594,-180.730823017086 268.551107179524,-188.306421662814 " style="fill: rgb(14,173,105); fill-opacity: 1; stroke: rgb(0,0,0); stroke-width: 3" />
	<polygon points="268.551107179553,-412.91891936322 332.02203741258,-410.177516767954 318.083624649208,-444.550798440573 284.555291205098,-448.570158426822 264.65142537452,-421.291219238562 " style="fill: rgb(14,173,105); fill-opacity: 1; stroke: rgb(0,0,0); stroke-width: 3" />
	<polygon points="428.525508699038,-257.552421061993 365.968355555057,-253.7030024346 340.306499299601,-196.521846738233 403.786803126484,-199.036861426708 " style="fill: rgb(14,173,105); fill-opacity: 1; stroke: rgb(0,0,0); stroke-width: 3" />
	<polygon points="340.306499299643,-404.703494287778 403.786803126521,-402.188479599271 408.365260564188,-410.209742023274 390.78462679317,-439.040727341988 357.03878322228,-437.806855416813 " style="fill: rgb(14,173,105); fill-opacity: 1; stroke: rgb(0,0,0); stroke-width: 3" />
	<polygon points="268.551107179524,-188.306421662814 264.651425374492,-179.934121787467 284.555291205054,-152.655182599202 318.083624649156,-156.674542585443 332.02203741254,-191.047824258053 " style="fill: rgb(14,173,105); fill-opacity: 1; stroke: rgb(0,0,0); stroke-width: 3" />
	<polygon points="403.786803126484,-199.036861426708 340.306499299601,-196.521846738233 357.038783222228,-163.418485609188 390.784626793117,-162.184613684002 408.365260564143,-191.015599002709 " style="fill: rgb(14,173,105); fill-opacity: 1; stroke: rgb(0,0,0); stroke-width: 3" />
	<polygon points="403.786803126521,-402.188479599271 428.525508699042,-343.672919963979 453.602010309439,-371.003688527836 442.856721713544,-403.016860367399 409.678278000526,-409.301386683724 " style="fill: rgb(14,173,105); fill-opacity: 1; stroke: rgb(0,0,0); stroke-width: 3" />
	<polygon points="428.525508699038,-257.552421061993 403.786803126484,-199.036861426708 409.678278000495,-191.923954342249 442.856721713514,-198.208480658566 453.602010309419,-230.221652498128 " style="fill: rgb(14,173,105); fill-opacity: 1; stroke: rgb(0,0,0); stroke-width: 3" />
	<polygon points="202.833803628283,-364.616596964974 188.078994295839,-394.990928230074 112.562196439132,-395.045414005194 96.8419731843158,-362.249054170048 180.540761582955,-339.252751148459 " style="fill: rgb(14,173,105); fill-opacity: 1; stroke: rgb(0,0,0); stroke-width: 3" />
	<polygon points="263.267810051623,-420.494518008954 273.02467294448,-452.822648556959 209.279420170089,-511.736652671337 189.739447326362,-481.062296950566 229.683401135012,-416.974308361732 " style="fill: rgb(14,173,105); fill-opacity: 1; stroke: rgb(0,0,0); stroke-width: 3" />
	<polygon points="191.761030406673,-307.402947918895 180.540761582955,-339.252751148459 94.3057747075914,-349.144372383993 96.6548020414315,-312.851002353059 166.73915194649,-284.726749018677 " style="fill: rgb(14,173,105); fill-opacity: 1; stroke: rgb(0,0,0); stroke-width: 3" />
	<polygon points="193.532549909089,-247.567006572117 175.525024421362,-276.133305318149 100.460811710326,-267.877780059102 88.4448801968052,-233.550764058872 174.165858158337,-219.904113576809 " style="fill: rgb(14,173,105); fill-opacity: 1; stroke: rgb(0,0,0); stroke-width: 3" />
	<polygon points="284.555291205098,-448.570158426822 318.083624649208,-444.550798440573 334.770355098593,-473.908206792615 292.066813867087,-536.191409130957 256.132212178641,-530.585069941228 " style="fill: rgb(14,173,105); fill-opacity: 1; stroke: rgb(0,0,0); stroke-width: 3" />
	<polygon points="408.365260564188,-410.209742023274 441.754308996165,-415.257102030849 467.644706747128,-498.10638951334 431.554850975929,-502.606272626499 390.78462679317,-439.040727341988 " style="fill: rgb(14,173,105); fill-opacity: 1; stroke: rgb(0,0,0); stroke-width: 3" />
	<polygon points="229.683401134985,-184.251032664313 183.771072567493,-110.587098357407 217.565986535192,-97.1472163812446 273.024672944445,-148.402692469087 263.267810051594,-180.730823017086 " style="fill: rgb(14,173,105); fill-opacity: 1; stroke: rgb(0,0,0); stroke-width: 3" />
	<polygon points="334.770355098524,-127.317134233404 318.083624649156,-156.674542585443 284.555291205054,-152.655182599202 259.827071331276,-81.3018023772073 285.686105066384,-55.7276550423774 " style="fill: rgb(14,173,105); fill-opacity: 1; stroke: rgb(0,0,0); stroke-width: 3" />
	<polygon points="442.856721713544,-403.016860367399 453.602010309439,-371.003688527836 487.27870225971,-368.516759191156 525.23520323719,-433.801472262256 504.762220530744,-463.861139870515 " style="fill: rgb(14,173,105); fill-opacity: 1; stroke: rgb(0,0,0); stroke-width: 3" />
	<polygon points="408.365260564143,-191.015599002709 390.784626793117,-162.184613684002 437.646686002736,-89.1211854952267 464.279083585387,-113.888947538194 441.754308996109,-185.968238995131 " style="fill: rgb(14,173,105); fill-opacity: 1; stroke: rgb(0,0,0); stroke-width: 3" />
	<polygon points="96.6548020414315,-312.851002353059 94.3057747075914,-349.144372383993 33.5,-344.11916346306 66.3678117996741,-292.715837598 " style="fill: rgb(14,173,105); fill-opacity: 1; stroke: rgb(0,0,0); stroke-width: 3" />
	<polygon points="183.771072567493,-110.587098357407 162.238349478634,-53.5 222.769666312818,-61.1521006793948 217.565986535192,-97.1472163812446 " style="fill: rgb(14,173,105); fill-opacity: 1; stroke: rgb(0,0,0); stroke-width: 3" />
	<polygon points="504.762220530744,-463.861139870515 525.23520323719,-433.801472262256 561.5,-436.556677040478 555.79435121826,-497.302380875935 " style="fill: rgb(14,173,105); fill-opacity: 1; stroke: rgb(0,0,0); stroke-width: 3" />
	<polygon points="256.132212178641,-530.585069941228 292.066813867087,-536.191409130957 305.12750049117,-570.134672122682 247.802908981776,-591.026923575486 " style="fill: rgb(14,173,105); fill-opacity: 1; stroke: rgb(0,0,0); stroke-width: 3" />
	<polygon points="112.562196439132,-395.045414005194 91.9744061070916,-425.026566865979 42.3016199063521,-389.597634147904 96.8419731843158,-362.249054170048 " style="fill: rgb(14,173,105); fill-opacity: 1; stroke: rgb(0,0,0); stroke-width: 3" />
	<circle cx="267.134104087754" cy="-300.612670513018" r="2" style="fill: rgb(0,0,0)" />
	<circle cx="327.683589942297" cy="-300.612670513018" r="2" style="fill: rgb(0,0,0)" />
	<circle cx="301.720949828717" cy="-355.313507394939" r="2" style="fill: rgb(0,0,0)" />
	<circle cx="239.059697540181" cy="-356.648758262341" r="2" style="fill: rgb(0,0,0)" />
	<circle cx="239.059697540169" cy="-244.576582763706" r="2" style="fill: rgb(0,0,0)" />
	<circle cx="301.720949828699" cy="-245.911833631091" r="2" style="fill: rgb(0,0,0)" />
	<circle cx="365.968355555072" cy="-347.52233859141" r="2" style="fill: rgb(0,0,0)" />
	<circle cx="340.306499299643" cy="-404.703494287778" r="2" style="fill: rgb(0,0,0)" />
	<circle cx="200.870272540843" cy="-305.878273814621" r="2" style="fill: rgb(0,0,0)" />
	<circle cx="230.562183382546" cy="-249.71365235765" r="2" style="fill: rgb(0,0,0)" />
	<circle cx="332.02203741258" cy="-410.177516767954" r="2" style="fill: rgb(0,0,0)" />
	<circle cx="268.551107179553" cy="-412.91891936322" r="2" style="fill: rgb(0,0,0)" />
	<circle cx="340.306499299601" cy="-196.521846738233" r="2" style="fill: rgb(0,0,0)" />
	<circle cx="365.968355555057" cy="-253.7030024346" r="2" style="fill: rgb(0,0,0)" />
	<circle cx="268.551107179524" cy="-188.306421662814" r="2" style="fill: rgb(0,0,0)" />
	<circle cx="332.02203741254" cy="-191.047824258053" r="2" style="fill: rgb(0,0,0)" />
	<circle cx="386.478006491603" cy="-286.140047396363" r="2" style="fill: rgb(0,0,0)" />
	<circle cx="427.132481044435" cy="-333.841505781613" r="2" style="fill: rgb(0,0,0)" />
	<circle cx="428.525508699042" cy="-343.672919963979" r="2" style="fill: rgb(0,0,0)" />
	<circle cx="403.786803126521" cy="-402.188479599271" r="2" style="fill: rgb(0,0,0)" />
	<circle cx="202.833803628283" cy="-364.616596964974" r="2" style="fill: rgb(0,0,0)" />
	<circle cx="180.540761582955" cy="-339.252751148459" r="2" style="fill: rgb(0,0,0)" />
	<circle cx="191.761030406673" cy="-307.402947918895" r="2" style="fill: rgb(0,0,0)" />
	<circle cx="191.634556709783" cy="-305.811367378986" r="2" style="fill: rgb(0,0,0)" />
	<circle cx="175.525024421362" cy="-276.133305318149" r="2" style="fill: rgb(0,0,0)" />
	<circle cx="193.532549909089" cy="-247.567006572117" r="2" style="fill: rgb(0,0,0)" />
	<circle cx="263.267810051623" cy="-420.494518008954" r="2" style="fill: rgb(0,0,0)" />
	<circle cx="229.683401135012" cy="-416.974308361732" r="2" style="fill: rgb(0,0,0)" />
	<circle cx="216.328417956613" cy="-385.959008547876" r="2" style="fill: rgb(0,0,0)" />
	<circle cx="318.083624649208" cy="-444.550798440573" r="2" style="fill: rgb(0,0,0)" />
	<circle cx="284.555291205098" cy="-448.570158426822" r="2" style="fill: rgb(0,0,0)" />
	<circle cx="264.65142537452" cy="-421.291219238562" r="2" style="fill: rgb(0,0,0)" />
	<circle cx="403.786803126484" cy="-199.036861426708" r="2" style="fill: rgb(0,0,0)" />
	<circle cx="428.525508699038" cy="-257.552421061993" r="2" style="fill: rgb(0,0,0)" />
	<circle cx="216.328417956594" cy="-215.266332478172" r="2" style="fill: rgb(0,0,0)" />
	<circle cx="229.683401134985" cy="-184.251032664313" r="2" style="fill: rgb(0,0,0)" />
	<circle cx="263.267810051594" cy="-180.730823017086" r="2" style="fill: rgb(0,0,0)" />
	<circle cx="264.651425374492" cy="-179.934121787467" r="2" style="fill: rgb(0,0,0)" />
	<circle cx="284.555291205054" cy="-152.655182599202" r="2" style="fill: rgb(0,0,0)" />
	<circle cx="318.083624649156" cy="-156.674542585443" r="2" style="fill: rgb(0,0,0)" />
	<circle cx="408.365260564188" cy="-410.209742023274" r="2" style="fill: rgb(0,0,0)" />
	<circle cx="390.78462679317" cy="-439.040727341988" r="2" style="fill: rgb(0,0,0)" />
	<circle cx="357.03878322228" cy="-437.806855416813" r="2" style="fill: rgb(0,0,0)" />
	<circle cx="453.602010309439" cy="-371.003688527836" r="2" style="fill: rgb(0,0,0)" />
	<circle cx="442.856721713544" cy="-403.016860367399" r="2" style="fill: rgb(0,0,0)" />
	<circle cx="409.678278000526" cy="-409.301386683724" r="2" style="fill: rgb(0,0,0)" />
	<circle cx="188.078994295839" cy="-394.990928230074" r="2" style="fill: rgb(0,0,0)" />
	<circle cx="112.562196439132" cy="-395.045414005194" r="2" style="fill: rgb(0,0,0)" />
	<circle cx="96.8419731843158" cy="-362.249054170048" r="2" style="fill: rgb(0,0,0)" />
	<circle cx="94.3057747075914" cy="-349.144372383993" r="2" style="fill: rgb(0,0,0)" />
	<circle cx="96.6548020414315" cy="-312.851002353059" r="2" style="fill: rgb(0,0,0)" />
	<circle cx="166.73915194649" cy="-284.726749018677" r="2" style="fill: rgb(0,0,0)" />
	<circle cx="100.460811710326" cy="-267.877780059102" r="2" style="fill: rgb(0,0,0)" />
	<circle cx="88.4448801968052" cy="-233.550764058872" r="2" style="fill: rgb(0,0,0)" />
	<circle cx="174.165858158337" cy="-219.904113576809" r="2" style="fill: rgb(0,0,0)" />
	<circle cx="273.02467294448" cy="-452.822648556959" r="2" style="fill: rgb(0,0,0)" />
	<circle cx="209.279420170089" cy="-511.736652671337" r="2" style="fill: rgb(0,0,0)" />
	<circle cx="189.739447326362" cy="-481.062296950566" r="2" style="fill: rgb(0,0,0)" />
	<circle cx="334.770355098593" cy="-473.908206792615" r="2" style="fill: rgb(0,0,0)" />
	<circle cx="292.066813867087" cy="-536.191409130957" r="2" style="fill: rgb(0,0,0)" />
	<circle cx="256.132212178641" cy="-530.585069941228" r="2" style="fill: rgb(0,0,0)" />
	<circle cx="357.038783222228" cy="-163.418485609188" r="2" style="fill: rgb(0,0,0)" />
	<circle cx="390.784626793117" cy="-162.184613684002" r="2" style="fill: rgb(0,0,0)" />
	<circle cx="408.365260564143" cy="-191.015599002709" r="2" style="fill: rgb(0,0,0)" />
	<circle cx="409.678278000495" cy="-191.923954342249" r="2" style="fill: rgb(0,0,0)" />
	<circle cx="442.856721713514" cy="-198.208480658566" r="2" style="fill: rgb(0,0,0)" />
	<circle cx="453.602010309419" cy="-230.221652498128" r="2" style="fill: rgb(0,0,0)" />
	<circle cx="183.771072567493" cy="-110.587098357407" r="2" style="fill: rgb(0,0,0)" />
	<circle cx="217.565986535192" cy="-97.1472163812446" r="2" style="fill: rgb(0,0,0)" />
	<circle cx="273.024672944445" cy="-148.402692469087" r="2" style="fill: rgb(0,0,0)" />
	<circle cx="259.827071331276" cy="-81.3018023772073" r="2" style="fill: rgb(0,0,0)" />
	<circle cx="285.686105066384" cy="-55.7276550423774" r="2" style="fill: rgb(0,0,0)" />
	<circle cx="334.770355098524" cy="-127.317134233404" r="2" style="fill: rgb(0,0,0)" />
	<circle cx="441.754308996165" cy="-415.257102030849" r="2" style="fill: rgb(0,0,0)" />
	<circle cx="467.644706747128" cy="-498.10638951334" r="2" style="fill: rgb(0,0,0)" />
	<circle cx="431.554850975929" cy="-502.606272626499" r="2" style="fill: rgb(0,0,0)" />
	<circle cx="487.27870225971" cy="-368.516759191156" r="2" style="fill: rgb(0,0,0)" />
	<circle cx="525.23520323719" cy="-433.801472262256" r="2" style="fill: rgb(0,0,0)" />
	<circle cx="504.762220530744" cy="-463.861139870515" r="2" style="fill: rgb(0,0,0)" />
	<circle cx="91.9744061070916" cy="-425.026566865979" r="2" style="fill: rgb(0,0,0)" />
	<circle cx="42.3016199063521" cy="-389.597634147904" r="2" style="fill: rgb(0,0,0)" />
	<circle cx="33.5" cy="-344.11916346306" r="2" style="fill: rgb(0,0,0)" />
	<circle cx="66.3678117996741" cy="-292.715837598" r="2" style="fill: rgb(0,0,0)" />
	<circle cx="305.12750049117" cy="-570.134672122682" r="2" style="fill: rgb(0,0,0)" />
	<circle cx="247.802908981776" cy="-591.026923575486" r="2" style="fill: rgb(0,0,0)" />
	<circle cx="437.646686002736" cy="-89.1211854952267" r="2" style="fill: rgb(0,0,0)" />
	<circle cx="464.279083585387" cy="-113.888947538194" r="2" style="fill: rgb(0,0,0)" />
	<circle cx="441.754308996109" cy="-185.968238995131" r="2" style="fill: rgb(0,0,0)" />
	<circle cx="162.238349478634" cy="-53.5" r="2" style="fill: rgb(0,0,0)" />
	<circle cx="222.769666312818" cy="-61.1521006793948" r="2" style="fill: rgb(0,0,0)" />
	<circle cx="561.5" cy="-436.556677040478" r="2" style="fill: rgb(0,0,0)" />
	<circle cx="555.79435121826" cy="-497.302380875935" r="2" style="fill: rgb(0,0,0)" />
	<!-- 
	Generated using the Perl SVG Module V2.64
	by Ronan Oger
	Info: http://www.roitsystems.com/
 -->
</svg>