<?xml version="1.0" encoding="UTF-8" standalone="yes"?>
<!DOCTYPE svg PUBLIC "-//W3C//DTD SVG 1.0//EN" "http://www.w3.org/TR/2001/REC-SVG-20010904/DTD/svg10.dtd">
<!-- generated using polymake; Michael Joswig, Georg Loho, Benjamin Lorenz, Rico Raber; license CC BY-NC-ND 3.0; see polymake.org and matchthenet.de -->
<svg height="841pt" id="document" viewBox="0 -573.020164473196 572 573.020164473196" width="595pt" xmlns="http://www.w3.org/2000/svg" xmlns:svg="http://www.w3.org/2000/svg" xmlns:xlink="http://www.w3.org/1999/xlink">
	<title id="document_title">planar_net_</title>
	<polygon points="279.346453360403,-293.014867125215 331.890572367156,-293.014867125215 348.127598094703,-342.987293899575 305.618512863785,-373.871952146448 263.109427632862,-342.987293899578 " style="fill: rgb(255,210,63); fill-opacity: 1; stroke: rgb(0,0,0); stroke-width: 3" />
	<polygon points="305.61851286378,-247.510325245895 331.890572367156,-293.014867125215 279.346453360403,-293.014867125215 " style="fill: rgb(14,173,105); fill-opacity: 1; stroke: rgb(0,0,0); stroke-width: 3" />
	<polygon points="279.346453360403,-293.014867125215 263.109427632862,-342.987293899578 227.950549421278,-303.939403750446 " style="fill: rgb(14,173,105); fill-opacity: 1; stroke: rgb(0,0,0); stroke-width: 3" />
	<polygon points="348.127598094703,-342.987293899575 331.890572367156,-293.014867125215 383.286476306286,-303.939403750434 " style="fill: rgb(14,173,105); fill-opacity: 1; stroke: rgb(0,0,0); stroke-width: 3" />
	<polygon points="227.950549421278,-303.939403750446 263.109427632862,-342.987293899578 211.713523693736,-353.911830524808 " style="fill: rgb(14,173,105); fill-opacity: 1; stroke: rgb(0,0,0); stroke-width: 3" />
	<polygon points="227.950549421278,-303.939403750446 211.713523693736,-353.911830524808 176.554645482154,-314.863940375666 " style="fill: rgb(14,173,105); fill-opacity: 1; stroke: rgb(0,0,0); stroke-width: 3" />
	<polygon points="263.109427632862,-342.987293899578 257.617071619334,-395.243570724635 215.10798638841,-364.358912477768 " style="fill: rgb(14,173,105); fill-opacity: 1; stroke: rgb(0,0,0); stroke-width: 3" />
	<polygon points="263.109427632862,-342.987293899578 305.618512863785,-373.871952146448 257.617071619334,-395.243570724635 " style="fill: rgb(14,173,105); fill-opacity: 1; stroke: rgb(0,0,0); stroke-width: 3" />
	<polygon points="159.169404686961,-253.966976976103 124.010526475387,-293.01486712525 76.0090852309295,-271.643248547079 81.5014412444445,-219.386971722025 132.897345183571,-208.462435096788 " style="fill: rgb(255,210,63); fill-opacity: 1; stroke: rgb(0,0,0); stroke-width: 3" />
	<polygon points="159.169404686961,-253.966976976103 175.406430414521,-303.939403750454 124.010526475387,-293.01486712525 " style="fill: rgb(14,173,105); fill-opacity: 1; stroke: rgb(0,0,0); stroke-width: 3" />
	<polygon points="348.127598094703,-342.987293899575 383.286476306286,-303.939403750434 431.287917550739,-325.311022328614 425.795561537213,-377.567299153668 374.399657598084,-388.491835778896 " style="fill: rgb(255,210,63); fill-opacity: 1; stroke: rgb(0,0,0); stroke-width: 3" />
	<polygon points="305.618512863785,-373.871952146448 348.127598094703,-342.987293899575 353.619954108236,-395.243570724626 " style="fill: rgb(14,173,105); fill-opacity: 1; stroke: rgb(0,0,0); stroke-width: 3" />
	<polygon points="298.268305844421,-112.985466443082 246.872401905295,-123.910003068304 263.109427632843,-73.937576293944 " style="fill: rgb(14,173,105); fill-opacity: 1; stroke: rgb(0,0,0); stroke-width: 3" />
	<polygon points="335.285035061825,-156.206158271703 329.792679048296,-103.949881446646 377.794120292744,-125.321500024825 " style="fill: rgb(14,173,105); fill-opacity: 1; stroke: rgb(0,0,0); stroke-width: 3" />
	<polygon points="383.286476306279,-177.577776849877 335.285035061825,-156.206158271703 377.794120292744,-125.321500024825 " style="fill: rgb(14,173,105); fill-opacity: 1; stroke: rgb(0,0,0); stroke-width: 3" />
	<polygon points="388.778832319813,-229.834053674927 405.015858047358,-179.861626900564 457.559977054111,-179.861626900558 473.797002781659,-229.834053674919 431.28791755074,-260.718711921796 " style="fill: rgb(255,210,63); fill-opacity: 1; stroke: rgb(0,0,0); stroke-width: 3" />
	<polygon points="257.617071619334,-395.243570724635 263.109427632872,-447.499847549686 215.107986388417,-426.128228971515 " style="fill: rgb(14,173,105); fill-opacity: 1; stroke: rgb(0,0,0); stroke-width: 3" />
	<polygon points="457.559977054111,-179.861626900558 405.015858047358,-179.861626900564 431.287917550737,-134.357085021242 " style="fill: rgb(14,173,105); fill-opacity: 1; stroke: rgb(0,0,0); stroke-width: 3" />
	<polygon points="425.795561537213,-377.567299153668 431.287917550739,-325.311022328614 473.797002781662,-356.195680575491 " style="fill: rgb(14,173,105); fill-opacity: 1; stroke: rgb(0,0,0); stroke-width: 3" />
	<polygon points="185.441464190355,-399.416372404131 150.282585978777,-438.464262553271 134.045560251228,-388.491835778912 " style="fill: rgb(14,173,105); fill-opacity: 1; stroke: rgb(0,0,0); stroke-width: 3" />
	<polygon points="215.107986388417,-426.128228971515 263.109427632872,-447.499847549686 220.600342401956,-478.384505796568 " style="fill: rgb(14,173,105); fill-opacity: 1; stroke: rgb(0,0,0); stroke-width: 3" />
	<polygon points="150.282585978777,-438.464262553271 107.77350074785,-469.348920800151 65.264415516924,-438.464262553292 81.5014412444737,-388.491835778925 134.045560251228,-388.491835778912 " style="fill: rgb(255,210,63); fill-opacity: 1; stroke: rgb(0,0,0); stroke-width: 3" />
	<polygon points="425.795561537213,-377.567299153668 473.797002781662,-356.195680575491 508.955880993244,-395.243570724631 482.683821489873,-440.748112603949 431.287917550746,-429.82357597872 " style="fill: rgb(255,210,63); fill-opacity: 1; stroke: rgb(0,0,0); stroke-width: 3" />
	<polygon points="473.797002781659,-229.834053674919 457.559977054111,-179.861626900558 508.955880993239,-190.78616352578 " style="fill: rgb(14,173,105); fill-opacity: 1; stroke: rgb(0,0,0); stroke-width: 3" />
	<polygon points="508.955880993239,-190.78616352578 457.559977054111,-179.861626900558 492.718855265693,-140.813736751419 " style="fill: rgb(14,173,105); fill-opacity: 1; stroke: rgb(0,0,0); stroke-width: 3" />
	<polygon points="227.950549421298,-486.547737698836 279.346453360425,-497.472274324052 244.187575148851,-536.520164473196 " style="fill: rgb(14,173,105); fill-opacity: 1; stroke: rgb(0,0,0); stroke-width: 3" />
	<polygon points="535.227940496627,-440.748112603951 508.955880993244,-395.243570724631 561.5,-395.243570724627 " style="fill: rgb(14,173,105); fill-opacity: 1; stroke: rgb(0,0,0); stroke-width: 3" />
	<polygon points="482.683821489873,-440.748112603949 508.955880993244,-395.243570724631 535.227940496627,-440.748112603951 " style="fill: rgb(14,173,105); fill-opacity: 1; stroke: rgb(0,0,0); stroke-width: 3" />
	<polygon points="107.77350074785,-469.348920800151 59.7720595034031,-490.720539378344 65.264415516924,-438.464262553292 " style="fill: rgb(14,173,105); fill-opacity: 1; stroke: rgb(0,0,0); stroke-width: 3" />
	<polygon points="263.109427632872,-447.499847549686 279.346453360425,-497.472274324052 227.950549421298,-486.547737698836 " style="fill: rgb(14,173,105); fill-opacity: 1; stroke: rgb(0,0,0); stroke-width: 3" />
	<polygon points="263.109427632872,-447.499847549686 314.505331572001,-458.424384174906 279.346453360425,-497.472274324052 " style="fill: rgb(14,173,105); fill-opacity: 1; stroke: rgb(0,0,0); stroke-width: 3" />
	<polygon points="457.559977054111,-179.861626900558 431.287917550737,-134.357085021242 483.832036557492,-134.357085021239 " style="fill: rgb(14,173,105); fill-opacity: 1; stroke: rgb(0,0,0); stroke-width: 3" />
	<polygon points="81.5014412444445,-219.386971722025 76.0090852309295,-271.643248547079 33.5,-240.758590300211 " style="fill: rgb(14,173,105); fill-opacity: 1; stroke: rgb(0,0,0); stroke-width: 3" />
	<polygon points="374.399657598084,-388.491835778896 425.795561537213,-377.567299153668 409.558535809661,-427.539725928031 " style="fill: rgb(14,173,105); fill-opacity: 1; stroke: rgb(0,0,0); stroke-width: 3" />
	<polygon points="415.050891823196,-84.3846582468743 457.559977054109,-53.5 500.069062285024,-84.3846582468769 483.832036557492,-134.357085021239 431.287917550737,-134.357085021242 " style="fill: rgb(255,210,63); fill-opacity: 1; stroke: rgb(0,0,0); stroke-width: 3" />
	<polygon points="128.553204237703,-336.235558953855 134.045560251228,-388.491835778912 86.0441190067735,-367.120217200729 " style="fill: rgb(14,173,105); fill-opacity: 1; stroke: rgb(0,0,0); stroke-width: 3" />
	<polygon points="305.618512863785,-373.871952146448 340.77739107537,-412.919842295582 314.505331572001,-458.424384174906 263.109427632872,-447.499847549686 257.617071619334,-395.243570724635 " style="fill: rgb(255,210,63); fill-opacity: 1; stroke: rgb(0,0,0); stroke-width: 3" />
	<polygon points="215.10798638841,-364.358912477768 257.617071619334,-395.243570724635 209.615630374883,-416.615189302821 " style="fill: rgb(14,173,105); fill-opacity: 1; stroke: rgb(0,0,0); stroke-width: 3" />
	<polygon points="383.286476306282,-282.09033049998 388.778832319813,-229.834053674927 431.28791755074,-260.718711921796 " style="fill: rgb(14,173,105); fill-opacity: 1; stroke: rgb(0,0,0); stroke-width: 3" />
	<polygon points="211.713523693736,-353.911830524808 185.441464190355,-399.416372404131 134.045560251228,-388.491835778912 128.553204237703,-336.235558953855 176.554645482154,-314.863940375666 " style="fill: rgb(255,210,63); fill-opacity: 1; stroke: rgb(0,0,0); stroke-width: 3" />
	<polygon points="388.778832319813,-229.834053674927 340.777391075362,-208.462435096755 383.286476306279,-177.577776849877 " style="fill: rgb(14,173,105); fill-opacity: 1; stroke: rgb(0,0,0); stroke-width: 3" />
	<polygon points="383.286476306279,-177.577776849877 340.777391075362,-208.462435096755 335.285035061825,-156.206158271703 " style="fill: rgb(14,173,105); fill-opacity: 1; stroke: rgb(0,0,0); stroke-width: 3" />
	<polygon points="340.777391075362,-208.462435096755 289.381487136233,-197.537898471534 324.540365347812,-158.490008322394 " style="fill: rgb(14,173,105); fill-opacity: 1; stroke: rgb(0,0,0); stroke-width: 3" />
	<polygon points="201.678489917882,-223.082318729227 159.169404686961,-253.966976976103 153.677048673427,-201.710700151052 " style="fill: rgb(14,173,105); fill-opacity: 1; stroke: rgb(0,0,0); stroke-width: 3" />
	<polygon points="324.540365347812,-158.490008322394 289.381487136233,-197.537898471534 241.380045891779,-176.166279893352 246.872401905295,-123.910003068304 298.268305844421,-112.985466443082 " style="fill: rgb(255,210,63); fill-opacity: 1; stroke: rgb(0,0,0); stroke-width: 3" />
	<polygon points="340.777391075362,-208.462435096755 305.61851286378,-247.510325245895 289.381487136233,-197.537898471534 " style="fill: rgb(14,173,105); fill-opacity: 1; stroke: rgb(0,0,0); stroke-width: 3" />
	<polygon points="383.286476306282,-282.09033049998 331.890572367156,-293.014867125215 305.61851286378,-247.510325245895 340.777391075362,-208.462435096755 388.778832319813,-229.834053674927 " style="fill: rgb(255,210,63); fill-opacity: 1; stroke: rgb(0,0,0); stroke-width: 3" />
	<polygon points="253.074393857027,-247.510325245894 226.802334353655,-202.005783366566 279.346453360404,-202.005783366573 " style="fill: rgb(14,173,105); fill-opacity: 1; stroke: rgb(0,0,0); stroke-width: 3" />
	<polygon points="279.346453360404,-202.005783366573 305.61851286378,-247.510325245895 253.074393857027,-247.510325245894 " style="fill: rgb(14,173,105); fill-opacity: 1; stroke: rgb(0,0,0); stroke-width: 3" />
	<polygon points="279.346453360403,-293.014867125215 227.950549421278,-303.939403750446 244.187575148816,-253.966976976084 " style="fill: rgb(14,173,105); fill-opacity: 1; stroke: rgb(0,0,0); stroke-width: 3" />
	<polygon points="279.346453360403,-293.014867125215 253.074393857027,-247.510325245894 305.61851286378,-247.510325245895 " style="fill: rgb(14,173,105); fill-opacity: 1; stroke: rgb(0,0,0); stroke-width: 3" />
	<polygon points="244.187575148816,-253.966976976084 227.950549421278,-303.939403750446 175.406430414521,-303.939403750454 159.169404686961,-253.966976976103 201.678489917882,-223.082318729227 " style="fill: rgb(255,210,63); fill-opacity: 1; stroke: rgb(0,0,0); stroke-width: 3" />
	<circle cx="279.346453360403" cy="-293.014867125215" r="2" style="fill: rgb(0,0,0)" />
	<circle cx="331.890572367156" cy="-293.014867125215" r="2" style="fill: rgb(0,0,0)" />
	<circle cx="348.127598094703" cy="-342.987293899575" r="2" style="fill: rgb(0,0,0)" />
	<circle cx="305.618512863785" cy="-373.871952146448" r="2" style="fill: rgb(0,0,0)" />
	<circle cx="263.109427632862" cy="-342.987293899578" r="2" style="fill: rgb(0,0,0)" />
	<circle cx="305.61851286378" cy="-247.510325245895" r="2" style="fill: rgb(0,0,0)" />
	<circle cx="227.950549421278" cy="-303.939403750446" r="2" style="fill: rgb(0,0,0)" />
	<circle cx="383.286476306286" cy="-303.939403750434" r="2" style="fill: rgb(0,0,0)" />
	<circle cx="257.617071619334" cy="-395.243570724635" r="2" style="fill: rgb(0,0,0)" />
	<circle cx="353.619954108236" cy="-395.243570724626" r="2" style="fill: rgb(0,0,0)" />
	<circle cx="340.777391075362" cy="-208.462435096755" r="2" style="fill: rgb(0,0,0)" />
	<circle cx="388.778832319813" cy="-229.834053674927" r="2" style="fill: rgb(0,0,0)" />
	<circle cx="383.286476306282" cy="-282.09033049998" r="2" style="fill: rgb(0,0,0)" />
	<circle cx="253.074393857027" cy="-247.510325245894" r="2" style="fill: rgb(0,0,0)" />
	<circle cx="211.713523693736" cy="-353.911830524808" r="2" style="fill: rgb(0,0,0)" />
	<circle cx="244.187575148816" cy="-253.966976976084" r="2" style="fill: rgb(0,0,0)" />
	<circle cx="431.287917550739" cy="-325.311022328614" r="2" style="fill: rgb(0,0,0)" />
	<circle cx="425.795561537213" cy="-377.567299153668" r="2" style="fill: rgb(0,0,0)" />
	<circle cx="374.399657598084" cy="-388.491835778896" r="2" style="fill: rgb(0,0,0)" />
	<circle cx="215.10798638841" cy="-364.358912477768" r="2" style="fill: rgb(0,0,0)" />
	<circle cx="340.77739107537" cy="-412.919842295582" r="2" style="fill: rgb(0,0,0)" />
	<circle cx="314.505331572001" cy="-458.424384174906" r="2" style="fill: rgb(0,0,0)" />
	<circle cx="263.109427632872" cy="-447.499847549686" r="2" style="fill: rgb(0,0,0)" />
	<circle cx="431.28791755074" cy="-260.718711921796" r="2" style="fill: rgb(0,0,0)" />
	<circle cx="383.286476306279" cy="-177.577776849877" r="2" style="fill: rgb(0,0,0)" />
	<circle cx="289.381487136233" cy="-197.537898471534" r="2" style="fill: rgb(0,0,0)" />
	<circle cx="279.346453360404" cy="-202.005783366573" r="2" style="fill: rgb(0,0,0)" />
	<circle cx="176.554645482154" cy="-314.863940375666" r="2" style="fill: rgb(0,0,0)" />
	<circle cx="175.406430414521" cy="-303.939403750454" r="2" style="fill: rgb(0,0,0)" />
	<circle cx="159.169404686961" cy="-253.966976976103" r="2" style="fill: rgb(0,0,0)" />
	<circle cx="201.678489917882" cy="-223.082318729227" r="2" style="fill: rgb(0,0,0)" />
	<circle cx="473.797002781662" cy="-356.195680575491" r="2" style="fill: rgb(0,0,0)" />
	<circle cx="409.558535809661" cy="-427.539725928031" r="2" style="fill: rgb(0,0,0)" />
	<circle cx="209.615630374883" cy="-416.615189302821" r="2" style="fill: rgb(0,0,0)" />
	<circle cx="215.107986388417" cy="-426.128228971515" r="2" style="fill: rgb(0,0,0)" />
	<circle cx="279.346453360425" cy="-497.472274324052" r="2" style="fill: rgb(0,0,0)" />
	<circle cx="405.015858047358" cy="-179.861626900564" r="2" style="fill: rgb(0,0,0)" />
	<circle cx="457.559977054111" cy="-179.861626900558" r="2" style="fill: rgb(0,0,0)" />
	<circle cx="473.797002781659" cy="-229.834053674919" r="2" style="fill: rgb(0,0,0)" />
	<circle cx="335.285035061825" cy="-156.206158271703" r="2" style="fill: rgb(0,0,0)" />
	<circle cx="324.540365347812" cy="-158.490008322394" r="2" style="fill: rgb(0,0,0)" />
	<circle cx="226.802334353655" cy="-202.005783366566" r="2" style="fill: rgb(0,0,0)" />
	<circle cx="185.441464190355" cy="-399.416372404131" r="2" style="fill: rgb(0,0,0)" />
	<circle cx="134.045560251228" cy="-388.491835778912" r="2" style="fill: rgb(0,0,0)" />
	<circle cx="128.553204237703" cy="-336.235558953855" r="2" style="fill: rgb(0,0,0)" />
	<circle cx="124.010526475387" cy="-293.01486712525" r="2" style="fill: rgb(0,0,0)" />
	<circle cx="153.677048673427" cy="-201.710700151052" r="2" style="fill: rgb(0,0,0)" />
	<circle cx="508.955880993244" cy="-395.243570724631" r="2" style="fill: rgb(0,0,0)" />
	<circle cx="482.683821489873" cy="-440.748112603949" r="2" style="fill: rgb(0,0,0)" />
	<circle cx="431.287917550746" cy="-429.82357597872" r="2" style="fill: rgb(0,0,0)" />
	<circle cx="220.600342401956" cy="-478.384505796568" r="2" style="fill: rgb(0,0,0)" />
	<circle cx="227.950549421298" cy="-486.547737698836" r="2" style="fill: rgb(0,0,0)" />
	<circle cx="431.287917550737" cy="-134.357085021242" r="2" style="fill: rgb(0,0,0)" />
	<circle cx="508.955880993239" cy="-190.78616352578" r="2" style="fill: rgb(0,0,0)" />
	<circle cx="377.794120292744" cy="-125.321500024825" r="2" style="fill: rgb(0,0,0)" />
	<circle cx="241.380045891779" cy="-176.166279893352" r="2" style="fill: rgb(0,0,0)" />
	<circle cx="246.872401905295" cy="-123.910003068304" r="2" style="fill: rgb(0,0,0)" />
	<circle cx="298.268305844421" cy="-112.985466443082" r="2" style="fill: rgb(0,0,0)" />
	<circle cx="150.282585978777" cy="-438.464262553271" r="2" style="fill: rgb(0,0,0)" />
	<circle cx="86.0441190067735" cy="-367.120217200729" r="2" style="fill: rgb(0,0,0)" />
	<circle cx="76.0090852309295" cy="-271.643248547079" r="2" style="fill: rgb(0,0,0)" />
	<circle cx="81.5014412444445" cy="-219.386971722025" r="2" style="fill: rgb(0,0,0)" />
	<circle cx="132.897345183571" cy="-208.462435096788" r="2" style="fill: rgb(0,0,0)" />
	<circle cx="535.227940496627" cy="-440.748112603951" r="2" style="fill: rgb(0,0,0)" />
	<circle cx="244.187575148851" cy="-536.520164473196" r="2" style="fill: rgb(0,0,0)" />
	<circle cx="483.832036557492" cy="-134.357085021239" r="2" style="fill: rgb(0,0,0)" />
	<circle cx="492.718855265693" cy="-140.813736751419" r="2" style="fill: rgb(0,0,0)" />
	<circle cx="329.792679048296" cy="-103.949881446646" r="2" style="fill: rgb(0,0,0)" />
	<circle cx="263.109427632843" cy="-73.937576293944" r="2" style="fill: rgb(0,0,0)" />
	<circle cx="107.77350074785" cy="-469.348920800151" r="2" style="fill: rgb(0,0,0)" />
	<circle cx="65.264415516924" cy="-438.464262553292" r="2" style="fill: rgb(0,0,0)" />
	<circle cx="81.5014412444737" cy="-388.491835778925" r="2" style="fill: rgb(0,0,0)" />
	<circle cx="33.5" cy="-240.758590300211" r="2" style="fill: rgb(0,0,0)" />
	<circle cx="561.5" cy="-395.243570724627" r="2" style="fill: rgb(0,0,0)" />
	<circle cx="415.050891823196" cy="-84.3846582468743" r="2" style="fill: rgb(0,0,0)" />
	<circle cx="457.559977054109" cy="-53.5" r="2" style="fill: rgb(0,0,0)" />
	<circle cx="500.069062285024" cy="-84.3846582468769" r="2" style="fill: rgb(0,0,0)" />
	<circle cx="59.7720595034031" cy="-490.720539378344" r="2" style="fill: rgb(0,0,0)" />
	<!--
	Generated using the Perl SVG Module V2.86
	by Ronan Oger
	Info: http://www.roitsystems.com/
	-->
</svg>