<?xml version="1.0" encoding="UTF-8" standalone="yes"?>
<!DOCTYPE svg PUBLIC "-//W3C//DTD SVG 1.0//EN" "http://www.w3.org/TR/2001/REC-SVG-20010904/DTD/svg10.dtd">
<!-- generated using polymake; Michael Joswig, Georg Loho, Benjamin Lorenz, Rico Raber; license CC BY-NC-ND 3.0; see polymake.org and matchthenet.de -->
<svg height="841pt" id="document" viewBox="0 -716.552959288036 572 716.552959288036" width="595pt" xmlns="http://www.w3.org/2000/svg" xmlns:svg="http://www.w3.org/2000/svg" xmlns:xlink="http://www.w3.org/1999/xlink">
	<title id="document_title">planar_net_</title>
	<polygon points="257.081575824285,-386.717215488303 337.918424175723,-386.717215488303 362.898384088029,-463.597626869702 297.50000000001,-511.112334172483 232.101615911985,-463.597626869704 " style="fill: rgb(14,173,105); fill-opacity: 1; stroke: rgb(0,0,0); stroke-width: 3" />
	<polygon points="376.358629866421,-282.306167086245 337.918424175723,-386.717215488303 257.081575824285,-386.717215488303 218.641370133586,-282.306167086243 " style="fill: rgb(14,173,105); fill-opacity: 1; stroke: rgb(0,0,0); stroke-width: 3" />
	<polygon points="362.898384088029,-463.597626869702 337.918424175723,-386.717215488303 425.340555306017,-317.893619021695 474.077868869709,-467.891646622825 " style="fill: rgb(14,173,105); fill-opacity: 1; stroke: rgb(0,0,0); stroke-width: 3" />
	<polygon points="257.081575824285,-386.717215488303 232.101615911985,-463.597626869704 120.922131130303,-467.891646622838 169.65944469399,-317.8936190217 " style="fill: rgb(14,173,105); fill-opacity: 1; stroke: rgb(0,0,0); stroke-width: 3" />
	<polygon points="297.50000000001,-511.112334172483 362.898384088029,-463.597626869702 455.368438186206,-525.473353427388 327.772494756098,-618.177232730331 " style="fill: rgb(14,173,105); fill-opacity: 1; stroke: rgb(0,0,0); stroke-width: 3" />
	<polygon points="232.101615911985,-463.597626869704 297.50000000001,-511.112334172483 267.227505243929,-618.17723273034 139.631561813815,-525.473353427391 " style="fill: rgb(14,173,105); fill-opacity: 1; stroke: rgb(0,0,0); stroke-width: 3" />
	<polygon points="376.358629866421,-282.306167086245 218.641370133586,-282.306167086243 257.081575824277,-177.895118684181 337.918424175709,-177.895118684182 " style="fill: rgb(14,173,105); fill-opacity: 1; stroke: rgb(0,0,0); stroke-width: 3" />
	<polygon points="474.077868869709,-467.891646622825 425.340555306017,-317.893619021695 536.5200400877,-322.18763877481 561.5,-399.068050156205 " style="fill: rgb(14,173,105); fill-opacity: 1; stroke: rgb(0,0,0); stroke-width: 3" />
	<polygon points="169.65944469399,-317.8936190217 120.922131130303,-467.891646622838 33.5,-399.068050156244 58.4799599123013,-322.187638774844 " style="fill: rgb(14,173,105); fill-opacity: 1; stroke: rgb(0,0,0); stroke-width: 3" />
	<polygon points="327.772494756098,-618.177232730331 455.368438186206,-525.473353427388 485.6409329423,-632.53825198524 420.242548854279,-680.052959288013 " style="fill: rgb(14,173,105); fill-opacity: 1; stroke: rgb(0,0,0); stroke-width: 3" />
	<polygon points="139.631561813815,-525.473353427391 267.227505243929,-618.17723273034 174.757451145763,-680.052959288036 109.359067057741,-632.538251985253 " style="fill: rgb(14,173,105); fill-opacity: 1; stroke: rgb(0,0,0); stroke-width: 3" />
	<polygon points="362.898384088005,-101.014707302785 337.918424175709,-177.895118684182 257.081575824277,-177.895118684181 232.101615911972,-101.014707302778 297.499999999986,-53.5 " style="fill: rgb(14,173,105); fill-opacity: 1; stroke: rgb(0,0,0); stroke-width: 3" />
	<circle cx="257.081575824285" cy="-386.717215488303" r="2" style="fill: rgb(0,0,0)" />
	<circle cx="337.918424175723" cy="-386.717215488303" r="2" style="fill: rgb(0,0,0)" />
	<circle cx="362.898384088029" cy="-463.597626869702" r="2" style="fill: rgb(0,0,0)" />
	<circle cx="297.50000000001" cy="-511.112334172483" r="2" style="fill: rgb(0,0,0)" />
	<circle cx="232.101615911985" cy="-463.597626869704" r="2" style="fill: rgb(0,0,0)" />
	<circle cx="218.641370133586" cy="-282.306167086243" r="2" style="fill: rgb(0,0,0)" />
	<circle cx="376.358629866421" cy="-282.306167086245" r="2" style="fill: rgb(0,0,0)" />
	<circle cx="425.340555306017" cy="-317.893619021695" r="2" style="fill: rgb(0,0,0)" />
	<circle cx="474.077868869709" cy="-467.891646622825" r="2" style="fill: rgb(0,0,0)" />
	<circle cx="120.922131130303" cy="-467.891646622838" r="2" style="fill: rgb(0,0,0)" />
	<circle cx="169.65944469399" cy="-317.8936190217" r="2" style="fill: rgb(0,0,0)" />
	<circle cx="455.368438186206" cy="-525.473353427388" r="2" style="fill: rgb(0,0,0)" />
	<circle cx="327.772494756098" cy="-618.177232730331" r="2" style="fill: rgb(0,0,0)" />
	<circle cx="267.227505243929" cy="-618.17723273034" r="2" style="fill: rgb(0,0,0)" />
	<circle cx="139.631561813815" cy="-525.473353427391" r="2" style="fill: rgb(0,0,0)" />
	<circle cx="257.081575824277" cy="-177.895118684181" r="2" style="fill: rgb(0,0,0)" />
	<circle cx="337.918424175709" cy="-177.895118684182" r="2" style="fill: rgb(0,0,0)" />
	<circle cx="536.5200400877" cy="-322.18763877481" r="2" style="fill: rgb(0,0,0)" />
	<circle cx="561.5" cy="-399.068050156205" r="2" style="fill: rgb(0,0,0)" />
	<circle cx="33.5" cy="-399.068050156244" r="2" style="fill: rgb(0,0,0)" />
	<circle cx="58.4799599123013" cy="-322.187638774844" r="2" style="fill: rgb(0,0,0)" />
	<circle cx="485.6409329423" cy="-632.53825198524" r="2" style="fill: rgb(0,0,0)" />
	<circle cx="420.242548854279" cy="-680.052959288013" r="2" style="fill: rgb(0,0,0)" />
	<circle cx="174.757451145763" cy="-680.052959288036" r="2" style="fill: rgb(0,0,0)" />
	<circle cx="109.359067057741" cy="-632.538251985253" r="2" style="fill: rgb(0,0,0)" />
	<circle cx="232.101615911972" cy="-101.014707302778" r="2" style="fill: rgb(0,0,0)" />
	<circle cx="297.499999999986" cy="-53.5" r="2" style="fill: rgb(0,0,0)" />
	<circle cx="362.898384088005" cy="-101.014707302785" r="2" style="fill: rgb(0,0,0)" />
	<!--
	Generated using the Perl SVG Module V2.87
	by Ronan Oger

	-->
</svg>