<?xml version="1.0" encoding="UTF-8" standalone="yes"?>
<!DOCTYPE svg PUBLIC "-//W3C//DTD SVG 1.0//EN" "http://www.w3.org/TR/2001/REC-SVG-20010904/DTD/svg10.dtd">
<!-- generated using polymake; Michael Joswig, Georg Loho, Benjamin Lorenz, Rico Raber; license CC BY-NC-ND 3.0; see polymake.org and matchthenet.de -->
<svg height="841pt" id="document" viewBox="0 -803.65748662126 572 803.65748662126" width="595pt" xmlns="http://www.w3.org/2000/svg" xmlns:svg="http://www.w3.org/2000/svg" xmlns:xlink="http://www.w3.org/1999/xlink">
	<title id="document_title">planar_net_</title>
	<polygon points="318.047257899653,-410.328743310655 401.469966529281,-410.328743310655 358.04535655995,-481.558312761239 284.367225464316,-476.086363729217 " style="fill: rgb(14,173,105); fill-opacity: 1; stroke: rgb(0,0,0); stroke-width: 3" />
	<polygon points="318.047257899653,-410.328743310655 284.367225464305,-344.571122892109 358.045356559944,-339.099173860075 401.469966529281,-410.328743310655 " style="fill: rgb(14,173,105); fill-opacity: 1; stroke: rgb(0,0,0); stroke-width: 3" />
	<polygon points="358.04535655995,-481.558312761239 401.469966529281,-410.328743310655 439.68443912907,-484.484002052191 396.660078752103,-544.544918146667 " style="fill: rgb(14,173,105); fill-opacity: 1; stroke: rgb(0,0,0); stroke-width: 3" />
	<polygon points="318.047257899653,-410.328743310655 284.367225464316,-476.086363729217 241.275982441728,-420.036902900549 269.058344714645,-355.025076046103 " style="fill: rgb(14,173,105); fill-opacity: 1; stroke: rgb(0,0,0); stroke-width: 3" />
	<polygon points="439.684439129056,-336.173484569113 401.469966529281,-410.328743310655 358.045356559944,-339.099173860075 396.660078752074,-276.11256847464 " style="fill: rgb(14,173,105); fill-opacity: 1; stroke: rgb(0,0,0); stroke-width: 3" />
	<polygon points="284.367225464316,-476.086363729217 358.04535655995,-481.558312761239 379.765245426898,-552.174569073532 309.793857807718,-542.05517190467 " style="fill: rgb(14,173,105); fill-opacity: 1; stroke: rgb(0,0,0); stroke-width: 3" />
	<polygon points="439.68443912907,-484.484002052191 401.469966529281,-410.328743310655 484.678673540988,-416.300291899105 513.565258084364,-484.30010411482 " style="fill: rgb(14,173,105); fill-opacity: 1; stroke: rgb(0,0,0); stroke-width: 3" />
	<polygon points="241.275982441728,-420.036902900549 284.367225464316,-476.086363729217 119.109308299974,-489.895802607704 129.121844261206,-444.752145702855 " style="fill: rgb(14,173,105); fill-opacity: 1; stroke: rgb(0,0,0); stroke-width: 3" />
	<polygon points="358.045356559944,-339.099173860075 284.367225464305,-344.571122892109 309.793857807688,-278.602314716647 379.765245426863,-268.482917547769 " style="fill: rgb(14,173,105); fill-opacity: 1; stroke: rgb(0,0,0); stroke-width: 3" />
	<polygon points="284.367225464316,-476.086363729217 309.793857807718,-542.05517190467 230.310634120442,-624.951559582736 186.553319431889,-610.001708534496 " style="fill: rgb(14,173,105); fill-opacity: 1; stroke: rgb(0,0,0); stroke-width: 3" />
	<polygon points="269.058344714645,-355.025076046103 241.275982441728,-420.036902900549 126.499927716264,-424.018259384308 105.564935785208,-382.788091449114 " style="fill: rgb(14,173,105); fill-opacity: 1; stroke: rgb(0,0,0); stroke-width: 3" />
	<polygon points="396.660078752103,-544.544918146667 439.68443912907,-484.484002052191 511.285365712262,-502.697089115742 466.222329740804,-557.173873835931 " style="fill: rgb(14,173,105); fill-opacity: 1; stroke: rgb(0,0,0); stroke-width: 3" />
	<polygon points="284.367225464305,-344.571122892109 186.553319431838,-210.655778086865 230.310634120387,-195.705927038611 309.793857807688,-278.602314716647 " style="fill: rgb(14,173,105); fill-opacity: 1; stroke: rgb(0,0,0); stroke-width: 3" />
	<polygon points="309.793857807718,-542.05517190467 379.765245426898,-552.174569073532 270.955722237968,-677.319954330173 246.649232022156,-637.983010263482 " style="fill: rgb(14,173,105); fill-opacity: 1; stroke: rgb(0,0,0); stroke-width: 3" />
	<polygon points="511.285365712242,-317.960397505529 439.684439129056,-336.173484569113 396.660078752074,-276.11256847464 466.222329740772,-263.483612785351 " style="fill: rgb(14,173,105); fill-opacity: 1; stroke: rgb(0,0,0); stroke-width: 3" />
	<polygon points="396.660078752103,-544.544918146667 466.222329740804,-557.173873835931 495.628543658928,-668.190397474517 460.08647332966,-697.770151899242 " style="fill: rgb(14,173,105); fill-opacity: 1; stroke: rgb(0,0,0); stroke-width: 3" />
	<polygon points="309.793857807688,-278.602314716647 246.649232022104,-182.674476357844 270.955722237906,-143.337532291149 379.765245426863,-268.482917547769 " style="fill: rgb(14,173,105); fill-opacity: 1; stroke: rgb(0,0,0); stroke-width: 3" />
	<polygon points="466.222329740772,-263.483612785351 396.660078752074,-276.11256847464 460.08647332957,-122.887334722047 495.628543658849,-152.467089146761 " style="fill: rgb(14,173,105); fill-opacity: 1; stroke: rgb(0,0,0); stroke-width: 3" />
	<polygon points="466.222329740804,-557.173873835931 511.285365712262,-502.697089115742 561.5,-660.745721792477 515.26015104181,-661.023216731514 " style="fill: rgb(14,173,105); fill-opacity: 1; stroke: rgb(0,0,0); stroke-width: 3" />
	<polygon points="511.285365712242,-317.960397505529 466.222329740772,-263.483612785351 515.260151041762,-159.634269889752 561.49999999995,-159.91176482878 " style="fill: rgb(14,173,105); fill-opacity: 1; stroke: rgb(0,0,0); stroke-width: 3" />
	<polygon points="129.121844261206,-444.752145702855 119.109308299974,-489.895802607704 33.5,-475.244259292475 94.8240216673159,-413.738277829984 " style="fill: rgb(14,173,105); fill-opacity: 1; stroke: rgb(0,0,0); stroke-width: 3" />
	<polygon points="186.553319431838,-210.655778086865 154.500563719833,-129.932533352869 238.93819966541,-150.27723843896 230.310634120387,-195.705927038611 " style="fill: rgb(14,173,105); fill-opacity: 1; stroke: rgb(0,0,0); stroke-width: 3" />
	<polygon points="495.628543658849,-152.467089146761 460.08647332957,-122.887334722047 512.326488349561,-53.5 538.908301146281,-136.186326666253 " style="fill: rgb(14,173,105); fill-opacity: 1; stroke: rgb(0,0,0); stroke-width: 3" />
	<polygon points="495.628543658928,-668.190397474517 538.908301146371,-684.471159955009 512.326488349714,-767.15748662126 460.08647332966,-697.770151899242 " style="fill: rgb(14,173,105); fill-opacity: 1; stroke: rgb(0,0,0); stroke-width: 3" />
	<polygon points="230.310634120442,-624.951559582736 238.938199665481,-670.380248182387 154.500563719936,-690.724953268529 186.553319431889,-610.001708534496 " style="fill: rgb(14,173,105); fill-opacity: 1; stroke: rgb(0,0,0); stroke-width: 3" />
	<circle cx="318.047257899653" cy="-410.328743310655" r="2" style="fill: rgb(0,0,0)" />
	<circle cx="401.469966529281" cy="-410.328743310655" r="2" style="fill: rgb(0,0,0)" />
	<circle cx="358.04535655995" cy="-481.558312761239" r="2" style="fill: rgb(0,0,0)" />
	<circle cx="284.367225464316" cy="-476.086363729217" r="2" style="fill: rgb(0,0,0)" />
	<circle cx="284.367225464305" cy="-344.571122892109" r="2" style="fill: rgb(0,0,0)" />
	<circle cx="358.045356559944" cy="-339.099173860075" r="2" style="fill: rgb(0,0,0)" />
	<circle cx="439.68443912907" cy="-484.484002052191" r="2" style="fill: rgb(0,0,0)" />
	<circle cx="396.660078752103" cy="-544.544918146667" r="2" style="fill: rgb(0,0,0)" />
	<circle cx="241.275982441728" cy="-420.036902900549" r="2" style="fill: rgb(0,0,0)" />
	<circle cx="269.058344714645" cy="-355.025076046103" r="2" style="fill: rgb(0,0,0)" />
	<circle cx="379.765245426898" cy="-552.174569073532" r="2" style="fill: rgb(0,0,0)" />
	<circle cx="309.793857807718" cy="-542.05517190467" r="2" style="fill: rgb(0,0,0)" />
	<circle cx="396.660078752074" cy="-276.11256847464" r="2" style="fill: rgb(0,0,0)" />
	<circle cx="439.684439129056" cy="-336.173484569113" r="2" style="fill: rgb(0,0,0)" />
	<circle cx="309.793857807688" cy="-278.602314716647" r="2" style="fill: rgb(0,0,0)" />
	<circle cx="379.765245426863" cy="-268.482917547769" r="2" style="fill: rgb(0,0,0)" />
	<circle cx="484.678673540988" cy="-416.300291899105" r="2" style="fill: rgb(0,0,0)" />
	<circle cx="513.565258084364" cy="-484.30010411482" r="2" style="fill: rgb(0,0,0)" />
	<circle cx="511.285365712262" cy="-502.697089115742" r="2" style="fill: rgb(0,0,0)" />
	<circle cx="466.222329740804" cy="-557.173873835931" r="2" style="fill: rgb(0,0,0)" />
	<circle cx="119.109308299974" cy="-489.895802607704" r="2" style="fill: rgb(0,0,0)" />
	<circle cx="129.121844261206" cy="-444.752145702855" r="2" style="fill: rgb(0,0,0)" />
	<circle cx="126.499927716264" cy="-424.018259384308" r="2" style="fill: rgb(0,0,0)" />
	<circle cx="105.564935785208" cy="-382.788091449114" r="2" style="fill: rgb(0,0,0)" />
	<circle cx="230.310634120442" cy="-624.951559582736" r="2" style="fill: rgb(0,0,0)" />
	<circle cx="186.553319431889" cy="-610.001708534496" r="2" style="fill: rgb(0,0,0)" />
	<circle cx="270.955722237968" cy="-677.319954330173" r="2" style="fill: rgb(0,0,0)" />
	<circle cx="246.649232022156" cy="-637.983010263482" r="2" style="fill: rgb(0,0,0)" />
	<circle cx="466.222329740772" cy="-263.483612785351" r="2" style="fill: rgb(0,0,0)" />
	<circle cx="511.285365712242" cy="-317.960397505529" r="2" style="fill: rgb(0,0,0)" />
	<circle cx="186.553319431838" cy="-210.655778086865" r="2" style="fill: rgb(0,0,0)" />
	<circle cx="230.310634120387" cy="-195.705927038611" r="2" style="fill: rgb(0,0,0)" />
	<circle cx="246.649232022104" cy="-182.674476357844" r="2" style="fill: rgb(0,0,0)" />
	<circle cx="270.955722237906" cy="-143.337532291149" r="2" style="fill: rgb(0,0,0)" />
	<circle cx="495.628543658928" cy="-668.190397474517" r="2" style="fill: rgb(0,0,0)" />
	<circle cx="460.08647332966" cy="-697.770151899242" r="2" style="fill: rgb(0,0,0)" />
	<circle cx="561.5" cy="-660.745721792477" r="2" style="fill: rgb(0,0,0)" />
	<circle cx="515.26015104181" cy="-661.023216731514" r="2" style="fill: rgb(0,0,0)" />
	<circle cx="33.5" cy="-475.244259292475" r="2" style="fill: rgb(0,0,0)" />
	<circle cx="94.8240216673159" cy="-413.738277829984" r="2" style="fill: rgb(0,0,0)" />
	<circle cx="238.938199665481" cy="-670.380248182387" r="2" style="fill: rgb(0,0,0)" />
	<circle cx="154.500563719936" cy="-690.724953268529" r="2" style="fill: rgb(0,0,0)" />
	<circle cx="460.08647332957" cy="-122.887334722047" r="2" style="fill: rgb(0,0,0)" />
	<circle cx="495.628543658849" cy="-152.467089146761" r="2" style="fill: rgb(0,0,0)" />
	<circle cx="515.260151041762" cy="-159.634269889752" r="2" style="fill: rgb(0,0,0)" />
	<circle cx="561.49999999995" cy="-159.91176482878" r="2" style="fill: rgb(0,0,0)" />
	<circle cx="154.500563719833" cy="-129.932533352869" r="2" style="fill: rgb(0,0,0)" />
	<circle cx="238.93819966541" cy="-150.27723843896" r="2" style="fill: rgb(0,0,0)" />
	<circle cx="538.908301146371" cy="-684.471159955009" r="2" style="fill: rgb(0,0,0)" />
	<circle cx="512.326488349714" cy="-767.15748662126" r="2" style="fill: rgb(0,0,0)" />
	<circle cx="512.326488349561" cy="-53.5" r="2" style="fill: rgb(0,0,0)" />
	<circle cx="538.908301146281" cy="-136.186326666253" r="2" style="fill: rgb(0,0,0)" />
	<!--
	Generated using the Perl SVG Module V2.87
	by Ronan Oger

	-->
</svg>