<?xml version="1.0" encoding="UTF-8" standalone="yes"?>
<!DOCTYPE svg PUBLIC "-//W3C//DTD SVG 1.0//EN" "http://www.w3.org/TR/2001/REC-SVG-20010904/DTD/svg10.dtd">
<!-- generated using polymake; Michael Joswig, Georg Loho, Benjamin Lorenz, Rico Raber; license CC BY-NC-ND 3.0; see polymake.org and matchthenet.de -->
<svg height="841pt" id="document" viewBox="0 -739.94196199634 572 739.94196199634" width="595pt" xmlns="http://www.w3.org/2000/svg" xmlns:svg="http://www.w3.org/2000/svg" xmlns:xlink="http://www.w3.org/1999/xlink">
	<title id="document_title">planar_net_</title>
	<polygon points="234.389325259129,-383.369333774491 295.865479307612,-383.369333774491 293.370386088392,-433.548190775764 254.165475379484,-429.934388667089 " style="fill: rgb(14,173,105); fill-opacity: 1; stroke: rgb(0,0,0); stroke-width: 3" />
	<polygon points="293.907060618915,-343.983546273091 295.865479307612,-383.369333774491 234.389325259129,-383.369333774491 258.420738926787,-326.784806969656 " style="fill: rgb(14,173,105); fill-opacity: 1; stroke: rgb(0,0,0); stroke-width: 3" />
	<polygon points="293.370386088392,-433.548190775764 295.865479307612,-383.369333774491 355.098362947588,-390.635766307266 332.304751387609,-433.086267945329 " style="fill: rgb(14,173,105); fill-opacity: 1; stroke: rgb(0,0,0); stroke-width: 3" />
	<polygon points="234.389325259129,-383.369333774491 254.165475379484,-429.934388667089 229.542696446884,-460.655771237067 191.701231453023,-427.607825654255 " style="fill: rgb(14,173,105); fill-opacity: 1; stroke: rgb(0,0,0); stroke-width: 3" />
	<polygon points="355.098362947585,-376.1029012417 295.865479307612,-383.369333774491 293.907060618915,-343.983546273091 327.285402228616,-324.304434313697 " style="fill: rgb(14,173,105); fill-opacity: 1; stroke: rgb(0,0,0); stroke-width: 3" />
	<polygon points="234.389325259129,-383.369333774491 191.701231453014,-339.130841894756 221.403300971084,-313.191244226161 258.420738926787,-326.784806969656 " style="fill: rgb(14,173,105); fill-opacity: 1; stroke: rgb(0,0,0); stroke-width: 3" />
	<polygon points="332.304751387609,-433.086267945329 355.098362947588,-390.635766307266 391.369517676619,-435.640947764001 353.769759041146,-464.153775747255 " style="fill: rgb(14,173,105); fill-opacity: 1; stroke: rgb(0,0,0); stroke-width: 3" />
	<polygon points="325.068118147231,-320.953790958684 293.907060618915,-343.983546273091 258.420738926787,-326.784806969656 288.263490222842,-275.105548643501 " style="fill: rgb(14,173,105); fill-opacity: 1; stroke: rgb(0,0,0); stroke-width: 3" />
	<polygon points="234.389325259129,-383.369333774491 191.701231453023,-427.607825654255 164.718953437458,-398.849655789745 176.983825108107,-361.371014088534 " style="fill: rgb(14,173,105); fill-opacity: 1; stroke: rgb(0,0,0); stroke-width: 3" />
	<polygon points="355.098362947585,-376.1029012417 327.285402228616,-324.304434313697 362.046805550197,-308.861581118009 391.3695176766,-331.097719784948 " style="fill: rgb(14,173,105); fill-opacity: 1; stroke: rgb(0,0,0); stroke-width: 3" />
	<polygon points="274.886998059633,-269.424560664134 258.420738926787,-326.784806969656 221.403300971084,-313.191244226161 216.337849037429,-274.776112665381 " style="fill: rgb(14,173,105); fill-opacity: 1; stroke: rgb(0,0,0); stroke-width: 3" />
	<polygon points="191.701231453023,-427.607825654255 229.542696446884,-460.655771237067 202.174871741561,-488.352347647383 155.79978461086,-475.277749722788 " style="fill: rgb(14,173,105); fill-opacity: 1; stroke: rgb(0,0,0); stroke-width: 3" />
	<polygon points="391.369517676619,-435.640947764001 355.098362947588,-390.635766307266 411.033598109888,-376.064819506558 418.673864413314,-411.619905608914 " style="fill: rgb(14,173,105); fill-opacity: 1; stroke: rgb(0,0,0); stroke-width: 3" />
	<polygon points="325.068118147231,-320.953790958684 288.263490222842,-275.105548643501 343.866253162372,-259.313279116253 352.870641417237,-294.995043386229 " style="fill: rgb(14,173,105); fill-opacity: 1; stroke: rgb(0,0,0); stroke-width: 3" />
	<polygon points="191.701231453023,-427.607825654255 145.341875472871,-465.186352224163 127.380378052069,-409.203974903724 164.718953437458,-398.849655789745 " style="fill: rgb(14,173,105); fill-opacity: 1; stroke: rgb(0,0,0); stroke-width: 3" />
	<polygon points="191.701231453014,-339.130841894756 155.799784610826,-291.460917826248 212.387064485713,-275.507181072563 221.403300971084,-313.191244226161 " style="fill: rgb(14,173,105); fill-opacity: 1; stroke: rgb(0,0,0); stroke-width: 3" />
	<polygon points="353.769759041146,-464.153775747255 391.369517676619,-435.640947764001 422.183257525584,-481.323353574691 378.523322218012,-491.724164041947 " style="fill: rgb(14,173,105); fill-opacity: 1; stroke: rgb(0,0,0); stroke-width: 3" />
	<polygon points="274.886998059633,-269.424560664134 216.337849037429,-274.776112665381 215.712226333786,-236.743949014835 247.641478249163,-218.446676502583 " style="fill: rgb(14,173,105); fill-opacity: 1; stroke: rgb(0,0,0); stroke-width: 3" />
	<polygon points="202.174871741561,-488.352347647383 209.626206953527,-525.371453500271 162.999566473341,-532.629525322708 155.79978461086,-475.277749722788 " style="fill: rgb(14,173,105); fill-opacity: 1; stroke: rgb(0,0,0); stroke-width: 3" />
	<polygon points="176.983825108107,-361.371014088534 164.718953437458,-398.849655789745 126.50888928019,-405.281773110015 119.072872940149,-346.960699551343 " style="fill: rgb(14,173,105); fill-opacity: 1; stroke: rgb(0,0,0); stroke-width: 3" />
	<polygon points="391.369517676619,-435.640947764001 418.673864413314,-411.619905608914 451.78128131961,-424.168247544799 430.993441485729,-473.933419949823 " style="fill: rgb(14,173,105); fill-opacity: 1; stroke: rgb(0,0,0); stroke-width: 3" />
	<polygon points="391.3695176766,-331.097719784948 362.046805550197,-308.861581118009 368.580014330755,-272.64577666342 422.183257525532,-285.415313974234 " style="fill: rgb(14,173,105); fill-opacity: 1; stroke: rgb(0,0,0); stroke-width: 3" />
	<polygon points="343.866253162372,-259.313279116253 288.263490222842,-275.105548643501 296.717380239394,-217.925178174966 332.429993636519,-224.791549944738 " style="fill: rgb(14,173,105); fill-opacity: 1; stroke: rgb(0,0,0); stroke-width: 3" />
	<polygon points="127.380378052069,-409.203974903724 145.341875472871,-465.186352224163 87.7698320565323,-460.036319195332 92.1298550637312,-423.495143671827 " style="fill: rgb(14,173,105); fill-opacity: 1; stroke: rgb(0,0,0); stroke-width: 3" />
	<polygon points="212.387064485713,-275.507181072563 155.799784610826,-291.460917826248 162.999566473263,-234.109142226323 199.362022133586,-239.769453844395 " style="fill: rgb(14,173,105); fill-opacity: 1; stroke: rgb(0,0,0); stroke-width: 3" />
	<polygon points="378.523322218012,-491.724164041947 422.183257525584,-481.323353574691 414.723576374762,-534.737395048709 369.830565915459,-526.931443777194 " style="fill: rgb(14,173,105); fill-opacity: 1; stroke: rgb(0,0,0); stroke-width: 3" />
	<polygon points="418.673864413314,-411.619905608914 411.033598109888,-376.064819506558 465.666896683612,-368.883492951794 452.746049641448,-421.245295643947 " style="fill: rgb(14,173,105); fill-opacity: 1; stroke: rgb(0,0,0); stroke-width: 3" />
	<polygon points="209.626206953527,-525.371453500271 212.277478398385,-562.328671474528 174.476226525305,-586.52437700804 162.999566473341,-532.629525322708 " style="fill: rgb(14,173,105); fill-opacity: 1; stroke: rgb(0,0,0); stroke-width: 3" />
	<polygon points="155.79978461086,-475.277749722788 162.999566473341,-532.629525322708 126.754208779472,-535.598003481151 106.473906563813,-505.411132842164 " style="fill: rgb(14,173,105); fill-opacity: 1; stroke: rgb(0,0,0); stroke-width: 3" />
	<polygon points="119.072872940149,-346.960699551343 126.50888928019,-405.281773110015 88.5232247370467,-407.263228364356 69.0989896510092,-376.006766623057 " style="fill: rgb(14,173,105); fill-opacity: 1; stroke: rgb(0,0,0); stroke-width: 3" />
	<polygon points="430.993441485729,-473.933419949823 451.78128131961,-424.168247544799 550.889280692568,-473.084509635629 " style="fill: rgb(14,173,105); fill-opacity: 1; stroke: rgb(0,0,0); stroke-width: 3" />
	<polygon points="422.183257525532,-285.415313974234 368.580014330755,-272.64577666342 379.841287037863,-238.066569703893 414.723576374667,-232.001272500214 " style="fill: rgb(14,173,105); fill-opacity: 1; stroke: rgb(0,0,0); stroke-width: 3" />
	<polygon points="264.008132840197,-556.170343960613 299.36058981962,-548.088243737995 306.388380954707,-593.109632156342 252.853230979224,-599.643726321669 " style="fill: rgb(14,173,105); fill-opacity: 1; stroke: rgb(0,0,0); stroke-width: 3" />
	<polygon points="247.641478249163,-218.446676502583 215.712226333786,-236.743949014835 184.931967802255,-216.573599637705 217.639282833787,-172.227232170246 " style="fill: rgb(14,173,105); fill-opacity: 1; stroke: rgb(0,0,0); stroke-width: 3" />
	<polygon points="155.799784610826,-291.460917826248 106.473906563754,-261.32753470692 126.754208779385,-231.140664067917 162.999566473263,-234.109142226323 " style="fill: rgb(14,173,105); fill-opacity: 1; stroke: rgb(0,0,0); stroke-width: 3" />
	<polygon points="414.723576374762,-534.737395048709 422.183257525584,-481.323353574691 524.927249353884,-543.124688924487 " style="fill: rgb(14,173,105); fill-opacity: 1; stroke: rgb(0,0,0); stroke-width: 3" />
	<polygon points="452.746049641448,-421.245295643947 465.666896683612,-368.883492951794 561.5,-440.937286860109 " style="fill: rgb(14,173,105); fill-opacity: 1; stroke: rgb(0,0,0); stroke-width: 3" />
	<polygon points="162.999566473341,-532.629525322708 174.476226525305,-586.52437700804 121.257044203297,-577.782220384134 128.159522718142,-543.055894205017 " style="fill: rgb(14,173,105); fill-opacity: 1; stroke: rgb(0,0,0); stroke-width: 3" />
	<polygon points="332.429993636519,-224.791549944738 296.717380239394,-217.925178174966 311.463966898126,-164.831798681395 354.608526749493,-197.193096935494 " style="fill: rgb(14,173,105); fill-opacity: 1; stroke: rgb(0,0,0); stroke-width: 3" />
	<polygon points="92.1298550637312,-423.495143671827 87.7698320565323,-460.036319195332 33.5,-450.48885394598 61.532254584694,-403.048771030481 " style="fill: rgb(14,173,105); fill-opacity: 1; stroke: rgb(0,0,0); stroke-width: 3" />
	<polygon points="422.183257525532,-285.415313974234 414.723576374667,-232.001272500214 524.927249353785,-223.613978624342 " style="fill: rgb(14,173,105); fill-opacity: 1; stroke: rgb(0,0,0); stroke-width: 3" />
	<polygon points="252.853230979224,-599.643726321669 306.388380954707,-593.109632156342 312.867055875303,-703.44196199634 " style="fill: rgb(14,173,105); fill-opacity: 1; stroke: rgb(0,0,0); stroke-width: 3" />
	<polygon points="184.931967802255,-216.573599637705 157.506313313317,-192.691152259199 165.559334199046,-158.21346680673 217.639282833787,-172.227232170246 " style="fill: rgb(14,173,105); fill-opacity: 1; stroke: rgb(0,0,0); stroke-width: 3" />
	<polygon points="106.473906563813,-505.411132842164 126.754208779472,-535.598003481151 110.021478565399,-566.800209799459 63.3696741676319,-539.73887546629 " style="fill: rgb(14,173,105); fill-opacity: 1; stroke: rgb(0,0,0); stroke-width: 3" />
	<polygon points="174.476226525305,-586.52437700804 110.221725397482,-687.752298021198 121.257044203297,-577.782220384134 " style="fill: rgb(14,173,105); fill-opacity: 1; stroke: rgb(0,0,0); stroke-width: 3" />
	<polygon points="354.608526749493,-197.193096935494 311.463966898126,-164.831798681395 415.246236306435,-104.790367450181 " style="fill: rgb(14,173,105); fill-opacity: 1; stroke: rgb(0,0,0); stroke-width: 3" />
	<polygon points="106.473906563754,-261.32753470692 63.3696741675409,-226.99979208284 110.021478565283,-199.938457749632 126.754208779385,-231.140664067917 " style="fill: rgb(14,173,105); fill-opacity: 1; stroke: rgb(0,0,0); stroke-width: 3" />
	<polygon points="217.639282833787,-172.227232170246 165.559334199046,-158.21346680673 200.918719176229,-53.5 " style="fill: rgb(14,173,105); fill-opacity: 1; stroke: rgb(0,0,0); stroke-width: 3" />
	<polygon points="63.3696741676319,-539.73887546629 110.021478565399,-566.800209799459 48.6748491357036,-658.733812438889 " style="fill: rgb(14,173,105); fill-opacity: 1; stroke: rgb(0,0,0); stroke-width: 3" />
	<polygon points="63.3696741675409,-226.99979208284 48.674849135518,-108.004855110254 110.021478565283,-199.938457749632 " style="fill: rgb(14,173,105); fill-opacity: 1; stroke: rgb(0,0,0); stroke-width: 3" />
	<polygon points="293.370386088392,-433.548190775764 332.304751387609,-433.086267945329 350.613134469405,-466.112616570607 298.861247756887,-492.703701565552 " style="fill: rgb(14,173,105); fill-opacity: 1; stroke: rgb(0,0,0); stroke-width: 3" />
	<polygon points="254.165475379484,-429.934388667089 293.370386088392,-433.548190775764 284.652310563708,-492.314840993459 232.929302273915,-463.087209681381 " style="fill: rgb(14,173,105); fill-opacity: 1; stroke: rgb(0,0,0); stroke-width: 3" />
	<polygon points="298.861247756887,-492.703701565552 350.613134469405,-466.112616570607 365.571896619593,-500.011003488056 343.724996050966,-528.956287975085 " style="fill: rgb(14,173,105); fill-opacity: 1; stroke: rgb(0,0,0); stroke-width: 3" />
	<polygon points="232.929302273915,-463.087209681381 284.652310563708,-492.314840993459 239.204754398015,-528.644762794627 216.568306218806,-498.420140242526 " style="fill: rgb(14,173,105); fill-opacity: 1; stroke: rgb(0,0,0); stroke-width: 3" />
	<polygon points="239.204754398015,-528.644762794627 284.652310563708,-492.314840993459 299.36058981962,-548.088243737995 264.008132840197,-556.170343960613 " style="fill: rgb(14,173,105); fill-opacity: 1; stroke: rgb(0,0,0); stroke-width: 3" />
	<circle cx="234.389325259129" cy="-383.369333774491" r="2" style="fill: rgb(0,0,0)" />
	<circle cx="295.865479307612" cy="-383.369333774491" r="2" style="fill: rgb(0,0,0)" />
	<circle cx="293.370386088392" cy="-433.548190775764" r="2" style="fill: rgb(0,0,0)" />
	<circle cx="254.165475379484" cy="-429.934388667089" r="2" style="fill: rgb(0,0,0)" />
	<circle cx="258.420738926787" cy="-326.784806969656" r="2" style="fill: rgb(0,0,0)" />
	<circle cx="293.907060618915" cy="-343.983546273091" r="2" style="fill: rgb(0,0,0)" />
	<circle cx="355.098362947588" cy="-390.635766307266" r="2" style="fill: rgb(0,0,0)" />
	<circle cx="332.304751387609" cy="-433.086267945329" r="2" style="fill: rgb(0,0,0)" />
	<circle cx="229.542696446884" cy="-460.655771237067" r="2" style="fill: rgb(0,0,0)" />
	<circle cx="191.701231453023" cy="-427.607825654255" r="2" style="fill: rgb(0,0,0)" />
	<circle cx="284.652310563708" cy="-492.314840993459" r="2" style="fill: rgb(0,0,0)" />
	<circle cx="232.929302273915" cy="-463.087209681381" r="2" style="fill: rgb(0,0,0)" />
	<circle cx="327.285402228616" cy="-324.304434313697" r="2" style="fill: rgb(0,0,0)" />
	<circle cx="355.098362947585" cy="-376.1029012417" r="2" style="fill: rgb(0,0,0)" />
	<circle cx="191.701231453014" cy="-339.130841894756" r="2" style="fill: rgb(0,0,0)" />
	<circle cx="221.403300971084" cy="-313.191244226161" r="2" style="fill: rgb(0,0,0)" />
	<circle cx="288.263490222842" cy="-275.105548643501" r="2" style="fill: rgb(0,0,0)" />
	<circle cx="325.068118147231" cy="-320.953790958684" r="2" style="fill: rgb(0,0,0)" />
	<circle cx="391.369517676619" cy="-435.640947764001" r="2" style="fill: rgb(0,0,0)" />
	<circle cx="353.769759041146" cy="-464.153775747255" r="2" style="fill: rgb(0,0,0)" />
	<circle cx="350.613134469405" cy="-466.112616570607" r="2" style="fill: rgb(0,0,0)" />
	<circle cx="298.861247756887" cy="-492.703701565552" r="2" style="fill: rgb(0,0,0)" />
	<circle cx="164.718953437458" cy="-398.849655789745" r="2" style="fill: rgb(0,0,0)" />
	<circle cx="176.983825108107" cy="-361.371014088534" r="2" style="fill: rgb(0,0,0)" />
	<circle cx="202.174871741561" cy="-488.352347647383" r="2" style="fill: rgb(0,0,0)" />
	<circle cx="155.79978461086" cy="-475.277749722788" r="2" style="fill: rgb(0,0,0)" />
	<circle cx="239.204754398015" cy="-528.644762794627" r="2" style="fill: rgb(0,0,0)" />
	<circle cx="216.568306218806" cy="-498.420140242526" r="2" style="fill: rgb(0,0,0)" />
	<circle cx="362.046805550197" cy="-308.861581118009" r="2" style="fill: rgb(0,0,0)" />
	<circle cx="391.3695176766" cy="-331.097719784948" r="2" style="fill: rgb(0,0,0)" />
	<circle cx="216.337849037429" cy="-274.776112665381" r="2" style="fill: rgb(0,0,0)" />
	<circle cx="274.886998059633" cy="-269.424560664134" r="2" style="fill: rgb(0,0,0)" />
	<circle cx="155.799784610826" cy="-291.460917826248" r="2" style="fill: rgb(0,0,0)" />
	<circle cx="212.387064485713" cy="-275.507181072563" r="2" style="fill: rgb(0,0,0)" />
	<circle cx="343.866253162372" cy="-259.313279116253" r="2" style="fill: rgb(0,0,0)" />
	<circle cx="352.870641417237" cy="-294.995043386229" r="2" style="fill: rgb(0,0,0)" />
	<circle cx="411.033598109888" cy="-376.064819506558" r="2" style="fill: rgb(0,0,0)" />
	<circle cx="418.673864413314" cy="-411.619905608914" r="2" style="fill: rgb(0,0,0)" />
	<circle cx="422.183257525584" cy="-481.323353574691" r="2" style="fill: rgb(0,0,0)" />
	<circle cx="378.523322218012" cy="-491.724164041947" r="2" style="fill: rgb(0,0,0)" />
	<circle cx="365.571896619593" cy="-500.011003488056" r="2" style="fill: rgb(0,0,0)" />
	<circle cx="343.724996050966" cy="-528.956287975085" r="2" style="fill: rgb(0,0,0)" />
	<circle cx="145.341875472871" cy="-465.186352224163" r="2" style="fill: rgb(0,0,0)" />
	<circle cx="127.380378052069" cy="-409.203974903724" r="2" style="fill: rgb(0,0,0)" />
	<circle cx="126.50888928019" cy="-405.281773110015" r="2" style="fill: rgb(0,0,0)" />
	<circle cx="119.072872940149" cy="-346.960699551343" r="2" style="fill: rgb(0,0,0)" />
	<circle cx="209.626206953527" cy="-525.371453500271" r="2" style="fill: rgb(0,0,0)" />
	<circle cx="162.999566473341" cy="-532.629525322708" r="2" style="fill: rgb(0,0,0)" />
	<circle cx="299.36058981962" cy="-548.088243737995" r="2" style="fill: rgb(0,0,0)" />
	<circle cx="264.008132840197" cy="-556.170343960613" r="2" style="fill: rgb(0,0,0)" />
	<circle cx="368.580014330755" cy="-272.64577666342" r="2" style="fill: rgb(0,0,0)" />
	<circle cx="422.183257525532" cy="-285.415313974234" r="2" style="fill: rgb(0,0,0)" />
	<circle cx="215.712226333786" cy="-236.743949014835" r="2" style="fill: rgb(0,0,0)" />
	<circle cx="247.641478249163" cy="-218.446676502583" r="2" style="fill: rgb(0,0,0)" />
	<circle cx="162.999566473263" cy="-234.109142226323" r="2" style="fill: rgb(0,0,0)" />
	<circle cx="199.362022133586" cy="-239.769453844395" r="2" style="fill: rgb(0,0,0)" />
	<circle cx="296.717380239394" cy="-217.925178174966" r="2" style="fill: rgb(0,0,0)" />
	<circle cx="332.429993636519" cy="-224.791549944738" r="2" style="fill: rgb(0,0,0)" />
	<circle cx="451.78128131961" cy="-424.168247544799" r="2" style="fill: rgb(0,0,0)" />
	<circle cx="430.993441485729" cy="-473.933419949823" r="2" style="fill: rgb(0,0,0)" />
	<circle cx="465.666896683612" cy="-368.883492951794" r="2" style="fill: rgb(0,0,0)" />
	<circle cx="452.746049641448" cy="-421.245295643947" r="2" style="fill: rgb(0,0,0)" />
	<circle cx="414.723576374762" cy="-534.737395048709" r="2" style="fill: rgb(0,0,0)" />
	<circle cx="369.830565915459" cy="-526.931443777194" r="2" style="fill: rgb(0,0,0)" />
	<circle cx="87.7698320565323" cy="-460.036319195332" r="2" style="fill: rgb(0,0,0)" />
	<circle cx="92.1298550637312" cy="-423.495143671827" r="2" style="fill: rgb(0,0,0)" />
	<circle cx="88.5232247370467" cy="-407.263228364356" r="2" style="fill: rgb(0,0,0)" />
	<circle cx="69.0989896510092" cy="-376.006766623057" r="2" style="fill: rgb(0,0,0)" />
	<circle cx="212.277478398385" cy="-562.328671474528" r="2" style="fill: rgb(0,0,0)" />
	<circle cx="174.476226525305" cy="-586.52437700804" r="2" style="fill: rgb(0,0,0)" />
	<circle cx="126.754208779472" cy="-535.598003481151" r="2" style="fill: rgb(0,0,0)" />
	<circle cx="106.473906563813" cy="-505.411132842164" r="2" style="fill: rgb(0,0,0)" />
	<circle cx="306.388380954707" cy="-593.109632156342" r="2" style="fill: rgb(0,0,0)" />
	<circle cx="252.853230979224" cy="-599.643726321669" r="2" style="fill: rgb(0,0,0)" />
	<circle cx="379.841287037863" cy="-238.066569703893" r="2" style="fill: rgb(0,0,0)" />
	<circle cx="414.723576374667" cy="-232.001272500214" r="2" style="fill: rgb(0,0,0)" />
	<circle cx="184.931967802255" cy="-216.573599637705" r="2" style="fill: rgb(0,0,0)" />
	<circle cx="217.639282833787" cy="-172.227232170246" r="2" style="fill: rgb(0,0,0)" />
	<circle cx="106.473906563754" cy="-261.32753470692" r="2" style="fill: rgb(0,0,0)" />
	<circle cx="126.754208779385" cy="-231.140664067917" r="2" style="fill: rgb(0,0,0)" />
	<circle cx="311.463966898126" cy="-164.831798681395" r="2" style="fill: rgb(0,0,0)" />
	<circle cx="354.608526749493" cy="-197.193096935494" r="2" style="fill: rgb(0,0,0)" />
	<circle cx="550.889280692568" cy="-473.084509635629" r="2" style="fill: rgb(0,0,0)" />
	<circle cx="561.5" cy="-440.937286860109" r="2" style="fill: rgb(0,0,0)" />
	<circle cx="524.927249353884" cy="-543.124688924487" r="2" style="fill: rgb(0,0,0)" />
	<circle cx="33.5" cy="-450.48885394598" r="2" style="fill: rgb(0,0,0)" />
	<circle cx="61.532254584694" cy="-403.048771030481" r="2" style="fill: rgb(0,0,0)" />
	<circle cx="121.257044203297" cy="-577.782220384134" r="2" style="fill: rgb(0,0,0)" />
	<circle cx="128.159522718142" cy="-543.055894205017" r="2" style="fill: rgb(0,0,0)" />
	<circle cx="110.021478565399" cy="-566.800209799459" r="2" style="fill: rgb(0,0,0)" />
	<circle cx="63.3696741676319" cy="-539.73887546629" r="2" style="fill: rgb(0,0,0)" />
	<circle cx="312.867055875303" cy="-703.44196199634" r="2" style="fill: rgb(0,0,0)" />
	<circle cx="524.927249353785" cy="-223.613978624342" r="2" style="fill: rgb(0,0,0)" />
	<circle cx="157.506313313317" cy="-192.691152259199" r="2" style="fill: rgb(0,0,0)" />
	<circle cx="165.559334199046" cy="-158.21346680673" r="2" style="fill: rgb(0,0,0)" />
	<circle cx="63.3696741675409" cy="-226.99979208284" r="2" style="fill: rgb(0,0,0)" />
	<circle cx="110.021478565283" cy="-199.938457749632" r="2" style="fill: rgb(0,0,0)" />
	<circle cx="415.246236306435" cy="-104.790367450181" r="2" style="fill: rgb(0,0,0)" />
	<circle cx="110.221725397482" cy="-687.752298021198" r="2" style="fill: rgb(0,0,0)" />
	<circle cx="48.6748491357036" cy="-658.733812438889" r="2" style="fill: rgb(0,0,0)" />
	<circle cx="200.918719176229" cy="-53.5" r="2" style="fill: rgb(0,0,0)" />
	<circle cx="48.674849135518" cy="-108.004855110254" r="2" style="fill: rgb(0,0,0)" />
	<!--
	Generated using the Perl SVG Module V2.84
	by Ronan Oger
	Info: http://www.roitsystems.com/
	-->
</svg>