<?xml version="1.0" encoding="UTF-8" standalone="yes"?>
<!DOCTYPE svg PUBLIC "-//W3C//DTD SVG 1.0//EN" "http://www.w3.org/TR/2001/REC-SVG-20010904/DTD/svg10.dtd">
<!-- generated using polymake; Michael Joswig, Georg Loho, Benjamin Lorenz, Rico Raber; license CC BY-NC-SA 3.0; see polymake.org and matchthenet.de -->
<svg height="841pt" id="document" viewBox="0 -661.033782843041 572 661.033782843041" width="595pt" xmlns="http://www.w3.org/2000/svg" xmlns:svg="http://www.w3.org/2000/svg" xmlns:xlink="http://www.w3.org/1999/xlink">
	<title id="document_title">planar_net_</title>
	<polygon points="228.912422536088,-330.281670064825 283.338603217246,-330.281670064825 302.686513435664,-363.372811415064 293.714691687603,-368.56673971855 " style="fill: rgb(14,173,105); fill-opacity: 1; stroke: rgb(0,0,0); stroke-width: 3" />
	<polygon points="302.919823345578,-296.84544737245 283.338603217246,-330.281670064825 228.912422536088,-330.281670064825 293.750204853178,-291.459671047627 " style="fill: rgb(14,173,105); fill-opacity: 1; stroke: rgb(0,0,0); stroke-width: 3" />
	<polygon points="228.912422536088,-330.281670064825 293.714691687603,-368.56673971855 291.420685954684,-442.105472641036 " style="fill: rgb(14,173,105); fill-opacity: 1; stroke: rgb(0,0,0); stroke-width: 3" />
	<polygon points="228.912422536088,-330.281670064825 291.420685954684,-442.105472641036 227.876690703342,-405.407621685572 " style="fill: rgb(14,173,105); fill-opacity: 1; stroke: rgb(0,0,0); stroke-width: 3" />
	<polygon points="293.750204853178,-291.459671047627 228.912422536088,-330.281670064825 291.261719004388,-212.914199762288 " style="fill: rgb(14,173,105); fill-opacity: 1; stroke: rgb(0,0,0); stroke-width: 3" />
	<polygon points="293.714691687603,-368.56673971855 302.686513435664,-363.372811415064 321.543926718022,-396.368672911378 295.021484662387,-442.129637936852 " style="fill: rgb(14,173,105); fill-opacity: 1; stroke: rgb(0,0,0); stroke-width: 3" />
	<polygon points="291.261719004388,-212.914199762288 228.912422536088,-330.281670064825 224.784246467519,-254.822782014205 " style="fill: rgb(14,173,105); fill-opacity: 1; stroke: rgb(0,0,0); stroke-width: 3" />
	<polygon points="295.021484662387,-442.129637936852 321.543926718022,-396.368672911378 359.548233655021,-396.329102412518 359.501329150116,-406.695793141397 " style="fill: rgb(14,173,105); fill-opacity: 1; stroke: rgb(0,0,0); stroke-width: 3" />
	<polygon points="228.912422536088,-330.281670064825 227.876690703342,-405.407621685572 163.345161265554,-440.339745950667 " style="fill: rgb(14,173,105); fill-opacity: 1; stroke: rgb(0,0,0); stroke-width: 3" />
	<polygon points="302.919823345578,-296.84544737245 293.750204853178,-291.459671047627 295.308744312951,-212.890245849215 322.8478385719,-262.982242625392 " style="fill: rgb(14,173,105); fill-opacity: 1; stroke: rgb(0,0,0); stroke-width: 3" />
	<polygon points="228.912422536088,-330.281670064825 163.345161265554,-440.339745950667 163.079341030471,-366.765721718266 " style="fill: rgb(14,173,105); fill-opacity: 1; stroke: rgb(0,0,0); stroke-width: 3" />
	<polygon points="362.352123223162,-264.281854377759 322.8478385719,-262.982242625392 295.308744312951,-212.890245849215 362.762278112221,-253.475647127498 " style="fill: rgb(14,173,105); fill-opacity: 1; stroke: rgb(0,0,0); stroke-width: 3" />
	<polygon points="224.784246467519,-254.822782014205 228.912422536088,-330.281670064825 198.444065961322,-285.183018298153 215.188231272056,-250.239662739556 " style="fill: rgb(14,173,105); fill-opacity: 1; stroke: rgb(0,0,0); stroke-width: 3" />
	<polygon points="359.501329150116,-406.695793141397 359.548233655021,-396.329102412518 397.87903809752,-396.667771088986 424.934016796464,-443.89315908254 " style="fill: rgb(14,173,105); fill-opacity: 1; stroke: rgb(0,0,0); stroke-width: 3" />
	<polygon points="227.876690703342,-405.407621685572 291.420685954684,-442.105472641036 165.076710348103,-443.364624526066 " style="fill: rgb(14,173,105); fill-opacity: 1; stroke: rgb(0,0,0); stroke-width: 3" />
	<polygon points="228.912422536088,-330.281670064825 160.9116254708,-298.017568588701 160.192899670172,-287.675716243775 198.444065961322,-285.183018298153 " style="fill: rgb(14,173,105); fill-opacity: 1; stroke: rgb(0,0,0); stroke-width: 3" />
	<polygon points="397.87903809752,-396.667771088986 417.157794811335,-363.056244655072 426.389183148482,-368.335445284538 424.934016796464,-443.89315908254 " style="fill: rgb(14,173,105); fill-opacity: 1; stroke: rgb(0,0,0); stroke-width: 3" />
	<polygon points="165.076710348103,-443.364624526066 291.420685954684,-442.105472641036 228.618741226219,-479.865369218461 " style="fill: rgb(14,173,105); fill-opacity: 1; stroke: rgb(0,0,0); stroke-width: 3" />
	<polygon points="362.352123223162,-264.281854377759 362.762278112221,-253.475647127498 433.098187361911,-218.120111649318 401.84126323094,-265.980476749255 " style="fill: rgb(14,173,105); fill-opacity: 1; stroke: rgb(0,0,0); stroke-width: 3" />
	<polygon points="295.021484662387,-442.129637936852 359.501329150116,-406.695793141397 423.03568436702,-447.050053793138 " style="fill: rgb(14,173,105); fill-opacity: 1; stroke: rgb(0,0,0); stroke-width: 3" />
	<polygon points="291.261719004388,-212.914199762288 224.784246467519,-254.822782014205 215.436907538773,-249.751712613341 234.14439790278,-215.199256392656 " style="fill: rgb(14,173,105); fill-opacity: 1; stroke: rgb(0,0,0); stroke-width: 3" />
	<polygon points="408.2355697505,-330.150031441202 404.848172245592,-291.004559611815 451.287474660527,-257.672877313398 418.831054010656,-329.242175059388 " style="fill: rgb(14,173,105); fill-opacity: 1; stroke: rgb(0,0,0); stroke-width: 3" />
	<polygon points="295.021484662387,-442.129637936852 423.03568436702,-447.050053793138 356.570348518952,-482.083473237366 " style="fill: rgb(14,173,105); fill-opacity: 1; stroke: rgb(0,0,0); stroke-width: 3" />
	<polygon points="291.261719004388,-212.914199762288 234.14439790278,-215.199256392656 212.631127004175,-182.041200482243 221.673130929422,-176.109547493028 " style="fill: rgb(14,173,105); fill-opacity: 1; stroke: rgb(0,0,0); stroke-width: 3" />
	<polygon points="228.618741226219,-479.865369218461 291.420685954684,-442.105472641036 231.058098127184,-553.104317798601 " style="fill: rgb(14,173,105); fill-opacity: 1; stroke: rgb(0,0,0); stroke-width: 3" />
	<polygon points="362.762278112221,-253.475647127498 295.308744312951,-212.890245849215 431.116994729307,-214.427129420348 " style="fill: rgb(14,173,105); fill-opacity: 1; stroke: rgb(0,0,0); stroke-width: 3" />
	<polygon points="163.079341030471,-366.765721718266 163.345161265554,-440.339745950667 135.850694888654,-395.156118702462 153.998555143826,-361.764741376212 " style="fill: rgb(14,173,105); fill-opacity: 1; stroke: rgb(0,0,0); stroke-width: 3" />
	<polygon points="295.021484662387,-442.129637936852 356.570348518952,-482.083473237366 351.265528447689,-555.271112093009 " style="fill: rgb(14,173,105); fill-opacity: 1; stroke: rgb(0,0,0); stroke-width: 3" />
	<polygon points="431.116994729307,-214.427129420348 295.308744312951,-212.890245849215 363.66586534831,-173.629259322264 " style="fill: rgb(14,173,105); fill-opacity: 1; stroke: rgb(0,0,0); stroke-width: 3" />
	<polygon points="135.850694888654,-395.156118702462 163.345161265554,-440.339745950667 98.1226928617367,-406.292171625014 97.8542240604368,-395.928851635577 " style="fill: rgb(14,173,105); fill-opacity: 1; stroke: rgb(0,0,0); stroke-width: 3" />
	<polygon points="291.261719004388,-212.914199762288 221.673130929422,-176.109547493028 219.813051089163,-97.4095213055088 " style="fill: rgb(14,173,105); fill-opacity: 1; stroke: rgb(0,0,0); stroke-width: 3" />
	<polygon points="165.076710348103,-443.364624526066 228.618741226219,-479.865369218461 227.639531659521,-553.138387443726 " style="fill: rgb(14,173,105); fill-opacity: 1; stroke: rgb(0,0,0); stroke-width: 3" />
	<polygon points="426.389183148482,-368.335445284538 495.779800695958,-331.450139028017 424.934016796464,-443.89315908254 " style="fill: rgb(14,173,105); fill-opacity: 1; stroke: rgb(0,0,0); stroke-width: 3" />
	<polygon points="363.66586534831,-173.629259322264 295.308744312951,-212.890245849215 362.414477386585,-94.8094960171049 " style="fill: rgb(14,173,105); fill-opacity: 1; stroke: rgb(0,0,0); stroke-width: 3" />
	<polygon points="165.076710348103,-443.364624526066 227.639531659521,-553.138387443726 163.926245317201,-516.735245536556 " style="fill: rgb(14,173,105); fill-opacity: 1; stroke: rgb(0,0,0); stroke-width: 3" />
	<polygon points="424.934016796464,-443.89315908254 495.779800695958,-331.450139028017 492.46149962466,-409.964930623335 " style="fill: rgb(14,173,105); fill-opacity: 1; stroke: rgb(0,0,0); stroke-width: 3" />
	<polygon points="98.1226928617367,-406.292171625014 163.345161265554,-440.339745950667 35.4653734304051,-447.995180716155 " style="fill: rgb(14,173,105); fill-opacity: 1; stroke: rgb(0,0,0); stroke-width: 3" />
	<polygon points="221.673130929422,-176.109547493028 212.631127004175,-182.041200482243 190.783987292877,-149.102166146825 215.627489268123,-97.6200307672837 " style="fill: rgb(14,173,105); fill-opacity: 1; stroke: rgb(0,0,0); stroke-width: 3" />
	<polygon points="356.570348518952,-482.083473237366 423.03568436702,-447.050053793138 354.746832297599,-555.440452358932 " style="fill: rgb(14,173,105); fill-opacity: 1; stroke: rgb(0,0,0); stroke-width: 3" />
	<polygon points="165.076710348103,-443.364624526066 163.926245317201,-516.735245536556 97.785101853478,-552.376941465112 " style="fill: rgb(14,173,105); fill-opacity: 1; stroke: rgb(0,0,0); stroke-width: 3" />
	<polygon points="190.783987292877,-149.102166146825 151.639525874237,-152.501219963171 150.710631422313,-141.907559358143 215.627489268123,-97.6200307672837 " style="fill: rgb(14,173,105); fill-opacity: 1; stroke: rgb(0,0,0); stroke-width: 3" />
	<polygon points="354.746832297599,-555.440452358932 423.03568436702,-447.050053793138 420.420398194576,-522.271333520432 " style="fill: rgb(14,173,105); fill-opacity: 1; stroke: rgb(0,0,0); stroke-width: 3" />
	<polygon points="97.8542240604368,-395.928851635577 98.1226928617367,-406.292171625014 33.5,-444.879581655671 59.5394147012544,-397.086715811964 " style="fill: rgb(14,173,105); fill-opacity: 1; stroke: rgb(0,0,0); stroke-width: 3" />
	<polygon points="424.934016796464,-443.89315908254 492.46149962466,-409.964930623335 501.208385162397,-416.013110788236 479.211609469989,-447.912123763359 " style="fill: rgb(14,173,105); fill-opacity: 1; stroke: rgb(0,0,0); stroke-width: 3" />
	<polygon points="431.116994729307,-214.427129420348 363.66586534831,-173.629259322264 366.70064313943,-94.8580007118362 " style="fill: rgb(14,173,105); fill-opacity: 1; stroke: rgb(0,0,0); stroke-width: 3" />
	<polygon points="96.7407782313432,-210.920656686207 44.5063842354481,-195.630881428871 117.63923790199,-176.586949637443 124.926579225003,-184.331828355612 " style="fill: rgb(14,173,105); fill-opacity: 1; stroke: rgb(0,0,0); stroke-width: 3" />
	<polygon points="420.420398194576,-522.271333520432 423.03568436702,-447.050053793138 449.075099068326,-494.842919636818 429.273742296686,-527.664734572669 " style="fill: rgb(14,173,105); fill-opacity: 1; stroke: rgb(0,0,0); stroke-width: 3" />
	<polygon points="431.116994729307,-214.427129420348 366.70064313943,-94.8580007118362 433.964709425339,-135.756648679869 " style="fill: rgb(14,173,105); fill-opacity: 1; stroke: rgb(0,0,0); stroke-width: 3" />
	<polygon points="492.46149962466,-409.964930623335 495.779800695958,-331.450139028017 522.189796800747,-382.14650930611 501.508161900869,-415.554777810627 " style="fill: rgb(14,173,105); fill-opacity: 1; stroke: rgb(0,0,0); stroke-width: 3" />
	<polygon points="163.926245317201,-516.735245536556 227.639531659521,-553.138387443726 99.5521607202839,-555.477452232371 " style="fill: rgb(14,173,105); fill-opacity: 1; stroke: rgb(0,0,0); stroke-width: 3" />
	<polygon points="431.116994729307,-214.427129420348 433.964709425339,-135.756648679869 443.61816662884,-130.882932829635 461.609832379606,-166.076362046286 " style="fill: rgb(14,173,105); fill-opacity: 1; stroke: rgb(0,0,0); stroke-width: 3" />
	<polygon points="99.5521607202839,-555.477452232371 227.639531659521,-553.138387443726 165.270433062779,-592.167905021799 " style="fill: rgb(14,173,105); fill-opacity: 1; stroke: rgb(0,0,0); stroke-width: 3" />
	<polygon points="354.746832297599,-555.440452358932 420.420398194576,-522.271333520432 428.999254500625,-528.091445304669 407.488211634196,-559.422004609987 " style="fill: rgb(14,173,105); fill-opacity: 1; stroke: rgb(0,0,0); stroke-width: 3" />
	<polygon points="215.627489268123,-97.6200307672837 150.710631422313,-141.907559358143 83.1383096391836,-108.068721429996 " style="fill: rgb(14,173,105); fill-opacity: 1; stroke: rgb(0,0,0); stroke-width: 3" />
	<polygon points="354.746832297599,-555.440452358932 407.488211634196,-559.422004609987 424.051852058126,-593.626897936726 414.696460022988,-598.093117430843 " style="fill: rgb(14,173,105); fill-opacity: 1; stroke: rgb(0,0,0); stroke-width: 3" />
	<polygon points="215.627489268123,-97.6200307672837 83.1383096391836,-108.068721429996 144.570906645319,-64.0559772691202 " style="fill: rgb(14,173,105); fill-opacity: 1; stroke: rgb(0,0,0); stroke-width: 3" />
	<polygon points="433.964709425339,-135.756648679869 366.70064313943,-94.8580007118362 423.852418135532,-95.9913446240947 443.345121612753,-130.376108803362 " style="fill: rgb(14,173,105); fill-opacity: 1; stroke: rgb(0,0,0); stroke-width: 3" />
	<polygon points="423.852418135532,-95.9913446240947 366.70064313943,-94.8580007118362 435.564415153675,-56.9981997981177 444.591904246288,-62.6189586970541 " style="fill: rgb(14,173,105); fill-opacity: 1; stroke: rgb(0,0,0); stroke-width: 3" />
	<polygon points="165.270433062779,-592.167905021799 165.303665603978,-602.534648594353 126.971388453485,-602.492291315929 99.5521607202839,-555.477452232371 " style="fill: rgb(14,173,105); fill-opacity: 1; stroke: rgb(0,0,0); stroke-width: 3" />
	<polygon points="143.282561268126,-53.5 144.570906645319,-64.0559772691202 83.1383096391836,-108.068721429996 104.81402013665,-58.1450525146549 " style="fill: rgb(14,173,105); fill-opacity: 1; stroke: rgb(0,0,0); stroke-width: 3" />
	<polygon points="302.686513435664,-363.372811415064 283.338603217246,-330.281670064825 304.491962747618,-297.81721950383 350.580736149694,-332.539153617592 " style="fill: rgb(14,173,105); fill-opacity: 1; stroke: rgb(0,0,0); stroke-width: 3" />
	<polygon points="302.686513435664,-363.372811415064 353.630494717659,-337.891802924591 359.504677104962,-394.54923848103 321.543926718022,-396.368672911378 " style="fill: rgb(14,173,105); fill-opacity: 1; stroke: rgb(0,0,0); stroke-width: 3" />
	<polygon points="359.504677104962,-394.54923848103 353.630494717659,-337.891802924591 409.543250235378,-352.158950948128 397.42791851363,-388.964166705132 " style="fill: rgb(14,173,105); fill-opacity: 1; stroke: rgb(0,0,0); stroke-width: 3" />
	<polygon points="350.580736149694,-332.539153617592 367.905704962148,-276.949965788922 404.848172245592,-291.004559611815 408.2355697505,-330.150031441202 " style="fill: rgb(14,173,105); fill-opacity: 1; stroke: rgb(0,0,0); stroke-width: 3" />
	<polygon points="350.580736149694,-332.539153617592 304.491962747618,-297.81721950383 329.519558264565,-267.527586141209 367.905704962148,-276.949965788922 " style="fill: rgb(14,173,105); fill-opacity: 1; stroke: rgb(0,0,0); stroke-width: 3" />
	<polygon points="407.488211634196,-559.422004609987 428.999254500625,-528.091445304669 474.099832613352,-562.883813382307 425.635640520238,-592.813616377194 " style="fill: rgb(14,173,105); fill-opacity: 1; stroke: rgb(0,0,0); stroke-width: 3" />
	<polygon points="425.635640520238,-592.813616377194 474.099832613352,-562.883813382307 485.56891872217,-619.436866404564 447.157636363119,-624.533782843041 " style="fill: rgb(14,173,105); fill-opacity: 1; stroke: rgb(0,0,0); stroke-width: 3" />
	<polygon points="443.345121612753,-130.376108803362 423.852418135532,-95.9913446240947 446.207074121419,-63.6786260390757 492.140342477427,-98.6060164432137 " style="fill: rgb(14,173,105); fill-opacity: 1; stroke: rgb(0,0,0); stroke-width: 3" />
	<polygon points="501.508161900869,-415.554777810627 522.189796800747,-382.14650930611 561.5,-386.267846582826 551.885876733025,-443.69502639874 " style="fill: rgb(14,173,105); fill-opacity: 1; stroke: rgb(0,0,0); stroke-width: 3" />
	<polygon points="479.211609469989,-447.912123763359 501.208385162397,-416.013110788236 546.371499787488,-451.930805865603 497.685775225554,-481.49888403163 " style="fill: rgb(14,173,105); fill-opacity: 1; stroke: rgb(0,0,0); stroke-width: 3" />
	<polygon points="215.188231272056,-250.239662739556 198.444065961322,-285.183018298153 160.117548832895,-285.848863990563 161.572229680538,-228.906305862383 " style="fill: rgb(14,173,105); fill-opacity: 1; stroke: rgb(0,0,0); stroke-width: 3" />
	<polygon points="234.14439790278,-215.199256392656 215.436907538773,-249.751712613341 165.977215056176,-220.027537909295 211.027426503988,-183.138639900412 " style="fill: rgb(14,173,105); fill-opacity: 1; stroke: rgb(0,0,0); stroke-width: 3" />
	<polygon points="211.027426503988,-183.138639900412 165.977215056176,-220.027537909295 146.592812359708,-165.676524354709 184.156447604556,-154.151953482306 " style="fill: rgb(14,173,105); fill-opacity: 1; stroke: rgb(0,0,0); stroke-width: 3" />
	<polygon points="161.572229680538,-228.906305862383 107.776393696524,-247.630062251896 96.7407782313432,-210.920656686207 124.926579225003,-184.331828355612 " style="fill: rgb(14,173,105); fill-opacity: 1; stroke: rgb(0,0,0); stroke-width: 3" />
	<polygon points="160.117548832895,-285.848863990563 122.237697270575,-282.775468929346 107.776393696524,-247.630062251896 161.572229680538,-228.906305862383 " style="fill: rgb(14,173,105); fill-opacity: 1; stroke: rgb(0,0,0); stroke-width: 3" />
	<circle cx="228.912422536088" cy="-330.281670064825" r="2" style="fill: rgb(0,0,0)" />
	<circle cx="283.338603217246" cy="-330.281670064825" r="2" style="fill: rgb(0,0,0)" />
	<circle cx="302.686513435664" cy="-363.372811415064" r="2" style="fill: rgb(0,0,0)" />
	<circle cx="293.714691687603" cy="-368.56673971855" r="2" style="fill: rgb(0,0,0)" />
	<circle cx="293.750204853178" cy="-291.459671047627" r="2" style="fill: rgb(0,0,0)" />
	<circle cx="302.919823345578" cy="-296.84544737245" r="2" style="fill: rgb(0,0,0)" />
	<circle cx="291.420685954684" cy="-442.105472641036" r="2" style="fill: rgb(0,0,0)" />
	<circle cx="321.543926718022" cy="-396.368672911378" r="2" style="fill: rgb(0,0,0)" />
	<circle cx="295.021484662387" cy="-442.129637936852" r="2" style="fill: rgb(0,0,0)" />
	<circle cx="304.491962747618" cy="-297.81721950383" r="2" style="fill: rgb(0,0,0)" />
	<circle cx="350.580736149694" cy="-332.539153617592" r="2" style="fill: rgb(0,0,0)" />
	<circle cx="291.261719004388" cy="-212.914199762288" r="2" style="fill: rgb(0,0,0)" />
	<circle cx="295.308744312951" cy="-212.890245849215" r="2" style="fill: rgb(0,0,0)" />
	<circle cx="322.8478385719" cy="-262.982242625392" r="2" style="fill: rgb(0,0,0)" />
	<circle cx="227.876690703342" cy="-405.407621685572" r="2" style="fill: rgb(0,0,0)" />
	<circle cx="359.548233655021" cy="-396.329102412518" r="2" style="fill: rgb(0,0,0)" />
	<circle cx="359.501329150116" cy="-406.695793141397" r="2" style="fill: rgb(0,0,0)" />
	<circle cx="353.630494717659" cy="-337.891802924591" r="2" style="fill: rgb(0,0,0)" />
	<circle cx="359.504677104962" cy="-394.54923848103" r="2" style="fill: rgb(0,0,0)" />
	<circle cx="329.519558264565" cy="-267.527586141209" r="2" style="fill: rgb(0,0,0)" />
	<circle cx="367.905704962148" cy="-276.949965788922" r="2" style="fill: rgb(0,0,0)" />
	<circle cx="224.784246467519" cy="-254.822782014205" r="2" style="fill: rgb(0,0,0)" />
	<circle cx="362.762278112221" cy="-253.475647127498" r="2" style="fill: rgb(0,0,0)" />
	<circle cx="362.352123223162" cy="-264.281854377759" r="2" style="fill: rgb(0,0,0)" />
	<circle cx="163.345161265554" cy="-440.339745950667" r="2" style="fill: rgb(0,0,0)" />
	<circle cx="165.076710348103" cy="-443.364624526066" r="2" style="fill: rgb(0,0,0)" />
	<circle cx="397.87903809752" cy="-396.667771088986" r="2" style="fill: rgb(0,0,0)" />
	<circle cx="424.934016796464" cy="-443.89315908254" r="2" style="fill: rgb(0,0,0)" />
	<circle cx="423.03568436702" cy="-447.050053793138" r="2" style="fill: rgb(0,0,0)" />
	<circle cx="409.543250235378" cy="-352.158950948128" r="2" style="fill: rgb(0,0,0)" />
	<circle cx="397.42791851363" cy="-388.964166705132" r="2" style="fill: rgb(0,0,0)" />
	<circle cx="404.848172245592" cy="-291.004559611815" r="2" style="fill: rgb(0,0,0)" />
	<circle cx="408.2355697505" cy="-330.150031441202" r="2" style="fill: rgb(0,0,0)" />
	<circle cx="198.444065961322" cy="-285.183018298153" r="2" style="fill: rgb(0,0,0)" />
	<circle cx="215.188231272056" cy="-250.239662739556" r="2" style="fill: rgb(0,0,0)" />
	<circle cx="215.436907538773" cy="-249.751712613341" r="2" style="fill: rgb(0,0,0)" />
	<circle cx="234.14439790278" cy="-215.199256392656" r="2" style="fill: rgb(0,0,0)" />
	<circle cx="433.098187361911" cy="-218.120111649318" r="2" style="fill: rgb(0,0,0)" />
	<circle cx="401.84126323094" cy="-265.980476749255" r="2" style="fill: rgb(0,0,0)" />
	<circle cx="431.116994729307" cy="-214.427129420348" r="2" style="fill: rgb(0,0,0)" />
	<circle cx="163.079341030471" cy="-366.765721718266" r="2" style="fill: rgb(0,0,0)" />
	<circle cx="228.618741226219" cy="-479.865369218461" r="2" style="fill: rgb(0,0,0)" />
	<circle cx="417.157794811335" cy="-363.056244655072" r="2" style="fill: rgb(0,0,0)" />
	<circle cx="426.389183148482" cy="-368.335445284538" r="2" style="fill: rgb(0,0,0)" />
	<circle cx="356.570348518952" cy="-482.083473237366" r="2" style="fill: rgb(0,0,0)" />
	<circle cx="451.287474660527" cy="-257.672877313398" r="2" style="fill: rgb(0,0,0)" />
	<circle cx="418.831054010656" cy="-329.242175059388" r="2" style="fill: rgb(0,0,0)" />
	<circle cx="160.9116254708" cy="-298.017568588701" r="2" style="fill: rgb(0,0,0)" />
	<circle cx="160.192899670172" cy="-287.675716243775" r="2" style="fill: rgb(0,0,0)" />
	<circle cx="160.117548832895" cy="-285.848863990563" r="2" style="fill: rgb(0,0,0)" />
	<circle cx="161.572229680538" cy="-228.906305862383" r="2" style="fill: rgb(0,0,0)" />
	<circle cx="212.631127004175" cy="-182.041200482243" r="2" style="fill: rgb(0,0,0)" />
	<circle cx="221.673130929422" cy="-176.109547493028" r="2" style="fill: rgb(0,0,0)" />
	<circle cx="165.977215056176" cy="-220.027537909295" r="2" style="fill: rgb(0,0,0)" />
	<circle cx="211.027426503988" cy="-183.138639900412" r="2" style="fill: rgb(0,0,0)" />
	<circle cx="363.66586534831" cy="-173.629259322264" r="2" style="fill: rgb(0,0,0)" />
	<circle cx="135.850694888654" cy="-395.156118702462" r="2" style="fill: rgb(0,0,0)" />
	<circle cx="153.998555143826" cy="-361.764741376212" r="2" style="fill: rgb(0,0,0)" />
	<circle cx="231.058098127184" cy="-553.104317798601" r="2" style="fill: rgb(0,0,0)" />
	<circle cx="227.639531659521" cy="-553.138387443726" r="2" style="fill: rgb(0,0,0)" />
	<circle cx="495.779800695958" cy="-331.450139028017" r="2" style="fill: rgb(0,0,0)" />
	<circle cx="351.265528447689" cy="-555.271112093009" r="2" style="fill: rgb(0,0,0)" />
	<circle cx="354.746832297599" cy="-555.440452358932" r="2" style="fill: rgb(0,0,0)" />
	<circle cx="122.237697270575" cy="-282.775468929346" r="2" style="fill: rgb(0,0,0)" />
	<circle cx="107.776393696524" cy="-247.630062251896" r="2" style="fill: rgb(0,0,0)" />
	<circle cx="219.813051089163" cy="-97.4095213055088" r="2" style="fill: rgb(0,0,0)" />
	<circle cx="190.783987292877" cy="-149.102166146825" r="2" style="fill: rgb(0,0,0)" />
	<circle cx="215.627489268123" cy="-97.6200307672837" r="2" style="fill: rgb(0,0,0)" />
	<circle cx="146.592812359708" cy="-165.676524354709" r="2" style="fill: rgb(0,0,0)" />
	<circle cx="184.156447604556" cy="-154.151953482306" r="2" style="fill: rgb(0,0,0)" />
	<circle cx="362.414477386585" cy="-94.8094960171049" r="2" style="fill: rgb(0,0,0)" />
	<circle cx="366.70064313943" cy="-94.8580007118362" r="2" style="fill: rgb(0,0,0)" />
	<circle cx="98.1226928617367" cy="-406.292171625014" r="2" style="fill: rgb(0,0,0)" />
	<circle cx="97.8542240604368" cy="-395.928851635577" r="2" style="fill: rgb(0,0,0)" />
	<circle cx="163.926245317201" cy="-516.735245536556" r="2" style="fill: rgb(0,0,0)" />
	<circle cx="492.46149962466" cy="-409.964930623335" r="2" style="fill: rgb(0,0,0)" />
	<circle cx="420.420398194576" cy="-522.271333520432" r="2" style="fill: rgb(0,0,0)" />
	<circle cx="96.7407782313432" cy="-210.920656686207" r="2" style="fill: rgb(0,0,0)" />
	<circle cx="124.926579225003" cy="-184.331828355612" r="2" style="fill: rgb(0,0,0)" />
	<circle cx="151.639525874237" cy="-152.501219963171" r="2" style="fill: rgb(0,0,0)" />
	<circle cx="150.710631422313" cy="-141.907559358143" r="2" style="fill: rgb(0,0,0)" />
	<circle cx="433.964709425339" cy="-135.756648679869" r="2" style="fill: rgb(0,0,0)" />
	<circle cx="35.4653734304051" cy="-447.995180716155" r="2" style="fill: rgb(0,0,0)" />
	<circle cx="33.5" cy="-444.879581655671" r="2" style="fill: rgb(0,0,0)" />
	<circle cx="59.5394147012544" cy="-397.086715811964" r="2" style="fill: rgb(0,0,0)" />
	<circle cx="97.785101853478" cy="-552.376941465112" r="2" style="fill: rgb(0,0,0)" />
	<circle cx="99.5521607202839" cy="-555.477452232371" r="2" style="fill: rgb(0,0,0)" />
	<circle cx="501.208385162397" cy="-416.013110788236" r="2" style="fill: rgb(0,0,0)" />
	<circle cx="479.211609469989" cy="-447.912123763359" r="2" style="fill: rgb(0,0,0)" />
	<circle cx="522.189796800747" cy="-382.14650930611" r="2" style="fill: rgb(0,0,0)" />
	<circle cx="501.508161900869" cy="-415.554777810627" r="2" style="fill: rgb(0,0,0)" />
	<circle cx="449.075099068326" cy="-494.842919636818" r="2" style="fill: rgb(0,0,0)" />
	<circle cx="429.273742296686" cy="-527.664734572669" r="2" style="fill: rgb(0,0,0)" />
	<circle cx="428.999254500625" cy="-528.091445304669" r="2" style="fill: rgb(0,0,0)" />
	<circle cx="407.488211634196" cy="-559.422004609987" r="2" style="fill: rgb(0,0,0)" />
	<circle cx="44.5063842354481" cy="-195.630881428871" r="2" style="fill: rgb(0,0,0)" />
	<circle cx="117.63923790199" cy="-176.586949637443" r="2" style="fill: rgb(0,0,0)" />
	<circle cx="83.1383096391836" cy="-108.068721429996" r="2" style="fill: rgb(0,0,0)" />
	<circle cx="443.61816662884" cy="-130.882932829635" r="2" style="fill: rgb(0,0,0)" />
	<circle cx="461.609832379606" cy="-166.076362046286" r="2" style="fill: rgb(0,0,0)" />
	<circle cx="423.852418135532" cy="-95.9913446240947" r="2" style="fill: rgb(0,0,0)" />
	<circle cx="443.345121612753" cy="-130.376108803362" r="2" style="fill: rgb(0,0,0)" />
	<circle cx="165.270433062779" cy="-592.167905021799" r="2" style="fill: rgb(0,0,0)" />
	<circle cx="546.371499787488" cy="-451.930805865603" r="2" style="fill: rgb(0,0,0)" />
	<circle cx="497.685775225554" cy="-481.49888403163" r="2" style="fill: rgb(0,0,0)" />
	<circle cx="561.5" cy="-386.267846582826" r="2" style="fill: rgb(0,0,0)" />
	<circle cx="551.885876733025" cy="-443.69502639874" r="2" style="fill: rgb(0,0,0)" />
	<circle cx="424.051852058126" cy="-593.626897936726" r="2" style="fill: rgb(0,0,0)" />
	<circle cx="414.696460022988" cy="-598.093117430843" r="2" style="fill: rgb(0,0,0)" />
	<circle cx="474.099832613352" cy="-562.883813382307" r="2" style="fill: rgb(0,0,0)" />
	<circle cx="425.635640520238" cy="-592.813616377194" r="2" style="fill: rgb(0,0,0)" />
	<circle cx="144.570906645319" cy="-64.0559772691202" r="2" style="fill: rgb(0,0,0)" />
	<circle cx="435.564415153675" cy="-56.9981997981177" r="2" style="fill: rgb(0,0,0)" />
	<circle cx="444.591904246288" cy="-62.6189586970541" r="2" style="fill: rgb(0,0,0)" />
	<circle cx="446.207074121419" cy="-63.6786260390757" r="2" style="fill: rgb(0,0,0)" />
	<circle cx="492.140342477427" cy="-98.6060164432137" r="2" style="fill: rgb(0,0,0)" />
	<circle cx="165.303665603978" cy="-602.534648594353" r="2" style="fill: rgb(0,0,0)" />
	<circle cx="126.971388453485" cy="-602.492291315929" r="2" style="fill: rgb(0,0,0)" />
	<circle cx="485.56891872217" cy="-619.436866404564" r="2" style="fill: rgb(0,0,0)" />
	<circle cx="447.157636363119" cy="-624.533782843041" r="2" style="fill: rgb(0,0,0)" />
	<circle cx="104.81402013665" cy="-58.1450525146549" r="2" style="fill: rgb(0,0,0)" />
	<circle cx="143.282561268126" cy="-53.5" r="2" style="fill: rgb(0,0,0)" />
	<!-- 
	Generated using the Perl SVG Module V2.64
	by Ronan Oger
	Info: http://www.roitsystems.com/
 -->
</svg>