<?xml version="1.0" encoding="UTF-8" standalone="yes"?>
<!DOCTYPE svg PUBLIC "-//W3C//DTD SVG 1.0//EN" "http://www.w3.org/TR/2001/REC-SVG-20010904/DTD/svg10.dtd">
<!-- generated using polymake; Michael Joswig, Georg Loho, Benjamin Lorenz, Rico Raber; license CC BY-NC-ND 3.0; see polymake.org and matchthenet.de -->
<svg height="841pt" id="document" viewBox="0 -690.66140225039 572 690.66140225039" width="595pt" xmlns="http://www.w3.org/2000/svg" xmlns:svg="http://www.w3.org/2000/svg" xmlns:xlink="http://www.w3.org/1999/xlink">
	<title id="document_title">planar_net_</title>
	<polygon points="274.607276303459,-353.830701125187 339.888288958566,-353.830701125187 341.977231503276,-387.813397948205 313.406300005682,-406.330666582629 " style="fill: rgb(67,184,206); fill-opacity: 1; stroke: rgb(0,0,0); stroke-width: 3" />
	<polygon points="341.977231503267,-319.848004302171 339.888288958566,-353.830701125187 274.607276303459,-353.830701125187 313.406300005673,-301.330735667745 " style="fill: rgb(67,184,206); fill-opacity: 1; stroke: rgb(0,0,0); stroke-width: 3" />
	<polygon points="341.977231503276,-387.813397948205 339.888288958566,-353.830701125187 419.559788956311,-374.878014275057 406.956772533261,-413.364490575174 " style="fill: rgb(67,184,206); fill-opacity: 1; stroke: rgb(0,0,0); stroke-width: 3" />
	<polygon points="274.607276303459,-353.830701125187 313.406300005682,-406.330666582629 287.318446757272,-428.207852809604 255.445776168726,-416.236209903384 " style="fill: rgb(67,184,206); fill-opacity: 1; stroke: rgb(0,0,0); stroke-width: 3" />
	<polygon points="419.559788956307,-332.783387975295 339.888288958566,-353.830701125187 341.977231503267,-319.848004302171 406.956772533243,-294.296911675186 " style="fill: rgb(67,184,206); fill-opacity: 1; stroke: rgb(0,0,0); stroke-width: 3" />
	<polygon points="313.406300005682,-406.330666582629 341.977231503276,-387.813397948205 401.145649329516,-424.884915570749 377.684708986771,-457.894446909325 " style="fill: rgb(67,184,206); fill-opacity: 1; stroke: rgb(0,0,0); stroke-width: 3" />
	<polygon points="274.607276303459,-353.830701125187 255.44577616871,-291.425192347007 287.318446757256,-279.453549440785 313.406300005673,-301.330735667745 " style="fill: rgb(67,184,206); fill-opacity: 1; stroke: rgb(0,0,0); stroke-width: 3" />
	<polygon points="313.406300005682,-406.330666582629 343.831581763442,-482.912906904262 305.389723906396,-495.651370134095 287.318446757272,-428.207852809604 " style="fill: rgb(67,184,206); fill-opacity: 1; stroke: rgb(0,0,0); stroke-width: 3" />
	<polygon points="401.145649329508,-282.776486679627 341.977231503267,-319.848004302171 313.406300005673,-301.330735667745 377.68470898676,-249.766955341053 " style="fill: rgb(67,184,206); fill-opacity: 1; stroke: rgb(0,0,0); stroke-width: 3" />
	<polygon points="274.607276303459,-353.830701125187 255.445776168726,-416.236209903384 222.34679884185,-408.258424230953 213.031415427294,-375.510737348366 " style="fill: rgb(67,184,206); fill-opacity: 1; stroke: rgb(0,0,0); stroke-width: 3" />
	<polygon points="343.831581763398,-224.748495346097 313.406300005673,-301.330735667745 287.318446757256,-279.453549440785 305.389723906348,-212.010032116287 " style="fill: rgb(67,184,206); fill-opacity: 1; stroke: rgb(0,0,0); stroke-width: 3" />
	<polygon points="255.445776168726,-416.236209903384 287.318446757272,-428.207852809604 292.671051393942,-497.825010971243 252.180551507843,-498.576209967955 " style="fill: rgb(67,184,206); fill-opacity: 1; stroke: rgb(0,0,0); stroke-width: 3" />
	<polygon points="255.445776168726,-416.236209903384 211.940113067623,-486.220455136526 178.848171845556,-462.875898873568 222.34679884185,-408.258424230953 " style="fill: rgb(67,184,206); fill-opacity: 1; stroke: rgb(0,0,0); stroke-width: 3" />
	<polygon points="255.44577616871,-291.425192347007 252.180551507822,-209.085192282438 292.671051393921,-209.836391279144 287.318446757256,-279.453549440785 " style="fill: rgb(67,184,206); fill-opacity: 1; stroke: rgb(0,0,0); stroke-width: 3" />
	<polygon points="213.031415427294,-375.510737348366 222.34679884185,-408.258424230953 169.540899785475,-453.939231051182 144.871708535597,-421.822632787418 " style="fill: rgb(67,184,206); fill-opacity: 1; stroke: rgb(0,0,0); stroke-width: 3" />
	<polygon points="406.956772533261,-413.364490575174 419.559788956311,-374.878014275057 561.5,-442.665390573426 " style="fill: rgb(14,173,105); fill-opacity: 1; stroke: rgb(0,0,0); stroke-width: 3" />
	<polygon points="419.559788956307,-332.783387975295 406.956772533243,-294.296911675186 561.49999999997,-264.99601167687 " style="fill: rgb(14,173,105); fill-opacity: 1; stroke: rgb(0,0,0); stroke-width: 3" />
	<polygon points="377.684708986771,-457.894446909325 401.145649329516,-424.884915570749 516.560871564013,-531.756232457486 " style="fill: rgb(14,173,105); fill-opacity: 1; stroke: rgb(0,0,0); stroke-width: 3" />
	<polygon points="343.831581763442,-482.912906904262 373.676503268573,-637.351997023623 305.389723906396,-495.651370134095 " style="fill: rgb(14,173,105); fill-opacity: 1; stroke: rgb(0,0,0); stroke-width: 3" />
	<polygon points="401.145649329508,-282.776486679627 377.68470898676,-249.766955341053 516.560871564002,-175.905169792887 " style="fill: rgb(14,173,105); fill-opacity: 1; stroke: rgb(0,0,0); stroke-width: 3" />
	<polygon points="343.831581763398,-224.748495346097 305.389723906348,-212.010032116287 373.676503268438,-70.3094052267178 " style="fill: rgb(14,173,105); fill-opacity: 1; stroke: rgb(0,0,0); stroke-width: 3" />
	<polygon points="252.180551507843,-498.576209967955 292.671051393942,-497.825010971243 275.319260179281,-654.16140225039 " style="fill: rgb(14,173,105); fill-opacity: 1; stroke: rgb(0,0,0); stroke-width: 3" />
	<polygon points="211.940113067623,-486.220455136526 105.475877955446,-602.01129475056 178.848171845556,-462.875898873568 " style="fill: rgb(14,173,105); fill-opacity: 1; stroke: rgb(0,0,0); stroke-width: 3" />
	<polygon points="252.180551507822,-209.085192282438 275.319260179237,-53.5 292.671051393921,-209.836391279144 " style="fill: rgb(14,173,105); fill-opacity: 1; stroke: rgb(0,0,0); stroke-width: 3" />
	<polygon points="144.871708535597,-421.822632787418 169.540899785475,-453.939231051182 33.5,-532.901408592725 " style="fill: rgb(14,173,105); fill-opacity: 1; stroke: rgb(0,0,0); stroke-width: 3" />
	<circle cx="274.607276303459" cy="-353.830701125187" r="2" style="fill: rgb(0,0,0)" />
	<circle cx="339.888288958566" cy="-353.830701125187" r="2" style="fill: rgb(0,0,0)" />
	<circle cx="341.977231503276" cy="-387.813397948205" r="2" style="fill: rgb(0,0,0)" />
	<circle cx="313.406300005682" cy="-406.330666582629" r="2" style="fill: rgb(0,0,0)" />
	<circle cx="313.406300005673" cy="-301.330735667745" r="2" style="fill: rgb(0,0,0)" />
	<circle cx="341.977231503267" cy="-319.848004302171" r="2" style="fill: rgb(0,0,0)" />
	<circle cx="419.559788956311" cy="-374.878014275057" r="2" style="fill: rgb(0,0,0)" />
	<circle cx="406.956772533261" cy="-413.364490575174" r="2" style="fill: rgb(0,0,0)" />
	<circle cx="287.318446757272" cy="-428.207852809604" r="2" style="fill: rgb(0,0,0)" />
	<circle cx="255.445776168726" cy="-416.236209903384" r="2" style="fill: rgb(0,0,0)" />
	<circle cx="401.145649329516" cy="-424.884915570749" r="2" style="fill: rgb(0,0,0)" />
	<circle cx="377.684708986771" cy="-457.894446909325" r="2" style="fill: rgb(0,0,0)" />
	<circle cx="406.956772533243" cy="-294.296911675186" r="2" style="fill: rgb(0,0,0)" />
	<circle cx="419.559788956307" cy="-332.783387975295" r="2" style="fill: rgb(0,0,0)" />
	<circle cx="255.44577616871" cy="-291.425192347007" r="2" style="fill: rgb(0,0,0)" />
	<circle cx="287.318446757256" cy="-279.453549440785" r="2" style="fill: rgb(0,0,0)" />
	<circle cx="377.68470898676" cy="-249.766955341053" r="2" style="fill: rgb(0,0,0)" />
	<circle cx="401.145649329508" cy="-282.776486679627" r="2" style="fill: rgb(0,0,0)" />
	<circle cx="561.5" cy="-442.665390573426" r="2" style="fill: rgb(0,0,0)" />
	<circle cx="343.831581763442" cy="-482.912906904262" r="2" style="fill: rgb(0,0,0)" />
	<circle cx="305.389723906396" cy="-495.651370134095" r="2" style="fill: rgb(0,0,0)" />
	<circle cx="222.34679884185" cy="-408.258424230953" r="2" style="fill: rgb(0,0,0)" />
	<circle cx="213.031415427294" cy="-375.510737348366" r="2" style="fill: rgb(0,0,0)" />
	<circle cx="292.671051393942" cy="-497.825010971243" r="2" style="fill: rgb(0,0,0)" />
	<circle cx="252.180551507843" cy="-498.576209967955" r="2" style="fill: rgb(0,0,0)" />
	<circle cx="516.560871564013" cy="-531.756232457486" r="2" style="fill: rgb(0,0,0)" />
	<circle cx="561.49999999997" cy="-264.99601167687" r="2" style="fill: rgb(0,0,0)" />
	<circle cx="305.389723906348" cy="-212.010032116287" r="2" style="fill: rgb(0,0,0)" />
	<circle cx="343.831581763398" cy="-224.748495346097" r="2" style="fill: rgb(0,0,0)" />
	<circle cx="252.180551507822" cy="-209.085192282438" r="2" style="fill: rgb(0,0,0)" />
	<circle cx="292.671051393921" cy="-209.836391279144" r="2" style="fill: rgb(0,0,0)" />
	<circle cx="516.560871564002" cy="-175.905169792887" r="2" style="fill: rgb(0,0,0)" />
	<circle cx="373.676503268573" cy="-637.351997023623" r="2" style="fill: rgb(0,0,0)" />
	<circle cx="211.940113067623" cy="-486.220455136526" r="2" style="fill: rgb(0,0,0)" />
	<circle cx="178.848171845556" cy="-462.875898873568" r="2" style="fill: rgb(0,0,0)" />
	<circle cx="169.540899785475" cy="-453.939231051182" r="2" style="fill: rgb(0,0,0)" />
	<circle cx="144.871708535597" cy="-421.822632787418" r="2" style="fill: rgb(0,0,0)" />
	<circle cx="275.319260179281" cy="-654.16140225039" r="2" style="fill: rgb(0,0,0)" />
	<circle cx="373.676503268438" cy="-70.3094052267178" r="2" style="fill: rgb(0,0,0)" />
	<circle cx="275.319260179237" cy="-53.5" r="2" style="fill: rgb(0,0,0)" />
	<circle cx="105.475877955446" cy="-602.01129475056" r="2" style="fill: rgb(0,0,0)" />
	<circle cx="33.5" cy="-532.901408592725" r="2" style="fill: rgb(0,0,0)" />
	<!--
	Generated using the Perl SVG Module V2.87
	by Ronan Oger

	-->
</svg>