<?xml version="1.0" encoding="UTF-8" standalone="yes"?>
<!DOCTYPE svg PUBLIC "-//W3C//DTD SVG 1.0//EN" "http://www.w3.org/TR/2001/REC-SVG-20010904/DTD/svg10.dtd">
<!-- generated using polymake; Michael Joswig, Georg Loho, Benjamin Lorenz, Rico Raber; license CC BY-NC-ND 3.0; see polymake.org and matchthenet.de -->
<svg height="841pt" id="document" viewBox="0 -531.415316289874 572 531.415316289874" width="595pt" xmlns="http://www.w3.org/2000/svg" xmlns:svg="http://www.w3.org/2000/svg" xmlns:xlink="http://www.w3.org/1999/xlink">
	<title id="document_title">planar_net_</title>
	<polygon points="229.212812921111,-240.064064605501 297.500000000002,-240.064064605501 297.500000000006,-308.351251684395 229.212812921121,-308.351251684402 " style="fill: rgb(216,176,92); fill-opacity: 1; stroke: rgb(0,0,0); stroke-width: 3" />
	<polygon points="263.356406460557,-180.925625842201 297.500000000002,-240.064064605501 229.212812921111,-240.064064605501 " style="fill: rgb(61,81,50); fill-opacity: 1; stroke: rgb(0,0,0); stroke-width: 3" />
	<polygon points="229.212812921111,-240.064064605501 195.069219381666,-180.925625842201 263.356406460557,-180.925625842201 " style="fill: rgb(61,81,50); fill-opacity: 1; stroke: rgb(0,0,0); stroke-width: 3" />
	<polygon points="229.212812921111,-121.787187078901 263.356406460557,-180.925625842201 195.069219381666,-180.925625842201 " style="fill: rgb(61,81,50); fill-opacity: 1; stroke: rgb(0,0,0); stroke-width: 3" />
	<polygon points="195.069219381666,-180.925625842201 160.925625842227,-121.787187078896 229.212812921111,-121.787187078901 " style="fill: rgb(61,81,50); fill-opacity: 1; stroke: rgb(0,0,0); stroke-width: 3" />
	<polygon points="101.787187078899,-205.9204710661 101.787187078922,-274.207658144985 33.5000000000258,-274.207658145011 33.5,-205.920471066131 " style="fill: rgb(216,176,92); fill-opacity: 1; stroke: rgb(0,0,0); stroke-width: 3" />
	<polygon points="297.500000000006,-308.351251684395 297.500000000002,-240.064064605501 365.787187078897,-240.064064605496 365.787187078905,-308.351251684383 " style="fill: rgb(216,176,92); fill-opacity: 1; stroke: rgb(0,0,0); stroke-width: 3" />
	<polygon points="297.500000000015,-376.638438763295 365.787187078909,-376.638438763278 331.643593539464,-435.776877526578 " style="fill: rgb(61,81,50); fill-opacity: 1; stroke: rgb(0,0,0); stroke-width: 3" />
	<polygon points="322.494845223858,-146.782032302752 263.356406460555,-112.63843876331 322.494845223853,-78.4948452238605 " style="fill: rgb(61,81,50); fill-opacity: 1; stroke: rgb(0,0,0); stroke-width: 3" />
	<polygon points="493.212812921101,-342.494845223813 493.2128129211,-274.207658144922 561.499999999997,-274.207658144919 561.5,-342.494845223804 " style="fill: rgb(216,176,92); fill-opacity: 1; stroke: rgb(0,0,0); stroke-width: 3" />
	<polygon points="365.787187078905,-308.351251684383 365.787187078897,-240.064064605496 434.074374157793,-240.064064605486 434.074374157805,-308.351251684365 " style="fill: rgb(216,176,92); fill-opacity: 1; stroke: rgb(0,0,0); stroke-width: 3" />
	<polygon points="399.93078061836,-367.489690447666 434.074374157805,-308.351251684365 468.217967697251,-367.489690447665 " style="fill: rgb(61,81,50); fill-opacity: 1; stroke: rgb(0,0,0); stroke-width: 3" />
	<polygon points="493.2128129211,-274.207658144922 434.074374157793,-240.064064605486 493.212812921088,-205.920471066031 " style="fill: rgb(61,81,50); fill-opacity: 1; stroke: rgb(0,0,0); stroke-width: 3" />
	<polygon points="434.074374157805,-308.351251684365 493.2128129211,-274.207658144922 493.212812921101,-342.494845223813 " style="fill: rgb(61,81,50); fill-opacity: 1; stroke: rgb(0,0,0); stroke-width: 3" />
	<polygon points="434.074374157805,-308.351251684365 434.074374157793,-240.064064605486 493.2128129211,-274.207658144922 " style="fill: rgb(61,81,50); fill-opacity: 1; stroke: rgb(0,0,0); stroke-width: 3" />
	<polygon points="493.2128129211,-274.207658144922 493.212812921088,-205.920471066031 552.35125168439,-240.064064605475 " style="fill: rgb(61,81,50); fill-opacity: 1; stroke: rgb(0,0,0); stroke-width: 3" />
	<polygon points="365.787187078905,-308.351251684383 434.074374157805,-308.351251684365 399.93078061836,-367.489690447666 " style="fill: rgb(61,81,50); fill-opacity: 1; stroke: rgb(0,0,0); stroke-width: 3" />
	<polygon points="390.78203230275,-146.782032302748 322.494845223858,-146.782032302752 356.638438763304,-87.6435935394522 " style="fill: rgb(61,81,50); fill-opacity: 1; stroke: rgb(0,0,0); stroke-width: 3" />
	<polygon points="356.638438763305,-205.920471066046 322.494845223858,-146.782032302752 390.78203230275,-146.782032302748 " style="fill: rgb(61,81,50); fill-opacity: 1; stroke: rgb(0,0,0); stroke-width: 3" />
	<polygon points="331.643593539464,-435.776877526578 365.787187078909,-376.638438763278 399.930780618356,-435.776877526578 " style="fill: rgb(61,81,50); fill-opacity: 1; stroke: rgb(0,0,0); stroke-width: 3" />
	<polygon points="331.643593539464,-435.776877526578 399.930780618356,-435.776877526578 365.787187078901,-494.915316289874 " style="fill: rgb(61,81,50); fill-opacity: 1; stroke: rgb(0,0,0); stroke-width: 3" />
	<polygon points="229.212812921102,-53.5000000000002 229.212812921111,-121.787187078901 160.925625842227,-121.787187078896 160.925625842223,-53.5 " style="fill: rgb(216,176,92); fill-opacity: 1; stroke: rgb(0,0,0); stroke-width: 3" />
	<polygon points="297.500000000006,-308.351251684395 365.787187078905,-308.351251684383 365.787187078909,-376.638438763278 297.500000000015,-376.638438763295 " style="fill: rgb(216,176,92); fill-opacity: 1; stroke: rgb(0,0,0); stroke-width: 3" />
	<polygon points="322.494845223858,-146.782032302752 263.356406460557,-180.925625842201 263.356406460555,-112.63843876331 " style="fill: rgb(61,81,50); fill-opacity: 1; stroke: rgb(0,0,0); stroke-width: 3" />
	<polygon points="356.638438763305,-205.920471066046 297.500000000002,-240.064064605501 263.356406460557,-180.925625842201 322.494845223858,-146.782032302752 " style="fill: rgb(216,176,92); fill-opacity: 1; stroke: rgb(0,0,0); stroke-width: 3" />
	<polygon points="195.069219381674,-367.489690447701 263.356406460565,-367.489690447704 229.212812921119,-426.628129211004 " style="fill: rgb(61,81,50); fill-opacity: 1; stroke: rgb(0,0,0); stroke-width: 3" />
	<polygon points="195.069219381674,-367.489690447701 229.212812921119,-426.628129211004 170.074374157817,-460.771722750454 135.93078061837,-401.633283987156 " style="fill: rgb(216,176,92); fill-opacity: 1; stroke: rgb(0,0,0); stroke-width: 3" />
	<polygon points="229.212812921121,-308.351251684402 297.500000000006,-308.351251684395 263.356406460565,-367.489690447704 " style="fill: rgb(61,81,50); fill-opacity: 1; stroke: rgb(0,0,0); stroke-width: 3" />
	<polygon points="229.212812921121,-308.351251684402 263.356406460565,-367.489690447704 195.069219381674,-367.489690447701 " style="fill: rgb(61,81,50); fill-opacity: 1; stroke: rgb(0,0,0); stroke-width: 3" />
	<polygon points="170.074374157816,-274.207658144965 170.074374157826,-342.494845223856 110.935935394523,-308.35125168441 " style="fill: rgb(61,81,50); fill-opacity: 1; stroke: rgb(0,0,0); stroke-width: 3" />
	<polygon points="170.074374157816,-274.207658144965 229.212812921121,-308.351251684402 170.074374157826,-342.494845223856 " style="fill: rgb(61,81,50); fill-opacity: 1; stroke: rgb(0,0,0); stroke-width: 3" />
	<polygon points="229.212812921111,-240.064064605501 170.074374157816,-274.207658144965 170.074374157798,-205.920471066074 " style="fill: rgb(61,81,50); fill-opacity: 1; stroke: rgb(0,0,0); stroke-width: 3" />
	<polygon points="229.212812921111,-240.064064605501 229.212812921121,-308.351251684402 170.074374157816,-274.207658144965 " style="fill: rgb(61,81,50); fill-opacity: 1; stroke: rgb(0,0,0); stroke-width: 3" />
	<polygon points="170.074374157798,-205.920471066074 170.074374157816,-274.207658144965 101.787187078922,-274.207658144985 101.787187078899,-205.9204710661 " style="fill: rgb(216,176,92); fill-opacity: 1; stroke: rgb(0,0,0); stroke-width: 3" />
	<circle cx="229.212812921111" cy="-240.064064605501" r="2" style="fill: rgb(0,0,0)" />
	<circle cx="297.500000000002" cy="-240.064064605501" r="2" style="fill: rgb(0,0,0)" />
	<circle cx="297.500000000006" cy="-308.351251684395" r="2" style="fill: rgb(0,0,0)" />
	<circle cx="229.212812921121" cy="-308.351251684402" r="2" style="fill: rgb(0,0,0)" />
	<circle cx="263.356406460557" cy="-180.925625842201" r="2" style="fill: rgb(0,0,0)" />
	<circle cx="365.787187078897" cy="-240.064064605496" r="2" style="fill: rgb(0,0,0)" />
	<circle cx="365.787187078905" cy="-308.351251684383" r="2" style="fill: rgb(0,0,0)" />
	<circle cx="263.356406460565" cy="-367.489690447704" r="2" style="fill: rgb(0,0,0)" />
	<circle cx="170.074374157816" cy="-274.207658144965" r="2" style="fill: rgb(0,0,0)" />
	<circle cx="195.069219381666" cy="-180.925625842201" r="2" style="fill: rgb(0,0,0)" />
	<circle cx="322.494845223858" cy="-146.782032302752" r="2" style="fill: rgb(0,0,0)" />
	<circle cx="356.638438763305" cy="-205.920471066046" r="2" style="fill: rgb(0,0,0)" />
	<circle cx="434.074374157793" cy="-240.064064605486" r="2" style="fill: rgb(0,0,0)" />
	<circle cx="434.074374157805" cy="-308.351251684365" r="2" style="fill: rgb(0,0,0)" />
	<circle cx="365.787187078909" cy="-376.638438763278" r="2" style="fill: rgb(0,0,0)" />
	<circle cx="297.500000000015" cy="-376.638438763295" r="2" style="fill: rgb(0,0,0)" />
	<circle cx="195.069219381674" cy="-367.489690447701" r="2" style="fill: rgb(0,0,0)" />
	<circle cx="170.074374157826" cy="-342.494845223856" r="2" style="fill: rgb(0,0,0)" />
	<circle cx="170.074374157798" cy="-205.920471066074" r="2" style="fill: rgb(0,0,0)" />
	<circle cx="229.212812921111" cy="-121.787187078901" r="2" style="fill: rgb(0,0,0)" />
	<circle cx="390.78203230275" cy="-146.782032302748" r="2" style="fill: rgb(0,0,0)" />
	<circle cx="263.356406460555" cy="-112.63843876331" r="2" style="fill: rgb(0,0,0)" />
	<circle cx="493.2128129211" cy="-274.207658144922" r="2" style="fill: rgb(0,0,0)" />
	<circle cx="399.93078061836" cy="-367.489690447666" r="2" style="fill: rgb(0,0,0)" />
	<circle cx="331.643593539464" cy="-435.776877526578" r="2" style="fill: rgb(0,0,0)" />
	<circle cx="229.212812921119" cy="-426.628129211004" r="2" style="fill: rgb(0,0,0)" />
	<circle cx="110.935935394523" cy="-308.35125168441" r="2" style="fill: rgb(0,0,0)" />
	<circle cx="101.787187078922" cy="-274.207658144985" r="2" style="fill: rgb(0,0,0)" />
	<circle cx="101.787187078899" cy="-205.9204710661" r="2" style="fill: rgb(0,0,0)" />
	<circle cx="160.925625842227" cy="-121.787187078896" r="2" style="fill: rgb(0,0,0)" />
	<circle cx="356.638438763304" cy="-87.6435935394522" r="2" style="fill: rgb(0,0,0)" />
	<circle cx="322.494845223853" cy="-78.4948452238605" r="2" style="fill: rgb(0,0,0)" />
	<circle cx="493.212812921088" cy="-205.920471066031" r="2" style="fill: rgb(0,0,0)" />
	<circle cx="493.212812921101" cy="-342.494845223813" r="2" style="fill: rgb(0,0,0)" />
	<circle cx="468.217967697251" cy="-367.489690447665" r="2" style="fill: rgb(0,0,0)" />
	<circle cx="399.930780618356" cy="-435.776877526578" r="2" style="fill: rgb(0,0,0)" />
	<circle cx="170.074374157817" cy="-460.771722750454" r="2" style="fill: rgb(0,0,0)" />
	<circle cx="135.93078061837" cy="-401.633283987156" r="2" style="fill: rgb(0,0,0)" />
	<circle cx="33.5000000000258" cy="-274.207658145011" r="2" style="fill: rgb(0,0,0)" />
	<circle cx="33.5" cy="-205.920471066131" r="2" style="fill: rgb(0,0,0)" />
	<circle cx="160.925625842223" cy="-53.5" r="2" style="fill: rgb(0,0,0)" />
	<circle cx="229.212812921102" cy="-53.5000000000002" r="2" style="fill: rgb(0,0,0)" />
	<circle cx="552.35125168439" cy="-240.064064605475" r="2" style="fill: rgb(0,0,0)" />
	<circle cx="561.499999999997" cy="-274.207658144919" r="2" style="fill: rgb(0,0,0)" />
	<circle cx="561.5" cy="-342.494845223804" r="2" style="fill: rgb(0,0,0)" />
	<circle cx="365.787187078901" cy="-494.915316289874" r="2" style="fill: rgb(0,0,0)" />
	<!--
	Generated using the Perl SVG Module V2.84
	by Ronan Oger
	Info: http://www.roitsystems.com/
	-->
</svg>