<?xml version="1.0" encoding="UTF-8" standalone="yes"?>
<!DOCTYPE svg PUBLIC "-//W3C//DTD SVG 1.0//EN" "http://www.w3.org/TR/2001/REC-SVG-20010904/DTD/svg10.dtd">
<!-- generated using polymake; Michael Joswig, Georg Loho, Benjamin Lorenz, Rico Raber; license CC BY-NC-ND 3.0; see polymake.org and matchthenet.de -->
<svg height="841pt" id="document" viewBox="0 -540.50129279766 572 540.50129279766" width="595pt" xmlns="http://www.w3.org/2000/svg" xmlns:svg="http://www.w3.org/2000/svg" xmlns:xlink="http://www.w3.org/1999/xlink">
	<title id="document_title">planar_net_</title>
	<polygon points="171.354435999515,-228.292420798632 272.270887199907,-228.292420798632 322.729112800108,-315.688631197945 272.270887199913,-403.084841597258 171.354435999516,-403.084841597256 120.896210399315,-315.688631197942 " style="fill: rgb(14,173,105); fill-opacity: 1; stroke: rgb(0,0,0); stroke-width: 3" />
	<polygon points="221.812661599721,-140.89621039932 272.270887199907,-228.292420798632 171.354435999515,-228.292420798632 " style="fill: rgb(14,173,105); fill-opacity: 1; stroke: rgb(0,0,0); stroke-width: 3" />
	<polygon points="322.729112800118,-140.896210399321 272.270887199907,-228.292420798632 221.812661599721,-140.89621039932 " style="fill: rgb(14,173,105); fill-opacity: 1; stroke: rgb(0,0,0); stroke-width: 3" />
	<polygon points="322.729112800118,-140.896210399321 221.812661599721,-140.89621039932 272.270887199916,-53.5 " style="fill: rgb(14,173,105); fill-opacity: 1; stroke: rgb(0,0,0); stroke-width: 3" />
	<polygon points="171.354435999515,-228.292420798632 120.896210399327,-140.896210399314 221.812661599721,-140.89621039932 " style="fill: rgb(14,173,105); fill-opacity: 1; stroke: rgb(0,0,0); stroke-width: 3" />
	<polygon points="322.729112800108,-315.688631197945 272.270887199907,-228.292420798632 359.66709759923,-177.834195198428 410.125323199426,-265.230405597724 " style="fill: rgb(14,173,105); fill-opacity: 1; stroke: rgb(0,0,0); stroke-width: 3" />
	<polygon points="171.354435999515,-228.292420798632 120.896210399315,-315.688631197942 33.5,-265.230405597744 83.9582256001968,-177.834195198434 " style="fill: rgb(14,173,105); fill-opacity: 1; stroke: rgb(0,0,0); stroke-width: 3" />
	<polygon points="272.270887199913,-403.084841597258 322.729112800108,-315.688631197945 410.125323199425,-366.146856798143 359.667097599233,-453.543067197452 " style="fill: rgb(14,173,105); fill-opacity: 1; stroke: rgb(0,0,0); stroke-width: 3" />
	<polygon points="410.125323199426,-265.230405597724 359.66709759923,-177.834195198428 410.12532319943,-90.4379847991094 511.041774399815,-90.4379847990898 561.5,-177.834195198389 511.0417743998,-265.230405597707 " style="fill: rgb(14,173,105); fill-opacity: 1; stroke: rgb(0,0,0); stroke-width: 3" />
	<polygon points="120.896210399315,-315.688631197942 171.354435999516,-403.084841597256 83.9582256002023,-453.543067197467 33.5000000000017,-366.146856798151 " style="fill: rgb(14,173,105); fill-opacity: 1; stroke: rgb(0,0,0); stroke-width: 3" />
	<polygon points="171.354435999516,-403.084841597256 272.270887199913,-403.084841597258 272.270887199918,-504.00129279766 171.354435999527,-504.001292797659 " style="fill: rgb(14,173,105); fill-opacity: 1; stroke: rgb(0,0,0); stroke-width: 3" />
	<circle cx="171.354435999515" cy="-228.292420798632" r="2" style="fill: rgb(0,0,0)" />
	<circle cx="272.270887199907" cy="-228.292420798632" r="2" style="fill: rgb(0,0,0)" />
	<circle cx="322.729112800108" cy="-315.688631197945" r="2" style="fill: rgb(0,0,0)" />
	<circle cx="272.270887199913" cy="-403.084841597258" r="2" style="fill: rgb(0,0,0)" />
	<circle cx="171.354435999516" cy="-403.084841597256" r="2" style="fill: rgb(0,0,0)" />
	<circle cx="120.896210399315" cy="-315.688631197942" r="2" style="fill: rgb(0,0,0)" />
	<circle cx="221.812661599721" cy="-140.89621039932" r="2" style="fill: rgb(0,0,0)" />
	<circle cx="359.66709759923" cy="-177.834195198428" r="2" style="fill: rgb(0,0,0)" />
	<circle cx="410.125323199426" cy="-265.230405597724" r="2" style="fill: rgb(0,0,0)" />
	<circle cx="33.5" cy="-265.230405597744" r="2" style="fill: rgb(0,0,0)" />
	<circle cx="83.9582256001968" cy="-177.834195198434" r="2" style="fill: rgb(0,0,0)" />
	<circle cx="410.125323199425" cy="-366.146856798143" r="2" style="fill: rgb(0,0,0)" />
	<circle cx="359.667097599233" cy="-453.543067197452" r="2" style="fill: rgb(0,0,0)" />
	<circle cx="83.9582256002023" cy="-453.543067197467" r="2" style="fill: rgb(0,0,0)" />
	<circle cx="33.5000000000017" cy="-366.146856798151" r="2" style="fill: rgb(0,0,0)" />
	<circle cx="272.270887199918" cy="-504.00129279766" r="2" style="fill: rgb(0,0,0)" />
	<circle cx="171.354435999527" cy="-504.001292797659" r="2" style="fill: rgb(0,0,0)" />
	<circle cx="322.729112800118" cy="-140.896210399321" r="2" style="fill: rgb(0,0,0)" />
	<circle cx="120.896210399327" cy="-140.896210399314" r="2" style="fill: rgb(0,0,0)" />
	<circle cx="410.12532319943" cy="-90.4379847991094" r="2" style="fill: rgb(0,0,0)" />
	<circle cx="511.041774399815" cy="-90.4379847990898" r="2" style="fill: rgb(0,0,0)" />
	<circle cx="561.5" cy="-177.834195198389" r="2" style="fill: rgb(0,0,0)" />
	<circle cx="511.0417743998" cy="-265.230405597707" r="2" style="fill: rgb(0,0,0)" />
	<circle cx="272.270887199916" cy="-53.5" r="2" style="fill: rgb(0,0,0)" />
	<!--
	Generated using the Perl SVG Module V2.87
	by Ronan Oger

	-->
</svg>