<?xml version="1.0" encoding="UTF-8" standalone="yes"?>
<!DOCTYPE svg PUBLIC "-//W3C//DTD SVG 1.0//EN" "http://www.w3.org/TR/2001/REC-SVG-20010904/DTD/svg10.dtd">
<!-- generated using polymake; Michael Joswig, Georg Loho, Benjamin Lorenz, Rico Raber; license CC BY-NC-ND 3.0; see polymake.org and matchthenet.de -->
<svg height="841pt" id="document" viewBox="0 -811 417.836674490092 811" width="595pt" xmlns="http://www.w3.org/2000/svg" xmlns:svg="http://www.w3.org/2000/svg" xmlns:xlink="http://www.w3.org/1999/xlink">
	<title id="document_title">planar_net_</title>
	<polygon points="170.333719729667,-398.405050327159 270.502954760415,-398.405050327159 270.502954760421,-498.574285357912 170.333719729681,-498.574285357919 " style="fill: rgb(67,184,206); fill-opacity: 1; stroke: rgb(0,0,0); stroke-width: 3" />
	<polygon points="220.418337245052,-311.655948112877 270.502954760415,-398.405050327159 170.333719729667,-398.405050327159 " style="fill: rgb(14,173,105); fill-opacity: 1; stroke: rgb(0,0,0); stroke-width: 3" />
	<polygon points="170.333719729681,-498.574285357919 270.502954760421,-498.574285357912 301.456950698465,-593.840889066212 220.418337245058,-652.718888150709 139.379723791644,-593.840889066213 " style="fill: rgb(255,210,63); fill-opacity: 1; stroke: rgb(0,0,0); stroke-width: 3" />
	<polygon points="170.333719729667,-398.405050327159 170.333719729681,-498.574285357919 83.5846175153883,-448.48966784256 " style="fill: rgb(14,173,105); fill-opacity: 1; stroke: rgb(0,0,0); stroke-width: 3" />
	<polygon points="170.333719729681,-498.574285357919 139.379723791644,-593.840889066213 44.1131200833446,-562.886893128179 75.0671160213724,-467.620289419884 " style="fill: rgb(67,184,206); fill-opacity: 1; stroke: rgb(0,0,0); stroke-width: 3" />
	<polygon points="139.379723791644,-593.840889066213 220.418337245058,-652.718888150709 161.540338160564,-733.757501604128 80.5017247071532,-674.87950251963 " style="fill: rgb(67,184,206); fill-opacity: 1; stroke: rgb(0,0,0); stroke-width: 3" />
	<polygon points="139.379723791644,-593.840889066213 64.9394751065208,-660.867190040852 44.1131200833446,-562.886893128179 " style="fill: rgb(14,173,105); fill-opacity: 1; stroke: rgb(0,0,0); stroke-width: 3" />
	<polygon points="80.5017247071532,-674.87950251963 161.540338160564,-733.757501604128 70.0311885026756,-774.499999999992 " style="fill: rgb(14,173,105); fill-opacity: 1; stroke: rgb(0,0,0); stroke-width: 3" />
	<polygon points="220.418337245058,-652.718888150709 261.160835640941,-744.228037808584 161.540338160564,-733.757501604128 " style="fill: rgb(14,173,105); fill-opacity: 1; stroke: rgb(0,0,0); stroke-width: 3" />
	<polygon points="83.5846175153837,-348.320432811777 33.5000000000064,-261.571330597497 133.66923503075,-261.571330597501 " style="fill: rgb(14,173,105); fill-opacity: 1; stroke: rgb(0,0,0); stroke-width: 3" />
	<polygon points="133.669235030737,-161.40209556674 133.66923503075,-261.571330597501 33.5000000000064,-261.571330597497 33.5,-161.40209556674 " style="fill: rgb(67,184,206); fill-opacity: 1; stroke: rgb(0,0,0); stroke-width: 3" />
	<polygon points="254.116087534291,-153.120497480368 154.495590053907,-163.591033684825 144.025053849447,-63.9705362044491 243.645551329819,-53.5 " style="fill: rgb(67,184,206); fill-opacity: 1; stroke: rgb(0,0,0); stroke-width: 3" />
	<polygon points="279.296336329569,-733.757501604108 360.334949782969,-674.879502519624 370.805485987423,-774.5 " style="fill: rgb(14,173,105); fill-opacity: 1; stroke: rgb(0,0,0); stroke-width: 3" />
	<polygon points="220.418337245058,-652.718888150709 301.456950698465,-593.840889066212 360.334949782969,-674.879502519624 279.296336329569,-733.757501604108 " style="fill: rgb(67,184,206); fill-opacity: 1; stroke: rgb(0,0,0); stroke-width: 3" />
	<polygon points="170.333719729667,-398.405050327159 83.5846175153837,-348.320432811777 133.66923503075,-261.571330597501 220.418337245052,-311.655948112877 " style="fill: rgb(67,184,206); fill-opacity: 1; stroke: rgb(0,0,0); stroke-width: 3" />
	<polygon points="294.858585930185,-244.629647138254 220.418337245052,-311.655948112877 133.66923503075,-261.571330597501 154.495590053907,-163.591033684825 254.116087534291,-153.120497480368 " style="fill: rgb(255,210,63); fill-opacity: 1; stroke: rgb(0,0,0); stroke-width: 3" />
	<polygon points="301.456950698465,-593.840889066212 401.077448178835,-583.370352861737 360.334949782969,-674.879502519624 " style="fill: rgb(14,173,105); fill-opacity: 1; stroke: rgb(0,0,0); stroke-width: 3" />
	<polygon points="294.858585930185,-244.629647138254 254.116087534291,-153.120497480368 345.625237192163,-112.377999084474 386.367735588055,-203.88714874236 " style="fill: rgb(67,184,206); fill-opacity: 1; stroke: rgb(0,0,0); stroke-width: 3" />
	<polygon points="357.252056974708,-348.320432811779 307.167439459341,-261.571330597508 407.336674490092,-261.571330597503 " style="fill: rgb(14,173,105); fill-opacity: 1; stroke: rgb(0,0,0); stroke-width: 3" />
	<polygon points="270.502954760421,-498.574285357912 270.502954760415,-398.405050327159 357.2520569747,-448.489667842527 " style="fill: rgb(14,173,105); fill-opacity: 1; stroke: rgb(0,0,0); stroke-width: 3" />
	<polygon points="270.502954760421,-498.574285357912 365.769558468718,-467.620289419867 396.723554406759,-562.886893128147 301.456950698465,-593.840889066212 " style="fill: rgb(67,184,206); fill-opacity: 1; stroke: rgb(0,0,0); stroke-width: 3" />
	<polygon points="357.252056974708,-348.320432811779 270.502954760415,-398.405050327159 220.418337245052,-311.655948112877 307.167439459341,-261.571330597508 " style="fill: rgb(67,184,206); fill-opacity: 1; stroke: rgb(0,0,0); stroke-width: 3" />
	<circle cx="170.333719729667" cy="-398.405050327159" r="2" style="fill: rgb(0,0,0)" />
	<circle cx="270.502954760415" cy="-398.405050327159" r="2" style="fill: rgb(0,0,0)" />
	<circle cx="270.502954760421" cy="-498.574285357912" r="2" style="fill: rgb(0,0,0)" />
	<circle cx="170.333719729681" cy="-498.574285357919" r="2" style="fill: rgb(0,0,0)" />
	<circle cx="220.418337245052" cy="-311.655948112877" r="2" style="fill: rgb(0,0,0)" />
	<circle cx="301.456950698465" cy="-593.840889066212" r="2" style="fill: rgb(0,0,0)" />
	<circle cx="220.418337245058" cy="-652.718888150709" r="2" style="fill: rgb(0,0,0)" />
	<circle cx="139.379723791644" cy="-593.840889066213" r="2" style="fill: rgb(0,0,0)" />
	<circle cx="83.5846175153883" cy="-448.48966784256" r="2" style="fill: rgb(0,0,0)" />
	<circle cx="357.2520569747" cy="-448.489667842527" r="2" style="fill: rgb(0,0,0)" />
	<circle cx="83.5846175153837" cy="-348.320432811777" r="2" style="fill: rgb(0,0,0)" />
	<circle cx="133.66923503075" cy="-261.571330597501" r="2" style="fill: rgb(0,0,0)" />
	<circle cx="307.167439459341" cy="-261.571330597508" r="2" style="fill: rgb(0,0,0)" />
	<circle cx="357.252056974708" cy="-348.320432811779" r="2" style="fill: rgb(0,0,0)" />
	<circle cx="44.1131200833446" cy="-562.886893128179" r="2" style="fill: rgb(0,0,0)" />
	<circle cx="75.0671160213724" cy="-467.620289419884" r="2" style="fill: rgb(0,0,0)" />
	<circle cx="161.540338160564" cy="-733.757501604128" r="2" style="fill: rgb(0,0,0)" />
	<circle cx="80.5017247071532" cy="-674.87950251963" r="2" style="fill: rgb(0,0,0)" />
	<circle cx="360.334949782969" cy="-674.879502519624" r="2" style="fill: rgb(0,0,0)" />
	<circle cx="279.296336329569" cy="-733.757501604108" r="2" style="fill: rgb(0,0,0)" />
	<circle cx="365.769558468718" cy="-467.620289419867" r="2" style="fill: rgb(0,0,0)" />
	<circle cx="396.723554406759" cy="-562.886893128147" r="2" style="fill: rgb(0,0,0)" />
	<circle cx="33.5000000000064" cy="-261.571330597497" r="2" style="fill: rgb(0,0,0)" />
	<circle cx="154.495590053907" cy="-163.591033684825" r="2" style="fill: rgb(0,0,0)" />
	<circle cx="254.116087534291" cy="-153.120497480368" r="2" style="fill: rgb(0,0,0)" />
	<circle cx="294.858585930185" cy="-244.629647138254" r="2" style="fill: rgb(0,0,0)" />
	<circle cx="407.336674490092" cy="-261.571330597503" r="2" style="fill: rgb(0,0,0)" />
	<circle cx="64.9394751065208" cy="-660.867190040852" r="2" style="fill: rgb(0,0,0)" />
	<circle cx="70.0311885026756" cy="-774.499999999992" r="2" style="fill: rgb(0,0,0)" />
	<circle cx="261.160835640941" cy="-744.228037808584" r="2" style="fill: rgb(0,0,0)" />
	<circle cx="370.805485987423" cy="-774.5" r="2" style="fill: rgb(0,0,0)" />
	<circle cx="401.077448178835" cy="-583.370352861737" r="2" style="fill: rgb(0,0,0)" />
	<circle cx="33.5" cy="-161.40209556674" r="2" style="fill: rgb(0,0,0)" />
	<circle cx="133.669235030737" cy="-161.40209556674" r="2" style="fill: rgb(0,0,0)" />
	<circle cx="144.025053849447" cy="-63.9705362044491" r="2" style="fill: rgb(0,0,0)" />
	<circle cx="243.645551329819" cy="-53.5" r="2" style="fill: rgb(0,0,0)" />
	<circle cx="345.625237192163" cy="-112.377999084474" r="2" style="fill: rgb(0,0,0)" />
	<circle cx="386.367735588055" cy="-203.88714874236" r="2" style="fill: rgb(0,0,0)" />
	<!--
	Generated using the Perl SVG Module V2.86
	by Ronan Oger
	Info: http://www.roitsystems.com/
	-->
</svg>