<?xml version="1.0" encoding="UTF-8" standalone="yes"?>
<!DOCTYPE svg PUBLIC "-//W3C//DTD SVG 1.0//EN" "http://www.w3.org/TR/2001/REC-SVG-20010904/DTD/svg10.dtd">
<!-- generated using polymake; Michael Joswig, Georg Loho, Benjamin Lorenz, Rico Raber; license CC BY-NC-ND 3.0; see polymake.org and matchthenet.de -->
<svg height="841pt" id="document" viewBox="0 -549.568605527427 572 549.568605527427" width="595pt" xmlns="http://www.w3.org/2000/svg" xmlns:svg="http://www.w3.org/2000/svg" xmlns:xlink="http://www.w3.org/1999/xlink">
	<title id="document_title">planar_net_</title>
	<polygon points="265.720772181002,-279.997809621263 312.532081163167,-279.997809621263 326.997571167594,-324.518010065057 289.12642667209,-352.033007125283 251.255282176581,-324.51801006506 " style="fill: rgb(14,173,105); fill-opacity: 1; stroke: rgb(0,0,0); stroke-width: 3" />
	<polygon points="289.126426672085,-239.458026858305 312.532081163167,-279.997809621263 265.720772181002,-279.997809621263 " style="fill: rgb(14,173,105); fill-opacity: 1; stroke: rgb(0,0,0); stroke-width: 3" />
	<polygon points="251.255282176581,-324.51801006506 246.362167985128,-371.072881798678 199.807296251513,-366.179767607229 204.700410442961,-319.624895873614 " style="fill: rgb(14,173,105); fill-opacity: 1; stroke: rgb(0,0,0); stroke-width: 3" />
	<polygon points="204.700410442961,-319.624895873614 199.807296251513,-366.179767607229 161.936151756002,-338.664770547002 " style="fill: rgb(14,173,105); fill-opacity: 1; stroke: rgb(0,0,0); stroke-width: 3" />
	<polygon points="320.449306235774,-204.670444814383 289.126426672085,-239.458026858305 254.338844628163,-208.135147294616 285.661724191845,-173.347565250696 " style="fill: rgb(14,173,105); fill-opacity: 1; stroke: rgb(0,0,0); stroke-width: 3" />
	<polygon points="326.997571167594,-324.518010065057 312.532081163167,-279.997809621263 358.320450731285,-289.730428021133 " style="fill: rgb(14,173,105); fill-opacity: 1; stroke: rgb(0,0,0); stroke-width: 3" />
	<polygon points="217.263764345449,-410.226243660305 240.669418836537,-450.766026423259 209.346539272852,-485.553608467188 166.582280585888,-466.513733793811 171.475394777337,-419.958862060193 " style="fill: rgb(14,173,105); fill-opacity: 1; stroke: rgb(0,0,0); stroke-width: 3" />
	<polygon points="326.997571167594,-324.518010065057 358.320450731285,-289.730428021133 401.084709418248,-308.770302694521 396.191595226797,-355.325174428137 350.403225658681,-365.057792828015 " style="fill: rgb(14,173,105); fill-opacity: 1; stroke: rgb(0,0,0); stroke-width: 3" />
	<polygon points="257.803547108408,-386.820589169211 281.209201599494,-427.360371932167 240.669418836537,-450.766026423259 217.263764345449,-410.226243660305 " style="fill: rgb(14,173,105); fill-opacity: 1; stroke: rgb(0,0,0); stroke-width: 3" />
	<polygon points="320.449306235774,-204.670444814383 285.661724191845,-173.347565250696 316.984603755528,-138.559983206765 351.772185799456,-169.882862770448 " style="fill: rgb(14,173,105); fill-opacity: 1; stroke: rgb(0,0,0); stroke-width: 3" />
	<polygon points="285.661724191845,-173.347565250696 271.196234187415,-128.827364806898 316.984603755528,-138.559983206765 " style="fill: rgb(14,173,105); fill-opacity: 1; stroke: rgb(0,0,0); stroke-width: 3" />
	<polygon points="358.320450731282,-270.265191221376 363.213564922737,-223.710319487763 401.084709418248,-251.225316547984 " style="fill: rgb(14,173,105); fill-opacity: 1; stroke: rgb(0,0,0); stroke-width: 3" />
	<polygon points="271.196234187415,-128.827364806898 266.303119995954,-82.2724930732843 309.067378682907,-63.2326183998853 340.390258246599,-98.0202004438016 316.984603755528,-138.559983206765 " style="fill: rgb(14,173,105); fill-opacity: 1; stroke: rgb(0,0,0); stroke-width: 3" />
	<polygon points="363.213564922737,-223.710319487763 377.67905492716,-179.190119043966 424.490363909326,-179.190119043959 438.955853913755,-223.710319487754 401.084709418248,-251.225316547984 " style="fill: rgb(14,173,105); fill-opacity: 1; stroke: rgb(0,0,0); stroke-width: 3" />
	<polygon points="281.209201599494,-427.360371932167 304.614856090586,-467.900154695127 264.075073327636,-491.305809186215 240.669418836537,-450.766026423259 " style="fill: rgb(14,173,105); fill-opacity: 1; stroke: rgb(0,0,0); stroke-width: 3" />
	<polygon points="240.669418836537,-450.766026423259 255.134908840971,-495.286226867051 209.346539272852,-485.553608467188 " style="fill: rgb(14,173,105); fill-opacity: 1; stroke: rgb(0,0,0); stroke-width: 3" />
	<polygon points="351.772185799456,-169.882862770448 316.984603755528,-138.559983206765 348.307483319211,-103.772401162833 383.095065363136,-135.095280726513 " style="fill: rgb(14,173,105); fill-opacity: 1; stroke: rgb(0,0,0); stroke-width: 3" />
	<polygon points="396.191595226797,-355.325174428137 401.084709418248,-308.770302694521 438.955853913757,-336.28529975475 " style="fill: rgb(14,173,105); fill-opacity: 1; stroke: rgb(0,0,0); stroke-width: 3" />
	<polygon points="446.873078986369,-411.612664561629 470.278733477446,-371.072881798673 510.818516240415,-394.478536289754 487.412861749339,-435.018319052705 " style="fill: rgb(14,173,105); fill-opacity: 1; stroke: rgb(0,0,0); stroke-width: 3" />
	<polygon points="383.095065363136,-135.095280726513 348.307483319211,-103.772401162833 379.630362882895,-68.9848191188989 414.417944926817,-100.307698682577 " style="fill: rgb(14,173,105); fill-opacity: 1; stroke: rgb(0,0,0); stroke-width: 3" />
	<polygon points="438.955853913755,-223.710319487754 424.490363909326,-179.190119043959 470.278733477441,-188.922737443831 " style="fill: rgb(14,173,105); fill-opacity: 1; stroke: rgb(0,0,0); stroke-width: 3" />
	<polygon points="340.390258246599,-98.0202004438016 309.067378682907,-63.2326183998853 354.855748251021,-53.5 " style="fill: rgb(14,173,105); fill-opacity: 1; stroke: rgb(0,0,0); stroke-width: 3" />
	<polygon points="396.191595226797,-355.325174428137 438.955853913757,-336.28529975475 470.278733477446,-371.072881798673 446.873078986369,-411.612664561629 401.084709418256,-401.880046161751 " style="fill: rgb(14,173,105); fill-opacity: 1; stroke: rgb(0,0,0); stroke-width: 3" />
	<polygon points="487.412861749339,-435.018319052705 510.818516240415,-394.478536289754 556.606885808536,-404.211154689628 561.5,-450.766026423227 518.735741313035,-469.80590109661 " style="fill: rgb(14,173,105); fill-opacity: 1; stroke: rgb(0,0,0); stroke-width: 3" />
	<polygon points="281.209201599494,-427.360371932167 326.997571167603,-417.627753532284 312.53208116319,-462.147953976086 " style="fill: rgb(14,173,105); fill-opacity: 1; stroke: rgb(0,0,0); stroke-width: 3" />
	<polygon points="76.2642586869551,-234.725155253809 71.3711444955154,-281.280026987424 33.5,-253.765029927204 " style="fill: rgb(14,173,105); fill-opacity: 1; stroke: rgb(0,0,0); stroke-width: 3" />
	<polygon points="350.403225658681,-365.057792828015 396.191595226797,-355.325174428137 381.726105222367,-399.845374871933 " style="fill: rgb(14,173,105); fill-opacity: 1; stroke: rgb(0,0,0); stroke-width: 3" />
	<polygon points="166.582280585888,-466.513733793811 209.346539272852,-485.553608467188 171.475394777351,-513.068605527427 " style="fill: rgb(14,173,105); fill-opacity: 1; stroke: rgb(0,0,0); stroke-width: 3" />
	<polygon points="363.213564922737,-223.710319487763 320.449306235774,-204.670444814383 358.320450731277,-177.155447754152 " style="fill: rgb(14,173,105); fill-opacity: 1; stroke: rgb(0,0,0); stroke-width: 3" />
	<polygon points="262.256069700745,-132.807782487747 216.467700132634,-142.540400887623 230.933190137058,-98.0202004438281 " style="fill: rgb(14,173,105); fill-opacity: 1; stroke: rgb(0,0,0); stroke-width: 3" />
	<polygon points="289.12642667209,-352.033007125283 326.997571167594,-324.518010065057 331.890685359052,-371.07288179867 " style="fill: rgb(14,173,105); fill-opacity: 1; stroke: rgb(0,0,0); stroke-width: 3" />
	<polygon points="289.12642667209,-352.033007125283 331.890685359052,-371.07288179867 326.997571167603,-417.627753532284 281.209201599494,-427.360371932167 257.803547108408,-386.820589169211 " style="fill: rgb(14,173,105); fill-opacity: 1; stroke: rgb(0,0,0); stroke-width: 3" />
	<polygon points="145.458282746172,-265.532319616869 159.923772750614,-310.052520060653 114.135403182493,-300.3199016608 " style="fill: rgb(14,173,105); fill-opacity: 1; stroke: rgb(0,0,0); stroke-width: 3" />
	<polygon points="145.458282746172,-265.532319616869 114.135403182493,-300.3199016608 71.3711444955154,-281.280026987424 76.2642586869551,-234.725155253809 122.052628255079,-224.992536853919 " style="fill: rgb(14,173,105); fill-opacity: 1; stroke: rgb(0,0,0); stroke-width: 3" />
	<polygon points="358.320450731282,-270.265191221376 312.532081163167,-279.997809621263 289.126426672085,-239.458026858305 320.449306235774,-204.670444814383 363.213564922737,-223.710319487763 " style="fill: rgb(14,173,105); fill-opacity: 1; stroke: rgb(0,0,0); stroke-width: 3" />
	<polygon points="251.255282176581,-324.51801006506 289.12642667209,-352.033007125283 246.362167985128,-371.072881798678 " style="fill: rgb(14,173,105); fill-opacity: 1; stroke: rgb(0,0,0); stroke-width: 3" />
	<polygon points="183.329427241676,-238.017322556639 145.458282746172,-265.532319616869 140.565168554711,-218.977447883257 " style="fill: rgb(14,173,105); fill-opacity: 1; stroke: rgb(0,0,0); stroke-width: 3" />
	<polygon points="285.661724191845,-173.347565250696 254.338844628163,-208.135147294616 211.574585941198,-189.095272621229 216.467700132634,-142.540400887623 262.256069700745,-132.807782487747 " style="fill: rgb(14,173,105); fill-opacity: 1; stroke: rgb(0,0,0); stroke-width: 3" />
	<polygon points="225.180989418042,-256.59215513018 201.77533492696,-216.052372367217 248.586643909118,-216.052372367225 " style="fill: rgb(14,173,105); fill-opacity: 1; stroke: rgb(0,0,0); stroke-width: 3" />
	<polygon points="221.200571737198,-265.532319616846 206.735081732783,-310.052520060641 159.923772750614,-310.052520060653 145.458282746172,-265.532319616869 183.329427241676,-238.017322556639 " style="fill: rgb(14,173,105); fill-opacity: 1; stroke: rgb(0,0,0); stroke-width: 3" />
	<polygon points="265.720772181002,-279.997809621263 225.180989418042,-256.59215513018 248.586643909118,-216.052372367225 289.126426672085,-239.458026858305 " style="fill: rgb(14,173,105); fill-opacity: 1; stroke: rgb(0,0,0); stroke-width: 3" />
	<polygon points="265.720772181002,-279.997809621263 251.255282176581,-324.51801006506 206.735081732783,-310.052520060641 221.200571737198,-265.532319616846 " style="fill: rgb(14,173,105); fill-opacity: 1; stroke: rgb(0,0,0); stroke-width: 3" />
	<circle cx="265.720772181002" cy="-279.997809621263" r="2" style="fill: rgb(0,0,0)" />
	<circle cx="312.532081163167" cy="-279.997809621263" r="2" style="fill: rgb(0,0,0)" />
	<circle cx="326.997571167594" cy="-324.518010065057" r="2" style="fill: rgb(0,0,0)" />
	<circle cx="289.12642667209" cy="-352.033007125283" r="2" style="fill: rgb(0,0,0)" />
	<circle cx="251.255282176581" cy="-324.51801006506" r="2" style="fill: rgb(0,0,0)" />
	<circle cx="289.126426672085" cy="-239.458026858305" r="2" style="fill: rgb(0,0,0)" />
	<circle cx="358.320450731285" cy="-289.730428021133" r="2" style="fill: rgb(0,0,0)" />
	<circle cx="331.890685359052" cy="-371.07288179867" r="2" style="fill: rgb(0,0,0)" />
	<circle cx="246.362167985128" cy="-371.072881798678" r="2" style="fill: rgb(0,0,0)" />
	<circle cx="206.735081732783" cy="-310.052520060641" r="2" style="fill: rgb(0,0,0)" />
	<circle cx="221.200571737198" cy="-265.532319616846" r="2" style="fill: rgb(0,0,0)" />
	<circle cx="320.449306235774" cy="-204.670444814383" r="2" style="fill: rgb(0,0,0)" />
	<circle cx="363.213564922737" cy="-223.710319487763" r="2" style="fill: rgb(0,0,0)" />
	<circle cx="358.320450731282" cy="-270.265191221376" r="2" style="fill: rgb(0,0,0)" />
	<circle cx="225.180989418042" cy="-256.59215513018" r="2" style="fill: rgb(0,0,0)" />
	<circle cx="248.586643909118" cy="-216.052372367225" r="2" style="fill: rgb(0,0,0)" />
	<circle cx="401.084709418248" cy="-308.770302694521" r="2" style="fill: rgb(0,0,0)" />
	<circle cx="396.191595226797" cy="-355.325174428137" r="2" style="fill: rgb(0,0,0)" />
	<circle cx="350.403225658681" cy="-365.057792828015" r="2" style="fill: rgb(0,0,0)" />
	<circle cx="326.997571167603" cy="-417.627753532284" r="2" style="fill: rgb(0,0,0)" />
	<circle cx="281.209201599494" cy="-427.360371932167" r="2" style="fill: rgb(0,0,0)" />
	<circle cx="257.803547108408" cy="-386.820589169211" r="2" style="fill: rgb(0,0,0)" />
	<circle cx="199.807296251513" cy="-366.179767607229" r="2" style="fill: rgb(0,0,0)" />
	<circle cx="204.700410442961" cy="-319.624895873614" r="2" style="fill: rgb(0,0,0)" />
	<circle cx="159.923772750614" cy="-310.052520060653" r="2" style="fill: rgb(0,0,0)" />
	<circle cx="145.458282746172" cy="-265.532319616869" r="2" style="fill: rgb(0,0,0)" />
	<circle cx="183.329427241676" cy="-238.017322556639" r="2" style="fill: rgb(0,0,0)" />
	<circle cx="254.338844628163" cy="-208.135147294616" r="2" style="fill: rgb(0,0,0)" />
	<circle cx="285.661724191845" cy="-173.347565250696" r="2" style="fill: rgb(0,0,0)" />
	<circle cx="401.084709418248" cy="-251.225316547984" r="2" style="fill: rgb(0,0,0)" />
	<circle cx="358.320450731277" cy="-177.155447754152" r="2" style="fill: rgb(0,0,0)" />
	<circle cx="201.77533492696" cy="-216.052372367217" r="2" style="fill: rgb(0,0,0)" />
	<circle cx="438.955853913757" cy="-336.28529975475" r="2" style="fill: rgb(0,0,0)" />
	<circle cx="381.726105222367" cy="-399.845374871933" r="2" style="fill: rgb(0,0,0)" />
	<circle cx="240.669418836537" cy="-450.766026423259" r="2" style="fill: rgb(0,0,0)" />
	<circle cx="217.263764345449" cy="-410.226243660305" r="2" style="fill: rgb(0,0,0)" />
	<circle cx="312.53208116319" cy="-462.147953976086" r="2" style="fill: rgb(0,0,0)" />
	<circle cx="161.936151756002" cy="-338.664770547002" r="2" style="fill: rgb(0,0,0)" />
	<circle cx="114.135403182493" cy="-300.3199016608" r="2" style="fill: rgb(0,0,0)" />
	<circle cx="140.565168554711" cy="-218.977447883257" r="2" style="fill: rgb(0,0,0)" />
	<circle cx="316.984603755528" cy="-138.559983206765" r="2" style="fill: rgb(0,0,0)" />
	<circle cx="351.772185799456" cy="-169.882862770448" r="2" style="fill: rgb(0,0,0)" />
	<circle cx="211.574585941198" cy="-189.095272621229" r="2" style="fill: rgb(0,0,0)" />
	<circle cx="216.467700132634" cy="-142.540400887623" r="2" style="fill: rgb(0,0,0)" />
	<circle cx="262.256069700745" cy="-132.807782487747" r="2" style="fill: rgb(0,0,0)" />
	<circle cx="377.67905492716" cy="-179.190119043966" r="2" style="fill: rgb(0,0,0)" />
	<circle cx="424.490363909326" cy="-179.190119043959" r="2" style="fill: rgb(0,0,0)" />
	<circle cx="438.955853913755" cy="-223.710319487754" r="2" style="fill: rgb(0,0,0)" />
	<circle cx="470.278733477446" cy="-371.072881798673" r="2" style="fill: rgb(0,0,0)" />
	<circle cx="446.873078986369" cy="-411.612664561629" r="2" style="fill: rgb(0,0,0)" />
	<circle cx="401.084709418256" cy="-401.880046161751" r="2" style="fill: rgb(0,0,0)" />
	<circle cx="209.346539272852" cy="-485.553608467188" r="2" style="fill: rgb(0,0,0)" />
	<circle cx="166.582280585888" cy="-466.513733793811" r="2" style="fill: rgb(0,0,0)" />
	<circle cx="171.475394777337" cy="-419.958862060193" r="2" style="fill: rgb(0,0,0)" />
	<circle cx="304.614856090586" cy="-467.900154695127" r="2" style="fill: rgb(0,0,0)" />
	<circle cx="264.075073327636" cy="-491.305809186215" r="2" style="fill: rgb(0,0,0)" />
	<circle cx="71.3711444955154" cy="-281.280026987424" r="2" style="fill: rgb(0,0,0)" />
	<circle cx="76.2642586869551" cy="-234.725155253809" r="2" style="fill: rgb(0,0,0)" />
	<circle cx="122.052628255079" cy="-224.992536853919" r="2" style="fill: rgb(0,0,0)" />
	<circle cx="271.196234187415" cy="-128.827364806898" r="2" style="fill: rgb(0,0,0)" />
	<circle cx="348.307483319211" cy="-103.772401162833" r="2" style="fill: rgb(0,0,0)" />
	<circle cx="383.095065363136" cy="-135.095280726513" r="2" style="fill: rgb(0,0,0)" />
	<circle cx="230.933190137058" cy="-98.0202004438281" r="2" style="fill: rgb(0,0,0)" />
	<circle cx="470.278733477441" cy="-188.922737443831" r="2" style="fill: rgb(0,0,0)" />
	<circle cx="510.818516240415" cy="-394.478536289754" r="2" style="fill: rgb(0,0,0)" />
	<circle cx="487.412861749339" cy="-435.018319052705" r="2" style="fill: rgb(0,0,0)" />
	<circle cx="255.134908840971" cy="-495.286226867051" r="2" style="fill: rgb(0,0,0)" />
	<circle cx="171.475394777351" cy="-513.068605527427" r="2" style="fill: rgb(0,0,0)" />
	<circle cx="33.5" cy="-253.765029927204" r="2" style="fill: rgb(0,0,0)" />
	<circle cx="266.303119995954" cy="-82.2724930732843" r="2" style="fill: rgb(0,0,0)" />
	<circle cx="309.067378682907" cy="-63.2326183998853" r="2" style="fill: rgb(0,0,0)" />
	<circle cx="340.390258246599" cy="-98.0202004438016" r="2" style="fill: rgb(0,0,0)" />
	<circle cx="379.630362882895" cy="-68.9848191188989" r="2" style="fill: rgb(0,0,0)" />
	<circle cx="414.417944926817" cy="-100.307698682577" r="2" style="fill: rgb(0,0,0)" />
	<circle cx="556.606885808536" cy="-404.211154689628" r="2" style="fill: rgb(0,0,0)" />
	<circle cx="561.5" cy="-450.766026423227" r="2" style="fill: rgb(0,0,0)" />
	<circle cx="518.735741313035" cy="-469.80590109661" r="2" style="fill: rgb(0,0,0)" />
	<circle cx="354.855748251021" cy="-53.5" r="2" style="fill: rgb(0,0,0)" />
	<!--
	Generated using the Perl SVG Module V2.87
	by Ronan Oger

	-->
</svg>