<?xml version="1.0" encoding="UTF-8" standalone="yes"?>
<!DOCTYPE svg PUBLIC "-//W3C//DTD SVG 1.0//EN" "http://www.w3.org/TR/2001/REC-SVG-20010904/DTD/svg10.dtd">
<!-- generated using polymake; Michael Joswig, Georg Loho, Benjamin Lorenz, Rico Raber; license CC BY-NC-ND 3.0; see polymake.org and matchthenet.de -->
<svg height="841pt" id="document" viewBox="0 -811 460.269544085755 811" width="595pt" xmlns="http://www.w3.org/2000/svg" xmlns:svg="http://www.w3.org/2000/svg" xmlns:xlink="http://www.w3.org/1999/xlink">
	<title id="document_title">planar_net_</title>
	<polygon points="185.865227957158,-414.000000000006 297.404316128594,-414.000000000006 241.634772042862,-510.595683871422 " style="fill: rgb(14,173,105); fill-opacity: 1; stroke: rgb(0,0,0); stroke-width: 3" />
	<polygon points="241.63477204289,-317.40431612859 297.404316128594,-414.000000000006 185.865227957158,-414.000000000006 " style="fill: rgb(14,173,105); fill-opacity: 1; stroke: rgb(0,0,0); stroke-width: 3" />
	<polygon points="241.634772042862,-510.595683871422 297.404316128578,-607.191367742849 200.808632257165,-662.960911828558 145.03908817144,-566.365227957133 " style="fill: rgb(14,173,105); fill-opacity: 1; stroke: rgb(0,0,0); stroke-width: 3" />
	<polygon points="185.865227957158,-414.000000000006 241.634772042862,-510.595683871422 145.03908817144,-566.365227957133 89.2695440857335,-469.769544085724 " style="fill: rgb(14,173,105); fill-opacity: 1; stroke: rgb(0,0,0); stroke-width: 3" />
	<polygon points="145.03908817144,-566.365227957133 200.808632257165,-662.960911828558 104.212948385748,-718.730455914285 48.4434043000196,-622.134772042869 " style="fill: rgb(14,173,105); fill-opacity: 1; stroke: rgb(0,0,0); stroke-width: 3" />
	<polygon points="89.2695440857335,-469.769544085724 145.03908817144,-566.365227957133 33.5,-566.365227957133 " style="fill: rgb(14,173,105); fill-opacity: 1; stroke: rgb(0,0,0); stroke-width: 3" />
	<polygon points="89.2695440857443,-358.230455914278 33.5000000000311,-261.634772042858 145.039088171467,-261.634772042866 " style="fill: rgb(14,173,105); fill-opacity: 1; stroke: rgb(0,0,0); stroke-width: 3" />
	<polygon points="145.039088171459,-150.095683871422 145.039088171467,-261.634772042866 33.5000000000311,-261.634772042858 33.5000000000268,-150.095683871417 " style="fill: rgb(14,173,105); fill-opacity: 1; stroke: rgb(0,0,0); stroke-width: 3" />
	<polygon points="145.039088171459,-150.095683871422 33.5000000000268,-150.095683871417 89.2695440857445,-53.5 " style="fill: rgb(14,173,105); fill-opacity: 1; stroke: rgb(0,0,0); stroke-width: 3" />
	<polygon points="200.808632257165,-662.960911828558 200.808632257177,-774.5 104.212948385748,-718.730455914285 " style="fill: rgb(14,173,105); fill-opacity: 1; stroke: rgb(0,0,0); stroke-width: 3" />
	<polygon points="185.865227957158,-414.000000000006 89.2695440857443,-358.230455914278 145.039088171467,-261.634772042866 241.63477204289,-317.40431612859 " style="fill: rgb(14,173,105); fill-opacity: 1; stroke: rgb(0,0,0); stroke-width: 3" />
	<polygon points="297.404316128606,-220.808632257161 241.63477204289,-317.40431612859 145.039088171467,-261.634772042866 200.808632257186,-165.039088171441 " style="fill: rgb(14,173,105); fill-opacity: 1; stroke: rgb(0,0,0); stroke-width: 3" />
	<polygon points="297.404316128606,-220.808632257161 200.808632257186,-165.039088171441 256.578176342903,-68.4434043000172 353.173860214315,-124.21294838573 " style="fill: rgb(14,173,105); fill-opacity: 1; stroke: rgb(0,0,0); stroke-width: 3" />
	<polygon points="297.404316128578,-607.191367742849 353.173860214297,-703.787051614271 256.578176342898,-759.556595699976 200.808632257165,-662.960911828558 " style="fill: rgb(14,173,105); fill-opacity: 1; stroke: rgb(0,0,0); stroke-width: 3" />
	<polygon points="338.230455914283,-566.365227957147 394.000000000009,-469.769544085734 449.769544085721,-566.365227957155 " style="fill: rgb(14,173,105); fill-opacity: 1; stroke: rgb(0,0,0); stroke-width: 3" />
	<polygon points="394.00000000002,-358.230455914288 338.230455914314,-261.634772042879 449.769544085755,-261.63477204288 " style="fill: rgb(14,173,105); fill-opacity: 1; stroke: rgb(0,0,0); stroke-width: 3" />
	<polygon points="394.00000000002,-358.230455914288 297.404316128594,-414.000000000006 241.63477204289,-317.40431612859 338.230455914314,-261.634772042879 " style="fill: rgb(14,173,105); fill-opacity: 1; stroke: rgb(0,0,0); stroke-width: 3" />
	<polygon points="241.634772042862,-510.595683871422 297.404316128594,-414.000000000006 394.000000000009,-469.769544085734 338.230455914283,-566.365227957147 " style="fill: rgb(14,173,105); fill-opacity: 1; stroke: rgb(0,0,0); stroke-width: 3" />
	<circle cx="185.865227957158" cy="-414.000000000006" r="2" style="fill: rgb(0,0,0)" />
	<circle cx="297.404316128594" cy="-414.000000000006" r="2" style="fill: rgb(0,0,0)" />
	<circle cx="241.634772042862" cy="-510.595683871422" r="2" style="fill: rgb(0,0,0)" />
	<circle cx="241.63477204289" cy="-317.40431612859" r="2" style="fill: rgb(0,0,0)" />
	<circle cx="145.03908817144" cy="-566.365227957133" r="2" style="fill: rgb(0,0,0)" />
	<circle cx="89.2695440857335" cy="-469.769544085724" r="2" style="fill: rgb(0,0,0)" />
	<circle cx="394.000000000009" cy="-469.769544085734" r="2" style="fill: rgb(0,0,0)" />
	<circle cx="338.230455914283" cy="-566.365227957147" r="2" style="fill: rgb(0,0,0)" />
	<circle cx="89.2695440857443" cy="-358.230455914278" r="2" style="fill: rgb(0,0,0)" />
	<circle cx="145.039088171467" cy="-261.634772042866" r="2" style="fill: rgb(0,0,0)" />
	<circle cx="338.230455914314" cy="-261.634772042879" r="2" style="fill: rgb(0,0,0)" />
	<circle cx="394.00000000002" cy="-358.230455914288" r="2" style="fill: rgb(0,0,0)" />
	<circle cx="297.404316128578" cy="-607.191367742849" r="2" style="fill: rgb(0,0,0)" />
	<circle cx="200.808632257165" cy="-662.960911828558" r="2" style="fill: rgb(0,0,0)" />
	<circle cx="33.5" cy="-566.365227957133" r="2" style="fill: rgb(0,0,0)" />
	<circle cx="449.769544085721" cy="-566.365227957155" r="2" style="fill: rgb(0,0,0)" />
	<circle cx="33.5000000000311" cy="-261.634772042858" r="2" style="fill: rgb(0,0,0)" />
	<circle cx="200.808632257186" cy="-165.039088171441" r="2" style="fill: rgb(0,0,0)" />
	<circle cx="297.404316128606" cy="-220.808632257161" r="2" style="fill: rgb(0,0,0)" />
	<circle cx="449.769544085755" cy="-261.63477204288" r="2" style="fill: rgb(0,0,0)" />
	<circle cx="104.212948385748" cy="-718.730455914285" r="2" style="fill: rgb(0,0,0)" />
	<circle cx="48.4434043000196" cy="-622.134772042869" r="2" style="fill: rgb(0,0,0)" />
	<circle cx="353.173860214297" cy="-703.787051614271" r="2" style="fill: rgb(0,0,0)" />
	<circle cx="256.578176342898" cy="-759.556595699976" r="2" style="fill: rgb(0,0,0)" />
	<circle cx="33.5000000000268" cy="-150.095683871417" r="2" style="fill: rgb(0,0,0)" />
	<circle cx="145.039088171459" cy="-150.095683871422" r="2" style="fill: rgb(0,0,0)" />
	<circle cx="256.578176342903" cy="-68.4434043000172" r="2" style="fill: rgb(0,0,0)" />
	<circle cx="353.173860214315" cy="-124.21294838573" r="2" style="fill: rgb(0,0,0)" />
	<circle cx="200.808632257177" cy="-774.5" r="2" style="fill: rgb(0,0,0)" />
	<circle cx="89.2695440857445" cy="-53.5" r="2" style="fill: rgb(0,0,0)" />
	<!--
	Generated using the Perl SVG Module V2.84
	by Ronan Oger
	Info: http://www.roitsystems.com/
	-->
</svg>