<?xml version="1.0" encoding="UTF-8" standalone="yes"?>
<!DOCTYPE svg PUBLIC "-//W3C//DTD SVG 1.0//EN" "http://www.w3.org/TR/2001/REC-SVG-20010904/DTD/svg10.dtd">
<!-- generated using polymake; Michael Joswig, Georg Loho, Benjamin Lorenz, Rico Raber; license CC BY-NC-ND 3.0; see polymake.org and matchthenet.de -->
<svg height="841pt" id="document" viewBox="0 -450.99119098863 572 450.99119098863" width="595pt" xmlns="http://www.w3.org/2000/svg" xmlns:svg="http://www.w3.org/2000/svg" xmlns:xlink="http://www.w3.org/1999/xlink">
	<title id="document_title">planar_net_</title>
	<polygon points="284.740759060194,-206.610891277709 335.777722819422,-206.610891277709 310.259240939808,-250.810198425226 " style="fill: rgb(14,173,105); fill-opacity: 1; stroke: rgb(0,0,0); stroke-width: 3" />
	<polygon points="335.777722819417,-155.573927518477 335.777722819422,-206.610891277709 284.740759060194,-206.610891277709 284.740759060193,-155.57392751848 " style="fill: rgb(14,173,105); fill-opacity: 1; stroke: rgb(0,0,0); stroke-width: 3" />
	<polygon points="379.977029966941,-181.092409398083 335.777722819422,-206.610891277709 335.777722819417,-155.573927518477 " style="fill: rgb(14,173,105); fill-opacity: 1; stroke: rgb(0,0,0); stroke-width: 3" />
	<polygon points="284.740759060194,-206.610891277709 240.541451912677,-181.092409398096 284.740759060193,-155.57392751848 " style="fill: rgb(14,173,105); fill-opacity: 1; stroke: rgb(0,0,0); stroke-width: 3" />
	<polygon points="379.977029966941,-181.092409398083 335.777722819417,-155.573927518477 361.296204699021,-111.374620370951 405.495511846541,-136.893102250546 " style="fill: rgb(14,173,105); fill-opacity: 1; stroke: rgb(0,0,0); stroke-width: 3" />
	<polygon points="429.274951357357,-218.920034932227 385.075644209839,-193.401553052613 429.274951357357,-167.883071172999 " style="fill: rgb(14,173,105); fill-opacity: 1; stroke: rgb(0,0,0); stroke-width: 3" />
	<polygon points="335.777722819417,-155.573927518477 284.740759060193,-155.57392751848 284.740759060191,-104.53696375925 335.777722819409,-104.536963759241 " style="fill: rgb(14,173,105); fill-opacity: 1; stroke: rgb(0,0,0); stroke-width: 3" />
	<polygon points="240.541451912677,-181.092409398096 215.022970033059,-136.893102250579 259.22227718057,-111.374620370962 284.740759060193,-155.57392751848 " style="fill: rgb(14,173,105); fill-opacity: 1; stroke: rgb(0,0,0); stroke-width: 3" />
	<polygon points="235.442837669777,-193.401553052613 191.24353052226,-218.920034932227 191.243530522259,-167.883071172999 " style="fill: rgb(14,173,105); fill-opacity: 1; stroke: rgb(0,0,0); stroke-width: 3" />
	<polygon points="504.091354627389,-161.511389559615 454.793433236972,-174.72072778471 468.002771462076,-125.42280639429 " style="fill: rgb(14,173,105); fill-opacity: 1; stroke: rgb(0,0,0); stroke-width: 3" />
	<polygon points="335.777722819398,-53.5 335.777722819409,-104.536963759241 284.740759060191,-104.53696375925 284.740759060188,-53.5000000000181 " style="fill: rgb(14,173,105); fill-opacity: 1; stroke: rgb(0,0,0); stroke-width: 3" />
	<polygon points="165.725048642647,-174.720727784709 116.427127252229,-161.511389559614 152.515710417559,-125.422806394294 " style="fill: rgb(14,173,105); fill-opacity: 1; stroke: rgb(0,0,0); stroke-width: 3" />
	<polygon points="72.2278201047114,-187.029871439229 72.2278201047098,-135.992907680001 116.427127252229,-161.511389559614 " style="fill: rgb(14,173,105); fill-opacity: 1; stroke: rgb(0,0,0); stroke-width: 3" />
	<polygon points="33.5,-280.527099977164 59.0184818796156,-236.327792829647 84.5369637592292,-280.527099977164 " style="fill: rgb(14,173,105); fill-opacity: 1; stroke: rgb(0,0,0); stroke-width: 3" />
	<polygon points="84.5369637592292,-280.527099977164 133.834885149647,-293.736438202259 97.7463019843159,-329.825021367579 " style="fill: rgb(14,173,105); fill-opacity: 1; stroke: rgb(0,0,0); stroke-width: 3" />
	<polygon points="33.5,-280.527099977164 84.5369637592292,-280.527099977164 84.536963759229,-331.564063736394 33.5000000000064,-331.564063736396 " style="fill: rgb(14,173,105); fill-opacity: 1; stroke: rgb(0,0,0); stroke-width: 3" />
	<polygon points="486.683596729968,-293.736438202258 535.981518120385,-280.527099977162 522.772179895282,-329.825021367582 " style="fill: rgb(14,173,105); fill-opacity: 1; stroke: rgb(0,0,0); stroke-width: 3" />
	<polygon points="191.24353052226,-218.920034932227 178.034192297165,-268.217956322645 133.834885149647,-293.736438202259 84.5369637592292,-280.527099977164 59.0184818796156,-236.327792829647 72.2278201047114,-187.029871439229 116.427127252229,-161.511389559614 165.725048642647,-174.720727784709 " style="fill: rgb(14,173,105); fill-opacity: 1; stroke: rgb(0,0,0); stroke-width: 3" />
	<polygon points="442.484289582452,-268.217956322644 429.274951357357,-218.920034932227 454.793433236972,-174.72072778471 504.091354627389,-161.511389559615 548.290661774906,-187.029871439228 561.5,-236.327792829645 535.981518120385,-280.527099977162 486.683596729968,-293.736438202258 " style="fill: rgb(14,173,105); fill-opacity: 1; stroke: rgb(0,0,0); stroke-width: 3" />
	<polygon points="178.034192297165,-268.217956322645 203.552674176779,-312.417263470162 152.51571041755,-312.417263470163 " style="fill: rgb(14,173,105); fill-opacity: 1; stroke: rgb(0,0,0); stroke-width: 3" />
	<polygon points="203.552674176779,-312.417263470162 203.552674176779,-363.454227229392 152.515710417556,-363.454227229394 152.51571041755,-312.417263470163 " style="fill: rgb(14,173,105); fill-opacity: 1; stroke: rgb(0,0,0); stroke-width: 3" />
	<polygon points="203.552674176781,-414.491190988622 152.515710417563,-414.49119098863 152.515710417556,-363.454227229394 203.552674176779,-363.454227229392 " style="fill: rgb(14,173,105); fill-opacity: 1; stroke: rgb(0,0,0); stroke-width: 3" />
	<polygon points="416.965807702838,-312.417263470161 442.484289582452,-268.217956322644 468.002771462067,-312.417263470162 " style="fill: rgb(14,173,105); fill-opacity: 1; stroke: rgb(0,0,0); stroke-width: 3" />
	<polygon points="416.965807702838,-312.417263470161 468.002771462067,-312.417263470162 468.002771462069,-363.454227229392 416.965807702842,-363.454227229393 " style="fill: rgb(14,173,105); fill-opacity: 1; stroke: rgb(0,0,0); stroke-width: 3" />
	<polygon points="203.552674176779,-312.417263470162 252.850595567196,-325.626601695257 216.762012401865,-361.715184860577 " style="fill: rgb(14,173,105); fill-opacity: 1; stroke: rgb(0,0,0); stroke-width: 3" />
	<polygon points="367.66788631242,-325.626601695257 416.965807702838,-312.417263470161 403.756469477734,-361.715184860581 " style="fill: rgb(14,173,105); fill-opacity: 1; stroke: rgb(0,0,0); stroke-width: 3" />
	<polygon points="288.939178732514,-361.715184860586 252.850595567188,-397.803768025906 216.762012401865,-361.715184860577 252.850595567196,-325.626601695257 " style="fill: rgb(14,173,105); fill-opacity: 1; stroke: rgb(0,0,0); stroke-width: 3" />
	<polygon points="297.049902714713,-300.108119815644 297.049902714713,-351.145083574872 252.850595567196,-325.626601695257 " style="fill: rgb(14,173,105); fill-opacity: 1; stroke: rgb(0,0,0); stroke-width: 3" />
	<polygon points="284.740759060194,-206.610891277709 310.259240939808,-250.810198425226 297.049902714713,-300.108119815644 252.850595567196,-325.626601695257 203.552674176779,-312.417263470162 178.034192297165,-268.217956322645 191.24353052226,-218.920034932227 235.442837669777,-193.401553052613 " style="fill: rgb(14,173,105); fill-opacity: 1; stroke: rgb(0,0,0); stroke-width: 3" />
	<polygon points="310.259240939808,-250.810198425226 335.777722819422,-206.610891277709 385.075644209839,-193.401553052613 429.274951357357,-218.920034932227 442.484289582452,-268.217956322644 416.965807702838,-312.417263470161 367.66788631242,-325.626601695257 323.468579164903,-300.108119815643 " style="fill: rgb(14,173,105); fill-opacity: 1; stroke: rgb(0,0,0); stroke-width: 3" />
	<circle cx="284.740759060194" cy="-206.610891277709" r="2" style="fill: rgb(0,0,0)" />
	<circle cx="335.777722819422" cy="-206.610891277709" r="2" style="fill: rgb(0,0,0)" />
	<circle cx="310.259240939808" cy="-250.810198425226" r="2" style="fill: rgb(0,0,0)" />
	<circle cx="284.740759060193" cy="-155.57392751848" r="2" style="fill: rgb(0,0,0)" />
	<circle cx="335.777722819417" cy="-155.573927518477" r="2" style="fill: rgb(0,0,0)" />
	<circle cx="297.049902714713" cy="-300.108119815644" r="2" style="fill: rgb(0,0,0)" />
	<circle cx="252.850595567196" cy="-325.626601695257" r="2" style="fill: rgb(0,0,0)" />
	<circle cx="203.552674176779" cy="-312.417263470162" r="2" style="fill: rgb(0,0,0)" />
	<circle cx="178.034192297165" cy="-268.217956322645" r="2" style="fill: rgb(0,0,0)" />
	<circle cx="191.24353052226" cy="-218.920034932227" r="2" style="fill: rgb(0,0,0)" />
	<circle cx="235.442837669777" cy="-193.401553052613" r="2" style="fill: rgb(0,0,0)" />
	<circle cx="385.075644209839" cy="-193.401553052613" r="2" style="fill: rgb(0,0,0)" />
	<circle cx="429.274951357357" cy="-218.920034932227" r="2" style="fill: rgb(0,0,0)" />
	<circle cx="442.484289582452" cy="-268.217956322644" r="2" style="fill: rgb(0,0,0)" />
	<circle cx="416.965807702838" cy="-312.417263470161" r="2" style="fill: rgb(0,0,0)" />
	<circle cx="367.66788631242" cy="-325.626601695257" r="2" style="fill: rgb(0,0,0)" />
	<circle cx="323.468579164903" cy="-300.108119815643" r="2" style="fill: rgb(0,0,0)" />
	<circle cx="379.977029966941" cy="-181.092409398083" r="2" style="fill: rgb(0,0,0)" />
	<circle cx="240.541451912677" cy="-181.092409398096" r="2" style="fill: rgb(0,0,0)" />
	<circle cx="284.740759060191" cy="-104.53696375925" r="2" style="fill: rgb(0,0,0)" />
	<circle cx="335.777722819409" cy="-104.536963759241" r="2" style="fill: rgb(0,0,0)" />
	<circle cx="191.243530522259" cy="-167.883071172999" r="2" style="fill: rgb(0,0,0)" />
	<circle cx="133.834885149647" cy="-293.736438202259" r="2" style="fill: rgb(0,0,0)" />
	<circle cx="84.5369637592292" cy="-280.527099977164" r="2" style="fill: rgb(0,0,0)" />
	<circle cx="59.0184818796156" cy="-236.327792829647" r="2" style="fill: rgb(0,0,0)" />
	<circle cx="72.2278201047114" cy="-187.029871439229" r="2" style="fill: rgb(0,0,0)" />
	<circle cx="116.427127252229" cy="-161.511389559614" r="2" style="fill: rgb(0,0,0)" />
	<circle cx="165.725048642647" cy="-174.720727784709" r="2" style="fill: rgb(0,0,0)" />
	<circle cx="152.51571041755" cy="-312.417263470163" r="2" style="fill: rgb(0,0,0)" />
	<circle cx="216.762012401865" cy="-361.715184860577" r="2" style="fill: rgb(0,0,0)" />
	<circle cx="297.049902714713" cy="-351.145083574872" r="2" style="fill: rgb(0,0,0)" />
	<circle cx="429.274951357357" cy="-167.883071172999" r="2" style="fill: rgb(0,0,0)" />
	<circle cx="454.793433236972" cy="-174.72072778471" r="2" style="fill: rgb(0,0,0)" />
	<circle cx="504.091354627389" cy="-161.511389559615" r="2" style="fill: rgb(0,0,0)" />
	<circle cx="548.290661774906" cy="-187.029871439228" r="2" style="fill: rgb(0,0,0)" />
	<circle cx="561.5" cy="-236.327792829645" r="2" style="fill: rgb(0,0,0)" />
	<circle cx="535.981518120385" cy="-280.527099977162" r="2" style="fill: rgb(0,0,0)" />
	<circle cx="486.683596729968" cy="-293.736438202258" r="2" style="fill: rgb(0,0,0)" />
	<circle cx="468.002771462067" cy="-312.417263470162" r="2" style="fill: rgb(0,0,0)" />
	<circle cx="403.756469477734" cy="-361.715184860581" r="2" style="fill: rgb(0,0,0)" />
	<circle cx="361.296204699021" cy="-111.374620370951" r="2" style="fill: rgb(0,0,0)" />
	<circle cx="405.495511846541" cy="-136.893102250546" r="2" style="fill: rgb(0,0,0)" />
	<circle cx="215.022970033059" cy="-136.893102250579" r="2" style="fill: rgb(0,0,0)" />
	<circle cx="259.22227718057" cy="-111.374620370962" r="2" style="fill: rgb(0,0,0)" />
	<circle cx="284.740759060188" cy="-53.5000000000181" r="2" style="fill: rgb(0,0,0)" />
	<circle cx="335.777722819398" cy="-53.5" r="2" style="fill: rgb(0,0,0)" />
	<circle cx="152.515710417559" cy="-125.422806394294" r="2" style="fill: rgb(0,0,0)" />
	<circle cx="72.2278201047098" cy="-135.992907680001" r="2" style="fill: rgb(0,0,0)" />
	<circle cx="33.5" cy="-280.527099977164" r="2" style="fill: rgb(0,0,0)" />
	<circle cx="97.7463019843159" cy="-329.825021367579" r="2" style="fill: rgb(0,0,0)" />
	<circle cx="203.552674176779" cy="-363.454227229392" r="2" style="fill: rgb(0,0,0)" />
	<circle cx="152.515710417556" cy="-363.454227229394" r="2" style="fill: rgb(0,0,0)" />
	<circle cx="288.939178732514" cy="-361.715184860586" r="2" style="fill: rgb(0,0,0)" />
	<circle cx="252.850595567188" cy="-397.803768025906" r="2" style="fill: rgb(0,0,0)" />
	<circle cx="468.002771462076" cy="-125.42280639429" r="2" style="fill: rgb(0,0,0)" />
	<circle cx="522.772179895282" cy="-329.825021367582" r="2" style="fill: rgb(0,0,0)" />
	<circle cx="468.002771462069" cy="-363.454227229392" r="2" style="fill: rgb(0,0,0)" />
	<circle cx="416.965807702842" cy="-363.454227229393" r="2" style="fill: rgb(0,0,0)" />
	<circle cx="84.536963759229" cy="-331.564063736394" r="2" style="fill: rgb(0,0,0)" />
	<circle cx="33.5000000000064" cy="-331.564063736396" r="2" style="fill: rgb(0,0,0)" />
	<circle cx="203.552674176781" cy="-414.491190988622" r="2" style="fill: rgb(0,0,0)" />
	<circle cx="152.515710417563" cy="-414.49119098863" r="2" style="fill: rgb(0,0,0)" />
	<!--
	Generated using the Perl SVG Module V2.86
	by Ronan Oger
	Info: http://www.roitsystems.com/
	-->
</svg>