<?xml version="1.0" encoding="UTF-8" standalone="yes"?>
<!DOCTYPE svg PUBLIC "-//W3C//DTD SVG 1.0//EN" "http://www.w3.org/TR/2001/REC-SVG-20010904/DTD/svg10.dtd">
<!-- generated using polymake; Michael Joswig, Georg Loho, Benjamin Lorenz, Rico Raber; license CC BY-NC-ND 3.0; see polymake.org and matchthenet.de -->
<svg height="841pt" id="document" viewBox="0 -633.384387633032 572 633.384387633032" width="595pt" xmlns="http://www.w3.org/2000/svg" xmlns:svg="http://www.w3.org/2000/svg" xmlns:xlink="http://www.w3.org/1999/xlink">
	<title id="document_title">planar_net_</title>
	<polygon points="190.361561236708,-325.192193816512 347.223122473389,-325.192193816512 268.792341855039,-461.038290724773 " style="fill: rgb(14,173,105); fill-opacity: 1; stroke: rgb(0,0,0); stroke-width: 3" />
	<polygon points="268.792341855046,-189.346096908251 347.223122473389,-325.192193816512 190.361561236708,-325.192193816512 " style="fill: rgb(14,173,105); fill-opacity: 1; stroke: rgb(0,0,0); stroke-width: 3" />
	<polygon points="111.930780618357,-461.038290724764 190.361561236686,-596.884387633028 33.5,-596.884387633025 " style="fill: rgb(14,173,105); fill-opacity: 1; stroke: rgb(0,0,0); stroke-width: 3" />
	<polygon points="190.36156123669,-53.5 268.792341855046,-189.346096908251 111.930780618352,-189.346096908266 " style="fill: rgb(14,173,105); fill-opacity: 1; stroke: rgb(0,0,0); stroke-width: 3" />
	<polygon points="190.361561236708,-325.192193816512 111.930780618352,-189.346096908266 268.792341855046,-189.346096908251 " style="fill: rgb(14,173,105); fill-opacity: 1; stroke: rgb(0,0,0); stroke-width: 3" />
	<polygon points="190.361561236708,-325.192193816512 268.792341855039,-461.038290724773 111.930780618357,-461.038290724764 " style="fill: rgb(14,173,105); fill-opacity: 1; stroke: rgb(0,0,0); stroke-width: 3" />
	<polygon points="111.930780618357,-461.038290724764 268.792341855039,-461.038290724773 190.361561236686,-596.884387633028 " style="fill: rgb(14,173,105); fill-opacity: 1; stroke: rgb(0,0,0); stroke-width: 3" />
	<polygon points="268.792341855039,-461.038290724773 425.653903091729,-461.038290724771 347.223122473379,-596.884387633032 " style="fill: rgb(14,173,105); fill-opacity: 1; stroke: rgb(0,0,0); stroke-width: 3" />
	<polygon points="483.069219381644,-246.761413198172 404.638438763308,-110.915316289905 561.5,-110.915316289925 " style="fill: rgb(14,173,105); fill-opacity: 1; stroke: rgb(0,0,0); stroke-width: 3" />
	<polygon points="268.792341855039,-461.038290724773 347.223122473389,-325.192193816512 425.653903091729,-461.038290724771 " style="fill: rgb(14,173,105); fill-opacity: 1; stroke: rgb(0,0,0); stroke-width: 3" />
	<polygon points="483.069219381644,-246.761413198172 347.223122473389,-325.192193816512 268.792341855046,-189.346096908251 404.638438763308,-110.915316289905 " style="fill: rgb(67,184,206); fill-opacity: 1; stroke: rgb(0,0,0); stroke-width: 3" />
	<circle cx="190.361561236708" cy="-325.192193816512" r="2" style="fill: rgb(0,0,0)" />
	<circle cx="347.223122473389" cy="-325.192193816512" r="2" style="fill: rgb(0,0,0)" />
	<circle cx="268.792341855039" cy="-461.038290724773" r="2" style="fill: rgb(0,0,0)" />
	<circle cx="268.792341855046" cy="-189.346096908251" r="2" style="fill: rgb(0,0,0)" />
	<circle cx="111.930780618357" cy="-461.038290724764" r="2" style="fill: rgb(0,0,0)" />
	<circle cx="425.653903091729" cy="-461.038290724771" r="2" style="fill: rgb(0,0,0)" />
	<circle cx="111.930780618352" cy="-189.346096908266" r="2" style="fill: rgb(0,0,0)" />
	<circle cx="404.638438763308" cy="-110.915316289905" r="2" style="fill: rgb(0,0,0)" />
	<circle cx="483.069219381644" cy="-246.761413198172" r="2" style="fill: rgb(0,0,0)" />
	<circle cx="190.361561236686" cy="-596.884387633028" r="2" style="fill: rgb(0,0,0)" />
	<circle cx="347.223122473379" cy="-596.884387633032" r="2" style="fill: rgb(0,0,0)" />
	<circle cx="190.36156123669" cy="-53.5" r="2" style="fill: rgb(0,0,0)" />
	<circle cx="561.5" cy="-110.915316289925" r="2" style="fill: rgb(0,0,0)" />
	<circle cx="33.5" cy="-596.884387633025" r="2" style="fill: rgb(0,0,0)" />
	<!--
	Generated using the Perl SVG Module V2.87
	by Ronan Oger

	-->
</svg>