<?xml version="1.0" encoding="UTF-8" standalone="yes"?>
<!DOCTYPE svg PUBLIC "-//W3C//DTD SVG 1.0//EN" "http://www.w3.org/TR/2001/REC-SVG-20010904/DTD/svg10.dtd">
<!-- generated using polymake; Michael Joswig, Georg Loho, Benjamin Lorenz, Rico Raber; license CC BY-NC-ND 3.0; see polymake.org and matchthenet.de -->
<svg height="841pt" id="document" viewBox="0 -478.685001555846 572 478.685001555846" width="595pt" xmlns="http://www.w3.org/2000/svg" xmlns:svg="http://www.w3.org/2000/svg" xmlns:xlink="http://www.w3.org/1999/xlink">
	<title id="document_title">planar_net_</title>
	<polygon points="281.73501903329,-243.896356896706 340.643856868025,-243.896356896706 340.643856868028,-302.805194731445 281.735019033302,-302.805194731453 " style="fill: rgb(216,176,92); fill-opacity: 1; stroke: rgb(0,0,0); stroke-width: 3" />
	<polygon points="311.189437950657,-192.879806824407 340.643856868025,-243.896356896706 281.73501903329,-243.896356896706 " style="fill: rgb(186,59,38); fill-opacity: 1; stroke: rgb(0,0,0); stroke-width: 3" />
	<polygon points="281.73501903329,-243.896356896706 281.735019033302,-302.805194731453 230.718468960997,-273.350775814096 " style="fill: rgb(186,59,38); fill-opacity: 1; stroke: rgb(0,0,0); stroke-width: 3" />
	<polygon points="230.718468960997,-273.350775814096 281.735019033302,-302.805194731453 230.718468961009,-332.259613648832 " style="fill: rgb(186,59,38); fill-opacity: 1; stroke: rgb(0,0,0); stroke-width: 3" />
	<polygon points="230.718468960997,-273.350775814096 230.718468961009,-332.259613648832 179.701918888704,-302.805194731466 " style="fill: rgb(186,59,38); fill-opacity: 1; stroke: rgb(0,0,0); stroke-width: 3" />
	<polygon points="281.735019033302,-302.805194731453 340.643856868028,-302.805194731445 311.189437950663,-353.821744803747 " style="fill: rgb(186,59,38); fill-opacity: 1; stroke: rgb(0,0,0); stroke-width: 3" />
	<polygon points="281.735019033302,-302.805194731453 311.189437950663,-353.821744803747 252.280600115927,-353.821744803744 " style="fill: rgb(186,59,38); fill-opacity: 1; stroke: rgb(0,0,0); stroke-width: 3" />
	<polygon points="340.643856868028,-302.805194731445 340.643856868025,-243.896356896706 396.669490958127,-225.692524886892 431.295237067077,-273.350775814068 396.66949095813,-321.00902674125 " style="fill: rgb(61,81,50); fill-opacity: 1; stroke: rgb(0,0,0); stroke-width: 3" />
	<polygon points="230.718468961009,-332.259613648832 201.264050043643,-383.276163721138 150.247499971343,-353.821744803775 179.701918888704,-302.805194731466 " style="fill: rgb(216,176,92); fill-opacity: 1; stroke: rgb(0,0,0); stroke-width: 3" />
	<polygon points="502.913870942647,-184.909128486183 468.288124833694,-137.250877559008 526.874253891042,-131.093227267259 " style="fill: rgb(186,59,38); fill-opacity: 1; stroke: rgb(0,0,0); stroke-width: 3" />
	<polygon points="502.913870942647,-184.909128486183 444.327741885304,-191.066778777939 468.288124833694,-137.250877559008 " style="fill: rgb(186,59,38); fill-opacity: 1; stroke: rgb(0,0,0); stroke-width: 3" />
	<polygon points="431.295237067077,-273.350775814068 396.669490958127,-225.692524886892 444.327741885304,-191.066778777939 478.953487994252,-238.725029705106 " style="fill: rgb(216,176,92); fill-opacity: 1; stroke: rgb(0,0,0); stroke-width: 3" />
	<polygon points="33.5,-209.270610787868 68.1257461089283,-161.612359860679 115.783997036126,-196.238105969607 81.1582509271936,-243.896356896798 " style="fill: rgb(216,176,92); fill-opacity: 1; stroke: rgb(0,0,0); stroke-width: 3" />
	<polygon points="68.1257461089978,-326.180353932929 33.5000000000348,-278.52210300578 81.1582509271936,-243.896356896798 115.78399703616,-291.554607823956 " style="fill: rgb(216,176,92); fill-opacity: 1; stroke: rgb(0,0,0); stroke-width: 3" />
	<polygon points="201.264050043643,-383.276163721138 150.247499971347,-412.73058263851 150.247499971343,-353.821744803775 " style="fill: rgb(186,59,38); fill-opacity: 1; stroke: rgb(0,0,0); stroke-width: 3" />
	<polygon points="478.953487994252,-238.725029705106 502.913870942647,-184.909128486183 537.539617051594,-232.567379413361 " style="fill: rgb(186,59,38); fill-opacity: 1; stroke: rgb(0,0,0); stroke-width: 3" />
	<polygon points="431.295237067077,-273.350775814068 478.953487994252,-238.725029705106 485.111138286015,-297.311158762448 " style="fill: rgb(186,59,38); fill-opacity: 1; stroke: rgb(0,0,0); stroke-width: 3" />
	<polygon points="362.20598802298,-383.27616372111 421.114825857718,-383.276163721102 391.66040694035,-434.292713793401 " style="fill: rgb(186,59,38); fill-opacity: 1; stroke: rgb(0,0,0); stroke-width: 3" />
	<polygon points="444.327741885318,-355.634772850192 502.913870942661,-361.792423141939 468.288124833716,-409.450674069119 " style="fill: rgb(186,59,38); fill-opacity: 1; stroke: rgb(0,0,0); stroke-width: 3" />
	<polygon points="502.913870942661,-361.792423141939 478.95348799426,-307.976521923013 537.539617051604,-314.134172214758 " style="fill: rgb(186,59,38); fill-opacity: 1; stroke: rgb(0,0,0); stroke-width: 3" />
	<polygon points="444.327741885318,-355.634772850192 478.95348799426,-307.976521923013 502.913870942661,-361.792423141939 " style="fill: rgb(186,59,38); fill-opacity: 1; stroke: rgb(0,0,0); stroke-width: 3" />
	<polygon points="485.111138286015,-297.311158762448 478.953487994252,-238.725029705106 532.769389213186,-262.685412653489 " style="fill: rgb(186,59,38); fill-opacity: 1; stroke: rgb(0,0,0); stroke-width: 3" />
	<polygon points="502.913870942661,-361.792423141939 537.539617051604,-314.134172214758 561.5,-367.950073433691 " style="fill: rgb(186,59,38); fill-opacity: 1; stroke: rgb(0,0,0); stroke-width: 3" />
	<polygon points="391.660406940334,-332.259613648809 421.114825857718,-383.276163721102 362.20598802298,-383.27616372111 " style="fill: rgb(186,59,38); fill-opacity: 1; stroke: rgb(0,0,0); stroke-width: 3" />
	<polygon points="396.66949095813,-321.00902674125 431.295237067077,-273.350775814068 478.95348799426,-307.976521923013 444.327741885318,-355.634772850192 " style="fill: rgb(216,176,92); fill-opacity: 1; stroke: rgb(0,0,0); stroke-width: 3" />
	<polygon points="311.189437950688,-412.73058263849 362.20598802298,-383.27616372111 362.205988022994,-442.185001555846 " style="fill: rgb(186,59,38); fill-opacity: 1; stroke: rgb(0,0,0); stroke-width: 3" />
	<polygon points="478.953487994252,-238.725029705106 444.327741885304,-191.066778777939 502.913870942647,-184.909128486183 " style="fill: rgb(186,59,38); fill-opacity: 1; stroke: rgb(0,0,0); stroke-width: 3" />
	<polygon points="311.189437950663,-353.821744803747 362.20598802298,-383.27616372111 311.189437950688,-412.73058263849 " style="fill: rgb(186,59,38); fill-opacity: 1; stroke: rgb(0,0,0); stroke-width: 3" />
	<polygon points="340.643856868028,-302.805194731445 391.660406940334,-332.259613648809 362.20598802298,-383.27616372111 311.189437950663,-353.821744803747 " style="fill: rgb(216,176,92); fill-opacity: 1; stroke: rgb(0,0,0); stroke-width: 3" />
	<polygon points="252.280600115927,-353.821744803744 311.189437950663,-353.821744803747 281.735019033295,-404.838294876046 " style="fill: rgb(186,59,38); fill-opacity: 1; stroke: rgb(0,0,0); stroke-width: 3" />
	<polygon points="171.809631126233,-214.441937979389 171.809631126257,-273.35077581412 115.78399703616,-291.554607823956 81.1582509271936,-243.896356896798 115.783997036126,-196.238105969607 " style="fill: rgb(61,81,50); fill-opacity: 1; stroke: rgb(0,0,0); stroke-width: 3" />
	<polygon points="421.114825857694,-163.425387907034 362.205988022959,-163.425387907036 391.660406940327,-112.408837834737 " style="fill: rgb(186,59,38); fill-opacity: 1; stroke: rgb(0,0,0); stroke-width: 3" />
	<polygon points="391.660406940326,-214.44193797933 362.205988022959,-163.425387907036 421.114825857694,-163.425387907034 " style="fill: rgb(186,59,38); fill-opacity: 1; stroke: rgb(0,0,0); stroke-width: 3" />
	<polygon points="362.205988022959,-163.425387907036 311.189437950655,-133.970968989672 362.205988022952,-104.516550072299 " style="fill: rgb(186,59,38); fill-opacity: 1; stroke: rgb(0,0,0); stroke-width: 3" />
	<polygon points="362.205988022952,-104.516550072299 311.189437950655,-133.970968989672 281.735019033282,-82.9544189173707 332.751569105571,-53.5 " style="fill: rgb(216,176,92); fill-opacity: 1; stroke: rgb(0,0,0); stroke-width: 3" />
	<polygon points="362.205988022959,-163.425387907036 311.189437950657,-192.879806824407 311.189437950655,-133.970968989672 " style="fill: rgb(186,59,38); fill-opacity: 1; stroke: rgb(0,0,0); stroke-width: 3" />
	<polygon points="391.660406940326,-214.44193797933 340.643856868025,-243.896356896706 311.189437950657,-192.879806824407 362.205988022959,-163.425387907036 " style="fill: rgb(216,176,92); fill-opacity: 1; stroke: rgb(0,0,0); stroke-width: 3" />
	<polygon points="252.280600115922,-192.879806824407 222.826181198559,-141.863256752101 281.73501903329,-141.863256752109 " style="fill: rgb(186,59,38); fill-opacity: 1; stroke: rgb(0,0,0); stroke-width: 3" />
	<polygon points="281.73501903329,-141.863256752109 311.189437950657,-192.879806824407 252.280600115922,-192.879806824407 " style="fill: rgb(186,59,38); fill-opacity: 1; stroke: rgb(0,0,0); stroke-width: 3" />
	<polygon points="281.73501903329,-243.896356896706 230.718468960997,-273.350775814096 230.718468960975,-214.44193797936 " style="fill: rgb(186,59,38); fill-opacity: 1; stroke: rgb(0,0,0); stroke-width: 3" />
	<polygon points="281.73501903329,-243.896356896706 252.280600115922,-192.879806824407 311.189437950657,-192.879806824407 " style="fill: rgb(186,59,38); fill-opacity: 1; stroke: rgb(0,0,0); stroke-width: 3" />
	<polygon points="230.718468960975,-214.44193797936 230.718468960997,-273.350775814096 171.809631126257,-273.35077581412 171.809631126233,-214.441937979389 " style="fill: rgb(216,176,92); fill-opacity: 1; stroke: rgb(0,0,0); stroke-width: 3" />
	<circle cx="281.73501903329" cy="-243.896356896706" r="2" style="fill: rgb(0,0,0)" />
	<circle cx="340.643856868025" cy="-243.896356896706" r="2" style="fill: rgb(0,0,0)" />
	<circle cx="340.643856868028" cy="-302.805194731445" r="2" style="fill: rgb(0,0,0)" />
	<circle cx="281.735019033302" cy="-302.805194731453" r="2" style="fill: rgb(0,0,0)" />
	<circle cx="311.189437950657" cy="-192.879806824407" r="2" style="fill: rgb(0,0,0)" />
	<circle cx="230.718468960997" cy="-273.350775814096" r="2" style="fill: rgb(0,0,0)" />
	<circle cx="311.189437950663" cy="-353.821744803747" r="2" style="fill: rgb(0,0,0)" />
	<circle cx="396.669490958127" cy="-225.692524886892" r="2" style="fill: rgb(0,0,0)" />
	<circle cx="431.295237067077" cy="-273.350775814068" r="2" style="fill: rgb(0,0,0)" />
	<circle cx="396.66949095813" cy="-321.00902674125" r="2" style="fill: rgb(0,0,0)" />
	<circle cx="362.205988022959" cy="-163.425387907036" r="2" style="fill: rgb(0,0,0)" />
	<circle cx="391.660406940326" cy="-214.44193797933" r="2" style="fill: rgb(0,0,0)" />
	<circle cx="252.280600115922" cy="-192.879806824407" r="2" style="fill: rgb(0,0,0)" />
	<circle cx="230.718468961009" cy="-332.259613648832" r="2" style="fill: rgb(0,0,0)" />
	<circle cx="230.718468960975" cy="-214.44193797936" r="2" style="fill: rgb(0,0,0)" />
	<circle cx="252.280600115927" cy="-353.821744803744" r="2" style="fill: rgb(0,0,0)" />
	<circle cx="391.660406940334" cy="-332.259613648809" r="2" style="fill: rgb(0,0,0)" />
	<circle cx="362.20598802298" cy="-383.27616372111" r="2" style="fill: rgb(0,0,0)" />
	<circle cx="444.327741885304" cy="-191.066778777939" r="2" style="fill: rgb(0,0,0)" />
	<circle cx="478.953487994252" cy="-238.725029705106" r="2" style="fill: rgb(0,0,0)" />
	<circle cx="478.95348799426" cy="-307.976521923013" r="2" style="fill: rgb(0,0,0)" />
	<circle cx="444.327741885318" cy="-355.634772850192" r="2" style="fill: rgb(0,0,0)" />
	<circle cx="421.114825857694" cy="-163.425387907034" r="2" style="fill: rgb(0,0,0)" />
	<circle cx="311.189437950655" cy="-133.970968989672" r="2" style="fill: rgb(0,0,0)" />
	<circle cx="281.73501903329" cy="-141.863256752109" r="2" style="fill: rgb(0,0,0)" />
	<circle cx="179.701918888704" cy="-302.805194731466" r="2" style="fill: rgb(0,0,0)" />
	<circle cx="171.809631126257" cy="-273.35077581412" r="2" style="fill: rgb(0,0,0)" />
	<circle cx="171.809631126233" cy="-214.441937979389" r="2" style="fill: rgb(0,0,0)" />
	<circle cx="281.735019033295" cy="-404.838294876046" r="2" style="fill: rgb(0,0,0)" />
	<circle cx="421.114825857718" cy="-383.276163721102" r="2" style="fill: rgb(0,0,0)" />
	<circle cx="311.189437950688" cy="-412.73058263849" r="2" style="fill: rgb(0,0,0)" />
	<circle cx="485.111138286015" cy="-297.311158762448" r="2" style="fill: rgb(0,0,0)" />
	<circle cx="502.913870942647" cy="-184.909128486183" r="2" style="fill: rgb(0,0,0)" />
	<circle cx="502.913870942661" cy="-361.792423141939" r="2" style="fill: rgb(0,0,0)" />
	<circle cx="391.660406940327" cy="-112.408837834737" r="2" style="fill: rgb(0,0,0)" />
	<circle cx="362.205988022952" cy="-104.516550072299" r="2" style="fill: rgb(0,0,0)" />
	<circle cx="222.826181198559" cy="-141.863256752101" r="2" style="fill: rgb(0,0,0)" />
	<circle cx="201.264050043643" cy="-383.276163721138" r="2" style="fill: rgb(0,0,0)" />
	<circle cx="150.247499971343" cy="-353.821744803775" r="2" style="fill: rgb(0,0,0)" />
	<circle cx="115.78399703616" cy="-291.554607823956" r="2" style="fill: rgb(0,0,0)" />
	<circle cx="81.1582509271936" cy="-243.896356896798" r="2" style="fill: rgb(0,0,0)" />
	<circle cx="115.783997036126" cy="-196.238105969607" r="2" style="fill: rgb(0,0,0)" />
	<circle cx="391.66040694035" cy="-434.292713793401" r="2" style="fill: rgb(0,0,0)" />
	<circle cx="362.205988022994" cy="-442.185001555846" r="2" style="fill: rgb(0,0,0)" />
	<circle cx="532.769389213186" cy="-262.685412653489" r="2" style="fill: rgb(0,0,0)" />
	<circle cx="468.288124833694" cy="-137.250877559008" r="2" style="fill: rgb(0,0,0)" />
	<circle cx="537.539617051594" cy="-232.567379413361" r="2" style="fill: rgb(0,0,0)" />
	<circle cx="468.288124833716" cy="-409.450674069119" r="2" style="fill: rgb(0,0,0)" />
	<circle cx="537.539617051604" cy="-314.134172214758" r="2" style="fill: rgb(0,0,0)" />
	<circle cx="281.735019033282" cy="-82.9544189173707" r="2" style="fill: rgb(0,0,0)" />
	<circle cx="332.751569105571" cy="-53.5" r="2" style="fill: rgb(0,0,0)" />
	<circle cx="150.247499971347" cy="-412.73058263851" r="2" style="fill: rgb(0,0,0)" />
	<circle cx="33.5" cy="-209.270610787868" r="2" style="fill: rgb(0,0,0)" />
	<circle cx="68.1257461089283" cy="-161.612359860679" r="2" style="fill: rgb(0,0,0)" />
	<circle cx="68.1257461089978" cy="-326.180353932929" r="2" style="fill: rgb(0,0,0)" />
	<circle cx="33.5000000000348" cy="-278.52210300578" r="2" style="fill: rgb(0,0,0)" />
	<circle cx="526.874253891042" cy="-131.093227267259" r="2" style="fill: rgb(0,0,0)" />
	<circle cx="561.5" cy="-367.950073433691" r="2" style="fill: rgb(0,0,0)" />
	<!--
	Generated using the Perl SVG Module V2.86
	by Ronan Oger
	Info: http://www.roitsystems.com/
	-->
</svg>