<?xml version="1.0" encoding="UTF-8" standalone="yes"?>
<!DOCTYPE svg PUBLIC "-//W3C//DTD SVG 1.0//EN" "http://www.w3.org/TR/2001/REC-SVG-20010904/DTD/svg10.dtd">
<!-- generated using polymake; Michael Joswig, Georg Loho, Benjamin Lorenz, Rico Raber; license CC BY-NC-SA 3.0; see polymake.org and matchthenet.de -->
<svg height="841pt" id="document" viewBox="0 -499.712018625267 572 499.712018625267" width="595pt" xmlns="http://www.w3.org/2000/svg" xmlns:svg="http://www.w3.org/2000/svg" xmlns:xlink="http://www.w3.org/1999/xlink">
	<title id="document_title">planar_net_</title>
	<polygon points="289.679303170269,-222.092587523517 351.388473093624,-222.092587523517 351.388473093627,-283.801757446875 289.679303170276,-283.801757446879 " style="fill: rgb(14,173,105); fill-opacity: 1; stroke: rgb(0,0,0); stroke-width: 3" />
	<polygon points="289.679303170269,-222.092587523517 320.533888131945,-168.650878723437 351.388473093624,-222.092587523517 " style="fill: rgb(14,173,105); fill-opacity: 1; stroke: rgb(0,0,0); stroke-width: 3" />
	<polygon points="382.2430580553,-168.650878723437 351.388473093624,-222.092587523517 320.533888131945,-168.650878723437 " style="fill: rgb(14,173,105); fill-opacity: 1; stroke: rgb(0,0,0); stroke-width: 3" />
	<polygon points="382.2430580553,-168.650878723437 320.533888131945,-168.650878723437 351.388473093623,-115.209169923361 " style="fill: rgb(14,173,105); fill-opacity: 1; stroke: rgb(0,0,0); stroke-width: 3" />
	<polygon points="413.097643016982,-115.209169923369 382.2430580553,-168.650878723437 351.388473093623,-115.209169923361 " style="fill: rgb(14,173,105); fill-opacity: 1; stroke: rgb(0,0,0); stroke-width: 3" />
	<polygon points="289.679303170269,-222.092587523517 236.237594370187,-191.238002561843 267.092179331851,-137.796293761766 320.533888131945,-168.650878723437 " style="fill: rgb(14,173,105); fill-opacity: 1; stroke: rgb(0,0,0); stroke-width: 3" />
	<polygon points="320.533888131945,-168.650878723437 267.092179331851,-137.796293761766 320.53388813192,-106.941708800076 " style="fill: rgb(14,173,105); fill-opacity: 1; stroke: rgb(0,0,0); stroke-width: 3" />
	<polygon points="466.539351817065,-252.947172485182 466.53935181706,-191.238002561832 525.228259987838,-172.168820346738 561.5,-222.092587523494 525.228259987837,-272.01635470026 " style="fill: rgb(14,173,105); fill-opacity: 1; stroke: rgb(0,0,0); stroke-width: 3" />
	<polygon points="320.53388813192,-106.941708800076 267.092179331851,-137.796293761766 267.092179331837,-76.0871238384104 " style="fill: rgb(14,173,105); fill-opacity: 1; stroke: rgb(0,0,0); stroke-width: 3" />
	<polygon points="236.237594370187,-191.238002561843 205.383009408494,-137.796293761773 267.092179331851,-137.796293761766 " style="fill: rgb(14,173,105); fill-opacity: 1; stroke: rgb(0,0,0); stroke-width: 3" />
	<polygon points="267.092179331851,-137.796293761766 205.383009408494,-137.796293761773 236.237594370172,-84.3545849616963 " style="fill: rgb(14,173,105); fill-opacity: 1; stroke: rgb(0,0,0); stroke-width: 3" />
	<polygon points="230.990394999505,-302.870939661976 237.440759701126,-364.242060295756 181.066627822741,-339.142679674143 " style="fill: rgb(14,173,105); fill-opacity: 1; stroke: rgb(0,0,0); stroke-width: 3" />
	<polygon points="181.066627822741,-339.142679674143 237.440759701126,-364.242060295756 187.516992524366,-400.513800307922 " style="fill: rgb(14,173,105); fill-opacity: 1; stroke: rgb(0,0,0); stroke-width: 3" />
	<polygon points="194.718654987339,-252.94717248521 230.990394999505,-302.870939661976 181.066627822741,-339.142679674143 144.794887810577,-289.218912497384 " style="fill: rgb(14,173,105); fill-opacity: 1; stroke: rgb(0,0,0); stroke-width: 3" />
	<polygon points="181.066627822711,-166.751665296285 119.695507188931,-160.301300594689 155.967247201077,-110.377533417914 " style="fill: rgb(14,173,105); fill-opacity: 1; stroke: rgb(0,0,0); stroke-width: 3" />
	<polygon points="83.4237671767993,-295.669277199002 119.695507188964,-345.593044375763 58.3243865551811,-352.043409077374 " style="fill: rgb(14,173,105); fill-opacity: 1; stroke: rgb(0,0,0); stroke-width: 3" />
	<polygon points="181.066627822711,-166.751665296285 144.794887810564,-216.67543247306 119.695507188931,-160.301300594689 " style="fill: rgb(14,173,105); fill-opacity: 1; stroke: rgb(0,0,0); stroke-width: 3" />
	<polygon points="119.695507188931,-160.301300594689 144.794887810564,-216.67543247306 83.423767176784,-210.225067771463 " style="fill: rgb(14,173,105); fill-opacity: 1; stroke: rgb(0,0,0); stroke-width: 3" />
	<polygon points="144.794887810577,-289.218912497384 119.695507188964,-345.593044375763 83.4237671767993,-295.669277199002 " style="fill: rgb(14,173,105); fill-opacity: 1; stroke: rgb(0,0,0); stroke-width: 3" />
	<polygon points="138.344523108951,-227.847791863607 144.794887810577,-289.218912497384 88.4207559321936,-264.119531875778 " style="fill: rgb(14,173,105); fill-opacity: 1; stroke: rgb(0,0,0); stroke-width: 3" />
	<polygon points="144.794887810577,-289.218912497384 181.066627822741,-339.142679674143 119.695507188964,-345.593044375763 " style="fill: rgb(14,173,105); fill-opacity: 1; stroke: rgb(0,0,0); stroke-width: 3" />
	<polygon points="194.718654987339,-252.94717248521 144.794887810577,-289.218912497384 138.344523108951,-227.847791863607 " style="fill: rgb(14,173,105); fill-opacity: 1; stroke: rgb(0,0,0); stroke-width: 3" />
	<polygon points="119.695507188964,-345.593044375763 181.066627822741,-339.142679674143 155.96724720113,-395.516811552523 " style="fill: rgb(14,173,105); fill-opacity: 1; stroke: rgb(0,0,0); stroke-width: 3" />
	<polygon points="155.967247201077,-110.377533417914 119.695507188931,-160.301300594689 94.5961265673025,-103.927168716311 " style="fill: rgb(14,173,105); fill-opacity: 1; stroke: rgb(0,0,0); stroke-width: 3" />
	<polygon points="33.5,-173.953327759316 69.7717400121456,-124.029560582544 119.695507188931,-160.301300594689 83.423767176784,-210.225067771463 " style="fill: rgb(14,173,105); fill-opacity: 1; stroke: rgb(0,0,0); stroke-width: 3" />
	<polygon points="230.990394999493,-203.023405308434 194.718654987339,-252.94717248521 144.794887810564,-216.67543247306 181.066627822711,-166.751665296285 " style="fill: rgb(14,173,105); fill-opacity: 1; stroke: rgb(0,0,0); stroke-width: 3" />
	<polygon points="106.043480024364,-431.788551564698 69.7717400122012,-381.864784387939 119.695507188964,-345.593044375763 155.96724720113,-395.516811552523 " style="fill: rgb(14,173,105); fill-opacity: 1; stroke: rgb(0,0,0); stroke-width: 3" />
	<polygon points="250.059577214613,-361.559847832749 295.918427527662,-402.851342121458 237.229519356893,-421.920524336554 " style="fill: rgb(14,173,105); fill-opacity: 1; stroke: rgb(0,0,0); stroke-width: 3" />
	<polygon points="295.918427527662,-402.851342121458 283.088369669936,-463.212018625267 237.229519356893,-421.920524336554 " style="fill: rgb(14,173,105); fill-opacity: 1; stroke: rgb(0,0,0); stroke-width: 3" />
	<polygon points="413.097643016982,-115.209169923369 351.388473093623,-115.209169923361 351.388473093623,-53.5 413.097643016974,-53.5000000000079 " style="fill: rgb(14,173,105); fill-opacity: 1; stroke: rgb(0,0,0); stroke-width: 3" />
	<polygon points="289.679303170269,-222.092587523517 289.679303170276,-283.801757446879 230.990394999505,-302.870939661976 194.718654987339,-252.94717248521 230.990394999493,-203.023405308434 " style="fill: rgb(14,173,105); fill-opacity: 1; stroke: rgb(0,0,0); stroke-width: 3" />
	<polygon points="250.059577214613,-361.559847832749 308.748485385375,-342.49066561765 295.918427527662,-402.851342121458 " style="fill: rgb(14,173,105); fill-opacity: 1; stroke: rgb(0,0,0); stroke-width: 3" />
	<polygon points="289.679303170276,-283.801757446879 308.748485385375,-342.49066561765 250.059577214613,-361.559847832749 230.990394999505,-302.870939661976 " style="fill: rgb(14,173,105); fill-opacity: 1; stroke: rgb(0,0,0); stroke-width: 3" />
	<polygon points="320.53388813195,-337.243466246951 382.243058055305,-337.243466246951 351.388473093628,-390.685175047028 " style="fill: rgb(14,173,105); fill-opacity: 1; stroke: rgb(0,0,0); stroke-width: 3" />
	<polygon points="382.243058055305,-337.243466246951 435.684766855387,-368.098051208633 404.830181893713,-421.539760008704 351.388473093628,-390.685175047028 " style="fill: rgb(14,173,105); fill-opacity: 1; stroke: rgb(0,0,0); stroke-width: 3" />
	<polygon points="289.679303170276,-283.801757446879 351.388473093627,-283.801757446875 320.53388813195,-337.243466246951 " style="fill: rgb(14,173,105); fill-opacity: 1; stroke: rgb(0,0,0); stroke-width: 3" />
	<polygon points="320.53388813195,-337.243466246951 351.388473093627,-283.801757446875 382.243058055305,-337.243466246951 " style="fill: rgb(14,173,105); fill-opacity: 1; stroke: rgb(0,0,0); stroke-width: 3" />
	<polygon points="404.830181893707,-314.656342408547 404.830181893702,-252.947172485192 458.271890693781,-283.801757446874 " style="fill: rgb(14,173,105); fill-opacity: 1; stroke: rgb(0,0,0); stroke-width: 3" />
	<polygon points="351.388473093627,-283.801757446875 404.830181893702,-252.947172485192 404.830181893707,-314.656342408547 " style="fill: rgb(14,173,105); fill-opacity: 1; stroke: rgb(0,0,0); stroke-width: 3" />
	<polygon points="404.830181893702,-252.947172485192 351.388473093624,-222.092587523517 404.830181893699,-191.238002561837 " style="fill: rgb(14,173,105); fill-opacity: 1; stroke: rgb(0,0,0); stroke-width: 3" />
	<polygon points="351.388473093627,-283.801757446875 351.388473093624,-222.092587523517 404.830181893702,-252.947172485192 " style="fill: rgb(14,173,105); fill-opacity: 1; stroke: rgb(0,0,0); stroke-width: 3" />
	<polygon points="404.830181893702,-252.947172485192 404.830181893699,-191.238002561837 466.53935181706,-191.238002561832 466.539351817065,-252.947172485182 " style="fill: rgb(14,173,105); fill-opacity: 1; stroke: rgb(0,0,0); stroke-width: 3" />
	<circle cx="289.679303170269" cy="-222.092587523517" r="2" style="fill: rgb(0,0,0)" />
	<circle cx="351.388473093624" cy="-222.092587523517" r="2" style="fill: rgb(0,0,0)" />
	<circle cx="351.388473093627" cy="-283.801757446875" r="2" style="fill: rgb(0,0,0)" />
	<circle cx="289.679303170276" cy="-283.801757446879" r="2" style="fill: rgb(0,0,0)" />
	<circle cx="320.533888131945" cy="-168.650878723437" r="2" style="fill: rgb(0,0,0)" />
	<circle cx="230.990394999505" cy="-302.870939661976" r="2" style="fill: rgb(0,0,0)" />
	<circle cx="194.718654987339" cy="-252.94717248521" r="2" style="fill: rgb(0,0,0)" />
	<circle cx="230.990394999493" cy="-203.023405308434" r="2" style="fill: rgb(0,0,0)" />
	<circle cx="320.53388813195" cy="-337.243466246951" r="2" style="fill: rgb(0,0,0)" />
	<circle cx="404.830181893702" cy="-252.947172485192" r="2" style="fill: rgb(0,0,0)" />
	<circle cx="382.2430580553" cy="-168.650878723437" r="2" style="fill: rgb(0,0,0)" />
	<circle cx="236.237594370187" cy="-191.238002561843" r="2" style="fill: rgb(0,0,0)" />
	<circle cx="267.092179331851" cy="-137.796293761766" r="2" style="fill: rgb(0,0,0)" />
	<circle cx="181.066627822741" cy="-339.142679674143" r="2" style="fill: rgb(0,0,0)" />
	<circle cx="144.794887810577" cy="-289.218912497384" r="2" style="fill: rgb(0,0,0)" />
	<circle cx="144.794887810564" cy="-216.67543247306" r="2" style="fill: rgb(0,0,0)" />
	<circle cx="181.066627822711" cy="-166.751665296285" r="2" style="fill: rgb(0,0,0)" />
	<circle cx="308.748485385375" cy="-342.49066561765" r="2" style="fill: rgb(0,0,0)" />
	<circle cx="250.059577214613" cy="-361.559847832749" r="2" style="fill: rgb(0,0,0)" />
	<circle cx="382.243058055305" cy="-337.243466246951" r="2" style="fill: rgb(0,0,0)" />
	<circle cx="404.830181893707" cy="-314.656342408547" r="2" style="fill: rgb(0,0,0)" />
	<circle cx="404.830181893699" cy="-191.238002561837" r="2" style="fill: rgb(0,0,0)" />
	<circle cx="351.388473093623" cy="-115.209169923361" r="2" style="fill: rgb(0,0,0)" />
	<circle cx="320.53388813192" cy="-106.941708800076" r="2" style="fill: rgb(0,0,0)" />
	<circle cx="205.383009408494" cy="-137.796293761773" r="2" style="fill: rgb(0,0,0)" />
	<circle cx="237.440759701126" cy="-364.242060295756" r="2" style="fill: rgb(0,0,0)" />
	<circle cx="119.695507188964" cy="-345.593044375763" r="2" style="fill: rgb(0,0,0)" />
	<circle cx="138.344523108951" cy="-227.847791863607" r="2" style="fill: rgb(0,0,0)" />
	<circle cx="119.695507188931" cy="-160.301300594689" r="2" style="fill: rgb(0,0,0)" />
	<circle cx="295.918427527662" cy="-402.851342121458" r="2" style="fill: rgb(0,0,0)" />
	<circle cx="351.388473093628" cy="-390.685175047028" r="2" style="fill: rgb(0,0,0)" />
	<circle cx="458.271890693781" cy="-283.801757446874" r="2" style="fill: rgb(0,0,0)" />
	<circle cx="466.53935181706" cy="-191.238002561832" r="2" style="fill: rgb(0,0,0)" />
	<circle cx="466.539351817065" cy="-252.947172485182" r="2" style="fill: rgb(0,0,0)" />
	<circle cx="413.097643016982" cy="-115.209169923369" r="2" style="fill: rgb(0,0,0)" />
	<circle cx="267.092179331837" cy="-76.0871238384104" r="2" style="fill: rgb(0,0,0)" />
	<circle cx="236.237594370172" cy="-84.3545849616963" r="2" style="fill: rgb(0,0,0)" />
	<circle cx="187.516992524366" cy="-400.513800307922" r="2" style="fill: rgb(0,0,0)" />
	<circle cx="83.4237671767993" cy="-295.669277199002" r="2" style="fill: rgb(0,0,0)" />
	<circle cx="155.96724720113" cy="-395.516811552523" r="2" style="fill: rgb(0,0,0)" />
	<circle cx="88.4207559321936" cy="-264.119531875778" r="2" style="fill: rgb(0,0,0)" />
	<circle cx="155.967247201077" cy="-110.377533417914" r="2" style="fill: rgb(0,0,0)" />
	<circle cx="83.423767176784" cy="-210.225067771463" r="2" style="fill: rgb(0,0,0)" />
	<circle cx="237.229519356893" cy="-421.920524336554" r="2" style="fill: rgb(0,0,0)" />
	<circle cx="435.684766855387" cy="-368.098051208633" r="2" style="fill: rgb(0,0,0)" />
	<circle cx="404.830181893713" cy="-421.539760008704" r="2" style="fill: rgb(0,0,0)" />
	<circle cx="525.228259987838" cy="-172.168820346738" r="2" style="fill: rgb(0,0,0)" />
	<circle cx="561.5" cy="-222.092587523494" r="2" style="fill: rgb(0,0,0)" />
	<circle cx="525.228259987837" cy="-272.01635470026" r="2" style="fill: rgb(0,0,0)" />
	<circle cx="351.388473093623" cy="-53.5" r="2" style="fill: rgb(0,0,0)" />
	<circle cx="413.097643016974" cy="-53.5000000000079" r="2" style="fill: rgb(0,0,0)" />
	<circle cx="58.3243865551811" cy="-352.043409077374" r="2" style="fill: rgb(0,0,0)" />
	<circle cx="106.043480024364" cy="-431.788551564698" r="2" style="fill: rgb(0,0,0)" />
	<circle cx="69.7717400122012" cy="-381.864784387939" r="2" style="fill: rgb(0,0,0)" />
	<circle cx="94.5961265673025" cy="-103.927168716311" r="2" style="fill: rgb(0,0,0)" />
	<circle cx="33.5" cy="-173.953327759316" r="2" style="fill: rgb(0,0,0)" />
	<circle cx="69.7717400121456" cy="-124.029560582544" r="2" style="fill: rgb(0,0,0)" />
	<circle cx="283.088369669936" cy="-463.212018625267" r="2" style="fill: rgb(0,0,0)" />
	<!-- 
	Generated using the Perl SVG Module V2.64
	by Ronan Oger
	Info: http://www.roitsystems.com/
 -->
</svg>