<?xml version="1.0" encoding="UTF-8" standalone="yes"?>
<!DOCTYPE svg PUBLIC "-//W3C//DTD SVG 1.0//EN" "http://www.w3.org/TR/2001/REC-SVG-20010904/DTD/svg10.dtd">
<!-- generated using polymake; Michael Joswig, Georg Loho, Benjamin Lorenz, Rico Raber; license CC BY-NC-ND 3.0; see polymake.org and matchthenet.de -->
<svg height="841pt" id="document" viewBox="0 -554.491875384211 572 554.491875384211" width="595pt" xmlns="http://www.w3.org/2000/svg" xmlns:svg="http://www.w3.org/2000/svg" xmlns:xlink="http://www.w3.org/1999/xlink">
	<title id="document_title">planar_net_</title>
	<polygon points="183.295464785715,-285.745937692098 274.962248122054,-285.745937692098 314.487701731137,-368.453480783573 213.98187600537,-382.474133558147 " style="fill: rgb(14,173,105); fill-opacity: 1; stroke: rgb(0,0,0); stroke-width: 3" />
	<polygon points="314.487701731127,-203.03839460061 274.962248122054,-285.745937692098 183.295464785715,-285.745937692098 213.981876005371,-189.017741826045 " style="fill: rgb(14,173,105); fill-opacity: 1; stroke: rgb(0,0,0); stroke-width: 3" />
	<polygon points="314.487701731137,-368.453480783573 274.962248122054,-285.745937692098 332.543369757556,-214.421232305887 388.53041227064,-299.058403688682 " style="fill: rgb(14,173,105); fill-opacity: 1; stroke: rgb(0,0,0); stroke-width: 3" />
	<polygon points="183.295464785715,-285.745937692098 213.98187600537,-382.474133558147 185.887361605988,-414.697579478762 114.578761066055,-310.703708931358 " style="fill: rgb(14,173,105); fill-opacity: 1; stroke: rgb(0,0,0); stroke-width: 3" />
	<polygon points="213.98187600537,-382.474133558147 314.487701731137,-368.453480783573 321.598924805375,-441.215464138315 197.021821775394,-421.717078998722 " style="fill: rgb(14,173,105); fill-opacity: 1; stroke: rgb(0,0,0); stroke-width: 3" />
	<polygon points="183.295464785715,-285.745937692098 114.578761066049,-260.788166452843 185.887361605979,-156.794295905441 213.981876005371,-189.017741826045 " style="fill: rgb(14,173,105); fill-opacity: 1; stroke: rgb(0,0,0); stroke-width: 3" />
	<polygon points="314.487701731127,-203.03839460061 213.981876005371,-189.017741826045 197.021821775383,-149.774796385472 321.598924805348,-130.276411245871 " style="fill: rgb(14,173,105); fill-opacity: 1; stroke: rgb(0,0,0); stroke-width: 3" />
	<polygon points="314.487701731137,-368.453480783573 388.53041227064,-299.058403688682 429.718401312912,-310.512737584182 366.635869816616,-419.69257016517 " style="fill: rgb(14,173,105); fill-opacity: 1; stroke: rgb(0,0,0); stroke-width: 3" />
	<polygon points="388.53041227064,-299.058403688682 332.543369757556,-214.421232305887 395.127550713915,-176.631074733459 431.250809945861,-297.43981516582 " style="fill: rgb(14,173,105); fill-opacity: 1; stroke: rgb(0,0,0); stroke-width: 3" />
	<polygon points="114.578761066055,-310.703708931358 185.887361605988,-414.697579478762 145.704552830533,-429.291896360727 66.5342743573666,-365.809089904772 " style="fill: rgb(14,173,105); fill-opacity: 1; stroke: rgb(0,0,0); stroke-width: 3" />
	<polygon points="197.021821775394,-421.717078998722 321.598924805375,-441.215464138315 292.595501274093,-508.324905640926 201.180183592592,-464.265407207158 " style="fill: rgb(14,173,105); fill-opacity: 1; stroke: rgb(0,0,0); stroke-width: 3" />
	<polygon points="114.578761066049,-260.788166452843 66.5342743573528,-205.682785479429 145.704552830523,-142.199979023485 185.887361605979,-156.794295905441 " style="fill: rgb(14,173,105); fill-opacity: 1; stroke: rgb(0,0,0); stroke-width: 3" />
	<polygon points="321.598924805348,-130.276411245871 197.021821775383,-149.774796385472 201.180183592576,-107.226468177029 292.595501274054,-63.1669697432729 " style="fill: rgb(14,173,105); fill-opacity: 1; stroke: rgb(0,0,0); stroke-width: 3" />
	<polygon points="366.635869816616,-419.69257016517 429.718401312912,-310.512737584182 460.212586172507,-340.475329195808 437.071534372624,-439.280650057782 " style="fill: rgb(14,173,105); fill-opacity: 1; stroke: rgb(0,0,0); stroke-width: 3" />
	<polygon points="431.250809945861,-297.43981516582 395.127550713915,-176.631074733459 468.183790416805,-173.863123180087 467.847562112505,-275.341626615888 " style="fill: rgb(14,173,105); fill-opacity: 1; stroke: rgb(0,0,0); stroke-width: 3" />
	<polygon points="145.704552830533,-429.291896360727 96.4063436310416,-517.991875384211 33.5000000000177,-451.316609368944 66.5342743573666,-365.809089904772 " style="fill: rgb(14,173,105); fill-opacity: 1; stroke: rgb(0,0,0); stroke-width: 3" />
	<polygon points="66.5342743573528,-205.682785479429 33.5,-120.175266015252 96.4063436310264,-53.5 145.704552830523,-142.199979023485 " style="fill: rgb(14,173,105); fill-opacity: 1; stroke: rgb(0,0,0); stroke-width: 3" />
	<polygon points="460.212586172507,-340.475329195808 561.5,-346.709068778272 528.465725642645,-432.216588242432 437.071534372624,-439.280650057782 " style="fill: rgb(14,173,105); fill-opacity: 1; stroke: rgb(0,0,0); stroke-width: 3" />
	<circle cx="183.295464785715" cy="-285.745937692098" r="2" style="fill: rgb(0,0,0)" />
	<circle cx="274.962248122054" cy="-285.745937692098" r="2" style="fill: rgb(0,0,0)" />
	<circle cx="314.487701731137" cy="-368.453480783573" r="2" style="fill: rgb(0,0,0)" />
	<circle cx="213.98187600537" cy="-382.474133558147" r="2" style="fill: rgb(0,0,0)" />
	<circle cx="213.981876005371" cy="-189.017741826045" r="2" style="fill: rgb(0,0,0)" />
	<circle cx="314.487701731127" cy="-203.03839460061" r="2" style="fill: rgb(0,0,0)" />
	<circle cx="332.543369757556" cy="-214.421232305887" r="2" style="fill: rgb(0,0,0)" />
	<circle cx="388.53041227064" cy="-299.058403688682" r="2" style="fill: rgb(0,0,0)" />
	<circle cx="185.887361605988" cy="-414.697579478762" r="2" style="fill: rgb(0,0,0)" />
	<circle cx="114.578761066055" cy="-310.703708931358" r="2" style="fill: rgb(0,0,0)" />
	<circle cx="321.598924805375" cy="-441.215464138315" r="2" style="fill: rgb(0,0,0)" />
	<circle cx="197.021821775394" cy="-421.717078998722" r="2" style="fill: rgb(0,0,0)" />
	<circle cx="114.578761066049" cy="-260.788166452843" r="2" style="fill: rgb(0,0,0)" />
	<circle cx="185.887361605979" cy="-156.794295905441" r="2" style="fill: rgb(0,0,0)" />
	<circle cx="197.021821775383" cy="-149.774796385472" r="2" style="fill: rgb(0,0,0)" />
	<circle cx="321.598924805348" cy="-130.276411245871" r="2" style="fill: rgb(0,0,0)" />
	<circle cx="429.718401312912" cy="-310.512737584182" r="2" style="fill: rgb(0,0,0)" />
	<circle cx="366.635869816616" cy="-419.69257016517" r="2" style="fill: rgb(0,0,0)" />
	<circle cx="395.127550713915" cy="-176.631074733459" r="2" style="fill: rgb(0,0,0)" />
	<circle cx="431.250809945861" cy="-297.43981516582" r="2" style="fill: rgb(0,0,0)" />
	<circle cx="145.704552830533" cy="-429.291896360727" r="2" style="fill: rgb(0,0,0)" />
	<circle cx="66.5342743573666" cy="-365.809089904772" r="2" style="fill: rgb(0,0,0)" />
	<circle cx="292.595501274093" cy="-508.324905640926" r="2" style="fill: rgb(0,0,0)" />
	<circle cx="201.180183592592" cy="-464.265407207158" r="2" style="fill: rgb(0,0,0)" />
	<circle cx="66.5342743573528" cy="-205.682785479429" r="2" style="fill: rgb(0,0,0)" />
	<circle cx="145.704552830523" cy="-142.199979023485" r="2" style="fill: rgb(0,0,0)" />
	<circle cx="201.180183592576" cy="-107.226468177029" r="2" style="fill: rgb(0,0,0)" />
	<circle cx="292.595501274054" cy="-63.1669697432729" r="2" style="fill: rgb(0,0,0)" />
	<circle cx="460.212586172507" cy="-340.475329195808" r="2" style="fill: rgb(0,0,0)" />
	<circle cx="437.071534372624" cy="-439.280650057782" r="2" style="fill: rgb(0,0,0)" />
	<circle cx="468.183790416805" cy="-173.863123180087" r="2" style="fill: rgb(0,0,0)" />
	<circle cx="467.847562112505" cy="-275.341626615888" r="2" style="fill: rgb(0,0,0)" />
	<circle cx="96.4063436310416" cy="-517.991875384211" r="2" style="fill: rgb(0,0,0)" />
	<circle cx="33.5000000000177" cy="-451.316609368944" r="2" style="fill: rgb(0,0,0)" />
	<circle cx="33.5" cy="-120.175266015252" r="2" style="fill: rgb(0,0,0)" />
	<circle cx="96.4063436310264" cy="-53.5" r="2" style="fill: rgb(0,0,0)" />
	<circle cx="561.5" cy="-346.709068778272" r="2" style="fill: rgb(0,0,0)" />
	<circle cx="528.465725642645" cy="-432.216588242432" r="2" style="fill: rgb(0,0,0)" />
	<!--
	Generated using the Perl SVG Module V2.87
	by Ronan Oger

	-->
</svg>