<?xml version="1.0" encoding="UTF-8" standalone="yes"?>
<!DOCTYPE svg PUBLIC "-//W3C//DTD SVG 1.0//EN" "http://www.w3.org/TR/2001/REC-SVG-20010904/DTD/svg10.dtd">
<!-- generated using polymake; Michael Joswig, Georg Loho, Benjamin Lorenz, Rico Raber; license CC BY-NC-ND 3.0; see polymake.org and matchthenet.de -->
<svg height="841pt" id="document" viewBox="0 -713.344394788908 572 713.344394788908" width="595pt" xmlns="http://www.w3.org/2000/svg" xmlns:svg="http://www.w3.org/2000/svg" xmlns:xlink="http://www.w3.org/1999/xlink">
	<title id="document_title">planar_net_</title>
	<polygon points="264.22092717389,-360.961706320664 380.123801506243,-360.961706320664 357.638650073431,-402.86812820688 288.843389871686,-403.781656712102 " style="fill: rgb(14,173,105); fill-opacity: 1; stroke: rgb(0,0,0); stroke-width: 3" />
	<polygon points="324.342161076602,-263.219088228268 380.123801506243,-360.961706320664 264.22092717389,-360.961706320664 " style="fill: rgb(14,173,105); fill-opacity: 1; stroke: rgb(0,0,0); stroke-width: 3" />
	<polygon points="264.22092717389,-360.961706320664 288.843389871686,-403.781656712102 252.963406516536,-464.891306893571 200.179128210878,-464.640006743867 " style="fill: rgb(14,173,105); fill-opacity: 1; stroke: rgb(0,0,0); stroke-width: 3" />
	<polygon points="264.22092717389,-360.961706320664 209.797613004462,-256.310494703601 324.342161076602,-263.219088228268 " style="fill: rgb(14,173,105); fill-opacity: 1; stroke: rgb(0,0,0); stroke-width: 3" />
	<polygon points="357.638650073431,-402.86812820688 380.123801506243,-360.961706320664 444.209345656418,-457.535612265689 394.916057505555,-460.695606586085 " style="fill: rgb(14,173,105); fill-opacity: 1; stroke: rgb(0,0,0); stroke-width: 3" />
	<polygon points="264.22092717389,-360.961706320664 200.179128210878,-464.640006743867 146.400929440346,-355.285320835776 " style="fill: rgb(14,173,105); fill-opacity: 1; stroke: rgb(0,0,0); stroke-width: 3" />
	<polygon points="435.637584428407,-263.066707948688 380.123801506243,-360.961706320664 324.342161076602,-263.219088228268 " style="fill: rgb(14,173,105); fill-opacity: 1; stroke: rgb(0,0,0); stroke-width: 3" />
	<polygon points="444.209345656418,-457.535612265689 380.123801506243,-360.961706320664 492.409051220416,-353.396423959451 " style="fill: rgb(14,173,105); fill-opacity: 1; stroke: rgb(0,0,0); stroke-width: 3" />
	<polygon points="252.963406516536,-464.891306893571 289.121500548641,-527.219555452728 263.137683470808,-573.166094365689 200.179128210878,-464.640006743867 " style="fill: rgb(14,173,105); fill-opacity: 1; stroke: rgb(0,0,0); stroke-width: 3" />
	<polygon points="394.916057505555,-460.695606586085 444.209345656418,-457.535612265689 393.231620274365,-568.223522662131 363.836506007865,-524.380958352165 " style="fill: rgb(14,173,105); fill-opacity: 1; stroke: rgb(0,0,0); stroke-width: 3" />
	<polygon points="324.342161076602,-263.219088228268 209.797613004462,-256.310494703601 276.354794417377,-161.423098907999 " style="fill: rgb(14,173,105); fill-opacity: 1; stroke: rgb(0,0,0); stroke-width: 3" />
	<polygon points="435.637584428407,-263.066707948688 324.342161076602,-263.219088228268 379.855943998762,-165.324089856288 " style="fill: rgb(14,173,105); fill-opacity: 1; stroke: rgb(0,0,0); stroke-width: 3" />
	<polygon points="146.400929440346,-355.285320835776 200.179128210878,-464.640006743867 147.615165895118,-459.815791400235 117.776064373791,-395.539897230901 " style="fill: rgb(14,173,105); fill-opacity: 1; stroke: rgb(0,0,0); stroke-width: 3" />
	<polygon points="200.179128210878,-464.640006743867 263.137683470808,-573.166094365689 210.353405165151,-572.914794215984 174.195311133046,-510.586545656825 " style="fill: rgb(14,173,105); fill-opacity: 1; stroke: rgb(0,0,0); stroke-width: 3" />
	<polygon points="444.209345656418,-457.535612265689 492.409051220416,-353.396423959451 561.5,-445.018598973353 " style="fill: rgb(14,173,105); fill-opacity: 1; stroke: rgb(0,0,0); stroke-width: 3" />
	<polygon points="209.797613004462,-256.310494703601 188.881204519383,-211.563230240676 229.134744229394,-155.76650182968 276.354794417377,-161.423098907999 " style="fill: rgb(14,173,105); fill-opacity: 1; stroke: rgb(0,0,0); stroke-width: 3" />
	<polygon points="393.231620274365,-568.223522662131 444.209345656418,-457.535612265689 514.084656610582,-552.568312622791 " style="fill: rgb(14,173,105); fill-opacity: 1; stroke: rgb(0,0,0); stroke-width: 3" />
	<polygon points="495.758818331117,-165.324089856293 435.637584428407,-263.066707948688 379.855943998762,-165.324089856288 " style="fill: rgb(14,173,105); fill-opacity: 1; stroke: rgb(0,0,0); stroke-width: 3" />
	<polygon points="263.137683470808,-573.166094365689 199.095884507829,-676.844394788908 174.473421810016,-634.02444439748 210.353405165151,-572.914794215984 " style="fill: rgb(14,173,105); fill-opacity: 1; stroke: rgb(0,0,0); stroke-width: 3" />
	<polygon points="234.092742874623,-53.5 276.354794417377,-161.423098907999 229.134744229394,-155.76650182968 203.199065954953,-92.0408166391575 " style="fill: rgb(14,173,105); fill-opacity: 1; stroke: rgb(0,0,0); stroke-width: 3" />
	<polygon points="288.843389871686,-403.781656712102 357.638650073431,-402.86812820688 381.637025935868,-467.348360189413 326.578009091752,-511.960771187091 267.131598734855,-471.238017987359 " style="fill: rgb(14,173,105); fill-opacity: 1; stroke: rgb(0,0,0); stroke-width: 3" />
	<polygon points="147.615165895118,-459.815791400235 93.6253696275855,-507.537067907444 33.5,-470.031035352494 49.3902427295803,-403.089848131536 117.776064373791,-395.539897230901 " style="fill: rgb(14,173,105); fill-opacity: 1; stroke: rgb(0,0,0); stroke-width: 3" />
	<circle cx="264.22092717389" cy="-360.961706320664" r="2" style="fill: rgb(0,0,0)" />
	<circle cx="380.123801506243" cy="-360.961706320664" r="2" style="fill: rgb(0,0,0)" />
	<circle cx="357.638650073431" cy="-402.86812820688" r="2" style="fill: rgb(0,0,0)" />
	<circle cx="288.843389871686" cy="-403.781656712102" r="2" style="fill: rgb(0,0,0)" />
	<circle cx="324.342161076602" cy="-263.219088228268" r="2" style="fill: rgb(0,0,0)" />
	<circle cx="252.963406516536" cy="-464.891306893571" r="2" style="fill: rgb(0,0,0)" />
	<circle cx="200.179128210878" cy="-464.640006743867" r="2" style="fill: rgb(0,0,0)" />
	<circle cx="444.209345656418" cy="-457.535612265689" r="2" style="fill: rgb(0,0,0)" />
	<circle cx="394.916057505555" cy="-460.695606586085" r="2" style="fill: rgb(0,0,0)" />
	<circle cx="381.637025935868" cy="-467.348360189413" r="2" style="fill: rgb(0,0,0)" />
	<circle cx="326.578009091752" cy="-511.960771187091" r="2" style="fill: rgb(0,0,0)" />
	<circle cx="267.131598734855" cy="-471.238017987359" r="2" style="fill: rgb(0,0,0)" />
	<circle cx="209.797613004462" cy="-256.310494703601" r="2" style="fill: rgb(0,0,0)" />
	<circle cx="435.637584428407" cy="-263.066707948688" r="2" style="fill: rgb(0,0,0)" />
	<circle cx="146.400929440346" cy="-355.285320835776" r="2" style="fill: rgb(0,0,0)" />
	<circle cx="289.121500548641" cy="-527.219555452728" r="2" style="fill: rgb(0,0,0)" />
	<circle cx="263.137683470808" cy="-573.166094365689" r="2" style="fill: rgb(0,0,0)" />
	<circle cx="492.409051220416" cy="-353.396423959451" r="2" style="fill: rgb(0,0,0)" />
	<circle cx="393.231620274365" cy="-568.223522662131" r="2" style="fill: rgb(0,0,0)" />
	<circle cx="363.836506007865" cy="-524.380958352165" r="2" style="fill: rgb(0,0,0)" />
	<circle cx="276.354794417377" cy="-161.423098907999" r="2" style="fill: rgb(0,0,0)" />
	<circle cx="379.855943998762" cy="-165.324089856288" r="2" style="fill: rgb(0,0,0)" />
	<circle cx="147.615165895118" cy="-459.815791400235" r="2" style="fill: rgb(0,0,0)" />
	<circle cx="117.776064373791" cy="-395.539897230901" r="2" style="fill: rgb(0,0,0)" />
	<circle cx="210.353405165151" cy="-572.914794215984" r="2" style="fill: rgb(0,0,0)" />
	<circle cx="174.195311133046" cy="-510.586545656825" r="2" style="fill: rgb(0,0,0)" />
	<circle cx="561.5" cy="-445.018598973353" r="2" style="fill: rgb(0,0,0)" />
	<circle cx="514.084656610582" cy="-552.568312622791" r="2" style="fill: rgb(0,0,0)" />
	<circle cx="188.881204519383" cy="-211.563230240676" r="2" style="fill: rgb(0,0,0)" />
	<circle cx="229.134744229394" cy="-155.76650182968" r="2" style="fill: rgb(0,0,0)" />
	<circle cx="495.758818331117" cy="-165.324089856293" r="2" style="fill: rgb(0,0,0)" />
	<circle cx="93.6253696275855" cy="-507.537067907444" r="2" style="fill: rgb(0,0,0)" />
	<circle cx="33.5" cy="-470.031035352494" r="2" style="fill: rgb(0,0,0)" />
	<circle cx="49.3902427295803" cy="-403.089848131536" r="2" style="fill: rgb(0,0,0)" />
	<circle cx="199.095884507829" cy="-676.844394788908" r="2" style="fill: rgb(0,0,0)" />
	<circle cx="174.473421810016" cy="-634.02444439748" r="2" style="fill: rgb(0,0,0)" />
	<circle cx="203.199065954953" cy="-92.0408166391575" r="2" style="fill: rgb(0,0,0)" />
	<circle cx="234.092742874623" cy="-53.5" r="2" style="fill: rgb(0,0,0)" />
	<!--
	Generated using the Perl SVG Module V2.87
	by Ronan Oger

	-->
</svg>