<?xml version="1.0" encoding="UTF-8" standalone="yes"?>
<!DOCTYPE svg PUBLIC "-//W3C//DTD SVG 1.0//EN" "http://www.w3.org/TR/2001/REC-SVG-20010904/DTD/svg10.dtd">
<!-- generated using polymake; Michael Joswig, Georg Loho, Benjamin Lorenz, Rico Raber; license CC BY-NC-ND 3.0; see polymake.org and matchthenet.de -->
<svg height="841pt" id="document" viewBox="0 -667.482631225218 572 667.482631225218" width="595pt" xmlns="http://www.w3.org/2000/svg" xmlns:svg="http://www.w3.org/2000/svg" xmlns:xlink="http://www.w3.org/1999/xlink">
	<title id="document_title">planar_net_</title>
	<polygon points="216.800224325752,-321.850591631941 312.303273627959,-321.850591631941 339.19935948097,-399.837560366111 189.904077206955,-399.837813624514 " style="fill: rgb(157,116,59); fill-opacity: 1; stroke: rgb(0,0,0); stroke-width: 3" />
	<polygon points="334.029990305823,-267.418475955981 312.303273627959,-321.850591631941 216.800224325752,-321.850591631941 195.073454107467,-267.418566535771 264.551822893768,-214.579759743582 " style="fill: rgb(42,107,61); fill-opacity: 1; stroke: rgb(0,0,0); stroke-width: 3" />
	<polygon points="339.19935948097,-399.837560366111 312.303273627959,-321.850591631941 353.241011138825,-279.910073251107 377.144142932257,-288.620748342699 383.630798924779,-375.66713142204 " style="fill: rgb(42,107,61); fill-opacity: 1; stroke: rgb(0,0,0); stroke-width: 3" />
	<polygon points="189.904077206955,-399.837813624514 339.19935948097,-399.837560366111 312.303450572994,-477.825238274005 216.800088392782,-477.825293301642 " style="fill: rgb(157,116,59); fill-opacity: 1; stroke: rgb(0,0,0); stroke-width: 3" />
	<polygon points="216.800224325752,-321.850591631941 189.904077206955,-399.837813624514 145.472810599443,-375.66755459912 151.959369692242,-288.620771274778 175.862480983838,-279.910158395364 " style="fill: rgb(42,107,61); fill-opacity: 1; stroke: rgb(0,0,0); stroke-width: 3" />
	<polygon points="339.19935948097,-399.837560366111 383.630798924779,-375.66713142204 453.18632334196,-428.40443669176 447.513148991548,-453.204414755977 390.061544504932,-464.787768552685 " style="fill: rgb(42,107,61); fill-opacity: 1; stroke: rgb(0,0,0); stroke-width: 3" />
	<polygon points="356.395768177594,-255.293772156876 334.029990305823,-267.418475955981 264.551822893768,-214.579759743582 275.902971271937,-165.290172699473 352.125598070913,-196.841861910853 " style="fill: rgb(42,107,61); fill-opacity: 1; stroke: rgb(0,0,0); stroke-width: 3" />
	<polygon points="383.630798924779,-375.66713142204 377.144142932257,-288.620748342699 432.302412144197,-268.811008933003 495.603844973925,-340.322098652465 469.246966492458,-392.669071161696 " style="fill: rgb(42,107,61); fill-opacity: 1; stroke: rgb(0,0,0); stroke-width: 3" />
	<polygon points="189.904077206955,-399.837813624514 216.800088392782,-477.825293301642 175.862584595862,-519.765658203496 151.959602598049,-511.055053184241 145.473017075601,-424.008546960038 " style="fill: rgb(42,107,61); fill-opacity: 1; stroke: rgb(0,0,0); stroke-width: 3" />
	<polygon points="195.073454107467,-267.418566535771 172.707731612335,-255.293887863978 176.977662744738,-196.842455987022 253.200545587493,-165.29020507445 264.551822893768,-214.579759743582 " style="fill: rgb(42,107,61); fill-opacity: 1; stroke: rgb(0,0,0); stroke-width: 3" />
	<polygon points="216.800088392782,-477.825293301642 312.303450572994,-477.825238274005 334.030191906561,-532.257074952894 264.55169649282,-585.095808725388 195.073481634491,-532.257157904863 " style="fill: rgb(42,107,61); fill-opacity: 1; stroke: rgb(0,0,0); stroke-width: 3" />
	<polygon points="151.959369692242,-288.620771274778 145.472810599443,-375.66755459912 59.8567061334862,-392.669322262668 33.5,-340.322730869554 96.8015376597403,-268.811286363542 " style="fill: rgb(42,107,61); fill-opacity: 1; stroke: rgb(0,0,0); stroke-width: 3" />
	<polygon points="453.18632334196,-428.40443669176 510.638158238002,-416.820926602466 561.5,-481.770785814505 517.068771852988,-505.941574457727 447.513148991548,-453.204414755977 " style="fill: rgb(42,107,61); fill-opacity: 1; stroke: rgb(0,0,0); stroke-width: 3" />
	<polygon points="352.125598070913,-196.841861910853 275.902971271937,-165.290172699473 374.858365593312,-53.5 415.426660084459,-125.33036126096 " style="fill: rgb(157,116,59); fill-opacity: 1; stroke: rgb(0,0,0); stroke-width: 3" />
	<polygon points="175.862584595862,-519.765658203496 182.349278319909,-606.81201666268 137.918150726807,-630.982631225218 111.022232343758,-552.99517328507 151.959602598049,-511.055053184241 " style="fill: rgb(42,107,61); fill-opacity: 1; stroke: rgb(0,0,0); stroke-width: 3" />
	<polygon points="176.977662744738,-196.842455987022 113.676252517886,-125.330893905938 154.244857312106,-53.500210998237 253.200545587493,-165.29020507445 " style="fill: rgb(157,116,59); fill-opacity: 1; stroke: rgb(0,0,0); stroke-width: 3" />
	<circle cx="216.800224325752" cy="-321.850591631941" r="2" style="fill: rgb(0,0,0)" />
	<circle cx="312.303273627959" cy="-321.850591631941" r="2" style="fill: rgb(0,0,0)" />
	<circle cx="339.19935948097" cy="-399.837560366111" r="2" style="fill: rgb(0,0,0)" />
	<circle cx="189.904077206955" cy="-399.837813624514" r="2" style="fill: rgb(0,0,0)" />
	<circle cx="195.073454107467" cy="-267.418566535771" r="2" style="fill: rgb(0,0,0)" />
	<circle cx="264.551822893768" cy="-214.579759743582" r="2" style="fill: rgb(0,0,0)" />
	<circle cx="334.029990305823" cy="-267.418475955981" r="2" style="fill: rgb(0,0,0)" />
	<circle cx="353.241011138825" cy="-279.910073251107" r="2" style="fill: rgb(0,0,0)" />
	<circle cx="377.144142932257" cy="-288.620748342699" r="2" style="fill: rgb(0,0,0)" />
	<circle cx="383.630798924779" cy="-375.66713142204" r="2" style="fill: rgb(0,0,0)" />
	<circle cx="312.303450572994" cy="-477.825238274005" r="2" style="fill: rgb(0,0,0)" />
	<circle cx="216.800088392782" cy="-477.825293301642" r="2" style="fill: rgb(0,0,0)" />
	<circle cx="145.472810599443" cy="-375.66755459912" r="2" style="fill: rgb(0,0,0)" />
	<circle cx="151.959369692242" cy="-288.620771274778" r="2" style="fill: rgb(0,0,0)" />
	<circle cx="175.862480983838" cy="-279.910158395364" r="2" style="fill: rgb(0,0,0)" />
	<circle cx="275.902971271937" cy="-165.290172699473" r="2" style="fill: rgb(0,0,0)" />
	<circle cx="352.125598070913" cy="-196.841861910853" r="2" style="fill: rgb(0,0,0)" />
	<circle cx="356.395768177594" cy="-255.293772156876" r="2" style="fill: rgb(0,0,0)" />
	<circle cx="172.707731612335" cy="-255.293887863978" r="2" style="fill: rgb(0,0,0)" />
	<circle cx="176.977662744738" cy="-196.842455987022" r="2" style="fill: rgb(0,0,0)" />
	<circle cx="253.200545587493" cy="-165.29020507445" r="2" style="fill: rgb(0,0,0)" />
	<circle cx="453.18632334196" cy="-428.40443669176" r="2" style="fill: rgb(0,0,0)" />
	<circle cx="447.513148991548" cy="-453.204414755977" r="2" style="fill: rgb(0,0,0)" />
	<circle cx="390.061544504932" cy="-464.787768552685" r="2" style="fill: rgb(0,0,0)" />
	<circle cx="432.302412144197" cy="-268.811008933003" r="2" style="fill: rgb(0,0,0)" />
	<circle cx="495.603844973925" cy="-340.322098652465" r="2" style="fill: rgb(0,0,0)" />
	<circle cx="469.246966492458" cy="-392.669071161696" r="2" style="fill: rgb(0,0,0)" />
	<circle cx="175.862584595862" cy="-519.765658203496" r="2" style="fill: rgb(0,0,0)" />
	<circle cx="151.959602598049" cy="-511.055053184241" r="2" style="fill: rgb(0,0,0)" />
	<circle cx="145.473017075601" cy="-424.008546960038" r="2" style="fill: rgb(0,0,0)" />
	<circle cx="334.030191906561" cy="-532.257074952894" r="2" style="fill: rgb(0,0,0)" />
	<circle cx="264.55169649282" cy="-585.095808725388" r="2" style="fill: rgb(0,0,0)" />
	<circle cx="195.073481634491" cy="-532.257157904863" r="2" style="fill: rgb(0,0,0)" />
	<circle cx="59.8567061334862" cy="-392.669322262668" r="2" style="fill: rgb(0,0,0)" />
	<circle cx="33.5" cy="-340.322730869554" r="2" style="fill: rgb(0,0,0)" />
	<circle cx="96.8015376597403" cy="-268.811286363542" r="2" style="fill: rgb(0,0,0)" />
	<circle cx="374.858365593312" cy="-53.5" r="2" style="fill: rgb(0,0,0)" />
	<circle cx="415.426660084459" cy="-125.33036126096" r="2" style="fill: rgb(0,0,0)" />
	<circle cx="113.676252517886" cy="-125.330893905938" r="2" style="fill: rgb(0,0,0)" />
	<circle cx="154.244857312106" cy="-53.500210998237" r="2" style="fill: rgb(0,0,0)" />
	<circle cx="510.638158238002" cy="-416.820926602466" r="2" style="fill: rgb(0,0,0)" />
	<circle cx="561.5" cy="-481.770785814505" r="2" style="fill: rgb(0,0,0)" />
	<circle cx="517.068771852988" cy="-505.941574457727" r="2" style="fill: rgb(0,0,0)" />
	<circle cx="182.349278319909" cy="-606.81201666268" r="2" style="fill: rgb(0,0,0)" />
	<circle cx="137.918150726807" cy="-630.982631225218" r="2" style="fill: rgb(0,0,0)" />
	<circle cx="111.022232343758" cy="-552.99517328507" r="2" style="fill: rgb(0,0,0)" />
	<!--
	Generated using the Perl SVG Module V2.84
	by Ronan Oger
	Info: http://www.roitsystems.com/
	-->
</svg>