<?xml version="1.0" encoding="UTF-8" standalone="yes"?>
<!DOCTYPE svg PUBLIC "-//W3C//DTD SVG 1.0//EN" "http://www.w3.org/TR/2001/REC-SVG-20010904/DTD/svg10.dtd">
<!-- generated using polymake; Michael Joswig, Georg Loho, Benjamin Lorenz, Rico Raber; license CC BY-NC-ND 3.0; see polymake.org and matchthenet.de -->
<svg height="841pt" id="document" viewBox="0 -712.241727961644 572 712.241727961644" width="595pt" xmlns="http://www.w3.org/2000/svg" xmlns:svg="http://www.w3.org/2000/svg" xmlns:xlink="http://www.w3.org/1999/xlink">
	<title id="document_title">planar_net_</title>
	<polygon points="292.615038554614,-393.813642002372 331.97920239013,-393.813642002372 312.297120472374,-427.904007882666 " style="fill: rgb(61,81,50); fill-opacity: 1; stroke: rgb(0,0,0); stroke-width: 3" />
	<polygon points="363.825479902422,-370.675967031031 331.97920239013,-393.813642002372 292.615038554614,-393.813642002372 260.768761042322,-370.675967031031 248.604565447787,-333.238422506753 260.768761042321,-295.800877982476 292.615038554613,-272.663203011135 331.979202390129,-272.663203011135 363.825479902421,-295.800877982476 375.989675496956,-333.238422506753 " style="fill: rgb(61,81,50); fill-opacity: 1; stroke: rgb(0,0,0); stroke-width: 3" />
	<polygon points="402.329442313036,-362.491697170351 363.825479902422,-370.675967031031 375.989675496956,-333.238422506753 414.493637907564,-325.054152646079 " style="fill: rgb(61,81,50); fill-opacity: 1; stroke: rgb(0,0,0); stroke-width: 3" />
	<polygon points="260.768761042322,-370.675967031031 222.264798631716,-362.491697170353 248.604565447787,-333.238422506753 " style="fill: rgb(61,81,50); fill-opacity: 1; stroke: rgb(0,0,0); stroke-width: 3" />
	<polygon points="432.783884682634,-415.2403386707 406.444117866565,-385.987064007091 435.697392530178,-359.647297191019 462.037159346242,-388.90057185462 " style="fill: rgb(61,81,50); fill-opacity: 1; stroke: rgb(0,0,0); stroke-width: 3" />
	<polygon points="216.758287935495,-356.376097478094 177.394124099979,-356.376097478094 145.547846587686,-333.238422506754 133.383650993152,-295.800877982477 145.547846587686,-258.363333458199 177.394124099979,-235.225658486858 216.758287935495,-235.225658486858 248.604565447787,-258.363333458199 260.768761042321,-295.800877982476 248.604565447787,-333.238422506753 " style="fill: rgb(61,81,50); fill-opacity: 1; stroke: rgb(0,0,0); stroke-width: 3" />
	<polygon points="375.989675496956,-333.238422506753 363.825479902421,-295.800877982476 401.263024426704,-283.636682387935 413.427220021238,-321.07422691221 " style="fill: rgb(61,81,50); fill-opacity: 1; stroke: rgb(0,0,0); stroke-width: 3" />
	<polygon points="468.744837748476,-431.25118652663 464.630162194932,-392.102663699354 503.778685022224,-387.987988145808 507.893360575765,-427.136510973079 " style="fill: rgb(61,81,50); fill-opacity: 1; stroke: rgb(0,0,0); stroke-width: 3" />
	<polygon points="307.031270716704,-614.808816600688 294.867075122161,-652.246361124965 268.527308306097,-622.993086461349 " style="fill: rgb(61,81,50); fill-opacity: 1; stroke: rgb(0,0,0); stroke-width: 3" />
	<polygon points="176.9233202567,-556.881024869152 164.759124662146,-594.318569393428 138.419357846093,-565.065294729813 " style="fill: rgb(61,81,50); fill-opacity: 1; stroke: rgb(0,0,0); stroke-width: 3" />
	<polygon points="127.646997394206,-667.557458100986 89.1430349835916,-675.741727961644 53.1820819177528,-659.730880105692 33.5,-625.640514225399 37.6146755535554,-586.491991398118 63.9544423696392,-557.238716734519 102.458404780253,-549.054446873861 138.419357846093,-565.065294729813 158.101439763845,-599.155660610106 153.98676421029,-638.304183437387 " style="fill: rgb(61,81,50); fill-opacity: 1; stroke: rgb(0,0,0); stroke-width: 3" />
	<polygon points="537.703242528685,-475.815558166317 511.363475712616,-446.562283502708 523.527671307156,-409.124738978428 549.867438123214,-438.378013642023 " style="fill: rgb(61,81,50); fill-opacity: 1; stroke: rgb(0,0,0); stroke-width: 3" />
	<polygon points="133.383650993152,-295.800877982477 107.043884177083,-266.547603318868 145.547846587686,-258.363333458199 " style="fill: rgb(61,81,50); fill-opacity: 1; stroke: rgb(0,0,0); stroke-width: 3" />
	<polygon points="435.035921250232,-76.6376749713449 447.200116844765,-114.075219495624 435.03592125023,-151.512764019902 403.189643737937,-174.650438991242 363.825479902421,-174.650438991239 331.979202390128,-151.512764019897 319.815006795595,-114.075219495618 331.97920239013,-76.6376749713401 363.825479902424,-53.5 403.18964373794,-53.5000000000017 " style="fill: rgb(61,81,50); fill-opacity: 1; stroke: rgb(0,0,0); stroke-width: 3" />
	<polygon points="522.135836164472,-549.054446873899 541.817918082229,-514.964080993605 561.5,-549.054446873894 " style="fill: rgb(61,81,50); fill-opacity: 1; stroke: rgb(0,0,0); stroke-width: 3" />
	<polygon points="82.7763228624929,-514.964080993566 102.458404780253,-549.054446873861 63.0942409447363,-549.054446873854 " style="fill: rgb(61,81,50); fill-opacity: 1; stroke: rgb(0,0,0); stroke-width: 3" />
	<polygon points="106.18368275217,-258.363333458199 74.3374052398777,-235.225658486857 62.1732096453438,-197.78811396258 74.3374052398779,-160.350569438302 106.183682752171,-137.212894466962 145.547846587687,-137.212894466962 177.394124099979,-160.350569438304 189.558319694514,-197.788113962582 177.394124099979,-235.225658486858 145.547846587686,-258.363333458199 " style="fill: rgb(61,81,50); fill-opacity: 1; stroke: rgb(0,0,0); stroke-width: 3" />
	<polygon points="70.2227296863293,-121.202046611014 106.183682752171,-137.212894466962 74.3374052398779,-160.350569438302 " style="fill: rgb(61,81,50); fill-opacity: 1; stroke: rgb(0,0,0); stroke-width: 3" />
	<polygon points="331.979202390128,-151.512764019897 292.615038554613,-151.512764019897 312.297120472371,-117.422398139605 " style="fill: rgb(61,81,50); fill-opacity: 1; stroke: rgb(0,0,0); stroke-width: 3" />
	<polygon points="216.758287935495,-235.225658486858 177.394124099979,-235.225658486858 197.076206017732,-201.13529260656 " style="fill: rgb(61,81,50); fill-opacity: 1; stroke: rgb(0,0,0); stroke-width: 3" />
	<polygon points="375.989675496955,-212.087983515517 363.825479902421,-174.650438991239 402.329442313029,-182.8347088519 414.493637907573,-220.272253376171 " style="fill: rgb(61,81,50); fill-opacity: 1; stroke: rgb(0,0,0); stroke-width: 3" />
	<polygon points="464.95557945129,-283.636682387925 433.109301938997,-260.499007416592 456.246976910338,-228.652729904284 488.093254422623,-251.790404875605 " style="fill: rgb(61,81,50); fill-opacity: 1; stroke: rgb(0,0,0); stroke-width: 3" />
	<polygon points="331.979202390129,-272.663203011135 292.615038554613,-272.663203011135 260.768761042321,-249.525528039793 248.604565447787,-212.087983515515 260.768761042321,-174.650438991237 292.615038554613,-151.512764019897 331.979202390128,-151.512764019897 363.825479902421,-174.650438991239 375.989675496955,-212.087983515517 363.825479902421,-249.525528039795 " style="fill: rgb(61,81,50); fill-opacity: 1; stroke: rgb(0,0,0); stroke-width: 3" />
	<polygon points="363.825479902421,-249.525528039795 375.989675496955,-212.087983515517 413.427220021239,-224.252179110043 401.263024426708,-261.689723634325 " style="fill: rgb(61,81,50); fill-opacity: 1; stroke: rgb(0,0,0); stroke-width: 3" />
	<polygon points="292.615038554613,-272.663203011135 260.768761042321,-295.800877982476 256.654085488778,-256.65235515519 " style="fill: rgb(61,81,50); fill-opacity: 1; stroke: rgb(0,0,0); stroke-width: 3" />
	<polygon points="363.825479902421,-295.800877982476 331.979202390129,-272.663203011135 367.940155455965,-256.652355155184 399.786432968258,-279.790030126511 " style="fill: rgb(61,81,50); fill-opacity: 1; stroke: rgb(0,0,0); stroke-width: 3" />
	<polygon points="452.791383856754,-321.074226912202 413.427220021238,-321.07422691221 401.263024426704,-283.636682387935 433.109301938997,-260.499007416592 464.95557945129,-283.636682387925 " style="fill: rgb(61,81,50); fill-opacity: 1; stroke: rgb(0,0,0); stroke-width: 3" />
	<polygon points="191.810356262096,-415.240338670684 187.695680708553,-454.388861497969 155.84940319626,-431.251186526628 " style="fill: rgb(61,81,50); fill-opacity: 1; stroke: rgb(0,0,0); stroke-width: 3" />
	<polygon points="436.898560236179,-454.388861497988 432.783884682634,-415.2403386707 464.630162194932,-392.102663699354 468.744837748476,-431.25118652663 " style="fill: rgb(61,81,50); fill-opacity: 1; stroke: rgb(0,0,0); stroke-width: 3" />
	<polygon points="187.695680708553,-454.388861497969 207.377762626314,-488.479227378264 203.263087072771,-527.627750205549 176.9233202567,-556.881024869152 138.419357846093,-565.065294729813 102.458404780253,-549.054446873861 82.7763228624929,-514.964080993566 86.8909984160358,-475.815558166281 113.230765232107,-446.562283502678 151.734727642714,-438.378013642017 " style="fill: rgb(61,81,50); fill-opacity: 1; stroke: rgb(0,0,0); stroke-width: 3" />
	<polygon points="417.216478318424,-488.479227378283 436.898560236179,-454.388861497988 472.859513302013,-438.378013642041 511.363475712616,-446.562283502708 537.703242528685,-475.815558166317 541.817918082229,-514.964080993605 522.135836164472,-549.054446873899 486.174883098638,-565.065294729847 447.670920688036,-556.881024869179 421.331153871967,-527.62775020557 " style="fill: rgb(61,81,50); fill-opacity: 1; stroke: rgb(0,0,0); stroke-width: 3" />
	<polygon points="207.377762626314,-488.479227378264 243.338715692153,-504.490075234216 211.492438179859,-527.627750205566 " style="fill: rgb(61,81,50); fill-opacity: 1; stroke: rgb(0,0,0); stroke-width: 3" />
	<polygon points="381.255525252591,-504.490075234231 417.216478318424,-488.479227378283 413.101802764892,-527.627750205572 " style="fill: rgb(61,81,50); fill-opacity: 1; stroke: rgb(0,0,0); stroke-width: 3" />
	<polygon points="317.803631168592,-512.316653229506 337.485713086339,-546.407019109801 333.371037532783,-585.555541937086 307.031270716704,-614.808816600688 268.527308306097,-622.993086461349 232.566355240266,-606.982238605397 212.884273322518,-572.891872725102 216.998948876074,-533.743349897818 243.338715692153,-504.490075234216 281.842678102761,-496.305805373554 " style="fill: rgb(61,81,50); fill-opacity: 1; stroke: rgb(0,0,0); stroke-width: 3" />
	<polygon points="308.182444918832,-467.052530709951 320.346640513361,-504.490075234231 281.842678102761,-496.305805373554 " style="fill: rgb(61,81,50); fill-opacity: 1; stroke: rgb(0,0,0); stroke-width: 3" />
	<polygon points="292.615038554614,-393.813642002372 312.297120472374,-427.904007882666 308.182444918832,-467.052530709951 281.842678102761,-496.305805373554 243.338715692153,-504.490075234216 207.377762626314,-488.479227378264 187.695680708553,-454.388861497969 191.810356262096,-415.240338670684 218.150123078167,-385.987064007081 256.654085488774,-377.80279414642 " style="fill: rgb(61,81,50); fill-opacity: 1; stroke: rgb(0,0,0); stroke-width: 3" />
	<polygon points="312.297120472374,-427.904007882666 331.97920239013,-393.813642002372 367.940155455963,-377.802794146424 406.444117866565,-385.987064007091 432.783884682634,-415.2403386707 436.898560236179,-454.388861497988 417.216478318424,-488.479227378283 381.255525252591,-504.490075234231 342.751562841989,-496.305805373564 316.411796025919,-467.052530709955 " style="fill: rgb(61,81,50); fill-opacity: 1; stroke: rgb(0,0,0); stroke-width: 3" />
	<circle cx="292.615038554614" cy="-393.813642002372" r="2" style="fill: rgb(0,0,0)" />
	<circle cx="331.97920239013" cy="-393.813642002372" r="2" style="fill: rgb(0,0,0)" />
	<circle cx="312.297120472374" cy="-427.904007882666" r="2" style="fill: rgb(0,0,0)" />
	<circle cx="260.768761042322" cy="-370.675967031031" r="2" style="fill: rgb(0,0,0)" />
	<circle cx="248.604565447787" cy="-333.238422506753" r="2" style="fill: rgb(0,0,0)" />
	<circle cx="260.768761042321" cy="-295.800877982476" r="2" style="fill: rgb(0,0,0)" />
	<circle cx="292.615038554613" cy="-272.663203011135" r="2" style="fill: rgb(0,0,0)" />
	<circle cx="331.979202390129" cy="-272.663203011135" r="2" style="fill: rgb(0,0,0)" />
	<circle cx="363.825479902421" cy="-295.800877982476" r="2" style="fill: rgb(0,0,0)" />
	<circle cx="375.989675496956" cy="-333.238422506753" r="2" style="fill: rgb(0,0,0)" />
	<circle cx="363.825479902422" cy="-370.675967031031" r="2" style="fill: rgb(0,0,0)" />
	<circle cx="308.182444918832" cy="-467.052530709951" r="2" style="fill: rgb(0,0,0)" />
	<circle cx="281.842678102761" cy="-496.305805373554" r="2" style="fill: rgb(0,0,0)" />
	<circle cx="243.338715692153" cy="-504.490075234216" r="2" style="fill: rgb(0,0,0)" />
	<circle cx="207.377762626314" cy="-488.479227378264" r="2" style="fill: rgb(0,0,0)" />
	<circle cx="187.695680708553" cy="-454.388861497969" r="2" style="fill: rgb(0,0,0)" />
	<circle cx="191.810356262096" cy="-415.240338670684" r="2" style="fill: rgb(0,0,0)" />
	<circle cx="218.150123078167" cy="-385.987064007081" r="2" style="fill: rgb(0,0,0)" />
	<circle cx="256.654085488774" cy="-377.80279414642" r="2" style="fill: rgb(0,0,0)" />
	<circle cx="367.940155455963" cy="-377.802794146424" r="2" style="fill: rgb(0,0,0)" />
	<circle cx="406.444117866565" cy="-385.987064007091" r="2" style="fill: rgb(0,0,0)" />
	<circle cx="432.783884682634" cy="-415.2403386707" r="2" style="fill: rgb(0,0,0)" />
	<circle cx="436.898560236179" cy="-454.388861497988" r="2" style="fill: rgb(0,0,0)" />
	<circle cx="417.216478318424" cy="-488.479227378283" r="2" style="fill: rgb(0,0,0)" />
	<circle cx="381.255525252591" cy="-504.490075234231" r="2" style="fill: rgb(0,0,0)" />
	<circle cx="342.751562841989" cy="-496.305805373564" r="2" style="fill: rgb(0,0,0)" />
	<circle cx="316.411796025919" cy="-467.052530709955" r="2" style="fill: rgb(0,0,0)" />
	<circle cx="414.493637907564" cy="-325.054152646079" r="2" style="fill: rgb(0,0,0)" />
	<circle cx="402.329442313036" cy="-362.491697170351" r="2" style="fill: rgb(0,0,0)" />
	<circle cx="222.264798631716" cy="-362.491697170353" r="2" style="fill: rgb(0,0,0)" />
	<circle cx="216.758287935495" cy="-356.376097478094" r="2" style="fill: rgb(0,0,0)" />
	<circle cx="177.394124099979" cy="-356.376097478094" r="2" style="fill: rgb(0,0,0)" />
	<circle cx="145.547846587686" cy="-333.238422506754" r="2" style="fill: rgb(0,0,0)" />
	<circle cx="133.383650993152" cy="-295.800877982477" r="2" style="fill: rgb(0,0,0)" />
	<circle cx="145.547846587686" cy="-258.363333458199" r="2" style="fill: rgb(0,0,0)" />
	<circle cx="177.394124099979" cy="-235.225658486858" r="2" style="fill: rgb(0,0,0)" />
	<circle cx="216.758287935495" cy="-235.225658486858" r="2" style="fill: rgb(0,0,0)" />
	<circle cx="248.604565447787" cy="-258.363333458199" r="2" style="fill: rgb(0,0,0)" />
	<circle cx="401.263024426704" cy="-283.636682387935" r="2" style="fill: rgb(0,0,0)" />
	<circle cx="413.427220021238" cy="-321.07422691221" r="2" style="fill: rgb(0,0,0)" />
	<circle cx="260.768761042321" cy="-249.525528039793" r="2" style="fill: rgb(0,0,0)" />
	<circle cx="248.604565447787" cy="-212.087983515515" r="2" style="fill: rgb(0,0,0)" />
	<circle cx="260.768761042321" cy="-174.650438991237" r="2" style="fill: rgb(0,0,0)" />
	<circle cx="292.615038554613" cy="-151.512764019897" r="2" style="fill: rgb(0,0,0)" />
	<circle cx="331.979202390128" cy="-151.512764019897" r="2" style="fill: rgb(0,0,0)" />
	<circle cx="363.825479902421" cy="-174.650438991239" r="2" style="fill: rgb(0,0,0)" />
	<circle cx="375.989675496955" cy="-212.087983515517" r="2" style="fill: rgb(0,0,0)" />
	<circle cx="363.825479902421" cy="-249.525528039795" r="2" style="fill: rgb(0,0,0)" />
	<circle cx="256.654085488778" cy="-256.65235515519" r="2" style="fill: rgb(0,0,0)" />
	<circle cx="367.940155455965" cy="-256.652355155184" r="2" style="fill: rgb(0,0,0)" />
	<circle cx="399.786432968258" cy="-279.790030126511" r="2" style="fill: rgb(0,0,0)" />
	<circle cx="155.84940319626" cy="-431.251186526628" r="2" style="fill: rgb(0,0,0)" />
	<circle cx="203.263087072771" cy="-527.627750205549" r="2" style="fill: rgb(0,0,0)" />
	<circle cx="176.9233202567" cy="-556.881024869152" r="2" style="fill: rgb(0,0,0)" />
	<circle cx="138.419357846093" cy="-565.065294729813" r="2" style="fill: rgb(0,0,0)" />
	<circle cx="102.458404780253" cy="-549.054446873861" r="2" style="fill: rgb(0,0,0)" />
	<circle cx="82.7763228624929" cy="-514.964080993566" r="2" style="fill: rgb(0,0,0)" />
	<circle cx="86.8909984160358" cy="-475.815558166281" r="2" style="fill: rgb(0,0,0)" />
	<circle cx="113.230765232107" cy="-446.562283502678" r="2" style="fill: rgb(0,0,0)" />
	<circle cx="151.734727642714" cy="-438.378013642017" r="2" style="fill: rgb(0,0,0)" />
	<circle cx="211.492438179859" cy="-527.627750205566" r="2" style="fill: rgb(0,0,0)" />
	<circle cx="317.803631168592" cy="-512.316653229506" r="2" style="fill: rgb(0,0,0)" />
	<circle cx="337.485713086339" cy="-546.407019109801" r="2" style="fill: rgb(0,0,0)" />
	<circle cx="333.371037532783" cy="-585.555541937086" r="2" style="fill: rgb(0,0,0)" />
	<circle cx="307.031270716704" cy="-614.808816600688" r="2" style="fill: rgb(0,0,0)" />
	<circle cx="268.527308306097" cy="-622.993086461349" r="2" style="fill: rgb(0,0,0)" />
	<circle cx="232.566355240266" cy="-606.982238605397" r="2" style="fill: rgb(0,0,0)" />
	<circle cx="212.884273322518" cy="-572.891872725102" r="2" style="fill: rgb(0,0,0)" />
	<circle cx="216.998948876074" cy="-533.743349897818" r="2" style="fill: rgb(0,0,0)" />
	<circle cx="320.346640513361" cy="-504.490075234231" r="2" style="fill: rgb(0,0,0)" />
	<circle cx="435.697392530178" cy="-359.647297191019" r="2" style="fill: rgb(0,0,0)" />
	<circle cx="462.037159346242" cy="-388.90057185462" r="2" style="fill: rgb(0,0,0)" />
	<circle cx="464.630162194932" cy="-392.102663699354" r="2" style="fill: rgb(0,0,0)" />
	<circle cx="468.744837748476" cy="-431.25118652663" r="2" style="fill: rgb(0,0,0)" />
	<circle cx="472.859513302013" cy="-438.378013642041" r="2" style="fill: rgb(0,0,0)" />
	<circle cx="511.363475712616" cy="-446.562283502708" r="2" style="fill: rgb(0,0,0)" />
	<circle cx="537.703242528685" cy="-475.815558166317" r="2" style="fill: rgb(0,0,0)" />
	<circle cx="541.817918082229" cy="-514.964080993605" r="2" style="fill: rgb(0,0,0)" />
	<circle cx="522.135836164472" cy="-549.054446873899" r="2" style="fill: rgb(0,0,0)" />
	<circle cx="486.174883098638" cy="-565.065294729847" r="2" style="fill: rgb(0,0,0)" />
	<circle cx="447.670920688036" cy="-556.881024869179" r="2" style="fill: rgb(0,0,0)" />
	<circle cx="421.331153871967" cy="-527.62775020557" r="2" style="fill: rgb(0,0,0)" />
	<circle cx="413.101802764892" cy="-527.627750205572" r="2" style="fill: rgb(0,0,0)" />
	<circle cx="107.043884177083" cy="-266.547603318868" r="2" style="fill: rgb(0,0,0)" />
	<circle cx="106.18368275217" cy="-258.363333458199" r="2" style="fill: rgb(0,0,0)" />
	<circle cx="74.3374052398777" cy="-235.225658486857" r="2" style="fill: rgb(0,0,0)" />
	<circle cx="62.1732096453438" cy="-197.78811396258" r="2" style="fill: rgb(0,0,0)" />
	<circle cx="74.3374052398779" cy="-160.350569438302" r="2" style="fill: rgb(0,0,0)" />
	<circle cx="106.183682752171" cy="-137.212894466962" r="2" style="fill: rgb(0,0,0)" />
	<circle cx="145.547846587687" cy="-137.212894466962" r="2" style="fill: rgb(0,0,0)" />
	<circle cx="177.394124099979" cy="-160.350569438304" r="2" style="fill: rgb(0,0,0)" />
	<circle cx="189.558319694514" cy="-197.788113962582" r="2" style="fill: rgb(0,0,0)" />
	<circle cx="197.076206017732" cy="-201.13529260656" r="2" style="fill: rgb(0,0,0)" />
	<circle cx="433.109301938997" cy="-260.499007416592" r="2" style="fill: rgb(0,0,0)" />
	<circle cx="464.95557945129" cy="-283.636682387925" r="2" style="fill: rgb(0,0,0)" />
	<circle cx="452.791383856754" cy="-321.074226912202" r="2" style="fill: rgb(0,0,0)" />
	<circle cx="319.815006795595" cy="-114.075219495618" r="2" style="fill: rgb(0,0,0)" />
	<circle cx="331.97920239013" cy="-76.6376749713401" r="2" style="fill: rgb(0,0,0)" />
	<circle cx="363.825479902424" cy="-53.5" r="2" style="fill: rgb(0,0,0)" />
	<circle cx="403.18964373794" cy="-53.5000000000017" r="2" style="fill: rgb(0,0,0)" />
	<circle cx="435.035921250232" cy="-76.6376749713449" r="2" style="fill: rgb(0,0,0)" />
	<circle cx="447.200116844765" cy="-114.075219495624" r="2" style="fill: rgb(0,0,0)" />
	<circle cx="435.03592125023" cy="-151.512764019902" r="2" style="fill: rgb(0,0,0)" />
	<circle cx="403.189643737937" cy="-174.650438991242" r="2" style="fill: rgb(0,0,0)" />
	<circle cx="312.297120472371" cy="-117.422398139605" r="2" style="fill: rgb(0,0,0)" />
	<circle cx="402.329442313029" cy="-182.8347088519" r="2" style="fill: rgb(0,0,0)" />
	<circle cx="414.493637907573" cy="-220.272253376171" r="2" style="fill: rgb(0,0,0)" />
	<circle cx="413.427220021239" cy="-224.252179110043" r="2" style="fill: rgb(0,0,0)" />
	<circle cx="401.263024426708" cy="-261.689723634325" r="2" style="fill: rgb(0,0,0)" />
	<circle cx="164.759124662146" cy="-594.318569393428" r="2" style="fill: rgb(0,0,0)" />
	<circle cx="158.101439763845" cy="-599.155660610106" r="2" style="fill: rgb(0,0,0)" />
	<circle cx="153.98676421029" cy="-638.304183437387" r="2" style="fill: rgb(0,0,0)" />
	<circle cx="127.646997394206" cy="-667.557458100986" r="2" style="fill: rgb(0,0,0)" />
	<circle cx="89.1430349835916" cy="-675.741727961644" r="2" style="fill: rgb(0,0,0)" />
	<circle cx="53.1820819177528" cy="-659.730880105692" r="2" style="fill: rgb(0,0,0)" />
	<circle cx="33.5" cy="-625.640514225399" r="2" style="fill: rgb(0,0,0)" />
	<circle cx="37.6146755535554" cy="-586.491991398118" r="2" style="fill: rgb(0,0,0)" />
	<circle cx="63.9544423696392" cy="-557.238716734519" r="2" style="fill: rgb(0,0,0)" />
	<circle cx="63.0942409447363" cy="-549.054446873854" r="2" style="fill: rgb(0,0,0)" />
	<circle cx="294.867075122161" cy="-652.246361124965" r="2" style="fill: rgb(0,0,0)" />
	<circle cx="503.778685022224" cy="-387.987988145808" r="2" style="fill: rgb(0,0,0)" />
	<circle cx="507.893360575765" cy="-427.136510973079" r="2" style="fill: rgb(0,0,0)" />
	<circle cx="523.527671307156" cy="-409.124738978428" r="2" style="fill: rgb(0,0,0)" />
	<circle cx="549.867438123214" cy="-438.378013642023" r="2" style="fill: rgb(0,0,0)" />
	<circle cx="561.5" cy="-549.054446873894" r="2" style="fill: rgb(0,0,0)" />
	<circle cx="70.2227296863293" cy="-121.202046611014" r="2" style="fill: rgb(0,0,0)" />
	<circle cx="456.246976910338" cy="-228.652729904284" r="2" style="fill: rgb(0,0,0)" />
	<circle cx="488.093254422623" cy="-251.790404875605" r="2" style="fill: rgb(0,0,0)" />
	<!--
	Generated using the Perl SVG Module V2.84
	by Ronan Oger
	Info: http://www.roitsystems.com/
	-->
</svg>