<?xml version="1.0" encoding="UTF-8" standalone="yes"?>
<!DOCTYPE svg PUBLIC "-//W3C//DTD SVG 1.0//EN" "http://www.w3.org/TR/2001/REC-SVG-20010904/DTD/svg10.dtd">
<!-- generated using polymake; Michael Joswig, Georg Loho, Benjamin Lorenz, Rico Raber; license CC BY-NC-SA 3.0; see polymake.org and matchthenet.de -->
<svg height="841pt" id="document" viewBox="0 -711.815168251426 572 711.815168251426" width="595pt" xmlns="http://www.w3.org/2000/svg" xmlns:svg="http://www.w3.org/2000/svg" xmlns:xlink="http://www.w3.org/1999/xlink">
	<title id="document_title">planar_net_</title>
	<polygon points="247.776877526608,-325.192193816532 404.638438763294,-325.192193816532 326.207658144955,-461.038290724798 " style="fill: rgb(14,173,105); fill-opacity: 1; stroke: rgb(0,0,0); stroke-width: 3" />
	<polygon points="247.776877526608,-325.192193816532 169.346096908271,-189.34609690826 326.207658144952,-189.346096908272 " style="fill: rgb(14,173,105); fill-opacity: 1; stroke: rgb(0,0,0); stroke-width: 3" />
	<polygon points="326.207658144952,-189.346096908272 404.638438763294,-325.192193816532 247.776877526608,-325.192193816532 " style="fill: rgb(14,173,105); fill-opacity: 1; stroke: rgb(0,0,0); stroke-width: 3" />
	<polygon points="247.776877526614,-53.5 326.207658144952,-189.346096908272 169.346096908271,-189.34609690826 " style="fill: rgb(14,173,105); fill-opacity: 1; stroke: rgb(0,0,0); stroke-width: 3" />
	<polygon points="483.069219381642,-189.346096908272 326.207658144952,-189.346096908272 404.638438763311,-53.5000000000093 " style="fill: rgb(14,173,105); fill-opacity: 1; stroke: rgb(0,0,0); stroke-width: 3" />
	<polygon points="404.6384387633,-596.884387633051 483.069219381653,-461.038290724788 561.5,-596.884387633053 " style="fill: rgb(14,173,105); fill-opacity: 1; stroke: rgb(0,0,0); stroke-width: 3" />
	<polygon points="483.069219381642,-189.346096908272 404.638438763294,-325.192193816532 326.207658144952,-189.346096908272 " style="fill: rgb(14,173,105); fill-opacity: 1; stroke: rgb(0,0,0); stroke-width: 3" />
	<polygon points="326.207658144955,-461.038290724798 483.069219381653,-461.038290724788 404.6384387633,-596.884387633051 " style="fill: rgb(14,173,105); fill-opacity: 1; stroke: rgb(0,0,0); stroke-width: 3" />
	<polygon points="326.207658144955,-461.038290724798 404.638438763294,-325.192193816532 483.069219381653,-461.038290724788 " style="fill: rgb(14,173,105); fill-opacity: 1; stroke: rgb(0,0,0); stroke-width: 3" />
	<polygon points="169.346096908262,-461.038290724789 326.207658144955,-461.038290724798 247.776877526615,-596.884387633064 " style="fill: rgb(14,173,105); fill-opacity: 1; stroke: rgb(0,0,0); stroke-width: 3" />
	<polygon points="247.776877526608,-325.192193816532 169.346096908262,-461.038290724789 90.9153162899205,-325.192193816529 " style="fill: rgb(14,173,105); fill-opacity: 1; stroke: rgb(0,0,0); stroke-width: 3" />
	<polygon points="247.776877526608,-325.192193816532 326.207658144955,-461.038290724798 169.346096908262,-461.038290724789 " style="fill: rgb(14,173,105); fill-opacity: 1; stroke: rgb(0,0,0); stroke-width: 3" />
	<polygon points="169.346096908262,-461.038290724789 247.776877526615,-596.884387633064 111.930780618352,-675.315168251426 33.5,-539.469071343146 " style="fill: rgb(14,173,105); fill-opacity: 1; stroke: rgb(0,0,0); stroke-width: 3" />
	<circle cx="247.776877526608" cy="-325.192193816532" r="2" style="fill: rgb(0,0,0)" />
	<circle cx="404.638438763294" cy="-325.192193816532" r="2" style="fill: rgb(0,0,0)" />
	<circle cx="326.207658144955" cy="-461.038290724798" r="2" style="fill: rgb(0,0,0)" />
	<circle cx="326.207658144952" cy="-189.346096908272" r="2" style="fill: rgb(0,0,0)" />
	<circle cx="483.069219381653" cy="-461.038290724788" r="2" style="fill: rgb(0,0,0)" />
	<circle cx="169.346096908262" cy="-461.038290724789" r="2" style="fill: rgb(0,0,0)" />
	<circle cx="169.346096908271" cy="-189.34609690826" r="2" style="fill: rgb(0,0,0)" />
	<circle cx="483.069219381642" cy="-189.346096908272" r="2" style="fill: rgb(0,0,0)" />
	<circle cx="404.6384387633" cy="-596.884387633051" r="2" style="fill: rgb(0,0,0)" />
	<circle cx="247.776877526615" cy="-596.884387633064" r="2" style="fill: rgb(0,0,0)" />
	<circle cx="90.9153162899205" cy="-325.192193816529" r="2" style="fill: rgb(0,0,0)" />
	<circle cx="247.776877526614" cy="-53.5" r="2" style="fill: rgb(0,0,0)" />
	<circle cx="404.638438763311" cy="-53.5000000000093" r="2" style="fill: rgb(0,0,0)" />
	<circle cx="561.5" cy="-596.884387633053" r="2" style="fill: rgb(0,0,0)" />
	<circle cx="111.930780618352" cy="-675.315168251426" r="2" style="fill: rgb(0,0,0)" />
	<circle cx="33.5" cy="-539.469071343146" r="2" style="fill: rgb(0,0,0)" />
	<!-- 
	Generated using the Perl SVG Module V2.64
	by Ronan Oger
	Info: http://www.roitsystems.com/
 -->
</svg>