<?xml version="1.0" encoding="UTF-8" standalone="yes"?>
<!DOCTYPE svg PUBLIC "-//W3C//DTD SVG 1.0//EN" "http://www.w3.org/TR/2001/REC-SVG-20010904/DTD/svg10.dtd">
<!-- generated using polymake; Michael Joswig, Georg Loho, Benjamin Lorenz, Rico Raber; license CC BY-NC-ND 3.0; see polymake.org and matchthenet.de -->
<svg height="841pt" id="document" viewBox="0 -728.182408884074 572 728.182408884074" width="595pt" xmlns="http://www.w3.org/2000/svg" xmlns:svg="http://www.w3.org/2000/svg" xmlns:xlink="http://www.w3.org/1999/xlink">
	<title id="document_title">planar_net_</title>
	<polygon points="247.975586841544,-363.268941758032 318.046786732142,-363.268941758032 339.699978314584,-429.910613018607 283.01118678685,-471.09743092474 226.32239525911,-429.910613018608 " style="fill: rgb(255,210,63); fill-opacity: 1; stroke: rgb(0,0,0); stroke-width: 3" />
	<polygon points="283.011186786843,-302.585502579117 318.046786732142,-363.268941758032 247.975586841544,-363.268941758032 " style="fill: rgb(14,173,105); fill-opacity: 1; stroke: rgb(0,0,0); stroke-width: 3" />
	<polygon points="226.32239525911,-429.910613018608 283.01118678685,-471.09743092474 261.357995204414,-537.73910218532 191.286795313815,-537.739102185323 169.633603731374,-471.097430924742 " style="fill: rgb(255,210,63); fill-opacity: 1; stroke: rgb(0,0,0); stroke-width: 3" />
	<polygon points="386.586762785667,-348.700320111143 318.046786732142,-363.268941758032 283.011186786843,-302.585502579117 329.897971257934,-250.512452965424 393.911197629556,-279.012977585214 " style="fill: rgb(255,210,63); fill-opacity: 1; stroke: rgb(0,0,0); stroke-width: 3" />
	<polygon points="329.897971257934,-250.512452965424 283.011186786843,-302.585502579117 261.357995204404,-235.943831318544 " style="fill: rgb(14,173,105); fill-opacity: 1; stroke: rgb(0,0,0); stroke-width: 3" />
	<polygon points="318.046786732134,-137.755964172811 254.033560360516,-166.256488792611 207.146775889422,-114.183439178914 242.182375834708,-53.5 310.722351888235,-68.0686216468908 " style="fill: rgb(255,210,63); fill-opacity: 1; stroke: rgb(0,0,0); stroke-width: 3" />
	<polygon points="68.5355999452982,-325.127795117269 33.5,-264.444355938354 103.571199890598,-264.444355938355 " style="fill: rgb(14,173,105); fill-opacity: 1; stroke: rgb(0,0,0); stroke-width: 3" />
	<polygon points="339.699978314584,-429.910613018607 318.046786732142,-363.268941758032 386.586762785669,-377.837563404912 " style="fill: rgb(14,173,105); fill-opacity: 1; stroke: rgb(0,0,0); stroke-width: 3" />
	<polygon points="283.01118678685,-471.09743092474 339.699978314584,-429.910613018607 347.024413158473,-499.597955544532 " style="fill: rgb(14,173,105); fill-opacity: 1; stroke: rgb(0,0,0); stroke-width: 3" />
	<polygon points="283.01118678685,-471.09743092474 329.897971257941,-523.170480538428 261.357995204414,-537.73910218532 " style="fill: rgb(14,173,105); fill-opacity: 1; stroke: rgb(0,0,0); stroke-width: 3" />
	<polygon points="393.911197629556,-279.012977585214 329.897971257934,-250.512452965424 386.586762785669,-209.325635059289 " style="fill: rgb(14,173,105); fill-opacity: 1; stroke: rgb(0,0,0); stroke-width: 3" />
	<polygon points="115.422384416404,-621.995066358148 179.435610788026,-650.495590977939 122.746819260291,-691.682408884074 " style="fill: rgb(14,173,105); fill-opacity: 1; stroke: rgb(0,0,0); stroke-width: 3" />
	<polygon points="386.586762785667,-348.700320111143 393.911197629556,-279.012977585214 450.599989157291,-320.199795491348 " style="fill: rgb(14,173,105); fill-opacity: 1; stroke: rgb(0,0,0); stroke-width: 3" />
	<polygon points="393.911197629556,-279.012977585214 386.586762785669,-209.325635059289 450.599989157299,-180.825110439485 497.486773628388,-232.898160053169 462.451173683081,-293.581599232093 " style="fill: rgb(255,210,63); fill-opacity: 1; stroke: rgb(0,0,0); stroke-width: 3" />
	<polygon points="497.486773628388,-232.898160053169 450.599989157299,-180.825110439485 485.635589102605,-120.141671260558 554.175565156126,-134.710292907433 561.5,-204.397635433368 " style="fill: rgb(255,210,63); fill-opacity: 1; stroke: rgb(0,0,0); stroke-width: 3" />
	<polygon points="443.275554313424,-476.02543055063 450.599989157301,-406.338088024704 507.288780685043,-447.52490593083 " style="fill: rgb(14,173,105); fill-opacity: 1; stroke: rgb(0,0,0); stroke-width: 3" />
	<polygon points="364.933571203253,-583.853919717347 386.5867627857,-650.495590977918 318.046786732172,-635.926969331043 " style="fill: rgb(14,173,105); fill-opacity: 1; stroke: rgb(0,0,0); stroke-width: 3" />
	<polygon points="254.03356036054,-607.426444711245 318.046786732172,-635.926969331043 261.357995204436,-677.113787237175 " style="fill: rgb(14,173,105); fill-opacity: 1; stroke: rgb(0,0,0); stroke-width: 3" />
	<polygon points="318.046786732134,-137.755964172811 310.722351888235,-68.0686216468908 374.735578259863,-96.5691462666716 " style="fill: rgb(14,173,105); fill-opacity: 1; stroke: rgb(0,0,0); stroke-width: 3" />
	<polygon points="364.933571203225,-189.829013786506 318.046786732134,-137.755964172811 386.586762785661,-123.187342525929 " style="fill: rgb(14,173,105); fill-opacity: 1; stroke: rgb(0,0,0); stroke-width: 3" />
	<polygon points="329.897971257941,-523.170480538428 364.933571203253,-583.853919717347 318.046786732172,-635.926969331043 254.03356036054,-607.426444711245 261.357995204414,-537.73910218532 " style="fill: rgb(255,210,63); fill-opacity: 1; stroke: rgb(0,0,0); stroke-width: 3" />
	<polygon points="339.699978314584,-429.910613018607 386.586762785669,-377.837563404912 450.599989157301,-406.338088024704 443.275554313424,-476.02543055063 374.735578259889,-490.594052197516 " style="fill: rgb(255,210,63); fill-opacity: 1; stroke: rgb(0,0,0); stroke-width: 3" />
	<polygon points="191.286795313815,-537.739102185323 261.357995204414,-537.73910218532 226.322395259115,-598.422541364235 " style="fill: rgb(14,173,105); fill-opacity: 1; stroke: rgb(0,0,0); stroke-width: 3" />
	<polygon points="191.286795313815,-537.739102185323 226.322395259115,-598.422541364235 179.435610788026,-650.495590977939 115.422384416404,-621.995066358148 122.74681926029,-552.307723832209 " style="fill: rgb(255,210,63); fill-opacity: 1; stroke: rgb(0,0,0); stroke-width: 3" />
	<polygon points="329.897971257934,-250.512452965424 261.357995204404,-235.943831318544 254.033560360516,-166.256488792611 318.046786732134,-137.755964172811 364.933571203225,-189.829013786506 " style="fill: rgb(255,210,63); fill-opacity: 1; stroke: rgb(0,0,0); stroke-width: 3" />
	<polygon points="169.633603731374,-471.097430924742 191.286795313815,-537.739102185323 122.746819260288,-523.17048053844 " style="fill: rgb(14,173,105); fill-opacity: 1; stroke: rgb(0,0,0); stroke-width: 3" />
	<polygon points="172.111175944126,-279.012977585225 115.42238441639,-237.826159679092 179.435610788012,-209.325635059299 " style="fill: rgb(14,173,105); fill-opacity: 1; stroke: rgb(0,0,0); stroke-width: 3" />
	<polygon points="236.124402315749,-250.512452965431 172.111175944126,-279.012977585225 179.435610788012,-209.325635059299 " style="fill: rgb(14,173,105); fill-opacity: 1; stroke: rgb(0,0,0); stroke-width: 3" />
	<polygon points="226.32239525911,-429.910613018608 169.633603731374,-471.097430924742 162.309168887486,-401.410088398817 " style="fill: rgb(14,173,105); fill-opacity: 1; stroke: rgb(0,0,0); stroke-width: 3" />
	<polygon points="247.975586841544,-363.268941758032 226.32239525911,-429.910613018608 179.435610788018,-377.837563404922 " style="fill: rgb(14,173,105); fill-opacity: 1; stroke: rgb(0,0,0); stroke-width: 3" />
	<polygon points="115.422384416391,-377.200844730948 68.5355999452982,-325.127795117269 103.571199890598,-264.444355938355 172.111175944126,-279.012977585225 179.435610788016,-348.700320111148 " style="fill: rgb(255,210,63); fill-opacity: 1; stroke: rgb(0,0,0); stroke-width: 3" />
	<polygon points="247.975586841544,-363.268941758032 179.435610788016,-348.700320111148 172.111175944126,-279.012977585225 236.124402315749,-250.512452965431 283.011186786843,-302.585502579117 " style="fill: rgb(255,210,63); fill-opacity: 1; stroke: rgb(0,0,0); stroke-width: 3" />
	<circle cx="247.975586841544" cy="-363.268941758032" r="2" style="fill: rgb(0,0,0)" />
	<circle cx="318.046786732142" cy="-363.268941758032" r="2" style="fill: rgb(0,0,0)" />
	<circle cx="339.699978314584" cy="-429.910613018607" r="2" style="fill: rgb(0,0,0)" />
	<circle cx="283.01118678685" cy="-471.09743092474" r="2" style="fill: rgb(0,0,0)" />
	<circle cx="226.32239525911" cy="-429.910613018608" r="2" style="fill: rgb(0,0,0)" />
	<circle cx="283.011186786843" cy="-302.585502579117" r="2" style="fill: rgb(0,0,0)" />
	<circle cx="261.357995204414" cy="-537.73910218532" r="2" style="fill: rgb(0,0,0)" />
	<circle cx="191.286795313815" cy="-537.739102185323" r="2" style="fill: rgb(0,0,0)" />
	<circle cx="169.633603731374" cy="-471.097430924742" r="2" style="fill: rgb(0,0,0)" />
	<circle cx="386.586762785669" cy="-377.837563404912" r="2" style="fill: rgb(0,0,0)" />
	<circle cx="347.024413158473" cy="-499.597955544532" r="2" style="fill: rgb(0,0,0)" />
	<circle cx="179.435610788018" cy="-377.837563404922" r="2" style="fill: rgb(0,0,0)" />
	<circle cx="329.897971257934" cy="-250.512452965424" r="2" style="fill: rgb(0,0,0)" />
	<circle cx="393.911197629556" cy="-279.012977585214" r="2" style="fill: rgb(0,0,0)" />
	<circle cx="386.586762785667" cy="-348.700320111143" r="2" style="fill: rgb(0,0,0)" />
	<circle cx="179.435610788016" cy="-348.700320111148" r="2" style="fill: rgb(0,0,0)" />
	<circle cx="172.111175944126" cy="-279.012977585225" r="2" style="fill: rgb(0,0,0)" />
	<circle cx="236.124402315749" cy="-250.512452965431" r="2" style="fill: rgb(0,0,0)" />
	<circle cx="329.897971257941" cy="-523.170480538428" r="2" style="fill: rgb(0,0,0)" />
	<circle cx="226.322395259115" cy="-598.422541364235" r="2" style="fill: rgb(0,0,0)" />
	<circle cx="122.746819260288" cy="-523.17048053844" r="2" style="fill: rgb(0,0,0)" />
	<circle cx="162.309168887486" cy="-401.410088398817" r="2" style="fill: rgb(0,0,0)" />
	<circle cx="450.599989157301" cy="-406.338088024704" r="2" style="fill: rgb(0,0,0)" />
	<circle cx="443.275554313424" cy="-476.02543055063" r="2" style="fill: rgb(0,0,0)" />
	<circle cx="374.735578259889" cy="-490.594052197516" r="2" style="fill: rgb(0,0,0)" />
	<circle cx="261.357995204404" cy="-235.943831318544" r="2" style="fill: rgb(0,0,0)" />
	<circle cx="386.586762785669" cy="-209.325635059289" r="2" style="fill: rgb(0,0,0)" />
	<circle cx="450.599989157291" cy="-320.199795491348" r="2" style="fill: rgb(0,0,0)" />
	<circle cx="179.435610788012" cy="-209.325635059299" r="2" style="fill: rgb(0,0,0)" />
	<circle cx="115.422384416391" cy="-377.200844730948" r="2" style="fill: rgb(0,0,0)" />
	<circle cx="68.5355999452982" cy="-325.127795117269" r="2" style="fill: rgb(0,0,0)" />
	<circle cx="103.571199890598" cy="-264.444355938355" r="2" style="fill: rgb(0,0,0)" />
	<circle cx="364.933571203253" cy="-583.853919717347" r="2" style="fill: rgb(0,0,0)" />
	<circle cx="318.046786732172" cy="-635.926969331043" r="2" style="fill: rgb(0,0,0)" />
	<circle cx="254.03356036054" cy="-607.426444711245" r="2" style="fill: rgb(0,0,0)" />
	<circle cx="179.435610788026" cy="-650.495590977939" r="2" style="fill: rgb(0,0,0)" />
	<circle cx="115.422384416404" cy="-621.995066358148" r="2" style="fill: rgb(0,0,0)" />
	<circle cx="122.74681926029" cy="-552.307723832209" r="2" style="fill: rgb(0,0,0)" />
	<circle cx="507.288780685043" cy="-447.52490593083" r="2" style="fill: rgb(0,0,0)" />
	<circle cx="254.033560360516" cy="-166.256488792611" r="2" style="fill: rgb(0,0,0)" />
	<circle cx="318.046786732134" cy="-137.755964172811" r="2" style="fill: rgb(0,0,0)" />
	<circle cx="364.933571203225" cy="-189.829013786506" r="2" style="fill: rgb(0,0,0)" />
	<circle cx="450.599989157299" cy="-180.825110439485" r="2" style="fill: rgb(0,0,0)" />
	<circle cx="497.486773628388" cy="-232.898160053169" r="2" style="fill: rgb(0,0,0)" />
	<circle cx="462.451173683081" cy="-293.581599232093" r="2" style="fill: rgb(0,0,0)" />
	<circle cx="115.42238441639" cy="-237.826159679092" r="2" style="fill: rgb(0,0,0)" />
	<circle cx="33.5" cy="-264.444355938354" r="2" style="fill: rgb(0,0,0)" />
	<circle cx="386.5867627857" cy="-650.495590977918" r="2" style="fill: rgb(0,0,0)" />
	<circle cx="261.357995204436" cy="-677.113787237175" r="2" style="fill: rgb(0,0,0)" />
	<circle cx="122.746819260291" cy="-691.682408884074" r="2" style="fill: rgb(0,0,0)" />
	<circle cx="207.146775889422" cy="-114.183439178914" r="2" style="fill: rgb(0,0,0)" />
	<circle cx="242.182375834708" cy="-53.5" r="2" style="fill: rgb(0,0,0)" />
	<circle cx="310.722351888235" cy="-68.0686216468908" r="2" style="fill: rgb(0,0,0)" />
	<circle cx="386.586762785661" cy="-123.187342525929" r="2" style="fill: rgb(0,0,0)" />
	<circle cx="485.635589102605" cy="-120.141671260558" r="2" style="fill: rgb(0,0,0)" />
	<circle cx="554.175565156126" cy="-134.710292907433" r="2" style="fill: rgb(0,0,0)" />
	<circle cx="561.5" cy="-204.397635433368" r="2" style="fill: rgb(0,0,0)" />
	<circle cx="374.735578259863" cy="-96.5691462666716" r="2" style="fill: rgb(0,0,0)" />
	<!--
	Generated using the Perl SVG Module V2.87
	by Ronan Oger

	-->
</svg>