<?xml version="1.0" encoding="UTF-8" standalone="yes"?>
<!DOCTYPE svg PUBLIC "-//W3C//DTD SVG 1.0//EN" "http://www.w3.org/TR/2001/REC-SVG-20010904/DTD/svg10.dtd">
<!-- generated using polymake; Michael Joswig, Georg Loho, Benjamin Lorenz, Rico Raber; license CC BY-NC-ND 3.0; see polymake.org and matchthenet.de -->
<svg height="841pt" id="document" viewBox="0 -811 540.864054587239 811" width="595pt" xmlns="http://www.w3.org/2000/svg" xmlns:svg="http://www.w3.org/2000/svg" xmlns:xlink="http://www.w3.org/1999/xlink">
	<title id="document_title">planar_net_</title>
	<polygon points="230.494584284356,-347.066250162095 283.222368005293,-347.066250162095 325.880041111258,-378.058863819329 342.173822356754,-428.205966116928 325.880041111258,-478.353068414527 283.222368005293,-509.345682071761 230.494584284356,-509.345682071761 187.83691117839,-478.353068414527 171.543129932894,-428.205966116928 187.83691117839,-378.058863819329 " style="fill: rgb(91,98,49); fill-opacity: 1; stroke: rgb(0,0,0); stroke-width: 3" />
	<polygon points="161.473019317921,-296.9191478645 118.815346211952,-265.926534207271 102.521564966449,-215.779431909675 118.815346211939,-165.632329612077 161.473019317899,-134.639715954841 214.200803038837,-134.639715954836 256.858476144806,-165.632329612066 273.152257390309,-215.779431909661 256.858476144819,-265.926534207259 214.200803038858,-296.919147864496 " style="fill: rgb(91,98,49); fill-opacity: 1; stroke: rgb(0,0,0); stroke-width: 3" />
	<polygon points="299.516149250784,-296.919147864493 283.222368005293,-347.066250162095 230.494584284356,-347.066250162095 214.200803038858,-296.919147864496 256.858476144819,-265.926534207259 " style="fill: rgb(61,81,50); fill-opacity: 1; stroke: rgb(0,0,0); stroke-width: 3" />
	<polygon points="230.494584284356,-347.066250162095 187.83691117839,-378.058863819329 156.844297521154,-335.401190713364 199.501970627112,-304.408577056128 " style="fill: rgb(216,176,92); fill-opacity: 1; stroke: rgb(0,0,0); stroke-width: 3" />
	<polygon points="299.516149250784,-296.919147864493 256.858476144819,-265.926534207259 287.851089802053,-223.268861101291 330.508762908016,-254.261474758518 " style="fill: rgb(216,176,92); fill-opacity: 1; stroke: rgb(0,0,0); stroke-width: 3" />
	<polygon points="325.880041111258,-378.058863819329 283.222368005293,-347.066250162095 314.214981662526,-304.408577056128 356.87265476849,-335.401190713355 " style="fill: rgb(216,176,92); fill-opacity: 1; stroke: rgb(0,0,0); stroke-width: 3" />
	<polygon points="245.193416696065,-91.9820428488642 293.362644005886,-70.5357211013634 287.851089802033,-122.974656506087 " style="fill: rgb(186,59,38); fill-opacity: 1; stroke: rgb(0,0,0); stroke-width: 3" />
	<polygon points="187.83691117839,-378.058863819329 171.543129932894,-428.205966116928 118.815346211953,-428.205966116931 102.521564966453,-378.058863819335 145.179238072421,-347.066250162098 " style="fill: rgb(61,81,50); fill-opacity: 1; stroke: rgb(0,0,0); stroke-width: 3" />
	<polygon points="102.521564966453,-378.058863819335 118.815346211953,-428.205966116931 68.6682439143541,-444.499747362434 52.3744626688506,-394.352645064845 " style="fill: rgb(216,176,92); fill-opacity: 1; stroke: rgb(0,0,0); stroke-width: 3" />
	<polygon points="342.173822356754,-428.205966116928 325.880041111258,-378.058863819329 368.537714217223,-347.066250162094 411.19538732319,-378.058863819323 394.901606077693,-428.205966116922 " style="fill: rgb(61,81,50); fill-opacity: 1; stroke: rgb(0,0,0); stroke-width: 3" />
	<polygon points="187.83691117839,-478.353068414527 230.494584284356,-509.345682071761 214.200803038859,-559.492784369368 161.473019317924,-559.492784369372 145.179238072429,-509.345682071764 " style="fill: rgb(61,81,50); fill-opacity: 1; stroke: rgb(0,0,0); stroke-width: 3" />
	<polygon points="171.543129932894,-428.205966116928 187.83691117839,-478.353068414527 137.68980888079,-494.646849660026 121.39602763529,-444.499747362435 " style="fill: rgb(216,176,92); fill-opacity: 1; stroke: rgb(0,0,0); stroke-width: 3" />
	<polygon points="161.473019317933,-721.772216279053 214.200803038868,-721.77221627905 214.20080303887,-774.499999999992 161.473019317941,-774.5 " style="fill: rgb(216,176,92); fill-opacity: 1; stroke: rgb(0,0,0); stroke-width: 3" />
	<polygon points="325.880041111258,-478.353068414527 342.173822356754,-428.205966116928 392.320924654356,-444.499747362423 376.027143408868,-494.646849660018 " style="fill: rgb(216,176,92); fill-opacity: 1; stroke: rgb(0,0,0); stroke-width: 3" />
	<polygon points="356.87265476849,-335.401190713355 314.214981662526,-304.408577056128 362.384208972351,-282.962255308634 " style="fill: rgb(186,59,38); fill-opacity: 1; stroke: rgb(0,0,0); stroke-width: 3" />
	<polygon points="121.39602763529,-444.499747362435 137.68980888079,-494.646849660026 86.1142537421428,-483.68412699354 " style="fill: rgb(186,59,38); fill-opacity: 1; stroke: rgb(0,0,0); stroke-width: 3" />
	<polygon points="342.173822356737,-165.632329612046 325.880041111247,-215.779431909647 273.152257390309,-215.779431909661 256.858476144806,-165.632329612066 299.516149250767,-134.639715954824 " style="fill: rgb(61,81,50); fill-opacity: 1; stroke: rgb(0,0,0); stroke-width: 3" />
	<polygon points="411.19538732319,-378.058863819323 368.537714217223,-347.066250162094 399.530327874454,-304.408577056124 442.188000980418,-335.401190713344 " style="fill: rgb(216,176,92); fill-opacity: 1; stroke: rgb(0,0,0); stroke-width: 3" />
	<polygon points="352.243932971735,-559.49278436936 368.537714217225,-509.345682071761 418.684816514829,-525.639463317252 402.391035269347,-575.786565614846 " style="fill: rgb(216,176,92); fill-opacity: 1; stroke: rgb(0,0,0); stroke-width: 3" />
	<polygon points="256.858476144824,-590.485398026603 273.152257390322,-640.632500324206 256.858476144829,-690.779602621811 214.200803038868,-721.77221627905 161.473019317933,-721.772216279053 118.815346211968,-690.779602621818 102.52156496647,-640.632500324215 118.815346211963,-590.485398026609 161.473019317924,-559.492784369372 214.200803038859,-559.492784369368 " style="fill: rgb(91,98,49); fill-opacity: 1; stroke: rgb(0,0,0); stroke-width: 3" />
	<polygon points="87.8227325546983,-122.974656506114 130.480405660652,-91.9820428488772 161.473019317899,-134.639715954841 118.815346211939,-165.632329612077 " style="fill: rgb(216,176,92); fill-opacity: 1; stroke: rgb(0,0,0); stroke-width: 3" />
	<polygon points="256.858476144806,-165.632329612066 214.200803038837,-134.639715954836 245.193416696065,-91.9820428488642 287.851089802033,-122.974656506087 " style="fill: rgb(216,176,92); fill-opacity: 1; stroke: rgb(0,0,0); stroke-width: 3" />
	<polygon points="33.5,-165.632329612088 76.1576731059677,-134.639715954858 118.815346211939,-165.632329612077 102.521564966449,-215.779431909675 49.7937812455056,-215.779431909676 " style="fill: rgb(61,81,50); fill-opacity: 1; stroke: rgb(0,0,0); stroke-width: 3" />
	<polygon points="145.179238072429,-509.345682071764 161.473019317924,-559.492784369372 111.325917020323,-575.786565614868 95.0321357748232,-525.639463317268 " style="fill: rgb(216,176,92); fill-opacity: 1; stroke: rgb(0,0,0); stroke-width: 3" />
	<polygon points="394.901606077693,-428.205966116922 411.19538732319,-378.058863819323 461.342489620792,-394.352645064819 445.048708375303,-444.499747362413 " style="fill: rgb(216,176,92); fill-opacity: 1; stroke: rgb(0,0,0); stroke-width: 3" />
	<polygon points="230.494584284356,-509.345682071761 283.222368005293,-509.345682071761 283.222368005296,-562.073465792701 230.494584284365,-562.073465792707 " style="fill: rgb(216,176,92); fill-opacity: 1; stroke: rgb(0,0,0); stroke-width: 3" />
	<polygon points="283.222368005293,-509.345682071761 325.880041111258,-478.353068414527 368.537714217225,-509.345682071761 352.243932971735,-559.49278436936 299.516149250797,-559.492784369359 " style="fill: rgb(61,81,50); fill-opacity: 1; stroke: rgb(0,0,0); stroke-width: 3" />
	<polygon points="145.179238072402,-84.4926136572407 187.836911178363,-53.5 230.494584284328,-84.4926136572321 214.200803038837,-134.639715954836 161.473019317899,-134.639715954841 " style="fill: rgb(61,81,50); fill-opacity: 1; stroke: rgb(0,0,0); stroke-width: 3" />
	<polygon points="445.048708375303,-444.499747362413 461.342489620792,-394.352645064819 514.070273341732,-394.352645064814 530.364054587239,-444.499747362401 487.706381481277,-475.492361019634 " style="fill: rgb(61,81,50); fill-opacity: 1; stroke: rgb(0,0,0); stroke-width: 3" />
	<polygon points="342.173822356737,-165.632329612046 299.516149250767,-134.639715954824 330.50876290799,-91.9820428488474 373.166436013959,-122.974656506063 " style="fill: rgb(216,176,92); fill-opacity: 1; stroke: rgb(0,0,0); stroke-width: 3" />
	<polygon points="411.19538732319,-378.058863819323 442.188000980418,-335.401190713344 463.634322727913,-383.570418023163 " style="fill: rgb(186,59,38); fill-opacity: 1; stroke: rgb(0,0,0); stroke-width: 3" />
	<polygon points="376.027143408868,-494.646849660018 392.320924654356,-444.499747362423 427.602698547512,-483.684126993527 " style="fill: rgb(186,59,38); fill-opacity: 1; stroke: rgb(0,0,0); stroke-width: 3" />
	<circle cx="230.494584284356" cy="-347.066250162095" r="2" style="fill: rgb(0,0,0)" />
	<circle cx="283.222368005293" cy="-347.066250162095" r="2" style="fill: rgb(0,0,0)" />
	<circle cx="325.880041111258" cy="-378.058863819329" r="2" style="fill: rgb(0,0,0)" />
	<circle cx="342.173822356754" cy="-428.205966116928" r="2" style="fill: rgb(0,0,0)" />
	<circle cx="325.880041111258" cy="-478.353068414527" r="2" style="fill: rgb(0,0,0)" />
	<circle cx="283.222368005293" cy="-509.345682071761" r="2" style="fill: rgb(0,0,0)" />
	<circle cx="230.494584284356" cy="-509.345682071761" r="2" style="fill: rgb(0,0,0)" />
	<circle cx="187.83691117839" cy="-478.353068414527" r="2" style="fill: rgb(0,0,0)" />
	<circle cx="171.543129932894" cy="-428.205966116928" r="2" style="fill: rgb(0,0,0)" />
	<circle cx="187.83691117839" cy="-378.058863819329" r="2" style="fill: rgb(0,0,0)" />
	<circle cx="214.200803038858" cy="-296.919147864496" r="2" style="fill: rgb(0,0,0)" />
	<circle cx="256.858476144819" cy="-265.926534207259" r="2" style="fill: rgb(0,0,0)" />
	<circle cx="299.516149250784" cy="-296.919147864493" r="2" style="fill: rgb(0,0,0)" />
	<circle cx="156.844297521154" cy="-335.401190713364" r="2" style="fill: rgb(0,0,0)" />
	<circle cx="199.501970627112" cy="-304.408577056128" r="2" style="fill: rgb(0,0,0)" />
	<circle cx="314.214981662526" cy="-304.408577056128" r="2" style="fill: rgb(0,0,0)" />
	<circle cx="356.87265476849" cy="-335.401190713355" r="2" style="fill: rgb(0,0,0)" />
	<circle cx="118.815346211953" cy="-428.205966116931" r="2" style="fill: rgb(0,0,0)" />
	<circle cx="102.521564966453" cy="-378.058863819335" r="2" style="fill: rgb(0,0,0)" />
	<circle cx="145.179238072421" cy="-347.066250162098" r="2" style="fill: rgb(0,0,0)" />
	<circle cx="368.537714217223" cy="-347.066250162094" r="2" style="fill: rgb(0,0,0)" />
	<circle cx="411.19538732319" cy="-378.058863819323" r="2" style="fill: rgb(0,0,0)" />
	<circle cx="394.901606077693" cy="-428.205966116922" r="2" style="fill: rgb(0,0,0)" />
	<circle cx="214.200803038859" cy="-559.492784369368" r="2" style="fill: rgb(0,0,0)" />
	<circle cx="161.473019317924" cy="-559.492784369372" r="2" style="fill: rgb(0,0,0)" />
	<circle cx="145.179238072429" cy="-509.345682071764" r="2" style="fill: rgb(0,0,0)" />
	<circle cx="137.68980888079" cy="-494.646849660026" r="2" style="fill: rgb(0,0,0)" />
	<circle cx="121.39602763529" cy="-444.499747362435" r="2" style="fill: rgb(0,0,0)" />
	<circle cx="392.320924654356" cy="-444.499747362423" r="2" style="fill: rgb(0,0,0)" />
	<circle cx="376.027143408868" cy="-494.646849660018" r="2" style="fill: rgb(0,0,0)" />
	<circle cx="283.222368005296" cy="-562.073465792701" r="2" style="fill: rgb(0,0,0)" />
	<circle cx="230.494584284365" cy="-562.073465792707" r="2" style="fill: rgb(0,0,0)" />
	<circle cx="368.537714217225" cy="-509.345682071761" r="2" style="fill: rgb(0,0,0)" />
	<circle cx="352.243932971735" cy="-559.49278436936" r="2" style="fill: rgb(0,0,0)" />
	<circle cx="299.516149250797" cy="-559.492784369359" r="2" style="fill: rgb(0,0,0)" />
	<circle cx="161.473019317921" cy="-296.9191478645" r="2" style="fill: rgb(0,0,0)" />
	<circle cx="118.815346211952" cy="-265.926534207271" r="2" style="fill: rgb(0,0,0)" />
	<circle cx="102.521564966449" cy="-215.779431909675" r="2" style="fill: rgb(0,0,0)" />
	<circle cx="118.815346211939" cy="-165.632329612077" r="2" style="fill: rgb(0,0,0)" />
	<circle cx="161.473019317899" cy="-134.639715954841" r="2" style="fill: rgb(0,0,0)" />
	<circle cx="214.200803038837" cy="-134.639715954836" r="2" style="fill: rgb(0,0,0)" />
	<circle cx="256.858476144806" cy="-165.632329612066" r="2" style="fill: rgb(0,0,0)" />
	<circle cx="273.152257390309" cy="-215.779431909661" r="2" style="fill: rgb(0,0,0)" />
	<circle cx="287.851089802053" cy="-223.268861101291" r="2" style="fill: rgb(0,0,0)" />
	<circle cx="330.508762908016" cy="-254.261474758518" r="2" style="fill: rgb(0,0,0)" />
	<circle cx="362.384208972351" cy="-282.962255308634" r="2" style="fill: rgb(0,0,0)" />
	<circle cx="68.6682439143541" cy="-444.499747362434" r="2" style="fill: rgb(0,0,0)" />
	<circle cx="52.3744626688506" cy="-394.352645064845" r="2" style="fill: rgb(0,0,0)" />
	<circle cx="399.530327874454" cy="-304.408577056124" r="2" style="fill: rgb(0,0,0)" />
	<circle cx="442.188000980418" cy="-335.401190713344" r="2" style="fill: rgb(0,0,0)" />
	<circle cx="461.342489620792" cy="-394.352645064819" r="2" style="fill: rgb(0,0,0)" />
	<circle cx="445.048708375303" cy="-444.499747362413" r="2" style="fill: rgb(0,0,0)" />
	<circle cx="256.858476144824" cy="-590.485398026603" r="2" style="fill: rgb(0,0,0)" />
	<circle cx="273.152257390322" cy="-640.632500324206" r="2" style="fill: rgb(0,0,0)" />
	<circle cx="256.858476144829" cy="-690.779602621811" r="2" style="fill: rgb(0,0,0)" />
	<circle cx="214.200803038868" cy="-721.77221627905" r="2" style="fill: rgb(0,0,0)" />
	<circle cx="161.473019317933" cy="-721.772216279053" r="2" style="fill: rgb(0,0,0)" />
	<circle cx="118.815346211968" cy="-690.779602621818" r="2" style="fill: rgb(0,0,0)" />
	<circle cx="102.52156496647" cy="-640.632500324215" r="2" style="fill: rgb(0,0,0)" />
	<circle cx="118.815346211963" cy="-590.485398026609" r="2" style="fill: rgb(0,0,0)" />
	<circle cx="111.325917020323" cy="-575.786565614868" r="2" style="fill: rgb(0,0,0)" />
	<circle cx="95.0321357748232" cy="-525.639463317268" r="2" style="fill: rgb(0,0,0)" />
	<circle cx="86.1142537421428" cy="-483.68412699354" r="2" style="fill: rgb(0,0,0)" />
	<circle cx="427.602698547512" cy="-483.684126993527" r="2" style="fill: rgb(0,0,0)" />
	<circle cx="418.684816514829" cy="-525.639463317252" r="2" style="fill: rgb(0,0,0)" />
	<circle cx="402.391035269347" cy="-575.786565614846" r="2" style="fill: rgb(0,0,0)" />
	<circle cx="299.516149250767" cy="-134.639715954824" r="2" style="fill: rgb(0,0,0)" />
	<circle cx="342.173822356737" cy="-165.632329612046" r="2" style="fill: rgb(0,0,0)" />
	<circle cx="325.880041111247" cy="-215.779431909647" r="2" style="fill: rgb(0,0,0)" />
	<circle cx="87.8227325546983" cy="-122.974656506114" r="2" style="fill: rgb(0,0,0)" />
	<circle cx="130.480405660652" cy="-91.9820428488772" r="2" style="fill: rgb(0,0,0)" />
	<circle cx="245.193416696065" cy="-91.9820428488642" r="2" style="fill: rgb(0,0,0)" />
	<circle cx="287.851089802033" cy="-122.974656506087" r="2" style="fill: rgb(0,0,0)" />
	<circle cx="49.7937812455056" cy="-215.779431909676" r="2" style="fill: rgb(0,0,0)" />
	<circle cx="33.5" cy="-165.632329612088" r="2" style="fill: rgb(0,0,0)" />
	<circle cx="76.1576731059677" cy="-134.639715954858" r="2" style="fill: rgb(0,0,0)" />
	<circle cx="145.179238072402" cy="-84.4926136572407" r="2" style="fill: rgb(0,0,0)" />
	<circle cx="187.836911178363" cy="-53.5" r="2" style="fill: rgb(0,0,0)" />
	<circle cx="230.494584284328" cy="-84.4926136572321" r="2" style="fill: rgb(0,0,0)" />
	<circle cx="463.634322727913" cy="-383.570418023163" r="2" style="fill: rgb(0,0,0)" />
	<circle cx="514.070273341732" cy="-394.352645064814" r="2" style="fill: rgb(0,0,0)" />
	<circle cx="530.364054587239" cy="-444.499747362401" r="2" style="fill: rgb(0,0,0)" />
	<circle cx="487.706381481277" cy="-475.492361019634" r="2" style="fill: rgb(0,0,0)" />
	<circle cx="214.20080303887" cy="-774.499999999992" r="2" style="fill: rgb(0,0,0)" />
	<circle cx="161.473019317941" cy="-774.5" r="2" style="fill: rgb(0,0,0)" />
	<circle cx="330.50876290799" cy="-91.9820428488474" r="2" style="fill: rgb(0,0,0)" />
	<circle cx="373.166436013959" cy="-122.974656506063" r="2" style="fill: rgb(0,0,0)" />
	<circle cx="293.362644005886" cy="-70.5357211013634" r="2" style="fill: rgb(0,0,0)" />
	<!--
	Generated using the Perl SVG Module V2.86
	by Ronan Oger
	Info: http://www.roitsystems.com/
	-->
</svg>