<?xml version="1.0" encoding="UTF-8" standalone="yes"?>
<!DOCTYPE svg PUBLIC "-//W3C//DTD SVG 1.0//EN" "http://www.w3.org/TR/2001/REC-SVG-20010904/DTD/svg10.dtd">
<!-- generated using polymake; Michael Joswig, Georg Loho, Benjamin Lorenz, Rico Raber; license CC BY-NC-ND 3.0; see polymake.org and matchthenet.de -->
<svg height="841pt" id="document" viewBox="0 -502.469621766428 572 502.469621766428" width="595pt" xmlns="http://www.w3.org/2000/svg" xmlns:svg="http://www.w3.org/2000/svg" xmlns:xlink="http://www.w3.org/1999/xlink">
	<title id="document_title">planar_net_</title>
	<polygon points="278.614048024089,-253.598393104119 322.639274030279,-253.598393104119 322.639274030281,-297.623619110311 278.614048024095,-297.623619110315 " style="fill: rgb(186,59,38); fill-opacity: 1; stroke: rgb(0,0,0); stroke-width: 3" />
	<polygon points="336.243817047384,-211.727915029561 322.639274030279,-253.598393104119 278.614048024089,-253.598393104119 265.009505006978,-211.727915029564 300.626661027179,-185.850536454279 " style="fill: rgb(186,59,38); fill-opacity: 1; stroke: rgb(0,0,0); stroke-width: 3" />
	<polygon points="278.614048024089,-253.598393104119 278.614048024095,-297.623619110315 252.736669448819,-333.240775130525 210.866191374267,-346.845318147635 168.995713299711,-333.240775130521 143.118334724424,-297.623619110308 143.118334724418,-253.598393104112 168.995713299694,-217.981237083902 210.866191374246,-204.376694066792 252.736669448802,-217.981237083906 " style="fill: rgb(186,59,38); fill-opacity: 1; stroke: rgb(0,0,0); stroke-width: 3" />
	<polygon points="362.121195622665,-176.110759009347 336.243817047384,-211.727915029561 300.626661027179,-185.850536454279 326.504039602461,-150.233380434071 " style="fill: rgb(186,59,38); fill-opacity: 1; stroke: rgb(0,0,0); stroke-width: 3" />
	<polygon points="458.134987329952,-297.623619110312 458.13498732995,-253.59839310412 500.005465404505,-239.993850087008 525.88284397979,-275.611006107211 500.005465404509,-311.228162127418 " style="fill: rgb(186,59,38); fill-opacity: 1; stroke: rgb(0,0,0); stroke-width: 3" />
	<polygon points="168.995713299711,-333.240775130521 210.866191374267,-346.845318147635 210.866191374264,-390.870544153827 168.995713299708,-404.475087170937 143.118334724428,-368.857931150728 " style="fill: rgb(186,59,38); fill-opacity: 1; stroke: rgb(0,0,0); stroke-width: 3" />
	<polygon points="265.009505006978,-211.727915029564 239.132126431689,-176.11075900936 274.749282451883,-150.233380434074 300.626661027179,-185.850536454279 " style="fill: rgb(186,59,38); fill-opacity: 1; stroke: rgb(0,0,0); stroke-width: 3" />
	<polygon points="326.504039602461,-150.233380434071 300.626661027179,-185.850536454279 282.719988390767,-145.631491214635 " style="fill: rgb(186,59,38); fill-opacity: 1; stroke: rgb(0,0,0); stroke-width: 3" />
	<polygon points="500.005465404509,-311.228162127418 525.88284397979,-275.611006107211 561.5,-301.488384682491 535.622621424724,-337.105540702697 " style="fill: rgb(186,59,38); fill-opacity: 1; stroke: rgb(0,0,0); stroke-width: 3" />
	<polygon points="143.118334724428,-368.857931150728 168.995713299708,-404.475087170937 133.3785572795,-430.35246574622 107.501178704219,-394.735309726017 " style="fill: rgb(186,59,38); fill-opacity: 1; stroke: rgb(0,0,0); stroke-width: 3" />
	<polygon points="210.866191374246,-204.376694066792 168.995713299694,-217.981237083902 143.118334724407,-182.364081063694 168.995713299682,-146.746925043488 210.866191374241,-160.351468060601 " style="fill: rgb(186,59,38); fill-opacity: 1; stroke: rgb(0,0,0); stroke-width: 3" />
	<polygon points="107.501178704216,-323.5009976856 133.378557279504,-359.118153705806 89.5945060678097,-363.72004292525 " style="fill: rgb(186,59,38); fill-opacity: 1; stroke: rgb(0,0,0); stroke-width: 3" />
	<polygon points="168.995713299694,-217.981237083902 143.118334724418,-253.598393104112 107.501178704205,-227.721014528836 133.378557279474,-192.103858508627 " style="fill: rgb(186,59,38); fill-opacity: 1; stroke: rgb(0,0,0); stroke-width: 3" />
	<polygon points="143.118334724418,-253.598393104112 143.118334724424,-297.623619110308 101.247856649871,-311.228162127426 75.3704780745806,-275.611006107222 101.247856649858,-239.993850087009 " style="fill: rgb(186,59,38); fill-opacity: 1; stroke: rgb(0,0,0); stroke-width: 3" />
	<polygon points="75.3704780745806,-275.611006107222 101.247856649871,-311.228162127426 65.6307006296678,-337.105540702717 39.7533220543774,-301.48838468252 " style="fill: rgb(186,59,38); fill-opacity: 1; stroke: rgb(0,0,0); stroke-width: 3" />
	<polygon points="143.118334724424,-297.623619110308 168.995713299711,-333.240775130521 133.378557279504,-359.118153705806 107.501178704216,-323.5009976856 " style="fill: rgb(186,59,38); fill-opacity: 1; stroke: rgb(0,0,0); stroke-width: 3" />
	<polygon points="65.6307006296661,-452.365078749327 65.6307006296671,-408.339852743137 107.501178704219,-394.735309726017 133.3785572795,-430.35246574622 107.501178704218,-465.969621766428 " style="fill: rgb(186,59,38); fill-opacity: 1; stroke: rgb(0,0,0); stroke-width: 3" />
	<polygon points="143.118334724387,-67.1045430171035 168.995713299676,-102.721699037302 168.995713299682,-146.746925043488 143.118334724407,-182.364081063694 101.247856649854,-195.96862408081 59.3773785752959,-182.364081063706 33.5000000000074,-146.746925043507 33.5,-102.721699037321 59.3773785752765,-67.1045430171154 101.247856649829,-53.5 " style="fill: rgb(186,59,38); fill-opacity: 1; stroke: rgb(0,0,0); stroke-width: 3" />
	<polygon points="182.600256316792,-104.876446968932 224.470734391348,-118.480989986038 210.866191374241,-160.351468060601 168.995713299682,-146.746925043488 " style="fill: rgb(186,59,38); fill-opacity: 1; stroke: rgb(0,0,0); stroke-width: 3" />
	<polygon points="173.597602519144,-448.259138382632 133.3785572795,-430.35246574622 168.995713299708,-404.475087170937 " style="fill: rgb(186,59,38); fill-opacity: 1; stroke: rgb(0,0,0); stroke-width: 3" />
	<polygon points="467.874764774886,-359.118153705798 493.752143350162,-323.500997685592 511.658815986588,-363.720042925237 " style="fill: rgb(186,59,38); fill-opacity: 1; stroke: rgb(0,0,0); stroke-width: 3" />
	<polygon points="432.257608754678,-404.475087170932 458.134987329955,-368.857931150725 493.752143350166,-394.735309726004 467.874764774895,-430.352465746209 " style="fill: rgb(186,59,38); fill-opacity: 1; stroke: rgb(0,0,0); stroke-width: 3" />
	<polygon points="458.13498732995,-253.59839310412 432.257608754668,-217.981237083913 467.874764774874,-192.103858508629 493.752143350157,-227.72101452883 " style="fill: rgb(186,59,38); fill-opacity: 1; stroke: rgb(0,0,0); stroke-width: 3" />
	<polygon points="432.257608754668,-217.981237083913 390.387130680113,-204.376694066801 390.387130680118,-160.351468060608 432.257608754668,-146.746925043495 458.134987329943,-182.364081063705 " style="fill: rgb(186,59,38); fill-opacity: 1; stroke: rgb(0,0,0); stroke-width: 3" />
	<polygon points="224.470734391375,-432.741022228383 182.600256316826,-446.345565245495 168.995713299708,-404.475087170937 210.866191374264,-390.870544153827 " style="fill: rgb(186,59,38); fill-opacity: 1; stroke: rgb(0,0,0); stroke-width: 3" />
	<polygon points="432.257608754671,-333.240775130519 458.134987329952,-297.623619110312 493.752143350162,-323.500997685592 467.874764774886,-359.118153705798 " style="fill: rgb(186,59,38); fill-opacity: 1; stroke: rgb(0,0,0); stroke-width: 3" />
	<polygon points="266.341212465931,-375.11125320508 257.187853288355,-418.174422394805 224.470734391385,-388.715796222193 " style="fill: rgb(186,59,38); fill-opacity: 1; stroke: rgb(0,0,0); stroke-width: 3" />
	<polygon points="252.736669448819,-333.240775130525 266.341212465931,-375.11125320508 224.470734391385,-388.715796222193 210.866191374267,-346.845318147635 " style="fill: rgb(186,59,38); fill-opacity: 1; stroke: rgb(0,0,0); stroke-width: 3" />
	<polygon points="390.387130680118,-346.845318147629 432.257608754671,-333.240775130519 458.134987329955,-368.857931150725 432.257608754678,-404.475087170932 390.387130680123,-390.870544153821 " style="fill: rgb(186,59,38); fill-opacity: 1; stroke: rgb(0,0,0); stroke-width: 3" />
	<polygon points="336.243817047392,-339.494097184865 362.121195622685,-375.111253205066 326.504039602493,-400.988631780355 300.626661027194,-365.371475760154 " style="fill: rgb(186,59,38); fill-opacity: 1; stroke: rgb(0,0,0); stroke-width: 3" />
	<polygon points="278.614048024095,-297.623619110315 322.639274030281,-297.623619110311 336.243817047392,-339.494097184865 300.626661027194,-365.371475760154 265.009505006991,-339.494097184875 " style="fill: rgb(186,59,38); fill-opacity: 1; stroke: rgb(0,0,0); stroke-width: 3" />
	<polygon points="322.639274030281,-297.623619110311 322.639274030279,-253.598393104119 348.516652605559,-217.981237083912 390.387130680113,-204.376694066801 432.257608754668,-217.981237083913 458.13498732995,-253.59839310412 458.134987329952,-297.623619110312 432.257608754671,-333.240775130519 390.387130680118,-346.845318147629 348.516652605563,-333.240775130518 " style="fill: rgb(186,59,38); fill-opacity: 1; stroke: rgb(0,0,0); stroke-width: 3" />
	<circle cx="278.614048024089" cy="-253.598393104119" r="2" style="fill: rgb(0,0,0)" />
	<circle cx="322.639274030279" cy="-253.598393104119" r="2" style="fill: rgb(0,0,0)" />
	<circle cx="322.639274030281" cy="-297.623619110311" r="2" style="fill: rgb(0,0,0)" />
	<circle cx="278.614048024095" cy="-297.623619110315" r="2" style="fill: rgb(0,0,0)" />
	<circle cx="265.009505006978" cy="-211.727915029564" r="2" style="fill: rgb(0,0,0)" />
	<circle cx="300.626661027179" cy="-185.850536454279" r="2" style="fill: rgb(0,0,0)" />
	<circle cx="336.243817047384" cy="-211.727915029561" r="2" style="fill: rgb(0,0,0)" />
	<circle cx="252.736669448819" cy="-333.240775130525" r="2" style="fill: rgb(0,0,0)" />
	<circle cx="210.866191374267" cy="-346.845318147635" r="2" style="fill: rgb(0,0,0)" />
	<circle cx="168.995713299711" cy="-333.240775130521" r="2" style="fill: rgb(0,0,0)" />
	<circle cx="143.118334724424" cy="-297.623619110308" r="2" style="fill: rgb(0,0,0)" />
	<circle cx="143.118334724418" cy="-253.598393104112" r="2" style="fill: rgb(0,0,0)" />
	<circle cx="168.995713299694" cy="-217.981237083902" r="2" style="fill: rgb(0,0,0)" />
	<circle cx="210.866191374246" cy="-204.376694066792" r="2" style="fill: rgb(0,0,0)" />
	<circle cx="252.736669448802" cy="-217.981237083906" r="2" style="fill: rgb(0,0,0)" />
	<circle cx="336.243817047392" cy="-339.494097184865" r="2" style="fill: rgb(0,0,0)" />
	<circle cx="300.626661027194" cy="-365.371475760154" r="2" style="fill: rgb(0,0,0)" />
	<circle cx="265.009505006991" cy="-339.494097184875" r="2" style="fill: rgb(0,0,0)" />
	<circle cx="348.516652605559" cy="-217.981237083912" r="2" style="fill: rgb(0,0,0)" />
	<circle cx="390.387130680113" cy="-204.376694066801" r="2" style="fill: rgb(0,0,0)" />
	<circle cx="432.257608754668" cy="-217.981237083913" r="2" style="fill: rgb(0,0,0)" />
	<circle cx="458.13498732995" cy="-253.59839310412" r="2" style="fill: rgb(0,0,0)" />
	<circle cx="458.134987329952" cy="-297.623619110312" r="2" style="fill: rgb(0,0,0)" />
	<circle cx="432.257608754671" cy="-333.240775130519" r="2" style="fill: rgb(0,0,0)" />
	<circle cx="390.387130680118" cy="-346.845318147629" r="2" style="fill: rgb(0,0,0)" />
	<circle cx="348.516652605563" cy="-333.240775130518" r="2" style="fill: rgb(0,0,0)" />
	<circle cx="326.504039602461" cy="-150.233380434071" r="2" style="fill: rgb(0,0,0)" />
	<circle cx="362.121195622665" cy="-176.110759009347" r="2" style="fill: rgb(0,0,0)" />
	<circle cx="239.132126431689" cy="-176.11075900936" r="2" style="fill: rgb(0,0,0)" />
	<circle cx="274.749282451883" cy="-150.233380434074" r="2" style="fill: rgb(0,0,0)" />
	<circle cx="210.866191374264" cy="-390.870544153827" r="2" style="fill: rgb(0,0,0)" />
	<circle cx="168.995713299708" cy="-404.475087170937" r="2" style="fill: rgb(0,0,0)" />
	<circle cx="143.118334724428" cy="-368.857931150728" r="2" style="fill: rgb(0,0,0)" />
	<circle cx="143.118334724407" cy="-182.364081063694" r="2" style="fill: rgb(0,0,0)" />
	<circle cx="168.995713299682" cy="-146.746925043488" r="2" style="fill: rgb(0,0,0)" />
	<circle cx="210.866191374241" cy="-160.351468060601" r="2" style="fill: rgb(0,0,0)" />
	<circle cx="107.501178704205" cy="-227.721014528836" r="2" style="fill: rgb(0,0,0)" />
	<circle cx="133.378557279474" cy="-192.103858508627" r="2" style="fill: rgb(0,0,0)" />
	<circle cx="101.247856649871" cy="-311.228162127426" r="2" style="fill: rgb(0,0,0)" />
	<circle cx="75.3704780745806" cy="-275.611006107222" r="2" style="fill: rgb(0,0,0)" />
	<circle cx="101.247856649858" cy="-239.993850087009" r="2" style="fill: rgb(0,0,0)" />
	<circle cx="133.378557279504" cy="-359.118153705806" r="2" style="fill: rgb(0,0,0)" />
	<circle cx="107.501178704216" cy="-323.5009976856" r="2" style="fill: rgb(0,0,0)" />
	<circle cx="266.341212465931" cy="-375.11125320508" r="2" style="fill: rgb(0,0,0)" />
	<circle cx="224.470734391385" cy="-388.715796222193" r="2" style="fill: rgb(0,0,0)" />
	<circle cx="362.121195622685" cy="-375.111253205066" r="2" style="fill: rgb(0,0,0)" />
	<circle cx="326.504039602493" cy="-400.988631780355" r="2" style="fill: rgb(0,0,0)" />
	<circle cx="500.005465404505" cy="-239.993850087008" r="2" style="fill: rgb(0,0,0)" />
	<circle cx="525.88284397979" cy="-275.611006107211" r="2" style="fill: rgb(0,0,0)" />
	<circle cx="500.005465404509" cy="-311.228162127418" r="2" style="fill: rgb(0,0,0)" />
	<circle cx="467.874764774874" cy="-192.103858508629" r="2" style="fill: rgb(0,0,0)" />
	<circle cx="493.752143350157" cy="-227.72101452883" r="2" style="fill: rgb(0,0,0)" />
	<circle cx="390.387130680118" cy="-160.351468060608" r="2" style="fill: rgb(0,0,0)" />
	<circle cx="432.257608754668" cy="-146.746925043495" r="2" style="fill: rgb(0,0,0)" />
	<circle cx="458.134987329943" cy="-182.364081063705" r="2" style="fill: rgb(0,0,0)" />
	<circle cx="493.752143350162" cy="-323.500997685592" r="2" style="fill: rgb(0,0,0)" />
	<circle cx="467.874764774886" cy="-359.118153705798" r="2" style="fill: rgb(0,0,0)" />
	<circle cx="458.134987329955" cy="-368.857931150725" r="2" style="fill: rgb(0,0,0)" />
	<circle cx="432.257608754678" cy="-404.475087170932" r="2" style="fill: rgb(0,0,0)" />
	<circle cx="390.387130680123" cy="-390.870544153821" r="2" style="fill: rgb(0,0,0)" />
	<circle cx="282.719988390767" cy="-145.631491214635" r="2" style="fill: rgb(0,0,0)" />
	<circle cx="133.3785572795" cy="-430.35246574622" r="2" style="fill: rgb(0,0,0)" />
	<circle cx="107.501178704219" cy="-394.735309726017" r="2" style="fill: rgb(0,0,0)" />
	<circle cx="224.470734391375" cy="-432.741022228383" r="2" style="fill: rgb(0,0,0)" />
	<circle cx="182.600256316826" cy="-446.345565245495" r="2" style="fill: rgb(0,0,0)" />
	<circle cx="101.247856649854" cy="-195.96862408081" r="2" style="fill: rgb(0,0,0)" />
	<circle cx="59.3773785752959" cy="-182.364081063706" r="2" style="fill: rgb(0,0,0)" />
	<circle cx="33.5000000000074" cy="-146.746925043507" r="2" style="fill: rgb(0,0,0)" />
	<circle cx="33.5" cy="-102.721699037321" r="2" style="fill: rgb(0,0,0)" />
	<circle cx="59.3773785752765" cy="-67.1045430171154" r="2" style="fill: rgb(0,0,0)" />
	<circle cx="101.247856649829" cy="-53.5" r="2" style="fill: rgb(0,0,0)" />
	<circle cx="143.118334724387" cy="-67.1045430171035" r="2" style="fill: rgb(0,0,0)" />
	<circle cx="168.995713299676" cy="-102.721699037302" r="2" style="fill: rgb(0,0,0)" />
	<circle cx="182.600256316792" cy="-104.876446968932" r="2" style="fill: rgb(0,0,0)" />
	<circle cx="224.470734391348" cy="-118.480989986038" r="2" style="fill: rgb(0,0,0)" />
	<circle cx="65.6307006296678" cy="-337.105540702717" r="2" style="fill: rgb(0,0,0)" />
	<circle cx="39.7533220543774" cy="-301.48838468252" r="2" style="fill: rgb(0,0,0)" />
	<circle cx="89.5945060678097" cy="-363.72004292525" r="2" style="fill: rgb(0,0,0)" />
	<circle cx="257.187853288355" cy="-418.174422394805" r="2" style="fill: rgb(0,0,0)" />
	<circle cx="561.5" cy="-301.488384682491" r="2" style="fill: rgb(0,0,0)" />
	<circle cx="535.622621424724" cy="-337.105540702697" r="2" style="fill: rgb(0,0,0)" />
	<circle cx="511.658815986588" cy="-363.720042925237" r="2" style="fill: rgb(0,0,0)" />
	<circle cx="493.752143350166" cy="-394.735309726004" r="2" style="fill: rgb(0,0,0)" />
	<circle cx="467.874764774895" cy="-430.352465746209" r="2" style="fill: rgb(0,0,0)" />
	<circle cx="107.501178704218" cy="-465.969621766428" r="2" style="fill: rgb(0,0,0)" />
	<circle cx="65.6307006296661" cy="-452.365078749327" r="2" style="fill: rgb(0,0,0)" />
	<circle cx="65.6307006296671" cy="-408.339852743137" r="2" style="fill: rgb(0,0,0)" />
	<circle cx="173.597602519144" cy="-448.259138382632" r="2" style="fill: rgb(0,0,0)" />
	<!--
	Generated using the Perl SVG Module V2.84
	by Ronan Oger
	Info: http://www.roitsystems.com/
	-->
</svg>