<?xml version="1.0" encoding="UTF-8" standalone="yes"?>
<!DOCTYPE svg PUBLIC "-//W3C//DTD SVG 1.0//EN" "http://www.w3.org/TR/2001/REC-SVG-20010904/DTD/svg10.dtd">
<!-- generated using polymake; Michael Joswig, Georg Loho, Benjamin Lorenz, Rico Raber; license CC BY-NC-ND 3.0; see polymake.org and matchthenet.de -->
<svg height="841pt" id="document" viewBox="0 -557.07301543047 572 557.07301543047" width="595pt" xmlns="http://www.w3.org/2000/svg" xmlns:svg="http://www.w3.org/2000/svg" xmlns:xlink="http://www.w3.org/1999/xlink">
	<title id="document_title">planar_net_</title>
	<polygon points="280.532941082591,-287.036507715231 329.433033745135,-287.036507715231 324.71325389452,-394.596220797553 " style="fill: rgb(14,173,105); fill-opacity: 1; stroke: rgb(0,0,0); stroke-width: 3" />
	<polygon points="324.71325389452,-179.47679463291 329.433033745135,-287.036507715231 280.532941082591,-287.036507715231 " style="fill: rgb(14,173,105); fill-opacity: 1; stroke: rgb(0,0,0); stroke-width: 3" />
	<polygon points="324.71325389452,-394.596220797553 329.433033745135,-287.036507715231 378.145173754765,-291.319786609692 " style="fill: rgb(14,173,105); fill-opacity: 1; stroke: rgb(0,0,0); stroke-width: 3" />
	<polygon points="280.532941082591,-287.036507715231 324.71325389452,-394.596220797553 244.347540864773,-321.4969872319 " style="fill: rgb(14,173,105); fill-opacity: 1; stroke: rgb(0,0,0); stroke-width: 3" />
	<polygon points="378.145173754764,-282.753228820771 329.433033745135,-287.036507715231 324.71325389452,-179.47679463291 " style="fill: rgb(14,173,105); fill-opacity: 1; stroke: rgb(0,0,0); stroke-width: 3" />
	<polygon points="280.532941082591,-287.036507715231 244.347540864773,-252.576028198561 324.71325389452,-179.47679463291 " style="fill: rgb(14,173,105); fill-opacity: 1; stroke: rgb(0,0,0); stroke-width: 3" />
	<polygon points="324.71325389452,-394.596220797553 378.145173754765,-291.319786609692 411.173013768352,-328.817381485623 " style="fill: rgb(14,173,105); fill-opacity: 1; stroke: rgb(0,0,0); stroke-width: 3" />
	<polygon points="280.532941082591,-287.036507715231 244.347540864773,-321.4969872319 222.767490575232,-296.162440877803 235.486652004609,-265.409217599585 " style="fill: rgb(14,173,105); fill-opacity: 1; stroke: rgb(0,0,0); stroke-width: 3" />
	<polygon points="378.145173754764,-282.753228820771 324.71325389452,-179.47679463291 411.173013768351,-245.255633944842 " style="fill: rgb(14,173,105); fill-opacity: 1; stroke: rgb(0,0,0); stroke-width: 3" />
	<polygon points="244.347540864773,-321.4969872319 324.71325389452,-394.596220797553 210.333630745546,-361.675765083166 " style="fill: rgb(14,173,105); fill-opacity: 1; stroke: rgb(0,0,0); stroke-width: 3" />
	<polygon points="411.173013768352,-328.817381485623 378.145173754765,-291.319786609692 424.912709995633,-273.721338058687 434.889233834053,-305.470460590938 " style="fill: rgb(14,173,105); fill-opacity: 1; stroke: rgb(0,0,0); stroke-width: 3" />
	<polygon points="244.347540864773,-321.4969872319 203.348423708047,-354.517475774461 188.955411212459,-302.964057246164 222.767490575232,-296.162440877803 " style="fill: rgb(14,173,105); fill-opacity: 1; stroke: rgb(0,0,0); stroke-width: 3" />
	<polygon points="244.347540864773,-252.576028198561 210.333630745549,-212.397250347293 324.71325389452,-179.47679463291 " style="fill: rgb(14,173,105); fill-opacity: 1; stroke: rgb(0,0,0); stroke-width: 3" />
	<polygon points="324.71325389452,-394.596220797553 411.173013768352,-328.817381485623 441.536830276299,-371.821089677964 " style="fill: rgb(14,173,105); fill-opacity: 1; stroke: rgb(0,0,0); stroke-width: 3" />
	<polygon points="210.333630745546,-361.675765083166 324.71325389452,-394.596220797553 215.904153717978,-415.727233040427 " style="fill: rgb(14,173,105); fill-opacity: 1; stroke: rgb(0,0,0); stroke-width: 3" />
	<polygon points="235.486652004609,-265.409217599585 222.767490575232,-296.162440877803 188.505366866473,-300.115360687569 186.304988647629,-246.635718707233 " style="fill: rgb(14,173,105); fill-opacity: 1; stroke: rgb(0,0,0); stroke-width: 3" />
	<polygon points="411.173013768352,-328.817381485623 434.889233834053,-305.470460590938 467.975582673162,-315.207617083153 449.122201029757,-365.302165401924 " style="fill: rgb(14,173,105); fill-opacity: 1; stroke: rgb(0,0,0); stroke-width: 3" />
	<polygon points="411.173013768351,-245.255633944842 324.71325389452,-179.47679463291 441.536830276299,-202.251925752504 " style="fill: rgb(14,173,105); fill-opacity: 1; stroke: rgb(0,0,0); stroke-width: 3" />
	<polygon points="188.955411212459,-302.964057246164 203.348423708047,-354.517475774461 158.884613698822,-350.362682668573 145.360031859134,-316.577715209946 " style="fill: rgb(14,173,105); fill-opacity: 1; stroke: rgb(0,0,0); stroke-width: 3" />
	<polygon points="324.71325389452,-179.47679463291 210.333630745549,-212.397250347293 215.904153717988,-158.345782390031 " style="fill: rgb(14,173,105); fill-opacity: 1; stroke: rgb(0,0,0); stroke-width: 3" />
	<polygon points="324.71325389452,-394.596220797553 441.536830276299,-371.821089677964 431.253217720665,-425.176869377327 " style="fill: rgb(14,173,105); fill-opacity: 1; stroke: rgb(0,0,0); stroke-width: 3" />
	<polygon points="434.889233834053,-305.470460590938 424.912709995633,-273.721338058687 475.54975520575,-259.327939446514 468.673421535626,-312.409290276234 " style="fill: rgb(14,173,105); fill-opacity: 1; stroke: rgb(0,0,0); stroke-width: 3" />
	<polygon points="215.904153717978,-415.727233040427 324.71325389452,-394.596220797553 229.820208921524,-470.111607898241 " style="fill: rgb(14,173,105); fill-opacity: 1; stroke: rgb(0,0,0); stroke-width: 3" />
	<polygon points="210.333630745546,-361.675765083166 215.904153717978,-415.727233040427 169.191431108693,-418.451128781695 170.322663990863,-381.510463105699 " style="fill: rgb(14,173,105); fill-opacity: 1; stroke: rgb(0,0,0); stroke-width: 3" />
	<polygon points="186.304988647629,-246.635718707233 188.505366866473,-300.115360687569 142.836448448628,-300.603904093479 145.287433710399,-264.295075809367 " style="fill: rgb(14,173,105); fill-opacity: 1; stroke: rgb(0,0,0); stroke-width: 3" />
	<polygon points="449.122201029757,-365.302165401924 467.975582673162,-315.207617083153 500.724538093071,-328.683895144494 504.079936359509,-365.001722831752 " style="fill: rgb(14,173,105); fill-opacity: 1; stroke: rgb(0,0,0); stroke-width: 3" />
	<polygon points="441.536830276299,-202.251925752504 324.71325389452,-179.47679463291 431.253217720672,-148.896146053141 " style="fill: rgb(14,173,105); fill-opacity: 1; stroke: rgb(0,0,0); stroke-width: 3" />
	<polygon points="324.71325389452,-394.596220797553 431.253217720665,-425.176869377327 412.626989734575,-478.13327080448 " style="fill: rgb(14,173,105); fill-opacity: 1; stroke: rgb(0,0,0); stroke-width: 3" />
	<polygon points="324.71325389452,-179.47679463291 215.904153717988,-158.345782390031 229.82020892153,-103.961407532214 " style="fill: rgb(14,173,105); fill-opacity: 1; stroke: rgb(0,0,0); stroke-width: 3" />
	<polygon points="210.333630745549,-212.397250347293 170.322663990865,-192.562552324761 169.191431108702,-155.621886648776 215.904153717988,-158.345782390031 " style="fill: rgb(14,173,105); fill-opacity: 1; stroke: rgb(0,0,0); stroke-width: 3" />
	<polygon points="431.253217720665,-425.176869377327 441.536830276299,-371.821089677964 488.449656945825,-400.45026417161 467.241737637424,-430.467029448069 " style="fill: rgb(14,173,105); fill-opacity: 1; stroke: rgb(0,0,0); stroke-width: 3" />
	<polygon points="468.673421535626,-312.409290276234 475.54975520575,-259.327939446514 523.931091950885,-285.398788935289 503.915440175282,-315.888409947108 " style="fill: rgb(14,173,105); fill-opacity: 1; stroke: rgb(0,0,0); stroke-width: 3" />
	<polygon points="215.904153717978,-415.727233040427 229.820208921524,-470.111607898241 183.352854200548,-463.940413730669 170.931798100149,-428.649511932508 " style="fill: rgb(14,173,105); fill-opacity: 1; stroke: rgb(0,0,0); stroke-width: 3" />
	<polygon points="431.253217720672,-148.896146053141 324.71325389452,-179.47679463291 412.626989734577,-95.9397446259916 " style="fill: rgb(14,173,105); fill-opacity: 1; stroke: rgb(0,0,0); stroke-width: 3" />
	<polygon points="441.536830276299,-202.251925752504 431.253217720672,-148.896146053141 467.241737637427,-143.605985982395 488.449656945828,-173.622751258851 " style="fill: rgb(14,173,105); fill-opacity: 1; stroke: rgb(0,0,0); stroke-width: 3" />
	<polygon points="431.253217720665,-425.176869377327 465.199574623126,-438.246077938816 470.013618350447,-475.58767685293 412.626989734575,-478.13327080448 " style="fill: rgb(14,173,105); fill-opacity: 1; stroke: rgb(0,0,0); stroke-width: 3" />
	<polygon points="215.904153717988,-158.345782390031 170.931798100157,-145.423503497964 183.352854200555,-110.132601699806 229.82020892153,-103.961407532214 " style="fill: rgb(14,173,105); fill-opacity: 1; stroke: rgb(0,0,0); stroke-width: 3" />
	<polygon points="500.724538093071,-328.683895144494 530.7884862552,-308.034383616315 561.5,-357.177844118244 504.079936359509,-365.001722831752 " style="fill: rgb(14,173,105); fill-opacity: 1; stroke: rgb(0,0,0); stroke-width: 3" />
	<polygon points="183.352854200548,-463.940413730669 229.820208921524,-470.111607898241 202.372958743618,-520.57301543047 160.86036862638,-494.9175371031 " style="fill: rgb(14,173,105); fill-opacity: 1; stroke: rgb(0,0,0); stroke-width: 3" />
	<polygon points="431.253217720672,-148.896146053141 412.626989734577,-95.9397446259916 470.013618350442,-98.4853385775222 465.199574623131,-135.826937491642 " style="fill: rgb(14,173,105); fill-opacity: 1; stroke: rgb(0,0,0); stroke-width: 3" />
	<polygon points="467.241737637424,-430.467029448069 488.449656945825,-400.45026417161 534.629929779644,-435.459679870766 483.63669334912,-464.360619604375 " style="fill: rgb(14,173,105); fill-opacity: 1; stroke: rgb(0,0,0); stroke-width: 3" />
	<polygon points="183.352854200555,-110.132601699806 160.86036862637,-79.1554783273991 202.372958743581,-53.5 229.82020892153,-103.961407532214 " style="fill: rgb(14,173,105); fill-opacity: 1; stroke: rgb(0,0,0); stroke-width: 3" />
	<polygon points="488.449656945828,-173.622751258851 467.241737637427,-143.605985982395 483.636693349112,-109.712395826088 534.629929779635,-138.613335559687 " style="fill: rgb(14,173,105); fill-opacity: 1; stroke: rgb(0,0,0); stroke-width: 3" />
	<polygon points="483.63669334912,-464.360619604375 534.629929779644,-435.459679870766 540.963689502913,-483.451507495385 509.501411128835,-505.743165207857 " style="fill: rgb(14,173,105); fill-opacity: 1; stroke: rgb(0,0,0); stroke-width: 3" />
	<polygon points="534.629929779635,-138.613335559687 483.636693349112,-109.712395826088 509.501411128813,-68.3298502225979 540.963689502892,-90.6215079350614 " style="fill: rgb(14,173,105); fill-opacity: 1; stroke: rgb(0,0,0); stroke-width: 3" />
	<polygon points="158.884613698822,-350.362682668573 135.607754505779,-379.069481419507 92.4502781801336,-339.997931085601 145.360031859134,-316.577715209946 " style="fill: rgb(14,173,105); fill-opacity: 1; stroke: rgb(0,0,0); stroke-width: 3" />
	<polygon points="135.607754505779,-379.069481419507 109.518364024462,-405.88503826046 72.6519490969323,-395.571865609727 92.4502781801336,-339.997931085601 " style="fill: rgb(14,173,105); fill-opacity: 1; stroke: rgb(0,0,0); stroke-width: 3" />
	<polygon points="145.287433710399,-264.295075809367 142.836448448628,-300.603904093479 85.2837007268946,-294.634835848487 114.29471450498,-244.161923431422 " style="fill: rgb(14,173,105); fill-opacity: 1; stroke: rgb(0,0,0); stroke-width: 3" />
	<polygon points="92.4502781801336,-339.997931085601 72.6519490969323,-395.571865609727 37.0794321438233,-380.692719072378 33.5,-342.300263699133 " style="fill: rgb(14,173,105); fill-opacity: 1; stroke: rgb(0,0,0); stroke-width: 3" />
	<polygon points="114.29471450498,-244.161923431422 85.2837007268946,-294.634835848487 49.3177401304234,-247.870685996799 81.2094536444375,-226.694928894096 " style="fill: rgb(14,173,105); fill-opacity: 1; stroke: rgb(0,0,0); stroke-width: 3" />
	<circle cx="280.532941082591" cy="-287.036507715231" r="2" style="fill: rgb(0,0,0)" />
	<circle cx="329.433033745135" cy="-287.036507715231" r="2" style="fill: rgb(0,0,0)" />
	<circle cx="324.71325389452" cy="-394.596220797553" r="2" style="fill: rgb(0,0,0)" />
	<circle cx="324.71325389452" cy="-179.47679463291" r="2" style="fill: rgb(0,0,0)" />
	<circle cx="378.145173754765" cy="-291.319786609692" r="2" style="fill: rgb(0,0,0)" />
	<circle cx="244.347540864773" cy="-321.4969872319" r="2" style="fill: rgb(0,0,0)" />
	<circle cx="378.145173754764" cy="-282.753228820771" r="2" style="fill: rgb(0,0,0)" />
	<circle cx="244.347540864773" cy="-252.576028198561" r="2" style="fill: rgb(0,0,0)" />
	<circle cx="411.173013768352" cy="-328.817381485623" r="2" style="fill: rgb(0,0,0)" />
	<circle cx="222.767490575232" cy="-296.162440877803" r="2" style="fill: rgb(0,0,0)" />
	<circle cx="235.486652004609" cy="-265.409217599585" r="2" style="fill: rgb(0,0,0)" />
	<circle cx="210.333630745546" cy="-361.675765083166" r="2" style="fill: rgb(0,0,0)" />
	<circle cx="411.173013768351" cy="-245.255633944842" r="2" style="fill: rgb(0,0,0)" />
	<circle cx="210.333630745549" cy="-212.397250347293" r="2" style="fill: rgb(0,0,0)" />
	<circle cx="424.912709995633" cy="-273.721338058687" r="2" style="fill: rgb(0,0,0)" />
	<circle cx="434.889233834053" cy="-305.470460590938" r="2" style="fill: rgb(0,0,0)" />
	<circle cx="441.536830276299" cy="-371.821089677964" r="2" style="fill: rgb(0,0,0)" />
	<circle cx="203.348423708047" cy="-354.517475774461" r="2" style="fill: rgb(0,0,0)" />
	<circle cx="188.955411212459" cy="-302.964057246164" r="2" style="fill: rgb(0,0,0)" />
	<circle cx="188.505366866473" cy="-300.115360687569" r="2" style="fill: rgb(0,0,0)" />
	<circle cx="186.304988647629" cy="-246.635718707233" r="2" style="fill: rgb(0,0,0)" />
	<circle cx="215.904153717978" cy="-415.727233040427" r="2" style="fill: rgb(0,0,0)" />
	<circle cx="441.536830276299" cy="-202.251925752504" r="2" style="fill: rgb(0,0,0)" />
	<circle cx="215.904153717988" cy="-158.345782390031" r="2" style="fill: rgb(0,0,0)" />
	<circle cx="467.975582673162" cy="-315.207617083153" r="2" style="fill: rgb(0,0,0)" />
	<circle cx="449.122201029757" cy="-365.302165401924" r="2" style="fill: rgb(0,0,0)" />
	<circle cx="475.54975520575" cy="-259.327939446514" r="2" style="fill: rgb(0,0,0)" />
	<circle cx="468.673421535626" cy="-312.409290276234" r="2" style="fill: rgb(0,0,0)" />
	<circle cx="431.253217720665" cy="-425.176869377327" r="2" style="fill: rgb(0,0,0)" />
	<circle cx="158.884613698822" cy="-350.362682668573" r="2" style="fill: rgb(0,0,0)" />
	<circle cx="145.360031859134" cy="-316.577715209946" r="2" style="fill: rgb(0,0,0)" />
	<circle cx="142.836448448628" cy="-300.603904093479" r="2" style="fill: rgb(0,0,0)" />
	<circle cx="145.287433710399" cy="-264.295075809367" r="2" style="fill: rgb(0,0,0)" />
	<circle cx="229.820208921524" cy="-470.111607898241" r="2" style="fill: rgb(0,0,0)" />
	<circle cx="169.191431108693" cy="-418.451128781695" r="2" style="fill: rgb(0,0,0)" />
	<circle cx="170.322663990863" cy="-381.510463105699" r="2" style="fill: rgb(0,0,0)" />
	<circle cx="431.253217720672" cy="-148.896146053141" r="2" style="fill: rgb(0,0,0)" />
	<circle cx="229.82020892153" cy="-103.961407532214" r="2" style="fill: rgb(0,0,0)" />
	<circle cx="170.322663990865" cy="-192.562552324761" r="2" style="fill: rgb(0,0,0)" />
	<circle cx="169.191431108702" cy="-155.621886648776" r="2" style="fill: rgb(0,0,0)" />
	<circle cx="500.724538093071" cy="-328.683895144494" r="2" style="fill: rgb(0,0,0)" />
	<circle cx="504.079936359509" cy="-365.001722831752" r="2" style="fill: rgb(0,0,0)" />
	<circle cx="523.931091950885" cy="-285.398788935289" r="2" style="fill: rgb(0,0,0)" />
	<circle cx="503.915440175282" cy="-315.888409947108" r="2" style="fill: rgb(0,0,0)" />
	<circle cx="412.626989734575" cy="-478.13327080448" r="2" style="fill: rgb(0,0,0)" />
	<circle cx="488.449656945825" cy="-400.45026417161" r="2" style="fill: rgb(0,0,0)" />
	<circle cx="467.241737637424" cy="-430.467029448069" r="2" style="fill: rgb(0,0,0)" />
	<circle cx="135.607754505779" cy="-379.069481419507" r="2" style="fill: rgb(0,0,0)" />
	<circle cx="92.4502781801336" cy="-339.997931085601" r="2" style="fill: rgb(0,0,0)" />
	<circle cx="85.2837007268946" cy="-294.634835848487" r="2" style="fill: rgb(0,0,0)" />
	<circle cx="114.29471450498" cy="-244.161923431422" r="2" style="fill: rgb(0,0,0)" />
	<circle cx="183.352854200548" cy="-463.940413730669" r="2" style="fill: rgb(0,0,0)" />
	<circle cx="170.931798100149" cy="-428.649511932508" r="2" style="fill: rgb(0,0,0)" />
	<circle cx="412.626989734577" cy="-95.9397446259916" r="2" style="fill: rgb(0,0,0)" />
	<circle cx="467.241737637427" cy="-143.605985982395" r="2" style="fill: rgb(0,0,0)" />
	<circle cx="488.449656945828" cy="-173.622751258851" r="2" style="fill: rgb(0,0,0)" />
	<circle cx="170.931798100157" cy="-145.423503497964" r="2" style="fill: rgb(0,0,0)" />
	<circle cx="183.352854200555" cy="-110.132601699806" r="2" style="fill: rgb(0,0,0)" />
	<circle cx="530.7884862552" cy="-308.034383616315" r="2" style="fill: rgb(0,0,0)" />
	<circle cx="561.5" cy="-357.177844118244" r="2" style="fill: rgb(0,0,0)" />
	<circle cx="465.199574623126" cy="-438.246077938816" r="2" style="fill: rgb(0,0,0)" />
	<circle cx="470.013618350447" cy="-475.58767685293" r="2" style="fill: rgb(0,0,0)" />
	<circle cx="534.629929779644" cy="-435.459679870766" r="2" style="fill: rgb(0,0,0)" />
	<circle cx="483.63669334912" cy="-464.360619604375" r="2" style="fill: rgb(0,0,0)" />
	<circle cx="109.518364024462" cy="-405.88503826046" r="2" style="fill: rgb(0,0,0)" />
	<circle cx="72.6519490969323" cy="-395.571865609727" r="2" style="fill: rgb(0,0,0)" />
	<circle cx="49.3177401304234" cy="-247.870685996799" r="2" style="fill: rgb(0,0,0)" />
	<circle cx="81.2094536444375" cy="-226.694928894096" r="2" style="fill: rgb(0,0,0)" />
	<circle cx="202.372958743618" cy="-520.57301543047" r="2" style="fill: rgb(0,0,0)" />
	<circle cx="160.86036862638" cy="-494.9175371031" r="2" style="fill: rgb(0,0,0)" />
	<circle cx="470.013618350442" cy="-98.4853385775222" r="2" style="fill: rgb(0,0,0)" />
	<circle cx="465.199574623131" cy="-135.826937491642" r="2" style="fill: rgb(0,0,0)" />
	<circle cx="483.636693349112" cy="-109.712395826088" r="2" style="fill: rgb(0,0,0)" />
	<circle cx="534.629929779635" cy="-138.613335559687" r="2" style="fill: rgb(0,0,0)" />
	<circle cx="160.86036862637" cy="-79.1554783273991" r="2" style="fill: rgb(0,0,0)" />
	<circle cx="202.372958743581" cy="-53.5" r="2" style="fill: rgb(0,0,0)" />
	<circle cx="540.963689502913" cy="-483.451507495385" r="2" style="fill: rgb(0,0,0)" />
	<circle cx="509.501411128835" cy="-505.743165207857" r="2" style="fill: rgb(0,0,0)" />
	<circle cx="37.0794321438233" cy="-380.692719072378" r="2" style="fill: rgb(0,0,0)" />
	<circle cx="33.5" cy="-342.300263699133" r="2" style="fill: rgb(0,0,0)" />
	<circle cx="509.501411128813" cy="-68.3298502225979" r="2" style="fill: rgb(0,0,0)" />
	<circle cx="540.963689502892" cy="-90.6215079350614" r="2" style="fill: rgb(0,0,0)" />
	<!--
	Generated using the Perl SVG Module V2.87
	by Ronan Oger

	-->
</svg>