<?xml version="1.0" encoding="UTF-8" standalone="yes"?>
<!DOCTYPE svg PUBLIC "-//W3C//DTD SVG 1.0//EN" "http://www.w3.org/TR/2001/REC-SVG-20010904/DTD/svg10.dtd">
<!-- generated using polymake; Michael Joswig, Georg Loho, Benjamin Lorenz, Rico Raber; license CC BY-NC-ND 3.0; see polymake.org and matchthenet.de -->
<svg height="841pt" id="document" viewBox="0 -608.313959280747 572 608.313959280747" width="595pt" xmlns="http://www.w3.org/2000/svg" xmlns:svg="http://www.w3.org/2000/svg" xmlns:xlink="http://www.w3.org/1999/xlink">
	<title id="document_title">planar_net_</title>
	<polygon points="242.146937445372,-291.831499015397 302.01219833114,-291.831499015397 299.987071346224,-342.489676292028 260.086665506595,-337.98840500658 " style="fill: rgb(67,184,206); fill-opacity: 1; stroke: rgb(0,0,0); stroke-width: 3" />
	<polygon points="299.121648068567,-253.20862393158 302.01219833114,-291.831499015397 242.146937445372,-291.831499015397 265.049307777569,-237.614356434607 " style="fill: rgb(67,184,206); fill-opacity: 1; stroke: rgb(0,0,0); stroke-width: 3" />
	<polygon points="299.987071346224,-342.489676292028 302.01219833114,-291.831499015397 361.686422527556,-296.610246495419 340.119464772171,-341.187820978178 " style="fill: rgb(67,184,206); fill-opacity: 1; stroke: rgb(0,0,0); stroke-width: 3" />
	<polygon points="242.146937445372,-291.831499015397 260.086665506595,-337.98840500658 233.698950575984,-368.253770196739 197.994856490116,-332.259746667774 " style="fill: rgb(67,184,206); fill-opacity: 1; stroke: rgb(0,0,0); stroke-width: 3" />
	<polygon points="361.210574145391,-282.920732388655 302.01219833114,-291.831499015397 299.121648068567,-253.20862393158 330.493269928209,-232.716506091571 " style="fill: rgb(67,184,206); fill-opacity: 1; stroke: rgb(0,0,0); stroke-width: 3" />
	<polygon points="242.146937445372,-291.831499015397 202.13199745238,-248.671080877756 230.347969946102,-224.690520375204 265.049307777569,-237.614356434607 " style="fill: rgb(67,184,206); fill-opacity: 1; stroke: rgb(0,0,0); stroke-width: 3" />
	<polygon points="340.119464772171,-341.187820978178 361.686422527556,-296.610246495419 402.470422379004,-340.433925220953 364.007039268766,-373.463006709995 " style="fill: rgb(67,184,206); fill-opacity: 1; stroke: rgb(0,0,0); stroke-width: 3" />
	<polygon points="328.463604891193,-229.90293532359 299.121648068567,-253.20862393158 265.049307777569,-237.614356434607 291.187993847024,-187.966809386679 " style="fill: rgb(67,184,206); fill-opacity: 1; stroke: rgb(0,0,0); stroke-width: 3" />
	<polygon points="242.146937445372,-291.831499015397 197.994856490116,-332.259746667774 174.043881775864,-301.822391809027 188.641927547443,-267.311486122217 " style="fill: rgb(67,184,206); fill-opacity: 1; stroke: rgb(0,0,0); stroke-width: 3" />
	<polygon points="361.210574145391,-282.920732388655 330.493269928209,-232.716506091571 362.884368245749,-214.771447285121 394.355456719913,-234.285006059335 " style="fill: rgb(67,184,206); fill-opacity: 1; stroke: rgb(0,0,0); stroke-width: 3" />
	<polygon points="280.314759104838,-183.622914213742 265.049307777569,-237.614356434607 230.347969946102,-224.690520375204 225.657483223174,-188.945682020338 " style="fill: rgb(67,184,206); fill-opacity: 1; stroke: rgb(0,0,0); stroke-width: 3" />
	<polygon points="197.994856490116,-332.259746667774 233.698950575984,-368.253770196739 203.221167876807,-394.395854870589 157.210856638683,-376.083425393323 " style="fill: rgb(67,184,206); fill-opacity: 1; stroke: rgb(0,0,0); stroke-width: 3" />
	<polygon points="402.470422379004,-340.433925220953 361.686422527556,-296.610246495419 416.978003272838,-276.439519806806 428.774630267697,-312.005587107214 " style="fill: rgb(67,184,206); fill-opacity: 1; stroke: rgb(0,0,0); stroke-width: 3" />
	<polygon points="328.463604891193,-229.90293532359 291.187993847024,-187.966809386679 342.698602177003,-168.92982187809 354.059920326078,-203.144067224551 " style="fill: rgb(67,184,206); fill-opacity: 1; stroke: rgb(0,0,0); stroke-width: 3" />
	<polygon points="197.994856490116,-332.259746667774 148.316994616214,-365.665726679725 137.067799649935,-307.894862664477 174.043881775864,-301.822391809027 " style="fill: rgb(67,184,206); fill-opacity: 1; stroke: rgb(0,0,0); stroke-width: 3" />
	<polygon points="202.13199745238,-248.671080877756 169.373362778912,-203.119113942792 222.57060468322,-189.488152212236 230.347969946102,-224.690520375204 " style="fill: rgb(67,184,206); fill-opacity: 1; stroke: rgb(0,0,0); stroke-width: 3" />
	<polygon points="364.007039268766,-373.463006709995 402.470422379004,-340.433925220953 439.626048589863,-387.373342577812 392.300770749788,-401.954559637717 " style="fill: rgb(67,184,206); fill-opacity: 1; stroke: rgb(0,0,0); stroke-width: 3" />
	<polygon points="280.314759104838,-183.622914213742 225.657483223174,-188.945682020338 221.800571115999,-76.4741275727344 " style="fill: rgb(14,173,105); fill-opacity: 1; stroke: rgb(0,0,0); stroke-width: 3" />
	<polygon points="203.221167876807,-394.395854870589 207.399602499712,-434.331359292786 156.726703957529,-435.946728485475 157.210856638683,-376.083425393323 " style="fill: rgb(67,184,206); fill-opacity: 1; stroke: rgb(0,0,0); stroke-width: 3" />
	<polygon points="188.641927547443,-267.311486122217 174.043881775864,-301.822391809027 136.664664335539,-304.449111288179 135.835998632809,-248.347211583573 " style="fill: rgb(67,184,206); fill-opacity: 1; stroke: rgb(0,0,0); stroke-width: 3" />
	<polygon points="402.470422379004,-340.433925220953 428.774630267697,-312.005587107214 465.147982319808,-321.010297661497 449.323122638923,-377.698840882681 " style="fill: rgb(67,184,206); fill-opacity: 1; stroke: rgb(0,0,0); stroke-width: 3" />
	<polygon points="394.355456719913,-234.285006059335 362.884368245749,-214.771447285121 365.335327317781,-178.803587544225 419.968892577817,-184.364451766866 " style="fill: rgb(67,184,206); fill-opacity: 1; stroke: rgb(0,0,0); stroke-width: 3" />
	<polygon points="342.698602177003,-168.92982187809 291.187993847024,-187.966809386679 297.138767136968,-66.0268201629474 " style="fill: rgb(14,173,105); fill-opacity: 1; stroke: rgb(0,0,0); stroke-width: 3" />
	<polygon points="137.067799649935,-307.894862664477 148.316994616214,-365.665726679725 91.0271293966825,-352.179123712827 101.059910520001,-316.534324811526 " style="fill: rgb(67,184,206); fill-opacity: 1; stroke: rgb(0,0,0); stroke-width: 3" />
	<polygon points="222.57060468322,-189.488152212236 169.373362778912,-203.119113942792 187.850449639168,-82.4403256832542 " style="fill: rgb(14,173,105); fill-opacity: 1; stroke: rgb(0,0,0); stroke-width: 3" />
	<polygon points="392.300770749788,-401.954559637717 439.626048589863,-387.373342577812 435.330065087065,-447.08426274042 384.947816313699,-441.429081679338 " style="fill: rgb(67,184,206); fill-opacity: 1; stroke: rgb(0,0,0); stroke-width: 3" />
	<polygon points="428.774630267697,-312.005587107214 416.978003272838,-276.439519806806 471.129246784472,-261.750998320364 465.824888462699,-317.607722357021 " style="fill: rgb(67,184,206); fill-opacity: 1; stroke: rgb(0,0,0); stroke-width: 3" />
	<polygon points="207.399602499712,-434.331359292786 205.773224134821,-474.451911666444 161.02268746035,-495.657648648083 156.726703957529,-435.946728485475 " style="fill: rgb(67,184,206); fill-opacity: 1; stroke: rgb(0,0,0); stroke-width: 3" />
	<polygon points="157.210856638683,-376.083425393323 156.726703957529,-435.946728485475 118.128468928003,-432.743915165036 102.81026713287,-398.546572498731 " style="fill: rgb(67,184,206); fill-opacity: 1; stroke: rgb(0,0,0); stroke-width: 3" />
	<polygon points="135.835998632809,-248.347211583573 136.664664335539,-304.449111288179 99.7159447456776,-301.999518168249 84.9896054232312,-269.093150017505 " style="fill: rgb(67,184,206); fill-opacity: 1; stroke: rgb(0,0,0); stroke-width: 3" />
	<polygon points="449.323122638923,-377.698840882681 465.147982319808,-321.010297661497 500.351320777427,-332.496521898464 507.506738306794,-368.828441552726 " style="fill: rgb(67,184,206); fill-opacity: 1; stroke: rgb(0,0,0); stroke-width: 3" />
	<polygon points="419.968892577817,-184.364451766866 365.335327317781,-178.803587544225 383.734956254975,-67.7802567266139 " style="fill: rgb(14,173,105); fill-opacity: 1; stroke: rgb(0,0,0); stroke-width: 3" />
	<polygon points="262.889539014364,-471.73594252188 302.566335385194,-465.567015621668 306.711983395468,-516.095875364106 246.899281812371,-518.60390053376 " style="fill: rgb(67,184,206); fill-opacity: 1; stroke: rgb(0,0,0); stroke-width: 3" />
	<polygon points="169.373362778912,-203.119113942792 122.691604302214,-174.195713564384 187.850449639168,-82.4403256832542 " style="fill: rgb(14,173,105); fill-opacity: 1; stroke: rgb(0,0,0); stroke-width: 3" />
	<polygon points="435.330065087065,-447.08426274042 439.626048589863,-387.373342577812 492.059917924427,-414.107337099108 474.060793601659,-446.972776017318 " style="fill: rgb(67,184,206); fill-opacity: 1; stroke: rgb(0,0,0); stroke-width: 3" />
	<polygon points="465.824888462699,-317.607722357021 471.129246784472,-261.750998320364 520.157337926623,-286.489550074328 502.85123948378,-318.115379571736 " style="fill: rgb(67,184,206); fill-opacity: 1; stroke: rgb(0,0,0); stroke-width: 3" />
	<polygon points="156.726703957529,-435.946728485475 161.02268746035,-495.657648648083 105.301829856912,-476.704993309156 118.410832275039,-441.601437830051 " style="fill: rgb(67,184,206); fill-opacity: 1; stroke: rgb(0,0,0); stroke-width: 3" />
	<polygon points="101.059910520001,-316.534324811526 91.0271293966825,-352.179123712827 38.4242178111234,-332.658787393089 74.9624299213802,-291.662339745634 " style="fill: rgb(67,184,206); fill-opacity: 1; stroke: rgb(0,0,0); stroke-width: 3" />
	<polygon points="419.968892577817,-184.364451766866 383.734956254975,-67.7802567266139 461.825464721229,-148.814809963761 " style="fill: rgb(14,173,105); fill-opacity: 1; stroke: rgb(0,0,0); stroke-width: 3" />
	<polygon points="246.899281812371,-518.60390053376 306.711983395468,-516.095875364106 305.442056958897,-554.805939267514 272.052944857764,-571.813959280747 " style="fill: rgb(67,184,206); fill-opacity: 1; stroke: rgb(0,0,0); stroke-width: 3" />
	<polygon points="102.81026713287,-398.546572498731 118.128468928003,-432.743915165036 94.5862431509197,-461.896430616264 52.9529504271203,-424.282885525602 " style="fill: rgb(67,184,206); fill-opacity: 1; stroke: rgb(0,0,0); stroke-width: 3" />
	<polygon points="500.351320777427,-332.496521898464 528.350928886685,-309.787138805965 561.5,-353.569426871452 507.506738306794,-368.828441552726 " style="fill: rgb(67,184,206); fill-opacity: 1; stroke: rgb(0,0,0); stroke-width: 3" />
	<polygon points="161.02268746035,-495.657648648083 120.845049813127,-538.666654095166 94.9015115575271,-512.244292191596 105.301829856912,-476.704993309156 " style="fill: rgb(67,184,206); fill-opacity: 1; stroke: rgb(0,0,0); stroke-width: 3" />
	<polygon points="122.691604302214,-174.195713564384 80.0007676460903,-139.652376587095 187.850449639168,-82.4403256832542 " style="fill: rgb(14,173,105); fill-opacity: 1; stroke: rgb(0,0,0); stroke-width: 3" />
	<polygon points="474.060793601659,-446.972776017318 492.059917924427,-414.107337099108 539.703731911162,-443.741385525057 495.200792503047,-477.911521921488 " style="fill: rgb(67,184,206); fill-opacity: 1; stroke: rgb(0,0,0); stroke-width: 3" />
	<polygon points="52.9529504271203,-424.282885525602 94.5862431509197,-461.896430616264 67.6212432114674,-487.275500024909 33.5,-475.637850072445 " style="fill: rgb(67,184,206); fill-opacity: 1; stroke: rgb(0,0,0); stroke-width: 3" />
	<polygon points="461.825464721229,-148.814809963761 383.734956254975,-67.7802567266139 498.89906208039,-108.301873230211 " style="fill: rgb(14,173,105); fill-opacity: 1; stroke: rgb(0,0,0); stroke-width: 3" />
	<polygon points="80.0007676460903,-139.652376587095 75.34042903408,-84.934638074362 187.850449639168,-82.4403256832542 " style="fill: rgb(14,173,105); fill-opacity: 1; stroke: rgb(0,0,0); stroke-width: 3" />
	<polygon points="495.200792503047,-477.911521921488 539.703731911162,-443.741385525057 554.995193171209,-496.4853034347 520.053858636039,-505.362086388782 " style="fill: rgb(67,184,206); fill-opacity: 1; stroke: rgb(0,0,0); stroke-width: 3" />
	<polygon points="498.89906208039,-108.301873230211 383.734956254975,-67.7802567266139 495.362912424936,-53.5 " style="fill: rgb(14,173,105); fill-opacity: 1; stroke: rgb(0,0,0); stroke-width: 3" />
	<polygon points="299.987071346224,-342.489676292028 340.119464772171,-341.187820978178 360.536412441557,-375.763131204095 305.121192350575,-404.875897260082 " style="fill: rgb(67,184,206); fill-opacity: 1; stroke: rgb(0,0,0); stroke-width: 3" />
	<polygon points="260.086665506595,-337.98840500658 299.987071346224,-342.489676292028 289.889350645449,-404.266984438394 236.974894693773,-370.823597700525 " style="fill: rgb(67,184,206); fill-opacity: 1; stroke: rgb(0,0,0); stroke-width: 3" />
	<polygon points="305.121192350575,-404.875897260082 360.536412441557,-375.763131204095 377.422683726133,-412.193306491305 353.579626598105,-444.501393035419 " style="fill: rgb(67,184,206); fill-opacity: 1; stroke: rgb(0,0,0); stroke-width: 3" />
	<polygon points="236.974894693773,-370.823597700525 289.889350645449,-404.266984438394 238.422445432212,-439.89783389408 217.234468788306,-405.789572796668 " style="fill: rgb(67,184,206); fill-opacity: 1; stroke: rgb(0,0,0); stroke-width: 3" />
	<polygon points="238.422445432212,-439.89783389408 289.889350645449,-404.266984438394 302.566335385194,-465.567015621668 262.889539014364,-471.73594252188 " style="fill: rgb(67,184,206); fill-opacity: 1; stroke: rgb(0,0,0); stroke-width: 3" />
	<circle cx="242.146937445372" cy="-291.831499015397" r="2" style="fill: rgb(0,0,0)" />
	<circle cx="302.01219833114" cy="-291.831499015397" r="2" style="fill: rgb(0,0,0)" />
	<circle cx="299.987071346224" cy="-342.489676292028" r="2" style="fill: rgb(0,0,0)" />
	<circle cx="260.086665506595" cy="-337.98840500658" r="2" style="fill: rgb(0,0,0)" />
	<circle cx="265.049307777569" cy="-237.614356434607" r="2" style="fill: rgb(0,0,0)" />
	<circle cx="299.121648068567" cy="-253.20862393158" r="2" style="fill: rgb(0,0,0)" />
	<circle cx="361.686422527556" cy="-296.610246495419" r="2" style="fill: rgb(0,0,0)" />
	<circle cx="340.119464772171" cy="-341.187820978178" r="2" style="fill: rgb(0,0,0)" />
	<circle cx="233.698950575984" cy="-368.253770196739" r="2" style="fill: rgb(0,0,0)" />
	<circle cx="197.994856490116" cy="-332.259746667774" r="2" style="fill: rgb(0,0,0)" />
	<circle cx="289.889350645449" cy="-404.266984438394" r="2" style="fill: rgb(0,0,0)" />
	<circle cx="236.974894693773" cy="-370.823597700525" r="2" style="fill: rgb(0,0,0)" />
	<circle cx="330.493269928209" cy="-232.716506091571" r="2" style="fill: rgb(0,0,0)" />
	<circle cx="361.210574145391" cy="-282.920732388655" r="2" style="fill: rgb(0,0,0)" />
	<circle cx="202.13199745238" cy="-248.671080877756" r="2" style="fill: rgb(0,0,0)" />
	<circle cx="230.347969946102" cy="-224.690520375204" r="2" style="fill: rgb(0,0,0)" />
	<circle cx="291.187993847024" cy="-187.966809386679" r="2" style="fill: rgb(0,0,0)" />
	<circle cx="328.463604891193" cy="-229.90293532359" r="2" style="fill: rgb(0,0,0)" />
	<circle cx="402.470422379004" cy="-340.433925220953" r="2" style="fill: rgb(0,0,0)" />
	<circle cx="364.007039268766" cy="-373.463006709995" r="2" style="fill: rgb(0,0,0)" />
	<circle cx="360.536412441557" cy="-375.763131204095" r="2" style="fill: rgb(0,0,0)" />
	<circle cx="305.121192350575" cy="-404.875897260082" r="2" style="fill: rgb(0,0,0)" />
	<circle cx="174.043881775864" cy="-301.822391809027" r="2" style="fill: rgb(0,0,0)" />
	<circle cx="188.641927547443" cy="-267.311486122217" r="2" style="fill: rgb(0,0,0)" />
	<circle cx="203.221167876807" cy="-394.395854870589" r="2" style="fill: rgb(0,0,0)" />
	<circle cx="157.210856638683" cy="-376.083425393323" r="2" style="fill: rgb(0,0,0)" />
	<circle cx="238.422445432212" cy="-439.89783389408" r="2" style="fill: rgb(0,0,0)" />
	<circle cx="217.234468788306" cy="-405.789572796668" r="2" style="fill: rgb(0,0,0)" />
	<circle cx="362.884368245749" cy="-214.771447285121" r="2" style="fill: rgb(0,0,0)" />
	<circle cx="394.355456719913" cy="-234.285006059335" r="2" style="fill: rgb(0,0,0)" />
	<circle cx="225.657483223174" cy="-188.945682020338" r="2" style="fill: rgb(0,0,0)" />
	<circle cx="280.314759104838" cy="-183.622914213742" r="2" style="fill: rgb(0,0,0)" />
	<circle cx="169.373362778912" cy="-203.119113942792" r="2" style="fill: rgb(0,0,0)" />
	<circle cx="222.57060468322" cy="-189.488152212236" r="2" style="fill: rgb(0,0,0)" />
	<circle cx="342.698602177003" cy="-168.92982187809" r="2" style="fill: rgb(0,0,0)" />
	<circle cx="354.059920326078" cy="-203.144067224551" r="2" style="fill: rgb(0,0,0)" />
	<circle cx="416.978003272838" cy="-276.439519806806" r="2" style="fill: rgb(0,0,0)" />
	<circle cx="428.774630267697" cy="-312.005587107214" r="2" style="fill: rgb(0,0,0)" />
	<circle cx="439.626048589863" cy="-387.373342577812" r="2" style="fill: rgb(0,0,0)" />
	<circle cx="392.300770749788" cy="-401.954559637717" r="2" style="fill: rgb(0,0,0)" />
	<circle cx="377.422683726133" cy="-412.193306491305" r="2" style="fill: rgb(0,0,0)" />
	<circle cx="353.579626598105" cy="-444.501393035419" r="2" style="fill: rgb(0,0,0)" />
	<circle cx="148.316994616214" cy="-365.665726679725" r="2" style="fill: rgb(0,0,0)" />
	<circle cx="137.067799649935" cy="-307.894862664477" r="2" style="fill: rgb(0,0,0)" />
	<circle cx="136.664664335539" cy="-304.449111288179" r="2" style="fill: rgb(0,0,0)" />
	<circle cx="135.835998632809" cy="-248.347211583573" r="2" style="fill: rgb(0,0,0)" />
	<circle cx="207.399602499712" cy="-434.331359292786" r="2" style="fill: rgb(0,0,0)" />
	<circle cx="156.726703957529" cy="-435.946728485475" r="2" style="fill: rgb(0,0,0)" />
	<circle cx="302.566335385194" cy="-465.567015621668" r="2" style="fill: rgb(0,0,0)" />
	<circle cx="262.889539014364" cy="-471.73594252188" r="2" style="fill: rgb(0,0,0)" />
	<circle cx="365.335327317781" cy="-178.803587544225" r="2" style="fill: rgb(0,0,0)" />
	<circle cx="419.968892577817" cy="-184.364451766866" r="2" style="fill: rgb(0,0,0)" />
	<circle cx="221.800571115999" cy="-76.4741275727344" r="2" style="fill: rgb(0,0,0)" />
	<circle cx="187.850449639168" cy="-82.4403256832542" r="2" style="fill: rgb(0,0,0)" />
	<circle cx="297.138767136968" cy="-66.0268201629474" r="2" style="fill: rgb(0,0,0)" />
	<circle cx="465.147982319808" cy="-321.010297661497" r="2" style="fill: rgb(0,0,0)" />
	<circle cx="449.323122638923" cy="-377.698840882681" r="2" style="fill: rgb(0,0,0)" />
	<circle cx="471.129246784472" cy="-261.750998320364" r="2" style="fill: rgb(0,0,0)" />
	<circle cx="465.824888462699" cy="-317.607722357021" r="2" style="fill: rgb(0,0,0)" />
	<circle cx="435.330065087065" cy="-447.08426274042" r="2" style="fill: rgb(0,0,0)" />
	<circle cx="384.947816313699" cy="-441.429081679338" r="2" style="fill: rgb(0,0,0)" />
	<circle cx="91.0271293966825" cy="-352.179123712827" r="2" style="fill: rgb(0,0,0)" />
	<circle cx="101.059910520001" cy="-316.534324811526" r="2" style="fill: rgb(0,0,0)" />
	<circle cx="99.7159447456776" cy="-301.999518168249" r="2" style="fill: rgb(0,0,0)" />
	<circle cx="84.9896054232312" cy="-269.093150017505" r="2" style="fill: rgb(0,0,0)" />
	<circle cx="205.773224134821" cy="-474.451911666444" r="2" style="fill: rgb(0,0,0)" />
	<circle cx="161.02268746035" cy="-495.657648648083" r="2" style="fill: rgb(0,0,0)" />
	<circle cx="118.128468928003" cy="-432.743915165036" r="2" style="fill: rgb(0,0,0)" />
	<circle cx="102.81026713287" cy="-398.546572498731" r="2" style="fill: rgb(0,0,0)" />
	<circle cx="306.711983395468" cy="-516.095875364106" r="2" style="fill: rgb(0,0,0)" />
	<circle cx="246.899281812371" cy="-518.60390053376" r="2" style="fill: rgb(0,0,0)" />
	<circle cx="383.734956254975" cy="-67.7802567266139" r="2" style="fill: rgb(0,0,0)" />
	<circle cx="122.691604302214" cy="-174.195713564384" r="2" style="fill: rgb(0,0,0)" />
	<circle cx="500.351320777427" cy="-332.496521898464" r="2" style="fill: rgb(0,0,0)" />
	<circle cx="507.506738306794" cy="-368.828441552726" r="2" style="fill: rgb(0,0,0)" />
	<circle cx="520.157337926623" cy="-286.489550074328" r="2" style="fill: rgb(0,0,0)" />
	<circle cx="502.85123948378" cy="-318.115379571736" r="2" style="fill: rgb(0,0,0)" />
	<circle cx="492.059917924427" cy="-414.107337099108" r="2" style="fill: rgb(0,0,0)" />
	<circle cx="474.060793601659" cy="-446.972776017318" r="2" style="fill: rgb(0,0,0)" />
	<circle cx="38.4242178111234" cy="-332.658787393089" r="2" style="fill: rgb(0,0,0)" />
	<circle cx="74.9624299213802" cy="-291.662339745634" r="2" style="fill: rgb(0,0,0)" />
	<circle cx="105.301829856912" cy="-476.704993309156" r="2" style="fill: rgb(0,0,0)" />
	<circle cx="118.410832275039" cy="-441.601437830051" r="2" style="fill: rgb(0,0,0)" />
	<circle cx="94.5862431509197" cy="-461.896430616264" r="2" style="fill: rgb(0,0,0)" />
	<circle cx="52.9529504271203" cy="-424.282885525602" r="2" style="fill: rgb(0,0,0)" />
	<circle cx="305.442056958897" cy="-554.805939267514" r="2" style="fill: rgb(0,0,0)" />
	<circle cx="272.052944857764" cy="-571.813959280747" r="2" style="fill: rgb(0,0,0)" />
	<circle cx="461.825464721229" cy="-148.814809963761" r="2" style="fill: rgb(0,0,0)" />
	<circle cx="80.0007676460903" cy="-139.652376587095" r="2" style="fill: rgb(0,0,0)" />
	<circle cx="528.350928886685" cy="-309.787138805965" r="2" style="fill: rgb(0,0,0)" />
	<circle cx="561.5" cy="-353.569426871452" r="2" style="fill: rgb(0,0,0)" />
	<circle cx="539.703731911162" cy="-443.741385525057" r="2" style="fill: rgb(0,0,0)" />
	<circle cx="495.200792503047" cy="-477.911521921488" r="2" style="fill: rgb(0,0,0)" />
	<circle cx="120.845049813127" cy="-538.666654095166" r="2" style="fill: rgb(0,0,0)" />
	<circle cx="94.9015115575271" cy="-512.244292191596" r="2" style="fill: rgb(0,0,0)" />
	<circle cx="67.6212432114674" cy="-487.275500024909" r="2" style="fill: rgb(0,0,0)" />
	<circle cx="33.5" cy="-475.637850072445" r="2" style="fill: rgb(0,0,0)" />
	<circle cx="498.89906208039" cy="-108.301873230211" r="2" style="fill: rgb(0,0,0)" />
	<circle cx="75.34042903408" cy="-84.934638074362" r="2" style="fill: rgb(0,0,0)" />
	<circle cx="554.995193171209" cy="-496.4853034347" r="2" style="fill: rgb(0,0,0)" />
	<circle cx="520.053858636039" cy="-505.362086388782" r="2" style="fill: rgb(0,0,0)" />
	<circle cx="495.362912424936" cy="-53.5" r="2" style="fill: rgb(0,0,0)" />
	<!--
	Generated using the Perl SVG Module V2.87
	by Ronan Oger

	-->
</svg>