<?xml version="1.0" encoding="UTF-8" standalone="yes"?>
<!DOCTYPE svg PUBLIC "-//W3C//DTD SVG 1.0//EN" "http://www.w3.org/TR/2001/REC-SVG-20010904/DTD/svg10.dtd">
<!-- generated using polymake; Michael Joswig, Georg Loho, Benjamin Lorenz, Rico Raber; license CC BY-NC-SA 3.0; see polymake.org and matchthenet.de -->
<svg height="841pt" id="document" viewBox="0 -746.212403279365 572 746.212403279365" width="595pt" xmlns="http://www.w3.org/2000/svg" xmlns:svg="http://www.w3.org/2000/svg" xmlns:xlink="http://www.w3.org/1999/xlink">
	<title id="document_title">planar_net_</title>
	<polygon points="224.706839904732,-381.606201639683 281.20063637076,-381.606201639683 301.601665566837,-416.87112156251 291.960289405123,-422.345730831439 " style="fill: rgb(14,173,105); fill-opacity: 1; stroke: rgb(0,0,0); stroke-width: 3" />
	<polygon points="301.601665566836,-346.341281716857 281.20063637076,-381.606201639683 224.706839904732,-381.606201639683 291.960289405126,-340.866672447927 " style="fill: rgb(14,173,105); fill-opacity: 1; stroke: rgb(0,0,0); stroke-width: 3" />
	<polygon points="224.706839904732,-381.606201639683 291.960289405123,-422.345730831439 288.007400481983,-500.876682548764 " style="fill: rgb(14,173,105); fill-opacity: 1; stroke: rgb(0,0,0); stroke-width: 3" />
	<polygon points="224.706839904732,-381.606201639683 288.007400481983,-500.876682548764 221.672216778011,-459.649801086533 " style="fill: rgb(14,173,105); fill-opacity: 1; stroke: rgb(0,0,0); stroke-width: 3" />
	<polygon points="291.960289405126,-340.866672447927 224.706839904732,-381.606201639683 288.007400481979,-262.335720730605 " style="fill: rgb(14,173,105); fill-opacity: 1; stroke: rgb(0,0,0); stroke-width: 3" />
	<polygon points="291.960289405123,-422.345730831439 301.601665566837,-416.87112156251 321.432915780601,-452.45957593161 292.486989723711,-500.974340734263 " style="fill: rgb(14,173,105); fill-opacity: 1; stroke: rgb(0,0,0); stroke-width: 3" />
	<polygon points="288.007400481979,-262.335720730605 224.706839904732,-381.606201639683 221.672216778006,-303.56260219284 " style="fill: rgb(14,173,105); fill-opacity: 1; stroke: rgb(0,0,0); stroke-width: 3" />
	<polygon points="292.486989723711,-500.974340734263 321.432915780601,-452.45957593161 362.170060784077,-453.008744747468 361.931465022446,-464.093443796235 " style="fill: rgb(14,173,105); fill-opacity: 1; stroke: rgb(0,0,0); stroke-width: 3" />
	<polygon points="224.706839904732,-381.606201639683 221.672216778011,-459.649801086533 156.44588376384,-492.149676093048 " style="fill: rgb(14,173,105); fill-opacity: 1; stroke: rgb(0,0,0); stroke-width: 3" />
	<polygon points="301.601665566836,-346.341281716857 291.960289405126,-340.866672447927 292.486989723689,-262.238062545157 321.432915780605,-310.75282734776 " style="fill: rgb(14,173,105); fill-opacity: 1; stroke: rgb(0,0,0); stroke-width: 3" />
	<polygon points="224.706839904732,-381.606201639683 156.44588376384,-492.149676093048 156.707984835285,-419.766359930988 " style="fill: rgb(14,173,105); fill-opacity: 1; stroke: rgb(0,0,0); stroke-width: 3" />
	<polygon points="362.170060784082,-310.203658531871 321.432915780605,-310.75282734776 292.486989723689,-262.238062545157 361.931465022448,-299.118959483112 " style="fill: rgb(14,173,105); fill-opacity: 1; stroke: rgb(0,0,0); stroke-width: 3" />
	<polygon points="221.672216778006,-303.56260219284 224.706839904732,-381.606201639683 156.445883763833,-271.062727186331 " style="fill: rgb(14,173,105); fill-opacity: 1; stroke: rgb(0,0,0); stroke-width: 3" />
	<polygon points="361.931465022446,-464.093443796235 362.170060784077,-453.008744747468 402.893105430097,-454.212988983826 429.724649128458,-503.928351819804 " style="fill: rgb(14,173,105); fill-opacity: 1; stroke: rgb(0,0,0); stroke-width: 3" />
	<polygon points="221.672216778011,-459.649801086533 288.007400481983,-500.876682548764 158.199787464021,-495.454369382982 " style="fill: rgb(14,173,105); fill-opacity: 1; stroke: rgb(0,0,0); stroke-width: 3" />
	<polygon points="224.706839904732,-381.606201639683 156.707984835285,-343.446043348391 156.445883763833,-271.062727186331 " style="fill: rgb(14,173,105); fill-opacity: 1; stroke: rgb(0,0,0); stroke-width: 3" />
	<polygon points="402.893105430097,-454.212988983826 424.237346008851,-419.510828193195 433.634221864139,-425.395231739824 429.724649128458,-503.928351819804 " style="fill: rgb(14,173,105); fill-opacity: 1; stroke: rgb(0,0,0); stroke-width: 3" />
	<polygon points="158.199787464021,-495.454369382982 288.007400481983,-500.876682548764 218.293338737518,-535.805060218803 " style="fill: rgb(14,173,105); fill-opacity: 1; stroke: rgb(0,0,0); stroke-width: 3" />
	<polygon points="362.170060784082,-310.203658531871 361.931465022448,-299.118959483112 429.724649128383,-259.28405145953 402.8931054301,-308.999414295497 " style="fill: rgb(14,173,105); fill-opacity: 1; stroke: rgb(0,0,0); stroke-width: 3" />
	<polygon points="292.486989723711,-500.974340734263 361.931465022446,-464.093443796235 427.345560958368,-507.725218471978 " style="fill: rgb(14,173,105); fill-opacity: 1; stroke: rgb(0,0,0); stroke-width: 3" />
	<polygon points="288.007400481979,-262.335720730605 221.672216778006,-303.56260219284 158.199787464016,-267.758033896389 " style="fill: rgb(14,173,105); fill-opacity: 1; stroke: rgb(0,0,0); stroke-width: 3" />
	<polygon points="413.073323750906,-378.847406415446 407.671005656801,-338.46632757111 452.388495206653,-303.942492797086 424.050505006257,-377.288890253736 " style="fill: rgb(14,173,105); fill-opacity: 1; stroke: rgb(0,0,0); stroke-width: 3" />
	<polygon points="292.486989723711,-500.974340734263 427.345560958368,-507.725218471978 357.953060801153,-543.567836597214 " style="fill: rgb(14,173,105); fill-opacity: 1; stroke: rgb(0,0,0); stroke-width: 3" />
	<polygon points="288.007400481979,-262.335720730605 158.199787464016,-267.758033896389 218.293338737511,-227.407343060566 " style="fill: rgb(14,173,105); fill-opacity: 1; stroke: rgb(0,0,0); stroke-width: 3" />
	<polygon points="218.293338737518,-535.805060218803 288.007400481983,-500.876682548764 214.636082321588,-608.096398780879 " style="fill: rgb(14,173,105); fill-opacity: 1; stroke: rgb(0,0,0); stroke-width: 3" />
	<polygon points="361.931465022448,-299.118959483112 292.486989723689,-262.238062545157 427.345560958312,-255.487184807309 " style="fill: rgb(14,173,105); fill-opacity: 1; stroke: rgb(0,0,0); stroke-width: 3" />
	<polygon points="156.707984835285,-419.766359930988 156.44588376384,-492.149676093048 93.0455077982108,-385.320719087873 " style="fill: rgb(14,173,105); fill-opacity: 1; stroke: rgb(0,0,0); stroke-width: 3" />
	<polygon points="292.486989723711,-500.974340734263 357.953060801153,-543.567836597214 352.442494335336,-616.233853765772 " style="fill: rgb(14,173,105); fill-opacity: 1; stroke: rgb(0,0,0); stroke-width: 3" />
	<polygon points="427.345560958312,-255.487184807309 292.486989723689,-262.238062545157 357.953060801064,-219.644566682141 " style="fill: rgb(14,173,105); fill-opacity: 1; stroke: rgb(0,0,0); stroke-width: 3" />
	<polygon points="93.0455077982108,-385.320719087873 156.44588376384,-492.149676093048 93.6020158480356,-457.218210736507 " style="fill: rgb(14,173,105); fill-opacity: 1; stroke: rgb(0,0,0); stroke-width: 3" />
	<polygon points="288.007400481979,-262.335720730605 218.293338737511,-227.407343060566 214.636082321584,-155.116004498485 " style="fill: rgb(14,173,105); fill-opacity: 1; stroke: rgb(0,0,0); stroke-width: 3" />
	<polygon points="158.199787464021,-495.454369382982 218.293338737518,-535.805060218803 211.140543252757,-607.834572728204 " style="fill: rgb(14,173,105); fill-opacity: 1; stroke: rgb(0,0,0); stroke-width: 3" />
	<polygon points="433.634221864139,-425.395231739824 504.620013600869,-391.575813057971 429.724649128458,-503.928351819804 " style="fill: rgb(14,173,105); fill-opacity: 1; stroke: rgb(0,0,0); stroke-width: 3" />
	<polygon points="357.953060801064,-219.644566682141 292.486989723689,-262.238062545157 352.442494335158,-146.978549513598 " style="fill: rgb(14,173,105); fill-opacity: 1; stroke: rgb(0,0,0); stroke-width: 3" />
	<polygon points="158.199787464021,-495.454369382982 211.140543252757,-607.834572728204 151.908139200833,-567.078207375 " style="fill: rgb(14,173,105); fill-opacity: 1; stroke: rgb(0,0,0); stroke-width: 3" />
	<polygon points="429.724649128458,-503.928351819804 504.620013600869,-391.575813057971 499.845436442477,-469.532312242446 " style="fill: rgb(14,173,105); fill-opacity: 1; stroke: rgb(0,0,0); stroke-width: 3" />
	<polygon points="93.6020158480356,-457.218210736507 156.44588376384,-492.149676093048 35.0644230103457,-493.74108336799 " style="fill: rgb(14,173,105); fill-opacity: 1; stroke: rgb(0,0,0); stroke-width: 3" />
	<polygon points="218.293338737511,-227.407343060566 158.199787464016,-267.758033896389 211.14054325275,-155.377830551167 " style="fill: rgb(14,173,105); fill-opacity: 1; stroke: rgb(0,0,0); stroke-width: 3" />
	<polygon points="357.953060801153,-543.567836597214 427.345560958368,-507.725218471978 356.179095479651,-616.420904075203 " style="fill: rgb(14,173,105); fill-opacity: 1; stroke: rgb(0,0,0); stroke-width: 3" />
	<polygon points="158.199787464021,-495.454369382982 151.908139200833,-567.078207375 88.8526836908101,-595.088554229528 " style="fill: rgb(14,173,105); fill-opacity: 1; stroke: rgb(0,0,0); stroke-width: 3" />
	<polygon points="211.14054325275,-155.377830551167 158.199787464016,-267.758033896389 151.908139200826,-196.134195904373 " style="fill: rgb(14,173,105); fill-opacity: 1; stroke: rgb(0,0,0); stroke-width: 3" />
	<polygon points="356.179095479651,-616.420904075203 427.345560958368,-507.725218471978 421.621108558103,-585.489430139615 " style="fill: rgb(14,173,105); fill-opacity: 1; stroke: rgb(0,0,0); stroke-width: 3" />
	<polygon points="93.0455077982108,-385.320719087873 93.6020158480356,-457.218210736507 33.5,-491.105047288329 " style="fill: rgb(14,173,105); fill-opacity: 1; stroke: rgb(0,0,0); stroke-width: 3" />
	<polygon points="429.724649128458,-503.928351819804 499.845436442477,-469.532312242446 559.424832644838,-511.496725047559 " style="fill: rgb(14,173,105); fill-opacity: 1; stroke: rgb(0,0,0); stroke-width: 3" />
	<polygon points="427.345560958312,-255.487184807309 357.953060801064,-219.644566682141 356.179095479498,-146.791499204147 " style="fill: rgb(14,173,105); fill-opacity: 1; stroke: rgb(0,0,0); stroke-width: 3" />
	<polygon points="158.199787464016,-267.758033896389 88.852683690805,-168.123849049852 151.908139200826,-196.134195904373 " style="fill: rgb(14,173,105); fill-opacity: 1; stroke: rgb(0,0,0); stroke-width: 3" />
	<polygon points="421.621108558103,-585.489430139615 427.345560958368,-507.725218471978 481.828331768276,-625.670314013775 " style="fill: rgb(14,173,105); fill-opacity: 1; stroke: rgb(0,0,0); stroke-width: 3" />
	<polygon points="427.345560958312,-255.487184807309 356.179095479498,-146.791499204147 421.621108557979,-177.722973139676 " style="fill: rgb(14,173,105); fill-opacity: 1; stroke: rgb(0,0,0); stroke-width: 3" />
	<polygon points="499.845436442477,-469.532312242446 504.620013600869,-391.575813057971 561.5,-508.383711013215 " style="fill: rgb(14,173,105); fill-opacity: 1; stroke: rgb(0,0,0); stroke-width: 3" />
	<polygon points="151.908139200833,-567.078207375 211.140543252757,-607.834572728204 90.1590124827059,-597.861568952895 " style="fill: rgb(14,173,105); fill-opacity: 1; stroke: rgb(0,0,0); stroke-width: 3" />
	<polygon points="427.345560958312,-255.487184807309 421.621108557979,-177.722973139676 481.828331768126,-137.542089265457 " style="fill: rgb(14,173,105); fill-opacity: 1; stroke: rgb(0,0,0); stroke-width: 3" />
	<polygon points="90.1590124827059,-597.861568952895 211.140543252757,-607.834572728204 146.033643444408,-638.341139298696 " style="fill: rgb(14,173,105); fill-opacity: 1; stroke: rgb(0,0,0); stroke-width: 3" />
	<polygon points="356.179095479651,-616.420904075203 421.621108558103,-585.489430139615 479.812463621613,-628.53799981924 " style="fill: rgb(14,173,105); fill-opacity: 1; stroke: rgb(0,0,0); stroke-width: 3" />
	<polygon points="211.14054325275,-155.377830551167 151.908139200826,-196.134195904373 90.1590124826961,-165.350834326471 " style="fill: rgb(14,173,105); fill-opacity: 1; stroke: rgb(0,0,0); stroke-width: 3" />
	<polygon points="356.179095479651,-616.420904075203 479.812463621613,-628.53799981924 414.463301445924,-658.522095762085 " style="fill: rgb(14,173,105); fill-opacity: 1; stroke: rgb(0,0,0); stroke-width: 3" />
	<polygon points="211.14054325275,-155.377830551167 90.1590124826961,-165.350834326471 146.033643444401,-124.871263980672 " style="fill: rgb(14,173,105); fill-opacity: 1; stroke: rgb(0,0,0); stroke-width: 3" />
	<polygon points="421.621108557979,-177.722973139676 356.179095479498,-146.791499204147 479.812463621452,-134.674403460001 " style="fill: rgb(14,173,105); fill-opacity: 1; stroke: rgb(0,0,0); stroke-width: 3" />
	<polygon points="479.812463621452,-134.674403460001 356.179095479498,-146.791499204147 414.463301445732,-104.690307517214 " style="fill: rgb(14,173,105); fill-opacity: 1; stroke: rgb(0,0,0); stroke-width: 3" />
	<polygon points="146.033643444408,-638.341139298696 137.332971954434,-709.712403279365 90.1590124827059,-597.861568952895 " style="fill: rgb(14,173,105); fill-opacity: 1; stroke: rgb(0,0,0); stroke-width: 3" />
	<polygon points="137.332971954429,-53.5 146.033643444401,-124.871263980672 90.1590124826961,-165.350834326471 " style="fill: rgb(14,173,105); fill-opacity: 1; stroke: rgb(0,0,0); stroke-width: 3" />
	<polygon points="301.601665566837,-416.87112156251 281.20063637076,-381.606201639683 303.514796233183,-347.519623063112 352.464040311113,-383.572074135816 " style="fill: rgb(14,173,105); fill-opacity: 1; stroke: rgb(0,0,0); stroke-width: 3" />
	<polygon points="301.601665566837,-416.87112156251 356.2581798328,-390.253962201565 362.138382713613,-450.762068586008 321.432915780601,-452.45957593161 " style="fill: rgb(14,173,105); fill-opacity: 1; stroke: rgb(0,0,0); stroke-width: 3" />
	<polygon points="362.138382713613,-450.762068586008 356.2581798328,-390.253962201565 415.016929775378,-405.849379135308 402.409037415228,-444.590282837424 " style="fill: rgb(14,173,105); fill-opacity: 1; stroke: rgb(0,0,0); stroke-width: 3" />
	<polygon points="352.464040311113,-383.572074135816 369.177706333949,-325.121572921285 407.671005656801,-338.46632757111 413.073323750906,-378.847406415446 " style="fill: rgb(14,173,105); fill-opacity: 1; stroke: rgb(0,0,0); stroke-width: 3" />
	<polygon points="352.464040311113,-383.572074135816 303.514796233183,-347.519623063112 329.448513188139,-316.098946839916 369.177706333949,-325.121572921285 " style="fill: rgb(14,173,105); fill-opacity: 1; stroke: rgb(0,0,0); stroke-width: 3" />
	<circle cx="224.706839904732" cy="-381.606201639683" r="2" style="fill: rgb(0,0,0)" />
	<circle cx="281.20063637076" cy="-381.606201639683" r="2" style="fill: rgb(0,0,0)" />
	<circle cx="301.601665566837" cy="-416.87112156251" r="2" style="fill: rgb(0,0,0)" />
	<circle cx="291.960289405123" cy="-422.345730831439" r="2" style="fill: rgb(0,0,0)" />
	<circle cx="291.960289405126" cy="-340.866672447927" r="2" style="fill: rgb(0,0,0)" />
	<circle cx="301.601665566836" cy="-346.341281716857" r="2" style="fill: rgb(0,0,0)" />
	<circle cx="288.007400481983" cy="-500.876682548764" r="2" style="fill: rgb(0,0,0)" />
	<circle cx="321.432915780601" cy="-452.45957593161" r="2" style="fill: rgb(0,0,0)" />
	<circle cx="292.486989723711" cy="-500.974340734263" r="2" style="fill: rgb(0,0,0)" />
	<circle cx="303.514796233183" cy="-347.519623063112" r="2" style="fill: rgb(0,0,0)" />
	<circle cx="352.464040311113" cy="-383.572074135816" r="2" style="fill: rgb(0,0,0)" />
	<circle cx="288.007400481979" cy="-262.335720730605" r="2" style="fill: rgb(0,0,0)" />
	<circle cx="292.486989723689" cy="-262.238062545157" r="2" style="fill: rgb(0,0,0)" />
	<circle cx="321.432915780605" cy="-310.75282734776" r="2" style="fill: rgb(0,0,0)" />
	<circle cx="221.672216778011" cy="-459.649801086533" r="2" style="fill: rgb(0,0,0)" />
	<circle cx="362.170060784077" cy="-453.008744747468" r="2" style="fill: rgb(0,0,0)" />
	<circle cx="361.931465022446" cy="-464.093443796235" r="2" style="fill: rgb(0,0,0)" />
	<circle cx="356.2581798328" cy="-390.253962201565" r="2" style="fill: rgb(0,0,0)" />
	<circle cx="362.138382713613" cy="-450.762068586008" r="2" style="fill: rgb(0,0,0)" />
	<circle cx="329.448513188139" cy="-316.098946839916" r="2" style="fill: rgb(0,0,0)" />
	<circle cx="369.177706333949" cy="-325.121572921285" r="2" style="fill: rgb(0,0,0)" />
	<circle cx="221.672216778006" cy="-303.56260219284" r="2" style="fill: rgb(0,0,0)" />
	<circle cx="361.931465022448" cy="-299.118959483112" r="2" style="fill: rgb(0,0,0)" />
	<circle cx="362.170060784082" cy="-310.203658531871" r="2" style="fill: rgb(0,0,0)" />
	<circle cx="156.44588376384" cy="-492.149676093048" r="2" style="fill: rgb(0,0,0)" />
	<circle cx="158.199787464021" cy="-495.454369382982" r="2" style="fill: rgb(0,0,0)" />
	<circle cx="402.893105430097" cy="-454.212988983826" r="2" style="fill: rgb(0,0,0)" />
	<circle cx="429.724649128458" cy="-503.928351819804" r="2" style="fill: rgb(0,0,0)" />
	<circle cx="427.345560958368" cy="-507.725218471978" r="2" style="fill: rgb(0,0,0)" />
	<circle cx="415.016929775378" cy="-405.849379135308" r="2" style="fill: rgb(0,0,0)" />
	<circle cx="402.409037415228" cy="-444.590282837424" r="2" style="fill: rgb(0,0,0)" />
	<circle cx="407.671005656801" cy="-338.46632757111" r="2" style="fill: rgb(0,0,0)" />
	<circle cx="413.073323750906" cy="-378.847406415446" r="2" style="fill: rgb(0,0,0)" />
	<circle cx="156.445883763833" cy="-271.062727186331" r="2" style="fill: rgb(0,0,0)" />
	<circle cx="158.199787464016" cy="-267.758033896389" r="2" style="fill: rgb(0,0,0)" />
	<circle cx="429.724649128383" cy="-259.28405145953" r="2" style="fill: rgb(0,0,0)" />
	<circle cx="402.8931054301" cy="-308.999414295497" r="2" style="fill: rgb(0,0,0)" />
	<circle cx="427.345560958312" cy="-255.487184807309" r="2" style="fill: rgb(0,0,0)" />
	<circle cx="156.707984835285" cy="-419.766359930988" r="2" style="fill: rgb(0,0,0)" />
	<circle cx="218.293338737518" cy="-535.805060218803" r="2" style="fill: rgb(0,0,0)" />
	<circle cx="424.237346008851" cy="-419.510828193195" r="2" style="fill: rgb(0,0,0)" />
	<circle cx="433.634221864139" cy="-425.395231739824" r="2" style="fill: rgb(0,0,0)" />
	<circle cx="357.953060801153" cy="-543.567836597214" r="2" style="fill: rgb(0,0,0)" />
	<circle cx="452.388495206653" cy="-303.942492797086" r="2" style="fill: rgb(0,0,0)" />
	<circle cx="424.050505006257" cy="-377.288890253736" r="2" style="fill: rgb(0,0,0)" />
	<circle cx="156.707984835285" cy="-343.446043348391" r="2" style="fill: rgb(0,0,0)" />
	<circle cx="218.293338737511" cy="-227.407343060566" r="2" style="fill: rgb(0,0,0)" />
	<circle cx="357.953060801064" cy="-219.644566682141" r="2" style="fill: rgb(0,0,0)" />
	<circle cx="93.0455077982108" cy="-385.320719087873" r="2" style="fill: rgb(0,0,0)" />
	<circle cx="214.636082321588" cy="-608.096398780879" r="2" style="fill: rgb(0,0,0)" />
	<circle cx="211.140543252757" cy="-607.834572728204" r="2" style="fill: rgb(0,0,0)" />
	<circle cx="504.620013600869" cy="-391.575813057971" r="2" style="fill: rgb(0,0,0)" />
	<circle cx="352.442494335336" cy="-616.233853765772" r="2" style="fill: rgb(0,0,0)" />
	<circle cx="356.179095479651" cy="-616.420904075203" r="2" style="fill: rgb(0,0,0)" />
	<circle cx="214.636082321584" cy="-155.116004498485" r="2" style="fill: rgb(0,0,0)" />
	<circle cx="211.14054325275" cy="-155.377830551167" r="2" style="fill: rgb(0,0,0)" />
	<circle cx="352.442494335158" cy="-146.978549513598" r="2" style="fill: rgb(0,0,0)" />
	<circle cx="356.179095479498" cy="-146.791499204147" r="2" style="fill: rgb(0,0,0)" />
	<circle cx="93.6020158480356" cy="-457.218210736507" r="2" style="fill: rgb(0,0,0)" />
	<circle cx="151.908139200833" cy="-567.078207375" r="2" style="fill: rgb(0,0,0)" />
	<circle cx="499.845436442477" cy="-469.532312242446" r="2" style="fill: rgb(0,0,0)" />
	<circle cx="421.621108558103" cy="-585.489430139615" r="2" style="fill: rgb(0,0,0)" />
	<circle cx="151.908139200826" cy="-196.134195904373" r="2" style="fill: rgb(0,0,0)" />
	<circle cx="421.621108557979" cy="-177.722973139676" r="2" style="fill: rgb(0,0,0)" />
	<circle cx="35.0644230103457" cy="-493.74108336799" r="2" style="fill: rgb(0,0,0)" />
	<circle cx="33.5" cy="-491.105047288329" r="2" style="fill: rgb(0,0,0)" />
	<circle cx="88.8526836908101" cy="-595.088554229528" r="2" style="fill: rgb(0,0,0)" />
	<circle cx="90.1590124827059" cy="-597.861568952895" r="2" style="fill: rgb(0,0,0)" />
	<circle cx="559.424832644838" cy="-511.496725047559" r="2" style="fill: rgb(0,0,0)" />
	<circle cx="561.5" cy="-508.383711013215" r="2" style="fill: rgb(0,0,0)" />
	<circle cx="481.828331768276" cy="-625.670314013775" r="2" style="fill: rgb(0,0,0)" />
	<circle cx="479.812463621613" cy="-628.53799981924" r="2" style="fill: rgb(0,0,0)" />
	<circle cx="88.852683690805" cy="-168.123849049852" r="2" style="fill: rgb(0,0,0)" />
	<circle cx="90.1590124826961" cy="-165.350834326471" r="2" style="fill: rgb(0,0,0)" />
	<circle cx="481.828331768126" cy="-137.542089265457" r="2" style="fill: rgb(0,0,0)" />
	<circle cx="479.812463621452" cy="-134.674403460001" r="2" style="fill: rgb(0,0,0)" />
	<circle cx="146.033643444408" cy="-638.341139298696" r="2" style="fill: rgb(0,0,0)" />
	<circle cx="414.463301445924" cy="-658.522095762085" r="2" style="fill: rgb(0,0,0)" />
	<circle cx="146.033643444401" cy="-124.871263980672" r="2" style="fill: rgb(0,0,0)" />
	<circle cx="414.463301445732" cy="-104.690307517214" r="2" style="fill: rgb(0,0,0)" />
	<circle cx="137.332971954434" cy="-709.712403279365" r="2" style="fill: rgb(0,0,0)" />
	<circle cx="137.332971954429" cy="-53.5" r="2" style="fill: rgb(0,0,0)" />
	<!-- 
	Generated using the Perl SVG Module V2.64
	by Ronan Oger
	Info: http://www.roitsystems.com/
 -->
</svg>