<?xml version="1.0" encoding="UTF-8" standalone="yes"?>
<!DOCTYPE svg PUBLIC "-//W3C//DTD SVG 1.0//EN" "http://www.w3.org/TR/2001/REC-SVG-20010904/DTD/svg10.dtd">
<!-- generated using polymake; Michael Joswig, Georg Loho, Benjamin Lorenz, Rico Raber; license CC BY-NC-ND 3.0; see polymake.org and matchthenet.de -->
<svg height="841pt" id="document" viewBox="0 -732.205211664161 572 732.205211664161" width="595pt" xmlns="http://www.w3.org/2000/svg" xmlns:svg="http://www.w3.org/2000/svg" xmlns:xlink="http://www.w3.org/1999/xlink">
	<title id="document_title">planar_net_</title>
	<polygon points="247.822797595682,-317.390876018148 325.326812483368,-317.390876018148 388.028877659797,-362.946592962586 411.978935392382,-436.657291360557 388.028877659798,-510.367989758527 325.32681248337,-555.923706702965 247.822797595682,-555.923706702964 185.120732419253,-510.367989758526 161.170674686667,-436.657291360555 185.120732419251,-362.946592962585 " style="fill: rgb(61,81,50); fill-opacity: 1; stroke: rgb(0,0,0); stroke-width: 3" />
	<polygon points="286.574805039536,-250.270430230124 325.326812483368,-317.390876018148 247.822797595682,-317.390876018148 " style="fill: rgb(61,81,50); fill-opacity: 1; stroke: rgb(0,0,0); stroke-width: 3" />
	<polygon points="247.822797595682,-317.390876018148 209.070790151843,-250.270430230119 286.574805039536,-250.270430230124 " style="fill: rgb(61,81,50); fill-opacity: 1; stroke: rgb(0,0,0); stroke-width: 3" />
	<polygon points="286.574805039536,-250.270430230124 209.070790151843,-250.270430230119 247.822797595698,-183.149984442096 " style="fill: rgb(61,81,50); fill-opacity: 1; stroke: rgb(0,0,0); stroke-width: 3" />
	<polygon points="247.822797595682,-317.390876018148 185.120732419251,-362.946592962585 177.019356845981,-285.867153177824 " style="fill: rgb(61,81,50); fill-opacity: 1; stroke: rgb(0,0,0); stroke-width: 3" />
	<polygon points="364.078819927207,-172.76641534243 286.574805039534,-172.76641534243 262.624747306946,-99.0557169444537 325.326812483336,-53.5 388.028877659755,-99.055716944441 " style="fill: rgb(61,81,50); fill-opacity: 1; stroke: rgb(0,0,0); stroke-width: 3" />
	<polygon points="185.120732419251,-362.946592962585 114.317291669541,-331.422870122262 177.019356845981,-285.867153177824 " style="fill: rgb(61,81,50); fill-opacity: 1; stroke: rgb(0,0,0); stroke-width: 3" />
	<polygon points="185.120732419251,-362.946592962585 161.170674686667,-436.657291360555 109.310366209628,-379.060583743036 " style="fill: rgb(61,81,50); fill-opacity: 1; stroke: rgb(0,0,0); stroke-width: 3" />
	<polygon points="325.32681248337,-555.923706702965 388.028877659798,-510.367989758527 396.130253233071,-587.447429543287 " style="fill: rgb(61,81,50); fill-opacity: 1; stroke: rgb(0,0,0); stroke-width: 3" />
	<polygon points="161.170674686667,-436.657291360555 85.3603084770355,-452.771282141015 109.310366209628,-379.060583743036 " style="fill: rgb(61,81,50); fill-opacity: 1; stroke: rgb(0,0,0); stroke-width: 3" />
	<polygon points="209.070790151829,-623.04415249098 286.574805039515,-623.044152490988 247.82279759566,-690.164598279012 " style="fill: rgb(61,81,50); fill-opacity: 1; stroke: rgb(0,0,0); stroke-width: 3" />
	<polygon points="247.822797595682,-555.923706702964 325.32681248337,-555.923706702965 286.574805039515,-623.044152490988 " style="fill: rgb(61,81,50); fill-opacity: 1; stroke: rgb(0,0,0); stroke-width: 3" />
	<polygon points="185.120732419253,-510.367989758526 247.822797595682,-555.923706702964 177.019356845962,-587.447429543272 " style="fill: rgb(61,81,50); fill-opacity: 1; stroke: rgb(0,0,0); stroke-width: 3" />
	<polygon points="247.822797595682,-555.923706702964 286.574805039515,-623.044152490988 209.070790151829,-623.04415249098 " style="fill: rgb(61,81,50); fill-opacity: 1; stroke: rgb(0,0,0); stroke-width: 3" />
	<polygon points="185.120732419253,-510.367989758526 177.019356845962,-587.447429543272 114.31729166954,-541.891712598828 " style="fill: rgb(61,81,50); fill-opacity: 1; stroke: rgb(0,0,0); stroke-width: 3" />
	<polygon points="161.170674686667,-436.657291360555 185.120732419253,-510.367989758526 109.310366209622,-494.253998978051 " style="fill: rgb(61,81,50); fill-opacity: 1; stroke: rgb(0,0,0); stroke-width: 3" />
	<polygon points="325.32681248337,-555.923706702965 396.130253233071,-587.447429543287 333.428188056637,-633.003146487717 " style="fill: rgb(61,81,50); fill-opacity: 1; stroke: rgb(0,0,0); stroke-width: 3" />
	<polygon points="109.310366209628,-379.060583743036 85.3603084770355,-452.771282141015 33.5,-395.174574523493 " style="fill: rgb(61,81,50); fill-opacity: 1; stroke: rgb(0,0,0); stroke-width: 3" />
	<polygon points="114.31729166954,-541.891712598828 177.019356845962,-587.447429543272 131.463639901515,-650.149494719713 68.7615747250973,-604.593777775281 " style="fill: rgb(61,81,50); fill-opacity: 1; stroke: rgb(0,0,0); stroke-width: 3" />
	<polygon points="333.428188056637,-633.003146487717 396.130253233071,-587.447429543287 441.685970177512,-650.149494719734 378.983905001093,-695.705211664161 " style="fill: rgb(61,81,50); fill-opacity: 1; stroke: rgb(0,0,0); stroke-width: 3" />
	<polygon points="388.028877659798,-510.367989758527 458.832318409509,-541.891712598849 396.130253233071,-587.447429543287 " style="fill: rgb(61,81,50); fill-opacity: 1; stroke: rgb(0,0,0); stroke-width: 3" />
	<polygon points="396.130253233071,-587.447429543287 458.832318409509,-541.891712598849 466.933693982776,-618.971152383609 " style="fill: rgb(61,81,50); fill-opacity: 1; stroke: rgb(0,0,0); stroke-width: 3" />
	<polygon points="177.019356845981,-285.867153177824 114.317291669541,-331.422870122262 68.7615747250979,-268.720804945829 131.463639901524,-223.16508800139 " style="fill: rgb(61,81,50); fill-opacity: 1; stroke: rgb(0,0,0); stroke-width: 3" />
	<polygon points="388.028877659798,-510.367989758527 411.978935392382,-436.657291360557 463.839243869422,-494.253998978075 " style="fill: rgb(61,81,50); fill-opacity: 1; stroke: rgb(0,0,0); stroke-width: 3" />
	<polygon points="411.978935392382,-436.657291360557 487.789301602015,-420.543300580096 463.839243869422,-494.253998978075 " style="fill: rgb(61,81,50); fill-opacity: 1; stroke: rgb(0,0,0); stroke-width: 3" />
	<polygon points="463.839243869422,-494.253998978075 487.789301602015,-420.543300580096 561.5,-444.493358312689 537.549942267418,-518.204056710657 " style="fill: rgb(61,81,50); fill-opacity: 1; stroke: rgb(0,0,0); stroke-width: 3" />
	<polygon points="411.978935392382,-436.657291360557 388.028877659797,-362.946592962586 463.839243869428,-379.060583743061 " style="fill: rgb(61,81,50); fill-opacity: 1; stroke: rgb(0,0,0); stroke-width: 3" />
	<polygon points="463.839243869428,-379.060583743061 439.889186136845,-305.34988534508 515.699552346476,-321.463876125559 " style="fill: rgb(61,81,50); fill-opacity: 1; stroke: rgb(0,0,0); stroke-width: 3" />
	<polygon points="388.028877659797,-362.946592962586 439.889186136845,-305.34988534508 463.839243869428,-379.060583743061 " style="fill: rgb(61,81,50); fill-opacity: 1; stroke: rgb(0,0,0); stroke-width: 3" />
	<polygon points="364.078819927222,-250.270430230134 325.326812483368,-317.390876018148 286.574805039536,-250.270430230124 " style="fill: rgb(61,81,50); fill-opacity: 1; stroke: rgb(0,0,0); stroke-width: 3" />
	<polygon points="388.028877659797,-362.946592962586 325.326812483368,-317.390876018148 396.130253233087,-285.86715317784 " style="fill: rgb(61,81,50); fill-opacity: 1; stroke: rgb(0,0,0); stroke-width: 3" />
	<polygon points="364.078819927222,-250.270430230134 286.574805039536,-250.270430230124 286.574805039534,-172.76641534243 364.078819927207,-172.76641534243 " style="fill: rgb(61,81,50); fill-opacity: 1; stroke: rgb(0,0,0); stroke-width: 3" />
	<circle cx="247.822797595682" cy="-317.390876018148" r="2" style="fill: rgb(0,0,0)" />
	<circle cx="325.326812483368" cy="-317.390876018148" r="2" style="fill: rgb(0,0,0)" />
	<circle cx="388.028877659797" cy="-362.946592962586" r="2" style="fill: rgb(0,0,0)" />
	<circle cx="411.978935392382" cy="-436.657291360557" r="2" style="fill: rgb(0,0,0)" />
	<circle cx="388.028877659798" cy="-510.367989758527" r="2" style="fill: rgb(0,0,0)" />
	<circle cx="325.32681248337" cy="-555.923706702965" r="2" style="fill: rgb(0,0,0)" />
	<circle cx="247.822797595682" cy="-555.923706702964" r="2" style="fill: rgb(0,0,0)" />
	<circle cx="185.120732419253" cy="-510.367989758526" r="2" style="fill: rgb(0,0,0)" />
	<circle cx="161.170674686667" cy="-436.657291360555" r="2" style="fill: rgb(0,0,0)" />
	<circle cx="185.120732419251" cy="-362.946592962585" r="2" style="fill: rgb(0,0,0)" />
	<circle cx="286.574805039536" cy="-250.270430230124" r="2" style="fill: rgb(0,0,0)" />
	<circle cx="177.019356845981" cy="-285.867153177824" r="2" style="fill: rgb(0,0,0)" />
	<circle cx="109.310366209628" cy="-379.060583743036" r="2" style="fill: rgb(0,0,0)" />
	<circle cx="396.130253233071" cy="-587.447429543287" r="2" style="fill: rgb(0,0,0)" />
	<circle cx="286.574805039515" cy="-623.044152490988" r="2" style="fill: rgb(0,0,0)" />
	<circle cx="177.019356845962" cy="-587.447429543272" r="2" style="fill: rgb(0,0,0)" />
	<circle cx="109.310366209622" cy="-494.253998978051" r="2" style="fill: rgb(0,0,0)" />
	<circle cx="463.839243869422" cy="-494.253998978075" r="2" style="fill: rgb(0,0,0)" />
	<circle cx="463.839243869428" cy="-379.060583743061" r="2" style="fill: rgb(0,0,0)" />
	<circle cx="396.130253233087" cy="-285.86715317784" r="2" style="fill: rgb(0,0,0)" />
	<circle cx="209.070790151843" cy="-250.270430230119" r="2" style="fill: rgb(0,0,0)" />
	<circle cx="364.078819927222" cy="-250.270430230134" r="2" style="fill: rgb(0,0,0)" />
	<circle cx="114.317291669541" cy="-331.422870122262" r="2" style="fill: rgb(0,0,0)" />
	<circle cx="85.3603084770355" cy="-452.771282141015" r="2" style="fill: rgb(0,0,0)" />
	<circle cx="333.428188056637" cy="-633.003146487717" r="2" style="fill: rgb(0,0,0)" />
	<circle cx="458.832318409509" cy="-541.891712598849" r="2" style="fill: rgb(0,0,0)" />
	<circle cx="209.070790151829" cy="-623.04415249098" r="2" style="fill: rgb(0,0,0)" />
	<circle cx="114.31729166954" cy="-541.891712598828" r="2" style="fill: rgb(0,0,0)" />
	<circle cx="487.789301602015" cy="-420.543300580096" r="2" style="fill: rgb(0,0,0)" />
	<circle cx="439.889186136845" cy="-305.34988534508" r="2" style="fill: rgb(0,0,0)" />
	<circle cx="247.822797595698" cy="-183.149984442096" r="2" style="fill: rgb(0,0,0)" />
	<circle cx="286.574805039534" cy="-172.76641534243" r="2" style="fill: rgb(0,0,0)" />
	<circle cx="364.078819927207" cy="-172.76641534243" r="2" style="fill: rgb(0,0,0)" />
	<circle cx="68.7615747250979" cy="-268.720804945829" r="2" style="fill: rgb(0,0,0)" />
	<circle cx="131.463639901524" cy="-223.16508800139" r="2" style="fill: rgb(0,0,0)" />
	<circle cx="33.5" cy="-395.174574523493" r="2" style="fill: rgb(0,0,0)" />
	<circle cx="441.685970177512" cy="-650.149494719734" r="2" style="fill: rgb(0,0,0)" />
	<circle cx="378.983905001093" cy="-695.705211664161" r="2" style="fill: rgb(0,0,0)" />
	<circle cx="466.933693982776" cy="-618.971152383609" r="2" style="fill: rgb(0,0,0)" />
	<circle cx="247.82279759566" cy="-690.164598279012" r="2" style="fill: rgb(0,0,0)" />
	<circle cx="131.463639901515" cy="-650.149494719713" r="2" style="fill: rgb(0,0,0)" />
	<circle cx="68.7615747250973" cy="-604.593777775281" r="2" style="fill: rgb(0,0,0)" />
	<circle cx="561.5" cy="-444.493358312689" r="2" style="fill: rgb(0,0,0)" />
	<circle cx="537.549942267418" cy="-518.204056710657" r="2" style="fill: rgb(0,0,0)" />
	<circle cx="515.699552346476" cy="-321.463876125559" r="2" style="fill: rgb(0,0,0)" />
	<circle cx="262.624747306946" cy="-99.0557169444537" r="2" style="fill: rgb(0,0,0)" />
	<circle cx="325.326812483336" cy="-53.5" r="2" style="fill: rgb(0,0,0)" />
	<circle cx="388.028877659755" cy="-99.055716944441" r="2" style="fill: rgb(0,0,0)" />
	<!--
	Generated using the Perl SVG Module V2.84
	by Ronan Oger
	Info: http://www.roitsystems.com/
	-->
</svg>