<?xml version="1.0" encoding="UTF-8" standalone="yes"?>
<!DOCTYPE svg PUBLIC "-//W3C//DTD SVG 1.0//EN" "http://www.w3.org/TR/2001/REC-SVG-20010904/DTD/svg10.dtd">
<!-- generated using polymake; Michael Joswig, Georg Loho, Benjamin Lorenz, Rico Raber; license CC BY-NC-SA 3.0; see polymake.org and matchthenet.de -->
<svg height="841pt" id="document" viewBox="0 -612.941256459206 572 612.941256459206" width="595pt" xmlns="http://www.w3.org/2000/svg" xmlns:svg="http://www.w3.org/2000/svg" xmlns:xlink="http://www.w3.org/1999/xlink">
	<title id="document_title">planar_net_</title>
	<polygon points="248.438230431455,-332.027023152622 304.092164764004,-332.027023152622 296.934584319261,-445.852424554121 " style="fill: rgb(14,173,105); fill-opacity: 1; stroke: rgb(0,0,0); stroke-width: 3" />
	<polygon points="302.872184030199,-295.511581639849 304.092164764004,-332.027023152622 248.438230431455,-332.027023152622 269.139519751377,-279.067047068194 " style="fill: rgb(67,184,206); fill-opacity: 1; stroke: rgb(0,0,0); stroke-width: 3" />
	<polygon points="296.934584319261,-445.852424554121 304.092164764004,-332.027023152622 359.307703605784,-338.998728618544 " style="fill: rgb(14,173,105); fill-opacity: 1; stroke: rgb(0,0,0); stroke-width: 3" />
	<polygon points="248.438230431455,-332.027023152622 296.934584319261,-445.852424554121 209.885324656367,-372.164709470952 " style="fill: rgb(14,173,105); fill-opacity: 1; stroke: rgb(0,0,0); stroke-width: 3" />
	<polygon points="359.621992690865,-328.312374164446 304.092164764004,-332.027023152622 302.872184030199,-295.511581639849 335.432027120222,-276.852214700429 " style="fill: rgb(67,184,206); fill-opacity: 1; stroke: rgb(0,0,0); stroke-width: 3" />
	<polygon points="248.438230431455,-332.027023152622 206.148813873779,-294.015081692319 233.059412922673,-267.221007191357 269.139519751377,-279.067047068194 " style="fill: rgb(67,184,206); fill-opacity: 1; stroke: rgb(0,0,0); stroke-width: 3" />
	<polygon points="296.934584319261,-445.852424554121 359.307703605784,-338.998728618544 392.528918985547,-383.649722508748 " style="fill: rgb(14,173,105); fill-opacity: 1; stroke: rgb(0,0,0); stroke-width: 3" />
	<polygon points="333.68833142581,-274.094756097327 302.872184030199,-295.511581639849 269.139519751377,-279.067047068194 297.566100853073,-226.629578205752 " style="fill: rgb(67,184,206); fill-opacity: 1; stroke: rgb(0,0,0); stroke-width: 3" />
	<polygon points="248.438230431455,-332.027023152622 209.885324656367,-372.164709470952 184.395454947232,-345.989676250832 195.903116802159,-310.270086733896 " style="fill: rgb(67,184,206); fill-opacity: 1; stroke: rgb(0,0,0); stroke-width: 3" />
	<polygon points="359.621992690865,-328.312374164446 335.432027120222,-276.852214700429 370.641006812994,-262.624406769206 399.279979698617,-287.562570326092 " style="fill: rgb(67,184,206); fill-opacity: 1; stroke: rgb(0,0,0); stroke-width: 3" />
	<polygon points="286.064015315653,-221.871591796592 269.139519751377,-279.067047068194 233.059412922673,-267.221007191357 225.77416765947,-228.651570572319 " style="fill: rgb(67,184,206); fill-opacity: 1; stroke: rgb(0,0,0); stroke-width: 3" />
	<polygon points="209.885324656367,-372.164709470952 296.934584319261,-445.852424554121 176.664109276603,-416.815703361156 " style="fill: rgb(14,173,105); fill-opacity: 1; stroke: rgb(0,0,0); stroke-width: 3" />
	<polygon points="392.528918985547,-383.649722508748 359.307703605784,-338.998728618544 414.154456064796,-323.994189602939 421.096917496986,-360.873961645191 " style="fill: rgb(67,184,206); fill-opacity: 1; stroke: rgb(0,0,0); stroke-width: 3" />
	<polygon points="333.68833142581,-274.094756097327 297.566100853073,-226.629578205752 356.337303625889,-211.570376127274 363.215225128943,-250.214527501728 " style="fill: rgb(67,184,206); fill-opacity: 1; stroke: rgb(0,0,0); stroke-width: 3" />
	<polygon points="209.885324656367,-372.164709470952 168.7393811197,-409.639657598591 148.383259154597,-356.546053982793 184.395454947232,-345.989676250832 " style="fill: rgb(67,184,206); fill-opacity: 1; stroke: rgb(0,0,0); stroke-width: 3" />
	<polygon points="206.148813873779,-294.015081692319 165.330459901749,-250.522316399171 222.238305097114,-229.49064985031 233.059412922673,-267.221007191357 " style="fill: rgb(67,184,206); fill-opacity: 1; stroke: rgb(0,0,0); stroke-width: 3" />
	<polygon points="296.934584319261,-445.852424554121 392.528918985547,-383.649722508748 419.895065660977,-432.11057704961 " style="fill: rgb(14,173,105); fill-opacity: 1; stroke: rgb(0,0,0); stroke-width: 3" />
	<polygon points="286.064015315653,-221.871591796592 225.77416765947,-228.651570572319 222.896541326405,-188.770780533097 257.480231995147,-167.325418635288 " style="fill: rgb(67,184,206); fill-opacity: 1; stroke: rgb(0,0,0); stroke-width: 3" />
	<polygon points="176.664109276603,-416.815703361156 296.934584319261,-445.852424554121 185.853274542821,-471.705772120465 " style="fill: rgb(14,173,105); fill-opacity: 1; stroke: rgb(0,0,0); stroke-width: 3" />
	<polygon points="195.903116802159,-310.270086733896 184.395454947232,-345.989676250832 147.602479266151,-353.378336288887 138.39332854307,-294.446594444716 " style="fill: rgb(67,184,206); fill-opacity: 1; stroke: rgb(0,0,0); stroke-width: 3" />
	<polygon points="392.528918985547,-383.649722508748 421.096917496986,-360.873961645191 455.503053598537,-375.858392071099 428.656304532464,-425.983779959418 " style="fill: rgb(67,184,206); fill-opacity: 1; stroke: rgb(0,0,0); stroke-width: 3" />
	<polygon points="399.279979698617,-287.562570326092 370.641006812994,-262.624406769206 378.919652830304,-224.255926739694 437.104364281312,-241.442351497781 " style="fill: rgb(67,184,206); fill-opacity: 1; stroke: rgb(0,0,0); stroke-width: 3" />
	<polygon points="356.337303625889,-211.570376127274 297.566100853073,-226.629578205752 304.92975983578,-165.489622351643 344.873286607322,-173.264574200365 " style="fill: rgb(67,184,206); fill-opacity: 1; stroke: rgb(0,0,0); stroke-width: 3" />
	<polygon points="148.383259154597,-356.546053982793 168.7393811197,-409.639657598591 111.878468799875,-410.012614067014 113.731984426202,-372.082846741651 " style="fill: rgb(67,184,206); fill-opacity: 1; stroke: rgb(0,0,0); stroke-width: 3" />
	<polygon points="222.238305097114,-229.49064985031 165.330459901749,-250.522316399171 166.358485358064,-188.949101125667 206.89033112299,-192.56914064016 " style="fill: rgb(67,184,206); fill-opacity: 1; stroke: rgb(0,0,0); stroke-width: 3" />
	<polygon points="296.934584319261,-445.852424554121 419.895065660977,-432.11057704961 403.902268121165,-485.417151067664 " style="fill: rgb(14,173,105); fill-opacity: 1; stroke: rgb(0,0,0); stroke-width: 3" />
	<polygon points="421.096917496986,-360.873961645191 414.154456064796,-323.994189602939 473.193420955423,-315.499527839547 456.674499567275,-372.813434441705 " style="fill: rgb(67,184,206); fill-opacity: 1; stroke: rgb(0,0,0); stroke-width: 3" />
	<polygon points="185.853274542821,-471.705772120465 296.934584319261,-445.852424554121 201.846072082629,-525.012346138519 " style="fill: rgb(14,173,105); fill-opacity: 1; stroke: rgb(0,0,0); stroke-width: 3" />
	<polygon points="176.664109276603,-416.815703361156 185.853274542821,-471.705772120465 149.637583340231,-476.531695097662 127.849066951872,-445.977220626318 " style="fill: rgb(67,184,206); fill-opacity: 1; stroke: rgb(0,0,0); stroke-width: 3" />
	<polygon points="138.39332854307,-294.446594444716 147.602479266151,-353.378336288887 109.925993308869,-358.130722578385 86.8202959005295,-326.400563629396 " style="fill: rgb(67,184,206); fill-opacity: 1; stroke: rgb(0,0,0); stroke-width: 3" />
	<polygon points="428.656304532464,-425.983779959418 455.503053598537,-375.858392071099 487.935097879504,-395.613524905156 485.022593955617,-433.476700820904 " style="fill: rgb(67,184,206); fill-opacity: 1; stroke: rgb(0,0,0); stroke-width: 3" />
	<polygon points="437.104364281312,-241.442351497781 378.919652830304,-224.255926739694 391.769057199555,-186.392343248155 431.968897005955,-180.07505848823 " style="fill: rgb(67,184,206); fill-opacity: 1; stroke: rgb(0,0,0); stroke-width: 3" />
	<polygon points="296.934584319261,-445.852424554121 403.902268121165,-485.417151067664 381.357794271351,-536.300420474482 " style="fill: rgb(14,173,105); fill-opacity: 1; stroke: rgb(0,0,0); stroke-width: 3" />
	<polygon points="257.480231995147,-167.325418635288 222.896541326405,-188.770780533097 187.476467975074,-168.736968839227 221.411819685538,-115.138186316896 " style="fill: rgb(67,184,206); fill-opacity: 1; stroke: rgb(0,0,0); stroke-width: 3" />
	<polygon points="165.330459901749,-250.522316399171 109.156425710994,-227.602636529244 125.728383716815,-191.214062013084 166.358485358064,-188.949101125667 " style="fill: rgb(67,184,206); fill-opacity: 1; stroke: rgb(0,0,0); stroke-width: 3" />
	<polygon points="403.902268121165,-485.417151067664 419.895065660977,-432.11057704961 464.672553292709,-467.157389283561 439.22814425659,-494.741758144004 " style="fill: rgb(67,184,206); fill-opacity: 1; stroke: rgb(0,0,0); stroke-width: 3" />
	<polygon points="456.674499567275,-372.813434441705 473.193420955423,-315.499527839547 520.357366450383,-353.662285705722 493.458875386839,-382.248076199571 " style="fill: rgb(67,184,206); fill-opacity: 1; stroke: rgb(0,0,0); stroke-width: 3" />
	<polygon points="185.853274542821,-471.705772120465 201.846072082629,-525.012346138519 145.171077729158,-520.402849267431 151.228549372271,-483.36742846626 " style="fill: rgb(67,184,206); fill-opacity: 1; stroke: rgb(0,0,0); stroke-width: 3" />
	<polygon points="344.873286607322,-173.264574200365 304.92975983578,-165.489622351643 320.128011094328,-103.898626725074 370.877149979748,-141.963866590032 " style="fill: rgb(67,184,206); fill-opacity: 1; stroke: rgb(0,0,0); stroke-width: 3" />
	<polygon points="113.731984426202,-372.082846741651 111.878468799875,-410.012614067014 52.414589906669,-405.342950181351 80.3257590068388,-351.474587647637 " style="fill: rgb(67,184,206); fill-opacity: 1; stroke: rgb(0,0,0); stroke-width: 3" />
	<polygon points="437.104364281312,-241.442351497781 431.968897005955,-180.07505848823 472.659570803177,-179.623092640437 491.623347050812,-214.82441843783 " style="fill: rgb(67,184,206); fill-opacity: 1; stroke: rgb(0,0,0); stroke-width: 3" />
	<polygon points="403.902268121165,-485.417151067664 436.79340593929,-501.324346763082 438.163776535297,-538.826845893877 381.357794271351,-536.300420474482 " style="fill: rgb(67,184,206); fill-opacity: 1; stroke: rgb(0,0,0); stroke-width: 3" />
	<polygon points="187.476467975074,-168.736968839227 154.218521647644,-145.288211659337 158.81232430691,-104.855153596338 221.411819685538,-115.138186316896 " style="fill: rgb(67,184,206); fill-opacity: 1; stroke: rgb(0,0,0); stroke-width: 3" />
	<polygon points="127.849066951872,-445.977220626318 149.637583340231,-476.531695097662 133.602843549596,-510.461069929409 80.824903231699,-482.671725395416 " style="fill: rgb(67,184,206); fill-opacity: 1; stroke: rgb(0,0,0); stroke-width: 3" />
	<polygon points="487.935097879504,-395.613524905156 523.659750118607,-379.35236067715 544.603029296147,-436.292793586413 485.022593955617,-433.476700820904 " style="fill: rgb(67,184,206); fill-opacity: 1; stroke: rgb(0,0,0); stroke-width: 3" />
	<polygon points="145.171077729158,-520.402849267431 201.846072082629,-525.012346138519 177.589740340239,-576.441256459206 144.192710998362,-558.365272373371 " style="fill: rgb(67,184,206); fill-opacity: 1; stroke: rgb(0,0,0); stroke-width: 3" />
	<polygon points="370.877149979748,-141.963866590032 320.128011094328,-103.898626725074 375.002574858418,-72.067512461031 393.647627543761,-108.237903909828 " style="fill: rgb(67,184,206); fill-opacity: 1; stroke: rgb(0,0,0); stroke-width: 3" />
	<polygon points="109.156425710994,-227.602636529244 54.9912137012821,-200.27200077837 100.765536802119,-159.076988700272 125.728383716815,-191.214062013084 " style="fill: rgb(67,184,206); fill-opacity: 1; stroke: rgb(0,0,0); stroke-width: 3" />
	<polygon points="439.22814425659,-494.741758144004 464.672553292709,-467.157389283561 506.729620542259,-509.453509060652 450.886281233602,-530.412519263612 " style="fill: rgb(67,184,206); fill-opacity: 1; stroke: rgb(0,0,0); stroke-width: 3" />
	<polygon points="221.411819685538,-115.138186316896 158.81232430691,-104.855153596338 167.394535920821,-65.0772595971103 206.406101736873,-53.5 " style="fill: rgb(67,184,206); fill-opacity: 1; stroke: rgb(0,0,0); stroke-width: 3" />
	<polygon points="80.824903231699,-482.671725395416 133.602843549596,-510.461069929409 114.925639574184,-543.525625290019 75.6762583819005,-543.122741092546 " style="fill: rgb(67,184,206); fill-opacity: 1; stroke: rgb(0,0,0); stroke-width: 3" />
	<polygon points="491.623347050812,-214.82441843783 472.659570803177,-179.623092640437 495.421746776251,-145.891526531375 543.843575843906,-183.939445596638 " style="fill: rgb(67,184,206); fill-opacity: 1; stroke: rgb(0,0,0); stroke-width: 3" />
	<polygon points="54.9912137012821,-200.27200077837 33.5,-143.53610758676 71.4277046174725,-130.87722256817 100.765536802119,-159.076988700272 " style="fill: rgb(67,184,206); fill-opacity: 1; stroke: rgb(0,0,0); stroke-width: 3" />
	<polygon points="450.886281233602,-530.412519263612 506.729620542259,-509.453509060652 504.265078214501,-570.07330676502 465.274402214236,-565.556291744391 " style="fill: rgb(67,184,206); fill-opacity: 1; stroke: rgb(0,0,0); stroke-width: 3" />
	<polygon points="543.843575843906,-183.939445596638 495.421746776251,-145.891526531375 522.811949436871,-115.796477014721 561.5,-125.895630003374 " style="fill: rgb(67,184,206); fill-opacity: 1; stroke: rgb(0,0,0); stroke-width: 3" />
	<circle cx="248.438230431455" cy="-332.027023152622" r="2" style="fill: rgb(0,0,0)" />
	<circle cx="304.092164764004" cy="-332.027023152622" r="2" style="fill: rgb(0,0,0)" />
	<circle cx="296.934584319261" cy="-445.852424554121" r="2" style="fill: rgb(0,0,0)" />
	<circle cx="269.139519751377" cy="-279.067047068194" r="2" style="fill: rgb(0,0,0)" />
	<circle cx="302.872184030199" cy="-295.511581639849" r="2" style="fill: rgb(0,0,0)" />
	<circle cx="359.307703605784" cy="-338.998728618544" r="2" style="fill: rgb(0,0,0)" />
	<circle cx="209.885324656367" cy="-372.164709470952" r="2" style="fill: rgb(0,0,0)" />
	<circle cx="335.432027120222" cy="-276.852214700429" r="2" style="fill: rgb(0,0,0)" />
	<circle cx="359.621992690865" cy="-328.312374164446" r="2" style="fill: rgb(0,0,0)" />
	<circle cx="206.148813873779" cy="-294.015081692319" r="2" style="fill: rgb(0,0,0)" />
	<circle cx="233.059412922673" cy="-267.221007191357" r="2" style="fill: rgb(0,0,0)" />
	<circle cx="297.566100853073" cy="-226.629578205752" r="2" style="fill: rgb(0,0,0)" />
	<circle cx="333.68833142581" cy="-274.094756097327" r="2" style="fill: rgb(0,0,0)" />
	<circle cx="392.528918985547" cy="-383.649722508748" r="2" style="fill: rgb(0,0,0)" />
	<circle cx="184.395454947232" cy="-345.989676250832" r="2" style="fill: rgb(0,0,0)" />
	<circle cx="195.903116802159" cy="-310.270086733896" r="2" style="fill: rgb(0,0,0)" />
	<circle cx="176.664109276603" cy="-416.815703361156" r="2" style="fill: rgb(0,0,0)" />
	<circle cx="370.641006812994" cy="-262.624406769206" r="2" style="fill: rgb(0,0,0)" />
	<circle cx="399.279979698617" cy="-287.562570326092" r="2" style="fill: rgb(0,0,0)" />
	<circle cx="225.77416765947" cy="-228.651570572319" r="2" style="fill: rgb(0,0,0)" />
	<circle cx="286.064015315653" cy="-221.871591796592" r="2" style="fill: rgb(0,0,0)" />
	<circle cx="165.330459901749" cy="-250.522316399171" r="2" style="fill: rgb(0,0,0)" />
	<circle cx="222.238305097114" cy="-229.49064985031" r="2" style="fill: rgb(0,0,0)" />
	<circle cx="356.337303625889" cy="-211.570376127274" r="2" style="fill: rgb(0,0,0)" />
	<circle cx="363.215225128943" cy="-250.214527501728" r="2" style="fill: rgb(0,0,0)" />
	<circle cx="414.154456064796" cy="-323.994189602939" r="2" style="fill: rgb(0,0,0)" />
	<circle cx="421.096917496986" cy="-360.873961645191" r="2" style="fill: rgb(0,0,0)" />
	<circle cx="419.895065660977" cy="-432.11057704961" r="2" style="fill: rgb(0,0,0)" />
	<circle cx="168.7393811197" cy="-409.639657598591" r="2" style="fill: rgb(0,0,0)" />
	<circle cx="148.383259154597" cy="-356.546053982793" r="2" style="fill: rgb(0,0,0)" />
	<circle cx="147.602479266151" cy="-353.378336288887" r="2" style="fill: rgb(0,0,0)" />
	<circle cx="138.39332854307" cy="-294.446594444716" r="2" style="fill: rgb(0,0,0)" />
	<circle cx="185.853274542821" cy="-471.705772120465" r="2" style="fill: rgb(0,0,0)" />
	<circle cx="378.919652830304" cy="-224.255926739694" r="2" style="fill: rgb(0,0,0)" />
	<circle cx="437.104364281312" cy="-241.442351497781" r="2" style="fill: rgb(0,0,0)" />
	<circle cx="222.896541326405" cy="-188.770780533097" r="2" style="fill: rgb(0,0,0)" />
	<circle cx="257.480231995147" cy="-167.325418635288" r="2" style="fill: rgb(0,0,0)" />
	<circle cx="166.358485358064" cy="-188.949101125667" r="2" style="fill: rgb(0,0,0)" />
	<circle cx="206.89033112299" cy="-192.56914064016" r="2" style="fill: rgb(0,0,0)" />
	<circle cx="304.92975983578" cy="-165.489622351643" r="2" style="fill: rgb(0,0,0)" />
	<circle cx="344.873286607322" cy="-173.264574200365" r="2" style="fill: rgb(0,0,0)" />
	<circle cx="455.503053598537" cy="-375.858392071099" r="2" style="fill: rgb(0,0,0)" />
	<circle cx="428.656304532464" cy="-425.983779959418" r="2" style="fill: rgb(0,0,0)" />
	<circle cx="473.193420955423" cy="-315.499527839547" r="2" style="fill: rgb(0,0,0)" />
	<circle cx="456.674499567275" cy="-372.813434441705" r="2" style="fill: rgb(0,0,0)" />
	<circle cx="403.902268121165" cy="-485.417151067664" r="2" style="fill: rgb(0,0,0)" />
	<circle cx="111.878468799875" cy="-410.012614067014" r="2" style="fill: rgb(0,0,0)" />
	<circle cx="113.731984426202" cy="-372.082846741651" r="2" style="fill: rgb(0,0,0)" />
	<circle cx="109.925993308869" cy="-358.130722578385" r="2" style="fill: rgb(0,0,0)" />
	<circle cx="86.8202959005295" cy="-326.400563629396" r="2" style="fill: rgb(0,0,0)" />
	<circle cx="201.846072082629" cy="-525.012346138519" r="2" style="fill: rgb(0,0,0)" />
	<circle cx="149.637583340231" cy="-476.531695097662" r="2" style="fill: rgb(0,0,0)" />
	<circle cx="127.849066951872" cy="-445.977220626318" r="2" style="fill: rgb(0,0,0)" />
	<circle cx="391.769057199555" cy="-186.392343248155" r="2" style="fill: rgb(0,0,0)" />
	<circle cx="431.968897005955" cy="-180.07505848823" r="2" style="fill: rgb(0,0,0)" />
	<circle cx="187.476467975074" cy="-168.736968839227" r="2" style="fill: rgb(0,0,0)" />
	<circle cx="221.411819685538" cy="-115.138186316896" r="2" style="fill: rgb(0,0,0)" />
	<circle cx="109.156425710994" cy="-227.602636529244" r="2" style="fill: rgb(0,0,0)" />
	<circle cx="125.728383716815" cy="-191.214062013084" r="2" style="fill: rgb(0,0,0)" />
	<circle cx="320.128011094328" cy="-103.898626725074" r="2" style="fill: rgb(0,0,0)" />
	<circle cx="370.877149979748" cy="-141.963866590032" r="2" style="fill: rgb(0,0,0)" />
	<circle cx="487.935097879504" cy="-395.613524905156" r="2" style="fill: rgb(0,0,0)" />
	<circle cx="485.022593955617" cy="-433.476700820904" r="2" style="fill: rgb(0,0,0)" />
	<circle cx="520.357366450383" cy="-353.662285705722" r="2" style="fill: rgb(0,0,0)" />
	<circle cx="493.458875386839" cy="-382.248076199571" r="2" style="fill: rgb(0,0,0)" />
	<circle cx="381.357794271351" cy="-536.300420474482" r="2" style="fill: rgb(0,0,0)" />
	<circle cx="464.672553292709" cy="-467.157389283561" r="2" style="fill: rgb(0,0,0)" />
	<circle cx="439.22814425659" cy="-494.741758144004" r="2" style="fill: rgb(0,0,0)" />
	<circle cx="52.414589906669" cy="-405.342950181351" r="2" style="fill: rgb(0,0,0)" />
	<circle cx="80.3257590068388" cy="-351.474587647637" r="2" style="fill: rgb(0,0,0)" />
	<circle cx="145.171077729158" cy="-520.402849267431" r="2" style="fill: rgb(0,0,0)" />
	<circle cx="151.228549372271" cy="-483.36742846626" r="2" style="fill: rgb(0,0,0)" />
	<circle cx="133.602843549596" cy="-510.461069929409" r="2" style="fill: rgb(0,0,0)" />
	<circle cx="80.824903231699" cy="-482.671725395416" r="2" style="fill: rgb(0,0,0)" />
	<circle cx="472.659570803177" cy="-179.623092640437" r="2" style="fill: rgb(0,0,0)" />
	<circle cx="491.623347050812" cy="-214.82441843783" r="2" style="fill: rgb(0,0,0)" />
	<circle cx="154.218521647644" cy="-145.288211659337" r="2" style="fill: rgb(0,0,0)" />
	<circle cx="158.81232430691" cy="-104.855153596338" r="2" style="fill: rgb(0,0,0)" />
	<circle cx="54.9912137012821" cy="-200.27200077837" r="2" style="fill: rgb(0,0,0)" />
	<circle cx="100.765536802119" cy="-159.076988700272" r="2" style="fill: rgb(0,0,0)" />
	<circle cx="375.002574858418" cy="-72.067512461031" r="2" style="fill: rgb(0,0,0)" />
	<circle cx="393.647627543761" cy="-108.237903909828" r="2" style="fill: rgb(0,0,0)" />
	<circle cx="523.659750118607" cy="-379.35236067715" r="2" style="fill: rgb(0,0,0)" />
	<circle cx="544.603029296147" cy="-436.292793586413" r="2" style="fill: rgb(0,0,0)" />
	<circle cx="436.79340593929" cy="-501.324346763082" r="2" style="fill: rgb(0,0,0)" />
	<circle cx="438.163776535297" cy="-538.826845893877" r="2" style="fill: rgb(0,0,0)" />
	<circle cx="506.729620542259" cy="-509.453509060652" r="2" style="fill: rgb(0,0,0)" />
	<circle cx="450.886281233602" cy="-530.412519263612" r="2" style="fill: rgb(0,0,0)" />
	<circle cx="177.589740340239" cy="-576.441256459206" r="2" style="fill: rgb(0,0,0)" />
	<circle cx="144.192710998362" cy="-558.365272373371" r="2" style="fill: rgb(0,0,0)" />
	<circle cx="114.925639574184" cy="-543.525625290019" r="2" style="fill: rgb(0,0,0)" />
	<circle cx="75.6762583819005" cy="-543.122741092546" r="2" style="fill: rgb(0,0,0)" />
	<circle cx="495.421746776251" cy="-145.891526531375" r="2" style="fill: rgb(0,0,0)" />
	<circle cx="543.843575843906" cy="-183.939445596638" r="2" style="fill: rgb(0,0,0)" />
	<circle cx="167.394535920821" cy="-65.0772595971103" r="2" style="fill: rgb(0,0,0)" />
	<circle cx="206.406101736873" cy="-53.5" r="2" style="fill: rgb(0,0,0)" />
	<circle cx="33.5" cy="-143.53610758676" r="2" style="fill: rgb(0,0,0)" />
	<circle cx="71.4277046174725" cy="-130.87722256817" r="2" style="fill: rgb(0,0,0)" />
	<circle cx="504.265078214501" cy="-570.07330676502" r="2" style="fill: rgb(0,0,0)" />
	<circle cx="465.274402214236" cy="-565.556291744391" r="2" style="fill: rgb(0,0,0)" />
	<circle cx="522.811949436871" cy="-115.796477014721" r="2" style="fill: rgb(0,0,0)" />
	<circle cx="561.5" cy="-125.895630003374" r="2" style="fill: rgb(0,0,0)" />
	<!-- 
	Generated using the Perl SVG Module V2.64
	by Ronan Oger
	Info: http://www.roitsystems.com/
 -->
</svg>