<?xml version="1.0" encoding="UTF-8" standalone="yes"?>
<!DOCTYPE svg PUBLIC "-//W3C//DTD SVG 1.0//EN" "http://www.w3.org/TR/2001/REC-SVG-20010904/DTD/svg10.dtd">
<!-- generated using polymake; Michael Joswig, Georg Loho, Benjamin Lorenz, Rico Raber; license CC BY-NC-ND 3.0; see polymake.org and matchthenet.de -->
<svg height="841pt" id="document" viewBox="0 -473.745687341873 572 473.745687341873" width="595pt" xmlns="http://www.w3.org/2000/svg" xmlns:svg="http://www.w3.org/2000/svg" xmlns:xlink="http://www.w3.org/1999/xlink">
	<title id="document_title">planar_net_</title>
	<polygon points="226.5822651222,-225.381571424432 266.564809615169,-225.381571424432 266.56480961517,-265.364115917403 226.582265122205,-265.364115917407 " style="fill: rgb(14,173,105); fill-opacity: 1; stroke: rgb(0,0,0); stroke-width: 3" />
	<polygon points="278.920095341843,-187.355911946329 266.564809615169,-225.381571424432 226.5822651222,-225.381571424432 214.226979395519,-187.355911946332 246.573537368679,-163.854761944234 " style="fill: rgb(14,173,105); fill-opacity: 1; stroke: rgb(0,0,0); stroke-width: 3" />
	<polygon points="226.582265122205,-265.364115917407 206.590992875718,-299.99001515626 171.965093636864,-279.998742909775 191.956365883349,-245.372843670917 " style="fill: rgb(14,173,105); fill-opacity: 1; stroke: rgb(0,0,0); stroke-width: 3" />
	<polygon points="226.5822651222,-225.381571424432 226.582265122205,-265.364115917407 191.956365883349,-245.372843670917 " style="fill: rgb(14,173,105); fill-opacity: 1; stroke: rgb(0,0,0); stroke-width: 3" />
	<polygon points="302.421245343937,-155.009353973155 278.920095341843,-187.355911946329 246.573537368679,-163.854761944234 270.074687370775,-131.508203971067 " style="fill: rgb(14,173,105); fill-opacity: 1; stroke: rgb(0,0,0); stroke-width: 3" />
	<polygon points="226.5822651222,-225.381571424432 188.5566056441,-237.736857151114 176.201319917417,-199.711197673017 214.226979395519,-187.355911946332 " style="fill: rgb(14,173,105); fill-opacity: 1; stroke: rgb(0,0,0); stroke-width: 3" />
	<polygon points="389.618428575559,-265.364115917404 389.61842857556,-225.381571424434 427.644088053667,-213.026285697755 451.14523805576,-245.372843670918 427.644088053656,-277.719401644082 " style="fill: rgb(14,173,105); fill-opacity: 1; stroke: rgb(0,0,0); stroke-width: 3" />
	<polygon points="190.725829393436,-335.73633336868 223.072387366599,-359.237483370771 210.717101639923,-397.263142848875 170.734557146963,-397.263142848899 158.379271420283,-359.237483370801 " style="fill: rgb(14,173,105); fill-opacity: 1; stroke: rgb(0,0,0); stroke-width: 3" />
	<polygon points="389.61842857556,-225.381571424434 366.117278573466,-193.035013451268 398.463836546632,-169.533863449172 421.964986548727,-201.880421422332 " style="fill: rgb(14,173,105); fill-opacity: 1; stroke: rgb(0,0,0); stroke-width: 3" />
	<polygon points="366.117278573468,-362.403789836902 389.618428575562,-330.057231863738 421.964986548729,-353.558381865833 398.463836546639,-385.904939838996 " style="fill: rgb(14,173,105); fill-opacity: 1; stroke: rgb(0,0,0); stroke-width: 3" />
	<polygon points="398.463836546634,-321.211823892664 421.964986548725,-288.8652659195 438.227352477422,-325.391137826051 " style="fill: rgb(14,173,105); fill-opacity: 1; stroke: rgb(0,0,0); stroke-width: 3" />
	<polygon points="366.117278573468,-362.403789836902 398.463836546639,-385.904939838996 361.937964640097,-402.1673057677 " style="fill: rgb(14,173,105); fill-opacity: 1; stroke: rgb(0,0,0); stroke-width: 3" />
	<polygon points="132.70889766886,-293.584565126395 100.362339695689,-270.083415124329 123.863489697764,-237.736857151144 156.210047670936,-261.238007153215 " style="fill: rgb(14,173,105); fill-opacity: 1; stroke: rgb(0,0,0); stroke-width: 3" />
	<polygon points="427.644088053656,-277.719401644082 451.14523805576,-245.372843670918 483.491796028923,-268.873993673019 459.990646026826,-301.220551646182 " style="fill: rgb(14,173,105); fill-opacity: 1; stroke: rgb(0,0,0); stroke-width: 3" />
	<polygon points="170.734557146963,-397.263142848899 210.717101639923,-397.263142848875 210.717101639924,-437.245687341847 170.734557146968,-437.245687341873 " style="fill: rgb(14,173,105); fill-opacity: 1; stroke: rgb(0,0,0); stroke-width: 3" />
	<polygon points="451.14523805576,-245.372843670918 427.644088053667,-213.026285697755 459.990646026833,-189.525135695659 483.491796028926,-221.871693668817 " style="fill: rgb(14,173,105); fill-opacity: 1; stroke: rgb(0,0,0); stroke-width: 3" />
	<polygon points="421.964986548727,-201.880421422332 398.463836546632,-169.533863449172 438.22735247743,-165.354549515796 " style="fill: rgb(14,173,105); fill-opacity: 1; stroke: rgb(0,0,0); stroke-width: 3" />
	<polygon points="459.990646026826,-301.220551646182 483.491796028923,-268.873993673019 521.517455507024,-281.229279399702 521.517455507025,-321.21182389267 483.491796028923,-333.567109619347 " style="fill: rgb(14,173,105); fill-opacity: 1; stroke: rgb(0,0,0); stroke-width: 3" />
	<polygon points="158.379271420283,-359.237483370801 170.734557146963,-397.263142848899 132.708897668862,-409.618428575583 120.35361194218,-371.592769097489 " style="fill: rgb(14,173,105); fill-opacity: 1; stroke: rgb(0,0,0); stroke-width: 3" />
	<polygon points="100.362339695689,-270.083415124329 84.0999737669677,-233.557543217789 123.863489697764,-237.736857151144 " style="fill: rgb(14,173,105); fill-opacity: 1; stroke: rgb(0,0,0); stroke-width: 3" />
	<polygon points="451.14523805576,-245.372843670918 487.671109962311,-229.110477742221 483.491796028923,-268.873993673019 " style="fill: rgb(14,173,105); fill-opacity: 1; stroke: rgb(0,0,0); stroke-width: 3" />
	<polygon points="170.734557146963,-397.263142848899 170.734557146968,-437.245687341873 136.108657908112,-417.254415095383 " style="fill: rgb(14,173,105); fill-opacity: 1; stroke: rgb(0,0,0); stroke-width: 3" />
	<polygon points="459.990646026833,-189.525135695659 483.491796028927,-157.178577722488 521.517455507023,-169.533863449142 521.517455507022,-209.516407942109 483.491796028926,-221.871693668817 " style="fill: rgb(14,173,105); fill-opacity: 1; stroke: rgb(0,0,0); stroke-width: 3" />
	<polygon points="210.717101639873,-93.4825444929768 170.734557146908,-93.4825444929838 170.734557146905,-53.5000000000118 210.717101639866,-53.5 " style="fill: rgb(14,173,105); fill-opacity: 1; stroke: rgb(0,0,0); stroke-width: 3" />
	<polygon points="170.734557146908,-93.4825444929838 158.379271420247,-131.508203971082 120.35361194214,-119.152918244419 132.708897668796,-81.1272587663244 " style="fill: rgb(14,173,105); fill-opacity: 1; stroke: rgb(0,0,0); stroke-width: 3" />
	<polygon points="541.508727753512,-246.60338016085 561.499999999997,-281.2292793997 521.517455507024,-281.229279399702 " style="fill: rgb(14,173,105); fill-opacity: 1; stroke: rgb(0,0,0); stroke-width: 3" />
	<polygon points="170.734557146908,-93.4825444929838 136.108657908053,-73.49127224649 170.734557146905,-53.5000000000118 " style="fill: rgb(14,173,105); fill-opacity: 1; stroke: rgb(0,0,0); stroke-width: 3" />
	<polygon points="521.517455507022,-209.516407942109 521.517455507023,-169.533863449142 561.499999999996,-169.533863449141 561.499999999998,-209.516407942104 " style="fill: rgb(14,173,105); fill-opacity: 1; stroke: rgb(0,0,0); stroke-width: 3" />
	<polygon points="85.8378302196613,-225.381571424467 45.8552857266902,-225.381571424473 33.5,-187.355911946384 65.8465579731614,-163.854761944287 98.193115946334,-187.355911946371 " style="fill: rgb(14,173,105); fill-opacity: 1; stroke: rgb(0,0,0); stroke-width: 3" />
	<polygon points="521.517455507025,-321.21182389267 521.517455507024,-281.229279399702 561.499999999997,-281.2292793997 561.5,-321.211823892663 " style="fill: rgb(14,173,105); fill-opacity: 1; stroke: rgb(0,0,0); stroke-width: 3" />
	<polygon points="495.847081755606,-230.848334194919 533.872741233701,-243.203619921597 521.517455507024,-281.229279399702 483.491796028923,-268.873993673019 " style="fill: rgb(14,173,105); fill-opacity: 1; stroke: rgb(0,0,0); stroke-width: 3" />
	<polygon points="137.092489950384,-191.398359244294 107.379668901009,-164.64481500394 145.405328379104,-152.289529277265 " style="fill: rgb(14,173,105); fill-opacity: 1; stroke: rgb(0,0,0); stroke-width: 3" />
	<polygon points="366.117278573467,-128.341897504934 361.937964640088,-88.5783815741364 398.463836546636,-104.840747502841 " style="fill: rgb(14,173,105); fill-opacity: 1; stroke: rgb(0,0,0); stroke-width: 3" />
	<polygon points="136.218775424441,-199.711197673045 123.863489697764,-237.736857151144 85.8378302196613,-225.381571424467 98.193115946334,-187.355911946371 " style="fill: rgb(14,173,105); fill-opacity: 1; stroke: rgb(0,0,0); stroke-width: 3" />
	<polygon points="223.072387366571,-131.508203971071 190.725829393418,-155.00935397317 158.379271420247,-131.508203971082 170.734557146908,-93.4825444929838 210.717101639873,-93.4825444929768 " style="fill: rgb(14,173,105); fill-opacity: 1; stroke: rgb(0,0,0); stroke-width: 3" />
	<polygon points="389.618428575556,-160.688455478102 366.117278573467,-128.341897504934 398.463836546636,-104.840747502841 421.964986548727,-137.187305476002 " style="fill: rgb(14,173,105); fill-opacity: 1; stroke: rgb(0,0,0); stroke-width: 3" />
	<polygon points="176.201319917417,-199.711197673017 137.092489950384,-191.398359244294 145.405328379104,-152.289529277265 184.514158346142,-160.602367705986 " style="fill: rgb(14,173,105); fill-opacity: 1; stroke: rgb(0,0,0); stroke-width: 3" />
	<polygon points="366.117278573467,-128.341897504934 328.091619095371,-140.697183231615 315.736333368687,-102.671523753516 353.761992846779,-90.3162380268324 " style="fill: rgb(14,173,105); fill-opacity: 1; stroke: rgb(0,0,0); stroke-width: 3" />
	<polygon points="214.226979395519,-187.355911946332 176.201319917417,-199.711197673017 184.514158346142,-160.602367705986 " style="fill: rgb(14,173,105); fill-opacity: 1; stroke: rgb(0,0,0); stroke-width: 3" />
	<polygon points="270.074687370775,-131.508203971067 246.573537368679,-163.854761944234 230.311171439984,-127.328890037682 " style="fill: rgb(14,173,105); fill-opacity: 1; stroke: rgb(0,0,0); stroke-width: 3" />
	<polygon points="246.573537368679,-163.854761944234 214.226979395519,-187.355911946332 190.725829393418,-155.00935397317 223.072387366571,-131.508203971071 " style="fill: rgb(14,173,105); fill-opacity: 1; stroke: rgb(0,0,0); stroke-width: 3" />
	<polygon points="188.5566056441,-237.736857151114 156.210047670936,-261.238007153215 123.863489697764,-237.736857151144 136.218775424441,-199.711197673045 176.201319917417,-199.711197673017 " style="fill: rgb(14,173,105); fill-opacity: 1; stroke: rgb(0,0,0); stroke-width: 3" />
	<polygon points="366.117278573466,-193.035013451268 328.091619095366,-180.679727724587 328.091619095371,-140.697183231615 366.117278573467,-128.341897504934 389.618428575556,-160.688455478102 " style="fill: rgb(14,173,105); fill-opacity: 1; stroke: rgb(0,0,0); stroke-width: 3" />
	<polygon points="206.590992875718,-299.99001515626 171.965093636865,-319.98128740275 171.965093636864,-279.998742909775 " style="fill: rgb(14,173,105); fill-opacity: 1; stroke: rgb(0,0,0); stroke-width: 3" />
	<polygon points="328.091619095361,-350.048504110218 366.117278573468,-362.403789836902 353.761992846788,-400.429449315003 315.736333368685,-388.074163588325 " style="fill: rgb(14,173,105); fill-opacity: 1; stroke: rgb(0,0,0); stroke-width: 3" />
	<polygon points="366.117278573462,-297.710673890569 389.618428575559,-265.364115917404 421.964986548725,-288.8652659195 398.463836546634,-321.211823892664 " style="fill: rgb(14,173,105); fill-opacity: 1; stroke: rgb(0,0,0); stroke-width: 3" />
	<polygon points="246.573537368694,-326.890925397605 262.835903297394,-363.41679730415 223.072387366599,-359.237483370771 " style="fill: rgb(14,173,105); fill-opacity: 1; stroke: rgb(0,0,0); stroke-width: 3" />
	<polygon points="214.22697939553,-303.38977539551 246.573537368694,-326.890925397605 223.072387366599,-359.237483370771 190.725829393436,-335.73633336868 " style="fill: rgb(14,173,105); fill-opacity: 1; stroke: rgb(0,0,0); stroke-width: 3" />
	<polygon points="328.091619095361,-310.065959617249 366.117278573462,-297.710673890569 389.618428575562,-330.057231863738 366.117278573468,-362.403789836902 328.091619095361,-350.048504110218 " style="fill: rgb(14,173,105); fill-opacity: 1; stroke: rgb(0,0,0); stroke-width: 3" />
	<polygon points="278.920095341852,-303.389775395504 302.421245343956,-335.736333368664 270.074687370803,-359.237483370765 246.573537368694,-326.890925397605 " style="fill: rgb(14,173,105); fill-opacity: 1; stroke: rgb(0,0,0); stroke-width: 3" />
	<polygon points="226.582265122205,-265.364115917407 266.56480961517,-265.364115917403 278.920095341852,-303.389775395504 246.573537368694,-326.890925397605 214.22697939553,-303.38977539551 " style="fill: rgb(14,173,105); fill-opacity: 1; stroke: rgb(0,0,0); stroke-width: 3" />
	<polygon points="266.56480961517,-265.364115917403 266.564809615169,-225.381571424432 290.065959617265,-193.035013451267 328.091619095366,-180.679727724587 366.117278573466,-193.035013451268 389.61842857556,-225.381571424434 389.618428575559,-265.364115917404 366.117278573462,-297.710673890569 328.091619095361,-310.065959617249 290.065959617262,-297.710673890568 " style="fill: rgb(14,173,105); fill-opacity: 1; stroke: rgb(0,0,0); stroke-width: 3" />
	<circle cx="226.5822651222" cy="-225.381571424432" r="2" style="fill: rgb(0,0,0)" />
	<circle cx="266.564809615169" cy="-225.381571424432" r="2" style="fill: rgb(0,0,0)" />
	<circle cx="266.56480961517" cy="-265.364115917403" r="2" style="fill: rgb(0,0,0)" />
	<circle cx="226.582265122205" cy="-265.364115917407" r="2" style="fill: rgb(0,0,0)" />
	<circle cx="214.226979395519" cy="-187.355911946332" r="2" style="fill: rgb(0,0,0)" />
	<circle cx="246.573537368679" cy="-163.854761944234" r="2" style="fill: rgb(0,0,0)" />
	<circle cx="278.920095341843" cy="-187.355911946329" r="2" style="fill: rgb(0,0,0)" />
	<circle cx="191.956365883349" cy="-245.372843670917" r="2" style="fill: rgb(0,0,0)" />
	<circle cx="278.920095341852" cy="-303.389775395504" r="2" style="fill: rgb(0,0,0)" />
	<circle cx="246.573537368694" cy="-326.890925397605" r="2" style="fill: rgb(0,0,0)" />
	<circle cx="214.22697939553" cy="-303.38977539551" r="2" style="fill: rgb(0,0,0)" />
	<circle cx="290.065959617265" cy="-193.035013451267" r="2" style="fill: rgb(0,0,0)" />
	<circle cx="328.091619095366" cy="-180.679727724587" r="2" style="fill: rgb(0,0,0)" />
	<circle cx="366.117278573466" cy="-193.035013451268" r="2" style="fill: rgb(0,0,0)" />
	<circle cx="389.61842857556" cy="-225.381571424434" r="2" style="fill: rgb(0,0,0)" />
	<circle cx="389.618428575559" cy="-265.364115917404" r="2" style="fill: rgb(0,0,0)" />
	<circle cx="366.117278573462" cy="-297.710673890569" r="2" style="fill: rgb(0,0,0)" />
	<circle cx="328.091619095361" cy="-310.065959617249" r="2" style="fill: rgb(0,0,0)" />
	<circle cx="290.065959617262" cy="-297.710673890568" r="2" style="fill: rgb(0,0,0)" />
	<circle cx="270.074687370775" cy="-131.508203971067" r="2" style="fill: rgb(0,0,0)" />
	<circle cx="302.421245343937" cy="-155.009353973155" r="2" style="fill: rgb(0,0,0)" />
	<circle cx="188.5566056441" cy="-237.736857151114" r="2" style="fill: rgb(0,0,0)" />
	<circle cx="176.201319917417" cy="-199.711197673017" r="2" style="fill: rgb(0,0,0)" />
	<circle cx="190.725829393418" cy="-155.00935397317" r="2" style="fill: rgb(0,0,0)" />
	<circle cx="223.072387366571" cy="-131.508203971071" r="2" style="fill: rgb(0,0,0)" />
	<circle cx="206.590992875718" cy="-299.99001515626" r="2" style="fill: rgb(0,0,0)" />
	<circle cx="171.965093636864" cy="-279.998742909775" r="2" style="fill: rgb(0,0,0)" />
	<circle cx="223.072387366599" cy="-359.237483370771" r="2" style="fill: rgb(0,0,0)" />
	<circle cx="190.725829393436" cy="-335.73633336868" r="2" style="fill: rgb(0,0,0)" />
	<circle cx="302.421245343956" cy="-335.736333368664" r="2" style="fill: rgb(0,0,0)" />
	<circle cx="270.074687370803" cy="-359.237483370765" r="2" style="fill: rgb(0,0,0)" />
	<circle cx="427.644088053667" cy="-213.026285697755" r="2" style="fill: rgb(0,0,0)" />
	<circle cx="451.14523805576" cy="-245.372843670918" r="2" style="fill: rgb(0,0,0)" />
	<circle cx="427.644088053656" cy="-277.719401644082" r="2" style="fill: rgb(0,0,0)" />
	<circle cx="398.463836546632" cy="-169.533863449172" r="2" style="fill: rgb(0,0,0)" />
	<circle cx="421.964986548727" cy="-201.880421422332" r="2" style="fill: rgb(0,0,0)" />
	<circle cx="328.091619095371" cy="-140.697183231615" r="2" style="fill: rgb(0,0,0)" />
	<circle cx="366.117278573467" cy="-128.341897504934" r="2" style="fill: rgb(0,0,0)" />
	<circle cx="389.618428575556" cy="-160.688455478102" r="2" style="fill: rgb(0,0,0)" />
	<circle cx="421.964986548725" cy="-288.8652659195" r="2" style="fill: rgb(0,0,0)" />
	<circle cx="398.463836546634" cy="-321.211823892664" r="2" style="fill: rgb(0,0,0)" />
	<circle cx="389.618428575562" cy="-330.057231863738" r="2" style="fill: rgb(0,0,0)" />
	<circle cx="366.117278573468" cy="-362.403789836902" r="2" style="fill: rgb(0,0,0)" />
	<circle cx="328.091619095361" cy="-350.048504110218" r="2" style="fill: rgb(0,0,0)" />
	<circle cx="230.311171439984" cy="-127.328890037682" r="2" style="fill: rgb(0,0,0)" />
	<circle cx="184.514158346142" cy="-160.602367705986" r="2" style="fill: rgb(0,0,0)" />
	<circle cx="156.210047670936" cy="-261.238007153215" r="2" style="fill: rgb(0,0,0)" />
	<circle cx="123.863489697764" cy="-237.736857151144" r="2" style="fill: rgb(0,0,0)" />
	<circle cx="136.218775424441" cy="-199.711197673045" r="2" style="fill: rgb(0,0,0)" />
	<circle cx="158.379271420247" cy="-131.508203971082" r="2" style="fill: rgb(0,0,0)" />
	<circle cx="170.734557146908" cy="-93.4825444929838" r="2" style="fill: rgb(0,0,0)" />
	<circle cx="210.717101639873" cy="-93.4825444929768" r="2" style="fill: rgb(0,0,0)" />
	<circle cx="171.965093636865" cy="-319.98128740275" r="2" style="fill: rgb(0,0,0)" />
	<circle cx="210.717101639923" cy="-397.263142848875" r="2" style="fill: rgb(0,0,0)" />
	<circle cx="170.734557146963" cy="-397.263142848899" r="2" style="fill: rgb(0,0,0)" />
	<circle cx="158.379271420283" cy="-359.237483370801" r="2" style="fill: rgb(0,0,0)" />
	<circle cx="262.835903297394" cy="-363.41679730415" r="2" style="fill: rgb(0,0,0)" />
	<circle cx="483.491796028923" cy="-268.873993673019" r="2" style="fill: rgb(0,0,0)" />
	<circle cx="459.990646026826" cy="-301.220551646182" r="2" style="fill: rgb(0,0,0)" />
	<circle cx="459.990646026833" cy="-189.525135695659" r="2" style="fill: rgb(0,0,0)" />
	<circle cx="483.491796028926" cy="-221.871693668817" r="2" style="fill: rgb(0,0,0)" />
	<circle cx="438.22735247743" cy="-165.354549515796" r="2" style="fill: rgb(0,0,0)" />
	<circle cx="398.463836546636" cy="-104.840747502841" r="2" style="fill: rgb(0,0,0)" />
	<circle cx="421.964986548727" cy="-137.187305476002" r="2" style="fill: rgb(0,0,0)" />
	<circle cx="315.736333368687" cy="-102.671523753516" r="2" style="fill: rgb(0,0,0)" />
	<circle cx="353.761992846779" cy="-90.3162380268324" r="2" style="fill: rgb(0,0,0)" />
	<circle cx="438.227352477422" cy="-325.391137826051" r="2" style="fill: rgb(0,0,0)" />
	<circle cx="421.964986548729" cy="-353.558381865833" r="2" style="fill: rgb(0,0,0)" />
	<circle cx="398.463836546639" cy="-385.904939838996" r="2" style="fill: rgb(0,0,0)" />
	<circle cx="353.761992846788" cy="-400.429449315003" r="2" style="fill: rgb(0,0,0)" />
	<circle cx="315.736333368685" cy="-388.074163588325" r="2" style="fill: rgb(0,0,0)" />
	<circle cx="137.092489950384" cy="-191.398359244294" r="2" style="fill: rgb(0,0,0)" />
	<circle cx="145.405328379104" cy="-152.289529277265" r="2" style="fill: rgb(0,0,0)" />
	<circle cx="132.70889766886" cy="-293.584565126395" r="2" style="fill: rgb(0,0,0)" />
	<circle cx="100.362339695689" cy="-270.083415124329" r="2" style="fill: rgb(0,0,0)" />
	<circle cx="85.8378302196613" cy="-225.381571424467" r="2" style="fill: rgb(0,0,0)" />
	<circle cx="98.193115946334" cy="-187.355911946371" r="2" style="fill: rgb(0,0,0)" />
	<circle cx="170.734557146905" cy="-53.5000000000118" r="2" style="fill: rgb(0,0,0)" />
	<circle cx="210.717101639866" cy="-53.5" r="2" style="fill: rgb(0,0,0)" />
	<circle cx="120.35361194214" cy="-119.152918244419" r="2" style="fill: rgb(0,0,0)" />
	<circle cx="132.708897668796" cy="-81.1272587663244" r="2" style="fill: rgb(0,0,0)" />
	<circle cx="210.717101639924" cy="-437.245687341847" r="2" style="fill: rgb(0,0,0)" />
	<circle cx="170.734557146968" cy="-437.245687341873" r="2" style="fill: rgb(0,0,0)" />
	<circle cx="132.708897668862" cy="-409.618428575583" r="2" style="fill: rgb(0,0,0)" />
	<circle cx="120.35361194218" cy="-371.592769097489" r="2" style="fill: rgb(0,0,0)" />
	<circle cx="521.517455507024" cy="-281.229279399702" r="2" style="fill: rgb(0,0,0)" />
	<circle cx="521.517455507025" cy="-321.21182389267" r="2" style="fill: rgb(0,0,0)" />
	<circle cx="483.491796028923" cy="-333.567109619347" r="2" style="fill: rgb(0,0,0)" />
	<circle cx="487.671109962311" cy="-229.110477742221" r="2" style="fill: rgb(0,0,0)" />
	<circle cx="483.491796028927" cy="-157.178577722488" r="2" style="fill: rgb(0,0,0)" />
	<circle cx="521.517455507023" cy="-169.533863449142" r="2" style="fill: rgb(0,0,0)" />
	<circle cx="521.517455507022" cy="-209.516407942109" r="2" style="fill: rgb(0,0,0)" />
	<circle cx="361.937964640088" cy="-88.5783815741364" r="2" style="fill: rgb(0,0,0)" />
	<circle cx="361.937964640097" cy="-402.1673057677" r="2" style="fill: rgb(0,0,0)" />
	<circle cx="107.379668901009" cy="-164.64481500394" r="2" style="fill: rgb(0,0,0)" />
	<circle cx="84.0999737669677" cy="-233.557543217789" r="2" style="fill: rgb(0,0,0)" />
	<circle cx="45.8552857266902" cy="-225.381571424473" r="2" style="fill: rgb(0,0,0)" />
	<circle cx="33.5" cy="-187.355911946384" r="2" style="fill: rgb(0,0,0)" />
	<circle cx="65.8465579731614" cy="-163.854761944287" r="2" style="fill: rgb(0,0,0)" />
	<circle cx="136.108657908053" cy="-73.49127224649" r="2" style="fill: rgb(0,0,0)" />
	<circle cx="136.108657908112" cy="-417.254415095383" r="2" style="fill: rgb(0,0,0)" />
	<circle cx="561.499999999997" cy="-281.2292793997" r="2" style="fill: rgb(0,0,0)" />
	<circle cx="561.5" cy="-321.211823892663" r="2" style="fill: rgb(0,0,0)" />
	<circle cx="495.847081755606" cy="-230.848334194919" r="2" style="fill: rgb(0,0,0)" />
	<circle cx="533.872741233701" cy="-243.203619921597" r="2" style="fill: rgb(0,0,0)" />
	<circle cx="561.499999999996" cy="-169.533863449141" r="2" style="fill: rgb(0,0,0)" />
	<circle cx="561.499999999998" cy="-209.516407942104" r="2" style="fill: rgb(0,0,0)" />
	<circle cx="541.508727753512" cy="-246.60338016085" r="2" style="fill: rgb(0,0,0)" />
	<!--
	Generated using the Perl SVG Module V2.86
	by Ronan Oger
	Info: http://www.roitsystems.com/
	-->
</svg>