<?xml version="1.0" encoding="UTF-8" standalone="yes"?>
<!DOCTYPE svg PUBLIC "-//W3C//DTD SVG 1.0//EN" "http://www.w3.org/TR/2001/REC-SVG-20010904/DTD/svg10.dtd">
<!-- generated using polymake; Michael Joswig, Georg Loho, Benjamin Lorenz, Rico Raber; license CC BY-NC-ND 3.0; see polymake.org and matchthenet.de -->
<svg height="841pt" id="document" viewBox="0 -612.941256459205 572 612.941256459205" width="595pt" xmlns="http://www.w3.org/2000/svg" xmlns:svg="http://www.w3.org/2000/svg" xmlns:xlink="http://www.w3.org/1999/xlink">
	<title id="document_title">planar_net_</title>
	<polygon points="248.438230431455,-332.027023152621 304.092164764004,-332.027023152621 296.934584319261,-445.85242455412 " style="fill: rgb(14,173,105); fill-opacity: 1; stroke: rgb(0,0,0); stroke-width: 3" />
	<polygon points="302.872184030198,-295.511581639849 304.092164764004,-332.027023152621 248.438230431455,-332.027023152621 269.139519751377,-279.067047068194 " style="fill: rgb(67,184,206); fill-opacity: 1; stroke: rgb(0,0,0); stroke-width: 3" />
	<polygon points="296.934584319261,-445.85242455412 304.092164764004,-332.027023152621 359.307703605784,-338.998728618543 " style="fill: rgb(14,173,105); fill-opacity: 1; stroke: rgb(0,0,0); stroke-width: 3" />
	<polygon points="248.438230431455,-332.027023152621 296.934584319261,-445.85242455412 209.885324656367,-372.164709470952 " style="fill: rgb(14,173,105); fill-opacity: 1; stroke: rgb(0,0,0); stroke-width: 3" />
	<polygon points="359.621992690865,-328.312374164445 304.092164764004,-332.027023152621 302.872184030198,-295.511581639849 335.432027120221,-276.852214700429 " style="fill: rgb(67,184,206); fill-opacity: 1; stroke: rgb(0,0,0); stroke-width: 3" />
	<polygon points="248.438230431455,-332.027023152621 206.148813873779,-294.015081692318 233.059412922673,-267.221007191356 269.139519751377,-279.067047068194 " style="fill: rgb(67,184,206); fill-opacity: 1; stroke: rgb(0,0,0); stroke-width: 3" />
	<polygon points="296.934584319261,-445.85242455412 359.307703605784,-338.998728618543 392.528918985547,-383.649722508747 " style="fill: rgb(14,173,105); fill-opacity: 1; stroke: rgb(0,0,0); stroke-width: 3" />
	<polygon points="333.68833142581,-274.094756097326 302.872184030198,-295.511581639849 269.139519751377,-279.067047068194 297.566100853073,-226.629578205752 " style="fill: rgb(67,184,206); fill-opacity: 1; stroke: rgb(0,0,0); stroke-width: 3" />
	<polygon points="248.438230431455,-332.027023152621 209.885324656367,-372.164709470952 184.395454947231,-345.989676250832 195.903116802159,-310.270086733896 " style="fill: rgb(67,184,206); fill-opacity: 1; stroke: rgb(0,0,0); stroke-width: 3" />
	<polygon points="359.621992690865,-328.312374164445 335.432027120221,-276.852214700429 370.641006812994,-262.624406769205 399.279979698616,-287.562570326092 " style="fill: rgb(67,184,206); fill-opacity: 1; stroke: rgb(0,0,0); stroke-width: 3" />
	<polygon points="286.064015315652,-221.871591796592 269.139519751377,-279.067047068194 233.059412922673,-267.221007191356 225.77416765947,-228.651570572319 " style="fill: rgb(67,184,206); fill-opacity: 1; stroke: rgb(0,0,0); stroke-width: 3" />
	<polygon points="209.885324656367,-372.164709470952 296.934584319261,-445.85242455412 176.664109276603,-416.815703361155 " style="fill: rgb(14,173,105); fill-opacity: 1; stroke: rgb(0,0,0); stroke-width: 3" />
	<polygon points="392.528918985547,-383.649722508747 359.307703605784,-338.998728618543 414.154456064796,-323.994189602938 421.096917496986,-360.87396164519 " style="fill: rgb(67,184,206); fill-opacity: 1; stroke: rgb(0,0,0); stroke-width: 3" />
	<polygon points="333.68833142581,-274.094756097326 297.566100853073,-226.629578205752 356.337303625888,-211.570376127274 363.215225128943,-250.214527501727 " style="fill: rgb(67,184,206); fill-opacity: 1; stroke: rgb(0,0,0); stroke-width: 3" />
	<polygon points="209.885324656367,-372.164709470952 168.7393811197,-409.63965759859 148.383259154597,-356.546053982792 184.395454947231,-345.989676250832 " style="fill: rgb(67,184,206); fill-opacity: 1; stroke: rgb(0,0,0); stroke-width: 3" />
	<polygon points="206.148813873779,-294.015081692318 165.330459901748,-250.522316399171 222.238305097114,-229.490649850309 233.059412922673,-267.221007191356 " style="fill: rgb(67,184,206); fill-opacity: 1; stroke: rgb(0,0,0); stroke-width: 3" />
	<polygon points="296.934584319261,-445.85242455412 392.528918985547,-383.649722508747 419.895065660977,-432.11057704961 " style="fill: rgb(14,173,105); fill-opacity: 1; stroke: rgb(0,0,0); stroke-width: 3" />
	<polygon points="286.064015315652,-221.871591796592 225.77416765947,-228.651570572319 222.896541326405,-188.770780533097 257.480231995147,-167.325418635287 " style="fill: rgb(67,184,206); fill-opacity: 1; stroke: rgb(0,0,0); stroke-width: 3" />
	<polygon points="176.664109276603,-416.815703361155 296.934584319261,-445.85242455412 185.853274542821,-471.705772120464 " style="fill: rgb(14,173,105); fill-opacity: 1; stroke: rgb(0,0,0); stroke-width: 3" />
	<polygon points="195.903116802159,-310.270086733896 184.395454947231,-345.989676250832 147.602479266151,-353.378336288886 138.39332854307,-294.446594444716 " style="fill: rgb(67,184,206); fill-opacity: 1; stroke: rgb(0,0,0); stroke-width: 3" />
	<polygon points="392.528918985547,-383.649722508747 421.096917496986,-360.87396164519 455.503053598537,-375.858392071098 428.656304532463,-425.983779959417 " style="fill: rgb(67,184,206); fill-opacity: 1; stroke: rgb(0,0,0); stroke-width: 3" />
	<polygon points="399.279979698616,-287.562570326092 370.641006812994,-262.624406769205 378.919652830303,-224.255926739693 437.104364281312,-241.44235149778 " style="fill: rgb(67,184,206); fill-opacity: 1; stroke: rgb(0,0,0); stroke-width: 3" />
	<polygon points="356.337303625888,-211.570376127274 297.566100853073,-226.629578205752 304.929759835779,-165.489622351642 344.87328660732,-173.264574200362 " style="fill: rgb(67,184,206); fill-opacity: 1; stroke: rgb(0,0,0); stroke-width: 3" />
	<polygon points="148.383259154597,-356.546053982792 168.7393811197,-409.63965759859 111.878468799876,-410.012614067013 113.731984426203,-372.082846741651 " style="fill: rgb(67,184,206); fill-opacity: 1; stroke: rgb(0,0,0); stroke-width: 3" />
	<polygon points="222.238305097114,-229.490649850309 165.330459901748,-250.522316399171 166.358485358064,-188.949101125667 206.890331122989,-192.56914064016 " style="fill: rgb(67,184,206); fill-opacity: 1; stroke: rgb(0,0,0); stroke-width: 3" />
	<polygon points="296.934584319261,-445.85242455412 419.895065660977,-432.11057704961 403.902268121165,-485.417151067663 " style="fill: rgb(14,173,105); fill-opacity: 1; stroke: rgb(0,0,0); stroke-width: 3" />
	<polygon points="421.096917496986,-360.87396164519 414.154456064796,-323.994189602938 473.193420955422,-315.499527839546 456.674499567275,-372.813434441704 " style="fill: rgb(67,184,206); fill-opacity: 1; stroke: rgb(0,0,0); stroke-width: 3" />
	<polygon points="185.853274542821,-471.705772120464 296.934584319261,-445.85242455412 201.846072082628,-525.012346138518 " style="fill: rgb(14,173,105); fill-opacity: 1; stroke: rgb(0,0,0); stroke-width: 3" />
	<polygon points="176.664109276603,-416.815703361155 185.853274542821,-471.705772120464 149.637583340231,-476.531695097661 127.849066951872,-445.977220626317 " style="fill: rgb(67,184,206); fill-opacity: 1; stroke: rgb(0,0,0); stroke-width: 3" />
	<polygon points="138.39332854307,-294.446594444716 147.602479266151,-353.378336288886 109.925993308869,-358.130722578385 86.8202959005295,-326.400563629396 " style="fill: rgb(67,184,206); fill-opacity: 1; stroke: rgb(0,0,0); stroke-width: 3" />
	<polygon points="428.656304532463,-425.983779959417 455.503053598537,-375.858392071098 487.935097879504,-395.613524905155 485.022593955617,-433.476700820903 " style="fill: rgb(67,184,206); fill-opacity: 1; stroke: rgb(0,0,0); stroke-width: 3" />
	<polygon points="437.104364281312,-241.44235149778 378.919652830303,-224.255926739693 391.769057199554,-186.392343248154 431.968897005954,-180.07505848823 " style="fill: rgb(67,184,206); fill-opacity: 1; stroke: rgb(0,0,0); stroke-width: 3" />
	<polygon points="296.934584319261,-445.85242455412 403.902268121165,-485.417151067663 381.357794271351,-536.300420474481 " style="fill: rgb(14,173,105); fill-opacity: 1; stroke: rgb(0,0,0); stroke-width: 3" />
	<polygon points="257.480231995147,-167.325418635287 222.896541326405,-188.770780533097 187.476467975073,-168.736968839227 221.411819685538,-115.138186316895 " style="fill: rgb(67,184,206); fill-opacity: 1; stroke: rgb(0,0,0); stroke-width: 3" />
	<polygon points="165.330459901748,-250.522316399171 109.156425710994,-227.602636529244 125.728383716815,-191.214062013084 166.358485358064,-188.949101125667 " style="fill: rgb(67,184,206); fill-opacity: 1; stroke: rgb(0,0,0); stroke-width: 3" />
	<polygon points="403.902268121165,-485.417151067663 419.895065660977,-432.11057704961 464.672553292708,-467.15738928356 439.228144256591,-494.741758144003 " style="fill: rgb(67,184,206); fill-opacity: 1; stroke: rgb(0,0,0); stroke-width: 3" />
	<polygon points="456.674499567275,-372.813434441704 473.193420955422,-315.499527839546 520.357366450382,-353.662285705721 493.458875386839,-382.24807619957 " style="fill: rgb(67,184,206); fill-opacity: 1; stroke: rgb(0,0,0); stroke-width: 3" />
	<polygon points="185.853274542821,-471.705772120464 201.846072082628,-525.012346138518 145.171077729158,-520.40284926743 151.228549372271,-483.367428466259 " style="fill: rgb(67,184,206); fill-opacity: 1; stroke: rgb(0,0,0); stroke-width: 3" />
	<polygon points="344.87328660732,-173.264574200362 304.929759835779,-165.489622351642 320.128011094325,-103.898626725072 370.877149979743,-141.963866590029 " style="fill: rgb(67,184,206); fill-opacity: 1; stroke: rgb(0,0,0); stroke-width: 3" />
	<polygon points="113.731984426203,-372.082846741651 111.878468799876,-410.012614067013 52.4145899066692,-405.34295018135 80.3257590068391,-351.474587647636 " style="fill: rgb(67,184,206); fill-opacity: 1; stroke: rgb(0,0,0); stroke-width: 3" />
	<polygon points="437.104364281312,-241.44235149778 431.968897005954,-180.07505848823 472.659570803176,-179.623092640437 491.623347050812,-214.82441843783 " style="fill: rgb(67,184,206); fill-opacity: 1; stroke: rgb(0,0,0); stroke-width: 3" />
	<polygon points="403.902268121165,-485.417151067663 436.79340593929,-501.324346763081 438.163776535297,-538.826845893877 381.357794271351,-536.300420474481 " style="fill: rgb(67,184,206); fill-opacity: 1; stroke: rgb(0,0,0); stroke-width: 3" />
	<polygon points="187.476467975073,-168.736968839227 154.218521647644,-145.288211659337 158.812324306911,-104.855153596338 221.411819685538,-115.138186316895 " style="fill: rgb(67,184,206); fill-opacity: 1; stroke: rgb(0,0,0); stroke-width: 3" />
	<polygon points="127.849066951872,-445.977220626317 149.637583340231,-476.531695097661 133.602843549596,-510.461069929408 80.8249032316993,-482.671725395415 " style="fill: rgb(67,184,206); fill-opacity: 1; stroke: rgb(0,0,0); stroke-width: 3" />
	<polygon points="487.935097879504,-395.613524905155 523.659750118606,-379.352360677149 544.603029296147,-436.292793586413 485.022593955617,-433.476700820903 " style="fill: rgb(67,184,206); fill-opacity: 1; stroke: rgb(0,0,0); stroke-width: 3" />
	<polygon points="145.171077729158,-520.40284926743 201.846072082628,-525.012346138518 177.589740340239,-576.441256459205 144.192710998362,-558.36527237337 " style="fill: rgb(67,184,206); fill-opacity: 1; stroke: rgb(0,0,0); stroke-width: 3" />
	<polygon points="370.877149979743,-141.963866590029 320.128011094325,-103.898626725072 375.002574858414,-72.0675124610293 393.647627543757,-108.237903909825 " style="fill: rgb(67,184,206); fill-opacity: 1; stroke: rgb(0,0,0); stroke-width: 3" />
	<polygon points="109.156425710994,-227.602636529244 54.9912137012821,-200.272000778369 100.765536802119,-159.076988700272 125.728383716815,-191.214062013084 " style="fill: rgb(67,184,206); fill-opacity: 1; stroke: rgb(0,0,0); stroke-width: 3" />
	<polygon points="439.228144256591,-494.741758144003 464.672553292708,-467.15738928356 506.729620542259,-509.453509060651 450.886281233602,-530.412519263611 " style="fill: rgb(67,184,206); fill-opacity: 1; stroke: rgb(0,0,0); stroke-width: 3" />
	<polygon points="221.411819685538,-115.138186316895 158.812324306911,-104.855153596338 167.394535920821,-65.0772595971105 206.406101736872,-53.5 " style="fill: rgb(67,184,206); fill-opacity: 1; stroke: rgb(0,0,0); stroke-width: 3" />
	<polygon points="80.8249032316993,-482.671725395415 133.602843549596,-510.461069929408 114.925639574184,-543.525625290018 75.6762583819005,-543.122741092545 " style="fill: rgb(67,184,206); fill-opacity: 1; stroke: rgb(0,0,0); stroke-width: 3" />
	<polygon points="491.623347050812,-214.82441843783 472.659570803176,-179.623092640437 495.421746776251,-145.891526531375 543.843575843906,-183.939445596638 " style="fill: rgb(67,184,206); fill-opacity: 1; stroke: rgb(0,0,0); stroke-width: 3" />
	<polygon points="54.9912137012821,-200.272000778369 33.5,-143.536107586759 71.4277046174727,-130.877222568169 100.765536802119,-159.076988700272 " style="fill: rgb(67,184,206); fill-opacity: 1; stroke: rgb(0,0,0); stroke-width: 3" />
	<polygon points="450.886281233602,-530.412519263611 506.729620542259,-509.453509060651 504.265078214503,-570.073306765019 465.274402214239,-565.556291744392 " style="fill: rgb(67,184,206); fill-opacity: 1; stroke: rgb(0,0,0); stroke-width: 3" />
	<polygon points="543.843575843906,-183.939445596638 495.421746776251,-145.891526531375 522.81194943687,-115.796477014721 561.5,-125.895630003375 " style="fill: rgb(67,184,206); fill-opacity: 1; stroke: rgb(0,0,0); stroke-width: 3" />
	<circle cx="248.438230431455" cy="-332.027023152621" r="2" style="fill: rgb(0,0,0)" />
	<circle cx="304.092164764004" cy="-332.027023152621" r="2" style="fill: rgb(0,0,0)" />
	<circle cx="296.934584319261" cy="-445.85242455412" r="2" style="fill: rgb(0,0,0)" />
	<circle cx="269.139519751377" cy="-279.067047068194" r="2" style="fill: rgb(0,0,0)" />
	<circle cx="302.872184030198" cy="-295.511581639849" r="2" style="fill: rgb(0,0,0)" />
	<circle cx="359.307703605784" cy="-338.998728618543" r="2" style="fill: rgb(0,0,0)" />
	<circle cx="209.885324656367" cy="-372.164709470952" r="2" style="fill: rgb(0,0,0)" />
	<circle cx="335.432027120221" cy="-276.852214700429" r="2" style="fill: rgb(0,0,0)" />
	<circle cx="359.621992690865" cy="-328.312374164445" r="2" style="fill: rgb(0,0,0)" />
	<circle cx="206.148813873779" cy="-294.015081692318" r="2" style="fill: rgb(0,0,0)" />
	<circle cx="233.059412922673" cy="-267.221007191356" r="2" style="fill: rgb(0,0,0)" />
	<circle cx="297.566100853073" cy="-226.629578205752" r="2" style="fill: rgb(0,0,0)" />
	<circle cx="333.68833142581" cy="-274.094756097326" r="2" style="fill: rgb(0,0,0)" />
	<circle cx="392.528918985547" cy="-383.649722508747" r="2" style="fill: rgb(0,0,0)" />
	<circle cx="184.395454947231" cy="-345.989676250832" r="2" style="fill: rgb(0,0,0)" />
	<circle cx="195.903116802159" cy="-310.270086733896" r="2" style="fill: rgb(0,0,0)" />
	<circle cx="176.664109276603" cy="-416.815703361155" r="2" style="fill: rgb(0,0,0)" />
	<circle cx="370.641006812994" cy="-262.624406769205" r="2" style="fill: rgb(0,0,0)" />
	<circle cx="399.279979698616" cy="-287.562570326092" r="2" style="fill: rgb(0,0,0)" />
	<circle cx="225.77416765947" cy="-228.651570572319" r="2" style="fill: rgb(0,0,0)" />
	<circle cx="286.064015315652" cy="-221.871591796592" r="2" style="fill: rgb(0,0,0)" />
	<circle cx="165.330459901748" cy="-250.522316399171" r="2" style="fill: rgb(0,0,0)" />
	<circle cx="222.238305097114" cy="-229.490649850309" r="2" style="fill: rgb(0,0,0)" />
	<circle cx="356.337303625888" cy="-211.570376127274" r="2" style="fill: rgb(0,0,0)" />
	<circle cx="363.215225128943" cy="-250.214527501727" r="2" style="fill: rgb(0,0,0)" />
	<circle cx="414.154456064796" cy="-323.994189602938" r="2" style="fill: rgb(0,0,0)" />
	<circle cx="421.096917496986" cy="-360.87396164519" r="2" style="fill: rgb(0,0,0)" />
	<circle cx="419.895065660977" cy="-432.11057704961" r="2" style="fill: rgb(0,0,0)" />
	<circle cx="168.7393811197" cy="-409.63965759859" r="2" style="fill: rgb(0,0,0)" />
	<circle cx="148.383259154597" cy="-356.546053982792" r="2" style="fill: rgb(0,0,0)" />
	<circle cx="147.602479266151" cy="-353.378336288886" r="2" style="fill: rgb(0,0,0)" />
	<circle cx="138.39332854307" cy="-294.446594444716" r="2" style="fill: rgb(0,0,0)" />
	<circle cx="185.853274542821" cy="-471.705772120464" r="2" style="fill: rgb(0,0,0)" />
	<circle cx="378.919652830303" cy="-224.255926739693" r="2" style="fill: rgb(0,0,0)" />
	<circle cx="437.104364281312" cy="-241.44235149778" r="2" style="fill: rgb(0,0,0)" />
	<circle cx="222.896541326405" cy="-188.770780533097" r="2" style="fill: rgb(0,0,0)" />
	<circle cx="257.480231995147" cy="-167.325418635287" r="2" style="fill: rgb(0,0,0)" />
	<circle cx="166.358485358064" cy="-188.949101125667" r="2" style="fill: rgb(0,0,0)" />
	<circle cx="206.890331122989" cy="-192.56914064016" r="2" style="fill: rgb(0,0,0)" />
	<circle cx="304.929759835779" cy="-165.489622351642" r="2" style="fill: rgb(0,0,0)" />
	<circle cx="344.87328660732" cy="-173.264574200362" r="2" style="fill: rgb(0,0,0)" />
	<circle cx="455.503053598537" cy="-375.858392071098" r="2" style="fill: rgb(0,0,0)" />
	<circle cx="428.656304532463" cy="-425.983779959417" r="2" style="fill: rgb(0,0,0)" />
	<circle cx="473.193420955422" cy="-315.499527839546" r="2" style="fill: rgb(0,0,0)" />
	<circle cx="456.674499567275" cy="-372.813434441704" r="2" style="fill: rgb(0,0,0)" />
	<circle cx="403.902268121165" cy="-485.417151067663" r="2" style="fill: rgb(0,0,0)" />
	<circle cx="111.878468799876" cy="-410.012614067013" r="2" style="fill: rgb(0,0,0)" />
	<circle cx="113.731984426203" cy="-372.082846741651" r="2" style="fill: rgb(0,0,0)" />
	<circle cx="109.925993308869" cy="-358.130722578385" r="2" style="fill: rgb(0,0,0)" />
	<circle cx="86.8202959005295" cy="-326.400563629396" r="2" style="fill: rgb(0,0,0)" />
	<circle cx="201.846072082628" cy="-525.012346138518" r="2" style="fill: rgb(0,0,0)" />
	<circle cx="149.637583340231" cy="-476.531695097661" r="2" style="fill: rgb(0,0,0)" />
	<circle cx="127.849066951872" cy="-445.977220626317" r="2" style="fill: rgb(0,0,0)" />
	<circle cx="391.769057199554" cy="-186.392343248154" r="2" style="fill: rgb(0,0,0)" />
	<circle cx="431.968897005954" cy="-180.07505848823" r="2" style="fill: rgb(0,0,0)" />
	<circle cx="187.476467975073" cy="-168.736968839227" r="2" style="fill: rgb(0,0,0)" />
	<circle cx="221.411819685538" cy="-115.138186316895" r="2" style="fill: rgb(0,0,0)" />
	<circle cx="109.156425710994" cy="-227.602636529244" r="2" style="fill: rgb(0,0,0)" />
	<circle cx="125.728383716815" cy="-191.214062013084" r="2" style="fill: rgb(0,0,0)" />
	<circle cx="320.128011094325" cy="-103.898626725072" r="2" style="fill: rgb(0,0,0)" />
	<circle cx="370.877149979743" cy="-141.963866590029" r="2" style="fill: rgb(0,0,0)" />
	<circle cx="487.935097879504" cy="-395.613524905155" r="2" style="fill: rgb(0,0,0)" />
	<circle cx="485.022593955617" cy="-433.476700820903" r="2" style="fill: rgb(0,0,0)" />
	<circle cx="520.357366450382" cy="-353.662285705721" r="2" style="fill: rgb(0,0,0)" />
	<circle cx="493.458875386839" cy="-382.24807619957" r="2" style="fill: rgb(0,0,0)" />
	<circle cx="381.357794271351" cy="-536.300420474481" r="2" style="fill: rgb(0,0,0)" />
	<circle cx="464.672553292708" cy="-467.15738928356" r="2" style="fill: rgb(0,0,0)" />
	<circle cx="439.228144256591" cy="-494.741758144003" r="2" style="fill: rgb(0,0,0)" />
	<circle cx="52.4145899066692" cy="-405.34295018135" r="2" style="fill: rgb(0,0,0)" />
	<circle cx="80.3257590068391" cy="-351.474587647636" r="2" style="fill: rgb(0,0,0)" />
	<circle cx="145.171077729158" cy="-520.40284926743" r="2" style="fill: rgb(0,0,0)" />
	<circle cx="151.228549372271" cy="-483.367428466259" r="2" style="fill: rgb(0,0,0)" />
	<circle cx="133.602843549596" cy="-510.461069929408" r="2" style="fill: rgb(0,0,0)" />
	<circle cx="80.8249032316993" cy="-482.671725395415" r="2" style="fill: rgb(0,0,0)" />
	<circle cx="472.659570803176" cy="-179.623092640437" r="2" style="fill: rgb(0,0,0)" />
	<circle cx="491.623347050812" cy="-214.82441843783" r="2" style="fill: rgb(0,0,0)" />
	<circle cx="154.218521647644" cy="-145.288211659337" r="2" style="fill: rgb(0,0,0)" />
	<circle cx="158.812324306911" cy="-104.855153596338" r="2" style="fill: rgb(0,0,0)" />
	<circle cx="54.9912137012821" cy="-200.272000778369" r="2" style="fill: rgb(0,0,0)" />
	<circle cx="100.765536802119" cy="-159.076988700272" r="2" style="fill: rgb(0,0,0)" />
	<circle cx="375.002574858414" cy="-72.0675124610293" r="2" style="fill: rgb(0,0,0)" />
	<circle cx="393.647627543757" cy="-108.237903909825" r="2" style="fill: rgb(0,0,0)" />
	<circle cx="523.659750118606" cy="-379.352360677149" r="2" style="fill: rgb(0,0,0)" />
	<circle cx="544.603029296147" cy="-436.292793586413" r="2" style="fill: rgb(0,0,0)" />
	<circle cx="436.79340593929" cy="-501.324346763081" r="2" style="fill: rgb(0,0,0)" />
	<circle cx="438.163776535297" cy="-538.826845893877" r="2" style="fill: rgb(0,0,0)" />
	<circle cx="506.729620542259" cy="-509.453509060651" r="2" style="fill: rgb(0,0,0)" />
	<circle cx="450.886281233602" cy="-530.412519263611" r="2" style="fill: rgb(0,0,0)" />
	<circle cx="177.589740340239" cy="-576.441256459205" r="2" style="fill: rgb(0,0,0)" />
	<circle cx="144.192710998362" cy="-558.36527237337" r="2" style="fill: rgb(0,0,0)" />
	<circle cx="114.925639574184" cy="-543.525625290018" r="2" style="fill: rgb(0,0,0)" />
	<circle cx="75.6762583819005" cy="-543.122741092545" r="2" style="fill: rgb(0,0,0)" />
	<circle cx="495.421746776251" cy="-145.891526531375" r="2" style="fill: rgb(0,0,0)" />
	<circle cx="543.843575843906" cy="-183.939445596638" r="2" style="fill: rgb(0,0,0)" />
	<circle cx="167.394535920821" cy="-65.0772595971105" r="2" style="fill: rgb(0,0,0)" />
	<circle cx="206.406101736872" cy="-53.5" r="2" style="fill: rgb(0,0,0)" />
	<circle cx="33.5" cy="-143.536107586759" r="2" style="fill: rgb(0,0,0)" />
	<circle cx="71.4277046174727" cy="-130.877222568169" r="2" style="fill: rgb(0,0,0)" />
	<circle cx="504.265078214503" cy="-570.073306765019" r="2" style="fill: rgb(0,0,0)" />
	<circle cx="465.274402214239" cy="-565.556291744392" r="2" style="fill: rgb(0,0,0)" />
	<circle cx="522.81194943687" cy="-115.796477014721" r="2" style="fill: rgb(0,0,0)" />
	<circle cx="561.5" cy="-125.895630003375" r="2" style="fill: rgb(0,0,0)" />
	<!--
	Generated using the Perl SVG Module V2.87
	by Ronan Oger

	-->
</svg>