<?xml version="1.0" encoding="UTF-8" standalone="yes"?>
<!DOCTYPE svg PUBLIC "-//W3C//DTD SVG 1.0//EN" "http://www.w3.org/TR/2001/REC-SVG-20010904/DTD/svg10.dtd">
<!-- generated using polymake; Michael Joswig, Georg Loho, Benjamin Lorenz, Rico Raber; license CC BY-NC-ND 3.0; see polymake.org and matchthenet.de -->
<svg height="841pt" id="document" viewBox="0 -709.543486800292 572 709.543486800292" width="595pt" xmlns="http://www.w3.org/2000/svg" xmlns:svg="http://www.w3.org/2000/svg" xmlns:xlink="http://www.w3.org/1999/xlink">
	<title id="document_title">planar_net_</title>
	<polygon points="261.213032512373,-363.271743400113 327.957722694797,-363.271743400113 328.485528919062,-400.893884812298 296.154352637605,-420.139641334327 " style="fill: rgb(123,33,31); fill-opacity: 1; stroke: rgb(0,0,0); stroke-width: 3" />
	<polygon points="328.485528919048,-325.649601987921 327.957722694797,-363.271743400113 261.213032512373,-363.271743400113 296.15435263758,-306.403845465901 " style="fill: rgb(123,33,31); fill-opacity: 1; stroke: rgb(0,0,0); stroke-width: 3" />
	<polygon points="328.485528919062,-400.893884812298 327.957722694797,-363.271743400113 419.74530236879,-384.87606906954 402.96773014355,-434.373803932981 " style="fill: rgb(123,33,31); fill-opacity: 1; stroke: rgb(0,0,0); stroke-width: 3" />
	<polygon points="261.213032512373,-363.271743400113 296.154352637605,-420.139641334327 264.375796982453,-440.284802150792 231.052401638825,-422.813241641762 " style="fill: rgb(123,33,31); fill-opacity: 1; stroke: rgb(0,0,0); stroke-width: 3" />
	<polygon points="419.745302368783,-341.667417730657 327.957722694797,-363.271743400113 328.485528919048,-325.649601987921 402.967730143505,-292.169682867213 " style="fill: rgb(123,33,31); fill-opacity: 1; stroke: rgb(0,0,0); stroke-width: 3" />
	<polygon points="296.154352637605,-420.139641334327 328.485528919062,-400.893884812298 396.003095450567,-446.827331158435 362.613149283338,-487.034596438892 " style="fill: rgb(123,33,31); fill-opacity: 1; stroke: rgb(0,0,0); stroke-width: 3" />
	<polygon points="261.213032512373,-363.271743400113 231.052401638792,-303.730245158503 264.375796982409,-286.258684649454 296.15435263758,-306.403845465901 " style="fill: rgb(123,33,31); fill-opacity: 1; stroke: rgb(0,0,0); stroke-width: 3" />
	<polygon points="296.154352637605,-420.139641334327 325.798457844991,-509.654632796616 274.84215485012,-521.272200161585 264.375796982453,-440.284802150792 " style="fill: rgb(123,33,31); fill-opacity: 1; stroke: rgb(0,0,0); stroke-width: 3" />
	<polygon points="396.003095450545,-279.716155641742 328.485528919048,-325.649601987921 296.15435263758,-306.403845465901 362.613149283283,-239.50889036131 " style="fill: rgb(123,33,31); fill-opacity: 1; stroke: rgb(0,0,0); stroke-width: 3" />
	<polygon points="261.213032512373,-363.271743400113 231.052401638825,-422.813241641762 197.251995504992,-406.283370225542 194.693102743399,-368.744641268859 " style="fill: rgb(123,33,31); fill-opacity: 1; stroke: rgb(0,0,0); stroke-width: 3" />
	<polygon points="325.798457844909,-216.888854003594 296.15435263758,-306.403845465901 264.375796982409,-286.258684649454 274.842154850012,-205.271286638671 " style="fill: rgb(123,33,31); fill-opacity: 1; stroke: rgb(0,0,0); stroke-width: 3" />
	<polygon points="231.052401638825,-422.813241641762 264.375796982453,-440.284802150792 260.585448542239,-521.857693127338 208.848127614719,-514.457537073082 " style="fill: rgb(123,33,31); fill-opacity: 1; stroke: rgb(0,0,0); stroke-width: 3" />
	<polygon points="231.052401638825,-422.813241641762 170.302621887082,-494.932385633875 133.728219881101,-457.598409093871 197.251995504992,-406.283370225542 " style="fill: rgb(123,33,31); fill-opacity: 1; stroke: rgb(0,0,0); stroke-width: 3" />
	<polygon points="231.052401638792,-303.730245158503 208.848127614634,-212.085949727197 260.585448542141,-204.685793672894 264.375796982409,-286.258684649454 " style="fill: rgb(123,33,31); fill-opacity: 1; stroke: rgb(0,0,0); stroke-width: 3" />
	<polygon points="194.693102743399,-368.744641268859 197.251995504992,-406.283370225542 125.76588022831,-445.757901333822 104.986115276689,-397.802567376688 " style="fill: rgb(123,33,31); fill-opacity: 1; stroke: rgb(0,0,0); stroke-width: 3" />
	<polygon points="402.96773014355,-434.373803932981 419.74530236879,-384.87606906954 494.227503593273,-418.355988190191 494.755309817559,-455.978129602372 " style="fill: rgb(123,33,31); fill-opacity: 1; stroke: rgb(0,0,0); stroke-width: 3" />
	<polygon points="419.745302368783,-341.667417730657 402.967730143505,-292.169682867213 494.755309817502,-270.565357197759 494.227503593249,-308.187498609949 " style="fill: rgb(123,33,31); fill-opacity: 1; stroke: rgb(0,0,0); stroke-width: 3" />
	<polygon points="362.613149283338,-487.034596438892 396.003095450567,-446.827331158435 462.461892096308,-513.722286263003 430.13071581485,-532.968042785032 " style="fill: rgb(123,33,31); fill-opacity: 1; stroke: rgb(0,0,0); stroke-width: 3" />
	<polygon points="325.798457844991,-509.654632796616 336.264815712683,-590.642030807388 304.486260057546,-610.787191623869 274.84215485012,-521.272200161585 " style="fill: rgb(123,33,31); fill-opacity: 1; stroke: rgb(0,0,0); stroke-width: 3" />
	<polygon points="396.003095450545,-279.716155641742 362.613149283283,-239.50889036131 430.130715814756,-193.575444015124 462.461892096233,-212.821200537125 " style="fill: rgb(123,33,31); fill-opacity: 1; stroke: rgb(0,0,0); stroke-width: 3" />
	<polygon points="325.798457844909,-216.888854003594 274.842154850012,-205.271286638671 304.486260057349,-115.756295176356 336.264815712518,-135.901455992804 " style="fill: rgb(123,33,31); fill-opacity: 1; stroke: rgb(0,0,0); stroke-width: 3" />
	<polygon points="208.848127614719,-514.457537073082 260.585448542239,-521.857693127338 238.381174518132,-613.501988558666 205.057779174505,-596.030428049635 " style="fill: rgb(123,33,31); fill-opacity: 1; stroke: rgb(0,0,0); stroke-width: 3" />
	<polygon points="170.302621887082,-494.932385633875 106.778846263223,-546.247424502215 72.9784401293839,-529.717553086015 133.728219881101,-457.598409093871 " style="fill: rgb(123,33,31); fill-opacity: 1; stroke: rgb(0,0,0); stroke-width: 3" />
	<polygon points="208.848127614634,-212.085949727197 205.057779174345,-130.513058750654 238.381174517951,-113.041498241589 260.585448542141,-204.685793672894 " style="fill: rgb(123,33,31); fill-opacity: 1; stroke: rgb(0,0,0); stroke-width: 3" />
	<polygon points="104.986115276689,-397.802567376688 125.76588022831,-445.757901333822 36.0588927615918,-474.815827441653 33.5,-437.277098484971 " style="fill: rgb(123,33,31); fill-opacity: 1; stroke: rgb(0,0,0); stroke-width: 3" />
	<polygon points="494.755309817559,-455.978129602372 494.227503593273,-418.355988190191 526.558679874732,-399.110231668139 561.5,-455.978129602289 " style="fill: rgb(123,33,31); fill-opacity: 1; stroke: rgb(0,0,0); stroke-width: 3" />
	<polygon points="430.13071581485,-532.968042785032 462.461892096308,-513.722286263003 497.403212221534,-570.590184197202 430.658522039124,-570.590184197213 " style="fill: rgb(123,33,31); fill-opacity: 1; stroke: rgb(0,0,0); stroke-width: 3" />
	<polygon points="238.381174518132,-613.501988558666 208.220543644582,-673.043486800292 173.279223519355,-616.1755888661 205.057779174505,-596.030428049635 " style="fill: rgb(123,33,31); fill-opacity: 1; stroke: rgb(0,0,0); stroke-width: 3" />
	<polygon points="208.220543644298,-53.5 238.381174517951,-113.041498241589 205.057779174345,-130.513058750654 173.279223519169,-110.367897934225 " style="fill: rgb(123,33,31); fill-opacity: 1; stroke: rgb(0,0,0); stroke-width: 3" />
	<polygon points="497.403212221384,-155.953302602863 462.461892096233,-212.821200537125 430.130715814756,-193.575444015124 430.658522038989,-155.953302602937 " style="fill: rgb(123,33,31); fill-opacity: 1; stroke: rgb(0,0,0); stroke-width: 3" />
	<circle cx="261.213032512373" cy="-363.271743400113" r="2" style="fill: rgb(0,0,0)" />
	<circle cx="327.957722694797" cy="-363.271743400113" r="2" style="fill: rgb(0,0,0)" />
	<circle cx="328.485528919062" cy="-400.893884812298" r="2" style="fill: rgb(0,0,0)" />
	<circle cx="296.154352637605" cy="-420.139641334327" r="2" style="fill: rgb(0,0,0)" />
	<circle cx="296.15435263758" cy="-306.403845465901" r="2" style="fill: rgb(0,0,0)" />
	<circle cx="328.485528919048" cy="-325.649601987921" r="2" style="fill: rgb(0,0,0)" />
	<circle cx="419.74530236879" cy="-384.87606906954" r="2" style="fill: rgb(0,0,0)" />
	<circle cx="402.96773014355" cy="-434.373803932981" r="2" style="fill: rgb(0,0,0)" />
	<circle cx="264.375796982453" cy="-440.284802150792" r="2" style="fill: rgb(0,0,0)" />
	<circle cx="231.052401638825" cy="-422.813241641762" r="2" style="fill: rgb(0,0,0)" />
	<circle cx="396.003095450567" cy="-446.827331158435" r="2" style="fill: rgb(0,0,0)" />
	<circle cx="362.613149283338" cy="-487.034596438892" r="2" style="fill: rgb(0,0,0)" />
	<circle cx="402.967730143505" cy="-292.169682867213" r="2" style="fill: rgb(0,0,0)" />
	<circle cx="419.745302368783" cy="-341.667417730657" r="2" style="fill: rgb(0,0,0)" />
	<circle cx="231.052401638792" cy="-303.730245158503" r="2" style="fill: rgb(0,0,0)" />
	<circle cx="264.375796982409" cy="-286.258684649454" r="2" style="fill: rgb(0,0,0)" />
	<circle cx="362.613149283283" cy="-239.50889036131" r="2" style="fill: rgb(0,0,0)" />
	<circle cx="396.003095450545" cy="-279.716155641742" r="2" style="fill: rgb(0,0,0)" />
	<circle cx="494.227503593273" cy="-418.355988190191" r="2" style="fill: rgb(0,0,0)" />
	<circle cx="494.755309817559" cy="-455.978129602372" r="2" style="fill: rgb(0,0,0)" />
	<circle cx="325.798457844991" cy="-509.654632796616" r="2" style="fill: rgb(0,0,0)" />
	<circle cx="274.84215485012" cy="-521.272200161585" r="2" style="fill: rgb(0,0,0)" />
	<circle cx="197.251995504992" cy="-406.283370225542" r="2" style="fill: rgb(0,0,0)" />
	<circle cx="194.693102743399" cy="-368.744641268859" r="2" style="fill: rgb(0,0,0)" />
	<circle cx="260.585448542239" cy="-521.857693127338" r="2" style="fill: rgb(0,0,0)" />
	<circle cx="208.848127614719" cy="-514.457537073082" r="2" style="fill: rgb(0,0,0)" />
	<circle cx="462.461892096308" cy="-513.722286263003" r="2" style="fill: rgb(0,0,0)" />
	<circle cx="430.13071581485" cy="-532.968042785032" r="2" style="fill: rgb(0,0,0)" />
	<circle cx="494.755309817502" cy="-270.565357197759" r="2" style="fill: rgb(0,0,0)" />
	<circle cx="494.227503593249" cy="-308.187498609949" r="2" style="fill: rgb(0,0,0)" />
	<circle cx="274.842154850012" cy="-205.271286638671" r="2" style="fill: rgb(0,0,0)" />
	<circle cx="325.798457844909" cy="-216.888854003594" r="2" style="fill: rgb(0,0,0)" />
	<circle cx="208.848127614634" cy="-212.085949727197" r="2" style="fill: rgb(0,0,0)" />
	<circle cx="260.585448542141" cy="-204.685793672894" r="2" style="fill: rgb(0,0,0)" />
	<circle cx="430.130715814756" cy="-193.575444015124" r="2" style="fill: rgb(0,0,0)" />
	<circle cx="462.461892096233" cy="-212.821200537125" r="2" style="fill: rgb(0,0,0)" />
	<circle cx="526.558679874732" cy="-399.110231668139" r="2" style="fill: rgb(0,0,0)" />
	<circle cx="561.5" cy="-455.978129602289" r="2" style="fill: rgb(0,0,0)" />
	<circle cx="336.264815712683" cy="-590.642030807388" r="2" style="fill: rgb(0,0,0)" />
	<circle cx="304.486260057546" cy="-610.787191623869" r="2" style="fill: rgb(0,0,0)" />
	<circle cx="170.302621887082" cy="-494.932385633875" r="2" style="fill: rgb(0,0,0)" />
	<circle cx="133.728219881101" cy="-457.598409093871" r="2" style="fill: rgb(0,0,0)" />
	<circle cx="125.76588022831" cy="-445.757901333822" r="2" style="fill: rgb(0,0,0)" />
	<circle cx="104.986115276689" cy="-397.802567376688" r="2" style="fill: rgb(0,0,0)" />
	<circle cx="238.381174518132" cy="-613.501988558666" r="2" style="fill: rgb(0,0,0)" />
	<circle cx="205.057779174505" cy="-596.030428049635" r="2" style="fill: rgb(0,0,0)" />
	<circle cx="497.403212221534" cy="-570.590184197202" r="2" style="fill: rgb(0,0,0)" />
	<circle cx="430.658522039124" cy="-570.590184197213" r="2" style="fill: rgb(0,0,0)" />
	<circle cx="304.486260057349" cy="-115.756295176356" r="2" style="fill: rgb(0,0,0)" />
	<circle cx="336.264815712518" cy="-135.901455992804" r="2" style="fill: rgb(0,0,0)" />
	<circle cx="205.057779174345" cy="-130.513058750654" r="2" style="fill: rgb(0,0,0)" />
	<circle cx="238.381174517951" cy="-113.041498241589" r="2" style="fill: rgb(0,0,0)" />
	<circle cx="430.658522038989" cy="-155.953302602937" r="2" style="fill: rgb(0,0,0)" />
	<circle cx="497.403212221384" cy="-155.953302602863" r="2" style="fill: rgb(0,0,0)" />
	<circle cx="106.778846263223" cy="-546.247424502215" r="2" style="fill: rgb(0,0,0)" />
	<circle cx="72.9784401293839" cy="-529.717553086015" r="2" style="fill: rgb(0,0,0)" />
	<circle cx="36.0588927615918" cy="-474.815827441653" r="2" style="fill: rgb(0,0,0)" />
	<circle cx="33.5" cy="-437.277098484971" r="2" style="fill: rgb(0,0,0)" />
	<circle cx="208.220543644582" cy="-673.043486800292" r="2" style="fill: rgb(0,0,0)" />
	<circle cx="173.279223519355" cy="-616.1755888661" r="2" style="fill: rgb(0,0,0)" />
	<circle cx="173.279223519169" cy="-110.367897934225" r="2" style="fill: rgb(0,0,0)" />
	<circle cx="208.220543644298" cy="-53.5" r="2" style="fill: rgb(0,0,0)" />
	<!--
	Generated using the Perl SVG Module V2.84
	by Ronan Oger
	Info: http://www.roitsystems.com/
	-->
</svg>