<?xml version="1.0" encoding="UTF-8" standalone="yes"?>
<!DOCTYPE svg PUBLIC "-//W3C//DTD SVG 1.0//EN" "http://www.w3.org/TR/2001/REC-SVG-20010904/DTD/svg10.dtd">
<!-- generated using polymake; Michael Joswig, Georg Loho, Benjamin Lorenz, Rico Raber; license CC BY-NC-ND 3.0; see polymake.org and matchthenet.de -->
<svg height="841pt" id="document" viewBox="0 -811 571.807627805714 811" width="595pt" xmlns="http://www.w3.org/2000/svg" xmlns:svg="http://www.w3.org/2000/svg" xmlns:xlink="http://www.w3.org/1999/xlink">
	<title id="document_title">planar_net_</title>
	<polygon points="231.426822238117,-413.999764475233 363.379145889613,-413.999764475233 297.40349180233,-528.273522386253 " style="fill: rgb(186,59,38); fill-opacity: 1; stroke: rgb(0,0,0); stroke-width: 3" />
	<polygon points="429.355505925057,-299.726439061565 363.379145889613,-413.999764475233 297.403492841254,-299.725924439123 " style="fill: rgb(186,59,38); fill-opacity: 1; stroke: rgb(0,0,0); stroke-width: 3" />
	<polygon points="297.403492841254,-299.725924439123 363.379145889613,-413.999764475233 231.426822238117,-413.999764475233 " style="fill: rgb(186,59,38); fill-opacity: 1; stroke: rgb(0,0,0); stroke-width: 3" />
	<polygon points="297.403794452194,-660.225550833408 363.380274661426,-774.499047893901 231.428275686631,-774.499497747772 " style="fill: rgb(186,59,38); fill-opacity: 1; stroke: rgb(0,0,0); stroke-width: 3" />
	<polygon points="543.629444353154,-233.750744979863 429.355505925057,-299.726439061565 429.355939809869,-167.774383502651 " style="fill: rgb(186,59,38); fill-opacity: 1; stroke: rgb(0,0,0); stroke-width: 3" />
	<polygon points="543.629444353154,-233.750744979863 429.355939809869,-167.774383502651 543.629919372246,-101.798746005149 " style="fill: rgb(186,59,38); fill-opacity: 1; stroke: rgb(0,0,0); stroke-width: 3" />
	<polygon points="429.355505925057,-299.726439061565 297.403492841254,-299.725924439123 297.403932472339,-167.773881310753 429.355939809869,-167.774383502651 " style="fill: rgb(216,176,92); fill-opacity: 1; stroke: rgb(0,0,0); stroke-width: 3" />
	<polygon points="297.403492841254,-299.725924439123 165.451574885407,-299.725415393746 231.427934067618,-185.451835817987 " style="fill: rgb(186,59,38); fill-opacity: 1; stroke: rgb(0,0,0); stroke-width: 3" />
	<polygon points="165.451458263593,-528.273918391753 165.45187421938,-660.225922154584 51.1784677112402,-594.250239987756 " style="fill: rgb(186,59,38); fill-opacity: 1; stroke: rgb(0,0,0); stroke-width: 3" />
	<polygon points="99.4747092555111,-414.000586211713 165.451458263593,-528.273918391753 33.5,-528.274815249699 " style="fill: rgb(186,59,38); fill-opacity: 1; stroke: rgb(0,0,0); stroke-width: 3" />
	<polygon points="51.1784677112402,-594.250239987756 165.45187421938,-660.225922154584 51.1780393207318,-726.202076659093 " style="fill: rgb(186,59,38); fill-opacity: 1; stroke: rgb(0,0,0); stroke-width: 3" />
	<polygon points="165.451574885407,-299.725415393746 99.4760243477125,-185.451672062995 231.427934067618,-185.451835817987 " style="fill: rgb(186,59,38); fill-opacity: 1; stroke: rgb(0,0,0); stroke-width: 3" />
	<polygon points="231.428281441565,-53.5 363.380118113338,-53.5002563940771 297.403932472339,-167.773881310753 " style="fill: rgb(186,59,38); fill-opacity: 1; stroke: rgb(0,0,0); stroke-width: 3" />
	<polygon points="429.355939809869,-167.774383502651 297.403932472339,-167.773881310753 363.380118113338,-53.5002563940771 " style="fill: rgb(186,59,38); fill-opacity: 1; stroke: rgb(0,0,0); stroke-width: 3" />
	<polygon points="165.45187421938,-660.225922154584 231.428275686631,-774.499497747772 99.4761405112281,-774.5 " style="fill: rgb(186,59,38); fill-opacity: 1; stroke: rgb(0,0,0); stroke-width: 3" />
	<polygon points="363.380118113338,-53.5002563940771 495.332253288618,-53.500793781898 429.355939809869,-167.774383502651 " style="fill: rgb(186,59,38); fill-opacity: 1; stroke: rgb(0,0,0); stroke-width: 3" />
	<polygon points="231.426822238117,-413.999764475233 165.451458263593,-528.273918391753 99.4747092555111,-414.000586211713 " style="fill: rgb(186,59,38); fill-opacity: 1; stroke: rgb(0,0,0); stroke-width: 3" />
	<polygon points="231.426822238117,-413.999764475233 165.451574885407,-299.725415393746 297.403492841254,-299.725924439123 " style="fill: rgb(186,59,38); fill-opacity: 1; stroke: rgb(0,0,0); stroke-width: 3" />
	<polygon points="165.45187421938,-660.225922154584 297.403794452194,-660.225550833408 231.428275686631,-774.499497747772 " style="fill: rgb(186,59,38); fill-opacity: 1; stroke: rgb(0,0,0); stroke-width: 3" />
	<polygon points="231.426822238117,-413.999764475233 297.40349180233,-528.273522386253 165.451458263593,-528.273918391753 " style="fill: rgb(186,59,38); fill-opacity: 1; stroke: rgb(0,0,0); stroke-width: 3" />
	<polygon points="165.451458263593,-528.273918391753 297.40349180233,-528.273522386253 297.403794452194,-660.225550833408 165.45187421938,-660.225922154584 " style="fill: rgb(216,176,92); fill-opacity: 1; stroke: rgb(0,0,0); stroke-width: 3" />
	<polygon points="363.379461422849,-642.547356859184 429.355452319723,-528.273311214983 495.331452962304,-642.547297560306 " style="fill: rgb(186,59,38); fill-opacity: 1; stroke: rgb(0,0,0); stroke-width: 3" />
	<polygon points="297.40349180233,-528.273522386253 429.355452319723,-528.273311214983 363.379461422849,-642.547356859184 " style="fill: rgb(186,59,38); fill-opacity: 1; stroke: rgb(0,0,0); stroke-width: 3" />
	<polygon points="429.355452319723,-528.273311214983 495.330928690448,-413.99920893974 561.307627805714,-528.272565917182 " style="fill: rgb(186,59,38); fill-opacity: 1; stroke: rgb(0,0,0); stroke-width: 3" />
	<polygon points="429.355452319723,-528.273311214983 363.379145889613,-413.999764475233 495.330928690448,-413.99920893974 " style="fill: rgb(186,59,38); fill-opacity: 1; stroke: rgb(0,0,0); stroke-width: 3" />
	<polygon points="297.40349180233,-528.273522386253 363.379145889613,-413.999764475233 429.355452319723,-528.273311214983 " style="fill: rgb(186,59,38); fill-opacity: 1; stroke: rgb(0,0,0); stroke-width: 3" />
	<circle cx="231.426822238117" cy="-413.999764475233" r="2" style="fill: rgb(0,0,0)" />
	<circle cx="363.379145889613" cy="-413.999764475233" r="2" style="fill: rgb(0,0,0)" />
	<circle cx="297.40349180233" cy="-528.273522386253" r="2" style="fill: rgb(0,0,0)" />
	<circle cx="297.403492841254" cy="-299.725924439123" r="2" style="fill: rgb(0,0,0)" />
	<circle cx="165.451458263593" cy="-528.273918391753" r="2" style="fill: rgb(0,0,0)" />
	<circle cx="429.355452319723" cy="-528.273311214983" r="2" style="fill: rgb(0,0,0)" />
	<circle cx="429.355505925057" cy="-299.726439061565" r="2" style="fill: rgb(0,0,0)" />
	<circle cx="165.451574885407" cy="-299.725415393746" r="2" style="fill: rgb(0,0,0)" />
	<circle cx="99.4747092555111" cy="-414.000586211713" r="2" style="fill: rgb(0,0,0)" />
	<circle cx="297.403794452194" cy="-660.225550833408" r="2" style="fill: rgb(0,0,0)" />
	<circle cx="165.45187421938" cy="-660.225922154584" r="2" style="fill: rgb(0,0,0)" />
	<circle cx="363.379461422849" cy="-642.547356859184" r="2" style="fill: rgb(0,0,0)" />
	<circle cx="495.330928690448" cy="-413.99920893974" r="2" style="fill: rgb(0,0,0)" />
	<circle cx="297.403932472339" cy="-167.773881310753" r="2" style="fill: rgb(0,0,0)" />
	<circle cx="429.355939809869" cy="-167.774383502651" r="2" style="fill: rgb(0,0,0)" />
	<circle cx="231.427934067618" cy="-185.451835817987" r="2" style="fill: rgb(0,0,0)" />
	<circle cx="33.5" cy="-528.274815249699" r="2" style="fill: rgb(0,0,0)" />
	<circle cx="51.1784677112402" cy="-594.250239987756" r="2" style="fill: rgb(0,0,0)" />
	<circle cx="231.428275686631" cy="-774.499497747772" r="2" style="fill: rgb(0,0,0)" />
	<circle cx="495.331452962304" cy="-642.547297560306" r="2" style="fill: rgb(0,0,0)" />
	<circle cx="561.307627805714" cy="-528.272565917182" r="2" style="fill: rgb(0,0,0)" />
	<circle cx="543.629444353154" cy="-233.750744979863" r="2" style="fill: rgb(0,0,0)" />
	<circle cx="363.380118113338" cy="-53.5002563940771" r="2" style="fill: rgb(0,0,0)" />
	<circle cx="99.4760243477125" cy="-185.451672062995" r="2" style="fill: rgb(0,0,0)" />
	<circle cx="51.1780393207318" cy="-726.202076659093" r="2" style="fill: rgb(0,0,0)" />
	<circle cx="363.380274661426" cy="-774.499047893901" r="2" style="fill: rgb(0,0,0)" />
	<circle cx="99.4761405112281" cy="-774.5" r="2" style="fill: rgb(0,0,0)" />
	<circle cx="543.629919372246" cy="-101.798746005149" r="2" style="fill: rgb(0,0,0)" />
	<circle cx="231.428281441565" cy="-53.5" r="2" style="fill: rgb(0,0,0)" />
	<circle cx="495.332253288618" cy="-53.500793781898" r="2" style="fill: rgb(0,0,0)" />
	<!--
	Generated using the Perl SVG Module V2.84
	by Ronan Oger
	Info: http://www.roitsystems.com/
	-->
</svg>