<?xml version="1.0" encoding="UTF-8" standalone="yes"?>
<!DOCTYPE svg PUBLIC "-//W3C//DTD SVG 1.0//EN" "http://www.w3.org/TR/2001/REC-SVG-20010904/DTD/svg10.dtd">
<!-- generated using polymake; Michael Joswig, Georg Loho, Benjamin Lorenz, Rico Raber; license CC BY-NC-SA 3.0; see polymake.org and matchthenet.de -->
<svg height="841pt" id="document" viewBox="0 -803.657486621262 572 803.657486621262" width="595pt" xmlns="http://www.w3.org/2000/svg" xmlns:svg="http://www.w3.org/2000/svg" xmlns:xlink="http://www.w3.org/1999/xlink">
	<title id="document_title">planar_net_</title>
	<polygon points="318.047257899654,-410.328743310655 401.469966529282,-410.328743310655 358.045356559951,-481.55831276124 284.367225464316,-476.086363729218 " style="fill: rgb(67,184,206); fill-opacity: 1; stroke: rgb(0,0,0); stroke-width: 3" />
	<polygon points="318.047257899654,-410.328743310655 284.367225464306,-344.571122892109 358.045356559945,-339.099173860075 401.469966529282,-410.328743310655 " style="fill: rgb(67,184,206); fill-opacity: 1; stroke: rgb(0,0,0); stroke-width: 3" />
	<polygon points="358.045356559951,-481.55831276124 401.469966529282,-410.328743310655 439.68443912907,-484.484002052192 396.660078752103,-544.544918146668 " style="fill: rgb(67,184,206); fill-opacity: 1; stroke: rgb(0,0,0); stroke-width: 3" />
	<polygon points="318.047257899654,-410.328743310655 284.367225464316,-476.086363729218 241.275982441728,-420.03690290055 269.058344714646,-355.025076046104 " style="fill: rgb(67,184,206); fill-opacity: 1; stroke: rgb(0,0,0); stroke-width: 3" />
	<polygon points="439.684439129057,-336.173484569113 401.469966529282,-410.328743310655 358.045356559945,-339.099173860075 396.660078752075,-276.112568474641 " style="fill: rgb(67,184,206); fill-opacity: 1; stroke: rgb(0,0,0); stroke-width: 3" />
	<polygon points="284.367225464316,-476.086363729218 358.045356559951,-481.55831276124 379.765245426899,-552.174569073533 309.793857807719,-542.055171904671 " style="fill: rgb(67,184,206); fill-opacity: 1; stroke: rgb(0,0,0); stroke-width: 3" />
	<polygon points="439.68443912907,-484.484002052192 401.469966529282,-410.328743310655 484.678673540989,-416.300291899106 513.565258084365,-484.300104114822 " style="fill: rgb(67,184,206); fill-opacity: 1; stroke: rgb(0,0,0); stroke-width: 3" />
	<polygon points="241.275982441728,-420.03690290055 284.367225464316,-476.086363729218 119.109308299974,-489.895802607705 129.121844261206,-444.752145702856 " style="fill: rgb(67,184,206); fill-opacity: 1; stroke: rgb(0,0,0); stroke-width: 3" />
	<polygon points="358.045356559945,-339.099173860075 284.367225464306,-344.571122892109 309.793857807689,-278.602314716648 379.765245426864,-268.48291754777 " style="fill: rgb(67,184,206); fill-opacity: 1; stroke: rgb(0,0,0); stroke-width: 3" />
	<polygon points="284.367225464316,-476.086363729218 309.793857807719,-542.055171904671 230.310634120442,-624.951559582737 186.553319431889,-610.001708534497 " style="fill: rgb(67,184,206); fill-opacity: 1; stroke: rgb(0,0,0); stroke-width: 3" />
	<polygon points="269.058344714646,-355.025076046104 241.275982441728,-420.03690290055 126.499927716264,-424.018259384308 105.564935785208,-382.788091449115 " style="fill: rgb(67,184,206); fill-opacity: 1; stroke: rgb(0,0,0); stroke-width: 3" />
	<polygon points="396.660078752103,-544.544918146668 439.68443912907,-484.484002052192 511.285365712262,-502.697089115743 466.222329740804,-557.173873835932 " style="fill: rgb(67,184,206); fill-opacity: 1; stroke: rgb(0,0,0); stroke-width: 3" />
	<polygon points="284.367225464306,-344.571122892109 186.553319431839,-210.655778086865 230.310634120388,-195.705927038611 309.793857807689,-278.602314716648 " style="fill: rgb(67,184,206); fill-opacity: 1; stroke: rgb(0,0,0); stroke-width: 3" />
	<polygon points="309.793857807719,-542.055171904671 379.765245426899,-552.174569073533 270.955722237969,-677.319954330174 246.649232022156,-637.983010263484 " style="fill: rgb(67,184,206); fill-opacity: 1; stroke: rgb(0,0,0); stroke-width: 3" />
	<polygon points="511.285365712243,-317.96039750553 439.684439129057,-336.173484569113 396.660078752075,-276.112568474641 466.222329740772,-263.483612785351 " style="fill: rgb(67,184,206); fill-opacity: 1; stroke: rgb(0,0,0); stroke-width: 3" />
	<polygon points="396.660078752103,-544.544918146668 466.222329740804,-557.173873835932 495.628543658928,-668.190397474518 460.08647332966,-697.770151899244 " style="fill: rgb(67,184,206); fill-opacity: 1; stroke: rgb(0,0,0); stroke-width: 3" />
	<polygon points="309.793857807689,-278.602314716648 246.649232022105,-182.674476357845 270.955722237907,-143.337532291149 379.765245426864,-268.48291754777 " style="fill: rgb(67,184,206); fill-opacity: 1; stroke: rgb(0,0,0); stroke-width: 3" />
	<polygon points="466.222329740772,-263.483612785351 396.660078752075,-276.112568474641 460.086473329571,-122.887334722047 495.62854365885,-152.467089146761 " style="fill: rgb(67,184,206); fill-opacity: 1; stroke: rgb(0,0,0); stroke-width: 3" />
	<polygon points="466.222329740804,-557.173873835932 511.285365712262,-502.697089115743 561.5,-660.745721792478 515.26015104181,-661.023216731516 " style="fill: rgb(67,184,206); fill-opacity: 1; stroke: rgb(0,0,0); stroke-width: 3" />
	<polygon points="511.285365712243,-317.96039750553 466.222329740772,-263.483612785351 515.260151041762,-159.634269889752 561.499999999951,-159.91176482878 " style="fill: rgb(67,184,206); fill-opacity: 1; stroke: rgb(0,0,0); stroke-width: 3" />
	<polygon points="495.62854365885,-152.467089146761 460.086473329571,-122.887334722047 512.326488349562,-53.5 538.908301146282,-136.186326666253 " style="fill: rgb(67,184,206); fill-opacity: 1; stroke: rgb(0,0,0); stroke-width: 3" />
	<polygon points="495.628543658928,-668.190397474518 538.908301146371,-684.471159955011 512.326488349714,-767.157486621262 460.08647332966,-697.770151899244 " style="fill: rgb(67,184,206); fill-opacity: 1; stroke: rgb(0,0,0); stroke-width: 3" />
	<polygon points="230.310634120442,-624.951559582737 238.938199665482,-670.380248182388 154.500563719937,-690.72495326853 186.553319431889,-610.001708534497 " style="fill: rgb(67,184,206); fill-opacity: 1; stroke: rgb(0,0,0); stroke-width: 3" />
	<polygon points="129.121844261206,-444.752145702856 119.109308299974,-489.895802607705 33.5,-475.244259292476 94.8240216673161,-413.738277829984 " style="fill: rgb(67,184,206); fill-opacity: 1; stroke: rgb(0,0,0); stroke-width: 3" />
	<polygon points="186.553319431839,-210.655778086865 154.500563719834,-129.932533352868 238.938199665411,-150.27723843896 230.310634120388,-195.705927038611 " style="fill: rgb(67,184,206); fill-opacity: 1; stroke: rgb(0,0,0); stroke-width: 3" />
	<circle cx="318.047257899654" cy="-410.328743310655" r="2" style="fill: rgb(0,0,0)" />
	<circle cx="401.469966529282" cy="-410.328743310655" r="2" style="fill: rgb(0,0,0)" />
	<circle cx="358.045356559951" cy="-481.55831276124" r="2" style="fill: rgb(0,0,0)" />
	<circle cx="284.367225464316" cy="-476.086363729218" r="2" style="fill: rgb(0,0,0)" />
	<circle cx="284.367225464306" cy="-344.571122892109" r="2" style="fill: rgb(0,0,0)" />
	<circle cx="358.045356559945" cy="-339.099173860075" r="2" style="fill: rgb(0,0,0)" />
	<circle cx="439.68443912907" cy="-484.484002052192" r="2" style="fill: rgb(0,0,0)" />
	<circle cx="396.660078752103" cy="-544.544918146668" r="2" style="fill: rgb(0,0,0)" />
	<circle cx="241.275982441728" cy="-420.03690290055" r="2" style="fill: rgb(0,0,0)" />
	<circle cx="269.058344714646" cy="-355.025076046104" r="2" style="fill: rgb(0,0,0)" />
	<circle cx="379.765245426899" cy="-552.174569073533" r="2" style="fill: rgb(0,0,0)" />
	<circle cx="309.793857807719" cy="-542.055171904671" r="2" style="fill: rgb(0,0,0)" />
	<circle cx="396.660078752075" cy="-276.112568474641" r="2" style="fill: rgb(0,0,0)" />
	<circle cx="439.684439129057" cy="-336.173484569113" r="2" style="fill: rgb(0,0,0)" />
	<circle cx="309.793857807689" cy="-278.602314716648" r="2" style="fill: rgb(0,0,0)" />
	<circle cx="379.765245426864" cy="-268.48291754777" r="2" style="fill: rgb(0,0,0)" />
	<circle cx="484.678673540989" cy="-416.300291899106" r="2" style="fill: rgb(0,0,0)" />
	<circle cx="513.565258084365" cy="-484.300104114822" r="2" style="fill: rgb(0,0,0)" />
	<circle cx="511.285365712262" cy="-502.697089115743" r="2" style="fill: rgb(0,0,0)" />
	<circle cx="466.222329740804" cy="-557.173873835932" r="2" style="fill: rgb(0,0,0)" />
	<circle cx="119.109308299974" cy="-489.895802607705" r="2" style="fill: rgb(0,0,0)" />
	<circle cx="129.121844261206" cy="-444.752145702856" r="2" style="fill: rgb(0,0,0)" />
	<circle cx="126.499927716264" cy="-424.018259384308" r="2" style="fill: rgb(0,0,0)" />
	<circle cx="105.564935785208" cy="-382.788091449115" r="2" style="fill: rgb(0,0,0)" />
	<circle cx="230.310634120442" cy="-624.951559582737" r="2" style="fill: rgb(0,0,0)" />
	<circle cx="186.553319431889" cy="-610.001708534497" r="2" style="fill: rgb(0,0,0)" />
	<circle cx="270.955722237969" cy="-677.319954330174" r="2" style="fill: rgb(0,0,0)" />
	<circle cx="246.649232022156" cy="-637.983010263484" r="2" style="fill: rgb(0,0,0)" />
	<circle cx="466.222329740772" cy="-263.483612785351" r="2" style="fill: rgb(0,0,0)" />
	<circle cx="511.285365712243" cy="-317.96039750553" r="2" style="fill: rgb(0,0,0)" />
	<circle cx="186.553319431839" cy="-210.655778086865" r="2" style="fill: rgb(0,0,0)" />
	<circle cx="230.310634120388" cy="-195.705927038611" r="2" style="fill: rgb(0,0,0)" />
	<circle cx="246.649232022105" cy="-182.674476357845" r="2" style="fill: rgb(0,0,0)" />
	<circle cx="270.955722237907" cy="-143.337532291149" r="2" style="fill: rgb(0,0,0)" />
	<circle cx="495.628543658928" cy="-668.190397474518" r="2" style="fill: rgb(0,0,0)" />
	<circle cx="460.08647332966" cy="-697.770151899244" r="2" style="fill: rgb(0,0,0)" />
	<circle cx="561.5" cy="-660.745721792478" r="2" style="fill: rgb(0,0,0)" />
	<circle cx="515.26015104181" cy="-661.023216731516" r="2" style="fill: rgb(0,0,0)" />
	<circle cx="33.5" cy="-475.244259292476" r="2" style="fill: rgb(0,0,0)" />
	<circle cx="94.8240216673161" cy="-413.738277829984" r="2" style="fill: rgb(0,0,0)" />
	<circle cx="238.938199665482" cy="-670.380248182388" r="2" style="fill: rgb(0,0,0)" />
	<circle cx="154.500563719937" cy="-690.72495326853" r="2" style="fill: rgb(0,0,0)" />
	<circle cx="460.086473329571" cy="-122.887334722047" r="2" style="fill: rgb(0,0,0)" />
	<circle cx="495.62854365885" cy="-152.467089146761" r="2" style="fill: rgb(0,0,0)" />
	<circle cx="515.260151041762" cy="-159.634269889752" r="2" style="fill: rgb(0,0,0)" />
	<circle cx="561.499999999951" cy="-159.91176482878" r="2" style="fill: rgb(0,0,0)" />
	<circle cx="154.500563719834" cy="-129.932533352868" r="2" style="fill: rgb(0,0,0)" />
	<circle cx="238.938199665411" cy="-150.27723843896" r="2" style="fill: rgb(0,0,0)" />
	<circle cx="538.908301146371" cy="-684.471159955011" r="2" style="fill: rgb(0,0,0)" />
	<circle cx="512.326488349714" cy="-767.157486621262" r="2" style="fill: rgb(0,0,0)" />
	<circle cx="512.326488349562" cy="-53.5" r="2" style="fill: rgb(0,0,0)" />
	<circle cx="538.908301146282" cy="-136.186326666253" r="2" style="fill: rgb(0,0,0)" />
	<!-- 
	Generated using the Perl SVG Module V2.64
	by Ronan Oger
	Info: http://www.roitsystems.com/
 -->
</svg>