<?xml version="1.0" encoding="UTF-8" standalone="yes"?>
<!DOCTYPE svg PUBLIC "-//W3C//DTD SVG 1.0//EN" "http://www.w3.org/TR/2001/REC-SVG-20010904/DTD/svg10.dtd">
<!-- generated using polymake; Michael Joswig, Georg Loho, Benjamin Lorenz, Rico Raber; license CC BY-NC-SA 3.0; see polymake.org and matchthenet.de -->
<svg height="841pt" id="document" viewBox="0 -767.05890445372 572 767.05890445372" width="595pt" xmlns="http://www.w3.org/2000/svg" xmlns:svg="http://www.w3.org/2000/svg" xmlns:xlink="http://www.w3.org/1999/xlink">
	<title id="document_title">planar_net_</title>
	<polygon points="293.844728557667,-392.257287637221 333.028868495653,-392.257287637221 313.43679852666,-426.191748248962 " style="fill: rgb(14,173,105); fill-opacity: 1; stroke: rgb(0,0,0); stroke-width: 3" />
	<polygon points="364.729503615449,-369.225428057909 333.028868495653,-392.257287637221 293.844728557667,-392.257287637221 262.14409343787,-369.225428057909 250.035528287066,-331.959096434466 262.144093437869,-294.692764811023 293.844728557666,-271.66090523171 333.028868495652,-271.66090523171 364.729503615449,-294.692764811023 376.838068766253,-331.959096434466 " style="fill: rgb(14,173,105); fill-opacity: 1; stroke: rgb(0,0,0); stroke-width: 3" />
	<polygon points="403.057376082609,-361.078587270162 364.729503615449,-369.225428057909 376.838068766253,-331.959096434466 " style="fill: rgb(14,173,105); fill-opacity: 1; stroke: rgb(0,0,0); stroke-width: 3" />
	<polygon points="262.14409343787,-369.225428057909 223.81622097071,-361.078587270162 250.035528287066,-331.959096434466 " style="fill: rgb(14,173,105); fill-opacity: 1; stroke: rgb(0,0,0); stroke-width: 3" />
	<polygon points="403.057376082609,-361.078587270162 376.838068766253,-331.959096434466 405.957559601952,-305.739789118106 432.176866918305,-334.859279953796 " style="fill: rgb(14,173,105); fill-opacity: 1; stroke: rgb(0,0,0); stroke-width: 3" />
	<polygon points="433.372541331146,-413.585993720475 407.153234014791,-384.466502884779 445.481106481958,-376.31966209704 " style="fill: rgb(14,173,105); fill-opacity: 1; stroke: rgb(0,0,0); stroke-width: 3" />
	<polygon points="218.334893167269,-354.990956013778 179.150753229282,-354.990956013778 147.450118109485,-331.959096434466 135.341552958681,-294.692764811023 147.450118109485,-257.426433187581 179.150753229282,-234.394573608268 218.334893167269,-234.394573608268 250.035528287066,-257.42643318758 262.144093437869,-294.692764811023 250.035528287066,-331.959096434466 " style="fill: rgb(14,173,105); fill-opacity: 1; stroke: rgb(0,0,0); stroke-width: 3" />
	<polygon points="433.372541331146,-413.585993720475 445.481106481958,-376.31966209704 482.747438105405,-388.428227247851 470.638872954604,-425.694558871278 " style="fill: rgb(14,173,105); fill-opacity: 1; stroke: rgb(0,0,0); stroke-width: 3" />
	<polygon points="376.838068766253,-331.959096434466 364.729503615449,-294.692764811023 403.057376082612,-302.83960559878 " style="fill: rgb(14,173,105); fill-opacity: 1; stroke: rgb(0,0,0); stroke-width: 3" />
	<polygon points="166.373338210677,-484.256113959779 154.264773059876,-521.522445583224 115.080633121898,-521.522445583237 102.972067971095,-484.256113959797 134.672703090884,-461.224254380473 " style="fill: rgb(14,173,105); fill-opacity: 1; stroke: rgb(0,0,0); stroke-width: 3" />
	<polygon points="364.729503615449,-294.692764811023 372.876344403205,-256.364892343861 411.204216870362,-264.511733131612 403.057376082612,-302.83960559878 " style="fill: rgb(14,173,105); fill-opacity: 1; stroke: rgb(0,0,0); stroke-width: 3" />
	<polygon points="364.729503615449,-294.692764811023 333.028868495652,-271.66090523171 368.825361547632,-255.723279691521 " style="fill: rgb(14,173,105); fill-opacity: 1; stroke: rgb(0,0,0); stroke-width: 3" />
	<polygon points="293.844728557666,-271.66090523171 262.144093437869,-294.692764811023 258.048235505687,-255.72327969152 " style="fill: rgb(14,173,105); fill-opacity: 1; stroke: rgb(0,0,0); stroke-width: 3" />
	<polygon points="135.341552958681,-294.692764811023 147.450118109485,-331.959096434466 109.122245642322,-323.812255646708 " style="fill: rgb(14,173,105); fill-opacity: 1; stroke: rgb(0,0,0); stroke-width: 3" />
	<polygon points="289.459228552391,-654.323087710776 285.363370620208,-693.292572830278 259.144063303853,-722.412063665975 220.816190836694,-730.55890445372 185.019697784715,-714.62127891353 165.427627815722,-680.686818301788 169.523485747905,-641.717333182286 195.74279306426,-612.597842346589 234.070665531419,-604.451001558845 269.867158583399,-620.388627099034 " style="fill: rgb(14,173,105); fill-opacity: 1; stroke: rgb(0,0,0); stroke-width: 3" />
	<polygon points="135.341552958681,-294.692764811023 109.122245642322,-323.812255646708 80.0027548066241,-297.592948330344 106.222062122972,-268.473457494662 " style="fill: rgb(14,173,105); fill-opacity: 1; stroke: rgb(0,0,0); stroke-width: 3" />
	<polygon points="376.838068766253,-211.362714028956 405.957559601957,-185.1434067126 432.176866918308,-214.2628975483 403.057376082605,-240.482204864661 " style="fill: rgb(14,173,105); fill-opacity: 1; stroke: rgb(0,0,0); stroke-width: 3" />
	<polygon points="364.729503615449,-248.629045652398 376.838068766253,-211.362714028956 403.057376082605,-240.482204864661 " style="fill: rgb(14,173,105); fill-opacity: 1; stroke: rgb(0,0,0); stroke-width: 3" />
	<polygon points="147.450118109485,-257.426433187581 135.341552958681,-294.692764811023 109.122245642325,-265.573273975325 " style="fill: rgb(14,173,105); fill-opacity: 1; stroke: rgb(0,0,0); stroke-width: 3" />
	<polygon points="76.5653430517013,-234.394573608266 108.265978171499,-257.42643318758 72.4694851195086,-273.364058727761 " style="fill: rgb(14,173,105); fill-opacity: 1; stroke: rgb(0,0,0); stroke-width: 3" />
	<polygon points="376.838068766253,-211.362714028956 364.729503615449,-174.096382405513 403.057376082608,-182.243223193258 " style="fill: rgb(14,173,105); fill-opacity: 1; stroke: rgb(0,0,0); stroke-width: 3" />
	<polygon points="218.334893167269,-234.394573608268 179.150753229282,-234.394573608268 198.742823198275,-200.460112996526 " style="fill: rgb(14,173,105); fill-opacity: 1; stroke: rgb(0,0,0); stroke-width: 3" />
	<polygon points="333.028868495652,-151.064522826199 293.844728557666,-151.064522826198 313.436798526659,-117.130062214456 " style="fill: rgb(14,173,105); fill-opacity: 1; stroke: rgb(0,0,0); stroke-width: 3" />
	<polygon points="72.4694851195195,-120.892425241877 108.2659781715,-136.830050782069 76.5653430517022,-159.861910361381 " style="fill: rgb(14,173,105); fill-opacity: 1; stroke: rgb(0,0,0); stroke-width: 3" />
	<polygon points="179.150753229282,-234.394573608268 147.450118109485,-257.426433187581 108.265978171499,-257.42643318758 76.5653430517013,-234.394573608266 64.4567779008977,-197.128241984823 76.5653430517022,-159.861910361381 108.2659781715,-136.830050782069 147.450118109487,-136.83005078207 179.150753229284,-159.861910361383 191.259318380088,-197.128241984826 " style="fill: rgb(14,173,105); fill-opacity: 1; stroke: rgb(0,0,0); stroke-width: 3" />
	<polygon points="38.2374705845408,-226.247732820518 64.4567779008977,-197.128241984823 76.5653430517013,-234.394573608266 " style="fill: rgb(14,173,105); fill-opacity: 1; stroke: rgb(0,0,0); stroke-width: 3" />
	<polygon points="522.315860062012,-546.788130654473 541.907930031006,-512.853670042733 561.5,-546.788130654474 " style="fill: rgb(14,173,105); fill-opacity: 1; stroke: rgb(0,0,0); stroke-width: 3" />
	<polygon points="435.614278673238,-76.5318595793183 447.722843824041,-113.798191202762 435.614278673235,-151.064522826206 403.913643553436,-174.096382405517 364.729503615449,-174.096382405513 333.028868495652,-151.064522826199 320.92030334485,-113.798191202754 333.028868495655,-76.5318595793112 364.729503615454,-53.5 403.913643553442,-53.5000000000026 " style="fill: rgb(14,173,105); fill-opacity: 1; stroke: rgb(0,0,0); stroke-width: 3" />
	<polygon points="403.913643553436,-174.096382405517 435.614278673235,-151.064522826206 439.710136605405,-190.034007945714 " style="fill: rgb(14,173,105); fill-opacity: 1; stroke: rgb(0,0,0); stroke-width: 3" />
	<polygon points="37.5958579321859,-230.298715676089 76.5653430517013,-234.394573608266 72.4694851195086,-273.364058727761 33.5,-269.268200795569 " style="fill: rgb(14,173,105); fill-opacity: 1; stroke: rgb(0,0,0); stroke-width: 3" />
	<polygon points="195.74279306426,-612.597842346589 169.523485747905,-641.717333182286 157.414920597108,-604.451001558836 " style="fill: rgb(14,173,105); fill-opacity: 1; stroke: rgb(0,0,0); stroke-width: 3" />
	<polygon points="537.812072098824,-473.884184923231 511.592764782468,-444.764694087535 549.920637249629,-436.617853299788 " style="fill: rgb(14,173,105); fill-opacity: 1; stroke: rgb(0,0,0); stroke-width: 3" />
	<polygon points="333.028868495652,-271.66090523171 293.844728557666,-271.66090523171 262.144093437869,-248.629045652397 250.035528287065,-211.362714028953 262.144093437869,-174.096382405511 293.844728557666,-151.064522826198 333.028868495652,-151.064522826199 364.729503615449,-174.096382405513 376.838068766253,-211.362714028956 364.729503615449,-248.629045652398 " style="fill: rgb(14,173,105); fill-opacity: 1; stroke: rgb(0,0,0); stroke-width: 3" />
	<polygon points="511.592764782468,-444.764694087535 503.445923994725,-406.436821620375 541.773796461872,-398.289980832623 549.920637249629,-436.617853299788 " style="fill: rgb(14,173,105); fill-opacity: 1; stroke: rgb(0,0,0); stroke-width: 3" />
	<polygon points="214.478595562426,-570.516540947104 234.070665531419,-604.451001558845 194.886525593433,-604.451001558846 " style="fill: rgb(14,173,105); fill-opacity: 1; stroke: rgb(0,0,0); stroke-width: 3" />
	<polygon points="214.478595562426,-570.516540947104 194.886525593433,-604.451001558846 160.952064981687,-584.858931589858 180.544134950675,-550.924470978113 " style="fill: rgb(14,173,105); fill-opacity: 1; stroke: rgb(0,0,0); stroke-width: 3" />
	<polygon points="308.195031050557,-612.241786311288 296.086465899753,-649.508117934733 269.867158583399,-620.388627099034 " style="fill: rgb(14,173,105); fill-opacity: 1; stroke: rgb(0,0,0); stroke-width: 3" />
	<polygon points="511.592764782468,-444.764694087535 473.264892315309,-436.617853299788 499.484199631676,-407.498362464094 " style="fill: rgb(14,173,105); fill-opacity: 1; stroke: rgb(0,0,0); stroke-width: 3" />
	<polygon points="432.176866918305,-334.859279953796 405.957559601952,-305.739789118106 425.549629570942,-271.805328506363 463.877502038096,-279.952169294096 467.973359970279,-318.921654413594 " style="fill: rgb(14,173,105); fill-opacity: 1; stroke: rgb(0,0,0); stroke-width: 3" />
	<polygon points="193.501055722173,-413.585993720475 189.405197789991,-452.555478839977 157.704562670193,-429.523619260665 " style="fill: rgb(14,173,105); fill-opacity: 1; stroke: rgb(0,0,0); stroke-width: 3" />
	<polygon points="189.405197789991,-452.555478839977 166.373338210677,-484.256113959779 134.672703090884,-461.224254380473 157.704562670193,-429.523619260665 " style="fill: rgb(14,173,105); fill-opacity: 1; stroke: rgb(0,0,0); stroke-width: 3" />
	<polygon points="218.574453494609,-531.547055827602 214.478595562426,-570.516540947104 182.77796044263,-547.484681367781 " style="fill: rgb(14,173,105); fill-opacity: 1; stroke: rgb(0,0,0); stroke-width: 3" />
	<polygon points="437.468399263329,-452.555478839976 433.372541331146,-413.585993720475 469.169034383127,-429.523619260664 " style="fill: rgb(14,173,105); fill-opacity: 1; stroke: rgb(0,0,0); stroke-width: 3" />
	<polygon points="189.405197789991,-452.555478839977 208.997267758984,-486.489939451718 169.813127820992,-486.489939451709 " style="fill: rgb(14,173,105); fill-opacity: 1; stroke: rgb(0,0,0); stroke-width: 3" />
	<polygon points="208.997267758984,-486.489939451718 208.997267758984,-525.674079389708 169.813127821,-525.674079389704 169.813127820992,-486.489939451709 " style="fill: rgb(14,173,105); fill-opacity: 1; stroke: rgb(0,0,0); stroke-width: 3" />
	<polygon points="417.876329294336,-486.489939451717 437.468399263329,-452.555478839976 473.264892315309,-436.617853299788 511.592764782468,-444.764694087535 537.812072098824,-473.884184923231 541.907930031006,-512.853670042733 522.315860062012,-546.788130654473 486.519367010032,-562.725756194661 448.191494542872,-554.578915406915 421.972187226517,-525.459424571218 " style="fill: rgb(14,173,105); fill-opacity: 1; stroke: rgb(0,0,0); stroke-width: 3" />
	<polygon points="208.997267758984,-486.489939451718 244.793760810964,-502.427564991907 213.093125691166,-525.45942457122 " style="fill: rgb(14,173,105); fill-opacity: 1; stroke: rgb(0,0,0); stroke-width: 3" />
	<polygon points="382.079836242356,-502.427564991906 417.876329294336,-486.489939451717 413.780471362154,-525.459424571219 " style="fill: rgb(14,173,105); fill-opacity: 1; stroke: rgb(0,0,0); stroke-width: 3" />
	<polygon points="318.918126330102,-510.21834974435 338.510196299095,-544.152810356091 334.414338366912,-583.122295475592 308.195031050557,-612.241786311288 269.867158583399,-620.388627099034 234.070665531419,-604.451001558845 214.478595562426,-570.516540947104 218.574453494609,-531.547055827602 244.793760810964,-502.427564991907 283.121633278123,-494.28072420416 " style="fill: rgb(14,173,105); fill-opacity: 1; stroke: rgb(0,0,0); stroke-width: 3" />
	<polygon points="309.340940594478,-465.161233368464 321.449505745281,-502.427564991907 283.121633278123,-494.28072420416 " style="fill: rgb(14,173,105); fill-opacity: 1; stroke: rgb(0,0,0); stroke-width: 3" />
	<polygon points="293.844728557667,-392.257287637221 313.43679852666,-426.191748248962 309.340940594478,-465.161233368464 283.121633278123,-494.28072420416 244.793760810964,-502.427564991907 208.997267758984,-486.489939451718 189.405197789991,-452.555478839977 193.501055722173,-413.585993720475 219.720363038528,-384.466502884779 258.048235505687,-376.319662097032 " style="fill: rgb(14,173,105); fill-opacity: 1; stroke: rgb(0,0,0); stroke-width: 3" />
	<polygon points="313.43679852666,-426.191748248962 333.028868495653,-392.257287637221 368.825361547632,-376.319662097032 407.153234014791,-384.466502884779 433.372541331146,-413.585993720475 437.468399263329,-452.555478839976 417.876329294336,-486.489939451717 382.079836242356,-502.427564991906 343.751963775197,-494.28072420416 317.532656458842,-465.161233368463 " style="fill: rgb(14,173,105); fill-opacity: 1; stroke: rgb(0,0,0); stroke-width: 3" />
	<circle cx="293.844728557667" cy="-392.257287637221" r="2" style="fill: rgb(0,0,0)" />
	<circle cx="333.028868495653" cy="-392.257287637221" r="2" style="fill: rgb(0,0,0)" />
	<circle cx="313.43679852666" cy="-426.191748248962" r="2" style="fill: rgb(0,0,0)" />
	<circle cx="262.14409343787" cy="-369.225428057909" r="2" style="fill: rgb(0,0,0)" />
	<circle cx="250.035528287066" cy="-331.959096434466" r="2" style="fill: rgb(0,0,0)" />
	<circle cx="262.144093437869" cy="-294.692764811023" r="2" style="fill: rgb(0,0,0)" />
	<circle cx="293.844728557666" cy="-271.66090523171" r="2" style="fill: rgb(0,0,0)" />
	<circle cx="333.028868495652" cy="-271.66090523171" r="2" style="fill: rgb(0,0,0)" />
	<circle cx="364.729503615449" cy="-294.692764811023" r="2" style="fill: rgb(0,0,0)" />
	<circle cx="376.838068766253" cy="-331.959096434466" r="2" style="fill: rgb(0,0,0)" />
	<circle cx="364.729503615449" cy="-369.225428057909" r="2" style="fill: rgb(0,0,0)" />
	<circle cx="309.340940594478" cy="-465.161233368464" r="2" style="fill: rgb(0,0,0)" />
	<circle cx="283.121633278123" cy="-494.28072420416" r="2" style="fill: rgb(0,0,0)" />
	<circle cx="244.793760810964" cy="-502.427564991907" r="2" style="fill: rgb(0,0,0)" />
	<circle cx="208.997267758984" cy="-486.489939451718" r="2" style="fill: rgb(0,0,0)" />
	<circle cx="189.405197789991" cy="-452.555478839977" r="2" style="fill: rgb(0,0,0)" />
	<circle cx="193.501055722173" cy="-413.585993720475" r="2" style="fill: rgb(0,0,0)" />
	<circle cx="219.720363038528" cy="-384.466502884779" r="2" style="fill: rgb(0,0,0)" />
	<circle cx="258.048235505687" cy="-376.319662097032" r="2" style="fill: rgb(0,0,0)" />
	<circle cx="368.825361547632" cy="-376.319662097032" r="2" style="fill: rgb(0,0,0)" />
	<circle cx="407.153234014791" cy="-384.466502884779" r="2" style="fill: rgb(0,0,0)" />
	<circle cx="433.372541331146" cy="-413.585993720475" r="2" style="fill: rgb(0,0,0)" />
	<circle cx="437.468399263329" cy="-452.555478839976" r="2" style="fill: rgb(0,0,0)" />
	<circle cx="417.876329294336" cy="-486.489939451717" r="2" style="fill: rgb(0,0,0)" />
	<circle cx="382.079836242356" cy="-502.427564991906" r="2" style="fill: rgb(0,0,0)" />
	<circle cx="343.751963775197" cy="-494.28072420416" r="2" style="fill: rgb(0,0,0)" />
	<circle cx="317.532656458842" cy="-465.161233368463" r="2" style="fill: rgb(0,0,0)" />
	<circle cx="403.057376082609" cy="-361.078587270162" r="2" style="fill: rgb(0,0,0)" />
	<circle cx="223.81622097071" cy="-361.078587270162" r="2" style="fill: rgb(0,0,0)" />
	<circle cx="218.334893167269" cy="-354.990956013778" r="2" style="fill: rgb(0,0,0)" />
	<circle cx="179.150753229282" cy="-354.990956013778" r="2" style="fill: rgb(0,0,0)" />
	<circle cx="147.450118109485" cy="-331.959096434466" r="2" style="fill: rgb(0,0,0)" />
	<circle cx="135.341552958681" cy="-294.692764811023" r="2" style="fill: rgb(0,0,0)" />
	<circle cx="147.450118109485" cy="-257.426433187581" r="2" style="fill: rgb(0,0,0)" />
	<circle cx="179.150753229282" cy="-234.394573608268" r="2" style="fill: rgb(0,0,0)" />
	<circle cx="218.334893167269" cy="-234.394573608268" r="2" style="fill: rgb(0,0,0)" />
	<circle cx="250.035528287066" cy="-257.42643318758" r="2" style="fill: rgb(0,0,0)" />
	<circle cx="403.057376082612" cy="-302.83960559878" r="2" style="fill: rgb(0,0,0)" />
	<circle cx="368.825361547632" cy="-255.723279691521" r="2" style="fill: rgb(0,0,0)" />
	<circle cx="258.048235505687" cy="-255.72327969152" r="2" style="fill: rgb(0,0,0)" />
	<circle cx="262.144093437869" cy="-248.629045652397" r="2" style="fill: rgb(0,0,0)" />
	<circle cx="250.035528287065" cy="-211.362714028953" r="2" style="fill: rgb(0,0,0)" />
	<circle cx="262.144093437869" cy="-174.096382405511" r="2" style="fill: rgb(0,0,0)" />
	<circle cx="293.844728557666" cy="-151.064522826198" r="2" style="fill: rgb(0,0,0)" />
	<circle cx="333.028868495652" cy="-151.064522826199" r="2" style="fill: rgb(0,0,0)" />
	<circle cx="364.729503615449" cy="-174.096382405513" r="2" style="fill: rgb(0,0,0)" />
	<circle cx="376.838068766253" cy="-211.362714028956" r="2" style="fill: rgb(0,0,0)" />
	<circle cx="364.729503615449" cy="-248.629045652398" r="2" style="fill: rgb(0,0,0)" />
	<circle cx="157.704562670193" cy="-429.523619260665" r="2" style="fill: rgb(0,0,0)" />
	<circle cx="169.813127820992" cy="-486.489939451709" r="2" style="fill: rgb(0,0,0)" />
	<circle cx="213.093125691166" cy="-525.45942457122" r="2" style="fill: rgb(0,0,0)" />
	<circle cx="318.918126330102" cy="-510.21834974435" r="2" style="fill: rgb(0,0,0)" />
	<circle cx="338.510196299095" cy="-544.152810356091" r="2" style="fill: rgb(0,0,0)" />
	<circle cx="334.414338366912" cy="-583.122295475592" r="2" style="fill: rgb(0,0,0)" />
	<circle cx="308.195031050557" cy="-612.241786311288" r="2" style="fill: rgb(0,0,0)" />
	<circle cx="269.867158583399" cy="-620.388627099034" r="2" style="fill: rgb(0,0,0)" />
	<circle cx="234.070665531419" cy="-604.451001558845" r="2" style="fill: rgb(0,0,0)" />
	<circle cx="214.478595562426" cy="-570.516540947104" r="2" style="fill: rgb(0,0,0)" />
	<circle cx="218.574453494609" cy="-531.547055827602" r="2" style="fill: rgb(0,0,0)" />
	<circle cx="321.449505745281" cy="-502.427564991907" r="2" style="fill: rgb(0,0,0)" />
	<circle cx="445.481106481958" cy="-376.31966209704" r="2" style="fill: rgb(0,0,0)" />
	<circle cx="469.169034383127" cy="-429.523619260664" r="2" style="fill: rgb(0,0,0)" />
	<circle cx="473.264892315309" cy="-436.617853299788" r="2" style="fill: rgb(0,0,0)" />
	<circle cx="511.592764782468" cy="-444.764694087535" r="2" style="fill: rgb(0,0,0)" />
	<circle cx="537.812072098824" cy="-473.884184923231" r="2" style="fill: rgb(0,0,0)" />
	<circle cx="541.907930031006" cy="-512.853670042733" r="2" style="fill: rgb(0,0,0)" />
	<circle cx="522.315860062012" cy="-546.788130654473" r="2" style="fill: rgb(0,0,0)" />
	<circle cx="486.519367010032" cy="-562.725756194661" r="2" style="fill: rgb(0,0,0)" />
	<circle cx="448.191494542872" cy="-554.578915406915" r="2" style="fill: rgb(0,0,0)" />
	<circle cx="421.972187226517" cy="-525.459424571218" r="2" style="fill: rgb(0,0,0)" />
	<circle cx="413.780471362154" cy="-525.459424571219" r="2" style="fill: rgb(0,0,0)" />
	<circle cx="405.957559601952" cy="-305.739789118106" r="2" style="fill: rgb(0,0,0)" />
	<circle cx="432.176866918305" cy="-334.859279953796" r="2" style="fill: rgb(0,0,0)" />
	<circle cx="109.122245642322" cy="-323.812255646708" r="2" style="fill: rgb(0,0,0)" />
	<circle cx="109.122245642325" cy="-265.573273975325" r="2" style="fill: rgb(0,0,0)" />
	<circle cx="198.742823198275" cy="-200.460112996526" r="2" style="fill: rgb(0,0,0)" />
	<circle cx="108.265978171499" cy="-257.42643318758" r="2" style="fill: rgb(0,0,0)" />
	<circle cx="76.5653430517013" cy="-234.394573608266" r="2" style="fill: rgb(0,0,0)" />
	<circle cx="64.4567779008977" cy="-197.128241984823" r="2" style="fill: rgb(0,0,0)" />
	<circle cx="76.5653430517022" cy="-159.861910361381" r="2" style="fill: rgb(0,0,0)" />
	<circle cx="108.2659781715" cy="-136.830050782069" r="2" style="fill: rgb(0,0,0)" />
	<circle cx="147.450118109487" cy="-136.83005078207" r="2" style="fill: rgb(0,0,0)" />
	<circle cx="179.150753229284" cy="-159.861910361383" r="2" style="fill: rgb(0,0,0)" />
	<circle cx="191.259318380088" cy="-197.128241984826" r="2" style="fill: rgb(0,0,0)" />
	<circle cx="372.876344403205" cy="-256.364892343861" r="2" style="fill: rgb(0,0,0)" />
	<circle cx="411.204216870362" cy="-264.511733131612" r="2" style="fill: rgb(0,0,0)" />
	<circle cx="403.057376082605" cy="-240.482204864661" r="2" style="fill: rgb(0,0,0)" />
	<circle cx="403.057376082608" cy="-182.243223193258" r="2" style="fill: rgb(0,0,0)" />
	<circle cx="313.436798526659" cy="-117.130062214456" r="2" style="fill: rgb(0,0,0)" />
	<circle cx="320.92030334485" cy="-113.798191202754" r="2" style="fill: rgb(0,0,0)" />
	<circle cx="333.028868495655" cy="-76.5318595793112" r="2" style="fill: rgb(0,0,0)" />
	<circle cx="364.729503615454" cy="-53.5" r="2" style="fill: rgb(0,0,0)" />
	<circle cx="403.913643553442" cy="-53.5000000000026" r="2" style="fill: rgb(0,0,0)" />
	<circle cx="435.614278673238" cy="-76.5318595793183" r="2" style="fill: rgb(0,0,0)" />
	<circle cx="447.722843824041" cy="-113.798191202762" r="2" style="fill: rgb(0,0,0)" />
	<circle cx="435.614278673235" cy="-151.064522826206" r="2" style="fill: rgb(0,0,0)" />
	<circle cx="403.913643553436" cy="-174.096382405517" r="2" style="fill: rgb(0,0,0)" />
	<circle cx="166.373338210677" cy="-484.256113959779" r="2" style="fill: rgb(0,0,0)" />
	<circle cx="134.672703090884" cy="-461.224254380473" r="2" style="fill: rgb(0,0,0)" />
	<circle cx="208.997267758984" cy="-525.674079389708" r="2" style="fill: rgb(0,0,0)" />
	<circle cx="169.813127821" cy="-525.674079389704" r="2" style="fill: rgb(0,0,0)" />
	<circle cx="289.459228552391" cy="-654.323087710776" r="2" style="fill: rgb(0,0,0)" />
	<circle cx="285.363370620208" cy="-693.292572830278" r="2" style="fill: rgb(0,0,0)" />
	<circle cx="259.144063303853" cy="-722.412063665975" r="2" style="fill: rgb(0,0,0)" />
	<circle cx="220.816190836694" cy="-730.55890445372" r="2" style="fill: rgb(0,0,0)" />
	<circle cx="185.019697784715" cy="-714.62127891353" r="2" style="fill: rgb(0,0,0)" />
	<circle cx="165.427627815722" cy="-680.686818301788" r="2" style="fill: rgb(0,0,0)" />
	<circle cx="169.523485747905" cy="-641.717333182286" r="2" style="fill: rgb(0,0,0)" />
	<circle cx="195.74279306426" cy="-612.597842346589" r="2" style="fill: rgb(0,0,0)" />
	<circle cx="194.886525593433" cy="-604.451001558846" r="2" style="fill: rgb(0,0,0)" />
	<circle cx="296.086465899753" cy="-649.508117934733" r="2" style="fill: rgb(0,0,0)" />
	<circle cx="182.77796044263" cy="-547.484681367781" r="2" style="fill: rgb(0,0,0)" />
	<circle cx="482.747438105405" cy="-388.428227247851" r="2" style="fill: rgb(0,0,0)" />
	<circle cx="470.638872954604" cy="-425.694558871278" r="2" style="fill: rgb(0,0,0)" />
	<circle cx="561.5" cy="-546.788130654474" r="2" style="fill: rgb(0,0,0)" />
	<circle cx="549.920637249629" cy="-436.617853299788" r="2" style="fill: rgb(0,0,0)" />
	<circle cx="499.484199631676" cy="-407.498362464094" r="2" style="fill: rgb(0,0,0)" />
	<circle cx="425.549629570942" cy="-271.805328506363" r="2" style="fill: rgb(0,0,0)" />
	<circle cx="463.877502038096" cy="-279.952169294096" r="2" style="fill: rgb(0,0,0)" />
	<circle cx="467.973359970279" cy="-318.921654413594" r="2" style="fill: rgb(0,0,0)" />
	<circle cx="80.0027548066241" cy="-297.592948330344" r="2" style="fill: rgb(0,0,0)" />
	<circle cx="106.222062122972" cy="-268.473457494662" r="2" style="fill: rgb(0,0,0)" />
	<circle cx="72.4694851195086" cy="-273.364058727761" r="2" style="fill: rgb(0,0,0)" />
	<circle cx="72.4694851195195" cy="-120.892425241877" r="2" style="fill: rgb(0,0,0)" />
	<circle cx="38.2374705845408" cy="-226.247732820518" r="2" style="fill: rgb(0,0,0)" />
	<circle cx="405.957559601957" cy="-185.1434067126" r="2" style="fill: rgb(0,0,0)" />
	<circle cx="432.176866918308" cy="-214.2628975483" r="2" style="fill: rgb(0,0,0)" />
	<circle cx="439.710136605405" cy="-190.034007945714" r="2" style="fill: rgb(0,0,0)" />
	<circle cx="154.264773059876" cy="-521.522445583224" r="2" style="fill: rgb(0,0,0)" />
	<circle cx="115.080633121898" cy="-521.522445583237" r="2" style="fill: rgb(0,0,0)" />
	<circle cx="102.972067971095" cy="-484.256113959797" r="2" style="fill: rgb(0,0,0)" />
	<circle cx="157.414920597108" cy="-604.451001558836" r="2" style="fill: rgb(0,0,0)" />
	<circle cx="160.952064981687" cy="-584.858931589858" r="2" style="fill: rgb(0,0,0)" />
	<circle cx="180.544134950675" cy="-550.924470978113" r="2" style="fill: rgb(0,0,0)" />
	<circle cx="503.445923994725" cy="-406.436821620375" r="2" style="fill: rgb(0,0,0)" />
	<circle cx="541.773796461872" cy="-398.289980832623" r="2" style="fill: rgb(0,0,0)" />
	<circle cx="33.5" cy="-269.268200795569" r="2" style="fill: rgb(0,0,0)" />
	<circle cx="37.5958579321859" cy="-230.298715676089" r="2" style="fill: rgb(0,0,0)" />
	<!-- 
	Generated using the Perl SVG Module V2.64
	by Ronan Oger
	Info: http://www.roitsystems.com/
 -->
</svg>