<?xml version="1.0" encoding="UTF-8" standalone="yes"?>
<!DOCTYPE svg PUBLIC "-//W3C//DTD SVG 1.0//EN" "http://www.w3.org/TR/2001/REC-SVG-20010904/DTD/svg10.dtd">
<!-- generated using polymake; Michael Joswig, Georg Loho, Benjamin Lorenz, Rico Raber; license CC BY-NC-ND 3.0; see polymake.org and matchthenet.de -->
<svg height="841pt" id="document" viewBox="0 -480.798406790476 572 480.798406790476" width="595pt" xmlns="http://www.w3.org/2000/svg" xmlns:svg="http://www.w3.org/2000/svg" xmlns:xlink="http://www.w3.org/1999/xlink">
	<title id="document_title">planar_net_</title>
	<polygon points="231.56713030148,-248.89948807688 324.654199913098,-248.89948807688 344.265149122342,-302.613591703541 294.658555844204,-331.056253060177 223.469446489286,-271.07864125689 " style="fill: rgb(255,210,63); fill-opacity: 1; stroke: rgb(0,0,0); stroke-width: 3" />
	<polygon points="332.752161266921,-226.719493613546 324.654199913098,-248.89948807688 231.56713030148,-248.89948807688 211.956031467435,-195.184586801528 261.56272708666,-166.741873364709 " style="fill: rgb(255,210,63); fill-opacity: 1; stroke: rgb(0,0,0); stroke-width: 3" />
	<polygon points="231.56713030148,-248.89948807688 223.469446489286,-271.07864125689 166.856836801938,-279.134149510284 127.46796909607,-223.460469786195 193.46247836638,-206.262399557554 " style="fill: rgb(255,210,63); fill-opacity: 1; stroke: rgb(0,0,0); stroke-width: 3" />
	<polygon points="223.469446489286,-271.07864125689 294.658555844204,-331.056253060177 286.560795733612,-353.235689056835 193.473231815254,-353.235774451805 173.862287110373,-299.521716463125 " style="fill: rgb(255,210,63); fill-opacity: 1; stroke: rgb(0,0,0); stroke-width: 3" />
	<polygon points="344.265149122342,-302.613591703541 324.654199913098,-248.89948807688 340.388514773977,-231.293793874706 395.959961528291,-244.770575492199 411.937410911417,-311.071216615696 " style="fill: rgb(255,210,63); fill-opacity: 1; stroke: rgb(0,0,0); stroke-width: 3" />
	<polygon points="211.956031467435,-195.184586801528 154.753815365091,-158.050298786281 209.691214747931,-117.640980368838 260.873441723012,-143.140241314939 261.56272708666,-166.741873364709 " style="fill: rgb(255,210,63); fill-opacity: 1; stroke: rgb(0,0,0); stroke-width: 3" />
	<polygon points="294.658555844204,-331.056253060177 344.265149122342,-302.613591703541 401.467470997373,-339.747938474621 346.530400760639,-380.157073623363 295.347838398019,-354.657653394357 " style="fill: rgb(255,210,63); fill-opacity: 1; stroke: rgb(0,0,0); stroke-width: 3" />
	<polygon points="382.358810837807,-198.276750154368 332.752161266921,-226.719493613546 261.56272708666,-166.741873364709 269.660589229341,-144.562225521617 362.747873412515,-144.562428495294 " style="fill: rgb(255,210,63); fill-opacity: 1; stroke: rgb(0,0,0); stroke-width: 3" />
	<polygon points="166.856836801938,-279.134149510284 140.417751163219,-329.836850902003 116.807119398579,-330.090584186599 89.2846114198221,-279.96770331289 127.46796909607,-223.460469786195 " style="fill: rgb(255,210,63); fill-opacity: 1; stroke: rgb(0,0,0); stroke-width: 3" />
	<polygon points="286.560795733612,-353.235689056835 306.172001800068,-406.950444875285 256.564897438426,-435.393388467504 185.375328516093,-375.415726547711 193.473231815254,-353.235774451805 " style="fill: rgb(255,210,63); fill-opacity: 1; stroke: rgb(0,0,0); stroke-width: 3" />
	<polygon points="154.753815365091,-158.050298786281 136.341008076227,-92.3844418131571 178.267148503384,-53.5 200.592679201228,-61.1872965663811 209.691214747931,-117.640980368838 " style="fill: rgb(255,210,63); fill-opacity: 1; stroke: rgb(0,0,0); stroke-width: 3" />
	<polygon points="411.937410911417,-311.071216615696 395.959961528291,-244.770575492199 439.292381239453,-207.459469639253 461.318795488177,-215.965172690607 468.328245146656,-272.716380949239 " style="fill: rgb(255,210,63); fill-opacity: 1; stroke: rgb(0,0,0); stroke-width: 3" />
	<polygon points="328.441130250845,-79.1101706945746 260.873441723012,-143.140241314939 209.691214747931,-117.640980368838 226.133953226673,-62.8738509928584 319.0626999908,-57.4409593726593 " style="fill: rgb(255,210,63); fill-opacity: 1; stroke: rgb(0,0,0); stroke-width: 3" />
	<polygon points="346.530400760639,-380.157073623363 401.467470997373,-339.747938474621 419.880312249222,-405.413644173424 377.953823947468,-444.298406790476 355.628967538264,-436.611332160229 " style="fill: rgb(255,210,63); fill-opacity: 1; stroke: rgb(0,0,0); stroke-width: 3" />
	<polygon points="55.5260252501839,-400.161278146221 33.5,-391.655718245629 35.2177440845314,-298.584230411481 89.2846114198221,-279.96770331289 116.807119398579,-330.090584186599 " style="fill: rgb(255,210,63); fill-opacity: 1; stroke: rgb(0,0,0); stroke-width: 3" />
	<polygon points="468.328245146656,-272.716380949239 461.318795488177,-215.965172690607 544.187710927832,-173.562211233124 561.5,-189.61862826285 525.445978147222,-275.440306056346 " style="fill: rgb(255,210,63); fill-opacity: 1; stroke: rgb(0,0,0); stroke-width: 3" />
	<circle cx="231.56713030148" cy="-248.89948807688" r="2" style="fill: rgb(0,0,0)" />
	<circle cx="324.654199913098" cy="-248.89948807688" r="2" style="fill: rgb(0,0,0)" />
	<circle cx="344.265149122342" cy="-302.613591703541" r="2" style="fill: rgb(0,0,0)" />
	<circle cx="294.658555844204" cy="-331.056253060177" r="2" style="fill: rgb(0,0,0)" />
	<circle cx="223.469446489286" cy="-271.07864125689" r="2" style="fill: rgb(0,0,0)" />
	<circle cx="211.956031467435" cy="-195.184586801528" r="2" style="fill: rgb(0,0,0)" />
	<circle cx="261.56272708666" cy="-166.741873364709" r="2" style="fill: rgb(0,0,0)" />
	<circle cx="332.752161266921" cy="-226.719493613546" r="2" style="fill: rgb(0,0,0)" />
	<circle cx="166.856836801938" cy="-279.134149510284" r="2" style="fill: rgb(0,0,0)" />
	<circle cx="127.46796909607" cy="-223.460469786195" r="2" style="fill: rgb(0,0,0)" />
	<circle cx="193.46247836638" cy="-206.262399557554" r="2" style="fill: rgb(0,0,0)" />
	<circle cx="286.560795733612" cy="-353.235689056835" r="2" style="fill: rgb(0,0,0)" />
	<circle cx="193.473231815254" cy="-353.235774451805" r="2" style="fill: rgb(0,0,0)" />
	<circle cx="173.862287110373" cy="-299.521716463125" r="2" style="fill: rgb(0,0,0)" />
	<circle cx="340.388514773977" cy="-231.293793874706" r="2" style="fill: rgb(0,0,0)" />
	<circle cx="395.959961528291" cy="-244.770575492199" r="2" style="fill: rgb(0,0,0)" />
	<circle cx="411.937410911417" cy="-311.071216615696" r="2" style="fill: rgb(0,0,0)" />
	<circle cx="401.467470997373" cy="-339.747938474621" r="2" style="fill: rgb(0,0,0)" />
	<circle cx="346.530400760639" cy="-380.157073623363" r="2" style="fill: rgb(0,0,0)" />
	<circle cx="295.347838398019" cy="-354.657653394357" r="2" style="fill: rgb(0,0,0)" />
	<circle cx="154.753815365091" cy="-158.050298786281" r="2" style="fill: rgb(0,0,0)" />
	<circle cx="209.691214747931" cy="-117.640980368838" r="2" style="fill: rgb(0,0,0)" />
	<circle cx="260.873441723012" cy="-143.140241314939" r="2" style="fill: rgb(0,0,0)" />
	<circle cx="269.660589229341" cy="-144.562225521617" r="2" style="fill: rgb(0,0,0)" />
	<circle cx="362.747873412515" cy="-144.562428495294" r="2" style="fill: rgb(0,0,0)" />
	<circle cx="382.358810837807" cy="-198.276750154368" r="2" style="fill: rgb(0,0,0)" />
	<circle cx="140.417751163219" cy="-329.836850902003" r="2" style="fill: rgb(0,0,0)" />
	<circle cx="116.807119398579" cy="-330.090584186599" r="2" style="fill: rgb(0,0,0)" />
	<circle cx="89.2846114198221" cy="-279.96770331289" r="2" style="fill: rgb(0,0,0)" />
	<circle cx="306.172001800068" cy="-406.950444875285" r="2" style="fill: rgb(0,0,0)" />
	<circle cx="256.564897438426" cy="-435.393388467504" r="2" style="fill: rgb(0,0,0)" />
	<circle cx="185.375328516093" cy="-375.415726547711" r="2" style="fill: rgb(0,0,0)" />
	<circle cx="439.292381239453" cy="-207.459469639253" r="2" style="fill: rgb(0,0,0)" />
	<circle cx="461.318795488177" cy="-215.965172690607" r="2" style="fill: rgb(0,0,0)" />
	<circle cx="468.328245146656" cy="-272.716380949239" r="2" style="fill: rgb(0,0,0)" />
	<circle cx="419.880312249222" cy="-405.413644173424" r="2" style="fill: rgb(0,0,0)" />
	<circle cx="377.953823947468" cy="-444.298406790476" r="2" style="fill: rgb(0,0,0)" />
	<circle cx="355.628967538264" cy="-436.611332160229" r="2" style="fill: rgb(0,0,0)" />
	<circle cx="136.341008076227" cy="-92.3844418131571" r="2" style="fill: rgb(0,0,0)" />
	<circle cx="178.267148503384" cy="-53.5" r="2" style="fill: rgb(0,0,0)" />
	<circle cx="200.592679201228" cy="-61.1872965663811" r="2" style="fill: rgb(0,0,0)" />
	<circle cx="226.133953226673" cy="-62.8738509928584" r="2" style="fill: rgb(0,0,0)" />
	<circle cx="319.0626999908" cy="-57.4409593726593" r="2" style="fill: rgb(0,0,0)" />
	<circle cx="328.441130250845" cy="-79.1101706945746" r="2" style="fill: rgb(0,0,0)" />
	<circle cx="55.5260252501839" cy="-400.161278146221" r="2" style="fill: rgb(0,0,0)" />
	<circle cx="33.5" cy="-391.655718245629" r="2" style="fill: rgb(0,0,0)" />
	<circle cx="35.2177440845314" cy="-298.584230411481" r="2" style="fill: rgb(0,0,0)" />
	<circle cx="544.187710927832" cy="-173.562211233124" r="2" style="fill: rgb(0,0,0)" />
	<circle cx="561.5" cy="-189.61862826285" r="2" style="fill: rgb(0,0,0)" />
	<circle cx="525.445978147222" cy="-275.440306056346" r="2" style="fill: rgb(0,0,0)" />
	<!--
	Generated using the Perl SVG Module V2.87
	by Ronan Oger

	-->
</svg>