<?xml version="1.0" encoding="UTF-8" standalone="yes"?>
<!DOCTYPE svg PUBLIC "-//W3C//DTD SVG 1.0//EN" "http://www.w3.org/TR/2001/REC-SVG-20010904/DTD/svg10.dtd">
<!-- generated using polymake; Michael Joswig, Georg Loho, Benjamin Lorenz, Rico Raber; license CC BY-NC-SA 3.0; see polymake.org and matchthenet.de -->
<svg height="841pt" id="document" viewBox="0 -773.554840785675 572 773.554840785675" width="595pt" xmlns="http://www.w3.org/2000/svg" xmlns:svg="http://www.w3.org/2000/svg" xmlns:xlink="http://www.w3.org/1999/xlink">
	<title id="document_title">planar_net_</title>
	<polygon points="269.798410058717,-364.050543005079 396.4303463547,-364.050543005079 396.430346354707,-490.682479301068 269.798410058732,-490.682479301077 " style="fill: rgb(67,184,206); fill-opacity: 1; stroke: rgb(0,0,0); stroke-width: 3" />
	<polygon points="269.798410058717,-364.050543005079 230.666989712654,-243.61641481971 333.11437820671,-169.184030195691 435.561766700764,-243.616414819713 396.4303463547,-364.050543005079 " style="fill: rgb(255,210,63); fill-opacity: 1; stroke: rgb(0,0,0); stroke-width: 3" />
	<polygon points="269.798410058717,-364.050543005079 269.798410058732,-490.682479301077 143.166473762745,-490.682479301096 143.166473762725,-364.050543005103 " style="fill: rgb(67,184,206); fill-opacity: 1; stroke: rgb(0,0,0); stroke-width: 3" />
	<polygon points="407.546762830737,-66.7366417016221 509.994151324783,-141.169026325644 435.561766700764,-243.616414819713 333.11437820671,-169.184030195691 " style="fill: rgb(67,184,206); fill-opacity: 1; stroke: rgb(0,0,0); stroke-width: 3" />
	<polygon points="143.166473762725,-364.050543005103 143.166473762745,-490.682479301096 33.5,-427.366511153111 " style="fill: rgb(14,173,105); fill-opacity: 1; stroke: rgb(0,0,0); stroke-width: 3" />
	<polygon points="230.666989712654,-243.61641481971 217.430348011036,-117.678181520466 333.11437820671,-169.184030195691 " style="fill: rgb(14,173,105); fill-opacity: 1; stroke: rgb(0,0,0); stroke-width: 3" />
	<polygon points="407.546762830737,-66.7366417016221 333.11437820671,-169.184030195691 281.608529531499,-53.5 " style="fill: rgb(14,173,105); fill-opacity: 1; stroke: rgb(0,0,0); stroke-width: 3" />
	<polygon points="230.66698971267,-611.116607486447 333.114378206725,-685.548992110466 217.430348011033,-737.054840785675 " style="fill: rgb(14,173,105); fill-opacity: 1; stroke: rgb(0,0,0); stroke-width: 3" />
	<polygon points="269.798410058732,-490.682479301077 396.430346354707,-490.682479301068 435.561766700775,-611.11660748644 333.114378206725,-685.548992110466 230.66698971267,-611.116607486447 " style="fill: rgb(255,210,63); fill-opacity: 1; stroke: rgb(0,0,0); stroke-width: 3" />
	<polygon points="561.5,-256.853056521333 435.561766700764,-243.616414819713 509.994151324783,-141.169026325644 " style="fill: rgb(14,173,105); fill-opacity: 1; stroke: rgb(0,0,0); stroke-width: 3" />
	<polygon points="396.430346354707,-490.682479301068 520.295071018904,-517.010739287902 435.561766700775,-611.11660748644 " style="fill: rgb(14,173,105); fill-opacity: 1; stroke: rgb(0,0,0); stroke-width: 3" />
	<polygon points="520.295071018887,-337.722283018266 396.4303463547,-364.050543005079 435.561766700764,-243.616414819713 " style="fill: rgb(14,173,105); fill-opacity: 1; stroke: rgb(0,0,0); stroke-width: 3" />
	<polygon points="396.430346354707,-490.682479301068 396.4303463547,-364.050543005079 506.096820117438,-427.366511153076 " style="fill: rgb(14,173,105); fill-opacity: 1; stroke: rgb(0,0,0); stroke-width: 3" />
	<circle cx="269.798410058717" cy="-364.050543005079" r="2" style="fill: rgb(0,0,0)" />
	<circle cx="396.4303463547" cy="-364.050543005079" r="2" style="fill: rgb(0,0,0)" />
	<circle cx="396.430346354707" cy="-490.682479301068" r="2" style="fill: rgb(0,0,0)" />
	<circle cx="269.798410058732" cy="-490.682479301077" r="2" style="fill: rgb(0,0,0)" />
	<circle cx="230.666989712654" cy="-243.61641481971" r="2" style="fill: rgb(0,0,0)" />
	<circle cx="333.11437820671" cy="-169.184030195691" r="2" style="fill: rgb(0,0,0)" />
	<circle cx="435.561766700764" cy="-243.616414819713" r="2" style="fill: rgb(0,0,0)" />
	<circle cx="143.166473762745" cy="-490.682479301096" r="2" style="fill: rgb(0,0,0)" />
	<circle cx="143.166473762725" cy="-364.050543005103" r="2" style="fill: rgb(0,0,0)" />
	<circle cx="435.561766700775" cy="-611.11660748644" r="2" style="fill: rgb(0,0,0)" />
	<circle cx="333.114378206725" cy="-685.548992110466" r="2" style="fill: rgb(0,0,0)" />
	<circle cx="230.66698971267" cy="-611.116607486447" r="2" style="fill: rgb(0,0,0)" />
	<circle cx="506.096820117438" cy="-427.366511153076" r="2" style="fill: rgb(0,0,0)" />
	<circle cx="407.546762830737" cy="-66.7366417016221" r="2" style="fill: rgb(0,0,0)" />
	<circle cx="509.994151324783" cy="-141.169026325644" r="2" style="fill: rgb(0,0,0)" />
	<circle cx="217.430348011036" cy="-117.678181520466" r="2" style="fill: rgb(0,0,0)" />
	<circle cx="520.295071018887" cy="-337.722283018266" r="2" style="fill: rgb(0,0,0)" />
	<circle cx="33.5" cy="-427.366511153111" r="2" style="fill: rgb(0,0,0)" />
	<circle cx="217.430348011033" cy="-737.054840785675" r="2" style="fill: rgb(0,0,0)" />
	<circle cx="520.295071018904" cy="-517.010739287902" r="2" style="fill: rgb(0,0,0)" />
	<circle cx="281.608529531499" cy="-53.5" r="2" style="fill: rgb(0,0,0)" />
	<circle cx="561.5" cy="-256.853056521333" r="2" style="fill: rgb(0,0,0)" />
	<!-- 
	Generated using the Perl SVG Module V2.64
	by Ronan Oger
	Info: http://www.roitsystems.com/
 -->
</svg>