<?xml version="1.0" encoding="UTF-8" standalone="yes"?>
<!DOCTYPE svg PUBLIC "-//W3C//DTD SVG 1.0//EN" "http://www.w3.org/TR/2001/REC-SVG-20010904/DTD/svg10.dtd">
<!-- generated using polymake; Michael Joswig, Georg Loho, Benjamin Lorenz, Rico Raber; license CC BY-NC-ND 3.0; see polymake.org and matchthenet.de -->
<svg height="841pt" id="document" viewBox="0 -563.107510106436 572 563.107510106436" width="595pt" xmlns="http://www.w3.org/2000/svg" xmlns:svg="http://www.w3.org/2000/svg" xmlns:xlink="http://www.w3.org/1999/xlink">
	<title id="document_title">planar_net_</title>
	<polygon points="253.069959574215,-266.853458976209 316.45434720727,-266.853458976209 316.454347207273,-330.237846609266 253.069959574223,-330.237846609272 " style="fill: rgb(61,81,50); fill-opacity: 1; stroke: rgb(0,0,0); stroke-width: 3" />
	<polygon points="284.762153390742,-211.960969082663 316.45434720727,-266.853458976209 253.069959574215,-266.853458976209 " style="fill: rgb(61,81,50); fill-opacity: 1; stroke: rgb(0,0,0); stroke-width: 3" />
	<polygon points="371.346837100819,-235.16126515967 316.45434720727,-266.853458976209 284.762153390742,-211.960969082663 339.65464328429,-180.268775266132 " style="fill: rgb(61,81,50); fill-opacity: 1; stroke: rgb(0,0,0); stroke-width: 3" />
	<polygon points="253.069959574223,-330.237846609272 284.762153390745,-385.130336502812 229.869663497197,-416.822530319342 198.177469680673,-361.930040425809 " style="fill: rgb(61,81,50); fill-opacity: 1; stroke: rgb(0,0,0); stroke-width: 3" />
	<polygon points="198.177469680673,-361.930040425809 229.869663497197,-416.822530319342 174.977173603652,-448.514724135877 143.284979787126,-393.62223424235 " style="fill: rgb(61,81,50); fill-opacity: 1; stroke: rgb(0,0,0); stroke-width: 3" />
	<polygon points="143.284979787114,-203.469071343159 88.3924898935582,-171.776877526642 120.084683710063,-116.884387633103 174.977173603625,-148.576581449618 " style="fill: rgb(61,81,50); fill-opacity: 1; stroke: rgb(0,0,0); stroke-width: 3" />
	<polygon points="339.65464328429,-180.268775266132 339.654643284288,-116.884387633074 403.039030917337,-116.884387633063 403.039030917345,-180.268775266126 " style="fill: rgb(61,81,50); fill-opacity: 1; stroke: rgb(0,0,0); stroke-width: 3" />
	<polygon points="316.454347207273,-330.237846609266 371.346837100822,-361.930040425794 339.654643284302,-416.822530319337 284.762153390745,-385.130336502812 " style="fill: rgb(61,81,50); fill-opacity: 1; stroke: rgb(0,0,0); stroke-width: 3" />
	<polygon points="284.762153390745,-385.130336502812 316.454347207276,-440.02282639636 261.561857313736,-471.71502021289 229.869663497197,-416.822530319342 " style="fill: rgb(61,81,50); fill-opacity: 1; stroke: rgb(0,0,0); stroke-width: 3" />
	<polygon points="229.869663497197,-416.822530319342 229.869663497203,-480.206917952397 174.977173603652,-448.514724135877 " style="fill: rgb(61,81,50); fill-opacity: 1; stroke: rgb(0,0,0); stroke-width: 3" />
	<polygon points="65.1921938164977,-85.1921938165926 120.084683710063,-116.884387633103 88.3924898935582,-171.776877526642 33.5,-140.084683710128 " style="fill: rgb(61,81,50); fill-opacity: 1; stroke: rgb(0,0,0); stroke-width: 3" />
	<polygon points="443.223122473399,-330.23784660924 443.223122473386,-266.853458976195 506.607510106445,-266.85345897618 506.607510106462,-330.237846609219 " style="fill: rgb(61,81,50); fill-opacity: 1; stroke: rgb(0,0,0); stroke-width: 3" />
	<polygon points="348.146541023812,-494.915316289905 293.25405113028,-526.607510106436 261.561857313736,-471.71502021289 316.454347207276,-440.02282639636 " style="fill: rgb(61,81,50); fill-opacity: 1; stroke: rgb(0,0,0); stroke-width: 3" />
	<polygon points="371.346837100822,-361.930040425794 403.039030917354,-416.822530319337 339.654643284302,-416.822530319337 " style="fill: rgb(61,81,50); fill-opacity: 1; stroke: rgb(0,0,0); stroke-width: 3" />
	<polygon points="506.607510106462,-330.237846609219 506.607510106445,-266.85345897618 561.5,-298.545652792693 " style="fill: rgb(61,81,50); fill-opacity: 1; stroke: rgb(0,0,0); stroke-width: 3" />
	<polygon points="379.838734840336,-330.237846609256 379.838734840328,-266.853458976204 443.223122473386,-266.853458976195 443.223122473399,-330.23784660924 " style="fill: rgb(61,81,50); fill-opacity: 1; stroke: rgb(0,0,0); stroke-width: 3" />
	<polygon points="371.346837100819,-235.16126515967 339.65464328429,-180.268775266132 403.039030917345,-180.268775266126 " style="fill: rgb(61,81,50); fill-opacity: 1; stroke: rgb(0,0,0); stroke-width: 3" />
	<polygon points="339.654643284288,-116.884387633074 339.654643284287,-53.5000000000152 403.039030917329,-53.5 403.039030917337,-116.884387633063 " style="fill: rgb(61,81,50); fill-opacity: 1; stroke: rgb(0,0,0); stroke-width: 3" />
	<polygon points="253.069959574223,-330.237846609272 316.454347207273,-330.237846609266 284.762153390745,-385.130336502812 " style="fill: rgb(61,81,50); fill-opacity: 1; stroke: rgb(0,0,0); stroke-width: 3" />
	<polygon points="316.454347207273,-330.237846609266 316.45434720727,-266.853458976209 379.838734840328,-266.853458976204 379.838734840336,-330.237846609256 " style="fill: rgb(61,81,50); fill-opacity: 1; stroke: rgb(0,0,0); stroke-width: 3" />
	<polygon points="307.962449467749,-125.376285372584 253.069959574211,-157.068479189116 253.069959574203,-93.6840915560608 " style="fill: rgb(61,81,50); fill-opacity: 1; stroke: rgb(0,0,0); stroke-width: 3" />
	<polygon points="339.65464328429,-180.268775266132 284.762153390742,-211.960969082663 253.069959574211,-157.068479189116 307.962449467749,-125.376285372584 " style="fill: rgb(61,81,50); fill-opacity: 1; stroke: rgb(0,0,0); stroke-width: 3" />
	<polygon points="189.685571941152,-266.853458976225 189.685571941165,-330.237846609282 134.793082047612,-298.545652792767 " style="fill: rgb(61,81,50); fill-opacity: 1; stroke: rgb(0,0,0); stroke-width: 3" />
	<polygon points="198.177469680666,-235.161265159682 143.284979787114,-203.469071343159 174.977173603625,-148.576581449618 229.869663497185,-180.268775266138 " style="fill: rgb(61,81,50); fill-opacity: 1; stroke: rgb(0,0,0); stroke-width: 3" />
	<polygon points="253.069959574215,-266.853458976209 253.069959574223,-330.237846609272 189.685571941165,-330.237846609282 189.685571941152,-266.853458976225 " style="fill: rgb(61,81,50); fill-opacity: 1; stroke: rgb(0,0,0); stroke-width: 3" />
	<polygon points="253.069959574215,-266.853458976209 198.177469680666,-235.161265159682 229.869663497185,-180.268775266138 284.762153390742,-211.960969082663 " style="fill: rgb(61,81,50); fill-opacity: 1; stroke: rgb(0,0,0); stroke-width: 3" />
	<circle cx="253.069959574215" cy="-266.853458976209" r="2" style="fill: rgb(0,0,0)" />
	<circle cx="316.45434720727" cy="-266.853458976209" r="2" style="fill: rgb(0,0,0)" />
	<circle cx="316.454347207273" cy="-330.237846609266" r="2" style="fill: rgb(0,0,0)" />
	<circle cx="253.069959574223" cy="-330.237846609272" r="2" style="fill: rgb(0,0,0)" />
	<circle cx="284.762153390742" cy="-211.960969082663" r="2" style="fill: rgb(0,0,0)" />
	<circle cx="284.762153390745" cy="-385.130336502812" r="2" style="fill: rgb(0,0,0)" />
	<circle cx="379.838734840328" cy="-266.853458976204" r="2" style="fill: rgb(0,0,0)" />
	<circle cx="379.838734840336" cy="-330.237846609256" r="2" style="fill: rgb(0,0,0)" />
	<circle cx="189.685571941165" cy="-330.237846609282" r="2" style="fill: rgb(0,0,0)" />
	<circle cx="189.685571941152" cy="-266.853458976225" r="2" style="fill: rgb(0,0,0)" />
	<circle cx="339.65464328429" cy="-180.268775266132" r="2" style="fill: rgb(0,0,0)" />
	<circle cx="371.346837100819" cy="-235.16126515967" r="2" style="fill: rgb(0,0,0)" />
	<circle cx="198.177469680666" cy="-235.161265159682" r="2" style="fill: rgb(0,0,0)" />
	<circle cx="229.869663497185" cy="-180.268775266138" r="2" style="fill: rgb(0,0,0)" />
	<circle cx="229.869663497197" cy="-416.822530319342" r="2" style="fill: rgb(0,0,0)" />
	<circle cx="198.177469680673" cy="-361.930040425809" r="2" style="fill: rgb(0,0,0)" />
	<circle cx="371.346837100822" cy="-361.930040425794" r="2" style="fill: rgb(0,0,0)" />
	<circle cx="339.654643284302" cy="-416.822530319337" r="2" style="fill: rgb(0,0,0)" />
	<circle cx="443.223122473386" cy="-266.853458976195" r="2" style="fill: rgb(0,0,0)" />
	<circle cx="443.223122473399" cy="-330.23784660924" r="2" style="fill: rgb(0,0,0)" />
	<circle cx="134.793082047612" cy="-298.545652792767" r="2" style="fill: rgb(0,0,0)" />
	<circle cx="403.039030917345" cy="-180.268775266126" r="2" style="fill: rgb(0,0,0)" />
	<circle cx="253.069959574211" cy="-157.068479189116" r="2" style="fill: rgb(0,0,0)" />
	<circle cx="307.962449467749" cy="-125.376285372584" r="2" style="fill: rgb(0,0,0)" />
	<circle cx="143.284979787114" cy="-203.469071343159" r="2" style="fill: rgb(0,0,0)" />
	<circle cx="174.977173603625" cy="-148.576581449618" r="2" style="fill: rgb(0,0,0)" />
	<circle cx="174.977173603652" cy="-448.514724135877" r="2" style="fill: rgb(0,0,0)" />
	<circle cx="143.284979787126" cy="-393.62223424235" r="2" style="fill: rgb(0,0,0)" />
	<circle cx="316.454347207276" cy="-440.02282639636" r="2" style="fill: rgb(0,0,0)" />
	<circle cx="261.561857313736" cy="-471.71502021289" r="2" style="fill: rgb(0,0,0)" />
	<circle cx="403.039030917354" cy="-416.822530319337" r="2" style="fill: rgb(0,0,0)" />
	<circle cx="506.607510106445" cy="-266.85345897618" r="2" style="fill: rgb(0,0,0)" />
	<circle cx="506.607510106462" cy="-330.237846609219" r="2" style="fill: rgb(0,0,0)" />
	<circle cx="339.654643284288" cy="-116.884387633074" r="2" style="fill: rgb(0,0,0)" />
	<circle cx="403.039030917337" cy="-116.884387633063" r="2" style="fill: rgb(0,0,0)" />
	<circle cx="253.069959574203" cy="-93.6840915560608" r="2" style="fill: rgb(0,0,0)" />
	<circle cx="88.3924898935582" cy="-171.776877526642" r="2" style="fill: rgb(0,0,0)" />
	<circle cx="120.084683710063" cy="-116.884387633103" r="2" style="fill: rgb(0,0,0)" />
	<circle cx="229.869663497203" cy="-480.206917952397" r="2" style="fill: rgb(0,0,0)" />
	<circle cx="348.146541023812" cy="-494.915316289905" r="2" style="fill: rgb(0,0,0)" />
	<circle cx="293.25405113028" cy="-526.607510106436" r="2" style="fill: rgb(0,0,0)" />
	<circle cx="561.5" cy="-298.545652792693" r="2" style="fill: rgb(0,0,0)" />
	<circle cx="339.654643284287" cy="-53.5000000000152" r="2" style="fill: rgb(0,0,0)" />
	<circle cx="403.039030917329" cy="-53.5" r="2" style="fill: rgb(0,0,0)" />
	<circle cx="33.5" cy="-140.084683710128" r="2" style="fill: rgb(0,0,0)" />
	<circle cx="65.1921938164977" cy="-85.1921938165926" r="2" style="fill: rgb(0,0,0)" />
	<!--
	Generated using the Perl SVG Module V2.84
	by Ronan Oger
	Info: http://www.roitsystems.com/
	-->
</svg>