<?xml version="1.0" encoding="UTF-8" standalone="yes"?>
<!DOCTYPE svg PUBLIC "-//W3C//DTD SVG 1.0//EN" "http://www.w3.org/TR/2001/REC-SVG-20010904/DTD/svg10.dtd">
<!-- generated using polymake; Michael Joswig, Georg Loho, Benjamin Lorenz, Rico Raber; license CC BY-NC-SA 3.0; see polymake.org and matchthenet.de -->
<svg height="841pt" id="document" viewBox="0 -728.252575817826 572 728.252575817826" width="595pt" xmlns="http://www.w3.org/2000/svg" xmlns:svg="http://www.w3.org/2000/svg" xmlns:xlink="http://www.w3.org/1999/xlink">
	<title id="document_title">planar_net_</title>
	<polygon points="292.615038554613,-409.824489858416 331.97920239014,-409.824489858416 312.297120472365,-443.914855738714 " style="fill: rgb(14,173,105); fill-opacity: 1; stroke: rgb(0,0,0); stroke-width: 3" />
	<polygon points="363.825479902441,-386.686814887068 331.97920239014,-409.824489858416 292.615038554613,-409.824489858416 260.768761042311,-386.686814887068 248.604565447774,-349.24927036278 260.768761042311,-311.811725838492 292.615038554612,-288.674050867144 331.979202390139,-288.674050867144 363.825479902441,-311.811725838492 375.989675496978,-349.24927036278 " style="fill: rgb(14,173,105); fill-opacity: 1; stroke: rgb(0,0,0); stroke-width: 3" />
	<polygon points="402.329442313063,-378.502545026391 363.825479902441,-386.686814887068 375.989675496978,-349.24927036278 " style="fill: rgb(14,173,105); fill-opacity: 1; stroke: rgb(0,0,0); stroke-width: 3" />
	<polygon points="260.768761042311,-386.686814887068 222.26479863169,-378.502545026392 248.604565447774,-349.24927036278 " style="fill: rgb(14,173,105); fill-opacity: 1; stroke: rgb(0,0,0); stroke-width: 3" />
	<polygon points="402.329442313063,-378.502545026391 375.989675496978,-349.24927036278 405.242950160592,-322.909503546693 431.582716976673,-352.162778210299 " style="fill: rgb(14,173,105); fill-opacity: 1; stroke: rgb(0,0,0); stroke-width: 3" />
	<polygon points="432.783884682662,-431.251186526793 406.444117866598,-401.997911863163 444.948080277219,-393.813642002518 " style="fill: rgb(14,173,105); fill-opacity: 1; stroke: rgb(0,0,0); stroke-width: 3" />
	<polygon points="222.26479863169,-378.502545026392 193.011523968074,-352.162778210309 219.35129078415,-322.909503546699 248.604565447774,-349.24927036278 " style="fill: rgb(14,173,105); fill-opacity: 1; stroke: rgb(0,0,0); stroke-width: 3" />
	<polygon points="218.150123078167,-401.997911863139 191.810356262087,-431.251186526755 179.646160667556,-393.813642002457 " style="fill: rgb(14,173,105); fill-opacity: 1; stroke: rgb(0,0,0); stroke-width: 3" />
	<polygon points="432.783884682662,-431.251186526793 444.948080277219,-393.813642002518 482.385624801506,-405.977837597077 470.221429206951,-443.415382121348 " style="fill: rgb(14,173,105); fill-opacity: 1; stroke: rgb(0,0,0); stroke-width: 3" />
	<polygon points="375.989675496978,-349.24927036278 363.825479902441,-311.811725838492 402.329442313056,-319.995995699174 " style="fill: rgb(14,173,105); fill-opacity: 1; stroke: rgb(0,0,0); stroke-width: 3" />
	<polygon points="260.768761042311,-311.811725838492 248.604565447774,-349.24927036278 222.264798631699,-319.995995699152 " style="fill: rgb(14,173,105); fill-opacity: 1; stroke: rgb(0,0,0); stroke-width: 3" />
	<polygon points="191.810356262087,-431.251186526755 154.372811737792,-443.415382121287 142.20861614326,-405.977837596994 179.646160667556,-393.813642002457 " style="fill: rgb(14,173,105); fill-opacity: 1; stroke: rgb(0,0,0); stroke-width: 3" />
	<polygon points="193.011523968074,-352.162778210309 157.050570902229,-336.151930354356 161.16524645577,-297.003407527066 199.669208866383,-288.819137666401 219.35129078415,-322.909503546699 " style="fill: rgb(14,173,105); fill-opacity: 1; stroke: rgb(0,0,0); stroke-width: 3" />
	<polygon points="363.825479902441,-311.811725838492 372.009749763123,-273.307763427874 410.513712173731,-281.492033288551 402.329442313056,-319.995995699174 " style="fill: rgb(14,173,105); fill-opacity: 1; stroke: rgb(0,0,0); stroke-width: 3" />
	<polygon points="363.825479902441,-311.811725838492 331.979202390139,-288.674050867144 367.940155455985,-272.663203011185 " style="fill: rgb(14,173,105); fill-opacity: 1; stroke: rgb(0,0,0); stroke-width: 3" />
	<polygon points="260.768761042311,-311.811725838492 222.264798631699,-319.995995699152 214.080528771032,-281.492033288531 252.584491181634,-273.307763427866 " style="fill: rgb(14,173,105); fill-opacity: 1; stroke: rgb(0,0,0); stroke-width: 3" />
	<polygon points="292.615038554612,-288.674050867144 260.768761042311,-311.811725838492 256.654085488767,-272.663203011195 " style="fill: rgb(14,173,105); fill-opacity: 1; stroke: rgb(0,0,0); stroke-width: 3" />
	<polygon points="151.734727642698,-454.388861498102 113.230765232088,-462.573131358774 125.394960826636,-425.135586834483 " style="fill: rgb(14,173,105); fill-opacity: 1; stroke: rgb(0,0,0); stroke-width: 3" />
	<polygon points="127.646997394198,-683.568305957151 89.1430349835963,-691.752575817826 53.1820819177604,-675.741727961877 33.5,-641.651362081576 37.6146755535397,-602.502839254277 63.9544423696052,-573.249564590658 102.458404780207,-565.065294729984 138.419357846043,-581.076142585931 158.101439763803,-615.166508466232 153.986764210264,-654.315031293531 " style="fill: rgb(14,173,105); fill-opacity: 1; stroke: rgb(0,0,0); stroke-width: 3" />
	<polygon points="113.230765232088,-462.573131358774 75.7932207077951,-450.40893576423 87.9574163023391,-412.971391239943 125.394960826636,-425.135586834483 " style="fill: rgb(14,173,105); fill-opacity: 1; stroke: rgb(0,0,0); stroke-width: 3" />
	<polygon points="375.989675496978,-228.09883137151 405.242950160603,-201.759064555431 431.582716976675,-231.012339219055 402.329442313053,-257.352106035136 " style="fill: rgb(14,173,105); fill-opacity: 1; stroke: rgb(0,0,0); stroke-width: 3" />
	<polygon points="363.82547990244,-265.536375895799 375.989675496978,-228.09883137151 402.329442313053,-257.352106035136 " style="fill: rgb(14,173,105); fill-opacity: 1; stroke: rgb(0,0,0); stroke-width: 3" />
	<polygon points="248.604565447774,-228.098831371507 260.768761042311,-265.536375895796 222.264798631696,-257.352106035111 " style="fill: rgb(14,173,105); fill-opacity: 1; stroke: rgb(0,0,0); stroke-width: 3" />
	<polygon points="113.230765232088,-462.573131358774 86.8909984160084,-491.82640602239 74.7268028214625,-454.388861498104 " style="fill: rgb(14,173,105); fill-opacity: 1; stroke: rgb(0,0,0); stroke-width: 3" />
	<polygon points="189.558319694482,-167.523611875868 221.404597206784,-190.661286847216 185.443644140932,-206.672134703154 " style="fill: rgb(14,173,105); fill-opacity: 1; stroke: rgb(0,0,0); stroke-width: 3" />
	<polygon points="375.989675496978,-228.09883137151 363.82547990244,-190.661286847221 402.329442313061,-198.845556707898 " style="fill: rgb(14,173,105); fill-opacity: 1; stroke: rgb(0,0,0); stroke-width: 3" />
	<polygon points="260.768761042311,-190.661286847218 248.604565447774,-228.098831371507 222.264798631689,-198.845556707893 " style="fill: rgb(14,173,105); fill-opacity: 1; stroke: rgb(0,0,0); stroke-width: 3" />
	<polygon points="331.979202390139,-167.523611875873 292.615038554612,-167.523611875871 312.297120472387,-133.433245995572 " style="fill: rgb(14,173,105); fill-opacity: 1; stroke: rgb(0,0,0); stroke-width: 3" />
	<polygon points="296.729714108155,-53.5 292.615038554612,-92.648522827298 260.76876104231,-69.5108478559493 " style="fill: rgb(14,173,105); fill-opacity: 1; stroke: rgb(0,0,0); stroke-width: 3" />
	<polygon points="177.394124099944,-130.08606735158 189.558319694481,-92.6485228272935 221.404597206783,-69.5108478559484 260.76876104231,-69.5108478559493 292.615038554612,-92.648522827298 304.779234149149,-130.086067351586 292.615038554612,-167.523611875871 260.768761042311,-190.661286847218 221.404597206784,-190.661286847216 189.558319694482,-167.523611875868 " style="fill: rgb(14,173,105); fill-opacity: 1; stroke: rgb(0,0,0); stroke-width: 3" />
	<polygon points="82.7763228624549,-530.974928849685 102.458404780207,-565.065294729984 63.0942409446656,-565.065294729982 " style="fill: rgb(14,173,105); fill-opacity: 1; stroke: rgb(0,0,0); stroke-width: 3" />
	<polygon points="522.135836164468,-565.065294730078 541.817918082244,-530.97492884978 561.5,-565.065294730085 " style="fill: rgb(14,173,105); fill-opacity: 1; stroke: rgb(0,0,0); stroke-width: 3" />
	<polygon points="435.035921250273,-92.6485228272998 447.200116844809,-130.086067351589 435.03592125027,-167.523611875878 403.189643737968,-190.661286847225 363.82547990244,-190.661286847221 331.979202390139,-167.523611875873 319.815006795602,-130.086067351583 331.979202390141,-92.6485228272941 363.825479902444,-69.5108478559475 403.189643737972,-69.5108478559496 " style="fill: rgb(14,173,105); fill-opacity: 1; stroke: rgb(0,0,0); stroke-width: 3" />
	<polygon points="403.189643737968,-190.661286847225 435.03592125027,-167.523611875878 439.150596803808,-206.672134703181 " style="fill: rgb(14,173,105); fill-opacity: 1; stroke: rgb(0,0,0); stroke-width: 3" />
	<polygon points="248.604565447774,-228.098831371507 222.264798631696,-257.352106035111 193.011523968081,-231.012339219025 219.351290784153,-201.759064555426 " style="fill: rgb(14,173,105); fill-opacity: 1; stroke: rgb(0,0,0); stroke-width: 3" />
	<polygon points="537.703242528715,-491.826406022476 511.363475712651,-462.573131358845 549.867438123277,-454.388861498195 " style="fill: rgb(14,173,105); fill-opacity: 1; stroke: rgb(0,0,0); stroke-width: 3" />
	<polygon points="331.979202390139,-288.674050867144 292.615038554612,-288.674050867144 260.768761042311,-265.536375895796 248.604565447774,-228.098831371507 260.768761042311,-190.661286847218 292.615038554612,-167.523611875871 331.979202390139,-167.523611875873 363.82547990244,-190.661286847221 375.989675496978,-228.09883137151 363.82547990244,-265.536375895799 " style="fill: rgb(14,173,105); fill-opacity: 1; stroke: rgb(0,0,0); stroke-width: 3" />
	<polygon points="511.363475712651,-462.573131358845 503.179205852005,-424.069168948226 541.683168262618,-415.88489908757 549.867438123277,-454.388861498195 " style="fill: rgb(14,173,105); fill-opacity: 1; stroke: rgb(0,0,0); stroke-width: 3" />
	<polygon points="176.923320256653,-572.89187272526 164.759124662108,-610.329417249542 138.419357846043,-581.076142585931 " style="fill: rgb(14,173,105); fill-opacity: 1; stroke: rgb(0,0,0); stroke-width: 3" />
	<polygon points="307.031270716736,-630.819664456781 294.867075122199,-668.257208981071 268.527308306127,-639.003934317453 " style="fill: rgb(14,173,105); fill-opacity: 1; stroke: rgb(0,0,0); stroke-width: 3" />
	<polygon points="511.363475712651,-462.573131358845 472.859513302042,-454.388861498159 499.199280118141,-425.135586834555 " style="fill: rgb(14,173,105); fill-opacity: 1; stroke: rgb(0,0,0); stroke-width: 3" />
	<polygon points="431.582716976673,-352.162778210299 405.242950160592,-322.909503546693 424.925032078347,-288.819137666386 463.428994488959,-297.003407527039 467.543670042511,-336.151930354333 " style="fill: rgb(14,173,105); fill-opacity: 1; stroke: rgb(0,0,0); stroke-width: 3" />
	<polygon points="191.810356262087,-431.251186526755 187.695680708534,-470.39970935405 155.849403196238,-447.262034382695 " style="fill: rgb(14,173,105); fill-opacity: 1; stroke: rgb(0,0,0); stroke-width: 3" />
	<polygon points="436.898560236192,-470.399709354097 432.783884682662,-431.251186526793 468.744837748502,-447.262034382755 " style="fill: rgb(14,173,105); fill-opacity: 1; stroke: rgb(0,0,0); stroke-width: 3" />
	<polygon points="187.695680708534,-470.39970935405 207.377762626286,-504.490075234349 203.263087072733,-543.638598061644 176.923320256653,-572.89187272526 138.419357846043,-581.076142585931 102.458404780207,-565.065294729984 82.7763228624549,-530.974928849685 86.8909984160084,-491.82640602239 113.230765232088,-462.573131358774 151.734727642698,-454.388861498102 " style="fill: rgb(14,173,105); fill-opacity: 1; stroke: rgb(0,0,0); stroke-width: 3" />
	<polygon points="417.216478318417,-504.490075234395 436.898560236192,-470.399709354097 472.859513302042,-454.388861498159 511.363475712651,-462.573131358845 537.703242528715,-491.826406022476 541.817918082244,-530.97492884978 522.135836164468,-565.065294730078 486.174883098618,-581.076142586016 447.670920688009,-572.891872725329 421.331153871945,-543.638598061699 " style="fill: rgb(14,173,105); fill-opacity: 1; stroke: rgb(0,0,0); stroke-width: 3" />
	<polygon points="207.377762626286,-504.490075234349 243.338715692122,-520.500923090297 211.492438179811,-543.638598061638 " style="fill: rgb(14,173,105); fill-opacity: 1; stroke: rgb(0,0,0); stroke-width: 3" />
	<polygon points="381.255525252567,-520.500923090334 417.216478318417,-504.490075234395 413.101802764853,-543.638598061689 " style="fill: rgb(14,173,105); fill-opacity: 1; stroke: rgb(0,0,0); stroke-width: 3" />
	<polygon points="317.803631168577,-528.327501085573 337.485713086345,-562.417866965871 333.371037532807,-601.566389793166 307.031270716736,-630.819664456781 268.527308306127,-639.003934317453 232.566355240281,-622.993086461505 212.884273322514,-588.902720581206 216.998948876052,-549.754197753912 243.338715692122,-520.500923090297 281.842678102732,-512.316653229625 " style="fill: rgb(14,173,105); fill-opacity: 1; stroke: rgb(0,0,0); stroke-width: 3" />
	<polygon points="308.182444918812,-483.063378566009 320.346640513352,-520.5009230903 281.842678102732,-512.316653229625 " style="fill: rgb(14,173,105); fill-opacity: 1; stroke: rgb(0,0,0); stroke-width: 3" />
	<polygon points="292.615038554613,-409.824489858416 312.297120472365,-443.914855738714 308.182444918812,-483.063378566009 281.842678102732,-512.316653229625 243.338715692122,-520.500923090297 207.377762626286,-504.490075234349 187.695680708534,-470.39970935405 191.810356262087,-431.251186526755 218.150123078167,-401.997911863139 256.654085488777,-393.813642002468 " style="fill: rgb(14,173,105); fill-opacity: 1; stroke: rgb(0,0,0); stroke-width: 3" />
	<polygon points="312.297120472365,-443.914855738714 331.97920239014,-409.824489858416 367.940155455989,-393.813642002477 406.444117866598,-401.997911863163 432.783884682662,-431.251186526793 436.898560236192,-470.399709354097 417.216478318417,-504.490075234395 381.255525252567,-520.500923090334 342.751562841958,-512.316653229648 316.411796025894,-483.063378566018 " style="fill: rgb(14,173,105); fill-opacity: 1; stroke: rgb(0,0,0); stroke-width: 3" />
	<circle cx="292.615038554613" cy="-409.824489858416" r="2" style="fill: rgb(0,0,0)" />
	<circle cx="331.97920239014" cy="-409.824489858416" r="2" style="fill: rgb(0,0,0)" />
	<circle cx="312.297120472365" cy="-443.914855738714" r="2" style="fill: rgb(0,0,0)" />
	<circle cx="260.768761042311" cy="-386.686814887068" r="2" style="fill: rgb(0,0,0)" />
	<circle cx="248.604565447774" cy="-349.24927036278" r="2" style="fill: rgb(0,0,0)" />
	<circle cx="260.768761042311" cy="-311.811725838492" r="2" style="fill: rgb(0,0,0)" />
	<circle cx="292.615038554612" cy="-288.674050867144" r="2" style="fill: rgb(0,0,0)" />
	<circle cx="331.979202390139" cy="-288.674050867144" r="2" style="fill: rgb(0,0,0)" />
	<circle cx="363.825479902441" cy="-311.811725838492" r="2" style="fill: rgb(0,0,0)" />
	<circle cx="375.989675496978" cy="-349.24927036278" r="2" style="fill: rgb(0,0,0)" />
	<circle cx="363.825479902441" cy="-386.686814887068" r="2" style="fill: rgb(0,0,0)" />
	<circle cx="308.182444918812" cy="-483.063378566009" r="2" style="fill: rgb(0,0,0)" />
	<circle cx="281.842678102732" cy="-512.316653229625" r="2" style="fill: rgb(0,0,0)" />
	<circle cx="243.338715692122" cy="-520.500923090297" r="2" style="fill: rgb(0,0,0)" />
	<circle cx="207.377762626286" cy="-504.490075234349" r="2" style="fill: rgb(0,0,0)" />
	<circle cx="187.695680708534" cy="-470.39970935405" r="2" style="fill: rgb(0,0,0)" />
	<circle cx="191.810356262087" cy="-431.251186526755" r="2" style="fill: rgb(0,0,0)" />
	<circle cx="218.150123078167" cy="-401.997911863139" r="2" style="fill: rgb(0,0,0)" />
	<circle cx="256.654085488777" cy="-393.813642002468" r="2" style="fill: rgb(0,0,0)" />
	<circle cx="367.940155455989" cy="-393.813642002477" r="2" style="fill: rgb(0,0,0)" />
	<circle cx="406.444117866598" cy="-401.997911863163" r="2" style="fill: rgb(0,0,0)" />
	<circle cx="432.783884682662" cy="-431.251186526793" r="2" style="fill: rgb(0,0,0)" />
	<circle cx="436.898560236192" cy="-470.399709354097" r="2" style="fill: rgb(0,0,0)" />
	<circle cx="417.216478318417" cy="-504.490075234395" r="2" style="fill: rgb(0,0,0)" />
	<circle cx="381.255525252567" cy="-520.500923090334" r="2" style="fill: rgb(0,0,0)" />
	<circle cx="342.751562841958" cy="-512.316653229648" r="2" style="fill: rgb(0,0,0)" />
	<circle cx="316.411796025894" cy="-483.063378566018" r="2" style="fill: rgb(0,0,0)" />
	<circle cx="402.329442313063" cy="-378.502545026391" r="2" style="fill: rgb(0,0,0)" />
	<circle cx="222.26479863169" cy="-378.502545026392" r="2" style="fill: rgb(0,0,0)" />
	<circle cx="402.329442313056" cy="-319.995995699174" r="2" style="fill: rgb(0,0,0)" />
	<circle cx="222.264798631699" cy="-319.995995699152" r="2" style="fill: rgb(0,0,0)" />
	<circle cx="367.940155455985" cy="-272.663203011185" r="2" style="fill: rgb(0,0,0)" />
	<circle cx="256.654085488767" cy="-272.663203011195" r="2" style="fill: rgb(0,0,0)" />
	<circle cx="260.768761042311" cy="-265.536375895796" r="2" style="fill: rgb(0,0,0)" />
	<circle cx="248.604565447774" cy="-228.098831371507" r="2" style="fill: rgb(0,0,0)" />
	<circle cx="260.768761042311" cy="-190.661286847218" r="2" style="fill: rgb(0,0,0)" />
	<circle cx="292.615038554612" cy="-167.523611875871" r="2" style="fill: rgb(0,0,0)" />
	<circle cx="331.979202390139" cy="-167.523611875873" r="2" style="fill: rgb(0,0,0)" />
	<circle cx="363.82547990244" cy="-190.661286847221" r="2" style="fill: rgb(0,0,0)" />
	<circle cx="375.989675496978" cy="-228.09883137151" r="2" style="fill: rgb(0,0,0)" />
	<circle cx="363.82547990244" cy="-265.536375895799" r="2" style="fill: rgb(0,0,0)" />
	<circle cx="179.646160667556" cy="-393.813642002457" r="2" style="fill: rgb(0,0,0)" />
	<circle cx="155.849403196238" cy="-447.262034382695" r="2" style="fill: rgb(0,0,0)" />
	<circle cx="203.263087072733" cy="-543.638598061644" r="2" style="fill: rgb(0,0,0)" />
	<circle cx="176.923320256653" cy="-572.89187272526" r="2" style="fill: rgb(0,0,0)" />
	<circle cx="138.419357846043" cy="-581.076142585931" r="2" style="fill: rgb(0,0,0)" />
	<circle cx="102.458404780207" cy="-565.065294729984" r="2" style="fill: rgb(0,0,0)" />
	<circle cx="82.7763228624549" cy="-530.974928849685" r="2" style="fill: rgb(0,0,0)" />
	<circle cx="86.8909984160084" cy="-491.82640602239" r="2" style="fill: rgb(0,0,0)" />
	<circle cx="113.230765232088" cy="-462.573131358774" r="2" style="fill: rgb(0,0,0)" />
	<circle cx="151.734727642698" cy="-454.388861498102" r="2" style="fill: rgb(0,0,0)" />
	<circle cx="211.492438179811" cy="-543.638598061638" r="2" style="fill: rgb(0,0,0)" />
	<circle cx="317.803631168577" cy="-528.327501085573" r="2" style="fill: rgb(0,0,0)" />
	<circle cx="337.485713086345" cy="-562.417866965871" r="2" style="fill: rgb(0,0,0)" />
	<circle cx="333.371037532807" cy="-601.566389793166" r="2" style="fill: rgb(0,0,0)" />
	<circle cx="307.031270716736" cy="-630.819664456781" r="2" style="fill: rgb(0,0,0)" />
	<circle cx="268.527308306127" cy="-639.003934317453" r="2" style="fill: rgb(0,0,0)" />
	<circle cx="232.566355240281" cy="-622.993086461505" r="2" style="fill: rgb(0,0,0)" />
	<circle cx="212.884273322514" cy="-588.902720581206" r="2" style="fill: rgb(0,0,0)" />
	<circle cx="216.998948876052" cy="-549.754197753912" r="2" style="fill: rgb(0,0,0)" />
	<circle cx="320.346640513352" cy="-520.5009230903" r="2" style="fill: rgb(0,0,0)" />
	<circle cx="444.948080277219" cy="-393.813642002518" r="2" style="fill: rgb(0,0,0)" />
	<circle cx="468.744837748502" cy="-447.262034382755" r="2" style="fill: rgb(0,0,0)" />
	<circle cx="472.859513302042" cy="-454.388861498159" r="2" style="fill: rgb(0,0,0)" />
	<circle cx="511.363475712651" cy="-462.573131358845" r="2" style="fill: rgb(0,0,0)" />
	<circle cx="537.703242528715" cy="-491.826406022476" r="2" style="fill: rgb(0,0,0)" />
	<circle cx="541.817918082244" cy="-530.97492884978" r="2" style="fill: rgb(0,0,0)" />
	<circle cx="522.135836164468" cy="-565.065294730078" r="2" style="fill: rgb(0,0,0)" />
	<circle cx="486.174883098618" cy="-581.076142586016" r="2" style="fill: rgb(0,0,0)" />
	<circle cx="447.670920688009" cy="-572.891872725329" r="2" style="fill: rgb(0,0,0)" />
	<circle cx="421.331153871945" cy="-543.638598061699" r="2" style="fill: rgb(0,0,0)" />
	<circle cx="413.101802764853" cy="-543.638598061689" r="2" style="fill: rgb(0,0,0)" />
	<circle cx="405.242950160592" cy="-322.909503546693" r="2" style="fill: rgb(0,0,0)" />
	<circle cx="431.582716976673" cy="-352.162778210299" r="2" style="fill: rgb(0,0,0)" />
	<circle cx="193.011523968074" cy="-352.162778210309" r="2" style="fill: rgb(0,0,0)" />
	<circle cx="219.35129078415" cy="-322.909503546699" r="2" style="fill: rgb(0,0,0)" />
	<circle cx="372.009749763123" cy="-273.307763427874" r="2" style="fill: rgb(0,0,0)" />
	<circle cx="410.513712173731" cy="-281.492033288551" r="2" style="fill: rgb(0,0,0)" />
	<circle cx="214.080528771032" cy="-281.492033288531" r="2" style="fill: rgb(0,0,0)" />
	<circle cx="252.584491181634" cy="-273.307763427866" r="2" style="fill: rgb(0,0,0)" />
	<circle cx="402.329442313053" cy="-257.352106035136" r="2" style="fill: rgb(0,0,0)" />
	<circle cx="222.264798631696" cy="-257.352106035111" r="2" style="fill: rgb(0,0,0)" />
	<circle cx="402.329442313061" cy="-198.845556707898" r="2" style="fill: rgb(0,0,0)" />
	<circle cx="222.264798631689" cy="-198.845556707893" r="2" style="fill: rgb(0,0,0)" />
	<circle cx="312.297120472387" cy="-133.433245995572" r="2" style="fill: rgb(0,0,0)" />
	<circle cx="221.404597206784" cy="-190.661286847216" r="2" style="fill: rgb(0,0,0)" />
	<circle cx="189.558319694482" cy="-167.523611875868" r="2" style="fill: rgb(0,0,0)" />
	<circle cx="177.394124099944" cy="-130.08606735158" r="2" style="fill: rgb(0,0,0)" />
	<circle cx="189.558319694481" cy="-92.6485228272935" r="2" style="fill: rgb(0,0,0)" />
	<circle cx="221.404597206783" cy="-69.5108478559484" r="2" style="fill: rgb(0,0,0)" />
	<circle cx="260.76876104231" cy="-69.5108478559493" r="2" style="fill: rgb(0,0,0)" />
	<circle cx="292.615038554612" cy="-92.648522827298" r="2" style="fill: rgb(0,0,0)" />
	<circle cx="304.779234149149" cy="-130.086067351586" r="2" style="fill: rgb(0,0,0)" />
	<circle cx="319.815006795602" cy="-130.086067351583" r="2" style="fill: rgb(0,0,0)" />
	<circle cx="331.979202390141" cy="-92.6485228272941" r="2" style="fill: rgb(0,0,0)" />
	<circle cx="363.825479902444" cy="-69.5108478559475" r="2" style="fill: rgb(0,0,0)" />
	<circle cx="403.189643737972" cy="-69.5108478559496" r="2" style="fill: rgb(0,0,0)" />
	<circle cx="435.035921250273" cy="-92.6485228272998" r="2" style="fill: rgb(0,0,0)" />
	<circle cx="447.200116844809" cy="-130.086067351589" r="2" style="fill: rgb(0,0,0)" />
	<circle cx="435.03592125027" cy="-167.523611875878" r="2" style="fill: rgb(0,0,0)" />
	<circle cx="403.189643737968" cy="-190.661286847225" r="2" style="fill: rgb(0,0,0)" />
	<circle cx="154.372811737792" cy="-443.415382121287" r="2" style="fill: rgb(0,0,0)" />
	<circle cx="142.20861614326" cy="-405.977837596994" r="2" style="fill: rgb(0,0,0)" />
	<circle cx="125.394960826636" cy="-425.135586834483" r="2" style="fill: rgb(0,0,0)" />
	<circle cx="158.101439763803" cy="-615.166508466232" r="2" style="fill: rgb(0,0,0)" />
	<circle cx="153.986764210264" cy="-654.315031293531" r="2" style="fill: rgb(0,0,0)" />
	<circle cx="127.646997394198" cy="-683.568305957151" r="2" style="fill: rgb(0,0,0)" />
	<circle cx="89.1430349835963" cy="-691.752575817826" r="2" style="fill: rgb(0,0,0)" />
	<circle cx="53.1820819177604" cy="-675.741727961877" r="2" style="fill: rgb(0,0,0)" />
	<circle cx="33.5" cy="-641.651362081576" r="2" style="fill: rgb(0,0,0)" />
	<circle cx="37.6146755535397" cy="-602.502839254277" r="2" style="fill: rgb(0,0,0)" />
	<circle cx="63.9544423696052" cy="-573.249564590658" r="2" style="fill: rgb(0,0,0)" />
	<circle cx="74.7268028214625" cy="-454.388861498104" r="2" style="fill: rgb(0,0,0)" />
	<circle cx="63.0942409446656" cy="-565.065294729982" r="2" style="fill: rgb(0,0,0)" />
	<circle cx="164.759124662108" cy="-610.329417249542" r="2" style="fill: rgb(0,0,0)" />
	<circle cx="294.867075122199" cy="-668.257208981071" r="2" style="fill: rgb(0,0,0)" />
	<circle cx="482.385624801506" cy="-405.977837597077" r="2" style="fill: rgb(0,0,0)" />
	<circle cx="470.221429206951" cy="-443.415382121348" r="2" style="fill: rgb(0,0,0)" />
	<circle cx="561.5" cy="-565.065294730085" r="2" style="fill: rgb(0,0,0)" />
	<circle cx="549.867438123277" cy="-454.388861498195" r="2" style="fill: rgb(0,0,0)" />
	<circle cx="499.199280118141" cy="-425.135586834555" r="2" style="fill: rgb(0,0,0)" />
	<circle cx="424.925032078347" cy="-288.819137666386" r="2" style="fill: rgb(0,0,0)" />
	<circle cx="463.428994488959" cy="-297.003407527039" r="2" style="fill: rgb(0,0,0)" />
	<circle cx="467.543670042511" cy="-336.151930354333" r="2" style="fill: rgb(0,0,0)" />
	<circle cx="157.050570902229" cy="-336.151930354356" r="2" style="fill: rgb(0,0,0)" />
	<circle cx="161.16524645577" cy="-297.003407527066" r="2" style="fill: rgb(0,0,0)" />
	<circle cx="199.669208866383" cy="-288.819137666401" r="2" style="fill: rgb(0,0,0)" />
	<circle cx="405.242950160603" cy="-201.759064555431" r="2" style="fill: rgb(0,0,0)" />
	<circle cx="431.582716976675" cy="-231.012339219055" r="2" style="fill: rgb(0,0,0)" />
	<circle cx="193.011523968081" cy="-231.012339219025" r="2" style="fill: rgb(0,0,0)" />
	<circle cx="219.351290784153" cy="-201.759064555426" r="2" style="fill: rgb(0,0,0)" />
	<circle cx="185.443644140932" cy="-206.672134703154" r="2" style="fill: rgb(0,0,0)" />
	<circle cx="296.729714108155" cy="-53.5" r="2" style="fill: rgb(0,0,0)" />
	<circle cx="439.150596803808" cy="-206.672134703181" r="2" style="fill: rgb(0,0,0)" />
	<circle cx="75.7932207077951" cy="-450.40893576423" r="2" style="fill: rgb(0,0,0)" />
	<circle cx="87.9574163023391" cy="-412.971391239943" r="2" style="fill: rgb(0,0,0)" />
	<circle cx="503.179205852005" cy="-424.069168948226" r="2" style="fill: rgb(0,0,0)" />
	<circle cx="541.683168262618" cy="-415.88489908757" r="2" style="fill: rgb(0,0,0)" />
	<!-- 
	Generated using the Perl SVG Module V2.64
	by Ronan Oger
	Info: http://www.roitsystems.com/
 -->
</svg>