<?xml version="1.0" encoding="UTF-8" standalone="yes"?>
<!DOCTYPE svg PUBLIC "-//W3C//DTD SVG 1.0//EN" "http://www.w3.org/TR/2001/REC-SVG-20010904/DTD/svg10.dtd">
<!-- generated using polymake; Michael Joswig, Georg Loho, Benjamin Lorenz, Rico Raber; license CC BY-NC-ND 3.0; see polymake.org and matchthenet.de -->
<svg height="841pt" id="document" viewBox="0 -685.209379001322 572 685.209379001322" width="595pt" xmlns="http://www.w3.org/2000/svg" xmlns:svg="http://www.w3.org/2000/svg" xmlns:xlink="http://www.w3.org/1999/xlink">
	<title id="document_title">planar_net_</title>
	<polygon points="288.411041119529,-351.104689500646 354.215935111395,-351.104689500646 323.83971509232,-409.479078839069 259.696750738637,-408.470417952276 " style="fill: rgb(14,173,105); fill-opacity: 1; stroke: rgb(0,0,0); stroke-width: 3" />
	<polygon points="288.411041119529,-351.104689500646 259.696750738628,-293.738961049029 323.839715092315,-292.730300162226 354.215935111395,-351.104689500646 " style="fill: rgb(14,173,105); fill-opacity: 1; stroke: rgb(0,0,0); stroke-width: 3" />
	<polygon points="323.83971509232,-409.479078839069 354.215935111395,-351.104689500646 391.976874112278,-404.997133860247 361.473052292469,-461.431645705819 " style="fill: rgb(14,173,105); fill-opacity: 1; stroke: rgb(0,0,0); stroke-width: 3" />
	<polygon points="288.411041119529,-351.104689500646 259.696750738637,-408.470417952276 221.538765419225,-357.664008265672 249.097558506262,-300.411619385682 " style="fill: rgb(14,173,105); fill-opacity: 1; stroke: rgb(0,0,0); stroke-width: 3" />
	<polygon points="391.976874112269,-297.212245141039 354.215935111395,-351.104689500646 323.839715092315,-292.730300162226 361.473052292446,-240.777733295469 " style="fill: rgb(14,173,105); fill-opacity: 1; stroke: rgb(0,0,0); stroke-width: 3" />
	<polygon points="259.696750738637,-408.470417952276 323.83971509232,-409.479078839069 350.661155064463,-467.753838647104 287.152121802849,-465.772474709481 " style="fill: rgb(14,173,105); fill-opacity: 1; stroke: rgb(0,0,0); stroke-width: 3" />
	<polygon points="391.976874112278,-404.997133860247 354.215935111395,-351.104689500646 419.453835520365,-342.484920158581 455.435040259767,-395.595090355671 " style="fill: rgb(14,173,105); fill-opacity: 1; stroke: rgb(0,0,0); stroke-width: 3" />
	<polygon points="221.538765419225,-357.664008265672 259.696750738637,-408.470417952276 222.21034845248,-414.349497017408 201.540252529194,-389.623681010623 212.63924215858,-359.367586221541 " style="fill: rgb(14,173,105); fill-opacity: 1; stroke: rgb(0,0,0); stroke-width: 3" />
	<polygon points="323.839715092315,-292.730300162226 259.696750738628,-293.738961049029 287.152121802825,-236.436904291814 350.661155064437,-234.455540354176 " style="fill: rgb(14,173,105); fill-opacity: 1; stroke: rgb(0,0,0); stroke-width: 3" />
	<polygon points="259.696750738637,-408.470417952276 287.152121802849,-465.772474709481 281.532795077085,-472.880699471522 249.569725456309,-468.759895776052 237.177409638422,-439.010116762603 " style="fill: rgb(14,173,105); fill-opacity: 1; stroke: rgb(0,0,0); stroke-width: 3" />
	<polygon points="249.097558506262,-300.411619385682 221.538765419225,-357.664008265672 212.477843005418,-357.722121341051 195.711473813912,-330.199263444146 211.18326911982,-301.928388100583 " style="fill: rgb(14,173,105); fill-opacity: 1; stroke: rgb(0,0,0); stroke-width: 3" />
	<polygon points="361.473052292469,-461.431645705819 391.976874112278,-404.997133860247 456.052465207078,-408.104528060471 424.978404397523,-463.527680746712 " style="fill: rgb(14,173,105); fill-opacity: 1; stroke: rgb(0,0,0); stroke-width: 3" />
	<polygon points="259.696750738628,-293.738961049029 237.177409638405,-263.199262238702 249.569725456287,-233.449483225253 281.532795077061,-229.32867952978 287.152121802825,-236.436904291814 " style="fill: rgb(14,173,105); fill-opacity: 1; stroke: rgb(0,0,0); stroke-width: 3" />
	<polygon points="287.152121802849,-465.772474709481 350.661155064463,-467.753838647104 331.814027312508,-500.686796341717 299.593479357408,-501.36143117039 282.917955144366,-473.783437499724 " style="fill: rgb(14,173,105); fill-opacity: 1; stroke: rgb(0,0,0); stroke-width: 3" />
	<polygon points="456.052465207071,-294.104850940788 391.976874112269,-297.212245141039 361.473052292446,-240.777733295469 424.978404397504,-238.681698254551 " style="fill: rgb(14,173,105); fill-opacity: 1; stroke: rgb(0,0,0); stroke-width: 3" />
	<polygon points="361.473052292469,-461.431645705819 424.978404397523,-463.527680746712 428.690048926785,-471.793718915449 410.280071171301,-498.245402448292 378.169132812304,-495.505606765379 " style="fill: rgb(14,173,105); fill-opacity: 1; stroke: rgb(0,0,0); stroke-width: 3" />
	<polygon points="287.152121802825,-236.436904291814 282.917955144343,-228.425941501562 299.59347935738,-200.847947830897 331.814027312477,-201.522582659572 350.661155064437,-234.455540354176 " style="fill: rgb(14,173,105); fill-opacity: 1; stroke: rgb(0,0,0); stroke-width: 3" />
	<polygon points="424.978404397504,-238.681698254551 361.473052292446,-240.777733295469 378.169132812275,-206.703772235898 410.280071171268,-203.963976552981 428.690048926756,-230.415660085822 " style="fill: rgb(14,173,105); fill-opacity: 1; stroke: rgb(0,0,0); stroke-width: 3" />
	<polygon points="424.978404397523,-463.527680746712 456.052465207078,-408.104528060471 476.566696190825,-440.025684902905 462.291814784811,-468.919397082602 430.130256521463,-470.981680465753 " style="fill: rgb(14,173,105); fill-opacity: 1; stroke: rgb(0,0,0); stroke-width: 3" />
	<polygon points="456.052465207071,-294.104850940788 424.978404397504,-238.681698254551 430.130256521455,-231.227698535503 462.291814784799,-233.289981918655 476.566696190807,-262.183694098357 " style="fill: rgb(14,173,105); fill-opacity: 1; stroke: rgb(0,0,0); stroke-width: 3" />
	<polygon points="222.21034845248,-414.349497017408 205.691980442336,-442.021908566835 43.8737859652998,-428.479839186368 201.540252529194,-389.623681010623 " style="fill: rgb(14,173,105); fill-opacity: 1; stroke: rgb(0,0,0); stroke-width: 3" />
	<polygon points="281.532795077085,-472.880699471522 288.192014395192,-504.412804392584 160.188668340793,-604.331066516126 249.569725456309,-468.759895776052 " style="fill: rgb(14,173,105); fill-opacity: 1; stroke: rgb(0,0,0); stroke-width: 3" />
	<polygon points="212.63924215858,-359.367586221541 201.540252529194,-389.623681010623 40.0181784774164,-406.331023735644 187.741618915511,-338.904761403715 " style="fill: rgb(14,173,105); fill-opacity: 1; stroke: rgb(0,0,0); stroke-width: 3" />
	<polygon points="211.18326911982,-301.928388100583 195.711473813912,-330.199263444146 33.5,-322.719058230507 189.602831540454,-277.992984269398 " style="fill: rgb(14,173,105); fill-opacity: 1; stroke: rgb(0,0,0); stroke-width: 3" />
	<polygon points="299.593479357408,-501.36143117039 331.814027312508,-500.686796341717 343.084958959132,-530.879261337088 231.350545826285,-648.709379001322 " style="fill: rgb(14,173,105); fill-opacity: 1; stroke: rgb(0,0,0); stroke-width: 3" />
	<polygon points="428.690048926785,-471.793718915449 459.735601264225,-480.441985952428 489.283703454496,-640.114855795314 410.280071171301,-498.245402448292 " style="fill: rgb(14,173,105); fill-opacity: 1; stroke: rgb(0,0,0); stroke-width: 3" />
	<polygon points="249.569725456287,-233.449483225253 160.188668340685,-97.8783124852406 288.192014395165,-197.79657460873 281.532795077061,-229.32867952978 " style="fill: rgb(14,173,105); fill-opacity: 1; stroke: rgb(0,0,0); stroke-width: 3" />
	<polygon points="343.084958959094,-171.330117664216 331.814027312477,-201.522582659572 299.59347935738,-200.847947830897 231.350545826181,-53.5 " style="fill: rgb(14,173,105); fill-opacity: 1; stroke: rgb(0,0,0); stroke-width: 3" />
	<polygon points="462.291814784811,-468.919397082602 476.566696190825,-440.025684902905 508.552691130721,-443.964589621803 561.5,-597.473866834642 " style="fill: rgb(14,173,105); fill-opacity: 1; stroke: rgb(0,0,0); stroke-width: 3" />
	<polygon points="428.690048926756,-230.415660085822 410.280071171268,-203.963976552981 489.283703454366,-62.0945232059029 459.735601264181,-221.76739304885 " style="fill: rgb(14,173,105); fill-opacity: 1; stroke: rgb(0,0,0); stroke-width: 3" />
	<circle cx="288.411041119529" cy="-351.104689500646" r="2" style="fill: rgb(0,0,0)" />
	<circle cx="354.215935111395" cy="-351.104689500646" r="2" style="fill: rgb(0,0,0)" />
	<circle cx="323.83971509232" cy="-409.479078839069" r="2" style="fill: rgb(0,0,0)" />
	<circle cx="259.696750738637" cy="-408.470417952276" r="2" style="fill: rgb(0,0,0)" />
	<circle cx="259.696750738628" cy="-293.738961049029" r="2" style="fill: rgb(0,0,0)" />
	<circle cx="323.839715092315" cy="-292.730300162226" r="2" style="fill: rgb(0,0,0)" />
	<circle cx="391.976874112278" cy="-404.997133860247" r="2" style="fill: rgb(0,0,0)" />
	<circle cx="361.473052292469" cy="-461.431645705819" r="2" style="fill: rgb(0,0,0)" />
	<circle cx="221.538765419225" cy="-357.664008265672" r="2" style="fill: rgb(0,0,0)" />
	<circle cx="249.097558506262" cy="-300.411619385682" r="2" style="fill: rgb(0,0,0)" />
	<circle cx="350.661155064463" cy="-467.753838647104" r="2" style="fill: rgb(0,0,0)" />
	<circle cx="287.152121802849" cy="-465.772474709481" r="2" style="fill: rgb(0,0,0)" />
	<circle cx="361.473052292446" cy="-240.777733295469" r="2" style="fill: rgb(0,0,0)" />
	<circle cx="391.976874112269" cy="-297.212245141039" r="2" style="fill: rgb(0,0,0)" />
	<circle cx="287.152121802825" cy="-236.436904291814" r="2" style="fill: rgb(0,0,0)" />
	<circle cx="350.661155064437" cy="-234.455540354176" r="2" style="fill: rgb(0,0,0)" />
	<circle cx="419.453835520365" cy="-342.484920158581" r="2" style="fill: rgb(0,0,0)" />
	<circle cx="455.435040259767" cy="-395.595090355671" r="2" style="fill: rgb(0,0,0)" />
	<circle cx="456.052465207078" cy="-408.104528060471" r="2" style="fill: rgb(0,0,0)" />
	<circle cx="424.978404397523" cy="-463.527680746712" r="2" style="fill: rgb(0,0,0)" />
	<circle cx="222.21034845248" cy="-414.349497017408" r="2" style="fill: rgb(0,0,0)" />
	<circle cx="201.540252529194" cy="-389.623681010623" r="2" style="fill: rgb(0,0,0)" />
	<circle cx="212.63924215858" cy="-359.367586221541" r="2" style="fill: rgb(0,0,0)" />
	<circle cx="212.477843005418" cy="-357.722121341051" r="2" style="fill: rgb(0,0,0)" />
	<circle cx="195.711473813912" cy="-330.199263444146" r="2" style="fill: rgb(0,0,0)" />
	<circle cx="211.18326911982" cy="-301.928388100583" r="2" style="fill: rgb(0,0,0)" />
	<circle cx="281.532795077085" cy="-472.880699471522" r="2" style="fill: rgb(0,0,0)" />
	<circle cx="249.569725456309" cy="-468.759895776052" r="2" style="fill: rgb(0,0,0)" />
	<circle cx="237.177409638422" cy="-439.010116762603" r="2" style="fill: rgb(0,0,0)" />
	<circle cx="331.814027312508" cy="-500.686796341717" r="2" style="fill: rgb(0,0,0)" />
	<circle cx="299.593479357408" cy="-501.36143117039" r="2" style="fill: rgb(0,0,0)" />
	<circle cx="282.917955144366" cy="-473.783437499724" r="2" style="fill: rgb(0,0,0)" />
	<circle cx="424.978404397504" cy="-238.681698254551" r="2" style="fill: rgb(0,0,0)" />
	<circle cx="456.052465207071" cy="-294.104850940788" r="2" style="fill: rgb(0,0,0)" />
	<circle cx="237.177409638405" cy="-263.199262238702" r="2" style="fill: rgb(0,0,0)" />
	<circle cx="249.569725456287" cy="-233.449483225253" r="2" style="fill: rgb(0,0,0)" />
	<circle cx="281.532795077061" cy="-229.32867952978" r="2" style="fill: rgb(0,0,0)" />
	<circle cx="282.917955144343" cy="-228.425941501562" r="2" style="fill: rgb(0,0,0)" />
	<circle cx="299.59347935738" cy="-200.847947830897" r="2" style="fill: rgb(0,0,0)" />
	<circle cx="331.814027312477" cy="-201.522582659572" r="2" style="fill: rgb(0,0,0)" />
	<circle cx="428.690048926785" cy="-471.793718915449" r="2" style="fill: rgb(0,0,0)" />
	<circle cx="410.280071171301" cy="-498.245402448292" r="2" style="fill: rgb(0,0,0)" />
	<circle cx="378.169132812304" cy="-495.505606765379" r="2" style="fill: rgb(0,0,0)" />
	<circle cx="476.566696190825" cy="-440.025684902905" r="2" style="fill: rgb(0,0,0)" />
	<circle cx="462.291814784811" cy="-468.919397082602" r="2" style="fill: rgb(0,0,0)" />
	<circle cx="430.130256521463" cy="-470.981680465753" r="2" style="fill: rgb(0,0,0)" />
	<circle cx="205.691980442336" cy="-442.021908566835" r="2" style="fill: rgb(0,0,0)" />
	<circle cx="43.8737859652998" cy="-428.479839186368" r="2" style="fill: rgb(0,0,0)" />
	<circle cx="40.0181784774164" cy="-406.331023735644" r="2" style="fill: rgb(0,0,0)" />
	<circle cx="187.741618915511" cy="-338.904761403715" r="2" style="fill: rgb(0,0,0)" />
	<circle cx="33.5" cy="-322.719058230507" r="2" style="fill: rgb(0,0,0)" />
	<circle cx="189.602831540454" cy="-277.992984269398" r="2" style="fill: rgb(0,0,0)" />
	<circle cx="288.192014395192" cy="-504.412804392584" r="2" style="fill: rgb(0,0,0)" />
	<circle cx="160.188668340793" cy="-604.331066516126" r="2" style="fill: rgb(0,0,0)" />
	<circle cx="343.084958959132" cy="-530.879261337088" r="2" style="fill: rgb(0,0,0)" />
	<circle cx="231.350545826285" cy="-648.709379001322" r="2" style="fill: rgb(0,0,0)" />
	<circle cx="378.169132812275" cy="-206.703772235898" r="2" style="fill: rgb(0,0,0)" />
	<circle cx="410.280071171268" cy="-203.963976552981" r="2" style="fill: rgb(0,0,0)" />
	<circle cx="428.690048926756" cy="-230.415660085822" r="2" style="fill: rgb(0,0,0)" />
	<circle cx="430.130256521455" cy="-231.227698535503" r="2" style="fill: rgb(0,0,0)" />
	<circle cx="462.291814784799" cy="-233.289981918655" r="2" style="fill: rgb(0,0,0)" />
	<circle cx="476.566696190807" cy="-262.183694098357" r="2" style="fill: rgb(0,0,0)" />
	<circle cx="160.188668340685" cy="-97.8783124852406" r="2" style="fill: rgb(0,0,0)" />
	<circle cx="288.192014395165" cy="-197.79657460873" r="2" style="fill: rgb(0,0,0)" />
	<circle cx="231.350545826181" cy="-53.5" r="2" style="fill: rgb(0,0,0)" />
	<circle cx="343.084958959094" cy="-171.330117664216" r="2" style="fill: rgb(0,0,0)" />
	<circle cx="459.735601264225" cy="-480.441985952428" r="2" style="fill: rgb(0,0,0)" />
	<circle cx="489.283703454496" cy="-640.114855795314" r="2" style="fill: rgb(0,0,0)" />
	<circle cx="508.552691130721" cy="-443.964589621803" r="2" style="fill: rgb(0,0,0)" />
	<circle cx="561.5" cy="-597.473866834642" r="2" style="fill: rgb(0,0,0)" />
	<circle cx="489.283703454366" cy="-62.0945232059029" r="2" style="fill: rgb(0,0,0)" />
	<circle cx="459.735601264181" cy="-221.76739304885" r="2" style="fill: rgb(0,0,0)" />
	<!--
	Generated using the Perl SVG Module V2.84
	by Ronan Oger
	Info: http://www.roitsystems.com/
	-->
</svg>