<?xml version="1.0" encoding="UTF-8" standalone="yes"?>
<!DOCTYPE svg PUBLIC "-//W3C//DTD SVG 1.0//EN" "http://www.w3.org/TR/2001/REC-SVG-20010904/DTD/svg10.dtd">
<!-- generated using polymake; Michael Joswig, Georg Loho, Benjamin Lorenz, Rico Raber; license CC BY-NC-ND 3.0; see polymake.org and matchthenet.de -->
<svg height="841pt" id="document" viewBox="0 -811 430.382735485687 811" width="595pt" xmlns="http://www.w3.org/2000/svg" xmlns:svg="http://www.w3.org/2000/svg" xmlns:xlink="http://www.w3.org/1999/xlink">
	<title id="document_title">planar_net_</title>
	<polygon points="174.925896771471,-374.246748371723 278.456838714184,-374.246748371723 278.456838714188,-477.777690314439 174.92589677148,-477.777690314444 " style="fill: rgb(216,176,92); fill-opacity: 1; stroke: rgb(0,0,0); stroke-width: 3" />
	<polygon points="226.69136774284,-284.586322571602 278.456838714184,-374.246748371723 174.925896771471,-374.246748371723 " style="fill: rgb(186,59,38); fill-opacity: 1; stroke: rgb(0,0,0); stroke-width: 3" />
	<polygon points="264.586322571607,-143.160425800123 174.92589677149,-194.925896771471 123.160425800133,-105.265470971344 212.820851600233,-53.5 " style="fill: rgb(216,176,92); fill-opacity: 1; stroke: rgb(0,0,0); stroke-width: 3" />
	<polygon points="174.92589677149,-581.308632257167 174.925896771504,-684.839574199888 85.2654709713753,-633.074103228545 " style="fill: rgb(186,59,38); fill-opacity: 1; stroke: rgb(0,0,0); stroke-width: 3" />
	<polygon points="368.117264514314,-322.481277400367 278.456838714184,-374.246748371723 226.69136774284,-284.586322571602 316.351793542969,-232.820851600252 " style="fill: rgb(216,176,92); fill-opacity: 1; stroke: rgb(0,0,0); stroke-width: 3" />
	<polygon points="174.92589677149,-581.308632257167 278.456838714193,-581.30863225716 278.456838714197,-684.839574199878 174.925896771504,-684.839574199888 " style="fill: rgb(216,176,92); fill-opacity: 1; stroke: rgb(0,0,0); stroke-width: 3" />
	<polygon points="174.925896771504,-684.839574199888 278.456838714197,-684.839574199878 226.691367742828,-774.5 " style="fill: rgb(186,59,38); fill-opacity: 1; stroke: rgb(0,0,0); stroke-width: 3" />
	<polygon points="368.117264514314,-322.481277400367 316.351793542969,-232.820851600252 419.882735485687,-232.820851600253 " style="fill: rgb(186,59,38); fill-opacity: 1; stroke: rgb(0,0,0); stroke-width: 3" />
	<polygon points="330.222309685559,-567.43811611456 419.882735485675,-515.672645143197 419.882735485683,-619.203587085911 " style="fill: rgb(186,59,38); fill-opacity: 1; stroke: rgb(0,0,0); stroke-width: 3" />
	<polygon points="316.351793542969,-232.820851600252 316.35179354297,-129.289909657535 419.882735485683,-129.289909657531 419.882735485687,-232.820851600253 " style="fill: rgb(216,176,92); fill-opacity: 1; stroke: rgb(0,0,0); stroke-width: 3" />
	<polygon points="278.456838714188,-477.777690314439 368.117264514307,-426.012219343077 419.882735485675,-515.672645143197 330.222309685559,-567.43811611456 " style="fill: rgb(216,176,92); fill-opacity: 1; stroke: rgb(0,0,0); stroke-width: 3" />
	<polygon points="278.456838714188,-477.777690314439 278.456838714184,-374.246748371723 368.117264514307,-426.012219343077 " style="fill: rgb(186,59,38); fill-opacity: 1; stroke: rgb(0,0,0); stroke-width: 3" />
	<polygon points="316.351793542969,-232.820851600252 226.69136774284,-284.586322571602 174.92589677149,-194.925896771471 264.586322571607,-143.160425800123 " style="fill: rgb(216,176,92); fill-opacity: 1; stroke: rgb(0,0,0); stroke-width: 3" />
	<polygon points="174.92589677148,-477.777690314444 278.456838714188,-477.777690314439 278.456838714193,-581.30863225716 174.92589677149,-581.308632257167 " style="fill: rgb(216,176,92); fill-opacity: 1; stroke: rgb(0,0,0); stroke-width: 3" />
	<polygon points="85.265470971352,-322.481277400357 33.5,-232.820851600233 137.030941942713,-232.820851600239 " style="fill: rgb(186,59,38); fill-opacity: 1; stroke: rgb(0,0,0); stroke-width: 3" />
	<polygon points="174.925896771471,-374.246748371723 174.92589677148,-477.777690314444 85.2654709713492,-426.012219343099 " style="fill: rgb(186,59,38); fill-opacity: 1; stroke: rgb(0,0,0); stroke-width: 3" />
	<polygon points="174.92589677148,-477.777690314444 174.92589677149,-581.308632257167 71.3949548287726,-581.308632257182 71.3949548287522,-477.777690314465 " style="fill: rgb(216,176,92); fill-opacity: 1; stroke: rgb(0,0,0); stroke-width: 3" />
	<polygon points="174.925896771471,-374.246748371723 85.265470971352,-322.481277400357 137.030941942713,-232.820851600239 226.69136774284,-284.586322571602 " style="fill: rgb(216,176,92); fill-opacity: 1; stroke: rgb(0,0,0); stroke-width: 3" />
	<circle cx="174.925896771471" cy="-374.246748371723" r="2" style="fill: rgb(0,0,0)" />
	<circle cx="278.456838714184" cy="-374.246748371723" r="2" style="fill: rgb(0,0,0)" />
	<circle cx="278.456838714188" cy="-477.777690314439" r="2" style="fill: rgb(0,0,0)" />
	<circle cx="174.92589677148" cy="-477.777690314444" r="2" style="fill: rgb(0,0,0)" />
	<circle cx="226.69136774284" cy="-284.586322571602" r="2" style="fill: rgb(0,0,0)" />
	<circle cx="368.117264514307" cy="-426.012219343077" r="2" style="fill: rgb(0,0,0)" />
	<circle cx="278.456838714193" cy="-581.30863225716" r="2" style="fill: rgb(0,0,0)" />
	<circle cx="174.92589677149" cy="-581.308632257167" r="2" style="fill: rgb(0,0,0)" />
	<circle cx="85.2654709713492" cy="-426.012219343099" r="2" style="fill: rgb(0,0,0)" />
	<circle cx="316.351793542969" cy="-232.820851600252" r="2" style="fill: rgb(0,0,0)" />
	<circle cx="368.117264514314" cy="-322.481277400367" r="2" style="fill: rgb(0,0,0)" />
	<circle cx="85.265470971352" cy="-322.481277400357" r="2" style="fill: rgb(0,0,0)" />
	<circle cx="137.030941942713" cy="-232.820851600239" r="2" style="fill: rgb(0,0,0)" />
	<circle cx="419.882735485675" cy="-515.672645143197" r="2" style="fill: rgb(0,0,0)" />
	<circle cx="330.222309685559" cy="-567.43811611456" r="2" style="fill: rgb(0,0,0)" />
	<circle cx="278.456838714197" cy="-684.839574199878" r="2" style="fill: rgb(0,0,0)" />
	<circle cx="174.925896771504" cy="-684.839574199888" r="2" style="fill: rgb(0,0,0)" />
	<circle cx="71.3949548287726" cy="-581.308632257182" r="2" style="fill: rgb(0,0,0)" />
	<circle cx="71.3949548287522" cy="-477.777690314465" r="2" style="fill: rgb(0,0,0)" />
	<circle cx="419.882735485687" cy="-232.820851600253" r="2" style="fill: rgb(0,0,0)" />
	<circle cx="174.92589677149" cy="-194.925896771471" r="2" style="fill: rgb(0,0,0)" />
	<circle cx="264.586322571607" cy="-143.160425800123" r="2" style="fill: rgb(0,0,0)" />
	<circle cx="33.5" cy="-232.820851600233" r="2" style="fill: rgb(0,0,0)" />
	<circle cx="419.882735485683" cy="-619.203587085911" r="2" style="fill: rgb(0,0,0)" />
	<circle cx="85.2654709713753" cy="-633.074103228545" r="2" style="fill: rgb(0,0,0)" />
	<circle cx="226.691367742828" cy="-774.5" r="2" style="fill: rgb(0,0,0)" />
	<circle cx="316.35179354297" cy="-129.289909657535" r="2" style="fill: rgb(0,0,0)" />
	<circle cx="419.882735485683" cy="-129.289909657531" r="2" style="fill: rgb(0,0,0)" />
	<circle cx="123.160425800133" cy="-105.265470971344" r="2" style="fill: rgb(0,0,0)" />
	<circle cx="212.820851600233" cy="-53.5" r="2" style="fill: rgb(0,0,0)" />
	<!--
	Generated using the Perl SVG Module V2.84
	by Ronan Oger
	Info: http://www.roitsystems.com/
	-->
</svg>