<?xml version="1.0" encoding="UTF-8" standalone="yes"?>
<!DOCTYPE svg PUBLIC "-//W3C//DTD SVG 1.0//EN" "http://www.w3.org/TR/2001/REC-SVG-20010904/DTD/svg10.dtd">
<!-- generated using polymake; Michael Joswig, Georg Loho, Benjamin Lorenz, Rico Raber; license CC BY-NC-ND 3.0; see polymake.org and matchthenet.de -->
<svg height="841pt" id="document" viewBox="0 -517.363768528482 572 517.363768528482" width="595pt" xmlns="http://www.w3.org/2000/svg" xmlns:svg="http://www.w3.org/2000/svg" xmlns:xlink="http://www.w3.org/1999/xlink">
	<title id="document_title">planar_net_</title>
	<polygon points="245.715760405455,-246.761413198185 327.397644669694,-246.761413198185 327.397644669696,-328.443297462426 245.71576040546,-328.44329746243 " style="fill: rgb(14,173,105); fill-opacity: 1; stroke: rgb(0,0,0); stroke-width: 3" />
	<polygon points="286.556702537575,-176.022826396373 327.397644669694,-246.761413198185 245.715760405455,-246.761413198185 " style="fill: rgb(14,173,105); fill-opacity: 1; stroke: rgb(0,0,0); stroke-width: 3" />
	<polygon points="409.079528933944,-328.443297462417 409.07952893394,-246.761413198182 490.761413198184,-246.761413198175 490.76141319819,-328.443297462399 " style="fill: rgb(14,173,105); fill-opacity: 1; stroke: rgb(0,0,0); stroke-width: 3" />
	<polygon points="398.136231471508,-205.920471066057 327.397644669694,-246.761413198185 286.556702537575,-176.022826396373 357.295289339389,-135.18188426425 " style="fill: rgb(14,173,105); fill-opacity: 1; stroke: rgb(0,0,0); stroke-width: 3" />
	<polygon points="245.71576040546,-328.44329746243 327.397644669696,-328.443297462426 286.556702537579,-399.181884264243 " style="fill: rgb(14,173,105); fill-opacity: 1; stroke: rgb(0,0,0); stroke-width: 3" />
	<polygon points="327.397644669696,-328.443297462426 398.136231471514,-369.284239594544 357.295289339401,-440.022826396359 286.556702537579,-399.181884264243 " style="fill: rgb(14,173,105); fill-opacity: 1; stroke: rgb(0,0,0); stroke-width: 3" />
	<polygon points="398.136231471508,-205.920471066057 357.295289339389,-135.18188426425 438.977173603629,-135.181884264247 " style="fill: rgb(14,173,105); fill-opacity: 1; stroke: rgb(0,0,0); stroke-width: 3" />
	<polygon points="398.136231471514,-369.284239594544 438.977173603646,-440.022826396353 357.295289339401,-440.022826396359 " style="fill: rgb(14,173,105); fill-opacity: 1; stroke: rgb(0,0,0); stroke-width: 3" />
	<polygon points="245.715760405455,-246.761413198185 174.97717360364,-205.920471066065 215.818115735754,-135.181884264255 286.556702537575,-176.022826396373 " style="fill: rgb(14,173,105); fill-opacity: 1; stroke: rgb(0,0,0); stroke-width: 3" />
	<polygon points="327.397644669696,-328.443297462426 327.397644669694,-246.761413198185 409.07952893394,-246.761413198182 409.079528933944,-328.443297462417 " style="fill: rgb(14,173,105); fill-opacity: 1; stroke: rgb(0,0,0); stroke-width: 3" />
	<polygon points="357.295289339389,-135.18188426425 286.556702537575,-176.022826396373 286.556702537582,-94.3409421321278 " style="fill: rgb(14,173,105); fill-opacity: 1; stroke: rgb(0,0,0); stroke-width: 3" />
	<polygon points="490.76141319819,-328.443297462399 490.761413198184,-246.761413198175 561.5,-287.6023553303 " style="fill: rgb(14,173,105); fill-opacity: 1; stroke: rgb(0,0,0); stroke-width: 3" />
	<polygon points="245.71576040546,-328.44329746243 286.556702537579,-399.181884264243 215.818115735766,-440.022826396367 174.977173603646,-369.284239594559 " style="fill: rgb(14,173,105); fill-opacity: 1; stroke: rgb(0,0,0); stroke-width: 3" />
	<polygon points="286.556702537579,-399.181884264243 357.295289339401,-440.022826396359 286.556702537585,-480.863768528482 " style="fill: rgb(14,173,105); fill-opacity: 1; stroke: rgb(0,0,0); stroke-width: 3" />
	<polygon points="245.715760405455,-246.761413198185 245.71576040546,-328.44329746243 174.977173603645,-287.602355330305 " style="fill: rgb(14,173,105); fill-opacity: 1; stroke: rgb(0,0,0); stroke-width: 3" />
	<polygon points="357.295289339389,-135.18188426425 357.29528933939,-53.5000000000054 438.977173603624,-53.5 438.977173603629,-135.181884264247 " style="fill: rgb(14,173,105); fill-opacity: 1; stroke: rgb(0,0,0); stroke-width: 3" />
	<polygon points="74.3409421321022,-53.5000000000355 145.079528933929,-94.3409421321418 104.23858680182,-165.079528933947 33.5,-124.238586801832 " style="fill: rgb(14,173,105); fill-opacity: 1; stroke: rgb(0,0,0); stroke-width: 3" />
	<polygon points="174.97717360364,-205.920471066065 104.23858680182,-165.079528933947 145.079528933929,-94.3409421321418 215.818115735754,-135.181884264255 " style="fill: rgb(14,173,105); fill-opacity: 1; stroke: rgb(0,0,0); stroke-width: 3" />
	<circle cx="245.715760405455" cy="-246.761413198185" r="2" style="fill: rgb(0,0,0)" />
	<circle cx="327.397644669694" cy="-246.761413198185" r="2" style="fill: rgb(0,0,0)" />
	<circle cx="327.397644669696" cy="-328.443297462426" r="2" style="fill: rgb(0,0,0)" />
	<circle cx="245.71576040546" cy="-328.44329746243" r="2" style="fill: rgb(0,0,0)" />
	<circle cx="286.556702537575" cy="-176.022826396373" r="2" style="fill: rgb(0,0,0)" />
	<circle cx="286.556702537579" cy="-399.181884264243" r="2" style="fill: rgb(0,0,0)" />
	<circle cx="409.07952893394" cy="-246.761413198182" r="2" style="fill: rgb(0,0,0)" />
	<circle cx="409.079528933944" cy="-328.443297462417" r="2" style="fill: rgb(0,0,0)" />
	<circle cx="174.977173603645" cy="-287.602355330305" r="2" style="fill: rgb(0,0,0)" />
	<circle cx="357.295289339389" cy="-135.18188426425" r="2" style="fill: rgb(0,0,0)" />
	<circle cx="398.136231471508" cy="-205.920471066057" r="2" style="fill: rgb(0,0,0)" />
	<circle cx="174.97717360364" cy="-205.920471066065" r="2" style="fill: rgb(0,0,0)" />
	<circle cx="215.818115735754" cy="-135.181884264255" r="2" style="fill: rgb(0,0,0)" />
	<circle cx="398.136231471514" cy="-369.284239594544" r="2" style="fill: rgb(0,0,0)" />
	<circle cx="357.295289339401" cy="-440.022826396359" r="2" style="fill: rgb(0,0,0)" />
	<circle cx="215.818115735766" cy="-440.022826396367" r="2" style="fill: rgb(0,0,0)" />
	<circle cx="174.977173603646" cy="-369.284239594559" r="2" style="fill: rgb(0,0,0)" />
	<circle cx="490.761413198184" cy="-246.761413198175" r="2" style="fill: rgb(0,0,0)" />
	<circle cx="490.76141319819" cy="-328.443297462399" r="2" style="fill: rgb(0,0,0)" />
	<circle cx="438.977173603629" cy="-135.181884264247" r="2" style="fill: rgb(0,0,0)" />
	<circle cx="286.556702537582" cy="-94.3409421321278" r="2" style="fill: rgb(0,0,0)" />
	<circle cx="104.23858680182" cy="-165.079528933947" r="2" style="fill: rgb(0,0,0)" />
	<circle cx="145.079528933929" cy="-94.3409421321418" r="2" style="fill: rgb(0,0,0)" />
	<circle cx="438.977173603646" cy="-440.022826396353" r="2" style="fill: rgb(0,0,0)" />
	<circle cx="286.556702537585" cy="-480.863768528482" r="2" style="fill: rgb(0,0,0)" />
	<circle cx="561.5" cy="-287.6023553303" r="2" style="fill: rgb(0,0,0)" />
	<circle cx="357.29528933939" cy="-53.5000000000054" r="2" style="fill: rgb(0,0,0)" />
	<circle cx="438.977173603624" cy="-53.5" r="2" style="fill: rgb(0,0,0)" />
	<circle cx="33.5" cy="-124.238586801832" r="2" style="fill: rgb(0,0,0)" />
	<circle cx="74.3409421321022" cy="-53.5000000000355" r="2" style="fill: rgb(0,0,0)" />
	<!--
	Generated using the Perl SVG Module V2.87
	by Ronan Oger

	-->
</svg>