<?xml version="1.0" encoding="UTF-8" standalone="yes"?>
<!DOCTYPE svg PUBLIC "-//W3C//DTD SVG 1.0//EN" "http://www.w3.org/TR/2001/REC-SVG-20010904/DTD/svg10.dtd">
<!-- generated using polymake; Michael Joswig, Georg Loho, Benjamin Lorenz, Rico Raber; license CC BY-NC-SA 3.0; see polymake.org and matchthenet.de -->
<svg height="841pt" id="document" viewBox="0 -584.242872683637 572 584.242872683637" width="595pt" xmlns="http://www.w3.org/2000/svg" xmlns:svg="http://www.w3.org/2000/svg" xmlns:xlink="http://www.w3.org/1999/xlink">
	<title id="document_title">planar_net_</title>
	<polygon points="302.669934094486,-306.202233057115 357.323098366472,-306.202233057115 357.323098366474,-360.855397329102 302.66993409449,-360.855397329105 " style="fill: rgb(67,184,206); fill-opacity: 1; stroke: rgb(0,0,0); stroke-width: 3" />
	<polygon points="329.996516230478,-258.871204400368 357.323098366472,-306.202233057115 302.669934094486,-306.202233057115 " style="fill: rgb(14,173,105); fill-opacity: 1; stroke: rgb(0,0,0); stroke-width: 3" />
	<polygon points="357.323098366461,-211.540175743614 329.996516230478,-258.871204400368 282.665487573726,-231.54462226438 309.992069709711,-184.213593607627 " style="fill: rgb(67,184,206); fill-opacity: 1; stroke: rgb(0,0,0); stroke-width: 3" />
	<polygon points="357.323098366461,-211.540175743614 309.992069709711,-184.213593607627 357.323098366458,-156.887011471629 " style="fill: rgb(14,173,105); fill-opacity: 1; stroke: rgb(0,0,0); stroke-width: 3" />
	<polygon points="357.323098366474,-360.855397329102 404.654127023223,-388.181979465097 377.327544887233,-435.513008121837 329.996516230482,-408.186425985846 " style="fill: rgb(67,184,206); fill-opacity: 1; stroke: rgb(0,0,0); stroke-width: 3" />
	<polygon points="463.825799802437,-213.15885060913 458.11298852837,-158.805082089475 508.041138494838,-136.575637520016 544.611243443586,-177.190853744709 517.284661307593,-224.521882401457 " style="fill: rgb(255,210,63); fill-opacity: 1; stroke: rgb(0,0,0); stroke-width: 3" />
	<polygon points="463.825799802437,-213.15885060913 413.897649835969,-190.929406039678 458.11298852837,-158.805082089475 " style="fill: rgb(14,173,105); fill-opacity: 1; stroke: rgb(0,0,0); stroke-width: 3" />
	<polygon points="302.669934094486,-306.202233057115 302.66993409449,-360.855397329105 250.69168607747,-377.74415388552 218.567362127273,-333.528815193119 250.691686077461,-289.313476500711 " style="fill: rgb(255,210,63); fill-opacity: 1; stroke: rgb(0,0,0); stroke-width: 3" />
	<polygon points="309.992069709711,-184.213593607627 282.665487573726,-231.54462226438 235.334458916974,-204.218040128392 262.661041052956,-156.887011471646 " style="fill: rgb(67,184,206); fill-opacity: 1; stroke: rgb(0,0,0); stroke-width: 3" />
	<polygon points="319.558690650906,-412.833645346125 336.447447207326,-464.81189336315 284.469199190314,-481.700649919563 267.58044263389,-429.722401902541 " style="fill: rgb(67,184,206); fill-opacity: 1; stroke: rgb(0,0,0); stroke-width: 3" />
	<polygon points="336.447447207326,-464.81189336315 325.084415414995,-518.27075486831 284.469199190314,-481.700649919563 " style="fill: rgb(14,173,105); fill-opacity: 1; stroke: rgb(0,0,0); stroke-width: 3" />
	<polygon points="228.462241508026,-536.379840891301 175.003380002877,-547.742872683637 147.676797866883,-500.411844026891 184.24690281562,-459.796627802193 234.175052782089,-482.026072371648 " style="fill: rgb(255,210,63); fill-opacity: 1; stroke: rgb(0,0,0); stroke-width: 3" />
	<polygon points="544.611243443586,-177.190853744709 508.041138494838,-136.575637520016 561.5,-125.21260572769 " style="fill: rgb(14,173,105); fill-opacity: 1; stroke: rgb(0,0,0); stroke-width: 3" />
	<polygon points="250.69168607747,-377.74415388552 256.404497351544,-432.097922405171 206.476347385071,-409.868477835717 " style="fill: rgb(14,173,105); fill-opacity: 1; stroke: rgb(0,0,0); stroke-width: 3" />
	<polygon points="119.998254915219,-371.365950417401 70.0701049487519,-393.595394986868 33.5,-352.980178762191 60.8265821359891,-305.649150105444 114.285443641145,-317.012181897756 " style="fill: rgb(255,210,63); fill-opacity: 1; stroke: rgb(0,0,0); stroke-width: 3" />
	<polygon points="218.567362127273,-333.528815193119 174.352023434874,-365.653139143321 168.639212160797,-311.299370623674 " style="fill: rgb(14,173,105); fill-opacity: 1; stroke: rgb(0,0,0); stroke-width: 3" />
	<polygon points="174.352023434874,-365.653139143321 119.998254915219,-371.365950417401 114.285443641145,-317.012181897756 168.639212160797,-311.299370623674 " style="fill: rgb(67,184,206); fill-opacity: 1; stroke: rgb(0,0,0); stroke-width: 3" />
	<polygon points="174.352023434874,-365.653139143321 206.476347385071,-409.868477835717 162.261008692668,-441.99280178592 130.136684742475,-397.777463093525 " style="fill: rgb(67,184,206); fill-opacity: 1; stroke: rgb(0,0,0); stroke-width: 3" />
	<polygon points="130.136684742475,-397.777463093525 162.261008692668,-441.99280178592 107.907240173012,-447.705613059985 " style="fill: rgb(14,173,105); fill-opacity: 1; stroke: rgb(0,0,0); stroke-width: 3" />
	<polygon points="218.567362127273,-333.528815193119 250.69168607747,-377.74415388552 206.476347385071,-409.868477835717 174.352023434874,-365.653139143321 " style="fill: rgb(67,184,206); fill-opacity: 1; stroke: rgb(0,0,0); stroke-width: 3" />
	<polygon points="256.404497351544,-432.097922405171 234.175052782089,-482.026072371648 184.24690281562,-459.796627802193 206.476347385071,-409.868477835717 " style="fill: rgb(67,184,206); fill-opacity: 1; stroke: rgb(0,0,0); stroke-width: 3" />
	<polygon points="162.261008692636,-225.064828600343 130.136684742451,-269.280167292749 107.907240172989,-219.352017326276 " style="fill: rgb(14,173,105); fill-opacity: 1; stroke: rgb(0,0,0); stroke-width: 3" />
	<polygon points="206.47634738505,-257.189152550526 174.352023434866,-301.404491242934 130.136684742451,-269.280167292749 162.261008692636,-225.064828600343 " style="fill: rgb(67,184,206); fill-opacity: 1; stroke: rgb(0,0,0); stroke-width: 3" />
	<polygon points="250.691686077461,-289.313476500711 218.567362127273,-333.528815193119 174.352023434866,-301.404491242934 206.47634738505,-257.189152550526 " style="fill: rgb(67,184,206); fill-opacity: 1; stroke: rgb(0,0,0); stroke-width: 3" />
	<polygon points="345.960066574122,-103.428149966475 291.60629805447,-97.7153386924113 323.730622004658,-53.5 " style="fill: rgb(14,173,105); fill-opacity: 1; stroke: rgb(0,0,0); stroke-width: 3" />
	<polygon points="302.66993409449,-360.855397329105 319.558690650906,-412.833645346125 267.58044263389,-429.722401902541 250.69168607747,-377.74415388552 " style="fill: rgb(67,184,206); fill-opacity: 1; stroke: rgb(0,0,0); stroke-width: 3" />
	<polygon points="255.33890543774,-278.875650921125 228.012323301736,-231.544622264384 282.665487573726,-231.54462226438 " style="fill: rgb(14,173,105); fill-opacity: 1; stroke: rgb(0,0,0); stroke-width: 3" />
	<polygon points="413.897649835984,-476.128224346521 463.825799802452,-453.898779777068 458.112988528385,-508.252548296718 " style="fill: rgb(14,173,105); fill-opacity: 1; stroke: rgb(0,0,0); stroke-width: 3" />
	<polygon points="309.992069709711,-184.213593607627 269.376853485016,-147.643488658882 291.60629805447,-97.7153386924113 345.960066574122,-103.428149966475 357.323098366458,-156.887011471629 " style="fill: rgb(255,210,63); fill-opacity: 1; stroke: rgb(0,0,0); stroke-width: 3" />
	<polygon points="302.66993409449,-360.855397329105 357.323098366474,-360.855397329102 329.996516230482,-408.186425985846 " style="fill: rgb(14,173,105); fill-opacity: 1; stroke: rgb(0,0,0); stroke-width: 3" />
	<polygon points="302.669934094486,-306.202233057115 255.33890543774,-278.875650921125 282.665487573726,-231.54462226438 329.996516230478,-258.871204400368 " style="fill: rgb(67,184,206); fill-opacity: 1; stroke: rgb(0,0,0); stroke-width: 3" />
	<polygon points="458.11298852837,-267.51261912878 463.825799802437,-213.15885060913 508.04113849484,-245.283174559321 " style="fill: rgb(14,173,105); fill-opacity: 1; stroke: rgb(0,0,0); stroke-width: 3" />
	<polygon points="404.654127023223,-388.181979465097 458.112988528379,-399.545011257427 463.825799802452,-453.898779777068 413.897649835984,-476.128224346521 377.327544887233,-435.513008121837 " style="fill: rgb(255,210,63); fill-opacity: 1; stroke: rgb(0,0,0); stroke-width: 3" />
	<polygon points="411.976262638465,-360.855397329095 411.976262638461,-306.202233057112 459.307291295209,-333.528815193111 " style="fill: rgb(14,173,105); fill-opacity: 1; stroke: rgb(0,0,0); stroke-width: 3" />
	<polygon points="404.654127023217,-278.875650921116 377.327544887224,-231.544622264372 413.897649835969,-190.929406039678 463.825799802437,-213.15885060913 458.11298852837,-267.51261912878 " style="fill: rgb(255,210,63); fill-opacity: 1; stroke: rgb(0,0,0); stroke-width: 3" />
	<polygon points="357.323098366474,-360.855397329102 357.323098366472,-306.202233057115 411.976262638461,-306.202233057112 411.976262638465,-360.855397329095 " style="fill: rgb(67,184,206); fill-opacity: 1; stroke: rgb(0,0,0); stroke-width: 3" />
	<polygon points="404.654127023217,-278.875650921116 357.323098366472,-306.202233057115 329.996516230478,-258.871204400368 377.327544887224,-231.544622264372 " style="fill: rgb(67,184,206); fill-opacity: 1; stroke: rgb(0,0,0); stroke-width: 3" />
	<circle cx="302.669934094486" cy="-306.202233057115" r="2" style="fill: rgb(0,0,0)" />
	<circle cx="357.323098366472" cy="-306.202233057115" r="2" style="fill: rgb(0,0,0)" />
	<circle cx="357.323098366474" cy="-360.855397329102" r="2" style="fill: rgb(0,0,0)" />
	<circle cx="302.66993409449" cy="-360.855397329105" r="2" style="fill: rgb(0,0,0)" />
	<circle cx="329.996516230478" cy="-258.871204400368" r="2" style="fill: rgb(0,0,0)" />
	<circle cx="250.69168607747" cy="-377.74415388552" r="2" style="fill: rgb(0,0,0)" />
	<circle cx="218.567362127273" cy="-333.528815193119" r="2" style="fill: rgb(0,0,0)" />
	<circle cx="250.691686077461" cy="-289.313476500711" r="2" style="fill: rgb(0,0,0)" />
	<circle cx="329.996516230482" cy="-408.186425985846" r="2" style="fill: rgb(0,0,0)" />
	<circle cx="411.976262638461" cy="-306.202233057112" r="2" style="fill: rgb(0,0,0)" />
	<circle cx="411.976262638465" cy="-360.855397329095" r="2" style="fill: rgb(0,0,0)" />
	<circle cx="255.33890543774" cy="-278.875650921125" r="2" style="fill: rgb(0,0,0)" />
	<circle cx="282.665487573726" cy="-231.54462226438" r="2" style="fill: rgb(0,0,0)" />
	<circle cx="377.327544887224" cy="-231.544622264372" r="2" style="fill: rgb(0,0,0)" />
	<circle cx="404.654127023217" cy="-278.875650921116" r="2" style="fill: rgb(0,0,0)" />
	<circle cx="206.476347385071" cy="-409.868477835717" r="2" style="fill: rgb(0,0,0)" />
	<circle cx="174.352023434874" cy="-365.653139143321" r="2" style="fill: rgb(0,0,0)" />
	<circle cx="174.352023434866" cy="-301.404491242934" r="2" style="fill: rgb(0,0,0)" />
	<circle cx="206.47634738505" cy="-257.189152550526" r="2" style="fill: rgb(0,0,0)" />
	<circle cx="319.558690650906" cy="-412.833645346125" r="2" style="fill: rgb(0,0,0)" />
	<circle cx="267.58044263389" cy="-429.722401902541" r="2" style="fill: rgb(0,0,0)" />
	<circle cx="404.654127023223" cy="-388.181979465097" r="2" style="fill: rgb(0,0,0)" />
	<circle cx="377.327544887233" cy="-435.513008121837" r="2" style="fill: rgb(0,0,0)" />
	<circle cx="459.307291295209" cy="-333.528815193111" r="2" style="fill: rgb(0,0,0)" />
	<circle cx="309.992069709711" cy="-184.213593607627" r="2" style="fill: rgb(0,0,0)" />
	<circle cx="357.323098366461" cy="-211.540175743614" r="2" style="fill: rgb(0,0,0)" />
	<circle cx="228.012323301736" cy="-231.544622264384" r="2" style="fill: rgb(0,0,0)" />
	<circle cx="413.897649835969" cy="-190.929406039678" r="2" style="fill: rgb(0,0,0)" />
	<circle cx="463.825799802437" cy="-213.15885060913" r="2" style="fill: rgb(0,0,0)" />
	<circle cx="458.11298852837" cy="-267.51261912878" r="2" style="fill: rgb(0,0,0)" />
	<circle cx="256.404497351544" cy="-432.097922405171" r="2" style="fill: rgb(0,0,0)" />
	<circle cx="168.639212160797" cy="-311.299370623674" r="2" style="fill: rgb(0,0,0)" />
	<circle cx="162.261008692668" cy="-441.99280178592" r="2" style="fill: rgb(0,0,0)" />
	<circle cx="130.136684742475" cy="-397.777463093525" r="2" style="fill: rgb(0,0,0)" />
	<circle cx="130.136684742451" cy="-269.280167292749" r="2" style="fill: rgb(0,0,0)" />
	<circle cx="162.261008692636" cy="-225.064828600343" r="2" style="fill: rgb(0,0,0)" />
	<circle cx="336.447447207326" cy="-464.81189336315" r="2" style="fill: rgb(0,0,0)" />
	<circle cx="284.469199190314" cy="-481.700649919563" r="2" style="fill: rgb(0,0,0)" />
	<circle cx="458.112988528379" cy="-399.545011257427" r="2" style="fill: rgb(0,0,0)" />
	<circle cx="463.825799802452" cy="-453.898779777068" r="2" style="fill: rgb(0,0,0)" />
	<circle cx="413.897649835984" cy="-476.128224346521" r="2" style="fill: rgb(0,0,0)" />
	<circle cx="357.323098366458" cy="-156.887011471629" r="2" style="fill: rgb(0,0,0)" />
	<circle cx="235.334458916974" cy="-204.218040128392" r="2" style="fill: rgb(0,0,0)" />
	<circle cx="262.661041052956" cy="-156.887011471646" r="2" style="fill: rgb(0,0,0)" />
	<circle cx="458.11298852837" cy="-158.805082089475" r="2" style="fill: rgb(0,0,0)" />
	<circle cx="508.04113849484" cy="-245.283174559321" r="2" style="fill: rgb(0,0,0)" />
	<circle cx="234.175052782089" cy="-482.026072371648" r="2" style="fill: rgb(0,0,0)" />
	<circle cx="184.24690281562" cy="-459.796627802193" r="2" style="fill: rgb(0,0,0)" />
	<circle cx="119.998254915219" cy="-371.365950417401" r="2" style="fill: rgb(0,0,0)" />
	<circle cx="114.285443641145" cy="-317.012181897756" r="2" style="fill: rgb(0,0,0)" />
	<circle cx="107.907240173012" cy="-447.705613059985" r="2" style="fill: rgb(0,0,0)" />
	<circle cx="107.907240172989" cy="-219.352017326276" r="2" style="fill: rgb(0,0,0)" />
	<circle cx="325.084415414995" cy="-518.27075486831" r="2" style="fill: rgb(0,0,0)" />
	<circle cx="458.112988528385" cy="-508.252548296718" r="2" style="fill: rgb(0,0,0)" />
	<circle cx="269.376853485016" cy="-147.643488658882" r="2" style="fill: rgb(0,0,0)" />
	<circle cx="291.60629805447" cy="-97.7153386924113" r="2" style="fill: rgb(0,0,0)" />
	<circle cx="345.960066574122" cy="-103.428149966475" r="2" style="fill: rgb(0,0,0)" />
	<circle cx="508.041138494838" cy="-136.575637520016" r="2" style="fill: rgb(0,0,0)" />
	<circle cx="544.611243443586" cy="-177.190853744709" r="2" style="fill: rgb(0,0,0)" />
	<circle cx="517.284661307593" cy="-224.521882401457" r="2" style="fill: rgb(0,0,0)" />
	<circle cx="228.462241508026" cy="-536.379840891301" r="2" style="fill: rgb(0,0,0)" />
	<circle cx="175.003380002877" cy="-547.742872683637" r="2" style="fill: rgb(0,0,0)" />
	<circle cx="147.676797866883" cy="-500.411844026891" r="2" style="fill: rgb(0,0,0)" />
	<circle cx="70.0701049487519" cy="-393.595394986868" r="2" style="fill: rgb(0,0,0)" />
	<circle cx="33.5" cy="-352.980178762191" r="2" style="fill: rgb(0,0,0)" />
	<circle cx="60.8265821359891" cy="-305.649150105444" r="2" style="fill: rgb(0,0,0)" />
	<circle cx="323.730622004658" cy="-53.5" r="2" style="fill: rgb(0,0,0)" />
	<circle cx="561.5" cy="-125.21260572769" r="2" style="fill: rgb(0,0,0)" />
	<!-- 
	Generated using the Perl SVG Module V2.64
	by Ronan Oger
	Info: http://www.roitsystems.com/
 -->
</svg>