<?xml version="1.0" encoding="UTF-8" standalone="yes"?>
<!DOCTYPE svg PUBLIC "-//W3C//DTD SVG 1.0//EN" "http://www.w3.org/TR/2001/REC-SVG-20010904/DTD/svg10.dtd">
<!-- generated using polymake; Michael Joswig, Georg Loho, Benjamin Lorenz, Rico Raber; license CC BY-NC-ND 3.0; see polymake.org and matchthenet.de -->
<svg height="841pt" id="document" viewBox="0 -811 567.837162691891 811" width="595pt" xmlns="http://www.w3.org/2000/svg" xmlns:svg="http://www.w3.org/2000/svg" xmlns:xlink="http://www.w3.org/1999/xlink">
	<title id="document_title">planar_net_</title>
	<polygon points="250.677546280948,-414 340.159616410902,-414 367.811096772911,-499.102505888674 295.418581345932,-551.698747055665 223.026065918947,-499.102505888677 " style="fill: rgb(14,173,105); fill-opacity: 1; stroke: rgb(0,0,0); stroke-width: 3" />
	<polygon points="367.811096772902,-328.897494111323 340.159616410902,-414 250.677546280948,-414 223.026065918941,-328.897494111326 295.418581345919,-276.301252944334 " style="fill: rgb(14,173,105); fill-opacity: 1; stroke: rgb(0,0,0); stroke-width: 3" />
	<polygon points="150.63355049195,-276.301252944337 178.285030853942,-191.198747055666 267.767100983897,-191.198747055668 295.418581345919,-276.301252944334 223.026065918941,-328.897494111326 " style="fill: rgb(14,173,105); fill-opacity: 1; stroke: rgb(0,0,0); stroke-width: 3" />
	<polygon points="367.811096772911,-499.102505888674 340.159616410902,-414 427.686288617216,-432.604368498602 " style="fill: rgb(14,173,105); fill-opacity: 1; stroke: rgb(0,0,0); stroke-width: 3" />
	<polygon points="427.686288617209,-395.395631501409 340.159616410902,-414 367.811096772902,-328.897494111323 " style="fill: rgb(14,173,105); fill-opacity: 1; stroke: rgb(0,0,0); stroke-width: 3" />
	<polygon points="412.552131837879,-191.19874705565 440.203612199881,-276.301252944332 367.811096772902,-328.897494111323 295.418581345919,-276.301252944334 323.070061707929,-191.198747055653 " style="fill: rgb(14,173,105); fill-opacity: 1; stroke: rgb(0,0,0); stroke-width: 3" />
	<polygon points="427.686288617209,-395.395631501409 367.811096772902,-328.897494111323 455.337768979209,-310.293125612732 " style="fill: rgb(14,173,105); fill-opacity: 1; stroke: rgb(0,0,0); stroke-width: 3" />
	<polygon points="455.337768979224,-517.706874387281 427.686288617216,-432.604368498602 515.212960823534,-451.208736997192 " style="fill: rgb(14,173,105); fill-opacity: 1; stroke: rgb(0,0,0); stroke-width: 3" />
	<polygon points="412.552131837912,-636.801252944334 440.203612199906,-551.698747055663 529.685682329868,-551.698747055656 557.337162691891,-636.801252944314 484.944647264906,-689.397494111301 " style="fill: rgb(14,173,105); fill-opacity: 1; stroke: rgb(0,0,0); stroke-width: 3" />
	<polygon points="223.026065918913,-53.5 295.418581345898,-106.096241166997 267.767100983897,-191.198747055668 178.285030853942,-191.198747055666 150.633550491933,-106.096241166986 " style="fill: rgb(14,173,105); fill-opacity: 1; stroke: rgb(0,0,0); stroke-width: 3" />
	<polygon points="323.070061707951,-636.801252944331 412.552131837912,-636.801252944334 440.203612199923,-721.903758833013 367.811096772936,-774.5 295.418581345944,-721.903758833003 " style="fill: rgb(14,173,105); fill-opacity: 1; stroke: rgb(0,0,0); stroke-width: 3" />
	<polygon points="367.811096772911,-499.102505888674 427.686288617216,-432.604368498602 455.337768979224,-517.706874387281 " style="fill: rgb(14,173,105); fill-opacity: 1; stroke: rgb(0,0,0); stroke-width: 3" />
	<polygon points="295.418581345932,-551.698747055665 367.811096772911,-499.102505888674 440.203612199906,-551.698747055663 412.552131837912,-636.801252944334 323.070061707951,-636.801252944331 " style="fill: rgb(14,173,105); fill-opacity: 1; stroke: rgb(0,0,0); stroke-width: 3" />
	<polygon points="150.633550491966,-551.698747055668 178.285030853974,-636.80125294435 105.892515426986,-689.397494111343 33.5,-636.801252944349 61.1514803620095,-551.698747055664 " style="fill: rgb(14,173,105); fill-opacity: 1; stroke: rgb(0,0,0); stroke-width: 3" />
	<polygon points="223.026065918947,-499.102505888677 295.418581345932,-551.698747055665 267.767100983927,-636.801252944346 178.285030853974,-636.80125294435 150.633550491966,-551.698747055668 " style="fill: rgb(14,173,105); fill-opacity: 1; stroke: rgb(0,0,0); stroke-width: 3" />
	<polygon points="150.633550491966,-551.698747055668 61.1514803620095,-551.698747055664 105.892515426996,-474.205001139906 " style="fill: rgb(14,173,105); fill-opacity: 1; stroke: rgb(0,0,0); stroke-width: 3" />
	<polygon points="223.026065918941,-328.897494111326 141.280127211256,-365.293130931449 150.63355049195,-276.301252944337 " style="fill: rgb(14,173,105); fill-opacity: 1; stroke: rgb(0,0,0); stroke-width: 3" />
	<polygon points="223.026065918947,-499.102505888677 150.633550491966,-551.698747055668 141.280127211276,-462.706869068543 " style="fill: rgb(14,173,105); fill-opacity: 1; stroke: rgb(0,0,0); stroke-width: 3" />
	<polygon points="250.677546280948,-414 163.150874074636,-395.395631501396 223.026065918941,-328.897494111326 " style="fill: rgb(14,173,105); fill-opacity: 1; stroke: rgb(0,0,0); stroke-width: 3" />
	<polygon points="250.677546280948,-414 223.026065918947,-499.102505888677 163.150874074642,-432.60436849859 " style="fill: rgb(14,173,105); fill-opacity: 1; stroke: rgb(0,0,0); stroke-width: 3" />
	<circle cx="250.677546280948" cy="-414" r="2" style="fill: rgb(0,0,0)" />
	<circle cx="340.159616410902" cy="-414" r="2" style="fill: rgb(0,0,0)" />
	<circle cx="367.811096772911" cy="-499.102505888674" r="2" style="fill: rgb(0,0,0)" />
	<circle cx="295.418581345932" cy="-551.698747055665" r="2" style="fill: rgb(0,0,0)" />
	<circle cx="223.026065918947" cy="-499.102505888677" r="2" style="fill: rgb(0,0,0)" />
	<circle cx="223.026065918941" cy="-328.897494111326" r="2" style="fill: rgb(0,0,0)" />
	<circle cx="295.418581345919" cy="-276.301252944334" r="2" style="fill: rgb(0,0,0)" />
	<circle cx="367.811096772902" cy="-328.897494111323" r="2" style="fill: rgb(0,0,0)" />
	<circle cx="427.686288617216" cy="-432.604368498602" r="2" style="fill: rgb(0,0,0)" />
	<circle cx="440.203612199906" cy="-551.698747055663" r="2" style="fill: rgb(0,0,0)" />
	<circle cx="412.552131837912" cy="-636.801252944334" r="2" style="fill: rgb(0,0,0)" />
	<circle cx="323.070061707951" cy="-636.801252944331" r="2" style="fill: rgb(0,0,0)" />
	<circle cx="267.767100983927" cy="-636.801252944346" r="2" style="fill: rgb(0,0,0)" />
	<circle cx="178.285030853974" cy="-636.80125294435" r="2" style="fill: rgb(0,0,0)" />
	<circle cx="150.633550491966" cy="-551.698747055668" r="2" style="fill: rgb(0,0,0)" />
	<circle cx="163.150874074642" cy="-432.60436849859" r="2" style="fill: rgb(0,0,0)" />
	<circle cx="150.63355049195" cy="-276.301252944337" r="2" style="fill: rgb(0,0,0)" />
	<circle cx="178.285030853942" cy="-191.198747055666" r="2" style="fill: rgb(0,0,0)" />
	<circle cx="267.767100983897" cy="-191.198747055668" r="2" style="fill: rgb(0,0,0)" />
	<circle cx="427.686288617209" cy="-395.395631501409" r="2" style="fill: rgb(0,0,0)" />
	<circle cx="323.070061707929" cy="-191.198747055653" r="2" style="fill: rgb(0,0,0)" />
	<circle cx="412.552131837879" cy="-191.19874705565" r="2" style="fill: rgb(0,0,0)" />
	<circle cx="440.203612199881" cy="-276.301252944332" r="2" style="fill: rgb(0,0,0)" />
	<circle cx="163.150874074636" cy="-395.395631501396" r="2" style="fill: rgb(0,0,0)" />
	<circle cx="455.337768979224" cy="-517.706874387281" r="2" style="fill: rgb(0,0,0)" />
	<circle cx="529.685682329868" cy="-551.698747055656" r="2" style="fill: rgb(0,0,0)" />
	<circle cx="557.337162691891" cy="-636.801252944314" r="2" style="fill: rgb(0,0,0)" />
	<circle cx="484.944647264906" cy="-689.397494111301" r="2" style="fill: rgb(0,0,0)" />
	<circle cx="440.203612199923" cy="-721.903758833013" r="2" style="fill: rgb(0,0,0)" />
	<circle cx="367.811096772936" cy="-774.5" r="2" style="fill: rgb(0,0,0)" />
	<circle cx="295.418581345944" cy="-721.903758833003" r="2" style="fill: rgb(0,0,0)" />
	<circle cx="105.892515426986" cy="-689.397494111343" r="2" style="fill: rgb(0,0,0)" />
	<circle cx="33.5" cy="-636.801252944349" r="2" style="fill: rgb(0,0,0)" />
	<circle cx="61.1514803620095" cy="-551.698747055664" r="2" style="fill: rgb(0,0,0)" />
	<circle cx="141.280127211276" cy="-462.706869068543" r="2" style="fill: rgb(0,0,0)" />
	<circle cx="150.633550491933" cy="-106.096241166986" r="2" style="fill: rgb(0,0,0)" />
	<circle cx="223.026065918913" cy="-53.5" r="2" style="fill: rgb(0,0,0)" />
	<circle cx="295.418581345898" cy="-106.096241166997" r="2" style="fill: rgb(0,0,0)" />
	<circle cx="141.280127211256" cy="-365.293130931449" r="2" style="fill: rgb(0,0,0)" />
	<circle cx="455.337768979209" cy="-310.293125612732" r="2" style="fill: rgb(0,0,0)" />
	<circle cx="515.212960823534" cy="-451.208736997192" r="2" style="fill: rgb(0,0,0)" />
	<circle cx="105.892515426996" cy="-474.205001139906" r="2" style="fill: rgb(0,0,0)" />
	<!--
	Generated using the Perl SVG Module V2.87
	by Ronan Oger

	-->
</svg>