<?xml version="1.0" encoding="UTF-8" standalone="yes"?>
<!DOCTYPE svg PUBLIC "-//W3C//DTD SVG 1.0//EN" "http://www.w3.org/TR/2001/REC-SVG-20010904/DTD/svg10.dtd">
<!-- generated using polymake; Michael Joswig, Georg Loho, Benjamin Lorenz, Rico Raber; license CC BY-NC-ND 3.0; see polymake.org and matchthenet.de -->
<svg height="841pt" id="document" viewBox="0 -811 566.422804683108 811" width="595pt" xmlns="http://www.w3.org/2000/svg" xmlns:svg="http://www.w3.org/2000/svg" xmlns:xlink="http://www.w3.org/1999/xlink">
	<title id="document_title">planar_net_</title>
	<polygon points="205.578299027856,-413.999999999974 301.753681691288,-413.999999999974 287.669122991839,-509.138475059752 216.472128846527,-487.585717424574 " style="fill: rgb(67,184,206); fill-opacity: 1; stroke: rgb(0,0,0); stroke-width: 3" />
	<polygon points="287.669122991814,-318.861524940188 301.753681691288,-413.999999999974 205.578299027856,-413.999999999974 216.47212884651,-340.414282575381 " style="fill: rgb(67,184,206); fill-opacity: 1; stroke: rgb(0,0,0); stroke-width: 3" />
	<polygon points="216.47212884651,-340.414282575381 166.595522912376,-285.224994506945 246.6237110098,-231.884640737054 287.669122991814,-318.861524940188 " style="fill: rgb(67,184,206); fill-opacity: 1; stroke: rgb(0,0,0); stroke-width: 3" />
	<polygon points="166.595522912376,-285.224994506945 134.848576308626,-217.951933640439 182.138585420103,-160.530784442237 246.6237110098,-231.884640737054 " style="fill: rgb(67,184,206); fill-opacity: 1; stroke: rgb(0,0,0); stroke-width: 3" />
	<polygon points="62.7370820865687,-199.690889363842 99.7456954269965,-110.921149198238 182.138585420103,-160.530784442237 134.848576308626,-217.951933640439 " style="fill: rgb(67,184,206); fill-opacity: 1; stroke: rgb(0,0,0); stroke-width: 3" />
	<polygon points="134.848576308692,-610.048066359563 182.138585420205,-667.469215557743 99.7456954271386,-717.078850801803 62.7370820866435,-628.309110636216 " style="fill: rgb(67,184,206); fill-opacity: 1; stroke: rgb(0,0,0); stroke-width: 3" />
	<polygon points="166.59552291241,-542.775005493033 246.623711009856,-596.115359262897 182.138585420205,-667.469215557743 134.848576308692,-610.048066359563 " style="fill: rgb(67,184,206); fill-opacity: 1; stroke: rgb(0,0,0); stroke-width: 3" />
	<polygon points="216.472128846527,-487.585717424574 287.669122991839,-509.138475059752 246.623711009856,-596.115359262897 166.59552291241,-542.775005493033 " style="fill: rgb(67,184,206); fill-opacity: 1; stroke: rgb(0,0,0); stroke-width: 3" />
	<polygon points="287.669122991839,-509.138475059752 301.753681691288,-413.999999999974 372.950675836613,-435.552757635149 383.844505655286,-509.138475059728 " style="fill: rgb(67,184,206); fill-opacity: 1; stroke: rgb(0,0,0); stroke-width: 3" />
	<polygon points="372.950675836611,-392.44724236476 301.753681691288,-413.999999999974 287.669122991814,-318.861524940188 383.844505655251,-318.861524940164 " style="fill: rgb(67,184,206); fill-opacity: 1; stroke: rgb(0,0,0); stroke-width: 3" />
	<polygon points="367.697311089254,-265.521171170259 287.669122991814,-318.861524940188 246.6237110098,-231.884640737054 317.820705155113,-210.331883101841 " style="fill: rgb(67,184,206); fill-opacity: 1; stroke: rgb(0,0,0); stroke-width: 3" />
	<polygon points="293.913720121296,-174.463491538818 246.6237110098,-231.884640737054 182.138585420103,-160.530784442237 262.166773517537,-107.190430672316 " style="fill: rgb(67,184,206); fill-opacity: 1; stroke: rgb(0,0,0); stroke-width: 3" />
	<polygon points="219.147198760531,-71.7610442765757 182.138585420103,-160.530784442237 99.7456954269965,-110.921149198238 147.035704538475,-53.5 " style="fill: rgb(67,184,206); fill-opacity: 1; stroke: rgb(0,0,0); stroke-width: 3" />
	<polygon points="182.138585420205,-667.469215557743 219.147198760718,-756.23895572336 147.03570453868,-774.5 99.7456954271386,-717.078850801803 " style="fill: rgb(67,184,206); fill-opacity: 1; stroke: rgb(0,0,0); stroke-width: 3" />
	<polygon points="246.623711009856,-596.115359262897 293.913720121392,-653.536508461088 262.166773517691,-720.809569327603 182.138585420205,-667.469215557743 " style="fill: rgb(67,184,206); fill-opacity: 1; stroke: rgb(0,0,0); stroke-width: 3" />
	<polygon points="287.669122991839,-509.138475059752 367.697311089302,-562.478828829628 317.82070515519,-617.668116898072 246.623711009856,-596.115359262897 " style="fill: rgb(67,184,206); fill-opacity: 1; stroke: rgb(0,0,0); stroke-width: 3" />
	<polygon points="383.844505655286,-509.138475059728 372.950675836613,-435.552757635149 434.849204603661,-394.296176663325 475.894616585665,-481.27306086644 " style="fill: rgb(67,184,206); fill-opacity: 1; stroke: rgb(0,0,0); stroke-width: 3" />
	<polygon points="475.894616585665,-481.27306086644 434.849204603661,-394.296176663325 506.046198748975,-372.743419028114 555.922804683108,-427.932707096517 " style="fill: rgb(67,184,206); fill-opacity: 1; stroke: rgb(0,0,0); stroke-width: 3" />
	<polygon points="367.697311089302,-562.478828829628 428.838243187223,-636.71824324445 346.445353194174,-686.327878488503 317.82070515519,-617.668116898072 " style="fill: rgb(67,184,206); fill-opacity: 1; stroke: rgb(0,0,0); stroke-width: 3" />
	<polygon points="428.838243187223,-636.71824324445 465.846856527741,-725.487983410066 393.735362305714,-743.749027686701 346.445353194174,-686.327878488503 " style="fill: rgb(67,184,206); fill-opacity: 1; stroke: rgb(0,0,0); stroke-width: 3" />
	<polygon points="113.528188097474,-441.865414193247 154.573600079478,-528.842298396394 83.3766059341611,-550.395056031595 33.500000000026,-495.205767963165 " style="fill: rgb(67,184,206); fill-opacity: 1; stroke: rgb(0,0,0); stroke-width: 3" />
	<polygon points="205.578299027856,-413.999999999974 216.472128846527,-487.585717424574 154.573600079478,-528.842298396394 113.528188097474,-441.865414193247 " style="fill: rgb(67,184,206); fill-opacity: 1; stroke: rgb(0,0,0); stroke-width: 3" />
	<polygon points="113.52818809747,-386.134585806723 33.5,-332.794232036856 83.3766059341044,-277.60494396841 154.57360007944,-299.157701603577 " style="fill: rgb(67,184,206); fill-opacity: 1; stroke: rgb(0,0,0); stroke-width: 3" />
	<polygon points="205.578299027856,-413.999999999974 113.52818809747,-386.134585806723 154.57360007944,-299.157701603577 216.47212884651,-340.414282575381 " style="fill: rgb(67,184,206); fill-opacity: 1; stroke: rgb(0,0,0); stroke-width: 3" />
	<circle cx="205.578299027856" cy="-413.999999999974" r="2" style="fill: rgb(0,0,0)" />
	<circle cx="301.753681691288" cy="-413.999999999974" r="2" style="fill: rgb(0,0,0)" />
	<circle cx="287.669122991839" cy="-509.138475059752" r="2" style="fill: rgb(0,0,0)" />
	<circle cx="216.472128846527" cy="-487.585717424574" r="2" style="fill: rgb(0,0,0)" />
	<circle cx="216.47212884651" cy="-340.414282575381" r="2" style="fill: rgb(0,0,0)" />
	<circle cx="287.669122991814" cy="-318.861524940188" r="2" style="fill: rgb(0,0,0)" />
	<circle cx="246.623711009856" cy="-596.115359262897" r="2" style="fill: rgb(0,0,0)" />
	<circle cx="166.59552291241" cy="-542.775005493033" r="2" style="fill: rgb(0,0,0)" />
	<circle cx="372.950675836613" cy="-435.552757635149" r="2" style="fill: rgb(0,0,0)" />
	<circle cx="383.844505655286" cy="-509.138475059728" r="2" style="fill: rgb(0,0,0)" />
	<circle cx="154.573600079478" cy="-528.842298396394" r="2" style="fill: rgb(0,0,0)" />
	<circle cx="113.528188097474" cy="-441.865414193247" r="2" style="fill: rgb(0,0,0)" />
	<circle cx="166.595522912376" cy="-285.224994506945" r="2" style="fill: rgb(0,0,0)" />
	<circle cx="246.6237110098" cy="-231.884640737054" r="2" style="fill: rgb(0,0,0)" />
	<circle cx="383.844505655251" cy="-318.861524940164" r="2" style="fill: rgb(0,0,0)" />
	<circle cx="372.950675836611" cy="-392.44724236476" r="2" style="fill: rgb(0,0,0)" />
	<circle cx="113.52818809747" cy="-386.134585806723" r="2" style="fill: rgb(0,0,0)" />
	<circle cx="154.57360007944" cy="-299.157701603577" r="2" style="fill: rgb(0,0,0)" />
	<circle cx="182.138585420205" cy="-667.469215557743" r="2" style="fill: rgb(0,0,0)" />
	<circle cx="134.848576308692" cy="-610.048066359563" r="2" style="fill: rgb(0,0,0)" />
	<circle cx="367.697311089302" cy="-562.478828829628" r="2" style="fill: rgb(0,0,0)" />
	<circle cx="317.82070515519" cy="-617.668116898072" r="2" style="fill: rgb(0,0,0)" />
	<circle cx="434.849204603661" cy="-394.296176663325" r="2" style="fill: rgb(0,0,0)" />
	<circle cx="475.894616585665" cy="-481.27306086644" r="2" style="fill: rgb(0,0,0)" />
	<circle cx="83.3766059341611" cy="-550.395056031595" r="2" style="fill: rgb(0,0,0)" />
	<circle cx="33.500000000026" cy="-495.205767963165" r="2" style="fill: rgb(0,0,0)" />
	<circle cx="134.848576308626" cy="-217.951933640439" r="2" style="fill: rgb(0,0,0)" />
	<circle cx="182.138585420103" cy="-160.530784442237" r="2" style="fill: rgb(0,0,0)" />
	<circle cx="317.820705155113" cy="-210.331883101841" r="2" style="fill: rgb(0,0,0)" />
	<circle cx="367.697311089254" cy="-265.521171170259" r="2" style="fill: rgb(0,0,0)" />
	<circle cx="33.5" cy="-332.794232036856" r="2" style="fill: rgb(0,0,0)" />
	<circle cx="83.3766059341044" cy="-277.60494396841" r="2" style="fill: rgb(0,0,0)" />
	<circle cx="99.7456954271386" cy="-717.078850801803" r="2" style="fill: rgb(0,0,0)" />
	<circle cx="62.7370820866435" cy="-628.309110636216" r="2" style="fill: rgb(0,0,0)" />
	<circle cx="293.913720121392" cy="-653.536508461088" r="2" style="fill: rgb(0,0,0)" />
	<circle cx="262.166773517691" cy="-720.809569327603" r="2" style="fill: rgb(0,0,0)" />
	<circle cx="428.838243187223" cy="-636.71824324445" r="2" style="fill: rgb(0,0,0)" />
	<circle cx="346.445353194174" cy="-686.327878488503" r="2" style="fill: rgb(0,0,0)" />
	<circle cx="506.046198748975" cy="-372.743419028114" r="2" style="fill: rgb(0,0,0)" />
	<circle cx="555.922804683108" cy="-427.932707096517" r="2" style="fill: rgb(0,0,0)" />
	<circle cx="62.7370820865687" cy="-199.690889363842" r="2" style="fill: rgb(0,0,0)" />
	<circle cx="99.7456954269965" cy="-110.921149198238" r="2" style="fill: rgb(0,0,0)" />
	<circle cx="262.166773517537" cy="-107.190430672316" r="2" style="fill: rgb(0,0,0)" />
	<circle cx="293.913720121296" cy="-174.463491538818" r="2" style="fill: rgb(0,0,0)" />
	<circle cx="219.147198760718" cy="-756.23895572336" r="2" style="fill: rgb(0,0,0)" />
	<circle cx="147.03570453868" cy="-774.5" r="2" style="fill: rgb(0,0,0)" />
	<circle cx="465.846856527741" cy="-725.487983410066" r="2" style="fill: rgb(0,0,0)" />
	<circle cx="393.735362305714" cy="-743.749027686701" r="2" style="fill: rgb(0,0,0)" />
	<circle cx="147.035704538475" cy="-53.5" r="2" style="fill: rgb(0,0,0)" />
	<circle cx="219.147198760531" cy="-71.7610442765757" r="2" style="fill: rgb(0,0,0)" />
	<!--
	Generated using the Perl SVG Module V2.87
	by Ronan Oger

	-->
</svg>