<?xml version="1.0" encoding="UTF-8" standalone="yes"?>
<!DOCTYPE svg PUBLIC "-//W3C//DTD SVG 1.0//EN" "http://www.w3.org/TR/2001/REC-SVG-20010904/DTD/svg10.dtd">
<!-- generated using polymake; Michael Joswig, Georg Loho, Benjamin Lorenz, Rico Raber; license CC BY-NC-ND 3.0; see polymake.org and matchthenet.de -->
<svg height="841pt" id="document" viewBox="0 -754.936189003163 572 754.936189003163" width="595pt" xmlns="http://www.w3.org/2000/svg" xmlns:svg="http://www.w3.org/2000/svg" xmlns:xlink="http://www.w3.org/1999/xlink">
	<title id="document_title">planar_net_</title>
	<polygon points="231.119959838503,-382.657628438896 363.880040161504,-382.657628438896 336.670155691005,-431.126166258502 258.329844309001,-431.126166258502 " style="fill: rgb(67,184,206); fill-opacity: 1; stroke: rgb(0,0,0); stroke-width: 3" />
	<polygon points="297.500000000014,-272.175382359828 363.880040161504,-382.657628438896 231.119959838503,-382.657628438896 " style="fill: rgb(14,173,105); fill-opacity: 1; stroke: rgb(0,0,0); stroke-width: 3" />
	<polygon points="231.119959838503,-382.657628438896 258.329844309001,-431.126166258502 217.53605074619,-498.007185944093 161.988407837507,-495.998121843992 " style="fill: rgb(67,184,206); fill-opacity: 1; stroke: rgb(0,0,0); stroke-width: 3" />
	<polygon points="231.119959838503,-382.657628438896 172.892489278234,-267.669811246494 297.500000000014,-272.175382359828 " style="fill: rgb(14,173,105); fill-opacity: 1; stroke: rgb(0,0,0); stroke-width: 3" />
	<polygon points="336.670155691005,-431.126166258502 363.880040161504,-382.657628438896 433.011592162496,-495.998121843963 377.463949253819,-498.007185944092 " style="fill: rgb(67,184,206); fill-opacity: 1; stroke: rgb(0,0,0); stroke-width: 3" />
	<polygon points="231.119959838503,-382.657628438896 161.988407837507,-495.998121843992 102.232816657174,-381.796958306976 " style="fill: rgb(14,173,105); fill-opacity: 1; stroke: rgb(0,0,0); stroke-width: 3" />
	<polygon points="422.107510721796,-267.669811246515 363.880040161504,-382.657628438896 297.500000000014,-272.175382359828 " style="fill: rgb(14,173,105); fill-opacity: 1; stroke: rgb(0,0,0); stroke-width: 3" />
	<polygon points="433.011592162496,-495.998121843963 363.880040161504,-382.657628438896 492.767183342831,-381.796958306959 " style="fill: rgb(14,173,105); fill-opacity: 1; stroke: rgb(0,0,0); stroke-width: 3" />
	<polygon points="217.53605074619,-498.007185944093 253.391629456418,-567.660483517037 222.751371701504,-614.036679738609 161.988407837507,-495.998121843992 " style="fill: rgb(67,184,206); fill-opacity: 1; stroke: rgb(0,0,0); stroke-width: 3" />
	<polygon points="377.463949253819,-498.007185944092 433.011592162496,-495.998121843963 372.248628298576,-614.036679738584 341.608370543626,-567.660483517048 " style="fill: rgb(67,184,206); fill-opacity: 1; stroke: rgb(0,0,0); stroke-width: 3" />
	<polygon points="297.500000000014,-272.175382359828 172.892489278234,-267.669811246494 239.00597993583,-164.559343202471 " style="fill: rgb(14,173,105); fill-opacity: 1; stroke: rgb(0,0,0); stroke-width: 3" />
	<polygon points="422.107510721796,-267.669811246515 297.500000000014,-272.175382359828 355.994020064237,-164.559343202481 " style="fill: rgb(14,173,105); fill-opacity: 1; stroke: rgb(0,0,0); stroke-width: 3" />
	<polygon points="102.232816657174,-381.796958306976 161.988407837507,-495.998121843992 33.5,-485.831240222637 " style="fill: rgb(14,173,105); fill-opacity: 1; stroke: rgb(0,0,0); stroke-width: 3" />
	<polygon points="161.988407837507,-495.998121843992 222.751371701504,-614.036679738609 94.1388178358403,-605.58402224695 " style="fill: rgb(14,173,105); fill-opacity: 1; stroke: rgb(0,0,0); stroke-width: 3" />
	<polygon points="433.011592162496,-495.998121843963 492.767183342831,-381.796958306959 561.5,-485.831240222626 " style="fill: rgb(14,173,105); fill-opacity: 1; stroke: rgb(0,0,0); stroke-width: 3" />
	<polygon points="172.892489278234,-267.669811246494 116.798253910106,-156.311072667967 239.00597993583,-164.559343202471 " style="fill: rgb(14,173,105); fill-opacity: 1; stroke: rgb(0,0,0); stroke-width: 3" />
	<polygon points="372.248628298576,-614.036679738584 433.011592162496,-495.998121843963 500.861182164227,-605.584022246875 " style="fill: rgb(14,173,105); fill-opacity: 1; stroke: rgb(0,0,0); stroke-width: 3" />
	<polygon points="478.201746089964,-156.311072668003 422.107510721796,-267.669811246515 355.994020064237,-164.559343202481 " style="fill: rgb(14,173,105); fill-opacity: 1; stroke: rgb(0,0,0); stroke-width: 3" />
	<polygon points="222.751371701504,-614.036679738609 147.164475377864,-718.436189003163 94.1388178358403,-605.58402224695 " style="fill: rgb(14,173,105); fill-opacity: 1; stroke: rgb(0,0,0); stroke-width: 3" />
	<polygon points="187.347635453797,-53.5 239.00597993583,-164.559343202471 116.798253910106,-156.311072667967 " style="fill: rgb(14,173,105); fill-opacity: 1; stroke: rgb(0,0,0); stroke-width: 3" />
	<polygon points="258.329844309001,-431.126166258502 336.670155691005,-431.126166258502 360.878643252671,-505.632229886948 297.500000000008,-551.679509577291 234.12135674734,-505.632229886948 " style="fill: rgb(255,210,63); fill-opacity: 1; stroke: rgb(0,0,0); stroke-width: 3" />
	<circle cx="231.119959838503" cy="-382.657628438896" r="2" style="fill: rgb(0,0,0)" />
	<circle cx="363.880040161504" cy="-382.657628438896" r="2" style="fill: rgb(0,0,0)" />
	<circle cx="336.670155691005" cy="-431.126166258502" r="2" style="fill: rgb(0,0,0)" />
	<circle cx="258.329844309001" cy="-431.126166258502" r="2" style="fill: rgb(0,0,0)" />
	<circle cx="297.500000000014" cy="-272.175382359828" r="2" style="fill: rgb(0,0,0)" />
	<circle cx="217.53605074619" cy="-498.007185944093" r="2" style="fill: rgb(0,0,0)" />
	<circle cx="161.988407837507" cy="-495.998121843992" r="2" style="fill: rgb(0,0,0)" />
	<circle cx="433.011592162496" cy="-495.998121843963" r="2" style="fill: rgb(0,0,0)" />
	<circle cx="377.463949253819" cy="-498.007185944092" r="2" style="fill: rgb(0,0,0)" />
	<circle cx="360.878643252671" cy="-505.632229886948" r="2" style="fill: rgb(0,0,0)" />
	<circle cx="297.500000000008" cy="-551.679509577291" r="2" style="fill: rgb(0,0,0)" />
	<circle cx="234.12135674734" cy="-505.632229886948" r="2" style="fill: rgb(0,0,0)" />
	<circle cx="172.892489278234" cy="-267.669811246494" r="2" style="fill: rgb(0,0,0)" />
	<circle cx="422.107510721796" cy="-267.669811246515" r="2" style="fill: rgb(0,0,0)" />
	<circle cx="102.232816657174" cy="-381.796958306976" r="2" style="fill: rgb(0,0,0)" />
	<circle cx="253.391629456418" cy="-567.660483517037" r="2" style="fill: rgb(0,0,0)" />
	<circle cx="222.751371701504" cy="-614.036679738609" r="2" style="fill: rgb(0,0,0)" />
	<circle cx="492.767183342831" cy="-381.796958306959" r="2" style="fill: rgb(0,0,0)" />
	<circle cx="372.248628298576" cy="-614.036679738584" r="2" style="fill: rgb(0,0,0)" />
	<circle cx="341.608370543626" cy="-567.660483517048" r="2" style="fill: rgb(0,0,0)" />
	<circle cx="239.00597993583" cy="-164.559343202471" r="2" style="fill: rgb(0,0,0)" />
	<circle cx="355.994020064237" cy="-164.559343202481" r="2" style="fill: rgb(0,0,0)" />
	<circle cx="33.5" cy="-485.831240222637" r="2" style="fill: rgb(0,0,0)" />
	<circle cx="94.1388178358403" cy="-605.58402224695" r="2" style="fill: rgb(0,0,0)" />
	<circle cx="561.5" cy="-485.831240222626" r="2" style="fill: rgb(0,0,0)" />
	<circle cx="500.861182164227" cy="-605.584022246875" r="2" style="fill: rgb(0,0,0)" />
	<circle cx="116.798253910106" cy="-156.311072667967" r="2" style="fill: rgb(0,0,0)" />
	<circle cx="478.201746089964" cy="-156.311072668003" r="2" style="fill: rgb(0,0,0)" />
	<circle cx="147.164475377864" cy="-718.436189003163" r="2" style="fill: rgb(0,0,0)" />
	<circle cx="187.347635453797" cy="-53.5" r="2" style="fill: rgb(0,0,0)" />
	<!--
	Generated using the Perl SVG Module V2.87
	by Ronan Oger

	-->
</svg>