<?xml version="1.0" encoding="UTF-8" standalone="yes"?>
<!DOCTYPE svg PUBLIC "-//W3C//DTD SVG 1.0//EN" "http://www.w3.org/TR/2001/REC-SVG-20010904/DTD/svg10.dtd">
<!-- generated using polymake; Michael Joswig, Georg Loho, Benjamin Lorenz, Rico Raber; license CC BY-NC-ND 3.0; see polymake.org and matchthenet.de -->
<svg height="841pt" id="document" viewBox="0 -719.97719447583 572 719.97719447583" width="595pt" xmlns="http://www.w3.org/2000/svg" xmlns:svg="http://www.w3.org/2000/svg" xmlns:xlink="http://www.w3.org/1999/xlink">
	<title id="document_title">planar_net_</title>
	<polygon points="304.825956585306,-357.66453961417 468.891036588129,-357.66453961417 375.495350322641,-423.714411601884 309.466917634751,-395.476134585261 " style="fill: rgb(67,184,206); fill-opacity: 1; stroke: rgb(0,0,0); stroke-width: 3" />
	<polygon points="414.222879336042,-512.353721714906 468.891036588129,-357.66453961417 500.045933243297,-467.731393012464 451.420054312875,-520.57718859102 " style="fill: rgb(67,184,206); fill-opacity: 1; stroke: rgb(0,0,0); stroke-width: 3" />
	<polygon points="304.825956585306,-357.66453961417 309.466917634763,-319.852944643078 375.495350322655,-291.614667626458 468.891036588129,-357.66453961417 " style="fill: rgb(67,184,206); fill-opacity: 1; stroke: rgb(0,0,0); stroke-width: 3" />
	<polygon points="500.045933243315,-247.597686215899 468.891036588129,-357.66453961417 414.222879336068,-202.975357513427 451.420054312916,-194.751890637317 " style="fill: rgb(67,184,206); fill-opacity: 1; stroke: rgb(0,0,0); stroke-width: 3" />
	<polygon points="375.495350322641,-423.714411601884 468.891036588129,-357.66453961417 414.222879336042,-512.353721714906 380.11853542901,-495.378770746146 " style="fill: rgb(67,184,206); fill-opacity: 1; stroke: rgb(0,0,0); stroke-width: 3" />
	<polygon points="414.222879336068,-202.975357513427 468.891036588129,-357.66453961417 375.495350322655,-291.614667626458 380.11853542904,-219.950308482182 " style="fill: rgb(67,184,206); fill-opacity: 1; stroke: rgb(0,0,0); stroke-width: 3" />
	<polygon points="309.466917634751,-395.476134585261 375.495350322641,-423.714411601884 360.940050481482,-494.037220551911 214.73079380413,-507.673058095791 " style="fill: rgb(67,184,206); fill-opacity: 1; stroke: rgb(0,0,0); stroke-width: 3" />
	<polygon points="309.466917634763,-319.852944643078 214.730793804121,-207.656021132587 360.940050481496,-221.291858676438 375.495350322655,-291.614667626458 " style="fill: rgb(67,184,206); fill-opacity: 1; stroke: rgb(0,0,0); stroke-width: 3" />
	<polygon points="451.420054312875,-520.57718859102 500.045933243297,-467.731393012464 561.5,-504.887171717147 525.638169568257,-647.284545013673 " style="fill: rgb(67,184,206); fill-opacity: 1; stroke: rgb(0,0,0); stroke-width: 3" />
	<polygon points="304.825956585306,-357.66453961417 309.466917634751,-395.476134585261 189.661298135316,-480.386065335616 190.646645866736,-401.058648033167 " style="fill: rgb(67,184,206); fill-opacity: 1; stroke: rgb(0,0,0); stroke-width: 3" />
	<polygon points="304.825956585306,-357.66453961417 190.646645866749,-314.270431195141 189.661298135354,-234.943013892686 309.466917634763,-319.852944643078 " style="fill: rgb(67,184,206); fill-opacity: 1; stroke: rgb(0,0,0); stroke-width: 3" />
	<polygon points="380.11853542901,-495.378770746146 414.222879336042,-512.353721714906 335.262922394547,-605.548618793259 260.14053531987,-580.044952267962 " style="fill: rgb(67,184,206); fill-opacity: 1; stroke: rgb(0,0,0); stroke-width: 3" />
	<polygon points="260.140535319913,-135.28412696035 335.262922394581,-109.780460435068 414.222879336068,-202.975357513427 380.11853542904,-219.950308482182 " style="fill: rgb(67,184,206); fill-opacity: 1; stroke: rgb(0,0,0); stroke-width: 3" />
	<polygon points="414.222879336042,-512.353721714906 451.420054312875,-520.57718859102 491.557146821629,-661.829079228345 417.091415565844,-634.467337423994 " style="fill: rgb(67,184,206); fill-opacity: 1; stroke: rgb(0,0,0); stroke-width: 3" />
	<polygon points="451.420054312916,-194.751890637317 414.222879336068,-202.975357513427 417.091415565882,-80.8617418043422 491.557146821696,-53.5 " style="fill: rgb(67,184,206); fill-opacity: 1; stroke: rgb(0,0,0); stroke-width: 3" />
	<polygon points="190.646645866736,-401.058648033167 189.661298135316,-480.386065335616 114.288268258302,-444.282653927806 122.124421315324,-361.077217486501 " style="fill: rgb(67,184,206); fill-opacity: 1; stroke: rgb(0,0,0); stroke-width: 3" />
	<polygon points="260.14053531987,-580.044952267962 335.262922394547,-605.548618793259 350.127213097955,-683.47719447583 269.065667540626,-663.140631836544 " style="fill: rgb(67,184,206); fill-opacity: 1; stroke: rgb(0,0,0); stroke-width: 3" />
	<polygon points="122.124421315324,-361.077217486501 114.288268258302,-444.282653927806 33.5,-465.679047547953 47.3424701690705,-387.562493184319 " style="fill: rgb(67,184,206); fill-opacity: 1; stroke: rgb(0,0,0); stroke-width: 3" />
	<circle cx="304.825956585306" cy="-357.66453961417" r="2" style="fill: rgb(0,0,0)" />
	<circle cx="468.891036588129" cy="-357.66453961417" r="2" style="fill: rgb(0,0,0)" />
	<circle cx="375.495350322641" cy="-423.714411601884" r="2" style="fill: rgb(0,0,0)" />
	<circle cx="309.466917634751" cy="-395.476134585261" r="2" style="fill: rgb(0,0,0)" />
	<circle cx="309.466917634763" cy="-319.852944643078" r="2" style="fill: rgb(0,0,0)" />
	<circle cx="375.495350322655" cy="-291.614667626458" r="2" style="fill: rgb(0,0,0)" />
	<circle cx="414.222879336042" cy="-512.353721714906" r="2" style="fill: rgb(0,0,0)" />
	<circle cx="380.11853542901" cy="-495.378770746146" r="2" style="fill: rgb(0,0,0)" />
	<circle cx="360.940050481482" cy="-494.037220551911" r="2" style="fill: rgb(0,0,0)" />
	<circle cx="214.73079380413" cy="-507.673058095791" r="2" style="fill: rgb(0,0,0)" />
	<circle cx="189.661298135316" cy="-480.386065335616" r="2" style="fill: rgb(0,0,0)" />
	<circle cx="190.646645866736" cy="-401.058648033167" r="2" style="fill: rgb(0,0,0)" />
	<circle cx="380.11853542904" cy="-219.950308482182" r="2" style="fill: rgb(0,0,0)" />
	<circle cx="414.222879336068" cy="-202.975357513427" r="2" style="fill: rgb(0,0,0)" />
	<circle cx="214.730793804121" cy="-207.656021132587" r="2" style="fill: rgb(0,0,0)" />
	<circle cx="360.940050481496" cy="-221.291858676438" r="2" style="fill: rgb(0,0,0)" />
	<circle cx="190.646645866749" cy="-314.270431195141" r="2" style="fill: rgb(0,0,0)" />
	<circle cx="189.661298135354" cy="-234.943013892686" r="2" style="fill: rgb(0,0,0)" />
	<circle cx="500.045933243297" cy="-467.731393012464" r="2" style="fill: rgb(0,0,0)" />
	<circle cx="451.420054312875" cy="-520.57718859102" r="2" style="fill: rgb(0,0,0)" />
	<circle cx="335.262922394547" cy="-605.548618793259" r="2" style="fill: rgb(0,0,0)" />
	<circle cx="260.14053531987" cy="-580.044952267962" r="2" style="fill: rgb(0,0,0)" />
	<circle cx="114.288268258302" cy="-444.282653927806" r="2" style="fill: rgb(0,0,0)" />
	<circle cx="122.124421315324" cy="-361.077217486501" r="2" style="fill: rgb(0,0,0)" />
	<circle cx="451.420054312916" cy="-194.751890637317" r="2" style="fill: rgb(0,0,0)" />
	<circle cx="500.045933243315" cy="-247.597686215899" r="2" style="fill: rgb(0,0,0)" />
	<circle cx="260.140535319913" cy="-135.28412696035" r="2" style="fill: rgb(0,0,0)" />
	<circle cx="335.262922394581" cy="-109.780460435068" r="2" style="fill: rgb(0,0,0)" />
	<circle cx="561.5" cy="-504.887171717147" r="2" style="fill: rgb(0,0,0)" />
	<circle cx="525.638169568257" cy="-647.284545013673" r="2" style="fill: rgb(0,0,0)" />
	<circle cx="491.557146821629" cy="-661.829079228345" r="2" style="fill: rgb(0,0,0)" />
	<circle cx="417.091415565844" cy="-634.467337423994" r="2" style="fill: rgb(0,0,0)" />
	<circle cx="350.127213097955" cy="-683.47719447583" r="2" style="fill: rgb(0,0,0)" />
	<circle cx="269.065667540626" cy="-663.140631836544" r="2" style="fill: rgb(0,0,0)" />
	<circle cx="33.5" cy="-465.679047547953" r="2" style="fill: rgb(0,0,0)" />
	<circle cx="47.3424701690705" cy="-387.562493184319" r="2" style="fill: rgb(0,0,0)" />
	<circle cx="417.091415565882" cy="-80.8617418043422" r="2" style="fill: rgb(0,0,0)" />
	<circle cx="491.557146821696" cy="-53.5" r="2" style="fill: rgb(0,0,0)" />
	<!--
	Generated using the Perl SVG Module V2.87
	by Ronan Oger

	-->
</svg>