<?xml version="1.0" encoding="UTF-8" standalone="yes"?>
<!DOCTYPE svg PUBLIC "-//W3C//DTD SVG 1.0//EN" "http://www.w3.org/TR/2001/REC-SVG-20010904/DTD/svg10.dtd">
<!-- generated using polymake; Michael Joswig, Georg Loho, Benjamin Lorenz, Rico Raber; license CC BY-NC-ND 3.0; see polymake.org and matchthenet.de -->
<svg height="841pt" id="document" viewBox="0 -811 560.213446564152 811" width="595pt" xmlns="http://www.w3.org/2000/svg" xmlns:svg="http://www.w3.org/2000/svg" xmlns:xlink="http://www.w3.org/1999/xlink">
	<title id="document_title">planar_net_</title>
	<polygon points="210.851461457365,-392.361378250635 329.085571221423,-392.361378250635 269.968506661679,-494.755195595086 " style="fill: rgb(14,173,105); fill-opacity: 1; stroke: rgb(0,0,0); stroke-width: 3" />
	<polygon points="151.734629320512,-289.967516267129 92.6180578321571,-187.573655306445 210.85149927496,-187.573638218728 " style="fill: rgb(14,173,105); fill-opacity: 1; stroke: rgb(0,0,0); stroke-width: 3" />
	<polygon points="431.479368960925,-333.244032815942 329.085571221423,-392.361378250635 269.968274062828,-289.967606844657 372.361933153836,-230.850322969297 " style="fill: rgb(67,184,206); fill-opacity: 1; stroke: rgb(0,0,0); stroke-width: 3" />
	<polygon points="92.6173597193557,-392.361326053451 151.734286810344,-494.754913887357 33.5,-494.754731928951 " style="fill: rgb(14,173,105); fill-opacity: 1; stroke: rgb(0,0,0); stroke-width: 3" />
	<polygon points="431.479368960925,-333.244032815942 372.361933153836,-230.850322969297 490.595974378442,-230.850092513069 " style="fill: rgb(14,173,105); fill-opacity: 1; stroke: rgb(0,0,0); stroke-width: 3" />
	<polygon points="490.595974378442,-230.850092513069 372.361933153836,-230.850322969297 431.478383811175,-128.456598702606 " style="fill: rgb(14,173,105); fill-opacity: 1; stroke: rgb(0,0,0); stroke-width: 3" />
	<polygon points="210.851196885284,-715.383286218848 313.245120272753,-656.266218265168 313.244891198527,-774.5 " style="fill: rgb(14,173,105); fill-opacity: 1; stroke: rgb(0,0,0); stroke-width: 3" />
	<polygon points="372.362276369132,-553.872397751766 490.596387975894,-553.872323381154 431.479664829114,-656.266084112119 " style="fill: rgb(14,173,105); fill-opacity: 1; stroke: rgb(0,0,0); stroke-width: 3" />
	<polygon points="431.479664829114,-656.266084112119 490.596387975894,-553.872323381154 549.713446564152,-656.266124325205 " style="fill: rgb(14,173,105); fill-opacity: 1; stroke: rgb(0,0,0); stroke-width: 3" />
	<polygon points="210.851300143233,-597.149037176454 313.245120272753,-656.266218265168 210.851196885284,-715.383286218848 " style="fill: rgb(14,173,105); fill-opacity: 1; stroke: rgb(0,0,0); stroke-width: 3" />
	<polygon points="372.362276369132,-553.872397751766 431.479468810689,-451.478564893029 490.596387975894,-553.872323381154 " style="fill: rgb(14,173,105); fill-opacity: 1; stroke: rgb(0,0,0); stroke-width: 3" />
	<polygon points="372.361961401586,-112.616531236463 269.968066953094,-171.733441442774 269.968161696893,-53.5 " style="fill: rgb(14,173,105); fill-opacity: 1; stroke: rgb(0,0,0); stroke-width: 3" />
	<polygon points="372.361933153836,-230.850322969297 269.968066953094,-171.733441442774 372.361961401586,-112.616531236463 " style="fill: rgb(14,173,105); fill-opacity: 1; stroke: rgb(0,0,0); stroke-width: 3" />
	<polygon points="210.851461457365,-392.361378250635 151.734286810344,-494.754913887357 92.6173597193557,-392.361326053451 " style="fill: rgb(14,173,105); fill-opacity: 1; stroke: rgb(0,0,0); stroke-width: 3" />
	<polygon points="210.851461457365,-392.361378250635 151.734629320512,-289.967516267129 269.968274062828,-289.967606844657 " style="fill: rgb(14,173,105); fill-opacity: 1; stroke: rgb(0,0,0); stroke-width: 3" />
	<polygon points="372.361933153836,-230.850322969297 269.968274062828,-289.967606844657 269.968066953094,-171.733441442774 " style="fill: rgb(14,173,105); fill-opacity: 1; stroke: rgb(0,0,0); stroke-width: 3" />
	<polygon points="210.85149927496,-187.573638218728 269.968274062828,-289.967606844657 151.734629320512,-289.967516267129 " style="fill: rgb(14,173,105); fill-opacity: 1; stroke: rgb(0,0,0); stroke-width: 3" />
	<polygon points="269.968274062828,-289.967606844657 329.085571221423,-392.361378250635 210.851461457365,-392.361378250635 " style="fill: rgb(14,173,105); fill-opacity: 1; stroke: rgb(0,0,0); stroke-width: 3" />
	<polygon points="269.968506661679,-494.755195595086 329.085571221423,-392.361378250635 431.479468810689,-451.478564893029 372.362276369132,-553.872397751766 " style="fill: rgb(67,184,206); fill-opacity: 1; stroke: rgb(0,0,0); stroke-width: 3" />
	<polygon points="269.968506661679,-494.755195595086 372.362276369132,-553.872397751766 313.245120272753,-656.266218265168 210.851300143233,-597.149037176454 " style="fill: rgb(67,184,206); fill-opacity: 1; stroke: rgb(0,0,0); stroke-width: 3" />
	<polygon points="210.851461457365,-392.361378250635 269.968506661679,-494.755195595086 151.734286810344,-494.754913887357 " style="fill: rgb(14,173,105); fill-opacity: 1; stroke: rgb(0,0,0); stroke-width: 3" />
	<circle cx="210.851461457365" cy="-392.361378250635" r="2" style="fill: rgb(0,0,0)" />
	<circle cx="329.085571221423" cy="-392.361378250635" r="2" style="fill: rgb(0,0,0)" />
	<circle cx="269.968506661679" cy="-494.755195595086" r="2" style="fill: rgb(0,0,0)" />
	<circle cx="269.968274062828" cy="-289.967606844657" r="2" style="fill: rgb(0,0,0)" />
	<circle cx="431.479468810689" cy="-451.478564893029" r="2" style="fill: rgb(0,0,0)" />
	<circle cx="372.362276369132" cy="-553.872397751766" r="2" style="fill: rgb(0,0,0)" />
	<circle cx="151.734286810344" cy="-494.754913887357" r="2" style="fill: rgb(0,0,0)" />
	<circle cx="372.361933153836" cy="-230.850322969297" r="2" style="fill: rgb(0,0,0)" />
	<circle cx="431.479368960925" cy="-333.244032815942" r="2" style="fill: rgb(0,0,0)" />
	<circle cx="151.734629320512" cy="-289.967516267129" r="2" style="fill: rgb(0,0,0)" />
	<circle cx="490.596387975894" cy="-553.872323381154" r="2" style="fill: rgb(0,0,0)" />
	<circle cx="313.245120272753" cy="-656.266218265168" r="2" style="fill: rgb(0,0,0)" />
	<circle cx="210.851300143233" cy="-597.149037176454" r="2" style="fill: rgb(0,0,0)" />
	<circle cx="92.6173597193557" cy="-392.361326053451" r="2" style="fill: rgb(0,0,0)" />
	<circle cx="490.595974378442" cy="-230.850092513069" r="2" style="fill: rgb(0,0,0)" />
	<circle cx="269.968066953094" cy="-171.733441442774" r="2" style="fill: rgb(0,0,0)" />
	<circle cx="210.85149927496" cy="-187.573638218728" r="2" style="fill: rgb(0,0,0)" />
	<circle cx="431.479664829114" cy="-656.266084112119" r="2" style="fill: rgb(0,0,0)" />
	<circle cx="210.851196885284" cy="-715.383286218848" r="2" style="fill: rgb(0,0,0)" />
	<circle cx="33.5" cy="-494.754731928951" r="2" style="fill: rgb(0,0,0)" />
	<circle cx="431.478383811175" cy="-128.456598702606" r="2" style="fill: rgb(0,0,0)" />
	<circle cx="372.361961401586" cy="-112.616531236463" r="2" style="fill: rgb(0,0,0)" />
	<circle cx="92.6180578321571" cy="-187.573655306445" r="2" style="fill: rgb(0,0,0)" />
	<circle cx="549.713446564152" cy="-656.266124325205" r="2" style="fill: rgb(0,0,0)" />
	<circle cx="313.244891198527" cy="-774.5" r="2" style="fill: rgb(0,0,0)" />
	<circle cx="269.968161696893" cy="-53.5" r="2" style="fill: rgb(0,0,0)" />
	<!--
	Generated using the Perl SVG Module V2.87
	by Ronan Oger

	-->
</svg>