<?xml version="1.0" encoding="UTF-8" standalone="yes"?>
<!DOCTYPE svg PUBLIC "-//W3C//DTD SVG 1.0//EN" "http://www.w3.org/TR/2001/REC-SVG-20010904/DTD/svg10.dtd">
<!-- generated using polymake; Michael Joswig, Georg Loho, Benjamin Lorenz, Rico Raber; license CC BY-NC-ND 3.0; see polymake.org and matchthenet.de -->
<svg height="841pt" id="document" viewBox="0 -740.049295508137 572 740.049295508137" width="595pt" xmlns="http://www.w3.org/2000/svg" xmlns:svg="http://www.w3.org/2000/svg" xmlns:xlink="http://www.w3.org/1999/xlink">
	<title id="document_title">planar_net_</title>
	<polygon points="248.901977620035,-376.371188974558 298.719112053699,-376.371188974558 339.022020421596,-405.652965906138 354.416361572661,-453.031876232426 339.022020421598,-500.410786558713 298.719112053701,-529.692563490292 248.901977620035,-529.692563490291 208.599069252137,-500.410786558712 193.204728101072,-453.031876232424 208.599069252136,-405.652965906136 " style="fill: rgb(136,136,136); fill-opacity: 1; stroke: rgb(0,0,0); stroke-width: 3" />
	<polygon points="183.690502035306,-328.992278648272 143.387593667406,-299.710501716696 127.993252516336,-252.331591390412 143.387593667393,-204.952681064126 183.690502035285,-175.670904132547 233.507636468949,-175.670904132544 273.810544836849,-204.95268106412 289.20488598792,-252.331591390404 273.810544836862,-299.710501716688 233.507636468971,-328.992278648269 " style="fill: rgb(136,136,136); fill-opacity: 1; stroke: rgb(0,0,0); stroke-width: 3" />
	<polygon points="314.113453204757,-328.992278648267 298.719112053699,-376.371188974558 248.901977620035,-376.371188974558 233.507636468971,-328.992278648269 273.810544836862,-299.710501716688 " style="fill: rgb(255,210,63); fill-opacity: 1; stroke: rgb(0,0,0); stroke-width: 3" />
	<polygon points="248.901977620035,-376.371188974558 208.599069252136,-405.652965906136 179.317292320554,-365.350057538239 219.620200688447,-336.068280606659 " style="fill: rgb(67,184,206); fill-opacity: 1; stroke: rgb(0,0,0); stroke-width: 3" />
	<polygon points="314.113453204757,-328.992278648267 273.810544836862,-299.710501716688 303.092321768441,-259.40759334879 343.395230136335,-288.689370280364 " style="fill: rgb(67,184,206); fill-opacity: 1; stroke: rgb(0,0,0); stroke-width: 3" />
	<polygon points="339.022020421596,-405.652965906138 298.719112053699,-376.371188974558 328.000888985277,-336.06828060666 368.303797353173,-365.350057538233 " style="fill: rgb(67,184,206); fill-opacity: 1; stroke: rgb(0,0,0); stroke-width: 3" />
	<polygon points="303.092321768422,-164.649772696209 262.789413400523,-135.367995764641 308.299630275173,-115.105541737423 " style="fill: rgb(14,173,105); fill-opacity: 1; stroke: rgb(0,0,0); stroke-width: 3" />
	<polygon points="208.599069252136,-405.652965906136 193.204728101072,-453.031876232424 143.387593667405,-453.031876232426 127.993252516337,-405.652965906142 168.296160884235,-376.371188974561 " style="fill: rgb(255,210,63); fill-opacity: 1; stroke: rgb(0,0,0); stroke-width: 3" />
	<polygon points="127.993252516337,-405.652965906142 143.387593667405,-453.031876232426 96.0086833411176,-468.426217383497 80.6143421900462,-421.04730705722 " style="fill: rgb(67,184,206); fill-opacity: 1; stroke: rgb(0,0,0); stroke-width: 3" />
	<polygon points="354.416361572661,-453.031876232426 339.022020421596,-405.652965906138 379.324928789498,-376.371188974555 419.627837157399,-405.652965906111 404.23349600633,-453.031876232397 " style="fill: rgb(255,210,63); fill-opacity: 1; stroke: rgb(0,0,0); stroke-width: 3" />
	<polygon points="208.599069252137,-500.410786558712 248.901977620035,-529.692563490291 233.507636468972,-577.07147381659 183.690502035308,-577.071473816593 168.296160884244,-529.692563490293 " style="fill: rgb(255,210,63); fill-opacity: 1; stroke: rgb(0,0,0); stroke-width: 3" />
	<polygon points="193.204728101072,-453.031876232424 208.599069252137,-500.410786558712 161.220158925848,-515.80512770978 145.825817774779,-468.426217383501 " style="fill: rgb(67,184,206); fill-opacity: 1; stroke: rgb(0,0,0); stroke-width: 3" />
	<polygon points="237.88084618367,-58.7073085067557 278.183754551564,-87.9890854383277 248.901977619988,-128.291993806236 208.599069252092,-99.0102168746573 " style="fill: rgb(67,184,206); fill-opacity: 1; stroke: rgb(0,0,0); stroke-width: 3" />
	<polygon points="339.022020421598,-500.410786558713 354.416361572661,-453.031876232426 401.795271898951,-468.426217383489 386.400930747892,-515.805127709773 " style="fill: rgb(67,184,206); fill-opacity: 1; stroke: rgb(0,0,0); stroke-width: 3" />
	<polygon points="368.303797353173,-365.350057538233 328.000888985277,-336.06828060666 373.51110585992,-315.805826579445 " style="fill: rgb(14,173,105); fill-opacity: 1; stroke: rgb(0,0,0); stroke-width: 3" />
	<polygon points="145.825817774779,-468.426217383501 161.220158925848,-515.80512770978 112.491648404124,-505.44756305799 " style="fill: rgb(14,173,105); fill-opacity: 1; stroke: rgb(0,0,0); stroke-width: 3" />
	<polygon points="354.416361572644,-204.952681064093 339.022020421584,-252.331591390394 289.20488598792,-252.331591390404 273.810544836849,-204.95268106412 314.113453204743,-175.670904132524 " style="fill: rgb(255,210,63); fill-opacity: 1; stroke: rgb(0,0,0); stroke-width: 3" />
	<polygon points="419.627837157399,-405.652965906111 379.324928789498,-376.371188974555 408.606705721059,-336.068280606644 448.909614088958,-365.350057538193 " style="fill: rgb(67,184,206); fill-opacity: 1; stroke: rgb(0,0,0); stroke-width: 3" />
	<polygon points="183.690502035308,-577.071473816593 233.507636468972,-577.07147381659 233.507636468973,-626.888608250257 183.690502035316,-626.888608250265 " style="fill: rgb(67,184,206); fill-opacity: 1; stroke: rgb(0,0,0); stroke-width: 3" />
	<polygon points="248.901977620043,-579.509697923964 298.719112053703,-579.509697923959 273.810544836864,-622.652601887265 " style="fill: rgb(14,173,105); fill-opacity: 1; stroke: rgb(0,0,0); stroke-width: 3" />
	<polygon points="183.690502035285,-175.670904132547 143.387593667393,-204.952681064126 114.105816735809,-164.64977269623 154.408725103696,-135.367995764651 " style="fill: rgb(67,184,206); fill-opacity: 1; stroke: rgb(0,0,0); stroke-width: 3" />
	<polygon points="273.810544836849,-204.95268106412 233.507636468949,-175.670904132544 262.789413400523,-135.367995764641 303.092321768422,-164.649772696209 " style="fill: rgb(67,184,206); fill-opacity: 1; stroke: rgb(0,0,0); stroke-width: 3" />
	<polygon points="78.176118082661,-252.331591390413 62.7817769315756,-204.952681064147 103.084685299476,-175.670904132575 143.387593667393,-204.952681064126 127.993252516336,-252.331591390412 " style="fill: rgb(255,210,63); fill-opacity: 1; stroke: rgb(0,0,0); stroke-width: 3" />
	<polygon points="168.296160884244,-529.692563490293 183.690502035308,-577.071473816593 136.311591709018,-592.465814967657 120.917250557949,-545.086904641366 " style="fill: rgb(67,184,206); fill-opacity: 1; stroke: rgb(0,0,0); stroke-width: 3" />
	<polygon points="404.23349600633,-453.031876232397 419.627837157399,-405.652965906111 467.006747483688,-421.047307057179 451.612406332623,-468.426217383462 " style="fill: rgb(67,184,206); fill-opacity: 1; stroke: rgb(0,0,0); stroke-width: 3" />
	<polygon points="233.507636468973,-626.888608250257 248.901977620037,-674.267518576547 208.599069252153,-703.549295508137 168.296160884261,-674.26751857656 183.690502035316,-626.888608250265 " style="fill: rgb(255,210,63); fill-opacity: 1; stroke: rgb(0,0,0); stroke-width: 3" />
	<polygon points="248.901977620035,-529.692563490291 298.719112053701,-529.692563490292 298.719112053703,-579.509697923959 248.901977620043,-579.509697923964 " style="fill: rgb(67,184,206); fill-opacity: 1; stroke: rgb(0,0,0); stroke-width: 3" />
	<polygon points="298.719112053701,-529.692563490292 339.022020421598,-500.410786558713 379.324928789498,-529.692563490294 363.930587638459,-577.071473816582 314.113453204794,-577.071473816581 " style="fill: rgb(255,210,63); fill-opacity: 1; stroke: rgb(0,0,0); stroke-width: 3" />
	<polygon points="233.507636468949,-175.670904132544 183.690502035285,-175.670904132547 168.296160884216,-128.291993806255 208.599069252092,-99.0102168746573 248.901977619988,-128.291993806236 " style="fill: rgb(255,210,63); fill-opacity: 1; stroke: rgb(0,0,0); stroke-width: 3" />
	<polygon points="363.930587638459,-577.071473816582 379.324928789498,-529.692563490294 426.703839115796,-545.086904641336 411.309497964761,-592.46581496762 " style="fill: rgb(67,184,206); fill-opacity: 1; stroke: rgb(0,0,0); stroke-width: 3" />
	<polygon points="354.416361572644,-204.952681064093 314.113453204743,-175.670904132524 343.395230136314,-135.367995764618 383.698138504213,-164.64977269618 " style="fill: rgb(67,184,206); fill-opacity: 1; stroke: rgb(0,0,0); stroke-width: 3" />
	<polygon points="419.627837157399,-405.652965906111 448.909614088958,-365.350057538193 469.172068116186,-410.860274412835 " style="fill: rgb(14,173,105); fill-opacity: 1; stroke: rgb(0,0,0); stroke-width: 3" />
	<polygon points="386.400930747892,-515.805127709773 401.795271898951,-468.426217383489 435.129441269622,-505.447563057972 " style="fill: rgb(14,173,105); fill-opacity: 1; stroke: rgb(0,0,0); stroke-width: 3" />
	<polygon points="139.014383952613,-87.9890854383723 179.317292320482,-58.7073085067765 208.599069252092,-99.0102168746573 168.296160884216,-128.291993806255 " style="fill: rgb(67,184,206); fill-opacity: 1; stroke: rgb(0,0,0); stroke-width: 3" />
	<polygon points="314.113453204794,-577.071473816581 363.930587638459,-577.071473816582 363.930587638462,-626.888608250251 314.113453204803,-626.888608250254 " style="fill: rgb(67,184,206); fill-opacity: 1; stroke: rgb(0,0,0); stroke-width: 3" />
	<polygon points="451.612406332623,-468.426217383462 467.006747483688,-421.047307057179 516.823881917354,-421.047307057181 532.218223068419,-468.426217383463 491.915314700521,-497.707994315037 " style="fill: rgb(255,210,63); fill-opacity: 1; stroke: rgb(0,0,0); stroke-width: 3" />
	<polygon points="33.5,-164.649772696246 73.8029083678948,-135.367995764673 103.084685299476,-175.670904132575 62.7817769315756,-204.952681064147 " style="fill: rgb(67,184,206); fill-opacity: 1; stroke: rgb(0,0,0); stroke-width: 3" />
	<polygon points="183.690502035308,-577.071473816593 183.690502035316,-626.888608250265 140.547598072009,-601.980041033445 " style="fill: rgb(14,173,105); fill-opacity: 1; stroke: rgb(0,0,0); stroke-width: 3" />
	<polygon points="491.915314700521,-497.707994315037 532.218223068419,-468.426217383463 561.5,-508.729125751363 521.197091632107,-538.010902682938 " style="fill: rgb(67,184,206); fill-opacity: 1; stroke: rgb(0,0,0); stroke-width: 3" />
	<polygon points="154.408725103696,-135.367995764651 114.105816735809,-164.64977269623 108.898508229044,-115.105541737444 " style="fill: rgb(14,173,105); fill-opacity: 1; stroke: rgb(0,0,0); stroke-width: 3" />
	<polygon points="237.88084618367,-58.7073085067557 208.599069252092,-99.0102168746573 188.336615224876,-53.5 " style="fill: rgb(14,173,105); fill-opacity: 1; stroke: rgb(0,0,0); stroke-width: 3" />
	<polygon points="363.930587638459,-577.071473816582 411.309497964761,-592.46581496762 374.288152290294,-625.799984338303 " style="fill: rgb(14,173,105); fill-opacity: 1; stroke: rgb(0,0,0); stroke-width: 3" />
	<circle cx="248.901977620035" cy="-376.371188974558" r="2" style="fill: rgb(0,0,0)" />
	<circle cx="298.719112053699" cy="-376.371188974558" r="2" style="fill: rgb(0,0,0)" />
	<circle cx="339.022020421596" cy="-405.652965906138" r="2" style="fill: rgb(0,0,0)" />
	<circle cx="354.416361572661" cy="-453.031876232426" r="2" style="fill: rgb(0,0,0)" />
	<circle cx="339.022020421598" cy="-500.410786558713" r="2" style="fill: rgb(0,0,0)" />
	<circle cx="298.719112053701" cy="-529.692563490292" r="2" style="fill: rgb(0,0,0)" />
	<circle cx="248.901977620035" cy="-529.692563490291" r="2" style="fill: rgb(0,0,0)" />
	<circle cx="208.599069252137" cy="-500.410786558712" r="2" style="fill: rgb(0,0,0)" />
	<circle cx="193.204728101072" cy="-453.031876232424" r="2" style="fill: rgb(0,0,0)" />
	<circle cx="208.599069252136" cy="-405.652965906136" r="2" style="fill: rgb(0,0,0)" />
	<circle cx="233.507636468971" cy="-328.992278648269" r="2" style="fill: rgb(0,0,0)" />
	<circle cx="273.810544836862" cy="-299.710501716688" r="2" style="fill: rgb(0,0,0)" />
	<circle cx="314.113453204757" cy="-328.992278648267" r="2" style="fill: rgb(0,0,0)" />
	<circle cx="179.317292320554" cy="-365.350057538239" r="2" style="fill: rgb(0,0,0)" />
	<circle cx="219.620200688447" cy="-336.068280606659" r="2" style="fill: rgb(0,0,0)" />
	<circle cx="328.000888985277" cy="-336.06828060666" r="2" style="fill: rgb(0,0,0)" />
	<circle cx="368.303797353173" cy="-365.350057538233" r="2" style="fill: rgb(0,0,0)" />
	<circle cx="143.387593667405" cy="-453.031876232426" r="2" style="fill: rgb(0,0,0)" />
	<circle cx="127.993252516337" cy="-405.652965906142" r="2" style="fill: rgb(0,0,0)" />
	<circle cx="168.296160884235" cy="-376.371188974561" r="2" style="fill: rgb(0,0,0)" />
	<circle cx="379.324928789498" cy="-376.371188974555" r="2" style="fill: rgb(0,0,0)" />
	<circle cx="419.627837157399" cy="-405.652965906111" r="2" style="fill: rgb(0,0,0)" />
	<circle cx="404.23349600633" cy="-453.031876232397" r="2" style="fill: rgb(0,0,0)" />
	<circle cx="233.507636468972" cy="-577.07147381659" r="2" style="fill: rgb(0,0,0)" />
	<circle cx="183.690502035308" cy="-577.071473816593" r="2" style="fill: rgb(0,0,0)" />
	<circle cx="168.296160884244" cy="-529.692563490293" r="2" style="fill: rgb(0,0,0)" />
	<circle cx="161.220158925848" cy="-515.80512770978" r="2" style="fill: rgb(0,0,0)" />
	<circle cx="145.825817774779" cy="-468.426217383501" r="2" style="fill: rgb(0,0,0)" />
	<circle cx="401.795271898951" cy="-468.426217383489" r="2" style="fill: rgb(0,0,0)" />
	<circle cx="386.400930747892" cy="-515.805127709773" r="2" style="fill: rgb(0,0,0)" />
	<circle cx="298.719112053703" cy="-579.509697923959" r="2" style="fill: rgb(0,0,0)" />
	<circle cx="248.901977620043" cy="-579.509697923964" r="2" style="fill: rgb(0,0,0)" />
	<circle cx="379.324928789498" cy="-529.692563490294" r="2" style="fill: rgb(0,0,0)" />
	<circle cx="363.930587638459" cy="-577.071473816582" r="2" style="fill: rgb(0,0,0)" />
	<circle cx="314.113453204794" cy="-577.071473816581" r="2" style="fill: rgb(0,0,0)" />
	<circle cx="183.690502035306" cy="-328.992278648272" r="2" style="fill: rgb(0,0,0)" />
	<circle cx="143.387593667406" cy="-299.710501716696" r="2" style="fill: rgb(0,0,0)" />
	<circle cx="127.993252516336" cy="-252.331591390412" r="2" style="fill: rgb(0,0,0)" />
	<circle cx="143.387593667393" cy="-204.952681064126" r="2" style="fill: rgb(0,0,0)" />
	<circle cx="183.690502035285" cy="-175.670904132547" r="2" style="fill: rgb(0,0,0)" />
	<circle cx="233.507636468949" cy="-175.670904132544" r="2" style="fill: rgb(0,0,0)" />
	<circle cx="273.810544836849" cy="-204.95268106412" r="2" style="fill: rgb(0,0,0)" />
	<circle cx="289.20488598792" cy="-252.331591390404" r="2" style="fill: rgb(0,0,0)" />
	<circle cx="303.092321768441" cy="-259.40759334879" r="2" style="fill: rgb(0,0,0)" />
	<circle cx="343.395230136335" cy="-288.689370280364" r="2" style="fill: rgb(0,0,0)" />
	<circle cx="373.51110585992" cy="-315.805826579445" r="2" style="fill: rgb(0,0,0)" />
	<circle cx="96.0086833411176" cy="-468.426217383497" r="2" style="fill: rgb(0,0,0)" />
	<circle cx="80.6143421900462" cy="-421.04730705722" r="2" style="fill: rgb(0,0,0)" />
	<circle cx="408.606705721059" cy="-336.068280606644" r="2" style="fill: rgb(0,0,0)" />
	<circle cx="448.909614088958" cy="-365.350057538193" r="2" style="fill: rgb(0,0,0)" />
	<circle cx="467.006747483688" cy="-421.047307057179" r="2" style="fill: rgb(0,0,0)" />
	<circle cx="451.612406332623" cy="-468.426217383462" r="2" style="fill: rgb(0,0,0)" />
	<circle cx="233.507636468973" cy="-626.888608250257" r="2" style="fill: rgb(0,0,0)" />
	<circle cx="183.690502035316" cy="-626.888608250265" r="2" style="fill: rgb(0,0,0)" />
	<circle cx="136.311591709018" cy="-592.465814967657" r="2" style="fill: rgb(0,0,0)" />
	<circle cx="120.917250557949" cy="-545.086904641366" r="2" style="fill: rgb(0,0,0)" />
	<circle cx="112.491648404124" cy="-505.44756305799" r="2" style="fill: rgb(0,0,0)" />
	<circle cx="435.129441269622" cy="-505.447563057972" r="2" style="fill: rgb(0,0,0)" />
	<circle cx="273.810544836864" cy="-622.652601887265" r="2" style="fill: rgb(0,0,0)" />
	<circle cx="426.703839115796" cy="-545.086904641336" r="2" style="fill: rgb(0,0,0)" />
	<circle cx="411.309497964761" cy="-592.46581496762" r="2" style="fill: rgb(0,0,0)" />
	<circle cx="363.930587638462" cy="-626.888608250251" r="2" style="fill: rgb(0,0,0)" />
	<circle cx="314.113453204803" cy="-626.888608250254" r="2" style="fill: rgb(0,0,0)" />
	<circle cx="314.113453204743" cy="-175.670904132524" r="2" style="fill: rgb(0,0,0)" />
	<circle cx="354.416361572644" cy="-204.952681064093" r="2" style="fill: rgb(0,0,0)" />
	<circle cx="339.022020421584" cy="-252.331591390394" r="2" style="fill: rgb(0,0,0)" />
	<circle cx="114.105816735809" cy="-164.64977269623" r="2" style="fill: rgb(0,0,0)" />
	<circle cx="154.408725103696" cy="-135.367995764651" r="2" style="fill: rgb(0,0,0)" />
	<circle cx="262.789413400523" cy="-135.367995764641" r="2" style="fill: rgb(0,0,0)" />
	<circle cx="303.092321768422" cy="-164.649772696209" r="2" style="fill: rgb(0,0,0)" />
	<circle cx="78.176118082661" cy="-252.331591390413" r="2" style="fill: rgb(0,0,0)" />
	<circle cx="62.7817769315756" cy="-204.952681064147" r="2" style="fill: rgb(0,0,0)" />
	<circle cx="103.084685299476" cy="-175.670904132575" r="2" style="fill: rgb(0,0,0)" />
	<circle cx="168.296160884216" cy="-128.291993806255" r="2" style="fill: rgb(0,0,0)" />
	<circle cx="208.599069252092" cy="-99.0102168746573" r="2" style="fill: rgb(0,0,0)" />
	<circle cx="248.901977619988" cy="-128.291993806236" r="2" style="fill: rgb(0,0,0)" />
	<circle cx="469.172068116186" cy="-410.860274412835" r="2" style="fill: rgb(0,0,0)" />
	<circle cx="516.823881917354" cy="-421.047307057181" r="2" style="fill: rgb(0,0,0)" />
	<circle cx="532.218223068419" cy="-468.426217383463" r="2" style="fill: rgb(0,0,0)" />
	<circle cx="491.915314700521" cy="-497.707994315037" r="2" style="fill: rgb(0,0,0)" />
	<circle cx="248.901977620037" cy="-674.267518576547" r="2" style="fill: rgb(0,0,0)" />
	<circle cx="208.599069252153" cy="-703.549295508137" r="2" style="fill: rgb(0,0,0)" />
	<circle cx="168.296160884261" cy="-674.26751857656" r="2" style="fill: rgb(0,0,0)" />
	<circle cx="140.547598072009" cy="-601.980041033445" r="2" style="fill: rgb(0,0,0)" />
	<circle cx="374.288152290294" cy="-625.799984338303" r="2" style="fill: rgb(0,0,0)" />
	<circle cx="343.395230136314" cy="-135.367995764618" r="2" style="fill: rgb(0,0,0)" />
	<circle cx="383.698138504213" cy="-164.64977269618" r="2" style="fill: rgb(0,0,0)" />
	<circle cx="108.898508229044" cy="-115.105541737444" r="2" style="fill: rgb(0,0,0)" />
	<circle cx="308.299630275173" cy="-115.105541737423" r="2" style="fill: rgb(0,0,0)" />
	<circle cx="33.5" cy="-164.649772696246" r="2" style="fill: rgb(0,0,0)" />
	<circle cx="73.8029083678948" cy="-135.367995764673" r="2" style="fill: rgb(0,0,0)" />
	<circle cx="237.88084618367" cy="-58.7073085067557" r="2" style="fill: rgb(0,0,0)" />
	<circle cx="278.183754551564" cy="-87.9890854383277" r="2" style="fill: rgb(0,0,0)" />
	<circle cx="139.014383952613" cy="-87.9890854383723" r="2" style="fill: rgb(0,0,0)" />
	<circle cx="179.317292320482" cy="-58.7073085067765" r="2" style="fill: rgb(0,0,0)" />
	<circle cx="561.5" cy="-508.729125751363" r="2" style="fill: rgb(0,0,0)" />
	<circle cx="521.197091632107" cy="-538.010902682938" r="2" style="fill: rgb(0,0,0)" />
	<circle cx="188.336615224876" cy="-53.5" r="2" style="fill: rgb(0,0,0)" />
	<!--
	Generated using the Perl SVG Module V2.87
	by Ronan Oger

	-->
</svg>