<?xml version="1.0" encoding="UTF-8" standalone="yes"?>
<!DOCTYPE svg PUBLIC "-//W3C//DTD SVG 1.0//EN" "http://www.w3.org/TR/2001/REC-SVG-20010904/DTD/svg10.dtd">
<!-- generated using polymake; Michael Joswig, Georg Loho, Benjamin Lorenz, Rico Raber; license CC BY-NC-ND 3.0; see polymake.org and matchthenet.de -->
<svg height="841pt" id="document" viewBox="0 -759.477173603673 572 759.477173603673" width="595pt" xmlns="http://www.w3.org/2000/svg" xmlns:svg="http://www.w3.org/2000/svg" xmlns:xlink="http://www.w3.org/1999/xlink">
	<title id="document_title">planar_net_</title>
	<polygon points="316.454347207265,-336.45434720728 420.022826396365,-336.45434720728 420.02282639637,-440.022826396384 316.454347207274,-440.022826396391 " style="fill: rgb(14,173,105); fill-opacity: 1; stroke: rgb(0,0,0); stroke-width: 3" />
	<polygon points="368.238586801815,-246.761413198199 420.022826396365,-336.45434720728 316.454347207265,-336.45434720728 " style="fill: rgb(14,173,105); fill-opacity: 1; stroke: rgb(0,0,0); stroke-width: 3" />
	<polygon points="316.454347207265,-157.068479189114 368.238586801815,-246.761413198199 264.670107612714,-246.761413198198 " style="fill: rgb(14,173,105); fill-opacity: 1; stroke: rgb(0,0,0); stroke-width: 3" />
	<polygon points="316.454347207265,-336.45434720728 264.670107612714,-246.761413198198 368.238586801815,-246.761413198199 " style="fill: rgb(14,173,105); fill-opacity: 1; stroke: rgb(0,0,0); stroke-width: 3" />
	<polygon points="316.454347207274,-440.022826396391 420.02282639637,-440.022826396384 368.238586801823,-529.715760405471 " style="fill: rgb(14,173,105); fill-opacity: 1; stroke: rgb(0,0,0); stroke-width: 3" />
	<polygon points="316.454347207265,-336.45434720728 226.761413198188,-388.23858680185 226.761413198167,-284.67010761275 " style="fill: rgb(14,173,105); fill-opacity: 1; stroke: rgb(0,0,0); stroke-width: 3" />
	<polygon points="316.454347207265,-336.45434720728 316.454347207274,-440.022826396391 226.761413198188,-388.23858680185 " style="fill: rgb(14,173,105); fill-opacity: 1; stroke: rgb(0,0,0); stroke-width: 3" />
	<polygon points="226.761413198167,-284.67010761275 226.761413198188,-388.23858680185 137.068479189096,-336.454347207308 " style="fill: rgb(14,173,105); fill-opacity: 1; stroke: rgb(0,0,0); stroke-width: 3" />
	<polygon points="316.454347207274,-440.022826396391 368.238586801823,-529.715760405471 264.670107612723,-529.715760405475 " style="fill: rgb(14,173,105); fill-opacity: 1; stroke: rgb(0,0,0); stroke-width: 3" />
	<polygon points="264.670107612723,-529.715760405475 368.238586801823,-529.715760405471 316.454347207273,-619.408694414558 " style="fill: rgb(14,173,105); fill-opacity: 1; stroke: rgb(0,0,0); stroke-width: 3" />
	<polygon points="226.761413198188,-388.23858680185 226.761413198198,-491.807065990953 123.192934009092,-491.807065990968 123.192934009077,-388.238586801871 " style="fill: rgb(14,173,105); fill-opacity: 1; stroke: rgb(0,0,0); stroke-width: 3" />
	<polygon points="264.670107612723,-529.715760405475 316.454347207273,-619.408694414558 212.885868018168,-619.408694414549 " style="fill: rgb(14,173,105); fill-opacity: 1; stroke: rgb(0,0,0); stroke-width: 3" />
	<polygon points="226.761413198188,-388.23858680185 316.454347207274,-440.022826396391 226.761413198198,-491.807065990953 " style="fill: rgb(14,173,105); fill-opacity: 1; stroke: rgb(0,0,0); stroke-width: 3" />
	<polygon points="123.192934009077,-388.238586801871 123.192934009092,-491.807065990968 33.5,-440.022826396433 " style="fill: rgb(14,173,105); fill-opacity: 1; stroke: rgb(0,0,0); stroke-width: 3" />
	<polygon points="316.454347207273,-619.408694414558 316.454347207276,-722.977173603669 212.885868018182,-722.977173603673 212.885868018168,-619.408694414549 " style="fill: rgb(14,173,105); fill-opacity: 1; stroke: rgb(0,0,0); stroke-width: 3" />
	<polygon points="368.238586801823,-529.715760405471 457.931520810921,-581.50000000001 368.238586801851,-633.284239594582 " style="fill: rgb(14,173,105); fill-opacity: 1; stroke: rgb(0,0,0); stroke-width: 3" />
	<polygon points="368.238586801851,-633.284239594582 457.931520810921,-581.50000000001 457.931520810948,-685.068479189118 " style="fill: rgb(14,173,105); fill-opacity: 1; stroke: rgb(0,0,0); stroke-width: 3" />
	<polygon points="316.454347207237,-53.5 316.454347207265,-157.068479189114 226.761413198166,-105.284239594574 " style="fill: rgb(14,173,105); fill-opacity: 1; stroke: rgb(0,0,0); stroke-width: 3" />
	<polygon points="264.670107612714,-246.761413198198 174.977173603627,-194.977173603649 226.761413198166,-105.284239594574 316.454347207265,-157.068479189114 " style="fill: rgb(14,173,105); fill-opacity: 1; stroke: rgb(0,0,0); stroke-width: 3" />
	<polygon points="561.5,-194.97717360363 457.931520810899,-194.977173603642 509.715760405454,-105.284239594557 " style="fill: rgb(14,173,105); fill-opacity: 1; stroke: rgb(0,0,0); stroke-width: 3" />
	<polygon points="457.931520810899,-194.977173603642 368.238586801813,-143.192934009095 457.931520810893,-91.4086944145356 " style="fill: rgb(14,173,105); fill-opacity: 1; stroke: rgb(0,0,0); stroke-width: 3" />
	<polygon points="457.931520810899,-194.977173603642 368.238586801815,-246.761413198199 368.238586801813,-143.192934009095 " style="fill: rgb(14,173,105); fill-opacity: 1; stroke: rgb(0,0,0); stroke-width: 3" />
	<polygon points="509.715760405454,-284.670107612706 457.931520810899,-194.977173603642 561.5,-194.97717360363 " style="fill: rgb(14,173,105); fill-opacity: 1; stroke: rgb(0,0,0); stroke-width: 3" />
	<polygon points="420.02282639637,-440.022826396384 420.022826396365,-336.45434720728 509.71576040545,-388.238586801827 " style="fill: rgb(14,173,105); fill-opacity: 1; stroke: rgb(0,0,0); stroke-width: 3" />
	<polygon points="420.02282639637,-440.022826396384 509.715760405461,-491.807065990932 457.931520810921,-581.50000000001 368.238586801823,-529.715760405471 " style="fill: rgb(14,173,105); fill-opacity: 1; stroke: rgb(0,0,0); stroke-width: 3" />
	<polygon points="509.715760405454,-284.670107612706 420.022826396365,-336.45434720728 368.238586801815,-246.761413198199 457.931520810899,-194.977173603642 " style="fill: rgb(14,173,105); fill-opacity: 1; stroke: rgb(0,0,0); stroke-width: 3" />
	<circle cx="316.454347207265" cy="-336.45434720728" r="2" style="fill: rgb(0,0,0)" />
	<circle cx="420.022826396365" cy="-336.45434720728" r="2" style="fill: rgb(0,0,0)" />
	<circle cx="420.02282639637" cy="-440.022826396384" r="2" style="fill: rgb(0,0,0)" />
	<circle cx="316.454347207274" cy="-440.022826396391" r="2" style="fill: rgb(0,0,0)" />
	<circle cx="368.238586801815" cy="-246.761413198199" r="2" style="fill: rgb(0,0,0)" />
	<circle cx="368.238586801823" cy="-529.715760405471" r="2" style="fill: rgb(0,0,0)" />
	<circle cx="226.761413198188" cy="-388.23858680185" r="2" style="fill: rgb(0,0,0)" />
	<circle cx="509.71576040545" cy="-388.238586801827" r="2" style="fill: rgb(0,0,0)" />
	<circle cx="264.670107612714" cy="-246.761413198198" r="2" style="fill: rgb(0,0,0)" />
	<circle cx="457.931520810899" cy="-194.977173603642" r="2" style="fill: rgb(0,0,0)" />
	<circle cx="509.715760405454" cy="-284.670107612706" r="2" style="fill: rgb(0,0,0)" />
	<circle cx="264.670107612723" cy="-529.715760405475" r="2" style="fill: rgb(0,0,0)" />
	<circle cx="509.715760405461" cy="-491.807065990932" r="2" style="fill: rgb(0,0,0)" />
	<circle cx="457.931520810921" cy="-581.50000000001" r="2" style="fill: rgb(0,0,0)" />
	<circle cx="226.761413198167" cy="-284.67010761275" r="2" style="fill: rgb(0,0,0)" />
	<circle cx="226.761413198198" cy="-491.807065990953" r="2" style="fill: rgb(0,0,0)" />
	<circle cx="316.454347207265" cy="-157.068479189114" r="2" style="fill: rgb(0,0,0)" />
	<circle cx="368.238586801813" cy="-143.192934009095" r="2" style="fill: rgb(0,0,0)" />
	<circle cx="561.5" cy="-194.97717360363" r="2" style="fill: rgb(0,0,0)" />
	<circle cx="316.454347207273" cy="-619.408694414558" r="2" style="fill: rgb(0,0,0)" />
	<circle cx="368.238586801851" cy="-633.284239594582" r="2" style="fill: rgb(0,0,0)" />
	<circle cx="137.068479189096" cy="-336.454347207308" r="2" style="fill: rgb(0,0,0)" />
	<circle cx="123.192934009092" cy="-491.807065990968" r="2" style="fill: rgb(0,0,0)" />
	<circle cx="123.192934009077" cy="-388.238586801871" r="2" style="fill: rgb(0,0,0)" />
	<circle cx="174.977173603627" cy="-194.977173603649" r="2" style="fill: rgb(0,0,0)" />
	<circle cx="226.761413198166" cy="-105.284239594574" r="2" style="fill: rgb(0,0,0)" />
	<circle cx="457.931520810893" cy="-91.4086944145356" r="2" style="fill: rgb(0,0,0)" />
	<circle cx="509.715760405454" cy="-105.284239594557" r="2" style="fill: rgb(0,0,0)" />
	<circle cx="212.885868018168" cy="-619.408694414549" r="2" style="fill: rgb(0,0,0)" />
	<circle cx="457.931520810948" cy="-685.068479189118" r="2" style="fill: rgb(0,0,0)" />
	<circle cx="33.5" cy="-440.022826396433" r="2" style="fill: rgb(0,0,0)" />
	<circle cx="316.454347207237" cy="-53.5" r="2" style="fill: rgb(0,0,0)" />
	<circle cx="316.454347207276" cy="-722.977173603669" r="2" style="fill: rgb(0,0,0)" />
	<circle cx="212.885868018182" cy="-722.977173603673" r="2" style="fill: rgb(0,0,0)" />
	<!--
	Generated using the Perl SVG Module V2.86
	by Ronan Oger
	Info: http://www.roitsystems.com/
	-->
</svg>