<?xml version="1.0" encoding="UTF-8" standalone="yes"?>
<!DOCTYPE svg PUBLIC "-//W3C//DTD SVG 1.0//EN" "http://www.w3.org/TR/2001/REC-SVG-20010904/DTD/svg10.dtd">
<!-- generated using polymake; Michael Joswig, Georg Loho, Benjamin Lorenz, Rico Raber; license CC BY-NC-SA 3.0; see polymake.org and matchthenet.de -->
<svg height="841pt" id="document" viewBox="0 -716.337574182349 572 716.337574182349" width="595pt" xmlns="http://www.w3.org/2000/svg" xmlns:svg="http://www.w3.org/2000/svg" xmlns:xlink="http://www.w3.org/1999/xlink">
	<title id="document_title">planar_net_</title>
	<polygon points="230.039943305671,-366.668787091171 250.863312305123,-366.668787091171 334.847528903832,-496.309543769616 318.63220743271,-527.419376349865 275.185516427431,-521.217425345866 " style="fill: rgb(255,210,63); fill-opacity: 1; stroke: rgb(0,0,0); stroke-width: 3" />
	<polygon points="334.847528903832,-237.028030412724 250.863312305123,-366.668787091171 230.039943305671,-366.668787091171 275.185516427432,-212.120148836474 318.63220743271,-205.918197832474 " style="fill: rgb(255,210,63); fill-opacity: 1; stroke: rgb(0,0,0); stroke-width: 3" />
	<polygon points="463.670202301505,-234.830064055771 334.847528903832,-237.028030412724 318.63220743271,-205.918197832474 418.744335645163,-129.935428906108 486.360571017846,-185.989955322126 " style="fill: rgb(255,210,63); fill-opacity: 1; stroke: rgb(0,0,0); stroke-width: 3" />
	<polygon points="418.744335645159,-603.40214527623 486.360571017846,-547.347618860217 561.5,-592.824331911364 544.015603135731,-664.941055174892 446.666743425071,-672.154345617375 " style="fill: rgb(255,210,63); fill-opacity: 1; stroke: rgb(0,0,0); stroke-width: 3" />
	<polygon points="318.63220743271,-527.419376349865 334.847528903832,-496.309543769616 463.670202301507,-498.507510126573 486.360571017846,-547.347618860217 418.744335645159,-603.40214527623 " style="fill: rgb(255,210,63); fill-opacity: 1; stroke: rgb(0,0,0); stroke-width: 3" />
	<polygon points="230.039943305671,-366.668787091171 123.15349032107,-234.574226277973 165.172768963652,-170.068422374478 275.185516427432,-212.120148836474 " style="fill: rgb(67,184,206); fill-opacity: 1; stroke: rgb(0,0,0); stroke-width: 3" />
	<polygon points="165.172768963651,-563.26915180787 122.839494472333,-620.598844591404 33.5,-581.263278326274 47.2010526393231,-511.327014768758 123.153490321073,-498.763347904364 " style="fill: rgb(255,210,63); fill-opacity: 1; stroke: rgb(0,0,0); stroke-width: 3" />
	<polygon points="230.039943305671,-366.668787091171 275.185516427431,-521.217425345866 165.172768963651,-563.26915180787 123.153490321073,-498.763347904364 " style="fill: rgb(67,184,206); fill-opacity: 1; stroke: rgb(0,0,0); stroke-width: 3" />
	<polygon points="318.63220743271,-205.918197832474 275.185516427432,-212.120148836474 217.749594664694,-109.298618045352 262.081457111918,-53.5 331.062191685434,-80.8529553371274 " style="fill: rgb(255,210,63); fill-opacity: 1; stroke: rgb(0,0,0); stroke-width: 3" />
	<polygon points="275.185516427431,-521.217425345866 318.63220743271,-527.419376349865 331.062191685438,-652.484618845224 262.081457111921,-679.837574182349 217.749594664694,-624.038956136988 " style="fill: rgb(255,210,63); fill-opacity: 1; stroke: rgb(0,0,0); stroke-width: 3" />
	<polygon points="334.847528903832,-496.309543769616 250.863312305123,-366.668787091171 394.707859148168,-310.376507217468 444.767332093259,-429.095340626018 " style="fill: rgb(67,184,206); fill-opacity: 1; stroke: rgb(0,0,0); stroke-width: 3" />
	<circle cx="230.039943305671" cy="-366.668787091171" r="2" style="fill: rgb(0,0,0)" />
	<circle cx="250.863312305123" cy="-366.668787091171" r="2" style="fill: rgb(0,0,0)" />
	<circle cx="334.847528903832" cy="-496.309543769616" r="2" style="fill: rgb(0,0,0)" />
	<circle cx="318.63220743271" cy="-527.419376349865" r="2" style="fill: rgb(0,0,0)" />
	<circle cx="275.185516427431" cy="-521.217425345866" r="2" style="fill: rgb(0,0,0)" />
	<circle cx="275.185516427432" cy="-212.120148836474" r="2" style="fill: rgb(0,0,0)" />
	<circle cx="318.63220743271" cy="-205.918197832474" r="2" style="fill: rgb(0,0,0)" />
	<circle cx="334.847528903832" cy="-237.028030412724" r="2" style="fill: rgb(0,0,0)" />
	<circle cx="463.670202301507" cy="-498.507510126573" r="2" style="fill: rgb(0,0,0)" />
	<circle cx="486.360571017846" cy="-547.347618860217" r="2" style="fill: rgb(0,0,0)" />
	<circle cx="418.744335645159" cy="-603.40214527623" r="2" style="fill: rgb(0,0,0)" />
	<circle cx="165.172768963651" cy="-563.26915180787" r="2" style="fill: rgb(0,0,0)" />
	<circle cx="123.153490321073" cy="-498.763347904364" r="2" style="fill: rgb(0,0,0)" />
	<circle cx="331.062191685438" cy="-652.484618845224" r="2" style="fill: rgb(0,0,0)" />
	<circle cx="262.081457111921" cy="-679.837574182349" r="2" style="fill: rgb(0,0,0)" />
	<circle cx="217.749594664694" cy="-624.038956136988" r="2" style="fill: rgb(0,0,0)" />
	<circle cx="394.707859148168" cy="-310.376507217468" r="2" style="fill: rgb(0,0,0)" />
	<circle cx="444.767332093259" cy="-429.095340626018" r="2" style="fill: rgb(0,0,0)" />
	<circle cx="418.744335645163" cy="-129.935428906108" r="2" style="fill: rgb(0,0,0)" />
	<circle cx="486.360571017846" cy="-185.989955322126" r="2" style="fill: rgb(0,0,0)" />
	<circle cx="463.670202301505" cy="-234.830064055771" r="2" style="fill: rgb(0,0,0)" />
	<circle cx="123.15349032107" cy="-234.574226277973" r="2" style="fill: rgb(0,0,0)" />
	<circle cx="165.172768963652" cy="-170.068422374478" r="2" style="fill: rgb(0,0,0)" />
	<circle cx="217.749594664694" cy="-109.298618045352" r="2" style="fill: rgb(0,0,0)" />
	<circle cx="262.081457111918" cy="-53.5" r="2" style="fill: rgb(0,0,0)" />
	<circle cx="331.062191685434" cy="-80.8529553371274" r="2" style="fill: rgb(0,0,0)" />
	<circle cx="561.5" cy="-592.824331911364" r="2" style="fill: rgb(0,0,0)" />
	<circle cx="544.015603135731" cy="-664.941055174892" r="2" style="fill: rgb(0,0,0)" />
	<circle cx="446.666743425071" cy="-672.154345617375" r="2" style="fill: rgb(0,0,0)" />
	<circle cx="122.839494472333" cy="-620.598844591404" r="2" style="fill: rgb(0,0,0)" />
	<circle cx="33.5" cy="-581.263278326274" r="2" style="fill: rgb(0,0,0)" />
	<circle cx="47.2010526393231" cy="-511.327014768758" r="2" style="fill: rgb(0,0,0)" />
	<!-- 
	Generated using the Perl SVG Module V2.64
	by Ronan Oger
	Info: http://www.roitsystems.com/
 -->
</svg>