<?xml version="1.0" encoding="UTF-8" standalone="yes"?>
<!DOCTYPE svg PUBLIC "-//W3C//DTD SVG 1.0//EN" "http://www.w3.org/TR/2001/REC-SVG-20010904/DTD/svg10.dtd">
<!-- generated using polymake; Michael Joswig, Georg Loho, Benjamin Lorenz, Rico Raber; license CC BY-NC-ND 3.0; see polymake.org and matchthenet.de -->
<svg height="841pt" id="document" viewBox="0 -811 465.43637677813 811" width="595pt" xmlns="http://www.w3.org/2000/svg" xmlns:svg="http://www.w3.org/2000/svg" xmlns:xlink="http://www.w3.org/1999/xlink">
	<title id="document_title">planar_net_</title>
	<polygon points="292.195201731261,-413.999999999992 399.719146572517,-413.999999999992 228.816878172013,-508.557377049164 226.350501733199,-499.005142176161 " style="fill: rgb(67,184,206); fill-opacity: 1; stroke: rgb(0,0,0); stroke-width: 3" />
	<polygon points="292.195201731261,-413.999999999992 226.350501733205,-328.994857823821 228.816878172019,-319.442622950817 399.719146572517,-413.999999999992 " style="fill: rgb(67,184,206); fill-opacity: 1; stroke: rgb(0,0,0); stroke-width: 3" />
	<polygon points="399.719146572517,-413.999999999992 228.816878172019,-319.442622950817 295.957055043647,-248.524590163935 " style="fill: rgb(14,173,105); fill-opacity: 1; stroke: rgb(0,0,0); stroke-width: 3" />
	<polygon points="393.838930839014,-306.636962705248 399.719146572517,-413.999999999992 295.957055043647,-248.524590163935 305.360115216627,-245.539516766116 " style="fill: rgb(67,184,206); fill-opacity: 1; stroke: rgb(0,0,0); stroke-width: 3" />
	<polygon points="295.957055043637,-579.475409836041 399.719146572517,-413.999999999992 393.838930839007,-521.363037294737 305.36011521661,-582.460483233851 " style="fill: rgb(67,184,206); fill-opacity: 1; stroke: rgb(0,0,0); stroke-width: 3" />
	<polygon points="228.816878172013,-508.557377049164 399.719146572517,-413.999999999992 295.957055043637,-579.475409836041 " style="fill: rgb(14,173,105); fill-opacity: 1; stroke: rgb(0,0,0); stroke-width: 3" />
	<polygon points="226.350501733199,-499.005142176161 228.816878172013,-508.557377049164 33.5,-508.55737704917 127.583451736108,-456.502571088077 " style="fill: rgb(67,184,206); fill-opacity: 1; stroke: rgb(0,0,0); stroke-width: 3" />
	<polygon points="127.583451736108,-371.4974289119 33.500000000005,-319.442622950806 228.816878172019,-319.442622950817 226.350501733205,-328.994857823821 " style="fill: rgb(67,184,206); fill-opacity: 1; stroke: rgb(0,0,0); stroke-width: 3" />
	<polygon points="228.816878172019,-319.442622950817 125.054786643136,-153.967213114749 295.957055043647,-248.524590163935 " style="fill: rgb(14,173,105); fill-opacity: 1; stroke: rgb(0,0,0); stroke-width: 3" />
	<polygon points="305.360115216627,-245.539516766116 295.957055043647,-248.524590163935 285.27566326854,-53.5 342.397758965514,-144.595910431891 " style="fill: rgb(67,184,206); fill-opacity: 1; stroke: rgb(0,0,0); stroke-width: 3" />
	<polygon points="295.957055043637,-579.475409836041 305.36011521661,-582.460483233851 342.397758965535,-683.404089568061 285.27566326868,-774.5 " style="fill: rgb(67,184,206); fill-opacity: 1; stroke: rgb(0,0,0); stroke-width: 3" />
	<polygon points="228.816878172013,-508.557377049164 295.957055043637,-579.475409836041 125.05478664313,-674.032786885231 " style="fill: rgb(14,173,105); fill-opacity: 1; stroke: rgb(0,0,0); stroke-width: 3" />
	<polygon points="305.36011521661,-582.460483233851 393.838930839007,-521.363037294737 454.93637677813,-609.841852917143 366.457561155736,-670.939298856251 " style="fill: rgb(67,184,206); fill-opacity: 1; stroke: rgb(0,0,0); stroke-width: 3" />
	<polygon points="292.195201731261,-413.999999999992 226.350501733199,-499.005142176161 141.345359557025,-433.160442178101 207.190059555083,-348.155300001932 " style="fill: rgb(67,184,206); fill-opacity: 1; stroke: rgb(0,0,0); stroke-width: 3" />
	<circle cx="292.195201731261" cy="-413.999999999992" r="2" style="fill: rgb(0,0,0)" />
	<circle cx="399.719146572517" cy="-413.999999999992" r="2" style="fill: rgb(0,0,0)" />
	<circle cx="228.816878172013" cy="-508.557377049164" r="2" style="fill: rgb(0,0,0)" />
	<circle cx="226.350501733199" cy="-499.005142176161" r="2" style="fill: rgb(0,0,0)" />
	<circle cx="226.350501733205" cy="-328.994857823821" r="2" style="fill: rgb(0,0,0)" />
	<circle cx="228.816878172019" cy="-319.442622950817" r="2" style="fill: rgb(0,0,0)" />
	<circle cx="295.957055043637" cy="-579.475409836041" r="2" style="fill: rgb(0,0,0)" />
	<circle cx="33.5" cy="-508.55737704917" r="2" style="fill: rgb(0,0,0)" />
	<circle cx="127.583451736108" cy="-456.502571088077" r="2" style="fill: rgb(0,0,0)" />
	<circle cx="141.345359557025" cy="-433.160442178101" r="2" style="fill: rgb(0,0,0)" />
	<circle cx="207.190059555083" cy="-348.155300001932" r="2" style="fill: rgb(0,0,0)" />
	<circle cx="295.957055043647" cy="-248.524590163935" r="2" style="fill: rgb(0,0,0)" />
	<circle cx="127.583451736108" cy="-371.4974289119" r="2" style="fill: rgb(0,0,0)" />
	<circle cx="33.500000000005" cy="-319.442622950806" r="2" style="fill: rgb(0,0,0)" />
	<circle cx="393.838930839007" cy="-521.363037294737" r="2" style="fill: rgb(0,0,0)" />
	<circle cx="305.36011521661" cy="-582.460483233851" r="2" style="fill: rgb(0,0,0)" />
	<circle cx="125.05478664313" cy="-674.032786885231" r="2" style="fill: rgb(0,0,0)" />
	<circle cx="305.360115216627" cy="-245.539516766116" r="2" style="fill: rgb(0,0,0)" />
	<circle cx="393.838930839014" cy="-306.636962705248" r="2" style="fill: rgb(0,0,0)" />
	<circle cx="125.054786643136" cy="-153.967213114749" r="2" style="fill: rgb(0,0,0)" />
	<circle cx="342.397758965535" cy="-683.404089568061" r="2" style="fill: rgb(0,0,0)" />
	<circle cx="285.27566326868" cy="-774.5" r="2" style="fill: rgb(0,0,0)" />
	<circle cx="454.93637677813" cy="-609.841852917143" r="2" style="fill: rgb(0,0,0)" />
	<circle cx="366.457561155736" cy="-670.939298856251" r="2" style="fill: rgb(0,0,0)" />
	<circle cx="285.27566326854" cy="-53.5" r="2" style="fill: rgb(0,0,0)" />
	<circle cx="342.397758965514" cy="-144.595910431891" r="2" style="fill: rgb(0,0,0)" />
	<!--
	Generated using the Perl SVG Module V2.87
	by Ronan Oger

	-->
</svg>