<?xml version="1.0" encoding="UTF-8" standalone="yes"?>
<!DOCTYPE svg PUBLIC "-//W3C//DTD SVG 1.0//EN" "http://www.w3.org/TR/2001/REC-SVG-20010904/DTD/svg10.dtd">
<!-- generated using polymake; Michael Joswig, Georg Loho, Benjamin Lorenz, Rico Raber; license CC BY-NC-ND 3.0; see polymake.org and matchthenet.de -->
<svg height="841pt" id="document" viewBox="0 -770.592248809174 572 770.592248809174" width="595pt" xmlns="http://www.w3.org/2000/svg" xmlns:svg="http://www.w3.org/2000/svg" xmlns:xlink="http://www.w3.org/1999/xlink">
	<title id="document_title">planar_net_</title>
	<polygon points="278.345900589883,-453.326478209003 319.799034673565,-453.326478209003 299.07246763171,-489.225945391954 " style="fill: rgb(186,59,38); fill-opacity: 1; stroke: rgb(0,0,0); stroke-width: 3" />
	<polygon points="353.335324617367,-428.960937333313 319.799034673565,-453.326478209003 278.345900589883,-453.326478209003 244.809610646081,-428.960937333313 231.99988774412,-389.53666404217 244.809610646081,-350.112390751028 278.345900589882,-325.746849875337 319.799034673564,-325.746849875337 353.335324617366,-350.112390751028 366.145047519328,-389.53666404217 " style="fill: rgb(186,59,38); fill-opacity: 1; stroke: rgb(0,0,0); stroke-width: 3" />
	<polygon points="393.882608264229,-420.342346136268 353.335324617367,-428.960937333313 366.145047519328,-389.53666404217 406.692331166183,-380.918072845133 " style="fill: rgb(186,59,38); fill-opacity: 1; stroke: rgb(0,0,0); stroke-width: 3" />
	<polygon points="244.809610646081,-428.960937333313 204.26232699923,-420.342346136278 191.452604097249,-380.91807284514 231.99988774412,-389.53666404217 " style="fill: rgb(186,59,38); fill-opacity: 1; stroke: rgb(0,0,0); stroke-width: 3" />
	<polygon points="425.953201412487,-475.890242898023 398.215640667612,-445.084560803897 429.021322761738,-417.347000059021 456.75888350661,-448.152682153138 " style="fill: rgb(186,59,38); fill-opacity: 1; stroke: rgb(0,0,0); stroke-width: 3" />
	<polygon points="199.92929459585,-445.084560803869 172.191733850956,-475.890242897977 141.386051756845,-448.152682153085 169.123612501733,-417.347000058978 " style="fill: rgb(186,59,38); fill-opacity: 1; stroke: rgb(0,0,0); stroke-width: 3" />
	<polygon points="366.145047519328,-389.53666404217 353.335324617366,-350.112390751028 392.759597908512,-337.302667849062 405.569320810474,-376.7269411402 " style="fill: rgb(186,59,38); fill-opacity: 1; stroke: rgb(0,0,0); stroke-width: 3" />
	<polygon points="244.809610646081,-350.112390751028 231.99988774412,-389.53666404217 192.575614452973,-376.726941140209 205.385337354927,-337.302667849073 " style="fill: rgb(186,59,38); fill-opacity: 1; stroke: rgb(0,0,0); stroke-width: 3" />
	<polygon points="192.575614452973,-376.726941140209 151.12248036929,-376.726941140214 138.312757467317,-337.302667849085 171.849047411115,-312.937126973395 205.385337354927,-337.302667849073 " style="fill: rgb(186,59,38); fill-opacity: 1; stroke: rgb(0,0,0); stroke-width: 3" />
	<polygon points="353.335324617366,-350.112390751028 319.799034673564,-325.746849875337 357.668357020773,-308.886341273167 391.204646964563,-333.251882148861 " style="fill: rgb(186,59,38); fill-opacity: 1; stroke: rgb(0,0,0); stroke-width: 3" />
	<polygon points="278.345900589882,-325.746849875337 244.809610646081,-350.112390751028 206.940288298878,-333.251882148859 240.476578242668,-308.886341273172 " style="fill: rgb(186,59,38); fill-opacity: 1; stroke: rgb(0,0,0); stroke-width: 3" />
	<polygon points="215.110564730137,-677.807466915867 252.979887077335,-694.667975518035 236.119378475167,-732.53729786524 198.250056127973,-715.676789263074 " style="fill: rgb(186,59,38); fill-opacity: 1; stroke: rgb(0,0,0); stroke-width: 3" />
	<polygon points="240.476578242668,-308.886341273172 206.940288298878,-333.251882148859 182.574747423178,-299.715592205055 216.111037366955,-275.35005132937 " style="fill: rgb(186,59,38); fill-opacity: 1; stroke: rgb(0,0,0); stroke-width: 3" />
	<polygon points="459.832177796118,-337.302667849047 426.295887852314,-312.937126973368 450.661428727999,-279.400837029554 484.197718671799,-303.76637790523 " style="fill: rgb(186,59,38); fill-opacity: 1; stroke: rgb(0,0,0); stroke-width: 3" />
	<polygon points="113.947216591618,-303.766377905279 147.483506535404,-279.40083702959 171.849047411115,-312.937126973395 138.312757467317,-337.302667849085 " style="fill: rgb(186,59,38); fill-opacity: 1; stroke: rgb(0,0,0); stroke-width: 3" />
	<polygon points="244.80961064608,-222.53276241736 231.999887744119,-261.957035708503 191.452604097265,-270.575626905536 204.262326999217,-231.151353614408 " style="fill: rgb(186,59,38); fill-opacity: 1; stroke: rgb(0,0,0); stroke-width: 3" />
	<polygon points="203.356476562397,-94.9531340836952 203.356476562393,-53.5000000000021 244.80961064607,-53.5000000000083 244.809610646079,-94.9531340836968 " style="fill: rgb(186,59,38); fill-opacity: 1; stroke: rgb(0,0,0); stroke-width: 3" />
	<polygon points="319.799034673564,-198.16722154167 278.345900589882,-198.16722154167 299.072467631723,-162.267754358716 " style="fill: rgb(186,59,38); fill-opacity: 1; stroke: rgb(0,0,0); stroke-width: 3" />
	<polygon points="282.67893299327,-78.092625481516 278.345900589882,-119.318674959388 244.809610646079,-94.9531340836968 249.142643049473,-53.7270846058271 " style="fill: rgb(186,59,38); fill-opacity: 1; stroke: rgb(0,0,0); stroke-width: 3" />
	<polygon points="394.788458701052,-94.9531340836951 353.335324617369,-94.9531340836931 353.335324617369,-53.5 394.788458701043,-53.5000000000072 " style="fill: rgb(186,59,38); fill-opacity: 1; stroke: rgb(0,0,0); stroke-width: 3" />
	<polygon points="157.010463716634,-158.742948250525 169.820186618595,-119.318674959384 203.356476562397,-94.9531340836952 244.809610646079,-94.9531340836968 278.345900589882,-119.318674959388 291.155623491843,-158.74294825053 278.345900589882,-198.16722154167 244.80961064608,-222.53276241736 203.356476562398,-222.532762417358 169.820186618596,-198.167221541667 " style="fill: rgb(186,59,38); fill-opacity: 1; stroke: rgb(0,0,0); stroke-width: 3" />
	<polygon points="57.3715023052167,-580.906106542665 78.0980693470437,-616.805573725616 57.3715023051889,-652.705040908568 36.644935263367,-616.805573725626 " style="fill: rgb(186,59,38); fill-opacity: 1; stroke: rgb(0,0,0); stroke-width: 3" />
	<polygon points="520.046865916312,-616.805573725729 540.773432958167,-580.906106542779 561.5,-616.805573725745 540.773432958141,-652.705040908681 " style="fill: rgb(186,59,38); fill-opacity: 1; stroke: rgb(0,0,0); stroke-width: 3" />
	<polygon points="428.324748644853,-119.318674959388 441.134471546814,-158.742948250532 428.324748644851,-198.167221541675 394.788458701048,-222.532762417365 353.335324617366,-222.532762417362 319.799034673564,-198.16722154167 306.989311771604,-158.742948250526 319.799034673566,-119.318674959383 353.335324617369,-94.9531340836931 394.788458701052,-94.9531340836951 " style="fill: rgb(186,59,38); fill-opacity: 1; stroke: rgb(0,0,0); stroke-width: 3" />
	<polygon points="94.7738506886558,-712.761454152846 54.2265670418253,-721.380045349887 33.5,-685.480578166937 61.2375607448777,-654.674896072822 99.1068830920556,-671.535404674986 " style="fill: rgb(186,59,38); fill-opacity: 1; stroke: rgb(0,0,0); stroke-width: 3" />
	<polygon points="366.145047519327,-261.957035708505 353.335324617366,-222.532762417362 393.882608264226,-231.151353614381 406.692331166204,-270.575626905504 " style="fill: rgb(186,59,38); fill-opacity: 1; stroke: rgb(0,0,0); stroke-width: 3" />
	<polygon points="89.442095453517,-508.874374970699 61.7045347086233,-539.680057064807 48.8948118066644,-500.255783773654 76.6323725515586,-469.450101679559 " style="fill: rgb(186,59,38); fill-opacity: 1; stroke: rgb(0,0,0); stroke-width: 3" />
	<polygon points="78.0980693470437,-616.805573725616 115.96739169423,-633.666082327784 99.1068830920556,-671.535404674986 61.2375607448777,-654.674896072822 " style="fill: rgb(186,59,38); fill-opacity: 1; stroke: rgb(0,0,0); stroke-width: 3" />
	<polygon points="482.177543569109,-633.666082327885 520.046865916312,-616.805573725729 536.907374518475,-654.674896072936 499.038052171274,-671.535404675091 " style="fill: rgb(186,59,38); fill-opacity: 1; stroke: rgb(0,0,0); stroke-width: 3" />
	<polygon points="536.440400554789,-539.680057064911 508.702839809914,-508.874374970786 521.512562711898,-469.450101679646 549.250123456765,-500.255783773758 " style="fill: rgb(186,59,38); fill-opacity: 1; stroke: rgb(0,0,0); stroke-width: 3" />
	<polygon points="319.799034673564,-325.746849875337 278.345900589882,-325.746849875337 244.80961064608,-301.381308999646 231.999887744119,-261.957035708503 244.80961064608,-222.53276241736 278.345900589882,-198.16722154167 319.799034673564,-198.16722154167 353.335324617366,-222.532762417362 366.145047519327,-261.957035708505 353.335324617366,-301.381308999647 " style="fill: rgb(186,59,38); fill-opacity: 1; stroke: rgb(0,0,0); stroke-width: 3" />
	<polygon points="357.668357020773,-308.886341273167 382.033897896474,-275.350051329364 415.570187840261,-299.71559220505 391.204646964563,-333.251882148861 " style="fill: rgb(186,59,38); fill-opacity: 1; stroke: rgb(0,0,0); stroke-width: 3" />
	<polygon points="134.322411503758,-492.750751500123 93.0963620258946,-488.417719096716 97.4293944293001,-447.191669618855 138.655443907169,-451.524702022256 " style="fill: rgb(186,59,38); fill-opacity: 1; stroke: rgb(0,0,0); stroke-width: 3" />
	<polygon points="156.514675341076,-625.04749113075 143.704952439115,-664.471764421894 103.157668792271,-673.090355618943 115.96739169423,-633.666082327784 " style="fill: rgb(186,59,38); fill-opacity: 1; stroke: rgb(0,0,0); stroke-width: 3" />
	<polygon points="293.527170724181,-686.049384321003 280.71744782221,-725.473657612146 240.170164175354,-734.092248809174 252.979887077335,-694.667975518035 " style="fill: rgb(186,59,38); fill-opacity: 1; stroke: rgb(0,0,0); stroke-width: 3" />
	<polygon points="463.822523759684,-492.750751500199 459.489491356304,-451.524702022343 500.715540834171,-447.191669618959 505.048573237556,-488.417719096803 " style="fill: rgb(186,59,38); fill-opacity: 1; stroke: rgb(0,0,0); stroke-width: 3" />
	<polygon points="447.022454894158,-376.726941140189 405.569320810474,-376.7269411402 392.759597908512,-337.302667849062 426.295887852314,-312.937126973368 459.832177796118,-337.302667849047 " style="fill: rgb(186,59,38); fill-opacity: 1; stroke: rgb(0,0,0); stroke-width: 3" />
	<polygon points="172.191733850956,-475.890242897977 167.85870144755,-517.116292375835 134.322411503758,-492.750751500123 138.655443907169,-451.524702022256 " style="fill: rgb(186,59,38); fill-opacity: 1; stroke: rgb(0,0,0); stroke-width: 3" />
	<polygon points="430.286233815866,-517.116292375891 425.953201412487,-475.890242898023 459.489491356304,-451.524702022343 463.822523759684,-492.750751500199 " style="fill: rgb(186,59,38); fill-opacity: 1; stroke: rgb(0,0,0); stroke-width: 3" />
	<polygon points="167.85870144755,-517.116292375835 188.585268489377,-553.015759558785 184.25223608597,-594.241809036643 156.514675341076,-625.04749113075 115.96739169423,-633.666082327784 78.0980693470437,-616.805573725616 57.3715023052167,-580.906106542665 61.7045347086233,-539.680057064807 89.442095453517,-508.874374970699 129.989379100363,-500.255783773666 " style="fill: rgb(186,59,38); fill-opacity: 1; stroke: rgb(0,0,0); stroke-width: 3" />
	<polygon points="409.559666774011,-553.015759558841 430.286233815866,-517.116292375891 468.155556163069,-500.255783773735 508.702839809914,-508.874374970786 536.440400554789,-539.680057064911 540.773432958167,-580.906106542779 520.046865916312,-616.805573725729 482.177543569109,-633.666082327885 441.630259922264,-625.047491130834 413.892699177389,-594.241809036709 " style="fill: rgb(186,59,38); fill-opacity: 1; stroke: rgb(0,0,0); stroke-width: 3" />
	<polygon points="188.585268489377,-553.015759558785 226.454590836564,-569.876268160952 192.918300892758,-594.241809036675 " style="fill: rgb(186,59,38); fill-opacity: 1; stroke: rgb(0,0,0); stroke-width: 3" />
	<polygon points="371.690344426809,-569.876268160998 409.559666774011,-553.015759558841 405.226634370604,-594.241809036699 " style="fill: rgb(186,59,38); fill-opacity: 1; stroke: rgb(0,0,0); stroke-width: 3" />
	<polygon points="304.871196830608,-578.118185566087 325.597763872453,-614.017652749037 321.264731469064,-655.243702226895 293.527170724181,-686.049384321003 252.979887077335,-694.667975518035 215.110564730137,-677.807466915867 194.383997688292,-641.907999732917 198.717030091681,-600.68195025506 226.454590836564,-569.876268160952 267.00187448341,-561.257676963919 " style="fill: rgb(186,59,38); fill-opacity: 1; stroke: rgb(0,0,0); stroke-width: 3" />
	<polygon points="294.739435228304,-530.451994869811 307.549158130261,-569.876268160955 267.00187448341,-561.257676963919 " style="fill: rgb(186,59,38); fill-opacity: 1; stroke: rgb(0,0,0); stroke-width: 3" />
	<polygon points="278.345900589883,-453.326478209003 299.07246763171,-489.225945391954 294.739435228304,-530.451994869811 267.00187448341,-561.257676963919 226.454590836564,-569.876268160952 188.585268489377,-553.015759558785 167.85870144755,-517.116292375835 172.191733850956,-475.890242897977 199.92929459585,-445.084560803869 240.476578242696,-436.465969606836 " style="fill: rgb(186,59,38); fill-opacity: 1; stroke: rgb(0,0,0); stroke-width: 3" />
	<polygon points="299.07246763171,-489.225945391954 319.799034673565,-453.326478209003 357.668357020767,-436.465969606847 398.215640667612,-445.084560803897 425.953201412487,-475.890242898023 430.286233815866,-517.116292375891 409.559666774011,-553.015759558841 371.690344426809,-569.876268160998 331.143060779964,-561.257676963947 303.405500035088,-530.451994869822 " style="fill: rgb(186,59,38); fill-opacity: 1; stroke: rgb(0,0,0); stroke-width: 3" />
	<circle cx="278.345900589883" cy="-453.326478209003" r="2" style="fill: rgb(0,0,0)" />
	<circle cx="319.799034673565" cy="-453.326478209003" r="2" style="fill: rgb(0,0,0)" />
	<circle cx="299.07246763171" cy="-489.225945391954" r="2" style="fill: rgb(0,0,0)" />
	<circle cx="244.809610646081" cy="-428.960937333313" r="2" style="fill: rgb(0,0,0)" />
	<circle cx="231.99988774412" cy="-389.53666404217" r="2" style="fill: rgb(0,0,0)" />
	<circle cx="244.809610646081" cy="-350.112390751028" r="2" style="fill: rgb(0,0,0)" />
	<circle cx="278.345900589882" cy="-325.746849875337" r="2" style="fill: rgb(0,0,0)" />
	<circle cx="319.799034673564" cy="-325.746849875337" r="2" style="fill: rgb(0,0,0)" />
	<circle cx="353.335324617366" cy="-350.112390751028" r="2" style="fill: rgb(0,0,0)" />
	<circle cx="366.145047519328" cy="-389.53666404217" r="2" style="fill: rgb(0,0,0)" />
	<circle cx="353.335324617367" cy="-428.960937333313" r="2" style="fill: rgb(0,0,0)" />
	<circle cx="294.739435228304" cy="-530.451994869811" r="2" style="fill: rgb(0,0,0)" />
	<circle cx="267.00187448341" cy="-561.257676963919" r="2" style="fill: rgb(0,0,0)" />
	<circle cx="226.454590836564" cy="-569.876268160952" r="2" style="fill: rgb(0,0,0)" />
	<circle cx="188.585268489377" cy="-553.015759558785" r="2" style="fill: rgb(0,0,0)" />
	<circle cx="167.85870144755" cy="-517.116292375835" r="2" style="fill: rgb(0,0,0)" />
	<circle cx="172.191733850956" cy="-475.890242897977" r="2" style="fill: rgb(0,0,0)" />
	<circle cx="199.92929459585" cy="-445.084560803869" r="2" style="fill: rgb(0,0,0)" />
	<circle cx="240.476578242696" cy="-436.465969606836" r="2" style="fill: rgb(0,0,0)" />
	<circle cx="357.668357020767" cy="-436.465969606847" r="2" style="fill: rgb(0,0,0)" />
	<circle cx="398.215640667612" cy="-445.084560803897" r="2" style="fill: rgb(0,0,0)" />
	<circle cx="425.953201412487" cy="-475.890242898023" r="2" style="fill: rgb(0,0,0)" />
	<circle cx="430.286233815866" cy="-517.116292375891" r="2" style="fill: rgb(0,0,0)" />
	<circle cx="409.559666774011" cy="-553.015759558841" r="2" style="fill: rgb(0,0,0)" />
	<circle cx="371.690344426809" cy="-569.876268160998" r="2" style="fill: rgb(0,0,0)" />
	<circle cx="331.143060779964" cy="-561.257676963947" r="2" style="fill: rgb(0,0,0)" />
	<circle cx="303.405500035088" cy="-530.451994869822" r="2" style="fill: rgb(0,0,0)" />
	<circle cx="406.692331166183" cy="-380.918072845133" r="2" style="fill: rgb(0,0,0)" />
	<circle cx="393.882608264229" cy="-420.342346136268" r="2" style="fill: rgb(0,0,0)" />
	<circle cx="204.26232699923" cy="-420.342346136278" r="2" style="fill: rgb(0,0,0)" />
	<circle cx="191.452604097249" cy="-380.91807284514" r="2" style="fill: rgb(0,0,0)" />
	<circle cx="392.759597908512" cy="-337.302667849062" r="2" style="fill: rgb(0,0,0)" />
	<circle cx="405.569320810474" cy="-376.7269411402" r="2" style="fill: rgb(0,0,0)" />
	<circle cx="192.575614452973" cy="-376.726941140209" r="2" style="fill: rgb(0,0,0)" />
	<circle cx="205.385337354927" cy="-337.302667849073" r="2" style="fill: rgb(0,0,0)" />
	<circle cx="357.668357020773" cy="-308.886341273167" r="2" style="fill: rgb(0,0,0)" />
	<circle cx="391.204646964563" cy="-333.251882148861" r="2" style="fill: rgb(0,0,0)" />
	<circle cx="206.940288298878" cy="-333.251882148859" r="2" style="fill: rgb(0,0,0)" />
	<circle cx="240.476578242668" cy="-308.886341273172" r="2" style="fill: rgb(0,0,0)" />
	<circle cx="244.80961064608" cy="-301.381308999646" r="2" style="fill: rgb(0,0,0)" />
	<circle cx="231.999887744119" cy="-261.957035708503" r="2" style="fill: rgb(0,0,0)" />
	<circle cx="244.80961064608" cy="-222.53276241736" r="2" style="fill: rgb(0,0,0)" />
	<circle cx="278.345900589882" cy="-198.16722154167" r="2" style="fill: rgb(0,0,0)" />
	<circle cx="319.799034673564" cy="-198.16722154167" r="2" style="fill: rgb(0,0,0)" />
	<circle cx="353.335324617366" cy="-222.532762417362" r="2" style="fill: rgb(0,0,0)" />
	<circle cx="366.145047519327" cy="-261.957035708505" r="2" style="fill: rgb(0,0,0)" />
	<circle cx="353.335324617366" cy="-301.381308999647" r="2" style="fill: rgb(0,0,0)" />
	<circle cx="141.386051756845" cy="-448.152682153085" r="2" style="fill: rgb(0,0,0)" />
	<circle cx="169.123612501733" cy="-417.347000058978" r="2" style="fill: rgb(0,0,0)" />
	<circle cx="134.322411503758" cy="-492.750751500123" r="2" style="fill: rgb(0,0,0)" />
	<circle cx="138.655443907169" cy="-451.524702022256" r="2" style="fill: rgb(0,0,0)" />
	<circle cx="184.25223608597" cy="-594.241809036643" r="2" style="fill: rgb(0,0,0)" />
	<circle cx="156.514675341076" cy="-625.04749113075" r="2" style="fill: rgb(0,0,0)" />
	<circle cx="115.96739169423" cy="-633.666082327784" r="2" style="fill: rgb(0,0,0)" />
	<circle cx="78.0980693470437" cy="-616.805573725616" r="2" style="fill: rgb(0,0,0)" />
	<circle cx="57.3715023052167" cy="-580.906106542665" r="2" style="fill: rgb(0,0,0)" />
	<circle cx="61.7045347086233" cy="-539.680057064807" r="2" style="fill: rgb(0,0,0)" />
	<circle cx="89.442095453517" cy="-508.874374970699" r="2" style="fill: rgb(0,0,0)" />
	<circle cx="129.989379100363" cy="-500.255783773666" r="2" style="fill: rgb(0,0,0)" />
	<circle cx="192.918300892758" cy="-594.241809036675" r="2" style="fill: rgb(0,0,0)" />
	<circle cx="304.871196830608" cy="-578.118185566087" r="2" style="fill: rgb(0,0,0)" />
	<circle cx="325.597763872453" cy="-614.017652749037" r="2" style="fill: rgb(0,0,0)" />
	<circle cx="321.264731469064" cy="-655.243702226895" r="2" style="fill: rgb(0,0,0)" />
	<circle cx="293.527170724181" cy="-686.049384321003" r="2" style="fill: rgb(0,0,0)" />
	<circle cx="252.979887077335" cy="-694.667975518035" r="2" style="fill: rgb(0,0,0)" />
	<circle cx="215.110564730137" cy="-677.807466915867" r="2" style="fill: rgb(0,0,0)" />
	<circle cx="194.383997688292" cy="-641.907999732917" r="2" style="fill: rgb(0,0,0)" />
	<circle cx="198.717030091681" cy="-600.68195025506" r="2" style="fill: rgb(0,0,0)" />
	<circle cx="307.549158130261" cy="-569.876268160955" r="2" style="fill: rgb(0,0,0)" />
	<circle cx="429.021322761738" cy="-417.347000059021" r="2" style="fill: rgb(0,0,0)" />
	<circle cx="456.75888350661" cy="-448.152682153138" r="2" style="fill: rgb(0,0,0)" />
	<circle cx="459.489491356304" cy="-451.524702022343" r="2" style="fill: rgb(0,0,0)" />
	<circle cx="463.822523759684" cy="-492.750751500199" r="2" style="fill: rgb(0,0,0)" />
	<circle cx="468.155556163069" cy="-500.255783773735" r="2" style="fill: rgb(0,0,0)" />
	<circle cx="508.702839809914" cy="-508.874374970786" r="2" style="fill: rgb(0,0,0)" />
	<circle cx="536.440400554789" cy="-539.680057064911" r="2" style="fill: rgb(0,0,0)" />
	<circle cx="540.773432958167" cy="-580.906106542779" r="2" style="fill: rgb(0,0,0)" />
	<circle cx="520.046865916312" cy="-616.805573725729" r="2" style="fill: rgb(0,0,0)" />
	<circle cx="482.177543569109" cy="-633.666082327885" r="2" style="fill: rgb(0,0,0)" />
	<circle cx="441.630259922264" cy="-625.047491130834" r="2" style="fill: rgb(0,0,0)" />
	<circle cx="413.892699177389" cy="-594.241809036709" r="2" style="fill: rgb(0,0,0)" />
	<circle cx="405.226634370604" cy="-594.241809036699" r="2" style="fill: rgb(0,0,0)" />
	<circle cx="426.295887852314" cy="-312.937126973368" r="2" style="fill: rgb(0,0,0)" />
	<circle cx="459.832177796118" cy="-337.302667849047" r="2" style="fill: rgb(0,0,0)" />
	<circle cx="447.022454894158" cy="-376.726941140189" r="2" style="fill: rgb(0,0,0)" />
	<circle cx="151.12248036929" cy="-376.726941140214" r="2" style="fill: rgb(0,0,0)" />
	<circle cx="138.312757467317" cy="-337.302667849085" r="2" style="fill: rgb(0,0,0)" />
	<circle cx="171.849047411115" cy="-312.937126973395" r="2" style="fill: rgb(0,0,0)" />
	<circle cx="382.033897896474" cy="-275.350051329364" r="2" style="fill: rgb(0,0,0)" />
	<circle cx="415.570187840261" cy="-299.71559220505" r="2" style="fill: rgb(0,0,0)" />
	<circle cx="182.574747423178" cy="-299.715592205055" r="2" style="fill: rgb(0,0,0)" />
	<circle cx="216.111037366955" cy="-275.35005132937" r="2" style="fill: rgb(0,0,0)" />
	<circle cx="191.452604097265" cy="-270.575626905536" r="2" style="fill: rgb(0,0,0)" />
	<circle cx="204.262326999217" cy="-231.151353614408" r="2" style="fill: rgb(0,0,0)" />
	<circle cx="299.072467631723" cy="-162.267754358716" r="2" style="fill: rgb(0,0,0)" />
	<circle cx="203.356476562398" cy="-222.532762417358" r="2" style="fill: rgb(0,0,0)" />
	<circle cx="169.820186618596" cy="-198.167221541667" r="2" style="fill: rgb(0,0,0)" />
	<circle cx="157.010463716634" cy="-158.742948250525" r="2" style="fill: rgb(0,0,0)" />
	<circle cx="169.820186618595" cy="-119.318674959384" r="2" style="fill: rgb(0,0,0)" />
	<circle cx="203.356476562397" cy="-94.9531340836952" r="2" style="fill: rgb(0,0,0)" />
	<circle cx="244.809610646079" cy="-94.9531340836968" r="2" style="fill: rgb(0,0,0)" />
	<circle cx="278.345900589882" cy="-119.318674959388" r="2" style="fill: rgb(0,0,0)" />
	<circle cx="291.155623491843" cy="-158.74294825053" r="2" style="fill: rgb(0,0,0)" />
	<circle cx="306.989311771604" cy="-158.742948250526" r="2" style="fill: rgb(0,0,0)" />
	<circle cx="319.799034673566" cy="-119.318674959383" r="2" style="fill: rgb(0,0,0)" />
	<circle cx="353.335324617369" cy="-94.9531340836931" r="2" style="fill: rgb(0,0,0)" />
	<circle cx="394.788458701052" cy="-94.9531340836951" r="2" style="fill: rgb(0,0,0)" />
	<circle cx="428.324748644853" cy="-119.318674959388" r="2" style="fill: rgb(0,0,0)" />
	<circle cx="441.134471546814" cy="-158.742948250532" r="2" style="fill: rgb(0,0,0)" />
	<circle cx="428.324748644851" cy="-198.167221541675" r="2" style="fill: rgb(0,0,0)" />
	<circle cx="394.788458701048" cy="-222.532762417365" r="2" style="fill: rgb(0,0,0)" />
	<circle cx="393.882608264226" cy="-231.151353614381" r="2" style="fill: rgb(0,0,0)" />
	<circle cx="406.692331166204" cy="-270.575626905504" r="2" style="fill: rgb(0,0,0)" />
	<circle cx="93.0963620258946" cy="-488.417719096716" r="2" style="fill: rgb(0,0,0)" />
	<circle cx="97.4293944293001" cy="-447.191669618855" r="2" style="fill: rgb(0,0,0)" />
	<circle cx="57.3715023051889" cy="-652.705040908568" r="2" style="fill: rgb(0,0,0)" />
	<circle cx="36.644935263367" cy="-616.805573725626" r="2" style="fill: rgb(0,0,0)" />
	<circle cx="48.8948118066644" cy="-500.255783773654" r="2" style="fill: rgb(0,0,0)" />
	<circle cx="76.6323725515586" cy="-469.450101679559" r="2" style="fill: rgb(0,0,0)" />
	<circle cx="99.1068830920556" cy="-671.535404674986" r="2" style="fill: rgb(0,0,0)" />
	<circle cx="61.2375607448777" cy="-654.674896072822" r="2" style="fill: rgb(0,0,0)" />
	<circle cx="143.704952439115" cy="-664.471764421894" r="2" style="fill: rgb(0,0,0)" />
	<circle cx="103.157668792271" cy="-673.090355618943" r="2" style="fill: rgb(0,0,0)" />
	<circle cx="236.119378475167" cy="-732.53729786524" r="2" style="fill: rgb(0,0,0)" />
	<circle cx="198.250056127973" cy="-715.676789263074" r="2" style="fill: rgb(0,0,0)" />
	<circle cx="280.71744782221" cy="-725.473657612146" r="2" style="fill: rgb(0,0,0)" />
	<circle cx="240.170164175354" cy="-734.092248809174" r="2" style="fill: rgb(0,0,0)" />
	<circle cx="500.715540834171" cy="-447.191669618959" r="2" style="fill: rgb(0,0,0)" />
	<circle cx="505.048573237556" cy="-488.417719096803" r="2" style="fill: rgb(0,0,0)" />
	<circle cx="561.5" cy="-616.805573725745" r="2" style="fill: rgb(0,0,0)" />
	<circle cx="540.773432958141" cy="-652.705040908681" r="2" style="fill: rgb(0,0,0)" />
	<circle cx="536.907374518475" cy="-654.674896072936" r="2" style="fill: rgb(0,0,0)" />
	<circle cx="499.038052171274" cy="-671.535404675091" r="2" style="fill: rgb(0,0,0)" />
	<circle cx="521.512562711898" cy="-469.450101679646" r="2" style="fill: rgb(0,0,0)" />
	<circle cx="549.250123456765" cy="-500.255783773758" r="2" style="fill: rgb(0,0,0)" />
	<circle cx="450.661428727999" cy="-279.400837029554" r="2" style="fill: rgb(0,0,0)" />
	<circle cx="484.197718671799" cy="-303.76637790523" r="2" style="fill: rgb(0,0,0)" />
	<circle cx="113.947216591618" cy="-303.766377905279" r="2" style="fill: rgb(0,0,0)" />
	<circle cx="147.483506535404" cy="-279.40083702959" r="2" style="fill: rgb(0,0,0)" />
	<circle cx="203.356476562393" cy="-53.5000000000021" r="2" style="fill: rgb(0,0,0)" />
	<circle cx="244.80961064607" cy="-53.5000000000083" r="2" style="fill: rgb(0,0,0)" />
	<circle cx="249.142643049473" cy="-53.7270846058271" r="2" style="fill: rgb(0,0,0)" />
	<circle cx="282.67893299327" cy="-78.092625481516" r="2" style="fill: rgb(0,0,0)" />
	<circle cx="353.335324617369" cy="-53.5" r="2" style="fill: rgb(0,0,0)" />
	<circle cx="394.788458701043" cy="-53.5000000000072" r="2" style="fill: rgb(0,0,0)" />
	<circle cx="94.7738506886558" cy="-712.761454152846" r="2" style="fill: rgb(0,0,0)" />
	<circle cx="54.2265670418253" cy="-721.380045349887" r="2" style="fill: rgb(0,0,0)" />
	<circle cx="33.5" cy="-685.480578166937" r="2" style="fill: rgb(0,0,0)" />
	<!--
	Generated using the Perl SVG Module V2.86
	by Ronan Oger
	Info: http://www.roitsystems.com/
	-->
</svg>