<?xml version="1.0" encoding="UTF-8" standalone="yes"?>
<!DOCTYPE svg PUBLIC "-//W3C//DTD SVG 1.0//EN" "http://www.w3.org/TR/2001/REC-SVG-20010904/DTD/svg10.dtd">
<!-- generated using polymake; Michael Joswig, Georg Loho, Benjamin Lorenz, Rico Raber; license CC BY-NC-ND 3.0; see polymake.org and matchthenet.de -->
<svg height="841pt" id="document" viewBox="0 -788.671090558154 572 788.671090558154" width="595pt" xmlns="http://www.w3.org/2000/svg" xmlns:svg="http://www.w3.org/2000/svg" xmlns:xlink="http://www.w3.org/1999/xlink">
	<title id="document_title">planar_net_</title>
	<polygon points="223.322647829471,-402.835545279077 298.527784713124,-402.835545279077 301.526697772279,-440.84401038473 269.787790259791,-461.969318646085 " style="fill: rgb(42,107,61); fill-opacity: 1; stroke: rgb(0,0,0); stroke-width: 3" />
	<polygon points="301.526697772274,-364.827080173425 298.527784713124,-402.835545279077 223.322647829471,-402.835545279077 269.78779025979,-343.701771912067 " style="fill: rgb(42,107,61); fill-opacity: 1; stroke: rgb(0,0,0); stroke-width: 3" />
	<polygon points="301.526697772279,-440.84401038473 298.527784713124,-402.835545279077 380.744291212923,-425.069808224945 386.267396199527,-449.26523043494 367.657328051616,-465.684381087241 " style="fill: rgb(42,107,61); fill-opacity: 1; stroke: rgb(0,0,0); stroke-width: 3" />
	<polygon points="223.322647829471,-402.835545279077 269.787790259791,-461.969318646085 241.754611589868,-487.810715529462 205.5340532336,-475.906596427906 " style="fill: rgb(42,107,61); fill-opacity: 1; stroke: rgb(0,0,0); stroke-width: 3" />
	<polygon points="380.744291212953,-380.601282333177 298.527784713124,-402.835545279077 301.526697772274,-364.827080173425 367.65732805161,-339.986709470902 386.267396199542,-356.405860123188 " style="fill: rgb(42,107,61); fill-opacity: 1; stroke: rgb(0,0,0); stroke-width: 3" />
	<polygon points="269.787790259791,-461.969318646085 301.526697772279,-440.84401038473 361.917173670715,-477.494995344768 360.504944788202,-502.272581066468 338.067667984161,-512.878794067892 " style="fill: rgb(42,107,61); fill-opacity: 1; stroke: rgb(0,0,0); stroke-width: 3" />
	<polygon points="223.322647829471,-402.835545279077 205.534053233593,-329.764494130252 241.754611589862,-317.860375028699 269.78779025979,-343.701771912067 " style="fill: rgb(42,107,61); fill-opacity: 1; stroke: rgb(0,0,0); stroke-width: 3" />
	<polygon points="269.787790259791,-461.969318646085 303.102081309998,-540.35346501255 287.489653724884,-559.64530913157 263.081137541712,-555.156714435156 241.754611589868,-487.810715529462 " style="fill: rgb(42,107,61); fill-opacity: 1; stroke: rgb(0,0,0); stroke-width: 3" />
	<polygon points="361.917173670713,-328.176095213394 301.526697772274,-364.827080173425 269.78779025979,-343.701771912067 338.067667984161,-292.792296490272 360.504944788201,-303.398509491697 " style="fill: rgb(42,107,61); fill-opacity: 1; stroke: rgb(0,0,0); stroke-width: 3" />
	<polygon points="223.322647829471,-402.835545279077 205.5340532336,-475.906596427906 167.894803260025,-469.83010396508 154.876305290144,-433.994986973055 " style="fill: rgb(42,107,61); fill-opacity: 1; stroke: rgb(0,0,0); stroke-width: 3" />
	<polygon points="303.102081309977,-265.317625545586 269.78779025979,-343.701771912067 241.754611589862,-317.860375028699 263.081137541687,-250.514376122999 287.489653724858,-246.025781426573 " style="fill: rgb(42,107,61); fill-opacity: 1; stroke: rgb(0,0,0); stroke-width: 3" />
	<polygon points="205.5340532336,-475.906596427906 241.754611589868,-487.810715529462 250.247928033648,-557.94036584633 229.892781852782,-572.138646325615 207.690353567334,-561.049222407196 " style="fill: rgb(42,107,61); fill-opacity: 1; stroke: rgb(0,0,0); stroke-width: 3" />
	<polygon points="205.5340532336,-475.906596427906 164.483704864933,-550.530890652967 139.668469008398,-550.174219939974 128.117161804561,-528.208554766904 167.894803260025,-469.83010396508 " style="fill: rgb(42,107,61); fill-opacity: 1; stroke: rgb(0,0,0); stroke-width: 3" />
	<polygon points="205.534053233593,-329.764494130252 207.690353567332,-244.621868150969 229.892781852781,-233.532444232549 250.247928033647,-247.730724711831 241.754611589862,-317.860375028699 " style="fill: rgb(42,107,61); fill-opacity: 1; stroke: rgb(0,0,0); stroke-width: 3" />
	<polygon points="154.876305290144,-433.994986973055 167.894803260025,-469.83010396508 117.999439121752,-519.837672545142 94.2590040859234,-512.6047693298 89.2609477377069,-488.295458822241 " style="fill: rgb(42,107,61); fill-opacity: 1; stroke: rgb(0,0,0); stroke-width: 3" />
	<polygon points="386.267396199527,-449.26523043494 380.744291212923,-425.069808224945 400.486757275935,-410.031251832662 561.5,-490.580133239789 " style="fill: rgb(42,107,61); fill-opacity: 1; stroke: rgb(0,0,0); stroke-width: 3" />
	<polygon points="386.267396199542,-356.405860123188 367.65732805161,-339.986709470902 374.905831405145,-316.251032869068 552.655498517992,-287.642599326916 " style="fill: rgb(42,107,61); fill-opacity: 1; stroke: rgb(0,0,0); stroke-width: 3" />
	<polygon points="367.657328051616,-465.684381087241 386.267396199527,-449.26523043494 552.655498518062,-518.028491230946 374.905831405166,-489.42005768906 " style="fill: rgb(42,107,61); fill-opacity: 1; stroke: rgb(0,0,0); stroke-width: 3" />
	<polygon points="338.067667984161,-512.878794067892 360.504944788202,-502.272581066468 501.257484199812,-614.531697745898 338.440646656069,-537.6937901695 " style="fill: rgb(42,107,61); fill-opacity: 1; stroke: rgb(0,0,0); stroke-width: 3" />
	<polygon points="360.504944788201,-303.398509491697 338.067667984161,-292.792296490272 338.440646656074,-267.977300388653 501.257484199728,-191.13939281216 " style="fill: rgb(42,107,61); fill-opacity: 1; stroke: rgb(0,0,0); stroke-width: 3" />
	<polygon points="287.489653724858,-246.025781426573 263.081137541687,-250.514376122999 248.896237089925,-230.149903535017 336.223236893632,-72.709814187549 " style="fill: rgb(42,107,61); fill-opacity: 1; stroke: rgb(0,0,0); stroke-width: 3" />
	<polygon points="287.489653724884,-559.64530913157 336.223236893855,-732.961276370529 248.896237089959,-575.521187023132 263.081137541712,-555.156714435156 " style="fill: rgb(42,107,61); fill-opacity: 1; stroke: rgb(0,0,0); stroke-width: 3" />
	<polygon points="207.690353567334,-561.049222407196 229.892781852782,-572.138646325615 228.58677568109,-752.171090558154 188.408773763745,-576.674324803353 " style="fill: rgb(42,107,61); fill-opacity: 1; stroke: rgb(0,0,0); stroke-width: 3" />
	<polygon points="207.690353567332,-244.621868150969 188.408773763739,-228.996765754801 228.586775680964,-53.5 229.892781852781,-233.532444232549 " style="fill: rgb(42,107,61); fill-opacity: 1; stroke: rgb(0,0,0); stroke-width: 3" />
	<polygon points="139.668469008398,-550.174219939974 33.5,-695.575880236119 103.340509519637,-529.637066637542 128.117161804561,-528.208554766904 " style="fill: rgb(42,107,61); fill-opacity: 1; stroke: rgb(0,0,0); stroke-width: 3" />
	<circle cx="223.322647829471" cy="-402.835545279077" r="2" style="fill: rgb(0,0,0)" />
	<circle cx="298.527784713124" cy="-402.835545279077" r="2" style="fill: rgb(0,0,0)" />
	<circle cx="301.526697772279" cy="-440.84401038473" r="2" style="fill: rgb(0,0,0)" />
	<circle cx="269.787790259791" cy="-461.969318646085" r="2" style="fill: rgb(0,0,0)" />
	<circle cx="269.78779025979" cy="-343.701771912067" r="2" style="fill: rgb(0,0,0)" />
	<circle cx="301.526697772274" cy="-364.827080173425" r="2" style="fill: rgb(0,0,0)" />
	<circle cx="380.744291212923" cy="-425.069808224945" r="2" style="fill: rgb(0,0,0)" />
	<circle cx="386.267396199527" cy="-449.26523043494" r="2" style="fill: rgb(0,0,0)" />
	<circle cx="367.657328051616" cy="-465.684381087241" r="2" style="fill: rgb(0,0,0)" />
	<circle cx="241.754611589868" cy="-487.810715529462" r="2" style="fill: rgb(0,0,0)" />
	<circle cx="205.5340532336" cy="-475.906596427906" r="2" style="fill: rgb(0,0,0)" />
	<circle cx="361.917173670715" cy="-477.494995344768" r="2" style="fill: rgb(0,0,0)" />
	<circle cx="360.504944788202" cy="-502.272581066468" r="2" style="fill: rgb(0,0,0)" />
	<circle cx="338.067667984161" cy="-512.878794067892" r="2" style="fill: rgb(0,0,0)" />
	<circle cx="367.65732805161" cy="-339.986709470902" r="2" style="fill: rgb(0,0,0)" />
	<circle cx="386.267396199542" cy="-356.405860123188" r="2" style="fill: rgb(0,0,0)" />
	<circle cx="380.744291212953" cy="-380.601282333177" r="2" style="fill: rgb(0,0,0)" />
	<circle cx="205.534053233593" cy="-329.764494130252" r="2" style="fill: rgb(0,0,0)" />
	<circle cx="241.754611589862" cy="-317.860375028699" r="2" style="fill: rgb(0,0,0)" />
	<circle cx="338.067667984161" cy="-292.792296490272" r="2" style="fill: rgb(0,0,0)" />
	<circle cx="360.504944788201" cy="-303.398509491697" r="2" style="fill: rgb(0,0,0)" />
	<circle cx="361.917173670713" cy="-328.176095213394" r="2" style="fill: rgb(0,0,0)" />
	<circle cx="400.486757275935" cy="-410.031251832662" r="2" style="fill: rgb(0,0,0)" />
	<circle cx="561.5" cy="-490.580133239789" r="2" style="fill: rgb(0,0,0)" />
	<circle cx="552.655498518062" cy="-518.028491230946" r="2" style="fill: rgb(0,0,0)" />
	<circle cx="374.905831405166" cy="-489.42005768906" r="2" style="fill: rgb(0,0,0)" />
	<circle cx="303.102081309998" cy="-540.35346501255" r="2" style="fill: rgb(0,0,0)" />
	<circle cx="287.489653724884" cy="-559.64530913157" r="2" style="fill: rgb(0,0,0)" />
	<circle cx="263.081137541712" cy="-555.156714435156" r="2" style="fill: rgb(0,0,0)" />
	<circle cx="167.894803260025" cy="-469.83010396508" r="2" style="fill: rgb(0,0,0)" />
	<circle cx="154.876305290144" cy="-433.994986973055" r="2" style="fill: rgb(0,0,0)" />
	<circle cx="250.247928033648" cy="-557.94036584633" r="2" style="fill: rgb(0,0,0)" />
	<circle cx="229.892781852782" cy="-572.138646325615" r="2" style="fill: rgb(0,0,0)" />
	<circle cx="207.690353567334" cy="-561.049222407196" r="2" style="fill: rgb(0,0,0)" />
	<circle cx="501.257484199812" cy="-614.531697745898" r="2" style="fill: rgb(0,0,0)" />
	<circle cx="338.440646656069" cy="-537.6937901695" r="2" style="fill: rgb(0,0,0)" />
	<circle cx="374.905831405145" cy="-316.251032869068" r="2" style="fill: rgb(0,0,0)" />
	<circle cx="552.655498517992" cy="-287.642599326916" r="2" style="fill: rgb(0,0,0)" />
	<circle cx="263.081137541687" cy="-250.514376122999" r="2" style="fill: rgb(0,0,0)" />
	<circle cx="287.489653724858" cy="-246.025781426573" r="2" style="fill: rgb(0,0,0)" />
	<circle cx="303.102081309977" cy="-265.317625545586" r="2" style="fill: rgb(0,0,0)" />
	<circle cx="207.690353567332" cy="-244.621868150969" r="2" style="fill: rgb(0,0,0)" />
	<circle cx="229.892781852781" cy="-233.532444232549" r="2" style="fill: rgb(0,0,0)" />
	<circle cx="250.247928033647" cy="-247.730724711831" r="2" style="fill: rgb(0,0,0)" />
	<circle cx="338.440646656074" cy="-267.977300388653" r="2" style="fill: rgb(0,0,0)" />
	<circle cx="501.257484199728" cy="-191.13939281216" r="2" style="fill: rgb(0,0,0)" />
	<circle cx="336.223236893855" cy="-732.961276370529" r="2" style="fill: rgb(0,0,0)" />
	<circle cx="248.896237089959" cy="-575.521187023132" r="2" style="fill: rgb(0,0,0)" />
	<circle cx="164.483704864933" cy="-550.530890652967" r="2" style="fill: rgb(0,0,0)" />
	<circle cx="139.668469008398" cy="-550.174219939974" r="2" style="fill: rgb(0,0,0)" />
	<circle cx="128.117161804561" cy="-528.208554766904" r="2" style="fill: rgb(0,0,0)" />
	<circle cx="117.999439121752" cy="-519.837672545142" r="2" style="fill: rgb(0,0,0)" />
	<circle cx="94.2590040859234" cy="-512.6047693298" r="2" style="fill: rgb(0,0,0)" />
	<circle cx="89.2609477377069" cy="-488.295458822241" r="2" style="fill: rgb(0,0,0)" />
	<circle cx="228.58677568109" cy="-752.171090558154" r="2" style="fill: rgb(0,0,0)" />
	<circle cx="188.408773763745" cy="-576.674324803353" r="2" style="fill: rgb(0,0,0)" />
	<circle cx="248.896237089925" cy="-230.149903535017" r="2" style="fill: rgb(0,0,0)" />
	<circle cx="336.223236893632" cy="-72.709814187549" r="2" style="fill: rgb(0,0,0)" />
	<circle cx="188.408773763739" cy="-228.996765754801" r="2" style="fill: rgb(0,0,0)" />
	<circle cx="228.586775680964" cy="-53.5" r="2" style="fill: rgb(0,0,0)" />
	<circle cx="33.5" cy="-695.575880236119" r="2" style="fill: rgb(0,0,0)" />
	<circle cx="103.340509519637" cy="-529.637066637542" r="2" style="fill: rgb(0,0,0)" />
	<!--
	Generated using the Perl SVG Module V2.84
	by Ronan Oger
	Info: http://www.roitsystems.com/
	-->
</svg>