<?xml version="1.0" encoding="UTF-8" standalone="yes"?>
<!DOCTYPE svg PUBLIC "-//W3C//DTD SVG 1.0//EN" "http://www.w3.org/TR/2001/REC-SVG-20010904/DTD/svg10.dtd">
<!-- generated using polymake; Michael Joswig, Georg Loho, Benjamin Lorenz, Rico Raber; license CC BY-NC-ND 3.0; see polymake.org and matchthenet.de -->
<svg height="841pt" id="document" viewBox="0 -619.679085110466 572 619.679085110466" width="595pt" xmlns="http://www.w3.org/2000/svg" xmlns:svg="http://www.w3.org/2000/svg" xmlns:xlink="http://www.w3.org/1999/xlink">
	<title id="document_title">planar_net_</title>
	<polygon points="201.077329191444,-222.651675415247 401.355787510085,-222.651675415247 380.211828083182,-264.939594269058 179.93336976453,-264.939594269057 " style="fill: rgb(157,116,59); fill-opacity: 1; stroke: rgb(0,0,0); stroke-width: 3" />
	<polygon points="201.077329191444,-222.651675415247 179.933369764539,-180.363756561436 380.211828083178,-180.363756561437 401.355787510085,-222.651675415247 " style="fill: rgb(157,116,59); fill-opacity: 1; stroke: rgb(0,0,0); stroke-width: 3" />
	<polygon points="179.93336976453,-264.939594269057 380.211828083182,-264.939594269058 401.35578751009,-307.227513122869 201.077329191428,-307.227513122864 " style="fill: rgb(157,116,59); fill-opacity: 1; stroke: rgb(0,0,0); stroke-width: 3" />
	<polygon points="201.077329191428,-307.227513122864 401.35578751009,-307.227513122869 380.211828083187,-349.515431976681 179.933369764515,-349.515431976669 " style="fill: rgb(157,116,59); fill-opacity: 1; stroke: rgb(0,0,0); stroke-width: 3" />
	<polygon points="401.355787510081,-138.07583770763 380.211828083178,-180.363756561437 179.933369764539,-180.363756561436 201.077329191445,-138.075837707625 " style="fill: rgb(157,116,59); fill-opacity: 1; stroke: rgb(0,0,0); stroke-width: 3" />
	<polygon points="201.077329191445,-138.075837707625 179.93336976454,-95.7879188538122 380.211828083174,-95.7879188538247 401.355787510081,-138.07583770763 " style="fill: rgb(157,116,59); fill-opacity: 1; stroke: rgb(0,0,0); stroke-width: 3" />
	<polygon points="380.211828083187,-349.515431976681 401.355787510095,-391.803350830495 201.077329191413,-391.803350830472 179.933369764515,-349.515431976669 " style="fill: rgb(157,116,59); fill-opacity: 1; stroke: rgb(0,0,0); stroke-width: 3" />
	<polygon points="401.355787510095,-391.803350830495 380.211828083192,-434.091269684308 179.9333697645,-434.091269684273 201.077329191413,-391.803350830472 " style="fill: rgb(157,116,59); fill-opacity: 1; stroke: rgb(0,0,0); stroke-width: 3" />
	<polygon points="401.355787510078,-53.500000000022 380.211828083174,-95.7879188538247 179.93336976454,-95.7879188538122 201.077329191446,-53.5 " style="fill: rgb(157,116,59); fill-opacity: 1; stroke: rgb(0,0,0); stroke-width: 3" />
	<polygon points="507.047940698428,-383.370492556845 547.789157274643,-359.381153818057 561.5,-559.189746371676 520.758783423788,-583.179085110466 " style="fill: rgb(157,116,59); fill-opacity: 1; stroke: rgb(0,0,0); stroke-width: 3" />
	<polygon points="380.211828083182,-264.939594269058 401.355787510085,-222.651675415247 509.83476919278,-253.25150096056 408.579426438419,-302.763058742702 " style="fill: rgb(157,116,59); fill-opacity: 1; stroke: rgb(0,0,0); stroke-width: 3" />
	<polygon points="408.579426438419,-302.763058742702 509.83476919278,-253.25150096056 467.37119788627,-357.65879908774 421.011595476927,-348.378585422006 " style="fill: rgb(157,116,59); fill-opacity: 1; stroke: rgb(0,0,0); stroke-width: 3" />
	<polygon points="467.37119788627,-357.65879908774 509.83476919278,-253.25150096056 547.789157274643,-359.381153818057 507.047940698428,-383.370492556845 " style="fill: rgb(157,116,59); fill-opacity: 1; stroke: rgb(0,0,0); stroke-width: 3" />
	<polygon points="509.834769192776,-192.051849869915 408.579426438412,-142.540292087789 421.011595476927,-96.9247654084659 467.371197886256,-87.6445517427201 " style="fill: rgb(157,116,59); fill-opacity: 1; stroke: rgb(0,0,0); stroke-width: 3" />
	<polygon points="509.834769192776,-192.051849869915 401.355787510085,-222.651675415247 380.211828083178,-180.363756561437 408.579426438412,-142.540292087789 " style="fill: rgb(157,116,59); fill-opacity: 1; stroke: rgb(0,0,0); stroke-width: 3" />
	<polygon points="179.93336976453,-264.939594269057 201.077329191428,-307.227513122864 172.709730836189,-345.050977596508 71.4543880818395,-295.53941981438 " style="fill: rgb(157,116,59); fill-opacity: 1; stroke: rgb(0,0,0); stroke-width: 3" />
	<polygon points="201.077329191444,-222.651675415247 179.93336976453,-264.939594269057 71.4543880818434,-234.339768723722 172.709730836212,-184.828210941594 " style="fill: rgb(157,116,59); fill-opacity: 1; stroke: rgb(0,0,0); stroke-width: 3" />
	<polygon points="71.4543880818395,-295.53941981438 172.709730836189,-345.050977596508 160.277561797679,-390.666504275832 113.917959388366,-399.94671794158 " style="fill: rgb(157,116,59); fill-opacity: 1; stroke: rgb(0,0,0); stroke-width: 3" />
	<polygon points="172.709730836212,-184.828210941594 71.4543880818434,-234.339768723722 113.917959388371,-129.932470596549 160.2775617977,-139.212684262286 " style="fill: rgb(157,116,59); fill-opacity: 1; stroke: rgb(0,0,0); stroke-width: 3" />
	<polygon points="113.917959388371,-129.932470596549 71.4543880818434,-234.339768723722 33.5,-128.21011586622 74.2412165762065,-104.220777127436 " style="fill: rgb(157,116,59); fill-opacity: 1; stroke: rgb(0,0,0); stroke-width: 3" />
	<circle cx="201.077329191444" cy="-222.651675415247" r="2" style="fill: rgb(0,0,0)" />
	<circle cx="401.355787510085" cy="-222.651675415247" r="2" style="fill: rgb(0,0,0)" />
	<circle cx="380.211828083182" cy="-264.939594269058" r="2" style="fill: rgb(0,0,0)" />
	<circle cx="179.93336976453" cy="-264.939594269057" r="2" style="fill: rgb(0,0,0)" />
	<circle cx="179.933369764539" cy="-180.363756561436" r="2" style="fill: rgb(0,0,0)" />
	<circle cx="380.211828083178" cy="-180.363756561437" r="2" style="fill: rgb(0,0,0)" />
	<circle cx="401.35578751009" cy="-307.227513122869" r="2" style="fill: rgb(0,0,0)" />
	<circle cx="201.077329191428" cy="-307.227513122864" r="2" style="fill: rgb(0,0,0)" />
	<circle cx="509.83476919278" cy="-253.25150096056" r="2" style="fill: rgb(0,0,0)" />
	<circle cx="408.579426438419" cy="-302.763058742702" r="2" style="fill: rgb(0,0,0)" />
	<circle cx="71.4543880818434" cy="-234.339768723722" r="2" style="fill: rgb(0,0,0)" />
	<circle cx="172.709730836212" cy="-184.828210941594" r="2" style="fill: rgb(0,0,0)" />
	<circle cx="201.077329191445" cy="-138.075837707625" r="2" style="fill: rgb(0,0,0)" />
	<circle cx="401.355787510081" cy="-138.07583770763" r="2" style="fill: rgb(0,0,0)" />
	<circle cx="408.579426438412" cy="-142.540292087789" r="2" style="fill: rgb(0,0,0)" />
	<circle cx="509.834769192776" cy="-192.051849869915" r="2" style="fill: rgb(0,0,0)" />
	<circle cx="380.211828083187" cy="-349.515431976681" r="2" style="fill: rgb(0,0,0)" />
	<circle cx="179.933369764515" cy="-349.515431976669" r="2" style="fill: rgb(0,0,0)" />
	<circle cx="172.709730836189" cy="-345.050977596508" r="2" style="fill: rgb(0,0,0)" />
	<circle cx="71.4543880818395" cy="-295.53941981438" r="2" style="fill: rgb(0,0,0)" />
	<circle cx="467.37119788627" cy="-357.65879908774" r="2" style="fill: rgb(0,0,0)" />
	<circle cx="421.011595476927" cy="-348.378585422006" r="2" style="fill: rgb(0,0,0)" />
	<circle cx="113.917959388371" cy="-129.932470596549" r="2" style="fill: rgb(0,0,0)" />
	<circle cx="160.2775617977" cy="-139.212684262286" r="2" style="fill: rgb(0,0,0)" />
	<circle cx="179.93336976454" cy="-95.7879188538122" r="2" style="fill: rgb(0,0,0)" />
	<circle cx="380.211828083174" cy="-95.7879188538247" r="2" style="fill: rgb(0,0,0)" />
	<circle cx="421.011595476927" cy="-96.9247654084659" r="2" style="fill: rgb(0,0,0)" />
	<circle cx="467.371197886256" cy="-87.6445517427201" r="2" style="fill: rgb(0,0,0)" />
	<circle cx="401.355787510095" cy="-391.803350830495" r="2" style="fill: rgb(0,0,0)" />
	<circle cx="201.077329191413" cy="-391.803350830472" r="2" style="fill: rgb(0,0,0)" />
	<circle cx="160.277561797679" cy="-390.666504275832" r="2" style="fill: rgb(0,0,0)" />
	<circle cx="113.917959388366" cy="-399.94671794158" r="2" style="fill: rgb(0,0,0)" />
	<circle cx="547.789157274643" cy="-359.381153818057" r="2" style="fill: rgb(0,0,0)" />
	<circle cx="507.047940698428" cy="-383.370492556845" r="2" style="fill: rgb(0,0,0)" />
	<circle cx="33.5" cy="-128.21011586622" r="2" style="fill: rgb(0,0,0)" />
	<circle cx="74.2412165762065" cy="-104.220777127436" r="2" style="fill: rgb(0,0,0)" />
	<circle cx="201.077329191446" cy="-53.5" r="2" style="fill: rgb(0,0,0)" />
	<circle cx="401.355787510078" cy="-53.500000000022" r="2" style="fill: rgb(0,0,0)" />
	<circle cx="380.211828083192" cy="-434.091269684308" r="2" style="fill: rgb(0,0,0)" />
	<circle cx="179.9333697645" cy="-434.091269684273" r="2" style="fill: rgb(0,0,0)" />
	<circle cx="561.5" cy="-559.189746371676" r="2" style="fill: rgb(0,0,0)" />
	<circle cx="520.758783423788" cy="-583.179085110466" r="2" style="fill: rgb(0,0,0)" />
	<!--
	Generated using the Perl SVG Module V2.86
	by Ronan Oger
	Info: http://www.roitsystems.com/
	-->
</svg>