<?xml version="1.0" encoding="UTF-8" standalone="yes"?>
<!DOCTYPE svg PUBLIC "-//W3C//DTD SVG 1.0//EN" "http://www.w3.org/TR/2001/REC-SVG-20010904/DTD/svg10.dtd">
<!-- generated using polymake; Michael Joswig, Georg Loho, Benjamin Lorenz, Rico Raber; license CC BY-NC-SA 3.0; see polymake.org and matchthenet.de -->
<svg height="841pt" id="document" viewBox="0 -743.230590283102 572 743.230590283102" width="595pt" xmlns="http://www.w3.org/2000/svg" xmlns:svg="http://www.w3.org/2000/svg" xmlns:xlink="http://www.w3.org/1999/xlink">
	<title id="document_title">planar_net_</title>
	<polygon points="259.785714285704,-314.792236113248 410.64285714284,-314.792236113248 335.214285714278,-445.438354169873 " style="fill: rgb(14,173,105); fill-opacity: 1; stroke: rgb(0,0,0); stroke-width: 3" />
	<polygon points="259.785714285704,-314.792236113248 184.357142857137,-184.146118056628 335.214285714275,-184.146118056628 " style="fill: rgb(14,173,105); fill-opacity: 1; stroke: rgb(0,0,0); stroke-width: 3" />
	<polygon points="335.214285714275,-184.146118056628 410.64285714284,-314.792236113248 259.785714285704,-314.792236113248 " style="fill: rgb(14,173,105); fill-opacity: 1; stroke: rgb(0,0,0); stroke-width: 3" />
	<polygon points="184.357142857137,-184.146118056628 108.928571428574,-53.5 259.785714285705,-53.500000000009 " style="fill: rgb(14,173,105); fill-opacity: 1; stroke: rgb(0,0,0); stroke-width: 3" />
	<polygon points="259.785714285705,-53.500000000009 335.214285714275,-184.146118056628 184.357142857137,-184.146118056628 " style="fill: rgb(14,173,105); fill-opacity: 1; stroke: rgb(0,0,0); stroke-width: 3" />
	<polygon points="410.642857142862,-576.084472226483 561.5,-576.084472226483 486.071428571422,-706.730590283102 " style="fill: rgb(14,173,105); fill-opacity: 1; stroke: rgb(0,0,0); stroke-width: 3" />
	<polygon points="410.642857142862,-576.084472226483 486.071428571428,-445.438354169864 561.5,-576.084472226483 " style="fill: rgb(14,173,105); fill-opacity: 1; stroke: rgb(0,0,0); stroke-width: 3" />
	<polygon points="486.071428571417,-184.146118056628 335.214285714275,-184.146118056628 410.642857142844,-53.5000000000089 " style="fill: rgb(14,173,105); fill-opacity: 1; stroke: rgb(0,0,0); stroke-width: 3" />
	<polygon points="486.071428571417,-184.146118056628 410.64285714284,-314.792236113248 335.214285714275,-184.146118056628 " style="fill: rgb(14,173,105); fill-opacity: 1; stroke: rgb(0,0,0); stroke-width: 3" />
	<polygon points="335.214285714278,-445.438354169873 486.071428571428,-445.438354169864 410.642857142862,-576.084472226483 " style="fill: rgb(14,173,105); fill-opacity: 1; stroke: rgb(0,0,0); stroke-width: 3" />
	<polygon points="335.214285714278,-445.438354169873 410.64285714284,-314.792236113248 486.071428571428,-445.438354169864 " style="fill: rgb(14,173,105); fill-opacity: 1; stroke: rgb(0,0,0); stroke-width: 3" />
	<polygon points="184.357142857142,-445.438354169876 259.78571428571,-576.084472226493 108.928571428568,-576.084472226485 " style="fill: rgb(14,173,105); fill-opacity: 1; stroke: rgb(0,0,0); stroke-width: 3" />
	<polygon points="184.357142857142,-445.438354169876 335.214285714278,-445.438354169873 259.78571428571,-576.084472226493 " style="fill: rgb(14,173,105); fill-opacity: 1; stroke: rgb(0,0,0); stroke-width: 3" />
	<polygon points="108.928571428565,-314.792236113263 184.357142857142,-445.438354169876 33.5,-445.438354169878 " style="fill: rgb(14,173,105); fill-opacity: 1; stroke: rgb(0,0,0); stroke-width: 3" />
	<polygon points="259.785714285704,-314.792236113248 184.357142857142,-445.438354169876 108.928571428565,-314.792236113263 " style="fill: rgb(14,173,105); fill-opacity: 1; stroke: rgb(0,0,0); stroke-width: 3" />
	<polygon points="259.785714285704,-314.792236113248 335.214285714278,-445.438354169873 184.357142857142,-445.438354169876 " style="fill: rgb(14,173,105); fill-opacity: 1; stroke: rgb(0,0,0); stroke-width: 3" />
	<circle cx="259.785714285704" cy="-314.792236113248" r="2" style="fill: rgb(0,0,0)" />
	<circle cx="410.64285714284" cy="-314.792236113248" r="2" style="fill: rgb(0,0,0)" />
	<circle cx="335.214285714278" cy="-445.438354169873" r="2" style="fill: rgb(0,0,0)" />
	<circle cx="335.214285714275" cy="-184.146118056628" r="2" style="fill: rgb(0,0,0)" />
	<circle cx="486.071428571428" cy="-445.438354169864" r="2" style="fill: rgb(0,0,0)" />
	<circle cx="184.357142857142" cy="-445.438354169876" r="2" style="fill: rgb(0,0,0)" />
	<circle cx="184.357142857137" cy="-184.146118056628" r="2" style="fill: rgb(0,0,0)" />
	<circle cx="486.071428571417" cy="-184.146118056628" r="2" style="fill: rgb(0,0,0)" />
	<circle cx="410.642857142862" cy="-576.084472226483" r="2" style="fill: rgb(0,0,0)" />
	<circle cx="259.78571428571" cy="-576.084472226493" r="2" style="fill: rgb(0,0,0)" />
	<circle cx="108.928571428565" cy="-314.792236113263" r="2" style="fill: rgb(0,0,0)" />
	<circle cx="259.785714285705" cy="-53.500000000009" r="2" style="fill: rgb(0,0,0)" />
	<circle cx="410.642857142844" cy="-53.5000000000089" r="2" style="fill: rgb(0,0,0)" />
	<circle cx="561.5" cy="-576.084472226483" r="2" style="fill: rgb(0,0,0)" />
	<circle cx="108.928571428568" cy="-576.084472226485" r="2" style="fill: rgb(0,0,0)" />
	<circle cx="33.5" cy="-445.438354169878" r="2" style="fill: rgb(0,0,0)" />
	<circle cx="108.928571428574" cy="-53.5" r="2" style="fill: rgb(0,0,0)" />
	<circle cx="486.071428571422" cy="-706.730590283102" r="2" style="fill: rgb(0,0,0)" />
	<!-- 
	Generated using the Perl SVG Module V2.64
	by Ronan Oger
	Info: http://www.roitsystems.com/
 -->
</svg>