<?xml version="1.0" encoding="UTF-8" standalone="yes"?>
<!DOCTYPE svg PUBLIC "-//W3C//DTD SVG 1.0//EN" "http://www.w3.org/TR/2001/REC-SVG-20010904/DTD/svg10.dtd">
<!-- generated using polymake; Michael Joswig, Georg Loho, Benjamin Lorenz, Rico Raber; license CC BY-NC-ND 3.0; see polymake.org and matchthenet.de -->
<svg height="841pt" id="document" viewBox="0 -782.753658139203 572 782.753658139203" width="595pt" xmlns="http://www.w3.org/2000/svg" xmlns:svg="http://www.w3.org/2000/svg" xmlns:xlink="http://www.w3.org/1999/xlink">
	<title id="document_title">planar_net_</title>
	<polygon points="269.402797674922,-427.974031394679 337.645997326763,-427.974031394679 303.524397500843,-487.074375928706 " style="fill: rgb(14,173,105); fill-opacity: 1; stroke: rgb(0,0,0); stroke-width: 3" />
	<polygon points="454.144426222288,-146.721944359945 502.399655465971,-194.97717360363 502.399655465971,-263.220373255472 454.144426222286,-311.475602499156 385.901226570447,-311.475602499155 337.645997326763,-263.220373255471 337.645997326764,-194.977173603629 385.901226570448,-146.721944359945 " style="fill: rgb(136,136,136); fill-opacity: 1; stroke: rgb(0,0,0); stroke-width: 3" />
	<polygon points="269.402797674922,-427.974031394679 221.147568431239,-379.718802150995 221.147568431239,-311.475602499154 269.402797674923,-263.220373255471 337.645997326763,-263.220373255471 385.901226570447,-311.475602499155 385.901226570447,-379.718802150995 337.645997326763,-427.974031394679 " style="fill: rgb(136,136,136); fill-opacity: 1; stroke: rgb(0,0,0); stroke-width: 3" />
	<polygon points="502.399655465971,-194.97717360363 561.5,-229.09877342955 502.399655465971,-263.220373255472 " style="fill: rgb(14,173,105); fill-opacity: 1; stroke: rgb(0,0,0); stroke-width: 3" />
	<polygon points="160.843544185872,-569.45120499831 226.761413198186,-587.113844766941 260.883013024106,-646.214189300969 243.220373255475,-712.132058313284 184.120028721447,-746.253658139203 118.202159709133,-728.591018370572 84.0805598832139,-669.490673836544 101.743199651845,-603.572804824229 " style="fill: rgb(136,136,136); fill-opacity: 1; stroke: rgb(0,0,0); stroke-width: 3" />
	<polygon points="226.761413198186,-587.113844766941 285.861757732213,-552.99224494102 285.861757732213,-621.235444592862 " style="fill: rgb(14,173,105); fill-opacity: 1; stroke: rgb(0,0,0); stroke-width: 3" />
	<polygon points="269.402797674922,-427.974031394679 303.524397500843,-487.074375928706 285.861757732213,-552.99224494102 226.761413198186,-587.113844766941 160.843544185872,-569.45120499831 126.721944359951,-510.350860464283 144.384584128581,-444.432991451968 203.484928662608,-410.311391626048 " style="fill: rgb(136,136,136); fill-opacity: 1; stroke: rgb(0,0,0); stroke-width: 3" />
	<polygon points="420.022826396369,-87.6215998259154 454.144426222288,-146.721944359945 385.901226570448,-146.721944359945 " style="fill: rgb(14,173,105); fill-opacity: 1; stroke: rgb(0,0,0); stroke-width: 3" />
	<polygon points="385.901226570447,-379.718802150995 385.901226570447,-311.475602499155 445.001571104475,-345.597202325074 " style="fill: rgb(14,173,105); fill-opacity: 1; stroke: rgb(0,0,0); stroke-width: 3" />
	<polygon points="403.563866339068,-445.636671163317 337.645997326763,-427.974031394679 385.901226570447,-379.718802150995 " style="fill: rgb(14,173,105); fill-opacity: 1; stroke: rgb(0,0,0); stroke-width: 3" />
	<polygon points="337.645997326763,-263.220373255471 269.402797674923,-263.220373255471 303.524397500843,-204.120028721442 " style="fill: rgb(14,173,105); fill-opacity: 1; stroke: rgb(0,0,0); stroke-width: 3" />
	<polygon points="126.721944359951,-510.350860464283 160.843544185872,-569.45120499831 92.6003445340305,-569.451204998311 " style="fill: rgb(14,173,105); fill-opacity: 1; stroke: rgb(0,0,0); stroke-width: 3" />
	<polygon points="221.147568431239,-379.718802150995 162.047223897211,-345.597202325074 221.147568431239,-311.475602499154 " style="fill: rgb(14,173,105); fill-opacity: 1; stroke: rgb(0,0,0); stroke-width: 3" />
	<polygon points="420.022826396369,-87.6215998259154 385.901226570448,-146.721944359945 326.800882036419,-112.600344534023 360.922481862332,-53.5 " style="fill: rgb(67,184,206); fill-opacity: 1; stroke: rgb(0,0,0); stroke-width: 3" />
	<polygon points="520.062295234593,-329.138242267794 454.144426222286,-311.475602499156 502.399655465971,-263.220373255472 " style="fill: rgb(14,173,105); fill-opacity: 1; stroke: rgb(0,0,0); stroke-width: 3" />
	<polygon points="303.524397500843,-487.074375928706 337.645997326763,-427.974031394679 396.746341860793,-462.095631220598 362.624742034878,-521.195975754623 " style="fill: rgb(67,184,206); fill-opacity: 1; stroke: rgb(0,0,0); stroke-width: 3" />
	<polygon points="421.725086568921,-555.317575580537 455.846686394826,-496.217231046515 514.947030928866,-530.338830872425 480.825431102979,-589.439175406443 " style="fill: rgb(67,184,206); fill-opacity: 1; stroke: rgb(0,0,0); stroke-width: 3" />
	<polygon points="303.524397500843,-487.074375928706 351.779626744524,-535.329605172402 285.861757732213,-552.99224494102 " style="fill: rgb(14,173,105); fill-opacity: 1; stroke: rgb(0,0,0); stroke-width: 3" />
	<polygon points="243.220373255475,-712.132058313284 260.883013024106,-646.214189300969 309.138242267786,-694.469418544666 " style="fill: rgb(14,173,105); fill-opacity: 1; stroke: rgb(0,0,0); stroke-width: 3" />
	<polygon points="354.104957384055,-552.99224494102 354.10495738406,-621.235444592854 285.861757732213,-621.235444592862 285.861757732213,-552.99224494102 " style="fill: rgb(67,184,206); fill-opacity: 1; stroke: rgb(0,0,0); stroke-width: 3" />
	<polygon points="420.022826396375,-438.819146685025 385.901226570447,-379.718802150995 445.001571104475,-345.597202325074 479.123170930398,-404.697546859102 " style="fill: rgb(67,184,206); fill-opacity: 1; stroke: rgb(0,0,0); stroke-width: 3" />
	<polygon points="362.624742034878,-521.195975754623 396.746341860793,-462.095631220598 455.846686394826,-496.217231046515 421.725086568921,-555.317575580537 " style="fill: rgb(67,184,206); fill-opacity: 1; stroke: rgb(0,0,0); stroke-width: 3" />
	<polygon points="385.901226570448,-146.721944359945 337.645997326764,-194.977173603629 319.983357558142,-129.059304591306 " style="fill: rgb(14,173,105); fill-opacity: 1; stroke: rgb(0,0,0); stroke-width: 3" />
	<polygon points="269.402797674923,-263.220373255471 210.302453140893,-229.09877342955 244.424052966807,-169.998428895526 303.524397500843,-204.120028721442 " style="fill: rgb(67,184,206); fill-opacity: 1; stroke: rgb(0,0,0); stroke-width: 3" />
	<polygon points="144.384584128581,-444.432991451968 126.721944359951,-510.350860464283 78.4667151162702,-462.095631220587 " style="fill: rgb(14,173,105); fill-opacity: 1; stroke: rgb(0,0,0); stroke-width: 3" />
	<polygon points="101.743199651845,-603.572804824229 84.0805598832139,-669.490673836544 35.8253306395333,-621.235444592848 " style="fill: rgb(14,173,105); fill-opacity: 1; stroke: rgb(0,0,0); stroke-width: 3" />
	<polygon points="269.402797674923,-263.220373255471 221.147568431239,-311.475602499154 203.484928662617,-245.557733486831 " style="fill: rgb(14,173,105); fill-opacity: 1; stroke: rgb(0,0,0); stroke-width: 3" />
	<polygon points="126.721944359951,-510.350860464283 92.6003445340305,-569.451204998311 33.5,-535.329605172392 67.621599825917,-476.229260638364 " style="fill: rgb(67,184,206); fill-opacity: 1; stroke: rgb(0,0,0); stroke-width: 3" />
	<polygon points="162.047223897211,-345.597202325074 127.925624071289,-286.496857791045 187.025968605311,-252.375257965125 221.147568431239,-311.475602499154 " style="fill: rgb(67,184,206); fill-opacity: 1; stroke: rgb(0,0,0); stroke-width: 3" />
	<polygon points="151.20210860686,-194.977173603633 185.323708432764,-135.876829069613 244.424052966807,-169.998428895526 210.302453140893,-229.09877342955 " style="fill: rgb(67,184,206); fill-opacity: 1; stroke: rgb(0,0,0); stroke-width: 3" />
	<circle cx="269.402797674922" cy="-427.974031394679" r="2" style="fill: rgb(0,0,0)" />
	<circle cx="337.645997326763" cy="-427.974031394679" r="2" style="fill: rgb(0,0,0)" />
	<circle cx="303.524397500843" cy="-487.074375928706" r="2" style="fill: rgb(0,0,0)" />
	<circle cx="221.147568431239" cy="-379.718802150995" r="2" style="fill: rgb(0,0,0)" />
	<circle cx="221.147568431239" cy="-311.475602499154" r="2" style="fill: rgb(0,0,0)" />
	<circle cx="269.402797674923" cy="-263.220373255471" r="2" style="fill: rgb(0,0,0)" />
	<circle cx="337.645997326763" cy="-263.220373255471" r="2" style="fill: rgb(0,0,0)" />
	<circle cx="385.901226570447" cy="-311.475602499155" r="2" style="fill: rgb(0,0,0)" />
	<circle cx="385.901226570447" cy="-379.718802150995" r="2" style="fill: rgb(0,0,0)" />
	<circle cx="285.861757732213" cy="-552.99224494102" r="2" style="fill: rgb(0,0,0)" />
	<circle cx="226.761413198186" cy="-587.113844766941" r="2" style="fill: rgb(0,0,0)" />
	<circle cx="160.843544185872" cy="-569.45120499831" r="2" style="fill: rgb(0,0,0)" />
	<circle cx="126.721944359951" cy="-510.350860464283" r="2" style="fill: rgb(0,0,0)" />
	<circle cx="144.384584128581" cy="-444.432991451968" r="2" style="fill: rgb(0,0,0)" />
	<circle cx="203.484928662608" cy="-410.311391626048" r="2" style="fill: rgb(0,0,0)" />
	<circle cx="396.746341860793" cy="-462.095631220598" r="2" style="fill: rgb(0,0,0)" />
	<circle cx="362.624742034878" cy="-521.195975754623" r="2" style="fill: rgb(0,0,0)" />
	<circle cx="337.645997326764" cy="-194.977173603629" r="2" style="fill: rgb(0,0,0)" />
	<circle cx="385.901226570448" cy="-146.721944359945" r="2" style="fill: rgb(0,0,0)" />
	<circle cx="454.144426222288" cy="-146.721944359945" r="2" style="fill: rgb(0,0,0)" />
	<circle cx="502.399655465971" cy="-194.97717360363" r="2" style="fill: rgb(0,0,0)" />
	<circle cx="502.399655465971" cy="-263.220373255472" r="2" style="fill: rgb(0,0,0)" />
	<circle cx="454.144426222286" cy="-311.475602499156" r="2" style="fill: rgb(0,0,0)" />
	<circle cx="445.001571104475" cy="-345.597202325074" r="2" style="fill: rgb(0,0,0)" />
	<circle cx="403.563866339068" cy="-445.636671163317" r="2" style="fill: rgb(0,0,0)" />
	<circle cx="303.524397500843" cy="-204.120028721442" r="2" style="fill: rgb(0,0,0)" />
	<circle cx="162.047223897211" cy="-345.597202325074" r="2" style="fill: rgb(0,0,0)" />
	<circle cx="203.484928662617" cy="-245.557733486831" r="2" style="fill: rgb(0,0,0)" />
	<circle cx="260.883013024106" cy="-646.214189300969" r="2" style="fill: rgb(0,0,0)" />
	<circle cx="243.220373255475" cy="-712.132058313284" r="2" style="fill: rgb(0,0,0)" />
	<circle cx="184.120028721447" cy="-746.253658139203" r="2" style="fill: rgb(0,0,0)" />
	<circle cx="118.202159709133" cy="-728.591018370572" r="2" style="fill: rgb(0,0,0)" />
	<circle cx="84.0805598832139" cy="-669.490673836544" r="2" style="fill: rgb(0,0,0)" />
	<circle cx="101.743199651845" cy="-603.572804824229" r="2" style="fill: rgb(0,0,0)" />
	<circle cx="285.861757732213" cy="-621.235444592862" r="2" style="fill: rgb(0,0,0)" />
	<circle cx="92.6003445340305" cy="-569.451204998311" r="2" style="fill: rgb(0,0,0)" />
	<circle cx="351.779626744524" cy="-535.329605172402" r="2" style="fill: rgb(0,0,0)" />
	<circle cx="78.4667151162702" cy="-462.095631220587" r="2" style="fill: rgb(0,0,0)" />
	<circle cx="455.846686394826" cy="-496.217231046515" r="2" style="fill: rgb(0,0,0)" />
	<circle cx="421.725086568921" cy="-555.317575580537" r="2" style="fill: rgb(0,0,0)" />
	<circle cx="561.5" cy="-229.09877342955" r="2" style="fill: rgb(0,0,0)" />
	<circle cx="420.022826396369" cy="-87.6215998259154" r="2" style="fill: rgb(0,0,0)" />
	<circle cx="520.062295234593" cy="-329.138242267794" r="2" style="fill: rgb(0,0,0)" />
	<circle cx="319.983357558142" cy="-129.059304591306" r="2" style="fill: rgb(0,0,0)" />
	<circle cx="479.123170930398" cy="-404.697546859102" r="2" style="fill: rgb(0,0,0)" />
	<circle cx="420.022826396375" cy="-438.819146685025" r="2" style="fill: rgb(0,0,0)" />
	<circle cx="210.302453140893" cy="-229.09877342955" r="2" style="fill: rgb(0,0,0)" />
	<circle cx="244.424052966807" cy="-169.998428895526" r="2" style="fill: rgb(0,0,0)" />
	<circle cx="127.925624071289" cy="-286.496857791045" r="2" style="fill: rgb(0,0,0)" />
	<circle cx="187.025968605311" cy="-252.375257965125" r="2" style="fill: rgb(0,0,0)" />
	<circle cx="309.138242267786" cy="-694.469418544666" r="2" style="fill: rgb(0,0,0)" />
	<circle cx="35.8253306395333" cy="-621.235444592848" r="2" style="fill: rgb(0,0,0)" />
	<circle cx="354.104957384055" cy="-552.99224494102" r="2" style="fill: rgb(0,0,0)" />
	<circle cx="354.10495738406" cy="-621.235444592854" r="2" style="fill: rgb(0,0,0)" />
	<circle cx="33.5" cy="-535.329605172392" r="2" style="fill: rgb(0,0,0)" />
	<circle cx="67.621599825917" cy="-476.229260638364" r="2" style="fill: rgb(0,0,0)" />
	<circle cx="514.947030928866" cy="-530.338830872425" r="2" style="fill: rgb(0,0,0)" />
	<circle cx="480.825431102979" cy="-589.439175406443" r="2" style="fill: rgb(0,0,0)" />
	<circle cx="326.800882036419" cy="-112.600344534023" r="2" style="fill: rgb(0,0,0)" />
	<circle cx="360.922481862332" cy="-53.5" r="2" style="fill: rgb(0,0,0)" />
	<circle cx="151.20210860686" cy="-194.977173603633" r="2" style="fill: rgb(0,0,0)" />
	<circle cx="185.323708432764" cy="-135.876829069613" r="2" style="fill: rgb(0,0,0)" />
	<!--
	Generated using the Perl SVG Module V2.87
	by Ronan Oger

	-->
</svg>