<?xml version="1.0" encoding="UTF-8" standalone="yes"?>
<!DOCTYPE svg PUBLIC "-//W3C//DTD SVG 1.0//EN" "http://www.w3.org/TR/2001/REC-SVG-20010904/DTD/svg10.dtd">
<!-- generated using polymake; Michael Joswig, Georg Loho, Benjamin Lorenz, Rico Raber; license CC BY-NC-ND 3.0; see polymake.org and matchthenet.de -->
<svg height="841pt" id="document" viewBox="0 -532.350377827628 572 532.350377827628" width="595pt" xmlns="http://www.w3.org/2000/svg" xmlns:svg="http://www.w3.org/2000/svg" xmlns:xlink="http://www.w3.org/1999/xlink">
	<title id="document_title">planar_net_</title>
	<polygon points="248.720527664937,-274.675188913789 308.881375788559,-274.675188913789 309.357118053748,-308.58620010281 280.215159635624,-325.933513154701 " style="fill: rgb(14,173,105); fill-opacity: 1; stroke: rgb(0,0,0); stroke-width: 3" />
	<polygon points="309.357118053736,-240.764177724763 308.881375788559,-274.675188913789 248.720527664937,-274.675188913789 280.215159635601,-223.416864672879 " style="fill: rgb(14,173,105); fill-opacity: 1; stroke: rgb(0,0,0); stroke-width: 3" />
	<polygon points="309.357118053748,-308.58620010281 308.881375788559,-274.675188913789 391.61482807232,-294.148416699539 376.492232225864,-338.763586856805 " style="fill: rgb(14,173,105); fill-opacity: 1; stroke: rgb(0,0,0); stroke-width: 3" />
	<polygon points="248.720527664937,-274.675188913789 280.215159635624,-325.933513154701 251.571310137898,-344.091511296469 221.535007313627,-328.343383686713 " style="fill: rgb(14,173,105); fill-opacity: 1; stroke: rgb(0,0,0); stroke-width: 3" />
	<polygon points="391.614828072314,-255.201961128012 308.881375788559,-274.675188913789 309.357118053736,-240.764177724763 376.492232225823,-210.586790970744 " style="fill: rgb(14,173,105); fill-opacity: 1; stroke: rgb(0,0,0); stroke-width: 3" />
	<polygon points="280.215159635624,-325.933513154701 309.357118053748,-308.58620010281 370.214604314851,-349.988670949131 340.118315385615,-386.229803740256 " style="fill: rgb(14,173,105); fill-opacity: 1; stroke: rgb(0,0,0); stroke-width: 3" />
	<polygon points="248.720527664937,-274.675188913789 221.535007313597,-221.006994140901 251.571310137859,-205.258866531128 280.215159635601,-223.416864672879 " style="fill: rgb(14,173,105); fill-opacity: 1; stroke: rgb(0,0,0); stroke-width: 3" />
	<polygon points="280.215159635624,-325.933513154701 306.935105540952,-406.618550292955 261.00524359932,-417.090135431782 251.571310137898,-344.091511296469 " style="fill: rgb(14,173,105); fill-opacity: 1; stroke: rgb(0,0,0); stroke-width: 3" />
	<polygon points="370.214604314832,-199.361706878404 309.357118053736,-240.764177724763 280.215159635601,-223.416864672879 340.118315385566,-163.120574087301 " style="fill: rgb(14,173,105); fill-opacity: 1; stroke: rgb(0,0,0); stroke-width: 3" />
	<polygon points="248.720527664937,-274.675188913789 221.535007313627,-328.343383686713 191.068747085638,-313.444054900314 188.762269096541,-279.608228179952 " style="fill: rgb(14,173,105); fill-opacity: 1; stroke: rgb(0,0,0); stroke-width: 3" />
	<polygon points="306.935105540878,-142.731827534609 280.215159635601,-223.416864672879 251.571310137859,-205.258866531128 261.005243599223,-132.260242395824 " style="fill: rgb(14,173,105); fill-opacity: 1; stroke: rgb(0,0,0); stroke-width: 3" />
	<polygon points="221.535007313627,-328.343383686713 251.571310137898,-344.091511296469 248.15484994872,-417.617874092249 201.521011389629,-410.947685598536 " style="fill: rgb(14,173,105); fill-opacity: 1; stroke: rgb(0,0,0); stroke-width: 3" />
	<polygon points="221.535007313627,-328.343383686713 166.777718558536,-393.3485377545 133.811095471662,-359.697266225105 191.068747085638,-313.444054900314 " style="fill: rgb(14,173,105); fill-opacity: 1; stroke: rgb(0,0,0); stroke-width: 3" />
	<polygon points="221.535007313597,-221.006994140901 201.521011389552,-138.402692229091 248.154849948631,-131.732503735335 251.571310137859,-205.258866531128 " style="fill: rgb(14,173,105); fill-opacity: 1; stroke: rgb(0,0,0); stroke-width: 3" />
	<polygon points="188.762269096541,-279.608228179952 191.068747085638,-313.444054900314 126.634178397794,-349.024732018835 107.904174859202,-305.799816972746 " style="fill: rgb(14,173,105); fill-opacity: 1; stroke: rgb(0,0,0); stroke-width: 3" />
	<polygon points="376.492232225864,-338.763586856805 391.61482807232,-294.148416699539 469.137388955028,-328.994984412492 448.140017098819,-355.62754691963 " style="fill: rgb(14,173,105); fill-opacity: 1; stroke: rgb(0,0,0); stroke-width: 3" />
	<polygon points="391.614828072314,-255.201961128012 376.492232225823,-210.586790970744 448.140017098761,-193.722830907873 469.137388954994,-220.355393415002 " style="fill: rgb(14,173,105); fill-opacity: 1; stroke: rgb(0,0,0); stroke-width: 3" />
	<polygon points="340.118315385615,-386.229803740256 370.214604314851,-349.988670949131 422.091182626429,-402.205706951603 410.391945542108,-434.03825102538 " style="fill: rgb(14,173,105); fill-opacity: 1; stroke: rgb(0,0,0); stroke-width: 3" />
	<polygon points="306.935105540952,-406.618550292955 317.828699603418,-490.91184976325 284.144915439412,-486.963977556963 261.00524359932,-417.090135431782 " style="fill: rgb(14,173,105); fill-opacity: 1; stroke: rgb(0,0,0); stroke-width: 3" />
	<polygon points="370.214604314832,-199.361706878404 340.118315385566,-163.120574087301 410.391945542025,-115.312126802121 422.091182626375,-147.144670875888 " style="fill: rgb(14,173,105); fill-opacity: 1; stroke: rgb(0,0,0); stroke-width: 3" />
	<polygon points="306.935105540878,-142.731827534609 261.005243599223,-132.260242395824 284.144915439244,-62.386400270627 317.828699603254,-58.438528064304 " style="fill: rgb(14,173,105); fill-opacity: 1; stroke: rgb(0,0,0); stroke-width: 3" />
	<polygon points="201.521011389629,-410.947685598536 248.15484994872,-417.617874092249 230.822580657064,-489.153813782745 197.575941119251,-495.850377827628 " style="fill: rgb(14,173,105); fill-opacity: 1; stroke: rgb(0,0,0); stroke-width: 3" />
	<polygon points="166.777718558536,-393.3485377545 100.660905651007,-446.758253894331 86.3908762416848,-415.992213017715 133.811095471662,-359.697266225105 " style="fill: rgb(14,173,105); fill-opacity: 1; stroke: rgb(0,0,0); stroke-width: 3" />
	<polygon points="201.521011389552,-138.402692229091 197.575941119093,-53.5 230.822580656909,-60.1965640448484 248.154849948631,-131.732503735335 " style="fill: rgb(14,173,105); fill-opacity: 1; stroke: rgb(0,0,0); stroke-width: 3" />
	<polygon points="107.904174859202,-305.799816972746 126.634178397794,-349.024732018835 56.6104675379733,-371.706842670646 33.5,-346.885696429167 " style="fill: rgb(14,173,105); fill-opacity: 1; stroke: rgb(0,0,0); stroke-width: 3" />
	<polygon points="448.140017098819,-355.62754691963 469.137388955028,-328.994984412492 516.898885967958,-365.575950091895 460.727640448176,-387.119367269991 " style="fill: rgb(14,173,105); fill-opacity: 1; stroke: rgb(0,0,0); stroke-width: 3" />
	<polygon points="460.727640448176,-387.119367269991 516.898885967958,-365.575950091895 505.848289729002,-424.713180071979 472.426877532543,-418.951911343767 " style="fill: rgb(14,173,105); fill-opacity: 1; stroke: rgb(0,0,0); stroke-width: 3" />
	<polygon points="505.848289729002,-424.713180071979 516.898885967958,-365.575950091895 561.5,-405.950054095014 539.094929266834,-431.409744116817 " style="fill: rgb(14,173,105); fill-opacity: 1; stroke: rgb(0,0,0); stroke-width: 3" />
	<polygon points="516.898885967897,-183.774427735542 460.727640448093,-162.2310105575 472.426877532422,-130.398466483712 505.848289728874,-124.637197755455 " style="fill: rgb(14,173,105); fill-opacity: 1; stroke: rgb(0,0,0); stroke-width: 3" />
	<polygon points="469.137388954994,-220.355393415002 448.140017098761,-193.722830907873 460.727640448093,-162.2310105575 516.898885967897,-183.774427735542 " style="fill: rgb(14,173,105); fill-opacity: 1; stroke: rgb(0,0,0); stroke-width: 3" />
	<circle cx="248.720527664937" cy="-274.675188913789" r="2" style="fill: rgb(0,0,0)" />
	<circle cx="308.881375788559" cy="-274.675188913789" r="2" style="fill: rgb(0,0,0)" />
	<circle cx="309.357118053748" cy="-308.58620010281" r="2" style="fill: rgb(0,0,0)" />
	<circle cx="280.215159635624" cy="-325.933513154701" r="2" style="fill: rgb(0,0,0)" />
	<circle cx="280.215159635601" cy="-223.416864672879" r="2" style="fill: rgb(0,0,0)" />
	<circle cx="309.357118053736" cy="-240.764177724763" r="2" style="fill: rgb(0,0,0)" />
	<circle cx="391.61482807232" cy="-294.148416699539" r="2" style="fill: rgb(0,0,0)" />
	<circle cx="376.492232225864" cy="-338.763586856805" r="2" style="fill: rgb(0,0,0)" />
	<circle cx="251.571310137898" cy="-344.091511296469" r="2" style="fill: rgb(0,0,0)" />
	<circle cx="221.535007313627" cy="-328.343383686713" r="2" style="fill: rgb(0,0,0)" />
	<circle cx="370.214604314851" cy="-349.988670949131" r="2" style="fill: rgb(0,0,0)" />
	<circle cx="340.118315385615" cy="-386.229803740256" r="2" style="fill: rgb(0,0,0)" />
	<circle cx="376.492232225823" cy="-210.586790970744" r="2" style="fill: rgb(0,0,0)" />
	<circle cx="391.614828072314" cy="-255.201961128012" r="2" style="fill: rgb(0,0,0)" />
	<circle cx="221.535007313597" cy="-221.006994140901" r="2" style="fill: rgb(0,0,0)" />
	<circle cx="251.571310137859" cy="-205.258866531128" r="2" style="fill: rgb(0,0,0)" />
	<circle cx="340.118315385566" cy="-163.120574087301" r="2" style="fill: rgb(0,0,0)" />
	<circle cx="370.214604314832" cy="-199.361706878404" r="2" style="fill: rgb(0,0,0)" />
	<circle cx="469.137388955028" cy="-328.994984412492" r="2" style="fill: rgb(0,0,0)" />
	<circle cx="448.140017098819" cy="-355.62754691963" r="2" style="fill: rgb(0,0,0)" />
	<circle cx="306.935105540952" cy="-406.618550292955" r="2" style="fill: rgb(0,0,0)" />
	<circle cx="261.00524359932" cy="-417.090135431782" r="2" style="fill: rgb(0,0,0)" />
	<circle cx="191.068747085638" cy="-313.444054900314" r="2" style="fill: rgb(0,0,0)" />
	<circle cx="188.762269096541" cy="-279.608228179952" r="2" style="fill: rgb(0,0,0)" />
	<circle cx="248.15484994872" cy="-417.617874092249" r="2" style="fill: rgb(0,0,0)" />
	<circle cx="201.521011389629" cy="-410.947685598536" r="2" style="fill: rgb(0,0,0)" />
	<circle cx="422.091182626429" cy="-402.205706951603" r="2" style="fill: rgb(0,0,0)" />
	<circle cx="410.391945542108" cy="-434.03825102538" r="2" style="fill: rgb(0,0,0)" />
	<circle cx="448.140017098761" cy="-193.722830907873" r="2" style="fill: rgb(0,0,0)" />
	<circle cx="469.137388954994" cy="-220.355393415002" r="2" style="fill: rgb(0,0,0)" />
	<circle cx="261.005243599223" cy="-132.260242395824" r="2" style="fill: rgb(0,0,0)" />
	<circle cx="306.935105540878" cy="-142.731827534609" r="2" style="fill: rgb(0,0,0)" />
	<circle cx="201.521011389552" cy="-138.402692229091" r="2" style="fill: rgb(0,0,0)" />
	<circle cx="248.154849948631" cy="-131.732503735335" r="2" style="fill: rgb(0,0,0)" />
	<circle cx="410.391945542025" cy="-115.312126802121" r="2" style="fill: rgb(0,0,0)" />
	<circle cx="422.091182626375" cy="-147.144670875888" r="2" style="fill: rgb(0,0,0)" />
	<circle cx="516.898885967958" cy="-365.575950091895" r="2" style="fill: rgb(0,0,0)" />
	<circle cx="460.727640448176" cy="-387.119367269991" r="2" style="fill: rgb(0,0,0)" />
	<circle cx="317.828699603418" cy="-490.91184976325" r="2" style="fill: rgb(0,0,0)" />
	<circle cx="284.144915439412" cy="-486.963977556963" r="2" style="fill: rgb(0,0,0)" />
	<circle cx="166.777718558536" cy="-393.3485377545" r="2" style="fill: rgb(0,0,0)" />
	<circle cx="133.811095471662" cy="-359.697266225105" r="2" style="fill: rgb(0,0,0)" />
	<circle cx="126.634178397794" cy="-349.024732018835" r="2" style="fill: rgb(0,0,0)" />
	<circle cx="107.904174859202" cy="-305.799816972746" r="2" style="fill: rgb(0,0,0)" />
	<circle cx="230.822580657064" cy="-489.153813782745" r="2" style="fill: rgb(0,0,0)" />
	<circle cx="197.575941119251" cy="-495.850377827628" r="2" style="fill: rgb(0,0,0)" />
	<circle cx="460.727640448093" cy="-162.2310105575" r="2" style="fill: rgb(0,0,0)" />
	<circle cx="516.898885967897" cy="-183.774427735542" r="2" style="fill: rgb(0,0,0)" />
	<circle cx="284.144915439244" cy="-62.386400270627" r="2" style="fill: rgb(0,0,0)" />
	<circle cx="317.828699603254" cy="-58.438528064304" r="2" style="fill: rgb(0,0,0)" />
	<circle cx="197.575941119093" cy="-53.5" r="2" style="fill: rgb(0,0,0)" />
	<circle cx="230.822580656909" cy="-60.1965640448484" r="2" style="fill: rgb(0,0,0)" />
	<circle cx="505.848289729002" cy="-424.713180071979" r="2" style="fill: rgb(0,0,0)" />
	<circle cx="472.426877532543" cy="-418.951911343767" r="2" style="fill: rgb(0,0,0)" />
	<circle cx="100.660905651007" cy="-446.758253894331" r="2" style="fill: rgb(0,0,0)" />
	<circle cx="86.3908762416848" cy="-415.992213017715" r="2" style="fill: rgb(0,0,0)" />
	<circle cx="56.6104675379733" cy="-371.706842670646" r="2" style="fill: rgb(0,0,0)" />
	<circle cx="33.5" cy="-346.885696429167" r="2" style="fill: rgb(0,0,0)" />
	<circle cx="472.426877532422" cy="-130.398466483712" r="2" style="fill: rgb(0,0,0)" />
	<circle cx="505.848289728874" cy="-124.637197755455" r="2" style="fill: rgb(0,0,0)" />
	<circle cx="561.5" cy="-405.950054095014" r="2" style="fill: rgb(0,0,0)" />
	<circle cx="539.094929266834" cy="-431.409744116817" r="2" style="fill: rgb(0,0,0)" />
	<!--
	Generated using the Perl SVG Module V2.87
	by Ronan Oger

	-->
</svg>