<?xml version="1.0" encoding="UTF-8" standalone="yes"?>
<!DOCTYPE svg PUBLIC "-//W3C//DTD SVG 1.0//EN" "http://www.w3.org/TR/2001/REC-SVG-20010904/DTD/svg10.dtd">
<!-- generated using polymake; Michael Joswig, Georg Loho, Benjamin Lorenz, Rico Raber; license CC BY-NC-ND 3.0; see polymake.org and matchthenet.de -->
<svg height="841pt" id="document" viewBox="0 -563.107952439134 572 563.107952439134" width="595pt" xmlns="http://www.w3.org/2000/svg" xmlns:svg="http://www.w3.org/2000/svg" xmlns:xlink="http://www.w3.org/1999/xlink">
	<title id="document_title">planar_net_</title>
	<polygon points="238.361657265791,-290.053864991097 324.946404946964,-290.053864991097 281.654049369012,-365.038353379552 " style="fill: rgb(186,59,38); fill-opacity: 1; stroke: rgb(0,0,0); stroke-width: 3" />
	<polygon points="368.238772653246,-215.069399518284 324.946404946964,-290.053864991097 281.654161875737,-215.069434746823 " style="fill: rgb(186,59,38); fill-opacity: 1; stroke: rgb(0,0,0); stroke-width: 3" />
	<polygon points="281.654161875737,-215.069434746823 324.946404946964,-290.053864991097 238.361657265791,-290.053864991097 " style="fill: rgb(186,59,38); fill-opacity: 1; stroke: rgb(0,0,0); stroke-width: 3" />
	<polygon points="238.361657265791,-290.053864991097 281.654049369012,-365.038353379552 195.069232480423,-365.038388555257 " style="fill: rgb(186,59,38); fill-opacity: 1; stroke: rgb(0,0,0); stroke-width: 3" />
	<polygon points="195.069232480423,-365.038388555257 281.654049369012,-365.038353379552 238.361655812409,-440.022951755052 " style="fill: rgb(186,59,38); fill-opacity: 1; stroke: rgb(0,0,0); stroke-width: 3" />
	<polygon points="238.361657265791,-290.053864991097 195.069399440558,-215.069117995123 281.654161875737,-215.069434746823 " style="fill: rgb(186,59,38); fill-opacity: 1; stroke: rgb(0,0,0); stroke-width: 3" />
	<polygon points="238.361657265791,-290.053864991097 195.069232480423,-365.038388555257 151.776832558134,-290.053831141011 " style="fill: rgb(186,59,38); fill-opacity: 1; stroke: rgb(0,0,0); stroke-width: 3" />
	<polygon points="76.7926219268764,-333.346158460616 120.084725874848,-408.330795853576 33.5,-408.330484091234 " style="fill: rgb(186,59,38); fill-opacity: 1; stroke: rgb(0,0,0); stroke-width: 3" />
	<polygon points="431.622678873044,-451.623353422592 518.207285585064,-451.623528876812 474.914665221483,-526.607952439134 " style="fill: rgb(186,59,38); fill-opacity: 1; stroke: rgb(0,0,0); stroke-width: 3" />
	<polygon points="238.362326999755,-53.5 281.6546177442,-128.484549618837 195.070088246849,-128.484529831584 " style="fill: rgb(186,59,38); fill-opacity: 1; stroke: rgb(0,0,0); stroke-width: 3" />
	<polygon points="195.069399440558,-215.069117995123 195.070088246849,-128.484529831584 281.6546177442,-128.484549618837 281.654161875737,-215.069434746823 " style="fill: rgb(186,59,38); fill-opacity: 1; stroke: rgb(0,0,0); stroke-width: 3" />
	<polygon points="151.776832558134,-290.053831141011 195.069232480423,-365.038388555257 120.084725874848,-408.330795853576 76.7926219268764,-333.346158460616 " style="fill: rgb(186,59,38); fill-opacity: 1; stroke: rgb(0,0,0); stroke-width: 3" />
	<polygon points="195.069232480423,-365.038388555257 238.361655812409,-440.022951755052 151.776967911326,-440.022977562051 " style="fill: rgb(186,59,38); fill-opacity: 1; stroke: rgb(0,0,0); stroke-width: 3" />
	<polygon points="238.361655812409,-440.022951755052 195.069296964633,-515.007378679147 151.776967911326,-440.022977562051 " style="fill: rgb(186,59,38); fill-opacity: 1; stroke: rgb(0,0,0); stroke-width: 3" />
	<polygon points="518.207285585064,-451.623528876812 474.915414750187,-376.639018146001 561.5,-376.639237342206 " style="fill: rgb(186,59,38); fill-opacity: 1; stroke: rgb(0,0,0); stroke-width: 3" />
	<polygon points="431.622678873044,-451.623353422592 474.915414750187,-376.639018146001 518.207285585064,-451.623528876812 " style="fill: rgb(186,59,38); fill-opacity: 1; stroke: rgb(0,0,0); stroke-width: 3" />
	<polygon points="368.238772653246,-215.069399518284 281.654161875737,-215.069434746823 324.946702795295,-140.084957913301 " style="fill: rgb(186,59,38); fill-opacity: 1; stroke: rgb(0,0,0); stroke-width: 3" />
	<polygon points="411.531288045352,-140.084884473731 368.238772653246,-215.069399518284 324.946702795295,-140.084957913301 " style="fill: rgb(186,59,38); fill-opacity: 1; stroke: rgb(0,0,0); stroke-width: 3" />
	<polygon points="356.638596600603,-408.330698470994 356.638534890827,-494.915127620744 281.653952638308,-451.623037810325 " style="fill: rgb(186,59,38); fill-opacity: 1; stroke: rgb(0,0,0); stroke-width: 3" />
	<polygon points="281.654049369012,-365.038353379552 356.638596600603,-408.330698470994 281.653952638308,-451.623037810325 " style="fill: rgb(186,59,38); fill-opacity: 1; stroke: rgb(0,0,0); stroke-width: 3" />
	<polygon points="356.638596600603,-408.330698470994 399.931192407513,-333.346148044693 474.915414750187,-376.639018146001 431.622678873044,-451.623353422592 " style="fill: rgb(186,59,38); fill-opacity: 1; stroke: rgb(0,0,0); stroke-width: 3" />
	<polygon points="399.931192407513,-333.346148044693 474.916201983832,-290.054265528872 474.915414750187,-376.639018146001 " style="fill: rgb(186,59,38); fill-opacity: 1; stroke: rgb(0,0,0); stroke-width: 3" />
	<polygon points="281.654049369012,-365.038353379552 324.946404946964,-290.053864991097 399.931192407513,-333.346148044693 356.638596600603,-408.330698470994 " style="fill: rgb(186,59,38); fill-opacity: 1; stroke: rgb(0,0,0); stroke-width: 3" />
	<polygon points="399.931192407513,-333.346148044693 324.946404946964,-290.053864991097 399.930747042136,-246.761283589487 " style="fill: rgb(186,59,38); fill-opacity: 1; stroke: rgb(0,0,0); stroke-width: 3" />
	<circle cx="238.361657265791" cy="-290.053864991097" r="2" style="fill: rgb(0,0,0)" />
	<circle cx="324.946404946964" cy="-290.053864991097" r="2" style="fill: rgb(0,0,0)" />
	<circle cx="281.654049369012" cy="-365.038353379552" r="2" style="fill: rgb(0,0,0)" />
	<circle cx="281.654161875737" cy="-215.069434746823" r="2" style="fill: rgb(0,0,0)" />
	<circle cx="195.069232480423" cy="-365.038388555257" r="2" style="fill: rgb(0,0,0)" />
	<circle cx="399.931192407513" cy="-333.346148044693" r="2" style="fill: rgb(0,0,0)" />
	<circle cx="356.638596600603" cy="-408.330698470994" r="2" style="fill: rgb(0,0,0)" />
	<circle cx="368.238772653246" cy="-215.069399518284" r="2" style="fill: rgb(0,0,0)" />
	<circle cx="195.069399440558" cy="-215.069117995123" r="2" style="fill: rgb(0,0,0)" />
	<circle cx="238.361655812409" cy="-440.022951755052" r="2" style="fill: rgb(0,0,0)" />
	<circle cx="151.776832558134" cy="-290.053831141011" r="2" style="fill: rgb(0,0,0)" />
	<circle cx="281.653952638308" cy="-451.623037810325" r="2" style="fill: rgb(0,0,0)" />
	<circle cx="474.915414750187" cy="-376.639018146001" r="2" style="fill: rgb(0,0,0)" />
	<circle cx="431.622678873044" cy="-451.623353422592" r="2" style="fill: rgb(0,0,0)" />
	<circle cx="399.930747042136" cy="-246.761283589487" r="2" style="fill: rgb(0,0,0)" />
	<circle cx="324.946702795295" cy="-140.084957913301" r="2" style="fill: rgb(0,0,0)" />
	<circle cx="195.070088246849" cy="-128.484529831584" r="2" style="fill: rgb(0,0,0)" />
	<circle cx="281.6546177442" cy="-128.484549618837" r="2" style="fill: rgb(0,0,0)" />
	<circle cx="151.776967911326" cy="-440.022977562051" r="2" style="fill: rgb(0,0,0)" />
	<circle cx="120.084725874848" cy="-408.330795853576" r="2" style="fill: rgb(0,0,0)" />
	<circle cx="76.7926219268764" cy="-333.346158460616" r="2" style="fill: rgb(0,0,0)" />
	<circle cx="356.638534890827" cy="-494.915127620744" r="2" style="fill: rgb(0,0,0)" />
	<circle cx="518.207285585064" cy="-451.623528876812" r="2" style="fill: rgb(0,0,0)" />
	<circle cx="474.916201983832" cy="-290.054265528872" r="2" style="fill: rgb(0,0,0)" />
	<circle cx="411.531288045352" cy="-140.084884473731" r="2" style="fill: rgb(0,0,0)" />
	<circle cx="238.362326999755" cy="-53.5" r="2" style="fill: rgb(0,0,0)" />
	<circle cx="195.069296964633" cy="-515.007378679147" r="2" style="fill: rgb(0,0,0)" />
	<circle cx="33.5" cy="-408.330484091234" r="2" style="fill: rgb(0,0,0)" />
	<circle cx="474.914665221483" cy="-526.607952439134" r="2" style="fill: rgb(0,0,0)" />
	<circle cx="561.5" cy="-376.639237342206" r="2" style="fill: rgb(0,0,0)" />
	<!--
	Generated using the Perl SVG Module V2.86
	by Ronan Oger
	Info: http://www.roitsystems.com/
	-->
</svg>