<?xml version="1.0" encoding="UTF-8" standalone="yes"?>
<!DOCTYPE svg PUBLIC "-//W3C//DTD SVG 1.0//EN" "http://www.w3.org/TR/2001/REC-SVG-20010904/DTD/svg10.dtd">
<!-- generated using polymake; Michael Joswig, Georg Loho, Benjamin Lorenz, Rico Raber; license CC BY-NC-ND 3.0; see polymake.org and matchthenet.de -->
<svg height="841pt" id="document" viewBox="0 -543.519339531923 572 543.519339531923" width="595pt" xmlns="http://www.w3.org/2000/svg" xmlns:svg="http://www.w3.org/2000/svg" xmlns:xlink="http://www.w3.org/1999/xlink">
	<title id="document_title">planar_net_</title>
	<polygon points="305.490836984621,-280.497163369113 440.901912822235,-280.497163369113 272.945685710347,-411.939061514393 " style="fill: rgb(14,173,105); fill-opacity: 1; stroke: rgb(0,0,0); stroke-width: 3" />
	<polygon points="305.490836984621,-280.497163369113 292.965236000772,-255.355132153325 381.042081014191,-224.297328886765 440.901912822235,-280.497163369113 " style="fill: rgb(14,173,105); fill-opacity: 1; stroke: rgb(0,0,0); stroke-width: 3" />
	<polygon points="305.490836984621,-280.497163369113 272.945685710347,-411.939061514393 232.780096560998,-340.32658838145 284.096215388937,-262.295993614403 " style="fill: rgb(14,173,105); fill-opacity: 1; stroke: rgb(0,0,0); stroke-width: 3" />
	<polygon points="272.945685710347,-411.939061514393 440.901912822235,-280.497163369113 398.408114873351,-399.226698227541 " style="fill: rgb(14,173,105); fill-opacity: 1; stroke: rgb(0,0,0); stroke-width: 3" />
	<polygon points="272.945685710347,-411.939061514393 398.408114873351,-399.226698227541 463.854060450184,-507.019339531923 " style="fill: rgb(14,173,105); fill-opacity: 1; stroke: rgb(0,0,0); stroke-width: 3" />
	<polygon points="398.408114873351,-399.226698227541 440.901912822235,-280.497163369113 487.311634069161,-488.661532528382 " style="fill: rgb(14,173,105); fill-opacity: 1; stroke: rgb(0,0,0); stroke-width: 3" />
	<polygon points="440.901912822235,-280.497163369113 381.042081014191,-224.297328886765 406.488600263269,-134.438592920977 432.369891160352,-145.355148932959 " style="fill: rgb(14,173,105); fill-opacity: 1; stroke: rgb(0,0,0); stroke-width: 3" />
	<polygon points="561.5,-104.592734252719 440.901912822235,-280.497163369113 432.369891160352,-145.355148932959 " style="fill: rgb(14,173,105); fill-opacity: 1; stroke: rgb(0,0,0); stroke-width: 3" />
	<polygon points="535.109603244571,-57.1468102094982 432.369891160352,-145.355148932959 406.488600263269,-134.438592920977 453.083256043037,-53.5 " style="fill: rgb(14,173,105); fill-opacity: 1; stroke: rgb(0,0,0); stroke-width: 3" />
	<polygon points="139.439403708065,-343.430268293656 143.81557687071,-371.176646834158 33.5,-449.704558809361 49.674572194259,-369.206086312895 " style="fill: rgb(14,173,105); fill-opacity: 1; stroke: rgb(0,0,0); stroke-width: 3" />
	<polygon points="232.780096560998,-340.32658838145 272.945685710347,-411.939061514393 143.81557687071,-371.176646834158 139.439403708065,-343.430268293656 " style="fill: rgb(14,173,105); fill-opacity: 1; stroke: rgb(0,0,0); stroke-width: 3" />
	<polygon points="272.945685710347,-411.939061514393 73.2124299296908,-486.724710866076 143.81557687071,-371.176646834158 " style="fill: rgb(14,173,105); fill-opacity: 1; stroke: rgb(0,0,0); stroke-width: 3" />
	<polygon points="291.533489568672,-168.472032734211 225.59341771079,-111.880250769908 305.744166454791,-63.9430496935371 370.188377587817,-131.537882504221 " style="fill: rgb(14,173,105); fill-opacity: 1; stroke: rgb(0,0,0); stroke-width: 3" />
	<polygon points="292.965236000772,-255.355132153325 291.533489568672,-168.472032734211 370.188377587817,-131.537882504221 381.042081014191,-224.297328886765 " style="fill: rgb(14,173,105); fill-opacity: 1; stroke: rgb(0,0,0); stroke-width: 3" />
	<polygon points="284.096215388937,-262.295993614403 232.780096560998,-340.32658838145 145.348236129376,-307.496913501418 200.103949395765,-240.024439653139 " style="fill: rgb(14,173,105); fill-opacity: 1; stroke: rgb(0,0,0); stroke-width: 3" />
	<circle cx="305.490836984621" cy="-280.497163369113" r="2" style="fill: rgb(0,0,0)" />
	<circle cx="440.901912822235" cy="-280.497163369113" r="2" style="fill: rgb(0,0,0)" />
	<circle cx="272.945685710347" cy="-411.939061514393" r="2" style="fill: rgb(0,0,0)" />
	<circle cx="292.965236000772" cy="-255.355132153325" r="2" style="fill: rgb(0,0,0)" />
	<circle cx="381.042081014191" cy="-224.297328886765" r="2" style="fill: rgb(0,0,0)" />
	<circle cx="232.780096560998" cy="-340.32658838145" r="2" style="fill: rgb(0,0,0)" />
	<circle cx="284.096215388937" cy="-262.295993614403" r="2" style="fill: rgb(0,0,0)" />
	<circle cx="398.408114873351" cy="-399.226698227541" r="2" style="fill: rgb(0,0,0)" />
	<circle cx="406.488600263269" cy="-134.438592920977" r="2" style="fill: rgb(0,0,0)" />
	<circle cx="432.369891160352" cy="-145.355148932959" r="2" style="fill: rgb(0,0,0)" />
	<circle cx="291.533489568672" cy="-168.472032734211" r="2" style="fill: rgb(0,0,0)" />
	<circle cx="370.188377587817" cy="-131.537882504221" r="2" style="fill: rgb(0,0,0)" />
	<circle cx="143.81557687071" cy="-371.176646834158" r="2" style="fill: rgb(0,0,0)" />
	<circle cx="139.439403708065" cy="-343.430268293656" r="2" style="fill: rgb(0,0,0)" />
	<circle cx="145.348236129376" cy="-307.496913501418" r="2" style="fill: rgb(0,0,0)" />
	<circle cx="200.103949395765" cy="-240.024439653139" r="2" style="fill: rgb(0,0,0)" />
	<circle cx="463.854060450184" cy="-507.019339531923" r="2" style="fill: rgb(0,0,0)" />
	<circle cx="487.311634069161" cy="-488.661532528382" r="2" style="fill: rgb(0,0,0)" />
	<circle cx="561.5" cy="-104.592734252719" r="2" style="fill: rgb(0,0,0)" />
	<circle cx="453.083256043037" cy="-53.5" r="2" style="fill: rgb(0,0,0)" />
	<circle cx="535.109603244571" cy="-57.1468102094982" r="2" style="fill: rgb(0,0,0)" />
	<circle cx="225.59341771079" cy="-111.880250769908" r="2" style="fill: rgb(0,0,0)" />
	<circle cx="305.744166454791" cy="-63.9430496935371" r="2" style="fill: rgb(0,0,0)" />
	<circle cx="33.5" cy="-449.704558809361" r="2" style="fill: rgb(0,0,0)" />
	<circle cx="49.674572194259" cy="-369.206086312895" r="2" style="fill: rgb(0,0,0)" />
	<circle cx="73.2124299296908" cy="-486.724710866076" r="2" style="fill: rgb(0,0,0)" />
	<!--
	Generated using the Perl SVG Module V2.86
	by Ronan Oger
	Info: http://www.roitsystems.com/
	-->
</svg>