<?xml version="1.0" encoding="UTF-8" standalone="yes"?>
<!DOCTYPE svg PUBLIC "-//W3C//DTD SVG 1.0//EN" "http://www.w3.org/TR/2001/REC-SVG-20010904/DTD/svg10.dtd">
<!-- generated using polymake; Michael Joswig, Georg Loho, Benjamin Lorenz, Rico Raber; license CC BY-NC-SA 3.0; see polymake.org and matchthenet.de -->
<svg height="841pt" id="document" viewBox="0 -663.102643084632 572 663.102643084632" width="595pt" xmlns="http://www.w3.org/2000/svg" xmlns:svg="http://www.w3.org/2000/svg" xmlns:xlink="http://www.w3.org/1999/xlink">
	<title id="document_title">planar_net_</title>
	<polygon points="288.864239028992,-337.522023288543 360.028378513925,-337.522023288543 328.202807824212,-401.173164667983 257.038668339285,-401.173164667996 " style="fill: rgb(67,184,206); fill-opacity: 1; stroke: rgb(0,0,0); stroke-width: 3" />
	<polygon points="288.864239028992,-337.522023288543 257.038668339274,-273.870881909108 328.202807824206,-273.870881909107 360.028378513925,-337.522023288543 " style="fill: rgb(67,184,206); fill-opacity: 1; stroke: rgb(0,0,0); stroke-width: 3" />
	<polygon points="328.202807824212,-401.173164667983 360.028378513925,-337.522023288543 402.726862204897,-394.453334876487 370.901291515196,-458.104476255924 " style="fill: rgb(67,184,206); fill-opacity: 1; stroke: rgb(0,0,0); stroke-width: 3" />
	<polygon points="288.864239028992,-337.522023288543 257.038668339285,-401.173164667996 214.340184648305,-344.241853080061 246.165755337998,-280.590711700609 " style="fill: rgb(67,184,206); fill-opacity: 1; stroke: rgb(0,0,0); stroke-width: 3" />
	<polygon points="402.726862204884,-280.590711700593 360.028378513925,-337.522023288543 328.202807824206,-273.870881909107 370.901291515165,-216.939570321158 " style="fill: rgb(67,184,206); fill-opacity: 1; stroke: rgb(0,0,0); stroke-width: 3" />
	<polygon points="257.038668339285,-401.173164667996 328.202807824212,-401.173164667983 360.02837851393,-464.824306047419 288.864239029005,-464.824306047432 " style="fill: rgb(67,184,206); fill-opacity: 1; stroke: rgb(0,0,0); stroke-width: 3" />
	<polygon points="402.726862204897,-394.453334876487 360.028378513925,-337.522023288543 430.044634031307,-324.791795012641 472.74311772228,-381.72310660057 " style="fill: rgb(67,184,206); fill-opacity: 1; stroke: rgb(0,0,0); stroke-width: 3" />
	<polygon points="214.340184648305,-344.241853080061 257.038668339285,-401.173164667996 155.710191448542,-419.59652410271 175.636150504289,-351.27895019717 " style="fill: rgb(67,184,206); fill-opacity: 1; stroke: rgb(0,0,0); stroke-width: 3" />
	<polygon points="328.202807824206,-273.870881909107 257.038668339274,-273.870881909108 288.864239028989,-210.219740529666 360.028378513912,-210.219740529655 " style="fill: rgb(67,184,206); fill-opacity: 1; stroke: rgb(0,0,0); stroke-width: 3" />
	<polygon points="257.038668339285,-401.173164667996 288.864239029005,-464.824306047432 265.261097751876,-496.295161083612 195.244842234499,-483.564932807738 " style="fill: rgb(67,184,206); fill-opacity: 1; stroke: rgb(0,0,0); stroke-width: 3" />
	<polygon points="246.165755337998,-280.590711700609 214.340184648305,-344.241853080061 175.001615853085,-344.241853080078 143.176045163333,-280.590711700664 " style="fill: rgb(67,184,206); fill-opacity: 1; stroke: rgb(0,0,0); stroke-width: 3" />
	<polygon points="370.901291515196,-458.104476255924 402.726862204897,-394.453334876487 473.891001689832,-394.453334876472 442.065431000131,-458.104476255908 " style="fill: rgb(67,184,206); fill-opacity: 1; stroke: rgb(0,0,0); stroke-width: 3" />
	<polygon points="257.038668339274,-273.870881909108 195.244842234478,-191.479113769391 265.261097751848,-178.748885493488 288.864239028989,-210.219740529666 " style="fill: rgb(67,184,206); fill-opacity: 1; stroke: rgb(0,0,0); stroke-width: 3" />
	<polygon points="288.864239029005,-464.824306047432 360.02837851393,-464.824306047419 313.969979927227,-556.941103220829 271.271496236272,-500.009791632905 " style="fill: rgb(67,184,206); fill-opacity: 1; stroke: rgb(0,0,0); stroke-width: 3" />
	<polygon points="473.891001689827,-280.590711700575 402.726862204884,-280.590711700593 370.901291515165,-216.939570321158 442.065431000104,-216.939570321149 " style="fill: rgb(67,184,206); fill-opacity: 1; stroke: rgb(0,0,0); stroke-width: 3" />
	<polygon points="370.901291515196,-458.104476255924 442.065431000131,-458.104476255908 459.658173792869,-493.289961841374 416.95969010192,-550.22127342934 " style="fill: rgb(67,184,206); fill-opacity: 1; stroke: rgb(0,0,0); stroke-width: 3" />
	<polygon points="288.864239028989,-210.219740529666 271.271496236256,-175.034254944199 313.969979927191,-118.102943356239 360.028378513912,-210.219740529655 " style="fill: rgb(67,184,206); fill-opacity: 1; stroke: rgb(0,0,0); stroke-width: 3" />
	<polygon points="442.065431000104,-216.939570321149 370.901291515165,-216.939570321158 416.959690101871,-124.822773147749 459.658173792838,-181.754084735676 " style="fill: rgb(67,184,206); fill-opacity: 1; stroke: rgb(0,0,0); stroke-width: 3" />
	<polygon points="442.065431000131,-458.104476255908 473.891001689832,-394.453334876472 535.684827794642,-476.84510301618 465.668572277277,-489.575331292082 " style="fill: rgb(67,184,206); fill-opacity: 1; stroke: rgb(0,0,0); stroke-width: 3" />
	<polygon points="473.891001689827,-280.590711700575 442.065431000104,-216.939570321149 465.668572277234,-185.468715284967 535.684827794607,-198.198943560826 " style="fill: rgb(67,184,206); fill-opacity: 1; stroke: rgb(0,0,0); stroke-width: 3" />
	<polygon points="459.658173792869,-493.289961841374 529.674429310253,-506.020190117242 486.975945619305,-562.951501705206 416.95969010192,-550.22127342934 " style="fill: rgb(67,184,206); fill-opacity: 1; stroke: rgb(0,0,0); stroke-width: 3" />
	<polygon points="265.261097751876,-496.295161083612 285.18705680767,-564.612734989146 215.170801290295,-551.882506713272 195.244842234499,-483.564932807738 " style="fill: rgb(67,184,206); fill-opacity: 1; stroke: rgb(0,0,0); stroke-width: 3" />
	<polygon points="175.636150504289,-351.27895019717 155.710191448542,-419.59652410271 103.516255517373,-371.221656654367 123.442214573111,-302.904082748829 " style="fill: rgb(67,184,206); fill-opacity: 1; stroke: rgb(0,0,0); stroke-width: 3" />
	<polygon points="265.261097751848,-178.748885493488 195.244842234478,-191.479113769391 215.170801290237,-123.161539863841 285.1870568076,-110.431311587934 " style="fill: rgb(67,184,206); fill-opacity: 1; stroke: rgb(0,0,0); stroke-width: 3" />
	<polygon points="459.658173792838,-181.754084735676 416.959690101871,-124.822773147749 486.975945619252,-112.092544871834 529.674429310219,-169.023856459755 " style="fill: rgb(67,184,206); fill-opacity: 1; stroke: rgb(0,0,0); stroke-width: 3" />
	<polygon points="486.975945619305,-562.951501705206 529.674429310253,-506.020190117242 561.5,-569.671331496674 518.801516309058,-626.602643084632 " style="fill: rgb(67,184,206); fill-opacity: 1; stroke: rgb(0,0,0); stroke-width: 3" />
	<polygon points="215.170801290295,-551.882506713272 285.18705680767,-564.612734989146 242.488573116721,-621.544046577111 172.472317599353,-608.813818301243 " style="fill: rgb(67,184,206); fill-opacity: 1; stroke: rgb(0,0,0); stroke-width: 3" />
	<polygon points="155.710191448542,-419.59652410271 89.100556890653,-444.646301201453 36.9066209594881,-396.271433753122 103.516255517373,-371.221656654367 " style="fill: rgb(67,184,206); fill-opacity: 1; stroke: rgb(0,0,0); stroke-width: 3" />
	<polygon points="123.442214573111,-302.904082748829 103.516255517373,-371.221656654367 33.5,-383.951884930296 53.4259590557385,-315.634311024759 " style="fill: rgb(67,184,206); fill-opacity: 1; stroke: rgb(0,0,0); stroke-width: 3" />
	<polygon points="215.170801290237,-123.161539863841 172.472317599257,-66.2302282759068 242.488573116619,-53.5 285.1870568076,-110.431311587934 " style="fill: rgb(67,184,206); fill-opacity: 1; stroke: rgb(0,0,0); stroke-width: 3" />
	<circle cx="288.864239028992" cy="-337.522023288543" r="2" style="fill: rgb(0,0,0)" />
	<circle cx="360.028378513925" cy="-337.522023288543" r="2" style="fill: rgb(0,0,0)" />
	<circle cx="328.202807824212" cy="-401.173164667983" r="2" style="fill: rgb(0,0,0)" />
	<circle cx="257.038668339285" cy="-401.173164667996" r="2" style="fill: rgb(0,0,0)" />
	<circle cx="257.038668339274" cy="-273.870881909108" r="2" style="fill: rgb(0,0,0)" />
	<circle cx="328.202807824206" cy="-273.870881909107" r="2" style="fill: rgb(0,0,0)" />
	<circle cx="402.726862204897" cy="-394.453334876487" r="2" style="fill: rgb(0,0,0)" />
	<circle cx="370.901291515196" cy="-458.104476255924" r="2" style="fill: rgb(0,0,0)" />
	<circle cx="214.340184648305" cy="-344.241853080061" r="2" style="fill: rgb(0,0,0)" />
	<circle cx="246.165755337998" cy="-280.590711700609" r="2" style="fill: rgb(0,0,0)" />
	<circle cx="360.02837851393" cy="-464.824306047419" r="2" style="fill: rgb(0,0,0)" />
	<circle cx="288.864239029005" cy="-464.824306047432" r="2" style="fill: rgb(0,0,0)" />
	<circle cx="370.901291515165" cy="-216.939570321158" r="2" style="fill: rgb(0,0,0)" />
	<circle cx="402.726862204884" cy="-280.590711700593" r="2" style="fill: rgb(0,0,0)" />
	<circle cx="288.864239028989" cy="-210.219740529666" r="2" style="fill: rgb(0,0,0)" />
	<circle cx="360.028378513912" cy="-210.219740529655" r="2" style="fill: rgb(0,0,0)" />
	<circle cx="430.044634031307" cy="-324.791795012641" r="2" style="fill: rgb(0,0,0)" />
	<circle cx="472.74311772228" cy="-381.72310660057" r="2" style="fill: rgb(0,0,0)" />
	<circle cx="473.891001689832" cy="-394.453334876472" r="2" style="fill: rgb(0,0,0)" />
	<circle cx="442.065431000131" cy="-458.104476255908" r="2" style="fill: rgb(0,0,0)" />
	<circle cx="155.710191448542" cy="-419.59652410271" r="2" style="fill: rgb(0,0,0)" />
	<circle cx="175.636150504289" cy="-351.27895019717" r="2" style="fill: rgb(0,0,0)" />
	<circle cx="175.001615853085" cy="-344.241853080078" r="2" style="fill: rgb(0,0,0)" />
	<circle cx="143.176045163333" cy="-280.590711700664" r="2" style="fill: rgb(0,0,0)" />
	<circle cx="265.261097751876" cy="-496.295161083612" r="2" style="fill: rgb(0,0,0)" />
	<circle cx="195.244842234499" cy="-483.564932807738" r="2" style="fill: rgb(0,0,0)" />
	<circle cx="313.969979927227" cy="-556.941103220829" r="2" style="fill: rgb(0,0,0)" />
	<circle cx="271.271496236272" cy="-500.009791632905" r="2" style="fill: rgb(0,0,0)" />
	<circle cx="442.065431000104" cy="-216.939570321149" r="2" style="fill: rgb(0,0,0)" />
	<circle cx="473.891001689827" cy="-280.590711700575" r="2" style="fill: rgb(0,0,0)" />
	<circle cx="195.244842234478" cy="-191.479113769391" r="2" style="fill: rgb(0,0,0)" />
	<circle cx="265.261097751848" cy="-178.748885493488" r="2" style="fill: rgb(0,0,0)" />
	<circle cx="271.271496236256" cy="-175.034254944199" r="2" style="fill: rgb(0,0,0)" />
	<circle cx="313.969979927191" cy="-118.102943356239" r="2" style="fill: rgb(0,0,0)" />
	<circle cx="459.658173792869" cy="-493.289961841374" r="2" style="fill: rgb(0,0,0)" />
	<circle cx="416.95969010192" cy="-550.22127342934" r="2" style="fill: rgb(0,0,0)" />
	<circle cx="535.684827794642" cy="-476.84510301618" r="2" style="fill: rgb(0,0,0)" />
	<circle cx="465.668572277277" cy="-489.575331292082" r="2" style="fill: rgb(0,0,0)" />
	<circle cx="103.516255517373" cy="-371.221656654367" r="2" style="fill: rgb(0,0,0)" />
	<circle cx="123.442214573111" cy="-302.904082748829" r="2" style="fill: rgb(0,0,0)" />
	<circle cx="285.18705680767" cy="-564.612734989146" r="2" style="fill: rgb(0,0,0)" />
	<circle cx="215.170801290295" cy="-551.882506713272" r="2" style="fill: rgb(0,0,0)" />
	<circle cx="416.959690101871" cy="-124.822773147749" r="2" style="fill: rgb(0,0,0)" />
	<circle cx="459.658173792838" cy="-181.754084735676" r="2" style="fill: rgb(0,0,0)" />
	<circle cx="465.668572277234" cy="-185.468715284967" r="2" style="fill: rgb(0,0,0)" />
	<circle cx="535.684827794607" cy="-198.198943560826" r="2" style="fill: rgb(0,0,0)" />
	<circle cx="215.170801290237" cy="-123.161539863841" r="2" style="fill: rgb(0,0,0)" />
	<circle cx="285.1870568076" cy="-110.431311587934" r="2" style="fill: rgb(0,0,0)" />
	<circle cx="529.674429310253" cy="-506.020190117242" r="2" style="fill: rgb(0,0,0)" />
	<circle cx="486.975945619305" cy="-562.951501705206" r="2" style="fill: rgb(0,0,0)" />
	<circle cx="89.100556890653" cy="-444.646301201453" r="2" style="fill: rgb(0,0,0)" />
	<circle cx="36.9066209594881" cy="-396.271433753122" r="2" style="fill: rgb(0,0,0)" />
	<circle cx="33.5" cy="-383.951884930296" r="2" style="fill: rgb(0,0,0)" />
	<circle cx="53.4259590557385" cy="-315.634311024759" r="2" style="fill: rgb(0,0,0)" />
	<circle cx="242.488573116721" cy="-621.544046577111" r="2" style="fill: rgb(0,0,0)" />
	<circle cx="172.472317599353" cy="-608.813818301243" r="2" style="fill: rgb(0,0,0)" />
	<circle cx="486.975945619252" cy="-112.092544871834" r="2" style="fill: rgb(0,0,0)" />
	<circle cx="529.674429310219" cy="-169.023856459755" r="2" style="fill: rgb(0,0,0)" />
	<circle cx="172.472317599257" cy="-66.2302282759068" r="2" style="fill: rgb(0,0,0)" />
	<circle cx="242.488573116619" cy="-53.5" r="2" style="fill: rgb(0,0,0)" />
	<circle cx="561.5" cy="-569.671331496674" r="2" style="fill: rgb(0,0,0)" />
	<circle cx="518.801516309058" cy="-626.602643084632" r="2" style="fill: rgb(0,0,0)" />
	<!-- 
	Generated using the Perl SVG Module V2.64
	by Ronan Oger
	Info: http://www.roitsystems.com/
 -->
</svg>