<?xml version="1.0" encoding="UTF-8" standalone="yes"?>
<!DOCTYPE svg PUBLIC "-//W3C//DTD SVG 1.0//EN" "http://www.w3.org/TR/2001/REC-SVG-20010904/DTD/svg10.dtd">
<!-- generated using polymake; Michael Joswig, Georg Loho, Benjamin Lorenz, Rico Raber; license CC BY-NC-ND 3.0; see polymake.org and matchthenet.de -->
<svg height="841pt" id="document" viewBox="0 -770.592248809177 572 770.592248809177" width="595pt" xmlns="http://www.w3.org/2000/svg" xmlns:svg="http://www.w3.org/2000/svg" xmlns:xlink="http://www.w3.org/1999/xlink">
	<title id="document_title">planar_net_</title>
	<polygon points="278.345900589882,-453.326478209003 319.799034673564,-453.326478209003 299.07246763171,-489.225945391953 " style="fill: rgb(14,173,105); fill-opacity: 1; stroke: rgb(0,0,0); stroke-width: 3" />
	<polygon points="353.335324617366,-428.960937333312 319.799034673564,-453.326478209003 278.345900589882,-453.326478209003 244.80961064608,-428.960937333312 231.999887744119,-389.53666404217 244.80961064608,-350.112390751027 278.345900589882,-325.746849875337 319.799034673564,-325.746849875337 353.335324617366,-350.112390751027 366.145047519327,-389.53666404217 " style="fill: rgb(14,173,105); fill-opacity: 1; stroke: rgb(0,0,0); stroke-width: 3" />
	<polygon points="393.882608264229,-420.342346136267 353.335324617366,-428.960937333312 366.145047519327,-389.53666404217 406.692331166182,-380.918072845132 " style="fill: rgb(14,173,105); fill-opacity: 1; stroke: rgb(0,0,0); stroke-width: 3" />
	<polygon points="244.80961064608,-428.960937333312 204.26232699923,-420.342346136278 191.452604097249,-380.918072845139 231.999887744119,-389.53666404217 " style="fill: rgb(14,173,105); fill-opacity: 1; stroke: rgb(0,0,0); stroke-width: 3" />
	<polygon points="425.953201412487,-475.890242898022 398.215640667611,-445.084560803897 429.021322761737,-417.34700005902 456.75888350661,-448.152682153137 " style="fill: rgb(14,173,105); fill-opacity: 1; stroke: rgb(0,0,0); stroke-width: 3" />
	<polygon points="199.929294595849,-445.084560803868 172.191733850956,-475.890242897976 141.386051756845,-448.152682153085 169.123612501732,-417.347000058977 " style="fill: rgb(14,173,105); fill-opacity: 1; stroke: rgb(0,0,0); stroke-width: 3" />
	<polygon points="366.145047519327,-389.53666404217 353.335324617366,-350.112390751027 392.759597908512,-337.302667849062 405.569320810474,-376.726941140199 " style="fill: rgb(14,173,105); fill-opacity: 1; stroke: rgb(0,0,0); stroke-width: 3" />
	<polygon points="244.80961064608,-350.112390751027 231.999887744119,-389.53666404217 192.575614452973,-376.726941140208 205.385337354927,-337.302667849073 " style="fill: rgb(14,173,105); fill-opacity: 1; stroke: rgb(0,0,0); stroke-width: 3" />
	<polygon points="192.575614452973,-376.726941140208 151.12248036929,-376.726941140214 138.312757467317,-337.302667849084 171.849047411115,-312.937126973395 205.385337354927,-337.302667849073 " style="fill: rgb(14,173,105); fill-opacity: 1; stroke: rgb(0,0,0); stroke-width: 3" />
	<polygon points="353.335324617366,-350.112390751027 319.799034673564,-325.746849875337 357.668357020773,-308.886341273167 391.204646964563,-333.251882148861 " style="fill: rgb(14,173,105); fill-opacity: 1; stroke: rgb(0,0,0); stroke-width: 3" />
	<polygon points="278.345900589882,-325.746849875337 244.80961064608,-350.112390751027 206.940288298878,-333.251882148858 240.476578242668,-308.886341273172 " style="fill: rgb(14,173,105); fill-opacity: 1; stroke: rgb(0,0,0); stroke-width: 3" />
	<polygon points="215.110564730137,-677.807466915867 252.979887077334,-694.667975518034 236.119378475167,-732.537297865239 198.250056127974,-715.676789263074 " style="fill: rgb(14,173,105); fill-opacity: 1; stroke: rgb(0,0,0); stroke-width: 3" />
	<polygon points="240.476578242668,-308.886341273172 206.940288298878,-333.251882148858 182.574747423178,-299.715592205055 216.111037366955,-275.35005132937 " style="fill: rgb(14,173,105); fill-opacity: 1; stroke: rgb(0,0,0); stroke-width: 3" />
	<polygon points="459.832177796117,-337.302667849046 426.295887852313,-312.937126973367 450.661428727998,-279.400837029554 484.197718671799,-303.766377905229 " style="fill: rgb(14,173,105); fill-opacity: 1; stroke: rgb(0,0,0); stroke-width: 3" />
	<polygon points="113.947216591617,-303.766377905279 147.483506535403,-279.40083702959 171.849047411115,-312.937126973395 138.312757467317,-337.302667849084 " style="fill: rgb(14,173,105); fill-opacity: 1; stroke: rgb(0,0,0); stroke-width: 3" />
	<polygon points="244.80961064608,-222.53276241736 231.999887744119,-261.957035708503 191.452604097264,-270.575626905536 204.262326999216,-231.151353614408 " style="fill: rgb(14,173,105); fill-opacity: 1; stroke: rgb(0,0,0); stroke-width: 3" />
	<polygon points="203.356476562397,-94.9531340836958 203.356476562393,-53.500000000003 244.80961064607,-53.5000000000089 244.809610646079,-94.9531340836973 " style="fill: rgb(14,173,105); fill-opacity: 1; stroke: rgb(0,0,0); stroke-width: 3" />
	<polygon points="319.799034673564,-198.167221541671 278.345900589882,-198.16722154167 299.072467631723,-162.267754358717 " style="fill: rgb(14,173,105); fill-opacity: 1; stroke: rgb(0,0,0); stroke-width: 3" />
	<polygon points="282.67893299327,-78.092625481517 278.345900589882,-119.318674959389 244.809610646079,-94.9531340836973 249.142643049473,-53.7270846058277 " style="fill: rgb(14,173,105); fill-opacity: 1; stroke: rgb(0,0,0); stroke-width: 3" />
	<polygon points="394.78845870105,-94.9531340836948 353.335324617368,-94.9531340836932 353.335324617368,-53.5 394.788458701041,-53.500000000007 " style="fill: rgb(14,173,105); fill-opacity: 1; stroke: rgb(0,0,0); stroke-width: 3" />
	<polygon points="157.010463716634,-158.742948250525 169.820186618595,-119.318674959384 203.356476562397,-94.9531340836958 244.809610646079,-94.9531340836973 278.345900589882,-119.318674959389 291.155623491843,-158.742948250531 278.345900589882,-198.16722154167 244.80961064608,-222.53276241736 203.356476562398,-222.532762417358 169.820186618596,-198.167221541667 " style="fill: rgb(14,173,105); fill-opacity: 1; stroke: rgb(0,0,0); stroke-width: 3" />
	<polygon points="57.3715023052164,-580.906106542664 78.0980693470436,-616.805573725615 57.3715023051891,-652.705040908567 36.644935263367,-616.805573725626 " style="fill: rgb(14,173,105); fill-opacity: 1; stroke: rgb(0,0,0); stroke-width: 3" />
	<polygon points="520.046865916312,-616.805573725727 540.773432958166,-580.906106542777 561.5,-616.805573725743 540.773432958141,-652.705040908679 " style="fill: rgb(14,173,105); fill-opacity: 1; stroke: rgb(0,0,0); stroke-width: 3" />
	<polygon points="428.324748644852,-119.318674959387 441.134471546812,-158.742948250531 428.32474864485,-198.167221541675 394.788458701047,-222.532762417365 353.335324617366,-222.532762417362 319.799034673564,-198.167221541671 306.989311771603,-158.742948250527 319.799034673565,-119.318674959383 353.335324617368,-94.9531340836932 394.78845870105,-94.9531340836948 " style="fill: rgb(14,173,105); fill-opacity: 1; stroke: rgb(0,0,0); stroke-width: 3" />
	<polygon points="94.773850688656,-712.761454152845 54.2265670418254,-721.380045349886 33.5,-685.480578166936 61.2375607448777,-654.674896072821 99.1068830920556,-671.535404674985 " style="fill: rgb(14,173,105); fill-opacity: 1; stroke: rgb(0,0,0); stroke-width: 3" />
	<polygon points="366.145047519327,-261.957035708505 353.335324617366,-222.532762417362 393.882608264225,-231.151353614382 406.692331166204,-270.575626905504 " style="fill: rgb(14,173,105); fill-opacity: 1; stroke: rgb(0,0,0); stroke-width: 3" />
	<polygon points="89.442095453517,-508.874374970699 61.7045347086232,-539.680057064807 48.8948118066644,-500.255783773654 76.6323725515587,-469.450101679558 " style="fill: rgb(14,173,105); fill-opacity: 1; stroke: rgb(0,0,0); stroke-width: 3" />
	<polygon points="78.0980693470436,-616.805573725615 115.96739169423,-633.666082327783 99.1068830920556,-671.535404674985 61.2375607448777,-654.674896072821 " style="fill: rgb(14,173,105); fill-opacity: 1; stroke: rgb(0,0,0); stroke-width: 3" />
	<polygon points="482.177543569109,-633.666082327884 520.046865916312,-616.805573725727 536.907374518476,-654.674896072935 499.038052171274,-671.535404675089 " style="fill: rgb(14,173,105); fill-opacity: 1; stroke: rgb(0,0,0); stroke-width: 3" />
	<polygon points="536.440400554788,-539.68005706491 508.702839809913,-508.874374970784 521.512562711897,-469.450101679645 549.250123456764,-500.255783773756 " style="fill: rgb(14,173,105); fill-opacity: 1; stroke: rgb(0,0,0); stroke-width: 3" />
	<polygon points="319.799034673564,-325.746849875337 278.345900589882,-325.746849875337 244.80961064608,-301.381308999645 231.999887744119,-261.957035708503 244.80961064608,-222.53276241736 278.345900589882,-198.16722154167 319.799034673564,-198.167221541671 353.335324617366,-222.532762417362 366.145047519327,-261.957035708505 353.335324617366,-301.381308999647 " style="fill: rgb(14,173,105); fill-opacity: 1; stroke: rgb(0,0,0); stroke-width: 3" />
	<polygon points="357.668357020773,-308.886341273167 382.033897896473,-275.350051329363 415.57018784026,-299.71559220505 391.204646964563,-333.251882148861 " style="fill: rgb(14,173,105); fill-opacity: 1; stroke: rgb(0,0,0); stroke-width: 3" />
	<polygon points="134.322411503758,-492.750751500123 93.0963620258946,-488.417719096716 97.4293944292999,-447.191669618854 138.655443907168,-451.524702022255 " style="fill: rgb(14,173,105); fill-opacity: 1; stroke: rgb(0,0,0); stroke-width: 3" />
	<polygon points="156.514675341076,-625.04749113075 143.704952439115,-664.471764421893 103.157668792271,-673.090355618942 115.96739169423,-633.666082327783 " style="fill: rgb(14,173,105); fill-opacity: 1; stroke: rgb(0,0,0); stroke-width: 3" />
	<polygon points="293.527170724181,-686.049384321001 280.71744782221,-725.473657612145 240.170164175354,-734.092248809177 252.979887077334,-694.667975518034 " style="fill: rgb(14,173,105); fill-opacity: 1; stroke: rgb(0,0,0); stroke-width: 3" />
	<polygon points="463.822523759684,-492.750751500198 459.489491356303,-451.524702022342 500.71554083417,-447.191669618958 505.048573237555,-488.417719096802 " style="fill: rgb(14,173,105); fill-opacity: 1; stroke: rgb(0,0,0); stroke-width: 3" />
	<polygon points="447.022454894157,-376.726941140188 405.569320810474,-376.726941140199 392.759597908512,-337.302667849062 426.295887852313,-312.937126973367 459.832177796117,-337.302667849046 " style="fill: rgb(14,173,105); fill-opacity: 1; stroke: rgb(0,0,0); stroke-width: 3" />
	<polygon points="172.191733850956,-475.890242897976 167.858701447549,-517.116292375834 134.322411503758,-492.750751500123 138.655443907168,-451.524702022255 " style="fill: rgb(14,173,105); fill-opacity: 1; stroke: rgb(0,0,0); stroke-width: 3" />
	<polygon points="430.286233815865,-517.11629237589 425.953201412487,-475.890242898022 459.489491356303,-451.524702022342 463.822523759684,-492.750751500198 " style="fill: rgb(14,173,105); fill-opacity: 1; stroke: rgb(0,0,0); stroke-width: 3" />
	<polygon points="167.858701447549,-517.116292375834 188.585268489377,-553.015759558784 184.25223608597,-594.241809036642 156.514675341076,-625.04749113075 115.96739169423,-633.666082327783 78.0980693470436,-616.805573725615 57.3715023052164,-580.906106542664 61.7045347086232,-539.680057064807 89.442095453517,-508.874374970699 129.989379100363,-500.255783773666 " style="fill: rgb(14,173,105); fill-opacity: 1; stroke: rgb(0,0,0); stroke-width: 3" />
	<polygon points="409.559666774011,-553.01575955884 430.286233815865,-517.11629237589 468.155556163068,-500.255783773733 508.702839809913,-508.874374970784 536.440400554788,-539.68005706491 540.773432958166,-580.906106542777 520.046865916312,-616.805573725727 482.177543569109,-633.666082327884 441.630259922264,-625.047491130833 413.892699177388,-594.241809036708 " style="fill: rgb(14,173,105); fill-opacity: 1; stroke: rgb(0,0,0); stroke-width: 3" />
	<polygon points="188.585268489377,-553.015759558784 226.454590836563,-569.876268160951 192.918300892758,-594.241809036674 " style="fill: rgb(14,173,105); fill-opacity: 1; stroke: rgb(0,0,0); stroke-width: 3" />
	<polygon points="371.690344426808,-569.876268160997 409.559666774011,-553.01575955884 405.226634370604,-594.241809036698 " style="fill: rgb(14,173,105); fill-opacity: 1; stroke: rgb(0,0,0); stroke-width: 3" />
	<polygon points="304.871196830607,-578.118185566086 325.597763872452,-614.017652749036 321.264731469063,-655.243702226894 293.527170724181,-686.049384321001 252.979887077334,-694.667975518034 215.110564730137,-677.807466915867 194.383997688292,-641.907999732916 198.717030091681,-600.681950255059 226.454590836563,-569.876268160951 267.00187448341,-561.257676963918 " style="fill: rgb(14,173,105); fill-opacity: 1; stroke: rgb(0,0,0); stroke-width: 3" />
	<polygon points="294.739435228303,-530.45199486981 307.549158130261,-569.876268160954 267.00187448341,-561.257676963918 " style="fill: rgb(14,173,105); fill-opacity: 1; stroke: rgb(0,0,0); stroke-width: 3" />
	<polygon points="278.345900589882,-453.326478209003 299.07246763171,-489.225945391953 294.739435228303,-530.45199486981 267.00187448341,-561.257676963918 226.454590836563,-569.876268160951 188.585268489377,-553.015759558784 167.858701447549,-517.116292375834 172.191733850956,-475.890242897976 199.929294595849,-445.084560803868 240.476578242696,-436.465969606835 " style="fill: rgb(14,173,105); fill-opacity: 1; stroke: rgb(0,0,0); stroke-width: 3" />
	<polygon points="299.07246763171,-489.225945391953 319.799034673564,-453.326478209003 357.668357020767,-436.465969606846 398.215640667611,-445.084560803897 425.953201412487,-475.890242898022 430.286233815865,-517.11629237589 409.559666774011,-553.01575955884 371.690344426808,-569.876268160997 331.143060779963,-561.257676963946 303.405500035088,-530.451994869821 " style="fill: rgb(14,173,105); fill-opacity: 1; stroke: rgb(0,0,0); stroke-width: 3" />
	<circle cx="278.345900589882" cy="-453.326478209003" r="2" style="fill: rgb(0,0,0)" />
	<circle cx="319.799034673564" cy="-453.326478209003" r="2" style="fill: rgb(0,0,0)" />
	<circle cx="299.07246763171" cy="-489.225945391953" r="2" style="fill: rgb(0,0,0)" />
	<circle cx="244.80961064608" cy="-428.960937333312" r="2" style="fill: rgb(0,0,0)" />
	<circle cx="231.999887744119" cy="-389.53666404217" r="2" style="fill: rgb(0,0,0)" />
	<circle cx="244.80961064608" cy="-350.112390751027" r="2" style="fill: rgb(0,0,0)" />
	<circle cx="278.345900589882" cy="-325.746849875337" r="2" style="fill: rgb(0,0,0)" />
	<circle cx="319.799034673564" cy="-325.746849875337" r="2" style="fill: rgb(0,0,0)" />
	<circle cx="353.335324617366" cy="-350.112390751027" r="2" style="fill: rgb(0,0,0)" />
	<circle cx="366.145047519327" cy="-389.53666404217" r="2" style="fill: rgb(0,0,0)" />
	<circle cx="353.335324617366" cy="-428.960937333312" r="2" style="fill: rgb(0,0,0)" />
	<circle cx="294.739435228303" cy="-530.45199486981" r="2" style="fill: rgb(0,0,0)" />
	<circle cx="267.00187448341" cy="-561.257676963918" r="2" style="fill: rgb(0,0,0)" />
	<circle cx="226.454590836563" cy="-569.876268160951" r="2" style="fill: rgb(0,0,0)" />
	<circle cx="188.585268489377" cy="-553.015759558784" r="2" style="fill: rgb(0,0,0)" />
	<circle cx="167.858701447549" cy="-517.116292375834" r="2" style="fill: rgb(0,0,0)" />
	<circle cx="172.191733850956" cy="-475.890242897976" r="2" style="fill: rgb(0,0,0)" />
	<circle cx="199.929294595849" cy="-445.084560803868" r="2" style="fill: rgb(0,0,0)" />
	<circle cx="240.476578242696" cy="-436.465969606835" r="2" style="fill: rgb(0,0,0)" />
	<circle cx="357.668357020767" cy="-436.465969606846" r="2" style="fill: rgb(0,0,0)" />
	<circle cx="398.215640667611" cy="-445.084560803897" r="2" style="fill: rgb(0,0,0)" />
	<circle cx="425.953201412487" cy="-475.890242898022" r="2" style="fill: rgb(0,0,0)" />
	<circle cx="430.286233815865" cy="-517.11629237589" r="2" style="fill: rgb(0,0,0)" />
	<circle cx="409.559666774011" cy="-553.01575955884" r="2" style="fill: rgb(0,0,0)" />
	<circle cx="371.690344426808" cy="-569.876268160997" r="2" style="fill: rgb(0,0,0)" />
	<circle cx="331.143060779963" cy="-561.257676963946" r="2" style="fill: rgb(0,0,0)" />
	<circle cx="303.405500035088" cy="-530.451994869821" r="2" style="fill: rgb(0,0,0)" />
	<circle cx="406.692331166182" cy="-380.918072845132" r="2" style="fill: rgb(0,0,0)" />
	<circle cx="393.882608264229" cy="-420.342346136267" r="2" style="fill: rgb(0,0,0)" />
	<circle cx="204.26232699923" cy="-420.342346136278" r="2" style="fill: rgb(0,0,0)" />
	<circle cx="191.452604097249" cy="-380.918072845139" r="2" style="fill: rgb(0,0,0)" />
	<circle cx="392.759597908512" cy="-337.302667849062" r="2" style="fill: rgb(0,0,0)" />
	<circle cx="405.569320810474" cy="-376.726941140199" r="2" style="fill: rgb(0,0,0)" />
	<circle cx="192.575614452973" cy="-376.726941140208" r="2" style="fill: rgb(0,0,0)" />
	<circle cx="205.385337354927" cy="-337.302667849073" r="2" style="fill: rgb(0,0,0)" />
	<circle cx="357.668357020773" cy="-308.886341273167" r="2" style="fill: rgb(0,0,0)" />
	<circle cx="391.204646964563" cy="-333.251882148861" r="2" style="fill: rgb(0,0,0)" />
	<circle cx="206.940288298878" cy="-333.251882148858" r="2" style="fill: rgb(0,0,0)" />
	<circle cx="240.476578242668" cy="-308.886341273172" r="2" style="fill: rgb(0,0,0)" />
	<circle cx="244.80961064608" cy="-301.381308999645" r="2" style="fill: rgb(0,0,0)" />
	<circle cx="231.999887744119" cy="-261.957035708503" r="2" style="fill: rgb(0,0,0)" />
	<circle cx="244.80961064608" cy="-222.53276241736" r="2" style="fill: rgb(0,0,0)" />
	<circle cx="278.345900589882" cy="-198.16722154167" r="2" style="fill: rgb(0,0,0)" />
	<circle cx="319.799034673564" cy="-198.167221541671" r="2" style="fill: rgb(0,0,0)" />
	<circle cx="353.335324617366" cy="-222.532762417362" r="2" style="fill: rgb(0,0,0)" />
	<circle cx="366.145047519327" cy="-261.957035708505" r="2" style="fill: rgb(0,0,0)" />
	<circle cx="353.335324617366" cy="-301.381308999647" r="2" style="fill: rgb(0,0,0)" />
	<circle cx="141.386051756845" cy="-448.152682153085" r="2" style="fill: rgb(0,0,0)" />
	<circle cx="169.123612501732" cy="-417.347000058977" r="2" style="fill: rgb(0,0,0)" />
	<circle cx="134.322411503758" cy="-492.750751500123" r="2" style="fill: rgb(0,0,0)" />
	<circle cx="138.655443907168" cy="-451.524702022255" r="2" style="fill: rgb(0,0,0)" />
	<circle cx="184.25223608597" cy="-594.241809036642" r="2" style="fill: rgb(0,0,0)" />
	<circle cx="156.514675341076" cy="-625.04749113075" r="2" style="fill: rgb(0,0,0)" />
	<circle cx="115.96739169423" cy="-633.666082327783" r="2" style="fill: rgb(0,0,0)" />
	<circle cx="78.0980693470436" cy="-616.805573725615" r="2" style="fill: rgb(0,0,0)" />
	<circle cx="57.3715023052164" cy="-580.906106542664" r="2" style="fill: rgb(0,0,0)" />
	<circle cx="61.7045347086232" cy="-539.680057064807" r="2" style="fill: rgb(0,0,0)" />
	<circle cx="89.442095453517" cy="-508.874374970699" r="2" style="fill: rgb(0,0,0)" />
	<circle cx="129.989379100363" cy="-500.255783773666" r="2" style="fill: rgb(0,0,0)" />
	<circle cx="192.918300892758" cy="-594.241809036674" r="2" style="fill: rgb(0,0,0)" />
	<circle cx="304.871196830607" cy="-578.118185566086" r="2" style="fill: rgb(0,0,0)" />
	<circle cx="325.597763872452" cy="-614.017652749036" r="2" style="fill: rgb(0,0,0)" />
	<circle cx="321.264731469063" cy="-655.243702226894" r="2" style="fill: rgb(0,0,0)" />
	<circle cx="293.527170724181" cy="-686.049384321001" r="2" style="fill: rgb(0,0,0)" />
	<circle cx="252.979887077334" cy="-694.667975518034" r="2" style="fill: rgb(0,0,0)" />
	<circle cx="215.110564730137" cy="-677.807466915867" r="2" style="fill: rgb(0,0,0)" />
	<circle cx="194.383997688292" cy="-641.907999732916" r="2" style="fill: rgb(0,0,0)" />
	<circle cx="198.717030091681" cy="-600.681950255059" r="2" style="fill: rgb(0,0,0)" />
	<circle cx="307.549158130261" cy="-569.876268160954" r="2" style="fill: rgb(0,0,0)" />
	<circle cx="429.021322761737" cy="-417.34700005902" r="2" style="fill: rgb(0,0,0)" />
	<circle cx="456.75888350661" cy="-448.152682153137" r="2" style="fill: rgb(0,0,0)" />
	<circle cx="459.489491356303" cy="-451.524702022342" r="2" style="fill: rgb(0,0,0)" />
	<circle cx="463.822523759684" cy="-492.750751500198" r="2" style="fill: rgb(0,0,0)" />
	<circle cx="468.155556163068" cy="-500.255783773733" r="2" style="fill: rgb(0,0,0)" />
	<circle cx="508.702839809913" cy="-508.874374970784" r="2" style="fill: rgb(0,0,0)" />
	<circle cx="536.440400554788" cy="-539.68005706491" r="2" style="fill: rgb(0,0,0)" />
	<circle cx="540.773432958166" cy="-580.906106542777" r="2" style="fill: rgb(0,0,0)" />
	<circle cx="520.046865916312" cy="-616.805573725727" r="2" style="fill: rgb(0,0,0)" />
	<circle cx="482.177543569109" cy="-633.666082327884" r="2" style="fill: rgb(0,0,0)" />
	<circle cx="441.630259922264" cy="-625.047491130833" r="2" style="fill: rgb(0,0,0)" />
	<circle cx="413.892699177388" cy="-594.241809036708" r="2" style="fill: rgb(0,0,0)" />
	<circle cx="405.226634370604" cy="-594.241809036698" r="2" style="fill: rgb(0,0,0)" />
	<circle cx="426.295887852313" cy="-312.937126973367" r="2" style="fill: rgb(0,0,0)" />
	<circle cx="459.832177796117" cy="-337.302667849046" r="2" style="fill: rgb(0,0,0)" />
	<circle cx="447.022454894157" cy="-376.726941140188" r="2" style="fill: rgb(0,0,0)" />
	<circle cx="151.12248036929" cy="-376.726941140214" r="2" style="fill: rgb(0,0,0)" />
	<circle cx="138.312757467317" cy="-337.302667849084" r="2" style="fill: rgb(0,0,0)" />
	<circle cx="171.849047411115" cy="-312.937126973395" r="2" style="fill: rgb(0,0,0)" />
	<circle cx="382.033897896473" cy="-275.350051329363" r="2" style="fill: rgb(0,0,0)" />
	<circle cx="415.57018784026" cy="-299.71559220505" r="2" style="fill: rgb(0,0,0)" />
	<circle cx="182.574747423178" cy="-299.715592205055" r="2" style="fill: rgb(0,0,0)" />
	<circle cx="216.111037366955" cy="-275.35005132937" r="2" style="fill: rgb(0,0,0)" />
	<circle cx="191.452604097264" cy="-270.575626905536" r="2" style="fill: rgb(0,0,0)" />
	<circle cx="204.262326999216" cy="-231.151353614408" r="2" style="fill: rgb(0,0,0)" />
	<circle cx="299.072467631723" cy="-162.267754358717" r="2" style="fill: rgb(0,0,0)" />
	<circle cx="203.356476562398" cy="-222.532762417358" r="2" style="fill: rgb(0,0,0)" />
	<circle cx="169.820186618596" cy="-198.167221541667" r="2" style="fill: rgb(0,0,0)" />
	<circle cx="157.010463716634" cy="-158.742948250525" r="2" style="fill: rgb(0,0,0)" />
	<circle cx="169.820186618595" cy="-119.318674959384" r="2" style="fill: rgb(0,0,0)" />
	<circle cx="203.356476562397" cy="-94.9531340836958" r="2" style="fill: rgb(0,0,0)" />
	<circle cx="244.809610646079" cy="-94.9531340836973" r="2" style="fill: rgb(0,0,0)" />
	<circle cx="278.345900589882" cy="-119.318674959389" r="2" style="fill: rgb(0,0,0)" />
	<circle cx="291.155623491843" cy="-158.742948250531" r="2" style="fill: rgb(0,0,0)" />
	<circle cx="306.989311771603" cy="-158.742948250527" r="2" style="fill: rgb(0,0,0)" />
	<circle cx="319.799034673565" cy="-119.318674959383" r="2" style="fill: rgb(0,0,0)" />
	<circle cx="353.335324617368" cy="-94.9531340836932" r="2" style="fill: rgb(0,0,0)" />
	<circle cx="394.78845870105" cy="-94.9531340836948" r="2" style="fill: rgb(0,0,0)" />
	<circle cx="428.324748644852" cy="-119.318674959387" r="2" style="fill: rgb(0,0,0)" />
	<circle cx="441.134471546812" cy="-158.742948250531" r="2" style="fill: rgb(0,0,0)" />
	<circle cx="428.32474864485" cy="-198.167221541675" r="2" style="fill: rgb(0,0,0)" />
	<circle cx="394.788458701047" cy="-222.532762417365" r="2" style="fill: rgb(0,0,0)" />
	<circle cx="393.882608264225" cy="-231.151353614382" r="2" style="fill: rgb(0,0,0)" />
	<circle cx="406.692331166204" cy="-270.575626905504" r="2" style="fill: rgb(0,0,0)" />
	<circle cx="93.0963620258946" cy="-488.417719096716" r="2" style="fill: rgb(0,0,0)" />
	<circle cx="97.4293944292999" cy="-447.191669618854" r="2" style="fill: rgb(0,0,0)" />
	<circle cx="57.3715023051891" cy="-652.705040908567" r="2" style="fill: rgb(0,0,0)" />
	<circle cx="36.644935263367" cy="-616.805573725626" r="2" style="fill: rgb(0,0,0)" />
	<circle cx="48.8948118066644" cy="-500.255783773654" r="2" style="fill: rgb(0,0,0)" />
	<circle cx="76.6323725515587" cy="-469.450101679558" r="2" style="fill: rgb(0,0,0)" />
	<circle cx="99.1068830920556" cy="-671.535404674985" r="2" style="fill: rgb(0,0,0)" />
	<circle cx="61.2375607448777" cy="-654.674896072821" r="2" style="fill: rgb(0,0,0)" />
	<circle cx="143.704952439115" cy="-664.471764421893" r="2" style="fill: rgb(0,0,0)" />
	<circle cx="103.157668792271" cy="-673.090355618942" r="2" style="fill: rgb(0,0,0)" />
	<circle cx="236.119378475167" cy="-732.537297865239" r="2" style="fill: rgb(0,0,0)" />
	<circle cx="198.250056127974" cy="-715.676789263074" r="2" style="fill: rgb(0,0,0)" />
	<circle cx="280.71744782221" cy="-725.473657612145" r="2" style="fill: rgb(0,0,0)" />
	<circle cx="240.170164175354" cy="-734.092248809177" r="2" style="fill: rgb(0,0,0)" />
	<circle cx="500.71554083417" cy="-447.191669618958" r="2" style="fill: rgb(0,0,0)" />
	<circle cx="505.048573237555" cy="-488.417719096802" r="2" style="fill: rgb(0,0,0)" />
	<circle cx="561.5" cy="-616.805573725743" r="2" style="fill: rgb(0,0,0)" />
	<circle cx="540.773432958141" cy="-652.705040908679" r="2" style="fill: rgb(0,0,0)" />
	<circle cx="536.907374518476" cy="-654.674896072935" r="2" style="fill: rgb(0,0,0)" />
	<circle cx="499.038052171274" cy="-671.535404675089" r="2" style="fill: rgb(0,0,0)" />
	<circle cx="521.512562711897" cy="-469.450101679645" r="2" style="fill: rgb(0,0,0)" />
	<circle cx="549.250123456764" cy="-500.255783773756" r="2" style="fill: rgb(0,0,0)" />
	<circle cx="450.661428727998" cy="-279.400837029554" r="2" style="fill: rgb(0,0,0)" />
	<circle cx="484.197718671799" cy="-303.766377905229" r="2" style="fill: rgb(0,0,0)" />
	<circle cx="113.947216591617" cy="-303.766377905279" r="2" style="fill: rgb(0,0,0)" />
	<circle cx="147.483506535403" cy="-279.40083702959" r="2" style="fill: rgb(0,0,0)" />
	<circle cx="203.356476562393" cy="-53.500000000003" r="2" style="fill: rgb(0,0,0)" />
	<circle cx="244.80961064607" cy="-53.5000000000089" r="2" style="fill: rgb(0,0,0)" />
	<circle cx="249.142643049473" cy="-53.7270846058277" r="2" style="fill: rgb(0,0,0)" />
	<circle cx="282.67893299327" cy="-78.092625481517" r="2" style="fill: rgb(0,0,0)" />
	<circle cx="353.335324617368" cy="-53.5" r="2" style="fill: rgb(0,0,0)" />
	<circle cx="394.788458701041" cy="-53.500000000007" r="2" style="fill: rgb(0,0,0)" />
	<circle cx="94.773850688656" cy="-712.761454152845" r="2" style="fill: rgb(0,0,0)" />
	<circle cx="54.2265670418254" cy="-721.380045349886" r="2" style="fill: rgb(0,0,0)" />
	<circle cx="33.5" cy="-685.480578166936" r="2" style="fill: rgb(0,0,0)" />
	<!--
	Generated using the Perl SVG Module V2.84
	by Ronan Oger
	Info: http://www.roitsystems.com/
	-->
</svg>