<?xml version="1.0" encoding="UTF-8" standalone="yes"?>
<!DOCTYPE svg PUBLIC "-//W3C//DTD SVG 1.0//EN" "http://www.w3.org/TR/2001/REC-SVG-20010904/DTD/svg10.dtd">
<!-- generated using polymake; Michael Joswig, Georg Loho, Benjamin Lorenz, Rico Raber; license CC BY-NC-ND 3.0; see polymake.org and matchthenet.de -->
<svg height="841pt" id="document" viewBox="0 -785.529495960704 572 785.529495960704" width="595pt" xmlns="http://www.w3.org/2000/svg" xmlns:svg="http://www.w3.org/2000/svg" xmlns:xlink="http://www.w3.org/1999/xlink">
	<title id="document_title">planar_net_</title>
	<polygon points="223.673343270395,-345.38858848359 278.757935701248,-345.38858848359 295.780010890603,-397.777149062418 251.21563948583,-430.155060121819 206.651268081049,-397.777149062421 " style="fill: rgb(61,81,50); fill-opacity: 1; stroke: rgb(0,0,0); stroke-width: 3" />
	<polygon points="278.757935701239,-290.303996052728 278.757935701248,-345.38858848359 223.673343270395,-345.38858848359 223.673343270393,-290.303996052735 " style="fill: rgb(216,176,92); fill-opacity: 1; stroke: rgb(0,0,0); stroke-width: 3" />
	<polygon points="169.792481346752,-278.851265302428 128.856651518229,-241.99247856814 165.715438252511,-201.05664873962 206.65126808104,-237.915435473908 " style="fill: rgb(216,176,92); fill-opacity: 1; stroke: rgb(0,0,0); stroke-width: 3" />
	<polygon points="223.673343270393,-290.303996052735 169.792481346752,-278.851265302428 206.65126808104,-237.915435473908 " style="fill: rgb(186,59,38); fill-opacity: 1; stroke: rgb(0,0,0); stroke-width: 3" />
	<polygon points="278.757935701239,-290.303996052728 223.673343270393,-290.303996052735 206.65126808104,-237.915435473908 251.215639485807,-205.5375244145 295.780010890581,-237.915435473894 " style="fill: rgb(61,81,50); fill-opacity: 1; stroke: rgb(0,0,0); stroke-width: 3" />
	<polygon points="295.780010890603,-397.777149062418 278.757935701248,-345.38858848359 331.146496280075,-328.366513294234 348.168571469435,-380.755073873052 " style="fill: rgb(216,176,92); fill-opacity: 1; stroke: rgb(0,0,0); stroke-width: 3" />
	<polygon points="326.46259210348,-317.846292268144 278.757935701248,-345.38858848359 278.757935701239,-290.303996052728 " style="fill: rgb(186,59,38); fill-opacity: 1; stroke: rgb(0,0,0); stroke-width: 3" />
	<polygon points="116.200190260701,-273.281920863405 83.8222792013095,-317.846292268185 39.2579077965246,-285.468381208793 71.6358188559103,-240.904009804014 " style="fill: rgb(216,176,92); fill-opacity: 1; stroke: rgb(0,0,0); stroke-width: 3" />
	<polygon points="128.856651518229,-241.99247856814 111.834576328863,-189.603917989308 165.715438252511,-201.05664873962 " style="fill: rgb(186,59,38); fill-opacity: 1; stroke: rgb(0,0,0); stroke-width: 3" />
	<polygon points="251.215639485807,-205.5375244145 206.65126808104,-237.915435473908 174.273357021628,-193.351064069137 218.837728426387,-160.973153009729 " style="fill: rgb(216,176,92); fill-opacity: 1; stroke: rgb(0,0,0); stroke-width: 3" />
	<polygon points="331.146496280081,-307.326071242062 278.757935701239,-290.303996052728 295.780010890581,-237.915435473894 348.168571469414,-254.937510663232 " style="fill: rgb(216,176,92); fill-opacity: 1; stroke: rgb(0,0,0); stroke-width: 3" />
	<polygon points="246.380024641875,-664.263024322471 290.94439604666,-696.640935381868 273.922320857313,-749.029495960698 218.837728426456,-749.029495960704 201.815653237099,-696.640935381876 " style="fill: rgb(61,81,50); fill-opacity: 1; stroke: rgb(0,0,0); stroke-width: 3" />
	<polygon points="77.3204250379972,-143.951077820433 94.342500227308,-91.5625172416136 146.731060806155,-108.584592430929 129.708985616837,-160.973153009755 " style="fill: rgb(216,176,92); fill-opacity: 1; stroke: rgb(0,0,0); stroke-width: 3" />
	<polygon points="295.780010890581,-237.915435473894 251.215639485807,-205.5375244145 283.593550545203,-160.973153009717 328.157921949976,-193.351064069101 " style="fill: rgb(216,176,92); fill-opacity: 1; stroke: rgb(0,0,0); stroke-width: 3" />
	<polygon points="251.215639485807,-205.5375244145 218.837728426387,-160.973153009729 273.620561696308,-155.215245213176 " style="fill: rgb(186,59,38); fill-opacity: 1; stroke: rgb(0,0,0); stroke-width: 3" />
	<polygon points="348.168571469414,-254.937510663232 295.780010890581,-237.915435473894 336.715840719091,-201.056648739594 " style="fill: rgb(186,59,38); fill-opacity: 1; stroke: rgb(0,0,0); stroke-width: 3" />
	<polygon points="278.757935701273,-619.698652917681 323.322307106059,-652.076563977088 290.94439604666,-696.640935381868 246.380024641875,-664.263024322471 " style="fill: rgb(216,176,92); fill-opacity: 1; stroke: rgb(0,0,0); stroke-width: 3" />
	<polygon points="146.731060806152,-53.5000000000708 201.815653236995,-53.5000000000515 201.815653237004,-108.584592430914 146.731060806155,-108.584592430929 " style="fill: rgb(216,176,92); fill-opacity: 1; stroke: rgb(0,0,0); stroke-width: 3" />
	<polygon points="135.278330055799,-54.7037305072921 146.731060806155,-108.584592430929 94.342500227308,-91.5625172416136 " style="fill: rgb(186,59,38); fill-opacity: 1; stroke: rgb(0,0,0); stroke-width: 3" />
	<polygon points="372.72229335474,-160.973153009684 328.157921949976,-193.351064069101 283.593550545203,-160.973153009717 300.615625734548,-108.584592430887 355.700218165388,-108.584592430864 " style="fill: rgb(61,81,50); fill-opacity: 1; stroke: rgb(0,0,0); stroke-width: 3" />
	<polygon points="412.451049915606,-482.543620700631 395.428974726247,-430.155060121809 447.817535305072,-413.132984932447 464.839610494435,-465.521545511263 " style="fill: rgb(216,176,92); fill-opacity: 1; stroke: rgb(0,0,0); stroke-width: 3" />
	<polygon points="323.322307106059,-652.076563977088 345.72722931659,-702.398843178392 290.94439604666,-696.640935381868 " style="fill: rgb(186,59,38); fill-opacity: 1; stroke: rgb(0,0,0); stroke-width: 3" />
	<polygon points="472.371257190445,-611.874463743626 516.93562859522,-579.496552684233 561.5,-611.874463743633 544.477924810657,-664.263024322455 489.393332379805,-664.26302432245 " style="fill: rgb(61,81,50); fill-opacity: 1; stroke: rgb(0,0,0); stroke-width: 3" />
	<polygon points="323.322307106059,-652.076563977088 367.886678510839,-619.698652917688 400.26458957024,-664.263024322468 355.700218165466,-696.640935381867 " style="fill: rgb(216,176,92); fill-opacity: 1; stroke: rgb(0,0,0); stroke-width: 3" />
	<polygon points="350.864603321482,-567.310092338852 395.42897472626,-534.932181279455 427.806885785661,-579.496552684234 383.242514380891,-611.874463743633 " style="fill: rgb(216,176,92); fill-opacity: 1; stroke: rgb(0,0,0); stroke-width: 3" />
	<polygon points="484.557717535826,-534.932181279449 539.340550805755,-529.17427348293 516.93562859522,-579.496552684233 " style="fill: rgb(186,59,38); fill-opacity: 1; stroke: rgb(0,0,0); stroke-width: 3" />
	<polygon points="383.242514380891,-611.874463743633 427.806885785661,-579.496552684234 433.56479358218,-634.279385954163 " style="fill: rgb(186,59,38); fill-opacity: 1; stroke: rgb(0,0,0); stroke-width: 3" />
	<polygon points="439.993346131041,-567.31009233884 484.557717535826,-534.932181279449 516.93562859522,-579.496552684233 472.371257190445,-611.874463743626 " style="fill: rgb(216,176,92); fill-opacity: 1; stroke: rgb(0,0,0); stroke-width: 3" />
	<polygon points="395.42897472626,-534.932181279455 412.451049915606,-482.543620700631 467.535642346468,-482.543620700633 484.557717535826,-534.932181279449 439.993346131041,-567.31009233884 " style="fill: rgb(61,81,50); fill-opacity: 1; stroke: rgb(0,0,0); stroke-width: 3" />
	<polygon points="484.557717535826,-534.932181279449 467.535642346468,-482.543620700633 519.924202925293,-465.521545511271 536.946278114653,-517.91010609008 " style="fill: rgb(216,176,92); fill-opacity: 1; stroke: rgb(0,0,0); stroke-width: 3" />
	<polygon points="355.700218165388,-108.584592430864 300.615625734548,-108.584592430887 300.615625734546,-53.500000000029 355.700218165379,-53.5 " style="fill: rgb(216,176,92); fill-opacity: 1; stroke: rgb(0,0,0); stroke-width: 3" />
	<polygon points="464.839610494435,-465.521545511263 447.817535305072,-413.132984932447 501.69839722872,-424.585715682753 " style="fill: rgb(186,59,38); fill-opacity: 1; stroke: rgb(0,0,0); stroke-width: 3" />
	<polygon points="267.862653899745,-100.432411943249 213.079820629831,-106.190319739807 235.484742840319,-55.868040538485 " style="fill: rgb(186,59,38); fill-opacity: 1; stroke: rgb(0,0,0); stroke-width: 3" />
	<polygon points="295.780010890624,-567.310092338855 350.864603321482,-567.310092338852 367.886678510839,-619.698652917688 323.322307106059,-652.076563977088 278.757935701273,-619.698652917681 " style="fill: rgb(61,81,50); fill-opacity: 1; stroke: rgb(0,0,0); stroke-width: 3" />
	<polygon points="489.393332379805,-664.26302432245 544.477924810657,-664.263024322455 544.477924810662,-719.347616753314 489.393332379816,-719.347616753315 " style="fill: rgb(216,176,92); fill-opacity: 1; stroke: rgb(0,0,0); stroke-width: 3" />
	<polygon points="420.275239089636,-328.366513294204 375.710867684854,-295.988602234826 408.088778744236,-251.424230830034 452.653150149017,-283.802141889403 " style="fill: rgb(216,176,92); fill-opacity: 1; stroke: rgb(0,0,0); stroke-width: 3" />
	<polygon points="267.862653899745,-100.432411943249 273.620561696308,-155.215245213176 218.837728426387,-160.973153009729 213.079820629831,-106.190319739807 " style="fill: rgb(216,176,92); fill-opacity: 1; stroke: rgb(0,0,0); stroke-width: 3" />
	<polygon points="218.837728426449,-579.496552684255 263.402099831234,-611.874463743641 213.079820629929,-634.279385954172 " style="fill: rgb(186,59,38); fill-opacity: 1; stroke: rgb(0,0,0); stroke-width: 3" />
	<polygon points="251.215639485838,-534.932181279461 295.780010890624,-567.310092338855 263.402099831234,-611.874463743641 218.837728426449,-579.496552684255 " style="fill: rgb(216,176,92); fill-opacity: 1; stroke: rgb(0,0,0); stroke-width: 3" />
	<polygon points="348.168571469435,-380.755073873052 331.146496280075,-328.366513294234 375.710867684854,-295.988602234826 420.275239089636,-328.366513294204 403.253163900286,-380.755073873031 " style="fill: rgb(61,81,50); fill-opacity: 1; stroke: rgb(0,0,0); stroke-width: 3" />
	<polygon points="218.837728426387,-160.973153009729 174.273357021628,-193.351064069137 129.708985616837,-160.973153009755 146.731060806155,-108.584592430929 201.815653237004,-108.584592430914 " style="fill: rgb(61,81,50); fill-opacity: 1; stroke: rgb(0,0,0); stroke-width: 3" />
	<polygon points="162.086896676281,-534.932181279487 206.651268081066,-567.310092338874 174.273357021678,-611.874463743662 129.708985616895,-579.496552684281 " style="fill: rgb(216,176,92); fill-opacity: 1; stroke: rgb(0,0,0); stroke-width: 3" />
	<polygon points="33.5,-340.251214478715 39.2579077965246,-285.468381208793 83.8222792013095,-317.846292268185 " style="fill: rgb(186,59,38); fill-opacity: 1; stroke: rgb(0,0,0); stroke-width: 3" />
	<polygon points="251.21563948583,-430.155060121819 295.780010890603,-397.777149062418 350.864603321461,-397.777149062416 395.428974726247,-430.155060121809 412.451049915606,-482.543620700631 395.42897472626,-534.932181279455 350.864603321482,-567.310092338852 295.780010890624,-567.310092338855 251.215639485838,-534.932181279461 234.193564296479,-482.543620700639 " style="fill: rgb(91,98,49); fill-opacity: 1; stroke: rgb(0,0,0); stroke-width: 3" />
	<polygon points="234.193564296479,-482.543620700639 251.215639485838,-534.932181279461 206.651268081066,-567.310092338874 162.086896676281,-534.932181279487 179.108971865624,-482.54362070065 " style="fill: rgb(61,81,50); fill-opacity: 1; stroke: rgb(0,0,0); stroke-width: 3" />
	<polygon points="179.108971865624,-482.54362070065 162.086896676281,-534.932181279487 125.228109941982,-493.996351450966 " style="fill: rgb(186,59,38); fill-opacity: 1; stroke: rgb(0,0,0); stroke-width: 3" />
	<polygon points="71.6358188559436,-394.788574732364 39.2579077965377,-350.224203327605 83.8222792013095,-317.846292268185 116.200190260715,-362.410663672953 " style="fill: rgb(216,176,92); fill-opacity: 1; stroke: rgb(0,0,0); stroke-width: 3" />
	<polygon points="206.651268081049,-397.777149062421 251.21563948583,-430.155060121819 218.837728426434,-474.7194315266 174.273357021654,-442.34152046721 " style="fill: rgb(216,176,92); fill-opacity: 1; stroke: rgb(0,0,0); stroke-width: 3" />
	<polygon points="223.673343270395,-345.38858848359 206.651268081049,-397.777149062421 169.792481346748,-356.841319233912 " style="fill: rgb(186,59,38); fill-opacity: 1; stroke: rgb(0,0,0); stroke-width: 3" />
	<polygon points="206.651268081049,-397.777149062421 174.273357021654,-442.34152046721 129.708985616869,-409.96360940782 162.086896676256,-365.399238003032 " style="fill: rgb(216,176,92); fill-opacity: 1; stroke: rgb(0,0,0); stroke-width: 3" />
	<polygon points="168.58875083954,-345.388588483594 116.200190260715,-362.410663672953 83.8222792013095,-317.846292268185 116.200190260701,-273.281920863405 168.588750839533,-290.303996052743 " style="fill: rgb(61,81,50); fill-opacity: 1; stroke: rgb(0,0,0); stroke-width: 3" />
	<polygon points="223.673343270395,-345.38858848359 168.58875083954,-345.388588483594 168.588750839533,-290.303996052743 223.673343270393,-290.303996052735 " style="fill: rgb(216,176,92); fill-opacity: 1; stroke: rgb(0,0,0); stroke-width: 3" />
	<circle cx="223.673343270395" cy="-345.38858848359" r="2" style="fill: rgb(0,0,0)" />
	<circle cx="278.757935701248" cy="-345.38858848359" r="2" style="fill: rgb(0,0,0)" />
	<circle cx="295.780010890603" cy="-397.777149062418" r="2" style="fill: rgb(0,0,0)" />
	<circle cx="251.21563948583" cy="-430.155060121819" r="2" style="fill: rgb(0,0,0)" />
	<circle cx="206.651268081049" cy="-397.777149062421" r="2" style="fill: rgb(0,0,0)" />
	<circle cx="223.673343270393" cy="-290.303996052735" r="2" style="fill: rgb(0,0,0)" />
	<circle cx="278.757935701239" cy="-290.303996052728" r="2" style="fill: rgb(0,0,0)" />
	<circle cx="331.146496280075" cy="-328.366513294234" r="2" style="fill: rgb(0,0,0)" />
	<circle cx="348.168571469435" cy="-380.755073873052" r="2" style="fill: rgb(0,0,0)" />
	<circle cx="350.864603321461" cy="-397.777149062416" r="2" style="fill: rgb(0,0,0)" />
	<circle cx="395.428974726247" cy="-430.155060121809" r="2" style="fill: rgb(0,0,0)" />
	<circle cx="412.451049915606" cy="-482.543620700631" r="2" style="fill: rgb(0,0,0)" />
	<circle cx="395.42897472626" cy="-534.932181279455" r="2" style="fill: rgb(0,0,0)" />
	<circle cx="350.864603321482" cy="-567.310092338852" r="2" style="fill: rgb(0,0,0)" />
	<circle cx="295.780010890624" cy="-567.310092338855" r="2" style="fill: rgb(0,0,0)" />
	<circle cx="251.215639485838" cy="-534.932181279461" r="2" style="fill: rgb(0,0,0)" />
	<circle cx="234.193564296479" cy="-482.543620700639" r="2" style="fill: rgb(0,0,0)" />
	<circle cx="218.837728426434" cy="-474.7194315266" r="2" style="fill: rgb(0,0,0)" />
	<circle cx="174.273357021654" cy="-442.34152046721" r="2" style="fill: rgb(0,0,0)" />
	<circle cx="169.792481346748" cy="-356.841319233912" r="2" style="fill: rgb(0,0,0)" />
	<circle cx="206.65126808104" cy="-237.915435473908" r="2" style="fill: rgb(0,0,0)" />
	<circle cx="251.215639485807" cy="-205.5375244145" r="2" style="fill: rgb(0,0,0)" />
	<circle cx="295.780010890581" cy="-237.915435473894" r="2" style="fill: rgb(0,0,0)" />
	<circle cx="326.46259210348" cy="-317.846292268144" r="2" style="fill: rgb(0,0,0)" />
	<circle cx="168.58875083954" cy="-345.388588483594" r="2" style="fill: rgb(0,0,0)" />
	<circle cx="168.588750839533" cy="-290.303996052743" r="2" style="fill: rgb(0,0,0)" />
	<circle cx="375.710867684854" cy="-295.988602234826" r="2" style="fill: rgb(0,0,0)" />
	<circle cx="420.275239089636" cy="-328.366513294204" r="2" style="fill: rgb(0,0,0)" />
	<circle cx="403.253163900286" cy="-380.755073873031" r="2" style="fill: rgb(0,0,0)" />
	<circle cx="447.817535305072" cy="-413.132984932447" r="2" style="fill: rgb(0,0,0)" />
	<circle cx="464.839610494435" cy="-465.521545511263" r="2" style="fill: rgb(0,0,0)" />
	<circle cx="427.806885785661" cy="-579.496552684234" r="2" style="fill: rgb(0,0,0)" />
	<circle cx="383.242514380891" cy="-611.874463743633" r="2" style="fill: rgb(0,0,0)" />
	<circle cx="467.535642346468" cy="-482.543620700633" r="2" style="fill: rgb(0,0,0)" />
	<circle cx="484.557717535826" cy="-534.932181279449" r="2" style="fill: rgb(0,0,0)" />
	<circle cx="439.993346131041" cy="-567.31009233884" r="2" style="fill: rgb(0,0,0)" />
	<circle cx="367.886678510839" cy="-619.698652917688" r="2" style="fill: rgb(0,0,0)" />
	<circle cx="323.322307106059" cy="-652.076563977088" r="2" style="fill: rgb(0,0,0)" />
	<circle cx="278.757935701273" cy="-619.698652917681" r="2" style="fill: rgb(0,0,0)" />
	<circle cx="263.402099831234" cy="-611.874463743641" r="2" style="fill: rgb(0,0,0)" />
	<circle cx="218.837728426449" cy="-579.496552684255" r="2" style="fill: rgb(0,0,0)" />
	<circle cx="206.651268081066" cy="-567.310092338874" r="2" style="fill: rgb(0,0,0)" />
	<circle cx="162.086896676281" cy="-534.932181279487" r="2" style="fill: rgb(0,0,0)" />
	<circle cx="179.108971865624" cy="-482.54362070065" r="2" style="fill: rgb(0,0,0)" />
	<circle cx="129.708985616869" cy="-409.96360940782" r="2" style="fill: rgb(0,0,0)" />
	<circle cx="162.086896676256" cy="-365.399238003032" r="2" style="fill: rgb(0,0,0)" />
	<circle cx="169.792481346752" cy="-278.851265302428" r="2" style="fill: rgb(0,0,0)" />
	<circle cx="174.273357021628" cy="-193.351064069137" r="2" style="fill: rgb(0,0,0)" />
	<circle cx="218.837728426387" cy="-160.973153009729" r="2" style="fill: rgb(0,0,0)" />
	<circle cx="348.168571469414" cy="-254.937510663232" r="2" style="fill: rgb(0,0,0)" />
	<circle cx="331.146496280081" cy="-307.326071242062" r="2" style="fill: rgb(0,0,0)" />
	<circle cx="283.593550545203" cy="-160.973153009717" r="2" style="fill: rgb(0,0,0)" />
	<circle cx="328.157921949976" cy="-193.351064069101" r="2" style="fill: rgb(0,0,0)" />
	<circle cx="116.200190260715" cy="-362.410663672953" r="2" style="fill: rgb(0,0,0)" />
	<circle cx="83.8222792013095" cy="-317.846292268185" r="2" style="fill: rgb(0,0,0)" />
	<circle cx="116.200190260701" cy="-273.281920863405" r="2" style="fill: rgb(0,0,0)" />
	<circle cx="408.088778744236" cy="-251.424230830034" r="2" style="fill: rgb(0,0,0)" />
	<circle cx="452.653150149017" cy="-283.802141889403" r="2" style="fill: rgb(0,0,0)" />
	<circle cx="501.69839722872" cy="-424.585715682753" r="2" style="fill: rgb(0,0,0)" />
	<circle cx="433.56479358218" cy="-634.279385954163" r="2" style="fill: rgb(0,0,0)" />
	<circle cx="516.93562859522" cy="-579.496552684233" r="2" style="fill: rgb(0,0,0)" />
	<circle cx="472.371257190445" cy="-611.874463743626" r="2" style="fill: rgb(0,0,0)" />
	<circle cx="519.924202925293" cy="-465.521545511271" r="2" style="fill: rgb(0,0,0)" />
	<circle cx="536.946278114653" cy="-517.91010609008" r="2" style="fill: rgb(0,0,0)" />
	<circle cx="290.94439604666" cy="-696.640935381868" r="2" style="fill: rgb(0,0,0)" />
	<circle cx="246.380024641875" cy="-664.263024322471" r="2" style="fill: rgb(0,0,0)" />
	<circle cx="400.26458957024" cy="-664.263024322468" r="2" style="fill: rgb(0,0,0)" />
	<circle cx="355.700218165466" cy="-696.640935381867" r="2" style="fill: rgb(0,0,0)" />
	<circle cx="213.079820629929" cy="-634.279385954172" r="2" style="fill: rgb(0,0,0)" />
	<circle cx="174.273357021678" cy="-611.874463743662" r="2" style="fill: rgb(0,0,0)" />
	<circle cx="129.708985616895" cy="-579.496552684281" r="2" style="fill: rgb(0,0,0)" />
	<circle cx="125.228109941982" cy="-493.996351450966" r="2" style="fill: rgb(0,0,0)" />
	<circle cx="128.856651518229" cy="-241.99247856814" r="2" style="fill: rgb(0,0,0)" />
	<circle cx="165.715438252511" cy="-201.05664873962" r="2" style="fill: rgb(0,0,0)" />
	<circle cx="273.620561696308" cy="-155.215245213176" r="2" style="fill: rgb(0,0,0)" />
	<circle cx="129.708985616837" cy="-160.973153009755" r="2" style="fill: rgb(0,0,0)" />
	<circle cx="146.731060806155" cy="-108.584592430929" r="2" style="fill: rgb(0,0,0)" />
	<circle cx="201.815653237004" cy="-108.584592430914" r="2" style="fill: rgb(0,0,0)" />
	<circle cx="336.715840719091" cy="-201.056648739594" r="2" style="fill: rgb(0,0,0)" />
	<circle cx="300.615625734548" cy="-108.584592430887" r="2" style="fill: rgb(0,0,0)" />
	<circle cx="355.700218165388" cy="-108.584592430864" r="2" style="fill: rgb(0,0,0)" />
	<circle cx="372.72229335474" cy="-160.973153009684" r="2" style="fill: rgb(0,0,0)" />
	<circle cx="39.2579077965246" cy="-285.468381208793" r="2" style="fill: rgb(0,0,0)" />
	<circle cx="71.6358188559103" cy="-240.904009804014" r="2" style="fill: rgb(0,0,0)" />
	<circle cx="71.6358188559436" cy="-394.788574732364" r="2" style="fill: rgb(0,0,0)" />
	<circle cx="39.2579077965377" cy="-350.224203327605" r="2" style="fill: rgb(0,0,0)" />
	<circle cx="561.5" cy="-611.874463743633" r="2" style="fill: rgb(0,0,0)" />
	<circle cx="544.477924810657" cy="-664.263024322455" r="2" style="fill: rgb(0,0,0)" />
	<circle cx="489.393332379805" cy="-664.26302432245" r="2" style="fill: rgb(0,0,0)" />
	<circle cx="539.340550805755" cy="-529.17427348293" r="2" style="fill: rgb(0,0,0)" />
	<circle cx="273.922320857313" cy="-749.029495960698" r="2" style="fill: rgb(0,0,0)" />
	<circle cx="218.837728426456" cy="-749.029495960704" r="2" style="fill: rgb(0,0,0)" />
	<circle cx="201.815653237099" cy="-696.640935381876" r="2" style="fill: rgb(0,0,0)" />
	<circle cx="345.72722931659" cy="-702.398843178392" r="2" style="fill: rgb(0,0,0)" />
	<circle cx="111.834576328863" cy="-189.603917989308" r="2" style="fill: rgb(0,0,0)" />
	<circle cx="213.079820629831" cy="-106.190319739807" r="2" style="fill: rgb(0,0,0)" />
	<circle cx="267.862653899745" cy="-100.432411943249" r="2" style="fill: rgb(0,0,0)" />
	<circle cx="77.3204250379972" cy="-143.951077820433" r="2" style="fill: rgb(0,0,0)" />
	<circle cx="94.342500227308" cy="-91.5625172416136" r="2" style="fill: rgb(0,0,0)" />
	<circle cx="146.731060806152" cy="-53.5000000000708" r="2" style="fill: rgb(0,0,0)" />
	<circle cx="201.815653236995" cy="-53.5000000000515" r="2" style="fill: rgb(0,0,0)" />
	<circle cx="300.615625734546" cy="-53.500000000029" r="2" style="fill: rgb(0,0,0)" />
	<circle cx="355.700218165379" cy="-53.5" r="2" style="fill: rgb(0,0,0)" />
	<circle cx="33.5" cy="-340.251214478715" r="2" style="fill: rgb(0,0,0)" />
	<circle cx="544.477924810662" cy="-719.347616753314" r="2" style="fill: rgb(0,0,0)" />
	<circle cx="489.393332379816" cy="-719.347616753315" r="2" style="fill: rgb(0,0,0)" />
	<circle cx="235.484742840319" cy="-55.868040538485" r="2" style="fill: rgb(0,0,0)" />
	<circle cx="135.278330055799" cy="-54.7037305072921" r="2" style="fill: rgb(0,0,0)" />
	<!--
	Generated using the Perl SVG Module V2.86
	by Ronan Oger
	Info: http://www.roitsystems.com/
	-->
</svg>