<?xml version="1.0" encoding="UTF-8" standalone="yes"?>
<!DOCTYPE svg PUBLIC "-//W3C//DTD SVG 1.0//EN" "http://www.w3.org/TR/2001/REC-SVG-20010904/DTD/svg10.dtd">
<!-- generated using polymake; Michael Joswig, Georg Loho, Benjamin Lorenz, Rico Raber; license CC BY-NC-ND 3.0; see polymake.org and matchthenet.de -->
<svg height="841pt" id="document" viewBox="0 -615.39839681519 572 615.39839681519" width="595pt" xmlns="http://www.w3.org/2000/svg" xmlns:svg="http://www.w3.org/2000/svg" xmlns:xlink="http://www.w3.org/1999/xlink">
	<title id="document_title">planar_net_</title>
	<polygon points="245.447397010206,-316.199198407593 300.453850905509,-316.199198407593 295.144692198174,-437.190347432276 " style="fill: rgb(42,107,61); fill-opacity: 1; stroke: rgb(0,0,0); stroke-width: 3" />
	<polygon points="295.144692198173,-195.208049382911 300.453850905509,-316.199198407593 245.447397010206,-316.199198407593 " style="fill: rgb(42,107,61); fill-opacity: 1; stroke: rgb(0,0,0); stroke-width: 3" />
	<polygon points="295.144692198174,-437.190347432276 300.453850905509,-316.199198407593 355.2488817058,-321.017348439635 " style="fill: rgb(42,107,61); fill-opacity: 1; stroke: rgb(0,0,0); stroke-width: 3" />
	<polygon points="245.447397010206,-316.199198407593 295.144692198174,-437.190347432276 204.743372940144,-354.962903638679 " style="fill: rgb(42,107,61); fill-opacity: 1; stroke: rgb(0,0,0); stroke-width: 3" />
	<polygon points="355.248881705799,-311.381048375552 300.453850905509,-316.199198407593 295.144692198173,-195.208049382911 " style="fill: rgb(42,107,61); fill-opacity: 1; stroke: rgb(0,0,0); stroke-width: 3" />
	<polygon points="245.447397010206,-316.199198407593 204.743372940144,-277.435493176506 295.144692198173,-195.208049382911 " style="fill: rgb(42,107,61); fill-opacity: 1; stroke: rgb(0,0,0); stroke-width: 3" />
	<polygon points="295.144692198174,-437.190347432276 355.2488817058,-321.017348439635 392.401047684422,-363.197426460377 " style="fill: rgb(42,107,61); fill-opacity: 1; stroke: rgb(0,0,0); stroke-width: 3" />
	<polygon points="245.447397010206,-316.199198407593 204.743372940144,-354.962903638679 180.468530569157,-326.464725412272 194.775987440048,-291.87121717377 " style="fill: rgb(42,107,61); fill-opacity: 1; stroke: rgb(0,0,0); stroke-width: 3" />
	<polygon points="355.248881705799,-311.381048375552 295.144692198173,-195.208049382911 392.40104768442,-269.200970354812 " style="fill: rgb(42,107,61); fill-opacity: 1; stroke: rgb(0,0,0); stroke-width: 3" />
	<polygon points="204.743372940144,-354.962903638679 295.144692198174,-437.190347432276 166.482002114454,-400.158975284124 " style="fill: rgb(42,107,61); fill-opacity: 1; stroke: rgb(0,0,0); stroke-width: 3" />
	<polygon points="392.401047684422,-363.197426460377 355.2488817058,-321.017348439635 407.856477846423,-301.221307243354 419.078812379416,-336.935076884618 " style="fill: rgb(42,107,61); fill-opacity: 1; stroke: rgb(0,0,0); stroke-width: 3" />
	<polygon points="204.743372940144,-354.962903638679 158.624522753242,-392.106800137018 142.434193959458,-334.115688361598 180.468530569157,-326.464725412272 " style="fill: rgb(42,107,61); fill-opacity: 1; stroke: rgb(0,0,0); stroke-width: 3" />
	<polygon points="204.743372940144,-277.435493176506 166.482002114457,-232.239421531058 295.144692198173,-195.208049382911 " style="fill: rgb(42,107,61); fill-opacity: 1; stroke: rgb(0,0,0); stroke-width: 3" />
	<polygon points="295.144692198174,-437.190347432276 392.401047684422,-363.197426460377 426.556522283535,-411.571189437332 " style="fill: rgb(42,107,61); fill-opacity: 1; stroke: rgb(0,0,0); stroke-width: 3" />
	<polygon points="166.482002114454,-400.158975284124 295.144692198174,-437.190347432276 172.748139832645,-460.960078477981 " style="fill: rgb(42,107,61); fill-opacity: 1; stroke: rgb(0,0,0); stroke-width: 3" />
	<polygon points="194.775987440048,-291.87121717377 180.468530569157,-326.464725412272 141.927950674008,-330.911263024546 139.452801927719,-270.753392134009 " style="fill: rgb(42,107,61); fill-opacity: 1; stroke: rgb(0,0,0); stroke-width: 3" />
	<polygon points="392.401047684422,-363.197426460377 419.078812379416,-336.935076884618 456.296793427873,-347.888153259269 435.089110340336,-404.23821953661 " style="fill: rgb(42,107,61); fill-opacity: 1; stroke: rgb(0,0,0); stroke-width: 3" />
	<polygon points="392.40104768442,-269.200970354812 295.144692198173,-195.208049382911 426.556522283534,-220.82720737786 " style="fill: rgb(42,107,61); fill-opacity: 1; stroke: rgb(0,0,0); stroke-width: 3" />
	<polygon points="142.434193959458,-334.115688361598 158.624522753242,-392.106800137018 97.0711992554675,-386.355126493658 104.409506290336,-345.989769968077 " style="fill: rgb(42,107,61); fill-opacity: 1; stroke: rgb(0,0,0); stroke-width: 3" />
	<polygon points="295.144692198173,-195.208049382911 166.482002114457,-232.239421531058 172.748139832656,-171.438318337201 " style="fill: rgb(42,107,61); fill-opacity: 1; stroke: rgb(0,0,0); stroke-width: 3" />
	<polygon points="295.144692198174,-437.190347432276 426.556522283535,-411.571189437332 414.988751567388,-471.589730840403 " style="fill: rgb(42,107,61); fill-opacity: 1; stroke: rgb(0,0,0); stroke-width: 3" />
	<polygon points="419.078812379416,-336.935076884618 407.856477846423,-301.221307243354 464.816784894637,-285.030544116975 457.081774378306,-344.740387557658 " style="fill: rgb(42,107,61); fill-opacity: 1; stroke: rgb(0,0,0); stroke-width: 3" />
	<polygon points="172.748139832645,-460.960078477981 295.144692198174,-437.190347432276 188.401951661608,-522.135660063996 " style="fill: rgb(42,107,61); fill-opacity: 1; stroke: rgb(0,0,0); stroke-width: 3" />
	<polygon points="166.482002114454,-400.158975284124 172.748139832645,-460.960078477981 131.899938255723,-463.342004345255 111.092956965179,-427.617071736243 " style="fill: rgb(42,107,61); fill-opacity: 1; stroke: rgb(0,0,0); stroke-width: 3" />
	<polygon points="139.452801927719,-270.753392134009 141.927950674008,-330.911263024546 102.094684286974,-331.337379523544 82.6702898664456,-295.200062813935 " style="fill: rgb(42,107,61); fill-opacity: 1; stroke: rgb(0,0,0); stroke-width: 3" />
	<polygon points="435.089110340336,-404.23821953661 456.296793427873,-347.888153259269 493.13524931498,-363.04727111569 496.90965034356,-403.900259432967 " style="fill: rgb(42,107,61); fill-opacity: 1; stroke: rgb(0,0,0); stroke-width: 3" />
	<polygon points="426.556522283534,-220.82720737786 295.144692198173,-195.208049382911 414.988751567396,-160.80866597479 " style="fill: rgb(42,107,61); fill-opacity: 1; stroke: rgb(0,0,0); stroke-width: 3" />
	<polygon points="295.144692198174,-437.190347432276 414.988751567388,-471.589730840403 394.036587774352,-531.159021918557 " style="fill: rgb(42,107,61); fill-opacity: 1; stroke: rgb(0,0,0); stroke-width: 3" />
	<polygon points="295.144692198173,-195.208049382911 172.748139832656,-171.438318337201 188.401951661615,-110.262736751182 " style="fill: rgb(42,107,61); fill-opacity: 1; stroke: rgb(0,0,0); stroke-width: 3" />
	<polygon points="166.482002114457,-232.239421531058 111.092956965186,-204.781325078947 131.899938255729,-169.056392469932 172.748139832656,-171.438318337201 " style="fill: rgb(42,107,61); fill-opacity: 1; stroke: rgb(0,0,0); stroke-width: 3" />
	<polygon points="414.988751567388,-471.589730840403 426.556522283535,-411.571189437332 479.32755188267,-443.775409942859 455.471310061141,-477.540495556498 " style="fill: rgb(42,107,61); fill-opacity: 1; stroke: rgb(0,0,0); stroke-width: 3" />
	<polygon points="457.081774378306,-344.740387557658 464.816784894637,-285.030544116975 519.239703628754,-314.356970762258 496.724612825613,-348.653959605318 " style="fill: rgb(42,107,61); fill-opacity: 1; stroke: rgb(0,0,0); stroke-width: 3" />
	<polygon points="172.748139832645,-460.960078477981 188.401951661608,-522.135660063996 124.348146067265,-513.628860529809 133.421811906272,-472.260037536928 " style="fill: rgb(42,107,61); fill-opacity: 1; stroke: rgb(0,0,0); stroke-width: 3" />
	<polygon points="414.988751567396,-160.80866597479 295.144692198173,-195.208049382911 394.036587774354,-101.239374896639 " style="fill: rgb(42,107,61); fill-opacity: 1; stroke: rgb(0,0,0); stroke-width: 3" />
	<polygon points="104.409506290336,-345.989769968077 97.0711992554675,-386.355126493658 33.5,-371.930447149581 72.7559359878513,-319.888730818611 " style="fill: rgb(42,107,61); fill-opacity: 1; stroke: rgb(0,0,0); stroke-width: 3" />
	<polygon points="426.556522283534,-220.82720737786 414.988751567396,-160.80866597479 455.471310061144,-154.85790125869 479.327551882673,-188.622986872325 " style="fill: rgb(42,107,61); fill-opacity: 1; stroke: rgb(0,0,0); stroke-width: 3" />
	<polygon points="414.988751567388,-471.589730840403 453.174133520641,-486.290946708165 458.589327233344,-528.295548892066 394.036587774352,-531.159021918557 " style="fill: rgb(42,107,61); fill-opacity: 1; stroke: rgb(0,0,0); stroke-width: 3" />
	<polygon points="172.748139832656,-171.438318337201 133.421811906284,-160.138359278264 124.348146067265,-118.76953628539 188.401951661615,-110.262736751182 " style="fill: rgb(42,107,61); fill-opacity: 1; stroke: rgb(0,0,0); stroke-width: 3" />
	<polygon points="111.092956965179,-427.617071736243 131.899938255723,-463.342004345255 110.189007910148,-499.706085952032 55.896127210818,-462.296730529631 " style="fill: rgb(42,107,61); fill-opacity: 1; stroke: rgb(0,0,0); stroke-width: 3" />
	<polygon points="493.13524931498,-363.04727111569 526.953409740627,-339.819167813847 561.5,-395.099379919161 496.90965034356,-403.900259432967 " style="fill: rgb(42,107,61); fill-opacity: 1; stroke: rgb(0,0,0); stroke-width: 3" />
	<polygon points="124.348146067265,-513.628860529809 188.401951661608,-522.135660063996 157.527247356179,-578.89839681519 121.066416629391,-556.364990687849 " style="fill: rgb(42,107,61); fill-opacity: 1; stroke: rgb(0,0,0); stroke-width: 3" />
	<polygon points="414.988751567396,-160.80866597479 394.036587774354,-101.239374896639 458.589327233338,-104.102847923108 453.174133520647,-146.107450107016 " style="fill: rgb(42,107,61); fill-opacity: 1; stroke: rgb(0,0,0); stroke-width: 3" />
	<polygon points="111.092956965186,-204.781325078947 55.8961272108151,-170.101666285572 110.189007910138,-132.692310863158 131.899938255729,-169.056392469932 " style="fill: rgb(42,107,61); fill-opacity: 1; stroke: rgb(0,0,0); stroke-width: 3" />
	<polygon points="455.471310061141,-477.540495556498 479.32755188267,-443.775409942859 531.274550552709,-483.156599337459 473.913573181057,-515.666521557 " style="fill: rgb(42,107,61); fill-opacity: 1; stroke: rgb(0,0,0); stroke-width: 3" />
	<polygon points="188.401951661615,-110.262736751182 124.348146067265,-118.76953628539 121.066416629365,-76.0334061273559 157.527247356147,-53.5 " style="fill: rgb(42,107,61); fill-opacity: 1; stroke: rgb(0,0,0); stroke-width: 3" />
	<polygon points="55.896127210818,-462.296730529631 110.189007910148,-499.706085952032 84.3754522868323,-533.923141860892 41.4444646926325,-527.251490364839 " style="fill: rgb(42,107,61); fill-opacity: 1; stroke: rgb(0,0,0); stroke-width: 3" />
	<polygon points="479.327551882673,-188.622986872325 455.471310061144,-154.85790125869 473.913573181048,-116.731875258187 531.274550552698,-149.241797477717 " style="fill: rgb(42,107,61); fill-opacity: 1; stroke: rgb(0,0,0); stroke-width: 3" />
	<polygon points="55.8961272108151,-170.101666285572 41.4444646926125,-105.146906450366 84.3754522868112,-98.4752549543036 110.189007910138,-132.692310863158 " style="fill: rgb(42,107,61); fill-opacity: 1; stroke: rgb(0,0,0); stroke-width: 3" />
	<polygon points="473.913573181057,-515.666521557 531.274550552709,-483.156599337459 539.981120067817,-549.127555235246 496.630755946556,-552.013133176066 " style="fill: rgb(42,107,61); fill-opacity: 1; stroke: rgb(0,0,0); stroke-width: 3" />
	<polygon points="531.274550552698,-149.241797477717 473.913573181048,-116.731875258187 496.63075594654,-80.3852636391179 539.981120067794,-83.2708415799298 " style="fill: rgb(42,107,61); fill-opacity: 1; stroke: rgb(0,0,0); stroke-width: 3" />
	<circle cx="245.447397010206" cy="-316.199198407593" r="2" style="fill: rgb(0,0,0)" />
	<circle cx="300.453850905509" cy="-316.199198407593" r="2" style="fill: rgb(0,0,0)" />
	<circle cx="295.144692198174" cy="-437.190347432276" r="2" style="fill: rgb(0,0,0)" />
	<circle cx="295.144692198173" cy="-195.208049382911" r="2" style="fill: rgb(0,0,0)" />
	<circle cx="355.2488817058" cy="-321.017348439635" r="2" style="fill: rgb(0,0,0)" />
	<circle cx="204.743372940144" cy="-354.962903638679" r="2" style="fill: rgb(0,0,0)" />
	<circle cx="355.248881705799" cy="-311.381048375552" r="2" style="fill: rgb(0,0,0)" />
	<circle cx="204.743372940144" cy="-277.435493176506" r="2" style="fill: rgb(0,0,0)" />
	<circle cx="392.401047684422" cy="-363.197426460377" r="2" style="fill: rgb(0,0,0)" />
	<circle cx="180.468530569157" cy="-326.464725412272" r="2" style="fill: rgb(0,0,0)" />
	<circle cx="194.775987440048" cy="-291.87121717377" r="2" style="fill: rgb(0,0,0)" />
	<circle cx="166.482002114454" cy="-400.158975284124" r="2" style="fill: rgb(0,0,0)" />
	<circle cx="392.40104768442" cy="-269.200970354812" r="2" style="fill: rgb(0,0,0)" />
	<circle cx="166.482002114457" cy="-232.239421531058" r="2" style="fill: rgb(0,0,0)" />
	<circle cx="407.856477846423" cy="-301.221307243354" r="2" style="fill: rgb(0,0,0)" />
	<circle cx="419.078812379416" cy="-336.935076884618" r="2" style="fill: rgb(0,0,0)" />
	<circle cx="426.556522283535" cy="-411.571189437332" r="2" style="fill: rgb(0,0,0)" />
	<circle cx="158.624522753242" cy="-392.106800137018" r="2" style="fill: rgb(0,0,0)" />
	<circle cx="142.434193959458" cy="-334.115688361598" r="2" style="fill: rgb(0,0,0)" />
	<circle cx="141.927950674008" cy="-330.911263024546" r="2" style="fill: rgb(0,0,0)" />
	<circle cx="139.452801927719" cy="-270.753392134009" r="2" style="fill: rgb(0,0,0)" />
	<circle cx="172.748139832645" cy="-460.960078477981" r="2" style="fill: rgb(0,0,0)" />
	<circle cx="426.556522283534" cy="-220.82720737786" r="2" style="fill: rgb(0,0,0)" />
	<circle cx="172.748139832656" cy="-171.438318337201" r="2" style="fill: rgb(0,0,0)" />
	<circle cx="456.296793427873" cy="-347.888153259269" r="2" style="fill: rgb(0,0,0)" />
	<circle cx="435.089110340336" cy="-404.23821953661" r="2" style="fill: rgb(0,0,0)" />
	<circle cx="464.816784894637" cy="-285.030544116975" r="2" style="fill: rgb(0,0,0)" />
	<circle cx="457.081774378306" cy="-344.740387557658" r="2" style="fill: rgb(0,0,0)" />
	<circle cx="414.988751567388" cy="-471.589730840403" r="2" style="fill: rgb(0,0,0)" />
	<circle cx="97.0711992554675" cy="-386.355126493658" r="2" style="fill: rgb(0,0,0)" />
	<circle cx="104.409506290336" cy="-345.989769968077" r="2" style="fill: rgb(0,0,0)" />
	<circle cx="102.094684286974" cy="-331.337379523544" r="2" style="fill: rgb(0,0,0)" />
	<circle cx="82.6702898664456" cy="-295.200062813935" r="2" style="fill: rgb(0,0,0)" />
	<circle cx="188.401951661608" cy="-522.135660063996" r="2" style="fill: rgb(0,0,0)" />
	<circle cx="131.899938255723" cy="-463.342004345255" r="2" style="fill: rgb(0,0,0)" />
	<circle cx="111.092956965179" cy="-427.617071736243" r="2" style="fill: rgb(0,0,0)" />
	<circle cx="414.988751567396" cy="-160.80866597479" r="2" style="fill: rgb(0,0,0)" />
	<circle cx="188.401951661615" cy="-110.262736751182" r="2" style="fill: rgb(0,0,0)" />
	<circle cx="111.092956965186" cy="-204.781325078947" r="2" style="fill: rgb(0,0,0)" />
	<circle cx="131.899938255729" cy="-169.056392469932" r="2" style="fill: rgb(0,0,0)" />
	<circle cx="493.13524931498" cy="-363.04727111569" r="2" style="fill: rgb(0,0,0)" />
	<circle cx="496.90965034356" cy="-403.900259432967" r="2" style="fill: rgb(0,0,0)" />
	<circle cx="519.239703628754" cy="-314.356970762258" r="2" style="fill: rgb(0,0,0)" />
	<circle cx="496.724612825613" cy="-348.653959605318" r="2" style="fill: rgb(0,0,0)" />
	<circle cx="394.036587774352" cy="-531.159021918557" r="2" style="fill: rgb(0,0,0)" />
	<circle cx="479.32755188267" cy="-443.775409942859" r="2" style="fill: rgb(0,0,0)" />
	<circle cx="455.471310061141" cy="-477.540495556498" r="2" style="fill: rgb(0,0,0)" />
	<circle cx="33.5" cy="-371.930447149581" r="2" style="fill: rgb(0,0,0)" />
	<circle cx="72.7559359878513" cy="-319.888730818611" r="2" style="fill: rgb(0,0,0)" />
	<circle cx="124.348146067265" cy="-513.628860529809" r="2" style="fill: rgb(0,0,0)" />
	<circle cx="133.421811906272" cy="-472.260037536928" r="2" style="fill: rgb(0,0,0)" />
	<circle cx="110.189007910148" cy="-499.706085952032" r="2" style="fill: rgb(0,0,0)" />
	<circle cx="55.896127210818" cy="-462.296730529631" r="2" style="fill: rgb(0,0,0)" />
	<circle cx="394.036587774354" cy="-101.239374896639" r="2" style="fill: rgb(0,0,0)" />
	<circle cx="455.471310061144" cy="-154.85790125869" r="2" style="fill: rgb(0,0,0)" />
	<circle cx="479.327551882673" cy="-188.622986872325" r="2" style="fill: rgb(0,0,0)" />
	<circle cx="133.421811906284" cy="-160.138359278264" r="2" style="fill: rgb(0,0,0)" />
	<circle cx="124.348146067265" cy="-118.76953628539" r="2" style="fill: rgb(0,0,0)" />
	<circle cx="55.8961272108151" cy="-170.101666285572" r="2" style="fill: rgb(0,0,0)" />
	<circle cx="110.189007910138" cy="-132.692310863158" r="2" style="fill: rgb(0,0,0)" />
	<circle cx="526.953409740627" cy="-339.819167813847" r="2" style="fill: rgb(0,0,0)" />
	<circle cx="561.5" cy="-395.099379919161" r="2" style="fill: rgb(0,0,0)" />
	<circle cx="453.174133520641" cy="-486.290946708165" r="2" style="fill: rgb(0,0,0)" />
	<circle cx="458.589327233344" cy="-528.295548892066" r="2" style="fill: rgb(0,0,0)" />
	<circle cx="531.274550552709" cy="-483.156599337459" r="2" style="fill: rgb(0,0,0)" />
	<circle cx="473.913573181057" cy="-515.666521557" r="2" style="fill: rgb(0,0,0)" />
	<circle cx="157.527247356179" cy="-578.89839681519" r="2" style="fill: rgb(0,0,0)" />
	<circle cx="121.066416629391" cy="-556.364990687849" r="2" style="fill: rgb(0,0,0)" />
	<circle cx="84.3754522868323" cy="-533.923141860892" r="2" style="fill: rgb(0,0,0)" />
	<circle cx="41.4444646926325" cy="-527.251490364839" r="2" style="fill: rgb(0,0,0)" />
	<circle cx="458.589327233338" cy="-104.102847923108" r="2" style="fill: rgb(0,0,0)" />
	<circle cx="453.174133520647" cy="-146.107450107016" r="2" style="fill: rgb(0,0,0)" />
	<circle cx="473.913573181048" cy="-116.731875258187" r="2" style="fill: rgb(0,0,0)" />
	<circle cx="531.274550552698" cy="-149.241797477717" r="2" style="fill: rgb(0,0,0)" />
	<circle cx="121.066416629365" cy="-76.0334061273559" r="2" style="fill: rgb(0,0,0)" />
	<circle cx="157.527247356147" cy="-53.5" r="2" style="fill: rgb(0,0,0)" />
	<circle cx="41.4444646926125" cy="-105.146906450366" r="2" style="fill: rgb(0,0,0)" />
	<circle cx="84.3754522868112" cy="-98.4752549543036" r="2" style="fill: rgb(0,0,0)" />
	<circle cx="539.981120067817" cy="-549.127555235246" r="2" style="fill: rgb(0,0,0)" />
	<circle cx="496.630755946556" cy="-552.013133176066" r="2" style="fill: rgb(0,0,0)" />
	<circle cx="496.63075594654" cy="-80.3852636391179" r="2" style="fill: rgb(0,0,0)" />
	<circle cx="539.981120067794" cy="-83.2708415799298" r="2" style="fill: rgb(0,0,0)" />
	<!--
	Generated using the Perl SVG Module V2.84
	by Ronan Oger
	Info: http://www.roitsystems.com/
	-->
</svg>