<?xml version="1.0" encoding="UTF-8" standalone="yes"?>
<!DOCTYPE svg PUBLIC "-//W3C//DTD SVG 1.0//EN" "http://www.w3.org/TR/2001/REC-SVG-20010904/DTD/svg10.dtd">
<!-- generated using polymake; Michael Joswig, Georg Loho, Benjamin Lorenz, Rico Raber; license CC BY-NC-ND 3.0; see polymake.org and matchthenet.de -->
<svg height="841pt" id="document" viewBox="0 -728.252575817807 572 728.252575817807" width="595pt" xmlns="http://www.w3.org/2000/svg" xmlns:svg="http://www.w3.org/2000/svg" xmlns:xlink="http://www.w3.org/1999/xlink">
	<title id="document_title">planar_net_</title>
	<polygon points="292.615038554617,-409.82448985841 331.979202390143,-409.82448985841 312.297120472369,-443.914855738708 " style="fill: rgb(14,173,105); fill-opacity: 1; stroke: rgb(0,0,0); stroke-width: 3" />
	<polygon points="363.825479902444,-386.686814887062 331.979202390143,-409.82448985841 292.615038554617,-409.82448985841 260.768761042316,-386.686814887062 248.604565447779,-349.249270362775 260.768761042316,-311.811725838487 292.615038554617,-288.67405086714 331.979202390143,-288.67405086714 363.825479902444,-311.811725838487 375.989675496981,-349.249270362775 " style="fill: rgb(136,136,136); fill-opacity: 1; stroke: rgb(0,0,0); stroke-width: 3" />
	<polygon points="402.329442313069,-378.50254502638 363.825479902444,-386.686814887062 375.989675496981,-349.249270362775 414.4936379076,-341.065000502099 " style="fill: rgb(67,184,206); fill-opacity: 1; stroke: rgb(0,0,0); stroke-width: 3" />
	<polygon points="260.768761042316,-386.686814887062 222.264798631695,-378.502545026386 210.100603037168,-341.065000502105 248.604565447779,-349.249270362775 " style="fill: rgb(67,184,206); fill-opacity: 1; stroke: rgb(0,0,0); stroke-width: 3" />
	<polygon points="432.783884682664,-431.251186526787 406.4441178666,-401.997911863157 435.697392530233,-375.658145047092 462.037159346292,-404.911419710716 " style="fill: rgb(67,184,206); fill-opacity: 1; stroke: rgb(0,0,0); stroke-width: 3" />
	<polygon points="218.150123078171,-401.997911863131 191.810356262091,-431.251186526746 162.557081598472,-404.911419710667 188.896848414546,-375.658145047053 " style="fill: rgb(67,184,206); fill-opacity: 1; stroke: rgb(0,0,0); stroke-width: 3" />
	<polygon points="375.989675496981,-349.249270362775 363.825479902444,-311.811725838487 401.263024426736,-299.647530243944 413.427220021273,-337.085074768229 " style="fill: rgb(67,184,206); fill-opacity: 1; stroke: rgb(0,0,0); stroke-width: 3" />
	<polygon points="260.768761042316,-311.811725838487 248.604565447779,-349.249270362775 211.167020923486,-337.085074768236 223.331216518017,-299.647530243957 " style="fill: rgb(67,184,206); fill-opacity: 1; stroke: rgb(0,0,0); stroke-width: 3" />
	<polygon points="211.167020923486,-337.085074768236 171.802857087958,-337.085074768241 159.63866149341,-299.647530243968 191.484939005707,-276.509855272623 223.331216518017,-299.647530243957 " style="fill: rgb(255,210,63); fill-opacity: 1; stroke: rgb(0,0,0); stroke-width: 3" />
	<polygon points="363.825479902444,-311.811725838487 331.979202390143,-288.67405086714 367.94015545599,-272.663203011183 399.786432968295,-295.800877982511 " style="fill: rgb(67,184,206); fill-opacity: 1; stroke: rgb(0,0,0); stroke-width: 3" />
	<polygon points="292.615038554617,-288.67405086714 260.768761042316,-311.811725838487 224.807807976466,-295.800877982536 256.654085488755,-272.663203011195 " style="fill: rgb(67,184,206); fill-opacity: 1; stroke: rgb(0,0,0); stroke-width: 3" />
	<polygon points="127.646997394197,-683.568305957135 89.1430349835947,-691.752575817807 53.1820819177591,-675.741727961858 33.5,-641.651362081556 37.6146755535415,-602.502839254258 63.9544423696088,-573.24956459064 102.458404780211,-565.065294729969 138.419357846046,-581.076142585918 158.101439763805,-615.166508466219 153.986764210264,-654.315031293517 " style="fill: rgb(136,136,136); fill-opacity: 1; stroke: rgb(0,0,0); stroke-width: 3" />
	<polygon points="256.654085488755,-272.663203011195 224.807807976466,-295.800877982536 201.670133005113,-263.954600470233 233.516410517397,-240.816925498895 " style="fill: rgb(67,184,206); fill-opacity: 1; stroke: rgb(0,0,0); stroke-width: 3" />
	<polygon points="464.955579451339,-299.647530243933 433.109301939037,-276.509855272595 456.246976910382,-244.663577760283 488.093254422679,-267.801252731617 " style="fill: rgb(67,184,206); fill-opacity: 1; stroke: rgb(0,0,0); stroke-width: 3" />
	<polygon points="136.500986522055,-267.801252731662 168.347264034342,-244.663577760319 191.484939005707,-276.509855272623 159.63866149341,-299.647530243968 " style="fill: rgb(67,184,206); fill-opacity: 1; stroke: rgb(0,0,0); stroke-width: 3" />
	<polygon points="260.768761042316,-190.661286847215 248.604565447778,-228.098831371503 210.100603037161,-236.283101232173 222.264798631691,-198.8455567079 " style="fill: rgb(67,184,206); fill-opacity: 1; stroke: rgb(0,0,0); stroke-width: 3" />
	<polygon points="331.979202390143,-167.52361187587 292.615038554616,-167.523611875869 312.297120472391,-133.433245995569 " style="fill: rgb(14,173,105); fill-opacity: 1; stroke: rgb(0,0,0); stroke-width: 3" />
	<polygon points="296.72971410816,-53.5 292.615038554616,-92.6485228272974 260.768761042315,-69.5108478559495 " style="fill: rgb(14,173,105); fill-opacity: 1; stroke: rgb(0,0,0); stroke-width: 3" />
	<polygon points="177.39412409995,-130.086067351578 189.558319694487,-92.648522827292 221.404597206788,-69.5108478559476 260.768761042315,-69.5108478559495 292.615038554616,-92.6485228272974 304.779234149154,-130.086067351584 292.615038554616,-167.523611875869 260.768761042316,-190.661286847215 221.404597206789,-190.661286847213 189.558319694488,-167.523611875865 " style="fill: rgb(136,136,136); fill-opacity: 1; stroke: rgb(0,0,0); stroke-width: 3" />
	<polygon points="82.7763228624588,-530.97492884967 102.458404780211,-565.065294729969 63.0942409446707,-565.065294729966 " style="fill: rgb(14,173,105); fill-opacity: 1; stroke: rgb(0,0,0); stroke-width: 3" />
	<polygon points="522.135836164468,-565.065294730071 541.817918082243,-530.974928849773 561.5,-565.065294730078 " style="fill: rgb(14,173,105); fill-opacity: 1; stroke: rgb(0,0,0); stroke-width: 3" />
	<polygon points="435.035921250275,-92.6485228272997 447.200116844811,-130.086067351589 435.035921250272,-167.523611875876 403.18964373797,-190.661286847222 363.825479902443,-190.661286847218 331.979202390143,-167.52361187587 319.815006795607,-130.086067351581 331.979202390145,-92.6485228272931 363.825479902448,-69.5108478559473 403.189643737975,-69.5108478559495 " style="fill: rgb(136,136,136); fill-opacity: 1; stroke: rgb(0,0,0); stroke-width: 3" />
	<polygon points="375.989675496981,-228.098831371507 363.825479902443,-190.661286847218 402.329442313065,-198.845556707893 414.49363790759,-236.283101232179 " style="fill: rgb(67,184,206); fill-opacity: 1; stroke: rgb(0,0,0); stroke-width: 3" />
	<polygon points="113.230765232092,-462.573131358761 86.8909984160125,-491.826406022375 74.7268028214673,-454.38886149809 101.066569637542,-425.135586834477 " style="fill: rgb(67,184,206); fill-opacity: 1; stroke: rgb(0,0,0); stroke-width: 3" />
	<polygon points="537.703242528714,-491.826406022469 511.363475712651,-462.573131358839 523.527671307209,-425.135586834554 549.867438123266,-454.388861498172 " style="fill: rgb(67,184,206); fill-opacity: 1; stroke: rgb(0,0,0); stroke-width: 3" />
	<polygon points="331.979202390143,-288.67405086714 292.615038554617,-288.67405086714 260.768761042316,-265.536375895791 248.604565447778,-228.098831371503 260.768761042316,-190.661286847215 292.615038554616,-167.523611875869 331.979202390143,-167.52361187587 363.825479902443,-190.661286847218 375.989675496981,-228.098831371507 363.825479902444,-265.536375895795 " style="fill: rgb(136,136,136); fill-opacity: 1; stroke: rgb(0,0,0); stroke-width: 3" />
	<polygon points="367.94015545599,-272.663203011183 391.077830427326,-240.816925498864 422.924107939627,-263.954600470189 399.786432968295,-295.800877982511 " style="fill: rgb(67,184,206); fill-opacity: 1; stroke: rgb(0,0,0); stroke-width: 3" />
	<polygon points="155.849403196242,-447.262034382685 116.70088036894,-443.147358829152 120.815555922474,-403.998836001859 159.964078749778,-408.113511555388 " style="fill: rgb(67,184,206); fill-opacity: 1; stroke: rgb(0,0,0); stroke-width: 3" />
	<polygon points="176.923320256656,-572.891872725247 164.75912466211,-610.329417249531 138.419357846046,-581.076142585918 " style="fill: rgb(14,173,105); fill-opacity: 1; stroke: rgb(0,0,0); stroke-width: 3" />
	<polygon points="307.031270716735,-630.819664456773 294.867075122196,-668.257208981061 268.527308306124,-639.003934317443 " style="fill: rgb(14,173,105); fill-opacity: 1; stroke: rgb(0,0,0); stroke-width: 3" />
	<polygon points="468.744837748509,-447.262034382741 464.630162194978,-408.113511555449 503.77868502228,-403.998836001916 507.893360575811,-443.147358829203 " style="fill: rgb(67,184,206); fill-opacity: 1; stroke: rgb(0,0,0); stroke-width: 3" />
	<polygon points="452.791383856801,-337.08507476822 413.427220021273,-337.085074768229 401.263024426736,-299.647530243944 433.109301939037,-276.509855272595 464.955579451339,-299.647530243933 " style="fill: rgb(255,210,63); fill-opacity: 1; stroke: rgb(0,0,0); stroke-width: 3" />
	<polygon points="191.810356262091,-431.251186526746 187.695680708538,-470.39970935404 155.849403196242,-447.262034382685 159.964078749778,-408.113511555388 " style="fill: rgb(67,184,206); fill-opacity: 1; stroke: rgb(0,0,0); stroke-width: 3" />
	<polygon points="436.898560236193,-470.399709354091 432.783884682664,-431.251186526787 464.630162194978,-408.113511555449 468.744837748509,-447.262034382741 " style="fill: rgb(67,184,206); fill-opacity: 1; stroke: rgb(0,0,0); stroke-width: 3" />
	<polygon points="187.695680708538,-470.39970935404 207.37776262629,-504.490075234339 203.263087072736,-543.638598061633 176.923320256656,-572.891872725247 138.419357846046,-581.076142585918 102.458404780211,-565.065294729969 82.7763228624588,-530.97492884967 86.8909984160125,-491.826406022375 113.230765232092,-462.573131358761 151.734727642703,-454.388861498091 " style="fill: rgb(136,136,136); fill-opacity: 1; stroke: rgb(0,0,0); stroke-width: 3" />
	<polygon points="417.216478318419,-504.490075234389 436.898560236193,-470.399709354091 472.859513302043,-454.388861498152 511.363475712651,-462.573131358839 537.703242528714,-491.826406022469 541.817918082243,-530.974928849773 522.135836164468,-565.065294730071 486.174883098619,-581.07614258601 447.670920688011,-572.891872725324 421.331153871947,-543.638598061693 " style="fill: rgb(136,136,136); fill-opacity: 1; stroke: rgb(0,0,0); stroke-width: 3" />
	<polygon points="207.37776262629,-504.490075234339 243.338715692126,-520.500923090287 211.492438179813,-543.63859806163 " style="fill: rgb(14,173,105); fill-opacity: 1; stroke: rgb(0,0,0); stroke-width: 3" />
	<polygon points="381.25552525257,-520.500923090328 417.216478318419,-504.490075234389 413.101802764855,-543.638598061684 " style="fill: rgb(14,173,105); fill-opacity: 1; stroke: rgb(0,0,0); stroke-width: 3" />
	<polygon points="317.80363116858,-528.327501085566 337.485713086346,-562.417866965865 333.371037532806,-601.566389793158 307.031270716735,-630.819664456773 268.527308306124,-639.003934317443 232.56635524028,-622.993086461494 212.884273322515,-588.902720581195 216.998948876055,-549.754197753901 243.338715692126,-520.500923090287 281.842678102736,-512.316653229617 " style="fill: rgb(136,136,136); fill-opacity: 1; stroke: rgb(0,0,0); stroke-width: 3" />
	<polygon points="308.182444918815,-483.063378566002 320.346640513355,-520.500923090293 281.842678102736,-512.316653229617 " style="fill: rgb(14,173,105); fill-opacity: 1; stroke: rgb(0,0,0); stroke-width: 3" />
	<polygon points="292.615038554617,-409.82448985841 312.297120472369,-443.914855738708 308.182444918815,-483.063378566002 281.842678102736,-512.316653229617 243.338715692126,-520.500923090287 207.37776262629,-504.490075234339 187.695680708538,-470.39970935404 191.810356262091,-431.251186526746 218.150123078171,-401.997911863131 256.654085488781,-393.813642002461 " style="fill: rgb(136,136,136); fill-opacity: 1; stroke: rgb(0,0,0); stroke-width: 3" />
	<polygon points="312.297120472369,-443.914855738708 331.979202390143,-409.82448985841 367.940155455992,-393.813642002471 406.4441178666,-401.997911863157 432.783884682664,-431.251186526787 436.898560236193,-470.399709354091 417.216478318419,-504.490075234389 381.25552525257,-520.500923090328 342.751562841962,-512.316653229642 316.411796025898,-483.063378566012 " style="fill: rgb(136,136,136); fill-opacity: 1; stroke: rgb(0,0,0); stroke-width: 3" />
	<circle cx="292.615038554617" cy="-409.82448985841" r="2" style="fill: rgb(0,0,0)" />
	<circle cx="331.979202390143" cy="-409.82448985841" r="2" style="fill: rgb(0,0,0)" />
	<circle cx="312.297120472369" cy="-443.914855738708" r="2" style="fill: rgb(0,0,0)" />
	<circle cx="260.768761042316" cy="-386.686814887062" r="2" style="fill: rgb(0,0,0)" />
	<circle cx="248.604565447779" cy="-349.249270362775" r="2" style="fill: rgb(0,0,0)" />
	<circle cx="260.768761042316" cy="-311.811725838487" r="2" style="fill: rgb(0,0,0)" />
	<circle cx="292.615038554617" cy="-288.67405086714" r="2" style="fill: rgb(0,0,0)" />
	<circle cx="331.979202390143" cy="-288.67405086714" r="2" style="fill: rgb(0,0,0)" />
	<circle cx="363.825479902444" cy="-311.811725838487" r="2" style="fill: rgb(0,0,0)" />
	<circle cx="375.989675496981" cy="-349.249270362775" r="2" style="fill: rgb(0,0,0)" />
	<circle cx="363.825479902444" cy="-386.686814887062" r="2" style="fill: rgb(0,0,0)" />
	<circle cx="308.182444918815" cy="-483.063378566002" r="2" style="fill: rgb(0,0,0)" />
	<circle cx="281.842678102736" cy="-512.316653229617" r="2" style="fill: rgb(0,0,0)" />
	<circle cx="243.338715692126" cy="-520.500923090287" r="2" style="fill: rgb(0,0,0)" />
	<circle cx="207.37776262629" cy="-504.490075234339" r="2" style="fill: rgb(0,0,0)" />
	<circle cx="187.695680708538" cy="-470.39970935404" r="2" style="fill: rgb(0,0,0)" />
	<circle cx="191.810356262091" cy="-431.251186526746" r="2" style="fill: rgb(0,0,0)" />
	<circle cx="218.150123078171" cy="-401.997911863131" r="2" style="fill: rgb(0,0,0)" />
	<circle cx="256.654085488781" cy="-393.813642002461" r="2" style="fill: rgb(0,0,0)" />
	<circle cx="367.940155455992" cy="-393.813642002471" r="2" style="fill: rgb(0,0,0)" />
	<circle cx="406.4441178666" cy="-401.997911863157" r="2" style="fill: rgb(0,0,0)" />
	<circle cx="432.783884682664" cy="-431.251186526787" r="2" style="fill: rgb(0,0,0)" />
	<circle cx="436.898560236193" cy="-470.399709354091" r="2" style="fill: rgb(0,0,0)" />
	<circle cx="417.216478318419" cy="-504.490075234389" r="2" style="fill: rgb(0,0,0)" />
	<circle cx="381.25552525257" cy="-520.500923090328" r="2" style="fill: rgb(0,0,0)" />
	<circle cx="342.751562841962" cy="-512.316653229642" r="2" style="fill: rgb(0,0,0)" />
	<circle cx="316.411796025898" cy="-483.063378566012" r="2" style="fill: rgb(0,0,0)" />
	<circle cx="414.4936379076" cy="-341.065000502099" r="2" style="fill: rgb(0,0,0)" />
	<circle cx="402.329442313069" cy="-378.50254502638" r="2" style="fill: rgb(0,0,0)" />
	<circle cx="222.264798631695" cy="-378.502545026386" r="2" style="fill: rgb(0,0,0)" />
	<circle cx="210.100603037168" cy="-341.065000502105" r="2" style="fill: rgb(0,0,0)" />
	<circle cx="401.263024426736" cy="-299.647530243944" r="2" style="fill: rgb(0,0,0)" />
	<circle cx="413.427220021273" cy="-337.085074768229" r="2" style="fill: rgb(0,0,0)" />
	<circle cx="211.167020923486" cy="-337.085074768236" r="2" style="fill: rgb(0,0,0)" />
	<circle cx="223.331216518017" cy="-299.647530243957" r="2" style="fill: rgb(0,0,0)" />
	<circle cx="367.94015545599" cy="-272.663203011183" r="2" style="fill: rgb(0,0,0)" />
	<circle cx="399.786432968295" cy="-295.800877982511" r="2" style="fill: rgb(0,0,0)" />
	<circle cx="224.807807976466" cy="-295.800877982536" r="2" style="fill: rgb(0,0,0)" />
	<circle cx="256.654085488755" cy="-272.663203011195" r="2" style="fill: rgb(0,0,0)" />
	<circle cx="260.768761042316" cy="-265.536375895791" r="2" style="fill: rgb(0,0,0)" />
	<circle cx="248.604565447778" cy="-228.098831371503" r="2" style="fill: rgb(0,0,0)" />
	<circle cx="260.768761042316" cy="-190.661286847215" r="2" style="fill: rgb(0,0,0)" />
	<circle cx="292.615038554616" cy="-167.523611875869" r="2" style="fill: rgb(0,0,0)" />
	<circle cx="331.979202390143" cy="-167.52361187587" r="2" style="fill: rgb(0,0,0)" />
	<circle cx="363.825479902443" cy="-190.661286847218" r="2" style="fill: rgb(0,0,0)" />
	<circle cx="375.989675496981" cy="-228.098831371507" r="2" style="fill: rgb(0,0,0)" />
	<circle cx="363.825479902444" cy="-265.536375895795" r="2" style="fill: rgb(0,0,0)" />
	<circle cx="162.557081598472" cy="-404.911419710667" r="2" style="fill: rgb(0,0,0)" />
	<circle cx="188.896848414546" cy="-375.658145047053" r="2" style="fill: rgb(0,0,0)" />
	<circle cx="155.849403196242" cy="-447.262034382685" r="2" style="fill: rgb(0,0,0)" />
	<circle cx="159.964078749778" cy="-408.113511555388" r="2" style="fill: rgb(0,0,0)" />
	<circle cx="203.263087072736" cy="-543.638598061633" r="2" style="fill: rgb(0,0,0)" />
	<circle cx="176.923320256656" cy="-572.891872725247" r="2" style="fill: rgb(0,0,0)" />
	<circle cx="138.419357846046" cy="-581.076142585918" r="2" style="fill: rgb(0,0,0)" />
	<circle cx="102.458404780211" cy="-565.065294729969" r="2" style="fill: rgb(0,0,0)" />
	<circle cx="82.7763228624588" cy="-530.97492884967" r="2" style="fill: rgb(0,0,0)" />
	<circle cx="86.8909984160125" cy="-491.826406022375" r="2" style="fill: rgb(0,0,0)" />
	<circle cx="113.230765232092" cy="-462.573131358761" r="2" style="fill: rgb(0,0,0)" />
	<circle cx="151.734727642703" cy="-454.388861498091" r="2" style="fill: rgb(0,0,0)" />
	<circle cx="211.492438179813" cy="-543.63859806163" r="2" style="fill: rgb(0,0,0)" />
	<circle cx="317.80363116858" cy="-528.327501085566" r="2" style="fill: rgb(0,0,0)" />
	<circle cx="337.485713086346" cy="-562.417866965865" r="2" style="fill: rgb(0,0,0)" />
	<circle cx="333.371037532806" cy="-601.566389793158" r="2" style="fill: rgb(0,0,0)" />
	<circle cx="307.031270716735" cy="-630.819664456773" r="2" style="fill: rgb(0,0,0)" />
	<circle cx="268.527308306124" cy="-639.003934317443" r="2" style="fill: rgb(0,0,0)" />
	<circle cx="232.56635524028" cy="-622.993086461494" r="2" style="fill: rgb(0,0,0)" />
	<circle cx="212.884273322515" cy="-588.902720581195" r="2" style="fill: rgb(0,0,0)" />
	<circle cx="216.998948876055" cy="-549.754197753901" r="2" style="fill: rgb(0,0,0)" />
	<circle cx="320.346640513355" cy="-520.500923090293" r="2" style="fill: rgb(0,0,0)" />
	<circle cx="435.697392530233" cy="-375.658145047092" r="2" style="fill: rgb(0,0,0)" />
	<circle cx="462.037159346292" cy="-404.911419710716" r="2" style="fill: rgb(0,0,0)" />
	<circle cx="464.630162194978" cy="-408.113511555449" r="2" style="fill: rgb(0,0,0)" />
	<circle cx="468.744837748509" cy="-447.262034382741" r="2" style="fill: rgb(0,0,0)" />
	<circle cx="472.859513302043" cy="-454.388861498152" r="2" style="fill: rgb(0,0,0)" />
	<circle cx="511.363475712651" cy="-462.573131358839" r="2" style="fill: rgb(0,0,0)" />
	<circle cx="537.703242528714" cy="-491.826406022469" r="2" style="fill: rgb(0,0,0)" />
	<circle cx="541.817918082243" cy="-530.974928849773" r="2" style="fill: rgb(0,0,0)" />
	<circle cx="522.135836164468" cy="-565.065294730071" r="2" style="fill: rgb(0,0,0)" />
	<circle cx="486.174883098619" cy="-581.07614258601" r="2" style="fill: rgb(0,0,0)" />
	<circle cx="447.670920688011" cy="-572.891872725324" r="2" style="fill: rgb(0,0,0)" />
	<circle cx="421.331153871947" cy="-543.638598061693" r="2" style="fill: rgb(0,0,0)" />
	<circle cx="413.101802764855" cy="-543.638598061684" r="2" style="fill: rgb(0,0,0)" />
	<circle cx="433.109301939037" cy="-276.509855272595" r="2" style="fill: rgb(0,0,0)" />
	<circle cx="464.955579451339" cy="-299.647530243933" r="2" style="fill: rgb(0,0,0)" />
	<circle cx="452.791383856801" cy="-337.08507476822" r="2" style="fill: rgb(0,0,0)" />
	<circle cx="171.802857087958" cy="-337.085074768241" r="2" style="fill: rgb(0,0,0)" />
	<circle cx="159.63866149341" cy="-299.647530243968" r="2" style="fill: rgb(0,0,0)" />
	<circle cx="191.484939005707" cy="-276.509855272623" r="2" style="fill: rgb(0,0,0)" />
	<circle cx="391.077830427326" cy="-240.816925498864" r="2" style="fill: rgb(0,0,0)" />
	<circle cx="422.924107939627" cy="-263.954600470189" r="2" style="fill: rgb(0,0,0)" />
	<circle cx="201.670133005113" cy="-263.954600470233" r="2" style="fill: rgb(0,0,0)" />
	<circle cx="233.516410517397" cy="-240.816925498895" r="2" style="fill: rgb(0,0,0)" />
	<circle cx="210.100603037161" cy="-236.283101232173" r="2" style="fill: rgb(0,0,0)" />
	<circle cx="222.264798631691" cy="-198.8455567079" r="2" style="fill: rgb(0,0,0)" />
	<circle cx="312.297120472391" cy="-133.433245995569" r="2" style="fill: rgb(0,0,0)" />
	<circle cx="221.404597206789" cy="-190.661286847213" r="2" style="fill: rgb(0,0,0)" />
	<circle cx="189.558319694488" cy="-167.523611875865" r="2" style="fill: rgb(0,0,0)" />
	<circle cx="177.39412409995" cy="-130.086067351578" r="2" style="fill: rgb(0,0,0)" />
	<circle cx="189.558319694487" cy="-92.648522827292" r="2" style="fill: rgb(0,0,0)" />
	<circle cx="221.404597206788" cy="-69.5108478559476" r="2" style="fill: rgb(0,0,0)" />
	<circle cx="260.768761042315" cy="-69.5108478559495" r="2" style="fill: rgb(0,0,0)" />
	<circle cx="292.615038554616" cy="-92.6485228272974" r="2" style="fill: rgb(0,0,0)" />
	<circle cx="304.779234149154" cy="-130.086067351584" r="2" style="fill: rgb(0,0,0)" />
	<circle cx="319.815006795607" cy="-130.086067351581" r="2" style="fill: rgb(0,0,0)" />
	<circle cx="331.979202390145" cy="-92.6485228272931" r="2" style="fill: rgb(0,0,0)" />
	<circle cx="363.825479902448" cy="-69.5108478559473" r="2" style="fill: rgb(0,0,0)" />
	<circle cx="403.189643737975" cy="-69.5108478559495" r="2" style="fill: rgb(0,0,0)" />
	<circle cx="435.035921250275" cy="-92.6485228272997" r="2" style="fill: rgb(0,0,0)" />
	<circle cx="447.200116844811" cy="-130.086067351589" r="2" style="fill: rgb(0,0,0)" />
	<circle cx="435.035921250272" cy="-167.523611875876" r="2" style="fill: rgb(0,0,0)" />
	<circle cx="403.18964373797" cy="-190.661286847222" r="2" style="fill: rgb(0,0,0)" />
	<circle cx="402.329442313065" cy="-198.845556707893" r="2" style="fill: rgb(0,0,0)" />
	<circle cx="414.49363790759" cy="-236.283101232179" r="2" style="fill: rgb(0,0,0)" />
	<circle cx="116.70088036894" cy="-443.147358829152" r="2" style="fill: rgb(0,0,0)" />
	<circle cx="120.815555922474" cy="-403.998836001859" r="2" style="fill: rgb(0,0,0)" />
	<circle cx="158.101439763805" cy="-615.166508466219" r="2" style="fill: rgb(0,0,0)" />
	<circle cx="153.986764210264" cy="-654.315031293517" r="2" style="fill: rgb(0,0,0)" />
	<circle cx="127.646997394197" cy="-683.568305957135" r="2" style="fill: rgb(0,0,0)" />
	<circle cx="89.1430349835947" cy="-691.752575817807" r="2" style="fill: rgb(0,0,0)" />
	<circle cx="53.1820819177591" cy="-675.741727961858" r="2" style="fill: rgb(0,0,0)" />
	<circle cx="33.5" cy="-641.651362081556" r="2" style="fill: rgb(0,0,0)" />
	<circle cx="37.6146755535415" cy="-602.502839254258" r="2" style="fill: rgb(0,0,0)" />
	<circle cx="63.9544423696088" cy="-573.24956459064" r="2" style="fill: rgb(0,0,0)" />
	<circle cx="63.0942409446707" cy="-565.065294729966" r="2" style="fill: rgb(0,0,0)" />
	<circle cx="74.7268028214673" cy="-454.38886149809" r="2" style="fill: rgb(0,0,0)" />
	<circle cx="101.066569637542" cy="-425.135586834477" r="2" style="fill: rgb(0,0,0)" />
	<circle cx="164.75912466211" cy="-610.329417249531" r="2" style="fill: rgb(0,0,0)" />
	<circle cx="294.867075122196" cy="-668.257208981061" r="2" style="fill: rgb(0,0,0)" />
	<circle cx="503.77868502228" cy="-403.998836001916" r="2" style="fill: rgb(0,0,0)" />
	<circle cx="507.893360575811" cy="-443.147358829203" r="2" style="fill: rgb(0,0,0)" />
	<circle cx="561.5" cy="-565.065294730078" r="2" style="fill: rgb(0,0,0)" />
	<circle cx="523.527671307209" cy="-425.135586834554" r="2" style="fill: rgb(0,0,0)" />
	<circle cx="549.867438123266" cy="-454.388861498172" r="2" style="fill: rgb(0,0,0)" />
	<circle cx="456.246976910382" cy="-244.663577760283" r="2" style="fill: rgb(0,0,0)" />
	<circle cx="488.093254422679" cy="-267.801252731617" r="2" style="fill: rgb(0,0,0)" />
	<circle cx="136.500986522055" cy="-267.801252731662" r="2" style="fill: rgb(0,0,0)" />
	<circle cx="168.347264034342" cy="-244.663577760319" r="2" style="fill: rgb(0,0,0)" />
	<circle cx="296.72971410816" cy="-53.5" r="2" style="fill: rgb(0,0,0)" />
	<!--
	Generated using the Perl SVG Module V2.86
	by Ronan Oger
	Info: http://www.roitsystems.com/
	-->
</svg>