<?xml version="1.0" encoding="UTF-8" standalone="yes"?>
<!DOCTYPE svg PUBLIC "-//W3C//DTD SVG 1.0//EN" "http://www.w3.org/TR/2001/REC-SVG-20010904/DTD/svg10.dtd">
<!-- generated using polymake; Michael Joswig, Georg Loho, Benjamin Lorenz, Rico Raber; license CC BY-NC-ND 3.0; see polymake.org and matchthenet.de -->
<svg height="841pt" id="document" viewBox="0 -700.317184307263 572 700.317184307263" width="595pt" xmlns="http://www.w3.org/2000/svg" xmlns:svg="http://www.w3.org/2000/svg" xmlns:xlink="http://www.w3.org/1999/xlink">
	<title id="document_title">planar_net_</title>
	<polygon points="256.341407846369,-300.451552921787 338.658592153624,-300.451552921787 396.86563138547,-358.65859215363 396.865631385471,-440.975776460885 338.658592153627,-499.182815692728 256.341407846369,-499.182815692727 198.134368614524,-440.975776460883 198.134368614522,-358.658592153628 " style="fill: rgb(136,136,136); fill-opacity: 1; stroke: rgb(0,0,0); stroke-width: 3" />
	<polygon points="338.658592153618,-218.134368614526 338.658592153624,-300.451552921787 256.341407846369,-300.451552921787 256.341407846369,-218.134368614529 " style="fill: rgb(67,184,206); fill-opacity: 1; stroke: rgb(0,0,0); stroke-width: 3" />
	<polygon points="198.134368614524,-440.975776460883 256.341407846369,-499.182815692727 198.134368614526,-557.389854924583 139.927329382682,-499.182815692736 " style="fill: rgb(67,184,206); fill-opacity: 1; stroke: rgb(0,0,0); stroke-width: 3" />
	<polygon points="256.341407846369,-300.451552921787 198.134368614522,-358.658592153628 139.927329382677,-300.451552921784 198.134368614521,-242.244513689941 " style="fill: rgb(67,184,206); fill-opacity: 1; stroke: rgb(0,0,0); stroke-width: 3" />
	<polygon points="256.341407846369,-499.182815692727 338.658592153627,-499.182815692728 338.658592153632,-581.499999999996 256.341407846375,-581.499999999988 " style="fill: rgb(67,184,206); fill-opacity: 1; stroke: rgb(0,0,0); stroke-width: 3" />
	<polygon points="338.658592153627,-499.182815692728 396.865631385471,-440.975776460885 455.072670617323,-499.182815692739 396.865631385477,-557.389854924572 " style="fill: rgb(67,184,206); fill-opacity: 1; stroke: rgb(0,0,0); stroke-width: 3" />
	<polygon points="396.865631385471,-440.975776460885 396.86563138547,-358.65859215363 479.182815692735,-358.658592153632 479.182815692732,-440.975776460878 " style="fill: rgb(67,184,206); fill-opacity: 1; stroke: rgb(0,0,0); stroke-width: 3" />
	<polygon points="396.86563138547,-358.65859215363 338.658592153624,-300.451552921787 396.865631385472,-242.244513689941 455.072670617312,-300.451552921778 " style="fill: rgb(67,184,206); fill-opacity: 1; stroke: rgb(0,0,0); stroke-width: 3" />
	<polygon points="139.927329382682,-499.182815692736 198.134368614526,-557.389854924583 118.622074344742,-578.695109962506 " style="fill: rgb(14,173,105); fill-opacity: 1; stroke: rgb(0,0,0); stroke-width: 3" />
	<polygon points="198.134368614522,-358.658592153628 198.134368614524,-440.975776460883 115.817184307263,-440.975776460892 115.817184307262,-358.658592153636 " style="fill: rgb(67,184,206); fill-opacity: 1; stroke: rgb(0,0,0); stroke-width: 3" />
	<polygon points="198.134368614521,-242.244513689941 139.927329382677,-300.451552921784 118.622074344753,-220.939258652002 " style="fill: rgb(14,173,105); fill-opacity: 1; stroke: rgb(0,0,0); stroke-width: 3" />
	<polygon points="338.658592153618,-218.134368614526 256.341407846369,-218.134368614529 256.341407846368,-135.817184307269 338.658592153612,-135.817184307265 " style="fill: rgb(67,184,206); fill-opacity: 1; stroke: rgb(0,0,0); stroke-width: 3" />
	<polygon points="256.341407846375,-581.499999999988 338.658592153632,-581.499999999996 338.658592153635,-663.817184307263 256.341407846382,-663.81718430725 " style="fill: rgb(67,184,206); fill-opacity: 1; stroke: rgb(0,0,0); stroke-width: 3" />
	<polygon points="455.072670617312,-300.451552921778 396.865631385472,-242.244513689941 476.377925655255,-220.939258652015 " style="fill: rgb(14,173,105); fill-opacity: 1; stroke: rgb(0,0,0); stroke-width: 3" />
	<polygon points="396.865631385477,-557.389854924572 455.072670617323,-499.182815692739 476.377925655239,-578.695109962524 " style="fill: rgb(14,173,105); fill-opacity: 1; stroke: rgb(0,0,0); stroke-width: 3" />
	<polygon points="479.182815692732,-440.975776460878 479.182815692735,-358.658592153632 561.5,-358.658592153636 561.499999999994,-440.975776460876 " style="fill: rgb(67,184,206); fill-opacity: 1; stroke: rgb(0,0,0); stroke-width: 3" />
	<polygon points="115.817184307262,-358.658592153636 115.817184307263,-440.975776460892 33.5000000000005,-440.975776460899 33.5,-358.658592153644 " style="fill: rgb(67,184,206); fill-opacity: 1; stroke: rgb(0,0,0); stroke-width: 3" />
	<polygon points="338.658592153602,-53.5 338.658592153612,-135.817184307265 256.341407846368,-135.817184307269 256.341407846366,-53.500000000009 " style="fill: rgb(67,184,206); fill-opacity: 1; stroke: rgb(0,0,0); stroke-width: 3" />
	<circle cx="256.341407846369" cy="-300.451552921787" r="2" style="fill: rgb(0,0,0)" />
	<circle cx="338.658592153624" cy="-300.451552921787" r="2" style="fill: rgb(0,0,0)" />
	<circle cx="396.86563138547" cy="-358.65859215363" r="2" style="fill: rgb(0,0,0)" />
	<circle cx="396.865631385471" cy="-440.975776460885" r="2" style="fill: rgb(0,0,0)" />
	<circle cx="338.658592153627" cy="-499.182815692728" r="2" style="fill: rgb(0,0,0)" />
	<circle cx="256.341407846369" cy="-499.182815692727" r="2" style="fill: rgb(0,0,0)" />
	<circle cx="198.134368614524" cy="-440.975776460883" r="2" style="fill: rgb(0,0,0)" />
	<circle cx="198.134368614522" cy="-358.658592153628" r="2" style="fill: rgb(0,0,0)" />
	<circle cx="256.341407846369" cy="-218.134368614529" r="2" style="fill: rgb(0,0,0)" />
	<circle cx="338.658592153618" cy="-218.134368614526" r="2" style="fill: rgb(0,0,0)" />
	<circle cx="198.134368614526" cy="-557.389854924583" r="2" style="fill: rgb(0,0,0)" />
	<circle cx="139.927329382682" cy="-499.182815692736" r="2" style="fill: rgb(0,0,0)" />
	<circle cx="139.927329382677" cy="-300.451552921784" r="2" style="fill: rgb(0,0,0)" />
	<circle cx="198.134368614521" cy="-242.244513689941" r="2" style="fill: rgb(0,0,0)" />
	<circle cx="338.658592153632" cy="-581.499999999996" r="2" style="fill: rgb(0,0,0)" />
	<circle cx="256.341407846375" cy="-581.499999999988" r="2" style="fill: rgb(0,0,0)" />
	<circle cx="455.072670617323" cy="-499.182815692739" r="2" style="fill: rgb(0,0,0)" />
	<circle cx="396.865631385477" cy="-557.389854924572" r="2" style="fill: rgb(0,0,0)" />
	<circle cx="479.182815692735" cy="-358.658592153632" r="2" style="fill: rgb(0,0,0)" />
	<circle cx="479.182815692732" cy="-440.975776460878" r="2" style="fill: rgb(0,0,0)" />
	<circle cx="396.865631385472" cy="-242.244513689941" r="2" style="fill: rgb(0,0,0)" />
	<circle cx="455.072670617312" cy="-300.451552921778" r="2" style="fill: rgb(0,0,0)" />
	<circle cx="115.817184307263" cy="-440.975776460892" r="2" style="fill: rgb(0,0,0)" />
	<circle cx="115.817184307262" cy="-358.658592153636" r="2" style="fill: rgb(0,0,0)" />
	<circle cx="256.341407846368" cy="-135.817184307269" r="2" style="fill: rgb(0,0,0)" />
	<circle cx="338.658592153612" cy="-135.817184307265" r="2" style="fill: rgb(0,0,0)" />
	<circle cx="118.622074344742" cy="-578.695109962506" r="2" style="fill: rgb(0,0,0)" />
	<circle cx="118.622074344753" cy="-220.939258652002" r="2" style="fill: rgb(0,0,0)" />
	<circle cx="338.658592153635" cy="-663.817184307263" r="2" style="fill: rgb(0,0,0)" />
	<circle cx="256.341407846382" cy="-663.81718430725" r="2" style="fill: rgb(0,0,0)" />
	<circle cx="476.377925655239" cy="-578.695109962524" r="2" style="fill: rgb(0,0,0)" />
	<circle cx="561.5" cy="-358.658592153636" r="2" style="fill: rgb(0,0,0)" />
	<circle cx="561.499999999994" cy="-440.975776460876" r="2" style="fill: rgb(0,0,0)" />
	<circle cx="476.377925655255" cy="-220.939258652015" r="2" style="fill: rgb(0,0,0)" />
	<circle cx="33.5000000000005" cy="-440.975776460899" r="2" style="fill: rgb(0,0,0)" />
	<circle cx="33.5" cy="-358.658592153644" r="2" style="fill: rgb(0,0,0)" />
	<circle cx="256.341407846366" cy="-53.500000000009" r="2" style="fill: rgb(0,0,0)" />
	<circle cx="338.658592153602" cy="-53.5" r="2" style="fill: rgb(0,0,0)" />
	<!--
	Generated using the Perl SVG Module V2.87
	by Ronan Oger

	-->
</svg>