<?xml version="1.0" encoding="UTF-8" standalone="yes"?>
<!DOCTYPE svg PUBLIC "-//W3C//DTD SVG 1.0//EN" "http://www.w3.org/TR/2001/REC-SVG-20010904/DTD/svg10.dtd">
<!-- generated using polymake; Michael Joswig, Georg Loho, Benjamin Lorenz, Rico Raber; license CC BY-NC-ND 3.0; see polymake.org and matchthenet.de -->
<svg height="841pt" id="document" viewBox="0 -715.750496955201 572 715.750496955201" width="595pt" xmlns="http://www.w3.org/2000/svg" xmlns:svg="http://www.w3.org/2000/svg" xmlns:xlink="http://www.w3.org/1999/xlink">
	<title id="document_title">planar_net_</title>
	<polygon points="208.720142857672,-355.364512479384 309.129826123363,-355.364512479384 351.642122260938,-446.330490573549 242.624166463961,-459.855452050246 " style="fill: rgb(14,173,105); fill-opacity: 1; stroke: rgb(0,0,0); stroke-width: 3" />
	<polygon points="351.642122260929,-264.398534385206 309.129826123363,-355.364512479384 208.720142857672,-355.364512479384 242.62416646396,-250.873572908521 " style="fill: rgb(14,173,105); fill-opacity: 1; stroke: rgb(0,0,0); stroke-width: 3" />
	<polygon points="351.642122260938,-446.330490573549 309.129826123363,-355.364512479384 373.541082462316,-278.33663083673 431.950936769378,-371.374946540128 " style="fill: rgb(14,173,105); fill-opacity: 1; stroke: rgb(0,0,0); stroke-width: 3" />
	<polygon points="208.720142857672,-355.364512479384 242.624166463961,-459.855452050246 227.210013129902,-476.805810037501 157.932109131039,-450.473340119983 157.079760803917,-376.36463309603 " style="fill: rgb(14,173,105); fill-opacity: 1; stroke: rgb(0,0,0); stroke-width: 3" />
	<polygon points="242.624166463961,-459.855452050246 351.642122260938,-446.330490573549 354.481038720663,-502.005212646556 286.981509952227,-532.609796788003 233.794192966651,-480.996462597013 " style="fill: rgb(14,173,105); fill-opacity: 1; stroke: rgb(0,0,0); stroke-width: 3" />
	<polygon points="208.720142857672,-355.364512479384 157.079760803913,-334.364391862744 157.932109131027,-260.255684838802 227.210013129898,-233.923214921274 242.62416646396,-250.873572908521 " style="fill: rgb(14,173,105); fill-opacity: 1; stroke: rgb(0,0,0); stroke-width: 3" />
	<polygon points="351.642122260929,-264.398534385206 242.62416646396,-250.873572908521 233.794192966648,-229.732562361748 286.981509952198,-178.119228170759 354.481038720637,-208.723812312204 " style="fill: rgb(14,173,105); fill-opacity: 1; stroke: rgb(0,0,0); stroke-width: 3" />
	<polygon points="351.642122260938,-446.330490573549 431.950936769378,-371.374946540128 453.833258007166,-378.162786855594 459.308864253757,-452.073846181414 392.531084291135,-484.222797294891 " style="fill: rgb(14,173,105); fill-opacity: 1; stroke: rgb(0,0,0); stroke-width: 3" />
	<polygon points="431.950936769378,-371.374946540128 373.541082462316,-278.33663083673 422.777535864572,-252.19268735187 479.082223847519,-300.386141944515 454.842106980596,-370.423586848741 " style="fill: rgb(14,173,105); fill-opacity: 1; stroke: rgb(0,0,0); stroke-width: 3" />
	<polygon points="227.210013129902,-476.805810037501 228.062361457024,-550.914517061462 176.421979403271,-571.914637678109 142.517955796981,-467.423698107232 157.932109131039,-450.473340119983 " style="fill: rgb(14,173,105); fill-opacity: 1; stroke: rgb(0,0,0); stroke-width: 3" />
	<polygon points="286.981509952227,-532.609796788003 354.481038720663,-502.005212646556 407.668355706232,-553.618546837551 398.838382208923,-574.759557384323 289.820426411943,-588.284518860998 " style="fill: rgb(14,173,105); fill-opacity: 1; stroke: rgb(0,0,0); stroke-width: 3" />
	<polygon points="157.079760803917,-376.36463309603 157.932109131039,-450.473340119983 136.708938996334,-459.103972097734 50.2960194511731,-391.27590560031 87.8018568050543,-350.032163178511 " style="fill: rgb(14,173,105); fill-opacity: 1; stroke: rgb(0,0,0); stroke-width: 3" />
	<polygon points="157.932109131027,-260.255684838802 120.42627177714,-219.011942417004 206.839191322307,-151.183875919573 228.062361457015,-159.814507897322 227.210013129898,-233.923214921274 " style="fill: rgb(14,173,105); fill-opacity: 1; stroke: rgb(0,0,0); stroke-width: 3" />
	<polygon points="453.833258007166,-378.162786855594 520.611037969802,-346.01383574212 561.5,-383.906142463459 481.191185491531,-458.861686496876 459.308864253757,-452.073846181414 " style="fill: rgb(14,173,105); fill-opacity: 1; stroke: rgb(0,0,0); stroke-width: 3" />
	<polygon points="407.668355706191,-157.110478121218 354.481038720637,-208.723812312204 286.981509952198,-178.119228170759 288.148248164166,-155.238024512587 386.183195759231,-105.670007413564 " style="fill: rgb(14,173,105); fill-opacity: 1; stroke: rgb(0,0,0); stroke-width: 3" />
	<polygon points="142.517955796981,-467.423698107232 176.421979403271,-571.914637678109 76.0122961375758,-571.914637678112 33.5,-480.948659583944 " style="fill: rgb(14,173,105); fill-opacity: 1; stroke: rgb(0,0,0); stroke-width: 3" />
	<polygon points="156.582851877131,-53.5 206.839191322307,-151.183875919573 120.42627177714,-219.011942417004 85.8326222448195,-124.749628072657 " style="fill: rgb(14,173,105); fill-opacity: 1; stroke: rgb(0,0,0); stroke-width: 3" />
	<polygon points="289.820426411943,-588.284518860998 398.838382208923,-574.759557384323 432.742405815197,-679.250496955201 332.332722549499,-679.250496955172 " style="fill: rgb(14,173,105); fill-opacity: 1; stroke: rgb(0,0,0); stroke-width: 3" />
	<circle cx="208.720142857672" cy="-355.364512479384" r="2" style="fill: rgb(0,0,0)" />
	<circle cx="309.129826123363" cy="-355.364512479384" r="2" style="fill: rgb(0,0,0)" />
	<circle cx="351.642122260938" cy="-446.330490573549" r="2" style="fill: rgb(0,0,0)" />
	<circle cx="242.624166463961" cy="-459.855452050246" r="2" style="fill: rgb(0,0,0)" />
	<circle cx="242.62416646396" cy="-250.873572908521" r="2" style="fill: rgb(0,0,0)" />
	<circle cx="351.642122260929" cy="-264.398534385206" r="2" style="fill: rgb(0,0,0)" />
	<circle cx="373.541082462316" cy="-278.33663083673" r="2" style="fill: rgb(0,0,0)" />
	<circle cx="431.950936769378" cy="-371.374946540128" r="2" style="fill: rgb(0,0,0)" />
	<circle cx="227.210013129902" cy="-476.805810037501" r="2" style="fill: rgb(0,0,0)" />
	<circle cx="157.932109131039" cy="-450.473340119983" r="2" style="fill: rgb(0,0,0)" />
	<circle cx="157.079760803917" cy="-376.36463309603" r="2" style="fill: rgb(0,0,0)" />
	<circle cx="354.481038720663" cy="-502.005212646556" r="2" style="fill: rgb(0,0,0)" />
	<circle cx="286.981509952227" cy="-532.609796788003" r="2" style="fill: rgb(0,0,0)" />
	<circle cx="233.794192966651" cy="-480.996462597013" r="2" style="fill: rgb(0,0,0)" />
	<circle cx="157.079760803913" cy="-334.364391862744" r="2" style="fill: rgb(0,0,0)" />
	<circle cx="157.932109131027" cy="-260.255684838802" r="2" style="fill: rgb(0,0,0)" />
	<circle cx="227.210013129898" cy="-233.923214921274" r="2" style="fill: rgb(0,0,0)" />
	<circle cx="233.794192966648" cy="-229.732562361748" r="2" style="fill: rgb(0,0,0)" />
	<circle cx="286.981509952198" cy="-178.119228170759" r="2" style="fill: rgb(0,0,0)" />
	<circle cx="354.481038720637" cy="-208.723812312204" r="2" style="fill: rgb(0,0,0)" />
	<circle cx="453.833258007166" cy="-378.162786855594" r="2" style="fill: rgb(0,0,0)" />
	<circle cx="459.308864253757" cy="-452.073846181414" r="2" style="fill: rgb(0,0,0)" />
	<circle cx="392.531084291135" cy="-484.222797294891" r="2" style="fill: rgb(0,0,0)" />
	<circle cx="422.777535864572" cy="-252.19268735187" r="2" style="fill: rgb(0,0,0)" />
	<circle cx="479.082223847519" cy="-300.386141944515" r="2" style="fill: rgb(0,0,0)" />
	<circle cx="454.842106980596" cy="-370.423586848741" r="2" style="fill: rgb(0,0,0)" />
	<circle cx="228.062361457024" cy="-550.914517061462" r="2" style="fill: rgb(0,0,0)" />
	<circle cx="176.421979403271" cy="-571.914637678109" r="2" style="fill: rgb(0,0,0)" />
	<circle cx="142.517955796981" cy="-467.423698107232" r="2" style="fill: rgb(0,0,0)" />
	<circle cx="136.708938996334" cy="-459.103972097734" r="2" style="fill: rgb(0,0,0)" />
	<circle cx="50.2960194511731" cy="-391.27590560031" r="2" style="fill: rgb(0,0,0)" />
	<circle cx="87.8018568050543" cy="-350.032163178511" r="2" style="fill: rgb(0,0,0)" />
	<circle cx="407.668355706232" cy="-553.618546837551" r="2" style="fill: rgb(0,0,0)" />
	<circle cx="398.838382208923" cy="-574.759557384323" r="2" style="fill: rgb(0,0,0)" />
	<circle cx="289.820426411943" cy="-588.284518860998" r="2" style="fill: rgb(0,0,0)" />
	<circle cx="120.42627177714" cy="-219.011942417004" r="2" style="fill: rgb(0,0,0)" />
	<circle cx="206.839191322307" cy="-151.183875919573" r="2" style="fill: rgb(0,0,0)" />
	<circle cx="228.062361457015" cy="-159.814507897322" r="2" style="fill: rgb(0,0,0)" />
	<circle cx="288.148248164166" cy="-155.238024512587" r="2" style="fill: rgb(0,0,0)" />
	<circle cx="386.183195759231" cy="-105.670007413564" r="2" style="fill: rgb(0,0,0)" />
	<circle cx="407.668355706191" cy="-157.110478121218" r="2" style="fill: rgb(0,0,0)" />
	<circle cx="520.611037969802" cy="-346.01383574212" r="2" style="fill: rgb(0,0,0)" />
	<circle cx="561.5" cy="-383.906142463459" r="2" style="fill: rgb(0,0,0)" />
	<circle cx="481.191185491531" cy="-458.861686496876" r="2" style="fill: rgb(0,0,0)" />
	<circle cx="76.0122961375758" cy="-571.914637678112" r="2" style="fill: rgb(0,0,0)" />
	<circle cx="33.5" cy="-480.948659583944" r="2" style="fill: rgb(0,0,0)" />
	<circle cx="432.742405815197" cy="-679.250496955201" r="2" style="fill: rgb(0,0,0)" />
	<circle cx="332.332722549499" cy="-679.250496955172" r="2" style="fill: rgb(0,0,0)" />
	<circle cx="85.8326222448195" cy="-124.749628072657" r="2" style="fill: rgb(0,0,0)" />
	<circle cx="156.582851877131" cy="-53.5" r="2" style="fill: rgb(0,0,0)" />
	<!--
	Generated using the Perl SVG Module V2.87
	by Ronan Oger

	-->
</svg>