<?xml version="1.0" encoding="UTF-8" standalone="yes"?>
<!DOCTYPE svg PUBLIC "-//W3C//DTD SVG 1.0//EN" "http://www.w3.org/TR/2001/REC-SVG-20010904/DTD/svg10.dtd">
<!-- generated using polymake; Michael Joswig, Georg Loho, Benjamin Lorenz, Rico Raber; license CC BY-NC-SA 3.0; see polymake.org and matchthenet.de -->
<svg height="841pt" id="document" viewBox="0 -811 492.279126807098 811" width="595pt" xmlns="http://www.w3.org/2000/svg" xmlns:svg="http://www.w3.org/2000/svg" xmlns:xlink="http://www.w3.org/1999/xlink">
	<title id="document_title">planar_net_</title>
	<polygon points="318.073493377534,-413.999999999998 397.283638885704,-413.999999999998 350.174887651568,-477.678981686164 288.206728835636,-468.987074274654 " style="fill: rgb(67,184,206); fill-opacity: 1; stroke: rgb(0,0,0); stroke-width: 3" />
	<polygon points="318.073493377534,-413.999999999998 288.206728835637,-359.012925725342 350.174887651575,-350.321018313836 397.283638885704,-413.999999999998 " style="fill: rgb(67,184,206); fill-opacity: 1; stroke: rgb(0,0,0); stroke-width: 3" />
	<polygon points="350.174887651568,-477.678981686164 397.283638885704,-413.999999999998 420.459688544114,-489.743764585988 376.617648251252,-534.392140418113 " style="fill: rgb(67,184,206); fill-opacity: 1; stroke: rgb(0,0,0); stroke-width: 3" />
	<polygon points="318.073493377534,-413.999999999998 288.206728835636,-468.987074274654 252.211035641787,-424.111045873294 273.087857672431,-370.504085919523 " style="fill: rgb(67,184,206); fill-opacity: 1; stroke: rgb(0,0,0); stroke-width: 3" />
	<polygon points="420.459688544116,-338.256235414019 397.283638885704,-413.999999999998 350.174887651575,-350.321018313836 376.617648251262,-293.607859581886 " style="fill: rgb(67,184,206); fill-opacity: 1; stroke: rgb(0,0,0); stroke-width: 3" />
	<polygon points="288.206728835636,-468.987074274654 350.174887651568,-477.678981686164 358.387956702759,-539.712419913048 302.875905708052,-524.614074045192 " style="fill: rgb(67,184,206); fill-opacity: 1; stroke: rgb(0,0,0); stroke-width: 3" />
	<polygon points="420.459688544114,-489.743764585988 397.283638885704,-413.999999999998 471.959433481358,-440.415390455842 481.779126807098,-502.214869292447 " style="fill: rgb(67,184,206); fill-opacity: 1; stroke: rgb(0,0,0); stroke-width: 3" />
	<polygon points="252.211035641787,-424.111045873294 288.206728835636,-468.987074274654 39.1771635327667,-475.741535375418 " style="fill: rgb(14,173,105); fill-opacity: 1; stroke: rgb(0,0,0); stroke-width: 3" />
	<polygon points="350.174887651575,-350.321018313836 288.206728835637,-359.012925725342 302.875905708048,-303.385925954805 358.387956702754,-288.287580086949 " style="fill: rgb(67,184,206); fill-opacity: 1; stroke: rgb(0,0,0); stroke-width: 3" />
	<polygon points="288.206728835636,-468.987074274654 302.875905708052,-524.614074045192 134.670979488024,-665.170969668661 " style="fill: rgb(14,173,105); fill-opacity: 1; stroke: rgb(0,0,0); stroke-width: 3" />
	<polygon points="273.087857672431,-370.504085919523 252.211035641787,-424.111045873294 33.5,-438.760994695345 " style="fill: rgb(14,173,105); fill-opacity: 1; stroke: rgb(0,0,0); stroke-width: 3" />
	<polygon points="376.617648251252,-534.392140418113 420.459688544114,-489.743764585988 475.214462389761,-520.034302755533 430.061778123474,-555.682345578862 " style="fill: rgb(67,184,206); fill-opacity: 1; stroke: rgb(0,0,0); stroke-width: 3" />
	<polygon points="288.206728835637,-359.012925725342 134.670979488009,-162.829030331351 302.875905708048,-303.385925954805 " style="fill: rgb(14,173,105); fill-opacity: 1; stroke: rgb(0,0,0); stroke-width: 3" />
	<polygon points="302.875905708052,-524.614074045192 358.387956702759,-539.712419913048 161.024157792857,-691.72846518311 " style="fill: rgb(14,173,105); fill-opacity: 1; stroke: rgb(0,0,0); stroke-width: 3" />
	<polygon points="475.214462389761,-307.965697244468 420.459688544116,-338.256235414019 376.617648251262,-293.607859581886 430.061778123482,-272.317654421136 " style="fill: rgb(67,184,206); fill-opacity: 1; stroke: rgb(0,0,0); stroke-width: 3" />
	<polygon points="376.617648251252,-534.392140418113 430.061778123474,-555.682345578862 443.022188056183,-774.5 " style="fill: rgb(14,173,105); fill-opacity: 1; stroke: rgb(0,0,0); stroke-width: 3" />
	<polygon points="302.875905708048,-303.385925954805 161.024157792859,-136.271534816885 358.387956702754,-288.287580086949 " style="fill: rgb(14,173,105); fill-opacity: 1; stroke: rgb(0,0,0); stroke-width: 3" />
	<polygon points="430.061778123482,-272.317654421136 376.617648251262,-293.607859581886 443.022188056185,-53.5 " style="fill: rgb(14,173,105); fill-opacity: 1; stroke: rgb(0,0,0); stroke-width: 3" />
	<polygon points="430.061778123474,-555.682345578862 475.214462389761,-520.034302755533 480.045470524244,-769.1086059265 " style="fill: rgb(14,173,105); fill-opacity: 1; stroke: rgb(0,0,0); stroke-width: 3" />
	<polygon points="475.214462389761,-307.965697244468 430.061778123482,-272.317654421136 480.045470524283,-58.8913940735063 " style="fill: rgb(14,173,105); fill-opacity: 1; stroke: rgb(0,0,0); stroke-width: 3" />
	<circle cx="318.073493377534" cy="-413.999999999998" r="2" style="fill: rgb(0,0,0)" />
	<circle cx="397.283638885704" cy="-413.999999999998" r="2" style="fill: rgb(0,0,0)" />
	<circle cx="350.174887651568" cy="-477.678981686164" r="2" style="fill: rgb(0,0,0)" />
	<circle cx="288.206728835636" cy="-468.987074274654" r="2" style="fill: rgb(0,0,0)" />
	<circle cx="288.206728835637" cy="-359.012925725342" r="2" style="fill: rgb(0,0,0)" />
	<circle cx="350.174887651575" cy="-350.321018313836" r="2" style="fill: rgb(0,0,0)" />
	<circle cx="420.459688544114" cy="-489.743764585988" r="2" style="fill: rgb(0,0,0)" />
	<circle cx="376.617648251252" cy="-534.392140418113" r="2" style="fill: rgb(0,0,0)" />
	<circle cx="252.211035641787" cy="-424.111045873294" r="2" style="fill: rgb(0,0,0)" />
	<circle cx="273.087857672431" cy="-370.504085919523" r="2" style="fill: rgb(0,0,0)" />
	<circle cx="358.387956702759" cy="-539.712419913048" r="2" style="fill: rgb(0,0,0)" />
	<circle cx="302.875905708052" cy="-524.614074045192" r="2" style="fill: rgb(0,0,0)" />
	<circle cx="376.617648251262" cy="-293.607859581886" r="2" style="fill: rgb(0,0,0)" />
	<circle cx="420.459688544116" cy="-338.256235414019" r="2" style="fill: rgb(0,0,0)" />
	<circle cx="302.875905708048" cy="-303.385925954805" r="2" style="fill: rgb(0,0,0)" />
	<circle cx="358.387956702754" cy="-288.287580086949" r="2" style="fill: rgb(0,0,0)" />
	<circle cx="471.959433481358" cy="-440.415390455842" r="2" style="fill: rgb(0,0,0)" />
	<circle cx="481.779126807098" cy="-502.214869292447" r="2" style="fill: rgb(0,0,0)" />
	<circle cx="475.214462389761" cy="-520.034302755533" r="2" style="fill: rgb(0,0,0)" />
	<circle cx="430.061778123474" cy="-555.682345578862" r="2" style="fill: rgb(0,0,0)" />
	<circle cx="39.1771635327667" cy="-475.741535375418" r="2" style="fill: rgb(0,0,0)" />
	<circle cx="33.5" cy="-438.760994695345" r="2" style="fill: rgb(0,0,0)" />
	<circle cx="134.670979488024" cy="-665.170969668661" r="2" style="fill: rgb(0,0,0)" />
	<circle cx="161.024157792857" cy="-691.72846518311" r="2" style="fill: rgb(0,0,0)" />
	<circle cx="430.061778123482" cy="-272.317654421136" r="2" style="fill: rgb(0,0,0)" />
	<circle cx="475.214462389761" cy="-307.965697244468" r="2" style="fill: rgb(0,0,0)" />
	<circle cx="134.670979488009" cy="-162.829030331351" r="2" style="fill: rgb(0,0,0)" />
	<circle cx="161.024157792859" cy="-136.271534816885" r="2" style="fill: rgb(0,0,0)" />
	<circle cx="443.022188056183" cy="-774.5" r="2" style="fill: rgb(0,0,0)" />
	<circle cx="480.045470524244" cy="-769.1086059265" r="2" style="fill: rgb(0,0,0)" />
	<circle cx="443.022188056185" cy="-53.5" r="2" style="fill: rgb(0,0,0)" />
	<circle cx="480.045470524283" cy="-58.8913940735063" r="2" style="fill: rgb(0,0,0)" />
	<!-- 
	Generated using the Perl SVG Module V2.64
	by Ronan Oger
	Info: http://www.roitsystems.com/
 -->
</svg>