<?xml version="1.0" encoding="UTF-8" standalone="yes"?>
<!DOCTYPE svg PUBLIC "-//W3C//DTD SVG 1.0//EN" "http://www.w3.org/TR/2001/REC-SVG-20010904/DTD/svg10.dtd">
<!-- generated using polymake; Michael Joswig, Georg Loho, Benjamin Lorenz, Rico Raber; license CC BY-NC-ND 3.0; see polymake.org and matchthenet.de -->
<svg height="841pt" id="document" viewBox="0 -708.470236936989 572 708.470236936989" width="595pt" xmlns="http://www.w3.org/2000/svg" xmlns:svg="http://www.w3.org/2000/svg" xmlns:xlink="http://www.w3.org/1999/xlink">
	<title id="document_title">planar_net_</title>
	<polygon points="254.154575774333,-314.943633560867 337.204968765035,-314.943633560867 362.868951588684,-393.929250995549 295.679772269698,-442.745047192586 228.490592950701,-393.929250995556 " style="fill: rgb(186,59,38); fill-opacity: 1; stroke: rgb(0,0,0); stroke-width: 3" />
	<polygon points="295.679772269683,-243.019883436631 337.204968765035,-314.943633560867 254.154575774333,-314.943633560867 " style="fill: rgb(186,59,38); fill-opacity: 1; stroke: rgb(0,0,0); stroke-width: 3" />
	<polygon points="228.490592950701,-393.929250995556 295.679772269698,-442.745047192586 246.86397607267,-509.934226511586 179.674796753674,-461.118430314562 " style="fill: rgb(186,59,38); fill-opacity: 1; stroke: rgb(0,0,0); stroke-width: 3" />
	<polygon points="351.251332089897,-181.301413631724 284.062152770907,-132.485617434682 309.726135594558,-53.5 392.776528585264,-53.5000000000113 418.44051140891,-132.485617434698 " style="fill: rgb(186,59,38); fill-opacity: 1; stroke: rgb(0,0,0); stroke-width: 3" />
	<polygon points="362.868951588684,-393.929250995549 337.204968765035,-314.943633560867 418.440511408894,-332.210781190641 " style="fill: rgb(186,59,38); fill-opacity: 1; stroke: rgb(0,0,0); stroke-width: 3" />
	<polygon points="427.121641361988,-215.081051682891 351.251332089897,-181.301413631724 418.44051140891,-132.485617434698 " style="fill: rgb(186,59,38); fill-opacity: 1; stroke: rgb(0,0,0); stroke-width: 3" />
	<polygon points="329.459410320865,-518.615356464674 320.778280367778,-601.21079071287 238.182846119587,-592.529660759784 246.86397607267,-509.934226511586 " style="fill: rgb(186,59,38); fill-opacity: 1; stroke: rgb(0,0,0); stroke-width: 3" />
	<polygon points="138.149600258331,-588.919843946283 138.149600258349,-671.970236936989 66.2258501341106,-630.445040441654 " style="fill: rgb(186,59,38); fill-opacity: 1; stroke: rgb(0,0,0); stroke-width: 3" />
	<polygon points="418.44051140891,-132.485617434698 392.776528585264,-53.5000000000113 474.01207122912,-70.7671476297879 " style="fill: rgb(186,59,38); fill-opacity: 1; stroke: rgb(0,0,0); stroke-width: 3" />
	<polygon points="485.629690727909,-448.585853489996 494.310820680989,-365.990419241804 561.5,-414.806215438821 " style="fill: rgb(186,59,38); fill-opacity: 1; stroke: rgb(0,0,0); stroke-width: 3" />
	<polygon points="320.778280367778,-601.21079071287 271.962484170755,-668.399970031871 238.182846119587,-592.529660759784 " style="fill: rgb(186,59,38); fill-opacity: 1; stroke: rgb(0,0,0); stroke-width: 3" />
	<polygon points="427.121641361988,-215.081051682891 418.44051140891,-132.485617434698 494.310820681015,-98.7059793835359 549.882380501214,-160.424449188443 508.357184005838,-232.348199312676 " style="fill: rgb(186,59,38); fill-opacity: 1; stroke: rgb(0,0,0); stroke-width: 3" />
	<polygon points="138.149600258331,-588.919843946283 221.199993249029,-588.919843946275 221.199993249032,-671.970236936985 138.149600258349,-671.970236936989 " style="fill: rgb(186,59,38); fill-opacity: 1; stroke: rgb(0,0,0); stroke-width: 3" />
	<polygon points="418.440511408891,-297.676485931091 427.121641361988,-215.081051682891 494.310820680986,-263.896847879932 " style="fill: rgb(186,59,38); fill-opacity: 1; stroke: rgb(0,0,0); stroke-width: 3" />
	<polygon points="362.868951588684,-393.929250995549 418.440511408894,-332.210781190641 494.310820680989,-365.990419241804 485.629690727909,-448.585853489996 404.394148084049,-465.853001119775 " style="fill: rgb(186,59,38); fill-opacity: 1; stroke: rgb(0,0,0); stroke-width: 3" />
	<polygon points="295.679772269698,-442.745047192586 329.459410320865,-518.615356464674 246.86397607267,-509.934226511586 " style="fill: rgb(186,59,38); fill-opacity: 1; stroke: rgb(0,0,0); stroke-width: 3" />
	<polygon points="295.679772269698,-442.745047192586 362.868951588684,-393.929250995549 371.550081541795,-476.524685243744 " style="fill: rgb(186,59,38); fill-opacity: 1; stroke: rgb(0,0,0); stroke-width: 3" />
	<polygon points="112.485617434685,-509.934226511597 138.149600258331,-588.919843946283 59.1639828236457,-614.583826769936 33.5,-535.598209335252 " style="fill: rgb(186,59,38); fill-opacity: 1; stroke: rgb(0,0,0); stroke-width: 3" />
	<polygon points="179.674796753674,-461.118430314562 246.86397607267,-509.934226511586 221.199993249029,-588.919843946275 138.149600258331,-588.919843946283 112.485617434685,-509.934226511597 " style="fill: rgb(186,59,38); fill-opacity: 1; stroke: rgb(0,0,0); stroke-width: 3" />
	<polygon points="351.251332089897,-181.301413631724 295.679772269683,-243.019883436631 270.015789446048,-164.034266001939 " style="fill: rgb(186,59,38); fill-opacity: 1; stroke: rgb(0,0,0); stroke-width: 3" />
	<polygon points="418.440511408891,-297.676485931091 337.204968765035,-314.943633560867 295.679772269683,-243.019883436631 351.251332089897,-181.301413631724 427.121641361988,-215.081051682891 " style="fill: rgb(186,59,38); fill-opacity: 1; stroke: rgb(0,0,0); stroke-width: 3" />
	<polygon points="97.0487238583709,-166.265255485867 172.919033130457,-132.48561743471 164.237903177368,-215.081051682904 " style="fill: rgb(186,59,38); fill-opacity: 1; stroke: rgb(0,0,0); stroke-width: 3" />
	<polygon points="240.108212449458,-181.301413631735 164.237903177368,-215.081051682904 172.919033130457,-132.48561743471 " style="fill: rgb(186,59,38); fill-opacity: 1; stroke: rgb(0,0,0); stroke-width: 3" />
	<polygon points="228.490592950701,-393.929250995556 179.674796753674,-461.118430314562 145.895158702497,-385.248121042477 " style="fill: rgb(186,59,38); fill-opacity: 1; stroke: rgb(0,0,0); stroke-width: 3" />
	<polygon points="254.154575774333,-314.943633560867 228.490592950701,-393.929250995556 172.91903313048,-332.210781190662 " style="fill: rgb(186,59,38); fill-opacity: 1; stroke: rgb(0,0,0); stroke-width: 3" />
	<polygon points="90.3235988822765,-306.357615884206 81.6424689291572,-223.76218163603 164.237903177368,-215.081051682904 172.919033130474,-297.676485931095 " style="fill: rgb(186,59,38); fill-opacity: 1; stroke: rgb(0,0,0); stroke-width: 3" />
	<polygon points="254.154575774333,-314.943633560867 172.919033130474,-297.676485931095 164.237903177368,-215.081051682904 240.108212449458,-181.301413631735 295.679772269683,-243.019883436631 " style="fill: rgb(186,59,38); fill-opacity: 1; stroke: rgb(0,0,0); stroke-width: 3" />
	<circle cx="254.154575774333" cy="-314.943633560867" r="2" style="fill: rgb(0,0,0)" />
	<circle cx="337.204968765035" cy="-314.943633560867" r="2" style="fill: rgb(0,0,0)" />
	<circle cx="362.868951588684" cy="-393.929250995549" r="2" style="fill: rgb(0,0,0)" />
	<circle cx="295.679772269698" cy="-442.745047192586" r="2" style="fill: rgb(0,0,0)" />
	<circle cx="228.490592950701" cy="-393.929250995556" r="2" style="fill: rgb(0,0,0)" />
	<circle cx="295.679772269683" cy="-243.019883436631" r="2" style="fill: rgb(0,0,0)" />
	<circle cx="246.86397607267" cy="-509.934226511586" r="2" style="fill: rgb(0,0,0)" />
	<circle cx="179.674796753674" cy="-461.118430314562" r="2" style="fill: rgb(0,0,0)" />
	<circle cx="418.440511408894" cy="-332.210781190641" r="2" style="fill: rgb(0,0,0)" />
	<circle cx="371.550081541795" cy="-476.524685243744" r="2" style="fill: rgb(0,0,0)" />
	<circle cx="172.91903313048" cy="-332.210781190662" r="2" style="fill: rgb(0,0,0)" />
	<circle cx="351.251332089897" cy="-181.301413631724" r="2" style="fill: rgb(0,0,0)" />
	<circle cx="427.121641361988" cy="-215.081051682891" r="2" style="fill: rgb(0,0,0)" />
	<circle cx="418.440511408891" cy="-297.676485931091" r="2" style="fill: rgb(0,0,0)" />
	<circle cx="172.919033130474" cy="-297.676485931095" r="2" style="fill: rgb(0,0,0)" />
	<circle cx="164.237903177368" cy="-215.081051682904" r="2" style="fill: rgb(0,0,0)" />
	<circle cx="240.108212449458" cy="-181.301413631735" r="2" style="fill: rgb(0,0,0)" />
	<circle cx="329.459410320865" cy="-518.615356464674" r="2" style="fill: rgb(0,0,0)" />
	<circle cx="221.199993249029" cy="-588.919843946275" r="2" style="fill: rgb(0,0,0)" />
	<circle cx="138.149600258331" cy="-588.919843946283" r="2" style="fill: rgb(0,0,0)" />
	<circle cx="112.485617434685" cy="-509.934226511597" r="2" style="fill: rgb(0,0,0)" />
	<circle cx="145.895158702497" cy="-385.248121042477" r="2" style="fill: rgb(0,0,0)" />
	<circle cx="494.310820680989" cy="-365.990419241804" r="2" style="fill: rgb(0,0,0)" />
	<circle cx="485.629690727909" cy="-448.585853489996" r="2" style="fill: rgb(0,0,0)" />
	<circle cx="404.394148084049" cy="-465.853001119775" r="2" style="fill: rgb(0,0,0)" />
	<circle cx="418.44051140891" cy="-132.485617434698" r="2" style="fill: rgb(0,0,0)" />
	<circle cx="494.310820680986" cy="-263.896847879932" r="2" style="fill: rgb(0,0,0)" />
	<circle cx="270.015789446048" cy="-164.034266001939" r="2" style="fill: rgb(0,0,0)" />
	<circle cx="172.919033130457" cy="-132.48561743471" r="2" style="fill: rgb(0,0,0)" />
	<circle cx="90.3235988822765" cy="-306.357615884206" r="2" style="fill: rgb(0,0,0)" />
	<circle cx="81.6424689291572" cy="-223.76218163603" r="2" style="fill: rgb(0,0,0)" />
	<circle cx="320.778280367778" cy="-601.21079071287" r="2" style="fill: rgb(0,0,0)" />
	<circle cx="238.182846119587" cy="-592.529660759784" r="2" style="fill: rgb(0,0,0)" />
	<circle cx="221.199993249032" cy="-671.970236936985" r="2" style="fill: rgb(0,0,0)" />
	<circle cx="138.149600258349" cy="-671.970236936989" r="2" style="fill: rgb(0,0,0)" />
	<circle cx="59.1639828236457" cy="-614.583826769936" r="2" style="fill: rgb(0,0,0)" />
	<circle cx="33.5" cy="-535.598209335252" r="2" style="fill: rgb(0,0,0)" />
	<circle cx="561.5" cy="-414.806215438821" r="2" style="fill: rgb(0,0,0)" />
	<circle cx="284.062152770907" cy="-132.485617434682" r="2" style="fill: rgb(0,0,0)" />
	<circle cx="309.726135594558" cy="-53.5" r="2" style="fill: rgb(0,0,0)" />
	<circle cx="392.776528585264" cy="-53.5000000000113" r="2" style="fill: rgb(0,0,0)" />
	<circle cx="494.310820681015" cy="-98.7059793835359" r="2" style="fill: rgb(0,0,0)" />
	<circle cx="549.882380501214" cy="-160.424449188443" r="2" style="fill: rgb(0,0,0)" />
	<circle cx="508.357184005838" cy="-232.348199312676" r="2" style="fill: rgb(0,0,0)" />
	<circle cx="97.0487238583709" cy="-166.265255485867" r="2" style="fill: rgb(0,0,0)" />
	<circle cx="271.962484170755" cy="-668.399970031871" r="2" style="fill: rgb(0,0,0)" />
	<circle cx="66.2258501341106" cy="-630.445040441654" r="2" style="fill: rgb(0,0,0)" />
	<circle cx="474.01207122912" cy="-70.7671476297879" r="2" style="fill: rgb(0,0,0)" />
	<!--
	Generated using the Perl SVG Module V2.86
	by Ronan Oger
	Info: http://www.roitsystems.com/
	-->
</svg>