<?xml version="1.0" encoding="UTF-8" standalone="yes"?>
<!DOCTYPE svg PUBLIC "-//W3C//DTD SVG 1.0//EN" "http://www.w3.org/TR/2001/REC-SVG-20010904/DTD/svg10.dtd">
<!-- generated using polymake; Michael Joswig, Georg Loho, Benjamin Lorenz, Rico Raber; license CC BY-NC-SA 3.0; see polymake.org and matchthenet.de -->
<svg height="841pt" id="document" viewBox="0 -655.780085188412 572 655.780085188412" width="595pt" xmlns="http://www.w3.org/2000/svg" xmlns:svg="http://www.w3.org/2000/svg" xmlns:xlink="http://www.w3.org/1999/xlink">
	<title id="document_title">planar_net_</title>
	<polygon points="265.376245053979,-326.368233585616 322.084877776685,-326.368233585616 299.600141866955,-378.428829782247 236.876868959866,-382.382768847043 " style="fill: rgb(67,184,206); fill-opacity: 1; stroke: rgb(0,0,0); stroke-width: 3" />
	<polygon points="265.376245053979,-326.368233585616 236.876868959853,-270.353698324203 299.600141866939,-274.30763738898 322.084877776685,-326.368233585616 " style="fill: rgb(67,184,206); fill-opacity: 1; stroke: rgb(0,0,0); stroke-width: 3" />
	<polygon points="299.600141866955,-378.428829782247 322.084877776685,-326.368233585616 360.963302834102,-367.651851284818 339.723647708558,-426.801827180446 " style="fill: rgb(67,184,206); fill-opacity: 1; stroke: rgb(0,0,0); stroke-width: 3" />
	<polygon points="265.376245053979,-326.368233585616 236.876868959866,-382.382768847043 196.753547343901,-330.432172112006 230.464734001634,-274.10898565427 " style="fill: rgb(67,184,206); fill-opacity: 1; stroke: rgb(0,0,0); stroke-width: 3" />
	<polygon points="360.96330283409,-285.084615886391 322.084877776685,-326.368233585616 299.600141866939,-274.30763738898 339.723647708514,-225.934639990764 " style="fill: rgb(67,184,206); fill-opacity: 1; stroke: rgb(0,0,0); stroke-width: 3" />
	<polygon points="236.876868959866,-382.382768847043 299.600141866955,-378.428829782247 333.733772055821,-431.199445549318 268.660684966427,-439.815638170154 " style="fill: rgb(67,184,206); fill-opacity: 1; stroke: rgb(0,0,0); stroke-width: 3" />
	<polygon points="360.963302834102,-367.651851284818 322.084877776685,-326.368233585616 375.399879839252,-307.0452012059 421.280283737428,-349.996698693714 " style="fill: rgb(67,184,206); fill-opacity: 1; stroke: rgb(0,0,0); stroke-width: 3" />
	<polygon points="196.753547343901,-330.432172112006 236.876868959866,-382.382768847043 200.454030562004,-393.661758322438 174.601056655433,-366.90664610944 186.818718587367,-331.764918402049 " style="fill: rgb(255,210,63); fill-opacity: 1; stroke: rgb(0,0,0); stroke-width: 3" />
	<polygon points="299.600141866939,-274.30763738898 236.876868959853,-270.353698324203 268.660684966394,-212.920829001078 333.733772055786,-221.537021621881 " style="fill: rgb(67,184,206); fill-opacity: 1; stroke: rgb(0,0,0); stroke-width: 3" />
	<polygon points="236.876868959866,-382.382768847043 268.660684966427,-439.815638170154 263.498057103943,-448.407745516369 226.39241556803,-445.690457244584 212.080841414671,-411.348192692044 " style="fill: rgb(255,210,63); fill-opacity: 1; stroke: rgb(0,0,0); stroke-width: 3" />
	<polygon points="230.464734001634,-274.10898565427 196.753547343901,-330.432172112006 186.730858847367,-330.281339765337 170.450852437711,-296.827286488562 192.965237748968,-267.207787110616 " style="fill: rgb(255,210,63); fill-opacity: 1; stroke: rgb(0,0,0); stroke-width: 3" />
	<polygon points="339.723647708558,-426.801827180446 360.963302834102,-367.651851284818 422.942497362041,-357.239260638195 405.051269791604,-420.395015836328 " style="fill: rgb(67,184,206); fill-opacity: 1; stroke: rgb(0,0,0); stroke-width: 3" />
	<polygon points="236.876868959853,-270.353698324203 212.08084141465,-241.388274479204 226.392415568001,-207.046009926659 263.49805710391,-204.328721654869 268.660684966394,-212.920829001078 " style="fill: rgb(255,210,63); fill-opacity: 1; stroke: rgb(0,0,0); stroke-width: 3" />
	<polygon points="268.660684966427,-439.815638170154 333.733772055821,-431.199445549318 325.200930826866,-468.361649212508 289.082288810401,-477.286669561507 264.825200462327,-449.076636696991 " style="fill: rgb(255,210,63); fill-opacity: 1; stroke: rgb(0,0,0); stroke-width: 3" />
	<polygon points="422.942497362048,-295.497206532974 360.96330283409,-285.084615886391 339.723647708514,-225.934639990764 405.051269791568,-232.341451334846 " style="fill: rgb(67,184,206); fill-opacity: 1; stroke: rgb(0,0,0); stroke-width: 3" />
	<polygon points="339.723647708558,-426.801827180446 405.051269791604,-420.395015836328 410.892177798694,-428.541231445314 393.685376094716,-461.528172262304 356.483443490305,-461.050155692897 " style="fill: rgb(255,210,63); fill-opacity: 1; stroke: rgb(0,0,0); stroke-width: 3" />
	<polygon points="268.660684966394,-212.920829001078 264.825200462294,-203.659830474235 289.082288810355,-175.449797609711 325.200930826814,-184.374817958699 333.733772055786,-221.537021621881 " style="fill: rgb(255,210,63); fill-opacity: 1; stroke: rgb(0,0,0); stroke-width: 3" />
	<polygon points="405.051269791568,-232.341451334846 339.723647708514,-225.934639990764 356.48344349025,-191.686311478302 393.685376094661,-191.208294908882 410.892177798649,-224.195235725864 " style="fill: rgb(255,210,63); fill-opacity: 1; stroke: rgb(0,0,0); stroke-width: 3" />
	<polygon points="405.051269791604,-420.395015836328 422.942497362041,-357.239260638195 453.675521831447,-379.80737902467 447.548125877087,-416.504344950506 412.032451130579,-427.588077924725 " style="fill: rgb(255,210,63); fill-opacity: 1; stroke: rgb(0,0,0); stroke-width: 3" />
	<polygon points="422.942497362048,-295.497206532974 405.051269791568,-232.341451334846 412.032451130549,-225.148389246442 447.548125877062,-236.232122220649 453.675521831437,-272.929088146486 " style="fill: rgb(255,210,63); fill-opacity: 1; stroke: rgb(0,0,0); stroke-width: 3" />
	<polygon points="200.454030562004,-393.661758322438 188.23636863007,-428.803486029833 178.301539873533,-430.136232319882 138.178218257572,-378.185635584844 174.601056655433,-366.90664610944 " style="fill: rgb(255,210,63); fill-opacity: 1; stroke: rgb(0,0,0); stroke-width: 3" />
	<polygon points="263.498057103943,-448.407745516369 277.809631257302,-482.750010068909 253.013603712114,-511.715433913916 221.229787705549,-454.282564590799 226.39241556803,-445.690457244584 " style="fill: rgb(255,210,63); fill-opacity: 1; stroke: rgb(0,0,0); stroke-width: 3" />
	<polygon points="186.818718587367,-331.764918402049 174.601056655433,-366.90664610944 136.81034227444,-371.976228648178 151.390517849623,-307.974948045212 160.965744680789,-305.009806189063 " style="fill: rgb(255,210,63); fill-opacity: 1; stroke: rgb(0,0,0); stroke-width: 3" />
	<polygon points="192.965237748968,-267.207787110616 170.450852437711,-296.827286488562 160.592582229563,-295.013025317027 138.560310660312,-233.179988450629 176.685231339299,-233.753733833858 " style="fill: rgb(255,210,63); fill-opacity: 1; stroke: rgb(0,0,0); stroke-width: 3" />
	<polygon points="289.082288810401,-477.286669561507 325.200930826866,-468.361649212508 349.458019174947,-496.571682077025 345.622534670852,-505.832680603868 280.549447581455,-514.448873224697 " style="fill: rgb(255,210,63); fill-opacity: 1; stroke: rgb(0,0,0); stroke-width: 3" />
	<polygon points="410.892177798694,-428.541231445314 448.094110403105,-429.01924801472 464.853906184861,-463.267576527167 399.526284101808,-469.674387871286 393.685376094716,-461.528172262304 " style="fill: rgb(255,210,63); fill-opacity: 1; stroke: rgb(0,0,0); stroke-width: 3" />
	<polygon points="226.392415568001,-207.046009926659 206.754493285929,-174.362822062159 271.290985300456,-162.371715479303 277.809631257249,-169.986457102323 263.49805710391,-204.328721654869 " style="fill: rgb(255,210,63); fill-opacity: 1; stroke: rgb(0,0,0); stroke-width: 3" />
	<polygon points="349.458019174857,-156.164785094172 325.200930826814,-184.374817958699 289.082288810355,-175.449797609711 286.839083890703,-165.680198499007 334.868366654483,-120.937227701151 " style="fill: rgb(255,210,63); fill-opacity: 1; stroke: rgb(0,0,0); stroke-width: 3" />
	<polygon points="447.548125877087,-416.504344950506 453.675521831447,-379.80737902467 489.191196577957,-368.723646050446 496.172377916942,-375.916708138844 478.281150346495,-439.072463336971 " style="fill: rgb(255,210,63); fill-opacity: 1; stroke: rgb(0,0,0); stroke-width: 3" />
	<polygon points="410.892177798649,-224.195235725864 393.685376094661,-191.208294908882 415.903382225486,-160.221217535991 452.500105468604,-214.71365083172 448.094110403058,-223.717219156432 " style="fill: rgb(255,210,63); fill-opacity: 1; stroke: rgb(0,0,0); stroke-width: 3" />
	<polygon points="151.390517849623,-307.974948045212 136.81034227444,-371.976228648178 87.4121968536485,-333.121810272745 97.1332966370399,-271.030403320533 " style="fill: rgb(67,184,206); fill-opacity: 1; stroke: rgb(0,0,0); stroke-width: 3" />
	<polygon points="271.290985300456,-162.371715479303 206.754493285929,-174.362822062159 222.838110320779,-113.607905706499 283.694665316144,-97.913246984517 " style="fill: rgb(67,184,206); fill-opacity: 1; stroke: rgb(0,0,0); stroke-width: 3" />
	<polygon points="478.281150346495,-439.072463336971 496.172377916942,-375.916708138844 561.5,-369.509896794741 540.260344874437,-428.659872690359 " style="fill: rgb(67,184,206); fill-opacity: 1; stroke: rgb(0,0,0); stroke-width: 3" />
	<polygon points="280.549447581455,-514.448873224697 345.622534670852,-505.832680603868 377.406350677407,-563.265549926992 314.683077770317,-567.219488991773 " style="fill: rgb(67,184,206); fill-opacity: 1; stroke: rgb(0,0,0); stroke-width: 3" />
	<polygon points="178.301539873533,-430.136232319882 144.590353215785,-486.459418777608 109.678842163463,-434.200170846264 138.178218257572,-378.185635584844 " style="fill: rgb(67,184,206); fill-opacity: 1; stroke: rgb(0,0,0); stroke-width: 3" />
	<polygon points="97.1332966370399,-271.030403320533 87.4121968536485,-333.121810272745 33.5,-350.709989703629 38.7293696240657,-294.242984128596 " style="fill: rgb(67,184,206); fill-opacity: 1; stroke: rgb(0,0,0); stroke-width: 3" />
	<polygon points="239.227755252592,-53.5 283.694665316144,-97.913246984517 222.838110320779,-113.607905706499 185.315558398975,-71.0881794308621 " style="fill: rgb(67,184,206); fill-opacity: 1; stroke: rgb(0,0,0); stroke-width: 3" />
	<polygon points="314.683077770317,-567.219488991773 377.406350677407,-563.265549926992 348.906974583285,-619.280085188407 292.198341860591,-619.280085188412 " style="fill: rgb(67,184,206); fill-opacity: 1; stroke: rgb(0,0,0); stroke-width: 3" />
	<polygon points="144.590353215785,-486.459418777608 81.8388273122264,-489.936284475552 53.3665945864554,-440.893435976638 109.678842163463,-434.200170846264 " style="fill: rgb(67,184,206); fill-opacity: 1; stroke: rgb(0,0,0); stroke-width: 3" />
	<polygon points="138.178218257572,-378.185635584844 109.678842163463,-434.200170846264 52.970209440751,-434.200170846284 75.4549453504647,-382.139574649653 " style="fill: rgb(67,184,206); fill-opacity: 1; stroke: rgb(0,0,0); stroke-width: 3" />
	<circle cx="265.376245053979" cy="-326.368233585616" r="2" style="fill: rgb(0,0,0)" />
	<circle cx="322.084877776685" cy="-326.368233585616" r="2" style="fill: rgb(0,0,0)" />
	<circle cx="299.600141866955" cy="-378.428829782247" r="2" style="fill: rgb(0,0,0)" />
	<circle cx="236.876868959866" cy="-382.382768847043" r="2" style="fill: rgb(0,0,0)" />
	<circle cx="236.876868959853" cy="-270.353698324203" r="2" style="fill: rgb(0,0,0)" />
	<circle cx="299.600141866939" cy="-274.30763738898" r="2" style="fill: rgb(0,0,0)" />
	<circle cx="360.963302834102" cy="-367.651851284818" r="2" style="fill: rgb(0,0,0)" />
	<circle cx="339.723647708558" cy="-426.801827180446" r="2" style="fill: rgb(0,0,0)" />
	<circle cx="196.753547343901" cy="-330.432172112006" r="2" style="fill: rgb(0,0,0)" />
	<circle cx="230.464734001634" cy="-274.10898565427" r="2" style="fill: rgb(0,0,0)" />
	<circle cx="333.733772055821" cy="-431.199445549318" r="2" style="fill: rgb(0,0,0)" />
	<circle cx="268.660684966427" cy="-439.815638170154" r="2" style="fill: rgb(0,0,0)" />
	<circle cx="339.723647708514" cy="-225.934639990764" r="2" style="fill: rgb(0,0,0)" />
	<circle cx="360.96330283409" cy="-285.084615886391" r="2" style="fill: rgb(0,0,0)" />
	<circle cx="268.660684966394" cy="-212.920829001078" r="2" style="fill: rgb(0,0,0)" />
	<circle cx="333.733772055786" cy="-221.537021621881" r="2" style="fill: rgb(0,0,0)" />
	<circle cx="375.399879839252" cy="-307.0452012059" r="2" style="fill: rgb(0,0,0)" />
	<circle cx="421.280283737428" cy="-349.996698693714" r="2" style="fill: rgb(0,0,0)" />
	<circle cx="422.942497362041" cy="-357.239260638195" r="2" style="fill: rgb(0,0,0)" />
	<circle cx="405.051269791604" cy="-420.395015836328" r="2" style="fill: rgb(0,0,0)" />
	<circle cx="200.454030562004" cy="-393.661758322438" r="2" style="fill: rgb(0,0,0)" />
	<circle cx="174.601056655433" cy="-366.90664610944" r="2" style="fill: rgb(0,0,0)" />
	<circle cx="186.818718587367" cy="-331.764918402049" r="2" style="fill: rgb(0,0,0)" />
	<circle cx="186.730858847367" cy="-330.281339765337" r="2" style="fill: rgb(0,0,0)" />
	<circle cx="170.450852437711" cy="-296.827286488562" r="2" style="fill: rgb(0,0,0)" />
	<circle cx="192.965237748968" cy="-267.207787110616" r="2" style="fill: rgb(0,0,0)" />
	<circle cx="263.498057103943" cy="-448.407745516369" r="2" style="fill: rgb(0,0,0)" />
	<circle cx="226.39241556803" cy="-445.690457244584" r="2" style="fill: rgb(0,0,0)" />
	<circle cx="212.080841414671" cy="-411.348192692044" r="2" style="fill: rgb(0,0,0)" />
	<circle cx="325.200930826866" cy="-468.361649212508" r="2" style="fill: rgb(0,0,0)" />
	<circle cx="289.082288810401" cy="-477.286669561507" r="2" style="fill: rgb(0,0,0)" />
	<circle cx="264.825200462327" cy="-449.076636696991" r="2" style="fill: rgb(0,0,0)" />
	<circle cx="405.051269791568" cy="-232.341451334846" r="2" style="fill: rgb(0,0,0)" />
	<circle cx="422.942497362048" cy="-295.497206532974" r="2" style="fill: rgb(0,0,0)" />
	<circle cx="212.08084141465" cy="-241.388274479204" r="2" style="fill: rgb(0,0,0)" />
	<circle cx="226.392415568001" cy="-207.046009926659" r="2" style="fill: rgb(0,0,0)" />
	<circle cx="263.49805710391" cy="-204.328721654869" r="2" style="fill: rgb(0,0,0)" />
	<circle cx="264.825200462294" cy="-203.659830474235" r="2" style="fill: rgb(0,0,0)" />
	<circle cx="289.082288810355" cy="-175.449797609711" r="2" style="fill: rgb(0,0,0)" />
	<circle cx="325.200930826814" cy="-184.374817958699" r="2" style="fill: rgb(0,0,0)" />
	<circle cx="410.892177798694" cy="-428.541231445314" r="2" style="fill: rgb(0,0,0)" />
	<circle cx="393.685376094716" cy="-461.528172262304" r="2" style="fill: rgb(0,0,0)" />
	<circle cx="356.483443490305" cy="-461.050155692897" r="2" style="fill: rgb(0,0,0)" />
	<circle cx="453.675521831447" cy="-379.80737902467" r="2" style="fill: rgb(0,0,0)" />
	<circle cx="447.548125877087" cy="-416.504344950506" r="2" style="fill: rgb(0,0,0)" />
	<circle cx="412.032451130579" cy="-427.588077924725" r="2" style="fill: rgb(0,0,0)" />
	<circle cx="188.23636863007" cy="-428.803486029833" r="2" style="fill: rgb(0,0,0)" />
	<circle cx="178.301539873533" cy="-430.136232319882" r="2" style="fill: rgb(0,0,0)" />
	<circle cx="138.178218257572" cy="-378.185635584844" r="2" style="fill: rgb(0,0,0)" />
	<circle cx="136.81034227444" cy="-371.976228648178" r="2" style="fill: rgb(0,0,0)" />
	<circle cx="151.390517849623" cy="-307.974948045212" r="2" style="fill: rgb(0,0,0)" />
	<circle cx="160.965744680789" cy="-305.009806189063" r="2" style="fill: rgb(0,0,0)" />
	<circle cx="160.592582229563" cy="-295.013025317027" r="2" style="fill: rgb(0,0,0)" />
	<circle cx="138.560310660312" cy="-233.179988450629" r="2" style="fill: rgb(0,0,0)" />
	<circle cx="176.685231339299" cy="-233.753733833858" r="2" style="fill: rgb(0,0,0)" />
	<circle cx="277.809631257302" cy="-482.750010068909" r="2" style="fill: rgb(0,0,0)" />
	<circle cx="253.013603712114" cy="-511.715433913916" r="2" style="fill: rgb(0,0,0)" />
	<circle cx="221.229787705549" cy="-454.282564590799" r="2" style="fill: rgb(0,0,0)" />
	<circle cx="349.458019174947" cy="-496.571682077025" r="2" style="fill: rgb(0,0,0)" />
	<circle cx="345.622534670852" cy="-505.832680603868" r="2" style="fill: rgb(0,0,0)" />
	<circle cx="280.549447581455" cy="-514.448873224697" r="2" style="fill: rgb(0,0,0)" />
	<circle cx="356.48344349025" cy="-191.686311478302" r="2" style="fill: rgb(0,0,0)" />
	<circle cx="393.685376094661" cy="-191.208294908882" r="2" style="fill: rgb(0,0,0)" />
	<circle cx="410.892177798649" cy="-224.195235725864" r="2" style="fill: rgb(0,0,0)" />
	<circle cx="412.032451130549" cy="-225.148389246442" r="2" style="fill: rgb(0,0,0)" />
	<circle cx="447.548125877062" cy="-236.232122220649" r="2" style="fill: rgb(0,0,0)" />
	<circle cx="453.675521831437" cy="-272.929088146486" r="2" style="fill: rgb(0,0,0)" />
	<circle cx="206.754493285929" cy="-174.362822062159" r="2" style="fill: rgb(0,0,0)" />
	<circle cx="271.290985300456" cy="-162.371715479303" r="2" style="fill: rgb(0,0,0)" />
	<circle cx="277.809631257249" cy="-169.986457102323" r="2" style="fill: rgb(0,0,0)" />
	<circle cx="286.839083890703" cy="-165.680198499007" r="2" style="fill: rgb(0,0,0)" />
	<circle cx="334.868366654483" cy="-120.937227701151" r="2" style="fill: rgb(0,0,0)" />
	<circle cx="349.458019174857" cy="-156.164785094172" r="2" style="fill: rgb(0,0,0)" />
	<circle cx="448.094110403105" cy="-429.01924801472" r="2" style="fill: rgb(0,0,0)" />
	<circle cx="464.853906184861" cy="-463.267576527167" r="2" style="fill: rgb(0,0,0)" />
	<circle cx="399.526284101808" cy="-469.674387871286" r="2" style="fill: rgb(0,0,0)" />
	<circle cx="489.191196577957" cy="-368.723646050446" r="2" style="fill: rgb(0,0,0)" />
	<circle cx="496.172377916942" cy="-375.916708138844" r="2" style="fill: rgb(0,0,0)" />
	<circle cx="478.281150346495" cy="-439.072463336971" r="2" style="fill: rgb(0,0,0)" />
	<circle cx="144.590353215785" cy="-486.459418777608" r="2" style="fill: rgb(0,0,0)" />
	<circle cx="109.678842163463" cy="-434.200170846264" r="2" style="fill: rgb(0,0,0)" />
	<circle cx="87.4121968536485" cy="-333.121810272745" r="2" style="fill: rgb(0,0,0)" />
	<circle cx="97.1332966370399" cy="-271.030403320533" r="2" style="fill: rgb(0,0,0)" />
	<circle cx="377.406350677407" cy="-563.265549926992" r="2" style="fill: rgb(0,0,0)" />
	<circle cx="314.683077770317" cy="-567.219488991773" r="2" style="fill: rgb(0,0,0)" />
	<circle cx="415.903382225486" cy="-160.221217535991" r="2" style="fill: rgb(0,0,0)" />
	<circle cx="452.500105468604" cy="-214.71365083172" r="2" style="fill: rgb(0,0,0)" />
	<circle cx="448.094110403058" cy="-223.717219156432" r="2" style="fill: rgb(0,0,0)" />
	<circle cx="222.838110320779" cy="-113.607905706499" r="2" style="fill: rgb(0,0,0)" />
	<circle cx="283.694665316144" cy="-97.913246984517" r="2" style="fill: rgb(0,0,0)" />
	<circle cx="561.5" cy="-369.509896794741" r="2" style="fill: rgb(0,0,0)" />
	<circle cx="540.260344874437" cy="-428.659872690359" r="2" style="fill: rgb(0,0,0)" />
	<circle cx="81.8388273122264" cy="-489.936284475552" r="2" style="fill: rgb(0,0,0)" />
	<circle cx="53.3665945864554" cy="-440.893435976638" r="2" style="fill: rgb(0,0,0)" />
	<circle cx="52.970209440751" cy="-434.200170846284" r="2" style="fill: rgb(0,0,0)" />
	<circle cx="75.4549453504647" cy="-382.139574649653" r="2" style="fill: rgb(0,0,0)" />
	<circle cx="33.5" cy="-350.709989703629" r="2" style="fill: rgb(0,0,0)" />
	<circle cx="38.7293696240657" cy="-294.242984128596" r="2" style="fill: rgb(0,0,0)" />
	<circle cx="348.906974583285" cy="-619.280085188407" r="2" style="fill: rgb(0,0,0)" />
	<circle cx="292.198341860591" cy="-619.280085188412" r="2" style="fill: rgb(0,0,0)" />
	<circle cx="185.315558398975" cy="-71.0881794308621" r="2" style="fill: rgb(0,0,0)" />
	<circle cx="239.227755252592" cy="-53.5" r="2" style="fill: rgb(0,0,0)" />
	<!-- 
	Generated using the Perl SVG Module V2.64
	by Ronan Oger
	Info: http://www.roitsystems.com/
 -->
</svg>