<?xml version="1.0" encoding="UTF-8" standalone="yes"?>
<!DOCTYPE svg PUBLIC "-//W3C//DTD SVG 1.0//EN" "http://www.w3.org/TR/2001/REC-SVG-20010904/DTD/svg10.dtd">
<!-- generated using polymake; Michael Joswig, Georg Loho, Benjamin Lorenz, Rico Raber; license CC BY-NC-ND 3.0; see polymake.org and matchthenet.de -->
<svg height="841pt" id="document" viewBox="0 -410.72109360462 572 410.72109360462" width="595pt" xmlns="http://www.w3.org/2000/svg" xmlns:svg="http://www.w3.org/2000/svg" xmlns:xlink="http://www.w3.org/1999/xlink">
	<title id="document_title">planar_net_</title>
	<polygon points="179.150487694787,-190.735462640818 217.187638126848,-190.735462640818 217.187638126849,-228.772613072879 179.150487694791,-228.772613072882 " style="fill: rgb(67,184,206); fill-opacity: 1; stroke: rgb(0,0,0); stroke-width: 3" />
	<polygon points="228.941764027945,-154.559982861103 217.187638126848,-190.735462640818 179.150487694787,-190.735462640818 167.396361793683,-154.559982861107 198.169062910812,-132.202306797908 " style="fill: rgb(255,210,63); fill-opacity: 1; stroke: rgb(0,0,0); stroke-width: 3" />
	<polygon points="179.150487694791,-228.772613072882 160.131912478762,-261.71375163462 127.190773917023,-242.695176418592 146.209349133051,-209.75403785685 " style="fill: rgb(67,184,206); fill-opacity: 1; stroke: rgb(0,0,0); stroke-width: 3" />
	<polygon points="179.150487694787,-190.735462640818 179.150487694791,-228.772613072882 146.209349133051,-209.75403785685 " style="fill: rgb(14,173,105); fill-opacity: 1; stroke: rgb(0,0,0); stroke-width: 3" />
	<polygon points="251.299440091139,-123.787281743961 228.941764027945,-154.559982861103 198.169062910812,-132.202306797908 220.526738974007,-101.429605680772 " style="fill: rgb(67,184,206); fill-opacity: 1; stroke: rgb(0,0,0); stroke-width: 3" />
	<polygon points="179.150487694787,-190.735462640818 142.975007915076,-202.489588541923 131.220882013969,-166.314108762218 167.396361793683,-154.559982861107 " style="fill: rgb(67,184,206); fill-opacity: 1; stroke: rgb(0,0,0); stroke-width: 3" />
	<polygon points="334.25394981266,-228.77261307288 334.253949812659,-190.735462640819 370.429429592374,-178.981336739715 392.787105655571,-209.754037856845 370.42942959237,-240.526738973979 " style="fill: rgb(255,210,63); fill-opacity: 1; stroke: rgb(0,0,0); stroke-width: 3" />
	<polygon points="142.975007915076,-202.489588541923 112.202306797945,-224.847264605124 81.4296056808086,-202.489588541939 93.1837315819081,-166.314108762229 131.220882013969,-166.314108762218 " style="fill: rgb(255,210,63); fill-opacity: 1; stroke: rgb(0,0,0); stroke-width: 3" />
	<polygon points="334.253949812659,-190.735462640819 311.896273749463,-159.962761523684 342.668974866604,-137.605085460485 365.026650929794,-168.377786577615 " style="fill: rgb(67,184,206); fill-opacity: 1; stroke: rgb(0,0,0); stroke-width: 3" />
	<polygon points="311.89627374949,-321.09071642429 334.253949812671,-290.318015307153 365.026650929814,-312.675691370338 342.668974866637,-343.448392487473 " style="fill: rgb(67,184,206); fill-opacity: 1; stroke: rgb(0,0,0); stroke-width: 3" />
	<polygon points="342.668974866605,-281.902990253208 365.026650929796,-251.130289136075 380.497753808711,-285.878955134952 " style="fill: rgb(14,173,105); fill-opacity: 1; stroke: rgb(0,0,0); stroke-width: 3" />
	<polygon points="311.89627374949,-321.09071642429 342.668974866637,-343.448392487473 320.311298803458,-374.22109360462 289.538597686311,-351.863417541442 " style="fill: rgb(67,184,206); fill-opacity: 1; stroke: rgb(0,0,0); stroke-width: 3" />
	<polygon points="370.42942959237,-240.526738973979 392.787105655571,-209.754037856845 423.559806772704,-232.111713920043 401.202130709508,-262.884415037177 " style="fill: rgb(67,184,206); fill-opacity: 1; stroke: rgb(0,0,0); stroke-width: 3" />
	<polygon points="131.220882013969,-166.314108762218 93.1837315819081,-166.314108762229 93.1837315819059,-128.276958330167 131.220882013963,-128.27695833015 " style="fill: rgb(67,184,206); fill-opacity: 1; stroke: rgb(0,0,0); stroke-width: 3" />
	<polygon points="370.42942959238,-140.944186307653 392.787105655578,-110.171485190517 428.962585435286,-98.4173592894095 465.13806521499,-110.171485190509 487.495741278177,-140.94418630764 487.495741278171,-178.981336739701 465.138065214973,-209.754037856837 428.962585435266,-221.508163757945 392.787105655571,-209.754037856845 370.429429592374,-178.981336739715 " style="fill: rgb(136,136,136); fill-opacity: 1; stroke: rgb(0,0,0); stroke-width: 3" />
	<polygon points="423.559806772704,-232.111713920043 459.735286552431,-243.865839821148 459.735286552442,-281.902990253203 423.559806772716,-293.657116154302 401.202130709508,-262.884415037177 " style="fill: rgb(255,210,63); fill-opacity: 1; stroke: rgb(0,0,0); stroke-width: 3" />
	<polygon points="423.559806772716,-293.657116154302 459.735286552442,-281.902990253203 451.82691829221,-319.108937687077 " style="fill: rgb(14,173,105); fill-opacity: 1; stroke: rgb(0,0,0); stroke-width: 3" />
	<polygon points="60.6275240615514,-351.307905390903 45.1564211826388,-316.559239392034 79.9050871815163,-301.088136513114 95.3761900604276,-335.836802511989 " style="fill: rgb(67,184,206); fill-opacity: 1; stroke: rgb(0,0,0); stroke-width: 3" />
	<polygon points="60.2425930201721,-147.2955335462 93.1837315819059,-128.276958330167 93.1837315819081,-166.314108762229 " style="fill: rgb(14,173,105); fill-opacity: 1; stroke: rgb(0,0,0); stroke-width: 3" />
	<polygon points="465.138065214973,-209.754037856837 487.495741278171,-178.981336739701 518.268442395309,-201.339012802896 495.910766332117,-232.111713920032 " style="fill: rgb(67,184,206); fill-opacity: 1; stroke: rgb(0,0,0); stroke-width: 3" />
	<polygon points="487.495741278171,-178.981336739701 487.495741278177,-140.94418630764 523.671221057893,-129.190060406539 546.028897121097,-159.96276152366 523.671221057896,-190.735462640791 " style="fill: rgb(255,210,63); fill-opacity: 1; stroke: rgb(0,0,0); stroke-width: 3" />
	<polygon points="89.8446307346952,-53.5 126.020110514421,-65.2541259010797 114.26598461334,-101.429605680789 78.0905048336204,-89.6754797797058 " style="fill: rgb(67,184,206); fill-opacity: 1; stroke: rgb(0,0,0); stroke-width: 3" />
	<polygon points="523.671221057896,-190.735462640791 546.028897121097,-159.96276152366 561.5,-194.711427522545 " style="fill: rgb(14,173,105); fill-opacity: 1; stroke: rgb(0,0,0); stroke-width: 3" />
	<polygon points="93.1837315819081,-166.314108762229 81.4296056808086,-202.489588541939 45.2541259010943,-190.73546264084 57.0082518021885,-154.559982861134 " style="fill: rgb(67,184,206); fill-opacity: 1; stroke: rgb(0,0,0); stroke-width: 3" />
	<polygon points="175.811386847602,-101.429605680776 145.038685730481,-123.787281743976 114.26598461334,-101.429605680789 126.020110514421,-65.2541259010797 164.057260946478,-65.2541259010718 " style="fill: rgb(255,210,63); fill-opacity: 1; stroke: rgb(0,0,0); stroke-width: 3" />
	<polygon points="69.6754797797102,-238.665068321653 33.5,-226.91094242056 45.2541259010943,-190.73546264084 81.4296056808086,-202.489588541939 " style="fill: rgb(67,184,206); fill-opacity: 1; stroke: rgb(0,0,0); stroke-width: 3" />
	<polygon points="311.896273749463,-98.417359289412 275.720793969756,-110.171485190518 263.966668068648,-73.9960054108074 300.142147848349,-62.2418795096988 " style="fill: rgb(67,184,206); fill-opacity: 1; stroke: rgb(0,0,0); stroke-width: 3" />
	<polygon points="112.202306797945,-224.847264605124 77.4536407990924,-240.318367484012 81.4296056808086,-202.489588541939 " style="fill: rgb(14,173,105); fill-opacity: 1; stroke: rgb(0,0,0); stroke-width: 3" />
	<polygon points="167.396361793683,-154.559982861107 131.220882013969,-166.314108762218 139.129250274179,-129.108161328342 " style="fill: rgb(14,173,105); fill-opacity: 1; stroke: rgb(0,0,0); stroke-width: 3" />
	<polygon points="220.526738974007,-101.429605680772 198.169062910812,-132.202306797908 182.697960031905,-97.4536407990311 " style="fill: rgb(14,173,105); fill-opacity: 1; stroke: rgb(0,0,0); stroke-width: 3" />
	<polygon points="198.169062910812,-132.202306797908 167.396361793683,-154.559982861107 145.038685730481,-123.787281743976 175.811386847602,-101.429605680776 " style="fill: rgb(67,184,206); fill-opacity: 1; stroke: rgb(0,0,0); stroke-width: 3" />
	<polygon points="141.113337262736,-294.654890196359 133.204969002524,-331.860837630233 95.3761900604276,-335.836802511989 79.9050871815163,-301.088136513114 108.172198700999,-275.636314980336 " style="fill: rgb(255,210,63); fill-opacity: 1; stroke: rgb(0,0,0); stroke-width: 3" />
	<polygon points="311.896273749463,-159.962761523684 275.720793969752,-148.208635622581 275.720793969756,-110.171485190518 311.896273749463,-98.417359289412 334.253949812654,-129.190060406548 " style="fill: rgb(255,210,63); fill-opacity: 1; stroke: rgb(0,0,0); stroke-width: 3" />
	<polygon points="160.131912478762,-261.71375163462 141.113337262736,-294.654890196359 108.172198700999,-275.636314980336 127.190773917023,-242.695176418592 " style="fill: rgb(67,184,206); fill-opacity: 1; stroke: rgb(0,0,0); stroke-width: 3" />
	<polygon points="275.720793969771,-309.336590523182 311.89627374949,-321.09071642429 283.629162229992,-346.542537957051 " style="fill: rgb(14,173,105); fill-opacity: 1; stroke: rgb(0,0,0); stroke-width: 3" />
	<polygon points="311.896273749465,-259.545314190015 334.25394981266,-228.77261307288 365.026650929796,-251.130289136075 342.668974866605,-281.902990253208 " style="fill: rgb(67,184,206); fill-opacity: 1; stroke: rgb(0,0,0); stroke-width: 3" />
	<polygon points="167.396361793709,-264.948092852608 198.16906291084,-287.305768915802 163.420396911964,-302.776871794714 " style="fill: rgb(14,173,105); fill-opacity: 1; stroke: rgb(0,0,0); stroke-width: 3" />
	<polygon points="198.16906291084,-287.305768915802 213.640165789754,-322.054434914678 178.891499790883,-337.525537793591 163.420396911964,-302.776871794714 " style="fill: rgb(67,184,206); fill-opacity: 1; stroke: rgb(0,0,0); stroke-width: 3" />
	<polygon points="275.720793969755,-271.299440091118 311.896273749465,-259.545314190015 334.253949812671,-290.318015307153 311.89627374949,-321.09071642429 275.720793969771,-309.336590523182 " style="fill: rgb(255,210,63); fill-opacity: 1; stroke: rgb(0,0,0); stroke-width: 3" />
	<polygon points="228.941764027955,-264.948092852592 251.299440091171,-295.720793969713 220.526738974062,-318.078470032923 198.16906291084,-287.305768915802 " style="fill: rgb(67,184,206); fill-opacity: 1; stroke: rgb(0,0,0); stroke-width: 3" />
	<polygon points="179.150487694791,-228.772613072882 217.187638126849,-228.772613072879 228.941764027955,-264.948092852592 198.16906291084,-287.305768915802 167.396361793709,-264.948092852608 " style="fill: rgb(255,210,63); fill-opacity: 1; stroke: rgb(0,0,0); stroke-width: 3" />
	<polygon points="217.187638126849,-228.772613072879 217.187638126848,-190.735462640818 239.545314190042,-159.962761523684 275.720793969752,-148.208635622581 311.896273749463,-159.962761523684 334.253949812659,-190.735462640819 334.25394981266,-228.77261307288 311.896273749465,-259.545314190015 275.720793969755,-271.299440091118 239.545314190045,-259.545314190014 " style="fill: rgb(136,136,136); fill-opacity: 1; stroke: rgb(0,0,0); stroke-width: 3" />
	<circle cx="179.150487694787" cy="-190.735462640818" r="2" style="fill: rgb(0,0,0)" />
	<circle cx="217.187638126848" cy="-190.735462640818" r="2" style="fill: rgb(0,0,0)" />
	<circle cx="217.187638126849" cy="-228.772613072879" r="2" style="fill: rgb(0,0,0)" />
	<circle cx="179.150487694791" cy="-228.772613072882" r="2" style="fill: rgb(0,0,0)" />
	<circle cx="167.396361793683" cy="-154.559982861107" r="2" style="fill: rgb(0,0,0)" />
	<circle cx="198.169062910812" cy="-132.202306797908" r="2" style="fill: rgb(0,0,0)" />
	<circle cx="228.941764027945" cy="-154.559982861103" r="2" style="fill: rgb(0,0,0)" />
	<circle cx="146.209349133051" cy="-209.75403785685" r="2" style="fill: rgb(0,0,0)" />
	<circle cx="228.941764027955" cy="-264.948092852592" r="2" style="fill: rgb(0,0,0)" />
	<circle cx="198.16906291084" cy="-287.305768915802" r="2" style="fill: rgb(0,0,0)" />
	<circle cx="167.396361793709" cy="-264.948092852608" r="2" style="fill: rgb(0,0,0)" />
	<circle cx="239.545314190042" cy="-159.962761523684" r="2" style="fill: rgb(0,0,0)" />
	<circle cx="275.720793969752" cy="-148.208635622581" r="2" style="fill: rgb(0,0,0)" />
	<circle cx="311.896273749463" cy="-159.962761523684" r="2" style="fill: rgb(0,0,0)" />
	<circle cx="334.253949812659" cy="-190.735462640819" r="2" style="fill: rgb(0,0,0)" />
	<circle cx="334.25394981266" cy="-228.77261307288" r="2" style="fill: rgb(0,0,0)" />
	<circle cx="311.896273749465" cy="-259.545314190015" r="2" style="fill: rgb(0,0,0)" />
	<circle cx="275.720793969755" cy="-271.299440091118" r="2" style="fill: rgb(0,0,0)" />
	<circle cx="239.545314190045" cy="-259.545314190014" r="2" style="fill: rgb(0,0,0)" />
	<circle cx="220.526738974007" cy="-101.429605680772" r="2" style="fill: rgb(0,0,0)" />
	<circle cx="251.299440091139" cy="-123.787281743961" r="2" style="fill: rgb(0,0,0)" />
	<circle cx="142.975007915076" cy="-202.489588541923" r="2" style="fill: rgb(0,0,0)" />
	<circle cx="131.220882013969" cy="-166.314108762218" r="2" style="fill: rgb(0,0,0)" />
	<circle cx="145.038685730481" cy="-123.787281743976" r="2" style="fill: rgb(0,0,0)" />
	<circle cx="175.811386847602" cy="-101.429605680776" r="2" style="fill: rgb(0,0,0)" />
	<circle cx="160.131912478762" cy="-261.71375163462" r="2" style="fill: rgb(0,0,0)" />
	<circle cx="127.190773917023" cy="-242.695176418592" r="2" style="fill: rgb(0,0,0)" />
	<circle cx="163.420396911964" cy="-302.776871794714" r="2" style="fill: rgb(0,0,0)" />
	<circle cx="251.299440091171" cy="-295.720793969713" r="2" style="fill: rgb(0,0,0)" />
	<circle cx="220.526738974062" cy="-318.078470032923" r="2" style="fill: rgb(0,0,0)" />
	<circle cx="370.429429592374" cy="-178.981336739715" r="2" style="fill: rgb(0,0,0)" />
	<circle cx="392.787105655571" cy="-209.754037856845" r="2" style="fill: rgb(0,0,0)" />
	<circle cx="370.42942959237" cy="-240.526738973979" r="2" style="fill: rgb(0,0,0)" />
	<circle cx="342.668974866604" cy="-137.605085460485" r="2" style="fill: rgb(0,0,0)" />
	<circle cx="365.026650929794" cy="-168.377786577615" r="2" style="fill: rgb(0,0,0)" />
	<circle cx="275.720793969756" cy="-110.171485190518" r="2" style="fill: rgb(0,0,0)" />
	<circle cx="311.896273749463" cy="-98.417359289412" r="2" style="fill: rgb(0,0,0)" />
	<circle cx="334.253949812654" cy="-129.190060406548" r="2" style="fill: rgb(0,0,0)" />
	<circle cx="365.026650929796" cy="-251.130289136075" r="2" style="fill: rgb(0,0,0)" />
	<circle cx="342.668974866605" cy="-281.902990253208" r="2" style="fill: rgb(0,0,0)" />
	<circle cx="334.253949812671" cy="-290.318015307153" r="2" style="fill: rgb(0,0,0)" />
	<circle cx="311.89627374949" cy="-321.09071642429" r="2" style="fill: rgb(0,0,0)" />
	<circle cx="275.720793969771" cy="-309.336590523182" r="2" style="fill: rgb(0,0,0)" />
	<circle cx="182.697960031905" cy="-97.4536407990311" r="2" style="fill: rgb(0,0,0)" />
	<circle cx="112.202306797945" cy="-224.847264605124" r="2" style="fill: rgb(0,0,0)" />
	<circle cx="81.4296056808086" cy="-202.489588541939" r="2" style="fill: rgb(0,0,0)" />
	<circle cx="93.1837315819081" cy="-166.314108762229" r="2" style="fill: rgb(0,0,0)" />
	<circle cx="139.129250274179" cy="-129.108161328342" r="2" style="fill: rgb(0,0,0)" />
	<circle cx="114.26598461334" cy="-101.429605680789" r="2" style="fill: rgb(0,0,0)" />
	<circle cx="126.020110514421" cy="-65.2541259010797" r="2" style="fill: rgb(0,0,0)" />
	<circle cx="164.057260946478" cy="-65.2541259010718" r="2" style="fill: rgb(0,0,0)" />
	<circle cx="141.113337262736" cy="-294.654890196359" r="2" style="fill: rgb(0,0,0)" />
	<circle cx="108.172198700999" cy="-275.636314980336" r="2" style="fill: rgb(0,0,0)" />
	<circle cx="213.640165789754" cy="-322.054434914678" r="2" style="fill: rgb(0,0,0)" />
	<circle cx="178.891499790883" cy="-337.525537793591" r="2" style="fill: rgb(0,0,0)" />
	<circle cx="423.559806772704" cy="-232.111713920043" r="2" style="fill: rgb(0,0,0)" />
	<circle cx="401.202130709508" cy="-262.884415037177" r="2" style="fill: rgb(0,0,0)" />
	<circle cx="370.42942959238" cy="-140.944186307653" r="2" style="fill: rgb(0,0,0)" />
	<circle cx="392.787105655578" cy="-110.171485190517" r="2" style="fill: rgb(0,0,0)" />
	<circle cx="428.962585435286" cy="-98.4173592894095" r="2" style="fill: rgb(0,0,0)" />
	<circle cx="465.13806521499" cy="-110.171485190509" r="2" style="fill: rgb(0,0,0)" />
	<circle cx="487.495741278177" cy="-140.94418630764" r="2" style="fill: rgb(0,0,0)" />
	<circle cx="487.495741278171" cy="-178.981336739701" r="2" style="fill: rgb(0,0,0)" />
	<circle cx="465.138065214973" cy="-209.754037856837" r="2" style="fill: rgb(0,0,0)" />
	<circle cx="428.962585435266" cy="-221.508163757945" r="2" style="fill: rgb(0,0,0)" />
	<circle cx="263.966668068648" cy="-73.9960054108074" r="2" style="fill: rgb(0,0,0)" />
	<circle cx="300.142147848349" cy="-62.2418795096988" r="2" style="fill: rgb(0,0,0)" />
	<circle cx="380.497753808711" cy="-285.878955134952" r="2" style="fill: rgb(0,0,0)" />
	<circle cx="365.026650929814" cy="-312.675691370338" r="2" style="fill: rgb(0,0,0)" />
	<circle cx="342.668974866637" cy="-343.448392487473" r="2" style="fill: rgb(0,0,0)" />
	<circle cx="283.629162229992" cy="-346.542537957051" r="2" style="fill: rgb(0,0,0)" />
	<circle cx="93.1837315819059" cy="-128.276958330167" r="2" style="fill: rgb(0,0,0)" />
	<circle cx="131.220882013963" cy="-128.27695833015" r="2" style="fill: rgb(0,0,0)" />
	<circle cx="45.2541259010943" cy="-190.73546264084" r="2" style="fill: rgb(0,0,0)" />
	<circle cx="57.0082518021885" cy="-154.559982861134" r="2" style="fill: rgb(0,0,0)" />
	<circle cx="77.4536407990924" cy="-240.318367484012" r="2" style="fill: rgb(0,0,0)" />
	<circle cx="78.0905048336204" cy="-89.6754797797058" r="2" style="fill: rgb(0,0,0)" />
	<circle cx="89.8446307346952" cy="-53.5" r="2" style="fill: rgb(0,0,0)" />
	<circle cx="133.204969002524" cy="-331.860837630233" r="2" style="fill: rgb(0,0,0)" />
	<circle cx="95.3761900604276" cy="-335.836802511989" r="2" style="fill: rgb(0,0,0)" />
	<circle cx="79.9050871815163" cy="-301.088136513114" r="2" style="fill: rgb(0,0,0)" />
	<circle cx="459.735286552431" cy="-243.865839821148" r="2" style="fill: rgb(0,0,0)" />
	<circle cx="459.735286552442" cy="-281.902990253203" r="2" style="fill: rgb(0,0,0)" />
	<circle cx="423.559806772716" cy="-293.657116154302" r="2" style="fill: rgb(0,0,0)" />
	<circle cx="518.268442395309" cy="-201.339012802896" r="2" style="fill: rgb(0,0,0)" />
	<circle cx="495.910766332117" cy="-232.111713920032" r="2" style="fill: rgb(0,0,0)" />
	<circle cx="523.671221057893" cy="-129.190060406539" r="2" style="fill: rgb(0,0,0)" />
	<circle cx="546.028897121097" cy="-159.96276152366" r="2" style="fill: rgb(0,0,0)" />
	<circle cx="523.671221057896" cy="-190.735462640791" r="2" style="fill: rgb(0,0,0)" />
	<circle cx="320.311298803458" cy="-374.22109360462" r="2" style="fill: rgb(0,0,0)" />
	<circle cx="289.538597686311" cy="-351.863417541442" r="2" style="fill: rgb(0,0,0)" />
	<circle cx="60.2425930201721" cy="-147.2955335462" r="2" style="fill: rgb(0,0,0)" />
	<circle cx="69.6754797797102" cy="-238.665068321653" r="2" style="fill: rgb(0,0,0)" />
	<circle cx="33.5" cy="-226.91094242056" r="2" style="fill: rgb(0,0,0)" />
	<circle cx="60.6275240615514" cy="-351.307905390903" r="2" style="fill: rgb(0,0,0)" />
	<circle cx="45.1564211826388" cy="-316.559239392034" r="2" style="fill: rgb(0,0,0)" />
	<circle cx="451.82691829221" cy="-319.108937687077" r="2" style="fill: rgb(0,0,0)" />
	<circle cx="561.5" cy="-194.711427522545" r="2" style="fill: rgb(0,0,0)" />
	<!--
	Generated using the Perl SVG Module V2.87
	by Ronan Oger

	-->
</svg>