<?xml version="1.0" encoding="UTF-8" standalone="yes"?>
<!DOCTYPE svg PUBLIC "-//W3C//DTD SVG 1.0//EN" "http://www.w3.org/TR/2001/REC-SVG-20010904/DTD/svg10.dtd">
<!-- generated using polymake; Michael Joswig, Georg Loho, Benjamin Lorenz, Rico Raber; license CC BY-NC-SA 3.0; see polymake.org and matchthenet.de -->
<svg height="841pt" id="document" viewBox="0 -678.130045036385 572 678.130045036385" width="595pt" xmlns="http://www.w3.org/2000/svg" xmlns:svg="http://www.w3.org/2000/svg" xmlns:xlink="http://www.w3.org/1999/xlink">
	<title id="document_title">planar_net_</title>
	<polygon points="224.317383964764,-333.043047949832 275.538153842741,-333.043047949832 294.322832208829,-365.83137099674 285.297259824598,-370.837783273755 " style="fill: rgb(67,184,206); fill-opacity: 1; stroke: rgb(0,0,0); stroke-width: 3" />
	<polygon points="294.322832208824,-300.254724902927 275.538153842741,-333.043047949832 224.317383964764,-333.043047949832 285.297259824593,-295.248312625911 " style="fill: rgb(67,184,206); fill-opacity: 1; stroke: rgb(0,0,0); stroke-width: 3" />
	<polygon points="224.317383964764,-333.043047949832 285.297259824598,-370.837783273755 280.805540734213,-445.218769092511 " style="fill: rgb(14,173,105); fill-opacity: 1; stroke: rgb(0,0,0); stroke-width: 3" />
	<polygon points="224.317383964764,-333.043047949832 280.805540734213,-445.218769092511 219.100490810974,-403.995219868564 " style="fill: rgb(14,173,105); fill-opacity: 1; stroke: rgb(0,0,0); stroke-width: 3" />
	<polygon points="285.297259824593,-295.248312625911 224.317383964764,-333.043047949832 280.805540734207,-220.867326807157 " style="fill: rgb(14,173,105); fill-opacity: 1; stroke: rgb(0,0,0); stroke-width: 3" />
	<polygon points="285.297259824598,-370.837783273755 294.322832208829,-365.83137099674 312.631301641763,-399.53622391671 284.518340355972,-445.35019751611 " style="fill: rgb(67,184,206); fill-opacity: 1; stroke: rgb(0,0,0); stroke-width: 3" />
	<polygon points="280.805540734207,-220.867326807157 224.317383964764,-333.043047949832 219.100490810969,-262.090876031106 " style="fill: rgb(14,173,105); fill-opacity: 1; stroke: rgb(0,0,0); stroke-width: 3" />
	<polygon points="284.518340355972,-445.35019751611 312.631301641763,-399.53622391671 351.761753985488,-400.466782842267 351.494466934295,-411.245523406818 " style="fill: rgb(67,184,206); fill-opacity: 1; stroke: rgb(0,0,0); stroke-width: 3" />
	<polygon points="224.317383964764,-333.043047949832 219.100490810974,-403.995219868564 155.75419054561,-432.651592169127 " style="fill: rgb(14,173,105); fill-opacity: 1; stroke: rgb(0,0,0); stroke-width: 3" />
	<polygon points="294.322832208824,-300.254724902927 285.297259824593,-295.248312625911 284.518340355936,-220.735898383597 312.631301641757,-266.549871982956 " style="fill: rgb(67,184,206); fill-opacity: 1; stroke: rgb(0,0,0); stroke-width: 3" />
	<polygon points="224.317383964764,-333.043047949832 155.75419054561,-432.651592169127 160.308923794261,-363.593377521307 " style="fill: rgb(14,173,105); fill-opacity: 1; stroke: rgb(0,0,0); stroke-width: 3" />
	<polygon points="351.76175398548,-265.619313057367 312.631301641757,-266.549871982956 284.518340355936,-220.735898383597 351.494466934284,-254.840572492821 " style="fill: rgb(67,184,206); fill-opacity: 1; stroke: rgb(0,0,0); stroke-width: 3" />
	<polygon points="219.100490810969,-262.090876031106 224.317383964764,-333.043047949832 155.754190545602,-233.434503730547 " style="fill: rgb(14,173,105); fill-opacity: 1; stroke: rgb(0,0,0); stroke-width: 3" />
	<polygon points="351.494466934295,-411.245523406818 351.761753985488,-400.466782842267 391.85121306838,-401.480235982241 420.540909651708,-452.588235764222 " style="fill: rgb(67,184,206); fill-opacity: 1; stroke: rgb(0,0,0); stroke-width: 3" />
	<polygon points="219.100490810974,-403.995219868564 280.805540734213,-445.218769092511 157.135125154855,-435.526710316075 " style="fill: rgb(14,173,105); fill-opacity: 1; stroke: rgb(0,0,0); stroke-width: 3" />
	<polygon points="224.317383964764,-333.043047949832 160.308923794261,-302.492718378368 155.754190545602,-233.434503730547 " style="fill: rgb(14,173,105); fill-opacity: 1; stroke: rgb(0,0,0); stroke-width: 3" />
	<polygon points="391.85121306838,-401.480235982241 412.107298546507,-366.395231020989 421.767823663695,-371.886621014254 420.540909651708,-452.588235764222 " style="fill: rgb(67,184,206); fill-opacity: 1; stroke: rgb(0,0,0); stroke-width: 3" />
	<polygon points="157.135125154855,-435.526710316075 280.805540734213,-445.218769092511 213.499095955918,-476.668144188631 " style="fill: rgb(14,173,105); fill-opacity: 1; stroke: rgb(0,0,0); stroke-width: 3" />
	<polygon points="351.76175398548,-265.619313057367 351.494466934284,-254.840572492821 420.540909651628,-213.497860135395 391.851213068372,-264.605859917373 " style="fill: rgb(67,184,206); fill-opacity: 1; stroke: rgb(0,0,0); stroke-width: 3" />
	<polygon points="284.518340355972,-445.35019751611 351.494466934295,-411.245523406818 418.17673441507,-456.302224580015 " style="fill: rgb(14,173,105); fill-opacity: 1; stroke: rgb(0,0,0); stroke-width: 3" />
	<polygon points="280.805540734207,-220.867326807157 219.100490810969,-262.090876031106 157.135125154849,-230.559385583595 " style="fill: rgb(14,173,105); fill-opacity: 1; stroke: rgb(0,0,0); stroke-width: 3" />
	<polygon points="401.76378886467,-330.331213659888 396.088327717164,-290.218176966172 441.800147950102,-253.536358271532 412.776604215232,-328.848308520558 " style="fill: rgb(67,184,206); fill-opacity: 1; stroke: rgb(0,0,0); stroke-width: 3" />
	<polygon points="284.518340355972,-445.35019751611 418.17673441507,-456.302224580015 344.962316533181,-489.530596752353 " style="fill: rgb(14,173,105); fill-opacity: 1; stroke: rgb(0,0,0); stroke-width: 3" />
	<polygon points="280.805540734207,-220.867326807157 157.135125154849,-230.559385583595 213.499095955912,-189.417951711037 " style="fill: rgb(14,173,105); fill-opacity: 1; stroke: rgb(0,0,0); stroke-width: 3" />
	<polygon points="213.499095955918,-476.668144188631 280.805540734213,-445.218769092511 207.557764468714,-550.721647028062 " style="fill: rgb(14,173,105); fill-opacity: 1; stroke: rgb(0,0,0); stroke-width: 3" />
	<polygon points="351.494466934284,-254.840572492821 284.518340355936,-220.735898383597 418.176734415012,-209.783871319556 " style="fill: rgb(14,173,105); fill-opacity: 1; stroke: rgb(0,0,0); stroke-width: 3" />
	<polygon points="160.308923794261,-363.593377521307 155.75419054561,-432.651592169127 102.063193419156,-326.214004889052 " style="fill: rgb(14,173,105); fill-opacity: 1; stroke: rgb(0,0,0); stroke-width: 3" />
	<polygon points="284.518340355972,-445.35019751611 344.962316533181,-489.530596752353 334.496369598449,-563.664569312465 " style="fill: rgb(14,173,105); fill-opacity: 1; stroke: rgb(0,0,0); stroke-width: 3" />
	<polygon points="418.176734415012,-209.783871319556 284.518340355936,-220.735898383597 344.962316533086,-176.555499147292 " style="fill: rgb(14,173,105); fill-opacity: 1; stroke: rgb(0,0,0); stroke-width: 3" />
	<polygon points="102.063193419156,-326.214004889052 155.75419054561,-432.651592169127 97.5084601705037,-395.272219536869 " style="fill: rgb(14,173,105); fill-opacity: 1; stroke: rgb(0,0,0); stroke-width: 3" />
	<polygon points="280.805540734207,-220.867326807157 213.499095955912,-189.417951711037 207.557764468708,-115.364448871601 " style="fill: rgb(14,173,105); fill-opacity: 1; stroke: rgb(0,0,0); stroke-width: 3" />
	<polygon points="157.135125154855,-435.526710316075 213.499095955918,-476.668144188631 204.062018901966,-550.357779004583 " style="fill: rgb(14,173,105); fill-opacity: 1; stroke: rgb(0,0,0); stroke-width: 3" />
	<polygon points="421.767823663695,-371.886621014254 492.831228154632,-333.621121103768 420.540909651708,-452.588235764222 " style="fill: rgb(14,173,105); fill-opacity: 1; stroke: rgb(0,0,0); stroke-width: 3" />
	<polygon points="344.962316533086,-176.555499147292 284.518340355936,-220.735898383597 334.496369598266,-102.421526587203 " style="fill: rgb(14,173,105); fill-opacity: 1; stroke: rgb(0,0,0); stroke-width: 3" />
	<polygon points="157.135125154855,-435.526710316075 204.062018901966,-550.357779004583 145.991822951191,-504.154461603262 " style="fill: rgb(14,173,105); fill-opacity: 1; stroke: rgb(0,0,0); stroke-width: 3" />
	<polygon points="420.540909651708,-452.588235764222 492.831228154632,-333.621121103768 491.60431414265,-414.322735853714 " style="fill: rgb(14,173,105); fill-opacity: 1; stroke: rgb(0,0,0); stroke-width: 3" />
	<polygon points="97.5084601705037,-395.272219536869 155.75419054561,-432.651592169127 34.8976493775079,-428.593263670687 " style="fill: rgb(14,173,105); fill-opacity: 1; stroke: rgb(0,0,0); stroke-width: 3" />
	<polygon points="213.499095955912,-189.417951711037 157.135125154849,-230.559385583595 204.062018901957,-115.728316895088 " style="fill: rgb(14,173,105); fill-opacity: 1; stroke: rgb(0,0,0); stroke-width: 3" />
	<polygon points="344.962316533181,-489.530596752353 418.17673441507,-456.302224580015 338.418947727392,-564.113210392892 " style="fill: rgb(14,173,105); fill-opacity: 1; stroke: rgb(0,0,0); stroke-width: 3" />
	<polygon points="157.135125154855,-435.526710316075 145.991822951191,-504.154461603262 78.8558884627771,-527.695765189308 " style="fill: rgb(14,173,105); fill-opacity: 1; stroke: rgb(0,0,0); stroke-width: 3" />
	<polygon points="204.062018901957,-115.728316895088 157.135125154849,-230.559385583595 145.991822951182,-161.931634296409 " style="fill: rgb(14,173,105); fill-opacity: 1; stroke: rgb(0,0,0); stroke-width: 3" />
	<polygon points="338.418947727392,-564.113210392892 418.17673441507,-456.302224580015 408.185622470118,-536.157148029302 " style="fill: rgb(14,173,105); fill-opacity: 1; stroke: rgb(0,0,0); stroke-width: 3" />
	<polygon points="102.063193419156,-326.214004889052 97.5084601705037,-395.272219536869 33.5,-425.822549108339 " style="fill: rgb(14,173,105); fill-opacity: 1; stroke: rgb(0,0,0); stroke-width: 3" />
	<polygon points="420.540909651708,-452.588235764222 491.60431414265,-414.322735853714 500.928605050582,-420.367461543282 479.119387978099,-454.508706727285 " style="fill: rgb(67,184,206); fill-opacity: 1; stroke: rgb(0,0,0); stroke-width: 3" />
	<polygon points="418.176734415012,-209.783871319556 344.962316533086,-176.555499147292 338.418947727225,-101.972885506753 " style="fill: rgb(14,173,105); fill-opacity: 1; stroke: rgb(0,0,0); stroke-width: 3" />
	<polygon points="157.135125154849,-230.559385583595 78.8558884627699,-138.390330710368 145.991822951182,-161.931634296409 " style="fill: rgb(14,173,105); fill-opacity: 1; stroke: rgb(0,0,0); stroke-width: 3" />
	<polygon points="408.185622470118,-536.157148029302 418.17673441507,-456.302224580015 440.746357256563,-510.392320314332 416.839083710932,-542.589122771096 " style="fill: rgb(67,184,206); fill-opacity: 1; stroke: rgb(0,0,0); stroke-width: 3" />
	<polygon points="418.176734415012,-209.783871319556 338.418947727225,-101.972885506753 408.18562246998,-129.928947870275 " style="fill: rgb(14,173,105); fill-opacity: 1; stroke: rgb(0,0,0); stroke-width: 3" />
	<polygon points="491.60431414265,-414.322735853714 492.831228154632,-333.621121103768 521.520924737954,-384.729120885719 501.264839259825,-419.814125846969 " style="fill: rgb(67,184,206); fill-opacity: 1; stroke: rgb(0,0,0); stroke-width: 3" />
	<polygon points="145.991822951191,-504.154461603262 204.062018901966,-550.357779004583 80.0062167061718,-530.750071064953 " style="fill: rgb(14,173,105); fill-opacity: 1; stroke: rgb(0,0,0); stroke-width: 3" />
	<polygon points="418.176734415012,-209.783871319556 408.18562246998,-129.928947870275 416.839083710796,-123.496973128465 440.746357256452,-155.693775585217 " style="fill: rgb(67,184,206); fill-opacity: 1; stroke: rgb(0,0,0); stroke-width: 3" />
	<polygon points="80.0062167061718,-530.750071064953 204.062018901966,-550.357779004583 134.589725018945,-577.307862017217 " style="fill: rgb(14,173,105); fill-opacity: 1; stroke: rgb(0,0,0); stroke-width: 3" />
	<polygon points="338.418947727392,-564.113210392892 408.185622470118,-536.157148029302 416.474397753803,-543.052718696208 391.411214491292,-573.117566696621 " style="fill: rgb(67,184,206); fill-opacity: 1; stroke: rgb(0,0,0); stroke-width: 3" />
	<polygon points="204.062018901957,-115.728316895088 145.991822951182,-161.931634296409 80.006216706157,-135.336024834701 " style="fill: rgb(14,173,105); fill-opacity: 1; stroke: rgb(0,0,0); stroke-width: 3" />
	<polygon points="338.418947727392,-564.113210392892 391.411214491292,-573.117566696621 404.72537532049,-609.089087164178 395.014759961262,-612.586095899591 " style="fill: rgb(67,184,206); fill-opacity: 1; stroke: rgb(0,0,0); stroke-width: 3" />
	<polygon points="204.062018901957,-115.728316895088 80.006216706157,-135.336024834701 134.589725018939,-88.7782338824449 " style="fill: rgb(14,173,105); fill-opacity: 1; stroke: rgb(0,0,0); stroke-width: 3" />
	<polygon points="408.18562246998,-129.928947870275 338.418947727225,-101.972885506753 391.411214491125,-92.9685292029739 416.474397753651,-123.033377203371 " style="fill: rgb(67,184,206); fill-opacity: 1; stroke: rgb(0,0,0); stroke-width: 3" />
	<polygon points="391.411214491125,-92.9685292029739 338.418947727225,-101.972885506753 395.014759961052,-53.5 404.725375320283,-56.9970087354064 " style="fill: rgb(67,184,206); fill-opacity: 1; stroke: rgb(0,0,0); stroke-width: 3" />
	<polygon points="134.589725018945,-577.307862017217 132.572642862458,-587.429941859054 95.6188492520018,-579.533397846564 80.0062167061718,-530.750071064953 " style="fill: rgb(67,184,206); fill-opacity: 1; stroke: rgb(0,0,0); stroke-width: 3" />
	<polygon points="132.572642862456,-78.6561540406151 134.589725018939,-88.7782338824449 80.006216706157,-135.336024834701 95.6188492520008,-86.5526980530845 " style="fill: rgb(67,184,206); fill-opacity: 1; stroke: rgb(0,0,0); stroke-width: 3" />
	<polygon points="294.322832208829,-365.83137099674 275.538153842741,-333.043047949832 295.89133931364,-301.204610319619 342.379746499203,-334.665309562196 " style="fill: rgb(67,184,206); fill-opacity: 1; stroke: rgb(0,0,0); stroke-width: 3" />
	<polygon points="294.322832208829,-365.83137099674 345.585191270855,-340.27827060071 351.759189658127,-398.503450990065 312.631301641763,-399.53622391671 " style="fill: rgb(67,184,206); fill-opacity: 1; stroke: rgb(0,0,0); stroke-width: 3" />
	<polygon points="351.759189658127,-398.503450990065 345.585191270855,-340.27827060071 403.500399530064,-354.101350114551 391.451001619062,-392.780525157585 " style="fill: rgb(67,184,206); fill-opacity: 1; stroke: rgb(0,0,0); stroke-width: 3" />
	<polygon points="342.379746499203,-334.665309562196 357.832529622417,-278.189638860487 396.088327717164,-290.218176966172 401.76378886467,-330.331213659888 " style="fill: rgb(67,184,206); fill-opacity: 1; stroke: rgb(0,0,0); stroke-width: 3" />
	<polygon points="342.379746499203,-334.665309562196 295.89133931364,-301.204610319619 319.379431558539,-270.880911896955 357.832529622417,-278.189638860487 " style="fill: rgb(67,184,206); fill-opacity: 1; stroke: rgb(0,0,0); stroke-width: 3" />
	<polygon points="391.411214491292,-573.117566696621 416.474397753803,-543.052718696208 458.338847384466,-583.987517395876 406.51238543545,-608.376208182782 " style="fill: rgb(67,184,206); fill-opacity: 1; stroke: rgb(0,0,0); stroke-width: 3" />
	<polygon points="406.51238543545,-608.376208182782 458.338847384466,-583.987517395876 462.244897043801,-641.132361192255 424.46010406652,-641.630045036385 " style="fill: rgb(67,184,206); fill-opacity: 1; stroke: rgb(0,0,0); stroke-width: 3" />
	<polygon points="416.474397753651,-123.033377203371 391.411214491125,-92.9685292029739 406.512385435249,-57.709887716808 458.338847384285,-82.0985785036673 " style="fill: rgb(67,184,206); fill-opacity: 1; stroke: rgb(0,0,0); stroke-width: 3" />
	<polygon points="501.264839259825,-419.814125846969 521.520924737954,-384.729120885719 561.5,-387.870037633697 554.725659626048,-446.028426538108 " style="fill: rgb(67,184,206); fill-opacity: 1; stroke: rgb(0,0,0); stroke-width: 3" />
	<polygon points="479.119387978099,-454.508706727285 500.928605050582,-420.367461543282 548.823324318652,-455.741813002871 500.324199343513,-488.546153631903 " style="fill: rgb(67,184,206); fill-opacity: 1; stroke: rgb(0,0,0); stroke-width: 3" />
	<circle cx="224.317383964764" cy="-333.043047949832" r="2" style="fill: rgb(0,0,0)" />
	<circle cx="275.538153842741" cy="-333.043047949832" r="2" style="fill: rgb(0,0,0)" />
	<circle cx="294.322832208829" cy="-365.83137099674" r="2" style="fill: rgb(0,0,0)" />
	<circle cx="285.297259824598" cy="-370.837783273755" r="2" style="fill: rgb(0,0,0)" />
	<circle cx="285.297259824593" cy="-295.248312625911" r="2" style="fill: rgb(0,0,0)" />
	<circle cx="294.322832208824" cy="-300.254724902927" r="2" style="fill: rgb(0,0,0)" />
	<circle cx="280.805540734213" cy="-445.218769092511" r="2" style="fill: rgb(0,0,0)" />
	<circle cx="312.631301641763" cy="-399.53622391671" r="2" style="fill: rgb(0,0,0)" />
	<circle cx="284.518340355972" cy="-445.35019751611" r="2" style="fill: rgb(0,0,0)" />
	<circle cx="295.89133931364" cy="-301.204610319619" r="2" style="fill: rgb(0,0,0)" />
	<circle cx="342.379746499203" cy="-334.665309562196" r="2" style="fill: rgb(0,0,0)" />
	<circle cx="280.805540734207" cy="-220.867326807157" r="2" style="fill: rgb(0,0,0)" />
	<circle cx="284.518340355936" cy="-220.735898383597" r="2" style="fill: rgb(0,0,0)" />
	<circle cx="312.631301641757" cy="-266.549871982956" r="2" style="fill: rgb(0,0,0)" />
	<circle cx="219.100490810974" cy="-403.995219868564" r="2" style="fill: rgb(0,0,0)" />
	<circle cx="351.761753985488" cy="-400.466782842267" r="2" style="fill: rgb(0,0,0)" />
	<circle cx="351.494466934295" cy="-411.245523406818" r="2" style="fill: rgb(0,0,0)" />
	<circle cx="345.585191270855" cy="-340.27827060071" r="2" style="fill: rgb(0,0,0)" />
	<circle cx="351.759189658127" cy="-398.503450990065" r="2" style="fill: rgb(0,0,0)" />
	<circle cx="319.379431558539" cy="-270.880911896955" r="2" style="fill: rgb(0,0,0)" />
	<circle cx="357.832529622417" cy="-278.189638860487" r="2" style="fill: rgb(0,0,0)" />
	<circle cx="219.100490810969" cy="-262.090876031106" r="2" style="fill: rgb(0,0,0)" />
	<circle cx="351.494466934284" cy="-254.840572492821" r="2" style="fill: rgb(0,0,0)" />
	<circle cx="351.76175398548" cy="-265.619313057367" r="2" style="fill: rgb(0,0,0)" />
	<circle cx="155.75419054561" cy="-432.651592169127" r="2" style="fill: rgb(0,0,0)" />
	<circle cx="157.135125154855" cy="-435.526710316075" r="2" style="fill: rgb(0,0,0)" />
	<circle cx="391.85121306838" cy="-401.480235982241" r="2" style="fill: rgb(0,0,0)" />
	<circle cx="420.540909651708" cy="-452.588235764222" r="2" style="fill: rgb(0,0,0)" />
	<circle cx="418.17673441507" cy="-456.302224580015" r="2" style="fill: rgb(0,0,0)" />
	<circle cx="403.500399530064" cy="-354.101350114551" r="2" style="fill: rgb(0,0,0)" />
	<circle cx="391.451001619062" cy="-392.780525157585" r="2" style="fill: rgb(0,0,0)" />
	<circle cx="396.088327717164" cy="-290.218176966172" r="2" style="fill: rgb(0,0,0)" />
	<circle cx="401.76378886467" cy="-330.331213659888" r="2" style="fill: rgb(0,0,0)" />
	<circle cx="155.754190545602" cy="-233.434503730547" r="2" style="fill: rgb(0,0,0)" />
	<circle cx="157.135125154849" cy="-230.559385583595" r="2" style="fill: rgb(0,0,0)" />
	<circle cx="420.540909651628" cy="-213.497860135395" r="2" style="fill: rgb(0,0,0)" />
	<circle cx="391.851213068372" cy="-264.605859917373" r="2" style="fill: rgb(0,0,0)" />
	<circle cx="418.176734415012" cy="-209.783871319556" r="2" style="fill: rgb(0,0,0)" />
	<circle cx="160.308923794261" cy="-363.593377521307" r="2" style="fill: rgb(0,0,0)" />
	<circle cx="213.499095955918" cy="-476.668144188631" r="2" style="fill: rgb(0,0,0)" />
	<circle cx="412.107298546507" cy="-366.395231020989" r="2" style="fill: rgb(0,0,0)" />
	<circle cx="421.767823663695" cy="-371.886621014254" r="2" style="fill: rgb(0,0,0)" />
	<circle cx="344.962316533181" cy="-489.530596752353" r="2" style="fill: rgb(0,0,0)" />
	<circle cx="441.800147950102" cy="-253.536358271532" r="2" style="fill: rgb(0,0,0)" />
	<circle cx="412.776604215232" cy="-328.848308520558" r="2" style="fill: rgb(0,0,0)" />
	<circle cx="160.308923794261" cy="-302.492718378368" r="2" style="fill: rgb(0,0,0)" />
	<circle cx="213.499095955912" cy="-189.417951711037" r="2" style="fill: rgb(0,0,0)" />
	<circle cx="344.962316533086" cy="-176.555499147292" r="2" style="fill: rgb(0,0,0)" />
	<circle cx="102.063193419156" cy="-326.214004889052" r="2" style="fill: rgb(0,0,0)" />
	<circle cx="207.557764468714" cy="-550.721647028062" r="2" style="fill: rgb(0,0,0)" />
	<circle cx="204.062018901966" cy="-550.357779004583" r="2" style="fill: rgb(0,0,0)" />
	<circle cx="492.831228154632" cy="-333.621121103768" r="2" style="fill: rgb(0,0,0)" />
	<circle cx="334.496369598449" cy="-563.664569312465" r="2" style="fill: rgb(0,0,0)" />
	<circle cx="338.418947727392" cy="-564.113210392892" r="2" style="fill: rgb(0,0,0)" />
	<circle cx="207.557764468708" cy="-115.364448871601" r="2" style="fill: rgb(0,0,0)" />
	<circle cx="204.062018901957" cy="-115.728316895088" r="2" style="fill: rgb(0,0,0)" />
	<circle cx="334.496369598266" cy="-102.421526587203" r="2" style="fill: rgb(0,0,0)" />
	<circle cx="338.418947727225" cy="-101.972885506753" r="2" style="fill: rgb(0,0,0)" />
	<circle cx="97.5084601705037" cy="-395.272219536869" r="2" style="fill: rgb(0,0,0)" />
	<circle cx="145.991822951191" cy="-504.154461603262" r="2" style="fill: rgb(0,0,0)" />
	<circle cx="491.60431414265" cy="-414.322735853714" r="2" style="fill: rgb(0,0,0)" />
	<circle cx="408.185622470118" cy="-536.157148029302" r="2" style="fill: rgb(0,0,0)" />
	<circle cx="145.991822951182" cy="-161.931634296409" r="2" style="fill: rgb(0,0,0)" />
	<circle cx="408.18562246998" cy="-129.928947870275" r="2" style="fill: rgb(0,0,0)" />
	<circle cx="34.8976493775079" cy="-428.593263670687" r="2" style="fill: rgb(0,0,0)" />
	<circle cx="33.5" cy="-425.822549108339" r="2" style="fill: rgb(0,0,0)" />
	<circle cx="78.8558884627771" cy="-527.695765189308" r="2" style="fill: rgb(0,0,0)" />
	<circle cx="80.0062167061718" cy="-530.750071064953" r="2" style="fill: rgb(0,0,0)" />
	<circle cx="500.928605050582" cy="-420.367461543282" r="2" style="fill: rgb(0,0,0)" />
	<circle cx="479.119387978099" cy="-454.508706727285" r="2" style="fill: rgb(0,0,0)" />
	<circle cx="521.520924737954" cy="-384.729120885719" r="2" style="fill: rgb(0,0,0)" />
	<circle cx="501.264839259825" cy="-419.814125846969" r="2" style="fill: rgb(0,0,0)" />
	<circle cx="440.746357256563" cy="-510.392320314332" r="2" style="fill: rgb(0,0,0)" />
	<circle cx="416.839083710932" cy="-542.589122771096" r="2" style="fill: rgb(0,0,0)" />
	<circle cx="416.474397753803" cy="-543.052718696208" r="2" style="fill: rgb(0,0,0)" />
	<circle cx="391.411214491292" cy="-573.117566696621" r="2" style="fill: rgb(0,0,0)" />
	<circle cx="78.8558884627699" cy="-138.390330710368" r="2" style="fill: rgb(0,0,0)" />
	<circle cx="80.006216706157" cy="-135.336024834701" r="2" style="fill: rgb(0,0,0)" />
	<circle cx="416.839083710796" cy="-123.496973128465" r="2" style="fill: rgb(0,0,0)" />
	<circle cx="440.746357256452" cy="-155.693775585217" r="2" style="fill: rgb(0,0,0)" />
	<circle cx="391.411214491125" cy="-92.9685292029739" r="2" style="fill: rgb(0,0,0)" />
	<circle cx="416.474397753651" cy="-123.033377203371" r="2" style="fill: rgb(0,0,0)" />
	<circle cx="134.589725018945" cy="-577.307862017217" r="2" style="fill: rgb(0,0,0)" />
	<circle cx="548.823324318652" cy="-455.741813002871" r="2" style="fill: rgb(0,0,0)" />
	<circle cx="500.324199343513" cy="-488.546153631903" r="2" style="fill: rgb(0,0,0)" />
	<circle cx="561.5" cy="-387.870037633697" r="2" style="fill: rgb(0,0,0)" />
	<circle cx="554.725659626048" cy="-446.028426538108" r="2" style="fill: rgb(0,0,0)" />
	<circle cx="404.72537532049" cy="-609.089087164178" r="2" style="fill: rgb(0,0,0)" />
	<circle cx="395.014759961262" cy="-612.586095899591" r="2" style="fill: rgb(0,0,0)" />
	<circle cx="458.338847384466" cy="-583.987517395876" r="2" style="fill: rgb(0,0,0)" />
	<circle cx="406.51238543545" cy="-608.376208182782" r="2" style="fill: rgb(0,0,0)" />
	<circle cx="134.589725018939" cy="-88.7782338824449" r="2" style="fill: rgb(0,0,0)" />
	<circle cx="395.014759961052" cy="-53.5" r="2" style="fill: rgb(0,0,0)" />
	<circle cx="404.725375320283" cy="-56.9970087354064" r="2" style="fill: rgb(0,0,0)" />
	<circle cx="406.512385435249" cy="-57.709887716808" r="2" style="fill: rgb(0,0,0)" />
	<circle cx="458.338847384285" cy="-82.0985785036673" r="2" style="fill: rgb(0,0,0)" />
	<circle cx="132.572642862458" cy="-587.429941859054" r="2" style="fill: rgb(0,0,0)" />
	<circle cx="95.6188492520018" cy="-579.533397846564" r="2" style="fill: rgb(0,0,0)" />
	<circle cx="462.244897043801" cy="-641.132361192255" r="2" style="fill: rgb(0,0,0)" />
	<circle cx="424.46010406652" cy="-641.630045036385" r="2" style="fill: rgb(0,0,0)" />
	<circle cx="95.6188492520008" cy="-86.5526980530845" r="2" style="fill: rgb(0,0,0)" />
	<circle cx="132.572642862456" cy="-78.6561540406151" r="2" style="fill: rgb(0,0,0)" />
	<!-- 
	Generated using the Perl SVG Module V2.64
	by Ronan Oger
	Info: http://www.roitsystems.com/
 -->
</svg>