<?xml version="1.0" encoding="UTF-8" standalone="yes"?>
<!DOCTYPE svg PUBLIC "-//W3C//DTD SVG 1.0//EN" "http://www.w3.org/TR/2001/REC-SVG-20010904/DTD/svg10.dtd">
<!-- generated using polymake; Michael Joswig, Georg Loho, Benjamin Lorenz, Rico Raber; license CC BY-NC-SA 3.0; see polymake.org and matchthenet.de -->
<svg height="841pt" id="document" viewBox="0 -740.349330096757 572 740.349330096757" width="595pt" xmlns="http://www.w3.org/2000/svg" xmlns:svg="http://www.w3.org/2000/svg" xmlns:xlink="http://www.w3.org/1999/xlink">
	<title id="document_title">planar_net_</title>
	<polygon points="195.901303807273,-357.242112426047 414.339288878776,-357.242112426047 292.300402355667,-423.512436416687 " style="fill: rgb(14,173,105); fill-opacity: 1; stroke: rgb(0,0,0); stroke-width: 3" />
	<polygon points="292.300402355668,-290.971788435406 414.339288878776,-357.242112426047 195.901303807273,-357.242112426047 " style="fill: rgb(14,173,105); fill-opacity: 1; stroke: rgb(0,0,0); stroke-width: 3" />
	<polygon points="195.901303807273,-357.242112426047 274.133457508463,-153.293875244715 292.300402355668,-290.971788435406 " style="fill: rgb(14,173,105); fill-opacity: 1; stroke: rgb(0,0,0); stroke-width: 3" />
	<polygon points="195.901303807273,-357.242112426047 168.551634476287,-243.503211296075 274.133457508463,-153.293875244715 " style="fill: rgb(14,173,105); fill-opacity: 1; stroke: rgb(0,0,0); stroke-width: 3" />
	<polygon points="195.901303807273,-357.242112426047 33.5,-211.156624290512 168.551634476287,-243.503211296075 " style="fill: rgb(14,173,105); fill-opacity: 1; stroke: rgb(0,0,0); stroke-width: 3" />
	<polygon points="195.901303807273,-357.242112426047 168.551634476288,-470.981013556021 33.5000000000001,-503.32760056159 " style="fill: rgb(14,173,105); fill-opacity: 1; stroke: rgb(0,0,0); stroke-width: 3" />
	<polygon points="195.901303807273,-357.242112426047 274.133457508463,-561.190349607381 168.551634476288,-470.981013556021 " style="fill: rgb(14,173,105); fill-opacity: 1; stroke: rgb(0,0,0); stroke-width: 3" />
	<polygon points="195.901303807273,-357.242112426047 292.300402355667,-423.512436416687 274.133457508463,-561.190349607381 " style="fill: rgb(14,173,105); fill-opacity: 1; stroke: rgb(0,0,0); stroke-width: 3" />
	<polygon points="419.48896505265,-500.067999811764 414.339288878776,-357.242112426047 472.947630568678,-435.580195180752 440.006464243578,-510.127194273619 " style="fill: rgb(14,173,105); fill-opacity: 1; stroke: rgb(0,0,0); stroke-width: 3" />
	<polygon points="472.947630568678,-278.90402967135 414.339288878776,-357.242112426047 419.488965052656,-214.41622504033 440.006464243594,-204.357030578472 " style="fill: rgb(14,173,105); fill-opacity: 1; stroke: rgb(0,0,0); stroke-width: 3" />
	<polygon points="437.982501670494,-200.994441640357 419.488965052656,-214.41622504033 290.867739016286,-152.107850923245 387.528009078046,-136.988819310373 " style="fill: rgb(14,173,105); fill-opacity: 1; stroke: rgb(0,0,0); stroke-width: 3" />
	<polygon points="387.528009078046,-136.988819310373 290.867739016286,-152.107850923245 394.31939443327,-53.5 416.028081453391,-60.6335877462565 " style="fill: rgb(14,173,105); fill-opacity: 1; stroke: rgb(0,0,0); stroke-width: 3" />
	<polygon points="58.8880412351426,-99.4443754682307 136.717899708415,-75.2599043629891 142.626029032472,-97.3336257112659 38.3859236319704,-195.107618665966 " style="fill: rgb(14,173,105); fill-opacity: 1; stroke: rgb(0,0,0); stroke-width: 3" />
	<polygon points="142.626029032472,-617.150599140827 136.717899708411,-639.224320489114 58.8880412351388,-615.039849383853 38.3859236319694,-519.376606186123 " style="fill: rgb(14,173,105); fill-opacity: 1; stroke: rgb(0,0,0); stroke-width: 3" />
	<polygon points="290.867739016278,-562.376373928845 387.528009078031,-577.495405541719 416.02808145338,-653.850637105843 394.319394433253,-660.984224852092 " style="fill: rgb(14,173,105); fill-opacity: 1; stroke: rgb(0,0,0); stroke-width: 3" />
	<polygon points="290.867739016278,-562.376373928845 419.48896505265,-500.067999811764 437.982501670497,-513.489783211745 387.528009078031,-577.495405541719 " style="fill: rgb(14,173,105); fill-opacity: 1; stroke: rgb(0,0,0); stroke-width: 3" />
	<polygon points="290.867739016286,-152.107850923245 414.339288878776,-357.242112426047 292.300402355668,-290.971788435406 " style="fill: rgb(14,173,105); fill-opacity: 1; stroke: rgb(0,0,0); stroke-width: 3" />
	<polygon points="419.488965052656,-214.41622504033 414.339288878776,-357.242112426047 290.867739016286,-152.107850923245 " style="fill: rgb(14,173,105); fill-opacity: 1; stroke: rgb(0,0,0); stroke-width: 3" />
	<polygon points="292.300402355667,-423.512436416687 414.339288878776,-357.242112426047 290.867739016278,-562.376373928845 " style="fill: rgb(14,173,105); fill-opacity: 1; stroke: rgb(0,0,0); stroke-width: 3" />
	<polygon points="290.867739016278,-562.376373928845 414.339288878776,-357.242112426047 419.48896505265,-500.067999811764 " style="fill: rgb(14,173,105); fill-opacity: 1; stroke: rgb(0,0,0); stroke-width: 3" />
	<polygon points="168.551634476288,-470.981013556021 274.133457508463,-561.190349607381 38.3859236319694,-519.376606186123 " style="fill: rgb(14,173,105); fill-opacity: 1; stroke: rgb(0,0,0); stroke-width: 3" />
	<polygon points="38.3859236319694,-519.376606186123 274.133457508463,-561.190349607381 142.626029032472,-617.150599140827 " style="fill: rgb(14,173,105); fill-opacity: 1; stroke: rgb(0,0,0); stroke-width: 3" />
	<polygon points="168.551634476287,-243.503211296075 38.3859236319704,-195.107618665966 274.133457508463,-153.293875244715 " style="fill: rgb(14,173,105); fill-opacity: 1; stroke: rgb(0,0,0); stroke-width: 3" />
	<polygon points="274.133457508463,-153.293875244715 38.3859236319704,-195.107618665966 142.626029032472,-97.3336257112659 " style="fill: rgb(14,173,105); fill-opacity: 1; stroke: rgb(0,0,0); stroke-width: 3" />
	<polygon points="440.006464243578,-510.127194273619 472.947630568678,-435.580195180752 554.398673781427,-438.426784748401 536.240303242925,-536.558539972644 " style="fill: rgb(14,173,105); fill-opacity: 1; stroke: rgb(0,0,0); stroke-width: 3" />
	<polygon points="506.387547937484,-128.328648799264 437.982501670494,-200.994441640357 387.528009078046,-136.988819310373 428.171922562894,-66.3457176708789 " style="fill: rgb(14,173,105); fill-opacity: 1; stroke: rgb(0,0,0); stroke-width: 3" />
	<polygon points="387.528009078031,-577.495405541719 437.982501670497,-513.489783211745 506.38754793749,-586.155576052834 428.171922562882,-648.138507181223 " style="fill: rgb(14,173,105); fill-opacity: 1; stroke: rgb(0,0,0); stroke-width: 3" />
	<polygon points="428.171922562882,-648.138507181223 506.38754793749,-586.155576052834 561.5,-669.355248117502 487.658725491651,-703.849330096757 " style="fill: rgb(14,173,105); fill-opacity: 1; stroke: rgb(0,0,0); stroke-width: 3" />
	<circle cx="195.901303807273" cy="-357.242112426047" r="2" style="fill: rgb(0,0,0)" />
	<circle cx="414.339288878776" cy="-357.242112426047" r="2" style="fill: rgb(0,0,0)" />
	<circle cx="292.300402355667" cy="-423.512436416687" r="2" style="fill: rgb(0,0,0)" />
	<circle cx="292.300402355668" cy="-290.971788435406" r="2" style="fill: rgb(0,0,0)" />
	<circle cx="274.133457508463" cy="-561.190349607381" r="2" style="fill: rgb(0,0,0)" />
	<circle cx="290.867739016278" cy="-562.376373928845" r="2" style="fill: rgb(0,0,0)" />
	<circle cx="274.133457508463" cy="-153.293875244715" r="2" style="fill: rgb(0,0,0)" />
	<circle cx="290.867739016286" cy="-152.107850923245" r="2" style="fill: rgb(0,0,0)" />
	<circle cx="168.551634476288" cy="-470.981013556021" r="2" style="fill: rgb(0,0,0)" />
	<circle cx="419.48896505265" cy="-500.067999811764" r="2" style="fill: rgb(0,0,0)" />
	<circle cx="168.551634476287" cy="-243.503211296075" r="2" style="fill: rgb(0,0,0)" />
	<circle cx="419.488965052656" cy="-214.41622504033" r="2" style="fill: rgb(0,0,0)" />
	<circle cx="33.5000000000001" cy="-503.32760056159" r="2" style="fill: rgb(0,0,0)" />
	<circle cx="38.3859236319694" cy="-519.376606186123" r="2" style="fill: rgb(0,0,0)" />
	<circle cx="472.947630568678" cy="-435.580195180752" r="2" style="fill: rgb(0,0,0)" />
	<circle cx="440.006464243578" cy="-510.127194273619" r="2" style="fill: rgb(0,0,0)" />
	<circle cx="437.982501670497" cy="-513.489783211745" r="2" style="fill: rgb(0,0,0)" />
	<circle cx="387.528009078031" cy="-577.495405541719" r="2" style="fill: rgb(0,0,0)" />
	<circle cx="33.5" cy="-211.156624290512" r="2" style="fill: rgb(0,0,0)" />
	<circle cx="38.3859236319704" cy="-195.107618665966" r="2" style="fill: rgb(0,0,0)" />
	<circle cx="440.006464243594" cy="-204.357030578472" r="2" style="fill: rgb(0,0,0)" />
	<circle cx="472.947630568678" cy="-278.90402967135" r="2" style="fill: rgb(0,0,0)" />
	<circle cx="387.528009078046" cy="-136.988819310373" r="2" style="fill: rgb(0,0,0)" />
	<circle cx="437.982501670494" cy="-200.994441640357" r="2" style="fill: rgb(0,0,0)" />
	<circle cx="142.626029032472" cy="-617.150599140827" r="2" style="fill: rgb(0,0,0)" />
	<circle cx="554.398673781427" cy="-438.426784748401" r="2" style="fill: rgb(0,0,0)" />
	<circle cx="536.240303242925" cy="-536.558539972644" r="2" style="fill: rgb(0,0,0)" />
	<circle cx="416.02808145338" cy="-653.850637105843" r="2" style="fill: rgb(0,0,0)" />
	<circle cx="394.319394433253" cy="-660.984224852092" r="2" style="fill: rgb(0,0,0)" />
	<circle cx="506.38754793749" cy="-586.155576052834" r="2" style="fill: rgb(0,0,0)" />
	<circle cx="428.171922562882" cy="-648.138507181223" r="2" style="fill: rgb(0,0,0)" />
	<circle cx="142.626029032472" cy="-97.3336257112659" r="2" style="fill: rgb(0,0,0)" />
	<circle cx="394.31939443327" cy="-53.5" r="2" style="fill: rgb(0,0,0)" />
	<circle cx="416.028081453391" cy="-60.6335877462565" r="2" style="fill: rgb(0,0,0)" />
	<circle cx="428.171922562894" cy="-66.3457176708789" r="2" style="fill: rgb(0,0,0)" />
	<circle cx="506.387547937484" cy="-128.328648799264" r="2" style="fill: rgb(0,0,0)" />
	<circle cx="136.717899708411" cy="-639.224320489114" r="2" style="fill: rgb(0,0,0)" />
	<circle cx="58.8880412351388" cy="-615.039849383853" r="2" style="fill: rgb(0,0,0)" />
	<circle cx="561.5" cy="-669.355248117502" r="2" style="fill: rgb(0,0,0)" />
	<circle cx="487.658725491651" cy="-703.849330096757" r="2" style="fill: rgb(0,0,0)" />
	<circle cx="58.8880412351426" cy="-99.4443754682307" r="2" style="fill: rgb(0,0,0)" />
	<circle cx="136.717899708415" cy="-75.2599043629891" r="2" style="fill: rgb(0,0,0)" />
	<!-- 
	Generated using the Perl SVG Module V2.64
	by Ronan Oger
	Info: http://www.roitsystems.com/
 -->
</svg>