<?xml version="1.0" encoding="UTF-8" standalone="yes"?>
<!DOCTYPE svg PUBLIC "-//W3C//DTD SVG 1.0//EN" "http://www.w3.org/TR/2001/REC-SVG-20010904/DTD/svg10.dtd">
<!-- generated using polymake; Michael Joswig, Georg Loho, Benjamin Lorenz, Rico Raber; license CC BY-NC-ND 3.0; see polymake.org and matchthenet.de -->
<svg height="841pt" id="document" viewBox="0 -651.07889423309 572 651.07889423309" width="595pt" xmlns="http://www.w3.org/2000/svg" xmlns:svg="http://www.w3.org/2000/svg" xmlns:xlink="http://www.w3.org/1999/xlink">
	<title id="document_title">planar_net_</title>
	<polygon points="270.261406595868,-304.361140065459 324.738593404144,-304.361140065459 363.259781616244,-342.882328277558 363.259781616244,-397.359515085834 324.738593404145,-435.880703297932 270.261406595868,-435.880703297932 231.740218383769,-397.359515085833 231.740218383768,-342.882328277557 " style="fill: rgb(136,136,136); fill-opacity: 1; stroke: rgb(0,0,0); stroke-width: 3" />
	<polygon points="456.258156636615,-435.880703297931 494.779344848716,-397.359515085833 508.879078318307,-449.980436767524 " style="fill: rgb(14,173,105); fill-opacity: 1; stroke: rgb(0,0,0); stroke-width: 3" />
	<polygon points="363.259781616242,-265.839951853362 324.738593404144,-304.361140065459 270.261406595868,-304.361140065459 231.74021838377,-265.839951853361 231.74021838377,-211.362765045085 270.261406595868,-172.841576832987 324.738593404144,-172.841576832987 363.259781616242,-211.362765045086 " style="fill: rgb(136,136,136); fill-opacity: 1; stroke: rgb(0,0,0); stroke-width: 3" />
	<polygon points="363.259781616244,-397.359515085834 363.259781616244,-342.882328277558 401.780969828345,-304.361140065461 456.258156636622,-304.361140065461 494.779344848719,-342.882328277558 494.779344848716,-397.359515085833 456.258156636615,-435.880703297931 401.780969828338,-435.88070329793 " style="fill: rgb(136,136,136); fill-opacity: 1; stroke: rgb(0,0,0); stroke-width: 3" />
	<polygon points="231.74021838377,-211.362765045085 217.640484914175,-158.741843363393 270.261406595868,-172.841576832987 " style="fill: rgb(14,173,105); fill-opacity: 1; stroke: rgb(0,0,0); stroke-width: 3" />
	<polygon points="231.740218383768,-342.882328277557 231.740218383769,-397.359515085833 193.219030171669,-435.880703297935 138.741843363393,-435.880703297936 100.220655151295,-397.359515085837 100.220655151296,-342.882328277558 138.741843363395,-304.361140065457 193.219030171672,-304.361140065456 " style="fill: rgb(136,136,136); fill-opacity: 1; stroke: rgb(0,0,0); stroke-width: 3" />
	<polygon points="138.741843363393,-435.880703297936 86.1209216816996,-449.980436767533 100.220655151295,-397.359515085837 " style="fill: rgb(14,173,105); fill-opacity: 1; stroke: rgb(0,0,0); stroke-width: 3" />
	<polygon points="270.261406595868,-435.880703297932 324.738593404145,-435.880703297932 363.259781616245,-474.401891510035 363.259781616245,-528.879078318312 324.738593404144,-567.400266530409 270.261406595866,-567.400266530404 231.740218383766,-528.879078318301 231.740218383766,-474.401891510024 " style="fill: rgb(136,136,136); fill-opacity: 1; stroke: rgb(0,0,0); stroke-width: 3" />
	<polygon points="270.261406595868,-304.361140065459 231.740218383768,-342.882328277557 217.640484914187,-290.261406595863 " style="fill: rgb(14,173,105); fill-opacity: 1; stroke: rgb(0,0,0); stroke-width: 3" />
	<polygon points="377.359515085833,-158.741843363396 363.259781616242,-211.362765045086 324.738593404144,-172.841576832987 " style="fill: rgb(14,173,105); fill-opacity: 1; stroke: rgb(0,0,0); stroke-width: 3" />
	<polygon points="494.779344848716,-397.359515085833 494.779344848719,-342.882328277558 541.957972551399,-370.120921681709 " style="fill: rgb(14,173,105); fill-opacity: 1; stroke: rgb(0,0,0); stroke-width: 3" />
	<polygon points="363.259781616244,-342.882328277558 324.738593404144,-304.361140065459 377.359515085838,-290.261406595876 " style="fill: rgb(14,173,105); fill-opacity: 1; stroke: rgb(0,0,0); stroke-width: 3" />
	<polygon points="231.740218383769,-397.359515085833 270.261406595868,-435.880703297932 217.640484914174,-449.980436767515 " style="fill: rgb(14,173,105); fill-opacity: 1; stroke: rgb(0,0,0); stroke-width: 3" />
	<polygon points="324.738593404145,-435.880703297932 363.259781616244,-397.359515085834 377.359515085826,-449.980436767529 " style="fill: rgb(14,173,105); fill-opacity: 1; stroke: rgb(0,0,0); stroke-width: 3" />
	<polygon points="324.738593404144,-172.841576832987 270.261406595868,-172.841576832987 297.500000000016,-125.662949130307 " style="fill: rgb(14,173,105); fill-opacity: 1; stroke: rgb(0,0,0); stroke-width: 3" />
	<polygon points="494.779344848716,-397.359515085833 547.400266530417,-383.259781616244 561.5,-435.880703297917 508.879078318307,-449.980436767524 " style="fill: rgb(67,184,206); fill-opacity: 1; stroke: rgb(0,0,0); stroke-width: 3" />
	<polygon points="217.640484914175,-158.741843363393 231.740218383764,-106.120921681695 284.361140065452,-120.220655151287 270.261406595868,-172.841576832987 " style="fill: rgb(67,184,206); fill-opacity: 1; stroke: rgb(0,0,0); stroke-width: 3" />
	<polygon points="270.261406595866,-567.400266530404 324.738593404144,-567.400266530409 297.499999999997,-614.57889423309 " style="fill: rgb(14,173,105); fill-opacity: 1; stroke: rgb(0,0,0); stroke-width: 3" />
	<polygon points="100.220655151296,-342.882328277558 100.220655151295,-397.359515085837 53.042027448615,-370.12092168169 " style="fill: rgb(14,173,105); fill-opacity: 1; stroke: rgb(0,0,0); stroke-width: 3" />
	<polygon points="86.1209216816996,-449.980436767533 33.5,-435.880703297948 47.5997334695957,-383.259781616251 100.220655151295,-397.359515085837 " style="fill: rgb(67,184,206); fill-opacity: 1; stroke: rgb(0,0,0); stroke-width: 3" />
	<polygon points="377.359515085833,-158.741843363396 324.738593404144,-172.841576832987 310.638859934552,-120.220655151291 363.259781616226,-106.120921681702 " style="fill: rgb(67,184,206); fill-opacity: 1; stroke: rgb(0,0,0); stroke-width: 3" />
	<polygon points="298.460873535038,-67.5997334695898 284.361140065452,-120.220655151287 231.740218383764,-106.120921681695 245.839951853354,-53.5 " style="fill: rgb(67,184,206); fill-opacity: 1; stroke: rgb(0,0,0); stroke-width: 3" />
	<circle cx="270.261406595868" cy="-304.361140065459" r="2" style="fill: rgb(0,0,0)" />
	<circle cx="324.738593404144" cy="-304.361140065459" r="2" style="fill: rgb(0,0,0)" />
	<circle cx="363.259781616244" cy="-342.882328277558" r="2" style="fill: rgb(0,0,0)" />
	<circle cx="363.259781616244" cy="-397.359515085834" r="2" style="fill: rgb(0,0,0)" />
	<circle cx="324.738593404145" cy="-435.880703297932" r="2" style="fill: rgb(0,0,0)" />
	<circle cx="270.261406595868" cy="-435.880703297932" r="2" style="fill: rgb(0,0,0)" />
	<circle cx="231.740218383769" cy="-397.359515085833" r="2" style="fill: rgb(0,0,0)" />
	<circle cx="231.740218383768" cy="-342.882328277557" r="2" style="fill: rgb(0,0,0)" />
	<circle cx="231.74021838377" cy="-265.839951853361" r="2" style="fill: rgb(0,0,0)" />
	<circle cx="231.74021838377" cy="-211.362765045085" r="2" style="fill: rgb(0,0,0)" />
	<circle cx="270.261406595868" cy="-172.841576832987" r="2" style="fill: rgb(0,0,0)" />
	<circle cx="324.738593404144" cy="-172.841576832987" r="2" style="fill: rgb(0,0,0)" />
	<circle cx="363.259781616242" cy="-211.362765045086" r="2" style="fill: rgb(0,0,0)" />
	<circle cx="363.259781616242" cy="-265.839951853362" r="2" style="fill: rgb(0,0,0)" />
	<circle cx="401.780969828345" cy="-304.361140065461" r="2" style="fill: rgb(0,0,0)" />
	<circle cx="456.258156636622" cy="-304.361140065461" r="2" style="fill: rgb(0,0,0)" />
	<circle cx="494.779344848719" cy="-342.882328277558" r="2" style="fill: rgb(0,0,0)" />
	<circle cx="494.779344848716" cy="-397.359515085833" r="2" style="fill: rgb(0,0,0)" />
	<circle cx="456.258156636615" cy="-435.880703297931" r="2" style="fill: rgb(0,0,0)" />
	<circle cx="401.780969828338" cy="-435.88070329793" r="2" style="fill: rgb(0,0,0)" />
	<circle cx="193.219030171669" cy="-435.880703297935" r="2" style="fill: rgb(0,0,0)" />
	<circle cx="138.741843363393" cy="-435.880703297936" r="2" style="fill: rgb(0,0,0)" />
	<circle cx="100.220655151295" cy="-397.359515085837" r="2" style="fill: rgb(0,0,0)" />
	<circle cx="100.220655151296" cy="-342.882328277558" r="2" style="fill: rgb(0,0,0)" />
	<circle cx="138.741843363395" cy="-304.361140065457" r="2" style="fill: rgb(0,0,0)" />
	<circle cx="193.219030171672" cy="-304.361140065456" r="2" style="fill: rgb(0,0,0)" />
	<circle cx="363.259781616245" cy="-474.401891510035" r="2" style="fill: rgb(0,0,0)" />
	<circle cx="363.259781616245" cy="-528.879078318312" r="2" style="fill: rgb(0,0,0)" />
	<circle cx="324.738593404144" cy="-567.400266530409" r="2" style="fill: rgb(0,0,0)" />
	<circle cx="270.261406595866" cy="-567.400266530404" r="2" style="fill: rgb(0,0,0)" />
	<circle cx="231.740218383766" cy="-528.879078318301" r="2" style="fill: rgb(0,0,0)" />
	<circle cx="231.740218383766" cy="-474.401891510024" r="2" style="fill: rgb(0,0,0)" />
	<circle cx="217.640484914187" cy="-290.261406595863" r="2" style="fill: rgb(0,0,0)" />
	<circle cx="377.359515085838" cy="-290.261406595876" r="2" style="fill: rgb(0,0,0)" />
	<circle cx="217.640484914174" cy="-449.980436767515" r="2" style="fill: rgb(0,0,0)" />
	<circle cx="377.359515085826" cy="-449.980436767529" r="2" style="fill: rgb(0,0,0)" />
	<circle cx="217.640484914175" cy="-158.741843363393" r="2" style="fill: rgb(0,0,0)" />
	<circle cx="377.359515085833" cy="-158.741843363396" r="2" style="fill: rgb(0,0,0)" />
	<circle cx="297.500000000016" cy="-125.662949130307" r="2" style="fill: rgb(0,0,0)" />
	<circle cx="508.879078318307" cy="-449.980436767524" r="2" style="fill: rgb(0,0,0)" />
	<circle cx="541.957972551399" cy="-370.120921681709" r="2" style="fill: rgb(0,0,0)" />
	<circle cx="86.1209216816996" cy="-449.980436767533" r="2" style="fill: rgb(0,0,0)" />
	<circle cx="53.042027448615" cy="-370.12092168169" r="2" style="fill: rgb(0,0,0)" />
	<circle cx="297.499999999997" cy="-614.57889423309" r="2" style="fill: rgb(0,0,0)" />
	<circle cx="231.740218383764" cy="-106.120921681695" r="2" style="fill: rgb(0,0,0)" />
	<circle cx="284.361140065452" cy="-120.220655151287" r="2" style="fill: rgb(0,0,0)" />
	<circle cx="310.638859934552" cy="-120.220655151291" r="2" style="fill: rgb(0,0,0)" />
	<circle cx="363.259781616226" cy="-106.120921681702" r="2" style="fill: rgb(0,0,0)" />
	<circle cx="547.400266530417" cy="-383.259781616244" r="2" style="fill: rgb(0,0,0)" />
	<circle cx="561.5" cy="-435.880703297917" r="2" style="fill: rgb(0,0,0)" />
	<circle cx="33.5" cy="-435.880703297948" r="2" style="fill: rgb(0,0,0)" />
	<circle cx="47.5997334695957" cy="-383.259781616251" r="2" style="fill: rgb(0,0,0)" />
	<circle cx="245.839951853354" cy="-53.5" r="2" style="fill: rgb(0,0,0)" />
	<circle cx="298.460873535038" cy="-67.5997334695898" r="2" style="fill: rgb(0,0,0)" />
	<!--
	Generated using the Perl SVG Module V2.87
	by Ronan Oger

	-->
</svg>