<?xml version="1.0" encoding="UTF-8" standalone="yes"?>
<!DOCTYPE svg PUBLIC "-//W3C//DTD SVG 1.0//EN" "http://www.w3.org/TR/2001/REC-SVG-20010904/DTD/svg10.dtd">
<!-- generated using polymake; Michael Joswig, Georg Loho, Benjamin Lorenz, Rico Raber; license CC BY-NC-SA 3.0; see polymake.org and matchthenet.de -->
<svg height="841pt" id="document" viewBox="0 -785.529495960708 572 785.529495960708" width="595pt" xmlns="http://www.w3.org/2000/svg" xmlns:svg="http://www.w3.org/2000/svg" xmlns:xlink="http://www.w3.org/1999/xlink">
	<title id="document_title">planar_net_</title>
	<polygon points="223.673343270394,-345.388588483589 278.757935701247,-345.388588483589 295.780010890602,-397.777149062417 251.215639485829,-430.155060121818 206.651268081048,-397.77714906242 " style="fill: rgb(255,210,63); fill-opacity: 1; stroke: rgb(0,0,0); stroke-width: 3" />
	<polygon points="278.757935701238,-290.303996052727 278.757935701247,-345.388588483589 223.673343270394,-345.388588483589 223.673343270392,-290.303996052734 " style="fill: rgb(67,184,206); fill-opacity: 1; stroke: rgb(0,0,0); stroke-width: 3" />
	<polygon points="169.792481346751,-278.851265302428 128.856651518228,-241.99247856814 165.715438252509,-201.05664873962 206.651268081039,-237.915435473907 " style="fill: rgb(67,184,206); fill-opacity: 1; stroke: rgb(0,0,0); stroke-width: 3" />
	<polygon points="223.673343270392,-290.303996052734 169.792481346751,-278.851265302428 206.651268081039,-237.915435473907 " style="fill: rgb(14,173,105); fill-opacity: 1; stroke: rgb(0,0,0); stroke-width: 3" />
	<polygon points="278.757935701238,-290.303996052727 223.673343270392,-290.303996052734 206.651268081039,-237.915435473907 251.215639485806,-205.537524414499 295.780010890579,-237.915435473893 " style="fill: rgb(255,210,63); fill-opacity: 1; stroke: rgb(0,0,0); stroke-width: 3" />
	<polygon points="295.780010890602,-397.777149062417 278.757935701247,-345.388588483589 331.146496280074,-328.366513294233 348.168571469433,-380.755073873051 " style="fill: rgb(67,184,206); fill-opacity: 1; stroke: rgb(0,0,0); stroke-width: 3" />
	<polygon points="326.462592103479,-317.846292268143 278.757935701247,-345.388588483589 278.757935701238,-290.303996052727 " style="fill: rgb(14,173,105); fill-opacity: 1; stroke: rgb(0,0,0); stroke-width: 3" />
	<polygon points="116.200190260701,-273.281920863404 83.8222792013087,-317.846292268184 39.257907796524,-285.468381208792 71.6358188559096,-240.904009804013 " style="fill: rgb(67,184,206); fill-opacity: 1; stroke: rgb(0,0,0); stroke-width: 3" />
	<polygon points="128.856651518228,-241.99247856814 111.834576328863,-189.603917989309 165.715438252509,-201.05664873962 " style="fill: rgb(14,173,105); fill-opacity: 1; stroke: rgb(0,0,0); stroke-width: 3" />
	<polygon points="251.215639485806,-205.537524414499 206.651268081039,-237.915435473907 174.273357021627,-193.351064069136 218.837728426386,-160.973153009728 " style="fill: rgb(67,184,206); fill-opacity: 1; stroke: rgb(0,0,0); stroke-width: 3" />
	<polygon points="331.14649628008,-307.326071242061 278.757935701238,-290.303996052727 295.780010890579,-237.915435473893 348.168571469412,-254.937510663231 " style="fill: rgb(67,184,206); fill-opacity: 1; stroke: rgb(0,0,0); stroke-width: 3" />
	<polygon points="246.380024641882,-664.263024322475 290.944396046663,-696.64093538187 273.922320857316,-749.0294959607 218.837728426463,-749.029495960708 201.815653237107,-696.640935381881 " style="fill: rgb(255,210,63); fill-opacity: 1; stroke: rgb(0,0,0); stroke-width: 3" />
	<polygon points="77.3204250379966,-143.951077820432 94.3425002273073,-91.5625172416129 146.731060806154,-108.584592430928 129.708985616836,-160.973153009754 " style="fill: rgb(67,184,206); fill-opacity: 1; stroke: rgb(0,0,0); stroke-width: 3" />
	<polygon points="295.780010890579,-237.915435473893 251.215639485806,-205.537524414499 283.593550545202,-160.973153009717 328.157921949974,-193.3510640691 " style="fill: rgb(67,184,206); fill-opacity: 1; stroke: rgb(0,0,0); stroke-width: 3" />
	<polygon points="251.215639485806,-205.537524414499 218.837728426386,-160.973153009728 273.620561696308,-155.215245213175 " style="fill: rgb(14,173,105); fill-opacity: 1; stroke: rgb(0,0,0); stroke-width: 3" />
	<polygon points="348.168571469412,-254.937510663231 295.780010890579,-237.915435473893 336.71584071909,-201.056648739593 " style="fill: rgb(14,173,105); fill-opacity: 1; stroke: rgb(0,0,0); stroke-width: 3" />
	<polygon points="278.757935701279,-619.698652917685 323.322307106062,-652.076563977089 290.944396046663,-696.64093538187 246.380024641882,-664.263024322475 " style="fill: rgb(67,184,206); fill-opacity: 1; stroke: rgb(0,0,0); stroke-width: 3" />
	<polygon points="146.731060806151,-53.5000000000701 201.815653236994,-53.5000000000511 201.815653237003,-108.584592430913 146.731060806154,-108.584592430928 " style="fill: rgb(67,184,206); fill-opacity: 1; stroke: rgb(0,0,0); stroke-width: 3" />
	<polygon points="135.278330055798,-54.7037305072912 146.731060806154,-108.584592430928 94.3425002273073,-91.5625172416129 " style="fill: rgb(14,173,105); fill-opacity: 1; stroke: rgb(0,0,0); stroke-width: 3" />
	<polygon points="372.722293354738,-160.973153009684 328.157921949974,-193.3510640691 283.593550545202,-160.973153009717 300.615625734546,-108.584592430886 355.700218165387,-108.584592430864 " style="fill: rgb(255,210,63); fill-opacity: 1; stroke: rgb(0,0,0); stroke-width: 3" />
	<polygon points="412.451049915598,-482.543620700624 395.428974726238,-430.155060121802 447.817535305063,-413.13298493244 464.839610494426,-465.521545511255 " style="fill: rgb(67,184,206); fill-opacity: 1; stroke: rgb(0,0,0); stroke-width: 3" />
	<polygon points="323.322307106062,-652.076563977089 345.727229316594,-702.398843178393 290.944396046663,-696.64093538187 " style="fill: rgb(14,173,105); fill-opacity: 1; stroke: rgb(0,0,0); stroke-width: 3" />
	<polygon points="472.371257190445,-611.874463743617 516.935628595218,-579.49655268422 561.5,-611.874463743617 544.477924810661,-664.263024322441 489.393332379808,-664.26302432244 " style="fill: rgb(255,210,63); fill-opacity: 1; stroke: rgb(0,0,0); stroke-width: 3" />
	<polygon points="323.322307106062,-652.076563977089 367.886678510837,-619.698652917686 400.264589570242,-664.263024322462 355.700218165473,-696.640935381865 " style="fill: rgb(67,184,206); fill-opacity: 1; stroke: rgb(0,0,0); stroke-width: 3" />
	<polygon points="350.864603321481,-567.310092338851 395.428974726254,-534.93218127945 427.806885785659,-579.496552684226 383.242514380894,-611.874463743628 " style="fill: rgb(67,184,206); fill-opacity: 1; stroke: rgb(0,0,0); stroke-width: 3" />
	<polygon points="484.55771753582,-534.932181279438 539.340550805747,-529.174273482915 516.935628595218,-579.49655268422 " style="fill: rgb(14,173,105); fill-opacity: 1; stroke: rgb(0,0,0); stroke-width: 3" />
	<polygon points="383.242514380894,-611.874463743628 427.806885785659,-579.496552684226 433.564793582183,-634.279385954154 " style="fill: rgb(14,173,105); fill-opacity: 1; stroke: rgb(0,0,0); stroke-width: 3" />
	<polygon points="439.993346131038,-567.310092338833 484.55771753582,-534.932181279438 516.935628595218,-579.49655268422 472.371257190445,-611.874463743617 " style="fill: rgb(67,184,206); fill-opacity: 1; stroke: rgb(0,0,0); stroke-width: 3" />
	<polygon points="395.428974726254,-534.93218127945 412.451049915598,-482.543620700624 467.53564234646,-482.543620700622 484.55771753582,-534.932181279438 439.993346131038,-567.310092338833 " style="fill: rgb(255,210,63); fill-opacity: 1; stroke: rgb(0,0,0); stroke-width: 3" />
	<polygon points="484.55771753582,-534.932181279438 467.53564234646,-482.543620700622 519.924202925284,-465.521545511258 536.946278114646,-517.910106090067 " style="fill: rgb(67,184,206); fill-opacity: 1; stroke: rgb(0,0,0); stroke-width: 3" />
	<polygon points="355.700218165387,-108.584592430864 300.615625734546,-108.584592430886 300.615625734545,-53.5000000000286 355.700218165377,-53.5 " style="fill: rgb(67,184,206); fill-opacity: 1; stroke: rgb(0,0,0); stroke-width: 3" />
	<polygon points="464.839610494426,-465.521545511255 447.817535305063,-413.13298493244 501.69839722871,-424.585715682745 " style="fill: rgb(14,173,105); fill-opacity: 1; stroke: rgb(0,0,0); stroke-width: 3" />
	<polygon points="267.862653899746,-100.432411943249 213.079820629831,-106.190319739806 235.484742840321,-55.8680405384825 " style="fill: rgb(14,173,105); fill-opacity: 1; stroke: rgb(0,0,0); stroke-width: 3" />
	<polygon points="295.780010890628,-567.310092338857 350.864603321481,-567.310092338851 367.886678510837,-619.698652917686 323.322307106062,-652.076563977089 278.757935701279,-619.698652917685 " style="fill: rgb(255,210,63); fill-opacity: 1; stroke: rgb(0,0,0); stroke-width: 3" />
	<polygon points="489.393332379808,-664.26302432244 544.477924810661,-664.263024322441 544.477924810665,-719.347616753299 489.393332379819,-719.347616753304 " style="fill: rgb(67,184,206); fill-opacity: 1; stroke: rgb(0,0,0); stroke-width: 3" />
	<polygon points="420.275239089635,-328.366513294203 375.710867684852,-295.988602234825 408.088778744235,-251.424230830033 452.653150149016,-283.802141889402 " style="fill: rgb(67,184,206); fill-opacity: 1; stroke: rgb(0,0,0); stroke-width: 3" />
	<polygon points="267.862653899746,-100.432411943249 273.620561696308,-155.215245213175 218.837728426386,-160.973153009728 213.079820629831,-106.190319739806 " style="fill: rgb(67,184,206); fill-opacity: 1; stroke: rgb(0,0,0); stroke-width: 3" />
	<polygon points="218.837728426455,-579.496552684259 263.402099831237,-611.874463743643 213.079820629933,-634.279385954172 " style="fill: rgb(14,173,105); fill-opacity: 1; stroke: rgb(0,0,0); stroke-width: 3" />
	<polygon points="251.215639485844,-534.932181279466 295.780010890628,-567.310092338857 263.402099831237,-611.874463743643 218.837728426455,-579.496552684259 " style="fill: rgb(67,184,206); fill-opacity: 1; stroke: rgb(0,0,0); stroke-width: 3" />
	<polygon points="348.168571469433,-380.755073873051 331.146496280074,-328.366513294233 375.710867684852,-295.988602234825 420.275239089635,-328.366513294203 403.253163900285,-380.75507387303 " style="fill: rgb(255,210,63); fill-opacity: 1; stroke: rgb(0,0,0); stroke-width: 3" />
	<polygon points="218.837728426386,-160.973153009728 174.273357021627,-193.351064069136 129.708985616836,-160.973153009754 146.731060806154,-108.584592430928 201.815653237003,-108.584592430913 " style="fill: rgb(255,210,63); fill-opacity: 1; stroke: rgb(0,0,0); stroke-width: 3" />
	<polygon points="162.086896676287,-534.932181279491 206.651268081071,-567.310092338878 174.273357021684,-611.874463743667 129.708985616901,-579.496552684285 " style="fill: rgb(67,184,206); fill-opacity: 1; stroke: rgb(0,0,0); stroke-width: 3" />
	<polygon points="33.5,-340.251214478714 39.257907796524,-285.468381208792 83.8222792013087,-317.846292268184 " style="fill: rgb(14,173,105); fill-opacity: 1; stroke: rgb(0,0,0); stroke-width: 3" />
	<polygon points="251.215639485829,-430.155060121818 295.780010890602,-397.777149062417 350.864603321455,-397.777149062411 395.428974726238,-430.155060121802 412.451049915598,-482.543620700624 395.428974726254,-534.93218127945 350.864603321481,-567.310092338851 295.780010890628,-567.310092338857 251.215639485844,-534.932181279466 234.193564296485,-482.543620700644 " style="fill: rgb(136,136,136); fill-opacity: 1; stroke: rgb(0,0,0); stroke-width: 3" />
	<polygon points="234.193564296485,-482.543620700644 251.215639485844,-534.932181279466 206.651268081071,-567.310092338878 162.086896676287,-534.932181279491 179.10897186563,-482.543620700655 " style="fill: rgb(255,210,63); fill-opacity: 1; stroke: rgb(0,0,0); stroke-width: 3" />
	<polygon points="179.10897186563,-482.543620700655 162.086896676287,-534.932181279491 125.228109941988,-493.996351450971 " style="fill: rgb(14,173,105); fill-opacity: 1; stroke: rgb(0,0,0); stroke-width: 3" />
	<polygon points="71.6358188559429,-394.788574732362 39.2579077965371,-350.224203327604 83.8222792013087,-317.846292268184 116.200190260714,-362.410663672952 " style="fill: rgb(67,184,206); fill-opacity: 1; stroke: rgb(0,0,0); stroke-width: 3" />
	<polygon points="206.651268081048,-397.77714906242 251.215639485829,-430.155060121818 218.837728426432,-474.719431526599 174.273357021653,-442.341520467208 " style="fill: rgb(67,184,206); fill-opacity: 1; stroke: rgb(0,0,0); stroke-width: 3" />
	<polygon points="223.673343270394,-345.388588483589 206.651268081048,-397.77714906242 169.792481346747,-356.841319233911 " style="fill: rgb(14,173,105); fill-opacity: 1; stroke: rgb(0,0,0); stroke-width: 3" />
	<polygon points="206.651268081048,-397.77714906242 174.273357021653,-442.341520467208 129.708985616868,-409.963609407819 162.086896676255,-365.399238003031 " style="fill: rgb(67,184,206); fill-opacity: 1; stroke: rgb(0,0,0); stroke-width: 3" />
	<polygon points="168.588750839539,-345.388588483593 116.200190260714,-362.410663672952 83.8222792013087,-317.846292268184 116.200190260701,-273.281920863404 168.588750839532,-290.303996052742 " style="fill: rgb(255,210,63); fill-opacity: 1; stroke: rgb(0,0,0); stroke-width: 3" />
	<polygon points="223.673343270394,-345.388588483589 168.588750839539,-345.388588483593 168.588750839532,-290.303996052742 223.673343270392,-290.303996052734 " style="fill: rgb(67,184,206); fill-opacity: 1; stroke: rgb(0,0,0); stroke-width: 3" />
	<circle cx="223.673343270394" cy="-345.388588483589" r="2" style="fill: rgb(0,0,0)" />
	<circle cx="278.757935701247" cy="-345.388588483589" r="2" style="fill: rgb(0,0,0)" />
	<circle cx="295.780010890602" cy="-397.777149062417" r="2" style="fill: rgb(0,0,0)" />
	<circle cx="251.215639485829" cy="-430.155060121818" r="2" style="fill: rgb(0,0,0)" />
	<circle cx="206.651268081048" cy="-397.77714906242" r="2" style="fill: rgb(0,0,0)" />
	<circle cx="223.673343270392" cy="-290.303996052734" r="2" style="fill: rgb(0,0,0)" />
	<circle cx="278.757935701238" cy="-290.303996052727" r="2" style="fill: rgb(0,0,0)" />
	<circle cx="331.146496280074" cy="-328.366513294233" r="2" style="fill: rgb(0,0,0)" />
	<circle cx="348.168571469433" cy="-380.755073873051" r="2" style="fill: rgb(0,0,0)" />
	<circle cx="350.864603321455" cy="-397.777149062411" r="2" style="fill: rgb(0,0,0)" />
	<circle cx="395.428974726238" cy="-430.155060121802" r="2" style="fill: rgb(0,0,0)" />
	<circle cx="412.451049915598" cy="-482.543620700624" r="2" style="fill: rgb(0,0,0)" />
	<circle cx="395.428974726254" cy="-534.93218127945" r="2" style="fill: rgb(0,0,0)" />
	<circle cx="350.864603321481" cy="-567.310092338851" r="2" style="fill: rgb(0,0,0)" />
	<circle cx="295.780010890628" cy="-567.310092338857" r="2" style="fill: rgb(0,0,0)" />
	<circle cx="251.215639485844" cy="-534.932181279466" r="2" style="fill: rgb(0,0,0)" />
	<circle cx="234.193564296485" cy="-482.543620700644" r="2" style="fill: rgb(0,0,0)" />
	<circle cx="218.837728426432" cy="-474.719431526599" r="2" style="fill: rgb(0,0,0)" />
	<circle cx="174.273357021653" cy="-442.341520467208" r="2" style="fill: rgb(0,0,0)" />
	<circle cx="169.792481346747" cy="-356.841319233911" r="2" style="fill: rgb(0,0,0)" />
	<circle cx="206.651268081039" cy="-237.915435473907" r="2" style="fill: rgb(0,0,0)" />
	<circle cx="251.215639485806" cy="-205.537524414499" r="2" style="fill: rgb(0,0,0)" />
	<circle cx="295.780010890579" cy="-237.915435473893" r="2" style="fill: rgb(0,0,0)" />
	<circle cx="326.462592103479" cy="-317.846292268143" r="2" style="fill: rgb(0,0,0)" />
	<circle cx="168.588750839539" cy="-345.388588483593" r="2" style="fill: rgb(0,0,0)" />
	<circle cx="168.588750839532" cy="-290.303996052742" r="2" style="fill: rgb(0,0,0)" />
	<circle cx="375.710867684852" cy="-295.988602234825" r="2" style="fill: rgb(0,0,0)" />
	<circle cx="420.275239089635" cy="-328.366513294203" r="2" style="fill: rgb(0,0,0)" />
	<circle cx="403.253163900285" cy="-380.75507387303" r="2" style="fill: rgb(0,0,0)" />
	<circle cx="447.817535305063" cy="-413.13298493244" r="2" style="fill: rgb(0,0,0)" />
	<circle cx="464.839610494426" cy="-465.521545511255" r="2" style="fill: rgb(0,0,0)" />
	<circle cx="427.806885785659" cy="-579.496552684226" r="2" style="fill: rgb(0,0,0)" />
	<circle cx="383.242514380894" cy="-611.874463743628" r="2" style="fill: rgb(0,0,0)" />
	<circle cx="467.53564234646" cy="-482.543620700622" r="2" style="fill: rgb(0,0,0)" />
	<circle cx="484.55771753582" cy="-534.932181279438" r="2" style="fill: rgb(0,0,0)" />
	<circle cx="439.993346131038" cy="-567.310092338833" r="2" style="fill: rgb(0,0,0)" />
	<circle cx="367.886678510837" cy="-619.698652917686" r="2" style="fill: rgb(0,0,0)" />
	<circle cx="323.322307106062" cy="-652.076563977089" r="2" style="fill: rgb(0,0,0)" />
	<circle cx="278.757935701279" cy="-619.698652917685" r="2" style="fill: rgb(0,0,0)" />
	<circle cx="263.402099831237" cy="-611.874463743643" r="2" style="fill: rgb(0,0,0)" />
	<circle cx="218.837728426455" cy="-579.496552684259" r="2" style="fill: rgb(0,0,0)" />
	<circle cx="206.651268081071" cy="-567.310092338878" r="2" style="fill: rgb(0,0,0)" />
	<circle cx="162.086896676287" cy="-534.932181279491" r="2" style="fill: rgb(0,0,0)" />
	<circle cx="179.10897186563" cy="-482.543620700655" r="2" style="fill: rgb(0,0,0)" />
	<circle cx="129.708985616868" cy="-409.963609407819" r="2" style="fill: rgb(0,0,0)" />
	<circle cx="162.086896676255" cy="-365.399238003031" r="2" style="fill: rgb(0,0,0)" />
	<circle cx="169.792481346751" cy="-278.851265302428" r="2" style="fill: rgb(0,0,0)" />
	<circle cx="174.273357021627" cy="-193.351064069136" r="2" style="fill: rgb(0,0,0)" />
	<circle cx="218.837728426386" cy="-160.973153009728" r="2" style="fill: rgb(0,0,0)" />
	<circle cx="348.168571469412" cy="-254.937510663231" r="2" style="fill: rgb(0,0,0)" />
	<circle cx="331.14649628008" cy="-307.326071242061" r="2" style="fill: rgb(0,0,0)" />
	<circle cx="283.593550545202" cy="-160.973153009717" r="2" style="fill: rgb(0,0,0)" />
	<circle cx="328.157921949974" cy="-193.3510640691" r="2" style="fill: rgb(0,0,0)" />
	<circle cx="116.200190260714" cy="-362.410663672952" r="2" style="fill: rgb(0,0,0)" />
	<circle cx="83.8222792013087" cy="-317.846292268184" r="2" style="fill: rgb(0,0,0)" />
	<circle cx="116.200190260701" cy="-273.281920863404" r="2" style="fill: rgb(0,0,0)" />
	<circle cx="408.088778744235" cy="-251.424230830033" r="2" style="fill: rgb(0,0,0)" />
	<circle cx="452.653150149016" cy="-283.802141889402" r="2" style="fill: rgb(0,0,0)" />
	<circle cx="501.69839722871" cy="-424.585715682745" r="2" style="fill: rgb(0,0,0)" />
	<circle cx="433.564793582183" cy="-634.279385954154" r="2" style="fill: rgb(0,0,0)" />
	<circle cx="516.935628595218" cy="-579.49655268422" r="2" style="fill: rgb(0,0,0)" />
	<circle cx="472.371257190445" cy="-611.874463743617" r="2" style="fill: rgb(0,0,0)" />
	<circle cx="519.924202925284" cy="-465.521545511258" r="2" style="fill: rgb(0,0,0)" />
	<circle cx="536.946278114646" cy="-517.910106090067" r="2" style="fill: rgb(0,0,0)" />
	<circle cx="290.944396046663" cy="-696.64093538187" r="2" style="fill: rgb(0,0,0)" />
	<circle cx="246.380024641882" cy="-664.263024322475" r="2" style="fill: rgb(0,0,0)" />
	<circle cx="400.264589570242" cy="-664.263024322462" r="2" style="fill: rgb(0,0,0)" />
	<circle cx="355.700218165473" cy="-696.640935381865" r="2" style="fill: rgb(0,0,0)" />
	<circle cx="213.079820629933" cy="-634.279385954172" r="2" style="fill: rgb(0,0,0)" />
	<circle cx="174.273357021684" cy="-611.874463743667" r="2" style="fill: rgb(0,0,0)" />
	<circle cx="129.708985616901" cy="-579.496552684285" r="2" style="fill: rgb(0,0,0)" />
	<circle cx="125.228109941988" cy="-493.996351450971" r="2" style="fill: rgb(0,0,0)" />
	<circle cx="128.856651518228" cy="-241.99247856814" r="2" style="fill: rgb(0,0,0)" />
	<circle cx="165.715438252509" cy="-201.05664873962" r="2" style="fill: rgb(0,0,0)" />
	<circle cx="273.620561696308" cy="-155.215245213175" r="2" style="fill: rgb(0,0,0)" />
	<circle cx="129.708985616836" cy="-160.973153009754" r="2" style="fill: rgb(0,0,0)" />
	<circle cx="146.731060806154" cy="-108.584592430928" r="2" style="fill: rgb(0,0,0)" />
	<circle cx="201.815653237003" cy="-108.584592430913" r="2" style="fill: rgb(0,0,0)" />
	<circle cx="336.71584071909" cy="-201.056648739593" r="2" style="fill: rgb(0,0,0)" />
	<circle cx="300.615625734546" cy="-108.584592430886" r="2" style="fill: rgb(0,0,0)" />
	<circle cx="355.700218165387" cy="-108.584592430864" r="2" style="fill: rgb(0,0,0)" />
	<circle cx="372.722293354738" cy="-160.973153009684" r="2" style="fill: rgb(0,0,0)" />
	<circle cx="39.257907796524" cy="-285.468381208792" r="2" style="fill: rgb(0,0,0)" />
	<circle cx="71.6358188559096" cy="-240.904009804013" r="2" style="fill: rgb(0,0,0)" />
	<circle cx="71.6358188559429" cy="-394.788574732362" r="2" style="fill: rgb(0,0,0)" />
	<circle cx="39.2579077965371" cy="-350.224203327604" r="2" style="fill: rgb(0,0,0)" />
	<circle cx="561.5" cy="-611.874463743617" r="2" style="fill: rgb(0,0,0)" />
	<circle cx="544.477924810661" cy="-664.263024322441" r="2" style="fill: rgb(0,0,0)" />
	<circle cx="489.393332379808" cy="-664.26302432244" r="2" style="fill: rgb(0,0,0)" />
	<circle cx="539.340550805747" cy="-529.174273482915" r="2" style="fill: rgb(0,0,0)" />
	<circle cx="273.922320857316" cy="-749.0294959607" r="2" style="fill: rgb(0,0,0)" />
	<circle cx="218.837728426463" cy="-749.029495960708" r="2" style="fill: rgb(0,0,0)" />
	<circle cx="201.815653237107" cy="-696.640935381881" r="2" style="fill: rgb(0,0,0)" />
	<circle cx="345.727229316594" cy="-702.398843178393" r="2" style="fill: rgb(0,0,0)" />
	<circle cx="111.834576328863" cy="-189.603917989309" r="2" style="fill: rgb(0,0,0)" />
	<circle cx="213.079820629831" cy="-106.190319739806" r="2" style="fill: rgb(0,0,0)" />
	<circle cx="267.862653899746" cy="-100.432411943249" r="2" style="fill: rgb(0,0,0)" />
	<circle cx="77.3204250379966" cy="-143.951077820432" r="2" style="fill: rgb(0,0,0)" />
	<circle cx="94.3425002273073" cy="-91.5625172416129" r="2" style="fill: rgb(0,0,0)" />
	<circle cx="146.731060806151" cy="-53.5000000000701" r="2" style="fill: rgb(0,0,0)" />
	<circle cx="201.815653236994" cy="-53.5000000000511" r="2" style="fill: rgb(0,0,0)" />
	<circle cx="300.615625734545" cy="-53.5000000000286" r="2" style="fill: rgb(0,0,0)" />
	<circle cx="355.700218165377" cy="-53.5" r="2" style="fill: rgb(0,0,0)" />
	<circle cx="33.5" cy="-340.251214478714" r="2" style="fill: rgb(0,0,0)" />
	<circle cx="544.477924810665" cy="-719.347616753299" r="2" style="fill: rgb(0,0,0)" />
	<circle cx="489.393332379819" cy="-719.347616753304" r="2" style="fill: rgb(0,0,0)" />
	<circle cx="235.484742840321" cy="-55.8680405384825" r="2" style="fill: rgb(0,0,0)" />
	<circle cx="135.278330055798" cy="-54.7037305072912" r="2" style="fill: rgb(0,0,0)" />
	<!-- 
	Generated using the Perl SVG Module V2.64
	by Ronan Oger
	Info: http://www.roitsystems.com/
 -->
</svg>