<?xml version="1.0" encoding="UTF-8" standalone="yes"?>
<!DOCTYPE svg PUBLIC "-//W3C//DTD SVG 1.0//EN" "http://www.w3.org/TR/2001/REC-SVG-20010904/DTD/svg10.dtd">
<!-- generated using polymake; Michael Joswig, Georg Loho, Benjamin Lorenz, Rico Raber; license CC BY-NC-SA 3.0; see polymake.org and matchthenet.de -->
<svg height="841pt" id="document" viewBox="0 -690.66140225039 572 690.66140225039" width="595pt" xmlns="http://www.w3.org/2000/svg" xmlns:svg="http://www.w3.org/2000/svg" xmlns:xlink="http://www.w3.org/1999/xlink">
	<title id="document_title">planar_net_</title>
	<polygon points="274.607276303459,-353.830701125187 339.888288958568,-353.830701125187 341.977231503277,-387.813397948206 313.406300005683,-406.33066658263 " style="fill: rgb(14,173,105); fill-opacity: 1; stroke: rgb(0,0,0); stroke-width: 3" />
	<polygon points="341.977231503268,-319.848004302171 339.888288958568,-353.830701125187 274.607276303459,-353.830701125187 313.406300005674,-301.330735667744 " style="fill: rgb(14,173,105); fill-opacity: 1; stroke: rgb(0,0,0); stroke-width: 3" />
	<polygon points="341.977231503277,-387.813397948206 339.888288958568,-353.830701125187 419.559788956314,-374.878014275058 406.956772533264,-413.364490575175 " style="fill: rgb(14,173,105); fill-opacity: 1; stroke: rgb(0,0,0); stroke-width: 3" />
	<polygon points="274.607276303459,-353.830701125187 313.406300005683,-406.33066658263 287.318446757272,-428.207852809605 255.445776168726,-416.236209903385 " style="fill: rgb(14,173,105); fill-opacity: 1; stroke: rgb(0,0,0); stroke-width: 3" />
	<polygon points="419.559788956311,-332.783387975294 339.888288958568,-353.830701125187 341.977231503268,-319.848004302171 406.956772533246,-294.296911675185 " style="fill: rgb(14,173,105); fill-opacity: 1; stroke: rgb(0,0,0); stroke-width: 3" />
	<polygon points="313.406300005683,-406.33066658263 341.977231503277,-387.813397948206 401.145649329519,-424.884915570751 377.684708986773,-457.894446909327 " style="fill: rgb(14,173,105); fill-opacity: 1; stroke: rgb(0,0,0); stroke-width: 3" />
	<polygon points="274.607276303459,-353.830701125187 255.445776168709,-291.425192347005 287.318446757256,-279.453549440784 313.406300005674,-301.330735667744 " style="fill: rgb(14,173,105); fill-opacity: 1; stroke: rgb(0,0,0); stroke-width: 3" />
	<polygon points="313.406300005683,-406.33066658263 343.831581763443,-482.912906904264 305.389723906397,-495.651370134098 287.318446757272,-428.207852809605 " style="fill: rgb(14,173,105); fill-opacity: 1; stroke: rgb(0,0,0); stroke-width: 3" />
	<polygon points="401.145649329511,-282.776486679625 341.977231503268,-319.848004302171 313.406300005674,-301.330735667744 377.684708986762,-249.76695534105 " style="fill: rgb(14,173,105); fill-opacity: 1; stroke: rgb(0,0,0); stroke-width: 3" />
	<polygon points="274.607276303459,-353.830701125187 255.445776168726,-416.236209903385 222.346798841849,-408.258424230954 213.031415427293,-375.510737348366 " style="fill: rgb(14,173,105); fill-opacity: 1; stroke: rgb(0,0,0); stroke-width: 3" />
	<polygon points="343.831581763399,-224.748495346094 313.406300005674,-301.330735667744 287.318446757256,-279.453549440784 305.389723906348,-212.010032116284 " style="fill: rgb(14,173,105); fill-opacity: 1; stroke: rgb(0,0,0); stroke-width: 3" />
	<polygon points="255.445776168726,-416.236209903385 287.318446757272,-428.207852809605 292.671051393942,-497.825010971246 252.180551507842,-498.576209967958 " style="fill: rgb(14,173,105); fill-opacity: 1; stroke: rgb(0,0,0); stroke-width: 3" />
	<polygon points="255.445776168726,-416.236209903385 211.940113067621,-486.220455136529 178.848171845554,-462.875898873571 222.346798841849,-408.258424230954 " style="fill: rgb(14,173,105); fill-opacity: 1; stroke: rgb(0,0,0); stroke-width: 3" />
	<polygon points="255.445776168709,-291.425192347005 252.180551507822,-209.085192282434 292.671051393921,-209.836391279141 287.318446757256,-279.453549440784 " style="fill: rgb(14,173,105); fill-opacity: 1; stroke: rgb(0,0,0); stroke-width: 3" />
	<polygon points="213.031415427293,-375.510737348366 222.346798841849,-408.258424230954 169.540899785472,-453.939231051184 144.871708535595,-421.822632787419 " style="fill: rgb(14,173,105); fill-opacity: 1; stroke: rgb(0,0,0); stroke-width: 3" />
	<polygon points="406.956772533264,-413.364490575175 419.559788956314,-374.878014275058 561.5,-442.665390573426 " style="fill: rgb(14,173,105); fill-opacity: 1; stroke: rgb(0,0,0); stroke-width: 3" />
	<polygon points="419.559788956311,-332.783387975294 406.956772533246,-294.296911675185 561.49999999997,-264.99601167687 " style="fill: rgb(14,173,105); fill-opacity: 1; stroke: rgb(0,0,0); stroke-width: 3" />
	<polygon points="377.684708986773,-457.894446909327 401.145649329519,-424.884915570751 516.560871564013,-531.756232457486 " style="fill: rgb(14,173,105); fill-opacity: 1; stroke: rgb(0,0,0); stroke-width: 3" />
	<polygon points="343.831581763443,-482.912906904264 373.676503268573,-637.351997023623 305.389723906397,-495.651370134098 " style="fill: rgb(14,173,105); fill-opacity: 1; stroke: rgb(0,0,0); stroke-width: 3" />
	<polygon points="401.145649329511,-282.776486679625 377.684708986762,-249.76695534105 516.560871564002,-175.905169792887 " style="fill: rgb(14,173,105); fill-opacity: 1; stroke: rgb(0,0,0); stroke-width: 3" />
	<polygon points="343.831581763399,-224.748495346094 305.389723906348,-212.010032116284 373.676503268438,-70.309405226718 " style="fill: rgb(14,173,105); fill-opacity: 1; stroke: rgb(0,0,0); stroke-width: 3" />
	<polygon points="252.180551507842,-498.576209967958 292.671051393942,-497.825010971246 275.319260179281,-654.16140225039 " style="fill: rgb(14,173,105); fill-opacity: 1; stroke: rgb(0,0,0); stroke-width: 3" />
	<polygon points="211.940113067621,-486.220455136529 105.475877955446,-602.01129475056 178.848171845554,-462.875898873571 " style="fill: rgb(14,173,105); fill-opacity: 1; stroke: rgb(0,0,0); stroke-width: 3" />
	<polygon points="252.180551507822,-209.085192282434 275.319260179237,-53.5 292.671051393921,-209.836391279141 " style="fill: rgb(14,173,105); fill-opacity: 1; stroke: rgb(0,0,0); stroke-width: 3" />
	<polygon points="144.871708535595,-421.822632787419 169.540899785472,-453.939231051184 33.5,-532.901408592725 " style="fill: rgb(14,173,105); fill-opacity: 1; stroke: rgb(0,0,0); stroke-width: 3" />
	<circle cx="274.607276303459" cy="-353.830701125187" r="2" style="fill: rgb(0,0,0)" />
	<circle cx="339.888288958568" cy="-353.830701125187" r="2" style="fill: rgb(0,0,0)" />
	<circle cx="341.977231503277" cy="-387.813397948206" r="2" style="fill: rgb(0,0,0)" />
	<circle cx="313.406300005683" cy="-406.33066658263" r="2" style="fill: rgb(0,0,0)" />
	<circle cx="313.406300005674" cy="-301.330735667744" r="2" style="fill: rgb(0,0,0)" />
	<circle cx="341.977231503268" cy="-319.848004302171" r="2" style="fill: rgb(0,0,0)" />
	<circle cx="419.559788956314" cy="-374.878014275058" r="2" style="fill: rgb(0,0,0)" />
	<circle cx="406.956772533264" cy="-413.364490575175" r="2" style="fill: rgb(0,0,0)" />
	<circle cx="287.318446757272" cy="-428.207852809605" r="2" style="fill: rgb(0,0,0)" />
	<circle cx="255.445776168726" cy="-416.236209903385" r="2" style="fill: rgb(0,0,0)" />
	<circle cx="401.145649329519" cy="-424.884915570751" r="2" style="fill: rgb(0,0,0)" />
	<circle cx="377.684708986773" cy="-457.894446909327" r="2" style="fill: rgb(0,0,0)" />
	<circle cx="406.956772533246" cy="-294.296911675185" r="2" style="fill: rgb(0,0,0)" />
	<circle cx="419.559788956311" cy="-332.783387975294" r="2" style="fill: rgb(0,0,0)" />
	<circle cx="255.445776168709" cy="-291.425192347005" r="2" style="fill: rgb(0,0,0)" />
	<circle cx="287.318446757256" cy="-279.453549440784" r="2" style="fill: rgb(0,0,0)" />
	<circle cx="377.684708986762" cy="-249.76695534105" r="2" style="fill: rgb(0,0,0)" />
	<circle cx="401.145649329511" cy="-282.776486679625" r="2" style="fill: rgb(0,0,0)" />
	<circle cx="561.5" cy="-442.665390573426" r="2" style="fill: rgb(0,0,0)" />
	<circle cx="343.831581763443" cy="-482.912906904264" r="2" style="fill: rgb(0,0,0)" />
	<circle cx="305.389723906397" cy="-495.651370134098" r="2" style="fill: rgb(0,0,0)" />
	<circle cx="222.346798841849" cy="-408.258424230954" r="2" style="fill: rgb(0,0,0)" />
	<circle cx="213.031415427293" cy="-375.510737348366" r="2" style="fill: rgb(0,0,0)" />
	<circle cx="292.671051393942" cy="-497.825010971246" r="2" style="fill: rgb(0,0,0)" />
	<circle cx="252.180551507842" cy="-498.576209967958" r="2" style="fill: rgb(0,0,0)" />
	<circle cx="516.560871564013" cy="-531.756232457486" r="2" style="fill: rgb(0,0,0)" />
	<circle cx="561.49999999997" cy="-264.99601167687" r="2" style="fill: rgb(0,0,0)" />
	<circle cx="305.389723906348" cy="-212.010032116284" r="2" style="fill: rgb(0,0,0)" />
	<circle cx="343.831581763399" cy="-224.748495346094" r="2" style="fill: rgb(0,0,0)" />
	<circle cx="252.180551507822" cy="-209.085192282434" r="2" style="fill: rgb(0,0,0)" />
	<circle cx="292.671051393921" cy="-209.836391279141" r="2" style="fill: rgb(0,0,0)" />
	<circle cx="516.560871564002" cy="-175.905169792887" r="2" style="fill: rgb(0,0,0)" />
	<circle cx="373.676503268573" cy="-637.351997023623" r="2" style="fill: rgb(0,0,0)" />
	<circle cx="211.940113067621" cy="-486.220455136529" r="2" style="fill: rgb(0,0,0)" />
	<circle cx="178.848171845554" cy="-462.875898873571" r="2" style="fill: rgb(0,0,0)" />
	<circle cx="169.540899785472" cy="-453.939231051184" r="2" style="fill: rgb(0,0,0)" />
	<circle cx="144.871708535595" cy="-421.822632787419" r="2" style="fill: rgb(0,0,0)" />
	<circle cx="275.319260179281" cy="-654.16140225039" r="2" style="fill: rgb(0,0,0)" />
	<circle cx="373.676503268438" cy="-70.309405226718" r="2" style="fill: rgb(0,0,0)" />
	<circle cx="275.319260179237" cy="-53.5" r="2" style="fill: rgb(0,0,0)" />
	<circle cx="105.475877955446" cy="-602.01129475056" r="2" style="fill: rgb(0,0,0)" />
	<circle cx="33.5" cy="-532.901408592725" r="2" style="fill: rgb(0,0,0)" />
	<!-- 
	Generated using the Perl SVG Module V2.64
	by Ronan Oger
	Info: http://www.roitsystems.com/
 -->
</svg>