<?xml version="1.0" encoding="UTF-8" standalone="yes"?>
<!DOCTYPE svg PUBLIC "-//W3C//DTD SVG 1.0//EN" "http://www.w3.org/TR/2001/REC-SVG-20010904/DTD/svg10.dtd">
<!-- generated using polymake; Michael Joswig, Georg Loho, Benjamin Lorenz, Rico Raber; license CC BY-NC-ND 3.0; see polymake.org and matchthenet.de -->
<svg height="841pt" id="document" viewBox="0 -638.872530216163 572 638.872530216163" width="595pt" xmlns="http://www.w3.org/2000/svg" xmlns:svg="http://www.w3.org/2000/svg" xmlns:xlink="http://www.w3.org/1999/xlink">
	<title id="document_title">planar_net_</title>
	<polygon points="207.906997335115,-306.187555402384 266.427556119309,-306.187555402384 266.331094448348,-340.704411937242 " style="fill: rgb(123,33,31); fill-opacity: 1; stroke: rgb(0,0,0); stroke-width: 3" />
	<polygon points="266.363112225832,-271.186616848716 266.427556119309,-306.187555402384 207.906997335115,-306.187555402384 " style="fill: rgb(123,33,31); fill-opacity: 1; stroke: rgb(0,0,0); stroke-width: 3" />
	<polygon points="207.906997335115,-306.187555402384 266.331094448348,-340.704411937242 264.262876537569,-407.005085202272 " style="fill: rgb(123,33,31); fill-opacity: 1; stroke: rgb(0,0,0); stroke-width: 3" />
	<polygon points="207.906997335115,-306.187555402384 264.262876537569,-407.005085202272 206.973207547016,-373.919225152283 " style="fill: rgb(123,33,31); fill-opacity: 1; stroke: rgb(0,0,0); stroke-width: 3" />
	<polygon points="266.363112225832,-271.186616848716 207.906997335115,-306.187555402384 264.119555930686,-200.371994116146 " style="fill: rgb(123,33,31); fill-opacity: 1; stroke: rgb(0,0,0); stroke-width: 3" />
	<polygon points="266.331094448348,-340.704411937242 295.220517482107,-359.152688236567 264.262876537569,-407.005085202272 " style="fill: rgb(123,33,31); fill-opacity: 1; stroke: rgb(0,0,0); stroke-width: 3" />
	<polygon points="264.119555930686,-200.371994116146 207.906997335115,-306.187555402384 204.185137550133,-238.155718535409 " style="fill: rgb(123,33,31); fill-opacity: 1; stroke: rgb(0,0,0); stroke-width: 3" />
	<polygon points="295.220517482107,-359.152688236567 323.889704053495,-377.941392368964 264.262876537569,-407.005085202272 " style="fill: rgb(123,33,31); fill-opacity: 1; stroke: rgb(0,0,0); stroke-width: 3" />
	<polygon points="207.906997335115,-306.187555402384 206.973207547016,-373.919225152283 148.793202554856,-405.413150398384 " style="fill: rgb(123,33,31); fill-opacity: 1; stroke: rgb(0,0,0); stroke-width: 3" />
	<polygon points="296.346743687841,-252.447033566451 266.363112225832,-271.186616848716 264.119555930686,-200.371994116146 " style="fill: rgb(123,33,31); fill-opacity: 1; stroke: rgb(0,0,0); stroke-width: 3" />
	<polygon points="207.906997335115,-306.187555402384 148.793202554856,-405.413150398384 148.553545712082,-339.080659375354 " style="fill: rgb(123,33,31); fill-opacity: 1; stroke: rgb(0,0,0); stroke-width: 3" />
	<polygon points="296.346743687841,-252.447033566451 264.119555930686,-200.371994116146 326.737108585102,-233.783364331354 " style="fill: rgb(123,33,31); fill-opacity: 1; stroke: rgb(0,0,0); stroke-width: 3" />
	<polygon points="204.185137550133,-238.155718535409 207.906997335115,-306.187555402384 175.146564218621,-257.696217800353 " style="fill: rgb(123,33,31); fill-opacity: 1; stroke: rgb(0,0,0); stroke-width: 3" />
	<polygon points="328.734637592232,-368.895637034488 354.571430300163,-346.007150136724 393.254303599381,-389.919461778582 " style="fill: rgb(123,33,31); fill-opacity: 1; stroke: rgb(0,0,0); stroke-width: 3" />
	<polygon points="206.973207547016,-373.919225152283 264.262876537569,-407.005085202272 150.354323686564,-408.140304894033 " style="fill: rgb(123,33,31); fill-opacity: 1; stroke: rgb(0,0,0); stroke-width: 3" />
	<polygon points="207.906997335115,-306.187555402384 146.599187847296,-277.099052444182 175.146564218621,-257.696217800353 " style="fill: rgb(123,33,31); fill-opacity: 1; stroke: rgb(0,0,0); stroke-width: 3" />
	<polygon points="354.571430300163,-346.007150136724 380.877826350988,-322.919417907888 393.254303599381,-389.919461778582 " style="fill: rgb(123,33,31); fill-opacity: 1; stroke: rgb(0,0,0); stroke-width: 3" />
	<polygon points="150.354323686564,-408.140304894033 264.262876537569,-407.005085202272 207.64222164759,-441.048458891348 " style="fill: rgb(123,33,31); fill-opacity: 1; stroke: rgb(0,0,0); stroke-width: 3" />
	<polygon points="356.928984245411,-268.905848671615 331.70775580101,-243.690843939103 400.375390770787,-225.74555297618 " style="fill: rgb(123,33,31); fill-opacity: 1; stroke: rgb(0,0,0); stroke-width: 3" />
	<polygon points="323.889704053495,-377.941392368964 379.321987065159,-417.082809163185 264.262876537569,-407.005085202272 " style="fill: rgb(123,33,31); fill-opacity: 1; stroke: rgb(0,0,0); stroke-width: 3" />
	<polygon points="264.119555930686,-200.371994116146 204.185137550133,-238.155718535409 202.927984591121,-202.820046705364 " style="fill: rgb(123,33,31); fill-opacity: 1; stroke: rgb(0,0,0); stroke-width: 3" />
	<polygon points="378.199563198211,-320.1850435533 365.315117801466,-287.25813656128 422.245656181538,-264.69012459209 " style="fill: rgb(123,33,31); fill-opacity: 1; stroke: rgb(0,0,0); stroke-width: 3" />
	<polygon points="264.262876537569,-407.005085202272 379.321987065159,-417.082809163185 317.924897742476,-445.698337695429 " style="fill: rgb(123,33,31); fill-opacity: 1; stroke: rgb(0,0,0); stroke-width: 3" />
	<polygon points="264.119555930686,-200.371994116146 202.927984591121,-202.820046705364 201.380233976416,-167.189844686001 " style="fill: rgb(123,33,31); fill-opacity: 1; stroke: rgb(0,0,0); stroke-width: 3" />
	<polygon points="207.64222164759,-441.048458891348 264.262876537569,-407.005085202272 209.841484518195,-507.078854128163 " style="fill: rgb(123,33,31); fill-opacity: 1; stroke: rgb(0,0,0); stroke-width: 3" />
	<polygon points="326.737108585102,-233.783364331354 264.119555930686,-200.371994116146 386.469825717525,-195.452175149909 " style="fill: rgb(123,33,31); fill-opacity: 1; stroke: rgb(0,0,0); stroke-width: 3" />
	<polygon points="148.553545712082,-339.080659375354 148.793202554856,-405.413150398384 119.166521108139,-356.725501300594 " style="fill: rgb(123,33,31); fill-opacity: 1; stroke: rgb(0,0,0); stroke-width: 3" />
	<polygon points="264.262876537569,-407.005085202272 266.618262140022,-473.12038197207 209.841484518195,-507.078854128163 " style="fill: rgb(123,33,31); fill-opacity: 1; stroke: rgb(0,0,0); stroke-width: 3" />
	<polygon points="386.469825717525,-195.452175149909 264.119555930686,-200.371994116146 323.844576121827,-161.849390809682 " style="fill: rgb(123,33,31); fill-opacity: 1; stroke: rgb(0,0,0); stroke-width: 3" />
	<polygon points="119.166521108139,-356.725501300594 148.793202554856,-405.413150398384 89.9902643571232,-374.716713145228 " style="fill: rgb(123,33,31); fill-opacity: 1; stroke: rgb(0,0,0); stroke-width: 3" />
	<polygon points="264.119555930686,-200.371994116146 201.380233976416,-167.189844686001 199.703232744078,-96.2358791382398 " style="fill: rgb(123,33,31); fill-opacity: 1; stroke: rgb(0,0,0); stroke-width: 3" />
	<polygon points="150.354323686564,-408.140304894033 207.64222164759,-441.048458891348 206.759390913915,-507.109570463892 " style="fill: rgb(123,33,31); fill-opacity: 1; stroke: rgb(0,0,0); stroke-width: 3" />
	<polygon points="380.877826350988,-322.919417907888 435.498305931944,-277.793510183463 393.254303599381,-389.919461778582 " style="fill: rgb(123,33,31); fill-opacity: 1; stroke: rgb(0,0,0); stroke-width: 3" />
	<polygon points="262.60547320573,-129.317250742874 264.119555930686,-200.371994116146 199.703232744078,-96.2358791382398 " style="fill: rgb(123,33,31); fill-opacity: 1; stroke: rgb(0,0,0); stroke-width: 3" />
	<polygon points="150.354323686564,-408.140304894033 206.759390913915,-507.109570463892 149.317093330733,-474.289412684567 " style="fill: rgb(123,33,31); fill-opacity: 1; stroke: rgb(0,0,0); stroke-width: 3" />
	<polygon points="393.254303599381,-389.919461778582 435.498305931944,-277.793510183463 446.763831150515,-347.742293440614 " style="fill: rgb(123,33,31); fill-opacity: 1; stroke: rgb(0,0,0); stroke-width: 3" />
	<polygon points="89.9902643571232,-374.716713145228 148.793202554856,-405.413150398384 33.5,-412.315097969658 " style="fill: rgb(123,33,31); fill-opacity: 1; stroke: rgb(0,0,0); stroke-width: 3" />
	<polygon points="190.388071436066,-168.617377035853 155.375287599779,-161.834177500332 166.817033686191,-101.671998259713 " style="fill: rgb(123,33,31); fill-opacity: 1; stroke: rgb(0,0,0); stroke-width: 3" />
	<polygon points="317.924897742476,-445.698337695429 379.321987065159,-417.082809163185 313.046935201151,-511.67549881759 " style="fill: rgb(123,33,31); fill-opacity: 1; stroke: rgb(0,0,0); stroke-width: 3" />
	<polygon points="150.354323686564,-408.140304894033 149.317093330733,-474.289412684567 89.6859007891651,-506.42306990792 " style="fill: rgb(123,33,31); fill-opacity: 1; stroke: rgb(0,0,0); stroke-width: 3" />
	<polygon points="155.375287599779,-161.834177500332 120.610978316823,-155.381818449417 166.817033686191,-101.671998259713 " style="fill: rgb(123,33,31); fill-opacity: 1; stroke: rgb(0,0,0); stroke-width: 3" />
	<polygon points="313.046935201151,-511.67549881759 379.321987065159,-417.082809163185 373.648802253277,-484.703837568807 " style="fill: rgb(123,33,31); fill-opacity: 1; stroke: rgb(0,0,0); stroke-width: 3" />
	<polygon points="88.3051902184682,-241.171942765784 34.7656196577614,-199.478983015737 92.8073486287604,-206.949826239336 " style="fill: rgb(123,33,31); fill-opacity: 1; stroke: rgb(0,0,0); stroke-width: 3" />
	<polygon points="393.254303599381,-389.919461778582 446.763831150515,-347.742293440614 451.296032570377,-382.448618554964 " style="fill: rgb(123,33,31); fill-opacity: 1; stroke: rgb(0,0,0); stroke-width: 3" />
	<polygon points="386.469825717525,-195.452175149909 323.844576121827,-161.849390809682 322.920826049398,-90.7845212316458 " style="fill: rgb(123,33,31); fill-opacity: 1; stroke: rgb(0,0,0); stroke-width: 3" />
	<polygon points="102.472294080542,-189.549636975445 51.9766502159597,-159.97184545687 120.107059520937,-159.315799962671 " style="fill: rgb(123,33,31); fill-opacity: 1; stroke: rgb(0,0,0); stroke-width: 3" />
	<polygon points="379.321987065159,-417.082809163185 404.772477853276,-469.77937754348 373.648802253277,-484.703837568807 " style="fill: rgb(123,33,31); fill-opacity: 1; stroke: rgb(0,0,0); stroke-width: 3" />
	<polygon points="386.469825717525,-195.452175149909 322.920826049398,-90.7845212316458 385.382325557519,-124.4867264901 " style="fill: rgb(123,33,31); fill-opacity: 1; stroke: rgb(0,0,0); stroke-width: 3" />
	<polygon points="446.763831150515,-347.742293440614 435.498305931944,-277.793510183463 474.109799052288,-325.328276023878 " style="fill: rgb(123,33,31); fill-opacity: 1; stroke: rgb(0,0,0); stroke-width: 3" />
	<polygon points="149.317093330733,-474.289412684567 206.759390913915,-507.109570463892 91.2790366498505,-509.218412486795 " style="fill: rgb(123,33,31); fill-opacity: 1; stroke: rgb(0,0,0); stroke-width: 3" />
	<polygon points="474.109799052288,-325.328276023878 435.498305931944,-277.793510183463 501.86886372312,-302.937627160877 " style="fill: rgb(123,33,31); fill-opacity: 1; stroke: rgb(0,0,0); stroke-width: 3" />
	<polygon points="91.2790366498505,-509.218412486795 206.759390913915,-507.109570463892 150.528979217053,-542.297602536233 " style="fill: rgb(123,33,31); fill-opacity: 1; stroke: rgb(0,0,0); stroke-width: 3" />
	<polygon points="313.046935201151,-511.67549881759 373.648802253277,-484.703837568807 369.600466700215,-518.741296946522 " style="fill: rgb(123,33,31); fill-opacity: 1; stroke: rgb(0,0,0); stroke-width: 3" />
	<polygon points="120.610978316823,-155.381818449417 53.8710392105829,-141.671836835645 166.817033686191,-101.671998259713 " style="fill: rgb(123,33,31); fill-opacity: 1; stroke: rgb(0,0,0); stroke-width: 3" />
	<polygon points="206.759390913915,-507.109570463892 181.019239420072,-557.959074190955 150.528979217053,-542.297602536233 " style="fill: rgb(123,33,31); fill-opacity: 1; stroke: rgb(0,0,0); stroke-width: 3" />
	<polygon points="97.1067893320034,-89.0139506343182 166.817033686191,-101.671998259713 53.8710392105829,-141.671836835645 " style="fill: rgb(123,33,31); fill-opacity: 1; stroke: rgb(0,0,0); stroke-width: 3" />
	<polygon points="385.382325557519,-124.4867264901 322.920826049398,-90.7845212316458 384.130622807184,-88.8448961761237 " style="fill: rgb(123,33,31); fill-opacity: 1; stroke: rgb(0,0,0); stroke-width: 3" />
	<polygon points="384.130622807184,-88.8448961761237 322.920826049398,-90.7845212316458 383.167060903807,-53.5 " style="fill: rgb(123,33,31); fill-opacity: 1; stroke: rgb(0,0,0); stroke-width: 3" />
	<polygon points="91.2790366498505,-509.218412486795 150.528979217053,-542.297602536233 120.760960758724,-559.770088534701 " style="fill: rgb(123,33,31); fill-opacity: 1; stroke: rgb(0,0,0); stroke-width: 3" />
	<polygon points="91.2790366498505,-509.218412486795 120.760960758724,-559.770088534701 90.4937166668376,-577.347454313901 " style="fill: rgb(123,33,31); fill-opacity: 1; stroke: rgb(0,0,0); stroke-width: 3" />
	<polygon points="266.331094448348,-340.704411937242 266.427556119309,-306.187555402384 317.956098541864,-309.591557404316 296.856278420801,-356.297705530575 " style="fill: rgb(123,33,31); fill-opacity: 1; stroke: rgb(0,0,0); stroke-width: 3" />
	<polygon points="296.856278420801,-356.297705530575 317.956098541864,-309.591557404316 354.571430300163,-346.007150136724 328.734637592232,-368.895637034488 " style="fill: rgb(123,33,31); fill-opacity: 1; stroke: rgb(0,0,0); stroke-width: 3" />
	<polygon points="354.571430300163,-346.007150136724 317.956098541864,-309.591557404316 365.315117801466,-287.25813656128 378.199563198211,-320.1850435533 " style="fill: rgb(123,33,31); fill-opacity: 1; stroke: rgb(0,0,0); stroke-width: 3" />
	<polygon points="318.019684890471,-303.944752985126 298.067866403249,-255.534182539867 331.70775580101,-243.690843939103 356.928984245411,-268.905848671615 " style="fill: rgb(123,33,31); fill-opacity: 1; stroke: rgb(0,0,0); stroke-width: 3" />
	<polygon points="318.019684890471,-303.944752985126 266.427556119309,-306.187555402384 266.363112225832,-271.186616848716 298.067866403249,-255.534182539867 " style="fill: rgb(123,33,31); fill-opacity: 1; stroke: rgb(0,0,0); stroke-width: 3" />
	<polygon points="446.763831150515,-347.742293440614 476.210950283874,-328.170443451677 502.179701349286,-373.637820326581 451.296032570377,-382.448618554964 " style="fill: rgb(123,33,31); fill-opacity: 1; stroke: rgb(0,0,0); stroke-width: 3" />
	<polygon points="476.210950283874,-328.170443451677 508.063647111032,-312.129479243029 536.297503506994,-333.918379649362 502.179701349286,-373.637820326581 " style="fill: rgb(123,33,31); fill-opacity: 1; stroke: rgb(0,0,0); stroke-width: 3" />
	<polygon points="502.179701349286,-373.637820326581 536.297503506994,-333.918379649362 561.5,-358.718063271598 550.47012794731,-391.935705800142 " style="fill: rgb(123,33,31); fill-opacity: 1; stroke: rgb(0,0,0); stroke-width: 3" />
	<polygon points="181.019239420072,-557.959074190955 155.443633741402,-602.372530216163 122.573414555556,-562.54381438832 150.528979217053,-542.297602536233 " style="fill: rgb(123,33,31); fill-opacity: 1; stroke: rgb(0,0,0); stroke-width: 3" />
	<polygon points="404.772477853276,-469.77937754348 424.116918397027,-517.660172585663 372.882709967924,-518.972639185587 373.648802253277,-484.703837568807 " style="fill: rgb(123,33,31); fill-opacity: 1; stroke: rgb(0,0,0); stroke-width: 3" />
	<polygon points="204.185137550133,-238.155718535409 175.146564218621,-257.696217800353 148.123172309682,-213.690374966041 199.406406653672,-203.122107984077 " style="fill: rgb(123,33,31); fill-opacity: 1; stroke: rgb(0,0,0); stroke-width: 3" />
	<polygon points="199.406406653672,-203.122107984077 148.123172309682,-213.690374966041 155.375287599779,-161.834177500332 190.388071436066,-168.617377035853 " style="fill: rgb(123,33,31); fill-opacity: 1; stroke: rgb(0,0,0); stroke-width: 3" />
	<polygon points="148.123172309682,-213.690374966041 102.472294080542,-189.549636975445 120.107059520937,-159.315799962671 155.375287599779,-161.834177500332 " style="fill: rgb(123,33,31); fill-opacity: 1; stroke: rgb(0,0,0); stroke-width: 3" />
	<polygon points="116.589940698162,-260.534549820135 88.3051902184682,-241.171942765784 92.8073486287604,-206.949826239336 143.479710442786,-216.904205276296 " style="fill: rgb(123,33,31); fill-opacity: 1; stroke: rgb(0,0,0); stroke-width: 3" />
	<polygon points="146.599187847296,-277.099052444182 116.589940698162,-260.534549820135 143.479710442786,-216.904205276296 175.146564218621,-257.696217800353 " style="fill: rgb(123,33,31); fill-opacity: 1; stroke: rgb(0,0,0); stroke-width: 3" />
	<circle cx="207.906997335115" cy="-306.187555402384" r="2" style="fill: rgb(0,0,0)" />
	<circle cx="266.427556119309" cy="-306.187555402384" r="2" style="fill: rgb(0,0,0)" />
	<circle cx="266.331094448348" cy="-340.704411937242" r="2" style="fill: rgb(0,0,0)" />
	<circle cx="266.363112225832" cy="-271.186616848716" r="2" style="fill: rgb(0,0,0)" />
	<circle cx="264.262876537569" cy="-407.005085202272" r="2" style="fill: rgb(0,0,0)" />
	<circle cx="317.956098541864" cy="-309.591557404316" r="2" style="fill: rgb(0,0,0)" />
	<circle cx="296.856278420801" cy="-356.297705530575" r="2" style="fill: rgb(0,0,0)" />
	<circle cx="264.119555930686" cy="-200.371994116146" r="2" style="fill: rgb(0,0,0)" />
	<circle cx="298.067866403249" cy="-255.534182539867" r="2" style="fill: rgb(0,0,0)" />
	<circle cx="318.019684890471" cy="-303.944752985126" r="2" style="fill: rgb(0,0,0)" />
	<circle cx="206.973207547016" cy="-373.919225152283" r="2" style="fill: rgb(0,0,0)" />
	<circle cx="295.220517482107" cy="-359.152688236567" r="2" style="fill: rgb(0,0,0)" />
	<circle cx="354.571430300163" cy="-346.007150136724" r="2" style="fill: rgb(0,0,0)" />
	<circle cx="328.734637592232" cy="-368.895637034488" r="2" style="fill: rgb(0,0,0)" />
	<circle cx="204.185137550133" cy="-238.155718535409" r="2" style="fill: rgb(0,0,0)" />
	<circle cx="296.346743687841" cy="-252.447033566451" r="2" style="fill: rgb(0,0,0)" />
	<circle cx="331.70775580101" cy="-243.690843939103" r="2" style="fill: rgb(0,0,0)" />
	<circle cx="356.928984245411" cy="-268.905848671615" r="2" style="fill: rgb(0,0,0)" />
	<circle cx="148.793202554856" cy="-405.413150398384" r="2" style="fill: rgb(0,0,0)" />
	<circle cx="150.354323686564" cy="-408.140304894033" r="2" style="fill: rgb(0,0,0)" />
	<circle cx="323.889704053495" cy="-377.941392368964" r="2" style="fill: rgb(0,0,0)" />
	<circle cx="393.254303599381" cy="-389.919461778582" r="2" style="fill: rgb(0,0,0)" />
	<circle cx="365.315117801466" cy="-287.25813656128" r="2" style="fill: rgb(0,0,0)" />
	<circle cx="378.199563198211" cy="-320.1850435533" r="2" style="fill: rgb(0,0,0)" />
	<circle cx="175.146564218621" cy="-257.696217800353" r="2" style="fill: rgb(0,0,0)" />
	<circle cx="202.927984591121" cy="-202.820046705364" r="2" style="fill: rgb(0,0,0)" />
	<circle cx="326.737108585102" cy="-233.783364331354" r="2" style="fill: rgb(0,0,0)" />
	<circle cx="400.375390770787" cy="-225.74555297618" r="2" style="fill: rgb(0,0,0)" />
	<circle cx="148.553545712082" cy="-339.080659375354" r="2" style="fill: rgb(0,0,0)" />
	<circle cx="207.64222164759" cy="-441.048458891348" r="2" style="fill: rgb(0,0,0)" />
	<circle cx="379.321987065159" cy="-417.082809163185" r="2" style="fill: rgb(0,0,0)" />
	<circle cx="380.877826350988" cy="-322.919417907888" r="2" style="fill: rgb(0,0,0)" />
	<circle cx="422.245656181538" cy="-264.69012459209" r="2" style="fill: rgb(0,0,0)" />
	<circle cx="146.599187847296" cy="-277.099052444182" r="2" style="fill: rgb(0,0,0)" />
	<circle cx="148.123172309682" cy="-213.690374966041" r="2" style="fill: rgb(0,0,0)" />
	<circle cx="199.406406653672" cy="-203.122107984077" r="2" style="fill: rgb(0,0,0)" />
	<circle cx="201.380233976416" cy="-167.189844686001" r="2" style="fill: rgb(0,0,0)" />
	<circle cx="386.469825717525" cy="-195.452175149909" r="2" style="fill: rgb(0,0,0)" />
	<circle cx="119.166521108139" cy="-356.725501300594" r="2" style="fill: rgb(0,0,0)" />
	<circle cx="209.841484518195" cy="-507.078854128163" r="2" style="fill: rgb(0,0,0)" />
	<circle cx="206.759390913915" cy="-507.109570463892" r="2" style="fill: rgb(0,0,0)" />
	<circle cx="317.924897742476" cy="-445.698337695429" r="2" style="fill: rgb(0,0,0)" />
	<circle cx="435.498305931944" cy="-277.793510183463" r="2" style="fill: rgb(0,0,0)" />
	<circle cx="116.589940698162" cy="-260.534549820135" r="2" style="fill: rgb(0,0,0)" />
	<circle cx="143.479710442786" cy="-216.904205276296" r="2" style="fill: rgb(0,0,0)" />
	<circle cx="155.375287599779" cy="-161.834177500332" r="2" style="fill: rgb(0,0,0)" />
	<circle cx="190.388071436066" cy="-168.617377035853" r="2" style="fill: rgb(0,0,0)" />
	<circle cx="199.703232744078" cy="-96.2358791382398" r="2" style="fill: rgb(0,0,0)" />
	<circle cx="323.844576121827" cy="-161.849390809682" r="2" style="fill: rgb(0,0,0)" />
	<circle cx="89.9902643571232" cy="-374.716713145228" r="2" style="fill: rgb(0,0,0)" />
	<circle cx="266.618262140022" cy="-473.12038197207" r="2" style="fill: rgb(0,0,0)" />
	<circle cx="149.317093330733" cy="-474.289412684567" r="2" style="fill: rgb(0,0,0)" />
	<circle cx="313.046935201151" cy="-511.67549881759" r="2" style="fill: rgb(0,0,0)" />
	<circle cx="446.763831150515" cy="-347.742293440614" r="2" style="fill: rgb(0,0,0)" />
	<circle cx="88.3051902184682" cy="-241.171942765784" r="2" style="fill: rgb(0,0,0)" />
	<circle cx="92.8073486287604" cy="-206.949826239336" r="2" style="fill: rgb(0,0,0)" />
	<circle cx="166.817033686191" cy="-101.671998259713" r="2" style="fill: rgb(0,0,0)" />
	<circle cx="102.472294080542" cy="-189.549636975445" r="2" style="fill: rgb(0,0,0)" />
	<circle cx="120.107059520937" cy="-159.315799962671" r="2" style="fill: rgb(0,0,0)" />
	<circle cx="262.60547320573" cy="-129.317250742874" r="2" style="fill: rgb(0,0,0)" />
	<circle cx="322.920826049398" cy="-90.7845212316458" r="2" style="fill: rgb(0,0,0)" />
	<circle cx="33.5" cy="-412.315097969658" r="2" style="fill: rgb(0,0,0)" />
	<circle cx="89.6859007891651" cy="-506.42306990792" r="2" style="fill: rgb(0,0,0)" />
	<circle cx="91.2790366498505" cy="-509.218412486795" r="2" style="fill: rgb(0,0,0)" />
	<circle cx="373.648802253277" cy="-484.703837568807" r="2" style="fill: rgb(0,0,0)" />
	<circle cx="451.296032570377" cy="-382.448618554964" r="2" style="fill: rgb(0,0,0)" />
	<circle cx="474.109799052288" cy="-325.328276023878" r="2" style="fill: rgb(0,0,0)" />
	<circle cx="34.7656196577614" cy="-199.478983015737" r="2" style="fill: rgb(0,0,0)" />
	<circle cx="120.610978316823" cy="-155.381818449417" r="2" style="fill: rgb(0,0,0)" />
	<circle cx="51.9766502159597" cy="-159.97184545687" r="2" style="fill: rgb(0,0,0)" />
	<circle cx="385.382325557519" cy="-124.4867264901" r="2" style="fill: rgb(0,0,0)" />
	<circle cx="150.528979217053" cy="-542.297602536233" r="2" style="fill: rgb(0,0,0)" />
	<circle cx="404.772477853276" cy="-469.77937754348" r="2" style="fill: rgb(0,0,0)" />
	<circle cx="369.600466700215" cy="-518.741296946522" r="2" style="fill: rgb(0,0,0)" />
	<circle cx="476.210950283874" cy="-328.170443451677" r="2" style="fill: rgb(0,0,0)" />
	<circle cx="502.179701349286" cy="-373.637820326581" r="2" style="fill: rgb(0,0,0)" />
	<circle cx="501.86886372312" cy="-302.937627160877" r="2" style="fill: rgb(0,0,0)" />
	<circle cx="53.8710392105829" cy="-141.671836835645" r="2" style="fill: rgb(0,0,0)" />
	<circle cx="384.130622807184" cy="-88.8448961761237" r="2" style="fill: rgb(0,0,0)" />
	<circle cx="181.019239420072" cy="-557.959074190955" r="2" style="fill: rgb(0,0,0)" />
	<circle cx="120.760960758724" cy="-559.770088534701" r="2" style="fill: rgb(0,0,0)" />
	<circle cx="424.116918397027" cy="-517.660172585663" r="2" style="fill: rgb(0,0,0)" />
	<circle cx="372.882709967924" cy="-518.972639185587" r="2" style="fill: rgb(0,0,0)" />
	<circle cx="508.063647111032" cy="-312.129479243029" r="2" style="fill: rgb(0,0,0)" />
	<circle cx="536.297503506994" cy="-333.918379649362" r="2" style="fill: rgb(0,0,0)" />
	<circle cx="97.1067893320034" cy="-89.0139506343182" r="2" style="fill: rgb(0,0,0)" />
	<circle cx="383.167060903807" cy="-53.5" r="2" style="fill: rgb(0,0,0)" />
	<circle cx="155.443633741402" cy="-602.372530216163" r="2" style="fill: rgb(0,0,0)" />
	<circle cx="122.573414555556" cy="-562.54381438832" r="2" style="fill: rgb(0,0,0)" />
	<circle cx="90.4937166668376" cy="-577.347454313901" r="2" style="fill: rgb(0,0,0)" />
	<circle cx="561.5" cy="-358.718063271598" r="2" style="fill: rgb(0,0,0)" />
	<circle cx="550.47012794731" cy="-391.935705800142" r="2" style="fill: rgb(0,0,0)" />
	<!--
	Generated using the Perl SVG Module V2.84
	by Ronan Oger
	Info: http://www.roitsystems.com/
	-->
</svg>