<?xml version="1.0" encoding="UTF-8" standalone="yes"?>
<!DOCTYPE svg PUBLIC "-//W3C//DTD SVG 1.0//EN" "http://www.w3.org/TR/2001/REC-SVG-20010904/DTD/svg10.dtd">
<!-- generated using polymake; Michael Joswig, Georg Loho, Benjamin Lorenz, Rico Raber; license CC BY-NC-ND 3.0; see polymake.org and matchthenet.de -->
<svg height="841pt" id="document" viewBox="0 -740.349330096758 572 740.349330096758" width="595pt" xmlns="http://www.w3.org/2000/svg" xmlns:svg="http://www.w3.org/2000/svg" xmlns:xlink="http://www.w3.org/1999/xlink">
	<title id="document_title">planar_net_</title>
	<polygon points="195.901303807273,-357.242112426047 414.339288878776,-357.242112426047 292.300402355667,-423.512436416687 " style="fill: rgb(14,173,105); fill-opacity: 1; stroke: rgb(0,0,0); stroke-width: 3" />
	<polygon points="292.300402355669,-290.971788435407 414.339288878776,-357.242112426047 195.901303807273,-357.242112426047 " style="fill: rgb(14,173,105); fill-opacity: 1; stroke: rgb(0,0,0); stroke-width: 3" />
	<polygon points="195.901303807273,-357.242112426047 274.133457508463,-153.293875244715 292.300402355669,-290.971788435407 " style="fill: rgb(14,173,105); fill-opacity: 1; stroke: rgb(0,0,0); stroke-width: 3" />
	<polygon points="195.901303807273,-357.242112426047 168.551634476287,-243.503211296075 274.133457508463,-153.293875244715 " style="fill: rgb(14,173,105); fill-opacity: 1; stroke: rgb(0,0,0); stroke-width: 3" />
	<polygon points="195.901303807273,-357.242112426047 33.5,-211.156624290512 168.551634476287,-243.503211296075 " style="fill: rgb(14,173,105); fill-opacity: 1; stroke: rgb(0,0,0); stroke-width: 3" />
	<polygon points="195.901303807273,-357.242112426047 168.551634476288,-470.981013556022 33.5000000000001,-503.32760056159 " style="fill: rgb(14,173,105); fill-opacity: 1; stroke: rgb(0,0,0); stroke-width: 3" />
	<polygon points="195.901303807273,-357.242112426047 274.133457508464,-561.190349607381 168.551634476288,-470.981013556022 " style="fill: rgb(14,173,105); fill-opacity: 1; stroke: rgb(0,0,0); stroke-width: 3" />
	<polygon points="195.901303807273,-357.242112426047 292.300402355667,-423.512436416687 274.133457508464,-561.190349607381 " style="fill: rgb(14,173,105); fill-opacity: 1; stroke: rgb(0,0,0); stroke-width: 3" />
	<polygon points="419.488965052651,-500.067999811765 414.339288878776,-357.242112426047 472.947630568679,-435.580195180752 440.006464243579,-510.127194273619 " style="fill: rgb(67,184,206); fill-opacity: 1; stroke: rgb(0,0,0); stroke-width: 3" />
	<polygon points="472.947630568678,-278.904029671351 414.339288878776,-357.242112426047 419.488965052656,-214.41622504033 440.006464243595,-204.357030578472 " style="fill: rgb(67,184,206); fill-opacity: 1; stroke: rgb(0,0,0); stroke-width: 3" />
	<polygon points="437.982501670495,-200.994441640357 419.488965052656,-214.41622504033 290.867739016286,-152.107850923245 387.528009078047,-136.988819310373 " style="fill: rgb(67,184,206); fill-opacity: 1; stroke: rgb(0,0,0); stroke-width: 3" />
	<polygon points="387.528009078047,-136.988819310373 290.867739016286,-152.107850923245 394.31939443327,-53.5 416.028081453392,-60.6335877462565 " style="fill: rgb(67,184,206); fill-opacity: 1; stroke: rgb(0,0,0); stroke-width: 3" />
	<polygon points="58.8880412351422,-99.444375468231 136.717899708415,-75.2599043629894 142.626029032472,-97.3336257112662 38.3859236319703,-195.107618665967 " style="fill: rgb(67,184,206); fill-opacity: 1; stroke: rgb(0,0,0); stroke-width: 3" />
	<polygon points="142.626029032473,-617.150599140827 136.717899708411,-639.224320489115 58.8880412351393,-615.039849383854 38.3859236319702,-519.376606186124 " style="fill: rgb(67,184,206); fill-opacity: 1; stroke: rgb(0,0,0); stroke-width: 3" />
	<polygon points="290.867739016279,-562.376373928846 387.528009078031,-577.49540554172 416.02808145338,-653.850637105843 394.319394433254,-660.984224852093 " style="fill: rgb(67,184,206); fill-opacity: 1; stroke: rgb(0,0,0); stroke-width: 3" />
	<polygon points="290.867739016279,-562.376373928846 419.488965052651,-500.067999811765 437.982501670497,-513.489783211746 387.528009078031,-577.49540554172 " style="fill: rgb(67,184,206); fill-opacity: 1; stroke: rgb(0,0,0); stroke-width: 3" />
	<polygon points="290.867739016286,-152.107850923245 414.339288878776,-357.242112426047 292.300402355669,-290.971788435407 " style="fill: rgb(14,173,105); fill-opacity: 1; stroke: rgb(0,0,0); stroke-width: 3" />
	<polygon points="419.488965052656,-214.41622504033 414.339288878776,-357.242112426047 290.867739016286,-152.107850923245 " style="fill: rgb(14,173,105); fill-opacity: 1; stroke: rgb(0,0,0); stroke-width: 3" />
	<polygon points="292.300402355667,-423.512436416687 414.339288878776,-357.242112426047 290.867739016279,-562.376373928846 " style="fill: rgb(14,173,105); fill-opacity: 1; stroke: rgb(0,0,0); stroke-width: 3" />
	<polygon points="290.867739016279,-562.376373928846 414.339288878776,-357.242112426047 419.488965052651,-500.067999811765 " style="fill: rgb(14,173,105); fill-opacity: 1; stroke: rgb(0,0,0); stroke-width: 3" />
	<polygon points="168.551634476288,-470.981013556022 274.133457508464,-561.190349607381 38.3859236319702,-519.376606186124 " style="fill: rgb(14,173,105); fill-opacity: 1; stroke: rgb(0,0,0); stroke-width: 3" />
	<polygon points="38.3859236319702,-519.376606186124 274.133457508464,-561.190349607381 142.626029032473,-617.150599140827 " style="fill: rgb(14,173,105); fill-opacity: 1; stroke: rgb(0,0,0); stroke-width: 3" />
	<polygon points="168.551634476287,-243.503211296075 38.3859236319703,-195.107618665967 274.133457508463,-153.293875244715 " style="fill: rgb(14,173,105); fill-opacity: 1; stroke: rgb(0,0,0); stroke-width: 3" />
	<polygon points="274.133457508463,-153.293875244715 38.3859236319703,-195.107618665967 142.626029032472,-97.3336257112662 " style="fill: rgb(14,173,105); fill-opacity: 1; stroke: rgb(0,0,0); stroke-width: 3" />
	<polygon points="440.006464243579,-510.127194273619 472.947630568679,-435.580195180752 554.398673781428,-438.426784748402 536.240303242926,-536.558539972644 " style="fill: rgb(67,184,206); fill-opacity: 1; stroke: rgb(0,0,0); stroke-width: 3" />
	<polygon points="506.387547937484,-128.328648799263 437.982501670495,-200.994441640357 387.528009078047,-136.988819310373 428.171922562895,-66.3457176708788 " style="fill: rgb(67,184,206); fill-opacity: 1; stroke: rgb(0,0,0); stroke-width: 3" />
	<polygon points="387.528009078031,-577.49540554172 437.982501670497,-513.489783211746 506.387547937491,-586.155576052835 428.171922562882,-648.138507181223 " style="fill: rgb(67,184,206); fill-opacity: 1; stroke: rgb(0,0,0); stroke-width: 3" />
	<polygon points="428.171922562882,-648.138507181223 506.387547937491,-586.155576052835 561.5,-669.355248117503 487.658725491651,-703.849330096758 " style="fill: rgb(67,184,206); fill-opacity: 1; stroke: rgb(0,0,0); stroke-width: 3" />
	<circle cx="195.901303807273" cy="-357.242112426047" r="2" style="fill: rgb(0,0,0)" />
	<circle cx="414.339288878776" cy="-357.242112426047" r="2" style="fill: rgb(0,0,0)" />
	<circle cx="292.300402355667" cy="-423.512436416687" r="2" style="fill: rgb(0,0,0)" />
	<circle cx="292.300402355669" cy="-290.971788435407" r="2" style="fill: rgb(0,0,0)" />
	<circle cx="274.133457508464" cy="-561.190349607381" r="2" style="fill: rgb(0,0,0)" />
	<circle cx="290.867739016279" cy="-562.376373928846" r="2" style="fill: rgb(0,0,0)" />
	<circle cx="274.133457508463" cy="-153.293875244715" r="2" style="fill: rgb(0,0,0)" />
	<circle cx="290.867739016286" cy="-152.107850923245" r="2" style="fill: rgb(0,0,0)" />
	<circle cx="168.551634476288" cy="-470.981013556022" r="2" style="fill: rgb(0,0,0)" />
	<circle cx="419.488965052651" cy="-500.067999811765" r="2" style="fill: rgb(0,0,0)" />
	<circle cx="168.551634476287" cy="-243.503211296075" r="2" style="fill: rgb(0,0,0)" />
	<circle cx="419.488965052656" cy="-214.41622504033" r="2" style="fill: rgb(0,0,0)" />
	<circle cx="33.5000000000001" cy="-503.32760056159" r="2" style="fill: rgb(0,0,0)" />
	<circle cx="38.3859236319702" cy="-519.376606186124" r="2" style="fill: rgb(0,0,0)" />
	<circle cx="472.947630568679" cy="-435.580195180752" r="2" style="fill: rgb(0,0,0)" />
	<circle cx="440.006464243579" cy="-510.127194273619" r="2" style="fill: rgb(0,0,0)" />
	<circle cx="437.982501670497" cy="-513.489783211746" r="2" style="fill: rgb(0,0,0)" />
	<circle cx="387.528009078031" cy="-577.49540554172" r="2" style="fill: rgb(0,0,0)" />
	<circle cx="33.5" cy="-211.156624290512" r="2" style="fill: rgb(0,0,0)" />
	<circle cx="38.3859236319703" cy="-195.107618665967" r="2" style="fill: rgb(0,0,0)" />
	<circle cx="440.006464243595" cy="-204.357030578472" r="2" style="fill: rgb(0,0,0)" />
	<circle cx="472.947630568678" cy="-278.904029671351" r="2" style="fill: rgb(0,0,0)" />
	<circle cx="387.528009078047" cy="-136.988819310373" r="2" style="fill: rgb(0,0,0)" />
	<circle cx="437.982501670495" cy="-200.994441640357" r="2" style="fill: rgb(0,0,0)" />
	<circle cx="142.626029032473" cy="-617.150599140827" r="2" style="fill: rgb(0,0,0)" />
	<circle cx="554.398673781428" cy="-438.426784748402" r="2" style="fill: rgb(0,0,0)" />
	<circle cx="536.240303242926" cy="-536.558539972644" r="2" style="fill: rgb(0,0,0)" />
	<circle cx="416.02808145338" cy="-653.850637105843" r="2" style="fill: rgb(0,0,0)" />
	<circle cx="394.319394433254" cy="-660.984224852093" r="2" style="fill: rgb(0,0,0)" />
	<circle cx="506.387547937491" cy="-586.155576052835" r="2" style="fill: rgb(0,0,0)" />
	<circle cx="428.171922562882" cy="-648.138507181223" r="2" style="fill: rgb(0,0,0)" />
	<circle cx="142.626029032472" cy="-97.3336257112662" r="2" style="fill: rgb(0,0,0)" />
	<circle cx="394.31939443327" cy="-53.5" r="2" style="fill: rgb(0,0,0)" />
	<circle cx="416.028081453392" cy="-60.6335877462565" r="2" style="fill: rgb(0,0,0)" />
	<circle cx="428.171922562895" cy="-66.3457176708788" r="2" style="fill: rgb(0,0,0)" />
	<circle cx="506.387547937484" cy="-128.328648799263" r="2" style="fill: rgb(0,0,0)" />
	<circle cx="136.717899708411" cy="-639.224320489115" r="2" style="fill: rgb(0,0,0)" />
	<circle cx="58.8880412351393" cy="-615.039849383854" r="2" style="fill: rgb(0,0,0)" />
	<circle cx="561.5" cy="-669.355248117503" r="2" style="fill: rgb(0,0,0)" />
	<circle cx="487.658725491651" cy="-703.849330096758" r="2" style="fill: rgb(0,0,0)" />
	<circle cx="58.8880412351422" cy="-99.444375468231" r="2" style="fill: rgb(0,0,0)" />
	<circle cx="136.717899708415" cy="-75.2599043629894" r="2" style="fill: rgb(0,0,0)" />
	<!--
	Generated using the Perl SVG Module V2.86
	by Ronan Oger
	Info: http://www.roitsystems.com/
	-->
</svg>