<?xml version="1.0" encoding="UTF-8" standalone="yes"?>
<!DOCTYPE svg PUBLIC "-//W3C//DTD SVG 1.0//EN" "http://www.w3.org/TR/2001/REC-SVG-20010904/DTD/svg10.dtd">
<!-- generated using polymake; Michael Joswig, Georg Loho, Benjamin Lorenz, Rico Raber; license CC BY-NC-SA 3.0; see polymake.org and matchthenet.de -->
<svg height="841pt" id="document" viewBox="0 -659.016127909938 572 659.016127909938" width="595pt" xmlns="http://www.w3.org/2000/svg" xmlns:svg="http://www.w3.org/2000/svg" xmlns:xlink="http://www.w3.org/1999/xlink">
	<title id="document_title">planar_net_</title>
	<polygon points="285.167872788786,-338.008063954957 347.583258914717,-338.008063954957 323.182280168493,-395.456063584845 253.268262076777,-400.418047503787 " style="fill: rgb(67,184,206); fill-opacity: 1; stroke: rgb(0,0,0); stroke-width: 3" />
	<polygon points="285.167872788786,-338.008063954957 253.268262076763,-275.598080406141 323.182280168477,-280.560064325064 347.583258914717,-338.008063954957 " style="fill: rgb(67,184,206); fill-opacity: 1; stroke: rgb(0,0,0); stroke-width: 3" />
	<polygon points="323.182280168493,-395.456063584845 347.583258914717,-338.008063954957 390.919767195616,-382.926072317629 368.154316120565,-449.215780775959 " style="fill: rgb(67,184,206); fill-opacity: 1; stroke: rgb(0,0,0); stroke-width: 3" />
	<polygon points="285.167872788786,-338.008063954957 253.268262076777,-400.418047503787 207.984113948375,-342.296782941388 246.550354876147,-279.516367788658 " style="fill: rgb(67,184,206); fill-opacity: 1; stroke: rgb(0,0,0); stroke-width: 3" />
	<polygon points="390.919767195604,-293.090055592262 347.583258914717,-338.008063954957 323.182280168477,-280.560064325064 368.15431612052,-226.800347133933 " style="fill: rgb(67,184,206); fill-opacity: 1; stroke: rgb(0,0,0); stroke-width: 3" />
	<polygon points="253.268262076777,-400.418047503787 323.182280168493,-395.456063584845 361.921537521123,-453.867202504647 289.060283687307,-464.82042832219 " style="fill: rgb(67,184,206); fill-opacity: 1; stroke: rgb(0,0,0); stroke-width: 3" />
	<polygon points="390.919767195616,-382.926072317629 347.583258914717,-338.008063954957 405.868614034557,-315.680999575516 457.982556782361,-362.550266493396 " style="fill: rgb(67,184,206); fill-opacity: 1; stroke: rgb(0,0,0); stroke-width: 3" />
	<polygon points="207.984113948375,-342.296782941388 253.268262076777,-400.418047503787 201.826715133762,-417.336573891396 185.525122574432,-345.152419883687 " style="fill: rgb(67,184,206); fill-opacity: 1; stroke: rgb(0,0,0); stroke-width: 3" />
	<polygon points="323.182280168477,-280.560064325064 253.268262076763,-275.598080406141 289.060283687274,-211.195699587724 361.921537521087,-222.148925405233 " style="fill: rgb(67,184,206); fill-opacity: 1; stroke: rgb(0,0,0); stroke-width: 3" />
	<polygon points="253.268262076777,-400.418047503787 289.060283687307,-464.82042832219 277.651686458665,-484.375603216731 217.58540037361,-441.151359027535 " style="fill: rgb(67,184,206); fill-opacity: 1; stroke: rgb(0,0,0); stroke-width: 3" />
	<polygon points="246.550354876147,-279.516367788658 207.984113948375,-342.296782941388 185.347008421312,-341.946912625376 193.551108842935,-268.401098699285 " style="fill: rgb(67,184,206); fill-opacity: 1; stroke: rgb(0,0,0); stroke-width: 3" />
	<polygon points="368.154316120565,-449.215780775959 390.919767195616,-382.926072317629 459.82711759916,-370.105453358121 441.423882999401,-441.450084707035 " style="fill: rgb(67,184,206); fill-opacity: 1; stroke: rgb(0,0,0); stroke-width: 3" />
	<polygon points="253.268262076763,-275.598080406141 217.585400373576,-234.864768882403 277.651686458623,-191.6405246932 289.060283687274,-211.195699587724 " style="fill: rgb(67,184,206); fill-opacity: 1; stroke: rgb(0,0,0); stroke-width: 3" />
	<polygon points="289.060283687307,-464.82042832219 361.921537521123,-453.867202504647 351.432401073796,-506.993912393442 280.532447618455,-485.792718799478 " style="fill: rgb(67,184,206); fill-opacity: 1; stroke: rgb(0,0,0); stroke-width: 3" />
	<polygon points="459.827117599169,-305.910674551729 390.919767195604,-293.090055592262 368.15431612052,-226.800347133933 441.423882999365,-234.566043202818 " style="fill: rgb(67,184,206); fill-opacity: 1; stroke: rgb(0,0,0); stroke-width: 3" />
	<polygon points="368.154316120565,-449.215780775959 441.423882999401,-441.450084707035 454.962607888466,-459.595714601305 391.695795337759,-497.983270390294 " style="fill: rgb(67,184,206); fill-opacity: 1; stroke: rgb(0,0,0); stroke-width: 3" />
	<polygon points="289.060283687274,-211.195699587724 280.53244761841,-190.223409110429 351.432401073725,-169.022215516452 361.921537521087,-222.148925405233 " style="fill: rgb(67,184,206); fill-opacity: 1; stroke: rgb(0,0,0); stroke-width: 3" />
	<polygon points="441.423882999365,-234.566043202818 368.15431612052,-226.800347133933 391.695795337689,-178.032857519576 454.962607888403,-216.42041330855 " style="fill: rgb(67,184,206); fill-opacity: 1; stroke: rgb(0,0,0); stroke-width: 3" />
	<polygon points="441.423882999401,-441.450084707035 459.82711759916,-370.105453358121 504.625014208654,-400.529420002595 457.393159980218,-457.498235646964 " style="fill: rgb(67,184,206); fill-opacity: 1; stroke: rgb(0,0,0); stroke-width: 3" />
	<polygon points="459.827117599169,-305.910674551729 441.423882999365,-234.566043202818 457.393159980185,-218.517892262867 504.625014208631,-275.486707907227 " style="fill: rgb(67,184,206); fill-opacity: 1; stroke: rgb(0,0,0); stroke-width: 3" />
	<polygon points="185.525122574432,-345.152419883687 201.826715133762,-417.336573891396 148.106935307657,-424.166986942861 164.018607417525,-352.225662540845 " style="fill: rgb(67,184,206); fill-opacity: 1; stroke: rgb(0,0,0); stroke-width: 3" />
	<polygon points="217.58540037361,-441.151359027535 277.651686458665,-484.375603216731 262.733511332416,-501.405254028885 190.297116539179,-487.925484913434 " style="fill: rgb(67,184,206); fill-opacity: 1; stroke: rgb(0,0,0); stroke-width: 3" />
	<polygon points="193.551108842935,-268.401098699285 185.347008421312,-341.946912625376 163.189255479305,-337.299876963548 139.405296835345,-267.564242046598 " style="fill: rgb(67,184,206); fill-opacity: 1; stroke: rgb(0,0,0); stroke-width: 3" />
	<polygon points="217.585400373576,-234.864768882403 190.297116539133,-188.090642996506 262.733511332369,-174.610873881052 277.651686458623,-191.6405246932 " style="fill: rgb(67,184,206); fill-opacity: 1; stroke: rgb(0,0,0); stroke-width: 3" />
	<polygon points="280.532447618455,-485.792718799478 351.432401073796,-506.993912393442 331.034625039047,-557.157644509933 276.147183461499,-508.003761416946 " style="fill: rgb(67,184,206); fill-opacity: 1; stroke: rgb(0,0,0); stroke-width: 3" />
	<polygon points="391.695795337759,-497.983270390294 454.962607888466,-459.595714601305 464.804753191006,-479.984268540342 424.079142748897,-541.385898161754 " style="fill: rgb(67,184,206); fill-opacity: 1; stroke: rgb(0,0,0); stroke-width: 3" />
	<polygon points="280.53244761841,-190.223409110429 276.147183461445,-168.012366492961 331.034625038961,-118.858483399972 351.432401073725,-169.022215516452 " style="fill: rgb(67,184,206); fill-opacity: 1; stroke: rgb(0,0,0); stroke-width: 3" />
	<polygon points="454.962607888403,-216.42041330855 391.695795337689,-178.032857519576 424.079142748817,-134.630229748101 464.804753190933,-196.03185936951 " style="fill: rgb(67,184,206); fill-opacity: 1; stroke: rgb(0,0,0); stroke-width: 3" />
	<polygon points="457.393159980218,-457.498235646964 504.625014208654,-400.529420002595 542.822011977079,-438.915076809505 476.1221193464,-470.217788978002 " style="fill: rgb(67,184,206); fill-opacity: 1; stroke: rgb(0,0,0); stroke-width: 3" />
	<polygon points="504.625014208631,-275.486707907227 457.393159980185,-218.517892262867 476.122119346366,-205.798338931822 542.822011977041,-237.101051100309 " style="fill: rgb(67,184,206); fill-opacity: 1; stroke: rgb(0,0,0); stroke-width: 3" />
	<polygon points="164.018607417525,-352.225662540845 148.106935307657,-424.166986942861 92.4825925156258,-381.522834951095 102.215449734561,-312.112009422957 " style="fill: rgb(67,184,206); fill-opacity: 1; stroke: rgb(0,0,0); stroke-width: 3" />
	<polygon points="262.733511332369,-174.610873881052 190.297116539133,-188.090642996506 207.801339286313,-120.221700201147 275.493050956015,-102.044148623259 " style="fill: rgb(67,184,206); fill-opacity: 1; stroke: rgb(0,0,0); stroke-width: 3" />
	<polygon points="464.804753190933,-196.03185936951 424.079142748817,-134.630229748101 493.38985980636,-124.208343589053 536.584465518283,-179.406325866784 " style="fill: rgb(67,184,206); fill-opacity: 1; stroke: rgb(0,0,0); stroke-width: 3" />
	<polygon points="464.804753191006,-479.984268540342 536.584465518368,-496.609802043051 493.389859806438,-551.807784320779 424.079142748897,-541.385898161754 " style="fill: rgb(67,184,206); fill-opacity: 1; stroke: rgb(0,0,0); stroke-width: 3" />
	<polygon points="262.733511332416,-501.405254028885 275.493050956081,-573.97197928668 207.801339286375,-555.794427708786 190.297116539179,-487.925484913434 " style="fill: rgb(67,184,206); fill-opacity: 1; stroke: rgb(0,0,0); stroke-width: 3" />
	<polygon points="102.215449734561,-312.112009422957 92.4825925156258,-381.522834951095 33.5,-401.936903761245 37.7695493124622,-339.667718975216 " style="fill: rgb(67,184,206); fill-opacity: 1; stroke: rgb(0,0,0); stroke-width: 3" />
	<polygon points="207.801339286313,-120.221700201147 165.9529976202,-73.9140688101306 224.935590135812,-53.5 275.493050956015,-102.044148623259 " style="fill: rgb(67,184,206); fill-opacity: 1; stroke: rgb(0,0,0); stroke-width: 3" />
	<polygon points="493.389859806438,-551.807784320779 536.584465518368,-496.609802043051 561.5,-562.121689144836 519.651658333899,-608.429320535841 " style="fill: rgb(67,184,206); fill-opacity: 1; stroke: rgb(0,0,0); stroke-width: 3" />
	<polygon points="207.801339286375,-555.794427708786 275.493050956081,-573.97197928668 224.935590135888,-622.516127909938 165.952997620269,-602.102059099813 " style="fill: rgb(67,184,206); fill-opacity: 1; stroke: rgb(0,0,0); stroke-width: 3" />
	<polygon points="148.106935307657,-424.166986942861 82.8457850841138,-449.732070194091 36.1247279600015,-408.345801378771 92.4825925156258,-381.522834951095 " style="fill: rgb(67,184,206); fill-opacity: 1; stroke: rgb(0,0,0); stroke-width: 3" />
	<circle cx="285.167872788786" cy="-338.008063954957" r="2" style="fill: rgb(0,0,0)" />
	<circle cx="347.583258914717" cy="-338.008063954957" r="2" style="fill: rgb(0,0,0)" />
	<circle cx="323.182280168493" cy="-395.456063584845" r="2" style="fill: rgb(0,0,0)" />
	<circle cx="253.268262076777" cy="-400.418047503787" r="2" style="fill: rgb(0,0,0)" />
	<circle cx="253.268262076763" cy="-275.598080406141" r="2" style="fill: rgb(0,0,0)" />
	<circle cx="323.182280168477" cy="-280.560064325064" r="2" style="fill: rgb(0,0,0)" />
	<circle cx="390.919767195616" cy="-382.926072317629" r="2" style="fill: rgb(0,0,0)" />
	<circle cx="368.154316120565" cy="-449.215780775959" r="2" style="fill: rgb(0,0,0)" />
	<circle cx="207.984113948375" cy="-342.296782941388" r="2" style="fill: rgb(0,0,0)" />
	<circle cx="246.550354876147" cy="-279.516367788658" r="2" style="fill: rgb(0,0,0)" />
	<circle cx="361.921537521123" cy="-453.867202504647" r="2" style="fill: rgb(0,0,0)" />
	<circle cx="289.060283687307" cy="-464.82042832219" r="2" style="fill: rgb(0,0,0)" />
	<circle cx="368.15431612052" cy="-226.800347133933" r="2" style="fill: rgb(0,0,0)" />
	<circle cx="390.919767195604" cy="-293.090055592262" r="2" style="fill: rgb(0,0,0)" />
	<circle cx="289.060283687274" cy="-211.195699587724" r="2" style="fill: rgb(0,0,0)" />
	<circle cx="361.921537521087" cy="-222.148925405233" r="2" style="fill: rgb(0,0,0)" />
	<circle cx="405.868614034557" cy="-315.680999575516" r="2" style="fill: rgb(0,0,0)" />
	<circle cx="457.982556782361" cy="-362.550266493396" r="2" style="fill: rgb(0,0,0)" />
	<circle cx="459.82711759916" cy="-370.105453358121" r="2" style="fill: rgb(0,0,0)" />
	<circle cx="441.423882999401" cy="-441.450084707035" r="2" style="fill: rgb(0,0,0)" />
	<circle cx="201.826715133762" cy="-417.336573891396" r="2" style="fill: rgb(0,0,0)" />
	<circle cx="185.525122574432" cy="-345.152419883687" r="2" style="fill: rgb(0,0,0)" />
	<circle cx="185.347008421312" cy="-341.946912625376" r="2" style="fill: rgb(0,0,0)" />
	<circle cx="193.551108842935" cy="-268.401098699285" r="2" style="fill: rgb(0,0,0)" />
	<circle cx="277.651686458665" cy="-484.375603216731" r="2" style="fill: rgb(0,0,0)" />
	<circle cx="217.58540037361" cy="-441.151359027535" r="2" style="fill: rgb(0,0,0)" />
	<circle cx="351.432401073796" cy="-506.993912393442" r="2" style="fill: rgb(0,0,0)" />
	<circle cx="280.532447618455" cy="-485.792718799478" r="2" style="fill: rgb(0,0,0)" />
	<circle cx="441.423882999365" cy="-234.566043202818" r="2" style="fill: rgb(0,0,0)" />
	<circle cx="459.827117599169" cy="-305.910674551729" r="2" style="fill: rgb(0,0,0)" />
	<circle cx="217.585400373576" cy="-234.864768882403" r="2" style="fill: rgb(0,0,0)" />
	<circle cx="277.651686458623" cy="-191.6405246932" r="2" style="fill: rgb(0,0,0)" />
	<circle cx="280.53244761841" cy="-190.223409110429" r="2" style="fill: rgb(0,0,0)" />
	<circle cx="351.432401073725" cy="-169.022215516452" r="2" style="fill: rgb(0,0,0)" />
	<circle cx="454.962607888466" cy="-459.595714601305" r="2" style="fill: rgb(0,0,0)" />
	<circle cx="391.695795337759" cy="-497.983270390294" r="2" style="fill: rgb(0,0,0)" />
	<circle cx="504.625014208654" cy="-400.529420002595" r="2" style="fill: rgb(0,0,0)" />
	<circle cx="457.393159980218" cy="-457.498235646964" r="2" style="fill: rgb(0,0,0)" />
	<circle cx="148.106935307657" cy="-424.166986942861" r="2" style="fill: rgb(0,0,0)" />
	<circle cx="164.018607417525" cy="-352.225662540845" r="2" style="fill: rgb(0,0,0)" />
	<circle cx="163.189255479305" cy="-337.299876963548" r="2" style="fill: rgb(0,0,0)" />
	<circle cx="139.405296835345" cy="-267.564242046598" r="2" style="fill: rgb(0,0,0)" />
	<circle cx="262.733511332416" cy="-501.405254028885" r="2" style="fill: rgb(0,0,0)" />
	<circle cx="190.297116539179" cy="-487.925484913434" r="2" style="fill: rgb(0,0,0)" />
	<circle cx="331.034625039047" cy="-557.157644509933" r="2" style="fill: rgb(0,0,0)" />
	<circle cx="276.147183461499" cy="-508.003761416946" r="2" style="fill: rgb(0,0,0)" />
	<circle cx="391.695795337689" cy="-178.032857519576" r="2" style="fill: rgb(0,0,0)" />
	<circle cx="454.962607888403" cy="-216.42041330855" r="2" style="fill: rgb(0,0,0)" />
	<circle cx="457.393159980185" cy="-218.517892262867" r="2" style="fill: rgb(0,0,0)" />
	<circle cx="504.625014208631" cy="-275.486707907227" r="2" style="fill: rgb(0,0,0)" />
	<circle cx="190.297116539133" cy="-188.090642996506" r="2" style="fill: rgb(0,0,0)" />
	<circle cx="262.733511332369" cy="-174.610873881052" r="2" style="fill: rgb(0,0,0)" />
	<circle cx="276.147183461445" cy="-168.012366492961" r="2" style="fill: rgb(0,0,0)" />
	<circle cx="331.034625038961" cy="-118.858483399972" r="2" style="fill: rgb(0,0,0)" />
	<circle cx="464.804753191006" cy="-479.984268540342" r="2" style="fill: rgb(0,0,0)" />
	<circle cx="424.079142748897" cy="-541.385898161754" r="2" style="fill: rgb(0,0,0)" />
	<circle cx="542.822011977079" cy="-438.915076809505" r="2" style="fill: rgb(0,0,0)" />
	<circle cx="476.1221193464" cy="-470.217788978002" r="2" style="fill: rgb(0,0,0)" />
	<circle cx="92.4825925156258" cy="-381.522834951095" r="2" style="fill: rgb(0,0,0)" />
	<circle cx="102.215449734561" cy="-312.112009422957" r="2" style="fill: rgb(0,0,0)" />
	<circle cx="275.493050956081" cy="-573.97197928668" r="2" style="fill: rgb(0,0,0)" />
	<circle cx="207.801339286375" cy="-555.794427708786" r="2" style="fill: rgb(0,0,0)" />
	<circle cx="424.079142748817" cy="-134.630229748101" r="2" style="fill: rgb(0,0,0)" />
	<circle cx="464.804753190933" cy="-196.03185936951" r="2" style="fill: rgb(0,0,0)" />
	<circle cx="476.122119346366" cy="-205.798338931822" r="2" style="fill: rgb(0,0,0)" />
	<circle cx="542.822011977041" cy="-237.101051100309" r="2" style="fill: rgb(0,0,0)" />
	<circle cx="207.801339286313" cy="-120.221700201147" r="2" style="fill: rgb(0,0,0)" />
	<circle cx="275.493050956015" cy="-102.044148623259" r="2" style="fill: rgb(0,0,0)" />
	<circle cx="536.584465518368" cy="-496.609802043051" r="2" style="fill: rgb(0,0,0)" />
	<circle cx="493.389859806438" cy="-551.807784320779" r="2" style="fill: rgb(0,0,0)" />
	<circle cx="33.5" cy="-401.936903761245" r="2" style="fill: rgb(0,0,0)" />
	<circle cx="37.7695493124622" cy="-339.667718975216" r="2" style="fill: rgb(0,0,0)" />
	<circle cx="82.8457850841138" cy="-449.732070194091" r="2" style="fill: rgb(0,0,0)" />
	<circle cx="36.1247279600015" cy="-408.345801378771" r="2" style="fill: rgb(0,0,0)" />
	<circle cx="224.935590135888" cy="-622.516127909938" r="2" style="fill: rgb(0,0,0)" />
	<circle cx="165.952997620269" cy="-602.102059099813" r="2" style="fill: rgb(0,0,0)" />
	<circle cx="493.38985980636" cy="-124.208343589053" r="2" style="fill: rgb(0,0,0)" />
	<circle cx="536.584465518283" cy="-179.406325866784" r="2" style="fill: rgb(0,0,0)" />
	<circle cx="165.9529976202" cy="-73.9140688101306" r="2" style="fill: rgb(0,0,0)" />
	<circle cx="224.935590135812" cy="-53.5" r="2" style="fill: rgb(0,0,0)" />
	<circle cx="561.5" cy="-562.121689144836" r="2" style="fill: rgb(0,0,0)" />
	<circle cx="519.651658333899" cy="-608.429320535841" r="2" style="fill: rgb(0,0,0)" />
	<!-- 
	Generated using the Perl SVG Module V2.64
	by Ronan Oger
	Info: http://www.roitsystems.com/
 -->
</svg>