<?xml version="1.0" encoding="UTF-8" standalone="yes"?>
<!DOCTYPE svg PUBLIC "-//W3C//DTD SVG 1.0//EN" "http://www.w3.org/TR/2001/REC-SVG-20010904/DTD/svg10.dtd">
<!-- generated using polymake; Michael Joswig, Georg Loho, Benjamin Lorenz, Rico Raber; license CC BY-NC-ND 3.0; see polymake.org and matchthenet.de -->
<svg height="841pt" id="document" viewBox="0 -692.220243132872 572 692.220243132872" width="595pt" xmlns="http://www.w3.org/2000/svg" xmlns:svg="http://www.w3.org/2000/svg" xmlns:xlink="http://www.w3.org/1999/xlink">
	<title id="document_title">planar_net_</title>
	<polygon points="302.363569680774,-350.588533723309 378.908617402031,-350.588533723309 339.064084696473,-415.945687456665 271.460237334396,-410.924865109072 " style="fill: rgb(67,184,206); fill-opacity: 1; stroke: rgb(0,0,0); stroke-width: 3" />
	<polygon points="302.363569680774,-350.588533723309 271.460237334387,-290.252202337561 339.064084696468,-285.231379989957 378.908617402031,-350.588533723309 " style="fill: rgb(67,184,206); fill-opacity: 1; stroke: rgb(0,0,0); stroke-width: 3" />
	<polygon points="339.064084696473,-415.945687456665 378.908617402031,-350.588533723309 413.972554750076,-418.630172653469 374.495273655635,-473.73945601473 " style="fill: rgb(67,184,206); fill-opacity: 1; stroke: rgb(0,0,0); stroke-width: 3" />
	<polygon points="302.363569680774,-350.588533723309 271.460237334396,-410.924865109072 231.921587634393,-359.496318561526 257.413474447026,-299.844294900762 " style="fill: rgb(67,184,206); fill-opacity: 1; stroke: rgb(0,0,0); stroke-width: 3" />
	<polygon points="413.972554750064,-282.546894793144 378.908617402031,-350.588533723309 339.064084696468,-285.231379989957 374.495273655609,-227.437611431886 " style="fill: rgb(67,184,206); fill-opacity: 1; stroke: rgb(0,0,0); stroke-width: 3" />
	<polygon points="271.460237334396,-410.924865109072 339.064084696473,-415.945687456665 358.993309689661,-480.740091739545 294.790608861381,-471.45497319179 " style="fill: rgb(67,184,206); fill-opacity: 1; stroke: rgb(0,0,0); stroke-width: 3" />
	<polygon points="413.972554750076,-418.630172653469 378.908617402031,-350.588533723309 455.257306549882,-356.067766886332 481.76237967324,-418.461435907526 " style="fill: rgb(67,184,206); fill-opacity: 1; stroke: rgb(0,0,0); stroke-width: 3" />
	<polygon points="231.921587634393,-359.496318561526 271.460237334396,-410.924865109072 135.086970982757,-422.320617389247 114.05924555697,-385.469469877649 " style="fill: rgb(67,184,206); fill-opacity: 1; stroke: rgb(0,0,0); stroke-width: 3" />
	<polygon points="339.064084696468,-285.231379989957 271.460237334387,-290.252202337561 294.790608861354,-229.722094254835 358.993309689628,-220.436975707065 " style="fill: rgb(67,184,206); fill-opacity: 1; stroke: rgb(0,0,0); stroke-width: 3" />
	<polygon points="271.460237334396,-410.924865109072 294.790608861381,-471.45497319179 211.262002145446,-558.570460502368 190.742761953238,-521.433779290413 " style="fill: rgb(67,184,206); fill-opacity: 1; stroke: rgb(0,0,0); stroke-width: 3" />
	<polygon points="257.413474447026,-299.844294900762 231.921587634393,-359.496318561526 111.303883786726,-363.680310409118 122.496306269849,-322.754743968775 " style="fill: rgb(67,184,206); fill-opacity: 1; stroke: rgb(0,0,0); stroke-width: 3" />
	<polygon points="374.495273655635,-473.73945601473 413.972554750076,-418.630172653469 479.670449630586,-435.341708892605 438.322568513298,-485.327236270058 " style="fill: rgb(67,184,206); fill-opacity: 1; stroke: rgb(0,0,0); stroke-width: 3" />
	<polygon points="271.460237334387,-290.252202337561 190.742761953195,-179.743288156246 211.262002145387,-142.60660694428 294.790608861354,-229.722094254835 " style="fill: rgb(67,184,206); fill-opacity: 1; stroke: rgb(0,0,0); stroke-width: 3" />
	<polygon points="294.790608861381,-471.45497319179 358.993309689661,-480.740091739545 269.202089141466,-584.011906180426 228.432170328248,-572.265160696382 " style="fill: rgb(67,184,206); fill-opacity: 1; stroke: rgb(0,0,0); stroke-width: 3" />
	<polygon points="479.670449630568,-265.835358553978 413.972554750064,-282.546894793144 374.495273655609,-227.437611431886 438.322568513269,-215.849831176535 " style="fill: rgb(67,184,206); fill-opacity: 1; stroke: rgb(0,0,0); stroke-width: 3" />
	<polygon points="374.495273655635,-473.73945601473 438.322568513298,-485.327236270058 469.225442898911,-601.994063706021 426.835668293716,-600.183174856664 " style="fill: rgb(67,184,206); fill-opacity: 1; stroke: rgb(0,0,0); stroke-width: 3" />
	<polygon points="294.790608861354,-229.722094254835 228.432170328201,-128.911906750264 269.20208914141,-117.165161266204 358.993309689628,-220.436975707065 " style="fill: rgb(67,184,206); fill-opacity: 1; stroke: rgb(0,0,0); stroke-width: 3" />
	<polygon points="438.322568513269,-215.849831176535 374.495273655609,-227.437611431886 426.835668293642,-100.993892589934 469.225442898838,-99.1830037405553 " style="fill: rgb(67,184,206); fill-opacity: 1; stroke: rgb(0,0,0); stroke-width: 3" />
	<polygon points="438.322568513298,-485.327236270058 479.670449630586,-435.341708892605 521.108305159541,-565.765767542108 489.856221775455,-594.462101692265 " style="fill: rgb(67,184,206); fill-opacity: 1; stroke: rgb(0,0,0); stroke-width: 3" />
	<polygon points="479.670449630568,-265.835358553978 438.322568513269,-215.849831176535 489.856221775399,-106.714965754322 521.108305159494,-135.411299904466 " style="fill: rgb(67,184,206); fill-opacity: 1; stroke: rgb(0,0,0); stroke-width: 3" />
	<polygon points="135.086970982757,-422.320617389247 113.441852340408,-458.812550038294 42.998886328915,-421.545430982232 114.05924555697,-385.469469877649 " style="fill: rgb(67,184,206); fill-opacity: 1; stroke: rgb(0,0,0); stroke-width: 3" />
	<polygon points="122.496306269849,-322.754743968775 111.303883786726,-363.680310409118 33.5,-346.429070136632 92.4485887894914,-292.799661199329 " style="fill: rgb(67,184,206); fill-opacity: 1; stroke: rgb(0,0,0); stroke-width: 3" />
	<polygon points="228.432170328201,-128.911906750264 202.662150081275,-53.5 279.137959722538,-75.9165154060243 269.20208914141,-117.165161266204 " style="fill: rgb(67,184,206); fill-opacity: 1; stroke: rgb(0,0,0); stroke-width: 3" />
	<polygon points="489.856221775455,-594.462101692265 521.108305159541,-565.765767542108 561.5,-578.753580961587 540.831605349119,-655.720243132872 " style="fill: rgb(67,184,206); fill-opacity: 1; stroke: rgb(0,0,0); stroke-width: 3" />
	<polygon points="228.432170328248,-572.265160696382 269.202089141466,-584.011906180426 279.137959722619,-625.260552040607 202.662150081384,-647.677067446681 " style="fill: rgb(67,184,206); fill-opacity: 1; stroke: rgb(0,0,0); stroke-width: 3" />
	<circle cx="302.363569680774" cy="-350.588533723309" r="2" style="fill: rgb(0,0,0)" />
	<circle cx="378.908617402031" cy="-350.588533723309" r="2" style="fill: rgb(0,0,0)" />
	<circle cx="339.064084696473" cy="-415.945687456665" r="2" style="fill: rgb(0,0,0)" />
	<circle cx="271.460237334396" cy="-410.924865109072" r="2" style="fill: rgb(0,0,0)" />
	<circle cx="271.460237334387" cy="-290.252202337561" r="2" style="fill: rgb(0,0,0)" />
	<circle cx="339.064084696468" cy="-285.231379989957" r="2" style="fill: rgb(0,0,0)" />
	<circle cx="413.972554750076" cy="-418.630172653469" r="2" style="fill: rgb(0,0,0)" />
	<circle cx="374.495273655635" cy="-473.73945601473" r="2" style="fill: rgb(0,0,0)" />
	<circle cx="231.921587634393" cy="-359.496318561526" r="2" style="fill: rgb(0,0,0)" />
	<circle cx="257.413474447026" cy="-299.844294900762" r="2" style="fill: rgb(0,0,0)" />
	<circle cx="358.993309689661" cy="-480.740091739545" r="2" style="fill: rgb(0,0,0)" />
	<circle cx="294.790608861381" cy="-471.45497319179" r="2" style="fill: rgb(0,0,0)" />
	<circle cx="374.495273655609" cy="-227.437611431886" r="2" style="fill: rgb(0,0,0)" />
	<circle cx="413.972554750064" cy="-282.546894793144" r="2" style="fill: rgb(0,0,0)" />
	<circle cx="294.790608861354" cy="-229.722094254835" r="2" style="fill: rgb(0,0,0)" />
	<circle cx="358.993309689628" cy="-220.436975707065" r="2" style="fill: rgb(0,0,0)" />
	<circle cx="455.257306549882" cy="-356.067766886332" r="2" style="fill: rgb(0,0,0)" />
	<circle cx="481.76237967324" cy="-418.461435907526" r="2" style="fill: rgb(0,0,0)" />
	<circle cx="479.670449630586" cy="-435.341708892605" r="2" style="fill: rgb(0,0,0)" />
	<circle cx="438.322568513298" cy="-485.327236270058" r="2" style="fill: rgb(0,0,0)" />
	<circle cx="135.086970982757" cy="-422.320617389247" r="2" style="fill: rgb(0,0,0)" />
	<circle cx="114.05924555697" cy="-385.469469877649" r="2" style="fill: rgb(0,0,0)" />
	<circle cx="111.303883786726" cy="-363.680310409118" r="2" style="fill: rgb(0,0,0)" />
	<circle cx="122.496306269849" cy="-322.754743968775" r="2" style="fill: rgb(0,0,0)" />
	<circle cx="211.262002145446" cy="-558.570460502368" r="2" style="fill: rgb(0,0,0)" />
	<circle cx="190.742761953238" cy="-521.433779290413" r="2" style="fill: rgb(0,0,0)" />
	<circle cx="269.202089141466" cy="-584.011906180426" r="2" style="fill: rgb(0,0,0)" />
	<circle cx="228.432170328248" cy="-572.265160696382" r="2" style="fill: rgb(0,0,0)" />
	<circle cx="438.322568513269" cy="-215.849831176535" r="2" style="fill: rgb(0,0,0)" />
	<circle cx="479.670449630568" cy="-265.835358553978" r="2" style="fill: rgb(0,0,0)" />
	<circle cx="190.742761953195" cy="-179.743288156246" r="2" style="fill: rgb(0,0,0)" />
	<circle cx="211.262002145387" cy="-142.60660694428" r="2" style="fill: rgb(0,0,0)" />
	<circle cx="228.432170328201" cy="-128.911906750264" r="2" style="fill: rgb(0,0,0)" />
	<circle cx="269.20208914141" cy="-117.165161266204" r="2" style="fill: rgb(0,0,0)" />
	<circle cx="469.225442898911" cy="-601.994063706021" r="2" style="fill: rgb(0,0,0)" />
	<circle cx="426.835668293716" cy="-600.183174856664" r="2" style="fill: rgb(0,0,0)" />
	<circle cx="521.108305159541" cy="-565.765767542108" r="2" style="fill: rgb(0,0,0)" />
	<circle cx="489.856221775455" cy="-594.462101692265" r="2" style="fill: rgb(0,0,0)" />
	<circle cx="113.441852340408" cy="-458.812550038294" r="2" style="fill: rgb(0,0,0)" />
	<circle cx="42.998886328915" cy="-421.545430982232" r="2" style="fill: rgb(0,0,0)" />
	<circle cx="33.5" cy="-346.429070136632" r="2" style="fill: rgb(0,0,0)" />
	<circle cx="92.4485887894914" cy="-292.799661199329" r="2" style="fill: rgb(0,0,0)" />
	<circle cx="279.137959722619" cy="-625.260552040607" r="2" style="fill: rgb(0,0,0)" />
	<circle cx="202.662150081384" cy="-647.677067446681" r="2" style="fill: rgb(0,0,0)" />
	<circle cx="426.835668293642" cy="-100.993892589934" r="2" style="fill: rgb(0,0,0)" />
	<circle cx="469.225442898838" cy="-99.1830037405553" r="2" style="fill: rgb(0,0,0)" />
	<circle cx="489.856221775399" cy="-106.714965754322" r="2" style="fill: rgb(0,0,0)" />
	<circle cx="521.108305159494" cy="-135.411299904466" r="2" style="fill: rgb(0,0,0)" />
	<circle cx="202.662150081275" cy="-53.5" r="2" style="fill: rgb(0,0,0)" />
	<circle cx="279.137959722538" cy="-75.9165154060243" r="2" style="fill: rgb(0,0,0)" />
	<circle cx="561.5" cy="-578.753580961587" r="2" style="fill: rgb(0,0,0)" />
	<circle cx="540.831605349119" cy="-655.720243132872" r="2" style="fill: rgb(0,0,0)" />
	<!--
	Generated using the Perl SVG Module V2.87
	by Ronan Oger

	-->
</svg>