<?xml version="1.0" encoding="UTF-8" standalone="yes"?>
<!DOCTYPE svg PUBLIC "-//W3C//DTD SVG 1.0//EN" "http://www.w3.org/TR/2001/REC-SVG-20010904/DTD/svg10.dtd">
<!-- generated using polymake; Michael Joswig, Georg Loho, Benjamin Lorenz, Rico Raber; license CC BY-NC-ND 3.0; see polymake.org and matchthenet.de -->
<svg height="841pt" id="document" viewBox="0 -659.016127909939 572 659.016127909939" width="595pt" xmlns="http://www.w3.org/2000/svg" xmlns:svg="http://www.w3.org/2000/svg" xmlns:xlink="http://www.w3.org/1999/xlink">
	<title id="document_title">planar_net_</title>
	<polygon points="285.167872788787,-338.008063954957 347.583258914718,-338.008063954957 323.182280168493,-395.456063584846 253.268262076778,-400.418047503787 " style="fill: rgb(67,184,206); fill-opacity: 1; stroke: rgb(0,0,0); stroke-width: 3" />
	<polygon points="285.167872788787,-338.008063954957 253.268262076764,-275.598080406142 323.182280168477,-280.560064325064 347.583258914718,-338.008063954957 " style="fill: rgb(67,184,206); fill-opacity: 1; stroke: rgb(0,0,0); stroke-width: 3" />
	<polygon points="323.182280168493,-395.456063584846 347.583258914718,-338.008063954957 390.919767195616,-382.926072317629 368.154316120566,-449.215780775959 " style="fill: rgb(67,184,206); fill-opacity: 1; stroke: rgb(0,0,0); stroke-width: 3" />
	<polygon points="285.167872788787,-338.008063954957 253.268262076778,-400.418047503787 207.984113948376,-342.296782941389 246.550354876148,-279.516367788658 " style="fill: rgb(67,184,206); fill-opacity: 1; stroke: rgb(0,0,0); stroke-width: 3" />
	<polygon points="390.919767195605,-293.090055592262 347.583258914718,-338.008063954957 323.182280168477,-280.560064325064 368.154316120521,-226.800347133934 " style="fill: rgb(67,184,206); fill-opacity: 1; stroke: rgb(0,0,0); stroke-width: 3" />
	<polygon points="253.268262076778,-400.418047503787 323.182280168493,-395.456063584846 361.921537521124,-453.867202504647 289.060283687307,-464.82042832219 " style="fill: rgb(67,184,206); fill-opacity: 1; stroke: rgb(0,0,0); stroke-width: 3" />
	<polygon points="390.919767195616,-382.926072317629 347.583258914718,-338.008063954957 405.868614034557,-315.680999575517 457.982556782362,-362.550266493396 " style="fill: rgb(67,184,206); fill-opacity: 1; stroke: rgb(0,0,0); stroke-width: 3" />
	<polygon points="207.984113948376,-342.296782941389 253.268262076778,-400.418047503787 201.826715133762,-417.336573891397 185.525122574433,-345.152419883687 " style="fill: rgb(67,184,206); fill-opacity: 1; stroke: rgb(0,0,0); stroke-width: 3" />
	<polygon points="323.182280168477,-280.560064325064 253.268262076764,-275.598080406142 289.060283687275,-211.195699587725 361.921537521088,-222.148925405234 " style="fill: rgb(67,184,206); fill-opacity: 1; stroke: rgb(0,0,0); stroke-width: 3" />
	<polygon points="253.268262076778,-400.418047503787 289.060283687307,-464.82042832219 277.651686458666,-484.375603216732 217.58540037361,-441.151359027536 " style="fill: rgb(67,184,206); fill-opacity: 1; stroke: rgb(0,0,0); stroke-width: 3" />
	<polygon points="246.550354876148,-279.516367788658 207.984113948376,-342.296782941389 185.347008421313,-341.946912625376 193.551108842935,-268.401098699285 " style="fill: rgb(67,184,206); fill-opacity: 1; stroke: rgb(0,0,0); stroke-width: 3" />
	<polygon points="368.154316120566,-449.215780775959 390.919767195616,-382.926072317629 459.827117599161,-370.105453358122 441.423882999402,-441.450084707036 " style="fill: rgb(67,184,206); fill-opacity: 1; stroke: rgb(0,0,0); stroke-width: 3" />
	<polygon points="253.268262076764,-275.598080406142 217.585400373576,-234.864768882403 277.651686458624,-191.6405246932 289.060283687275,-211.195699587725 " style="fill: rgb(67,184,206); fill-opacity: 1; stroke: rgb(0,0,0); stroke-width: 3" />
	<polygon points="289.060283687307,-464.82042832219 361.921537521124,-453.867202504647 351.432401073797,-506.993912393442 280.532447618455,-485.792718799479 " style="fill: rgb(67,184,206); fill-opacity: 1; stroke: rgb(0,0,0); stroke-width: 3" />
	<polygon points="459.82711759917,-305.910674551729 390.919767195605,-293.090055592262 368.154316120521,-226.800347133934 441.423882999366,-234.566043202819 " style="fill: rgb(67,184,206); fill-opacity: 1; stroke: rgb(0,0,0); stroke-width: 3" />
	<polygon points="368.154316120566,-449.215780775959 441.423882999402,-441.450084707036 454.962607888467,-459.595714601305 391.69579533776,-497.983270390294 " style="fill: rgb(67,184,206); fill-opacity: 1; stroke: rgb(0,0,0); stroke-width: 3" />
	<polygon points="289.060283687275,-211.195699587725 280.53244761841,-190.223409110429 351.432401073725,-169.022215516452 361.921537521088,-222.148925405234 " style="fill: rgb(67,184,206); fill-opacity: 1; stroke: rgb(0,0,0); stroke-width: 3" />
	<polygon points="441.423882999366,-234.566043202819 368.154316120521,-226.800347133934 391.69579533769,-178.032857519576 454.962607888404,-216.42041330855 " style="fill: rgb(67,184,206); fill-opacity: 1; stroke: rgb(0,0,0); stroke-width: 3" />
	<polygon points="441.423882999402,-441.450084707036 459.827117599161,-370.105453358122 504.625014208655,-400.529420002595 457.393159980219,-457.498235646965 " style="fill: rgb(67,184,206); fill-opacity: 1; stroke: rgb(0,0,0); stroke-width: 3" />
	<polygon points="459.82711759917,-305.910674551729 441.423882999366,-234.566043202819 457.393159980185,-218.517892262867 504.625014208631,-275.486707907227 " style="fill: rgb(67,184,206); fill-opacity: 1; stroke: rgb(0,0,0); stroke-width: 3" />
	<polygon points="185.525122574433,-345.152419883687 201.826715133762,-417.336573891397 148.106935307658,-424.166986942861 164.018607417526,-352.225662540845 " style="fill: rgb(67,184,206); fill-opacity: 1; stroke: rgb(0,0,0); stroke-width: 3" />
	<polygon points="217.58540037361,-441.151359027536 277.651686458666,-484.375603216732 262.733511332416,-501.405254028885 190.297116539179,-487.925484913435 " style="fill: rgb(67,184,206); fill-opacity: 1; stroke: rgb(0,0,0); stroke-width: 3" />
	<polygon points="193.551108842935,-268.401098699285 185.347008421313,-341.946912625376 163.189255479306,-337.299876963548 139.405296835345,-267.564242046598 " style="fill: rgb(67,184,206); fill-opacity: 1; stroke: rgb(0,0,0); stroke-width: 3" />
	<polygon points="217.585400373576,-234.864768882403 190.297116539133,-188.090642996506 262.733511332369,-174.610873881052 277.651686458624,-191.6405246932 " style="fill: rgb(67,184,206); fill-opacity: 1; stroke: rgb(0,0,0); stroke-width: 3" />
	<polygon points="280.532447618455,-485.792718799479 351.432401073797,-506.993912393442 331.034625039048,-557.157644509933 276.147183461499,-508.003761416946 " style="fill: rgb(67,184,206); fill-opacity: 1; stroke: rgb(0,0,0); stroke-width: 3" />
	<polygon points="391.69579533776,-497.983270390294 454.962607888467,-459.595714601305 464.804753191007,-479.984268540342 424.079142748898,-541.385898161755 " style="fill: rgb(67,184,206); fill-opacity: 1; stroke: rgb(0,0,0); stroke-width: 3" />
	<polygon points="280.53244761841,-190.223409110429 276.147183461446,-168.012366492961 331.034625038962,-118.858483399972 351.432401073725,-169.022215516452 " style="fill: rgb(67,184,206); fill-opacity: 1; stroke: rgb(0,0,0); stroke-width: 3" />
	<polygon points="454.962607888404,-216.42041330855 391.69579533769,-178.032857519576 424.079142748817,-134.630229748101 464.804753190934,-196.031859369511 " style="fill: rgb(67,184,206); fill-opacity: 1; stroke: rgb(0,0,0); stroke-width: 3" />
	<polygon points="457.393159980219,-457.498235646965 504.625014208655,-400.529420002595 542.82201197708,-438.915076809506 476.122119346401,-470.217788978003 " style="fill: rgb(67,184,206); fill-opacity: 1; stroke: rgb(0,0,0); stroke-width: 3" />
	<polygon points="504.625014208631,-275.486707907227 457.393159980185,-218.517892262867 476.122119346366,-205.798338931822 542.822011977041,-237.101051100309 " style="fill: rgb(67,184,206); fill-opacity: 1; stroke: rgb(0,0,0); stroke-width: 3" />
	<polygon points="164.018607417526,-352.225662540845 148.106935307658,-424.166986942861 92.4825925156261,-381.522834951095 102.215449734561,-312.112009422957 " style="fill: rgb(67,184,206); fill-opacity: 1; stroke: rgb(0,0,0); stroke-width: 3" />
	<polygon points="262.733511332369,-174.610873881052 190.297116539133,-188.090642996506 207.801339286314,-120.221700201147 275.493050956016,-102.044148623258 " style="fill: rgb(67,184,206); fill-opacity: 1; stroke: rgb(0,0,0); stroke-width: 3" />
	<polygon points="464.804753190934,-196.031859369511 424.079142748817,-134.630229748101 493.38985980636,-124.208343589052 536.584465518284,-179.406325866783 " style="fill: rgb(67,184,206); fill-opacity: 1; stroke: rgb(0,0,0); stroke-width: 3" />
	<polygon points="464.804753191007,-479.984268540342 536.584465518369,-496.609802043051 493.389859806439,-551.807784320779 424.079142748898,-541.385898161755 " style="fill: rgb(67,184,206); fill-opacity: 1; stroke: rgb(0,0,0); stroke-width: 3" />
	<polygon points="262.733511332416,-501.405254028885 275.493050956082,-573.971979286681 207.801339286376,-555.794427708787 190.297116539179,-487.925484913435 " style="fill: rgb(67,184,206); fill-opacity: 1; stroke: rgb(0,0,0); stroke-width: 3" />
	<polygon points="102.215449734561,-312.112009422957 92.4825925156261,-381.522834951095 33.5,-401.936903761245 37.7695493124625,-339.667718975216 " style="fill: rgb(67,184,206); fill-opacity: 1; stroke: rgb(0,0,0); stroke-width: 3" />
	<polygon points="207.801339286314,-120.221700201147 165.9529976202,-73.914068810131 224.935590135812,-53.5 275.493050956016,-102.044148623258 " style="fill: rgb(67,184,206); fill-opacity: 1; stroke: rgb(0,0,0); stroke-width: 3" />
	<polygon points="493.389859806439,-551.807784320779 536.584465518369,-496.609802043051 561.5,-562.121689144835 519.6516583339,-608.42932053584 " style="fill: rgb(67,184,206); fill-opacity: 1; stroke: rgb(0,0,0); stroke-width: 3" />
	<polygon points="207.801339286376,-555.794427708787 275.493050956082,-573.971979286681 224.935590135889,-622.516127909939 165.95299762027,-602.102059099814 " style="fill: rgb(67,184,206); fill-opacity: 1; stroke: rgb(0,0,0); stroke-width: 3" />
	<polygon points="148.106935307658,-424.166986942861 82.8457850841141,-449.732070194092 36.1247279600011,-408.345801378772 92.4825925156261,-381.522834951095 " style="fill: rgb(67,184,206); fill-opacity: 1; stroke: rgb(0,0,0); stroke-width: 3" />
	<circle cx="285.167872788787" cy="-338.008063954957" r="2" style="fill: rgb(0,0,0)" />
	<circle cx="347.583258914718" cy="-338.008063954957" r="2" style="fill: rgb(0,0,0)" />
	<circle cx="323.182280168493" cy="-395.456063584846" r="2" style="fill: rgb(0,0,0)" />
	<circle cx="253.268262076778" cy="-400.418047503787" r="2" style="fill: rgb(0,0,0)" />
	<circle cx="253.268262076764" cy="-275.598080406142" r="2" style="fill: rgb(0,0,0)" />
	<circle cx="323.182280168477" cy="-280.560064325064" r="2" style="fill: rgb(0,0,0)" />
	<circle cx="390.919767195616" cy="-382.926072317629" r="2" style="fill: rgb(0,0,0)" />
	<circle cx="368.154316120566" cy="-449.215780775959" r="2" style="fill: rgb(0,0,0)" />
	<circle cx="207.984113948376" cy="-342.296782941389" r="2" style="fill: rgb(0,0,0)" />
	<circle cx="246.550354876148" cy="-279.516367788658" r="2" style="fill: rgb(0,0,0)" />
	<circle cx="361.921537521124" cy="-453.867202504647" r="2" style="fill: rgb(0,0,0)" />
	<circle cx="289.060283687307" cy="-464.82042832219" r="2" style="fill: rgb(0,0,0)" />
	<circle cx="368.154316120521" cy="-226.800347133934" r="2" style="fill: rgb(0,0,0)" />
	<circle cx="390.919767195605" cy="-293.090055592262" r="2" style="fill: rgb(0,0,0)" />
	<circle cx="289.060283687275" cy="-211.195699587725" r="2" style="fill: rgb(0,0,0)" />
	<circle cx="361.921537521088" cy="-222.148925405234" r="2" style="fill: rgb(0,0,0)" />
	<circle cx="405.868614034557" cy="-315.680999575517" r="2" style="fill: rgb(0,0,0)" />
	<circle cx="457.982556782362" cy="-362.550266493396" r="2" style="fill: rgb(0,0,0)" />
	<circle cx="459.827117599161" cy="-370.105453358122" r="2" style="fill: rgb(0,0,0)" />
	<circle cx="441.423882999402" cy="-441.450084707036" r="2" style="fill: rgb(0,0,0)" />
	<circle cx="201.826715133762" cy="-417.336573891397" r="2" style="fill: rgb(0,0,0)" />
	<circle cx="185.525122574433" cy="-345.152419883687" r="2" style="fill: rgb(0,0,0)" />
	<circle cx="185.347008421313" cy="-341.946912625376" r="2" style="fill: rgb(0,0,0)" />
	<circle cx="193.551108842935" cy="-268.401098699285" r="2" style="fill: rgb(0,0,0)" />
	<circle cx="277.651686458666" cy="-484.375603216732" r="2" style="fill: rgb(0,0,0)" />
	<circle cx="217.58540037361" cy="-441.151359027536" r="2" style="fill: rgb(0,0,0)" />
	<circle cx="351.432401073797" cy="-506.993912393442" r="2" style="fill: rgb(0,0,0)" />
	<circle cx="280.532447618455" cy="-485.792718799479" r="2" style="fill: rgb(0,0,0)" />
	<circle cx="441.423882999366" cy="-234.566043202819" r="2" style="fill: rgb(0,0,0)" />
	<circle cx="459.82711759917" cy="-305.910674551729" r="2" style="fill: rgb(0,0,0)" />
	<circle cx="217.585400373576" cy="-234.864768882403" r="2" style="fill: rgb(0,0,0)" />
	<circle cx="277.651686458624" cy="-191.6405246932" r="2" style="fill: rgb(0,0,0)" />
	<circle cx="280.53244761841" cy="-190.223409110429" r="2" style="fill: rgb(0,0,0)" />
	<circle cx="351.432401073725" cy="-169.022215516452" r="2" style="fill: rgb(0,0,0)" />
	<circle cx="454.962607888467" cy="-459.595714601305" r="2" style="fill: rgb(0,0,0)" />
	<circle cx="391.69579533776" cy="-497.983270390294" r="2" style="fill: rgb(0,0,0)" />
	<circle cx="504.625014208655" cy="-400.529420002595" r="2" style="fill: rgb(0,0,0)" />
	<circle cx="457.393159980219" cy="-457.498235646965" r="2" style="fill: rgb(0,0,0)" />
	<circle cx="148.106935307658" cy="-424.166986942861" r="2" style="fill: rgb(0,0,0)" />
	<circle cx="164.018607417526" cy="-352.225662540845" r="2" style="fill: rgb(0,0,0)" />
	<circle cx="163.189255479306" cy="-337.299876963548" r="2" style="fill: rgb(0,0,0)" />
	<circle cx="139.405296835345" cy="-267.564242046598" r="2" style="fill: rgb(0,0,0)" />
	<circle cx="262.733511332416" cy="-501.405254028885" r="2" style="fill: rgb(0,0,0)" />
	<circle cx="190.297116539179" cy="-487.925484913435" r="2" style="fill: rgb(0,0,0)" />
	<circle cx="331.034625039048" cy="-557.157644509933" r="2" style="fill: rgb(0,0,0)" />
	<circle cx="276.147183461499" cy="-508.003761416946" r="2" style="fill: rgb(0,0,0)" />
	<circle cx="391.69579533769" cy="-178.032857519576" r="2" style="fill: rgb(0,0,0)" />
	<circle cx="454.962607888404" cy="-216.42041330855" r="2" style="fill: rgb(0,0,0)" />
	<circle cx="457.393159980185" cy="-218.517892262867" r="2" style="fill: rgb(0,0,0)" />
	<circle cx="504.625014208631" cy="-275.486707907227" r="2" style="fill: rgb(0,0,0)" />
	<circle cx="190.297116539133" cy="-188.090642996506" r="2" style="fill: rgb(0,0,0)" />
	<circle cx="262.733511332369" cy="-174.610873881052" r="2" style="fill: rgb(0,0,0)" />
	<circle cx="276.147183461446" cy="-168.012366492961" r="2" style="fill: rgb(0,0,0)" />
	<circle cx="331.034625038962" cy="-118.858483399972" r="2" style="fill: rgb(0,0,0)" />
	<circle cx="464.804753191007" cy="-479.984268540342" r="2" style="fill: rgb(0,0,0)" />
	<circle cx="424.079142748898" cy="-541.385898161755" r="2" style="fill: rgb(0,0,0)" />
	<circle cx="542.82201197708" cy="-438.915076809506" r="2" style="fill: rgb(0,0,0)" />
	<circle cx="476.122119346401" cy="-470.217788978003" r="2" style="fill: rgb(0,0,0)" />
	<circle cx="92.4825925156261" cy="-381.522834951095" r="2" style="fill: rgb(0,0,0)" />
	<circle cx="102.215449734561" cy="-312.112009422957" r="2" style="fill: rgb(0,0,0)" />
	<circle cx="275.493050956082" cy="-573.971979286681" r="2" style="fill: rgb(0,0,0)" />
	<circle cx="207.801339286376" cy="-555.794427708787" r="2" style="fill: rgb(0,0,0)" />
	<circle cx="424.079142748817" cy="-134.630229748101" r="2" style="fill: rgb(0,0,0)" />
	<circle cx="464.804753190934" cy="-196.031859369511" r="2" style="fill: rgb(0,0,0)" />
	<circle cx="476.122119346366" cy="-205.798338931822" r="2" style="fill: rgb(0,0,0)" />
	<circle cx="542.822011977041" cy="-237.101051100309" r="2" style="fill: rgb(0,0,0)" />
	<circle cx="207.801339286314" cy="-120.221700201147" r="2" style="fill: rgb(0,0,0)" />
	<circle cx="275.493050956016" cy="-102.044148623258" r="2" style="fill: rgb(0,0,0)" />
	<circle cx="536.584465518369" cy="-496.609802043051" r="2" style="fill: rgb(0,0,0)" />
	<circle cx="493.389859806439" cy="-551.807784320779" r="2" style="fill: rgb(0,0,0)" />
	<circle cx="33.5" cy="-401.936903761245" r="2" style="fill: rgb(0,0,0)" />
	<circle cx="37.7695493124625" cy="-339.667718975216" r="2" style="fill: rgb(0,0,0)" />
	<circle cx="82.8457850841141" cy="-449.732070194092" r="2" style="fill: rgb(0,0,0)" />
	<circle cx="36.1247279600011" cy="-408.345801378772" r="2" style="fill: rgb(0,0,0)" />
	<circle cx="224.935590135889" cy="-622.516127909939" r="2" style="fill: rgb(0,0,0)" />
	<circle cx="165.95299762027" cy="-602.102059099814" r="2" style="fill: rgb(0,0,0)" />
	<circle cx="493.38985980636" cy="-124.208343589052" r="2" style="fill: rgb(0,0,0)" />
	<circle cx="536.584465518284" cy="-179.406325866783" r="2" style="fill: rgb(0,0,0)" />
	<circle cx="165.9529976202" cy="-73.914068810131" r="2" style="fill: rgb(0,0,0)" />
	<circle cx="224.935590135812" cy="-53.5" r="2" style="fill: rgb(0,0,0)" />
	<circle cx="561.5" cy="-562.121689144835" r="2" style="fill: rgb(0,0,0)" />
	<circle cx="519.6516583339" cy="-608.42932053584" r="2" style="fill: rgb(0,0,0)" />
	<!--
	Generated using the Perl SVG Module V2.87
	by Ronan Oger

	-->
</svg>