<?xml version="1.0" encoding="UTF-8" standalone="yes"?>
<!DOCTYPE svg PUBLIC "-//W3C//DTD SVG 1.0//EN" "http://www.w3.org/TR/2001/REC-SVG-20010904/DTD/svg10.dtd">
<!-- generated using polymake; Michael Joswig, Georg Loho, Benjamin Lorenz, Rico Raber; license CC BY-NC-SA 3.0; see polymake.org and matchthenet.de -->
<svg height="841pt" id="document" viewBox="0 -608.900213948204 572 608.900213948204" width="595pt" xmlns="http://www.w3.org/2000/svg" xmlns:svg="http://www.w3.org/2000/svg" xmlns:xlink="http://www.w3.org/1999/xlink">
	<title id="document_title">planar_net_</title>
	<polygon points="241.488086295826,-297.678054558389 301.424577960412,-297.678054558389 298.801193075291,-347.306883319311 260.081809119091,-343.201992404479 " style="fill: rgb(67,184,206); fill-opacity: 1; stroke: rgb(0,0,0); stroke-width: 3" />
	<polygon points="299.369267041716,-258.795969732613 301.424577960412,-297.678054558389 241.488086295826,-297.678054558389 264.150990519095,-242.19133718183 " style="fill: rgb(67,184,206); fill-opacity: 1; stroke: rgb(0,0,0); stroke-width: 3" />
	<polygon points="298.801193075291,-347.306883319311 301.424577960412,-297.678054558389 361.027055004821,-303.996896479988 337.737561978559,-347.306883319302 " style="fill: rgb(67,184,206); fill-opacity: 1; stroke: rgb(0,0,0); stroke-width: 3" />
	<polygon points="241.488086295826,-297.678054558389 260.081809119091,-343.201992404479 235.307717280331,-373.240054874214 198.689976060288,-339.638807570313 " style="fill: rgb(67,184,206); fill-opacity: 1; stroke: rgb(0,0,0); stroke-width: 3" />
	<polygon points="361.027055004819,-291.359212636772 301.424577960412,-297.678054558389 299.369267041716,-258.795969732613 332.640725119176,-238.570962915046 " style="fill: rgb(67,184,206); fill-opacity: 1; stroke: rgb(0,0,0); stroke-width: 3" />
	<polygon points="241.488086295826,-297.678054558389 198.689976060277,-255.717301546497 227.378425008043,-229.392147789265 264.150990519095,-242.19133718183 " style="fill: rgb(67,184,206); fill-opacity: 1; stroke: rgb(0,0,0); stroke-width: 3" />
	<polygon points="337.737561978559,-347.306883319302 361.027055004821,-303.996896479988 399.162921055441,-350.235827627112 359.206811112135,-379.789373448787 " style="fill: rgb(67,184,206); fill-opacity: 1; stroke: rgb(0,0,0); stroke-width: 3" />
	<polygon points="330.67318645533,-235.64201860722 299.369267041716,-258.795969732613 264.150990519095,-242.19133718183 292.537320404725,-189.403087460104 " style="fill: rgb(67,184,206); fill-opacity: 1; stroke: rgb(0,0,0); stroke-width: 3" />
	<polygon points="241.488086295826,-297.678054558389 198.689976060288,-339.638807570313 172.936748071335,-310.43586128882 186.459941923579,-273.923342183643 " style="fill: rgb(67,184,206); fill-opacity: 1; stroke: rgb(0,0,0); stroke-width: 3" />
	<polygon points="361.027055004819,-291.359212636772 332.640725119176,-238.570962915046 367.859001641799,-221.966330364251 399.162921055419,-245.120281489628 " style="fill: rgb(67,184,206); fill-opacity: 1; stroke: rgb(0,0,0); stroke-width: 3" />
	<polygon points="280.837877006746,-184.624585906396 264.150990519095,-242.19133718183 227.378425008043,-229.392147789265 221.235399962335,-190.943427828016 " style="fill: rgb(67,184,206); fill-opacity: 1; stroke: rgb(0,0,0); stroke-width: 3" />
	<polygon points="198.689976060288,-339.638807570313 235.307717280331,-373.240054874214 207.504905300304,-400.498896914445 160.554110009699,-385.877738717468 " style="fill: rgb(67,184,206); fill-opacity: 1; stroke: rgb(0,0,0); stroke-width: 3" />
	<polygon points="399.162921055441,-350.235827627112 361.027055004821,-303.996896479988 418.252893369293,-286.175940934828 427.851370003209,-323.910673869867 " style="fill: rgb(67,184,206); fill-opacity: 1; stroke: rgb(0,0,0); stroke-width: 3" />
	<polygon points="330.67318645533,-235.64201860722 292.537320404725,-189.403087460104 349.763158769198,-171.58213191495 359.361635403104,-209.316864849981 " style="fill: rgb(67,184,206); fill-opacity: 1; stroke: rgb(0,0,0); stroke-width: 3" />
	<polygon points="198.689976060288,-339.638807570313 151.706633027641,-376.853703922926 135.019746539948,-319.286952647514 172.936748071335,-310.43586128882 " style="fill: rgb(67,184,206); fill-opacity: 1; stroke: rgb(0,0,0); stroke-width: 3" />
	<polygon points="198.689976060277,-255.717301546497 160.554110009662,-209.478370399372 217.779948374123,-191.65741485422 227.378425008043,-229.392147789265 " style="fill: rgb(67,184,206); fill-opacity: 1; stroke: rgb(0,0,0); stroke-width: 3" />
	<polygon points="359.206811112135,-379.789373448787 399.162921055441,-350.235827627112 432.211495126034,-400.237575446167 383.980902950918,-409.827435918508 " style="fill: rgb(67,184,206); fill-opacity: 1; stroke: rgb(0,0,0); stroke-width: 3" />
	<polygon points="280.837877006746,-184.624585906396 221.235399962335,-190.943427828016 218.612015077194,-141.31459906709 257.548383980453,-141.314599067083 " style="fill: rgb(67,184,206); fill-opacity: 1; stroke: rgb(0,0,0); stroke-width: 3" />
	<polygon points="207.504905300304,-400.498896914445 214.915189788242,-438.723607602415 165.694173461591,-445.593421588651 160.554110009699,-385.877738717468 " style="fill: rgb(67,184,206); fill-opacity: 1; stroke: rgb(0,0,0); stroke-width: 3" />
	<polygon points="186.459941923579,-273.923342183643 172.936748071335,-310.43586128882 134.374167010961,-315.818069509694 129.234103559093,-256.102386638521 " style="fill: rgb(67,184,206); fill-opacity: 1; stroke: rgb(0,0,0); stroke-width: 3" />
	<polygon points="399.162921055441,-350.235827627112 427.851370003209,-323.910673869867 464.623935514257,-336.709863262423 441.961031291003,-392.196580638994 " style="fill: rgb(67,184,206); fill-opacity: 1; stroke: rgb(0,0,0); stroke-width: 3" />
	<polygon points="399.162921055419,-245.120281489628 367.859001641799,-221.966330364251 373.425780103405,-183.429960517959 432.211495125977,-195.118533670554 " style="fill: rgb(67,184,206); fill-opacity: 1; stroke: rgb(0,0,0); stroke-width: 3" />
	<polygon points="349.763158769198,-171.58213191495 292.537320404725,-189.403087460104 296.754472547967,-140.40950550039 332.502246063451,-124.977800732097 " style="fill: rgb(67,184,206); fill-opacity: 1; stroke: rgb(0,0,0); stroke-width: 3" />
	<polygon points="135.019746539948,-319.286952647514 151.706633027641,-376.853703922926 92.1041559832309,-370.534862001356 98.2471810289069,-332.08614204011 " style="fill: rgb(67,184,206); fill-opacity: 1; stroke: rgb(0,0,0); stroke-width: 3" />
	<polygon points="217.779948374123,-191.65741485422 160.554110009662,-209.478370399372 164.771262152899,-160.484788439659 200.519035668381,-145.053083671366 " style="fill: rgb(67,184,206); fill-opacity: 1; stroke: rgb(0,0,0); stroke-width: 3" />
	<polygon points="383.980902950918,-409.827435918508 432.211495126034,-400.237575446167 420.804513248885,-459.07857983523 372.582050658354,-447.057893742499 " style="fill: rgb(67,184,206); fill-opacity: 1; stroke: rgb(0,0,0); stroke-width: 3" />
	<polygon points="427.851370003209,-323.910673869867 418.252893369293,-286.175940934828 477.038608391864,-274.487367782203 465.631626514715,-333.328372171253 " style="fill: rgb(67,184,206); fill-opacity: 1; stroke: rgb(0,0,0); stroke-width: 3" />
	<polygon points="214.915189788242,-438.723607602415 218.254314271357,-477.516533130884 177.101155338818,-504.434425977703 165.694173461591,-445.593421588651 " style="fill: rgb(67,184,206); fill-opacity: 1; stroke: rgb(0,0,0); stroke-width: 3" />
	<polygon points="160.554110009699,-385.877738717468 165.694173461591,-445.593421588651 126.779071649935,-446.880151692173 107.215344861427,-413.215609254826 " style="fill: rgb(67,184,206); fill-opacity: 1; stroke: rgb(0,0,0); stroke-width: 3" />
	<polygon points="129.234103559093,-256.102386638521 134.374167010961,-315.818069509694 95.4590651993043,-317.104799613199 75.8953384108104,-283.440257175853 " style="fill: rgb(67,184,206); fill-opacity: 1; stroke: rgb(0,0,0); stroke-width: 3" />
	<polygon points="441.961031291003,-392.196580638994 464.623935514257,-336.709863262423 499.842212036891,-353.314495813197 501.897522955595,-392.196580638965 " style="fill: rgb(67,184,206); fill-opacity: 1; stroke: rgb(0,0,0); stroke-width: 3" />
	<polygon points="432.211495125977,-195.118533670554 373.425780103405,-183.429960517959 385.67721043087,-135.265603910938 422.852665507988,-146.84257947362 " style="fill: rgb(67,184,206); fill-opacity: 1; stroke: rgb(0,0,0); stroke-width: 3" />
	<polygon points="265.931530818096,-472.172688747662 304.120324035583,-464.579474937783 311.225722222431,-513.767035448982 251.53533366528,-519.192949837748 " style="fill: rgb(67,184,206); fill-opacity: 1; stroke: rgb(0,0,0); stroke-width: 3" />
	<polygon points="160.554110009662,-209.478370399372 107.215344861358,-182.140499862084 132.186352744825,-139.171306738179 164.771262152899,-160.484788439659 " style="fill: rgb(67,184,206); fill-opacity: 1; stroke: rgb(0,0,0); stroke-width: 3" />
	<polygon points="420.804513248885,-459.07857983523 432.211495126034,-400.237575446167 482.370901514957,-433.046369751506 459.367094309271,-464.46078805607 " style="fill: rgb(67,184,206); fill-opacity: 1; stroke: rgb(0,0,0); stroke-width: 3" />
	<polygon points="465.631626514715,-333.328372171253 477.038608391864,-274.487367782203 527.198014780787,-307.296162087543 504.194207575101,-338.710580392098 " style="fill: rgb(67,184,206); fill-opacity: 1; stroke: rgb(0,0,0); stroke-width: 3" />
	<polygon points="165.694173461591,-445.593421588651 177.101155338818,-504.434425977703 118.315440316232,-492.745852825154 127.913916950098,-455.011119890099 " style="fill: rgb(67,184,206); fill-opacity: 1; stroke: rgb(0,0,0); stroke-width: 3" />
	<polygon points="98.2471810289069,-332.08614204011 92.1041559832309,-370.534862001356 33.5,-357.967605556438 67.2933723586251,-308.466181155835 " style="fill: rgb(67,184,206); fill-opacity: 1; stroke: rgb(0,0,0); stroke-width: 3" />
	<polygon points="432.211495125977,-195.118533670554 422.852665507988,-146.84257947362 453.008998371637,-122.212589388596 482.370901514881,-162.309739365155 " style="fill: rgb(67,184,206); fill-opacity: 1; stroke: rgb(0,0,0); stroke-width: 3" />
	<polygon points="251.53533366528,-519.192949837748 311.225722222431,-513.767035448982 312.698757325539,-552.675530549101 279.128268973786,-572.400213948204 " style="fill: rgb(67,184,206); fill-opacity: 1; stroke: rgb(0,0,0); stroke-width: 3" />
	<polygon points="107.215344861427,-413.215609254826 126.779071649935,-446.880151692173 106.394997830999,-480.054394078623 57.0559384725397,-446.024403560224 " style="fill: rgb(67,184,206); fill-opacity: 1; stroke: rgb(0,0,0); stroke-width: 3" />
	<polygon points="499.842212036891,-353.314495813197 533.113670114347,-333.089488995623 561.5,-385.87773871733 501.897522955595,-392.196580638965 " style="fill: rgb(67,184,206); fill-opacity: 1; stroke: rgb(0,0,0); stroke-width: 3" />
	<polygon points="177.101155338818,-504.434425977703 144.052581268302,-554.436173796803 112.748661854663,-531.282222671458 118.315440316232,-492.745852825154 " style="fill: rgb(67,184,206); fill-opacity: 1; stroke: rgb(0,0,0); stroke-width: 3" />
	<polygon points="107.215344861358,-182.140499862084 57.0559384724249,-149.331705556748 97.536045745184,-121.411885345523 132.186352744825,-139.171306738179 " style="fill: rgb(67,184,206); fill-opacity: 1; stroke: rgb(0,0,0); stroke-width: 3" />
	<polygon points="459.367094309271,-464.46078805607 482.370901514957,-433.046369751506 528.791891561775,-470.96041353653 476.14015643617,-499.599160389721 " style="fill: rgb(67,184,206); fill-opacity: 1; stroke: rgb(0,0,0); stroke-width: 3" />
	<polygon points="57.0559384725397,-446.024403560224 106.394997830999,-480.054394078623 82.6271054200489,-510.894759084772 44.208238046177,-504.567717668789 " style="fill: rgb(67,184,206); fill-opacity: 1; stroke: rgb(0,0,0); stroke-width: 3" />
	<polygon points="482.370901514881,-162.309739365155 453.008998371637,-122.212589388596 485.593907779685,-100.899107687086 528.791891561661,-124.395695580081 " style="fill: rgb(67,184,206); fill-opacity: 1; stroke: rgb(0,0,0); stroke-width: 3" />
	<polygon points="57.0559384724249,-149.331705556748 44.208238045984,-90.7883914482003 93.2458192001167,-82.7125987944281 97.536045745184,-121.411885345523 " style="fill: rgb(67,184,206); fill-opacity: 1; stroke: rgb(0,0,0); stroke-width: 3" />
	<polygon points="476.14015643617,-499.599160389721 528.791891561775,-470.96041353653 535.396028896616,-530.531953747622 496.524230255151,-532.773402776152 " style="fill: rgb(67,184,206); fill-opacity: 1; stroke: rgb(0,0,0); stroke-width: 3" />
	<polygon points="485.593907779685,-100.899107687086 485.780329351244,-61.9631850658208 535.396028896425,-64.8241553689622 528.791891561661,-124.395695580081 " style="fill: rgb(67,184,206); fill-opacity: 1; stroke: rgb(0,0,0); stroke-width: 3" />
	<polygon points="298.801193075291,-347.306883319311 337.737561978559,-347.306883319302 356.178090970845,-381.599560582173 301.965024968613,-407.159813078941 " style="fill: rgb(67,184,206); fill-opacity: 1; stroke: rgb(0,0,0); stroke-width: 3" />
	<polygon points="260.081809119091,-343.201992404479 298.801193075291,-347.306883319311 289.344960257035,-406.49271518764 238.128718838046,-375.359458885584 " style="fill: rgb(67,184,206); fill-opacity: 1; stroke: rgb(0,0,0); stroke-width: 3" />
	<polygon points="301.965024968613,-407.159813078941 356.178090970845,-381.599560582173 370.900527582507,-417.645235545842 346.126435743745,-447.683298015578 " style="fill: rgb(67,184,206); fill-opacity: 1; stroke: rgb(0,0,0); stroke-width: 3" />
	<polygon points="238.128718838046,-375.359458885584 289.344960257035,-406.49271518764 241.157438979317,-442.134626277937 219.688189845764,-409.652136148465 " style="fill: rgb(67,184,206); fill-opacity: 1; stroke: rgb(0,0,0); stroke-width: 3" />
	<polygon points="241.157438979317,-442.134626277937 289.344960257035,-406.49271518764 304.120324035583,-464.579474937783 265.931530818096,-472.172688747662 " style="fill: rgb(67,184,206); fill-opacity: 1; stroke: rgb(0,0,0); stroke-width: 3" />
	<polygon points="164.771262152899,-160.484788439659 134.249609553247,-136.308983469463 173.892703610865,-91.3555839695879 200.519035668381,-145.053083671366 " style="fill: rgb(67,184,206); fill-opacity: 1; stroke: rgb(0,0,0); stroke-width: 3" />
	<polygon points="257.548383980453,-141.314599067083 218.612015077194,-141.31459906709 221.775846970514,-81.46166930747 275.988912972734,-107.021921804201 " style="fill: rgb(67,184,206); fill-opacity: 1; stroke: rgb(0,0,0); stroke-width: 3" />
	<polygon points="134.249609553247,-136.308983469463 106.446797573198,-109.050141429256 117.287051149684,-71.6532200884949 173.892703610865,-91.3555839695879 " style="fill: rgb(67,184,206); fill-opacity: 1; stroke: rgb(0,0,0); stroke-width: 3" />
	<polygon points="422.852665507988,-146.84257947362 385.67721043087,-135.265603910938 406.494066712919,-79.0602524967552 450.655477488015,-119.583737433389 " style="fill: rgb(67,184,206); fill-opacity: 1; stroke: rgb(0,0,0); stroke-width: 3" />
	<polygon points="450.655477488015,-119.583737433389 406.494066712919,-79.0602524967552 460.707132715142,-53.5 475.429569326783,-89.5456749636559 " style="fill: rgb(67,184,206); fill-opacity: 1; stroke: rgb(0,0,0); stroke-width: 3" />
	<circle cx="241.488086295826" cy="-297.678054558389" r="2" style="fill: rgb(0,0,0)" />
	<circle cx="301.424577960412" cy="-297.678054558389" r="2" style="fill: rgb(0,0,0)" />
	<circle cx="298.801193075291" cy="-347.306883319311" r="2" style="fill: rgb(0,0,0)" />
	<circle cx="260.081809119091" cy="-343.201992404479" r="2" style="fill: rgb(0,0,0)" />
	<circle cx="264.150990519095" cy="-242.19133718183" r="2" style="fill: rgb(0,0,0)" />
	<circle cx="299.369267041716" cy="-258.795969732613" r="2" style="fill: rgb(0,0,0)" />
	<circle cx="361.027055004821" cy="-303.996896479988" r="2" style="fill: rgb(0,0,0)" />
	<circle cx="337.737561978559" cy="-347.306883319302" r="2" style="fill: rgb(0,0,0)" />
	<circle cx="235.307717280331" cy="-373.240054874214" r="2" style="fill: rgb(0,0,0)" />
	<circle cx="198.689976060288" cy="-339.638807570313" r="2" style="fill: rgb(0,0,0)" />
	<circle cx="289.344960257035" cy="-406.49271518764" r="2" style="fill: rgb(0,0,0)" />
	<circle cx="238.128718838046" cy="-375.359458885584" r="2" style="fill: rgb(0,0,0)" />
	<circle cx="332.640725119176" cy="-238.570962915046" r="2" style="fill: rgb(0,0,0)" />
	<circle cx="361.027055004819" cy="-291.359212636772" r="2" style="fill: rgb(0,0,0)" />
	<circle cx="198.689976060277" cy="-255.717301546497" r="2" style="fill: rgb(0,0,0)" />
	<circle cx="227.378425008043" cy="-229.392147789265" r="2" style="fill: rgb(0,0,0)" />
	<circle cx="292.537320404725" cy="-189.403087460104" r="2" style="fill: rgb(0,0,0)" />
	<circle cx="330.67318645533" cy="-235.64201860722" r="2" style="fill: rgb(0,0,0)" />
	<circle cx="399.162921055441" cy="-350.235827627112" r="2" style="fill: rgb(0,0,0)" />
	<circle cx="359.206811112135" cy="-379.789373448787" r="2" style="fill: rgb(0,0,0)" />
	<circle cx="356.178090970845" cy="-381.599560582173" r="2" style="fill: rgb(0,0,0)" />
	<circle cx="301.965024968613" cy="-407.159813078941" r="2" style="fill: rgb(0,0,0)" />
	<circle cx="172.936748071335" cy="-310.43586128882" r="2" style="fill: rgb(0,0,0)" />
	<circle cx="186.459941923579" cy="-273.923342183643" r="2" style="fill: rgb(0,0,0)" />
	<circle cx="207.504905300304" cy="-400.498896914445" r="2" style="fill: rgb(0,0,0)" />
	<circle cx="160.554110009699" cy="-385.877738717468" r="2" style="fill: rgb(0,0,0)" />
	<circle cx="241.157438979317" cy="-442.134626277937" r="2" style="fill: rgb(0,0,0)" />
	<circle cx="219.688189845764" cy="-409.652136148465" r="2" style="fill: rgb(0,0,0)" />
	<circle cx="367.859001641799" cy="-221.966330364251" r="2" style="fill: rgb(0,0,0)" />
	<circle cx="399.162921055419" cy="-245.120281489628" r="2" style="fill: rgb(0,0,0)" />
	<circle cx="221.235399962335" cy="-190.943427828016" r="2" style="fill: rgb(0,0,0)" />
	<circle cx="280.837877006746" cy="-184.624585906396" r="2" style="fill: rgb(0,0,0)" />
	<circle cx="160.554110009662" cy="-209.478370399372" r="2" style="fill: rgb(0,0,0)" />
	<circle cx="217.779948374123" cy="-191.65741485422" r="2" style="fill: rgb(0,0,0)" />
	<circle cx="349.763158769198" cy="-171.58213191495" r="2" style="fill: rgb(0,0,0)" />
	<circle cx="359.361635403104" cy="-209.316864849981" r="2" style="fill: rgb(0,0,0)" />
	<circle cx="418.252893369293" cy="-286.175940934828" r="2" style="fill: rgb(0,0,0)" />
	<circle cx="427.851370003209" cy="-323.910673869867" r="2" style="fill: rgb(0,0,0)" />
	<circle cx="432.211495126034" cy="-400.237575446167" r="2" style="fill: rgb(0,0,0)" />
	<circle cx="383.980902950918" cy="-409.827435918508" r="2" style="fill: rgb(0,0,0)" />
	<circle cx="370.900527582507" cy="-417.645235545842" r="2" style="fill: rgb(0,0,0)" />
	<circle cx="346.126435743745" cy="-447.683298015578" r="2" style="fill: rgb(0,0,0)" />
	<circle cx="151.706633027641" cy="-376.853703922926" r="2" style="fill: rgb(0,0,0)" />
	<circle cx="135.019746539948" cy="-319.286952647514" r="2" style="fill: rgb(0,0,0)" />
	<circle cx="134.374167010961" cy="-315.818069509694" r="2" style="fill: rgb(0,0,0)" />
	<circle cx="129.234103559093" cy="-256.102386638521" r="2" style="fill: rgb(0,0,0)" />
	<circle cx="214.915189788242" cy="-438.723607602415" r="2" style="fill: rgb(0,0,0)" />
	<circle cx="165.694173461591" cy="-445.593421588651" r="2" style="fill: rgb(0,0,0)" />
	<circle cx="304.120324035583" cy="-464.579474937783" r="2" style="fill: rgb(0,0,0)" />
	<circle cx="265.931530818096" cy="-472.172688747662" r="2" style="fill: rgb(0,0,0)" />
	<circle cx="373.425780103405" cy="-183.429960517959" r="2" style="fill: rgb(0,0,0)" />
	<circle cx="432.211495125977" cy="-195.118533670554" r="2" style="fill: rgb(0,0,0)" />
	<circle cx="218.612015077194" cy="-141.31459906709" r="2" style="fill: rgb(0,0,0)" />
	<circle cx="257.548383980453" cy="-141.314599067083" r="2" style="fill: rgb(0,0,0)" />
	<circle cx="164.771262152899" cy="-160.484788439659" r="2" style="fill: rgb(0,0,0)" />
	<circle cx="200.519035668381" cy="-145.053083671366" r="2" style="fill: rgb(0,0,0)" />
	<circle cx="296.754472547967" cy="-140.40950550039" r="2" style="fill: rgb(0,0,0)" />
	<circle cx="332.502246063451" cy="-124.977800732097" r="2" style="fill: rgb(0,0,0)" />
	<circle cx="464.623935514257" cy="-336.709863262423" r="2" style="fill: rgb(0,0,0)" />
	<circle cx="441.961031291003" cy="-392.196580638994" r="2" style="fill: rgb(0,0,0)" />
	<circle cx="477.038608391864" cy="-274.487367782203" r="2" style="fill: rgb(0,0,0)" />
	<circle cx="465.631626514715" cy="-333.328372171253" r="2" style="fill: rgb(0,0,0)" />
	<circle cx="420.804513248885" cy="-459.07857983523" r="2" style="fill: rgb(0,0,0)" />
	<circle cx="372.582050658354" cy="-447.057893742499" r="2" style="fill: rgb(0,0,0)" />
	<circle cx="92.1041559832309" cy="-370.534862001356" r="2" style="fill: rgb(0,0,0)" />
	<circle cx="98.2471810289069" cy="-332.08614204011" r="2" style="fill: rgb(0,0,0)" />
	<circle cx="95.4590651993043" cy="-317.104799613199" r="2" style="fill: rgb(0,0,0)" />
	<circle cx="75.8953384108104" cy="-283.440257175853" r="2" style="fill: rgb(0,0,0)" />
	<circle cx="218.254314271357" cy="-477.516533130884" r="2" style="fill: rgb(0,0,0)" />
	<circle cx="177.101155338818" cy="-504.434425977703" r="2" style="fill: rgb(0,0,0)" />
	<circle cx="126.779071649935" cy="-446.880151692173" r="2" style="fill: rgb(0,0,0)" />
	<circle cx="107.215344861427" cy="-413.215609254826" r="2" style="fill: rgb(0,0,0)" />
	<circle cx="311.225722222431" cy="-513.767035448982" r="2" style="fill: rgb(0,0,0)" />
	<circle cx="251.53533366528" cy="-519.192949837748" r="2" style="fill: rgb(0,0,0)" />
	<circle cx="385.67721043087" cy="-135.265603910938" r="2" style="fill: rgb(0,0,0)" />
	<circle cx="422.852665507988" cy="-146.84257947362" r="2" style="fill: rgb(0,0,0)" />
	<circle cx="221.775846970514" cy="-81.46166930747" r="2" style="fill: rgb(0,0,0)" />
	<circle cx="275.988912972734" cy="-107.021921804201" r="2" style="fill: rgb(0,0,0)" />
	<circle cx="107.215344861358" cy="-182.140499862084" r="2" style="fill: rgb(0,0,0)" />
	<circle cx="132.186352744825" cy="-139.171306738179" r="2" style="fill: rgb(0,0,0)" />
	<circle cx="134.249609553247" cy="-136.308983469463" r="2" style="fill: rgb(0,0,0)" />
	<circle cx="173.892703610865" cy="-91.3555839695879" r="2" style="fill: rgb(0,0,0)" />
	<circle cx="499.842212036891" cy="-353.314495813197" r="2" style="fill: rgb(0,0,0)" />
	<circle cx="501.897522955595" cy="-392.196580638965" r="2" style="fill: rgb(0,0,0)" />
	<circle cx="527.198014780787" cy="-307.296162087543" r="2" style="fill: rgb(0,0,0)" />
	<circle cx="504.194207575101" cy="-338.710580392098" r="2" style="fill: rgb(0,0,0)" />
	<circle cx="482.370901514957" cy="-433.046369751506" r="2" style="fill: rgb(0,0,0)" />
	<circle cx="459.367094309271" cy="-464.46078805607" r="2" style="fill: rgb(0,0,0)" />
	<circle cx="33.5" cy="-357.967605556438" r="2" style="fill: rgb(0,0,0)" />
	<circle cx="67.2933723586251" cy="-308.466181155835" r="2" style="fill: rgb(0,0,0)" />
	<circle cx="118.315440316232" cy="-492.745852825154" r="2" style="fill: rgb(0,0,0)" />
	<circle cx="127.913916950098" cy="-455.011119890099" r="2" style="fill: rgb(0,0,0)" />
	<circle cx="106.394997830999" cy="-480.054394078623" r="2" style="fill: rgb(0,0,0)" />
	<circle cx="57.0559384725397" cy="-446.024403560224" r="2" style="fill: rgb(0,0,0)" />
	<circle cx="312.698757325539" cy="-552.675530549101" r="2" style="fill: rgb(0,0,0)" />
	<circle cx="279.128268973786" cy="-572.400213948204" r="2" style="fill: rgb(0,0,0)" />
	<circle cx="453.008998371637" cy="-122.212589388596" r="2" style="fill: rgb(0,0,0)" />
	<circle cx="482.370901514881" cy="-162.309739365155" r="2" style="fill: rgb(0,0,0)" />
	<circle cx="406.494066712919" cy="-79.0602524967552" r="2" style="fill: rgb(0,0,0)" />
	<circle cx="450.655477488015" cy="-119.583737433389" r="2" style="fill: rgb(0,0,0)" />
	<circle cx="57.0559384724249" cy="-149.331705556748" r="2" style="fill: rgb(0,0,0)" />
	<circle cx="97.536045745184" cy="-121.411885345523" r="2" style="fill: rgb(0,0,0)" />
	<circle cx="106.446797573198" cy="-109.050141429256" r="2" style="fill: rgb(0,0,0)" />
	<circle cx="117.287051149684" cy="-71.6532200884949" r="2" style="fill: rgb(0,0,0)" />
	<circle cx="533.113670114347" cy="-333.089488995623" r="2" style="fill: rgb(0,0,0)" />
	<circle cx="561.5" cy="-385.87773871733" r="2" style="fill: rgb(0,0,0)" />
	<circle cx="528.791891561775" cy="-470.96041353653" r="2" style="fill: rgb(0,0,0)" />
	<circle cx="476.14015643617" cy="-499.599160389721" r="2" style="fill: rgb(0,0,0)" />
	<circle cx="144.052581268302" cy="-554.436173796803" r="2" style="fill: rgb(0,0,0)" />
	<circle cx="112.748661854663" cy="-531.282222671458" r="2" style="fill: rgb(0,0,0)" />
	<circle cx="82.6271054200489" cy="-510.894759084772" r="2" style="fill: rgb(0,0,0)" />
	<circle cx="44.208238046177" cy="-504.567717668789" r="2" style="fill: rgb(0,0,0)" />
	<circle cx="485.593907779685" cy="-100.899107687086" r="2" style="fill: rgb(0,0,0)" />
	<circle cx="528.791891561661" cy="-124.395695580081" r="2" style="fill: rgb(0,0,0)" />
	<circle cx="460.707132715142" cy="-53.5" r="2" style="fill: rgb(0,0,0)" />
	<circle cx="475.429569326783" cy="-89.5456749636559" r="2" style="fill: rgb(0,0,0)" />
	<circle cx="44.208238045984" cy="-90.7883914482003" r="2" style="fill: rgb(0,0,0)" />
	<circle cx="93.2458192001167" cy="-82.7125987944281" r="2" style="fill: rgb(0,0,0)" />
	<circle cx="535.396028896616" cy="-530.531953747622" r="2" style="fill: rgb(0,0,0)" />
	<circle cx="496.524230255151" cy="-532.773402776152" r="2" style="fill: rgb(0,0,0)" />
	<circle cx="485.780329351244" cy="-61.9631850658208" r="2" style="fill: rgb(0,0,0)" />
	<circle cx="535.396028896425" cy="-64.8241553689622" r="2" style="fill: rgb(0,0,0)" />
	<!-- 
	Generated using the Perl SVG Module V2.64
	by Ronan Oger
	Info: http://www.roitsystems.com/
 -->
</svg>