<?xml version="1.0" encoding="UTF-8" standalone="yes"?>
<!DOCTYPE svg PUBLIC "-//W3C//DTD SVG 1.0//EN" "http://www.w3.org/TR/2001/REC-SVG-20010904/DTD/svg10.dtd">
<!-- generated using polymake; Michael Joswig, Georg Loho, Benjamin Lorenz, Rico Raber; license CC BY-NC-ND 3.0; see polymake.org and matchthenet.de -->
<svg height="841pt" id="document" viewBox="0 -811 469.815285688117 811" width="595pt" xmlns="http://www.w3.org/2000/svg" xmlns:svg="http://www.w3.org/2000/svg" xmlns:xlink="http://www.w3.org/1999/xlink">
	<title id="document_title">planar_net_</title>
	<polygon points="201.648050779335,-383.952296966996 394.524204636325,-383.952296966996 239.709764814408,-498.990116614694 " style="fill: rgb(14,173,105); fill-opacity: 1; stroke: rgb(0,0,0); stroke-width: 3" />
	<polygon points="201.648050779335,-383.952296966996 235.990200064768,-252.732237417114 394.524204636325,-383.952296966996 " style="fill: rgb(14,173,105); fill-opacity: 1; stroke: rgb(0,0,0); stroke-width: 3" />
	<polygon points="384.105923557542,-287.900709784192 394.524204636325,-383.952296966996 235.990200064768,-252.732237417114 268.279294287361,-232.203744359705 " style="fill: rgb(14,173,105); fill-opacity: 1; stroke: rgb(0,0,0); stroke-width: 3" />
	<polygon points="345.538970449115,-583.832714880794 394.524204636325,-383.952296966996 443.450236317193,-467.263109020028 383.70009596523,-581.051863884078 " style="fill: rgb(14,173,105); fill-opacity: 1; stroke: rgb(0,0,0); stroke-width: 3" />
	<polygon points="239.709764814408,-498.990116614694 394.524204636325,-383.952296966996 345.538970449115,-583.832714880794 " style="fill: rgb(14,173,105); fill-opacity: 1; stroke: rgb(0,0,0); stroke-width: 3" />
	<polygon points="201.648050779335,-383.952296966996 239.709764814408,-498.990116614694 46.8336109574149,-498.990116614678 " style="fill: rgb(14,173,105); fill-opacity: 1; stroke: rgb(0,0,0); stroke-width: 3" />
	<polygon points="201.648050779335,-383.952296966996 33.5,-289.46714603957 235.990200064768,-252.732237417114 " style="fill: rgb(14,173,105); fill-opacity: 1; stroke: rgb(0,0,0); stroke-width: 3" />
	<polygon points="235.990200064768,-252.732237417114 184.431978532781,-53.5 266.988697121655,-103.688008496168 268.279294287361,-232.203744359705 " style="fill: rgb(14,173,105); fill-opacity: 1; stroke: rgb(0,0,0); stroke-width: 3" />
	<polygon points="345.538970449115,-583.832714880794 383.70009596523,-581.051863884078 459.315285688117,-684.97637056447 422.98392521729,-774.5 " style="fill: rgb(14,173,105); fill-opacity: 1; stroke: rgb(0,0,0); stroke-width: 3" />
	<polygon points="239.709764814408,-498.990116614694 345.538970449115,-583.832714880794 161.097763104674,-675.118944220677 " style="fill: rgb(14,173,105); fill-opacity: 1; stroke: rgb(0,0,0); stroke-width: 3" />
	<polygon points="439.802888982026,-172.074080513999 384.105923557542,-287.900709784192 268.279294287361,-232.203744359705 323.976259711854,-116.377115089511 " style="fill: rgb(14,173,105); fill-opacity: 1; stroke: rgb(0,0,0); stroke-width: 3" />
	<circle cx="201.648050779335" cy="-383.952296966996" r="2" style="fill: rgb(0,0,0)" />
	<circle cx="394.524204636325" cy="-383.952296966996" r="2" style="fill: rgb(0,0,0)" />
	<circle cx="239.709764814408" cy="-498.990116614694" r="2" style="fill: rgb(0,0,0)" />
	<circle cx="235.990200064768" cy="-252.732237417114" r="2" style="fill: rgb(0,0,0)" />
	<circle cx="345.538970449115" cy="-583.832714880794" r="2" style="fill: rgb(0,0,0)" />
	<circle cx="46.8336109574149" cy="-498.990116614678" r="2" style="fill: rgb(0,0,0)" />
	<circle cx="268.279294287361" cy="-232.203744359705" r="2" style="fill: rgb(0,0,0)" />
	<circle cx="384.105923557542" cy="-287.900709784192" r="2" style="fill: rgb(0,0,0)" />
	<circle cx="33.5" cy="-289.46714603957" r="2" style="fill: rgb(0,0,0)" />
	<circle cx="443.450236317193" cy="-467.263109020028" r="2" style="fill: rgb(0,0,0)" />
	<circle cx="383.70009596523" cy="-581.051863884078" r="2" style="fill: rgb(0,0,0)" />
	<circle cx="161.097763104674" cy="-675.118944220677" r="2" style="fill: rgb(0,0,0)" />
	<circle cx="184.431978532781" cy="-53.5" r="2" style="fill: rgb(0,0,0)" />
	<circle cx="266.988697121655" cy="-103.688008496168" r="2" style="fill: rgb(0,0,0)" />
	<circle cx="323.976259711854" cy="-116.377115089511" r="2" style="fill: rgb(0,0,0)" />
	<circle cx="439.802888982026" cy="-172.074080513999" r="2" style="fill: rgb(0,0,0)" />
	<circle cx="459.315285688117" cy="-684.97637056447" r="2" style="fill: rgb(0,0,0)" />
	<circle cx="422.98392521729" cy="-774.5" r="2" style="fill: rgb(0,0,0)" />
	<!--
	Generated using the Perl SVG Module V2.87
	by Ronan Oger

	-->
</svg>