<?xml version="1.0" encoding="UTF-8" standalone="yes"?>
<!DOCTYPE svg PUBLIC "-//W3C//DTD SVG 1.0//EN" "http://www.w3.org/TR/2001/REC-SVG-20010904/DTD/svg10.dtd">
<!-- generated using polymake; Michael Joswig, Georg Loho, Benjamin Lorenz, Rico Raber; license CC BY-NC-ND 3.0; see polymake.org and matchthenet.de -->
<svg height="841pt" id="document" viewBox="0 -488.334508263888 572 488.334508263888" width="595pt" xmlns="http://www.w3.org/2000/svg" xmlns:svg="http://www.w3.org/2000/svg" xmlns:xlink="http://www.w3.org/1999/xlink">
	<title id="document_title">planar_net_</title>
	<polygon points="198.094689336214,-273.418532550287 239.59724617292,-273.418532550287 252.422241545475,-312.889809672746 218.845967754571,-337.284400513795 185.269693963664,-312.889809672749 " style="fill: rgb(61,81,50); fill-opacity: 1; stroke: rgb(0,0,0); stroke-width: 3" />
	<polygon points="239.597246172912,-231.915975713573 239.59724617292,-273.418532550287 198.094689336214,-273.418532550287 198.094689336212,-231.915975713579 " style="fill: rgb(216,176,92); fill-opacity: 1; stroke: rgb(0,0,0); stroke-width: 3" />
	<polygon points="157.499062942065,-223.287108948388 126.65665258479,-195.516477926792 154.427283606374,-164.674067569524 185.269693963657,-192.444698591119 " style="fill: rgb(216,176,92); fill-opacity: 1; stroke: rgb(0,0,0); stroke-width: 3" />
	<polygon points="198.094689336212,-231.915975713579 157.499062942065,-223.287108948388 185.269693963657,-192.444698591119 " style="fill: rgb(186,59,38); fill-opacity: 1; stroke: rgb(0,0,0); stroke-width: 3" />
	<polygon points="239.597246172912,-231.915975713573 198.094689336212,-231.915975713579 185.269693963657,-192.444698591119 218.845967754554,-168.050107750064 252.422241545457,-192.444698591107 " style="fill: rgb(61,81,50); fill-opacity: 1; stroke: rgb(0,0,0); stroke-width: 3" />
	<polygon points="252.422241545475,-312.889809672746 239.59724617292,-273.418532550287 279.06852329538,-260.59353717773 291.893518667938,-300.064814300182 " style="fill: rgb(216,176,92); fill-opacity: 1; stroke: rgb(0,0,0); stroke-width: 3" />
	<polygon points="275.539514715511,-252.667254131928 239.59724617292,-273.418532550287 239.597246172912,-231.915975713573 " style="fill: rgb(186,59,38); fill-opacity: 1; stroke: rgb(0,0,0); stroke-width: 3" />
	<polygon points="117.120855377036,-219.090980341044 92.726264535995,-252.667254131953 59.1499907450818,-228.272663290911 83.544581586117,-194.696389500004 " style="fill: rgb(216,176,92); fill-opacity: 1; stroke: rgb(0,0,0); stroke-width: 3" />
	<polygon points="126.65665258479,-195.516477926792 113.831657212234,-156.045200804329 154.427283606374,-164.674067569524 " style="fill: rgb(186,59,38); fill-opacity: 1; stroke: rgb(0,0,0); stroke-width: 3" />
	<polygon points="218.845967754554,-168.050107750064 185.269693963657,-192.444698591119 160.875103122598,-158.868424800218 194.451376913487,-134.473833959163 " style="fill: rgb(216,176,92); fill-opacity: 1; stroke: rgb(0,0,0); stroke-width: 3" />
	<polygon points="279.068523295384,-244.740971086113 239.597246172912,-231.915975713573 252.422241545457,-192.444698591107 291.893518667922,-205.269693963649 " style="fill: rgb(216,176,92); fill-opacity: 1; stroke: rgb(0,0,0); stroke-width: 3" />
	<polygon points="252.422241545475,-312.889809672746 291.893518667938,-300.064814300182 283.264651902767,-340.660440694326 " style="fill: rgb(186,59,38); fill-opacity: 1; stroke: rgb(0,0,0); stroke-width: 3" />
	<polygon points="87.8275522092565,-383.685669677282 100.652547581815,-423.156946799734 67.07627379091,-447.551537640786 33.5,-423.156946799753 46.3249953725505,-383.685669677295 " style="fill: rgb(61,81,50); fill-opacity: 1; stroke: rgb(0,0,0); stroke-width: 3" />
	<polygon points="243.240558595631,-370.860674304701 276.816832386527,-346.466083463652 310.393106177444,-370.860674304694 297.568110804908,-410.33195142715 256.065553968201,-410.331951427152 " style="fill: rgb(61,81,50); fill-opacity: 1; stroke: rgb(0,0,0); stroke-width: 3" />
	<polygon points="140.123824704274,-410.331951427176 181.626381540975,-410.331951427166 181.626381540977,-451.834508263874 140.123824704282,-451.834508263888 " style="fill: rgb(216,176,92); fill-opacity: 1; stroke: rgb(0,0,0); stroke-width: 3" />
	<polygon points="140.123824704274,-410.331951427176 140.123824704282,-451.834508263888 104.181556161679,-431.083229845546 " style="fill: rgb(186,59,38); fill-opacity: 1; stroke: rgb(0,0,0); stroke-width: 3" />
	<polygon points="256.065553968201,-410.331951427152 256.065553968207,-451.834508263863 220.123285425609,-431.083229845506 " style="fill: rgb(186,59,38); fill-opacity: 1; stroke: rgb(0,0,0); stroke-width: 3" />
	<polygon points="475.627453714076,-403.401959386138 488.452449086632,-363.93068226368 527.923726209093,-376.755677636237 515.09873083654,-416.226954758692 " style="fill: rgb(216,176,92); fill-opacity: 1; stroke: rgb(0,0,0); stroke-width: 3" />
	<polygon points="256.065553968201,-410.331951427152 297.568110804908,-410.33195142715 297.56811080491,-451.834508263858 256.065553968207,-451.834508263863 " style="fill: rgb(216,176,92); fill-opacity: 1; stroke: rgb(0,0,0); stroke-width: 3" />
	<polygon points="509.203727504973,-300.064814300169 522.028722877542,-260.59353717771 561.5,-273.418532550277 548.675004627437,-312.889809672732 " style="fill: rgb(216,176,92); fill-opacity: 1; stroke: rgb(0,0,0); stroke-width: 3" />
	<polygon points="421.299901504807,-363.930682263674 454.876175295715,-339.53609142263 488.452449086632,-363.93068226368 475.627453714076,-403.401959386138 434.124896877358,-403.401959386132 " style="fill: rgb(61,81,50); fill-opacity: 1; stroke: rgb(0,0,0); stroke-width: 3" />
	<polygon points="494.347452418182,-352.361086795182 507.172447790733,-312.889809672727 534.94307881232,-343.732220030015 " style="fill: rgb(186,59,38); fill-opacity: 1; stroke: rgb(0,0,0); stroke-width: 3" />
	<polygon points="454.876175295719,-260.593537177712 421.299901504813,-236.198946336665 445.69449234586,-202.622672545756 479.270766136765,-227.017263386797 " style="fill: rgb(216,176,92); fill-opacity: 1; stroke: rgb(0,0,0); stroke-width: 3" />
	<polygon points="454.876175295715,-339.53609142263 467.701170668272,-300.064814300171 507.172447790733,-312.889809672727 494.347452418182,-352.361086795182 " style="fill: rgb(216,176,92); fill-opacity: 1; stroke: rgb(0,0,0); stroke-width: 3" />
	<polygon points="467.701170668272,-300.064814300171 454.876175295719,-260.593537177712 488.452449086638,-236.198946336667 522.028722877542,-260.59353717771 509.203727504973,-300.064814300169 " style="fill: rgb(61,81,50); fill-opacity: 1; stroke: rgb(0,0,0); stroke-width: 3" />
	<polygon points="479.270766136765,-227.017263386797 445.69449234586,-202.622672545756 483.608964624593,-185.742061898935 " style="fill: rgb(186,59,38); fill-opacity: 1; stroke: rgb(0,0,0); stroke-width: 3" />
	<polygon points="333.396075504642,-300.064814300167 346.221070877198,-260.593537177708 379.797344668107,-236.198946336663 421.299901504813,-236.198946336665 454.876175295719,-260.593537177712 467.701170668272,-300.064814300171 454.876175295715,-339.53609142263 421.299901504807,-363.930682263674 379.797344668101,-363.930682263673 346.221070877194,-339.536091422626 " style="fill: rgb(91,98,49); fill-opacity: 1; stroke: rgb(0,0,0); stroke-width: 3" />
	<polygon points="310.393106177396,-134.473833959133 276.816832386501,-158.868424800189 243.240558595599,-134.473833959154 256.065553968151,-95.0025568366844 297.568110804845,-95.0025568366702 " style="fill: rgb(61,81,50); fill-opacity: 1; stroke: rgb(0,0,0); stroke-width: 3" />
	<polygon points="140.123824704199,-53.5000000000192 140.123824704201,-95.0025568367276 104.181556161605,-74.2512784183748 " style="fill: rgb(186,59,38); fill-opacity: 1; stroke: rgb(0,0,0); stroke-width: 3" />
	<polygon points="140.123824704199,-53.5000000000192 181.626381540896,-53.5 181.626381540903,-95.0025568367129 140.123824704201,-95.0025568367276 " style="fill: rgb(216,176,92); fill-opacity: 1; stroke: rgb(0,0,0); stroke-width: 3" />
	<polygon points="346.221070877198,-260.593537177708 312.644797086289,-236.198946336677 337.039387927324,-202.62267254576 370.615661718232,-227.017263386783 " style="fill: rgb(216,176,92); fill-opacity: 1; stroke: rgb(0,0,0); stroke-width: 3" />
	<polygon points="231.38837991352,-88.860433983454 235.72657840136,-130.13563547133 194.451376913487,-134.473833959163 190.113178425652,-93.1986324712917 " style="fill: rgb(216,176,92); fill-opacity: 1; stroke: rgb(0,0,0); stroke-width: 3" />
	<polygon points="291.893518667938,-300.064814300182 332.489145062085,-308.693681065352 323.86027829692,-349.289307459492 283.264651902767,-340.660440694326 " style="fill: rgb(216,176,92); fill-opacity: 1; stroke: rgb(0,0,0); stroke-width: 3" />
	<polygon points="291.893518667922,-205.269693963649 252.422241545457,-192.444698591107 283.264651902728,-164.674067569503 " style="fill: rgb(186,59,38); fill-opacity: 1; stroke: rgb(0,0,0); stroke-width: 3" />
	<polygon points="218.845967754554,-168.050107750064 194.451376913487,-134.473833959163 235.72657840136,-130.13563547133 " style="fill: rgb(186,59,38); fill-opacity: 1; stroke: rgb(0,0,0); stroke-width: 3" />
	<polygon points="252.422241545457,-192.444698591107 218.845967754554,-168.050107750064 243.240558595599,-134.473833959154 276.816832386501,-158.868424800189 " style="fill: rgb(216,176,92); fill-opacity: 1; stroke: rgb(0,0,0); stroke-width: 3" />
	<polygon points="87.8275522092069,-121.648838586661 100.652547581724,-82.1775614642056 140.123824704201,-95.0025568367276 127.298829331678,-134.473833959187 " style="fill: rgb(216,176,92); fill-opacity: 1; stroke: rgb(0,0,0); stroke-width: 3" />
	<polygon points="291.893518667938,-300.064814300182 279.06852329538,-260.59353717773 312.644797086289,-236.198946336677 346.221070877198,-260.593537177708 333.396075504642,-300.064814300167 " style="fill: rgb(61,81,50); fill-opacity: 1; stroke: rgb(0,0,0); stroke-width: 3" />
	<polygon points="194.451376913487,-134.473833959163 160.875103122598,-158.868424800218 127.298829331678,-134.473833959187 140.123824704201,-95.0025568367276 181.626381540903,-95.0025568367129 " style="fill: rgb(61,81,50); fill-opacity: 1; stroke: rgb(0,0,0); stroke-width: 3" />
	<polygon points="243.240558595631,-370.860674304701 256.065553968201,-410.331951427152 216.594276845747,-423.156946799725 203.769281473174,-383.685669677278 " style="fill: rgb(216,176,92); fill-opacity: 1; stroke: rgb(0,0,0); stroke-width: 3" />
	<polygon points="127.298829331718,-370.860674304719 140.123824704274,-410.331951427176 100.652547581815,-423.156946799734 87.8275522092565,-383.685669677282 " style="fill: rgb(216,176,92); fill-opacity: 1; stroke: rgb(0,0,0); stroke-width: 3" />
	<polygon points="54.8117922572681,-269.547864778793 59.1499907450818,-228.272663290911 92.726264535995,-252.667254131953 " style="fill: rgb(186,59,38); fill-opacity: 1; stroke: rgb(0,0,0); stroke-width: 3" />
	<polygon points="218.845967754571,-337.284400513795 243.240558595631,-370.860674304701 201.96535710776,-375.198872792537 " style="fill: rgb(186,59,38); fill-opacity: 1; stroke: rgb(0,0,0); stroke-width: 3" />
	<polygon points="218.845967754571,-337.284400513795 252.422241545475,-312.889809672746 276.816832386527,-346.466083463652 243.240558595631,-370.860674304701 " style="fill: rgb(216,176,92); fill-opacity: 1; stroke: rgb(0,0,0); stroke-width: 3" />
	<polygon points="160.875103122619,-346.466083463664 194.451376913526,-370.860674304704 181.626381540975,-410.331951427166 140.123824704274,-410.331951427176 127.298829331718,-370.860674304719 " style="fill: rgb(61,81,50); fill-opacity: 1; stroke: rgb(0,0,0); stroke-width: 3" />
	<polygon points="160.875103122619,-346.466083463664 127.298829331718,-370.860674304719 122.960630843895,-329.585472816844 " style="fill: rgb(186,59,38); fill-opacity: 1; stroke: rgb(0,0,0); stroke-width: 3" />
	<polygon points="83.544581586147,-310.638118763909 59.1499907450935,-277.061844973019 92.726264535995,-252.667254131953 117.120855377048,-286.243527922851 " style="fill: rgb(216,176,92); fill-opacity: 1; stroke: rgb(0,0,0); stroke-width: 3" />
	<polygon points="185.269693963664,-312.889809672749 218.845967754571,-337.284400513795 194.451376913526,-370.860674304704 160.875103122619,-346.466083463664 " style="fill: rgb(216,176,92); fill-opacity: 1; stroke: rgb(0,0,0); stroke-width: 3" />
	<polygon points="198.094689336214,-273.418532550287 185.269693963664,-312.889809672749 157.499062942075,-282.047399315464 " style="fill: rgb(186,59,38); fill-opacity: 1; stroke: rgb(0,0,0); stroke-width: 3" />
	<polygon points="185.269693963664,-312.889809672749 160.875103122619,-346.466083463664 127.298829331707,-322.071492622623 151.693420172745,-288.495218831709 " style="fill: rgb(216,176,92); fill-opacity: 1; stroke: rgb(0,0,0); stroke-width: 3" />
	<polygon points="156.592132499506,-273.41853255029 117.120855377048,-286.243527922851 92.726264535995,-252.667254131953 117.120855377036,-219.090980341044 156.5921324995,-231.915975713587 " style="fill: rgb(61,81,50); fill-opacity: 1; stroke: rgb(0,0,0); stroke-width: 3" />
	<polygon points="198.094689336214,-273.418532550287 156.592132499506,-273.41853255029 156.5921324995,-231.915975713587 198.094689336212,-231.915975713579 " style="fill: rgb(216,176,92); fill-opacity: 1; stroke: rgb(0,0,0); stroke-width: 3" />
	<circle cx="198.094689336214" cy="-273.418532550287" r="2" style="fill: rgb(0,0,0)" />
	<circle cx="239.59724617292" cy="-273.418532550287" r="2" style="fill: rgb(0,0,0)" />
	<circle cx="252.422241545475" cy="-312.889809672746" r="2" style="fill: rgb(0,0,0)" />
	<circle cx="218.845967754571" cy="-337.284400513795" r="2" style="fill: rgb(0,0,0)" />
	<circle cx="185.269693963664" cy="-312.889809672749" r="2" style="fill: rgb(0,0,0)" />
	<circle cx="198.094689336212" cy="-231.915975713579" r="2" style="fill: rgb(0,0,0)" />
	<circle cx="239.597246172912" cy="-231.915975713573" r="2" style="fill: rgb(0,0,0)" />
	<circle cx="279.06852329538" cy="-260.59353717773" r="2" style="fill: rgb(0,0,0)" />
	<circle cx="291.893518667938" cy="-300.064814300182" r="2" style="fill: rgb(0,0,0)" />
	<circle cx="276.816832386527" cy="-346.466083463652" r="2" style="fill: rgb(0,0,0)" />
	<circle cx="243.240558595631" cy="-370.860674304701" r="2" style="fill: rgb(0,0,0)" />
	<circle cx="194.451376913526" cy="-370.860674304704" r="2" style="fill: rgb(0,0,0)" />
	<circle cx="160.875103122619" cy="-346.466083463664" r="2" style="fill: rgb(0,0,0)" />
	<circle cx="157.499062942075" cy="-282.047399315464" r="2" style="fill: rgb(0,0,0)" />
	<circle cx="185.269693963657" cy="-192.444698591119" r="2" style="fill: rgb(0,0,0)" />
	<circle cx="218.845967754554" cy="-168.050107750064" r="2" style="fill: rgb(0,0,0)" />
	<circle cx="252.422241545457" cy="-192.444698591107" r="2" style="fill: rgb(0,0,0)" />
	<circle cx="275.539514715511" cy="-252.667254131928" r="2" style="fill: rgb(0,0,0)" />
	<circle cx="156.592132499506" cy="-273.41853255029" r="2" style="fill: rgb(0,0,0)" />
	<circle cx="156.5921324995" cy="-231.915975713587" r="2" style="fill: rgb(0,0,0)" />
	<circle cx="283.264651902767" cy="-340.660440694326" r="2" style="fill: rgb(0,0,0)" />
	<circle cx="312.644797086289" cy="-236.198946336677" r="2" style="fill: rgb(0,0,0)" />
	<circle cx="346.221070877198" cy="-260.593537177708" r="2" style="fill: rgb(0,0,0)" />
	<circle cx="333.396075504642" cy="-300.064814300167" r="2" style="fill: rgb(0,0,0)" />
	<circle cx="310.393106177444" cy="-370.860674304694" r="2" style="fill: rgb(0,0,0)" />
	<circle cx="297.568110804908" cy="-410.33195142715" r="2" style="fill: rgb(0,0,0)" />
	<circle cx="256.065553968201" cy="-410.331951427152" r="2" style="fill: rgb(0,0,0)" />
	<circle cx="201.96535710776" cy="-375.198872792537" r="2" style="fill: rgb(0,0,0)" />
	<circle cx="181.626381540975" cy="-410.331951427166" r="2" style="fill: rgb(0,0,0)" />
	<circle cx="140.123824704274" cy="-410.331951427176" r="2" style="fill: rgb(0,0,0)" />
	<circle cx="127.298829331718" cy="-370.860674304719" r="2" style="fill: rgb(0,0,0)" />
	<circle cx="127.298829331707" cy="-322.071492622623" r="2" style="fill: rgb(0,0,0)" />
	<circle cx="151.693420172745" cy="-288.495218831709" r="2" style="fill: rgb(0,0,0)" />
	<circle cx="157.499062942065" cy="-223.287108948388" r="2" style="fill: rgb(0,0,0)" />
	<circle cx="160.875103122598" cy="-158.868424800218" r="2" style="fill: rgb(0,0,0)" />
	<circle cx="194.451376913487" cy="-134.473833959163" r="2" style="fill: rgb(0,0,0)" />
	<circle cx="291.893518667922" cy="-205.269693963649" r="2" style="fill: rgb(0,0,0)" />
	<circle cx="279.068523295384" cy="-244.740971086113" r="2" style="fill: rgb(0,0,0)" />
	<circle cx="243.240558595599" cy="-134.473833959154" r="2" style="fill: rgb(0,0,0)" />
	<circle cx="276.816832386501" cy="-158.868424800189" r="2" style="fill: rgb(0,0,0)" />
	<circle cx="117.120855377048" cy="-286.243527922851" r="2" style="fill: rgb(0,0,0)" />
	<circle cx="92.726264535995" cy="-252.667254131953" r="2" style="fill: rgb(0,0,0)" />
	<circle cx="117.120855377036" cy="-219.090980341044" r="2" style="fill: rgb(0,0,0)" />
	<circle cx="332.489145062085" cy="-308.693681065352" r="2" style="fill: rgb(0,0,0)" />
	<circle cx="323.86027829692" cy="-349.289307459492" r="2" style="fill: rgb(0,0,0)" />
	<circle cx="379.797344668107" cy="-236.198946336663" r="2" style="fill: rgb(0,0,0)" />
	<circle cx="421.299901504813" cy="-236.198946336665" r="2" style="fill: rgb(0,0,0)" />
	<circle cx="454.876175295719" cy="-260.593537177712" r="2" style="fill: rgb(0,0,0)" />
	<circle cx="467.701170668272" cy="-300.064814300171" r="2" style="fill: rgb(0,0,0)" />
	<circle cx="454.876175295715" cy="-339.53609142263" r="2" style="fill: rgb(0,0,0)" />
	<circle cx="421.299901504807" cy="-363.930682263674" r="2" style="fill: rgb(0,0,0)" />
	<circle cx="379.797344668101" cy="-363.930682263673" r="2" style="fill: rgb(0,0,0)" />
	<circle cx="346.221070877194" cy="-339.536091422626" r="2" style="fill: rgb(0,0,0)" />
	<circle cx="337.039387927324" cy="-202.62267254576" r="2" style="fill: rgb(0,0,0)" />
	<circle cx="370.615661718232" cy="-227.017263386783" r="2" style="fill: rgb(0,0,0)" />
	<circle cx="297.56811080491" cy="-451.834508263858" r="2" style="fill: rgb(0,0,0)" />
	<circle cx="256.065553968207" cy="-451.834508263863" r="2" style="fill: rgb(0,0,0)" />
	<circle cx="216.594276845747" cy="-423.156946799725" r="2" style="fill: rgb(0,0,0)" />
	<circle cx="203.769281473174" cy="-383.685669677278" r="2" style="fill: rgb(0,0,0)" />
	<circle cx="181.626381540977" cy="-451.834508263874" r="2" style="fill: rgb(0,0,0)" />
	<circle cx="140.123824704282" cy="-451.834508263888" r="2" style="fill: rgb(0,0,0)" />
	<circle cx="100.652547581815" cy="-423.156946799734" r="2" style="fill: rgb(0,0,0)" />
	<circle cx="87.8275522092565" cy="-383.685669677282" r="2" style="fill: rgb(0,0,0)" />
	<circle cx="122.960630843895" cy="-329.585472816844" r="2" style="fill: rgb(0,0,0)" />
	<circle cx="126.65665258479" cy="-195.516477926792" r="2" style="fill: rgb(0,0,0)" />
	<circle cx="154.427283606374" cy="-164.674067569524" r="2" style="fill: rgb(0,0,0)" />
	<circle cx="235.72657840136" cy="-130.13563547133" r="2" style="fill: rgb(0,0,0)" />
	<circle cx="127.298829331678" cy="-134.473833959187" r="2" style="fill: rgb(0,0,0)" />
	<circle cx="140.123824704201" cy="-95.0025568367276" r="2" style="fill: rgb(0,0,0)" />
	<circle cx="181.626381540903" cy="-95.0025568367129" r="2" style="fill: rgb(0,0,0)" />
	<circle cx="283.264651902728" cy="-164.674067569503" r="2" style="fill: rgb(0,0,0)" />
	<circle cx="256.065553968151" cy="-95.0025568366844" r="2" style="fill: rgb(0,0,0)" />
	<circle cx="297.568110804845" cy="-95.0025568366702" r="2" style="fill: rgb(0,0,0)" />
	<circle cx="310.393106177396" cy="-134.473833959133" r="2" style="fill: rgb(0,0,0)" />
	<circle cx="59.1499907450818" cy="-228.272663290911" r="2" style="fill: rgb(0,0,0)" />
	<circle cx="83.544581586117" cy="-194.696389500004" r="2" style="fill: rgb(0,0,0)" />
	<circle cx="83.544581586147" cy="-310.638118763909" r="2" style="fill: rgb(0,0,0)" />
	<circle cx="59.1499907450935" cy="-277.061844973019" r="2" style="fill: rgb(0,0,0)" />
	<circle cx="488.452449086632" cy="-363.93068226368" r="2" style="fill: rgb(0,0,0)" />
	<circle cx="475.627453714076" cy="-403.401959386138" r="2" style="fill: rgb(0,0,0)" />
	<circle cx="434.124896877358" cy="-403.401959386132" r="2" style="fill: rgb(0,0,0)" />
	<circle cx="445.69449234586" cy="-202.622672545756" r="2" style="fill: rgb(0,0,0)" />
	<circle cx="479.270766136765" cy="-227.017263386797" r="2" style="fill: rgb(0,0,0)" />
	<circle cx="507.172447790733" cy="-312.889809672727" r="2" style="fill: rgb(0,0,0)" />
	<circle cx="494.347452418182" cy="-352.361086795182" r="2" style="fill: rgb(0,0,0)" />
	<circle cx="488.452449086638" cy="-236.198946336667" r="2" style="fill: rgb(0,0,0)" />
	<circle cx="522.028722877542" cy="-260.59353717771" r="2" style="fill: rgb(0,0,0)" />
	<circle cx="509.203727504973" cy="-300.064814300169" r="2" style="fill: rgb(0,0,0)" />
	<circle cx="220.123285425609" cy="-431.083229845506" r="2" style="fill: rgb(0,0,0)" />
	<circle cx="104.181556161679" cy="-431.083229845546" r="2" style="fill: rgb(0,0,0)" />
	<circle cx="67.07627379091" cy="-447.551537640786" r="2" style="fill: rgb(0,0,0)" />
	<circle cx="33.5" cy="-423.156946799753" r="2" style="fill: rgb(0,0,0)" />
	<circle cx="46.3249953725505" cy="-383.685669677295" r="2" style="fill: rgb(0,0,0)" />
	<circle cx="113.831657212234" cy="-156.045200804329" r="2" style="fill: rgb(0,0,0)" />
	<circle cx="190.113178425652" cy="-93.1986324712917" r="2" style="fill: rgb(0,0,0)" />
	<circle cx="231.38837991352" cy="-88.860433983454" r="2" style="fill: rgb(0,0,0)" />
	<circle cx="140.123824704199" cy="-53.5000000000192" r="2" style="fill: rgb(0,0,0)" />
	<circle cx="181.626381540896" cy="-53.5" r="2" style="fill: rgb(0,0,0)" />
	<circle cx="87.8275522092069" cy="-121.648838586661" r="2" style="fill: rgb(0,0,0)" />
	<circle cx="100.652547581724" cy="-82.1775614642056" r="2" style="fill: rgb(0,0,0)" />
	<circle cx="54.8117922572681" cy="-269.547864778793" r="2" style="fill: rgb(0,0,0)" />
	<circle cx="527.923726209093" cy="-376.755677636237" r="2" style="fill: rgb(0,0,0)" />
	<circle cx="515.09873083654" cy="-416.226954758692" r="2" style="fill: rgb(0,0,0)" />
	<circle cx="483.608964624593" cy="-185.742061898935" r="2" style="fill: rgb(0,0,0)" />
	<circle cx="534.94307881232" cy="-343.732220030015" r="2" style="fill: rgb(0,0,0)" />
	<circle cx="561.5" cy="-273.418532550277" r="2" style="fill: rgb(0,0,0)" />
	<circle cx="548.675004627437" cy="-312.889809672732" r="2" style="fill: rgb(0,0,0)" />
	<circle cx="104.181556161605" cy="-74.2512784183748" r="2" style="fill: rgb(0,0,0)" />
	<!--
	Generated using the Perl SVG Module V2.84
	by Ronan Oger
	Info: http://www.roitsystems.com/
	-->
</svg>