<?xml version="1.0" encoding="UTF-8" standalone="yes"?>
<!DOCTYPE svg PUBLIC "-//W3C//DTD SVG 1.0//EN" "http://www.w3.org/TR/2001/REC-SVG-20010904/DTD/svg10.dtd">
<!-- generated using polymake; Michael Joswig, Georg Loho, Benjamin Lorenz, Rico Raber; license CC BY-NC-ND 3.0; see polymake.org and matchthenet.de -->
<svg height="841pt" id="document" viewBox="0 -811 421.768454811454 811" width="595pt" xmlns="http://www.w3.org/2000/svg" xmlns:svg="http://www.w3.org/2000/svg" xmlns:xlink="http://www.w3.org/1999/xlink">
	<title id="document_title">planar_net_</title>
	<polygon points="231.644694568368,-413.999999999998 314.986008726305,-413.999999999998 229.752767091818,-599.469540211659 175.475157960851,-536.226233904998 " style="fill: rgb(14,173,105); fill-opacity: 1; stroke: rgb(0,0,0); stroke-width: 3" />
	<polygon points="231.644694568368,-413.999999999998 175.475157960851,-291.773766094998 229.752767091818,-228.530459788337 314.986008726305,-413.999999999998 " style="fill: rgb(14,173,105); fill-opacity: 1; stroke: rgb(0,0,0); stroke-width: 3" />
	<polygon points="175.475157960851,-536.226233904998 229.752767091818,-599.469540211659 33.500000000002,-655.581100826691 46.1426724880708,-573.20429900766 " style="fill: rgb(14,173,105); fill-opacity: 1; stroke: rgb(0,0,0); stroke-width: 3" />
	<polygon points="46.1426724880684,-254.79570099233 33.5,-172.4188991733 229.752767091818,-228.530459788337 175.475157960851,-291.773766094998 " style="fill: rgb(14,173,105); fill-opacity: 1; stroke: rgb(0,0,0); stroke-width: 3" />
	<polygon points="229.752767091818,-599.469540211659 314.986008726305,-413.999999999998 411.268454811444,-570.566371341198 " style="fill: rgb(14,173,105); fill-opacity: 1; stroke: rgb(0,0,0); stroke-width: 3" />
	<polygon points="411.268454811454,-257.43362865882 314.986008726305,-413.999999999998 229.752767091818,-228.530459788337 " style="fill: rgb(14,173,105); fill-opacity: 1; stroke: rgb(0,0,0); stroke-width: 3" />
	<polygon points="229.752767091818,-599.469540211659 173.648612117611,-774.5 33.500000000002,-655.581100826691 " style="fill: rgb(14,173,105); fill-opacity: 1; stroke: rgb(0,0,0); stroke-width: 3" />
	<polygon points="173.648612117632,-53.5 229.752767091818,-228.530459788337 33.5,-172.4188991733 " style="fill: rgb(14,173,105); fill-opacity: 1; stroke: rgb(0,0,0); stroke-width: 3" />
	<polygon points="231.644694568368,-413.999999999998 175.475157960851,-536.226233904998 53.2489240558449,-480.056697297486 109.418460663357,-357.830463392486 " style="fill: rgb(14,173,105); fill-opacity: 1; stroke: rgb(0,0,0); stroke-width: 3" />
	<circle cx="231.644694568368" cy="-413.999999999998" r="2" style="fill: rgb(0,0,0)" />
	<circle cx="314.986008726305" cy="-413.999999999998" r="2" style="fill: rgb(0,0,0)" />
	<circle cx="229.752767091818" cy="-599.469540211659" r="2" style="fill: rgb(0,0,0)" />
	<circle cx="175.475157960851" cy="-536.226233904998" r="2" style="fill: rgb(0,0,0)" />
	<circle cx="175.475157960851" cy="-291.773766094998" r="2" style="fill: rgb(0,0,0)" />
	<circle cx="229.752767091818" cy="-228.530459788337" r="2" style="fill: rgb(0,0,0)" />
	<circle cx="33.500000000002" cy="-655.581100826691" r="2" style="fill: rgb(0,0,0)" />
	<circle cx="46.1426724880708" cy="-573.20429900766" r="2" style="fill: rgb(0,0,0)" />
	<circle cx="411.268454811444" cy="-570.566371341198" r="2" style="fill: rgb(0,0,0)" />
	<circle cx="53.2489240558449" cy="-480.056697297486" r="2" style="fill: rgb(0,0,0)" />
	<circle cx="109.418460663357" cy="-357.830463392486" r="2" style="fill: rgb(0,0,0)" />
	<circle cx="46.1426724880684" cy="-254.79570099233" r="2" style="fill: rgb(0,0,0)" />
	<circle cx="33.5" cy="-172.4188991733" r="2" style="fill: rgb(0,0,0)" />
	<circle cx="411.268454811454" cy="-257.43362865882" r="2" style="fill: rgb(0,0,0)" />
	<circle cx="173.648612117611" cy="-774.5" r="2" style="fill: rgb(0,0,0)" />
	<circle cx="173.648612117632" cy="-53.5" r="2" style="fill: rgb(0,0,0)" />
	<!--
	Generated using the Perl SVG Module V2.87
	by Ronan Oger

	-->
</svg>