<?xml version="1.0" encoding="UTF-8" standalone="yes"?>
<!DOCTYPE svg PUBLIC "-//W3C//DTD SVG 1.0//EN" "http://www.w3.org/TR/2001/REC-SVG-20010904/DTD/svg10.dtd">
<!-- generated using polymake; Michael Joswig, Georg Loho, Benjamin Lorenz, Rico Raber; license CC BY-NC-ND 3.0; see polymake.org and matchthenet.de -->
<svg height="841pt" id="document" viewBox="0 -503.815282688705 572 503.815282688705" width="595pt" xmlns="http://www.w3.org/2000/svg" xmlns:svg="http://www.w3.org/2000/svg" xmlns:xlink="http://www.w3.org/1999/xlink">
	<title id="document_title">planar_net_</title>
	<polygon points="283.414171009259,-277.17530379594 335.948246661225,-277.17530379594 335.948246661227,-329.709379447906 283.414171009265,-329.709379447911 " style="fill: rgb(67,184,206); fill-opacity: 1; stroke: rgb(0,0,0); stroke-width: 3" />
	<polygon points="309.681208835243,-231.679459717004 335.948246661225,-277.17530379594 283.414171009259,-277.17530379594 " style="fill: rgb(14,173,105); fill-opacity: 1; stroke: rgb(0,0,0); stroke-width: 3" />
	<polygon points="283.414171009259,-277.17530379594 283.414171009265,-329.709379447911 237.918326930327,-303.442341621925 " style="fill: rgb(14,173,105); fill-opacity: 1; stroke: rgb(0,0,0); stroke-width: 3" />
	<polygon points="355.177052914188,-152.878346239051 309.681208835249,-179.145384065033 270.640782353254,-143.993226169526 292.008315931023,-96.0009599862209 344.254604419836,-101.492266183313 " style="fill: rgb(255,210,63); fill-opacity: 1; stroke: rgb(0,0,0); stroke-width: 3" />
	<polygon points="187.955451953973,-234.674343809733 157.076697042933,-277.175303795955 135.709163465156,-229.183037612649 " style="fill: rgb(14,173,105); fill-opacity: 1; stroke: rgb(0,0,0); stroke-width: 3" />
	<polygon points="355.17705291418,-205.412421891017 309.681208835249,-179.145384065033 355.177052914188,-152.878346239051 " style="fill: rgb(14,173,105); fill-opacity: 1; stroke: rgb(0,0,0); stroke-width: 3" />
	<polygon points="381.444090740164,-250.908265969942 355.17705291418,-205.412421891017 407.711128566147,-205.412421891009 " style="fill: rgb(14,173,105); fill-opacity: 1; stroke: rgb(0,0,0); stroke-width: 3" />
	<polygon points="407.711128566147,-205.412421891009 355.17705291418,-205.412421891017 381.444090740172,-159.916577812081 " style="fill: rgb(14,173,105); fill-opacity: 1; stroke: rgb(0,0,0); stroke-width: 3" />
	<polygon points="157.076697042933,-277.175303795955 118.036270560939,-312.327461691462 72.5404264819991,-286.060423865487 83.4628749763435,-234.674343809746 135.709163465156,-229.183037612649 " style="fill: rgb(255,210,63); fill-opacity: 1; stroke: rgb(0,0,0); stroke-width: 3" />
	<polygon points="157.076697042933,-277.175303795955 187.955451953982,-319.676263782167 135.709163465163,-325.167569979268 " style="fill: rgb(14,173,105); fill-opacity: 1; stroke: rgb(0,0,0); stroke-width: 3" />
	<polygon points="344.254604419836,-101.492266183313 292.008315931023,-96.0009599862209 322.88707084207,-53.5 " style="fill: rgb(14,173,105); fill-opacity: 1; stroke: rgb(0,0,0); stroke-width: 3" />
	<polygon points="480.658370112608,-224.571320527566 449.779615201561,-182.070360541341 502.025903690385,-176.579054344259 " style="fill: rgb(14,173,105); fill-opacity: 1; stroke: rgb(0,0,0); stroke-width: 3" />
	<polygon points="480.658370112608,-224.571320527566 428.412081623787,-230.062626724653 449.779615201561,-182.070360541341 " style="fill: rgb(14,173,105); fill-opacity: 1; stroke: rgb(0,0,0); stroke-width: 3" />
	<polygon points="416.789876548616,-303.442341621917 385.91112163757,-260.941381635701 428.412081623787,-230.062626724653 459.290836534832,-272.563586710864 " style="fill: rgb(67,184,206); fill-opacity: 1; stroke: rgb(0,0,0); stroke-width: 3" />
	<polygon points="319.714324500998,-379.672254424258 369.677199477345,-395.906176584486 330.636772995347,-431.058334479994 " style="fill: rgb(14,173,105); fill-opacity: 1; stroke: rgb(0,0,0); stroke-width: 3" />
	<polygon points="459.290836534832,-272.563586710864 428.412081623787,-230.062626724653 480.658370112608,-224.571320527566 " style="fill: rgb(14,173,105); fill-opacity: 1; stroke: rgb(0,0,0); stroke-width: 3" />
	<polygon points="226.995878435975,-407.362497329639 205.6283448582,-455.354763512949 174.74958994716,-412.853803526724 " style="fill: rgb(14,173,105); fill-opacity: 1; stroke: rgb(0,0,0); stroke-width: 3" />
	<polygon points="330.636772995347,-431.058334479994 369.677199477345,-395.906176584486 380.599647971703,-447.29225664023 " style="fill: rgb(14,173,105); fill-opacity: 1; stroke: rgb(0,0,0); stroke-width: 3" />
	<polygon points="385.911121637574,-345.943301608138 416.789876548616,-303.442341621917 459.290836534839,-334.321096532958 428.4120816238,-376.822056519177 " style="fill: rgb(67,184,206); fill-opacity: 1; stroke: rgb(0,0,0); stroke-width: 3" />
	<polygon points="385.911121637574,-345.943301608138 428.4120816238,-376.822056519177 380.419815440499,-398.189590096955 " style="fill: rgb(14,173,105); fill-opacity: 1; stroke: rgb(0,0,0); stroke-width: 3" />
	<polygon points="449.779615201566,-424.814322702489 480.65837011261,-382.313362716271 530.621245088959,-398.547284876512 530.621245088961,-451.081360528474 480.65837011261,-467.315282688705 " style="fill: rgb(255,210,63); fill-opacity: 1; stroke: rgb(0,0,0); stroke-width: 3" />
	<polygon points="380.419815440499,-398.189590096955 428.4120816238,-376.822056519177 422.920775426717,-429.068345007997 " style="fill: rgb(14,173,105); fill-opacity: 1; stroke: rgb(0,0,0); stroke-width: 3" />
	<polygon points="480.65837011261,-382.313362716271 511.53712502366,-339.812402730046 532.904658601429,-387.804668913363 " style="fill: rgb(14,173,105); fill-opacity: 1; stroke: rgb(0,0,0); stroke-width: 3" />
	<polygon points="428.4120816238,-376.822056519177 459.290836534839,-334.321096532958 480.65837011261,-382.313362716271 " style="fill: rgb(14,173,105); fill-opacity: 1; stroke: rgb(0,0,0); stroke-width: 3" />
	<polygon points="480.65837011261,-382.313362716271 459.290836534839,-334.321096532958 511.53712502366,-339.812402730046 " style="fill: rgb(14,173,105); fill-opacity: 1; stroke: rgb(0,0,0); stroke-width: 3" />
	<polygon points="428.4120816238,-376.822056519177 480.65837011261,-382.313362716271 449.779615201566,-424.814322702489 " style="fill: rgb(14,173,105); fill-opacity: 1; stroke: rgb(0,0,0); stroke-width: 3" />
	<polygon points="464.782142731932,-324.809875199676 459.290836534832,-272.563586710864 507.283102718148,-293.931120288631 " style="fill: rgb(14,173,105); fill-opacity: 1; stroke: rgb(0,0,0); stroke-width: 3" />
	<polygon points="416.789876548616,-303.442341621917 459.290836534832,-272.563586710864 464.782142731932,-324.809875199676 " style="fill: rgb(14,173,105); fill-opacity: 1; stroke: rgb(0,0,0); stroke-width: 3" />
	<polygon points="459.290836534832,-272.563586710864 480.658370112608,-224.571320527566 511.537125023649,-267.072280513789 " style="fill: rgb(14,173,105); fill-opacity: 1; stroke: rgb(0,0,0); stroke-width: 3" />
	<polygon points="33.5,-250.908265969979 83.4628749763435,-234.674343809746 72.5404264819991,-286.060423865487 " style="fill: rgb(14,173,105); fill-opacity: 1; stroke: rgb(0,0,0); stroke-width: 3" />
	<polygon points="511.537125023649,-267.072280513789 480.658370112608,-224.571320527566 511.537125023658,-182.070360541346 561.5,-198.304282701583 561.499999999991,-250.838358353551 " style="fill: rgb(255,210,63); fill-opacity: 1; stroke: rgb(0,0,0); stroke-width: 3" />
	<polygon points="153.382056369392,-364.861537343412 174.74958994716,-412.853803526724 122.503301458338,-407.362497329641 " style="fill: rgb(14,173,105); fill-opacity: 1; stroke: rgb(0,0,0); stroke-width: 3" />
	<polygon points="335.948246661227,-329.709379447906 385.911121637574,-345.943301608138 369.677199477345,-395.906176584486 319.714324500998,-379.672254424258 " style="fill: rgb(67,184,206); fill-opacity: 1; stroke: rgb(0,0,0); stroke-width: 3" />
	<polygon points="257.147133183277,-375.20522352684 309.681208835247,-375.205223526848 283.414171009266,-420.701067605791 " style="fill: rgb(14,173,105); fill-opacity: 1; stroke: rgb(0,0,0); stroke-width: 3" />
	<polygon points="237.918326930328,-355.976417273898 226.995878435975,-407.362497329639 174.74958994716,-412.853803526724 153.382056369392,-364.861537343412 192.422482851389,-329.70937944791 " style="fill: rgb(255,210,63); fill-opacity: 1; stroke: rgb(0,0,0); stroke-width: 3" />
	<polygon points="335.948246661227,-329.709379447906 335.948246661225,-277.17530379594 385.91112163757,-260.941381635701 416.789876548616,-303.442341621917 385.911121637574,-345.943301608138 " style="fill: rgb(255,210,63); fill-opacity: 1; stroke: rgb(0,0,0); stroke-width: 3" />
	<polygon points="283.414171009265,-329.709379447911 309.681208835247,-375.205223526848 257.147133183277,-375.20522352684 " style="fill: rgb(14,173,105); fill-opacity: 1; stroke: rgb(0,0,0); stroke-width: 3" />
	<polygon points="283.414171009265,-329.709379447911 335.948246661227,-329.709379447906 309.681208835247,-375.205223526848 " style="fill: rgb(14,173,105); fill-opacity: 1; stroke: rgb(0,0,0); stroke-width: 3" />
	<polygon points="237.918326930327,-303.442341621925 237.918326930328,-355.976417273898 192.422482851389,-329.70937944791 " style="fill: rgb(14,173,105); fill-opacity: 1; stroke: rgb(0,0,0); stroke-width: 3" />
	<polygon points="237.918326930327,-303.442341621925 283.414171009265,-329.709379447911 237.918326930328,-355.976417273898 " style="fill: rgb(14,173,105); fill-opacity: 1; stroke: rgb(0,0,0); stroke-width: 3" />
	<polygon points="355.17705291418,-205.412421891017 309.681208835243,-231.679459717004 309.681208835249,-179.145384065033 " style="fill: rgb(14,173,105); fill-opacity: 1; stroke: rgb(0,0,0); stroke-width: 3" />
	<polygon points="381.444090740164,-250.908265969942 335.948246661225,-277.17530379594 309.681208835243,-231.679459717004 355.17705291418,-205.412421891017 " style="fill: rgb(67,184,206); fill-opacity: 1; stroke: rgb(0,0,0); stroke-width: 3" />
	<polygon points="257.147133183281,-231.679459716996 230.880095357302,-186.18361563805 283.414171009264,-186.183615638059 " style="fill: rgb(14,173,105); fill-opacity: 1; stroke: rgb(0,0,0); stroke-width: 3" />
	<polygon points="283.414171009264,-186.183615638059 309.681208835243,-231.679459717004 257.147133183281,-231.679459716996 " style="fill: rgb(14,173,105); fill-opacity: 1; stroke: rgb(0,0,0); stroke-width: 3" />
	<polygon points="283.414171009259,-277.17530379594 237.918326930327,-303.442341621925 237.918326930322,-250.908265969959 " style="fill: rgb(14,173,105); fill-opacity: 1; stroke: rgb(0,0,0); stroke-width: 3" />
	<polygon points="283.414171009259,-277.17530379594 257.147133183281,-231.679459716996 309.681208835243,-231.679459717004 " style="fill: rgb(14,173,105); fill-opacity: 1; stroke: rgb(0,0,0); stroke-width: 3" />
	<polygon points="237.918326930322,-250.908265969959 237.918326930327,-303.442341621925 187.955451953982,-319.676263782167 157.076697042933,-277.175303795955 187.955451953973,-234.674343809733 " style="fill: rgb(255,210,63); fill-opacity: 1; stroke: rgb(0,0,0); stroke-width: 3" />
	<circle cx="283.414171009259" cy="-277.17530379594" r="2" style="fill: rgb(0,0,0)" />
	<circle cx="335.948246661225" cy="-277.17530379594" r="2" style="fill: rgb(0,0,0)" />
	<circle cx="335.948246661227" cy="-329.709379447906" r="2" style="fill: rgb(0,0,0)" />
	<circle cx="283.414171009265" cy="-329.709379447911" r="2" style="fill: rgb(0,0,0)" />
	<circle cx="309.681208835243" cy="-231.679459717004" r="2" style="fill: rgb(0,0,0)" />
	<circle cx="237.918326930327" cy="-303.442341621925" r="2" style="fill: rgb(0,0,0)" />
	<circle cx="385.91112163757" cy="-260.941381635701" r="2" style="fill: rgb(0,0,0)" />
	<circle cx="416.789876548616" cy="-303.442341621917" r="2" style="fill: rgb(0,0,0)" />
	<circle cx="385.911121637574" cy="-345.943301608138" r="2" style="fill: rgb(0,0,0)" />
	<circle cx="309.681208835247" cy="-375.205223526848" r="2" style="fill: rgb(0,0,0)" />
	<circle cx="355.17705291418" cy="-205.412421891017" r="2" style="fill: rgb(0,0,0)" />
	<circle cx="381.444090740164" cy="-250.908265969942" r="2" style="fill: rgb(0,0,0)" />
	<circle cx="257.147133183281" cy="-231.679459716996" r="2" style="fill: rgb(0,0,0)" />
	<circle cx="237.918326930328" cy="-355.976417273898" r="2" style="fill: rgb(0,0,0)" />
	<circle cx="237.918326930322" cy="-250.908265969959" r="2" style="fill: rgb(0,0,0)" />
	<circle cx="428.412081623787" cy="-230.062626724653" r="2" style="fill: rgb(0,0,0)" />
	<circle cx="459.290836534832" cy="-272.563586710864" r="2" style="fill: rgb(0,0,0)" />
	<circle cx="459.290836534839" cy="-334.321096532958" r="2" style="fill: rgb(0,0,0)" />
	<circle cx="428.4120816238" cy="-376.822056519177" r="2" style="fill: rgb(0,0,0)" />
	<circle cx="369.677199477345" cy="-395.906176584486" r="2" style="fill: rgb(0,0,0)" />
	<circle cx="319.714324500998" cy="-379.672254424258" r="2" style="fill: rgb(0,0,0)" />
	<circle cx="257.147133183277" cy="-375.20522352684" r="2" style="fill: rgb(0,0,0)" />
	<circle cx="407.711128566147" cy="-205.412421891009" r="2" style="fill: rgb(0,0,0)" />
	<circle cx="309.681208835249" cy="-179.145384065033" r="2" style="fill: rgb(0,0,0)" />
	<circle cx="283.414171009264" cy="-186.183615638059" r="2" style="fill: rgb(0,0,0)" />
	<circle cx="192.422482851389" cy="-329.70937944791" r="2" style="fill: rgb(0,0,0)" />
	<circle cx="187.955451953982" cy="-319.676263782167" r="2" style="fill: rgb(0,0,0)" />
	<circle cx="157.076697042933" cy="-277.175303795955" r="2" style="fill: rgb(0,0,0)" />
	<circle cx="187.955451953973" cy="-234.674343809733" r="2" style="fill: rgb(0,0,0)" />
	<circle cx="480.658370112608" cy="-224.571320527566" r="2" style="fill: rgb(0,0,0)" />
	<circle cx="464.782142731932" cy="-324.809875199676" r="2" style="fill: rgb(0,0,0)" />
	<circle cx="380.419815440499" cy="-398.189590096955" r="2" style="fill: rgb(0,0,0)" />
	<circle cx="480.65837011261" cy="-382.313362716271" r="2" style="fill: rgb(0,0,0)" />
	<circle cx="330.636772995347" cy="-431.058334479994" r="2" style="fill: rgb(0,0,0)" />
	<circle cx="283.414171009266" cy="-420.701067605791" r="2" style="fill: rgb(0,0,0)" />
	<circle cx="381.444090740172" cy="-159.916577812081" r="2" style="fill: rgb(0,0,0)" />
	<circle cx="355.177052914188" cy="-152.878346239051" r="2" style="fill: rgb(0,0,0)" />
	<circle cx="230.880095357302" cy="-186.18361563805" r="2" style="fill: rgb(0,0,0)" />
	<circle cx="226.995878435975" cy="-407.362497329639" r="2" style="fill: rgb(0,0,0)" />
	<circle cx="174.74958994716" cy="-412.853803526724" r="2" style="fill: rgb(0,0,0)" />
	<circle cx="153.382056369392" cy="-364.861537343412" r="2" style="fill: rgb(0,0,0)" />
	<circle cx="135.709163465156" cy="-229.183037612649" r="2" style="fill: rgb(0,0,0)" />
	<circle cx="135.709163465163" cy="-325.167569979268" r="2" style="fill: rgb(0,0,0)" />
	<circle cx="449.779615201561" cy="-182.070360541341" r="2" style="fill: rgb(0,0,0)" />
	<circle cx="511.537125023649" cy="-267.072280513789" r="2" style="fill: rgb(0,0,0)" />
	<circle cx="507.283102718148" cy="-293.931120288631" r="2" style="fill: rgb(0,0,0)" />
	<circle cx="422.920775426717" cy="-429.068345007997" r="2" style="fill: rgb(0,0,0)" />
	<circle cx="511.53712502366" cy="-339.812402730046" r="2" style="fill: rgb(0,0,0)" />
	<circle cx="449.779615201566" cy="-424.814322702489" r="2" style="fill: rgb(0,0,0)" />
	<circle cx="380.599647971703" cy="-447.29225664023" r="2" style="fill: rgb(0,0,0)" />
	<circle cx="270.640782353254" cy="-143.993226169526" r="2" style="fill: rgb(0,0,0)" />
	<circle cx="292.008315931023" cy="-96.0009599862209" r="2" style="fill: rgb(0,0,0)" />
	<circle cx="344.254604419836" cy="-101.492266183313" r="2" style="fill: rgb(0,0,0)" />
	<circle cx="205.6283448582" cy="-455.354763512949" r="2" style="fill: rgb(0,0,0)" />
	<circle cx="122.503301458338" cy="-407.362497329641" r="2" style="fill: rgb(0,0,0)" />
	<circle cx="118.036270560939" cy="-312.327461691462" r="2" style="fill: rgb(0,0,0)" />
	<circle cx="72.5404264819991" cy="-286.060423865487" r="2" style="fill: rgb(0,0,0)" />
	<circle cx="83.4628749763435" cy="-234.674343809746" r="2" style="fill: rgb(0,0,0)" />
	<circle cx="502.025903690385" cy="-176.579054344259" r="2" style="fill: rgb(0,0,0)" />
	<circle cx="511.537125023658" cy="-182.070360541346" r="2" style="fill: rgb(0,0,0)" />
	<circle cx="561.5" cy="-198.304282701583" r="2" style="fill: rgb(0,0,0)" />
	<circle cx="561.499999999991" cy="-250.838358353551" r="2" style="fill: rgb(0,0,0)" />
	<circle cx="532.904658601429" cy="-387.804668913363" r="2" style="fill: rgb(0,0,0)" />
	<circle cx="530.621245088959" cy="-398.547284876512" r="2" style="fill: rgb(0,0,0)" />
	<circle cx="530.621245088961" cy="-451.081360528474" r="2" style="fill: rgb(0,0,0)" />
	<circle cx="480.65837011261" cy="-467.315282688705" r="2" style="fill: rgb(0,0,0)" />
	<circle cx="322.88707084207" cy="-53.5" r="2" style="fill: rgb(0,0,0)" />
	<circle cx="33.5" cy="-250.908265969979" r="2" style="fill: rgb(0,0,0)" />
	<!--
	Generated using the Perl SVG Module V2.87
	by Ronan Oger

	-->
</svg>