<?xml version="1.0" encoding="UTF-8" standalone="yes"?>
<!DOCTYPE svg PUBLIC "-//W3C//DTD SVG 1.0//EN" "http://www.w3.org/TR/2001/REC-SVG-20010904/DTD/svg10.dtd">
<!-- generated using polymake; Michael Joswig, Georg Loho, Benjamin Lorenz, Rico Raber; license CC BY-NC-ND 3.0; see polymake.org and matchthenet.de -->
<svg height="841pt" id="document" viewBox="0 -773.188803813101 572 773.188803813101" width="595pt" xmlns="http://www.w3.org/2000/svg" xmlns:svg="http://www.w3.org/2000/svg" xmlns:xlink="http://www.w3.org/1999/xlink">
	<title id="document_title">planar_net_</title>
	<polygon points="291.421453616364,-395.324300074121 330.960355647757,-395.324300074121 311.19090463206,-429.565993671052 " style="fill: rgb(186,59,38); fill-opacity: 1; stroke: rgb(0,0,0); stroke-width: 3" />
	<polygon points="362.94799933008,-372.083916568232 330.960355647757,-395.324300074121 291.421453616364,-395.324300074121 259.433809934041,-372.083916568232 247.215617267414,-334.48018614412 259.43380993404,-296.876455720008 291.421453616363,-273.636072214118 330.960355647756,-273.636072214118 362.947999330079,-296.876455720008 375.166191996706,-334.48018614412 " style="fill: rgb(91,98,49); fill-opacity: 1; stroke: rgb(0,0,0); stroke-width: 3" />
	<polygon points="401.622881487748,-363.863316593796 362.94799933008,-372.083916568232 375.166191996706,-334.48018614412 413.841074154367,-326.259586169691 " style="fill: rgb(216,176,92); fill-opacity: 1; stroke: rgb(0,0,0); stroke-width: 3" />
	<polygon points="259.433809934041,-372.083916568232 220.758927776384,-363.863316593807 247.215617267414,-334.48018614412 " style="fill: rgb(186,59,38); fill-opacity: 1; stroke: rgb(0,0,0); stroke-width: 3" />
	<polygon points="432.212511647397,-416.846110215081 405.755822156368,-387.462979765394 435.138952606058,-361.006290274361 461.595642097084,-390.38942072404 " style="fill: rgb(216,176,92); fill-opacity: 1; stroke: rgb(0,0,0); stroke-width: 3" />
	<polygon points="215.227973585091,-357.720569650009 175.689071553698,-357.720569650009 143.701427871375,-334.48018614412 131.483235204748,-296.876455720008 143.701427871375,-259.272725295896 175.689071553698,-236.032341790007 215.227973585091,-236.032341790007 247.215617267414,-259.272725295896 259.43380993404,-296.876455720008 247.215617267414,-334.48018614412 " style="fill: rgb(91,98,49); fill-opacity: 1; stroke: rgb(0,0,0); stroke-width: 3" />
	<polygon points="375.166191996706,-334.48018614412 362.947999330079,-296.876455720008 400.551729754194,-284.658263053377 412.769922420822,-322.261993477483 " style="fill: rgb(216,176,92); fill-opacity: 1; stroke: rgb(0,0,0); stroke-width: 3" />
	<polygon points="151.794663351159,-475.93786501983 171.564114366855,-510.179558616755 145.107424875827,-539.562689066445 108.986840524873,-523.480768783305 113.119781193505,-484.158464994266 " style="fill: rgb(61,81,50); fill-opacity: 1; stroke: rgb(0,0,0); stroke-width: 3" />
	<polygon points="362.947999330079,-296.876455720008 330.960355647756,-273.636072214118 367.080939998712,-257.554151930965 399.068583681033,-280.794535436858 " style="fill: rgb(216,176,92); fill-opacity: 1; stroke: rgb(0,0,0); stroke-width: 3" />
	<polygon points="291.421453616363,-273.636072214118 259.43380993404,-296.876455720008 255.300869265408,-257.554151930965 " style="fill: rgb(186,59,38); fill-opacity: 1; stroke: rgb(0,0,0); stroke-width: 3" />
	<polygon points="286.996248537429,-659.762769599947 282.863307868797,-699.085073388989 256.406618377767,-728.468203838677 217.731736220111,-736.688803813101 181.611151869157,-720.606883529948 161.841700853461,-686.365189933016 165.974641522093,-647.042886143974 192.431331013122,-617.659755694287 231.106213170778,-609.439155719864 267.226797521733,-625.521076003016 " style="fill: rgb(91,98,49); fill-opacity: 1; stroke: rgb(0,0,0); stroke-width: 3" />
	<polygon points="129.025504592683,-575.683273417413 92.9049202417371,-559.601353134286 108.986840524873,-523.480768783305 145.107424875827,-539.562689066445 " style="fill: rgb(216,176,92); fill-opacity: 1; stroke: rgb(0,0,0); stroke-width: 3" />
	<polygon points="464.527017118841,-284.658263053361 432.539373436516,-261.417879547483 455.7797569424,-229.430235865145 487.767400624721,-252.670619371009 " style="fill: rgb(216,176,92); fill-opacity: 1; stroke: rgb(0,0,0); stroke-width: 3" />
	<polygon points="33.5,-227.811741815598 59.9566894910316,-198.428611365893 72.1748821576578,-236.032341790005 45.7181926666236,-265.415472239694 " style="fill: rgb(216,176,92); fill-opacity: 1; stroke: rgb(0,0,0); stroke-width: 3" />
	<polygon points="215.227973585091,-236.032341790007 175.689071553698,-236.032341790007 195.458522569394,-201.790648193075 " style="fill: rgb(186,59,38); fill-opacity: 1; stroke: rgb(0,0,0); stroke-width: 3" />
	<polygon points="330.960355647756,-151.947844354115 291.421453616363,-151.947844354114 311.190904632059,-117.706150757182 " style="fill: rgb(186,59,38); fill-opacity: 1; stroke: rgb(0,0,0); stroke-width: 3" />
	<polygon points="68.041941489027,-121.502577152738 104.162525839983,-137.584497435893 72.174882157659,-160.824880941782 " style="fill: rgb(186,59,38); fill-opacity: 1; stroke: rgb(0,0,0); stroke-width: 3" />
	<polygon points="175.689071553698,-236.032341790007 143.701427871375,-259.272725295896 104.162525839981,-259.272725295895 72.1748821576578,-236.032341790005 59.9566894910316,-198.428611365893 72.174882157659,-160.824880941782 104.162525839983,-137.584497435893 143.701427871376,-137.584497435894 175.6890715537,-160.824880941784 187.907264220326,-198.428611365896 " style="fill: rgb(91,98,49); fill-opacity: 1; stroke: rgb(0,0,0); stroke-width: 3" />
	<polygon points="521.961097968605,-551.254221531054 541.730548984302,-517.012527934124 561.5,-551.254221531056 " style="fill: rgb(186,59,38); fill-opacity: 1; stroke: rgb(0,0,0); stroke-width: 3" />
	<polygon points="434.474545043798,-76.740383505893 446.692737710424,-114.344113930006 434.474545043796,-151.947844354119 402.486901361472,-175.188227860008 362.947999330079,-175.188227860005 330.960355647756,-151.947844354115 318.74216298113,-114.344113930001 330.960355647757,-76.740383505889 362.947999330081,-53.5 402.486901361475,-53.5000000000018 " style="fill: rgb(91,98,49); fill-opacity: 1; stroke: rgb(0,0,0); stroke-width: 3" />
	<polygon points="375.166191996705,-212.791958284117 362.947999330079,-175.188227860005 401.622881487735,-183.408827834428 413.84107415436,-221.012558258545 " style="fill: rgb(216,176,92); fill-opacity: 1; stroke: rgb(0,0,0); stroke-width: 3" />
	<polygon points="80.922142334087,-291.260368978218 48.9344986517708,-268.01998547234 72.1748821576578,-236.032341790005 104.162525839981,-259.272725295895 " style="fill: rgb(216,176,92); fill-opacity: 1; stroke: rgb(0,0,0); stroke-width: 3" />
	<polygon points="143.701427871375,-259.272725295896 131.483235204748,-296.876455720008 92.8083530470861,-305.097055694434 105.026545713707,-267.493325270333 " style="fill: rgb(216,176,92); fill-opacity: 1; stroke: rgb(0,0,0); stroke-width: 3" />
	<polygon points="537.597608315671,-477.690224145083 511.140918824641,-448.307093695396 523.359111491271,-410.70336327128 549.815800982292,-440.086493720954 " style="fill: rgb(216,176,92); fill-opacity: 1; stroke: rgb(0,0,0); stroke-width: 3" />
	<polygon points="330.960355647756,-273.636072214118 291.421453616363,-273.636072214118 259.43380993404,-250.395688708228 247.215617267414,-212.791958284115 259.43380993404,-175.188227860003 291.421453616363,-151.947844354114 330.960355647756,-151.947844354115 362.947999330079,-175.188227860005 375.166191996705,-212.791958284117 362.947999330079,-250.395688708229 " style="fill: rgb(91,98,49); fill-opacity: 1; stroke: rgb(0,0,0); stroke-width: 3" />
	<polygon points="367.080939998712,-257.554151930965 390.321323504605,-225.566508248638 422.308967186924,-248.806891754524 399.068583681033,-280.794535436858 " style="fill: rgb(216,176,92); fill-opacity: 1; stroke: rgb(0,0,0); stroke-width: 3" />
	<polygon points="143.701427871375,-334.48018614412 106.097697447258,-346.698378810747 93.8795047806318,-309.094648386645 131.483235204748,-296.876455720008 " style="fill: rgb(216,176,92); fill-opacity: 1; stroke: rgb(0,0,0); stroke-width: 3" />
	<polygon points="211.336762155082,-575.197462122933 231.106213170778,-609.439155719864 191.567311139385,-609.439155719865 171.79786012369,-575.19746212293 " style="fill: rgb(216,176,92); fill-opacity: 1; stroke: rgb(0,0,0); stroke-width: 3" />
	<polygon points="305.901679679389,-617.300476028592 293.683487012762,-654.904206452705 267.226797521733,-625.521076003016 " style="fill: rgb(186,59,38); fill-opacity: 1; stroke: rgb(0,0,0); stroke-width: 3" />
	<polygon points="468.333095998358,-432.928030498217 464.200155329724,-393.605726709188 503.522459118772,-389.472786040549 507.655399787411,-428.795089829564 " style="fill: rgb(216,176,92); fill-opacity: 1; stroke: rgb(0,0,0); stroke-width: 3" />
	<polygon points="452.308824452216,-322.261993477472 412.769922420822,-322.261993477483 400.551729754194,-284.658263053377 432.539373436516,-261.417879547483 464.527017118841,-284.658263053361 " style="fill: rgb(61,81,50); fill-opacity: 1; stroke: rgb(0,0,0); stroke-width: 3" />
	<polygon points="190.169297616723,-416.846110215081 186.036356948091,-456.168414004123 149.915772597132,-472.250334287279 154.048713265759,-432.928030498247 " style="fill: rgb(216,176,92); fill-opacity: 1; stroke: rgb(0,0,0); stroke-width: 3" />
	<polygon points="209.93874863242,-529.732411390096 193.856828349264,-565.852995741055 157.736243998315,-549.771075457907 173.818164281466,-513.650491106942 " style="fill: rgb(216,176,92); fill-opacity: 1; stroke: rgb(0,0,0); stroke-width: 3" />
	<polygon points="436.345452316029,-456.168414004122 432.212511647397,-416.846110215081 464.200155329724,-393.605726709188 468.333095998358,-432.928030498217 " style="fill: rgb(216,176,92); fill-opacity: 1; stroke: rgb(0,0,0); stroke-width: 3" />
	<polygon points="186.036356948091,-456.168414004123 205.805807963788,-490.410107601054 171.564114366855,-510.179558616755 151.794663351159,-475.93786501983 " style="fill: rgb(216,176,92); fill-opacity: 1; stroke: rgb(0,0,0); stroke-width: 3" />
	<polygon points="416.576001300333,-490.410107601053 436.345452316029,-456.168414004122 472.466036666985,-440.086493720971 511.140918824641,-448.307093695396 537.597608315671,-477.690224145083 541.730548984302,-517.012527934124 521.961097968605,-551.254221531054 485.84051361765,-567.336141814206 447.165631459993,-559.115541839781 420.708941968964,-529.732411390094 " style="fill: rgb(91,98,49); fill-opacity: 1; stroke: rgb(0,0,0); stroke-width: 3" />
	<polygon points="205.805807963788,-490.410107601054 241.926392314743,-506.492027884205 209.93874863242,-529.732411390096 173.818164281466,-513.650491106942 " style="fill: rgb(216,176,92); fill-opacity: 1; stroke: rgb(0,0,0); stroke-width: 3" />
	<polygon points="380.455416949378,-506.492027884205 416.576001300333,-490.410107601053 412.443060631702,-529.732411390095 " style="fill: rgb(186,59,38); fill-opacity: 1; stroke: rgb(0,0,0); stroke-width: 3" />
	<polygon points="316.721858823354,-514.353348192933 336.49130983905,-548.595041789864 332.358369170418,-587.917345578905 305.901679679389,-617.300476028592 267.226797521733,-625.521076003016 231.106213170778,-609.439155719864 211.336762155082,-575.197462122933 215.469702823714,-535.875158333892 241.926392314743,-506.492027884205 280.601274472399,-498.271427909781 " style="fill: rgb(91,98,49); fill-opacity: 1; stroke: rgb(0,0,0); stroke-width: 3" />
	<polygon points="307.057963963429,-468.888297460093 319.276156630055,-506.492027884206 280.601274472399,-498.271427909781 " style="fill: rgb(186,59,38); fill-opacity: 1; stroke: rgb(0,0,0); stroke-width: 3" />
	<polygon points="291.421453616364,-395.324300074121 311.19090463206,-429.565993671052 307.057963963429,-468.888297460093 280.601274472399,-498.271427909781 241.926392314743,-506.492027884205 205.805807963788,-490.410107601054 186.036356948091,-456.168414004123 190.169297616723,-416.846110215081 216.625987107753,-387.462979765394 255.300869265409,-379.242379790969 " style="fill: rgb(91,98,49); fill-opacity: 1; stroke: rgb(0,0,0); stroke-width: 3" />
	<polygon points="311.19090463206,-429.565993671052 330.960355647757,-395.324300074121 367.080939998712,-379.242379790969 405.755822156368,-387.462979765394 432.212511647397,-416.846110215081 436.345452316029,-456.168414004122 416.576001300333,-490.410107601053 380.455416949378,-506.492027884205 341.780534791722,-498.27142790978 315.323845300692,-468.888297460093 " style="fill: rgb(91,98,49); fill-opacity: 1; stroke: rgb(0,0,0); stroke-width: 3" />
	<circle cx="291.421453616364" cy="-395.324300074121" r="2" style="fill: rgb(0,0,0)" />
	<circle cx="330.960355647757" cy="-395.324300074121" r="2" style="fill: rgb(0,0,0)" />
	<circle cx="311.19090463206" cy="-429.565993671052" r="2" style="fill: rgb(0,0,0)" />
	<circle cx="259.433809934041" cy="-372.083916568232" r="2" style="fill: rgb(0,0,0)" />
	<circle cx="247.215617267414" cy="-334.48018614412" r="2" style="fill: rgb(0,0,0)" />
	<circle cx="259.43380993404" cy="-296.876455720008" r="2" style="fill: rgb(0,0,0)" />
	<circle cx="291.421453616363" cy="-273.636072214118" r="2" style="fill: rgb(0,0,0)" />
	<circle cx="330.960355647756" cy="-273.636072214118" r="2" style="fill: rgb(0,0,0)" />
	<circle cx="362.947999330079" cy="-296.876455720008" r="2" style="fill: rgb(0,0,0)" />
	<circle cx="375.166191996706" cy="-334.48018614412" r="2" style="fill: rgb(0,0,0)" />
	<circle cx="362.94799933008" cy="-372.083916568232" r="2" style="fill: rgb(0,0,0)" />
	<circle cx="307.057963963429" cy="-468.888297460093" r="2" style="fill: rgb(0,0,0)" />
	<circle cx="280.601274472399" cy="-498.271427909781" r="2" style="fill: rgb(0,0,0)" />
	<circle cx="241.926392314743" cy="-506.492027884205" r="2" style="fill: rgb(0,0,0)" />
	<circle cx="205.805807963788" cy="-490.410107601054" r="2" style="fill: rgb(0,0,0)" />
	<circle cx="186.036356948091" cy="-456.168414004123" r="2" style="fill: rgb(0,0,0)" />
	<circle cx="190.169297616723" cy="-416.846110215081" r="2" style="fill: rgb(0,0,0)" />
	<circle cx="216.625987107753" cy="-387.462979765394" r="2" style="fill: rgb(0,0,0)" />
	<circle cx="255.300869265409" cy="-379.242379790969" r="2" style="fill: rgb(0,0,0)" />
	<circle cx="367.080939998712" cy="-379.242379790969" r="2" style="fill: rgb(0,0,0)" />
	<circle cx="405.755822156368" cy="-387.462979765394" r="2" style="fill: rgb(0,0,0)" />
	<circle cx="432.212511647397" cy="-416.846110215081" r="2" style="fill: rgb(0,0,0)" />
	<circle cx="436.345452316029" cy="-456.168414004122" r="2" style="fill: rgb(0,0,0)" />
	<circle cx="416.576001300333" cy="-490.410107601053" r="2" style="fill: rgb(0,0,0)" />
	<circle cx="380.455416949378" cy="-506.492027884205" r="2" style="fill: rgb(0,0,0)" />
	<circle cx="341.780534791722" cy="-498.27142790978" r="2" style="fill: rgb(0,0,0)" />
	<circle cx="315.323845300692" cy="-468.888297460093" r="2" style="fill: rgb(0,0,0)" />
	<circle cx="413.841074154367" cy="-326.259586169691" r="2" style="fill: rgb(0,0,0)" />
	<circle cx="401.622881487748" cy="-363.863316593796" r="2" style="fill: rgb(0,0,0)" />
	<circle cx="220.758927776384" cy="-363.863316593807" r="2" style="fill: rgb(0,0,0)" />
	<circle cx="215.227973585091" cy="-357.720569650009" r="2" style="fill: rgb(0,0,0)" />
	<circle cx="175.689071553698" cy="-357.720569650009" r="2" style="fill: rgb(0,0,0)" />
	<circle cx="143.701427871375" cy="-334.48018614412" r="2" style="fill: rgb(0,0,0)" />
	<circle cx="131.483235204748" cy="-296.876455720008" r="2" style="fill: rgb(0,0,0)" />
	<circle cx="143.701427871375" cy="-259.272725295896" r="2" style="fill: rgb(0,0,0)" />
	<circle cx="175.689071553698" cy="-236.032341790007" r="2" style="fill: rgb(0,0,0)" />
	<circle cx="215.227973585091" cy="-236.032341790007" r="2" style="fill: rgb(0,0,0)" />
	<circle cx="247.215617267414" cy="-259.272725295896" r="2" style="fill: rgb(0,0,0)" />
	<circle cx="400.551729754194" cy="-284.658263053377" r="2" style="fill: rgb(0,0,0)" />
	<circle cx="412.769922420822" cy="-322.261993477483" r="2" style="fill: rgb(0,0,0)" />
	<circle cx="367.080939998712" cy="-257.554151930965" r="2" style="fill: rgb(0,0,0)" />
	<circle cx="399.068583681033" cy="-280.794535436858" r="2" style="fill: rgb(0,0,0)" />
	<circle cx="255.300869265408" cy="-257.554151930965" r="2" style="fill: rgb(0,0,0)" />
	<circle cx="259.43380993404" cy="-250.395688708228" r="2" style="fill: rgb(0,0,0)" />
	<circle cx="247.215617267414" cy="-212.791958284115" r="2" style="fill: rgb(0,0,0)" />
	<circle cx="259.43380993404" cy="-175.188227860003" r="2" style="fill: rgb(0,0,0)" />
	<circle cx="291.421453616363" cy="-151.947844354114" r="2" style="fill: rgb(0,0,0)" />
	<circle cx="330.960355647756" cy="-151.947844354115" r="2" style="fill: rgb(0,0,0)" />
	<circle cx="362.947999330079" cy="-175.188227860005" r="2" style="fill: rgb(0,0,0)" />
	<circle cx="375.166191996705" cy="-212.791958284117" r="2" style="fill: rgb(0,0,0)" />
	<circle cx="362.947999330079" cy="-250.395688708229" r="2" style="fill: rgb(0,0,0)" />
	<circle cx="149.915772597132" cy="-472.250334287279" r="2" style="fill: rgb(0,0,0)" />
	<circle cx="154.048713265759" cy="-432.928030498247" r="2" style="fill: rgb(0,0,0)" />
	<circle cx="171.564114366855" cy="-510.179558616755" r="2" style="fill: rgb(0,0,0)" />
	<circle cx="151.794663351159" cy="-475.93786501983" r="2" style="fill: rgb(0,0,0)" />
	<circle cx="209.93874863242" cy="-529.732411390096" r="2" style="fill: rgb(0,0,0)" />
	<circle cx="173.818164281466" cy="-513.650491106942" r="2" style="fill: rgb(0,0,0)" />
	<circle cx="316.721858823354" cy="-514.353348192933" r="2" style="fill: rgb(0,0,0)" />
	<circle cx="336.49130983905" cy="-548.595041789864" r="2" style="fill: rgb(0,0,0)" />
	<circle cx="332.358369170418" cy="-587.917345578905" r="2" style="fill: rgb(0,0,0)" />
	<circle cx="305.901679679389" cy="-617.300476028592" r="2" style="fill: rgb(0,0,0)" />
	<circle cx="267.226797521733" cy="-625.521076003016" r="2" style="fill: rgb(0,0,0)" />
	<circle cx="231.106213170778" cy="-609.439155719864" r="2" style="fill: rgb(0,0,0)" />
	<circle cx="211.336762155082" cy="-575.197462122933" r="2" style="fill: rgb(0,0,0)" />
	<circle cx="215.469702823714" cy="-535.875158333892" r="2" style="fill: rgb(0,0,0)" />
	<circle cx="319.276156630055" cy="-506.492027884206" r="2" style="fill: rgb(0,0,0)" />
	<circle cx="435.138952606058" cy="-361.006290274361" r="2" style="fill: rgb(0,0,0)" />
	<circle cx="461.595642097084" cy="-390.38942072404" r="2" style="fill: rgb(0,0,0)" />
	<circle cx="464.200155329724" cy="-393.605726709188" r="2" style="fill: rgb(0,0,0)" />
	<circle cx="468.333095998358" cy="-432.928030498217" r="2" style="fill: rgb(0,0,0)" />
	<circle cx="472.466036666985" cy="-440.086493720971" r="2" style="fill: rgb(0,0,0)" />
	<circle cx="511.140918824641" cy="-448.307093695396" r="2" style="fill: rgb(0,0,0)" />
	<circle cx="537.597608315671" cy="-477.690224145083" r="2" style="fill: rgb(0,0,0)" />
	<circle cx="541.730548984302" cy="-517.012527934124" r="2" style="fill: rgb(0,0,0)" />
	<circle cx="521.961097968605" cy="-551.254221531054" r="2" style="fill: rgb(0,0,0)" />
	<circle cx="485.84051361765" cy="-567.336141814206" r="2" style="fill: rgb(0,0,0)" />
	<circle cx="447.165631459993" cy="-559.115541839781" r="2" style="fill: rgb(0,0,0)" />
	<circle cx="420.708941968964" cy="-529.732411390094" r="2" style="fill: rgb(0,0,0)" />
	<circle cx="412.443060631702" cy="-529.732411390095" r="2" style="fill: rgb(0,0,0)" />
	<circle cx="195.458522569394" cy="-201.790648193075" r="2" style="fill: rgb(0,0,0)" />
	<circle cx="104.162525839981" cy="-259.272725295895" r="2" style="fill: rgb(0,0,0)" />
	<circle cx="72.1748821576578" cy="-236.032341790005" r="2" style="fill: rgb(0,0,0)" />
	<circle cx="59.9566894910316" cy="-198.428611365893" r="2" style="fill: rgb(0,0,0)" />
	<circle cx="72.174882157659" cy="-160.824880941782" r="2" style="fill: rgb(0,0,0)" />
	<circle cx="104.162525839983" cy="-137.584497435893" r="2" style="fill: rgb(0,0,0)" />
	<circle cx="143.701427871376" cy="-137.584497435894" r="2" style="fill: rgb(0,0,0)" />
	<circle cx="175.6890715537" cy="-160.824880941784" r="2" style="fill: rgb(0,0,0)" />
	<circle cx="187.907264220326" cy="-198.428611365896" r="2" style="fill: rgb(0,0,0)" />
	<circle cx="92.8083530470861" cy="-305.097055694434" r="2" style="fill: rgb(0,0,0)" />
	<circle cx="105.026545713707" cy="-267.493325270333" r="2" style="fill: rgb(0,0,0)" />
	<circle cx="106.097697447258" cy="-346.698378810747" r="2" style="fill: rgb(0,0,0)" />
	<circle cx="93.8795047806318" cy="-309.094648386645" r="2" style="fill: rgb(0,0,0)" />
	<circle cx="432.539373436516" cy="-261.417879547483" r="2" style="fill: rgb(0,0,0)" />
	<circle cx="464.527017118841" cy="-284.658263053361" r="2" style="fill: rgb(0,0,0)" />
	<circle cx="452.308824452216" cy="-322.261993477472" r="2" style="fill: rgb(0,0,0)" />
	<circle cx="390.321323504605" cy="-225.566508248638" r="2" style="fill: rgb(0,0,0)" />
	<circle cx="422.308967186924" cy="-248.806891754524" r="2" style="fill: rgb(0,0,0)" />
	<circle cx="311.190904632059" cy="-117.706150757182" r="2" style="fill: rgb(0,0,0)" />
	<circle cx="318.74216298113" cy="-114.344113930001" r="2" style="fill: rgb(0,0,0)" />
	<circle cx="330.960355647757" cy="-76.740383505889" r="2" style="fill: rgb(0,0,0)" />
	<circle cx="362.947999330081" cy="-53.5" r="2" style="fill: rgb(0,0,0)" />
	<circle cx="402.486901361475" cy="-53.5000000000018" r="2" style="fill: rgb(0,0,0)" />
	<circle cx="434.474545043798" cy="-76.740383505893" r="2" style="fill: rgb(0,0,0)" />
	<circle cx="446.692737710424" cy="-114.344113930006" r="2" style="fill: rgb(0,0,0)" />
	<circle cx="434.474545043796" cy="-151.947844354119" r="2" style="fill: rgb(0,0,0)" />
	<circle cx="402.486901361472" cy="-175.188227860008" r="2" style="fill: rgb(0,0,0)" />
	<circle cx="401.622881487735" cy="-183.408827834428" r="2" style="fill: rgb(0,0,0)" />
	<circle cx="413.84107415436" cy="-221.012558258545" r="2" style="fill: rgb(0,0,0)" />
	<circle cx="145.107424875827" cy="-539.562689066445" r="2" style="fill: rgb(0,0,0)" />
	<circle cx="108.986840524873" cy="-523.480768783305" r="2" style="fill: rgb(0,0,0)" />
	<circle cx="113.119781193505" cy="-484.158464994266" r="2" style="fill: rgb(0,0,0)" />
	<circle cx="193.856828349264" cy="-565.852995741055" r="2" style="fill: rgb(0,0,0)" />
	<circle cx="157.736243998315" cy="-549.771075457907" r="2" style="fill: rgb(0,0,0)" />
	<circle cx="286.996248537429" cy="-659.762769599947" r="2" style="fill: rgb(0,0,0)" />
	<circle cx="282.863307868797" cy="-699.085073388989" r="2" style="fill: rgb(0,0,0)" />
	<circle cx="256.406618377767" cy="-728.468203838677" r="2" style="fill: rgb(0,0,0)" />
	<circle cx="217.731736220111" cy="-736.688803813101" r="2" style="fill: rgb(0,0,0)" />
	<circle cx="181.611151869157" cy="-720.606883529948" r="2" style="fill: rgb(0,0,0)" />
	<circle cx="161.841700853461" cy="-686.365189933016" r="2" style="fill: rgb(0,0,0)" />
	<circle cx="165.974641522093" cy="-647.042886143974" r="2" style="fill: rgb(0,0,0)" />
	<circle cx="192.431331013122" cy="-617.659755694287" r="2" style="fill: rgb(0,0,0)" />
	<circle cx="191.567311139385" cy="-609.439155719865" r="2" style="fill: rgb(0,0,0)" />
	<circle cx="171.79786012369" cy="-575.19746212293" r="2" style="fill: rgb(0,0,0)" />
	<circle cx="293.683487012762" cy="-654.904206452705" r="2" style="fill: rgb(0,0,0)" />
	<circle cx="503.522459118772" cy="-389.472786040549" r="2" style="fill: rgb(0,0,0)" />
	<circle cx="507.655399787411" cy="-428.795089829564" r="2" style="fill: rgb(0,0,0)" />
	<circle cx="561.5" cy="-551.254221531056" r="2" style="fill: rgb(0,0,0)" />
	<circle cx="523.359111491271" cy="-410.70336327128" r="2" style="fill: rgb(0,0,0)" />
	<circle cx="549.815800982292" cy="-440.086493720954" r="2" style="fill: rgb(0,0,0)" />
	<circle cx="45.7181926666236" cy="-265.415472239694" r="2" style="fill: rgb(0,0,0)" />
	<circle cx="33.5" cy="-227.811741815598" r="2" style="fill: rgb(0,0,0)" />
	<circle cx="68.041941489027" cy="-121.502577152738" r="2" style="fill: rgb(0,0,0)" />
	<circle cx="80.922142334087" cy="-291.260368978218" r="2" style="fill: rgb(0,0,0)" />
	<circle cx="48.9344986517708" cy="-268.01998547234" r="2" style="fill: rgb(0,0,0)" />
	<circle cx="455.7797569424" cy="-229.430235865145" r="2" style="fill: rgb(0,0,0)" />
	<circle cx="487.767400624721" cy="-252.670619371009" r="2" style="fill: rgb(0,0,0)" />
	<circle cx="129.025504592683" cy="-575.683273417413" r="2" style="fill: rgb(0,0,0)" />
	<circle cx="92.9049202417371" cy="-559.601353134286" r="2" style="fill: rgb(0,0,0)" />
	<!--
	Generated using the Perl SVG Module V2.84
	by Ronan Oger
	Info: http://www.roitsystems.com/
	-->
</svg>