<?xml version="1.0" encoding="UTF-8" standalone="yes"?>
<!DOCTYPE svg PUBLIC "-//W3C//DTD SVG 1.0//EN" "http://www.w3.org/TR/2001/REC-SVG-20010904/DTD/svg10.dtd">
<!-- generated using polymake; Michael Joswig, Georg Loho, Benjamin Lorenz, Rico Raber; license CC BY-NC-SA 3.0; see polymake.org and matchthenet.de -->
<svg height="841pt" id="document" viewBox="0 -540.564064605498 572 540.564064605498" width="595pt" xmlns="http://www.w3.org/2000/svg" xmlns:svg="http://www.w3.org/2000/svg" xmlns:xlink="http://www.w3.org/1999/xlink">
	<title id="document_title">planar_net_</title>
	<polygon points="229.2128129211,-240.064064605513 297.499999999993,-240.064064605513 297.499999999997,-308.351251684409 229.21281292111,-308.351251684416 " style="fill: rgb(14,173,105); fill-opacity: 1; stroke: rgb(0,0,0); stroke-width: 3" />
	<polygon points="229.2128129211,-240.064064605513 195.069219381653,-180.92562584221 263.356406460547,-180.92562584221 " style="fill: rgb(14,173,105); fill-opacity: 1; stroke: rgb(0,0,0); stroke-width: 3" />
	<polygon points="263.356406460547,-180.92562584221 297.499999999993,-240.064064605513 229.2128129211,-240.064064605513 " style="fill: rgb(14,173,105); fill-opacity: 1; stroke: rgb(0,0,0); stroke-width: 3" />
	<polygon points="195.069219381653,-180.92562584221 135.930780618348,-146.782032302763 170.074374157788,-87.643593539464 229.2128129211,-121.787187078908 " style="fill: rgb(14,173,105); fill-opacity: 1; stroke: rgb(0,0,0); stroke-width: 3" />
	<polygon points="229.2128129211,-121.787187078908 263.356406460547,-180.92562584221 195.069219381653,-180.92562584221 " style="fill: rgb(14,173,105); fill-opacity: 1; stroke: rgb(0,0,0); stroke-width: 3" />
	<polygon points="101.787187078902,-274.207658144995 101.787187078916,-342.494845223884 33.500000000017,-342.494845223902 33.5,-274.207658145018 " style="fill: rgb(14,173,105); fill-opacity: 1; stroke: rgb(0,0,0); stroke-width: 3" />
	<polygon points="297.499999999997,-308.351251684409 297.499999999993,-240.064064605513 365.787187078891,-240.064064605507 365.787187078899,-308.351251684397 " style="fill: rgb(14,173,105); fill-opacity: 1; stroke: rgb(0,0,0); stroke-width: 3" />
	<polygon points="297.500000000006,-376.638438763312 365.787187078904,-376.638438763295 331.643593539457,-435.776877526597 " style="fill: rgb(14,173,105); fill-opacity: 1; stroke: rgb(0,0,0); stroke-width: 3" />
	<polygon points="229.212812921085,-53.5 229.2128129211,-121.787187078908 170.074374157788,-87.643593539464 " style="fill: rgb(14,173,105); fill-opacity: 1; stroke: rgb(0,0,0); stroke-width: 3" />
	<polygon points="322.494845223851,-146.78203230276 263.356406460545,-112.638438763317 322.494845223845,-78.4948452238657 " style="fill: rgb(14,173,105); fill-opacity: 1; stroke: rgb(0,0,0); stroke-width: 3" />
	<polygon points="493.212812921099,-274.207658144935 493.212812921087,-205.920471066041 561.499999999988,-205.920471066027 561.5,-274.207658144916 " style="fill: rgb(14,173,105); fill-opacity: 1; stroke: rgb(0,0,0); stroke-width: 3" />
	<polygon points="365.787187078899,-308.351251684397 365.787187078891,-240.064064605507 434.07437415779,-240.064064605498 434.074374157801,-308.351251684379 " style="fill: rgb(14,173,105); fill-opacity: 1; stroke: rgb(0,0,0); stroke-width: 3" />
	<polygon points="399.930780618356,-367.489690447682 434.074374157801,-308.351251684379 468.21796769725,-367.489690447681 " style="fill: rgb(14,173,105); fill-opacity: 1; stroke: rgb(0,0,0); stroke-width: 3" />
	<polygon points="493.212812921099,-274.207658144935 434.07437415779,-240.064064605498 493.212812921087,-205.920471066041 " style="fill: rgb(14,173,105); fill-opacity: 1; stroke: rgb(0,0,0); stroke-width: 3" />
	<polygon points="434.074374157801,-308.351251684379 493.212812921099,-274.207658144935 493.212812921101,-342.494845223828 " style="fill: rgb(14,173,105); fill-opacity: 1; stroke: rgb(0,0,0); stroke-width: 3" />
	<polygon points="434.074374157801,-308.351251684379 434.07437415779,-240.064064605498 493.212812921099,-274.207658144935 " style="fill: rgb(14,173,105); fill-opacity: 1; stroke: rgb(0,0,0); stroke-width: 3" />
	<polygon points="493.212812921101,-342.494845223828 493.212812921099,-274.207658144935 552.351251684393,-308.351251684388 " style="fill: rgb(14,173,105); fill-opacity: 1; stroke: rgb(0,0,0); stroke-width: 3" />
	<polygon points="365.787187078899,-308.351251684397 434.074374157801,-308.351251684379 399.930780618356,-367.489690447682 " style="fill: rgb(14,173,105); fill-opacity: 1; stroke: rgb(0,0,0); stroke-width: 3" />
	<polygon points="390.782032302745,-146.782032302756 322.494845223851,-146.78203230276 356.638438763298,-87.6435935394578 " style="fill: rgb(14,173,105); fill-opacity: 1; stroke: rgb(0,0,0); stroke-width: 3" />
	<polygon points="356.638438763298,-205.920471066056 322.494845223851,-146.78203230276 390.782032302745,-146.782032302756 " style="fill: rgb(14,173,105); fill-opacity: 1; stroke: rgb(0,0,0); stroke-width: 3" />
	<polygon points="331.643593539457,-435.776877526597 365.787187078904,-376.638438763295 399.930780618351,-435.776877526597 " style="fill: rgb(14,173,105); fill-opacity: 1; stroke: rgb(0,0,0); stroke-width: 3" />
	<polygon points="331.643593539457,-435.776877526597 399.930780618351,-435.776877526597 399.930780618356,-504.064064605496 331.643593539465,-504.064064605498 " style="fill: rgb(14,173,105); fill-opacity: 1; stroke: rgb(0,0,0); stroke-width: 3" />
	<polygon points="297.499999999997,-308.351251684409 365.787187078899,-308.351251684397 365.787187078904,-376.638438763295 297.500000000006,-376.638438763312 " style="fill: rgb(14,173,105); fill-opacity: 1; stroke: rgb(0,0,0); stroke-width: 3" />
	<polygon points="322.494845223851,-146.78203230276 263.356406460547,-180.92562584221 263.356406460545,-112.638438763317 " style="fill: rgb(14,173,105); fill-opacity: 1; stroke: rgb(0,0,0); stroke-width: 3" />
	<polygon points="356.638438763298,-205.920471066056 297.499999999993,-240.064064605513 263.356406460547,-180.92562584221 322.494845223851,-146.78203230276 " style="fill: rgb(14,173,105); fill-opacity: 1; stroke: rgb(0,0,0); stroke-width: 3" />
	<polygon points="195.069219381663,-367.489690447719 229.21281292111,-426.628129211023 160.925625842217,-426.628129211009 " style="fill: rgb(14,173,105); fill-opacity: 1; stroke: rgb(0,0,0); stroke-width: 3" />
	<polygon points="195.069219381663,-367.489690447719 263.356406460557,-367.48969044772 229.21281292111,-426.628129211023 " style="fill: rgb(14,173,105); fill-opacity: 1; stroke: rgb(0,0,0); stroke-width: 3" />
	<polygon points="229.21281292111,-308.351251684416 297.499999999997,-308.351251684409 263.356406460557,-367.48969044772 " style="fill: rgb(14,173,105); fill-opacity: 1; stroke: rgb(0,0,0); stroke-width: 3" />
	<polygon points="229.21281292111,-308.351251684416 263.356406460557,-367.48969044772 195.069219381663,-367.489690447719 " style="fill: rgb(14,173,105); fill-opacity: 1; stroke: rgb(0,0,0); stroke-width: 3" />
	<polygon points="170.074374157803,-274.207658144977 229.21281292111,-308.351251684416 170.074374157813,-342.494845223871 " style="fill: rgb(14,173,105); fill-opacity: 1; stroke: rgb(0,0,0); stroke-width: 3" />
	<polygon points="170.074374157785,-205.920471066084 170.074374157803,-274.207658144977 110.935935394497,-240.064064605537 " style="fill: rgb(14,173,105); fill-opacity: 1; stroke: rgb(0,0,0); stroke-width: 3" />
	<polygon points="229.2128129211,-240.064064605513 170.074374157803,-274.207658144977 170.074374157785,-205.920471066084 " style="fill: rgb(14,173,105); fill-opacity: 1; stroke: rgb(0,0,0); stroke-width: 3" />
	<polygon points="229.2128129211,-240.064064605513 229.21281292111,-308.351251684416 170.074374157803,-274.207658144977 " style="fill: rgb(14,173,105); fill-opacity: 1; stroke: rgb(0,0,0); stroke-width: 3" />
	<polygon points="170.074374157803,-274.207658144977 170.074374157813,-342.494845223871 101.787187078916,-342.494845223884 101.787187078902,-274.207658144995 " style="fill: rgb(14,173,105); fill-opacity: 1; stroke: rgb(0,0,0); stroke-width: 3" />
	<circle cx="229.2128129211" cy="-240.064064605513" r="2" style="fill: rgb(0,0,0)" />
	<circle cx="297.499999999993" cy="-240.064064605513" r="2" style="fill: rgb(0,0,0)" />
	<circle cx="297.499999999997" cy="-308.351251684409" r="2" style="fill: rgb(0,0,0)" />
	<circle cx="229.21281292111" cy="-308.351251684416" r="2" style="fill: rgb(0,0,0)" />
	<circle cx="263.356406460547" cy="-180.92562584221" r="2" style="fill: rgb(0,0,0)" />
	<circle cx="365.787187078891" cy="-240.064064605507" r="2" style="fill: rgb(0,0,0)" />
	<circle cx="365.787187078899" cy="-308.351251684397" r="2" style="fill: rgb(0,0,0)" />
	<circle cx="263.356406460557" cy="-367.48969044772" r="2" style="fill: rgb(0,0,0)" />
	<circle cx="170.074374157803" cy="-274.207658144977" r="2" style="fill: rgb(0,0,0)" />
	<circle cx="195.069219381653" cy="-180.92562584221" r="2" style="fill: rgb(0,0,0)" />
	<circle cx="322.494845223851" cy="-146.78203230276" r="2" style="fill: rgb(0,0,0)" />
	<circle cx="356.638438763298" cy="-205.920471066056" r="2" style="fill: rgb(0,0,0)" />
	<circle cx="434.07437415779" cy="-240.064064605498" r="2" style="fill: rgb(0,0,0)" />
	<circle cx="434.074374157801" cy="-308.351251684379" r="2" style="fill: rgb(0,0,0)" />
	<circle cx="365.787187078904" cy="-376.638438763295" r="2" style="fill: rgb(0,0,0)" />
	<circle cx="297.500000000006" cy="-376.638438763312" r="2" style="fill: rgb(0,0,0)" />
	<circle cx="195.069219381663" cy="-367.489690447719" r="2" style="fill: rgb(0,0,0)" />
	<circle cx="170.074374157813" cy="-342.494845223871" r="2" style="fill: rgb(0,0,0)" />
	<circle cx="170.074374157785" cy="-205.920471066084" r="2" style="fill: rgb(0,0,0)" />
	<circle cx="229.2128129211" cy="-121.787187078908" r="2" style="fill: rgb(0,0,0)" />
	<circle cx="390.782032302745" cy="-146.782032302756" r="2" style="fill: rgb(0,0,0)" />
	<circle cx="263.356406460545" cy="-112.638438763317" r="2" style="fill: rgb(0,0,0)" />
	<circle cx="493.212812921099" cy="-274.207658144935" r="2" style="fill: rgb(0,0,0)" />
	<circle cx="399.930780618356" cy="-367.489690447682" r="2" style="fill: rgb(0,0,0)" />
	<circle cx="331.643593539457" cy="-435.776877526597" r="2" style="fill: rgb(0,0,0)" />
	<circle cx="229.21281292111" cy="-426.628129211023" r="2" style="fill: rgb(0,0,0)" />
	<circle cx="101.787187078916" cy="-342.494845223884" r="2" style="fill: rgb(0,0,0)" />
	<circle cx="101.787187078902" cy="-274.207658144995" r="2" style="fill: rgb(0,0,0)" />
	<circle cx="110.935935394497" cy="-240.064064605537" r="2" style="fill: rgb(0,0,0)" />
	<circle cx="135.930780618348" cy="-146.782032302763" r="2" style="fill: rgb(0,0,0)" />
	<circle cx="170.074374157788" cy="-87.643593539464" r="2" style="fill: rgb(0,0,0)" />
	<circle cx="356.638438763298" cy="-87.6435935394578" r="2" style="fill: rgb(0,0,0)" />
	<circle cx="322.494845223845" cy="-78.4948452238657" r="2" style="fill: rgb(0,0,0)" />
	<circle cx="493.212812921087" cy="-205.920471066041" r="2" style="fill: rgb(0,0,0)" />
	<circle cx="493.212812921101" cy="-342.494845223828" r="2" style="fill: rgb(0,0,0)" />
	<circle cx="468.21796769725" cy="-367.489690447681" r="2" style="fill: rgb(0,0,0)" />
	<circle cx="399.930780618351" cy="-435.776877526597" r="2" style="fill: rgb(0,0,0)" />
	<circle cx="160.925625842217" cy="-426.628129211009" r="2" style="fill: rgb(0,0,0)" />
	<circle cx="33.500000000017" cy="-342.494845223902" r="2" style="fill: rgb(0,0,0)" />
	<circle cx="33.5" cy="-274.207658145018" r="2" style="fill: rgb(0,0,0)" />
	<circle cx="229.212812921085" cy="-53.5" r="2" style="fill: rgb(0,0,0)" />
	<circle cx="561.499999999988" cy="-205.920471066027" r="2" style="fill: rgb(0,0,0)" />
	<circle cx="561.5" cy="-274.207658144916" r="2" style="fill: rgb(0,0,0)" />
	<circle cx="552.351251684393" cy="-308.351251684388" r="2" style="fill: rgb(0,0,0)" />
	<circle cx="399.930780618356" cy="-504.064064605496" r="2" style="fill: rgb(0,0,0)" />
	<circle cx="331.643593539465" cy="-504.064064605498" r="2" style="fill: rgb(0,0,0)" />
	<!-- 
	Generated using the Perl SVG Module V2.64
	by Ronan Oger
	Info: http://www.roitsystems.com/
 -->
</svg>