<?xml version="1.0" encoding="UTF-8" standalone="yes"?>
<!DOCTYPE svg PUBLIC "-//W3C//DTD SVG 1.0//EN" "http://www.w3.org/TR/2001/REC-SVG-20010904/DTD/svg10.dtd">
<!-- generated using polymake; Michael Joswig, Georg Loho, Benjamin Lorenz, Rico Raber; license CC BY-NC-ND 3.0; see polymake.org and matchthenet.de -->
<svg height="841pt" id="document" viewBox="0 -811 551.291503310915 811" width="595pt" xmlns="http://www.w3.org/2000/svg" xmlns:svg="http://www.w3.org/2000/svg" xmlns:xlink="http://www.w3.org/1999/xlink">
	<title id="document_title">planar_net_</title>
	<polygon points="248.188302988711,-458.480825421575 302.3219663098,-458.480825421575 319.050188243792,-509.964998674028 275.255134649281,-541.783967626745 231.460081054749,-509.964998674043 " style="fill: rgb(14,173,105); fill-opacity: 1; stroke: rgb(0,0,0); stroke-width: 3" />
	<polygon points="302.32196630979,-404.347162100478 302.3219663098,-458.480825421575 248.188302988711,-458.480825421575 248.188302988709,-404.347162100485 " style="fill: rgb(14,173,105); fill-opacity: 1; stroke: rgb(0,0,0); stroke-width: 3" />
	<polygon points="195.237590092246,-393.092140629231 155.008438311045,-356.869649666759 191.230929273509,-316.64049788556 231.46008105472,-352.862988848031 " style="fill: rgb(14,173,105); fill-opacity: 1; stroke: rgb(0,0,0); stroke-width: 3" />
	<polygon points="248.188302988709,-404.347162100485 195.237590092246,-393.092140629231 231.46008105472,-352.862988848031 " style="fill: rgb(14,173,105); fill-opacity: 1; stroke: rgb(0,0,0); stroke-width: 3" />
	<polygon points="302.32196630979,-404.347162100478 248.188302988709,-404.347162100485 231.46008105472,-352.862988848031 275.255134649238,-321.044019895319 319.050188243765,-352.862988848021 " style="fill: rgb(14,173,105); fill-opacity: 1; stroke: rgb(0,0,0); stroke-width: 3" />
	<polygon points="319.050188243792,-509.964998674028 302.3219663098,-458.480825421575 353.806139562249,-441.752603487581 370.534361496246,-493.236776740024 " style="fill: rgb(14,173,105); fill-opacity: 1; stroke: rgb(0,0,0); stroke-width: 3" />
	<polygon points="349.203093945771,-431.413993761013 302.3219663098,-458.480825421575 302.32196630979,-404.347162100478 " style="fill: rgb(14,173,105); fill-opacity: 1; stroke: rgb(0,0,0); stroke-width: 3" />
	<polygon points="142.570466415154,-387.618940166528 110.75149746246,-431.413993761062 66.9564438679192,-399.595024808367 98.7754128206037,-355.799971213834 " style="fill: rgb(14,173,105); fill-opacity: 1; stroke: rgb(0,0,0); stroke-width: 3" />
	<polygon points="138.280216377057,-305.385476414308 191.230929273509,-316.64049788556 155.008438311045,-356.869649666759 " style="fill: rgb(14,173,105); fill-opacity: 1; stroke: rgb(0,0,0); stroke-width: 3" />
	<polygon points="243.43616569651,-277.248966300794 275.255134649238,-321.044019895319 231.46008105472,-352.862988848031 199.641112102002,-309.067935253508 " style="fill: rgb(14,173,105); fill-opacity: 1; stroke: rgb(0,0,0); stroke-width: 3" />
	<polygon points="353.806139562252,-421.075384034447 302.32196630979,-404.347162100478 319.050188243765,-352.862988848021 370.534361496221,-369.591210781994 " style="fill: rgb(14,173,105); fill-opacity: 1; stroke: rgb(0,0,0); stroke-width: 3" />
	<polygon points="319.050188243792,-509.964998674028 370.534361496246,-493.236776740024 387.262583430249,-544.72094999247 335.778410177801,-561.449171926476 " style="fill: rgb(14,173,105); fill-opacity: 1; stroke: rgb(0,0,0); stroke-width: 3" />
	<polygon points="104.361885255072,-602.307243155302 121.090107189065,-653.791416407742 77.2950535945367,-685.610385360452 33.5,-653.791416407771 50.2282219339824,-602.307243155322 " style="fill: rgb(14,173,105); fill-opacity: 1; stroke: rgb(0,0,0); stroke-width: 3" />
	<polygon points="335.778410177801,-561.449171926476 387.262583430249,-544.72094999247 419.081552382966,-588.516003586993 387.262583430278,-632.311057181538 335.77841017782,-615.582835247567 " style="fill: rgb(14,173,105); fill-opacity: 1; stroke: rgb(0,0,0); stroke-width: 3" />
	<polygon points="172.574280441515,-637.063194473747 226.707943762597,-637.063194473733 226.7079437626,-691.196857794825 172.574280441525,-691.196857794844 " style="fill: rgb(14,173,105); fill-opacity: 1; stroke: rgb(0,0,0); stroke-width: 3" />
	<polygon points="172.574280441515,-637.063194473747 172.574280441525,-691.196857794844 125.693152805543,-664.13002613431 " style="fill: rgb(14,173,105); fill-opacity: 1; stroke: rgb(0,0,0); stroke-width: 3" />
	<polygon points="335.77841017782,-615.582835247567 387.262583430278,-632.311057181538 370.53436149631,-683.795230433996 319.050188243855,-667.06700850003 " style="fill: rgb(14,173,105); fill-opacity: 1; stroke: rgb(0,0,0); stroke-width: 3" />
	<polygon points="370.534361496246,-493.236776740024 423.485074392711,-504.491798211263 387.262583430249,-544.72094999247 " style="fill: rgb(14,173,105); fill-opacity: 1; stroke: rgb(0,0,0); stroke-width: 3" />
	<polygon points="172.574280441525,-691.196857794844 145.507448780991,-738.077985430831 98.6263211450129,-711.011153770305 125.693152805543,-664.13002613431 " style="fill: rgb(14,173,105); fill-opacity: 1; stroke: rgb(0,0,0); stroke-width: 3" />
	<polygon points="431.057637024771,-512.901981039751 462.876605977489,-556.697034634262 419.081552382966,-588.516003586993 387.262583430249,-544.72094999247 " style="fill: rgb(14,173,105); fill-opacity: 1; stroke: rgb(0,0,0); stroke-width: 3" />
	<polygon points="346.117019904307,-102.953562232546 302.321966309787,-134.772531185242 270.502997357082,-90.9774775907095 314.298050951595,-59.1585086380135 " style="fill: rgb(14,173,105); fill-opacity: 1; stroke: rgb(0,0,0); stroke-width: 3" />
	<polygon points="387.262583430278,-632.311057181538 423.485074392763,-672.540208962737 370.53436149631,-683.795230433996 " style="fill: rgb(14,173,105); fill-opacity: 1; stroke: rgb(0,0,0); stroke-width: 3" />
	<polygon points="424.668024817332,-493.236776740004 441.396246751318,-441.752603487553 492.880420003771,-458.480825421538 476.152198069791,-509.964998673985 " style="fill: rgb(14,173,105); fill-opacity: 1; stroke: rgb(0,0,0); stroke-width: 3" />
	<polygon points="346.117019904307,-102.953562232546 314.298050951595,-59.1585086380135 368.135164400911,-53.5 " style="fill: rgb(14,173,105); fill-opacity: 1; stroke: rgb(0,0,0); stroke-width: 3" />
	<polygon points="487.840790414449,-269.559846642888 504.569012348452,-218.075673390426 540.791503310915,-258.304825171643 " style="fill: rgb(14,173,105); fill-opacity: 1; stroke: rgb(0,0,0); stroke-width: 3" />
	<polygon points="389.912073498831,-134.772531185263 346.117019904307,-102.953562232546 377.935988857024,-59.1585086380192 421.731042451546,-90.9774775907282 " style="fill: rgb(14,173,105); fill-opacity: 1; stroke: rgb(0,0,0); stroke-width: 3" />
	<polygon points="433.707127093362,-269.559846642876 416.978905159379,-218.075673390417 460.773958753924,-186.256704437712 504.569012348452,-218.075673390426 487.840790414449,-269.559846642888 " style="fill: rgb(14,173,105); fill-opacity: 1; stroke: rgb(0,0,0); stroke-width: 3" />
	<polygon points="448.797874112089,-174.280619795881 405.002820517565,-142.461650843178 454.456382750112,-120.443506346574 " style="fill: rgb(14,173,105); fill-opacity: 1; stroke: rgb(0,0,0); stroke-width: 3" />
	<polygon points="416.978905159379,-218.075673390417 373.183851564855,-186.256704437707 405.002820517565,-142.461650843178 448.797874112089,-174.280619795881 " style="fill: rgb(14,173,105); fill-opacity: 1; stroke: rgb(0,0,0); stroke-width: 3" />
	<polygon points="504.569012348452,-218.075673390426 460.773958753924,-186.256704437712 492.592927706635,-142.461650843183 536.387981301162,-174.280619795892 " style="fill: rgb(14,173,105); fill-opacity: 1; stroke: rgb(0,0,0); stroke-width: 3" />
	<polygon points="373.183851564855,-186.256704437707 319.050188243773,-186.256704437702 302.321966309787,-134.772531185242 346.117019904307,-102.953562232546 389.912073498831,-134.772531185263 " style="fill: rgb(14,173,105); fill-opacity: 1; stroke: rgb(0,0,0); stroke-width: 3" />
	<polygon points="387.262583430278,-632.311057181538 419.081552382966,-588.516003586993 462.876605977513,-620.33497253968 431.057637024832,-664.130026134222 " style="fill: rgb(14,173,105); fill-opacity: 1; stroke: rgb(0,0,0); stroke-width: 3" />
	<polygon points="172.574280441525,-691.196857794844 226.7079437626,-691.196857794825 243.436165696589,-742.681031047276 199.641112102076,-774.5 155.846058507553,-742.681031047308 " style="fill: rgb(14,173,105); fill-opacity: 1; stroke: rgb(0,0,0); stroke-width: 3" />
	<polygon points="287.231219291058,-142.46165084317 243.436165696538,-174.280619795874 237.777657058537,-120.44350634655 " style="fill: rgb(14,173,105); fill-opacity: 1; stroke: rgb(0,0,0); stroke-width: 3" />
	<polygon points="319.050188243773,-186.256704437702 275.255134649245,-218.075673390405 243.436165696538,-174.280619795874 287.231219291058,-142.46165084317 " style="fill: rgb(14,173,105); fill-opacity: 1; stroke: rgb(0,0,0); stroke-width: 3" />
	<polygon points="416.978905159373,-321.044019895331 373.183851564844,-352.862988848034 319.050188243765,-352.862988848021 275.255134649238,-321.044019895319 258.526912715256,-269.559846642861 275.255134649245,-218.075673390405 319.050188243773,-186.256704437702 373.183851564855,-186.256704437707 416.978905159379,-218.075673390417 433.707127093362,-269.559846642876 " style="fill: rgb(14,173,105); fill-opacity: 1; stroke: rgb(0,0,0); stroke-width: 3" />
	<polygon points="172.574280441401,-225.764793048371 155.846058507452,-277.248966300818 104.361885254989,-260.520744366865 121.090107188929,-209.036571114423 " style="fill: rgb(14,173,105); fill-opacity: 1; stroke: rgb(0,0,0); stroke-width: 3" />
	<polygon points="370.534361496246,-493.236776740024 353.806139562249,-441.752603487581 397.601193156781,-409.933634534869 441.396246751318,-441.752603487553 424.668024817332,-493.236776740004 " style="fill: rgb(14,173,105); fill-opacity: 1; stroke: rgb(0,0,0); stroke-width: 3" />
	<polygon points="226.707943762485,-225.764793048362 243.43616569651,-277.248966300794 199.641112102002,-309.067935253508 155.846058507452,-277.248966300818 172.574280441401,-225.764793048371 " style="fill: rgb(14,173,105); fill-opacity: 1; stroke: rgb(0,0,0); stroke-width: 3" />
	<polygon points="253.236990152686,-591.237529859295 302.690552385223,-613.255674355888 258.895498790704,-645.074643308619 " style="fill: rgb(14,173,105); fill-opacity: 1; stroke: rgb(0,0,0); stroke-width: 3" />
	<polygon points="155.846058507525,-585.5790212213 172.574280441515,-637.063194473747 121.090107189065,-653.791416407742 104.361885255072,-602.307243155302 " style="fill: rgb(14,173,105); fill-opacity: 1; stroke: rgb(0,0,0); stroke-width: 3" />
	<polygon points="61.2979352299192,-453.432138257686 66.9564438679192,-399.595024808367 110.75149746246,-431.413993761062 " style="fill: rgb(14,173,105); fill-opacity: 1; stroke: rgb(0,0,0); stroke-width: 3" />
	<polygon points="275.255134649281,-541.783967626745 319.050188243792,-509.964998674028 324.708696881821,-563.802112123343 " style="fill: rgb(14,173,105); fill-opacity: 1; stroke: rgb(0,0,0); stroke-width: 3" />
	<polygon points="275.255134649281,-541.783967626745 324.708696881821,-563.802112123343 302.690552385223,-613.255674355888 253.236990152686,-591.237529859295 " style="fill: rgb(14,173,105); fill-opacity: 1; stroke: rgb(0,0,0); stroke-width: 3" />
	<polygon points="199.641112102049,-553.760052268586 243.43616569658,-585.57902122128 226.707943762597,-637.063194473733 172.574280441515,-637.063194473747 155.846058507525,-585.5790212213 " style="fill: rgb(14,173,105); fill-opacity: 1; stroke: rgb(0,0,0); stroke-width: 3" />
	<polygon points="199.641112102049,-553.760052268586 155.846058507525,-585.5790212213 150.187549869516,-531.741907771975 " style="fill: rgb(14,173,105); fill-opacity: 1; stroke: rgb(0,0,0); stroke-width: 3" />
	<polygon points="98.7754128206512,-507.028016308299 66.9564438679368,-463.232962713792 110.75149746246,-431.413993761062 142.570466415174,-475.209047355578 " style="fill: rgb(14,173,105); fill-opacity: 1; stroke: rgb(0,0,0); stroke-width: 3" />
	<polygon points="231.460081054749,-509.964998674043 275.255134649281,-541.783967626745 243.43616569658,-585.57902122128 199.641112102049,-553.760052268586 " style="fill: rgb(14,173,105); fill-opacity: 1; stroke: rgb(0,0,0); stroke-width: 3" />
	<polygon points="248.188302988711,-458.480825421575 231.460081054749,-509.964998674043 195.237590092261,-469.735846892862 " style="fill: rgb(14,173,105); fill-opacity: 1; stroke: rgb(0,0,0); stroke-width: 3" />
	<polygon points="231.460081054749,-509.964998674043 199.641112102049,-553.760052268586 155.846058507509,-521.941083315892 187.665027460199,-478.14602972135 " style="fill: rgb(14,173,105); fill-opacity: 1; stroke: rgb(0,0,0); stroke-width: 3" />
	<polygon points="194.054639667621,-458.48082542158 142.570466415174,-475.209047355578 110.75149746246,-431.413993761062 142.570466415154,-387.618940166528 194.054639667611,-404.347162100497 " style="fill: rgb(14,173,105); fill-opacity: 1; stroke: rgb(0,0,0); stroke-width: 3" />
	<polygon points="248.188302988711,-458.480825421575 194.054639667621,-458.48082542158 194.054639667611,-404.347162100497 248.188302988709,-404.347162100485 " style="fill: rgb(14,173,105); fill-opacity: 1; stroke: rgb(0,0,0); stroke-width: 3" />
	<circle cx="248.188302988711" cy="-458.480825421575" r="2" style="fill: rgb(0,0,0)" />
	<circle cx="302.3219663098" cy="-458.480825421575" r="2" style="fill: rgb(0,0,0)" />
	<circle cx="319.050188243792" cy="-509.964998674028" r="2" style="fill: rgb(0,0,0)" />
	<circle cx="275.255134649281" cy="-541.783967626745" r="2" style="fill: rgb(0,0,0)" />
	<circle cx="231.460081054749" cy="-509.964998674043" r="2" style="fill: rgb(0,0,0)" />
	<circle cx="248.188302988709" cy="-404.347162100485" r="2" style="fill: rgb(0,0,0)" />
	<circle cx="302.32196630979" cy="-404.347162100478" r="2" style="fill: rgb(0,0,0)" />
	<circle cx="353.806139562249" cy="-441.752603487581" r="2" style="fill: rgb(0,0,0)" />
	<circle cx="370.534361496246" cy="-493.236776740024" r="2" style="fill: rgb(0,0,0)" />
	<circle cx="324.708696881821" cy="-563.802112123343" r="2" style="fill: rgb(0,0,0)" />
	<circle cx="243.43616569658" cy="-585.57902122128" r="2" style="fill: rgb(0,0,0)" />
	<circle cx="199.641112102049" cy="-553.760052268586" r="2" style="fill: rgb(0,0,0)" />
	<circle cx="195.237590092261" cy="-469.735846892862" r="2" style="fill: rgb(0,0,0)" />
	<circle cx="231.46008105472" cy="-352.862988848031" r="2" style="fill: rgb(0,0,0)" />
	<circle cx="275.255134649238" cy="-321.044019895319" r="2" style="fill: rgb(0,0,0)" />
	<circle cx="319.050188243765" cy="-352.862988848021" r="2" style="fill: rgb(0,0,0)" />
	<circle cx="349.203093945771" cy="-431.413993761013" r="2" style="fill: rgb(0,0,0)" />
	<circle cx="194.054639667621" cy="-458.48082542158" r="2" style="fill: rgb(0,0,0)" />
	<circle cx="194.054639667611" cy="-404.347162100497" r="2" style="fill: rgb(0,0,0)" />
	<circle cx="387.262583430249" cy="-544.72094999247" r="2" style="fill: rgb(0,0,0)" />
	<circle cx="335.778410177801" cy="-561.449171926476" r="2" style="fill: rgb(0,0,0)" />
	<circle cx="397.601193156781" cy="-409.933634534869" r="2" style="fill: rgb(0,0,0)" />
	<circle cx="441.396246751318" cy="-441.752603487553" r="2" style="fill: rgb(0,0,0)" />
	<circle cx="424.668024817332" cy="-493.236776740004" r="2" style="fill: rgb(0,0,0)" />
	<circle cx="302.690552385223" cy="-613.255674355888" r="2" style="fill: rgb(0,0,0)" />
	<circle cx="253.236990152686" cy="-591.237529859295" r="2" style="fill: rgb(0,0,0)" />
	<circle cx="226.707943762597" cy="-637.063194473733" r="2" style="fill: rgb(0,0,0)" />
	<circle cx="172.574280441515" cy="-637.063194473747" r="2" style="fill: rgb(0,0,0)" />
	<circle cx="155.846058507525" cy="-585.5790212213" r="2" style="fill: rgb(0,0,0)" />
	<circle cx="155.846058507509" cy="-521.941083315892" r="2" style="fill: rgb(0,0,0)" />
	<circle cx="187.665027460199" cy="-478.14602972135" r="2" style="fill: rgb(0,0,0)" />
	<circle cx="195.237590092246" cy="-393.092140629231" r="2" style="fill: rgb(0,0,0)" />
	<circle cx="199.641112102002" cy="-309.067935253508" r="2" style="fill: rgb(0,0,0)" />
	<circle cx="243.43616569651" cy="-277.248966300794" r="2" style="fill: rgb(0,0,0)" />
	<circle cx="370.534361496221" cy="-369.591210781994" r="2" style="fill: rgb(0,0,0)" />
	<circle cx="353.806139562252" cy="-421.075384034447" r="2" style="fill: rgb(0,0,0)" />
	<circle cx="258.526912715256" cy="-269.559846642861" r="2" style="fill: rgb(0,0,0)" />
	<circle cx="275.255134649245" cy="-218.075673390405" r="2" style="fill: rgb(0,0,0)" />
	<circle cx="319.050188243773" cy="-186.256704437702" r="2" style="fill: rgb(0,0,0)" />
	<circle cx="373.183851564855" cy="-186.256704437707" r="2" style="fill: rgb(0,0,0)" />
	<circle cx="416.978905159379" cy="-218.075673390417" r="2" style="fill: rgb(0,0,0)" />
	<circle cx="433.707127093362" cy="-269.559846642876" r="2" style="fill: rgb(0,0,0)" />
	<circle cx="416.978905159373" cy="-321.044019895331" r="2" style="fill: rgb(0,0,0)" />
	<circle cx="373.183851564844" cy="-352.862988848034" r="2" style="fill: rgb(0,0,0)" />
	<circle cx="142.570466415174" cy="-475.209047355578" r="2" style="fill: rgb(0,0,0)" />
	<circle cx="110.75149746246" cy="-431.413993761062" r="2" style="fill: rgb(0,0,0)" />
	<circle cx="142.570466415154" cy="-387.618940166528" r="2" style="fill: rgb(0,0,0)" />
	<circle cx="419.081552382966" cy="-588.516003586993" r="2" style="fill: rgb(0,0,0)" />
	<circle cx="387.262583430278" cy="-632.311057181538" r="2" style="fill: rgb(0,0,0)" />
	<circle cx="335.77841017782" cy="-615.582835247567" r="2" style="fill: rgb(0,0,0)" />
	<circle cx="423.485074392711" cy="-504.491798211263" r="2" style="fill: rgb(0,0,0)" />
	<circle cx="492.880420003771" cy="-458.480825421538" r="2" style="fill: rgb(0,0,0)" />
	<circle cx="476.152198069791" cy="-509.964998673985" r="2" style="fill: rgb(0,0,0)" />
	<circle cx="258.895498790704" cy="-645.074643308619" r="2" style="fill: rgb(0,0,0)" />
	<circle cx="226.7079437626" cy="-691.196857794825" r="2" style="fill: rgb(0,0,0)" />
	<circle cx="172.574280441525" cy="-691.196857794844" r="2" style="fill: rgb(0,0,0)" />
	<circle cx="121.090107189065" cy="-653.791416407742" r="2" style="fill: rgb(0,0,0)" />
	<circle cx="104.361885255072" cy="-602.307243155302" r="2" style="fill: rgb(0,0,0)" />
	<circle cx="150.187549869516" cy="-531.741907771975" r="2" style="fill: rgb(0,0,0)" />
	<circle cx="155.008438311045" cy="-356.869649666759" r="2" style="fill: rgb(0,0,0)" />
	<circle cx="191.230929273509" cy="-316.64049788556" r="2" style="fill: rgb(0,0,0)" />
	<circle cx="155.846058507452" cy="-277.248966300818" r="2" style="fill: rgb(0,0,0)" />
	<circle cx="172.574280441401" cy="-225.764793048371" r="2" style="fill: rgb(0,0,0)" />
	<circle cx="226.707943762485" cy="-225.764793048362" r="2" style="fill: rgb(0,0,0)" />
	<circle cx="460.773958753924" cy="-186.256704437712" r="2" style="fill: rgb(0,0,0)" />
	<circle cx="504.569012348452" cy="-218.075673390426" r="2" style="fill: rgb(0,0,0)" />
	<circle cx="487.840790414449" cy="-269.559846642888" r="2" style="fill: rgb(0,0,0)" />
	<circle cx="405.002820517565" cy="-142.461650843178" r="2" style="fill: rgb(0,0,0)" />
	<circle cx="448.797874112089" cy="-174.280619795881" r="2" style="fill: rgb(0,0,0)" />
	<circle cx="302.321966309787" cy="-134.772531185242" r="2" style="fill: rgb(0,0,0)" />
	<circle cx="346.117019904307" cy="-102.953562232546" r="2" style="fill: rgb(0,0,0)" />
	<circle cx="389.912073498831" cy="-134.772531185263" r="2" style="fill: rgb(0,0,0)" />
	<circle cx="243.436165696538" cy="-174.280619795874" r="2" style="fill: rgb(0,0,0)" />
	<circle cx="287.231219291058" cy="-142.46165084317" r="2" style="fill: rgb(0,0,0)" />
	<circle cx="66.9564438679192" cy="-399.595024808367" r="2" style="fill: rgb(0,0,0)" />
	<circle cx="98.7754128206037" cy="-355.799971213834" r="2" style="fill: rgb(0,0,0)" />
	<circle cx="98.7754128206512" cy="-507.028016308299" r="2" style="fill: rgb(0,0,0)" />
	<circle cx="66.9564438679368" cy="-463.232962713792" r="2" style="fill: rgb(0,0,0)" />
	<circle cx="370.53436149631" cy="-683.795230433996" r="2" style="fill: rgb(0,0,0)" />
	<circle cx="319.050188243855" cy="-667.06700850003" r="2" style="fill: rgb(0,0,0)" />
	<circle cx="431.057637024771" cy="-512.901981039751" r="2" style="fill: rgb(0,0,0)" />
	<circle cx="462.876605977489" cy="-556.697034634262" r="2" style="fill: rgb(0,0,0)" />
	<circle cx="462.876605977513" cy="-620.33497253968" r="2" style="fill: rgb(0,0,0)" />
	<circle cx="431.057637024832" cy="-664.130026134222" r="2" style="fill: rgb(0,0,0)" />
	<circle cx="125.693152805543" cy="-664.13002613431" r="2" style="fill: rgb(0,0,0)" />
	<circle cx="243.436165696589" cy="-742.681031047276" r="2" style="fill: rgb(0,0,0)" />
	<circle cx="199.641112102076" cy="-774.5" r="2" style="fill: rgb(0,0,0)" />
	<circle cx="155.846058507553" cy="-742.681031047308" r="2" style="fill: rgb(0,0,0)" />
	<circle cx="77.2950535945367" cy="-685.610385360452" r="2" style="fill: rgb(0,0,0)" />
	<circle cx="33.5" cy="-653.791416407771" r="2" style="fill: rgb(0,0,0)" />
	<circle cx="50.2282219339824" cy="-602.307243155322" r="2" style="fill: rgb(0,0,0)" />
	<circle cx="138.280216377057" cy="-305.385476414308" r="2" style="fill: rgb(0,0,0)" />
	<circle cx="104.361885254989" cy="-260.520744366865" r="2" style="fill: rgb(0,0,0)" />
	<circle cx="121.090107188929" cy="-209.036571114423" r="2" style="fill: rgb(0,0,0)" />
	<circle cx="540.791503310915" cy="-258.304825171643" r="2" style="fill: rgb(0,0,0)" />
	<circle cx="492.592927706635" cy="-142.461650843183" r="2" style="fill: rgb(0,0,0)" />
	<circle cx="536.387981301162" cy="-174.280619795892" r="2" style="fill: rgb(0,0,0)" />
	<circle cx="454.456382750112" cy="-120.443506346574" r="2" style="fill: rgb(0,0,0)" />
	<circle cx="270.502997357082" cy="-90.9774775907095" r="2" style="fill: rgb(0,0,0)" />
	<circle cx="314.298050951595" cy="-59.1585086380135" r="2" style="fill: rgb(0,0,0)" />
	<circle cx="377.935988857024" cy="-59.1585086380192" r="2" style="fill: rgb(0,0,0)" />
	<circle cx="421.731042451546" cy="-90.9774775907282" r="2" style="fill: rgb(0,0,0)" />
	<circle cx="237.777657058537" cy="-120.44350634655" r="2" style="fill: rgb(0,0,0)" />
	<circle cx="61.2979352299192" cy="-453.432138257686" r="2" style="fill: rgb(0,0,0)" />
	<circle cx="423.485074392763" cy="-672.540208962737" r="2" style="fill: rgb(0,0,0)" />
	<circle cx="145.507448780991" cy="-738.077985430831" r="2" style="fill: rgb(0,0,0)" />
	<circle cx="98.6263211450129" cy="-711.011153770305" r="2" style="fill: rgb(0,0,0)" />
	<circle cx="368.135164400911" cy="-53.5" r="2" style="fill: rgb(0,0,0)" />
	<!--
	Generated using the Perl SVG Module V2.87
	by Ronan Oger

	-->
</svg>