<?xml version="1.0" encoding="UTF-8" standalone="yes"?>
<!DOCTYPE svg PUBLIC "-//W3C//DTD SVG 1.0//EN" "http://www.w3.org/TR/2001/REC-SVG-20010904/DTD/svg10.dtd">
<!-- generated using polymake; Michael Joswig, Georg Loho, Benjamin Lorenz, Rico Raber; license CC BY-NC-ND 3.0; see polymake.org and matchthenet.de -->
<svg height="841pt" id="document" viewBox="0 -811 547.473198023435 811" width="595pt" xmlns="http://www.w3.org/2000/svg" xmlns:svg="http://www.w3.org/2000/svg" xmlns:xlink="http://www.w3.org/1999/xlink">
	<title id="document_title">planar_net_</title>
	<polygon points="284.452354770536,-407.851525274236 332.363077931399,-407.851525274236 381.209445219088,-504.681382996212 315.364054297694,-520.791960316602 262.697867491297,-450.898676239536 " style="fill: rgb(14,173,105); fill-opacity: 1; stroke: rgb(0,0,0); stroke-width: 3" />
	<polygon points="361.494472064238,-312.971385660806 332.363077931399,-407.851525274236 284.452354770536,-407.851525274236 244.297356492665,-278.292940661999 283.810084291813,-251.197183364714 " style="fill: rgb(14,173,105); fill-opacity: 1; stroke: rgb(0,0,0); stroke-width: 3" />
	<polygon points="284.452354770536,-407.851525274236 262.697867491297,-450.898676239536 163.408069911861,-432.549428263557 145.652376035838,-333.15135084907 188.828151294154,-311.654526252291 " style="fill: rgb(14,173,105); fill-opacity: 1; stroke: rgb(0,0,0); stroke-width: 3" />
	<polygon points="381.209445219088,-504.681382996212 332.363077931399,-407.851525274236 402.247353708735,-337.374103242323 483.171675985554,-370.944910830543 " style="fill: rgb(14,173,105); fill-opacity: 1; stroke: rgb(0,0,0); stroke-width: 3" />
	<polygon points="262.697867491297,-450.898676239536 315.364054297694,-520.791960316602 253.933093893751,-583.122178663482 163.064008436512,-539.099803665667 166.813107664392,-482.541555108489 " style="fill: rgb(14,173,105); fill-opacity: 1; stroke: rgb(0,0,0); stroke-width: 3" />
	<polygon points="315.364054297694,-520.791960316602 381.209445219088,-504.681382996212 382.588157547452,-613.125181506149 340.089562308736,-635.245963486451 300.917614515707,-607.106058721218 " style="fill: rgb(14,173,105); fill-opacity: 1; stroke: rgb(0,0,0); stroke-width: 3" />
	<polygon points="381.209445219088,-504.681382996212 483.171675985554,-370.944910830543 536.973198023435,-440.090687586195 487.517310299796,-526.142956414674 " style="fill: rgb(14,173,105); fill-opacity: 1; stroke: rgb(0,0,0); stroke-width: 3" />
	<polygon points="437.911582249103,-270.120792750475 361.494472064238,-312.971385660806 283.810084291813,-251.197183364714 320.935739688254,-149.296810671948 " style="fill: rgb(14,173,105); fill-opacity: 1; stroke: rgb(0,0,0); stroke-width: 3" />
	<polygon points="244.297356492665,-278.292940661999 202.011367406357,-255.094748847305 205.918262265682,-167.666858662221 269.332695657375,-143.715063371953 283.810084291813,-251.197183364714 " style="fill: rgb(14,173,105); fill-opacity: 1; stroke: rgb(0,0,0); stroke-width: 3" />
	<polygon points="163.408069911861,-432.549428263557 115.435399259345,-462.740717414449 33.5,-403.733700576055 59.1228965728683,-320.053676876864 145.652376035838,-333.15135084907 " style="fill: rgb(14,173,105); fill-opacity: 1; stroke: rgb(0,0,0); stroke-width: 3" />
	<polygon points="253.933093893751,-583.122178663482 245.965706097406,-630.691255465141 111.942739326842,-651.5647604494 89.886492485641,-608.671987304091 163.064008436512,-539.099803665667 " style="fill: rgb(14,173,105); fill-opacity: 1; stroke: rgb(0,0,0); stroke-width: 3" />
	<polygon points="340.089562308736,-635.245963486451 382.588157547452,-613.125181506149 452.235401398834,-683.836859144953 411.848398370324,-774.5 364.289034123138,-768.708480389408 " style="fill: rgb(14,173,105); fill-opacity: 1; stroke: rgb(0,0,0); stroke-width: 3" />
	<polygon points="437.911582249103,-270.120792750475 320.935739688254,-149.296810671948 423.983972902324,-115.487746841857 483.212290531318,-195.130199995869 " style="fill: rgb(14,173,105); fill-opacity: 1; stroke: rgb(0,0,0); stroke-width: 3" />
	<polygon points="161.580030653924,-59.2916173934236 209.13938162508,-53.5 269.332695657375,-143.715063371953 205.918262265682,-167.666858662221 145.188903302925,-104.652384441951 " style="fill: rgb(14,173,105); fill-opacity: 1; stroke: rgb(0,0,0); stroke-width: 3" />
	<circle cx="284.452354770536" cy="-407.851525274236" r="2" style="fill: rgb(0,0,0)" />
	<circle cx="332.363077931399" cy="-407.851525274236" r="2" style="fill: rgb(0,0,0)" />
	<circle cx="381.209445219088" cy="-504.681382996212" r="2" style="fill: rgb(0,0,0)" />
	<circle cx="315.364054297694" cy="-520.791960316602" r="2" style="fill: rgb(0,0,0)" />
	<circle cx="262.697867491297" cy="-450.898676239536" r="2" style="fill: rgb(0,0,0)" />
	<circle cx="244.297356492665" cy="-278.292940661999" r="2" style="fill: rgb(0,0,0)" />
	<circle cx="283.810084291813" cy="-251.197183364714" r="2" style="fill: rgb(0,0,0)" />
	<circle cx="361.494472064238" cy="-312.971385660806" r="2" style="fill: rgb(0,0,0)" />
	<circle cx="163.408069911861" cy="-432.549428263557" r="2" style="fill: rgb(0,0,0)" />
	<circle cx="145.652376035838" cy="-333.15135084907" r="2" style="fill: rgb(0,0,0)" />
	<circle cx="188.828151294154" cy="-311.654526252291" r="2" style="fill: rgb(0,0,0)" />
	<circle cx="402.247353708735" cy="-337.374103242323" r="2" style="fill: rgb(0,0,0)" />
	<circle cx="483.171675985554" cy="-370.944910830543" r="2" style="fill: rgb(0,0,0)" />
	<circle cx="253.933093893751" cy="-583.122178663482" r="2" style="fill: rgb(0,0,0)" />
	<circle cx="163.064008436512" cy="-539.099803665667" r="2" style="fill: rgb(0,0,0)" />
	<circle cx="166.813107664392" cy="-482.541555108489" r="2" style="fill: rgb(0,0,0)" />
	<circle cx="382.588157547452" cy="-613.125181506149" r="2" style="fill: rgb(0,0,0)" />
	<circle cx="340.089562308736" cy="-635.245963486451" r="2" style="fill: rgb(0,0,0)" />
	<circle cx="300.917614515707" cy="-607.106058721218" r="2" style="fill: rgb(0,0,0)" />
	<circle cx="320.935739688254" cy="-149.296810671948" r="2" style="fill: rgb(0,0,0)" />
	<circle cx="437.911582249103" cy="-270.120792750475" r="2" style="fill: rgb(0,0,0)" />
	<circle cx="202.011367406357" cy="-255.094748847305" r="2" style="fill: rgb(0,0,0)" />
	<circle cx="205.918262265682" cy="-167.666858662221" r="2" style="fill: rgb(0,0,0)" />
	<circle cx="269.332695657375" cy="-143.715063371953" r="2" style="fill: rgb(0,0,0)" />
	<circle cx="115.435399259345" cy="-462.740717414449" r="2" style="fill: rgb(0,0,0)" />
	<circle cx="33.5" cy="-403.733700576055" r="2" style="fill: rgb(0,0,0)" />
	<circle cx="59.1228965728683" cy="-320.053676876864" r="2" style="fill: rgb(0,0,0)" />
	<circle cx="536.973198023435" cy="-440.090687586195" r="2" style="fill: rgb(0,0,0)" />
	<circle cx="487.517310299796" cy="-526.142956414674" r="2" style="fill: rgb(0,0,0)" />
	<circle cx="245.965706097406" cy="-630.691255465141" r="2" style="fill: rgb(0,0,0)" />
	<circle cx="111.942739326842" cy="-651.5647604494" r="2" style="fill: rgb(0,0,0)" />
	<circle cx="89.886492485641" cy="-608.671987304091" r="2" style="fill: rgb(0,0,0)" />
	<circle cx="452.235401398834" cy="-683.836859144953" r="2" style="fill: rgb(0,0,0)" />
	<circle cx="411.848398370324" cy="-774.5" r="2" style="fill: rgb(0,0,0)" />
	<circle cx="364.289034123138" cy="-768.708480389408" r="2" style="fill: rgb(0,0,0)" />
	<circle cx="423.983972902324" cy="-115.487746841857" r="2" style="fill: rgb(0,0,0)" />
	<circle cx="483.212290531318" cy="-195.130199995869" r="2" style="fill: rgb(0,0,0)" />
	<circle cx="145.188903302925" cy="-104.652384441951" r="2" style="fill: rgb(0,0,0)" />
	<circle cx="161.580030653924" cy="-59.2916173934236" r="2" style="fill: rgb(0,0,0)" />
	<circle cx="209.13938162508" cy="-53.5" r="2" style="fill: rgb(0,0,0)" />
	<!--
	Generated using the Perl SVG Module V2.87
	by Ronan Oger

	-->
</svg>