<?xml version="1.0" encoding="UTF-8" standalone="yes"?>
<!DOCTYPE svg PUBLIC "-//W3C//DTD SVG 1.0//EN" "http://www.w3.org/TR/2001/REC-SVG-20010904/DTD/svg10.dtd">
<!-- generated using polymake; Michael Joswig, Georg Loho, Benjamin Lorenz, Rico Raber; license CC BY-NC-SA 3.0; see polymake.org and matchthenet.de -->
<svg height="841pt" id="document" viewBox="0 -769.977483626519 572 769.977483626519" width="595pt" xmlns="http://www.w3.org/2000/svg" xmlns:svg="http://www.w3.org/2000/svg" xmlns:xlink="http://www.w3.org/1999/xlink">
	<title id="document_title">planar_net_</title>
	<polygon points="231.873710147867,-393.488741813283 286.293133162278,-393.488741813283 305.643200267677,-426.364447789944 296.686318133954,-431.636312383993 " style="fill: rgb(67,184,206); fill-opacity: 1; stroke: rgb(0,0,0); stroke-width: 3" />
	<polygon points="305.643200267677,-360.613035836621 286.293133162278,-393.488741813283 231.873710147867,-393.488741813283 296.686318133955,-355.341171242572 " style="fill: rgb(67,184,206); fill-opacity: 1; stroke: rgb(0,0,0); stroke-width: 3" />
	<polygon points="231.873710147867,-393.488741813283 296.686318133954,-431.636312383993 294.795111720476,-506.818322417691 " style="fill: rgb(14,173,105); fill-opacity: 1; stroke: rgb(0,0,0); stroke-width: 3" />
	<polygon points="231.873710147867,-393.488741813283 294.795111720476,-506.818322417691 229.98250373439,-468.670751846982 " style="fill: rgb(14,173,105); fill-opacity: 1; stroke: rgb(0,0,0); stroke-width: 3" />
	<polygon points="296.686318133955,-355.341171242572 231.873710147867,-393.488741813283 294.795111720471,-280.159161208878 " style="fill: rgb(14,173,105); fill-opacity: 1; stroke: rgb(0,0,0); stroke-width: 3" />
	<polygon points="296.686318133954,-431.636312383993 305.643200267677,-426.364447789944 324.993267373078,-459.240153766605 298.577524547483,-506.818322417741 " style="fill: rgb(67,184,206); fill-opacity: 1; stroke: rgb(0,0,0); stroke-width: 3" />
	<polygon points="294.795111720471,-280.159161208878 231.873710147867,-393.488741813283 229.982503734388,-318.306731779586 " style="fill: rgb(14,173,105); fill-opacity: 1; stroke: rgb(0,0,0); stroke-width: 3" />
	<polygon points="298.577524547483,-506.818322417741 324.993267373078,-459.240153766605 363.128774235151,-458.280853594528 363.390132533531,-468.670751846934 " style="fill: rgb(67,184,206); fill-opacity: 1; stroke: rgb(0,0,0); stroke-width: 3" />
	<polygon points="231.873710147867,-393.488741813283 229.98250373439,-468.670751846982 163.333873994254,-503.511409822511 " style="fill: rgb(14,173,105); fill-opacity: 1; stroke: rgb(0,0,0); stroke-width: 3" />
	<polygon points="305.643200267677,-360.613035836621 296.686318133955,-355.341171242572 298.577524547451,-280.159161208874 324.993267373079,-327.737329859962 " style="fill: rgb(67,184,206); fill-opacity: 1; stroke: rgb(0,0,0); stroke-width: 3" />
	<polygon points="231.873710147867,-393.488741813283 163.333873994254,-503.511409822511 165.22508040773,-428.329399788815 " style="fill: rgb(14,173,105); fill-opacity: 1; stroke: rgb(0,0,0); stroke-width: 3" />
	<polygon points="363.128774235153,-328.696630032005 324.993267373079,-327.737329859962 298.577524547451,-280.159161208874 363.390132533528,-318.306731779604 " style="fill: rgb(67,184,206); fill-opacity: 1; stroke: rgb(0,0,0); stroke-width: 3" />
	<polygon points="229.982503734388,-318.306731779586 231.873710147867,-393.488741813283 163.333873994254,-283.466073804067 " style="fill: rgb(14,173,105); fill-opacity: 1; stroke: rgb(0,0,0); stroke-width: 3" />
	<polygon points="363.390132533531,-468.670751846934 363.128774235151,-458.280853594528 401.264281097224,-457.321553422457 430.038762273773,-503.511409822391 " style="fill: rgb(67,184,206); fill-opacity: 1; stroke: rgb(0,0,0); stroke-width: 3" />
	<polygon points="229.98250373439,-468.670751846982 294.795111720476,-506.818322417691 165.169895748302,-506.818322417694 " style="fill: rgb(14,173,105); fill-opacity: 1; stroke: rgb(0,0,0); stroke-width: 3" />
	<polygon points="231.873710147867,-393.488741813283 165.225080407731,-358.648083837758 163.333873994254,-283.466073804067 " style="fill: rgb(14,173,105); fill-opacity: 1; stroke: rgb(0,0,0); stroke-width: 3" />
	<polygon points="401.264281097224,-457.321553422457 418.936941760381,-423.514539275505 428.147555860122,-428.329399788669 430.038762273773,-503.511409822391 " style="fill: rgb(67,184,206); fill-opacity: 1; stroke: rgb(0,0,0); stroke-width: 3" />
	<polygon points="165.169895748302,-506.818322417694 294.795111720476,-506.818322417691 229.982503734391,-544.965892988401 " style="fill: rgb(14,173,105); fill-opacity: 1; stroke: rgb(0,0,0); stroke-width: 3" />
	<polygon points="363.128774235153,-328.696630032005 363.390132533528,-318.306731779604 430.038762273687,-283.466073804114 401.264281097226,-329.655930204052 " style="fill: rgb(67,184,206); fill-opacity: 1; stroke: rgb(0,0,0); stroke-width: 3" />
	<polygon points="298.577524547483,-506.818322417741 363.390132533531,-468.670751846934 428.202740519672,-506.81832241756 " style="fill: rgb(14,173,105); fill-opacity: 1; stroke: rgb(0,0,0); stroke-width: 3" />
	<polygon points="294.795111720471,-280.159161208878 229.982503734388,-318.306731779586 165.169895748303,-280.159161208872 " style="fill: rgb(14,173,105); fill-opacity: 1; stroke: rgb(0,0,0); stroke-width: 3" />
	<polygon points="409.169309897232,-391.301149928964 404.559171458276,-353.433171846937 447.778355042535,-320.363914650384 419.486320779493,-390.045132289456 " style="fill: rgb(67,184,206); fill-opacity: 1; stroke: rgb(0,0,0); stroke-width: 3" />
	<polygon points="298.577524547483,-506.818322417741 428.202740519672,-506.81832241756 363.390132533588,-544.96589298827 " style="fill: rgb(14,173,105); fill-opacity: 1; stroke: rgb(0,0,0); stroke-width: 3" />
	<polygon points="294.795111720471,-280.159161208878 165.169895748303,-280.159161208872 229.982503734388,-242.011590638162 " style="fill: rgb(14,173,105); fill-opacity: 1; stroke: rgb(0,0,0); stroke-width: 3" />
	<polygon points="229.982503734391,-544.965892988401 294.795111720476,-506.818322417691 231.873710147872,-620.147903022095 " style="fill: rgb(14,173,105); fill-opacity: 1; stroke: rgb(0,0,0); stroke-width: 3" />
	<polygon points="363.390132533528,-318.306731779604 298.577524547451,-280.159161208874 428.202740519624,-280.159161208911 " style="fill: rgb(14,173,105); fill-opacity: 1; stroke: rgb(0,0,0); stroke-width: 3" />
	<polygon points="165.22508040773,-428.329399788815 163.333873994254,-503.511409822511 100.412472421642,-390.181829218106 " style="fill: rgb(14,173,105); fill-opacity: 1; stroke: rgb(0,0,0); stroke-width: 3" />
	<polygon points="298.577524547483,-506.818322417741 363.390132533588,-544.96589298827 361.498926120277,-620.147903021976 " style="fill: rgb(14,173,105); fill-opacity: 1; stroke: rgb(0,0,0); stroke-width: 3" />
	<polygon points="428.202740519624,-280.159161208911 298.577524547451,-280.159161208874 363.390132533536,-242.011590638164 " style="fill: rgb(14,173,105); fill-opacity: 1; stroke: rgb(0,0,0); stroke-width: 3" />
	<polygon points="100.412472421642,-390.181829218106 163.333873994254,-503.511409822511 98.5212660081675,-465.363839251805 " style="fill: rgb(14,173,105); fill-opacity: 1; stroke: rgb(0,0,0); stroke-width: 3" />
	<polygon points="294.795111720471,-280.159161208878 229.982503734388,-242.011590638162 231.873710147875,-166.82958060446 " style="fill: rgb(14,173,105); fill-opacity: 1; stroke: rgb(0,0,0); stroke-width: 3" />
	<polygon points="165.169895748302,-506.818322417694 229.982503734391,-544.965892988401 228.091297320914,-620.147903022104 " style="fill: rgb(14,173,105); fill-opacity: 1; stroke: rgb(0,0,0); stroke-width: 3" />
	<polygon points="428.147555860122,-428.329399788669 492.960163846128,-390.181829217814 430.038762273773,-503.511409822391 " style="fill: rgb(14,173,105); fill-opacity: 1; stroke: rgb(0,0,0); stroke-width: 3" />
	<polygon points="363.390132533536,-242.011590638164 298.577524547451,-280.159161208874 361.498926120055,-166.82958060447 " style="fill: rgb(14,173,105); fill-opacity: 1; stroke: rgb(0,0,0); stroke-width: 3" />
	<polygon points="165.169895748302,-506.818322417694 228.091297320914,-620.147903022104 163.278689334828,-582.000332451396 " style="fill: rgb(14,173,105); fill-opacity: 1; stroke: rgb(0,0,0); stroke-width: 3" />
	<polygon points="430.038762273773,-503.511409822391 492.960163846128,-390.181829217814 494.851370259783,-465.363839251506 " style="fill: rgb(14,173,105); fill-opacity: 1; stroke: rgb(0,0,0); stroke-width: 3" />
	<polygon points="98.5212660081675,-465.363839251805 163.333873994254,-503.511409822511 108.914450979839,-503.511409822512 89.5643838744457,-470.635703845852 " style="fill: rgb(67,184,206); fill-opacity: 1; stroke: rgb(0,0,0); stroke-width: 3" />
	<polygon points="229.982503734388,-242.011590638162 165.169895748303,-280.159161208872 228.09129732091,-166.829580604463 " style="fill: rgb(14,173,105); fill-opacity: 1; stroke: rgb(0,0,0); stroke-width: 3" />
	<polygon points="363.390132533588,-544.96589298827 428.202740519672,-506.81832241756 365.281338947067,-620.147903021968 " style="fill: rgb(14,173,105); fill-opacity: 1; stroke: rgb(0,0,0); stroke-width: 3" />
	<polygon points="165.169895748302,-506.818322417694 163.278689334828,-582.000332451396 154.0680752351,-586.815192964577 136.395414571874,-553.008178817654 " style="fill: rgb(67,184,206); fill-opacity: 1; stroke: rgb(0,0,0); stroke-width: 3" />
	<polygon points="228.09129732091,-166.829580604463 165.169895748303,-280.159161208872 163.278689334823,-204.977151175175 " style="fill: rgb(14,173,105); fill-opacity: 1; stroke: rgb(0,0,0); stroke-width: 3" />
	<polygon points="365.281338947067,-620.147903021968 428.202740519672,-506.81832241756 430.093946933153,-582.000332451256 " style="fill: rgb(14,173,105); fill-opacity: 1; stroke: rgb(0,0,0); stroke-width: 3" />
	<polygon points="100.412472421642,-390.181829218106 98.5212660081675,-465.363839251805 89.3106519084378,-470.178699764983 71.6379912452139,-436.371685618066 " style="fill: rgb(67,184,206); fill-opacity: 1; stroke: rgb(0,0,0); stroke-width: 3" />
	<polygon points="430.038762273773,-503.511409822391 494.851370259783,-465.363839251506 559.663978245973,-503.511409822057 " style="fill: rgb(14,173,105); fill-opacity: 1; stroke: rgb(0,0,0); stroke-width: 3" />
	<polygon points="428.202740519624,-280.159161208911 363.390132533536,-242.011590638164 365.281338947052,-166.829580604463 " style="fill: rgb(14,173,105); fill-opacity: 1; stroke: rgb(0,0,0); stroke-width: 3" />
	<polygon points="165.169895748303,-280.159161208872 136.395414571871,-233.969304808911 154.068075235099,-200.162290662002 163.278689334823,-204.977151175175 " style="fill: rgb(67,184,206); fill-opacity: 1; stroke: rgb(0,0,0); stroke-width: 3" />
	<polygon points="430.093946933153,-582.000332451256 428.202740519672,-506.81832241756 496.742576673289,-616.840990426779 " style="fill: rgb(14,173,105); fill-opacity: 1; stroke: rgb(0,0,0); stroke-width: 3" />
	<polygon points="428.202740519624,-280.159161208911 365.281338947052,-166.829580604463 430.093946933122,-204.977151175197 " style="fill: rgb(14,173,105); fill-opacity: 1; stroke: rgb(0,0,0); stroke-width: 3" />
	<polygon points="494.851370259783,-465.363839251506 492.960163846128,-390.181829217814 561.5,-500.204497226874 " style="fill: rgb(14,173,105); fill-opacity: 1; stroke: rgb(0,0,0); stroke-width: 3" />
	<polygon points="163.278689334828,-582.000332451396 228.091297320914,-620.147903022104 173.671874306498,-620.147903022104 154.321807201104,-587.272197045441 " style="fill: rgb(67,184,206); fill-opacity: 1; stroke: rgb(0,0,0); stroke-width: 3" />
	<polygon points="428.202740519624,-280.159161208911 430.093946933122,-204.977151175197 496.742576673275,-170.136493199683 " style="fill: rgb(14,173,105); fill-opacity: 1; stroke: rgb(0,0,0); stroke-width: 3" />
	<polygon points="173.671874306498,-620.147903022104 228.091297320914,-620.147903022104 163.278689334826,-658.295473592815 154.321807201103,-653.023608998764 " style="fill: rgb(67,184,206); fill-opacity: 1; stroke: rgb(0,0,0); stroke-width: 3" />
	<polygon points="365.281338947067,-620.147903021968 430.093946933153,-582.000332451256 494.906554919245,-620.147903021973 " style="fill: rgb(14,173,105); fill-opacity: 1; stroke: rgb(0,0,0); stroke-width: 3" />
	<polygon points="228.09129732091,-166.829580604463 163.278689334823,-204.977151175175 154.321807201097,-199.705286581121 173.671874306497,-166.829580604465 " style="fill: rgb(67,184,206); fill-opacity: 1; stroke: rgb(0,0,0); stroke-width: 3" />
	<polygon points="365.281338947067,-620.147903021968 494.906554919245,-620.147903021973 430.09394693316,-658.295473592683 " style="fill: rgb(14,173,105); fill-opacity: 1; stroke: rgb(0,0,0); stroke-width: 3" />
	<polygon points="228.09129732091,-166.829580604463 173.671874306497,-166.829580604465 154.321807201098,-133.953874627802 163.278689334822,-128.682010033753 " style="fill: rgb(67,184,206); fill-opacity: 1; stroke: rgb(0,0,0); stroke-width: 3" />
	<polygon points="430.093946933122,-204.977151175197 365.281338947052,-166.829580604463 494.90655491922,-166.829580604511 " style="fill: rgb(14,173,105); fill-opacity: 1; stroke: rgb(0,0,0); stroke-width: 3" />
	<polygon points="494.90655491922,-166.829580604511 365.281338947052,-166.829580604463 430.093946933137,-128.682010033753 " style="fill: rgb(14,173,105); fill-opacity: 1; stroke: rgb(0,0,0); stroke-width: 3" />
	<polygon points="163.278689334826,-658.295473592815 161.38748292133,-733.477483626519 134.971740095698,-685.899314975422 154.321807201103,-653.023608998764 " style="fill: rgb(67,184,206); fill-opacity: 1; stroke: rgb(0,0,0); stroke-width: 3" />
	<polygon points="161.387482921291,-53.5 163.278689334822,-128.682010033753 154.321807201098,-133.953874627802 134.971740095696,-101.078168651142 " style="fill: rgb(67,184,206); fill-opacity: 1; stroke: rgb(0,0,0); stroke-width: 3" />
	<polygon points="305.643200267677,-426.364447789944 286.293133162278,-393.488741813283 307.184317429485,-361.570164771673 352.74468246326,-395.069276673532 " style="fill: rgb(67,184,206); fill-opacity: 1; stroke: rgb(0,0,0); stroke-width: 3" />
	<polygon points="305.643200267677,-426.364447789944 355.867686642728,-400.375251407838 363.040043281852,-456.468875470344 324.993267373078,-459.240153766605 " style="fill: rgb(67,184,206); fill-opacity: 1; stroke: rgb(0,0,0); stroke-width: 3" />
	<polygon points="363.040043281852,-456.468875470344 355.867686642728,-400.375251407838 411.015584449518,-412.891110456194 400.560055558186,-449.577879952147 " style="fill: rgb(67,184,206); fill-opacity: 1; stroke: rgb(0,0,0); stroke-width: 3" />
	<polygon points="352.74468246326,-395.069276673532 368.571587371706,-340.778886720571 404.559171458276,-353.433171846937 409.169309897232,-391.301149928964 " style="fill: rgb(67,184,206); fill-opacity: 1; stroke: rgb(0,0,0); stroke-width: 3" />
	<polygon points="352.74468246326,-395.069276673532 307.184317429485,-361.570164771673 331.421618543368,-332.111882826482 368.571587371706,-340.778886720571 " style="fill: rgb(67,184,206); fill-opacity: 1; stroke: rgb(0,0,0); stroke-width: 3" />
	<polygon points="154.321807201104,-587.272197045441 173.671874306498,-620.147903022104 152.780690039288,-652.066480063722 107.220325005519,-618.567368161849 " style="fill: rgb(67,184,206); fill-opacity: 1; stroke: rgb(0,0,0); stroke-width: 3" />
	<polygon points="108.914450979839,-503.511409822512 88.0232667126259,-535.429986864125 42.4629016788616,-501.930874962262 89.5643838744457,-470.635703845852 " style="fill: rgb(67,184,206); fill-opacity: 1; stroke: rgb(0,0,0); stroke-width: 3" />
	<polygon points="71.6379912452139,-436.371685618066 89.3106519084378,-470.178699764983 37.8429953705211,-493.609826300437 33.5,-437.226533106121 " style="fill: rgb(67,184,206); fill-opacity: 1; stroke: rgb(0,0,0); stroke-width: 3" />
	<polygon points="154.321807201097,-199.705286581121 107.220325005517,-168.410115464719 152.780690039286,-134.911003562854 173.671874306497,-166.829580604465 " style="fill: rgb(67,184,206); fill-opacity: 1; stroke: rgb(0,0,0); stroke-width: 3" />
	<polygon points="107.220325005519,-618.567368161849 152.780690039288,-652.066480063722 128.543388925397,-681.524762008907 91.39342009706,-672.857758114806 " style="fill: rgb(67,184,206); fill-opacity: 1; stroke: rgb(0,0,0); stroke-width: 3" />
	<circle cx="231.873710147867" cy="-393.488741813283" r="2" style="fill: rgb(0,0,0)" />
	<circle cx="286.293133162278" cy="-393.488741813283" r="2" style="fill: rgb(0,0,0)" />
	<circle cx="305.643200267677" cy="-426.364447789944" r="2" style="fill: rgb(0,0,0)" />
	<circle cx="296.686318133954" cy="-431.636312383993" r="2" style="fill: rgb(0,0,0)" />
	<circle cx="296.686318133955" cy="-355.341171242572" r="2" style="fill: rgb(0,0,0)" />
	<circle cx="305.643200267677" cy="-360.613035836621" r="2" style="fill: rgb(0,0,0)" />
	<circle cx="294.795111720476" cy="-506.818322417691" r="2" style="fill: rgb(0,0,0)" />
	<circle cx="324.993267373078" cy="-459.240153766605" r="2" style="fill: rgb(0,0,0)" />
	<circle cx="298.577524547483" cy="-506.818322417741" r="2" style="fill: rgb(0,0,0)" />
	<circle cx="307.184317429485" cy="-361.570164771673" r="2" style="fill: rgb(0,0,0)" />
	<circle cx="352.74468246326" cy="-395.069276673532" r="2" style="fill: rgb(0,0,0)" />
	<circle cx="294.795111720471" cy="-280.159161208878" r="2" style="fill: rgb(0,0,0)" />
	<circle cx="298.577524547451" cy="-280.159161208874" r="2" style="fill: rgb(0,0,0)" />
	<circle cx="324.993267373079" cy="-327.737329859962" r="2" style="fill: rgb(0,0,0)" />
	<circle cx="229.98250373439" cy="-468.670751846982" r="2" style="fill: rgb(0,0,0)" />
	<circle cx="363.128774235151" cy="-458.280853594528" r="2" style="fill: rgb(0,0,0)" />
	<circle cx="363.390132533531" cy="-468.670751846934" r="2" style="fill: rgb(0,0,0)" />
	<circle cx="355.867686642728" cy="-400.375251407838" r="2" style="fill: rgb(0,0,0)" />
	<circle cx="363.040043281852" cy="-456.468875470344" r="2" style="fill: rgb(0,0,0)" />
	<circle cx="331.421618543368" cy="-332.111882826482" r="2" style="fill: rgb(0,0,0)" />
	<circle cx="368.571587371706" cy="-340.778886720571" r="2" style="fill: rgb(0,0,0)" />
	<circle cx="229.982503734388" cy="-318.306731779586" r="2" style="fill: rgb(0,0,0)" />
	<circle cx="363.390132533528" cy="-318.306731779604" r="2" style="fill: rgb(0,0,0)" />
	<circle cx="363.128774235153" cy="-328.696630032005" r="2" style="fill: rgb(0,0,0)" />
	<circle cx="163.333873994254" cy="-503.511409822511" r="2" style="fill: rgb(0,0,0)" />
	<circle cx="165.169895748302" cy="-506.818322417694" r="2" style="fill: rgb(0,0,0)" />
	<circle cx="401.264281097224" cy="-457.321553422457" r="2" style="fill: rgb(0,0,0)" />
	<circle cx="430.038762273773" cy="-503.511409822391" r="2" style="fill: rgb(0,0,0)" />
	<circle cx="428.202740519672" cy="-506.81832241756" r="2" style="fill: rgb(0,0,0)" />
	<circle cx="411.015584449518" cy="-412.891110456194" r="2" style="fill: rgb(0,0,0)" />
	<circle cx="400.560055558186" cy="-449.577879952147" r="2" style="fill: rgb(0,0,0)" />
	<circle cx="404.559171458276" cy="-353.433171846937" r="2" style="fill: rgb(0,0,0)" />
	<circle cx="409.169309897232" cy="-391.301149928964" r="2" style="fill: rgb(0,0,0)" />
	<circle cx="163.333873994254" cy="-283.466073804067" r="2" style="fill: rgb(0,0,0)" />
	<circle cx="165.169895748303" cy="-280.159161208872" r="2" style="fill: rgb(0,0,0)" />
	<circle cx="430.038762273687" cy="-283.466073804114" r="2" style="fill: rgb(0,0,0)" />
	<circle cx="401.264281097226" cy="-329.655930204052" r="2" style="fill: rgb(0,0,0)" />
	<circle cx="428.202740519624" cy="-280.159161208911" r="2" style="fill: rgb(0,0,0)" />
	<circle cx="165.22508040773" cy="-428.329399788815" r="2" style="fill: rgb(0,0,0)" />
	<circle cx="229.982503734391" cy="-544.965892988401" r="2" style="fill: rgb(0,0,0)" />
	<circle cx="418.936941760381" cy="-423.514539275505" r="2" style="fill: rgb(0,0,0)" />
	<circle cx="428.147555860122" cy="-428.329399788669" r="2" style="fill: rgb(0,0,0)" />
	<circle cx="363.390132533588" cy="-544.96589298827" r="2" style="fill: rgb(0,0,0)" />
	<circle cx="447.778355042535" cy="-320.363914650384" r="2" style="fill: rgb(0,0,0)" />
	<circle cx="419.486320779493" cy="-390.045132289456" r="2" style="fill: rgb(0,0,0)" />
	<circle cx="165.225080407731" cy="-358.648083837758" r="2" style="fill: rgb(0,0,0)" />
	<circle cx="229.982503734388" cy="-242.011590638162" r="2" style="fill: rgb(0,0,0)" />
	<circle cx="363.390132533536" cy="-242.011590638164" r="2" style="fill: rgb(0,0,0)" />
	<circle cx="100.412472421642" cy="-390.181829218106" r="2" style="fill: rgb(0,0,0)" />
	<circle cx="231.873710147872" cy="-620.147903022095" r="2" style="fill: rgb(0,0,0)" />
	<circle cx="228.091297320914" cy="-620.147903022104" r="2" style="fill: rgb(0,0,0)" />
	<circle cx="492.960163846128" cy="-390.181829217814" r="2" style="fill: rgb(0,0,0)" />
	<circle cx="361.498926120277" cy="-620.147903021976" r="2" style="fill: rgb(0,0,0)" />
	<circle cx="365.281338947067" cy="-620.147903021968" r="2" style="fill: rgb(0,0,0)" />
	<circle cx="231.873710147875" cy="-166.82958060446" r="2" style="fill: rgb(0,0,0)" />
	<circle cx="228.09129732091" cy="-166.829580604463" r="2" style="fill: rgb(0,0,0)" />
	<circle cx="361.498926120055" cy="-166.82958060447" r="2" style="fill: rgb(0,0,0)" />
	<circle cx="365.281338947052" cy="-166.829580604463" r="2" style="fill: rgb(0,0,0)" />
	<circle cx="98.5212660081675" cy="-465.363839251805" r="2" style="fill: rgb(0,0,0)" />
	<circle cx="163.278689334828" cy="-582.000332451396" r="2" style="fill: rgb(0,0,0)" />
	<circle cx="494.851370259783" cy="-465.363839251506" r="2" style="fill: rgb(0,0,0)" />
	<circle cx="430.093946933153" cy="-582.000332451256" r="2" style="fill: rgb(0,0,0)" />
	<circle cx="163.278689334823" cy="-204.977151175175" r="2" style="fill: rgb(0,0,0)" />
	<circle cx="430.093946933122" cy="-204.977151175197" r="2" style="fill: rgb(0,0,0)" />
	<circle cx="108.914450979839" cy="-503.511409822512" r="2" style="fill: rgb(0,0,0)" />
	<circle cx="89.5643838744457" cy="-470.635703845852" r="2" style="fill: rgb(0,0,0)" />
	<circle cx="89.3106519084378" cy="-470.178699764983" r="2" style="fill: rgb(0,0,0)" />
	<circle cx="71.6379912452139" cy="-436.371685618066" r="2" style="fill: rgb(0,0,0)" />
	<circle cx="154.0680752351" cy="-586.815192964577" r="2" style="fill: rgb(0,0,0)" />
	<circle cx="136.395414571874" cy="-553.008178817654" r="2" style="fill: rgb(0,0,0)" />
	<circle cx="173.671874306498" cy="-620.147903022104" r="2" style="fill: rgb(0,0,0)" />
	<circle cx="154.321807201104" cy="-587.272197045441" r="2" style="fill: rgb(0,0,0)" />
	<circle cx="559.663978245973" cy="-503.511409822057" r="2" style="fill: rgb(0,0,0)" />
	<circle cx="561.5" cy="-500.204497226874" r="2" style="fill: rgb(0,0,0)" />
	<circle cx="496.742576673289" cy="-616.840990426779" r="2" style="fill: rgb(0,0,0)" />
	<circle cx="494.906554919245" cy="-620.147903021973" r="2" style="fill: rgb(0,0,0)" />
	<circle cx="136.395414571871" cy="-233.969304808911" r="2" style="fill: rgb(0,0,0)" />
	<circle cx="154.068075235099" cy="-200.162290662002" r="2" style="fill: rgb(0,0,0)" />
	<circle cx="154.321807201097" cy="-199.705286581121" r="2" style="fill: rgb(0,0,0)" />
	<circle cx="173.671874306497" cy="-166.829580604465" r="2" style="fill: rgb(0,0,0)" />
	<circle cx="496.742576673275" cy="-170.136493199683" r="2" style="fill: rgb(0,0,0)" />
	<circle cx="494.90655491922" cy="-166.829580604511" r="2" style="fill: rgb(0,0,0)" />
	<circle cx="88.0232667126259" cy="-535.429986864125" r="2" style="fill: rgb(0,0,0)" />
	<circle cx="42.4629016788616" cy="-501.930874962262" r="2" style="fill: rgb(0,0,0)" />
	<circle cx="37.8429953705211" cy="-493.609826300437" r="2" style="fill: rgb(0,0,0)" />
	<circle cx="33.5" cy="-437.226533106121" r="2" style="fill: rgb(0,0,0)" />
	<circle cx="163.278689334826" cy="-658.295473592815" r="2" style="fill: rgb(0,0,0)" />
	<circle cx="154.321807201103" cy="-653.023608998764" r="2" style="fill: rgb(0,0,0)" />
	<circle cx="152.780690039288" cy="-652.066480063722" r="2" style="fill: rgb(0,0,0)" />
	<circle cx="107.220325005519" cy="-618.567368161849" r="2" style="fill: rgb(0,0,0)" />
	<circle cx="430.09394693316" cy="-658.295473592683" r="2" style="fill: rgb(0,0,0)" />
	<circle cx="154.321807201098" cy="-133.953874627802" r="2" style="fill: rgb(0,0,0)" />
	<circle cx="163.278689334822" cy="-128.682010033753" r="2" style="fill: rgb(0,0,0)" />
	<circle cx="107.220325005517" cy="-168.410115464719" r="2" style="fill: rgb(0,0,0)" />
	<circle cx="152.780690039286" cy="-134.911003562854" r="2" style="fill: rgb(0,0,0)" />
	<circle cx="430.093946933137" cy="-128.682010033753" r="2" style="fill: rgb(0,0,0)" />
	<circle cx="161.38748292133" cy="-733.477483626519" r="2" style="fill: rgb(0,0,0)" />
	<circle cx="134.971740095698" cy="-685.899314975422" r="2" style="fill: rgb(0,0,0)" />
	<circle cx="128.543388925397" cy="-681.524762008907" r="2" style="fill: rgb(0,0,0)" />
	<circle cx="91.39342009706" cy="-672.857758114806" r="2" style="fill: rgb(0,0,0)" />
	<circle cx="134.971740095696" cy="-101.078168651142" r="2" style="fill: rgb(0,0,0)" />
	<circle cx="161.387482921291" cy="-53.5" r="2" style="fill: rgb(0,0,0)" />
	<!-- 
	Generated using the Perl SVG Module V2.64
	by Ronan Oger
	Info: http://www.roitsystems.com/
 -->
</svg>