<?xml version="1.0" encoding="UTF-8" standalone="yes"?>
<!DOCTYPE svg PUBLIC "-//W3C//DTD SVG 1.0//EN" "http://www.w3.org/TR/2001/REC-SVG-20010904/DTD/svg10.dtd">
<!-- generated using polymake; Michael Joswig, Georg Loho, Benjamin Lorenz, Rico Raber; license CC BY-NC-ND 3.0; see polymake.org and matchthenet.de -->
<svg height="841pt" id="document" viewBox="0 -811 532.426065277794 811" width="595pt" xmlns="http://www.w3.org/2000/svg" xmlns:svg="http://www.w3.org/2000/svg" xmlns:xlink="http://www.w3.org/1999/xlink">
	<title id="document_title">planar_net_</title>
	<polygon points="307.74398550032,-414.000000000004 406.079698999873,-414.000000000004 332.784585666212,-479.557142333045 300.006014499705,-454.516542167134 " style="fill: rgb(42,107,61); fill-opacity: 1; stroke: rgb(0,0,0); stroke-width: 3" />
	<polygon points="307.74398550032,-414.000000000004 300.006014499696,-373.48345783287 332.784585666193,-348.442857666959 406.079698999873,-414.000000000004 " style="fill: rgb(42,107,61); fill-opacity: 1; stroke: rgb(0,0,0); stroke-width: 3" />
	<polygon points="332.784585666212,-479.557142333045 406.079698999873,-414.000000000004 395.153508611024,-511.726817778215 354.028070722533,-514.915037166429 " style="fill: rgb(42,107,61); fill-opacity: 1; stroke: rgb(0,0,0); stroke-width: 3" />
	<polygon points="395.153508610991,-316.273182221759 406.079698999873,-414.000000000004 332.784585666193,-348.442857666959 354.028070722506,-313.084962833554 " style="fill: rgb(42,107,61); fill-opacity: 1; stroke: rgb(0,0,0); stroke-width: 3" />
	<polygon points="395.153508611024,-511.726817778215 406.079698999873,-414.000000000004 463.087009370486,-494.125396184845 434.559397388256,-523.918713203577 " style="fill: rgb(42,107,61); fill-opacity: 1; stroke: rgb(0,0,0); stroke-width: 3" />
	<polygon points="350.567544889347,-119.057142333004 329.324059833044,-154.415037166403 288.198621944559,-151.226817778196 277.272431555673,-53.5 " style="fill: rgb(42,107,61); fill-opacity: 1; stroke: rgb(0,0,0); stroke-width: 3" />
	<polygon points="395.153508610991,-316.273182221759 354.028070722506,-313.084962833554 288.198621944559,-151.226817778196 329.324059833044,-154.415037166403 " style="fill: rgb(42,107,61); fill-opacity: 1; stroke: rgb(0,0,0); stroke-width: 3" />
	<polygon points="434.559397388256,-523.918713203577 463.087009370486,-494.125396184845 521.926065277794,-658.653633722078 493.398453295565,-688.44695074081 " style="fill: rgb(42,107,61); fill-opacity: 1; stroke: rgb(0,0,0); stroke-width: 3" />
	<polygon points="288.19862194462,-676.773182221801 329.32405983311,-673.584962833586 350.567544889423,-708.942857666982 277.272431555755,-774.5 " style="fill: rgb(42,107,61); fill-opacity: 1; stroke: rgb(0,0,0); stroke-width: 3" />
	<polygon points="354.028070722533,-514.915037166429 395.153508611024,-511.726817778215 329.32405983311,-673.584962833586 288.19862194462,-676.773182221801 " style="fill: rgb(42,107,61); fill-opacity: 1; stroke: rgb(0,0,0); stroke-width: 3" />
	<polygon points="395.153508611024,-511.726817778215 434.559397388256,-523.918713203577 463.017668166111,-696.318545777466 423.611779388877,-684.126650352103 " style="fill: rgb(42,107,61); fill-opacity: 1; stroke: rgb(0,0,0); stroke-width: 3" />
	<polygon points="143.034210333189,-296.727818666226 69.7390969995118,-231.170676333219 168.074810499049,-231.170676333193 175.812781499686,-271.687218500315 " style="fill: rgb(42,107,61); fill-opacity: 1; stroke: rgb(0,0,0); stroke-width: 3" />
	<polygon points="300.006014499696,-373.48345783287 143.034210333189,-296.727818666226 175.812781499686,-271.687218500315 332.784585666193,-348.442857666959 " style="fill: rgb(42,107,61); fill-opacity: 1; stroke: rgb(0,0,0); stroke-width: 3" />
	<polygon points="354.028070722506,-313.084962833554 332.784585666193,-348.442857666959 239.062906610657,-200.971428833505 260.30639166697,-165.613534000099 " style="fill: rgb(42,107,61); fill-opacity: 1; stroke: rgb(0,0,0); stroke-width: 3" />
	<polygon points="143.034210333209,-531.272181333802 175.812781499717,-556.312781499713 168.074810499093,-596.829323666843 69.7390969995529,-596.829323666831 " style="fill: rgb(42,107,61); fill-opacity: 1; stroke: rgb(0,0,0); stroke-width: 3" />
	<polygon points="300.006014499705,-454.516542167134 332.784585666212,-479.557142333045 175.812781499717,-556.312781499713 143.034210333209,-531.272181333802 " style="fill: rgb(42,107,61); fill-opacity: 1; stroke: rgb(0,0,0); stroke-width: 3" />
	<polygon points="332.784585666212,-479.557142333045 354.028070722533,-514.915037166429 260.306391667063,-662.386465999924 239.062906610741,-627.028571166539 " style="fill: rgb(42,107,61); fill-opacity: 1; stroke: rgb(0,0,0); stroke-width: 3" />
	<polygon points="139.573684500171,-461.437593833243 131.835713499555,-501.954136000373 33.5,-501.954136000366 106.795113333654,-436.396993667335 " style="fill: rgb(42,107,61); fill-opacity: 1; stroke: rgb(0,0,0); stroke-width: 3" />
	<polygon points="307.74398550032,-414.000000000004 300.006014499705,-454.516542167134 131.835713499555,-501.954136000373 139.573684500171,-461.437593833243 " style="fill: rgb(42,107,61); fill-opacity: 1; stroke: rgb(0,0,0); stroke-width: 3" />
	<polygon points="307.74398550032,-414.000000000004 139.573684500162,-366.562406166798 131.835713499537,-326.045863999663 300.006014499696,-373.48345783287 " style="fill: rgb(42,107,61); fill-opacity: 1; stroke: rgb(0,0,0); stroke-width: 3" />
	<circle cx="307.74398550032" cy="-414.000000000004" r="2" style="fill: rgb(0,0,0)" />
	<circle cx="406.079698999873" cy="-414.000000000004" r="2" style="fill: rgb(0,0,0)" />
	<circle cx="332.784585666212" cy="-479.557142333045" r="2" style="fill: rgb(0,0,0)" />
	<circle cx="300.006014499705" cy="-454.516542167134" r="2" style="fill: rgb(0,0,0)" />
	<circle cx="300.006014499696" cy="-373.48345783287" r="2" style="fill: rgb(0,0,0)" />
	<circle cx="332.784585666193" cy="-348.442857666959" r="2" style="fill: rgb(0,0,0)" />
	<circle cx="395.153508611024" cy="-511.726817778215" r="2" style="fill: rgb(0,0,0)" />
	<circle cx="354.028070722533" cy="-514.915037166429" r="2" style="fill: rgb(0,0,0)" />
	<circle cx="175.812781499717" cy="-556.312781499713" r="2" style="fill: rgb(0,0,0)" />
	<circle cx="143.034210333209" cy="-531.272181333802" r="2" style="fill: rgb(0,0,0)" />
	<circle cx="131.835713499555" cy="-501.954136000373" r="2" style="fill: rgb(0,0,0)" />
	<circle cx="139.573684500171" cy="-461.437593833243" r="2" style="fill: rgb(0,0,0)" />
	<circle cx="354.028070722506" cy="-313.084962833554" r="2" style="fill: rgb(0,0,0)" />
	<circle cx="395.153508610991" cy="-316.273182221759" r="2" style="fill: rgb(0,0,0)" />
	<circle cx="143.034210333189" cy="-296.727818666226" r="2" style="fill: rgb(0,0,0)" />
	<circle cx="175.812781499686" cy="-271.687218500315" r="2" style="fill: rgb(0,0,0)" />
	<circle cx="139.573684500162" cy="-366.562406166798" r="2" style="fill: rgb(0,0,0)" />
	<circle cx="131.835713499537" cy="-326.045863999663" r="2" style="fill: rgb(0,0,0)" />
	<circle cx="463.087009370486" cy="-494.125396184845" r="2" style="fill: rgb(0,0,0)" />
	<circle cx="434.559397388256" cy="-523.918713203577" r="2" style="fill: rgb(0,0,0)" />
	<circle cx="329.32405983311" cy="-673.584962833586" r="2" style="fill: rgb(0,0,0)" />
	<circle cx="288.19862194462" cy="-676.773182221801" r="2" style="fill: rgb(0,0,0)" />
	<circle cx="260.306391667063" cy="-662.386465999924" r="2" style="fill: rgb(0,0,0)" />
	<circle cx="239.062906610741" cy="-627.028571166539" r="2" style="fill: rgb(0,0,0)" />
	<circle cx="168.074810499093" cy="-596.829323666843" r="2" style="fill: rgb(0,0,0)" />
	<circle cx="69.7390969995529" cy="-596.829323666831" r="2" style="fill: rgb(0,0,0)" />
	<circle cx="33.5" cy="-501.954136000366" r="2" style="fill: rgb(0,0,0)" />
	<circle cx="106.795113333654" cy="-436.396993667335" r="2" style="fill: rgb(0,0,0)" />
	<circle cx="288.198621944559" cy="-151.226817778196" r="2" style="fill: rgb(0,0,0)" />
	<circle cx="329.324059833044" cy="-154.415037166403" r="2" style="fill: rgb(0,0,0)" />
	<circle cx="239.062906610657" cy="-200.971428833505" r="2" style="fill: rgb(0,0,0)" />
	<circle cx="260.30639166697" cy="-165.613534000099" r="2" style="fill: rgb(0,0,0)" />
	<circle cx="69.7390969995118" cy="-231.170676333219" r="2" style="fill: rgb(0,0,0)" />
	<circle cx="168.074810499049" cy="-231.170676333193" r="2" style="fill: rgb(0,0,0)" />
	<circle cx="521.926065277794" cy="-658.653633722078" r="2" style="fill: rgb(0,0,0)" />
	<circle cx="493.398453295565" cy="-688.44695074081" r="2" style="fill: rgb(0,0,0)" />
	<circle cx="463.017668166111" cy="-696.318545777466" r="2" style="fill: rgb(0,0,0)" />
	<circle cx="423.611779388877" cy="-684.126650352103" r="2" style="fill: rgb(0,0,0)" />
	<circle cx="350.567544889423" cy="-708.942857666982" r="2" style="fill: rgb(0,0,0)" />
	<circle cx="277.272431555755" cy="-774.5" r="2" style="fill: rgb(0,0,0)" />
	<circle cx="277.272431555673" cy="-53.5" r="2" style="fill: rgb(0,0,0)" />
	<circle cx="350.567544889347" cy="-119.057142333004" r="2" style="fill: rgb(0,0,0)" />
	<!--
	Generated using the Perl SVG Module V2.84
	by Ronan Oger
	Info: http://www.roitsystems.com/
	-->
</svg>