<?xml version="1.0" encoding="UTF-8" standalone="yes"?>
<!DOCTYPE svg PUBLIC "-//W3C//DTD SVG 1.0//EN" "http://www.w3.org/TR/2001/REC-SVG-20010904/DTD/svg10.dtd">
<!-- generated using polymake; Michael Joswig, Georg Loho, Benjamin Lorenz, Rico Raber; license CC BY-NC-ND 3.0; see polymake.org and matchthenet.de -->
<svg height="841pt" id="document" viewBox="0 -667.257597285222 572 667.257597285222" width="595pt" xmlns="http://www.w3.org/2000/svg" xmlns:svg="http://www.w3.org/2000/svg" xmlns:xlink="http://www.w3.org/1999/xlink">
	<title id="document_title">planar_net_</title>
	<polygon points="250.821463777492,-327.273849178952 306.695307439683,-327.273849178952 304.249742261173,-373.538709572239 268.154856728468,-369.712058614602 " style="fill: rgb(67,184,206); fill-opacity: 1; stroke: rgb(0,0,0); stroke-width: 3" />
	<polygon points="304.779310727846,-291.027291055846 306.695307439683,-327.273849178952 250.821463777492,-327.273849178952 271.948218653108,-275.548162774489 " style="fill: rgb(67,184,206); fill-opacity: 1; stroke: rgb(0,0,0); stroke-width: 3" />
	<polygon points="304.249742261173,-373.538709572239 306.695307439683,-327.273849178952 362.25777684305,-333.164383907433 340.546904948792,-373.53870957223 " style="fill: rgb(67,184,206); fill-opacity: 1; stroke: rgb(0,0,0); stroke-width: 3" />
	<polygon points="250.821463777492,-327.273849178952 268.154856728468,-369.712058614602 245.060015908989,-397.714064733702 210.924318417036,-366.390395520309 " style="fill: rgb(67,184,206); fill-opacity: 1; stroke: rgb(0,0,0); stroke-width: 3" />
	<polygon points="362.257776843048,-321.383314450455 306.695307439683,-327.273849178952 304.779310727846,-291.027291055846 335.795544668204,-272.173186692924 " style="fill: rgb(67,184,206); fill-opacity: 1; stroke: rgb(0,0,0); stroke-width: 3" />
	<polygon points="250.821463777492,-327.273849178952 218.087951118957,-295.180777024206 228.19342470893,-260.318714223892 271.948218653108,-275.548162774489 " style="fill: rgb(67,184,206); fill-opacity: 1; stroke: rgb(0,0,0); stroke-width: 3" />
	<polygon points="340.546904948792,-373.53870957223 362.25777684305,-333.164383907433 397.808696799441,-376.269122577811 360.560913715722,-403.819453820828 " style="fill: rgb(67,184,206); fill-opacity: 1; stroke: rgb(0,0,0); stroke-width: 3" />
	<polygon points="333.961370784317,-269.442773687329 304.779310727846,-291.027291055846 271.948218653108,-275.548162774489 298.410450827939,-226.338035016958 " style="fill: rgb(67,184,206); fill-opacity: 1; stroke: rgb(0,0,0); stroke-width: 3" />
	<polygon points="250.821463777492,-327.273849178952 210.924318417036,-366.390395520309 180.281169961277,-331.642509987935 208.733987240065,-309.105402629817 " style="fill: rgb(67,184,206); fill-opacity: 1; stroke: rgb(0,0,0); stroke-width: 3" />
	<polygon points="362.257776843048,-321.383314450455 335.795544668204,-272.173186692924 368.626636742944,-256.694058411556 397.80869679942,-278.278575780059 " style="fill: rgb(67,184,206); fill-opacity: 1; stroke: rgb(0,0,0); stroke-width: 3" />
	<polygon points="287.504025490063,-221.883432464544 271.948218653108,-275.548162774489 228.19342470893,-260.318714223892 241.917937083938,-226.716306880974 " style="fill: rgb(67,184,206); fill-opacity: 1; stroke: rgb(0,0,0); stroke-width: 3" />
	<polygon points="210.924318417036,-366.390395520309 245.060015908989,-397.714064733702 219.141749310492,-423.125233059861 175.373398460673,-409.495134190715 " style="fill: rgb(67,184,206); fill-opacity: 1; stroke: rgb(0,0,0); stroke-width: 3" />
	<polygon points="397.808696799441,-376.269122577811 362.25777684305,-333.164383907433 415.60470218709,-316.551378100998 424.552569637188,-351.728354765661 " style="fill: rgb(67,184,206); fill-opacity: 1; stroke: rgb(0,0,0); stroke-width: 3" />
	<polygon points="333.961370784317,-269.442773687329 298.410450827939,-226.338035016958 351.757376171981,-209.725029210528 360.705243622069,-244.902005875185 " style="fill: rgb(67,184,206); fill-opacity: 1; stroke: rgb(0,0,0); stroke-width: 3" />
	<polygon points="210.924318417036,-366.390395520309 167.125625993997,-401.082771449604 154.362903362782,-357.053678314103 180.281169961277,-331.642509987935 " style="fill: rgb(67,184,206); fill-opacity: 1; stroke: rgb(0,0,0); stroke-width: 3" />
	<polygon points="360.560913715722,-403.819453820828 397.808696799441,-376.269122577811 428.617154378377,-422.881624626024 383.655754535223,-431.821459939916 " style="fill: rgb(67,184,206); fill-opacity: 1; stroke: rgb(0,0,0); stroke-width: 3" />
	<polygon points="287.504025490063,-221.883432464544 241.917937083938,-226.716306880974 221.452883154346,-196.738555350376 261.041793315189,-172.673304707018 " style="fill: rgb(67,184,206); fill-opacity: 1; stroke: rgb(0,0,0); stroke-width: 3" />
	<polygon points="219.141749310492,-423.125233059861 226.04974584937,-458.758975537887 180.165055325275,-465.163136041697 175.373398460673,-409.495134190715 " style="fill: rgb(67,184,206); fill-opacity: 1; stroke: rgb(0,0,0); stroke-width: 3" />
	<polygon points="397.808696799441,-376.269122577811 424.552569637188,-351.728354765661 458.832597035522,-363.659982514653 437.705842159919,-415.385668919128 " style="fill: rgb(67,184,206); fill-opacity: 1; stroke: rgb(0,0,0); stroke-width: 3" />
	<polygon points="397.80869679942,-278.278575780059 368.626636742944,-256.694058411556 373.816084787492,-220.76978182644 428.617154378324,-231.666073731828 " style="fill: rgb(67,184,206); fill-opacity: 1; stroke: rgb(0,0,0); stroke-width: 3" />
	<polygon points="351.757376171981,-209.725029210528 298.410450827939,-226.338035016958 303.202107692484,-170.670033165987 339.150818828859,-175.68742161061 " style="fill: rgb(67,184,206); fill-opacity: 1; stroke: rgb(0,0,0); stroke-width: 3" />
	<polygon points="154.362903362782,-357.053678314103 167.125625993997,-401.082771449604 111.563156590629,-395.192236721149 118.872594790867,-349.443026788642 " style="fill: rgb(67,184,206); fill-opacity: 1; stroke: rgb(0,0,0); stroke-width: 3" />
	<polygon points="383.655754535223,-431.821459939916 428.617154378377,-422.881624626024 417.983366774859,-477.734235929321 373.029545472348,-466.528342544434 " style="fill: rgb(67,184,206); fill-opacity: 1; stroke: rgb(0,0,0); stroke-width: 3" />
	<polygon points="424.552569637188,-351.728354765661 415.60470218709,-316.551378100998 470.405771777922,-305.655086195581 459.771984174403,-360.507697498867 " style="fill: rgb(67,184,206); fill-opacity: 1; stroke: rgb(0,0,0); stroke-width: 3" />
	<polygon points="226.04974584937,-458.758975537887 229.16253597366,-494.922417807856 190.798842928866,-520.015747344984 180.165055325275,-465.163136041697 " style="fill: rgb(67,184,206); fill-opacity: 1; stroke: rgb(0,0,0); stroke-width: 3" />
	<polygon points="175.373398460673,-409.495134190715 180.165055325275,-465.163136041697 143.887718191653,-466.362648302807 125.650070613812,-434.979974261261 " style="fill: rgb(67,184,206); fill-opacity: 1; stroke: rgb(0,0,0); stroke-width: 3" />
	<polygon points="437.705842159919,-415.385668919128 458.832597035522,-363.659982514653 500.737979782185,-383.417436629723 483.547396794302,-415.385668919103 " style="fill: rgb(67,184,206); fill-opacity: 1; stroke: rgb(0,0,0); stroke-width: 3" />
	<polygon points="428.617154378324,-231.666073731828 373.816084787492,-220.76978182644 382.763952237573,-185.592805161768 417.98336677477,-176.813462428537 " style="fill: rgb(67,184,206); fill-opacity: 1; stroke: rgb(0,0,0); stroke-width: 3" />
	<polygon points="273.608069397415,-489.940792802272 309.208328982552,-482.86226635663 315.832105190062,-528.715768785622 260.18768314011,-533.773900882824 " style="fill: rgb(67,184,206); fill-opacity: 1; stroke: rgb(0,0,0); stroke-width: 3" />
	<polygon points="261.041793315189,-172.673304707018 221.452883154346,-196.738555350376 204.262300166432,-164.770323061009 229.539021772354,-126.527212882166 " style="fill: rgb(67,184,206); fill-opacity: 1; stroke: rgb(0,0,0); stroke-width: 3" />
	<polygon points="417.983366774859,-477.734235929321 428.617154378377,-422.881624626024 466.980847423234,-447.974954163107 463.868057298984,-484.138396433069 " style="fill: rgb(67,184,206); fill-opacity: 1; stroke: rgb(0,0,0); stroke-width: 3" />
	<polygon points="459.771984174403,-360.507697498867 470.405771777922,-305.655086195581 508.769464822779,-330.748415732663 505.656674698527,-366.911858002623 " style="fill: rgb(67,184,206); fill-opacity: 1; stroke: rgb(0,0,0); stroke-width: 3" />
	<polygon points="180.165055325275,-465.163136041697 190.798842928866,-520.015747344984 135.99777333802,-509.119455439638 144.945640788072,-473.94247877496 " style="fill: rgb(67,184,206); fill-opacity: 1; stroke: rgb(0,0,0); stroke-width: 3" />
	<polygon points="339.150818828859,-175.68742161061 303.202107692484,-170.670033165987 313.83589529601,-115.817421862692 360.595369414815,-146.40235255934 " style="fill: rgb(67,184,206); fill-opacity: 1; stroke: rgb(0,0,0); stroke-width: 3" />
	<polygon points="118.872594790867,-349.443026788642 111.563156590629,-395.192236721149 56.9313395051973,-383.476820914116 82.777709258148,-345.616375831031 " style="fill: rgb(67,184,206); fill-opacity: 1; stroke: rgb(0,0,0); stroke-width: 3" />
	<polygon points="428.617154378324,-231.666073731828 417.98336677477,-176.813462428537 463.868057298898,-170.409301924739 466.980847423162,-206.572744194707 " style="fill: rgb(67,184,206); fill-opacity: 1; stroke: rgb(0,0,0); stroke-width: 3" />
	<polygon points="260.18768314011,-533.773900882824 315.832105190062,-528.715768785622 317.584834337824,-575.012054131079 281.291738721916,-574.468703613602 " style="fill: rgb(67,184,206); fill-opacity: 1; stroke: rgb(0,0,0); stroke-width: 3" />
	<polygon points="204.262300166432,-164.770323061009 168.11417597406,-161.48442340579 174.73795218149,-115.630920976828 229.539021772354,-126.527212882166 " style="fill: rgb(67,184,206); fill-opacity: 1; stroke: rgb(0,0,0); stroke-width: 3" />
	<polygon points="125.650070613812,-434.979974261261 143.887718191653,-466.362648302807 124.885328793696,-497.288256079203 78.8905964950254,-465.564904957963 " style="fill: rgb(67,184,206); fill-opacity: 1; stroke: rgb(0,0,0); stroke-width: 3" />
	<polygon points="190.798842928866,-520.015747344984 165.522121322941,-558.258857523854 129.373997130579,-554.972957868637 135.99777333802,-509.119455439638 " style="fill: rgb(67,184,206); fill-opacity: 1; stroke: rgb(0,0,0); stroke-width: 3" />
	<polygon points="360.595369414815,-146.40235255934 313.83589529601,-115.817421862692 351.572157836113,-89.7900781488007 383.873778808156,-106.345720744265 " style="fill: rgb(67,184,206); fill-opacity: 1; stroke: rgb(0,0,0); stroke-width: 3" />
	<polygon points="108.847120096865,-244.672095687392 63.1937938477541,-240.522163918205 88.9164097498364,-190.921423634008 128.861128863767,-214.391351438791 " style="fill: rgb(67,184,206); fill-opacity: 1; stroke: rgb(0,0,0); stroke-width: 3" />
	<polygon points="229.539021772354,-126.527212882166 174.73795218149,-115.630920976828 186.158949369358,-70.7312670863128 220.814557453255,-81.5235257705305 " style="fill: rgb(67,184,206); fill-opacity: 1; stroke: rgb(0,0,0); stroke-width: 3" />
	<polygon points="78.8905964950254,-465.564904957963 124.885328793696,-497.288256079203 96.6044835364852,-533.984466888919 69.0642195306048,-510.340907984699 " style="fill: rgb(67,184,206); fill-opacity: 1; stroke: rgb(0,0,0); stroke-width: 3" />
	<polygon points="63.1937938477541,-240.522163918205 33.5,-205.597577475074 46.7199631860898,-171.79348611724 88.9164097498364,-190.921423634008 " style="fill: rgb(67,184,206); fill-opacity: 1; stroke: rgb(0,0,0); stroke-width: 3" />
	<polygon points="304.249742261173,-373.538709572239 340.546904948792,-373.53870957223 357.737487936682,-405.506941861605 307.199121573699,-429.33465536814 " style="fill: rgb(67,184,206); fill-opacity: 1; stroke: rgb(0,0,0); stroke-width: 3" />
	<polygon points="268.154856728468,-369.712058614602 304.249742261173,-373.538709572239 295.434476978759,-428.712775070332 247.689802798897,-399.689810145212 " style="fill: rgb(67,184,206); fill-opacity: 1; stroke: rgb(0,0,0); stroke-width: 3" />
	<polygon points="307.199121573699,-429.33465536814 357.737487936682,-405.506941861605 371.462000311713,-439.109349204513 348.367159492232,-467.111355323613 " style="fill: rgb(67,184,206); fill-opacity: 1; stroke: rgb(0,0,0); stroke-width: 3" />
	<polygon points="247.689802798897,-399.689810145212 295.434476978759,-428.712775070332 250.513228577918,-461.938786683182 230.499219811009,-431.658042434596 " style="fill: rgb(67,184,206); fill-opacity: 1; stroke: rgb(0,0,0); stroke-width: 3" />
	<polygon points="250.513228577918,-461.938786683182 295.434476978759,-428.712775070332 309.208328982552,-482.86226635663 273.608069397415,-489.940792802272 " style="fill: rgb(67,184,206); fill-opacity: 1; stroke: rgb(0,0,0); stroke-width: 3" />
	<polygon points="505.656674698527,-366.911858002623 508.769464822779,-330.748415732663 542.09416323612,-316.362711202439 561.5,-368.758320799796 " style="fill: rgb(67,184,206); fill-opacity: 1; stroke: rgb(0,0,0); stroke-width: 3" />
	<polygon points="483.547396794302,-415.385668919103 500.737979782185,-383.417436629723 548.482653962062,-412.440401554843 503.561405561229,-445.666413167696 " style="fill: rgb(67,184,206); fill-opacity: 1; stroke: rgb(0,0,0); stroke-width: 3" />
	<polygon points="406.698372877579,-55.3464627971771 383.873778808156,-106.345720744265 351.572157836113,-89.7900781488007 350.855047576128,-53.5 " style="fill: rgb(67,184,206); fill-opacity: 1; stroke: rgb(0,0,0); stroke-width: 3" />
	<polygon points="281.291738721916,-574.468703613602 317.584834337824,-575.012054131079 313.800547874429,-630.757597285222 263.624533349726,-606.176019386276 " style="fill: rgb(67,184,206); fill-opacity: 1; stroke: rgb(0,0,0); stroke-width: 3" />
	<polygon points="96.6044835364852,-533.984466888919 58.0218144718243,-574.398128606638 35.1972204023574,-523.39887065958 69.0642195306048,-510.340907984699 " style="fill: rgb(67,184,206); fill-opacity: 1; stroke: rgb(0,0,0); stroke-width: 3" />
	<polygon points="218.087951118957,-295.180777024206 182.597642547059,-302.791428549697 173.782377264628,-247.617363051618 228.19342470893,-260.318714223892 " style="fill: rgb(67,184,206); fill-opacity: 1; stroke: rgb(0,0,0); stroke-width: 3" />
	<polygon points="182.597642547059,-302.791428549697 146.502757014351,-306.618079507348 126.037703084766,-276.640327976763 173.782377264628,-247.617363051618 " style="fill: rgb(67,184,206); fill-opacity: 1; stroke: rgb(0,0,0); stroke-width: 3" />
	<polygon points="228.19342470893,-260.318714223892 177.655058345944,-236.491000717394 218.823096264436,-198.714300761889 241.917937083938,-226.716306880974 " style="fill: rgb(67,184,206); fill-opacity: 1; stroke: rgb(0,0,0); stroke-width: 3" />
	<polygon points="173.782377264628,-247.617363051618 126.037703084766,-276.640327976763 108.847120096865,-244.672095687392 128.861128863767,-214.391351438791 " style="fill: rgb(67,184,206); fill-opacity: 1; stroke: rgb(0,0,0); stroke-width: 3" />
	<polygon points="218.823096264436,-198.714300761889 177.655058345944,-236.491000717394 158.249221582048,-184.095391120021 192.904829665911,-173.303132435752 " style="fill: rgb(67,184,206); fill-opacity: 1; stroke: rgb(0,0,0); stroke-width: 3" />
	<circle cx="250.821463777492" cy="-327.273849178952" r="2" style="fill: rgb(0,0,0)" />
	<circle cx="306.695307439683" cy="-327.273849178952" r="2" style="fill: rgb(0,0,0)" />
	<circle cx="304.249742261173" cy="-373.538709572239" r="2" style="fill: rgb(0,0,0)" />
	<circle cx="268.154856728468" cy="-369.712058614602" r="2" style="fill: rgb(0,0,0)" />
	<circle cx="271.948218653108" cy="-275.548162774489" r="2" style="fill: rgb(0,0,0)" />
	<circle cx="304.779310727846" cy="-291.027291055846" r="2" style="fill: rgb(0,0,0)" />
	<circle cx="362.25777684305" cy="-333.164383907433" r="2" style="fill: rgb(0,0,0)" />
	<circle cx="340.546904948792" cy="-373.53870957223" r="2" style="fill: rgb(0,0,0)" />
	<circle cx="245.060015908989" cy="-397.714064733702" r="2" style="fill: rgb(0,0,0)" />
	<circle cx="210.924318417036" cy="-366.390395520309" r="2" style="fill: rgb(0,0,0)" />
	<circle cx="295.434476978759" cy="-428.712775070332" r="2" style="fill: rgb(0,0,0)" />
	<circle cx="247.689802798897" cy="-399.689810145212" r="2" style="fill: rgb(0,0,0)" />
	<circle cx="335.795544668204" cy="-272.173186692924" r="2" style="fill: rgb(0,0,0)" />
	<circle cx="362.257776843048" cy="-321.383314450455" r="2" style="fill: rgb(0,0,0)" />
	<circle cx="218.087951118957" cy="-295.180777024206" r="2" style="fill: rgb(0,0,0)" />
	<circle cx="228.19342470893" cy="-260.318714223892" r="2" style="fill: rgb(0,0,0)" />
	<circle cx="298.410450827939" cy="-226.338035016958" r="2" style="fill: rgb(0,0,0)" />
	<circle cx="333.961370784317" cy="-269.442773687329" r="2" style="fill: rgb(0,0,0)" />
	<circle cx="397.808696799441" cy="-376.269122577811" r="2" style="fill: rgb(0,0,0)" />
	<circle cx="360.560913715722" cy="-403.819453820828" r="2" style="fill: rgb(0,0,0)" />
	<circle cx="357.737487936682" cy="-405.506941861605" r="2" style="fill: rgb(0,0,0)" />
	<circle cx="307.199121573699" cy="-429.33465536814" r="2" style="fill: rgb(0,0,0)" />
	<circle cx="180.281169961277" cy="-331.642509987935" r="2" style="fill: rgb(0,0,0)" />
	<circle cx="208.733987240065" cy="-309.105402629817" r="2" style="fill: rgb(0,0,0)" />
	<circle cx="219.141749310492" cy="-423.125233059861" r="2" style="fill: rgb(0,0,0)" />
	<circle cx="175.373398460673" cy="-409.495134190715" r="2" style="fill: rgb(0,0,0)" />
	<circle cx="250.513228577918" cy="-461.938786683182" r="2" style="fill: rgb(0,0,0)" />
	<circle cx="230.499219811009" cy="-431.658042434596" r="2" style="fill: rgb(0,0,0)" />
	<circle cx="368.626636742944" cy="-256.694058411556" r="2" style="fill: rgb(0,0,0)" />
	<circle cx="397.80869679942" cy="-278.278575780059" r="2" style="fill: rgb(0,0,0)" />
	<circle cx="241.917937083938" cy="-226.716306880974" r="2" style="fill: rgb(0,0,0)" />
	<circle cx="287.504025490063" cy="-221.883432464544" r="2" style="fill: rgb(0,0,0)" />
	<circle cx="182.597642547059" cy="-302.791428549697" r="2" style="fill: rgb(0,0,0)" />
	<circle cx="173.782377264628" cy="-247.617363051618" r="2" style="fill: rgb(0,0,0)" />
	<circle cx="351.757376171981" cy="-209.725029210528" r="2" style="fill: rgb(0,0,0)" />
	<circle cx="360.705243622069" cy="-244.902005875185" r="2" style="fill: rgb(0,0,0)" />
	<circle cx="415.60470218709" cy="-316.551378100998" r="2" style="fill: rgb(0,0,0)" />
	<circle cx="424.552569637188" cy="-351.728354765661" r="2" style="fill: rgb(0,0,0)" />
	<circle cx="428.617154378377" cy="-422.881624626024" r="2" style="fill: rgb(0,0,0)" />
	<circle cx="383.655754535223" cy="-431.821459939916" r="2" style="fill: rgb(0,0,0)" />
	<circle cx="371.462000311713" cy="-439.109349204513" r="2" style="fill: rgb(0,0,0)" />
	<circle cx="348.367159492232" cy="-467.111355323613" r="2" style="fill: rgb(0,0,0)" />
	<circle cx="167.125625993997" cy="-401.082771449604" r="2" style="fill: rgb(0,0,0)" />
	<circle cx="154.362903362782" cy="-357.053678314103" r="2" style="fill: rgb(0,0,0)" />
	<circle cx="226.04974584937" cy="-458.758975537887" r="2" style="fill: rgb(0,0,0)" />
	<circle cx="180.165055325275" cy="-465.163136041697" r="2" style="fill: rgb(0,0,0)" />
	<circle cx="309.208328982552" cy="-482.86226635663" r="2" style="fill: rgb(0,0,0)" />
	<circle cx="273.608069397415" cy="-489.940792802272" r="2" style="fill: rgb(0,0,0)" />
	<circle cx="373.816084787492" cy="-220.76978182644" r="2" style="fill: rgb(0,0,0)" />
	<circle cx="428.617154378324" cy="-231.666073731828" r="2" style="fill: rgb(0,0,0)" />
	<circle cx="221.452883154346" cy="-196.738555350376" r="2" style="fill: rgb(0,0,0)" />
	<circle cx="261.041793315189" cy="-172.673304707018" r="2" style="fill: rgb(0,0,0)" />
	<circle cx="177.655058345944" cy="-236.491000717394" r="2" style="fill: rgb(0,0,0)" />
	<circle cx="218.823096264436" cy="-198.714300761889" r="2" style="fill: rgb(0,0,0)" />
	<circle cx="146.502757014351" cy="-306.618079507348" r="2" style="fill: rgb(0,0,0)" />
	<circle cx="126.037703084766" cy="-276.640327976763" r="2" style="fill: rgb(0,0,0)" />
	<circle cx="303.202107692484" cy="-170.670033165987" r="2" style="fill: rgb(0,0,0)" />
	<circle cx="339.150818828859" cy="-175.68742161061" r="2" style="fill: rgb(0,0,0)" />
	<circle cx="458.832597035522" cy="-363.659982514653" r="2" style="fill: rgb(0,0,0)" />
	<circle cx="437.705842159919" cy="-415.385668919128" r="2" style="fill: rgb(0,0,0)" />
	<circle cx="470.405771777922" cy="-305.655086195581" r="2" style="fill: rgb(0,0,0)" />
	<circle cx="459.771984174403" cy="-360.507697498867" r="2" style="fill: rgb(0,0,0)" />
	<circle cx="417.983366774859" cy="-477.734235929321" r="2" style="fill: rgb(0,0,0)" />
	<circle cx="373.029545472348" cy="-466.528342544434" r="2" style="fill: rgb(0,0,0)" />
	<circle cx="111.563156590629" cy="-395.192236721149" r="2" style="fill: rgb(0,0,0)" />
	<circle cx="118.872594790867" cy="-349.443026788642" r="2" style="fill: rgb(0,0,0)" />
	<circle cx="229.16253597366" cy="-494.922417807856" r="2" style="fill: rgb(0,0,0)" />
	<circle cx="190.798842928866" cy="-520.015747344984" r="2" style="fill: rgb(0,0,0)" />
	<circle cx="143.887718191653" cy="-466.362648302807" r="2" style="fill: rgb(0,0,0)" />
	<circle cx="125.650070613812" cy="-434.979974261261" r="2" style="fill: rgb(0,0,0)" />
	<circle cx="315.832105190062" cy="-528.715768785622" r="2" style="fill: rgb(0,0,0)" />
	<circle cx="260.18768314011" cy="-533.773900882824" r="2" style="fill: rgb(0,0,0)" />
	<circle cx="382.763952237573" cy="-185.592805161768" r="2" style="fill: rgb(0,0,0)" />
	<circle cx="417.98336677477" cy="-176.813462428537" r="2" style="fill: rgb(0,0,0)" />
	<circle cx="204.262300166432" cy="-164.770323061009" r="2" style="fill: rgb(0,0,0)" />
	<circle cx="229.539021772354" cy="-126.527212882166" r="2" style="fill: rgb(0,0,0)" />
	<circle cx="158.249221582048" cy="-184.095391120021" r="2" style="fill: rgb(0,0,0)" />
	<circle cx="192.904829665911" cy="-173.303132435752" r="2" style="fill: rgb(0,0,0)" />
	<circle cx="108.847120096865" cy="-244.672095687392" r="2" style="fill: rgb(0,0,0)" />
	<circle cx="128.861128863767" cy="-214.391351438791" r="2" style="fill: rgb(0,0,0)" />
	<circle cx="313.83589529601" cy="-115.817421862692" r="2" style="fill: rgb(0,0,0)" />
	<circle cx="360.595369414815" cy="-146.40235255934" r="2" style="fill: rgb(0,0,0)" />
	<circle cx="500.737979782185" cy="-383.417436629723" r="2" style="fill: rgb(0,0,0)" />
	<circle cx="483.547396794302" cy="-415.385668919103" r="2" style="fill: rgb(0,0,0)" />
	<circle cx="508.769464822779" cy="-330.748415732663" r="2" style="fill: rgb(0,0,0)" />
	<circle cx="505.656674698527" cy="-366.911858002623" r="2" style="fill: rgb(0,0,0)" />
	<circle cx="466.980847423234" cy="-447.974954163107" r="2" style="fill: rgb(0,0,0)" />
	<circle cx="463.868057298984" cy="-484.138396433069" r="2" style="fill: rgb(0,0,0)" />
	<circle cx="56.9313395051973" cy="-383.476820914116" r="2" style="fill: rgb(0,0,0)" />
	<circle cx="82.777709258148" cy="-345.616375831031" r="2" style="fill: rgb(0,0,0)" />
	<circle cx="135.99777333802" cy="-509.119455439638" r="2" style="fill: rgb(0,0,0)" />
	<circle cx="144.945640788072" cy="-473.94247877496" r="2" style="fill: rgb(0,0,0)" />
	<circle cx="124.885328793696" cy="-497.288256079203" r="2" style="fill: rgb(0,0,0)" />
	<circle cx="78.8905964950254" cy="-465.564904957963" r="2" style="fill: rgb(0,0,0)" />
	<circle cx="317.584834337824" cy="-575.012054131079" r="2" style="fill: rgb(0,0,0)" />
	<circle cx="281.291738721916" cy="-574.468703613602" r="2" style="fill: rgb(0,0,0)" />
	<circle cx="463.868057298898" cy="-170.409301924739" r="2" style="fill: rgb(0,0,0)" />
	<circle cx="466.980847423162" cy="-206.572744194707" r="2" style="fill: rgb(0,0,0)" />
	<circle cx="168.11417597406" cy="-161.48442340579" r="2" style="fill: rgb(0,0,0)" />
	<circle cx="174.73795218149" cy="-115.630920976828" r="2" style="fill: rgb(0,0,0)" />
	<circle cx="63.1937938477541" cy="-240.522163918205" r="2" style="fill: rgb(0,0,0)" />
	<circle cx="88.9164097498364" cy="-190.921423634008" r="2" style="fill: rgb(0,0,0)" />
	<circle cx="351.572157836113" cy="-89.7900781488007" r="2" style="fill: rgb(0,0,0)" />
	<circle cx="383.873778808156" cy="-106.345720744265" r="2" style="fill: rgb(0,0,0)" />
	<circle cx="548.482653962062" cy="-412.440401554843" r="2" style="fill: rgb(0,0,0)" />
	<circle cx="503.561405561229" cy="-445.666413167696" r="2" style="fill: rgb(0,0,0)" />
	<circle cx="542.09416323612" cy="-316.362711202439" r="2" style="fill: rgb(0,0,0)" />
	<circle cx="561.5" cy="-368.758320799796" r="2" style="fill: rgb(0,0,0)" />
	<circle cx="165.522121322941" cy="-558.258857523854" r="2" style="fill: rgb(0,0,0)" />
	<circle cx="129.373997130579" cy="-554.972957868637" r="2" style="fill: rgb(0,0,0)" />
	<circle cx="96.6044835364852" cy="-533.984466888919" r="2" style="fill: rgb(0,0,0)" />
	<circle cx="69.0642195306048" cy="-510.340907984699" r="2" style="fill: rgb(0,0,0)" />
	<circle cx="313.800547874429" cy="-630.757597285222" r="2" style="fill: rgb(0,0,0)" />
	<circle cx="263.624533349726" cy="-606.176019386276" r="2" style="fill: rgb(0,0,0)" />
	<circle cx="186.158949369358" cy="-70.7312670863128" r="2" style="fill: rgb(0,0,0)" />
	<circle cx="220.814557453255" cy="-81.5235257705305" r="2" style="fill: rgb(0,0,0)" />
	<circle cx="33.5" cy="-205.597577475074" r="2" style="fill: rgb(0,0,0)" />
	<circle cx="46.7199631860898" cy="-171.79348611724" r="2" style="fill: rgb(0,0,0)" />
	<circle cx="350.855047576128" cy="-53.5" r="2" style="fill: rgb(0,0,0)" />
	<circle cx="406.698372877579" cy="-55.3464627971771" r="2" style="fill: rgb(0,0,0)" />
	<circle cx="58.0218144718243" cy="-574.398128606638" r="2" style="fill: rgb(0,0,0)" />
	<circle cx="35.1972204023574" cy="-523.39887065958" r="2" style="fill: rgb(0,0,0)" />
	<!--
	Generated using the Perl SVG Module V2.87
	by Ronan Oger

	-->
</svg>