<?xml version="1.0" encoding="UTF-8" standalone="yes"?>
<!DOCTYPE svg PUBLIC "-//W3C//DTD SVG 1.0//EN" "http://www.w3.org/TR/2001/REC-SVG-20010904/DTD/svg10.dtd">
<!-- generated using polymake; Michael Joswig, Georg Loho, Benjamin Lorenz, Rico Raber; license CC BY-NC-ND 3.0; see polymake.org and matchthenet.de -->
<svg height="841pt" id="document" viewBox="0 -735.653726285653 572 735.653726285653" width="595pt" xmlns="http://www.w3.org/2000/svg" xmlns:svg="http://www.w3.org/2000/svg" xmlns:xlink="http://www.w3.org/1999/xlink">
	<title id="document_title">planar_net_</title>
	<polygon points="221.449235968059,-376.326863142829 287.878915878402,-376.326863142829 287.556883874972,-416.372310204785 " style="fill: rgb(14,173,105); fill-opacity: 1; stroke: rgb(0,0,0); stroke-width: 3" />
	<polygon points="287.556883874974,-336.281416080871 287.878915878402,-376.326863142829 221.449235968059,-376.326863142829 " style="fill: rgb(14,173,105); fill-opacity: 1; stroke: rgb(0,0,0); stroke-width: 3" />
	<polygon points="221.449235968059,-376.326863142829 287.556883874972,-416.372310204785 283.671340589276,-493.565324756304 " style="fill: rgb(14,173,105); fill-opacity: 1; stroke: rgb(0,0,0); stroke-width: 3" />
	<polygon points="221.449235968059,-376.326863142829 283.671340589276,-493.565324756304 218.466313921953,-453.040828477652 " style="fill: rgb(14,173,105); fill-opacity: 1; stroke: rgb(0,0,0); stroke-width: 3" />
	<polygon points="287.556883874974,-336.281416080871 221.449235968059,-376.326863142829 283.671340589272,-259.088401529356 " style="fill: rgb(14,173,105); fill-opacity: 1; stroke: rgb(0,0,0); stroke-width: 3" />
	<polygon points="287.556883874972,-416.372310204785 320.902340209053,-438.549372157965 283.671340589276,-493.565324756304 " style="fill: rgb(14,173,105); fill-opacity: 1; stroke: rgb(0,0,0); stroke-width: 3" />
	<polygon points="283.671340589272,-259.088401529356 221.449235968059,-376.326863142829 218.466313921949,-299.612897808011 " style="fill: rgb(14,173,105); fill-opacity: 1; stroke: rgb(0,0,0); stroke-width: 3" />
	<polygon points="320.902340209053,-438.549372157965 353.886826163224,-461.259837176159 283.671340589276,-493.565324756304 " style="fill: rgb(14,173,105); fill-opacity: 1; stroke: rgb(0,0,0); stroke-width: 3" />
	<polygon points="221.449235968059,-376.326863142829 218.466313921953,-453.040828477652 154.35124637981,-484.987000903154 " style="fill: rgb(14,173,105); fill-opacity: 1; stroke: rgb(0,0,0); stroke-width: 3" />
	<polygon points="320.902340209052,-314.104354127698 287.556883874974,-336.281416080871 283.671340589272,-259.088401529356 " style="fill: rgb(14,173,105); fill-opacity: 1; stroke: rgb(0,0,0); stroke-width: 3" />
	<polygon points="221.449235968059,-376.326863142829 154.35124637981,-484.987000903154 154.608882017473,-413.836884221805 " style="fill: rgb(14,173,105); fill-opacity: 1; stroke: rgb(0,0,0); stroke-width: 3" />
	<polygon points="320.902340209052,-314.104354127698 283.671340589272,-259.088401529356 353.88682616322,-291.393889109507 " style="fill: rgb(14,173,105); fill-opacity: 1; stroke: rgb(0,0,0); stroke-width: 3" />
	<polygon points="218.466313921949,-299.612897808011 221.449235968059,-376.326863142829 154.351246379804,-267.666725382514 " style="fill: rgb(14,173,105); fill-opacity: 1; stroke: rgb(0,0,0); stroke-width: 3" />
	<polygon points="360.592682675805,-448.94857022494 390.17295331148,-421.953216474289 434.556921205406,-471.379583597339 " style="fill: rgb(14,173,105); fill-opacity: 1; stroke: rgb(0,0,0); stroke-width: 3" />
	<polygon points="218.466313921953,-453.040828477652 283.671340589276,-493.565324756304 156.075268703357,-488.235391908734 " style="fill: rgb(14,173,105); fill-opacity: 1; stroke: rgb(0,0,0); stroke-width: 3" />
	<polygon points="221.449235968059,-376.326863142829 154.608882017474,-338.816842063863 154.351246379804,-267.666725382514 " style="fill: rgb(14,173,105); fill-opacity: 1; stroke: rgb(0,0,0); stroke-width: 3" />
	<polygon points="390.17295331148,-421.953216474289 420.183545397473,-395.437072379575 434.556921205406,-471.379583597339 " style="fill: rgb(14,173,105); fill-opacity: 1; stroke: rgb(0,0,0); stroke-width: 3" />
	<polygon points="156.075268703357,-488.235391908734 283.671340589276,-493.565324756304 215.145002056456,-527.898625280274 " style="fill: rgb(14,173,105); fill-opacity: 1; stroke: rgb(0,0,0); stroke-width: 3" />
	<polygon points="390.172953311474,-330.700509811332 360.592682675791,-303.705156060698 434.556921205381,-281.274142688272 " style="fill: rgb(14,173,105); fill-opacity: 1; stroke: rgb(0,0,0); stroke-width: 3" />
	<polygon points="353.886826163224,-461.259837176159 415.639111804725,-507.741168484841 283.671340589276,-493.565324756304 " style="fill: rgb(14,173,105); fill-opacity: 1; stroke: rgb(0,0,0); stroke-width: 3" />
	<polygon points="283.671340589272,-259.088401529356 218.466313921949,-299.612897808011 156.075268703352,-264.418334376927 " style="fill: rgb(14,173,105); fill-opacity: 1; stroke: rgb(0,0,0); stroke-width: 3" />
	<polygon points="416.599016134428,-391.863272328755 401.61733966708,-354.724466407852 463.421175252279,-330.369009525474 " style="fill: rgb(14,173,105); fill-opacity: 1; stroke: rgb(0,0,0); stroke-width: 3" />
	<polygon points="283.671340589276,-493.565324756304 415.639111804725,-507.741168484841 345.532766332605,-539.030633578841 " style="fill: rgb(14,173,105); fill-opacity: 1; stroke: rgb(0,0,0); stroke-width: 3" />
	<polygon points="283.671340589272,-259.088401529356 156.075268703352,-264.418334376927 215.14500205645,-224.755101005386 " style="fill: rgb(14,173,105); fill-opacity: 1; stroke: rgb(0,0,0); stroke-width: 3" />
	<polygon points="215.145002056456,-527.898625280274 283.671340589276,-493.565324756304 211.550054566838,-598.958331390267 " style="fill: rgb(14,173,105); fill-opacity: 1; stroke: rgb(0,0,0); stroke-width: 3" />
	<polygon points="353.88682616322,-291.393889109507 283.671340589272,-259.088401529356 415.639111804709,-244.912557800832 " style="fill: rgb(14,173,105); fill-opacity: 1; stroke: rgb(0,0,0); stroke-width: 3" />
	<polygon points="154.608882017473,-413.836884221805 154.35124637981,-484.987000903154 92.0310269317771,-379.978096104606 " style="fill: rgb(14,173,105); fill-opacity: 1; stroke: rgb(0,0,0); stroke-width: 3" />
	<polygon points="283.671340589276,-493.565324756304 277.093111081237,-570.05491357638 211.550054566838,-598.958331390267 " style="fill: rgb(14,173,105); fill-opacity: 1; stroke: rgb(0,0,0); stroke-width: 3" />
	<polygon points="415.639111804709,-244.912557800832 283.671340589272,-259.088401529356 345.532766332596,-213.623092706826 " style="fill: rgb(14,173,105); fill-opacity: 1; stroke: rgb(0,0,0); stroke-width: 3" />
	<polygon points="92.0310269317771,-379.978096104606 154.35124637981,-484.987000903154 92.5780537161051,-450.650665297807 " style="fill: rgb(14,173,105); fill-opacity: 1; stroke: rgb(0,0,0); stroke-width: 3" />
	<polygon points="283.671340589272,-259.088401529356 215.14500205645,-224.755101005386 211.550054566835,-153.695394895391 " style="fill: rgb(14,173,105); fill-opacity: 1; stroke: rgb(0,0,0); stroke-width: 3" />
	<polygon points="156.075268703357,-488.235391908734 215.145002056456,-527.898625280274 208.114069234878,-598.700966085858 " style="fill: rgb(14,173,105); fill-opacity: 1; stroke: rgb(0,0,0); stroke-width: 3" />
	<polygon points="420.183545397473,-395.437072379575 480.214334502337,-346.752749424192 434.556921205406,-471.379583597339 " style="fill: rgb(14,173,105); fill-opacity: 1; stroke: rgb(0,0,0); stroke-width: 3" />
	<polygon points="277.093111081231,-182.598812709276 283.671340589272,-259.088401529356 211.550054566835,-153.695394895391 " style="fill: rgb(14,173,105); fill-opacity: 1; stroke: rgb(0,0,0); stroke-width: 3" />
	<polygon points="156.075268703357,-488.235391908734 208.114069234878,-598.700966085858 149.890811679565,-558.638969701281 " style="fill: rgb(14,173,105); fill-opacity: 1; stroke: rgb(0,0,0); stroke-width: 3" />
	<polygon points="434.556921205406,-471.379583597339 480.214334502337,-346.752749424192 493.628205843907,-422.343743312066 " style="fill: rgb(14,173,105); fill-opacity: 1; stroke: rgb(0,0,0); stroke-width: 3" />
	<polygon points="92.5780537161051,-450.650665297807 154.35124637981,-484.987000903154 35.0377698291108,-486.551295264111 " style="fill: rgb(14,173,105); fill-opacity: 1; stroke: rgb(0,0,0); stroke-width: 3" />
	<polygon points="215.14500205645,-224.755101005386 156.075268703352,-264.418334376927 208.114069234871,-153.952760199803 " style="fill: rgb(14,173,105); fill-opacity: 1; stroke: rgb(0,0,0); stroke-width: 3" />
	<polygon points="345.532766332605,-539.030633578841 415.639111804725,-507.741168484841 339.712799295434,-610.426906606636 " style="fill: rgb(14,173,105); fill-opacity: 1; stroke: rgb(0,0,0); stroke-width: 3" />
	<polygon points="156.075268703357,-488.235391908734 149.890811679565,-558.638969701281 87.9096362538764,-586.172102371284 " style="fill: rgb(14,173,105); fill-opacity: 1; stroke: rgb(0,0,0); stroke-width: 3" />
	<polygon points="208.114069234871,-153.952760199803 156.075268703352,-264.418334376927 149.890811679558,-194.014756584382 " style="fill: rgb(14,173,105); fill-opacity: 1; stroke: rgb(0,0,0); stroke-width: 3" />
	<polygon points="339.712799295434,-610.426906606636 415.639111804725,-507.741168484841 405.66729121815,-583.735887984114 " style="fill: rgb(14,173,105); fill-opacity: 1; stroke: rgb(0,0,0); stroke-width: 3" />
	<polygon points="92.0310269317771,-379.978096104606 92.5780537161051,-450.650665297807 33.5,-483.960169510432 " style="fill: rgb(14,173,105); fill-opacity: 1; stroke: rgb(0,0,0); stroke-width: 3" />
	<polygon points="434.556921205406,-471.379583597339 493.628205843907,-422.343743312066 560.23494475576,-448.703602001039 " style="fill: rgb(14,173,105); fill-opacity: 1; stroke: rgb(0,0,0); stroke-width: 3" />
	<polygon points="415.639111804709,-244.912557800832 345.532766332596,-213.623092706826 339.712799295439,-142.226819679025 " style="fill: rgb(14,173,105); fill-opacity: 1; stroke: rgb(0,0,0); stroke-width: 3" />
	<polygon points="156.075268703352,-264.418334376927 87.9096362538713,-166.481623914385 149.890811679558,-194.014756584382 " style="fill: rgb(14,173,105); fill-opacity: 1; stroke: rgb(0,0,0); stroke-width: 3" />
	<polygon points="415.639111804725,-507.741168484841 462.502939673412,-626.539095160228 405.66729121815,-583.735887984114 " style="fill: rgb(14,173,105); fill-opacity: 1; stroke: rgb(0,0,0); stroke-width: 3" />
	<polygon points="415.639111804709,-244.912557800832 339.712799295439,-142.226819679025 405.66729121815,-168.917838301558 " style="fill: rgb(14,173,105); fill-opacity: 1; stroke: rgb(0,0,0); stroke-width: 3" />
	<polygon points="493.628205843907,-422.343743312066 480.214334502337,-346.752749424192 561.5,-445.250497263813 " style="fill: rgb(14,173,105); fill-opacity: 1; stroke: rgb(0,0,0); stroke-width: 3" />
	<polygon points="149.890811679565,-558.638969701281 208.114069234878,-598.700966085858 89.1937090332921,-588.8978730542 " style="fill: rgb(14,173,105); fill-opacity: 1; stroke: rgb(0,0,0); stroke-width: 3" />
	<polygon points="561.5,-445.250497263813 480.214334502337,-346.752749424192 551.544516011073,-374.799849158651 " style="fill: rgb(14,173,105); fill-opacity: 1; stroke: rgb(0,0,0); stroke-width: 3" />
	<polygon points="89.1937090332921,-588.8978730542 208.114069234878,-598.700966085858 144.116400106905,-628.687790206741 " style="fill: rgb(14,173,105); fill-opacity: 1; stroke: rgb(0,0,0); stroke-width: 3" />
	<polygon points="339.712799295434,-610.426906606636 405.66729121815,-583.735887984114 460.364070930295,-629.240478620806 " style="fill: rgb(14,173,105); fill-opacity: 1; stroke: rgb(0,0,0); stroke-width: 3" />
	<polygon points="149.890811679558,-194.014756584382 89.1937090332837,-163.755853231458 208.114069234871,-153.952760199803 " style="fill: rgb(14,173,105); fill-opacity: 1; stroke: rgb(0,0,0); stroke-width: 3" />
	<polygon points="208.114069234878,-598.700966085858 138.688405339727,-699.153726285653 144.116400106905,-628.687790206741 " style="fill: rgb(14,173,105); fill-opacity: 1; stroke: rgb(0,0,0); stroke-width: 3" />
	<polygon points="208.114069234871,-153.952760199803 89.1937090332837,-163.755853231458 144.116400106899,-123.965936078918 " style="fill: rgb(14,173,105); fill-opacity: 1; stroke: rgb(0,0,0); stroke-width: 3" />
	<polygon points="405.66729121815,-168.917838301558 339.712799295439,-142.226819679025 460.364070930301,-123.413247664878 " style="fill: rgb(14,173,105); fill-opacity: 1; stroke: rgb(0,0,0); stroke-width: 3" />
	<polygon points="138.688405339719,-53.5 208.114069234871,-153.952760199803 144.116400106899,-123.965936078918 " style="fill: rgb(14,173,105); fill-opacity: 1; stroke: rgb(0,0,0); stroke-width: 3" />
	<polygon points="89.1937090332921,-588.8978730542 144.116400106905,-628.687790206741 135.563962548897,-698.843097108549 " style="fill: rgb(14,173,105); fill-opacity: 1; stroke: rgb(0,0,0); stroke-width: 3" />
	<polygon points="89.1937090332837,-163.755853231458 135.563962548891,-53.810629177108 144.116400106899,-123.965936078918 " style="fill: rgb(14,173,105); fill-opacity: 1; stroke: rgb(0,0,0); stroke-width: 3" />
	<polygon points="287.556883874972,-416.372310204785 287.878915878402,-376.326863142829 347.516881269945,-380.103383280141 323.174794156892,-434.678210951609 " style="fill: rgb(67,184,206); fill-opacity: 1; stroke: rgb(0,0,0); stroke-width: 3" />
	<polygon points="323.174794156892,-434.678210951609 347.516881269945,-380.103383280141 390.17295331148,-421.953216474289 360.592682675805,-448.94857022494 " style="fill: rgb(67,184,206); fill-opacity: 1; stroke: rgb(0,0,0); stroke-width: 3" />
	<polygon points="390.17295331148,-421.953216474289 347.516881269945,-380.103383280141 401.61733966708,-354.724466407852 416.599016134428,-391.863272328755 " style="fill: rgb(67,184,206); fill-opacity: 1; stroke: rgb(0,0,0); stroke-width: 3" />
	<polygon points="347.516881269952,-372.550343005508 323.174794156889,-317.975515334045 360.592682675791,-303.705156060698 390.172953311474,-330.700509811332 " style="fill: rgb(67,184,206); fill-opacity: 1; stroke: rgb(0,0,0); stroke-width: 3" />
	<polygon points="347.516881269952,-372.550343005508 287.878915878402,-376.326863142829 287.556883874974,-336.281416080871 323.174794156889,-317.975515334045 " style="fill: rgb(67,184,206); fill-opacity: 1; stroke: rgb(0,0,0); stroke-width: 3" />
	<circle cx="221.449235968059" cy="-376.326863142829" r="2" style="fill: rgb(0,0,0)" />
	<circle cx="287.878915878402" cy="-376.326863142829" r="2" style="fill: rgb(0,0,0)" />
	<circle cx="287.556883874972" cy="-416.372310204785" r="2" style="fill: rgb(0,0,0)" />
	<circle cx="287.556883874974" cy="-336.281416080871" r="2" style="fill: rgb(0,0,0)" />
	<circle cx="283.671340589276" cy="-493.565324756304" r="2" style="fill: rgb(0,0,0)" />
	<circle cx="347.516881269945" cy="-380.103383280141" r="2" style="fill: rgb(0,0,0)" />
	<circle cx="323.174794156892" cy="-434.678210951609" r="2" style="fill: rgb(0,0,0)" />
	<circle cx="283.671340589272" cy="-259.088401529356" r="2" style="fill: rgb(0,0,0)" />
	<circle cx="323.174794156889" cy="-317.975515334045" r="2" style="fill: rgb(0,0,0)" />
	<circle cx="347.516881269952" cy="-372.550343005508" r="2" style="fill: rgb(0,0,0)" />
	<circle cx="218.466313921953" cy="-453.040828477652" r="2" style="fill: rgb(0,0,0)" />
	<circle cx="320.902340209053" cy="-438.549372157965" r="2" style="fill: rgb(0,0,0)" />
	<circle cx="390.17295331148" cy="-421.953216474289" r="2" style="fill: rgb(0,0,0)" />
	<circle cx="360.592682675805" cy="-448.94857022494" r="2" style="fill: rgb(0,0,0)" />
	<circle cx="218.466313921949" cy="-299.612897808011" r="2" style="fill: rgb(0,0,0)" />
	<circle cx="320.902340209052" cy="-314.104354127698" r="2" style="fill: rgb(0,0,0)" />
	<circle cx="360.592682675791" cy="-303.705156060698" r="2" style="fill: rgb(0,0,0)" />
	<circle cx="390.172953311474" cy="-330.700509811332" r="2" style="fill: rgb(0,0,0)" />
	<circle cx="154.35124637981" cy="-484.987000903154" r="2" style="fill: rgb(0,0,0)" />
	<circle cx="156.075268703357" cy="-488.235391908734" r="2" style="fill: rgb(0,0,0)" />
	<circle cx="353.886826163224" cy="-461.259837176159" r="2" style="fill: rgb(0,0,0)" />
	<circle cx="434.556921205406" cy="-471.379583597339" r="2" style="fill: rgb(0,0,0)" />
	<circle cx="401.61733966708" cy="-354.724466407852" r="2" style="fill: rgb(0,0,0)" />
	<circle cx="416.599016134428" cy="-391.863272328755" r="2" style="fill: rgb(0,0,0)" />
	<circle cx="154.351246379804" cy="-267.666725382514" r="2" style="fill: rgb(0,0,0)" />
	<circle cx="156.075268703352" cy="-264.418334376927" r="2" style="fill: rgb(0,0,0)" />
	<circle cx="353.88682616322" cy="-291.393889109507" r="2" style="fill: rgb(0,0,0)" />
	<circle cx="434.556921205381" cy="-281.274142688272" r="2" style="fill: rgb(0,0,0)" />
	<circle cx="154.608882017473" cy="-413.836884221805" r="2" style="fill: rgb(0,0,0)" />
	<circle cx="215.145002056456" cy="-527.898625280274" r="2" style="fill: rgb(0,0,0)" />
	<circle cx="415.639111804725" cy="-507.741168484841" r="2" style="fill: rgb(0,0,0)" />
	<circle cx="420.183545397473" cy="-395.437072379575" r="2" style="fill: rgb(0,0,0)" />
	<circle cx="463.421175252279" cy="-330.369009525474" r="2" style="fill: rgb(0,0,0)" />
	<circle cx="154.608882017474" cy="-338.816842063863" r="2" style="fill: rgb(0,0,0)" />
	<circle cx="215.14500205645" cy="-224.755101005386" r="2" style="fill: rgb(0,0,0)" />
	<circle cx="415.639111804709" cy="-244.912557800832" r="2" style="fill: rgb(0,0,0)" />
	<circle cx="92.0310269317771" cy="-379.978096104606" r="2" style="fill: rgb(0,0,0)" />
	<circle cx="211.550054566838" cy="-598.958331390267" r="2" style="fill: rgb(0,0,0)" />
	<circle cx="208.114069234878" cy="-598.700966085858" r="2" style="fill: rgb(0,0,0)" />
	<circle cx="345.532766332605" cy="-539.030633578841" r="2" style="fill: rgb(0,0,0)" />
	<circle cx="480.214334502337" cy="-346.752749424192" r="2" style="fill: rgb(0,0,0)" />
	<circle cx="211.550054566835" cy="-153.695394895391" r="2" style="fill: rgb(0,0,0)" />
	<circle cx="208.114069234871" cy="-153.952760199803" r="2" style="fill: rgb(0,0,0)" />
	<circle cx="345.532766332596" cy="-213.623092706826" r="2" style="fill: rgb(0,0,0)" />
	<circle cx="92.5780537161051" cy="-450.650665297807" r="2" style="fill: rgb(0,0,0)" />
	<circle cx="277.093111081237" cy="-570.05491357638" r="2" style="fill: rgb(0,0,0)" />
	<circle cx="149.890811679565" cy="-558.638969701281" r="2" style="fill: rgb(0,0,0)" />
	<circle cx="339.712799295434" cy="-610.426906606636" r="2" style="fill: rgb(0,0,0)" />
	<circle cx="493.628205843907" cy="-422.343743312066" r="2" style="fill: rgb(0,0,0)" />
	<circle cx="277.093111081231" cy="-182.598812709276" r="2" style="fill: rgb(0,0,0)" />
	<circle cx="149.890811679558" cy="-194.014756584382" r="2" style="fill: rgb(0,0,0)" />
	<circle cx="339.712799295439" cy="-142.226819679025" r="2" style="fill: rgb(0,0,0)" />
	<circle cx="35.0377698291108" cy="-486.551295264111" r="2" style="fill: rgb(0,0,0)" />
	<circle cx="33.5" cy="-483.960169510432" r="2" style="fill: rgb(0,0,0)" />
	<circle cx="87.9096362538764" cy="-586.172102371284" r="2" style="fill: rgb(0,0,0)" />
	<circle cx="89.1937090332921" cy="-588.8978730542" r="2" style="fill: rgb(0,0,0)" />
	<circle cx="405.66729121815" cy="-583.735887984114" r="2" style="fill: rgb(0,0,0)" />
	<circle cx="560.23494475576" cy="-448.703602001039" r="2" style="fill: rgb(0,0,0)" />
	<circle cx="561.5" cy="-445.250497263813" r="2" style="fill: rgb(0,0,0)" />
	<circle cx="87.9096362538713" cy="-166.481623914385" r="2" style="fill: rgb(0,0,0)" />
	<circle cx="89.1937090332837" cy="-163.755853231458" r="2" style="fill: rgb(0,0,0)" />
	<circle cx="405.66729121815" cy="-168.917838301558" r="2" style="fill: rgb(0,0,0)" />
	<circle cx="144.116400106905" cy="-628.687790206741" r="2" style="fill: rgb(0,0,0)" />
	<circle cx="462.502939673412" cy="-626.539095160228" r="2" style="fill: rgb(0,0,0)" />
	<circle cx="460.364070930295" cy="-629.240478620806" r="2" style="fill: rgb(0,0,0)" />
	<circle cx="551.544516011073" cy="-374.799849158651" r="2" style="fill: rgb(0,0,0)" />
	<circle cx="144.116400106899" cy="-123.965936078918" r="2" style="fill: rgb(0,0,0)" />
	<circle cx="460.364070930301" cy="-123.413247664878" r="2" style="fill: rgb(0,0,0)" />
	<circle cx="138.688405339727" cy="-699.153726285653" r="2" style="fill: rgb(0,0,0)" />
	<circle cx="135.563962548897" cy="-698.843097108549" r="2" style="fill: rgb(0,0,0)" />
	<circle cx="138.688405339719" cy="-53.5" r="2" style="fill: rgb(0,0,0)" />
	<circle cx="135.563962548891" cy="-53.810629177108" r="2" style="fill: rgb(0,0,0)" />
	<!--
	Generated using the Perl SVG Module V2.86
	by Ronan Oger
	Info: http://www.roitsystems.com/
	-->
</svg>