<?xml version="1.0" encoding="UTF-8" standalone="yes"?>
<!DOCTYPE svg PUBLIC "-//W3C//DTD SVG 1.0//EN" "http://www.w3.org/TR/2001/REC-SVG-20010904/DTD/svg10.dtd">
<!-- generated using polymake; Michael Joswig, Georg Loho, Benjamin Lorenz, Rico Raber; license CC BY-NC-ND 3.0; see polymake.org and matchthenet.de -->
<svg height="841pt" id="document" viewBox="0 -540.89785238528 572 540.89785238528" width="595pt" xmlns="http://www.w3.org/2000/svg" xmlns:svg="http://www.w3.org/2000/svg" xmlns:xlink="http://www.w3.org/1999/xlink">
	<title id="document_title">planar_net_</title>
	<polygon points="249.875903616484,-268.609986600669 302.039663925917,-268.609986600669 302.039663925918,-320.773746910103 249.875903616489,-320.773746910107 " style="fill: rgb(14,173,105); fill-opacity: 1; stroke: rgb(0,0,0); stroke-width: 3" />
	<polygon points="275.957783771201,-223.434845015778 302.039663925917,-268.609986600669 249.875903616484,-268.609986600669 " style="fill: rgb(14,173,105); fill-opacity: 1; stroke: rgb(0,0,0); stroke-width: 3" />
	<polygon points="249.875903616489,-320.773746910107 275.957783771204,-365.948888494999 230.782642186312,-392.03076864972 204.700762031595,-346.855627064828 " style="fill: rgb(14,173,105); fill-opacity: 1; stroke: rgb(0,0,0); stroke-width: 3" />
	<polygon points="204.700762031595,-346.855627064828 230.782642186312,-392.03076864972 178.618881876874,-392.030768649714 " style="fill: rgb(14,173,105); fill-opacity: 1; stroke: rgb(0,0,0); stroke-width: 3" />
	<polygon points="321.132925356095,-197.352964861058 275.957783771201,-223.434845015778 249.875903616483,-178.259703430883 295.051045201371,-152.177823276166 " style="fill: rgb(14,173,105); fill-opacity: 1; stroke: rgb(0,0,0); stroke-width: 3" />
	<polygon points="117.440370136297,-294.691866755414 96.2234573778334,-342.345833039664 44.3454556053571,-336.893235336267 33.5,-285.86937834434 78.6751415848893,-259.787498189611 " style="fill: rgb(14,173,105); fill-opacity: 1; stroke: rgb(0,0,0); stroke-width: 3" />
	<polygon points="117.440370136297,-294.691866755414 148.10145915031,-336.89323533624 96.2234573778334,-342.345833039664 " style="fill: rgb(14,173,105); fill-opacity: 1; stroke: rgb(0,0,0); stroke-width: 3" />
	<polygon points="302.039663925918,-320.773746910103 302.039663925917,-268.609986600669 351.650348082663,-252.490498174551 382.31143709667,-294.69186675538 351.650348082665,-336.893235336214 " style="fill: rgb(14,173,105); fill-opacity: 1; stroke: rgb(0,0,0); stroke-width: 3" />
	<polygon points="285.920175499809,-370.384431066854 335.530859656555,-386.503919492962 319.411371230451,-436.114603649716 269.800687073705,-419.995115223608 " style="fill: rgb(14,173,105); fill-opacity: 1; stroke: rgb(0,0,0); stroke-width: 3" />
	<polygon points="321.132925356095,-197.352964861058 295.051045201371,-152.177823276166 340.22618678626,-126.095943121443 366.308066940985,-171.271084706331 " style="fill: rgb(14,173,105); fill-opacity: 1; stroke: rgb(0,0,0); stroke-width: 3" />
	<polygon points="295.051045201371,-152.177823276166 295.051045201373,-100.014062966727 340.22618678626,-126.095943121443 " style="fill: rgb(14,173,105); fill-opacity: 1; stroke: rgb(0,0,0); stroke-width: 3" />
	<polygon points="347.214805510809,-242.528106445947 321.132925356095,-197.352964861058 373.296685665529,-197.352964861058 " style="fill: rgb(14,173,105); fill-opacity: 1; stroke: rgb(0,0,0); stroke-width: 3" />
	<polygon points="466.71417425833,-233.369688727351 436.05308524433,-191.168320146529 466.714174258335,-148.966951565692 516.324858415072,-165.08643999179 516.324858415067,-217.250200301219 " style="fill: rgb(14,173,105); fill-opacity: 1; stroke: rgb(0,0,0); stroke-width: 3" />
	<polygon points="516.324858415096,-372.133533209511 561.5,-398.215413364223 516.324858415099,-424.297293518938 " style="fill: rgb(14,173,105); fill-opacity: 1; stroke: rgb(0,0,0); stroke-width: 3" />
	<polygon points="351.650348082665,-336.893235336214 393.851716663503,-367.554324350217 346.197750379266,-388.771237108691 " style="fill: rgb(14,173,105); fill-opacity: 1; stroke: rgb(0,0,0); stroke-width: 3" />
	<polygon points="351.650348082665,-336.893235336214 382.31143709667,-294.69186675538 424.512805677504,-325.352955769384 393.851716663503,-367.554324350217 " style="fill: rgb(14,173,105); fill-opacity: 1; stroke: rgb(0,0,0); stroke-width: 3" />
	<polygon points="436.053085244343,-398.215413364219 466.714174258348,-356.01404478339 516.324858415096,-372.133533209511 516.324858415099,-424.297293518938 466.71417425835,-440.416781945048 " style="fill: rgb(14,173,105); fill-opacity: 1; stroke: rgb(0,0,0); stroke-width: 3" />
	<polygon points="382.31143709667,-294.69186675538 429.965403380913,-273.474953996907 424.512805677504,-325.352955769384 " style="fill: rgb(14,173,105); fill-opacity: 1; stroke: rgb(0,0,0); stroke-width: 3" />
	<polygon points="393.851716663503,-367.554324350217 424.512805677504,-325.352955769384 466.714174258348,-356.01404478339 436.053085244343,-398.215413364219 " style="fill: rgb(14,173,105); fill-opacity: 1; stroke: rgb(0,0,0); stroke-width: 3" />
	<polygon points="429.965403380913,-273.474953996907 481.843405153397,-278.927551700315 476.390807449983,-330.805553472789 424.512805677504,-325.352955769384 " style="fill: rgb(14,173,105); fill-opacity: 1; stroke: rgb(0,0,0); stroke-width: 3" />
	<polygon points="481.843405153397,-278.927551700315 524.044773734229,-309.588640714334 476.390807449983,-330.805553472789 " style="fill: rgb(14,173,105); fill-opacity: 1; stroke: rgb(0,0,0); stroke-width: 3" />
	<polygon points="424.5128056775,-264.030777741367 393.851716663494,-221.829409160542 436.05308524433,-191.168320146529 466.71417425833,-233.369688727351 " style="fill: rgb(14,173,105); fill-opacity: 1; stroke: rgb(0,0,0); stroke-width: 3" />
	<polygon points="415.068629421985,-415.20829063446 409.616031718575,-467.08629240694 367.414663137747,-436.425203392931 " style="fill: rgb(14,173,105); fill-opacity: 1; stroke: rgb(0,0,0); stroke-width: 3" />
	<polygon points="393.851716663503,-367.554324350217 415.068629421985,-415.20829063446 367.414663137747,-436.425203392931 346.197750379266,-388.771237108691 " style="fill: rgb(14,173,105); fill-opacity: 1; stroke: rgb(0,0,0); stroke-width: 3" />
	<polygon points="382.31143709667,-294.69186675538 351.650348082663,-252.490498174551 393.851716663494,-221.829409160542 424.5128056775,-264.030777741367 " style="fill: rgb(14,173,105); fill-opacity: 1; stroke: rgb(0,0,0); stroke-width: 3" />
	<polygon points="466.71417425835,-440.416781945048 516.324858415099,-424.297293518938 505.479402809749,-475.321150510864 " style="fill: rgb(14,173,105); fill-opacity: 1; stroke: rgb(0,0,0); stroke-width: 3" />
	<polygon points="302.039663925918,-320.773746910103 351.650348082665,-336.893235336214 335.530859656555,-386.503919492962 285.920175499809,-370.384431066854 " style="fill: rgb(14,173,105); fill-opacity: 1; stroke: rgb(0,0,0); stroke-width: 3" />
	<polygon points="284.205589596013,-101.153966284242 232.327587823541,-95.701368580835 262.988676837545,-53.5 " style="fill: rgb(14,173,105); fill-opacity: 1; stroke: rgb(0,0,0); stroke-width: 3" />
	<polygon points="269.800687073705,-419.995115223608 319.411371230451,-436.114603649716 319.41137123046,-488.278363959153 269.800687073722,-504.39785238528 239.139598059711,-462.196483804449 " style="fill: rgb(14,173,105); fill-opacity: 1; stroke: rgb(0,0,0); stroke-width: 3" />
	<polygon points="347.214805510809,-242.528106445947 302.039663925917,-268.609986600669 275.957783771201,-223.434845015778 321.132925356095,-197.352964861058 " style="fill: rgb(14,173,105); fill-opacity: 1; stroke: rgb(0,0,0); stroke-width: 3" />
	<polygon points="249.875903616489,-320.773746910107 302.039663925918,-320.773746910103 275.957783771204,-365.948888494999 " style="fill: rgb(14,173,105); fill-opacity: 1; stroke: rgb(0,0,0); stroke-width: 3" />
	<polygon points="148.101459150296,-252.490498174574 117.440370136297,-294.691866755414 96.2234573778179,-247.037900471177 " style="fill: rgb(14,173,105); fill-opacity: 1; stroke: rgb(0,0,0); stroke-width: 3" />
	<polygon points="295.051045201371,-152.177823276166 249.875903616483,-178.259703430883 211.110675065082,-143.355334865075 232.327587823541,-95.701368580835 284.205589596013,-101.153966284242 " style="fill: rgb(14,173,105); fill-opacity: 1; stroke: rgb(0,0,0); stroke-width: 3" />
	<polygon points="204.700762031591,-242.528106445952 178.618881876876,-197.352964861053 230.782642186303,-197.352964861063 " style="fill: rgb(14,173,105); fill-opacity: 1; stroke: rgb(0,0,0); stroke-width: 3" />
	<polygon points="197.712143307047,-268.609986600679 197.712143307054,-320.773746910114 148.10145915031,-336.89323533624 117.440370136297,-294.691866755414 148.101459150296,-252.490498174574 " style="fill: rgb(14,173,105); fill-opacity: 1; stroke: rgb(0,0,0); stroke-width: 3" />
	<polygon points="249.875903616484,-268.609986600669 204.700762031591,-242.528106445952 230.782642186303,-197.352964861063 275.957783771201,-223.434845015778 " style="fill: rgb(14,173,105); fill-opacity: 1; stroke: rgb(0,0,0); stroke-width: 3" />
	<polygon points="249.875903616484,-268.609986600669 249.875903616489,-320.773746910107 197.712143307054,-320.773746910114 197.712143307047,-268.609986600679 " style="fill: rgb(14,173,105); fill-opacity: 1; stroke: rgb(0,0,0); stroke-width: 3" />
	<circle cx="249.875903616484" cy="-268.609986600669" r="2" style="fill: rgb(0,0,0)" />
	<circle cx="302.039663925917" cy="-268.609986600669" r="2" style="fill: rgb(0,0,0)" />
	<circle cx="302.039663925918" cy="-320.773746910103" r="2" style="fill: rgb(0,0,0)" />
	<circle cx="249.875903616489" cy="-320.773746910107" r="2" style="fill: rgb(0,0,0)" />
	<circle cx="275.957783771201" cy="-223.434845015778" r="2" style="fill: rgb(0,0,0)" />
	<circle cx="351.650348082663" cy="-252.490498174551" r="2" style="fill: rgb(0,0,0)" />
	<circle cx="382.31143709667" cy="-294.69186675538" r="2" style="fill: rgb(0,0,0)" />
	<circle cx="351.650348082665" cy="-336.893235336214" r="2" style="fill: rgb(0,0,0)" />
	<circle cx="275.957783771204" cy="-365.948888494999" r="2" style="fill: rgb(0,0,0)" />
	<circle cx="197.712143307054" cy="-320.773746910114" r="2" style="fill: rgb(0,0,0)" />
	<circle cx="197.712143307047" cy="-268.609986600679" r="2" style="fill: rgb(0,0,0)" />
	<circle cx="321.132925356095" cy="-197.352964861058" r="2" style="fill: rgb(0,0,0)" />
	<circle cx="347.214805510809" cy="-242.528106445947" r="2" style="fill: rgb(0,0,0)" />
	<circle cx="204.700762031591" cy="-242.528106445952" r="2" style="fill: rgb(0,0,0)" />
	<circle cx="230.782642186303" cy="-197.352964861063" r="2" style="fill: rgb(0,0,0)" />
	<circle cx="424.512805677504" cy="-325.352955769384" r="2" style="fill: rgb(0,0,0)" />
	<circle cx="393.851716663503" cy="-367.554324350217" r="2" style="fill: rgb(0,0,0)" />
	<circle cx="393.851716663494" cy="-221.829409160542" r="2" style="fill: rgb(0,0,0)" />
	<circle cx="424.5128056775" cy="-264.030777741367" r="2" style="fill: rgb(0,0,0)" />
	<circle cx="335.530859656555" cy="-386.503919492962" r="2" style="fill: rgb(0,0,0)" />
	<circle cx="285.920175499809" cy="-370.384431066854" r="2" style="fill: rgb(0,0,0)" />
	<circle cx="230.782642186312" cy="-392.03076864972" r="2" style="fill: rgb(0,0,0)" />
	<circle cx="204.700762031595" cy="-346.855627064828" r="2" style="fill: rgb(0,0,0)" />
	<circle cx="148.10145915031" cy="-336.89323533624" r="2" style="fill: rgb(0,0,0)" />
	<circle cx="117.440370136297" cy="-294.691866755414" r="2" style="fill: rgb(0,0,0)" />
	<circle cx="148.101459150296" cy="-252.490498174574" r="2" style="fill: rgb(0,0,0)" />
	<circle cx="249.875903616483" cy="-178.259703430883" r="2" style="fill: rgb(0,0,0)" />
	<circle cx="295.051045201371" cy="-152.177823276166" r="2" style="fill: rgb(0,0,0)" />
	<circle cx="373.296685665529" cy="-197.352964861058" r="2" style="fill: rgb(0,0,0)" />
	<circle cx="178.618881876876" cy="-197.352964861053" r="2" style="fill: rgb(0,0,0)" />
	<circle cx="346.197750379266" cy="-388.771237108691" r="2" style="fill: rgb(0,0,0)" />
	<circle cx="429.965403380913" cy="-273.474953996907" r="2" style="fill: rgb(0,0,0)" />
	<circle cx="466.714174258348" cy="-356.01404478339" r="2" style="fill: rgb(0,0,0)" />
	<circle cx="436.053085244343" cy="-398.215413364219" r="2" style="fill: rgb(0,0,0)" />
	<circle cx="436.05308524433" cy="-191.168320146529" r="2" style="fill: rgb(0,0,0)" />
	<circle cx="466.71417425833" cy="-233.369688727351" r="2" style="fill: rgb(0,0,0)" />
	<circle cx="319.411371230451" cy="-436.114603649716" r="2" style="fill: rgb(0,0,0)" />
	<circle cx="269.800687073705" cy="-419.995115223608" r="2" style="fill: rgb(0,0,0)" />
	<circle cx="178.618881876874" cy="-392.030768649714" r="2" style="fill: rgb(0,0,0)" />
	<circle cx="96.2234573778334" cy="-342.345833039664" r="2" style="fill: rgb(0,0,0)" />
	<circle cx="96.2234573778179" cy="-247.037900471177" r="2" style="fill: rgb(0,0,0)" />
	<circle cx="340.22618678626" cy="-126.095943121443" r="2" style="fill: rgb(0,0,0)" />
	<circle cx="366.308066940985" cy="-171.271084706331" r="2" style="fill: rgb(0,0,0)" />
	<circle cx="211.110675065082" cy="-143.355334865075" r="2" style="fill: rgb(0,0,0)" />
	<circle cx="232.327587823541" cy="-95.701368580835" r="2" style="fill: rgb(0,0,0)" />
	<circle cx="284.205589596013" cy="-101.153966284242" r="2" style="fill: rgb(0,0,0)" />
	<circle cx="415.068629421985" cy="-415.20829063446" r="2" style="fill: rgb(0,0,0)" />
	<circle cx="367.414663137747" cy="-436.425203392931" r="2" style="fill: rgb(0,0,0)" />
	<circle cx="481.843405153397" cy="-278.927551700315" r="2" style="fill: rgb(0,0,0)" />
	<circle cx="476.390807449983" cy="-330.805553472789" r="2" style="fill: rgb(0,0,0)" />
	<circle cx="516.324858415096" cy="-372.133533209511" r="2" style="fill: rgb(0,0,0)" />
	<circle cx="516.324858415099" cy="-424.297293518938" r="2" style="fill: rgb(0,0,0)" />
	<circle cx="466.71417425835" cy="-440.416781945048" r="2" style="fill: rgb(0,0,0)" />
	<circle cx="466.714174258335" cy="-148.966951565692" r="2" style="fill: rgb(0,0,0)" />
	<circle cx="516.324858415072" cy="-165.08643999179" r="2" style="fill: rgb(0,0,0)" />
	<circle cx="516.324858415067" cy="-217.250200301219" r="2" style="fill: rgb(0,0,0)" />
	<circle cx="319.41137123046" cy="-488.278363959153" r="2" style="fill: rgb(0,0,0)" />
	<circle cx="269.800687073722" cy="-504.39785238528" r="2" style="fill: rgb(0,0,0)" />
	<circle cx="239.139598059711" cy="-462.196483804449" r="2" style="fill: rgb(0,0,0)" />
	<circle cx="44.3454556053571" cy="-336.893235336267" r="2" style="fill: rgb(0,0,0)" />
	<circle cx="33.5" cy="-285.86937834434" r="2" style="fill: rgb(0,0,0)" />
	<circle cx="78.6751415848893" cy="-259.787498189611" r="2" style="fill: rgb(0,0,0)" />
	<circle cx="295.051045201373" cy="-100.014062966727" r="2" style="fill: rgb(0,0,0)" />
	<circle cx="262.988676837545" cy="-53.5" r="2" style="fill: rgb(0,0,0)" />
	<circle cx="409.616031718575" cy="-467.08629240694" r="2" style="fill: rgb(0,0,0)" />
	<circle cx="524.044773734229" cy="-309.588640714334" r="2" style="fill: rgb(0,0,0)" />
	<circle cx="561.5" cy="-398.215413364223" r="2" style="fill: rgb(0,0,0)" />
	<circle cx="505.479402809749" cy="-475.321150510864" r="2" style="fill: rgb(0,0,0)" />
	<!--
	Generated using the Perl SVG Module V2.87
	by Ronan Oger

	-->
</svg>