<?xml version="1.0" encoding="UTF-8" standalone="yes"?>
<!DOCTYPE svg PUBLIC "-//W3C//DTD SVG 1.0//EN" "http://www.w3.org/TR/2001/REC-SVG-20010904/DTD/svg10.dtd">
<!-- generated using polymake; Michael Joswig, Georg Loho, Benjamin Lorenz, Rico Raber; license CC BY-NC-ND 3.0; see polymake.org and matchthenet.de -->
<svg height="841pt" id="document" viewBox="0 -619.679085110465 572 619.679085110465" width="595pt" xmlns="http://www.w3.org/2000/svg" xmlns:svg="http://www.w3.org/2000/svg" xmlns:xlink="http://www.w3.org/1999/xlink">
	<title id="document_title">planar_net_</title>
	<polygon points="201.077329191443,-222.651675415247 401.355787510084,-222.651675415247 380.211828083181,-264.939594269057 179.93336976453,-264.939594269056 " style="fill: rgb(123,33,31); fill-opacity: 1; stroke: rgb(0,0,0); stroke-width: 3" />
	<polygon points="201.077329191443,-222.651675415247 179.933369764539,-180.363756561436 380.211828083177,-180.363756561437 401.355787510084,-222.651675415247 " style="fill: rgb(123,33,31); fill-opacity: 1; stroke: rgb(0,0,0); stroke-width: 3" />
	<polygon points="179.93336976453,-264.939594269056 380.211828083181,-264.939594269057 401.355787510089,-307.227513122869 201.077329191428,-307.227513122864 " style="fill: rgb(123,33,31); fill-opacity: 1; stroke: rgb(0,0,0); stroke-width: 3" />
	<polygon points="201.077329191428,-307.227513122864 401.355787510089,-307.227513122869 380.211828083186,-349.515431976681 179.933369764514,-349.515431976669 " style="fill: rgb(123,33,31); fill-opacity: 1; stroke: rgb(0,0,0); stroke-width: 3" />
	<polygon points="401.355787510081,-138.07583770763 380.211828083177,-180.363756561437 179.933369764539,-180.363756561436 201.077329191444,-138.075837707625 " style="fill: rgb(123,33,31); fill-opacity: 1; stroke: rgb(0,0,0); stroke-width: 3" />
	<polygon points="201.077329191444,-138.075837707625 179.93336976454,-95.7879188538122 380.211828083174,-95.7879188538247 401.355787510081,-138.07583770763 " style="fill: rgb(123,33,31); fill-opacity: 1; stroke: rgb(0,0,0); stroke-width: 3" />
	<polygon points="380.211828083186,-349.515431976681 401.355787510095,-391.803350830494 201.077329191412,-391.803350830472 179.933369764514,-349.515431976669 " style="fill: rgb(123,33,31); fill-opacity: 1; stroke: rgb(0,0,0); stroke-width: 3" />
	<polygon points="401.355787510095,-391.803350830494 380.211828083191,-434.091269684307 179.933369764499,-434.091269684272 201.077329191412,-391.803350830472 " style="fill: rgb(123,33,31); fill-opacity: 1; stroke: rgb(0,0,0); stroke-width: 3" />
	<polygon points="401.355787510077,-53.5000000000221 380.211828083174,-95.7879188538247 179.93336976454,-95.7879188538122 201.077329191445,-53.5 " style="fill: rgb(123,33,31); fill-opacity: 1; stroke: rgb(0,0,0); stroke-width: 3" />
	<polygon points="507.047940698428,-383.370492556844 547.789157274642,-359.381153818056 561.5,-559.189746371676 520.758783423788,-583.179085110465 " style="fill: rgb(123,33,31); fill-opacity: 1; stroke: rgb(0,0,0); stroke-width: 3" />
	<polygon points="380.211828083181,-264.939594269057 401.355787510084,-222.651675415247 509.834769192779,-253.25150096056 408.579426438419,-302.763058742702 " style="fill: rgb(123,33,31); fill-opacity: 1; stroke: rgb(0,0,0); stroke-width: 3" />
	<polygon points="408.579426438419,-302.763058742702 509.834769192779,-253.25150096056 467.371197886269,-357.658799087739 421.011595476927,-348.378585422006 " style="fill: rgb(123,33,31); fill-opacity: 1; stroke: rgb(0,0,0); stroke-width: 3" />
	<polygon points="467.371197886269,-357.658799087739 509.834769192779,-253.25150096056 547.789157274642,-359.381153818056 507.047940698428,-383.370492556844 " style="fill: rgb(123,33,31); fill-opacity: 1; stroke: rgb(0,0,0); stroke-width: 3" />
	<polygon points="509.834769192775,-192.051849869915 408.579426438411,-142.540292087789 421.011595476926,-96.9247654084658 467.371197886256,-87.6445517427201 " style="fill: rgb(123,33,31); fill-opacity: 1; stroke: rgb(0,0,0); stroke-width: 3" />
	<polygon points="509.834769192775,-192.051849869915 401.355787510084,-222.651675415247 380.211828083177,-180.363756561437 408.579426438411,-142.540292087789 " style="fill: rgb(123,33,31); fill-opacity: 1; stroke: rgb(0,0,0); stroke-width: 3" />
	<polygon points="179.93336976453,-264.939594269056 201.077329191428,-307.227513122864 172.709730836189,-345.050977596508 71.454388081839,-295.53941981438 " style="fill: rgb(123,33,31); fill-opacity: 1; stroke: rgb(0,0,0); stroke-width: 3" />
	<polygon points="201.077329191443,-222.651675415247 179.93336976453,-264.939594269056 71.4543880818429,-234.339768723722 172.709730836211,-184.828210941594 " style="fill: rgb(123,33,31); fill-opacity: 1; stroke: rgb(0,0,0); stroke-width: 3" />
	<polygon points="71.454388081839,-295.53941981438 172.709730836189,-345.050977596508 160.277561797679,-390.666504275832 113.917959388365,-399.94671794158 " style="fill: rgb(123,33,31); fill-opacity: 1; stroke: rgb(0,0,0); stroke-width: 3" />
	<polygon points="172.709730836211,-184.828210941594 71.4543880818429,-234.339768723722 113.91795938837,-129.932470596549 160.2775617977,-139.212684262286 " style="fill: rgb(123,33,31); fill-opacity: 1; stroke: rgb(0,0,0); stroke-width: 3" />
	<polygon points="113.91795938837,-129.932470596549 71.4543880818429,-234.339768723722 33.5,-128.210115866219 74.2412165762064,-104.220777127435 " style="fill: rgb(123,33,31); fill-opacity: 1; stroke: rgb(0,0,0); stroke-width: 3" />
	<circle cx="201.077329191443" cy="-222.651675415247" r="2" style="fill: rgb(0,0,0)" />
	<circle cx="401.355787510084" cy="-222.651675415247" r="2" style="fill: rgb(0,0,0)" />
	<circle cx="380.211828083181" cy="-264.939594269057" r="2" style="fill: rgb(0,0,0)" />
	<circle cx="179.93336976453" cy="-264.939594269056" r="2" style="fill: rgb(0,0,0)" />
	<circle cx="179.933369764539" cy="-180.363756561436" r="2" style="fill: rgb(0,0,0)" />
	<circle cx="380.211828083177" cy="-180.363756561437" r="2" style="fill: rgb(0,0,0)" />
	<circle cx="401.355787510089" cy="-307.227513122869" r="2" style="fill: rgb(0,0,0)" />
	<circle cx="201.077329191428" cy="-307.227513122864" r="2" style="fill: rgb(0,0,0)" />
	<circle cx="509.834769192779" cy="-253.25150096056" r="2" style="fill: rgb(0,0,0)" />
	<circle cx="408.579426438419" cy="-302.763058742702" r="2" style="fill: rgb(0,0,0)" />
	<circle cx="71.4543880818429" cy="-234.339768723722" r="2" style="fill: rgb(0,0,0)" />
	<circle cx="172.709730836211" cy="-184.828210941594" r="2" style="fill: rgb(0,0,0)" />
	<circle cx="201.077329191444" cy="-138.075837707625" r="2" style="fill: rgb(0,0,0)" />
	<circle cx="401.355787510081" cy="-138.07583770763" r="2" style="fill: rgb(0,0,0)" />
	<circle cx="408.579426438411" cy="-142.540292087789" r="2" style="fill: rgb(0,0,0)" />
	<circle cx="509.834769192775" cy="-192.051849869915" r="2" style="fill: rgb(0,0,0)" />
	<circle cx="380.211828083186" cy="-349.515431976681" r="2" style="fill: rgb(0,0,0)" />
	<circle cx="179.933369764514" cy="-349.515431976669" r="2" style="fill: rgb(0,0,0)" />
	<circle cx="172.709730836189" cy="-345.050977596508" r="2" style="fill: rgb(0,0,0)" />
	<circle cx="71.454388081839" cy="-295.53941981438" r="2" style="fill: rgb(0,0,0)" />
	<circle cx="467.371197886269" cy="-357.658799087739" r="2" style="fill: rgb(0,0,0)" />
	<circle cx="421.011595476927" cy="-348.378585422006" r="2" style="fill: rgb(0,0,0)" />
	<circle cx="113.91795938837" cy="-129.932470596549" r="2" style="fill: rgb(0,0,0)" />
	<circle cx="160.2775617977" cy="-139.212684262286" r="2" style="fill: rgb(0,0,0)" />
	<circle cx="179.93336976454" cy="-95.7879188538122" r="2" style="fill: rgb(0,0,0)" />
	<circle cx="380.211828083174" cy="-95.7879188538247" r="2" style="fill: rgb(0,0,0)" />
	<circle cx="421.011595476926" cy="-96.9247654084658" r="2" style="fill: rgb(0,0,0)" />
	<circle cx="467.371197886256" cy="-87.6445517427201" r="2" style="fill: rgb(0,0,0)" />
	<circle cx="401.355787510095" cy="-391.803350830494" r="2" style="fill: rgb(0,0,0)" />
	<circle cx="201.077329191412" cy="-391.803350830472" r="2" style="fill: rgb(0,0,0)" />
	<circle cx="160.277561797679" cy="-390.666504275832" r="2" style="fill: rgb(0,0,0)" />
	<circle cx="113.917959388365" cy="-399.94671794158" r="2" style="fill: rgb(0,0,0)" />
	<circle cx="547.789157274642" cy="-359.381153818056" r="2" style="fill: rgb(0,0,0)" />
	<circle cx="507.047940698428" cy="-383.370492556844" r="2" style="fill: rgb(0,0,0)" />
	<circle cx="33.5" cy="-128.210115866219" r="2" style="fill: rgb(0,0,0)" />
	<circle cx="74.2412165762064" cy="-104.220777127435" r="2" style="fill: rgb(0,0,0)" />
	<circle cx="201.077329191445" cy="-53.5" r="2" style="fill: rgb(0,0,0)" />
	<circle cx="401.355787510077" cy="-53.5000000000221" r="2" style="fill: rgb(0,0,0)" />
	<circle cx="380.211828083191" cy="-434.091269684307" r="2" style="fill: rgb(0,0,0)" />
	<circle cx="179.933369764499" cy="-434.091269684272" r="2" style="fill: rgb(0,0,0)" />
	<circle cx="561.5" cy="-559.189746371676" r="2" style="fill: rgb(0,0,0)" />
	<circle cx="520.758783423788" cy="-583.179085110465" r="2" style="fill: rgb(0,0,0)" />
	<!--
	Generated using the Perl SVG Module V2.84
	by Ronan Oger
	Info: http://www.roitsystems.com/
	-->
</svg>