<?xml version="1.0" encoding="UTF-8" standalone="yes"?>
<!DOCTYPE svg PUBLIC "-//W3C//DTD SVG 1.0//EN" "http://www.w3.org/TR/2001/REC-SVG-20010904/DTD/svg10.dtd">
<!-- generated using polymake; Michael Joswig, Georg Loho, Benjamin Lorenz, Rico Raber; license CC BY-NC-ND 3.0; see polymake.org and matchthenet.de -->
<svg height="841pt" id="document" viewBox="0 -718.189178942354 572 718.189178942354" width="595pt" xmlns="http://www.w3.org/2000/svg" xmlns:svg="http://www.w3.org/2000/svg" xmlns:xlink="http://www.w3.org/1999/xlink">
	<title id="document_title">planar_net_</title>
	<polygon points="245.637242844915,-372.043148219485 292.223154861174,-372.043148219485 306.618993372655,-416.348983410102 268.93019885305,-443.731495457857 231.24140433344,-416.348983410105 " style="fill: rgb(255,210,63); fill-opacity: 1; stroke: rgb(0,0,0); stroke-width: 3" />
	<polygon points="292.223154861166,-325.457236203219 292.223154861174,-372.043148219485 245.637242844915,-372.043148219485 245.637242844913,-325.457236203225 " style="fill: rgb(67,184,206); fill-opacity: 1; stroke: rgb(0,0,0); stroke-width: 3" />
	<polygon points="200.069344778213,-315.771480467637 165.449265323182,-284.599420912418 196.621324878393,-249.97934145739 231.241404333432,-281.151401012608 " style="fill: rgb(67,184,206); fill-opacity: 1; stroke: rgb(0,0,0); stroke-width: 3" />
	<polygon points="245.637242844913,-325.457236203225 200.069344778213,-315.771480467637 231.241404333432,-281.151401012608 " style="fill: rgb(14,173,105); fill-opacity: 1; stroke: rgb(0,0,0); stroke-width: 3" />
	<polygon points="292.223154861166,-325.457236203219 245.637242844913,-325.457236203225 231.241404333432,-281.151401012608 268.930198853032,-253.768888964848 306.618993372638,-281.151401012596 " style="fill: rgb(255,210,63); fill-opacity: 1; stroke: rgb(0,0,0); stroke-width: 3" />
	<polygon points="306.618993372655,-416.348983410102 292.223154861174,-372.043148219485 336.528990051791,-357.647309708002 350.924828563275,-401.953144898612 " style="fill: rgb(67,184,206); fill-opacity: 1; stroke: rgb(0,0,0); stroke-width: 3" />
	<polygon points="332.567738125717,-348.750192211342 292.223154861174,-372.043148219485 292.223154861166,-325.457236203219 " style="fill: rgb(14,173,105); fill-opacity: 1; stroke: rgb(0,0,0); stroke-width: 3" />
	<polygon points="154.745495638025,-311.061397691768 127.362983590279,-348.750192211379 89.6741890706634,-321.367680163633 117.056701118402,-283.678885644023 " style="fill: rgb(67,184,206); fill-opacity: 1; stroke: rgb(0,0,0); stroke-width: 3" />
	<polygon points="165.449265323182,-284.599420912418 151.053426811695,-240.293585721803 196.621324878393,-249.97934145739 " style="fill: rgb(14,173,105); fill-opacity: 1; stroke: rgb(0,0,0); stroke-width: 3" />
	<polygon points="268.930198853032,-253.768888964848 231.241404333432,-281.151401012608 203.858892285668,-243.462606493005 241.54768680526,-216.080094445244 " style="fill: rgb(67,184,206); fill-opacity: 1; stroke: rgb(0,0,0); stroke-width: 3" />
	<polygon points="336.528990051794,-339.853074714685 292.223154861166,-325.457236203219 306.618993372638,-281.151401012596 350.924828563259,-295.547239524065 " style="fill: rgb(67,184,206); fill-opacity: 1; stroke: rgb(0,0,0); stroke-width: 3" />
	<polygon points="306.618993372655,-416.348983410102 350.924828563275,-401.953144898612 365.320667074765,-446.258980089226 321.014831884152,-460.65481860072 " style="fill: rgb(67,184,206); fill-opacity: 1; stroke: rgb(0,0,0); stroke-width: 3" />
	<polygon points="121.864262575469,-495.816128488981 136.260101086955,-540.121963679587 98.5713065673493,-567.504475727347 60.8825120477357,-540.121963679614 75.2783505592098,-495.816128488999 " style="fill: rgb(255,210,63); fill-opacity: 1; stroke: rgb(0,0,0); stroke-width: 3" />
	<polygon points="321.014831884152,-460.65481860072 365.320667074765,-446.258980089226 392.703179122529,-483.947774608828 365.320667074791,-521.636569128448 321.01483188417,-507.240730616981 " style="fill: rgb(255,210,63); fill-opacity: 1; stroke: rgb(0,0,0); stroke-width: 3" />
	<polygon points="180.565936277571,-525.726125168101 227.151848293824,-525.726125168088 227.151848293825,-572.312037184349 180.565936277578,-572.312037184367 " style="fill: rgb(67,184,206); fill-opacity: 1; stroke: rgb(0,0,0); stroke-width: 3" />
	<polygon points="180.565936277571,-525.726125168101 180.565936277578,-572.312037184367 140.221353013027,-549.019081176245 " style="fill: rgb(14,173,105); fill-opacity: 1; stroke: rgb(0,0,0); stroke-width: 3" />
	<polygon points="321.01483188417,-507.240730616981 365.320667074791,-521.636569128448 350.924828563326,-565.942404319071 306.618993372708,-551.54656580761 " style="fill: rgb(67,184,206); fill-opacity: 1; stroke: rgb(0,0,0); stroke-width: 3" />
	<polygon points="350.924828563275,-401.953144898612 396.492726629978,-411.63890063419 365.320667074765,-446.258980089226 " style="fill: rgb(14,173,105); fill-opacity: 1; stroke: rgb(0,0,0); stroke-width: 3" />
	<polygon points="180.565936277578,-572.312037184367 157.272980269457,-612.656620448922 116.928397004908,-589.363664440807 140.221353013027,-549.019081176245 " style="fill: rgb(67,184,206); fill-opacity: 1; stroke: rgb(0,0,0); stroke-width: 3" />
	<polygon points="403.009461594368,-418.876468041461 430.391973642132,-456.565262561055 392.703179122529,-483.947774608828 365.320667074765,-446.258980089226 " style="fill: rgb(67,184,206); fill-opacity: 1; stroke: rgb(0,0,0); stroke-width: 3" />
	<polygon points="60.8825120477357,-540.121963679614 98.5713065673493,-567.504475727347 71.1887945196116,-605.19327024697 33.5,-577.810758199243 " style="fill: rgb(67,184,206); fill-opacity: 1; stroke: rgb(0,0,0); stroke-width: 3" />
	<polygon points="180.565936277578,-572.312037184367 227.151848293825,-572.312037184349 241.547686805306,-616.617872374966 203.858892285713,-644.000384422739 166.17009776611,-616.617872374997 " style="fill: rgb(255,210,63); fill-opacity: 1; stroke: rgb(0,0,0); stroke-width: 3" />
	<polygon points="365.320667074791,-521.636569128448 396.492726630024,-556.256648583466 350.924828563326,-565.942404319071 " style="fill: rgb(14,173,105); fill-opacity: 1; stroke: rgb(0,0,0); stroke-width: 3" />
	<polygon points="397.510740579535,-401.953144898597 411.90657909101,-357.647309707982 456.21241428163,-372.043148219457 441.816575770161,-416.348983410068 " style="fill: rgb(67,184,206); fill-opacity: 1; stroke: rgb(0,0,0); stroke-width: 3" />
	<polygon points="157.272980269457,-612.656620448922 116.928397004916,-635.949576457065 116.928397004908,-589.363664440807 " style="fill: rgb(14,173,105); fill-opacity: 1; stroke: rgb(0,0,0); stroke-width: 3" />
	<polygon points="430.391973642132,-456.565262561055 435.261527435136,-502.895972076923 392.703179122529,-483.947774608828 " style="fill: rgb(14,173,105); fill-opacity: 1; stroke: rgb(0,0,0); stroke-width: 3" />
	<polygon points="357.294461428507,-171.7742592546 310.708549412258,-171.774259254616 310.708549412256,-125.188347238355 357.294461428499,-125.188347238334 " style="fill: rgb(67,184,206); fill-opacity: 1; stroke: rgb(0,0,0); stroke-width: 3" />
	<polygon points="371.690299939987,-216.080094445211 357.294461428507,-171.7742592546 401.600296619124,-157.378420743116 415.996135130607,-201.684255933721 " style="fill: rgb(67,184,206); fill-opacity: 1; stroke: rgb(0,0,0); stroke-width: 3" />
	<polygon points="441.816575770161,-416.348983410068 456.21241428163,-372.043148219457 502.798326297891,-372.043148219448 517.194164809385,-416.348983410051 479.505370289781,-443.731495457805 " style="fill: rgb(255,210,63); fill-opacity: 1; stroke: rgb(0,0,0); stroke-width: 3" />
	<polygon points="517.194164809385,-416.348983410051 502.798326297891,-372.043148219448 547.104161488503,-357.647309707949 561.5,-401.953144898545 " style="fill: rgb(67,184,206); fill-opacity: 1; stroke: rgb(0,0,0); stroke-width: 3" />
	<polygon points="468.080768161777,-538.712798704301 487.02896562992,-581.271147016883 440.698256114053,-576.401593223917 " style="fill: rgb(14,173,105); fill-opacity: 1; stroke: rgb(0,0,0); stroke-width: 3" />
	<polygon points="357.294461428507,-171.7742592546 357.294461428499,-125.188347238334 397.639044693051,-148.481303246455 " style="fill: rgb(14,173,105); fill-opacity: 1; stroke: rgb(0,0,0); stroke-width: 3" />
	<polygon points="430.391973642152,-511.330286656567 468.080768161777,-538.712798704301 440.698256114053,-576.401593223917 403.009461594421,-549.019081176184 " style="fill: rgb(67,184,206); fill-opacity: 1; stroke: rgb(0,0,0); stroke-width: 3" />
	<polygon points="166.17009776611,-616.617872374997 203.858892285713,-644.000384422739 176.476380237965,-681.689178942354 138.787585718364,-654.306666894619 " style="fill: rgb(67,184,206); fill-opacity: 1; stroke: rgb(0,0,0); stroke-width: 3" />
	<polygon points="241.547686805214,-80.8825120477412 227.151848293745,-125.188347238372 180.565936277495,-125.18834723839 166.170097766014,-80.8825120477732 203.85889228561,-53.5 " style="fill: rgb(255,210,63); fill-opacity: 1; stroke: rgb(0,0,0); stroke-width: 3" />
	<polygon points="411.90657909101,-357.647309707982 446.526658546036,-326.475250152758 456.21241428163,-372.043148219457 " style="fill: rgb(14,173,105); fill-opacity: 1; stroke: rgb(0,0,0); stroke-width: 3" />
	<polygon points="283.008842528116,-164.879831136368 236.678133012255,-169.749384929375 255.626330480349,-127.191036616771 " style="fill: rgb(14,173,105); fill-opacity: 1; stroke: rgb(0,0,0); stroke-width: 3" />
	<polygon points="365.320667074791,-521.636569128448 392.703179122529,-483.947774608828 430.391973642152,-511.330286656567 403.009461594421,-549.019081176184 " style="fill: rgb(67,184,206); fill-opacity: 1; stroke: rgb(0,0,0); stroke-width: 3" />
	<polygon points="371.690299939987,-216.080094445211 334.001505420387,-243.462606492977 296.312710900783,-216.080094445235 310.708549412258,-171.774259254616 357.294461428507,-171.7742592546 " style="fill: rgb(255,210,63); fill-opacity: 1; stroke: rgb(0,0,0); stroke-width: 3" />
	<polygon points="140.221353012949,-148.481303246522 180.565936277495,-125.18834723839 180.565936277497,-171.774259254652 " style="fill: rgb(14,173,105); fill-opacity: 1; stroke: rgb(0,0,0); stroke-width: 3" />
	<polygon points="227.151848293752,-171.774259254638 180.565936277497,-171.774259254652 180.565936277495,-125.18834723839 227.151848293745,-125.188347238372 " style="fill: rgb(67,184,206); fill-opacity: 1; stroke: rgb(0,0,0); stroke-width: 3" />
	<polygon points="411.90657909101,-357.647309707982 374.217784571397,-330.264797660245 401.600296619138,-292.576003140624 439.289091138749,-319.958515188354 " style="fill: rgb(67,184,206); fill-opacity: 1; stroke: rgb(0,0,0); stroke-width: 3" />
	<polygon points="283.008842528116,-164.879831136368 287.878396321127,-211.210540652242 241.54768680526,-216.080094445244 236.678133012255,-169.749384929375 " style="fill: rgb(67,184,206); fill-opacity: 1; stroke: rgb(0,0,0); stroke-width: 3" />
	<polygon points="350.924828563259,-295.547239524065 306.618993372638,-281.151401012596 341.239072827658,-249.979341457367 " style="fill: rgb(14,173,105); fill-opacity: 1; stroke: rgb(0,0,0); stroke-width: 3" />
	<polygon points="268.930198853032,-253.768888964848 241.54768680526,-216.080094445244 287.878396321127,-211.210540652242 " style="fill: rgb(14,173,105); fill-opacity: 1; stroke: rgb(0,0,0); stroke-width: 3" />
	<polygon points="306.618993372638,-281.151401012596 268.930198853032,-253.768888964848 296.312710900783,-216.080094445235 334.001505420387,-243.462606492977 " style="fill: rgb(67,184,206); fill-opacity: 1; stroke: rgb(0,0,0); stroke-width: 3" />
	<polygon points="121.864262575419,-201.684255933814 136.260101086864,-157.378420743203 180.565936277497,-171.774259254652 166.170097766046,-216.080094445268 " style="fill: rgb(67,184,206); fill-opacity: 1; stroke: rgb(0,0,0); stroke-width: 3" />
	<polygon points="350.924828563275,-401.953144898612 336.528990051791,-357.647309708002 374.217784571397,-330.264797660245 411.90657909101,-357.647309707982 397.510740579535,-401.953144898597 " style="fill: rgb(255,210,63); fill-opacity: 1; stroke: rgb(0,0,0); stroke-width: 3" />
	<polygon points="241.54768680526,-216.080094445244 203.858892285668,-243.462606493005 166.170097766046,-216.080094445268 180.565936277497,-171.774259254652 227.151848293752,-171.774259254638 " style="fill: rgb(255,210,63); fill-opacity: 1; stroke: rgb(0,0,0); stroke-width: 3" />
	<polygon points="249.982001384939,-486.289843770459 292.540349697528,-505.238041238566 254.851555177924,-532.620553286326 " style="fill: rgb(14,173,105); fill-opacity: 1; stroke: rgb(0,0,0); stroke-width: 3" />
	<polygon points="166.170097766088,-481.420289977488 180.565936277571,-525.726125168101 136.260101086955,-540.121963679587 121.864262575469,-495.816128488981 " style="fill: rgb(67,184,206); fill-opacity: 1; stroke: rgb(0,0,0); stroke-width: 3" />
	<polygon points="84.80463527769,-367.698389679504 89.6741890706634,-321.367680163633 127.362983590279,-348.750192211379 " style="fill: rgb(14,173,105); fill-opacity: 1; stroke: rgb(0,0,0); stroke-width: 3" />
	<polygon points="268.93019885305,-443.731495457857 306.618993372655,-416.348983410102 311.488547165642,-462.679692925971 " style="fill: rgb(14,173,105); fill-opacity: 1; stroke: rgb(0,0,0); stroke-width: 3" />
	<polygon points="268.93019885305,-443.731495457857 311.488547165642,-462.679692925971 292.540349697528,-505.238041238566 249.982001384939,-486.289843770459 " style="fill: rgb(67,184,206); fill-opacity: 1; stroke: rgb(0,0,0); stroke-width: 3" />
	<polygon points="203.85889228569,-454.037777929725 241.547686805299,-481.420289977469 227.151848293824,-525.726125168088 180.565936277571,-525.726125168101 166.170097766088,-481.420289977488 " style="fill: rgb(255,210,63); fill-opacity: 1; stroke: rgb(0,0,0); stroke-width: 3" />
	<polygon points="203.85889228569,-454.037777929725 166.170097766088,-481.420289977488 161.300543973092,-435.089580461621 " style="fill: rgb(14,173,105); fill-opacity: 1; stroke: rgb(0,0,0); stroke-width: 3" />
	<polygon points="117.056701118438,-413.821498778743 89.6741890706768,-376.132704259153 127.362983590279,-348.750192211379 154.74549563804,-386.438986730977 " style="fill: rgb(67,184,206); fill-opacity: 1; stroke: rgb(0,0,0); stroke-width: 3" />
	<polygon points="231.24140433344,-416.348983410105 268.93019885305,-443.731495457857 241.547686805299,-481.420289977469 203.85889228569,-454.037777929725 " style="fill: rgb(67,184,206); fill-opacity: 1; stroke: rgb(0,0,0); stroke-width: 3" />
	<polygon points="245.637242844915,-372.043148219485 231.24140433344,-416.348983410105 200.069344778216,-381.728903955081 " style="fill: rgb(14,173,105); fill-opacity: 1; stroke: rgb(0,0,0); stroke-width: 3" />
	<polygon points="231.24140433344,-416.348983410105 203.85889228569,-454.037777929725 166.170097766074,-426.65526588198 193.552609813816,-388.966471362361 " style="fill: rgb(67,184,206); fill-opacity: 1; stroke: rgb(0,0,0); stroke-width: 3" />
	<polygon points="199.051330828654,-372.043148219489 154.74549563804,-386.438986730977 127.362983590279,-348.750192211379 154.745495638025,-311.061397691768 199.051330828647,-325.457236203234 " style="fill: rgb(255,210,63); fill-opacity: 1; stroke: rgb(0,0,0); stroke-width: 3" />
	<polygon points="245.637242844915,-372.043148219485 199.051330828654,-372.043148219489 199.051330828647,-325.457236203234 245.637242844913,-325.457236203225 " style="fill: rgb(67,184,206); fill-opacity: 1; stroke: rgb(0,0,0); stroke-width: 3" />
	<circle cx="245.637242844915" cy="-372.043148219485" r="2" style="fill: rgb(0,0,0)" />
	<circle cx="292.223154861174" cy="-372.043148219485" r="2" style="fill: rgb(0,0,0)" />
	<circle cx="306.618993372655" cy="-416.348983410102" r="2" style="fill: rgb(0,0,0)" />
	<circle cx="268.93019885305" cy="-443.731495457857" r="2" style="fill: rgb(0,0,0)" />
	<circle cx="231.24140433344" cy="-416.348983410105" r="2" style="fill: rgb(0,0,0)" />
	<circle cx="245.637242844913" cy="-325.457236203225" r="2" style="fill: rgb(0,0,0)" />
	<circle cx="292.223154861166" cy="-325.457236203219" r="2" style="fill: rgb(0,0,0)" />
	<circle cx="336.528990051791" cy="-357.647309708002" r="2" style="fill: rgb(0,0,0)" />
	<circle cx="350.924828563275" cy="-401.953144898612" r="2" style="fill: rgb(0,0,0)" />
	<circle cx="311.488547165642" cy="-462.679692925971" r="2" style="fill: rgb(0,0,0)" />
	<circle cx="241.547686805299" cy="-481.420289977469" r="2" style="fill: rgb(0,0,0)" />
	<circle cx="203.85889228569" cy="-454.037777929725" r="2" style="fill: rgb(0,0,0)" />
	<circle cx="200.069344778216" cy="-381.728903955081" r="2" style="fill: rgb(0,0,0)" />
	<circle cx="231.241404333432" cy="-281.151401012608" r="2" style="fill: rgb(0,0,0)" />
	<circle cx="268.930198853032" cy="-253.768888964848" r="2" style="fill: rgb(0,0,0)" />
	<circle cx="306.618993372638" cy="-281.151401012596" r="2" style="fill: rgb(0,0,0)" />
	<circle cx="332.567738125717" cy="-348.750192211342" r="2" style="fill: rgb(0,0,0)" />
	<circle cx="199.051330828654" cy="-372.043148219489" r="2" style="fill: rgb(0,0,0)" />
	<circle cx="199.051330828647" cy="-325.457236203234" r="2" style="fill: rgb(0,0,0)" />
	<circle cx="365.320667074765" cy="-446.258980089226" r="2" style="fill: rgb(0,0,0)" />
	<circle cx="321.014831884152" cy="-460.65481860072" r="2" style="fill: rgb(0,0,0)" />
	<circle cx="374.217784571397" cy="-330.264797660245" r="2" style="fill: rgb(0,0,0)" />
	<circle cx="411.90657909101" cy="-357.647309707982" r="2" style="fill: rgb(0,0,0)" />
	<circle cx="397.510740579535" cy="-401.953144898597" r="2" style="fill: rgb(0,0,0)" />
	<circle cx="292.540349697528" cy="-505.238041238566" r="2" style="fill: rgb(0,0,0)" />
	<circle cx="249.982001384939" cy="-486.289843770459" r="2" style="fill: rgb(0,0,0)" />
	<circle cx="227.151848293824" cy="-525.726125168088" r="2" style="fill: rgb(0,0,0)" />
	<circle cx="180.565936277571" cy="-525.726125168101" r="2" style="fill: rgb(0,0,0)" />
	<circle cx="166.170097766088" cy="-481.420289977488" r="2" style="fill: rgb(0,0,0)" />
	<circle cx="166.170097766074" cy="-426.65526588198" r="2" style="fill: rgb(0,0,0)" />
	<circle cx="193.552609813816" cy="-388.966471362361" r="2" style="fill: rgb(0,0,0)" />
	<circle cx="200.069344778213" cy="-315.771480467637" r="2" style="fill: rgb(0,0,0)" />
	<circle cx="203.858892285668" cy="-243.462606493005" r="2" style="fill: rgb(0,0,0)" />
	<circle cx="241.54768680526" cy="-216.080094445244" r="2" style="fill: rgb(0,0,0)" />
	<circle cx="350.924828563259" cy="-295.547239524065" r="2" style="fill: rgb(0,0,0)" />
	<circle cx="336.528990051794" cy="-339.853074714685" r="2" style="fill: rgb(0,0,0)" />
	<circle cx="296.312710900783" cy="-216.080094445235" r="2" style="fill: rgb(0,0,0)" />
	<circle cx="334.001505420387" cy="-243.462606492977" r="2" style="fill: rgb(0,0,0)" />
	<circle cx="154.74549563804" cy="-386.438986730977" r="2" style="fill: rgb(0,0,0)" />
	<circle cx="127.362983590279" cy="-348.750192211379" r="2" style="fill: rgb(0,0,0)" />
	<circle cx="154.745495638025" cy="-311.061397691768" r="2" style="fill: rgb(0,0,0)" />
	<circle cx="392.703179122529" cy="-483.947774608828" r="2" style="fill: rgb(0,0,0)" />
	<circle cx="365.320667074791" cy="-521.636569128448" r="2" style="fill: rgb(0,0,0)" />
	<circle cx="321.01483188417" cy="-507.240730616981" r="2" style="fill: rgb(0,0,0)" />
	<circle cx="396.492726629978" cy="-411.63890063419" r="2" style="fill: rgb(0,0,0)" />
	<circle cx="456.21241428163" cy="-372.043148219457" r="2" style="fill: rgb(0,0,0)" />
	<circle cx="441.816575770161" cy="-416.348983410068" r="2" style="fill: rgb(0,0,0)" />
	<circle cx="401.600296619138" cy="-292.576003140624" r="2" style="fill: rgb(0,0,0)" />
	<circle cx="439.289091138749" cy="-319.958515188354" r="2" style="fill: rgb(0,0,0)" />
	<circle cx="254.851555177924" cy="-532.620553286326" r="2" style="fill: rgb(0,0,0)" />
	<circle cx="227.151848293825" cy="-572.312037184349" r="2" style="fill: rgb(0,0,0)" />
	<circle cx="180.565936277578" cy="-572.312037184367" r="2" style="fill: rgb(0,0,0)" />
	<circle cx="136.260101086955" cy="-540.121963679587" r="2" style="fill: rgb(0,0,0)" />
	<circle cx="121.864262575469" cy="-495.816128488981" r="2" style="fill: rgb(0,0,0)" />
	<circle cx="161.300543973092" cy="-435.089580461621" r="2" style="fill: rgb(0,0,0)" />
	<circle cx="165.449265323182" cy="-284.599420912418" r="2" style="fill: rgb(0,0,0)" />
	<circle cx="196.621324878393" cy="-249.97934145739" r="2" style="fill: rgb(0,0,0)" />
	<circle cx="287.878396321127" cy="-211.210540652242" r="2" style="fill: rgb(0,0,0)" />
	<circle cx="166.170097766046" cy="-216.080094445268" r="2" style="fill: rgb(0,0,0)" />
	<circle cx="180.565936277497" cy="-171.774259254652" r="2" style="fill: rgb(0,0,0)" />
	<circle cx="227.151848293752" cy="-171.774259254638" r="2" style="fill: rgb(0,0,0)" />
	<circle cx="341.239072827658" cy="-249.979341457367" r="2" style="fill: rgb(0,0,0)" />
	<circle cx="310.708549412258" cy="-171.774259254616" r="2" style="fill: rgb(0,0,0)" />
	<circle cx="357.294461428507" cy="-171.7742592546" r="2" style="fill: rgb(0,0,0)" />
	<circle cx="371.690299939987" cy="-216.080094445211" r="2" style="fill: rgb(0,0,0)" />
	<circle cx="89.6741890706634" cy="-321.367680163633" r="2" style="fill: rgb(0,0,0)" />
	<circle cx="117.056701118402" cy="-283.678885644023" r="2" style="fill: rgb(0,0,0)" />
	<circle cx="117.056701118438" cy="-413.821498778743" r="2" style="fill: rgb(0,0,0)" />
	<circle cx="89.6741890706768" cy="-376.132704259153" r="2" style="fill: rgb(0,0,0)" />
	<circle cx="350.924828563326" cy="-565.942404319071" r="2" style="fill: rgb(0,0,0)" />
	<circle cx="306.618993372708" cy="-551.54656580761" r="2" style="fill: rgb(0,0,0)" />
	<circle cx="403.009461594368" cy="-418.876468041461" r="2" style="fill: rgb(0,0,0)" />
	<circle cx="430.391973642132" cy="-456.565262561055" r="2" style="fill: rgb(0,0,0)" />
	<circle cx="430.391973642152" cy="-511.330286656567" r="2" style="fill: rgb(0,0,0)" />
	<circle cx="403.009461594421" cy="-549.019081176184" r="2" style="fill: rgb(0,0,0)" />
	<circle cx="502.798326297891" cy="-372.043148219448" r="2" style="fill: rgb(0,0,0)" />
	<circle cx="517.194164809385" cy="-416.348983410051" r="2" style="fill: rgb(0,0,0)" />
	<circle cx="479.505370289781" cy="-443.731495457805" r="2" style="fill: rgb(0,0,0)" />
	<circle cx="446.526658546036" cy="-326.475250152758" r="2" style="fill: rgb(0,0,0)" />
	<circle cx="140.221353013027" cy="-549.019081176245" r="2" style="fill: rgb(0,0,0)" />
	<circle cx="241.547686805306" cy="-616.617872374966" r="2" style="fill: rgb(0,0,0)" />
	<circle cx="203.858892285713" cy="-644.000384422739" r="2" style="fill: rgb(0,0,0)" />
	<circle cx="166.17009776611" cy="-616.617872374997" r="2" style="fill: rgb(0,0,0)" />
	<circle cx="98.5713065673493" cy="-567.504475727347" r="2" style="fill: rgb(0,0,0)" />
	<circle cx="60.8825120477357" cy="-540.121963679614" r="2" style="fill: rgb(0,0,0)" />
	<circle cx="75.2783505592098" cy="-495.816128488999" r="2" style="fill: rgb(0,0,0)" />
	<circle cx="151.053426811695" cy="-240.293585721803" r="2" style="fill: rgb(0,0,0)" />
	<circle cx="236.678133012255" cy="-169.749384929375" r="2" style="fill: rgb(0,0,0)" />
	<circle cx="283.008842528116" cy="-164.879831136368" r="2" style="fill: rgb(0,0,0)" />
	<circle cx="180.565936277495" cy="-125.18834723839" r="2" style="fill: rgb(0,0,0)" />
	<circle cx="227.151848293745" cy="-125.188347238372" r="2" style="fill: rgb(0,0,0)" />
	<circle cx="121.864262575419" cy="-201.684255933814" r="2" style="fill: rgb(0,0,0)" />
	<circle cx="136.260101086864" cy="-157.378420743203" r="2" style="fill: rgb(0,0,0)" />
	<circle cx="310.708549412256" cy="-125.188347238355" r="2" style="fill: rgb(0,0,0)" />
	<circle cx="357.294461428499" cy="-125.188347238334" r="2" style="fill: rgb(0,0,0)" />
	<circle cx="401.600296619124" cy="-157.378420743116" r="2" style="fill: rgb(0,0,0)" />
	<circle cx="415.996135130607" cy="-201.684255933721" r="2" style="fill: rgb(0,0,0)" />
	<circle cx="84.80463527769" cy="-367.698389679504" r="2" style="fill: rgb(0,0,0)" />
	<circle cx="396.492726630024" cy="-556.256648583466" r="2" style="fill: rgb(0,0,0)" />
	<circle cx="435.261527435136" cy="-502.895972076923" r="2" style="fill: rgb(0,0,0)" />
	<circle cx="468.080768161777" cy="-538.712798704301" r="2" style="fill: rgb(0,0,0)" />
	<circle cx="440.698256114053" cy="-576.401593223917" r="2" style="fill: rgb(0,0,0)" />
	<circle cx="547.104161488503" cy="-357.647309707949" r="2" style="fill: rgb(0,0,0)" />
	<circle cx="561.5" cy="-401.953144898545" r="2" style="fill: rgb(0,0,0)" />
	<circle cx="157.272980269457" cy="-612.656620448922" r="2" style="fill: rgb(0,0,0)" />
	<circle cx="116.928397004908" cy="-589.363664440807" r="2" style="fill: rgb(0,0,0)" />
	<circle cx="176.476380237965" cy="-681.689178942354" r="2" style="fill: rgb(0,0,0)" />
	<circle cx="138.787585718364" cy="-654.306666894619" r="2" style="fill: rgb(0,0,0)" />
	<circle cx="71.1887945196116" cy="-605.19327024697" r="2" style="fill: rgb(0,0,0)" />
	<circle cx="33.5" cy="-577.810758199243" r="2" style="fill: rgb(0,0,0)" />
	<circle cx="255.626330480349" cy="-127.191036616771" r="2" style="fill: rgb(0,0,0)" />
	<circle cx="166.170097766014" cy="-80.8825120477732" r="2" style="fill: rgb(0,0,0)" />
	<circle cx="203.85889228561" cy="-53.5" r="2" style="fill: rgb(0,0,0)" />
	<circle cx="241.547686805214" cy="-80.8825120477412" r="2" style="fill: rgb(0,0,0)" />
	<circle cx="140.221353012949" cy="-148.481303246522" r="2" style="fill: rgb(0,0,0)" />
	<circle cx="397.639044693051" cy="-148.481303246455" r="2" style="fill: rgb(0,0,0)" />
	<circle cx="487.02896562992" cy="-581.271147016883" r="2" style="fill: rgb(0,0,0)" />
	<circle cx="116.928397004916" cy="-635.949576457065" r="2" style="fill: rgb(0,0,0)" />
	<!--
	Generated using the Perl SVG Module V2.87
	by Ronan Oger

	-->
</svg>