<?xml version="1.0" encoding="UTF-8" standalone="yes"?>
<!DOCTYPE svg PUBLIC "-//W3C//DTD SVG 1.0//EN" "http://www.w3.org/TR/2001/REC-SVG-20010904/DTD/svg10.dtd">
<!-- generated using polymake; Michael Joswig, Georg Loho, Benjamin Lorenz, Rico Raber; license CC BY-NC-SA 3.0; see polymake.org and matchthenet.de -->
<svg height="841pt" id="document" viewBox="0 -811 465.436376778134 811" width="595pt" xmlns="http://www.w3.org/2000/svg" xmlns:svg="http://www.w3.org/2000/svg" xmlns:xlink="http://www.w3.org/1999/xlink">
	<title id="document_title">planar_net_</title>
	<polygon points="292.195201731261,-413.999999999987 399.719146572518,-413.999999999987 228.816878172012,-508.55737704916 226.350501733199,-499.005142176156 " style="fill: rgb(67,184,206); fill-opacity: 1; stroke: rgb(0,0,0); stroke-width: 3" />
	<polygon points="292.195201731261,-413.999999999987 226.350501733202,-328.994857823816 228.816878172015,-319.442622950812 399.719146572518,-413.999999999987 " style="fill: rgb(67,184,206); fill-opacity: 1; stroke: rgb(0,0,0); stroke-width: 3" />
	<polygon points="399.719146572518,-413.999999999987 228.816878172015,-319.442622950812 295.957055043643,-248.524590163928 " style="fill: rgb(14,173,105); fill-opacity: 1; stroke: rgb(0,0,0); stroke-width: 3" />
	<polygon points="393.838930839013,-306.63696270524 399.719146572518,-413.999999999987 295.957055043643,-248.524590163928 305.360115216622,-245.539516766113 " style="fill: rgb(67,184,206); fill-opacity: 1; stroke: rgb(0,0,0); stroke-width: 3" />
	<polygon points="295.957055043638,-579.475409836039 399.719146572518,-413.999999999987 393.838930839009,-521.363037294732 305.360115216611,-582.460483233849 " style="fill: rgb(67,184,206); fill-opacity: 1; stroke: rgb(0,0,0); stroke-width: 3" />
	<polygon points="228.816878172012,-508.55737704916 399.719146572518,-413.999999999987 295.957055043638,-579.475409836039 " style="fill: rgb(14,173,105); fill-opacity: 1; stroke: rgb(0,0,0); stroke-width: 3" />
	<polygon points="226.350501733199,-499.005142176156 228.816878172012,-508.55737704916 33.5000000000038,-508.557377049162 127.583451736108,-456.502571088071 " style="fill: rgb(67,184,206); fill-opacity: 1; stroke: rgb(0,0,0); stroke-width: 3" />
	<polygon points="127.583451736104,-371.497428911896 33.5,-319.442622950803 228.816878172015,-319.442622950812 226.350501733202,-328.994857823816 " style="fill: rgb(67,184,206); fill-opacity: 1; stroke: rgb(0,0,0); stroke-width: 3" />
	<polygon points="228.816878172015,-319.442622950812 125.054786643134,-153.967213114752 295.957055043643,-248.524590163928 " style="fill: rgb(14,173,105); fill-opacity: 1; stroke: rgb(0,0,0); stroke-width: 3" />
	<polygon points="305.360115216622,-245.539516766113 295.957055043643,-248.524590163928 285.275663268583,-53.5 342.397758965523,-144.595910431901 " style="fill: rgb(67,184,206); fill-opacity: 1; stroke: rgb(0,0,0); stroke-width: 3" />
	<polygon points="295.957055043638,-579.475409836039 305.360115216611,-582.460483233849 342.397758965539,-683.404089568059 285.275663268686,-774.5 " style="fill: rgb(67,184,206); fill-opacity: 1; stroke: rgb(0,0,0); stroke-width: 3" />
	<polygon points="228.816878172012,-508.55737704916 295.957055043638,-579.475409836039 125.054786643133,-674.03278688522 " style="fill: rgb(14,173,105); fill-opacity: 1; stroke: rgb(0,0,0); stroke-width: 3" />
	<polygon points="305.360115216611,-582.460483233849 393.838930839009,-521.363037294732 454.936376778134,-609.841852917138 366.457561155739,-670.939298856249 " style="fill: rgb(67,184,206); fill-opacity: 1; stroke: rgb(0,0,0); stroke-width: 3" />
	<polygon points="292.195201731261,-413.999999999987 226.350501733199,-499.005142176156 141.345359557023,-433.160442178096 207.190059555082,-348.155300001926 " style="fill: rgb(67,184,206); fill-opacity: 1; stroke: rgb(0,0,0); stroke-width: 3" />
	<circle cx="292.195201731261" cy="-413.999999999987" r="2" style="fill: rgb(0,0,0)" />
	<circle cx="399.719146572518" cy="-413.999999999987" r="2" style="fill: rgb(0,0,0)" />
	<circle cx="228.816878172012" cy="-508.55737704916" r="2" style="fill: rgb(0,0,0)" />
	<circle cx="226.350501733199" cy="-499.005142176156" r="2" style="fill: rgb(0,0,0)" />
	<circle cx="226.350501733202" cy="-328.994857823816" r="2" style="fill: rgb(0,0,0)" />
	<circle cx="228.816878172015" cy="-319.442622950812" r="2" style="fill: rgb(0,0,0)" />
	<circle cx="295.957055043638" cy="-579.475409836039" r="2" style="fill: rgb(0,0,0)" />
	<circle cx="33.5000000000038" cy="-508.557377049162" r="2" style="fill: rgb(0,0,0)" />
	<circle cx="127.583451736108" cy="-456.502571088071" r="2" style="fill: rgb(0,0,0)" />
	<circle cx="141.345359557023" cy="-433.160442178096" r="2" style="fill: rgb(0,0,0)" />
	<circle cx="207.190059555082" cy="-348.155300001926" r="2" style="fill: rgb(0,0,0)" />
	<circle cx="295.957055043643" cy="-248.524590163928" r="2" style="fill: rgb(0,0,0)" />
	<circle cx="127.583451736104" cy="-371.497428911896" r="2" style="fill: rgb(0,0,0)" />
	<circle cx="33.5" cy="-319.442622950803" r="2" style="fill: rgb(0,0,0)" />
	<circle cx="393.838930839009" cy="-521.363037294732" r="2" style="fill: rgb(0,0,0)" />
	<circle cx="305.360115216611" cy="-582.460483233849" r="2" style="fill: rgb(0,0,0)" />
	<circle cx="125.054786643133" cy="-674.03278688522" r="2" style="fill: rgb(0,0,0)" />
	<circle cx="305.360115216622" cy="-245.539516766113" r="2" style="fill: rgb(0,0,0)" />
	<circle cx="393.838930839013" cy="-306.63696270524" r="2" style="fill: rgb(0,0,0)" />
	<circle cx="125.054786643134" cy="-153.967213114752" r="2" style="fill: rgb(0,0,0)" />
	<circle cx="342.397758965539" cy="-683.404089568059" r="2" style="fill: rgb(0,0,0)" />
	<circle cx="285.275663268686" cy="-774.5" r="2" style="fill: rgb(0,0,0)" />
	<circle cx="454.936376778134" cy="-609.841852917138" r="2" style="fill: rgb(0,0,0)" />
	<circle cx="366.457561155739" cy="-670.939298856249" r="2" style="fill: rgb(0,0,0)" />
	<circle cx="285.275663268583" cy="-53.5" r="2" style="fill: rgb(0,0,0)" />
	<circle cx="342.397758965523" cy="-144.595910431901" r="2" style="fill: rgb(0,0,0)" />
	<!-- 
	Generated using the Perl SVG Module V2.64
	by Ronan Oger
	Info: http://www.roitsystems.com/
 -->
</svg>