<?xml version="1.0" encoding="UTF-8" standalone="yes"?>
<!DOCTYPE svg PUBLIC "-//W3C//DTD SVG 1.0//EN" "http://www.w3.org/TR/2001/REC-SVG-20010904/DTD/svg10.dtd">
<!-- generated using polymake; Michael Joswig, Georg Loho, Benjamin Lorenz, Rico Raber; license CC BY-NC-ND 3.0; see polymake.org and matchthenet.de -->
<svg height="841pt" id="document" viewBox="0 -543.502540233378 572 543.502540233378" width="595pt" xmlns="http://www.w3.org/2000/svg" xmlns:svg="http://www.w3.org/2000/svg" xmlns:xlink="http://www.w3.org/1999/xlink">
	<title id="document_title">planar_net_</title>
	<polygon points="248.512310159828,-249.872360261438 309.270129870323,-249.872360261438 309.270129870327,-310.630179971937 248.512310159838,-310.630179971943 " style="fill: rgb(67,184,206); fill-opacity: 1; stroke: rgb(0,0,0); stroke-width: 3" />
	<polygon points="278.891220015075,-197.254544913594 309.270129870323,-249.872360261438 248.512310159828,-249.872360261438 " style="fill: rgb(14,173,105); fill-opacity: 1; stroke: rgb(0,0,0); stroke-width: 3" />
	<polygon points="248.512310159838,-310.630179971943 309.270129870327,-310.630179971937 278.891220015082,-363.247995319784 " style="fill: rgb(14,173,105); fill-opacity: 1; stroke: rgb(0,0,0); stroke-width: 3" />
	<polygon points="361.887945218169,-219.493450406179 309.270129870323,-249.872360261438 278.891220015075,-197.254544913594 331.509035362921,-166.875635058343 " style="fill: rgb(67,184,206); fill-opacity: 1; stroke: rgb(0,0,0); stroke-width: 3" />
	<polygon points="309.270129870327,-310.630179971937 309.270129870323,-249.872360261438 367.054250221876,-231.097161429721 402.766800609155,-280.251270116678 367.054250221884,-329.405378803642 " style="fill: rgb(255,210,63); fill-opacity: 1; stroke: rgb(0,0,0); stroke-width: 3" />
	<polygon points="278.891220015082,-363.247995319784 331.509035362942,-393.626905175027 301.130125507707,-446.244720522882 248.512310159848,-415.865810667646 " style="fill: rgb(67,184,206); fill-opacity: 1; stroke: rgb(0,0,0); stroke-width: 3" />
	<polygon points="331.509035362921,-166.875635058343 331.50903536292,-106.117815347844 392.266855073408,-106.117815347835 392.266855073416,-166.875635058339 " style="fill: rgb(67,184,206); fill-opacity: 1; stroke: rgb(0,0,0); stroke-width: 3" />
	<polygon points="331.50903536292,-106.117815347844 361.887945218177,-53.5 392.266855073408,-106.117815347835 " style="fill: rgb(14,173,105); fill-opacity: 1; stroke: rgb(0,0,0); stroke-width: 3" />
	<polygon points="361.887945218169,-219.493450406179 331.509035362921,-166.875635058343 392.266855073416,-166.875635058339 " style="fill: rgb(14,173,105); fill-opacity: 1; stroke: rgb(0,0,0); stroke-width: 3" />
	<polygon points="402.766800609155,-280.251270116678 367.054250221876,-231.097161429721 416.20835890884,-195.384611042438 451.92090929611,-244.538719729388 " style="fill: rgb(67,184,206); fill-opacity: 1; stroke: rgb(0,0,0); stroke-width: 3" />
	<polygon points="384.126850710798,-424.005815030263 353.74794085557,-476.623630378113 301.130125507707,-446.244720522882 331.509035362942,-393.626905175027 " style="fill: rgb(67,184,206); fill-opacity: 1; stroke: rgb(0,0,0); stroke-width: 3" />
	<polygon points="451.92090929611,-244.538719729388 416.20835890884,-195.384611042438 465.362467595802,-159.672060655159 501.07501798307,-208.8261693421 " style="fill: rgb(67,184,206); fill-opacity: 1; stroke: rgb(0,0,0); stroke-width: 3" />
	<polygon points="402.766800609155,-280.251270116678 451.92090929611,-244.538719729388 458.271830821958,-304.963701746312 " style="fill: rgb(14,173,105); fill-opacity: 1; stroke: rgb(0,0,0); stroke-width: 3" />
	<polygon points="451.92090929611,-244.538719729388 501.07501798307,-208.8261693421 536.787568370359,-257.980278029054 487.633459683404,-293.692828416343 " style="fill: rgb(67,184,206); fill-opacity: 1; stroke: rgb(0,0,0); stroke-width: 3" />
	<polygon points="416.208358908854,-365.117929190909 451.92090929613,-315.963820503951 501.075017983094,-351.676370891228 465.362467595824,-400.830479578184 " style="fill: rgb(67,184,206); fill-opacity: 1; stroke: rgb(0,0,0); stroke-width: 3" />
	<polygon points="501.07501798307,-208.8261693421 561.5,-202.475247816261 536.787568370359,-257.980278029054 " style="fill: rgb(14,173,105); fill-opacity: 1; stroke: rgb(0,0,0); stroke-width: 3" />
	<polygon points="367.054250221884,-329.405378803642 402.766800609155,-280.251270116678 451.92090929613,-315.963820503951 416.208358908854,-365.117929190909 " style="fill: rgb(67,184,206); fill-opacity: 1; stroke: rgb(0,0,0); stroke-width: 3" />
	<polygon points="361.88794521818,-341.009089827185 392.266855073439,-393.626905175026 331.509035362942,-393.626905175027 " style="fill: rgb(14,173,105); fill-opacity: 1; stroke: rgb(0,0,0); stroke-width: 3" />
	<polygon points="353.74794085557,-476.623630378113 301.130125507731,-507.002540233378 301.130125507707,-446.244720522882 " style="fill: rgb(14,173,105); fill-opacity: 1; stroke: rgb(0,0,0); stroke-width: 3" />
	<polygon points="465.362467595824,-400.830479578184 501.075017983094,-351.676370891228 550.229126670063,-387.388921278504 514.516576282798,-436.543029965457 " style="fill: rgb(67,184,206); fill-opacity: 1; stroke: rgb(0,0,0); stroke-width: 3" />
	<polygon points="501.07501798307,-208.8261693421 465.362467595802,-159.672060655159 514.516576282765,-123.959510267875 550.229126670031,-173.11361895481 " style="fill: rgb(67,184,206); fill-opacity: 1; stroke: rgb(0,0,0); stroke-width: 3" />
	<polygon points="309.270129870327,-310.630179971937 361.88794521818,-341.009089827185 331.509035362942,-393.626905175027 278.891220015082,-363.247995319784 " style="fill: rgb(67,184,206); fill-opacity: 1; stroke: rgb(0,0,0); stroke-width: 3" />
	<polygon points="248.512310159848,-415.865810667646 301.130125507707,-446.244720522882 270.751215652476,-498.862535870742 218.133400304618,-468.483626015511 " style="fill: rgb(67,184,206); fill-opacity: 1; stroke: rgb(0,0,0); stroke-width: 3" />
	<polygon points="126.99667073882,-249.872360261482 126.996670738841,-310.630179971976 69.2125503872926,-329.40537880371 33.5,-280.251270116766 69.2125503872595,-231.097161429794 " style="fill: rgb(255,210,63); fill-opacity: 1; stroke: rgb(0,0,0); stroke-width: 3" />
	<polygon points="301.13012550766,-114.257819710497 248.512310159823,-144.63672956575 218.133400304566,-92.0189142179059 270.751215652395,-61.6400043626531 " style="fill: rgb(67,184,206); fill-opacity: 1; stroke: rgb(0,0,0); stroke-width: 3" />
	<polygon points="331.509035362921,-166.875635058343 278.891220015075,-197.254544913594 248.512310159823,-144.63672956575 301.13012550766,-114.257819710497 " style="fill: rgb(67,184,206); fill-opacity: 1; stroke: rgb(0,0,0); stroke-width: 3" />
	<polygon points="195.89449481199,-341.009089827201 226.273404667236,-393.626905175035 165.515584956736,-393.62690517503 " style="fill: rgb(14,173,105); fill-opacity: 1; stroke: rgb(0,0,0); stroke-width: 3" />
	<polygon points="248.512310159838,-310.630179971943 278.891220015082,-363.247995319784 226.273404667236,-393.626905175035 195.89449481199,-341.009089827201 " style="fill: rgb(67,184,206); fill-opacity: 1; stroke: rgb(0,0,0); stroke-width: 3" />
	<polygon points="195.894494811981,-219.493450406191 165.515584956733,-166.875635058342 226.27340466722,-166.87563505835 " style="fill: rgb(14,173,105); fill-opacity: 1; stroke: rgb(0,0,0); stroke-width: 3" />
	<polygon points="187.754490449324,-249.872360261457 187.75449044934,-310.630179971957 126.996670738841,-310.630179971976 126.99667073882,-249.872360261482 " style="fill: rgb(67,184,206); fill-opacity: 1; stroke: rgb(0,0,0); stroke-width: 3" />
	<polygon points="248.512310159828,-249.872360261438 195.894494811981,-219.493450406191 226.27340466722,-166.87563505835 278.891220015075,-197.254544913594 " style="fill: rgb(67,184,206); fill-opacity: 1; stroke: rgb(0,0,0); stroke-width: 3" />
	<polygon points="248.512310159828,-249.872360261438 248.512310159838,-310.630179971943 187.75449044934,-310.630179971957 187.754490449324,-249.872360261457 " style="fill: rgb(67,184,206); fill-opacity: 1; stroke: rgb(0,0,0); stroke-width: 3" />
	<circle cx="248.512310159828" cy="-249.872360261438" r="2" style="fill: rgb(0,0,0)" />
	<circle cx="309.270129870323" cy="-249.872360261438" r="2" style="fill: rgb(0,0,0)" />
	<circle cx="309.270129870327" cy="-310.630179971937" r="2" style="fill: rgb(0,0,0)" />
	<circle cx="248.512310159838" cy="-310.630179971943" r="2" style="fill: rgb(0,0,0)" />
	<circle cx="278.891220015075" cy="-197.254544913594" r="2" style="fill: rgb(0,0,0)" />
	<circle cx="278.891220015082" cy="-363.247995319784" r="2" style="fill: rgb(0,0,0)" />
	<circle cx="367.054250221876" cy="-231.097161429721" r="2" style="fill: rgb(0,0,0)" />
	<circle cx="402.766800609155" cy="-280.251270116678" r="2" style="fill: rgb(0,0,0)" />
	<circle cx="367.054250221884" cy="-329.405378803642" r="2" style="fill: rgb(0,0,0)" />
	<circle cx="187.75449044934" cy="-310.630179971957" r="2" style="fill: rgb(0,0,0)" />
	<circle cx="187.754490449324" cy="-249.872360261457" r="2" style="fill: rgb(0,0,0)" />
	<circle cx="331.509035362921" cy="-166.875635058343" r="2" style="fill: rgb(0,0,0)" />
	<circle cx="361.887945218169" cy="-219.493450406179" r="2" style="fill: rgb(0,0,0)" />
	<circle cx="195.894494811981" cy="-219.493450406191" r="2" style="fill: rgb(0,0,0)" />
	<circle cx="226.27340466722" cy="-166.87563505835" r="2" style="fill: rgb(0,0,0)" />
	<circle cx="361.88794521818" cy="-341.009089827185" r="2" style="fill: rgb(0,0,0)" />
	<circle cx="331.509035362942" cy="-393.626905175027" r="2" style="fill: rgb(0,0,0)" />
	<circle cx="226.273404667236" cy="-393.626905175035" r="2" style="fill: rgb(0,0,0)" />
	<circle cx="195.89449481199" cy="-341.009089827201" r="2" style="fill: rgb(0,0,0)" />
	<circle cx="416.20835890884" cy="-195.384611042438" r="2" style="fill: rgb(0,0,0)" />
	<circle cx="451.92090929611" cy="-244.538719729388" r="2" style="fill: rgb(0,0,0)" />
	<circle cx="451.92090929613" cy="-315.963820503951" r="2" style="fill: rgb(0,0,0)" />
	<circle cx="416.208358908854" cy="-365.117929190909" r="2" style="fill: rgb(0,0,0)" />
	<circle cx="126.996670738841" cy="-310.630179971976" r="2" style="fill: rgb(0,0,0)" />
	<circle cx="126.99667073882" cy="-249.872360261482" r="2" style="fill: rgb(0,0,0)" />
	<circle cx="392.266855073416" cy="-166.875635058339" r="2" style="fill: rgb(0,0,0)" />
	<circle cx="248.512310159823" cy="-144.63672956575" r="2" style="fill: rgb(0,0,0)" />
	<circle cx="301.13012550766" cy="-114.257819710497" r="2" style="fill: rgb(0,0,0)" />
	<circle cx="165.515584956733" cy="-166.875635058342" r="2" style="fill: rgb(0,0,0)" />
	<circle cx="301.130125507707" cy="-446.244720522882" r="2" style="fill: rgb(0,0,0)" />
	<circle cx="248.512310159848" cy="-415.865810667646" r="2" style="fill: rgb(0,0,0)" />
	<circle cx="392.266855073439" cy="-393.626905175026" r="2" style="fill: rgb(0,0,0)" />
	<circle cx="165.515584956736" cy="-393.62690517503" r="2" style="fill: rgb(0,0,0)" />
	<circle cx="465.362467595802" cy="-159.672060655159" r="2" style="fill: rgb(0,0,0)" />
	<circle cx="501.07501798307" cy="-208.8261693421" r="2" style="fill: rgb(0,0,0)" />
	<circle cx="458.271830821958" cy="-304.963701746312" r="2" style="fill: rgb(0,0,0)" />
	<circle cx="501.075017983094" cy="-351.676370891228" r="2" style="fill: rgb(0,0,0)" />
	<circle cx="465.362467595824" cy="-400.830479578184" r="2" style="fill: rgb(0,0,0)" />
	<circle cx="69.2125503872926" cy="-329.40537880371" r="2" style="fill: rgb(0,0,0)" />
	<circle cx="33.5" cy="-280.251270116766" r="2" style="fill: rgb(0,0,0)" />
	<circle cx="69.2125503872595" cy="-231.097161429794" r="2" style="fill: rgb(0,0,0)" />
	<circle cx="331.50903536292" cy="-106.117815347844" r="2" style="fill: rgb(0,0,0)" />
	<circle cx="392.266855073408" cy="-106.117815347835" r="2" style="fill: rgb(0,0,0)" />
	<circle cx="218.133400304566" cy="-92.0189142179059" r="2" style="fill: rgb(0,0,0)" />
	<circle cx="270.751215652395" cy="-61.6400043626531" r="2" style="fill: rgb(0,0,0)" />
	<circle cx="384.126850710798" cy="-424.005815030263" r="2" style="fill: rgb(0,0,0)" />
	<circle cx="353.74794085557" cy="-476.623630378113" r="2" style="fill: rgb(0,0,0)" />
	<circle cx="270.751215652476" cy="-498.862535870742" r="2" style="fill: rgb(0,0,0)" />
	<circle cx="218.133400304618" cy="-468.483626015511" r="2" style="fill: rgb(0,0,0)" />
	<circle cx="536.787568370359" cy="-257.980278029054" r="2" style="fill: rgb(0,0,0)" />
	<circle cx="487.633459683404" cy="-293.692828416343" r="2" style="fill: rgb(0,0,0)" />
	<circle cx="514.516576282765" cy="-123.959510267875" r="2" style="fill: rgb(0,0,0)" />
	<circle cx="550.229126670031" cy="-173.11361895481" r="2" style="fill: rgb(0,0,0)" />
	<circle cx="550.229126670063" cy="-387.388921278504" r="2" style="fill: rgb(0,0,0)" />
	<circle cx="514.516576282798" cy="-436.543029965457" r="2" style="fill: rgb(0,0,0)" />
	<circle cx="361.887945218177" cy="-53.5" r="2" style="fill: rgb(0,0,0)" />
	<circle cx="301.130125507731" cy="-507.002540233378" r="2" style="fill: rgb(0,0,0)" />
	<circle cx="561.5" cy="-202.475247816261" r="2" style="fill: rgb(0,0,0)" />
	<!--
	Generated using the Perl SVG Module V2.87
	by Ronan Oger

	-->
</svg>