<?xml version="1.0" encoding="UTF-8" standalone="yes"?>
<!DOCTYPE svg PUBLIC "-//W3C//DTD SVG 1.0//EN" "http://www.w3.org/TR/2001/REC-SVG-20010904/DTD/svg10.dtd">
<!-- generated using polymake; Michael Joswig, Georg Loho, Benjamin Lorenz, Rico Raber; license CC BY-NC-ND 3.0; see polymake.org and matchthenet.de -->
<svg height="841pt" id="document" viewBox="0 -728.25257581781 572 728.25257581781" width="595pt" xmlns="http://www.w3.org/2000/svg" xmlns:svg="http://www.w3.org/2000/svg" xmlns:xlink="http://www.w3.org/1999/xlink">
	<title id="document_title">planar_net_</title>
	<polygon points="292.615038554616,-409.824489858411 331.979202390142,-409.824489858411 312.297120472368,-443.914855738709 " style="fill: rgb(61,81,50); fill-opacity: 1; stroke: rgb(0,0,0); stroke-width: 3" />
	<polygon points="363.825479902443,-386.686814887064 331.979202390142,-409.824489858411 292.615038554616,-409.824489858411 260.768761042315,-386.686814887064 248.604565447777,-349.249270362776 260.768761042315,-311.811725838488 292.615038554616,-288.674050867141 331.979202390142,-288.674050867141 363.825479902443,-311.811725838488 375.98967549698,-349.249270362776 " style="fill: rgb(186,59,38); fill-opacity: 1; stroke: rgb(0,0,0); stroke-width: 3" />
	<polygon points="402.329442313068,-378.502545026381 363.825479902443,-386.686814887064 375.98967549698,-349.249270362776 414.493637907599,-341.0650005021 " style="fill: rgb(216,176,92); fill-opacity: 1; stroke: rgb(0,0,0); stroke-width: 3" />
	<polygon points="260.768761042315,-386.686814887064 222.264798631693,-378.502545026387 210.100603037167,-341.065000502106 248.604565447777,-349.249270362776 " style="fill: rgb(216,176,92); fill-opacity: 1; stroke: rgb(0,0,0); stroke-width: 3" />
	<polygon points="432.783884682663,-431.251186526788 406.4441178666,-401.997911863158 435.697392530232,-375.658145047093 462.037159346292,-404.911419710717 " style="fill: rgb(216,176,92); fill-opacity: 1; stroke: rgb(0,0,0); stroke-width: 3" />
	<polygon points="218.15012307817,-401.997911863133 191.81035626209,-431.251186526748 162.557081598471,-404.91141971067 188.896848414545,-375.658145047055 " style="fill: rgb(216,176,92); fill-opacity: 1; stroke: rgb(0,0,0); stroke-width: 3" />
	<polygon points="375.98967549698,-349.249270362776 363.825479902443,-311.811725838488 401.263024426735,-299.647530243945 413.427220021272,-337.08507476823 " style="fill: rgb(216,176,92); fill-opacity: 1; stroke: rgb(0,0,0); stroke-width: 3" />
	<polygon points="260.768761042315,-311.811725838488 248.604565447777,-349.249270362776 211.167020923485,-337.085074768238 223.331216518015,-299.647530243958 " style="fill: rgb(216,176,92); fill-opacity: 1; stroke: rgb(0,0,0); stroke-width: 3" />
	<polygon points="211.167020923485,-337.085074768238 171.802857087957,-337.085074768242 159.638661493408,-299.647530243968 191.484939005705,-276.509855272624 223.331216518015,-299.647530243958 " style="fill: rgb(91,98,49); fill-opacity: 1; stroke: rgb(0,0,0); stroke-width: 3" />
	<polygon points="363.825479902443,-311.811725838488 331.979202390142,-288.674050867141 367.940155455989,-272.663203011183 399.786432968294,-295.800877982512 " style="fill: rgb(216,176,92); fill-opacity: 1; stroke: rgb(0,0,0); stroke-width: 3" />
	<polygon points="292.615038554616,-288.674050867141 260.768761042315,-311.811725838488 224.807807976465,-295.800877982537 256.654085488754,-272.663203011196 " style="fill: rgb(216,176,92); fill-opacity: 1; stroke: rgb(0,0,0); stroke-width: 3" />
	<polygon points="127.646997394197,-683.568305957138 89.143034983595,-691.75257581781 53.182081917759,-675.741727961862 33.5,-641.65136208156 37.614675553541,-602.502839254262 63.9544423696077,-573.249564590644 102.45840478021,-565.065294729972 138.419357846045,-581.07614258592 158.101439763805,-615.166508466222 153.986764210264,-654.31503129352 " style="fill: rgb(186,59,38); fill-opacity: 1; stroke: rgb(0,0,0); stroke-width: 3" />
	<polygon points="256.654085488754,-272.663203011196 224.807807976465,-295.800877982537 201.670133005112,-263.954600470234 233.516410517396,-240.816925498896 " style="fill: rgb(216,176,92); fill-opacity: 1; stroke: rgb(0,0,0); stroke-width: 3" />
	<polygon points="464.955579451339,-299.647530243934 433.109301939036,-276.509855272596 456.246976910381,-244.663577760284 488.093254422679,-267.801252731618 " style="fill: rgb(216,176,92); fill-opacity: 1; stroke: rgb(0,0,0); stroke-width: 3" />
	<polygon points="136.500986522053,-267.801252731663 168.347264034341,-244.66357776032 191.484939005705,-276.509855272624 159.638661493408,-299.647530243968 " style="fill: rgb(216,176,92); fill-opacity: 1; stroke: rgb(0,0,0); stroke-width: 3" />
	<polygon points="260.768761042315,-190.661286847216 248.604565447777,-228.098831371504 210.10060303716,-236.283101232174 222.264798631689,-198.845556707901 " style="fill: rgb(216,176,92); fill-opacity: 1; stroke: rgb(0,0,0); stroke-width: 3" />
	<polygon points="331.979202390142,-167.523611875871 292.615038554615,-167.523611875869 312.29712047239,-133.43324599557 " style="fill: rgb(61,81,50); fill-opacity: 1; stroke: rgb(0,0,0); stroke-width: 3" />
	<polygon points="296.729714108158,-53.5 292.615038554615,-92.6485228272976 260.768761042313,-69.5108478559496 " style="fill: rgb(61,81,50); fill-opacity: 1; stroke: rgb(0,0,0); stroke-width: 3" />
	<polygon points="177.394124099948,-130.086067351579 189.558319694486,-92.648522827293 221.404597206786,-69.5108478559478 260.768761042313,-69.5108478559496 292.615038554615,-92.6485228272976 304.779234149153,-130.086067351585 292.615038554615,-167.523611875869 260.768761042315,-190.661286847216 221.404597206788,-190.661286847214 189.558319694486,-167.523611875866 " style="fill: rgb(186,59,38); fill-opacity: 1; stroke: rgb(0,0,0); stroke-width: 3" />
	<polygon points="82.7763228624578,-530.974928849673 102.45840478021,-565.065294729972 63.0942409446696,-565.065294729969 " style="fill: rgb(61,81,50); fill-opacity: 1; stroke: rgb(0,0,0); stroke-width: 3" />
	<polygon points="522.135836164468,-565.065294730072 541.817918082244,-530.974928849774 561.5,-565.065294730079 " style="fill: rgb(61,81,50); fill-opacity: 1; stroke: rgb(0,0,0); stroke-width: 3" />
	<polygon points="435.035921250275,-92.6485228273002 447.200116844811,-130.08606735159 435.035921250272,-167.523611875877 403.18964373797,-190.661286847223 363.825479902443,-190.661286847219 331.979202390142,-167.523611875871 319.815006795605,-130.086067351581 331.979202390145,-92.6485228272934 363.825479902447,-69.5108478559479 403.189643737974,-69.5108478559504 " style="fill: rgb(186,59,38); fill-opacity: 1; stroke: rgb(0,0,0); stroke-width: 3" />
	<polygon points="375.98967549698,-228.098831371508 363.825479902443,-190.661286847219 402.329442313064,-198.845556707894 414.49363790759,-236.28310123218 " style="fill: rgb(216,176,92); fill-opacity: 1; stroke: rgb(0,0,0); stroke-width: 3" />
	<polygon points="113.230765232091,-462.573131358764 86.8909984160115,-491.826406022378 74.726802821466,-454.388861498093 101.066569637541,-425.13558683448 " style="fill: rgb(216,176,92); fill-opacity: 1; stroke: rgb(0,0,0); stroke-width: 3" />
	<polygon points="537.703242528714,-491.82640602247 511.36347571265,-462.57313135884 523.527671307209,-425.135586834555 549.867438123266,-454.388861498173 " style="fill: rgb(216,176,92); fill-opacity: 1; stroke: rgb(0,0,0); stroke-width: 3" />
	<polygon points="331.979202390142,-288.674050867141 292.615038554616,-288.674050867141 260.768761042315,-265.536375895792 248.604565447777,-228.098831371504 260.768761042315,-190.661286847216 292.615038554615,-167.523611875869 331.979202390142,-167.523611875871 363.825479902443,-190.661286847219 375.98967549698,-228.098831371508 363.825479902443,-265.536375895795 " style="fill: rgb(186,59,38); fill-opacity: 1; stroke: rgb(0,0,0); stroke-width: 3" />
	<polygon points="367.940155455989,-272.663203011183 391.077830427326,-240.816925498865 422.924107939626,-263.95460047019 399.786432968294,-295.800877982512 " style="fill: rgb(216,176,92); fill-opacity: 1; stroke: rgb(0,0,0); stroke-width: 3" />
	<polygon points="155.849403196241,-447.262034382687 116.700880368939,-443.147358829154 120.815555922472,-403.998836001861 159.964078749777,-408.11351155539 " style="fill: rgb(216,176,92); fill-opacity: 1; stroke: rgb(0,0,0); stroke-width: 3" />
	<polygon points="176.923320256656,-572.89187272525 164.75912466211,-610.329417249534 138.419357846045,-581.07614258592 " style="fill: rgb(61,81,50); fill-opacity: 1; stroke: rgb(0,0,0); stroke-width: 3" />
	<polygon points="307.031270716735,-630.819664456774 294.867075122196,-668.257208981063 268.527308306124,-639.003934317445 " style="fill: rgb(61,81,50); fill-opacity: 1; stroke: rgb(0,0,0); stroke-width: 3" />
	<polygon points="468.744837748509,-447.262034382742 464.630162194978,-408.11351155545 503.77868502228,-403.998836001917 507.89336057581,-443.147358829204 " style="fill: rgb(216,176,92); fill-opacity: 1; stroke: rgb(0,0,0); stroke-width: 3" />
	<polygon points="452.7913838568,-337.085074768221 413.427220021272,-337.08507476823 401.263024426735,-299.647530243945 433.109301939036,-276.509855272596 464.955579451339,-299.647530243934 " style="fill: rgb(91,98,49); fill-opacity: 1; stroke: rgb(0,0,0); stroke-width: 3" />
	<polygon points="191.81035626209,-431.251186526748 187.695680708537,-470.399709354042 155.849403196241,-447.262034382687 159.964078749777,-408.11351155539 " style="fill: rgb(216,176,92); fill-opacity: 1; stroke: rgb(0,0,0); stroke-width: 3" />
	<polygon points="436.898560236193,-470.399709354092 432.783884682663,-431.251186526788 464.630162194978,-408.11351155545 468.744837748509,-447.262034382742 " style="fill: rgb(216,176,92); fill-opacity: 1; stroke: rgb(0,0,0); stroke-width: 3" />
	<polygon points="187.695680708537,-470.399709354042 207.377762626289,-504.490075234341 203.263087072735,-543.638598061635 176.923320256656,-572.89187272525 138.419357846045,-581.07614258592 102.45840478021,-565.065294729972 82.7763228624578,-530.974928849673 86.8909984160115,-491.826406022378 113.230765232091,-462.573131358764 151.734727642702,-454.388861498093 " style="fill: rgb(186,59,38); fill-opacity: 1; stroke: rgb(0,0,0); stroke-width: 3" />
	<polygon points="417.216478318418,-504.49007523439 436.898560236193,-470.399709354092 472.859513302042,-454.388861498154 511.36347571265,-462.57313135884 537.703242528714,-491.82640602247 541.817918082244,-530.974928849774 522.135836164468,-565.065294730072 486.174883098619,-581.076142586011 447.67092068801,-572.891872725325 421.331153871947,-543.638598061694 " style="fill: rgb(186,59,38); fill-opacity: 1; stroke: rgb(0,0,0); stroke-width: 3" />
	<polygon points="207.377762626289,-504.490075234341 243.338715692125,-520.500923090289 211.492438179812,-543.638598061632 " style="fill: rgb(61,81,50); fill-opacity: 1; stroke: rgb(0,0,0); stroke-width: 3" />
	<polygon points="381.255525252569,-520.500923090329 417.216478318418,-504.49007523439 413.101802764854,-543.638598061686 " style="fill: rgb(61,81,50); fill-opacity: 1; stroke: rgb(0,0,0); stroke-width: 3" />
	<polygon points="317.803631168579,-528.327501085567 337.485713086345,-562.417866965866 333.371037532806,-601.56638979316 307.031270716735,-630.819664456774 268.527308306124,-639.003934317445 232.56635524028,-622.993086461496 212.884273322514,-588.902720581197 216.998948876054,-549.754197753903 243.338715692125,-520.500923090289 281.842678102735,-512.316653229619 " style="fill: rgb(186,59,38); fill-opacity: 1; stroke: rgb(0,0,0); stroke-width: 3" />
	<polygon points="308.182444918814,-483.063378566004 320.346640513354,-520.500923090294 281.842678102735,-512.316653229619 " style="fill: rgb(61,81,50); fill-opacity: 1; stroke: rgb(0,0,0); stroke-width: 3" />
	<polygon points="292.615038554616,-409.824489858411 312.297120472368,-443.914855738709 308.182444918814,-483.063378566004 281.842678102735,-512.316653229619 243.338715692125,-520.500923090289 207.377762626289,-504.490075234341 187.695680708537,-470.399709354042 191.81035626209,-431.251186526748 218.15012307817,-401.997911863133 256.65408548878,-393.813642002462 " style="fill: rgb(186,59,38); fill-opacity: 1; stroke: rgb(0,0,0); stroke-width: 3" />
	<polygon points="312.297120472368,-443.914855738709 331.979202390142,-409.824489858411 367.940155455991,-393.813642002472 406.4441178666,-401.997911863158 432.783884682663,-431.251186526788 436.898560236193,-470.399709354092 417.216478318418,-504.49007523439 381.255525252569,-520.500923090329 342.751562841961,-512.316653229643 316.411796025897,-483.063378566013 " style="fill: rgb(186,59,38); fill-opacity: 1; stroke: rgb(0,0,0); stroke-width: 3" />
	<circle cx="292.615038554616" cy="-409.824489858411" r="2" style="fill: rgb(0,0,0)" />
	<circle cx="331.979202390142" cy="-409.824489858411" r="2" style="fill: rgb(0,0,0)" />
	<circle cx="312.297120472368" cy="-443.914855738709" r="2" style="fill: rgb(0,0,0)" />
	<circle cx="260.768761042315" cy="-386.686814887064" r="2" style="fill: rgb(0,0,0)" />
	<circle cx="248.604565447777" cy="-349.249270362776" r="2" style="fill: rgb(0,0,0)" />
	<circle cx="260.768761042315" cy="-311.811725838488" r="2" style="fill: rgb(0,0,0)" />
	<circle cx="292.615038554616" cy="-288.674050867141" r="2" style="fill: rgb(0,0,0)" />
	<circle cx="331.979202390142" cy="-288.674050867141" r="2" style="fill: rgb(0,0,0)" />
	<circle cx="363.825479902443" cy="-311.811725838488" r="2" style="fill: rgb(0,0,0)" />
	<circle cx="375.98967549698" cy="-349.249270362776" r="2" style="fill: rgb(0,0,0)" />
	<circle cx="363.825479902443" cy="-386.686814887064" r="2" style="fill: rgb(0,0,0)" />
	<circle cx="308.182444918814" cy="-483.063378566004" r="2" style="fill: rgb(0,0,0)" />
	<circle cx="281.842678102735" cy="-512.316653229619" r="2" style="fill: rgb(0,0,0)" />
	<circle cx="243.338715692125" cy="-520.500923090289" r="2" style="fill: rgb(0,0,0)" />
	<circle cx="207.377762626289" cy="-504.490075234341" r="2" style="fill: rgb(0,0,0)" />
	<circle cx="187.695680708537" cy="-470.399709354042" r="2" style="fill: rgb(0,0,0)" />
	<circle cx="191.81035626209" cy="-431.251186526748" r="2" style="fill: rgb(0,0,0)" />
	<circle cx="218.15012307817" cy="-401.997911863133" r="2" style="fill: rgb(0,0,0)" />
	<circle cx="256.65408548878" cy="-393.813642002462" r="2" style="fill: rgb(0,0,0)" />
	<circle cx="367.940155455991" cy="-393.813642002472" r="2" style="fill: rgb(0,0,0)" />
	<circle cx="406.4441178666" cy="-401.997911863158" r="2" style="fill: rgb(0,0,0)" />
	<circle cx="432.783884682663" cy="-431.251186526788" r="2" style="fill: rgb(0,0,0)" />
	<circle cx="436.898560236193" cy="-470.399709354092" r="2" style="fill: rgb(0,0,0)" />
	<circle cx="417.216478318418" cy="-504.49007523439" r="2" style="fill: rgb(0,0,0)" />
	<circle cx="381.255525252569" cy="-520.500923090329" r="2" style="fill: rgb(0,0,0)" />
	<circle cx="342.751562841961" cy="-512.316653229643" r="2" style="fill: rgb(0,0,0)" />
	<circle cx="316.411796025897" cy="-483.063378566013" r="2" style="fill: rgb(0,0,0)" />
	<circle cx="414.493637907599" cy="-341.0650005021" r="2" style="fill: rgb(0,0,0)" />
	<circle cx="402.329442313068" cy="-378.502545026381" r="2" style="fill: rgb(0,0,0)" />
	<circle cx="222.264798631693" cy="-378.502545026387" r="2" style="fill: rgb(0,0,0)" />
	<circle cx="210.100603037167" cy="-341.065000502106" r="2" style="fill: rgb(0,0,0)" />
	<circle cx="401.263024426735" cy="-299.647530243945" r="2" style="fill: rgb(0,0,0)" />
	<circle cx="413.427220021272" cy="-337.08507476823" r="2" style="fill: rgb(0,0,0)" />
	<circle cx="211.167020923485" cy="-337.085074768238" r="2" style="fill: rgb(0,0,0)" />
	<circle cx="223.331216518015" cy="-299.647530243958" r="2" style="fill: rgb(0,0,0)" />
	<circle cx="367.940155455989" cy="-272.663203011183" r="2" style="fill: rgb(0,0,0)" />
	<circle cx="399.786432968294" cy="-295.800877982512" r="2" style="fill: rgb(0,0,0)" />
	<circle cx="224.807807976465" cy="-295.800877982537" r="2" style="fill: rgb(0,0,0)" />
	<circle cx="256.654085488754" cy="-272.663203011196" r="2" style="fill: rgb(0,0,0)" />
	<circle cx="260.768761042315" cy="-265.536375895792" r="2" style="fill: rgb(0,0,0)" />
	<circle cx="248.604565447777" cy="-228.098831371504" r="2" style="fill: rgb(0,0,0)" />
	<circle cx="260.768761042315" cy="-190.661286847216" r="2" style="fill: rgb(0,0,0)" />
	<circle cx="292.615038554615" cy="-167.523611875869" r="2" style="fill: rgb(0,0,0)" />
	<circle cx="331.979202390142" cy="-167.523611875871" r="2" style="fill: rgb(0,0,0)" />
	<circle cx="363.825479902443" cy="-190.661286847219" r="2" style="fill: rgb(0,0,0)" />
	<circle cx="375.98967549698" cy="-228.098831371508" r="2" style="fill: rgb(0,0,0)" />
	<circle cx="363.825479902443" cy="-265.536375895795" r="2" style="fill: rgb(0,0,0)" />
	<circle cx="162.557081598471" cy="-404.91141971067" r="2" style="fill: rgb(0,0,0)" />
	<circle cx="188.896848414545" cy="-375.658145047055" r="2" style="fill: rgb(0,0,0)" />
	<circle cx="155.849403196241" cy="-447.262034382687" r="2" style="fill: rgb(0,0,0)" />
	<circle cx="159.964078749777" cy="-408.11351155539" r="2" style="fill: rgb(0,0,0)" />
	<circle cx="203.263087072735" cy="-543.638598061635" r="2" style="fill: rgb(0,0,0)" />
	<circle cx="176.923320256656" cy="-572.89187272525" r="2" style="fill: rgb(0,0,0)" />
	<circle cx="138.419357846045" cy="-581.07614258592" r="2" style="fill: rgb(0,0,0)" />
	<circle cx="102.45840478021" cy="-565.065294729972" r="2" style="fill: rgb(0,0,0)" />
	<circle cx="82.7763228624578" cy="-530.974928849673" r="2" style="fill: rgb(0,0,0)" />
	<circle cx="86.8909984160115" cy="-491.826406022378" r="2" style="fill: rgb(0,0,0)" />
	<circle cx="113.230765232091" cy="-462.573131358764" r="2" style="fill: rgb(0,0,0)" />
	<circle cx="151.734727642702" cy="-454.388861498093" r="2" style="fill: rgb(0,0,0)" />
	<circle cx="211.492438179812" cy="-543.638598061632" r="2" style="fill: rgb(0,0,0)" />
	<circle cx="317.803631168579" cy="-528.327501085567" r="2" style="fill: rgb(0,0,0)" />
	<circle cx="337.485713086345" cy="-562.417866965866" r="2" style="fill: rgb(0,0,0)" />
	<circle cx="333.371037532806" cy="-601.56638979316" r="2" style="fill: rgb(0,0,0)" />
	<circle cx="307.031270716735" cy="-630.819664456774" r="2" style="fill: rgb(0,0,0)" />
	<circle cx="268.527308306124" cy="-639.003934317445" r="2" style="fill: rgb(0,0,0)" />
	<circle cx="232.56635524028" cy="-622.993086461496" r="2" style="fill: rgb(0,0,0)" />
	<circle cx="212.884273322514" cy="-588.902720581197" r="2" style="fill: rgb(0,0,0)" />
	<circle cx="216.998948876054" cy="-549.754197753903" r="2" style="fill: rgb(0,0,0)" />
	<circle cx="320.346640513354" cy="-520.500923090294" r="2" style="fill: rgb(0,0,0)" />
	<circle cx="435.697392530232" cy="-375.658145047093" r="2" style="fill: rgb(0,0,0)" />
	<circle cx="462.037159346292" cy="-404.911419710717" r="2" style="fill: rgb(0,0,0)" />
	<circle cx="464.630162194978" cy="-408.11351155545" r="2" style="fill: rgb(0,0,0)" />
	<circle cx="468.744837748509" cy="-447.262034382742" r="2" style="fill: rgb(0,0,0)" />
	<circle cx="472.859513302042" cy="-454.388861498154" r="2" style="fill: rgb(0,0,0)" />
	<circle cx="511.36347571265" cy="-462.57313135884" r="2" style="fill: rgb(0,0,0)" />
	<circle cx="537.703242528714" cy="-491.82640602247" r="2" style="fill: rgb(0,0,0)" />
	<circle cx="541.817918082244" cy="-530.974928849774" r="2" style="fill: rgb(0,0,0)" />
	<circle cx="522.135836164468" cy="-565.065294730072" r="2" style="fill: rgb(0,0,0)" />
	<circle cx="486.174883098619" cy="-581.076142586011" r="2" style="fill: rgb(0,0,0)" />
	<circle cx="447.67092068801" cy="-572.891872725325" r="2" style="fill: rgb(0,0,0)" />
	<circle cx="421.331153871947" cy="-543.638598061694" r="2" style="fill: rgb(0,0,0)" />
	<circle cx="413.101802764854" cy="-543.638598061686" r="2" style="fill: rgb(0,0,0)" />
	<circle cx="433.109301939036" cy="-276.509855272596" r="2" style="fill: rgb(0,0,0)" />
	<circle cx="464.955579451339" cy="-299.647530243934" r="2" style="fill: rgb(0,0,0)" />
	<circle cx="452.7913838568" cy="-337.085074768221" r="2" style="fill: rgb(0,0,0)" />
	<circle cx="171.802857087957" cy="-337.085074768242" r="2" style="fill: rgb(0,0,0)" />
	<circle cx="159.638661493408" cy="-299.647530243968" r="2" style="fill: rgb(0,0,0)" />
	<circle cx="191.484939005705" cy="-276.509855272624" r="2" style="fill: rgb(0,0,0)" />
	<circle cx="391.077830427326" cy="-240.816925498865" r="2" style="fill: rgb(0,0,0)" />
	<circle cx="422.924107939626" cy="-263.95460047019" r="2" style="fill: rgb(0,0,0)" />
	<circle cx="201.670133005112" cy="-263.954600470234" r="2" style="fill: rgb(0,0,0)" />
	<circle cx="233.516410517396" cy="-240.816925498896" r="2" style="fill: rgb(0,0,0)" />
	<circle cx="210.10060303716" cy="-236.283101232174" r="2" style="fill: rgb(0,0,0)" />
	<circle cx="222.264798631689" cy="-198.845556707901" r="2" style="fill: rgb(0,0,0)" />
	<circle cx="312.29712047239" cy="-133.43324599557" r="2" style="fill: rgb(0,0,0)" />
	<circle cx="221.404597206788" cy="-190.661286847214" r="2" style="fill: rgb(0,0,0)" />
	<circle cx="189.558319694486" cy="-167.523611875866" r="2" style="fill: rgb(0,0,0)" />
	<circle cx="177.394124099948" cy="-130.086067351579" r="2" style="fill: rgb(0,0,0)" />
	<circle cx="189.558319694486" cy="-92.648522827293" r="2" style="fill: rgb(0,0,0)" />
	<circle cx="221.404597206786" cy="-69.5108478559478" r="2" style="fill: rgb(0,0,0)" />
	<circle cx="260.768761042313" cy="-69.5108478559496" r="2" style="fill: rgb(0,0,0)" />
	<circle cx="292.615038554615" cy="-92.6485228272976" r="2" style="fill: rgb(0,0,0)" />
	<circle cx="304.779234149153" cy="-130.086067351585" r="2" style="fill: rgb(0,0,0)" />
	<circle cx="319.815006795605" cy="-130.086067351581" r="2" style="fill: rgb(0,0,0)" />
	<circle cx="331.979202390145" cy="-92.6485228272934" r="2" style="fill: rgb(0,0,0)" />
	<circle cx="363.825479902447" cy="-69.5108478559479" r="2" style="fill: rgb(0,0,0)" />
	<circle cx="403.189643737974" cy="-69.5108478559504" r="2" style="fill: rgb(0,0,0)" />
	<circle cx="435.035921250275" cy="-92.6485228273002" r="2" style="fill: rgb(0,0,0)" />
	<circle cx="447.200116844811" cy="-130.08606735159" r="2" style="fill: rgb(0,0,0)" />
	<circle cx="435.035921250272" cy="-167.523611875877" r="2" style="fill: rgb(0,0,0)" />
	<circle cx="403.18964373797" cy="-190.661286847223" r="2" style="fill: rgb(0,0,0)" />
	<circle cx="402.329442313064" cy="-198.845556707894" r="2" style="fill: rgb(0,0,0)" />
	<circle cx="414.49363790759" cy="-236.28310123218" r="2" style="fill: rgb(0,0,0)" />
	<circle cx="116.700880368939" cy="-443.147358829154" r="2" style="fill: rgb(0,0,0)" />
	<circle cx="120.815555922472" cy="-403.998836001861" r="2" style="fill: rgb(0,0,0)" />
	<circle cx="158.101439763805" cy="-615.166508466222" r="2" style="fill: rgb(0,0,0)" />
	<circle cx="153.986764210264" cy="-654.31503129352" r="2" style="fill: rgb(0,0,0)" />
	<circle cx="127.646997394197" cy="-683.568305957138" r="2" style="fill: rgb(0,0,0)" />
	<circle cx="89.143034983595" cy="-691.75257581781" r="2" style="fill: rgb(0,0,0)" />
	<circle cx="53.182081917759" cy="-675.741727961862" r="2" style="fill: rgb(0,0,0)" />
	<circle cx="33.5" cy="-641.65136208156" r="2" style="fill: rgb(0,0,0)" />
	<circle cx="37.614675553541" cy="-602.502839254262" r="2" style="fill: rgb(0,0,0)" />
	<circle cx="63.9544423696077" cy="-573.249564590644" r="2" style="fill: rgb(0,0,0)" />
	<circle cx="63.0942409446696" cy="-565.065294729969" r="2" style="fill: rgb(0,0,0)" />
	<circle cx="74.726802821466" cy="-454.388861498093" r="2" style="fill: rgb(0,0,0)" />
	<circle cx="101.066569637541" cy="-425.13558683448" r="2" style="fill: rgb(0,0,0)" />
	<circle cx="164.75912466211" cy="-610.329417249534" r="2" style="fill: rgb(0,0,0)" />
	<circle cx="294.867075122196" cy="-668.257208981063" r="2" style="fill: rgb(0,0,0)" />
	<circle cx="503.77868502228" cy="-403.998836001917" r="2" style="fill: rgb(0,0,0)" />
	<circle cx="507.89336057581" cy="-443.147358829204" r="2" style="fill: rgb(0,0,0)" />
	<circle cx="561.5" cy="-565.065294730079" r="2" style="fill: rgb(0,0,0)" />
	<circle cx="523.527671307209" cy="-425.135586834555" r="2" style="fill: rgb(0,0,0)" />
	<circle cx="549.867438123266" cy="-454.388861498173" r="2" style="fill: rgb(0,0,0)" />
	<circle cx="456.246976910381" cy="-244.663577760284" r="2" style="fill: rgb(0,0,0)" />
	<circle cx="488.093254422679" cy="-267.801252731618" r="2" style="fill: rgb(0,0,0)" />
	<circle cx="136.500986522053" cy="-267.801252731663" r="2" style="fill: rgb(0,0,0)" />
	<circle cx="168.347264034341" cy="-244.66357776032" r="2" style="fill: rgb(0,0,0)" />
	<circle cx="296.729714108158" cy="-53.5" r="2" style="fill: rgb(0,0,0)" />
	<!--
	Generated using the Perl SVG Module V2.84
	by Ronan Oger
	Info: http://www.roitsystems.com/
	-->
</svg>