<?xml version="1.0" encoding="UTF-8" standalone="yes"?>
<!DOCTYPE svg PUBLIC "-//W3C//DTD SVG 1.0//EN" "http://www.w3.org/TR/2001/REC-SVG-20010904/DTD/svg10.dtd">
<!-- generated using polymake; Michael Joswig, Georg Loho, Benjamin Lorenz, Rico Raber; license CC BY-NC-SA 3.0; see polymake.org and matchthenet.de -->
<svg height="841pt" id="document" viewBox="0 -811 430.382735485686 811" width="595pt" xmlns="http://www.w3.org/2000/svg" xmlns:svg="http://www.w3.org/2000/svg" xmlns:xlink="http://www.w3.org/1999/xlink">
	<title id="document_title">planar_net_</title>
	<polygon points="174.925896771471,-374.246748371723 278.456838714184,-374.246748371723 278.456838714187,-477.777690314439 174.92589677148,-477.777690314444 " style="fill: rgb(67,184,206); fill-opacity: 1; stroke: rgb(0,0,0); stroke-width: 3" />
	<polygon points="226.69136774284,-284.586322571602 278.456838714184,-374.246748371723 174.925896771471,-374.246748371723 " style="fill: rgb(14,173,105); fill-opacity: 1; stroke: rgb(0,0,0); stroke-width: 3" />
	<polygon points="264.586322571607,-143.160425800122 174.925896771491,-194.92589677147 123.160425800133,-105.265470971343 212.820851600233,-53.5 " style="fill: rgb(67,184,206); fill-opacity: 1; stroke: rgb(0,0,0); stroke-width: 3" />
	<polygon points="174.92589677149,-581.308632257166 174.925896771503,-684.839574199887 85.2654709713752,-633.074103228544 " style="fill: rgb(14,173,105); fill-opacity: 1; stroke: rgb(0,0,0); stroke-width: 3" />
	<polygon points="368.117264514314,-322.481277400367 278.456838714184,-374.246748371723 226.69136774284,-284.586322571602 316.351793542969,-232.820851600252 " style="fill: rgb(67,184,206); fill-opacity: 1; stroke: rgb(0,0,0); stroke-width: 3" />
	<polygon points="174.92589677149,-581.308632257166 278.456838714192,-581.308632257159 278.456838714197,-684.839574199877 174.925896771503,-684.839574199887 " style="fill: rgb(67,184,206); fill-opacity: 1; stroke: rgb(0,0,0); stroke-width: 3" />
	<polygon points="174.925896771503,-684.839574199887 278.456838714197,-684.839574199877 226.691367742828,-774.5 " style="fill: rgb(14,173,105); fill-opacity: 1; stroke: rgb(0,0,0); stroke-width: 3" />
	<polygon points="368.117264514314,-322.481277400367 316.351793542969,-232.820851600252 419.882735485686,-232.820851600253 " style="fill: rgb(14,173,105); fill-opacity: 1; stroke: rgb(0,0,0); stroke-width: 3" />
	<polygon points="330.222309685558,-567.438116114559 419.882735485675,-515.672645143197 419.882735485683,-619.20358708591 " style="fill: rgb(14,173,105); fill-opacity: 1; stroke: rgb(0,0,0); stroke-width: 3" />
	<polygon points="316.351793542969,-232.820851600252 316.35179354297,-129.289909657535 419.882735485682,-129.289909657531 419.882735485686,-232.820851600253 " style="fill: rgb(67,184,206); fill-opacity: 1; stroke: rgb(0,0,0); stroke-width: 3" />
	<polygon points="278.456838714187,-477.777690314439 368.117264514307,-426.012219343076 419.882735485675,-515.672645143197 330.222309685558,-567.438116114559 " style="fill: rgb(67,184,206); fill-opacity: 1; stroke: rgb(0,0,0); stroke-width: 3" />
	<polygon points="278.456838714187,-477.777690314439 278.456838714184,-374.246748371723 368.117264514307,-426.012219343076 " style="fill: rgb(14,173,105); fill-opacity: 1; stroke: rgb(0,0,0); stroke-width: 3" />
	<polygon points="316.351793542969,-232.820851600252 226.69136774284,-284.586322571602 174.925896771491,-194.92589677147 264.586322571607,-143.160425800122 " style="fill: rgb(67,184,206); fill-opacity: 1; stroke: rgb(0,0,0); stroke-width: 3" />
	<polygon points="174.92589677148,-477.777690314444 278.456838714187,-477.777690314439 278.456838714192,-581.308632257159 174.92589677149,-581.308632257166 " style="fill: rgb(67,184,206); fill-opacity: 1; stroke: rgb(0,0,0); stroke-width: 3" />
	<polygon points="85.2654709713519,-322.481277400357 33.5,-232.820851600233 137.030941942713,-232.820851600239 " style="fill: rgb(14,173,105); fill-opacity: 1; stroke: rgb(0,0,0); stroke-width: 3" />
	<polygon points="174.925896771471,-374.246748371723 174.92589677148,-477.777690314444 85.2654709713492,-426.012219343098 " style="fill: rgb(14,173,105); fill-opacity: 1; stroke: rgb(0,0,0); stroke-width: 3" />
	<polygon points="174.92589677148,-477.777690314444 174.92589677149,-581.308632257166 71.3949548287725,-581.308632257182 71.394954828752,-477.777690314464 " style="fill: rgb(67,184,206); fill-opacity: 1; stroke: rgb(0,0,0); stroke-width: 3" />
	<polygon points="174.925896771471,-374.246748371723 85.2654709713519,-322.481277400357 137.030941942713,-232.820851600239 226.69136774284,-284.586322571602 " style="fill: rgb(67,184,206); fill-opacity: 1; stroke: rgb(0,0,0); stroke-width: 3" />
	<circle cx="174.925896771471" cy="-374.246748371723" r="2" style="fill: rgb(0,0,0)" />
	<circle cx="278.456838714184" cy="-374.246748371723" r="2" style="fill: rgb(0,0,0)" />
	<circle cx="278.456838714187" cy="-477.777690314439" r="2" style="fill: rgb(0,0,0)" />
	<circle cx="174.92589677148" cy="-477.777690314444" r="2" style="fill: rgb(0,0,0)" />
	<circle cx="226.69136774284" cy="-284.586322571602" r="2" style="fill: rgb(0,0,0)" />
	<circle cx="368.117264514307" cy="-426.012219343076" r="2" style="fill: rgb(0,0,0)" />
	<circle cx="278.456838714192" cy="-581.308632257159" r="2" style="fill: rgb(0,0,0)" />
	<circle cx="174.92589677149" cy="-581.308632257166" r="2" style="fill: rgb(0,0,0)" />
	<circle cx="85.2654709713492" cy="-426.012219343098" r="2" style="fill: rgb(0,0,0)" />
	<circle cx="316.351793542969" cy="-232.820851600252" r="2" style="fill: rgb(0,0,0)" />
	<circle cx="368.117264514314" cy="-322.481277400367" r="2" style="fill: rgb(0,0,0)" />
	<circle cx="85.2654709713519" cy="-322.481277400357" r="2" style="fill: rgb(0,0,0)" />
	<circle cx="137.030941942713" cy="-232.820851600239" r="2" style="fill: rgb(0,0,0)" />
	<circle cx="419.882735485675" cy="-515.672645143197" r="2" style="fill: rgb(0,0,0)" />
	<circle cx="330.222309685558" cy="-567.438116114559" r="2" style="fill: rgb(0,0,0)" />
	<circle cx="278.456838714197" cy="-684.839574199877" r="2" style="fill: rgb(0,0,0)" />
	<circle cx="174.925896771503" cy="-684.839574199887" r="2" style="fill: rgb(0,0,0)" />
	<circle cx="71.3949548287725" cy="-581.308632257182" r="2" style="fill: rgb(0,0,0)" />
	<circle cx="71.394954828752" cy="-477.777690314464" r="2" style="fill: rgb(0,0,0)" />
	<circle cx="419.882735485686" cy="-232.820851600253" r="2" style="fill: rgb(0,0,0)" />
	<circle cx="174.925896771491" cy="-194.92589677147" r="2" style="fill: rgb(0,0,0)" />
	<circle cx="264.586322571607" cy="-143.160425800122" r="2" style="fill: rgb(0,0,0)" />
	<circle cx="33.5" cy="-232.820851600233" r="2" style="fill: rgb(0,0,0)" />
	<circle cx="419.882735485683" cy="-619.20358708591" r="2" style="fill: rgb(0,0,0)" />
	<circle cx="85.2654709713752" cy="-633.074103228544" r="2" style="fill: rgb(0,0,0)" />
	<circle cx="226.691367742828" cy="-774.5" r="2" style="fill: rgb(0,0,0)" />
	<circle cx="316.35179354297" cy="-129.289909657535" r="2" style="fill: rgb(0,0,0)" />
	<circle cx="419.882735485682" cy="-129.289909657531" r="2" style="fill: rgb(0,0,0)" />
	<circle cx="123.160425800133" cy="-105.265470971343" r="2" style="fill: rgb(0,0,0)" />
	<circle cx="212.820851600233" cy="-53.5" r="2" style="fill: rgb(0,0,0)" />
	<!-- 
	Generated using the Perl SVG Module V2.64
	by Ronan Oger
	Info: http://www.roitsystems.com/
 -->
</svg>