<?xml version="1.0" encoding="UTF-8" standalone="yes"?>
<!DOCTYPE svg PUBLIC "-//W3C//DTD SVG 1.0//EN" "http://www.w3.org/TR/2001/REC-SVG-20010904/DTD/svg10.dtd">
<!-- generated using polymake; Michael Joswig, Georg Loho, Benjamin Lorenz, Rico Raber; license CC BY-NC-SA 3.0; see polymake.org and matchthenet.de -->
<svg height="841pt" id="document" viewBox="0 -708.561181387754 572 708.561181387754" width="595pt" xmlns="http://www.w3.org/2000/svg" xmlns:svg="http://www.w3.org/2000/svg" xmlns:xlink="http://www.w3.org/1999/xlink">
	<title id="document_title">planar_net_</title>
	<polygon points="331.133526833841,-228.520265211994 410.798438882101,-228.520265211994 435.416250560403,-304.286098935574 370.965982857986,-351.111959362727 306.515715155556,-304.286098935581 " style="fill: rgb(14,173,105); fill-opacity: 1; stroke: rgb(0,0,0); stroke-width: 3" />
	<polygon points="370.965982857968,-159.528427587942 410.798438882101,-228.520265211994 331.133526833841,-228.520265211994 " style="fill: rgb(14,173,105); fill-opacity: 1; stroke: rgb(0,0,0); stroke-width: 3" />
	<polygon points="137.782723726562,-426.877793086298 162.400535404861,-502.643626809878 97.9502677024305,-549.469487237027 33.5,-502.643626809886 58.1178116782994,-426.877793086304 " style="fill: rgb(14,173,105); fill-opacity: 1; stroke: rgb(0,0,0); stroke-width: 3" />
	<polygon points="497.049732297539,-132.728499324574 424.272213762348,-100.325860427158 488.722481464773,-53.5 " style="fill: rgb(14,173,105); fill-opacity: 1; stroke: rgb(0,0,0); stroke-width: 3" />
	<polygon points="488.722481464781,-211.956998649162 497.049732297539,-132.728499324574 561.499999999966,-179.554359751729 " style="fill: rgb(14,173,105); fill-opacity: 1; stroke: rgb(0,0,0); stroke-width: 3" />
	<polygon points="306.515715155555,-549.469487237027 370.965982857986,-502.643626809884 379.29323369073,-581.872126134475 " style="fill: rgb(14,173,105); fill-opacity: 1; stroke: rgb(0,0,0); stroke-width: 3" />
	<polygon points="226.850803107291,-549.469487237025 306.515715155555,-549.469487237027 331.133526833853,-625.23532096061 266.683259131426,-672.061181387754 202.232991428997,-625.235320960605 " style="fill: rgb(14,173,105); fill-opacity: 1; stroke: rgb(0,0,0); stroke-width: 3" />
	<polygon points="162.400535404861,-502.643626809878 226.850803107291,-549.469487237025 154.073284572096,-581.872126134456 " style="fill: rgb(14,173,105); fill-opacity: 1; stroke: rgb(0,0,0); stroke-width: 3" />
	<polygon points="435.416250560403,-304.286098935574 508.193769095589,-271.883460038118 561.5,-331.086027198864 521.667543975881,-400.077864822919 443.743501393179,-383.514598260159 " style="fill: rgb(14,173,105); fill-opacity: 1; stroke: rgb(0,0,0); stroke-width: 3" />
	<polygon points="370.965982857986,-351.111959362727 435.416250560403,-304.286098935574 443.743501393179,-383.514598260159 " style="fill: rgb(14,173,105); fill-opacity: 1; stroke: rgb(0,0,0); stroke-width: 3" />
	<polygon points="435.416250560403,-304.286098935574 410.798438882101,-228.520265211994 488.722481464781,-245.083531774794 " style="fill: rgb(14,173,105); fill-opacity: 1; stroke: rgb(0,0,0); stroke-width: 3" />
	<polygon points="424.272213762348,-100.325860427158 370.965982857968,-159.528427587942 346.348171179675,-83.7625938643566 " style="fill: rgb(14,173,105); fill-opacity: 1; stroke: rgb(0,0,0); stroke-width: 3" />
	<polygon points="488.722481464781,-211.956998649162 410.798438882101,-228.520265211994 370.965982857968,-159.528427587942 424.272213762348,-100.325860427158 497.049732297539,-132.728499324574 " style="fill: rgb(14,173,105); fill-opacity: 1; stroke: rgb(0,0,0); stroke-width: 3" />
	<polygon points="162.400535404861,-351.11195936272 137.782723726562,-426.877793086298 84.4764928221889,-367.67522592551 " style="fill: rgb(14,173,105); fill-opacity: 1; stroke: rgb(0,0,0); stroke-width: 3" />
	<polygon points="331.133526833841,-228.520265211994 306.515715155556,-304.286098935581 253.209484251167,-245.083531774815 " style="fill: rgb(14,173,105); fill-opacity: 1; stroke: rgb(0,0,0); stroke-width: 3" />
	<polygon points="306.515715155556,-304.286098935581 370.965982857986,-351.111959362727 395.583794536285,-426.877793086306 370.965982857986,-502.643626809884 306.515715155555,-549.469487237027 226.850803107291,-549.469487237025 162.400535404861,-502.643626809878 137.782723726562,-426.877793086298 162.400535404861,-351.11195936272 226.850803107292,-304.286098935578 " style="fill: rgb(14,173,105); fill-opacity: 1; stroke: rgb(0,0,0); stroke-width: 3" />
	<polygon points="253.209484251159,-211.956998649199 244.882233418373,-132.728499324627 317.659751953558,-100.325860427183 370.965982857968,-159.528427587942 331.133526833841,-228.520265211994 " style="fill: rgb(14,173,105); fill-opacity: 1; stroke: rgb(0,0,0); stroke-width: 3" />
	<circle cx="331.133526833841" cy="-228.520265211994" r="2" style="fill: rgb(0,0,0)" />
	<circle cx="410.798438882101" cy="-228.520265211994" r="2" style="fill: rgb(0,0,0)" />
	<circle cx="435.416250560403" cy="-304.286098935574" r="2" style="fill: rgb(0,0,0)" />
	<circle cx="370.965982857986" cy="-351.111959362727" r="2" style="fill: rgb(0,0,0)" />
	<circle cx="306.515715155556" cy="-304.286098935581" r="2" style="fill: rgb(0,0,0)" />
	<circle cx="370.965982857968" cy="-159.528427587942" r="2" style="fill: rgb(0,0,0)" />
	<circle cx="443.743501393179" cy="-383.514598260159" r="2" style="fill: rgb(0,0,0)" />
	<circle cx="488.722481464781" cy="-245.083531774794" r="2" style="fill: rgb(0,0,0)" />
	<circle cx="253.209484251167" cy="-245.083531774815" r="2" style="fill: rgb(0,0,0)" />
	<circle cx="395.583794536285" cy="-426.877793086306" r="2" style="fill: rgb(0,0,0)" />
	<circle cx="370.965982857986" cy="-502.643626809884" r="2" style="fill: rgb(0,0,0)" />
	<circle cx="306.515715155555" cy="-549.469487237027" r="2" style="fill: rgb(0,0,0)" />
	<circle cx="226.850803107291" cy="-549.469487237025" r="2" style="fill: rgb(0,0,0)" />
	<circle cx="162.400535404861" cy="-502.643626809878" r="2" style="fill: rgb(0,0,0)" />
	<circle cx="137.782723726562" cy="-426.877793086298" r="2" style="fill: rgb(0,0,0)" />
	<circle cx="162.400535404861" cy="-351.11195936272" r="2" style="fill: rgb(0,0,0)" />
	<circle cx="226.850803107292" cy="-304.286098935578" r="2" style="fill: rgb(0,0,0)" />
	<circle cx="424.272213762348" cy="-100.325860427158" r="2" style="fill: rgb(0,0,0)" />
	<circle cx="497.049732297539" cy="-132.728499324574" r="2" style="fill: rgb(0,0,0)" />
	<circle cx="488.722481464781" cy="-211.956998649162" r="2" style="fill: rgb(0,0,0)" />
	<circle cx="253.209484251159" cy="-211.956998649199" r="2" style="fill: rgb(0,0,0)" />
	<circle cx="244.882233418373" cy="-132.728499324627" r="2" style="fill: rgb(0,0,0)" />
	<circle cx="317.659751953558" cy="-100.325860427183" r="2" style="fill: rgb(0,0,0)" />
	<circle cx="508.193769095589" cy="-271.883460038118" r="2" style="fill: rgb(0,0,0)" />
	<circle cx="561.5" cy="-331.086027198864" r="2" style="fill: rgb(0,0,0)" />
	<circle cx="521.667543975881" cy="-400.077864822919" r="2" style="fill: rgb(0,0,0)" />
	<circle cx="97.9502677024305" cy="-549.469487237027" r="2" style="fill: rgb(0,0,0)" />
	<circle cx="33.5" cy="-502.643626809886" r="2" style="fill: rgb(0,0,0)" />
	<circle cx="58.1178116782994" cy="-426.877793086304" r="2" style="fill: rgb(0,0,0)" />
	<circle cx="379.29323369073" cy="-581.872126134475" r="2" style="fill: rgb(0,0,0)" />
	<circle cx="331.133526833853" cy="-625.23532096061" r="2" style="fill: rgb(0,0,0)" />
	<circle cx="266.683259131426" cy="-672.061181387754" r="2" style="fill: rgb(0,0,0)" />
	<circle cx="202.232991428997" cy="-625.235320960605" r="2" style="fill: rgb(0,0,0)" />
	<circle cx="154.073284572096" cy="-581.872126134456" r="2" style="fill: rgb(0,0,0)" />
	<circle cx="84.4764928221889" cy="-367.67522592551" r="2" style="fill: rgb(0,0,0)" />
	<circle cx="488.722481464773" cy="-53.5" r="2" style="fill: rgb(0,0,0)" />
	<circle cx="561.499999999966" cy="-179.554359751729" r="2" style="fill: rgb(0,0,0)" />
	<circle cx="346.348171179675" cy="-83.7625938643566" r="2" style="fill: rgb(0,0,0)" />
	<!-- 
	Generated using the Perl SVG Module V2.64
	by Ronan Oger
	Info: http://www.roitsystems.com/
 -->
</svg>