<?xml version="1.0" encoding="UTF-8" standalone="yes"?>
<!DOCTYPE svg PUBLIC "-//W3C//DTD SVG 1.0//EN" "http://www.w3.org/TR/2001/REC-SVG-20010904/DTD/svg10.dtd">
<!-- generated using polymake; Michael Joswig, Georg Loho, Benjamin Lorenz, Rico Raber; license CC BY-NC-ND 3.0; see polymake.org and matchthenet.de -->
<svg height="841pt" id="document" viewBox="0 -762.715088585791 572 762.715088585791" width="595pt" xmlns="http://www.w3.org/2000/svg" xmlns:svg="http://www.w3.org/2000/svg" xmlns:xlink="http://www.w3.org/1999/xlink">
	<title id="document_title">planar_net_</title>
	<polygon points="295.561928062138,-390.083917976568 334.494673789497,-390.083917976568 315.028300925818,-423.80066481554 " style="fill: rgb(14,173,105); fill-opacity: 1; stroke: rgb(0,0,0); stroke-width: 3" />
	<polygon points="365.991926720608,-367.199824206774 334.494673789497,-390.083917976568 295.561928062138,-390.083917976568 264.064675131027,-367.199824206774 252.033795063595,-330.172582685508 264.064675131027,-293.145341164241 295.561928062138,-270.261247394448 334.494673789496,-270.261247394448 365.991926720607,-293.145341164242 378.02280678804,-330.172582685508 " style="fill: rgb(14,173,105); fill-opacity: 1; stroke: rgb(0,0,0); stroke-width: 3" />
	<polygon points="404.073898543803,-359.105251214421 365.991926720608,-367.199824206774 378.02280678804,-330.172582685508 " style="fill: rgb(14,173,105); fill-opacity: 1; stroke: rgb(0,0,0); stroke-width: 3" />
	<polygon points="264.064675131027,-367.199824206774 225.982703307832,-359.105251214421 252.033795063595,-330.172582685508 " style="fill: rgb(14,173,105); fill-opacity: 1; stroke: rgb(0,0,0); stroke-width: 3" />
	<polygon points="434.194570381237,-411.275785194965 408.143478625474,-382.343116666051 446.225450448677,-374.248543673706 " style="fill: rgb(14,173,105); fill-opacity: 1; stroke: rgb(0,0,0); stroke-width: 3" />
	<polygon points="434.194570381237,-411.275785194965 446.225450448677,-374.248543673706 483.252691969947,-386.279423741145 471.221811902518,-423.306665262396 " style="fill: rgb(14,173,105); fill-opacity: 1; stroke: rgb(0,0,0); stroke-width: 3" />
	<polygon points="220.536542132483,-353.056676455301 181.603796405125,-353.056676455302 150.106543474013,-330.172582685508 138.075663406581,-293.145341164242 150.106543474013,-256.118099642976 181.603796405125,-233.234005873182 220.536542132483,-233.234005873182 252.033795063595,-256.118099642976 264.064675131027,-293.145341164241 252.033795063595,-330.172582685508 " style="fill: rgb(14,173,105); fill-opacity: 1; stroke: rgb(0,0,0); stroke-width: 3" />
	<polygon points="378.02280678804,-330.172582685508 365.991926720607,-293.145341164242 404.073898543806,-301.239914156605 " style="fill: rgb(14,173,105); fill-opacity: 1; stroke: rgb(0,0,0); stroke-width: 3" />
	<polygon points="404.073898543803,-359.105251214421 378.02280678804,-330.172582685508 406.955475316955,-304.121490929741 433.006567072716,-333.054159458647 " style="fill: rgb(14,173,105); fill-opacity: 1; stroke: rgb(0,0,0); stroke-width: 3" />
	<polygon points="168.908357618933,-481.492506198744 156.877477551504,-518.519747720013 117.944731824153,-518.519747720025 105.913851756722,-481.492506198762 137.411104687825,-458.608412428957 " style="fill: rgb(14,173,105); fill-opacity: 1; stroke: rgb(0,0,0); stroke-width: 3" />
	<polygon points="365.991926720607,-293.145341164242 334.494673789496,-270.261247394448 370.061506802279,-254.425873091578 " style="fill: rgb(14,173,105); fill-opacity: 1; stroke: rgb(0,0,0); stroke-width: 3" />
	<polygon points="295.561928062138,-270.261247394448 264.064675131027,-293.145341164241 259.995095049356,-254.425873091577 " style="fill: rgb(14,173,105); fill-opacity: 1; stroke: rgb(0,0,0); stroke-width: 3" />
	<polygon points="291.204564167896,-650.468378991862 287.134984086224,-689.187847064526 261.083892330461,-718.120515593439 223.001920507265,-726.215088585791 187.435087494483,-710.37971428292 167.968714630805,-676.662967443946 172.038294712477,-637.943499371282 198.08938646824,-609.010830842369 236.171358291435,-600.916257850018 271.738191304218,-616.751632152889 " style="fill: rgb(14,173,105); fill-opacity: 1; stroke: rgb(0,0,0); stroke-width: 3" />
	<polygon points="198.08938646824,-609.010830842369 172.038294712477,-637.943499371282 160.007414645052,-600.916257850009 " style="fill: rgb(14,173,105); fill-opacity: 1; stroke: rgb(0,0,0); stroke-width: 3" />
	<polygon points="216.704985427756,-567.199511011046 197.238612564077,-600.91625785002 163.521865725099,-581.449884986346 182.988238588774,-547.733138147369 " style="fill: rgb(14,173,105); fill-opacity: 1; stroke: rgb(0,0,0); stroke-width: 3" />
	<polygon points="404.924672447965,-173.322670582125 436.421925379077,-150.438576812332 440.491505460738,-189.158044885001 " style="fill: rgb(14,173,105); fill-opacity: 1; stroke: rgb(0,0,0); stroke-width: 3" />
	<polygon points="378.022806788039,-210.349912103388 404.073898543802,-181.417243574473 433.006567072721,-207.468335330231 406.955475316963,-236.401003859151 " style="fill: rgb(14,173,105); fill-opacity: 1; stroke: rgb(0,0,0); stroke-width: 3" />
	<polygon points="41.5945729923462,-225.139432880827 67.6456647481102,-196.206764351914 79.6765448155425,-233.234005873181 " style="fill: rgb(14,173,105); fill-opacity: 1; stroke: rgb(0,0,0); stroke-width: 3" />
	<polygon points="220.536542132483,-233.234005873182 181.603796405125,-233.234005873182 201.070169268803,-199.517259034209 " style="fill: rgb(14,173,105); fill-opacity: 1; stroke: rgb(0,0,0); stroke-width: 3" />
	<polygon points="334.494673789495,-150.438576812327 295.561928062137,-150.438576812326 315.028300925817,-116.721829973353 " style="fill: rgb(14,173,105); fill-opacity: 1; stroke: rgb(0,0,0); stroke-width: 3" />
	<polygon points="75.6069647338705,-120.460054757983 111.173797746655,-136.295429060854 79.6765448155426,-159.179522830648 " style="fill: rgb(14,173,105); fill-opacity: 1; stroke: rgb(0,0,0); stroke-width: 3" />
	<polygon points="181.603796405125,-233.234005873182 150.106543474013,-256.118099642976 111.173797746654,-256.118099642976 79.6765448155425,-233.234005873181 67.6456647481102,-196.206764351914 79.6765448155426,-159.179522830648 111.173797746655,-136.295429060854 150.106543474014,-136.295429060855 181.603796405126,-159.17952283065 193.634676472558,-196.206764351917 " style="fill: rgb(14,173,105); fill-opacity: 1; stroke: rgb(0,0,0); stroke-width: 3" />
	<polygon points="522.56725427264,-543.62333539766 542.03362713632,-509.906588558688 561.5,-543.623335397662 " style="fill: rgb(14,173,105); fill-opacity: 1; stroke: rgb(0,0,0); stroke-width: 3" />
	<polygon points="436.421925379079,-76.3840937697979 448.452805446511,-113.411335291066 436.421925379077,-150.438576812332 404.924672447965,-173.322670582125 365.991926720607,-173.322670582122 334.494673789495,-150.438576812327 322.463793722064,-113.41133529106 334.494673789497,-76.3840937697932 365.99192672061,-53.5 404.924672447968,-53.5000000000022 " style="fill: rgb(14,173,105); fill-opacity: 1; stroke: rgb(0,0,0); stroke-width: 3" />
	<polygon points="378.022806788039,-210.349912103388 365.991926720607,-173.322670582122 404.073898543802,-181.417243574473 " style="fill: rgb(14,173,105); fill-opacity: 1; stroke: rgb(0,0,0); stroke-width: 3" />
	<polygon points="79.6765448155425,-233.234005873181 111.173797746654,-256.118099642976 75.6069647338614,-271.953473945837 " style="fill: rgb(14,173,105); fill-opacity: 1; stroke: rgb(0,0,0); stroke-width: 3" />
	<polygon points="41.5945729923462,-225.139432880827 79.6765448155425,-233.234005873181 71.5819718231852,-271.315977696375 33.5,-263.221404704032 " style="fill: rgb(14,173,105); fill-opacity: 1; stroke: rgb(0,0,0); stroke-width: 3" />
	<polygon points="150.106543474013,-256.118099642976 138.075663406581,-293.145341164242 112.024571650817,-264.212672635328 " style="fill: rgb(14,173,105); fill-opacity: 1; stroke: rgb(0,0,0); stroke-width: 3" />
	<polygon points="537.964047054649,-471.187120486025 511.912955298886,-442.254451957112 549.994927122082,-434.159878964759 " style="fill: rgb(14,173,105); fill-opacity: 1; stroke: rgb(0,0,0); stroke-width: 3" />
	<polygon points="334.494673789496,-270.261247394448 295.561928062138,-270.261247394448 264.064675131027,-247.377153624653 252.033795063594,-210.349912103387 264.064675131026,-173.32267058212 295.561928062137,-150.438576812326 334.494673789495,-150.438576812327 365.991926720607,-173.322670582122 378.022806788039,-210.349912103388 365.991926720607,-247.377153624655 " style="fill: rgb(14,173,105); fill-opacity: 1; stroke: rgb(0,0,0); stroke-width: 3" />
	<polygon points="365.991926720607,-247.377153624655 378.022806788039,-210.349912103388 404.073898543799,-239.282580632311 " style="fill: rgb(14,173,105); fill-opacity: 1; stroke: rgb(0,0,0); stroke-width: 3" />
	<polygon points="365.991926720607,-293.145341164242 374.08649971297,-255.063369341044 412.168471536162,-263.157942333402 404.073898543806,-301.239914156605 " style="fill: rgb(14,173,105); fill-opacity: 1; stroke: rgb(0,0,0); stroke-width: 3" />
	<polygon points="138.075663406581,-293.145341164242 150.106543474013,-330.172582685508 112.024571650814,-322.078009693144 " style="fill: rgb(14,173,105); fill-opacity: 1; stroke: rgb(0,0,0); stroke-width: 3" />
	<polygon points="138.075663406581,-293.145341164242 109.142994877664,-319.196432920005 83.0919031219047,-290.263764391102 112.024571650817,-264.212672635328 " style="fill: rgb(14,173,105); fill-opacity: 1; stroke: rgb(0,0,0); stroke-width: 3" />
	<polygon points="216.704985427756,-567.199511011046 236.171358291435,-600.916257850018 197.238612564077,-600.91625785002 " style="fill: rgb(14,173,105); fill-opacity: 1; stroke: rgb(0,0,0); stroke-width: 3" />
	<polygon points="309.820163127412,-608.657059160536 297.78928305998,-645.684300681804 271.738191304218,-616.751632152889 " style="fill: rgb(14,173,105); fill-opacity: 1; stroke: rgb(0,0,0); stroke-width: 3" />
	<polygon points="511.912955298886,-442.254451957112 473.830983475691,-434.159878964759 499.882075231465,-405.227210435848 " style="fill: rgb(14,173,105); fill-opacity: 1; stroke: rgb(0,0,0); stroke-width: 3" />
	<polygon points="511.912955298886,-442.254451957112 503.818382306536,-404.172480133916 541.900354129719,-396.077907141558 549.994927122082,-434.159878964759 " style="fill: rgb(14,173,105); fill-opacity: 1; stroke: rgb(0,0,0); stroke-width: 3" />
	<polygon points="433.006567072716,-333.054159458647 406.955475316955,-304.121490929741 426.421848180632,-270.404744090765 464.503820003822,-278.499317083105 468.573400085493,-317.218785155765 " style="fill: rgb(14,173,105); fill-opacity: 1; stroke: rgb(0,0,0); stroke-width: 3" />
	<polygon points="195.862031470399,-411.275785194965 191.792451388728,-449.995253267628 160.295198457616,-427.111159497835 " style="fill: rgb(14,173,105); fill-opacity: 1; stroke: rgb(0,0,0); stroke-width: 3" />
	<polygon points="220.774565509427,-528.480042938383 216.704985427756,-567.199511011046 185.207732496646,-544.315417241242 " style="fill: rgb(14,173,105); fill-opacity: 1; stroke: rgb(0,0,0); stroke-width: 3" />
	<polygon points="211.258824252407,-483.7120001066 211.258824252407,-522.644745833963 172.32607852505,-522.644745833959 172.326078525043,-483.712000106592 " style="fill: rgb(14,173,105); fill-opacity: 1; stroke: rgb(0,0,0); stroke-width: 3" />
	<polygon points="438.264150462908,-449.995253267628 434.194570381237,-411.275785194965 469.76140339402,-427.111159497834 " style="fill: rgb(14,173,105); fill-opacity: 1; stroke: rgb(0,0,0); stroke-width: 3" />
	<polygon points="191.792451388728,-449.995253267628 211.258824252407,-483.7120001066 172.326078525043,-483.712000106592 " style="fill: rgb(14,173,105); fill-opacity: 1; stroke: rgb(0,0,0); stroke-width: 3" />
	<polygon points="191.792451388728,-449.995253267628 168.908357618933,-481.492506198744 137.411104687825,-458.608412428957 160.295198457616,-427.111159497835 " style="fill: rgb(14,173,105); fill-opacity: 1; stroke: rgb(0,0,0); stroke-width: 3" />
	<polygon points="418.797777599229,-483.7120001066 438.264150462908,-449.995253267628 473.830983475691,-434.159878964759 511.912955298886,-442.254451957112 537.964047054649,-471.187120486025 542.03362713632,-509.906588558688 522.56725427264,-543.62333539766 487.000421259857,-559.458709700529 448.918449436662,-551.364136708176 422.867357680899,-522.431468179263 " style="fill: rgb(14,173,105); fill-opacity: 1; stroke: rgb(0,0,0); stroke-width: 3" />
	<polygon points="211.258824252407,-483.7120001066 246.82565726519,-499.54737440947 215.328404334078,-522.431468179265 " style="fill: rgb(14,173,105); fill-opacity: 1; stroke: rgb(0,0,0); stroke-width: 3" />
	<polygon points="383.230944586446,-499.54737440947 418.797777599229,-483.7120001066 414.728197517558,-522.431468179264 " style="fill: rgb(14,173,105); fill-opacity: 1; stroke: rgb(0,0,0); stroke-width: 3" />
	<polygon points="320.474462101167,-507.288175719987 339.940834964846,-541.00492255896 335.871254883175,-579.724390631623 309.820163127412,-608.657059160536 271.738191304218,-616.751632152889 236.171358291435,-600.916257850018 216.704985427756,-567.199511011046 220.774565509427,-528.480042938383 246.82565726519,-499.54737440947 284.907629088384,-491.452801417117 " style="fill: rgb(14,173,105); fill-opacity: 1; stroke: rgb(0,0,0); stroke-width: 3" />
	<polygon points="310.958720844147,-462.520132888204 322.989600911579,-499.547374409471 284.907629088384,-491.452801417117 " style="fill: rgb(14,173,105); fill-opacity: 1; stroke: rgb(0,0,0); stroke-width: 3" />
	<polygon points="295.561928062138,-390.083917976568 315.028300925818,-423.80066481554 310.958720844147,-462.520132888204 284.907629088384,-491.452801417117 246.82565726519,-499.54737440947 211.258824252407,-483.7120001066 191.792451388728,-449.995253267628 195.862031470399,-411.275785194965 221.913123226161,-382.343116666051 259.995095049356,-374.248543673698 " style="fill: rgb(14,173,105); fill-opacity: 1; stroke: rgb(0,0,0); stroke-width: 3" />
	<polygon points="315.028300925818,-423.80066481554 334.494673789497,-390.083917976568 370.061506802279,-374.248543673699 408.143478625474,-382.343116666051 434.194570381237,-411.275785194965 438.264150462908,-449.995253267628 418.797777599229,-483.7120001066 383.230944586446,-499.54737440947 345.148972763251,-491.452801417117 319.097881007489,-462.520132888203 " style="fill: rgb(14,173,105); fill-opacity: 1; stroke: rgb(0,0,0); stroke-width: 3" />
	<circle cx="295.561928062138" cy="-390.083917976568" r="2" style="fill: rgb(0,0,0)" />
	<circle cx="334.494673789497" cy="-390.083917976568" r="2" style="fill: rgb(0,0,0)" />
	<circle cx="315.028300925818" cy="-423.80066481554" r="2" style="fill: rgb(0,0,0)" />
	<circle cx="264.064675131027" cy="-367.199824206774" r="2" style="fill: rgb(0,0,0)" />
	<circle cx="252.033795063595" cy="-330.172582685508" r="2" style="fill: rgb(0,0,0)" />
	<circle cx="264.064675131027" cy="-293.145341164241" r="2" style="fill: rgb(0,0,0)" />
	<circle cx="295.561928062138" cy="-270.261247394448" r="2" style="fill: rgb(0,0,0)" />
	<circle cx="334.494673789496" cy="-270.261247394448" r="2" style="fill: rgb(0,0,0)" />
	<circle cx="365.991926720607" cy="-293.145341164242" r="2" style="fill: rgb(0,0,0)" />
	<circle cx="378.02280678804" cy="-330.172582685508" r="2" style="fill: rgb(0,0,0)" />
	<circle cx="365.991926720608" cy="-367.199824206774" r="2" style="fill: rgb(0,0,0)" />
	<circle cx="310.958720844147" cy="-462.520132888204" r="2" style="fill: rgb(0,0,0)" />
	<circle cx="284.907629088384" cy="-491.452801417117" r="2" style="fill: rgb(0,0,0)" />
	<circle cx="246.82565726519" cy="-499.54737440947" r="2" style="fill: rgb(0,0,0)" />
	<circle cx="211.258824252407" cy="-483.7120001066" r="2" style="fill: rgb(0,0,0)" />
	<circle cx="191.792451388728" cy="-449.995253267628" r="2" style="fill: rgb(0,0,0)" />
	<circle cx="195.862031470399" cy="-411.275785194965" r="2" style="fill: rgb(0,0,0)" />
	<circle cx="221.913123226161" cy="-382.343116666051" r="2" style="fill: rgb(0,0,0)" />
	<circle cx="259.995095049356" cy="-374.248543673698" r="2" style="fill: rgb(0,0,0)" />
	<circle cx="370.061506802279" cy="-374.248543673699" r="2" style="fill: rgb(0,0,0)" />
	<circle cx="408.143478625474" cy="-382.343116666051" r="2" style="fill: rgb(0,0,0)" />
	<circle cx="434.194570381237" cy="-411.275785194965" r="2" style="fill: rgb(0,0,0)" />
	<circle cx="438.264150462908" cy="-449.995253267628" r="2" style="fill: rgb(0,0,0)" />
	<circle cx="418.797777599229" cy="-483.7120001066" r="2" style="fill: rgb(0,0,0)" />
	<circle cx="383.230944586446" cy="-499.54737440947" r="2" style="fill: rgb(0,0,0)" />
	<circle cx="345.148972763251" cy="-491.452801417117" r="2" style="fill: rgb(0,0,0)" />
	<circle cx="319.097881007489" cy="-462.520132888203" r="2" style="fill: rgb(0,0,0)" />
	<circle cx="404.073898543803" cy="-359.105251214421" r="2" style="fill: rgb(0,0,0)" />
	<circle cx="225.982703307832" cy="-359.105251214421" r="2" style="fill: rgb(0,0,0)" />
	<circle cx="220.536542132483" cy="-353.056676455301" r="2" style="fill: rgb(0,0,0)" />
	<circle cx="181.603796405125" cy="-353.056676455302" r="2" style="fill: rgb(0,0,0)" />
	<circle cx="150.106543474013" cy="-330.172582685508" r="2" style="fill: rgb(0,0,0)" />
	<circle cx="138.075663406581" cy="-293.145341164242" r="2" style="fill: rgb(0,0,0)" />
	<circle cx="150.106543474013" cy="-256.118099642976" r="2" style="fill: rgb(0,0,0)" />
	<circle cx="181.603796405125" cy="-233.234005873182" r="2" style="fill: rgb(0,0,0)" />
	<circle cx="220.536542132483" cy="-233.234005873182" r="2" style="fill: rgb(0,0,0)" />
	<circle cx="252.033795063595" cy="-256.118099642976" r="2" style="fill: rgb(0,0,0)" />
	<circle cx="404.073898543806" cy="-301.239914156605" r="2" style="fill: rgb(0,0,0)" />
	<circle cx="370.061506802279" cy="-254.425873091578" r="2" style="fill: rgb(0,0,0)" />
	<circle cx="259.995095049356" cy="-254.425873091577" r="2" style="fill: rgb(0,0,0)" />
	<circle cx="264.064675131027" cy="-247.377153624653" r="2" style="fill: rgb(0,0,0)" />
	<circle cx="252.033795063594" cy="-210.349912103387" r="2" style="fill: rgb(0,0,0)" />
	<circle cx="264.064675131026" cy="-173.32267058212" r="2" style="fill: rgb(0,0,0)" />
	<circle cx="295.561928062137" cy="-150.438576812326" r="2" style="fill: rgb(0,0,0)" />
	<circle cx="334.494673789495" cy="-150.438576812327" r="2" style="fill: rgb(0,0,0)" />
	<circle cx="365.991926720607" cy="-173.322670582122" r="2" style="fill: rgb(0,0,0)" />
	<circle cx="378.022806788039" cy="-210.349912103388" r="2" style="fill: rgb(0,0,0)" />
	<circle cx="365.991926720607" cy="-247.377153624655" r="2" style="fill: rgb(0,0,0)" />
	<circle cx="160.295198457616" cy="-427.111159497835" r="2" style="fill: rgb(0,0,0)" />
	<circle cx="172.326078525043" cy="-483.712000106592" r="2" style="fill: rgb(0,0,0)" />
	<circle cx="215.328404334078" cy="-522.431468179265" r="2" style="fill: rgb(0,0,0)" />
	<circle cx="320.474462101167" cy="-507.288175719987" r="2" style="fill: rgb(0,0,0)" />
	<circle cx="339.940834964846" cy="-541.00492255896" r="2" style="fill: rgb(0,0,0)" />
	<circle cx="335.871254883175" cy="-579.724390631623" r="2" style="fill: rgb(0,0,0)" />
	<circle cx="309.820163127412" cy="-608.657059160536" r="2" style="fill: rgb(0,0,0)" />
	<circle cx="271.738191304218" cy="-616.751632152889" r="2" style="fill: rgb(0,0,0)" />
	<circle cx="236.171358291435" cy="-600.916257850018" r="2" style="fill: rgb(0,0,0)" />
	<circle cx="216.704985427756" cy="-567.199511011046" r="2" style="fill: rgb(0,0,0)" />
	<circle cx="220.774565509427" cy="-528.480042938383" r="2" style="fill: rgb(0,0,0)" />
	<circle cx="322.989600911579" cy="-499.547374409471" r="2" style="fill: rgb(0,0,0)" />
	<circle cx="446.225450448677" cy="-374.248543673706" r="2" style="fill: rgb(0,0,0)" />
	<circle cx="469.76140339402" cy="-427.111159497834" r="2" style="fill: rgb(0,0,0)" />
	<circle cx="473.830983475691" cy="-434.159878964759" r="2" style="fill: rgb(0,0,0)" />
	<circle cx="511.912955298886" cy="-442.254451957112" r="2" style="fill: rgb(0,0,0)" />
	<circle cx="537.964047054649" cy="-471.187120486025" r="2" style="fill: rgb(0,0,0)" />
	<circle cx="542.03362713632" cy="-509.906588558688" r="2" style="fill: rgb(0,0,0)" />
	<circle cx="522.56725427264" cy="-543.62333539766" r="2" style="fill: rgb(0,0,0)" />
	<circle cx="487.000421259857" cy="-559.458709700529" r="2" style="fill: rgb(0,0,0)" />
	<circle cx="448.918449436662" cy="-551.364136708176" r="2" style="fill: rgb(0,0,0)" />
	<circle cx="422.867357680899" cy="-522.431468179263" r="2" style="fill: rgb(0,0,0)" />
	<circle cx="414.728197517558" cy="-522.431468179264" r="2" style="fill: rgb(0,0,0)" />
	<circle cx="406.955475316955" cy="-304.121490929741" r="2" style="fill: rgb(0,0,0)" />
	<circle cx="433.006567072716" cy="-333.054159458647" r="2" style="fill: rgb(0,0,0)" />
	<circle cx="201.070169268803" cy="-199.517259034209" r="2" style="fill: rgb(0,0,0)" />
	<circle cx="111.173797746654" cy="-256.118099642976" r="2" style="fill: rgb(0,0,0)" />
	<circle cx="79.6765448155425" cy="-233.234005873181" r="2" style="fill: rgb(0,0,0)" />
	<circle cx="67.6456647481102" cy="-196.206764351914" r="2" style="fill: rgb(0,0,0)" />
	<circle cx="79.6765448155426" cy="-159.179522830648" r="2" style="fill: rgb(0,0,0)" />
	<circle cx="111.173797746655" cy="-136.295429060854" r="2" style="fill: rgb(0,0,0)" />
	<circle cx="150.106543474014" cy="-136.295429060855" r="2" style="fill: rgb(0,0,0)" />
	<circle cx="181.603796405126" cy="-159.17952283065" r="2" style="fill: rgb(0,0,0)" />
	<circle cx="193.634676472558" cy="-196.206764351917" r="2" style="fill: rgb(0,0,0)" />
	<circle cx="112.024571650817" cy="-264.212672635328" r="2" style="fill: rgb(0,0,0)" />
	<circle cx="112.024571650814" cy="-322.078009693144" r="2" style="fill: rgb(0,0,0)" />
	<circle cx="374.08649971297" cy="-255.063369341044" r="2" style="fill: rgb(0,0,0)" />
	<circle cx="412.168471536162" cy="-263.157942333402" r="2" style="fill: rgb(0,0,0)" />
	<circle cx="315.028300925817" cy="-116.721829973353" r="2" style="fill: rgb(0,0,0)" />
	<circle cx="322.463793722064" cy="-113.41133529106" r="2" style="fill: rgb(0,0,0)" />
	<circle cx="334.494673789497" cy="-76.3840937697932" r="2" style="fill: rgb(0,0,0)" />
	<circle cx="365.99192672061" cy="-53.5" r="2" style="fill: rgb(0,0,0)" />
	<circle cx="404.924672447968" cy="-53.5000000000022" r="2" style="fill: rgb(0,0,0)" />
	<circle cx="436.421925379079" cy="-76.3840937697979" r="2" style="fill: rgb(0,0,0)" />
	<circle cx="448.452805446511" cy="-113.411335291066" r="2" style="fill: rgb(0,0,0)" />
	<circle cx="436.421925379077" cy="-150.438576812332" r="2" style="fill: rgb(0,0,0)" />
	<circle cx="404.924672447965" cy="-173.322670582125" r="2" style="fill: rgb(0,0,0)" />
	<circle cx="404.073898543802" cy="-181.417243574473" r="2" style="fill: rgb(0,0,0)" />
	<circle cx="404.073898543799" cy="-239.282580632311" r="2" style="fill: rgb(0,0,0)" />
	<circle cx="168.908357618933" cy="-481.492506198744" r="2" style="fill: rgb(0,0,0)" />
	<circle cx="137.411104687825" cy="-458.608412428957" r="2" style="fill: rgb(0,0,0)" />
	<circle cx="211.258824252407" cy="-522.644745833963" r="2" style="fill: rgb(0,0,0)" />
	<circle cx="172.32607852505" cy="-522.644745833959" r="2" style="fill: rgb(0,0,0)" />
	<circle cx="291.204564167896" cy="-650.468378991862" r="2" style="fill: rgb(0,0,0)" />
	<circle cx="287.134984086224" cy="-689.187847064526" r="2" style="fill: rgb(0,0,0)" />
	<circle cx="261.083892330461" cy="-718.120515593439" r="2" style="fill: rgb(0,0,0)" />
	<circle cx="223.001920507265" cy="-726.215088585791" r="2" style="fill: rgb(0,0,0)" />
	<circle cx="187.435087494483" cy="-710.37971428292" r="2" style="fill: rgb(0,0,0)" />
	<circle cx="167.968714630805" cy="-676.662967443946" r="2" style="fill: rgb(0,0,0)" />
	<circle cx="172.038294712477" cy="-637.943499371282" r="2" style="fill: rgb(0,0,0)" />
	<circle cx="198.08938646824" cy="-609.010830842369" r="2" style="fill: rgb(0,0,0)" />
	<circle cx="197.238612564077" cy="-600.91625785002" r="2" style="fill: rgb(0,0,0)" />
	<circle cx="297.78928305998" cy="-645.684300681804" r="2" style="fill: rgb(0,0,0)" />
	<circle cx="185.207732496646" cy="-544.315417241242" r="2" style="fill: rgb(0,0,0)" />
	<circle cx="483.252691969947" cy="-386.279423741145" r="2" style="fill: rgb(0,0,0)" />
	<circle cx="471.221811902518" cy="-423.306665262396" r="2" style="fill: rgb(0,0,0)" />
	<circle cx="561.5" cy="-543.623335397662" r="2" style="fill: rgb(0,0,0)" />
	<circle cx="549.994927122082" cy="-434.159878964759" r="2" style="fill: rgb(0,0,0)" />
	<circle cx="499.882075231465" cy="-405.227210435848" r="2" style="fill: rgb(0,0,0)" />
	<circle cx="426.421848180632" cy="-270.404744090765" r="2" style="fill: rgb(0,0,0)" />
	<circle cx="464.503820003822" cy="-278.499317083105" r="2" style="fill: rgb(0,0,0)" />
	<circle cx="468.573400085493" cy="-317.218785155765" r="2" style="fill: rgb(0,0,0)" />
	<circle cx="41.5945729923462" cy="-225.139432880827" r="2" style="fill: rgb(0,0,0)" />
	<circle cx="75.6069647338705" cy="-120.460054757983" r="2" style="fill: rgb(0,0,0)" />
	<circle cx="75.6069647338614" cy="-271.953473945837" r="2" style="fill: rgb(0,0,0)" />
	<circle cx="109.142994877664" cy="-319.196432920005" r="2" style="fill: rgb(0,0,0)" />
	<circle cx="83.0919031219047" cy="-290.263764391102" r="2" style="fill: rgb(0,0,0)" />
	<circle cx="440.491505460738" cy="-189.158044885001" r="2" style="fill: rgb(0,0,0)" />
	<circle cx="433.006567072721" cy="-207.468335330231" r="2" style="fill: rgb(0,0,0)" />
	<circle cx="406.955475316963" cy="-236.401003859151" r="2" style="fill: rgb(0,0,0)" />
	<circle cx="156.877477551504" cy="-518.519747720013" r="2" style="fill: rgb(0,0,0)" />
	<circle cx="117.944731824153" cy="-518.519747720025" r="2" style="fill: rgb(0,0,0)" />
	<circle cx="105.913851756722" cy="-481.492506198762" r="2" style="fill: rgb(0,0,0)" />
	<circle cx="160.007414645052" cy="-600.916257850009" r="2" style="fill: rgb(0,0,0)" />
	<circle cx="163.521865725099" cy="-581.449884986346" r="2" style="fill: rgb(0,0,0)" />
	<circle cx="182.988238588774" cy="-547.733138147369" r="2" style="fill: rgb(0,0,0)" />
	<circle cx="503.818382306536" cy="-404.172480133916" r="2" style="fill: rgb(0,0,0)" />
	<circle cx="541.900354129719" cy="-396.077907141558" r="2" style="fill: rgb(0,0,0)" />
	<circle cx="71.5819718231852" cy="-271.315977696375" r="2" style="fill: rgb(0,0,0)" />
	<circle cx="33.5" cy="-263.221404704032" r="2" style="fill: rgb(0,0,0)" />
	<!--
	Generated using the Perl SVG Module V2.87
	by Ronan Oger

	-->
</svg>