<?xml version="1.0" encoding="UTF-8" standalone="yes"?>
<!DOCTYPE svg PUBLIC "-//W3C//DTD SVG 1.0//EN" "http://www.w3.org/TR/2001/REC-SVG-20010904/DTD/svg10.dtd">
<!-- generated using polymake; Michael Joswig, Georg Loho, Benjamin Lorenz, Rico Raber; license CC BY-NC-ND 3.0; see polymake.org and matchthenet.de -->
<svg height="841pt" id="document" viewBox="0 -726.164732252544 572 726.164732252544" width="595pt" xmlns="http://www.w3.org/2000/svg" xmlns:svg="http://www.w3.org/2000/svg" xmlns:xlink="http://www.w3.org/1999/xlink">
	<title id="document_title">planar_net_</title>
	<polygon points="260.001566213069,-318.902047483652 334.998433786934,-318.902047483652 395.67217417908,-362.984100211701 418.847480784292,-434.310359819551 395.67217417908,-505.6366194274 334.998433786935,-549.71867215545 260.001566213069,-549.718672155449 199.327825820923,-505.636619427399 176.15251921571,-434.31035981955 199.327825820922,-362.984100211701 " style="fill: rgb(186,59,38); fill-opacity: 1; stroke: rgb(0,0,0); stroke-width: 3" />
	<polygon points="490.173740392147,-411.135053214329 466.998433786931,-339.808793606487 538.324693394787,-316.633487001269 561.5,-387.959746609105 " style="fill: rgb(186,59,38); fill-opacity: 1; stroke: rgb(0,0,0); stroke-width: 3" />
	<polygon points="334.998433786927,-243.905179909779 260.001566213067,-243.905179909784 260.001566213066,-168.908312335915 334.998433786921,-168.908312335907 " style="fill: rgb(186,59,38); fill-opacity: 1; stroke: rgb(0,0,0); stroke-width: 3" />
	<polygon points="439.754226907127,-302.310359819546 379.080486514983,-258.228307091504 447.593534224519,-227.724332933312 " style="fill: rgb(186,59,38); fill-opacity: 1; stroke: rgb(0,0,0); stroke-width: 3" />
	<polygon points="334.998433786927,-243.905179909779 334.998433786934,-318.902047483652 260.001566213069,-318.902047483652 260.001566213067,-243.905179909784 " style="fill: rgb(186,59,38); fill-opacity: 1; stroke: rgb(0,0,0); stroke-width: 3" />
	<polygon points="260.001566213069,-318.902047483652 199.327825820922,-362.984100211701 155.245773092871,-302.310359819555 215.91951348501,-258.228307091505 " style="fill: rgb(186,59,38); fill-opacity: 1; stroke: rgb(0,0,0); stroke-width: 3" />
	<polygon points="215.91951348501,-258.228307091505 155.245773092871,-302.310359819555 147.406465775493,-227.724332933304 " style="fill: rgb(186,59,38); fill-opacity: 1; stroke: rgb(0,0,0); stroke-width: 3" />
	<polygon points="199.327825820922,-362.984100211701 176.15251921571,-434.31035981955 104.826259607858,-411.13505321434 128.001566213063,-339.808793606494 " style="fill: rgb(186,59,38); fill-opacity: 1; stroke: rgb(0,0,0); stroke-width: 3" />
	<polygon points="395.67217417908,-362.984100211701 334.998433786934,-318.902047483652 379.080486514983,-258.228307091504 439.754226907127,-302.310359819546 " style="fill: rgb(186,59,38); fill-opacity: 1; stroke: rgb(0,0,0); stroke-width: 3" />
	<polygon points="128.001566213063,-339.808793606494 104.826259607858,-411.13505321434 33.5,-387.959746609136 56.6753066052036,-316.633487001292 " style="fill: rgb(186,59,38); fill-opacity: 1; stroke: rgb(0,0,0); stroke-width: 3" />
	<polygon points="104.826259607856,-457.485666424773 128.001566213072,-528.811926032616 54.6435601331399,-513.219200489292 " style="fill: rgb(186,59,38); fill-opacity: 1; stroke: rgb(0,0,0); stroke-width: 3" />
	<polygon points="176.15251921571,-434.31035981955 199.327825820923,-505.636619427399 128.001566213072,-528.811926032616 104.826259607856,-457.485666424773 " style="fill: rgb(186,59,38); fill-opacity: 1; stroke: rgb(0,0,0); stroke-width: 3" />
	<polygon points="418.847480784292,-434.310359819551 395.67217417908,-362.984100211701 466.998433786931,-339.808793606487 490.173740392147,-411.135053214329 " style="fill: rgb(186,59,38); fill-opacity: 1; stroke: rgb(0,0,0); stroke-width: 3" />
	<polygon points="358.173740392121,-97.5820527280547 334.998433786921,-168.908312335907 260.001566213066,-168.908312335915 236.826259607854,-97.5820527280568 297.499999999984,-53.5 " style="fill: rgb(186,59,38); fill-opacity: 1; stroke: rgb(0,0,0); stroke-width: 3" />
	<polygon points="155.245773092875,-566.310359819556 215.91951348502,-610.392412547599 171.837460756972,-671.066152939757 111.163720364831,-626.984100211713 " style="fill: rgb(186,59,38); fill-opacity: 1; stroke: rgb(0,0,0); stroke-width: 3" />
	<polygon points="199.327825820923,-505.636619427399 260.001566213069,-549.718672155449 215.91951348502,-610.392412547599 155.245773092875,-566.310359819556 " style="fill: rgb(186,59,38); fill-opacity: 1; stroke: rgb(0,0,0); stroke-width: 3" />
	<polygon points="466.99843378694,-528.811926032608 490.173740392146,-457.485666424763 540.356439866861,-513.219200489303 " style="fill: rgb(186,59,38); fill-opacity: 1; stroke: rgb(0,0,0); stroke-width: 3" />
	<polygon points="395.67217417908,-505.6366194274 418.847480784292,-434.310359819551 490.173740392146,-457.485666424763 466.99843378694,-528.811926032608 " style="fill: rgb(186,59,38); fill-opacity: 1; stroke: rgb(0,0,0); stroke-width: 3" />
	<polygon points="260.001566213076,-624.715539729323 334.998433786938,-624.715539729319 297.499999999993,-689.664732252544 " style="fill: rgb(186,59,38); fill-opacity: 1; stroke: rgb(0,0,0); stroke-width: 3" />
	<polygon points="379.080486514995,-610.392412547597 439.754226907133,-566.310359819547 483.836279635193,-626.984100211698 423.162539243057,-671.066152939742 " style="fill: rgb(186,59,38); fill-opacity: 1; stroke: rgb(0,0,0); stroke-width: 3" />
	<polygon points="260.001566213069,-549.718672155449 334.998433786935,-549.71867215545 334.998433786938,-624.715539729319 260.001566213076,-624.715539729323 " style="fill: rgb(186,59,38); fill-opacity: 1; stroke: rgb(0,0,0); stroke-width: 3" />
	<polygon points="334.998433786935,-549.71867215545 395.67217417908,-505.6366194274 439.754226907133,-566.310359819547 379.080486514995,-610.392412547597 " style="fill: rgb(186,59,38); fill-opacity: 1; stroke: rgb(0,0,0); stroke-width: 3" />
	<circle cx="260.001566213069" cy="-318.902047483652" r="2" style="fill: rgb(0,0,0)" />
	<circle cx="334.998433786934" cy="-318.902047483652" r="2" style="fill: rgb(0,0,0)" />
	<circle cx="395.67217417908" cy="-362.984100211701" r="2" style="fill: rgb(0,0,0)" />
	<circle cx="418.847480784292" cy="-434.310359819551" r="2" style="fill: rgb(0,0,0)" />
	<circle cx="395.67217417908" cy="-505.6366194274" r="2" style="fill: rgb(0,0,0)" />
	<circle cx="334.998433786935" cy="-549.71867215545" r="2" style="fill: rgb(0,0,0)" />
	<circle cx="260.001566213069" cy="-549.718672155449" r="2" style="fill: rgb(0,0,0)" />
	<circle cx="199.327825820923" cy="-505.636619427399" r="2" style="fill: rgb(0,0,0)" />
	<circle cx="176.15251921571" cy="-434.31035981955" r="2" style="fill: rgb(0,0,0)" />
	<circle cx="199.327825820922" cy="-362.984100211701" r="2" style="fill: rgb(0,0,0)" />
	<circle cx="260.001566213067" cy="-243.905179909784" r="2" style="fill: rgb(0,0,0)" />
	<circle cx="334.998433786927" cy="-243.905179909779" r="2" style="fill: rgb(0,0,0)" />
	<circle cx="155.245773092871" cy="-302.310359819555" r="2" style="fill: rgb(0,0,0)" />
	<circle cx="215.91951348501" cy="-258.228307091505" r="2" style="fill: rgb(0,0,0)" />
	<circle cx="104.826259607858" cy="-411.13505321434" r="2" style="fill: rgb(0,0,0)" />
	<circle cx="128.001566213063" cy="-339.808793606494" r="2" style="fill: rgb(0,0,0)" />
	<circle cx="379.080486514983" cy="-258.228307091504" r="2" style="fill: rgb(0,0,0)" />
	<circle cx="439.754226907127" cy="-302.310359819546" r="2" style="fill: rgb(0,0,0)" />
	<circle cx="128.001566213072" cy="-528.811926032616" r="2" style="fill: rgb(0,0,0)" />
	<circle cx="104.826259607856" cy="-457.485666424773" r="2" style="fill: rgb(0,0,0)" />
	<circle cx="466.998433786931" cy="-339.808793606487" r="2" style="fill: rgb(0,0,0)" />
	<circle cx="490.173740392147" cy="-411.135053214329" r="2" style="fill: rgb(0,0,0)" />
	<circle cx="215.91951348502" cy="-610.392412547599" r="2" style="fill: rgb(0,0,0)" />
	<circle cx="155.245773092875" cy="-566.310359819556" r="2" style="fill: rgb(0,0,0)" />
	<circle cx="490.173740392146" cy="-457.485666424763" r="2" style="fill: rgb(0,0,0)" />
	<circle cx="466.99843378694" cy="-528.811926032608" r="2" style="fill: rgb(0,0,0)" />
	<circle cx="334.998433786938" cy="-624.715539729319" r="2" style="fill: rgb(0,0,0)" />
	<circle cx="260.001566213076" cy="-624.715539729323" r="2" style="fill: rgb(0,0,0)" />
	<circle cx="439.754226907133" cy="-566.310359819547" r="2" style="fill: rgb(0,0,0)" />
	<circle cx="379.080486514995" cy="-610.392412547597" r="2" style="fill: rgb(0,0,0)" />
	<circle cx="260.001566213066" cy="-168.908312335915" r="2" style="fill: rgb(0,0,0)" />
	<circle cx="334.998433786921" cy="-168.908312335907" r="2" style="fill: rgb(0,0,0)" />
	<circle cx="147.406465775493" cy="-227.724332933304" r="2" style="fill: rgb(0,0,0)" />
	<circle cx="33.5" cy="-387.959746609136" r="2" style="fill: rgb(0,0,0)" />
	<circle cx="56.6753066052036" cy="-316.633487001292" r="2" style="fill: rgb(0,0,0)" />
	<circle cx="447.593534224519" cy="-227.724332933312" r="2" style="fill: rgb(0,0,0)" />
	<circle cx="54.6435601331399" cy="-513.219200489292" r="2" style="fill: rgb(0,0,0)" />
	<circle cx="538.324693394787" cy="-316.633487001269" r="2" style="fill: rgb(0,0,0)" />
	<circle cx="561.5" cy="-387.959746609105" r="2" style="fill: rgb(0,0,0)" />
	<circle cx="171.837460756972" cy="-671.066152939757" r="2" style="fill: rgb(0,0,0)" />
	<circle cx="111.163720364831" cy="-626.984100211713" r="2" style="fill: rgb(0,0,0)" />
	<circle cx="540.356439866861" cy="-513.219200489303" r="2" style="fill: rgb(0,0,0)" />
	<circle cx="297.499999999993" cy="-689.664732252544" r="2" style="fill: rgb(0,0,0)" />
	<circle cx="483.836279635193" cy="-626.984100211698" r="2" style="fill: rgb(0,0,0)" />
	<circle cx="423.162539243057" cy="-671.066152939742" r="2" style="fill: rgb(0,0,0)" />
	<circle cx="236.826259607854" cy="-97.5820527280568" r="2" style="fill: rgb(0,0,0)" />
	<circle cx="297.499999999984" cy="-53.5" r="2" style="fill: rgb(0,0,0)" />
	<circle cx="358.173740392121" cy="-97.5820527280547" r="2" style="fill: rgb(0,0,0)" />
	<!--
	Generated using the Perl SVG Module V2.84
	by Ronan Oger
	Info: http://www.roitsystems.com/
	-->
</svg>