<?xml version="1.0" encoding="UTF-8" standalone="yes"?>
<!DOCTYPE svg PUBLIC "-//W3C//DTD SVG 1.0//EN" "http://www.w3.org/TR/2001/REC-SVG-20010904/DTD/svg10.dtd">
<!-- generated using polymake; Michael Joswig, Georg Loho, Benjamin Lorenz, Rico Raber; license CC BY-NC-ND 3.0; see polymake.org and matchthenet.de -->
<svg height="841pt" id="document" viewBox="0 -718.189178942354 572 718.189178942354" width="595pt" xmlns="http://www.w3.org/2000/svg" xmlns:svg="http://www.w3.org/2000/svg" xmlns:xlink="http://www.w3.org/1999/xlink">
	<title id="document_title">planar_net_</title>
	<polygon points="245.637242844915,-372.043148219485 292.223154861174,-372.043148219485 306.618993372655,-416.348983410101 268.93019885305,-443.731495457856 231.24140433344,-416.348983410105 " style="fill: rgb(255,210,63); fill-opacity: 1; stroke: rgb(0,0,0); stroke-width: 3" />
	<polygon points="292.223154861167,-325.457236203219 292.223154861174,-372.043148219485 245.637242844915,-372.043148219485 245.637242844913,-325.457236203224 " style="fill: rgb(67,184,206); fill-opacity: 1; stroke: rgb(0,0,0); stroke-width: 3" />
	<polygon points="200.069344778213,-315.771480467637 165.449265323182,-284.599420912418 196.621324878394,-249.979341457389 231.241404333433,-281.151401012608 " style="fill: rgb(67,184,206); fill-opacity: 1; stroke: rgb(0,0,0); stroke-width: 3" />
	<polygon points="245.637242844913,-325.457236203224 200.069344778213,-315.771480467637 231.241404333433,-281.151401012608 " style="fill: rgb(14,173,105); fill-opacity: 1; stroke: rgb(0,0,0); stroke-width: 3" />
	<polygon points="292.223154861167,-325.457236203219 245.637242844913,-325.457236203224 231.241404333433,-281.151401012608 268.930198853032,-253.768888964848 306.618993372638,-281.151401012596 " style="fill: rgb(255,210,63); fill-opacity: 1; stroke: rgb(0,0,0); stroke-width: 3" />
	<polygon points="306.618993372655,-416.348983410101 292.223154861174,-372.043148219485 336.528990051791,-357.647309708002 350.924828563275,-401.953144898611 " style="fill: rgb(67,184,206); fill-opacity: 1; stroke: rgb(0,0,0); stroke-width: 3" />
	<polygon points="332.567738125718,-348.750192211342 292.223154861174,-372.043148219485 292.223154861167,-325.457236203219 " style="fill: rgb(14,173,105); fill-opacity: 1; stroke: rgb(0,0,0); stroke-width: 3" />
	<polygon points="154.745495638026,-311.061397691768 127.36298359028,-348.750192211379 89.6741890706639,-321.367680163632 117.056701118403,-283.678885644022 " style="fill: rgb(67,184,206); fill-opacity: 1; stroke: rgb(0,0,0); stroke-width: 3" />
	<polygon points="165.449265323182,-284.599420912418 151.053426811696,-240.293585721803 196.621324878394,-249.979341457389 " style="fill: rgb(14,173,105); fill-opacity: 1; stroke: rgb(0,0,0); stroke-width: 3" />
	<polygon points="268.930198853032,-253.768888964848 231.241404333433,-281.151401012608 203.858892285668,-243.462606493005 241.54768680526,-216.080094445244 " style="fill: rgb(67,184,206); fill-opacity: 1; stroke: rgb(0,0,0); stroke-width: 3" />
	<polygon points="336.528990051795,-339.853074714684 292.223154861167,-325.457236203219 306.618993372638,-281.151401012596 350.92482856326,-295.547239524065 " style="fill: rgb(67,184,206); fill-opacity: 1; stroke: rgb(0,0,0); stroke-width: 3" />
	<polygon points="306.618993372655,-416.348983410101 350.924828563275,-401.953144898611 365.320667074766,-446.258980089226 321.014831884152,-460.654818600719 " style="fill: rgb(67,184,206); fill-opacity: 1; stroke: rgb(0,0,0); stroke-width: 3" />
	<polygon points="121.864262575469,-495.81612848898 136.260101086955,-540.121963679586 98.5713065673494,-567.504475727346 60.882512047736,-540.121963679613 75.2783505592101,-495.816128488998 " style="fill: rgb(255,210,63); fill-opacity: 1; stroke: rgb(0,0,0); stroke-width: 3" />
	<polygon points="321.014831884152,-460.654818600719 365.320667074766,-446.258980089226 392.703179122529,-483.947774608828 365.320667074791,-521.636569128448 321.01483188417,-507.24073061698 " style="fill: rgb(255,210,63); fill-opacity: 1; stroke: rgb(0,0,0); stroke-width: 3" />
	<polygon points="180.565936277571,-525.7261251681 227.151848293824,-525.726125168087 227.151848293826,-572.312037184349 180.565936277578,-572.312037184367 " style="fill: rgb(67,184,206); fill-opacity: 1; stroke: rgb(0,0,0); stroke-width: 3" />
	<polygon points="180.565936277571,-525.7261251681 180.565936277578,-572.312037184367 140.221353013027,-549.019081176245 " style="fill: rgb(14,173,105); fill-opacity: 1; stroke: rgb(0,0,0); stroke-width: 3" />
	<polygon points="321.01483188417,-507.24073061698 365.320667074791,-521.636569128448 350.924828563326,-565.942404319071 306.618993372708,-551.546565807609 " style="fill: rgb(67,184,206); fill-opacity: 1; stroke: rgb(0,0,0); stroke-width: 3" />
	<polygon points="350.924828563275,-401.953144898611 396.492726629978,-411.63890063419 365.320667074766,-446.258980089226 " style="fill: rgb(14,173,105); fill-opacity: 1; stroke: rgb(0,0,0); stroke-width: 3" />
	<polygon points="180.565936277578,-572.312037184367 157.272980269457,-612.656620448921 116.928397004908,-589.363664440806 140.221353013027,-549.019081176245 " style="fill: rgb(67,184,206); fill-opacity: 1; stroke: rgb(0,0,0); stroke-width: 3" />
	<polygon points="403.009461594368,-418.876468041461 430.391973642132,-456.565262561055 392.703179122529,-483.947774608828 365.320667074766,-446.258980089226 " style="fill: rgb(67,184,206); fill-opacity: 1; stroke: rgb(0,0,0); stroke-width: 3" />
	<polygon points="227.151848293752,-171.774259254638 180.565936277498,-171.774259254652 180.565936277496,-125.18834723839 227.151848293745,-125.188347238372 " style="fill: rgb(67,184,206); fill-opacity: 1; stroke: rgb(0,0,0); stroke-width: 3" />
	<polygon points="140.221353012949,-148.481303246522 180.565936277496,-125.18834723839 180.565936277498,-171.774259254652 " style="fill: rgb(14,173,105); fill-opacity: 1; stroke: rgb(0,0,0); stroke-width: 3" />
	<polygon points="180.565936277578,-572.312037184367 227.151848293826,-572.312037184349 241.547686805307,-616.617872374965 203.858892285713,-644.000384422738 166.170097766111,-616.617872374997 " style="fill: rgb(255,210,63); fill-opacity: 1; stroke: rgb(0,0,0); stroke-width: 3" />
	<polygon points="365.320667074791,-521.636569128448 392.703179122529,-483.947774608828 430.391973642152,-511.330286656566 403.009461594421,-549.019081176184 " style="fill: rgb(67,184,206); fill-opacity: 1; stroke: rgb(0,0,0); stroke-width: 3" />
	<polygon points="306.61899337259,-151.008787877847 279.236481324858,-188.697582397473 241.547686805231,-161.315070349742 268.930198852955,-123.626275830118 " style="fill: rgb(67,184,206); fill-opacity: 1; stroke: rgb(0,0,0); stroke-width: 3" />
	<polygon points="411.906579091011,-357.647309707982 426.302417602485,-313.341474517362 470.6082527931,-327.73731302883 456.21241428163,-372.043148219457 " style="fill: rgb(67,184,206); fill-opacity: 1; stroke: rgb(0,0,0); stroke-width: 3" />
	<polygon points="203.85889228561,-53.5 241.547686805214,-80.8825120477411 227.151848293745,-125.188347238372 180.565936277496,-125.18834723839 166.170097766015,-80.8825120477732 " style="fill: rgb(255,210,63); fill-opacity: 1; stroke: rgb(0,0,0); stroke-width: 3" />
	<polygon points="430.391973642152,-511.330286656566 468.080768161777,-538.712798704301 440.698256114053,-576.401593223917 403.009461594421,-549.019081176184 " style="fill: rgb(67,184,206); fill-opacity: 1; stroke: rgb(0,0,0); stroke-width: 3" />
	<polygon points="306.61899337259,-151.008787877847 268.930198852955,-123.626275830118 311.488547165533,-104.678078361968 " style="fill: rgb(14,173,105); fill-opacity: 1; stroke: rgb(0,0,0); stroke-width: 3" />
	<polygon points="456.21241428163,-372.043148219457 470.6082527931,-327.73731302883 501.780312348331,-362.357392483849 " style="fill: rgb(14,173,105); fill-opacity: 1; stroke: rgb(0,0,0); stroke-width: 3" />
	<polygon points="350.924828563214,-165.4046263893 306.61899337259,-151.008787877847 321.014831884042,-106.70295268722 365.320667074662,-121.098791198667 " style="fill: rgb(67,184,206); fill-opacity: 1; stroke: rgb(0,0,0); stroke-width: 3" />
	<polygon points="517.194164809385,-416.348983410051 502.798326297891,-372.043148219448 547.104161488503,-357.647309707949 561.5,-401.953144898545 " style="fill: rgb(67,184,206); fill-opacity: 1; stroke: rgb(0,0,0); stroke-width: 3" />
	<polygon points="468.080768161777,-538.712798704301 487.02896562992,-581.271147016883 440.698256114053,-576.401593223917 " style="fill: rgb(14,173,105); fill-opacity: 1; stroke: rgb(0,0,0); stroke-width: 3" />
	<polygon points="441.816575770161,-416.348983410068 456.21241428163,-372.043148219457 502.798326297891,-372.043148219448 517.194164809385,-416.348983410051 479.505370289781,-443.731495457805 " style="fill: rgb(255,210,63); fill-opacity: 1; stroke: rgb(0,0,0); stroke-width: 3" />
	<polygon points="166.170097766111,-616.617872374997 203.858892285713,-644.000384422738 176.476380237965,-681.689178942354 138.787585718364,-654.306666894619 " style="fill: rgb(67,184,206); fill-opacity: 1; stroke: rgb(0,0,0); stroke-width: 3" />
	<polygon points="430.391973642132,-456.565262561055 435.261527435136,-502.895972076923 392.703179122529,-483.947774608828 " style="fill: rgb(14,173,105); fill-opacity: 1; stroke: rgb(0,0,0); stroke-width: 3" />
	<polygon points="157.272980269457,-612.656620448921 116.928397004916,-635.949576457064 116.928397004908,-589.363664440806 " style="fill: rgb(14,173,105); fill-opacity: 1; stroke: rgb(0,0,0); stroke-width: 3" />
	<polygon points="397.510740579535,-401.953144898597 411.906579091011,-357.647309707982 456.21241428163,-372.043148219457 441.816575770161,-416.348983410068 " style="fill: rgb(67,184,206); fill-opacity: 1; stroke: rgb(0,0,0); stroke-width: 3" />
	<polygon points="365.320667074791,-521.636569128448 396.492726630024,-556.256648583466 350.924828563326,-565.942404319071 " style="fill: rgb(14,173,105); fill-opacity: 1; stroke: rgb(0,0,0); stroke-width: 3" />
	<polygon points="60.882512047736,-540.121963679613 98.5713065673494,-567.504475727346 71.1887945196113,-605.193270246969 33.5,-577.810758199242 " style="fill: rgb(67,184,206); fill-opacity: 1; stroke: rgb(0,0,0); stroke-width: 3" />
	<polygon points="350.92482856324,-211.990538405561 306.618993372631,-226.38637691707 279.236481324858,-188.697582397473 306.61899337259,-151.008787877847 350.924828563214,-165.4046263893 " style="fill: rgb(255,210,63); fill-opacity: 1; stroke: rgb(0,0,0); stroke-width: 3" />
	<polygon points="411.906579091011,-357.647309707982 374.217784571398,-330.264797660244 416.776132883984,-311.316600192114 " style="fill: rgb(14,173,105); fill-opacity: 1; stroke: rgb(0,0,0); stroke-width: 3" />
	<polygon points="241.54768680526,-216.080094445244 236.678133012256,-169.749384929376 279.236481324858,-188.697582397473 " style="fill: rgb(14,173,105); fill-opacity: 1; stroke: rgb(0,0,0); stroke-width: 3" />
	<polygon points="350.92482856326,-295.547239524065 306.618993372638,-281.151401012596 321.014831884105,-236.845565821974 365.320667074723,-251.241404333436 " style="fill: rgb(67,184,206); fill-opacity: 1; stroke: rgb(0,0,0); stroke-width: 3" />
	<polygon points="306.618993372638,-281.151401012596 268.930198853032,-253.768888964848 311.488547165623,-234.820691496729 " style="fill: rgb(14,173,105); fill-opacity: 1; stroke: rgb(0,0,0); stroke-width: 3" />
	<polygon points="268.930198853032,-253.768888964848 241.54768680526,-216.080094445244 279.236481324858,-188.697582397473 306.618993372631,-226.38637691707 " style="fill: rgb(67,184,206); fill-opacity: 1; stroke: rgb(0,0,0); stroke-width: 3" />
	<polygon points="121.86426257542,-201.684255933814 136.260101086864,-157.378420743203 180.565936277498,-171.774259254652 166.170097766047,-216.080094445267 " style="fill: rgb(67,184,206); fill-opacity: 1; stroke: rgb(0,0,0); stroke-width: 3" />
	<polygon points="350.924828563275,-401.953144898611 336.528990051791,-357.647309708002 374.217784571398,-330.264797660244 411.906579091011,-357.647309707982 397.510740579535,-401.953144898597 " style="fill: rgb(255,210,63); fill-opacity: 1; stroke: rgb(0,0,0); stroke-width: 3" />
	<polygon points="241.54768680526,-216.080094445244 203.858892285668,-243.462606493005 166.170097766047,-216.080094445267 180.565936277498,-171.774259254652 227.151848293752,-171.774259254638 " style="fill: rgb(255,210,63); fill-opacity: 1; stroke: rgb(0,0,0); stroke-width: 3" />
	<polygon points="249.982001384939,-486.289843770458 292.540349697529,-505.238041238566 254.851555177925,-532.620553286326 " style="fill: rgb(14,173,105); fill-opacity: 1; stroke: rgb(0,0,0); stroke-width: 3" />
	<polygon points="166.170097766089,-481.420289977488 180.565936277571,-525.7261251681 136.260101086955,-540.121963679586 121.864262575469,-495.81612848898 " style="fill: rgb(67,184,206); fill-opacity: 1; stroke: rgb(0,0,0); stroke-width: 3" />
	<polygon points="84.8046352776904,-367.698389679504 89.6741890706639,-321.367680163632 127.36298359028,-348.750192211379 " style="fill: rgb(14,173,105); fill-opacity: 1; stroke: rgb(0,0,0); stroke-width: 3" />
	<polygon points="268.93019885305,-443.731495457856 306.618993372655,-416.348983410101 311.488547165642,-462.679692925971 " style="fill: rgb(14,173,105); fill-opacity: 1; stroke: rgb(0,0,0); stroke-width: 3" />
	<polygon points="268.93019885305,-443.731495457856 311.488547165642,-462.679692925971 292.540349697529,-505.238041238566 249.982001384939,-486.289843770458 " style="fill: rgb(67,184,206); fill-opacity: 1; stroke: rgb(0,0,0); stroke-width: 3" />
	<polygon points="203.85889228569,-454.037777929724 241.547686805299,-481.420289977469 227.151848293824,-525.726125168087 180.565936277571,-525.7261251681 166.170097766089,-481.420289977488 " style="fill: rgb(255,210,63); fill-opacity: 1; stroke: rgb(0,0,0); stroke-width: 3" />
	<polygon points="203.85889228569,-454.037777929724 166.170097766089,-481.420289977488 161.300543973092,-435.089580461621 " style="fill: rgb(14,173,105); fill-opacity: 1; stroke: rgb(0,0,0); stroke-width: 3" />
	<polygon points="117.056701118438,-413.821498778742 89.6741890706771,-376.132704259152 127.36298359028,-348.750192211379 154.74549563804,-386.438986730976 " style="fill: rgb(67,184,206); fill-opacity: 1; stroke: rgb(0,0,0); stroke-width: 3" />
	<polygon points="231.24140433344,-416.348983410105 268.93019885305,-443.731495457856 241.547686805299,-481.420289977469 203.85889228569,-454.037777929724 " style="fill: rgb(67,184,206); fill-opacity: 1; stroke: rgb(0,0,0); stroke-width: 3" />
	<polygon points="245.637242844915,-372.043148219485 231.24140433344,-416.348983410105 200.069344778216,-381.728903955081 " style="fill: rgb(14,173,105); fill-opacity: 1; stroke: rgb(0,0,0); stroke-width: 3" />
	<polygon points="231.24140433344,-416.348983410105 203.85889228569,-454.037777929724 166.170097766074,-426.655265881979 193.552609813816,-388.96647136236 " style="fill: rgb(67,184,206); fill-opacity: 1; stroke: rgb(0,0,0); stroke-width: 3" />
	<polygon points="199.051330828655,-372.043148219489 154.74549563804,-386.438986730976 127.36298359028,-348.750192211379 154.745495638026,-311.061397691768 199.051330828647,-325.457236203233 " style="fill: rgb(255,210,63); fill-opacity: 1; stroke: rgb(0,0,0); stroke-width: 3" />
	<polygon points="245.637242844915,-372.043148219485 199.051330828655,-372.043148219489 199.051330828647,-325.457236203233 245.637242844913,-325.457236203224 " style="fill: rgb(67,184,206); fill-opacity: 1; stroke: rgb(0,0,0); stroke-width: 3" />
	<circle cx="245.637242844915" cy="-372.043148219485" r="2" style="fill: rgb(0,0,0)" />
	<circle cx="292.223154861174" cy="-372.043148219485" r="2" style="fill: rgb(0,0,0)" />
	<circle cx="306.618993372655" cy="-416.348983410101" r="2" style="fill: rgb(0,0,0)" />
	<circle cx="268.93019885305" cy="-443.731495457856" r="2" style="fill: rgb(0,0,0)" />
	<circle cx="231.24140433344" cy="-416.348983410105" r="2" style="fill: rgb(0,0,0)" />
	<circle cx="245.637242844913" cy="-325.457236203224" r="2" style="fill: rgb(0,0,0)" />
	<circle cx="292.223154861167" cy="-325.457236203219" r="2" style="fill: rgb(0,0,0)" />
	<circle cx="336.528990051791" cy="-357.647309708002" r="2" style="fill: rgb(0,0,0)" />
	<circle cx="350.924828563275" cy="-401.953144898611" r="2" style="fill: rgb(0,0,0)" />
	<circle cx="311.488547165642" cy="-462.679692925971" r="2" style="fill: rgb(0,0,0)" />
	<circle cx="241.547686805299" cy="-481.420289977469" r="2" style="fill: rgb(0,0,0)" />
	<circle cx="203.85889228569" cy="-454.037777929724" r="2" style="fill: rgb(0,0,0)" />
	<circle cx="200.069344778216" cy="-381.728903955081" r="2" style="fill: rgb(0,0,0)" />
	<circle cx="231.241404333433" cy="-281.151401012608" r="2" style="fill: rgb(0,0,0)" />
	<circle cx="268.930198853032" cy="-253.768888964848" r="2" style="fill: rgb(0,0,0)" />
	<circle cx="306.618993372638" cy="-281.151401012596" r="2" style="fill: rgb(0,0,0)" />
	<circle cx="332.567738125718" cy="-348.750192211342" r="2" style="fill: rgb(0,0,0)" />
	<circle cx="199.051330828655" cy="-372.043148219489" r="2" style="fill: rgb(0,0,0)" />
	<circle cx="199.051330828647" cy="-325.457236203233" r="2" style="fill: rgb(0,0,0)" />
	<circle cx="365.320667074766" cy="-446.258980089226" r="2" style="fill: rgb(0,0,0)" />
	<circle cx="321.014831884152" cy="-460.654818600719" r="2" style="fill: rgb(0,0,0)" />
	<circle cx="374.217784571398" cy="-330.264797660244" r="2" style="fill: rgb(0,0,0)" />
	<circle cx="411.906579091011" cy="-357.647309707982" r="2" style="fill: rgb(0,0,0)" />
	<circle cx="397.510740579535" cy="-401.953144898597" r="2" style="fill: rgb(0,0,0)" />
	<circle cx="292.540349697529" cy="-505.238041238566" r="2" style="fill: rgb(0,0,0)" />
	<circle cx="249.982001384939" cy="-486.289843770458" r="2" style="fill: rgb(0,0,0)" />
	<circle cx="227.151848293824" cy="-525.726125168087" r="2" style="fill: rgb(0,0,0)" />
	<circle cx="180.565936277571" cy="-525.7261251681" r="2" style="fill: rgb(0,0,0)" />
	<circle cx="166.170097766089" cy="-481.420289977488" r="2" style="fill: rgb(0,0,0)" />
	<circle cx="166.170097766074" cy="-426.655265881979" r="2" style="fill: rgb(0,0,0)" />
	<circle cx="193.552609813816" cy="-388.96647136236" r="2" style="fill: rgb(0,0,0)" />
	<circle cx="200.069344778213" cy="-315.771480467637" r="2" style="fill: rgb(0,0,0)" />
	<circle cx="203.858892285668" cy="-243.462606493005" r="2" style="fill: rgb(0,0,0)" />
	<circle cx="241.54768680526" cy="-216.080094445244" r="2" style="fill: rgb(0,0,0)" />
	<circle cx="350.92482856326" cy="-295.547239524065" r="2" style="fill: rgb(0,0,0)" />
	<circle cx="336.528990051795" cy="-339.853074714684" r="2" style="fill: rgb(0,0,0)" />
	<circle cx="311.488547165623" cy="-234.820691496729" r="2" style="fill: rgb(0,0,0)" />
	<circle cx="154.74549563804" cy="-386.438986730976" r="2" style="fill: rgb(0,0,0)" />
	<circle cx="127.36298359028" cy="-348.750192211379" r="2" style="fill: rgb(0,0,0)" />
	<circle cx="154.745495638026" cy="-311.061397691768" r="2" style="fill: rgb(0,0,0)" />
	<circle cx="392.703179122529" cy="-483.947774608828" r="2" style="fill: rgb(0,0,0)" />
	<circle cx="365.320667074791" cy="-521.636569128448" r="2" style="fill: rgb(0,0,0)" />
	<circle cx="321.01483188417" cy="-507.24073061698" r="2" style="fill: rgb(0,0,0)" />
	<circle cx="396.492726629978" cy="-411.63890063419" r="2" style="fill: rgb(0,0,0)" />
	<circle cx="456.21241428163" cy="-372.043148219457" r="2" style="fill: rgb(0,0,0)" />
	<circle cx="441.816575770161" cy="-416.348983410068" r="2" style="fill: rgb(0,0,0)" />
	<circle cx="416.776132883984" cy="-311.316600192114" r="2" style="fill: rgb(0,0,0)" />
	<circle cx="254.851555177925" cy="-532.620553286326" r="2" style="fill: rgb(0,0,0)" />
	<circle cx="227.151848293826" cy="-572.312037184349" r="2" style="fill: rgb(0,0,0)" />
	<circle cx="180.565936277578" cy="-572.312037184367" r="2" style="fill: rgb(0,0,0)" />
	<circle cx="136.260101086955" cy="-540.121963679586" r="2" style="fill: rgb(0,0,0)" />
	<circle cx="121.864262575469" cy="-495.81612848898" r="2" style="fill: rgb(0,0,0)" />
	<circle cx="161.300543973092" cy="-435.089580461621" r="2" style="fill: rgb(0,0,0)" />
	<circle cx="165.449265323182" cy="-284.599420912418" r="2" style="fill: rgb(0,0,0)" />
	<circle cx="196.621324878394" cy="-249.979341457389" r="2" style="fill: rgb(0,0,0)" />
	<circle cx="279.236481324858" cy="-188.697582397473" r="2" style="fill: rgb(0,0,0)" />
	<circle cx="306.618993372631" cy="-226.38637691707" r="2" style="fill: rgb(0,0,0)" />
	<circle cx="166.170097766047" cy="-216.080094445267" r="2" style="fill: rgb(0,0,0)" />
	<circle cx="180.565936277498" cy="-171.774259254652" r="2" style="fill: rgb(0,0,0)" />
	<circle cx="227.151848293752" cy="-171.774259254638" r="2" style="fill: rgb(0,0,0)" />
	<circle cx="321.014831884105" cy="-236.845565821974" r="2" style="fill: rgb(0,0,0)" />
	<circle cx="365.320667074723" cy="-251.241404333436" r="2" style="fill: rgb(0,0,0)" />
	<circle cx="89.6741890706639" cy="-321.367680163632" r="2" style="fill: rgb(0,0,0)" />
	<circle cx="117.056701118403" cy="-283.678885644022" r="2" style="fill: rgb(0,0,0)" />
	<circle cx="117.056701118438" cy="-413.821498778742" r="2" style="fill: rgb(0,0,0)" />
	<circle cx="89.6741890706771" cy="-376.132704259152" r="2" style="fill: rgb(0,0,0)" />
	<circle cx="350.924828563326" cy="-565.942404319071" r="2" style="fill: rgb(0,0,0)" />
	<circle cx="306.618993372708" cy="-551.546565807609" r="2" style="fill: rgb(0,0,0)" />
	<circle cx="403.009461594368" cy="-418.876468041461" r="2" style="fill: rgb(0,0,0)" />
	<circle cx="430.391973642132" cy="-456.565262561055" r="2" style="fill: rgb(0,0,0)" />
	<circle cx="430.391973642152" cy="-511.330286656566" r="2" style="fill: rgb(0,0,0)" />
	<circle cx="403.009461594421" cy="-549.019081176184" r="2" style="fill: rgb(0,0,0)" />
	<circle cx="426.302417602485" cy="-313.341474517362" r="2" style="fill: rgb(0,0,0)" />
	<circle cx="470.6082527931" cy="-327.73731302883" r="2" style="fill: rgb(0,0,0)" />
	<circle cx="502.798326297891" cy="-372.043148219448" r="2" style="fill: rgb(0,0,0)" />
	<circle cx="517.194164809385" cy="-416.348983410051" r="2" style="fill: rgb(0,0,0)" />
	<circle cx="479.505370289781" cy="-443.731495457805" r="2" style="fill: rgb(0,0,0)" />
	<circle cx="140.221353013027" cy="-549.019081176245" r="2" style="fill: rgb(0,0,0)" />
	<circle cx="241.547686805307" cy="-616.617872374965" r="2" style="fill: rgb(0,0,0)" />
	<circle cx="203.858892285713" cy="-644.000384422738" r="2" style="fill: rgb(0,0,0)" />
	<circle cx="166.170097766111" cy="-616.617872374997" r="2" style="fill: rgb(0,0,0)" />
	<circle cx="98.5713065673494" cy="-567.504475727346" r="2" style="fill: rgb(0,0,0)" />
	<circle cx="60.882512047736" cy="-540.121963679613" r="2" style="fill: rgb(0,0,0)" />
	<circle cx="75.2783505592101" cy="-495.816128488998" r="2" style="fill: rgb(0,0,0)" />
	<circle cx="151.053426811696" cy="-240.293585721803" r="2" style="fill: rgb(0,0,0)" />
	<circle cx="306.61899337259" cy="-151.008787877847" r="2" style="fill: rgb(0,0,0)" />
	<circle cx="350.924828563214" cy="-165.4046263893" r="2" style="fill: rgb(0,0,0)" />
	<circle cx="350.92482856324" cy="-211.990538405561" r="2" style="fill: rgb(0,0,0)" />
	<circle cx="236.678133012256" cy="-169.749384929376" r="2" style="fill: rgb(0,0,0)" />
	<circle cx="180.565936277496" cy="-125.18834723839" r="2" style="fill: rgb(0,0,0)" />
	<circle cx="227.151848293745" cy="-125.188347238372" r="2" style="fill: rgb(0,0,0)" />
	<circle cx="121.86426257542" cy="-201.684255933814" r="2" style="fill: rgb(0,0,0)" />
	<circle cx="136.260101086864" cy="-157.378420743203" r="2" style="fill: rgb(0,0,0)" />
	<circle cx="84.8046352776904" cy="-367.698389679504" r="2" style="fill: rgb(0,0,0)" />
	<circle cx="396.492726630024" cy="-556.256648583466" r="2" style="fill: rgb(0,0,0)" />
	<circle cx="435.261527435136" cy="-502.895972076923" r="2" style="fill: rgb(0,0,0)" />
	<circle cx="468.080768161777" cy="-538.712798704301" r="2" style="fill: rgb(0,0,0)" />
	<circle cx="440.698256114053" cy="-576.401593223917" r="2" style="fill: rgb(0,0,0)" />
	<circle cx="501.780312348331" cy="-362.357392483849" r="2" style="fill: rgb(0,0,0)" />
	<circle cx="547.104161488503" cy="-357.647309707949" r="2" style="fill: rgb(0,0,0)" />
	<circle cx="561.5" cy="-401.953144898545" r="2" style="fill: rgb(0,0,0)" />
	<circle cx="157.272980269457" cy="-612.656620448921" r="2" style="fill: rgb(0,0,0)" />
	<circle cx="116.928397004908" cy="-589.363664440806" r="2" style="fill: rgb(0,0,0)" />
	<circle cx="176.476380237965" cy="-681.689178942354" r="2" style="fill: rgb(0,0,0)" />
	<circle cx="138.787585718364" cy="-654.306666894619" r="2" style="fill: rgb(0,0,0)" />
	<circle cx="71.1887945196113" cy="-605.193270246969" r="2" style="fill: rgb(0,0,0)" />
	<circle cx="33.5" cy="-577.810758199242" r="2" style="fill: rgb(0,0,0)" />
	<circle cx="241.547686805231" cy="-161.315070349742" r="2" style="fill: rgb(0,0,0)" />
	<circle cx="268.930198852955" cy="-123.626275830118" r="2" style="fill: rgb(0,0,0)" />
	<circle cx="321.014831884042" cy="-106.70295268722" r="2" style="fill: rgb(0,0,0)" />
	<circle cx="365.320667074662" cy="-121.098791198667" r="2" style="fill: rgb(0,0,0)" />
	<circle cx="140.221353012949" cy="-148.481303246522" r="2" style="fill: rgb(0,0,0)" />
	<circle cx="166.170097766015" cy="-80.8825120477732" r="2" style="fill: rgb(0,0,0)" />
	<circle cx="203.85889228561" cy="-53.5" r="2" style="fill: rgb(0,0,0)" />
	<circle cx="241.547686805214" cy="-80.8825120477411" r="2" style="fill: rgb(0,0,0)" />
	<circle cx="487.02896562992" cy="-581.271147016883" r="2" style="fill: rgb(0,0,0)" />
	<circle cx="116.928397004916" cy="-635.949576457064" r="2" style="fill: rgb(0,0,0)" />
	<circle cx="311.488547165533" cy="-104.678078361968" r="2" style="fill: rgb(0,0,0)" />
	<!--
	Generated using the Perl SVG Module V2.84
	by Ronan Oger
	Info: http://www.roitsystems.com/
	-->
</svg>