<?xml version="1.0" encoding="UTF-8" standalone="yes"?>
<!DOCTYPE svg PUBLIC "-//W3C//DTD SVG 1.0//EN" "http://www.w3.org/TR/2001/REC-SVG-20010904/DTD/svg10.dtd">
<!-- generated using polymake; Michael Joswig, Georg Loho, Benjamin Lorenz, Rico Raber; license CC BY-NC-ND 3.0; see polymake.org and matchthenet.de -->
<svg height="841pt" id="document" viewBox="0 -785.529495960703 572 785.529495960703" width="595pt" xmlns="http://www.w3.org/2000/svg" xmlns:svg="http://www.w3.org/2000/svg" xmlns:xlink="http://www.w3.org/1999/xlink">
	<title id="document_title">planar_net_</title>
	<polygon points="223.673343270394,-345.38858848359 278.757935701248,-345.38858848359 295.780010890602,-397.777149062417 251.215639485829,-430.155060121818 206.651268081049,-397.77714906242 " style="fill: rgb(61,81,50); fill-opacity: 1; stroke: rgb(0,0,0); stroke-width: 3" />
	<polygon points="278.757935701239,-290.303996052727 278.757935701248,-345.38858848359 223.673343270394,-345.38858848359 223.673343270392,-290.303996052734 " style="fill: rgb(61,81,50); fill-opacity: 1; stroke: rgb(0,0,0); stroke-width: 3" />
	<polygon points="169.792481346752,-278.851265302428 128.856651518229,-241.99247856814 165.71543825251,-201.05664873962 206.65126808104,-237.915435473907 " style="fill: rgb(61,81,50); fill-opacity: 1; stroke: rgb(0,0,0); stroke-width: 3" />
	<polygon points="223.673343270392,-290.303996052734 169.792481346752,-278.851265302428 206.65126808104,-237.915435473907 " style="fill: rgb(61,81,50); fill-opacity: 1; stroke: rgb(0,0,0); stroke-width: 3" />
	<polygon points="278.757935701239,-290.303996052727 223.673343270392,-290.303996052734 206.65126808104,-237.915435473907 251.215639485806,-205.5375244145 295.78001089058,-237.915435473893 " style="fill: rgb(61,81,50); fill-opacity: 1; stroke: rgb(0,0,0); stroke-width: 3" />
	<polygon points="295.780010890602,-397.777149062417 278.757935701248,-345.38858848359 331.146496280075,-328.366513294233 348.168571469434,-380.755073873051 " style="fill: rgb(61,81,50); fill-opacity: 1; stroke: rgb(0,0,0); stroke-width: 3" />
	<polygon points="326.462592103479,-317.846292268143 278.757935701248,-345.38858848359 278.757935701239,-290.303996052727 " style="fill: rgb(61,81,50); fill-opacity: 1; stroke: rgb(0,0,0); stroke-width: 3" />
	<polygon points="116.200190260701,-273.281920863404 83.8222792013094,-317.846292268185 39.2579077965247,-285.468381208792 71.6358188559103,-240.904009804013 " style="fill: rgb(61,81,50); fill-opacity: 1; stroke: rgb(0,0,0); stroke-width: 3" />
	<polygon points="128.856651518229,-241.99247856814 111.834576328864,-189.60391798931 165.71543825251,-201.05664873962 " style="fill: rgb(61,81,50); fill-opacity: 1; stroke: rgb(0,0,0); stroke-width: 3" />
	<polygon points="251.215639485806,-205.5375244145 206.65126808104,-237.915435473907 174.273357021628,-193.351064069136 218.837728426386,-160.973153009729 " style="fill: rgb(61,81,50); fill-opacity: 1; stroke: rgb(0,0,0); stroke-width: 3" />
	<polygon points="331.146496280081,-307.326071242061 278.757935701239,-290.303996052727 295.78001089058,-237.915435473893 348.168571469413,-254.937510663231 " style="fill: rgb(61,81,50); fill-opacity: 1; stroke: rgb(0,0,0); stroke-width: 3" />
	<polygon points="246.380024641875,-664.263024322469 290.94439604666,-696.640935381867 273.922320857312,-749.029495960697 218.837728426456,-749.029495960703 201.815653237099,-696.640935381875 " style="fill: rgb(61,81,50); fill-opacity: 1; stroke: rgb(0,0,0); stroke-width: 3" />
	<polygon points="77.3204250379971,-143.951077820433 94.3425002273078,-91.5625172416133 146.731060806155,-108.584592430928 129.708985616836,-160.973153009754 " style="fill: rgb(61,81,50); fill-opacity: 1; stroke: rgb(0,0,0); stroke-width: 3" />
	<polygon points="295.78001089058,-237.915435473893 251.215639485806,-205.5375244145 283.593550545203,-160.973153009717 328.157921949975,-193.351064069101 " style="fill: rgb(61,81,50); fill-opacity: 1; stroke: rgb(0,0,0); stroke-width: 3" />
	<polygon points="251.215639485806,-205.5375244145 218.837728426386,-160.973153009729 273.620561696308,-155.215245213175 " style="fill: rgb(61,81,50); fill-opacity: 1; stroke: rgb(0,0,0); stroke-width: 3" />
	<polygon points="348.168571469413,-254.937510663231 295.78001089058,-237.915435473893 336.715840719091,-201.056648739594 " style="fill: rgb(61,81,50); fill-opacity: 1; stroke: rgb(0,0,0); stroke-width: 3" />
	<polygon points="278.757935701272,-619.698652917679 323.322307106058,-652.076563977086 290.94439604666,-696.640935381867 246.380024641875,-664.263024322469 " style="fill: rgb(61,81,50); fill-opacity: 1; stroke: rgb(0,0,0); stroke-width: 3" />
	<polygon points="146.731060806152,-53.5000000000706 201.815653236995,-53.5000000000514 201.815653237004,-108.584592430913 146.731060806155,-108.584592430928 " style="fill: rgb(61,81,50); fill-opacity: 1; stroke: rgb(0,0,0); stroke-width: 3" />
	<polygon points="135.278330055799,-54.7037305072919 146.731060806155,-108.584592430928 94.3425002273078,-91.5625172416133 " style="fill: rgb(61,81,50); fill-opacity: 1; stroke: rgb(0,0,0); stroke-width: 3" />
	<polygon points="372.722293354739,-160.973153009684 328.157921949975,-193.351064069101 283.593550545203,-160.973153009717 300.615625734547,-108.584592430887 355.700218165387,-108.584592430864 " style="fill: rgb(61,81,50); fill-opacity: 1; stroke: rgb(0,0,0); stroke-width: 3" />
	<polygon points="412.451049915605,-482.54362070063 395.428974726246,-430.155060121808 447.817535305071,-413.132984932447 464.839610494434,-465.521545511262 " style="fill: rgb(61,81,50); fill-opacity: 1; stroke: rgb(0,0,0); stroke-width: 3" />
	<polygon points="323.322307106058,-652.076563977086 345.72722931659,-702.398843178391 290.94439604666,-696.640935381867 " style="fill: rgb(61,81,50); fill-opacity: 1; stroke: rgb(0,0,0); stroke-width: 3" />
	<polygon points="472.371257190446,-611.874463743624 516.93562859522,-579.496552684231 561.5,-611.87446374363 544.477924810658,-664.263024322453 489.393332379805,-664.263024322449 " style="fill: rgb(61,81,50); fill-opacity: 1; stroke: rgb(0,0,0); stroke-width: 3" />
	<polygon points="323.322307106058,-652.076563977086 367.886678510838,-619.698652917687 400.264589570239,-664.263024322466 355.700218165465,-696.640935381865 " style="fill: rgb(61,81,50); fill-opacity: 1; stroke: rgb(0,0,0); stroke-width: 3" />
	<polygon points="350.864603321482,-567.310092338851 395.428974726259,-534.932181279454 427.80688578566,-579.496552684233 383.24251438089,-611.874463743632 " style="fill: rgb(61,81,50); fill-opacity: 1; stroke: rgb(0,0,0); stroke-width: 3" />
	<polygon points="484.557717535825,-534.932181279447 539.340550805754,-529.174273482928 516.93562859522,-579.496552684231 " style="fill: rgb(61,81,50); fill-opacity: 1; stroke: rgb(0,0,0); stroke-width: 3" />
	<polygon points="383.24251438089,-611.874463743632 427.80688578566,-579.496552684233 433.564793582179,-634.279385954162 " style="fill: rgb(61,81,50); fill-opacity: 1; stroke: rgb(0,0,0); stroke-width: 3" />
	<polygon points="439.993346131041,-567.310092338838 484.557717535825,-534.932181279447 516.93562859522,-579.496552684231 472.371257190446,-611.874463743624 " style="fill: rgb(61,81,50); fill-opacity: 1; stroke: rgb(0,0,0); stroke-width: 3" />
	<polygon points="395.428974726259,-534.932181279454 412.451049915605,-482.54362070063 467.535642346467,-482.543620700631 484.557717535825,-534.932181279447 439.993346131041,-567.310092338838 " style="fill: rgb(61,81,50); fill-opacity: 1; stroke: rgb(0,0,0); stroke-width: 3" />
	<polygon points="484.557717535825,-534.932181279447 467.535642346467,-482.543620700631 519.924202925292,-465.521545511269 536.946278114652,-517.910106090078 " style="fill: rgb(61,81,50); fill-opacity: 1; stroke: rgb(0,0,0); stroke-width: 3" />
	<polygon points="355.700218165387,-108.584592430864 300.615625734547,-108.584592430887 300.615625734545,-53.5000000000289 355.700218165378,-53.5 " style="fill: rgb(61,81,50); fill-opacity: 1; stroke: rgb(0,0,0); stroke-width: 3" />
	<polygon points="464.839610494434,-465.521545511262 447.817535305071,-413.132984932447 501.698397228718,-424.585715682752 " style="fill: rgb(61,81,50); fill-opacity: 1; stroke: rgb(0,0,0); stroke-width: 3" />
	<polygon points="267.862653899744,-100.432411943249 213.079820629831,-106.190319739807 235.484742840319,-55.8680405384849 " style="fill: rgb(61,81,50); fill-opacity: 1; stroke: rgb(0,0,0); stroke-width: 3" />
	<polygon points="295.780010890624,-567.310092338854 350.864603321482,-567.310092338851 367.886678510838,-619.698652917687 323.322307106058,-652.076563977086 278.757935701272,-619.698652917679 " style="fill: rgb(61,81,50); fill-opacity: 1; stroke: rgb(0,0,0); stroke-width: 3" />
	<polygon points="489.393332379805,-664.263024322449 544.477924810658,-664.263024322453 544.477924810662,-719.347616753311 489.393332379816,-719.347616753313 " style="fill: rgb(61,81,50); fill-opacity: 1; stroke: rgb(0,0,0); stroke-width: 3" />
	<polygon points="420.275239089635,-328.366513294204 375.710867684853,-295.988602234826 408.088778744235,-251.424230830034 452.653150149016,-283.802141889402 " style="fill: rgb(61,81,50); fill-opacity: 1; stroke: rgb(0,0,0); stroke-width: 3" />
	<polygon points="267.862653899744,-100.432411943249 273.620561696308,-155.215245213175 218.837728426386,-160.973153009729 213.079820629831,-106.190319739807 " style="fill: rgb(61,81,50); fill-opacity: 1; stroke: rgb(0,0,0); stroke-width: 3" />
	<polygon points="218.837728426449,-579.496552684254 263.402099831233,-611.87446374364 213.079820629929,-634.27938595417 " style="fill: rgb(61,81,50); fill-opacity: 1; stroke: rgb(0,0,0); stroke-width: 3" />
	<polygon points="251.215639485838,-534.93218127946 295.780010890624,-567.310092338854 263.402099831233,-611.87446374364 218.837728426449,-579.496552684254 " style="fill: rgb(61,81,50); fill-opacity: 1; stroke: rgb(0,0,0); stroke-width: 3" />
	<polygon points="348.168571469434,-380.755073873051 331.146496280075,-328.366513294233 375.710867684853,-295.988602234826 420.275239089635,-328.366513294204 403.253163900286,-380.75507387303 " style="fill: rgb(61,81,50); fill-opacity: 1; stroke: rgb(0,0,0); stroke-width: 3" />
	<polygon points="218.837728426386,-160.973153009729 174.273357021628,-193.351064069136 129.708985616836,-160.973153009754 146.731060806155,-108.584592430928 201.815653237004,-108.584592430913 " style="fill: rgb(61,81,50); fill-opacity: 1; stroke: rgb(0,0,0); stroke-width: 3" />
	<polygon points="162.086896676281,-534.932181279486 206.651268081065,-567.310092338873 174.273357021678,-611.874463743661 129.708985616895,-579.49655268428 " style="fill: rgb(61,81,50); fill-opacity: 1; stroke: rgb(0,0,0); stroke-width: 3" />
	<polygon points="33.5,-340.251214478715 39.2579077965247,-285.468381208792 83.8222792013094,-317.846292268185 " style="fill: rgb(61,81,50); fill-opacity: 1; stroke: rgb(0,0,0); stroke-width: 3" />
	<polygon points="251.215639485829,-430.155060121818 295.780010890602,-397.777149062417 350.86460332146,-397.777149062415 395.428974726246,-430.155060121808 412.451049915605,-482.54362070063 395.428974726259,-534.932181279454 350.864603321482,-567.310092338851 295.780010890624,-567.310092338854 251.215639485838,-534.93218127946 234.193564296479,-482.543620700638 " style="fill: rgb(61,81,50); fill-opacity: 1; stroke: rgb(0,0,0); stroke-width: 3" />
	<polygon points="234.193564296479,-482.543620700638 251.215639485838,-534.93218127946 206.651268081065,-567.310092338873 162.086896676281,-534.932181279486 179.108971865623,-482.543620700649 " style="fill: rgb(61,81,50); fill-opacity: 1; stroke: rgb(0,0,0); stroke-width: 3" />
	<polygon points="179.108971865623,-482.543620700649 162.086896676281,-534.932181279486 125.228109941981,-493.996351450965 " style="fill: rgb(61,81,50); fill-opacity: 1; stroke: rgb(0,0,0); stroke-width: 3" />
	<polygon points="71.6358188559436,-394.788574732363 39.2579077965378,-350.224203327605 83.8222792013094,-317.846292268185 116.200190260715,-362.410663672952 " style="fill: rgb(61,81,50); fill-opacity: 1; stroke: rgb(0,0,0); stroke-width: 3" />
	<polygon points="206.651268081049,-397.77714906242 251.215639485829,-430.155060121818 218.837728426433,-474.719431526599 174.273357021654,-442.341520467209 " style="fill: rgb(61,81,50); fill-opacity: 1; stroke: rgb(0,0,0); stroke-width: 3" />
	<polygon points="223.673343270394,-345.38858848359 206.651268081049,-397.77714906242 169.792481346748,-356.841319233912 " style="fill: rgb(61,81,50); fill-opacity: 1; stroke: rgb(0,0,0); stroke-width: 3" />
	<polygon points="206.651268081049,-397.77714906242 174.273357021654,-442.341520467209 129.708985616868,-409.963609407819 162.086896676256,-365.399238003031 " style="fill: rgb(61,81,50); fill-opacity: 1; stroke: rgb(0,0,0); stroke-width: 3" />
	<polygon points="168.588750839539,-345.388588483593 116.200190260715,-362.410663672952 83.8222792013094,-317.846292268185 116.200190260701,-273.281920863404 168.588750839532,-290.303996052743 " style="fill: rgb(61,81,50); fill-opacity: 1; stroke: rgb(0,0,0); stroke-width: 3" />
	<polygon points="223.673343270394,-345.38858848359 168.588750839539,-345.388588483593 168.588750839532,-290.303996052743 223.673343270392,-290.303996052734 " style="fill: rgb(61,81,50); fill-opacity: 1; stroke: rgb(0,0,0); stroke-width: 3" />
	<circle cx="223.673343270394" cy="-345.38858848359" r="2" style="fill: rgb(0,0,0)" />
	<circle cx="278.757935701248" cy="-345.38858848359" r="2" style="fill: rgb(0,0,0)" />
	<circle cx="295.780010890602" cy="-397.777149062417" r="2" style="fill: rgb(0,0,0)" />
	<circle cx="251.215639485829" cy="-430.155060121818" r="2" style="fill: rgb(0,0,0)" />
	<circle cx="206.651268081049" cy="-397.77714906242" r="2" style="fill: rgb(0,0,0)" />
	<circle cx="223.673343270392" cy="-290.303996052734" r="2" style="fill: rgb(0,0,0)" />
	<circle cx="278.757935701239" cy="-290.303996052727" r="2" style="fill: rgb(0,0,0)" />
	<circle cx="331.146496280075" cy="-328.366513294233" r="2" style="fill: rgb(0,0,0)" />
	<circle cx="348.168571469434" cy="-380.755073873051" r="2" style="fill: rgb(0,0,0)" />
	<circle cx="350.86460332146" cy="-397.777149062415" r="2" style="fill: rgb(0,0,0)" />
	<circle cx="395.428974726246" cy="-430.155060121808" r="2" style="fill: rgb(0,0,0)" />
	<circle cx="412.451049915605" cy="-482.54362070063" r="2" style="fill: rgb(0,0,0)" />
	<circle cx="395.428974726259" cy="-534.932181279454" r="2" style="fill: rgb(0,0,0)" />
	<circle cx="350.864603321482" cy="-567.310092338851" r="2" style="fill: rgb(0,0,0)" />
	<circle cx="295.780010890624" cy="-567.310092338854" r="2" style="fill: rgb(0,0,0)" />
	<circle cx="251.215639485838" cy="-534.93218127946" r="2" style="fill: rgb(0,0,0)" />
	<circle cx="234.193564296479" cy="-482.543620700638" r="2" style="fill: rgb(0,0,0)" />
	<circle cx="218.837728426433" cy="-474.719431526599" r="2" style="fill: rgb(0,0,0)" />
	<circle cx="174.273357021654" cy="-442.341520467209" r="2" style="fill: rgb(0,0,0)" />
	<circle cx="169.792481346748" cy="-356.841319233912" r="2" style="fill: rgb(0,0,0)" />
	<circle cx="206.65126808104" cy="-237.915435473907" r="2" style="fill: rgb(0,0,0)" />
	<circle cx="251.215639485806" cy="-205.5375244145" r="2" style="fill: rgb(0,0,0)" />
	<circle cx="295.78001089058" cy="-237.915435473893" r="2" style="fill: rgb(0,0,0)" />
	<circle cx="326.462592103479" cy="-317.846292268143" r="2" style="fill: rgb(0,0,0)" />
	<circle cx="168.588750839539" cy="-345.388588483593" r="2" style="fill: rgb(0,0,0)" />
	<circle cx="168.588750839532" cy="-290.303996052743" r="2" style="fill: rgb(0,0,0)" />
	<circle cx="375.710867684853" cy="-295.988602234826" r="2" style="fill: rgb(0,0,0)" />
	<circle cx="420.275239089635" cy="-328.366513294204" r="2" style="fill: rgb(0,0,0)" />
	<circle cx="403.253163900286" cy="-380.75507387303" r="2" style="fill: rgb(0,0,0)" />
	<circle cx="447.817535305071" cy="-413.132984932447" r="2" style="fill: rgb(0,0,0)" />
	<circle cx="464.839610494434" cy="-465.521545511262" r="2" style="fill: rgb(0,0,0)" />
	<circle cx="427.80688578566" cy="-579.496552684233" r="2" style="fill: rgb(0,0,0)" />
	<circle cx="383.24251438089" cy="-611.874463743632" r="2" style="fill: rgb(0,0,0)" />
	<circle cx="467.535642346467" cy="-482.543620700631" r="2" style="fill: rgb(0,0,0)" />
	<circle cx="484.557717535825" cy="-534.932181279447" r="2" style="fill: rgb(0,0,0)" />
	<circle cx="439.993346131041" cy="-567.310092338838" r="2" style="fill: rgb(0,0,0)" />
	<circle cx="367.886678510838" cy="-619.698652917687" r="2" style="fill: rgb(0,0,0)" />
	<circle cx="323.322307106058" cy="-652.076563977086" r="2" style="fill: rgb(0,0,0)" />
	<circle cx="278.757935701272" cy="-619.698652917679" r="2" style="fill: rgb(0,0,0)" />
	<circle cx="263.402099831233" cy="-611.87446374364" r="2" style="fill: rgb(0,0,0)" />
	<circle cx="218.837728426449" cy="-579.496552684254" r="2" style="fill: rgb(0,0,0)" />
	<circle cx="206.651268081065" cy="-567.310092338873" r="2" style="fill: rgb(0,0,0)" />
	<circle cx="162.086896676281" cy="-534.932181279486" r="2" style="fill: rgb(0,0,0)" />
	<circle cx="179.108971865623" cy="-482.543620700649" r="2" style="fill: rgb(0,0,0)" />
	<circle cx="129.708985616868" cy="-409.963609407819" r="2" style="fill: rgb(0,0,0)" />
	<circle cx="162.086896676256" cy="-365.399238003031" r="2" style="fill: rgb(0,0,0)" />
	<circle cx="169.792481346752" cy="-278.851265302428" r="2" style="fill: rgb(0,0,0)" />
	<circle cx="174.273357021628" cy="-193.351064069136" r="2" style="fill: rgb(0,0,0)" />
	<circle cx="218.837728426386" cy="-160.973153009729" r="2" style="fill: rgb(0,0,0)" />
	<circle cx="348.168571469413" cy="-254.937510663231" r="2" style="fill: rgb(0,0,0)" />
	<circle cx="331.146496280081" cy="-307.326071242061" r="2" style="fill: rgb(0,0,0)" />
	<circle cx="283.593550545203" cy="-160.973153009717" r="2" style="fill: rgb(0,0,0)" />
	<circle cx="328.157921949975" cy="-193.351064069101" r="2" style="fill: rgb(0,0,0)" />
	<circle cx="116.200190260715" cy="-362.410663672952" r="2" style="fill: rgb(0,0,0)" />
	<circle cx="83.8222792013094" cy="-317.846292268185" r="2" style="fill: rgb(0,0,0)" />
	<circle cx="116.200190260701" cy="-273.281920863404" r="2" style="fill: rgb(0,0,0)" />
	<circle cx="408.088778744235" cy="-251.424230830034" r="2" style="fill: rgb(0,0,0)" />
	<circle cx="452.653150149016" cy="-283.802141889402" r="2" style="fill: rgb(0,0,0)" />
	<circle cx="501.698397228718" cy="-424.585715682752" r="2" style="fill: rgb(0,0,0)" />
	<circle cx="433.564793582179" cy="-634.279385954162" r="2" style="fill: rgb(0,0,0)" />
	<circle cx="516.93562859522" cy="-579.496552684231" r="2" style="fill: rgb(0,0,0)" />
	<circle cx="472.371257190446" cy="-611.874463743624" r="2" style="fill: rgb(0,0,0)" />
	<circle cx="519.924202925292" cy="-465.521545511269" r="2" style="fill: rgb(0,0,0)" />
	<circle cx="536.946278114652" cy="-517.910106090078" r="2" style="fill: rgb(0,0,0)" />
	<circle cx="290.94439604666" cy="-696.640935381867" r="2" style="fill: rgb(0,0,0)" />
	<circle cx="246.380024641875" cy="-664.263024322469" r="2" style="fill: rgb(0,0,0)" />
	<circle cx="400.264589570239" cy="-664.263024322466" r="2" style="fill: rgb(0,0,0)" />
	<circle cx="355.700218165465" cy="-696.640935381865" r="2" style="fill: rgb(0,0,0)" />
	<circle cx="213.079820629929" cy="-634.27938595417" r="2" style="fill: rgb(0,0,0)" />
	<circle cx="174.273357021678" cy="-611.874463743661" r="2" style="fill: rgb(0,0,0)" />
	<circle cx="129.708985616895" cy="-579.49655268428" r="2" style="fill: rgb(0,0,0)" />
	<circle cx="125.228109941981" cy="-493.996351450965" r="2" style="fill: rgb(0,0,0)" />
	<circle cx="128.856651518229" cy="-241.99247856814" r="2" style="fill: rgb(0,0,0)" />
	<circle cx="165.71543825251" cy="-201.05664873962" r="2" style="fill: rgb(0,0,0)" />
	<circle cx="273.620561696308" cy="-155.215245213175" r="2" style="fill: rgb(0,0,0)" />
	<circle cx="129.708985616836" cy="-160.973153009754" r="2" style="fill: rgb(0,0,0)" />
	<circle cx="146.731060806155" cy="-108.584592430928" r="2" style="fill: rgb(0,0,0)" />
	<circle cx="201.815653237004" cy="-108.584592430913" r="2" style="fill: rgb(0,0,0)" />
	<circle cx="336.715840719091" cy="-201.056648739594" r="2" style="fill: rgb(0,0,0)" />
	<circle cx="300.615625734547" cy="-108.584592430887" r="2" style="fill: rgb(0,0,0)" />
	<circle cx="355.700218165387" cy="-108.584592430864" r="2" style="fill: rgb(0,0,0)" />
	<circle cx="372.722293354739" cy="-160.973153009684" r="2" style="fill: rgb(0,0,0)" />
	<circle cx="39.2579077965247" cy="-285.468381208792" r="2" style="fill: rgb(0,0,0)" />
	<circle cx="71.6358188559103" cy="-240.904009804013" r="2" style="fill: rgb(0,0,0)" />
	<circle cx="71.6358188559436" cy="-394.788574732363" r="2" style="fill: rgb(0,0,0)" />
	<circle cx="39.2579077965378" cy="-350.224203327605" r="2" style="fill: rgb(0,0,0)" />
	<circle cx="561.5" cy="-611.87446374363" r="2" style="fill: rgb(0,0,0)" />
	<circle cx="544.477924810658" cy="-664.263024322453" r="2" style="fill: rgb(0,0,0)" />
	<circle cx="489.393332379805" cy="-664.263024322449" r="2" style="fill: rgb(0,0,0)" />
	<circle cx="539.340550805754" cy="-529.174273482928" r="2" style="fill: rgb(0,0,0)" />
	<circle cx="273.922320857312" cy="-749.029495960697" r="2" style="fill: rgb(0,0,0)" />
	<circle cx="218.837728426456" cy="-749.029495960703" r="2" style="fill: rgb(0,0,0)" />
	<circle cx="201.815653237099" cy="-696.640935381875" r="2" style="fill: rgb(0,0,0)" />
	<circle cx="345.72722931659" cy="-702.398843178391" r="2" style="fill: rgb(0,0,0)" />
	<circle cx="111.834576328864" cy="-189.60391798931" r="2" style="fill: rgb(0,0,0)" />
	<circle cx="213.079820629831" cy="-106.190319739807" r="2" style="fill: rgb(0,0,0)" />
	<circle cx="267.862653899744" cy="-100.432411943249" r="2" style="fill: rgb(0,0,0)" />
	<circle cx="77.3204250379971" cy="-143.951077820433" r="2" style="fill: rgb(0,0,0)" />
	<circle cx="94.3425002273078" cy="-91.5625172416133" r="2" style="fill: rgb(0,0,0)" />
	<circle cx="146.731060806152" cy="-53.5000000000706" r="2" style="fill: rgb(0,0,0)" />
	<circle cx="201.815653236995" cy="-53.5000000000514" r="2" style="fill: rgb(0,0,0)" />
	<circle cx="300.615625734545" cy="-53.5000000000289" r="2" style="fill: rgb(0,0,0)" />
	<circle cx="355.700218165378" cy="-53.5" r="2" style="fill: rgb(0,0,0)" />
	<circle cx="33.5" cy="-340.251214478715" r="2" style="fill: rgb(0,0,0)" />
	<circle cx="544.477924810662" cy="-719.347616753311" r="2" style="fill: rgb(0,0,0)" />
	<circle cx="489.393332379816" cy="-719.347616753313" r="2" style="fill: rgb(0,0,0)" />
	<circle cx="235.484742840319" cy="-55.8680405384849" r="2" style="fill: rgb(0,0,0)" />
	<circle cx="135.278330055799" cy="-54.7037305072919" r="2" style="fill: rgb(0,0,0)" />
	<!--
	Generated using the Perl SVG Module V2.84
	by Ronan Oger
	Info: http://www.roitsystems.com/
	-->
</svg>