<?xml version="1.0" encoding="UTF-8" standalone="yes"?>
<!DOCTYPE svg PUBLIC "-//W3C//DTD SVG 1.0//EN" "http://www.w3.org/TR/2001/REC-SVG-20010904/DTD/svg10.dtd">
<!-- generated using polymake; Michael Joswig, Georg Loho, Benjamin Lorenz, Rico Raber; license CC BY-NC-ND 3.0; see polymake.org and matchthenet.de -->
<svg height="841pt" id="document" viewBox="0 -811 465.436376778167 811" width="595pt" xmlns="http://www.w3.org/2000/svg" xmlns:svg="http://www.w3.org/2000/svg" xmlns:xlink="http://www.w3.org/1999/xlink">
	<title id="document_title">planar_net_</title>
	<polygon points="204.402268400564,-413.999999999991 399.719146572566,-413.999999999991 305.635694836466,-466.054805961079 206.86864483937,-423.552234872994 " style="fill: rgb(14,173,105); fill-opacity: 1; stroke: rgb(0,0,0); stroke-width: 3" />
	<polygon points="204.402268400564,-413.999999999991 206.868644839383,-404.447765126988 305.635694836466,-361.945194038903 399.719146572566,-413.999999999991 " style="fill: rgb(14,173,105); fill-opacity: 1; stroke: rgb(0,0,0); stroke-width: 3" />
	<polygon points="295.957055043692,-248.524590163937 399.719146572566,-413.999999999991 305.635694836466,-361.945194038903 289.174519836955,-255.688766318689 " style="fill: rgb(14,173,105); fill-opacity: 1; stroke: rgb(0,0,0); stroke-width: 3" />
	<polygon points="393.838930839059,-306.636962705248 399.719146572566,-413.999999999991 295.957055043692,-248.524590163937 305.360115216677,-245.539516766118 " style="fill: rgb(14,173,105); fill-opacity: 1; stroke: rgb(0,0,0); stroke-width: 3" />
	<polygon points="295.957055043676,-579.475409836039 399.719146572566,-413.999999999991 393.83893083905,-521.363037294735 305.360115216642,-582.460483233848 " style="fill: rgb(14,173,105); fill-opacity: 1; stroke: rgb(0,0,0); stroke-width: 3" />
	<polygon points="305.635694836466,-466.054805961079 399.719146572566,-413.999999999991 295.957055043676,-579.475409836039 289.174519836939,-572.311233681286 " style="fill: rgb(14,173,105); fill-opacity: 1; stroke: rgb(0,0,0); stroke-width: 3" />
	<polygon points="204.402268400564,-413.999999999991 206.86864483937,-423.552234872994 141.023944841247,-508.557377049115 33.5,-508.557377049067 " style="fill: rgb(14,173,105); fill-opacity: 1; stroke: rgb(0,0,0); stroke-width: 3" />
	<polygon points="204.402268400564,-413.999999999991 33.5000000001,-319.442622950737 141.023944841362,-319.442622950782 206.868644839383,-404.447765126988 " style="fill: rgb(14,173,105); fill-opacity: 1; stroke: rgb(0,0,0); stroke-width: 3" />
	<polygon points="182.176882340109,-245.063123546664 125.054786643194,-153.967213114757 295.957055043692,-248.524590163937 289.174519836955,-255.688766318689 " style="fill: rgb(14,173,105); fill-opacity: 1; stroke: rgb(0,0,0); stroke-width: 3" />
	<polygon points="305.360115216677,-245.539516766118 295.957055043692,-248.524590163937 285.275663268613,-53.5 342.397758965598,-144.59591043189 " style="fill: rgb(14,173,105); fill-opacity: 1; stroke: rgb(0,0,0); stroke-width: 3" />
	<polygon points="295.957055043676,-579.475409836039 305.360115216642,-582.460483233848 342.397758965558,-683.404089568051 285.27566326877,-774.5 " style="fill: rgb(14,173,105); fill-opacity: 1; stroke: rgb(0,0,0); stroke-width: 3" />
	<polygon points="289.174519836939,-572.311233681286 295.957055043676,-579.475409836039 125.054786643175,-674.032786885226 182.176882340093,-582.93687645331 " style="fill: rgb(14,173,105); fill-opacity: 1; stroke: rgb(0,0,0); stroke-width: 3" />
	<polygon points="305.360115216642,-582.460483233848 393.83893083905,-521.363037294735 454.936376778167,-609.841852917142 366.457561155761,-670.939298856252 " style="fill: rgb(14,173,105); fill-opacity: 1; stroke: rgb(0,0,0); stroke-width: 3" />
	<polygon points="206.868644839383,-404.447765126988 164.366073751294,-305.680715129896 263.13312374837,-263.178144041811 305.635694836466,-361.945194038903 " style="fill: rgb(14,173,105); fill-opacity: 1; stroke: rgb(0,0,0); stroke-width: 3" />
	<polygon points="206.86864483937,-423.552234872994 305.635694836466,-466.054805961079 263.133123748386,-564.821855958174 164.366073751291,-522.319284870093 " style="fill: rgb(14,173,105); fill-opacity: 1; stroke: rgb(0,0,0); stroke-width: 3" />
	<circle cx="204.402268400564" cy="-413.999999999991" r="2" style="fill: rgb(0,0,0)" />
	<circle cx="399.719146572566" cy="-413.999999999991" r="2" style="fill: rgb(0,0,0)" />
	<circle cx="305.635694836466" cy="-466.054805961079" r="2" style="fill: rgb(0,0,0)" />
	<circle cx="206.86864483937" cy="-423.552234872994" r="2" style="fill: rgb(0,0,0)" />
	<circle cx="206.868644839383" cy="-404.447765126988" r="2" style="fill: rgb(0,0,0)" />
	<circle cx="305.635694836466" cy="-361.945194038903" r="2" style="fill: rgb(0,0,0)" />
	<circle cx="295.957055043676" cy="-579.475409836039" r="2" style="fill: rgb(0,0,0)" />
	<circle cx="289.174519836939" cy="-572.311233681286" r="2" style="fill: rgb(0,0,0)" />
	<circle cx="141.023944841247" cy="-508.557377049115" r="2" style="fill: rgb(0,0,0)" />
	<circle cx="33.5" cy="-508.557377049067" r="2" style="fill: rgb(0,0,0)" />
	<circle cx="263.133123748386" cy="-564.821855958174" r="2" style="fill: rgb(0,0,0)" />
	<circle cx="164.366073751291" cy="-522.319284870093" r="2" style="fill: rgb(0,0,0)" />
	<circle cx="289.174519836955" cy="-255.688766318689" r="2" style="fill: rgb(0,0,0)" />
	<circle cx="295.957055043692" cy="-248.524590163937" r="2" style="fill: rgb(0,0,0)" />
	<circle cx="33.5000000001" cy="-319.442622950737" r="2" style="fill: rgb(0,0,0)" />
	<circle cx="141.023944841362" cy="-319.442622950782" r="2" style="fill: rgb(0,0,0)" />
	<circle cx="164.366073751294" cy="-305.680715129896" r="2" style="fill: rgb(0,0,0)" />
	<circle cx="263.13312374837" cy="-263.178144041811" r="2" style="fill: rgb(0,0,0)" />
	<circle cx="393.83893083905" cy="-521.363037294735" r="2" style="fill: rgb(0,0,0)" />
	<circle cx="305.360115216642" cy="-582.460483233848" r="2" style="fill: rgb(0,0,0)" />
	<circle cx="125.054786643175" cy="-674.032786885226" r="2" style="fill: rgb(0,0,0)" />
	<circle cx="182.176882340093" cy="-582.93687645331" r="2" style="fill: rgb(0,0,0)" />
	<circle cx="305.360115216677" cy="-245.539516766118" r="2" style="fill: rgb(0,0,0)" />
	<circle cx="393.838930839059" cy="-306.636962705248" r="2" style="fill: rgb(0,0,0)" />
	<circle cx="182.176882340109" cy="-245.063123546664" r="2" style="fill: rgb(0,0,0)" />
	<circle cx="125.054786643194" cy="-153.967213114757" r="2" style="fill: rgb(0,0,0)" />
	<circle cx="342.397758965558" cy="-683.404089568051" r="2" style="fill: rgb(0,0,0)" />
	<circle cx="285.27566326877" cy="-774.5" r="2" style="fill: rgb(0,0,0)" />
	<circle cx="454.936376778167" cy="-609.841852917142" r="2" style="fill: rgb(0,0,0)" />
	<circle cx="366.457561155761" cy="-670.939298856252" r="2" style="fill: rgb(0,0,0)" />
	<circle cx="285.275663268613" cy="-53.5" r="2" style="fill: rgb(0,0,0)" />
	<circle cx="342.397758965598" cy="-144.59591043189" r="2" style="fill: rgb(0,0,0)" />
	<!--
	Generated using the Perl SVG Module V2.86
	by Ronan Oger
	Info: http://www.roitsystems.com/
	-->
</svg>