<?xml version="1.0" encoding="UTF-8" standalone="yes"?>
<!DOCTYPE svg PUBLIC "-//W3C//DTD SVG 1.0//EN" "http://www.w3.org/TR/2001/REC-SVG-20010904/DTD/svg10.dtd">
<!-- generated using polymake; Michael Joswig, Georg Loho, Benjamin Lorenz, Rico Raber; license CC BY-NC-ND 3.0; see polymake.org and matchthenet.de -->
<svg height="841pt" id="document" viewBox="0 -727.889309942026 572 727.889309942026" width="595pt" xmlns="http://www.w3.org/2000/svg" xmlns:svg="http://www.w3.org/2000/svg" xmlns:xlink="http://www.w3.org/1999/xlink">
	<title id="document_title">planar_net_</title>
	<polygon points="237.929832477596,-372.444654971014 294.434015948318,-372.444654971014 289.744124938489,-493.000725861997 " style="fill: rgb(14,173,105); fill-opacity: 1; stroke: rgb(0,0,0); stroke-width: 3" />
	<polygon points="289.744124938488,-251.888584080032 294.434015948318,-372.444654971014 237.929832477596,-372.444654971014 " style="fill: rgb(14,173,105); fill-opacity: 1; stroke: rgb(0,0,0); stroke-width: 3" />
	<polygon points="289.744124938489,-493.000725861997 294.434015948318,-372.444654971014 348.667150809594,-377.939646428288 " style="fill: rgb(14,173,105); fill-opacity: 1; stroke: rgb(0,0,0); stroke-width: 3" />
	<polygon points="237.929832477596,-372.444654971014 289.744124938489,-493.000725861997 197.137127754402,-413.412011908705 " style="fill: rgb(14,173,105); fill-opacity: 1; stroke: rgb(0,0,0); stroke-width: 3" />
	<polygon points="348.667150809591,-366.949663513742 294.434015948318,-372.444654971014 289.744124938488,-251.888584080032 " style="fill: rgb(14,173,105); fill-opacity: 1; stroke: rgb(0,0,0); stroke-width: 3" />
	<polygon points="237.929832477596,-372.444654971014 197.137127754403,-331.47729803332 289.744124938488,-251.888584080032 " style="fill: rgb(14,173,105); fill-opacity: 1; stroke: rgb(0,0,0); stroke-width: 3" />
	<polygon points="289.744124938489,-493.000725861997 348.667150809594,-377.939646428288 383.784837197899,-418.551818485088 " style="fill: rgb(14,173,105); fill-opacity: 1; stroke: rgb(0,0,0); stroke-width: 3" />
	<polygon points="237.929832477596,-372.444654971014 197.137127754402,-413.412011908705 171.595224823599,-385.004823264882 184.983845379326,-349.226309998026 " style="fill: rgb(67,184,206); fill-opacity: 1; stroke: rgb(0,0,0); stroke-width: 3" />
	<polygon points="348.667150809591,-366.949663513742 289.744124938488,-251.888584080032 383.784837197894,-326.337491456943 " style="fill: rgb(14,173,105); fill-opacity: 1; stroke: rgb(0,0,0); stroke-width: 3" />
	<polygon points="197.137127754402,-413.412011908705 289.744124938489,-493.000725861997 161.135879917694,-460.306021220714 " style="fill: rgb(14,173,105); fill-opacity: 1; stroke: rgb(0,0,0); stroke-width: 3" />
	<polygon points="383.784837197899,-418.551818485088 348.667150809594,-377.939646428288 399.636374391203,-361.065445293808 408.82651960953,-394.528246806401 " style="fill: rgb(67,184,206); fill-opacity: 1; stroke: rgb(0,0,0); stroke-width: 3" />
	<polygon points="197.137127754402,-413.412011908705 151.570566534466,-451.079324710985 133.902957801521,-394.090844696647 171.595224823599,-385.004823264882 " style="fill: rgb(67,184,206); fill-opacity: 1; stroke: rgb(0,0,0); stroke-width: 3" />
	<polygon points="197.137127754403,-331.47729803332 161.135879917697,-284.583288721307 289.744124938488,-251.888584080032 " style="fill: rgb(14,173,105); fill-opacity: 1; stroke: rgb(0,0,0); stroke-width: 3" />
	<polygon points="289.744124938489,-493.000725861997 383.784837197899,-418.551818485088 415.255492227154,-462.051224095606 " style="fill: rgb(14,173,105); fill-opacity: 1; stroke: rgb(0,0,0); stroke-width: 3" />
	<polygon points="161.135879917694,-460.306021220714 289.744124938489,-493.000725861997 170.370892998417,-518.699963445517 " style="fill: rgb(14,173,105); fill-opacity: 1; stroke: rgb(0,0,0); stroke-width: 3" />
	<polygon points="184.983845379326,-349.226309998026 171.595224823599,-385.004823264882 133.190377008133,-390.327458231957 128.800901503301,-330.824821672924 " style="fill: rgb(67,184,206); fill-opacity: 1; stroke: rgb(0,0,0); stroke-width: 3" />
	<polygon points="383.784837197899,-418.551818485088 408.82651960953,-394.528246806401 441.879288094088,-405.098599199398 422.905285334773,-455.323967647312 " style="fill: rgb(67,184,206); fill-opacity: 1; stroke: rgb(0,0,0); stroke-width: 3" />
	<polygon points="383.784837197894,-326.337491456943 289.744124938488,-251.888584080032 415.255492227146,-282.838085846431 " style="fill: rgb(14,173,105); fill-opacity: 1; stroke: rgb(0,0,0); stroke-width: 3" />
	<polygon points="133.902957801521,-394.090844696647 151.570566534466,-451.079324710985 92.1029513832756,-446.238456925611 97.351035601144,-407.618528633584 " style="fill: rgb(67,184,206); fill-opacity: 1; stroke: rgb(0,0,0); stroke-width: 3" />
	<polygon points="289.744124938488,-251.888584080032 161.135879917697,-284.583288721307 170.370892998421,-226.189346496502 " style="fill: rgb(14,173,105); fill-opacity: 1; stroke: rgb(0,0,0); stroke-width: 3" />
	<polygon points="289.744124938489,-493.000725861997 415.255492227154,-462.051224095606 408.159777123847,-516.098228408238 " style="fill: rgb(14,173,105); fill-opacity: 1; stroke: rgb(0,0,0); stroke-width: 3" />
	<polygon points="408.82651960953,-394.528246806401 399.636374391203,-361.065445293808 452.074587202005,-349.540070955096 442.625639700553,-402.391918676363 " style="fill: rgb(67,184,206); fill-opacity: 1; stroke: rgb(0,0,0); stroke-width: 3" />
	<polygon points="170.370892998417,-518.699963445517 289.744124938489,-493.000725861997 186.646055525702,-574.175076584693 " style="fill: rgb(14,173,105); fill-opacity: 1; stroke: rgb(0,0,0); stroke-width: 3" />
	<polygon points="161.135879917694,-460.306021220714 170.370892998417,-518.699963445517 132.422967337887,-523.094518034484 110.177374258476,-491.339260717522 " style="fill: rgb(67,184,206); fill-opacity: 1; stroke: rgb(0,0,0); stroke-width: 3" />
	<polygon points="128.800901503301,-330.824821672924 133.190377008133,-390.327458231957 94.223134674086,-391.098998327729 75.2194883355438,-357.071029315777 " style="fill: rgb(67,184,206); fill-opacity: 1; stroke: rgb(0,0,0); stroke-width: 3" />
	<polygon points="422.905285334773,-455.323967647312 441.879288094088,-405.098599199398 552.141014806193,-452.307147094235 " style="fill: rgb(14,173,105); fill-opacity: 1; stroke: rgb(0,0,0); stroke-width: 3" />
	<polygon points="415.255492227146,-282.838085846431 289.744124938488,-251.888584080032 408.159777123841,-228.791081533802 " style="fill: rgb(14,173,105); fill-opacity: 1; stroke: rgb(0,0,0); stroke-width: 3" />
	<polygon points="289.744124938489,-493.000725861997 408.159777123847,-516.098228408238 395.194576917292,-571.094831333303 " style="fill: rgb(14,173,105); fill-opacity: 1; stroke: rgb(0,0,0); stroke-width: 3" />
	<polygon points="289.744124938488,-251.888584080032 170.370892998421,-226.189346496502 186.64605552571,-170.714233357323 " style="fill: rgb(14,173,105); fill-opacity: 1; stroke: rgb(0,0,0); stroke-width: 3" />
	<polygon points="161.135879917697,-284.583288721307 110.17737425848,-253.550049224518 132.422967337885,-221.794791907547 170.370892998421,-226.189346496502 " style="fill: rgb(67,184,206); fill-opacity: 1; stroke: rgb(0,0,0); stroke-width: 3" />
	<polygon points="408.159777123847,-516.098228408238 415.255492227154,-462.051224095606 528.52453376441,-524.349692836738 " style="fill: rgb(14,173,105); fill-opacity: 1; stroke: rgb(0,0,0); stroke-width: 3" />
	<polygon points="442.625639700553,-402.391918676363 452.074587202005,-349.540070955096 561.5,-418.366330567591 " style="fill: rgb(14,173,105); fill-opacity: 1; stroke: rgb(0,0,0); stroke-width: 3" />
	<polygon points="170.370892998417,-518.699963445517 186.646055525702,-574.175076584693 129.039683457859,-569.288872508377 134.363454659263,-531.460118469062 " style="fill: rgb(67,184,206); fill-opacity: 1; stroke: rgb(0,0,0); stroke-width: 3" />
	<polygon points="408.159777123841,-228.791081533802 289.744124938488,-251.888584080032 395.194576917288,-173.794478608741 " style="fill: rgb(14,173,105); fill-opacity: 1; stroke: rgb(0,0,0); stroke-width: 3" />
	<polygon points="97.351035601144,-407.618528633584 92.1029513832756,-446.238456925611 33.5,-435.034647669155 65.7344985456951,-384.827393649528 " style="fill: rgb(67,184,206); fill-opacity: 1; stroke: rgb(0,0,0); stroke-width: 3" />
	<polygon points="415.255492227146,-282.838085846431 408.159777123841,-228.791081533802 528.524533764405,-220.539617105301 " style="fill: rgb(14,173,105); fill-opacity: 1; stroke: rgb(0,0,0); stroke-width: 3" />
	<polygon points="408.159777123847,-516.098228408238 524.42318598298,-548.325252267284 395.194576917292,-571.094831333303 " style="fill: rgb(14,173,105); fill-opacity: 1; stroke: rgb(0,0,0); stroke-width: 3" />
	<polygon points="170.370892998421,-226.189346496502 134.363454659271,-213.429191472965 129.039683457862,-175.600437433651 186.64605552571,-170.714233357323 " style="fill: rgb(67,184,206); fill-opacity: 1; stroke: rgb(0,0,0); stroke-width: 3" />
	<polygon points="110.177374258476,-491.339260717522 132.422967337887,-523.094518034484 115.329381704348,-557.258336646594 63.6030940416433,-528.630917625868 " style="fill: rgb(67,184,206); fill-opacity: 1; stroke: rgb(0,0,0); stroke-width: 3" />
	<polygon points="129.039683457859,-569.288872508377 186.646055525702,-574.175076584693 127.660373955102,-691.389309942026 " style="fill: rgb(14,173,105); fill-opacity: 1; stroke: rgb(0,0,0); stroke-width: 3" />
	<polygon points="408.159777123841,-228.791081533802 395.194576917288,-173.794478608741 524.423185982972,-196.564057674761 " style="fill: rgb(14,173,105); fill-opacity: 1; stroke: rgb(0,0,0); stroke-width: 3" />
	<polygon points="110.17737425848,-253.550049224518 63.6030940416316,-216.258392316194 115.329381704324,-187.630973295442 132.422967337885,-221.794791907547 " style="fill: rgb(67,184,206); fill-opacity: 1; stroke: rgb(0,0,0); stroke-width: 3" />
	<polygon points="186.64605552571,-170.714233357323 129.039683457862,-175.600437433651 127.660373955077,-53.5 " style="fill: rgb(14,173,105); fill-opacity: 1; stroke: rgb(0,0,0); stroke-width: 3" />
	<polygon points="63.6030940416433,-528.630917625868 115.329381704348,-557.258336646594 50.3970480455613,-660.671156750379 " style="fill: rgb(14,173,105); fill-opacity: 1; stroke: rgb(0,0,0); stroke-width: 3" />
	<polygon points="63.6030940416316,-216.258392316194 50.3970480454992,-84.218153191685 115.329381704324,-187.630973295442 " style="fill: rgb(14,173,105); fill-opacity: 1; stroke: rgb(0,0,0); stroke-width: 3" />
	<circle cx="237.929832477596" cy="-372.444654971014" r="2" style="fill: rgb(0,0,0)" />
	<circle cx="294.434015948318" cy="-372.444654971014" r="2" style="fill: rgb(0,0,0)" />
	<circle cx="289.744124938489" cy="-493.000725861997" r="2" style="fill: rgb(0,0,0)" />
	<circle cx="289.744124938488" cy="-251.888584080032" r="2" style="fill: rgb(0,0,0)" />
	<circle cx="348.667150809594" cy="-377.939646428288" r="2" style="fill: rgb(0,0,0)" />
	<circle cx="197.137127754402" cy="-413.412011908705" r="2" style="fill: rgb(0,0,0)" />
	<circle cx="348.667150809591" cy="-366.949663513742" r="2" style="fill: rgb(0,0,0)" />
	<circle cx="197.137127754403" cy="-331.47729803332" r="2" style="fill: rgb(0,0,0)" />
	<circle cx="383.784837197899" cy="-418.551818485088" r="2" style="fill: rgb(0,0,0)" />
	<circle cx="171.595224823599" cy="-385.004823264882" r="2" style="fill: rgb(0,0,0)" />
	<circle cx="184.983845379326" cy="-349.226309998026" r="2" style="fill: rgb(0,0,0)" />
	<circle cx="161.135879917694" cy="-460.306021220714" r="2" style="fill: rgb(0,0,0)" />
	<circle cx="383.784837197894" cy="-326.337491456943" r="2" style="fill: rgb(0,0,0)" />
	<circle cx="161.135879917697" cy="-284.583288721307" r="2" style="fill: rgb(0,0,0)" />
	<circle cx="399.636374391203" cy="-361.065445293808" r="2" style="fill: rgb(0,0,0)" />
	<circle cx="408.82651960953" cy="-394.528246806401" r="2" style="fill: rgb(0,0,0)" />
	<circle cx="415.255492227154" cy="-462.051224095606" r="2" style="fill: rgb(0,0,0)" />
	<circle cx="151.570566534466" cy="-451.079324710985" r="2" style="fill: rgb(0,0,0)" />
	<circle cx="133.902957801521" cy="-394.090844696647" r="2" style="fill: rgb(0,0,0)" />
	<circle cx="133.190377008133" cy="-390.327458231957" r="2" style="fill: rgb(0,0,0)" />
	<circle cx="128.800901503301" cy="-330.824821672924" r="2" style="fill: rgb(0,0,0)" />
	<circle cx="170.370892998417" cy="-518.699963445517" r="2" style="fill: rgb(0,0,0)" />
	<circle cx="415.255492227146" cy="-282.838085846431" r="2" style="fill: rgb(0,0,0)" />
	<circle cx="170.370892998421" cy="-226.189346496502" r="2" style="fill: rgb(0,0,0)" />
	<circle cx="441.879288094088" cy="-405.098599199398" r="2" style="fill: rgb(0,0,0)" />
	<circle cx="422.905285334773" cy="-455.323967647312" r="2" style="fill: rgb(0,0,0)" />
	<circle cx="452.074587202005" cy="-349.540070955096" r="2" style="fill: rgb(0,0,0)" />
	<circle cx="442.625639700553" cy="-402.391918676363" r="2" style="fill: rgb(0,0,0)" />
	<circle cx="408.159777123847" cy="-516.098228408238" r="2" style="fill: rgb(0,0,0)" />
	<circle cx="92.1029513832756" cy="-446.238456925611" r="2" style="fill: rgb(0,0,0)" />
	<circle cx="97.351035601144" cy="-407.618528633584" r="2" style="fill: rgb(0,0,0)" />
	<circle cx="94.223134674086" cy="-391.098998327729" r="2" style="fill: rgb(0,0,0)" />
	<circle cx="75.2194883355438" cy="-357.071029315777" r="2" style="fill: rgb(0,0,0)" />
	<circle cx="186.646055525702" cy="-574.175076584693" r="2" style="fill: rgb(0,0,0)" />
	<circle cx="132.422967337887" cy="-523.094518034484" r="2" style="fill: rgb(0,0,0)" />
	<circle cx="110.177374258476" cy="-491.339260717522" r="2" style="fill: rgb(0,0,0)" />
	<circle cx="408.159777123841" cy="-228.791081533802" r="2" style="fill: rgb(0,0,0)" />
	<circle cx="186.64605552571" cy="-170.714233357323" r="2" style="fill: rgb(0,0,0)" />
	<circle cx="110.17737425848" cy="-253.550049224518" r="2" style="fill: rgb(0,0,0)" />
	<circle cx="132.422967337885" cy="-221.794791907547" r="2" style="fill: rgb(0,0,0)" />
	<circle cx="552.141014806193" cy="-452.307147094235" r="2" style="fill: rgb(0,0,0)" />
	<circle cx="561.5" cy="-418.366330567591" r="2" style="fill: rgb(0,0,0)" />
	<circle cx="395.194576917292" cy="-571.094831333303" r="2" style="fill: rgb(0,0,0)" />
	<circle cx="528.52453376441" cy="-524.349692836738" r="2" style="fill: rgb(0,0,0)" />
	<circle cx="33.5" cy="-435.034647669155" r="2" style="fill: rgb(0,0,0)" />
	<circle cx="65.7344985456951" cy="-384.827393649528" r="2" style="fill: rgb(0,0,0)" />
	<circle cx="129.039683457859" cy="-569.288872508377" r="2" style="fill: rgb(0,0,0)" />
	<circle cx="134.363454659263" cy="-531.460118469062" r="2" style="fill: rgb(0,0,0)" />
	<circle cx="115.329381704348" cy="-557.258336646594" r="2" style="fill: rgb(0,0,0)" />
	<circle cx="63.6030940416433" cy="-528.630917625868" r="2" style="fill: rgb(0,0,0)" />
	<circle cx="395.194576917288" cy="-173.794478608741" r="2" style="fill: rgb(0,0,0)" />
	<circle cx="528.524533764405" cy="-220.539617105301" r="2" style="fill: rgb(0,0,0)" />
	<circle cx="134.363454659271" cy="-213.429191472965" r="2" style="fill: rgb(0,0,0)" />
	<circle cx="129.039683457862" cy="-175.600437433651" r="2" style="fill: rgb(0,0,0)" />
	<circle cx="63.6030940416316" cy="-216.258392316194" r="2" style="fill: rgb(0,0,0)" />
	<circle cx="115.329381704324" cy="-187.630973295442" r="2" style="fill: rgb(0,0,0)" />
	<circle cx="524.42318598298" cy="-548.325252267284" r="2" style="fill: rgb(0,0,0)" />
	<circle cx="127.660373955102" cy="-691.389309942026" r="2" style="fill: rgb(0,0,0)" />
	<circle cx="50.3970480455613" cy="-660.671156750379" r="2" style="fill: rgb(0,0,0)" />
	<circle cx="524.423185982972" cy="-196.564057674761" r="2" style="fill: rgb(0,0,0)" />
	<circle cx="127.660373955077" cy="-53.5" r="2" style="fill: rgb(0,0,0)" />
	<circle cx="50.3970480454992" cy="-84.218153191685" r="2" style="fill: rgb(0,0,0)" />
	<!--
	Generated using the Perl SVG Module V2.87
	by Ronan Oger

	-->
</svg>