<?xml version="1.0" encoding="UTF-8" standalone="yes"?>
<!DOCTYPE svg PUBLIC "-//W3C//DTD SVG 1.0//EN" "http://www.w3.org/TR/2001/REC-SVG-20010904/DTD/svg10.dtd">
<!-- generated using polymake; Michael Joswig, Georg Loho, Benjamin Lorenz, Rico Raber; license CC BY-NC-ND 3.0; see polymake.org and matchthenet.de -->
<svg height="841pt" id="document" viewBox="0 -615.39839681519 572 615.39839681519" width="595pt" xmlns="http://www.w3.org/2000/svg" xmlns:svg="http://www.w3.org/2000/svg" xmlns:xlink="http://www.w3.org/1999/xlink">
	<title id="document_title">planar_net_</title>
	<polygon points="245.447397010207,-316.199198407593 300.453850905509,-316.199198407593 295.144692198174,-437.190347432276 " style="fill: rgb(14,173,105); fill-opacity: 1; stroke: rgb(0,0,0); stroke-width: 3" />
	<polygon points="295.144692198174,-195.208049382911 300.453850905509,-316.199198407593 245.447397010207,-316.199198407593 " style="fill: rgb(14,173,105); fill-opacity: 1; stroke: rgb(0,0,0); stroke-width: 3" />
	<polygon points="295.144692198174,-437.190347432276 300.453850905509,-316.199198407593 355.248881705801,-321.017348439635 " style="fill: rgb(14,173,105); fill-opacity: 1; stroke: rgb(0,0,0); stroke-width: 3" />
	<polygon points="245.447397010207,-316.199198407593 295.144692198174,-437.190347432276 204.743372940144,-354.96290363868 " style="fill: rgb(14,173,105); fill-opacity: 1; stroke: rgb(0,0,0); stroke-width: 3" />
	<polygon points="355.2488817058,-311.381048375553 300.453850905509,-316.199198407593 295.144692198174,-195.208049382911 " style="fill: rgb(14,173,105); fill-opacity: 1; stroke: rgb(0,0,0); stroke-width: 3" />
	<polygon points="245.447397010207,-316.199198407593 204.743372940145,-277.435493176506 295.144692198174,-195.208049382911 " style="fill: rgb(14,173,105); fill-opacity: 1; stroke: rgb(0,0,0); stroke-width: 3" />
	<polygon points="295.144692198174,-437.190347432276 355.248881705801,-321.017348439635 392.401047684422,-363.197426460377 " style="fill: rgb(14,173,105); fill-opacity: 1; stroke: rgb(0,0,0); stroke-width: 3" />
	<polygon points="245.447397010207,-316.199198407593 204.743372940144,-354.96290363868 180.468530569158,-326.464725412272 194.775987440048,-291.87121717377 " style="fill: rgb(67,184,206); fill-opacity: 1; stroke: rgb(0,0,0); stroke-width: 3" />
	<polygon points="355.2488817058,-311.381048375553 295.144692198174,-195.208049382911 392.40104768442,-269.200970354813 " style="fill: rgb(14,173,105); fill-opacity: 1; stroke: rgb(0,0,0); stroke-width: 3" />
	<polygon points="204.743372940144,-354.96290363868 295.144692198174,-437.190347432276 166.482002114454,-400.158975284124 " style="fill: rgb(14,173,105); fill-opacity: 1; stroke: rgb(0,0,0); stroke-width: 3" />
	<polygon points="392.401047684422,-363.197426460377 355.248881705801,-321.017348439635 407.856477846424,-301.221307243354 419.078812379416,-336.935076884618 " style="fill: rgb(67,184,206); fill-opacity: 1; stroke: rgb(0,0,0); stroke-width: 3" />
	<polygon points="204.743372940144,-354.96290363868 158.624522753242,-392.106800137018 142.434193959458,-334.115688361599 180.468530569158,-326.464725412272 " style="fill: rgb(67,184,206); fill-opacity: 1; stroke: rgb(0,0,0); stroke-width: 3" />
	<polygon points="204.743372940145,-277.435493176506 166.482002114457,-232.239421531058 295.144692198174,-195.208049382911 " style="fill: rgb(14,173,105); fill-opacity: 1; stroke: rgb(0,0,0); stroke-width: 3" />
	<polygon points="295.144692198174,-437.190347432276 392.401047684422,-363.197426460377 426.556522283535,-411.571189437332 " style="fill: rgb(14,173,105); fill-opacity: 1; stroke: rgb(0,0,0); stroke-width: 3" />
	<polygon points="166.482002114454,-400.158975284124 295.144692198174,-437.190347432276 172.748139832645,-460.960078477981 " style="fill: rgb(14,173,105); fill-opacity: 1; stroke: rgb(0,0,0); stroke-width: 3" />
	<polygon points="194.775987440048,-291.87121717377 180.468530569158,-326.464725412272 141.927950674008,-330.911263024546 139.45280192772,-270.753392134008 " style="fill: rgb(67,184,206); fill-opacity: 1; stroke: rgb(0,0,0); stroke-width: 3" />
	<polygon points="392.401047684422,-363.197426460377 419.078812379416,-336.935076884618 456.296793427873,-347.888153259269 435.089110340336,-404.23821953661 " style="fill: rgb(67,184,206); fill-opacity: 1; stroke: rgb(0,0,0); stroke-width: 3" />
	<polygon points="392.40104768442,-269.200970354813 295.144692198174,-195.208049382911 426.556522283535,-220.827207377861 " style="fill: rgb(14,173,105); fill-opacity: 1; stroke: rgb(0,0,0); stroke-width: 3" />
	<polygon points="142.434193959458,-334.115688361599 158.624522753242,-392.106800137018 97.0711992554676,-386.355126493658 104.409506290336,-345.989769968078 " style="fill: rgb(67,184,206); fill-opacity: 1; stroke: rgb(0,0,0); stroke-width: 3" />
	<polygon points="295.144692198174,-195.208049382911 166.482002114457,-232.239421531058 172.748139832656,-171.438318337201 " style="fill: rgb(14,173,105); fill-opacity: 1; stroke: rgb(0,0,0); stroke-width: 3" />
	<polygon points="295.144692198174,-437.190347432276 426.556522283535,-411.571189437332 414.988751567388,-471.589730840404 " style="fill: rgb(14,173,105); fill-opacity: 1; stroke: rgb(0,0,0); stroke-width: 3" />
	<polygon points="419.078812379416,-336.935076884618 407.856477846424,-301.221307243354 464.816784894638,-285.030544116975 457.081774378306,-344.740387557658 " style="fill: rgb(67,184,206); fill-opacity: 1; stroke: rgb(0,0,0); stroke-width: 3" />
	<polygon points="172.748139832645,-460.960078477981 295.144692198174,-437.190347432276 188.401951661609,-522.135660063996 " style="fill: rgb(14,173,105); fill-opacity: 1; stroke: rgb(0,0,0); stroke-width: 3" />
	<polygon points="166.482002114454,-400.158975284124 172.748139832645,-460.960078477981 131.899938255723,-463.342004345255 111.092956965179,-427.617071736243 " style="fill: rgb(67,184,206); fill-opacity: 1; stroke: rgb(0,0,0); stroke-width: 3" />
	<polygon points="139.45280192772,-270.753392134008 141.927950674008,-330.911263024546 102.094684286974,-331.337379523544 82.6702898664459,-295.200062813935 " style="fill: rgb(67,184,206); fill-opacity: 1; stroke: rgb(0,0,0); stroke-width: 3" />
	<polygon points="435.089110340336,-404.23821953661 456.296793427873,-347.888153259269 493.13524931498,-363.04727111569 496.90965034356,-403.900259432967 " style="fill: rgb(67,184,206); fill-opacity: 1; stroke: rgb(0,0,0); stroke-width: 3" />
	<polygon points="426.556522283535,-220.827207377861 295.144692198174,-195.208049382911 414.988751567396,-160.80866597479 " style="fill: rgb(14,173,105); fill-opacity: 1; stroke: rgb(0,0,0); stroke-width: 3" />
	<polygon points="295.144692198174,-437.190347432276 414.988751567388,-471.589730840404 394.036587774352,-531.159021918558 " style="fill: rgb(14,173,105); fill-opacity: 1; stroke: rgb(0,0,0); stroke-width: 3" />
	<polygon points="295.144692198174,-195.208049382911 172.748139832656,-171.438318337201 188.401951661616,-110.262736751182 " style="fill: rgb(14,173,105); fill-opacity: 1; stroke: rgb(0,0,0); stroke-width: 3" />
	<polygon points="166.482002114457,-232.239421531058 111.092956965186,-204.781325078947 131.899938255729,-169.056392469932 172.748139832656,-171.438318337201 " style="fill: rgb(67,184,206); fill-opacity: 1; stroke: rgb(0,0,0); stroke-width: 3" />
	<polygon points="414.988751567388,-471.589730840404 426.556522283535,-411.571189437332 479.327551882671,-443.775409942859 455.471310061141,-477.540495556498 " style="fill: rgb(67,184,206); fill-opacity: 1; stroke: rgb(0,0,0); stroke-width: 3" />
	<polygon points="457.081774378306,-344.740387557658 464.816784894638,-285.030544116975 519.239703628754,-314.356970762259 496.724612825614,-348.653959605318 " style="fill: rgb(67,184,206); fill-opacity: 1; stroke: rgb(0,0,0); stroke-width: 3" />
	<polygon points="172.748139832645,-460.960078477981 188.401951661609,-522.135660063996 124.348146067265,-513.62886052981 133.421811906272,-472.260037536928 " style="fill: rgb(67,184,206); fill-opacity: 1; stroke: rgb(0,0,0); stroke-width: 3" />
	<polygon points="414.988751567396,-160.80866597479 295.144692198174,-195.208049382911 394.036587774355,-101.23937489664 " style="fill: rgb(14,173,105); fill-opacity: 1; stroke: rgb(0,0,0); stroke-width: 3" />
	<polygon points="104.409506290336,-345.989769968078 97.0711992554676,-386.355126493658 33.5,-371.930447149581 72.7559359878514,-319.888730818611 " style="fill: rgb(67,184,206); fill-opacity: 1; stroke: rgb(0,0,0); stroke-width: 3" />
	<polygon points="426.556522283535,-220.827207377861 414.988751567396,-160.80866597479 455.471310061145,-154.85790125869 479.327551882673,-188.622986872326 " style="fill: rgb(67,184,206); fill-opacity: 1; stroke: rgb(0,0,0); stroke-width: 3" />
	<polygon points="414.988751567388,-471.589730840404 453.174133520641,-486.290946708165 458.589327233345,-528.295548892066 394.036587774352,-531.159021918558 " style="fill: rgb(67,184,206); fill-opacity: 1; stroke: rgb(0,0,0); stroke-width: 3" />
	<polygon points="172.748139832656,-171.438318337201 133.421811906285,-160.138359278264 124.348146067266,-118.769536285389 188.401951661616,-110.262736751182 " style="fill: rgb(67,184,206); fill-opacity: 1; stroke: rgb(0,0,0); stroke-width: 3" />
	<polygon points="111.092956965179,-427.617071736243 131.899938255723,-463.342004345255 110.189007910148,-499.706085952032 55.896127210818,-462.296730529631 " style="fill: rgb(67,184,206); fill-opacity: 1; stroke: rgb(0,0,0); stroke-width: 3" />
	<polygon points="493.13524931498,-363.04727111569 526.953409740628,-339.819167813847 561.5,-395.099379919162 496.90965034356,-403.900259432967 " style="fill: rgb(67,184,206); fill-opacity: 1; stroke: rgb(0,0,0); stroke-width: 3" />
	<polygon points="124.348146067265,-513.62886052981 188.401951661609,-522.135660063996 157.527247356179,-578.89839681519 121.066416629391,-556.36499068785 " style="fill: rgb(67,184,206); fill-opacity: 1; stroke: rgb(0,0,0); stroke-width: 3" />
	<polygon points="414.988751567396,-160.80866597479 394.036587774355,-101.23937489664 458.589327233339,-104.102847923109 453.174133520647,-146.107450107017 " style="fill: rgb(67,184,206); fill-opacity: 1; stroke: rgb(0,0,0); stroke-width: 3" />
	<polygon points="111.092956965186,-204.781325078947 55.8961272108156,-170.101666285571 110.189007910139,-132.692310863158 131.899938255729,-169.056392469932 " style="fill: rgb(67,184,206); fill-opacity: 1; stroke: rgb(0,0,0); stroke-width: 3" />
	<polygon points="455.471310061141,-477.540495556498 479.327551882671,-443.775409942859 531.274550552709,-483.156599337459 473.913573181057,-515.666521557 " style="fill: rgb(67,184,206); fill-opacity: 1; stroke: rgb(0,0,0); stroke-width: 3" />
	<polygon points="188.401951661616,-110.262736751182 124.348146067266,-118.769536285389 121.066416629366,-76.0334061273555 157.527247356148,-53.5 " style="fill: rgb(67,184,206); fill-opacity: 1; stroke: rgb(0,0,0); stroke-width: 3" />
	<polygon points="55.896127210818,-462.296730529631 110.189007910148,-499.706085952032 84.3754522868329,-533.923141860893 41.4444646926331,-527.251490364839 " style="fill: rgb(67,184,206); fill-opacity: 1; stroke: rgb(0,0,0); stroke-width: 3" />
	<polygon points="479.327551882673,-188.622986872326 455.471310061145,-154.85790125869 473.913573181049,-116.731875258187 531.274550552699,-149.241797477718 " style="fill: rgb(67,184,206); fill-opacity: 1; stroke: rgb(0,0,0); stroke-width: 3" />
	<polygon points="55.8961272108156,-170.101666285571 41.4444646926134,-105.146906450366 84.375452286812,-98.4752549543032 110.189007910139,-132.692310863158 " style="fill: rgb(67,184,206); fill-opacity: 1; stroke: rgb(0,0,0); stroke-width: 3" />
	<polygon points="473.913573181057,-515.666521557 531.274550552709,-483.156599337459 539.981120067816,-549.127555235246 496.630755946556,-552.013133176066 " style="fill: rgb(67,184,206); fill-opacity: 1; stroke: rgb(0,0,0); stroke-width: 3" />
	<polygon points="531.274550552699,-149.241797477718 473.913573181049,-116.731875258187 496.630755946541,-80.3852636391183 539.981120067795,-83.27084157993 " style="fill: rgb(67,184,206); fill-opacity: 1; stroke: rgb(0,0,0); stroke-width: 3" />
	<circle cx="245.447397010207" cy="-316.199198407593" r="2" style="fill: rgb(0,0,0)" />
	<circle cx="300.453850905509" cy="-316.199198407593" r="2" style="fill: rgb(0,0,0)" />
	<circle cx="295.144692198174" cy="-437.190347432276" r="2" style="fill: rgb(0,0,0)" />
	<circle cx="295.144692198174" cy="-195.208049382911" r="2" style="fill: rgb(0,0,0)" />
	<circle cx="355.248881705801" cy="-321.017348439635" r="2" style="fill: rgb(0,0,0)" />
	<circle cx="204.743372940144" cy="-354.96290363868" r="2" style="fill: rgb(0,0,0)" />
	<circle cx="355.2488817058" cy="-311.381048375553" r="2" style="fill: rgb(0,0,0)" />
	<circle cx="204.743372940145" cy="-277.435493176506" r="2" style="fill: rgb(0,0,0)" />
	<circle cx="392.401047684422" cy="-363.197426460377" r="2" style="fill: rgb(0,0,0)" />
	<circle cx="180.468530569158" cy="-326.464725412272" r="2" style="fill: rgb(0,0,0)" />
	<circle cx="194.775987440048" cy="-291.87121717377" r="2" style="fill: rgb(0,0,0)" />
	<circle cx="166.482002114454" cy="-400.158975284124" r="2" style="fill: rgb(0,0,0)" />
	<circle cx="392.40104768442" cy="-269.200970354813" r="2" style="fill: rgb(0,0,0)" />
	<circle cx="166.482002114457" cy="-232.239421531058" r="2" style="fill: rgb(0,0,0)" />
	<circle cx="407.856477846424" cy="-301.221307243354" r="2" style="fill: rgb(0,0,0)" />
	<circle cx="419.078812379416" cy="-336.935076884618" r="2" style="fill: rgb(0,0,0)" />
	<circle cx="426.556522283535" cy="-411.571189437332" r="2" style="fill: rgb(0,0,0)" />
	<circle cx="158.624522753242" cy="-392.106800137018" r="2" style="fill: rgb(0,0,0)" />
	<circle cx="142.434193959458" cy="-334.115688361599" r="2" style="fill: rgb(0,0,0)" />
	<circle cx="141.927950674008" cy="-330.911263024546" r="2" style="fill: rgb(0,0,0)" />
	<circle cx="139.45280192772" cy="-270.753392134008" r="2" style="fill: rgb(0,0,0)" />
	<circle cx="172.748139832645" cy="-460.960078477981" r="2" style="fill: rgb(0,0,0)" />
	<circle cx="426.556522283535" cy="-220.827207377861" r="2" style="fill: rgb(0,0,0)" />
	<circle cx="172.748139832656" cy="-171.438318337201" r="2" style="fill: rgb(0,0,0)" />
	<circle cx="456.296793427873" cy="-347.888153259269" r="2" style="fill: rgb(0,0,0)" />
	<circle cx="435.089110340336" cy="-404.23821953661" r="2" style="fill: rgb(0,0,0)" />
	<circle cx="464.816784894638" cy="-285.030544116975" r="2" style="fill: rgb(0,0,0)" />
	<circle cx="457.081774378306" cy="-344.740387557658" r="2" style="fill: rgb(0,0,0)" />
	<circle cx="414.988751567388" cy="-471.589730840404" r="2" style="fill: rgb(0,0,0)" />
	<circle cx="97.0711992554676" cy="-386.355126493658" r="2" style="fill: rgb(0,0,0)" />
	<circle cx="104.409506290336" cy="-345.989769968078" r="2" style="fill: rgb(0,0,0)" />
	<circle cx="102.094684286974" cy="-331.337379523544" r="2" style="fill: rgb(0,0,0)" />
	<circle cx="82.6702898664459" cy="-295.200062813935" r="2" style="fill: rgb(0,0,0)" />
	<circle cx="188.401951661609" cy="-522.135660063996" r="2" style="fill: rgb(0,0,0)" />
	<circle cx="131.899938255723" cy="-463.342004345255" r="2" style="fill: rgb(0,0,0)" />
	<circle cx="111.092956965179" cy="-427.617071736243" r="2" style="fill: rgb(0,0,0)" />
	<circle cx="414.988751567396" cy="-160.80866597479" r="2" style="fill: rgb(0,0,0)" />
	<circle cx="188.401951661616" cy="-110.262736751182" r="2" style="fill: rgb(0,0,0)" />
	<circle cx="111.092956965186" cy="-204.781325078947" r="2" style="fill: rgb(0,0,0)" />
	<circle cx="131.899938255729" cy="-169.056392469932" r="2" style="fill: rgb(0,0,0)" />
	<circle cx="493.13524931498" cy="-363.04727111569" r="2" style="fill: rgb(0,0,0)" />
	<circle cx="496.90965034356" cy="-403.900259432967" r="2" style="fill: rgb(0,0,0)" />
	<circle cx="519.239703628754" cy="-314.356970762259" r="2" style="fill: rgb(0,0,0)" />
	<circle cx="496.724612825614" cy="-348.653959605318" r="2" style="fill: rgb(0,0,0)" />
	<circle cx="394.036587774352" cy="-531.159021918558" r="2" style="fill: rgb(0,0,0)" />
	<circle cx="479.327551882671" cy="-443.775409942859" r="2" style="fill: rgb(0,0,0)" />
	<circle cx="455.471310061141" cy="-477.540495556498" r="2" style="fill: rgb(0,0,0)" />
	<circle cx="33.5" cy="-371.930447149581" r="2" style="fill: rgb(0,0,0)" />
	<circle cx="72.7559359878514" cy="-319.888730818611" r="2" style="fill: rgb(0,0,0)" />
	<circle cx="124.348146067265" cy="-513.62886052981" r="2" style="fill: rgb(0,0,0)" />
	<circle cx="133.421811906272" cy="-472.260037536928" r="2" style="fill: rgb(0,0,0)" />
	<circle cx="110.189007910148" cy="-499.706085952032" r="2" style="fill: rgb(0,0,0)" />
	<circle cx="55.896127210818" cy="-462.296730529631" r="2" style="fill: rgb(0,0,0)" />
	<circle cx="394.036587774355" cy="-101.23937489664" r="2" style="fill: rgb(0,0,0)" />
	<circle cx="455.471310061145" cy="-154.85790125869" r="2" style="fill: rgb(0,0,0)" />
	<circle cx="479.327551882673" cy="-188.622986872326" r="2" style="fill: rgb(0,0,0)" />
	<circle cx="133.421811906285" cy="-160.138359278264" r="2" style="fill: rgb(0,0,0)" />
	<circle cx="124.348146067266" cy="-118.769536285389" r="2" style="fill: rgb(0,0,0)" />
	<circle cx="55.8961272108156" cy="-170.101666285571" r="2" style="fill: rgb(0,0,0)" />
	<circle cx="110.189007910139" cy="-132.692310863158" r="2" style="fill: rgb(0,0,0)" />
	<circle cx="526.953409740628" cy="-339.819167813847" r="2" style="fill: rgb(0,0,0)" />
	<circle cx="561.5" cy="-395.099379919162" r="2" style="fill: rgb(0,0,0)" />
	<circle cx="453.174133520641" cy="-486.290946708165" r="2" style="fill: rgb(0,0,0)" />
	<circle cx="458.589327233345" cy="-528.295548892066" r="2" style="fill: rgb(0,0,0)" />
	<circle cx="531.274550552709" cy="-483.156599337459" r="2" style="fill: rgb(0,0,0)" />
	<circle cx="473.913573181057" cy="-515.666521557" r="2" style="fill: rgb(0,0,0)" />
	<circle cx="157.527247356179" cy="-578.89839681519" r="2" style="fill: rgb(0,0,0)" />
	<circle cx="121.066416629391" cy="-556.36499068785" r="2" style="fill: rgb(0,0,0)" />
	<circle cx="84.3754522868329" cy="-533.923141860893" r="2" style="fill: rgb(0,0,0)" />
	<circle cx="41.4444646926331" cy="-527.251490364839" r="2" style="fill: rgb(0,0,0)" />
	<circle cx="458.589327233339" cy="-104.102847923109" r="2" style="fill: rgb(0,0,0)" />
	<circle cx="453.174133520647" cy="-146.107450107017" r="2" style="fill: rgb(0,0,0)" />
	<circle cx="473.913573181049" cy="-116.731875258187" r="2" style="fill: rgb(0,0,0)" />
	<circle cx="531.274550552699" cy="-149.241797477718" r="2" style="fill: rgb(0,0,0)" />
	<circle cx="121.066416629366" cy="-76.0334061273555" r="2" style="fill: rgb(0,0,0)" />
	<circle cx="157.527247356148" cy="-53.5" r="2" style="fill: rgb(0,0,0)" />
	<circle cx="41.4444646926134" cy="-105.146906450366" r="2" style="fill: rgb(0,0,0)" />
	<circle cx="84.375452286812" cy="-98.4752549543032" r="2" style="fill: rgb(0,0,0)" />
	<circle cx="539.981120067816" cy="-549.127555235246" r="2" style="fill: rgb(0,0,0)" />
	<circle cx="496.630755946556" cy="-552.013133176066" r="2" style="fill: rgb(0,0,0)" />
	<circle cx="496.630755946541" cy="-80.3852636391183" r="2" style="fill: rgb(0,0,0)" />
	<circle cx="539.981120067795" cy="-83.27084157993" r="2" style="fill: rgb(0,0,0)" />
	<!--
	Generated using the Perl SVG Module V2.86
	by Ronan Oger
	Info: http://www.roitsystems.com/
	-->
</svg>