<?xml version="1.0" encoding="UTF-8" standalone="yes"?>
<!DOCTYPE svg PUBLIC "-//W3C//DTD SVG 1.0//EN" "http://www.w3.org/TR/2001/REC-SVG-20010904/DTD/svg10.dtd">
<!-- generated using polymake; Michael Joswig, Georg Loho, Benjamin Lorenz, Rico Raber; license CC BY-NC-ND 3.0; see polymake.org and matchthenet.de -->
<svg height="841pt" id="document" viewBox="0 -456.589194021961 572 456.589194021961" width="595pt" xmlns="http://www.w3.org/2000/svg" xmlns:svg="http://www.w3.org/2000/svg" xmlns:xlink="http://www.w3.org/1999/xlink">
	<title id="document_title">planar_net_</title>
	<polygon points="279.750765289847,-217.697094102004 317.945771107768,-217.697094102004 317.94577110777,-255.892099919927 279.750765289853,-255.892099919932 " style="fill: rgb(67,184,206); fill-opacity: 1; stroke: rgb(0,0,0); stroke-width: 3" />
	<polygon points="329.748677005752,-181.371484928935 317.945771107768,-217.697094102004 279.750765289847,-217.697094102004 267.947859391858,-181.371484928938 298.848268198803,-158.921023797936 " style="fill: rgb(255,210,63); fill-opacity: 1; stroke: rgb(0,0,0); stroke-width: 3" />
	<polygon points="279.750765289853,-255.892099919932 260.653262380898,-288.969945255952 227.575417044882,-269.872442347002 246.672919953835,-236.794597010976 " style="fill: rgb(67,184,206); fill-opacity: 1; stroke: rgb(0,0,0); stroke-width: 3" />
	<polygon points="279.750765289847,-217.697094102004 279.750765289853,-255.892099919932 246.672919953835,-236.794597010976 " style="fill: rgb(14,173,105); fill-opacity: 1; stroke: rgb(0,0,0); stroke-width: 3" />
	<polygon points="352.19913813675,-150.471076121978 329.748677005752,-181.371484928935 298.848268198803,-158.921023797936 321.298729329803,-128.020614990985 " style="fill: rgb(67,184,206); fill-opacity: 1; stroke: rgb(0,0,0); stroke-width: 3" />
	<polygon points="279.750765289847,-217.697094102004 243.42515611678,-229.499999999994 231.622250218789,-193.174390826934 267.947859391858,-181.371484928938 " style="fill: rgb(67,184,206); fill-opacity: 1; stroke: rgb(0,0,0); stroke-width: 3" />
	<polygon points="435.497911715901,-255.892099919929 435.497911715899,-217.697094102006 471.823520888965,-205.894188204016 494.273982019968,-236.794597010962 471.823520888969,-267.695005817912 " style="fill: rgb(255,210,63); fill-opacity: 1; stroke: rgb(0,0,0); stroke-width: 3" />
	<polygon points="245.497398260874,-323.11811789996 276.397807067819,-345.568579030951 264.594901169836,-381.89418820402 226.399895351922,-381.894188204033 214.596989453934,-345.568579030971 " style="fill: rgb(255,210,63); fill-opacity: 1; stroke: rgb(0,0,0); stroke-width: 3" />
	<polygon points="435.497911715899,-217.697094102006 413.047450584899,-186.796685295056 443.947859391848,-164.346224164054 466.398320522849,-195.246632970998 " style="fill: rgb(67,184,206); fill-opacity: 1; stroke: rgb(0,0,0); stroke-width: 3" />
	<polygon points="413.047450584907,-348.593326340777 435.497911715903,-317.692917533827 466.398320522857,-340.143378664824 443.947859391867,-371.043787471772 " style="fill: rgb(67,184,206); fill-opacity: 1; stroke: rgb(0,0,0); stroke-width: 3" />
	<polygon points="443.947859391859,-309.242969857875 466.398320522853,-278.342561050927 481.933628971501,-313.235435120521 " style="fill: rgb(14,173,105); fill-opacity: 1; stroke: rgb(0,0,0); stroke-width: 3" />
	<polygon points="413.047450584907,-348.593326340777 443.947859391867,-371.043787471772 409.054985322277,-386.579095920425 " style="fill: rgb(14,173,105); fill-opacity: 1; stroke: rgb(0,0,0); stroke-width: 3" />
	<polygon points="190.074286178844,-282.850869937956 159.173877371894,-260.400408806974 181.624338502883,-229.500000000011 212.524747309834,-251.950461130999 " style="fill: rgb(67,184,206); fill-opacity: 1; stroke: rgb(0,0,0); stroke-width: 3" />
	<polygon points="471.823520888969,-267.695005817912 494.273982019968,-236.794597010962 525.174390826921,-259.24505814196 502.723929695927,-290.145466948909 " style="fill: rgb(67,184,206); fill-opacity: 1; stroke: rgb(0,0,0); stroke-width: 3" />
	<polygon points="226.399895351922,-381.894188204033 264.594901169836,-381.89418820402 264.594901169838,-420.089194021944 226.399895351928,-420.089194021961 " style="fill: rgb(67,184,206); fill-opacity: 1; stroke: rgb(0,0,0); stroke-width: 3" />
	<polygon points="494.273982019968,-236.794597010962 471.823520888965,-205.894188204016 502.723929695912,-183.443727073011 525.174390826916,-214.34413587995 " style="fill: rgb(67,184,206); fill-opacity: 1; stroke: rgb(0,0,0); stroke-width: 3" />
	<polygon points="466.398320522849,-195.246632970998 443.947859391848,-164.346224164054 481.933628971491,-160.353758901403 " style="fill: rgb(14,173,105); fill-opacity: 1; stroke: rgb(0,0,0); stroke-width: 3" />
	<polygon points="502.723929695927,-290.145466948909 525.174390826921,-259.24505814196 561.49999999999,-271.047964039943 561.5,-309.242969857861 525.174390826936,-321.045875755851 " style="fill: rgb(255,210,63); fill-opacity: 1; stroke: rgb(0,0,0); stroke-width: 3" />
	<polygon points="150.723929695935,-251.950461131013 112.528923878012,-251.950461131018 81.628515071061,-229.500000000024 69.8256091730694,-193.174390826963 81.628515071054,-156.848781653898 112.528923878002,-134.398320522895 150.723929695924,-134.39832052289 181.624338502876,-156.848781653884 193.427244400867,-193.174390826946 181.624338502883,-229.500000000011 " style="fill: rgb(136,136,136); fill-opacity: 1; stroke: rgb(0,0,0); stroke-width: 3" />
	<polygon points="494.273982019968,-236.794597010962 529.166856089564,-221.259288562317 525.174390826921,-259.24505814196 " style="fill: rgb(14,173,105); fill-opacity: 1; stroke: rgb(0,0,0); stroke-width: 3" />
	<polygon points="502.723929695912,-183.443727073011 525.174390826906,-152.543318266056 561.499999999971,-164.346224164028 561.499999999976,-202.541229981947 525.174390826916,-214.34413587995 " style="fill: rgb(255,210,63); fill-opacity: 1; stroke: rgb(0,0,0); stroke-width: 3" />
	<polygon points="264.594901169788,-91.6950058179275 226.399895351869,-91.6950058179336 226.399895351867,-53.5000000000099 264.594901169782,-53.5 " style="fill: rgb(67,184,206); fill-opacity: 1; stroke: rgb(0,0,0); stroke-width: 3" />
	<polygon points="45.3029058979799,-145.045875755916 81.628515071054,-156.848781653898 69.8256091730694,-193.174390826963 33.5,-181.371484928978 " style="fill: rgb(67,184,206); fill-opacity: 1; stroke: rgb(0,0,0); stroke-width: 3" />
	<polygon points="413.047450584897,-124.995867681154 409.054985322251,-87.0100981015115 443.947859391847,-102.545406550153 " style="fill: rgb(14,173,105); fill-opacity: 1; stroke: rgb(0,0,0); stroke-width: 3" />
	<polygon points="276.397807067792,-128.020614990988 245.497398260853,-150.471076121991 214.596989453899,-128.020614990998 226.399895351869,-91.6950058179336 264.594901169788,-91.6950058179275 " style="fill: rgb(255,210,63); fill-opacity: 1; stroke: rgb(0,0,0); stroke-width: 3" />
	<polygon points="435.497911715896,-155.896276488103 413.047450584897,-124.995867681154 443.947859391847,-102.545406550153 466.398320522846,-133.445815357096 " style="fill: rgb(67,184,206); fill-opacity: 1; stroke: rgb(0,0,0); stroke-width: 3" />
	<polygon points="231.622250218789,-193.174390826934 194.261896917972,-185.233202586543 202.203085158358,-147.872849285731 239.563438459181,-155.814037526118 " style="fill: rgb(67,184,206); fill-opacity: 1; stroke: rgb(0,0,0); stroke-width: 3" />
	<polygon points="413.047450584897,-124.995867681154 376.721841411833,-136.798773579144 364.918935513841,-100.473164406078 401.244544686899,-88.6702585080854 " style="fill: rgb(67,184,206); fill-opacity: 1; stroke: rgb(0,0,0); stroke-width: 3" />
	<polygon points="267.947859391858,-181.371484928938 231.622250218789,-193.174390826934 239.563438459181,-155.814037526118 " style="fill: rgb(14,173,105); fill-opacity: 1; stroke: rgb(0,0,0); stroke-width: 3" />
	<polygon points="321.298729329803,-128.020614990985 298.848268198803,-158.921023797936 283.31295975016,-124.028149728341 " style="fill: rgb(14,173,105); fill-opacity: 1; stroke: rgb(0,0,0); stroke-width: 3" />
	<polygon points="298.848268198803,-158.921023797936 267.947859391858,-181.371484928938 245.497398260853,-150.471076121991 276.397807067792,-128.020614990988 " style="fill: rgb(67,184,206); fill-opacity: 1; stroke: rgb(0,0,0); stroke-width: 3" />
	<polygon points="243.42515611678,-229.499999999994 212.524747309834,-251.950461130999 181.624338502883,-229.500000000011 193.427244400867,-193.174390826946 231.622250218789,-193.174390826934 " style="fill: rgb(255,210,63); fill-opacity: 1; stroke: rgb(0,0,0); stroke-width: 3" />
	<polygon points="413.047450584899,-186.796685295056 376.721841411832,-174.993779397067 376.721841411833,-136.798773579144 413.047450584897,-124.995867681154 435.497911715896,-155.896276488103 " style="fill: rgb(255,210,63); fill-opacity: 1; stroke: rgb(0,0,0); stroke-width: 3" />
	<polygon points="260.653262380898,-288.969945255952 227.575417044888,-308.067448164922 227.575417044882,-269.872442347002 " style="fill: rgb(14,173,105); fill-opacity: 1; stroke: rgb(0,0,0); stroke-width: 3" />
	<polygon points="376.721841411842,-336.790420442789 413.047450584907,-348.593326340777 401.244544686921,-384.918935513845 364.918935513858,-373.116029615862 " style="fill: rgb(67,184,206); fill-opacity: 1; stroke: rgb(0,0,0); stroke-width: 3" />
	<polygon points="413.047450584902,-286.792508726878 435.497911715901,-255.892099919929 466.398320522853,-278.342561050927 443.947859391859,-309.242969857875 " style="fill: rgb(67,184,206); fill-opacity: 1; stroke: rgb(0,0,0); stroke-width: 3" />
	<polygon points="298.848268198818,-314.668170224 314.383576647462,-349.561044293595 276.397807067819,-345.568579030951 " style="fill: rgb(14,173,105); fill-opacity: 1; stroke: rgb(0,0,0); stroke-width: 3" />
	<polygon points="267.947859391872,-292.217709093003 298.848268198818,-314.668170224 276.397807067819,-345.568579030951 245.497398260874,-323.11811789996 " style="fill: rgb(67,184,206); fill-opacity: 1; stroke: rgb(0,0,0); stroke-width: 3" />
	<polygon points="376.721841411837,-298.595414624866 413.047450584902,-286.792508726878 435.497911715903,-317.692917533827 413.047450584907,-348.593326340777 376.721841411842,-336.790420442789 " style="fill: rgb(255,210,63); fill-opacity: 1; stroke: rgb(0,0,0); stroke-width: 3" />
	<polygon points="329.748677005759,-292.217709092994 352.199138136769,-323.118117899937 321.298729329834,-345.568579030944 298.848268198818,-314.668170224 " style="fill: rgb(67,184,206); fill-opacity: 1; stroke: rgb(0,0,0); stroke-width: 3" />
	<polygon points="279.750765289853,-255.892099919932 317.94577110777,-255.892099919927 329.748677005759,-292.217709092994 298.848268198818,-314.668170224 267.947859391872,-292.217709093003 " style="fill: rgb(255,210,63); fill-opacity: 1; stroke: rgb(0,0,0); stroke-width: 3" />
	<polygon points="317.94577110777,-255.892099919927 317.945771107768,-217.697094102004 340.396232238767,-186.796685295055 376.721841411832,-174.993779397067 413.047450584899,-186.796685295056 435.497911715899,-217.697094102006 435.497911715901,-255.892099919929 413.047450584902,-286.792508726878 376.721841411837,-298.595414624866 340.39623223877,-286.792508726877 " style="fill: rgb(136,136,136); fill-opacity: 1; stroke: rgb(0,0,0); stroke-width: 3" />
	<circle cx="279.750765289847" cy="-217.697094102004" r="2" style="fill: rgb(0,0,0)" />
	<circle cx="317.945771107768" cy="-217.697094102004" r="2" style="fill: rgb(0,0,0)" />
	<circle cx="317.94577110777" cy="-255.892099919927" r="2" style="fill: rgb(0,0,0)" />
	<circle cx="279.750765289853" cy="-255.892099919932" r="2" style="fill: rgb(0,0,0)" />
	<circle cx="267.947859391858" cy="-181.371484928938" r="2" style="fill: rgb(0,0,0)" />
	<circle cx="298.848268198803" cy="-158.921023797936" r="2" style="fill: rgb(0,0,0)" />
	<circle cx="329.748677005752" cy="-181.371484928935" r="2" style="fill: rgb(0,0,0)" />
	<circle cx="246.672919953835" cy="-236.794597010976" r="2" style="fill: rgb(0,0,0)" />
	<circle cx="329.748677005759" cy="-292.217709092994" r="2" style="fill: rgb(0,0,0)" />
	<circle cx="298.848268198818" cy="-314.668170224" r="2" style="fill: rgb(0,0,0)" />
	<circle cx="267.947859391872" cy="-292.217709093003" r="2" style="fill: rgb(0,0,0)" />
	<circle cx="340.396232238767" cy="-186.796685295055" r="2" style="fill: rgb(0,0,0)" />
	<circle cx="376.721841411832" cy="-174.993779397067" r="2" style="fill: rgb(0,0,0)" />
	<circle cx="413.047450584899" cy="-186.796685295056" r="2" style="fill: rgb(0,0,0)" />
	<circle cx="435.497911715899" cy="-217.697094102006" r="2" style="fill: rgb(0,0,0)" />
	<circle cx="435.497911715901" cy="-255.892099919929" r="2" style="fill: rgb(0,0,0)" />
	<circle cx="413.047450584902" cy="-286.792508726878" r="2" style="fill: rgb(0,0,0)" />
	<circle cx="376.721841411837" cy="-298.595414624866" r="2" style="fill: rgb(0,0,0)" />
	<circle cx="340.39623223877" cy="-286.792508726877" r="2" style="fill: rgb(0,0,0)" />
	<circle cx="321.298729329803" cy="-128.020614990985" r="2" style="fill: rgb(0,0,0)" />
	<circle cx="352.19913813675" cy="-150.471076121978" r="2" style="fill: rgb(0,0,0)" />
	<circle cx="243.42515611678" cy="-229.499999999994" r="2" style="fill: rgb(0,0,0)" />
	<circle cx="231.622250218789" cy="-193.174390826934" r="2" style="fill: rgb(0,0,0)" />
	<circle cx="245.497398260853" cy="-150.471076121991" r="2" style="fill: rgb(0,0,0)" />
	<circle cx="276.397807067792" cy="-128.020614990988" r="2" style="fill: rgb(0,0,0)" />
	<circle cx="260.653262380898" cy="-288.969945255952" r="2" style="fill: rgb(0,0,0)" />
	<circle cx="227.575417044882" cy="-269.872442347002" r="2" style="fill: rgb(0,0,0)" />
	<circle cx="276.397807067819" cy="-345.568579030951" r="2" style="fill: rgb(0,0,0)" />
	<circle cx="245.497398260874" cy="-323.11811789996" r="2" style="fill: rgb(0,0,0)" />
	<circle cx="352.199138136769" cy="-323.118117899937" r="2" style="fill: rgb(0,0,0)" />
	<circle cx="321.298729329834" cy="-345.568579030944" r="2" style="fill: rgb(0,0,0)" />
	<circle cx="471.823520888965" cy="-205.894188204016" r="2" style="fill: rgb(0,0,0)" />
	<circle cx="494.273982019968" cy="-236.794597010962" r="2" style="fill: rgb(0,0,0)" />
	<circle cx="471.823520888969" cy="-267.695005817912" r="2" style="fill: rgb(0,0,0)" />
	<circle cx="443.947859391848" cy="-164.346224164054" r="2" style="fill: rgb(0,0,0)" />
	<circle cx="466.398320522849" cy="-195.246632970998" r="2" style="fill: rgb(0,0,0)" />
	<circle cx="376.721841411833" cy="-136.798773579144" r="2" style="fill: rgb(0,0,0)" />
	<circle cx="413.047450584897" cy="-124.995867681154" r="2" style="fill: rgb(0,0,0)" />
	<circle cx="435.497911715896" cy="-155.896276488103" r="2" style="fill: rgb(0,0,0)" />
	<circle cx="466.398320522853" cy="-278.342561050927" r="2" style="fill: rgb(0,0,0)" />
	<circle cx="443.947859391859" cy="-309.242969857875" r="2" style="fill: rgb(0,0,0)" />
	<circle cx="435.497911715903" cy="-317.692917533827" r="2" style="fill: rgb(0,0,0)" />
	<circle cx="413.047450584907" cy="-348.593326340777" r="2" style="fill: rgb(0,0,0)" />
	<circle cx="376.721841411842" cy="-336.790420442789" r="2" style="fill: rgb(0,0,0)" />
	<circle cx="283.31295975016" cy="-124.028149728341" r="2" style="fill: rgb(0,0,0)" />
	<circle cx="239.563438459181" cy="-155.814037526118" r="2" style="fill: rgb(0,0,0)" />
	<circle cx="212.524747309834" cy="-251.950461130999" r="2" style="fill: rgb(0,0,0)" />
	<circle cx="181.624338502883" cy="-229.500000000011" r="2" style="fill: rgb(0,0,0)" />
	<circle cx="193.427244400867" cy="-193.174390826946" r="2" style="fill: rgb(0,0,0)" />
	<circle cx="214.596989453899" cy="-128.020614990998" r="2" style="fill: rgb(0,0,0)" />
	<circle cx="226.399895351869" cy="-91.6950058179336" r="2" style="fill: rgb(0,0,0)" />
	<circle cx="264.594901169788" cy="-91.6950058179275" r="2" style="fill: rgb(0,0,0)" />
	<circle cx="227.575417044888" cy="-308.067448164922" r="2" style="fill: rgb(0,0,0)" />
	<circle cx="264.594901169836" cy="-381.89418820402" r="2" style="fill: rgb(0,0,0)" />
	<circle cx="226.399895351922" cy="-381.894188204033" r="2" style="fill: rgb(0,0,0)" />
	<circle cx="214.596989453934" cy="-345.568579030971" r="2" style="fill: rgb(0,0,0)" />
	<circle cx="314.383576647462" cy="-349.561044293595" r="2" style="fill: rgb(0,0,0)" />
	<circle cx="525.174390826921" cy="-259.24505814196" r="2" style="fill: rgb(0,0,0)" />
	<circle cx="502.723929695927" cy="-290.145466948909" r="2" style="fill: rgb(0,0,0)" />
	<circle cx="502.723929695912" cy="-183.443727073011" r="2" style="fill: rgb(0,0,0)" />
	<circle cx="525.174390826916" cy="-214.34413587995" r="2" style="fill: rgb(0,0,0)" />
	<circle cx="481.933628971491" cy="-160.353758901403" r="2" style="fill: rgb(0,0,0)" />
	<circle cx="443.947859391847" cy="-102.545406550153" r="2" style="fill: rgb(0,0,0)" />
	<circle cx="466.398320522846" cy="-133.445815357096" r="2" style="fill: rgb(0,0,0)" />
	<circle cx="364.918935513841" cy="-100.473164406078" r="2" style="fill: rgb(0,0,0)" />
	<circle cx="401.244544686899" cy="-88.6702585080854" r="2" style="fill: rgb(0,0,0)" />
	<circle cx="481.933628971501" cy="-313.235435120521" r="2" style="fill: rgb(0,0,0)" />
	<circle cx="466.398320522857" cy="-340.143378664824" r="2" style="fill: rgb(0,0,0)" />
	<circle cx="443.947859391867" cy="-371.043787471772" r="2" style="fill: rgb(0,0,0)" />
	<circle cx="401.244544686921" cy="-384.918935513845" r="2" style="fill: rgb(0,0,0)" />
	<circle cx="364.918935513858" cy="-373.116029615862" r="2" style="fill: rgb(0,0,0)" />
	<circle cx="194.261896917972" cy="-185.233202586543" r="2" style="fill: rgb(0,0,0)" />
	<circle cx="202.203085158358" cy="-147.872849285731" r="2" style="fill: rgb(0,0,0)" />
	<circle cx="190.074286178844" cy="-282.850869937956" r="2" style="fill: rgb(0,0,0)" />
	<circle cx="159.173877371894" cy="-260.400408806974" r="2" style="fill: rgb(0,0,0)" />
	<circle cx="150.723929695935" cy="-251.950461131013" r="2" style="fill: rgb(0,0,0)" />
	<circle cx="112.528923878012" cy="-251.950461131018" r="2" style="fill: rgb(0,0,0)" />
	<circle cx="81.628515071061" cy="-229.500000000024" r="2" style="fill: rgb(0,0,0)" />
	<circle cx="69.8256091730694" cy="-193.174390826963" r="2" style="fill: rgb(0,0,0)" />
	<circle cx="81.628515071054" cy="-156.848781653898" r="2" style="fill: rgb(0,0,0)" />
	<circle cx="112.528923878002" cy="-134.398320522895" r="2" style="fill: rgb(0,0,0)" />
	<circle cx="150.723929695924" cy="-134.39832052289" r="2" style="fill: rgb(0,0,0)" />
	<circle cx="181.624338502876" cy="-156.848781653884" r="2" style="fill: rgb(0,0,0)" />
	<circle cx="226.399895351867" cy="-53.5000000000099" r="2" style="fill: rgb(0,0,0)" />
	<circle cx="264.594901169782" cy="-53.5" r="2" style="fill: rgb(0,0,0)" />
	<circle cx="264.594901169838" cy="-420.089194021944" r="2" style="fill: rgb(0,0,0)" />
	<circle cx="226.399895351928" cy="-420.089194021961" r="2" style="fill: rgb(0,0,0)" />
	<circle cx="561.49999999999" cy="-271.047964039943" r="2" style="fill: rgb(0,0,0)" />
	<circle cx="561.5" cy="-309.242969857861" r="2" style="fill: rgb(0,0,0)" />
	<circle cx="525.174390826936" cy="-321.045875755851" r="2" style="fill: rgb(0,0,0)" />
	<circle cx="529.166856089564" cy="-221.259288562317" r="2" style="fill: rgb(0,0,0)" />
	<circle cx="525.174390826906" cy="-152.543318266056" r="2" style="fill: rgb(0,0,0)" />
	<circle cx="561.499999999971" cy="-164.346224164028" r="2" style="fill: rgb(0,0,0)" />
	<circle cx="561.499999999976" cy="-202.541229981947" r="2" style="fill: rgb(0,0,0)" />
	<circle cx="409.054985322251" cy="-87.0100981015115" r="2" style="fill: rgb(0,0,0)" />
	<circle cx="409.054985322277" cy="-386.579095920425" r="2" style="fill: rgb(0,0,0)" />
	<circle cx="33.5" cy="-181.371484928978" r="2" style="fill: rgb(0,0,0)" />
	<circle cx="45.3029058979799" cy="-145.045875755916" r="2" style="fill: rgb(0,0,0)" />
	<!--
	Generated using the Perl SVG Module V2.84
	by Ronan Oger
	Info: http://www.roitsystems.com/
	-->
</svg>