<?xml version="1.0" encoding="UTF-8" standalone="yes"?>
<!DOCTYPE svg PUBLIC "-//W3C//DTD SVG 1.0//EN" "http://www.w3.org/TR/2001/REC-SVG-20010904/DTD/svg10.dtd">
<!-- generated using polymake; Michael Joswig, Georg Loho, Benjamin Lorenz, Rico Raber; license CC BY-NC-ND 3.0; see polymake.org and matchthenet.de -->
<svg height="841pt" id="document" viewBox="0 -728.252575817823 572 728.252575817823" width="595pt" xmlns="http://www.w3.org/2000/svg" xmlns:svg="http://www.w3.org/2000/svg" xmlns:xlink="http://www.w3.org/1999/xlink">
	<title id="document_title">planar_net_</title>
	<polygon points="292.615038554614,-409.824489858414 331.979202390141,-409.824489858414 312.297120472366,-443.914855738713 " style="fill: rgb(14,173,105); fill-opacity: 1; stroke: rgb(0,0,0); stroke-width: 3" />
	<polygon points="363.825479902442,-386.686814887067 331.979202390141,-409.824489858414 292.615038554614,-409.824489858414 260.768761042313,-386.686814887067 248.604565447775,-349.249270362779 260.768761042313,-311.811725838491 292.615038554614,-288.674050867143 331.979202390141,-288.674050867143 363.825479902442,-311.811725838491 375.989675496979,-349.249270362779 " style="fill: rgb(136,136,136); fill-opacity: 1; stroke: rgb(0,0,0); stroke-width: 3" />
	<polygon points="402.329442313064,-378.50254502639 363.825479902442,-386.686814887067 375.989675496979,-349.249270362779 " style="fill: rgb(14,173,105); fill-opacity: 1; stroke: rgb(0,0,0); stroke-width: 3" />
	<polygon points="260.768761042313,-386.686814887067 222.264798631691,-378.502545026391 248.604565447775,-349.249270362779 " style="fill: rgb(14,173,105); fill-opacity: 1; stroke: rgb(0,0,0); stroke-width: 3" />
	<polygon points="432.783884682663,-431.251186526792 406.444117866599,-401.997911863162 444.948080277221,-393.813642002517 " style="fill: rgb(14,173,105); fill-opacity: 1; stroke: rgb(0,0,0); stroke-width: 3" />
	<polygon points="432.783884682663,-431.251186526792 444.948080277221,-393.813642002517 482.385624801508,-405.977837597076 470.221429206952,-443.415382121347 " style="fill: rgb(67,184,206); fill-opacity: 1; stroke: rgb(0,0,0); stroke-width: 3" />
	<polygon points="218.150123078168,-401.997911863138 191.810356262088,-431.251186526754 179.646160667557,-393.813642002455 " style="fill: rgb(14,173,105); fill-opacity: 1; stroke: rgb(0,0,0); stroke-width: 3" />
	<polygon points="222.264798631691,-378.502545026391 193.011523968076,-352.162778210308 219.351290784152,-322.909503546698 248.604565447775,-349.249270362779 " style="fill: rgb(67,184,206); fill-opacity: 1; stroke: rgb(0,0,0); stroke-width: 3" />
	<polygon points="375.989675496979,-349.249270362779 363.825479902442,-311.811725838491 402.329442313057,-319.995995699173 " style="fill: rgb(14,173,105); fill-opacity: 1; stroke: rgb(0,0,0); stroke-width: 3" />
	<polygon points="402.329442313064,-378.50254502639 375.989675496979,-349.249270362779 405.242950160593,-322.909503546691 431.582716976674,-352.162778210298 " style="fill: rgb(67,184,206); fill-opacity: 1; stroke: rgb(0,0,0); stroke-width: 3" />
	<polygon points="260.768761042313,-311.811725838491 248.604565447775,-349.249270362779 222.2647986317,-319.995995699151 " style="fill: rgb(14,173,105); fill-opacity: 1; stroke: rgb(0,0,0); stroke-width: 3" />
	<polygon points="260.768761042313,-311.811725838491 222.2647986317,-319.995995699151 214.080528771034,-281.49203328853 252.584491181635,-273.307763427865 " style="fill: rgb(67,184,206); fill-opacity: 1; stroke: rgb(0,0,0); stroke-width: 3" />
	<polygon points="193.011523968076,-352.162778210308 157.050570902231,-336.151930354355 161.165246455772,-297.003407527064 199.669208866385,-288.8191376664 219.351290784152,-322.909503546698 " style="fill: rgb(255,210,63); fill-opacity: 1; stroke: rgb(0,0,0); stroke-width: 3" />
	<polygon points="363.825479902442,-311.811725838491 331.979202390141,-288.674050867143 367.940155455986,-272.663203011184 " style="fill: rgb(14,173,105); fill-opacity: 1; stroke: rgb(0,0,0); stroke-width: 3" />
	<polygon points="292.615038554614,-288.674050867143 260.768761042313,-311.811725838491 256.654085488768,-272.663203011194 " style="fill: rgb(14,173,105); fill-opacity: 1; stroke: rgb(0,0,0); stroke-width: 3" />
	<polygon points="127.646997394197,-683.568305957149 89.1430349835959,-691.752575817823 53.1820819177605,-675.741727961874 33.5,-641.651362081574 37.6146755535401,-602.502839254274 63.9544423696068,-573.249564590654 102.458404780208,-565.065294729981 138.419357846044,-581.076142585929 158.101439763804,-615.166508466231 153.986764210264,-654.31503129353 " style="fill: rgb(136,136,136); fill-opacity: 1; stroke: rgb(0,0,0); stroke-width: 3" />
	<polygon points="248.604565447775,-228.098831371506 260.768761042312,-265.536375895795 222.264798631697,-257.35210603511 " style="fill: rgb(14,173,105); fill-opacity: 1; stroke: rgb(0,0,0); stroke-width: 3" />
	<polygon points="248.604565447775,-228.098831371506 222.264798631697,-257.35210603511 193.011523968083,-231.012339219024 219.351290784154,-201.759064555425 " style="fill: rgb(67,184,206); fill-opacity: 1; stroke: rgb(0,0,0); stroke-width: 3" />
	<polygon points="403.189643737969,-190.661286847225 435.035921250272,-167.523611875879 439.150596803808,-206.672134703182 " style="fill: rgb(14,173,105); fill-opacity: 1; stroke: rgb(0,0,0); stroke-width: 3" />
	<polygon points="375.989675496979,-228.09883137151 402.329442313062,-198.845556707896 431.58271697668,-225.185323523972 405.242950160603,-254.438598187592 " style="fill: rgb(67,184,206); fill-opacity: 1; stroke: rgb(0,0,0); stroke-width: 3" />
	<polygon points="189.558319694483,-167.523611875867 221.404597206785,-190.661286847216 185.443644140934,-206.672134703153 " style="fill: rgb(14,173,105); fill-opacity: 1; stroke: rgb(0,0,0); stroke-width: 3" />
	<polygon points="113.230765232089,-462.573131358772 74.7268028214642,-454.388861498102 82.9110726821248,-415.884899087487 121.415035092752,-424.069168948149 " style="fill: rgb(67,184,206); fill-opacity: 1; stroke: rgb(0,0,0); stroke-width: 3" />
	<polygon points="260.768761042312,-190.661286847218 248.604565447775,-228.098831371506 222.26479863169,-198.845556707892 " style="fill: rgb(14,173,105); fill-opacity: 1; stroke: rgb(0,0,0); stroke-width: 3" />
	<polygon points="331.97920239014,-167.523611875872 292.615038554613,-167.523611875871 312.297120472388,-133.433245995573 " style="fill: rgb(14,173,105); fill-opacity: 1; stroke: rgb(0,0,0); stroke-width: 3" />
	<polygon points="296.729714108156,-53.5 292.615038554612,-92.648522827298 260.768761042311,-69.5108478559495 " style="fill: rgb(14,173,105); fill-opacity: 1; stroke: rgb(0,0,0); stroke-width: 3" />
	<polygon points="177.394124099945,-130.086067351579 189.558319694482,-92.6485228272923 221.404597206783,-69.5108478559472 260.768761042311,-69.5108478559495 292.615038554612,-92.648522827298 304.77923414915,-130.086067351585 292.615038554613,-167.523611875871 260.768761042312,-190.661286847218 221.404597206785,-190.661286847216 189.558319694483,-167.523611875867 " style="fill: rgb(136,136,136); fill-opacity: 1; stroke: rgb(0,0,0); stroke-width: 3" />
	<polygon points="82.7763228624561,-530.974928849683 102.458404780208,-565.065294729981 63.0942409446671,-565.06529472998 " style="fill: rgb(14,173,105); fill-opacity: 1; stroke: rgb(0,0,0); stroke-width: 3" />
	<polygon points="522.135836164469,-565.065294730075 541.817918082244,-530.974928849777 561.5,-565.065294730081 " style="fill: rgb(14,173,105); fill-opacity: 1; stroke: rgb(0,0,0); stroke-width: 3" />
	<polygon points="435.035921250275,-92.6485228273003 447.200116844811,-130.086067351591 435.035921250272,-167.523611875879 403.189643737969,-190.661286847225 363.825479902441,-190.661286847221 331.97920239014,-167.523611875872 319.815006795604,-130.086067351582 331.979202390143,-92.6485228272936 363.825479902446,-69.5108478559475 403.189643737974,-69.5108478559506 " style="fill: rgb(136,136,136); fill-opacity: 1; stroke: rgb(0,0,0); stroke-width: 3" />
	<polygon points="375.989675496979,-228.09883137151 363.825479902441,-190.661286847221 402.329442313062,-198.845556707896 " style="fill: rgb(14,173,105); fill-opacity: 1; stroke: rgb(0,0,0); stroke-width: 3" />
	<polygon points="113.230765232089,-462.573131358772 86.8909984160098,-491.826406022387 74.7268028214642,-454.388861498102 " style="fill: rgb(14,173,105); fill-opacity: 1; stroke: rgb(0,0,0); stroke-width: 3" />
	<polygon points="537.703242528715,-491.826406022473 511.363475712651,-462.573131358843 549.867438123278,-454.388861498193 " style="fill: rgb(14,173,105); fill-opacity: 1; stroke: rgb(0,0,0); stroke-width: 3" />
	<polygon points="331.979202390141,-288.674050867143 292.615038554614,-288.674050867143 260.768761042312,-265.536375895795 248.604565447775,-228.098831371506 260.768761042312,-190.661286847218 292.615038554613,-167.523611875871 331.97920239014,-167.523611875872 363.825479902441,-190.661286847221 375.989675496979,-228.09883137151 363.825479902442,-265.536375895798 " style="fill: rgb(136,136,136); fill-opacity: 1; stroke: rgb(0,0,0); stroke-width: 3" />
	<polygon points="363.825479902442,-265.536375895798 375.989675496979,-228.09883137151 402.329442313054,-257.352106035135 " style="fill: rgb(14,173,105); fill-opacity: 1; stroke: rgb(0,0,0); stroke-width: 3" />
	<polygon points="363.825479902442,-311.811725838491 372.009749763124,-273.307763427873 410.513712173732,-281.49203328855 402.329442313057,-319.995995699173 " style="fill: rgb(67,184,206); fill-opacity: 1; stroke: rgb(0,0,0); stroke-width: 3" />
	<polygon points="151.7347276427,-454.3888614981 113.230765232089,-462.573131358772 125.394960826637,-425.135586834482 " style="fill: rgb(14,173,105); fill-opacity: 1; stroke: rgb(0,0,0); stroke-width: 3" />
	<polygon points="191.810356262088,-431.251186526754 154.372811737793,-443.415382121285 142.208616143262,-405.977837596993 179.646160667557,-393.813642002455 " style="fill: rgb(67,184,206); fill-opacity: 1; stroke: rgb(0,0,0); stroke-width: 3" />
	<polygon points="176.923320256654,-572.891872725258 164.759124662108,-610.32941724954 138.419357846044,-581.076142585929 " style="fill: rgb(14,173,105); fill-opacity: 1; stroke: rgb(0,0,0); stroke-width: 3" />
	<polygon points="307.031270716737,-630.81966445678 294.8670751222,-668.257208981069 268.527308306128,-639.003934317451 " style="fill: rgb(14,173,105); fill-opacity: 1; stroke: rgb(0,0,0); stroke-width: 3" />
	<polygon points="511.363475712651,-462.573131358843 472.859513302042,-454.388861498157 499.199280118141,-425.135586834554 " style="fill: rgb(14,173,105); fill-opacity: 1; stroke: rgb(0,0,0); stroke-width: 3" />
	<polygon points="511.363475712651,-462.573131358843 503.179205852005,-424.069168948225 541.683168262619,-415.884899087568 549.867438123278,-454.388861498193 " style="fill: rgb(67,184,206); fill-opacity: 1; stroke: rgb(0,0,0); stroke-width: 3" />
	<polygon points="431.582716976674,-352.162778210298 405.242950160593,-322.909503546691 424.925032078347,-288.819137666385 463.42899448896,-297.003407527038 467.543670042511,-336.151930354331 " style="fill: rgb(255,210,63); fill-opacity: 1; stroke: rgb(0,0,0); stroke-width: 3" />
	<polygon points="191.810356262088,-431.251186526754 187.695680708535,-470.399709354049 155.849403196239,-447.262034382694 " style="fill: rgb(14,173,105); fill-opacity: 1; stroke: rgb(0,0,0); stroke-width: 3" />
	<polygon points="436.898560236193,-470.399709354096 432.783884682663,-431.251186526792 468.744837748503,-447.262034382754 " style="fill: rgb(14,173,105); fill-opacity: 1; stroke: rgb(0,0,0); stroke-width: 3" />
	<polygon points="187.695680708535,-470.399709354049 207.377762626287,-504.490075234347 203.263087072734,-543.638598061642 176.923320256654,-572.891872725258 138.419357846044,-581.076142585929 102.458404780208,-565.065294729981 82.7763228624561,-530.974928849683 86.8909984160098,-491.826406022387 113.230765232089,-462.573131358772 151.7347276427,-454.3888614981 " style="fill: rgb(136,136,136); fill-opacity: 1; stroke: rgb(0,0,0); stroke-width: 3" />
	<polygon points="417.216478318418,-504.490075234394 436.898560236193,-470.399709354096 472.859513302042,-454.388861498157 511.363475712651,-462.573131358843 537.703242528715,-491.826406022473 541.817918082244,-530.974928849777 522.135836164469,-565.065294730075 486.174883098619,-581.076142586013 447.67092068801,-572.891872725327 421.331153871946,-543.638598061697 " style="fill: rgb(136,136,136); fill-opacity: 1; stroke: rgb(0,0,0); stroke-width: 3" />
	<polygon points="207.377762626287,-504.490075234347 243.338715692123,-520.500923090295 211.492438179812,-543.638598061636 " style="fill: rgb(14,173,105); fill-opacity: 1; stroke: rgb(0,0,0); stroke-width: 3" />
	<polygon points="381.255525252568,-520.500923090333 417.216478318418,-504.490075234394 413.101802764854,-543.638598061688 " style="fill: rgb(14,173,105); fill-opacity: 1; stroke: rgb(0,0,0); stroke-width: 3" />
	<polygon points="317.803631168578,-528.327501085571 337.485713086346,-562.41786696587 333.371037532808,-601.566389793164 307.031270716737,-630.81966445678 268.527308306128,-639.003934317451 232.566355240282,-622.993086461503 212.884273322515,-588.902720581205 216.998948876053,-549.75419775391 243.338715692123,-520.500923090295 281.842678102733,-512.316653229623 " style="fill: rgb(136,136,136); fill-opacity: 1; stroke: rgb(0,0,0); stroke-width: 3" />
	<polygon points="308.182444918813,-483.063378566008 320.346640513353,-520.500923090299 281.842678102733,-512.316653229623 " style="fill: rgb(14,173,105); fill-opacity: 1; stroke: rgb(0,0,0); stroke-width: 3" />
	<polygon points="292.615038554614,-409.824489858414 312.297120472366,-443.914855738713 308.182444918813,-483.063378566008 281.842678102733,-512.316653229623 243.338715692123,-520.500923090295 207.377762626287,-504.490075234347 187.695680708535,-470.399709354049 191.810356262088,-431.251186526754 218.150123078168,-401.997911863138 256.654085488778,-393.813642002467 " style="fill: rgb(136,136,136); fill-opacity: 1; stroke: rgb(0,0,0); stroke-width: 3" />
	<polygon points="312.297120472366,-443.914855738713 331.979202390141,-409.824489858414 367.94015545599,-393.813642002476 406.444117866599,-401.997911863162 432.783884682663,-431.251186526792 436.898560236193,-470.399709354096 417.216478318418,-504.490075234394 381.255525252568,-520.500923090333 342.751562841959,-512.316653229647 316.411796025895,-483.063378566016 " style="fill: rgb(136,136,136); fill-opacity: 1; stroke: rgb(0,0,0); stroke-width: 3" />
	<circle cx="292.615038554614" cy="-409.824489858414" r="2" style="fill: rgb(0,0,0)" />
	<circle cx="331.979202390141" cy="-409.824489858414" r="2" style="fill: rgb(0,0,0)" />
	<circle cx="312.297120472366" cy="-443.914855738713" r="2" style="fill: rgb(0,0,0)" />
	<circle cx="260.768761042313" cy="-386.686814887067" r="2" style="fill: rgb(0,0,0)" />
	<circle cx="248.604565447775" cy="-349.249270362779" r="2" style="fill: rgb(0,0,0)" />
	<circle cx="260.768761042313" cy="-311.811725838491" r="2" style="fill: rgb(0,0,0)" />
	<circle cx="292.615038554614" cy="-288.674050867143" r="2" style="fill: rgb(0,0,0)" />
	<circle cx="331.979202390141" cy="-288.674050867143" r="2" style="fill: rgb(0,0,0)" />
	<circle cx="363.825479902442" cy="-311.811725838491" r="2" style="fill: rgb(0,0,0)" />
	<circle cx="375.989675496979" cy="-349.249270362779" r="2" style="fill: rgb(0,0,0)" />
	<circle cx="363.825479902442" cy="-386.686814887067" r="2" style="fill: rgb(0,0,0)" />
	<circle cx="308.182444918813" cy="-483.063378566008" r="2" style="fill: rgb(0,0,0)" />
	<circle cx="281.842678102733" cy="-512.316653229623" r="2" style="fill: rgb(0,0,0)" />
	<circle cx="243.338715692123" cy="-520.500923090295" r="2" style="fill: rgb(0,0,0)" />
	<circle cx="207.377762626287" cy="-504.490075234347" r="2" style="fill: rgb(0,0,0)" />
	<circle cx="187.695680708535" cy="-470.399709354049" r="2" style="fill: rgb(0,0,0)" />
	<circle cx="191.810356262088" cy="-431.251186526754" r="2" style="fill: rgb(0,0,0)" />
	<circle cx="218.150123078168" cy="-401.997911863138" r="2" style="fill: rgb(0,0,0)" />
	<circle cx="256.654085488778" cy="-393.813642002467" r="2" style="fill: rgb(0,0,0)" />
	<circle cx="367.94015545599" cy="-393.813642002476" r="2" style="fill: rgb(0,0,0)" />
	<circle cx="406.444117866599" cy="-401.997911863162" r="2" style="fill: rgb(0,0,0)" />
	<circle cx="432.783884682663" cy="-431.251186526792" r="2" style="fill: rgb(0,0,0)" />
	<circle cx="436.898560236193" cy="-470.399709354096" r="2" style="fill: rgb(0,0,0)" />
	<circle cx="417.216478318418" cy="-504.490075234394" r="2" style="fill: rgb(0,0,0)" />
	<circle cx="381.255525252568" cy="-520.500923090333" r="2" style="fill: rgb(0,0,0)" />
	<circle cx="342.751562841959" cy="-512.316653229647" r="2" style="fill: rgb(0,0,0)" />
	<circle cx="316.411796025895" cy="-483.063378566016" r="2" style="fill: rgb(0,0,0)" />
	<circle cx="402.329442313064" cy="-378.50254502639" r="2" style="fill: rgb(0,0,0)" />
	<circle cx="222.264798631691" cy="-378.502545026391" r="2" style="fill: rgb(0,0,0)" />
	<circle cx="402.329442313057" cy="-319.995995699173" r="2" style="fill: rgb(0,0,0)" />
	<circle cx="222.2647986317" cy="-319.995995699151" r="2" style="fill: rgb(0,0,0)" />
	<circle cx="367.940155455986" cy="-272.663203011184" r="2" style="fill: rgb(0,0,0)" />
	<circle cx="256.654085488768" cy="-272.663203011194" r="2" style="fill: rgb(0,0,0)" />
	<circle cx="260.768761042312" cy="-265.536375895795" r="2" style="fill: rgb(0,0,0)" />
	<circle cx="248.604565447775" cy="-228.098831371506" r="2" style="fill: rgb(0,0,0)" />
	<circle cx="260.768761042312" cy="-190.661286847218" r="2" style="fill: rgb(0,0,0)" />
	<circle cx="292.615038554613" cy="-167.523611875871" r="2" style="fill: rgb(0,0,0)" />
	<circle cx="331.97920239014" cy="-167.523611875872" r="2" style="fill: rgb(0,0,0)" />
	<circle cx="363.825479902441" cy="-190.661286847221" r="2" style="fill: rgb(0,0,0)" />
	<circle cx="375.989675496979" cy="-228.09883137151" r="2" style="fill: rgb(0,0,0)" />
	<circle cx="363.825479902442" cy="-265.536375895798" r="2" style="fill: rgb(0,0,0)" />
	<circle cx="179.646160667557" cy="-393.813642002455" r="2" style="fill: rgb(0,0,0)" />
	<circle cx="155.849403196239" cy="-447.262034382694" r="2" style="fill: rgb(0,0,0)" />
	<circle cx="203.263087072734" cy="-543.638598061642" r="2" style="fill: rgb(0,0,0)" />
	<circle cx="176.923320256654" cy="-572.891872725258" r="2" style="fill: rgb(0,0,0)" />
	<circle cx="138.419357846044" cy="-581.076142585929" r="2" style="fill: rgb(0,0,0)" />
	<circle cx="102.458404780208" cy="-565.065294729981" r="2" style="fill: rgb(0,0,0)" />
	<circle cx="82.7763228624561" cy="-530.974928849683" r="2" style="fill: rgb(0,0,0)" />
	<circle cx="86.8909984160098" cy="-491.826406022387" r="2" style="fill: rgb(0,0,0)" />
	<circle cx="113.230765232089" cy="-462.573131358772" r="2" style="fill: rgb(0,0,0)" />
	<circle cx="151.7347276427" cy="-454.3888614981" r="2" style="fill: rgb(0,0,0)" />
	<circle cx="211.492438179812" cy="-543.638598061636" r="2" style="fill: rgb(0,0,0)" />
	<circle cx="317.803631168578" cy="-528.327501085571" r="2" style="fill: rgb(0,0,0)" />
	<circle cx="337.485713086346" cy="-562.41786696587" r="2" style="fill: rgb(0,0,0)" />
	<circle cx="333.371037532808" cy="-601.566389793164" r="2" style="fill: rgb(0,0,0)" />
	<circle cx="307.031270716737" cy="-630.81966445678" r="2" style="fill: rgb(0,0,0)" />
	<circle cx="268.527308306128" cy="-639.003934317451" r="2" style="fill: rgb(0,0,0)" />
	<circle cx="232.566355240282" cy="-622.993086461503" r="2" style="fill: rgb(0,0,0)" />
	<circle cx="212.884273322515" cy="-588.902720581205" r="2" style="fill: rgb(0,0,0)" />
	<circle cx="216.998948876053" cy="-549.75419775391" r="2" style="fill: rgb(0,0,0)" />
	<circle cx="320.346640513353" cy="-520.500923090299" r="2" style="fill: rgb(0,0,0)" />
	<circle cx="444.948080277221" cy="-393.813642002517" r="2" style="fill: rgb(0,0,0)" />
	<circle cx="468.744837748503" cy="-447.262034382754" r="2" style="fill: rgb(0,0,0)" />
	<circle cx="472.859513302042" cy="-454.388861498157" r="2" style="fill: rgb(0,0,0)" />
	<circle cx="511.363475712651" cy="-462.573131358843" r="2" style="fill: rgb(0,0,0)" />
	<circle cx="537.703242528715" cy="-491.826406022473" r="2" style="fill: rgb(0,0,0)" />
	<circle cx="541.817918082244" cy="-530.974928849777" r="2" style="fill: rgb(0,0,0)" />
	<circle cx="522.135836164469" cy="-565.065294730075" r="2" style="fill: rgb(0,0,0)" />
	<circle cx="486.174883098619" cy="-581.076142586013" r="2" style="fill: rgb(0,0,0)" />
	<circle cx="447.67092068801" cy="-572.891872725327" r="2" style="fill: rgb(0,0,0)" />
	<circle cx="421.331153871946" cy="-543.638598061697" r="2" style="fill: rgb(0,0,0)" />
	<circle cx="413.101802764854" cy="-543.638598061688" r="2" style="fill: rgb(0,0,0)" />
	<circle cx="405.242950160593" cy="-322.909503546691" r="2" style="fill: rgb(0,0,0)" />
	<circle cx="431.582716976674" cy="-352.162778210298" r="2" style="fill: rgb(0,0,0)" />
	<circle cx="193.011523968076" cy="-352.162778210308" r="2" style="fill: rgb(0,0,0)" />
	<circle cx="219.351290784152" cy="-322.909503546698" r="2" style="fill: rgb(0,0,0)" />
	<circle cx="372.009749763124" cy="-273.307763427873" r="2" style="fill: rgb(0,0,0)" />
	<circle cx="410.513712173732" cy="-281.49203328855" r="2" style="fill: rgb(0,0,0)" />
	<circle cx="214.080528771034" cy="-281.49203328853" r="2" style="fill: rgb(0,0,0)" />
	<circle cx="252.584491181635" cy="-273.307763427865" r="2" style="fill: rgb(0,0,0)" />
	<circle cx="222.264798631697" cy="-257.35210603511" r="2" style="fill: rgb(0,0,0)" />
	<circle cx="222.26479863169" cy="-198.845556707892" r="2" style="fill: rgb(0,0,0)" />
	<circle cx="312.297120472388" cy="-133.433245995573" r="2" style="fill: rgb(0,0,0)" />
	<circle cx="221.404597206785" cy="-190.661286847216" r="2" style="fill: rgb(0,0,0)" />
	<circle cx="189.558319694483" cy="-167.523611875867" r="2" style="fill: rgb(0,0,0)" />
	<circle cx="177.394124099945" cy="-130.086067351579" r="2" style="fill: rgb(0,0,0)" />
	<circle cx="189.558319694482" cy="-92.6485228272923" r="2" style="fill: rgb(0,0,0)" />
	<circle cx="221.404597206783" cy="-69.5108478559472" r="2" style="fill: rgb(0,0,0)" />
	<circle cx="260.768761042311" cy="-69.5108478559495" r="2" style="fill: rgb(0,0,0)" />
	<circle cx="292.615038554612" cy="-92.648522827298" r="2" style="fill: rgb(0,0,0)" />
	<circle cx="304.77923414915" cy="-130.086067351585" r="2" style="fill: rgb(0,0,0)" />
	<circle cx="319.815006795604" cy="-130.086067351582" r="2" style="fill: rgb(0,0,0)" />
	<circle cx="331.979202390143" cy="-92.6485228272936" r="2" style="fill: rgb(0,0,0)" />
	<circle cx="363.825479902446" cy="-69.5108478559475" r="2" style="fill: rgb(0,0,0)" />
	<circle cx="403.189643737974" cy="-69.5108478559506" r="2" style="fill: rgb(0,0,0)" />
	<circle cx="435.035921250275" cy="-92.6485228273003" r="2" style="fill: rgb(0,0,0)" />
	<circle cx="447.200116844811" cy="-130.086067351591" r="2" style="fill: rgb(0,0,0)" />
	<circle cx="435.035921250272" cy="-167.523611875879" r="2" style="fill: rgb(0,0,0)" />
	<circle cx="403.189643737969" cy="-190.661286847225" r="2" style="fill: rgb(0,0,0)" />
	<circle cx="402.329442313062" cy="-198.845556707896" r="2" style="fill: rgb(0,0,0)" />
	<circle cx="402.329442313054" cy="-257.352106035135" r="2" style="fill: rgb(0,0,0)" />
	<circle cx="154.372811737793" cy="-443.415382121285" r="2" style="fill: rgb(0,0,0)" />
	<circle cx="142.208616143262" cy="-405.977837596993" r="2" style="fill: rgb(0,0,0)" />
	<circle cx="158.101439763804" cy="-615.166508466231" r="2" style="fill: rgb(0,0,0)" />
	<circle cx="153.986764210264" cy="-654.31503129353" r="2" style="fill: rgb(0,0,0)" />
	<circle cx="127.646997394197" cy="-683.568305957149" r="2" style="fill: rgb(0,0,0)" />
	<circle cx="89.1430349835959" cy="-691.752575817823" r="2" style="fill: rgb(0,0,0)" />
	<circle cx="53.1820819177605" cy="-675.741727961874" r="2" style="fill: rgb(0,0,0)" />
	<circle cx="33.5" cy="-641.651362081574" r="2" style="fill: rgb(0,0,0)" />
	<circle cx="37.6146755535401" cy="-602.502839254274" r="2" style="fill: rgb(0,0,0)" />
	<circle cx="63.9544423696068" cy="-573.249564590654" r="2" style="fill: rgb(0,0,0)" />
	<circle cx="63.0942409446671" cy="-565.06529472998" r="2" style="fill: rgb(0,0,0)" />
	<circle cx="74.7268028214642" cy="-454.388861498102" r="2" style="fill: rgb(0,0,0)" />
	<circle cx="125.394960826637" cy="-425.135586834482" r="2" style="fill: rgb(0,0,0)" />
	<circle cx="164.759124662108" cy="-610.32941724954" r="2" style="fill: rgb(0,0,0)" />
	<circle cx="294.8670751222" cy="-668.257208981069" r="2" style="fill: rgb(0,0,0)" />
	<circle cx="482.385624801508" cy="-405.977837597076" r="2" style="fill: rgb(0,0,0)" />
	<circle cx="470.221429206952" cy="-443.415382121347" r="2" style="fill: rgb(0,0,0)" />
	<circle cx="561.5" cy="-565.065294730081" r="2" style="fill: rgb(0,0,0)" />
	<circle cx="549.867438123278" cy="-454.388861498193" r="2" style="fill: rgb(0,0,0)" />
	<circle cx="499.199280118141" cy="-425.135586834554" r="2" style="fill: rgb(0,0,0)" />
	<circle cx="424.925032078347" cy="-288.819137666385" r="2" style="fill: rgb(0,0,0)" />
	<circle cx="463.42899448896" cy="-297.003407527038" r="2" style="fill: rgb(0,0,0)" />
	<circle cx="467.543670042511" cy="-336.151930354331" r="2" style="fill: rgb(0,0,0)" />
	<circle cx="157.050570902231" cy="-336.151930354355" r="2" style="fill: rgb(0,0,0)" />
	<circle cx="161.165246455772" cy="-297.003407527064" r="2" style="fill: rgb(0,0,0)" />
	<circle cx="199.669208866385" cy="-288.8191376664" r="2" style="fill: rgb(0,0,0)" />
	<circle cx="193.011523968083" cy="-231.012339219024" r="2" style="fill: rgb(0,0,0)" />
	<circle cx="219.351290784154" cy="-201.759064555425" r="2" style="fill: rgb(0,0,0)" />
	<circle cx="185.443644140934" cy="-206.672134703153" r="2" style="fill: rgb(0,0,0)" />
	<circle cx="296.729714108156" cy="-53.5" r="2" style="fill: rgb(0,0,0)" />
	<circle cx="439.150596803808" cy="-206.672134703182" r="2" style="fill: rgb(0,0,0)" />
	<circle cx="431.58271697668" cy="-225.185323523972" r="2" style="fill: rgb(0,0,0)" />
	<circle cx="405.242950160603" cy="-254.438598187592" r="2" style="fill: rgb(0,0,0)" />
	<circle cx="82.9110726821248" cy="-415.884899087487" r="2" style="fill: rgb(0,0,0)" />
	<circle cx="121.415035092752" cy="-424.069168948149" r="2" style="fill: rgb(0,0,0)" />
	<circle cx="503.179205852005" cy="-424.069168948225" r="2" style="fill: rgb(0,0,0)" />
	<circle cx="541.683168262619" cy="-415.884899087568" r="2" style="fill: rgb(0,0,0)" />
	<!--
	Generated using the Perl SVG Module V2.87
	by Ronan Oger

	-->
</svg>