<?xml version="1.0" encoding="UTF-8" standalone="yes"?>
<!DOCTYPE svg PUBLIC "-//W3C//DTD SVG 1.0//EN" "http://www.w3.org/TR/2001/REC-SVG-20010904/DTD/svg10.dtd">
<!-- generated using polymake; Michael Joswig, Georg Loho, Benjamin Lorenz, Rico Raber; license CC BY-NC-SA 3.0; see polymake.org and matchthenet.de -->
<svg height="841pt" id="document" viewBox="0 -536.079745113303 572 536.079745113303" width="595pt" xmlns="http://www.w3.org/2000/svg" xmlns:svg="http://www.w3.org/2000/svg" xmlns:xlink="http://www.w3.org/1999/xlink">
	<title id="document_title">planar_net_</title>
	<polygon points="314.393293797754,-242.874977412298 423.72898798452,-242.874977412298 457.515575580017,-346.859401832278 369.06114089114,-411.125310424419 280.606706202258,-346.859401832276 " style="fill: rgb(255,210,63); fill-opacity: 1; stroke: rgb(0,0,0); stroke-width: 3" />
	<polygon points="369.061140891147,-148.187488706151 423.72898798452,-242.874977412298 314.393293797754,-242.874977412298 " style="fill: rgb(14,173,105); fill-opacity: 1; stroke: rgb(0,0,0); stroke-width: 3" />
	<polygon points="314.393293797754,-242.874977412298 259.725446704378,-148.187488706147 369.061140891147,-148.187488706151 " style="fill: rgb(14,173,105); fill-opacity: 1; stroke: rgb(0,0,0); stroke-width: 3" />
	<polygon points="314.393293797761,-53.5 369.061140891147,-148.187488706151 259.725446704378,-148.187488706147 " style="fill: rgb(14,173,105); fill-opacity: 1; stroke: rgb(0,0,0); stroke-width: 3" />
	<polygon points="478.396835077923,-148.187488706151 423.72898798452,-242.874977412298 369.061140891147,-148.187488706151 " style="fill: rgb(14,173,105); fill-opacity: 1; stroke: rgb(0,0,0); stroke-width: 3" />
	<polygon points="314.393293797754,-242.874977412298 280.606706202258,-346.859401832276 176.622281782274,-313.072814236785 210.408869377758,-209.088389816811 " style="fill: rgb(67,184,206); fill-opacity: 1; stroke: rgb(0,0,0); stroke-width: 3" />
	<polygon points="457.515575580017,-346.859401832278 423.72898798452,-242.874977412298 527.713412404503,-209.088389816801 561.5,-313.072814236775 " style="fill: rgb(67,184,206); fill-opacity: 1; stroke: rgb(0,0,0); stroke-width: 3" />
	<polygon points="33.5,-209.088389816823 121.954434688881,-144.822481224678 210.408869377758,-209.088389816811 176.622281782274,-313.072814236785 67.286587595499,-313.072814236794 " style="fill: rgb(255,210,63); fill-opacity: 1; stroke: rgb(0,0,0); stroke-width: 3" />
	<polygon points="280.606706202258,-346.859401832276 369.06114089114,-411.125310424419 304.795232299,-499.579745113303 216.340797610119,-435.313836521162 " style="fill: rgb(67,184,206); fill-opacity: 1; stroke: rgb(0,0,0); stroke-width: 3" />
	<polygon points="369.06114089114,-411.125310424419 457.515575580017,-346.859401832278 521.781484172169,-435.313836521163 433.327049483301,-499.579745113301 " style="fill: rgb(67,184,206); fill-opacity: 1; stroke: rgb(0,0,0); stroke-width: 3" />
	<circle cx="314.393293797754" cy="-242.874977412298" r="2" style="fill: rgb(0,0,0)" />
	<circle cx="423.72898798452" cy="-242.874977412298" r="2" style="fill: rgb(0,0,0)" />
	<circle cx="457.515575580017" cy="-346.859401832278" r="2" style="fill: rgb(0,0,0)" />
	<circle cx="369.06114089114" cy="-411.125310424419" r="2" style="fill: rgb(0,0,0)" />
	<circle cx="280.606706202258" cy="-346.859401832276" r="2" style="fill: rgb(0,0,0)" />
	<circle cx="369.061140891147" cy="-148.187488706151" r="2" style="fill: rgb(0,0,0)" />
	<circle cx="176.622281782274" cy="-313.072814236785" r="2" style="fill: rgb(0,0,0)" />
	<circle cx="210.408869377758" cy="-209.088389816811" r="2" style="fill: rgb(0,0,0)" />
	<circle cx="527.713412404503" cy="-209.088389816801" r="2" style="fill: rgb(0,0,0)" />
	<circle cx="561.5" cy="-313.072814236775" r="2" style="fill: rgb(0,0,0)" />
	<circle cx="304.795232299" cy="-499.579745113303" r="2" style="fill: rgb(0,0,0)" />
	<circle cx="216.340797610119" cy="-435.313836521162" r="2" style="fill: rgb(0,0,0)" />
	<circle cx="521.781484172169" cy="-435.313836521163" r="2" style="fill: rgb(0,0,0)" />
	<circle cx="433.327049483301" cy="-499.579745113301" r="2" style="fill: rgb(0,0,0)" />
	<circle cx="259.725446704378" cy="-148.187488706147" r="2" style="fill: rgb(0,0,0)" />
	<circle cx="478.396835077923" cy="-148.187488706151" r="2" style="fill: rgb(0,0,0)" />
	<circle cx="67.286587595499" cy="-313.072814236794" r="2" style="fill: rgb(0,0,0)" />
	<circle cx="33.5" cy="-209.088389816823" r="2" style="fill: rgb(0,0,0)" />
	<circle cx="121.954434688881" cy="-144.822481224678" r="2" style="fill: rgb(0,0,0)" />
	<circle cx="314.393293797761" cy="-53.5" r="2" style="fill: rgb(0,0,0)" />
	<!-- 
	Generated using the Perl SVG Module V2.64
	by Ronan Oger
	Info: http://www.roitsystems.com/
 -->
</svg>