<?xml version="1.0" encoding="UTF-8" standalone="yes"?>
<!DOCTYPE svg PUBLIC "-//W3C//DTD SVG 1.0//EN" "http://www.w3.org/TR/2001/REC-SVG-20010904/DTD/svg10.dtd">
<!-- generated using polymake; Michael Joswig, Georg Loho, Benjamin Lorenz, Rico Raber; license CC BY-NC-ND 3.0; see polymake.org and matchthenet.de -->
<svg height="841pt" id="document" viewBox="0 -667.48263122522 572 667.48263122522" width="595pt" xmlns="http://www.w3.org/2000/svg" xmlns:svg="http://www.w3.org/2000/svg" xmlns:xlink="http://www.w3.org/1999/xlink">
	<title id="document_title">planar_net_</title>
	<polygon points="216.800224325752,-321.850591631941 312.303273627959,-321.850591631941 339.199359480971,-399.837560366111 189.904077206955,-399.837813624515 " style="fill: rgb(14,173,105); fill-opacity: 1; stroke: rgb(0,0,0); stroke-width: 3" />
	<polygon points="334.029990305823,-267.418475955981 312.303273627959,-321.850591631941 216.800224325752,-321.850591631941 195.073454107467,-267.418566535771 264.551822893768,-214.579759743583 " style="fill: rgb(14,173,105); fill-opacity: 1; stroke: rgb(0,0,0); stroke-width: 3" />
	<polygon points="339.199359480971,-399.837560366111 312.303273627959,-321.850591631941 353.241011138826,-279.910073251108 377.144142932257,-288.6207483427 383.630798924779,-375.667131422041 " style="fill: rgb(14,173,105); fill-opacity: 1; stroke: rgb(0,0,0); stroke-width: 3" />
	<polygon points="189.904077206955,-399.837813624515 339.199359480971,-399.837560366111 312.303450572994,-477.825238274006 216.800088392782,-477.825293301643 " style="fill: rgb(14,173,105); fill-opacity: 1; stroke: rgb(0,0,0); stroke-width: 3" />
	<polygon points="216.800224325752,-321.850591631941 189.904077206955,-399.837813624515 145.472810599443,-375.667554599121 151.959369692242,-288.620771274779 175.862480983838,-279.910158395364 " style="fill: rgb(14,173,105); fill-opacity: 1; stroke: rgb(0,0,0); stroke-width: 3" />
	<polygon points="339.199359480971,-399.837560366111 383.630798924779,-375.667131422041 453.18632334196,-428.404436691761 447.513148991548,-453.204414755978 390.061544504932,-464.787768552686 " style="fill: rgb(14,173,105); fill-opacity: 1; stroke: rgb(0,0,0); stroke-width: 3" />
	<polygon points="356.395768177595,-255.293772156877 334.029990305823,-267.418475955981 264.551822893768,-214.579759743583 275.902971271938,-165.290172699473 352.125598070913,-196.841861910853 " style="fill: rgb(14,173,105); fill-opacity: 1; stroke: rgb(0,0,0); stroke-width: 3" />
	<polygon points="383.630798924779,-375.667131422041 377.144142932257,-288.6207483427 432.302412144198,-268.811008933003 495.603844973925,-340.322098652465 469.246966492458,-392.669071161696 " style="fill: rgb(14,173,105); fill-opacity: 1; stroke: rgb(0,0,0); stroke-width: 3" />
	<polygon points="189.904077206955,-399.837813624515 216.800088392782,-477.825293301643 175.862584595863,-519.765658203497 151.95960259805,-511.055053184242 145.473017075602,-424.008546960038 " style="fill: rgb(14,173,105); fill-opacity: 1; stroke: rgb(0,0,0); stroke-width: 3" />
	<polygon points="195.073454107467,-267.418566535771 172.707731612335,-255.293887863978 176.977662744738,-196.842455987022 253.200545587494,-165.29020507445 264.551822893768,-214.579759743583 " style="fill: rgb(14,173,105); fill-opacity: 1; stroke: rgb(0,0,0); stroke-width: 3" />
	<polygon points="216.800088392782,-477.825293301643 312.303450572994,-477.825238274006 334.030191906562,-532.257074952895 264.551696492821,-585.095808725389 195.073481634491,-532.257157904863 " style="fill: rgb(14,173,105); fill-opacity: 1; stroke: rgb(0,0,0); stroke-width: 3" />
	<polygon points="151.959369692242,-288.620771274779 145.472810599443,-375.667554599121 59.8567061334864,-392.669322262669 33.5,-340.322730869555 96.8015376597403,-268.811286363543 " style="fill: rgb(14,173,105); fill-opacity: 1; stroke: rgb(0,0,0); stroke-width: 3" />
	<polygon points="453.18632334196,-428.404436691761 510.638158238003,-416.820926602467 561.5,-481.770785814506 517.068771852988,-505.941574457728 447.513148991548,-453.204414755978 " style="fill: rgb(14,173,105); fill-opacity: 1; stroke: rgb(0,0,0); stroke-width: 3" />
	<polygon points="352.125598070913,-196.841861910853 275.902971271938,-165.290172699473 374.858365593312,-53.5 415.426660084459,-125.33036126096 " style="fill: rgb(14,173,105); fill-opacity: 1; stroke: rgb(0,0,0); stroke-width: 3" />
	<polygon points="175.862584595863,-519.765658203497 182.349278319909,-606.812016662681 137.918150726808,-630.98263122522 111.022232343758,-552.995173285071 151.95960259805,-511.055053184242 " style="fill: rgb(14,173,105); fill-opacity: 1; stroke: rgb(0,0,0); stroke-width: 3" />
	<polygon points="176.977662744738,-196.842455987022 113.676252517887,-125.330893905938 154.244857312107,-53.5002109982369 253.200545587494,-165.29020507445 " style="fill: rgb(14,173,105); fill-opacity: 1; stroke: rgb(0,0,0); stroke-width: 3" />
	<circle cx="216.800224325752" cy="-321.850591631941" r="2" style="fill: rgb(0,0,0)" />
	<circle cx="312.303273627959" cy="-321.850591631941" r="2" style="fill: rgb(0,0,0)" />
	<circle cx="339.199359480971" cy="-399.837560366111" r="2" style="fill: rgb(0,0,0)" />
	<circle cx="189.904077206955" cy="-399.837813624515" r="2" style="fill: rgb(0,0,0)" />
	<circle cx="195.073454107467" cy="-267.418566535771" r="2" style="fill: rgb(0,0,0)" />
	<circle cx="264.551822893768" cy="-214.579759743583" r="2" style="fill: rgb(0,0,0)" />
	<circle cx="334.029990305823" cy="-267.418475955981" r="2" style="fill: rgb(0,0,0)" />
	<circle cx="353.241011138826" cy="-279.910073251108" r="2" style="fill: rgb(0,0,0)" />
	<circle cx="377.144142932257" cy="-288.6207483427" r="2" style="fill: rgb(0,0,0)" />
	<circle cx="383.630798924779" cy="-375.667131422041" r="2" style="fill: rgb(0,0,0)" />
	<circle cx="312.303450572994" cy="-477.825238274006" r="2" style="fill: rgb(0,0,0)" />
	<circle cx="216.800088392782" cy="-477.825293301643" r="2" style="fill: rgb(0,0,0)" />
	<circle cx="145.472810599443" cy="-375.667554599121" r="2" style="fill: rgb(0,0,0)" />
	<circle cx="151.959369692242" cy="-288.620771274779" r="2" style="fill: rgb(0,0,0)" />
	<circle cx="175.862480983838" cy="-279.910158395364" r="2" style="fill: rgb(0,0,0)" />
	<circle cx="275.902971271938" cy="-165.290172699473" r="2" style="fill: rgb(0,0,0)" />
	<circle cx="352.125598070913" cy="-196.841861910853" r="2" style="fill: rgb(0,0,0)" />
	<circle cx="356.395768177595" cy="-255.293772156877" r="2" style="fill: rgb(0,0,0)" />
	<circle cx="172.707731612335" cy="-255.293887863978" r="2" style="fill: rgb(0,0,0)" />
	<circle cx="176.977662744738" cy="-196.842455987022" r="2" style="fill: rgb(0,0,0)" />
	<circle cx="253.200545587494" cy="-165.29020507445" r="2" style="fill: rgb(0,0,0)" />
	<circle cx="453.18632334196" cy="-428.404436691761" r="2" style="fill: rgb(0,0,0)" />
	<circle cx="447.513148991548" cy="-453.204414755978" r="2" style="fill: rgb(0,0,0)" />
	<circle cx="390.061544504932" cy="-464.787768552686" r="2" style="fill: rgb(0,0,0)" />
	<circle cx="432.302412144198" cy="-268.811008933003" r="2" style="fill: rgb(0,0,0)" />
	<circle cx="495.603844973925" cy="-340.322098652465" r="2" style="fill: rgb(0,0,0)" />
	<circle cx="469.246966492458" cy="-392.669071161696" r="2" style="fill: rgb(0,0,0)" />
	<circle cx="175.862584595863" cy="-519.765658203497" r="2" style="fill: rgb(0,0,0)" />
	<circle cx="151.95960259805" cy="-511.055053184242" r="2" style="fill: rgb(0,0,0)" />
	<circle cx="145.473017075602" cy="-424.008546960038" r="2" style="fill: rgb(0,0,0)" />
	<circle cx="334.030191906562" cy="-532.257074952895" r="2" style="fill: rgb(0,0,0)" />
	<circle cx="264.551696492821" cy="-585.095808725389" r="2" style="fill: rgb(0,0,0)" />
	<circle cx="195.073481634491" cy="-532.257157904863" r="2" style="fill: rgb(0,0,0)" />
	<circle cx="59.8567061334864" cy="-392.669322262669" r="2" style="fill: rgb(0,0,0)" />
	<circle cx="33.5" cy="-340.322730869555" r="2" style="fill: rgb(0,0,0)" />
	<circle cx="96.8015376597403" cy="-268.811286363543" r="2" style="fill: rgb(0,0,0)" />
	<circle cx="374.858365593312" cy="-53.5" r="2" style="fill: rgb(0,0,0)" />
	<circle cx="415.426660084459" cy="-125.33036126096" r="2" style="fill: rgb(0,0,0)" />
	<circle cx="113.676252517887" cy="-125.330893905938" r="2" style="fill: rgb(0,0,0)" />
	<circle cx="154.244857312107" cy="-53.5002109982369" r="2" style="fill: rgb(0,0,0)" />
	<circle cx="510.638158238003" cy="-416.820926602467" r="2" style="fill: rgb(0,0,0)" />
	<circle cx="561.5" cy="-481.770785814506" r="2" style="fill: rgb(0,0,0)" />
	<circle cx="517.068771852988" cy="-505.941574457728" r="2" style="fill: rgb(0,0,0)" />
	<circle cx="182.349278319909" cy="-606.812016662681" r="2" style="fill: rgb(0,0,0)" />
	<circle cx="137.918150726808" cy="-630.98263122522" r="2" style="fill: rgb(0,0,0)" />
	<circle cx="111.022232343758" cy="-552.995173285071" r="2" style="fill: rgb(0,0,0)" />
	<!--
	Generated using the Perl SVG Module V2.87
	by Ronan Oger

	-->
</svg>