<?xml version="1.0" encoding="UTF-8" standalone="yes"?>
<!DOCTYPE svg PUBLIC "-//W3C//DTD SVG 1.0//EN" "http://www.w3.org/TR/2001/REC-SVG-20010904/DTD/svg10.dtd">
<!-- generated using polymake; Michael Joswig, Georg Loho, Benjamin Lorenz, Rico Raber; license CC BY-NC-ND 3.0; see polymake.org and matchthenet.de -->
<svg height="841pt" id="document" viewBox="0 -684.632026070767 572 684.632026070767" width="595pt" xmlns="http://www.w3.org/2000/svg" xmlns:svg="http://www.w3.org/2000/svg" xmlns:xlink="http://www.w3.org/1999/xlink">
	<title id="document_title">planar_net_</title>
	<polygon points="271.76260768561,-350.816013035393 330.344747003188,-350.816013035393 307.442356661287,-404.735838365708 241.82211456526,-409.393081575651 " style="fill: rgb(14,173,105); fill-opacity: 1; stroke: rgb(0,0,0); stroke-width: 3" />
	<polygon points="271.76260768561,-350.816013035393 241.822114565247,-292.238944495148 307.442356661272,-296.896187705074 330.344747003188,-350.816013035393 " style="fill: rgb(14,173,105); fill-opacity: 1; stroke: rgb(0,0,0); stroke-width: 3" />
	<polygon points="307.442356661287,-404.735838365708 330.344747003188,-350.816013035393 371.01973955273,-392.975377690465 349.652430796274,-455.193897470063 " style="fill: rgb(14,173,105); fill-opacity: 1; stroke: rgb(0,0,0); stroke-width: 3" />
	<polygon points="271.76260768561,-350.816013035393 241.82211456526,-409.393081575651 199.319096652602,-354.84133994197 235.516788267096,-295.916589889599 " style="fill: rgb(14,173,105); fill-opacity: 1; stroke: rgb(0,0,0); stroke-width: 3" />
	<polygon points="371.019739552719,-308.6566483803 330.344747003188,-350.816013035393 307.442356661272,-296.896187705074 349.652430796232,-246.438128600702 " style="fill: rgb(14,173,105); fill-opacity: 1; stroke: rgb(0,0,0); stroke-width: 3" />
	<polygon points="241.82211456526,-409.393081575651 307.442356661287,-404.735838365708 343.802438880636,-459.559651695873 275.415965802763,-469.84018411981 " style="fill: rgb(14,173,105); fill-opacity: 1; stroke: rgb(0,0,0); stroke-width: 3" />
	<polygon points="371.01973955273,-392.975377690465 330.344747003188,-350.816013035393 385.050501557295,-329.860167414412 433.963861610544,-373.85095389703 " style="fill: rgb(14,173,105); fill-opacity: 1; stroke: rgb(0,0,0); stroke-width: 3" />
	<polygon points="199.319096652602,-354.84133994197 241.82211456526,-409.393081575651 193.539855065218,-425.272555074178 178.239426345892,-357.521597672918 " style="fill: rgb(14,173,105); fill-opacity: 1; stroke: rgb(0,0,0); stroke-width: 3" />
	<polygon points="307.442356661272,-296.896187705074 241.822114565247,-292.238944495148 275.415965802732,-231.791841950976 343.802438880603,-242.072374374882 " style="fill: rgb(14,173,105); fill-opacity: 1; stroke: rgb(0,0,0); stroke-width: 3" />
	<polygon points="241.82211456526,-409.393081575651 275.415965802763,-469.84018411981 264.708028645761,-488.194376109271 208.330719169143,-447.624752941683 " style="fill: rgb(14,173,105); fill-opacity: 1; stroke: rgb(0,0,0); stroke-width: 3" />
	<polygon points="235.516788267096,-295.916589889599 199.319096652602,-354.84133994197 178.072251090235,-354.512956944316 185.772495912965,-285.48396609661 " style="fill: rgb(14,173,105); fill-opacity: 1; stroke: rgb(0,0,0); stroke-width: 3" />
	<polygon points="349.652430796274,-455.193897470063 371.01973955273,-392.975377690465 435.695138551319,-380.942138249983 418.422140335111,-447.905132355485 " style="fill: rgb(14,173,105); fill-opacity: 1; stroke: rgb(0,0,0); stroke-width: 3" />
	<polygon points="241.822114565247,-292.238944495148 208.330719169111,-254.007273129126 264.708028645722,-213.437649961532 275.415965802732,-231.791841950976 " style="fill: rgb(14,173,105); fill-opacity: 1; stroke: rgb(0,0,0); stroke-width: 3" />
	<polygon points="275.415965802763,-469.84018411981 343.802438880636,-459.559651695873 333.957493734601,-509.423579700909 267.411867588021,-489.52445940524 " style="fill: rgb(14,173,105); fill-opacity: 1; stroke: rgb(0,0,0); stroke-width: 3" />
	<polygon points="435.695138551328,-320.689887820744 371.019739552719,-308.6566483803 349.652430796232,-246.438128600702 418.422140335078,-253.726893715245 " style="fill: rgb(14,173,105); fill-opacity: 1; stroke: rgb(0,0,0); stroke-width: 3" />
	<polygon points="349.652430796274,-455.193897470063 418.422140335111,-447.905132355485 431.129383161958,-464.936346683416 371.748107853548,-500.966327123729 " style="fill: rgb(14,173,105); fill-opacity: 1; stroke: rgb(0,0,0); stroke-width: 3" />
	<polygon points="275.415965802732,-231.791841950976 267.411867587979,-212.107566665539 333.957493734534,-192.208446369858 343.802438880603,-242.072374374882 " style="fill: rgb(14,173,105); fill-opacity: 1; stroke: rgb(0,0,0); stroke-width: 3" />
	<polygon points="418.422140335078,-253.726893715245 349.652430796232,-246.438128600702 371.748107853482,-200.665698947016 431.129383161899,-236.695679387315 " style="fill: rgb(14,173,105); fill-opacity: 1; stroke: rgb(0,0,0); stroke-width: 3" />
	<polygon points="418.422140335111,-447.905132355485 435.695138551319,-380.942138249983 477.74176812783,-409.497614121972 433.41066266843,-462.967684596299 " style="fill: rgb(14,173,105); fill-opacity: 1; stroke: rgb(0,0,0); stroke-width: 3" />
	<polygon points="435.695138551328,-320.689887820744 418.422140335078,-253.726893715245 433.410662668399,-238.664341474409 477.741768127807,-292.134411948728 " style="fill: rgb(14,173,105); fill-opacity: 1; stroke: rgb(0,0,0); stroke-width: 3" />
	<polygon points="178.239426345892,-357.521597672918 193.539855065218,-425.272555074178 172.460184758502,-427.952812805122 129.957166845849,-373.401071171434 " style="fill: rgb(14,173,105); fill-opacity: 1; stroke: rgb(0,0,0); stroke-width: 3" />
	<polygon points="208.330719169143,-447.624752941683 264.708028645761,-488.194376109271 231.216633249642,-526.426047475308 197.622782012143,-465.978944931139 " style="fill: rgb(14,173,105); fill-opacity: 1; stroke: rgb(0,0,0); stroke-width: 3" />
	<polygon points="185.772495912965,-285.48396609661 178.072251090235,-354.512956944316 128.327958736099,-344.080333151323 164.525650350601,-285.155583098958 " style="fill: rgb(14,173,105); fill-opacity: 1; stroke: rgb(0,0,0); stroke-width: 3" />
	<polygon points="208.330719169111,-254.007273129126 197.622782012106,-235.653081139672 231.216633249596,-175.205978595506 264.708028645722,-213.437649961532 " style="fill: rgb(14,173,105); fill-opacity: 1; stroke: rgb(0,0,0); stroke-width: 3" />
	<polygon points="267.411867588021,-489.52445940524 333.957493734601,-509.423579700909 325.953395519853,-529.107854986344 257.56692244197,-539.388387410269 " style="fill: rgb(14,173,105); fill-opacity: 1; stroke: rgb(0,0,0); stroke-width: 3" />
	<polygon points="371.748107853548,-500.966327123729 431.129383161958,-464.936346683416 453.225060219233,-510.708776337091 384.455350680387,-517.997541451655 " style="fill: rgb(14,173,105); fill-opacity: 1; stroke: rgb(0,0,0); stroke-width: 3" />
	<polygon points="267.411867587979,-212.107566665539 257.566922441911,-162.243638660509 325.953395519778,-172.524171084428 333.957493734534,-192.208446369858 " style="fill: rgb(14,173,105); fill-opacity: 1; stroke: rgb(0,0,0); stroke-width: 3" />
	<polygon points="431.129383161899,-236.695679387315 371.748107853482,-200.665698947016 384.455350680317,-183.634484619083 453.225060219157,-190.923249733638 " style="fill: rgb(14,173,105); fill-opacity: 1; stroke: rgb(0,0,0); stroke-width: 3" />
	<polygon points="433.41066266843,-462.967684596299 477.74176812783,-409.497614121972 492.730290461151,-424.560166362799 475.457292244924,-491.523160468302 " style="fill: rgb(14,173,105); fill-opacity: 1; stroke: rgb(0,0,0); stroke-width: 3" />
	<polygon points="477.741768127807,-292.134411948728 433.410662668399,-238.664341474409 475.457292244891,-210.108865602393 492.730290461121,-277.071859707896 " style="fill: rgb(14,173,105); fill-opacity: 1; stroke: rgb(0,0,0); stroke-width: 3" />
	<polygon points="164.525650350601,-285.155583098958 128.327958736099,-344.080333151323 92.0821393175849,-289.180910005539 122.022632437926,-230.603841465288 " style="fill: rgb(14,173,105); fill-opacity: 1; stroke: rgb(0,0,0); stroke-width: 3" />
	<polygon points="359.547246757254,-112.077068540252 325.953395519778,-172.524171084428 257.566922441911,-162.243638660509 293.927004661244,-107.419825330322 " style="fill: rgb(14,173,105); fill-opacity: 1; stroke: rgb(0,0,0); stroke-width: 3" />
	<polygon points="475.457292244924,-491.523160468302 492.730290461151,-424.560166362799 561.5,-417.271401248242 540.13269124352,-479.489921027834 " style="fill: rgb(14,173,105); fill-opacity: 1; stroke: rgb(0,0,0); stroke-width: 3" />
	<polygon points="257.56692244197,-539.388387410269 325.953395519853,-529.107854986344 359.547246757346,-589.554957530518 293.927004661313,-594.212200740443 " style="fill: rgb(14,173,105); fill-opacity: 1; stroke: rgb(0,0,0); stroke-width: 3" />
	<polygon points="172.460184758502,-427.952812805122 136.26249314399,-486.877562857481 100.0166737255,-431.978139711688 129.957166845849,-373.401071171434 " style="fill: rgb(14,173,105); fill-opacity: 1; stroke: rgb(0,0,0); stroke-width: 3" />
	<polygon points="129.957166845849,-373.401071171434 100.0166737255,-431.978139711688 41.434534407915,-431.978139711704 64.3369247498039,-378.058314381389 " style="fill: rgb(14,173,105); fill-opacity: 1; stroke: rgb(0,0,0); stroke-width: 3" />
	<polygon points="122.022632437926,-230.603841465288 92.0821393175849,-289.180910005539 33.5,-289.180910005558 56.4023903418811,-235.261084675247 " style="fill: rgb(14,173,105); fill-opacity: 1; stroke: rgb(0,0,0); stroke-width: 3" />
	<polygon points="329.606753636885,-53.5 359.547246757254,-112.077068540252 293.927004661244,-107.419825330322 271.024614319336,-53.5000000000047 " style="fill: rgb(14,173,105); fill-opacity: 1; stroke: rgb(0,0,0); stroke-width: 3" />
	<polygon points="293.927004661313,-594.212200740443 359.547246757346,-589.554957530518 329.606753636983,-648.132026070765 271.024614319413,-648.132026070767 " style="fill: rgb(14,173,105); fill-opacity: 1; stroke: rgb(0,0,0); stroke-width: 3" />
	<polygon points="136.26249314399,-486.877562857481 70.5302386354426,-489.518926952557 41.7951626600812,-438.468339730533 100.0166737255,-431.978139711688 " style="fill: rgb(14,173,105); fill-opacity: 1; stroke: rgb(0,0,0); stroke-width: 3" />
	<circle cx="271.76260768561" cy="-350.816013035393" r="2" style="fill: rgb(0,0,0)" />
	<circle cx="330.344747003188" cy="-350.816013035393" r="2" style="fill: rgb(0,0,0)" />
	<circle cx="307.442356661287" cy="-404.735838365708" r="2" style="fill: rgb(0,0,0)" />
	<circle cx="241.82211456526" cy="-409.393081575651" r="2" style="fill: rgb(0,0,0)" />
	<circle cx="241.822114565247" cy="-292.238944495148" r="2" style="fill: rgb(0,0,0)" />
	<circle cx="307.442356661272" cy="-296.896187705074" r="2" style="fill: rgb(0,0,0)" />
	<circle cx="371.01973955273" cy="-392.975377690465" r="2" style="fill: rgb(0,0,0)" />
	<circle cx="349.652430796274" cy="-455.193897470063" r="2" style="fill: rgb(0,0,0)" />
	<circle cx="199.319096652602" cy="-354.84133994197" r="2" style="fill: rgb(0,0,0)" />
	<circle cx="235.516788267096" cy="-295.916589889599" r="2" style="fill: rgb(0,0,0)" />
	<circle cx="343.802438880636" cy="-459.559651695873" r="2" style="fill: rgb(0,0,0)" />
	<circle cx="275.415965802763" cy="-469.84018411981" r="2" style="fill: rgb(0,0,0)" />
	<circle cx="349.652430796232" cy="-246.438128600702" r="2" style="fill: rgb(0,0,0)" />
	<circle cx="371.019739552719" cy="-308.6566483803" r="2" style="fill: rgb(0,0,0)" />
	<circle cx="275.415965802732" cy="-231.791841950976" r="2" style="fill: rgb(0,0,0)" />
	<circle cx="343.802438880603" cy="-242.072374374882" r="2" style="fill: rgb(0,0,0)" />
	<circle cx="385.050501557295" cy="-329.860167414412" r="2" style="fill: rgb(0,0,0)" />
	<circle cx="433.963861610544" cy="-373.85095389703" r="2" style="fill: rgb(0,0,0)" />
	<circle cx="435.695138551319" cy="-380.942138249983" r="2" style="fill: rgb(0,0,0)" />
	<circle cx="418.422140335111" cy="-447.905132355485" r="2" style="fill: rgb(0,0,0)" />
	<circle cx="193.539855065218" cy="-425.272555074178" r="2" style="fill: rgb(0,0,0)" />
	<circle cx="178.239426345892" cy="-357.521597672918" r="2" style="fill: rgb(0,0,0)" />
	<circle cx="178.072251090235" cy="-354.512956944316" r="2" style="fill: rgb(0,0,0)" />
	<circle cx="185.772495912965" cy="-285.48396609661" r="2" style="fill: rgb(0,0,0)" />
	<circle cx="264.708028645761" cy="-488.194376109271" r="2" style="fill: rgb(0,0,0)" />
	<circle cx="208.330719169143" cy="-447.624752941683" r="2" style="fill: rgb(0,0,0)" />
	<circle cx="333.957493734601" cy="-509.423579700909" r="2" style="fill: rgb(0,0,0)" />
	<circle cx="267.411867588021" cy="-489.52445940524" r="2" style="fill: rgb(0,0,0)" />
	<circle cx="418.422140335078" cy="-253.726893715245" r="2" style="fill: rgb(0,0,0)" />
	<circle cx="435.695138551328" cy="-320.689887820744" r="2" style="fill: rgb(0,0,0)" />
	<circle cx="208.330719169111" cy="-254.007273129126" r="2" style="fill: rgb(0,0,0)" />
	<circle cx="264.708028645722" cy="-213.437649961532" r="2" style="fill: rgb(0,0,0)" />
	<circle cx="267.411867587979" cy="-212.107566665539" r="2" style="fill: rgb(0,0,0)" />
	<circle cx="333.957493734534" cy="-192.208446369858" r="2" style="fill: rgb(0,0,0)" />
	<circle cx="431.129383161958" cy="-464.936346683416" r="2" style="fill: rgb(0,0,0)" />
	<circle cx="371.748107853548" cy="-500.966327123729" r="2" style="fill: rgb(0,0,0)" />
	<circle cx="477.74176812783" cy="-409.497614121972" r="2" style="fill: rgb(0,0,0)" />
	<circle cx="433.41066266843" cy="-462.967684596299" r="2" style="fill: rgb(0,0,0)" />
	<circle cx="172.460184758502" cy="-427.952812805122" r="2" style="fill: rgb(0,0,0)" />
	<circle cx="129.957166845849" cy="-373.401071171434" r="2" style="fill: rgb(0,0,0)" />
	<circle cx="128.327958736099" cy="-344.080333151323" r="2" style="fill: rgb(0,0,0)" />
	<circle cx="164.525650350601" cy="-285.155583098958" r="2" style="fill: rgb(0,0,0)" />
	<circle cx="231.216633249642" cy="-526.426047475308" r="2" style="fill: rgb(0,0,0)" />
	<circle cx="197.622782012143" cy="-465.978944931139" r="2" style="fill: rgb(0,0,0)" />
	<circle cx="325.953395519853" cy="-529.107854986344" r="2" style="fill: rgb(0,0,0)" />
	<circle cx="257.56692244197" cy="-539.388387410269" r="2" style="fill: rgb(0,0,0)" />
	<circle cx="371.748107853482" cy="-200.665698947016" r="2" style="fill: rgb(0,0,0)" />
	<circle cx="431.129383161899" cy="-236.695679387315" r="2" style="fill: rgb(0,0,0)" />
	<circle cx="433.410662668399" cy="-238.664341474409" r="2" style="fill: rgb(0,0,0)" />
	<circle cx="477.741768127807" cy="-292.134411948728" r="2" style="fill: rgb(0,0,0)" />
	<circle cx="197.622782012106" cy="-235.653081139672" r="2" style="fill: rgb(0,0,0)" />
	<circle cx="231.216633249596" cy="-175.205978595506" r="2" style="fill: rgb(0,0,0)" />
	<circle cx="257.566922441911" cy="-162.243638660509" r="2" style="fill: rgb(0,0,0)" />
	<circle cx="325.953395519778" cy="-172.524171084428" r="2" style="fill: rgb(0,0,0)" />
	<circle cx="453.225060219233" cy="-510.708776337091" r="2" style="fill: rgb(0,0,0)" />
	<circle cx="384.455350680387" cy="-517.997541451655" r="2" style="fill: rgb(0,0,0)" />
	<circle cx="492.730290461151" cy="-424.560166362799" r="2" style="fill: rgb(0,0,0)" />
	<circle cx="475.457292244924" cy="-491.523160468302" r="2" style="fill: rgb(0,0,0)" />
	<circle cx="136.26249314399" cy="-486.877562857481" r="2" style="fill: rgb(0,0,0)" />
	<circle cx="100.0166737255" cy="-431.978139711688" r="2" style="fill: rgb(0,0,0)" />
	<circle cx="92.0821393175849" cy="-289.180910005539" r="2" style="fill: rgb(0,0,0)" />
	<circle cx="122.022632437926" cy="-230.603841465288" r="2" style="fill: rgb(0,0,0)" />
	<circle cx="359.547246757346" cy="-589.554957530518" r="2" style="fill: rgb(0,0,0)" />
	<circle cx="293.927004661313" cy="-594.212200740443" r="2" style="fill: rgb(0,0,0)" />
	<circle cx="384.455350680317" cy="-183.634484619083" r="2" style="fill: rgb(0,0,0)" />
	<circle cx="453.225060219157" cy="-190.923249733638" r="2" style="fill: rgb(0,0,0)" />
	<circle cx="475.457292244891" cy="-210.108865602393" r="2" style="fill: rgb(0,0,0)" />
	<circle cx="492.730290461121" cy="-277.071859707896" r="2" style="fill: rgb(0,0,0)" />
	<circle cx="293.927004661244" cy="-107.419825330322" r="2" style="fill: rgb(0,0,0)" />
	<circle cx="359.547246757254" cy="-112.077068540252" r="2" style="fill: rgb(0,0,0)" />
	<circle cx="561.5" cy="-417.271401248242" r="2" style="fill: rgb(0,0,0)" />
	<circle cx="540.13269124352" cy="-479.489921027834" r="2" style="fill: rgb(0,0,0)" />
	<circle cx="41.434534407915" cy="-431.978139711704" r="2" style="fill: rgb(0,0,0)" />
	<circle cx="64.3369247498039" cy="-378.058314381389" r="2" style="fill: rgb(0,0,0)" />
	<circle cx="70.5302386354426" cy="-489.518926952557" r="2" style="fill: rgb(0,0,0)" />
	<circle cx="41.7951626600812" cy="-438.468339730533" r="2" style="fill: rgb(0,0,0)" />
	<circle cx="33.5" cy="-289.180910005558" r="2" style="fill: rgb(0,0,0)" />
	<circle cx="56.4023903418811" cy="-235.261084675247" r="2" style="fill: rgb(0,0,0)" />
	<circle cx="329.606753636983" cy="-648.132026070765" r="2" style="fill: rgb(0,0,0)" />
	<circle cx="271.024614319413" cy="-648.132026070767" r="2" style="fill: rgb(0,0,0)" />
	<circle cx="271.024614319336" cy="-53.5000000000047" r="2" style="fill: rgb(0,0,0)" />
	<circle cx="329.606753636885" cy="-53.5" r="2" style="fill: rgb(0,0,0)" />
	<!--
	Generated using the Perl SVG Module V2.87
	by Ronan Oger

	-->
</svg>