<?xml version="1.0" encoding="UTF-8" standalone="yes"?>
<!DOCTYPE svg PUBLIC "-//W3C//DTD SVG 1.0//EN" "http://www.w3.org/TR/2001/REC-SVG-20010904/DTD/svg10.dtd">
<!-- generated using polymake; Michael Joswig, Georg Loho, Benjamin Lorenz, Rico Raber; license CC BY-NC-ND 3.0; see polymake.org and matchthenet.de -->
<svg height="841pt" id="document" viewBox="0 -811 498.953896090496 811" width="595pt" xmlns="http://www.w3.org/2000/svg" xmlns:svg="http://www.w3.org/2000/svg" xmlns:xlink="http://www.w3.org/1999/xlink">
	<title id="document_title">planar_net_</title>
	<polygon points="245.797616173894,-332.4453819606 296.142568101846,-332.4453819606 325.439711259795,-444.781004514621 228.350740425155,-508.431192527592 191.016366264284,-474.656073125226 " style="fill: rgb(14,173,105); fill-opacity: 1; stroke: rgb(0,0,0); stroke-width: 3" />
	<polygon points="325.439711259792,-220.109759406582 296.142568101846,-332.4453819606 245.797616173894,-332.4453819606 191.016366264283,-190.234690795974 228.350740425152,-156.459571393609 " style="fill: rgb(14,173,105); fill-opacity: 1; stroke: rgb(0,0,0); stroke-width: 3" />
	<polygon points="191.016366264284,-474.656073125226 228.350740425155,-508.431192527592 174.713613821833,-611.390763921212 60.0139578877228,-593.45745356273 54.9867050322237,-543.364131519214 " style="fill: rgb(14,173,105); fill-opacity: 1; stroke: rgb(0,0,0); stroke-width: 3" />
	<polygon points="54.9867050322213,-121.526632401982 60.0139578877207,-71.4333103584721 174.713613821832,-53.5 228.350740425152,-156.459571393609 191.016366264283,-190.234690795974 " style="fill: rgb(14,173,105); fill-opacity: 1; stroke: rgb(0,0,0); stroke-width: 3" />
	<polygon points="245.797616173894,-332.4453819606 191.016366264284,-474.656073125226 48.8056750996558,-419.87482321562 103.586925009266,-277.664132050993 " style="fill: rgb(14,173,105); fill-opacity: 1; stroke: rgb(0,0,0); stroke-width: 3" />
	<polygon points="325.439711259795,-444.781004514621 296.142568101846,-332.4453819606 405.954960469116,-294.777714467197 488.453896090496,-435.669747865404 " style="fill: rgb(14,173,105); fill-opacity: 1; stroke: rgb(0,0,0); stroke-width: 3" />
	<polygon points="440.213855786438,-103.991133846673 325.439711259792,-220.109759406582 228.350740425152,-156.459571393609 284.514206049038,-54.8560290295146 " style="fill: rgb(14,173,105); fill-opacity: 1; stroke: rgb(0,0,0); stroke-width: 3" />
	<polygon points="228.350740425155,-508.431192527592 325.439711259795,-444.781004514621 440.213855786446,-560.899630074525 284.514206049039,-610.034734891678 " style="fill: rgb(14,173,105); fill-opacity: 1; stroke: rgb(0,0,0); stroke-width: 3" />
	<polygon points="174.713613821833,-611.390763921212 181.925864478997,-774.5 33.5,-706.482339003698 60.0139578877228,-593.45745356273 " style="fill: rgb(14,173,105); fill-opacity: 1; stroke: rgb(0,0,0); stroke-width: 3" />
	<circle cx="245.797616173894" cy="-332.4453819606" r="2" style="fill: rgb(0,0,0)" />
	<circle cx="296.142568101846" cy="-332.4453819606" r="2" style="fill: rgb(0,0,0)" />
	<circle cx="325.439711259795" cy="-444.781004514621" r="2" style="fill: rgb(0,0,0)" />
	<circle cx="228.350740425155" cy="-508.431192527592" r="2" style="fill: rgb(0,0,0)" />
	<circle cx="191.016366264284" cy="-474.656073125226" r="2" style="fill: rgb(0,0,0)" />
	<circle cx="191.016366264283" cy="-190.234690795974" r="2" style="fill: rgb(0,0,0)" />
	<circle cx="228.350740425152" cy="-156.459571393609" r="2" style="fill: rgb(0,0,0)" />
	<circle cx="325.439711259792" cy="-220.109759406582" r="2" style="fill: rgb(0,0,0)" />
	<circle cx="174.713613821833" cy="-611.390763921212" r="2" style="fill: rgb(0,0,0)" />
	<circle cx="60.0139578877228" cy="-593.45745356273" r="2" style="fill: rgb(0,0,0)" />
	<circle cx="54.9867050322237" cy="-543.364131519214" r="2" style="fill: rgb(0,0,0)" />
	<circle cx="48.8056750996558" cy="-419.87482321562" r="2" style="fill: rgb(0,0,0)" />
	<circle cx="103.586925009266" cy="-277.664132050993" r="2" style="fill: rgb(0,0,0)" />
	<circle cx="405.954960469116" cy="-294.777714467197" r="2" style="fill: rgb(0,0,0)" />
	<circle cx="488.453896090496" cy="-435.669747865404" r="2" style="fill: rgb(0,0,0)" />
	<circle cx="440.213855786446" cy="-560.899630074525" r="2" style="fill: rgb(0,0,0)" />
	<circle cx="284.514206049039" cy="-610.034734891678" r="2" style="fill: rgb(0,0,0)" />
	<circle cx="54.9867050322213" cy="-121.526632401982" r="2" style="fill: rgb(0,0,0)" />
	<circle cx="60.0139578877207" cy="-71.4333103584721" r="2" style="fill: rgb(0,0,0)" />
	<circle cx="174.713613821832" cy="-53.5" r="2" style="fill: rgb(0,0,0)" />
	<circle cx="284.514206049038" cy="-54.8560290295146" r="2" style="fill: rgb(0,0,0)" />
	<circle cx="440.213855786438" cy="-103.991133846673" r="2" style="fill: rgb(0,0,0)" />
	<circle cx="181.925864478997" cy="-774.5" r="2" style="fill: rgb(0,0,0)" />
	<circle cx="33.5" cy="-706.482339003698" r="2" style="fill: rgb(0,0,0)" />
	<!--
	Generated using the Perl SVG Module V2.87
	by Ronan Oger

	-->
</svg>