<?xml version="1.0" encoding="UTF-8" standalone="yes"?>
<!DOCTYPE svg PUBLIC "-//W3C//DTD SVG 1.0//EN" "http://www.w3.org/TR/2001/REC-SVG-20010904/DTD/svg10.dtd">
<!-- generated using polymake; Michael Joswig, Georg Loho, Benjamin Lorenz, Rico Raber; license CC BY-NC-ND 3.0; see polymake.org and matchthenet.de -->
<svg height="841pt" id="document" viewBox="0 -608.313959280746 572 608.313959280746" width="595pt" xmlns="http://www.w3.org/2000/svg" xmlns:svg="http://www.w3.org/2000/svg" xmlns:xlink="http://www.w3.org/1999/xlink">
	<title id="document_title">planar_net_</title>
	<polygon points="242.146937445372,-291.831499015397 302.01219833114,-291.831499015397 299.987071346223,-342.489676292028 260.086665506595,-337.98840500658 " style="fill: rgb(42,107,61); fill-opacity: 1; stroke: rgb(0,0,0); stroke-width: 3" />
	<polygon points="299.121648068567,-253.20862393158 302.01219833114,-291.831499015397 242.146937445372,-291.831499015397 265.049307777568,-237.614356434607 " style="fill: rgb(42,107,61); fill-opacity: 1; stroke: rgb(0,0,0); stroke-width: 3" />
	<polygon points="299.987071346223,-342.489676292028 302.01219833114,-291.831499015397 361.686422527555,-296.610246495419 340.119464772171,-341.187820978178 " style="fill: rgb(42,107,61); fill-opacity: 1; stroke: rgb(0,0,0); stroke-width: 3" />
	<polygon points="242.146937445372,-291.831499015397 260.086665506595,-337.98840500658 233.698950575984,-368.253770196739 197.994856490115,-332.259746667773 " style="fill: rgb(42,107,61); fill-opacity: 1; stroke: rgb(0,0,0); stroke-width: 3" />
	<polygon points="361.21057414539,-282.920732388655 302.01219833114,-291.831499015397 299.121648068567,-253.20862393158 330.493269928209,-232.716506091571 " style="fill: rgb(42,107,61); fill-opacity: 1; stroke: rgb(0,0,0); stroke-width: 3" />
	<polygon points="242.146937445372,-291.831499015397 202.13199745238,-248.671080877756 230.347969946102,-224.690520375204 265.049307777568,-237.614356434607 " style="fill: rgb(42,107,61); fill-opacity: 1; stroke: rgb(0,0,0); stroke-width: 3" />
	<polygon points="340.119464772171,-341.187820978178 361.686422527555,-296.610246495419 402.470422379004,-340.433925220953 364.007039268766,-373.463006709995 " style="fill: rgb(42,107,61); fill-opacity: 1; stroke: rgb(0,0,0); stroke-width: 3" />
	<polygon points="328.463604891192,-229.90293532359 299.121648068567,-253.20862393158 265.049307777568,-237.614356434607 291.187993847024,-187.966809386679 " style="fill: rgb(42,107,61); fill-opacity: 1; stroke: rgb(0,0,0); stroke-width: 3" />
	<polygon points="242.146937445372,-291.831499015397 197.994856490115,-332.259746667773 174.043881775864,-301.822391809027 188.641927547443,-267.311486122217 " style="fill: rgb(42,107,61); fill-opacity: 1; stroke: rgb(0,0,0); stroke-width: 3" />
	<polygon points="361.21057414539,-282.920732388655 330.493269928209,-232.716506091571 362.884368245749,-214.771447285121 394.355456719913,-234.285006059334 " style="fill: rgb(42,107,61); fill-opacity: 1; stroke: rgb(0,0,0); stroke-width: 3" />
	<polygon points="280.314759104837,-183.622914213742 265.049307777568,-237.614356434607 230.347969946102,-224.690520375204 225.657483223174,-188.945682020338 " style="fill: rgb(42,107,61); fill-opacity: 1; stroke: rgb(0,0,0); stroke-width: 3" />
	<polygon points="197.994856490115,-332.259746667773 233.698950575984,-368.253770196739 203.221167876807,-394.395854870589 157.210856638683,-376.083425393323 " style="fill: rgb(42,107,61); fill-opacity: 1; stroke: rgb(0,0,0); stroke-width: 3" />
	<polygon points="402.470422379004,-340.433925220953 361.686422527555,-296.610246495419 416.978003272838,-276.439519806805 428.774630267696,-312.005587107214 " style="fill: rgb(42,107,61); fill-opacity: 1; stroke: rgb(0,0,0); stroke-width: 3" />
	<polygon points="328.463604891192,-229.90293532359 291.187993847024,-187.966809386679 342.698602177003,-168.92982187809 354.059920326077,-203.144067224551 " style="fill: rgb(42,107,61); fill-opacity: 1; stroke: rgb(0,0,0); stroke-width: 3" />
	<polygon points="197.994856490115,-332.259746667773 148.316994616213,-365.665726679725 137.067799649934,-307.894862664476 174.043881775864,-301.822391809027 " style="fill: rgb(42,107,61); fill-opacity: 1; stroke: rgb(0,0,0); stroke-width: 3" />
	<polygon points="202.13199745238,-248.671080877756 169.373362778912,-203.119113942792 222.570604683219,-189.488152212236 230.347969946102,-224.690520375204 " style="fill: rgb(42,107,61); fill-opacity: 1; stroke: rgb(0,0,0); stroke-width: 3" />
	<polygon points="364.007039268766,-373.463006709995 402.470422379004,-340.433925220953 439.626048589863,-387.373342577811 392.300770749787,-401.954559637716 " style="fill: rgb(42,107,61); fill-opacity: 1; stroke: rgb(0,0,0); stroke-width: 3" />
	<polygon points="280.314759104837,-183.622914213742 225.657483223174,-188.945682020338 221.800571115999,-76.4741275727339 " style="fill: rgb(42,107,61); fill-opacity: 1; stroke: rgb(0,0,0); stroke-width: 3" />
	<polygon points="203.221167876807,-394.395854870589 207.399602499712,-434.331359292785 156.726703957528,-435.946728485475 157.210856638683,-376.083425393323 " style="fill: rgb(42,107,61); fill-opacity: 1; stroke: rgb(0,0,0); stroke-width: 3" />
	<polygon points="188.641927547443,-267.311486122217 174.043881775864,-301.822391809027 136.664664335539,-304.449111288179 135.835998632808,-248.347211583572 " style="fill: rgb(42,107,61); fill-opacity: 1; stroke: rgb(0,0,0); stroke-width: 3" />
	<polygon points="402.470422379004,-340.433925220953 428.774630267696,-312.005587107214 465.147982319807,-321.010297661497 449.323122638922,-377.698840882681 " style="fill: rgb(42,107,61); fill-opacity: 1; stroke: rgb(0,0,0); stroke-width: 3" />
	<polygon points="394.355456719913,-234.285006059334 362.884368245749,-214.771447285121 365.335327317781,-178.803587544225 419.968892577817,-184.364451766866 " style="fill: rgb(42,107,61); fill-opacity: 1; stroke: rgb(0,0,0); stroke-width: 3" />
	<polygon points="342.698602177003,-168.92982187809 291.187993847024,-187.966809386679 297.138767136968,-66.0268201629471 " style="fill: rgb(42,107,61); fill-opacity: 1; stroke: rgb(0,0,0); stroke-width: 3" />
	<polygon points="137.067799649934,-307.894862664476 148.316994616213,-365.665726679725 91.0271293966822,-352.179123712827 101.059910520001,-316.534324811526 " style="fill: rgb(42,107,61); fill-opacity: 1; stroke: rgb(0,0,0); stroke-width: 3" />
	<polygon points="222.570604683219,-189.488152212236 169.373362778912,-203.119113942792 187.850449639167,-82.4403256832539 " style="fill: rgb(42,107,61); fill-opacity: 1; stroke: rgb(0,0,0); stroke-width: 3" />
	<polygon points="392.300770749787,-401.954559637716 439.626048589863,-387.373342577811 435.330065087064,-447.08426274042 384.947816313698,-441.429081679338 " style="fill: rgb(42,107,61); fill-opacity: 1; stroke: rgb(0,0,0); stroke-width: 3" />
	<polygon points="428.774630267696,-312.005587107214 416.978003272838,-276.439519806805 471.129246784471,-261.750998320363 465.824888462699,-317.60772235702 " style="fill: rgb(42,107,61); fill-opacity: 1; stroke: rgb(0,0,0); stroke-width: 3" />
	<polygon points="207.399602499712,-434.331359292785 205.773224134821,-474.451911666443 161.02268746035,-495.657648648082 156.726703957528,-435.946728485475 " style="fill: rgb(42,107,61); fill-opacity: 1; stroke: rgb(0,0,0); stroke-width: 3" />
	<polygon points="157.210856638683,-376.083425393323 156.726703957528,-435.946728485475 118.128468928003,-432.743915165035 102.810267132869,-398.546572498731 " style="fill: rgb(42,107,61); fill-opacity: 1; stroke: rgb(0,0,0); stroke-width: 3" />
	<polygon points="135.835998632808,-248.347211583572 136.664664335539,-304.449111288179 99.7159447456771,-301.999518168249 84.9896054232307,-269.093150017504 " style="fill: rgb(42,107,61); fill-opacity: 1; stroke: rgb(0,0,0); stroke-width: 3" />
	<polygon points="449.323122638922,-377.698840882681 465.147982319807,-321.010297661497 500.351320777427,-332.496521898464 507.506738306794,-368.828441552726 " style="fill: rgb(42,107,61); fill-opacity: 1; stroke: rgb(0,0,0); stroke-width: 3" />
	<polygon points="419.968892577817,-184.364451766866 365.335327317781,-178.803587544225 383.734956254976,-67.7802567266137 " style="fill: rgb(42,107,61); fill-opacity: 1; stroke: rgb(0,0,0); stroke-width: 3" />
	<polygon points="262.889539014363,-471.73594252188 302.566335385194,-465.567015621668 306.711983395467,-516.095875364106 246.899281812371,-518.60390053376 " style="fill: rgb(42,107,61); fill-opacity: 1; stroke: rgb(0,0,0); stroke-width: 3" />
	<polygon points="169.373362778912,-203.119113942792 122.691604302214,-174.195713564384 187.850449639167,-82.4403256832539 " style="fill: rgb(42,107,61); fill-opacity: 1; stroke: rgb(0,0,0); stroke-width: 3" />
	<polygon points="435.330065087064,-447.08426274042 439.626048589863,-387.373342577811 492.059917924427,-414.107337099108 474.060793601659,-446.972776017317 " style="fill: rgb(42,107,61); fill-opacity: 1; stroke: rgb(0,0,0); stroke-width: 3" />
	<polygon points="465.824888462699,-317.60772235702 471.129246784471,-261.750998320363 520.157337926623,-286.489550074328 502.851239483779,-318.115379571736 " style="fill: rgb(42,107,61); fill-opacity: 1; stroke: rgb(0,0,0); stroke-width: 3" />
	<polygon points="156.726703957528,-435.946728485475 161.02268746035,-495.657648648082 105.301829856912,-476.704993309156 118.410832275039,-441.601437830051 " style="fill: rgb(42,107,61); fill-opacity: 1; stroke: rgb(0,0,0); stroke-width: 3" />
	<polygon points="101.059910520001,-316.534324811526 91.0271293966822,-352.179123712827 38.424217811123,-332.658787393089 74.9624299213797,-291.662339745634 " style="fill: rgb(42,107,61); fill-opacity: 1; stroke: rgb(0,0,0); stroke-width: 3" />
	<polygon points="419.968892577817,-184.364451766866 383.734956254976,-67.7802567266137 461.825464721229,-148.814809963761 " style="fill: rgb(42,107,61); fill-opacity: 1; stroke: rgb(0,0,0); stroke-width: 3" />
	<polygon points="246.899281812371,-518.60390053376 306.711983395467,-516.095875364106 305.442056958896,-554.805939267514 272.052944857764,-571.813959280746 " style="fill: rgb(42,107,61); fill-opacity: 1; stroke: rgb(0,0,0); stroke-width: 3" />
	<polygon points="102.810267132869,-398.546572498731 118.128468928003,-432.743915165035 94.5862431509196,-461.896430616263 52.9529504271201,-424.282885525602 " style="fill: rgb(42,107,61); fill-opacity: 1; stroke: rgb(0,0,0); stroke-width: 3" />
	<polygon points="500.351320777427,-332.496521898464 528.350928886685,-309.787138805966 561.5,-353.569426871453 507.506738306794,-368.828441552726 " style="fill: rgb(42,107,61); fill-opacity: 1; stroke: rgb(0,0,0); stroke-width: 3" />
	<polygon points="161.02268746035,-495.657648648082 120.845049813128,-538.666654095166 94.9015115575272,-512.244292191596 105.301829856912,-476.704993309156 " style="fill: rgb(42,107,61); fill-opacity: 1; stroke: rgb(0,0,0); stroke-width: 3" />
	<polygon points="122.691604302214,-174.195713564384 80.0007676460899,-139.652376587095 187.850449639167,-82.4403256832539 " style="fill: rgb(42,107,61); fill-opacity: 1; stroke: rgb(0,0,0); stroke-width: 3" />
	<polygon points="474.060793601659,-446.972776017317 492.059917924427,-414.107337099108 539.703731911162,-443.741385525056 495.200792503047,-477.911521921488 " style="fill: rgb(42,107,61); fill-opacity: 1; stroke: rgb(0,0,0); stroke-width: 3" />
	<polygon points="52.9529504271201,-424.282885525602 94.5862431509196,-461.896430616263 67.6212432114674,-487.275500024909 33.5,-475.637850072445 " style="fill: rgb(42,107,61); fill-opacity: 1; stroke: rgb(0,0,0); stroke-width: 3" />
	<polygon points="461.825464721229,-148.814809963761 383.734956254976,-67.7802567266137 498.89906208039,-108.301873230211 " style="fill: rgb(42,107,61); fill-opacity: 1; stroke: rgb(0,0,0); stroke-width: 3" />
	<polygon points="80.0007676460899,-139.652376587095 75.3404290340797,-84.9346380743615 187.850449639167,-82.4403256832539 " style="fill: rgb(42,107,61); fill-opacity: 1; stroke: rgb(0,0,0); stroke-width: 3" />
	<polygon points="495.200792503047,-477.911521921488 539.703731911162,-443.741385525056 554.995193171209,-496.485303434699 520.053858636039,-505.362086388782 " style="fill: rgb(42,107,61); fill-opacity: 1; stroke: rgb(0,0,0); stroke-width: 3" />
	<polygon points="498.89906208039,-108.301873230211 383.734956254976,-67.7802567266137 495.362912424937,-53.5 " style="fill: rgb(42,107,61); fill-opacity: 1; stroke: rgb(0,0,0); stroke-width: 3" />
	<polygon points="299.987071346223,-342.489676292028 340.119464772171,-341.187820978178 360.536412441557,-375.763131204094 305.121192350575,-404.875897260082 " style="fill: rgb(42,107,61); fill-opacity: 1; stroke: rgb(0,0,0); stroke-width: 3" />
	<polygon points="260.086665506595,-337.98840500658 299.987071346223,-342.489676292028 289.889350645449,-404.266984438394 236.974894693772,-370.823597700525 " style="fill: rgb(42,107,61); fill-opacity: 1; stroke: rgb(0,0,0); stroke-width: 3" />
	<polygon points="305.121192350575,-404.875897260082 360.536412441557,-375.763131204094 377.422683726133,-412.193306491305 353.579626598105,-444.501393035419 " style="fill: rgb(42,107,61); fill-opacity: 1; stroke: rgb(0,0,0); stroke-width: 3" />
	<polygon points="236.974894693772,-370.823597700525 289.889350645449,-404.266984438394 238.422445432212,-439.89783389408 217.234468788305,-405.789572796668 " style="fill: rgb(42,107,61); fill-opacity: 1; stroke: rgb(0,0,0); stroke-width: 3" />
	<polygon points="238.422445432212,-439.89783389408 289.889350645449,-404.266984438394 302.566335385194,-465.567015621668 262.889539014363,-471.73594252188 " style="fill: rgb(42,107,61); fill-opacity: 1; stroke: rgb(0,0,0); stroke-width: 3" />
	<circle cx="242.146937445372" cy="-291.831499015397" r="2" style="fill: rgb(0,0,0)" />
	<circle cx="302.01219833114" cy="-291.831499015397" r="2" style="fill: rgb(0,0,0)" />
	<circle cx="299.987071346223" cy="-342.489676292028" r="2" style="fill: rgb(0,0,0)" />
	<circle cx="260.086665506595" cy="-337.98840500658" r="2" style="fill: rgb(0,0,0)" />
	<circle cx="265.049307777568" cy="-237.614356434607" r="2" style="fill: rgb(0,0,0)" />
	<circle cx="299.121648068567" cy="-253.20862393158" r="2" style="fill: rgb(0,0,0)" />
	<circle cx="361.686422527555" cy="-296.610246495419" r="2" style="fill: rgb(0,0,0)" />
	<circle cx="340.119464772171" cy="-341.187820978178" r="2" style="fill: rgb(0,0,0)" />
	<circle cx="233.698950575984" cy="-368.253770196739" r="2" style="fill: rgb(0,0,0)" />
	<circle cx="197.994856490115" cy="-332.259746667773" r="2" style="fill: rgb(0,0,0)" />
	<circle cx="289.889350645449" cy="-404.266984438394" r="2" style="fill: rgb(0,0,0)" />
	<circle cx="236.974894693772" cy="-370.823597700525" r="2" style="fill: rgb(0,0,0)" />
	<circle cx="330.493269928209" cy="-232.716506091571" r="2" style="fill: rgb(0,0,0)" />
	<circle cx="361.21057414539" cy="-282.920732388655" r="2" style="fill: rgb(0,0,0)" />
	<circle cx="202.13199745238" cy="-248.671080877756" r="2" style="fill: rgb(0,0,0)" />
	<circle cx="230.347969946102" cy="-224.690520375204" r="2" style="fill: rgb(0,0,0)" />
	<circle cx="291.187993847024" cy="-187.966809386679" r="2" style="fill: rgb(0,0,0)" />
	<circle cx="328.463604891192" cy="-229.90293532359" r="2" style="fill: rgb(0,0,0)" />
	<circle cx="402.470422379004" cy="-340.433925220953" r="2" style="fill: rgb(0,0,0)" />
	<circle cx="364.007039268766" cy="-373.463006709995" r="2" style="fill: rgb(0,0,0)" />
	<circle cx="360.536412441557" cy="-375.763131204094" r="2" style="fill: rgb(0,0,0)" />
	<circle cx="305.121192350575" cy="-404.875897260082" r="2" style="fill: rgb(0,0,0)" />
	<circle cx="174.043881775864" cy="-301.822391809027" r="2" style="fill: rgb(0,0,0)" />
	<circle cx="188.641927547443" cy="-267.311486122217" r="2" style="fill: rgb(0,0,0)" />
	<circle cx="203.221167876807" cy="-394.395854870589" r="2" style="fill: rgb(0,0,0)" />
	<circle cx="157.210856638683" cy="-376.083425393323" r="2" style="fill: rgb(0,0,0)" />
	<circle cx="238.422445432212" cy="-439.89783389408" r="2" style="fill: rgb(0,0,0)" />
	<circle cx="217.234468788305" cy="-405.789572796668" r="2" style="fill: rgb(0,0,0)" />
	<circle cx="362.884368245749" cy="-214.771447285121" r="2" style="fill: rgb(0,0,0)" />
	<circle cx="394.355456719913" cy="-234.285006059334" r="2" style="fill: rgb(0,0,0)" />
	<circle cx="225.657483223174" cy="-188.945682020338" r="2" style="fill: rgb(0,0,0)" />
	<circle cx="280.314759104837" cy="-183.622914213742" r="2" style="fill: rgb(0,0,0)" />
	<circle cx="169.373362778912" cy="-203.119113942792" r="2" style="fill: rgb(0,0,0)" />
	<circle cx="222.570604683219" cy="-189.488152212236" r="2" style="fill: rgb(0,0,0)" />
	<circle cx="342.698602177003" cy="-168.92982187809" r="2" style="fill: rgb(0,0,0)" />
	<circle cx="354.059920326077" cy="-203.144067224551" r="2" style="fill: rgb(0,0,0)" />
	<circle cx="416.978003272838" cy="-276.439519806805" r="2" style="fill: rgb(0,0,0)" />
	<circle cx="428.774630267696" cy="-312.005587107214" r="2" style="fill: rgb(0,0,0)" />
	<circle cx="439.626048589863" cy="-387.373342577811" r="2" style="fill: rgb(0,0,0)" />
	<circle cx="392.300770749787" cy="-401.954559637716" r="2" style="fill: rgb(0,0,0)" />
	<circle cx="377.422683726133" cy="-412.193306491305" r="2" style="fill: rgb(0,0,0)" />
	<circle cx="353.579626598105" cy="-444.501393035419" r="2" style="fill: rgb(0,0,0)" />
	<circle cx="148.316994616213" cy="-365.665726679725" r="2" style="fill: rgb(0,0,0)" />
	<circle cx="137.067799649934" cy="-307.894862664476" r="2" style="fill: rgb(0,0,0)" />
	<circle cx="136.664664335539" cy="-304.449111288179" r="2" style="fill: rgb(0,0,0)" />
	<circle cx="135.835998632808" cy="-248.347211583572" r="2" style="fill: rgb(0,0,0)" />
	<circle cx="207.399602499712" cy="-434.331359292785" r="2" style="fill: rgb(0,0,0)" />
	<circle cx="156.726703957528" cy="-435.946728485475" r="2" style="fill: rgb(0,0,0)" />
	<circle cx="302.566335385194" cy="-465.567015621668" r="2" style="fill: rgb(0,0,0)" />
	<circle cx="262.889539014363" cy="-471.73594252188" r="2" style="fill: rgb(0,0,0)" />
	<circle cx="365.335327317781" cy="-178.803587544225" r="2" style="fill: rgb(0,0,0)" />
	<circle cx="419.968892577817" cy="-184.364451766866" r="2" style="fill: rgb(0,0,0)" />
	<circle cx="221.800571115999" cy="-76.4741275727339" r="2" style="fill: rgb(0,0,0)" />
	<circle cx="187.850449639167" cy="-82.4403256832539" r="2" style="fill: rgb(0,0,0)" />
	<circle cx="297.138767136968" cy="-66.0268201629471" r="2" style="fill: rgb(0,0,0)" />
	<circle cx="465.147982319807" cy="-321.010297661497" r="2" style="fill: rgb(0,0,0)" />
	<circle cx="449.323122638922" cy="-377.698840882681" r="2" style="fill: rgb(0,0,0)" />
	<circle cx="471.129246784471" cy="-261.750998320363" r="2" style="fill: rgb(0,0,0)" />
	<circle cx="465.824888462699" cy="-317.60772235702" r="2" style="fill: rgb(0,0,0)" />
	<circle cx="435.330065087064" cy="-447.08426274042" r="2" style="fill: rgb(0,0,0)" />
	<circle cx="384.947816313698" cy="-441.429081679338" r="2" style="fill: rgb(0,0,0)" />
	<circle cx="91.0271293966822" cy="-352.179123712827" r="2" style="fill: rgb(0,0,0)" />
	<circle cx="101.059910520001" cy="-316.534324811526" r="2" style="fill: rgb(0,0,0)" />
	<circle cx="99.7159447456771" cy="-301.999518168249" r="2" style="fill: rgb(0,0,0)" />
	<circle cx="84.9896054232307" cy="-269.093150017504" r="2" style="fill: rgb(0,0,0)" />
	<circle cx="205.773224134821" cy="-474.451911666443" r="2" style="fill: rgb(0,0,0)" />
	<circle cx="161.02268746035" cy="-495.657648648082" r="2" style="fill: rgb(0,0,0)" />
	<circle cx="118.128468928003" cy="-432.743915165035" r="2" style="fill: rgb(0,0,0)" />
	<circle cx="102.810267132869" cy="-398.546572498731" r="2" style="fill: rgb(0,0,0)" />
	<circle cx="306.711983395467" cy="-516.095875364106" r="2" style="fill: rgb(0,0,0)" />
	<circle cx="246.899281812371" cy="-518.60390053376" r="2" style="fill: rgb(0,0,0)" />
	<circle cx="383.734956254976" cy="-67.7802567266137" r="2" style="fill: rgb(0,0,0)" />
	<circle cx="122.691604302214" cy="-174.195713564384" r="2" style="fill: rgb(0,0,0)" />
	<circle cx="500.351320777427" cy="-332.496521898464" r="2" style="fill: rgb(0,0,0)" />
	<circle cx="507.506738306794" cy="-368.828441552726" r="2" style="fill: rgb(0,0,0)" />
	<circle cx="520.157337926623" cy="-286.489550074328" r="2" style="fill: rgb(0,0,0)" />
	<circle cx="502.851239483779" cy="-318.115379571736" r="2" style="fill: rgb(0,0,0)" />
	<circle cx="492.059917924427" cy="-414.107337099108" r="2" style="fill: rgb(0,0,0)" />
	<circle cx="474.060793601659" cy="-446.972776017317" r="2" style="fill: rgb(0,0,0)" />
	<circle cx="38.424217811123" cy="-332.658787393089" r="2" style="fill: rgb(0,0,0)" />
	<circle cx="74.9624299213797" cy="-291.662339745634" r="2" style="fill: rgb(0,0,0)" />
	<circle cx="105.301829856912" cy="-476.704993309156" r="2" style="fill: rgb(0,0,0)" />
	<circle cx="118.410832275039" cy="-441.601437830051" r="2" style="fill: rgb(0,0,0)" />
	<circle cx="94.5862431509196" cy="-461.896430616263" r="2" style="fill: rgb(0,0,0)" />
	<circle cx="52.9529504271201" cy="-424.282885525602" r="2" style="fill: rgb(0,0,0)" />
	<circle cx="305.442056958896" cy="-554.805939267514" r="2" style="fill: rgb(0,0,0)" />
	<circle cx="272.052944857764" cy="-571.813959280746" r="2" style="fill: rgb(0,0,0)" />
	<circle cx="461.825464721229" cy="-148.814809963761" r="2" style="fill: rgb(0,0,0)" />
	<circle cx="80.0007676460899" cy="-139.652376587095" r="2" style="fill: rgb(0,0,0)" />
	<circle cx="528.350928886685" cy="-309.787138805966" r="2" style="fill: rgb(0,0,0)" />
	<circle cx="561.5" cy="-353.569426871453" r="2" style="fill: rgb(0,0,0)" />
	<circle cx="539.703731911162" cy="-443.741385525056" r="2" style="fill: rgb(0,0,0)" />
	<circle cx="495.200792503047" cy="-477.911521921488" r="2" style="fill: rgb(0,0,0)" />
	<circle cx="120.845049813128" cy="-538.666654095166" r="2" style="fill: rgb(0,0,0)" />
	<circle cx="94.9015115575272" cy="-512.244292191596" r="2" style="fill: rgb(0,0,0)" />
	<circle cx="67.6212432114674" cy="-487.275500024909" r="2" style="fill: rgb(0,0,0)" />
	<circle cx="33.5" cy="-475.637850072445" r="2" style="fill: rgb(0,0,0)" />
	<circle cx="498.89906208039" cy="-108.301873230211" r="2" style="fill: rgb(0,0,0)" />
	<circle cx="75.3404290340797" cy="-84.9346380743615" r="2" style="fill: rgb(0,0,0)" />
	<circle cx="554.995193171209" cy="-496.485303434699" r="2" style="fill: rgb(0,0,0)" />
	<circle cx="520.053858636039" cy="-505.362086388782" r="2" style="fill: rgb(0,0,0)" />
	<circle cx="495.362912424937" cy="-53.5" r="2" style="fill: rgb(0,0,0)" />
	<!--
	Generated using the Perl SVG Module V2.86
	by Ronan Oger
	Info: http://www.roitsystems.com/
	-->
</svg>