<?xml version="1.0" encoding="UTF-8" standalone="yes"?>
<!DOCTYPE svg PUBLIC "-//W3C//DTD SVG 1.0//EN" "http://www.w3.org/TR/2001/REC-SVG-20010904/DTD/svg10.dtd">
<!-- generated using polymake; Michael Joswig, Georg Loho, Benjamin Lorenz, Rico Raber; license CC BY-NC-ND 3.0; see polymake.org and matchthenet.de -->
<svg height="841pt" id="document" viewBox="0 -791.403844348875 572 791.403844348875" width="595pt" xmlns="http://www.w3.org/2000/svg" xmlns:svg="http://www.w3.org/2000/svg" xmlns:xlink="http://www.w3.org/1999/xlink">
	<title id="document_title">planar_net_</title>
	<polygon points="283.4357340748,-461.03956146399 324.143727790202,-461.03956146399 303.789730932487,-496.29371815862 " style="fill: rgb(14,173,105); fill-opacity: 1; stroke: rgb(0,0,0); stroke-width: 3" />
	<polygon points="357.07718651287,-437.112003107662 324.143727790202,-461.03956146399 283.4357340748,-461.03956146399 250.502275352131,-437.112003107662 237.922813487163,-398.396400419327 250.502275352131,-359.680797730992 283.435734074799,-335.753239374664 324.143727790201,-335.753239374664 357.07718651287,-359.680797730992 369.656648377838,-398.396400419327 " style="fill: rgb(14,173,105); fill-opacity: 1; stroke: rgb(0,0,0); stroke-width: 3" />
	<polygon points="396.895612896291,-428.648335304492 357.07718651287,-437.112003107662 369.656648377838,-398.396400419327 " style="fill: rgb(14,173,105); fill-opacity: 1; stroke: rgb(0,0,0); stroke-width: 3" />
	<polygon points="250.502275352131,-437.112003107662 210.683848968724,-428.648335304495 237.922813487163,-398.396400419327 " style="fill: rgb(14,173,105); fill-opacity: 1; stroke: rgb(0,0,0); stroke-width: 3" />
	<polygon points="428.389721440486,-483.197731442213 401.150756922059,-452.945796557033 440.969183305478,-444.482128753891 " style="fill: rgb(14,173,105); fill-opacity: 1; stroke: rgb(0,0,0); stroke-width: 3" />
	<polygon points="428.389721440486,-483.197731442213 440.969183305478,-444.482128753891 479.684785993813,-457.061590618882 467.105324128831,-495.777193307196 " style="fill: rgb(14,173,105); fill-opacity: 1; stroke: rgb(0,0,0); stroke-width: 3" />
	<polygon points="206.428704942963,-452.945796557017 179.189740424522,-483.197731442187 166.610278559562,-444.482128753843 " style="fill: rgb(14,173,105); fill-opacity: 1; stroke: rgb(0,0,0); stroke-width: 3" />
	<polygon points="210.683848968724,-428.648335304495 180.431914083552,-401.409370786055 207.670878601984,-371.157435900889 237.922813487163,-398.396400419327 " style="fill: rgb(14,173,105); fill-opacity: 1; stroke: rgb(0,0,0); stroke-width: 3" />
	<polygon points="369.656648377838,-398.396400419327 357.07718651287,-359.680797730992 396.895612896279,-368.144465534171 " style="fill: rgb(14,173,105); fill-opacity: 1; stroke: rgb(0,0,0); stroke-width: 3" />
	<polygon points="396.895612896291,-428.648335304492 369.656648377838,-398.396400419327 399.908583262999,-371.157435900875 427.14754778145,-401.409370786033 " style="fill: rgb(14,173,105); fill-opacity: 1; stroke: rgb(0,0,0); stroke-width: 3" />
	<polygon points="250.502275352131,-359.680797730992 237.922813487163,-398.396400419327 210.683848968725,-368.144465534148 " style="fill: rgb(14,173,105); fill-opacity: 1; stroke: rgb(0,0,0); stroke-width: 3" />
	<polygon points="250.502275352131,-359.680797730992 210.683848968725,-368.144465534148 202.220181165563,-328.326039150733 242.038607548959,-319.862371347573 " style="fill: rgb(14,173,105); fill-opacity: 1; stroke: rgb(0,0,0); stroke-width: 3" />
	<polygon points="180.431914083552,-401.409370786055 143.243311335095,-384.851938075907 147.498455360839,-344.366947009435 187.316881744244,-335.903279206266 207.670878601984,-371.157435900889 " style="fill: rgb(14,173,105); fill-opacity: 1; stroke: rgb(0,0,0); stroke-width: 3" />
	<polygon points="357.07718651287,-359.680797730992 324.143727790201,-335.753239374664 361.332330538661,-319.195806664512 " style="fill: rgb(14,173,105); fill-opacity: 1; stroke: rgb(0,0,0); stroke-width: 3" />
	<polygon points="283.435734074799,-335.753239374664 250.502275352131,-359.680797730992 246.247131326341,-319.195806664511 " style="fill: rgb(14,173,105); fill-opacity: 1; stroke: rgb(0,0,0); stroke-width: 3" />
	<polygon points="221.337084318379,-681.485394559725 258.525687066831,-698.042827269872 225.592228344155,-721.970385626202 " style="fill: rgb(14,173,105); fill-opacity: 1; stroke: rgb(0,0,0); stroke-width: 3" />
	<polygon points="147.90361668511,-671.0709316808 114.97015796244,-694.998490037126 91.0425996061081,-662.06503131445 123.976058328789,-638.137472958123 " style="fill: rgb(14,173,105); fill-opacity: 1; stroke: rgb(0,0,0); stroke-width: 3" />
	<polygon points="237.922813487163,-273.11007833 250.502275352131,-311.825681018336 210.683848968718,-303.362013215156 " style="fill: rgb(14,173,105); fill-opacity: 1; stroke: rgb(0,0,0); stroke-width: 3" />
	<polygon points="237.922813487163,-273.11007833 210.683848968718,-303.362013215156 180.431914083552,-276.123048696705 207.670878601982,-245.871113811555 " style="fill: rgb(14,173,105); fill-opacity: 1; stroke: rgb(0,0,0); stroke-width: 3" />
	<polygon points="397.785180228271,-234.39447564167 430.718638950941,-210.466917285343 434.973782976711,-250.951908351831 " style="fill: rgb(14,173,105); fill-opacity: 1; stroke: rgb(0,0,0); stroke-width: 3" />
	<polygon points="369.656648377837,-273.110078330002 396.895612896284,-242.858143444822 427.147547781459,-270.097107963254 399.908583263017,-300.34904284844 " style="fill: rgb(14,173,105); fill-opacity: 1; stroke: rgb(0,0,0); stroke-width: 3" />
	<polygon points="176.86082291406,-210.466917285336 209.794281636729,-234.394475641664 172.60567888827,-250.951908351808 " style="fill: rgb(14,173,105); fill-opacity: 1; stroke: rgb(0,0,0); stroke-width: 3" />
	<polygon points="97.9275672668961,-515.588957601694 58.1091408834846,-507.125289798521 66.5728086866503,-467.306863415113 106.391235070063,-475.770531218279 " style="fill: rgb(14,173,105); fill-opacity: 1; stroke: rgb(0,0,0); stroke-width: 3" />
	<polygon points="250.50227535213,-234.394475641665 237.922813487163,-273.11007833 210.683848968723,-242.858143444831 " style="fill: rgb(14,173,105); fill-opacity: 1; stroke: rgb(0,0,0); stroke-width: 3" />
	<polygon points="250.50227535213,-109.108153552343 209.794281636727,-109.108153552342 230.14827849444,-73.853996857703 " style="fill: rgb(14,173,105); fill-opacity: 1; stroke: rgb(0,0,0); stroke-width: 3" />
	<polygon points="285.756432046777,-88.7541566946358 250.50227535213,-109.108153552343 230.14827849444,-73.853996857703 265.402435189082,-53.5 " style="fill: rgb(14,173,105); fill-opacity: 1; stroke: rgb(0,0,0); stroke-width: 3" />
	<polygon points="324.143727790201,-210.466917285338 283.435734074799,-210.466917285338 303.7897309325,-175.2127605907 " style="fill: rgb(14,173,105); fill-opacity: 1; stroke: rgb(0,0,0); stroke-width: 3" />
	<polygon points="287.690878100578,-92.5507208421868 283.435734074798,-133.035711908671 250.50227535213,-109.108153552343 " style="fill: rgb(14,173,105); fill-opacity: 1; stroke: rgb(0,0,0); stroke-width: 3" />
	<polygon points="397.785180228274,-109.108153552341 357.077186512872,-109.108153552339 377.431183370585,-73.8539968577022 " style="fill: rgb(14,173,105); fill-opacity: 1; stroke: rgb(0,0,0); stroke-width: 3" />
	<polygon points="520.792006284585,-621.580040248038 561.499999999992,-621.580040248059 561.5,-662.288033963467 520.792006284591,-662.288033963446 " style="fill: rgb(14,173,105); fill-opacity: 1; stroke: rgb(0,0,0); stroke-width: 3" />
	<polygon points="164.281361049092,-171.751314597001 176.860822914059,-133.035711908668 209.794281636727,-109.108153552342 250.50227535213,-109.108153552343 283.435734074798,-133.035711908671 296.015195939767,-171.751314597005 283.435734074799,-210.466917285338 250.50227535213,-234.394475641665 209.794281636729,-234.394475641664 176.86082291406,-210.466917285336 " style="fill: rgb(14,173,105); fill-opacity: 1; stroke: rgb(0,0,0); stroke-width: 3" />
	<polygon points="66.4334587226656,-586.325883553344 86.7874555803527,-621.580040247976 46.0794618649456,-621.580040247977 " style="fill: rgb(14,173,105); fill-opacity: 1; stroke: rgb(0,0,0); stroke-width: 3" />
	<polygon points="520.792006284585,-621.580040248038 541.1460031423,-586.325883553408 561.499999999992,-621.580040248059 " style="fill: rgb(14,173,105); fill-opacity: 1; stroke: rgb(0,0,0); stroke-width: 3" />
	<polygon points="430.718638950943,-133.03571190867 443.298100815909,-171.751314597007 430.718638950941,-210.466917285343 397.785180228271,-234.39447564167 357.077186512869,-234.394475641667 324.143727790201,-210.466917285338 311.564265925234,-171.751314597002 324.143727790203,-133.035711908666 357.077186512872,-109.108153552339 397.785180228274,-109.108153552341 " style="fill: rgb(14,173,105); fill-opacity: 1; stroke: rgb(0,0,0); stroke-width: 3" />
	<polygon points="66.4334587226627,-724.931195008054 33.5,-701.003636651727 46.0794618649568,-662.288033963387 86.7874555803505,-662.288033963384 99.3669174453184,-701.00363665172 " style="fill: rgb(14,173,105); fill-opacity: 1; stroke: rgb(0,0,0); stroke-width: 3" />
	<polygon points="369.656648377837,-273.110078330002 357.077186512869,-234.394475641667 396.895612896284,-242.858143444822 " style="fill: rgb(14,173,105); fill-opacity: 1; stroke: rgb(0,0,0); stroke-width: 3" />
	<polygon points="97.9275672668961,-515.588957601694 70.6886027484549,-545.840892486864 58.1091408834846,-507.125289798521 " style="fill: rgb(14,173,105); fill-opacity: 1; stroke: rgb(0,0,0); stroke-width: 3" />
	<polygon points="86.7874555803527,-621.580040247976 123.976058328789,-638.137472958123 91.0425996061081,-662.06503131445 " style="fill: rgb(14,173,105); fill-opacity: 1; stroke: rgb(0,0,0); stroke-width: 3" />
	<polygon points="86.7874555803527,-621.580040247976 86.7874555803505,-662.288033963384 46.0794618649568,-662.288033963387 46.0794618649456,-621.580040247977 " style="fill: rgb(14,173,105); fill-opacity: 1; stroke: rgb(0,0,0); stroke-width: 3" />
	<polygon points="483.60340353613,-638.137472958179 520.792006284585,-621.580040248038 516.536862258781,-662.065031314521 " style="fill: rgb(14,173,105); fill-opacity: 1; stroke: rgb(0,0,0); stroke-width: 3" />
	<polygon points="282.453245423159,-730.976285992548 249.519786700493,-754.903844348875 225.592228344155,-721.970385626202 258.525687066831,-698.042827269872 " style="fill: rgb(14,173,105); fill-opacity: 1; stroke: rgb(0,0,0); stroke-width: 3" />
	<polygon points="536.890859116536,-545.840892486922 509.651894598109,-515.588957601742 549.470320981524,-507.125289798584 " style="fill: rgb(14,173,105); fill-opacity: 1; stroke: rgb(0,0,0); stroke-width: 3" />
	<polygon points="324.143727790201,-335.753239374664 283.435734074799,-335.753239374664 250.502275352131,-311.825681018336 237.922813487163,-273.11007833 250.50227535213,-234.394475641665 283.435734074799,-210.466917285338 324.143727790201,-210.466917285338 357.077186512869,-234.394475641667 369.656648377837,-273.110078330002 357.077186512869,-311.825681018337 " style="fill: rgb(14,173,105); fill-opacity: 1; stroke: rgb(0,0,0); stroke-width: 3" />
	<polygon points="357.077186512869,-311.825681018337 369.656648377837,-273.110078330002 396.895612896272,-303.362013215179 " style="fill: rgb(14,173,105); fill-opacity: 1; stroke: rgb(0,0,0); stroke-width: 3" />
	<polygon points="357.07718651287,-359.680797730992 365.540854316048,-319.862371347581 405.35928069945,-328.326039150753 396.895612896279,-368.144465534171 " style="fill: rgb(14,173,105); fill-opacity: 1; stroke: rgb(0,0,0); stroke-width: 3" />
	<polygon points="137.745993650297,-507.12528979852 97.9275672668961,-515.588957601694 110.507029131867,-476.873354913357 " style="fill: rgb(14,173,105); fill-opacity: 1; stroke: rgb(0,0,0); stroke-width: 3" />
	<polygon points="179.189740424522,-483.197731442187 140.47413773618,-495.777193307149 127.894675871217,-457.061590618813 166.610278559562,-444.482128753843 " style="fill: rgb(14,173,105); fill-opacity: 1; stroke: rgb(0,0,0); stroke-width: 3" />
	<polygon points="163.79448471219,-629.673805154949 151.215022847227,-668.389407843288 123.976058328789,-638.137472958123 " style="fill: rgb(14,173,105); fill-opacity: 1; stroke: rgb(0,0,0); stroke-width: 3" />
	<polygon points="298.344113450231,-689.579159466698 285.764651585261,-728.294762155035 258.525687066831,-698.042827269872 " style="fill: rgb(14,173,105); fill-opacity: 1; stroke: rgb(0,0,0); stroke-width: 3" />
	<polygon points="509.651894598109,-515.588957601742 469.833468214706,-507.125289798558 497.072432733171,-476.873354913403 " style="fill: rgb(14,173,105); fill-opacity: 1; stroke: rgb(0,0,0); stroke-width: 3" />
	<polygon points="509.651894598109,-515.588957601742 501.188226794954,-475.770531218332 541.006653178353,-467.306863415167 549.470320981524,-507.125289798584 " style="fill: rgb(14,173,105); fill-opacity: 1; stroke: rgb(0,0,0); stroke-width: 3" />
	<polygon points="427.14754778145,-401.409370786033 399.908583262999,-371.157435900875 420.262580120688,-335.903279206231 460.081006504098,-344.366947009381 464.336150529892,-384.851938075861 " style="fill: rgb(14,173,105); fill-opacity: 1; stroke: rgb(0,0,0); stroke-width: 3" />
	<polygon points="179.189740424522,-483.197731442187 174.934596398733,-523.682722508667 142.001137676075,-499.755164152323 " style="fill: rgb(14,173,105); fill-opacity: 1; stroke: rgb(0,0,0); stroke-width: 3" />
	<polygon points="432.644865466251,-523.682722508699 428.389721440486,-483.197731442213 465.578324188925,-499.755164152388 " style="fill: rgb(14,173,105); fill-opacity: 1; stroke: rgb(0,0,0); stroke-width: 3" />
	<polygon points="174.934596398733,-523.682722508667 195.28859325642,-558.936879203298 191.033449230631,-599.421870269779 163.79448471219,-629.673805154949 123.976058328789,-638.137472958123 86.7874555803527,-621.580040247976 66.4334587226656,-586.325883553344 70.6886027484549,-545.840892486864 97.9275672668961,-515.588957601694 137.745993650297,-507.12528979852 " style="fill: rgb(14,173,105); fill-opacity: 1; stroke: rgb(0,0,0); stroke-width: 3" />
	<polygon points="412.290868608537,-558.936879203329 432.644865466251,-523.682722508699 469.833468214706,-507.125289798558 509.651894598109,-515.588957601742 536.890859116536,-545.840892486922 541.1460031423,-586.325883553408 520.792006284585,-621.580040248038 483.60340353613,-638.137472958179 443.784977152727,-629.673805154995 416.5460126343,-599.421870269815 " style="fill: rgb(14,173,105); fill-opacity: 1; stroke: rgb(0,0,0); stroke-width: 3" />
	<polygon points="195.28859325642,-558.936879203298 232.477196004857,-575.494311913445 199.543737282196,-599.421870269808 " style="fill: rgb(14,173,105); fill-opacity: 1; stroke: rgb(0,0,0); stroke-width: 3" />
	<polygon points="375.102265860082,-575.49431191347 412.290868608537,-558.936879203329 408.035724582744,-599.42187026981 " style="fill: rgb(14,173,105); fill-opacity: 1; stroke: rgb(0,0,0); stroke-width: 3" />
	<polygon points="309.484225136709,-583.588076820418 329.838221994422,-618.842233515049 325.583077968657,-659.327224581528 298.344113450231,-689.579159466698 258.525687066831,-698.042827269872 221.337084318379,-681.485394559725 200.983087460667,-646.231237865094 205.238231486431,-605.746246798614 232.477196004857,-575.494311913445 272.295622388257,-567.030644110271 " style="fill: rgb(14,173,105); fill-opacity: 1; stroke: rgb(0,0,0); stroke-width: 3" />
	<polygon points="299.534586906698,-536.778709225101 312.114048771667,-575.494311913436 272.295622388257,-567.030644110271 " style="fill: rgb(14,173,105); fill-opacity: 1; stroke: rgb(0,0,0); stroke-width: 3" />
	<polygon points="283.4357340748,-461.03956146399 303.789730932487,-496.29371815862 299.534586906698,-536.778709225101 272.295622388257,-567.030644110271 232.477196004857,-575.494311913445 195.28859325642,-558.936879203298 174.934596398733,-523.682722508667 179.189740424522,-483.197731442187 206.428704942963,-452.945796557017 246.247131326363,-444.482128753843 " style="fill: rgb(14,173,105); fill-opacity: 1; stroke: rgb(0,0,0); stroke-width: 3" />
	<polygon points="303.789730932487,-496.29371815862 324.143727790202,-461.03956146399 361.332330538656,-444.482128753849 401.150756922059,-452.945796557033 428.389721440486,-483.197731442213 432.644865466251,-523.682722508699 412.290868608537,-558.936879203329 375.102265860082,-575.49431191347 335.283839476679,-567.030644110287 308.044874958252,-536.778709225107 " style="fill: rgb(14,173,105); fill-opacity: 1; stroke: rgb(0,0,0); stroke-width: 3" />
	<circle cx="283.4357340748" cy="-461.03956146399" r="2" style="fill: rgb(0,0,0)" />
	<circle cx="324.143727790202" cy="-461.03956146399" r="2" style="fill: rgb(0,0,0)" />
	<circle cx="303.789730932487" cy="-496.29371815862" r="2" style="fill: rgb(0,0,0)" />
	<circle cx="250.502275352131" cy="-437.112003107662" r="2" style="fill: rgb(0,0,0)" />
	<circle cx="237.922813487163" cy="-398.396400419327" r="2" style="fill: rgb(0,0,0)" />
	<circle cx="250.502275352131" cy="-359.680797730992" r="2" style="fill: rgb(0,0,0)" />
	<circle cx="283.435734074799" cy="-335.753239374664" r="2" style="fill: rgb(0,0,0)" />
	<circle cx="324.143727790201" cy="-335.753239374664" r="2" style="fill: rgb(0,0,0)" />
	<circle cx="357.07718651287" cy="-359.680797730992" r="2" style="fill: rgb(0,0,0)" />
	<circle cx="369.656648377838" cy="-398.396400419327" r="2" style="fill: rgb(0,0,0)" />
	<circle cx="357.07718651287" cy="-437.112003107662" r="2" style="fill: rgb(0,0,0)" />
	<circle cx="299.534586906698" cy="-536.778709225101" r="2" style="fill: rgb(0,0,0)" />
	<circle cx="272.295622388257" cy="-567.030644110271" r="2" style="fill: rgb(0,0,0)" />
	<circle cx="232.477196004857" cy="-575.494311913445" r="2" style="fill: rgb(0,0,0)" />
	<circle cx="195.28859325642" cy="-558.936879203298" r="2" style="fill: rgb(0,0,0)" />
	<circle cx="174.934596398733" cy="-523.682722508667" r="2" style="fill: rgb(0,0,0)" />
	<circle cx="179.189740424522" cy="-483.197731442187" r="2" style="fill: rgb(0,0,0)" />
	<circle cx="206.428704942963" cy="-452.945796557017" r="2" style="fill: rgb(0,0,0)" />
	<circle cx="246.247131326363" cy="-444.482128753843" r="2" style="fill: rgb(0,0,0)" />
	<circle cx="361.332330538656" cy="-444.482128753849" r="2" style="fill: rgb(0,0,0)" />
	<circle cx="401.150756922059" cy="-452.945796557033" r="2" style="fill: rgb(0,0,0)" />
	<circle cx="428.389721440486" cy="-483.197731442213" r="2" style="fill: rgb(0,0,0)" />
	<circle cx="432.644865466251" cy="-523.682722508699" r="2" style="fill: rgb(0,0,0)" />
	<circle cx="412.290868608537" cy="-558.936879203329" r="2" style="fill: rgb(0,0,0)" />
	<circle cx="375.102265860082" cy="-575.49431191347" r="2" style="fill: rgb(0,0,0)" />
	<circle cx="335.283839476679" cy="-567.030644110287" r="2" style="fill: rgb(0,0,0)" />
	<circle cx="308.044874958252" cy="-536.778709225107" r="2" style="fill: rgb(0,0,0)" />
	<circle cx="396.895612896291" cy="-428.648335304492" r="2" style="fill: rgb(0,0,0)" />
	<circle cx="210.683848968724" cy="-428.648335304495" r="2" style="fill: rgb(0,0,0)" />
	<circle cx="396.895612896279" cy="-368.144465534171" r="2" style="fill: rgb(0,0,0)" />
	<circle cx="210.683848968725" cy="-368.144465534148" r="2" style="fill: rgb(0,0,0)" />
	<circle cx="361.332330538661" cy="-319.195806664512" r="2" style="fill: rgb(0,0,0)" />
	<circle cx="246.247131326341" cy="-319.195806664511" r="2" style="fill: rgb(0,0,0)" />
	<circle cx="250.502275352131" cy="-311.825681018336" r="2" style="fill: rgb(0,0,0)" />
	<circle cx="237.922813487163" cy="-273.11007833" r="2" style="fill: rgb(0,0,0)" />
	<circle cx="250.50227535213" cy="-234.394475641665" r="2" style="fill: rgb(0,0,0)" />
	<circle cx="283.435734074799" cy="-210.466917285338" r="2" style="fill: rgb(0,0,0)" />
	<circle cx="324.143727790201" cy="-210.466917285338" r="2" style="fill: rgb(0,0,0)" />
	<circle cx="357.077186512869" cy="-234.394475641667" r="2" style="fill: rgb(0,0,0)" />
	<circle cx="369.656648377837" cy="-273.110078330002" r="2" style="fill: rgb(0,0,0)" />
	<circle cx="357.077186512869" cy="-311.825681018337" r="2" style="fill: rgb(0,0,0)" />
	<circle cx="166.610278559562" cy="-444.482128753843" r="2" style="fill: rgb(0,0,0)" />
	<circle cx="142.001137676075" cy="-499.755164152323" r="2" style="fill: rgb(0,0,0)" />
	<circle cx="191.033449230631" cy="-599.421870269779" r="2" style="fill: rgb(0,0,0)" />
	<circle cx="163.79448471219" cy="-629.673805154949" r="2" style="fill: rgb(0,0,0)" />
	<circle cx="123.976058328789" cy="-638.137472958123" r="2" style="fill: rgb(0,0,0)" />
	<circle cx="86.7874555803527" cy="-621.580040247976" r="2" style="fill: rgb(0,0,0)" />
	<circle cx="66.4334587226656" cy="-586.325883553344" r="2" style="fill: rgb(0,0,0)" />
	<circle cx="70.6886027484549" cy="-545.840892486864" r="2" style="fill: rgb(0,0,0)" />
	<circle cx="97.9275672668961" cy="-515.588957601694" r="2" style="fill: rgb(0,0,0)" />
	<circle cx="137.745993650297" cy="-507.12528979852" r="2" style="fill: rgb(0,0,0)" />
	<circle cx="199.543737282196" cy="-599.421870269808" r="2" style="fill: rgb(0,0,0)" />
	<circle cx="309.484225136709" cy="-583.588076820418" r="2" style="fill: rgb(0,0,0)" />
	<circle cx="329.838221994422" cy="-618.842233515049" r="2" style="fill: rgb(0,0,0)" />
	<circle cx="325.583077968657" cy="-659.327224581528" r="2" style="fill: rgb(0,0,0)" />
	<circle cx="298.344113450231" cy="-689.579159466698" r="2" style="fill: rgb(0,0,0)" />
	<circle cx="258.525687066831" cy="-698.042827269872" r="2" style="fill: rgb(0,0,0)" />
	<circle cx="221.337084318379" cy="-681.485394559725" r="2" style="fill: rgb(0,0,0)" />
	<circle cx="200.983087460667" cy="-646.231237865094" r="2" style="fill: rgb(0,0,0)" />
	<circle cx="205.238231486431" cy="-605.746246798614" r="2" style="fill: rgb(0,0,0)" />
	<circle cx="312.114048771667" cy="-575.494311913436" r="2" style="fill: rgb(0,0,0)" />
	<circle cx="440.969183305478" cy="-444.482128753891" r="2" style="fill: rgb(0,0,0)" />
	<circle cx="465.578324188925" cy="-499.755164152388" r="2" style="fill: rgb(0,0,0)" />
	<circle cx="469.833468214706" cy="-507.125289798558" r="2" style="fill: rgb(0,0,0)" />
	<circle cx="509.651894598109" cy="-515.588957601742" r="2" style="fill: rgb(0,0,0)" />
	<circle cx="536.890859116536" cy="-545.840892486922" r="2" style="fill: rgb(0,0,0)" />
	<circle cx="541.1460031423" cy="-586.325883553408" r="2" style="fill: rgb(0,0,0)" />
	<circle cx="520.792006284585" cy="-621.580040248038" r="2" style="fill: rgb(0,0,0)" />
	<circle cx="483.60340353613" cy="-638.137472958179" r="2" style="fill: rgb(0,0,0)" />
	<circle cx="443.784977152727" cy="-629.673805154995" r="2" style="fill: rgb(0,0,0)" />
	<circle cx="416.5460126343" cy="-599.421870269815" r="2" style="fill: rgb(0,0,0)" />
	<circle cx="408.035724582744" cy="-599.42187026981" r="2" style="fill: rgb(0,0,0)" />
	<circle cx="399.908583262999" cy="-371.157435900875" r="2" style="fill: rgb(0,0,0)" />
	<circle cx="427.14754778145" cy="-401.409370786033" r="2" style="fill: rgb(0,0,0)" />
	<circle cx="180.431914083552" cy="-401.409370786055" r="2" style="fill: rgb(0,0,0)" />
	<circle cx="207.670878601984" cy="-371.157435900889" r="2" style="fill: rgb(0,0,0)" />
	<circle cx="365.540854316048" cy="-319.862371347581" r="2" style="fill: rgb(0,0,0)" />
	<circle cx="405.35928069945" cy="-328.326039150753" r="2" style="fill: rgb(0,0,0)" />
	<circle cx="202.220181165563" cy="-328.326039150733" r="2" style="fill: rgb(0,0,0)" />
	<circle cx="242.038607548959" cy="-319.862371347573" r="2" style="fill: rgb(0,0,0)" />
	<circle cx="210.683848968718" cy="-303.362013215156" r="2" style="fill: rgb(0,0,0)" />
	<circle cx="210.683848968723" cy="-242.858143444831" r="2" style="fill: rgb(0,0,0)" />
	<circle cx="303.7897309325" cy="-175.2127605907" r="2" style="fill: rgb(0,0,0)" />
	<circle cx="209.794281636729" cy="-234.394475641664" r="2" style="fill: rgb(0,0,0)" />
	<circle cx="176.86082291406" cy="-210.466917285336" r="2" style="fill: rgb(0,0,0)" />
	<circle cx="164.281361049092" cy="-171.751314597001" r="2" style="fill: rgb(0,0,0)" />
	<circle cx="176.860822914059" cy="-133.035711908668" r="2" style="fill: rgb(0,0,0)" />
	<circle cx="209.794281636727" cy="-109.108153552342" r="2" style="fill: rgb(0,0,0)" />
	<circle cx="250.50227535213" cy="-109.108153552343" r="2" style="fill: rgb(0,0,0)" />
	<circle cx="283.435734074798" cy="-133.035711908671" r="2" style="fill: rgb(0,0,0)" />
	<circle cx="296.015195939767" cy="-171.751314597005" r="2" style="fill: rgb(0,0,0)" />
	<circle cx="311.564265925234" cy="-171.751314597002" r="2" style="fill: rgb(0,0,0)" />
	<circle cx="324.143727790203" cy="-133.035711908666" r="2" style="fill: rgb(0,0,0)" />
	<circle cx="357.077186512872" cy="-109.108153552339" r="2" style="fill: rgb(0,0,0)" />
	<circle cx="397.785180228274" cy="-109.108153552341" r="2" style="fill: rgb(0,0,0)" />
	<circle cx="430.718638950943" cy="-133.03571190867" r="2" style="fill: rgb(0,0,0)" />
	<circle cx="443.298100815909" cy="-171.751314597007" r="2" style="fill: rgb(0,0,0)" />
	<circle cx="430.718638950941" cy="-210.466917285343" r="2" style="fill: rgb(0,0,0)" />
	<circle cx="397.785180228271" cy="-234.39447564167" r="2" style="fill: rgb(0,0,0)" />
	<circle cx="396.895612896284" cy="-242.858143444822" r="2" style="fill: rgb(0,0,0)" />
	<circle cx="396.895612896272" cy="-303.362013215179" r="2" style="fill: rgb(0,0,0)" />
	<circle cx="140.47413773618" cy="-495.777193307149" r="2" style="fill: rgb(0,0,0)" />
	<circle cx="127.894675871217" cy="-457.061590618813" r="2" style="fill: rgb(0,0,0)" />
	<circle cx="46.0794618649456" cy="-621.580040247977" r="2" style="fill: rgb(0,0,0)" />
	<circle cx="58.1091408834846" cy="-507.125289798521" r="2" style="fill: rgb(0,0,0)" />
	<circle cx="91.0425996061081" cy="-662.06503131445" r="2" style="fill: rgb(0,0,0)" />
	<circle cx="110.507029131867" cy="-476.873354913357" r="2" style="fill: rgb(0,0,0)" />
	<circle cx="151.215022847227" cy="-668.389407843288" r="2" style="fill: rgb(0,0,0)" />
	<circle cx="225.592228344155" cy="-721.970385626202" r="2" style="fill: rgb(0,0,0)" />
	<circle cx="285.764651585261" cy="-728.294762155035" r="2" style="fill: rgb(0,0,0)" />
	<circle cx="479.684785993813" cy="-457.061590618882" r="2" style="fill: rgb(0,0,0)" />
	<circle cx="467.105324128831" cy="-495.777193307196" r="2" style="fill: rgb(0,0,0)" />
	<circle cx="561.499999999992" cy="-621.580040248059" r="2" style="fill: rgb(0,0,0)" />
	<circle cx="516.536862258781" cy="-662.065031314521" r="2" style="fill: rgb(0,0,0)" />
	<circle cx="549.470320981524" cy="-507.125289798584" r="2" style="fill: rgb(0,0,0)" />
	<circle cx="497.072432733171" cy="-476.873354913403" r="2" style="fill: rgb(0,0,0)" />
	<circle cx="420.262580120688" cy="-335.903279206231" r="2" style="fill: rgb(0,0,0)" />
	<circle cx="460.081006504098" cy="-344.366947009381" r="2" style="fill: rgb(0,0,0)" />
	<circle cx="464.336150529892" cy="-384.851938075861" r="2" style="fill: rgb(0,0,0)" />
	<circle cx="143.243311335095" cy="-384.851938075907" r="2" style="fill: rgb(0,0,0)" />
	<circle cx="147.498455360839" cy="-344.366947009435" r="2" style="fill: rgb(0,0,0)" />
	<circle cx="187.316881744244" cy="-335.903279206266" r="2" style="fill: rgb(0,0,0)" />
	<circle cx="180.431914083552" cy="-276.123048696705" r="2" style="fill: rgb(0,0,0)" />
	<circle cx="207.670878601982" cy="-245.871113811555" r="2" style="fill: rgb(0,0,0)" />
	<circle cx="172.60567888827" cy="-250.951908351808" r="2" style="fill: rgb(0,0,0)" />
	<circle cx="230.14827849444" cy="-73.853996857703" r="2" style="fill: rgb(0,0,0)" />
	<circle cx="287.690878100578" cy="-92.5507208421868" r="2" style="fill: rgb(0,0,0)" />
	<circle cx="434.973782976711" cy="-250.951908351831" r="2" style="fill: rgb(0,0,0)" />
	<circle cx="377.431183370585" cy="-73.8539968577022" r="2" style="fill: rgb(0,0,0)" />
	<circle cx="427.147547781459" cy="-270.097107963254" r="2" style="fill: rgb(0,0,0)" />
	<circle cx="399.908583263017" cy="-300.34904284844" r="2" style="fill: rgb(0,0,0)" />
	<circle cx="86.7874555803505" cy="-662.288033963384" r="2" style="fill: rgb(0,0,0)" />
	<circle cx="46.0794618649568" cy="-662.288033963387" r="2" style="fill: rgb(0,0,0)" />
	<circle cx="66.5728086866503" cy="-467.306863415113" r="2" style="fill: rgb(0,0,0)" />
	<circle cx="106.391235070063" cy="-475.770531218279" r="2" style="fill: rgb(0,0,0)" />
	<circle cx="147.90361668511" cy="-671.0709316808" r="2" style="fill: rgb(0,0,0)" />
	<circle cx="114.97015796244" cy="-694.998490037126" r="2" style="fill: rgb(0,0,0)" />
	<circle cx="282.453245423159" cy="-730.976285992548" r="2" style="fill: rgb(0,0,0)" />
	<circle cx="249.519786700493" cy="-754.903844348875" r="2" style="fill: rgb(0,0,0)" />
	<circle cx="561.5" cy="-662.288033963467" r="2" style="fill: rgb(0,0,0)" />
	<circle cx="520.792006284591" cy="-662.288033963446" r="2" style="fill: rgb(0,0,0)" />
	<circle cx="501.188226794954" cy="-475.770531218332" r="2" style="fill: rgb(0,0,0)" />
	<circle cx="541.006653178353" cy="-467.306863415167" r="2" style="fill: rgb(0,0,0)" />
	<circle cx="265.402435189082" cy="-53.5" r="2" style="fill: rgb(0,0,0)" />
	<circle cx="285.756432046777" cy="-88.7541566946358" r="2" style="fill: rgb(0,0,0)" />
	<circle cx="99.3669174453184" cy="-701.00363665172" r="2" style="fill: rgb(0,0,0)" />
	<circle cx="66.4334587226627" cy="-724.931195008054" r="2" style="fill: rgb(0,0,0)" />
	<circle cx="33.5" cy="-701.003636651727" r="2" style="fill: rgb(0,0,0)" />
	<!--
	Generated using the Perl SVG Module V2.87
	by Ronan Oger

	-->
</svg>