<?xml version="1.0" encoding="UTF-8" standalone="yes"?>
<!DOCTYPE svg PUBLIC "-//W3C//DTD SVG 1.0//EN" "http://www.w3.org/TR/2001/REC-SVG-20010904/DTD/svg10.dtd">
<!-- generated using polymake; Michael Joswig, Georg Loho, Benjamin Lorenz, Rico Raber; license CC BY-NC-SA 3.0; see polymake.org and matchthenet.de -->
<svg height="841pt" id="document" viewBox="0 -811 529.764638504916 811" width="595pt" xmlns="http://www.w3.org/2000/svg" xmlns:svg="http://www.w3.org/2000/svg" xmlns:xlink="http://www.w3.org/1999/xlink">
	<title id="document_title">planar_net_</title>
	<polygon points="238.109419270227,-462.7188385405 314.655219234661,-462.7188385405 276.382319252431,-529.009445862701 " style="fill: rgb(14,173,105); fill-opacity: 1; stroke: rgb(0,0,0); stroke-width: 3" />
	<polygon points="368.781273460861,-408.592784314301 314.655219234661,-462.7188385405 238.109419270227,-462.7188385405 183.983365044028,-408.5927843143 183.983365044028,-332.046984349866 238.109419270228,-277.920930123667 314.655219234661,-277.920930123667 368.781273460861,-332.046984349867 " style="fill: rgb(136,136,136); fill-opacity: 1; stroke: rgb(0,0,0); stroke-width: 3" />
	<polygon points="435.071880783061,-370.319884332098 368.781273460861,-408.592784314301 368.781273460861,-332.046984349867 " style="fill: rgb(14,173,105); fill-opacity: 1; stroke: rgb(0,0,0); stroke-width: 3" />
	<polygon points="116.342635997219,-621.408400071111 116.342635997216,-697.954200035557 39.7968360328019,-697.954200035549 39.7968360327825,-621.408400071101 " style="fill: rgb(67,184,206); fill-opacity: 1; stroke: rgb(0,0,0); stroke-width: 3" />
	<polygon points="183.983365044028,-408.5927843143 117.692757721827,-370.31988433207 183.983365044028,-332.046984349866 " style="fill: rgb(14,173,105); fill-opacity: 1; stroke: rgb(0,0,0); stroke-width: 3" />
	<polygon points="107.437565079594,-147.249075933033 53.3115108533924,-201.375130159229 33.5,-127.437565079611 " style="fill: rgb(14,173,105); fill-opacity: 1; stroke: rgb(0,0,0); stroke-width: 3" />
	<polygon points="314.655219234661,-277.920930123667 238.109419270228,-277.920930123667 276.382319252458,-211.630322801466 " style="fill: rgb(14,173,105); fill-opacity: 1; stroke: rgb(0,0,0); stroke-width: 3" />
	<polygon points="145.710465061809,-80.9584686108267 183.983365044029,-147.249075933038 107.437565079594,-147.249075933033 " style="fill: rgb(14,173,105); fill-opacity: 1; stroke: rgb(0,0,0); stroke-width: 3" />
	<polygon points="127.249075933013,-73.3115108534287 107.437565079594,-147.249075933033 33.5,-127.437565079611 53.3115108534169,-53.5 " style="fill: rgb(67,184,206); fill-opacity: 1; stroke: rgb(0,0,0); stroke-width: 3" />
	<polygon points="499.453127651495,-201.375130159235 445.327073425298,-147.249075933029 519.264638504916,-127.437565079637 " style="fill: rgb(14,173,105); fill-opacity: 1; stroke: rgb(0,0,0); stroke-width: 3" />
	<polygon points="107.437565079593,-332.046984349862 53.3115108533918,-277.92093012366 53.3115108533924,-201.375130159229 107.437565079594,-147.249075933033 183.983365044029,-147.249075933038 238.10941927023,-201.37513015924 238.109419270228,-277.920930123667 183.983365044028,-332.046984349866 " style="fill: rgb(136,136,136); fill-opacity: 1; stroke: rgb(0,0,0); stroke-width: 3" />
	<polygon points="499.453127651492,-277.920930123674 445.32707342529,-332.046984349876 368.781273460861,-332.046984349867 314.655219234661,-277.920930123667 314.655219234664,-201.375130159228 368.781273460865,-147.249075933026 445.327073425298,-147.249075933029 499.453127651495,-201.375130159235 " style="fill: rgb(136,136,136); fill-opacity: 1; stroke: rgb(0,0,0); stroke-width: 3" />
	<polygon points="78.0697360150146,-555.117792748907 116.342635997219,-621.408400071111 39.7968360327825,-621.408400071101 " style="fill: rgb(14,173,105); fill-opacity: 1; stroke: rgb(0,0,0); stroke-width: 3" />
	<polygon points="116.342635997216,-774.5 39.796836032813,-774.499999999994 39.7968360328019,-697.954200035549 116.342635997216,-697.954200035557 " style="fill: rgb(67,184,206); fill-opacity: 1; stroke: rgb(0,0,0); stroke-width: 3" />
	<polygon points="436.422002507616,-621.408400071156 474.694902489849,-555.117792748955 512.967802472065,-621.408400071167 " style="fill: rgb(14,173,105); fill-opacity: 1; stroke: rgb(0,0,0); stroke-width: 3" />
	<polygon points="436.422002507616,-621.408400071156 512.967802472065,-621.408400071167 512.967802472081,-697.954200035613 436.42200250763,-697.954200035604 " style="fill: rgb(67,184,206); fill-opacity: 1; stroke: rgb(0,0,0); stroke-width: 3" />
	<polygon points="116.342635997219,-621.408400071111 190.280201076814,-641.219910924518 136.154146850596,-695.345965150714 " style="fill: rgb(14,173,105); fill-opacity: 1; stroke: rgb(0,0,0); stroke-width: 3" />
	<polygon points="362.484437428007,-641.219910924547 436.422002507616,-621.408400071156 416.61049165419,-695.345965150762 " style="fill: rgb(14,173,105); fill-opacity: 1; stroke: rgb(0,0,0); stroke-width: 3" />
	<polygon points="244.406255303007,-695.34596515074 190.280201076809,-749.472019376928 136.154146850596,-695.345965150714 190.280201076814,-641.219910924518 " style="fill: rgb(67,184,206); fill-opacity: 1; stroke: rgb(0,0,0); stroke-width: 3" />
	<polygon points="256.570808399017,-602.947010942304 256.57080839902,-679.492810906746 190.280201076814,-641.219910924518 " style="fill: rgb(14,173,105); fill-opacity: 1; stroke: rgb(0,0,0); stroke-width: 3" />
	<polygon points="238.109419270227,-462.7188385405 276.382319252431,-529.009445862701 256.570808399017,-602.947010942304 190.280201076814,-641.219910924518 116.342635997219,-621.408400071111 78.0697360150146,-555.117792748907 97.881246868428,-481.180227669304 164.171854190631,-442.90732768709 " style="fill: rgb(136,136,136); fill-opacity: 1; stroke: rgb(0,0,0); stroke-width: 3" />
	<polygon points="276.382319252431,-529.009445862701 314.655219234661,-462.7188385405 388.59278431427,-442.907327687109 454.883391636463,-481.180227669342 474.694902489849,-555.117792748955 436.422002507616,-621.408400071156 362.484437428007,-641.219910924547 296.193830105814,-602.947010942314 " style="fill: rgb(136,136,136); fill-opacity: 1; stroke: rgb(0,0,0); stroke-width: 3" />
	<circle cx="238.109419270227" cy="-462.7188385405" r="2" style="fill: rgb(0,0,0)" />
	<circle cx="314.655219234661" cy="-462.7188385405" r="2" style="fill: rgb(0,0,0)" />
	<circle cx="276.382319252431" cy="-529.009445862701" r="2" style="fill: rgb(0,0,0)" />
	<circle cx="183.983365044028" cy="-408.5927843143" r="2" style="fill: rgb(0,0,0)" />
	<circle cx="183.983365044028" cy="-332.046984349866" r="2" style="fill: rgb(0,0,0)" />
	<circle cx="238.109419270228" cy="-277.920930123667" r="2" style="fill: rgb(0,0,0)" />
	<circle cx="314.655219234661" cy="-277.920930123667" r="2" style="fill: rgb(0,0,0)" />
	<circle cx="368.781273460861" cy="-332.046984349867" r="2" style="fill: rgb(0,0,0)" />
	<circle cx="368.781273460861" cy="-408.592784314301" r="2" style="fill: rgb(0,0,0)" />
	<circle cx="256.570808399017" cy="-602.947010942304" r="2" style="fill: rgb(0,0,0)" />
	<circle cx="190.280201076814" cy="-641.219910924518" r="2" style="fill: rgb(0,0,0)" />
	<circle cx="116.342635997219" cy="-621.408400071111" r="2" style="fill: rgb(0,0,0)" />
	<circle cx="78.0697360150146" cy="-555.117792748907" r="2" style="fill: rgb(0,0,0)" />
	<circle cx="97.881246868428" cy="-481.180227669304" r="2" style="fill: rgb(0,0,0)" />
	<circle cx="164.171854190631" cy="-442.90732768709" r="2" style="fill: rgb(0,0,0)" />
	<circle cx="388.59278431427" cy="-442.907327687109" r="2" style="fill: rgb(0,0,0)" />
	<circle cx="454.883391636463" cy="-481.180227669342" r="2" style="fill: rgb(0,0,0)" />
	<circle cx="474.694902489849" cy="-555.117792748955" r="2" style="fill: rgb(0,0,0)" />
	<circle cx="436.422002507616" cy="-621.408400071156" r="2" style="fill: rgb(0,0,0)" />
	<circle cx="362.484437428007" cy="-641.219910924547" r="2" style="fill: rgb(0,0,0)" />
	<circle cx="296.193830105814" cy="-602.947010942314" r="2" style="fill: rgb(0,0,0)" />
	<circle cx="435.071880783061" cy="-370.319884332098" r="2" style="fill: rgb(0,0,0)" />
	<circle cx="117.692757721827" cy="-370.31988433207" r="2" style="fill: rgb(0,0,0)" />
	<circle cx="276.382319252458" cy="-211.630322801466" r="2" style="fill: rgb(0,0,0)" />
	<circle cx="107.437565079593" cy="-332.046984349862" r="2" style="fill: rgb(0,0,0)" />
	<circle cx="53.3115108533918" cy="-277.92093012366" r="2" style="fill: rgb(0,0,0)" />
	<circle cx="53.3115108533924" cy="-201.375130159229" r="2" style="fill: rgb(0,0,0)" />
	<circle cx="107.437565079594" cy="-147.249075933033" r="2" style="fill: rgb(0,0,0)" />
	<circle cx="183.983365044029" cy="-147.249075933038" r="2" style="fill: rgb(0,0,0)" />
	<circle cx="238.10941927023" cy="-201.37513015924" r="2" style="fill: rgb(0,0,0)" />
	<circle cx="314.655219234664" cy="-201.375130159228" r="2" style="fill: rgb(0,0,0)" />
	<circle cx="368.781273460865" cy="-147.249075933026" r="2" style="fill: rgb(0,0,0)" />
	<circle cx="445.327073425298" cy="-147.249075933029" r="2" style="fill: rgb(0,0,0)" />
	<circle cx="499.453127651495" cy="-201.375130159235" r="2" style="fill: rgb(0,0,0)" />
	<circle cx="499.453127651492" cy="-277.920930123674" r="2" style="fill: rgb(0,0,0)" />
	<circle cx="445.32707342529" cy="-332.046984349876" r="2" style="fill: rgb(0,0,0)" />
	<circle cx="39.7968360327825" cy="-621.408400071101" r="2" style="fill: rgb(0,0,0)" />
	<circle cx="136.154146850596" cy="-695.345965150714" r="2" style="fill: rgb(0,0,0)" />
	<circle cx="256.57080839902" cy="-679.492810906746" r="2" style="fill: rgb(0,0,0)" />
	<circle cx="512.967802472065" cy="-621.408400071167" r="2" style="fill: rgb(0,0,0)" />
	<circle cx="416.61049165419" cy="-695.345965150762" r="2" style="fill: rgb(0,0,0)" />
	<circle cx="33.5" cy="-127.437565079611" r="2" style="fill: rgb(0,0,0)" />
	<circle cx="145.710465061809" cy="-80.9584686108267" r="2" style="fill: rgb(0,0,0)" />
	<circle cx="519.264638504916" cy="-127.437565079637" r="2" style="fill: rgb(0,0,0)" />
	<circle cx="116.342635997216" cy="-697.954200035557" r="2" style="fill: rgb(0,0,0)" />
	<circle cx="39.7968360328019" cy="-697.954200035549" r="2" style="fill: rgb(0,0,0)" />
	<circle cx="244.406255303007" cy="-695.34596515074" r="2" style="fill: rgb(0,0,0)" />
	<circle cx="190.280201076809" cy="-749.472019376928" r="2" style="fill: rgb(0,0,0)" />
	<circle cx="512.967802472081" cy="-697.954200035613" r="2" style="fill: rgb(0,0,0)" />
	<circle cx="436.42200250763" cy="-697.954200035604" r="2" style="fill: rgb(0,0,0)" />
	<circle cx="53.3115108534169" cy="-53.5" r="2" style="fill: rgb(0,0,0)" />
	<circle cx="127.249075933013" cy="-73.3115108534287" r="2" style="fill: rgb(0,0,0)" />
	<circle cx="116.342635997216" cy="-774.5" r="2" style="fill: rgb(0,0,0)" />
	<circle cx="39.796836032813" cy="-774.499999999994" r="2" style="fill: rgb(0,0,0)" />
	<!-- 
	Generated using the Perl SVG Module V2.64
	by Ronan Oger
	Info: http://www.roitsystems.com/
 -->
</svg>