<?xml version="1.0" encoding="UTF-8" standalone="yes"?>
<!DOCTYPE svg PUBLIC "-//W3C//DTD SVG 1.0//EN" "http://www.w3.org/TR/2001/REC-SVG-20010904/DTD/svg10.dtd">
<!-- generated using polymake; Michael Joswig, Georg Loho, Benjamin Lorenz, Rico Raber; license CC BY-NC-ND 3.0; see polymake.org and matchthenet.de -->
<svg height="841pt" id="document" viewBox="0 -811 557.589332285208 811" width="595pt" xmlns="http://www.w3.org/2000/svg" xmlns:svg="http://www.w3.org/2000/svg" xmlns:xlink="http://www.w3.org/1999/xlink">
	<title id="document_title">planar_net_</title>
	<polygon points="301.226779796146,-380.27416142267 379.950756681029,-380.27416142267 367.567261720049,-452.064709877884 312.40818476012,-466.597912657141 279.362552489087,-426.992238940761 " style="fill: rgb(42,107,61); fill-opacity: 1; stroke: rgb(0,0,0); stroke-width: 3" />
	<polygon points="301.226779796146,-380.27416142267 279.362552489071,-333.556083904589 312.408184760088,-293.950410188204 367.567261720023,-308.483612967452 379.950756681029,-380.27416142267 " style="fill: rgb(42,107,61); fill-opacity: 1; stroke: rgb(0,0,0); stroke-width: 3" />
	<polygon points="413.717748473571,-252.115480415812 367.567261720023,-308.483612967452 312.408184760088,-293.950410188204 303.168475160254,-243.203479549673 345.214389213042,-213.324317677467 " style="fill: rgb(42,107,61); fill-opacity: 1; stroke: rgb(0,0,0); stroke-width: 3" />
	<polygon points="413.717748473571,-252.115480415812 345.214389213042,-213.324317677467 349.209049316609,-161.89800249372 397.480073016336,-143.717477922081 438.316707019816,-183.543437764376 " style="fill: rgb(42,107,61); fill-opacity: 1; stroke: rgb(0,0,0); stroke-width: 3" />
	<polygon points="506.250886526711,-157.234103875565 438.316707019816,-183.543437764376 397.480073016336,-143.717477922081 414.445441783769,-95.0060884396759 465.755524763603,-89.724177107388 " style="fill: rgb(42,107,61); fill-opacity: 1; stroke: rgb(0,0,0); stroke-width: 3" />
	<polygon points="438.316707019941,-577.004885080901 506.250886526876,-603.314218969632 465.755524763849,-670.824145737812 414.445441783999,-665.542234405578 397.480073016497,-616.830844923211 " style="fill: rgb(42,107,61); fill-opacity: 1; stroke: rgb(0,0,0); stroke-width: 3" />
	<polygon points="345.214389213143,-547.224005167863 413.717748473641,-508.432842429493 438.316707019941,-577.004885080901 397.480073016497,-616.830844923211 349.209049316755,-598.650320351603 " style="fill: rgb(42,107,61); fill-opacity: 1; stroke: rgb(0,0,0); stroke-width: 3" />
	<polygon points="312.40818476012,-466.597912657141 367.567261720049,-452.064709877884 413.717748473641,-508.432842429493 345.214389213143,-547.224005167863 303.168475160327,-517.344843295678 " style="fill: rgb(42,107,61); fill-opacity: 1; stroke: rgb(0,0,0); stroke-width: 3" />
	<polygon points="279.362552489071,-333.556083904589 224.203475529123,-319.022881125356 211.819980568072,-247.232332670167 290.543957452966,-247.232332670144 312.408184760088,-293.950410188204 " style="fill: rgb(42,107,61); fill-opacity: 1; stroke: rgb(0,0,0); stroke-width: 3" />
	<polygon points="301.226779796146,-380.27416142267 279.362552489087,-426.992238940761 200.638575604202,-426.992238940784 213.022070565164,-355.201690485566 268.1811475251,-340.668487706298 " style="fill: rgb(42,107,61); fill-opacity: 1; stroke: rgb(0,0,0); stroke-width: 3" />
	<polygon points="279.362552489087,-426.992238940761 312.40818476012,-466.597912657141 290.54395745305,-513.315990175227 233.50241334619,-513.315990175259 203.236599596747,-447.049752066919 " style="fill: rgb(42,107,61); fill-opacity: 1; stroke: rgb(0,0,0); stroke-width: 3" />
	<polygon points="303.168475160327,-517.344843295678 345.214389213143,-547.224005167863 335.974679613322,-597.970935806396 259.848726720993,-618.028448932557 253.532550460525,-545.452008454965 " style="fill: rgb(42,107,61); fill-opacity: 1; stroke: rgb(0,0,0); stroke-width: 3" />
	<polygon points="349.209049316755,-598.650320351603 397.480073016497,-616.830844923211 401.474733120083,-668.257160106957 351.838808420299,-696.364325266245 292.849736439085,-653.614785131394 " style="fill: rgb(42,107,61); fill-opacity: 1; stroke: rgb(0,0,0); stroke-width: 3" />
	<polygon points="414.445441783999,-665.542234405578 465.755524763849,-670.824145737812 482.720893531312,-719.535535220204 426.361580653657,-774.5 385.103454049971,-714.458341261213 " style="fill: rgb(42,107,61); fill-opacity: 1; stroke: rgb(0,0,0); stroke-width: 3" />
	<polygon points="308.372415313101,-122.072042651432 332.971373859282,-53.5 401.474733119841,-92.291162738336 397.480073016336,-143.717477922081 349.209049316609,-161.89800249372 " style="fill: rgb(42,107,61); fill-opacity: 1; stroke: rgb(0,0,0); stroke-width: 3" />
	<polygon points="303.168475160254,-243.203479549673 234.665115899695,-204.412316811354 280.815602653233,-148.044184259723 335.974679613177,-162.577387038949 345.214389213042,-213.324317677467 " style="fill: rgb(42,107,61); fill-opacity: 1; stroke: rgb(0,0,0); stroke-width: 3" />
	<polygon points="213.022070565164,-355.201690485566 200.638575604202,-426.992238940784 109.965261083284,-397.433685774289 153.821201323839,-312.745938507512 " style="fill: rgb(42,107,61); fill-opacity: 1; stroke: rgb(0,0,0); stroke-width: 3" />
	<polygon points="203.236599596747,-447.049752066919 233.50241334619,-513.315990175259 187.07226683804,-569.453992367897 123.086667500313,-498.734821636799 " style="fill: rgb(42,107,61); fill-opacity: 1; stroke: rgb(0,0,0); stroke-width: 3" />
	<polygon points="153.821201323839,-312.745938507512 109.965261083284,-397.433685774289 33.5,-340.438757236994 84.984727508032,-288.896962270466 " style="fill: rgb(42,107,61); fill-opacity: 1; stroke: rgb(0,0,0); stroke-width: 3" />
	<polygon points="123.086667500313,-498.734821636799 187.07226683804,-569.453992367897 126.58382103684,-610.054259848599 63.666214914375,-573.330852670554 " style="fill: rgb(42,107,61); fill-opacity: 1; stroke: rgb(0,0,0); stroke-width: 3" />
	<polygon points="367.567261720049,-452.064709877884 379.950756681029,-380.27416142267 470.62407120194,-409.832714589189 426.768130961364,-494.520461855952 " style="fill: rgb(42,107,61); fill-opacity: 1; stroke: rgb(0,0,0); stroke-width: 3" />
	<polygon points="426.768130961364,-494.520461855952 470.62407120194,-409.832714589189 547.089332285208,-466.827643126505 495.604604777164,-518.369438093016 " style="fill: rgb(42,107,61); fill-opacity: 1; stroke: rgb(0,0,0); stroke-width: 3" />
	<polygon points="470.624071201929,-350.71560825612 426.768130961307,-266.02786098936 495.604604777093,-242.178884752258 547.089332285166,-293.720679718754 " style="fill: rgb(42,107,61); fill-opacity: 1; stroke: rgb(0,0,0); stroke-width: 3" />
	<polygon points="470.624071201929,-350.71560825612 379.950756681029,-380.27416142267 367.567261720023,-308.483612967452 426.768130961307,-266.02786098936 " style="fill: rgb(42,107,61); fill-opacity: 1; stroke: rgb(0,0,0); stroke-width: 3" />
	<circle cx="301.226779796146" cy="-380.27416142267" r="2" style="fill: rgb(0,0,0)" />
	<circle cx="379.950756681029" cy="-380.27416142267" r="2" style="fill: rgb(0,0,0)" />
	<circle cx="367.567261720049" cy="-452.064709877884" r="2" style="fill: rgb(0,0,0)" />
	<circle cx="312.40818476012" cy="-466.597912657141" r="2" style="fill: rgb(0,0,0)" />
	<circle cx="279.362552489087" cy="-426.992238940761" r="2" style="fill: rgb(0,0,0)" />
	<circle cx="279.362552489071" cy="-333.556083904589" r="2" style="fill: rgb(0,0,0)" />
	<circle cx="312.408184760088" cy="-293.950410188204" r="2" style="fill: rgb(0,0,0)" />
	<circle cx="367.567261720023" cy="-308.483612967452" r="2" style="fill: rgb(0,0,0)" />
	<circle cx="413.717748473641" cy="-508.432842429493" r="2" style="fill: rgb(0,0,0)" />
	<circle cx="345.214389213143" cy="-547.224005167863" r="2" style="fill: rgb(0,0,0)" />
	<circle cx="303.168475160327" cy="-517.344843295678" r="2" style="fill: rgb(0,0,0)" />
	<circle cx="200.638575604202" cy="-426.992238940784" r="2" style="fill: rgb(0,0,0)" />
	<circle cx="213.022070565164" cy="-355.201690485566" r="2" style="fill: rgb(0,0,0)" />
	<circle cx="268.1811475251" cy="-340.668487706298" r="2" style="fill: rgb(0,0,0)" />
	<circle cx="290.54395745305" cy="-513.315990175227" r="2" style="fill: rgb(0,0,0)" />
	<circle cx="233.50241334619" cy="-513.315990175259" r="2" style="fill: rgb(0,0,0)" />
	<circle cx="203.236599596747" cy="-447.049752066919" r="2" style="fill: rgb(0,0,0)" />
	<circle cx="470.62407120194" cy="-409.832714589189" r="2" style="fill: rgb(0,0,0)" />
	<circle cx="426.768130961364" cy="-494.520461855952" r="2" style="fill: rgb(0,0,0)" />
	<circle cx="303.168475160254" cy="-243.203479549673" r="2" style="fill: rgb(0,0,0)" />
	<circle cx="345.214389213042" cy="-213.324317677467" r="2" style="fill: rgb(0,0,0)" />
	<circle cx="413.717748473571" cy="-252.115480415812" r="2" style="fill: rgb(0,0,0)" />
	<circle cx="224.203475529123" cy="-319.022881125356" r="2" style="fill: rgb(0,0,0)" />
	<circle cx="211.819980568072" cy="-247.232332670167" r="2" style="fill: rgb(0,0,0)" />
	<circle cx="290.543957452966" cy="-247.232332670144" r="2" style="fill: rgb(0,0,0)" />
	<circle cx="426.768130961307" cy="-266.02786098936" r="2" style="fill: rgb(0,0,0)" />
	<circle cx="470.624071201929" cy="-350.71560825612" r="2" style="fill: rgb(0,0,0)" />
	<circle cx="438.316707019941" cy="-577.004885080901" r="2" style="fill: rgb(0,0,0)" />
	<circle cx="397.480073016497" cy="-616.830844923211" r="2" style="fill: rgb(0,0,0)" />
	<circle cx="349.209049316755" cy="-598.650320351603" r="2" style="fill: rgb(0,0,0)" />
	<circle cx="335.974679613322" cy="-597.970935806396" r="2" style="fill: rgb(0,0,0)" />
	<circle cx="259.848726720993" cy="-618.028448932557" r="2" style="fill: rgb(0,0,0)" />
	<circle cx="253.532550460525" cy="-545.452008454965" r="2" style="fill: rgb(0,0,0)" />
	<circle cx="109.965261083284" cy="-397.433685774289" r="2" style="fill: rgb(0,0,0)" />
	<circle cx="153.821201323839" cy="-312.745938507512" r="2" style="fill: rgb(0,0,0)" />
	<circle cx="187.07226683804" cy="-569.453992367897" r="2" style="fill: rgb(0,0,0)" />
	<circle cx="123.086667500313" cy="-498.734821636799" r="2" style="fill: rgb(0,0,0)" />
	<circle cx="547.089332285208" cy="-466.827643126505" r="2" style="fill: rgb(0,0,0)" />
	<circle cx="495.604604777164" cy="-518.369438093016" r="2" style="fill: rgb(0,0,0)" />
	<circle cx="349.209049316609" cy="-161.89800249372" r="2" style="fill: rgb(0,0,0)" />
	<circle cx="397.480073016336" cy="-143.717477922081" r="2" style="fill: rgb(0,0,0)" />
	<circle cx="438.316707019816" cy="-183.543437764376" r="2" style="fill: rgb(0,0,0)" />
	<circle cx="234.665115899695" cy="-204.412316811354" r="2" style="fill: rgb(0,0,0)" />
	<circle cx="280.815602653233" cy="-148.044184259723" r="2" style="fill: rgb(0,0,0)" />
	<circle cx="335.974679613177" cy="-162.577387038949" r="2" style="fill: rgb(0,0,0)" />
	<circle cx="495.604604777093" cy="-242.178884752258" r="2" style="fill: rgb(0,0,0)" />
	<circle cx="547.089332285166" cy="-293.720679718754" r="2" style="fill: rgb(0,0,0)" />
	<circle cx="506.250886526876" cy="-603.314218969632" r="2" style="fill: rgb(0,0,0)" />
	<circle cx="465.755524763849" cy="-670.824145737812" r="2" style="fill: rgb(0,0,0)" />
	<circle cx="414.445441783999" cy="-665.542234405578" r="2" style="fill: rgb(0,0,0)" />
	<circle cx="401.474733120083" cy="-668.257160106957" r="2" style="fill: rgb(0,0,0)" />
	<circle cx="351.838808420299" cy="-696.364325266245" r="2" style="fill: rgb(0,0,0)" />
	<circle cx="292.849736439085" cy="-653.614785131394" r="2" style="fill: rgb(0,0,0)" />
	<circle cx="33.5" cy="-340.438757236994" r="2" style="fill: rgb(0,0,0)" />
	<circle cx="84.984727508032" cy="-288.896962270466" r="2" style="fill: rgb(0,0,0)" />
	<circle cx="126.58382103684" cy="-610.054259848599" r="2" style="fill: rgb(0,0,0)" />
	<circle cx="63.666214914375" cy="-573.330852670554" r="2" style="fill: rgb(0,0,0)" />
	<circle cx="414.445441783769" cy="-95.0060884396759" r="2" style="fill: rgb(0,0,0)" />
	<circle cx="465.755524763603" cy="-89.724177107388" r="2" style="fill: rgb(0,0,0)" />
	<circle cx="506.250886526711" cy="-157.234103875565" r="2" style="fill: rgb(0,0,0)" />
	<circle cx="308.372415313101" cy="-122.072042651432" r="2" style="fill: rgb(0,0,0)" />
	<circle cx="332.971373859282" cy="-53.5" r="2" style="fill: rgb(0,0,0)" />
	<circle cx="401.474733119841" cy="-92.291162738336" r="2" style="fill: rgb(0,0,0)" />
	<circle cx="482.720893531312" cy="-719.535535220204" r="2" style="fill: rgb(0,0,0)" />
	<circle cx="426.361580653657" cy="-774.5" r="2" style="fill: rgb(0,0,0)" />
	<circle cx="385.103454049971" cy="-714.458341261213" r="2" style="fill: rgb(0,0,0)" />
	<!--
	Generated using the Perl SVG Module V2.84
	by Ronan Oger
	Info: http://www.roitsystems.com/
	-->
</svg>