<?xml version="1.0" encoding="UTF-8" standalone="yes"?>
<!DOCTYPE svg PUBLIC "-//W3C//DTD SVG 1.0//EN" "http://www.w3.org/TR/2001/REC-SVG-20010904/DTD/svg10.dtd">
<!-- generated using polymake; Michael Joswig, Georg Loho, Benjamin Lorenz, Rico Raber; license CC BY-NC-ND 3.0; see polymake.org and matchthenet.de -->
<svg height="841pt" id="document" viewBox="0 -811 544.279571115398 811" width="595pt" xmlns="http://www.w3.org/2000/svg" xmlns:svg="http://www.w3.org/2000/svg" xmlns:xlink="http://www.w3.org/1999/xlink">
	<title id="document_title">planar_net_</title>
	<polygon points="246.525302877121,-411.841123624243 320.754268238272,-411.841123624243 343.692280009741,-482.437064828816 283.639785557704,-526.067755961033 223.58729110566,-482.437064828818 " style="fill: rgb(255,210,63); fill-opacity: 1; stroke: rgb(0,0,0); stroke-width: 3" />
	<polygon points="283.639785557697,-347.556953924851 320.754268238272,-411.841123624243 246.525302877121,-411.841123624243 " style="fill: rgb(14,173,105); fill-opacity: 1; stroke: rgb(0,0,0); stroke-width: 3" />
	<polygon points="223.58729110566,-482.437064828818 283.639785557704,-526.067755961033 215.828251426515,-556.259396151018 " style="fill: rgb(14,173,105); fill-opacity: 1; stroke: rgb(0,0,0); stroke-width: 3" />
	<polygon points="393.361152611234,-396.408053928348 320.754268238272,-411.841123624243 283.639785557697,-347.556953924851 333.308658159198,-292.394082416166 401.120192290387,-322.585722606146 " style="fill: rgb(255,210,63); fill-opacity: 1; stroke: rgb(0,0,0); stroke-width: 3" />
	<polygon points="333.308658159198,-292.394082416166 283.639785557697,-347.556953924851 260.701773786231,-276.961012720281 " style="fill: rgb(14,173,105); fill-opacity: 1; stroke: rgb(0,0,0); stroke-width: 3" />
	<polygon points="283.639785557704,-526.067755961033 333.308658159206,-581.23062746972 296.194175478637,-645.514797169111 223.587291105671,-630.081727473214 215.828251426515,-556.259396151018 " style="fill: rgb(255,210,63); fill-opacity: 1; stroke: rgb(0,0,0); stroke-width: 3" />
	<polygon points="215.828251426515,-556.259396151018 223.587291105671,-630.081727473214 155.775756974478,-599.890087283237 " style="fill: rgb(14,173,105); fill-opacity: 1; stroke: rgb(0,0,0); stroke-width: 3" />
	<polygon points="343.692280009741,-482.437064828816 320.754268238272,-411.841123624243 393.361152611236,-427.27419332013 " style="fill: rgb(14,173,105); fill-opacity: 1; stroke: rgb(0,0,0); stroke-width: 3" />
	<polygon points="283.639785557704,-526.067755961033 343.692280009741,-482.437064828816 351.451319688895,-556.259396151014 " style="fill: rgb(14,173,105); fill-opacity: 1; stroke: rgb(0,0,0); stroke-width: 3" />
	<polygon points="401.120192290387,-322.585722606146 333.308658159198,-292.394082416166 393.361152611237,-248.763391283949 " style="fill: rgb(14,173,105); fill-opacity: 1; stroke: rgb(0,0,0); stroke-width: 3" />
	<polygon points="320.754268238264,-172.947041208084 283.639785557693,-108.662871508677 333.308658159185,-53.5 401.120192290369,-83.6916401900019 393.361152611228,-157.513971512195 " style="fill: rgb(255,210,63); fill-opacity: 1; stroke: rgb(0,0,0); stroke-width: 3" />
	<polygon points="393.361152611234,-396.408053928348 401.120192290387,-322.585722606146 461.172686742427,-366.216413738362 " style="fill: rgb(14,173,105); fill-opacity: 1; stroke: rgb(0,0,0); stroke-width: 3" />
	<polygon points="333.308658159206,-581.23062746972 370.423140839787,-645.51479716911 296.194175478637,-645.514797169111 " style="fill: rgb(14,173,105); fill-opacity: 1; stroke: rgb(0,0,0); stroke-width: 3" />
	<polygon points="401.120192290387,-322.585722606146 393.361152611237,-248.763391283949 461.172686742435,-218.571751093954 510.841559343934,-273.73462260263 473.72707666335,-338.018792302031 " style="fill: rgb(255,210,63); fill-opacity: 1; stroke: rgb(0,0,0); stroke-width: 3" />
	<polygon points="370.423140839787,-645.51479716911 393.361152611258,-716.110738373694 333.308658159222,-759.741429505907 273.256163707175,-716.110738373679 296.194175478637,-645.514797169111 " style="fill: rgb(255,210,63); fill-opacity: 1; stroke: rgb(0,0,0); stroke-width: 3" />
	<polygon points="453.413647063296,-531.28816483231 461.172686742437,-457.465833510112 521.225181194483,-501.09652464232 " style="fill: rgb(14,173,105); fill-opacity: 1; stroke: rgb(0,0,0); stroke-width: 3" />
	<polygon points="510.841559343934,-273.73462260263 461.172686742435,-218.571751093954 533.779571115398,-203.138681398059 " style="fill: rgb(14,173,105); fill-opacity: 1; stroke: rgb(0,0,0); stroke-width: 3" />
	<polygon points="215.828251426529,-703.904058795426 192.890239655073,-774.5 143.221367053571,-719.337128491325 " style="fill: rgb(14,173,105); fill-opacity: 1; stroke: rgb(0,0,0); stroke-width: 3" />
	<polygon points="370.423140839765,-228.109912716771 320.754268238264,-172.947041208084 393.361152611228,-157.513971512195 " style="fill: rgb(14,173,105); fill-opacity: 1; stroke: rgb(0,0,0); stroke-width: 3" />
	<polygon points="223.587291105671,-630.081727473214 296.194175478637,-645.514797169111 246.525302877134,-700.677668677788 " style="fill: rgb(14,173,105); fill-opacity: 1; stroke: rgb(0,0,0); stroke-width: 3" />
	<polygon points="343.692280009741,-482.437064828816 393.361152611236,-427.27419332013 461.172686742437,-457.465833510112 453.413647063296,-531.28816483231 380.806762690324,-546.721234528203 " style="fill: rgb(255,210,63); fill-opacity: 1; stroke: rgb(0,0,0); stroke-width: 3" />
	<polygon points="56.4380117714556,-273.734622602655 33.5,-203.138681398081 106.106884372961,-218.571751093982 " style="fill: rgb(14,173,105); fill-opacity: 1; stroke: rgb(0,0,0); stroke-width: 3" />
	<polygon points="320.754268238264,-172.947041208084 252.942734107078,-203.138681398074 260.701773786221,-129.316350075874 " style="fill: rgb(14,173,105); fill-opacity: 1; stroke: rgb(0,0,0); stroke-width: 3" />
	<polygon points="223.587291105671,-630.081727473214 215.828251426529,-703.904058795426 143.221367053571,-719.337128491325 106.106884372991,-655.052958791922 155.775756974478,-599.890087283237 " style="fill: rgb(255,210,63); fill-opacity: 1; stroke: rgb(0,0,0); stroke-width: 3" />
	<polygon points="333.308658159198,-292.394082416166 260.701773786231,-276.961012720281 252.942734107078,-203.138681398074 320.754268238264,-172.947041208084 370.423140839765,-228.109912716771 " style="fill: rgb(255,210,63); fill-opacity: 1; stroke: rgb(0,0,0); stroke-width: 3" />
	<polygon points="106.106884372967,-507.408296147529 143.221367053549,-571.69246584692 68.9924016923972,-571.692465846927 " style="fill: rgb(14,173,105); fill-opacity: 1; stroke: rgb(0,0,0); stroke-width: 3" />
	<polygon points="233.970912956192,-292.394082416174 166.159378825002,-322.585722606157 173.918418504152,-248.763391283959 " style="fill: rgb(14,173,105); fill-opacity: 1; stroke: rgb(0,0,0); stroke-width: 3" />
	<polygon points="93.5524944520323,-338.018792302041 56.4380117714556,-273.734622602655 106.106884372961,-218.571751093982 173.918418504152,-248.763391283959 166.159378825002,-322.585722606157 " style="fill: rgb(255,210,63); fill-opacity: 1; stroke: rgb(0,0,0); stroke-width: 3" />
	<polygon points="173.918418504156,-396.408053928353 106.106884372964,-366.216413738373 166.159378825002,-322.585722606157 " style="fill: rgb(14,173,105); fill-opacity: 1; stroke: rgb(0,0,0); stroke-width: 3" />
	<polygon points="246.525302877121,-411.841123624243 223.58729110566,-482.437064828818 173.918418504158,-427.274193320141 " style="fill: rgb(14,173,105); fill-opacity: 1; stroke: rgb(0,0,0); stroke-width: 3" />
	<polygon points="223.58729110566,-482.437064828818 215.828251426515,-556.259396151018 143.221367053549,-571.69246584692 106.106884372967,-507.408296147529 155.775756974465,-452.245424638837 " style="fill: rgb(255,210,63); fill-opacity: 1; stroke: rgb(0,0,0); stroke-width: 3" />
	<polygon points="246.525302877121,-411.841123624243 173.918418504156,-396.408053928353 166.159378825002,-322.585722606157 233.970912956192,-292.394082416174 283.639785557697,-347.556953924851 " style="fill: rgb(255,210,63); fill-opacity: 1; stroke: rgb(0,0,0); stroke-width: 3" />
	<circle cx="246.525302877121" cy="-411.841123624243" r="2" style="fill: rgb(0,0,0)" />
	<circle cx="320.754268238272" cy="-411.841123624243" r="2" style="fill: rgb(0,0,0)" />
	<circle cx="343.692280009741" cy="-482.437064828816" r="2" style="fill: rgb(0,0,0)" />
	<circle cx="283.639785557704" cy="-526.067755961033" r="2" style="fill: rgb(0,0,0)" />
	<circle cx="223.58729110566" cy="-482.437064828818" r="2" style="fill: rgb(0,0,0)" />
	<circle cx="283.639785557697" cy="-347.556953924851" r="2" style="fill: rgb(0,0,0)" />
	<circle cx="215.828251426515" cy="-556.259396151018" r="2" style="fill: rgb(0,0,0)" />
	<circle cx="393.361152611236" cy="-427.27419332013" r="2" style="fill: rgb(0,0,0)" />
	<circle cx="351.451319688895" cy="-556.259396151014" r="2" style="fill: rgb(0,0,0)" />
	<circle cx="173.918418504158" cy="-427.274193320141" r="2" style="fill: rgb(0,0,0)" />
	<circle cx="333.308658159198" cy="-292.394082416166" r="2" style="fill: rgb(0,0,0)" />
	<circle cx="401.120192290387" cy="-322.585722606146" r="2" style="fill: rgb(0,0,0)" />
	<circle cx="393.361152611234" cy="-396.408053928348" r="2" style="fill: rgb(0,0,0)" />
	<circle cx="173.918418504156" cy="-396.408053928353" r="2" style="fill: rgb(0,0,0)" />
	<circle cx="166.159378825002" cy="-322.585722606157" r="2" style="fill: rgb(0,0,0)" />
	<circle cx="233.970912956192" cy="-292.394082416174" r="2" style="fill: rgb(0,0,0)" />
	<circle cx="333.308658159206" cy="-581.23062746972" r="2" style="fill: rgb(0,0,0)" />
	<circle cx="296.194175478637" cy="-645.514797169111" r="2" style="fill: rgb(0,0,0)" />
	<circle cx="223.587291105671" cy="-630.081727473214" r="2" style="fill: rgb(0,0,0)" />
	<circle cx="143.221367053549" cy="-571.69246584692" r="2" style="fill: rgb(0,0,0)" />
	<circle cx="106.106884372967" cy="-507.408296147529" r="2" style="fill: rgb(0,0,0)" />
	<circle cx="155.775756974465" cy="-452.245424638837" r="2" style="fill: rgb(0,0,0)" />
	<circle cx="461.172686742437" cy="-457.465833510112" r="2" style="fill: rgb(0,0,0)" />
	<circle cx="453.413647063296" cy="-531.28816483231" r="2" style="fill: rgb(0,0,0)" />
	<circle cx="380.806762690324" cy="-546.721234528203" r="2" style="fill: rgb(0,0,0)" />
	<circle cx="260.701773786231" cy="-276.961012720281" r="2" style="fill: rgb(0,0,0)" />
	<circle cx="393.361152611237" cy="-248.763391283949" r="2" style="fill: rgb(0,0,0)" />
	<circle cx="461.172686742427" cy="-366.216413738362" r="2" style="fill: rgb(0,0,0)" />
	<circle cx="173.918418504152" cy="-248.763391283959" r="2" style="fill: rgb(0,0,0)" />
	<circle cx="106.106884372964" cy="-366.216413738373" r="2" style="fill: rgb(0,0,0)" />
	<circle cx="155.775756974478" cy="-599.890087283237" r="2" style="fill: rgb(0,0,0)" />
	<circle cx="370.423140839787" cy="-645.51479716911" r="2" style="fill: rgb(0,0,0)" />
	<circle cx="246.525302877134" cy="-700.677668677788" r="2" style="fill: rgb(0,0,0)" />
	<circle cx="68.9924016923972" cy="-571.692465846927" r="2" style="fill: rgb(0,0,0)" />
	<circle cx="521.225181194483" cy="-501.09652464232" r="2" style="fill: rgb(0,0,0)" />
	<circle cx="252.942734107078" cy="-203.138681398074" r="2" style="fill: rgb(0,0,0)" />
	<circle cx="320.754268238264" cy="-172.947041208084" r="2" style="fill: rgb(0,0,0)" />
	<circle cx="370.423140839765" cy="-228.109912716771" r="2" style="fill: rgb(0,0,0)" />
	<circle cx="461.172686742435" cy="-218.571751093954" r="2" style="fill: rgb(0,0,0)" />
	<circle cx="510.841559343934" cy="-273.73462260263" r="2" style="fill: rgb(0,0,0)" />
	<circle cx="473.72707666335" cy="-338.018792302031" r="2" style="fill: rgb(0,0,0)" />
	<circle cx="93.5524944520323" cy="-338.018792302041" r="2" style="fill: rgb(0,0,0)" />
	<circle cx="56.4380117714556" cy="-273.734622602655" r="2" style="fill: rgb(0,0,0)" />
	<circle cx="106.106884372961" cy="-218.571751093982" r="2" style="fill: rgb(0,0,0)" />
	<circle cx="215.828251426529" cy="-703.904058795426" r="2" style="fill: rgb(0,0,0)" />
	<circle cx="143.221367053571" cy="-719.337128491325" r="2" style="fill: rgb(0,0,0)" />
	<circle cx="106.106884372991" cy="-655.052958791922" r="2" style="fill: rgb(0,0,0)" />
	<circle cx="393.361152611258" cy="-716.110738373694" r="2" style="fill: rgb(0,0,0)" />
	<circle cx="333.308658159222" cy="-759.741429505907" r="2" style="fill: rgb(0,0,0)" />
	<circle cx="273.256163707175" cy="-716.110738373679" r="2" style="fill: rgb(0,0,0)" />
	<circle cx="393.361152611228" cy="-157.513971512195" r="2" style="fill: rgb(0,0,0)" />
	<circle cx="260.701773786221" cy="-129.316350075874" r="2" style="fill: rgb(0,0,0)" />
	<circle cx="533.779571115398" cy="-203.138681398059" r="2" style="fill: rgb(0,0,0)" />
	<circle cx="33.5" cy="-203.138681398081" r="2" style="fill: rgb(0,0,0)" />
	<circle cx="192.890239655073" cy="-774.5" r="2" style="fill: rgb(0,0,0)" />
	<circle cx="283.639785557693" cy="-108.662871508677" r="2" style="fill: rgb(0,0,0)" />
	<circle cx="333.308658159185" cy="-53.5" r="2" style="fill: rgb(0,0,0)" />
	<circle cx="401.120192290369" cy="-83.6916401900019" r="2" style="fill: rgb(0,0,0)" />
	<!--
	Generated using the Perl SVG Module V2.86
	by Ronan Oger
	Info: http://www.roitsystems.com/
	-->
</svg>