<?xml version="1.0" encoding="UTF-8" standalone="yes"?>
<!DOCTYPE svg PUBLIC "-//W3C//DTD SVG 1.0//EN" "http://www.w3.org/TR/2001/REC-SVG-20010904/DTD/svg10.dtd">
<!-- generated using polymake; Michael Joswig, Georg Loho, Benjamin Lorenz, Rico Raber; license CC BY-NC-ND 3.0; see polymake.org and matchthenet.de -->
<svg height="841pt" id="document" viewBox="0 -811 434.739773238594 811" width="595pt" xmlns="http://www.w3.org/2000/svg" xmlns:svg="http://www.w3.org/2000/svg" xmlns:xlink="http://www.w3.org/1999/xlink">
	<title id="document_title">planar_net_</title>
	<polygon points="176.520683274301,-414.000000000004 281.219089964291,-414.000000000004 228.869886619285,-504.67147992929 " style="fill: rgb(14,173,105); fill-opacity: 1; stroke: rgb(0,0,0); stroke-width: 3" />
	<polygon points="228.869886619308,-323.328520070718 281.219089964291,-414.000000000004 176.520683274301,-414.000000000004 " style="fill: rgb(14,173,105); fill-opacity: 1; stroke: rgb(0,0,0); stroke-width: 3" />
	<polygon points="228.869886619285,-504.67147992929 319.541366548587,-557.020683274287 297.773343787758,-659.431178578762 193.648485924376,-670.375142136635 151.063807451884,-574.728388282564 " style="fill: rgb(14,173,105); fill-opacity: 1; stroke: rgb(0,0,0); stroke-width: 3" />
	<polygon points="228.869886619285,-504.67147992929 281.219089964291,-414.000000000004 371.890569893581,-466.349203345007 319.541366548587,-557.020683274287 " style="fill: rgb(14,173,105); fill-opacity: 1; stroke: rgb(0,0,0); stroke-width: 3" />
	<polygon points="193.648485924376,-670.375142136635 297.773343787758,-659.431178578762 308.717307345634,-763.556036442136 204.592449482259,-774.5 " style="fill: rgb(14,173,105); fill-opacity: 1; stroke: rgb(0,0,0); stroke-width: 3" />
	<polygon points="319.541366548587,-557.020683274287 421.951861853062,-578.788706035113 400.183839092235,-681.199201339569 297.773343787758,-659.431178578762 " style="fill: rgb(14,173,105); fill-opacity: 1; stroke: rgb(0,0,0); stroke-width: 3" />
	<polygon points="319.541366548587,-557.020683274287 371.890569893581,-466.349203345007 424.239773238575,-557.020683274294 " style="fill: rgb(14,173,105); fill-opacity: 1; stroke: rgb(0,0,0); stroke-width: 3" />
	<polygon points="319.541366548601,-270.979316725728 319.541366548603,-166.280910035733 424.23977323859,-166.28091003572 424.239773238594,-270.979316725725 " style="fill: rgb(14,173,105); fill-opacity: 1; stroke: rgb(0,0,0); stroke-width: 3" />
	<polygon points="297.773343787758,-659.431178578762 393.420097641821,-702.015857051232 308.717307345634,-763.556036442136 " style="fill: rgb(14,173,105); fill-opacity: 1; stroke: rgb(0,0,0); stroke-width: 3" />
	<polygon points="319.541366548603,-166.280910035733 371.890569893596,-75.6094301064411 424.23977323859,-166.28091003572 " style="fill: rgb(14,173,105); fill-opacity: 1; stroke: rgb(0,0,0); stroke-width: 3" />
	<polygon points="371.890569893589,-361.650796655003 319.541366548601,-270.979316725728 424.239773238594,-270.979316725725 " style="fill: rgb(14,173,105); fill-opacity: 1; stroke: rgb(0,0,0); stroke-width: 3" />
	<polygon points="297.773343787768,-168.568821421263 193.648485924404,-157.624857863372 204.592449482292,-53.5 308.717307345643,-64.4439635578972 " style="fill: rgb(14,173,105); fill-opacity: 1; stroke: rgb(0,0,0); stroke-width: 3" />
	<polygon points="193.648485924404,-157.624857863372 108.945695628225,-96.084678472468 204.592449482292,-53.5 " style="fill: rgb(14,173,105); fill-opacity: 1; stroke: rgb(0,0,0); stroke-width: 3" />
	<polygon points="193.648485924376,-670.375142136635 204.592449482259,-774.5 108.945695628199,-731.915321527536 " style="fill: rgb(14,173,105); fill-opacity: 1; stroke: rgb(0,0,0); stroke-width: 3" />
	<polygon points="371.890569893589,-361.650796655003 281.219089964291,-414.000000000004 228.869886619308,-323.328520070718 319.541366548601,-270.979316725728 " style="fill: rgb(14,173,105); fill-opacity: 1; stroke: rgb(0,0,0); stroke-width: 3" />
	<polygon points="319.541366548601,-270.979316725728 228.869886619308,-323.328520070718 151.063807451922,-253.271611717426 193.648485924404,-157.624857863372 297.773343787768,-168.568821421263 " style="fill: rgb(14,173,105); fill-opacity: 1; stroke: rgb(0,0,0); stroke-width: 3" />
	<polygon points="193.648485924404,-157.624857863372 151.063807451922,-253.271611717426 55.4170535978632,-210.686933244946 98.0017320703335,-115.04017939091 " style="fill: rgb(14,173,105); fill-opacity: 1; stroke: rgb(0,0,0); stroke-width: 3" />
	<polygon points="151.063807451884,-574.728388282564 193.648485924376,-670.375142136635 98.0017320703224,-712.959820609126 55.4170535978268,-617.313066755056 " style="fill: rgb(14,173,105); fill-opacity: 1; stroke: rgb(0,0,0); stroke-width: 3" />
	<polygon points="85.8492033450066,-466.349203345005 138.198406689993,-557.02068327428 33.5,-557.020683274284 " style="fill: rgb(14,173,105); fill-opacity: 1; stroke: rgb(0,0,0); stroke-width: 3" />
	<polygon points="85.8492033450142,-361.650796655001 33.5000000000162,-270.979316725716 138.198406690002,-270.979316725721 " style="fill: rgb(14,173,105); fill-opacity: 1; stroke: rgb(0,0,0); stroke-width: 3" />
	<polygon points="176.520683274301,-414.000000000004 85.8492033450142,-361.650796655001 138.198406690002,-270.979316725721 228.869886619308,-323.328520070718 " style="fill: rgb(14,173,105); fill-opacity: 1; stroke: rgb(0,0,0); stroke-width: 3" />
	<polygon points="176.520683274301,-414.000000000004 228.869886619285,-504.67147992929 138.198406689993,-557.02068327428 85.8492033450066,-466.349203345005 " style="fill: rgb(14,173,105); fill-opacity: 1; stroke: rgb(0,0,0); stroke-width: 3" />
	<circle cx="176.520683274301" cy="-414.000000000004" r="2" style="fill: rgb(0,0,0)" />
	<circle cx="281.219089964291" cy="-414.000000000004" r="2" style="fill: rgb(0,0,0)" />
	<circle cx="228.869886619285" cy="-504.67147992929" r="2" style="fill: rgb(0,0,0)" />
	<circle cx="228.869886619308" cy="-323.328520070718" r="2" style="fill: rgb(0,0,0)" />
	<circle cx="371.890569893581" cy="-466.349203345007" r="2" style="fill: rgb(0,0,0)" />
	<circle cx="319.541366548587" cy="-557.020683274287" r="2" style="fill: rgb(0,0,0)" />
	<circle cx="138.198406689993" cy="-557.02068327428" r="2" style="fill: rgb(0,0,0)" />
	<circle cx="85.8492033450066" cy="-466.349203345005" r="2" style="fill: rgb(0,0,0)" />
	<circle cx="319.541366548601" cy="-270.979316725728" r="2" style="fill: rgb(0,0,0)" />
	<circle cx="371.890569893589" cy="-361.650796655003" r="2" style="fill: rgb(0,0,0)" />
	<circle cx="85.8492033450142" cy="-361.650796655001" r="2" style="fill: rgb(0,0,0)" />
	<circle cx="138.198406690002" cy="-270.979316725721" r="2" style="fill: rgb(0,0,0)" />
	<circle cx="297.773343787758" cy="-659.431178578762" r="2" style="fill: rgb(0,0,0)" />
	<circle cx="193.648485924376" cy="-670.375142136635" r="2" style="fill: rgb(0,0,0)" />
	<circle cx="151.063807451884" cy="-574.728388282564" r="2" style="fill: rgb(0,0,0)" />
	<circle cx="424.239773238575" cy="-557.020683274294" r="2" style="fill: rgb(0,0,0)" />
	<circle cx="33.5" cy="-557.020683274284" r="2" style="fill: rgb(0,0,0)" />
	<circle cx="424.239773238594" cy="-270.979316725725" r="2" style="fill: rgb(0,0,0)" />
	<circle cx="151.063807451922" cy="-253.271611717426" r="2" style="fill: rgb(0,0,0)" />
	<circle cx="193.648485924404" cy="-157.624857863372" r="2" style="fill: rgb(0,0,0)" />
	<circle cx="297.773343787768" cy="-168.568821421263" r="2" style="fill: rgb(0,0,0)" />
	<circle cx="33.5000000000162" cy="-270.979316725716" r="2" style="fill: rgb(0,0,0)" />
	<circle cx="308.717307345634" cy="-763.556036442136" r="2" style="fill: rgb(0,0,0)" />
	<circle cx="204.592449482259" cy="-774.5" r="2" style="fill: rgb(0,0,0)" />
	<circle cx="421.951861853062" cy="-578.788706035113" r="2" style="fill: rgb(0,0,0)" />
	<circle cx="400.183839092235" cy="-681.199201339569" r="2" style="fill: rgb(0,0,0)" />
	<circle cx="98.0017320703224" cy="-712.959820609126" r="2" style="fill: rgb(0,0,0)" />
	<circle cx="55.4170535978268" cy="-617.313066755056" r="2" style="fill: rgb(0,0,0)" />
	<circle cx="319.541366548603" cy="-166.280910035733" r="2" style="fill: rgb(0,0,0)" />
	<circle cx="424.23977323859" cy="-166.28091003572" r="2" style="fill: rgb(0,0,0)" />
	<circle cx="204.592449482292" cy="-53.5" r="2" style="fill: rgb(0,0,0)" />
	<circle cx="308.717307345643" cy="-64.4439635578972" r="2" style="fill: rgb(0,0,0)" />
	<circle cx="55.4170535978632" cy="-210.686933244946" r="2" style="fill: rgb(0,0,0)" />
	<circle cx="98.0017320703335" cy="-115.04017939091" r="2" style="fill: rgb(0,0,0)" />
	<circle cx="393.420097641821" cy="-702.015857051232" r="2" style="fill: rgb(0,0,0)" />
	<circle cx="108.945695628199" cy="-731.915321527536" r="2" style="fill: rgb(0,0,0)" />
	<circle cx="371.890569893596" cy="-75.6094301064411" r="2" style="fill: rgb(0,0,0)" />
	<circle cx="108.945695628225" cy="-96.084678472468" r="2" style="fill: rgb(0,0,0)" />
	<!--
	Generated using the Perl SVG Module V2.87
	by Ronan Oger

	-->
</svg>