<?xml version="1.0" encoding="UTF-8" standalone="yes"?>
<!DOCTYPE svg PUBLIC "-//W3C//DTD SVG 1.0//EN" "http://www.w3.org/TR/2001/REC-SVG-20010904/DTD/svg10.dtd">
<!-- generated using polymake; Michael Joswig, Georg Loho, Benjamin Lorenz, Rico Raber; license CC BY-NC-ND 3.0; see polymake.org and matchthenet.de -->
<svg height="841pt" id="document" viewBox="0 -718.562359248663 572 718.562359248663" width="595pt" xmlns="http://www.w3.org/2000/svg" xmlns:svg="http://www.w3.org/2000/svg" xmlns:xlink="http://www.w3.org/1999/xlink">
	<title id="document_title">planar_net_</title>
	<polygon points="282.406382503283,-378.915067294294 345.407737459204,-378.915067294294 320.427963479009,-436.75261235095 250.744548614479,-441.14530366681 " style="fill: rgb(157,116,59); fill-opacity: 1; stroke: rgb(0,0,0); stroke-width: 3" />
	<polygon points="282.406382503283,-378.915067294294 250.744548614464,-316.684830921795 320.427963478992,-321.077522237634 345.407737459204,-378.915067294294 " style="fill: rgb(157,116,59); fill-opacity: 1; stroke: rgb(0,0,0); stroke-width: 3" />
	<polygon points="320.427963479009,-436.75261235095 345.407737459204,-378.915067294294 388.600340411678,-424.779757159945 365.003808676396,-490.493361034979 " style="fill: rgb(157,116,59); fill-opacity: 1; stroke: rgb(0,0,0); stroke-width: 3" />
	<polygon points="282.406382503283,-378.915067294294 250.744548614479,-441.14530366681 206.168908085486,-383.429964256669 243.620885582358,-320.856826942223 " style="fill: rgb(157,116,59); fill-opacity: 1; stroke: rgb(0,0,0); stroke-width: 3" />
	<polygon points="388.600340411665,-333.050377428619 345.407737459204,-378.915067294294 320.427963478992,-321.077522237634 365.003808676347,-267.336773553587 " style="fill: rgb(157,116,59); fill-opacity: 1; stroke: rgb(0,0,0); stroke-width: 3" />
	<polygon points="250.744548614479,-441.14530366681 320.427963479009,-436.75261235095 358.349261317,-495.378964910719 286.055283117186,-504.951260760775 " style="fill: rgb(157,116,59); fill-opacity: 1; stroke: rgb(0,0,0); stroke-width: 3" />
	<polygon points="388.600340411678,-424.779757159945 345.407737459204,-378.915067294294 404.638884608244,-357.447837997267 455.610447009407,-405.165485367641 " style="fill: rgb(157,116,59); fill-opacity: 1; stroke: rgb(0,0,0); stroke-width: 3" />
	<polygon points="206.168908085486,-383.429964256669 250.744548614479,-441.14530366681 210.280018608501,-453.675875915979 181.558247203459,-423.951859650962 195.131652506123,-384.910599885741 " style="fill: rgb(42,107,61); fill-opacity: 1; stroke: rgb(0,0,0); stroke-width: 3" />
	<polygon points="320.427963478992,-321.077522237634 250.744548614464,-316.684830921795 286.05528311715,-252.878873827815 358.34926131696,-262.451169677835 " style="fill: rgb(157,116,59); fill-opacity: 1; stroke: rgb(0,0,0); stroke-width: 3" />
	<polygon points="250.744548614479,-441.14530366681 286.055283117186,-504.951260760775 280.319779811011,-514.496798692983 239.096678829153,-511.477984189636 223.197008533404,-473.324900696257 " style="fill: rgb(42,107,61); fill-opacity: 1; stroke: rgb(0,0,0); stroke-width: 3" />
	<polygon points="243.620885582358,-320.856826942223 206.168908085486,-383.429964256669 195.034043334463,-383.262394668847 176.947512003074,-346.096083579838 201.960225456152,-313.189830963038 " style="fill: rgb(42,107,61); fill-opacity: 1; stroke: rgb(0,0,0); stroke-width: 3" />
	<polygon points="365.003808676396,-490.493361034979 388.600340411678,-424.779757159945 457.457109599367,-413.211724431201 437.580566564484,-483.375612356394 " style="fill: rgb(157,116,59); fill-opacity: 1; stroke: rgb(0,0,0); stroke-width: 3" />
	<polygon points="250.744548614464,-316.684830921795 223.197008533381,-284.505233892349 239.096678829122,-246.352150398966 280.319779810976,-243.333335895613 286.05528311715,-252.878873827815 " style="fill: rgb(42,107,61); fill-opacity: 1; stroke: rgb(0,0,0); stroke-width: 3" />
	<polygon points="286.055283117186,-504.951260760775 358.349261317,-495.378964910719 348.869566017756,-536.664904484985 308.742987806428,-546.580297397835 281.794190774291,-515.239913959107 " style="fill: rgb(42,107,61); fill-opacity: 1; stroke: rgb(0,0,0); stroke-width: 3" />
	<polygon points="457.457109599375,-344.618410157319 388.600340411665,-333.050377428619 365.003808676347,-267.336773553587 437.580566564443,-274.454522232131 " style="fill: rgb(157,116,59); fill-opacity: 1; stroke: rgb(0,0,0); stroke-width: 3" />
	<polygon points="365.003808676396,-490.493361034979 437.580566564484,-483.375612356394 444.069615955234,-492.42577979102 424.953446692094,-529.073144884148 383.623369620454,-528.542084794738 " style="fill: rgb(42,107,61); fill-opacity: 1; stroke: rgb(0,0,0); stroke-width: 3" />
	<polygon points="286.05528311715,-252.878873827815 281.794190774256,-242.590220629476 308.742987806377,-211.249837190739 348.869566017699,-221.165230103577 358.34926131696,-262.451169677835 " style="fill: rgb(42,107,61); fill-opacity: 1; stroke: rgb(0,0,0); stroke-width: 3" />
	<polygon points="437.580566564443,-274.454522232131 365.003808676347,-267.336773553587 383.623369620393,-229.288049793814 424.953446692033,-228.756989704389 444.069615955184,-265.40435479751 " style="fill: rgb(42,107,61); fill-opacity: 1; stroke: rgb(0,0,0); stroke-width: 3" />
	<polygon points="437.580566564484,-483.375612356394 457.457109599367,-413.211724431201 491.600450577695,-438.284133496431 484.793122858055,-479.053209827437 445.336420698705,-491.36685876974 " style="fill: rgb(42,107,61); fill-opacity: 1; stroke: rgb(0,0,0); stroke-width: 3" />
	<polygon points="457.457109599375,-344.618410157319 437.580566564443,-274.454522232131 445.336420698672,-266.463275818777 484.793122858027,-278.776924761068 491.600450577683,-319.546001092075 " style="fill: rgb(42,107,61); fill-opacity: 1; stroke: rgb(0,0,0); stroke-width: 3" />
	<polygon points="210.280018608501,-453.675875915979 196.706613305837,-492.717135681205 154.722419781075,-498.349268809216 170.920497086586,-427.246031024967 181.558247203459,-423.951859650962 " style="fill: rgb(42,107,61); fill-opacity: 1; stroke: rgb(0,0,0); stroke-width: 3" />
	<polygon points="280.319779811011,-514.496798692983 296.219450106761,-552.649882186361 288.977456991465,-561.109600166787 217.27961760078,-547.787890122503 239.096678829153,-511.477984189636 " style="fill: rgb(42,107,61); fill-opacity: 1; stroke: rgb(0,0,0); stroke-width: 3" />
	<polygon points="195.131652506123,-384.910599885741 181.558247203459,-423.951859650962 170.520991624091,-425.432495280041 125.94535109509,-367.717155869935 166.409881101076,-355.18658362075 " style="fill: rgb(42,107,61); fill-opacity: 1; stroke: rgb(0,0,0); stroke-width: 3" />
	<polygon points="201.960225456152,-313.189830963038 176.947512003074,-346.096083579838 135.286851876865,-338.429087600654 172.738829373728,-275.855950286213 183.873694124751,-276.023519874035 " style="fill: rgb(42,107,61); fill-opacity: 1; stroke: rgb(0,0,0); stroke-width: 3" />
	<polygon points="308.742987806428,-546.580297397835 348.869566017756,-536.664904484985 375.8183630499,-568.005287923714 359.609757181864,-607.141901539492 306.250863722387,-557.43398848152 " style="fill: rgb(42,107,61); fill-opacity: 1; stroke: rgb(0,0,0); stroke-width: 3" />
	<polygon points="444.069615955234,-492.42577979102 485.399693026874,-492.956839880429 490.294603126649,-502.95949691271 449.636892993942,-563.498729965014 424.953446692094,-529.073144884148 " style="fill: rgb(42,107,61); fill-opacity: 1; stroke: rgb(0,0,0); stroke-width: 3" />
	<polygon points="239.096678829122,-246.352150398966 233.361175522943,-236.806612466759 268.671910025592,-173.000655372789 296.219450106691,-205.180252402237 280.319779810976,-243.333335895613 " style="fill: rgb(42,107,61); fill-opacity: 1; stroke: rgb(0,0,0); stroke-width: 3" />
	<polygon points="375.818363049816,-189.824846664832 348.869566017699,-221.165230103577 308.742987806377,-211.249837190739 299.263292507119,-169.963897616477 371.557270706921,-179.536193466493 " style="fill: rgb(42,107,61); fill-opacity: 1; stroke: rgb(0,0,0); stroke-width: 3" />
	<polygon points="484.793122858055,-479.053209827437 491.600450577695,-438.284133496431 531.057152737047,-425.970484554122 560.559349055683,-456.3680805425 493.76909093254,-485.644513925727 " style="fill: rgb(42,107,61); fill-opacity: 1; stroke: rgb(0,0,0); stroke-width: 3" />
	<polygon points="444.069615955184,-265.40435479751 424.953446692033,-228.756989704389 431.44249608278,-219.706822269758 504.019253970849,-226.824570948279 485.399693026807,-264.873294708067 " style="fill: rgb(42,107,61); fill-opacity: 1; stroke: rgb(0,0,0); stroke-width: 3" />
	<polygon points="170.920497086586,-427.246031024967 154.722419781075,-498.349268809216 99.8427666418928,-455.183336460853 110.64257662868,-386.201903100639 " style="fill: rgb(157,116,59); fill-opacity: 1; stroke: rgb(0,0,0); stroke-width: 3" />
	<polygon points="172.738829373728,-275.855950286213 135.286851876865,-338.429087600654 96.5013549559286,-280.3708472486 128.163188844703,-218.140610876094 " style="fill: rgb(157,116,59); fill-opacity: 1; stroke: rgb(0,0,0); stroke-width: 3" />
	<polygon points="371.557270706921,-179.536193466493 299.263292507119,-169.963897616477 337.184590345076,-111.337545056675 406.868005209581,-115.730236372498 " style="fill: rgb(157,116,59); fill-opacity: 1; stroke: rgb(0,0,0); stroke-width: 3" />
	<polygon points="490.294603126649,-502.95949691271 561.5,-518.70241874786 518.6859979088,-573.857067410627 449.636892993942,-563.498729965014 " style="fill: rgb(157,116,59); fill-opacity: 1; stroke: rgb(0,0,0); stroke-width: 3" />
	<polygon points="288.977456991465,-561.109600166787 302.757522034672,-632.720758090701 235.147967041406,-615.284528056906 217.27961760078,-547.787890122503 " style="fill: rgb(157,116,59); fill-opacity: 1; stroke: rgb(0,0,0); stroke-width: 3" />
	<polygon points="110.64257662868,-386.201903100639 99.8427666418928,-455.183336460853 39.9481564678362,-474.723203358576 45.7578075926081,-411.99028791469 " style="fill: rgb(157,116,59); fill-opacity: 1; stroke: rgb(0,0,0); stroke-width: 3" />
	<polygon points="128.163188844703,-218.140610876094 96.5013549559286,-280.3708472486 33.5,-280.370847248636 58.4797739801529,-222.533302191986 " style="fill: rgb(157,116,59); fill-opacity: 1; stroke: rgb(0,0,0); stroke-width: 3" />
	<polygon points="375.206171320737,-53.5 406.868005209581,-115.730236372498 337.184590345076,-111.337545056675 312.204816364859,-53.5000000000231 " style="fill: rgb(157,116,59); fill-opacity: 1; stroke: rgb(0,0,0); stroke-width: 3" />
	<polygon points="235.147967041406,-615.284528056906 302.757522034672,-632.720758090701 253.356303027961,-682.062359248663 193.461692853914,-662.522492350981 " style="fill: rgb(157,116,59); fill-opacity: 1; stroke: rgb(0,0,0); stroke-width: 3" />
	<polygon points="154.722419781075,-498.349268809216 89.6434271891106,-523.643512569316 42.6730827466098,-481.655925484153 99.8427666418928,-455.183336460853 " style="fill: rgb(157,116,59); fill-opacity: 1; stroke: rgb(0,0,0); stroke-width: 3" />
	<circle cx="282.406382503283" cy="-378.915067294294" r="2" style="fill: rgb(0,0,0)" />
	<circle cx="345.407737459204" cy="-378.915067294294" r="2" style="fill: rgb(0,0,0)" />
	<circle cx="320.427963479009" cy="-436.75261235095" r="2" style="fill: rgb(0,0,0)" />
	<circle cx="250.744548614479" cy="-441.14530366681" r="2" style="fill: rgb(0,0,0)" />
	<circle cx="250.744548614464" cy="-316.684830921795" r="2" style="fill: rgb(0,0,0)" />
	<circle cx="320.427963478992" cy="-321.077522237634" r="2" style="fill: rgb(0,0,0)" />
	<circle cx="388.600340411678" cy="-424.779757159945" r="2" style="fill: rgb(0,0,0)" />
	<circle cx="365.003808676396" cy="-490.493361034979" r="2" style="fill: rgb(0,0,0)" />
	<circle cx="206.168908085486" cy="-383.429964256669" r="2" style="fill: rgb(0,0,0)" />
	<circle cx="243.620885582358" cy="-320.856826942223" r="2" style="fill: rgb(0,0,0)" />
	<circle cx="358.349261317" cy="-495.378964910719" r="2" style="fill: rgb(0,0,0)" />
	<circle cx="286.055283117186" cy="-504.951260760775" r="2" style="fill: rgb(0,0,0)" />
	<circle cx="365.003808676347" cy="-267.336773553587" r="2" style="fill: rgb(0,0,0)" />
	<circle cx="388.600340411665" cy="-333.050377428619" r="2" style="fill: rgb(0,0,0)" />
	<circle cx="286.05528311715" cy="-252.878873827815" r="2" style="fill: rgb(0,0,0)" />
	<circle cx="358.34926131696" cy="-262.451169677835" r="2" style="fill: rgb(0,0,0)" />
	<circle cx="404.638884608244" cy="-357.447837997267" r="2" style="fill: rgb(0,0,0)" />
	<circle cx="455.610447009407" cy="-405.165485367641" r="2" style="fill: rgb(0,0,0)" />
	<circle cx="457.457109599367" cy="-413.211724431201" r="2" style="fill: rgb(0,0,0)" />
	<circle cx="437.580566564484" cy="-483.375612356394" r="2" style="fill: rgb(0,0,0)" />
	<circle cx="210.280018608501" cy="-453.675875915979" r="2" style="fill: rgb(0,0,0)" />
	<circle cx="181.558247203459" cy="-423.951859650962" r="2" style="fill: rgb(0,0,0)" />
	<circle cx="195.131652506123" cy="-384.910599885741" r="2" style="fill: rgb(0,0,0)" />
	<circle cx="195.034043334463" cy="-383.262394668847" r="2" style="fill: rgb(0,0,0)" />
	<circle cx="176.947512003074" cy="-346.096083579838" r="2" style="fill: rgb(0,0,0)" />
	<circle cx="201.960225456152" cy="-313.189830963038" r="2" style="fill: rgb(0,0,0)" />
	<circle cx="280.319779811011" cy="-514.496798692983" r="2" style="fill: rgb(0,0,0)" />
	<circle cx="239.096678829153" cy="-511.477984189636" r="2" style="fill: rgb(0,0,0)" />
	<circle cx="223.197008533404" cy="-473.324900696257" r="2" style="fill: rgb(0,0,0)" />
	<circle cx="348.869566017756" cy="-536.664904484985" r="2" style="fill: rgb(0,0,0)" />
	<circle cx="308.742987806428" cy="-546.580297397835" r="2" style="fill: rgb(0,0,0)" />
	<circle cx="281.794190774291" cy="-515.239913959107" r="2" style="fill: rgb(0,0,0)" />
	<circle cx="437.580566564443" cy="-274.454522232131" r="2" style="fill: rgb(0,0,0)" />
	<circle cx="457.457109599375" cy="-344.618410157319" r="2" style="fill: rgb(0,0,0)" />
	<circle cx="223.197008533381" cy="-284.505233892349" r="2" style="fill: rgb(0,0,0)" />
	<circle cx="239.096678829122" cy="-246.352150398966" r="2" style="fill: rgb(0,0,0)" />
	<circle cx="280.319779810976" cy="-243.333335895613" r="2" style="fill: rgb(0,0,0)" />
	<circle cx="281.794190774256" cy="-242.590220629476" r="2" style="fill: rgb(0,0,0)" />
	<circle cx="308.742987806377" cy="-211.249837190739" r="2" style="fill: rgb(0,0,0)" />
	<circle cx="348.869566017699" cy="-221.165230103577" r="2" style="fill: rgb(0,0,0)" />
	<circle cx="444.069615955234" cy="-492.42577979102" r="2" style="fill: rgb(0,0,0)" />
	<circle cx="424.953446692094" cy="-529.073144884148" r="2" style="fill: rgb(0,0,0)" />
	<circle cx="383.623369620454" cy="-528.542084794738" r="2" style="fill: rgb(0,0,0)" />
	<circle cx="491.600450577695" cy="-438.284133496431" r="2" style="fill: rgb(0,0,0)" />
	<circle cx="484.793122858055" cy="-479.053209827437" r="2" style="fill: rgb(0,0,0)" />
	<circle cx="445.336420698705" cy="-491.36685876974" r="2" style="fill: rgb(0,0,0)" />
	<circle cx="196.706613305837" cy="-492.717135681205" r="2" style="fill: rgb(0,0,0)" />
	<circle cx="154.722419781075" cy="-498.349268809216" r="2" style="fill: rgb(0,0,0)" />
	<circle cx="170.920497086586" cy="-427.246031024967" r="2" style="fill: rgb(0,0,0)" />
	<circle cx="170.520991624091" cy="-425.432495280041" r="2" style="fill: rgb(0,0,0)" />
	<circle cx="125.94535109509" cy="-367.717155869935" r="2" style="fill: rgb(0,0,0)" />
	<circle cx="166.409881101076" cy="-355.18658362075" r="2" style="fill: rgb(0,0,0)" />
	<circle cx="135.286851876865" cy="-338.429087600654" r="2" style="fill: rgb(0,0,0)" />
	<circle cx="172.738829373728" cy="-275.855950286213" r="2" style="fill: rgb(0,0,0)" />
	<circle cx="183.873694124751" cy="-276.023519874035" r="2" style="fill: rgb(0,0,0)" />
	<circle cx="296.219450106761" cy="-552.649882186361" r="2" style="fill: rgb(0,0,0)" />
	<circle cx="288.977456991465" cy="-561.109600166787" r="2" style="fill: rgb(0,0,0)" />
	<circle cx="217.27961760078" cy="-547.787890122503" r="2" style="fill: rgb(0,0,0)" />
	<circle cx="375.8183630499" cy="-568.005287923714" r="2" style="fill: rgb(0,0,0)" />
	<circle cx="359.609757181864" cy="-607.141901539492" r="2" style="fill: rgb(0,0,0)" />
	<circle cx="306.250863722387" cy="-557.43398848152" r="2" style="fill: rgb(0,0,0)" />
	<circle cx="383.623369620393" cy="-229.288049793814" r="2" style="fill: rgb(0,0,0)" />
	<circle cx="424.953446692033" cy="-228.756989704389" r="2" style="fill: rgb(0,0,0)" />
	<circle cx="444.069615955184" cy="-265.40435479751" r="2" style="fill: rgb(0,0,0)" />
	<circle cx="445.336420698672" cy="-266.463275818777" r="2" style="fill: rgb(0,0,0)" />
	<circle cx="484.793122858027" cy="-278.776924761068" r="2" style="fill: rgb(0,0,0)" />
	<circle cx="491.600450577683" cy="-319.546001092075" r="2" style="fill: rgb(0,0,0)" />
	<circle cx="233.361175522943" cy="-236.806612466759" r="2" style="fill: rgb(0,0,0)" />
	<circle cx="268.671910025592" cy="-173.000655372789" r="2" style="fill: rgb(0,0,0)" />
	<circle cx="296.219450106691" cy="-205.180252402237" r="2" style="fill: rgb(0,0,0)" />
	<circle cx="299.263292507119" cy="-169.963897616477" r="2" style="fill: rgb(0,0,0)" />
	<circle cx="371.557270706921" cy="-179.536193466493" r="2" style="fill: rgb(0,0,0)" />
	<circle cx="375.818363049816" cy="-189.824846664832" r="2" style="fill: rgb(0,0,0)" />
	<circle cx="485.399693026874" cy="-492.956839880429" r="2" style="fill: rgb(0,0,0)" />
	<circle cx="490.294603126649" cy="-502.95949691271" r="2" style="fill: rgb(0,0,0)" />
	<circle cx="449.636892993942" cy="-563.498729965014" r="2" style="fill: rgb(0,0,0)" />
	<circle cx="531.057152737047" cy="-425.970484554122" r="2" style="fill: rgb(0,0,0)" />
	<circle cx="560.559349055683" cy="-456.3680805425" r="2" style="fill: rgb(0,0,0)" />
	<circle cx="493.76909093254" cy="-485.644513925727" r="2" style="fill: rgb(0,0,0)" />
	<circle cx="99.8427666418928" cy="-455.183336460853" r="2" style="fill: rgb(0,0,0)" />
	<circle cx="110.64257662868" cy="-386.201903100639" r="2" style="fill: rgb(0,0,0)" />
	<circle cx="96.5013549559286" cy="-280.3708472486" r="2" style="fill: rgb(0,0,0)" />
	<circle cx="128.163188844703" cy="-218.140610876094" r="2" style="fill: rgb(0,0,0)" />
	<circle cx="302.757522034672" cy="-632.720758090701" r="2" style="fill: rgb(0,0,0)" />
	<circle cx="235.147967041406" cy="-615.284528056906" r="2" style="fill: rgb(0,0,0)" />
	<circle cx="431.44249608278" cy="-219.706822269758" r="2" style="fill: rgb(0,0,0)" />
	<circle cx="504.019253970849" cy="-226.824570948279" r="2" style="fill: rgb(0,0,0)" />
	<circle cx="485.399693026807" cy="-264.873294708067" r="2" style="fill: rgb(0,0,0)" />
	<circle cx="337.184590345076" cy="-111.337545056675" r="2" style="fill: rgb(0,0,0)" />
	<circle cx="406.868005209581" cy="-115.730236372498" r="2" style="fill: rgb(0,0,0)" />
	<circle cx="561.5" cy="-518.70241874786" r="2" style="fill: rgb(0,0,0)" />
	<circle cx="518.6859979088" cy="-573.857067410627" r="2" style="fill: rgb(0,0,0)" />
	<circle cx="39.9481564678362" cy="-474.723203358576" r="2" style="fill: rgb(0,0,0)" />
	<circle cx="45.7578075926081" cy="-411.99028791469" r="2" style="fill: rgb(0,0,0)" />
	<circle cx="89.6434271891106" cy="-523.643512569316" r="2" style="fill: rgb(0,0,0)" />
	<circle cx="42.6730827466098" cy="-481.655925484153" r="2" style="fill: rgb(0,0,0)" />
	<circle cx="33.5" cy="-280.370847248636" r="2" style="fill: rgb(0,0,0)" />
	<circle cx="58.4797739801529" cy="-222.533302191986" r="2" style="fill: rgb(0,0,0)" />
	<circle cx="253.356303027961" cy="-682.062359248663" r="2" style="fill: rgb(0,0,0)" />
	<circle cx="193.461692853914" cy="-662.522492350981" r="2" style="fill: rgb(0,0,0)" />
	<circle cx="312.204816364859" cy="-53.5000000000231" r="2" style="fill: rgb(0,0,0)" />
	<circle cx="375.206171320737" cy="-53.5" r="2" style="fill: rgb(0,0,0)" />
	<!--
	Generated using the Perl SVG Module V2.84
	by Ronan Oger
	Info: http://www.roitsystems.com/
	-->
</svg>