<?xml version="1.0" encoding="UTF-8" standalone="yes"?>
<!DOCTYPE svg PUBLIC "-//W3C//DTD SVG 1.0//EN" "http://www.w3.org/TR/2001/REC-SVG-20010904/DTD/svg10.dtd">
<!-- generated using polymake; Michael Joswig, Georg Loho, Benjamin Lorenz, Rico Raber; license CC BY-NC-SA 3.0; see polymake.org and matchthenet.de -->
<svg height="841pt" id="document" viewBox="0 -709.543486800293 572 709.543486800293" width="595pt" xmlns="http://www.w3.org/2000/svg" xmlns:svg="http://www.w3.org/2000/svg" xmlns:xlink="http://www.w3.org/1999/xlink">
	<title id="document_title">planar_net_</title>
	<polygon points="261.213032512373,-363.271743400114 327.957722694797,-363.271743400114 328.485528919062,-400.893884812299 296.154352637605,-420.139641334328 " style="fill: rgb(67,184,206); fill-opacity: 1; stroke: rgb(0,0,0); stroke-width: 3" />
	<polygon points="328.485528919049,-325.649601987923 327.957722694797,-363.271743400114 261.213032512373,-363.271743400114 296.15435263758,-306.403845465903 " style="fill: rgb(67,184,206); fill-opacity: 1; stroke: rgb(0,0,0); stroke-width: 3" />
	<polygon points="328.485528919062,-400.893884812299 327.957722694797,-363.271743400114 419.74530236879,-384.876069069541 402.96773014355,-434.373803932983 " style="fill: rgb(67,184,206); fill-opacity: 1; stroke: rgb(0,0,0); stroke-width: 3" />
	<polygon points="261.213032512373,-363.271743400114 296.154352637605,-420.139641334328 264.375796982453,-440.284802150794 231.052401638825,-422.813241641764 " style="fill: rgb(67,184,206); fill-opacity: 1; stroke: rgb(0,0,0); stroke-width: 3" />
	<polygon points="419.745302368783,-341.667417730658 327.957722694797,-363.271743400114 328.485528919049,-325.649601987923 402.967730143506,-292.169682867214 " style="fill: rgb(67,184,206); fill-opacity: 1; stroke: rgb(0,0,0); stroke-width: 3" />
	<polygon points="296.154352637605,-420.139641334328 328.485528919062,-400.893884812299 396.003095450567,-446.827331158437 362.613149283339,-487.034596438893 " style="fill: rgb(67,184,206); fill-opacity: 1; stroke: rgb(0,0,0); stroke-width: 3" />
	<polygon points="261.213032512373,-363.271743400114 231.052401638792,-303.730245158504 264.37579698241,-286.258684649455 296.15435263758,-306.403845465903 " style="fill: rgb(67,184,206); fill-opacity: 1; stroke: rgb(0,0,0); stroke-width: 3" />
	<polygon points="296.154352637605,-420.139641334328 325.798457844991,-509.654632796618 274.84215485012,-521.272200161587 264.375796982453,-440.284802150794 " style="fill: rgb(67,184,206); fill-opacity: 1; stroke: rgb(0,0,0); stroke-width: 3" />
	<polygon points="396.003095450546,-279.716155641743 328.485528919049,-325.649601987923 296.15435263758,-306.403845465903 362.613149283284,-239.508890361311 " style="fill: rgb(67,184,206); fill-opacity: 1; stroke: rgb(0,0,0); stroke-width: 3" />
	<polygon points="261.213032512373,-363.271743400114 231.052401638825,-422.813241641764 197.251995504992,-406.283370225543 194.693102743399,-368.74464126886 " style="fill: rgb(67,184,206); fill-opacity: 1; stroke: rgb(0,0,0); stroke-width: 3" />
	<polygon points="325.79845784491,-216.888854003595 296.15435263758,-306.403845465903 264.37579698241,-286.258684649455 274.842154850013,-205.271286638672 " style="fill: rgb(67,184,206); fill-opacity: 1; stroke: rgb(0,0,0); stroke-width: 3" />
	<polygon points="231.052401638825,-422.813241641764 264.375796982453,-440.284802150794 260.58544854224,-521.85769312734 208.848127614719,-514.457537073083 " style="fill: rgb(67,184,206); fill-opacity: 1; stroke: rgb(0,0,0); stroke-width: 3" />
	<polygon points="231.052401638825,-422.813241641764 170.302621887082,-494.932385633876 133.728219881101,-457.598409093873 197.251995504992,-406.283370225543 " style="fill: rgb(67,184,206); fill-opacity: 1; stroke: rgb(0,0,0); stroke-width: 3" />
	<polygon points="231.052401638792,-303.730245158504 208.848127614634,-212.085949727198 260.585448542141,-204.685793672895 264.37579698241,-286.258684649455 " style="fill: rgb(67,184,206); fill-opacity: 1; stroke: rgb(0,0,0); stroke-width: 3" />
	<polygon points="194.693102743399,-368.74464126886 197.251995504992,-406.283370225543 125.76588022831,-445.757901333824 104.986115276689,-397.802567376689 " style="fill: rgb(67,184,206); fill-opacity: 1; stroke: rgb(0,0,0); stroke-width: 3" />
	<polygon points="402.96773014355,-434.373803932983 419.74530236879,-384.876069069541 494.227503593273,-418.355988190192 494.75530981756,-455.978129602373 " style="fill: rgb(67,184,206); fill-opacity: 1; stroke: rgb(0,0,0); stroke-width: 3" />
	<polygon points="419.745302368783,-341.667417730658 402.967730143506,-292.169682867214 494.755309817503,-270.56535719776 494.227503593249,-308.18749860995 " style="fill: rgb(67,184,206); fill-opacity: 1; stroke: rgb(0,0,0); stroke-width: 3" />
	<polygon points="362.613149283339,-487.034596438893 396.003095450567,-446.827331158437 462.461892096308,-513.722286263005 430.130715814851,-532.968042785033 " style="fill: rgb(67,184,206); fill-opacity: 1; stroke: rgb(0,0,0); stroke-width: 3" />
	<polygon points="325.798457844991,-509.654632796618 336.264815712683,-590.642030807389 304.486260057546,-610.787191623871 274.84215485012,-521.272200161587 " style="fill: rgb(67,184,206); fill-opacity: 1; stroke: rgb(0,0,0); stroke-width: 3" />
	<polygon points="396.003095450546,-279.716155641743 362.613149283284,-239.508890361311 430.130715814756,-193.575444015125 462.461892096233,-212.821200537126 " style="fill: rgb(67,184,206); fill-opacity: 1; stroke: rgb(0,0,0); stroke-width: 3" />
	<polygon points="325.79845784491,-216.888854003595 274.842154850013,-205.271286638672 304.48626005735,-115.756295176357 336.264815712519,-135.901455992805 " style="fill: rgb(67,184,206); fill-opacity: 1; stroke: rgb(0,0,0); stroke-width: 3" />
	<polygon points="208.848127614719,-514.457537073083 260.58544854224,-521.85769312734 238.381174518132,-613.501988558668 205.057779174505,-596.030428049637 " style="fill: rgb(67,184,206); fill-opacity: 1; stroke: rgb(0,0,0); stroke-width: 3" />
	<polygon points="170.302621887082,-494.932385633876 106.778846263223,-546.247424502216 72.978440129384,-529.717553086016 133.728219881101,-457.598409093873 " style="fill: rgb(67,184,206); fill-opacity: 1; stroke: rgb(0,0,0); stroke-width: 3" />
	<polygon points="208.848127614634,-212.085949727198 205.057779174345,-130.513058750655 238.38117451795,-113.04149824159 260.585448542141,-204.685793672895 " style="fill: rgb(67,184,206); fill-opacity: 1; stroke: rgb(0,0,0); stroke-width: 3" />
	<polygon points="104.986115276689,-397.802567376689 125.76588022831,-445.757901333824 36.0588927615917,-474.815827441655 33.5,-437.277098484972 " style="fill: rgb(67,184,206); fill-opacity: 1; stroke: rgb(0,0,0); stroke-width: 3" />
	<polygon points="497.403212221384,-155.953302602864 462.461892096233,-212.821200537126 430.130715814756,-193.575444015125 430.658522038989,-155.953302602939 " style="fill: rgb(67,184,206); fill-opacity: 1; stroke: rgb(0,0,0); stroke-width: 3" />
	<polygon points="494.75530981756,-455.978129602373 494.227503593273,-418.355988190192 526.558679874732,-399.11023166814 561.5,-455.97812960229 " style="fill: rgb(67,184,206); fill-opacity: 1; stroke: rgb(0,0,0); stroke-width: 3" />
	<polygon points="430.130715814851,-532.968042785033 462.461892096308,-513.722286263005 497.403212221535,-570.590184197203 430.658522039125,-570.590184197214 " style="fill: rgb(67,184,206); fill-opacity: 1; stroke: rgb(0,0,0); stroke-width: 3" />
	<polygon points="238.381174518132,-613.501988558668 208.220543644582,-673.043486800293 173.279223519355,-616.175588866102 205.057779174505,-596.030428049637 " style="fill: rgb(67,184,206); fill-opacity: 1; stroke: rgb(0,0,0); stroke-width: 3" />
	<polygon points="208.220543644297,-53.5 238.38117451795,-113.04149824159 205.057779174345,-130.513058750655 173.279223519169,-110.367897934226 " style="fill: rgb(67,184,206); fill-opacity: 1; stroke: rgb(0,0,0); stroke-width: 3" />
	<circle cx="261.213032512373" cy="-363.271743400114" r="2" style="fill: rgb(0,0,0)" />
	<circle cx="327.957722694797" cy="-363.271743400114" r="2" style="fill: rgb(0,0,0)" />
	<circle cx="328.485528919062" cy="-400.893884812299" r="2" style="fill: rgb(0,0,0)" />
	<circle cx="296.154352637605" cy="-420.139641334328" r="2" style="fill: rgb(0,0,0)" />
	<circle cx="296.15435263758" cy="-306.403845465903" r="2" style="fill: rgb(0,0,0)" />
	<circle cx="328.485528919049" cy="-325.649601987923" r="2" style="fill: rgb(0,0,0)" />
	<circle cx="419.74530236879" cy="-384.876069069541" r="2" style="fill: rgb(0,0,0)" />
	<circle cx="402.96773014355" cy="-434.373803932983" r="2" style="fill: rgb(0,0,0)" />
	<circle cx="264.375796982453" cy="-440.284802150794" r="2" style="fill: rgb(0,0,0)" />
	<circle cx="231.052401638825" cy="-422.813241641764" r="2" style="fill: rgb(0,0,0)" />
	<circle cx="396.003095450567" cy="-446.827331158437" r="2" style="fill: rgb(0,0,0)" />
	<circle cx="362.613149283339" cy="-487.034596438893" r="2" style="fill: rgb(0,0,0)" />
	<circle cx="402.967730143506" cy="-292.169682867214" r="2" style="fill: rgb(0,0,0)" />
	<circle cx="419.745302368783" cy="-341.667417730658" r="2" style="fill: rgb(0,0,0)" />
	<circle cx="231.052401638792" cy="-303.730245158504" r="2" style="fill: rgb(0,0,0)" />
	<circle cx="264.37579698241" cy="-286.258684649455" r="2" style="fill: rgb(0,0,0)" />
	<circle cx="362.613149283284" cy="-239.508890361311" r="2" style="fill: rgb(0,0,0)" />
	<circle cx="396.003095450546" cy="-279.716155641743" r="2" style="fill: rgb(0,0,0)" />
	<circle cx="494.227503593273" cy="-418.355988190192" r="2" style="fill: rgb(0,0,0)" />
	<circle cx="494.75530981756" cy="-455.978129602373" r="2" style="fill: rgb(0,0,0)" />
	<circle cx="325.798457844991" cy="-509.654632796618" r="2" style="fill: rgb(0,0,0)" />
	<circle cx="274.84215485012" cy="-521.272200161587" r="2" style="fill: rgb(0,0,0)" />
	<circle cx="197.251995504992" cy="-406.283370225543" r="2" style="fill: rgb(0,0,0)" />
	<circle cx="194.693102743399" cy="-368.74464126886" r="2" style="fill: rgb(0,0,0)" />
	<circle cx="260.58544854224" cy="-521.85769312734" r="2" style="fill: rgb(0,0,0)" />
	<circle cx="208.848127614719" cy="-514.457537073083" r="2" style="fill: rgb(0,0,0)" />
	<circle cx="462.461892096308" cy="-513.722286263005" r="2" style="fill: rgb(0,0,0)" />
	<circle cx="430.130715814851" cy="-532.968042785033" r="2" style="fill: rgb(0,0,0)" />
	<circle cx="494.755309817503" cy="-270.56535719776" r="2" style="fill: rgb(0,0,0)" />
	<circle cx="494.227503593249" cy="-308.18749860995" r="2" style="fill: rgb(0,0,0)" />
	<circle cx="274.842154850013" cy="-205.271286638672" r="2" style="fill: rgb(0,0,0)" />
	<circle cx="325.79845784491" cy="-216.888854003595" r="2" style="fill: rgb(0,0,0)" />
	<circle cx="208.848127614634" cy="-212.085949727198" r="2" style="fill: rgb(0,0,0)" />
	<circle cx="260.585448542141" cy="-204.685793672895" r="2" style="fill: rgb(0,0,0)" />
	<circle cx="430.130715814756" cy="-193.575444015125" r="2" style="fill: rgb(0,0,0)" />
	<circle cx="462.461892096233" cy="-212.821200537126" r="2" style="fill: rgb(0,0,0)" />
	<circle cx="526.558679874732" cy="-399.11023166814" r="2" style="fill: rgb(0,0,0)" />
	<circle cx="561.5" cy="-455.97812960229" r="2" style="fill: rgb(0,0,0)" />
	<circle cx="336.264815712683" cy="-590.642030807389" r="2" style="fill: rgb(0,0,0)" />
	<circle cx="304.486260057546" cy="-610.787191623871" r="2" style="fill: rgb(0,0,0)" />
	<circle cx="170.302621887082" cy="-494.932385633876" r="2" style="fill: rgb(0,0,0)" />
	<circle cx="133.728219881101" cy="-457.598409093873" r="2" style="fill: rgb(0,0,0)" />
	<circle cx="125.76588022831" cy="-445.757901333824" r="2" style="fill: rgb(0,0,0)" />
	<circle cx="104.986115276689" cy="-397.802567376689" r="2" style="fill: rgb(0,0,0)" />
	<circle cx="238.381174518132" cy="-613.501988558668" r="2" style="fill: rgb(0,0,0)" />
	<circle cx="205.057779174505" cy="-596.030428049637" r="2" style="fill: rgb(0,0,0)" />
	<circle cx="497.403212221535" cy="-570.590184197203" r="2" style="fill: rgb(0,0,0)" />
	<circle cx="430.658522039125" cy="-570.590184197214" r="2" style="fill: rgb(0,0,0)" />
	<circle cx="304.48626005735" cy="-115.756295176357" r="2" style="fill: rgb(0,0,0)" />
	<circle cx="336.264815712519" cy="-135.901455992805" r="2" style="fill: rgb(0,0,0)" />
	<circle cx="205.057779174345" cy="-130.513058750655" r="2" style="fill: rgb(0,0,0)" />
	<circle cx="238.38117451795" cy="-113.04149824159" r="2" style="fill: rgb(0,0,0)" />
	<circle cx="430.658522038989" cy="-155.953302602939" r="2" style="fill: rgb(0,0,0)" />
	<circle cx="497.403212221384" cy="-155.953302602864" r="2" style="fill: rgb(0,0,0)" />
	<circle cx="106.778846263223" cy="-546.247424502216" r="2" style="fill: rgb(0,0,0)" />
	<circle cx="72.978440129384" cy="-529.717553086016" r="2" style="fill: rgb(0,0,0)" />
	<circle cx="36.0588927615917" cy="-474.815827441655" r="2" style="fill: rgb(0,0,0)" />
	<circle cx="33.5" cy="-437.277098484972" r="2" style="fill: rgb(0,0,0)" />
	<circle cx="208.220543644582" cy="-673.043486800293" r="2" style="fill: rgb(0,0,0)" />
	<circle cx="173.279223519355" cy="-616.175588866102" r="2" style="fill: rgb(0,0,0)" />
	<circle cx="173.279223519169" cy="-110.367897934226" r="2" style="fill: rgb(0,0,0)" />
	<circle cx="208.220543644297" cy="-53.5" r="2" style="fill: rgb(0,0,0)" />
	<!-- 
	Generated using the Perl SVG Module V2.64
	by Ronan Oger
	Info: http://www.roitsystems.com/
 -->
</svg>