<?xml version="1.0" encoding="UTF-8" standalone="yes"?>
<!DOCTYPE svg PUBLIC "-//W3C//DTD SVG 1.0//EN" "http://www.w3.org/TR/2001/REC-SVG-20010904/DTD/svg10.dtd">
<!-- generated using polymake; Michael Joswig, Georg Loho, Benjamin Lorenz, Rico Raber; license CC BY-NC-ND 3.0; see polymake.org and matchthenet.de -->
<svg height="841pt" id="document" viewBox="0 -611.932263633538 572 611.932263633538" width="595pt" xmlns="http://www.w3.org/2000/svg" xmlns:svg="http://www.w3.org/2000/svg" xmlns:xlink="http://www.w3.org/1999/xlink">
	<title id="document_title">planar_net_</title>
	<polygon points="291.310116078524,-297.126151995939 334.100292439607,-297.126151995939 355.463297469413,-398.039408301425 261.162430933803,-439.839047686389 236.096525957817,-405.159088044724 " style="fill: rgb(255,210,63); fill-opacity: 1; stroke: rgb(0,0,0); stroke-width: 3" />
	<polygon points="355.463297469412,-196.212895690454 334.100292439607,-297.126151995939 291.310116078524,-297.126151995939 236.096525957816,-189.093215947153 261.162430933802,-154.413256305489 " style="fill: rgb(255,210,63); fill-opacity: 1; stroke: rgb(0,0,0); stroke-width: 3" />
	<polygon points="236.096525957817,-405.159088044724 261.162430933803,-439.839047686389 191.889881625022,-516.26664214247 102.772549308776,-464.324709535799 116.196191306305,-423.694609504726 " style="fill: rgb(255,210,63); fill-opacity: 1; stroke: rgb(0,0,0); stroke-width: 3" />
	<polygon points="116.196191306304,-170.55769448715 102.772549308775,-129.927594456079 191.889881625022,-77.9856618494112 261.162430933802,-154.413256305489 236.096525957816,-189.093215947153 " style="fill: rgb(255,210,63); fill-opacity: 1; stroke: rgb(0,0,0); stroke-width: 3" />
	<polygon points="291.310116078524,-297.126151995939 236.096525957817,-405.159088044724 128.063589909026,-349.94549792402 183.277180029729,-241.912561875235 " style="fill: rgb(67,184,206); fill-opacity: 1; stroke: rgb(0,0,0); stroke-width: 3" />
	<polygon points="355.463297469413,-398.039408301425 334.100292439607,-297.126151995939 428.401158975219,-255.326512610974 453.467063951205,-290.006472252638 398.253473830496,-398.039408301423 " style="fill: rgb(255,210,63); fill-opacity: 1; stroke: rgb(0,0,0); stroke-width: 3" />
	<polygon points="380.529202445398,-161.532936048792 355.463297469412,-196.212895690454 261.162430933802,-154.413256305489 282.525435963608,-53.5 325.315612324691,-53.5000000000006 " style="fill: rgb(255,210,63); fill-opacity: 1; stroke: rgb(0,0,0); stroke-width: 3" />
	<polygon points="261.162430933803,-439.839047686389 355.463297469413,-398.039408301425 380.5292024454,-432.719367943092 325.315612324691,-540.752303991872 282.525435963606,-540.752303991869 " style="fill: rgb(255,210,63); fill-opacity: 1; stroke: rgb(0,0,0); stroke-width: 3" />
	<polygon points="191.889881625022,-516.26664214247 178.46623962749,-556.896742173546 58.5659049759833,-575.432263633538 33.5,-540.752303991868 102.772549308776,-464.324709535799 " style="fill: rgb(255,210,63); fill-opacity: 1; stroke: rgb(0,0,0); stroke-width: 3" />
	<polygon points="398.253473830496,-398.039408301423 453.467063951205,-290.006472252638 561.5,-345.220062373348 506.28640987929,-453.252998422129 " style="fill: rgb(67,184,206); fill-opacity: 1; stroke: rgb(0,0,0); stroke-width: 3" />
	<circle cx="291.310116078524" cy="-297.126151995939" r="2" style="fill: rgb(0,0,0)" />
	<circle cx="334.100292439607" cy="-297.126151995939" r="2" style="fill: rgb(0,0,0)" />
	<circle cx="355.463297469413" cy="-398.039408301425" r="2" style="fill: rgb(0,0,0)" />
	<circle cx="261.162430933803" cy="-439.839047686389" r="2" style="fill: rgb(0,0,0)" />
	<circle cx="236.096525957817" cy="-405.159088044724" r="2" style="fill: rgb(0,0,0)" />
	<circle cx="236.096525957816" cy="-189.093215947153" r="2" style="fill: rgb(0,0,0)" />
	<circle cx="261.162430933802" cy="-154.413256305489" r="2" style="fill: rgb(0,0,0)" />
	<circle cx="355.463297469412" cy="-196.212895690454" r="2" style="fill: rgb(0,0,0)" />
	<circle cx="191.889881625022" cy="-516.26664214247" r="2" style="fill: rgb(0,0,0)" />
	<circle cx="102.772549308776" cy="-464.324709535799" r="2" style="fill: rgb(0,0,0)" />
	<circle cx="116.196191306305" cy="-423.694609504726" r="2" style="fill: rgb(0,0,0)" />
	<circle cx="128.063589909026" cy="-349.94549792402" r="2" style="fill: rgb(0,0,0)" />
	<circle cx="183.277180029729" cy="-241.912561875235" r="2" style="fill: rgb(0,0,0)" />
	<circle cx="428.401158975219" cy="-255.326512610974" r="2" style="fill: rgb(0,0,0)" />
	<circle cx="453.467063951205" cy="-290.006472252638" r="2" style="fill: rgb(0,0,0)" />
	<circle cx="398.253473830496" cy="-398.039408301423" r="2" style="fill: rgb(0,0,0)" />
	<circle cx="380.5292024454" cy="-432.719367943092" r="2" style="fill: rgb(0,0,0)" />
	<circle cx="325.315612324691" cy="-540.752303991872" r="2" style="fill: rgb(0,0,0)" />
	<circle cx="282.525435963606" cy="-540.752303991869" r="2" style="fill: rgb(0,0,0)" />
	<circle cx="116.196191306304" cy="-170.55769448715" r="2" style="fill: rgb(0,0,0)" />
	<circle cx="102.772549308775" cy="-129.927594456079" r="2" style="fill: rgb(0,0,0)" />
	<circle cx="191.889881625022" cy="-77.9856618494112" r="2" style="fill: rgb(0,0,0)" />
	<circle cx="282.525435963608" cy="-53.5" r="2" style="fill: rgb(0,0,0)" />
	<circle cx="325.315612324691" cy="-53.5000000000006" r="2" style="fill: rgb(0,0,0)" />
	<circle cx="380.529202445398" cy="-161.532936048792" r="2" style="fill: rgb(0,0,0)" />
	<circle cx="178.46623962749" cy="-556.896742173546" r="2" style="fill: rgb(0,0,0)" />
	<circle cx="58.5659049759833" cy="-575.432263633538" r="2" style="fill: rgb(0,0,0)" />
	<circle cx="33.5" cy="-540.752303991868" r="2" style="fill: rgb(0,0,0)" />
	<circle cx="561.5" cy="-345.220062373348" r="2" style="fill: rgb(0,0,0)" />
	<circle cx="506.28640987929" cy="-453.252998422129" r="2" style="fill: rgb(0,0,0)" />
	<!--
	Generated using the Perl SVG Module V2.87
	by Ronan Oger

	-->
</svg>