<?xml version="1.0" encoding="UTF-8" standalone="yes"?>
<!DOCTYPE svg PUBLIC "-//W3C//DTD SVG 1.0//EN" "http://www.w3.org/TR/2001/REC-SVG-20010904/DTD/svg10.dtd">
<!-- generated using polymake; Michael Joswig, Georg Loho, Benjamin Lorenz, Rico Raber; license CC BY-NC-ND 3.0; see polymake.org and matchthenet.de -->
<svg height="841pt" id="document" viewBox="0 -706.032119584503 572 706.032119584503" width="595pt" xmlns="http://www.w3.org/2000/svg" xmlns:svg="http://www.w3.org/2000/svg" xmlns:xlink="http://www.w3.org/1999/xlink">
	<title id="document_title">planar_net_</title>
	<polygon points="196.889405922069,-361.516059792253 368.642433331693,-361.516059792253 398.110594077915,-438.520074740313 226.357566668279,-438.52007474031 " style="fill: rgb(14,173,105); fill-opacity: 1; stroke: rgb(0,0,0); stroke-width: 3" />
	<polygon points="398.110594077905,-284.512044844197 368.642433331693,-361.516059792253 196.889405922069,-361.516059792253 226.357566668286,-284.512044844194 " style="fill: rgb(14,173,105); fill-opacity: 1; stroke: rgb(0,0,0); stroke-width: 3" />
	<polygon points="398.110594077905,-284.512044844197 226.357566668286,-284.512044844194 196.889405922073,-207.508029896132 368.642433331686,-207.508029896143 " style="fill: rgb(14,173,105); fill-opacity: 1; stroke: rgb(0,0,0); stroke-width: 3" />
	<polygon points="398.110594077899,-130.504014948096 368.642433331686,-207.508029896143 196.889405922073,-207.508029896132 226.35756666829,-130.504014948069 " style="fill: rgb(14,173,105); fill-opacity: 1; stroke: rgb(0,0,0); stroke-width: 3" />
	<polygon points="398.110594077899,-130.504014948096 226.35756666829,-130.504014948069 196.889405922077,-53.5 368.64243333168,-53.5000000000493 " style="fill: rgb(14,173,105); fill-opacity: 1; stroke: rgb(0,0,0); stroke-width: 3" />
	<polygon points="226.357566668264,-592.528104636412 398.110594077923,-592.528104636439 368.642433331711,-669.532119584503 196.889405922039,-669.532119584454 " style="fill: rgb(14,173,105); fill-opacity: 1; stroke: rgb(0,0,0); stroke-width: 3" />
	<polygon points="196.889405922054,-515.524089688362 368.642433331702,-515.524089688373 398.110594077923,-592.528104636439 226.357566668264,-592.528104636412 " style="fill: rgb(14,173,105); fill-opacity: 1; stroke: rgb(0,0,0); stroke-width: 3" />
	<polygon points="226.357566668279,-438.52007474031 398.110594077915,-438.520074740313 368.642433331702,-515.524089688373 196.889405922054,-515.524089688362 " style="fill: rgb(14,173,105); fill-opacity: 1; stroke: rgb(0,0,0); stroke-width: 3" />
	<polygon points="398.110594077915,-438.520074740313 368.642433331693,-361.516059792253 421.398828950803,-298.153976989002 509.008531083003,-384.804294665133 " style="fill: rgb(14,173,105); fill-opacity: 1; stroke: rgb(0,0,0); stroke-width: 3" />
	<polygon points="509.008531083003,-384.804294665133 421.398828950803,-298.153976989002 484.176190233211,-244.703123615971 561.499999999951,-273.321636139171 " style="fill: rgb(14,173,105); fill-opacity: 1; stroke: rgb(0,0,0); stroke-width: 3" />
	<polygon points="398.110594077915,-438.520074740313 509.008531083009,-492.235854815472 421.398828950828,-578.886172491616 368.642433331702,-515.524089688373 " style="fill: rgb(14,173,105); fill-opacity: 1; stroke: rgb(0,0,0); stroke-width: 3" />
	<polygon points="509.008531083009,-492.235854815472 561.5,-603.718513341402 484.176190233256,-632.337025864626 421.398828950828,-578.886172491616 " style="fill: rgb(14,173,105); fill-opacity: 1; stroke: rgb(0,0,0); stroke-width: 3" />
	<polygon points="85.9914689169757,-415.231839867423 173.601171049164,-501.882157543556 110.823809766757,-555.333010916583 33.5000000000248,-526.714498393382 " style="fill: rgb(14,173,105); fill-opacity: 1; stroke: rgb(0,0,0); stroke-width: 3" />
	<polygon points="196.889405922069,-361.516059792253 226.357566668279,-438.52007474031 173.601171049164,-501.882157543556 85.9914689169757,-415.231839867423 " style="fill: rgb(14,173,105); fill-opacity: 1; stroke: rgb(0,0,0); stroke-width: 3" />
	<polygon points="85.9914689169791,-307.800279717088 33.5,-196.317621191161 110.823809766733,-167.699108667935 173.60117104916,-221.149962040947 " style="fill: rgb(14,173,105); fill-opacity: 1; stroke: rgb(0,0,0); stroke-width: 3" />
	<polygon points="196.889405922069,-361.516059792253 85.9914689169791,-307.800279717088 173.60117104916,-221.149962040947 226.357566668286,-284.512044844194 " style="fill: rgb(14,173,105); fill-opacity: 1; stroke: rgb(0,0,0); stroke-width: 3" />
	<circle cx="196.889405922069" cy="-361.516059792253" r="2" style="fill: rgb(0,0,0)" />
	<circle cx="368.642433331693" cy="-361.516059792253" r="2" style="fill: rgb(0,0,0)" />
	<circle cx="398.110594077915" cy="-438.520074740313" r="2" style="fill: rgb(0,0,0)" />
	<circle cx="226.357566668279" cy="-438.52007474031" r="2" style="fill: rgb(0,0,0)" />
	<circle cx="226.357566668286" cy="-284.512044844194" r="2" style="fill: rgb(0,0,0)" />
	<circle cx="398.110594077905" cy="-284.512044844197" r="2" style="fill: rgb(0,0,0)" />
	<circle cx="368.642433331702" cy="-515.524089688373" r="2" style="fill: rgb(0,0,0)" />
	<circle cx="196.889405922054" cy="-515.524089688362" r="2" style="fill: rgb(0,0,0)" />
	<circle cx="421.398828950803" cy="-298.153976989002" r="2" style="fill: rgb(0,0,0)" />
	<circle cx="509.008531083003" cy="-384.804294665133" r="2" style="fill: rgb(0,0,0)" />
	<circle cx="173.601171049164" cy="-501.882157543556" r="2" style="fill: rgb(0,0,0)" />
	<circle cx="85.9914689169757" cy="-415.231839867423" r="2" style="fill: rgb(0,0,0)" />
	<circle cx="196.889405922073" cy="-207.508029896132" r="2" style="fill: rgb(0,0,0)" />
	<circle cx="368.642433331686" cy="-207.508029896143" r="2" style="fill: rgb(0,0,0)" />
	<circle cx="85.9914689169791" cy="-307.800279717088" r="2" style="fill: rgb(0,0,0)" />
	<circle cx="173.60117104916" cy="-221.149962040947" r="2" style="fill: rgb(0,0,0)" />
	<circle cx="398.110594077923" cy="-592.528104636439" r="2" style="fill: rgb(0,0,0)" />
	<circle cx="226.357566668264" cy="-592.528104636412" r="2" style="fill: rgb(0,0,0)" />
	<circle cx="509.008531083009" cy="-492.235854815472" r="2" style="fill: rgb(0,0,0)" />
	<circle cx="421.398828950828" cy="-578.886172491616" r="2" style="fill: rgb(0,0,0)" />
	<circle cx="484.176190233211" cy="-244.703123615971" r="2" style="fill: rgb(0,0,0)" />
	<circle cx="561.499999999951" cy="-273.321636139171" r="2" style="fill: rgb(0,0,0)" />
	<circle cx="110.823809766757" cy="-555.333010916583" r="2" style="fill: rgb(0,0,0)" />
	<circle cx="33.5000000000248" cy="-526.714498393382" r="2" style="fill: rgb(0,0,0)" />
	<circle cx="226.35756666829" cy="-130.504014948069" r="2" style="fill: rgb(0,0,0)" />
	<circle cx="398.110594077899" cy="-130.504014948096" r="2" style="fill: rgb(0,0,0)" />
	<circle cx="33.5" cy="-196.317621191161" r="2" style="fill: rgb(0,0,0)" />
	<circle cx="110.823809766733" cy="-167.699108667935" r="2" style="fill: rgb(0,0,0)" />
	<circle cx="368.642433331711" cy="-669.532119584503" r="2" style="fill: rgb(0,0,0)" />
	<circle cx="196.889405922039" cy="-669.532119584454" r="2" style="fill: rgb(0,0,0)" />
	<circle cx="561.5" cy="-603.718513341402" r="2" style="fill: rgb(0,0,0)" />
	<circle cx="484.176190233256" cy="-632.337025864626" r="2" style="fill: rgb(0,0,0)" />
	<circle cx="196.889405922077" cy="-53.5" r="2" style="fill: rgb(0,0,0)" />
	<circle cx="368.64243333168" cy="-53.5000000000493" r="2" style="fill: rgb(0,0,0)" />
	<!--
	Generated using the Perl SVG Module V2.87
	by Ronan Oger

	-->
</svg>