<?xml version="1.0" encoding="UTF-8" standalone="yes"?>
<!DOCTYPE svg PUBLIC "-//W3C//DTD SVG 1.0//EN" "http://www.w3.org/TR/2001/REC-SVG-20010904/DTD/svg10.dtd">
<!-- generated using polymake; Michael Joswig, Georg Loho, Benjamin Lorenz, Rico Raber; license CC BY-NC-ND 3.0; see polymake.org and matchthenet.de -->
<svg height="841pt" id="document" viewBox="0 -773.554840785676 572 773.554840785676" width="595pt" xmlns="http://www.w3.org/2000/svg" xmlns:svg="http://www.w3.org/2000/svg" xmlns:xlink="http://www.w3.org/1999/xlink">
	<title id="document_title">planar_net_</title>
	<polygon points="269.798410058717,-364.050543005081 396.4303463547,-364.050543005081 396.430346354707,-490.68247930107 269.798410058732,-490.682479301079 " style="fill: rgb(14,173,105); fill-opacity: 1; stroke: rgb(0,0,0); stroke-width: 3" />
	<polygon points="269.798410058717,-364.050543005081 230.666989712654,-243.616414819711 333.11437820671,-169.184030195693 435.561766700764,-243.616414819715 396.4303463547,-364.050543005081 " style="fill: rgb(14,173,105); fill-opacity: 1; stroke: rgb(0,0,0); stroke-width: 3" />
	<polygon points="269.798410058717,-364.050543005081 269.798410058732,-490.682479301079 143.166473762745,-490.682479301098 143.166473762725,-364.050543005105 " style="fill: rgb(14,173,105); fill-opacity: 1; stroke: rgb(0,0,0); stroke-width: 3" />
	<polygon points="407.546762830737,-66.7366417016239 509.994151324783,-141.169026325646 435.561766700764,-243.616414819715 333.11437820671,-169.184030195693 " style="fill: rgb(14,173,105); fill-opacity: 1; stroke: rgb(0,0,0); stroke-width: 3" />
	<polygon points="143.166473762725,-364.050543005105 143.166473762745,-490.682479301098 33.5,-427.36651115311 " style="fill: rgb(14,173,105); fill-opacity: 1; stroke: rgb(0,0,0); stroke-width: 3" />
	<polygon points="230.666989712654,-243.616414819711 217.430348011038,-117.678181520467 333.11437820671,-169.184030195693 " style="fill: rgb(14,173,105); fill-opacity: 1; stroke: rgb(0,0,0); stroke-width: 3" />
	<polygon points="407.546762830737,-66.7366417016239 333.11437820671,-169.184030195693 281.6085295315,-53.5 " style="fill: rgb(14,173,105); fill-opacity: 1; stroke: rgb(0,0,0); stroke-width: 3" />
	<polygon points="230.66698971267,-611.116607486449 333.114378206725,-685.548992110468 217.430348011032,-737.054840785676 " style="fill: rgb(14,173,105); fill-opacity: 1; stroke: rgb(0,0,0); stroke-width: 3" />
	<polygon points="269.798410058732,-490.682479301079 396.430346354707,-490.68247930107 435.561766700775,-611.116607486442 333.114378206725,-685.548992110468 230.66698971267,-611.116607486449 " style="fill: rgb(14,173,105); fill-opacity: 1; stroke: rgb(0,0,0); stroke-width: 3" />
	<polygon points="561.5,-256.853056521335 435.561766700764,-243.616414819715 509.994151324783,-141.169026325646 " style="fill: rgb(14,173,105); fill-opacity: 1; stroke: rgb(0,0,0); stroke-width: 3" />
	<polygon points="396.430346354707,-490.68247930107 520.295071018904,-517.010739287903 435.561766700775,-611.116607486442 " style="fill: rgb(14,173,105); fill-opacity: 1; stroke: rgb(0,0,0); stroke-width: 3" />
	<polygon points="520.295071018887,-337.722283018267 396.4303463547,-364.050543005081 435.561766700764,-243.616414819715 " style="fill: rgb(14,173,105); fill-opacity: 1; stroke: rgb(0,0,0); stroke-width: 3" />
	<polygon points="396.430346354707,-490.68247930107 396.4303463547,-364.050543005081 506.096820117438,-427.366511153079 " style="fill: rgb(14,173,105); fill-opacity: 1; stroke: rgb(0,0,0); stroke-width: 3" />
	<circle cx="269.798410058717" cy="-364.050543005081" r="2" style="fill: rgb(0,0,0)" />
	<circle cx="396.4303463547" cy="-364.050543005081" r="2" style="fill: rgb(0,0,0)" />
	<circle cx="396.430346354707" cy="-490.68247930107" r="2" style="fill: rgb(0,0,0)" />
	<circle cx="269.798410058732" cy="-490.682479301079" r="2" style="fill: rgb(0,0,0)" />
	<circle cx="230.666989712654" cy="-243.616414819711" r="2" style="fill: rgb(0,0,0)" />
	<circle cx="333.11437820671" cy="-169.184030195693" r="2" style="fill: rgb(0,0,0)" />
	<circle cx="435.561766700764" cy="-243.616414819715" r="2" style="fill: rgb(0,0,0)" />
	<circle cx="143.166473762745" cy="-490.682479301098" r="2" style="fill: rgb(0,0,0)" />
	<circle cx="143.166473762725" cy="-364.050543005105" r="2" style="fill: rgb(0,0,0)" />
	<circle cx="435.561766700775" cy="-611.116607486442" r="2" style="fill: rgb(0,0,0)" />
	<circle cx="333.114378206725" cy="-685.548992110468" r="2" style="fill: rgb(0,0,0)" />
	<circle cx="230.66698971267" cy="-611.116607486449" r="2" style="fill: rgb(0,0,0)" />
	<circle cx="506.096820117438" cy="-427.366511153079" r="2" style="fill: rgb(0,0,0)" />
	<circle cx="407.546762830737" cy="-66.7366417016239" r="2" style="fill: rgb(0,0,0)" />
	<circle cx="509.994151324783" cy="-141.169026325646" r="2" style="fill: rgb(0,0,0)" />
	<circle cx="217.430348011038" cy="-117.678181520467" r="2" style="fill: rgb(0,0,0)" />
	<circle cx="520.295071018887" cy="-337.722283018267" r="2" style="fill: rgb(0,0,0)" />
	<circle cx="33.5" cy="-427.36651115311" r="2" style="fill: rgb(0,0,0)" />
	<circle cx="217.430348011032" cy="-737.054840785676" r="2" style="fill: rgb(0,0,0)" />
	<circle cx="520.295071018904" cy="-517.010739287903" r="2" style="fill: rgb(0,0,0)" />
	<circle cx="281.6085295315" cy="-53.5" r="2" style="fill: rgb(0,0,0)" />
	<circle cx="561.5" cy="-256.853056521335" r="2" style="fill: rgb(0,0,0)" />
	<!--
	Generated using the Perl SVG Module V2.87
	by Ronan Oger

	-->
</svg>