<?xml version="1.0" encoding="UTF-8" standalone="yes"?>
<!DOCTYPE svg PUBLIC "-//W3C//DTD SVG 1.0//EN" "http://www.w3.org/TR/2001/REC-SVG-20010904/DTD/svg10.dtd">
<!-- generated using polymake; Michael Joswig, Georg Loho, Benjamin Lorenz, Rico Raber; license CC BY-NC-ND 3.0; see polymake.org and matchthenet.de -->
<svg height="841pt" id="document" viewBox="0 -696.000519340455 572 696.000519340455" width="595pt" xmlns="http://www.w3.org/2000/svg" xmlns:svg="http://www.w3.org/2000/svg" xmlns:xlink="http://www.w3.org/1999/xlink">
	<title id="document_title">planar_net_</title>
	<polygon points="238.643352104306,-356.500259670233 333.945971907521,-356.500259670233 375.03914809147,-442.488283327436 270.54689747975,-457.06504594673 " style="fill: rgb(67,184,206); fill-opacity: 1; stroke: rgb(0,0,0); stroke-width: 3" />
	<polygon points="375.039148091459,-270.512236013017 333.945971907521,-356.500259670233 238.643352104306,-356.500259670233 270.546897479752,-255.935473393731 " style="fill: rgb(67,184,206); fill-opacity: 1; stroke: rgb(0,0,0); stroke-width: 3" />
	<polygon points="375.03914809147,-442.488283327436 333.945971907521,-356.500259670233 393.810969274516,-282.346558268303 452.018660570428,-370.34074626024 " style="fill: rgb(67,184,206); fill-opacity: 1; stroke: rgb(0,0,0); stroke-width: 3" />
	<polygon points="238.643352104306,-356.500259670233 270.54689747975,-457.06504594673 241.338052935308,-490.56659038354 167.201095156159,-382.447946465607 " style="fill: rgb(67,184,206); fill-opacity: 1; stroke: rgb(0,0,0); stroke-width: 3" />
	<polygon points="270.54689747975,-457.06504594673 375.03914809147,-442.488283327436 382.432428015924,-518.136270345169 252.914146102507,-497.86450866551 " style="fill: rgb(67,184,206); fill-opacity: 1; stroke: rgb(0,0,0); stroke-width: 3" />
	<polygon points="238.643352104306,-356.500259670233 167.201095156154,-330.552572874864 241.338052935299,-222.433928956933 270.546897479752,-255.935473393731 " style="fill: rgb(67,184,206); fill-opacity: 1; stroke: rgb(0,0,0); stroke-width: 3" />
	<polygon points="375.039148091459,-270.512236013017 270.546897479752,-255.935473393731 252.914146102496,-215.136010674955 382.432428015896,-194.864248995286 " style="fill: rgb(67,184,206); fill-opacity: 1; stroke: rgb(0,0,0); stroke-width: 3" />
	<polygon points="375.03914809147,-442.488283327436 452.018660570428,-370.34074626024 494.840314361334,-382.249400503474 429.255701303,-495.759700482765 " style="fill: rgb(67,184,206); fill-opacity: 1; stroke: rgb(0,0,0); stroke-width: 3" />
	<polygon points="452.018660570428,-370.34074626024 393.810969274516,-282.346558268303 458.877465406436,-243.057506243708 496.433503868084,-368.657958657165 " style="fill: rgb(67,184,206); fill-opacity: 1; stroke: rgb(0,0,0); stroke-width: 3" />
	<polygon points="167.201095156159,-382.447946465607 241.338052935308,-490.56659038354 169.895795987161,-516.514277178924 137.99225061172,-415.949490902419 " style="fill: rgb(67,184,206); fill-opacity: 1; stroke: rgb(0,0,0); stroke-width: 3" />
	<polygon points="252.914146102507,-497.86450866551 382.432428015924,-518.136270345169 364.799676638673,-558.935733063949 260.307426026952,-573.512495683236 " style="fill: rgb(67,184,206); fill-opacity: 1; stroke: rgb(0,0,0); stroke-width: 3" />
	<polygon points="167.201095156154,-330.552572874864 137.992250611709,-297.051028438054 169.895795987153,-196.48624216156 241.338052935299,-222.433928956933 " style="fill: rgb(67,184,206); fill-opacity: 1; stroke: rgb(0,0,0); stroke-width: 3" />
	<polygon points="382.432428015896,-194.864248995286 252.914146102496,-215.136010674955 260.307426026931,-139.488023657218 364.799676638632,-154.064786276517 " style="fill: rgb(67,184,206); fill-opacity: 1; stroke: rgb(0,0,0); stroke-width: 3" />
	<polygon points="429.255701303,-495.759700482765 494.840314361334,-382.249400503474 549.056867572876,-435.520817658802 472.077355093898,-507.668354725991 " style="fill: rgb(67,184,206); fill-opacity: 1; stroke: rgb(0,0,0); stroke-width: 3" />
	<polygon points="496.433503868084,-368.657958657165 458.877465406436,-243.057506243708 503.292308704103,-241.374718640647 561.5,-329.368906632585 " style="fill: rgb(67,184,206); fill-opacity: 1; stroke: rgb(0,0,0); stroke-width: 3" />
	<polygon points="137.99225061172,-415.949490902419 169.895795987161,-516.514277178924 74.5931761839384,-516.514277178932 33.5,-430.526253521726 " style="fill: rgb(67,184,206); fill-opacity: 1; stroke: rgb(0,0,0); stroke-width: 3" />
	<polygon points="396.703222014071,-53.5000000000094 364.799676638632,-154.064786276517 260.307426026931,-139.488023657218 301.400602210879,-53.5 " style="fill: rgb(67,184,206); fill-opacity: 1; stroke: rgb(0,0,0); stroke-width: 3" />
	<polygon points="260.307426026952,-573.512495683236 364.799676638673,-558.935733063949 396.70322201411,-659.500519340455 301.400602210893,-659.500519340444 " style="fill: rgb(67,184,206); fill-opacity: 1; stroke: rgb(0,0,0); stroke-width: 3" />
	<circle cx="238.643352104306" cy="-356.500259670233" r="2" style="fill: rgb(0,0,0)" />
	<circle cx="333.945971907521" cy="-356.500259670233" r="2" style="fill: rgb(0,0,0)" />
	<circle cx="375.03914809147" cy="-442.488283327436" r="2" style="fill: rgb(0,0,0)" />
	<circle cx="270.54689747975" cy="-457.06504594673" r="2" style="fill: rgb(0,0,0)" />
	<circle cx="270.546897479752" cy="-255.935473393731" r="2" style="fill: rgb(0,0,0)" />
	<circle cx="375.039148091459" cy="-270.512236013017" r="2" style="fill: rgb(0,0,0)" />
	<circle cx="393.810969274516" cy="-282.346558268303" r="2" style="fill: rgb(0,0,0)" />
	<circle cx="452.018660570428" cy="-370.34074626024" r="2" style="fill: rgb(0,0,0)" />
	<circle cx="241.338052935308" cy="-490.56659038354" r="2" style="fill: rgb(0,0,0)" />
	<circle cx="167.201095156159" cy="-382.447946465607" r="2" style="fill: rgb(0,0,0)" />
	<circle cx="382.432428015924" cy="-518.136270345169" r="2" style="fill: rgb(0,0,0)" />
	<circle cx="252.914146102507" cy="-497.86450866551" r="2" style="fill: rgb(0,0,0)" />
	<circle cx="167.201095156154" cy="-330.552572874864" r="2" style="fill: rgb(0,0,0)" />
	<circle cx="241.338052935299" cy="-222.433928956933" r="2" style="fill: rgb(0,0,0)" />
	<circle cx="252.914146102496" cy="-215.136010674955" r="2" style="fill: rgb(0,0,0)" />
	<circle cx="382.432428015896" cy="-194.864248995286" r="2" style="fill: rgb(0,0,0)" />
	<circle cx="494.840314361334" cy="-382.249400503474" r="2" style="fill: rgb(0,0,0)" />
	<circle cx="429.255701303" cy="-495.759700482765" r="2" style="fill: rgb(0,0,0)" />
	<circle cx="458.877465406436" cy="-243.057506243708" r="2" style="fill: rgb(0,0,0)" />
	<circle cx="496.433503868084" cy="-368.657958657165" r="2" style="fill: rgb(0,0,0)" />
	<circle cx="169.895795987161" cy="-516.514277178924" r="2" style="fill: rgb(0,0,0)" />
	<circle cx="137.99225061172" cy="-415.949490902419" r="2" style="fill: rgb(0,0,0)" />
	<circle cx="364.799676638673" cy="-558.935733063949" r="2" style="fill: rgb(0,0,0)" />
	<circle cx="260.307426026952" cy="-573.512495683236" r="2" style="fill: rgb(0,0,0)" />
	<circle cx="137.992250611709" cy="-297.051028438054" r="2" style="fill: rgb(0,0,0)" />
	<circle cx="169.895795987153" cy="-196.48624216156" r="2" style="fill: rgb(0,0,0)" />
	<circle cx="260.307426026931" cy="-139.488023657218" r="2" style="fill: rgb(0,0,0)" />
	<circle cx="364.799676638632" cy="-154.064786276517" r="2" style="fill: rgb(0,0,0)" />
	<circle cx="549.056867572876" cy="-435.520817658802" r="2" style="fill: rgb(0,0,0)" />
	<circle cx="472.077355093898" cy="-507.668354725991" r="2" style="fill: rgb(0,0,0)" />
	<circle cx="503.292308704103" cy="-241.374718640647" r="2" style="fill: rgb(0,0,0)" />
	<circle cx="561.5" cy="-329.368906632585" r="2" style="fill: rgb(0,0,0)" />
	<circle cx="74.5931761839384" cy="-516.514277178932" r="2" style="fill: rgb(0,0,0)" />
	<circle cx="33.5" cy="-430.526253521726" r="2" style="fill: rgb(0,0,0)" />
	<circle cx="396.70322201411" cy="-659.500519340455" r="2" style="fill: rgb(0,0,0)" />
	<circle cx="301.400602210893" cy="-659.500519340444" r="2" style="fill: rgb(0,0,0)" />
	<circle cx="301.400602210879" cy="-53.5" r="2" style="fill: rgb(0,0,0)" />
	<circle cx="396.703222014071" cy="-53.5000000000094" r="2" style="fill: rgb(0,0,0)" />
	<!--
	Generated using the Perl SVG Module V2.87
	by Ronan Oger

	-->
</svg>