<?xml version="1.0" encoding="UTF-8" standalone="yes"?>
<!DOCTYPE svg PUBLIC "-//W3C//DTD SVG 1.0//EN" "http://www.w3.org/TR/2001/REC-SVG-20010904/DTD/svg10.dtd">
<!-- generated using polymake; Michael Joswig, Georg Loho, Benjamin Lorenz, Rico Raber; license CC BY-NC-ND 3.0; see polymake.org and matchthenet.de -->
<svg height="841pt" id="document" viewBox="0 -767.887559374741 572 767.887559374741" width="595pt" xmlns="http://www.w3.org/2000/svg" xmlns:svg="http://www.w3.org/2000/svg" xmlns:xlink="http://www.w3.org/1999/xlink">
	<title id="document_title">planar_net_</title>
	<polygon points="232.886574036125,-392.443913914423 362.113390969398,-392.443913914423 297.499968497464,-430.474247944006 " style="fill: rgb(14,173,105); fill-opacity: 1; stroke: rgb(0,0,0); stroke-width: 3" />
	<polygon points="232.886574036125,-392.443913914423 295.614541506456,-279.462559532041 297.49998095059,-354.41363061885 " style="fill: rgb(14,173,105); fill-opacity: 1; stroke: rgb(0,0,0); stroke-width: 3" />
	<polygon points="232.886574036125,-392.443913914423 231.001127330113,-317.49293655201 295.614541506456,-279.462559532041 " style="fill: rgb(14,173,105); fill-opacity: 1; stroke: rgb(0,0,0); stroke-width: 3" />
	<polygon points="232.886574036125,-392.443913914423 164.557207975186,-502.128329099504 166.442706520378,-427.177440272771 " style="fill: rgb(14,173,105); fill-opacity: 1; stroke: rgb(0,0,0); stroke-width: 3" />
	<polygon points="232.886574036125,-392.443913914423 166.442714013092,-357.710373222817 164.557378370875,-282.759368586815 " style="fill: rgb(14,173,105); fill-opacity: 1; stroke: rgb(0,0,0); stroke-width: 3" />
	<polygon points="232.886574036125,-392.443913914423 164.557378370875,-282.759368586815 231.001127330113,-317.49293655201 " style="fill: rgb(14,173,105); fill-opacity: 1; stroke: rgb(0,0,0); stroke-width: 3" />
	<polygon points="166.387526433223,-505.424985271603 231.000707437253,-543.455563584396 229.115143716737,-618.406678981339 " style="fill: rgb(14,173,105); fill-opacity: 1; stroke: rgb(0,0,0); stroke-width: 3" />
	<polygon points="428.612299598655,-279.462709146489 363.998827376801,-317.492969203401 299.385301325612,-279.462556536879 " style="fill: rgb(14,173,105); fill-opacity: 1; stroke: rgb(0,0,0); stroke-width: 3" />
	<polygon points="231.001127330113,-317.49293655201 166.387724705958,-279.462675960212 295.614541506456,-279.462559532041 " style="fill: rgb(14,173,105); fill-opacity: 1; stroke: rgb(0,0,0); stroke-width: 3" />
	<polygon points="428.612299598655,-279.462709146489 299.385301325612,-279.462556536879 363.998988552804,-241.432351795174 " style="fill: rgb(14,173,105); fill-opacity: 1; stroke: rgb(0,0,0); stroke-width: 3" />
	<polygon points="363.998988552804,-241.432351795174 299.385301325612,-279.462556536879 362.113776040905,-166.48094460339 " style="fill: rgb(14,173,105); fill-opacity: 1; stroke: rgb(0,0,0); stroke-width: 3" />
	<polygon points="295.614541506456,-279.462559532041 231.00108462573,-241.432190710911 232.88611832012,-166.480918986809 " style="fill: rgb(14,173,105); fill-opacity: 1; stroke: rgb(0,0,0); stroke-width: 3" />
	<polygon points="295.614541506456,-279.462559532041 166.387724705958,-279.462675960212 231.00108462573,-241.432190710911 " style="fill: rgb(14,173,105); fill-opacity: 1; stroke: rgb(0,0,0); stroke-width: 3" />
	<polygon points="428.612299598655,-279.462709146489 363.998988552804,-241.432351795174 365.884506860596,-166.48095229553 " style="fill: rgb(14,173,105); fill-opacity: 1; stroke: rgb(0,0,0); stroke-width: 3" />
	<polygon points="430.497894861242,-204.511830112422 428.612299598655,-279.462709146489 365.884506860596,-166.48095229553 " style="fill: rgb(14,173,105); fill-opacity: 1; stroke: rgb(0,0,0); stroke-width: 3" />
	<polygon points="496.941751352873,-169.778347350662 428.612299598655,-279.462709146489 430.497894861242,-204.511830112422 " style="fill: rgb(14,173,105); fill-opacity: 1; stroke: rgb(0,0,0); stroke-width: 3" />
	<polygon points="101.829322385507,-389.146950175092 99.9438230211688,-464.09794649281 33.5,-498.831494024099 " style="fill: rgb(14,173,105); fill-opacity: 1; stroke: rgb(0,0,0); stroke-width: 3" />
	<polygon points="231.00108462573,-241.432190710911 166.387724705958,-279.462675960212 229.11545867252,-166.480933884536 " style="fill: rgb(14,173,105); fill-opacity: 1; stroke: rgb(0,0,0); stroke-width: 3" />
	<polygon points="166.387724705958,-279.462675960212 164.502155740011,-204.511654539071 229.11545867252,-166.480933884536 " style="fill: rgb(14,173,105); fill-opacity: 1; stroke: rgb(0,0,0); stroke-width: 3" />
	<polygon points="166.387724705958,-279.462675960212 98.058270823917,-169.778214028687 164.502155740011,-204.511654539071 " style="fill: rgb(14,173,105); fill-opacity: 1; stroke: rgb(0,0,0); stroke-width: 3" />
	<polygon points="164.502155740011,-204.511654539071 99.8885622735144,-166.481597061087 229.11545867252,-166.480933884536 " style="fill: rgb(14,173,105); fill-opacity: 1; stroke: rgb(0,0,0); stroke-width: 3" />
	<polygon points="229.11545867252,-166.480933884536 99.8885622735144,-166.481597061087 164.501784339625,-128.45092256328 " style="fill: rgb(14,173,105); fill-opacity: 1; stroke: rgb(0,0,0); stroke-width: 3" />
	<polygon points="495.111431728475,-166.481687544354 365.884506860596,-166.48095229553 430.498230633538,-128.451024978034 " style="fill: rgb(14,173,105); fill-opacity: 1; stroke: rgb(0,0,0); stroke-width: 3" />
	<polygon points="99.8885622735144,-166.481597061087 162.615980044626,-53.5 164.501784339625,-128.45092256328 " style="fill: rgb(14,173,105); fill-opacity: 1; stroke: rgb(0,0,0); stroke-width: 3" />
	<polygon points="495.111431728475,-166.481687544354 430.497894861242,-204.511830112422 365.884506860596,-166.48095229553 " style="fill: rgb(14,173,105); fill-opacity: 1; stroke: rgb(0,0,0); stroke-width: 3" />
	<polygon points="164.501374493832,-656.436650921461 162.61560603913,-731.387559374741 99.8882102055683,-618.405950134788 " style="fill: rgb(14,173,105); fill-opacity: 1; stroke: rgb(0,0,0); stroke-width: 3" />
	<polygon points="495.056121059213,-464.097923936382 493.170597860136,-389.147035729857 561.5,-498.831428439089 " style="fill: rgb(14,173,105); fill-opacity: 1; stroke: rgb(0,0,0); stroke-width: 3" />
	<polygon points="99.8882102055683,-618.405950134788 229.115143716737,-618.406678981339 164.501374493832,-656.436650921461 " style="fill: rgb(14,173,105); fill-opacity: 1; stroke: rgb(0,0,0); stroke-width: 3" />
	<polygon points="164.501809997594,-580.375939545295 229.115143716737,-618.406678981339 99.8882102055683,-618.405950134788 " style="fill: rgb(14,173,105); fill-opacity: 1; stroke: rgb(0,0,0); stroke-width: 3" />
	<polygon points="365.884932500413,-618.406592910707 495.11180408941,-618.40599453437 430.498633917788,-656.436680052893 " style="fill: rgb(14,173,105); fill-opacity: 1; stroke: rgb(0,0,0); stroke-width: 3" />
	<polygon points="365.884932500413,-618.406592910707 430.498188138967,-580.375946537139 495.11180408941,-618.40599453437 " style="fill: rgb(14,173,105); fill-opacity: 1; stroke: rgb(0,0,0); stroke-width: 3" />
	<polygon points="99.9438230211688,-464.09794649281 164.557207975186,-502.128329099504 35.3303819925236,-502.128252568544 " style="fill: rgb(14,173,105); fill-opacity: 1; stroke: rgb(0,0,0); stroke-width: 3" />
	<polygon points="166.387526433223,-505.424985271603 164.501809997594,-580.375939545295 98.0578556611436,-615.109207684896 " style="fill: rgb(14,173,105); fill-opacity: 1; stroke: rgb(0,0,0); stroke-width: 3" />
	<polygon points="166.387526433223,-505.424985271603 229.115143716737,-618.406678981339 164.501809997594,-580.375939545295 " style="fill: rgb(14,173,105); fill-opacity: 1; stroke: rgb(0,0,0); stroke-width: 3" />
	<polygon points="101.829322385507,-389.146950175092 164.557207975186,-502.128329099504 99.9438230211688,-464.09794649281 " style="fill: rgb(14,173,105); fill-opacity: 1; stroke: rgb(0,0,0); stroke-width: 3" />
	<polygon points="166.442706520378,-427.177440272771 164.557207975186,-502.128329099504 101.829322385507,-389.146950175092 " style="fill: rgb(14,173,105); fill-opacity: 1; stroke: rgb(0,0,0); stroke-width: 3" />
	<polygon points="430.442749433865,-502.128435287594 495.056121059213,-464.097923936382 559.669598284801,-502.128226913814 " style="fill: rgb(14,173,105); fill-opacity: 1; stroke: rgb(0,0,0); stroke-width: 3" />
	<polygon points="430.498188138967,-580.375946537139 428.612452014072,-505.42505248898 496.942139465991,-615.109291451143 " style="fill: rgb(14,173,105); fill-opacity: 1; stroke: rgb(0,0,0); stroke-width: 3" />
	<polygon points="430.442749433865,-502.128435287594 493.170597860136,-389.147035729857 495.056121059213,-464.097923936382 " style="fill: rgb(14,173,105); fill-opacity: 1; stroke: rgb(0,0,0); stroke-width: 3" />
	<polygon points="365.884932500413,-618.406592910707 428.612452014072,-505.42505248898 430.498188138967,-580.375946537139 " style="fill: rgb(14,173,105); fill-opacity: 1; stroke: rgb(0,0,0); stroke-width: 3" />
	<polygon points="430.442749433865,-502.128435287594 428.557225415601,-427.177439590083 493.170597860136,-389.147035729857 " style="fill: rgb(14,173,105); fill-opacity: 1; stroke: rgb(0,0,0); stroke-width: 3" />
	<polygon points="363.999128089635,-543.455598893879 428.612452014072,-505.42505248898 365.884932500413,-618.406592910707 " style="fill: rgb(14,173,105); fill-opacity: 1; stroke: rgb(0,0,0); stroke-width: 3" />
	<polygon points="232.886574036125,-392.443913914423 231.000991700169,-467.39486767417 164.557207975186,-502.128329099504 " style="fill: rgb(14,173,105); fill-opacity: 1; stroke: rgb(0,0,0); stroke-width: 3" />
	<polygon points="430.442666847981,-282.759445499482 362.113390969398,-392.443913914423 363.998827376801,-317.492969203401 " style="fill: rgb(14,173,105); fill-opacity: 1; stroke: rgb(0,0,0); stroke-width: 3" />
	<polygon points="428.557228276265,-357.710393711094 362.113390969398,-392.443913914423 430.442666847981,-282.759445499482 " style="fill: rgb(14,173,105); fill-opacity: 1; stroke: rgb(0,0,0); stroke-width: 3" />
	<polygon points="363.998827376801,-317.492969203401 362.113390969398,-392.443913914423 299.385301325612,-279.462556536879 " style="fill: rgb(14,173,105); fill-opacity: 1; stroke: rgb(0,0,0); stroke-width: 3" />
	<polygon points="299.385301325612,-279.462556536879 362.113390969398,-392.443913914423 297.49998095059,-354.41363061885 " style="fill: rgb(14,173,105); fill-opacity: 1; stroke: rgb(0,0,0); stroke-width: 3" />
	<polygon points="297.49998095059,-354.41363061885 362.113390969398,-392.443913914423 232.886574036125,-392.443913914423 " style="fill: rgb(14,173,105); fill-opacity: 1; stroke: rgb(0,0,0); stroke-width: 3" />
	<polygon points="430.442749433865,-502.128435287594 362.113390969398,-392.443913914423 428.557225415601,-427.177439590083 " style="fill: rgb(14,173,105); fill-opacity: 1; stroke: rgb(0,0,0); stroke-width: 3" />
	<polygon points="363.998856885497,-467.394876221195 362.113390969398,-392.443913914423 430.442749433865,-502.128435287594 " style="fill: rgb(14,173,105); fill-opacity: 1; stroke: rgb(0,0,0); stroke-width: 3" />
	<polygon points="231.000707437253,-543.455563584396 295.614665086256,-505.425260625091 232.885860329072,-618.406689315527 " style="fill: rgb(14,173,105); fill-opacity: 1; stroke: rgb(0,0,0); stroke-width: 3" />
	<polygon points="299.385354813088,-505.425258539681 363.999128089635,-543.455598893879 362.114285851128,-618.406617113263 " style="fill: rgb(14,173,105); fill-opacity: 1; stroke: rgb(0,0,0); stroke-width: 3" />
	<polygon points="166.387526433223,-505.424985271603 295.614665086256,-505.425260625091 231.000707437253,-543.455563584396 " style="fill: rgb(14,173,105); fill-opacity: 1; stroke: rgb(0,0,0); stroke-width: 3" />
	<polygon points="231.000991700169,-467.39486767417 295.614665086256,-505.425260625091 166.387526433223,-505.424985271603 " style="fill: rgb(14,173,105); fill-opacity: 1; stroke: rgb(0,0,0); stroke-width: 3" />
	<polygon points="299.385354813088,-505.425258539681 428.612452014072,-505.42505248898 363.999128089635,-543.455598893879 " style="fill: rgb(14,173,105); fill-opacity: 1; stroke: rgb(0,0,0); stroke-width: 3" />
	<polygon points="299.385354813088,-505.425258539681 363.998856885497,-467.394876221195 428.612452014072,-505.42505248898 " style="fill: rgb(14,173,105); fill-opacity: 1; stroke: rgb(0,0,0); stroke-width: 3" />
	<polygon points="299.385354813088,-505.425258539681 362.113390969398,-392.443913914423 363.998856885497,-467.394876221195 " style="fill: rgb(14,173,105); fill-opacity: 1; stroke: rgb(0,0,0); stroke-width: 3" />
	<polygon points="232.886574036125,-392.443913914423 295.614665086256,-505.425260625091 231.000991700169,-467.39486767417 " style="fill: rgb(14,173,105); fill-opacity: 1; stroke: rgb(0,0,0); stroke-width: 3" />
	<polygon points="232.886574036125,-392.443913914423 297.499968497464,-430.474247944006 295.614665086256,-505.425260625091 " style="fill: rgb(14,173,105); fill-opacity: 1; stroke: rgb(0,0,0); stroke-width: 3" />
	<polygon points="297.499968497464,-430.474247944006 362.113390969398,-392.443913914423 299.385354813088,-505.425258539681 " style="fill: rgb(14,173,105); fill-opacity: 1; stroke: rgb(0,0,0); stroke-width: 3" />
	<circle cx="232.886574036125" cy="-392.443913914423" r="2" style="fill: rgb(0,0,0)" />
	<circle cx="362.113390969398" cy="-392.443913914423" r="2" style="fill: rgb(0,0,0)" />
	<circle cx="297.499968497464" cy="-430.474247944006" r="2" style="fill: rgb(0,0,0)" />
	<circle cx="297.49998095059" cy="-354.41363061885" r="2" style="fill: rgb(0,0,0)" />
	<circle cx="295.614665086256" cy="-505.425260625091" r="2" style="fill: rgb(0,0,0)" />
	<circle cx="299.385354813088" cy="-505.425258539681" r="2" style="fill: rgb(0,0,0)" />
	<circle cx="295.614541506456" cy="-279.462559532041" r="2" style="fill: rgb(0,0,0)" />
	<circle cx="299.385301325612" cy="-279.462556536879" r="2" style="fill: rgb(0,0,0)" />
	<circle cx="231.000991700169" cy="-467.39486767417" r="2" style="fill: rgb(0,0,0)" />
	<circle cx="363.998856885497" cy="-467.394876221195" r="2" style="fill: rgb(0,0,0)" />
	<circle cx="231.001127330113" cy="-317.49293655201" r="2" style="fill: rgb(0,0,0)" />
	<circle cx="363.998827376801" cy="-317.492969203401" r="2" style="fill: rgb(0,0,0)" />
	<circle cx="164.557207975186" cy="-502.128329099504" r="2" style="fill: rgb(0,0,0)" />
	<circle cx="166.387526433223" cy="-505.424985271603" r="2" style="fill: rgb(0,0,0)" />
	<circle cx="430.442749433865" cy="-502.128435287594" r="2" style="fill: rgb(0,0,0)" />
	<circle cx="428.612452014072" cy="-505.42505248898" r="2" style="fill: rgb(0,0,0)" />
	<circle cx="164.557378370875" cy="-282.759368586815" r="2" style="fill: rgb(0,0,0)" />
	<circle cx="166.387724705958" cy="-279.462675960212" r="2" style="fill: rgb(0,0,0)" />
	<circle cx="428.612299598655" cy="-279.462709146489" r="2" style="fill: rgb(0,0,0)" />
	<circle cx="430.442666847981" cy="-282.759445499482" r="2" style="fill: rgb(0,0,0)" />
	<circle cx="166.442706520378" cy="-427.177440272771" r="2" style="fill: rgb(0,0,0)" />
	<circle cx="231.000707437253" cy="-543.455563584396" r="2" style="fill: rgb(0,0,0)" />
	<circle cx="428.557225415601" cy="-427.177439590083" r="2" style="fill: rgb(0,0,0)" />
	<circle cx="363.999128089635" cy="-543.455598893879" r="2" style="fill: rgb(0,0,0)" />
	<circle cx="166.442714013092" cy="-357.710373222817" r="2" style="fill: rgb(0,0,0)" />
	<circle cx="231.00108462573" cy="-241.432190710911" r="2" style="fill: rgb(0,0,0)" />
	<circle cx="363.998988552804" cy="-241.432351795174" r="2" style="fill: rgb(0,0,0)" />
	<circle cx="428.557228276265" cy="-357.710393711094" r="2" style="fill: rgb(0,0,0)" />
	<circle cx="101.829322385507" cy="-389.146950175092" r="2" style="fill: rgb(0,0,0)" />
	<circle cx="229.115143716737" cy="-618.406678981339" r="2" style="fill: rgb(0,0,0)" />
	<circle cx="232.885860329072" cy="-618.406689315527" r="2" style="fill: rgb(0,0,0)" />
	<circle cx="493.170597860136" cy="-389.147035729857" r="2" style="fill: rgb(0,0,0)" />
	<circle cx="365.884932500413" cy="-618.406592910707" r="2" style="fill: rgb(0,0,0)" />
	<circle cx="362.114285851128" cy="-618.406617113263" r="2" style="fill: rgb(0,0,0)" />
	<circle cx="232.88611832012" cy="-166.480918986809" r="2" style="fill: rgb(0,0,0)" />
	<circle cx="229.11545867252" cy="-166.480933884536" r="2" style="fill: rgb(0,0,0)" />
	<circle cx="362.113776040905" cy="-166.48094460339" r="2" style="fill: rgb(0,0,0)" />
	<circle cx="365.884506860596" cy="-166.48095229553" r="2" style="fill: rgb(0,0,0)" />
	<circle cx="99.9438230211688" cy="-464.09794649281" r="2" style="fill: rgb(0,0,0)" />
	<circle cx="164.501809997594" cy="-580.375939545295" r="2" style="fill: rgb(0,0,0)" />
	<circle cx="495.056121059213" cy="-464.097923936382" r="2" style="fill: rgb(0,0,0)" />
	<circle cx="430.498188138967" cy="-580.375946537139" r="2" style="fill: rgb(0,0,0)" />
	<circle cx="164.502155740011" cy="-204.511654539071" r="2" style="fill: rgb(0,0,0)" />
	<circle cx="430.497894861242" cy="-204.511830112422" r="2" style="fill: rgb(0,0,0)" />
	<circle cx="33.5" cy="-498.831494024099" r="2" style="fill: rgb(0,0,0)" />
	<circle cx="35.3303819925236" cy="-502.128252568544" r="2" style="fill: rgb(0,0,0)" />
	<circle cx="99.8882102055683" cy="-618.405950134788" r="2" style="fill: rgb(0,0,0)" />
	<circle cx="98.0578556611436" cy="-615.109207684896" r="2" style="fill: rgb(0,0,0)" />
	<circle cx="561.5" cy="-498.831428439089" r="2" style="fill: rgb(0,0,0)" />
	<circle cx="559.669598284801" cy="-502.128226913814" r="2" style="fill: rgb(0,0,0)" />
	<circle cx="495.11180408941" cy="-618.40599453437" r="2" style="fill: rgb(0,0,0)" />
	<circle cx="496.942139465991" cy="-615.109291451143" r="2" style="fill: rgb(0,0,0)" />
	<circle cx="98.058270823917" cy="-169.778214028687" r="2" style="fill: rgb(0,0,0)" />
	<circle cx="99.8885622735144" cy="-166.481597061087" r="2" style="fill: rgb(0,0,0)" />
	<circle cx="496.941751352873" cy="-169.778347350662" r="2" style="fill: rgb(0,0,0)" />
	<circle cx="495.111431728475" cy="-166.481687544354" r="2" style="fill: rgb(0,0,0)" />
	<circle cx="164.501374493832" cy="-656.436650921461" r="2" style="fill: rgb(0,0,0)" />
	<circle cx="430.498633917788" cy="-656.436680052893" r="2" style="fill: rgb(0,0,0)" />
	<circle cx="164.501784339625" cy="-128.45092256328" r="2" style="fill: rgb(0,0,0)" />
	<circle cx="430.498230633538" cy="-128.451024978034" r="2" style="fill: rgb(0,0,0)" />
	<circle cx="162.61560603913" cy="-731.387559374741" r="2" style="fill: rgb(0,0,0)" />
	<circle cx="162.615980044626" cy="-53.5" r="2" style="fill: rgb(0,0,0)" />
	<!--
	Generated using the Perl SVG Module V2.87
	by Ronan Oger

	-->
</svg>