<?xml version="1.0" encoding="UTF-8" standalone="yes"?>
<!DOCTYPE svg PUBLIC "-//W3C//DTD SVG 1.0//EN" "http://www.w3.org/TR/2001/REC-SVG-20010904/DTD/svg10.dtd">
<!-- generated using polymake; Michael Joswig, Georg Loho, Benjamin Lorenz, Rico Raber; license CC BY-NC-ND 3.0; see polymake.org and matchthenet.de -->
<svg height="841pt" id="document" viewBox="0 -767.887559367964 572 767.887559367964" width="595pt" xmlns="http://www.w3.org/2000/svg" xmlns:svg="http://www.w3.org/2000/svg" xmlns:xlink="http://www.w3.org/1999/xlink">
	<title id="document_title">planar_net_</title>
	<polygon points="232.886574036125,-392.44391391171 362.113390969398,-392.44391391171 297.499968497464,-430.474247941292 " style="fill: rgb(42,107,61); fill-opacity: 1; stroke: rgb(0,0,0); stroke-width: 3" />
	<polygon points="232.886574036125,-392.44391391171 295.614541506456,-279.462559529328 297.49998095059,-354.413630616136 " style="fill: rgb(42,107,61); fill-opacity: 1; stroke: rgb(0,0,0); stroke-width: 3" />
	<polygon points="232.886574036125,-392.44391391171 231.001127330113,-317.492936549296 295.614541506456,-279.462559529328 " style="fill: rgb(42,107,61); fill-opacity: 1; stroke: rgb(0,0,0); stroke-width: 3" />
	<polygon points="232.886574036125,-392.44391391171 164.557207975186,-502.12832909679 166.442706520378,-427.177440270057 " style="fill: rgb(42,107,61); fill-opacity: 1; stroke: rgb(0,0,0); stroke-width: 3" />
	<polygon points="232.886574036125,-392.44391391171 166.442714013092,-357.710373220103 164.557378370875,-282.759368584102 " style="fill: rgb(42,107,61); fill-opacity: 1; stroke: rgb(0,0,0); stroke-width: 3" />
	<polygon points="232.886574036125,-392.44391391171 164.557378370875,-282.759368584102 231.001127330113,-317.492936549296 " style="fill: rgb(42,107,61); fill-opacity: 1; stroke: rgb(0,0,0); stroke-width: 3" />
	<polygon points="166.387526433223,-505.42498526889 231.00070743329,-543.455563574949 229.115143716565,-618.406678971987 " style="fill: rgb(42,107,61); fill-opacity: 1; stroke: rgb(0,0,0); stroke-width: 3" />
	<polygon points="428.612299598654,-279.462709143776 363.998827376801,-317.492969200687 299.385301325611,-279.462556534166 " style="fill: rgb(42,107,61); fill-opacity: 1; stroke: rgb(0,0,0); stroke-width: 3" />
	<polygon points="231.001127330113,-317.492936549296 166.387724705958,-279.462675957499 295.614541506456,-279.462559529328 " style="fill: rgb(42,107,61); fill-opacity: 1; stroke: rgb(0,0,0); stroke-width: 3" />
	<polygon points="428.612299598654,-279.462709143776 299.385301325611,-279.462556534166 363.998988545653,-241.432351780311 " style="fill: rgb(42,107,61); fill-opacity: 1; stroke: rgb(0,0,0); stroke-width: 3" />
	<polygon points="363.998988545653,-241.432351780311 299.385301325611,-279.462556534166 362.113776019662,-166.480944588882 " style="fill: rgb(42,107,61); fill-opacity: 1; stroke: rgb(0,0,0); stroke-width: 3" />
	<polygon points="295.614541506456,-279.462559529328 231.00108462573,-241.432190708198 232.886118320119,-166.480918984096 " style="fill: rgb(42,107,61); fill-opacity: 1; stroke: rgb(0,0,0); stroke-width: 3" />
	<polygon points="295.614541506456,-279.462559529328 166.387724705958,-279.462675957499 231.00108462573,-241.432190708198 " style="fill: rgb(42,107,61); fill-opacity: 1; stroke: rgb(0,0,0); stroke-width: 3" />
	<polygon points="428.612299598654,-279.462709143776 363.998988545653,-241.432351780311 365.884506860286,-166.48095228084 " style="fill: rgb(42,107,61); fill-opacity: 1; stroke: rgb(0,0,0); stroke-width: 3" />
	<polygon points="430.497894859301,-204.511830100503 428.612299598654,-279.462709143776 365.884506860286,-166.48095228084 " style="fill: rgb(42,107,61); fill-opacity: 1; stroke: rgb(0,0,0); stroke-width: 3" />
	<polygon points="496.941751349926,-169.778347336818 428.612299598654,-279.462709143776 430.497894859301,-204.511830100503 " style="fill: rgb(42,107,61); fill-opacity: 1; stroke: rgb(0,0,0); stroke-width: 3" />
	<polygon points="101.829322385507,-389.146950172378 99.9438230211688,-464.097946490096 33.5,-498.831494021385 " style="fill: rgb(42,107,61); fill-opacity: 1; stroke: rgb(0,0,0); stroke-width: 3" />
	<polygon points="231.00108462573,-241.432190708198 166.387724705958,-279.462675957499 229.11545867252,-166.480933881823 " style="fill: rgb(42,107,61); fill-opacity: 1; stroke: rgb(0,0,0); stroke-width: 3" />
	<polygon points="166.387724705958,-279.462675957499 164.502155740011,-204.511654536357 229.11545867252,-166.480933881823 " style="fill: rgb(42,107,61); fill-opacity: 1; stroke: rgb(0,0,0); stroke-width: 3" />
	<polygon points="166.387724705958,-279.462675957499 98.0582708239169,-169.778214025974 164.502155740011,-204.511654536357 " style="fill: rgb(42,107,61); fill-opacity: 1; stroke: rgb(0,0,0); stroke-width: 3" />
	<polygon points="164.502155740011,-204.511654536357 99.8885622735145,-166.481597058373 229.11545867252,-166.480933881823 " style="fill: rgb(42,107,61); fill-opacity: 1; stroke: rgb(0,0,0); stroke-width: 3" />
	<polygon points="229.11545867252,-166.480933881823 99.8885622735145,-166.481597058373 164.50178434127,-128.450922563361 " style="fill: rgb(42,107,61); fill-opacity: 1; stroke: rgb(0,0,0); stroke-width: 3" />
	<polygon points="495.111431728165,-166.481687535207 365.884506860286,-166.48095228084 430.498230634712,-128.451024965866 " style="fill: rgb(42,107,61); fill-opacity: 1; stroke: rgb(0,0,0); stroke-width: 3" />
	<polygon points="99.8885622735145,-166.481597058373 162.615980049514,-53.5 164.50178434127,-128.450922563361 " style="fill: rgb(42,107,61); fill-opacity: 1; stroke: rgb(0,0,0); stroke-width: 3" />
	<polygon points="495.111431728165,-166.481687535207 430.497894859301,-204.511830100503 365.884506860286,-166.48095228084 " style="fill: rgb(42,107,61); fill-opacity: 1; stroke: rgb(0,0,0); stroke-width: 3" />
	<polygon points="164.501374495157,-656.436650914654 162.615606041669,-731.387559367964 99.888210205396,-618.405950128508 " style="fill: rgb(42,107,61); fill-opacity: 1; stroke: rgb(0,0,0); stroke-width: 3" />
	<polygon points="495.056121059213,-464.097923933669 493.170597860136,-389.147035727144 561.5,-498.831428436376 " style="fill: rgb(42,107,61); fill-opacity: 1; stroke: rgb(0,0,0); stroke-width: 3" />
	<polygon points="99.888210205396,-618.405950128508 229.115143716565,-618.406678971987 164.501374495157,-656.436650914654 " style="fill: rgb(42,107,61); fill-opacity: 1; stroke: rgb(0,0,0); stroke-width: 3" />
	<polygon points="164.501809996518,-580.375939537479 229.115143716565,-618.406678971987 99.888210205396,-618.405950128508 " style="fill: rgb(42,107,61); fill-opacity: 1; stroke: rgb(0,0,0); stroke-width: 3" />
	<polygon points="365.884932500413,-618.406592907994 495.11180408941,-618.405994531657 430.498633917788,-656.43668005018 " style="fill: rgb(42,107,61); fill-opacity: 1; stroke: rgb(0,0,0); stroke-width: 3" />
	<polygon points="365.884932500413,-618.406592907994 430.498188138967,-580.375946534425 495.11180408941,-618.405994531657 " style="fill: rgb(42,107,61); fill-opacity: 1; stroke: rgb(0,0,0); stroke-width: 3" />
	<polygon points="99.9438230211688,-464.097946490096 164.557207975186,-502.12832909679 35.3303819925235,-502.12825256583 " style="fill: rgb(42,107,61); fill-opacity: 1; stroke: rgb(0,0,0); stroke-width: 3" />
	<polygon points="166.387526433223,-505.42498526889 164.501809996518,-580.375939537479 98.0578556595097,-615.109207676013 " style="fill: rgb(42,107,61); fill-opacity: 1; stroke: rgb(0,0,0); stroke-width: 3" />
	<polygon points="166.387526433223,-505.42498526889 229.115143716565,-618.406678971987 164.501809996518,-580.375939537479 " style="fill: rgb(42,107,61); fill-opacity: 1; stroke: rgb(0,0,0); stroke-width: 3" />
	<polygon points="101.829322385507,-389.146950172378 164.557207975186,-502.12832909679 99.9438230211688,-464.097946490096 " style="fill: rgb(42,107,61); fill-opacity: 1; stroke: rgb(0,0,0); stroke-width: 3" />
	<polygon points="166.442706520378,-427.177440270057 164.557207975186,-502.12832909679 101.829322385507,-389.146950172378 " style="fill: rgb(42,107,61); fill-opacity: 1; stroke: rgb(0,0,0); stroke-width: 3" />
	<polygon points="430.442749433865,-502.128435284881 495.056121059213,-464.097923933669 559.669598284801,-502.128226911101 " style="fill: rgb(42,107,61); fill-opacity: 1; stroke: rgb(0,0,0); stroke-width: 3" />
	<polygon points="430.498188138967,-580.375946534425 428.612452014072,-505.425052486266 496.942139465991,-615.109291448429 " style="fill: rgb(42,107,61); fill-opacity: 1; stroke: rgb(0,0,0); stroke-width: 3" />
	<polygon points="430.442749433865,-502.128435284881 493.170597860136,-389.147035727144 495.056121059213,-464.097923933669 " style="fill: rgb(42,107,61); fill-opacity: 1; stroke: rgb(0,0,0); stroke-width: 3" />
	<polygon points="365.884932500413,-618.406592907994 428.612452014072,-505.425052486266 430.498188138967,-580.375946534425 " style="fill: rgb(42,107,61); fill-opacity: 1; stroke: rgb(0,0,0); stroke-width: 3" />
	<polygon points="430.442749433865,-502.128435284881 428.557225415601,-427.177439587369 493.170597860136,-389.147035727144 " style="fill: rgb(42,107,61); fill-opacity: 1; stroke: rgb(0,0,0); stroke-width: 3" />
	<polygon points="363.999128089635,-543.455598891165 428.612452014072,-505.425052486266 365.884932500413,-618.406592907994 " style="fill: rgb(42,107,61); fill-opacity: 1; stroke: rgb(0,0,0); stroke-width: 3" />
	<polygon points="232.886574036125,-392.44391391171 231.000991700169,-467.394867671456 164.557207975186,-502.12832909679 " style="fill: rgb(42,107,61); fill-opacity: 1; stroke: rgb(0,0,0); stroke-width: 3" />
	<polygon points="430.442666847981,-282.759445496768 362.113390969398,-392.44391391171 363.998827376801,-317.492969200687 " style="fill: rgb(42,107,61); fill-opacity: 1; stroke: rgb(0,0,0); stroke-width: 3" />
	<polygon points="428.557228276265,-357.710393708381 362.113390969398,-392.44391391171 430.442666847981,-282.759445496768 " style="fill: rgb(42,107,61); fill-opacity: 1; stroke: rgb(0,0,0); stroke-width: 3" />
	<polygon points="363.998827376801,-317.492969200687 362.113390969398,-392.44391391171 299.385301325611,-279.462556534166 " style="fill: rgb(42,107,61); fill-opacity: 1; stroke: rgb(0,0,0); stroke-width: 3" />
	<polygon points="299.385301325611,-279.462556534166 362.113390969398,-392.44391391171 297.49998095059,-354.413630616136 " style="fill: rgb(42,107,61); fill-opacity: 1; stroke: rgb(0,0,0); stroke-width: 3" />
	<polygon points="297.49998095059,-354.413630616136 362.113390969398,-392.44391391171 232.886574036125,-392.44391391171 " style="fill: rgb(42,107,61); fill-opacity: 1; stroke: rgb(0,0,0); stroke-width: 3" />
	<polygon points="430.442749433865,-502.128435284881 362.113390969398,-392.44391391171 428.557225415601,-427.177439587369 " style="fill: rgb(42,107,61); fill-opacity: 1; stroke: rgb(0,0,0); stroke-width: 3" />
	<polygon points="363.998856885497,-467.394876218482 362.113390969398,-392.44391391171 430.442749433865,-502.128435284881 " style="fill: rgb(42,107,61); fill-opacity: 1; stroke: rgb(0,0,0); stroke-width: 3" />
	<polygon points="231.00070743329,-543.455563574949 295.614665086256,-505.425260622377 232.885860317299,-618.406689306277 " style="fill: rgb(42,107,61); fill-opacity: 1; stroke: rgb(0,0,0); stroke-width: 3" />
	<polygon points="299.385354813088,-505.425258536968 363.999128089635,-543.455598891165 362.114285851128,-618.40661711055 " style="fill: rgb(42,107,61); fill-opacity: 1; stroke: rgb(0,0,0); stroke-width: 3" />
	<polygon points="166.387526433223,-505.42498526889 295.614665086256,-505.425260622377 231.00070743329,-543.455563574949 " style="fill: rgb(42,107,61); fill-opacity: 1; stroke: rgb(0,0,0); stroke-width: 3" />
	<polygon points="231.000991700169,-467.394867671456 295.614665086256,-505.425260622377 166.387526433223,-505.42498526889 " style="fill: rgb(42,107,61); fill-opacity: 1; stroke: rgb(0,0,0); stroke-width: 3" />
	<polygon points="299.385354813088,-505.425258536968 428.612452014072,-505.425052486266 363.999128089635,-543.455598891165 " style="fill: rgb(42,107,61); fill-opacity: 1; stroke: rgb(0,0,0); stroke-width: 3" />
	<polygon points="299.385354813088,-505.425258536968 363.998856885497,-467.394876218482 428.612452014072,-505.425052486266 " style="fill: rgb(42,107,61); fill-opacity: 1; stroke: rgb(0,0,0); stroke-width: 3" />
	<polygon points="299.385354813088,-505.425258536968 362.113390969398,-392.44391391171 363.998856885497,-467.394876218482 " style="fill: rgb(42,107,61); fill-opacity: 1; stroke: rgb(0,0,0); stroke-width: 3" />
	<polygon points="232.886574036125,-392.44391391171 295.614665086256,-505.425260622377 231.000991700169,-467.394867671456 " style="fill: rgb(42,107,61); fill-opacity: 1; stroke: rgb(0,0,0); stroke-width: 3" />
	<polygon points="232.886574036125,-392.44391391171 297.499968497464,-430.474247941292 295.614665086256,-505.425260622377 " style="fill: rgb(42,107,61); fill-opacity: 1; stroke: rgb(0,0,0); stroke-width: 3" />
	<polygon points="297.499968497464,-430.474247941292 362.113390969398,-392.44391391171 299.385354813088,-505.425258536968 " style="fill: rgb(42,107,61); fill-opacity: 1; stroke: rgb(0,0,0); stroke-width: 3" />
	<circle cx="232.886574036125" cy="-392.44391391171" r="2" style="fill: rgb(0,0,0)" />
	<circle cx="362.113390969398" cy="-392.44391391171" r="2" style="fill: rgb(0,0,0)" />
	<circle cx="297.499968497464" cy="-430.474247941292" r="2" style="fill: rgb(0,0,0)" />
	<circle cx="297.49998095059" cy="-354.413630616136" r="2" style="fill: rgb(0,0,0)" />
	<circle cx="295.614665086256" cy="-505.425260622377" r="2" style="fill: rgb(0,0,0)" />
	<circle cx="299.385354813088" cy="-505.425258536968" r="2" style="fill: rgb(0,0,0)" />
	<circle cx="295.614541506456" cy="-279.462559529328" r="2" style="fill: rgb(0,0,0)" />
	<circle cx="299.385301325611" cy="-279.462556534166" r="2" style="fill: rgb(0,0,0)" />
	<circle cx="231.000991700169" cy="-467.394867671456" r="2" style="fill: rgb(0,0,0)" />
	<circle cx="363.998856885497" cy="-467.394876218482" r="2" style="fill: rgb(0,0,0)" />
	<circle cx="231.001127330113" cy="-317.492936549296" r="2" style="fill: rgb(0,0,0)" />
	<circle cx="363.998827376801" cy="-317.492969200687" r="2" style="fill: rgb(0,0,0)" />
	<circle cx="164.557207975186" cy="-502.12832909679" r="2" style="fill: rgb(0,0,0)" />
	<circle cx="166.387526433223" cy="-505.42498526889" r="2" style="fill: rgb(0,0,0)" />
	<circle cx="430.442749433865" cy="-502.128435284881" r="2" style="fill: rgb(0,0,0)" />
	<circle cx="428.612452014072" cy="-505.425052486266" r="2" style="fill: rgb(0,0,0)" />
	<circle cx="164.557378370875" cy="-282.759368584102" r="2" style="fill: rgb(0,0,0)" />
	<circle cx="166.387724705958" cy="-279.462675957499" r="2" style="fill: rgb(0,0,0)" />
	<circle cx="428.612299598654" cy="-279.462709143776" r="2" style="fill: rgb(0,0,0)" />
	<circle cx="430.442666847981" cy="-282.759445496768" r="2" style="fill: rgb(0,0,0)" />
	<circle cx="166.442706520378" cy="-427.177440270057" r="2" style="fill: rgb(0,0,0)" />
	<circle cx="231.00070743329" cy="-543.455563574949" r="2" style="fill: rgb(0,0,0)" />
	<circle cx="428.557225415601" cy="-427.177439587369" r="2" style="fill: rgb(0,0,0)" />
	<circle cx="363.999128089635" cy="-543.455598891165" r="2" style="fill: rgb(0,0,0)" />
	<circle cx="166.442714013092" cy="-357.710373220103" r="2" style="fill: rgb(0,0,0)" />
	<circle cx="231.00108462573" cy="-241.432190708198" r="2" style="fill: rgb(0,0,0)" />
	<circle cx="363.998988545653" cy="-241.432351780311" r="2" style="fill: rgb(0,0,0)" />
	<circle cx="428.557228276265" cy="-357.710393708381" r="2" style="fill: rgb(0,0,0)" />
	<circle cx="101.829322385507" cy="-389.146950172378" r="2" style="fill: rgb(0,0,0)" />
	<circle cx="229.115143716565" cy="-618.406678971987" r="2" style="fill: rgb(0,0,0)" />
	<circle cx="232.885860317299" cy="-618.406689306277" r="2" style="fill: rgb(0,0,0)" />
	<circle cx="493.170597860136" cy="-389.147035727144" r="2" style="fill: rgb(0,0,0)" />
	<circle cx="365.884932500413" cy="-618.406592907994" r="2" style="fill: rgb(0,0,0)" />
	<circle cx="362.114285851128" cy="-618.40661711055" r="2" style="fill: rgb(0,0,0)" />
	<circle cx="232.886118320119" cy="-166.480918984096" r="2" style="fill: rgb(0,0,0)" />
	<circle cx="229.11545867252" cy="-166.480933881823" r="2" style="fill: rgb(0,0,0)" />
	<circle cx="362.113776019662" cy="-166.480944588882" r="2" style="fill: rgb(0,0,0)" />
	<circle cx="365.884506860286" cy="-166.48095228084" r="2" style="fill: rgb(0,0,0)" />
	<circle cx="99.9438230211688" cy="-464.097946490096" r="2" style="fill: rgb(0,0,0)" />
	<circle cx="164.501809996518" cy="-580.375939537479" r="2" style="fill: rgb(0,0,0)" />
	<circle cx="495.056121059213" cy="-464.097923933669" r="2" style="fill: rgb(0,0,0)" />
	<circle cx="430.498188138967" cy="-580.375946534425" r="2" style="fill: rgb(0,0,0)" />
	<circle cx="164.502155740011" cy="-204.511654536357" r="2" style="fill: rgb(0,0,0)" />
	<circle cx="430.497894859301" cy="-204.511830100503" r="2" style="fill: rgb(0,0,0)" />
	<circle cx="33.5" cy="-498.831494021385" r="2" style="fill: rgb(0,0,0)" />
	<circle cx="35.3303819925235" cy="-502.12825256583" r="2" style="fill: rgb(0,0,0)" />
	<circle cx="99.888210205396" cy="-618.405950128508" r="2" style="fill: rgb(0,0,0)" />
	<circle cx="98.0578556595097" cy="-615.109207676013" r="2" style="fill: rgb(0,0,0)" />
	<circle cx="561.5" cy="-498.831428436376" r="2" style="fill: rgb(0,0,0)" />
	<circle cx="559.669598284801" cy="-502.128226911101" r="2" style="fill: rgb(0,0,0)" />
	<circle cx="495.11180408941" cy="-618.405994531657" r="2" style="fill: rgb(0,0,0)" />
	<circle cx="496.942139465991" cy="-615.109291448429" r="2" style="fill: rgb(0,0,0)" />
	<circle cx="98.0582708239169" cy="-169.778214025974" r="2" style="fill: rgb(0,0,0)" />
	<circle cx="99.8885622735145" cy="-166.481597058373" r="2" style="fill: rgb(0,0,0)" />
	<circle cx="496.941751349926" cy="-169.778347336818" r="2" style="fill: rgb(0,0,0)" />
	<circle cx="495.111431728165" cy="-166.481687535207" r="2" style="fill: rgb(0,0,0)" />
	<circle cx="164.501374495157" cy="-656.436650914654" r="2" style="fill: rgb(0,0,0)" />
	<circle cx="430.498633917788" cy="-656.43668005018" r="2" style="fill: rgb(0,0,0)" />
	<circle cx="164.50178434127" cy="-128.450922563361" r="2" style="fill: rgb(0,0,0)" />
	<circle cx="430.498230634712" cy="-128.451024965866" r="2" style="fill: rgb(0,0,0)" />
	<circle cx="162.615606041669" cy="-731.387559367964" r="2" style="fill: rgb(0,0,0)" />
	<circle cx="162.615980049514" cy="-53.5" r="2" style="fill: rgb(0,0,0)" />
	<!--
	Generated using the Perl SVG Module V2.84
	by Ronan Oger
	Info: http://www.roitsystems.com/
	-->
</svg>