<?xml version="1.0" encoding="UTF-8" standalone="yes"?>
<!DOCTYPE svg PUBLIC "-//W3C//DTD SVG 1.0//EN" "http://www.w3.org/TR/2001/REC-SVG-20010904/DTD/svg10.dtd">
<!-- generated using polymake; Michael Joswig, Georg Loho, Benjamin Lorenz, Rico Raber; license CC BY-NC-ND 3.0; see polymake.org and matchthenet.de -->
<svg height="841pt" id="document" viewBox="0 -811 504.695778729969 811" width="595pt" xmlns="http://www.w3.org/2000/svg" xmlns:svg="http://www.w3.org/2000/svg" xmlns:xlink="http://www.w3.org/1999/xlink">
	<title id="document_title">planar_net_</title>
	<polygon points="173.708546215385,-368.167013887693 328.753012254272,-368.167013887693 328.835394883346,-375.009301732206 251.387375420527,-502.031204975646 233.536319630089,-507.228656435038 " style="fill: rgb(14,173,105); fill-opacity: 1; stroke: rgb(0,0,0); stroke-width: 3" />
	<polygon points="58.2456534855305,-569.535399135384 118.8906644671,-602.643299930742 33.5,-675.118633760248 55.8498021394131,-573.081331508085 " style="fill: rgb(14,173,105); fill-opacity: 1; stroke: rgb(0,0,0); stroke-width: 3" />
	<polygon points="371.702407849442,-245.341450588764 328.753012254272,-368.167013887693 173.708546215385,-368.167013887693 145.936626790985,-295.408232322219 307.193262222856,-194.68368752787 " style="fill: rgb(14,173,105); fill-opacity: 1; stroke: rgb(0,0,0); stroke-width: 3" />
	<polygon points="173.708546215385,-368.167013887693 233.536319630089,-507.228656435038 124.212338865176,-601.960038705641 118.8906644671,-602.643299930742 58.2456534855305,-569.535399135384 96.1119585531315,-374.791920421517 " style="fill: rgb(14,173,105); fill-opacity: 1; stroke: rgb(0,0,0); stroke-width: 3" />
	<polygon points="145.936626790985,-295.408232322219 107.125032090742,-100.850940816928 111.301286218211,-99.9167879775866 258.356905248348,-124.892803654152 307.193262222856,-194.68368752787 " style="fill: rgb(14,173,105); fill-opacity: 1; stroke: rgb(0,0,0); stroke-width: 3" />
	<polygon points="251.387375420527,-502.031204975646 328.835394883346,-375.009301732206 397.732788790441,-514.431297525739 377.887097328163,-525.197689310919 " style="fill: rgb(14,173,105); fill-opacity: 1; stroke: rgb(0,0,0); stroke-width: 3" />
	<polygon points="328.835394883346,-375.009301732206 328.753012254272,-368.167013887693 456.243030022212,-342.146542116006 477.516945188375,-445.426650438932 451.831372299285,-481.141956034839 430.039619503882,-493.089989048956 " style="fill: rgb(14,173,105); fill-opacity: 1; stroke: rgb(0,0,0); stroke-width: 3" />
	<polygon points="233.536319630089,-507.228656435038 251.387375420527,-502.031204975646 363.934877549016,-564.25600231406 243.248807828456,-651.559648014057 " style="fill: rgb(14,173,105); fill-opacity: 1; stroke: rgb(0,0,0); stroke-width: 3" />
	<polygon points="238.225268584091,-53.5 258.356905248348,-124.892803654152 111.301286218211,-99.9167879775866 205.533428747846,-54.8454221136281 " style="fill: rgb(14,173,105); fill-opacity: 1; stroke: rgb(0,0,0); stroke-width: 3" />
	<polygon points="218.740631582996,-739.045483119351 202.605248838011,-757.947477894381 162.582358393256,-774.5 103.631561464814,-744.437059918187 96.7866484626471,-712.441533378752 118.8906644671,-602.643299930742 124.212338865176,-601.960038705641 219.461818972048,-716.478991357496 " style="fill: rgb(14,173,105); fill-opacity: 1; stroke: rgb(0,0,0); stroke-width: 3" />
	<polygon points="442.872602690177,-167.532944575414 371.702407849442,-245.341450588764 307.193262222856,-194.68368752787 343.131671409876,-117.455532172956 407.886928761844,-81.2758161200962 444.930744813097,-136.109496620504 " style="fill: rgb(14,173,105); fill-opacity: 1; stroke: rgb(0,0,0); stroke-width: 3" />
	<polygon points="451.831372299285,-481.141956034839 477.516945188375,-445.426650438932 494.195778729969,-472.137800583857 " style="fill: rgb(14,173,105); fill-opacity: 1; stroke: rgb(0,0,0); stroke-width: 3" />
	<circle cx="173.708546215385" cy="-368.167013887693" r="2" style="fill: rgb(0,0,0)" />
	<circle cx="328.753012254272" cy="-368.167013887693" r="2" style="fill: rgb(0,0,0)" />
	<circle cx="328.835394883346" cy="-375.009301732206" r="2" style="fill: rgb(0,0,0)" />
	<circle cx="251.387375420527" cy="-502.031204975646" r="2" style="fill: rgb(0,0,0)" />
	<circle cx="233.536319630089" cy="-507.228656435038" r="2" style="fill: rgb(0,0,0)" />
	<circle cx="145.936626790985" cy="-295.408232322219" r="2" style="fill: rgb(0,0,0)" />
	<circle cx="307.193262222856" cy="-194.68368752787" r="2" style="fill: rgb(0,0,0)" />
	<circle cx="371.702407849442" cy="-245.341450588764" r="2" style="fill: rgb(0,0,0)" />
	<circle cx="124.212338865176" cy="-601.960038705641" r="2" style="fill: rgb(0,0,0)" />
	<circle cx="118.8906644671" cy="-602.643299930742" r="2" style="fill: rgb(0,0,0)" />
	<circle cx="58.2456534855305" cy="-569.535399135384" r="2" style="fill: rgb(0,0,0)" />
	<circle cx="96.1119585531315" cy="-374.791920421517" r="2" style="fill: rgb(0,0,0)" />
	<circle cx="397.732788790441" cy="-514.431297525739" r="2" style="fill: rgb(0,0,0)" />
	<circle cx="377.887097328163" cy="-525.197689310919" r="2" style="fill: rgb(0,0,0)" />
	<circle cx="456.243030022212" cy="-342.146542116006" r="2" style="fill: rgb(0,0,0)" />
	<circle cx="477.516945188375" cy="-445.426650438932" r="2" style="fill: rgb(0,0,0)" />
	<circle cx="451.831372299285" cy="-481.141956034839" r="2" style="fill: rgb(0,0,0)" />
	<circle cx="430.039619503882" cy="-493.089989048956" r="2" style="fill: rgb(0,0,0)" />
	<circle cx="363.934877549016" cy="-564.25600231406" r="2" style="fill: rgb(0,0,0)" />
	<circle cx="243.248807828456" cy="-651.559648014057" r="2" style="fill: rgb(0,0,0)" />
	<circle cx="107.125032090742" cy="-100.850940816928" r="2" style="fill: rgb(0,0,0)" />
	<circle cx="111.301286218211" cy="-99.9167879775866" r="2" style="fill: rgb(0,0,0)" />
	<circle cx="258.356905248348" cy="-124.892803654152" r="2" style="fill: rgb(0,0,0)" />
	<circle cx="343.131671409876" cy="-117.455532172956" r="2" style="fill: rgb(0,0,0)" />
	<circle cx="407.886928761844" cy="-81.2758161200962" r="2" style="fill: rgb(0,0,0)" />
	<circle cx="444.930744813097" cy="-136.109496620504" r="2" style="fill: rgb(0,0,0)" />
	<circle cx="442.872602690177" cy="-167.532944575414" r="2" style="fill: rgb(0,0,0)" />
	<circle cx="33.5" cy="-675.118633760248" r="2" style="fill: rgb(0,0,0)" />
	<circle cx="55.8498021394131" cy="-573.081331508085" r="2" style="fill: rgb(0,0,0)" />
	<circle cx="219.461818972048" cy="-716.478991357496" r="2" style="fill: rgb(0,0,0)" />
	<circle cx="218.740631582996" cy="-739.045483119351" r="2" style="fill: rgb(0,0,0)" />
	<circle cx="202.605248838011" cy="-757.947477894381" r="2" style="fill: rgb(0,0,0)" />
	<circle cx="162.582358393256" cy="-774.5" r="2" style="fill: rgb(0,0,0)" />
	<circle cx="103.631561464814" cy="-744.437059918187" r="2" style="fill: rgb(0,0,0)" />
	<circle cx="96.7866484626471" cy="-712.441533378752" r="2" style="fill: rgb(0,0,0)" />
	<circle cx="494.195778729969" cy="-472.137800583857" r="2" style="fill: rgb(0,0,0)" />
	<circle cx="205.533428747846" cy="-54.8454221136281" r="2" style="fill: rgb(0,0,0)" />
	<circle cx="238.225268584091" cy="-53.5" r="2" style="fill: rgb(0,0,0)" />
	<!--
	Generated using the Perl SVG Module V2.87
	by Ronan Oger

	-->
</svg>