<?xml version="1.0" encoding="UTF-8" standalone="yes"?>
<!DOCTYPE svg PUBLIC "-//W3C//DTD SVG 1.0//EN" "http://www.w3.org/TR/2001/REC-SVG-20010904/DTD/svg10.dtd">
<!-- generated using polymake; Michael Joswig, Georg Loho, Benjamin Lorenz, Rico Raber; license CC BY-NC-ND 3.0; see polymake.org and matchthenet.de -->
<svg height="841pt" id="document" viewBox="0 -811 504.695778729963 811" width="595pt" xmlns="http://www.w3.org/2000/svg" xmlns:svg="http://www.w3.org/2000/svg" xmlns:xlink="http://www.w3.org/1999/xlink">
	<title id="document_title">planar_net_</title>
	<polygon points="173.708546215381,-368.167013887693 328.753012254268,-368.167013887693 328.835394883342,-375.009301732206 251.387375420524,-502.031204975646 233.536319630087,-507.228656435038 " style="fill: rgb(186,59,38); fill-opacity: 1; stroke: rgb(0,0,0); stroke-width: 3" />
	<polygon points="58.2456534855294,-569.535399135385 118.8906644671,-602.643299930743 33.5,-675.118633760249 55.8498021394119,-573.081331508086 " style="fill: rgb(186,59,38); fill-opacity: 1; stroke: rgb(0,0,0); stroke-width: 3" />
	<polygon points="371.702407849438,-245.341450588763 328.753012254268,-368.167013887693 173.708546215381,-368.167013887693 145.936626790981,-295.408232322219 307.193262222852,-194.68368752787 " style="fill: rgb(186,59,38); fill-opacity: 1; stroke: rgb(0,0,0); stroke-width: 3" />
	<polygon points="173.708546215381,-368.167013887693 233.536319630087,-507.228656435038 124.212338865175,-601.960038705642 118.8906644671,-602.643299930743 58.2456534855294,-569.535399135385 96.1119585531279,-374.791920421517 " style="fill: rgb(186,59,38); fill-opacity: 1; stroke: rgb(0,0,0); stroke-width: 3" />
	<polygon points="145.936626790981,-295.408232322219 107.125032090739,-100.850940816927 111.301286218207,-99.9167879775863 258.356905248344,-124.892803654152 307.193262222852,-194.68368752787 " style="fill: rgb(186,59,38); fill-opacity: 1; stroke: rgb(0,0,0); stroke-width: 3" />
	<polygon points="251.387375420524,-502.031204975646 328.835394883342,-375.009301732206 397.732788790438,-514.431297525738 377.88709732816,-525.197689310918 " style="fill: rgb(186,59,38); fill-opacity: 1; stroke: rgb(0,0,0); stroke-width: 3" />
	<polygon points="328.835394883342,-375.009301732206 328.753012254268,-368.167013887693 456.243030022209,-342.146542116009 477.516945188369,-445.426650438936 451.831372299278,-481.141956034842 430.039619503875,-493.08998904896 " style="fill: rgb(186,59,38); fill-opacity: 1; stroke: rgb(0,0,0); stroke-width: 3" />
	<polygon points="233.536319630087,-507.228656435038 251.387375420524,-502.031204975646 363.934877549014,-564.256002314058 243.248807828461,-651.559648014055 " style="fill: rgb(186,59,38); fill-opacity: 1; stroke: rgb(0,0,0); stroke-width: 3" />
	<polygon points="238.225268584088,-53.5 258.356905248344,-124.892803654152 111.301286218207,-99.9167879775863 205.533428747842,-54.8454221136279 " style="fill: rgb(186,59,38); fill-opacity: 1; stroke: rgb(0,0,0); stroke-width: 3" />
	<polygon points="218.740631582995,-739.045483119351 202.605248838011,-757.947477894381 162.582358393256,-774.5 103.631561464813,-744.437059918188 96.7866484626472,-712.441533378752 118.8906644671,-602.643299930743 124.212338865175,-601.960038705642 219.461818972047,-716.478991357497 " style="fill: rgb(186,59,38); fill-opacity: 1; stroke: rgb(0,0,0); stroke-width: 3" />
	<polygon points="442.872602690173,-167.532944575414 371.702407849438,-245.341450588763 307.193262222852,-194.68368752787 343.131671409872,-117.455532172956 407.88692876184,-81.2758161200959 444.930744813093,-136.109496620503 " style="fill: rgb(186,59,38); fill-opacity: 1; stroke: rgb(0,0,0); stroke-width: 3" />
	<polygon points="451.831372299278,-481.141956034842 477.516945188369,-445.426650438936 494.195778729963,-472.137800583862 " style="fill: rgb(186,59,38); fill-opacity: 1; stroke: rgb(0,0,0); stroke-width: 3" />
	<circle cx="173.708546215381" cy="-368.167013887693" r="2" style="fill: rgb(0,0,0)" />
	<circle cx="328.753012254268" cy="-368.167013887693" r="2" style="fill: rgb(0,0,0)" />
	<circle cx="328.835394883342" cy="-375.009301732206" r="2" style="fill: rgb(0,0,0)" />
	<circle cx="251.387375420524" cy="-502.031204975646" r="2" style="fill: rgb(0,0,0)" />
	<circle cx="233.536319630087" cy="-507.228656435038" r="2" style="fill: rgb(0,0,0)" />
	<circle cx="145.936626790981" cy="-295.408232322219" r="2" style="fill: rgb(0,0,0)" />
	<circle cx="307.193262222852" cy="-194.68368752787" r="2" style="fill: rgb(0,0,0)" />
	<circle cx="371.702407849438" cy="-245.341450588763" r="2" style="fill: rgb(0,0,0)" />
	<circle cx="124.212338865175" cy="-601.960038705642" r="2" style="fill: rgb(0,0,0)" />
	<circle cx="118.8906644671" cy="-602.643299930743" r="2" style="fill: rgb(0,0,0)" />
	<circle cx="58.2456534855294" cy="-569.535399135385" r="2" style="fill: rgb(0,0,0)" />
	<circle cx="96.1119585531279" cy="-374.791920421517" r="2" style="fill: rgb(0,0,0)" />
	<circle cx="397.732788790438" cy="-514.431297525738" r="2" style="fill: rgb(0,0,0)" />
	<circle cx="377.88709732816" cy="-525.197689310918" r="2" style="fill: rgb(0,0,0)" />
	<circle cx="456.243030022209" cy="-342.146542116009" r="2" style="fill: rgb(0,0,0)" />
	<circle cx="477.516945188369" cy="-445.426650438936" r="2" style="fill: rgb(0,0,0)" />
	<circle cx="451.831372299278" cy="-481.141956034842" r="2" style="fill: rgb(0,0,0)" />
	<circle cx="430.039619503875" cy="-493.08998904896" r="2" style="fill: rgb(0,0,0)" />
	<circle cx="363.934877549014" cy="-564.256002314058" r="2" style="fill: rgb(0,0,0)" />
	<circle cx="243.248807828461" cy="-651.559648014055" r="2" style="fill: rgb(0,0,0)" />
	<circle cx="107.125032090739" cy="-100.850940816927" r="2" style="fill: rgb(0,0,0)" />
	<circle cx="111.301286218207" cy="-99.9167879775863" r="2" style="fill: rgb(0,0,0)" />
	<circle cx="258.356905248344" cy="-124.892803654152" r="2" style="fill: rgb(0,0,0)" />
	<circle cx="343.131671409872" cy="-117.455532172956" r="2" style="fill: rgb(0,0,0)" />
	<circle cx="407.88692876184" cy="-81.2758161200959" r="2" style="fill: rgb(0,0,0)" />
	<circle cx="444.930744813093" cy="-136.109496620503" r="2" style="fill: rgb(0,0,0)" />
	<circle cx="442.872602690173" cy="-167.532944575414" r="2" style="fill: rgb(0,0,0)" />
	<circle cx="33.5" cy="-675.118633760249" r="2" style="fill: rgb(0,0,0)" />
	<circle cx="55.8498021394119" cy="-573.081331508086" r="2" style="fill: rgb(0,0,0)" />
	<circle cx="219.461818972047" cy="-716.478991357497" r="2" style="fill: rgb(0,0,0)" />
	<circle cx="218.740631582995" cy="-739.045483119351" r="2" style="fill: rgb(0,0,0)" />
	<circle cx="202.605248838011" cy="-757.947477894381" r="2" style="fill: rgb(0,0,0)" />
	<circle cx="162.582358393256" cy="-774.5" r="2" style="fill: rgb(0,0,0)" />
	<circle cx="103.631561464813" cy="-744.437059918188" r="2" style="fill: rgb(0,0,0)" />
	<circle cx="96.7866484626472" cy="-712.441533378752" r="2" style="fill: rgb(0,0,0)" />
	<circle cx="494.195778729963" cy="-472.137800583862" r="2" style="fill: rgb(0,0,0)" />
	<circle cx="205.533428747842" cy="-54.8454221136279" r="2" style="fill: rgb(0,0,0)" />
	<circle cx="238.225268584088" cy="-53.5" r="2" style="fill: rgb(0,0,0)" />
	<!--
	Generated using the Perl SVG Module V2.86
	by Ronan Oger
	Info: http://www.roitsystems.com/
	-->
</svg>