<?xml version="1.0" encoding="UTF-8" standalone="yes"?>
<!DOCTYPE svg PUBLIC "-//W3C//DTD SVG 1.0//EN" "http://www.w3.org/TR/2001/REC-SVG-20010904/DTD/svg10.dtd">
<!-- generated using polymake; Michael Joswig, Georg Loho, Benjamin Lorenz, Rico Raber; license CC BY-NC-ND 3.0; see polymake.org and matchthenet.de -->
<svg height="841pt" id="document" viewBox="0 -811 504.695778729964 811" width="595pt" xmlns="http://www.w3.org/2000/svg" xmlns:svg="http://www.w3.org/2000/svg" xmlns:xlink="http://www.w3.org/1999/xlink">
	<title id="document_title">planar_net_</title>
	<polygon points="173.708546215382,-368.167013887693 328.753012254269,-368.167013887693 328.835394883343,-375.009301732205 251.387375420525,-502.031204975645 233.536319630087,-507.228656435037 " style="fill: rgb(186,59,38); fill-opacity: 1; stroke: rgb(0,0,0); stroke-width: 3" />
	<polygon points="58.2456534855297,-569.535399135384 118.8906644671,-602.643299930742 33.5,-675.118633760247 55.8498021394122,-573.081331508085 " style="fill: rgb(186,59,38); fill-opacity: 1; stroke: rgb(0,0,0); stroke-width: 3" />
	<polygon points="371.702407849439,-245.341450588763 328.753012254269,-368.167013887693 173.708546215382,-368.167013887693 145.936626790982,-295.408232322219 307.193262222852,-194.683687527869 " style="fill: rgb(186,59,38); fill-opacity: 1; stroke: rgb(0,0,0); stroke-width: 3" />
	<polygon points="173.708546215382,-368.167013887693 233.536319630087,-507.228656435037 124.212338865176,-601.96003870564 118.8906644671,-602.643299930742 58.2456534855297,-569.535399135384 96.1119585531289,-374.791920421516 " style="fill: rgb(186,59,38); fill-opacity: 1; stroke: rgb(0,0,0); stroke-width: 3" />
	<polygon points="145.936626790982,-295.408232322219 107.12503209074,-100.850940816927 111.301286218208,-99.9167879775863 258.356905248345,-124.892803654152 307.193262222852,-194.683687527869 " style="fill: rgb(186,59,38); fill-opacity: 1; stroke: rgb(0,0,0); stroke-width: 3" />
	<polygon points="251.387375420525,-502.031204975645 328.835394883343,-375.009301732205 397.732788790439,-514.431297525737 377.887097328161,-525.197689310917 " style="fill: rgb(186,59,38); fill-opacity: 1; stroke: rgb(0,0,0); stroke-width: 3" />
	<polygon points="328.835394883343,-375.009301732205 328.753012254269,-368.167013887693 456.243030022209,-342.146542116009 477.51694518837,-445.426650438936 451.831372299279,-481.141956034842 430.039619503876,-493.089989048959 " style="fill: rgb(186,59,38); fill-opacity: 1; stroke: rgb(0,0,0); stroke-width: 3" />
	<polygon points="233.536319630087,-507.228656435037 251.387375420525,-502.031204975645 363.934877549014,-564.256002314059 243.248807828455,-651.559648014055 " style="fill: rgb(186,59,38); fill-opacity: 1; stroke: rgb(0,0,0); stroke-width: 3" />
	<polygon points="238.225268584088,-53.5 258.356905248345,-124.892803654152 111.301286218208,-99.9167879775863 205.533428747843,-54.845422113628 " style="fill: rgb(186,59,38); fill-opacity: 1; stroke: rgb(0,0,0); stroke-width: 3" />
	<polygon points="218.740631582995,-739.04548311935 202.605248838011,-757.94747789438 162.582358393256,-774.5 103.631561464814,-744.437059918186 96.7866484626475,-712.441533378751 118.8906644671,-602.643299930742 124.212338865176,-601.96003870564 219.461818972048,-716.478991357495 " style="fill: rgb(186,59,38); fill-opacity: 1; stroke: rgb(0,0,0); stroke-width: 3" />
	<polygon points="442.872602690173,-167.532944575414 371.702407849439,-245.341450588763 307.193262222852,-194.683687527869 343.131671409872,-117.455532172955 407.886928761841,-81.2758161200957 444.930744813093,-136.109496620503 " style="fill: rgb(186,59,38); fill-opacity: 1; stroke: rgb(0,0,0); stroke-width: 3" />
	<polygon points="451.831372299279,-481.141956034842 477.51694518837,-445.426650438936 494.195778729964,-472.137800583861 " style="fill: rgb(186,59,38); fill-opacity: 1; stroke: rgb(0,0,0); stroke-width: 3" />
	<circle cx="173.708546215382" cy="-368.167013887693" r="2" style="fill: rgb(0,0,0)" />
	<circle cx="328.753012254269" cy="-368.167013887693" r="2" style="fill: rgb(0,0,0)" />
	<circle cx="328.835394883343" cy="-375.009301732205" r="2" style="fill: rgb(0,0,0)" />
	<circle cx="251.387375420525" cy="-502.031204975645" r="2" style="fill: rgb(0,0,0)" />
	<circle cx="233.536319630087" cy="-507.228656435037" r="2" style="fill: rgb(0,0,0)" />
	<circle cx="145.936626790982" cy="-295.408232322219" r="2" style="fill: rgb(0,0,0)" />
	<circle cx="307.193262222852" cy="-194.683687527869" r="2" style="fill: rgb(0,0,0)" />
	<circle cx="371.702407849439" cy="-245.341450588763" r="2" style="fill: rgb(0,0,0)" />
	<circle cx="124.212338865176" cy="-601.96003870564" r="2" style="fill: rgb(0,0,0)" />
	<circle cx="118.8906644671" cy="-602.643299930742" r="2" style="fill: rgb(0,0,0)" />
	<circle cx="58.2456534855297" cy="-569.535399135384" r="2" style="fill: rgb(0,0,0)" />
	<circle cx="96.1119585531289" cy="-374.791920421516" r="2" style="fill: rgb(0,0,0)" />
	<circle cx="397.732788790439" cy="-514.431297525737" r="2" style="fill: rgb(0,0,0)" />
	<circle cx="377.887097328161" cy="-525.197689310917" r="2" style="fill: rgb(0,0,0)" />
	<circle cx="456.243030022209" cy="-342.146542116009" r="2" style="fill: rgb(0,0,0)" />
	<circle cx="477.51694518837" cy="-445.426650438936" r="2" style="fill: rgb(0,0,0)" />
	<circle cx="451.831372299279" cy="-481.141956034842" r="2" style="fill: rgb(0,0,0)" />
	<circle cx="430.039619503876" cy="-493.089989048959" r="2" style="fill: rgb(0,0,0)" />
	<circle cx="363.934877549014" cy="-564.256002314059" r="2" style="fill: rgb(0,0,0)" />
	<circle cx="243.248807828455" cy="-651.559648014055" r="2" style="fill: rgb(0,0,0)" />
	<circle cx="107.12503209074" cy="-100.850940816927" r="2" style="fill: rgb(0,0,0)" />
	<circle cx="111.301286218208" cy="-99.9167879775863" r="2" style="fill: rgb(0,0,0)" />
	<circle cx="258.356905248345" cy="-124.892803654152" r="2" style="fill: rgb(0,0,0)" />
	<circle cx="343.131671409872" cy="-117.455532172955" r="2" style="fill: rgb(0,0,0)" />
	<circle cx="407.886928761841" cy="-81.2758161200957" r="2" style="fill: rgb(0,0,0)" />
	<circle cx="444.930744813093" cy="-136.109496620503" r="2" style="fill: rgb(0,0,0)" />
	<circle cx="442.872602690173" cy="-167.532944575414" r="2" style="fill: rgb(0,0,0)" />
	<circle cx="33.5" cy="-675.118633760247" r="2" style="fill: rgb(0,0,0)" />
	<circle cx="55.8498021394122" cy="-573.081331508085" r="2" style="fill: rgb(0,0,0)" />
	<circle cx="219.461818972048" cy="-716.478991357495" r="2" style="fill: rgb(0,0,0)" />
	<circle cx="218.740631582995" cy="-739.04548311935" r="2" style="fill: rgb(0,0,0)" />
	<circle cx="202.605248838011" cy="-757.94747789438" r="2" style="fill: rgb(0,0,0)" />
	<circle cx="162.582358393256" cy="-774.5" r="2" style="fill: rgb(0,0,0)" />
	<circle cx="103.631561464814" cy="-744.437059918186" r="2" style="fill: rgb(0,0,0)" />
	<circle cx="96.7866484626475" cy="-712.441533378751" r="2" style="fill: rgb(0,0,0)" />
	<circle cx="494.195778729964" cy="-472.137800583861" r="2" style="fill: rgb(0,0,0)" />
	<circle cx="205.533428747843" cy="-54.845422113628" r="2" style="fill: rgb(0,0,0)" />
	<circle cx="238.225268584088" cy="-53.5" r="2" style="fill: rgb(0,0,0)" />
	<!--
	Generated using the Perl SVG Module V2.84
	by Ronan Oger
	Info: http://www.roitsystems.com/
	-->
</svg>