<?xml version="1.0" encoding="UTF-8" standalone="yes"?>
<!DOCTYPE svg PUBLIC "-//W3C//DTD SVG 1.0//EN" "http://www.w3.org/TR/2001/REC-SVG-20010904/DTD/svg10.dtd">
<!-- generated using polymake; Michael Joswig, Georg Loho, Benjamin Lorenz, Rico Raber; license CC BY-NC-ND 3.0; see polymake.org and matchthenet.de -->
<svg height="841pt" id="document" viewBox="0 -811 547.322514324195 811" width="595pt" xmlns="http://www.w3.org/2000/svg" xmlns:svg="http://www.w3.org/2000/svg" xmlns:xlink="http://www.w3.org/1999/xlink">
	<title id="document_title">planar_net_</title>
	<polygon points="364.800059888855,-480.839301517028 485.997698241015,-480.839301517028 485.997698241021,-531.664117600193 415.624875972044,-602.036939869195 364.800059888883,-602.036939869196 " style="fill: rgb(61,81,50); fill-opacity: 1; stroke: rgb(0,0,0); stroke-width: 3" />
	<polygon points="485.997698241014,-430.014485433864 485.997698241015,-480.839301517028 364.800059888855,-480.839301517028 267.060028959694,-383.099270587865 267.060028959695,-332.274454504701 388.257667311854,-332.274454504702 " style="fill: rgb(245,210,177); fill-opacity: 1; stroke: rgb(0,0,0); stroke-width: 3" />
	<polygon points="485.997698241021,-531.664117600193 485.997698241015,-480.839301517028 536.822514324182,-480.839301517019 536.822514324195,-531.664117600178 " style="fill: rgb(216,176,92); fill-opacity: 1; stroke: rgb(0,0,0); stroke-width: 3" />
	<polygon points="267.060028959694,-383.099270587865 195.182884749768,-332.274454504702 195.182884749753,-281.44963842153 267.060028959695,-332.274454504701 " style="fill: rgb(216,176,92); fill-opacity: 1; stroke: rgb(0,0,0); stroke-width: 3" />
	<polygon points="364.800059888855,-480.839301517028 364.800059888883,-602.036939869196 292.922915678965,-652.861755952379 154.697638352179,-652.861755952405 154.697638352152,-531.664117600234 226.574782562069,-480.839301517052 " style="fill: rgb(245,210,177); fill-opacity: 1; stroke: rgb(0,0,0); stroke-width: 3" />
	<polygon points="388.698273007271,-89.4385721049611 352.759700902306,-125.377144209926 316.821128797336,-89.4385721049604 352.759700902286,-53.5 " style="fill: rgb(216,176,92); fill-opacity: 1; stroke: rgb(0,0,0); stroke-width: 3" />
	<polygon points="521.936270345977,-394.075913328904 485.997698241014,-430.014485433864 388.257667311854,-332.274454504702 352.759700902306,-125.377144209926 388.698273007271,-89.4385721049611 486.438303936429,-187.178603034129 " style="fill: rgb(245,210,177); fill-opacity: 1; stroke: rgb(0,0,0); stroke-width: 3" />
	<polygon points="328.861487783927,-688.800328057348 243.161815841322,-774.499999999983 104.936538514541,-774.5 68.9979664095782,-738.561427895033 154.697638352179,-652.861755952405 292.922915678965,-652.861755952379 " style="fill: rgb(245,210,177); fill-opacity: 1; stroke: rgb(0,0,0); stroke-width: 3" />
	<polygon points="154.697638352152,-531.664117600234 154.697638352179,-652.861755952405 33.5000000000067,-652.861755952441 33.5,-602.036939869272 103.872822268996,-531.664117600246 " style="fill: rgb(61,81,50); fill-opacity: 1; stroke: rgb(0,0,0); stroke-width: 3" />
	<polygon points="388.257667311854,-332.274454504702 267.060028959695,-332.274454504701 216.235212876528,-260.397310294768 216.235212876527,-160.87511061948 267.060028959692,-160.875110619483 " style="fill: rgb(61,81,50); fill-opacity: 1; stroke: rgb(0,0,0); stroke-width: 3" />
	<polygon points="415.624875972044,-602.036939869195 485.997698241021,-531.664117600193 521.936270346004,-567.602689705148 486.438303936558,-774.499999999857 400.738631993886,-688.800328057293 " style="fill: rgb(61,81,50); fill-opacity: 1; stroke: rgb(0,0,0); stroke-width: 3" />
	<polygon points="364.800059888883,-602.036939869196 415.624875972044,-602.036939869195 364.800059888882,-673.914084079124 313.975243805713,-673.914084079145 " style="fill: rgb(216,176,92); fill-opacity: 1; stroke: rgb(0,0,0); stroke-width: 3" />
	<circle cx="364.800059888855" cy="-480.839301517028" r="2" style="fill: rgb(0,0,0)" />
	<circle cx="485.997698241015" cy="-480.839301517028" r="2" style="fill: rgb(0,0,0)" />
	<circle cx="485.997698241021" cy="-531.664117600193" r="2" style="fill: rgb(0,0,0)" />
	<circle cx="415.624875972044" cy="-602.036939869195" r="2" style="fill: rgb(0,0,0)" />
	<circle cx="364.800059888883" cy="-602.036939869196" r="2" style="fill: rgb(0,0,0)" />
	<circle cx="267.060028959694" cy="-383.099270587865" r="2" style="fill: rgb(0,0,0)" />
	<circle cx="267.060028959695" cy="-332.274454504701" r="2" style="fill: rgb(0,0,0)" />
	<circle cx="388.257667311854" cy="-332.274454504702" r="2" style="fill: rgb(0,0,0)" />
	<circle cx="485.997698241014" cy="-430.014485433864" r="2" style="fill: rgb(0,0,0)" />
	<circle cx="536.822514324182" cy="-480.839301517019" r="2" style="fill: rgb(0,0,0)" />
	<circle cx="536.822514324195" cy="-531.664117600178" r="2" style="fill: rgb(0,0,0)" />
	<circle cx="292.922915678965" cy="-652.861755952379" r="2" style="fill: rgb(0,0,0)" />
	<circle cx="154.697638352179" cy="-652.861755952405" r="2" style="fill: rgb(0,0,0)" />
	<circle cx="154.697638352152" cy="-531.664117600234" r="2" style="fill: rgb(0,0,0)" />
	<circle cx="226.574782562069" cy="-480.839301517052" r="2" style="fill: rgb(0,0,0)" />
	<circle cx="521.936270346004" cy="-567.602689705148" r="2" style="fill: rgb(0,0,0)" />
	<circle cx="486.438303936558" cy="-774.499999999857" r="2" style="fill: rgb(0,0,0)" />
	<circle cx="400.738631993886" cy="-688.800328057293" r="2" style="fill: rgb(0,0,0)" />
	<circle cx="364.800059888882" cy="-673.914084079124" r="2" style="fill: rgb(0,0,0)" />
	<circle cx="313.975243805713" cy="-673.914084079145" r="2" style="fill: rgb(0,0,0)" />
	<circle cx="195.182884749768" cy="-332.274454504702" r="2" style="fill: rgb(0,0,0)" />
	<circle cx="195.182884749753" cy="-281.44963842153" r="2" style="fill: rgb(0,0,0)" />
	<circle cx="352.759700902306" cy="-125.377144209926" r="2" style="fill: rgb(0,0,0)" />
	<circle cx="388.698273007271" cy="-89.4385721049611" r="2" style="fill: rgb(0,0,0)" />
	<circle cx="486.438303936429" cy="-187.178603034129" r="2" style="fill: rgb(0,0,0)" />
	<circle cx="521.936270345977" cy="-394.075913328904" r="2" style="fill: rgb(0,0,0)" />
	<circle cx="216.235212876528" cy="-260.397310294768" r="2" style="fill: rgb(0,0,0)" />
	<circle cx="216.235212876527" cy="-160.87511061948" r="2" style="fill: rgb(0,0,0)" />
	<circle cx="267.060028959692" cy="-160.875110619483" r="2" style="fill: rgb(0,0,0)" />
	<circle cx="328.861487783927" cy="-688.800328057348" r="2" style="fill: rgb(0,0,0)" />
	<circle cx="243.161815841322" cy="-774.499999999983" r="2" style="fill: rgb(0,0,0)" />
	<circle cx="104.936538514541" cy="-774.5" r="2" style="fill: rgb(0,0,0)" />
	<circle cx="68.9979664095782" cy="-738.561427895033" r="2" style="fill: rgb(0,0,0)" />
	<circle cx="33.5000000000067" cy="-652.861755952441" r="2" style="fill: rgb(0,0,0)" />
	<circle cx="33.5" cy="-602.036939869272" r="2" style="fill: rgb(0,0,0)" />
	<circle cx="103.872822268996" cy="-531.664117600246" r="2" style="fill: rgb(0,0,0)" />
	<circle cx="316.821128797336" cy="-89.4385721049604" r="2" style="fill: rgb(0,0,0)" />
	<circle cx="352.759700902286" cy="-53.5" r="2" style="fill: rgb(0,0,0)" />
	<!--
	Generated using the Perl SVG Module V2.86
	by Ronan Oger
	Info: http://www.roitsystems.com/
	-->
</svg>