<?xml version="1.0" encoding="UTF-8" standalone="yes"?>
<!DOCTYPE svg PUBLIC "-//W3C//DTD SVG 1.0//EN" "http://www.w3.org/TR/2001/REC-SVG-20010904/DTD/svg10.dtd">
<!-- generated using polymake; Michael Joswig, Georg Loho, Benjamin Lorenz, Rico Raber; license CC BY-NC-ND 3.0; see polymake.org and matchthenet.de -->
<svg height="841pt" id="document" viewBox="0 -811 547.322514324194 811" width="595pt" xmlns="http://www.w3.org/2000/svg" xmlns:svg="http://www.w3.org/2000/svg" xmlns:xlink="http://www.w3.org/1999/xlink">
	<title id="document_title">planar_net_</title>
	<polygon points="364.800059888854,-480.839301517027 485.997698241014,-480.839301517027 485.99769824102,-531.664117600193 415.624875972044,-602.036939869194 364.800059888882,-602.036939869195 " style="fill: rgb(14,173,105); fill-opacity: 1; stroke: rgb(0,0,0); stroke-width: 3" />
	<polygon points="485.997698241013,-430.014485433864 485.997698241014,-480.839301517027 364.800059888854,-480.839301517027 267.060028959694,-383.099270587865 267.060028959694,-332.274454504701 388.257667311853,-332.274454504702 " style="fill: rgb(14,173,105); fill-opacity: 1; stroke: rgb(0,0,0); stroke-width: 3" />
	<polygon points="485.99769824102,-531.664117600193 485.997698241014,-480.839301517027 536.822514324181,-480.839301517018 536.822514324194,-531.664117600177 " style="fill: rgb(14,173,105); fill-opacity: 1; stroke: rgb(0,0,0); stroke-width: 3" />
	<polygon points="267.060028959694,-383.099270587865 195.182884749767,-332.274454504702 195.182884749752,-281.44963842153 267.060028959694,-332.274454504701 " style="fill: rgb(14,173,105); fill-opacity: 1; stroke: rgb(0,0,0); stroke-width: 3" />
	<polygon points="364.800059888854,-480.839301517027 364.800059888882,-602.036939869195 292.922915678965,-652.861755952378 154.697638352179,-652.861755952404 154.697638352152,-531.664117600233 226.574782562069,-480.839301517051 " style="fill: rgb(14,173,105); fill-opacity: 1; stroke: rgb(0,0,0); stroke-width: 3" />
	<polygon points="388.69827300727,-89.4385721049607 352.759700902305,-125.377144209925 316.821128797336,-89.4385721049603 352.759700902285,-53.5 " style="fill: rgb(14,173,105); fill-opacity: 1; stroke: rgb(0,0,0); stroke-width: 3" />
	<polygon points="521.936270345976,-394.075913328904 485.997698241013,-430.014485433864 388.257667311853,-332.274454504702 352.759700902305,-125.377144209925 388.69827300727,-89.4385721049607 486.438303936428,-187.178603034128 " style="fill: rgb(14,173,105); fill-opacity: 1; stroke: rgb(0,0,0); stroke-width: 3" />
	<polygon points="328.861487783926,-688.800328057346 243.161815841322,-774.499999999982 104.936538514541,-774.5 68.9979664095781,-738.561427895033 154.697638352179,-652.861755952404 292.922915678965,-652.861755952378 " style="fill: rgb(14,173,105); fill-opacity: 1; stroke: rgb(0,0,0); stroke-width: 3" />
	<polygon points="154.697638352152,-531.664117600233 154.697638352179,-652.861755952404 33.5000000000069,-652.86175595244 33.5,-602.036939869272 103.872822268995,-531.664117600245 " style="fill: rgb(14,173,105); fill-opacity: 1; stroke: rgb(0,0,0); stroke-width: 3" />
	<polygon points="388.257667311853,-332.274454504702 267.060028959694,-332.274454504701 216.235212876528,-260.397310294767 216.235212876526,-160.875110619479 267.060028959691,-160.875110619483 " style="fill: rgb(14,173,105); fill-opacity: 1; stroke: rgb(0,0,0); stroke-width: 3" />
	<polygon points="415.624875972044,-602.036939869194 485.99769824102,-531.664117600193 521.936270346003,-567.602689705147 486.438303936557,-774.499999999856 400.738631993886,-688.800328057291 " style="fill: rgb(14,173,105); fill-opacity: 1; stroke: rgb(0,0,0); stroke-width: 3" />
	<polygon points="364.800059888882,-602.036939869195 415.624875972044,-602.036939869194 364.800059888881,-673.914084079123 313.975243805712,-673.914084079144 " style="fill: rgb(14,173,105); fill-opacity: 1; stroke: rgb(0,0,0); stroke-width: 3" />
	<circle cx="364.800059888854" cy="-480.839301517027" r="2" style="fill: rgb(0,0,0)" />
	<circle cx="485.997698241014" cy="-480.839301517027" r="2" style="fill: rgb(0,0,0)" />
	<circle cx="485.99769824102" cy="-531.664117600193" r="2" style="fill: rgb(0,0,0)" />
	<circle cx="415.624875972044" cy="-602.036939869194" r="2" style="fill: rgb(0,0,0)" />
	<circle cx="364.800059888882" cy="-602.036939869195" r="2" style="fill: rgb(0,0,0)" />
	<circle cx="267.060028959694" cy="-383.099270587865" r="2" style="fill: rgb(0,0,0)" />
	<circle cx="267.060028959694" cy="-332.274454504701" r="2" style="fill: rgb(0,0,0)" />
	<circle cx="388.257667311853" cy="-332.274454504702" r="2" style="fill: rgb(0,0,0)" />
	<circle cx="485.997698241013" cy="-430.014485433864" r="2" style="fill: rgb(0,0,0)" />
	<circle cx="536.822514324181" cy="-480.839301517018" r="2" style="fill: rgb(0,0,0)" />
	<circle cx="536.822514324194" cy="-531.664117600177" r="2" style="fill: rgb(0,0,0)" />
	<circle cx="292.922915678965" cy="-652.861755952378" r="2" style="fill: rgb(0,0,0)" />
	<circle cx="154.697638352179" cy="-652.861755952404" r="2" style="fill: rgb(0,0,0)" />
	<circle cx="154.697638352152" cy="-531.664117600233" r="2" style="fill: rgb(0,0,0)" />
	<circle cx="226.574782562069" cy="-480.839301517051" r="2" style="fill: rgb(0,0,0)" />
	<circle cx="521.936270346003" cy="-567.602689705147" r="2" style="fill: rgb(0,0,0)" />
	<circle cx="486.438303936557" cy="-774.499999999856" r="2" style="fill: rgb(0,0,0)" />
	<circle cx="400.738631993886" cy="-688.800328057291" r="2" style="fill: rgb(0,0,0)" />
	<circle cx="364.800059888881" cy="-673.914084079123" r="2" style="fill: rgb(0,0,0)" />
	<circle cx="313.975243805712" cy="-673.914084079144" r="2" style="fill: rgb(0,0,0)" />
	<circle cx="195.182884749767" cy="-332.274454504702" r="2" style="fill: rgb(0,0,0)" />
	<circle cx="195.182884749752" cy="-281.44963842153" r="2" style="fill: rgb(0,0,0)" />
	<circle cx="352.759700902305" cy="-125.377144209925" r="2" style="fill: rgb(0,0,0)" />
	<circle cx="388.69827300727" cy="-89.4385721049607" r="2" style="fill: rgb(0,0,0)" />
	<circle cx="486.438303936428" cy="-187.178603034128" r="2" style="fill: rgb(0,0,0)" />
	<circle cx="521.936270345976" cy="-394.075913328904" r="2" style="fill: rgb(0,0,0)" />
	<circle cx="216.235212876528" cy="-260.397310294767" r="2" style="fill: rgb(0,0,0)" />
	<circle cx="216.235212876526" cy="-160.875110619479" r="2" style="fill: rgb(0,0,0)" />
	<circle cx="267.060028959691" cy="-160.875110619483" r="2" style="fill: rgb(0,0,0)" />
	<circle cx="328.861487783926" cy="-688.800328057346" r="2" style="fill: rgb(0,0,0)" />
	<circle cx="243.161815841322" cy="-774.499999999982" r="2" style="fill: rgb(0,0,0)" />
	<circle cx="104.936538514541" cy="-774.5" r="2" style="fill: rgb(0,0,0)" />
	<circle cx="68.9979664095781" cy="-738.561427895033" r="2" style="fill: rgb(0,0,0)" />
	<circle cx="33.5000000000069" cy="-652.86175595244" r="2" style="fill: rgb(0,0,0)" />
	<circle cx="33.5" cy="-602.036939869272" r="2" style="fill: rgb(0,0,0)" />
	<circle cx="103.872822268995" cy="-531.664117600245" r="2" style="fill: rgb(0,0,0)" />
	<circle cx="316.821128797336" cy="-89.4385721049603" r="2" style="fill: rgb(0,0,0)" />
	<circle cx="352.759700902285" cy="-53.5" r="2" style="fill: rgb(0,0,0)" />
	<!--
	Generated using the Perl SVG Module V2.87
	by Ronan Oger

	-->
</svg>