<?xml version="1.0" encoding="UTF-8" standalone="yes"?>
<!DOCTYPE svg PUBLIC "-//W3C//DTD SVG 1.0//EN" "http://www.w3.org/TR/2001/REC-SVG-20010904/DTD/svg10.dtd">
<!-- generated using polymake; Michael Joswig, Georg Loho, Benjamin Lorenz, Rico Raber; license CC BY-NC-ND 3.0; see polymake.org and matchthenet.de -->
<svg height="841pt" id="document" viewBox="0 -811 484.87399884664 811" width="595pt" xmlns="http://www.w3.org/2000/svg" xmlns:svg="http://www.w3.org/2000/svg" xmlns:xlink="http://www.w3.org/1999/xlink">
	<title id="document_title">planar_net_</title>
	<polygon points="296.816663462927,-446.503337177804 463.276665385143,-446.503337177804 463.276665385144,-457.600670639285 418.887331539219,-501.99000448521 296.816663462926,-501.99000448521 " style="fill: rgb(14,173,105); fill-opacity: 1; stroke: rgb(0,0,0); stroke-width: 3" />
	<polygon points="463.276665385142,-435.406003716323 463.276665385143,-446.503337177804 296.816663462927,-446.503337177804 252.427329617004,-402.11400333188 252.427329617004,-235.654001409664 263.524663078485,-235.654001409664 " style="fill: rgb(14,173,105); fill-opacity: 1; stroke: rgb(0,0,0); stroke-width: 3" />
	<polygon points="463.276665385144,-457.600670639285 463.276665385143,-446.503337177804 474.373998846629,-446.5033371778 474.37399884664,-457.600670639271 " style="fill: rgb(14,173,105); fill-opacity: 1; stroke: rgb(0,0,0); stroke-width: 3" />
	<polygon points="155.570668076294,-601.866005638539 133.37600115333,-624.060672561502 33.5,-624.060672561498 33.5000000000061,-501.990004485202 155.570668076296,-501.990004485208 " style="fill: rgb(14,173,105); fill-opacity: 1; stroke: rgb(0,0,0); stroke-width: 3" />
	<polygon points="263.524663078485,-235.654001409664 252.427329617004,-235.654001409664 241.329996155521,-219.96000192226 252.427329616996,-219.960001922257 " style="fill: rgb(14,173,105); fill-opacity: 1; stroke: rgb(0,0,0); stroke-width: 3" />
	<polygon points="252.427329617004,-402.11400333188 173.957332179988,-346.62733602447 173.957332179989,-224.556667948179 236.733330129602,-224.556667948185 252.427329617004,-235.654001409664 " style="fill: rgb(14,173,105); fill-opacity: 1; stroke: rgb(0,0,0); stroke-width: 3" />
	<polygon points="252.427329616891,-53.5 252.427329616996,-219.960001922257 241.329996155521,-219.96000192226 196.940662309597,-175.570668076335 196.94066230952,-53.5000000000127 " style="fill: rgb(14,173,105); fill-opacity: 1; stroke: rgb(0,0,0); stroke-width: 3" />
	<polygon points="296.816663462927,-446.503337177804 296.816663462926,-501.99000448521 155.570668076294,-601.866005638539 155.570668076296,-501.990004485208 234.040665513314,-446.503337177803 " style="fill: rgb(14,173,105); fill-opacity: 1; stroke: rgb(0,0,0); stroke-width: 3" />
	<polygon points="296.816663462926,-501.99000448521 418.887331539219,-501.99000448521 296.81666346293,-674.623998846647 196.940662309594,-674.623998846665 196.940662309593,-643.23599987186 " style="fill: rgb(14,173,105); fill-opacity: 1; stroke: rgb(0,0,0); stroke-width: 3" />
	<polygon points="471.123665128842,-427.559003972638 463.276665385142,-435.406003716323 263.524663078485,-235.654001409664 260.274329360706,-216.709668204474 377.979325516231,-99.0046720489477 422.368659362154,-143.394005894876 " style="fill: rgb(14,173,105); fill-opacity: 1; stroke: rgb(0,0,0); stroke-width: 3" />
	<polygon points="418.887331539219,-501.99000448521 463.276665385144,-457.600670639285 471.123665128845,-465.447670382987 422.368659362153,-749.612668460726 383.133660643645,-710.377669742218 " style="fill: rgb(14,173,105); fill-opacity: 1; stroke: rgb(0,0,0); stroke-width: 3" />
	<polygon points="296.81666346293,-674.623998846647 296.816663462933,-730.110666154055 252.427329617013,-774.49999999999 196.940662309606,-774.5 196.940662309594,-674.623998846665 " style="fill: rgb(14,173,105); fill-opacity: 1; stroke: rgb(0,0,0); stroke-width: 3" />
	<circle cx="296.816663462927" cy="-446.503337177804" r="2" style="fill: rgb(0,0,0)" />
	<circle cx="463.276665385143" cy="-446.503337177804" r="2" style="fill: rgb(0,0,0)" />
	<circle cx="463.276665385144" cy="-457.600670639285" r="2" style="fill: rgb(0,0,0)" />
	<circle cx="418.887331539219" cy="-501.99000448521" r="2" style="fill: rgb(0,0,0)" />
	<circle cx="296.816663462926" cy="-501.99000448521" r="2" style="fill: rgb(0,0,0)" />
	<circle cx="252.427329617004" cy="-402.11400333188" r="2" style="fill: rgb(0,0,0)" />
	<circle cx="252.427329617004" cy="-235.654001409664" r="2" style="fill: rgb(0,0,0)" />
	<circle cx="263.524663078485" cy="-235.654001409664" r="2" style="fill: rgb(0,0,0)" />
	<circle cx="463.276665385142" cy="-435.406003716323" r="2" style="fill: rgb(0,0,0)" />
	<circle cx="474.373998846629" cy="-446.5033371778" r="2" style="fill: rgb(0,0,0)" />
	<circle cx="474.37399884664" cy="-457.600670639271" r="2" style="fill: rgb(0,0,0)" />
	<circle cx="155.570668076294" cy="-601.866005638539" r="2" style="fill: rgb(0,0,0)" />
	<circle cx="155.570668076296" cy="-501.990004485208" r="2" style="fill: rgb(0,0,0)" />
	<circle cx="234.040665513314" cy="-446.503337177803" r="2" style="fill: rgb(0,0,0)" />
	<circle cx="296.81666346293" cy="-674.623998846647" r="2" style="fill: rgb(0,0,0)" />
	<circle cx="196.940662309594" cy="-674.623998846665" r="2" style="fill: rgb(0,0,0)" />
	<circle cx="196.940662309593" cy="-643.23599987186" r="2" style="fill: rgb(0,0,0)" />
	<circle cx="471.123665128845" cy="-465.447670382987" r="2" style="fill: rgb(0,0,0)" />
	<circle cx="422.368659362153" cy="-749.612668460726" r="2" style="fill: rgb(0,0,0)" />
	<circle cx="383.133660643645" cy="-710.377669742218" r="2" style="fill: rgb(0,0,0)" />
	<circle cx="241.329996155521" cy="-219.96000192226" r="2" style="fill: rgb(0,0,0)" />
	<circle cx="252.427329616996" cy="-219.960001922257" r="2" style="fill: rgb(0,0,0)" />
	<circle cx="173.957332179988" cy="-346.62733602447" r="2" style="fill: rgb(0,0,0)" />
	<circle cx="173.957332179989" cy="-224.556667948179" r="2" style="fill: rgb(0,0,0)" />
	<circle cx="236.733330129602" cy="-224.556667948185" r="2" style="fill: rgb(0,0,0)" />
	<circle cx="260.274329360706" cy="-216.709668204474" r="2" style="fill: rgb(0,0,0)" />
	<circle cx="377.979325516231" cy="-99.0046720489477" r="2" style="fill: rgb(0,0,0)" />
	<circle cx="422.368659362154" cy="-143.394005894876" r="2" style="fill: rgb(0,0,0)" />
	<circle cx="471.123665128842" cy="-427.559003972638" r="2" style="fill: rgb(0,0,0)" />
	<circle cx="133.37600115333" cy="-624.060672561502" r="2" style="fill: rgb(0,0,0)" />
	<circle cx="33.5" cy="-624.060672561498" r="2" style="fill: rgb(0,0,0)" />
	<circle cx="33.5000000000061" cy="-501.990004485202" r="2" style="fill: rgb(0,0,0)" />
	<circle cx="296.816663462933" cy="-730.110666154055" r="2" style="fill: rgb(0,0,0)" />
	<circle cx="252.427329617013" cy="-774.49999999999" r="2" style="fill: rgb(0,0,0)" />
	<circle cx="196.940662309606" cy="-774.5" r="2" style="fill: rgb(0,0,0)" />
	<circle cx="196.940662309597" cy="-175.570668076335" r="2" style="fill: rgb(0,0,0)" />
	<circle cx="196.94066230952" cy="-53.5000000000127" r="2" style="fill: rgb(0,0,0)" />
	<circle cx="252.427329616891" cy="-53.5" r="2" style="fill: rgb(0,0,0)" />
	<!--
	Generated using the Perl SVG Module V2.87
	by Ronan Oger

	-->
</svg>