<?xml version="1.0" encoding="UTF-8" standalone="yes"?>
<!DOCTYPE svg PUBLIC "-//W3C//DTD SVG 1.0//EN" "http://www.w3.org/TR/2001/REC-SVG-20010904/DTD/svg10.dtd">
<!-- generated using polymake; Michael Joswig, Georg Loho, Benjamin Lorenz, Rico Raber; license CC BY-NC-ND 3.0; see polymake.org and matchthenet.de -->
<svg height="841pt" id="document" viewBox="0 -811 519.263900843125 811" width="595pt" xmlns="http://www.w3.org/2000/svg" xmlns:svg="http://www.w3.org/2000/svg" xmlns:xlink="http://www.w3.org/1999/xlink">
	<title id="document_title">planar_net_</title>
	<polygon points="341.893032616138,-404.338594450404 458.314568588446,-404.338594450404 458.314568588448,-454.787926705072 392.342364870812,-520.760130422714 341.893032616145,-520.760130422714 " style="fill: rgb(14,173,105); fill-opacity: 1; stroke: rgb(0,0,0); stroke-width: 3" />
	<polygon points="458.314568588445,-353.889262195738 458.314568588446,-404.338594450404 341.893032616138,-404.338594450404 275.920828898498,-338.366390732762 275.920828898498,-221.944854760454 326.370161153164,-221.944854760454 " style="fill: rgb(14,173,105); fill-opacity: 1; stroke: rgb(0,0,0); stroke-width: 3" />
	<polygon points="458.314568588448,-454.787926705072 458.314568588446,-404.338594450404 508.763900843116,-404.3385944504 508.763900843125,-454.78792670506 " style="fill: rgb(14,173,105); fill-opacity: 1; stroke: rgb(0,0,0); stroke-width: 3" />
	<polygon points="83.9493322546701,-520.760130422727 83.9493322546729,-571.209462677396 33.5000000000048,-571.209462677401 33.5,-520.760130422738 " style="fill: rgb(14,173,105); fill-opacity: 1; stroke: rgb(0,0,0); stroke-width: 3" />
	<polygon points="341.893032616146,-592.106260309931 341.893032616146,-708.527796282243 275.920828898497,-774.49999999993 159.499292926175,-774.5 159.499292926175,-724.050667745329 291.443700361472,-592.106260309954 " style="fill: rgb(14,173,105); fill-opacity: 1; stroke: rgb(0,0,0); stroke-width: 3" />
	<polygon points="275.920828898498,-338.366390732762 111.275913774147,-221.944854760446 111.27591377414,-171.495522505775 204.574699011269,-171.49552250578 275.920828898498,-221.944854760454 " style="fill: rgb(14,173,105); fill-opacity: 1; stroke: rgb(0,0,0); stroke-width: 3" />
	<polygon points="157.925306392705,-53.5000000000023 240.24776395488,-135.822457562178 204.574699011269,-171.49552250578 111.27591377414,-171.495522505775 75.6028488305307,-135.822457562166 " style="fill: rgb(14,173,105); fill-opacity: 1; stroke: rgb(0,0,0); stroke-width: 3" />
	<polygon points="326.370161153164,-221.944854760454 275.920828898498,-221.944854760454 225.471496643828,-150.59872487323 275.920828898495,-150.598724873234 " style="fill: rgb(14,173,105); fill-opacity: 1; stroke: rgb(0,0,0); stroke-width: 3" />
	<polygon points="341.893032616145,-520.760130422714 392.342364870812,-520.760130422714 341.893032616146,-592.106260309931 291.443700361472,-592.106260309954 " style="fill: rgb(14,173,105); fill-opacity: 1; stroke: rgb(0,0,0); stroke-width: 3" />
	<polygon points="493.987633532053,-318.216197252136 458.314568588445,-353.889262195738 326.370161153164,-221.944854760454 311.593893842107,-135.822457562173 393.91635140428,-53.5 459.88855512192,-119.472203717646 " style="fill: rgb(14,173,105); fill-opacity: 1; stroke: rgb(0,0,0); stroke-width: 3" />
	<polygon points="392.342364870812,-520.760130422714 458.314568588448,-454.787926705072 493.987633532062,-490.460991648678 459.888555121957,-689.204985183141 377.566097559764,-606.882527620979 " style="fill: rgb(14,173,105); fill-opacity: 1; stroke: rgb(0,0,0); stroke-width: 3" />
	<polygon points="341.893032616138,-404.338594450404 341.893032616145,-520.760130422714 270.546902728931,-571.209462677387 83.9493322546729,-571.209462677396 83.9493322546701,-520.760130422727 248.594247379009,-404.338594450407 " style="fill: rgb(14,173,105); fill-opacity: 1; stroke: rgb(0,0,0); stroke-width: 3" />
	<circle cx="341.893032616138" cy="-404.338594450404" r="2" style="fill: rgb(0,0,0)" />
	<circle cx="458.314568588446" cy="-404.338594450404" r="2" style="fill: rgb(0,0,0)" />
	<circle cx="458.314568588448" cy="-454.787926705072" r="2" style="fill: rgb(0,0,0)" />
	<circle cx="392.342364870812" cy="-520.760130422714" r="2" style="fill: rgb(0,0,0)" />
	<circle cx="341.893032616145" cy="-520.760130422714" r="2" style="fill: rgb(0,0,0)" />
	<circle cx="275.920828898498" cy="-338.366390732762" r="2" style="fill: rgb(0,0,0)" />
	<circle cx="275.920828898498" cy="-221.944854760454" r="2" style="fill: rgb(0,0,0)" />
	<circle cx="326.370161153164" cy="-221.944854760454" r="2" style="fill: rgb(0,0,0)" />
	<circle cx="458.314568588445" cy="-353.889262195738" r="2" style="fill: rgb(0,0,0)" />
	<circle cx="508.763900843116" cy="-404.3385944504" r="2" style="fill: rgb(0,0,0)" />
	<circle cx="508.763900843125" cy="-454.78792670506" r="2" style="fill: rgb(0,0,0)" />
	<circle cx="341.893032616146" cy="-592.106260309931" r="2" style="fill: rgb(0,0,0)" />
	<circle cx="291.443700361472" cy="-592.106260309954" r="2" style="fill: rgb(0,0,0)" />
	<circle cx="493.987633532062" cy="-490.460991648678" r="2" style="fill: rgb(0,0,0)" />
	<circle cx="459.888555121957" cy="-689.204985183141" r="2" style="fill: rgb(0,0,0)" />
	<circle cx="377.566097559764" cy="-606.882527620979" r="2" style="fill: rgb(0,0,0)" />
	<circle cx="270.546902728931" cy="-571.209462677387" r="2" style="fill: rgb(0,0,0)" />
	<circle cx="83.9493322546729" cy="-571.209462677396" r="2" style="fill: rgb(0,0,0)" />
	<circle cx="83.9493322546701" cy="-520.760130422727" r="2" style="fill: rgb(0,0,0)" />
	<circle cx="248.594247379009" cy="-404.338594450407" r="2" style="fill: rgb(0,0,0)" />
	<circle cx="111.275913774147" cy="-221.944854760446" r="2" style="fill: rgb(0,0,0)" />
	<circle cx="111.27591377414" cy="-171.495522505775" r="2" style="fill: rgb(0,0,0)" />
	<circle cx="204.574699011269" cy="-171.49552250578" r="2" style="fill: rgb(0,0,0)" />
	<circle cx="225.471496643828" cy="-150.59872487323" r="2" style="fill: rgb(0,0,0)" />
	<circle cx="275.920828898495" cy="-150.598724873234" r="2" style="fill: rgb(0,0,0)" />
	<circle cx="311.593893842107" cy="-135.822457562173" r="2" style="fill: rgb(0,0,0)" />
	<circle cx="393.91635140428" cy="-53.5" r="2" style="fill: rgb(0,0,0)" />
	<circle cx="459.88855512192" cy="-119.472203717646" r="2" style="fill: rgb(0,0,0)" />
	<circle cx="493.987633532053" cy="-318.216197252136" r="2" style="fill: rgb(0,0,0)" />
	<circle cx="341.893032616146" cy="-708.527796282243" r="2" style="fill: rgb(0,0,0)" />
	<circle cx="275.920828898497" cy="-774.49999999993" r="2" style="fill: rgb(0,0,0)" />
	<circle cx="159.499292926175" cy="-774.5" r="2" style="fill: rgb(0,0,0)" />
	<circle cx="159.499292926175" cy="-724.050667745329" r="2" style="fill: rgb(0,0,0)" />
	<circle cx="33.5000000000048" cy="-571.209462677401" r="2" style="fill: rgb(0,0,0)" />
	<circle cx="33.5" cy="-520.760130422738" r="2" style="fill: rgb(0,0,0)" />
	<circle cx="75.6028488305307" cy="-135.822457562166" r="2" style="fill: rgb(0,0,0)" />
	<circle cx="157.925306392705" cy="-53.5000000000023" r="2" style="fill: rgb(0,0,0)" />
	<circle cx="240.24776395488" cy="-135.822457562178" r="2" style="fill: rgb(0,0,0)" />
	<!--
	Generated using the Perl SVG Module V2.87
	by Ronan Oger

	-->
</svg>