<?xml version="1.0" encoding="UTF-8" standalone="yes"?>
<!DOCTYPE svg PUBLIC "-//W3C//DTD SVG 1.0//EN" "http://www.w3.org/TR/2001/REC-SVG-20010904/DTD/svg10.dtd">
<!-- generated using polymake; Michael Joswig, Georg Loho, Benjamin Lorenz, Rico Raber; license CC BY-NC-ND 3.0; see polymake.org and matchthenet.de -->
<svg height="841pt" id="document" viewBox="0 -811 554.523757591872 811" width="595pt" xmlns="http://www.w3.org/2000/svg" xmlns:svg="http://www.w3.org/2000/svg" xmlns:xlink="http://www.w3.org/1999/xlink">
	<title id="document_title">planar_net_</title>
	<polygon points="298.592686556023,-336.293428813372 407.710894188567,-336.293428813372 407.710894188569,-354.479796752129 316.779054494779,-445.411636445916 298.592686556021,-445.411636445916 " style="fill: rgb(14,173,105); fill-opacity: 1; stroke: rgb(0,0,0); stroke-width: 3" />
	<polygon points="407.710894188566,-252.636136295088 407.710894188567,-336.293428813372 298.592686556023,-336.293428813372 233.121761976497,-270.822504233845 233.121761976497,-161.7042966013 316.77905449478,-161.704296601301 " style="fill: rgb(14,173,105); fill-opacity: 1; stroke: rgb(0,0,0); stroke-width: 3" />
	<polygon points="407.710894188569,-354.479796752129 407.710894188567,-336.293428813372 491.368186706852,-336.293428813364 491.368186706863,-354.479796752121 " style="fill: rgb(14,173,105); fill-opacity: 1; stroke: rgb(0,0,0); stroke-width: 3" />
	<polygon points="233.121761976494,-563.720914116697 233.121761976491,-672.839121749253 124.003554343942,-672.839121749258 124.003554343943,-654.652753810498 214.935394037736,-563.720914116699 " style="fill: rgb(14,173,105); fill-opacity: 1; stroke: rgb(0,0,0); stroke-width: 3" />
	<polygon points="51.6863679387603,-445.411636445914 51.6863679387583,-529.0689289642 33.5,-529.0689289642 33.5000000000053,-445.411636445912 " style="fill: rgb(14,173,105); fill-opacity: 1; stroke: rgb(0,0,0); stroke-width: 3" />
	<polygon points="233.121761976497,-270.822504233845 78.8053128407084,-161.704296601297 78.8053128407061,-143.517928662539 207.402353787192,-143.51792866254 233.121761976497,-161.7042966013 " style="fill: rgb(14,173,105); fill-opacity: 1; stroke: rgb(0,0,0); stroke-width: 3" />
	<polygon points="420.570598283214,-239.776432200442 407.710894188566,-252.636136295088 316.77905449478,-161.704296601301 311.452390650673,-130.658224567893 388.610615218567,-53.5 " style="fill: rgb(14,173,105); fill-opacity: 1; stroke: rgb(0,0,0); stroke-width: 3" />
	<polygon points="369.434625379795,-665.381792367467 434.90554995932,-599.910867787943 544.023757591872,-599.910867787962 544.023757591872,-683.568160306237 453.091917898078,-774.5 369.434625379788,-774.499999999986 " style="fill: rgb(14,173,105); fill-opacity: 1; stroke: rgb(0,0,0); stroke-width: 3" />
	<polygon points="316.77905449478,-161.704296601301 233.121761976497,-161.7042966013 214.93539403774,-135.984888412001 298.592686556023,-135.984888412005 " style="fill: rgb(14,173,105); fill-opacity: 1; stroke: rgb(0,0,0); stroke-width: 3" />
	<polygon points="298.592686556021,-445.411636445916 316.779054494779,-445.411636445916 233.121761976494,-563.720914116697 214.935394037736,-563.720914116699 " style="fill: rgb(14,173,105); fill-opacity: 1; stroke: rgb(0,0,0); stroke-width: 3" />
	<polygon points="316.779054494779,-445.411636445916 407.710894188569,-354.479796752129 466.865533023957,-413.634435587514 434.90554995932,-599.910867787943 369.434625379795,-665.381792367467 292.276400811891,-588.223567799577 " style="fill: rgb(14,173,105); fill-opacity: 1; stroke: rgb(0,0,0); stroke-width: 3" />
	<polygon points="298.592686556023,-336.293428813372 298.592686556021,-445.411636445916 180.283408885248,-529.0689289642 51.6863679387583,-529.0689289642 51.6863679387603,-445.411636445914 206.002817074551,-336.293428813369 " style="fill: rgb(14,173,105); fill-opacity: 1; stroke: rgb(0,0,0); stroke-width: 3" />
	<circle cx="298.592686556023" cy="-336.293428813372" r="2" style="fill: rgb(0,0,0)" />
	<circle cx="407.710894188567" cy="-336.293428813372" r="2" style="fill: rgb(0,0,0)" />
	<circle cx="407.710894188569" cy="-354.479796752129" r="2" style="fill: rgb(0,0,0)" />
	<circle cx="316.779054494779" cy="-445.411636445916" r="2" style="fill: rgb(0,0,0)" />
	<circle cx="298.592686556021" cy="-445.411636445916" r="2" style="fill: rgb(0,0,0)" />
	<circle cx="233.121761976497" cy="-270.822504233845" r="2" style="fill: rgb(0,0,0)" />
	<circle cx="233.121761976497" cy="-161.7042966013" r="2" style="fill: rgb(0,0,0)" />
	<circle cx="316.77905449478" cy="-161.704296601301" r="2" style="fill: rgb(0,0,0)" />
	<circle cx="407.710894188566" cy="-252.636136295088" r="2" style="fill: rgb(0,0,0)" />
	<circle cx="491.368186706852" cy="-336.293428813364" r="2" style="fill: rgb(0,0,0)" />
	<circle cx="491.368186706863" cy="-354.479796752121" r="2" style="fill: rgb(0,0,0)" />
	<circle cx="233.121761976494" cy="-563.720914116697" r="2" style="fill: rgb(0,0,0)" />
	<circle cx="214.935394037736" cy="-563.720914116699" r="2" style="fill: rgb(0,0,0)" />
	<circle cx="466.865533023957" cy="-413.634435587514" r="2" style="fill: rgb(0,0,0)" />
	<circle cx="434.90554995932" cy="-599.910867787943" r="2" style="fill: rgb(0,0,0)" />
	<circle cx="369.434625379795" cy="-665.381792367467" r="2" style="fill: rgb(0,0,0)" />
	<circle cx="292.276400811891" cy="-588.223567799577" r="2" style="fill: rgb(0,0,0)" />
	<circle cx="180.283408885248" cy="-529.0689289642" r="2" style="fill: rgb(0,0,0)" />
	<circle cx="51.6863679387583" cy="-529.0689289642" r="2" style="fill: rgb(0,0,0)" />
	<circle cx="51.6863679387603" cy="-445.411636445914" r="2" style="fill: rgb(0,0,0)" />
	<circle cx="206.002817074551" cy="-336.293428813369" r="2" style="fill: rgb(0,0,0)" />
	<circle cx="78.8053128407084" cy="-161.704296601297" r="2" style="fill: rgb(0,0,0)" />
	<circle cx="78.8053128407061" cy="-143.517928662539" r="2" style="fill: rgb(0,0,0)" />
	<circle cx="207.402353787192" cy="-143.51792866254" r="2" style="fill: rgb(0,0,0)" />
	<circle cx="311.452390650673" cy="-130.658224567893" r="2" style="fill: rgb(0,0,0)" />
	<circle cx="388.610615218567" cy="-53.5" r="2" style="fill: rgb(0,0,0)" />
	<circle cx="420.570598283214" cy="-239.776432200442" r="2" style="fill: rgb(0,0,0)" />
	<circle cx="214.93539403774" cy="-135.984888412001" r="2" style="fill: rgb(0,0,0)" />
	<circle cx="298.592686556023" cy="-135.984888412005" r="2" style="fill: rgb(0,0,0)" />
	<circle cx="233.121761976491" cy="-672.839121749253" r="2" style="fill: rgb(0,0,0)" />
	<circle cx="124.003554343942" cy="-672.839121749258" r="2" style="fill: rgb(0,0,0)" />
	<circle cx="124.003554343943" cy="-654.652753810498" r="2" style="fill: rgb(0,0,0)" />
	<circle cx="544.023757591872" cy="-599.910867787962" r="2" style="fill: rgb(0,0,0)" />
	<circle cx="544.023757591872" cy="-683.568160306237" r="2" style="fill: rgb(0,0,0)" />
	<circle cx="453.091917898078" cy="-774.5" r="2" style="fill: rgb(0,0,0)" />
	<circle cx="369.434625379788" cy="-774.499999999986" r="2" style="fill: rgb(0,0,0)" />
	<circle cx="33.5" cy="-529.0689289642" r="2" style="fill: rgb(0,0,0)" />
	<circle cx="33.5000000000053" cy="-445.411636445912" r="2" style="fill: rgb(0,0,0)" />
	<!--
	Generated using the Perl SVG Module V2.84
	by Ronan Oger
	Info: http://www.roitsystems.com/
	-->
</svg>