<?xml version="1.0" encoding="UTF-8" standalone="yes"?>
<!DOCTYPE svg PUBLIC "-//W3C//DTD SVG 1.0//EN" "http://www.w3.org/TR/2001/REC-SVG-20010904/DTD/svg10.dtd">
<!-- generated using polymake; Michael Joswig, Georg Loho, Benjamin Lorenz, Rico Raber; license CC BY-NC-ND 3.0; see polymake.org and matchthenet.de -->
<svg height="841pt" id="document" viewBox="0 -811 484.87399884664 811" width="595pt" xmlns="http://www.w3.org/2000/svg" xmlns:svg="http://www.w3.org/2000/svg" xmlns:xlink="http://www.w3.org/1999/xlink">
	<title id="document_title">planar_net_</title>
	<polygon points="296.816663462927,-446.503337177804 463.276665385144,-446.503337177804 463.276665385144,-457.600670639285 418.88733153922,-501.990004485209 296.816663462927,-501.990004485209 " style="fill: rgb(61,81,50); fill-opacity: 1; stroke: rgb(0,0,0); stroke-width: 3" />
	<polygon points="463.276665385143,-435.406003716323 463.276665385144,-446.503337177804 296.816663462927,-446.503337177804 252.427329617004,-402.114003331879 252.427329617004,-235.654001409663 263.524663078485,-235.654001409663 " style="fill: rgb(245,210,177); fill-opacity: 1; stroke: rgb(0,0,0); stroke-width: 3" />
	<polygon points="463.276665385144,-457.600670639285 463.276665385144,-446.503337177804 474.373998846629,-446.503337177799 474.37399884664,-457.60067063927 " style="fill: rgb(216,176,92); fill-opacity: 1; stroke: rgb(0,0,0); stroke-width: 3" />
	<polygon points="155.570668076294,-601.866005638539 133.37600115333,-624.060672561502 33.5,-624.060672561499 33.5000000000057,-501.990004485203 155.570668076296,-501.990004485208 " style="fill: rgb(61,81,50); fill-opacity: 1; stroke: rgb(0,0,0); stroke-width: 3" />
	<polygon points="263.524663078485,-235.654001409663 252.427329617004,-235.654001409663 241.329996155522,-219.960001922258 252.427329616996,-219.960001922256 " style="fill: rgb(216,176,92); fill-opacity: 1; stroke: rgb(0,0,0); stroke-width: 3" />
	<polygon points="252.427329617004,-402.114003331879 173.957332179988,-346.627336024469 173.95733217999,-224.556667948178 236.733330129602,-224.556667948184 252.427329617004,-235.654001409663 " style="fill: rgb(61,81,50); fill-opacity: 1; stroke: rgb(0,0,0); stroke-width: 3" />
	<polygon points="252.427329616892,-53.5 252.427329616996,-219.960001922256 241.329996155522,-219.960001922258 196.940662309597,-175.570668076334 196.940662309521,-53.500000000012 " style="fill: rgb(61,81,50); fill-opacity: 1; stroke: rgb(0,0,0); stroke-width: 3" />
	<polygon points="296.816663462927,-446.503337177804 296.816663462927,-501.990004485209 155.570668076294,-601.866005638539 155.570668076296,-501.990004485208 234.040665513315,-446.503337177802 " style="fill: rgb(61,81,50); fill-opacity: 1; stroke: rgb(0,0,0); stroke-width: 3" />
	<polygon points="296.816663462927,-501.990004485209 418.88733153922,-501.990004485209 296.816663462931,-674.623998846647 196.940662309594,-674.623998846664 196.940662309593,-643.23599987186 " style="fill: rgb(61,81,50); fill-opacity: 1; stroke: rgb(0,0,0); stroke-width: 3" />
	<polygon points="471.123665128842,-427.559003972637 463.276665385143,-435.406003716323 263.524663078485,-235.654001409663 260.274329360707,-216.709668204473 377.979325516231,-99.0046720489465 422.368659362154,-143.394005894875 " style="fill: rgb(245,210,177); fill-opacity: 1; stroke: rgb(0,0,0); stroke-width: 3" />
	<polygon points="418.88733153922,-501.990004485209 463.276665385144,-457.600670639285 471.123665128846,-465.447670382986 422.368659362156,-749.612668460725 383.133660643647,-710.377669742217 " style="fill: rgb(61,81,50); fill-opacity: 1; stroke: rgb(0,0,0); stroke-width: 3" />
	<polygon points="296.816663462931,-674.623998846647 296.816663462933,-730.110666154054 252.427329617013,-774.49999999999 196.940662309606,-774.5 196.940662309594,-674.623998846664 " style="fill: rgb(61,81,50); fill-opacity: 1; stroke: rgb(0,0,0); stroke-width: 3" />
	<circle cx="296.816663462927" cy="-446.503337177804" r="2" style="fill: rgb(0,0,0)" />
	<circle cx="463.276665385144" cy="-446.503337177804" r="2" style="fill: rgb(0,0,0)" />
	<circle cx="463.276665385144" cy="-457.600670639285" r="2" style="fill: rgb(0,0,0)" />
	<circle cx="418.88733153922" cy="-501.990004485209" r="2" style="fill: rgb(0,0,0)" />
	<circle cx="296.816663462927" cy="-501.990004485209" r="2" style="fill: rgb(0,0,0)" />
	<circle cx="252.427329617004" cy="-402.114003331879" r="2" style="fill: rgb(0,0,0)" />
	<circle cx="252.427329617004" cy="-235.654001409663" r="2" style="fill: rgb(0,0,0)" />
	<circle cx="263.524663078485" cy="-235.654001409663" r="2" style="fill: rgb(0,0,0)" />
	<circle cx="463.276665385143" cy="-435.406003716323" r="2" style="fill: rgb(0,0,0)" />
	<circle cx="474.373998846629" cy="-446.503337177799" r="2" style="fill: rgb(0,0,0)" />
	<circle cx="474.37399884664" cy="-457.60067063927" r="2" style="fill: rgb(0,0,0)" />
	<circle cx="155.570668076294" cy="-601.866005638539" r="2" style="fill: rgb(0,0,0)" />
	<circle cx="155.570668076296" cy="-501.990004485208" r="2" style="fill: rgb(0,0,0)" />
	<circle cx="234.040665513315" cy="-446.503337177802" r="2" style="fill: rgb(0,0,0)" />
	<circle cx="296.816663462931" cy="-674.623998846647" r="2" style="fill: rgb(0,0,0)" />
	<circle cx="196.940662309594" cy="-674.623998846664" r="2" style="fill: rgb(0,0,0)" />
	<circle cx="196.940662309593" cy="-643.23599987186" r="2" style="fill: rgb(0,0,0)" />
	<circle cx="471.123665128846" cy="-465.447670382986" r="2" style="fill: rgb(0,0,0)" />
	<circle cx="422.368659362156" cy="-749.612668460725" r="2" style="fill: rgb(0,0,0)" />
	<circle cx="383.133660643647" cy="-710.377669742217" r="2" style="fill: rgb(0,0,0)" />
	<circle cx="241.329996155522" cy="-219.960001922258" r="2" style="fill: rgb(0,0,0)" />
	<circle cx="252.427329616996" cy="-219.960001922256" r="2" style="fill: rgb(0,0,0)" />
	<circle cx="173.957332179988" cy="-346.627336024469" r="2" style="fill: rgb(0,0,0)" />
	<circle cx="173.95733217999" cy="-224.556667948178" r="2" style="fill: rgb(0,0,0)" />
	<circle cx="236.733330129602" cy="-224.556667948184" r="2" style="fill: rgb(0,0,0)" />
	<circle cx="260.274329360707" cy="-216.709668204473" r="2" style="fill: rgb(0,0,0)" />
	<circle cx="377.979325516231" cy="-99.0046720489465" r="2" style="fill: rgb(0,0,0)" />
	<circle cx="422.368659362154" cy="-143.394005894875" r="2" style="fill: rgb(0,0,0)" />
	<circle cx="471.123665128842" cy="-427.559003972637" r="2" style="fill: rgb(0,0,0)" />
	<circle cx="133.37600115333" cy="-624.060672561502" r="2" style="fill: rgb(0,0,0)" />
	<circle cx="33.5" cy="-624.060672561499" r="2" style="fill: rgb(0,0,0)" />
	<circle cx="33.5000000000057" cy="-501.990004485203" r="2" style="fill: rgb(0,0,0)" />
	<circle cx="296.816663462933" cy="-730.110666154054" r="2" style="fill: rgb(0,0,0)" />
	<circle cx="252.427329617013" cy="-774.49999999999" r="2" style="fill: rgb(0,0,0)" />
	<circle cx="196.940662309606" cy="-774.5" r="2" style="fill: rgb(0,0,0)" />
	<circle cx="196.940662309597" cy="-175.570668076334" r="2" style="fill: rgb(0,0,0)" />
	<circle cx="196.940662309521" cy="-53.500000000012" r="2" style="fill: rgb(0,0,0)" />
	<circle cx="252.427329616892" cy="-53.5" r="2" style="fill: rgb(0,0,0)" />
	<!--
	Generated using the Perl SVG Module V2.84
	by Ronan Oger
	Info: http://www.roitsystems.com/
	-->
</svg>