<?xml version="1.0" encoding="UTF-8" standalone="yes"?>
<!DOCTYPE svg PUBLIC "-//W3C//DTD SVG 1.0//EN" "http://www.w3.org/TR/2001/REC-SVG-20010904/DTD/svg10.dtd">
<!-- generated using polymake; Michael Joswig, Georg Loho, Benjamin Lorenz, Rico Raber; license CC BY-NC-ND 3.0; see polymake.org and matchthenet.de -->
<svg height="841pt" id="document" viewBox="0 -811 484.873998846637 811" width="595pt" xmlns="http://www.w3.org/2000/svg" xmlns:svg="http://www.w3.org/2000/svg" xmlns:xlink="http://www.w3.org/1999/xlink">
	<title id="document_title">planar_net_</title>
	<polygon points="296.816663462926,-446.503337177806 463.276665385141,-446.503337177806 463.276665385141,-457.600670639287 418.887331539217,-501.990004485211 296.816663462925,-501.990004485211 " style="fill: rgb(186,59,38); fill-opacity: 1; stroke: rgb(0,0,0); stroke-width: 3" />
	<polygon points="463.27666538514,-435.406003716326 463.276665385141,-446.503337177806 296.816663462926,-446.503337177806 252.427329617003,-402.114003331882 252.427329617003,-235.654001409667 263.524663078484,-235.654001409667 " style="fill: rgb(186,59,38); fill-opacity: 1; stroke: rgb(0,0,0); stroke-width: 3" />
	<polygon points="463.276665385141,-457.600670639287 463.276665385141,-446.503337177806 474.373998846626,-446.503337177802 474.373998846637,-457.600670639273 " style="fill: rgb(186,59,38); fill-opacity: 1; stroke: rgb(0,0,0); stroke-width: 3" />
	<polygon points="155.570668076293,-601.86600563854 133.37600115333,-624.060672561503 33.5,-624.0606725615 33.5000000000061,-501.990004485205 155.570668076296,-501.99000448521 " style="fill: rgb(186,59,38); fill-opacity: 1; stroke: rgb(0,0,0); stroke-width: 3" />
	<polygon points="263.524663078484,-235.654001409667 252.427329617003,-235.654001409667 241.329996155521,-219.960001922264 252.427329616995,-219.960001922261 " style="fill: rgb(186,59,38); fill-opacity: 1; stroke: rgb(0,0,0); stroke-width: 3" />
	<polygon points="252.427329617003,-402.114003331882 173.957332179987,-346.627336024472 173.957332179989,-224.556667948183 236.733330129601,-224.556667948189 252.427329617003,-235.654001409667 " style="fill: rgb(186,59,38); fill-opacity: 1; stroke: rgb(0,0,0); stroke-width: 3" />
	<polygon points="252.42732961689,-53.5 252.427329616995,-219.960001922261 241.329996155521,-219.960001922264 196.940662309596,-175.570668076339 196.94066230952,-53.5000000000144 " style="fill: rgb(186,59,38); fill-opacity: 1; stroke: rgb(0,0,0); stroke-width: 3" />
	<polygon points="296.816663462926,-446.503337177806 296.816663462925,-501.990004485211 155.570668076293,-601.86600563854 155.570668076296,-501.99000448521 234.040665513313,-446.503337177805 " style="fill: rgb(186,59,38); fill-opacity: 1; stroke: rgb(0,0,0); stroke-width: 3" />
	<polygon points="296.816663462925,-501.990004485211 418.887331539217,-501.990004485211 296.816663462929,-674.623998846647 196.940662309593,-674.623998846665 196.940662309592,-643.235999871861 " style="fill: rgb(186,59,38); fill-opacity: 1; stroke: rgb(0,0,0); stroke-width: 3" />
	<polygon points="471.123665128839,-427.55900397264 463.27666538514,-435.406003716326 263.524663078484,-235.654001409667 260.274329360705,-216.709668204478 377.979325516229,-99.0046720489522 422.368659362152,-143.394005894881 " style="fill: rgb(186,59,38); fill-opacity: 1; stroke: rgb(0,0,0); stroke-width: 3" />
	<polygon points="418.887331539217,-501.990004485211 463.276665385141,-457.600670639287 471.123665128843,-465.447670382989 422.368659362152,-749.612668460725 383.133660643644,-710.377669742218 " style="fill: rgb(186,59,38); fill-opacity: 1; stroke: rgb(0,0,0); stroke-width: 3" />
	<polygon points="296.816663462929,-674.623998846647 296.816663462932,-730.110666154055 252.427329617012,-774.49999999999 196.940662309605,-774.5 196.940662309593,-674.623998846665 " style="fill: rgb(186,59,38); fill-opacity: 1; stroke: rgb(0,0,0); stroke-width: 3" />
	<circle cx="296.816663462926" cy="-446.503337177806" r="2" style="fill: rgb(0,0,0)" />
	<circle cx="463.276665385141" cy="-446.503337177806" r="2" style="fill: rgb(0,0,0)" />
	<circle cx="463.276665385141" cy="-457.600670639287" r="2" style="fill: rgb(0,0,0)" />
	<circle cx="418.887331539217" cy="-501.990004485211" r="2" style="fill: rgb(0,0,0)" />
	<circle cx="296.816663462925" cy="-501.990004485211" r="2" style="fill: rgb(0,0,0)" />
	<circle cx="252.427329617003" cy="-402.114003331882" r="2" style="fill: rgb(0,0,0)" />
	<circle cx="252.427329617003" cy="-235.654001409667" r="2" style="fill: rgb(0,0,0)" />
	<circle cx="263.524663078484" cy="-235.654001409667" r="2" style="fill: rgb(0,0,0)" />
	<circle cx="463.27666538514" cy="-435.406003716326" r="2" style="fill: rgb(0,0,0)" />
	<circle cx="474.373998846626" cy="-446.503337177802" r="2" style="fill: rgb(0,0,0)" />
	<circle cx="474.373998846637" cy="-457.600670639273" r="2" style="fill: rgb(0,0,0)" />
	<circle cx="155.570668076293" cy="-601.86600563854" r="2" style="fill: rgb(0,0,0)" />
	<circle cx="155.570668076296" cy="-501.99000448521" r="2" style="fill: rgb(0,0,0)" />
	<circle cx="234.040665513313" cy="-446.503337177805" r="2" style="fill: rgb(0,0,0)" />
	<circle cx="296.816663462929" cy="-674.623998846647" r="2" style="fill: rgb(0,0,0)" />
	<circle cx="196.940662309593" cy="-674.623998846665" r="2" style="fill: rgb(0,0,0)" />
	<circle cx="196.940662309592" cy="-643.235999871861" r="2" style="fill: rgb(0,0,0)" />
	<circle cx="471.123665128843" cy="-465.447670382989" r="2" style="fill: rgb(0,0,0)" />
	<circle cx="422.368659362152" cy="-749.612668460725" r="2" style="fill: rgb(0,0,0)" />
	<circle cx="383.133660643644" cy="-710.377669742218" r="2" style="fill: rgb(0,0,0)" />
	<circle cx="241.329996155521" cy="-219.960001922264" r="2" style="fill: rgb(0,0,0)" />
	<circle cx="252.427329616995" cy="-219.960001922261" r="2" style="fill: rgb(0,0,0)" />
	<circle cx="173.957332179987" cy="-346.627336024472" r="2" style="fill: rgb(0,0,0)" />
	<circle cx="173.957332179989" cy="-224.556667948183" r="2" style="fill: rgb(0,0,0)" />
	<circle cx="236.733330129601" cy="-224.556667948189" r="2" style="fill: rgb(0,0,0)" />
	<circle cx="260.274329360705" cy="-216.709668204478" r="2" style="fill: rgb(0,0,0)" />
	<circle cx="377.979325516229" cy="-99.0046720489522" r="2" style="fill: rgb(0,0,0)" />
	<circle cx="422.368659362152" cy="-143.394005894881" r="2" style="fill: rgb(0,0,0)" />
	<circle cx="471.123665128839" cy="-427.55900397264" r="2" style="fill: rgb(0,0,0)" />
	<circle cx="133.37600115333" cy="-624.060672561503" r="2" style="fill: rgb(0,0,0)" />
	<circle cx="33.5" cy="-624.0606725615" r="2" style="fill: rgb(0,0,0)" />
	<circle cx="33.5000000000061" cy="-501.990004485205" r="2" style="fill: rgb(0,0,0)" />
	<circle cx="296.816663462932" cy="-730.110666154055" r="2" style="fill: rgb(0,0,0)" />
	<circle cx="252.427329617012" cy="-774.49999999999" r="2" style="fill: rgb(0,0,0)" />
	<circle cx="196.940662309605" cy="-774.5" r="2" style="fill: rgb(0,0,0)" />
	<circle cx="196.940662309596" cy="-175.570668076339" r="2" style="fill: rgb(0,0,0)" />
	<circle cx="196.94066230952" cy="-53.5000000000144" r="2" style="fill: rgb(0,0,0)" />
	<circle cx="252.42732961689" cy="-53.5" r="2" style="fill: rgb(0,0,0)" />
	<!--
	Generated using the Perl SVG Module V2.86
	by Ronan Oger
	Info: http://www.roitsystems.com/
	-->
</svg>