<?xml version="1.0" encoding="UTF-8" standalone="yes"?>
<!DOCTYPE svg PUBLIC "-//W3C//DTD SVG 1.0//EN" "http://www.w3.org/TR/2001/REC-SVG-20010904/DTD/svg10.dtd">
<!-- generated using polymake; Michael Joswig, Georg Loho, Benjamin Lorenz, Rico Raber; license CC BY-NC-ND 3.0; see polymake.org and matchthenet.de -->
<svg height="841pt" id="document" viewBox="0 -680.711867155509 572 680.711867155509" width="595pt" xmlns="http://www.w3.org/2000/svg" xmlns:svg="http://www.w3.org/2000/svg" xmlns:xlink="http://www.w3.org/1999/xlink">
	<title id="document_title">planar_net_</title>
	<polygon points="195.038318575415,-377.73271187655 338.447891808457,-377.73271187655 343.1358698672,-421.847686989548 281.328613057754,-474.233862281568 202.246269524471,-498.157092003603 " style="fill: rgb(14,173,105); fill-opacity: 1; stroke: rgb(0,0,0); stroke-width: 3" />
	<polygon points="463.546370437323,-414.678507903318 437.298053590936,-322.168126073085 530.730578766284,-300.056481754794 531.413425106836,-313.751783598206 509.838486032126,-385.302661539648 " style="fill: rgb(14,173,105); fill-opacity: 1; stroke: rgb(0,0,0); stroke-width: 3" />
	<polygon points="160.294126308512,-514.673635955757 74.897472370505,-551.395565781374 35.3526109262327,-517.92924216471 33.5,-511.565380611712 64.8137963507189,-411.226141117662 94.2469248487111,-421.456180355475 " style="fill: rgb(14,173,105); fill-opacity: 1; stroke: rgb(0,0,0); stroke-width: 3" />
	<polygon points="327.492967458024,-319.856345938454 338.447891808457,-377.73271187655 195.038318575415,-377.73271187655 186.214693539826,-348.611402903755 199.063458519445,-304.923895321533 " style="fill: rgb(14,173,105); fill-opacity: 1; stroke: rgb(0,0,0); stroke-width: 3" />
	<polygon points="319.623357609606,-250.068377092757 327.492967458024,-319.856345938454 199.063458519445,-304.923895321533 195.827549560644,-204.574769693764 253.18758275953,-180.75135612986 " style="fill: rgb(14,173,105); fill-opacity: 1; stroke: rgb(0,0,0); stroke-width: 3" />
	<polygon points="343.1358698672,-421.847686989548 338.447891808457,-377.73271187655 367.190449834858,-326.317252529934 437.298053590936,-322.168126073085 463.546370437323,-414.678507903318 460.0465669384,-431.967278023118 363.55697066312,-427.929213593481 " style="fill: rgb(14,173,105); fill-opacity: 1; stroke: rgb(0,0,0); stroke-width: 3" />
	<polygon points="512.8518309991,-390.70202203453 547.785270690165,-324.63644157374 561.5,-449.51777484193 558.324242779808,-455.335460566351 513.324977472037,-429.732861010019 " style="fill: rgb(14,173,105); fill-opacity: 1; stroke: rgb(0,0,0); stroke-width: 3" />
	<polygon points="268.034159750293,-599.909557025435 317.461839730193,-572.714104910921 357.16306997426,-589.000961480593 344.99872430037,-631.201041760404 294.887394196085,-644.211867155509 " style="fill: rgb(14,173,105); fill-opacity: 1; stroke: rgb(0,0,0); stroke-width: 3" />
	<polygon points="460.0465669384,-431.967278023118 463.546370437323,-414.678507903318 512.8518309991,-390.70202203453 513.324977472037,-429.732861010019 473.001470485982,-447.134954724366 " style="fill: rgb(14,173,105); fill-opacity: 1; stroke: rgb(0,0,0); stroke-width: 3" />
	<polygon points="253.18758275953,-180.75135612986 195.827549560644,-204.574769693764 141.800289096122,-141.825536929801 198.78376345665,-53.5 252.530896137729,-167.054775009456 " style="fill: rgb(14,173,105); fill-opacity: 1; stroke: rgb(0,0,0); stroke-width: 3" />
	<polygon points="186.214693539826,-348.611402903755 82.2578162039165,-333.9971137301 80.2882649982052,-302.899145564402 127.283410043841,-234.723875649968 199.063458519445,-304.923895321533 " style="fill: rgb(14,173,105); fill-opacity: 1; stroke: rgb(0,0,0); stroke-width: 3" />
	<polygon points="195.038318575415,-377.73271187655 202.246269524471,-498.157092003603 160.294126308512,-514.673635955757 94.2469248487111,-421.456180355475 175.219823462994,-354.643011866875 " style="fill: rgb(14,173,105); fill-opacity: 1; stroke: rgb(0,0,0); stroke-width: 3" />
	<polygon points="281.328613057754,-474.233862281568 343.1358698672,-421.847686989548 350.372304233017,-441.888653563567 345.215607280347,-555.168831727619 " style="fill: rgb(14,173,105); fill-opacity: 1; stroke: rgb(0,0,0); stroke-width: 3" />
	<polygon points="202.246269524471,-498.157092003603 281.328613057754,-474.233862281568 317.530602120173,-570.781432411316 317.461839730193,-572.714104910921 268.034159750293,-599.909557025435 194.822677752508,-542.62808063372 " style="fill: rgb(14,173,105); fill-opacity: 1; stroke: rgb(0,0,0); stroke-width: 3" />
	<polygon points="363.55697066312,-427.929213593481 460.0465669384,-431.967278023118 468.197202413746,-450.173185959528 459.20473585997,-492.132510609627 457.317680566148,-491.709457923706 " style="fill: rgb(14,173,105); fill-opacity: 1; stroke: rgb(0,0,0); stroke-width: 3" />
	<circle cx="195.038318575415" cy="-377.73271187655" r="2" style="fill: rgb(0,0,0)" />
	<circle cx="338.447891808457" cy="-377.73271187655" r="2" style="fill: rgb(0,0,0)" />
	<circle cx="343.1358698672" cy="-421.847686989548" r="2" style="fill: rgb(0,0,0)" />
	<circle cx="281.328613057754" cy="-474.233862281568" r="2" style="fill: rgb(0,0,0)" />
	<circle cx="202.246269524471" cy="-498.157092003603" r="2" style="fill: rgb(0,0,0)" />
	<circle cx="186.214693539826" cy="-348.611402903755" r="2" style="fill: rgb(0,0,0)" />
	<circle cx="199.063458519445" cy="-304.923895321533" r="2" style="fill: rgb(0,0,0)" />
	<circle cx="327.492967458024" cy="-319.856345938454" r="2" style="fill: rgb(0,0,0)" />
	<circle cx="367.190449834858" cy="-326.317252529934" r="2" style="fill: rgb(0,0,0)" />
	<circle cx="437.298053590936" cy="-322.168126073085" r="2" style="fill: rgb(0,0,0)" />
	<circle cx="463.546370437323" cy="-414.678507903318" r="2" style="fill: rgb(0,0,0)" />
	<circle cx="460.0465669384" cy="-431.967278023118" r="2" style="fill: rgb(0,0,0)" />
	<circle cx="363.55697066312" cy="-427.929213593481" r="2" style="fill: rgb(0,0,0)" />
	<circle cx="160.294126308512" cy="-514.673635955757" r="2" style="fill: rgb(0,0,0)" />
	<circle cx="94.2469248487111" cy="-421.456180355475" r="2" style="fill: rgb(0,0,0)" />
	<circle cx="175.219823462994" cy="-354.643011866875" r="2" style="fill: rgb(0,0,0)" />
	<circle cx="350.372304233017" cy="-441.888653563567" r="2" style="fill: rgb(0,0,0)" />
	<circle cx="345.215607280347" cy="-555.168831727619" r="2" style="fill: rgb(0,0,0)" />
	<circle cx="317.530602120173" cy="-570.781432411316" r="2" style="fill: rgb(0,0,0)" />
	<circle cx="317.461839730193" cy="-572.714104910921" r="2" style="fill: rgb(0,0,0)" />
	<circle cx="268.034159750293" cy="-599.909557025435" r="2" style="fill: rgb(0,0,0)" />
	<circle cx="194.822677752508" cy="-542.62808063372" r="2" style="fill: rgb(0,0,0)" />
	<circle cx="195.827549560644" cy="-204.574769693764" r="2" style="fill: rgb(0,0,0)" />
	<circle cx="253.18758275953" cy="-180.75135612986" r="2" style="fill: rgb(0,0,0)" />
	<circle cx="319.623357609606" cy="-250.068377092757" r="2" style="fill: rgb(0,0,0)" />
	<circle cx="82.2578162039165" cy="-333.9971137301" r="2" style="fill: rgb(0,0,0)" />
	<circle cx="80.2882649982052" cy="-302.899145564402" r="2" style="fill: rgb(0,0,0)" />
	<circle cx="127.283410043841" cy="-234.723875649968" r="2" style="fill: rgb(0,0,0)" />
	<circle cx="530.730578766284" cy="-300.056481754794" r="2" style="fill: rgb(0,0,0)" />
	<circle cx="531.413425106836" cy="-313.751783598206" r="2" style="fill: rgb(0,0,0)" />
	<circle cx="509.838486032126" cy="-385.302661539648" r="2" style="fill: rgb(0,0,0)" />
	<circle cx="512.8518309991" cy="-390.70202203453" r="2" style="fill: rgb(0,0,0)" />
	<circle cx="513.324977472037" cy="-429.732861010019" r="2" style="fill: rgb(0,0,0)" />
	<circle cx="473.001470485982" cy="-447.134954724366" r="2" style="fill: rgb(0,0,0)" />
	<circle cx="468.197202413746" cy="-450.173185959528" r="2" style="fill: rgb(0,0,0)" />
	<circle cx="459.20473585997" cy="-492.132510609627" r="2" style="fill: rgb(0,0,0)" />
	<circle cx="457.317680566148" cy="-491.709457923706" r="2" style="fill: rgb(0,0,0)" />
	<circle cx="74.897472370505" cy="-551.395565781374" r="2" style="fill: rgb(0,0,0)" />
	<circle cx="35.3526109262327" cy="-517.92924216471" r="2" style="fill: rgb(0,0,0)" />
	<circle cx="33.5" cy="-511.565380611712" r="2" style="fill: rgb(0,0,0)" />
	<circle cx="64.8137963507189" cy="-411.226141117662" r="2" style="fill: rgb(0,0,0)" />
	<circle cx="357.16306997426" cy="-589.000961480593" r="2" style="fill: rgb(0,0,0)" />
	<circle cx="344.99872430037" cy="-631.201041760404" r="2" style="fill: rgb(0,0,0)" />
	<circle cx="294.887394196085" cy="-644.211867155509" r="2" style="fill: rgb(0,0,0)" />
	<circle cx="141.800289096122" cy="-141.825536929801" r="2" style="fill: rgb(0,0,0)" />
	<circle cx="198.78376345665" cy="-53.5" r="2" style="fill: rgb(0,0,0)" />
	<circle cx="252.530896137729" cy="-167.054775009456" r="2" style="fill: rgb(0,0,0)" />
	<circle cx="547.785270690165" cy="-324.63644157374" r="2" style="fill: rgb(0,0,0)" />
	<circle cx="561.5" cy="-449.51777484193" r="2" style="fill: rgb(0,0,0)" />
	<circle cx="558.324242779808" cy="-455.335460566351" r="2" style="fill: rgb(0,0,0)" />
	<!--
	Generated using the Perl SVG Module V2.86
	by Ronan Oger
	Info: http://www.roitsystems.com/
	-->
</svg>