<?xml version="1.0" encoding="UTF-8" standalone="yes"?>
<!DOCTYPE svg PUBLIC "-//W3C//DTD SVG 1.0//EN" "http://www.w3.org/TR/2001/REC-SVG-20010904/DTD/svg10.dtd">
<!-- generated using polymake; Michael Joswig, Georg Loho, Benjamin Lorenz, Rico Raber; license CC BY-NC-ND 3.0; see polymake.org and matchthenet.de -->
<svg height="841pt" id="document" viewBox="0 -561.402290988277 572 561.402290988277" width="595pt" xmlns="http://www.w3.org/2000/svg" xmlns:svg="http://www.w3.org/2000/svg" xmlns:xlink="http://www.w3.org/1999/xlink">
	<title id="document_title">planar_net_</title>
	<polygon points="205.065743495131,-285.117239947265 330.534860420541,-285.117239947265 264.319045174754,-356.799854062207 243.889168358224,-362.026128251668 210.213888993412,-331.503079494254 " style="fill: rgb(14,173,105); fill-opacity: 1; stroke: rgb(0,0,0); stroke-width: 3" />
	<polygon points="238.293991786086,-102.163145032475 244.290176234877,-115.323328730752 198.128879886955,-156.13274082519 182.119958507285,-145.184740648422 188.043230258001,-100.266129997533 " style="fill: rgb(14,173,105); fill-opacity: 1; stroke: rgb(0,0,0); stroke-width: 3" />
	<polygon points="125.175512257684,-362.861967324807 62.5048113123682,-429.440841803165 55.0180025748779,-430.801421375218 33.5,-418.205719218381 69.3127513661861,-308.098021879629 130.110574173483,-303.646588573884 " style="fill: rgb(14,173,105); fill-opacity: 1; stroke: rgb(0,0,0); stroke-width: 3" />
	<polygon points="300.792011452815,-385.347906105818 371.04978744796,-362.423653103692 378.994654103409,-385.457291630576 310.817439822766,-416.85831670774 300.948680645297,-397.238555022012 " style="fill: rgb(14,173,105); fill-opacity: 1; stroke: rgb(0,0,0); stroke-width: 3" />
	<polygon points="331.272383530144,-284.620238413287 330.534860420541,-285.117239947265 205.065743495131,-285.117239947265 193.025235914059,-236.811442882004 194.559797012651,-234.957906021158 297.107588105986,-223.594314595434 " style="fill: rgb(14,173,105); fill-opacity: 1; stroke: rgb(0,0,0); stroke-width: 3" />
	<polygon points="252.228804989029,-414.534642258484 300.948680645297,-397.238555022012 309.794218722885,-417.340393555472 258.104621943331,-524.902290988277 252.921028535522,-519.331488422562 " style="fill: rgb(14,173,105); fill-opacity: 1; stroke: rgb(0,0,0); stroke-width: 3" />
	<polygon points="193.025235914059,-236.811442882004 142.535795615222,-202.442601925951 147.439593726597,-141.679592778394 182.119958507285,-145.184740648422 198.128879886955,-156.13274082519 194.559797012651,-234.957906021158 " style="fill: rgb(14,173,105); fill-opacity: 1; stroke: rgb(0,0,0); stroke-width: 3" />
	<polygon points="402.090694695509,-211.244397433379 344.058822887062,-177.786073682991 397.228110012764,-125.072056841835 446.865342123105,-109.73139994791 " style="fill: rgb(14,173,105); fill-opacity: 1; stroke: rgb(0,0,0); stroke-width: 3" />
	<polygon points="243.889168358224,-362.026128251668 264.319045174754,-356.799854062207 300.792011452815,-385.347906105818 300.948680645297,-397.238555022012 252.228804989029,-414.534642258484 " style="fill: rgb(14,173,105); fill-opacity: 1; stroke: rgb(0,0,0); stroke-width: 3" />
	<polygon points="205.065743495131,-285.117239947265 210.213888993412,-331.503079494254 125.175512257684,-362.861967324807 130.110574173483,-303.646588573884 166.015849061023,-254.237965383167 " style="fill: rgb(14,173,105); fill-opacity: 1; stroke: rgb(0,0,0); stroke-width: 3" />
	<polygon points="297.107588105986,-223.594314595434 194.559797012651,-234.957906021158 231.778308171863,-165.381132254134 292.832978957103,-173.663678439791 " style="fill: rgb(14,173,105); fill-opacity: 1; stroke: rgb(0,0,0); stroke-width: 3" />
	<polygon points="264.319045174754,-356.799854062207 330.534860420541,-285.117239947265 331.391680505729,-284.878891035793 364.470900306889,-329.185502538733 306.75953522521,-375.349068301137 " style="fill: rgb(14,173,105); fill-opacity: 1; stroke: rgb(0,0,0); stroke-width: 3" />
	<polygon points="396.149317475843,-241.275317229853 402.090694695509,-211.244397433379 498.235897779276,-155.875113216146 546.335218133678,-156.475680778122 561.5,-176.267232980592 470.25930487255,-253.186097683912 " style="fill: rgb(14,173,105); fill-opacity: 1; stroke: rgb(0,0,0); stroke-width: 3" />
	<polygon points="147.439593726597,-141.679592778394 56.1359776597774,-70.4763072728664 101.143869093714,-53.5 148.056842826145,-75.8240556596002 179.898955773089,-99.9317420970245 182.119958507285,-145.184740648422 " style="fill: rgb(14,173,105); fill-opacity: 1; stroke: rgb(0,0,0); stroke-width: 3" />
	<polygon points="210.213888993412,-331.503079494254 243.889168358224,-362.026128251668 221.89629208967,-410.430745549722 155.875459569334,-491.819367682673 151.431424587746,-400.492406510934 " style="fill: rgb(14,173,105); fill-opacity: 1; stroke: rgb(0,0,0); stroke-width: 3" />
	<polygon points="344.058822887062,-177.786073682991 330.433764580301,-174.317065465196 352.857205664926,-129.306766753453 391.703723175839,-120.030518612859 " style="fill: rgb(14,173,105); fill-opacity: 1; stroke: rgb(0,0,0); stroke-width: 3" />
	<polygon points="380.931484364478,-260.303900081819 331.272383530144,-284.620238413287 297.107588105986,-223.594314595434 316.28170057752,-177.294270089925 330.433764580301,-174.317065465196 344.058822887062,-177.786073682991 402.090694695509,-211.244397433379 396.149317475843,-241.275317229853 " style="fill: rgb(14,173,105); fill-opacity: 1; stroke: rgb(0,0,0); stroke-width: 3" />
	<circle cx="205.065743495131" cy="-285.117239947265" r="2" style="fill: rgb(0,0,0)" />
	<circle cx="330.534860420541" cy="-285.117239947265" r="2" style="fill: rgb(0,0,0)" />
	<circle cx="264.319045174754" cy="-356.799854062207" r="2" style="fill: rgb(0,0,0)" />
	<circle cx="243.889168358224" cy="-362.026128251668" r="2" style="fill: rgb(0,0,0)" />
	<circle cx="210.213888993412" cy="-331.503079494254" r="2" style="fill: rgb(0,0,0)" />
	<circle cx="193.025235914059" cy="-236.811442882004" r="2" style="fill: rgb(0,0,0)" />
	<circle cx="194.559797012651" cy="-234.957906021158" r="2" style="fill: rgb(0,0,0)" />
	<circle cx="297.107588105986" cy="-223.594314595434" r="2" style="fill: rgb(0,0,0)" />
	<circle cx="331.272383530144" cy="-284.620238413287" r="2" style="fill: rgb(0,0,0)" />
	<circle cx="300.792011452815" cy="-385.347906105818" r="2" style="fill: rgb(0,0,0)" />
	<circle cx="300.948680645297" cy="-397.238555022012" r="2" style="fill: rgb(0,0,0)" />
	<circle cx="252.228804989029" cy="-414.534642258484" r="2" style="fill: rgb(0,0,0)" />
	<circle cx="125.175512257684" cy="-362.861967324807" r="2" style="fill: rgb(0,0,0)" />
	<circle cx="130.110574173483" cy="-303.646588573884" r="2" style="fill: rgb(0,0,0)" />
	<circle cx="166.015849061023" cy="-254.237965383167" r="2" style="fill: rgb(0,0,0)" />
	<circle cx="331.391680505729" cy="-284.878891035793" r="2" style="fill: rgb(0,0,0)" />
	<circle cx="364.470900306889" cy="-329.185502538733" r="2" style="fill: rgb(0,0,0)" />
	<circle cx="306.75953522521" cy="-375.349068301137" r="2" style="fill: rgb(0,0,0)" />
	<circle cx="221.89629208967" cy="-410.430745549722" r="2" style="fill: rgb(0,0,0)" />
	<circle cx="155.875459569334" cy="-491.819367682673" r="2" style="fill: rgb(0,0,0)" />
	<circle cx="151.431424587746" cy="-400.492406510934" r="2" style="fill: rgb(0,0,0)" />
	<circle cx="142.535795615222" cy="-202.442601925951" r="2" style="fill: rgb(0,0,0)" />
	<circle cx="147.439593726597" cy="-141.679592778394" r="2" style="fill: rgb(0,0,0)" />
	<circle cx="182.119958507285" cy="-145.184740648422" r="2" style="fill: rgb(0,0,0)" />
	<circle cx="198.128879886955" cy="-156.13274082519" r="2" style="fill: rgb(0,0,0)" />
	<circle cx="231.778308171863" cy="-165.381132254134" r="2" style="fill: rgb(0,0,0)" />
	<circle cx="292.832978957103" cy="-173.663678439791" r="2" style="fill: rgb(0,0,0)" />
	<circle cx="316.28170057752" cy="-177.294270089925" r="2" style="fill: rgb(0,0,0)" />
	<circle cx="330.433764580301" cy="-174.317065465196" r="2" style="fill: rgb(0,0,0)" />
	<circle cx="344.058822887062" cy="-177.786073682991" r="2" style="fill: rgb(0,0,0)" />
	<circle cx="402.090694695509" cy="-211.244397433379" r="2" style="fill: rgb(0,0,0)" />
	<circle cx="396.149317475843" cy="-241.275317229853" r="2" style="fill: rgb(0,0,0)" />
	<circle cx="380.931484364478" cy="-260.303900081819" r="2" style="fill: rgb(0,0,0)" />
	<circle cx="371.04978744796" cy="-362.423653103692" r="2" style="fill: rgb(0,0,0)" />
	<circle cx="378.994654103409" cy="-385.457291630576" r="2" style="fill: rgb(0,0,0)" />
	<circle cx="310.817439822766" cy="-416.85831670774" r="2" style="fill: rgb(0,0,0)" />
	<circle cx="309.794218722885" cy="-417.340393555472" r="2" style="fill: rgb(0,0,0)" />
	<circle cx="258.104621943331" cy="-524.902290988277" r="2" style="fill: rgb(0,0,0)" />
	<circle cx="252.921028535522" cy="-519.331488422562" r="2" style="fill: rgb(0,0,0)" />
	<circle cx="62.5048113123682" cy="-429.440841803165" r="2" style="fill: rgb(0,0,0)" />
	<circle cx="55.0180025748779" cy="-430.801421375218" r="2" style="fill: rgb(0,0,0)" />
	<circle cx="33.5" cy="-418.205719218381" r="2" style="fill: rgb(0,0,0)" />
	<circle cx="69.3127513661861" cy="-308.098021879629" r="2" style="fill: rgb(0,0,0)" />
	<circle cx="188.043230258001" cy="-100.266129997533" r="2" style="fill: rgb(0,0,0)" />
	<circle cx="238.293991786086" cy="-102.163145032475" r="2" style="fill: rgb(0,0,0)" />
	<circle cx="244.290176234877" cy="-115.323328730752" r="2" style="fill: rgb(0,0,0)" />
	<circle cx="56.1359776597774" cy="-70.4763072728664" r="2" style="fill: rgb(0,0,0)" />
	<circle cx="101.143869093714" cy="-53.5" r="2" style="fill: rgb(0,0,0)" />
	<circle cx="148.056842826145" cy="-75.8240556596002" r="2" style="fill: rgb(0,0,0)" />
	<circle cx="179.898955773089" cy="-99.9317420970245" r="2" style="fill: rgb(0,0,0)" />
	<circle cx="397.228110012764" cy="-125.072056841835" r="2" style="fill: rgb(0,0,0)" />
	<circle cx="446.865342123105" cy="-109.73139994791" r="2" style="fill: rgb(0,0,0)" />
	<circle cx="498.235897779276" cy="-155.875113216146" r="2" style="fill: rgb(0,0,0)" />
	<circle cx="546.335218133678" cy="-156.475680778122" r="2" style="fill: rgb(0,0,0)" />
	<circle cx="561.5" cy="-176.267232980592" r="2" style="fill: rgb(0,0,0)" />
	<circle cx="470.25930487255" cy="-253.186097683912" r="2" style="fill: rgb(0,0,0)" />
	<circle cx="352.857205664926" cy="-129.306766753453" r="2" style="fill: rgb(0,0,0)" />
	<circle cx="391.703723175839" cy="-120.030518612859" r="2" style="fill: rgb(0,0,0)" />
	<!--
	Generated using the Perl SVG Module V2.87
	by Ronan Oger

	-->
</svg>