<?xml version="1.0" encoding="UTF-8" standalone="yes"?>
<!DOCTYPE svg PUBLIC "-//W3C//DTD SVG 1.0//EN" "http://www.w3.org/TR/2001/REC-SVG-20010904/DTD/svg10.dtd">
<!-- generated using polymake; Michael Joswig, Georg Loho, Benjamin Lorenz, Rico Raber; license CC BY-NC-ND 3.0; see polymake.org and matchthenet.de -->
<svg height="841pt" id="document" viewBox="0 -518.786519520026 572 518.786519520026" width="595pt" xmlns="http://www.w3.org/2000/svg" xmlns:svg="http://www.w3.org/2000/svg" xmlns:xlink="http://www.w3.org/1999/xlink">
	<title id="document_title">planar_net_</title>
	<polygon points="362.30070330368,-202.211498983921 424.660608151447,-202.211498983921 408.776434094508,-244.607916192642 391.289060699139,-240.587867063415 " style="fill: rgb(67,184,206); fill-opacity: 1; stroke: rgb(0,0,0); stroke-width: 3" />
	<polygon points="425.798431412566,-200.120860430027 424.660608151447,-202.211498983921 362.30070330368,-202.211498983921 355.759886498429,-194.227362741315 426.20984770257,-181.221885584571 " style="fill: rgb(255,210,63); fill-opacity: 1; stroke: rgb(0,0,0); stroke-width: 3" />
	<polygon points="349.319544292754,-339.475271506857 396.64597412822,-340.214594457931 406.276134354471,-419.848320203664 308.211172483314,-428.188538309349 282.138870285005,-419.98492115894 " style="fill: rgb(255,210,63); fill-opacity: 1; stroke: rgb(0,0,0); stroke-width: 3" />
	<polygon points="219.500893087171,-282.58797145791 192.226503347678,-284.368965733254 81.0563592117865,-254.262640842429 33.5,-190.350310999058 224.826742846861,-180.463454000169 " style="fill: rgb(255,210,63); fill-opacity: 1; stroke: rgb(0,0,0); stroke-width: 3" />
	<polygon points="355.759886498429,-194.227362741315 336.032098204899,-177.393762974011 321.956995150724,-151.354098538892 453.89708767869,-138.190544358493 426.20984770257,-181.221885584571 " style="fill: rgb(255,210,63); fill-opacity: 1; stroke: rgb(0,0,0); stroke-width: 3" />
	<polygon points="489.578813020142,-276.946337263486 469.5665537831,-222.60729399343 462.303543179705,-140.484677681252 538.029952719407,-106.42838970897 530.166418431273,-237.855214597309 495.08524875393,-279.925416525244 " style="fill: rgb(238,66,102); fill-opacity: 1; stroke: rgb(0,0,0); stroke-width: 3" />
	<polygon points="339.201689439118,-283.994451627813 317.417441934361,-320.103249800027 219.500893087171,-282.58797145791 224.826742846861,-180.463454000169 306.832323024535,-167.813853797736 332.248752166159,-182.985464772439 " style="fill: rgb(238,66,102); fill-opacity: 1; stroke: rgb(0,0,0); stroke-width: 3" />
	<polygon points="408.776434094508,-244.607916192642 424.660608151447,-202.211498983921 425.829649566199,-200.138155426484 467.950962028283,-225.575986833956 480.24884523403,-282.16206473244 " style="fill: rgb(255,210,63); fill-opacity: 1; stroke: rgb(0,0,0); stroke-width: 3" />
	<polygon points="406.276134354471,-419.848320203664 415.507827117398,-426.458959602207 409.890079708742,-482.286519520026 308.211172483314,-428.188538309349 " style="fill: rgb(67,184,206); fill-opacity: 1; stroke: rgb(0,0,0); stroke-width: 3" />
	<polygon points="362.30070330368,-202.211498983921 391.289060699139,-240.587867063415 339.201689439118,-283.994451627813 332.248752166159,-182.985464772439 355.520975741859,-194.429210746664 " style="fill: rgb(255,210,63); fill-opacity: 1; stroke: rgb(0,0,0); stroke-width: 3" />
	<polygon points="489.774246161191,-355.613762861687 561.5,-466.023281056392 560.126256294852,-467.732849701071 481.390927484294,-455.602672266928 447.233271861568,-411.088291504253 " style="fill: rgb(255,210,63); fill-opacity: 1; stroke: rgb(0,0,0); stroke-width: 3" />
	<polygon points="469.5665537831,-222.60729399343 425.798431412566,-200.120860430027 426.20984770257,-181.221885584571 458.618587260879,-141.624496965467 462.303543179705,-140.484677681252 " style="fill: rgb(255,210,63); fill-opacity: 1; stroke: rgb(0,0,0); stroke-width: 3" />
	<polygon points="391.289060699139,-240.587867063415 408.776434094508,-244.607916192642 469.169101477424,-298.192852070395 470.707529860591,-304.26154104315 396.64597412822,-340.214594457931 349.319544292754,-339.475271506857 354.657158137545,-297.64336235566 " style="fill: rgb(84,13,110); fill-opacity: 1; stroke: rgb(0,0,0); stroke-width: 3" />
	<polygon points="396.64597412822,-340.214594457931 470.707529860591,-304.26154104315 489.774246161191,-355.613762861687 447.233271861568,-411.088291504253 435.916956228281,-410.157858801434 " style="fill: rgb(255,210,63); fill-opacity: 1; stroke: rgb(0,0,0); stroke-width: 3" />
	<polygon points="456.923357301876,-135.798938142553 453.89708767869,-138.190544358493 321.956995150724,-151.354098538892 284.783818370226,-77.1713344113373 474.897837834583,-53.5 476.412111208539,-55.0864340097304 " style="fill: rgb(238,66,102); fill-opacity: 1; stroke: rgb(0,0,0); stroke-width: 3" />
	<circle cx="362.30070330368" cy="-202.211498983921" r="2" style="fill: rgb(0,0,0)" />
	<circle cx="424.660608151447" cy="-202.211498983921" r="2" style="fill: rgb(0,0,0)" />
	<circle cx="408.776434094508" cy="-244.607916192642" r="2" style="fill: rgb(0,0,0)" />
	<circle cx="391.289060699139" cy="-240.587867063415" r="2" style="fill: rgb(0,0,0)" />
	<circle cx="355.759886498429" cy="-194.227362741315" r="2" style="fill: rgb(0,0,0)" />
	<circle cx="426.20984770257" cy="-181.221885584571" r="2" style="fill: rgb(0,0,0)" />
	<circle cx="425.798431412566" cy="-200.120860430027" r="2" style="fill: rgb(0,0,0)" />
	<circle cx="425.829649566199" cy="-200.138155426484" r="2" style="fill: rgb(0,0,0)" />
	<circle cx="467.950962028283" cy="-225.575986833956" r="2" style="fill: rgb(0,0,0)" />
	<circle cx="480.24884523403" cy="-282.16206473244" r="2" style="fill: rgb(0,0,0)" />
	<circle cx="339.201689439118" cy="-283.994451627813" r="2" style="fill: rgb(0,0,0)" />
	<circle cx="332.248752166159" cy="-182.985464772439" r="2" style="fill: rgb(0,0,0)" />
	<circle cx="355.520975741859" cy="-194.429210746664" r="2" style="fill: rgb(0,0,0)" />
	<circle cx="469.169101477424" cy="-298.192852070395" r="2" style="fill: rgb(0,0,0)" />
	<circle cx="470.707529860591" cy="-304.26154104315" r="2" style="fill: rgb(0,0,0)" />
	<circle cx="396.64597412822" cy="-340.214594457931" r="2" style="fill: rgb(0,0,0)" />
	<circle cx="349.319544292754" cy="-339.475271506857" r="2" style="fill: rgb(0,0,0)" />
	<circle cx="354.657158137545" cy="-297.64336235566" r="2" style="fill: rgb(0,0,0)" />
	<circle cx="336.032098204899" cy="-177.393762974011" r="2" style="fill: rgb(0,0,0)" />
	<circle cx="321.956995150724" cy="-151.354098538892" r="2" style="fill: rgb(0,0,0)" />
	<circle cx="453.89708767869" cy="-138.190544358493" r="2" style="fill: rgb(0,0,0)" />
	<circle cx="458.618587260879" cy="-141.624496965467" r="2" style="fill: rgb(0,0,0)" />
	<circle cx="462.303543179705" cy="-140.484677681252" r="2" style="fill: rgb(0,0,0)" />
	<circle cx="469.5665537831" cy="-222.60729399343" r="2" style="fill: rgb(0,0,0)" />
	<circle cx="317.417441934361" cy="-320.103249800027" r="2" style="fill: rgb(0,0,0)" />
	<circle cx="219.500893087171" cy="-282.58797145791" r="2" style="fill: rgb(0,0,0)" />
	<circle cx="224.826742846861" cy="-180.463454000169" r="2" style="fill: rgb(0,0,0)" />
	<circle cx="306.832323024535" cy="-167.813853797736" r="2" style="fill: rgb(0,0,0)" />
	<circle cx="406.276134354471" cy="-419.848320203664" r="2" style="fill: rgb(0,0,0)" />
	<circle cx="308.211172483314" cy="-428.188538309349" r="2" style="fill: rgb(0,0,0)" />
	<circle cx="282.138870285005" cy="-419.98492115894" r="2" style="fill: rgb(0,0,0)" />
	<circle cx="489.774246161191" cy="-355.613762861687" r="2" style="fill: rgb(0,0,0)" />
	<circle cx="447.233271861568" cy="-411.088291504253" r="2" style="fill: rgb(0,0,0)" />
	<circle cx="435.916956228281" cy="-410.157858801434" r="2" style="fill: rgb(0,0,0)" />
	<circle cx="284.783818370226" cy="-77.1713344113373" r="2" style="fill: rgb(0,0,0)" />
	<circle cx="474.897837834583" cy="-53.5" r="2" style="fill: rgb(0,0,0)" />
	<circle cx="476.412111208539" cy="-55.0864340097304" r="2" style="fill: rgb(0,0,0)" />
	<circle cx="456.923357301876" cy="-135.798938142553" r="2" style="fill: rgb(0,0,0)" />
	<circle cx="538.029952719407" cy="-106.42838970897" r="2" style="fill: rgb(0,0,0)" />
	<circle cx="530.166418431273" cy="-237.855214597309" r="2" style="fill: rgb(0,0,0)" />
	<circle cx="495.08524875393" cy="-279.925416525244" r="2" style="fill: rgb(0,0,0)" />
	<circle cx="489.578813020142" cy="-276.946337263486" r="2" style="fill: rgb(0,0,0)" />
	<circle cx="192.226503347678" cy="-284.368965733254" r="2" style="fill: rgb(0,0,0)" />
	<circle cx="81.0563592117865" cy="-254.262640842429" r="2" style="fill: rgb(0,0,0)" />
	<circle cx="33.5" cy="-190.350310999058" r="2" style="fill: rgb(0,0,0)" />
	<circle cx="415.507827117398" cy="-426.458959602207" r="2" style="fill: rgb(0,0,0)" />
	<circle cx="409.890079708742" cy="-482.286519520026" r="2" style="fill: rgb(0,0,0)" />
	<circle cx="561.5" cy="-466.023281056392" r="2" style="fill: rgb(0,0,0)" />
	<circle cx="560.126256294852" cy="-467.732849701071" r="2" style="fill: rgb(0,0,0)" />
	<circle cx="481.390927484294" cy="-455.602672266928" r="2" style="fill: rgb(0,0,0)" />
	<!--
	Generated using the Perl SVG Module V2.86
	by Ronan Oger
	Info: http://www.roitsystems.com/
	-->
</svg>