<?xml version="1.0" encoding="UTF-8" standalone="yes"?>
<!DOCTYPE svg PUBLIC "-//W3C//DTD SVG 1.0//EN" "http://www.w3.org/TR/2001/REC-SVG-20010904/DTD/svg10.dtd">
<!-- generated using polymake; Michael Joswig, Georg Loho, Benjamin Lorenz, Rico Raber; license CC BY-NC-SA 3.0; see polymake.org and matchthenet.de -->
<svg height="841pt" id="document" viewBox="0 -515.549421086323 572 515.549421086323" width="595pt" xmlns="http://www.w3.org/2000/svg" xmlns:svg="http://www.w3.org/2000/svg" xmlns:xlink="http://www.w3.org/1999/xlink">
	<title id="document_title">planar_net_</title>
	<polygon points="228.047252117444,-208.388563245589 378.931055860886,-208.388563245589 379.45066776607,-211.326901519662 341.117977628815,-293.6623830024 339.131639756502,-294.699015314641 255.563184645734,-307.131304220022 210.109880620581,-246.011247867139 " style="fill: rgb(14,173,105); fill-opacity: 1; stroke: rgb(0,0,0); stroke-width: 3" />
	<polygon points="320.686516365829,-358.025763430154 393.091239808368,-358.05342476881 409.681838532536,-398.863255033053 345.973024775525,-381.848381988644 " style="fill: rgb(14,173,105); fill-opacity: 1; stroke: rgb(0,0,0); stroke-width: 3" />
	<polygon points="407.548136210342,-165.709587723601 378.931055860886,-208.388563245589 228.047252117444,-208.388563245589 297.703220052551,-138.676299348529 " style="fill: rgb(14,173,105); fill-opacity: 1; stroke: rgb(0,0,0); stroke-width: 3" />
	<polygon points="91.5480095780163,-122.317904744184 86.2058049860573,-121.047407637308 33.5,-68.6908927425717 79.2354839471115,-56.0886446826582 96.3206238722177,-60.642401459054 112.213169233276,-100.236743304957 " style="fill: rgb(14,173,105); fill-opacity: 1; stroke: rgb(0,0,0); stroke-width: 3" />
	<polygon points="121.662736256578,-396.870905948797 184.577062730215,-400.002491384738 154.768750256107,-458.822414561236 129.012944383778,-479.049421086323 121.584422605324,-471.161554069036 " style="fill: rgb(14,173,105); fill-opacity: 1; stroke: rgb(0,0,0); stroke-width: 3" />
	<polygon points="341.117977628815,-293.6623830024 379.45066776607,-211.326901519662 414.995274812764,-264.619324561471 " style="fill: rgb(14,173,105); fill-opacity: 1; stroke: rgb(0,0,0); stroke-width: 3" />
	<polygon points="255.563184645734,-307.131304220022 339.131639756502,-294.699015314641 394.669371589879,-348.416703522227 393.091239808368,-358.05342476881 320.686516365829,-358.025763430154 " style="fill: rgb(14,173,105); fill-opacity: 1; stroke: rgb(0,0,0); stroke-width: 3" />
	<polygon points="339.131639756502,-294.699015314641 341.117977628815,-293.6623830024 418.709749424003,-276.903169640996 453.866812818407,-287.16326997609 407.652924686094,-330.404241755029 " style="fill: rgb(14,173,105); fill-opacity: 1; stroke: rgb(0,0,0); stroke-width: 3" />
	<polygon points="481.851551816876,-236.179962184268 453.875641610127,-179.75117850401 471.308578081644,-165.774262212145 536.107846426003,-161.951879175204 561.5,-202.024184885189 559.575250959536,-212.687051433478 " style="fill: rgb(14,173,105); fill-opacity: 1; stroke: rgb(0,0,0); stroke-width: 3" />
	<polygon points="177.500124802364,-96.5543644014477 112.213169233276,-100.236743304957 102.545397718572,-58.6817303919074 138.238519343457,-53.5 " style="fill: rgb(14,173,105); fill-opacity: 1; stroke: rgb(0,0,0); stroke-width: 3" />
	<polygon points="228.047252117444,-208.388563245589 210.109880620581,-246.011247867139 91.5480095780163,-122.317904744184 112.213169233276,-100.236743304957 177.500124802364,-96.5543644014477 201.705392311757,-113.426149477763 " style="fill: rgb(14,173,105); fill-opacity: 1; stroke: rgb(0,0,0); stroke-width: 3" />
	<polygon points="453.290963214091,-324.562687253719 480.550062783976,-341.372356851192 441.452871016045,-412.53625120659 412.244623026906,-397.72505346623 393.091239808368,-358.05342476881 394.669371589879,-348.416703522227 " style="fill: rgb(14,173,105); fill-opacity: 1; stroke: rgb(0,0,0); stroke-width: 3" />
	<polygon points="379.45066776607,-211.326901519662 378.931055860886,-208.388563245589 419.019567084153,-176.242902461648 453.875641610127,-179.75117850401 481.851551816876,-236.179962184268 454.852742280507,-253.40458946488 419.156815716965,-261.595413121588 " style="fill: rgb(14,173,105); fill-opacity: 1; stroke: rgb(0,0,0); stroke-width: 3" />
	<polygon points="210.109880620581,-246.011247867139 255.563184645734,-307.131304220022 209.378353272398,-375.675127162953 184.577062730215,-400.002491384738 121.662736256578,-396.870905948797 119.890796646438,-391.673450531102 " style="fill: rgb(14,173,105); fill-opacity: 1; stroke: rgb(0,0,0); stroke-width: 3" />
	<polygon points="435.838094509847,-145.047250209146 407.548136210342,-165.709587723601 297.703220052551,-138.676299348529 318.618251845041,-117.864919000702 374.432534291414,-101.134173882216 421.663840894068,-127.774381383002 " style="fill: rgb(14,173,105); fill-opacity: 1; stroke: rgb(0,0,0); stroke-width: 3" />
	<polygon points="421.663840894068,-127.774381383002 374.432534291414,-101.134173882216 392.560433077013,-69.9535942403392 409.232307032375,-64.0639995297188 " style="fill: rgb(14,173,105); fill-opacity: 1; stroke: rgb(0,0,0); stroke-width: 3" />
	<circle cx="228.047252117444" cy="-208.388563245589" r="2" style="fill: rgb(0,0,0)" />
	<circle cx="378.931055860886" cy="-208.388563245589" r="2" style="fill: rgb(0,0,0)" />
	<circle cx="379.45066776607" cy="-211.326901519662" r="2" style="fill: rgb(0,0,0)" />
	<circle cx="341.117977628815" cy="-293.6623830024" r="2" style="fill: rgb(0,0,0)" />
	<circle cx="339.131639756502" cy="-294.699015314641" r="2" style="fill: rgb(0,0,0)" />
	<circle cx="255.563184645734" cy="-307.131304220022" r="2" style="fill: rgb(0,0,0)" />
	<circle cx="210.109880620581" cy="-246.011247867139" r="2" style="fill: rgb(0,0,0)" />
	<circle cx="297.703220052551" cy="-138.676299348529" r="2" style="fill: rgb(0,0,0)" />
	<circle cx="407.548136210342" cy="-165.709587723601" r="2" style="fill: rgb(0,0,0)" />
	<circle cx="414.995274812764" cy="-264.619324561471" r="2" style="fill: rgb(0,0,0)" />
	<circle cx="394.669371589879" cy="-348.416703522227" r="2" style="fill: rgb(0,0,0)" />
	<circle cx="393.091239808368" cy="-358.05342476881" r="2" style="fill: rgb(0,0,0)" />
	<circle cx="320.686516365829" cy="-358.025763430154" r="2" style="fill: rgb(0,0,0)" />
	<circle cx="418.709749424003" cy="-276.903169640996" r="2" style="fill: rgb(0,0,0)" />
	<circle cx="453.866812818407" cy="-287.16326997609" r="2" style="fill: rgb(0,0,0)" />
	<circle cx="407.652924686094" cy="-330.404241755029" r="2" style="fill: rgb(0,0,0)" />
	<circle cx="91.5480095780163" cy="-122.317904744184" r="2" style="fill: rgb(0,0,0)" />
	<circle cx="112.213169233276" cy="-100.236743304957" r="2" style="fill: rgb(0,0,0)" />
	<circle cx="177.500124802364" cy="-96.5543644014477" r="2" style="fill: rgb(0,0,0)" />
	<circle cx="201.705392311757" cy="-113.426149477763" r="2" style="fill: rgb(0,0,0)" />
	<circle cx="419.019567084153" cy="-176.242902461648" r="2" style="fill: rgb(0,0,0)" />
	<circle cx="453.875641610127" cy="-179.75117850401" r="2" style="fill: rgb(0,0,0)" />
	<circle cx="481.851551816876" cy="-236.179962184268" r="2" style="fill: rgb(0,0,0)" />
	<circle cx="454.852742280507" cy="-253.40458946488" r="2" style="fill: rgb(0,0,0)" />
	<circle cx="419.156815716965" cy="-261.595413121588" r="2" style="fill: rgb(0,0,0)" />
	<circle cx="209.378353272398" cy="-375.675127162953" r="2" style="fill: rgb(0,0,0)" />
	<circle cx="184.577062730215" cy="-400.002491384738" r="2" style="fill: rgb(0,0,0)" />
	<circle cx="121.662736256578" cy="-396.870905948797" r="2" style="fill: rgb(0,0,0)" />
	<circle cx="119.890796646438" cy="-391.673450531102" r="2" style="fill: rgb(0,0,0)" />
	<circle cx="318.618251845041" cy="-117.864919000702" r="2" style="fill: rgb(0,0,0)" />
	<circle cx="374.432534291414" cy="-101.134173882216" r="2" style="fill: rgb(0,0,0)" />
	<circle cx="421.663840894068" cy="-127.774381383002" r="2" style="fill: rgb(0,0,0)" />
	<circle cx="435.838094509847" cy="-145.047250209146" r="2" style="fill: rgb(0,0,0)" />
	<circle cx="409.681838532536" cy="-398.863255033053" r="2" style="fill: rgb(0,0,0)" />
	<circle cx="345.973024775525" cy="-381.848381988644" r="2" style="fill: rgb(0,0,0)" />
	<circle cx="453.290963214091" cy="-324.562687253719" r="2" style="fill: rgb(0,0,0)" />
	<circle cx="480.550062783976" cy="-341.372356851192" r="2" style="fill: rgb(0,0,0)" />
	<circle cx="441.452871016045" cy="-412.53625120659" r="2" style="fill: rgb(0,0,0)" />
	<circle cx="412.244623026906" cy="-397.72505346623" r="2" style="fill: rgb(0,0,0)" />
	<circle cx="86.2058049860573" cy="-121.047407637308" r="2" style="fill: rgb(0,0,0)" />
	<circle cx="33.5" cy="-68.6908927425717" r="2" style="fill: rgb(0,0,0)" />
	<circle cx="79.2354839471115" cy="-56.0886446826582" r="2" style="fill: rgb(0,0,0)" />
	<circle cx="96.3206238722177" cy="-60.642401459054" r="2" style="fill: rgb(0,0,0)" />
	<circle cx="102.545397718572" cy="-58.6817303919074" r="2" style="fill: rgb(0,0,0)" />
	<circle cx="138.238519343457" cy="-53.5" r="2" style="fill: rgb(0,0,0)" />
	<circle cx="471.308578081644" cy="-165.774262212145" r="2" style="fill: rgb(0,0,0)" />
	<circle cx="536.107846426003" cy="-161.951879175204" r="2" style="fill: rgb(0,0,0)" />
	<circle cx="561.5" cy="-202.024184885189" r="2" style="fill: rgb(0,0,0)" />
	<circle cx="559.575250959536" cy="-212.687051433478" r="2" style="fill: rgb(0,0,0)" />
	<circle cx="154.768750256107" cy="-458.822414561236" r="2" style="fill: rgb(0,0,0)" />
	<circle cx="129.012944383778" cy="-479.049421086323" r="2" style="fill: rgb(0,0,0)" />
	<circle cx="121.584422605324" cy="-471.161554069036" r="2" style="fill: rgb(0,0,0)" />
	<circle cx="392.560433077013" cy="-69.9535942403392" r="2" style="fill: rgb(0,0,0)" />
	<circle cx="409.232307032375" cy="-64.0639995297188" r="2" style="fill: rgb(0,0,0)" />
	<!-- 
	Generated using the Perl SVG Module V2.64
	by Ronan Oger
	Info: http://www.roitsystems.com/
 -->
</svg>