<?xml version="1.0" encoding="UTF-8" standalone="yes"?>
<!DOCTYPE svg PUBLIC "-//W3C//DTD SVG 1.0//EN" "http://www.w3.org/TR/2001/REC-SVG-20010904/DTD/svg10.dtd">
<!-- generated using polymake; Michael Joswig, Georg Loho, Benjamin Lorenz, Rico Raber; license CC BY-NC-ND 3.0; see polymake.org and matchthenet.de -->
<svg height="841pt" id="document" viewBox="0 -621.166800582997 572 621.166800582997" width="595pt" xmlns="http://www.w3.org/2000/svg" xmlns:svg="http://www.w3.org/2000/svg" xmlns:xlink="http://www.w3.org/1999/xlink">
	<title id="document_title">planar_net_</title>
	<polygon points="165.907158575554,-325.462799407077 375.731593004046,-325.462799407077 419.049096045507,-423.233336999511 397.926264221085,-459.147591880551 218.985109814545,-411.253512440608 188.297074052059,-376.852142117841 " style="fill: rgb(14,173,105); fill-opacity: 1; stroke: rgb(0,0,0); stroke-width: 3" />
	<polygon points="252.246184595713,-198.064116957548 375.731593004046,-325.462799407077 165.907158575554,-325.462799407077 167.96510516191,-191.289623489293 " style="fill: rgb(14,173,105); fill-opacity: 1; stroke: rgb(0,0,0); stroke-width: 3" />
	<polygon points="188.297074052059,-376.852142117841 218.985109814545,-411.253512440608 182.448671876214,-475.917453097454 173.206706242062,-481.422387961385 167.317568008608,-482.212913816706 157.486698828476,-459.359580300032 " style="fill: rgb(14,173,105); fill-opacity: 1; stroke: rgb(0,0,0); stroke-width: 3" />
	<polygon points="419.049096045507,-423.233336999511 375.731593004046,-325.462799407077 446.855129565126,-162.918919403257 512.511811389734,-276.41370130849 507.819022979555,-289.050516245507 " style="fill: rgb(14,173,105); fill-opacity: 1; stroke: rgb(0,0,0); stroke-width: 3" />
	<polygon points="167.317568008608,-482.212913816706 173.206706242062,-481.422387961385 191.828735785877,-528.087471149429 147.932523102903,-502.190456254852 " style="fill: rgb(14,173,105); fill-opacity: 1; stroke: rgb(0,0,0); stroke-width: 3" />
	<polygon points="311.606066545006,-81.1527411085421 252.246184595713,-198.064116957548 167.96510516191,-191.289623489293 230.418519058862,-90.5438939024945 265.089952047884,-53.5 295.833561127585,-59.7156458526654 " style="fill: rgb(14,173,105); fill-opacity: 1; stroke: rgb(0,0,0); stroke-width: 3" />
	<polygon points="157.486698828476,-459.359580300032 167.317568008608,-482.212913816706 146.053052574986,-500.176837420352 128.842966964959,-498.073585359639 95.7506498320529,-459.612476590596 " style="fill: rgb(14,173,105); fill-opacity: 1; stroke: rgb(0,0,0); stroke-width: 3" />
	<polygon points="218.985109814545,-411.253512440608 397.926264221085,-459.147591880551 291.594151110096,-508.743522149698 226.133160231503,-485.180786796752 " style="fill: rgb(14,173,105); fill-opacity: 1; stroke: rgb(0,0,0); stroke-width: 3" />
	<polygon points="165.907158575554,-325.462799407077 188.297074052059,-376.852142117841 128.357994323356,-441.381695797366 72.2167443806301,-415.699722409607 33.5,-303.667831227153 " style="fill: rgb(14,173,105); fill-opacity: 1; stroke: rgb(0,0,0); stroke-width: 3" />
	<polygon points="494.380874478985,-548.973182104602 527.836581634877,-547.282010414636 552.221607233253,-552.675502984453 561.5,-582.637398456509 544.281049888448,-584.666800582997 501.955945541416,-556.274576112625 " style="fill: rgb(14,173,105); fill-opacity: 1; stroke: rgb(0,0,0); stroke-width: 3" />
	<polygon points="217.725692129776,-535.883073799225 203.26036662664,-532.854165587632 194.59620368684,-526.88555296711 173.206706242062,-481.422387961385 182.448671876214,-475.917453097454 " style="fill: rgb(14,173,105); fill-opacity: 1; stroke: rgb(0,0,0); stroke-width: 3" />
	<polygon points="507.819022979555,-289.050516245507 512.511811389734,-276.41370130849 538.807864052179,-280.517186964255 537.007898050309,-305.426610039185 " style="fill: rgb(14,173,105); fill-opacity: 1; stroke: rgb(0,0,0); stroke-width: 3" />
	<polygon points="397.926264221085,-459.147591880551 419.049096045507,-423.233336999511 547.457858979817,-520.167948542858 527.836581634877,-547.282010414636 494.380874478985,-548.973182104602 481.842315983636,-541.149853035425 " style="fill: rgb(14,173,105); fill-opacity: 1; stroke: rgb(0,0,0); stroke-width: 3" />
	<circle cx="165.907158575554" cy="-325.462799407077" r="2" style="fill: rgb(0,0,0)" />
	<circle cx="375.731593004046" cy="-325.462799407077" r="2" style="fill: rgb(0,0,0)" />
	<circle cx="419.049096045507" cy="-423.233336999511" r="2" style="fill: rgb(0,0,0)" />
	<circle cx="397.926264221085" cy="-459.147591880551" r="2" style="fill: rgb(0,0,0)" />
	<circle cx="218.985109814545" cy="-411.253512440608" r="2" style="fill: rgb(0,0,0)" />
	<circle cx="188.297074052059" cy="-376.852142117841" r="2" style="fill: rgb(0,0,0)" />
	<circle cx="167.96510516191" cy="-191.289623489293" r="2" style="fill: rgb(0,0,0)" />
	<circle cx="252.246184595713" cy="-198.064116957548" r="2" style="fill: rgb(0,0,0)" />
	<circle cx="182.448671876214" cy="-475.917453097454" r="2" style="fill: rgb(0,0,0)" />
	<circle cx="173.206706242062" cy="-481.422387961385" r="2" style="fill: rgb(0,0,0)" />
	<circle cx="167.317568008608" cy="-482.212913816706" r="2" style="fill: rgb(0,0,0)" />
	<circle cx="157.486698828476" cy="-459.359580300032" r="2" style="fill: rgb(0,0,0)" />
	<circle cx="446.855129565126" cy="-162.918919403257" r="2" style="fill: rgb(0,0,0)" />
	<circle cx="512.511811389734" cy="-276.41370130849" r="2" style="fill: rgb(0,0,0)" />
	<circle cx="507.819022979555" cy="-289.050516245507" r="2" style="fill: rgb(0,0,0)" />
	<circle cx="291.594151110096" cy="-508.743522149698" r="2" style="fill: rgb(0,0,0)" />
	<circle cx="226.133160231503" cy="-485.180786796752" r="2" style="fill: rgb(0,0,0)" />
	<circle cx="128.357994323356" cy="-441.381695797366" r="2" style="fill: rgb(0,0,0)" />
	<circle cx="72.2167443806301" cy="-415.699722409607" r="2" style="fill: rgb(0,0,0)" />
	<circle cx="33.5" cy="-303.667831227153" r="2" style="fill: rgb(0,0,0)" />
	<circle cx="547.457858979817" cy="-520.167948542858" r="2" style="fill: rgb(0,0,0)" />
	<circle cx="527.836581634877" cy="-547.282010414636" r="2" style="fill: rgb(0,0,0)" />
	<circle cx="494.380874478985" cy="-548.973182104602" r="2" style="fill: rgb(0,0,0)" />
	<circle cx="481.842315983636" cy="-541.149853035425" r="2" style="fill: rgb(0,0,0)" />
	<circle cx="230.418519058862" cy="-90.5438939024945" r="2" style="fill: rgb(0,0,0)" />
	<circle cx="265.089952047884" cy="-53.5" r="2" style="fill: rgb(0,0,0)" />
	<circle cx="295.833561127585" cy="-59.7156458526654" r="2" style="fill: rgb(0,0,0)" />
	<circle cx="311.606066545006" cy="-81.1527411085421" r="2" style="fill: rgb(0,0,0)" />
	<circle cx="191.828735785877" cy="-528.087471149429" r="2" style="fill: rgb(0,0,0)" />
	<circle cx="147.932523102903" cy="-502.190456254852" r="2" style="fill: rgb(0,0,0)" />
	<circle cx="146.053052574986" cy="-500.176837420352" r="2" style="fill: rgb(0,0,0)" />
	<circle cx="128.842966964959" cy="-498.073585359639" r="2" style="fill: rgb(0,0,0)" />
	<circle cx="95.7506498320529" cy="-459.612476590596" r="2" style="fill: rgb(0,0,0)" />
	<circle cx="217.725692129776" cy="-535.883073799225" r="2" style="fill: rgb(0,0,0)" />
	<circle cx="203.26036662664" cy="-532.854165587632" r="2" style="fill: rgb(0,0,0)" />
	<circle cx="194.59620368684" cy="-526.88555296711" r="2" style="fill: rgb(0,0,0)" />
	<circle cx="538.807864052179" cy="-280.517186964255" r="2" style="fill: rgb(0,0,0)" />
	<circle cx="537.007898050309" cy="-305.426610039185" r="2" style="fill: rgb(0,0,0)" />
	<circle cx="552.221607233253" cy="-552.675502984453" r="2" style="fill: rgb(0,0,0)" />
	<circle cx="561.5" cy="-582.637398456509" r="2" style="fill: rgb(0,0,0)" />
	<circle cx="544.281049888448" cy="-584.666800582997" r="2" style="fill: rgb(0,0,0)" />
	<circle cx="501.955945541416" cy="-556.274576112625" r="2" style="fill: rgb(0,0,0)" />
	<!--
	Generated using the Perl SVG Module V2.84
	by Ronan Oger
	Info: http://www.roitsystems.com/
	-->
</svg>