<?xml version="1.0" encoding="UTF-8" standalone="yes"?>
<!DOCTYPE svg PUBLIC "-//W3C//DTD SVG 1.0//EN" "http://www.w3.org/TR/2001/REC-SVG-20010904/DTD/svg10.dtd">
<!-- generated using polymake; Michael Joswig, Georg Loho, Benjamin Lorenz, Rico Raber; license CC BY-NC-SA 3.0; see polymake.org and matchthenet.de -->
<svg height="841pt" id="document" viewBox="0 -811 494.572338916762 811" width="595pt" xmlns="http://www.w3.org/2000/svg" xmlns:svg="http://www.w3.org/2000/svg" xmlns:xlink="http://www.w3.org/1999/xlink">
	<title id="document_title">planar_net_</title>
	<polygon points="206.474154794226,-319.555806031906 379.396150387941,-319.555806031906 335.243530402194,-466.357249941835 215.661974823454,-496.232920636399 168.594927599978,-468.29802155919 " style="fill: rgb(255,210,63); fill-opacity: 1; stroke: rgb(0,0,0); stroke-width: 3" />
	<polygon points="271.323832992709,-53.5 286.745227107085,-162.801734538766 239.481075273105,-141.372649653864 233.002846289941,-75.5136677431561 " style="fill: rgb(67,184,206); fill-opacity: 1; stroke: rgb(0,0,0); stroke-width: 3" />
	<polygon points="286.745227107085,-162.801734538766 379.396150387941,-319.555806031906 206.474154794226,-319.555806031906 194.688982213654,-300.810680661827 160.805297290834,-233.359584319821 138.683301438234,-127.988586688078 239.481075273105,-141.372649653864 " style="fill: rgb(84,13,110); fill-opacity: 1; stroke: rgb(0,0,0); stroke-width: 3" />
	<polygon points="168.594927599978,-468.29802155919 215.661974823454,-496.232920636399 178.799157756596,-566.429804650455 139.493047680629,-499.67037757947 " style="fill: rgb(67,184,206); fill-opacity: 1; stroke: rgb(0,0,0); stroke-width: 3" />
	<polygon points="215.661974823454,-496.232920636399 335.243530402194,-466.357249941835 261.759755501608,-623.314702660022 231.632882814321,-626.890442881656 224.404646933549,-626.944802998056 210.517316003091,-609.493601676647 197.559978372018,-573.426103831935 " style="fill: rgb(84,13,110); fill-opacity: 1; stroke: rgb(0,0,0); stroke-width: 3" />
	<polygon points="194.688982213654,-300.810680661827 41.302101198706,-224.617426530288 41.4432745150731,-223.454757225392 42.8147492200536,-222.118174885577 160.805297290834,-233.359584319821 " style="fill: rgb(255,210,63); fill-opacity: 1; stroke: rgb(0,0,0); stroke-width: 3" />
	<polygon points="138.683301438234,-127.988586688078 160.805297290834,-233.359584319821 48.5996497856023,-195.175407125026 123.426983983114,-120.063803680819 " style="fill: rgb(67,184,206); fill-opacity: 1; stroke: rgb(0,0,0); stroke-width: 3" />
	<polygon points="335.243530402194,-466.357249941835 379.396150387941,-319.555806031906 484.072338916762,-468.54885308294 460.247662146451,-576.331381103023 413.452724935561,-621.014383718024 " style="fill: rgb(255,210,63); fill-opacity: 1; stroke: rgb(0,0,0); stroke-width: 3" />
	<polygon points="261.759755501608,-623.314702660022 284.316328898913,-683.95740929352 264.881192623243,-723.648404082364 242.497344734812,-738.029179243303 231.632882814321,-626.890442881656 " style="fill: rgb(255,210,63); fill-opacity: 1; stroke: rgb(0,0,0); stroke-width: 3" />
	<polygon points="58.7784125397518,-114.639410052182 116.822605084635,-116.896906495404 123.426983983114,-120.063803680819 48.5996497856023,-195.175407125026 46.8627754466497,-195.982043814124 33.5,-166.496034813332 " style="fill: rgb(238,66,102); fill-opacity: 1; stroke: rgb(0,0,0); stroke-width: 3" />
	<polygon points="178.799157756596,-566.429804650455 176.149377438574,-604.662456448762 117.442420710018,-545.001643337857 110.885411194311,-513.300001098949 111.838093988587,-512.618733668867 139.493047680629,-499.67037757947 " style="fill: rgb(238,66,102); fill-opacity: 1; stroke: rgb(0,0,0); stroke-width: 3" />
	<polygon points="239.481075273105,-141.372649653864 138.683301438234,-127.988586688078 135.030879536276,-111.189264610884 138.314366648946,-104.642068967042 198.051908263595,-81.7776083525016 224.220967902037,-76.9793109293092 " style="fill: rgb(238,66,102); fill-opacity: 1; stroke: rgb(0,0,0); stroke-width: 3" />
	<polygon points="206.474154794226,-319.555806031906 168.594927599978,-468.29802155919 129.093487060211,-484.753425911147 99.8213327981317,-476.058750875003 186.035336755399,-328.071951584299 " style="fill: rgb(255,210,63); fill-opacity: 1; stroke: rgb(0,0,0); stroke-width: 3" />
	<polygon points="176.149377438574,-604.662456448762 177.582062354916,-626.918911733987 84.3511245696543,-592.257053524414 117.442420710018,-545.001643337857 " style="fill: rgb(67,184,206); fill-opacity: 1; stroke: rgb(0,0,0); stroke-width: 3" />
	<polygon points="224.404646933549,-626.944802998056 231.632882814321,-626.890442881656 227.704980618454,-738.489846272576 174.840755797854,-774.5 181.817450422176,-716.832415426895 " style="fill: rgb(255,210,63); fill-opacity: 1; stroke: rgb(0,0,0); stroke-width: 3" />
	<circle cx="206.474154794226" cy="-319.555806031906" r="2" style="fill: rgb(0,0,0)" />
	<circle cx="379.396150387941" cy="-319.555806031906" r="2" style="fill: rgb(0,0,0)" />
	<circle cx="335.243530402194" cy="-466.357249941835" r="2" style="fill: rgb(0,0,0)" />
	<circle cx="215.661974823454" cy="-496.232920636399" r="2" style="fill: rgb(0,0,0)" />
	<circle cx="168.594927599978" cy="-468.29802155919" r="2" style="fill: rgb(0,0,0)" />
	<circle cx="194.688982213654" cy="-300.810680661827" r="2" style="fill: rgb(0,0,0)" />
	<circle cx="160.805297290834" cy="-233.359584319821" r="2" style="fill: rgb(0,0,0)" />
	<circle cx="138.683301438234" cy="-127.988586688078" r="2" style="fill: rgb(0,0,0)" />
	<circle cx="239.481075273105" cy="-141.372649653864" r="2" style="fill: rgb(0,0,0)" />
	<circle cx="286.745227107085" cy="-162.801734538766" r="2" style="fill: rgb(0,0,0)" />
	<circle cx="178.799157756596" cy="-566.429804650455" r="2" style="fill: rgb(0,0,0)" />
	<circle cx="139.493047680629" cy="-499.67037757947" r="2" style="fill: rgb(0,0,0)" />
	<circle cx="261.759755501608" cy="-623.314702660022" r="2" style="fill: rgb(0,0,0)" />
	<circle cx="231.632882814321" cy="-626.890442881656" r="2" style="fill: rgb(0,0,0)" />
	<circle cx="224.404646933549" cy="-626.944802998056" r="2" style="fill: rgb(0,0,0)" />
	<circle cx="210.517316003091" cy="-609.493601676647" r="2" style="fill: rgb(0,0,0)" />
	<circle cx="197.559978372018" cy="-573.426103831935" r="2" style="fill: rgb(0,0,0)" />
	<circle cx="484.072338916762" cy="-468.54885308294" r="2" style="fill: rgb(0,0,0)" />
	<circle cx="460.247662146451" cy="-576.331381103023" r="2" style="fill: rgb(0,0,0)" />
	<circle cx="413.452724935561" cy="-621.014383718024" r="2" style="fill: rgb(0,0,0)" />
	<circle cx="129.093487060211" cy="-484.753425911147" r="2" style="fill: rgb(0,0,0)" />
	<circle cx="99.8213327981317" cy="-476.058750875003" r="2" style="fill: rgb(0,0,0)" />
	<circle cx="186.035336755399" cy="-328.071951584299" r="2" style="fill: rgb(0,0,0)" />
	<circle cx="233.002846289941" cy="-75.5136677431561" r="2" style="fill: rgb(0,0,0)" />
	<circle cx="271.323832992709" cy="-53.5" r="2" style="fill: rgb(0,0,0)" />
	<circle cx="41.302101198706" cy="-224.617426530288" r="2" style="fill: rgb(0,0,0)" />
	<circle cx="41.4432745150731" cy="-223.454757225392" r="2" style="fill: rgb(0,0,0)" />
	<circle cx="42.8147492200536" cy="-222.118174885577" r="2" style="fill: rgb(0,0,0)" />
	<circle cx="48.5996497856023" cy="-195.175407125026" r="2" style="fill: rgb(0,0,0)" />
	<circle cx="123.426983983114" cy="-120.063803680819" r="2" style="fill: rgb(0,0,0)" />
	<circle cx="135.030879536276" cy="-111.189264610884" r="2" style="fill: rgb(0,0,0)" />
	<circle cx="138.314366648946" cy="-104.642068967042" r="2" style="fill: rgb(0,0,0)" />
	<circle cx="198.051908263595" cy="-81.7776083525016" r="2" style="fill: rgb(0,0,0)" />
	<circle cx="224.220967902037" cy="-76.9793109293092" r="2" style="fill: rgb(0,0,0)" />
	<circle cx="176.149377438574" cy="-604.662456448762" r="2" style="fill: rgb(0,0,0)" />
	<circle cx="117.442420710018" cy="-545.001643337857" r="2" style="fill: rgb(0,0,0)" />
	<circle cx="110.885411194311" cy="-513.300001098949" r="2" style="fill: rgb(0,0,0)" />
	<circle cx="111.838093988587" cy="-512.618733668867" r="2" style="fill: rgb(0,0,0)" />
	<circle cx="284.316328898913" cy="-683.95740929352" r="2" style="fill: rgb(0,0,0)" />
	<circle cx="264.881192623243" cy="-723.648404082364" r="2" style="fill: rgb(0,0,0)" />
	<circle cx="242.497344734812" cy="-738.029179243303" r="2" style="fill: rgb(0,0,0)" />
	<circle cx="227.704980618454" cy="-738.489846272576" r="2" style="fill: rgb(0,0,0)" />
	<circle cx="174.840755797854" cy="-774.5" r="2" style="fill: rgb(0,0,0)" />
	<circle cx="181.817450422176" cy="-716.832415426895" r="2" style="fill: rgb(0,0,0)" />
	<circle cx="46.8627754466497" cy="-195.982043814124" r="2" style="fill: rgb(0,0,0)" />
	<circle cx="33.5" cy="-166.496034813332" r="2" style="fill: rgb(0,0,0)" />
	<circle cx="58.7784125397518" cy="-114.639410052182" r="2" style="fill: rgb(0,0,0)" />
	<circle cx="116.822605084635" cy="-116.896906495404" r="2" style="fill: rgb(0,0,0)" />
	<circle cx="177.582062354916" cy="-626.918911733987" r="2" style="fill: rgb(0,0,0)" />
	<circle cx="84.3511245696543" cy="-592.257053524414" r="2" style="fill: rgb(0,0,0)" />
	<!-- 
	Generated using the Perl SVG Module V2.64
	by Ronan Oger
	Info: http://www.roitsystems.com/
 -->
</svg>