<?xml version="1.0" encoding="UTF-8" standalone="yes"?>
<!DOCTYPE svg PUBLIC "-//W3C//DTD SVG 1.0//EN" "http://www.w3.org/TR/2001/REC-SVG-20010904/DTD/svg10.dtd">
<!-- generated using polymake; Michael Joswig, Georg Loho, Benjamin Lorenz, Rico Raber; license CC BY-NC-ND 3.0; see polymake.org and matchthenet.de -->
<svg height="841pt" id="document" viewBox="0 -811 506.16405015763 811" width="595pt" xmlns="http://www.w3.org/2000/svg" xmlns:svg="http://www.w3.org/2000/svg" xmlns:xlink="http://www.w3.org/1999/xlink">
	<title id="document_title">planar_net_</title>
	<polygon points="209.384174276844,-363.423610204379 299.133142312492,-363.423610204379 329.350242433108,-558.187618193552 279.376355227962,-602.982035783068 225.860942267061,-554.657971603451 134.515114429556,-390.942944420432 " style="fill: rgb(14,173,105); fill-opacity: 1; stroke: rgb(0,0,0); stroke-width: 3" />
	<polygon points="347.733392115719,-348.350372308819 299.133142312492,-363.423610204379 209.384174276844,-363.423610204379 314.2717804056,-165.487379081454 382.299243091508,-226.938611341777 " style="fill: rgb(14,173,105); fill-opacity: 1; stroke: rgb(0,0,0); stroke-width: 3" />
	<polygon points="260.636586514736,-651.656960497661 242.422054437618,-701.794881816485 111.121651157924,-718.77624095215 92.7378863408207,-708.78555218 157.528921966543,-657.277239896496 " style="fill: rgb(14,173,105); fill-opacity: 1; stroke: rgb(0,0,0); stroke-width: 3" />
	<polygon points="493.761778331988,-302.854140913839 347.733392115719,-348.350372308819 382.299243091508,-226.938611341777 482.876349706022,-184.967702829702 495.66405015763,-192.717964750116 " style="fill: rgb(14,173,105); fill-opacity: 1; stroke: rgb(0,0,0); stroke-width: 3" />
	<polygon points="329.350242433108,-558.187618193552 299.133142312492,-363.423610204379 349.481950335541,-370.784609609959 382.197785089238,-520.196358841542 " style="fill: rgb(14,173,105); fill-opacity: 1; stroke: rgb(0,0,0); stroke-width: 3" />
	<polygon points="225.860942267061,-554.657971603451 279.376355227962,-602.982035783068 260.636586514736,-651.656960497661 157.528921966543,-657.277239896496 " style="fill: rgb(14,173,105); fill-opacity: 1; stroke: rgb(0,0,0); stroke-width: 3" />
	<polygon points="314.2717804056,-165.487379081454 312.770535301543,-162.594712824862 384.014688523785,-114.93909546271 435.650006955372,-131.906998015386 382.299243091508,-226.938611341777 " style="fill: rgb(14,173,105); fill-opacity: 1; stroke: rgb(0,0,0); stroke-width: 3" />
	<polygon points="90.9219582825193,-132.741358392845 90.6581160375149,-110.503470214169 99.2573683060423,-91.4291541998342 202.162588040905,-53.5 192.237607293627,-138.636842739725 " style="fill: rgb(14,173,105); fill-opacity: 1; stroke: rgb(0,0,0); stroke-width: 3" />
	<polygon points="279.376355227962,-602.982035783068 329.350242433108,-558.187618193552 387.282088758091,-528.521143287995 461.990085248823,-609.467490941277 362.968934871672,-666.714715172288 317.970476916762,-638.06651951114 " style="fill: rgb(14,173,105); fill-opacity: 1; stroke: rgb(0,0,0); stroke-width: 3" />
	<polygon points="362.968934871672,-666.714715172288 461.990085248823,-609.467490941277 475.389886784996,-616.103541081711 474.508787005653,-670.448177337263 439.848677548865,-774.5 " style="fill: rgb(14,173,105); fill-opacity: 1; stroke: rgb(0,0,0); stroke-width: 3" />
	<polygon points="209.384174276844,-363.423610204379 134.515114429556,-390.942944420432 90.9219582825193,-132.741358392845 192.237607293627,-138.636842739725 195.258332667178,-139.860146934129 " style="fill: rgb(14,173,105); fill-opacity: 1; stroke: rgb(0,0,0); stroke-width: 3" />
	<polygon points="134.515114429556,-390.942944420432 225.860942267061,-554.657971603451 125.942691059209,-626.882083220794 46.611248094356,-650.493662771177 33.5,-632.530131470632 " style="fill: rgb(14,173,105); fill-opacity: 1; stroke: rgb(0,0,0); stroke-width: 3" />
	<circle cx="209.384174276844" cy="-363.423610204379" r="2" style="fill: rgb(0,0,0)" />
	<circle cx="299.133142312492" cy="-363.423610204379" r="2" style="fill: rgb(0,0,0)" />
	<circle cx="329.350242433108" cy="-558.187618193552" r="2" style="fill: rgb(0,0,0)" />
	<circle cx="279.376355227962" cy="-602.982035783068" r="2" style="fill: rgb(0,0,0)" />
	<circle cx="225.860942267061" cy="-554.657971603451" r="2" style="fill: rgb(0,0,0)" />
	<circle cx="134.515114429556" cy="-390.942944420432" r="2" style="fill: rgb(0,0,0)" />
	<circle cx="314.2717804056" cy="-165.487379081454" r="2" style="fill: rgb(0,0,0)" />
	<circle cx="382.299243091508" cy="-226.938611341777" r="2" style="fill: rgb(0,0,0)" />
	<circle cx="347.733392115719" cy="-348.350372308819" r="2" style="fill: rgb(0,0,0)" />
	<circle cx="349.481950335541" cy="-370.784609609959" r="2" style="fill: rgb(0,0,0)" />
	<circle cx="382.197785089238" cy="-520.196358841542" r="2" style="fill: rgb(0,0,0)" />
	<circle cx="260.636586514736" cy="-651.656960497661" r="2" style="fill: rgb(0,0,0)" />
	<circle cx="157.528921966543" cy="-657.277239896496" r="2" style="fill: rgb(0,0,0)" />
	<circle cx="387.282088758091" cy="-528.521143287995" r="2" style="fill: rgb(0,0,0)" />
	<circle cx="461.990085248823" cy="-609.467490941277" r="2" style="fill: rgb(0,0,0)" />
	<circle cx="362.968934871672" cy="-666.714715172288" r="2" style="fill: rgb(0,0,0)" />
	<circle cx="317.970476916762" cy="-638.06651951114" r="2" style="fill: rgb(0,0,0)" />
	<circle cx="90.9219582825193" cy="-132.741358392845" r="2" style="fill: rgb(0,0,0)" />
	<circle cx="192.237607293627" cy="-138.636842739725" r="2" style="fill: rgb(0,0,0)" />
	<circle cx="195.258332667178" cy="-139.860146934129" r="2" style="fill: rgb(0,0,0)" />
	<circle cx="125.942691059209" cy="-626.882083220794" r="2" style="fill: rgb(0,0,0)" />
	<circle cx="46.611248094356" cy="-650.493662771177" r="2" style="fill: rgb(0,0,0)" />
	<circle cx="33.5" cy="-632.530131470632" r="2" style="fill: rgb(0,0,0)" />
	<circle cx="482.876349706022" cy="-184.967702829702" r="2" style="fill: rgb(0,0,0)" />
	<circle cx="495.66405015763" cy="-192.717964750116" r="2" style="fill: rgb(0,0,0)" />
	<circle cx="493.761778331988" cy="-302.854140913839" r="2" style="fill: rgb(0,0,0)" />
	<circle cx="312.770535301543" cy="-162.594712824862" r="2" style="fill: rgb(0,0,0)" />
	<circle cx="384.014688523785" cy="-114.93909546271" r="2" style="fill: rgb(0,0,0)" />
	<circle cx="435.650006955372" cy="-131.906998015386" r="2" style="fill: rgb(0,0,0)" />
	<circle cx="242.422054437618" cy="-701.794881816485" r="2" style="fill: rgb(0,0,0)" />
	<circle cx="111.121651157924" cy="-718.77624095215" r="2" style="fill: rgb(0,0,0)" />
	<circle cx="92.7378863408207" cy="-708.78555218" r="2" style="fill: rgb(0,0,0)" />
	<circle cx="475.389886784996" cy="-616.103541081711" r="2" style="fill: rgb(0,0,0)" />
	<circle cx="474.508787005653" cy="-670.448177337263" r="2" style="fill: rgb(0,0,0)" />
	<circle cx="439.848677548865" cy="-774.5" r="2" style="fill: rgb(0,0,0)" />
	<circle cx="90.6581160375149" cy="-110.503470214169" r="2" style="fill: rgb(0,0,0)" />
	<circle cx="99.2573683060423" cy="-91.4291541998342" r="2" style="fill: rgb(0,0,0)" />
	<circle cx="202.162588040905" cy="-53.5" r="2" style="fill: rgb(0,0,0)" />
	<!--
	Generated using the Perl SVG Module V2.87
	by Ronan Oger

	-->
</svg>