<?xml version="1.0" encoding="UTF-8" standalone="yes"?>
<!DOCTYPE svg PUBLIC "-//W3C//DTD SVG 1.0//EN" "http://www.w3.org/TR/2001/REC-SVG-20010904/DTD/svg10.dtd">
<!-- generated using polymake; Michael Joswig, Georg Loho, Benjamin Lorenz, Rico Raber; license CC BY-NC-ND 3.0; see polymake.org and matchthenet.de -->
<svg height="841pt" id="document" viewBox="0 -577.938327476149 572 577.938327476149" width="595pt" xmlns="http://www.w3.org/2000/svg" xmlns:svg="http://www.w3.org/2000/svg" xmlns:xlink="http://www.w3.org/1999/xlink">
	<title id="document_title">planar_net_</title>
	<polygon points="244.220185887516,-289.948784043973 330.96507923526,-289.948784043973 271.238330759824,-347.217173674514 210.409548377659,-372.014308605529 195.050020069153,-359.943170926915 " style="fill: rgb(14,173,105); fill-opacity: 1; stroke: rgb(0,0,0); stroke-width: 3" />
	<polygon points="117.957207357811,-409.877134592362 119.861554514784,-411.637115170226 117.830930565667,-517.502784882976 85.1793627898096,-541.438327476149 33.5,-540.1880671684 " style="fill: rgb(14,173,105); fill-opacity: 1; stroke: rgb(0,0,0); stroke-width: 3" />
	<polygon points="362.551447314285,-267.496252887135 330.96507923526,-289.948784043973 244.220185887516,-289.948784043973 237.454504554274,-223.459266834365 274.503687410198,-185.805781322999 369.862734669337,-224.204237050411 372.047746099159,-260.219830734695 " style="fill: rgb(14,173,105); fill-opacity: 1; stroke: rgb(0,0,0); stroke-width: 3" />
	<polygon points="314.946049512837,-74.3512405710307 362.248749814687,-53.5 383.366121821032,-78.6064904686454 352.520451935893,-152.628856555524 305.702657233671,-93.2066818786601 " style="fill: rgb(14,173,105); fill-opacity: 1; stroke: rgb(0,0,0); stroke-width: 3" />
	<polygon points="369.862734669337,-224.204237050411 274.503687410198,-185.805781322999 282.486380894492,-122.027228507009 305.702657233671,-93.2066818786601 352.520451935893,-152.628856555524 " style="fill: rgb(14,173,105); fill-opacity: 1; stroke: rgb(0,0,0); stroke-width: 3" />
	<polygon points="526.787803658239,-312.090832433155 498.101746836497,-298.804728378291 507.894162190305,-251.787432106079 538.154190708041,-239.114234474377 558.686462647186,-274.006366631467 561.5,-317.045629207628 " style="fill: rgb(14,173,105); fill-opacity: 1; stroke: rgb(0,0,0); stroke-width: 3" />
	<polygon points="497.536638033081,-381.56450701995 375.95829670917,-271.526183103106 372.047746099159,-260.219830734695 463.258026645606,-299.276304449163 503.764222921364,-383.212554890523 " style="fill: rgb(14,173,105); fill-opacity: 1; stroke: rgb(0,0,0); stroke-width: 3" />
	<polygon points="226.802583655603,-225.425474494938 136.651536002228,-311.826264142424 178.200353480308,-168.109503747865 242.119959651486,-174.870505262956 " style="fill: rgb(14,173,105); fill-opacity: 1; stroke: rgb(0,0,0); stroke-width: 3" />
	<polygon points="210.409548377659,-372.014308605529 271.238330759824,-347.217173674514 258.313442639976,-402.553667132067 256.286912530837,-408.668571141226 254.200953245016,-410.643375831863 235.69021990635,-420.642735855182 " style="fill: rgb(14,173,105); fill-opacity: 1; stroke: rgb(0,0,0); stroke-width: 3" />
	<polygon points="244.220185887516,-289.948784043973 195.050020069153,-359.943170926915 123.212880000729,-333.424017394762 136.651536002228,-311.826264142424 226.802583655603,-225.425474494938 " style="fill: rgb(14,173,105); fill-opacity: 1; stroke: rgb(0,0,0); stroke-width: 3" />
	<polygon points="123.212880000729,-333.424017394762 83.1172085402895,-325.855485821673 100.501001643333,-171.5448809986 116.386972782039,-157.811567898265 153.012440993133,-163.121414725829 136.651536002228,-311.826264142424 " style="fill: rgb(14,173,105); fill-opacity: 1; stroke: rgb(0,0,0); stroke-width: 3" />
	<polygon points="372.047746099159,-260.219830734695 369.862734669337,-224.204237050411 441.445930510571,-206.894241771676 507.894162190305,-251.787432106079 498.101746836497,-298.804728378291 463.258026645606,-299.276304449163 " style="fill: rgb(14,173,105); fill-opacity: 1; stroke: rgb(0,0,0); stroke-width: 3" />
	<polygon points="235.69021990635,-420.642735855182 254.200953245016,-410.643375831863 305.597197829027,-436.678943285323 278.722626582199,-459.201021480828 233.325131281651,-454.427358663249 " style="fill: rgb(14,173,105); fill-opacity: 1; stroke: rgb(0,0,0); stroke-width: 3" />
	<polygon points="271.238330759824,-347.217173674514 330.96507923526,-289.948784043973 366.743884634227,-275.059462770129 265.059234609957,-403.706101898187 " style="fill: rgb(14,173,105); fill-opacity: 1; stroke: rgb(0,0,0); stroke-width: 3" />
	<polygon points="195.050020069153,-359.943170926915 210.409548377659,-372.014308605529 216.74502008924,-426.45416613573 189.512414144762,-446.588205868454 119.861554514784,-411.637115170226 117.957207357811,-409.877134592362 119.022227452876,-369.087291834227 " style="fill: rgb(14,173,105); fill-opacity: 1; stroke: rgb(0,0,0); stroke-width: 3" />
	<polygon points="119.861554514784,-411.637115170226 189.512414144762,-446.588205868454 181.713993792719,-491.564922914862 145.158648365818,-514.455987465357 " style="fill: rgb(14,173,105); fill-opacity: 1; stroke: rgb(0,0,0); stroke-width: 3" />
	<polygon points="254.200953245016,-410.643375831863 256.286912530837,-408.668571141226 345.287052714252,-381.009555934297 334.194385573617,-414.043779951804 307.88179602728,-431.566851837262 " style="fill: rgb(14,173,105); fill-opacity: 1; stroke: rgb(0,0,0); stroke-width: 3" />
	<circle cx="244.220185887516" cy="-289.948784043973" r="2" style="fill: rgb(0,0,0)" />
	<circle cx="330.96507923526" cy="-289.948784043973" r="2" style="fill: rgb(0,0,0)" />
	<circle cx="271.238330759824" cy="-347.217173674514" r="2" style="fill: rgb(0,0,0)" />
	<circle cx="210.409548377659" cy="-372.014308605529" r="2" style="fill: rgb(0,0,0)" />
	<circle cx="195.050020069153" cy="-359.943170926915" r="2" style="fill: rgb(0,0,0)" />
	<circle cx="237.454504554274" cy="-223.459266834365" r="2" style="fill: rgb(0,0,0)" />
	<circle cx="274.503687410198" cy="-185.805781322999" r="2" style="fill: rgb(0,0,0)" />
	<circle cx="369.862734669337" cy="-224.204237050411" r="2" style="fill: rgb(0,0,0)" />
	<circle cx="372.047746099159" cy="-260.219830734695" r="2" style="fill: rgb(0,0,0)" />
	<circle cx="362.551447314285" cy="-267.496252887135" r="2" style="fill: rgb(0,0,0)" />
	<circle cx="258.313442639976" cy="-402.553667132067" r="2" style="fill: rgb(0,0,0)" />
	<circle cx="256.286912530837" cy="-408.668571141226" r="2" style="fill: rgb(0,0,0)" />
	<circle cx="254.200953245016" cy="-410.643375831863" r="2" style="fill: rgb(0,0,0)" />
	<circle cx="235.69021990635" cy="-420.642735855182" r="2" style="fill: rgb(0,0,0)" />
	<circle cx="123.212880000729" cy="-333.424017394762" r="2" style="fill: rgb(0,0,0)" />
	<circle cx="136.651536002228" cy="-311.826264142424" r="2" style="fill: rgb(0,0,0)" />
	<circle cx="226.802583655603" cy="-225.425474494938" r="2" style="fill: rgb(0,0,0)" />
	<circle cx="366.743884634227" cy="-275.059462770129" r="2" style="fill: rgb(0,0,0)" />
	<circle cx="265.059234609957" cy="-403.706101898187" r="2" style="fill: rgb(0,0,0)" />
	<circle cx="216.74502008924" cy="-426.45416613573" r="2" style="fill: rgb(0,0,0)" />
	<circle cx="189.512414144762" cy="-446.588205868454" r="2" style="fill: rgb(0,0,0)" />
	<circle cx="119.861554514784" cy="-411.637115170226" r="2" style="fill: rgb(0,0,0)" />
	<circle cx="117.957207357811" cy="-409.877134592362" r="2" style="fill: rgb(0,0,0)" />
	<circle cx="119.022227452876" cy="-369.087291834227" r="2" style="fill: rgb(0,0,0)" />
	<circle cx="282.486380894492" cy="-122.027228507009" r="2" style="fill: rgb(0,0,0)" />
	<circle cx="305.702657233671" cy="-93.2066818786601" r="2" style="fill: rgb(0,0,0)" />
	<circle cx="352.520451935893" cy="-152.628856555524" r="2" style="fill: rgb(0,0,0)" />
	<circle cx="441.445930510571" cy="-206.894241771676" r="2" style="fill: rgb(0,0,0)" />
	<circle cx="507.894162190305" cy="-251.787432106079" r="2" style="fill: rgb(0,0,0)" />
	<circle cx="498.101746836497" cy="-298.804728378291" r="2" style="fill: rgb(0,0,0)" />
	<circle cx="463.258026645606" cy="-299.276304449163" r="2" style="fill: rgb(0,0,0)" />
	<circle cx="305.597197829027" cy="-436.678943285323" r="2" style="fill: rgb(0,0,0)" />
	<circle cx="278.722626582199" cy="-459.201021480828" r="2" style="fill: rgb(0,0,0)" />
	<circle cx="233.325131281651" cy="-454.427358663249" r="2" style="fill: rgb(0,0,0)" />
	<circle cx="345.287052714252" cy="-381.009555934297" r="2" style="fill: rgb(0,0,0)" />
	<circle cx="334.194385573617" cy="-414.043779951804" r="2" style="fill: rgb(0,0,0)" />
	<circle cx="307.88179602728" cy="-431.566851837262" r="2" style="fill: rgb(0,0,0)" />
	<circle cx="178.200353480308" cy="-168.109503747865" r="2" style="fill: rgb(0,0,0)" />
	<circle cx="242.119959651486" cy="-174.870505262956" r="2" style="fill: rgb(0,0,0)" />
	<circle cx="83.1172085402895" cy="-325.855485821673" r="2" style="fill: rgb(0,0,0)" />
	<circle cx="100.501001643333" cy="-171.5448809986" r="2" style="fill: rgb(0,0,0)" />
	<circle cx="116.386972782039" cy="-157.811567898265" r="2" style="fill: rgb(0,0,0)" />
	<circle cx="153.012440993133" cy="-163.121414725829" r="2" style="fill: rgb(0,0,0)" />
	<circle cx="117.830930565667" cy="-517.502784882976" r="2" style="fill: rgb(0,0,0)" />
	<circle cx="85.1793627898096" cy="-541.438327476149" r="2" style="fill: rgb(0,0,0)" />
	<circle cx="33.5" cy="-540.1880671684" r="2" style="fill: rgb(0,0,0)" />
	<circle cx="181.713993792719" cy="-491.564922914862" r="2" style="fill: rgb(0,0,0)" />
	<circle cx="145.158648365818" cy="-514.455987465357" r="2" style="fill: rgb(0,0,0)" />
	<circle cx="314.946049512837" cy="-74.3512405710307" r="2" style="fill: rgb(0,0,0)" />
	<circle cx="362.248749814687" cy="-53.5" r="2" style="fill: rgb(0,0,0)" />
	<circle cx="383.366121821032" cy="-78.6064904686454" r="2" style="fill: rgb(0,0,0)" />
	<circle cx="538.154190708041" cy="-239.114234474377" r="2" style="fill: rgb(0,0,0)" />
	<circle cx="558.686462647186" cy="-274.006366631467" r="2" style="fill: rgb(0,0,0)" />
	<circle cx="561.5" cy="-317.045629207628" r="2" style="fill: rgb(0,0,0)" />
	<circle cx="526.787803658239" cy="-312.090832433155" r="2" style="fill: rgb(0,0,0)" />
	<circle cx="503.764222921364" cy="-383.212554890523" r="2" style="fill: rgb(0,0,0)" />
	<circle cx="497.536638033081" cy="-381.56450701995" r="2" style="fill: rgb(0,0,0)" />
	<circle cx="375.95829670917" cy="-271.526183103106" r="2" style="fill: rgb(0,0,0)" />
	<!--
	Generated using the Perl SVG Module V2.86
	by Ronan Oger
	Info: http://www.roitsystems.com/
	-->
</svg>