<?xml version="1.0" encoding="UTF-8" standalone="yes"?>
<!DOCTYPE svg PUBLIC "-//W3C//DTD SVG 1.0//EN" "http://www.w3.org/TR/2001/REC-SVG-20010904/DTD/svg10.dtd">
<!-- generated using polymake; Michael Joswig, Georg Loho, Benjamin Lorenz, Rico Raber; license CC BY-NC-ND 3.0; see polymake.org and matchthenet.de -->
<svg height="841pt" id="document" viewBox="0 -415.665502729702 572 415.665502729702" width="595pt" xmlns="http://www.w3.org/2000/svg" xmlns:svg="http://www.w3.org/2000/svg" xmlns:xlink="http://www.w3.org/1999/xlink">
	<title id="document_title">planar_net_</title>
	<polygon points="262.465457602891,-208.381873761197 483.810944148941,-208.381873761197 476.282002747308,-239.147948636042 459.742222042644,-257.212915428197 418.844041024987,-266.821745268 " style="fill: rgb(29,97,21); fill-opacity: 1; stroke: rgb(0,0,0); stroke-width: 3" />
	<polygon points="65.2926777827705,-91.3633510317833 395.742153176569,-53.5 468.837895674367,-61.2368422762181 484.452207716093,-81.8594992538539 472.570489675739,-158.18180861535 " style="fill: rgb(29,97,21); fill-opacity: 1; stroke: rgb(0,0,0); stroke-width: 3" />
	<polygon points="498.629895796487,-185.969272480656 483.810944148941,-208.381873761197 262.465457602891,-208.381873761197 65.2926777827705,-91.3633510317833 472.570489675739,-158.18180861535 499.860529294445,-174.950042164426 " style="fill: rgb(117,8,12); fill-opacity: 1; stroke: rgb(0,0,0); stroke-width: 3" />
	<polygon points="443.093474666821,-329.694984084604 451.45406596519,-340.559324448107 449.612102821288,-359.334210243917 395.903846864399,-379.165502729702 328.203845599743,-350.537611985216 " style="fill: rgb(29,97,21); fill-opacity: 1; stroke: rgb(0,0,0); stroke-width: 3" />
	<polygon points="503.220303538786,-269.934491650132 515.341840356707,-260.126379200151 532.706742177396,-268.340500978071 526.721837437364,-294.462945435268 507.903241947762,-293.14021013741 " style="fill: rgb(29,97,21); fill-opacity: 1; stroke: rgb(0,0,0); stroke-width: 3" />
	<polygon points="558.072960392366,-127.104590816026 536.763785119235,-136.100590056036 515.816207395502,-94.1811990185363 514.130828107383,-68.3691820882451 561.5,-100.525339722456 " style="fill: rgb(29,97,21); fill-opacity: 1; stroke: rgb(0,0,0); stroke-width: 3" />
	<polygon points="516.442752148825,-248.95268961188 504.476174197051,-191.209969639839 511.968964619867,-183.037088431343 543.380913053956,-226.446991854006 537.997636328645,-248.942086538101 519.005406787691,-251.824243523428 " style="fill: rgb(117,8,12); fill-opacity: 1; stroke: rgb(0,0,0); stroke-width: 3" />
	<polygon points="262.465457602891,-208.381873761197 418.844041024987,-266.821745268 443.093474666821,-329.694984084604 328.203845599743,-350.537611985216 33.5,-196.32953006961 " style="fill: rgb(29,97,21); fill-opacity: 1; stroke: rgb(0,0,0); stroke-width: 3" />
	<polygon points="459.742222042644,-257.212915428197 476.282002747308,-239.147948636042 513.74690751241,-256.623636005561 515.341840356707,-260.126379200151 503.220303538786,-269.934491650132 " style="fill: rgb(29,97,21); fill-opacity: 1; stroke: rgb(0,0,0); stroke-width: 3" />
	<polygon points="418.844041024987,-266.821745268 459.742222042644,-257.212915428197 496.426587273141,-283.791843544085 488.542219009457,-306.113851064374 474.982236251966,-304.098845851295 " style="fill: rgb(29,97,21); fill-opacity: 1; stroke: rgb(0,0,0); stroke-width: 3" />
	<polygon points="499.860529294445,-174.950042164426 472.570489675739,-158.18180861535 515.816207395502,-94.1811990185363 536.763785119235,-136.100590056036 " style="fill: rgb(29,97,21); fill-opacity: 1; stroke: rgb(0,0,0); stroke-width: 3" />
	<polygon points="476.282002747308,-239.147948636042 483.810944148941,-208.381873761197 504.476174197051,-191.209969639839 516.442752148825,-248.95268961188 " style="fill: rgb(29,97,21); fill-opacity: 1; stroke: rgb(0,0,0); stroke-width: 3" />
	<circle cx="262.465457602891" cy="-208.381873761197" r="2" style="fill: rgb(0,0,0)" />
	<circle cx="483.810944148941" cy="-208.381873761197" r="2" style="fill: rgb(0,0,0)" />
	<circle cx="476.282002747308" cy="-239.147948636042" r="2" style="fill: rgb(0,0,0)" />
	<circle cx="459.742222042644" cy="-257.212915428197" r="2" style="fill: rgb(0,0,0)" />
	<circle cx="418.844041024987" cy="-266.821745268" r="2" style="fill: rgb(0,0,0)" />
	<circle cx="65.2926777827705" cy="-91.3633510317833" r="2" style="fill: rgb(0,0,0)" />
	<circle cx="472.570489675739" cy="-158.18180861535" r="2" style="fill: rgb(0,0,0)" />
	<circle cx="499.860529294445" cy="-174.950042164426" r="2" style="fill: rgb(0,0,0)" />
	<circle cx="498.629895796487" cy="-185.969272480656" r="2" style="fill: rgb(0,0,0)" />
	<circle cx="443.093474666821" cy="-329.694984084604" r="2" style="fill: rgb(0,0,0)" />
	<circle cx="328.203845599743" cy="-350.537611985216" r="2" style="fill: rgb(0,0,0)" />
	<circle cx="33.5" cy="-196.32953006961" r="2" style="fill: rgb(0,0,0)" />
	<circle cx="513.74690751241" cy="-256.623636005561" r="2" style="fill: rgb(0,0,0)" />
	<circle cx="515.341840356707" cy="-260.126379200151" r="2" style="fill: rgb(0,0,0)" />
	<circle cx="503.220303538786" cy="-269.934491650132" r="2" style="fill: rgb(0,0,0)" />
	<circle cx="496.426587273141" cy="-283.791843544085" r="2" style="fill: rgb(0,0,0)" />
	<circle cx="488.542219009457" cy="-306.113851064374" r="2" style="fill: rgb(0,0,0)" />
	<circle cx="474.982236251966" cy="-304.098845851295" r="2" style="fill: rgb(0,0,0)" />
	<circle cx="504.476174197051" cy="-191.209969639839" r="2" style="fill: rgb(0,0,0)" />
	<circle cx="516.442752148825" cy="-248.95268961188" r="2" style="fill: rgb(0,0,0)" />
	<circle cx="395.742153176569" cy="-53.5" r="2" style="fill: rgb(0,0,0)" />
	<circle cx="468.837895674367" cy="-61.2368422762181" r="2" style="fill: rgb(0,0,0)" />
	<circle cx="484.452207716093" cy="-81.8594992538539" r="2" style="fill: rgb(0,0,0)" />
	<circle cx="515.816207395502" cy="-94.1811990185363" r="2" style="fill: rgb(0,0,0)" />
	<circle cx="536.763785119235" cy="-136.100590056036" r="2" style="fill: rgb(0,0,0)" />
	<circle cx="451.45406596519" cy="-340.559324448107" r="2" style="fill: rgb(0,0,0)" />
	<circle cx="449.612102821288" cy="-359.334210243917" r="2" style="fill: rgb(0,0,0)" />
	<circle cx="395.903846864399" cy="-379.165502729702" r="2" style="fill: rgb(0,0,0)" />
	<circle cx="532.706742177396" cy="-268.340500978071" r="2" style="fill: rgb(0,0,0)" />
	<circle cx="526.721837437364" cy="-294.462945435268" r="2" style="fill: rgb(0,0,0)" />
	<circle cx="507.903241947762" cy="-293.14021013741" r="2" style="fill: rgb(0,0,0)" />
	<circle cx="511.968964619867" cy="-183.037088431343" r="2" style="fill: rgb(0,0,0)" />
	<circle cx="543.380913053956" cy="-226.446991854006" r="2" style="fill: rgb(0,0,0)" />
	<circle cx="537.997636328645" cy="-248.942086538101" r="2" style="fill: rgb(0,0,0)" />
	<circle cx="519.005406787691" cy="-251.824243523428" r="2" style="fill: rgb(0,0,0)" />
	<circle cx="514.130828107383" cy="-68.3691820882451" r="2" style="fill: rgb(0,0,0)" />
	<circle cx="561.5" cy="-100.525339722456" r="2" style="fill: rgb(0,0,0)" />
	<circle cx="558.072960392366" cy="-127.104590816026" r="2" style="fill: rgb(0,0,0)" />
	<!--
	Generated using the Perl SVG Module V2.86
	by Ronan Oger
	Info: http://www.roitsystems.com/
	-->
</svg>