<?xml version="1.0" encoding="UTF-8" standalone="yes"?>
<!DOCTYPE svg PUBLIC "-//W3C//DTD SVG 1.0//EN" "http://www.w3.org/TR/2001/REC-SVG-20010904/DTD/svg10.dtd">
<!-- generated using polymake; Michael Joswig, Georg Loho, Benjamin Lorenz, Rico Raber; license CC BY-NC-ND 3.0; see polymake.org and matchthenet.de -->
<svg height="841pt" id="document" viewBox="0 -562.313266927832 572 562.313266927832" width="595pt" xmlns="http://www.w3.org/2000/svg" xmlns:svg="http://www.w3.org/2000/svg" xmlns:xlink="http://www.w3.org/1999/xlink">
	<title id="document_title">planar_net_</title>
	<polygon points="227.211509381247,-325.08634077247 249.046408966921,-325.08634077247 246.625641710357,-344.334482326766 " style="fill: rgb(14,173,105); fill-opacity: 1; stroke: rgb(0,0,0); stroke-width: 3" />
	<polygon points="279.431010323206,-274.392939729145 202.684428178077,-272.234430776297 175.584802096971,-242.140429149753 229.263694889987,-162.547043184603 299.71437529818,-164.118135503337 " style="fill: rgb(255,210,63); fill-opacity: 1; stroke: rgb(0,0,0); stroke-width: 3" />
	<polygon points="177.047431106394,-408.3915824942 107.232966044137,-525.813266927832 40.0620641624033,-425.642667959703 33.5,-409.964478798548 98.9355359171883,-356.078293245129 " style="fill: rgb(255,210,63); fill-opacity: 1; stroke: rgb(0,0,0); stroke-width: 3" />
	<polygon points="433.345107644619,-326.730469672067 411.308924983846,-244.776128183241 561.5,-206.720012653147 505.069456072679,-313.31115989018 " style="fill: rgb(67,184,206); fill-opacity: 1; stroke: rgb(0,0,0); stroke-width: 3" />
	<polygon points="411.308924983846,-244.776128183241 401.831561308056,-228.109313755446 523.46420381517,-142.671448112322 547.055072582526,-146.279316553909 542.731096275766,-162.716151113613 " style="fill: rgb(255,210,63); fill-opacity: 1; stroke: rgb(0,0,0); stroke-width: 3" />
	<polygon points="324.246986848764,-349.269674604438 294.392286920437,-316.650520419645 279.431010323206,-274.392939729145 351.620511971428,-188.598865379394 401.831561308056,-228.109313755446 411.308924983846,-244.776128183241 433.345107644619,-326.730469672067 " style="fill: rgb(84,13,110); fill-opacity: 1; stroke: rgb(0,0,0); stroke-width: 3" />
	<polygon points="294.392286920437,-316.650520419645 249.046408966921,-325.08634077247 227.211509381247,-325.08634077247 216.219385722674,-323.677793171657 202.684428178077,-272.234430776297 279.431010323206,-274.392939729145 " style="fill: rgb(238,66,102); fill-opacity: 1; stroke: rgb(0,0,0); stroke-width: 3" />
	<polygon points="259.312868550699,-378.863288420577 314.927485947436,-356.440866540299 388.83911118254,-439.792455459023 325.162061469168,-475.425212470702 199.40305869874,-422.071817739444 204.877790159656,-410.878473388708 " style="fill: rgb(238,66,102); fill-opacity: 1; stroke: rgb(0,0,0); stroke-width: 3" />
	<polygon points="175.584802096971,-242.140429149753 64.6840436695217,-196.127283214209 99.5152256963199,-118.846502208302 123.319017191911,-120.556857237172 229.263694889987,-162.547043184603 " style="fill: rgb(255,210,63); fill-opacity: 1; stroke: rgb(0,0,0); stroke-width: 3" />
	<polygon points="246.625641710357,-344.334482326766 249.046408966921,-325.08634077247 294.495487460292,-317.22548989588 314.927485947436,-356.440866540299 259.312868550699,-378.863288420577 " style="fill: rgb(255,210,63); fill-opacity: 1; stroke: rgb(0,0,0); stroke-width: 3" />
	<polygon points="216.219385722674,-323.677793171657 188.260242274117,-402.956832450244 177.047431106394,-408.3915824942 98.9355359171883,-356.078293245129 165.513604630632,-256.160584178836 202.684428178077,-272.234430776297 " style="fill: rgb(238,66,102); fill-opacity: 1; stroke: rgb(0,0,0); stroke-width: 3" />
	<polygon points="227.211509381247,-325.08634077247 246.625641710357,-344.334482326766 259.243058073631,-378.888859465966 202.562014092415,-406.73502762573 216.206185418738,-323.784944080687 " style="fill: rgb(255,210,63); fill-opacity: 1; stroke: rgb(0,0,0); stroke-width: 3" />
	<polygon points="333.646759608042,-109.981102878621 299.71437529818,-164.118135503337 229.263694889987,-162.547043184603 196.154892115721,-53.5 " style="fill: rgb(67,184,206); fill-opacity: 1; stroke: rgb(0,0,0); stroke-width: 3" />
	<circle cx="227.211509381247" cy="-325.08634077247" r="2" style="fill: rgb(0,0,0)" />
	<circle cx="249.046408966921" cy="-325.08634077247" r="2" style="fill: rgb(0,0,0)" />
	<circle cx="246.625641710357" cy="-344.334482326766" r="2" style="fill: rgb(0,0,0)" />
	<circle cx="216.219385722674" cy="-323.677793171657" r="2" style="fill: rgb(0,0,0)" />
	<circle cx="202.684428178077" cy="-272.234430776297" r="2" style="fill: rgb(0,0,0)" />
	<circle cx="279.431010323206" cy="-274.392939729145" r="2" style="fill: rgb(0,0,0)" />
	<circle cx="294.392286920437" cy="-316.650520419645" r="2" style="fill: rgb(0,0,0)" />
	<circle cx="294.495487460292" cy="-317.22548989588" r="2" style="fill: rgb(0,0,0)" />
	<circle cx="314.927485947436" cy="-356.440866540299" r="2" style="fill: rgb(0,0,0)" />
	<circle cx="259.312868550699" cy="-378.863288420577" r="2" style="fill: rgb(0,0,0)" />
	<circle cx="259.243058073631" cy="-378.888859465966" r="2" style="fill: rgb(0,0,0)" />
	<circle cx="202.562014092415" cy="-406.73502762573" r="2" style="fill: rgb(0,0,0)" />
	<circle cx="216.206185418738" cy="-323.784944080687" r="2" style="fill: rgb(0,0,0)" />
	<circle cx="175.584802096971" cy="-242.140429149753" r="2" style="fill: rgb(0,0,0)" />
	<circle cx="229.263694889987" cy="-162.547043184603" r="2" style="fill: rgb(0,0,0)" />
	<circle cx="299.71437529818" cy="-164.118135503337" r="2" style="fill: rgb(0,0,0)" />
	<circle cx="351.620511971428" cy="-188.598865379394" r="2" style="fill: rgb(0,0,0)" />
	<circle cx="401.831561308056" cy="-228.109313755446" r="2" style="fill: rgb(0,0,0)" />
	<circle cx="411.308924983846" cy="-244.776128183241" r="2" style="fill: rgb(0,0,0)" />
	<circle cx="433.345107644619" cy="-326.730469672067" r="2" style="fill: rgb(0,0,0)" />
	<circle cx="324.246986848764" cy="-349.269674604438" r="2" style="fill: rgb(0,0,0)" />
	<circle cx="188.260242274117" cy="-402.956832450244" r="2" style="fill: rgb(0,0,0)" />
	<circle cx="177.047431106394" cy="-408.3915824942" r="2" style="fill: rgb(0,0,0)" />
	<circle cx="98.9355359171883" cy="-356.078293245129" r="2" style="fill: rgb(0,0,0)" />
	<circle cx="165.513604630632" cy="-256.160584178836" r="2" style="fill: rgb(0,0,0)" />
	<circle cx="388.83911118254" cy="-439.792455459023" r="2" style="fill: rgb(0,0,0)" />
	<circle cx="325.162061469168" cy="-475.425212470702" r="2" style="fill: rgb(0,0,0)" />
	<circle cx="199.40305869874" cy="-422.071817739444" r="2" style="fill: rgb(0,0,0)" />
	<circle cx="204.877790159656" cy="-410.878473388708" r="2" style="fill: rgb(0,0,0)" />
	<circle cx="64.6840436695217" cy="-196.127283214209" r="2" style="fill: rgb(0,0,0)" />
	<circle cx="99.5152256963199" cy="-118.846502208302" r="2" style="fill: rgb(0,0,0)" />
	<circle cx="123.319017191911" cy="-120.556857237172" r="2" style="fill: rgb(0,0,0)" />
	<circle cx="196.154892115721" cy="-53.5" r="2" style="fill: rgb(0,0,0)" />
	<circle cx="333.646759608042" cy="-109.981102878621" r="2" style="fill: rgb(0,0,0)" />
	<circle cx="561.5" cy="-206.720012653147" r="2" style="fill: rgb(0,0,0)" />
	<circle cx="505.069456072679" cy="-313.31115989018" r="2" style="fill: rgb(0,0,0)" />
	<circle cx="523.46420381517" cy="-142.671448112322" r="2" style="fill: rgb(0,0,0)" />
	<circle cx="547.055072582526" cy="-146.279316553909" r="2" style="fill: rgb(0,0,0)" />
	<circle cx="542.731096275766" cy="-162.716151113613" r="2" style="fill: rgb(0,0,0)" />
	<circle cx="107.232966044137" cy="-525.813266927832" r="2" style="fill: rgb(0,0,0)" />
	<circle cx="40.0620641624033" cy="-425.642667959703" r="2" style="fill: rgb(0,0,0)" />
	<circle cx="33.5" cy="-409.964478798548" r="2" style="fill: rgb(0,0,0)" />
	<!--
	Generated using the Perl SVG Module V2.86
	by Ronan Oger
	Info: http://www.roitsystems.com/
	-->
</svg>