<?xml version="1.0" encoding="UTF-8" standalone="yes"?>
<!DOCTYPE svg PUBLIC "-//W3C//DTD SVG 1.0//EN" "http://www.w3.org/TR/2001/REC-SVG-20010904/DTD/svg10.dtd">
<!-- generated using polymake; Michael Joswig, Georg Loho, Benjamin Lorenz, Rico Raber; license CC BY-NC-SA 3.0; see polymake.org and matchthenet.de -->
<svg height="841pt" id="document" viewBox="0 -811 551.688312235618 811" width="595pt" xmlns="http://www.w3.org/2000/svg" xmlns:svg="http://www.w3.org/2000/svg" xmlns:xlink="http://www.w3.org/1999/xlink">
	<title id="document_title">planar_net_</title>
	<polygon points="155.932655453648,-236.76760826481 244.167542347169,-236.76760826481 270.137757234259,-282.780854823959 297.864991781793,-340.814431947009 186.948576174344,-410.073969962508 " style="fill: rgb(255,210,63); fill-opacity: 1; stroke: rgb(0,0,0); stroke-width: 3" />
	<polygon points="249.753951360538,-189.943885342638 244.167542347169,-236.76760826481 155.932655453648,-236.76760826481 139.708026789353,-216.886920290516 120.624753597027,-150.960065554463 " style="fill: rgb(255,210,63); fill-opacity: 1; stroke: rgb(0,0,0); stroke-width: 3" />
	<polygon points="430.600826551218,-259.741274366971 444.01519142589,-187.686118981106 541.188312235618,-284.171079176911 " style="fill: rgb(14,173,105); fill-opacity: 1; stroke: rgb(0,0,0); stroke-width: 3" />
	<polygon points="176.33166408823,-470.339233205971 258.842171260568,-577.935179796611 33.5,-708.329151375742 95.8312282052985,-544.153475455229 " style="fill: rgb(67,184,206); fill-opacity: 1; stroke: rgb(0,0,0); stroke-width: 3" />
	<polygon points="297.864991781793,-340.814431947009 270.137757234259,-282.780854823959 365.190891683964,-188.614834534012 365.691766393034,-268.470780312939 338.285805909426,-321.3661625663 " style="fill: rgb(255,210,63); fill-opacity: 1; stroke: rgb(0,0,0); stroke-width: 3" />
	<polygon points="186.948576174344,-410.073969962508 297.864991781793,-340.814431947009 333.249115728085,-368.383276122986 335.375245594234,-456.178920635351 269.769697445901,-572.352589370967 258.842171260568,-577.935179796611 176.33166408823,-470.339233205971 " style="fill: rgb(84,13,110); fill-opacity: 1; stroke: rgb(0,0,0); stroke-width: 3" />
	<polygon points="270.137757234259,-282.780854823959 244.167542347169,-236.76760826481 274.044623589769,-200.284337984032 360.370574665107,-149.77680651982 360.966682457763,-184.534002005628 " style="fill: rgb(255,210,63); fill-opacity: 1; stroke: rgb(0,0,0); stroke-width: 3" />
	<polygon points="155.932655453648,-236.76760826481 186.948576174344,-410.073969962508 132.006092427409,-437.017322682005 99.5207793940989,-332.740925672409 131.624878393858,-228.544938136607 " style="fill: rgb(255,210,63); fill-opacity: 1; stroke: rgb(0,0,0); stroke-width: 3" />
	<polygon points="338.285805909426,-321.3661625663 365.691766393034,-268.470780312939 429.256455275337,-275.07783071317 426.103088718147,-322.21496386576 " style="fill: rgb(67,184,206); fill-opacity: 1; stroke: rgb(0,0,0); stroke-width: 3" />
	<polygon points="139.708026789353,-216.886920290516 38.5120385381107,-257.468307070679 75.4466069405971,-85.786414518075 80.6468046159381,-81.5458537814228 120.624753597027,-150.960065554463 " style="fill: rgb(255,210,63); fill-opacity: 1; stroke: rgb(0,0,0); stroke-width: 3" />
	<polygon points="282.001141397752,-95.2691828167189 249.753951360538,-189.943885342638 120.624753597027,-150.960065554463 96.7641584615059,-74.4928098132828 260.024873693017,-53.5 " style="fill: rgb(255,210,63); fill-opacity: 1; stroke: rgb(0,0,0); stroke-width: 3" />
	<polygon points="269.769697445901,-572.352589370967 335.375245594234,-456.178920635351 381.887956103199,-464.450607500737 382.937235253903,-466.402374088045 311.647696147559,-554.403561392824 " style="fill: rgb(255,210,63); fill-opacity: 1; stroke: rgb(0,0,0); stroke-width: 3" />
	<polygon points="258.842171260568,-577.935179796611 269.769697445901,-572.352589370967 315.322620055717,-571.422201107374 451.185528961675,-588.546246643016 517.538474539373,-629.762522502599 439.143182528687,-774.5 433.31698688009,-771.171358311846 " style="fill: rgb(84,13,110); fill-opacity: 1; stroke: rgb(0,0,0); stroke-width: 3" />
	<polygon points="365.190891683964,-188.614834534012 366.974610157956,-153.898320726533 401.755028868361,-121.993094669723 444.01519142589,-187.686118981106 430.600826551218,-259.741274366971 429.214276547595,-261.469816710936 365.691766393034,-268.470780312939 " style="fill: rgb(84,13,110); fill-opacity: 1; stroke: rgb(0,0,0); stroke-width: 3" />
	<circle cx="155.932655453648" cy="-236.76760826481" r="2" style="fill: rgb(0,0,0)" />
	<circle cx="244.167542347169" cy="-236.76760826481" r="2" style="fill: rgb(0,0,0)" />
	<circle cx="270.137757234259" cy="-282.780854823959" r="2" style="fill: rgb(0,0,0)" />
	<circle cx="297.864991781793" cy="-340.814431947009" r="2" style="fill: rgb(0,0,0)" />
	<circle cx="186.948576174344" cy="-410.073969962508" r="2" style="fill: rgb(0,0,0)" />
	<circle cx="139.708026789353" cy="-216.886920290516" r="2" style="fill: rgb(0,0,0)" />
	<circle cx="120.624753597027" cy="-150.960065554463" r="2" style="fill: rgb(0,0,0)" />
	<circle cx="249.753951360538" cy="-189.943885342638" r="2" style="fill: rgb(0,0,0)" />
	<circle cx="365.190891683964" cy="-188.614834534012" r="2" style="fill: rgb(0,0,0)" />
	<circle cx="365.691766393034" cy="-268.470780312939" r="2" style="fill: rgb(0,0,0)" />
	<circle cx="338.285805909426" cy="-321.3661625663" r="2" style="fill: rgb(0,0,0)" />
	<circle cx="333.249115728085" cy="-368.383276122986" r="2" style="fill: rgb(0,0,0)" />
	<circle cx="335.375245594234" cy="-456.178920635351" r="2" style="fill: rgb(0,0,0)" />
	<circle cx="269.769697445901" cy="-572.352589370967" r="2" style="fill: rgb(0,0,0)" />
	<circle cx="258.842171260568" cy="-577.935179796611" r="2" style="fill: rgb(0,0,0)" />
	<circle cx="176.33166408823" cy="-470.339233205971" r="2" style="fill: rgb(0,0,0)" />
	<circle cx="274.044623589769" cy="-200.284337984032" r="2" style="fill: rgb(0,0,0)" />
	<circle cx="360.370574665107" cy="-149.77680651982" r="2" style="fill: rgb(0,0,0)" />
	<circle cx="360.966682457763" cy="-184.534002005628" r="2" style="fill: rgb(0,0,0)" />
	<circle cx="132.006092427409" cy="-437.017322682005" r="2" style="fill: rgb(0,0,0)" />
	<circle cx="99.5207793940989" cy="-332.740925672409" r="2" style="fill: rgb(0,0,0)" />
	<circle cx="131.624878393858" cy="-228.544938136607" r="2" style="fill: rgb(0,0,0)" />
	<circle cx="38.5120385381107" cy="-257.468307070679" r="2" style="fill: rgb(0,0,0)" />
	<circle cx="75.4466069405971" cy="-85.786414518075" r="2" style="fill: rgb(0,0,0)" />
	<circle cx="80.6468046159381" cy="-81.5458537814228" r="2" style="fill: rgb(0,0,0)" />
	<circle cx="96.7641584615059" cy="-74.4928098132828" r="2" style="fill: rgb(0,0,0)" />
	<circle cx="260.024873693017" cy="-53.5" r="2" style="fill: rgb(0,0,0)" />
	<circle cx="282.001141397752" cy="-95.2691828167189" r="2" style="fill: rgb(0,0,0)" />
	<circle cx="429.256455275337" cy="-275.07783071317" r="2" style="fill: rgb(0,0,0)" />
	<circle cx="426.103088718147" cy="-322.21496386576" r="2" style="fill: rgb(0,0,0)" />
	<circle cx="366.974610157956" cy="-153.898320726533" r="2" style="fill: rgb(0,0,0)" />
	<circle cx="401.755028868361" cy="-121.993094669723" r="2" style="fill: rgb(0,0,0)" />
	<circle cx="444.01519142589" cy="-187.686118981106" r="2" style="fill: rgb(0,0,0)" />
	<circle cx="430.600826551218" cy="-259.741274366971" r="2" style="fill: rgb(0,0,0)" />
	<circle cx="429.214276547595" cy="-261.469816710936" r="2" style="fill: rgb(0,0,0)" />
	<circle cx="33.5" cy="-708.329151375742" r="2" style="fill: rgb(0,0,0)" />
	<circle cx="95.8312282052985" cy="-544.153475455229" r="2" style="fill: rgb(0,0,0)" />
	<circle cx="381.887956103199" cy="-464.450607500737" r="2" style="fill: rgb(0,0,0)" />
	<circle cx="382.937235253903" cy="-466.402374088045" r="2" style="fill: rgb(0,0,0)" />
	<circle cx="311.647696147559" cy="-554.403561392824" r="2" style="fill: rgb(0,0,0)" />
	<circle cx="315.322620055717" cy="-571.422201107374" r="2" style="fill: rgb(0,0,0)" />
	<circle cx="451.185528961675" cy="-588.546246643016" r="2" style="fill: rgb(0,0,0)" />
	<circle cx="517.538474539373" cy="-629.762522502599" r="2" style="fill: rgb(0,0,0)" />
	<circle cx="439.143182528687" cy="-774.5" r="2" style="fill: rgb(0,0,0)" />
	<circle cx="433.31698688009" cy="-771.171358311846" r="2" style="fill: rgb(0,0,0)" />
	<circle cx="541.188312235618" cy="-284.171079176911" r="2" style="fill: rgb(0,0,0)" />
	<!-- 
	Generated using the Perl SVG Module V2.64
	by Ronan Oger
	Info: http://www.roitsystems.com/
 -->
</svg>