<?xml version="1.0" encoding="UTF-8" standalone="yes"?>
<!DOCTYPE svg PUBLIC "-//W3C//DTD SVG 1.0//EN" "http://www.w3.org/TR/2001/REC-SVG-20010904/DTD/svg10.dtd">
<!-- generated using polymake; Michael Joswig, Georg Loho, Benjamin Lorenz, Rico Raber; license CC BY-NC-SA 3.0; see polymake.org and matchthenet.de -->
<svg height="841pt" id="document" viewBox="0 -474.582990156426 572 474.582990156426" width="595pt" xmlns="http://www.w3.org/2000/svg" xmlns:svg="http://www.w3.org/2000/svg" xmlns:xlink="http://www.w3.org/1999/xlink">
	<title id="document_title">planar_net_</title>
	<polygon points="350.049236785565,-234.130935906519 411.90701847903,-234.130935906519 409.420773695069,-307.297272670886 396.650555265451,-321.702070614369 359.030961973472,-303.262063737907 324.452135204434,-273.263078300137 " style="fill: rgb(238,66,102); fill-opacity: 1; stroke: rgb(0,0,0); stroke-width: 3" />
	<polygon points="206.593626230503,-242.941427245975 112.589943973365,-268.72908806924 49.1519882441379,-201.970358118805 33.5,-148.577396957032 206.548410040669,-240.70328359656 " style="fill: rgb(255,210,63); fill-opacity: 1; stroke: rgb(0,0,0); stroke-width: 3" />
	<polygon points="243.913734462635,-180.407894457824 206.548410040669,-240.70328359656 135.486610900936,-57.992714910052 137.719677173869,-53.5 224.900626750283,-95.0515733595715 " style="fill: rgb(255,210,63); fill-opacity: 1; stroke: rgb(0,0,0); stroke-width: 3" />
	<polygon points="425.790723460905,-226.795107162511 411.90701847903,-234.130935906519 350.049236785565,-234.130935906519 360.259993304666,-168.546157386513 401.393553988889,-155.403593776655 " style="fill: rgb(255,210,63); fill-opacity: 1; stroke: rgb(0,0,0); stroke-width: 3" />
	<polygon points="409.420773695069,-307.297272670886 411.90701847903,-234.130935906519 427.424233335102,-231.7251739699 481.314741749281,-270.079323550834 459.067339895295,-290.862421060069 " style="fill: rgb(255,210,63); fill-opacity: 1; stroke: rgb(0,0,0); stroke-width: 3" />
	<polygon points="489.974332421446,-210.804734183266 425.790723460905,-226.795107162511 401.393553988889,-155.403593776655 433.356095440797,-112.895419433897 529.188530540032,-124.861855856289 " style="fill: rgb(255,210,63); fill-opacity: 1; stroke: rgb(0,0,0); stroke-width: 3" />
	<polygon points="350.049236785565,-234.130935906519 324.452135204434,-273.263078300137 206.593626230503,-242.941427245975 206.548410040669,-240.70328359656 243.913734462635,-180.407894457824 311.402345554643,-180.16761020845 " style="fill: rgb(238,66,102); fill-opacity: 1; stroke: rgb(0,0,0); stroke-width: 3" />
	<polygon points="460.626452256919,-296.673508462109 486.718449408509,-280.986197794799 561.5,-338.706656562387 558.193116701351,-342.479665320849 506.233138681384,-362.378251245026 455.583871719081,-350.83855310351 434.431907501169,-334.742136059559 " style="fill: rgb(84,13,110); fill-opacity: 1; stroke: rgb(0,0,0); stroke-width: 3" />
	<polygon points="396.650555265451,-321.702070614369 409.420773695069,-307.297272670886 460.626452256919,-296.673508462109 434.431907501169,-334.742136059559 408.642128692483,-336.933640817522 " style="fill: rgb(255,210,63); fill-opacity: 1; stroke: rgb(0,0,0); stroke-width: 3" />
	<polygon points="408.642128692483,-336.933640817522 434.431907501169,-334.742136059559 453.251569110044,-353.512340343387 413.880866518952,-368.105338036329 " style="fill: rgb(67,184,206); fill-opacity: 1; stroke: rgb(0,0,0); stroke-width: 3" />
	<polygon points="360.259993304666,-168.546157386513 331.533964455929,-107.475823915747 418.952660000816,-105.201733870062 401.393553988889,-155.403593776655 " style="fill: rgb(67,184,206); fill-opacity: 1; stroke: rgb(0,0,0); stroke-width: 3" />
	<polygon points="324.452135204434,-273.263078300137 359.030961973472,-303.262063737907 349.70456241638,-381.696571587475 337.897719176058,-389.916605335494 243.817019488004,-364.4113573492 " style="fill: rgb(255,210,63); fill-opacity: 1; stroke: rgb(0,0,0); stroke-width: 3" />
	<polygon points="362.019850378077,-382.192541352119 383.439209932674,-366.938758581454 419.800003991893,-387.936388437379 433.358440961079,-438.082990156426 352.884090383438,-393.305974279904 " style="fill: rgb(255,210,63); fill-opacity: 1; stroke: rgb(0,0,0); stroke-width: 3" />
	<polygon points="359.030961973472,-303.262063737907 396.650555265451,-321.702070614369 400.929001544656,-340.609568109958 383.439209932674,-366.938758581454 362.019850378077,-382.192541352119 " style="fill: rgb(255,210,63); fill-opacity: 1; stroke: rgb(0,0,0); stroke-width: 3" />
	<circle cx="350.049236785565" cy="-234.130935906519" r="2" style="fill: rgb(0,0,0)" />
	<circle cx="411.90701847903" cy="-234.130935906519" r="2" style="fill: rgb(0,0,0)" />
	<circle cx="409.420773695069" cy="-307.297272670886" r="2" style="fill: rgb(0,0,0)" />
	<circle cx="396.650555265451" cy="-321.702070614369" r="2" style="fill: rgb(0,0,0)" />
	<circle cx="359.030961973472" cy="-303.262063737907" r="2" style="fill: rgb(0,0,0)" />
	<circle cx="324.452135204434" cy="-273.263078300137" r="2" style="fill: rgb(0,0,0)" />
	<circle cx="360.259993304666" cy="-168.546157386513" r="2" style="fill: rgb(0,0,0)" />
	<circle cx="401.393553988889" cy="-155.403593776655" r="2" style="fill: rgb(0,0,0)" />
	<circle cx="425.790723460905" cy="-226.795107162511" r="2" style="fill: rgb(0,0,0)" />
	<circle cx="427.424233335102" cy="-231.7251739699" r="2" style="fill: rgb(0,0,0)" />
	<circle cx="481.314741749281" cy="-270.079323550834" r="2" style="fill: rgb(0,0,0)" />
	<circle cx="459.067339895295" cy="-290.862421060069" r="2" style="fill: rgb(0,0,0)" />
	<circle cx="206.593626230503" cy="-242.941427245975" r="2" style="fill: rgb(0,0,0)" />
	<circle cx="206.548410040669" cy="-240.70328359656" r="2" style="fill: rgb(0,0,0)" />
	<circle cx="243.913734462635" cy="-180.407894457824" r="2" style="fill: rgb(0,0,0)" />
	<circle cx="311.402345554643" cy="-180.16761020845" r="2" style="fill: rgb(0,0,0)" />
	<circle cx="460.626452256919" cy="-296.673508462109" r="2" style="fill: rgb(0,0,0)" />
	<circle cx="434.431907501169" cy="-334.742136059559" r="2" style="fill: rgb(0,0,0)" />
	<circle cx="408.642128692483" cy="-336.933640817522" r="2" style="fill: rgb(0,0,0)" />
	<circle cx="349.70456241638" cy="-381.696571587475" r="2" style="fill: rgb(0,0,0)" />
	<circle cx="337.897719176058" cy="-389.916605335494" r="2" style="fill: rgb(0,0,0)" />
	<circle cx="243.817019488004" cy="-364.4113573492" r="2" style="fill: rgb(0,0,0)" />
	<circle cx="400.929001544656" cy="-340.609568109958" r="2" style="fill: rgb(0,0,0)" />
	<circle cx="383.439209932674" cy="-366.938758581454" r="2" style="fill: rgb(0,0,0)" />
	<circle cx="362.019850378077" cy="-382.192541352119" r="2" style="fill: rgb(0,0,0)" />
	<circle cx="433.356095440797" cy="-112.895419433897" r="2" style="fill: rgb(0,0,0)" />
	<circle cx="529.188530540032" cy="-124.861855856289" r="2" style="fill: rgb(0,0,0)" />
	<circle cx="489.974332421446" cy="-210.804734183266" r="2" style="fill: rgb(0,0,0)" />
	<circle cx="331.533964455929" cy="-107.475823915747" r="2" style="fill: rgb(0,0,0)" />
	<circle cx="418.952660000816" cy="-105.201733870062" r="2" style="fill: rgb(0,0,0)" />
	<circle cx="112.589943973365" cy="-268.72908806924" r="2" style="fill: rgb(0,0,0)" />
	<circle cx="49.1519882441379" cy="-201.970358118805" r="2" style="fill: rgb(0,0,0)" />
	<circle cx="33.5" cy="-148.577396957032" r="2" style="fill: rgb(0,0,0)" />
	<circle cx="135.486610900936" cy="-57.992714910052" r="2" style="fill: rgb(0,0,0)" />
	<circle cx="137.719677173869" cy="-53.5" r="2" style="fill: rgb(0,0,0)" />
	<circle cx="224.900626750283" cy="-95.0515733595715" r="2" style="fill: rgb(0,0,0)" />
	<circle cx="486.718449408509" cy="-280.986197794799" r="2" style="fill: rgb(0,0,0)" />
	<circle cx="561.5" cy="-338.706656562387" r="2" style="fill: rgb(0,0,0)" />
	<circle cx="558.193116701351" cy="-342.479665320849" r="2" style="fill: rgb(0,0,0)" />
	<circle cx="506.233138681384" cy="-362.378251245026" r="2" style="fill: rgb(0,0,0)" />
	<circle cx="455.583871719081" cy="-350.83855310351" r="2" style="fill: rgb(0,0,0)" />
	<circle cx="453.251569110044" cy="-353.512340343387" r="2" style="fill: rgb(0,0,0)" />
	<circle cx="413.880866518952" cy="-368.105338036329" r="2" style="fill: rgb(0,0,0)" />
	<circle cx="419.800003991893" cy="-387.936388437379" r="2" style="fill: rgb(0,0,0)" />
	<circle cx="433.358440961079" cy="-438.082990156426" r="2" style="fill: rgb(0,0,0)" />
	<circle cx="352.884090383438" cy="-393.305974279904" r="2" style="fill: rgb(0,0,0)" />
	<!-- 
	Generated using the Perl SVG Module V2.64
	by Ronan Oger
	Info: http://www.roitsystems.com/
 -->
</svg>