<?xml version="1.0" encoding="UTF-8" standalone="yes"?>
<!DOCTYPE svg PUBLIC "-//W3C//DTD SVG 1.0//EN" "http://www.w3.org/TR/2001/REC-SVG-20010904/DTD/svg10.dtd">
<!-- generated using polymake; Michael Joswig, Georg Loho, Benjamin Lorenz, Rico Raber; license CC BY-NC-ND 3.0; see polymake.org and matchthenet.de -->
<svg height="841pt" id="document" viewBox="0 -793.485205067513 572 793.485205067513" width="595pt" xmlns="http://www.w3.org/2000/svg" xmlns:svg="http://www.w3.org/2000/svg" xmlns:xlink="http://www.w3.org/1999/xlink">
	<title id="document_title">planar_net_</title>
	<polygon points="390.796021014527,-427.603423906741 426.857597661668,-427.603423906741 391.023900435681,-538.010458618759 307.557330057701,-545.924236656487 301.777545978261,-533.907023406623 " style="fill: rgb(14,173,105); fill-opacity: 1; stroke: rgb(0,0,0); stroke-width: 3" />
	<polygon points="250.576849409347,-393.505977286213 233.561153498943,-252.603553855799 285.284502726839,-309.978680598989 354.951239053534,-403.141000610284 " style="fill: rgb(14,173,105); fill-opacity: 1; stroke: rgb(0,0,0); stroke-width: 3" />
	<polygon points="451.976439559243,-388.21303800392 426.857597661668,-427.603423906741 390.796021014527,-427.603423906741 354.951239053534,-403.141000610284 285.284502726839,-309.978680598989 446.659677467567,-344.109790898549 " style="fill: rgb(14,173,105); fill-opacity: 1; stroke: rgb(0,0,0); stroke-width: 3" />
	<polygon points="33.5,-643.26087069152 258.038720078191,-644.138457984685 269.561492695339,-667.659335905086 263.70870956798,-756.985205067513 240.297245959332,-756.862990353086 48.5031920402345,-662.962393016992 " style="fill: rgb(14,173,105); fill-opacity: 1; stroke: rgb(0,0,0); stroke-width: 3" />
	<polygon points="442.737689114069,-591.417929824069 461.36574289336,-585.44456230409 482.686068301585,-597.483488479831 493.567440555076,-614.245817739993 426.539477981083,-673.580615330675 " style="fill: rgb(14,173,105); fill-opacity: 1; stroke: rgb(0,0,0); stroke-width: 3" />
	<polygon points="546.95191914825,-282.151672283572 481.547439288768,-296.295345085666 525.043296779229,-245.386436659143 539.96156726797,-263.429628459946 " style="fill: rgb(14,173,105); fill-opacity: 1; stroke: rgb(0,0,0); stroke-width: 3" />
	<polygon points="561.5,-301.845462231375 451.976439559243,-388.21303800392 446.659677467567,-344.109790898549 446.652690728214,-317.77949149429 481.547439288768,-296.295345085666 546.95191914825,-282.151672283572 " style="fill: rgb(14,173,105); fill-opacity: 1; stroke: rgb(0,0,0); stroke-width: 3" />
	<polygon points="390.796021014527,-427.603423906741 301.777545978261,-533.907023406623 271.011855740795,-501.031527658897 347.432303267972,-429.290590337134 " style="fill: rgb(14,173,105); fill-opacity: 1; stroke: rgb(0,0,0); stroke-width: 3" />
	<polygon points="481.547439288768,-296.295345085666 446.652690728214,-317.77949149429 424.464500609947,-53.5 522.418342354971,-243.255964823797 " style="fill: rgb(14,173,105); fill-opacity: 1; stroke: rgb(0,0,0); stroke-width: 3" />
	<polygon points="369.437018540805,-632.967255062334 363.901324872602,-672.368510627451 282.077367354507,-654.537949513492 258.038720078191,-644.138457984685 300.30004874596,-591.348249934452 " style="fill: rgb(14,173,105); fill-opacity: 1; stroke: rgb(0,0,0); stroke-width: 3" />
	<polygon points="301.777545978261,-533.907023406623 307.557330057701,-545.924236656487 300.30004874596,-591.348249934452 258.038720078191,-644.138457984685 33.5,-643.26087069152 119.341947980438,-547.446639614953 258.72779670783,-520.714411678924 " style="fill: rgb(14,173,105); fill-opacity: 1; stroke: rgb(0,0,0); stroke-width: 3" />
	<polygon points="391.023900435681,-538.010458618759 426.857597661668,-427.603423906741 469.708587188564,-446.213942878936 461.36574289336,-585.44456230409 442.737689114069,-591.417929824069 407.877257527863,-572.238431548082 " style="fill: rgb(14,173,105); fill-opacity: 1; stroke: rgb(0,0,0); stroke-width: 3" />
	<polygon points="236.443593660933,-250.130743075905 232.512918475938,-121.547086639902 255.558104207988,-130.611587062578 443.228093184125,-318.004064614121 446.659677467567,-344.109790898549 285.284502726839,-309.978680598989 " style="fill: rgb(14,173,105); fill-opacity: 1; stroke: rgb(0,0,0); stroke-width: 3" />
	<polygon points="307.557330057701,-545.924236656487 391.023900435681,-538.010458618759 398.352489094465,-575.452167506011 319.063369550455,-590.462087631868 " style="fill: rgb(14,173,105); fill-opacity: 1; stroke: rgb(0,0,0); stroke-width: 3" />
	<circle cx="390.796021014527" cy="-427.603423906741" r="2" style="fill: rgb(0,0,0)" />
	<circle cx="426.857597661668" cy="-427.603423906741" r="2" style="fill: rgb(0,0,0)" />
	<circle cx="391.023900435681" cy="-538.010458618759" r="2" style="fill: rgb(0,0,0)" />
	<circle cx="307.557330057701" cy="-545.924236656487" r="2" style="fill: rgb(0,0,0)" />
	<circle cx="301.777545978261" cy="-533.907023406623" r="2" style="fill: rgb(0,0,0)" />
	<circle cx="354.951239053534" cy="-403.141000610284" r="2" style="fill: rgb(0,0,0)" />
	<circle cx="285.284502726839" cy="-309.978680598989" r="2" style="fill: rgb(0,0,0)" />
	<circle cx="446.659677467567" cy="-344.109790898549" r="2" style="fill: rgb(0,0,0)" />
	<circle cx="451.976439559243" cy="-388.21303800392" r="2" style="fill: rgb(0,0,0)" />
	<circle cx="271.011855740795" cy="-501.031527658897" r="2" style="fill: rgb(0,0,0)" />
	<circle cx="347.432303267972" cy="-429.290590337134" r="2" style="fill: rgb(0,0,0)" />
	<circle cx="300.30004874596" cy="-591.348249934452" r="2" style="fill: rgb(0,0,0)" />
	<circle cx="258.038720078191" cy="-644.138457984685" r="2" style="fill: rgb(0,0,0)" />
	<circle cx="33.5" cy="-643.26087069152" r="2" style="fill: rgb(0,0,0)" />
	<circle cx="119.341947980438" cy="-547.446639614953" r="2" style="fill: rgb(0,0,0)" />
	<circle cx="258.72779670783" cy="-520.714411678924" r="2" style="fill: rgb(0,0,0)" />
	<circle cx="469.708587188564" cy="-446.213942878936" r="2" style="fill: rgb(0,0,0)" />
	<circle cx="461.36574289336" cy="-585.44456230409" r="2" style="fill: rgb(0,0,0)" />
	<circle cx="442.737689114069" cy="-591.417929824069" r="2" style="fill: rgb(0,0,0)" />
	<circle cx="407.877257527863" cy="-572.238431548082" r="2" style="fill: rgb(0,0,0)" />
	<circle cx="398.352489094465" cy="-575.452167506011" r="2" style="fill: rgb(0,0,0)" />
	<circle cx="319.063369550455" cy="-590.462087631868" r="2" style="fill: rgb(0,0,0)" />
	<circle cx="250.576849409347" cy="-393.505977286213" r="2" style="fill: rgb(0,0,0)" />
	<circle cx="233.561153498943" cy="-252.603553855799" r="2" style="fill: rgb(0,0,0)" />
	<circle cx="446.652690728214" cy="-317.77949149429" r="2" style="fill: rgb(0,0,0)" />
	<circle cx="481.547439288768" cy="-296.295345085666" r="2" style="fill: rgb(0,0,0)" />
	<circle cx="546.95191914825" cy="-282.151672283572" r="2" style="fill: rgb(0,0,0)" />
	<circle cx="561.5" cy="-301.845462231375" r="2" style="fill: rgb(0,0,0)" />
	<circle cx="236.443593660933" cy="-250.130743075905" r="2" style="fill: rgb(0,0,0)" />
	<circle cx="232.512918475938" cy="-121.547086639902" r="2" style="fill: rgb(0,0,0)" />
	<circle cx="255.558104207988" cy="-130.611587062578" r="2" style="fill: rgb(0,0,0)" />
	<circle cx="443.228093184125" cy="-318.004064614121" r="2" style="fill: rgb(0,0,0)" />
	<circle cx="269.561492695339" cy="-667.659335905086" r="2" style="fill: rgb(0,0,0)" />
	<circle cx="263.70870956798" cy="-756.985205067513" r="2" style="fill: rgb(0,0,0)" />
	<circle cx="240.297245959332" cy="-756.862990353086" r="2" style="fill: rgb(0,0,0)" />
	<circle cx="48.5031920402345" cy="-662.962393016992" r="2" style="fill: rgb(0,0,0)" />
	<circle cx="369.437018540805" cy="-632.967255062334" r="2" style="fill: rgb(0,0,0)" />
	<circle cx="363.901324872602" cy="-672.368510627451" r="2" style="fill: rgb(0,0,0)" />
	<circle cx="282.077367354507" cy="-654.537949513492" r="2" style="fill: rgb(0,0,0)" />
	<circle cx="482.686068301585" cy="-597.483488479831" r="2" style="fill: rgb(0,0,0)" />
	<circle cx="493.567440555076" cy="-614.245817739993" r="2" style="fill: rgb(0,0,0)" />
	<circle cx="426.539477981083" cy="-673.580615330675" r="2" style="fill: rgb(0,0,0)" />
	<circle cx="525.043296779229" cy="-245.386436659143" r="2" style="fill: rgb(0,0,0)" />
	<circle cx="539.96156726797" cy="-263.429628459946" r="2" style="fill: rgb(0,0,0)" />
	<circle cx="424.464500609947" cy="-53.5" r="2" style="fill: rgb(0,0,0)" />
	<circle cx="522.418342354971" cy="-243.255964823797" r="2" style="fill: rgb(0,0,0)" />
	<!--
	Generated using the Perl SVG Module V2.86
	by Ronan Oger
	Info: http://www.roitsystems.com/
	-->
</svg>