<?xml version="1.0" encoding="UTF-8" standalone="yes"?>
<!DOCTYPE svg PUBLIC "-//W3C//DTD SVG 1.0//EN" "http://www.w3.org/TR/2001/REC-SVG-20010904/DTD/svg10.dtd">
<!-- generated using polymake; Michael Joswig, Georg Loho, Benjamin Lorenz, Rico Raber; license CC BY-NC-ND 3.0; see polymake.org and matchthenet.de -->
<svg height="841pt" id="document" viewBox="0 -582.173429722546 572 582.173429722546" width="595pt" xmlns="http://www.w3.org/2000/svg" xmlns:svg="http://www.w3.org/2000/svg" xmlns:xlink="http://www.w3.org/1999/xlink">
	<title id="document_title">planar_net_</title>
	<polygon points="194.586064805155,-189.438035331294 304.648176475823,-189.438035331294 309.305630964906,-203.454414355012 249.708450460513,-285.31001449454 220.323085698463,-283.488228299574 186.071698038711,-209.168013418219 " style="fill: rgb(14,173,105); fill-opacity: 1; stroke: rgb(0,0,0); stroke-width: 3" />
	<polygon points="284.547612052735,-403.850829993178 307.965336032317,-412.401915189358 307.067801801112,-417.770677411503 234.189676309693,-537.736443028032 213.879391778469,-545.673429722546 184.217905575142,-433.305146814354 " style="fill: rgb(14,173,105); fill-opacity: 1; stroke: rgb(0,0,0); stroke-width: 3" />
	<polygon points="264.657664369515,-84.1151637577209 304.648176475823,-189.438035331294 194.586064805155,-189.438035331294 188.530673457925,-171.514932651576 197.396821401643,-117.1803822195 " style="fill: rgb(14,173,105); fill-opacity: 1; stroke: rgb(0,0,0); stroke-width: 3" />
	<polygon points="415.790055699865,-252.450583432054 451.086153577808,-152.679559603507 476.507684009216,-170.930427503852 503.424124377541,-306.979196208227 501.695923964451,-312.140833431652 " style="fill: rgb(14,173,105); fill-opacity: 1; stroke: rgb(0,0,0); stroke-width: 3" />
	<polygon points="188.530673457925,-171.514932651576 124.108950516466,-92.7290101268579 124.707452180136,-66.235727045797 161.936814250083,-67.778146260704 197.396821401643,-117.1803822195 " style="fill: rgb(14,173,105); fill-opacity: 1; stroke: rgb(0,0,0); stroke-width: 3" />
	<polygon points="476.507684009216,-170.930427503852 561.5,-179.189530093175 503.424124377541,-306.979196208227 " style="fill: rgb(14,173,105); fill-opacity: 1; stroke: rgb(0,0,0); stroke-width: 3" />
	<polygon points="256.816601642312,-53.5 264.657664369515,-84.1151637577209 197.396821401643,-117.1803822195 168.508549176641,-63.6690679694195 " style="fill: rgb(14,173,105); fill-opacity: 1; stroke: rgb(0,0,0); stroke-width: 3" />
	<polygon points="309.305630964906,-203.454414355012 304.648176475823,-189.438035331294 402.820670876831,-134.172226026513 434.3905496473,-132.718516625749 451.086153577808,-152.679559603507 415.790055699865,-252.450583432054 " style="fill: rgb(14,173,105); fill-opacity: 1; stroke: rgb(0,0,0); stroke-width: 3" />
	<polygon points="186.071698038711,-209.168013418219 220.323085698463,-283.488228299574 155.204101021447,-307.976567209492 146.035976077782,-275.451859619157 " style="fill: rgb(14,173,105); fill-opacity: 1; stroke: rgb(0,0,0); stroke-width: 3" />
	<polygon points="249.708450460513,-285.31001449454 309.305630964906,-203.454414355012 345.75558716007,-314.85889356807 307.965336032317,-412.401915189358 284.547612052735,-403.850829993178 " style="fill: rgb(14,173,105); fill-opacity: 1; stroke: rgb(0,0,0); stroke-width: 3" />
	<polygon points="220.323085698463,-283.488228299574 249.708450460513,-285.31001449454 244.492437768098,-408.754274511438 164.610793114914,-341.281838444618 158.607574313697,-315.602968878455 " style="fill: rgb(14,173,105); fill-opacity: 1; stroke: rgb(0,0,0); stroke-width: 3" />
	<polygon points="155.204101021447,-307.976567209492 145.484188336557,-332.491180719993 33.5,-301.411020969665 34.7830815015977,-265.441607420309 59.7436990820837,-256.541055602854 146.035976077782,-275.451859619157 " style="fill: rgb(14,173,105); fill-opacity: 1; stroke: rgb(0,0,0); stroke-width: 3" />
	<polygon points="194.586064805155,-189.438035331294 186.071698038711,-209.168013418219 135.05478721213,-267.423331714785 76.7443894039613,-201.061647852038 176.86597482739,-182.812042181906 " style="fill: rgb(14,173,105); fill-opacity: 1; stroke: rgb(0,0,0); stroke-width: 3" />
	<polygon points="451.086153577808,-152.679559603507 434.3905496473,-132.718516625749 497.978580449927,-70.603426572752 534.229297812163,-61.9842649027645 554.496446307675,-91.7279650943208 553.846858018172,-113.524328336445 481.69459170504,-159.196606787782 " style="fill: rgb(14,173,105); fill-opacity: 1; stroke: rgb(0,0,0); stroke-width: 3" />
	<circle cx="194.586064805155" cy="-189.438035331294" r="2" style="fill: rgb(0,0,0)" />
	<circle cx="304.648176475823" cy="-189.438035331294" r="2" style="fill: rgb(0,0,0)" />
	<circle cx="309.305630964906" cy="-203.454414355012" r="2" style="fill: rgb(0,0,0)" />
	<circle cx="249.708450460513" cy="-285.31001449454" r="2" style="fill: rgb(0,0,0)" />
	<circle cx="220.323085698463" cy="-283.488228299574" r="2" style="fill: rgb(0,0,0)" />
	<circle cx="186.071698038711" cy="-209.168013418219" r="2" style="fill: rgb(0,0,0)" />
	<circle cx="188.530673457925" cy="-171.514932651576" r="2" style="fill: rgb(0,0,0)" />
	<circle cx="197.396821401643" cy="-117.1803822195" r="2" style="fill: rgb(0,0,0)" />
	<circle cx="264.657664369515" cy="-84.1151637577209" r="2" style="fill: rgb(0,0,0)" />
	<circle cx="402.820670876831" cy="-134.172226026513" r="2" style="fill: rgb(0,0,0)" />
	<circle cx="434.3905496473" cy="-132.718516625749" r="2" style="fill: rgb(0,0,0)" />
	<circle cx="451.086153577808" cy="-152.679559603507" r="2" style="fill: rgb(0,0,0)" />
	<circle cx="415.790055699865" cy="-252.450583432054" r="2" style="fill: rgb(0,0,0)" />
	<circle cx="155.204101021447" cy="-307.976567209492" r="2" style="fill: rgb(0,0,0)" />
	<circle cx="146.035976077782" cy="-275.451859619157" r="2" style="fill: rgb(0,0,0)" />
	<circle cx="345.75558716007" cy="-314.85889356807" r="2" style="fill: rgb(0,0,0)" />
	<circle cx="307.965336032317" cy="-412.401915189358" r="2" style="fill: rgb(0,0,0)" />
	<circle cx="284.547612052735" cy="-403.850829993178" r="2" style="fill: rgb(0,0,0)" />
	<circle cx="244.492437768098" cy="-408.754274511438" r="2" style="fill: rgb(0,0,0)" />
	<circle cx="164.610793114914" cy="-341.281838444618" r="2" style="fill: rgb(0,0,0)" />
	<circle cx="158.607574313697" cy="-315.602968878455" r="2" style="fill: rgb(0,0,0)" />
	<circle cx="135.05478721213" cy="-267.423331714785" r="2" style="fill: rgb(0,0,0)" />
	<circle cx="76.7443894039613" cy="-201.061647852038" r="2" style="fill: rgb(0,0,0)" />
	<circle cx="176.86597482739" cy="-182.812042181906" r="2" style="fill: rgb(0,0,0)" />
	<circle cx="124.108950516466" cy="-92.7290101268579" r="2" style="fill: rgb(0,0,0)" />
	<circle cx="124.707452180136" cy="-66.235727045797" r="2" style="fill: rgb(0,0,0)" />
	<circle cx="161.936814250083" cy="-67.778146260704" r="2" style="fill: rgb(0,0,0)" />
	<circle cx="168.508549176641" cy="-63.6690679694195" r="2" style="fill: rgb(0,0,0)" />
	<circle cx="256.816601642312" cy="-53.5" r="2" style="fill: rgb(0,0,0)" />
	<circle cx="476.507684009216" cy="-170.930427503852" r="2" style="fill: rgb(0,0,0)" />
	<circle cx="503.424124377541" cy="-306.979196208227" r="2" style="fill: rgb(0,0,0)" />
	<circle cx="501.695923964451" cy="-312.140833431652" r="2" style="fill: rgb(0,0,0)" />
	<circle cx="497.978580449927" cy="-70.603426572752" r="2" style="fill: rgb(0,0,0)" />
	<circle cx="534.229297812163" cy="-61.9842649027645" r="2" style="fill: rgb(0,0,0)" />
	<circle cx="554.496446307675" cy="-91.7279650943208" r="2" style="fill: rgb(0,0,0)" />
	<circle cx="553.846858018172" cy="-113.524328336445" r="2" style="fill: rgb(0,0,0)" />
	<circle cx="481.69459170504" cy="-159.196606787782" r="2" style="fill: rgb(0,0,0)" />
	<circle cx="145.484188336557" cy="-332.491180719993" r="2" style="fill: rgb(0,0,0)" />
	<circle cx="33.5" cy="-301.411020969665" r="2" style="fill: rgb(0,0,0)" />
	<circle cx="34.7830815015977" cy="-265.441607420309" r="2" style="fill: rgb(0,0,0)" />
	<circle cx="59.7436990820837" cy="-256.541055602854" r="2" style="fill: rgb(0,0,0)" />
	<circle cx="307.067801801112" cy="-417.770677411503" r="2" style="fill: rgb(0,0,0)" />
	<circle cx="234.189676309693" cy="-537.736443028032" r="2" style="fill: rgb(0,0,0)" />
	<circle cx="213.879391778469" cy="-545.673429722546" r="2" style="fill: rgb(0,0,0)" />
	<circle cx="184.217905575142" cy="-433.305146814354" r="2" style="fill: rgb(0,0,0)" />
	<circle cx="561.5" cy="-179.189530093175" r="2" style="fill: rgb(0,0,0)" />
	<!--
	Generated using the Perl SVG Module V2.87
	by Ronan Oger

	-->
</svg>