<?xml version="1.0" encoding="UTF-8" standalone="yes"?>
<!DOCTYPE svg PUBLIC "-//W3C//DTD SVG 1.0//EN" "http://www.w3.org/TR/2001/REC-SVG-20010904/DTD/svg10.dtd">
<!-- generated using polymake; Michael Joswig, Georg Loho, Benjamin Lorenz, Rico Raber; license CC BY-NC-ND 3.0; see polymake.org and matchthenet.de -->
<svg height="841pt" id="document" viewBox="0 -506.101449640451 572 506.101449640451" width="595pt" xmlns="http://www.w3.org/2000/svg" xmlns:svg="http://www.w3.org/2000/svg" xmlns:xlink="http://www.w3.org/1999/xlink">
	<title id="document_title">planar_net_</title>
	<polygon points="245.084140408754,-189.815608095707 292.959195568299,-189.815608095707 296.381250902895,-190.711930733769 343.395643398625,-249.798854293599 225.242568433122,-223.317651179301 " style="fill: rgb(226,200,51); fill-opacity: 1; stroke: rgb(0,0,0); stroke-width: 3" />
	<polygon points="319.836154341346,-139.971318134907 318.329659434532,-135.093720918421 345.578034223436,-114.357789172074 427.658781913573,-129.679619140951 432.063756369808,-179.006746868756 " style="fill: rgb(226,200,51); fill-opacity: 1; stroke: rgb(0,0,0); stroke-width: 3" />
	<polygon points="404.364065537891,-263.289851856125 432.063756369808,-179.006746868756 475.853173115744,-155.87546262239 502.137000099707,-158.226318543744 561.5,-235.920616940415 " style="fill: rgb(226,200,51); fill-opacity: 1; stroke: rgb(0,0,0); stroke-width: 3" />
	<polygon points="157.870132477833,-162.481070988403 153.740356176873,-241.41974514797 92.1001175567147,-225.10884175828 33.5,-146.837544446609 40.4603587070886,-147.021758973772 " style="fill: rgb(226,200,51); fill-opacity: 1; stroke: rgb(0,0,0); stroke-width: 3" />
	<polygon points="243.822205018968,-135.847236830408 292.959195568299,-189.815608095707 245.084140408754,-189.815608095707 230.685426885391,-134.447833069003 " style="fill: rgb(226,200,51); fill-opacity: 1; stroke: rgb(0,0,0); stroke-width: 3" />
	<polygon points="343.395643398625,-249.798854293599 296.381250902895,-190.711930733769 319.836154341346,-139.971318134907 432.063756369808,-179.006746868756 404.364065537891,-263.289851856125 381.749633649306,-269.470331173851 " style="fill: rgb(226,200,51); fill-opacity: 1; stroke: rgb(0,0,0); stroke-width: 3" />
	<polygon points="296.381250902895,-190.711930733769 292.959195568299,-189.815608095707 250.787522676423,-130.245658097622 291.685202032298,-131.946833069806 295.90856159325,-134.814535203826 " style="fill: rgb(226,200,51); fill-opacity: 1; stroke: rgb(0,0,0); stroke-width: 3" />
	<polygon points="245.084140408754,-189.815608095707 225.242568433122,-223.317651179301 171.184904076223,-244.577865167806 153.740356176873,-241.41974514797 157.870132477833,-162.481070988403 188.348915743396,-144.113239919044 210.659163272314,-144.122781397294 " style="fill: rgb(226,200,51); fill-opacity: 1; stroke: rgb(0,0,0); stroke-width: 3" />
	<polygon points="225.242568433122,-223.317651179301 343.395643398625,-249.798854293599 369.065291321263,-284.42636858972 182.445388087973,-262.593968841036 " style="fill: rgb(226,200,51); fill-opacity: 1; stroke: rgb(0,0,0); stroke-width: 3" />
	<polygon points="381.749633649306,-269.470331173851 404.364065537891,-263.289851856125 420.72233672942,-421.950445208024 378.355529402007,-469.601449640451 366.178963520546,-456.716682789365 " style="fill: rgb(226,200,51); fill-opacity: 1; stroke: rgb(0,0,0); stroke-width: 3" />
	<polygon points="291.685202032298,-131.946833069806 250.787522676423,-130.245658097622 238.324586908526,-125.862907515673 228.371914352078,-105.895645689746 269.223416624764,-96.3078414837357 294.228335075067,-97.8003066234385 " style="fill: rgb(226,200,51); fill-opacity: 1; stroke: rgb(0,0,0); stroke-width: 3" />
	<polygon points="345.578034223436,-114.357789172074 331.913192838489,-93.3638493602279 414.177236521538,-100.731706961109 420.096884798413,-104.397534644107 427.658781913573,-129.679619140951 " style="fill: rgb(226,200,51); fill-opacity: 1; stroke: rgb(0,0,0); stroke-width: 3" />
	<polygon points="188.348915743396,-144.113239919044 157.870132477833,-162.481070988403 111.532550850363,-53.5 177.136532842876,-103.67744269532 " style="fill: rgb(226,200,51); fill-opacity: 1; stroke: rgb(0,0,0); stroke-width: 3" />
	<circle cx="245.084140408754" cy="-189.815608095707" r="2" style="fill: rgb(0,0,0)" />
	<circle cx="292.959195568299" cy="-189.815608095707" r="2" style="fill: rgb(0,0,0)" />
	<circle cx="296.381250902895" cy="-190.711930733769" r="2" style="fill: rgb(0,0,0)" />
	<circle cx="343.395643398625" cy="-249.798854293599" r="2" style="fill: rgb(0,0,0)" />
	<circle cx="225.242568433122" cy="-223.317651179301" r="2" style="fill: rgb(0,0,0)" />
	<circle cx="230.685426885391" cy="-134.447833069003" r="2" style="fill: rgb(0,0,0)" />
	<circle cx="243.822205018968" cy="-135.847236830408" r="2" style="fill: rgb(0,0,0)" />
	<circle cx="319.836154341346" cy="-139.971318134907" r="2" style="fill: rgb(0,0,0)" />
	<circle cx="432.063756369808" cy="-179.006746868756" r="2" style="fill: rgb(0,0,0)" />
	<circle cx="404.364065537891" cy="-263.289851856125" r="2" style="fill: rgb(0,0,0)" />
	<circle cx="381.749633649306" cy="-269.470331173851" r="2" style="fill: rgb(0,0,0)" />
	<circle cx="250.787522676423" cy="-130.245658097622" r="2" style="fill: rgb(0,0,0)" />
	<circle cx="291.685202032298" cy="-131.946833069806" r="2" style="fill: rgb(0,0,0)" />
	<circle cx="295.90856159325" cy="-134.814535203826" r="2" style="fill: rgb(0,0,0)" />
	<circle cx="171.184904076223" cy="-244.577865167806" r="2" style="fill: rgb(0,0,0)" />
	<circle cx="153.740356176873" cy="-241.41974514797" r="2" style="fill: rgb(0,0,0)" />
	<circle cx="157.870132477833" cy="-162.481070988403" r="2" style="fill: rgb(0,0,0)" />
	<circle cx="188.348915743396" cy="-144.113239919044" r="2" style="fill: rgb(0,0,0)" />
	<circle cx="210.659163272314" cy="-144.122781397294" r="2" style="fill: rgb(0,0,0)" />
	<circle cx="369.065291321263" cy="-284.42636858972" r="2" style="fill: rgb(0,0,0)" />
	<circle cx="182.445388087973" cy="-262.593968841036" r="2" style="fill: rgb(0,0,0)" />
	<circle cx="318.329659434532" cy="-135.093720918421" r="2" style="fill: rgb(0,0,0)" />
	<circle cx="345.578034223436" cy="-114.357789172074" r="2" style="fill: rgb(0,0,0)" />
	<circle cx="427.658781913573" cy="-129.679619140951" r="2" style="fill: rgb(0,0,0)" />
	<circle cx="475.853173115744" cy="-155.87546262239" r="2" style="fill: rgb(0,0,0)" />
	<circle cx="502.137000099707" cy="-158.226318543744" r="2" style="fill: rgb(0,0,0)" />
	<circle cx="561.5" cy="-235.920616940415" r="2" style="fill: rgb(0,0,0)" />
	<circle cx="420.72233672942" cy="-421.950445208024" r="2" style="fill: rgb(0,0,0)" />
	<circle cx="378.355529402007" cy="-469.601449640451" r="2" style="fill: rgb(0,0,0)" />
	<circle cx="366.178963520546" cy="-456.716682789365" r="2" style="fill: rgb(0,0,0)" />
	<circle cx="238.324586908526" cy="-125.862907515673" r="2" style="fill: rgb(0,0,0)" />
	<circle cx="228.371914352078" cy="-105.895645689746" r="2" style="fill: rgb(0,0,0)" />
	<circle cx="269.223416624764" cy="-96.3078414837357" r="2" style="fill: rgb(0,0,0)" />
	<circle cx="294.228335075067" cy="-97.8003066234385" r="2" style="fill: rgb(0,0,0)" />
	<circle cx="92.1001175567147" cy="-225.10884175828" r="2" style="fill: rgb(0,0,0)" />
	<circle cx="33.5" cy="-146.837544446609" r="2" style="fill: rgb(0,0,0)" />
	<circle cx="40.4603587070886" cy="-147.021758973772" r="2" style="fill: rgb(0,0,0)" />
	<circle cx="111.532550850363" cy="-53.5" r="2" style="fill: rgb(0,0,0)" />
	<circle cx="177.136532842876" cy="-103.67744269532" r="2" style="fill: rgb(0,0,0)" />
	<circle cx="331.913192838489" cy="-93.3638493602279" r="2" style="fill: rgb(0,0,0)" />
	<circle cx="414.177236521538" cy="-100.731706961109" r="2" style="fill: rgb(0,0,0)" />
	<circle cx="420.096884798413" cy="-104.397534644107" r="2" style="fill: rgb(0,0,0)" />
	<!--
	Generated using the Perl SVG Module V2.84
	by Ronan Oger
	Info: http://www.roitsystems.com/
	-->
</svg>