<?xml version="1.0" encoding="UTF-8" standalone="yes"?>
<!DOCTYPE svg PUBLIC "-//W3C//DTD SVG 1.0//EN" "http://www.w3.org/TR/2001/REC-SVG-20010904/DTD/svg10.dtd">
<!-- generated using polymake; Michael Joswig, Georg Loho, Benjamin Lorenz, Rico Raber; license CC BY-NC-ND 3.0; see polymake.org and matchthenet.de -->
<svg height="841pt" id="document" viewBox="0 -607.760329431334 572 607.760329431334" width="595pt" xmlns="http://www.w3.org/2000/svg" xmlns:svg="http://www.w3.org/2000/svg" xmlns:xlink="http://www.w3.org/1999/xlink">
	<title id="document_title">planar_net_</title>
	<polygon points="228.028777257885,-395.962133423461 315.561618855658,-395.962133423461 269.078954664213,-447.912040014395 240.335798343489,-441.738362312047 " style="fill: rgb(29,97,21); fill-opacity: 1; stroke: rgb(0,0,0); stroke-width: 3" />
	<polygon points="198.396652293393,-508.60230291406 242.052474834764,-517.186797358466 266.671313245543,-562.411145965794 243.498689636868,-571.260329431334 146.98392147189,-555.18907631364 " style="fill: rgb(29,97,21); fill-opacity: 1; stroke: rgb(0,0,0); stroke-width: 3" />
	<polygon points="128.506141464067,-190.525015294007 169.176467568138,-126.66242720006 334.359197279769,-53.5 416.204456006388,-241.577943598181 " style="fill: rgb(29,97,21); fill-opacity: 1; stroke: rgb(0,0,0); stroke-width: 3" />
	<polygon points="344.61257666727,-374.458790494361 315.561618855658,-395.962133423461 228.028777257885,-395.962133423461 128.506141464067,-190.525015294007 416.204456006388,-241.577943598181 423.746960599171,-248.102748683193 388.230460365071,-327.975377859529 382.044412396204,-337.34858665835 " style="fill: rgb(59,142,23); fill-opacity: 1; stroke: rgb(0,0,0); stroke-width: 3" />
	<polygon points="358.322305679685,-483.822201585596 353.692279879834,-381.78355190603 382.044412396204,-337.34858665835 371.674863528983,-481.339848863527 367.154738681873,-486.036568507381 " style="fill: rgb(29,97,21); fill-opacity: 1; stroke: rgb(0,0,0); stroke-width: 3" />
	<polygon points="269.078954664213,-447.912040014395 315.561618855658,-395.962133423461 348.34315908837,-380.739698438547 300.067565953924,-470.75519863077 " style="fill: rgb(29,97,21); fill-opacity: 1; stroke: rgb(0,0,0); stroke-width: 3" />
	<polygon points="382.044412396204,-337.34858665835 388.230460365071,-327.975377859529 390.823898443283,-470.567369487541 371.674863528983,-481.339848863527 " style="fill: rgb(29,97,21); fill-opacity: 1; stroke: rgb(0,0,0); stroke-width: 3" />
	<polygon points="388.230460365071,-327.975377859529 423.746960599171,-248.102748683193 453.120397261316,-453.141554844418 422.521434360903,-466.407061732568 " style="fill: rgb(29,97,21); fill-opacity: 1; stroke: rgb(0,0,0); stroke-width: 3" />
	<polygon points="242.052474834764,-517.186797358466 287.068092435817,-491.68261726536 291.575676644246,-496.391373858182 298.786088249975,-517.145694240479 296.275383232753,-550.401769834213 280.536092176528,-551.397031323535 " style="fill: rgb(117,8,12); fill-opacity: 1; stroke: rgb(0,0,0); stroke-width: 3" />
	<polygon points="82.2772765960193,-309.406292241968 115.185528306366,-422.576184072369 45.9468553186461,-491.709329622216 33.5,-483.357010080859 " style="fill: rgb(29,97,21); fill-opacity: 1; stroke: rgb(0,0,0); stroke-width: 3" />
	<polygon points="240.335798343489,-441.738362312047 269.078954664213,-447.912040014395 285.564551191975,-482.701823462442 287.068092435817,-491.68261726536 242.052474834764,-517.186797358466 198.396652293393,-508.60230291406 " style="fill: rgb(117,8,12); fill-opacity: 1; stroke: rgb(0,0,0); stroke-width: 3" />
	<polygon points="423.746960599171,-248.102748683193 416.204456006388,-241.577943598181 530.331983674573,-71.1465302011682 542.219464451543,-62.0156348550627 561.5,-77.6213864191821 561.472494582288,-93.3920893786792 " style="fill: rgb(117,8,12); fill-opacity: 1; stroke: rgb(0,0,0); stroke-width: 3" />
	<polygon points="228.028777257885,-395.962133423461 240.335798343489,-441.738362312047 166.404460479355,-469.375941906865 115.185528306366,-422.576184072369 82.2772765960193,-309.406292241968 65.6204999917747,-235.54793200683 " style="fill: rgb(117,8,12); fill-opacity: 1; stroke: rgb(0,0,0); stroke-width: 3" />
	<circle cx="228.028777257885" cy="-395.962133423461" r="2" style="fill: rgb(0,0,0)" />
	<circle cx="315.561618855658" cy="-395.962133423461" r="2" style="fill: rgb(0,0,0)" />
	<circle cx="269.078954664213" cy="-447.912040014395" r="2" style="fill: rgb(0,0,0)" />
	<circle cx="240.335798343489" cy="-441.738362312047" r="2" style="fill: rgb(0,0,0)" />
	<circle cx="128.506141464067" cy="-190.525015294007" r="2" style="fill: rgb(0,0,0)" />
	<circle cx="416.204456006388" cy="-241.577943598181" r="2" style="fill: rgb(0,0,0)" />
	<circle cx="423.746960599171" cy="-248.102748683193" r="2" style="fill: rgb(0,0,0)" />
	<circle cx="388.230460365071" cy="-327.975377859529" r="2" style="fill: rgb(0,0,0)" />
	<circle cx="382.044412396204" cy="-337.34858665835" r="2" style="fill: rgb(0,0,0)" />
	<circle cx="344.61257666727" cy="-374.458790494361" r="2" style="fill: rgb(0,0,0)" />
	<circle cx="348.34315908837" cy="-380.739698438547" r="2" style="fill: rgb(0,0,0)" />
	<circle cx="300.067565953924" cy="-470.75519863077" r="2" style="fill: rgb(0,0,0)" />
	<circle cx="285.564551191975" cy="-482.701823462442" r="2" style="fill: rgb(0,0,0)" />
	<circle cx="287.068092435817" cy="-491.68261726536" r="2" style="fill: rgb(0,0,0)" />
	<circle cx="242.052474834764" cy="-517.186797358466" r="2" style="fill: rgb(0,0,0)" />
	<circle cx="198.396652293393" cy="-508.60230291406" r="2" style="fill: rgb(0,0,0)" />
	<circle cx="166.404460479355" cy="-469.375941906865" r="2" style="fill: rgb(0,0,0)" />
	<circle cx="115.185528306366" cy="-422.576184072369" r="2" style="fill: rgb(0,0,0)" />
	<circle cx="82.2772765960193" cy="-309.406292241968" r="2" style="fill: rgb(0,0,0)" />
	<circle cx="65.6204999917747" cy="-235.54793200683" r="2" style="fill: rgb(0,0,0)" />
	<circle cx="169.176467568138" cy="-126.66242720006" r="2" style="fill: rgb(0,0,0)" />
	<circle cx="334.359197279769" cy="-53.5" r="2" style="fill: rgb(0,0,0)" />
	<circle cx="390.823898443283" cy="-470.567369487541" r="2" style="fill: rgb(0,0,0)" />
	<circle cx="371.674863528983" cy="-481.339848863527" r="2" style="fill: rgb(0,0,0)" />
	<circle cx="453.120397261316" cy="-453.141554844418" r="2" style="fill: rgb(0,0,0)" />
	<circle cx="422.521434360903" cy="-466.407061732568" r="2" style="fill: rgb(0,0,0)" />
	<circle cx="530.331983674573" cy="-71.1465302011682" r="2" style="fill: rgb(0,0,0)" />
	<circle cx="542.219464451543" cy="-62.0156348550627" r="2" style="fill: rgb(0,0,0)" />
	<circle cx="561.5" cy="-77.6213864191821" r="2" style="fill: rgb(0,0,0)" />
	<circle cx="561.472494582288" cy="-93.3920893786792" r="2" style="fill: rgb(0,0,0)" />
	<circle cx="266.671313245543" cy="-562.411145965794" r="2" style="fill: rgb(0,0,0)" />
	<circle cx="243.498689636868" cy="-571.260329431334" r="2" style="fill: rgb(0,0,0)" />
	<circle cx="146.98392147189" cy="-555.18907631364" r="2" style="fill: rgb(0,0,0)" />
	<circle cx="291.575676644246" cy="-496.391373858182" r="2" style="fill: rgb(0,0,0)" />
	<circle cx="298.786088249975" cy="-517.145694240479" r="2" style="fill: rgb(0,0,0)" />
	<circle cx="296.275383232753" cy="-550.401769834213" r="2" style="fill: rgb(0,0,0)" />
	<circle cx="280.536092176528" cy="-551.397031323535" r="2" style="fill: rgb(0,0,0)" />
	<circle cx="45.9468553186461" cy="-491.709329622216" r="2" style="fill: rgb(0,0,0)" />
	<circle cx="33.5" cy="-483.357010080859" r="2" style="fill: rgb(0,0,0)" />
	<circle cx="367.154738681873" cy="-486.036568507381" r="2" style="fill: rgb(0,0,0)" />
	<circle cx="358.322305679685" cy="-483.822201585596" r="2" style="fill: rgb(0,0,0)" />
	<circle cx="353.692279879834" cy="-381.78355190603" r="2" style="fill: rgb(0,0,0)" />
	<!--
	Generated using the Perl SVG Module V2.84
	by Ronan Oger
	Info: http://www.roitsystems.com/
	-->
</svg>