<?xml version="1.0" encoding="UTF-8" standalone="yes"?>
<!DOCTYPE svg PUBLIC "-//W3C//DTD SVG 1.0//EN" "http://www.w3.org/TR/2001/REC-SVG-20010904/DTD/svg10.dtd">
<!-- generated using polymake; Michael Joswig, Georg Loho, Benjamin Lorenz, Rico Raber; license CC BY-NC-ND 3.0; see polymake.org and matchthenet.de -->
<svg height="841pt" id="document" viewBox="0 -680.204401019377 572 680.204401019377" width="595pt" xmlns="http://www.w3.org/2000/svg" xmlns:svg="http://www.w3.org/2000/svg" xmlns:xlink="http://www.w3.org/1999/xlink">
	<title id="document_title">planar_net_</title>
	<polygon points="239.486559119429,-408.179142737531 507.522482017525,-408.179142737531 284.783749325639,-524.617511981349 281.302475473317,-523.591392244028 273.298000793419,-511.182101254478 " style="fill: rgb(14,173,105); fill-opacity: 1; stroke: rgb(0,0,0); stroke-width: 3" />
	<polygon points="255.886992421348,-86.9307512746143 295.839330651266,-159.088732300536 218.061513929026,-139.202848122356 222.29177238474,-90.4237230814561 " style="fill: rgb(14,173,105); fill-opacity: 1; stroke: rgb(0,0,0); stroke-width: 3" />
	<polygon points="392.527994825714,-214.174502726373 263.817857079922,-267.450736617356 212.669236455683,-141.328207879205 218.061513929026,-139.202848122356 295.839330651266,-159.088732300536 " style="fill: rgb(14,173,105); fill-opacity: 1; stroke: rgb(0,0,0); stroke-width: 3" />
	<polygon points="530.101359298562,-398.133421743642 507.522482017525,-408.179142737531 239.486559119429,-408.179142737531 198.468432583857,-384.936311293957 184.847662373816,-312.399214877623 263.817857079922,-267.450736617356 392.527994825714,-214.174502726373 " style="fill: rgb(14,173,105); fill-opacity: 1; stroke: rgb(0,0,0); stroke-width: 3" />
	<polygon points="198.468432583857,-384.936311293957 162.814847435102,-399.342914214849 33.5,-404.077672242599 46.0826462337285,-348.755031920987 184.847662373816,-312.399214877623 " style="fill: rgb(14,173,105); fill-opacity: 1; stroke: rgb(0,0,0); stroke-width: 3" />
	<polygon points="561.219902458241,-315.795636065389 530.101359298562,-398.133421743642 392.527994825714,-214.174502726373 478.976310878645,-144.104334074794 561.432713933118,-146.080479587449 561.5,-146.205989310707 " style="fill: rgb(14,173,105); fill-opacity: 1; stroke: rgb(0,0,0); stroke-width: 3" />
	<polygon points="273.298000793419,-511.182101254478 281.302475473317,-523.591392244028 242.869577746849,-538.18598889265 229.601768531282,-539.305448890191 224.163922647521,-512.505974282511 " style="fill: rgb(14,173,105); fill-opacity: 1; stroke: rgb(0,0,0); stroke-width: 3" />
	<polygon points="285.845749402003,-573.089125025596 291.265568111939,-599.604052861421 283.144674685136,-603.771757981571 224.140151851789,-595.433819383238 233.234647670806,-548.529887363429 245.946936771923,-544.569375038459 " style="fill: rgb(14,173,105); fill-opacity: 1; stroke: rgb(0,0,0); stroke-width: 3" />
	<polygon points="284.783749325639,-524.617511981349 507.522482017525,-408.179142737531 532.150423538006,-410.225286921959 471.064936108289,-473.600659932738 330.438819849438,-584.902436235553 310.743193208618,-595.106065810209 297.867630474635,-571.30195445796 " style="fill: rgb(14,173,105); fill-opacity: 1; stroke: rgb(0,0,0); stroke-width: 3" />
	<polygon points="330.438819849438,-584.902436235553 471.064936108289,-473.600659932738 390.324415726838,-622.73715818029 " style="fill: rgb(14,173,105); fill-opacity: 1; stroke: rgb(0,0,0); stroke-width: 3" />
	<polygon points="239.486559119429,-408.179142737531 273.298000793419,-511.182101254478 224.151052210147,-510.483731730106 202.294757251816,-442.995714052549 192.399107336569,-405.836536795314 " style="fill: rgb(14,173,105); fill-opacity: 1; stroke: rgb(0,0,0); stroke-width: 3" />
	<polygon points="158.292293229443,-53.5 208.020754873721,-91.2812320816965 218.061513929026,-139.202848122356 212.669236455683,-141.328207879205 153.611347354659,-155.233808061273 127.394360256077,-104.918928493982 127.15866619726,-104.310945697514 " style="fill: rgb(14,173,105); fill-opacity: 1; stroke: rgb(0,0,0); stroke-width: 3" />
	<polygon points="263.817857079922,-267.450736617356 184.847662373816,-312.399214877623 140.389536391754,-176.013914454838 195.170417875833,-149.932215788549 " style="fill: rgb(14,173,105); fill-opacity: 1; stroke: rgb(0,0,0); stroke-width: 3" />
	<polygon points="310.743193208618,-595.106065810209 330.438819849438,-584.902436235553 386.002575363565,-628.838979697612 385.982726473604,-628.979997877276 355.584838167652,-643.704401019377 307.635957931508,-603.688825561635 " style="fill: rgb(14,173,105); fill-opacity: 1; stroke: rgb(0,0,0); stroke-width: 3" />
	<polygon points="224.163922647521,-512.505974282511 229.601768531282,-539.305448890191 200.350532790562,-577.08181585105 199.720025241079,-576.915517925013 195.581100195255,-447.580228849667 " style="fill: rgb(14,173,105); fill-opacity: 1; stroke: rgb(0,0,0); stroke-width: 3" />
	<polygon points="281.302475473317,-523.591392244028 284.783749325639,-524.617511981349 285.845749402003,-573.089125025596 245.946936771923,-544.569375038459 " style="fill: rgb(14,173,105); fill-opacity: 1; stroke: rgb(0,0,0); stroke-width: 3" />
	<circle cx="239.486559119429" cy="-408.179142737531" r="2" style="fill: rgb(0,0,0)" />
	<circle cx="507.522482017525" cy="-408.179142737531" r="2" style="fill: rgb(0,0,0)" />
	<circle cx="284.783749325639" cy="-524.617511981349" r="2" style="fill: rgb(0,0,0)" />
	<circle cx="281.302475473317" cy="-523.591392244028" r="2" style="fill: rgb(0,0,0)" />
	<circle cx="273.298000793419" cy="-511.182101254478" r="2" style="fill: rgb(0,0,0)" />
	<circle cx="198.468432583857" cy="-384.936311293957" r="2" style="fill: rgb(0,0,0)" />
	<circle cx="184.847662373816" cy="-312.399214877623" r="2" style="fill: rgb(0,0,0)" />
	<circle cx="263.817857079922" cy="-267.450736617356" r="2" style="fill: rgb(0,0,0)" />
	<circle cx="392.527994825714" cy="-214.174502726373" r="2" style="fill: rgb(0,0,0)" />
	<circle cx="530.101359298562" cy="-398.133421743642" r="2" style="fill: rgb(0,0,0)" />
	<circle cx="242.869577746849" cy="-538.18598889265" r="2" style="fill: rgb(0,0,0)" />
	<circle cx="229.601768531282" cy="-539.305448890191" r="2" style="fill: rgb(0,0,0)" />
	<circle cx="224.163922647521" cy="-512.505974282511" r="2" style="fill: rgb(0,0,0)" />
	<circle cx="532.150423538006" cy="-410.225286921959" r="2" style="fill: rgb(0,0,0)" />
	<circle cx="471.064936108289" cy="-473.600659932738" r="2" style="fill: rgb(0,0,0)" />
	<circle cx="330.438819849438" cy="-584.902436235553" r="2" style="fill: rgb(0,0,0)" />
	<circle cx="310.743193208618" cy="-595.106065810209" r="2" style="fill: rgb(0,0,0)" />
	<circle cx="297.867630474635" cy="-571.30195445796" r="2" style="fill: rgb(0,0,0)" />
	<circle cx="224.151052210147" cy="-510.483731730106" r="2" style="fill: rgb(0,0,0)" />
	<circle cx="202.294757251816" cy="-442.995714052549" r="2" style="fill: rgb(0,0,0)" />
	<circle cx="192.399107336569" cy="-405.836536795314" r="2" style="fill: rgb(0,0,0)" />
	<circle cx="285.845749402003" cy="-573.089125025596" r="2" style="fill: rgb(0,0,0)" />
	<circle cx="245.946936771923" cy="-544.569375038459" r="2" style="fill: rgb(0,0,0)" />
	<circle cx="212.669236455683" cy="-141.328207879205" r="2" style="fill: rgb(0,0,0)" />
	<circle cx="218.061513929026" cy="-139.202848122356" r="2" style="fill: rgb(0,0,0)" />
	<circle cx="295.839330651266" cy="-159.088732300536" r="2" style="fill: rgb(0,0,0)" />
	<circle cx="162.814847435102" cy="-399.342914214849" r="2" style="fill: rgb(0,0,0)" />
	<circle cx="33.5" cy="-404.077672242599" r="2" style="fill: rgb(0,0,0)" />
	<circle cx="46.0826462337285" cy="-348.755031920987" r="2" style="fill: rgb(0,0,0)" />
	<circle cx="478.976310878645" cy="-144.104334074794" r="2" style="fill: rgb(0,0,0)" />
	<circle cx="561.432713933118" cy="-146.080479587449" r="2" style="fill: rgb(0,0,0)" />
	<circle cx="561.5" cy="-146.205989310707" r="2" style="fill: rgb(0,0,0)" />
	<circle cx="561.219902458241" cy="-315.795636065389" r="2" style="fill: rgb(0,0,0)" />
	<circle cx="140.389536391754" cy="-176.013914454838" r="2" style="fill: rgb(0,0,0)" />
	<circle cx="195.170417875833" cy="-149.932215788549" r="2" style="fill: rgb(0,0,0)" />
	<circle cx="200.350532790562" cy="-577.08181585105" r="2" style="fill: rgb(0,0,0)" />
	<circle cx="199.720025241079" cy="-576.915517925013" r="2" style="fill: rgb(0,0,0)" />
	<circle cx="195.581100195255" cy="-447.580228849667" r="2" style="fill: rgb(0,0,0)" />
	<circle cx="390.324415726838" cy="-622.73715818029" r="2" style="fill: rgb(0,0,0)" />
	<circle cx="386.002575363565" cy="-628.838979697612" r="2" style="fill: rgb(0,0,0)" />
	<circle cx="385.982726473604" cy="-628.979997877276" r="2" style="fill: rgb(0,0,0)" />
	<circle cx="355.584838167652" cy="-643.704401019377" r="2" style="fill: rgb(0,0,0)" />
	<circle cx="307.635957931508" cy="-603.688825561635" r="2" style="fill: rgb(0,0,0)" />
	<circle cx="291.265568111939" cy="-599.604052861421" r="2" style="fill: rgb(0,0,0)" />
	<circle cx="283.144674685136" cy="-603.771757981571" r="2" style="fill: rgb(0,0,0)" />
	<circle cx="224.140151851789" cy="-595.433819383238" r="2" style="fill: rgb(0,0,0)" />
	<circle cx="233.234647670806" cy="-548.529887363429" r="2" style="fill: rgb(0,0,0)" />
	<circle cx="222.29177238474" cy="-90.4237230814561" r="2" style="fill: rgb(0,0,0)" />
	<circle cx="255.886992421348" cy="-86.9307512746143" r="2" style="fill: rgb(0,0,0)" />
	<circle cx="153.611347354659" cy="-155.233808061273" r="2" style="fill: rgb(0,0,0)" />
	<circle cx="127.394360256077" cy="-104.918928493982" r="2" style="fill: rgb(0,0,0)" />
	<circle cx="127.15866619726" cy="-104.310945697514" r="2" style="fill: rgb(0,0,0)" />
	<circle cx="158.292293229443" cy="-53.5" r="2" style="fill: rgb(0,0,0)" />
	<circle cx="208.020754873721" cy="-91.2812320816965" r="2" style="fill: rgb(0,0,0)" />
	<!--
	Generated using the Perl SVG Module V2.87
	by Ronan Oger

	-->
</svg>