<?xml version="1.0" encoding="UTF-8" standalone="yes"?>
<!DOCTYPE svg PUBLIC "-//W3C//DTD SVG 1.0//EN" "http://www.w3.org/TR/2001/REC-SVG-20010904/DTD/svg10.dtd">
<!-- generated using polymake; Michael Joswig, Georg Loho, Benjamin Lorenz, Rico Raber; license CC BY-NC-ND 3.0; see polymake.org and matchthenet.de -->
<svg height="841pt" id="document" viewBox="0 -515.894817638942 572 515.894817638942" width="595pt" xmlns="http://www.w3.org/2000/svg" xmlns:svg="http://www.w3.org/2000/svg" xmlns:xlink="http://www.w3.org/1999/xlink">
	<title id="document_title">planar_net_</title>
	<polygon points="258.461553163399,-233.445387023713 398.406474990803,-233.445387023713 380.681122471895,-309.723265469836 256.132549083186,-235.615718817895 " style="fill: rgb(67,184,206); fill-opacity: 1; stroke: rgb(0,0,0); stroke-width: 3" />
	<polygon points="407.489454619437,-217.062500637075 398.406474990803,-233.445387023713 258.461553163399,-233.445387023713 322.855734730642,-175.828983323117 361.881685916852,-174.750289004318 405.988257025035,-209.507552598125 " style="fill: rgb(238,66,102); fill-opacity: 1; stroke: rgb(0,0,0); stroke-width: 3" />
	<polygon points="192.925560850227,-380.000254277091 193.15784514319,-382.313710455559 78.1789089928637,-418.43021672168 56.3659370845644,-393.546625792386 53.5475687533998,-388.968799327097 33.5,-345.779665746677 52.8543899249433,-322.174041634416 " style="fill: rgb(84,13,110); fill-opacity: 1; stroke: rgb(0,0,0); stroke-width: 3" />
	<polygon points="193.15784514319,-382.313710455559 240.97133803975,-381.139396328409 345.622243002653,-426.425742205433 351.851924652364,-437.632085616776 315.659747476259,-479.394817638942 270.124833430379,-475.053348675305 " style="fill: rgb(238,66,102); fill-opacity: 1; stroke: rgb(0,0,0); stroke-width: 3" />
	<polygon points="356.298752461163,-349.874355231909 373.770994303113,-335.990356908531 393.098417517734,-409.658983117821 373.297744947357,-418.708897433041 362.954129519661,-411.13257339076 " style="fill: rgb(255,210,63); fill-opacity: 1; stroke: rgb(0,0,0); stroke-width: 3" />
	<polygon points="256.132549083186,-235.615718817895 380.681122471895,-309.723265469836 382.389600151293,-317.553967893564 373.770994303113,-335.990356908531 356.298752461163,-349.874355231909 240.97133803975,-381.139396328409 193.15784514319,-382.313710455559 192.925560850227,-380.000254277091 " style="fill: rgb(136,136,136); fill-opacity: 1; stroke: rgb(0,0,0); stroke-width: 3" />
	<polygon points="434.603779868787,-69.0489400427622 438.259860968468,-65.1077769924717 446.230130822946,-143.876453657913 430.799369018877,-137.944799354657 " style="fill: rgb(67,184,206); fill-opacity: 1; stroke: rgb(0,0,0); stroke-width: 3" />
	<polygon points="382.389600151293,-317.553967893564 449.632929102572,-375.333267837964 451.796715999813,-393.487032702461 414.516467984971,-400.336469068653 373.770994303113,-335.990356908531 " style="fill: rgb(255,210,63); fill-opacity: 1; stroke: rgb(0,0,0); stroke-width: 3" />
	<polygon points="493.781570752503,-221.133372266896 497.527681982795,-186.298825060144 561.5,-178.968459156562 548.535254367436,-232.689170668821 527.526071126153,-238.39721787311 " style="fill: rgb(255,210,63); fill-opacity: 1; stroke: rgb(0,0,0); stroke-width: 3" />
	<polygon points="360.708907093038,-100.672761034555 367.184776820447,-53.5 408.801786250911,-108.537600768038 389.24984942321,-117.316637379451 " style="fill: rgb(67,184,206); fill-opacity: 1; stroke: rgb(0,0,0); stroke-width: 3" />
	<polygon points="497.527681982795,-186.298825060144 472.343838398466,-169.711632089366 470.2801846554,-162.590541868138 522.227737314561,-102.845404845103 555.056871673724,-98.6924807864958 545.585226529579,-143.442505235552 " style="fill: rgb(238,66,102); fill-opacity: 1; stroke: rgb(0,0,0); stroke-width: 3" />
	<polygon points="322.855734730642,-175.828983323117 334.186524213538,-115.785044299823 360.708907093038,-100.672761034555 389.24984942321,-117.316637379451 361.881685916852,-174.750289004318 " style="fill: rgb(255,210,63); fill-opacity: 1; stroke: rgb(0,0,0); stroke-width: 3" />
	<polygon points="240.97133803975,-381.139396328409 356.298752461163,-349.874355231909 350.950356606124,-411.26049371256 " style="fill: rgb(14,173,105); fill-opacity: 1; stroke: rgb(0,0,0); stroke-width: 3" />
	<polygon points="380.681122471895,-309.723265469836 398.406474990803,-233.445387023713 410.447864402707,-219.096016782388 462.924111823543,-269.229831691274 386.878437549867,-314.805792622177 " style="fill: rgb(255,210,63); fill-opacity: 1; stroke: rgb(0,0,0); stroke-width: 3" />
	<polygon points="478.63887411626,-231.377389597749 407.489454619437,-217.062500637075 405.988257025035,-209.507552598125 472.343838398466,-169.711632089366 497.527681982795,-186.298825060144 493.781570752503,-221.133372266896 " style="fill: rgb(238,66,102); fill-opacity: 1; stroke: rgb(0,0,0); stroke-width: 3" />
	<polygon points="258.461553163399,-233.445387023713 256.132549083186,-235.615718817895 120.07052899558,-156.059800553251 265.046438962428,-111.948698523446 303.310259713154,-159.588402818233 " style="fill: rgb(255,210,63); fill-opacity: 1; stroke: rgb(0,0,0); stroke-width: 3" />
	<polygon points="405.988257025035,-209.507552598125 361.881685916852,-174.750289004318 409.93282970634,-133.052227979884 430.799369018877,-137.944799354657 446.230130822946,-143.876453657913 452.56746320825,-147.72441557928 " style="fill: rgb(238,66,102); fill-opacity: 1; stroke: rgb(0,0,0); stroke-width: 3" />
	<circle cx="258.461553163399" cy="-233.445387023713" r="2" style="fill: rgb(0,0,0)" />
	<circle cx="398.406474990803" cy="-233.445387023713" r="2" style="fill: rgb(0,0,0)" />
	<circle cx="380.681122471895" cy="-309.723265469836" r="2" style="fill: rgb(0,0,0)" />
	<circle cx="256.132549083186" cy="-235.615718817895" r="2" style="fill: rgb(0,0,0)" />
	<circle cx="322.855734730642" cy="-175.828983323117" r="2" style="fill: rgb(0,0,0)" />
	<circle cx="361.881685916852" cy="-174.750289004318" r="2" style="fill: rgb(0,0,0)" />
	<circle cx="405.988257025035" cy="-209.507552598125" r="2" style="fill: rgb(0,0,0)" />
	<circle cx="407.489454619437" cy="-217.062500637075" r="2" style="fill: rgb(0,0,0)" />
	<circle cx="382.389600151293" cy="-317.553967893564" r="2" style="fill: rgb(0,0,0)" />
	<circle cx="373.770994303113" cy="-335.990356908531" r="2" style="fill: rgb(0,0,0)" />
	<circle cx="356.298752461163" cy="-349.874355231909" r="2" style="fill: rgb(0,0,0)" />
	<circle cx="240.97133803975" cy="-381.139396328409" r="2" style="fill: rgb(0,0,0)" />
	<circle cx="193.15784514319" cy="-382.313710455559" r="2" style="fill: rgb(0,0,0)" />
	<circle cx="192.925560850227" cy="-380.000254277091" r="2" style="fill: rgb(0,0,0)" />
	<circle cx="410.447864402707" cy="-219.096016782388" r="2" style="fill: rgb(0,0,0)" />
	<circle cx="462.924111823543" cy="-269.229831691274" r="2" style="fill: rgb(0,0,0)" />
	<circle cx="386.878437549867" cy="-314.805792622177" r="2" style="fill: rgb(0,0,0)" />
	<circle cx="120.07052899558" cy="-156.059800553251" r="2" style="fill: rgb(0,0,0)" />
	<circle cx="265.046438962428" cy="-111.948698523446" r="2" style="fill: rgb(0,0,0)" />
	<circle cx="303.310259713154" cy="-159.588402818233" r="2" style="fill: rgb(0,0,0)" />
	<circle cx="334.186524213538" cy="-115.785044299823" r="2" style="fill: rgb(0,0,0)" />
	<circle cx="360.708907093038" cy="-100.672761034555" r="2" style="fill: rgb(0,0,0)" />
	<circle cx="389.24984942321" cy="-117.316637379451" r="2" style="fill: rgb(0,0,0)" />
	<circle cx="472.343838398466" cy="-169.711632089366" r="2" style="fill: rgb(0,0,0)" />
	<circle cx="497.527681982795" cy="-186.298825060144" r="2" style="fill: rgb(0,0,0)" />
	<circle cx="493.781570752503" cy="-221.133372266896" r="2" style="fill: rgb(0,0,0)" />
	<circle cx="478.63887411626" cy="-231.377389597749" r="2" style="fill: rgb(0,0,0)" />
	<circle cx="409.93282970634" cy="-133.052227979884" r="2" style="fill: rgb(0,0,0)" />
	<circle cx="430.799369018877" cy="-137.944799354657" r="2" style="fill: rgb(0,0,0)" />
	<circle cx="446.230130822946" cy="-143.876453657913" r="2" style="fill: rgb(0,0,0)" />
	<circle cx="452.56746320825" cy="-147.72441557928" r="2" style="fill: rgb(0,0,0)" />
	<circle cx="78.1789089928637" cy="-418.43021672168" r="2" style="fill: rgb(0,0,0)" />
	<circle cx="56.3659370845644" cy="-393.546625792386" r="2" style="fill: rgb(0,0,0)" />
	<circle cx="53.5475687533998" cy="-388.968799327097" r="2" style="fill: rgb(0,0,0)" />
	<circle cx="33.5" cy="-345.779665746677" r="2" style="fill: rgb(0,0,0)" />
	<circle cx="52.8543899249433" cy="-322.174041634416" r="2" style="fill: rgb(0,0,0)" />
	<circle cx="345.622243002653" cy="-426.425742205433" r="2" style="fill: rgb(0,0,0)" />
	<circle cx="351.851924652364" cy="-437.632085616776" r="2" style="fill: rgb(0,0,0)" />
	<circle cx="315.659747476259" cy="-479.394817638942" r="2" style="fill: rgb(0,0,0)" />
	<circle cx="270.124833430379" cy="-475.053348675305" r="2" style="fill: rgb(0,0,0)" />
	<circle cx="393.098417517734" cy="-409.658983117821" r="2" style="fill: rgb(0,0,0)" />
	<circle cx="373.297744947357" cy="-418.708897433041" r="2" style="fill: rgb(0,0,0)" />
	<circle cx="362.954129519661" cy="-411.13257339076" r="2" style="fill: rgb(0,0,0)" />
	<circle cx="449.632929102572" cy="-375.333267837964" r="2" style="fill: rgb(0,0,0)" />
	<circle cx="451.796715999813" cy="-393.487032702461" r="2" style="fill: rgb(0,0,0)" />
	<circle cx="414.516467984971" cy="-400.336469068653" r="2" style="fill: rgb(0,0,0)" />
	<circle cx="350.950356606124" cy="-411.26049371256" r="2" style="fill: rgb(0,0,0)" />
	<circle cx="367.184776820447" cy="-53.5" r="2" style="fill: rgb(0,0,0)" />
	<circle cx="408.801786250911" cy="-108.537600768038" r="2" style="fill: rgb(0,0,0)" />
	<circle cx="561.5" cy="-178.968459156562" r="2" style="fill: rgb(0,0,0)" />
	<circle cx="548.535254367436" cy="-232.689170668821" r="2" style="fill: rgb(0,0,0)" />
	<circle cx="527.526071126153" cy="-238.39721787311" r="2" style="fill: rgb(0,0,0)" />
	<circle cx="470.2801846554" cy="-162.590541868138" r="2" style="fill: rgb(0,0,0)" />
	<circle cx="522.227737314561" cy="-102.845404845103" r="2" style="fill: rgb(0,0,0)" />
	<circle cx="555.056871673724" cy="-98.6924807864958" r="2" style="fill: rgb(0,0,0)" />
	<circle cx="545.585226529579" cy="-143.442505235552" r="2" style="fill: rgb(0,0,0)" />
	<circle cx="434.603779868787" cy="-69.0489400427622" r="2" style="fill: rgb(0,0,0)" />
	<circle cx="438.259860968468" cy="-65.1077769924717" r="2" style="fill: rgb(0,0,0)" />
	<!--
	Generated using the Perl SVG Module V2.87
	by Ronan Oger

	-->
</svg>