<?xml version="1.0" encoding="UTF-8" standalone="yes"?>
<!DOCTYPE svg PUBLIC "-//W3C//DTD SVG 1.0//EN" "http://www.w3.org/TR/2001/REC-SVG-20010904/DTD/svg10.dtd">
<!-- generated using polymake; Michael Joswig, Georg Loho, Benjamin Lorenz, Rico Raber; license CC BY-NC-ND 3.0; see polymake.org and matchthenet.de -->
<svg height="841pt" id="document" viewBox="0 -419.424328486028 572 419.424328486028" width="595pt" xmlns="http://www.w3.org/2000/svg" xmlns:svg="http://www.w3.org/2000/svg" xmlns:xlink="http://www.w3.org/1999/xlink">
	<title id="document_title">planar_net_</title>
	<polygon points="231.726935863365,-146.021885653378 335.552825283434,-146.021885653378 404.88644061179,-225.269164767116 350.455995563771,-284.325931398814 245.214034133727,-238.306590034515 " style="fill: rgb(14,173,105); fill-opacity: 1; stroke: rgb(0,0,0); stroke-width: 3" />
	<polygon points="366.769689655867,-114.495994800148 335.552825283434,-146.021885653378 231.726935863365,-146.021885653378 264.959084039523,-95.4653733187146 356.591608784588,-97.294816238229 " style="fill: rgb(14,173,105); fill-opacity: 1; stroke: rgb(0,0,0); stroke-width: 3" />
	<polygon points="438.647559048992,-316.007161448633 501.780710068565,-265.718940463657 522.299991462172,-295.232012868754 510.520565652792,-321.717807980918 482.462362780218,-357.525195891783 " style="fill: rgb(14,173,105); fill-opacity: 1; stroke: rgb(0,0,0); stroke-width: 3" />
	<polygon points="314.608152662062,-352.746065885647 308.26997588496,-368.362468915988 249.691511788572,-382.924328486028 245.832930943174,-378.180978776327 250.393092635198,-345.088296585207 " style="fill: rgb(14,173,105); fill-opacity: 1; stroke: rgb(0,0,0); stroke-width: 3" />
	<polygon points="264.959084039523,-95.4653733187146 278.593134955478,-75.7185409414383 346.687804835173,-61.3383802440461 356.591608784588,-97.294816238229 " style="fill: rgb(14,173,105); fill-opacity: 1; stroke: rgb(0,0,0); stroke-width: 3" />
	<polygon points="245.214034133727,-238.306590034515 350.455995563771,-284.325931398814 314.608152662062,-352.746065885647 250.393092635198,-345.088296585207 " style="fill: rgb(14,173,105); fill-opacity: 1; stroke: rgb(0,0,0); stroke-width: 3" />
	<polygon points="138.927910266445,-169.013303513059 105.994349944769,-239.735441796084 100.019752357141,-241.036286242938 61.541273647661,-216.77029247302 " style="fill: rgb(14,173,105); fill-opacity: 1; stroke: rgb(0,0,0); stroke-width: 3" />
	<polygon points="147.940346860518,-155.794601366611 138.927910266445,-169.013303513059 58.8134072212587,-212.037574843469 33.5,-197.913707456208 63.6507286491406,-167.107306455648 78.3778265955145,-157.969196061904 " style="fill: rgb(14,173,105); fill-opacity: 1; stroke: rgb(0,0,0); stroke-width: 3" />
	<polygon points="472.313751313677,-226.728752573635 522.785413615953,-190.360169818148 561.5,-233.500611497666 537.543511724658,-269.336172748958 501.780710068565,-265.718940463657 " style="fill: rgb(14,173,105); fill-opacity: 1; stroke: rgb(0,0,0); stroke-width: 3" />
	<polygon points="231.726935863365,-146.021885653378 245.214034133727,-238.306590034515 138.644584219184,-246.79822390273 105.994349944769,-239.735441796084 138.927910266445,-169.013303513059 147.940346860518,-155.794601366611 171.417615548433,-150.830471204076 " style="fill: rgb(14,173,105); fill-opacity: 1; stroke: rgb(0,0,0); stroke-width: 3" />
	<polygon points="381.496979476597,-108.600422046659 366.769689655867,-114.495994800148 356.591608784588,-97.294816238229 347.889639121395,-61.0287667421331 363.500857742402,-53.5 " style="fill: rgb(14,173,105); fill-opacity: 1; stroke: rgb(0,0,0); stroke-width: 3" />
	<polygon points="350.455995563771,-284.325931398814 404.88644061179,-225.269164767116 472.313751313677,-226.728752573635 501.780710068565,-265.718940463657 438.647559048992,-316.007161448633 421.984081440456,-313.482672895742 " style="fill: rgb(14,173,105); fill-opacity: 1; stroke: rgb(0,0,0); stroke-width: 3" />
	<polygon points="404.88644061179,-225.269164767116 335.552825283434,-146.021885653378 377.375876971853,-131.216252846766 392.474748515129,-136.081941048384 444.278864702556,-170.526041461024 " style="fill: rgb(14,173,105); fill-opacity: 1; stroke: rgb(0,0,0); stroke-width: 3" />
	<circle cx="231.726935863365" cy="-146.021885653378" r="2" style="fill: rgb(0,0,0)" />
	<circle cx="335.552825283434" cy="-146.021885653378" r="2" style="fill: rgb(0,0,0)" />
	<circle cx="404.88644061179" cy="-225.269164767116" r="2" style="fill: rgb(0,0,0)" />
	<circle cx="350.455995563771" cy="-284.325931398814" r="2" style="fill: rgb(0,0,0)" />
	<circle cx="245.214034133727" cy="-238.306590034515" r="2" style="fill: rgb(0,0,0)" />
	<circle cx="264.959084039523" cy="-95.4653733187146" r="2" style="fill: rgb(0,0,0)" />
	<circle cx="356.591608784588" cy="-97.294816238229" r="2" style="fill: rgb(0,0,0)" />
	<circle cx="366.769689655867" cy="-114.495994800148" r="2" style="fill: rgb(0,0,0)" />
	<circle cx="314.608152662062" cy="-352.746065885647" r="2" style="fill: rgb(0,0,0)" />
	<circle cx="250.393092635198" cy="-345.088296585207" r="2" style="fill: rgb(0,0,0)" />
	<circle cx="138.644584219184" cy="-246.79822390273" r="2" style="fill: rgb(0,0,0)" />
	<circle cx="105.994349944769" cy="-239.735441796084" r="2" style="fill: rgb(0,0,0)" />
	<circle cx="138.927910266445" cy="-169.013303513059" r="2" style="fill: rgb(0,0,0)" />
	<circle cx="147.940346860518" cy="-155.794601366611" r="2" style="fill: rgb(0,0,0)" />
	<circle cx="171.417615548433" cy="-150.830471204076" r="2" style="fill: rgb(0,0,0)" />
	<circle cx="472.313751313677" cy="-226.728752573635" r="2" style="fill: rgb(0,0,0)" />
	<circle cx="501.780710068565" cy="-265.718940463657" r="2" style="fill: rgb(0,0,0)" />
	<circle cx="438.647559048992" cy="-316.007161448633" r="2" style="fill: rgb(0,0,0)" />
	<circle cx="421.984081440456" cy="-313.482672895742" r="2" style="fill: rgb(0,0,0)" />
	<circle cx="377.375876971853" cy="-131.216252846766" r="2" style="fill: rgb(0,0,0)" />
	<circle cx="392.474748515129" cy="-136.081941048384" r="2" style="fill: rgb(0,0,0)" />
	<circle cx="444.278864702556" cy="-170.526041461024" r="2" style="fill: rgb(0,0,0)" />
	<circle cx="278.593134955478" cy="-75.7185409414383" r="2" style="fill: rgb(0,0,0)" />
	<circle cx="346.687804835173" cy="-61.3383802440461" r="2" style="fill: rgb(0,0,0)" />
	<circle cx="347.889639121395" cy="-61.0287667421331" r="2" style="fill: rgb(0,0,0)" />
	<circle cx="363.500857742402" cy="-53.5" r="2" style="fill: rgb(0,0,0)" />
	<circle cx="381.496979476597" cy="-108.600422046659" r="2" style="fill: rgb(0,0,0)" />
	<circle cx="308.26997588496" cy="-368.362468915988" r="2" style="fill: rgb(0,0,0)" />
	<circle cx="249.691511788572" cy="-382.924328486028" r="2" style="fill: rgb(0,0,0)" />
	<circle cx="245.832930943174" cy="-378.180978776327" r="2" style="fill: rgb(0,0,0)" />
	<circle cx="100.019752357141" cy="-241.036286242938" r="2" style="fill: rgb(0,0,0)" />
	<circle cx="61.541273647661" cy="-216.77029247302" r="2" style="fill: rgb(0,0,0)" />
	<circle cx="58.8134072212587" cy="-212.037574843469" r="2" style="fill: rgb(0,0,0)" />
	<circle cx="33.5" cy="-197.913707456208" r="2" style="fill: rgb(0,0,0)" />
	<circle cx="63.6507286491406" cy="-167.107306455648" r="2" style="fill: rgb(0,0,0)" />
	<circle cx="78.3778265955145" cy="-157.969196061904" r="2" style="fill: rgb(0,0,0)" />
	<circle cx="522.299991462172" cy="-295.232012868754" r="2" style="fill: rgb(0,0,0)" />
	<circle cx="510.520565652792" cy="-321.717807980918" r="2" style="fill: rgb(0,0,0)" />
	<circle cx="482.462362780218" cy="-357.525195891783" r="2" style="fill: rgb(0,0,0)" />
	<circle cx="522.785413615953" cy="-190.360169818148" r="2" style="fill: rgb(0,0,0)" />
	<circle cx="561.5" cy="-233.500611497666" r="2" style="fill: rgb(0,0,0)" />
	<circle cx="537.543511724658" cy="-269.336172748958" r="2" style="fill: rgb(0,0,0)" />
	<!--
	Generated using the Perl SVG Module V2.87
	by Ronan Oger

	-->
</svg>