<?xml version="1.0" encoding="UTF-8" standalone="yes"?>
<!DOCTYPE svg PUBLIC "-//W3C//DTD SVG 1.0//EN" "http://www.w3.org/TR/2001/REC-SVG-20010904/DTD/svg10.dtd">
<!-- generated using polymake; Michael Joswig, Georg Loho, Benjamin Lorenz, Rico Raber; license CC BY-NC-ND 3.0; see polymake.org and matchthenet.de -->
<svg height="841pt" id="document" viewBox="0 -579.325911434813 572 579.325911434813" width="595pt" xmlns="http://www.w3.org/2000/svg" xmlns:svg="http://www.w3.org/2000/svg" xmlns:xlink="http://www.w3.org/1999/xlink">
	<title id="document_title">planar_net_</title>
	<polygon points="386.071067482625,-222.193351203239 387.08811776144,-222.193351203239 480.114130319104,-356.175511519448 320.07073908747,-321.505821739448 305.596572150244,-242.891302355904 " style="fill: rgb(29,97,21); fill-opacity: 1; stroke: rgb(0,0,0); stroke-width: 3" />
	<polygon points="507.867544292787,-196.287924868553 492.772557448395,-171.7799709031 538.405910274159,-122.750721433719 561.5,-144.406943225571 552.757574731058,-163.562299620962 " style="fill: rgb(29,97,21); fill-opacity: 1; stroke: rgb(0,0,0); stroke-width: 3" />
	<polygon points="174.371598694626,-309.588638123527 230.227052175523,-339.462785386683 253.810509450668,-477.20553844466 177.799377671835,-393.534293107828 " style="fill: rgb(29,97,21); fill-opacity: 1; stroke: rgb(0,0,0); stroke-width: 3" />
	<polygon points="380.481344028306,-125.350283550113 387.08811776144,-222.193351203239 386.071067482625,-222.193351203239 283.615060238083,-111.888974126987 " style="fill: rgb(29,97,21); fill-opacity: 1; stroke: rgb(0,0,0); stroke-width: 3" />
	<polygon points="305.596572150244,-242.891302355904 320.07073908747,-321.505821739448 269.61801833077,-338.248405972725 230.227052175523,-339.462785386683 174.371598694626,-309.588638123527 159.218399544322,-222.343874081045 " style="fill: rgb(117,8,12); fill-opacity: 1; stroke: rgb(0,0,0); stroke-width: 3" />
	<polygon points="320.07073908747,-321.505821739448 480.114130319104,-356.175511519448 488.580803083393,-388.725519290792 427.775186310863,-415.793120253585 286.10862512965,-362.400393189426 " style="fill: rgb(29,97,21); fill-opacity: 1; stroke: rgb(0,0,0); stroke-width: 3" />
	<polygon points="33.5,-346.772807582915 52.4112910598394,-337.514257552371 64.4981959178036,-346.994696939725 42.7649969552969,-389.71172319535 " style="fill: rgb(29,97,21); fill-opacity: 1; stroke: rgb(0,0,0); stroke-width: 3" />
	<polygon points="407.385157662349,-89.5406978563507 380.481344028306,-125.350283550113 283.615060238083,-111.888974126987 238.520714989534,-95.997441281005 350.928640840297,-53.5 " style="fill: rgb(29,97,21); fill-opacity: 1; stroke: rgb(0,0,0); stroke-width: 3" />
	<polygon points="480.114130319104,-356.175511519448 387.08811776144,-222.193351203239 453.086927347197,-151.014798640748 492.772557448395,-171.7799709031 507.867544292787,-196.287924868553 513.746420542525,-355.937587289017 " style="fill: rgb(117,8,12); fill-opacity: 1; stroke: rgb(0,0,0); stroke-width: 3" />
	<polygon points="386.071067482625,-222.193351203239 305.596572150244,-242.891302355904 200.807228541938,-138.641795449155 218.461491974722,-129.694679441105 266.255039072896,-131.04288022918 " style="fill: rgb(29,97,21); fill-opacity: 1; stroke: rgb(0,0,0); stroke-width: 3" />
	<polygon points="269.61801833077,-338.248405972725 341.998741314676,-471.219187727907 306.338349741373,-459.880940091587 304.077812236737,-458.102200065868 230.227052175523,-339.462785386683 " style="fill: rgb(29,97,21); fill-opacity: 1; stroke: rgb(0,0,0); stroke-width: 3" />
	<polygon points="254.921932977877,-479.858590202942 197.761843187088,-458.251203697053 160.611140366485,-427.970821447135 177.799377671835,-393.534293107828 253.810509450668,-477.20553844466 " style="fill: rgb(29,97,21); fill-opacity: 1; stroke: rgb(0,0,0); stroke-width: 3" />
	<polygon points="488.580803083393,-388.725519290792 446.442399720312,-542.825911434813 390.947197443346,-540.303233327877 383.807895318886,-496.960171510212 397.176765604838,-437.332758990597 427.775186310863,-415.793120253585 " style="fill: rgb(117,8,12); fill-opacity: 1; stroke: rgb(0,0,0); stroke-width: 3" />
	<polygon points="159.218399544322,-222.343874081045 174.371598694626,-309.588638123527 102.499148974741,-353.09695492301 64.4981959178036,-346.994696939725 52.4112910598394,-337.514257552371 52.8002829674991,-305.857068671188 139.42763846058,-222.566759572329 " style="fill: rgb(59,142,23); fill-opacity: 1; stroke: rgb(0,0,0); stroke-width: 3" />
	<circle cx="386.071067482625" cy="-222.193351203239" r="2" style="fill: rgb(0,0,0)" />
	<circle cx="387.08811776144" cy="-222.193351203239" r="2" style="fill: rgb(0,0,0)" />
	<circle cx="480.114130319104" cy="-356.175511519448" r="2" style="fill: rgb(0,0,0)" />
	<circle cx="320.07073908747" cy="-321.505821739448" r="2" style="fill: rgb(0,0,0)" />
	<circle cx="305.596572150244" cy="-242.891302355904" r="2" style="fill: rgb(0,0,0)" />
	<circle cx="283.615060238083" cy="-111.888974126987" r="2" style="fill: rgb(0,0,0)" />
	<circle cx="380.481344028306" cy="-125.350283550113" r="2" style="fill: rgb(0,0,0)" />
	<circle cx="269.61801833077" cy="-338.248405972725" r="2" style="fill: rgb(0,0,0)" />
	<circle cx="230.227052175523" cy="-339.462785386683" r="2" style="fill: rgb(0,0,0)" />
	<circle cx="174.371598694626" cy="-309.588638123527" r="2" style="fill: rgb(0,0,0)" />
	<circle cx="159.218399544322" cy="-222.343874081045" r="2" style="fill: rgb(0,0,0)" />
	<circle cx="488.580803083393" cy="-388.725519290792" r="2" style="fill: rgb(0,0,0)" />
	<circle cx="427.775186310863" cy="-415.793120253585" r="2" style="fill: rgb(0,0,0)" />
	<circle cx="286.10862512965" cy="-362.400393189426" r="2" style="fill: rgb(0,0,0)" />
	<circle cx="453.086927347197" cy="-151.014798640748" r="2" style="fill: rgb(0,0,0)" />
	<circle cx="492.772557448395" cy="-171.7799709031" r="2" style="fill: rgb(0,0,0)" />
	<circle cx="507.867544292787" cy="-196.287924868553" r="2" style="fill: rgb(0,0,0)" />
	<circle cx="513.746420542525" cy="-355.937587289017" r="2" style="fill: rgb(0,0,0)" />
	<circle cx="200.807228541938" cy="-138.641795449155" r="2" style="fill: rgb(0,0,0)" />
	<circle cx="218.461491974722" cy="-129.694679441105" r="2" style="fill: rgb(0,0,0)" />
	<circle cx="266.255039072896" cy="-131.04288022918" r="2" style="fill: rgb(0,0,0)" />
	<circle cx="238.520714989534" cy="-95.997441281005" r="2" style="fill: rgb(0,0,0)" />
	<circle cx="350.928640840297" cy="-53.5" r="2" style="fill: rgb(0,0,0)" />
	<circle cx="407.385157662349" cy="-89.5406978563507" r="2" style="fill: rgb(0,0,0)" />
	<circle cx="253.810509450668" cy="-477.20553844466" r="2" style="fill: rgb(0,0,0)" />
	<circle cx="177.799377671835" cy="-393.534293107828" r="2" style="fill: rgb(0,0,0)" />
	<circle cx="341.998741314676" cy="-471.219187727907" r="2" style="fill: rgb(0,0,0)" />
	<circle cx="306.338349741373" cy="-459.880940091587" r="2" style="fill: rgb(0,0,0)" />
	<circle cx="304.077812236737" cy="-458.102200065868" r="2" style="fill: rgb(0,0,0)" />
	<circle cx="102.499148974741" cy="-353.09695492301" r="2" style="fill: rgb(0,0,0)" />
	<circle cx="64.4981959178036" cy="-346.994696939725" r="2" style="fill: rgb(0,0,0)" />
	<circle cx="52.4112910598394" cy="-337.514257552371" r="2" style="fill: rgb(0,0,0)" />
	<circle cx="52.8002829674991" cy="-305.857068671188" r="2" style="fill: rgb(0,0,0)" />
	<circle cx="139.42763846058" cy="-222.566759572329" r="2" style="fill: rgb(0,0,0)" />
	<circle cx="446.442399720312" cy="-542.825911434813" r="2" style="fill: rgb(0,0,0)" />
	<circle cx="390.947197443346" cy="-540.303233327877" r="2" style="fill: rgb(0,0,0)" />
	<circle cx="383.807895318886" cy="-496.960171510212" r="2" style="fill: rgb(0,0,0)" />
	<circle cx="397.176765604838" cy="-437.332758990597" r="2" style="fill: rgb(0,0,0)" />
	<circle cx="538.405910274159" cy="-122.750721433719" r="2" style="fill: rgb(0,0,0)" />
	<circle cx="561.5" cy="-144.406943225571" r="2" style="fill: rgb(0,0,0)" />
	<circle cx="552.757574731058" cy="-163.562299620962" r="2" style="fill: rgb(0,0,0)" />
	<circle cx="254.921932977877" cy="-479.858590202942" r="2" style="fill: rgb(0,0,0)" />
	<circle cx="197.761843187088" cy="-458.251203697053" r="2" style="fill: rgb(0,0,0)" />
	<circle cx="160.611140366485" cy="-427.970821447135" r="2" style="fill: rgb(0,0,0)" />
	<circle cx="42.7649969552969" cy="-389.71172319535" r="2" style="fill: rgb(0,0,0)" />
	<circle cx="33.5" cy="-346.772807582915" r="2" style="fill: rgb(0,0,0)" />
	<!--
	Generated using the Perl SVG Module V2.86
	by Ronan Oger
	Info: http://www.roitsystems.com/
	-->
</svg>