<?xml version="1.0" encoding="UTF-8" standalone="yes"?>
<!DOCTYPE svg PUBLIC "-//W3C//DTD SVG 1.0//EN" "http://www.w3.org/TR/2001/REC-SVG-20010904/DTD/svg10.dtd">
<!-- generated using polymake; Michael Joswig, Georg Loho, Benjamin Lorenz, Rico Raber; license CC BY-NC-ND 3.0; see polymake.org and matchthenet.de -->
<svg height="841pt" id="document" viewBox="0 -607.760329431333 572 607.760329431333" width="595pt" xmlns="http://www.w3.org/2000/svg" xmlns:svg="http://www.w3.org/2000/svg" xmlns:xlink="http://www.w3.org/1999/xlink">
	<title id="document_title">planar_net_</title>
	<polygon points="228.028777257885,-395.96213342346 315.561618855658,-395.96213342346 269.078954664213,-447.912040014394 240.335798343488,-441.738362312046 " style="fill: rgb(226,200,51); fill-opacity: 1; stroke: rgb(0,0,0); stroke-width: 3" />
	<polygon points="198.396652293393,-508.60230291406 242.052474834763,-517.186797358466 266.671313245543,-562.411145965793 243.498689636867,-571.260329431333 146.98392147189,-555.189076313639 " style="fill: rgb(226,200,51); fill-opacity: 1; stroke: rgb(0,0,0); stroke-width: 3" />
	<polygon points="128.506141464067,-190.525015294007 169.176467568137,-126.66242720006 334.359197279768,-53.5 416.204456006387,-241.577943598181 " style="fill: rgb(226,200,51); fill-opacity: 1; stroke: rgb(0,0,0); stroke-width: 3" />
	<polygon points="344.612576667269,-374.45879049436 315.561618855658,-395.96213342346 228.028777257885,-395.96213342346 128.506141464067,-190.525015294007 416.204456006387,-241.577943598181 423.746960599171,-248.102748683193 388.230460365071,-327.975377859528 382.044412396204,-337.348586658349 " style="fill: rgb(226,200,51); fill-opacity: 1; stroke: rgb(0,0,0); stroke-width: 3" />
	<polygon points="358.322305679684,-483.822201585596 353.692279879834,-381.783551906029 382.044412396204,-337.348586658349 371.674863528983,-481.339848863527 367.154738681872,-486.03656850738 " style="fill: rgb(226,200,51); fill-opacity: 1; stroke: rgb(0,0,0); stroke-width: 3" />
	<polygon points="269.078954664213,-447.912040014394 315.561618855658,-395.96213342346 348.343159088369,-380.739698438547 300.067565953924,-470.755198630769 " style="fill: rgb(226,200,51); fill-opacity: 1; stroke: rgb(0,0,0); stroke-width: 3" />
	<polygon points="382.044412396204,-337.348586658349 388.230460365071,-327.975377859528 390.823898443282,-470.567369487541 371.674863528983,-481.339848863527 " style="fill: rgb(226,200,51); fill-opacity: 1; stroke: rgb(0,0,0); stroke-width: 3" />
	<polygon points="388.230460365071,-327.975377859528 423.746960599171,-248.102748683193 453.120397261315,-453.141554844417 422.521434360903,-466.407061732567 " style="fill: rgb(226,200,51); fill-opacity: 1; stroke: rgb(0,0,0); stroke-width: 3" />
	<polygon points="242.052474834763,-517.186797358466 287.068092435817,-491.682617265359 291.575676644245,-496.391373858181 298.786088249975,-517.145694240478 296.275383232752,-550.401769834212 280.536092176528,-551.397031323533 " style="fill: rgb(226,200,51); fill-opacity: 1; stroke: rgb(0,0,0); stroke-width: 3" />
	<polygon points="82.2772765960194,-309.406292241967 115.185528306366,-422.576184072369 45.9468553186461,-491.709329622215 33.5,-483.357010080858 " style="fill: rgb(226,200,51); fill-opacity: 1; stroke: rgb(0,0,0); stroke-width: 3" />
	<polygon points="240.335798343488,-441.738362312046 269.078954664213,-447.912040014394 285.564551191975,-482.701823462441 287.068092435817,-491.682617265359 242.052474834763,-517.186797358466 198.396652293393,-508.60230291406 " style="fill: rgb(226,200,51); fill-opacity: 1; stroke: rgb(0,0,0); stroke-width: 3" />
	<polygon points="423.746960599171,-248.102748683193 416.204456006387,-241.577943598181 530.331983674574,-71.146530201169 542.219464451543,-62.0156348550635 561.5,-77.6213864191832 561.472494582287,-93.3920893786803 " style="fill: rgb(226,200,51); fill-opacity: 1; stroke: rgb(0,0,0); stroke-width: 3" />
	<polygon points="228.028777257885,-395.96213342346 240.335798343488,-441.738362312046 166.404460479355,-469.375941906864 115.185528306366,-422.576184072369 82.2772765960194,-309.406292241967 65.6204999917749,-235.547932006829 " style="fill: rgb(226,200,51); fill-opacity: 1; stroke: rgb(0,0,0); stroke-width: 3" />
	<circle cx="228.028777257885" cy="-395.96213342346" r="2" style="fill: rgb(0,0,0)" />
	<circle cx="315.561618855658" cy="-395.96213342346" r="2" style="fill: rgb(0,0,0)" />
	<circle cx="269.078954664213" cy="-447.912040014394" r="2" style="fill: rgb(0,0,0)" />
	<circle cx="240.335798343488" cy="-441.738362312046" r="2" style="fill: rgb(0,0,0)" />
	<circle cx="128.506141464067" cy="-190.525015294007" r="2" style="fill: rgb(0,0,0)" />
	<circle cx="416.204456006387" cy="-241.577943598181" r="2" style="fill: rgb(0,0,0)" />
	<circle cx="423.746960599171" cy="-248.102748683193" r="2" style="fill: rgb(0,0,0)" />
	<circle cx="388.230460365071" cy="-327.975377859528" r="2" style="fill: rgb(0,0,0)" />
	<circle cx="382.044412396204" cy="-337.348586658349" r="2" style="fill: rgb(0,0,0)" />
	<circle cx="344.612576667269" cy="-374.45879049436" r="2" style="fill: rgb(0,0,0)" />
	<circle cx="348.343159088369" cy="-380.739698438547" r="2" style="fill: rgb(0,0,0)" />
	<circle cx="300.067565953924" cy="-470.755198630769" r="2" style="fill: rgb(0,0,0)" />
	<circle cx="285.564551191975" cy="-482.701823462441" r="2" style="fill: rgb(0,0,0)" />
	<circle cx="287.068092435817" cy="-491.682617265359" r="2" style="fill: rgb(0,0,0)" />
	<circle cx="242.052474834763" cy="-517.186797358466" r="2" style="fill: rgb(0,0,0)" />
	<circle cx="198.396652293393" cy="-508.60230291406" r="2" style="fill: rgb(0,0,0)" />
	<circle cx="166.404460479355" cy="-469.375941906864" r="2" style="fill: rgb(0,0,0)" />
	<circle cx="115.185528306366" cy="-422.576184072369" r="2" style="fill: rgb(0,0,0)" />
	<circle cx="82.2772765960194" cy="-309.406292241967" r="2" style="fill: rgb(0,0,0)" />
	<circle cx="65.6204999917749" cy="-235.547932006829" r="2" style="fill: rgb(0,0,0)" />
	<circle cx="169.176467568137" cy="-126.66242720006" r="2" style="fill: rgb(0,0,0)" />
	<circle cx="334.359197279768" cy="-53.5" r="2" style="fill: rgb(0,0,0)" />
	<circle cx="390.823898443282" cy="-470.567369487541" r="2" style="fill: rgb(0,0,0)" />
	<circle cx="371.674863528983" cy="-481.339848863527" r="2" style="fill: rgb(0,0,0)" />
	<circle cx="453.120397261315" cy="-453.141554844417" r="2" style="fill: rgb(0,0,0)" />
	<circle cx="422.521434360903" cy="-466.407061732567" r="2" style="fill: rgb(0,0,0)" />
	<circle cx="530.331983674574" cy="-71.146530201169" r="2" style="fill: rgb(0,0,0)" />
	<circle cx="542.219464451543" cy="-62.0156348550635" r="2" style="fill: rgb(0,0,0)" />
	<circle cx="561.5" cy="-77.6213864191832" r="2" style="fill: rgb(0,0,0)" />
	<circle cx="561.472494582287" cy="-93.3920893786803" r="2" style="fill: rgb(0,0,0)" />
	<circle cx="266.671313245543" cy="-562.411145965793" r="2" style="fill: rgb(0,0,0)" />
	<circle cx="243.498689636867" cy="-571.260329431333" r="2" style="fill: rgb(0,0,0)" />
	<circle cx="146.98392147189" cy="-555.189076313639" r="2" style="fill: rgb(0,0,0)" />
	<circle cx="291.575676644245" cy="-496.391373858181" r="2" style="fill: rgb(0,0,0)" />
	<circle cx="298.786088249975" cy="-517.145694240478" r="2" style="fill: rgb(0,0,0)" />
	<circle cx="296.275383232752" cy="-550.401769834212" r="2" style="fill: rgb(0,0,0)" />
	<circle cx="280.536092176528" cy="-551.397031323533" r="2" style="fill: rgb(0,0,0)" />
	<circle cx="45.9468553186461" cy="-491.709329622215" r="2" style="fill: rgb(0,0,0)" />
	<circle cx="33.5" cy="-483.357010080858" r="2" style="fill: rgb(0,0,0)" />
	<circle cx="367.154738681872" cy="-486.03656850738" r="2" style="fill: rgb(0,0,0)" />
	<circle cx="358.322305679684" cy="-483.822201585596" r="2" style="fill: rgb(0,0,0)" />
	<circle cx="353.692279879834" cy="-381.783551906029" r="2" style="fill: rgb(0,0,0)" />
	<!--
	Generated using the Perl SVG Module V2.86
	by Ronan Oger
	Info: http://www.roitsystems.com/
	-->
</svg>