<?xml version="1.0" encoding="UTF-8" standalone="yes"?>
<!DOCTYPE svg PUBLIC "-//W3C//DTD SVG 1.0//EN" "http://www.w3.org/TR/2001/REC-SVG-20010904/DTD/svg10.dtd">
<!-- generated using polymake; Michael Joswig, Georg Loho, Benjamin Lorenz, Rico Raber; license CC BY-NC-ND 3.0; see polymake.org and matchthenet.de -->
<svg height="841pt" id="document" viewBox="0 -638.502475018815 572 638.502475018815" width="595pt" xmlns="http://www.w3.org/2000/svg" xmlns:svg="http://www.w3.org/2000/svg" xmlns:xlink="http://www.w3.org/1999/xlink">
	<title id="document_title">planar_net_</title>
	<polygon points="203.388891941798,-309.600664435889 328.976999027171,-309.600664435889 344.304168007503,-343.379417680868 308.984458490784,-365.271320268979 285.404797731668,-374.90386766381 213.086761881086,-350.780853546386 " style="fill: rgb(14,173,105); fill-opacity: 1; stroke: rgb(0,0,0); stroke-width: 3" />
	<polygon points="219.355726226955,-533.048477929594 176.055256688736,-565.473694796349 156.333415070005,-555.457680526306 123.659216678928,-511.278340715996 186.650840662398,-465.058355061909 " style="fill: rgb(14,173,105); fill-opacity: 1; stroke: rgb(0,0,0); stroke-width: 3" />
	<polygon points="455.861482797469,-331.445672564677 379.80089621182,-177.597542237156 453.091993569106,-173.911756315743 465.105561621679,-183.927519213804 490.692648505022,-312.450180491575 490.273454288263,-328.431223926762 " style="fill: rgb(14,173,105); fill-opacity: 1; stroke: rgb(0,0,0); stroke-width: 3" />
	<polygon points="295.5920095436,-228.061503431252 328.976999027171,-309.600664435889 203.388891941798,-309.600664435889 193.886018009187,-282.979773899007 " style="fill: rgb(14,173,105); fill-opacity: 1; stroke: rgb(0,0,0); stroke-width: 3" />
	<polygon points="379.80089621182,-177.597542237156 366.900951692625,-178.035494488702 349.421394095585,-87.7875733680605 388.328519468652,-53.5 411.089423082729,-69.8456493755304 438.460135532106,-133.503737546949 " style="fill: rgb(14,173,105); fill-opacity: 1; stroke: rgb(0,0,0); stroke-width: 3" />
	<polygon points="379.324738892012,-488.048824891074 407.207518218752,-470.302034715895 413.820978399741,-484.856471067163 413.937312446508,-593.928726143329 388.121287867701,-602.002475018815 349.796253623205,-563.825032709983 " style="fill: rgb(14,173,105); fill-opacity: 1; stroke: rgb(0,0,0); stroke-width: 3" />
	<polygon points="213.086761881086,-350.780853546386 285.404797731668,-374.90386766381 242.569928914074,-446.899152521827 191.164340861118,-451.439256468405 188.165001456891,-414.577899618394 " style="fill: rgb(14,173,105); fill-opacity: 1; stroke: rgb(0,0,0); stroke-width: 3" />
	<polygon points="285.404797731668,-374.90386766381 308.984458490784,-365.271320268979 308.357236043208,-467.435291308816 268.384338829539,-456.931003461471 " style="fill: rgb(14,173,105); fill-opacity: 1; stroke: rgb(0,0,0); stroke-width: 3" />
	<polygon points="277.227465203474,-160.938296723235 295.5920095436,-228.061503431252 193.886018009187,-282.979773899007 182.793483483986,-271.084094912051 194.90628565884,-201.846066141332 " style="fill: rgb(14,173,105); fill-opacity: 1; stroke: rgb(0,0,0); stroke-width: 3" />
	<polygon points="490.692648505022,-312.450180491575 465.105561621679,-183.927519213804 531.148446902599,-211.158035006206 " style="fill: rgb(14,173,105); fill-opacity: 1; stroke: rgb(0,0,0); stroke-width: 3" />
	<polygon points="173.272850666013,-286.058881929555 127.257431075899,-319.973821192572 92.9082225629957,-324.255069483955 76.3517438856838,-286.004670981182 113.219026797578,-249.532687994781 " style="fill: rgb(14,173,105); fill-opacity: 1; stroke: rgb(0,0,0); stroke-width: 3" />
	<polygon points="270.504769790208,-477.359245103103 300.681340148842,-533.379588053492 219.355726226955,-533.048477929594 186.650840662398,-465.058355061909 191.164340861118,-451.439256468405 242.569928914074,-446.899152521827 " style="fill: rgb(14,173,105); fill-opacity: 1; stroke: rgb(0,0,0); stroke-width: 3" />
	<polygon points="453.091993569106,-173.911756315743 500.828084032802,-123.684535042135 559.344679455697,-160.808232876716 561.5,-182.822459459616 536.077476117133,-192.060848138545 465.105561621679,-183.927519213804 " style="fill: rgb(14,173,105); fill-opacity: 1; stroke: rgb(0,0,0); stroke-width: 3" />
	<polygon points="33.5,-425.477185684017 51.7454335052399,-404.208825544044 93.3514838936582,-401.729603309016 106.402420959425,-435.224866186892 75.4565544540434,-480.631590940011 " style="fill: rgb(14,173,105); fill-opacity: 1; stroke: rgb(0,0,0); stroke-width: 3" />
	<polygon points="344.304168007503,-343.379417680868 328.976999027171,-309.600664435889 313.649025825528,-222.835201619813 366.900951692625,-178.035494488702 379.80089621182,-177.597542237156 455.861482797469,-331.445672564677 " style="fill: rgb(14,173,105); fill-opacity: 1; stroke: rgb(0,0,0); stroke-width: 3" />
	<polygon points="203.388891941798,-309.600664435889 213.086761881086,-350.780853546386 163.362194738829,-397.883132182013 127.257431075899,-319.973821192572 173.272850666013,-286.058881929555 189.502126547599,-284.980872136969 " style="fill: rgb(14,173,105); fill-opacity: 1; stroke: rgb(0,0,0); stroke-width: 3" />
	<polygon points="308.984458490784,-365.271320268979 344.304168007503,-343.379417680868 407.96010884328,-435.766483615224 407.207518218752,-470.302034715895 379.324738892012,-488.048824891074 319.306038413059,-466.914496992925 " style="fill: rgb(14,173,105); fill-opacity: 1; stroke: rgb(0,0,0); stroke-width: 3" />
	<polygon points="188.165001456891,-414.577899618394 191.164340861118,-451.439256468405 180.245799297322,-460.747155300217 106.402420959425,-435.224866186892 93.3514838936582,-401.729603309016 112.931859947341,-373.184794919538 " style="fill: rgb(14,173,105); fill-opacity: 1; stroke: rgb(0,0,0); stroke-width: 3" />
	<circle cx="203.388891941798" cy="-309.600664435889" r="2" style="fill: rgb(0,0,0)" />
	<circle cx="328.976999027171" cy="-309.600664435889" r="2" style="fill: rgb(0,0,0)" />
	<circle cx="344.304168007503" cy="-343.379417680868" r="2" style="fill: rgb(0,0,0)" />
	<circle cx="308.984458490784" cy="-365.271320268979" r="2" style="fill: rgb(0,0,0)" />
	<circle cx="285.404797731668" cy="-374.90386766381" r="2" style="fill: rgb(0,0,0)" />
	<circle cx="213.086761881086" cy="-350.780853546386" r="2" style="fill: rgb(0,0,0)" />
	<circle cx="193.886018009187" cy="-282.979773899007" r="2" style="fill: rgb(0,0,0)" />
	<circle cx="295.5920095436" cy="-228.061503431252" r="2" style="fill: rgb(0,0,0)" />
	<circle cx="242.569928914074" cy="-446.899152521827" r="2" style="fill: rgb(0,0,0)" />
	<circle cx="191.164340861118" cy="-451.439256468405" r="2" style="fill: rgb(0,0,0)" />
	<circle cx="188.165001456891" cy="-414.577899618394" r="2" style="fill: rgb(0,0,0)" />
	<circle cx="308.357236043208" cy="-467.435291308816" r="2" style="fill: rgb(0,0,0)" />
	<circle cx="268.384338829539" cy="-456.931003461471" r="2" style="fill: rgb(0,0,0)" />
	<circle cx="313.649025825528" cy="-222.835201619813" r="2" style="fill: rgb(0,0,0)" />
	<circle cx="366.900951692625" cy="-178.035494488702" r="2" style="fill: rgb(0,0,0)" />
	<circle cx="379.80089621182" cy="-177.597542237156" r="2" style="fill: rgb(0,0,0)" />
	<circle cx="455.861482797469" cy="-331.445672564677" r="2" style="fill: rgb(0,0,0)" />
	<circle cx="163.362194738829" cy="-397.883132182013" r="2" style="fill: rgb(0,0,0)" />
	<circle cx="127.257431075899" cy="-319.973821192572" r="2" style="fill: rgb(0,0,0)" />
	<circle cx="173.272850666013" cy="-286.058881929555" r="2" style="fill: rgb(0,0,0)" />
	<circle cx="189.502126547599" cy="-284.980872136969" r="2" style="fill: rgb(0,0,0)" />
	<circle cx="407.96010884328" cy="-435.766483615224" r="2" style="fill: rgb(0,0,0)" />
	<circle cx="407.207518218752" cy="-470.302034715895" r="2" style="fill: rgb(0,0,0)" />
	<circle cx="379.324738892012" cy="-488.048824891074" r="2" style="fill: rgb(0,0,0)" />
	<circle cx="319.306038413059" cy="-466.914496992925" r="2" style="fill: rgb(0,0,0)" />
	<circle cx="182.793483483986" cy="-271.084094912051" r="2" style="fill: rgb(0,0,0)" />
	<circle cx="194.90628565884" cy="-201.846066141332" r="2" style="fill: rgb(0,0,0)" />
	<circle cx="277.227465203474" cy="-160.938296723235" r="2" style="fill: rgb(0,0,0)" />
	<circle cx="270.504769790208" cy="-477.359245103103" r="2" style="fill: rgb(0,0,0)" />
	<circle cx="300.681340148842" cy="-533.379588053492" r="2" style="fill: rgb(0,0,0)" />
	<circle cx="219.355726226955" cy="-533.048477929594" r="2" style="fill: rgb(0,0,0)" />
	<circle cx="186.650840662398" cy="-465.058355061909" r="2" style="fill: rgb(0,0,0)" />
	<circle cx="180.245799297322" cy="-460.747155300217" r="2" style="fill: rgb(0,0,0)" />
	<circle cx="106.402420959425" cy="-435.224866186892" r="2" style="fill: rgb(0,0,0)" />
	<circle cx="93.3514838936582" cy="-401.729603309016" r="2" style="fill: rgb(0,0,0)" />
	<circle cx="112.931859947341" cy="-373.184794919538" r="2" style="fill: rgb(0,0,0)" />
	<circle cx="453.091993569106" cy="-173.911756315743" r="2" style="fill: rgb(0,0,0)" />
	<circle cx="465.105561621679" cy="-183.927519213804" r="2" style="fill: rgb(0,0,0)" />
	<circle cx="490.692648505022" cy="-312.450180491575" r="2" style="fill: rgb(0,0,0)" />
	<circle cx="490.273454288263" cy="-328.431223926762" r="2" style="fill: rgb(0,0,0)" />
	<circle cx="349.421394095585" cy="-87.7875733680605" r="2" style="fill: rgb(0,0,0)" />
	<circle cx="388.328519468652" cy="-53.5" r="2" style="fill: rgb(0,0,0)" />
	<circle cx="411.089423082729" cy="-69.8456493755304" r="2" style="fill: rgb(0,0,0)" />
	<circle cx="438.460135532106" cy="-133.503737546949" r="2" style="fill: rgb(0,0,0)" />
	<circle cx="92.9082225629957" cy="-324.255069483955" r="2" style="fill: rgb(0,0,0)" />
	<circle cx="76.3517438856838" cy="-286.004670981182" r="2" style="fill: rgb(0,0,0)" />
	<circle cx="113.219026797578" cy="-249.532687994781" r="2" style="fill: rgb(0,0,0)" />
	<circle cx="413.820978399741" cy="-484.856471067163" r="2" style="fill: rgb(0,0,0)" />
	<circle cx="413.937312446508" cy="-593.928726143329" r="2" style="fill: rgb(0,0,0)" />
	<circle cx="388.121287867701" cy="-602.002475018815" r="2" style="fill: rgb(0,0,0)" />
	<circle cx="349.796253623205" cy="-563.825032709983" r="2" style="fill: rgb(0,0,0)" />
	<circle cx="176.055256688736" cy="-565.473694796349" r="2" style="fill: rgb(0,0,0)" />
	<circle cx="156.333415070005" cy="-555.457680526306" r="2" style="fill: rgb(0,0,0)" />
	<circle cx="123.659216678928" cy="-511.278340715996" r="2" style="fill: rgb(0,0,0)" />
	<circle cx="75.4565544540434" cy="-480.631590940011" r="2" style="fill: rgb(0,0,0)" />
	<circle cx="33.5" cy="-425.477185684017" r="2" style="fill: rgb(0,0,0)" />
	<circle cx="51.7454335052399" cy="-404.208825544044" r="2" style="fill: rgb(0,0,0)" />
	<circle cx="531.148446902599" cy="-211.158035006206" r="2" style="fill: rgb(0,0,0)" />
	<circle cx="500.828084032802" cy="-123.684535042135" r="2" style="fill: rgb(0,0,0)" />
	<circle cx="559.344679455697" cy="-160.808232876716" r="2" style="fill: rgb(0,0,0)" />
	<circle cx="561.5" cy="-182.822459459616" r="2" style="fill: rgb(0,0,0)" />
	<circle cx="536.077476117133" cy="-192.060848138545" r="2" style="fill: rgb(0,0,0)" />
	<!--
	Generated using the Perl SVG Module V2.86
	by Ronan Oger
	Info: http://www.roitsystems.com/
	-->
</svg>