<?xml version="1.0" encoding="UTF-8" standalone="yes"?>
<!DOCTYPE svg PUBLIC "-//W3C//DTD SVG 1.0//EN" "http://www.w3.org/TR/2001/REC-SVG-20010904/DTD/svg10.dtd">
<!-- generated using polymake; Michael Joswig, Georg Loho, Benjamin Lorenz, Rico Raber; license CC BY-NC-SA 3.0; see polymake.org and matchthenet.de -->
<svg height="841pt" id="document" viewBox="0 -677.047770836081 572 677.047770836081" width="595pt" xmlns="http://www.w3.org/2000/svg" xmlns:svg="http://www.w3.org/2000/svg" xmlns:xlink="http://www.w3.org/1999/xlink">
	<title id="document_title">planar_net_</title>
	<polygon points="322.340542423846,-330.059683876479 359.026095796336,-330.059683876479 393.324336994107,-373.72167444468 347.194209123243,-465.098302234464 224.800984294053,-463.856877352141 234.967868837514,-438.273684399471 " style="fill: rgb(238,66,102); fill-opacity: 1; stroke: rgb(0,0,0); stroke-width: 3" />
	<polygon points="445.83430291147,-183.49120066648 425.957627672377,-181.412541019069 378.519484588148,-128.168138764095 446.022818839316,-57.8728118459252 531.530650451024,-53.5 561.5,-89.3887531669696 519.538510470407,-156.588251839186 " style="fill: rgb(84,13,110); fill-opacity: 1; stroke: rgb(0,0,0); stroke-width: 3" />
	<polygon points="265.305677015185,-266.924566830314 270.894739028837,-235.17237085173 340.942371177925,-177.629635335809 313.394707597993,-278.627954157228 " style="fill: rgb(67,184,206); fill-opacity: 1; stroke: rgb(0,0,0); stroke-width: 3" />
	<polygon points="362.567243832301,-557.374689726319 410.307712580503,-536.705139108729 390.378299493792,-605.311078315041 359.644929739613,-640.547770836081 342.135540400056,-616.900124822398 " style="fill: rgb(255,210,63); fill-opacity: 1; stroke: rgb(0,0,0); stroke-width: 3" />
	<polygon points="172.227451320244,-441.860322337923 104.079992698877,-416.101606352479 49.880662271631,-365.995567198857 33.5,-341.552494957918 58.2458066648699,-259.586918019292 147.627850068623,-364.202614157921 " style="fill: rgb(238,66,102); fill-opacity: 1; stroke: rgb(0,0,0); stroke-width: 3" />
	<polygon points="425.957627672377,-181.412541019069 359.026095796336,-330.059683876479 322.340542423846,-330.059683876479 313.394707597993,-278.627954157228 340.942371177925,-177.629635335809 378.519484588148,-128.168138764095 " style="fill: rgb(238,66,102); fill-opacity: 1; stroke: rgb(0,0,0); stroke-width: 3" />
	<polygon points="393.324336994107,-373.72167444468 359.026095796336,-330.059683876479 487.66933944475,-229.926178482146 488.922587856218,-249.871915192262 434.505005142572,-367.361107864891 " style="fill: rgb(255,210,63); fill-opacity: 1; stroke: rgb(0,0,0); stroke-width: 3" />
	<polygon points="322.340542423846,-330.059683876479 234.967868837514,-438.273684399471 242.989178664768,-312.989467160244 287.443730788187,-291.233618916058 " style="fill: rgb(67,184,206); fill-opacity: 1; stroke: rgb(0,0,0); stroke-width: 3" />
	<polygon points="434.505005142572,-367.361107864891 488.922587856218,-249.871915192262 506.0879679349,-326.431882500567 496.831291479516,-413.749473759309 " style="fill: rgb(67,184,206); fill-opacity: 1; stroke: rgb(0,0,0); stroke-width: 3" />
	<polygon points="347.194209123243,-465.098302234464 393.324336994107,-373.72167444468 433.54442713756,-384.614267580499 449.289770652517,-460.696661184445 440.566494492023,-481.10248644069 " style="fill: rgb(255,210,63); fill-opacity: 1; stroke: rgb(0,0,0); stroke-width: 3" />
	<polygon points="289.363046476293,-561.840423293521 362.567243832301,-557.374689726319 339.562069583272,-615.953644021285 " style="fill: rgb(14,173,105); fill-opacity: 1; stroke: rgb(0,0,0); stroke-width: 3" />
	<polygon points="234.967868837514,-438.273684399471 224.800984294053,-463.856877352141 172.227451320244,-441.860322337923 147.627850068623,-364.202614157921 186.377362463032,-293.913779495039 210.674094029093,-315.105957270379 " style="fill: rgb(238,66,102); fill-opacity: 1; stroke: rgb(0,0,0); stroke-width: 3" />
	<polygon points="440.566494492023,-481.10248644069 449.289770652517,-460.696661184445 526.620743849786,-419.103772530362 512.397755805833,-497.04122075931 442.439162778028,-482.558415025214 " style="fill: rgb(255,210,63); fill-opacity: 1; stroke: rgb(0,0,0); stroke-width: 3" />
	<polygon points="260.971952500075,-220.321195588831 183.436890659067,-199.576095579896 283.758108387316,-105.39941675164 378.519484588148,-128.168138764095 340.942371177925,-177.629635335809 " style="fill: rgb(255,210,63); fill-opacity: 1; stroke: rgb(0,0,0); stroke-width: 3" />
	<polygon points="224.800984294053,-463.856877352141 347.194209123243,-465.098302234464 411.505798431056,-534.65789587761 410.307712580503,-536.705139108729 362.567243832301,-557.374689726319 289.363046476293,-561.840423293521 229.256830149902,-520.672106292541 " style="fill: rgb(84,13,110); fill-opacity: 1; stroke: rgb(0,0,0); stroke-width: 3" />
	<circle cx="322.340542423846" cy="-330.059683876479" r="2" style="fill: rgb(0,0,0)" />
	<circle cx="359.026095796336" cy="-330.059683876479" r="2" style="fill: rgb(0,0,0)" />
	<circle cx="393.324336994107" cy="-373.72167444468" r="2" style="fill: rgb(0,0,0)" />
	<circle cx="347.194209123243" cy="-465.098302234464" r="2" style="fill: rgb(0,0,0)" />
	<circle cx="224.800984294053" cy="-463.856877352141" r="2" style="fill: rgb(0,0,0)" />
	<circle cx="234.967868837514" cy="-438.273684399471" r="2" style="fill: rgb(0,0,0)" />
	<circle cx="313.394707597993" cy="-278.627954157228" r="2" style="fill: rgb(0,0,0)" />
	<circle cx="340.942371177925" cy="-177.629635335809" r="2" style="fill: rgb(0,0,0)" />
	<circle cx="378.519484588148" cy="-128.168138764095" r="2" style="fill: rgb(0,0,0)" />
	<circle cx="425.957627672377" cy="-181.412541019069" r="2" style="fill: rgb(0,0,0)" />
	<circle cx="487.66933944475" cy="-229.926178482146" r="2" style="fill: rgb(0,0,0)" />
	<circle cx="488.922587856218" cy="-249.871915192262" r="2" style="fill: rgb(0,0,0)" />
	<circle cx="434.505005142572" cy="-367.361107864891" r="2" style="fill: rgb(0,0,0)" />
	<circle cx="242.989178664768" cy="-312.989467160244" r="2" style="fill: rgb(0,0,0)" />
	<circle cx="287.443730788187" cy="-291.233618916058" r="2" style="fill: rgb(0,0,0)" />
	<circle cx="433.54442713756" cy="-384.614267580499" r="2" style="fill: rgb(0,0,0)" />
	<circle cx="449.289770652517" cy="-460.696661184445" r="2" style="fill: rgb(0,0,0)" />
	<circle cx="440.566494492023" cy="-481.10248644069" r="2" style="fill: rgb(0,0,0)" />
	<circle cx="172.227451320244" cy="-441.860322337923" r="2" style="fill: rgb(0,0,0)" />
	<circle cx="147.627850068623" cy="-364.202614157921" r="2" style="fill: rgb(0,0,0)" />
	<circle cx="186.377362463032" cy="-293.913779495039" r="2" style="fill: rgb(0,0,0)" />
	<circle cx="210.674094029093" cy="-315.105957270379" r="2" style="fill: rgb(0,0,0)" />
	<circle cx="411.505798431056" cy="-534.65789587761" r="2" style="fill: rgb(0,0,0)" />
	<circle cx="410.307712580503" cy="-536.705139108729" r="2" style="fill: rgb(0,0,0)" />
	<circle cx="362.567243832301" cy="-557.374689726319" r="2" style="fill: rgb(0,0,0)" />
	<circle cx="289.363046476293" cy="-561.840423293521" r="2" style="fill: rgb(0,0,0)" />
	<circle cx="229.256830149902" cy="-520.672106292541" r="2" style="fill: rgb(0,0,0)" />
	<circle cx="446.022818839316" cy="-57.8728118459252" r="2" style="fill: rgb(0,0,0)" />
	<circle cx="531.530650451024" cy="-53.5" r="2" style="fill: rgb(0,0,0)" />
	<circle cx="561.5" cy="-89.3887531669696" r="2" style="fill: rgb(0,0,0)" />
	<circle cx="519.538510470407" cy="-156.588251839186" r="2" style="fill: rgb(0,0,0)" />
	<circle cx="445.83430291147" cy="-183.49120066648" r="2" style="fill: rgb(0,0,0)" />
	<circle cx="265.305677015185" cy="-266.924566830314" r="2" style="fill: rgb(0,0,0)" />
	<circle cx="270.894739028837" cy="-235.17237085173" r="2" style="fill: rgb(0,0,0)" />
	<circle cx="260.971952500075" cy="-220.321195588831" r="2" style="fill: rgb(0,0,0)" />
	<circle cx="183.436890659067" cy="-199.576095579896" r="2" style="fill: rgb(0,0,0)" />
	<circle cx="283.758108387316" cy="-105.39941675164" r="2" style="fill: rgb(0,0,0)" />
	<circle cx="506.0879679349" cy="-326.431882500567" r="2" style="fill: rgb(0,0,0)" />
	<circle cx="496.831291479516" cy="-413.749473759309" r="2" style="fill: rgb(0,0,0)" />
	<circle cx="526.620743849786" cy="-419.103772530362" r="2" style="fill: rgb(0,0,0)" />
	<circle cx="512.397755805833" cy="-497.04122075931" r="2" style="fill: rgb(0,0,0)" />
	<circle cx="442.439162778028" cy="-482.558415025214" r="2" style="fill: rgb(0,0,0)" />
	<circle cx="104.079992698877" cy="-416.101606352479" r="2" style="fill: rgb(0,0,0)" />
	<circle cx="49.880662271631" cy="-365.995567198857" r="2" style="fill: rgb(0,0,0)" />
	<circle cx="33.5" cy="-341.552494957918" r="2" style="fill: rgb(0,0,0)" />
	<circle cx="58.2458066648699" cy="-259.586918019292" r="2" style="fill: rgb(0,0,0)" />
	<circle cx="390.378299493792" cy="-605.311078315041" r="2" style="fill: rgb(0,0,0)" />
	<circle cx="359.644929739613" cy="-640.547770836081" r="2" style="fill: rgb(0,0,0)" />
	<circle cx="342.135540400056" cy="-616.900124822398" r="2" style="fill: rgb(0,0,0)" />
	<circle cx="339.562069583272" cy="-615.953644021285" r="2" style="fill: rgb(0,0,0)" />
	<!-- 
	Generated using the Perl SVG Module V2.64
	by Ronan Oger
	Info: http://www.roitsystems.com/
 -->
</svg>