<?xml version="1.0" encoding="UTF-8" standalone="yes"?>
<!DOCTYPE svg PUBLIC "-//W3C//DTD SVG 1.0//EN" "http://www.w3.org/TR/2001/REC-SVG-20010904/DTD/svg10.dtd">
<!-- generated using polymake; Michael Joswig, Georg Loho, Benjamin Lorenz, Rico Raber; license CC BY-NC-SA 3.0; see polymake.org and matchthenet.de -->
<svg height="841pt" id="document" viewBox="0 -699.483241874639 572 699.483241874639" width="595pt" xmlns="http://www.w3.org/2000/svg" xmlns:svg="http://www.w3.org/2000/svg" xmlns:xlink="http://www.w3.org/1999/xlink">
	<title id="document_title">planar_net_</title>
	<polygon points="153.598763430227,-393.592159491132 265.107119333913,-393.592159491132 346.627421015222,-414.329154258574 338.882624853122,-452.933107785699 270.564787758771,-485.207831894536 249.069650294754,-481.058271586437 " style="fill: rgb(14,173,105); fill-opacity: 1; stroke: rgb(0,0,0); stroke-width: 3" />
	<polygon points="132.844675868126,-271.059063053127 187.559819710485,-53.5 246.902097708615,-64.2371093853874 342.297804919173,-189.296776247517 " style="fill: rgb(14,173,105); fill-opacity: 1; stroke: rgb(0,0,0); stroke-width: 3" />
	<polygon points="361.03825267413,-369.958387134653 265.107119333913,-393.592159491132 153.598763430227,-393.592159491132 132.844675868126,-271.059063053127 342.297804919173,-189.296776247517 398.690389468404,-269.549602580233 " style="fill: rgb(14,173,105); fill-opacity: 1; stroke: rgb(0,0,0); stroke-width: 3" />
	<polygon points="291.345570979518,-594.973849748221 292.879326153341,-594.660704133427 355.018875903589,-601.730531560562 319.827494526318,-642.643323754051 " style="fill: rgb(14,173,105); fill-opacity: 1; stroke: rgb(0,0,0); stroke-width: 3" />
	<polygon points="249.069650294754,-481.058271586437 270.564787758771,-485.207831894536 302.979729436288,-517.999689740768 319.857580970142,-544.106756926865 292.879326153341,-594.660704133427 291.345570979518,-594.973849748221 288.96069334548,-595.188427489502 " style="fill: rgb(14,173,105); fill-opacity: 1; stroke: rgb(0,0,0); stroke-width: 3" />
	<polygon points="361.393243761949,-404.536029414968 371.995059093097,-378.475673517339 457.632081835237,-313.931829839324 433.676322949571,-460.126070259053 405.086917518484,-457.083770297264 397.806696121788,-454.610166584173 " style="fill: rgb(14,173,105); fill-opacity: 1; stroke: rgb(0,0,0); stroke-width: 3" />
	<polygon points="302.979729436288,-517.999689740768 393.228117478501,-538.447067155207 404.795470909625,-564.768275838711 373.149629819145,-581.911672384739 319.857580970142,-544.106756926865 " style="fill: rgb(14,173,105); fill-opacity: 1; stroke: rgb(0,0,0); stroke-width: 3" />
	<polygon points="270.564787758771,-485.207831894536 338.882624853122,-452.933107785699 396.279817613931,-466.3651949008 402.147971701431,-471.333605765431 314.199770083855,-500.108258145268 " style="fill: rgb(14,173,105); fill-opacity: 1; stroke: rgb(0,0,0); stroke-width: 3" />
	<polygon points="292.879326153341,-594.660704133427 319.857580970142,-544.106756926865 369.059174623718,-587.100445827089 355.414682162959,-595.457793691811 " style="fill: rgb(14,173,105); fill-opacity: 1; stroke: rgb(0,0,0); stroke-width: 3" />
	<polygon points="338.882624853122,-452.933107785699 346.627421015222,-414.329154258574 361.393243761949,-404.536029414968 397.806696121788,-454.610166584173 " style="fill: rgb(14,173,105); fill-opacity: 1; stroke: rgb(0,0,0); stroke-width: 3" />
	<polygon points="288.96069334548,-595.188427489502 291.345570979518,-594.973849748221 317.687262818314,-643.858550749548 303.404437962475,-662.983241874639 275.93515739467,-609.296836695587 " style="fill: rgb(14,173,105); fill-opacity: 1; stroke: rgb(0,0,0); stroke-width: 3" />
	<polygon points="153.598763430227,-393.592159491132 249.069650294754,-481.058271586437 204.733651173199,-593.536300481098 185.815022204117,-590.250379748308 33.5,-425.551178495924 " style="fill: rgb(14,173,105); fill-opacity: 1; stroke: rgb(0,0,0); stroke-width: 3" />
	<polygon points="398.690389468404,-269.549602580233 342.297804919173,-189.296776247517 499.351337890513,-197.92516028498 519.026700846229,-211.43933762042 558.669922266798,-248.054974767781 561.5,-263.803247621261 544.535685247669,-295.545448686121 " style="fill: rgb(14,173,105); fill-opacity: 1; stroke: rgb(0,0,0); stroke-width: 3" />
	<polygon points="346.627421015222,-414.329154258574 265.107119333913,-393.592159491132 362.087089423906,-374.718290224811 360.06421170476,-402.77980485892 " style="fill: rgb(14,173,105); fill-opacity: 1; stroke: rgb(0,0,0); stroke-width: 3" />
	<circle cx="153.598763430227" cy="-393.592159491132" r="2" style="fill: rgb(0,0,0)" />
	<circle cx="265.107119333913" cy="-393.592159491132" r="2" style="fill: rgb(0,0,0)" />
	<circle cx="346.627421015222" cy="-414.329154258574" r="2" style="fill: rgb(0,0,0)" />
	<circle cx="338.882624853122" cy="-452.933107785699" r="2" style="fill: rgb(0,0,0)" />
	<circle cx="270.564787758771" cy="-485.207831894536" r="2" style="fill: rgb(0,0,0)" />
	<circle cx="249.069650294754" cy="-481.058271586437" r="2" style="fill: rgb(0,0,0)" />
	<circle cx="132.844675868126" cy="-271.059063053127" r="2" style="fill: rgb(0,0,0)" />
	<circle cx="342.297804919173" cy="-189.296776247517" r="2" style="fill: rgb(0,0,0)" />
	<circle cx="398.690389468404" cy="-269.549602580233" r="2" style="fill: rgb(0,0,0)" />
	<circle cx="361.03825267413" cy="-369.958387134653" r="2" style="fill: rgb(0,0,0)" />
	<circle cx="302.979729436288" cy="-517.999689740768" r="2" style="fill: rgb(0,0,0)" />
	<circle cx="319.857580970142" cy="-544.106756926865" r="2" style="fill: rgb(0,0,0)" />
	<circle cx="292.879326153341" cy="-594.660704133427" r="2" style="fill: rgb(0,0,0)" />
	<circle cx="291.345570979518" cy="-594.973849748221" r="2" style="fill: rgb(0,0,0)" />
	<circle cx="288.96069334548" cy="-595.188427489502" r="2" style="fill: rgb(0,0,0)" />
	<circle cx="396.279817613931" cy="-466.3651949008" r="2" style="fill: rgb(0,0,0)" />
	<circle cx="402.147971701431" cy="-471.333605765431" r="2" style="fill: rgb(0,0,0)" />
	<circle cx="314.199770083855" cy="-500.108258145268" r="2" style="fill: rgb(0,0,0)" />
	<circle cx="361.393243761949" cy="-404.536029414968" r="2" style="fill: rgb(0,0,0)" />
	<circle cx="397.806696121788" cy="-454.610166584173" r="2" style="fill: rgb(0,0,0)" />
	<circle cx="204.733651173199" cy="-593.536300481098" r="2" style="fill: rgb(0,0,0)" />
	<circle cx="185.815022204117" cy="-590.250379748308" r="2" style="fill: rgb(0,0,0)" />
	<circle cx="33.5" cy="-425.551178495924" r="2" style="fill: rgb(0,0,0)" />
	<circle cx="362.087089423906" cy="-374.718290224811" r="2" style="fill: rgb(0,0,0)" />
	<circle cx="360.06421170476" cy="-402.77980485892" r="2" style="fill: rgb(0,0,0)" />
	<circle cx="187.559819710485" cy="-53.5" r="2" style="fill: rgb(0,0,0)" />
	<circle cx="246.902097708615" cy="-64.2371093853874" r="2" style="fill: rgb(0,0,0)" />
	<circle cx="499.351337890513" cy="-197.92516028498" r="2" style="fill: rgb(0,0,0)" />
	<circle cx="519.026700846229" cy="-211.43933762042" r="2" style="fill: rgb(0,0,0)" />
	<circle cx="558.669922266798" cy="-248.054974767781" r="2" style="fill: rgb(0,0,0)" />
	<circle cx="561.5" cy="-263.803247621261" r="2" style="fill: rgb(0,0,0)" />
	<circle cx="544.535685247669" cy="-295.545448686121" r="2" style="fill: rgb(0,0,0)" />
	<circle cx="355.018875903589" cy="-601.730531560562" r="2" style="fill: rgb(0,0,0)" />
	<circle cx="319.827494526318" cy="-642.643323754051" r="2" style="fill: rgb(0,0,0)" />
	<circle cx="393.228117478501" cy="-538.447067155207" r="2" style="fill: rgb(0,0,0)" />
	<circle cx="404.795470909625" cy="-564.768275838711" r="2" style="fill: rgb(0,0,0)" />
	<circle cx="373.149629819145" cy="-581.911672384739" r="2" style="fill: rgb(0,0,0)" />
	<circle cx="369.059174623718" cy="-587.100445827089" r="2" style="fill: rgb(0,0,0)" />
	<circle cx="355.414682162959" cy="-595.457793691811" r="2" style="fill: rgb(0,0,0)" />
	<circle cx="317.687262818314" cy="-643.858550749548" r="2" style="fill: rgb(0,0,0)" />
	<circle cx="303.404437962475" cy="-662.983241874639" r="2" style="fill: rgb(0,0,0)" />
	<circle cx="275.93515739467" cy="-609.296836695587" r="2" style="fill: rgb(0,0,0)" />
	<circle cx="371.995059093097" cy="-378.475673517339" r="2" style="fill: rgb(0,0,0)" />
	<circle cx="457.632081835237" cy="-313.931829839324" r="2" style="fill: rgb(0,0,0)" />
	<circle cx="433.676322949571" cy="-460.126070259053" r="2" style="fill: rgb(0,0,0)" />
	<circle cx="405.086917518484" cy="-457.083770297264" r="2" style="fill: rgb(0,0,0)" />
	<!-- 
	Generated using the Perl SVG Module V2.64
	by Ronan Oger
	Info: http://www.roitsystems.com/
 -->
</svg>