<?xml version="1.0" encoding="UTF-8" standalone="yes"?>
<!DOCTYPE svg PUBLIC "-//W3C//DTD SVG 1.0//EN" "http://www.w3.org/TR/2001/REC-SVG-20010904/DTD/svg10.dtd">
<!-- generated using polymake; Michael Joswig, Georg Loho, Benjamin Lorenz, Rico Raber; license CC BY-NC-SA 3.0; see polymake.org and matchthenet.de -->
<svg height="841pt" id="document" viewBox="0 -595.17255114769 572 595.17255114769" width="595pt" xmlns="http://www.w3.org/2000/svg" xmlns:svg="http://www.w3.org/2000/svg" xmlns:xlink="http://www.w3.org/1999/xlink">
	<title id="document_title">planar_net_</title>
	<polygon points="356.978604034522,-263.285998078214 433.963809680102,-263.285998078214 362.196730020325,-448.204138797249 339.543997472181,-465.998911049023 337.149928045132,-465.32315052221 293.426256613412,-444.541622525823 " style="fill: rgb(14,173,105); fill-opacity: 1; stroke: rgb(0,0,0); stroke-width: 3" />
	<polygon points="401.492619919059,-53.5 429.08994906576,-194.638615417259 300.177847110948,-134.583928013347 291.158786011056,-89.5145299252346 300.157341809675,-84.8497320765014 " style="fill: rgb(14,173,105); fill-opacity: 1; stroke: rgb(0,0,0); stroke-width: 3" />
	<polygon points="457.638406156737,-486.587634122035 486.064707750304,-461.11094739356 561.5,-535.684139453308 452.416333151098,-558.67255114769 449.151030256855,-553.007650452779 " style="fill: rgb(14,173,105); fill-opacity: 1; stroke: rgb(0,0,0); stroke-width: 3" />
	<polygon points="429.08994906576,-194.638615417259 433.963809680102,-263.285998078214 356.978604034522,-263.285998078214 236.987975645459,-193.426785038525 300.177847110948,-134.583928013347 " style="fill: rgb(14,173,105); fill-opacity: 1; stroke: rgb(0,0,0); stroke-width: 3" />
	<polygon points="356.978604034522,-263.285998078214 293.426256613412,-444.541622525823 223.300763513099,-450.747234179803 173.553384207508,-431.240145821021 149.220156827639,-375.954499194726 221.721970173906,-294.650046675653 " style="fill: rgb(14,173,105); fill-opacity: 1; stroke: rgb(0,0,0); stroke-width: 3" />
	<polygon points="236.987975645459,-193.426785038525 157.709230106661,-118.715290315713 282.744941887153,-92.0552562423325 300.177847110948,-134.583928013347 " style="fill: rgb(14,173,105); fill-opacity: 1; stroke: rgb(0,0,0); stroke-width: 3" />
	<polygon points="293.426256613412,-444.541622525823 337.149928045132,-465.32315052221 300.179139077774,-490.159318047567 226.143533106743,-465.257064014905 " style="fill: rgb(14,173,105); fill-opacity: 1; stroke: rgb(0,0,0); stroke-width: 3" />
	<polygon points="370.890691501,-501.302925862376 429.860874632075,-537.295873848669 366.126265228267,-557.827646377754 347.126470204663,-505.757485988625 " style="fill: rgb(14,173,105); fill-opacity: 1; stroke: rgb(0,0,0); stroke-width: 3" />
	<polygon points="149.220156827639,-375.954499194726 173.553384207508,-431.240145821021 112.677812726783,-521.309251042815 98.1638454918939,-536.247081084484 33.5,-445.437937648216 36.1721405239658,-435.660718695435 " style="fill: rgb(14,173,105); fill-opacity: 1; stroke: rgb(0,0,0); stroke-width: 3" />
	<polygon points="301.465960514137,-491.975146985204 327.308180776518,-502.437452176867 270.540336703468,-535.302814632199 173.224176669813,-486.848259481391 225.274694282488,-474.762240274687 " style="fill: rgb(14,173,105); fill-opacity: 1; stroke: rgb(0,0,0); stroke-width: 3" />
	<polygon points="337.149928045132,-465.32315052221 339.543997472181,-465.998911049023 329.31452864539,-502.880085112841 327.308180776518,-502.437452176867 301.465960514137,-491.975146985204 " style="fill: rgb(14,173,105); fill-opacity: 1; stroke: rgb(0,0,0); stroke-width: 3" />
	<polygon points="329.31452864539,-502.880085112841 331.068865590605,-506.810905298128 296.890267813745,-550.4470974773 290.623118916681,-548.582654510531 272.452314699438,-538.403465675101 327.308180776518,-502.437452176867 " style="fill: rgb(14,173,105); fill-opacity: 1; stroke: rgb(0,0,0); stroke-width: 3" />
	<polygon points="339.543997472181,-465.998911049023 362.196730020325,-448.204138797249 370.890691501,-501.302925862376 347.126470204663,-505.757485988625 343.153048348832,-504.101900230653 " style="fill: rgb(14,173,105); fill-opacity: 1; stroke: rgb(0,0,0); stroke-width: 3" />
	<polygon points="362.196730020325,-448.204138797249 433.963809680102,-263.285998078214 476.175993253315,-317.639923616919 486.064707750304,-461.11094739356 457.638406156737,-486.587634122035 389.045437154034,-494.832596623563 " style="fill: rgb(14,173,105); fill-opacity: 1; stroke: rgb(0,0,0); stroke-width: 3" />
	<circle cx="356.978604034522" cy="-263.285998078214" r="2" style="fill: rgb(0,0,0)" />
	<circle cx="433.963809680102" cy="-263.285998078214" r="2" style="fill: rgb(0,0,0)" />
	<circle cx="362.196730020325" cy="-448.204138797249" r="2" style="fill: rgb(0,0,0)" />
	<circle cx="339.543997472181" cy="-465.998911049023" r="2" style="fill: rgb(0,0,0)" />
	<circle cx="337.149928045132" cy="-465.32315052221" r="2" style="fill: rgb(0,0,0)" />
	<circle cx="293.426256613412" cy="-444.541622525823" r="2" style="fill: rgb(0,0,0)" />
	<circle cx="236.987975645459" cy="-193.426785038525" r="2" style="fill: rgb(0,0,0)" />
	<circle cx="300.177847110948" cy="-134.583928013347" r="2" style="fill: rgb(0,0,0)" />
	<circle cx="429.08994906576" cy="-194.638615417259" r="2" style="fill: rgb(0,0,0)" />
	<circle cx="223.300763513099" cy="-450.747234179803" r="2" style="fill: rgb(0,0,0)" />
	<circle cx="173.553384207508" cy="-431.240145821021" r="2" style="fill: rgb(0,0,0)" />
	<circle cx="149.220156827639" cy="-375.954499194726" r="2" style="fill: rgb(0,0,0)" />
	<circle cx="221.721970173906" cy="-294.650046675653" r="2" style="fill: rgb(0,0,0)" />
	<circle cx="300.179139077774" cy="-490.159318047567" r="2" style="fill: rgb(0,0,0)" />
	<circle cx="226.143533106743" cy="-465.257064014905" r="2" style="fill: rgb(0,0,0)" />
	<circle cx="329.31452864539" cy="-502.880085112841" r="2" style="fill: rgb(0,0,0)" />
	<circle cx="327.308180776518" cy="-502.437452176867" r="2" style="fill: rgb(0,0,0)" />
	<circle cx="301.465960514137" cy="-491.975146985204" r="2" style="fill: rgb(0,0,0)" />
	<circle cx="370.890691501" cy="-501.302925862376" r="2" style="fill: rgb(0,0,0)" />
	<circle cx="347.126470204663" cy="-505.757485988625" r="2" style="fill: rgb(0,0,0)" />
	<circle cx="343.153048348832" cy="-504.101900230653" r="2" style="fill: rgb(0,0,0)" />
	<circle cx="476.175993253315" cy="-317.639923616919" r="2" style="fill: rgb(0,0,0)" />
	<circle cx="486.064707750304" cy="-461.11094739356" r="2" style="fill: rgb(0,0,0)" />
	<circle cx="457.638406156737" cy="-486.587634122035" r="2" style="fill: rgb(0,0,0)" />
	<circle cx="389.045437154034" cy="-494.832596623563" r="2" style="fill: rgb(0,0,0)" />
	<circle cx="291.158786011056" cy="-89.5145299252346" r="2" style="fill: rgb(0,0,0)" />
	<circle cx="300.157341809675" cy="-84.8497320765014" r="2" style="fill: rgb(0,0,0)" />
	<circle cx="401.492619919059" cy="-53.5" r="2" style="fill: rgb(0,0,0)" />
	<circle cx="157.709230106661" cy="-118.715290315713" r="2" style="fill: rgb(0,0,0)" />
	<circle cx="282.744941887153" cy="-92.0552562423325" r="2" style="fill: rgb(0,0,0)" />
	<circle cx="112.677812726783" cy="-521.309251042815" r="2" style="fill: rgb(0,0,0)" />
	<circle cx="98.1638454918939" cy="-536.247081084484" r="2" style="fill: rgb(0,0,0)" />
	<circle cx="33.5" cy="-445.437937648216" r="2" style="fill: rgb(0,0,0)" />
	<circle cx="36.1721405239658" cy="-435.660718695435" r="2" style="fill: rgb(0,0,0)" />
	<circle cx="270.540336703468" cy="-535.302814632199" r="2" style="fill: rgb(0,0,0)" />
	<circle cx="173.224176669813" cy="-486.848259481391" r="2" style="fill: rgb(0,0,0)" />
	<circle cx="225.274694282488" cy="-474.762240274687" r="2" style="fill: rgb(0,0,0)" />
	<circle cx="331.068865590605" cy="-506.810905298128" r="2" style="fill: rgb(0,0,0)" />
	<circle cx="296.890267813745" cy="-550.4470974773" r="2" style="fill: rgb(0,0,0)" />
	<circle cx="290.623118916681" cy="-548.582654510531" r="2" style="fill: rgb(0,0,0)" />
	<circle cx="272.452314699438" cy="-538.403465675101" r="2" style="fill: rgb(0,0,0)" />
	<circle cx="429.860874632075" cy="-537.295873848669" r="2" style="fill: rgb(0,0,0)" />
	<circle cx="366.126265228267" cy="-557.827646377754" r="2" style="fill: rgb(0,0,0)" />
	<circle cx="561.5" cy="-535.684139453308" r="2" style="fill: rgb(0,0,0)" />
	<circle cx="452.416333151098" cy="-558.67255114769" r="2" style="fill: rgb(0,0,0)" />
	<circle cx="449.151030256855" cy="-553.007650452779" r="2" style="fill: rgb(0,0,0)" />
	<!-- 
	Generated using the Perl SVG Module V2.64
	by Ronan Oger
	Info: http://www.roitsystems.com/
 -->
</svg>