<?xml version="1.0" encoding="UTF-8" standalone="yes"?>
<!DOCTYPE svg PUBLIC "-//W3C//DTD SVG 1.0//EN" "http://www.w3.org/TR/2001/REC-SVG-20010904/DTD/svg10.dtd">
<!-- generated using polymake; Michael Joswig, Georg Loho, Benjamin Lorenz, Rico Raber; license CC BY-NC-ND 3.0; see polymake.org and matchthenet.de -->
<svg height="841pt" id="document" viewBox="0 -665.212986724985 572 665.212986724985" width="595pt" xmlns="http://www.w3.org/2000/svg" xmlns:svg="http://www.w3.org/2000/svg" xmlns:xlink="http://www.w3.org/1999/xlink">
	<title id="document_title">planar_net_</title>
	<polygon points="330.364857803911,-455.561064217782 452.493786940712,-455.561064217782 454.58070213003,-521.324405011642 450.00725603717,-523.058802807163 " style="fill: rgb(67,184,206); fill-opacity: 1; stroke: rgb(0,0,0); stroke-width: 3" />
	<polygon points="200.098781555211,-381.726853235349 33.5,-183.029356984918 63.1300693759753,-163.567869633245 254.838464847656,-306.920666993125 " style="fill: rgb(67,184,206); fill-opacity: 1; stroke: rgb(0,0,0); stroke-width: 3" />
	<polygon points="511.941494420576,-459.723382347621 462.713705551763,-446.225175102781 447.190106312445,-339.193900468443 524.979608541799,-395.054706477217 " style="fill: rgb(67,184,206); fill-opacity: 1; stroke: rgb(0,0,0); stroke-width: 3" />
	<polygon points="462.713705551763,-446.225175102781 452.493786940712,-455.561064217782 330.364857803911,-455.561064217782 200.098781555211,-381.726853235349 254.838464847656,-306.920666993125 269.18603834347,-301.623479560358 447.190106312445,-339.193900468443 " style="fill: rgb(84,13,110); fill-opacity: 1; stroke: rgb(0,0,0); stroke-width: 3" />
	<polygon points="269.18603834347,-301.623479560358 254.838464847656,-306.920666993125 298.744360322641,-71.6029971343864 319.450977107126,-53.5 " style="fill: rgb(67,184,206); fill-opacity: 1; stroke: rgb(0,0,0); stroke-width: 3" />
	<polygon points="447.190106312445,-339.193900468443 269.18603834347,-301.623479560358 506.130017062486,-212.464205635153 515.305961352876,-211.377753627755 522.17834794048,-279.625453094253 " style="fill: rgb(255,210,63); fill-opacity: 1; stroke: rgb(0,0,0); stroke-width: 3" />
	<polygon points="471.48894086572,-524.075602612822 492.5664792538,-526.243072338479 492.889086296365,-596.65216334255 476.768535140069,-595.532176415286 " style="fill: rgb(67,184,206); fill-opacity: 1; stroke: rgb(0,0,0); stroke-width: 3" />
	<polygon points="450.00725603717,-523.058802807163 454.58070213003,-521.324405011642 471.48894086572,-524.075602612822 476.768535140069,-595.532176415286 452.248426766842,-595.522627259429 " style="fill: rgb(255,210,63); fill-opacity: 1; stroke: rgb(0,0,0); stroke-width: 3" />
	<polygon points="330.364857803911,-455.561064217782 450.00725603717,-523.058802807163 405.933504476439,-580.622099480053 397.402645051112,-576.82232555305 182.550425842514,-431.652173892968 " style="fill: rgb(255,210,63); fill-opacity: 1; stroke: rgb(0,0,0); stroke-width: 3" />
	<polygon points="489.800421445485,-506.808064444623 499.420406437859,-485.714922125933 561.5,-463.395555606487 560.116974631842,-531.974454844569 550.953884210756,-541.705029400635 " style="fill: rgb(255,210,63); fill-opacity: 1; stroke: rgb(0,0,0); stroke-width: 3" />
	<polygon points="452.248426766842,-595.522627259429 476.768535140069,-595.532176415286 492.521871870302,-599.132026712762 501.219882389286,-609.280470941697 495.542310796814,-616.5704306396 470.863558485962,-628.712986724985 446.546207233378,-602.918473176101 " style="fill: rgb(84,13,110); fill-opacity: 1; stroke: rgb(0,0,0); stroke-width: 3" />
	<polygon points="454.58070213003,-521.324405011642 452.493786940712,-455.561064217782 464.429303703117,-448.550429325099 499.420406437859,-485.714922125933 489.800421445485,-506.808064444623 471.089574987321,-516.751141148116 " style="fill: rgb(238,66,102); fill-opacity: 1; stroke: rgb(0,0,0); stroke-width: 3" />
	<circle cx="330.364857803911" cy="-455.561064217782" r="2" style="fill: rgb(0,0,0)" />
	<circle cx="452.493786940712" cy="-455.561064217782" r="2" style="fill: rgb(0,0,0)" />
	<circle cx="454.58070213003" cy="-521.324405011642" r="2" style="fill: rgb(0,0,0)" />
	<circle cx="450.00725603717" cy="-523.058802807163" r="2" style="fill: rgb(0,0,0)" />
	<circle cx="200.098781555211" cy="-381.726853235349" r="2" style="fill: rgb(0,0,0)" />
	<circle cx="254.838464847656" cy="-306.920666993125" r="2" style="fill: rgb(0,0,0)" />
	<circle cx="269.18603834347" cy="-301.623479560358" r="2" style="fill: rgb(0,0,0)" />
	<circle cx="447.190106312445" cy="-339.193900468443" r="2" style="fill: rgb(0,0,0)" />
	<circle cx="462.713705551763" cy="-446.225175102781" r="2" style="fill: rgb(0,0,0)" />
	<circle cx="471.48894086572" cy="-524.075602612822" r="2" style="fill: rgb(0,0,0)" />
	<circle cx="476.768535140069" cy="-595.532176415286" r="2" style="fill: rgb(0,0,0)" />
	<circle cx="452.248426766842" cy="-595.522627259429" r="2" style="fill: rgb(0,0,0)" />
	<circle cx="405.933504476439" cy="-580.622099480053" r="2" style="fill: rgb(0,0,0)" />
	<circle cx="397.402645051112" cy="-576.82232555305" r="2" style="fill: rgb(0,0,0)" />
	<circle cx="182.550425842514" cy="-431.652173892968" r="2" style="fill: rgb(0,0,0)" />
	<circle cx="464.429303703117" cy="-448.550429325099" r="2" style="fill: rgb(0,0,0)" />
	<circle cx="499.420406437859" cy="-485.714922125933" r="2" style="fill: rgb(0,0,0)" />
	<circle cx="489.800421445485" cy="-506.808064444623" r="2" style="fill: rgb(0,0,0)" />
	<circle cx="471.089574987321" cy="-516.751141148116" r="2" style="fill: rgb(0,0,0)" />
	<circle cx="33.5" cy="-183.029356984918" r="2" style="fill: rgb(0,0,0)" />
	<circle cx="63.1300693759753" cy="-163.567869633245" r="2" style="fill: rgb(0,0,0)" />
	<circle cx="524.979608541799" cy="-395.054706477217" r="2" style="fill: rgb(0,0,0)" />
	<circle cx="511.941494420576" cy="-459.723382347621" r="2" style="fill: rgb(0,0,0)" />
	<circle cx="298.744360322641" cy="-71.6029971343864" r="2" style="fill: rgb(0,0,0)" />
	<circle cx="319.450977107126" cy="-53.5" r="2" style="fill: rgb(0,0,0)" />
	<circle cx="506.130017062486" cy="-212.464205635153" r="2" style="fill: rgb(0,0,0)" />
	<circle cx="515.305961352876" cy="-211.377753627755" r="2" style="fill: rgb(0,0,0)" />
	<circle cx="522.17834794048" cy="-279.625453094253" r="2" style="fill: rgb(0,0,0)" />
	<circle cx="492.5664792538" cy="-526.243072338479" r="2" style="fill: rgb(0,0,0)" />
	<circle cx="492.889086296365" cy="-596.65216334255" r="2" style="fill: rgb(0,0,0)" />
	<circle cx="492.521871870302" cy="-599.132026712762" r="2" style="fill: rgb(0,0,0)" />
	<circle cx="501.219882389286" cy="-609.280470941697" r="2" style="fill: rgb(0,0,0)" />
	<circle cx="495.542310796814" cy="-616.5704306396" r="2" style="fill: rgb(0,0,0)" />
	<circle cx="470.863558485962" cy="-628.712986724985" r="2" style="fill: rgb(0,0,0)" />
	<circle cx="446.546207233378" cy="-602.918473176101" r="2" style="fill: rgb(0,0,0)" />
	<circle cx="561.5" cy="-463.395555606487" r="2" style="fill: rgb(0,0,0)" />
	<circle cx="560.116974631842" cy="-531.974454844569" r="2" style="fill: rgb(0,0,0)" />
	<circle cx="550.953884210756" cy="-541.705029400635" r="2" style="fill: rgb(0,0,0)" />
	<!--
	Generated using the Perl SVG Module V2.86
	by Ronan Oger
	Info: http://www.roitsystems.com/
	-->
</svg>