<?xml version="1.0" encoding="UTF-8" standalone="yes"?>
<!DOCTYPE svg PUBLIC "-//W3C//DTD SVG 1.0//EN" "http://www.w3.org/TR/2001/REC-SVG-20010904/DTD/svg10.dtd">
<!-- generated using polymake; Michael Joswig, Georg Loho, Benjamin Lorenz, Rico Raber; license CC BY-NC-SA 3.0; see polymake.org and matchthenet.de -->
<svg height="841pt" id="document" viewBox="0 -451.203605129985 572 451.203605129985" width="595pt" xmlns="http://www.w3.org/2000/svg" xmlns:svg="http://www.w3.org/2000/svg" xmlns:xlink="http://www.w3.org/1999/xlink">
	<title id="document_title">planar_net_</title>
	<polygon points="257.283921056182,-267.524883677968 323.492438767316,-267.524883677968 322.413912061338,-275.851322219524 294.0738971985,-338.170205767714 274.549819434035,-343.688589250235 259.983669947,-336.4572559385 " style="fill: rgb(14,173,105); fill-opacity: 1; stroke: rgb(0,0,0); stroke-width: 3" />
	<polygon points="477.556127533519,-188.211648748825 321.726449262723,-136.144960680404 277.960882639909,-53.5 518.796690806708,-162.697753452868 520.486421386196,-165.799237804366 " style="fill: rgb(14,173,105); fill-opacity: 1; stroke: rgb(0,0,0); stroke-width: 3" />
	<polygon points="321.726449262723,-136.144960680404 323.492438767316,-267.524883677968 257.283921056182,-267.524883677968 201.349312271282,-185.299134821676 277.960882639909,-53.5 " style="fill: rgb(14,173,105); fill-opacity: 1; stroke: rgb(0,0,0); stroke-width: 3" />
	<polygon points="201.349312271282,-185.299134821676 149.421952064344,-196.265952947613 83.2089729500801,-193.996132380951 33.5,-154.321191787374 277.960882639909,-53.5 " style="fill: rgb(14,173,105); fill-opacity: 1; stroke: rgb(0,0,0); stroke-width: 3" />
	<polygon points="259.983669947,-336.4572559385 274.549819434035,-343.688589250235 261.84304484652,-372.325264718626 248.966123825725,-366.54769394326 245.533786888488,-355.052325808268 252.622341284274,-339.74395638747 " style="fill: rgb(14,173,105); fill-opacity: 1; stroke: rgb(0,0,0); stroke-width: 3" />
	<polygon points="257.283921056182,-267.524883677968 259.983669947,-336.4572559385 251.941635975045,-337.020504654259 191.094726751769,-253.966199721486 182.888721684271,-201.531637468132 " style="fill: rgb(14,173,105); fill-opacity: 1; stroke: rgb(0,0,0); stroke-width: 3" />
	<polygon points="354.108820164222,-323.309923594373 361.269191325182,-332.276322164061 340.479742806864,-360.36501981764 336.152259873852,-357.510450790785 " style="fill: rgb(14,173,105); fill-opacity: 1; stroke: rgb(0,0,0); stroke-width: 3" />
	<polygon points="261.84304484652,-372.325264718626 265.734741867801,-390.564756513731 245.585566997635,-414.703605129985 244.192462752446,-372.564974638015 248.966123825725,-366.54769394326 " style="fill: rgb(14,173,105); fill-opacity: 1; stroke: rgb(0,0,0); stroke-width: 3" />
	<polygon points="322.413912061338,-275.851322219524 323.492438767316,-267.524883677968 414.726214507756,-172.972247279401 373.10772550354,-331.911638272929 361.269191325182,-332.276322164061 354.108820164222,-323.309923594373 " style="fill: rgb(14,173,105); fill-opacity: 1; stroke: rgb(0,0,0); stroke-width: 3" />
	<polygon points="294.0738971985,-338.170205767714 322.413912061338,-275.851322219524 338.371397525057,-330.644065368438 310.734446138716,-357.631340815258 " style="fill: rgb(14,173,105); fill-opacity: 1; stroke: rgb(0,0,0); stroke-width: 3" />
	<polygon points="252.622341284274,-339.74395638747 245.533786888488,-355.052325808268 205.596169287379,-353.058897527993 199.570983739457,-351.583095761529 157.464654069279,-300.432654020544 " style="fill: rgb(14,173,105); fill-opacity: 1; stroke: rgb(0,0,0); stroke-width: 3" />
	<polygon points="520.486421386196,-165.799237804366 518.796690806708,-162.697753452868 550.162497447514,-107.369017007619 553.041008852579,-112.864016901313 561.5,-151.656181761063 521.983060050206,-166.353677336172 " style="fill: rgb(14,173,105); fill-opacity: 1; stroke: rgb(0,0,0); stroke-width: 3" />
	<polygon points="245.533786888488,-355.052325808268 248.966123825725,-366.54769394326 243.356381612666,-371.79424512524 205.748340296467,-359.065466154129 " style="fill: rgb(14,173,105); fill-opacity: 1; stroke: rgb(0,0,0); stroke-width: 3" />
	<polygon points="361.269191325182,-332.276322164061 373.10772550354,-331.911638272929 390.608006103154,-377.067661941517 389.084119703045,-377.542109751725 357.644114640029,-377.988587191958 343.10199485203,-362.12810733473 " style="fill: rgb(14,173,105); fill-opacity: 1; stroke: rgb(0,0,0); stroke-width: 3" />
	<polygon points="274.549819434035,-343.688589250235 294.0738971985,-338.170205767714 296.760587820582,-363.647477243081 297.029184130333,-368.82468970608 287.072355602244,-387.900581163421 273.600596927162,-375.003446409944 " style="fill: rgb(14,173,105); fill-opacity: 1; stroke: rgb(0,0,0); stroke-width: 3" />
	<circle cx="257.283921056182" cy="-267.524883677968" r="2" style="fill: rgb(0,0,0)" />
	<circle cx="323.492438767316" cy="-267.524883677968" r="2" style="fill: rgb(0,0,0)" />
	<circle cx="322.413912061338" cy="-275.851322219524" r="2" style="fill: rgb(0,0,0)" />
	<circle cx="294.0738971985" cy="-338.170205767714" r="2" style="fill: rgb(0,0,0)" />
	<circle cx="274.549819434035" cy="-343.688589250235" r="2" style="fill: rgb(0,0,0)" />
	<circle cx="259.983669947" cy="-336.4572559385" r="2" style="fill: rgb(0,0,0)" />
	<circle cx="201.349312271282" cy="-185.299134821676" r="2" style="fill: rgb(0,0,0)" />
	<circle cx="277.960882639909" cy="-53.5" r="2" style="fill: rgb(0,0,0)" />
	<circle cx="321.726449262723" cy="-136.144960680404" r="2" style="fill: rgb(0,0,0)" />
	<circle cx="261.84304484652" cy="-372.325264718626" r="2" style="fill: rgb(0,0,0)" />
	<circle cx="248.966123825725" cy="-366.54769394326" r="2" style="fill: rgb(0,0,0)" />
	<circle cx="245.533786888488" cy="-355.052325808268" r="2" style="fill: rgb(0,0,0)" />
	<circle cx="252.622341284274" cy="-339.74395638747" r="2" style="fill: rgb(0,0,0)" />
	<circle cx="251.941635975045" cy="-337.020504654259" r="2" style="fill: rgb(0,0,0)" />
	<circle cx="191.094726751769" cy="-253.966199721486" r="2" style="fill: rgb(0,0,0)" />
	<circle cx="182.888721684271" cy="-201.531637468132" r="2" style="fill: rgb(0,0,0)" />
	<circle cx="414.726214507756" cy="-172.972247279401" r="2" style="fill: rgb(0,0,0)" />
	<circle cx="373.10772550354" cy="-331.911638272929" r="2" style="fill: rgb(0,0,0)" />
	<circle cx="361.269191325182" cy="-332.276322164061" r="2" style="fill: rgb(0,0,0)" />
	<circle cx="354.108820164222" cy="-323.309923594373" r="2" style="fill: rgb(0,0,0)" />
	<circle cx="338.371397525057" cy="-330.644065368438" r="2" style="fill: rgb(0,0,0)" />
	<circle cx="310.734446138716" cy="-357.631340815258" r="2" style="fill: rgb(0,0,0)" />
	<circle cx="296.760587820582" cy="-363.647477243081" r="2" style="fill: rgb(0,0,0)" />
	<circle cx="297.029184130333" cy="-368.82468970608" r="2" style="fill: rgb(0,0,0)" />
	<circle cx="287.072355602244" cy="-387.900581163421" r="2" style="fill: rgb(0,0,0)" />
	<circle cx="273.600596927162" cy="-375.003446409944" r="2" style="fill: rgb(0,0,0)" />
	<circle cx="518.796690806708" cy="-162.697753452868" r="2" style="fill: rgb(0,0,0)" />
	<circle cx="520.486421386196" cy="-165.799237804366" r="2" style="fill: rgb(0,0,0)" />
	<circle cx="477.556127533519" cy="-188.211648748825" r="2" style="fill: rgb(0,0,0)" />
	<circle cx="149.421952064344" cy="-196.265952947613" r="2" style="fill: rgb(0,0,0)" />
	<circle cx="83.2089729500801" cy="-193.996132380951" r="2" style="fill: rgb(0,0,0)" />
	<circle cx="33.5" cy="-154.321191787374" r="2" style="fill: rgb(0,0,0)" />
	<circle cx="265.734741867801" cy="-390.564756513731" r="2" style="fill: rgb(0,0,0)" />
	<circle cx="245.585566997635" cy="-414.703605129985" r="2" style="fill: rgb(0,0,0)" />
	<circle cx="244.192462752446" cy="-372.564974638015" r="2" style="fill: rgb(0,0,0)" />
	<circle cx="205.596169287379" cy="-353.058897527993" r="2" style="fill: rgb(0,0,0)" />
	<circle cx="199.570983739457" cy="-351.583095761529" r="2" style="fill: rgb(0,0,0)" />
	<circle cx="157.464654069279" cy="-300.432654020544" r="2" style="fill: rgb(0,0,0)" />
	<circle cx="243.356381612666" cy="-371.79424512524" r="2" style="fill: rgb(0,0,0)" />
	<circle cx="205.748340296467" cy="-359.065466154129" r="2" style="fill: rgb(0,0,0)" />
	<circle cx="340.479742806864" cy="-360.36501981764" r="2" style="fill: rgb(0,0,0)" />
	<circle cx="336.152259873852" cy="-357.510450790785" r="2" style="fill: rgb(0,0,0)" />
	<circle cx="390.608006103154" cy="-377.067661941517" r="2" style="fill: rgb(0,0,0)" />
	<circle cx="389.084119703045" cy="-377.542109751725" r="2" style="fill: rgb(0,0,0)" />
	<circle cx="357.644114640029" cy="-377.988587191958" r="2" style="fill: rgb(0,0,0)" />
	<circle cx="343.10199485203" cy="-362.12810733473" r="2" style="fill: rgb(0,0,0)" />
	<circle cx="550.162497447514" cy="-107.369017007619" r="2" style="fill: rgb(0,0,0)" />
	<circle cx="553.041008852579" cy="-112.864016901313" r="2" style="fill: rgb(0,0,0)" />
	<circle cx="561.5" cy="-151.656181761063" r="2" style="fill: rgb(0,0,0)" />
	<circle cx="521.983060050206" cy="-166.353677336172" r="2" style="fill: rgb(0,0,0)" />
	<!-- 
	Generated using the Perl SVG Module V2.64
	by Ronan Oger
	Info: http://www.roitsystems.com/
 -->
</svg>