<?xml version="1.0" encoding="UTF-8" standalone="yes"?>
<!DOCTYPE svg PUBLIC "-//W3C//DTD SVG 1.0//EN" "http://www.w3.org/TR/2001/REC-SVG-20010904/DTD/svg10.dtd">
<!-- generated using polymake; Michael Joswig, Georg Loho, Benjamin Lorenz, Rico Raber; license CC BY-NC-ND 3.0; see polymake.org and matchthenet.de -->
<svg height="841pt" id="document" viewBox="0 -579.325911434811 572 579.325911434811" width="595pt" xmlns="http://www.w3.org/2000/svg" xmlns:svg="http://www.w3.org/2000/svg" xmlns:xlink="http://www.w3.org/1999/xlink">
	<title id="document_title">planar_net_</title>
	<polygon points="386.071067482626,-222.193351203238 387.088117761441,-222.193351203238 480.114130319104,-356.175511519447 320.070739087468,-321.505821739447 305.596572150244,-242.891302355903 " style="fill: rgb(255,210,63); fill-opacity: 1; stroke: rgb(0,0,0); stroke-width: 3" />
	<polygon points="507.867544292787,-196.287924868553 492.772557448395,-171.7799709031 538.405910274159,-122.750721433719 561.5,-144.406943225571 552.757574731058,-163.562299620962 " style="fill: rgb(255,210,63); fill-opacity: 1; stroke: rgb(0,0,0); stroke-width: 3" />
	<polygon points="174.371598694625,-309.588638123524 230.227052175522,-339.462785386681 253.810509450666,-477.205538444657 177.799377671834,-393.534293107825 " style="fill: rgb(67,184,206); fill-opacity: 1; stroke: rgb(0,0,0); stroke-width: 3" />
	<polygon points="380.481344028307,-125.350283550114 387.088117761441,-222.193351203238 386.071067482626,-222.193351203238 283.615060238084,-111.888974126987 " style="fill: rgb(67,184,206); fill-opacity: 1; stroke: rgb(0,0,0); stroke-width: 3" />
	<polygon points="305.596572150244,-242.891302355903 320.070739087468,-321.505821739447 269.618018330769,-338.248405972722 230.227052175522,-339.462785386681 174.371598694625,-309.588638123524 159.218399544322,-222.343874081043 " style="fill: rgb(238,66,102); fill-opacity: 1; stroke: rgb(0,0,0); stroke-width: 3" />
	<polygon points="320.070739087468,-321.505821739447 480.114130319104,-356.175511519447 488.580803083393,-388.725519290791 427.775186310862,-415.793120253584 286.108625129648,-362.400393189424 " style="fill: rgb(255,210,63); fill-opacity: 1; stroke: rgb(0,0,0); stroke-width: 3" />
	<polygon points="33.5,-346.772807582912 52.411291059839,-337.514257552368 64.4981959178031,-346.994696939722 42.7649969552966,-389.711723195346 " style="fill: rgb(67,184,206); fill-opacity: 1; stroke: rgb(0,0,0); stroke-width: 3" />
	<polygon points="407.385157662351,-89.5406978563505 380.481344028307,-125.350283550114 283.615060238084,-111.888974126987 238.520714989536,-95.9974412810053 350.9286408403,-53.5 " style="fill: rgb(255,210,63); fill-opacity: 1; stroke: rgb(0,0,0); stroke-width: 3" />
	<polygon points="480.114130319104,-356.175511519447 387.088117761441,-222.193351203238 453.086927347197,-151.014798640748 492.772557448395,-171.7799709031 507.867544292787,-196.287924868553 513.746420542525,-355.937587289017 " style="fill: rgb(238,66,102); fill-opacity: 1; stroke: rgb(0,0,0); stroke-width: 3" />
	<polygon points="386.071067482626,-222.193351203238 305.596572150244,-242.891302355903 200.807228541939,-138.641795449153 218.461491974724,-129.694679441103 266.255039072898,-131.042880229178 " style="fill: rgb(255,210,63); fill-opacity: 1; stroke: rgb(0,0,0); stroke-width: 3" />
	<polygon points="269.618018330769,-338.248405972722 341.998741314673,-471.219187727905 306.33834974137,-459.880940091585 304.077812236734,-458.102200065866 230.227052175522,-339.462785386681 " style="fill: rgb(255,210,63); fill-opacity: 1; stroke: rgb(0,0,0); stroke-width: 3" />
	<polygon points="254.921932977874,-479.858590202942 197.761843187085,-458.251203697055 160.611140366482,-427.970821447136 177.799377671834,-393.534293107825 253.810509450666,-477.205538444657 " style="fill: rgb(255,210,63); fill-opacity: 1; stroke: rgb(0,0,0); stroke-width: 3" />
	<polygon points="488.580803083393,-388.725519290791 446.44239972031,-542.825911434811 390.947197443343,-540.303233327875 383.807895318884,-496.960171510209 397.176765604836,-437.332758990594 427.775186310862,-415.793120253584 " style="fill: rgb(238,66,102); fill-opacity: 1; stroke: rgb(0,0,0); stroke-width: 3" />
	<polygon points="159.218399544322,-222.343874081043 174.371598694625,-309.588638123524 102.49914897474,-353.096954923006 64.4981959178031,-346.994696939722 52.411291059839,-337.514257552368 52.800282967499,-305.857068671185 139.427638460581,-222.566759572327 " style="fill: rgb(84,13,110); fill-opacity: 1; stroke: rgb(0,0,0); stroke-width: 3" />
	<circle cx="386.071067482626" cy="-222.193351203238" r="2" style="fill: rgb(0,0,0)" />
	<circle cx="387.088117761441" cy="-222.193351203238" r="2" style="fill: rgb(0,0,0)" />
	<circle cx="480.114130319104" cy="-356.175511519447" r="2" style="fill: rgb(0,0,0)" />
	<circle cx="320.070739087468" cy="-321.505821739447" r="2" style="fill: rgb(0,0,0)" />
	<circle cx="305.596572150244" cy="-242.891302355903" r="2" style="fill: rgb(0,0,0)" />
	<circle cx="283.615060238084" cy="-111.888974126987" r="2" style="fill: rgb(0,0,0)" />
	<circle cx="380.481344028307" cy="-125.350283550114" r="2" style="fill: rgb(0,0,0)" />
	<circle cx="269.618018330769" cy="-338.248405972722" r="2" style="fill: rgb(0,0,0)" />
	<circle cx="230.227052175522" cy="-339.462785386681" r="2" style="fill: rgb(0,0,0)" />
	<circle cx="174.371598694625" cy="-309.588638123524" r="2" style="fill: rgb(0,0,0)" />
	<circle cx="159.218399544322" cy="-222.343874081043" r="2" style="fill: rgb(0,0,0)" />
	<circle cx="488.580803083393" cy="-388.725519290791" r="2" style="fill: rgb(0,0,0)" />
	<circle cx="427.775186310862" cy="-415.793120253584" r="2" style="fill: rgb(0,0,0)" />
	<circle cx="286.108625129648" cy="-362.400393189424" r="2" style="fill: rgb(0,0,0)" />
	<circle cx="453.086927347197" cy="-151.014798640748" r="2" style="fill: rgb(0,0,0)" />
	<circle cx="492.772557448395" cy="-171.7799709031" r="2" style="fill: rgb(0,0,0)" />
	<circle cx="507.867544292787" cy="-196.287924868553" r="2" style="fill: rgb(0,0,0)" />
	<circle cx="513.746420542525" cy="-355.937587289017" r="2" style="fill: rgb(0,0,0)" />
	<circle cx="200.807228541939" cy="-138.641795449153" r="2" style="fill: rgb(0,0,0)" />
	<circle cx="218.461491974724" cy="-129.694679441103" r="2" style="fill: rgb(0,0,0)" />
	<circle cx="266.255039072898" cy="-131.042880229178" r="2" style="fill: rgb(0,0,0)" />
	<circle cx="238.520714989536" cy="-95.9974412810053" r="2" style="fill: rgb(0,0,0)" />
	<circle cx="350.9286408403" cy="-53.5" r="2" style="fill: rgb(0,0,0)" />
	<circle cx="407.385157662351" cy="-89.5406978563505" r="2" style="fill: rgb(0,0,0)" />
	<circle cx="253.810509450666" cy="-477.205538444657" r="2" style="fill: rgb(0,0,0)" />
	<circle cx="177.799377671834" cy="-393.534293107825" r="2" style="fill: rgb(0,0,0)" />
	<circle cx="341.998741314673" cy="-471.219187727905" r="2" style="fill: rgb(0,0,0)" />
	<circle cx="306.33834974137" cy="-459.880940091585" r="2" style="fill: rgb(0,0,0)" />
	<circle cx="304.077812236734" cy="-458.102200065866" r="2" style="fill: rgb(0,0,0)" />
	<circle cx="102.49914897474" cy="-353.096954923006" r="2" style="fill: rgb(0,0,0)" />
	<circle cx="64.4981959178031" cy="-346.994696939722" r="2" style="fill: rgb(0,0,0)" />
	<circle cx="52.411291059839" cy="-337.514257552368" r="2" style="fill: rgb(0,0,0)" />
	<circle cx="52.800282967499" cy="-305.857068671185" r="2" style="fill: rgb(0,0,0)" />
	<circle cx="139.427638460581" cy="-222.566759572327" r="2" style="fill: rgb(0,0,0)" />
	<circle cx="446.44239972031" cy="-542.825911434811" r="2" style="fill: rgb(0,0,0)" />
	<circle cx="390.947197443343" cy="-540.303233327875" r="2" style="fill: rgb(0,0,0)" />
	<circle cx="383.807895318884" cy="-496.960171510209" r="2" style="fill: rgb(0,0,0)" />
	<circle cx="397.176765604836" cy="-437.332758990594" r="2" style="fill: rgb(0,0,0)" />
	<circle cx="538.405910274159" cy="-122.750721433719" r="2" style="fill: rgb(0,0,0)" />
	<circle cx="561.5" cy="-144.406943225571" r="2" style="fill: rgb(0,0,0)" />
	<circle cx="552.757574731058" cy="-163.562299620962" r="2" style="fill: rgb(0,0,0)" />
	<circle cx="254.921932977874" cy="-479.858590202942" r="2" style="fill: rgb(0,0,0)" />
	<circle cx="197.761843187085" cy="-458.251203697055" r="2" style="fill: rgb(0,0,0)" />
	<circle cx="160.611140366482" cy="-427.970821447136" r="2" style="fill: rgb(0,0,0)" />
	<circle cx="42.7649969552966" cy="-389.711723195346" r="2" style="fill: rgb(0,0,0)" />
	<circle cx="33.5" cy="-346.772807582912" r="2" style="fill: rgb(0,0,0)" />
	<!--
	Generated using the Perl SVG Module V2.87
	by Ronan Oger

	-->
</svg>