<?xml version="1.0" encoding="UTF-8" standalone="yes"?>
<!DOCTYPE svg PUBLIC "-//W3C//DTD SVG 1.0//EN" "http://www.w3.org/TR/2001/REC-SVG-20010904/DTD/svg10.dtd">
<!-- generated using polymake; Michael Joswig, Georg Loho, Benjamin Lorenz, Rico Raber; license CC BY-NC-ND 3.0; see polymake.org and matchthenet.de -->
<svg height="841pt" id="document" viewBox="0 -680.204401019372 572 680.204401019372" width="595pt" xmlns="http://www.w3.org/2000/svg" xmlns:svg="http://www.w3.org/2000/svg" xmlns:xlink="http://www.w3.org/1999/xlink">
	<title id="document_title">planar_net_</title>
	<polygon points="239.486559119429,-408.179142737525 507.522482017525,-408.179142737525 284.783749325639,-524.617511981343 281.302475473317,-523.591392244022 273.298000793419,-511.182101254472 " style="fill: rgb(14,173,105); fill-opacity: 1; stroke: rgb(0,0,0); stroke-width: 3" />
	<polygon points="255.886992421348,-86.9307512746087 295.839330651266,-159.08873230053 218.061513929026,-139.20284812235 222.29177238474,-90.4237230814506 " style="fill: rgb(14,173,105); fill-opacity: 1; stroke: rgb(0,0,0); stroke-width: 3" />
	<polygon points="392.527994825714,-214.174502726368 263.817857079922,-267.45073661735 212.669236455683,-141.3282078792 218.061513929026,-139.20284812235 295.839330651266,-159.08873230053 " style="fill: rgb(14,173,105); fill-opacity: 1; stroke: rgb(0,0,0); stroke-width: 3" />
	<polygon points="530.101359298562,-398.133421743636 507.522482017525,-408.179142737525 239.486559119429,-408.179142737525 198.468432583857,-384.936311293951 184.847662373816,-312.399214877617 263.817857079922,-267.45073661735 392.527994825714,-214.174502726368 " style="fill: rgb(14,173,105); fill-opacity: 1; stroke: rgb(0,0,0); stroke-width: 3" />
	<polygon points="198.468432583857,-384.936311293951 162.814847435102,-399.342914214844 33.5,-404.077672242594 46.0826462337284,-348.755031920982 184.847662373816,-312.399214877617 " style="fill: rgb(14,173,105); fill-opacity: 1; stroke: rgb(0,0,0); stroke-width: 3" />
	<polygon points="561.219902458241,-315.795636065383 530.101359298562,-398.133421743636 392.527994825714,-214.174502726368 478.976310878645,-144.104334074789 561.432713933118,-146.080479587444 561.5,-146.205989310701 " style="fill: rgb(14,173,105); fill-opacity: 1; stroke: rgb(0,0,0); stroke-width: 3" />
	<polygon points="273.298000793419,-511.182101254472 281.302475473317,-523.591392244022 242.869577746849,-538.185988892644 229.601768531282,-539.305448890186 224.163922647521,-512.505974282506 " style="fill: rgb(14,173,105); fill-opacity: 1; stroke: rgb(0,0,0); stroke-width: 3" />
	<polygon points="285.845749402003,-573.089125025591 291.265568111939,-599.604052861416 283.144674685136,-603.771757981566 224.14015185179,-595.433819383233 233.234647670806,-548.529887363424 245.946936771924,-544.569375038453 " style="fill: rgb(14,173,105); fill-opacity: 1; stroke: rgb(0,0,0); stroke-width: 3" />
	<polygon points="284.783749325639,-524.617511981343 507.522482017525,-408.179142737525 532.150423538006,-410.225286921953 471.06493610829,-473.600659932732 330.43881984944,-584.902436235548 310.74319320862,-595.106065810204 297.867630474636,-571.301954457954 " style="fill: rgb(14,173,105); fill-opacity: 1; stroke: rgb(0,0,0); stroke-width: 3" />
	<polygon points="330.43881984944,-584.902436235548 471.06493610829,-473.600659932732 390.324415726839,-622.737158180285 " style="fill: rgb(14,173,105); fill-opacity: 1; stroke: rgb(0,0,0); stroke-width: 3" />
	<polygon points="239.486559119429,-408.179142737525 273.298000793419,-511.182101254472 224.151052210147,-510.4837317301 202.294757251816,-442.995714052543 192.399107336569,-405.836536795308 " style="fill: rgb(14,173,105); fill-opacity: 1; stroke: rgb(0,0,0); stroke-width: 3" />
	<polygon points="158.292293229444,-53.5 208.020754873722,-91.2812320817003 218.061513929026,-139.20284812235 212.669236455683,-141.3282078792 153.611347354659,-155.233808061271 127.394360256078,-104.918928493986 127.158666197261,-104.310945697518 " style="fill: rgb(14,173,105); fill-opacity: 1; stroke: rgb(0,0,0); stroke-width: 3" />
	<polygon points="263.817857079922,-267.45073661735 184.847662373816,-312.399214877617 140.389536391754,-176.013914454832 195.170417875834,-149.932215788544 " style="fill: rgb(14,173,105); fill-opacity: 1; stroke: rgb(0,0,0); stroke-width: 3" />
	<polygon points="310.74319320862,-595.106065810204 330.43881984944,-584.902436235548 386.002575363566,-628.838979697606 385.982726473606,-628.979997877271 355.584838167653,-643.704401019372 307.635957931509,-603.68882556163 " style="fill: rgb(14,173,105); fill-opacity: 1; stroke: rgb(0,0,0); stroke-width: 3" />
	<polygon points="224.163922647521,-512.505974282506 229.601768531282,-539.305448890186 200.350532790562,-577.081815851045 199.720025241079,-576.915517925007 195.581100195255,-447.580228849662 " style="fill: rgb(14,173,105); fill-opacity: 1; stroke: rgb(0,0,0); stroke-width: 3" />
	<polygon points="281.302475473317,-523.591392244022 284.783749325639,-524.617511981343 285.845749402003,-573.089125025591 245.946936771924,-544.569375038453 " style="fill: rgb(14,173,105); fill-opacity: 1; stroke: rgb(0,0,0); stroke-width: 3" />
	<circle cx="239.486559119429" cy="-408.179142737525" r="2" style="fill: rgb(0,0,0)" />
	<circle cx="507.522482017525" cy="-408.179142737525" r="2" style="fill: rgb(0,0,0)" />
	<circle cx="284.783749325639" cy="-524.617511981343" r="2" style="fill: rgb(0,0,0)" />
	<circle cx="281.302475473317" cy="-523.591392244022" r="2" style="fill: rgb(0,0,0)" />
	<circle cx="273.298000793419" cy="-511.182101254472" r="2" style="fill: rgb(0,0,0)" />
	<circle cx="198.468432583857" cy="-384.936311293951" r="2" style="fill: rgb(0,0,0)" />
	<circle cx="184.847662373816" cy="-312.399214877617" r="2" style="fill: rgb(0,0,0)" />
	<circle cx="263.817857079922" cy="-267.45073661735" r="2" style="fill: rgb(0,0,0)" />
	<circle cx="392.527994825714" cy="-214.174502726368" r="2" style="fill: rgb(0,0,0)" />
	<circle cx="530.101359298562" cy="-398.133421743636" r="2" style="fill: rgb(0,0,0)" />
	<circle cx="242.869577746849" cy="-538.185988892644" r="2" style="fill: rgb(0,0,0)" />
	<circle cx="229.601768531282" cy="-539.305448890186" r="2" style="fill: rgb(0,0,0)" />
	<circle cx="224.163922647521" cy="-512.505974282506" r="2" style="fill: rgb(0,0,0)" />
	<circle cx="532.150423538006" cy="-410.225286921953" r="2" style="fill: rgb(0,0,0)" />
	<circle cx="471.06493610829" cy="-473.600659932732" r="2" style="fill: rgb(0,0,0)" />
	<circle cx="330.43881984944" cy="-584.902436235548" r="2" style="fill: rgb(0,0,0)" />
	<circle cx="310.74319320862" cy="-595.106065810204" r="2" style="fill: rgb(0,0,0)" />
	<circle cx="297.867630474636" cy="-571.301954457954" r="2" style="fill: rgb(0,0,0)" />
	<circle cx="224.151052210147" cy="-510.4837317301" r="2" style="fill: rgb(0,0,0)" />
	<circle cx="202.294757251816" cy="-442.995714052543" r="2" style="fill: rgb(0,0,0)" />
	<circle cx="192.399107336569" cy="-405.836536795308" r="2" style="fill: rgb(0,0,0)" />
	<circle cx="285.845749402003" cy="-573.089125025591" r="2" style="fill: rgb(0,0,0)" />
	<circle cx="245.946936771924" cy="-544.569375038453" r="2" style="fill: rgb(0,0,0)" />
	<circle cx="212.669236455683" cy="-141.3282078792" r="2" style="fill: rgb(0,0,0)" />
	<circle cx="218.061513929026" cy="-139.20284812235" r="2" style="fill: rgb(0,0,0)" />
	<circle cx="295.839330651266" cy="-159.08873230053" r="2" style="fill: rgb(0,0,0)" />
	<circle cx="162.814847435102" cy="-399.342914214844" r="2" style="fill: rgb(0,0,0)" />
	<circle cx="33.5" cy="-404.077672242594" r="2" style="fill: rgb(0,0,0)" />
	<circle cx="46.0826462337284" cy="-348.755031920982" r="2" style="fill: rgb(0,0,0)" />
	<circle cx="478.976310878645" cy="-144.104334074789" r="2" style="fill: rgb(0,0,0)" />
	<circle cx="561.432713933118" cy="-146.080479587444" r="2" style="fill: rgb(0,0,0)" />
	<circle cx="561.5" cy="-146.205989310701" r="2" style="fill: rgb(0,0,0)" />
	<circle cx="561.219902458241" cy="-315.795636065383" r="2" style="fill: rgb(0,0,0)" />
	<circle cx="140.389536391754" cy="-176.013914454832" r="2" style="fill: rgb(0,0,0)" />
	<circle cx="195.170417875834" cy="-149.932215788544" r="2" style="fill: rgb(0,0,0)" />
	<circle cx="200.350532790562" cy="-577.081815851045" r="2" style="fill: rgb(0,0,0)" />
	<circle cx="199.720025241079" cy="-576.915517925007" r="2" style="fill: rgb(0,0,0)" />
	<circle cx="195.581100195255" cy="-447.580228849662" r="2" style="fill: rgb(0,0,0)" />
	<circle cx="390.324415726839" cy="-622.737158180285" r="2" style="fill: rgb(0,0,0)" />
	<circle cx="386.002575363566" cy="-628.838979697606" r="2" style="fill: rgb(0,0,0)" />
	<circle cx="385.982726473606" cy="-628.979997877271" r="2" style="fill: rgb(0,0,0)" />
	<circle cx="355.584838167653" cy="-643.704401019372" r="2" style="fill: rgb(0,0,0)" />
	<circle cx="307.635957931509" cy="-603.68882556163" r="2" style="fill: rgb(0,0,0)" />
	<circle cx="291.265568111939" cy="-599.604052861416" r="2" style="fill: rgb(0,0,0)" />
	<circle cx="283.144674685136" cy="-603.771757981566" r="2" style="fill: rgb(0,0,0)" />
	<circle cx="224.14015185179" cy="-595.433819383233" r="2" style="fill: rgb(0,0,0)" />
	<circle cx="233.234647670806" cy="-548.529887363424" r="2" style="fill: rgb(0,0,0)" />
	<circle cx="222.29177238474" cy="-90.4237230814506" r="2" style="fill: rgb(0,0,0)" />
	<circle cx="255.886992421348" cy="-86.9307512746087" r="2" style="fill: rgb(0,0,0)" />
	<circle cx="153.611347354659" cy="-155.233808061271" r="2" style="fill: rgb(0,0,0)" />
	<circle cx="127.394360256078" cy="-104.918928493986" r="2" style="fill: rgb(0,0,0)" />
	<circle cx="127.158666197261" cy="-104.310945697518" r="2" style="fill: rgb(0,0,0)" />
	<circle cx="158.292293229444" cy="-53.5" r="2" style="fill: rgb(0,0,0)" />
	<circle cx="208.020754873722" cy="-91.2812320817003" r="2" style="fill: rgb(0,0,0)" />
	<!--
	Generated using the Perl SVG Module V2.86
	by Ronan Oger
	Info: http://www.roitsystems.com/
	-->
</svg>