<?xml version="1.0" encoding="UTF-8" standalone="yes"?>
<!DOCTYPE svg PUBLIC "-//W3C//DTD SVG 1.0//EN" "http://www.w3.org/TR/2001/REC-SVG-20010904/DTD/svg10.dtd">
<!-- generated using polymake; Michael Joswig, Georg Loho, Benjamin Lorenz, Rico Raber; license CC BY-NC-ND 3.0; see polymake.org and matchthenet.de -->
<svg height="841pt" id="document" viewBox="0 -648.54959032966 572 648.54959032966" width="595pt" xmlns="http://www.w3.org/2000/svg" xmlns:svg="http://www.w3.org/2000/svg" xmlns:xlink="http://www.w3.org/1999/xlink">
	<title id="document_title">planar_net_</title>
	<polygon points="376.905510003199,-340.729815087854 399.336574039767,-340.729815087854 434.003686280841,-414.601224004674 427.3873488673,-423.69381013072 396.526807621533,-427.527656247121 " style="fill: rgb(14,173,105); fill-opacity: 1; stroke: rgb(0,0,0); stroke-width: 3" />
	<polygon points="433.315531000964,-150.625209330378 435.093989967965,-199.625339223663 386.711814451995,-201.761828496495 324.820085363464,-133.557937632209 423.436344375845,-132.850435707891 " style="fill: rgb(14,173,105); fill-opacity: 1; stroke: rgb(0,0,0); stroke-width: 3" />
	<polygon points="343.061402937429,-456.072475707009 413.640882374642,-497.082810818474 363.709501105051,-535.360047374409 115.147023389227,-612.04959032966 75.6471166128887,-605.175619848603 " style="fill: rgb(14,173,105); fill-opacity: 1; stroke: rgb(0,0,0); stroke-width: 3" />
	<polygon points="268.774455225919,-265.150221868541 211.564554462078,-275.780534822869 36.4111132327575,-123.975153671864 74.3262530721664,-110.939192776261 324.820085363464,-133.557937632209 386.711814451995,-201.761828496495 " style="fill: rgb(14,173,105); fill-opacity: 1; stroke: rgb(0,0,0); stroke-width: 3" />
	<polygon points="449.853765874143,-410.472982507791 512.327126886584,-363.62495124607 503.795011569059,-418.71861142976 497.388900285793,-421.5981931396 484.621271951779,-423.357047266221 " style="fill: rgb(14,173,105); fill-opacity: 1; stroke: rgb(0,0,0); stroke-width: 3" />
	<polygon points="513.620033951585,-291.861075274869 519.319333315954,-225.830462248574 538.751473857622,-219.836063223382 556.115901776843,-239.435561549717 561.5,-261.093343524119 518.580501970688,-296.833399643679 " style="fill: rgb(14,173,105); fill-opacity: 1; stroke: rgb(0,0,0); stroke-width: 3" />
	<polygon points="328.029486122374,-53.5 414.693701241527,-87.5035523850273 421.241711926745,-112.85680163779 324.820085363464,-133.557937632209 74.3262530721664,-110.939192776261 " style="fill: rgb(14,173,105); fill-opacity: 1; stroke: rgb(0,0,0); stroke-width: 3" />
	<polygon points="446.692907976297,-292.382445988198 399.336574039767,-340.729815087854 376.905510003199,-340.729815087854 356.252384473358,-338.817721482754 211.564554462078,-275.780534822869 268.774455225919,-265.150221868541 443.347151515172,-275.467311987472 " style="fill: rgb(14,173,105); fill-opacity: 1; stroke: rgb(0,0,0); stroke-width: 3" />
	<polygon points="376.905510003199,-340.729815087854 396.526807621533,-427.527656247121 382.835040692891,-429.71395694989 356.176712925282,-340.005475520673 " style="fill: rgb(14,173,105); fill-opacity: 1; stroke: rgb(0,0,0); stroke-width: 3" />
	<polygon points="491.939683950687,-475.585024189397 484.621271951779,-423.357047266221 497.49382363577,-422.721976988928 508.600566139843,-477.458392595574 " style="fill: rgb(14,173,105); fill-opacity: 1; stroke: rgb(0,0,0); stroke-width: 3" />
	<polygon points="443.347151515172,-275.467311987472 268.774455225919,-265.150221868541 393.418768647792,-216.251303198514 440.905305466441,-225.760683569654 " style="fill: rgb(14,173,105); fill-opacity: 1; stroke: rgb(0,0,0); stroke-width: 3" />
	<polygon points="427.3873488673,-423.69381013072 434.003686280841,-414.601224004674 449.853765874143,-410.472982507791 484.621271951779,-423.357047266221 491.939683950687,-475.585024189397 463.011199263994,-481.483808697851 " style="fill: rgb(14,173,105); fill-opacity: 1; stroke: rgb(0,0,0); stroke-width: 3" />
	<polygon points="382.835040692891,-429.71395694989 337.459039290498,-443.422799544747 33.5,-480.17943917584 199.7953153977,-318.719011213875 356.176712925282,-340.005475520673 " style="fill: rgb(14,173,105); fill-opacity: 1; stroke: rgb(0,0,0); stroke-width: 3" />
	<polygon points="463.011199263994,-481.483808697851 491.939683950687,-475.585024189397 508.273797308954,-479.365400533857 528.592711328686,-488.595230802392 464.332754813133,-555.956835189796 460.921346681838,-493.134450895574 " style="fill: rgb(14,173,105); fill-opacity: 1; stroke: rgb(0,0,0); stroke-width: 3" />
	<polygon points="396.526807621533,-427.527656247121 427.3873488673,-423.69381013072 424.078635717605,-491.500853044904 413.640882374642,-497.082810818474 343.061402937429,-456.072475707009 382.989491584414,-430.525233085564 " style="fill: rgb(14,173,105); fill-opacity: 1; stroke: rgb(0,0,0); stroke-width: 3" />
	<polygon points="434.003686280841,-414.601224004674 399.336574039767,-340.729815087854 461.872726026367,-314.858592513807 463.469966659664,-327.389977978397 446.056864421561,-403.5112150922 " style="fill: rgb(14,173,105); fill-opacity: 1; stroke: rgb(0,0,0); stroke-width: 3" />
	<polygon points="458.17174134288,-297.657214594026 446.692907976297,-292.382445988198 443.347151515172,-275.467311987472 470.986129276789,-234.081342999345 519.319333315954,-225.830462248574 513.620033951585,-291.861075274869 " style="fill: rgb(14,173,105); fill-opacity: 1; stroke: rgb(0,0,0); stroke-width: 3" />
	<circle cx="376.905510003199" cy="-340.729815087854" r="2" style="fill: rgb(0,0,0)" />
	<circle cx="399.336574039767" cy="-340.729815087854" r="2" style="fill: rgb(0,0,0)" />
	<circle cx="434.003686280841" cy="-414.601224004674" r="2" style="fill: rgb(0,0,0)" />
	<circle cx="427.3873488673" cy="-423.69381013072" r="2" style="fill: rgb(0,0,0)" />
	<circle cx="396.526807621533" cy="-427.527656247121" r="2" style="fill: rgb(0,0,0)" />
	<circle cx="356.252384473358" cy="-338.817721482754" r="2" style="fill: rgb(0,0,0)" />
	<circle cx="211.564554462078" cy="-275.780534822869" r="2" style="fill: rgb(0,0,0)" />
	<circle cx="268.774455225919" cy="-265.150221868541" r="2" style="fill: rgb(0,0,0)" />
	<circle cx="443.347151515172" cy="-275.467311987472" r="2" style="fill: rgb(0,0,0)" />
	<circle cx="446.692907976297" cy="-292.382445988198" r="2" style="fill: rgb(0,0,0)" />
	<circle cx="382.835040692891" cy="-429.71395694989" r="2" style="fill: rgb(0,0,0)" />
	<circle cx="356.176712925282" cy="-340.005475520673" r="2" style="fill: rgb(0,0,0)" />
	<circle cx="449.853765874143" cy="-410.472982507791" r="2" style="fill: rgb(0,0,0)" />
	<circle cx="484.621271951779" cy="-423.357047266221" r="2" style="fill: rgb(0,0,0)" />
	<circle cx="491.939683950687" cy="-475.585024189397" r="2" style="fill: rgb(0,0,0)" />
	<circle cx="463.011199263994" cy="-481.483808697851" r="2" style="fill: rgb(0,0,0)" />
	<circle cx="424.078635717605" cy="-491.500853044904" r="2" style="fill: rgb(0,0,0)" />
	<circle cx="413.640882374642" cy="-497.082810818474" r="2" style="fill: rgb(0,0,0)" />
	<circle cx="343.061402937429" cy="-456.072475707009" r="2" style="fill: rgb(0,0,0)" />
	<circle cx="382.989491584414" cy="-430.525233085564" r="2" style="fill: rgb(0,0,0)" />
	<circle cx="461.872726026367" cy="-314.858592513807" r="2" style="fill: rgb(0,0,0)" />
	<circle cx="463.469966659664" cy="-327.389977978397" r="2" style="fill: rgb(0,0,0)" />
	<circle cx="446.056864421561" cy="-403.5112150922" r="2" style="fill: rgb(0,0,0)" />
	<circle cx="36.4111132327575" cy="-123.975153671864" r="2" style="fill: rgb(0,0,0)" />
	<circle cx="74.3262530721664" cy="-110.939192776261" r="2" style="fill: rgb(0,0,0)" />
	<circle cx="324.820085363464" cy="-133.557937632209" r="2" style="fill: rgb(0,0,0)" />
	<circle cx="386.711814451995" cy="-201.761828496495" r="2" style="fill: rgb(0,0,0)" />
	<circle cx="393.418768647792" cy="-216.251303198514" r="2" style="fill: rgb(0,0,0)" />
	<circle cx="440.905305466441" cy="-225.760683569654" r="2" style="fill: rgb(0,0,0)" />
	<circle cx="470.986129276789" cy="-234.081342999345" r="2" style="fill: rgb(0,0,0)" />
	<circle cx="519.319333315954" cy="-225.830462248574" r="2" style="fill: rgb(0,0,0)" />
	<circle cx="513.620033951585" cy="-291.861075274869" r="2" style="fill: rgb(0,0,0)" />
	<circle cx="458.17174134288" cy="-297.657214594026" r="2" style="fill: rgb(0,0,0)" />
	<circle cx="337.459039290498" cy="-443.422799544747" r="2" style="fill: rgb(0,0,0)" />
	<circle cx="33.5" cy="-480.17943917584" r="2" style="fill: rgb(0,0,0)" />
	<circle cx="199.7953153977" cy="-318.719011213875" r="2" style="fill: rgb(0,0,0)" />
	<circle cx="512.327126886584" cy="-363.62495124607" r="2" style="fill: rgb(0,0,0)" />
	<circle cx="503.795011569059" cy="-418.71861142976" r="2" style="fill: rgb(0,0,0)" />
	<circle cx="497.388900285793" cy="-421.5981931396" r="2" style="fill: rgb(0,0,0)" />
	<circle cx="497.49382363577" cy="-422.721976988928" r="2" style="fill: rgb(0,0,0)" />
	<circle cx="508.600566139843" cy="-477.458392595574" r="2" style="fill: rgb(0,0,0)" />
	<circle cx="508.273797308954" cy="-479.365400533857" r="2" style="fill: rgb(0,0,0)" />
	<circle cx="528.592711328686" cy="-488.595230802392" r="2" style="fill: rgb(0,0,0)" />
	<circle cx="464.332754813133" cy="-555.956835189796" r="2" style="fill: rgb(0,0,0)" />
	<circle cx="460.921346681838" cy="-493.134450895574" r="2" style="fill: rgb(0,0,0)" />
	<circle cx="363.709501105051" cy="-535.360047374409" r="2" style="fill: rgb(0,0,0)" />
	<circle cx="115.147023389227" cy="-612.04959032966" r="2" style="fill: rgb(0,0,0)" />
	<circle cx="75.6471166128887" cy="-605.175619848603" r="2" style="fill: rgb(0,0,0)" />
	<circle cx="423.436344375845" cy="-132.850435707891" r="2" style="fill: rgb(0,0,0)" />
	<circle cx="433.315531000964" cy="-150.625209330378" r="2" style="fill: rgb(0,0,0)" />
	<circle cx="435.093989967965" cy="-199.625339223663" r="2" style="fill: rgb(0,0,0)" />
	<circle cx="328.029486122374" cy="-53.5" r="2" style="fill: rgb(0,0,0)" />
	<circle cx="414.693701241527" cy="-87.5035523850273" r="2" style="fill: rgb(0,0,0)" />
	<circle cx="421.241711926745" cy="-112.85680163779" r="2" style="fill: rgb(0,0,0)" />
	<circle cx="538.751473857622" cy="-219.836063223382" r="2" style="fill: rgb(0,0,0)" />
	<circle cx="556.115901776843" cy="-239.435561549717" r="2" style="fill: rgb(0,0,0)" />
	<circle cx="561.5" cy="-261.093343524119" r="2" style="fill: rgb(0,0,0)" />
	<circle cx="518.580501970688" cy="-296.833399643679" r="2" style="fill: rgb(0,0,0)" />
	<!--
	Generated using the Perl SVG Module V2.87
	by Ronan Oger

	-->
</svg>