<?xml version="1.0" encoding="UTF-8" standalone="yes"?>
<!DOCTYPE svg PUBLIC "-//W3C//DTD SVG 1.0//EN" "http://www.w3.org/TR/2001/REC-SVG-20010904/DTD/svg10.dtd">
<!-- generated using polymake; Michael Joswig, Georg Loho, Benjamin Lorenz, Rico Raber; license CC BY-NC-ND 3.0; see polymake.org and matchthenet.de -->
<svg height="841pt" id="document" viewBox="0 -730.590355101162 572 730.590355101162" width="595pt" xmlns="http://www.w3.org/2000/svg" xmlns:svg="http://www.w3.org/2000/svg" xmlns:xlink="http://www.w3.org/1999/xlink">
	<title id="document_title">planar_net_</title>
	<polygon points="290.102587214722,-346.804574785999 377.981545801799,-346.804574785999 373.219929010991,-420.785593184156 344.892160010773,-433.392523916595 324.272883928931,-418.037547925362 289.966240294441,-348.847788436363 " style="fill: rgb(238,66,102); fill-opacity: 1; stroke: rgb(0,0,0); stroke-width: 3" />
	<polygon points="211.42402628258,-559.589422838749 229.44565144647,-557.802554433799 352.149217687846,-619.737501759341 290.557114539044,-694.090355101162 252.364699814668,-674.457961125325 " style="fill: rgb(255,210,63); fill-opacity: 1; stroke: rgb(0,0,0); stroke-width: 3" />
	<polygon points="132.843636506903,-444.217795923281 100.03379971831,-464.48586307139 33.5,-362.289124706573 128.360296547886,-259.40268839612 170.714382873879,-288.491483212515 137.990090119987,-437.817928782678 " style="fill: rgb(238,66,102); fill-opacity: 1; stroke: rgb(0,0,0); stroke-width: 3" />
	<polygon points="403.515033890265,-101.560994443604 345.361246569916,-193.70554532783 301.307634816628,-188.154120797675 339.417507422356,-53.5 380.88313845321,-64.6665965680662 " style="fill: rgb(255,210,63); fill-opacity: 1; stroke: rgb(0,0,0); stroke-width: 3" />
	<polygon points="378.246119824586,-346.459537817559 377.981545801799,-346.804574785999 290.102587214722,-346.804574785999 287.525598728746,-327.557551089499 360.911996908256,-288.0579196491 373.099158201053,-307.202753221872 " style="fill: rgb(238,66,102); fill-opacity: 1; stroke: rgb(0,0,0); stroke-width: 3" />
	<polygon points="484.196776900179,-371.502830592876 479.451907266601,-366.621175896999 470.839062778637,-316.808819495626 490.813920947867,-236.841602312885 509.175079592732,-220.365767253703 561.5,-315.940784605178 " style="fill: rgb(238,66,102); fill-opacity: 1; stroke: rgb(0,0,0); stroke-width: 3" />
	<polygon points="290.102587214722,-346.804574785999 289.966240294441,-348.847788436363 242.149432029529,-388.268763607133 137.990090119987,-437.817928782678 170.714382873879,-288.491483212515 276.91466743396,-332.55088885264 " style="fill: rgb(238,66,102); fill-opacity: 1; stroke: rgb(0,0,0); stroke-width: 3" />
	<polygon points="344.892160010773,-433.392523916595 373.219929010991,-420.785593184156 461.150349386734,-463.154688108282 445.944020387467,-509.856393231446 350.113975755031,-476.299895727786 " style="fill: rgb(255,210,63); fill-opacity: 1; stroke: rgb(0,0,0); stroke-width: 3" />
	<polygon points="350.113975755031,-476.299895727786 445.944020387467,-509.856393231446 443.699369323463,-520.965084126667 334.365817667878,-604.261406680218 " style="fill: rgb(67,184,206); fill-opacity: 1; stroke: rgb(0,0,0); stroke-width: 3" />
	<polygon points="461.150349386734,-463.154688108282 513.338673831993,-450.181826277633 554.70762906792,-535.922941261306 529.068061634711,-570.79430297131 446.237328601221,-521.185799310151 445.944020387467,-509.856393231446 " style="fill: rgb(238,66,102); fill-opacity: 1; stroke: rgb(0,0,0); stroke-width: 3" />
	<polygon points="373.099158201053,-307.202753221872 360.911996908256,-288.0579196491 368.662501603319,-215.272388072234 426.766414761795,-273.733367011242 " style="fill: rgb(67,184,206); fill-opacity: 1; stroke: rgb(0,0,0); stroke-width: 3" />
	<polygon points="289.966240294441,-348.847788436363 324.272883928931,-418.037547925362 286.141080796044,-426.800980274328 255.823599967114,-400.56568231786 " style="fill: rgb(67,184,206); fill-opacity: 1; stroke: rgb(0,0,0); stroke-width: 3" />
	<polygon points="261.982027331136,-423.11282574518 135.891710953709,-445.757770662931 137.990090119987,-437.817928782678 242.149432029529,-388.268763607133 " style="fill: rgb(67,184,206); fill-opacity: 1; stroke: rgb(0,0,0); stroke-width: 3" />
	<polygon points="472.733302069479,-305.269724441806 378.246119824586,-346.459537817559 373.099158201053,-307.202753221872 429.636015436115,-278.848599839073 " style="fill: rgb(67,184,206); fill-opacity: 1; stroke: rgb(0,0,0); stroke-width: 3" />
	<polygon points="287.525598728746,-327.557551089499 258.349854134236,-216.343758809234 301.307634816628,-188.154120797675 345.361246569916,-193.70554532783 357.95082229353,-214.920819796445 360.911996908256,-288.0579196491 " style="fill: rgb(238,66,102); fill-opacity: 1; stroke: rgb(0,0,0); stroke-width: 3" />
	<polygon points="373.219929010991,-420.785593184156 377.981545801799,-346.804574785999 378.346483495772,-346.568205577677 479.451907266601,-366.621175896999 484.196776900179,-371.502830592876 470.785746611523,-423.580278870195 " style="fill: rgb(238,66,102); fill-opacity: 1; stroke: rgb(0,0,0); stroke-width: 3" />
	<polygon points="324.272883928931,-418.037547925362 344.892160010773,-433.392523916595 325.84875005572,-472.195338926527 229.44565144647,-557.802554433799 211.42402628258,-559.589422838749 196.759728697018,-523.920973021902 289.050168443481,-435.072584483336 " style="fill: rgb(84,13,110); fill-opacity: 1; stroke: rgb(0,0,0); stroke-width: 3" />
	<circle cx="290.102587214722" cy="-346.804574785999" r="2" style="fill: rgb(0,0,0)" />
	<circle cx="377.981545801799" cy="-346.804574785999" r="2" style="fill: rgb(0,0,0)" />
	<circle cx="373.219929010991" cy="-420.785593184156" r="2" style="fill: rgb(0,0,0)" />
	<circle cx="344.892160010773" cy="-433.392523916595" r="2" style="fill: rgb(0,0,0)" />
	<circle cx="324.272883928931" cy="-418.037547925362" r="2" style="fill: rgb(0,0,0)" />
	<circle cx="289.966240294441" cy="-348.847788436363" r="2" style="fill: rgb(0,0,0)" />
	<circle cx="287.525598728746" cy="-327.557551089499" r="2" style="fill: rgb(0,0,0)" />
	<circle cx="360.911996908256" cy="-288.0579196491" r="2" style="fill: rgb(0,0,0)" />
	<circle cx="373.099158201053" cy="-307.202753221872" r="2" style="fill: rgb(0,0,0)" />
	<circle cx="378.246119824586" cy="-346.459537817559" r="2" style="fill: rgb(0,0,0)" />
	<circle cx="242.149432029529" cy="-388.268763607133" r="2" style="fill: rgb(0,0,0)" />
	<circle cx="137.990090119987" cy="-437.817928782678" r="2" style="fill: rgb(0,0,0)" />
	<circle cx="170.714382873879" cy="-288.491483212515" r="2" style="fill: rgb(0,0,0)" />
	<circle cx="276.91466743396" cy="-332.55088885264" r="2" style="fill: rgb(0,0,0)" />
	<circle cx="461.150349386734" cy="-463.154688108282" r="2" style="fill: rgb(0,0,0)" />
	<circle cx="445.944020387467" cy="-509.856393231446" r="2" style="fill: rgb(0,0,0)" />
	<circle cx="350.113975755031" cy="-476.299895727786" r="2" style="fill: rgb(0,0,0)" />
	<circle cx="286.141080796044" cy="-426.800980274328" r="2" style="fill: rgb(0,0,0)" />
	<circle cx="255.823599967114" cy="-400.56568231786" r="2" style="fill: rgb(0,0,0)" />
	<circle cx="378.346483495772" cy="-346.568205577677" r="2" style="fill: rgb(0,0,0)" />
	<circle cx="479.451907266601" cy="-366.621175896999" r="2" style="fill: rgb(0,0,0)" />
	<circle cx="484.196776900179" cy="-371.502830592876" r="2" style="fill: rgb(0,0,0)" />
	<circle cx="470.785746611523" cy="-423.580278870195" r="2" style="fill: rgb(0,0,0)" />
	<circle cx="325.84875005572" cy="-472.195338926527" r="2" style="fill: rgb(0,0,0)" />
	<circle cx="229.44565144647" cy="-557.802554433799" r="2" style="fill: rgb(0,0,0)" />
	<circle cx="211.42402628258" cy="-559.589422838749" r="2" style="fill: rgb(0,0,0)" />
	<circle cx="196.759728697018" cy="-523.920973021902" r="2" style="fill: rgb(0,0,0)" />
	<circle cx="289.050168443481" cy="-435.072584483336" r="2" style="fill: rgb(0,0,0)" />
	<circle cx="368.662501603319" cy="-215.272388072234" r="2" style="fill: rgb(0,0,0)" />
	<circle cx="426.766414761795" cy="-273.733367011242" r="2" style="fill: rgb(0,0,0)" />
	<circle cx="429.636015436115" cy="-278.848599839073" r="2" style="fill: rgb(0,0,0)" />
	<circle cx="472.733302069479" cy="-305.269724441806" r="2" style="fill: rgb(0,0,0)" />
	<circle cx="258.349854134236" cy="-216.343758809234" r="2" style="fill: rgb(0,0,0)" />
	<circle cx="301.307634816628" cy="-188.154120797675" r="2" style="fill: rgb(0,0,0)" />
	<circle cx="345.361246569916" cy="-193.70554532783" r="2" style="fill: rgb(0,0,0)" />
	<circle cx="357.95082229353" cy="-214.920819796445" r="2" style="fill: rgb(0,0,0)" />
	<circle cx="132.843636506903" cy="-444.217795923281" r="2" style="fill: rgb(0,0,0)" />
	<circle cx="100.03379971831" cy="-464.48586307139" r="2" style="fill: rgb(0,0,0)" />
	<circle cx="33.5" cy="-362.289124706573" r="2" style="fill: rgb(0,0,0)" />
	<circle cx="128.360296547886" cy="-259.40268839612" r="2" style="fill: rgb(0,0,0)" />
	<circle cx="261.982027331136" cy="-423.11282574518" r="2" style="fill: rgb(0,0,0)" />
	<circle cx="135.891710953709" cy="-445.757770662931" r="2" style="fill: rgb(0,0,0)" />
	<circle cx="443.699369323463" cy="-520.965084126667" r="2" style="fill: rgb(0,0,0)" />
	<circle cx="334.365817667878" cy="-604.261406680218" r="2" style="fill: rgb(0,0,0)" />
	<circle cx="513.338673831993" cy="-450.181826277633" r="2" style="fill: rgb(0,0,0)" />
	<circle cx="554.70762906792" cy="-535.922941261306" r="2" style="fill: rgb(0,0,0)" />
	<circle cx="529.068061634711" cy="-570.79430297131" r="2" style="fill: rgb(0,0,0)" />
	<circle cx="446.237328601221" cy="-521.185799310151" r="2" style="fill: rgb(0,0,0)" />
	<circle cx="470.839062778637" cy="-316.808819495626" r="2" style="fill: rgb(0,0,0)" />
	<circle cx="490.813920947867" cy="-236.841602312885" r="2" style="fill: rgb(0,0,0)" />
	<circle cx="509.175079592732" cy="-220.365767253703" r="2" style="fill: rgb(0,0,0)" />
	<circle cx="561.5" cy="-315.940784605178" r="2" style="fill: rgb(0,0,0)" />
	<circle cx="352.149217687846" cy="-619.737501759341" r="2" style="fill: rgb(0,0,0)" />
	<circle cx="290.557114539044" cy="-694.090355101162" r="2" style="fill: rgb(0,0,0)" />
	<circle cx="252.364699814668" cy="-674.457961125325" r="2" style="fill: rgb(0,0,0)" />
	<circle cx="339.417507422356" cy="-53.5" r="2" style="fill: rgb(0,0,0)" />
	<circle cx="380.88313845321" cy="-64.6665965680662" r="2" style="fill: rgb(0,0,0)" />
	<circle cx="403.515033890265" cy="-101.560994443604" r="2" style="fill: rgb(0,0,0)" />
	<!--
	Generated using the Perl SVG Module V2.86
	by Ronan Oger
	Info: http://www.roitsystems.com/
	-->
</svg>