<?xml version="1.0" encoding="UTF-8" standalone="yes"?>
<!DOCTYPE svg PUBLIC "-//W3C//DTD SVG 1.0//EN" "http://www.w3.org/TR/2001/REC-SVG-20010904/DTD/svg10.dtd">
<!-- generated using polymake; Michael Joswig, Georg Loho, Benjamin Lorenz, Rico Raber; license CC BY-NC-SA 3.0; see polymake.org and matchthenet.de -->
<svg height="841pt" id="document" viewBox="0 -811 527.474193465585 811" width="595pt" xmlns="http://www.w3.org/2000/svg" xmlns:svg="http://www.w3.org/2000/svg" xmlns:xlink="http://www.w3.org/1999/xlink">
	<title id="document_title">planar_net_</title>
	<polygon points="33.5,-407.877597210863 187.211599326608,-407.877597210863 462.72550686533,-705.993257384265 457.284765120963,-721.020039815126 455.474476965005,-723.234526902545 433.7958088241,-737.682285781738 " style="fill: rgb(14,173,105); fill-opacity: 1; stroke: rgb(0,0,0); stroke-width: 3" />
	<polygon points="401.70242980431,-208.316492776964 187.211599326608,-407.877597210863 33.5,-407.877597210863 443.215457956273,-91.0452100621384 445.42602416417,-90.7677064292742 460.873260369307,-101.837643930903 " style="fill: rgb(14,173,105); fill-opacity: 1; stroke: rgb(0,0,0); stroke-width: 3" />
	<polygon points="33.5,-407.877597210863 433.7958088241,-737.682285781738 433.290801339286,-758.405721691375 399.338122409142,-774.5 " style="fill: rgb(14,173,105); fill-opacity: 1; stroke: rgb(0,0,0); stroke-width: 3" />
	<polygon points="462.72550686533,-705.993257384265 187.211599326608,-407.877597210863 412.089701131753,-595.656163853514 492.853454080877,-683.130775198264 491.547652526815,-692.663615338058 481.915653983241,-703.667628674971 480.664764269831,-704.367219132748 " style="fill: rgb(14,173,105); fill-opacity: 1; stroke: rgb(0,0,0); stroke-width: 3" />
	<polygon points="433.7958088241,-737.682285781738 455.474476965005,-723.234526902545 472.342472744907,-729.814701336966 475.93934698891,-736.258834001462 476.435865419525,-740.760451899674 469.341612747758,-748.316895598096 451.918035896084,-747.747111384405 " style="fill: rgb(14,173,105); fill-opacity: 1; stroke: rgb(0,0,0); stroke-width: 3" />
	<polygon points="466.853394554787,-73.9731318616797 469.692690355172,-83.8631159710597 463.820299821707,-89.9359691181205 456.605691135782,-86.3092679924715 " style="fill: rgb(14,173,105); fill-opacity: 1; stroke: rgb(0,0,0); stroke-width: 3" />
	<polygon points="481.915653983241,-703.667628674971 491.547652526815,-692.663615338058 499.650730627278,-715.440203402633 496.15970565915,-726.049314686631 492.247008786849,-723.76854783337 " style="fill: rgb(14,173,105); fill-opacity: 1; stroke: rgb(0,0,0); stroke-width: 3" />
	<polygon points="473.386008884162,-89.3130257099121 472.105914315146,-92.1342026995412 467.347024092588,-92.9796987319795 463.820299821707,-89.9359691181205 469.850714430703,-84.0200063421367 " style="fill: rgb(14,173,105); fill-opacity: 1; stroke: rgb(0,0,0); stroke-width: 3" />
	<polygon points="483.357433177717,-112.107752313432 463.291889583094,-101.420983425175 467.347024092588,-92.9796987319795 472.163554360959,-92.576045582397 " style="fill: rgb(14,173,105); fill-opacity: 1; stroke: rgb(0,0,0); stroke-width: 3" />
	<polygon points="460.873260369307,-101.837643930903 445.42602416417,-90.7677064292742 456.605691135782,-86.3092679924715 463.820299821707,-89.9359691181205 467.347024092588,-92.9796987319795 463.291889583094,-101.420983425175 " style="fill: rgb(14,173,105); fill-opacity: 1; stroke: rgb(0,0,0); stroke-width: 3" />
	<polygon points="457.284765120963,-721.020039815126 462.72550686533,-705.993257384265 480.424622904921,-709.340233338581 472.823751126111,-719.290229655557 " style="fill: rgb(14,173,105); fill-opacity: 1; stroke: rgb(0,0,0); stroke-width: 3" />
	<polygon points="491.547652526815,-692.663615338058 492.853454080877,-683.130775198264 500.201465015927,-686.31604928884 516.974193465585,-701.331576956717 516.033819250246,-704.283420117787 508.141501978363,-710.244201191335 " style="fill: rgb(14,173,105); fill-opacity: 1; stroke: rgb(0,0,0); stroke-width: 3" />
	<polygon points="444.687667927366,-53.5 460.408639315807,-61.0337071193443 460.687762548995,-68.9396092393525 455.442923018706,-84.0950484709561 445.42602416417,-90.7677064292742 443.215457956273,-91.0452100621384 " style="fill: rgb(14,173,105); fill-opacity: 1; stroke: rgb(0,0,0); stroke-width: 3" />
	<polygon points="469.341612747758,-748.316895598096 476.435865419525,-740.760451899674 487.591362079509,-740.21695228243 491.861587650105,-749.137981175053 486.109641929851,-751.863688667015 475.862460381792,-752.795706181714 " style="fill: rgb(14,173,105); fill-opacity: 1; stroke: rgb(0,0,0); stroke-width: 3" />
	<polygon points="484.924140475239,-123.176970266319 401.70242980431,-208.316492776964 460.873260369307,-101.837643930903 463.32316951091,-101.691635544554 480.659650760258,-116.398079265241 " style="fill: rgb(14,173,105); fill-opacity: 1; stroke: rgb(0,0,0); stroke-width: 3" />
	<polygon points="480.424622904921,-709.340233338581 481.853216611833,-709.225029587333 479.030261889348,-731.648561194213 473.805631904336,-726.436307205342 472.823751126111,-719.290229655557 " style="fill: rgb(14,173,105); fill-opacity: 1; stroke: rgb(0,0,0); stroke-width: 3" />
	<polygon points="455.474476965005,-723.234526902545 457.284765120963,-721.020039815126 472.916302821628,-720.692383945194 472.967639675581,-727.905419279754 " style="fill: rgb(14,173,105); fill-opacity: 1; stroke: rgb(0,0,0); stroke-width: 3" />
	<circle cx="33.5" cy="-407.877597210863" r="2" style="fill: rgb(0,0,0)" />
	<circle cx="187.211599326608" cy="-407.877597210863" r="2" style="fill: rgb(0,0,0)" />
	<circle cx="462.72550686533" cy="-705.993257384265" r="2" style="fill: rgb(0,0,0)" />
	<circle cx="457.284765120963" cy="-721.020039815126" r="2" style="fill: rgb(0,0,0)" />
	<circle cx="455.474476965005" cy="-723.234526902545" r="2" style="fill: rgb(0,0,0)" />
	<circle cx="433.7958088241" cy="-737.682285781738" r="2" style="fill: rgb(0,0,0)" />
	<circle cx="443.215457956273" cy="-91.0452100621384" r="2" style="fill: rgb(0,0,0)" />
	<circle cx="445.42602416417" cy="-90.7677064292742" r="2" style="fill: rgb(0,0,0)" />
	<circle cx="460.873260369307" cy="-101.837643930903" r="2" style="fill: rgb(0,0,0)" />
	<circle cx="401.70242980431" cy="-208.316492776964" r="2" style="fill: rgb(0,0,0)" />
	<circle cx="433.290801339286" cy="-758.405721691375" r="2" style="fill: rgb(0,0,0)" />
	<circle cx="399.338122409142" cy="-774.5" r="2" style="fill: rgb(0,0,0)" />
	<circle cx="412.089701131753" cy="-595.656163853514" r="2" style="fill: rgb(0,0,0)" />
	<circle cx="492.853454080877" cy="-683.130775198264" r="2" style="fill: rgb(0,0,0)" />
	<circle cx="491.547652526815" cy="-692.663615338058" r="2" style="fill: rgb(0,0,0)" />
	<circle cx="481.915653983241" cy="-703.667628674971" r="2" style="fill: rgb(0,0,0)" />
	<circle cx="480.664764269831" cy="-704.367219132748" r="2" style="fill: rgb(0,0,0)" />
	<circle cx="472.342472744907" cy="-729.814701336966" r="2" style="fill: rgb(0,0,0)" />
	<circle cx="475.93934698891" cy="-736.258834001462" r="2" style="fill: rgb(0,0,0)" />
	<circle cx="476.435865419525" cy="-740.760451899674" r="2" style="fill: rgb(0,0,0)" />
	<circle cx="469.341612747758" cy="-748.316895598096" r="2" style="fill: rgb(0,0,0)" />
	<circle cx="451.918035896084" cy="-747.747111384405" r="2" style="fill: rgb(0,0,0)" />
	<circle cx="480.424622904921" cy="-709.340233338581" r="2" style="fill: rgb(0,0,0)" />
	<circle cx="472.823751126111" cy="-719.290229655557" r="2" style="fill: rgb(0,0,0)" />
	<circle cx="472.916302821628" cy="-720.692383945194" r="2" style="fill: rgb(0,0,0)" />
	<circle cx="472.967639675581" cy="-727.905419279754" r="2" style="fill: rgb(0,0,0)" />
	<circle cx="456.605691135782" cy="-86.3092679924715" r="2" style="fill: rgb(0,0,0)" />
	<circle cx="463.820299821707" cy="-89.9359691181205" r="2" style="fill: rgb(0,0,0)" />
	<circle cx="467.347024092588" cy="-92.9796987319795" r="2" style="fill: rgb(0,0,0)" />
	<circle cx="463.291889583094" cy="-101.420983425175" r="2" style="fill: rgb(0,0,0)" />
	<circle cx="444.687667927366" cy="-53.5" r="2" style="fill: rgb(0,0,0)" />
	<circle cx="460.408639315807" cy="-61.0337071193443" r="2" style="fill: rgb(0,0,0)" />
	<circle cx="460.687762548995" cy="-68.9396092393525" r="2" style="fill: rgb(0,0,0)" />
	<circle cx="455.442923018706" cy="-84.0950484709561" r="2" style="fill: rgb(0,0,0)" />
	<circle cx="463.32316951091" cy="-101.691635544554" r="2" style="fill: rgb(0,0,0)" />
	<circle cx="480.659650760258" cy="-116.398079265241" r="2" style="fill: rgb(0,0,0)" />
	<circle cx="484.924140475239" cy="-123.176970266319" r="2" style="fill: rgb(0,0,0)" />
	<circle cx="499.650730627278" cy="-715.440203402633" r="2" style="fill: rgb(0,0,0)" />
	<circle cx="496.15970565915" cy="-726.049314686631" r="2" style="fill: rgb(0,0,0)" />
	<circle cx="492.247008786849" cy="-723.76854783337" r="2" style="fill: rgb(0,0,0)" />
	<circle cx="500.201465015927" cy="-686.31604928884" r="2" style="fill: rgb(0,0,0)" />
	<circle cx="516.974193465585" cy="-701.331576956717" r="2" style="fill: rgb(0,0,0)" />
	<circle cx="516.033819250246" cy="-704.283420117787" r="2" style="fill: rgb(0,0,0)" />
	<circle cx="508.141501978363" cy="-710.244201191335" r="2" style="fill: rgb(0,0,0)" />
	<circle cx="487.591362079509" cy="-740.21695228243" r="2" style="fill: rgb(0,0,0)" />
	<circle cx="491.861587650105" cy="-749.137981175053" r="2" style="fill: rgb(0,0,0)" />
	<circle cx="486.109641929851" cy="-751.863688667015" r="2" style="fill: rgb(0,0,0)" />
	<circle cx="475.862460381792" cy="-752.795706181714" r="2" style="fill: rgb(0,0,0)" />
	<circle cx="481.853216611833" cy="-709.225029587333" r="2" style="fill: rgb(0,0,0)" />
	<circle cx="479.030261889348" cy="-731.648561194213" r="2" style="fill: rgb(0,0,0)" />
	<circle cx="473.805631904336" cy="-726.436307205342" r="2" style="fill: rgb(0,0,0)" />
	<circle cx="466.853394554787" cy="-73.9731318616797" r="2" style="fill: rgb(0,0,0)" />
	<circle cx="469.692690355172" cy="-83.8631159710597" r="2" style="fill: rgb(0,0,0)" />
	<circle cx="469.850714430703" cy="-84.0200063421367" r="2" style="fill: rgb(0,0,0)" />
	<circle cx="473.386008884162" cy="-89.3130257099121" r="2" style="fill: rgb(0,0,0)" />
	<circle cx="472.105914315146" cy="-92.1342026995412" r="2" style="fill: rgb(0,0,0)" />
	<circle cx="472.163554360959" cy="-92.576045582397" r="2" style="fill: rgb(0,0,0)" />
	<circle cx="483.357433177717" cy="-112.107752313432" r="2" style="fill: rgb(0,0,0)" />
	<!-- 
	Generated using the Perl SVG Module V2.64
	by Ronan Oger
	Info: http://www.roitsystems.com/
 -->
</svg>