<?xml version="1.0" encoding="UTF-8" standalone="yes"?>
<!DOCTYPE svg PUBLIC "-//W3C//DTD SVG 1.0//EN" "http://www.w3.org/TR/2001/REC-SVG-20010904/DTD/svg10.dtd">
<!-- generated using polymake; Michael Joswig, Georg Loho, Benjamin Lorenz, Rico Raber; license CC BY-NC-SA 3.0; see polymake.org and matchthenet.de -->
<svg height="841pt" id="document" viewBox="0 -779.56527256865 572 779.56527256865" width="595pt" xmlns="http://www.w3.org/2000/svg" xmlns:svg="http://www.w3.org/2000/svg" xmlns:xlink="http://www.w3.org/1999/xlink">
	<title id="document_title">planar_net_</title>
	<polygon points="134.170690365109,-364.60817895032 341.553893295063,-364.60817895032 286.522289251429,-512.149184984741 33.5,-454.541719037921 " style="fill: rgb(14,173,105); fill-opacity: 1; stroke: rgb(0,0,0); stroke-width: 3" />
	<polygon points="345.756159037949,-353.25690670646 341.553893295063,-364.60817895032 134.170690365109,-364.60817895032 257.520340436003,-255.894354219973 342.373642395495,-340.216713531278 " style="fill: rgb(14,173,105); fill-opacity: 1; stroke: rgb(0,0,0); stroke-width: 3" />
	<polygon points="134.170690365109,-364.60817895032 33.5,-454.541719037921 72.5733500174074,-156.355970149024 223.940448171526,-147.183094420847 226.63185298747,-148.554406377978 246.244529906037,-244.303206689527 " style="fill: rgb(14,173,105); fill-opacity: 1; stroke: rgb(0,0,0); stroke-width: 3" />
	<polygon points="369.861245233535,-479.851474240401 454.696366003449,-394.861301781761 497.614988731647,-372.183268351488 561.5,-473.022192124815 " style="fill: rgb(14,173,105); fill-opacity: 1; stroke: rgb(0,0,0); stroke-width: 3" />
	<polygon points="257.520340436003,-255.894354219973 330.177146217749,-190.522506834348 369.70582014515,-227.024448015521 378.407862427253,-239.121538658281 342.373642395495,-340.216713531278 " style="fill: rgb(14,173,105); fill-opacity: 1; stroke: rgb(0,0,0); stroke-width: 3" />
	<polygon points="418.844403125057,-289.006731802909 345.756159037949,-353.25690670646 342.373642395495,-340.216713531278 405.726587655605,-253.584711806928 428.23291900459,-268.582841894046 " style="fill: rgb(14,173,105); fill-opacity: 1; stroke: rgb(0,0,0); stroke-width: 3" />
	<polygon points="405.294460302861,-242.052359631322 378.407862427253,-239.121538658281 369.70582014515,-227.024448015521 422.571307707075,-218.975826780051 " style="fill: rgb(14,173,105); fill-opacity: 1; stroke: rgb(0,0,0); stroke-width: 3" />
	<polygon points="226.63185298747,-148.554406377978 223.940448171526,-147.183094420847 223.089488968811,-53.5 223.301505586065,-53.5821051499269 249.834264483695,-100.010036228455 " style="fill: rgb(14,173,105); fill-opacity: 1; stroke: rgb(0,0,0); stroke-width: 3" />
	<polygon points="286.522289251429,-512.149184984741 341.553893295063,-364.60817895032 347.209913368976,-353.906783908007 444.319750580273,-347.609489594782 454.696366003449,-394.861301781761 369.861245233535,-479.851474240401 " style="fill: rgb(14,173,105); fill-opacity: 1; stroke: rgb(0,0,0); stroke-width: 3" />
	<polygon points="454.696366003449,-394.861301781761 444.319750580273,-347.609489594782 465.125208717231,-339.099940773531 489.945413550994,-353.761907103944 490.121546468773,-353.905676005001 494.721758877164,-367.397338075565 " style="fill: rgb(14,173,105); fill-opacity: 1; stroke: rgb(0,0,0); stroke-width: 3" />
	<polygon points="72.5733500174074,-156.355970149024 80.0099932747248,-135.253887522736 171.593300591883,-58.6883532832926 185.517712630505,-61.7375579349012 223.940448171526,-147.183094420847 " style="fill: rgb(14,173,105); fill-opacity: 1; stroke: rgb(0,0,0); stroke-width: 3" />
	<polygon points="33.5,-454.541719037921 286.522289251429,-512.149184984741 274.78065781842,-600.753122791163 146.253215424354,-743.06527256865 123.944633910188,-741.353914941212 " style="fill: rgb(14,173,105); fill-opacity: 1; stroke: rgb(0,0,0); stroke-width: 3" />
	<circle cx="134.170690365109" cy="-364.60817895032" r="2" style="fill: rgb(0,0,0)" />
	<circle cx="341.553893295063" cy="-364.60817895032" r="2" style="fill: rgb(0,0,0)" />
	<circle cx="286.522289251429" cy="-512.149184984741" r="2" style="fill: rgb(0,0,0)" />
	<circle cx="33.5" cy="-454.541719037921" r="2" style="fill: rgb(0,0,0)" />
	<circle cx="257.520340436003" cy="-255.894354219973" r="2" style="fill: rgb(0,0,0)" />
	<circle cx="342.373642395495" cy="-340.216713531278" r="2" style="fill: rgb(0,0,0)" />
	<circle cx="345.756159037949" cy="-353.25690670646" r="2" style="fill: rgb(0,0,0)" />
	<circle cx="72.5733500174074" cy="-156.355970149024" r="2" style="fill: rgb(0,0,0)" />
	<circle cx="223.940448171526" cy="-147.183094420847" r="2" style="fill: rgb(0,0,0)" />
	<circle cx="226.63185298747" cy="-148.554406377978" r="2" style="fill: rgb(0,0,0)" />
	<circle cx="246.244529906037" cy="-244.303206689527" r="2" style="fill: rgb(0,0,0)" />
	<circle cx="347.209913368976" cy="-353.906783908007" r="2" style="fill: rgb(0,0,0)" />
	<circle cx="444.319750580273" cy="-347.609489594782" r="2" style="fill: rgb(0,0,0)" />
	<circle cx="454.696366003449" cy="-394.861301781761" r="2" style="fill: rgb(0,0,0)" />
	<circle cx="369.861245233535" cy="-479.851474240401" r="2" style="fill: rgb(0,0,0)" />
	<circle cx="274.78065781842" cy="-600.753122791163" r="2" style="fill: rgb(0,0,0)" />
	<circle cx="146.253215424354" cy="-743.06527256865" r="2" style="fill: rgb(0,0,0)" />
	<circle cx="123.944633910188" cy="-741.353914941212" r="2" style="fill: rgb(0,0,0)" />
	<circle cx="330.177146217749" cy="-190.522506834348" r="2" style="fill: rgb(0,0,0)" />
	<circle cx="369.70582014515" cy="-227.024448015521" r="2" style="fill: rgb(0,0,0)" />
	<circle cx="378.407862427253" cy="-239.121538658281" r="2" style="fill: rgb(0,0,0)" />
	<circle cx="405.726587655605" cy="-253.584711806928" r="2" style="fill: rgb(0,0,0)" />
	<circle cx="428.23291900459" cy="-268.582841894046" r="2" style="fill: rgb(0,0,0)" />
	<circle cx="418.844403125057" cy="-289.006731802909" r="2" style="fill: rgb(0,0,0)" />
	<circle cx="223.089488968811" cy="-53.5" r="2" style="fill: rgb(0,0,0)" />
	<circle cx="223.301505586065" cy="-53.5821051499269" r="2" style="fill: rgb(0,0,0)" />
	<circle cx="249.834264483695" cy="-100.010036228455" r="2" style="fill: rgb(0,0,0)" />
	<circle cx="80.0099932747248" cy="-135.253887522736" r="2" style="fill: rgb(0,0,0)" />
	<circle cx="171.593300591883" cy="-58.6883532832926" r="2" style="fill: rgb(0,0,0)" />
	<circle cx="185.517712630505" cy="-61.7375579349012" r="2" style="fill: rgb(0,0,0)" />
	<circle cx="497.614988731647" cy="-372.183268351488" r="2" style="fill: rgb(0,0,0)" />
	<circle cx="561.5" cy="-473.022192124815" r="2" style="fill: rgb(0,0,0)" />
	<circle cx="465.125208717231" cy="-339.099940773531" r="2" style="fill: rgb(0,0,0)" />
	<circle cx="489.945413550994" cy="-353.761907103944" r="2" style="fill: rgb(0,0,0)" />
	<circle cx="490.121546468773" cy="-353.905676005001" r="2" style="fill: rgb(0,0,0)" />
	<circle cx="494.721758877164" cy="-367.397338075565" r="2" style="fill: rgb(0,0,0)" />
	<circle cx="422.571307707075" cy="-218.975826780051" r="2" style="fill: rgb(0,0,0)" />
	<circle cx="405.294460302861" cy="-242.052359631322" r="2" style="fill: rgb(0,0,0)" />
	<!-- 
	Generated using the Perl SVG Module V2.64
	by Ronan Oger
	Info: http://www.roitsystems.com/
 -->
</svg>