<?xml version="1.0" encoding="UTF-8" standalone="yes"?>
<!DOCTYPE svg PUBLIC "-//W3C//DTD SVG 1.0//EN" "http://www.w3.org/TR/2001/REC-SVG-20010904/DTD/svg10.dtd">
<!-- generated using polymake; Michael Joswig, Georg Loho, Benjamin Lorenz, Rico Raber; license CC BY-NC-ND 3.0; see polymake.org and matchthenet.de -->
<svg height="841pt" id="document" viewBox="0 -811 506.16405015763 811" width="595pt" xmlns="http://www.w3.org/2000/svg" xmlns:svg="http://www.w3.org/2000/svg" xmlns:xlink="http://www.w3.org/1999/xlink">
	<title id="document_title">planar_net_</title>
	<polygon points="209.384174276844,-363.423610204378 299.133142312492,-363.423610204378 329.350242433107,-558.187618193552 279.376355227961,-602.982035783067 225.860942267061,-554.657971603451 134.515114429557,-390.942944420432 " style="fill: rgb(14,173,105); fill-opacity: 1; stroke: rgb(0,0,0); stroke-width: 3" />
	<polygon points="347.733392115719,-348.350372308819 299.133142312492,-363.423610204378 209.384174276844,-363.423610204378 314.271780405599,-165.487379081453 382.299243091508,-226.938611341776 " style="fill: rgb(14,173,105); fill-opacity: 1; stroke: rgb(0,0,0); stroke-width: 3" />
	<polygon points="260.636586514735,-651.65696049766 242.422054437618,-701.794881816484 111.121651157924,-718.77624095215 92.7378863408206,-708.785552179999 157.528921966543,-657.277239896496 " style="fill: rgb(14,173,105); fill-opacity: 1; stroke: rgb(0,0,0); stroke-width: 3" />
	<polygon points="493.761778331988,-302.854140913839 347.733392115719,-348.350372308819 382.299243091508,-226.938611341776 482.876349706022,-184.967702829701 495.66405015763,-192.717964750115 " style="fill: rgb(14,173,105); fill-opacity: 1; stroke: rgb(0,0,0); stroke-width: 3" />
	<polygon points="329.350242433107,-558.187618193552 299.133142312492,-363.423610204378 349.481950335541,-370.784609609959 382.197785089238,-520.196358841542 " style="fill: rgb(14,173,105); fill-opacity: 1; stroke: rgb(0,0,0); stroke-width: 3" />
	<polygon points="225.860942267061,-554.657971603451 279.376355227961,-602.982035783067 260.636586514735,-651.65696049766 157.528921966543,-657.277239896496 " style="fill: rgb(14,173,105); fill-opacity: 1; stroke: rgb(0,0,0); stroke-width: 3" />
	<polygon points="314.271780405599,-165.487379081453 312.770535301544,-162.59471282486 384.014688523786,-114.939095462708 435.650006955372,-131.906998015388 382.299243091508,-226.938611341776 " style="fill: rgb(14,173,105); fill-opacity: 1; stroke: rgb(0,0,0); stroke-width: 3" />
	<polygon points="90.9219582825186,-132.741358392846 90.658116037514,-110.503470214169 99.2573683060415,-91.4291541998348 202.162588040904,-53.5 192.237607293626,-138.636842739725 " style="fill: rgb(14,173,105); fill-opacity: 1; stroke: rgb(0,0,0); stroke-width: 3" />
	<polygon points="279.376355227961,-602.982035783067 329.350242433107,-558.187618193552 387.282088758091,-528.521143287994 461.990085248822,-609.467490941277 362.968934871671,-666.714715172288 317.970476916762,-638.066519511141 " style="fill: rgb(14,173,105); fill-opacity: 1; stroke: rgb(0,0,0); stroke-width: 3" />
	<polygon points="362.968934871671,-666.714715172288 461.990085248822,-609.467490941277 475.389886784995,-616.103541081711 474.508787005653,-670.448177337263 439.848677548863,-774.5 " style="fill: rgb(14,173,105); fill-opacity: 1; stroke: rgb(0,0,0); stroke-width: 3" />
	<polygon points="209.384174276844,-363.423610204378 134.515114429557,-390.942944420432 90.9219582825186,-132.741358392846 192.237607293626,-138.636842739725 195.258332667178,-139.860146934129 " style="fill: rgb(14,173,105); fill-opacity: 1; stroke: rgb(0,0,0); stroke-width: 3" />
	<polygon points="134.515114429557,-390.942944420432 225.860942267061,-554.657971603451 125.942691059209,-626.882083220794 46.6112480943559,-650.493662771177 33.5,-632.530131470631 " style="fill: rgb(14,173,105); fill-opacity: 1; stroke: rgb(0,0,0); stroke-width: 3" />
	<circle cx="209.384174276844" cy="-363.423610204378" r="2" style="fill: rgb(0,0,0)" />
	<circle cx="299.133142312492" cy="-363.423610204378" r="2" style="fill: rgb(0,0,0)" />
	<circle cx="329.350242433107" cy="-558.187618193552" r="2" style="fill: rgb(0,0,0)" />
	<circle cx="279.376355227961" cy="-602.982035783067" r="2" style="fill: rgb(0,0,0)" />
	<circle cx="225.860942267061" cy="-554.657971603451" r="2" style="fill: rgb(0,0,0)" />
	<circle cx="134.515114429557" cy="-390.942944420432" r="2" style="fill: rgb(0,0,0)" />
	<circle cx="314.271780405599" cy="-165.487379081453" r="2" style="fill: rgb(0,0,0)" />
	<circle cx="382.299243091508" cy="-226.938611341776" r="2" style="fill: rgb(0,0,0)" />
	<circle cx="347.733392115719" cy="-348.350372308819" r="2" style="fill: rgb(0,0,0)" />
	<circle cx="349.481950335541" cy="-370.784609609959" r="2" style="fill: rgb(0,0,0)" />
	<circle cx="382.197785089238" cy="-520.196358841542" r="2" style="fill: rgb(0,0,0)" />
	<circle cx="260.636586514735" cy="-651.65696049766" r="2" style="fill: rgb(0,0,0)" />
	<circle cx="157.528921966543" cy="-657.277239896496" r="2" style="fill: rgb(0,0,0)" />
	<circle cx="387.282088758091" cy="-528.521143287994" r="2" style="fill: rgb(0,0,0)" />
	<circle cx="461.990085248822" cy="-609.467490941277" r="2" style="fill: rgb(0,0,0)" />
	<circle cx="362.968934871671" cy="-666.714715172288" r="2" style="fill: rgb(0,0,0)" />
	<circle cx="317.970476916762" cy="-638.066519511141" r="2" style="fill: rgb(0,0,0)" />
	<circle cx="90.9219582825186" cy="-132.741358392846" r="2" style="fill: rgb(0,0,0)" />
	<circle cx="192.237607293626" cy="-138.636842739725" r="2" style="fill: rgb(0,0,0)" />
	<circle cx="195.258332667178" cy="-139.860146934129" r="2" style="fill: rgb(0,0,0)" />
	<circle cx="125.942691059209" cy="-626.882083220794" r="2" style="fill: rgb(0,0,0)" />
	<circle cx="46.6112480943559" cy="-650.493662771177" r="2" style="fill: rgb(0,0,0)" />
	<circle cx="33.5" cy="-632.530131470631" r="2" style="fill: rgb(0,0,0)" />
	<circle cx="482.876349706022" cy="-184.967702829701" r="2" style="fill: rgb(0,0,0)" />
	<circle cx="495.66405015763" cy="-192.717964750115" r="2" style="fill: rgb(0,0,0)" />
	<circle cx="493.761778331988" cy="-302.854140913839" r="2" style="fill: rgb(0,0,0)" />
	<circle cx="312.770535301544" cy="-162.59471282486" r="2" style="fill: rgb(0,0,0)" />
	<circle cx="384.014688523786" cy="-114.939095462708" r="2" style="fill: rgb(0,0,0)" />
	<circle cx="435.650006955372" cy="-131.906998015388" r="2" style="fill: rgb(0,0,0)" />
	<circle cx="242.422054437618" cy="-701.794881816484" r="2" style="fill: rgb(0,0,0)" />
	<circle cx="111.121651157924" cy="-718.77624095215" r="2" style="fill: rgb(0,0,0)" />
	<circle cx="92.7378863408206" cy="-708.785552179999" r="2" style="fill: rgb(0,0,0)" />
	<circle cx="475.389886784995" cy="-616.103541081711" r="2" style="fill: rgb(0,0,0)" />
	<circle cx="474.508787005653" cy="-670.448177337263" r="2" style="fill: rgb(0,0,0)" />
	<circle cx="439.848677548863" cy="-774.5" r="2" style="fill: rgb(0,0,0)" />
	<circle cx="90.658116037514" cy="-110.503470214169" r="2" style="fill: rgb(0,0,0)" />
	<circle cx="99.2573683060415" cy="-91.4291541998348" r="2" style="fill: rgb(0,0,0)" />
	<circle cx="202.162588040904" cy="-53.5" r="2" style="fill: rgb(0,0,0)" />
	<!--
	Generated using the Perl SVG Module V2.86
	by Ronan Oger
	Info: http://www.roitsystems.com/
	-->
</svg>