<?xml version="1.0" encoding="UTF-8" standalone="yes"?>
<!DOCTYPE svg PUBLIC "-//W3C//DTD SVG 1.0//EN" "http://www.w3.org/TR/2001/REC-SVG-20010904/DTD/svg10.dtd">
<!-- generated using polymake; Michael Joswig, Georg Loho, Benjamin Lorenz, Rico Raber; license CC BY-NC-SA 3.0; see polymake.org and matchthenet.de -->
<svg height="841pt" id="document" viewBox="0 -559.288594772117 572 559.288594772117" width="595pt" xmlns="http://www.w3.org/2000/svg" xmlns:svg="http://www.w3.org/2000/svg" xmlns:xlink="http://www.w3.org/1999/xlink">
	<title id="document_title">planar_net_</title>
	<polygon points="132.362159835018,-189.598428164642 313.750435791504,-189.598428164642 310.781917589748,-322.314581571536 209.374123625859,-332.691130347334 171.883335386029,-273.197139959938 " style="fill: rgb(14,173,105); fill-opacity: 1; stroke: rgb(0,0,0); stroke-width: 3" />
	<polygon points="304.278911706207,-148.636109791971 313.750435791504,-189.598428164642 132.362159835018,-189.598428164642 123.913345932839,-173.5250086976 153.851333818267,-128.066351608884 " style="fill: rgb(14,173,105); fill-opacity: 1; stroke: rgb(0,0,0); stroke-width: 3" />
	<polygon points="168.417483529407,-472.688685627665 221.133839956125,-500.856568398007 222.373609925092,-507.429982735344 150.487173456305,-522.788594772117 149.657289241373,-507.842333317713 " style="fill: rgb(14,173,105); fill-opacity: 1; stroke: rgb(0,0,0); stroke-width: 3" />
	<polygon points="310.781917589748,-322.314581571536 313.750435791504,-189.598428164642 329.653159246523,-150.678964118028 449.386165379117,-154.238105583599 470.583526664572,-164.199044461673 392.107343011073,-263.370768017152 " style="fill: rgb(14,173,105); fill-opacity: 1; stroke: rgb(0,0,0); stroke-width: 3" />
	<polygon points="209.374123625859,-332.691130347334 310.781917589748,-322.314581571536 272.915728579633,-415.343338986355 221.133839956125,-500.856568398007 168.417483529407,-472.688685627665 " style="fill: rgb(14,173,105); fill-opacity: 1; stroke: rgb(0,0,0); stroke-width: 3" />
	<polygon points="132.362159835018,-189.598428164642 171.883335386029,-273.197139959938 79.4367947407226,-215.579300872439 94.0681112123485,-186.690017688327 120.859438710262,-175.547638989547 " style="fill: rgb(14,173,105); fill-opacity: 1; stroke: rgb(0,0,0); stroke-width: 3" />
	<polygon points="123.913345932839,-173.5250086976 100.421892825239,-156.493289375678 97.9100636983861,-151.551209392053 100.815161942499,-102.864513531774 120.653079885614,-105.523434022468 153.851333818267,-128.066351608884 " style="fill: rgb(14,173,105); fill-opacity: 1; stroke: rgb(0,0,0); stroke-width: 3" />
	<polygon points="483.234452916297,-165.445202244549 537.500874153741,-114.100767813874 545.75846183366,-116.853861123841 561.5,-136.891396666385 512.162310641159,-191.383039333957 " style="fill: rgb(14,173,105); fill-opacity: 1; stroke: rgb(0,0,0); stroke-width: 3" />
	<polygon points="470.583526664572,-164.199044461673 449.386165379117,-154.238105583599 501.021685756567,-80.4424204673253 517.000950488073,-92.4954675979853 537.500874153741,-114.100767813874 483.234452916297,-165.445202244549 " style="fill: rgb(14,173,105); fill-opacity: 1; stroke: rgb(0,0,0); stroke-width: 3" />
	<polygon points="79.4367947407226,-215.579300872439 54.7766448970007,-233.749729397583 46.6219940398868,-221.196597968645 33.5,-199.353701483102 88.54699051778,-187.190683647872 94.0681112123485,-186.690017688327 " style="fill: rgb(14,173,105); fill-opacity: 1; stroke: rgb(0,0,0); stroke-width: 3" />
	<polygon points="71.7239370155685,-96.4819983560851 100.815161942499,-102.864513531774 97.9100636983861,-151.551209392053 67.4907921220508,-104.08776993925 " style="fill: rgb(14,173,105); fill-opacity: 1; stroke: rgb(0,0,0); stroke-width: 3" />
	<polygon points="392.107343011073,-263.370768017152 470.583526664572,-164.199044461673 482.43862027178,-168.787682583288 479.882303659727,-207.556969277861 479.151743741354,-214.206261558388 " style="fill: rgb(14,173,105); fill-opacity: 1; stroke: rgb(0,0,0); stroke-width: 3" />
	<polygon points="231.493055530919,-53.5 304.278911706207,-148.636109791971 153.851333818267,-128.066351608884 148.423576157948,-88.3064893824436 " style="fill: rgb(14,173,105); fill-opacity: 1; stroke: rgb(0,0,0); stroke-width: 3" />
	<polygon points="171.883335386029,-273.197139959938 209.374123625859,-332.691130347334 72.7228916454493,-281.66954030262 52.496899165224,-247.338314518628 73.9578264501966,-225.481597858281 " style="fill: rgb(14,173,105); fill-opacity: 1; stroke: rgb(0,0,0); stroke-width: 3" />
	<circle cx="132.362159835018" cy="-189.598428164642" r="2" style="fill: rgb(0,0,0)" />
	<circle cx="313.750435791504" cy="-189.598428164642" r="2" style="fill: rgb(0,0,0)" />
	<circle cx="310.781917589748" cy="-322.314581571536" r="2" style="fill: rgb(0,0,0)" />
	<circle cx="209.374123625859" cy="-332.691130347334" r="2" style="fill: rgb(0,0,0)" />
	<circle cx="171.883335386029" cy="-273.197139959938" r="2" style="fill: rgb(0,0,0)" />
	<circle cx="123.913345932839" cy="-173.5250086976" r="2" style="fill: rgb(0,0,0)" />
	<circle cx="153.851333818267" cy="-128.066351608884" r="2" style="fill: rgb(0,0,0)" />
	<circle cx="304.278911706207" cy="-148.636109791971" r="2" style="fill: rgb(0,0,0)" />
	<circle cx="329.653159246523" cy="-150.678964118028" r="2" style="fill: rgb(0,0,0)" />
	<circle cx="449.386165379117" cy="-154.238105583599" r="2" style="fill: rgb(0,0,0)" />
	<circle cx="470.583526664572" cy="-164.199044461673" r="2" style="fill: rgb(0,0,0)" />
	<circle cx="392.107343011073" cy="-263.370768017152" r="2" style="fill: rgb(0,0,0)" />
	<circle cx="272.915728579633" cy="-415.343338986355" r="2" style="fill: rgb(0,0,0)" />
	<circle cx="221.133839956125" cy="-500.856568398007" r="2" style="fill: rgb(0,0,0)" />
	<circle cx="168.417483529407" cy="-472.688685627665" r="2" style="fill: rgb(0,0,0)" />
	<circle cx="79.4367947407226" cy="-215.579300872439" r="2" style="fill: rgb(0,0,0)" />
	<circle cx="94.0681112123485" cy="-186.690017688327" r="2" style="fill: rgb(0,0,0)" />
	<circle cx="120.859438710262" cy="-175.547638989547" r="2" style="fill: rgb(0,0,0)" />
	<circle cx="72.7228916454493" cy="-281.66954030262" r="2" style="fill: rgb(0,0,0)" />
	<circle cx="52.496899165224" cy="-247.338314518628" r="2" style="fill: rgb(0,0,0)" />
	<circle cx="73.9578264501966" cy="-225.481597858281" r="2" style="fill: rgb(0,0,0)" />
	<circle cx="100.421892825239" cy="-156.493289375678" r="2" style="fill: rgb(0,0,0)" />
	<circle cx="97.9100636983861" cy="-151.551209392053" r="2" style="fill: rgb(0,0,0)" />
	<circle cx="100.815161942499" cy="-102.864513531774" r="2" style="fill: rgb(0,0,0)" />
	<circle cx="120.653079885614" cy="-105.523434022468" r="2" style="fill: rgb(0,0,0)" />
	<circle cx="148.423576157948" cy="-88.3064893824436" r="2" style="fill: rgb(0,0,0)" />
	<circle cx="231.493055530919" cy="-53.5" r="2" style="fill: rgb(0,0,0)" />
	<circle cx="501.021685756567" cy="-80.4424204673253" r="2" style="fill: rgb(0,0,0)" />
	<circle cx="517.000950488073" cy="-92.4954675979853" r="2" style="fill: rgb(0,0,0)" />
	<circle cx="537.500874153741" cy="-114.100767813874" r="2" style="fill: rgb(0,0,0)" />
	<circle cx="483.234452916297" cy="-165.445202244549" r="2" style="fill: rgb(0,0,0)" />
	<circle cx="482.43862027178" cy="-168.787682583288" r="2" style="fill: rgb(0,0,0)" />
	<circle cx="479.882303659727" cy="-207.556969277861" r="2" style="fill: rgb(0,0,0)" />
	<circle cx="479.151743741354" cy="-214.206261558388" r="2" style="fill: rgb(0,0,0)" />
	<circle cx="222.373609925092" cy="-507.429982735344" r="2" style="fill: rgb(0,0,0)" />
	<circle cx="150.487173456305" cy="-522.788594772117" r="2" style="fill: rgb(0,0,0)" />
	<circle cx="149.657289241373" cy="-507.842333317713" r="2" style="fill: rgb(0,0,0)" />
	<circle cx="54.7766448970007" cy="-233.749729397583" r="2" style="fill: rgb(0,0,0)" />
	<circle cx="46.6219940398868" cy="-221.196597968645" r="2" style="fill: rgb(0,0,0)" />
	<circle cx="33.5" cy="-199.353701483102" r="2" style="fill: rgb(0,0,0)" />
	<circle cx="88.54699051778" cy="-187.190683647872" r="2" style="fill: rgb(0,0,0)" />
	<circle cx="67.4907921220508" cy="-104.08776993925" r="2" style="fill: rgb(0,0,0)" />
	<circle cx="71.7239370155685" cy="-96.4819983560851" r="2" style="fill: rgb(0,0,0)" />
	<circle cx="545.75846183366" cy="-116.853861123841" r="2" style="fill: rgb(0,0,0)" />
	<circle cx="561.5" cy="-136.891396666385" r="2" style="fill: rgb(0,0,0)" />
	<circle cx="512.162310641159" cy="-191.383039333957" r="2" style="fill: rgb(0,0,0)" />
	<!-- 
	Generated using the Perl SVG Module V2.64
	by Ronan Oger
	Info: http://www.roitsystems.com/
 -->
</svg>