<?xml version="1.0" encoding="UTF-8" standalone="yes"?>
<!DOCTYPE svg PUBLIC "-//W3C//DTD SVG 1.0//EN" "http://www.w3.org/TR/2001/REC-SVG-20010904/DTD/svg10.dtd">
<!-- generated using polymake; Michael Joswig, Georg Loho, Benjamin Lorenz, Rico Raber; license CC BY-NC-SA 3.0; see polymake.org and matchthenet.de -->
<svg height="841pt" id="document" viewBox="0 -678.211172243714 572 678.211172243714" width="595pt" xmlns="http://www.w3.org/2000/svg" xmlns:svg="http://www.w3.org/2000/svg" xmlns:xlink="http://www.w3.org/1999/xlink">
	<title id="document_title">planar_net_</title>
	<polygon points="298.86695896508,-384.587353596165 377.697151905351,-384.587353596165 336.436444300645,-416.491810926072 " style="fill: rgb(14,173,105); fill-opacity: 1; stroke: rgb(0,0,0); stroke-width: 3" />
	<polygon points="118.561887946052,-388.033452813592 88.1177544274559,-407.583666057427 33.5,-340.372674938602 156.58485481044,-287.499768700441 " style="fill: rgb(67,184,206); fill-opacity: 1; stroke: rgb(0,0,0); stroke-width: 3" />
	<polygon points="438.10186552963,-559.589058765661 449.449842674191,-501.201098106253 561.5,-565.381360895644 517.772340036787,-615.778456299229 " style="fill: rgb(67,184,206); fill-opacity: 1; stroke: rgb(0,0,0); stroke-width: 3" />
	<polygon points="489.115765943821,-205.968798621725 355.194245004194,-200.897733607573 455.417035041539,-67.1874454970761 501.4987405283,-107.454861153346 502.974120257882,-174.161672841738 " style="fill: rgb(255,210,63); fill-opacity: 1; stroke: rgb(0,0,0); stroke-width: 3" />
	<polygon points="248.410258395886,-375.248545305934 270.399116526159,-435.535983300245 221.184136451994,-519.795996473623 179.532853003103,-513.487306315264 179.781383959471,-477.307279560974 " style="fill: rgb(255,210,63); fill-opacity: 1; stroke: rgb(0,0,0); stroke-width: 3" />
	<polygon points="363.187973480615,-485.386413535413 395.416670624966,-466.094846072353 440.794696987214,-481.236730550461 449.449842674191,-501.201098106253 438.10186552963,-559.589058765661 369.067728069459,-555.183208104909 " style="fill: rgb(238,66,102); fill-opacity: 1; stroke: rgb(0,0,0); stroke-width: 3" />
	<polygon points="395.416670624966,-466.094846072353 393.417090331744,-376.676057776064 399.610601474076,-366.95711951896 475.314250832012,-385.519112941402 442.941390607439,-460.631977533926 " style="fill: rgb(255,210,63); fill-opacity: 1; stroke: rgb(0,0,0); stroke-width: 3" />
	<polygon points="308.163251454591,-280.507956183302 263.250102760632,-247.818141643848 282.053740206085,-210.930715679714 355.194245004194,-200.897733607573 489.115765943821,-205.968798621725 466.891960388705,-289.146016053793 " style="fill: rgb(238,66,102); fill-opacity: 1; stroke: rgb(0,0,0); stroke-width: 3" />
	<polygon points="393.213493107869,-376.283847025459 377.697151905351,-384.587353596165 298.86695896508,-384.587353596165 251.948151214028,-355.952424723061 263.250102760632,-247.818141643848 308.163251454591,-280.507956183302 396.574688113518,-365.260249189472 " style="fill: rgb(84,13,110); fill-opacity: 1; stroke: rgb(0,0,0); stroke-width: 3" />
	<polygon points="536.917073627112,-349.700140405008 466.314960294282,-308.405030532872 466.891960388705,-289.146016053793 489.115765943821,-205.968798621725 523.785218541018,-204.636022838592 548.618929396463,-331.354729798566 " style="fill: rgb(238,66,102); fill-opacity: 1; stroke: rgb(0,0,0); stroke-width: 3" />
	<polygon points="263.57074357193,-558.750984096622 227.086929559748,-617.522192779428 132.643686414169,-641.711172243714 123.76836810864,-581.161877704634 123.855272067339,-579.822993596043 179.532853003103,-513.487306315264 221.184136451994,-519.795996473623 " style="fill: rgb(84,13,110); fill-opacity: 1; stroke: rgb(0,0,0); stroke-width: 3" />
	<polygon points="298.86695896508,-384.587353596165 336.436444300645,-416.491810926072 336.758077881576,-466.230385486691 270.399116526159,-435.535983300245 248.410258395886,-375.248545305934 251.091555407337,-357.405659623162 " style="fill: rgb(238,66,102); fill-opacity: 1; stroke: rgb(0,0,0); stroke-width: 3" />
	<polygon points="396.574688113518,-365.260249189472 308.163251454591,-280.507956183302 465.639989577102,-302.198877521932 460.592799268588,-320.793727287491 " style="fill: rgb(67,184,206); fill-opacity: 1; stroke: rgb(0,0,0); stroke-width: 3" />
	<polygon points="251.948151214028,-355.952424723061 240.162246604626,-369.614429542639 118.561887946052,-388.033452813592 156.58485481044,-287.499768700441 225.921056123991,-229.907216133465 263.250102760632,-247.818141643848 " style="fill: rgb(238,66,102); fill-opacity: 1; stroke: rgb(0,0,0); stroke-width: 3" />
	<polygon points="336.436444300645,-416.491810926072 377.697151905351,-384.587353596165 393.417090331744,-376.676057776064 395.416670624966,-466.094846072353 363.187973480615,-485.386413535413 342.516375142607,-465.858436174725 " style="fill: rgb(238,66,102); fill-opacity: 1; stroke: rgb(0,0,0); stroke-width: 3" />
	<polygon points="336.758077881576,-466.230385486691 350.485700986827,-491.13438599922 296.333466011939,-535.560723834163 239.261804183154,-528.014801760105 270.399116526159,-435.535983300245 " style="fill: rgb(255,210,63); fill-opacity: 1; stroke: rgb(0,0,0); stroke-width: 3" />
	<polygon points="282.053740206085,-210.930715679714 325.628062891746,-132.027678182675 434.158378734929,-53.5 435.279575974873,-54.2369394163813 355.194245004194,-200.897733607573 " style="fill: rgb(255,210,63); fill-opacity: 1; stroke: rgb(0,0,0); stroke-width: 3" />
	<circle cx="298.86695896508" cy="-384.587353596165" r="2" style="fill: rgb(0,0,0)" />
	<circle cx="377.697151905351" cy="-384.587353596165" r="2" style="fill: rgb(0,0,0)" />
	<circle cx="336.436444300645" cy="-416.491810926072" r="2" style="fill: rgb(0,0,0)" />
	<circle cx="251.948151214028" cy="-355.952424723061" r="2" style="fill: rgb(0,0,0)" />
	<circle cx="263.250102760632" cy="-247.818141643848" r="2" style="fill: rgb(0,0,0)" />
	<circle cx="308.163251454591" cy="-280.507956183302" r="2" style="fill: rgb(0,0,0)" />
	<circle cx="396.574688113518" cy="-365.260249189472" r="2" style="fill: rgb(0,0,0)" />
	<circle cx="393.213493107869" cy="-376.283847025459" r="2" style="fill: rgb(0,0,0)" />
	<circle cx="336.758077881576" cy="-466.230385486691" r="2" style="fill: rgb(0,0,0)" />
	<circle cx="270.399116526159" cy="-435.535983300245" r="2" style="fill: rgb(0,0,0)" />
	<circle cx="248.410258395886" cy="-375.248545305934" r="2" style="fill: rgb(0,0,0)" />
	<circle cx="251.091555407337" cy="-357.405659623162" r="2" style="fill: rgb(0,0,0)" />
	<circle cx="393.417090331744" cy="-376.676057776064" r="2" style="fill: rgb(0,0,0)" />
	<circle cx="395.416670624966" cy="-466.094846072353" r="2" style="fill: rgb(0,0,0)" />
	<circle cx="363.187973480615" cy="-485.386413535413" r="2" style="fill: rgb(0,0,0)" />
	<circle cx="342.516375142607" cy="-465.858436174725" r="2" style="fill: rgb(0,0,0)" />
	<circle cx="282.053740206085" cy="-210.930715679714" r="2" style="fill: rgb(0,0,0)" />
	<circle cx="355.194245004194" cy="-200.897733607573" r="2" style="fill: rgb(0,0,0)" />
	<circle cx="489.115765943821" cy="-205.968798621725" r="2" style="fill: rgb(0,0,0)" />
	<circle cx="466.891960388705" cy="-289.146016053793" r="2" style="fill: rgb(0,0,0)" />
	<circle cx="465.639989577102" cy="-302.198877521932" r="2" style="fill: rgb(0,0,0)" />
	<circle cx="460.592799268588" cy="-320.793727287491" r="2" style="fill: rgb(0,0,0)" />
	<circle cx="240.162246604626" cy="-369.614429542639" r="2" style="fill: rgb(0,0,0)" />
	<circle cx="118.561887946052" cy="-388.033452813592" r="2" style="fill: rgb(0,0,0)" />
	<circle cx="156.58485481044" cy="-287.499768700441" r="2" style="fill: rgb(0,0,0)" />
	<circle cx="225.921056123991" cy="-229.907216133465" r="2" style="fill: rgb(0,0,0)" />
	<circle cx="221.184136451994" cy="-519.795996473623" r="2" style="fill: rgb(0,0,0)" />
	<circle cx="179.532853003103" cy="-513.487306315264" r="2" style="fill: rgb(0,0,0)" />
	<circle cx="179.781383959471" cy="-477.307279560974" r="2" style="fill: rgb(0,0,0)" />
	<circle cx="350.485700986827" cy="-491.13438599922" r="2" style="fill: rgb(0,0,0)" />
	<circle cx="296.333466011939" cy="-535.560723834163" r="2" style="fill: rgb(0,0,0)" />
	<circle cx="239.261804183154" cy="-528.014801760105" r="2" style="fill: rgb(0,0,0)" />
	<circle cx="440.794696987214" cy="-481.236730550461" r="2" style="fill: rgb(0,0,0)" />
	<circle cx="449.449842674191" cy="-501.201098106253" r="2" style="fill: rgb(0,0,0)" />
	<circle cx="438.10186552963" cy="-559.589058765661" r="2" style="fill: rgb(0,0,0)" />
	<circle cx="369.067728069459" cy="-555.183208104909" r="2" style="fill: rgb(0,0,0)" />
	<circle cx="399.610601474076" cy="-366.95711951896" r="2" style="fill: rgb(0,0,0)" />
	<circle cx="475.314250832012" cy="-385.519112941402" r="2" style="fill: rgb(0,0,0)" />
	<circle cx="442.941390607439" cy="-460.631977533926" r="2" style="fill: rgb(0,0,0)" />
	<circle cx="455.417035041539" cy="-67.1874454970761" r="2" style="fill: rgb(0,0,0)" />
	<circle cx="501.4987405283" cy="-107.454861153346" r="2" style="fill: rgb(0,0,0)" />
	<circle cx="502.974120257882" cy="-174.161672841738" r="2" style="fill: rgb(0,0,0)" />
	<circle cx="523.785218541018" cy="-204.636022838592" r="2" style="fill: rgb(0,0,0)" />
	<circle cx="548.618929396463" cy="-331.354729798566" r="2" style="fill: rgb(0,0,0)" />
	<circle cx="536.917073627112" cy="-349.700140405008" r="2" style="fill: rgb(0,0,0)" />
	<circle cx="466.314960294282" cy="-308.405030532872" r="2" style="fill: rgb(0,0,0)" />
	<circle cx="325.628062891746" cy="-132.027678182675" r="2" style="fill: rgb(0,0,0)" />
	<circle cx="434.158378734929" cy="-53.5" r="2" style="fill: rgb(0,0,0)" />
	<circle cx="435.279575974873" cy="-54.2369394163813" r="2" style="fill: rgb(0,0,0)" />
	<circle cx="88.1177544274559" cy="-407.583666057427" r="2" style="fill: rgb(0,0,0)" />
	<circle cx="33.5" cy="-340.372674938602" r="2" style="fill: rgb(0,0,0)" />
	<circle cx="263.57074357193" cy="-558.750984096622" r="2" style="fill: rgb(0,0,0)" />
	<circle cx="227.086929559748" cy="-617.522192779428" r="2" style="fill: rgb(0,0,0)" />
	<circle cx="132.643686414169" cy="-641.711172243714" r="2" style="fill: rgb(0,0,0)" />
	<circle cx="123.76836810864" cy="-581.161877704634" r="2" style="fill: rgb(0,0,0)" />
	<circle cx="123.855272067339" cy="-579.822993596043" r="2" style="fill: rgb(0,0,0)" />
	<circle cx="561.5" cy="-565.381360895644" r="2" style="fill: rgb(0,0,0)" />
	<circle cx="517.772340036787" cy="-615.778456299229" r="2" style="fill: rgb(0,0,0)" />
	<!-- 
	Generated using the Perl SVG Module V2.64
	by Ronan Oger
	Info: http://www.roitsystems.com/
 -->
</svg>