<?xml version="1.0" encoding="UTF-8" standalone="yes"?>
<!DOCTYPE svg PUBLIC "-//W3C//DTD SVG 1.0//EN" "http://www.w3.org/TR/2001/REC-SVG-20010904/DTD/svg10.dtd">
<!-- generated using polymake; Michael Joswig, Georg Loho, Benjamin Lorenz, Rico Raber; license CC BY-NC-ND 3.0; see polymake.org and matchthenet.de -->
<svg height="841pt" id="document" viewBox="0 -680.204401019369 572 680.204401019369" width="595pt" xmlns="http://www.w3.org/2000/svg" xmlns:svg="http://www.w3.org/2000/svg" xmlns:xlink="http://www.w3.org/1999/xlink">
	<title id="document_title">planar_net_</title>
	<polygon points="239.486559119429,-408.179142737523 507.522482017525,-408.179142737523 284.78374932564,-524.617511981342 281.302475473317,-523.591392244021 273.298000793419,-511.182101254471 " style="fill: rgb(14,173,105); fill-opacity: 1; stroke: rgb(0,0,0); stroke-width: 3" />
	<polygon points="255.886992421348,-86.9307512746072 295.839330651266,-159.088732300529 218.061513929026,-139.202848122349 222.29177238474,-90.4237230814491 " style="fill: rgb(14,173,105); fill-opacity: 1; stroke: rgb(0,0,0); stroke-width: 3" />
	<polygon points="392.527994825714,-214.174502726366 263.817857079922,-267.450736617349 212.669236455683,-141.328207879198 218.061513929026,-139.202848122349 295.839330651266,-159.088732300529 " style="fill: rgb(14,173,105); fill-opacity: 1; stroke: rgb(0,0,0); stroke-width: 3" />
	<polygon points="530.101359298562,-398.133421743635 507.522482017525,-408.179142737523 239.486559119429,-408.179142737523 198.468432583857,-384.93631129395 184.847662373816,-312.399214877616 263.817857079922,-267.450736617349 392.527994825714,-214.174502726366 " style="fill: rgb(14,173,105); fill-opacity: 1; stroke: rgb(0,0,0); stroke-width: 3" />
	<polygon points="198.468432583857,-384.93631129395 162.814847435102,-399.342914214842 33.5,-404.077672242592 46.0826462337283,-348.75503192098 184.847662373816,-312.399214877616 " style="fill: rgb(14,173,105); fill-opacity: 1; stroke: rgb(0,0,0); stroke-width: 3" />
	<polygon points="561.219902458241,-315.795636065382 530.101359298562,-398.133421743635 392.527994825714,-214.174502726366 478.976310878645,-144.104334074787 561.432713933118,-146.080479587442 561.5,-146.2059893107 " style="fill: rgb(14,173,105); fill-opacity: 1; stroke: rgb(0,0,0); stroke-width: 3" />
	<polygon points="273.298000793419,-511.182101254471 281.302475473317,-523.591392244021 242.869577746849,-538.185988892642 229.601768531282,-539.305448890184 224.163922647521,-512.505974282504 " style="fill: rgb(14,173,105); fill-opacity: 1; stroke: rgb(0,0,0); stroke-width: 3" />
	<polygon points="285.845749402004,-573.089125025589 291.26556811194,-599.604052861414 283.144674685137,-603.771757981564 224.140151851791,-595.433819383232 233.234647670807,-548.529887363423 245.946936771924,-544.569375038452 " style="fill: rgb(14,173,105); fill-opacity: 1; stroke: rgb(0,0,0); stroke-width: 3" />
	<polygon points="284.78374932564,-524.617511981342 507.522482017525,-408.179142737523 532.150423538006,-410.225286921951 471.06493610829,-473.600659932731 330.438819849439,-584.902436235546 310.74319320862,-595.106065810202 297.867630474636,-571.301954457952 " style="fill: rgb(14,173,105); fill-opacity: 1; stroke: rgb(0,0,0); stroke-width: 3" />
	<polygon points="330.438819849439,-584.902436235546 471.06493610829,-473.600659932731 390.324415726839,-622.737158180283 " style="fill: rgb(14,173,105); fill-opacity: 1; stroke: rgb(0,0,0); stroke-width: 3" />
	<polygon points="239.486559119429,-408.179142737523 273.298000793419,-511.182101254471 224.151052210147,-510.483731730099 202.294757251816,-442.995714052541 192.399107336569,-405.836536795307 " style="fill: rgb(14,173,105); fill-opacity: 1; stroke: rgb(0,0,0); stroke-width: 3" />
	<polygon points="158.292293229442,-53.5 208.02075487372,-91.2812320816927 218.061513929026,-139.202848122349 212.669236455683,-141.328207879198 153.611347354659,-155.233808061265 127.394360256076,-104.918928493978 127.158666197259,-104.310945697512 " style="fill: rgb(14,173,105); fill-opacity: 1; stroke: rgb(0,0,0); stroke-width: 3" />
	<polygon points="263.817857079922,-267.450736617349 184.847662373816,-312.399214877616 140.389536391754,-176.013914454831 195.170417875834,-149.932215788542 " style="fill: rgb(14,173,105); fill-opacity: 1; stroke: rgb(0,0,0); stroke-width: 3" />
	<polygon points="310.74319320862,-595.106065810202 330.438819849439,-584.902436235546 386.002575363566,-628.838979697605 385.982726473605,-628.979997877269 355.584838167653,-643.704401019369 307.63595793151,-603.688825561628 " style="fill: rgb(14,173,105); fill-opacity: 1; stroke: rgb(0,0,0); stroke-width: 3" />
	<polygon points="224.163922647521,-512.505974282504 229.601768531282,-539.305448890184 200.350532790562,-577.081815851043 199.720025241079,-576.915517925006 195.581100195255,-447.58022884966 " style="fill: rgb(14,173,105); fill-opacity: 1; stroke: rgb(0,0,0); stroke-width: 3" />
	<polygon points="281.302475473317,-523.591392244021 284.78374932564,-524.617511981342 285.845749402004,-573.089125025589 245.946936771924,-544.569375038452 " style="fill: rgb(14,173,105); fill-opacity: 1; stroke: rgb(0,0,0); stroke-width: 3" />
	<circle cx="239.486559119429" cy="-408.179142737523" r="2" style="fill: rgb(0,0,0)" />
	<circle cx="507.522482017525" cy="-408.179142737523" r="2" style="fill: rgb(0,0,0)" />
	<circle cx="284.78374932564" cy="-524.617511981342" r="2" style="fill: rgb(0,0,0)" />
	<circle cx="281.302475473317" cy="-523.591392244021" r="2" style="fill: rgb(0,0,0)" />
	<circle cx="273.298000793419" cy="-511.182101254471" r="2" style="fill: rgb(0,0,0)" />
	<circle cx="198.468432583857" cy="-384.93631129395" r="2" style="fill: rgb(0,0,0)" />
	<circle cx="184.847662373816" cy="-312.399214877616" r="2" style="fill: rgb(0,0,0)" />
	<circle cx="263.817857079922" cy="-267.450736617349" r="2" style="fill: rgb(0,0,0)" />
	<circle cx="392.527994825714" cy="-214.174502726366" r="2" style="fill: rgb(0,0,0)" />
	<circle cx="530.101359298562" cy="-398.133421743635" r="2" style="fill: rgb(0,0,0)" />
	<circle cx="242.869577746849" cy="-538.185988892642" r="2" style="fill: rgb(0,0,0)" />
	<circle cx="229.601768531282" cy="-539.305448890184" r="2" style="fill: rgb(0,0,0)" />
	<circle cx="224.163922647521" cy="-512.505974282504" r="2" style="fill: rgb(0,0,0)" />
	<circle cx="532.150423538006" cy="-410.225286921951" r="2" style="fill: rgb(0,0,0)" />
	<circle cx="471.06493610829" cy="-473.600659932731" r="2" style="fill: rgb(0,0,0)" />
	<circle cx="330.438819849439" cy="-584.902436235546" r="2" style="fill: rgb(0,0,0)" />
	<circle cx="310.74319320862" cy="-595.106065810202" r="2" style="fill: rgb(0,0,0)" />
	<circle cx="297.867630474636" cy="-571.301954457952" r="2" style="fill: rgb(0,0,0)" />
	<circle cx="224.151052210147" cy="-510.483731730099" r="2" style="fill: rgb(0,0,0)" />
	<circle cx="202.294757251816" cy="-442.995714052541" r="2" style="fill: rgb(0,0,0)" />
	<circle cx="192.399107336569" cy="-405.836536795307" r="2" style="fill: rgb(0,0,0)" />
	<circle cx="285.845749402004" cy="-573.089125025589" r="2" style="fill: rgb(0,0,0)" />
	<circle cx="245.946936771924" cy="-544.569375038452" r="2" style="fill: rgb(0,0,0)" />
	<circle cx="212.669236455683" cy="-141.328207879198" r="2" style="fill: rgb(0,0,0)" />
	<circle cx="218.061513929026" cy="-139.202848122349" r="2" style="fill: rgb(0,0,0)" />
	<circle cx="295.839330651266" cy="-159.088732300529" r="2" style="fill: rgb(0,0,0)" />
	<circle cx="162.814847435102" cy="-399.342914214842" r="2" style="fill: rgb(0,0,0)" />
	<circle cx="33.5" cy="-404.077672242592" r="2" style="fill: rgb(0,0,0)" />
	<circle cx="46.0826462337283" cy="-348.75503192098" r="2" style="fill: rgb(0,0,0)" />
	<circle cx="478.976310878645" cy="-144.104334074787" r="2" style="fill: rgb(0,0,0)" />
	<circle cx="561.432713933118" cy="-146.080479587442" r="2" style="fill: rgb(0,0,0)" />
	<circle cx="561.5" cy="-146.2059893107" r="2" style="fill: rgb(0,0,0)" />
	<circle cx="561.219902458241" cy="-315.795636065382" r="2" style="fill: rgb(0,0,0)" />
	<circle cx="140.389536391754" cy="-176.013914454831" r="2" style="fill: rgb(0,0,0)" />
	<circle cx="195.170417875834" cy="-149.932215788542" r="2" style="fill: rgb(0,0,0)" />
	<circle cx="200.350532790562" cy="-577.081815851043" r="2" style="fill: rgb(0,0,0)" />
	<circle cx="199.720025241079" cy="-576.915517925006" r="2" style="fill: rgb(0,0,0)" />
	<circle cx="195.581100195255" cy="-447.58022884966" r="2" style="fill: rgb(0,0,0)" />
	<circle cx="390.324415726839" cy="-622.737158180283" r="2" style="fill: rgb(0,0,0)" />
	<circle cx="386.002575363566" cy="-628.838979697605" r="2" style="fill: rgb(0,0,0)" />
	<circle cx="385.982726473605" cy="-628.979997877269" r="2" style="fill: rgb(0,0,0)" />
	<circle cx="355.584838167653" cy="-643.704401019369" r="2" style="fill: rgb(0,0,0)" />
	<circle cx="307.63595793151" cy="-603.688825561628" r="2" style="fill: rgb(0,0,0)" />
	<circle cx="291.26556811194" cy="-599.604052861414" r="2" style="fill: rgb(0,0,0)" />
	<circle cx="283.144674685137" cy="-603.771757981564" r="2" style="fill: rgb(0,0,0)" />
	<circle cx="224.140151851791" cy="-595.433819383232" r="2" style="fill: rgb(0,0,0)" />
	<circle cx="233.234647670807" cy="-548.529887363423" r="2" style="fill: rgb(0,0,0)" />
	<circle cx="222.29177238474" cy="-90.4237230814491" r="2" style="fill: rgb(0,0,0)" />
	<circle cx="255.886992421348" cy="-86.9307512746072" r="2" style="fill: rgb(0,0,0)" />
	<circle cx="153.611347354659" cy="-155.233808061265" r="2" style="fill: rgb(0,0,0)" />
	<circle cx="127.394360256076" cy="-104.918928493978" r="2" style="fill: rgb(0,0,0)" />
	<circle cx="127.158666197259" cy="-104.310945697512" r="2" style="fill: rgb(0,0,0)" />
	<circle cx="158.292293229442" cy="-53.5" r="2" style="fill: rgb(0,0,0)" />
	<circle cx="208.02075487372" cy="-91.2812320816927" r="2" style="fill: rgb(0,0,0)" />
	<!--
	Generated using the Perl SVG Module V2.84
	by Ronan Oger
	Info: http://www.roitsystems.com/
	-->
</svg>