<?xml version="1.0" encoding="UTF-8" standalone="yes"?>
<!DOCTYPE svg PUBLIC "-//W3C//DTD SVG 1.0//EN" "http://www.w3.org/TR/2001/REC-SVG-20010904/DTD/svg10.dtd">
<!-- generated using polymake; Michael Joswig, Georg Loho, Benjamin Lorenz, Rico Raber; license CC BY-NC-ND 3.0; see polymake.org and matchthenet.de -->
<svg height="841pt" id="document" viewBox="0 -534.998081173181 572 534.998081173181" width="595pt" xmlns="http://www.w3.org/2000/svg" xmlns:svg="http://www.w3.org/2000/svg" xmlns:xlink="http://www.w3.org/1999/xlink">
	<title id="document_title">planar_net_</title>
	<polygon points="279.936085932771,-281.518558480542 399.461465725415,-281.518558480542 288.791400267918,-317.949857095106 " style="fill: rgb(14,173,105); fill-opacity: 1; stroke: rgb(0,0,0); stroke-width: 3" />
	<polygon points="254.100469758415,-226.033293706231 188.100220919989,-231.525376936657 172.283565929036,-173.655994309297 180.16555885236,-157.337329437678 259.621727555674,-217.735240964389 " style="fill: rgb(255,210,63); fill-opacity: 1; stroke: rgb(0,0,0); stroke-width: 3" />
	<polygon points="389.605234934661,-317.940292703018 403.436939272681,-282.519337712662 521.270277035567,-436.850370798255 471.127505124652,-478.837420963935 396.183221515217,-385.06968904476 " style="fill: rgb(255,210,63); fill-opacity: 1; stroke: rgb(0,0,0); stroke-width: 3" />
	<polygon points="81.1768762133701,-72.9351389725288 169.15744006623,-72.7297599848459 180.16555885236,-157.337329437678 172.283565929036,-173.655994309297 74.8801427541232,-205.152046175868 67.3138283773522,-200.638464772385 33.5,-117.702598483424 " style="fill: rgb(84,13,110); fill-opacity: 1; stroke: rgb(0,0,0); stroke-width: 3" />
	<polygon points="299.836036326116,-434.457975678709 198.308217068318,-498.498081173181 187.672484800295,-409.567692071617 280.720133726936,-376.653178087452 281.688865583119,-376.399130536658 " style="fill: rgb(255,210,63); fill-opacity: 1; stroke: rgb(0,0,0); stroke-width: 3" />
	<polygon points="208.059770338413,-335.833199066526 227.376099188437,-334.952424937312 280.720133726936,-376.653178087452 187.672484800295,-409.567692071617 187.34447286896,-400.763492022384 " style="fill: rgb(255,210,63); fill-opacity: 1; stroke: rgb(0,0,0); stroke-width: 3" />
	<polygon points="352.618246176848,-163.101309630605 259.621727555674,-217.735240964389 218.267607347481,-126.900075947722 261.765289340827,-53.5 " style="fill: rgb(67,184,206); fill-opacity: 1; stroke: rgb(0,0,0); stroke-width: 3" />
	<polygon points="285.837385273251,-328.448274273453 292.667577102209,-358.149162382763 282.336384334382,-375.511565736682 281.377017585715,-375.798962690051 227.376099188437,-334.952424937312 " style="fill: rgb(255,210,63); fill-opacity: 1; stroke: rgb(0,0,0); stroke-width: 3" />
	<polygon points="403.033310888327,-280.796538530563 399.461465725415,-281.518558480542 279.936085932771,-281.518558480542 254.100469758415,-226.033293706231 259.621727555674,-217.735240964389 352.618246176848,-163.101309630605 " style="fill: rgb(238,66,102); fill-opacity: 1; stroke: rgb(0,0,0); stroke-width: 3" />
	<polygon points="404.566113900376,-281.513620031216 403.033310888327,-280.796538530563 352.618246176848,-163.101309630605 487.943354729551,-118.899252735178 561.5,-167.169758563815 " style="fill: rgb(255,210,63); fill-opacity: 1; stroke: rgb(0,0,0); stroke-width: 3" />
	<polygon points="309.630283427378,-350.455466878783 389.605234934661,-317.940292703018 374.378888906315,-383.650140878813 315.125069888168,-369.897532509277 " style="fill: rgb(67,184,206); fill-opacity: 1; stroke: rgb(0,0,0); stroke-width: 3" />
	<polygon points="209.902997142863,-285.686850005612 208.059770338413,-335.833199066526 159.003045167053,-383.146032505705 150.081613314696,-281.166445415558 " style="fill: rgb(67,184,206); fill-opacity: 1; stroke: rgb(0,0,0); stroke-width: 3" />
	<polygon points="279.936085932771,-281.518558480542 288.791400267918,-317.949857095106 285.837385273251,-328.448274273453 227.376099188437,-334.952424937312 208.059770338413,-335.833199066526 209.902997142863,-285.686850005612 246.321212147976,-230.370401811739 " style="fill: rgb(84,13,110); fill-opacity: 1; stroke: rgb(0,0,0); stroke-width: 3" />
	<polygon points="288.791400267918,-317.949857095106 399.461465725415,-281.518558480542 403.047817675051,-280.872439010682 403.436939272681,-282.519337712662 389.605234934661,-317.940292703018 309.630283427378,-350.455466878783 288.14918809097,-328.837029885097 " style="fill: rgb(84,13,110); fill-opacity: 1; stroke: rgb(0,0,0); stroke-width: 3" />
	<circle cx="279.936085932771" cy="-281.518558480542" r="2" style="fill: rgb(0,0,0)" />
	<circle cx="399.461465725415" cy="-281.518558480542" r="2" style="fill: rgb(0,0,0)" />
	<circle cx="288.791400267918" cy="-317.949857095106" r="2" style="fill: rgb(0,0,0)" />
	<circle cx="254.100469758415" cy="-226.033293706231" r="2" style="fill: rgb(0,0,0)" />
	<circle cx="259.621727555674" cy="-217.735240964389" r="2" style="fill: rgb(0,0,0)" />
	<circle cx="352.618246176848" cy="-163.101309630605" r="2" style="fill: rgb(0,0,0)" />
	<circle cx="403.033310888327" cy="-280.796538530563" r="2" style="fill: rgb(0,0,0)" />
	<circle cx="285.837385273251" cy="-328.448274273453" r="2" style="fill: rgb(0,0,0)" />
	<circle cx="227.376099188437" cy="-334.952424937312" r="2" style="fill: rgb(0,0,0)" />
	<circle cx="208.059770338413" cy="-335.833199066526" r="2" style="fill: rgb(0,0,0)" />
	<circle cx="209.902997142863" cy="-285.686850005612" r="2" style="fill: rgb(0,0,0)" />
	<circle cx="246.321212147976" cy="-230.370401811739" r="2" style="fill: rgb(0,0,0)" />
	<circle cx="403.047817675051" cy="-280.872439010682" r="2" style="fill: rgb(0,0,0)" />
	<circle cx="403.436939272681" cy="-282.519337712662" r="2" style="fill: rgb(0,0,0)" />
	<circle cx="389.605234934661" cy="-317.940292703018" r="2" style="fill: rgb(0,0,0)" />
	<circle cx="309.630283427378" cy="-350.455466878783" r="2" style="fill: rgb(0,0,0)" />
	<circle cx="288.14918809097" cy="-328.837029885097" r="2" style="fill: rgb(0,0,0)" />
	<circle cx="188.100220919989" cy="-231.525376936657" r="2" style="fill: rgb(0,0,0)" />
	<circle cx="172.283565929036" cy="-173.655994309297" r="2" style="fill: rgb(0,0,0)" />
	<circle cx="180.16555885236" cy="-157.337329437678" r="2" style="fill: rgb(0,0,0)" />
	<circle cx="218.267607347481" cy="-126.900075947722" r="2" style="fill: rgb(0,0,0)" />
	<circle cx="261.765289340827" cy="-53.5" r="2" style="fill: rgb(0,0,0)" />
	<circle cx="487.943354729551" cy="-118.899252735178" r="2" style="fill: rgb(0,0,0)" />
	<circle cx="561.5" cy="-167.169758563815" r="2" style="fill: rgb(0,0,0)" />
	<circle cx="404.566113900376" cy="-281.513620031216" r="2" style="fill: rgb(0,0,0)" />
	<circle cx="280.720133726936" cy="-376.653178087452" r="2" style="fill: rgb(0,0,0)" />
	<circle cx="187.672484800295" cy="-409.567692071617" r="2" style="fill: rgb(0,0,0)" />
	<circle cx="187.34447286896" cy="-400.763492022384" r="2" style="fill: rgb(0,0,0)" />
	<circle cx="292.667577102209" cy="-358.149162382763" r="2" style="fill: rgb(0,0,0)" />
	<circle cx="282.336384334382" cy="-375.511565736682" r="2" style="fill: rgb(0,0,0)" />
	<circle cx="281.377017585715" cy="-375.798962690051" r="2" style="fill: rgb(0,0,0)" />
	<circle cx="159.003045167053" cy="-383.146032505705" r="2" style="fill: rgb(0,0,0)" />
	<circle cx="150.081613314696" cy="-281.166445415558" r="2" style="fill: rgb(0,0,0)" />
	<circle cx="521.270277035567" cy="-436.850370798255" r="2" style="fill: rgb(0,0,0)" />
	<circle cx="471.127505124652" cy="-478.837420963935" r="2" style="fill: rgb(0,0,0)" />
	<circle cx="396.183221515217" cy="-385.06968904476" r="2" style="fill: rgb(0,0,0)" />
	<circle cx="374.378888906315" cy="-383.650140878813" r="2" style="fill: rgb(0,0,0)" />
	<circle cx="315.125069888168" cy="-369.897532509277" r="2" style="fill: rgb(0,0,0)" />
	<circle cx="74.8801427541232" cy="-205.152046175868" r="2" style="fill: rgb(0,0,0)" />
	<circle cx="67.3138283773522" cy="-200.638464772385" r="2" style="fill: rgb(0,0,0)" />
	<circle cx="33.5" cy="-117.702598483424" r="2" style="fill: rgb(0,0,0)" />
	<circle cx="81.1768762133701" cy="-72.9351389725288" r="2" style="fill: rgb(0,0,0)" />
	<circle cx="169.15744006623" cy="-72.7297599848459" r="2" style="fill: rgb(0,0,0)" />
	<circle cx="281.688865583119" cy="-376.399130536658" r="2" style="fill: rgb(0,0,0)" />
	<circle cx="299.836036326116" cy="-434.457975678709" r="2" style="fill: rgb(0,0,0)" />
	<circle cx="198.308217068318" cy="-498.498081173181" r="2" style="fill: rgb(0,0,0)" />
	<!--
	Generated using the Perl SVG Module V2.87
	by Ronan Oger

	-->
</svg>