<?xml version="1.0" encoding="UTF-8" standalone="yes"?>
<!DOCTYPE svg PUBLIC "-//W3C//DTD SVG 1.0//EN" "http://www.w3.org/TR/2001/REC-SVG-20010904/DTD/svg10.dtd">
<!-- generated using polymake; Michael Joswig, Georg Loho, Benjamin Lorenz, Rico Raber; license CC BY-NC-ND 3.0; see polymake.org and matchthenet.de -->
<svg height="841pt" id="document" viewBox="0 -650.282595229894 572 650.282595229894" width="595pt" xmlns="http://www.w3.org/2000/svg" xmlns:svg="http://www.w3.org/2000/svg" xmlns:xlink="http://www.w3.org/1999/xlink">
	<title id="document_title">planar_net_</title>
	<polygon points="33.5,-322.32970911576 421.241846322505,-322.32970911576 460.77843047369,-357.939431248528 460.819433359441,-358.125625771655 336.580418956586,-448.439795242161 " style="fill: rgb(14,173,105); fill-opacity: 1; stroke: rgb(0,0,0); stroke-width: 3" />
	<polygon points="441.664408587862,-303.746568445073 421.241846322505,-322.32970911576 33.5,-322.32970911576 262.581757289048,-132.280381192523 356.999240248092,-160.822751926877 " style="fill: rgb(14,173,105); fill-opacity: 1; stroke: rgb(0,0,0); stroke-width: 3" />
	<polygon points="262.581757289048,-132.280381192523 539.727914716481,-53.5 555.805574188358,-88.6161221281479 465.330417843646,-164.44405929165 356.999240248092,-160.822751926877 " style="fill: rgb(14,173,105); fill-opacity: 1; stroke: rgb(0,0,0); stroke-width: 3" />
	<polygon points="33.5,-322.32970911576 336.580418956586,-448.439795242161 370.291617818377,-498.92263518849 394.607240586514,-591.958128202442 107.094550691057,-610.740944464335 " style="fill: rgb(14,173,105); fill-opacity: 1; stroke: rgb(0,0,0); stroke-width: 3" />
	<polygon points="467.851061019842,-365.274750581329 506.032585204944,-376.690719226539 516.365060384677,-404.42567459806 470.879566706905,-387.287469615132 " style="fill: rgb(14,173,105); fill-opacity: 1; stroke: rgb(0,0,0); stroke-width: 3" />
	<polygon points="370.291617818377,-498.92263518849 453.211640807968,-552.29418386836 444.164761882595,-600.051928652363 426.471418064982,-613.782595229894 394.607240586514,-591.958128202442 " style="fill: rgb(14,173,105); fill-opacity: 1; stroke: rgb(0,0,0); stroke-width: 3" />
	<polygon points="460.77843047369,-357.939431248528 421.241846322505,-322.32970911576 445.698697404687,-309.51266570415 460.509857202732,-310.74601396733 472.351243631036,-335.651560707759 " style="fill: rgb(14,173,105); fill-opacity: 1; stroke: rgb(0,0,0); stroke-width: 3" />
	<polygon points="336.580418956586,-448.439795242161 460.819433359441,-358.125625771655 467.851061019842,-365.274750581329 470.879566706905,-387.287469615132 397.131057177687,-452.750510816283 " style="fill: rgb(14,173,105); fill-opacity: 1; stroke: rgb(0,0,0); stroke-width: 3" />
	<polygon points="509.140364602698,-357.739595633678 501.554193656484,-340.356811754453 508.195556245958,-304.513411121118 561.5,-261.250288730038 555.705485490414,-379.157258717632 533.934607576783,-373.90230914783 " style="fill: rgb(14,173,105); fill-opacity: 1; stroke: rgb(0,0,0); stroke-width: 3" />
	<polygon points="472.351243631036,-335.651560707759 460.509857202732,-310.74601396733 488.797820839273,-295.510235503947 497.306654257139,-330.95677017057 " style="fill: rgb(14,173,105); fill-opacity: 1; stroke: rgb(0,0,0); stroke-width: 3" />
	<polygon points="455.868101343692,-299.370872546255 441.664408587862,-303.746568445073 356.999240248092,-160.822751926877 455.634418134133,-205.765599964105 472.994809235688,-272.186065964815 " style="fill: rgb(14,173,105); fill-opacity: 1; stroke: rgb(0,0,0); stroke-width: 3" />
	<polygon points="460.819433359441,-358.125625771655 460.77843047369,-357.939431248528 476.255994389472,-338.162571213374 501.554193656484,-340.356811754453 509.140364602698,-357.739595633678 469.626831937923,-362.919737094709 " style="fill: rgb(14,173,105); fill-opacity: 1; stroke: rgb(0,0,0); stroke-width: 3" />
	<circle cx="33.5" cy="-322.32970911576" r="2" style="fill: rgb(0,0,0)" />
	<circle cx="421.241846322505" cy="-322.32970911576" r="2" style="fill: rgb(0,0,0)" />
	<circle cx="460.77843047369" cy="-357.939431248528" r="2" style="fill: rgb(0,0,0)" />
	<circle cx="460.819433359441" cy="-358.125625771655" r="2" style="fill: rgb(0,0,0)" />
	<circle cx="336.580418956586" cy="-448.439795242161" r="2" style="fill: rgb(0,0,0)" />
	<circle cx="262.581757289048" cy="-132.280381192523" r="2" style="fill: rgb(0,0,0)" />
	<circle cx="356.999240248092" cy="-160.822751926877" r="2" style="fill: rgb(0,0,0)" />
	<circle cx="441.664408587862" cy="-303.746568445073" r="2" style="fill: rgb(0,0,0)" />
	<circle cx="370.291617818377" cy="-498.92263518849" r="2" style="fill: rgb(0,0,0)" />
	<circle cx="394.607240586514" cy="-591.958128202442" r="2" style="fill: rgb(0,0,0)" />
	<circle cx="107.094550691057" cy="-610.740944464335" r="2" style="fill: rgb(0,0,0)" />
	<circle cx="445.698697404687" cy="-309.51266570415" r="2" style="fill: rgb(0,0,0)" />
	<circle cx="460.509857202732" cy="-310.74601396733" r="2" style="fill: rgb(0,0,0)" />
	<circle cx="472.351243631036" cy="-335.651560707759" r="2" style="fill: rgb(0,0,0)" />
	<circle cx="467.851061019842" cy="-365.274750581329" r="2" style="fill: rgb(0,0,0)" />
	<circle cx="470.879566706905" cy="-387.287469615132" r="2" style="fill: rgb(0,0,0)" />
	<circle cx="397.131057177687" cy="-452.750510816283" r="2" style="fill: rgb(0,0,0)" />
	<circle cx="476.255994389472" cy="-338.162571213374" r="2" style="fill: rgb(0,0,0)" />
	<circle cx="501.554193656484" cy="-340.356811754453" r="2" style="fill: rgb(0,0,0)" />
	<circle cx="509.140364602698" cy="-357.739595633678" r="2" style="fill: rgb(0,0,0)" />
	<circle cx="469.626831937923" cy="-362.919737094709" r="2" style="fill: rgb(0,0,0)" />
	<circle cx="539.727914716481" cy="-53.5" r="2" style="fill: rgb(0,0,0)" />
	<circle cx="555.805574188358" cy="-88.6161221281479" r="2" style="fill: rgb(0,0,0)" />
	<circle cx="465.330417843646" cy="-164.44405929165" r="2" style="fill: rgb(0,0,0)" />
	<circle cx="455.634418134133" cy="-205.765599964105" r="2" style="fill: rgb(0,0,0)" />
	<circle cx="472.994809235688" cy="-272.186065964815" r="2" style="fill: rgb(0,0,0)" />
	<circle cx="455.868101343692" cy="-299.370872546255" r="2" style="fill: rgb(0,0,0)" />
	<circle cx="453.211640807968" cy="-552.29418386836" r="2" style="fill: rgb(0,0,0)" />
	<circle cx="444.164761882595" cy="-600.051928652363" r="2" style="fill: rgb(0,0,0)" />
	<circle cx="426.471418064982" cy="-613.782595229894" r="2" style="fill: rgb(0,0,0)" />
	<circle cx="488.797820839273" cy="-295.510235503947" r="2" style="fill: rgb(0,0,0)" />
	<circle cx="497.306654257139" cy="-330.95677017057" r="2" style="fill: rgb(0,0,0)" />
	<circle cx="506.032585204944" cy="-376.690719226539" r="2" style="fill: rgb(0,0,0)" />
	<circle cx="516.365060384677" cy="-404.42567459806" r="2" style="fill: rgb(0,0,0)" />
	<circle cx="508.195556245958" cy="-304.513411121118" r="2" style="fill: rgb(0,0,0)" />
	<circle cx="561.5" cy="-261.250288730038" r="2" style="fill: rgb(0,0,0)" />
	<circle cx="555.705485490414" cy="-379.157258717632" r="2" style="fill: rgb(0,0,0)" />
	<circle cx="533.934607576783" cy="-373.90230914783" r="2" style="fill: rgb(0,0,0)" />
	<!--
	Generated using the Perl SVG Module V2.87
	by Ronan Oger

	-->
</svg>