<?xml version="1.0" encoding="UTF-8" standalone="yes"?>
<!DOCTYPE svg PUBLIC "-//W3C//DTD SVG 1.0//EN" "http://www.w3.org/TR/2001/REC-SVG-20010904/DTD/svg10.dtd">
<!-- generated using polymake; Michael Joswig, Georg Loho, Benjamin Lorenz, Rico Raber; license CC BY-NC-ND 3.0; see polymake.org and matchthenet.de -->
<svg height="841pt" id="document" viewBox="0 -648.549590329658 572 648.549590329658" width="595pt" xmlns="http://www.w3.org/2000/svg" xmlns:svg="http://www.w3.org/2000/svg" xmlns:xlink="http://www.w3.org/1999/xlink">
	<title id="document_title">planar_net_</title>
	<polygon points="376.905510003199,-340.729815087853 399.336574039767,-340.729815087853 434.003686280841,-414.601224004672 427.3873488673,-423.693810130718 396.526807621533,-427.527656247119 " style="fill: rgb(255,210,63); fill-opacity: 1; stroke: rgb(0,0,0); stroke-width: 3" />
	<polygon points="433.315531000963,-150.625209330378 435.093989967965,-199.625339223663 386.711814451994,-201.761828496495 324.820085363464,-133.557937632209 423.436344375845,-132.850435707891 " style="fill: rgb(255,210,63); fill-opacity: 1; stroke: rgb(0,0,0); stroke-width: 3" />
	<polygon points="343.061402937429,-456.072475707008 413.640882374642,-497.082810818472 363.709501105051,-535.360047374407 115.147023389228,-612.049590329658 75.6471166128891,-605.175619848601 " style="fill: rgb(255,210,63); fill-opacity: 1; stroke: rgb(0,0,0); stroke-width: 3" />
	<polygon points="268.774455225919,-265.150221868541 211.564554462079,-275.780534822869 36.4111132327585,-123.975153671863 74.3262530721676,-110.93919277626 324.820085363464,-133.557937632209 386.711814451994,-201.761828496495 " style="fill: rgb(238,66,102); fill-opacity: 1; stroke: rgb(0,0,0); stroke-width: 3" />
	<polygon points="449.853765874143,-410.47298250779 512.327126886584,-363.624951246068 503.795011569059,-418.718611429758 497.388900285794,-421.598193139599 484.621271951779,-423.35704726622 " style="fill: rgb(255,210,63); fill-opacity: 1; stroke: rgb(0,0,0); stroke-width: 3" />
	<polygon points="513.620033951584,-291.861075274868 519.319333315954,-225.830462248574 538.751473857622,-219.836063223382 556.115901776844,-239.435561549716 561.5,-261.093343524118 518.580501970687,-296.833399643678 " style="fill: rgb(238,66,102); fill-opacity: 1; stroke: rgb(0,0,0); stroke-width: 3" />
	<polygon points="328.029486122376,-53.5 414.693701241528,-87.5035523850275 421.241711926745,-112.856801637791 324.820085363464,-133.557937632209 74.3262530721676,-110.93919277626 " style="fill: rgb(255,210,63); fill-opacity: 1; stroke: rgb(0,0,0); stroke-width: 3" />
	<polygon points="446.692907976297,-292.382445988197 399.336574039767,-340.729815087853 376.905510003199,-340.729815087853 356.252384473358,-338.817721482753 211.564554462079,-275.780534822869 268.774455225919,-265.150221868541 443.347151515172,-275.467311987472 " style="fill: rgb(84,13,110); fill-opacity: 1; stroke: rgb(0,0,0); stroke-width: 3" />
	<polygon points="376.905510003199,-340.729815087853 396.526807621533,-427.527656247119 382.835040692891,-429.713956949889 356.176712925282,-340.005475520672 " style="fill: rgb(67,184,206); fill-opacity: 1; stroke: rgb(0,0,0); stroke-width: 3" />
	<polygon points="491.939683950687,-475.585024189395 484.621271951779,-423.35704726622 497.493823635771,-422.721976988926 508.600566139844,-477.458392595572 " style="fill: rgb(67,184,206); fill-opacity: 1; stroke: rgb(0,0,0); stroke-width: 3" />
	<polygon points="443.347151515172,-275.467311987472 268.774455225919,-265.150221868541 393.418768647792,-216.251303198514 440.905305466442,-225.760683569654 " style="fill: rgb(67,184,206); fill-opacity: 1; stroke: rgb(0,0,0); stroke-width: 3" />
	<polygon points="427.3873488673,-423.693810130718 434.003686280841,-414.601224004672 449.853765874143,-410.47298250779 484.621271951779,-423.35704726622 491.939683950687,-475.585024189395 463.011199263994,-481.483808697849 " style="fill: rgb(238,66,102); fill-opacity: 1; stroke: rgb(0,0,0); stroke-width: 3" />
	<polygon points="382.835040692891,-429.713956949889 337.459039290498,-443.422799544746 33.5,-480.17943917584 199.7953153977,-318.719011213874 356.176712925282,-340.005475520672 " style="fill: rgb(255,210,63); fill-opacity: 1; stroke: rgb(0,0,0); stroke-width: 3" />
	<polygon points="463.011199263994,-481.483808697849 491.939683950687,-475.585024189395 508.273797308954,-479.365400533855 528.592711328686,-488.595230802389 464.332754813131,-555.956835189792 460.921346681837,-493.134450895572 " style="fill: rgb(238,66,102); fill-opacity: 1; stroke: rgb(0,0,0); stroke-width: 3" />
	<polygon points="396.526807621533,-427.527656247119 427.3873488673,-423.693810130718 424.078635717605,-491.500853044902 413.640882374642,-497.082810818472 343.061402937429,-456.072475707008 382.989491584415,-430.525233085562 " style="fill: rgb(238,66,102); fill-opacity: 1; stroke: rgb(0,0,0); stroke-width: 3" />
	<polygon points="434.003686280841,-414.601224004672 399.336574039767,-340.729815087853 461.872726026367,-314.858592513806 463.469966659664,-327.389977978396 446.056864421561,-403.511215092198 " style="fill: rgb(255,210,63); fill-opacity: 1; stroke: rgb(0,0,0); stroke-width: 3" />
	<polygon points="458.17174134288,-297.657214594026 446.692907976297,-292.382445988197 443.347151515172,-275.467311987472 470.986129276789,-234.081342999345 519.319333315954,-225.830462248574 513.620033951584,-291.861075274868 " style="fill: rgb(238,66,102); fill-opacity: 1; stroke: rgb(0,0,0); stroke-width: 3" />
	<circle cx="376.905510003199" cy="-340.729815087853" r="2" style="fill: rgb(0,0,0)" />
	<circle cx="399.336574039767" cy="-340.729815087853" r="2" style="fill: rgb(0,0,0)" />
	<circle cx="434.003686280841" cy="-414.601224004672" r="2" style="fill: rgb(0,0,0)" />
	<circle cx="427.3873488673" cy="-423.693810130718" r="2" style="fill: rgb(0,0,0)" />
	<circle cx="396.526807621533" cy="-427.527656247119" r="2" style="fill: rgb(0,0,0)" />
	<circle cx="356.252384473358" cy="-338.817721482753" r="2" style="fill: rgb(0,0,0)" />
	<circle cx="211.564554462079" cy="-275.780534822869" r="2" style="fill: rgb(0,0,0)" />
	<circle cx="268.774455225919" cy="-265.150221868541" r="2" style="fill: rgb(0,0,0)" />
	<circle cx="443.347151515172" cy="-275.467311987472" r="2" style="fill: rgb(0,0,0)" />
	<circle cx="446.692907976297" cy="-292.382445988197" r="2" style="fill: rgb(0,0,0)" />
	<circle cx="382.835040692891" cy="-429.713956949889" r="2" style="fill: rgb(0,0,0)" />
	<circle cx="356.176712925282" cy="-340.005475520672" r="2" style="fill: rgb(0,0,0)" />
	<circle cx="449.853765874143" cy="-410.47298250779" r="2" style="fill: rgb(0,0,0)" />
	<circle cx="484.621271951779" cy="-423.35704726622" r="2" style="fill: rgb(0,0,0)" />
	<circle cx="491.939683950687" cy="-475.585024189395" r="2" style="fill: rgb(0,0,0)" />
	<circle cx="463.011199263994" cy="-481.483808697849" r="2" style="fill: rgb(0,0,0)" />
	<circle cx="424.078635717605" cy="-491.500853044902" r="2" style="fill: rgb(0,0,0)" />
	<circle cx="413.640882374642" cy="-497.082810818472" r="2" style="fill: rgb(0,0,0)" />
	<circle cx="343.061402937429" cy="-456.072475707008" r="2" style="fill: rgb(0,0,0)" />
	<circle cx="382.989491584415" cy="-430.525233085562" r="2" style="fill: rgb(0,0,0)" />
	<circle cx="461.872726026367" cy="-314.858592513806" r="2" style="fill: rgb(0,0,0)" />
	<circle cx="463.469966659664" cy="-327.389977978396" r="2" style="fill: rgb(0,0,0)" />
	<circle cx="446.056864421561" cy="-403.511215092198" r="2" style="fill: rgb(0,0,0)" />
	<circle cx="36.4111132327585" cy="-123.975153671863" r="2" style="fill: rgb(0,0,0)" />
	<circle cx="74.3262530721676" cy="-110.93919277626" r="2" style="fill: rgb(0,0,0)" />
	<circle cx="324.820085363464" cy="-133.557937632209" r="2" style="fill: rgb(0,0,0)" />
	<circle cx="386.711814451994" cy="-201.761828496495" r="2" style="fill: rgb(0,0,0)" />
	<circle cx="393.418768647792" cy="-216.251303198514" r="2" style="fill: rgb(0,0,0)" />
	<circle cx="440.905305466442" cy="-225.760683569654" r="2" style="fill: rgb(0,0,0)" />
	<circle cx="470.986129276789" cy="-234.081342999345" r="2" style="fill: rgb(0,0,0)" />
	<circle cx="519.319333315954" cy="-225.830462248574" r="2" style="fill: rgb(0,0,0)" />
	<circle cx="513.620033951584" cy="-291.861075274868" r="2" style="fill: rgb(0,0,0)" />
	<circle cx="458.17174134288" cy="-297.657214594026" r="2" style="fill: rgb(0,0,0)" />
	<circle cx="337.459039290498" cy="-443.422799544746" r="2" style="fill: rgb(0,0,0)" />
	<circle cx="33.5" cy="-480.17943917584" r="2" style="fill: rgb(0,0,0)" />
	<circle cx="199.7953153977" cy="-318.719011213874" r="2" style="fill: rgb(0,0,0)" />
	<circle cx="512.327126886584" cy="-363.624951246068" r="2" style="fill: rgb(0,0,0)" />
	<circle cx="503.795011569059" cy="-418.718611429758" r="2" style="fill: rgb(0,0,0)" />
	<circle cx="497.388900285794" cy="-421.598193139599" r="2" style="fill: rgb(0,0,0)" />
	<circle cx="497.493823635771" cy="-422.721976988926" r="2" style="fill: rgb(0,0,0)" />
	<circle cx="508.600566139844" cy="-477.458392595572" r="2" style="fill: rgb(0,0,0)" />
	<circle cx="508.273797308954" cy="-479.365400533855" r="2" style="fill: rgb(0,0,0)" />
	<circle cx="528.592711328686" cy="-488.595230802389" r="2" style="fill: rgb(0,0,0)" />
	<circle cx="464.332754813131" cy="-555.956835189792" r="2" style="fill: rgb(0,0,0)" />
	<circle cx="460.921346681837" cy="-493.134450895572" r="2" style="fill: rgb(0,0,0)" />
	<circle cx="363.709501105051" cy="-535.360047374407" r="2" style="fill: rgb(0,0,0)" />
	<circle cx="115.147023389228" cy="-612.049590329658" r="2" style="fill: rgb(0,0,0)" />
	<circle cx="75.6471166128891" cy="-605.175619848601" r="2" style="fill: rgb(0,0,0)" />
	<circle cx="423.436344375845" cy="-132.850435707891" r="2" style="fill: rgb(0,0,0)" />
	<circle cx="433.315531000963" cy="-150.625209330378" r="2" style="fill: rgb(0,0,0)" />
	<circle cx="435.093989967965" cy="-199.625339223663" r="2" style="fill: rgb(0,0,0)" />
	<circle cx="328.029486122376" cy="-53.5" r="2" style="fill: rgb(0,0,0)" />
	<circle cx="414.693701241528" cy="-87.5035523850275" r="2" style="fill: rgb(0,0,0)" />
	<circle cx="421.241711926745" cy="-112.856801637791" r="2" style="fill: rgb(0,0,0)" />
	<circle cx="538.751473857622" cy="-219.836063223382" r="2" style="fill: rgb(0,0,0)" />
	<circle cx="556.115901776844" cy="-239.435561549716" r="2" style="fill: rgb(0,0,0)" />
	<circle cx="561.5" cy="-261.093343524118" r="2" style="fill: rgb(0,0,0)" />
	<circle cx="518.580501970687" cy="-296.833399643678" r="2" style="fill: rgb(0,0,0)" />
	<!--
	Generated using the Perl SVG Module V2.86
	by Ronan Oger
	Info: http://www.roitsystems.com/
	-->
</svg>