<?xml version="1.0" encoding="UTF-8" standalone="yes"?>
<!DOCTYPE svg PUBLIC "-//W3C//DTD SVG 1.0//EN" "http://www.w3.org/TR/2001/REC-SVG-20010904/DTD/svg10.dtd">
<!-- generated using polymake; Michael Joswig, Georg Loho, Benjamin Lorenz, Rico Raber; license CC BY-NC-ND 3.0; see polymake.org and matchthenet.de -->
<svg height="841pt" id="document" viewBox="0 -506.101449640452 572 506.101449640452" width="595pt" xmlns="http://www.w3.org/2000/svg" xmlns:svg="http://www.w3.org/2000/svg" xmlns:xlink="http://www.w3.org/1999/xlink">
	<title id="document_title">planar_net_</title>
	<polygon points="245.084140408754,-189.815608095708 292.959195568299,-189.815608095708 296.381250902895,-190.711930733771 343.395643398625,-249.7988542936 225.242568433122,-223.317651179302 " style="fill: rgb(255,210,63); fill-opacity: 1; stroke: rgb(0,0,0); stroke-width: 3" />
	<polygon points="319.836154341347,-139.971318134909 318.329659434532,-135.093720918422 345.578034223437,-114.357789172076 427.658781913573,-129.679619140952 432.063756369807,-179.006746868757 " style="fill: rgb(255,210,63); fill-opacity: 1; stroke: rgb(0,0,0); stroke-width: 3" />
	<polygon points="404.36406553789,-263.289851856126 432.063756369807,-179.006746868757 475.853173115744,-155.875462622391 502.137000099707,-158.226318543745 561.5,-235.920616940416 " style="fill: rgb(255,210,63); fill-opacity: 1; stroke: rgb(0,0,0); stroke-width: 3" />
	<polygon points="157.870132477833,-162.481070988403 153.740356176872,-241.419745147971 92.1001175567141,-225.10884175828 33.5,-146.837544446609 40.4603587070886,-147.021758973771 " style="fill: rgb(255,210,63); fill-opacity: 1; stroke: rgb(0,0,0); stroke-width: 3" />
	<polygon points="243.822205018967,-135.847236830409 292.959195568299,-189.815608095708 245.084140408754,-189.815608095708 230.685426885391,-134.447833069004 " style="fill: rgb(67,184,206); fill-opacity: 1; stroke: rgb(0,0,0); stroke-width: 3" />
	<polygon points="343.395643398625,-249.7988542936 296.381250902895,-190.711930733771 319.836154341347,-139.971318134909 432.063756369807,-179.006746868757 404.36406553789,-263.289851856126 381.749633649306,-269.470331173852 " style="fill: rgb(238,66,102); fill-opacity: 1; stroke: rgb(0,0,0); stroke-width: 3" />
	<polygon points="296.381250902895,-190.711930733771 292.959195568299,-189.815608095708 250.787522676421,-130.245658097625 291.685202032302,-131.94683306981 295.908561593255,-134.81453520383 " style="fill: rgb(255,210,63); fill-opacity: 1; stroke: rgb(0,0,0); stroke-width: 3" />
	<polygon points="245.084140408754,-189.815608095708 225.242568433122,-223.317651179302 171.184904076222,-244.577865167806 153.740356176872,-241.419745147971 157.870132477833,-162.481070988403 188.348915743397,-144.113239919045 210.659163272314,-144.122781397295 " style="fill: rgb(84,13,110); fill-opacity: 1; stroke: rgb(0,0,0); stroke-width: 3" />
	<polygon points="225.242568433122,-223.317651179302 343.395643398625,-249.7988542936 369.065291321263,-284.426368589721 182.445388087972,-262.593968841038 " style="fill: rgb(67,184,206); fill-opacity: 1; stroke: rgb(0,0,0); stroke-width: 3" />
	<polygon points="381.749633649306,-269.470331173852 404.36406553789,-263.289851856126 420.72233672942,-421.950445208025 378.355529402008,-469.601449640452 366.178963520546,-456.716682789366 " style="fill: rgb(255,210,63); fill-opacity: 1; stroke: rgb(0,0,0); stroke-width: 3" />
	<polygon points="291.685202032302,-131.94683306981 250.787522676421,-130.245658097625 238.324586908524,-125.862907515676 228.371914352085,-105.895645689749 269.223416624784,-96.3078414837397 294.228335075091,-97.8003066234428 " style="fill: rgb(238,66,102); fill-opacity: 1; stroke: rgb(0,0,0); stroke-width: 3" />
	<polygon points="345.578034223437,-114.357789172076 331.91319283849,-93.3638493602294 414.177236521538,-100.73170696111 420.096884798413,-104.397534644108 427.658781913573,-129.679619140952 " style="fill: rgb(255,210,63); fill-opacity: 1; stroke: rgb(0,0,0); stroke-width: 3" />
	<polygon points="188.348915743397,-144.113239919045 157.870132477833,-162.481070988403 111.532550850364,-53.5 177.136532842876,-103.677442695321 " style="fill: rgb(67,184,206); fill-opacity: 1; stroke: rgb(0,0,0); stroke-width: 3" />
	<circle cx="245.084140408754" cy="-189.815608095708" r="2" style="fill: rgb(0,0,0)" />
	<circle cx="292.959195568299" cy="-189.815608095708" r="2" style="fill: rgb(0,0,0)" />
	<circle cx="296.381250902895" cy="-190.711930733771" r="2" style="fill: rgb(0,0,0)" />
	<circle cx="343.395643398625" cy="-249.7988542936" r="2" style="fill: rgb(0,0,0)" />
	<circle cx="225.242568433122" cy="-223.317651179302" r="2" style="fill: rgb(0,0,0)" />
	<circle cx="230.685426885391" cy="-134.447833069004" r="2" style="fill: rgb(0,0,0)" />
	<circle cx="243.822205018967" cy="-135.847236830409" r="2" style="fill: rgb(0,0,0)" />
	<circle cx="319.836154341347" cy="-139.971318134909" r="2" style="fill: rgb(0,0,0)" />
	<circle cx="432.063756369807" cy="-179.006746868757" r="2" style="fill: rgb(0,0,0)" />
	<circle cx="404.36406553789" cy="-263.289851856126" r="2" style="fill: rgb(0,0,0)" />
	<circle cx="381.749633649306" cy="-269.470331173852" r="2" style="fill: rgb(0,0,0)" />
	<circle cx="250.787522676421" cy="-130.245658097625" r="2" style="fill: rgb(0,0,0)" />
	<circle cx="291.685202032302" cy="-131.94683306981" r="2" style="fill: rgb(0,0,0)" />
	<circle cx="295.908561593255" cy="-134.81453520383" r="2" style="fill: rgb(0,0,0)" />
	<circle cx="171.184904076222" cy="-244.577865167806" r="2" style="fill: rgb(0,0,0)" />
	<circle cx="153.740356176872" cy="-241.419745147971" r="2" style="fill: rgb(0,0,0)" />
	<circle cx="157.870132477833" cy="-162.481070988403" r="2" style="fill: rgb(0,0,0)" />
	<circle cx="188.348915743397" cy="-144.113239919045" r="2" style="fill: rgb(0,0,0)" />
	<circle cx="210.659163272314" cy="-144.122781397295" r="2" style="fill: rgb(0,0,0)" />
	<circle cx="369.065291321263" cy="-284.426368589721" r="2" style="fill: rgb(0,0,0)" />
	<circle cx="182.445388087972" cy="-262.593968841038" r="2" style="fill: rgb(0,0,0)" />
	<circle cx="318.329659434532" cy="-135.093720918422" r="2" style="fill: rgb(0,0,0)" />
	<circle cx="345.578034223437" cy="-114.357789172076" r="2" style="fill: rgb(0,0,0)" />
	<circle cx="427.658781913573" cy="-129.679619140952" r="2" style="fill: rgb(0,0,0)" />
	<circle cx="475.853173115744" cy="-155.875462622391" r="2" style="fill: rgb(0,0,0)" />
	<circle cx="502.137000099707" cy="-158.226318543745" r="2" style="fill: rgb(0,0,0)" />
	<circle cx="561.5" cy="-235.920616940416" r="2" style="fill: rgb(0,0,0)" />
	<circle cx="420.72233672942" cy="-421.950445208025" r="2" style="fill: rgb(0,0,0)" />
	<circle cx="378.355529402008" cy="-469.601449640452" r="2" style="fill: rgb(0,0,0)" />
	<circle cx="366.178963520546" cy="-456.716682789366" r="2" style="fill: rgb(0,0,0)" />
	<circle cx="238.324586908524" cy="-125.862907515676" r="2" style="fill: rgb(0,0,0)" />
	<circle cx="228.371914352085" cy="-105.895645689749" r="2" style="fill: rgb(0,0,0)" />
	<circle cx="269.223416624784" cy="-96.3078414837397" r="2" style="fill: rgb(0,0,0)" />
	<circle cx="294.228335075091" cy="-97.8003066234428" r="2" style="fill: rgb(0,0,0)" />
	<circle cx="92.1001175567141" cy="-225.10884175828" r="2" style="fill: rgb(0,0,0)" />
	<circle cx="33.5" cy="-146.837544446609" r="2" style="fill: rgb(0,0,0)" />
	<circle cx="40.4603587070886" cy="-147.021758973771" r="2" style="fill: rgb(0,0,0)" />
	<circle cx="111.532550850364" cy="-53.5" r="2" style="fill: rgb(0,0,0)" />
	<circle cx="177.136532842876" cy="-103.677442695321" r="2" style="fill: rgb(0,0,0)" />
	<circle cx="331.91319283849" cy="-93.3638493602294" r="2" style="fill: rgb(0,0,0)" />
	<circle cx="414.177236521538" cy="-100.73170696111" r="2" style="fill: rgb(0,0,0)" />
	<circle cx="420.096884798413" cy="-104.397534644108" r="2" style="fill: rgb(0,0,0)" />
	<!--
	Generated using the Perl SVG Module V2.86
	by Ronan Oger
	Info: http://www.roitsystems.com/
	-->
</svg>