<?xml version="1.0" encoding="UTF-8" standalone="yes"?>
<!DOCTYPE svg PUBLIC "-//W3C//DTD SVG 1.0//EN" "http://www.w3.org/TR/2001/REC-SVG-20010904/DTD/svg10.dtd">
<!-- generated using polymake; Michael Joswig, Georg Loho, Benjamin Lorenz, Rico Raber; license CC BY-NC-ND 3.0; see polymake.org and matchthenet.de -->
<svg height="841pt" id="document" viewBox="0 -539.513063060913 572 539.513063060913" width="595pt" xmlns="http://www.w3.org/2000/svg" xmlns:svg="http://www.w3.org/2000/svg" xmlns:xlink="http://www.w3.org/1999/xlink">
	<title id="document_title">planar_net_</title>
	<polygon points="200.469513957195,-252.955202910519 360.81020708803,-252.955202910519 262.444102672595,-323.013944982839 214.752231063992,-318.22965865428 182.073180323093,-279.596137564051 " style="fill: rgb(14,173,105); fill-opacity: 1; stroke: rgb(0,0,0); stroke-width: 3" />
	<polygon points="450.280367008449,-156.824343133711 385.601697923894,-86.8130429433017 446.73055263117,-53.5 495.220766027693,-57.0079337330076 " style="fill: rgb(14,173,105); fill-opacity: 1; stroke: rgb(0,0,0); stroke-width: 3" />
	<polygon points="145.268930321131,-413.275152585695 168.266998853926,-437.268030178331 157.549659635177,-454.968692061437 135.95896003852,-471.972109849744 87.3546468388123,-473.079870067669 92.3420414808291,-416.378730557734 " style="fill: rgb(14,173,105); fill-opacity: 1; stroke: rgb(0,0,0); stroke-width: 3" />
	<polygon points="373.59214450877,-249.571175632507 360.81020708803,-252.955202910519 200.469513957195,-252.955202910519 286.905334950967,-116.029861555524 " style="fill: rgb(14,173,105); fill-opacity: 1; stroke: rgb(0,0,0); stroke-width: 3" />
	<polygon points="212.625770738666,-413.956425368456 222.447344935839,-420.319272454857 267.200948606847,-503.013063060913 172.021969479039,-457.616862740265 168.266998853926,-437.268030178331 " style="fill: rgb(14,173,105); fill-opacity: 1; stroke: rgb(0,0,0); stroke-width: 3" />
	<polygon points="444.304597473057,-238.108788395542 373.59214450877,-249.571175632507 286.905334950967,-116.029861555524 307.810310383841,-82.2435582435964 385.601697923894,-86.8130429433017 450.280367008449,-156.824343133711 463.380896612257,-211.904620841074 " style="fill: rgb(14,173,105); fill-opacity: 1; stroke: rgb(0,0,0); stroke-width: 3" />
	<polygon points="141.433320220909,-257.408935722082 46.3691477537436,-237.137483477985 67.4513912512419,-188.491550784127 97.779541486115,-167.765671487908 " style="fill: rgb(14,173,105); fill-opacity: 1; stroke: rgb(0,0,0); stroke-width: 3" />
	<polygon points="143.565409170369,-79.4213958624579 97.779541486115,-167.765671487908 62.4945987454326,-177.979954872334 33.5,-128.998258590683 66.5245427963775,-67.7130623272015 " style="fill: rgb(14,173,105); fill-opacity: 1; stroke: rgb(0,0,0); stroke-width: 3" />
	<polygon points="463.380896612257,-211.904620841074 450.280367008449,-156.824343133711 534.08437459064,-86.3981877451123 561.5,-88.3107799573253 508.570306287963,-179.515498009153 " style="fill: rgb(14,173,105); fill-opacity: 1; stroke: rgb(0,0,0); stroke-width: 3" />
	<polygon points="200.469513957195,-252.955202910519 182.073180323093,-279.596137564051 141.433320220909,-257.408935722082 97.779541486115,-167.765671487908 143.565409170369,-79.4213958624579 181.191214518052,-92.1819233309061 " style="fill: rgb(14,173,105); fill-opacity: 1; stroke: rgb(0,0,0); stroke-width: 3" />
	<polygon points="262.444102672595,-323.013944982839 360.81020708803,-252.955202910519 373.921974788943,-251.249004620825 410.373408066565,-312.916908245031 304.037937699965,-344.432003082602 " style="fill: rgb(14,173,105); fill-opacity: 1; stroke: rgb(0,0,0); stroke-width: 3" />
	<polygon points="304.037937699965,-344.432003082602 410.373408066565,-312.916908245031 421.083850369532,-343.508573968651 374.746914667026,-374.233586814256 285.209510228241,-402.942492274187 " style="fill: rgb(14,173,105); fill-opacity: 1; stroke: rgb(0,0,0); stroke-width: 3" />
	<polygon points="182.073180323093,-279.596137564051 214.752231063992,-318.22965865428 212.625770738666,-413.956425368456 168.266998853926,-437.268030178331 145.268930321131,-413.275152585695 154.074177905529,-316.473312324631 " style="fill: rgb(14,173,105); fill-opacity: 1; stroke: rgb(0,0,0); stroke-width: 3" />
	<polygon points="214.752231063992,-318.22965865428 262.444102672595,-323.013944982839 301.013719814672,-349.493464588819 266.435080632981,-400.309847171986 255.633998230426,-404.813818940179 " style="fill: rgb(14,173,105); fill-opacity: 1; stroke: rgb(0,0,0); stroke-width: 3" />
	<circle cx="200.469513957195" cy="-252.955202910519" r="2" style="fill: rgb(0,0,0)" />
	<circle cx="360.81020708803" cy="-252.955202910519" r="2" style="fill: rgb(0,0,0)" />
	<circle cx="262.444102672595" cy="-323.013944982839" r="2" style="fill: rgb(0,0,0)" />
	<circle cx="214.752231063992" cy="-318.22965865428" r="2" style="fill: rgb(0,0,0)" />
	<circle cx="182.073180323093" cy="-279.596137564051" r="2" style="fill: rgb(0,0,0)" />
	<circle cx="286.905334950967" cy="-116.029861555524" r="2" style="fill: rgb(0,0,0)" />
	<circle cx="373.59214450877" cy="-249.571175632507" r="2" style="fill: rgb(0,0,0)" />
	<circle cx="141.433320220909" cy="-257.408935722082" r="2" style="fill: rgb(0,0,0)" />
	<circle cx="97.779541486115" cy="-167.765671487908" r="2" style="fill: rgb(0,0,0)" />
	<circle cx="143.565409170369" cy="-79.4213958624579" r="2" style="fill: rgb(0,0,0)" />
	<circle cx="181.191214518052" cy="-92.1819233309061" r="2" style="fill: rgb(0,0,0)" />
	<circle cx="373.921974788943" cy="-251.249004620825" r="2" style="fill: rgb(0,0,0)" />
	<circle cx="410.373408066565" cy="-312.916908245031" r="2" style="fill: rgb(0,0,0)" />
	<circle cx="304.037937699965" cy="-344.432003082602" r="2" style="fill: rgb(0,0,0)" />
	<circle cx="212.625770738666" cy="-413.956425368456" r="2" style="fill: rgb(0,0,0)" />
	<circle cx="168.266998853926" cy="-437.268030178331" r="2" style="fill: rgb(0,0,0)" />
	<circle cx="145.268930321131" cy="-413.275152585695" r="2" style="fill: rgb(0,0,0)" />
	<circle cx="154.074177905529" cy="-316.473312324631" r="2" style="fill: rgb(0,0,0)" />
	<circle cx="301.013719814672" cy="-349.493464588819" r="2" style="fill: rgb(0,0,0)" />
	<circle cx="266.435080632981" cy="-400.309847171986" r="2" style="fill: rgb(0,0,0)" />
	<circle cx="255.633998230426" cy="-404.813818940179" r="2" style="fill: rgb(0,0,0)" />
	<circle cx="307.810310383841" cy="-82.2435582435964" r="2" style="fill: rgb(0,0,0)" />
	<circle cx="385.601697923894" cy="-86.8130429433017" r="2" style="fill: rgb(0,0,0)" />
	<circle cx="450.280367008449" cy="-156.824343133711" r="2" style="fill: rgb(0,0,0)" />
	<circle cx="463.380896612257" cy="-211.904620841074" r="2" style="fill: rgb(0,0,0)" />
	<circle cx="444.304597473057" cy="-238.108788395542" r="2" style="fill: rgb(0,0,0)" />
	<circle cx="46.3691477537436" cy="-237.137483477985" r="2" style="fill: rgb(0,0,0)" />
	<circle cx="67.4513912512419" cy="-188.491550784127" r="2" style="fill: rgb(0,0,0)" />
	<circle cx="62.4945987454326" cy="-177.979954872334" r="2" style="fill: rgb(0,0,0)" />
	<circle cx="33.5" cy="-128.998258590683" r="2" style="fill: rgb(0,0,0)" />
	<circle cx="66.5245427963775" cy="-67.7130623272015" r="2" style="fill: rgb(0,0,0)" />
	<circle cx="421.083850369532" cy="-343.508573968651" r="2" style="fill: rgb(0,0,0)" />
	<circle cx="374.746914667026" cy="-374.233586814256" r="2" style="fill: rgb(0,0,0)" />
	<circle cx="285.209510228241" cy="-402.942492274187" r="2" style="fill: rgb(0,0,0)" />
	<circle cx="157.549659635177" cy="-454.968692061437" r="2" style="fill: rgb(0,0,0)" />
	<circle cx="135.95896003852" cy="-471.972109849744" r="2" style="fill: rgb(0,0,0)" />
	<circle cx="87.3546468388123" cy="-473.079870067669" r="2" style="fill: rgb(0,0,0)" />
	<circle cx="92.3420414808291" cy="-416.378730557734" r="2" style="fill: rgb(0,0,0)" />
	<circle cx="222.447344935839" cy="-420.319272454857" r="2" style="fill: rgb(0,0,0)" />
	<circle cx="267.200948606847" cy="-503.013063060913" r="2" style="fill: rgb(0,0,0)" />
	<circle cx="172.021969479039" cy="-457.616862740265" r="2" style="fill: rgb(0,0,0)" />
	<circle cx="446.73055263117" cy="-53.5" r="2" style="fill: rgb(0,0,0)" />
	<circle cx="495.220766027693" cy="-57.0079337330076" r="2" style="fill: rgb(0,0,0)" />
	<circle cx="534.08437459064" cy="-86.3981877451123" r="2" style="fill: rgb(0,0,0)" />
	<circle cx="561.5" cy="-88.3107799573253" r="2" style="fill: rgb(0,0,0)" />
	<circle cx="508.570306287963" cy="-179.515498009153" r="2" style="fill: rgb(0,0,0)" />
	<!--
	Generated using the Perl SVG Module V2.87
	by Ronan Oger

	-->
</svg>