<?xml version="1.0" encoding="UTF-8" standalone="yes"?>
<!DOCTYPE svg PUBLIC "-//W3C//DTD SVG 1.0//EN" "http://www.w3.org/TR/2001/REC-SVG-20010904/DTD/svg10.dtd">
<!-- generated using polymake; Michael Joswig, Georg Loho, Benjamin Lorenz, Rico Raber; license CC BY-NC-ND 3.0; see polymake.org and matchthenet.de -->
<svg height="841pt" id="document" viewBox="0 -793.53090199744 572 793.53090199744" width="595pt" xmlns="http://www.w3.org/2000/svg" xmlns:svg="http://www.w3.org/2000/svg" xmlns:xlink="http://www.w3.org/1999/xlink">
	<title id="document_title">planar_net_</title>
	<polygon points="180.521793276799,-284.529682762892 394.47924536744,-284.529682762892 405.694500287095,-289.416134666545 415.314733729263,-460.544603428331 350.322756858004,-477.38259340209 162.947117549402,-300.169586414044 " style="fill: rgb(238,66,102); fill-opacity: 1; stroke: rgb(0,0,0); stroke-width: 3" />
	<polygon points="331.168110608032,-518.368594903062 308.803729551777,-656.90934118857 282.359160936998,-660.767104865142 270.688104599405,-660.327011039141 202.611278061987,-638.144350432663 " style="fill: rgb(255,210,63); fill-opacity: 1; stroke: rgb(0,0,0); stroke-width: 3" />
	<polygon points="419.945915575056,-602.7586540356 439.571948218586,-647.50814886712 443.99347546491,-674.278901674542 433.049538017245,-696.099210645005 392.048259497325,-700.909363920126 353.018087016335,-668.397081263201 " style="fill: rgb(238,66,102); fill-opacity: 1; stroke: rgb(0,0,0); stroke-width: 3" />
	<polygon points="296.306081698602,-179.298058944896 394.47924536744,-284.529682762892 180.521793276799,-284.529682762892 257.997108088428,-191.751031888199 " style="fill: rgb(67,184,206); fill-opacity: 1; stroke: rgb(0,0,0); stroke-width: 3" />
	<polygon points="350.322756858004,-477.38259340209 415.314733729263,-460.544603428331 419.945915575056,-602.7586540356 353.018087016335,-668.397081263201 308.803729551777,-656.90934118857 331.168110608032,-518.368594903062 " style="fill: rgb(238,66,102); fill-opacity: 1; stroke: rgb(0,0,0); stroke-width: 3" />
	<polygon points="414.863642256545,-229.124354950543 416.183356852144,-179.947487983895 461.580948881886,-123.114663286813 483.466716733157,-139.153250338862 " style="fill: rgb(67,184,206); fill-opacity: 1; stroke: rgb(0,0,0); stroke-width: 3" />
	<polygon points="136.670600760171,-359.525541361879 145.318069353341,-410.701933695133 129.303794321292,-480.487804315095 34.7924152936833,-453.68574727557 33.5,-450.835574024768 " style="fill: rgb(255,210,63); fill-opacity: 1; stroke: rgb(0,0,0); stroke-width: 3" />
	<polygon points="162.947117549402,-300.169586414044 350.322756858004,-477.38259340209 305.438381551308,-483.052306386519 145.318069353341,-410.701933695133 136.670600760171,-359.525541361879 " style="fill: rgb(255,210,63); fill-opacity: 1; stroke: rgb(0,0,0); stroke-width: 3" />
	<polygon points="405.694500287095,-289.416134666545 394.47924536744,-284.529682762892 348.406243816829,-148.188407852329 383.797792980771,-122.171885489439 416.183356852144,-179.947487983895 414.863642256545,-229.124354950543 " style="fill: rgb(238,66,102); fill-opacity: 1; stroke: rgb(0,0,0); stroke-width: 3" />
	<polygon points="180.521793276799,-284.529682762892 162.947117549402,-300.169586414044 103.954290138656,-273.087654495686 93.2578496209724,-135.729432730931 107.745168505019,-128.827922151955 164.528307209162,-164.719370741346 " style="fill: rgb(238,66,102); fill-opacity: 1; stroke: rgb(0,0,0); stroke-width: 3" />
	<polygon points="107.745168505019,-128.827922151955 93.2578496209724,-135.729432730931 90.5070002960863,-134.237235410623 74.8724415096113,-117.284872194109 55.692551790754,-78.7950166163509 88.3177651873342,-53.5 131.245867448841,-85.1939448463376 " style="fill: rgb(84,13,110); fill-opacity: 1; stroke: rgb(0,0,0); stroke-width: 3" />
	<polygon points="310.656838885438,-137.7832789714 296.306081698602,-179.298058944896 257.997108088428,-191.751031888199 256.947176192711,-124.583937519357 306.348661830475,-128.546265515484 " style="fill: rgb(255,210,63); fill-opacity: 1; stroke: rgb(0,0,0); stroke-width: 3" />
	<polygon points="308.803729551777,-656.90934118857 353.018087016335,-668.397081263201 377.298799361031,-713.016022257967 348.326288358901,-744.795430028655 290.091593637806,-675.98952775325 " style="fill: rgb(255,210,63); fill-opacity: 1; stroke: rgb(0,0,0); stroke-width: 3" />
	<polygon points="415.314733729263,-460.544603428331 405.694500287095,-289.416134666545 466.66577562743,-290.710526088343 561.5,-352.416695798845 542.932194790096,-397.615534884465 " style="fill: rgb(255,210,63); fill-opacity: 1; stroke: rgb(0,0,0); stroke-width: 3" />
	<polygon points="416.183356852144,-179.947487983895 383.797792980771,-122.171885489439 387.465504085285,-112.662379593992 438.852746588922,-98.286030559598 453.723535070583,-117.644628142028 " style="fill: rgb(255,210,63); fill-opacity: 1; stroke: rgb(0,0,0); stroke-width: 3" />
	<polygon points="282.359160936998,-660.767104865142 275.554741121732,-750.65165152456 253.393351037279,-757.03090199744 270.688104599405,-660.327011039141 " style="fill: rgb(67,184,206); fill-opacity: 1; stroke: rgb(0,0,0); stroke-width: 3" />
	<circle cx="180.521793276799" cy="-284.529682762892" r="2" style="fill: rgb(0,0,0)" />
	<circle cx="394.47924536744" cy="-284.529682762892" r="2" style="fill: rgb(0,0,0)" />
	<circle cx="405.694500287095" cy="-289.416134666545" r="2" style="fill: rgb(0,0,0)" />
	<circle cx="415.314733729263" cy="-460.544603428331" r="2" style="fill: rgb(0,0,0)" />
	<circle cx="350.322756858004" cy="-477.38259340209" r="2" style="fill: rgb(0,0,0)" />
	<circle cx="162.947117549402" cy="-300.169586414044" r="2" style="fill: rgb(0,0,0)" />
	<circle cx="257.997108088428" cy="-191.751031888199" r="2" style="fill: rgb(0,0,0)" />
	<circle cx="296.306081698602" cy="-179.298058944896" r="2" style="fill: rgb(0,0,0)" />
	<circle cx="419.945915575056" cy="-602.7586540356" r="2" style="fill: rgb(0,0,0)" />
	<circle cx="353.018087016335" cy="-668.397081263201" r="2" style="fill: rgb(0,0,0)" />
	<circle cx="308.803729551777" cy="-656.90934118857" r="2" style="fill: rgb(0,0,0)" />
	<circle cx="331.168110608032" cy="-518.368594903062" r="2" style="fill: rgb(0,0,0)" />
	<circle cx="305.438381551308" cy="-483.052306386519" r="2" style="fill: rgb(0,0,0)" />
	<circle cx="145.318069353341" cy="-410.701933695133" r="2" style="fill: rgb(0,0,0)" />
	<circle cx="136.670600760171" cy="-359.525541361879" r="2" style="fill: rgb(0,0,0)" />
	<circle cx="348.406243816829" cy="-148.188407852329" r="2" style="fill: rgb(0,0,0)" />
	<circle cx="383.797792980771" cy="-122.171885489439" r="2" style="fill: rgb(0,0,0)" />
	<circle cx="416.183356852144" cy="-179.947487983895" r="2" style="fill: rgb(0,0,0)" />
	<circle cx="414.863642256545" cy="-229.124354950543" r="2" style="fill: rgb(0,0,0)" />
	<circle cx="103.954290138656" cy="-273.087654495686" r="2" style="fill: rgb(0,0,0)" />
	<circle cx="93.2578496209724" cy="-135.729432730931" r="2" style="fill: rgb(0,0,0)" />
	<circle cx="107.745168505019" cy="-128.827922151955" r="2" style="fill: rgb(0,0,0)" />
	<circle cx="164.528307209162" cy="-164.719370741346" r="2" style="fill: rgb(0,0,0)" />
	<circle cx="466.66577562743" cy="-290.710526088343" r="2" style="fill: rgb(0,0,0)" />
	<circle cx="561.5" cy="-352.416695798845" r="2" style="fill: rgb(0,0,0)" />
	<circle cx="542.932194790096" cy="-397.615534884465" r="2" style="fill: rgb(0,0,0)" />
	<circle cx="256.947176192711" cy="-124.583937519357" r="2" style="fill: rgb(0,0,0)" />
	<circle cx="306.348661830475" cy="-128.546265515484" r="2" style="fill: rgb(0,0,0)" />
	<circle cx="310.656838885438" cy="-137.7832789714" r="2" style="fill: rgb(0,0,0)" />
	<circle cx="282.359160936998" cy="-660.767104865142" r="2" style="fill: rgb(0,0,0)" />
	<circle cx="270.688104599405" cy="-660.327011039141" r="2" style="fill: rgb(0,0,0)" />
	<circle cx="202.611278061987" cy="-638.144350432663" r="2" style="fill: rgb(0,0,0)" />
	<circle cx="439.571948218586" cy="-647.50814886712" r="2" style="fill: rgb(0,0,0)" />
	<circle cx="443.99347546491" cy="-674.278901674542" r="2" style="fill: rgb(0,0,0)" />
	<circle cx="433.049538017245" cy="-696.099210645005" r="2" style="fill: rgb(0,0,0)" />
	<circle cx="392.048259497325" cy="-700.909363920126" r="2" style="fill: rgb(0,0,0)" />
	<circle cx="377.298799361031" cy="-713.016022257967" r="2" style="fill: rgb(0,0,0)" />
	<circle cx="348.326288358901" cy="-744.795430028655" r="2" style="fill: rgb(0,0,0)" />
	<circle cx="290.091593637806" cy="-675.98952775325" r="2" style="fill: rgb(0,0,0)" />
	<circle cx="129.303794321292" cy="-480.487804315095" r="2" style="fill: rgb(0,0,0)" />
	<circle cx="34.7924152936833" cy="-453.68574727557" r="2" style="fill: rgb(0,0,0)" />
	<circle cx="33.5" cy="-450.835574024768" r="2" style="fill: rgb(0,0,0)" />
	<circle cx="461.580948881886" cy="-123.114663286813" r="2" style="fill: rgb(0,0,0)" />
	<circle cx="483.466716733157" cy="-139.153250338862" r="2" style="fill: rgb(0,0,0)" />
	<circle cx="387.465504085285" cy="-112.662379593992" r="2" style="fill: rgb(0,0,0)" />
	<circle cx="438.852746588922" cy="-98.286030559598" r="2" style="fill: rgb(0,0,0)" />
	<circle cx="453.723535070583" cy="-117.644628142028" r="2" style="fill: rgb(0,0,0)" />
	<circle cx="90.5070002960863" cy="-134.237235410623" r="2" style="fill: rgb(0,0,0)" />
	<circle cx="74.8724415096113" cy="-117.284872194109" r="2" style="fill: rgb(0,0,0)" />
	<circle cx="55.692551790754" cy="-78.7950166163509" r="2" style="fill: rgb(0,0,0)" />
	<circle cx="88.3177651873342" cy="-53.5" r="2" style="fill: rgb(0,0,0)" />
	<circle cx="131.245867448841" cy="-85.1939448463376" r="2" style="fill: rgb(0,0,0)" />
	<circle cx="275.554741121732" cy="-750.65165152456" r="2" style="fill: rgb(0,0,0)" />
	<circle cx="253.393351037279" cy="-757.03090199744" r="2" style="fill: rgb(0,0,0)" />
	<!--
	Generated using the Perl SVG Module V2.86
	by Ronan Oger
	Info: http://www.roitsystems.com/
	-->
</svg>