<?xml version="1.0" encoding="UTF-8" standalone="yes"?>
<!DOCTYPE svg PUBLIC "-//W3C//DTD SVG 1.0//EN" "http://www.w3.org/TR/2001/REC-SVG-20010904/DTD/svg10.dtd">
<!-- generated using polymake; Michael Joswig, Georg Loho, Benjamin Lorenz, Rico Raber; license CC BY-NC-ND 3.0; see polymake.org and matchthenet.de -->
<svg height="841pt" id="document" viewBox="0 -721.189478951274 572 721.189478951274" width="595pt" xmlns="http://www.w3.org/2000/svg" xmlns:svg="http://www.w3.org/2000/svg" xmlns:xlink="http://www.w3.org/1999/xlink">
	<title id="document_title">planar_net_</title>
	<polygon points="244.855427182395,-363.237954911917 304.057061751565,-363.237954911917 316.476785366747,-518.494785364431 222.360965372215,-399.804843950338 223.255726043518,-388.595117923109 " style="fill: rgb(14,173,105); fill-opacity: 1; stroke: rgb(0,0,0); stroke-width: 3" />
	<polygon points="96.8278528291296,-457.207888972884 120.274365810148,-485.524928806651 33.5,-578.394704854305 74.3520522014889,-463.639526498356 " style="fill: rgb(14,173,105); fill-opacity: 1; stroke: rgb(0,0,0); stroke-width: 3" />
	<polygon points="345.574653236951,-624.940089527729 441.024964967029,-430.064104562412 522.590608874213,-523.06751832282 517.658129981189,-609.387445224044 504.912596053053,-632.754373569944 349.360858617176,-671.702232758903 " style="fill: rgb(14,173,105); fill-opacity: 1; stroke: rgb(0,0,0); stroke-width: 3" />
	<polygon points="380.187994154724,-316.48941897586 304.057061751565,-363.237954911917 244.855427182395,-363.237954911917 257.319284940378,-234.073421943216 274.063693775945,-210.102950151685 276.475979619653,-209.66393819358 " style="fill: rgb(14,173,105); fill-opacity: 1; stroke: rgb(0,0,0); stroke-width: 3" />
	<polygon points="222.360965372215,-399.804843950338 316.476785366747,-518.494785364431 341.720130168088,-625.91946705469 314.043960895023,-663.801693033687 208.528385398236,-529.799606376716 " style="fill: rgb(14,173,105); fill-opacity: 1; stroke: rgb(0,0,0); stroke-width: 3" />
	<polygon points="208.528385398236,-529.799606376716 314.043960895023,-663.801693033687 155.056605567052,-684.689478951274 151.79356343467,-678.580362892407 129.652641961957,-553.423000099644 " style="fill: rgb(14,173,105); fill-opacity: 1; stroke: rgb(0,0,0); stroke-width: 3" />
	<polygon points="223.255726043518,-388.595117923109 222.360965372215,-399.804843950338 191.497144300739,-526.837922618444 120.274365810148,-485.524928806651 96.8278528291296,-457.207888972884 107.532467961261,-442.419437477496 " style="fill: rgb(14,173,105); fill-opacity: 1; stroke: rgb(0,0,0); stroke-width: 3" />
	<polygon points="316.476785366747,-518.494785364431 304.057061751565,-363.237954911917 392.581712025629,-375.268365320179 426.569020254067,-401.954075852988 441.024964967029,-430.064104562412 345.574653236951,-624.940089527729 " style="fill: rgb(14,173,105); fill-opacity: 1; stroke: rgb(0,0,0); stroke-width: 3" />
	<polygon points="187.48633942271,-217.613346095491 180.492226858812,-200.750088041304 194.565854989134,-182.08298954255 230.137193316948,-178.851406123991 274.063693775945,-210.102950151685 257.319284940378,-234.073421943216 " style="fill: rgb(14,173,105); fill-opacity: 1; stroke: rgb(0,0,0); stroke-width: 3" />
	<polygon points="244.855427182395,-363.237954911917 223.255726043518,-388.595117923109 99.5272724559764,-357.286978254618 134.651348609595,-294.726018775552 " style="fill: rgb(14,173,105); fill-opacity: 1; stroke: rgb(0,0,0); stroke-width: 3" />
	<polygon points="189.562487634871,-53.5 213.117455245102,-65.8945744709817 243.243334373816,-139.518730208595 230.137193316948,-178.851406123991 194.565854989134,-182.08298954255 188.978979026606,-60.4013231110045 " style="fill: rgb(14,173,105); fill-opacity: 1; stroke: rgb(0,0,0); stroke-width: 3" />
	<polygon points="341.523844882438,-127.779270345301 305.503874599049,-176.169263020819 273.149468280877,-137.630482965231 288.407484280773,-59.5582225323321 " style="fill: rgb(14,173,105); fill-opacity: 1; stroke: rgb(0,0,0); stroke-width: 3" />
	<polygon points="441.024964967029,-430.064104562412 426.569020254067,-401.954075852988 553.894322543457,-335.239489151597 558.112375233188,-341.757265300968 561.5,-401.986441360347 " style="fill: rgb(14,173,105); fill-opacity: 1; stroke: rgb(0,0,0); stroke-width: 3" />
	<polygon points="413.765629774503,-289.290031970983 380.187994154724,-316.48941897586 276.475979619653,-209.66393819358 308.992106965501,-190.877240119492 " style="fill: rgb(14,173,105); fill-opacity: 1; stroke: rgb(0,0,0); stroke-width: 3" />
	<polygon points="276.475979619653,-209.66393819358 274.063693775945,-210.102950151685 242.974651344304,-166.061289336355 273.149468280877,-137.630482965231 305.503874599049,-176.169263020819 303.604411596706,-183.69690639238 " style="fill: rgb(14,173,105); fill-opacity: 1; stroke: rgb(0,0,0); stroke-width: 3" />
	<circle cx="244.855427182395" cy="-363.237954911917" r="2" style="fill: rgb(0,0,0)" />
	<circle cx="304.057061751565" cy="-363.237954911917" r="2" style="fill: rgb(0,0,0)" />
	<circle cx="316.476785366747" cy="-518.494785364431" r="2" style="fill: rgb(0,0,0)" />
	<circle cx="222.360965372215" cy="-399.804843950338" r="2" style="fill: rgb(0,0,0)" />
	<circle cx="223.255726043518" cy="-388.595117923109" r="2" style="fill: rgb(0,0,0)" />
	<circle cx="257.319284940378" cy="-234.073421943216" r="2" style="fill: rgb(0,0,0)" />
	<circle cx="274.063693775945" cy="-210.102950151685" r="2" style="fill: rgb(0,0,0)" />
	<circle cx="276.475979619653" cy="-209.66393819358" r="2" style="fill: rgb(0,0,0)" />
	<circle cx="380.187994154724" cy="-316.48941897586" r="2" style="fill: rgb(0,0,0)" />
	<circle cx="341.720130168088" cy="-625.91946705469" r="2" style="fill: rgb(0,0,0)" />
	<circle cx="314.043960895023" cy="-663.801693033687" r="2" style="fill: rgb(0,0,0)" />
	<circle cx="208.528385398236" cy="-529.799606376716" r="2" style="fill: rgb(0,0,0)" />
	<circle cx="191.497144300739" cy="-526.837922618444" r="2" style="fill: rgb(0,0,0)" />
	<circle cx="120.274365810148" cy="-485.524928806651" r="2" style="fill: rgb(0,0,0)" />
	<circle cx="96.8278528291296" cy="-457.207888972884" r="2" style="fill: rgb(0,0,0)" />
	<circle cx="107.532467961261" cy="-442.419437477496" r="2" style="fill: rgb(0,0,0)" />
	<circle cx="392.581712025629" cy="-375.268365320179" r="2" style="fill: rgb(0,0,0)" />
	<circle cx="426.569020254067" cy="-401.954075852988" r="2" style="fill: rgb(0,0,0)" />
	<circle cx="441.024964967029" cy="-430.064104562412" r="2" style="fill: rgb(0,0,0)" />
	<circle cx="345.574653236951" cy="-624.940089527729" r="2" style="fill: rgb(0,0,0)" />
	<circle cx="99.5272724559764" cy="-357.286978254618" r="2" style="fill: rgb(0,0,0)" />
	<circle cx="134.651348609595" cy="-294.726018775552" r="2" style="fill: rgb(0,0,0)" />
	<circle cx="187.48633942271" cy="-217.613346095491" r="2" style="fill: rgb(0,0,0)" />
	<circle cx="180.492226858812" cy="-200.750088041304" r="2" style="fill: rgb(0,0,0)" />
	<circle cx="194.565854989134" cy="-182.08298954255" r="2" style="fill: rgb(0,0,0)" />
	<circle cx="230.137193316948" cy="-178.851406123991" r="2" style="fill: rgb(0,0,0)" />
	<circle cx="308.992106965501" cy="-190.877240119492" r="2" style="fill: rgb(0,0,0)" />
	<circle cx="413.765629774503" cy="-289.290031970983" r="2" style="fill: rgb(0,0,0)" />
	<circle cx="242.974651344304" cy="-166.061289336355" r="2" style="fill: rgb(0,0,0)" />
	<circle cx="273.149468280877" cy="-137.630482965231" r="2" style="fill: rgb(0,0,0)" />
	<circle cx="305.503874599049" cy="-176.169263020819" r="2" style="fill: rgb(0,0,0)" />
	<circle cx="303.604411596706" cy="-183.69690639238" r="2" style="fill: rgb(0,0,0)" />
	<circle cx="155.056605567052" cy="-684.689478951274" r="2" style="fill: rgb(0,0,0)" />
	<circle cx="151.79356343467" cy="-678.580362892407" r="2" style="fill: rgb(0,0,0)" />
	<circle cx="129.652641961957" cy="-553.423000099644" r="2" style="fill: rgb(0,0,0)" />
	<circle cx="33.5" cy="-578.394704854305" r="2" style="fill: rgb(0,0,0)" />
	<circle cx="74.3520522014889" cy="-463.639526498356" r="2" style="fill: rgb(0,0,0)" />
	<circle cx="522.590608874213" cy="-523.06751832282" r="2" style="fill: rgb(0,0,0)" />
	<circle cx="517.658129981189" cy="-609.387445224044" r="2" style="fill: rgb(0,0,0)" />
	<circle cx="504.912596053053" cy="-632.754373569944" r="2" style="fill: rgb(0,0,0)" />
	<circle cx="349.360858617176" cy="-671.702232758903" r="2" style="fill: rgb(0,0,0)" />
	<circle cx="553.894322543457" cy="-335.239489151597" r="2" style="fill: rgb(0,0,0)" />
	<circle cx="558.112375233188" cy="-341.757265300968" r="2" style="fill: rgb(0,0,0)" />
	<circle cx="561.5" cy="-401.986441360347" r="2" style="fill: rgb(0,0,0)" />
	<circle cx="188.978979026606" cy="-60.4013231110045" r="2" style="fill: rgb(0,0,0)" />
	<circle cx="189.562487634871" cy="-53.5" r="2" style="fill: rgb(0,0,0)" />
	<circle cx="213.117455245102" cy="-65.8945744709817" r="2" style="fill: rgb(0,0,0)" />
	<circle cx="243.243334373816" cy="-139.518730208595" r="2" style="fill: rgb(0,0,0)" />
	<circle cx="288.407484280773" cy="-59.5582225323321" r="2" style="fill: rgb(0,0,0)" />
	<circle cx="341.523844882438" cy="-127.779270345301" r="2" style="fill: rgb(0,0,0)" />
	<!--
	Generated using the Perl SVG Module V2.86
	by Ronan Oger
	Info: http://www.roitsystems.com/
	-->
</svg>