<?xml version="1.0" encoding="UTF-8" standalone="yes"?>
<!DOCTYPE svg PUBLIC "-//W3C//DTD SVG 1.0//EN" "http://www.w3.org/TR/2001/REC-SVG-20010904/DTD/svg10.dtd">
<!-- generated using polymake; Michael Joswig, Georg Loho, Benjamin Lorenz, Rico Raber; license CC BY-NC-ND 3.0; see polymake.org and matchthenet.de -->
<svg height="841pt" id="document" viewBox="0 -518.786519520025 572 518.786519520025" width="595pt" xmlns="http://www.w3.org/2000/svg" xmlns:svg="http://www.w3.org/2000/svg" xmlns:xlink="http://www.w3.org/1999/xlink">
	<title id="document_title">planar_net_</title>
	<polygon points="362.30070330368,-202.211498983921 424.660608151446,-202.211498983921 408.776434094507,-244.607916192642 391.289060699139,-240.587867063415 " style="fill: rgb(67,184,206); fill-opacity: 1; stroke: rgb(0,0,0); stroke-width: 3" />
	<polygon points="425.798431412566,-200.120860430027 424.660608151446,-202.211498983921 362.30070330368,-202.211498983921 355.759886498429,-194.227362741315 426.209847702569,-181.221885584571 " style="fill: rgb(255,210,63); fill-opacity: 1; stroke: rgb(0,0,0); stroke-width: 3" />
	<polygon points="349.319544292754,-339.475271506857 396.645974128219,-340.214594457931 406.27613435447,-419.848320203664 308.211172483314,-428.188538309349 282.138870285004,-419.98492115894 " style="fill: rgb(255,210,63); fill-opacity: 1; stroke: rgb(0,0,0); stroke-width: 3" />
	<polygon points="219.500893087171,-282.58797145791 192.226503347678,-284.368965733254 81.0563592117867,-254.262640842429 33.5,-190.350310999058 224.826742846861,-180.463454000169 " style="fill: rgb(255,210,63); fill-opacity: 1; stroke: rgb(0,0,0); stroke-width: 3" />
	<polygon points="355.759886498429,-194.227362741315 336.032098204898,-177.393762974011 321.956995150724,-151.354098538891 453.89708767869,-138.190544358493 426.209847702569,-181.221885584571 " style="fill: rgb(255,210,63); fill-opacity: 1; stroke: rgb(0,0,0); stroke-width: 3" />
	<polygon points="489.578813020141,-276.946337263485 469.566553783099,-222.607293993429 462.303543179704,-140.484677681252 538.029952719406,-106.42838970897 530.166418431272,-237.855214597309 495.085248753929,-279.925416525244 " style="fill: rgb(238,66,102); fill-opacity: 1; stroke: rgb(0,0,0); stroke-width: 3" />
	<polygon points="339.201689439118,-283.994451627812 317.417441934361,-320.103249800026 219.500893087171,-282.58797145791 224.826742846861,-180.463454000169 306.832323024534,-167.813853797735 332.248752166159,-182.985464772439 " style="fill: rgb(238,66,102); fill-opacity: 1; stroke: rgb(0,0,0); stroke-width: 3" />
	<polygon points="408.776434094507,-244.607916192642 424.660608151446,-202.211498983921 425.829649566199,-200.138155426483 467.950962028279,-225.575986833956 480.248845234029,-282.16206473244 " style="fill: rgb(255,210,63); fill-opacity: 1; stroke: rgb(0,0,0); stroke-width: 3" />
	<polygon points="406.27613435447,-419.848320203664 415.507827117397,-426.458959602207 409.890079708741,-482.286519520025 308.211172483314,-428.188538309349 " style="fill: rgb(67,184,206); fill-opacity: 1; stroke: rgb(0,0,0); stroke-width: 3" />
	<polygon points="362.30070330368,-202.211498983921 391.289060699139,-240.587867063415 339.201689439118,-283.994451627812 332.248752166159,-182.985464772439 355.520975741859,-194.429210746663 " style="fill: rgb(255,210,63); fill-opacity: 1; stroke: rgb(0,0,0); stroke-width: 3" />
	<polygon points="489.77424616119,-355.613762861686 561.5,-466.023281056391 560.126256294852,-467.73284970107 481.390927484294,-455.602672266928 447.233271861568,-411.088291504252 " style="fill: rgb(255,210,63); fill-opacity: 1; stroke: rgb(0,0,0); stroke-width: 3" />
	<polygon points="469.566553783099,-222.607293993429 425.798431412566,-200.120860430027 426.209847702569,-181.221885584571 458.618587260878,-141.624496965467 462.303543179704,-140.484677681252 " style="fill: rgb(255,210,63); fill-opacity: 1; stroke: rgb(0,0,0); stroke-width: 3" />
	<polygon points="391.289060699139,-240.587867063415 408.776434094507,-244.607916192642 469.169101477423,-298.192852070395 470.707529860591,-304.26154104315 396.645974128219,-340.214594457931 349.319544292754,-339.475271506857 354.657158137545,-297.64336235566 " style="fill: rgb(84,13,110); fill-opacity: 1; stroke: rgb(0,0,0); stroke-width: 3" />
	<polygon points="396.645974128219,-340.214594457931 470.707529860591,-304.26154104315 489.77424616119,-355.613762861686 447.233271861568,-411.088291504252 435.916956228281,-410.157858801434 " style="fill: rgb(255,210,63); fill-opacity: 1; stroke: rgb(0,0,0); stroke-width: 3" />
	<polygon points="456.923357301876,-135.798938142553 453.89708767869,-138.190544358493 321.956995150724,-151.354098538891 284.783818370226,-77.1713344113371 474.897837834582,-53.5 476.412111208539,-55.0864340097304 " style="fill: rgb(238,66,102); fill-opacity: 1; stroke: rgb(0,0,0); stroke-width: 3" />
	<circle cx="362.30070330368" cy="-202.211498983921" r="2" style="fill: rgb(0,0,0)" />
	<circle cx="424.660608151446" cy="-202.211498983921" r="2" style="fill: rgb(0,0,0)" />
	<circle cx="408.776434094507" cy="-244.607916192642" r="2" style="fill: rgb(0,0,0)" />
	<circle cx="391.289060699139" cy="-240.587867063415" r="2" style="fill: rgb(0,0,0)" />
	<circle cx="355.759886498429" cy="-194.227362741315" r="2" style="fill: rgb(0,0,0)" />
	<circle cx="426.209847702569" cy="-181.221885584571" r="2" style="fill: rgb(0,0,0)" />
	<circle cx="425.798431412566" cy="-200.120860430027" r="2" style="fill: rgb(0,0,0)" />
	<circle cx="425.829649566199" cy="-200.138155426483" r="2" style="fill: rgb(0,0,0)" />
	<circle cx="467.950962028279" cy="-225.575986833956" r="2" style="fill: rgb(0,0,0)" />
	<circle cx="480.248845234029" cy="-282.16206473244" r="2" style="fill: rgb(0,0,0)" />
	<circle cx="339.201689439118" cy="-283.994451627812" r="2" style="fill: rgb(0,0,0)" />
	<circle cx="332.248752166159" cy="-182.985464772439" r="2" style="fill: rgb(0,0,0)" />
	<circle cx="355.520975741859" cy="-194.429210746663" r="2" style="fill: rgb(0,0,0)" />
	<circle cx="469.169101477423" cy="-298.192852070395" r="2" style="fill: rgb(0,0,0)" />
	<circle cx="470.707529860591" cy="-304.26154104315" r="2" style="fill: rgb(0,0,0)" />
	<circle cx="396.645974128219" cy="-340.214594457931" r="2" style="fill: rgb(0,0,0)" />
	<circle cx="349.319544292754" cy="-339.475271506857" r="2" style="fill: rgb(0,0,0)" />
	<circle cx="354.657158137545" cy="-297.64336235566" r="2" style="fill: rgb(0,0,0)" />
	<circle cx="336.032098204898" cy="-177.393762974011" r="2" style="fill: rgb(0,0,0)" />
	<circle cx="321.956995150724" cy="-151.354098538891" r="2" style="fill: rgb(0,0,0)" />
	<circle cx="453.89708767869" cy="-138.190544358493" r="2" style="fill: rgb(0,0,0)" />
	<circle cx="458.618587260878" cy="-141.624496965467" r="2" style="fill: rgb(0,0,0)" />
	<circle cx="462.303543179704" cy="-140.484677681252" r="2" style="fill: rgb(0,0,0)" />
	<circle cx="469.566553783099" cy="-222.607293993429" r="2" style="fill: rgb(0,0,0)" />
	<circle cx="317.417441934361" cy="-320.103249800026" r="2" style="fill: rgb(0,0,0)" />
	<circle cx="219.500893087171" cy="-282.58797145791" r="2" style="fill: rgb(0,0,0)" />
	<circle cx="224.826742846861" cy="-180.463454000169" r="2" style="fill: rgb(0,0,0)" />
	<circle cx="306.832323024534" cy="-167.813853797735" r="2" style="fill: rgb(0,0,0)" />
	<circle cx="406.27613435447" cy="-419.848320203664" r="2" style="fill: rgb(0,0,0)" />
	<circle cx="308.211172483314" cy="-428.188538309349" r="2" style="fill: rgb(0,0,0)" />
	<circle cx="282.138870285004" cy="-419.98492115894" r="2" style="fill: rgb(0,0,0)" />
	<circle cx="489.77424616119" cy="-355.613762861686" r="2" style="fill: rgb(0,0,0)" />
	<circle cx="447.233271861568" cy="-411.088291504252" r="2" style="fill: rgb(0,0,0)" />
	<circle cx="435.916956228281" cy="-410.157858801434" r="2" style="fill: rgb(0,0,0)" />
	<circle cx="284.783818370226" cy="-77.1713344113371" r="2" style="fill: rgb(0,0,0)" />
	<circle cx="474.897837834582" cy="-53.5" r="2" style="fill: rgb(0,0,0)" />
	<circle cx="476.412111208539" cy="-55.0864340097304" r="2" style="fill: rgb(0,0,0)" />
	<circle cx="456.923357301876" cy="-135.798938142553" r="2" style="fill: rgb(0,0,0)" />
	<circle cx="538.029952719406" cy="-106.42838970897" r="2" style="fill: rgb(0,0,0)" />
	<circle cx="530.166418431272" cy="-237.855214597309" r="2" style="fill: rgb(0,0,0)" />
	<circle cx="495.085248753929" cy="-279.925416525244" r="2" style="fill: rgb(0,0,0)" />
	<circle cx="489.578813020141" cy="-276.946337263485" r="2" style="fill: rgb(0,0,0)" />
	<circle cx="192.226503347678" cy="-284.368965733254" r="2" style="fill: rgb(0,0,0)" />
	<circle cx="81.0563592117867" cy="-254.262640842429" r="2" style="fill: rgb(0,0,0)" />
	<circle cx="33.5" cy="-190.350310999058" r="2" style="fill: rgb(0,0,0)" />
	<circle cx="415.507827117397" cy="-426.458959602207" r="2" style="fill: rgb(0,0,0)" />
	<circle cx="409.890079708741" cy="-482.286519520025" r="2" style="fill: rgb(0,0,0)" />
	<circle cx="561.5" cy="-466.023281056391" r="2" style="fill: rgb(0,0,0)" />
	<circle cx="560.126256294852" cy="-467.73284970107" r="2" style="fill: rgb(0,0,0)" />
	<circle cx="481.390927484294" cy="-455.602672266928" r="2" style="fill: rgb(0,0,0)" />
	<!--
	Generated using the Perl SVG Module V2.84
	by Ronan Oger
	Info: http://www.roitsystems.com/
	-->
</svg>