<?xml version="1.0" encoding="UTF-8" standalone="yes"?>
<!DOCTYPE svg PUBLIC "-//W3C//DTD SVG 1.0//EN" "http://www.w3.org/TR/2001/REC-SVG-20010904/DTD/svg10.dtd">
<!-- generated using polymake; Michael Joswig, Georg Loho, Benjamin Lorenz, Rico Raber; license CC BY-NC-SA 3.0; see polymake.org and matchthenet.de -->
<svg height="841pt" id="document" viewBox="0 -811 553.886362611638 811" width="595pt" xmlns="http://www.w3.org/2000/svg" xmlns:svg="http://www.w3.org/2000/svg" xmlns:xlink="http://www.w3.org/1999/xlink">
	<title id="document_title">planar_net_</title>
	<polygon points="305.631830820657,-404.382235334687 404.279145462166,-404.382235334687 423.100998809249,-511.244005704119 353.242547384047,-517.36875624812 252.848811989744,-446.996584948717 " style="fill: rgb(255,210,63); fill-opacity: 1; stroke: rgb(0,0,0); stroke-width: 3" />
	<polygon points="352.246841736244,-263.266904299597 404.279145462166,-404.382235334687 305.631830820657,-404.382235334687 214.114809583717,-375.681661017406 207.298985633797,-296.482829481566 308.95717577783,-252.20657175008 " style="fill: rgb(238,66,102); fill-opacity: 1; stroke: rgb(0,0,0); stroke-width: 3" />
	<polygon points="397.075272590453,-611.142661100066 543.386362611638,-704.933110214615 380.253857962683,-730.924718573577 359.000887959012,-706.508618602122 " style="fill: rgb(67,184,206); fill-opacity: 1; stroke: rgb(0,0,0); stroke-width: 3" />
	<polygon points="334.019639591836,-696.427355649278 359.000887959012,-706.508618602122 345.653676639721,-735.999068273012 248.427816899715,-774.5 236.469582526992,-770.862203034018 179.520856231929,-697.488223248991 " style="fill: rgb(238,66,102); fill-opacity: 1; stroke: rgb(0,0,0); stroke-width: 3" />
	<polygon points="252.848811989744,-446.996584948717 353.242547384047,-517.36875624812 255.154231723874,-533.552088083521 155.108517000618,-480.936799482599 196.717981331933,-434.043555195891 " style="fill: rgb(255,210,63); fill-opacity: 1; stroke: rgb(0,0,0); stroke-width: 3" />
	<polygon points="185.059443069226,-417.853411511298 122.976867811596,-426.5756664406 91.9118837093253,-397.257655249195 148.693756720298,-309.125257122788 207.298985633797,-296.482829481566 214.114809583717,-375.681661017406 " style="fill: rgb(238,66,102); fill-opacity: 1; stroke: rgb(0,0,0); stroke-width: 3" />
	<polygon points="367.994106307101,-214.992568623451 352.246841736244,-263.266904299597 308.95717577783,-252.20657175008 279.518902502465,-137.49501721541 300.158293748866,-73.7549128816024 402.749365729756,-53.5 " style="fill: rgb(238,66,102); fill-opacity: 1; stroke: rgb(0,0,0); stroke-width: 3" />
	<polygon points="91.9118837093253,-397.257655249195 82.4936462946591,-391.029290695461 91.8116865117003,-298.164866933776 99.0967419563221,-295.963897687652 148.693756720298,-309.125257122788 " style="fill: rgb(255,210,63); fill-opacity: 1; stroke: rgb(0,0,0); stroke-width: 3" />
	<polygon points="305.631830820657,-404.382235334687 252.848811989744,-446.996584948717 197.806049049096,-430.004075482101 212.618547425943,-380.981011982904 " style="fill: rgb(67,184,206); fill-opacity: 1; stroke: rgb(0,0,0); stroke-width: 3" />
	<polygon points="308.95717577783,-252.20657175008 207.298985633797,-296.482829481566 155.764460056302,-265.846307058647 146.090338408108,-215.452888579494 209.100413819631,-188.535701107247 " style="fill: rgb(255,210,63); fill-opacity: 1; stroke: rgb(0,0,0); stroke-width: 3" />
	<polygon points="353.242547384047,-517.36875624812 423.100998809249,-511.244005704119 397.075272590453,-611.142661100066 359.000887959012,-706.508618602122 334.019639591836,-696.427355649278 259.738279535522,-623.940591923048 265.082355762254,-563.314360080813 " style="fill: rgb(84,13,110); fill-opacity: 1; stroke: rgb(0,0,0); stroke-width: 3" />
	<polygon points="119.087421751286,-549.883811118317 115.667381360211,-557.390991435785 42.8362297827919,-571.724394166507 33.5,-557.095043086547 115.907818171719,-513.282047545806 " style="fill: rgb(255,210,63); fill-opacity: 1; stroke: rgb(0,0,0); stroke-width: 3" />
	<polygon points="255.154231723874,-533.552088083521 215.247809154806,-579.503982232115 119.087421751286,-549.883811118317 115.907818171719,-513.282047545806 118.060568437801,-502.197761943878 155.108517000618,-480.936799482599 " style="fill: rgb(238,66,102); fill-opacity: 1; stroke: rgb(0,0,0); stroke-width: 3" />
	<polygon points="423.100998809249,-511.244005704119 404.279145462166,-404.382235334687 481.953701306133,-275.58953112124 515.159907751898,-314.004836403356 523.588154662207,-487.592128744443 " style="fill: rgb(255,210,63); fill-opacity: 1; stroke: rgb(0,0,0); stroke-width: 3" />
	<polygon points="300.158293748866,-73.7549128816024 279.518902502465,-137.49501721541 218.561815308104,-106.20543259749 220.751092971506,-98.9168551117159 232.1421917482,-85.8238811089391 287.782473097082,-72.0022009047409 " style="fill: rgb(238,66,102); fill-opacity: 1; stroke: rgb(0,0,0); stroke-width: 3" />
	<polygon points="259.738279535522,-623.940591923048 334.019639591836,-696.427355649278 180.485759813021,-679.154623965215 174.701228325153,-675.754974276523 169.823682151767,-669.101856517008 " style="fill: rgb(255,210,63); fill-opacity: 1; stroke: rgb(0,0,0); stroke-width: 3" />
	<polygon points="179.520856231929,-697.488223248991 236.469582526992,-770.862203034018 179.156343136793,-769.422639610234 173.131761515654,-695.439347643588 " style="fill: rgb(67,184,206); fill-opacity: 1; stroke: rgb(0,0,0); stroke-width: 3" />
	<circle cx="305.631830820657" cy="-404.382235334687" r="2" style="fill: rgb(0,0,0)" />
	<circle cx="404.279145462166" cy="-404.382235334687" r="2" style="fill: rgb(0,0,0)" />
	<circle cx="423.100998809249" cy="-511.244005704119" r="2" style="fill: rgb(0,0,0)" />
	<circle cx="353.242547384047" cy="-517.36875624812" r="2" style="fill: rgb(0,0,0)" />
	<circle cx="252.848811989744" cy="-446.996584948717" r="2" style="fill: rgb(0,0,0)" />
	<circle cx="214.114809583717" cy="-375.681661017406" r="2" style="fill: rgb(0,0,0)" />
	<circle cx="207.298985633797" cy="-296.482829481566" r="2" style="fill: rgb(0,0,0)" />
	<circle cx="308.95717577783" cy="-252.20657175008" r="2" style="fill: rgb(0,0,0)" />
	<circle cx="352.246841736244" cy="-263.266904299597" r="2" style="fill: rgb(0,0,0)" />
	<circle cx="255.154231723874" cy="-533.552088083521" r="2" style="fill: rgb(0,0,0)" />
	<circle cx="155.108517000618" cy="-480.936799482599" r="2" style="fill: rgb(0,0,0)" />
	<circle cx="196.717981331933" cy="-434.043555195891" r="2" style="fill: rgb(0,0,0)" />
	<circle cx="197.806049049096" cy="-430.004075482101" r="2" style="fill: rgb(0,0,0)" />
	<circle cx="212.618547425943" cy="-380.981011982904" r="2" style="fill: rgb(0,0,0)" />
	<circle cx="397.075272590453" cy="-611.142661100066" r="2" style="fill: rgb(0,0,0)" />
	<circle cx="359.000887959012" cy="-706.508618602122" r="2" style="fill: rgb(0,0,0)" />
	<circle cx="334.019639591836" cy="-696.427355649278" r="2" style="fill: rgb(0,0,0)" />
	<circle cx="259.738279535522" cy="-623.940591923048" r="2" style="fill: rgb(0,0,0)" />
	<circle cx="265.082355762254" cy="-563.314360080813" r="2" style="fill: rgb(0,0,0)" />
	<circle cx="481.953701306133" cy="-275.58953112124" r="2" style="fill: rgb(0,0,0)" />
	<circle cx="515.159907751898" cy="-314.004836403356" r="2" style="fill: rgb(0,0,0)" />
	<circle cx="523.588154662207" cy="-487.592128744443" r="2" style="fill: rgb(0,0,0)" />
	<circle cx="185.059443069226" cy="-417.853411511298" r="2" style="fill: rgb(0,0,0)" />
	<circle cx="122.976867811596" cy="-426.5756664406" r="2" style="fill: rgb(0,0,0)" />
	<circle cx="91.9118837093253" cy="-397.257655249195" r="2" style="fill: rgb(0,0,0)" />
	<circle cx="148.693756720298" cy="-309.125257122788" r="2" style="fill: rgb(0,0,0)" />
	<circle cx="279.518902502465" cy="-137.49501721541" r="2" style="fill: rgb(0,0,0)" />
	<circle cx="300.158293748866" cy="-73.7549128816024" r="2" style="fill: rgb(0,0,0)" />
	<circle cx="402.749365729756" cy="-53.5" r="2" style="fill: rgb(0,0,0)" />
	<circle cx="367.994106307101" cy="-214.992568623451" r="2" style="fill: rgb(0,0,0)" />
	<circle cx="155.764460056302" cy="-265.846307058647" r="2" style="fill: rgb(0,0,0)" />
	<circle cx="146.090338408108" cy="-215.452888579494" r="2" style="fill: rgb(0,0,0)" />
	<circle cx="209.100413819631" cy="-188.535701107247" r="2" style="fill: rgb(0,0,0)" />
	<circle cx="215.247809154806" cy="-579.503982232115" r="2" style="fill: rgb(0,0,0)" />
	<circle cx="119.087421751286" cy="-549.883811118317" r="2" style="fill: rgb(0,0,0)" />
	<circle cx="115.907818171719" cy="-513.282047545806" r="2" style="fill: rgb(0,0,0)" />
	<circle cx="118.060568437801" cy="-502.197761943878" r="2" style="fill: rgb(0,0,0)" />
	<circle cx="543.386362611638" cy="-704.933110214615" r="2" style="fill: rgb(0,0,0)" />
	<circle cx="380.253857962683" cy="-730.924718573577" r="2" style="fill: rgb(0,0,0)" />
	<circle cx="345.653676639721" cy="-735.999068273012" r="2" style="fill: rgb(0,0,0)" />
	<circle cx="248.427816899715" cy="-774.5" r="2" style="fill: rgb(0,0,0)" />
	<circle cx="236.469582526992" cy="-770.862203034018" r="2" style="fill: rgb(0,0,0)" />
	<circle cx="179.520856231929" cy="-697.488223248991" r="2" style="fill: rgb(0,0,0)" />
	<circle cx="180.485759813021" cy="-679.154623965215" r="2" style="fill: rgb(0,0,0)" />
	<circle cx="174.701228325153" cy="-675.754974276523" r="2" style="fill: rgb(0,0,0)" />
	<circle cx="169.823682151767" cy="-669.101856517008" r="2" style="fill: rgb(0,0,0)" />
	<circle cx="82.4936462946591" cy="-391.029290695461" r="2" style="fill: rgb(0,0,0)" />
	<circle cx="91.8116865117003" cy="-298.164866933776" r="2" style="fill: rgb(0,0,0)" />
	<circle cx="99.0967419563221" cy="-295.963897687652" r="2" style="fill: rgb(0,0,0)" />
	<circle cx="218.561815308104" cy="-106.20543259749" r="2" style="fill: rgb(0,0,0)" />
	<circle cx="220.751092971506" cy="-98.9168551117159" r="2" style="fill: rgb(0,0,0)" />
	<circle cx="232.1421917482" cy="-85.8238811089391" r="2" style="fill: rgb(0,0,0)" />
	<circle cx="287.782473097082" cy="-72.0022009047409" r="2" style="fill: rgb(0,0,0)" />
	<circle cx="115.667381360211" cy="-557.390991435785" r="2" style="fill: rgb(0,0,0)" />
	<circle cx="42.8362297827919" cy="-571.724394166507" r="2" style="fill: rgb(0,0,0)" />
	<circle cx="33.5" cy="-557.095043086547" r="2" style="fill: rgb(0,0,0)" />
	<circle cx="179.156343136793" cy="-769.422639610234" r="2" style="fill: rgb(0,0,0)" />
	<circle cx="173.131761515654" cy="-695.439347643588" r="2" style="fill: rgb(0,0,0)" />
	<!-- 
	Generated using the Perl SVG Module V2.64
	by Ronan Oger
	Info: http://www.roitsystems.com/
 -->
</svg>