<?xml version="1.0" encoding="UTF-8" standalone="yes"?>
<!DOCTYPE svg PUBLIC "-//W3C//DTD SVG 1.0//EN" "http://www.w3.org/TR/2001/REC-SVG-20010904/DTD/svg10.dtd">
<!-- generated using polymake; Michael Joswig, Georg Loho, Benjamin Lorenz, Rico Raber; license CC BY-NC-SA 3.0; see polymake.org and matchthenet.de -->
<svg height="841pt" id="document" viewBox="0 -323.420633707627 572 323.420633707627" width="595pt" xmlns="http://www.w3.org/2000/svg" xmlns:svg="http://www.w3.org/2000/svg" xmlns:xlink="http://www.w3.org/1999/xlink">
	<title id="document_title">planar_net_</title>
	<polygon points="298.701911537803,-155.882282055142 473.134788813628,-155.882282055142 488.347504816206,-191.408648037214 473.15904424495,-225.976771061036 278.002893632154,-236.363604434926 " style="fill: rgb(255,210,63); fill-opacity: 1; stroke: rgb(0,0,0); stroke-width: 3" />
	<polygon points="50.8751740996257,-218.976251109986 40.1951809925753,-203.457106962526 35.4661494252571,-179.936593603507 109.128031558349,-168.604557067654 112.794139530196,-170.020332536178 175.040385424083,-209.073619050605 186.556530485425,-217.597145870712 " style="fill: rgb(84,13,110); fill-opacity: 1; stroke: rgb(0,0,0); stroke-width: 3" />
	<polygon points="153.148080366346,-114.269302835773 149.689056113863,-124.953503967308 115.94458025743,-164.500390192268 112.861041097739,-162.063885710605 120.946825176469,-111.832023818376 126.292134520349,-105.846248343588 " style="fill: rgb(238,66,102); fill-opacity: 1; stroke: rgb(0,0,0); stroke-width: 3" />
	<polygon points="489.111048925246,-122.045582318224 473.134788813628,-155.882282055142 298.701911537803,-155.882282055142 397.692620174896,-97.8684903470016 483.336025236527,-92.9629311931225 483.673819918655,-93.4653133708796 " style="fill: rgb(238,66,102); fill-opacity: 1; stroke: rgb(0,0,0); stroke-width: 3" />
	<polygon points="397.692620174896,-97.8684903470016 426.468817212941,-72.1354550637284 453.196877582046,-63.3149979799308 481.529804080807,-86.179195069658 483.336025236527,-92.9629311931225 " style="fill: rgb(255,210,63); fill-opacity: 1; stroke: rgb(0,0,0); stroke-width: 3" />
	<polygon points="483.673819918655,-93.4653133708796 483.336025236527,-92.9629311931225 483.64464526561,-85.9496392176057 513.225294995104,-64.7459391159122 541.979115865978,-59.4969929181976 537.631184955902,-68.8533020391438 534.767349037566,-72.5173161858343 519.35578663539,-86.6206783861895 " style="fill: rgb(136,136,136); fill-opacity: 1; stroke: rgb(0,0,0); stroke-width: 3" />
	<polygon points="525.750265385612,-183.425893692403 525.063324052997,-175.876853341739 541.916776414623,-181.103015740378 552.855110189292,-198.901159892618 " style="fill: rgb(67,184,206); fill-opacity: 1; stroke: rgb(0,0,0); stroke-width: 3" />
	<polygon points="513.443651664943,-110.804943803328 489.111048925246,-122.045582318224 483.673819918655,-93.4653133708796 519.993776544748,-94.4205764374253 " style="fill: rgb(67,184,206); fill-opacity: 1; stroke: rgb(0,0,0); stroke-width: 3" />
	<polygon points="453.196877582046,-63.3149979799308 455.750731825585,-55.7071291246542 497.551100720529,-53.5 481.529804080807,-86.179195069658 " style="fill: rgb(67,184,206); fill-opacity: 1; stroke: rgb(0,0,0); stroke-width: 3" />
	<polygon points="511.752912308728,-195.845602352342 520.791902395581,-192.520107579514 554.108217507168,-206.011113757665 560.862037324658,-213.810533059011 561.5,-218.206294381187 539.070326609794,-226.720285210747 " style="fill: rgb(238,66,102); fill-opacity: 1; stroke: rgb(0,0,0); stroke-width: 3" />
	<polygon points="520.791902395581,-192.520107579514 525.750265385612,-183.425893692403 552.139159575949,-200.092709201339 554.911581486111,-203.826371289201 " style="fill: rgb(67,184,206); fill-opacity: 1; stroke: rgb(0,0,0); stroke-width: 3" />
	<polygon points="149.689056113863,-124.953503967308 175.040385424083,-209.073619050605 116.35614455372,-164.847900413912 " style="fill: rgb(14,173,105); fill-opacity: 1; stroke: rgb(0,0,0); stroke-width: 3" />
	<polygon points="298.701911537803,-155.882282055142 278.002893632154,-236.363604434926 186.556530485425,-217.597145870712 175.040385424083,-209.073619050605 149.689056113863,-124.953503967308 153.148080366346,-114.269302835773 191.751897971495,-114.331650014262 " style="fill: rgb(84,13,110); fill-opacity: 1; stroke: rgb(0,0,0); stroke-width: 3" />
	<polygon points="488.347504816206,-191.408648037214 473.134788813628,-155.882282055142 510.470711122036,-153.393900729656 525.063324052997,-175.876853341739 525.750265385612,-183.425893692403 520.791902395581,-192.520107579514 511.752912308728,-195.845602352342 " style="fill: rgb(84,13,110); fill-opacity: 1; stroke: rgb(0,0,0); stroke-width: 3" />
	<polygon points="35.4661494252571,-179.936593603507 33.5,-175.953633596899 43.3399237883799,-148.430742202666 79.4577164311964,-127.273064793797 109.128031558349,-168.604557067654 " style="fill: rgb(255,210,63); fill-opacity: 1; stroke: rgb(0,0,0); stroke-width: 3" />
	<polygon points="278.002893632154,-236.363604434926 473.15904424495,-225.976771061036 488.013750262762,-253.602206905233 356.479667845449,-286.920633707627 " style="fill: rgb(67,184,206); fill-opacity: 1; stroke: rgb(0,0,0); stroke-width: 3" />
	<polygon points="473.15904424495,-225.976771061036 488.347504816206,-191.408648037214 508.15547781852,-204.642841213433 517.01529839278,-244.904370557137 498.176348631976,-244.896640977706 " style="fill: rgb(255,210,63); fill-opacity: 1; stroke: rgb(0,0,0); stroke-width: 3" />
	<circle cx="298.701911537803" cy="-155.882282055142" r="2" style="fill: rgb(0,0,0)" />
	<circle cx="473.134788813628" cy="-155.882282055142" r="2" style="fill: rgb(0,0,0)" />
	<circle cx="488.347504816206" cy="-191.408648037214" r="2" style="fill: rgb(0,0,0)" />
	<circle cx="473.15904424495" cy="-225.976771061036" r="2" style="fill: rgb(0,0,0)" />
	<circle cx="278.002893632154" cy="-236.363604434926" r="2" style="fill: rgb(0,0,0)" />
	<circle cx="397.692620174896" cy="-97.8684903470016" r="2" style="fill: rgb(0,0,0)" />
	<circle cx="483.336025236527" cy="-92.9629311931225" r="2" style="fill: rgb(0,0,0)" />
	<circle cx="483.673819918655" cy="-93.4653133708796" r="2" style="fill: rgb(0,0,0)" />
	<circle cx="489.111048925246" cy="-122.045582318224" r="2" style="fill: rgb(0,0,0)" />
	<circle cx="186.556530485425" cy="-217.597145870712" r="2" style="fill: rgb(0,0,0)" />
	<circle cx="175.040385424083" cy="-209.073619050605" r="2" style="fill: rgb(0,0,0)" />
	<circle cx="149.689056113863" cy="-124.953503967308" r="2" style="fill: rgb(0,0,0)" />
	<circle cx="153.148080366346" cy="-114.269302835773" r="2" style="fill: rgb(0,0,0)" />
	<circle cx="191.751897971495" cy="-114.331650014262" r="2" style="fill: rgb(0,0,0)" />
	<circle cx="510.470711122036" cy="-153.393900729656" r="2" style="fill: rgb(0,0,0)" />
	<circle cx="525.063324052997" cy="-175.876853341739" r="2" style="fill: rgb(0,0,0)" />
	<circle cx="525.750265385612" cy="-183.425893692403" r="2" style="fill: rgb(0,0,0)" />
	<circle cx="520.791902395581" cy="-192.520107579514" r="2" style="fill: rgb(0,0,0)" />
	<circle cx="511.752912308728" cy="-195.845602352342" r="2" style="fill: rgb(0,0,0)" />
	<circle cx="488.013750262762" cy="-253.602206905233" r="2" style="fill: rgb(0,0,0)" />
	<circle cx="356.479667845449" cy="-286.920633707627" r="2" style="fill: rgb(0,0,0)" />
	<circle cx="508.15547781852" cy="-204.642841213433" r="2" style="fill: rgb(0,0,0)" />
	<circle cx="517.01529839278" cy="-244.904370557137" r="2" style="fill: rgb(0,0,0)" />
	<circle cx="498.176348631976" cy="-244.896640977706" r="2" style="fill: rgb(0,0,0)" />
	<circle cx="426.468817212941" cy="-72.1354550637284" r="2" style="fill: rgb(0,0,0)" />
	<circle cx="453.196877582046" cy="-63.3149979799308" r="2" style="fill: rgb(0,0,0)" />
	<circle cx="481.529804080807" cy="-86.179195069658" r="2" style="fill: rgb(0,0,0)" />
	<circle cx="483.64464526561" cy="-85.9496392176057" r="2" style="fill: rgb(0,0,0)" />
	<circle cx="513.225294995104" cy="-64.7459391159122" r="2" style="fill: rgb(0,0,0)" />
	<circle cx="541.979115865978" cy="-59.4969929181976" r="2" style="fill: rgb(0,0,0)" />
	<circle cx="537.631184955902" cy="-68.8533020391438" r="2" style="fill: rgb(0,0,0)" />
	<circle cx="534.767349037566" cy="-72.5173161858343" r="2" style="fill: rgb(0,0,0)" />
	<circle cx="519.35578663539" cy="-86.6206783861895" r="2" style="fill: rgb(0,0,0)" />
	<circle cx="519.993776544748" cy="-94.4205764374253" r="2" style="fill: rgb(0,0,0)" />
	<circle cx="513.443651664943" cy="-110.804943803328" r="2" style="fill: rgb(0,0,0)" />
	<circle cx="50.8751740996257" cy="-218.976251109986" r="2" style="fill: rgb(0,0,0)" />
	<circle cx="40.1951809925753" cy="-203.457106962526" r="2" style="fill: rgb(0,0,0)" />
	<circle cx="35.4661494252571" cy="-179.936593603507" r="2" style="fill: rgb(0,0,0)" />
	<circle cx="109.128031558349" cy="-168.604557067654" r="2" style="fill: rgb(0,0,0)" />
	<circle cx="112.794139530196" cy="-170.020332536178" r="2" style="fill: rgb(0,0,0)" />
	<circle cx="115.94458025743" cy="-164.500390192268" r="2" style="fill: rgb(0,0,0)" />
	<circle cx="112.861041097739" cy="-162.063885710605" r="2" style="fill: rgb(0,0,0)" />
	<circle cx="120.946825176469" cy="-111.832023818376" r="2" style="fill: rgb(0,0,0)" />
	<circle cx="126.292134520349" cy="-105.846248343588" r="2" style="fill: rgb(0,0,0)" />
	<circle cx="116.35614455372" cy="-164.847900413912" r="2" style="fill: rgb(0,0,0)" />
	<circle cx="541.916776414623" cy="-181.103015740378" r="2" style="fill: rgb(0,0,0)" />
	<circle cx="552.855110189292" cy="-198.901159892618" r="2" style="fill: rgb(0,0,0)" />
	<circle cx="554.108217507168" cy="-206.011113757665" r="2" style="fill: rgb(0,0,0)" />
	<circle cx="560.862037324658" cy="-213.810533059011" r="2" style="fill: rgb(0,0,0)" />
	<circle cx="561.5" cy="-218.206294381187" r="2" style="fill: rgb(0,0,0)" />
	<circle cx="539.070326609794" cy="-226.720285210747" r="2" style="fill: rgb(0,0,0)" />
	<circle cx="552.139159575949" cy="-200.092709201339" r="2" style="fill: rgb(0,0,0)" />
	<circle cx="554.911581486111" cy="-203.826371289201" r="2" style="fill: rgb(0,0,0)" />
	<circle cx="455.750731825585" cy="-55.7071291246542" r="2" style="fill: rgb(0,0,0)" />
	<circle cx="497.551100720529" cy="-53.5" r="2" style="fill: rgb(0,0,0)" />
	<circle cx="33.5" cy="-175.953633596899" r="2" style="fill: rgb(0,0,0)" />
	<circle cx="43.3399237883799" cy="-148.430742202666" r="2" style="fill: rgb(0,0,0)" />
	<circle cx="79.4577164311964" cy="-127.273064793797" r="2" style="fill: rgb(0,0,0)" />
	<!-- 
	Generated using the Perl SVG Module V2.64
	by Ronan Oger
	Info: http://www.roitsystems.com/
 -->
</svg>