<?xml version="1.0" encoding="UTF-8" standalone="yes"?>
<!DOCTYPE svg PUBLIC "-//W3C//DTD SVG 1.0//EN" "http://www.w3.org/TR/2001/REC-SVG-20010904/DTD/svg10.dtd">
<!-- generated using polymake; Michael Joswig, Georg Loho, Benjamin Lorenz, Rico Raber; license CC BY-NC-ND 3.0; see polymake.org and matchthenet.de -->
<svg height="841pt" id="document" viewBox="0 -793.530901997431 572 793.530901997431" width="595pt" xmlns="http://www.w3.org/2000/svg" xmlns:svg="http://www.w3.org/2000/svg" xmlns:xlink="http://www.w3.org/1999/xlink">
	<title id="document_title">planar_net_</title>
	<polygon points="180.521793276801,-284.529682762887 394.479245367441,-284.529682762887 405.694500287096,-289.41613466654 415.314733729265,-460.544603428325 350.322756858002,-477.382593402084 162.947117549404,-300.169586414039 " style="fill: rgb(238,66,102); fill-opacity: 1; stroke: rgb(0,0,0); stroke-width: 3" />
	<polygon points="331.168110608029,-518.368594903056 308.80372955177,-656.909341188564 282.359160936991,-660.767104865134 270.688104599398,-660.327011039133 202.611278061981,-638.144350432653 " style="fill: rgb(255,210,63); fill-opacity: 1; stroke: rgb(0,0,0); stroke-width: 3" />
	<polygon points="419.945915575056,-602.758654035594 439.571948218584,-647.508148867114 443.993475464906,-674.278901674536 433.049538017241,-696.099210644999 392.048259497319,-700.90936392012 353.01808701633,-668.397081263195 " style="fill: rgb(238,66,102); fill-opacity: 1; stroke: rgb(0,0,0); stroke-width: 3" />
	<polygon points="296.306081698604,-179.298058944892 394.479245367441,-284.529682762887 180.521793276801,-284.529682762887 257.99710808843,-191.751031888195 " style="fill: rgb(67,184,206); fill-opacity: 1; stroke: rgb(0,0,0); stroke-width: 3" />
	<polygon points="350.322756858002,-477.382593402084 415.314733729265,-460.544603428325 419.945915575056,-602.758654035594 353.01808701633,-668.397081263195 308.80372955177,-656.909341188564 331.168110608029,-518.368594903056 " style="fill: rgb(238,66,102); fill-opacity: 1; stroke: rgb(0,0,0); stroke-width: 3" />
	<polygon points="414.863642256544,-229.124354950538 416.183356852142,-179.947487983889 461.580948881884,-123.114663286807 483.466716733155,-139.153250338856 " style="fill: rgb(67,184,206); fill-opacity: 1; stroke: rgb(0,0,0); stroke-width: 3" />
	<polygon points="136.670600760173,-359.525541361873 145.318069353342,-410.701933695127 129.303794321291,-480.487804315088 34.7924152936832,-453.685747275565 33.5,-450.835574024762 " style="fill: rgb(255,210,63); fill-opacity: 1; stroke: rgb(0,0,0); stroke-width: 3" />
	<polygon points="162.947117549404,-300.169586414039 350.322756858002,-477.382593402084 305.438381551307,-483.052306386512 145.318069353342,-410.701933695127 136.670600760173,-359.525541361873 " style="fill: rgb(255,210,63); fill-opacity: 1; stroke: rgb(0,0,0); stroke-width: 3" />
	<polygon points="405.694500287096,-289.41613466654 394.479245367441,-284.529682762887 348.406243816835,-148.188407852323 383.797792980773,-122.171885489433 416.183356852142,-179.947487983889 414.863642256544,-229.124354950538 " style="fill: rgb(238,66,102); fill-opacity: 1; stroke: rgb(0,0,0); stroke-width: 3" />
	<polygon points="180.521793276801,-284.529682762887 162.947117549404,-300.169586414039 103.954290138658,-273.087654495681 93.2578496209748,-135.729432730926 107.745168505022,-128.827922151951 164.528307209164,-164.719370741341 " style="fill: rgb(238,66,102); fill-opacity: 1; stroke: rgb(0,0,0); stroke-width: 3" />
	<polygon points="107.745168505022,-128.827922151951 93.2578496209748,-135.729432730926 90.5070002960889,-134.237235410618 74.8724415096146,-117.284872194106 55.692551790759,-78.7950166163503 88.3177651873394,-53.5 131.245867448845,-85.1939448463353 " style="fill: rgb(84,13,110); fill-opacity: 1; stroke: rgb(0,0,0); stroke-width: 3" />
	<polygon points="310.65683888544,-137.783278971395 296.306081698604,-179.298058944892 257.99710808843,-191.751031888195 256.947176192712,-124.583937519353 306.348661830477,-128.54626551548 " style="fill: rgb(255,210,63); fill-opacity: 1; stroke: rgb(0,0,0); stroke-width: 3" />
	<polygon points="308.80372955177,-656.909341188564 353.01808701633,-668.397081263195 377.298799361026,-713.01602225796 348.326288358894,-744.795430028648 290.091593637798,-675.989527753244 " style="fill: rgb(255,210,63); fill-opacity: 1; stroke: rgb(0,0,0); stroke-width: 3" />
	<polygon points="415.314733729265,-460.544603428325 405.694500287096,-289.41613466654 466.66577562743,-290.710526088338 561.5,-352.416695798838 542.932194790096,-397.615534884458 " style="fill: rgb(255,210,63); fill-opacity: 1; stroke: rgb(0,0,0); stroke-width: 3" />
	<polygon points="416.183356852142,-179.947487983889 383.797792980773,-122.171885489433 387.465504085287,-112.662379593987 438.852746588926,-98.2860305595935 453.723535070586,-117.644628142024 " style="fill: rgb(255,210,63); fill-opacity: 1; stroke: rgb(0,0,0); stroke-width: 3" />
	<polygon points="282.359160936991,-660.767104865134 275.554741121723,-750.651651524552 253.393351037269,-757.030901997431 270.688104599398,-660.327011039133 " style="fill: rgb(67,184,206); fill-opacity: 1; stroke: rgb(0,0,0); stroke-width: 3" />
	<circle cx="180.521793276801" cy="-284.529682762887" r="2" style="fill: rgb(0,0,0)" />
	<circle cx="394.479245367441" cy="-284.529682762887" r="2" style="fill: rgb(0,0,0)" />
	<circle cx="405.694500287096" cy="-289.41613466654" r="2" style="fill: rgb(0,0,0)" />
	<circle cx="415.314733729265" cy="-460.544603428325" r="2" style="fill: rgb(0,0,0)" />
	<circle cx="350.322756858002" cy="-477.382593402084" r="2" style="fill: rgb(0,0,0)" />
	<circle cx="162.947117549404" cy="-300.169586414039" r="2" style="fill: rgb(0,0,0)" />
	<circle cx="257.99710808843" cy="-191.751031888195" r="2" style="fill: rgb(0,0,0)" />
	<circle cx="296.306081698604" cy="-179.298058944892" r="2" style="fill: rgb(0,0,0)" />
	<circle cx="419.945915575056" cy="-602.758654035594" r="2" style="fill: rgb(0,0,0)" />
	<circle cx="353.01808701633" cy="-668.397081263195" r="2" style="fill: rgb(0,0,0)" />
	<circle cx="308.80372955177" cy="-656.909341188564" r="2" style="fill: rgb(0,0,0)" />
	<circle cx="331.168110608029" cy="-518.368594903056" r="2" style="fill: rgb(0,0,0)" />
	<circle cx="305.438381551307" cy="-483.052306386512" r="2" style="fill: rgb(0,0,0)" />
	<circle cx="145.318069353342" cy="-410.701933695127" r="2" style="fill: rgb(0,0,0)" />
	<circle cx="136.670600760173" cy="-359.525541361873" r="2" style="fill: rgb(0,0,0)" />
	<circle cx="348.406243816835" cy="-148.188407852323" r="2" style="fill: rgb(0,0,0)" />
	<circle cx="383.797792980773" cy="-122.171885489433" r="2" style="fill: rgb(0,0,0)" />
	<circle cx="416.183356852142" cy="-179.947487983889" r="2" style="fill: rgb(0,0,0)" />
	<circle cx="414.863642256544" cy="-229.124354950538" r="2" style="fill: rgb(0,0,0)" />
	<circle cx="103.954290138658" cy="-273.087654495681" r="2" style="fill: rgb(0,0,0)" />
	<circle cx="93.2578496209748" cy="-135.729432730926" r="2" style="fill: rgb(0,0,0)" />
	<circle cx="107.745168505022" cy="-128.827922151951" r="2" style="fill: rgb(0,0,0)" />
	<circle cx="164.528307209164" cy="-164.719370741341" r="2" style="fill: rgb(0,0,0)" />
	<circle cx="466.66577562743" cy="-290.710526088338" r="2" style="fill: rgb(0,0,0)" />
	<circle cx="561.5" cy="-352.416695798838" r="2" style="fill: rgb(0,0,0)" />
	<circle cx="542.932194790096" cy="-397.615534884458" r="2" style="fill: rgb(0,0,0)" />
	<circle cx="256.947176192712" cy="-124.583937519353" r="2" style="fill: rgb(0,0,0)" />
	<circle cx="306.348661830477" cy="-128.54626551548" r="2" style="fill: rgb(0,0,0)" />
	<circle cx="310.65683888544" cy="-137.783278971395" r="2" style="fill: rgb(0,0,0)" />
	<circle cx="282.359160936991" cy="-660.767104865134" r="2" style="fill: rgb(0,0,0)" />
	<circle cx="270.688104599398" cy="-660.327011039133" r="2" style="fill: rgb(0,0,0)" />
	<circle cx="202.611278061981" cy="-638.144350432653" r="2" style="fill: rgb(0,0,0)" />
	<circle cx="439.571948218584" cy="-647.508148867114" r="2" style="fill: rgb(0,0,0)" />
	<circle cx="443.993475464906" cy="-674.278901674536" r="2" style="fill: rgb(0,0,0)" />
	<circle cx="433.049538017241" cy="-696.099210644999" r="2" style="fill: rgb(0,0,0)" />
	<circle cx="392.048259497319" cy="-700.90936392012" r="2" style="fill: rgb(0,0,0)" />
	<circle cx="377.298799361026" cy="-713.01602225796" r="2" style="fill: rgb(0,0,0)" />
	<circle cx="348.326288358894" cy="-744.795430028648" r="2" style="fill: rgb(0,0,0)" />
	<circle cx="290.091593637798" cy="-675.989527753244" r="2" style="fill: rgb(0,0,0)" />
	<circle cx="129.303794321291" cy="-480.487804315088" r="2" style="fill: rgb(0,0,0)" />
	<circle cx="34.7924152936832" cy="-453.685747275565" r="2" style="fill: rgb(0,0,0)" />
	<circle cx="33.5" cy="-450.835574024762" r="2" style="fill: rgb(0,0,0)" />
	<circle cx="461.580948881884" cy="-123.114663286807" r="2" style="fill: rgb(0,0,0)" />
	<circle cx="483.466716733155" cy="-139.153250338856" r="2" style="fill: rgb(0,0,0)" />
	<circle cx="387.465504085287" cy="-112.662379593987" r="2" style="fill: rgb(0,0,0)" />
	<circle cx="438.852746588926" cy="-98.2860305595935" r="2" style="fill: rgb(0,0,0)" />
	<circle cx="453.723535070586" cy="-117.644628142024" r="2" style="fill: rgb(0,0,0)" />
	<circle cx="90.5070002960889" cy="-134.237235410618" r="2" style="fill: rgb(0,0,0)" />
	<circle cx="74.8724415096146" cy="-117.284872194106" r="2" style="fill: rgb(0,0,0)" />
	<circle cx="55.692551790759" cy="-78.7950166163503" r="2" style="fill: rgb(0,0,0)" />
	<circle cx="88.3177651873394" cy="-53.5" r="2" style="fill: rgb(0,0,0)" />
	<circle cx="131.245867448845" cy="-85.1939448463353" r="2" style="fill: rgb(0,0,0)" />
	<circle cx="275.554741121723" cy="-750.651651524552" r="2" style="fill: rgb(0,0,0)" />
	<circle cx="253.393351037269" cy="-757.030901997431" r="2" style="fill: rgb(0,0,0)" />
	<!--
	Generated using the Perl SVG Module V2.87
	by Ronan Oger

	-->
</svg>