<?xml version="1.0" encoding="UTF-8" standalone="yes"?>
<!DOCTYPE svg PUBLIC "-//W3C//DTD SVG 1.0//EN" "http://www.w3.org/TR/2001/REC-SVG-20010904/DTD/svg10.dtd">
<!-- generated using polymake; Michael Joswig, Georg Loho, Benjamin Lorenz, Rico Raber; license CC BY-NC-ND 3.0; see polymake.org and matchthenet.de -->
<svg height="841pt" id="document" viewBox="0 -630.159023079116 572 630.159023079116" width="595pt" xmlns="http://www.w3.org/2000/svg" xmlns:svg="http://www.w3.org/2000/svg" xmlns:xlink="http://www.w3.org/1999/xlink">
	<title id="document_title">planar_net_</title>
	<polygon points="132.178403031424,-261.663537565977 210.3580581891,-261.663537565977 228.604004574562,-311.498805456014 218.560012807446,-330.951158979491 " style="fill: rgb(67,184,206); fill-opacity: 1; stroke: rgb(0,0,0); stroke-width: 3" />
	<polygon points="200.297902905674,-53.5 201.600624683246,-56.7428434391267 168.59568807515,-155.95703324517 87.8570965817149,-92.9130963033208 112.405935470279,-69.6763801788501 " style="fill: rgb(255,210,63); fill-opacity: 1; stroke: rgb(0,0,0); stroke-width: 3" />
	<polygon points="229.837238456283,-408.194878086136 284.947335783791,-521.856606648535 92.0502954873651,-458.553303591039 92.7899319593587,-453.858585934415 161.773951043594,-369.916113200297 " style="fill: rgb(255,210,63); fill-opacity: 1; stroke: rgb(0,0,0); stroke-width: 3" />
	<polygon points="406.410825296584,-425.489238535826 561.5,-438.87425212854 544.681761751151,-526.645660215466 " style="fill: rgb(14,173,105); fill-opacity: 1; stroke: rgb(0,0,0); stroke-width: 3" />
	<polygon points="219.469385880775,-257.934684263413 210.3580581891,-261.663537565977 132.178403031424,-261.663537565977 120.252477245427,-257.643470374091 168.408286416566,-167.472602316156 220.542392918572,-208.562932248871 224.26525874034,-248.853139982309 " style="fill: rgb(84,13,110); fill-opacity: 1; stroke: rgb(0,0,0); stroke-width: 3" />
	<polygon points="120.252477245427,-257.643470374091 115.538341162933,-255.149591773925 34.1109786389205,-106.642679536616 33.5,-101.92949154027 87.8570965817149,-92.9130963033208 168.59568807515,-155.95703324517 168.408286416566,-167.472602316156 " style="fill: rgb(84,13,110); fill-opacity: 1; stroke: rgb(0,0,0); stroke-width: 3" />
	<polygon points="218.560012807446,-330.951158979491 228.604004574562,-311.498805456014 271.228744893102,-297.215312188993 277.165809477709,-299.490394438177 382.680174332798,-423.307625225967 349.892476973661,-469.710912895444 240.980146561959,-405.724854636386 " style="fill: rgb(84,13,110); fill-opacity: 1; stroke: rgb(0,0,0); stroke-width: 3" />
	<polygon points="224.26525874034,-248.853139982309 220.542392918572,-208.562932248871 255.802035661545,-211.024880356466 255.475542564995,-216.808733688397 " style="fill: rgb(67,184,206); fill-opacity: 1; stroke: rgb(0,0,0); stroke-width: 3" />
	<polygon points="349.892476973661,-469.710912895444 382.680174332798,-423.307625225967 406.410825296584,-425.489238535826 544.681761751151,-526.645660215466 553.69642982399,-559.223662403479 510.682533615881,-593.659023079116 " style="fill: rgb(238,66,102); fill-opacity: 1; stroke: rgb(0,0,0); stroke-width: 3" />
	<polygon points="382.680174332798,-423.307625225967 277.165809477709,-299.490394438177 293.193854191511,-246.412533778449 298.233895185418,-243.556392345131 358.428468573104,-243.034801391356 360.637840506716,-245.742529822978 384.593756056512,-399.553858434463 " style="fill: rgb(84,13,110); fill-opacity: 1; stroke: rgb(0,0,0); stroke-width: 3" />
	<polygon points="119.026692263938,-266.066925504735 161.773951043594,-369.916113200297 70.0820762080931,-428.206195606169 " style="fill: rgb(14,173,105); fill-opacity: 1; stroke: rgb(0,0,0); stroke-width: 3" />
	<polygon points="279.450316837017,-267.762295387472 219.469385880775,-257.934684263413 224.26525874034,-248.853139982309 257.196189595577,-218.579726165022 285.610943363951,-266.19022162394 " style="fill: rgb(255,210,63); fill-opacity: 1; stroke: rgb(0,0,0); stroke-width: 3" />
	<polygon points="220.542392918572,-208.562932248871 168.408286416566,-167.472602316156 173.843680352442,-157.318788098226 278.32993184544,-153.393925257892 255.881235879116,-209.248332173196 " style="fill: rgb(255,210,63); fill-opacity: 1; stroke: rgb(0,0,0); stroke-width: 3" />
	<polygon points="132.178403031424,-261.663537565977 218.560012807446,-330.951158979491 229.837238456283,-408.194878086136 161.773951043594,-369.916113200297 119.026692263938,-266.066925504735 119.625089725412,-260.767451006754 " style="fill: rgb(238,66,102); fill-opacity: 1; stroke: rgb(0,0,0); stroke-width: 3" />
	<polygon points="228.604004574562,-311.498805456014 210.3580581891,-261.663537565977 220.043063732705,-259.896815494602 270.142662339128,-294.310827731741 " style="fill: rgb(67,184,206); fill-opacity: 1; stroke: rgb(0,0,0); stroke-width: 3" />
	<circle cx="132.178403031424" cy="-261.663537565977" r="2" style="fill: rgb(0,0,0)" />
	<circle cx="210.3580581891" cy="-261.663537565977" r="2" style="fill: rgb(0,0,0)" />
	<circle cx="228.604004574562" cy="-311.498805456014" r="2" style="fill: rgb(0,0,0)" />
	<circle cx="218.560012807446" cy="-330.951158979491" r="2" style="fill: rgb(0,0,0)" />
	<circle cx="120.252477245427" cy="-257.643470374091" r="2" style="fill: rgb(0,0,0)" />
	<circle cx="168.408286416566" cy="-167.472602316156" r="2" style="fill: rgb(0,0,0)" />
	<circle cx="220.542392918572" cy="-208.562932248871" r="2" style="fill: rgb(0,0,0)" />
	<circle cx="224.26525874034" cy="-248.853139982309" r="2" style="fill: rgb(0,0,0)" />
	<circle cx="219.469385880775" cy="-257.934684263413" r="2" style="fill: rgb(0,0,0)" />
	<circle cx="271.228744893102" cy="-297.215312188993" r="2" style="fill: rgb(0,0,0)" />
	<circle cx="277.165809477709" cy="-299.490394438177" r="2" style="fill: rgb(0,0,0)" />
	<circle cx="382.680174332798" cy="-423.307625225967" r="2" style="fill: rgb(0,0,0)" />
	<circle cx="349.892476973661" cy="-469.710912895444" r="2" style="fill: rgb(0,0,0)" />
	<circle cx="240.980146561959" cy="-405.724854636386" r="2" style="fill: rgb(0,0,0)" />
	<circle cx="229.837238456283" cy="-408.194878086136" r="2" style="fill: rgb(0,0,0)" />
	<circle cx="161.773951043594" cy="-369.916113200297" r="2" style="fill: rgb(0,0,0)" />
	<circle cx="119.026692263938" cy="-266.066925504735" r="2" style="fill: rgb(0,0,0)" />
	<circle cx="119.625089725412" cy="-260.767451006754" r="2" style="fill: rgb(0,0,0)" />
	<circle cx="220.043063732705" cy="-259.896815494602" r="2" style="fill: rgb(0,0,0)" />
	<circle cx="270.142662339128" cy="-294.310827731741" r="2" style="fill: rgb(0,0,0)" />
	<circle cx="115.538341162933" cy="-255.149591773925" r="2" style="fill: rgb(0,0,0)" />
	<circle cx="34.1109786389205" cy="-106.642679536616" r="2" style="fill: rgb(0,0,0)" />
	<circle cx="33.5" cy="-101.92949154027" r="2" style="fill: rgb(0,0,0)" />
	<circle cx="87.8570965817149" cy="-92.9130963033208" r="2" style="fill: rgb(0,0,0)" />
	<circle cx="168.59568807515" cy="-155.95703324517" r="2" style="fill: rgb(0,0,0)" />
	<circle cx="255.802035661545" cy="-211.024880356466" r="2" style="fill: rgb(0,0,0)" />
	<circle cx="255.475542564995" cy="-216.808733688397" r="2" style="fill: rgb(0,0,0)" />
	<circle cx="257.196189595577" cy="-218.579726165022" r="2" style="fill: rgb(0,0,0)" />
	<circle cx="285.610943363951" cy="-266.19022162394" r="2" style="fill: rgb(0,0,0)" />
	<circle cx="279.450316837017" cy="-267.762295387472" r="2" style="fill: rgb(0,0,0)" />
	<circle cx="173.843680352442" cy="-157.318788098226" r="2" style="fill: rgb(0,0,0)" />
	<circle cx="278.32993184544" cy="-153.393925257892" r="2" style="fill: rgb(0,0,0)" />
	<circle cx="255.881235879116" cy="-209.248332173196" r="2" style="fill: rgb(0,0,0)" />
	<circle cx="406.410825296584" cy="-425.489238535826" r="2" style="fill: rgb(0,0,0)" />
	<circle cx="544.681761751151" cy="-526.645660215466" r="2" style="fill: rgb(0,0,0)" />
	<circle cx="553.69642982399" cy="-559.223662403479" r="2" style="fill: rgb(0,0,0)" />
	<circle cx="510.682533615881" cy="-593.659023079116" r="2" style="fill: rgb(0,0,0)" />
	<circle cx="293.193854191511" cy="-246.412533778449" r="2" style="fill: rgb(0,0,0)" />
	<circle cx="298.233895185418" cy="-243.556392345131" r="2" style="fill: rgb(0,0,0)" />
	<circle cx="358.428468573104" cy="-243.034801391356" r="2" style="fill: rgb(0,0,0)" />
	<circle cx="360.637840506716" cy="-245.742529822978" r="2" style="fill: rgb(0,0,0)" />
	<circle cx="384.593756056512" cy="-399.553858434463" r="2" style="fill: rgb(0,0,0)" />
	<circle cx="284.947335783791" cy="-521.856606648535" r="2" style="fill: rgb(0,0,0)" />
	<circle cx="92.0502954873651" cy="-458.553303591039" r="2" style="fill: rgb(0,0,0)" />
	<circle cx="92.7899319593587" cy="-453.858585934415" r="2" style="fill: rgb(0,0,0)" />
	<circle cx="70.0820762080931" cy="-428.206195606169" r="2" style="fill: rgb(0,0,0)" />
	<circle cx="112.405935470279" cy="-69.6763801788501" r="2" style="fill: rgb(0,0,0)" />
	<circle cx="200.297902905674" cy="-53.5" r="2" style="fill: rgb(0,0,0)" />
	<circle cx="201.600624683246" cy="-56.7428434391267" r="2" style="fill: rgb(0,0,0)" />
	<circle cx="561.5" cy="-438.87425212854" r="2" style="fill: rgb(0,0,0)" />
	<!--
	Generated using the Perl SVG Module V2.87
	by Ronan Oger

	-->
</svg>