<?xml version="1.0" encoding="UTF-8" standalone="yes"?>
<!DOCTYPE svg PUBLIC "-//W3C//DTD SVG 1.0//EN" "http://www.w3.org/TR/2001/REC-SVG-20010904/DTD/svg10.dtd">
<!-- generated using polymake; Michael Joswig, Georg Loho, Benjamin Lorenz, Rico Raber; license CC BY-NC-ND 3.0; see polymake.org and matchthenet.de -->
<svg height="841pt" id="document" viewBox="0 -682.322534453474 572 682.322534453474" width="595pt" xmlns="http://www.w3.org/2000/svg" xmlns:svg="http://www.w3.org/2000/svg" xmlns:xlink="http://www.w3.org/1999/xlink">
	<title id="document_title">planar_net_</title>
	<polygon points="152.246884303372,-416.080214331546 446.671193610641,-416.080214331546 449.446978137896,-437.185512171818 392.828039509343,-511.84823252284 381.522601694321,-513.635043820784 " style="fill: rgb(226,200,51); fill-opacity: 1; stroke: rgb(0,0,0); stroke-width: 3" />
	<polygon points="453.492990451542,-290.793122032568 446.671193610641,-416.080214331546 152.246884303372,-416.080214331546 53.5059734198256,-348.29768239538 327.764338261015,-241.789674400377 " style="fill: rgb(226,200,51); fill-opacity: 1; stroke: rgb(0,0,0); stroke-width: 3" />
	<polygon points="478.233871038801,-271.076834962391 453.492990451542,-290.793122032568 327.764338261015,-241.789674400377 504.375234673837,-167.932435925976 546.154813249919,-169.16746020394 550.12990553148,-176.868338557841 " style="fill: rgb(226,200,51); fill-opacity: 1; stroke: rgb(0,0,0); stroke-width: 3" />
	<polygon points="152.246884303372,-416.080214331546 381.522601694321,-513.635043820784 349.693620306389,-613.229288087698 278.939399607874,-583.254274416337 33.5,-400.478400782251 " style="fill: rgb(226,200,51); fill-opacity: 1; stroke: rgb(0,0,0); stroke-width: 3" />
	<polygon points="53.5059734198256,-348.29768239538 226.788317640186,-96.0661458181928 264.472774433837,-58.256731410344 293.220179261126,-53.5 327.764338261015,-241.789674400377 " style="fill: rgb(226,200,51); fill-opacity: 1; stroke: rgb(0,0,0); stroke-width: 3" />
	<polygon points="491.006297551624,-455.057215419521 561.5,-371.674490064974 533.706993377083,-486.877916027192 499.385883469117,-476.947922706894 " style="fill: rgb(226,200,51); fill-opacity: 1; stroke: rgb(0,0,0); stroke-width: 3" />
	<polygon points="381.522601694321,-513.635043820784 392.828039509343,-511.84823252284 401.93338488939,-518.570927735615 472.80019355905,-610.394635506227 465.229895050657,-610.835809294973 436.857594343399,-602.348831564861 " style="fill: rgb(226,200,51); fill-opacity: 1; stroke: rgb(0,0,0); stroke-width: 3" />
	<polygon points="401.93338488939,-518.570927735615 487.534743234527,-571.992466208994 488.352585738172,-607.711851510452 480.367048065868,-611.078760204249 472.80019355905,-610.394635506227 " style="fill: rgb(226,200,51); fill-opacity: 1; stroke: rgb(0,0,0); stroke-width: 3" />
	<polygon points="349.693620306389,-613.229288087698 358.690407301162,-641.444072548763 317.087820371015,-620.59551294661 278.939399607874,-583.254274416337 " style="fill: rgb(226,200,51); fill-opacity: 1; stroke: rgb(0,0,0); stroke-width: 3" />
	<polygon points="392.828039509343,-511.84823252284 449.446978137896,-437.185512171818 491.006297551624,-455.057215419521 499.385883469117,-476.947922706894 403.933157000437,-509.662297729142 " style="fill: rgb(226,200,51); fill-opacity: 1; stroke: rgb(0,0,0); stroke-width: 3" />
	<polygon points="465.229895050657,-610.835809294973 472.80019355905,-610.394635506227 480.142929870679,-612.346439079415 455.114755557423,-645.822534453474 427.1612667342,-637.598044157705 " style="fill: rgb(226,200,51); fill-opacity: 1; stroke: rgb(0,0,0); stroke-width: 3" />
	<polygon points="449.446978137896,-437.185512171818 446.671193610641,-416.080214331546 484.075609346345,-296.312513792778 496.707031214054,-325.317519044785 494.605412016149,-434.485390550906 " style="fill: rgb(226,200,51); fill-opacity: 1; stroke: rgb(0,0,0); stroke-width: 3" />
	<circle cx="152.246884303372" cy="-416.080214331546" r="2" style="fill: rgb(0,0,0)" />
	<circle cx="446.671193610641" cy="-416.080214331546" r="2" style="fill: rgb(0,0,0)" />
	<circle cx="449.446978137896" cy="-437.185512171818" r="2" style="fill: rgb(0,0,0)" />
	<circle cx="392.828039509343" cy="-511.84823252284" r="2" style="fill: rgb(0,0,0)" />
	<circle cx="381.522601694321" cy="-513.635043820784" r="2" style="fill: rgb(0,0,0)" />
	<circle cx="53.5059734198256" cy="-348.29768239538" r="2" style="fill: rgb(0,0,0)" />
	<circle cx="327.764338261015" cy="-241.789674400377" r="2" style="fill: rgb(0,0,0)" />
	<circle cx="453.492990451542" cy="-290.793122032568" r="2" style="fill: rgb(0,0,0)" />
	<circle cx="349.693620306389" cy="-613.229288087698" r="2" style="fill: rgb(0,0,0)" />
	<circle cx="278.939399607874" cy="-583.254274416337" r="2" style="fill: rgb(0,0,0)" />
	<circle cx="33.5" cy="-400.478400782251" r="2" style="fill: rgb(0,0,0)" />
	<circle cx="401.93338488939" cy="-518.570927735615" r="2" style="fill: rgb(0,0,0)" />
	<circle cx="472.80019355905" cy="-610.394635506227" r="2" style="fill: rgb(0,0,0)" />
	<circle cx="465.229895050657" cy="-610.835809294973" r="2" style="fill: rgb(0,0,0)" />
	<circle cx="436.857594343399" cy="-602.348831564861" r="2" style="fill: rgb(0,0,0)" />
	<circle cx="491.006297551624" cy="-455.057215419521" r="2" style="fill: rgb(0,0,0)" />
	<circle cx="499.385883469117" cy="-476.947922706894" r="2" style="fill: rgb(0,0,0)" />
	<circle cx="403.933157000437" cy="-509.662297729142" r="2" style="fill: rgb(0,0,0)" />
	<circle cx="484.075609346345" cy="-296.312513792778" r="2" style="fill: rgb(0,0,0)" />
	<circle cx="496.707031214054" cy="-325.317519044785" r="2" style="fill: rgb(0,0,0)" />
	<circle cx="494.605412016149" cy="-434.485390550906" r="2" style="fill: rgb(0,0,0)" />
	<circle cx="504.375234673837" cy="-167.932435925976" r="2" style="fill: rgb(0,0,0)" />
	<circle cx="546.154813249919" cy="-169.16746020394" r="2" style="fill: rgb(0,0,0)" />
	<circle cx="550.12990553148" cy="-176.868338557841" r="2" style="fill: rgb(0,0,0)" />
	<circle cx="478.233871038801" cy="-271.076834962391" r="2" style="fill: rgb(0,0,0)" />
	<circle cx="226.788317640186" cy="-96.0661458181928" r="2" style="fill: rgb(0,0,0)" />
	<circle cx="264.472774433837" cy="-58.256731410344" r="2" style="fill: rgb(0,0,0)" />
	<circle cx="293.220179261126" cy="-53.5" r="2" style="fill: rgb(0,0,0)" />
	<circle cx="358.690407301162" cy="-641.444072548763" r="2" style="fill: rgb(0,0,0)" />
	<circle cx="317.087820371015" cy="-620.59551294661" r="2" style="fill: rgb(0,0,0)" />
	<circle cx="487.534743234527" cy="-571.992466208994" r="2" style="fill: rgb(0,0,0)" />
	<circle cx="488.352585738172" cy="-607.711851510452" r="2" style="fill: rgb(0,0,0)" />
	<circle cx="480.367048065868" cy="-611.078760204249" r="2" style="fill: rgb(0,0,0)" />
	<circle cx="480.142929870679" cy="-612.346439079415" r="2" style="fill: rgb(0,0,0)" />
	<circle cx="455.114755557423" cy="-645.822534453474" r="2" style="fill: rgb(0,0,0)" />
	<circle cx="427.1612667342" cy="-637.598044157705" r="2" style="fill: rgb(0,0,0)" />
	<circle cx="561.5" cy="-371.674490064974" r="2" style="fill: rgb(0,0,0)" />
	<circle cx="533.706993377083" cy="-486.877916027192" r="2" style="fill: rgb(0,0,0)" />
	<!--
	Generated using the Perl SVG Module V2.84
	by Ronan Oger
	Info: http://www.roitsystems.com/
	-->
</svg>