<?xml version="1.0" encoding="UTF-8" standalone="yes"?>
<!DOCTYPE svg PUBLIC "-//W3C//DTD SVG 1.0//EN" "http://www.w3.org/TR/2001/REC-SVG-20010904/DTD/svg10.dtd">
<!-- generated using polymake; Michael Joswig, Georg Loho, Benjamin Lorenz, Rico Raber; license CC BY-NC-ND 3.0; see polymake.org and matchthenet.de -->
<svg height="841pt" id="document" viewBox="0 -509.388892394673 572 509.388892394673" width="595pt" xmlns="http://www.w3.org/2000/svg" xmlns:svg="http://www.w3.org/2000/svg" xmlns:xlink="http://www.w3.org/1999/xlink">
	<title id="document_title">planar_net_</title>
	<polygon points="267.617406359257,-246.582465777617 311.199618958664,-246.582465777617 388.337164301939,-294.448769336199 238.415107046388,-350.249952643068 248.137083751097,-301.841830046995 " style="fill: rgb(14,173,105); fill-opacity: 1; stroke: rgb(0,0,0); stroke-width: 3" />
	<polygon points="428.047522109479,-299.243868130064 437.207143738409,-203.449029404515 447.706246159945,-199.730298074982 547.938715940387,-207.179556185794 561.5,-238.939063915835 480.561441932863,-321.375265482139 " style="fill: rgb(14,173,105); fill-opacity: 1; stroke: rgb(0,0,0); stroke-width: 3" />
	<polygon points="222.185244172229,-371.101271116579 193.989204571408,-386.264088270872 70.5812381662448,-330.496808201333 119.721863121757,-257.145387784086 154.245653721504,-284.786888126795 " style="fill: rgb(14,173,105); fill-opacity: 1; stroke: rgb(0,0,0); stroke-width: 3" />
	<polygon points="365.459656155413,-171.398649285224 311.199618958664,-246.582465777617 267.617406359257,-246.582465777617 273.123549457718,-164.46550641111 310.733842107028,-153.326467557908 " style="fill: rgb(14,173,105); fill-opacity: 1; stroke: rgb(0,0,0); stroke-width: 3" />
	<polygon points="262.269180539515,-120.386127379834 244.778332746488,-78.9916298563086 254.638179012269,-76.761304564286 298.456624865213,-102.905080541898 " style="fill: rgb(14,173,105); fill-opacity: 1; stroke: rgb(0,0,0); stroke-width: 3" />
	<polygon points="421.144064273158,-158.404763426041 365.459656155413,-171.398649285224 310.733842107028,-153.326467557908 315.33997512697,-101.73068761793 317.378917250262,-101.471102119014 416.073180205534,-148.487795687268 " style="fill: rgb(14,173,105); fill-opacity: 1; stroke: rgb(0,0,0); stroke-width: 3" />
	<polygon points="263.891710458795,-389.75432611405 398.461914384197,-357.66769916033 390.04442424031,-472.888892394673 371.158933317741,-472.417852525334 " style="fill: rgb(14,173,105); fill-opacity: 1; stroke: rgb(0,0,0); stroke-width: 3" />
	<polygon points="273.123549457718,-164.46550641111 261.715714211954,-134.280827889552 262.269180539515,-120.386127379834 298.456624865213,-102.905080541898 302.159595449544,-101.970671672603 303.338633670432,-102.056087598406 310.733842107028,-153.326467557908 " style="fill: rgb(14,173,105); fill-opacity: 1; stroke: rgb(0,0,0); stroke-width: 3" />
	<polygon points="302.159595449544,-101.970671672603 298.456624865213,-102.905080541898 255.848708043809,-74.8316296767988 277.309324515068,-67.8273979387785 " style="fill: rgb(14,173,105); fill-opacity: 1; stroke: rgb(0,0,0); stroke-width: 3" />
	<polygon points="248.137083751097,-301.841830046995 238.415107046388,-350.249952643068 222.185244172229,-371.101271116579 154.245653721504,-284.786888126795 167.988937319223,-232.982356056677 " style="fill: rgb(14,173,105); fill-opacity: 1; stroke: rgb(0,0,0); stroke-width: 3" />
	<polygon points="317.378917250262,-101.471102119014 315.33997512697,-101.73068761793 314.312002845265,-101.146992496534 310.451620070294,-59.0946851684984 355.51414412241,-53.5071090260848 " style="fill: rgb(14,173,105); fill-opacity: 1; stroke: rgb(0,0,0); stroke-width: 3" />
	<polygon points="388.337164301939,-294.448769336199 311.199618958664,-246.582465777617 382.390105403338,-187.17983503854 437.207143738409,-203.449029404515 428.047522109479,-299.243868130064 " style="fill: rgb(14,173,105); fill-opacity: 1; stroke: rgb(0,0,0); stroke-width: 3" />
	<polygon points="416.073180205534,-148.487795687268 317.378917250262,-101.471102119014 361.628142370365,-59.0818789805404 383.219594173607,-53.5 " style="fill: rgb(14,173,105); fill-opacity: 1; stroke: rgb(0,0,0); stroke-width: 3" />
	<polygon points="267.617406359257,-246.582465777617 248.137083751097,-301.841830046995 177.906926140696,-222.891988396069 177.400458638138,-195.705314095239 208.937653953676,-188.874586895769 " style="fill: rgb(14,173,105); fill-opacity: 1; stroke: rgb(0,0,0); stroke-width: 3" />
	<polygon points="238.415107046388,-350.249952643068 388.337164301939,-294.448769336199 426.042134052585,-307.799452680068 398.461914384197,-357.66769916033 263.891710458795,-389.75432611405 234.785120208127,-376.422631652899 " style="fill: rgb(14,173,105); fill-opacity: 1; stroke: rgb(0,0,0); stroke-width: 3" />
	<polygon points="51.7119030190648,-329.584757189336 33.5,-300.243636811541 45.5201490859663,-281.458957419108 82.2691795024557,-254.787608661591 104.398232175443,-250.3241627548 114.505678827318,-250.149687906632 119.721863121757,-257.145387784086 70.5812381662448,-330.496808201333 " style="fill: rgb(14,173,105); fill-opacity: 1; stroke: rgb(0,0,0); stroke-width: 3" />
	<polygon points="167.988937319223,-232.982356056677 154.245653721504,-284.786888126795 123.736453973231,-252.769183816651 122.24999277253,-244.170414807783 149.655479053077,-208.556183053169 163.358094145555,-206.188195118676 " style="fill: rgb(14,173,105); fill-opacity: 1; stroke: rgb(0,0,0); stroke-width: 3" />
	<circle cx="267.617406359257" cy="-246.582465777617" r="2" style="fill: rgb(0,0,0)" />
	<circle cx="311.199618958664" cy="-246.582465777617" r="2" style="fill: rgb(0,0,0)" />
	<circle cx="388.337164301939" cy="-294.448769336199" r="2" style="fill: rgb(0,0,0)" />
	<circle cx="238.415107046388" cy="-350.249952643068" r="2" style="fill: rgb(0,0,0)" />
	<circle cx="248.137083751097" cy="-301.841830046995" r="2" style="fill: rgb(0,0,0)" />
	<circle cx="273.123549457718" cy="-164.46550641111" r="2" style="fill: rgb(0,0,0)" />
	<circle cx="310.733842107028" cy="-153.326467557908" r="2" style="fill: rgb(0,0,0)" />
	<circle cx="365.459656155413" cy="-171.398649285224" r="2" style="fill: rgb(0,0,0)" />
	<circle cx="222.185244172229" cy="-371.101271116579" r="2" style="fill: rgb(0,0,0)" />
	<circle cx="154.245653721504" cy="-284.786888126795" r="2" style="fill: rgb(0,0,0)" />
	<circle cx="167.988937319223" cy="-232.982356056677" r="2" style="fill: rgb(0,0,0)" />
	<circle cx="382.390105403338" cy="-187.17983503854" r="2" style="fill: rgb(0,0,0)" />
	<circle cx="437.207143738409" cy="-203.449029404515" r="2" style="fill: rgb(0,0,0)" />
	<circle cx="428.047522109479" cy="-299.243868130064" r="2" style="fill: rgb(0,0,0)" />
	<circle cx="177.906926140696" cy="-222.891988396069" r="2" style="fill: rgb(0,0,0)" />
	<circle cx="177.400458638138" cy="-195.705314095239" r="2" style="fill: rgb(0,0,0)" />
	<circle cx="208.937653953676" cy="-188.874586895769" r="2" style="fill: rgb(0,0,0)" />
	<circle cx="426.042134052585" cy="-307.799452680068" r="2" style="fill: rgb(0,0,0)" />
	<circle cx="398.461914384197" cy="-357.66769916033" r="2" style="fill: rgb(0,0,0)" />
	<circle cx="263.891710458795" cy="-389.75432611405" r="2" style="fill: rgb(0,0,0)" />
	<circle cx="234.785120208127" cy="-376.422631652899" r="2" style="fill: rgb(0,0,0)" />
	<circle cx="315.33997512697" cy="-101.73068761793" r="2" style="fill: rgb(0,0,0)" />
	<circle cx="317.378917250262" cy="-101.471102119014" r="2" style="fill: rgb(0,0,0)" />
	<circle cx="416.073180205534" cy="-148.487795687268" r="2" style="fill: rgb(0,0,0)" />
	<circle cx="421.144064273158" cy="-158.404763426041" r="2" style="fill: rgb(0,0,0)" />
	<circle cx="261.715714211954" cy="-134.280827889552" r="2" style="fill: rgb(0,0,0)" />
	<circle cx="262.269180539515" cy="-120.386127379834" r="2" style="fill: rgb(0,0,0)" />
	<circle cx="298.456624865213" cy="-102.905080541898" r="2" style="fill: rgb(0,0,0)" />
	<circle cx="302.159595449544" cy="-101.970671672603" r="2" style="fill: rgb(0,0,0)" />
	<circle cx="303.338633670432" cy="-102.056087598406" r="2" style="fill: rgb(0,0,0)" />
	<circle cx="193.989204571408" cy="-386.264088270872" r="2" style="fill: rgb(0,0,0)" />
	<circle cx="70.5812381662448" cy="-330.496808201333" r="2" style="fill: rgb(0,0,0)" />
	<circle cx="119.721863121757" cy="-257.145387784086" r="2" style="fill: rgb(0,0,0)" />
	<circle cx="123.736453973231" cy="-252.769183816651" r="2" style="fill: rgb(0,0,0)" />
	<circle cx="122.24999277253" cy="-244.170414807783" r="2" style="fill: rgb(0,0,0)" />
	<circle cx="149.655479053077" cy="-208.556183053169" r="2" style="fill: rgb(0,0,0)" />
	<circle cx="163.358094145555" cy="-206.188195118676" r="2" style="fill: rgb(0,0,0)" />
	<circle cx="447.706246159945" cy="-199.730298074982" r="2" style="fill: rgb(0,0,0)" />
	<circle cx="547.938715940387" cy="-207.179556185794" r="2" style="fill: rgb(0,0,0)" />
	<circle cx="561.5" cy="-238.939063915835" r="2" style="fill: rgb(0,0,0)" />
	<circle cx="480.561441932863" cy="-321.375265482139" r="2" style="fill: rgb(0,0,0)" />
	<circle cx="390.04442424031" cy="-472.888892394673" r="2" style="fill: rgb(0,0,0)" />
	<circle cx="371.158933317741" cy="-472.417852525334" r="2" style="fill: rgb(0,0,0)" />
	<circle cx="314.312002845265" cy="-101.146992496534" r="2" style="fill: rgb(0,0,0)" />
	<circle cx="310.451620070294" cy="-59.0946851684984" r="2" style="fill: rgb(0,0,0)" />
	<circle cx="355.51414412241" cy="-53.5071090260848" r="2" style="fill: rgb(0,0,0)" />
	<circle cx="361.628142370365" cy="-59.0818789805404" r="2" style="fill: rgb(0,0,0)" />
	<circle cx="383.219594173607" cy="-53.5" r="2" style="fill: rgb(0,0,0)" />
	<circle cx="244.778332746488" cy="-78.9916298563086" r="2" style="fill: rgb(0,0,0)" />
	<circle cx="254.638179012269" cy="-76.761304564286" r="2" style="fill: rgb(0,0,0)" />
	<circle cx="255.848708043809" cy="-74.8316296767988" r="2" style="fill: rgb(0,0,0)" />
	<circle cx="277.309324515068" cy="-67.8273979387785" r="2" style="fill: rgb(0,0,0)" />
	<circle cx="51.7119030190648" cy="-329.584757189336" r="2" style="fill: rgb(0,0,0)" />
	<circle cx="33.5" cy="-300.243636811541" r="2" style="fill: rgb(0,0,0)" />
	<circle cx="45.5201490859663" cy="-281.458957419108" r="2" style="fill: rgb(0,0,0)" />
	<circle cx="82.2691795024557" cy="-254.787608661591" r="2" style="fill: rgb(0,0,0)" />
	<circle cx="104.398232175443" cy="-250.3241627548" r="2" style="fill: rgb(0,0,0)" />
	<circle cx="114.505678827318" cy="-250.149687906632" r="2" style="fill: rgb(0,0,0)" />
	<!--
	Generated using the Perl SVG Module V2.84
	by Ronan Oger
	Info: http://www.roitsystems.com/
	-->
</svg>