<?xml version="1.0" encoding="UTF-8" standalone="yes"?>
<!DOCTYPE svg PUBLIC "-//W3C//DTD SVG 1.0//EN" "http://www.w3.org/TR/2001/REC-SVG-20010904/DTD/svg10.dtd">
<!-- generated using polymake; Michael Joswig, Georg Loho, Benjamin Lorenz, Rico Raber; license CC BY-NC-ND 3.0; see polymake.org and matchthenet.de -->
<svg height="841pt" id="document" viewBox="0 -793.530901997432 572 793.530901997432" width="595pt" xmlns="http://www.w3.org/2000/svg" xmlns:svg="http://www.w3.org/2000/svg" xmlns:xlink="http://www.w3.org/1999/xlink">
	<title id="document_title">planar_net_</title>
	<polygon points="180.521793276801,-284.529682762888 394.479245367441,-284.529682762888 405.694500287097,-289.416134666541 415.314733729263,-460.544603428326 350.322756858002,-477.382593402085 162.947117549404,-300.16958641404 " style="fill: rgb(14,173,105); fill-opacity: 1; stroke: rgb(0,0,0); stroke-width: 3" />
	<polygon points="331.16811060803,-518.368594903057 308.803729551773,-656.909341188565 282.359160936994,-660.767104865135 270.688104599401,-660.327011039135 202.611278061983,-638.144350432655 " style="fill: rgb(14,173,105); fill-opacity: 1; stroke: rgb(0,0,0); stroke-width: 3" />
	<polygon points="419.945915575055,-602.758654035595 439.571948218584,-647.508148867115 443.993475464907,-674.278901674537 433.049538017242,-696.099210645 392.04825949732,-700.909363920121 353.018087016331,-668.397081263196 " style="fill: rgb(14,173,105); fill-opacity: 1; stroke: rgb(0,0,0); stroke-width: 3" />
	<polygon points="296.306081698604,-179.298058944893 394.479245367441,-284.529682762888 180.521793276801,-284.529682762888 257.99710808843,-191.751031888196 " style="fill: rgb(14,173,105); fill-opacity: 1; stroke: rgb(0,0,0); stroke-width: 3" />
	<polygon points="350.322756858002,-477.382593402085 415.314733729263,-460.544603428326 419.945915575055,-602.758654035595 353.018087016331,-668.397081263196 308.803729551773,-656.909341188565 331.16811060803,-518.368594903057 " style="fill: rgb(14,173,105); fill-opacity: 1; stroke: rgb(0,0,0); stroke-width: 3" />
	<polygon points="414.863642256545,-229.124354950539 416.183356852144,-179.947487983891 461.580948881887,-123.11466328681 483.466716733157,-139.153250338858 " style="fill: rgb(14,173,105); fill-opacity: 1; stroke: rgb(0,0,0); stroke-width: 3" />
	<polygon points="136.670600760172,-359.525541361874 145.318069353341,-410.701933695128 129.303794321291,-480.487804315089 34.7924152936833,-453.685747275566 33.5,-450.835574024764 " style="fill: rgb(14,173,105); fill-opacity: 1; stroke: rgb(0,0,0); stroke-width: 3" />
	<polygon points="162.947117549404,-300.16958641404 350.322756858002,-477.382593402085 305.438381551307,-483.052306386513 145.318069353341,-410.701933695128 136.670600760172,-359.525541361874 " style="fill: rgb(14,173,105); fill-opacity: 1; stroke: rgb(0,0,0); stroke-width: 3" />
	<polygon points="405.694500287097,-289.416134666541 394.479245367441,-284.529682762888 348.406243816832,-148.188407852325 383.797792980772,-122.171885489435 416.183356852144,-179.947487983891 414.863642256545,-229.124354950539 " style="fill: rgb(14,173,105); fill-opacity: 1; stroke: rgb(0,0,0); stroke-width: 3" />
	<polygon points="180.521793276801,-284.529682762888 162.947117549404,-300.16958641404 103.954290138658,-273.087654495682 93.2578496209765,-135.729432730926 107.745168505024,-128.827922151951 164.528307209165,-164.719370741342 " style="fill: rgb(14,173,105); fill-opacity: 1; stroke: rgb(0,0,0); stroke-width: 3" />
	<polygon points="107.745168505024,-128.827922151951 93.2578496209765,-135.729432730926 90.507000296091,-134.237235410619 74.8724415096165,-117.284872194105 55.6925517907605,-78.7950166163481 88.317765187342,-53.5 131.245867448847,-85.193944846335 " style="fill: rgb(14,173,105); fill-opacity: 1; stroke: rgb(0,0,0); stroke-width: 3" />
	<polygon points="310.65683888544,-137.783278971397 296.306081698604,-179.298058944893 257.99710808843,-191.751031888196 256.947176192712,-124.583937519354 306.348661830477,-128.546265515481 " style="fill: rgb(14,173,105); fill-opacity: 1; stroke: rgb(0,0,0); stroke-width: 3" />
	<polygon points="308.803729551773,-656.909341188565 353.018087016331,-668.397081263196 377.298799361027,-713.016022257961 348.326288358897,-744.795430028649 290.091593637801,-675.989527753245 " style="fill: rgb(14,173,105); fill-opacity: 1; stroke: rgb(0,0,0); stroke-width: 3" />
	<polygon points="415.314733729263,-460.544603428326 405.694500287097,-289.416134666541 466.665775627431,-290.71052608834 561.5,-352.416695798842 542.932194790096,-397.615534884462 " style="fill: rgb(14,173,105); fill-opacity: 1; stroke: rgb(0,0,0); stroke-width: 3" />
	<polygon points="416.183356852144,-179.947487983891 383.797792980772,-122.171885489435 387.465504085286,-112.662379593989 438.852746588923,-98.2860305595949 453.723535070585,-117.644628142024 " style="fill: rgb(14,173,105); fill-opacity: 1; stroke: rgb(0,0,0); stroke-width: 3" />
	<polygon points="282.359160936994,-660.767104865135 275.554741121725,-750.651651524554 253.393351037271,-757.030901997432 270.688104599401,-660.327011039135 " style="fill: rgb(14,173,105); fill-opacity: 1; stroke: rgb(0,0,0); stroke-width: 3" />
	<circle cx="180.521793276801" cy="-284.529682762888" r="2" style="fill: rgb(0,0,0)" />
	<circle cx="394.479245367441" cy="-284.529682762888" r="2" style="fill: rgb(0,0,0)" />
	<circle cx="405.694500287097" cy="-289.416134666541" r="2" style="fill: rgb(0,0,0)" />
	<circle cx="415.314733729263" cy="-460.544603428326" r="2" style="fill: rgb(0,0,0)" />
	<circle cx="350.322756858002" cy="-477.382593402085" r="2" style="fill: rgb(0,0,0)" />
	<circle cx="162.947117549404" cy="-300.16958641404" r="2" style="fill: rgb(0,0,0)" />
	<circle cx="257.99710808843" cy="-191.751031888196" r="2" style="fill: rgb(0,0,0)" />
	<circle cx="296.306081698604" cy="-179.298058944893" r="2" style="fill: rgb(0,0,0)" />
	<circle cx="419.945915575055" cy="-602.758654035595" r="2" style="fill: rgb(0,0,0)" />
	<circle cx="353.018087016331" cy="-668.397081263196" r="2" style="fill: rgb(0,0,0)" />
	<circle cx="308.803729551773" cy="-656.909341188565" r="2" style="fill: rgb(0,0,0)" />
	<circle cx="331.16811060803" cy="-518.368594903057" r="2" style="fill: rgb(0,0,0)" />
	<circle cx="305.438381551307" cy="-483.052306386513" r="2" style="fill: rgb(0,0,0)" />
	<circle cx="145.318069353341" cy="-410.701933695128" r="2" style="fill: rgb(0,0,0)" />
	<circle cx="136.670600760172" cy="-359.525541361874" r="2" style="fill: rgb(0,0,0)" />
	<circle cx="348.406243816832" cy="-148.188407852325" r="2" style="fill: rgb(0,0,0)" />
	<circle cx="383.797792980772" cy="-122.171885489435" r="2" style="fill: rgb(0,0,0)" />
	<circle cx="416.183356852144" cy="-179.947487983891" r="2" style="fill: rgb(0,0,0)" />
	<circle cx="414.863642256545" cy="-229.124354950539" r="2" style="fill: rgb(0,0,0)" />
	<circle cx="103.954290138658" cy="-273.087654495682" r="2" style="fill: rgb(0,0,0)" />
	<circle cx="93.2578496209765" cy="-135.729432730926" r="2" style="fill: rgb(0,0,0)" />
	<circle cx="107.745168505024" cy="-128.827922151951" r="2" style="fill: rgb(0,0,0)" />
	<circle cx="164.528307209165" cy="-164.719370741342" r="2" style="fill: rgb(0,0,0)" />
	<circle cx="466.665775627431" cy="-290.71052608834" r="2" style="fill: rgb(0,0,0)" />
	<circle cx="561.5" cy="-352.416695798842" r="2" style="fill: rgb(0,0,0)" />
	<circle cx="542.932194790096" cy="-397.615534884462" r="2" style="fill: rgb(0,0,0)" />
	<circle cx="256.947176192712" cy="-124.583937519354" r="2" style="fill: rgb(0,0,0)" />
	<circle cx="306.348661830477" cy="-128.546265515481" r="2" style="fill: rgb(0,0,0)" />
	<circle cx="310.65683888544" cy="-137.783278971397" r="2" style="fill: rgb(0,0,0)" />
	<circle cx="282.359160936994" cy="-660.767104865135" r="2" style="fill: rgb(0,0,0)" />
	<circle cx="270.688104599401" cy="-660.327011039135" r="2" style="fill: rgb(0,0,0)" />
	<circle cx="202.611278061983" cy="-638.144350432655" r="2" style="fill: rgb(0,0,0)" />
	<circle cx="439.571948218584" cy="-647.508148867115" r="2" style="fill: rgb(0,0,0)" />
	<circle cx="443.993475464907" cy="-674.278901674537" r="2" style="fill: rgb(0,0,0)" />
	<circle cx="433.049538017242" cy="-696.099210645" r="2" style="fill: rgb(0,0,0)" />
	<circle cx="392.04825949732" cy="-700.909363920121" r="2" style="fill: rgb(0,0,0)" />
	<circle cx="377.298799361027" cy="-713.016022257961" r="2" style="fill: rgb(0,0,0)" />
	<circle cx="348.326288358897" cy="-744.795430028649" r="2" style="fill: rgb(0,0,0)" />
	<circle cx="290.091593637801" cy="-675.989527753245" r="2" style="fill: rgb(0,0,0)" />
	<circle cx="129.303794321291" cy="-480.487804315089" r="2" style="fill: rgb(0,0,0)" />
	<circle cx="34.7924152936833" cy="-453.685747275566" r="2" style="fill: rgb(0,0,0)" />
	<circle cx="33.5" cy="-450.835574024764" r="2" style="fill: rgb(0,0,0)" />
	<circle cx="461.580948881887" cy="-123.11466328681" r="2" style="fill: rgb(0,0,0)" />
	<circle cx="483.466716733157" cy="-139.153250338858" r="2" style="fill: rgb(0,0,0)" />
	<circle cx="387.465504085286" cy="-112.662379593989" r="2" style="fill: rgb(0,0,0)" />
	<circle cx="438.852746588923" cy="-98.2860305595949" r="2" style="fill: rgb(0,0,0)" />
	<circle cx="453.723535070585" cy="-117.644628142024" r="2" style="fill: rgb(0,0,0)" />
	<circle cx="90.507000296091" cy="-134.237235410619" r="2" style="fill: rgb(0,0,0)" />
	<circle cx="74.8724415096165" cy="-117.284872194105" r="2" style="fill: rgb(0,0,0)" />
	<circle cx="55.6925517907605" cy="-78.7950166163481" r="2" style="fill: rgb(0,0,0)" />
	<circle cx="88.317765187342" cy="-53.5" r="2" style="fill: rgb(0,0,0)" />
	<circle cx="131.245867448847" cy="-85.193944846335" r="2" style="fill: rgb(0,0,0)" />
	<circle cx="275.554741121725" cy="-750.651651524554" r="2" style="fill: rgb(0,0,0)" />
	<circle cx="253.393351037271" cy="-757.030901997432" r="2" style="fill: rgb(0,0,0)" />
	<!--
	Generated using the Perl SVG Module V2.86
	by Ronan Oger
	Info: http://www.roitsystems.com/
	-->
</svg>