<?xml version="1.0" encoding="UTF-8" standalone="yes"?>
<!DOCTYPE svg PUBLIC "-//W3C//DTD SVG 1.0//EN" "http://www.w3.org/TR/2001/REC-SVG-20010904/DTD/svg10.dtd">
<!-- generated using polymake; Michael Joswig, Georg Loho, Benjamin Lorenz, Rico Raber; license CC BY-NC-ND 3.0; see polymake.org and matchthenet.de -->
<svg height="841pt" id="document" viewBox="0 -600.681002254356 572 600.681002254356" width="595pt" xmlns="http://www.w3.org/2000/svg" xmlns:svg="http://www.w3.org/2000/svg" xmlns:xlink="http://www.w3.org/1999/xlink">
	<title id="document_title">planar_net_</title>
	<polygon points="303.181723113872,-289.128732030665 313.161447948454,-289.128732030665 390.452977578072,-402.727063836901 322.685531579605,-404.007712236275 283.558774257934,-387.047678008794 " style="fill: rgb(14,173,105); fill-opacity: 1; stroke: rgb(0,0,0); stroke-width: 3" />
	<polygon points="435.141543536911,-355.405678215405 435.753947125347,-292.430929344304 561.338796924649,-271.139097728416 561.5,-335.701830512657 555.460863961754,-342.557017904644 " style="fill: rgb(14,173,105); fill-opacity: 1; stroke: rgb(0,0,0); stroke-width: 3" />
	<polygon points="52.7158055292414,-199.645296154643 33.5,-176.101128595817 38.6994136509541,-149.366990744921 174.800364836877,-82.0735876609883 249.319570612383,-138.463453222309 217.749430485345,-195.433978847498 " style="fill: rgb(14,173,105); fill-opacity: 1; stroke: rgb(0,0,0); stroke-width: 3" />
	<polygon points="366.600691571306,-214.80686166787 313.161447948454,-289.128732030665 303.181723113872,-289.128732030665 217.749430485345,-195.433978847498 249.319570612383,-138.463453222309 " style="fill: rgb(14,173,105); fill-opacity: 1; stroke: rgb(0,0,0); stroke-width: 3" />
	<polygon points="408.580007995755,-416.735161623794 455.910208962543,-450.45651188561 395.109749633602,-555.075492403761 357.031483047203,-481.338799516824 356.136448637753,-472.620241426314 " style="fill: rgb(14,173,105); fill-opacity: 1; stroke: rgb(0,0,0); stroke-width: 3" />
	<polygon points="322.685531579605,-404.007712236275 390.452977578072,-402.727063836901 408.580007995755,-416.735161623794 356.136448637753,-472.620241426314 303.767045743511,-462.272199310087 " style="fill: rgb(14,173,105); fill-opacity: 1; stroke: rgb(0,0,0); stroke-width: 3" />
	<polygon points="303.181723113872,-289.128732030665 283.558774257934,-387.047678008794 215.665104701137,-406.380591735153 184.595563315124,-244.243254401412 " style="fill: rgb(14,173,105); fill-opacity: 1; stroke: rgb(0,0,0); stroke-width: 3" />
	<polygon points="431.118983251834,-196.011726972062 366.600691571306,-214.80686166787 249.319570612383,-138.463453222309 328.870466090989,-89.4268954721097 376.692593108251,-80.8480840607028 " style="fill: rgb(14,173,105); fill-opacity: 1; stroke: rgb(0,0,0); stroke-width: 3" />
	<polygon points="390.452977578072,-402.727063836901 313.161447948454,-289.128732030665 391.534240322299,-241.829698332993 435.753947125347,-292.430929344304 435.141543536911,-355.405678215405 412.505944653421,-408.930504700147 " style="fill: rgb(14,173,105); fill-opacity: 1; stroke: rgb(0,0,0); stroke-width: 3" />
	<polygon points="395.109749633602,-555.075492403761 395.854362706574,-564.181002254356 331.130774591268,-547.467862027589 357.031483047203,-481.338799516824 " style="fill: rgb(14,173,105); fill-opacity: 1; stroke: rgb(0,0,0); stroke-width: 3" />
	<polygon points="283.558774257934,-387.047678008794 322.685531579605,-404.007712236275 295.892183315545,-459.096513721756 239.077518059673,-453.450710318738 225.023271436909,-426.505336689076 " style="fill: rgb(14,173,105); fill-opacity: 1; stroke: rgb(0,0,0); stroke-width: 3" />
	<polygon points="135.505302476992,-53.5 174.800364836877,-82.0735876609883 38.6994136509541,-149.366990744921 37.4003441055818,-117.485222942474 71.2549559661048,-59.8455042535932 " style="fill: rgb(14,173,105); fill-opacity: 1; stroke: rgb(0,0,0); stroke-width: 3" />
	<polygon points="303.767045743511,-462.272199310087 356.136448637753,-472.620241426314 352.144890077987,-480.422920583884 289.321703273833,-513.546127053704 262.478624888261,-496.295508436422 247.763137341672,-473.378212452584 " style="fill: rgb(14,173,105); fill-opacity: 1; stroke: rgb(0,0,0); stroke-width: 3" />
	<circle cx="303.181723113872" cy="-289.128732030665" r="2" style="fill: rgb(0,0,0)" />
	<circle cx="313.161447948454" cy="-289.128732030665" r="2" style="fill: rgb(0,0,0)" />
	<circle cx="390.452977578072" cy="-402.727063836901" r="2" style="fill: rgb(0,0,0)" />
	<circle cx="322.685531579605" cy="-404.007712236275" r="2" style="fill: rgb(0,0,0)" />
	<circle cx="283.558774257934" cy="-387.047678008794" r="2" style="fill: rgb(0,0,0)" />
	<circle cx="217.749430485345" cy="-195.433978847498" r="2" style="fill: rgb(0,0,0)" />
	<circle cx="249.319570612383" cy="-138.463453222309" r="2" style="fill: rgb(0,0,0)" />
	<circle cx="366.600691571306" cy="-214.80686166787" r="2" style="fill: rgb(0,0,0)" />
	<circle cx="408.580007995755" cy="-416.735161623794" r="2" style="fill: rgb(0,0,0)" />
	<circle cx="356.136448637753" cy="-472.620241426314" r="2" style="fill: rgb(0,0,0)" />
	<circle cx="303.767045743511" cy="-462.272199310087" r="2" style="fill: rgb(0,0,0)" />
	<circle cx="215.665104701137" cy="-406.380591735153" r="2" style="fill: rgb(0,0,0)" />
	<circle cx="184.595563315124" cy="-244.243254401412" r="2" style="fill: rgb(0,0,0)" />
	<circle cx="391.534240322299" cy="-241.829698332993" r="2" style="fill: rgb(0,0,0)" />
	<circle cx="435.753947125347" cy="-292.430929344304" r="2" style="fill: rgb(0,0,0)" />
	<circle cx="435.141543536911" cy="-355.405678215405" r="2" style="fill: rgb(0,0,0)" />
	<circle cx="412.505944653421" cy="-408.930504700147" r="2" style="fill: rgb(0,0,0)" />
	<circle cx="295.892183315545" cy="-459.096513721756" r="2" style="fill: rgb(0,0,0)" />
	<circle cx="239.077518059673" cy="-453.450710318738" r="2" style="fill: rgb(0,0,0)" />
	<circle cx="225.023271436909" cy="-426.505336689076" r="2" style="fill: rgb(0,0,0)" />
	<circle cx="52.7158055292414" cy="-199.645296154643" r="2" style="fill: rgb(0,0,0)" />
	<circle cx="33.5" cy="-176.101128595817" r="2" style="fill: rgb(0,0,0)" />
	<circle cx="38.6994136509541" cy="-149.366990744921" r="2" style="fill: rgb(0,0,0)" />
	<circle cx="174.800364836877" cy="-82.0735876609883" r="2" style="fill: rgb(0,0,0)" />
	<circle cx="328.870466090989" cy="-89.4268954721097" r="2" style="fill: rgb(0,0,0)" />
	<circle cx="376.692593108251" cy="-80.8480840607028" r="2" style="fill: rgb(0,0,0)" />
	<circle cx="431.118983251834" cy="-196.011726972062" r="2" style="fill: rgb(0,0,0)" />
	<circle cx="455.910208962543" cy="-450.45651188561" r="2" style="fill: rgb(0,0,0)" />
	<circle cx="395.109749633602" cy="-555.075492403761" r="2" style="fill: rgb(0,0,0)" />
	<circle cx="357.031483047203" cy="-481.338799516824" r="2" style="fill: rgb(0,0,0)" />
	<circle cx="352.144890077987" cy="-480.422920583884" r="2" style="fill: rgb(0,0,0)" />
	<circle cx="289.321703273833" cy="-513.546127053704" r="2" style="fill: rgb(0,0,0)" />
	<circle cx="262.478624888261" cy="-496.295508436422" r="2" style="fill: rgb(0,0,0)" />
	<circle cx="247.763137341672" cy="-473.378212452584" r="2" style="fill: rgb(0,0,0)" />
	<circle cx="561.338796924649" cy="-271.139097728416" r="2" style="fill: rgb(0,0,0)" />
	<circle cx="561.5" cy="-335.701830512657" r="2" style="fill: rgb(0,0,0)" />
	<circle cx="555.460863961754" cy="-342.557017904644" r="2" style="fill: rgb(0,0,0)" />
	<circle cx="37.4003441055818" cy="-117.485222942474" r="2" style="fill: rgb(0,0,0)" />
	<circle cx="71.2549559661048" cy="-59.8455042535932" r="2" style="fill: rgb(0,0,0)" />
	<circle cx="135.505302476992" cy="-53.5" r="2" style="fill: rgb(0,0,0)" />
	<circle cx="395.854362706574" cy="-564.181002254356" r="2" style="fill: rgb(0,0,0)" />
	<circle cx="331.130774591268" cy="-547.467862027589" r="2" style="fill: rgb(0,0,0)" />
	<!--
	Generated using the Perl SVG Module V2.87
	by Ronan Oger

	-->
</svg>