<?xml version="1.0" encoding="UTF-8" standalone="yes"?>
<!DOCTYPE svg PUBLIC "-//W3C//DTD SVG 1.0//EN" "http://www.w3.org/TR/2001/REC-SVG-20010904/DTD/svg10.dtd">
<!-- generated using polymake; Michael Joswig, Georg Loho, Benjamin Lorenz, Rico Raber; license CC BY-NC-SA 3.0; see polymake.org and matchthenet.de -->
<svg height="841pt" id="document" viewBox="0 -730.002345353598 572 730.002345353598" width="595pt" xmlns="http://www.w3.org/2000/svg" xmlns:svg="http://www.w3.org/2000/svg" xmlns:xlink="http://www.w3.org/1999/xlink">
	<title id="document_title">planar_net_</title>
	<polygon points="303.276736831239,-419.460789141818 389.014400205889,-419.460789141818 396.760876419777,-453.062620104321 394.17544788594,-484.849988672839 356.305108844975,-544.638465268022 " style="fill: rgb(14,173,105); fill-opacity: 1; stroke: rgb(0,0,0); stroke-width: 3" />
	<polygon points="427.624306254657,-306.252749258378 389.014400205889,-419.460789141818 303.276736831239,-419.460789141818 65.790594118819,-282.673596221164 236.366352924683,-237.477105877023 422.033764056419,-290.444037727381 " style="fill: rgb(14,173,105); fill-opacity: 1; stroke: rgb(0,0,0); stroke-width: 3" />
	<polygon points="422.033764056419,-290.444037727381 236.366352924683,-237.477105877023 424.655576455047,-175.618781609084 " style="fill: rgb(14,173,105); fill-opacity: 1; stroke: rgb(0,0,0); stroke-width: 3" />
	<polygon points="65.790594118819,-282.673596221164 205.322252757986,-54.9004936211808 346.572437949526,-53.5 353.752696569527,-77.7907561015349 236.366352924683,-237.477105877023 " style="fill: rgb(14,173,105); fill-opacity: 1; stroke: rgb(0,0,0); stroke-width: 3" />
	<polygon points="262.665785283678,-604.972685877138 355.202424413626,-580.093024454544 363.586973997757,-584.170343807816 398.95765411705,-622.290116459172 408.585235232737,-642.519739575554 372.738831902788,-693.502345353598 " style="fill: rgb(14,173,105); fill-opacity: 1; stroke: rgb(0,0,0); stroke-width: 3" />
	<polygon points="539.646378613461,-303.490536585685 427.624306254657,-306.252749258378 422.033764056419,-290.444037727381 511.493532696522,-218.411662105399 536.44616124114,-222.766346313107 561.5,-279.832061826526 " style="fill: rgb(14,173,105); fill-opacity: 1; stroke: rgb(0,0,0); stroke-width: 3" />
	<polygon points="356.305108844975,-544.638465268022 394.17544788594,-484.849988672839 393.817404190621,-518.176158727309 357.209547486469,-548.249908993547 " style="fill: rgb(14,173,105); fill-opacity: 1; stroke: rgb(0,0,0); stroke-width: 3" />
	<polygon points="396.760876419777,-453.062620104321 389.014400205889,-419.460789141818 508.201567953658,-429.52081814836 466.858933941088,-533.671483663822 446.219976399767,-521.729735819076 " style="fill: rgb(14,173,105); fill-opacity: 1; stroke: rgb(0,0,0); stroke-width: 3" />
	<polygon points="303.276736831239,-419.460789141818 356.305108844975,-544.638465268022 357.110140997677,-548.273359801844 355.202424413626,-580.093024454544 262.665785283678,-604.972685877138 33.5,-467.740354096606 " style="fill: rgb(14,173,105); fill-opacity: 1; stroke: rgb(0,0,0); stroke-width: 3" />
	<polygon points="394.17544788594,-484.849988672839 396.760876419777,-453.062620104321 435.852161381592,-528.11757857775 408.791977299727,-538.689038053763 399.683461180577,-534.65446980215 394.588555187738,-518.175521648988 " style="fill: rgb(14,173,105); fill-opacity: 1; stroke: rgb(0,0,0); stroke-width: 3" />
	<polygon points="446.219976399767,-521.729735819076 466.858933941088,-533.671483663822 472.46843271471,-565.386428392525 450.544704916504,-569.999250630613 422.109054954657,-537.936918950801 " style="fill: rgb(14,173,105); fill-opacity: 1; stroke: rgb(0,0,0); stroke-width: 3" />
	<polygon points="393.817404190621,-518.176158727309 397.672723076195,-534.988366066057 367.191616825579,-578.878787904421 357.950981315689,-580.118086177883 357.209547486469,-548.249908993547 " style="fill: rgb(14,173,105); fill-opacity: 1; stroke: rgb(0,0,0); stroke-width: 3" />
	<polygon points="399.683461180577,-534.65446980215 408.791977299727,-538.689038053763 428.20461392586,-576.895435956747 376.541249179354,-582.81986184977 " style="fill: rgb(14,173,105); fill-opacity: 1; stroke: rgb(0,0,0); stroke-width: 3" />
	<circle cx="303.276736831239" cy="-419.460789141818" r="2" style="fill: rgb(0,0,0)" />
	<circle cx="389.014400205889" cy="-419.460789141818" r="2" style="fill: rgb(0,0,0)" />
	<circle cx="396.760876419777" cy="-453.062620104321" r="2" style="fill: rgb(0,0,0)" />
	<circle cx="394.17544788594" cy="-484.849988672839" r="2" style="fill: rgb(0,0,0)" />
	<circle cx="356.305108844975" cy="-544.638465268022" r="2" style="fill: rgb(0,0,0)" />
	<circle cx="65.790594118819" cy="-282.673596221164" r="2" style="fill: rgb(0,0,0)" />
	<circle cx="236.366352924683" cy="-237.477105877023" r="2" style="fill: rgb(0,0,0)" />
	<circle cx="422.033764056419" cy="-290.444037727381" r="2" style="fill: rgb(0,0,0)" />
	<circle cx="427.624306254657" cy="-306.252749258378" r="2" style="fill: rgb(0,0,0)" />
	<circle cx="393.817404190621" cy="-518.176158727309" r="2" style="fill: rgb(0,0,0)" />
	<circle cx="357.209547486469" cy="-548.249908993547" r="2" style="fill: rgb(0,0,0)" />
	<circle cx="508.201567953658" cy="-429.52081814836" r="2" style="fill: rgb(0,0,0)" />
	<circle cx="466.858933941088" cy="-533.671483663822" r="2" style="fill: rgb(0,0,0)" />
	<circle cx="446.219976399767" cy="-521.729735819076" r="2" style="fill: rgb(0,0,0)" />
	<circle cx="357.110140997677" cy="-548.273359801844" r="2" style="fill: rgb(0,0,0)" />
	<circle cx="355.202424413626" cy="-580.093024454544" r="2" style="fill: rgb(0,0,0)" />
	<circle cx="262.665785283678" cy="-604.972685877138" r="2" style="fill: rgb(0,0,0)" />
	<circle cx="33.5" cy="-467.740354096606" r="2" style="fill: rgb(0,0,0)" />
	<circle cx="435.852161381592" cy="-528.11757857775" r="2" style="fill: rgb(0,0,0)" />
	<circle cx="408.791977299727" cy="-538.689038053763" r="2" style="fill: rgb(0,0,0)" />
	<circle cx="399.683461180577" cy="-534.65446980215" r="2" style="fill: rgb(0,0,0)" />
	<circle cx="394.588555187738" cy="-518.175521648988" r="2" style="fill: rgb(0,0,0)" />
	<circle cx="424.655576455047" cy="-175.618781609084" r="2" style="fill: rgb(0,0,0)" />
	<circle cx="205.322252757986" cy="-54.9004936211808" r="2" style="fill: rgb(0,0,0)" />
	<circle cx="346.572437949526" cy="-53.5" r="2" style="fill: rgb(0,0,0)" />
	<circle cx="353.752696569527" cy="-77.7907561015349" r="2" style="fill: rgb(0,0,0)" />
	<circle cx="511.493532696522" cy="-218.411662105399" r="2" style="fill: rgb(0,0,0)" />
	<circle cx="536.44616124114" cy="-222.766346313107" r="2" style="fill: rgb(0,0,0)" />
	<circle cx="561.5" cy="-279.832061826526" r="2" style="fill: rgb(0,0,0)" />
	<circle cx="539.646378613461" cy="-303.490536585685" r="2" style="fill: rgb(0,0,0)" />
	<circle cx="397.672723076195" cy="-534.988366066057" r="2" style="fill: rgb(0,0,0)" />
	<circle cx="367.191616825579" cy="-578.878787904421" r="2" style="fill: rgb(0,0,0)" />
	<circle cx="357.950981315689" cy="-580.118086177883" r="2" style="fill: rgb(0,0,0)" />
	<circle cx="472.46843271471" cy="-565.386428392525" r="2" style="fill: rgb(0,0,0)" />
	<circle cx="450.544704916504" cy="-569.999250630613" r="2" style="fill: rgb(0,0,0)" />
	<circle cx="422.109054954657" cy="-537.936918950801" r="2" style="fill: rgb(0,0,0)" />
	<circle cx="363.586973997757" cy="-584.170343807816" r="2" style="fill: rgb(0,0,0)" />
	<circle cx="398.95765411705" cy="-622.290116459172" r="2" style="fill: rgb(0,0,0)" />
	<circle cx="408.585235232737" cy="-642.519739575554" r="2" style="fill: rgb(0,0,0)" />
	<circle cx="372.738831902788" cy="-693.502345353598" r="2" style="fill: rgb(0,0,0)" />
	<circle cx="428.20461392586" cy="-576.895435956747" r="2" style="fill: rgb(0,0,0)" />
	<circle cx="376.541249179354" cy="-582.81986184977" r="2" style="fill: rgb(0,0,0)" />
	<!-- 
	Generated using the Perl SVG Module V2.64
	by Ronan Oger
	Info: http://www.roitsystems.com/
 -->
</svg>