<?xml version="1.0" encoding="UTF-8" standalone="yes"?>
<!DOCTYPE svg PUBLIC "-//W3C//DTD SVG 1.0//EN" "http://www.w3.org/TR/2001/REC-SVG-20010904/DTD/svg10.dtd">
<!-- generated using polymake; Michael Joswig, Georg Loho, Benjamin Lorenz, Rico Raber; license CC BY-NC-ND 3.0; see polymake.org and matchthenet.de -->
<svg height="841pt" id="document" viewBox="0 -650.282595229825 572 650.282595229825" width="595pt" xmlns="http://www.w3.org/2000/svg" xmlns:svg="http://www.w3.org/2000/svg" xmlns:xlink="http://www.w3.org/1999/xlink">
	<title id="document_title">planar_net_</title>
	<polygon points="33.5,-322.329709115727 421.241846322456,-322.329709115727 460.778430473637,-357.939431248491 460.819433359388,-358.125625771617 336.580418956549,-448.439795242112 " style="fill: rgb(29,97,21); fill-opacity: 1; stroke: rgb(0,0,0); stroke-width: 3" />
	<polygon points="441.664408587811,-303.746568445042 421.241846322456,-322.329709115727 33.5,-322.329709115727 262.581757289019,-132.280381192513 356.999240248052,-160.822751926864 " style="fill: rgb(29,97,21); fill-opacity: 1; stroke: rgb(0,0,0); stroke-width: 3" />
	<polygon points="262.581757289019,-132.280381192513 539.727914716417,-53.5 555.805574188293,-88.6161221281436 465.330417843592,-164.444059291637 356.999240248052,-160.822751926864 " style="fill: rgb(29,97,21); fill-opacity: 1; stroke: rgb(0,0,0); stroke-width: 3" />
	<polygon points="33.5,-322.329709115727 336.580418956549,-448.439795242112 370.291617818335,-498.922635188434 394.607240586469,-591.958128202375 107.094550691048,-610.740944464266 " style="fill: rgb(29,97,21); fill-opacity: 1; stroke: rgb(0,0,0); stroke-width: 3" />
	<polygon points="467.851061019788,-365.27475058129 506.032585204885,-376.690719226499 516.365060384617,-404.425674598016 470.87956670685,-387.287469615091 " style="fill: rgb(29,97,21); fill-opacity: 1; stroke: rgb(0,0,0); stroke-width: 3" />
	<polygon points="370.291617818335,-498.922635188434 453.211640807916,-552.294183868298 444.164761882544,-600.051928652296 426.471418064933,-613.782595229825 394.607240586469,-591.958128202375 " style="fill: rgb(29,97,21); fill-opacity: 1; stroke: rgb(0,0,0); stroke-width: 3" />
	<polygon points="460.778430473637,-357.939431248491 421.241846322456,-322.329709115727 445.698697404636,-309.512665704118 460.509857202679,-310.746013967298 472.351243630982,-335.651560707724 " style="fill: rgb(29,97,21); fill-opacity: 1; stroke: rgb(0,0,0); stroke-width: 3" />
	<polygon points="336.580418956549,-448.439795242112 460.819433359388,-358.125625771617 467.851061019788,-365.27475058129 470.87956670685,-387.287469615091 397.131057177642,-452.750510816233 " style="fill: rgb(29,97,21); fill-opacity: 1; stroke: rgb(0,0,0); stroke-width: 3" />
	<polygon points="509.140364602647,-357.739595633658 501.554193656449,-340.356811754434 508.195556245945,-304.513411121109 561.5,-261.250288730049 555.705485490334,-379.157258717617 533.934607576714,-373.902309147812 " style="fill: rgb(117,8,12); fill-opacity: 1; stroke: rgb(0,0,0); stroke-width: 3" />
	<polygon points="472.351243630982,-335.651560707724 460.509857202679,-310.746013967298 488.797820839217,-295.510235503916 497.306654257082,-330.956770170535 " style="fill: rgb(29,97,21); fill-opacity: 1; stroke: rgb(0,0,0); stroke-width: 3" />
	<polygon points="455.86810134364,-299.370872546225 441.664408587811,-303.746568445042 356.999240248052,-160.822751926864 455.634418134081,-205.765599964086 472.994809235634,-272.186065964787 " style="fill: rgb(29,97,21); fill-opacity: 1; stroke: rgb(0,0,0); stroke-width: 3" />
	<polygon points="460.819433359388,-358.125625771617 460.778430473637,-357.939431248491 476.255994389422,-338.162571213345 501.554193656449,-340.356811754434 509.140364602647,-357.739595633658 469.62683193788,-362.919737094675 " style="fill: rgb(117,8,12); fill-opacity: 1; stroke: rgb(0,0,0); stroke-width: 3" />
	<circle cx="33.5" cy="-322.329709115727" r="2" style="fill: rgb(0,0,0)" />
	<circle cx="421.241846322456" cy="-322.329709115727" r="2" style="fill: rgb(0,0,0)" />
	<circle cx="460.778430473637" cy="-357.939431248491" r="2" style="fill: rgb(0,0,0)" />
	<circle cx="460.819433359388" cy="-358.125625771617" r="2" style="fill: rgb(0,0,0)" />
	<circle cx="336.580418956549" cy="-448.439795242112" r="2" style="fill: rgb(0,0,0)" />
	<circle cx="262.581757289019" cy="-132.280381192513" r="2" style="fill: rgb(0,0,0)" />
	<circle cx="356.999240248052" cy="-160.822751926864" r="2" style="fill: rgb(0,0,0)" />
	<circle cx="441.664408587811" cy="-303.746568445042" r="2" style="fill: rgb(0,0,0)" />
	<circle cx="370.291617818335" cy="-498.922635188434" r="2" style="fill: rgb(0,0,0)" />
	<circle cx="394.607240586469" cy="-591.958128202375" r="2" style="fill: rgb(0,0,0)" />
	<circle cx="107.094550691048" cy="-610.740944464266" r="2" style="fill: rgb(0,0,0)" />
	<circle cx="445.698697404636" cy="-309.512665704118" r="2" style="fill: rgb(0,0,0)" />
	<circle cx="460.509857202679" cy="-310.746013967298" r="2" style="fill: rgb(0,0,0)" />
	<circle cx="472.351243630982" cy="-335.651560707724" r="2" style="fill: rgb(0,0,0)" />
	<circle cx="467.851061019788" cy="-365.27475058129" r="2" style="fill: rgb(0,0,0)" />
	<circle cx="470.87956670685" cy="-387.287469615091" r="2" style="fill: rgb(0,0,0)" />
	<circle cx="397.131057177642" cy="-452.750510816233" r="2" style="fill: rgb(0,0,0)" />
	<circle cx="476.255994389422" cy="-338.162571213345" r="2" style="fill: rgb(0,0,0)" />
	<circle cx="501.554193656449" cy="-340.356811754434" r="2" style="fill: rgb(0,0,0)" />
	<circle cx="509.140364602647" cy="-357.739595633658" r="2" style="fill: rgb(0,0,0)" />
	<circle cx="469.62683193788" cy="-362.919737094675" r="2" style="fill: rgb(0,0,0)" />
	<circle cx="539.727914716417" cy="-53.5" r="2" style="fill: rgb(0,0,0)" />
	<circle cx="555.805574188293" cy="-88.6161221281436" r="2" style="fill: rgb(0,0,0)" />
	<circle cx="465.330417843592" cy="-164.444059291637" r="2" style="fill: rgb(0,0,0)" />
	<circle cx="455.634418134081" cy="-205.765599964086" r="2" style="fill: rgb(0,0,0)" />
	<circle cx="472.994809235634" cy="-272.186065964787" r="2" style="fill: rgb(0,0,0)" />
	<circle cx="455.86810134364" cy="-299.370872546225" r="2" style="fill: rgb(0,0,0)" />
	<circle cx="453.211640807916" cy="-552.294183868298" r="2" style="fill: rgb(0,0,0)" />
	<circle cx="444.164761882544" cy="-600.051928652296" r="2" style="fill: rgb(0,0,0)" />
	<circle cx="426.471418064933" cy="-613.782595229825" r="2" style="fill: rgb(0,0,0)" />
	<circle cx="488.797820839217" cy="-295.510235503916" r="2" style="fill: rgb(0,0,0)" />
	<circle cx="497.306654257082" cy="-330.956770170535" r="2" style="fill: rgb(0,0,0)" />
	<circle cx="506.032585204885" cy="-376.690719226499" r="2" style="fill: rgb(0,0,0)" />
	<circle cx="516.365060384617" cy="-404.425674598016" r="2" style="fill: rgb(0,0,0)" />
	<circle cx="508.195556245945" cy="-304.513411121109" r="2" style="fill: rgb(0,0,0)" />
	<circle cx="561.5" cy="-261.250288730049" r="2" style="fill: rgb(0,0,0)" />
	<circle cx="555.705485490334" cy="-379.157258717617" r="2" style="fill: rgb(0,0,0)" />
	<circle cx="533.934607576714" cy="-373.902309147812" r="2" style="fill: rgb(0,0,0)" />
	<!--
	Generated using the Perl SVG Module V2.86
	by Ronan Oger
	Info: http://www.roitsystems.com/
	-->
</svg>