<?xml version="1.0" encoding="UTF-8" standalone="yes"?>
<!DOCTYPE svg PUBLIC "-//W3C//DTD SVG 1.0//EN" "http://www.w3.org/TR/2001/REC-SVG-20010904/DTD/svg10.dtd">
<!-- generated using polymake; Michael Joswig, Georg Loho, Benjamin Lorenz, Rico Raber; license CC BY-NC-ND 3.0; see polymake.org and matchthenet.de -->
<svg height="841pt" id="document" viewBox="0 -621.166800582996 572 621.166800582996" width="595pt" xmlns="http://www.w3.org/2000/svg" xmlns:svg="http://www.w3.org/2000/svg" xmlns:xlink="http://www.w3.org/1999/xlink">
	<title id="document_title">planar_net_</title>
	<polygon points="165.907158575554,-325.462799407076 375.731593004045,-325.462799407076 419.049096045506,-423.23333699951 397.926264221084,-459.14759188055 218.985109814545,-411.253512440607 188.297074052059,-376.85214211784 " style="fill: rgb(14,173,105); fill-opacity: 1; stroke: rgb(0,0,0); stroke-width: 3" />
	<polygon points="252.246184595713,-198.064116957548 375.731593004045,-325.462799407076 165.907158575554,-325.462799407076 167.96510516191,-191.289623489292 " style="fill: rgb(14,173,105); fill-opacity: 1; stroke: rgb(0,0,0); stroke-width: 3" />
	<polygon points="188.297074052059,-376.85214211784 218.985109814545,-411.253512440607 182.448671876214,-475.917453097453 173.206706242061,-481.422387961384 167.317568008608,-482.212913816704 157.486698828475,-459.359580300031 " style="fill: rgb(14,173,105); fill-opacity: 1; stroke: rgb(0,0,0); stroke-width: 3" />
	<polygon points="419.049096045506,-423.23333699951 375.731593004045,-325.462799407076 446.855129565125,-162.918919403257 512.511811389732,-276.413701308489 507.819022979553,-289.050516245506 " style="fill: rgb(14,173,105); fill-opacity: 1; stroke: rgb(0,0,0); stroke-width: 3" />
	<polygon points="167.317568008608,-482.212913816704 173.206706242061,-481.422387961384 191.828735785877,-528.087471149427 147.932523102903,-502.19045625485 " style="fill: rgb(14,173,105); fill-opacity: 1; stroke: rgb(0,0,0); stroke-width: 3" />
	<polygon points="311.606066545005,-81.1527411085421 252.246184595713,-198.064116957548 167.96510516191,-191.289623489292 230.418519058862,-90.5438939024944 265.089952047884,-53.5 295.833561127584,-59.7156458526655 " style="fill: rgb(14,173,105); fill-opacity: 1; stroke: rgb(0,0,0); stroke-width: 3" />
	<polygon points="157.486698828475,-459.359580300031 167.317568008608,-482.212913816704 146.053052574986,-500.176837420351 128.842966964959,-498.073585359637 95.7506498320526,-459.612476590595 " style="fill: rgb(14,173,105); fill-opacity: 1; stroke: rgb(0,0,0); stroke-width: 3" />
	<polygon points="218.985109814545,-411.253512440607 397.926264221084,-459.14759188055 291.594151110095,-508.743522149696 226.133160231502,-485.180786796751 " style="fill: rgb(14,173,105); fill-opacity: 1; stroke: rgb(0,0,0); stroke-width: 3" />
	<polygon points="165.907158575554,-325.462799407076 188.297074052059,-376.85214211784 128.357994323356,-441.381695797365 72.2167443806298,-415.699722409606 33.5,-303.667831227152 " style="fill: rgb(14,173,105); fill-opacity: 1; stroke: rgb(0,0,0); stroke-width: 3" />
	<polygon points="494.380874478983,-548.973182104601 527.836581634876,-547.282010414635 552.221607233251,-552.675502984452 561.5,-582.637398456509 544.281049888448,-584.666800582996 501.955945541414,-556.274576112623 " style="fill: rgb(14,173,105); fill-opacity: 1; stroke: rgb(0,0,0); stroke-width: 3" />
	<polygon points="217.725692129776,-535.883073799223 203.26036662664,-532.854165587631 194.59620368684,-526.885552967109 173.206706242061,-481.422387961384 182.448671876214,-475.917453097453 " style="fill: rgb(14,173,105); fill-opacity: 1; stroke: rgb(0,0,0); stroke-width: 3" />
	<polygon points="507.819022979553,-289.050516245506 512.511811389732,-276.413701308489 538.807864052177,-280.517186964255 537.007898050307,-305.426610039184 " style="fill: rgb(14,173,105); fill-opacity: 1; stroke: rgb(0,0,0); stroke-width: 3" />
	<polygon points="397.926264221084,-459.14759188055 419.049096045506,-423.23333699951 547.457858979815,-520.167948542857 527.836581634876,-547.282010414635 494.380874478983,-548.973182104601 481.842315983635,-541.149853035424 " style="fill: rgb(14,173,105); fill-opacity: 1; stroke: rgb(0,0,0); stroke-width: 3" />
	<circle cx="165.907158575554" cy="-325.462799407076" r="2" style="fill: rgb(0,0,0)" />
	<circle cx="375.731593004045" cy="-325.462799407076" r="2" style="fill: rgb(0,0,0)" />
	<circle cx="419.049096045506" cy="-423.23333699951" r="2" style="fill: rgb(0,0,0)" />
	<circle cx="397.926264221084" cy="-459.14759188055" r="2" style="fill: rgb(0,0,0)" />
	<circle cx="218.985109814545" cy="-411.253512440607" r="2" style="fill: rgb(0,0,0)" />
	<circle cx="188.297074052059" cy="-376.85214211784" r="2" style="fill: rgb(0,0,0)" />
	<circle cx="167.96510516191" cy="-191.289623489292" r="2" style="fill: rgb(0,0,0)" />
	<circle cx="252.246184595713" cy="-198.064116957548" r="2" style="fill: rgb(0,0,0)" />
	<circle cx="182.448671876214" cy="-475.917453097453" r="2" style="fill: rgb(0,0,0)" />
	<circle cx="173.206706242061" cy="-481.422387961384" r="2" style="fill: rgb(0,0,0)" />
	<circle cx="167.317568008608" cy="-482.212913816704" r="2" style="fill: rgb(0,0,0)" />
	<circle cx="157.486698828475" cy="-459.359580300031" r="2" style="fill: rgb(0,0,0)" />
	<circle cx="446.855129565125" cy="-162.918919403257" r="2" style="fill: rgb(0,0,0)" />
	<circle cx="512.511811389732" cy="-276.413701308489" r="2" style="fill: rgb(0,0,0)" />
	<circle cx="507.819022979553" cy="-289.050516245506" r="2" style="fill: rgb(0,0,0)" />
	<circle cx="291.594151110095" cy="-508.743522149696" r="2" style="fill: rgb(0,0,0)" />
	<circle cx="226.133160231502" cy="-485.180786796751" r="2" style="fill: rgb(0,0,0)" />
	<circle cx="128.357994323356" cy="-441.381695797365" r="2" style="fill: rgb(0,0,0)" />
	<circle cx="72.2167443806298" cy="-415.699722409606" r="2" style="fill: rgb(0,0,0)" />
	<circle cx="33.5" cy="-303.667831227152" r="2" style="fill: rgb(0,0,0)" />
	<circle cx="547.457858979815" cy="-520.167948542857" r="2" style="fill: rgb(0,0,0)" />
	<circle cx="527.836581634876" cy="-547.282010414635" r="2" style="fill: rgb(0,0,0)" />
	<circle cx="494.380874478983" cy="-548.973182104601" r="2" style="fill: rgb(0,0,0)" />
	<circle cx="481.842315983635" cy="-541.149853035424" r="2" style="fill: rgb(0,0,0)" />
	<circle cx="230.418519058862" cy="-90.5438939024944" r="2" style="fill: rgb(0,0,0)" />
	<circle cx="265.089952047884" cy="-53.5" r="2" style="fill: rgb(0,0,0)" />
	<circle cx="295.833561127584" cy="-59.7156458526655" r="2" style="fill: rgb(0,0,0)" />
	<circle cx="311.606066545005" cy="-81.1527411085421" r="2" style="fill: rgb(0,0,0)" />
	<circle cx="191.828735785877" cy="-528.087471149427" r="2" style="fill: rgb(0,0,0)" />
	<circle cx="147.932523102903" cy="-502.19045625485" r="2" style="fill: rgb(0,0,0)" />
	<circle cx="146.053052574986" cy="-500.176837420351" r="2" style="fill: rgb(0,0,0)" />
	<circle cx="128.842966964959" cy="-498.073585359637" r="2" style="fill: rgb(0,0,0)" />
	<circle cx="95.7506498320526" cy="-459.612476590595" r="2" style="fill: rgb(0,0,0)" />
	<circle cx="217.725692129776" cy="-535.883073799223" r="2" style="fill: rgb(0,0,0)" />
	<circle cx="203.26036662664" cy="-532.854165587631" r="2" style="fill: rgb(0,0,0)" />
	<circle cx="194.59620368684" cy="-526.885552967109" r="2" style="fill: rgb(0,0,0)" />
	<circle cx="538.807864052177" cy="-280.517186964255" r="2" style="fill: rgb(0,0,0)" />
	<circle cx="537.007898050307" cy="-305.426610039184" r="2" style="fill: rgb(0,0,0)" />
	<circle cx="552.221607233251" cy="-552.675502984452" r="2" style="fill: rgb(0,0,0)" />
	<circle cx="561.5" cy="-582.637398456509" r="2" style="fill: rgb(0,0,0)" />
	<circle cx="544.281049888448" cy="-584.666800582996" r="2" style="fill: rgb(0,0,0)" />
	<circle cx="501.955945541414" cy="-556.274576112623" r="2" style="fill: rgb(0,0,0)" />
	<!--
	Generated using the Perl SVG Module V2.87
	by Ronan Oger

	-->
</svg>