<?xml version="1.0" encoding="UTF-8" standalone="yes"?>
<!DOCTYPE svg PUBLIC "-//W3C//DTD SVG 1.0//EN" "http://www.w3.org/TR/2001/REC-SVG-20010904/DTD/svg10.dtd">
<!-- generated using polymake; Michael Joswig, Georg Loho, Benjamin Lorenz, Rico Raber; license CC BY-NC-ND 3.0; see polymake.org and matchthenet.de -->
<svg height="841pt" id="document" viewBox="0 -728.815126022967 572 728.815126022967" width="595pt" xmlns="http://www.w3.org/2000/svg" xmlns:svg="http://www.w3.org/2000/svg" xmlns:xlink="http://www.w3.org/1999/xlink">
	<title id="document_title">planar_net_</title>
	<polygon points="217.461958082958,-355.093935349439 339.227352518847,-355.093935349439 321.520989646162,-447.442615489912 217.119062438554,-481.209644473269 174.138772506132,-427.123135789631 " style="fill: rgb(14,173,105); fill-opacity: 1; stroke: rgb(0,0,0); stroke-width: 3" />
	<polygon points="389.049475813641,-317.837602596175 339.227352518847,-355.093935349439 217.461958082958,-355.093935349439 257.85200965902,-244.228616327748 372.410332981435,-222.328220495917 " style="fill: rgb(14,173,105); fill-opacity: 1; stroke: rgb(0,0,0); stroke-width: 3" />
	<polygon points="383.629874710731,-474.549230206393 403.881323860007,-450.412525919891 519.635748565696,-531.14253379966 497.390174557099,-547.543485910108 448.564909229029,-557.229353577974 " style="fill: rgb(14,173,105); fill-opacity: 1; stroke: rgb(0,0,0); stroke-width: 3" />
	<polygon points="111.633070835369,-543.058953027594 122.711303786014,-579.687600015831 113.273360995377,-588.019600692881 86.3991999099829,-586.332602763973 70.8987615868986,-562.853101979176 " style="fill: rgb(14,173,105); fill-opacity: 1; stroke: rgb(0,0,0); stroke-width: 3" />
	<polygon points="497.795153451554,-159.791977256947 450.49178139679,-140.614670195511 464.142406784715,-103.296512192672 534.929549742891,-53.5 561.5,-57.8677991242945 524.775366443216,-153.798238855469 " style="fill: rgb(14,173,105); fill-opacity: 1; stroke: rgb(0,0,0); stroke-width: 3" />
	<polygon points="119.083083826688,-492.996463120908 111.633070835369,-543.058953027594 69.1026239165975,-558.62344362502 33.5,-542.883213268103 33.621173280686,-533.565209268002 " style="fill: rgb(14,173,105); fill-opacity: 1; stroke: rgb(0,0,0); stroke-width: 3" />
	<polygon points="221.844481418285,-140.845810911031 227.584732543346,-113.303115648365 313.360799884461,-124.834746332178 241.012733644934,-174.726185584446 " style="fill: rgb(14,173,105); fill-opacity: 1; stroke: rgb(0,0,0); stroke-width: 3" />
	<polygon points="485.129732786698,-300.348044826425 389.049475813641,-317.837602596175 372.410332981435,-222.328220495917 450.49178139679,-140.614670195511 497.795153451554,-159.791977256947 " style="fill: rgb(14,173,105); fill-opacity: 1; stroke: rgb(0,0,0); stroke-width: 3" />
	<polygon points="122.711303786014,-579.687600015831 212.399131816885,-585.377112672746 164.982085840744,-665.036189951691 123.345777002723,-692.315126022967 115.357897336058,-589.906426415349 " style="fill: rgb(14,173,105); fill-opacity: 1; stroke: rgb(0,0,0); stroke-width: 3" />
	<polygon points="257.85200965902,-244.228616327748 237.182638870449,-183.221493438097 241.012733644934,-174.726185584446 313.360799884461,-124.834746332178 350.757385274572,-111.400465876357 372.410332981435,-222.328220495917 " style="fill: rgb(14,173,105); fill-opacity: 1; stroke: rgb(0,0,0); stroke-width: 3" />
	<polygon points="321.520989646162,-447.442615489912 339.227352518847,-355.093935349439 401.396053271836,-352.785051092915 403.881323860007,-450.412525919891 383.629874710731,-474.549230206393 366.777960636518,-480.625000094732 " style="fill: rgb(14,173,105); fill-opacity: 1; stroke: rgb(0,0,0); stroke-width: 3" />
	<polygon points="174.138772506132,-427.123135789631 217.119062438554,-481.209644473269 223.011798402528,-573.34958103478 212.399131816885,-585.377112672746 122.711303786014,-579.687600015831 111.633070835369,-543.058953027594 119.083083826688,-492.996463120908 " style="fill: rgb(14,173,105); fill-opacity: 1; stroke: rgb(0,0,0); stroke-width: 3" />
	<polygon points="217.461958082958,-355.093935349439 174.138772506132,-427.123135789631 103.835240612936,-377.850044624116 75.630353199975,-287.550290227237 137.195653923552,-268.608123537972 " style="fill: rgb(14,173,105); fill-opacity: 1; stroke: rgb(0,0,0); stroke-width: 3" />
	<polygon points="366.777960636518,-480.625000094732 383.629874710731,-474.549230206393 426.224146715377,-570.665251248806 334.275523197125,-582.471837340324 320.149611090884,-574.872573130738 " style="fill: rgb(14,173,105); fill-opacity: 1; stroke: rgb(0,0,0); stroke-width: 3" />
	<polygon points="217.119062438554,-481.209644473269 321.520989646162,-447.442615489912 359.671991772215,-488.597993122286 276.01995606364,-552.309412242683 " style="fill: rgb(14,173,105); fill-opacity: 1; stroke: rgb(0,0,0); stroke-width: 3" />
	<circle cx="217.461958082958" cy="-355.093935349439" r="2" style="fill: rgb(0,0,0)" />
	<circle cx="339.227352518847" cy="-355.093935349439" r="2" style="fill: rgb(0,0,0)" />
	<circle cx="321.520989646162" cy="-447.442615489912" r="2" style="fill: rgb(0,0,0)" />
	<circle cx="217.119062438554" cy="-481.209644473269" r="2" style="fill: rgb(0,0,0)" />
	<circle cx="174.138772506132" cy="-427.123135789631" r="2" style="fill: rgb(0,0,0)" />
	<circle cx="257.85200965902" cy="-244.228616327748" r="2" style="fill: rgb(0,0,0)" />
	<circle cx="372.410332981435" cy="-222.328220495917" r="2" style="fill: rgb(0,0,0)" />
	<circle cx="389.049475813641" cy="-317.837602596175" r="2" style="fill: rgb(0,0,0)" />
	<circle cx="401.396053271836" cy="-352.785051092915" r="2" style="fill: rgb(0,0,0)" />
	<circle cx="403.881323860007" cy="-450.412525919891" r="2" style="fill: rgb(0,0,0)" />
	<circle cx="383.629874710731" cy="-474.549230206393" r="2" style="fill: rgb(0,0,0)" />
	<circle cx="366.777960636518" cy="-480.625000094732" r="2" style="fill: rgb(0,0,0)" />
	<circle cx="223.011798402528" cy="-573.34958103478" r="2" style="fill: rgb(0,0,0)" />
	<circle cx="212.399131816885" cy="-585.377112672746" r="2" style="fill: rgb(0,0,0)" />
	<circle cx="122.711303786014" cy="-579.687600015831" r="2" style="fill: rgb(0,0,0)" />
	<circle cx="111.633070835369" cy="-543.058953027594" r="2" style="fill: rgb(0,0,0)" />
	<circle cx="119.083083826688" cy="-492.996463120908" r="2" style="fill: rgb(0,0,0)" />
	<circle cx="103.835240612936" cy="-377.850044624116" r="2" style="fill: rgb(0,0,0)" />
	<circle cx="75.630353199975" cy="-287.550290227237" r="2" style="fill: rgb(0,0,0)" />
	<circle cx="137.195653923552" cy="-268.608123537972" r="2" style="fill: rgb(0,0,0)" />
	<circle cx="359.671991772215" cy="-488.597993122286" r="2" style="fill: rgb(0,0,0)" />
	<circle cx="276.01995606364" cy="-552.309412242683" r="2" style="fill: rgb(0,0,0)" />
	<circle cx="450.49178139679" cy="-140.614670195511" r="2" style="fill: rgb(0,0,0)" />
	<circle cx="497.795153451554" cy="-159.791977256947" r="2" style="fill: rgb(0,0,0)" />
	<circle cx="485.129732786698" cy="-300.348044826425" r="2" style="fill: rgb(0,0,0)" />
	<circle cx="237.182638870449" cy="-183.221493438097" r="2" style="fill: rgb(0,0,0)" />
	<circle cx="241.012733644934" cy="-174.726185584446" r="2" style="fill: rgb(0,0,0)" />
	<circle cx="313.360799884461" cy="-124.834746332178" r="2" style="fill: rgb(0,0,0)" />
	<circle cx="350.757385274572" cy="-111.400465876357" r="2" style="fill: rgb(0,0,0)" />
	<circle cx="519.635748565696" cy="-531.14253379966" r="2" style="fill: rgb(0,0,0)" />
	<circle cx="497.390174557099" cy="-547.543485910108" r="2" style="fill: rgb(0,0,0)" />
	<circle cx="448.564909229029" cy="-557.229353577974" r="2" style="fill: rgb(0,0,0)" />
	<circle cx="426.224146715377" cy="-570.665251248806" r="2" style="fill: rgb(0,0,0)" />
	<circle cx="334.275523197125" cy="-582.471837340324" r="2" style="fill: rgb(0,0,0)" />
	<circle cx="320.149611090884" cy="-574.872573130738" r="2" style="fill: rgb(0,0,0)" />
	<circle cx="113.273360995377" cy="-588.019600692881" r="2" style="fill: rgb(0,0,0)" />
	<circle cx="86.3991999099829" cy="-586.332602763973" r="2" style="fill: rgb(0,0,0)" />
	<circle cx="70.8987615868986" cy="-562.853101979176" r="2" style="fill: rgb(0,0,0)" />
	<circle cx="69.1026239165975" cy="-558.62344362502" r="2" style="fill: rgb(0,0,0)" />
	<circle cx="33.5" cy="-542.883213268103" r="2" style="fill: rgb(0,0,0)" />
	<circle cx="33.621173280686" cy="-533.565209268002" r="2" style="fill: rgb(0,0,0)" />
	<circle cx="164.982085840744" cy="-665.036189951691" r="2" style="fill: rgb(0,0,0)" />
	<circle cx="123.345777002723" cy="-692.315126022967" r="2" style="fill: rgb(0,0,0)" />
	<circle cx="115.357897336058" cy="-589.906426415349" r="2" style="fill: rgb(0,0,0)" />
	<circle cx="464.142406784715" cy="-103.296512192672" r="2" style="fill: rgb(0,0,0)" />
	<circle cx="534.929549742891" cy="-53.5" r="2" style="fill: rgb(0,0,0)" />
	<circle cx="561.5" cy="-57.8677991242945" r="2" style="fill: rgb(0,0,0)" />
	<circle cx="524.775366443216" cy="-153.798238855469" r="2" style="fill: rgb(0,0,0)" />
	<circle cx="221.844481418285" cy="-140.845810911031" r="2" style="fill: rgb(0,0,0)" />
	<circle cx="227.584732543346" cy="-113.303115648365" r="2" style="fill: rgb(0,0,0)" />
	<!--
	Generated using the Perl SVG Module V2.87
	by Ronan Oger

	-->
</svg>