<?xml version="1.0" encoding="UTF-8" standalone="yes"?>
<!DOCTYPE svg PUBLIC "-//W3C//DTD SVG 1.0//EN" "http://www.w3.org/TR/2001/REC-SVG-20010904/DTD/svg10.dtd">
<!-- generated using polymake; Michael Joswig, Georg Loho, Benjamin Lorenz, Rico Raber; license CC BY-NC-ND 3.0; see polymake.org and matchthenet.de -->
<svg height="841pt" id="document" viewBox="0 -771.330739339706 572 771.330739339706" width="595pt" xmlns="http://www.w3.org/2000/svg" xmlns:svg="http://www.w3.org/2000/svg" xmlns:xlink="http://www.w3.org/1999/xlink">
	<title id="document_title">planar_net_</title>
	<polygon points="185.647032401631,-346.311697698815 233.54911775527,-346.311697698815 258.459441035695,-382.979810816726 174.885353893304,-467.037454702622 " style="fill: rgb(67,184,206); fill-opacity: 1; stroke: rgb(0,0,0); stroke-width: 3" />
	<polygon points="158.491551876143,-511.703527674672 183.766307335057,-521.999268691015 190.01544033502,-673.509781998842 78.2169619543375,-734.830739339706 68.8022004179118,-720.091155493558 " style="fill: rgb(255,210,63); fill-opacity: 1; stroke: rgb(0,0,0); stroke-width: 3" />
	<polygon points="227.972695271404,-521.858393604982 372.236210449265,-422.341772950544 379.097198973597,-532.695101449693 353.706268226007,-562.342932219104 350.682942270228,-563.955865848208 " style="fill: rgb(255,210,63); fill-opacity: 1; stroke: rgb(0,0,0); stroke-width: 3" />
	<polygon points="259.848081691414,-272.061450750825 255.719383402349,-276.052209070131 82.0993588443713,-217.820546257481 142.97594990612,-190.896852887527 168.24203446016,-186.981411381261 " style="fill: rgb(255,210,63); fill-opacity: 1; stroke: rgb(0,0,0); stroke-width: 3" />
	<polygon points="372.236210449265,-422.341772950544 372.851568136935,-399.201610242575 433.886021305889,-362.371219289672 525.840802923117,-428.368488961706 467.261232130312,-478.867656657805 " style="fill: rgb(255,210,63); fill-opacity: 1; stroke: rgb(0,0,0); stroke-width: 3" />
	<polygon points="247.636420902487,-303.068311255393 233.54911775527,-346.311697698815 185.647032401631,-346.311697698815 167.611174667518,-317.277717410547 251.733349819178,-282.405321310259 " style="fill: rgb(255,210,63); fill-opacity: 1; stroke: rgb(0,0,0); stroke-width: 3" />
	<polygon points="167.611174667518,-317.277717410547 64.0014369114331,-241.239849959755 68.7368148890448,-224.403304525656 82.0993588443713,-217.820546257481 255.719383402349,-276.052209070131 251.733349819178,-282.405321310259 " style="fill: rgb(238,66,102); fill-opacity: 1; stroke: rgb(0,0,0); stroke-width: 3" />
	<polygon points="95.0686409766288,-53.6928322008495 98.4898791251795,-53.5 123.91207399281,-166.027289400108 82.0993588443713,-217.820546257481 68.7368148890448,-224.403304525656 65.8176370298466,-96.9253143545618 " style="fill: rgb(238,66,102); fill-opacity: 1; stroke: rgb(0,0,0); stroke-width: 3" />
	<polygon points="174.885353893304,-467.037454702622 258.459441035695,-382.979810816726 278.279528401436,-383.798839631754 372.851568136935,-399.201610242575 372.236210449265,-422.341772950544 227.972695271404,-521.858393604982 183.766307335057,-521.999268691015 158.491551876143,-511.703527674672 " style="fill: rgb(136,136,136); fill-opacity: 1; stroke: rgb(0,0,0); stroke-width: 3" />
	<polygon points="183.766307335057,-521.999268691015 227.972695271404,-521.858393604982 307.603870229753,-624.273616411656 262.957574194158,-651.31759902088 " style="fill: rgb(67,184,206); fill-opacity: 1; stroke: rgb(0,0,0); stroke-width: 3" />
	<polygon points="379.097198973597,-532.695101449693 441.249904120899,-578.725236091489 442.399784052128,-614.592043700755 439.070539260365,-639.942030682952 353.706268226007,-562.342932219104 " style="fill: rgb(255,210,63); fill-opacity: 1; stroke: rgb(0,0,0); stroke-width: 3" />
	<polygon points="278.279528401436,-383.798839631754 286.51540610106,-310.469119911933 301.865213042778,-296.04249844767 309.202845543603,-294.490194307145 314.426414072956,-296.87486060338 359.540216537346,-329.169545515271 372.851568136935,-399.201610242575 " style="fill: rgb(84,13,110); fill-opacity: 1; stroke: rgb(0,0,0); stroke-width: 3" />
	<polygon points="185.647032401631,-346.311697698815 174.885353893304,-467.037454702622 146.171000994976,-504.9755721698 33.5,-308.062320386755 161.214058861409,-322.409940868665 " style="fill: rgb(255,210,63); fill-opacity: 1; stroke: rgb(0,0,0); stroke-width: 3" />
	<polygon points="433.886021305889,-362.371219289672 479.146446049846,-330.2823458543 561.5,-424.347074314204 525.840802923117,-428.368488961706 " style="fill: rgb(67,184,206); fill-opacity: 1; stroke: rgb(0,0,0); stroke-width: 3" />
	<polygon points="258.459441035695,-382.979810816726 233.54911775527,-346.311697698815 255.288085367767,-306.363482867615 277.306837322375,-376.792539641304 " style="fill: rgb(67,184,206); fill-opacity: 1; stroke: rgb(0,0,0); stroke-width: 3" />
	<circle cx="185.647032401631" cy="-346.311697698815" r="2" style="fill: rgb(0,0,0)" />
	<circle cx="233.54911775527" cy="-346.311697698815" r="2" style="fill: rgb(0,0,0)" />
	<circle cx="258.459441035695" cy="-382.979810816726" r="2" style="fill: rgb(0,0,0)" />
	<circle cx="174.885353893304" cy="-467.037454702622" r="2" style="fill: rgb(0,0,0)" />
	<circle cx="167.611174667518" cy="-317.277717410547" r="2" style="fill: rgb(0,0,0)" />
	<circle cx="251.733349819178" cy="-282.405321310259" r="2" style="fill: rgb(0,0,0)" />
	<circle cx="247.636420902487" cy="-303.068311255393" r="2" style="fill: rgb(0,0,0)" />
	<circle cx="278.279528401436" cy="-383.798839631754" r="2" style="fill: rgb(0,0,0)" />
	<circle cx="372.851568136935" cy="-399.201610242575" r="2" style="fill: rgb(0,0,0)" />
	<circle cx="372.236210449265" cy="-422.341772950544" r="2" style="fill: rgb(0,0,0)" />
	<circle cx="227.972695271404" cy="-521.858393604982" r="2" style="fill: rgb(0,0,0)" />
	<circle cx="183.766307335057" cy="-521.999268691015" r="2" style="fill: rgb(0,0,0)" />
	<circle cx="158.491551876143" cy="-511.703527674672" r="2" style="fill: rgb(0,0,0)" />
	<circle cx="146.171000994976" cy="-504.9755721698" r="2" style="fill: rgb(0,0,0)" />
	<circle cx="33.5" cy="-308.062320386755" r="2" style="fill: rgb(0,0,0)" />
	<circle cx="161.214058861409" cy="-322.409940868665" r="2" style="fill: rgb(0,0,0)" />
	<circle cx="255.288085367767" cy="-306.363482867615" r="2" style="fill: rgb(0,0,0)" />
	<circle cx="277.306837322375" cy="-376.792539641304" r="2" style="fill: rgb(0,0,0)" />
	<circle cx="64.0014369114331" cy="-241.239849959755" r="2" style="fill: rgb(0,0,0)" />
	<circle cx="68.7368148890448" cy="-224.403304525656" r="2" style="fill: rgb(0,0,0)" />
	<circle cx="82.0993588443713" cy="-217.820546257481" r="2" style="fill: rgb(0,0,0)" />
	<circle cx="255.719383402349" cy="-276.052209070131" r="2" style="fill: rgb(0,0,0)" />
	<circle cx="190.01544033502" cy="-673.509781998842" r="2" style="fill: rgb(0,0,0)" />
	<circle cx="78.2169619543375" cy="-734.830739339706" r="2" style="fill: rgb(0,0,0)" />
	<circle cx="68.8022004179118" cy="-720.091155493558" r="2" style="fill: rgb(0,0,0)" />
	<circle cx="379.097198973597" cy="-532.695101449693" r="2" style="fill: rgb(0,0,0)" />
	<circle cx="353.706268226007" cy="-562.342932219104" r="2" style="fill: rgb(0,0,0)" />
	<circle cx="350.682942270228" cy="-563.955865848208" r="2" style="fill: rgb(0,0,0)" />
	<circle cx="433.886021305889" cy="-362.371219289672" r="2" style="fill: rgb(0,0,0)" />
	<circle cx="525.840802923117" cy="-428.368488961706" r="2" style="fill: rgb(0,0,0)" />
	<circle cx="467.261232130312" cy="-478.867656657805" r="2" style="fill: rgb(0,0,0)" />
	<circle cx="307.603870229753" cy="-624.273616411656" r="2" style="fill: rgb(0,0,0)" />
	<circle cx="262.957574194158" cy="-651.31759902088" r="2" style="fill: rgb(0,0,0)" />
	<circle cx="286.51540610106" cy="-310.469119911933" r="2" style="fill: rgb(0,0,0)" />
	<circle cx="301.865213042778" cy="-296.04249844767" r="2" style="fill: rgb(0,0,0)" />
	<circle cx="309.202845543603" cy="-294.490194307145" r="2" style="fill: rgb(0,0,0)" />
	<circle cx="314.426414072956" cy="-296.87486060338" r="2" style="fill: rgb(0,0,0)" />
	<circle cx="359.540216537346" cy="-329.169545515271" r="2" style="fill: rgb(0,0,0)" />
	<circle cx="142.97594990612" cy="-190.896852887527" r="2" style="fill: rgb(0,0,0)" />
	<circle cx="168.24203446016" cy="-186.981411381261" r="2" style="fill: rgb(0,0,0)" />
	<circle cx="259.848081691414" cy="-272.061450750825" r="2" style="fill: rgb(0,0,0)" />
	<circle cx="65.8176370298466" cy="-96.9253143545618" r="2" style="fill: rgb(0,0,0)" />
	<circle cx="95.0686409766288" cy="-53.6928322008495" r="2" style="fill: rgb(0,0,0)" />
	<circle cx="98.4898791251795" cy="-53.5" r="2" style="fill: rgb(0,0,0)" />
	<circle cx="123.91207399281" cy="-166.027289400108" r="2" style="fill: rgb(0,0,0)" />
	<circle cx="441.249904120899" cy="-578.725236091489" r="2" style="fill: rgb(0,0,0)" />
	<circle cx="442.399784052128" cy="-614.592043700755" r="2" style="fill: rgb(0,0,0)" />
	<circle cx="439.070539260365" cy="-639.942030682952" r="2" style="fill: rgb(0,0,0)" />
	<circle cx="479.146446049846" cy="-330.2823458543" r="2" style="fill: rgb(0,0,0)" />
	<circle cx="561.5" cy="-424.347074314204" r="2" style="fill: rgb(0,0,0)" />
	<!--
	Generated using the Perl SVG Module V2.86
	by Ronan Oger
	Info: http://www.roitsystems.com/
	-->
</svg>