<?xml version="1.0" encoding="UTF-8" standalone="yes"?>
<!DOCTYPE svg PUBLIC "-//W3C//DTD SVG 1.0//EN" "http://www.w3.org/TR/2001/REC-SVG-20010904/DTD/svg10.dtd">
<!-- generated using polymake; Michael Joswig, Georg Loho, Benjamin Lorenz, Rico Raber; license CC BY-NC-ND 3.0; see polymake.org and matchthenet.de -->
<svg height="841pt" id="document" viewBox="0 -805.407529415162 572 805.407529415162" width="595pt" xmlns="http://www.w3.org/2000/svg" xmlns:svg="http://www.w3.org/2000/svg" xmlns:xlink="http://www.w3.org/1999/xlink">
	<title id="document_title">planar_net_</title>
	<polygon points="202.242195271598,-405.059298027506 528.930086731398,-405.059298027506 222.940245034383,-583.18033241677 175.94828821679,-551.153035603672 " style="fill: rgb(14,173,105); fill-opacity: 1; stroke: rgb(0,0,0); stroke-width: 3" />
	<polygon points="449.898680520461,-53.5 556.042028699504,-378.720524128767 401.137891017383,-253.593833238587 383.018370440772,-63.0653882759841 " style="fill: rgb(14,173,105); fill-opacity: 1; stroke: rgb(0,0,0); stroke-width: 3" />
	<polygon points="556.042028699504,-378.720524128767 528.930086731398,-405.059298027506 202.242195271598,-405.059298027506 172.595738267275,-332.290358227964 248.81115979516,-227.6293025278 328.907020205312,-210.020228475837 401.137891017383,-253.593833238587 " style="fill: rgb(14,173,105); fill-opacity: 1; stroke: rgb(0,0,0); stroke-width: 3" />
	<polygon points="134.809353809282,-558.166463822728 84.5076638067429,-569.544218305508 53.0421929823781,-493.830628004327 106.157020763047,-443.607699304288 " style="fill: rgb(14,173,105); fill-opacity: 1; stroke: rgb(0,0,0); stroke-width: 3" />
	<polygon points="202.242195271598,-405.059298027506 175.94828821679,-551.153035603672 134.809353809282,-558.166463822728 106.157020763047,-443.607699304288 125.922127410594,-423.753635516451 " style="fill: rgb(14,173,105); fill-opacity: 1; stroke: rgb(0,0,0); stroke-width: 3" />
	<polygon points="328.907020205312,-210.020228475837 248.81115979516,-227.6293025278 166.508987028941,-191.610227170697 192.896671556235,-144.921677191304 227.325082850669,-122.124805356172 " style="fill: rgb(14,173,105); fill-opacity: 1; stroke: rgb(0,0,0); stroke-width: 3" />
	<polygon points="175.94828821679,-551.153035603672 222.940245034383,-583.18033241677 223.126451410318,-678.05677995896 170.518047924697,-683.240088097568 139.553930192196,-660.130891345327 116.491923937748,-622.887021263963 147.451042558461,-581.640854309801 " style="fill: rgb(14,173,105); fill-opacity: 1; stroke: rgb(0,0,0); stroke-width: 3" />
	<polygon points="172.595738267275,-332.290358227964 159.435505466677,-307.558767856246 130.790851445073,-240.305431185402 160.562283977279,-210.802022637664 248.81115979516,-227.6293025278 " style="fill: rgb(14,173,105); fill-opacity: 1; stroke: rgb(0,0,0); stroke-width: 3" />
	<polygon points="139.553930192196,-660.130891345327 170.518047924697,-683.240088097568 124.417404316044,-756.006872772747 111.968255169017,-761.105038285931 85.6592293070092,-729.27976487125 " style="fill: rgb(14,173,105); fill-opacity: 1; stroke: rgb(0,0,0); stroke-width: 3" />
	<polygon points="116.491923937748,-622.887021263963 139.553930192196,-660.130891345327 71.1663965020938,-714.988440772812 33.5,-676.812883560926 35.3912887306205,-634.941505056129 " style="fill: rgb(14,173,105); fill-opacity: 1; stroke: rgb(0,0,0); stroke-width: 3" />
	<polygon points="223.126451410318,-678.05677995896 254.564470912716,-717.462841538508 200.335177458761,-757.757459798321 161.497859945026,-768.907529415162 170.518047924697,-683.240088097568 " style="fill: rgb(14,173,105); fill-opacity: 1; stroke: rgb(0,0,0); stroke-width: 3" />
	<polygon points="401.137891017383,-253.593833238587 328.907020205312,-210.020228475837 300.454583842424,-78.738263731536 310.074768169819,-69.3348250205324 350.479834966383,-69.0317387475622 " style="fill: rgb(14,173,105); fill-opacity: 1; stroke: rgb(0,0,0); stroke-width: 3" />
	<polygon points="222.940245034383,-583.18033241677 528.930086731398,-405.059298027506 561.5,-424.242341515107 312.578768737089,-658.918757679461 263.205176442582,-669.089064625618 " style="fill: rgb(14,173,105); fill-opacity: 1; stroke: rgb(0,0,0); stroke-width: 3" />
	<circle cx="202.242195271598" cy="-405.059298027506" r="2" style="fill: rgb(0,0,0)" />
	<circle cx="528.930086731398" cy="-405.059298027506" r="2" style="fill: rgb(0,0,0)" />
	<circle cx="222.940245034383" cy="-583.18033241677" r="2" style="fill: rgb(0,0,0)" />
	<circle cx="175.94828821679" cy="-551.153035603672" r="2" style="fill: rgb(0,0,0)" />
	<circle cx="172.595738267275" cy="-332.290358227964" r="2" style="fill: rgb(0,0,0)" />
	<circle cx="248.81115979516" cy="-227.6293025278" r="2" style="fill: rgb(0,0,0)" />
	<circle cx="328.907020205312" cy="-210.020228475837" r="2" style="fill: rgb(0,0,0)" />
	<circle cx="401.137891017383" cy="-253.593833238587" r="2" style="fill: rgb(0,0,0)" />
	<circle cx="556.042028699504" cy="-378.720524128767" r="2" style="fill: rgb(0,0,0)" />
	<circle cx="134.809353809282" cy="-558.166463822728" r="2" style="fill: rgb(0,0,0)" />
	<circle cx="106.157020763047" cy="-443.607699304288" r="2" style="fill: rgb(0,0,0)" />
	<circle cx="125.922127410594" cy="-423.753635516451" r="2" style="fill: rgb(0,0,0)" />
	<circle cx="223.126451410318" cy="-678.05677995896" r="2" style="fill: rgb(0,0,0)" />
	<circle cx="170.518047924697" cy="-683.240088097568" r="2" style="fill: rgb(0,0,0)" />
	<circle cx="139.553930192196" cy="-660.130891345327" r="2" style="fill: rgb(0,0,0)" />
	<circle cx="116.491923937748" cy="-622.887021263963" r="2" style="fill: rgb(0,0,0)" />
	<circle cx="147.451042558461" cy="-581.640854309801" r="2" style="fill: rgb(0,0,0)" />
	<circle cx="561.5" cy="-424.242341515107" r="2" style="fill: rgb(0,0,0)" />
	<circle cx="312.578768737089" cy="-658.918757679461" r="2" style="fill: rgb(0,0,0)" />
	<circle cx="263.205176442582" cy="-669.089064625618" r="2" style="fill: rgb(0,0,0)" />
	<circle cx="383.018370440772" cy="-63.0653882759841" r="2" style="fill: rgb(0,0,0)" />
	<circle cx="449.898680520461" cy="-53.5" r="2" style="fill: rgb(0,0,0)" />
	<circle cx="166.508987028941" cy="-191.610227170697" r="2" style="fill: rgb(0,0,0)" />
	<circle cx="192.896671556235" cy="-144.921677191304" r="2" style="fill: rgb(0,0,0)" />
	<circle cx="227.325082850669" cy="-122.124805356172" r="2" style="fill: rgb(0,0,0)" />
	<circle cx="159.435505466677" cy="-307.558767856246" r="2" style="fill: rgb(0,0,0)" />
	<circle cx="130.790851445073" cy="-240.305431185402" r="2" style="fill: rgb(0,0,0)" />
	<circle cx="160.562283977279" cy="-210.802022637664" r="2" style="fill: rgb(0,0,0)" />
	<circle cx="300.454583842424" cy="-78.738263731536" r="2" style="fill: rgb(0,0,0)" />
	<circle cx="310.074768169819" cy="-69.3348250205324" r="2" style="fill: rgb(0,0,0)" />
	<circle cx="350.479834966383" cy="-69.0317387475622" r="2" style="fill: rgb(0,0,0)" />
	<circle cx="84.5076638067429" cy="-569.544218305508" r="2" style="fill: rgb(0,0,0)" />
	<circle cx="53.0421929823781" cy="-493.830628004327" r="2" style="fill: rgb(0,0,0)" />
	<circle cx="124.417404316044" cy="-756.006872772747" r="2" style="fill: rgb(0,0,0)" />
	<circle cx="111.968255169017" cy="-761.105038285931" r="2" style="fill: rgb(0,0,0)" />
	<circle cx="85.6592293070092" cy="-729.27976487125" r="2" style="fill: rgb(0,0,0)" />
	<circle cx="71.1663965020938" cy="-714.988440772812" r="2" style="fill: rgb(0,0,0)" />
	<circle cx="33.5" cy="-676.812883560926" r="2" style="fill: rgb(0,0,0)" />
	<circle cx="35.3912887306205" cy="-634.941505056129" r="2" style="fill: rgb(0,0,0)" />
	<circle cx="254.564470912716" cy="-717.462841538508" r="2" style="fill: rgb(0,0,0)" />
	<circle cx="200.335177458761" cy="-757.757459798321" r="2" style="fill: rgb(0,0,0)" />
	<circle cx="161.497859945026" cy="-768.907529415162" r="2" style="fill: rgb(0,0,0)" />
	<!--
	Generated using the Perl SVG Module V2.87
	by Ronan Oger

	-->
</svg>