<?xml version="1.0" encoding="UTF-8" standalone="yes"?>
<!DOCTYPE svg PUBLIC "-//W3C//DTD SVG 1.0//EN" "http://www.w3.org/TR/2001/REC-SVG-20010904/DTD/svg10.dtd">
<!-- generated using polymake; Michael Joswig, Georg Loho, Benjamin Lorenz, Rico Raber; license CC BY-NC-ND 3.0; see polymake.org and matchthenet.de -->
<svg height="841pt" id="document" viewBox="0 -452.191758049564 572 452.191758049564" width="595pt" xmlns="http://www.w3.org/2000/svg" xmlns:svg="http://www.w3.org/2000/svg" xmlns:xlink="http://www.w3.org/1999/xlink">
	<title id="document_title">planar_net_</title>
	<polygon points="260.376598611187,-255.565247161908 314.420993335116,-255.565247161908 263.440658776319,-295.226129845805 " style="fill: rgb(14,173,105); fill-opacity: 1; stroke: rgb(0,0,0); stroke-width: 3" />
	<polygon points="191.895121416859,-186.503542437694 142.854297164775,-212.439231093501 117.134157646501,-98.7807244825301 192.684739311944,-53.5 " style="fill: rgb(14,173,105); fill-opacity: 1; stroke: rgb(0,0,0); stroke-width: 3" />
	<polygon points="465.534899547408,-250.167847228756 454.258919782353,-135.336724613656 486.820792839069,-141.986396993962 561.5,-188.690255693894 520.843035252604,-255.964121284234 487.604425757423,-277.862807281895 " style="fill: rgb(14,173,105); fill-opacity: 1; stroke: rgb(0,0,0); stroke-width: 3" />
	<polygon points="218.749509322762,-181.476395043785 194.935272773625,-174.795663872894 279.014549764251,-71.7362587798869 311.393907012303,-79.2243121938283 351.721525848313,-136.920671220572 " style="fill: rgb(14,173,105); fill-opacity: 1; stroke: rgb(0,0,0); stroke-width: 3" />
	<polygon points="340.443016195275,-344.722214815577 344.924921587901,-345.090147083528 374.923438424473,-368.212194893338 378.213475464909,-407.879981141999 298.350132414047,-415.691758049564 313.544769466618,-362.190409195601 " style="fill: rgb(14,173,105); fill-opacity: 1; stroke: rgb(0,0,0); stroke-width: 3" />
	<polygon points="357.49562317613,-206.709326007537 245.283165205749,-214.042637668967 218.749509322762,-181.476395043785 351.721525848313,-136.920671220572 " style="fill: rgb(14,173,105); fill-opacity: 1; stroke: rgb(0,0,0); stroke-width: 3" />
	<polygon points="155.948868764603,-237.357682119203 146.106631636485,-292.684593637259 71.269378592275,-321.642545541833 33.5,-252.706083385085 142.854297164775,-212.439231093501 " style="fill: rgb(14,173,105); fill-opacity: 1; stroke: rgb(0,0,0); stroke-width: 3" />
	<polygon points="357.213582340211,-211.01626441604 357.49562317613,-206.709326007537 384.178598854023,-141.96509579434 454.258919782353,-135.336724613656 465.534899547408,-250.167847228756 417.819983470896,-252.823960075594 " style="fill: rgb(14,173,105); fill-opacity: 1; stroke: rgb(0,0,0); stroke-width: 3" />
	<polygon points="454.949446867233,-305.65577242124 417.819983470896,-252.823960075594 465.534899547408,-250.167847228756 483.452465995989,-280.713478864729 " style="fill: rgb(14,173,105); fill-opacity: 1; stroke: rgb(0,0,0); stroke-width: 3" />
	<polygon points="315.13853775903,-255.516799812816 314.420993335116,-255.565247161908 260.376598611187,-255.565247161908 255.126588051048,-254.148861537904 245.283165205749,-214.042637668967 357.49562317613,-206.709326007537 357.213582340211,-211.01626441604 " style="fill: rgb(14,173,105); fill-opacity: 1; stroke: rgb(0,0,0); stroke-width: 3" />
	<polygon points="259.703651424503,-313.929800224246 314.416678814737,-257.232102818921 286.360970889984,-343.692495723658 257.926500628343,-328.85556905694 " style="fill: rgb(14,173,105); fill-opacity: 1; stroke: rgb(0,0,0); stroke-width: 3" />
	<polygon points="259.525073582265,-313.796411178457 259.532206064506,-313.895347799456 256.671557022572,-328.65182187892 202.552804606373,-315.828719240798 157.664215650385,-282.021155717903 236.526676083632,-263.466357648895 " style="fill: rgb(14,173,105); fill-opacity: 1; stroke: rgb(0,0,0); stroke-width: 3" />
	<polygon points="263.440658776319,-295.226129845805 314.420993335116,-255.565247161908 315.139729746633,-255.540045640444 314.416678814737,-257.232102818921 259.703651424503,-313.929800224246 259.693498781325,-313.831127780707 " style="fill: rgb(14,173,105); fill-opacity: 1; stroke: rgb(0,0,0); stroke-width: 3" />
	<polygon points="315.425125320196,-257.334415755503 315.13853775903,-255.516799812816 357.213582340211,-211.01626441604 366.140144065248,-284.100707152821 344.924921587901,-345.090147083528 340.443016195275,-344.722214815577 " style="fill: rgb(14,173,105); fill-opacity: 1; stroke: rgb(0,0,0); stroke-width: 3" />
	<polygon points="255.126588051048,-254.148861537904 234.803651892204,-255.945080400507 155.948868764603,-237.357682119203 142.854297164775,-212.439231093501 191.895121416859,-186.503542437694 216.445404144102,-183.497939435231 245.283165205749,-214.042637668967 " style="fill: rgb(14,173,105); fill-opacity: 1; stroke: rgb(0,0,0); stroke-width: 3" />
	<polygon points="260.376598611187,-255.565247161908 263.440658776319,-295.226129845805 259.525073582265,-313.796411178457 236.526676083632,-263.466357648895 254.993864876869,-254.793925787317 " style="fill: rgb(14,173,105); fill-opacity: 1; stroke: rgb(0,0,0); stroke-width: 3" />
	<circle cx="260.376598611187" cy="-255.565247161908" r="2" style="fill: rgb(0,0,0)" />
	<circle cx="314.420993335116" cy="-255.565247161908" r="2" style="fill: rgb(0,0,0)" />
	<circle cx="263.440658776319" cy="-295.226129845805" r="2" style="fill: rgb(0,0,0)" />
	<circle cx="255.126588051048" cy="-254.148861537904" r="2" style="fill: rgb(0,0,0)" />
	<circle cx="245.283165205749" cy="-214.042637668967" r="2" style="fill: rgb(0,0,0)" />
	<circle cx="357.49562317613" cy="-206.709326007537" r="2" style="fill: rgb(0,0,0)" />
	<circle cx="357.213582340211" cy="-211.01626441604" r="2" style="fill: rgb(0,0,0)" />
	<circle cx="315.13853775903" cy="-255.516799812816" r="2" style="fill: rgb(0,0,0)" />
	<circle cx="315.139729746633" cy="-255.540045640444" r="2" style="fill: rgb(0,0,0)" />
	<circle cx="314.416678814737" cy="-257.232102818921" r="2" style="fill: rgb(0,0,0)" />
	<circle cx="259.703651424503" cy="-313.929800224246" r="2" style="fill: rgb(0,0,0)" />
	<circle cx="259.693498781325" cy="-313.831127780707" r="2" style="fill: rgb(0,0,0)" />
	<circle cx="259.525073582265" cy="-313.796411178457" r="2" style="fill: rgb(0,0,0)" />
	<circle cx="236.526676083632" cy="-263.466357648895" r="2" style="fill: rgb(0,0,0)" />
	<circle cx="254.993864876869" cy="-254.793925787317" r="2" style="fill: rgb(0,0,0)" />
	<circle cx="218.749509322762" cy="-181.476395043785" r="2" style="fill: rgb(0,0,0)" />
	<circle cx="351.721525848313" cy="-136.920671220572" r="2" style="fill: rgb(0,0,0)" />
	<circle cx="384.178598854023" cy="-141.96509579434" r="2" style="fill: rgb(0,0,0)" />
	<circle cx="454.258919782353" cy="-135.336724613656" r="2" style="fill: rgb(0,0,0)" />
	<circle cx="465.534899547408" cy="-250.167847228756" r="2" style="fill: rgb(0,0,0)" />
	<circle cx="417.819983470896" cy="-252.823960075594" r="2" style="fill: rgb(0,0,0)" />
	<circle cx="366.140144065248" cy="-284.100707152821" r="2" style="fill: rgb(0,0,0)" />
	<circle cx="344.924921587901" cy="-345.090147083528" r="2" style="fill: rgb(0,0,0)" />
	<circle cx="340.443016195275" cy="-344.722214815577" r="2" style="fill: rgb(0,0,0)" />
	<circle cx="315.425125320196" cy="-257.334415755503" r="2" style="fill: rgb(0,0,0)" />
	<circle cx="234.803651892204" cy="-255.945080400507" r="2" style="fill: rgb(0,0,0)" />
	<circle cx="155.948868764603" cy="-237.357682119203" r="2" style="fill: rgb(0,0,0)" />
	<circle cx="142.854297164775" cy="-212.439231093501" r="2" style="fill: rgb(0,0,0)" />
	<circle cx="191.895121416859" cy="-186.503542437694" r="2" style="fill: rgb(0,0,0)" />
	<circle cx="216.445404144102" cy="-183.497939435231" r="2" style="fill: rgb(0,0,0)" />
	<circle cx="286.360970889984" cy="-343.692495723658" r="2" style="fill: rgb(0,0,0)" />
	<circle cx="257.926500628343" cy="-328.85556905694" r="2" style="fill: rgb(0,0,0)" />
	<circle cx="259.532206064506" cy="-313.895347799456" r="2" style="fill: rgb(0,0,0)" />
	<circle cx="256.671557022572" cy="-328.65182187892" r="2" style="fill: rgb(0,0,0)" />
	<circle cx="202.552804606373" cy="-315.828719240798" r="2" style="fill: rgb(0,0,0)" />
	<circle cx="157.664215650385" cy="-282.021155717903" r="2" style="fill: rgb(0,0,0)" />
	<circle cx="194.935272773625" cy="-174.795663872894" r="2" style="fill: rgb(0,0,0)" />
	<circle cx="279.014549764251" cy="-71.7362587798869" r="2" style="fill: rgb(0,0,0)" />
	<circle cx="311.393907012303" cy="-79.2243121938283" r="2" style="fill: rgb(0,0,0)" />
	<circle cx="486.820792839069" cy="-141.986396993962" r="2" style="fill: rgb(0,0,0)" />
	<circle cx="561.5" cy="-188.690255693894" r="2" style="fill: rgb(0,0,0)" />
	<circle cx="520.843035252604" cy="-255.964121284234" r="2" style="fill: rgb(0,0,0)" />
	<circle cx="487.604425757423" cy="-277.862807281895" r="2" style="fill: rgb(0,0,0)" />
	<circle cx="483.452465995989" cy="-280.713478864729" r="2" style="fill: rgb(0,0,0)" />
	<circle cx="454.949446867233" cy="-305.65577242124" r="2" style="fill: rgb(0,0,0)" />
	<circle cx="374.923438424473" cy="-368.212194893338" r="2" style="fill: rgb(0,0,0)" />
	<circle cx="378.213475464909" cy="-407.879981141999" r="2" style="fill: rgb(0,0,0)" />
	<circle cx="298.350132414047" cy="-415.691758049564" r="2" style="fill: rgb(0,0,0)" />
	<circle cx="313.544769466618" cy="-362.190409195601" r="2" style="fill: rgb(0,0,0)" />
	<circle cx="117.134157646501" cy="-98.7807244825301" r="2" style="fill: rgb(0,0,0)" />
	<circle cx="192.684739311944" cy="-53.5" r="2" style="fill: rgb(0,0,0)" />
	<circle cx="146.106631636485" cy="-292.684593637259" r="2" style="fill: rgb(0,0,0)" />
	<circle cx="71.269378592275" cy="-321.642545541833" r="2" style="fill: rgb(0,0,0)" />
	<circle cx="33.5" cy="-252.706083385085" r="2" style="fill: rgb(0,0,0)" />
	<!--
	Generated using the Perl SVG Module V2.87
	by Ronan Oger

	-->
</svg>