<?xml version="1.0" encoding="UTF-8" standalone="yes"?>
<!DOCTYPE svg PUBLIC "-//W3C//DTD SVG 1.0//EN" "http://www.w3.org/TR/2001/REC-SVG-20010904/DTD/svg10.dtd">
<!-- generated using polymake; Michael Joswig, Georg Loho, Benjamin Lorenz, Rico Raber; license CC BY-NC-ND 3.0; see polymake.org and matchthenet.de -->
<svg height="841pt" id="document" viewBox="0 -579.68704413755 572 579.68704413755" width="595pt" xmlns="http://www.w3.org/2000/svg" xmlns:svg="http://www.w3.org/2000/svg" xmlns:xlink="http://www.w3.org/1999/xlink">
	<title id="document_title">planar_net_</title>
	<polygon points="312.932773048222,-253.11439984846 377.729047891628,-253.11439984846 432.615106730257,-275.07667029893 200.462419133451,-352.179085353604 209.069927330452,-319.848122023099 279.681805547677,-261.446839838884 " style="fill: rgb(14,173,105); fill-opacity: 1; stroke: rgb(0,0,0); stroke-width: 3" />
	<polygon points="297.86468040944,-172.472638726378 377.729047891628,-253.11439984846 312.932773048222,-253.11439984846 287.459653147634,-170.298702051087 " style="fill: rgb(14,173,105); fill-opacity: 1; stroke: rgb(0,0,0); stroke-width: 3" />
	<polygon points="198.741938642481,-388.249852468985 327.601225168758,-469.547605513882 310.788339518701,-485.732119804502 250.297395263507,-532.632456984916 226.260969752113,-543.18704413755 160.929447501413,-539.460595332412 " style="fill: rgb(14,173,105); fill-opacity: 1; stroke: rgb(0,0,0); stroke-width: 3" />
	<polygon points="327.601225168758,-469.547605513882 412.116099574301,-353.151636770874 480.421495561111,-440.468284624408 350.633640945169,-473.305191202519 " style="fill: rgb(14,173,105); fill-opacity: 1; stroke: rgb(0,0,0); stroke-width: 3" />
	<polygon points="432.615106730257,-275.07667029893 377.729047891628,-253.11439984846 325.831424648832,-152.178541344413 395.981663185018,-157.073080108052 405.197945380163,-167.399275851324 436.040211773983,-275.133166391123 " style="fill: rgb(14,173,105); fill-opacity: 1; stroke: rgb(0,0,0); stroke-width: 3" />
	<polygon points="200.462419133451,-352.179085353604 432.615106730257,-275.07667029893 435.686431662623,-276.593739687203 412.116099574301,-353.151636770874 327.601225168758,-469.547605513882 198.741938642481,-388.249852468985 " style="fill: rgb(14,173,105); fill-opacity: 1; stroke: rgb(0,0,0); stroke-width: 3" />
	<polygon points="395.981663185018,-157.073080108052 325.831424648832,-152.178541344413 317.392467635953,-145.715214219635 310.96403554794,-137.877317257151 305.123345690774,-117.152144842928 330.002000269809,-84.5466949371077 361.686341374361,-94.1625387936051 390.958922740666,-144.962836053105 " style="fill: rgb(14,173,105); fill-opacity: 1; stroke: rgb(0,0,0); stroke-width: 3" />
	<polygon points="405.197945380163,-167.399275851324 395.981663185018,-157.073080108052 393.664879025441,-144.168877544558 423.933478324061,-101.885290414127 432.040897539454,-107.127793688161 435.777371909125,-115.169070553882 " style="fill: rgb(14,173,105); fill-opacity: 1; stroke: rgb(0,0,0); stroke-width: 3" />
	<polygon points="279.681805547677,-261.446839838884 209.069927330452,-319.848122023099 221.834432783005,-177.673884046926 243.279856216029,-179.60785493222 " style="fill: rgb(14,173,105); fill-opacity: 1; stroke: rgb(0,0,0); stroke-width: 3" />
	<polygon points="390.958922740666,-144.962836053105 361.686341374361,-94.1625387936051 395.16769693179,-88.2572711261668 409.889018711319,-96.5299824240122 " style="fill: rgb(14,173,105); fill-opacity: 1; stroke: rgb(0,0,0); stroke-width: 3" />
	<polygon points="432.040897539454,-107.127793688161 423.933478324061,-101.885290414127 412.089697932424,-89.8486823708058 454.491868759102,-53.5 480.732667052293,-54.2546961393014 " style="fill: rgb(14,173,105); fill-opacity: 1; stroke: rgb(0,0,0); stroke-width: 3" />
	<polygon points="435.777371909125,-115.169070553882 432.040897539454,-107.127793688161 484.964098943989,-58.4904868568858 561.5,-57.464906988463 441.30435889888,-116.423854568266 " style="fill: rgb(14,173,105); fill-opacity: 1; stroke: rgb(0,0,0); stroke-width: 3" />
	<polygon points="436.040211773983,-275.133166391123 405.197945380163,-167.399275851324 449.096389892996,-125.733675632374 453.732644544205,-128.993615956494 501.537522849543,-229.016202023351 " style="fill: rgb(14,173,105); fill-opacity: 1; stroke: rgb(0,0,0); stroke-width: 3" />
	<polygon points="100.738241828487,-204.379504051452 93.7575039909622,-245.044257841685 33.5,-270.561456611749 38.9950142294797,-214.9829030184 68.2985522702677,-197.74410913718 " style="fill: rgb(14,173,105); fill-opacity: 1; stroke: rgb(0,0,0); stroke-width: 3" />
	<polygon points="312.932773048222,-253.11439984846 279.681805547677,-261.446839838884 265.864435504829,-172.949372921486 275.827914736928,-174.81657657837 " style="fill: rgb(14,173,105); fill-opacity: 1; stroke: rgb(0,0,0); stroke-width: 3" />
	<polygon points="209.069927330452,-319.848122023099 200.462419133451,-352.179085353604 175.173399051741,-377.957482447277 93.7575039909622,-245.044257841685 100.738241828487,-204.379504051452 140.570889260643,-194.611033558592 " style="fill: rgb(14,173,105); fill-opacity: 1; stroke: rgb(0,0,0); stroke-width: 3" />
	<circle cx="312.932773048222" cy="-253.11439984846" r="2" style="fill: rgb(0,0,0)" />
	<circle cx="377.729047891628" cy="-253.11439984846" r="2" style="fill: rgb(0,0,0)" />
	<circle cx="432.615106730257" cy="-275.07667029893" r="2" style="fill: rgb(0,0,0)" />
	<circle cx="200.462419133451" cy="-352.179085353604" r="2" style="fill: rgb(0,0,0)" />
	<circle cx="209.069927330452" cy="-319.848122023099" r="2" style="fill: rgb(0,0,0)" />
	<circle cx="279.681805547677" cy="-261.446839838884" r="2" style="fill: rgb(0,0,0)" />
	<circle cx="287.459653147634" cy="-170.298702051087" r="2" style="fill: rgb(0,0,0)" />
	<circle cx="297.86468040944" cy="-172.472638726378" r="2" style="fill: rgb(0,0,0)" />
	<circle cx="325.831424648832" cy="-152.178541344413" r="2" style="fill: rgb(0,0,0)" />
	<circle cx="395.981663185018" cy="-157.073080108052" r="2" style="fill: rgb(0,0,0)" />
	<circle cx="405.197945380163" cy="-167.399275851324" r="2" style="fill: rgb(0,0,0)" />
	<circle cx="436.040211773983" cy="-275.133166391123" r="2" style="fill: rgb(0,0,0)" />
	<circle cx="435.686431662623" cy="-276.593739687203" r="2" style="fill: rgb(0,0,0)" />
	<circle cx="412.116099574301" cy="-353.151636770874" r="2" style="fill: rgb(0,0,0)" />
	<circle cx="327.601225168758" cy="-469.547605513882" r="2" style="fill: rgb(0,0,0)" />
	<circle cx="198.741938642481" cy="-388.249852468985" r="2" style="fill: rgb(0,0,0)" />
	<circle cx="221.834432783005" cy="-177.673884046926" r="2" style="fill: rgb(0,0,0)" />
	<circle cx="243.279856216029" cy="-179.60785493222" r="2" style="fill: rgb(0,0,0)" />
	<circle cx="265.864435504829" cy="-172.949372921486" r="2" style="fill: rgb(0,0,0)" />
	<circle cx="275.827914736928" cy="-174.81657657837" r="2" style="fill: rgb(0,0,0)" />
	<circle cx="175.173399051741" cy="-377.957482447277" r="2" style="fill: rgb(0,0,0)" />
	<circle cx="93.7575039909622" cy="-245.044257841685" r="2" style="fill: rgb(0,0,0)" />
	<circle cx="100.738241828487" cy="-204.379504051452" r="2" style="fill: rgb(0,0,0)" />
	<circle cx="140.570889260643" cy="-194.611033558592" r="2" style="fill: rgb(0,0,0)" />
	<circle cx="317.392467635953" cy="-145.715214219635" r="2" style="fill: rgb(0,0,0)" />
	<circle cx="310.96403554794" cy="-137.877317257151" r="2" style="fill: rgb(0,0,0)" />
	<circle cx="305.123345690774" cy="-117.152144842928" r="2" style="fill: rgb(0,0,0)" />
	<circle cx="330.002000269809" cy="-84.5466949371077" r="2" style="fill: rgb(0,0,0)" />
	<circle cx="361.686341374361" cy="-94.1625387936051" r="2" style="fill: rgb(0,0,0)" />
	<circle cx="390.958922740666" cy="-144.962836053105" r="2" style="fill: rgb(0,0,0)" />
	<circle cx="393.664879025441" cy="-144.168877544558" r="2" style="fill: rgb(0,0,0)" />
	<circle cx="423.933478324061" cy="-101.885290414127" r="2" style="fill: rgb(0,0,0)" />
	<circle cx="432.040897539454" cy="-107.127793688161" r="2" style="fill: rgb(0,0,0)" />
	<circle cx="435.777371909125" cy="-115.169070553882" r="2" style="fill: rgb(0,0,0)" />
	<circle cx="449.096389892996" cy="-125.733675632374" r="2" style="fill: rgb(0,0,0)" />
	<circle cx="453.732644544205" cy="-128.993615956494" r="2" style="fill: rgb(0,0,0)" />
	<circle cx="501.537522849543" cy="-229.016202023351" r="2" style="fill: rgb(0,0,0)" />
	<circle cx="310.788339518701" cy="-485.732119804502" r="2" style="fill: rgb(0,0,0)" />
	<circle cx="250.297395263507" cy="-532.632456984916" r="2" style="fill: rgb(0,0,0)" />
	<circle cx="226.260969752113" cy="-543.18704413755" r="2" style="fill: rgb(0,0,0)" />
	<circle cx="160.929447501413" cy="-539.460595332412" r="2" style="fill: rgb(0,0,0)" />
	<circle cx="480.421495561111" cy="-440.468284624408" r="2" style="fill: rgb(0,0,0)" />
	<circle cx="350.633640945169" cy="-473.305191202519" r="2" style="fill: rgb(0,0,0)" />
	<circle cx="33.5" cy="-270.561456611749" r="2" style="fill: rgb(0,0,0)" />
	<circle cx="38.9950142294797" cy="-214.9829030184" r="2" style="fill: rgb(0,0,0)" />
	<circle cx="68.2985522702677" cy="-197.74410913718" r="2" style="fill: rgb(0,0,0)" />
	<circle cx="395.16769693179" cy="-88.2572711261668" r="2" style="fill: rgb(0,0,0)" />
	<circle cx="409.889018711319" cy="-96.5299824240122" r="2" style="fill: rgb(0,0,0)" />
	<circle cx="412.089697932424" cy="-89.8486823708058" r="2" style="fill: rgb(0,0,0)" />
	<circle cx="454.491868759102" cy="-53.5" r="2" style="fill: rgb(0,0,0)" />
	<circle cx="480.732667052293" cy="-54.2546961393014" r="2" style="fill: rgb(0,0,0)" />
	<circle cx="484.964098943989" cy="-58.4904868568858" r="2" style="fill: rgb(0,0,0)" />
	<circle cx="561.5" cy="-57.464906988463" r="2" style="fill: rgb(0,0,0)" />
	<circle cx="441.30435889888" cy="-116.423854568266" r="2" style="fill: rgb(0,0,0)" />
	<!--
	Generated using the Perl SVG Module V2.87
	by Ronan Oger

	-->
</svg>