<?xml version="1.0" encoding="UTF-8" standalone="yes"?>
<!DOCTYPE svg PUBLIC "-//W3C//DTD SVG 1.0//EN" "http://www.w3.org/TR/2001/REC-SVG-20010904/DTD/svg10.dtd">
<!-- generated using polymake; Michael Joswig, Georg Loho, Benjamin Lorenz, Rico Raber; license CC BY-NC-ND 3.0; see polymake.org and matchthenet.de -->
<svg height="841pt" id="document" viewBox="0 -483.71674604921 572 483.71674604921" width="595pt" xmlns="http://www.w3.org/2000/svg" xmlns:svg="http://www.w3.org/2000/svg" xmlns:xlink="http://www.w3.org/1999/xlink">
	<title id="document_title">planar_net_</title>
	<polygon points="286.266185787321,-233.024973042729 289.467548904918,-233.024973042729 320.733656437142,-242.580939496141 292.354430528743,-280.452292219537 227.476765766349,-260.076817261247 " style="fill: rgb(14,173,105); fill-opacity: 1; stroke: rgb(0,0,0); stroke-width: 3" />
	<polygon points="202.567976550757,-108.003180806191 75.1268091862613,-159.218463925502 182.402164696657,-63.9233398207457 233.651619949086,-53.5 " style="fill: rgb(14,173,105); fill-opacity: 1; stroke: rgb(0,0,0); stroke-width: 3" />
	<polygon points="274.711700794996,-345.738289985779 297.296874514402,-331.450081296929 341.417378050597,-349.495590628846 392.179060537769,-419.937220921992 359.370182253827,-417.970079583403 " style="fill: rgb(14,173,105); fill-opacity: 1; stroke: rgb(0,0,0); stroke-width: 3" />
	<polygon points="300.623703368931,-146.816796145208 292.038166707563,-176.38120518983 274.139574089114,-204.622749659858 220.012330794488,-173.123722192808 " style="fill: rgb(14,173,105); fill-opacity: 1; stroke: rgb(0,0,0); stroke-width: 3" />
	<polygon points="377.70589245521,-84.3678342099363 300.623703368931,-146.816796145208 220.012330794488,-173.123722192808 33.5,-191.055348413222 45.0736448921744,-181.275820585971 75.1268091862613,-159.218463925502 202.567976550757,-108.003180806191 369.895185639466,-59.9375134760121 " style="fill: rgb(14,173,105); fill-opacity: 1; stroke: rgb(0,0,0); stroke-width: 3" />
	<polygon points="292.038166707563,-176.38120518983 289.467548904918,-233.024973042729 286.266185787321,-233.024973042729 274.139574089114,-204.622749659858 " style="fill: rgb(14,173,105); fill-opacity: 1; stroke: rgb(0,0,0); stroke-width: 3" />
	<polygon points="292.354430528743,-280.452292219537 320.733656437142,-242.580939496141 345.358496083061,-243.124004513027 343.53827880665,-251.669911876766 304.376988817757,-324.982034048591 " style="fill: rgb(14,173,105); fill-opacity: 1; stroke: rgb(0,0,0); stroke-width: 3" />
	<polygon points="59.0033943325386,-303.980979473614 266.698123300875,-346.241565977838 258.994907562472,-412.404661075636 51.4526924312694,-328.936482502134 41.1174180364249,-317.856296411752 " style="fill: rgb(14,173,105); fill-opacity: 1; stroke: rgb(0,0,0); stroke-width: 3" />
	<polygon points="227.476765766349,-260.076817261247 292.354430528743,-280.452292219537 298.754361522462,-326.130303323924 297.296874514402,-331.450081296929 274.711700794996,-345.738289985779 266.698123300875,-346.241565977838 59.0033943325386,-303.980979473614 " style="fill: rgb(14,173,105); fill-opacity: 1; stroke: rgb(0,0,0); stroke-width: 3" />
	<polygon points="491.03357918492,-238.75628880323 561.5,-397.951724714017 504.573697908582,-371.566392896842 453.657909842357,-307.211850849638 " style="fill: rgb(14,173,105); fill-opacity: 1; stroke: rgb(0,0,0); stroke-width: 3" />
	<polygon points="320.733656437142,-242.580939496141 289.467548904918,-233.024973042729 298.735371045519,-177.085434385081 311.124433978324,-148.902516836171 405.293334190409,-117.697469905031 344.553415866969,-236.312230864797 " style="fill: rgb(14,173,105); fill-opacity: 1; stroke: rgb(0,0,0); stroke-width: 3" />
	<polygon points="440.36756281723,-321.163031491782 453.657909842357,-307.211850849638 480.648873340467,-384.70644708675 477.617283959735,-436.917194471911 440.743053984137,-379.639239439648 434.694961532291,-353.53761618346 " style="fill: rgb(14,173,105); fill-opacity: 1; stroke: rgb(0,0,0); stroke-width: 3" />
	<polygon points="345.358496083061,-243.124004513027 476.198758288422,-217.833196271477 491.03357918492,-238.75628880323 453.657909842357,-307.211850849638 440.36756281723,-321.163031491782 353.675814668337,-316.334730530644 343.53827880665,-251.669911876766 " style="fill: rgb(14,173,105); fill-opacity: 1; stroke: rgb(0,0,0); stroke-width: 3" />
	<polygon points="266.698123300875,-346.241565977838 274.711700794996,-345.738289985779 320.391158611056,-447.21674604921 294.861823234499,-439.084883154083 276.166964632052,-412.17513655821 " style="fill: rgb(14,173,105); fill-opacity: 1; stroke: rgb(0,0,0); stroke-width: 3" />
	<polygon points="286.266185787321,-233.024973042729 227.476765766349,-260.076817261247 54.2458034604584,-277.451685330473 39.1733667786243,-260.562214626172 210.958279004481,-185.740181181093 269.930663580245,-206.816353876668 " style="fill: rgb(14,173,105); fill-opacity: 1; stroke: rgb(0,0,0); stroke-width: 3" />
	<polygon points="77.5361585699831,-355.570529530806 51.4526924312694,-328.936482502134 258.994907562472,-412.404661075636 269.570807136061,-443.417280252823 205.253559203083,-420.972579602179 " style="fill: rgb(14,173,105); fill-opacity: 1; stroke: rgb(0,0,0); stroke-width: 3" />
	<polygon points="304.376988817757,-324.982034048591 343.53827880665,-251.669911876766 349.865960209976,-316.817965208763 304.202016746018,-330.495081376048 " style="fill: rgb(14,173,105); fill-opacity: 1; stroke: rgb(0,0,0); stroke-width: 3" />
	<circle cx="286.266185787321" cy="-233.024973042729" r="2" style="fill: rgb(0,0,0)" />
	<circle cx="289.467548904918" cy="-233.024973042729" r="2" style="fill: rgb(0,0,0)" />
	<circle cx="320.733656437142" cy="-242.580939496141" r="2" style="fill: rgb(0,0,0)" />
	<circle cx="292.354430528743" cy="-280.452292219537" r="2" style="fill: rgb(0,0,0)" />
	<circle cx="227.476765766349" cy="-260.076817261247" r="2" style="fill: rgb(0,0,0)" />
	<circle cx="274.139574089114" cy="-204.622749659858" r="2" style="fill: rgb(0,0,0)" />
	<circle cx="292.038166707563" cy="-176.38120518983" r="2" style="fill: rgb(0,0,0)" />
	<circle cx="345.358496083061" cy="-243.124004513027" r="2" style="fill: rgb(0,0,0)" />
	<circle cx="343.53827880665" cy="-251.669911876766" r="2" style="fill: rgb(0,0,0)" />
	<circle cx="304.376988817757" cy="-324.982034048591" r="2" style="fill: rgb(0,0,0)" />
	<circle cx="298.754361522462" cy="-326.130303323924" r="2" style="fill: rgb(0,0,0)" />
	<circle cx="297.296874514402" cy="-331.450081296929" r="2" style="fill: rgb(0,0,0)" />
	<circle cx="274.711700794996" cy="-345.738289985779" r="2" style="fill: rgb(0,0,0)" />
	<circle cx="266.698123300875" cy="-346.241565977838" r="2" style="fill: rgb(0,0,0)" />
	<circle cx="59.0033943325386" cy="-303.980979473614" r="2" style="fill: rgb(0,0,0)" />
	<circle cx="298.735371045519" cy="-177.085434385081" r="2" style="fill: rgb(0,0,0)" />
	<circle cx="311.124433978324" cy="-148.902516836171" r="2" style="fill: rgb(0,0,0)" />
	<circle cx="405.293334190409" cy="-117.697469905031" r="2" style="fill: rgb(0,0,0)" />
	<circle cx="344.553415866969" cy="-236.312230864797" r="2" style="fill: rgb(0,0,0)" />
	<circle cx="54.2458034604584" cy="-277.451685330473" r="2" style="fill: rgb(0,0,0)" />
	<circle cx="39.1733667786243" cy="-260.562214626172" r="2" style="fill: rgb(0,0,0)" />
	<circle cx="210.958279004481" cy="-185.740181181093" r="2" style="fill: rgb(0,0,0)" />
	<circle cx="269.930663580245" cy="-206.816353876668" r="2" style="fill: rgb(0,0,0)" />
	<circle cx="220.012330794488" cy="-173.123722192808" r="2" style="fill: rgb(0,0,0)" />
	<circle cx="300.623703368931" cy="-146.816796145208" r="2" style="fill: rgb(0,0,0)" />
	<circle cx="476.198758288422" cy="-217.833196271477" r="2" style="fill: rgb(0,0,0)" />
	<circle cx="491.03357918492" cy="-238.75628880323" r="2" style="fill: rgb(0,0,0)" />
	<circle cx="453.657909842357" cy="-307.211850849638" r="2" style="fill: rgb(0,0,0)" />
	<circle cx="440.36756281723" cy="-321.163031491782" r="2" style="fill: rgb(0,0,0)" />
	<circle cx="353.675814668337" cy="-316.334730530644" r="2" style="fill: rgb(0,0,0)" />
	<circle cx="349.865960209976" cy="-316.817965208763" r="2" style="fill: rgb(0,0,0)" />
	<circle cx="304.202016746018" cy="-330.495081376048" r="2" style="fill: rgb(0,0,0)" />
	<circle cx="341.417378050597" cy="-349.495590628846" r="2" style="fill: rgb(0,0,0)" />
	<circle cx="392.179060537769" cy="-419.937220921992" r="2" style="fill: rgb(0,0,0)" />
	<circle cx="359.370182253827" cy="-417.970079583403" r="2" style="fill: rgb(0,0,0)" />
	<circle cx="258.994907562472" cy="-412.404661075636" r="2" style="fill: rgb(0,0,0)" />
	<circle cx="51.4526924312694" cy="-328.936482502134" r="2" style="fill: rgb(0,0,0)" />
	<circle cx="41.1174180364249" cy="-317.856296411752" r="2" style="fill: rgb(0,0,0)" />
	<circle cx="320.391158611056" cy="-447.21674604921" r="2" style="fill: rgb(0,0,0)" />
	<circle cx="294.861823234499" cy="-439.084883154083" r="2" style="fill: rgb(0,0,0)" />
	<circle cx="276.166964632052" cy="-412.17513655821" r="2" style="fill: rgb(0,0,0)" />
	<circle cx="33.5" cy="-191.055348413222" r="2" style="fill: rgb(0,0,0)" />
	<circle cx="45.0736448921744" cy="-181.275820585971" r="2" style="fill: rgb(0,0,0)" />
	<circle cx="75.1268091862613" cy="-159.218463925502" r="2" style="fill: rgb(0,0,0)" />
	<circle cx="202.567976550757" cy="-108.003180806191" r="2" style="fill: rgb(0,0,0)" />
	<circle cx="369.895185639466" cy="-59.9375134760121" r="2" style="fill: rgb(0,0,0)" />
	<circle cx="377.70589245521" cy="-84.3678342099363" r="2" style="fill: rgb(0,0,0)" />
	<circle cx="561.5" cy="-397.951724714017" r="2" style="fill: rgb(0,0,0)" />
	<circle cx="504.573697908582" cy="-371.566392896842" r="2" style="fill: rgb(0,0,0)" />
	<circle cx="480.648873340467" cy="-384.70644708675" r="2" style="fill: rgb(0,0,0)" />
	<circle cx="477.617283959735" cy="-436.917194471911" r="2" style="fill: rgb(0,0,0)" />
	<circle cx="440.743053984137" cy="-379.639239439648" r="2" style="fill: rgb(0,0,0)" />
	<circle cx="434.694961532291" cy="-353.53761618346" r="2" style="fill: rgb(0,0,0)" />
	<circle cx="269.570807136061" cy="-443.417280252823" r="2" style="fill: rgb(0,0,0)" />
	<circle cx="205.253559203083" cy="-420.972579602179" r="2" style="fill: rgb(0,0,0)" />
	<circle cx="77.5361585699831" cy="-355.570529530806" r="2" style="fill: rgb(0,0,0)" />
	<circle cx="182.402164696657" cy="-63.9233398207457" r="2" style="fill: rgb(0,0,0)" />
	<circle cx="233.651619949086" cy="-53.5" r="2" style="fill: rgb(0,0,0)" />
	<!--
	Generated using the Perl SVG Module V2.87
	by Ronan Oger

	-->
</svg>