<?xml version="1.0" encoding="UTF-8" standalone="yes"?>
<!DOCTYPE svg PUBLIC "-//W3C//DTD SVG 1.0//EN" "http://www.w3.org/TR/2001/REC-SVG-20010904/DTD/svg10.dtd">
<!-- generated using polymake; Michael Joswig, Georg Loho, Benjamin Lorenz, Rico Raber; license CC BY-NC-ND 3.0; see polymake.org and matchthenet.de -->
<svg height="841pt" id="document" viewBox="0 -793.530901997432 572 793.530901997432" width="595pt" xmlns="http://www.w3.org/2000/svg" xmlns:svg="http://www.w3.org/2000/svg" xmlns:xlink="http://www.w3.org/1999/xlink">
	<title id="document_title">planar_net_</title>
	<polygon points="180.521793276801,-284.529682762889 394.479245367441,-284.529682762889 405.694500287096,-289.416134666542 415.314733729263,-460.544603428326 350.322756858002,-477.382593402085 162.947117549404,-300.16958641404 " style="fill: rgb(238,66,102); fill-opacity: 1; stroke: rgb(0,0,0); stroke-width: 3" />
	<polygon points="331.16811060803,-518.368594903057 308.803729551773,-656.909341188565 282.359160936994,-660.767104865136 270.688104599401,-660.327011039135 202.611278061983,-638.144350432656 " style="fill: rgb(255,210,63); fill-opacity: 1; stroke: rgb(0,0,0); stroke-width: 3" />
	<polygon points="419.945915575055,-602.758654035595 439.571948218584,-647.508148867115 443.993475464907,-674.278901674537 433.049538017242,-696.099210645 392.04825949732,-700.909363920121 353.018087016331,-668.397081263196 " style="fill: rgb(238,66,102); fill-opacity: 1; stroke: rgb(0,0,0); stroke-width: 3" />
	<polygon points="296.306081698604,-179.298058944893 394.479245367441,-284.529682762889 180.521793276801,-284.529682762889 257.99710808843,-191.751031888196 " style="fill: rgb(67,184,206); fill-opacity: 1; stroke: rgb(0,0,0); stroke-width: 3" />
	<polygon points="350.322756858002,-477.382593402085 415.314733729263,-460.544603428326 419.945915575055,-602.758654035595 353.018087016331,-668.397081263196 308.803729551773,-656.909341188565 331.16811060803,-518.368594903057 " style="fill: rgb(238,66,102); fill-opacity: 1; stroke: rgb(0,0,0); stroke-width: 3" />
	<polygon points="414.863642256546,-229.12435495054 416.183356852144,-179.947487983892 461.580948881886,-123.11466328681 483.466716733157,-139.153250338859 " style="fill: rgb(67,184,206); fill-opacity: 1; stroke: rgb(0,0,0); stroke-width: 3" />
	<polygon points="136.670600760173,-359.525541361874 145.318069353342,-410.701933695128 129.303794321291,-480.487804315089 34.7924152936832,-453.685747275566 33.5,-450.835574024764 " style="fill: rgb(255,210,63); fill-opacity: 1; stroke: rgb(0,0,0); stroke-width: 3" />
	<polygon points="162.947117549404,-300.16958641404 350.322756858002,-477.382593402085 305.438381551307,-483.052306386513 145.318069353342,-410.701933695128 136.670600760173,-359.525541361874 " style="fill: rgb(255,210,63); fill-opacity: 1; stroke: rgb(0,0,0); stroke-width: 3" />
	<polygon points="405.694500287096,-289.416134666542 394.479245367441,-284.529682762889 348.406243816832,-148.188407852326 383.797792980772,-122.171885489436 416.183356852144,-179.947487983892 414.863642256546,-229.12435495054 " style="fill: rgb(238,66,102); fill-opacity: 1; stroke: rgb(0,0,0); stroke-width: 3" />
	<polygon points="180.521793276801,-284.529682762889 162.947117549404,-300.16958641404 103.954290138658,-273.087654495682 93.2578496209767,-135.729432730926 107.745168505024,-128.827922151951 164.528307209165,-164.719370741342 " style="fill: rgb(238,66,102); fill-opacity: 1; stroke: rgb(0,0,0); stroke-width: 3" />
	<polygon points="107.745168505024,-128.827922151951 93.2578496209767,-135.729432730926 90.5070002960909,-134.237235410619 74.8724415096164,-117.284872194105 55.6925517907611,-78.7950166163495 88.3177651873417,-53.5 131.245867448847,-85.1939448463355 " style="fill: rgb(84,13,110); fill-opacity: 1; stroke: rgb(0,0,0); stroke-width: 3" />
	<polygon points="310.65683888544,-137.783278971397 296.306081698604,-179.298058944893 257.99710808843,-191.751031888196 256.947176192713,-124.583937519355 306.348661830477,-128.546265515482 " style="fill: rgb(255,210,63); fill-opacity: 1; stroke: rgb(0,0,0); stroke-width: 3" />
	<polygon points="308.803729551773,-656.909341188565 353.018087016331,-668.397081263196 377.298799361027,-713.016022257962 348.326288358897,-744.79543002865 290.091593637801,-675.989527753245 " style="fill: rgb(255,210,63); fill-opacity: 1; stroke: rgb(0,0,0); stroke-width: 3" />
	<polygon points="415.314733729263,-460.544603428326 405.694500287096,-289.416134666542 466.665775627431,-290.710526088341 561.5,-352.416695798842 542.932194790095,-397.615534884462 " style="fill: rgb(255,210,63); fill-opacity: 1; stroke: rgb(0,0,0); stroke-width: 3" />
	<polygon points="416.183356852144,-179.947487983892 383.797792980772,-122.171885489436 387.465504085286,-112.662379593989 438.852746588923,-98.2860305595952 453.723535070585,-117.644628142025 " style="fill: rgb(255,210,63); fill-opacity: 1; stroke: rgb(0,0,0); stroke-width: 3" />
	<polygon points="282.359160936994,-660.767104865136 275.554741121726,-750.651651524554 253.393351037273,-757.030901997432 270.688104599401,-660.327011039135 " style="fill: rgb(67,184,206); fill-opacity: 1; stroke: rgb(0,0,0); stroke-width: 3" />
	<circle cx="180.521793276801" cy="-284.529682762889" r="2" style="fill: rgb(0,0,0)" />
	<circle cx="394.479245367441" cy="-284.529682762889" r="2" style="fill: rgb(0,0,0)" />
	<circle cx="405.694500287096" cy="-289.416134666542" r="2" style="fill: rgb(0,0,0)" />
	<circle cx="415.314733729263" cy="-460.544603428326" r="2" style="fill: rgb(0,0,0)" />
	<circle cx="350.322756858002" cy="-477.382593402085" r="2" style="fill: rgb(0,0,0)" />
	<circle cx="162.947117549404" cy="-300.16958641404" r="2" style="fill: rgb(0,0,0)" />
	<circle cx="257.99710808843" cy="-191.751031888196" r="2" style="fill: rgb(0,0,0)" />
	<circle cx="296.306081698604" cy="-179.298058944893" r="2" style="fill: rgb(0,0,0)" />
	<circle cx="419.945915575055" cy="-602.758654035595" r="2" style="fill: rgb(0,0,0)" />
	<circle cx="353.018087016331" cy="-668.397081263196" r="2" style="fill: rgb(0,0,0)" />
	<circle cx="308.803729551773" cy="-656.909341188565" r="2" style="fill: rgb(0,0,0)" />
	<circle cx="331.16811060803" cy="-518.368594903057" r="2" style="fill: rgb(0,0,0)" />
	<circle cx="305.438381551307" cy="-483.052306386513" r="2" style="fill: rgb(0,0,0)" />
	<circle cx="145.318069353342" cy="-410.701933695128" r="2" style="fill: rgb(0,0,0)" />
	<circle cx="136.670600760173" cy="-359.525541361874" r="2" style="fill: rgb(0,0,0)" />
	<circle cx="348.406243816832" cy="-148.188407852326" r="2" style="fill: rgb(0,0,0)" />
	<circle cx="383.797792980772" cy="-122.171885489436" r="2" style="fill: rgb(0,0,0)" />
	<circle cx="416.183356852144" cy="-179.947487983892" r="2" style="fill: rgb(0,0,0)" />
	<circle cx="414.863642256546" cy="-229.12435495054" r="2" style="fill: rgb(0,0,0)" />
	<circle cx="103.954290138658" cy="-273.087654495682" r="2" style="fill: rgb(0,0,0)" />
	<circle cx="93.2578496209767" cy="-135.729432730926" r="2" style="fill: rgb(0,0,0)" />
	<circle cx="107.745168505024" cy="-128.827922151951" r="2" style="fill: rgb(0,0,0)" />
	<circle cx="164.528307209165" cy="-164.719370741342" r="2" style="fill: rgb(0,0,0)" />
	<circle cx="466.665775627431" cy="-290.710526088341" r="2" style="fill: rgb(0,0,0)" />
	<circle cx="561.5" cy="-352.416695798842" r="2" style="fill: rgb(0,0,0)" />
	<circle cx="542.932194790095" cy="-397.615534884462" r="2" style="fill: rgb(0,0,0)" />
	<circle cx="256.947176192713" cy="-124.583937519355" r="2" style="fill: rgb(0,0,0)" />
	<circle cx="306.348661830477" cy="-128.546265515482" r="2" style="fill: rgb(0,0,0)" />
	<circle cx="310.65683888544" cy="-137.783278971397" r="2" style="fill: rgb(0,0,0)" />
	<circle cx="282.359160936994" cy="-660.767104865136" r="2" style="fill: rgb(0,0,0)" />
	<circle cx="270.688104599401" cy="-660.327011039135" r="2" style="fill: rgb(0,0,0)" />
	<circle cx="202.611278061983" cy="-638.144350432656" r="2" style="fill: rgb(0,0,0)" />
	<circle cx="439.571948218584" cy="-647.508148867115" r="2" style="fill: rgb(0,0,0)" />
	<circle cx="443.993475464907" cy="-674.278901674537" r="2" style="fill: rgb(0,0,0)" />
	<circle cx="433.049538017242" cy="-696.099210645" r="2" style="fill: rgb(0,0,0)" />
	<circle cx="392.04825949732" cy="-700.909363920121" r="2" style="fill: rgb(0,0,0)" />
	<circle cx="377.298799361027" cy="-713.016022257962" r="2" style="fill: rgb(0,0,0)" />
	<circle cx="348.326288358897" cy="-744.79543002865" r="2" style="fill: rgb(0,0,0)" />
	<circle cx="290.091593637801" cy="-675.989527753245" r="2" style="fill: rgb(0,0,0)" />
	<circle cx="129.303794321291" cy="-480.487804315089" r="2" style="fill: rgb(0,0,0)" />
	<circle cx="34.7924152936832" cy="-453.685747275566" r="2" style="fill: rgb(0,0,0)" />
	<circle cx="33.5" cy="-450.835574024764" r="2" style="fill: rgb(0,0,0)" />
	<circle cx="461.580948881886" cy="-123.11466328681" r="2" style="fill: rgb(0,0,0)" />
	<circle cx="483.466716733157" cy="-139.153250338859" r="2" style="fill: rgb(0,0,0)" />
	<circle cx="387.465504085286" cy="-112.662379593989" r="2" style="fill: rgb(0,0,0)" />
	<circle cx="438.852746588923" cy="-98.2860305595952" r="2" style="fill: rgb(0,0,0)" />
	<circle cx="453.723535070585" cy="-117.644628142025" r="2" style="fill: rgb(0,0,0)" />
	<circle cx="90.5070002960909" cy="-134.237235410619" r="2" style="fill: rgb(0,0,0)" />
	<circle cx="74.8724415096164" cy="-117.284872194105" r="2" style="fill: rgb(0,0,0)" />
	<circle cx="55.6925517907611" cy="-78.7950166163495" r="2" style="fill: rgb(0,0,0)" />
	<circle cx="88.3177651873417" cy="-53.5" r="2" style="fill: rgb(0,0,0)" />
	<circle cx="131.245867448847" cy="-85.1939448463355" r="2" style="fill: rgb(0,0,0)" />
	<circle cx="275.554741121726" cy="-750.651651524554" r="2" style="fill: rgb(0,0,0)" />
	<circle cx="253.393351037273" cy="-757.030901997432" r="2" style="fill: rgb(0,0,0)" />
	<!--
	Generated using the Perl SVG Module V2.84
	by Ronan Oger
	Info: http://www.roitsystems.com/
	-->
</svg>