<?xml version="1.0" encoding="UTF-8" standalone="yes"?>
<!DOCTYPE svg PUBLIC "-//W3C//DTD SVG 1.0//EN" "http://www.w3.org/TR/2001/REC-SVG-20010904/DTD/svg10.dtd">
<!-- generated using polymake; Michael Joswig, Georg Loho, Benjamin Lorenz, Rico Raber; license CC BY-NC-SA 3.0; see polymake.org and matchthenet.de -->
<svg height="841pt" id="document" viewBox="0 -660.917439140993 572 660.917439140993" width="595pt" xmlns="http://www.w3.org/2000/svg" xmlns:svg="http://www.w3.org/2000/svg" xmlns:xlink="http://www.w3.org/1999/xlink">
	<title id="document_title">planar_net_</title>
	<polygon points="265.187935304937,-308.6499046163 340.236334542194,-308.6499046163 359.125795035054,-383.360810254083 310.395692891363,-418.931374336279 191.155456760346,-347.022441801387 178.820337287208,-326.93373406211 " style="fill: rgb(14,173,105); fill-opacity: 1; stroke: rgb(0,0,0); stroke-width: 3" />
	<polygon points="138.481055329752,-519.467692532387 170.45881902831,-525.722168098067 135.099147371896,-601.32887571996 33.5,-624.417439140993 110.593350756257,-532.599170437697 " style="fill: rgb(14,173,105); fill-opacity: 1; stroke: rgb(0,0,0); stroke-width: 3" />
	<polygon points="281.756081284643,-154.350804847445 236.626597498995,-177.222768554688 218.412111256992,-69.5058452451282 337.230426833656,-53.5 350.294434213233,-59.5907532299181 " style="fill: rgb(14,173,105); fill-opacity: 1; stroke: rgb(0,0,0); stroke-width: 3" />
	<polygon points="378.87140924766,-275.211006876465 340.236334542194,-308.6499046163 265.187935304937,-308.6499046163 328.065243094387,-228.642836768446 " style="fill: rgb(14,173,105); fill-opacity: 1; stroke: rgb(0,0,0); stroke-width: 3" />
	<polygon points="310.395692891363,-418.931374336279 359.125795035054,-383.360810254083 400.787568822397,-403.310461331502 385.917413268482,-447.4747137632 350.21546258362,-459.603587491562 " style="fill: rgb(14,173,105); fill-opacity: 1; stroke: rgb(0,0,0); stroke-width: 3" />
	<polygon points="78.7808524754036,-403.896436445856 138.481055329752,-519.467692532387 108.250086864512,-525.488350636748 51.6939592977147,-432.021203943441 " style="fill: rgb(14,173,105); fill-opacity: 1; stroke: rgb(0,0,0); stroke-width: 3" />
	<polygon points="191.155456760346,-347.022441801387 310.395692891363,-418.931374336279 327.298995822791,-473.283203480312 264.535930504585,-510.211868132288 " style="fill: rgb(14,173,105); fill-opacity: 1; stroke: rgb(0,0,0); stroke-width: 3" />
	<polygon points="359.125795035054,-383.360810254083 340.236334542194,-308.6499046163 390.340196883101,-298.628334975059 453.267593528698,-310.680259198896 404.298439026494,-393.010898753169 " style="fill: rgb(14,173,105); fill-opacity: 1; stroke: rgb(0,0,0); stroke-width: 3" />
	<polygon points="178.820337287208,-326.93373406211 191.155456760346,-347.022441801387 172.34179477806,-524.959309583063 170.45881902831,-525.722168098067 138.481055329752,-519.467692532387 78.7808524754036,-403.896436445856 " style="fill: rgb(14,173,105); fill-opacity: 1; stroke: rgb(0,0,0); stroke-width: 3" />
	<polygon points="350.21546258362,-459.603587491562 385.917413268482,-447.4747137632 431.018165786926,-498.238665917999 355.401917892209,-533.577931210237 353.793422493229,-532.336845661406 " style="fill: rgb(14,173,105); fill-opacity: 1; stroke: rgb(0,0,0); stroke-width: 3" />
	<polygon points="400.787568822397,-403.310461331502 489.391824023439,-366.901695047211 561.5,-439.202239800135 550.128433811314,-448.059612217381 448.920361535899,-472.806220345254 385.917413268482,-447.4747137632 " style="fill: rgb(14,173,105); fill-opacity: 1; stroke: rgb(0,0,0); stroke-width: 3" />
	<polygon points="431.696579891397,-238.953490792909 378.87140924766,-275.211006876465 328.065243094387,-228.642836768446 312.820671368533,-158.999458673262 427.666204744631,-136.920584873227 " style="fill: rgb(14,173,105); fill-opacity: 1; stroke: rgb(0,0,0); stroke-width: 3" />
	<polygon points="265.187935304937,-308.6499046163 178.820337287208,-326.93373406211 208.432968903952,-204.237979741304 236.626597498995,-177.222768554688 281.756081284643,-154.350804847445 312.613284978999,-218.619226796156 " style="fill: rgb(14,173,105); fill-opacity: 1; stroke: rgb(0,0,0); stroke-width: 3" />
	<circle cx="265.187935304937" cy="-308.6499046163" r="2" style="fill: rgb(0,0,0)" />
	<circle cx="340.236334542194" cy="-308.6499046163" r="2" style="fill: rgb(0,0,0)" />
	<circle cx="359.125795035054" cy="-383.360810254083" r="2" style="fill: rgb(0,0,0)" />
	<circle cx="310.395692891363" cy="-418.931374336279" r="2" style="fill: rgb(0,0,0)" />
	<circle cx="191.155456760346" cy="-347.022441801387" r="2" style="fill: rgb(0,0,0)" />
	<circle cx="178.820337287208" cy="-326.93373406211" r="2" style="fill: rgb(0,0,0)" />
	<circle cx="328.065243094387" cy="-228.642836768446" r="2" style="fill: rgb(0,0,0)" />
	<circle cx="378.87140924766" cy="-275.211006876465" r="2" style="fill: rgb(0,0,0)" />
	<circle cx="400.787568822397" cy="-403.310461331502" r="2" style="fill: rgb(0,0,0)" />
	<circle cx="385.917413268482" cy="-447.4747137632" r="2" style="fill: rgb(0,0,0)" />
	<circle cx="350.21546258362" cy="-459.603587491562" r="2" style="fill: rgb(0,0,0)" />
	<circle cx="327.298995822791" cy="-473.283203480312" r="2" style="fill: rgb(0,0,0)" />
	<circle cx="264.535930504585" cy="-510.211868132288" r="2" style="fill: rgb(0,0,0)" />
	<circle cx="390.340196883101" cy="-298.628334975059" r="2" style="fill: rgb(0,0,0)" />
	<circle cx="453.267593528698" cy="-310.680259198896" r="2" style="fill: rgb(0,0,0)" />
	<circle cx="404.298439026494" cy="-393.010898753169" r="2" style="fill: rgb(0,0,0)" />
	<circle cx="172.34179477806" cy="-524.959309583063" r="2" style="fill: rgb(0,0,0)" />
	<circle cx="170.45881902831" cy="-525.722168098067" r="2" style="fill: rgb(0,0,0)" />
	<circle cx="138.481055329752" cy="-519.467692532387" r="2" style="fill: rgb(0,0,0)" />
	<circle cx="78.7808524754036" cy="-403.896436445856" r="2" style="fill: rgb(0,0,0)" />
	<circle cx="208.432968903952" cy="-204.237979741304" r="2" style="fill: rgb(0,0,0)" />
	<circle cx="236.626597498995" cy="-177.222768554688" r="2" style="fill: rgb(0,0,0)" />
	<circle cx="281.756081284643" cy="-154.350804847445" r="2" style="fill: rgb(0,0,0)" />
	<circle cx="312.613284978999" cy="-218.619226796156" r="2" style="fill: rgb(0,0,0)" />
	<circle cx="312.820671368533" cy="-158.999458673262" r="2" style="fill: rgb(0,0,0)" />
	<circle cx="427.666204744631" cy="-136.920584873227" r="2" style="fill: rgb(0,0,0)" />
	<circle cx="431.696579891397" cy="-238.953490792909" r="2" style="fill: rgb(0,0,0)" />
	<circle cx="431.018165786926" cy="-498.238665917999" r="2" style="fill: rgb(0,0,0)" />
	<circle cx="355.401917892209" cy="-533.577931210237" r="2" style="fill: rgb(0,0,0)" />
	<circle cx="353.793422493229" cy="-532.336845661406" r="2" style="fill: rgb(0,0,0)" />
	<circle cx="489.391824023439" cy="-366.901695047211" r="2" style="fill: rgb(0,0,0)" />
	<circle cx="561.5" cy="-439.202239800135" r="2" style="fill: rgb(0,0,0)" />
	<circle cx="550.128433811314" cy="-448.059612217381" r="2" style="fill: rgb(0,0,0)" />
	<circle cx="448.920361535899" cy="-472.806220345254" r="2" style="fill: rgb(0,0,0)" />
	<circle cx="135.099147371896" cy="-601.32887571996" r="2" style="fill: rgb(0,0,0)" />
	<circle cx="33.5" cy="-624.417439140993" r="2" style="fill: rgb(0,0,0)" />
	<circle cx="110.593350756257" cy="-532.599170437697" r="2" style="fill: rgb(0,0,0)" />
	<circle cx="108.250086864512" cy="-525.488350636748" r="2" style="fill: rgb(0,0,0)" />
	<circle cx="51.6939592977147" cy="-432.021203943441" r="2" style="fill: rgb(0,0,0)" />
	<circle cx="218.412111256992" cy="-69.5058452451282" r="2" style="fill: rgb(0,0,0)" />
	<circle cx="337.230426833656" cy="-53.5" r="2" style="fill: rgb(0,0,0)" />
	<circle cx="350.294434213233" cy="-59.5907532299181" r="2" style="fill: rgb(0,0,0)" />
	<!-- 
	Generated using the Perl SVG Module V2.64
	by Ronan Oger
	Info: http://www.roitsystems.com/
 -->
</svg>