<?xml version="1.0" encoding="UTF-8" standalone="yes"?>
<!DOCTYPE svg PUBLIC "-//W3C//DTD SVG 1.0//EN" "http://www.w3.org/TR/2001/REC-SVG-20010904/DTD/svg10.dtd">
<!-- generated using polymake; Michael Joswig, Georg Loho, Benjamin Lorenz, Rico Raber; license CC BY-NC-ND 3.0; see polymake.org and matchthenet.de -->
<svg height="841pt" id="document" viewBox="0 -534.998081173219 572 534.998081173219" width="595pt" xmlns="http://www.w3.org/2000/svg" xmlns:svg="http://www.w3.org/2000/svg" xmlns:xlink="http://www.w3.org/1999/xlink">
	<title id="document_title">planar_net_</title>
	<polygon points="279.936085932771,-281.518558480543 399.461465725415,-281.518558480543 288.791400267918,-317.949857095106 " style="fill: rgb(14,173,105); fill-opacity: 1; stroke: rgb(0,0,0); stroke-width: 3" />
	<polygon points="254.100469758415,-226.033293706231 188.100220919988,-231.525376936658 172.283565929036,-173.655994309297 180.16555885236,-157.337329437677 259.621727555673,-217.735240964389 " style="fill: rgb(255,210,63); fill-opacity: 1; stroke: rgb(0,0,0); stroke-width: 3" />
	<polygon points="389.605234934663,-317.940292703017 403.436939272682,-282.519337712663 521.270277035569,-436.850370798255 471.127505124655,-478.837420963933 396.18322151522,-385.069689044759 " style="fill: rgb(255,210,63); fill-opacity: 1; stroke: rgb(0,0,0); stroke-width: 3" />
	<polygon points="81.1768762133696,-72.9351389725274 169.15744006623,-72.7297599848442 180.16555885236,-157.337329437677 172.283565929036,-173.655994309297 74.8801427541229,-205.152046175869 67.3138283773519,-200.638464772386 33.5,-117.702598483424 " style="fill: rgb(84,13,110); fill-opacity: 1; stroke: rgb(0,0,0); stroke-width: 3" />
	<polygon points="299.836036326115,-434.457975678722 198.308217068317,-498.498081173219 187.672484800296,-409.567692071617 280.720133726938,-376.653178087451 281.688865583119,-376.399130536651 " style="fill: rgb(255,210,63); fill-opacity: 1; stroke: rgb(0,0,0); stroke-width: 3" />
	<polygon points="208.059770338413,-335.833199066526 227.376099188436,-334.952424937312 280.720133726938,-376.653178087451 187.672484800296,-409.567692071617 187.34447286896,-400.763492022385 " style="fill: rgb(255,210,63); fill-opacity: 1; stroke: rgb(0,0,0); stroke-width: 3" />
	<polygon points="352.618246176848,-163.101309630605 259.621727555673,-217.735240964389 218.267607347481,-126.900075947722 261.765289340827,-53.5 " style="fill: rgb(67,184,206); fill-opacity: 1; stroke: rgb(0,0,0); stroke-width: 3" />
	<polygon points="285.837385273251,-328.448274273454 292.667577102209,-358.149162382763 282.336384334382,-375.511565736682 281.377017585718,-375.79896269005 227.376099188436,-334.952424937312 " style="fill: rgb(255,210,63); fill-opacity: 1; stroke: rgb(0,0,0); stroke-width: 3" />
	<polygon points="403.033310888327,-280.796538530563 399.461465725415,-281.518558480543 279.936085932771,-281.518558480543 254.100469758415,-226.033293706231 259.621727555673,-217.735240964389 352.618246176848,-163.101309630605 " style="fill: rgb(238,66,102); fill-opacity: 1; stroke: rgb(0,0,0); stroke-width: 3" />
	<polygon points="404.566113900376,-281.513620031216 403.033310888327,-280.796538530563 352.618246176848,-163.101309630605 487.943354729551,-118.899252735178 561.5,-167.169758563815 " style="fill: rgb(255,210,63); fill-opacity: 1; stroke: rgb(0,0,0); stroke-width: 3" />
	<polygon points="309.630283427379,-350.455466878783 389.605234934663,-317.940292703017 374.378888906317,-383.650140878813 315.125069888169,-369.897532509276 " style="fill: rgb(67,184,206); fill-opacity: 1; stroke: rgb(0,0,0); stroke-width: 3" />
	<polygon points="209.902997142862,-285.686850005612 208.059770338413,-335.833199066526 159.003045167053,-383.146032505706 150.081613314696,-281.166445415558 " style="fill: rgb(67,184,206); fill-opacity: 1; stroke: rgb(0,0,0); stroke-width: 3" />
	<polygon points="279.936085932771,-281.518558480543 288.791400267918,-317.949857095106 285.837385273251,-328.448274273454 227.376099188436,-334.952424937312 208.059770338413,-335.833199066526 209.902997142862,-285.686850005612 246.321212147976,-230.37040181174 " style="fill: rgb(84,13,110); fill-opacity: 1; stroke: rgb(0,0,0); stroke-width: 3" />
	<polygon points="288.791400267918,-317.949857095106 399.461465725415,-281.518558480543 403.04781767505,-280.872439010682 403.436939272682,-282.519337712663 389.605234934663,-317.940292703017 309.630283427379,-350.455466878783 288.149188090972,-328.837029885097 " style="fill: rgb(84,13,110); fill-opacity: 1; stroke: rgb(0,0,0); stroke-width: 3" />
	<circle cx="279.936085932771" cy="-281.518558480543" r="2" style="fill: rgb(0,0,0)" />
	<circle cx="399.461465725415" cy="-281.518558480543" r="2" style="fill: rgb(0,0,0)" />
	<circle cx="288.791400267918" cy="-317.949857095106" r="2" style="fill: rgb(0,0,0)" />
	<circle cx="254.100469758415" cy="-226.033293706231" r="2" style="fill: rgb(0,0,0)" />
	<circle cx="259.621727555673" cy="-217.735240964389" r="2" style="fill: rgb(0,0,0)" />
	<circle cx="352.618246176848" cy="-163.101309630605" r="2" style="fill: rgb(0,0,0)" />
	<circle cx="403.033310888327" cy="-280.796538530563" r="2" style="fill: rgb(0,0,0)" />
	<circle cx="285.837385273251" cy="-328.448274273454" r="2" style="fill: rgb(0,0,0)" />
	<circle cx="227.376099188436" cy="-334.952424937312" r="2" style="fill: rgb(0,0,0)" />
	<circle cx="208.059770338413" cy="-335.833199066526" r="2" style="fill: rgb(0,0,0)" />
	<circle cx="209.902997142862" cy="-285.686850005612" r="2" style="fill: rgb(0,0,0)" />
	<circle cx="246.321212147976" cy="-230.37040181174" r="2" style="fill: rgb(0,0,0)" />
	<circle cx="403.04781767505" cy="-280.872439010682" r="2" style="fill: rgb(0,0,0)" />
	<circle cx="403.436939272682" cy="-282.519337712663" r="2" style="fill: rgb(0,0,0)" />
	<circle cx="389.605234934663" cy="-317.940292703017" r="2" style="fill: rgb(0,0,0)" />
	<circle cx="309.630283427379" cy="-350.455466878783" r="2" style="fill: rgb(0,0,0)" />
	<circle cx="288.149188090972" cy="-328.837029885097" r="2" style="fill: rgb(0,0,0)" />
	<circle cx="188.100220919988" cy="-231.525376936658" r="2" style="fill: rgb(0,0,0)" />
	<circle cx="172.283565929036" cy="-173.655994309297" r="2" style="fill: rgb(0,0,0)" />
	<circle cx="180.16555885236" cy="-157.337329437677" r="2" style="fill: rgb(0,0,0)" />
	<circle cx="218.267607347481" cy="-126.900075947722" r="2" style="fill: rgb(0,0,0)" />
	<circle cx="261.765289340827" cy="-53.5" r="2" style="fill: rgb(0,0,0)" />
	<circle cx="487.943354729551" cy="-118.899252735178" r="2" style="fill: rgb(0,0,0)" />
	<circle cx="561.5" cy="-167.169758563815" r="2" style="fill: rgb(0,0,0)" />
	<circle cx="404.566113900376" cy="-281.513620031216" r="2" style="fill: rgb(0,0,0)" />
	<circle cx="280.720133726938" cy="-376.653178087451" r="2" style="fill: rgb(0,0,0)" />
	<circle cx="187.672484800296" cy="-409.567692071617" r="2" style="fill: rgb(0,0,0)" />
	<circle cx="187.34447286896" cy="-400.763492022385" r="2" style="fill: rgb(0,0,0)" />
	<circle cx="292.667577102209" cy="-358.149162382763" r="2" style="fill: rgb(0,0,0)" />
	<circle cx="282.336384334382" cy="-375.511565736682" r="2" style="fill: rgb(0,0,0)" />
	<circle cx="281.377017585718" cy="-375.79896269005" r="2" style="fill: rgb(0,0,0)" />
	<circle cx="159.003045167053" cy="-383.146032505706" r="2" style="fill: rgb(0,0,0)" />
	<circle cx="150.081613314696" cy="-281.166445415558" r="2" style="fill: rgb(0,0,0)" />
	<circle cx="521.270277035569" cy="-436.850370798255" r="2" style="fill: rgb(0,0,0)" />
	<circle cx="471.127505124655" cy="-478.837420963933" r="2" style="fill: rgb(0,0,0)" />
	<circle cx="396.18322151522" cy="-385.069689044759" r="2" style="fill: rgb(0,0,0)" />
	<circle cx="374.378888906317" cy="-383.650140878813" r="2" style="fill: rgb(0,0,0)" />
	<circle cx="315.125069888169" cy="-369.897532509276" r="2" style="fill: rgb(0,0,0)" />
	<circle cx="74.8801427541229" cy="-205.152046175869" r="2" style="fill: rgb(0,0,0)" />
	<circle cx="67.3138283773519" cy="-200.638464772386" r="2" style="fill: rgb(0,0,0)" />
	<circle cx="33.5" cy="-117.702598483424" r="2" style="fill: rgb(0,0,0)" />
	<circle cx="81.1768762133696" cy="-72.9351389725274" r="2" style="fill: rgb(0,0,0)" />
	<circle cx="169.15744006623" cy="-72.7297599848442" r="2" style="fill: rgb(0,0,0)" />
	<circle cx="281.688865583119" cy="-376.399130536651" r="2" style="fill: rgb(0,0,0)" />
	<circle cx="299.836036326115" cy="-434.457975678722" r="2" style="fill: rgb(0,0,0)" />
	<circle cx="198.308217068317" cy="-498.498081173219" r="2" style="fill: rgb(0,0,0)" />
	<!--
	Generated using the Perl SVG Module V2.86
	by Ronan Oger
	Info: http://www.roitsystems.com/
	-->
</svg>