<?xml version="1.0" encoding="UTF-8" standalone="yes"?>
<!DOCTYPE svg PUBLIC "-//W3C//DTD SVG 1.0//EN" "http://www.w3.org/TR/2001/REC-SVG-20010904/DTD/svg10.dtd">
<!-- generated using polymake; Michael Joswig, Georg Loho, Benjamin Lorenz, Rico Raber; license CC BY-NC-ND 3.0; see polymake.org and matchthenet.de -->
<svg height="841pt" id="document" viewBox="0 -529.440103980885 572 529.440103980885" width="595pt" xmlns="http://www.w3.org/2000/svg" xmlns:svg="http://www.w3.org/2000/svg" xmlns:xlink="http://www.w3.org/1999/xlink">
	<title id="document_title">planar_net_</title>
	<polygon points="223.466439630495,-304.710421780577 341.822920752399,-304.710421780577 413.333031326315,-344.210586438869 239.213104569934,-381.648539759725 " style="fill: rgb(67,184,206); fill-opacity: 1; stroke: rgb(0,0,0); stroke-width: 3" />
	<polygon points="435.938394764738,-341.85145091106 334.553291098515,-190.302690907673 343.174835030852,-185.602157264079 468.724150438405,-209.025059799883 494.881017738598,-290.930686164054 483.200610907857,-312.265432813886 " style="fill: rgb(238,66,102); fill-opacity: 1; stroke: rgb(0,0,0); stroke-width: 3" />
	<polygon points="84.336016331833,-354.720348217534 87.8734780190571,-357.592299484936 136.326061156188,-418.634540540755 144.004540586228,-439.302509714896 130.594885652922,-463.752492238135 34.9869640594188,-448.736211279516 33.5,-439.55610635032 " style="fill: rgb(84,13,110); fill-opacity: 1; stroke: rgb(0,0,0); stroke-width: 3" />
	<polygon points="260.638258876057,-214.119218835962 341.822920752399,-304.710421780577 223.466439630495,-304.710421780577 193.562458210735,-230.03762921606 " style="fill: rgb(67,184,206); fill-opacity: 1; stroke: rgb(0,0,0); stroke-width: 3" />
	<polygon points="413.333031326315,-344.210586438869 341.822920752399,-304.710421780577 286.706685713463,-196.267275339409 334.553291098515,-190.302690907673 435.938394764738,-341.85145091106 " style="fill: rgb(255,210,63); fill-opacity: 1; stroke: rgb(0,0,0); stroke-width: 3" />
	<polygon points="290.712732789472,-167.314454152125 235.265328565247,-60.6040264134752 242.986190695481,-55.4200437176095 244.165422425231,-55.2846749377068 348.656955871359,-53.5 " style="fill: rgb(255,210,63); fill-opacity: 1; stroke: rgb(0,0,0); stroke-width: 3" />
	<polygon points="261.436101983668,-432.053471717102 309.940618917517,-473.561210936752 304.0366820278,-478.128544799813 278.380550431713,-492.544092897521 251.650675962351,-484.598383258403 " style="fill: rgb(255,210,63); fill-opacity: 1; stroke: rgb(0,0,0); stroke-width: 3" />
	<polygon points="260.593875737407,-427.455563252434 441.24725349958,-411.825493138563 437.689309140316,-435.886755580099 309.940618917517,-473.561210936752 261.436101983668,-432.053471717102 " style="fill: rgb(255,210,63); fill-opacity: 1; stroke: rgb(0,0,0); stroke-width: 3" />
	<polygon points="494.881017738598,-290.930686164054 468.724150438405,-209.025059799883 473.867135262642,-104.644911621912 561.34834490254,-168.137866995545 561.5,-175.600708957281 " style="fill: rgb(255,210,63); fill-opacity: 1; stroke: rgb(0,0,0); stroke-width: 3" />
	<polygon points="239.213104569934,-381.648539759725 413.333031326315,-344.210586438869 432.25860428038,-356.795921753527 441.24725349958,-411.825493138563 260.593875737407,-427.455563252434 238.979608099954,-385.569851926458 " style="fill: rgb(238,66,102); fill-opacity: 1; stroke: rgb(0,0,0); stroke-width: 3" />
	<polygon points="223.466439630495,-304.710421780577 239.213104569934,-381.648539759725 236.626221048875,-384.604760887948 213.018274117126,-385.22751813379 87.8734780190571,-357.592299484936 84.336016331833,-354.720348217534 155.265641467589,-262.061562662431 " style="fill: rgb(84,13,110); fill-opacity: 1; stroke: rgb(0,0,0); stroke-width: 3" />
	<polygon points="87.8734780190571,-357.592299484936 213.018274117126,-385.22751813379 143.023137484557,-412.658832575524 " style="fill: rgb(14,173,105); fill-opacity: 1; stroke: rgb(0,0,0); stroke-width: 3" />
	<polygon points="291.53229828237,-177.099869253922 260.638258876057,-214.119218835962 193.562458210735,-230.03762921606 155.885169634634,-119.597219093682 235.265328565247,-60.6040264134752 290.712732789472,-167.314454152125 " style="fill: rgb(238,66,102); fill-opacity: 1; stroke: rgb(0,0,0); stroke-width: 3" />
	<polygon points="238.979608099954,-385.569851926458 260.593875737407,-427.455563252434 260.512812853312,-432.129270143995 234.651496108633,-478.90441939585 212.610470537161,-479.467613765997 226.417897444119,-405.568012099799 " style="fill: rgb(238,66,102); fill-opacity: 1; stroke: rgb(0,0,0); stroke-width: 3" />
	<polygon points="34.9869640594188,-448.736211279516 130.594885652922,-463.752492238135 134.353666863322,-492.940103980885 35.1958741885363,-449.904658427213 " style="fill: rgb(67,184,206); fill-opacity: 1; stroke: rgb(0,0,0); stroke-width: 3" />
	<circle cx="223.466439630495" cy="-304.710421780577" r="2" style="fill: rgb(0,0,0)" />
	<circle cx="341.822920752399" cy="-304.710421780577" r="2" style="fill: rgb(0,0,0)" />
	<circle cx="413.333031326315" cy="-344.210586438869" r="2" style="fill: rgb(0,0,0)" />
	<circle cx="239.213104569934" cy="-381.648539759725" r="2" style="fill: rgb(0,0,0)" />
	<circle cx="193.562458210735" cy="-230.03762921606" r="2" style="fill: rgb(0,0,0)" />
	<circle cx="260.638258876057" cy="-214.119218835962" r="2" style="fill: rgb(0,0,0)" />
	<circle cx="286.706685713463" cy="-196.267275339409" r="2" style="fill: rgb(0,0,0)" />
	<circle cx="334.553291098515" cy="-190.302690907673" r="2" style="fill: rgb(0,0,0)" />
	<circle cx="435.938394764738" cy="-341.85145091106" r="2" style="fill: rgb(0,0,0)" />
	<circle cx="432.25860428038" cy="-356.795921753527" r="2" style="fill: rgb(0,0,0)" />
	<circle cx="441.24725349958" cy="-411.825493138563" r="2" style="fill: rgb(0,0,0)" />
	<circle cx="260.593875737407" cy="-427.455563252434" r="2" style="fill: rgb(0,0,0)" />
	<circle cx="238.979608099954" cy="-385.569851926458" r="2" style="fill: rgb(0,0,0)" />
	<circle cx="236.626221048875" cy="-384.604760887948" r="2" style="fill: rgb(0,0,0)" />
	<circle cx="213.018274117126" cy="-385.22751813379" r="2" style="fill: rgb(0,0,0)" />
	<circle cx="87.8734780190571" cy="-357.592299484936" r="2" style="fill: rgb(0,0,0)" />
	<circle cx="84.336016331833" cy="-354.720348217534" r="2" style="fill: rgb(0,0,0)" />
	<circle cx="155.265641467589" cy="-262.061562662431" r="2" style="fill: rgb(0,0,0)" />
	<circle cx="155.885169634634" cy="-119.597219093682" r="2" style="fill: rgb(0,0,0)" />
	<circle cx="235.265328565247" cy="-60.6040264134752" r="2" style="fill: rgb(0,0,0)" />
	<circle cx="290.712732789472" cy="-167.314454152125" r="2" style="fill: rgb(0,0,0)" />
	<circle cx="291.53229828237" cy="-177.099869253922" r="2" style="fill: rgb(0,0,0)" />
	<circle cx="343.174835030852" cy="-185.602157264079" r="2" style="fill: rgb(0,0,0)" />
	<circle cx="468.724150438405" cy="-209.025059799883" r="2" style="fill: rgb(0,0,0)" />
	<circle cx="494.881017738598" cy="-290.930686164054" r="2" style="fill: rgb(0,0,0)" />
	<circle cx="483.200610907857" cy="-312.265432813886" r="2" style="fill: rgb(0,0,0)" />
	<circle cx="437.689309140316" cy="-435.886755580099" r="2" style="fill: rgb(0,0,0)" />
	<circle cx="309.940618917517" cy="-473.561210936752" r="2" style="fill: rgb(0,0,0)" />
	<circle cx="261.436101983668" cy="-432.053471717102" r="2" style="fill: rgb(0,0,0)" />
	<circle cx="260.512812853312" cy="-432.129270143995" r="2" style="fill: rgb(0,0,0)" />
	<circle cx="234.651496108633" cy="-478.90441939585" r="2" style="fill: rgb(0,0,0)" />
	<circle cx="212.610470537161" cy="-479.467613765997" r="2" style="fill: rgb(0,0,0)" />
	<circle cx="226.417897444119" cy="-405.568012099799" r="2" style="fill: rgb(0,0,0)" />
	<circle cx="136.326061156188" cy="-418.634540540755" r="2" style="fill: rgb(0,0,0)" />
	<circle cx="144.004540586228" cy="-439.302509714896" r="2" style="fill: rgb(0,0,0)" />
	<circle cx="130.594885652922" cy="-463.752492238135" r="2" style="fill: rgb(0,0,0)" />
	<circle cx="34.9869640594188" cy="-448.736211279516" r="2" style="fill: rgb(0,0,0)" />
	<circle cx="33.5" cy="-439.55610635032" r="2" style="fill: rgb(0,0,0)" />
	<circle cx="143.023137484557" cy="-412.658832575524" r="2" style="fill: rgb(0,0,0)" />
	<circle cx="242.986190695481" cy="-55.4200437176095" r="2" style="fill: rgb(0,0,0)" />
	<circle cx="244.165422425231" cy="-55.2846749377068" r="2" style="fill: rgb(0,0,0)" />
	<circle cx="348.656955871359" cy="-53.5" r="2" style="fill: rgb(0,0,0)" />
	<circle cx="473.867135262642" cy="-104.644911621912" r="2" style="fill: rgb(0,0,0)" />
	<circle cx="561.34834490254" cy="-168.137866995545" r="2" style="fill: rgb(0,0,0)" />
	<circle cx="561.5" cy="-175.600708957281" r="2" style="fill: rgb(0,0,0)" />
	<circle cx="304.0366820278" cy="-478.128544799813" r="2" style="fill: rgb(0,0,0)" />
	<circle cx="278.380550431713" cy="-492.544092897521" r="2" style="fill: rgb(0,0,0)" />
	<circle cx="251.650675962351" cy="-484.598383258403" r="2" style="fill: rgb(0,0,0)" />
	<circle cx="134.353666863322" cy="-492.940103980885" r="2" style="fill: rgb(0,0,0)" />
	<circle cx="35.1958741885363" cy="-449.904658427213" r="2" style="fill: rgb(0,0,0)" />
	<!--
	Generated using the Perl SVG Module V2.86
	by Ronan Oger
	Info: http://www.roitsystems.com/
	-->
</svg>