<?xml version="1.0" encoding="UTF-8" standalone="yes"?>
<!DOCTYPE svg PUBLIC "-//W3C//DTD SVG 1.0//EN" "http://www.w3.org/TR/2001/REC-SVG-20010904/DTD/svg10.dtd">
<!-- generated using polymake; Michael Joswig, Georg Loho, Benjamin Lorenz, Rico Raber; license CC BY-NC-ND 3.0; see polymake.org and matchthenet.de -->
<svg height="841pt" id="document" viewBox="0 -793.48520506751 572 793.48520506751" width="595pt" xmlns="http://www.w3.org/2000/svg" xmlns:svg="http://www.w3.org/2000/svg" xmlns:xlink="http://www.w3.org/1999/xlink">
	<title id="document_title">planar_net_</title>
	<polygon points="390.796021014525,-427.603423906739 426.857597661666,-427.603423906739 391.02390043568,-538.010458618758 307.5573300577,-545.924236656485 301.777545978261,-533.907023406621 " style="fill: rgb(14,173,105); fill-opacity: 1; stroke: rgb(0,0,0); stroke-width: 3" />
	<polygon points="250.576849409346,-393.505977286212 233.561153498942,-252.603553855799 285.284502726838,-309.978680598988 354.951239053532,-403.141000610283 " style="fill: rgb(14,173,105); fill-opacity: 1; stroke: rgb(0,0,0); stroke-width: 3" />
	<polygon points="451.976439559242,-388.213038003919 426.857597661666,-427.603423906739 390.796021014525,-427.603423906739 354.951239053532,-403.141000610283 285.284502726838,-309.978680598988 446.659677467565,-344.109790898548 " style="fill: rgb(14,173,105); fill-opacity: 1; stroke: rgb(0,0,0); stroke-width: 3" />
	<polygon points="33.5,-643.260870691519 258.03872007819,-644.138457984682 269.561492695338,-667.659335905083 263.708709567979,-756.98520506751 240.297245959331,-756.862990353083 48.5031920402344,-662.96239301699 " style="fill: rgb(14,173,105); fill-opacity: 1; stroke: rgb(0,0,0); stroke-width: 3" />
	<polygon points="442.737689114067,-591.417929824066 461.365742893358,-585.444562304088 482.686068301583,-597.483488479829 493.567440555074,-614.24581773999 426.539477981081,-673.580615330671 " style="fill: rgb(14,173,105); fill-opacity: 1; stroke: rgb(0,0,0); stroke-width: 3" />
	<polygon points="546.95191914825,-282.151672283569 481.547439288766,-296.295345085664 525.043296779228,-245.386436659142 539.96156726797,-263.429628459945 " style="fill: rgb(14,173,105); fill-opacity: 1; stroke: rgb(0,0,0); stroke-width: 3" />
	<polygon points="561.5,-301.845462231374 451.976439559242,-388.213038003919 446.659677467565,-344.109790898548 446.652690728212,-317.779491494289 481.547439288766,-296.295345085664 546.95191914825,-282.151672283569 " style="fill: rgb(14,173,105); fill-opacity: 1; stroke: rgb(0,0,0); stroke-width: 3" />
	<polygon points="390.796021014525,-427.603423906739 301.777545978261,-533.907023406621 271.011855740794,-501.031527658896 347.43230326797,-429.290590337133 " style="fill: rgb(14,173,105); fill-opacity: 1; stroke: rgb(0,0,0); stroke-width: 3" />
	<polygon points="481.547439288766,-296.295345085664 446.652690728212,-317.779491494289 424.464500609948,-53.5 522.418342354971,-243.255964823796 " style="fill: rgb(14,173,105); fill-opacity: 1; stroke: rgb(0,0,0); stroke-width: 3" />
	<polygon points="369.437018540803,-632.967255062331 363.901324872601,-672.368510627448 282.077367354506,-654.537949513489 258.03872007819,-644.138457984682 300.300048745958,-591.34824993445 " style="fill: rgb(14,173,105); fill-opacity: 1; stroke: rgb(0,0,0); stroke-width: 3" />
	<polygon points="301.777545978261,-533.907023406621 307.5573300577,-545.924236656485 300.300048745958,-591.34824993445 258.03872007819,-644.138457984682 33.5,-643.260870691519 119.341947980439,-547.446639614953 258.727796707829,-520.714411678923 " style="fill: rgb(14,173,105); fill-opacity: 1; stroke: rgb(0,0,0); stroke-width: 3" />
	<polygon points="391.02390043568,-538.010458618758 426.857597661666,-427.603423906739 469.708587188562,-446.213942878935 461.365742893358,-585.444562304088 442.737689114067,-591.417929824066 407.877257527861,-572.238431548079 " style="fill: rgb(14,173,105); fill-opacity: 1; stroke: rgb(0,0,0); stroke-width: 3" />
	<polygon points="236.443593660933,-250.130743075905 232.512918475938,-121.547086639904 255.558104207987,-130.61158706258 443.228093184123,-318.00406461412 446.659677467565,-344.109790898548 285.284502726838,-309.978680598988 " style="fill: rgb(14,173,105); fill-opacity: 1; stroke: rgb(0,0,0); stroke-width: 3" />
	<polygon points="307.5573300577,-545.924236656485 391.02390043568,-538.010458618758 398.352489094463,-575.452167506008 319.063369550454,-590.462087631866 " style="fill: rgb(14,173,105); fill-opacity: 1; stroke: rgb(0,0,0); stroke-width: 3" />
	<circle cx="390.796021014525" cy="-427.603423906739" r="2" style="fill: rgb(0,0,0)" />
	<circle cx="426.857597661666" cy="-427.603423906739" r="2" style="fill: rgb(0,0,0)" />
	<circle cx="391.02390043568" cy="-538.010458618758" r="2" style="fill: rgb(0,0,0)" />
	<circle cx="307.5573300577" cy="-545.924236656485" r="2" style="fill: rgb(0,0,0)" />
	<circle cx="301.777545978261" cy="-533.907023406621" r="2" style="fill: rgb(0,0,0)" />
	<circle cx="354.951239053532" cy="-403.141000610283" r="2" style="fill: rgb(0,0,0)" />
	<circle cx="285.284502726838" cy="-309.978680598988" r="2" style="fill: rgb(0,0,0)" />
	<circle cx="446.659677467565" cy="-344.109790898548" r="2" style="fill: rgb(0,0,0)" />
	<circle cx="451.976439559242" cy="-388.213038003919" r="2" style="fill: rgb(0,0,0)" />
	<circle cx="271.011855740794" cy="-501.031527658896" r="2" style="fill: rgb(0,0,0)" />
	<circle cx="347.43230326797" cy="-429.290590337133" r="2" style="fill: rgb(0,0,0)" />
	<circle cx="300.300048745958" cy="-591.34824993445" r="2" style="fill: rgb(0,0,0)" />
	<circle cx="258.03872007819" cy="-644.138457984682" r="2" style="fill: rgb(0,0,0)" />
	<circle cx="33.5" cy="-643.260870691519" r="2" style="fill: rgb(0,0,0)" />
	<circle cx="119.341947980439" cy="-547.446639614953" r="2" style="fill: rgb(0,0,0)" />
	<circle cx="258.727796707829" cy="-520.714411678923" r="2" style="fill: rgb(0,0,0)" />
	<circle cx="469.708587188562" cy="-446.213942878935" r="2" style="fill: rgb(0,0,0)" />
	<circle cx="461.365742893358" cy="-585.444562304088" r="2" style="fill: rgb(0,0,0)" />
	<circle cx="442.737689114067" cy="-591.417929824066" r="2" style="fill: rgb(0,0,0)" />
	<circle cx="407.877257527861" cy="-572.238431548079" r="2" style="fill: rgb(0,0,0)" />
	<circle cx="398.352489094463" cy="-575.452167506008" r="2" style="fill: rgb(0,0,0)" />
	<circle cx="319.063369550454" cy="-590.462087631866" r="2" style="fill: rgb(0,0,0)" />
	<circle cx="250.576849409346" cy="-393.505977286212" r="2" style="fill: rgb(0,0,0)" />
	<circle cx="233.561153498942" cy="-252.603553855799" r="2" style="fill: rgb(0,0,0)" />
	<circle cx="446.652690728212" cy="-317.779491494289" r="2" style="fill: rgb(0,0,0)" />
	<circle cx="481.547439288766" cy="-296.295345085664" r="2" style="fill: rgb(0,0,0)" />
	<circle cx="546.95191914825" cy="-282.151672283569" r="2" style="fill: rgb(0,0,0)" />
	<circle cx="561.5" cy="-301.845462231374" r="2" style="fill: rgb(0,0,0)" />
	<circle cx="236.443593660933" cy="-250.130743075905" r="2" style="fill: rgb(0,0,0)" />
	<circle cx="232.512918475938" cy="-121.547086639904" r="2" style="fill: rgb(0,0,0)" />
	<circle cx="255.558104207987" cy="-130.61158706258" r="2" style="fill: rgb(0,0,0)" />
	<circle cx="443.228093184123" cy="-318.00406461412" r="2" style="fill: rgb(0,0,0)" />
	<circle cx="269.561492695338" cy="-667.659335905083" r="2" style="fill: rgb(0,0,0)" />
	<circle cx="263.708709567979" cy="-756.98520506751" r="2" style="fill: rgb(0,0,0)" />
	<circle cx="240.297245959331" cy="-756.862990353083" r="2" style="fill: rgb(0,0,0)" />
	<circle cx="48.5031920402344" cy="-662.96239301699" r="2" style="fill: rgb(0,0,0)" />
	<circle cx="369.437018540803" cy="-632.967255062331" r="2" style="fill: rgb(0,0,0)" />
	<circle cx="363.901324872601" cy="-672.368510627448" r="2" style="fill: rgb(0,0,0)" />
	<circle cx="282.077367354506" cy="-654.537949513489" r="2" style="fill: rgb(0,0,0)" />
	<circle cx="482.686068301583" cy="-597.483488479829" r="2" style="fill: rgb(0,0,0)" />
	<circle cx="493.567440555074" cy="-614.24581773999" r="2" style="fill: rgb(0,0,0)" />
	<circle cx="426.539477981081" cy="-673.580615330671" r="2" style="fill: rgb(0,0,0)" />
	<circle cx="525.043296779228" cy="-245.386436659142" r="2" style="fill: rgb(0,0,0)" />
	<circle cx="539.96156726797" cy="-263.429628459945" r="2" style="fill: rgb(0,0,0)" />
	<circle cx="424.464500609948" cy="-53.5" r="2" style="fill: rgb(0,0,0)" />
	<circle cx="522.418342354971" cy="-243.255964823796" r="2" style="fill: rgb(0,0,0)" />
	<!--
	Generated using the Perl SVG Module V2.84
	by Ronan Oger
	Info: http://www.roitsystems.com/
	-->
</svg>