<?xml version="1.0" encoding="UTF-8" standalone="yes"?>
<!DOCTYPE svg PUBLIC "-//W3C//DTD SVG 1.0//EN" "http://www.w3.org/TR/2001/REC-SVG-20010904/DTD/svg10.dtd">
<!-- generated using polymake; Michael Joswig, Georg Loho, Benjamin Lorenz, Rico Raber; license CC BY-NC-ND 3.0; see polymake.org and matchthenet.de -->
<svg height="841pt" id="document" viewBox="0 -518.786519520024 572 518.786519520024" width="595pt" xmlns="http://www.w3.org/2000/svg" xmlns:svg="http://www.w3.org/2000/svg" xmlns:xlink="http://www.w3.org/1999/xlink">
	<title id="document_title">planar_net_</title>
	<polygon points="362.300703303679,-202.211498983921 424.660608151446,-202.211498983921 408.776434094507,-244.607916192641 391.289060699139,-240.587867063415 " style="fill: rgb(14,173,105); fill-opacity: 1; stroke: rgb(0,0,0); stroke-width: 3" />
	<polygon points="425.798431412566,-200.120860430027 424.660608151446,-202.211498983921 362.300703303679,-202.211498983921 355.759886498429,-194.227362741315 426.209847702569,-181.221885584571 " style="fill: rgb(14,173,105); fill-opacity: 1; stroke: rgb(0,0,0); stroke-width: 3" />
	<polygon points="349.319544292754,-339.475271506857 396.645974128219,-340.214594457931 406.276134354469,-419.848320203664 308.211172483313,-428.188538309349 282.138870285004,-419.98492115894 " style="fill: rgb(14,173,105); fill-opacity: 1; stroke: rgb(0,0,0); stroke-width: 3" />
	<polygon points="219.500893087171,-282.587971457909 192.226503347677,-284.368965733253 81.0563592117864,-254.262640842429 33.5,-190.350310999057 224.826742846861,-180.463454000168 " style="fill: rgb(14,173,105); fill-opacity: 1; stroke: rgb(0,0,0); stroke-width: 3" />
	<polygon points="355.759886498429,-194.227362741315 336.032098204898,-177.39376297401 321.956995150724,-151.354098538891 453.897087678689,-138.190544358492 426.209847702569,-181.221885584571 " style="fill: rgb(14,173,105); fill-opacity: 1; stroke: rgb(0,0,0); stroke-width: 3" />
	<polygon points="489.57881302014,-276.946337263485 469.566553783099,-222.607293993429 462.303543179704,-140.484677681252 538.029952719405,-106.428389708969 530.166418431272,-237.855214597308 495.085248753928,-279.925416525243 " style="fill: rgb(14,173,105); fill-opacity: 1; stroke: rgb(0,0,0); stroke-width: 3" />
	<polygon points="339.201689439117,-283.994451627812 317.417441934361,-320.103249800026 219.500893087171,-282.587971457909 224.826742846861,-180.463454000168 306.832323024534,-167.813853797735 332.248752166158,-182.985464772438 " style="fill: rgb(14,173,105); fill-opacity: 1; stroke: rgb(0,0,0); stroke-width: 3" />
	<polygon points="408.776434094507,-244.607916192641 424.660608151446,-202.211498983921 425.829649566196,-200.138155426483 467.950962028279,-225.575986833956 480.248845234029,-282.16206473244 " style="fill: rgb(14,173,105); fill-opacity: 1; stroke: rgb(0,0,0); stroke-width: 3" />
	<polygon points="406.276134354469,-419.848320203664 415.507827117397,-426.458959602207 409.890079708741,-482.286519520024 308.211172483313,-428.188538309349 " style="fill: rgb(14,173,105); fill-opacity: 1; stroke: rgb(0,0,0); stroke-width: 3" />
	<polygon points="362.300703303679,-202.211498983921 391.289060699139,-240.587867063415 339.201689439117,-283.994451627812 332.248752166158,-182.985464772438 355.520975741859,-194.429210746663 " style="fill: rgb(14,173,105); fill-opacity: 1; stroke: rgb(0,0,0); stroke-width: 3" />
	<polygon points="489.77424616119,-355.613762861686 561.5,-466.023281056391 560.126256294852,-467.732849701069 481.390927484295,-455.602672266928 447.233271861568,-411.088291504252 " style="fill: rgb(14,173,105); fill-opacity: 1; stroke: rgb(0,0,0); stroke-width: 3" />
	<polygon points="469.566553783099,-222.607293993429 425.798431412566,-200.120860430027 426.209847702569,-181.221885584571 458.618587260878,-141.624496965467 462.303543179704,-140.484677681252 " style="fill: rgb(14,173,105); fill-opacity: 1; stroke: rgb(0,0,0); stroke-width: 3" />
	<polygon points="391.289060699139,-240.587867063415 408.776434094507,-244.607916192641 469.169101477423,-298.192852070395 470.70752986059,-304.26154104315 396.645974128219,-340.214594457931 349.319544292754,-339.475271506857 354.657158137545,-297.64336235566 " style="fill: rgb(14,173,105); fill-opacity: 1; stroke: rgb(0,0,0); stroke-width: 3" />
	<polygon points="396.645974128219,-340.214594457931 470.70752986059,-304.26154104315 489.77424616119,-355.613762861686 447.233271861568,-411.088291504252 435.916956228281,-410.157858801434 " style="fill: rgb(14,173,105); fill-opacity: 1; stroke: rgb(0,0,0); stroke-width: 3" />
	<polygon points="456.923357301876,-135.798938142553 453.897087678689,-138.190544358492 321.956995150724,-151.354098538891 284.783818370226,-77.1713344113371 474.897837834582,-53.5 476.412111208538,-55.0864340097304 " style="fill: rgb(14,173,105); fill-opacity: 1; stroke: rgb(0,0,0); stroke-width: 3" />
	<circle cx="362.300703303679" cy="-202.211498983921" r="2" style="fill: rgb(0,0,0)" />
	<circle cx="424.660608151446" cy="-202.211498983921" r="2" style="fill: rgb(0,0,0)" />
	<circle cx="408.776434094507" cy="-244.607916192641" r="2" style="fill: rgb(0,0,0)" />
	<circle cx="391.289060699139" cy="-240.587867063415" r="2" style="fill: rgb(0,0,0)" />
	<circle cx="355.759886498429" cy="-194.227362741315" r="2" style="fill: rgb(0,0,0)" />
	<circle cx="426.209847702569" cy="-181.221885584571" r="2" style="fill: rgb(0,0,0)" />
	<circle cx="425.798431412566" cy="-200.120860430027" r="2" style="fill: rgb(0,0,0)" />
	<circle cx="425.829649566196" cy="-200.138155426483" r="2" style="fill: rgb(0,0,0)" />
	<circle cx="467.950962028279" cy="-225.575986833956" r="2" style="fill: rgb(0,0,0)" />
	<circle cx="480.248845234029" cy="-282.16206473244" r="2" style="fill: rgb(0,0,0)" />
	<circle cx="339.201689439117" cy="-283.994451627812" r="2" style="fill: rgb(0,0,0)" />
	<circle cx="332.248752166158" cy="-182.985464772438" r="2" style="fill: rgb(0,0,0)" />
	<circle cx="355.520975741859" cy="-194.429210746663" r="2" style="fill: rgb(0,0,0)" />
	<circle cx="469.169101477423" cy="-298.192852070395" r="2" style="fill: rgb(0,0,0)" />
	<circle cx="470.70752986059" cy="-304.26154104315" r="2" style="fill: rgb(0,0,0)" />
	<circle cx="396.645974128219" cy="-340.214594457931" r="2" style="fill: rgb(0,0,0)" />
	<circle cx="349.319544292754" cy="-339.475271506857" r="2" style="fill: rgb(0,0,0)" />
	<circle cx="354.657158137545" cy="-297.64336235566" r="2" style="fill: rgb(0,0,0)" />
	<circle cx="336.032098204898" cy="-177.39376297401" r="2" style="fill: rgb(0,0,0)" />
	<circle cx="321.956995150724" cy="-151.354098538891" r="2" style="fill: rgb(0,0,0)" />
	<circle cx="453.897087678689" cy="-138.190544358492" r="2" style="fill: rgb(0,0,0)" />
	<circle cx="458.618587260878" cy="-141.624496965467" r="2" style="fill: rgb(0,0,0)" />
	<circle cx="462.303543179704" cy="-140.484677681252" r="2" style="fill: rgb(0,0,0)" />
	<circle cx="469.566553783099" cy="-222.607293993429" r="2" style="fill: rgb(0,0,0)" />
	<circle cx="317.417441934361" cy="-320.103249800026" r="2" style="fill: rgb(0,0,0)" />
	<circle cx="219.500893087171" cy="-282.587971457909" r="2" style="fill: rgb(0,0,0)" />
	<circle cx="224.826742846861" cy="-180.463454000168" r="2" style="fill: rgb(0,0,0)" />
	<circle cx="306.832323024534" cy="-167.813853797735" r="2" style="fill: rgb(0,0,0)" />
	<circle cx="406.276134354469" cy="-419.848320203664" r="2" style="fill: rgb(0,0,0)" />
	<circle cx="308.211172483313" cy="-428.188538309349" r="2" style="fill: rgb(0,0,0)" />
	<circle cx="282.138870285004" cy="-419.98492115894" r="2" style="fill: rgb(0,0,0)" />
	<circle cx="489.77424616119" cy="-355.613762861686" r="2" style="fill: rgb(0,0,0)" />
	<circle cx="447.233271861568" cy="-411.088291504252" r="2" style="fill: rgb(0,0,0)" />
	<circle cx="435.916956228281" cy="-410.157858801434" r="2" style="fill: rgb(0,0,0)" />
	<circle cx="284.783818370226" cy="-77.1713344113371" r="2" style="fill: rgb(0,0,0)" />
	<circle cx="474.897837834582" cy="-53.5" r="2" style="fill: rgb(0,0,0)" />
	<circle cx="476.412111208538" cy="-55.0864340097304" r="2" style="fill: rgb(0,0,0)" />
	<circle cx="456.923357301876" cy="-135.798938142553" r="2" style="fill: rgb(0,0,0)" />
	<circle cx="538.029952719405" cy="-106.428389708969" r="2" style="fill: rgb(0,0,0)" />
	<circle cx="530.166418431272" cy="-237.855214597308" r="2" style="fill: rgb(0,0,0)" />
	<circle cx="495.085248753928" cy="-279.925416525243" r="2" style="fill: rgb(0,0,0)" />
	<circle cx="489.57881302014" cy="-276.946337263485" r="2" style="fill: rgb(0,0,0)" />
	<circle cx="192.226503347677" cy="-284.368965733253" r="2" style="fill: rgb(0,0,0)" />
	<circle cx="81.0563592117864" cy="-254.262640842429" r="2" style="fill: rgb(0,0,0)" />
	<circle cx="33.5" cy="-190.350310999057" r="2" style="fill: rgb(0,0,0)" />
	<circle cx="415.507827117397" cy="-426.458959602207" r="2" style="fill: rgb(0,0,0)" />
	<circle cx="409.890079708741" cy="-482.286519520024" r="2" style="fill: rgb(0,0,0)" />
	<circle cx="561.5" cy="-466.023281056391" r="2" style="fill: rgb(0,0,0)" />
	<circle cx="560.126256294852" cy="-467.732849701069" r="2" style="fill: rgb(0,0,0)" />
	<circle cx="481.390927484295" cy="-455.602672266928" r="2" style="fill: rgb(0,0,0)" />
	<!--
	Generated using the Perl SVG Module V2.87
	by Ronan Oger

	-->
</svg>