<?xml version="1.0" encoding="UTF-8" standalone="yes"?>
<!DOCTYPE svg PUBLIC "-//W3C//DTD SVG 1.0//EN" "http://www.w3.org/TR/2001/REC-SVG-20010904/DTD/svg10.dtd">
<!-- generated using polymake; Michael Joswig, Georg Loho, Benjamin Lorenz, Rico Raber; license CC BY-NC-ND 3.0; see polymake.org and matchthenet.de -->
<svg height="841pt" id="document" viewBox="0 -506.101449640445 572 506.101449640445" width="595pt" xmlns="http://www.w3.org/2000/svg" xmlns:svg="http://www.w3.org/2000/svg" xmlns:xlink="http://www.w3.org/1999/xlink">
	<title id="document_title">planar_net_</title>
	<polygon points="245.084140408755,-189.815608095702 292.9591955683,-189.815608095702 296.381250902895,-190.711930733765 343.395643398626,-249.798854293595 225.242568433124,-223.317651179296 " style="fill: rgb(14,173,105); fill-opacity: 1; stroke: rgb(0,0,0); stroke-width: 3" />
	<polygon points="319.836154341347,-139.971318134903 318.329659434532,-135.093720918417 345.578034223437,-114.35778917207 427.658781913573,-129.679619140947 432.063756369808,-179.006746868752 " style="fill: rgb(14,173,105); fill-opacity: 1; stroke: rgb(0,0,0); stroke-width: 3" />
	<polygon points="404.364065537892,-263.28985185612 432.063756369808,-179.006746868752 475.853173115744,-155.875462622385 502.137000099707,-158.226318543739 561.5,-235.92061694041 " style="fill: rgb(14,173,105); fill-opacity: 1; stroke: rgb(0,0,0); stroke-width: 3" />
	<polygon points="157.870132477833,-162.481070988401 153.740356176876,-241.419745147967 92.1001175567168,-225.108841758279 33.5,-146.837544446611 40.4603587070886,-147.021758973774 " style="fill: rgb(14,173,105); fill-opacity: 1; stroke: rgb(0,0,0); stroke-width: 3" />
	<polygon points="243.822205018968,-135.847236830404 292.9591955683,-189.815608095702 245.084140408755,-189.815608095702 230.685426885392,-134.447833068999 " style="fill: rgb(14,173,105); fill-opacity: 1; stroke: rgb(0,0,0); stroke-width: 3" />
	<polygon points="343.395643398626,-249.798854293595 296.381250902895,-190.711930733765 319.836154341347,-139.971318134903 432.063756369808,-179.006746868752 404.364065537892,-263.28985185612 381.749633649307,-269.470331173846 " style="fill: rgb(14,173,105); fill-opacity: 1; stroke: rgb(0,0,0); stroke-width: 3" />
	<polygon points="296.381250902895,-190.711930733765 292.9591955683,-189.815608095702 250.787522676423,-130.245658097618 291.685202032299,-131.946833069803 295.908561593252,-134.814535203823 " style="fill: rgb(14,173,105); fill-opacity: 1; stroke: rgb(0,0,0); stroke-width: 3" />
	<polygon points="245.084140408755,-189.815608095702 225.242568433124,-223.317651179296 171.184904076225,-244.577865167802 153.740356176876,-241.419745147967 157.870132477833,-162.481070988401 188.348915743396,-144.113239919042 210.659163272313,-144.122781397291 " style="fill: rgb(14,173,105); fill-opacity: 1; stroke: rgb(0,0,0); stroke-width: 3" />
	<polygon points="225.242568433124,-223.317651179296 343.395643398626,-249.798854293595 369.065291321264,-284.426368589715 182.445388087975,-262.593968841032 " style="fill: rgb(14,173,105); fill-opacity: 1; stroke: rgb(0,0,0); stroke-width: 3" />
	<polygon points="381.749633649307,-269.470331173846 404.364065537892,-263.28985185612 420.722336729421,-421.950445208019 378.355529402008,-469.601449640445 366.178963520547,-456.716682789359 " style="fill: rgb(14,173,105); fill-opacity: 1; stroke: rgb(0,0,0); stroke-width: 3" />
	<polygon points="291.685202032299,-131.946833069803 250.787522676423,-130.245658097618 238.324586908526,-125.862907515669 228.37191435208,-105.895645689742 269.223416624769,-96.3078414837326 294.228335075074,-97.8003066234355 " style="fill: rgb(14,173,105); fill-opacity: 1; stroke: rgb(0,0,0); stroke-width: 3" />
	<polygon points="345.578034223437,-114.35778917207 331.91319283849,-93.3638493602243 414.177236521538,-100.731706961105 420.096884798413,-104.397534644103 427.658781913573,-129.679619140947 " style="fill: rgb(14,173,105); fill-opacity: 1; stroke: rgb(0,0,0); stroke-width: 3" />
	<polygon points="188.348915743396,-144.113239919042 157.870132477833,-162.481070988401 111.532550850361,-53.5 177.136532842875,-103.677442695319 " style="fill: rgb(14,173,105); fill-opacity: 1; stroke: rgb(0,0,0); stroke-width: 3" />
	<circle cx="245.084140408755" cy="-189.815608095702" r="2" style="fill: rgb(0,0,0)" />
	<circle cx="292.9591955683" cy="-189.815608095702" r="2" style="fill: rgb(0,0,0)" />
	<circle cx="296.381250902895" cy="-190.711930733765" r="2" style="fill: rgb(0,0,0)" />
	<circle cx="343.395643398626" cy="-249.798854293595" r="2" style="fill: rgb(0,0,0)" />
	<circle cx="225.242568433124" cy="-223.317651179296" r="2" style="fill: rgb(0,0,0)" />
	<circle cx="230.685426885392" cy="-134.447833068999" r="2" style="fill: rgb(0,0,0)" />
	<circle cx="243.822205018968" cy="-135.847236830404" r="2" style="fill: rgb(0,0,0)" />
	<circle cx="319.836154341347" cy="-139.971318134903" r="2" style="fill: rgb(0,0,0)" />
	<circle cx="432.063756369808" cy="-179.006746868752" r="2" style="fill: rgb(0,0,0)" />
	<circle cx="404.364065537892" cy="-263.28985185612" r="2" style="fill: rgb(0,0,0)" />
	<circle cx="381.749633649307" cy="-269.470331173846" r="2" style="fill: rgb(0,0,0)" />
	<circle cx="250.787522676423" cy="-130.245658097618" r="2" style="fill: rgb(0,0,0)" />
	<circle cx="291.685202032299" cy="-131.946833069803" r="2" style="fill: rgb(0,0,0)" />
	<circle cx="295.908561593252" cy="-134.814535203823" r="2" style="fill: rgb(0,0,0)" />
	<circle cx="171.184904076225" cy="-244.577865167802" r="2" style="fill: rgb(0,0,0)" />
	<circle cx="153.740356176876" cy="-241.419745147967" r="2" style="fill: rgb(0,0,0)" />
	<circle cx="157.870132477833" cy="-162.481070988401" r="2" style="fill: rgb(0,0,0)" />
	<circle cx="188.348915743396" cy="-144.113239919042" r="2" style="fill: rgb(0,0,0)" />
	<circle cx="210.659163272313" cy="-144.122781397291" r="2" style="fill: rgb(0,0,0)" />
	<circle cx="369.065291321264" cy="-284.426368589715" r="2" style="fill: rgb(0,0,0)" />
	<circle cx="182.445388087975" cy="-262.593968841032" r="2" style="fill: rgb(0,0,0)" />
	<circle cx="318.329659434532" cy="-135.093720918417" r="2" style="fill: rgb(0,0,0)" />
	<circle cx="345.578034223437" cy="-114.35778917207" r="2" style="fill: rgb(0,0,0)" />
	<circle cx="427.658781913573" cy="-129.679619140947" r="2" style="fill: rgb(0,0,0)" />
	<circle cx="475.853173115744" cy="-155.875462622385" r="2" style="fill: rgb(0,0,0)" />
	<circle cx="502.137000099707" cy="-158.226318543739" r="2" style="fill: rgb(0,0,0)" />
	<circle cx="561.5" cy="-235.92061694041" r="2" style="fill: rgb(0,0,0)" />
	<circle cx="420.722336729421" cy="-421.950445208019" r="2" style="fill: rgb(0,0,0)" />
	<circle cx="378.355529402008" cy="-469.601449640445" r="2" style="fill: rgb(0,0,0)" />
	<circle cx="366.178963520547" cy="-456.716682789359" r="2" style="fill: rgb(0,0,0)" />
	<circle cx="238.324586908526" cy="-125.862907515669" r="2" style="fill: rgb(0,0,0)" />
	<circle cx="228.37191435208" cy="-105.895645689742" r="2" style="fill: rgb(0,0,0)" />
	<circle cx="269.223416624769" cy="-96.3078414837326" r="2" style="fill: rgb(0,0,0)" />
	<circle cx="294.228335075074" cy="-97.8003066234355" r="2" style="fill: rgb(0,0,0)" />
	<circle cx="92.1001175567168" cy="-225.108841758279" r="2" style="fill: rgb(0,0,0)" />
	<circle cx="33.5" cy="-146.837544446611" r="2" style="fill: rgb(0,0,0)" />
	<circle cx="40.4603587070886" cy="-147.021758973774" r="2" style="fill: rgb(0,0,0)" />
	<circle cx="111.532550850361" cy="-53.5" r="2" style="fill: rgb(0,0,0)" />
	<circle cx="177.136532842875" cy="-103.677442695319" r="2" style="fill: rgb(0,0,0)" />
	<circle cx="331.91319283849" cy="-93.3638493602243" r="2" style="fill: rgb(0,0,0)" />
	<circle cx="414.177236521538" cy="-100.731706961105" r="2" style="fill: rgb(0,0,0)" />
	<circle cx="420.096884798413" cy="-104.397534644103" r="2" style="fill: rgb(0,0,0)" />
	<!--
	Generated using the Perl SVG Module V2.87
	by Ronan Oger

	-->
</svg>