<?xml version="1.0" encoding="UTF-8" standalone="yes"?>
<!DOCTYPE svg PUBLIC "-//W3C//DTD SVG 1.0//EN" "http://www.w3.org/TR/2001/REC-SVG-20010904/DTD/svg10.dtd">
<!-- generated using polymake; Michael Joswig, Georg Loho, Benjamin Lorenz, Rico Raber; license CC BY-NC-ND 3.0; see polymake.org and matchthenet.de -->
<svg height="841pt" id="document" viewBox="0 -483.716746049208 572 483.716746049208" width="595pt" xmlns="http://www.w3.org/2000/svg" xmlns:svg="http://www.w3.org/2000/svg" xmlns:xlink="http://www.w3.org/1999/xlink">
	<title id="document_title">planar_net_</title>
	<polygon points="286.26618578732,-233.024973042729 289.467548904916,-233.024973042729 320.73365643714,-242.58093949614 292.354430528742,-280.452292219536 227.476765766349,-260.076817261246 " style="fill: rgb(14,173,105); fill-opacity: 1; stroke: rgb(0,0,0); stroke-width: 3" />
	<polygon points="202.567976550756,-108.00318080619 75.1268091862611,-159.218463925502 182.402164696656,-63.9233398207457 233.651619949084,-53.5 " style="fill: rgb(14,173,105); fill-opacity: 1; stroke: rgb(0,0,0); stroke-width: 3" />
	<polygon points="274.711700794996,-345.738289985778 297.296874514401,-331.450081296928 341.417378050596,-349.495590628845 392.179060537768,-419.93722092199 359.370182253826,-417.970079583401 " style="fill: rgb(14,173,105); fill-opacity: 1; stroke: rgb(0,0,0); stroke-width: 3" />
	<polygon points="300.62370336893,-146.816796145207 292.038166707562,-176.381205189829 274.139574089113,-204.622749659857 220.012330794487,-173.123722192807 " style="fill: rgb(14,173,105); fill-opacity: 1; stroke: rgb(0,0,0); stroke-width: 3" />
	<polygon points="377.705892455208,-84.3678342099363 300.62370336893,-146.816796145207 220.012330794487,-173.123722192807 33.5,-191.055348413222 45.0736448921743,-181.27582058597 75.1268091862611,-159.218463925502 202.567976550756,-108.00318080619 369.895185639464,-59.9375134760124 " style="fill: rgb(14,173,105); fill-opacity: 1; stroke: rgb(0,0,0); stroke-width: 3" />
	<polygon points="292.038166707562,-176.381205189829 289.467548904916,-233.024973042729 286.26618578732,-233.024973042729 274.139574089113,-204.622749659857 " style="fill: rgb(14,173,105); fill-opacity: 1; stroke: rgb(0,0,0); stroke-width: 3" />
	<polygon points="292.354430528742,-280.452292219536 320.73365643714,-242.58093949614 345.358496083059,-243.124004513025 343.538278806648,-251.669911876765 304.376988817757,-324.982034048589 " style="fill: rgb(14,173,105); fill-opacity: 1; stroke: rgb(0,0,0); stroke-width: 3" />
	<polygon points="59.0033943325398,-303.980979473613 266.698123300875,-346.241565977837 258.994907562472,-412.404661075634 51.4526924312708,-328.936482502133 41.1174180364263,-317.856296411751 " style="fill: rgb(14,173,105); fill-opacity: 1; stroke: rgb(0,0,0); stroke-width: 3" />
	<polygon points="227.476765766349,-260.076817261246 292.354430528742,-280.452292219536 298.754361522461,-326.130303323923 297.296874514401,-331.450081296928 274.711700794996,-345.738289985778 266.698123300875,-346.241565977837 59.0033943325398,-303.980979473613 " style="fill: rgb(14,173,105); fill-opacity: 1; stroke: rgb(0,0,0); stroke-width: 3" />
	<polygon points="491.033579184917,-238.756288803225 561.5,-397.951724714009 504.573697908582,-371.566392896835 453.657909842356,-307.211850849632 " style="fill: rgb(14,173,105); fill-opacity: 1; stroke: rgb(0,0,0); stroke-width: 3" />
	<polygon points="320.73365643714,-242.58093949614 289.467548904916,-233.024973042729 298.735371045518,-177.08543438508 311.124433978323,-148.902516836171 405.293334190406,-117.697469905031 344.553415866967,-236.312230864796 " style="fill: rgb(14,173,105); fill-opacity: 1; stroke: rgb(0,0,0); stroke-width: 3" />
	<polygon points="440.36756281723,-321.163031491777 453.657909842356,-307.211850849632 480.648873340467,-384.706447086744 477.617283959736,-436.917194471903 440.743053984138,-379.639239439642 434.694961532291,-353.537616183455 " style="fill: rgb(14,173,105); fill-opacity: 1; stroke: rgb(0,0,0); stroke-width: 3" />
	<polygon points="345.358496083059,-243.124004513025 476.198758288418,-217.833196271473 491.033579184917,-238.756288803225 453.657909842356,-307.211850849632 440.36756281723,-321.163031491777 353.675814668336,-316.334730530641 343.538278806648,-251.669911876765 " style="fill: rgb(14,173,105); fill-opacity: 1; stroke: rgb(0,0,0); stroke-width: 3" />
	<polygon points="266.698123300875,-346.241565977837 274.711700794996,-345.738289985778 320.391158611055,-447.216746049208 294.861823234499,-439.084883154081 276.166964632052,-412.175136558208 " style="fill: rgb(14,173,105); fill-opacity: 1; stroke: rgb(0,0,0); stroke-width: 3" />
	<polygon points="286.26618578732,-233.024973042729 227.476765766349,-260.076817261246 54.2458034604595,-277.451685330473 39.1733667786249,-260.562214626173 210.958279004477,-185.740181181094 269.930663580242,-206.816353876668 " style="fill: rgb(14,173,105); fill-opacity: 1; stroke: rgb(0,0,0); stroke-width: 3" />
	<polygon points="77.5361585699842,-355.570529530805 51.4526924312708,-328.936482502133 258.994907562472,-412.404661075634 269.57080713606,-443.417280252821 205.253559203083,-420.972579602177 " style="fill: rgb(14,173,105); fill-opacity: 1; stroke: rgb(0,0,0); stroke-width: 3" />
	<polygon points="304.376988817757,-324.982034048589 343.538278806648,-251.669911876765 349.865960209976,-316.817965208761 304.202016746018,-330.495081376046 " style="fill: rgb(14,173,105); fill-opacity: 1; stroke: rgb(0,0,0); stroke-width: 3" />
	<circle cx="286.26618578732" cy="-233.024973042729" r="2" style="fill: rgb(0,0,0)" />
	<circle cx="289.467548904916" cy="-233.024973042729" r="2" style="fill: rgb(0,0,0)" />
	<circle cx="320.73365643714" cy="-242.58093949614" r="2" style="fill: rgb(0,0,0)" />
	<circle cx="292.354430528742" cy="-280.452292219536" r="2" style="fill: rgb(0,0,0)" />
	<circle cx="227.476765766349" cy="-260.076817261246" r="2" style="fill: rgb(0,0,0)" />
	<circle cx="274.139574089113" cy="-204.622749659857" r="2" style="fill: rgb(0,0,0)" />
	<circle cx="292.038166707562" cy="-176.381205189829" r="2" style="fill: rgb(0,0,0)" />
	<circle cx="345.358496083059" cy="-243.124004513025" r="2" style="fill: rgb(0,0,0)" />
	<circle cx="343.538278806648" cy="-251.669911876765" r="2" style="fill: rgb(0,0,0)" />
	<circle cx="304.376988817757" cy="-324.982034048589" r="2" style="fill: rgb(0,0,0)" />
	<circle cx="298.754361522461" cy="-326.130303323923" r="2" style="fill: rgb(0,0,0)" />
	<circle cx="297.296874514401" cy="-331.450081296928" r="2" style="fill: rgb(0,0,0)" />
	<circle cx="274.711700794996" cy="-345.738289985778" r="2" style="fill: rgb(0,0,0)" />
	<circle cx="266.698123300875" cy="-346.241565977837" r="2" style="fill: rgb(0,0,0)" />
	<circle cx="59.0033943325398" cy="-303.980979473613" r="2" style="fill: rgb(0,0,0)" />
	<circle cx="298.735371045518" cy="-177.08543438508" r="2" style="fill: rgb(0,0,0)" />
	<circle cx="311.124433978323" cy="-148.902516836171" r="2" style="fill: rgb(0,0,0)" />
	<circle cx="405.293334190406" cy="-117.697469905031" r="2" style="fill: rgb(0,0,0)" />
	<circle cx="344.553415866967" cy="-236.312230864796" r="2" style="fill: rgb(0,0,0)" />
	<circle cx="54.2458034604595" cy="-277.451685330473" r="2" style="fill: rgb(0,0,0)" />
	<circle cx="39.1733667786249" cy="-260.562214626173" r="2" style="fill: rgb(0,0,0)" />
	<circle cx="210.958279004477" cy="-185.740181181094" r="2" style="fill: rgb(0,0,0)" />
	<circle cx="269.930663580242" cy="-206.816353876668" r="2" style="fill: rgb(0,0,0)" />
	<circle cx="220.012330794487" cy="-173.123722192807" r="2" style="fill: rgb(0,0,0)" />
	<circle cx="300.62370336893" cy="-146.816796145207" r="2" style="fill: rgb(0,0,0)" />
	<circle cx="476.198758288418" cy="-217.833196271473" r="2" style="fill: rgb(0,0,0)" />
	<circle cx="491.033579184917" cy="-238.756288803225" r="2" style="fill: rgb(0,0,0)" />
	<circle cx="453.657909842356" cy="-307.211850849632" r="2" style="fill: rgb(0,0,0)" />
	<circle cx="440.36756281723" cy="-321.163031491777" r="2" style="fill: rgb(0,0,0)" />
	<circle cx="353.675814668336" cy="-316.334730530641" r="2" style="fill: rgb(0,0,0)" />
	<circle cx="349.865960209976" cy="-316.817965208761" r="2" style="fill: rgb(0,0,0)" />
	<circle cx="304.202016746018" cy="-330.495081376046" r="2" style="fill: rgb(0,0,0)" />
	<circle cx="341.417378050596" cy="-349.495590628845" r="2" style="fill: rgb(0,0,0)" />
	<circle cx="392.179060537768" cy="-419.93722092199" r="2" style="fill: rgb(0,0,0)" />
	<circle cx="359.370182253826" cy="-417.970079583401" r="2" style="fill: rgb(0,0,0)" />
	<circle cx="258.994907562472" cy="-412.404661075634" r="2" style="fill: rgb(0,0,0)" />
	<circle cx="51.4526924312708" cy="-328.936482502133" r="2" style="fill: rgb(0,0,0)" />
	<circle cx="41.1174180364263" cy="-317.856296411751" r="2" style="fill: rgb(0,0,0)" />
	<circle cx="320.391158611055" cy="-447.216746049208" r="2" style="fill: rgb(0,0,0)" />
	<circle cx="294.861823234499" cy="-439.084883154081" r="2" style="fill: rgb(0,0,0)" />
	<circle cx="276.166964632052" cy="-412.175136558208" r="2" style="fill: rgb(0,0,0)" />
	<circle cx="33.5" cy="-191.055348413222" r="2" style="fill: rgb(0,0,0)" />
	<circle cx="45.0736448921743" cy="-181.27582058597" r="2" style="fill: rgb(0,0,0)" />
	<circle cx="75.1268091862611" cy="-159.218463925502" r="2" style="fill: rgb(0,0,0)" />
	<circle cx="202.567976550756" cy="-108.00318080619" r="2" style="fill: rgb(0,0,0)" />
	<circle cx="369.895185639464" cy="-59.9375134760124" r="2" style="fill: rgb(0,0,0)" />
	<circle cx="377.705892455208" cy="-84.3678342099363" r="2" style="fill: rgb(0,0,0)" />
	<circle cx="561.5" cy="-397.951724714009" r="2" style="fill: rgb(0,0,0)" />
	<circle cx="504.573697908582" cy="-371.566392896835" r="2" style="fill: rgb(0,0,0)" />
	<circle cx="480.648873340467" cy="-384.706447086744" r="2" style="fill: rgb(0,0,0)" />
	<circle cx="477.617283959736" cy="-436.917194471903" r="2" style="fill: rgb(0,0,0)" />
	<circle cx="440.743053984138" cy="-379.639239439642" r="2" style="fill: rgb(0,0,0)" />
	<circle cx="434.694961532291" cy="-353.537616183455" r="2" style="fill: rgb(0,0,0)" />
	<circle cx="269.57080713606" cy="-443.417280252821" r="2" style="fill: rgb(0,0,0)" />
	<circle cx="205.253559203083" cy="-420.972579602177" r="2" style="fill: rgb(0,0,0)" />
	<circle cx="77.5361585699842" cy="-355.570529530805" r="2" style="fill: rgb(0,0,0)" />
	<circle cx="182.402164696656" cy="-63.9233398207457" r="2" style="fill: rgb(0,0,0)" />
	<circle cx="233.651619949084" cy="-53.5" r="2" style="fill: rgb(0,0,0)" />
	<!--
	Generated using the Perl SVG Module V2.86
	by Ronan Oger
	Info: http://www.roitsystems.com/
	-->
</svg>