<?xml version="1.0" encoding="UTF-8" standalone="yes"?>
<!DOCTYPE svg PUBLIC "-//W3C//DTD SVG 1.0//EN" "http://www.w3.org/TR/2001/REC-SVG-20010904/DTD/svg10.dtd">
<!-- generated using polymake; Michael Joswig, Georg Loho, Benjamin Lorenz, Rico Raber; license CC BY-NC-ND 3.0; see polymake.org and matchthenet.de -->
<svg height="841pt" id="document" viewBox="0 -524.462553720595 572 524.462553720595" width="595pt" xmlns="http://www.w3.org/2000/svg" xmlns:svg="http://www.w3.org/2000/svg" xmlns:xlink="http://www.w3.org/1999/xlink">
	<title id="document_title">planar_net_</title>
	<polygon points="358.217153935286,-349.546460036421 410.897436299294,-349.546460036421 379.788945702426,-379.888203400863 " style="fill: rgb(14,173,105); fill-opacity: 1; stroke: rgb(0,0,0); stroke-width: 3" />
	<polygon points="238.9077204614,-239.187993623458 33.5,-99.0148563878803 35.386757339633,-97.5012480320932 136.388760822788,-80.5614829255248 337.571789601158,-135.487285731848 " style="fill: rgb(14,173,105); fill-opacity: 1; stroke: rgb(0,0,0); stroke-width: 3" />
	<polygon points="412.432430958595,-349.367657635124 410.897436299294,-349.546460036421 358.217153935286,-349.546460036421 238.9077204614,-239.187993623458 337.571789601158,-135.487285731848 377.454303895548,-166.985365795969 " style="fill: rgb(14,173,105); fill-opacity: 1; stroke: rgb(0,0,0); stroke-width: 3" />
	<polygon points="35.386757339633,-97.5012480320932 86.0429970720704,-53.5 125.453661292494,-59.2893670773442 136.388760822788,-80.5614829255248 " style="fill: rgb(14,173,105); fill-opacity: 1; stroke: rgb(0,0,0); stroke-width: 3" />
	<polygon points="419.200003845181,-375.223757829488 422.424823341632,-369.490614620216 436.726419399415,-399.008921211396 434.079853629334,-403.353688302547 420.753433615785,-401.819525297464 " style="fill: rgb(14,173,105); fill-opacity: 1; stroke: rgb(0,0,0); stroke-width: 3" />
	<polygon points="427.750837975491,-365.02472162509 412.432430958595,-349.367657635124 377.454303895548,-166.985365795969 454.752910088163,-286.163174033552 467.117591170128,-325.88048996315 457.750631572707,-345.369798295543 " style="fill: rgb(14,173,105); fill-opacity: 1; stroke: rgb(0,0,0); stroke-width: 3" />
	<polygon points="436.726419399415,-399.008921211396 445.372967226421,-396.370015903543 446.564454792012,-406.472937461381 437.089112820413,-410.90577692606 434.079853629334,-403.353688302547 " style="fill: rgb(14,173,105); fill-opacity: 1; stroke: rgb(0,0,0); stroke-width: 3" />
	<polygon points="377.454303895548,-166.985365795969 337.571789601158,-135.487285731848 545.758926590721,-123.257368543512 561.5,-141.265642262016 518.866456980471,-180.440010181331 " style="fill: rgb(14,173,105); fill-opacity: 1; stroke: rgb(0,0,0); stroke-width: 3" />
	<polygon points="379.788945702426,-379.888203400863 410.897436299294,-349.546460036421 412.434652081417,-349.387883424082 422.634077616036,-368.772644580336 422.424823341632,-369.490614620216 419.200003845181,-375.223757829488 385.748294525633,-389.541374147151 " style="fill: rgb(14,173,105); fill-opacity: 1; stroke: rgb(0,0,0); stroke-width: 3" />
	<polygon points="457.750631572707,-345.369798295543 467.117591170128,-325.88048996315 493.967899314945,-359.728094114096 475.730684520303,-371.172828729285 466.451104757105,-367.00412796751 " style="fill: rgb(14,173,105); fill-opacity: 1; stroke: rgb(0,0,0); stroke-width: 3" />
	<polygon points="385.748294525633,-389.541374147151 419.200003845181,-375.223757829488 416.89833942798,-401.76524106184 392.053015517808,-432.963192959421 " style="fill: rgb(14,173,105); fill-opacity: 1; stroke: rgb(0,0,0); stroke-width: 3" />
	<polygon points="346.945520418977,-477.499290131237 356.083539940725,-469.01474631813 427.431864905284,-454.311494071163 435.391698798472,-461.09921943325 433.627735707434,-482.557699996696 415.574695010358,-487.962553720595 349.146851509371,-478.50178947978 " style="fill: rgb(14,173,105); fill-opacity: 1; stroke: rgb(0,0,0); stroke-width: 3" />
	<polygon points="422.424823341632,-369.490614620216 422.634077616036,-368.772644580336 458.296006714384,-372.584525998985 447.939161177826,-393.47658680014 439.763122020068,-397.333916736672 " style="fill: rgb(14,173,105); fill-opacity: 1; stroke: rgb(0,0,0); stroke-width: 3" />
	<polygon points="356.083539940725,-469.01474631813 387.569043924687,-440.188368382472 427.221661242726,-435.913761659812 432.729682805037,-448.145230294965 427.431864905284,-454.311494071163 " style="fill: rgb(14,173,105); fill-opacity: 1; stroke: rgb(0,0,0); stroke-width: 3" />
	<polygon points="358.217153935286,-349.546460036421 379.788945702426,-379.888203400863 385.376399941362,-389.761293037926 379.347051398143,-433.222204347982 356.083539940725,-469.01474631813 346.945520418977,-477.499290131237 220.379566360642,-263.438786299019 " style="fill: rgb(14,173,105); fill-opacity: 1; stroke: rgb(0,0,0); stroke-width: 3" />
	<polygon points="467.117591170128,-325.88048996315 454.752910088163,-286.163174033552 507.472369505154,-310.098685121978 524.619454440599,-346.052748921049 505.797397839808,-345.128136838238 " style="fill: rgb(14,173,105); fill-opacity: 1; stroke: rgb(0,0,0); stroke-width: 3" />
	<circle cx="358.217153935286" cy="-349.546460036421" r="2" style="fill: rgb(0,0,0)" />
	<circle cx="410.897436299294" cy="-349.546460036421" r="2" style="fill: rgb(0,0,0)" />
	<circle cx="379.788945702426" cy="-379.888203400863" r="2" style="fill: rgb(0,0,0)" />
	<circle cx="238.9077204614" cy="-239.187993623458" r="2" style="fill: rgb(0,0,0)" />
	<circle cx="337.571789601158" cy="-135.487285731848" r="2" style="fill: rgb(0,0,0)" />
	<circle cx="377.454303895548" cy="-166.985365795969" r="2" style="fill: rgb(0,0,0)" />
	<circle cx="412.432430958595" cy="-349.367657635124" r="2" style="fill: rgb(0,0,0)" />
	<circle cx="412.434652081417" cy="-349.387883424082" r="2" style="fill: rgb(0,0,0)" />
	<circle cx="422.634077616036" cy="-368.772644580336" r="2" style="fill: rgb(0,0,0)" />
	<circle cx="422.424823341632" cy="-369.490614620216" r="2" style="fill: rgb(0,0,0)" />
	<circle cx="419.200003845181" cy="-375.223757829488" r="2" style="fill: rgb(0,0,0)" />
	<circle cx="385.748294525633" cy="-389.541374147151" r="2" style="fill: rgb(0,0,0)" />
	<circle cx="385.376399941362" cy="-389.761293037926" r="2" style="fill: rgb(0,0,0)" />
	<circle cx="379.347051398143" cy="-433.222204347982" r="2" style="fill: rgb(0,0,0)" />
	<circle cx="356.083539940725" cy="-469.01474631813" r="2" style="fill: rgb(0,0,0)" />
	<circle cx="346.945520418977" cy="-477.499290131237" r="2" style="fill: rgb(0,0,0)" />
	<circle cx="220.379566360642" cy="-263.438786299019" r="2" style="fill: rgb(0,0,0)" />
	<circle cx="33.5" cy="-99.0148563878803" r="2" style="fill: rgb(0,0,0)" />
	<circle cx="35.386757339633" cy="-97.5012480320932" r="2" style="fill: rgb(0,0,0)" />
	<circle cx="136.388760822788" cy="-80.5614829255248" r="2" style="fill: rgb(0,0,0)" />
	<circle cx="454.752910088163" cy="-286.163174033552" r="2" style="fill: rgb(0,0,0)" />
	<circle cx="467.117591170128" cy="-325.88048996315" r="2" style="fill: rgb(0,0,0)" />
	<circle cx="457.750631572707" cy="-345.369798295543" r="2" style="fill: rgb(0,0,0)" />
	<circle cx="427.750837975491" cy="-365.02472162509" r="2" style="fill: rgb(0,0,0)" />
	<circle cx="545.758926590721" cy="-123.257368543512" r="2" style="fill: rgb(0,0,0)" />
	<circle cx="561.5" cy="-141.265642262016" r="2" style="fill: rgb(0,0,0)" />
	<circle cx="518.866456980471" cy="-180.440010181331" r="2" style="fill: rgb(0,0,0)" />
	<circle cx="436.726419399415" cy="-399.008921211396" r="2" style="fill: rgb(0,0,0)" />
	<circle cx="434.079853629334" cy="-403.353688302547" r="2" style="fill: rgb(0,0,0)" />
	<circle cx="420.753433615785" cy="-401.819525297464" r="2" style="fill: rgb(0,0,0)" />
	<circle cx="416.89833942798" cy="-401.76524106184" r="2" style="fill: rgb(0,0,0)" />
	<circle cx="392.053015517808" cy="-432.963192959421" r="2" style="fill: rgb(0,0,0)" />
	<circle cx="458.296006714384" cy="-372.584525998985" r="2" style="fill: rgb(0,0,0)" />
	<circle cx="447.939161177826" cy="-393.47658680014" r="2" style="fill: rgb(0,0,0)" />
	<circle cx="439.763122020068" cy="-397.333916736672" r="2" style="fill: rgb(0,0,0)" />
	<circle cx="427.431864905284" cy="-454.311494071163" r="2" style="fill: rgb(0,0,0)" />
	<circle cx="435.391698798472" cy="-461.09921943325" r="2" style="fill: rgb(0,0,0)" />
	<circle cx="433.627735707434" cy="-482.557699996696" r="2" style="fill: rgb(0,0,0)" />
	<circle cx="415.574695010358" cy="-487.962553720595" r="2" style="fill: rgb(0,0,0)" />
	<circle cx="349.146851509371" cy="-478.50178947978" r="2" style="fill: rgb(0,0,0)" />
	<circle cx="86.0429970720704" cy="-53.5" r="2" style="fill: rgb(0,0,0)" />
	<circle cx="125.453661292494" cy="-59.2893670773442" r="2" style="fill: rgb(0,0,0)" />
	<circle cx="493.967899314945" cy="-359.728094114096" r="2" style="fill: rgb(0,0,0)" />
	<circle cx="475.730684520303" cy="-371.172828729285" r="2" style="fill: rgb(0,0,0)" />
	<circle cx="466.451104757105" cy="-367.00412796751" r="2" style="fill: rgb(0,0,0)" />
	<circle cx="507.472369505154" cy="-310.098685121978" r="2" style="fill: rgb(0,0,0)" />
	<circle cx="524.619454440599" cy="-346.052748921049" r="2" style="fill: rgb(0,0,0)" />
	<circle cx="505.797397839808" cy="-345.128136838238" r="2" style="fill: rgb(0,0,0)" />
	<circle cx="445.372967226421" cy="-396.370015903543" r="2" style="fill: rgb(0,0,0)" />
	<circle cx="446.564454792012" cy="-406.472937461381" r="2" style="fill: rgb(0,0,0)" />
	<circle cx="437.089112820413" cy="-410.90577692606" r="2" style="fill: rgb(0,0,0)" />
	<circle cx="387.569043924687" cy="-440.188368382472" r="2" style="fill: rgb(0,0,0)" />
	<circle cx="427.221661242726" cy="-435.913761659812" r="2" style="fill: rgb(0,0,0)" />
	<circle cx="432.729682805037" cy="-448.145230294965" r="2" style="fill: rgb(0,0,0)" />
	<!--
	Generated using the Perl SVG Module V2.87
	by Ronan Oger

	-->
</svg>