<?xml version="1.0" encoding="UTF-8" standalone="yes"?>
<!DOCTYPE svg PUBLIC "-//W3C//DTD SVG 1.0//EN" "http://www.w3.org/TR/2001/REC-SVG-20010904/DTD/svg10.dtd">
<!-- generated using polymake; Michael Joswig, Georg Loho, Benjamin Lorenz, Rico Raber; license CC BY-NC-ND 3.0; see polymake.org and matchthenet.de -->
<svg height="841pt" id="document" viewBox="0 -811 527.243495436193 811" width="595pt" xmlns="http://www.w3.org/2000/svg" xmlns:svg="http://www.w3.org/2000/svg" xmlns:xlink="http://www.w3.org/1999/xlink">
	<title id="document_title">planar_net_</title>
	<polygon points="189.850213272204,-376.288745798627 223.620212226323,-376.288745798627 243.723080213837,-393.898371629173 284.341030486305,-461.12267187177 281.89908559344,-563.120440676133 231.449812076239,-585.796819675849 171.541757628888,-493.146984027917 " style="fill: rgb(84,13,110); fill-opacity: 1; stroke: rgb(0,0,0); stroke-width: 3" />
	<polygon points="265.654589672027,-232.779506217835 223.620212226323,-376.288745798627 189.850213272204,-376.288745798627 180.907687205133,-247.55449890295 205.192147951507,-151.371835843188 " style="fill: rgb(255,210,63); fill-opacity: 1; stroke: rgb(0,0,0); stroke-width: 3" />
	<polygon points="378.105783145141,-512.026806189702 378.467656120282,-511.888036536425 516.743495436193,-613.85774881035 477.324075904876,-691.042826323706 348.68126080734,-603.259651257699 339.487707260502,-590.967401153973 " style="fill: rgb(238,66,102); fill-opacity: 1; stroke: rgb(0,0,0); stroke-width: 3" />
	<polygon points="55.092255107724,-196.395192110474 33.5,-127.832759250023 37.785595985062,-118.985863759958 84.8338169140972,-53.5 165.992258849608,-83.909441453815 205.192147951507,-151.371835843188 180.907687205133,-247.55449890295 " style="fill: rgb(84,13,110); fill-opacity: 1; stroke: rgb(0,0,0); stroke-width: 3" />
	<polygon points="171.541757628888,-493.146984027917 231.449812076239,-585.796819675849 223.926205031088,-595.380733253512 136.283854518887,-655.858282021688 139.745100915853,-584.059588065879 " style="fill: rgb(255,210,63); fill-opacity: 1; stroke: rgb(0,0,0); stroke-width: 3" />
	<polygon points="189.850213272204,-376.288745798627 171.541757628888,-493.146984027917 103.987665058131,-561.795170661146 72.3803700784423,-429.705138753311 " style="fill: rgb(67,184,206); fill-opacity: 1; stroke: rgb(0,0,0); stroke-width: 3" />
	<polygon points="281.89908559344,-563.120440676133 284.341030486305,-461.12267187177 378.105783145141,-512.026806189702 339.487707260502,-590.967401153973 " style="fill: rgb(67,184,206); fill-opacity: 1; stroke: rgb(0,0,0); stroke-width: 3" />
	<polygon points="304.224846854422,-232.635467661755 265.654589672027,-232.779506217835 205.192147951507,-151.371835843188 231.368030921312,-77.8692568877757 343.189615468901,-208.306840386575 " style="fill: rgb(255,210,63); fill-opacity: 1; stroke: rgb(0,0,0); stroke-width: 3" />
	<polygon points="243.723080213837,-393.898371629173 223.620212226323,-376.288745798627 368.124182438418,-337.812866013455 378.239171554174,-375.033458182447 " style="fill: rgb(67,184,206); fill-opacity: 1; stroke: rgb(0,0,0); stroke-width: 3" />
	<polygon points="223.926205031088,-595.380733253512 232.919776055117,-634.433714186702 135.346756619807,-665.643768227631 136.283854518887,-655.858282021688 " style="fill: rgb(67,184,206); fill-opacity: 1; stroke: rgb(0,0,0); stroke-width: 3" />
	<polygon points="284.341030486305,-461.12267187177 243.723080213837,-393.898371629173 376.708965930839,-421.560945422972 391.0905468301,-465.18783425445 390.940750173589,-465.545283591432 " style="fill: rgb(255,210,63); fill-opacity: 1; stroke: rgb(0,0,0); stroke-width: 3" />
	<polygon points="258.955561409179,-624.409356767694 306.679051507858,-631.547146644158 244.878230976773,-774.5 199.508960744397,-707.839946267974 " style="fill: rgb(67,184,206); fill-opacity: 1; stroke: rgb(0,0,0); stroke-width: 3" />
	<polygon points="231.449812076239,-585.796819675849 281.89908559344,-563.120440676133 314.345487026614,-618.248778102566 306.679051507858,-631.547146644158 258.955561409179,-624.409356767694 229.042195521131,-597.740832609425 " style="fill: rgb(238,66,102); fill-opacity: 1; stroke: rgb(0,0,0); stroke-width: 3" />
	<circle cx="189.850213272204" cy="-376.288745798627" r="2" style="fill: rgb(0,0,0)" />
	<circle cx="223.620212226323" cy="-376.288745798627" r="2" style="fill: rgb(0,0,0)" />
	<circle cx="243.723080213837" cy="-393.898371629173" r="2" style="fill: rgb(0,0,0)" />
	<circle cx="284.341030486305" cy="-461.12267187177" r="2" style="fill: rgb(0,0,0)" />
	<circle cx="281.89908559344" cy="-563.120440676133" r="2" style="fill: rgb(0,0,0)" />
	<circle cx="231.449812076239" cy="-585.796819675849" r="2" style="fill: rgb(0,0,0)" />
	<circle cx="171.541757628888" cy="-493.146984027917" r="2" style="fill: rgb(0,0,0)" />
	<circle cx="180.907687205133" cy="-247.55449890295" r="2" style="fill: rgb(0,0,0)" />
	<circle cx="205.192147951507" cy="-151.371835843188" r="2" style="fill: rgb(0,0,0)" />
	<circle cx="265.654589672027" cy="-232.779506217835" r="2" style="fill: rgb(0,0,0)" />
	<circle cx="223.926205031088" cy="-595.380733253512" r="2" style="fill: rgb(0,0,0)" />
	<circle cx="136.283854518887" cy="-655.858282021688" r="2" style="fill: rgb(0,0,0)" />
	<circle cx="139.745100915853" cy="-584.059588065879" r="2" style="fill: rgb(0,0,0)" />
	<circle cx="103.987665058131" cy="-561.795170661146" r="2" style="fill: rgb(0,0,0)" />
	<circle cx="72.3803700784423" cy="-429.705138753311" r="2" style="fill: rgb(0,0,0)" />
	<circle cx="378.105783145141" cy="-512.026806189702" r="2" style="fill: rgb(0,0,0)" />
	<circle cx="339.487707260502" cy="-590.967401153973" r="2" style="fill: rgb(0,0,0)" />
	<circle cx="368.124182438418" cy="-337.812866013455" r="2" style="fill: rgb(0,0,0)" />
	<circle cx="378.239171554174" cy="-375.033458182447" r="2" style="fill: rgb(0,0,0)" />
	<circle cx="376.708965930839" cy="-421.560945422972" r="2" style="fill: rgb(0,0,0)" />
	<circle cx="391.0905468301" cy="-465.18783425445" r="2" style="fill: rgb(0,0,0)" />
	<circle cx="390.940750173589" cy="-465.545283591432" r="2" style="fill: rgb(0,0,0)" />
	<circle cx="314.345487026614" cy="-618.248778102566" r="2" style="fill: rgb(0,0,0)" />
	<circle cx="306.679051507858" cy="-631.547146644158" r="2" style="fill: rgb(0,0,0)" />
	<circle cx="258.955561409179" cy="-624.409356767694" r="2" style="fill: rgb(0,0,0)" />
	<circle cx="229.042195521131" cy="-597.740832609425" r="2" style="fill: rgb(0,0,0)" />
	<circle cx="55.092255107724" cy="-196.395192110474" r="2" style="fill: rgb(0,0,0)" />
	<circle cx="33.5" cy="-127.832759250023" r="2" style="fill: rgb(0,0,0)" />
	<circle cx="37.785595985062" cy="-118.985863759958" r="2" style="fill: rgb(0,0,0)" />
	<circle cx="84.8338169140972" cy="-53.5" r="2" style="fill: rgb(0,0,0)" />
	<circle cx="165.992258849608" cy="-83.909441453815" r="2" style="fill: rgb(0,0,0)" />
	<circle cx="231.368030921312" cy="-77.8692568877757" r="2" style="fill: rgb(0,0,0)" />
	<circle cx="343.189615468901" cy="-208.306840386575" r="2" style="fill: rgb(0,0,0)" />
	<circle cx="304.224846854422" cy="-232.635467661755" r="2" style="fill: rgb(0,0,0)" />
	<circle cx="232.919776055117" cy="-634.433714186702" r="2" style="fill: rgb(0,0,0)" />
	<circle cx="135.346756619807" cy="-665.643768227631" r="2" style="fill: rgb(0,0,0)" />
	<circle cx="378.467656120282" cy="-511.888036536425" r="2" style="fill: rgb(0,0,0)" />
	<circle cx="516.743495436193" cy="-613.85774881035" r="2" style="fill: rgb(0,0,0)" />
	<circle cx="477.324075904876" cy="-691.042826323706" r="2" style="fill: rgb(0,0,0)" />
	<circle cx="348.68126080734" cy="-603.259651257699" r="2" style="fill: rgb(0,0,0)" />
	<circle cx="244.878230976773" cy="-774.5" r="2" style="fill: rgb(0,0,0)" />
	<circle cx="199.508960744397" cy="-707.839946267974" r="2" style="fill: rgb(0,0,0)" />
	<!--
	Generated using the Perl SVG Module V2.84
	by Ronan Oger
	Info: http://www.roitsystems.com/
	-->
</svg>