<?xml version="1.0" encoding="UTF-8" standalone="yes"?>
<!DOCTYPE svg PUBLIC "-//W3C//DTD SVG 1.0//EN" "http://www.w3.org/TR/2001/REC-SVG-20010904/DTD/svg10.dtd">
<!-- generated using polymake; Michael Joswig, Georg Loho, Benjamin Lorenz, Rico Raber; license CC BY-NC-ND 3.0; see polymake.org and matchthenet.de -->
<svg height="841pt" id="document" viewBox="0 -626.406380445789 572 626.406380445789" width="595pt" xmlns="http://www.w3.org/2000/svg" xmlns:svg="http://www.w3.org/2000/svg" xmlns:xlink="http://www.w3.org/1999/xlink">
	<title id="document_title">planar_net_</title>
	<polygon points="69.1833045338657,-335.866275321537 192.753383825111,-335.866275321537 270.074337524077,-382.039054947869 260.966398475698,-419.74288613201 125.171168746899,-376.314215026736 " style="fill: rgb(255,210,63); fill-opacity: 1; stroke: rgb(0,0,0); stroke-width: 3" />
	<polygon points="379.992019176388,-274.419900818116 257.578700528131,-232.167914519445 245.487453958397,-114.517201044357 321.785886663506,-147.338394590955 " style="fill: rgb(67,184,206); fill-opacity: 1; stroke: rgb(0,0,0); stroke-width: 3" />
	<polygon points="243.441810730717,-111.953586172152 292.917390591822,-53.5 354.763472753635,-90.0436711995161 321.785886663506,-147.338394590955 245.487453958397,-114.517201044357 " style="fill: rgb(255,210,63); fill-opacity: 1; stroke: rgb(0,0,0); stroke-width: 3" />
	<polygon points="33.5,-354.991584495442 121.965319039035,-507.11108554565 124.112828283048,-569.318449263819 111.79378482155,-576.615361651878 36.3749306907891,-589.906380445789 " style="fill: rgb(255,210,63); fill-opacity: 1; stroke: rgb(0,0,0); stroke-width: 3" />
	<polygon points="367.561429741484,-307.114971883272 192.753383825111,-335.866275321537 69.1833045338657,-335.866275321537 49.7960493281526,-305.676927132509 257.578700528131,-232.167914519445 379.992019176388,-274.419900818116 381.309147884761,-278.28040943664 " style="fill: rgb(84,13,110); fill-opacity: 1; stroke: rgb(0,0,0); stroke-width: 3" />
	<polygon points="225.809244273889,-480.735167479531 256.141737909254,-481.244565137404 269.216249818081,-542.146581995189 222.370272476064,-552.560068839617 208.36632339911,-512.880819974351 " style="fill: rgb(255,210,63); fill-opacity: 1; stroke: rgb(0,0,0); stroke-width: 3" />
	<polygon points="381.309147884761,-278.28040943664 379.992019176388,-274.419900818116 440.843547434865,-148.583679499769 502.029554523916,-173.613243006426 531.928143569367,-206.771180585494 519.356404074615,-223.326117001789 " style="fill: rgb(238,66,102); fill-opacity: 1; stroke: rgb(0,0,0); stroke-width: 3" />
	<polygon points="125.171168746899,-376.314215026736 260.966398475698,-419.74288613201 286.800827894481,-438.560224708363 256.141737909254,-481.244565137404 225.809244273889,-480.735167479531 " style="fill: rgb(255,210,63); fill-opacity: 1; stroke: rgb(0,0,0); stroke-width: 3" />
	<polygon points="69.1833045338657,-335.866275321537 125.171168746899,-376.314215026736 204.69512527842,-497.589512983485 176.288403456344,-520.625498273556 121.965319039035,-507.11108554565 33.5,-354.991584495442 34.568923376809,-345.305927094966 " style="fill: rgb(84,13,110); fill-opacity: 1; stroke: rgb(0,0,0); stroke-width: 3" />
	<polygon points="286.800827894481,-438.560224708363 303.21036324512,-439.568512259141 316.847523190734,-520.453002604676 303.427953927785,-536.328446361258 287.069335723287,-535.313800497722 256.141737909254,-481.244565137404 " style="fill: rgb(238,66,102); fill-opacity: 1; stroke: rgb(0,0,0); stroke-width: 3" />
	<polygon points="121.965319039035,-507.11108554565 176.288403456344,-520.625498273556 170.368001565602,-562.284857626691 131.866463567943,-568.562979200259 " style="fill: rgb(67,184,206); fill-opacity: 1; stroke: rgb(0,0,0); stroke-width: 3" />
	<polygon points="547.215617269784,-200.861269956093 531.928143569367,-206.771180585494 502.029554523916,-173.613243006426 537.348595549221,-111.059720926861 549.995733555146,-117.771923431578 561.5,-155.047050423234 " style="fill: rgb(238,66,102); fill-opacity: 1; stroke: rgb(0,0,0); stroke-width: 3" />
	<polygon points="49.7960493281526,-305.676927132509 52.3341225477978,-296.268806130066 209.91798040706,-122.026003337376 213.154321166216,-122.557864144881 257.578700528131,-232.167914519445 " style="fill: rgb(255,210,63); fill-opacity: 1; stroke: rgb(0,0,0); stroke-width: 3" />
	<polygon points="260.966398475698,-419.74288613201 270.074337524077,-382.039054947869 350.715475914926,-352.965145786249 303.129032140605,-427.562722277079 288.75212125453,-435.537302365238 " style="fill: rgb(255,210,63); fill-opacity: 1; stroke: rgb(0,0,0); stroke-width: 3" />
	<polygon points="378.204057034668,-340.16913544915 367.561429741484,-307.114971883272 381.309147884761,-278.28040943664 491.841727021109,-377.575767576036 420.427637534598,-417.927976098669 " style="fill: rgb(255,210,63); fill-opacity: 1; stroke: rgb(0,0,0); stroke-width: 3" />
	<polygon points="270.074337524077,-382.039054947869 192.753383825111,-335.866275321537 369.349806378462,-321.788139512166 349.770767506959,-350.467478444745 " style="fill: rgb(67,184,206); fill-opacity: 1; stroke: rgb(0,0,0); stroke-width: 3" />
	<circle cx="69.1833045338657" cy="-335.866275321537" r="2" style="fill: rgb(0,0,0)" />
	<circle cx="192.753383825111" cy="-335.866275321537" r="2" style="fill: rgb(0,0,0)" />
	<circle cx="270.074337524077" cy="-382.039054947869" r="2" style="fill: rgb(0,0,0)" />
	<circle cx="260.966398475698" cy="-419.74288613201" r="2" style="fill: rgb(0,0,0)" />
	<circle cx="125.171168746899" cy="-376.314215026736" r="2" style="fill: rgb(0,0,0)" />
	<circle cx="49.7960493281526" cy="-305.676927132509" r="2" style="fill: rgb(0,0,0)" />
	<circle cx="257.578700528131" cy="-232.167914519445" r="2" style="fill: rgb(0,0,0)" />
	<circle cx="379.992019176388" cy="-274.419900818116" r="2" style="fill: rgb(0,0,0)" />
	<circle cx="381.309147884761" cy="-278.28040943664" r="2" style="fill: rgb(0,0,0)" />
	<circle cx="367.561429741484" cy="-307.114971883272" r="2" style="fill: rgb(0,0,0)" />
	<circle cx="286.800827894481" cy="-438.560224708363" r="2" style="fill: rgb(0,0,0)" />
	<circle cx="256.141737909254" cy="-481.244565137404" r="2" style="fill: rgb(0,0,0)" />
	<circle cx="225.809244273889" cy="-480.735167479531" r="2" style="fill: rgb(0,0,0)" />
	<circle cx="204.69512527842" cy="-497.589512983485" r="2" style="fill: rgb(0,0,0)" />
	<circle cx="176.288403456344" cy="-520.625498273556" r="2" style="fill: rgb(0,0,0)" />
	<circle cx="121.965319039035" cy="-507.11108554565" r="2" style="fill: rgb(0,0,0)" />
	<circle cx="33.5" cy="-354.991584495442" r="2" style="fill: rgb(0,0,0)" />
	<circle cx="34.568923376809" cy="-345.305927094966" r="2" style="fill: rgb(0,0,0)" />
	<circle cx="350.715475914926" cy="-352.965145786249" r="2" style="fill: rgb(0,0,0)" />
	<circle cx="303.129032140605" cy="-427.562722277079" r="2" style="fill: rgb(0,0,0)" />
	<circle cx="288.75212125453" cy="-435.537302365238" r="2" style="fill: rgb(0,0,0)" />
	<circle cx="369.349806378462" cy="-321.788139512166" r="2" style="fill: rgb(0,0,0)" />
	<circle cx="349.770767506959" cy="-350.467478444745" r="2" style="fill: rgb(0,0,0)" />
	<circle cx="245.487453958397" cy="-114.517201044357" r="2" style="fill: rgb(0,0,0)" />
	<circle cx="321.785886663506" cy="-147.338394590955" r="2" style="fill: rgb(0,0,0)" />
	<circle cx="440.843547434865" cy="-148.583679499769" r="2" style="fill: rgb(0,0,0)" />
	<circle cx="502.029554523916" cy="-173.613243006426" r="2" style="fill: rgb(0,0,0)" />
	<circle cx="531.928143569367" cy="-206.771180585494" r="2" style="fill: rgb(0,0,0)" />
	<circle cx="519.356404074615" cy="-223.326117001789" r="2" style="fill: rgb(0,0,0)" />
	<circle cx="52.3341225477978" cy="-296.268806130066" r="2" style="fill: rgb(0,0,0)" />
	<circle cx="209.91798040706" cy="-122.026003337376" r="2" style="fill: rgb(0,0,0)" />
	<circle cx="213.154321166216" cy="-122.557864144881" r="2" style="fill: rgb(0,0,0)" />
	<circle cx="491.841727021109" cy="-377.575767576036" r="2" style="fill: rgb(0,0,0)" />
	<circle cx="420.427637534598" cy="-417.927976098669" r="2" style="fill: rgb(0,0,0)" />
	<circle cx="378.204057034668" cy="-340.16913544915" r="2" style="fill: rgb(0,0,0)" />
	<circle cx="269.216249818081" cy="-542.146581995189" r="2" style="fill: rgb(0,0,0)" />
	<circle cx="222.370272476064" cy="-552.560068839617" r="2" style="fill: rgb(0,0,0)" />
	<circle cx="208.36632339911" cy="-512.880819974351" r="2" style="fill: rgb(0,0,0)" />
	<circle cx="303.21036324512" cy="-439.568512259141" r="2" style="fill: rgb(0,0,0)" />
	<circle cx="316.847523190734" cy="-520.453002604676" r="2" style="fill: rgb(0,0,0)" />
	<circle cx="303.427953927785" cy="-536.328446361258" r="2" style="fill: rgb(0,0,0)" />
	<circle cx="287.069335723287" cy="-535.313800497722" r="2" style="fill: rgb(0,0,0)" />
	<circle cx="124.112828283048" cy="-569.318449263819" r="2" style="fill: rgb(0,0,0)" />
	<circle cx="111.79378482155" cy="-576.615361651878" r="2" style="fill: rgb(0,0,0)" />
	<circle cx="36.3749306907891" cy="-589.906380445789" r="2" style="fill: rgb(0,0,0)" />
	<circle cx="170.368001565602" cy="-562.284857626691" r="2" style="fill: rgb(0,0,0)" />
	<circle cx="131.866463567943" cy="-568.562979200259" r="2" style="fill: rgb(0,0,0)" />
	<circle cx="243.441810730717" cy="-111.953586172152" r="2" style="fill: rgb(0,0,0)" />
	<circle cx="292.917390591822" cy="-53.5" r="2" style="fill: rgb(0,0,0)" />
	<circle cx="354.763472753635" cy="-90.0436711995161" r="2" style="fill: rgb(0,0,0)" />
	<circle cx="537.348595549221" cy="-111.059720926861" r="2" style="fill: rgb(0,0,0)" />
	<circle cx="549.995733555146" cy="-117.771923431578" r="2" style="fill: rgb(0,0,0)" />
	<circle cx="561.5" cy="-155.047050423234" r="2" style="fill: rgb(0,0,0)" />
	<circle cx="547.215617269784" cy="-200.861269956093" r="2" style="fill: rgb(0,0,0)" />
	<!--
	Generated using the Perl SVG Module V2.86
	by Ronan Oger
	Info: http://www.roitsystems.com/
	-->
</svg>