<?xml version="1.0" encoding="UTF-8" standalone="yes"?>
<!DOCTYPE svg PUBLIC "-//W3C//DTD SVG 1.0//EN" "http://www.w3.org/TR/2001/REC-SVG-20010904/DTD/svg10.dtd">
<!-- generated using polymake; Michael Joswig, Georg Loho, Benjamin Lorenz, Rico Raber; license CC BY-NC-ND 3.0; see polymake.org and matchthenet.de -->
<svg height="841pt" id="document" viewBox="0 -534.998081173222 572 534.998081173222" width="595pt" xmlns="http://www.w3.org/2000/svg" xmlns:svg="http://www.w3.org/2000/svg" xmlns:xlink="http://www.w3.org/1999/xlink">
	<title id="document_title">planar_net_</title>
	<polygon points="279.936085932771,-281.518558480543 399.461465725415,-281.518558480543 288.791400267918,-317.949857095106 " style="fill: rgb(14,173,105); fill-opacity: 1; stroke: rgb(0,0,0); stroke-width: 3" />
	<polygon points="254.100469758415,-226.033293706232 188.100220919988,-231.525376936658 172.283565929036,-173.655994309297 180.16555885236,-157.337329437678 259.621727555673,-217.73524096439 " style="fill: rgb(14,173,105); fill-opacity: 1; stroke: rgb(0,0,0); stroke-width: 3" />
	<polygon points="389.605234934662,-317.940292703018 403.43693927268,-282.519337712663 521.270277035571,-436.850370798251 471.127505124659,-478.83742096393 396.183221515221,-385.069689044759 " style="fill: rgb(14,173,105); fill-opacity: 1; stroke: rgb(0,0,0); stroke-width: 3" />
	<polygon points="81.1768762133697,-72.9351389725275 169.15744006623,-72.7297599848453 180.16555885236,-157.337329437678 172.283565929036,-173.655994309297 74.8801427541229,-205.152046175868 67.3138283773517,-200.638464772385 33.5,-117.702598483423 " style="fill: rgb(14,173,105); fill-opacity: 1; stroke: rgb(0,0,0); stroke-width: 3" />
	<polygon points="299.836036326118,-434.457975678712 198.308217068321,-498.498081173222 187.672484800295,-409.567692071618 280.720133726936,-376.653178087453 281.688865583119,-376.399130536659 " style="fill: rgb(14,173,105); fill-opacity: 1; stroke: rgb(0,0,0); stroke-width: 3" />
	<polygon points="208.059770338413,-335.833199066527 227.376099188436,-334.952424937313 280.720133726936,-376.653178087453 187.672484800295,-409.567692071618 187.344472868959,-400.763492022385 " style="fill: rgb(14,173,105); fill-opacity: 1; stroke: rgb(0,0,0); stroke-width: 3" />
	<polygon points="352.618246176847,-163.101309630605 259.621727555673,-217.73524096439 218.26760734748,-126.900075947722 261.765289340827,-53.5 " style="fill: rgb(14,173,105); fill-opacity: 1; stroke: rgb(0,0,0); stroke-width: 3" />
	<polygon points="285.83738527325,-328.448274273454 292.667577102209,-358.149162382764 282.336384334382,-375.511565736682 281.377017585715,-375.798962690051 227.376099188436,-334.952424937313 " style="fill: rgb(14,173,105); fill-opacity: 1; stroke: rgb(0,0,0); stroke-width: 3" />
	<polygon points="403.033310888327,-280.796538530564 399.461465725415,-281.518558480543 279.936085932771,-281.518558480543 254.100469758415,-226.033293706232 259.621727555673,-217.73524096439 352.618246176847,-163.101309630605 " style="fill: rgb(14,173,105); fill-opacity: 1; stroke: rgb(0,0,0); stroke-width: 3" />
	<polygon points="404.566113900376,-281.513620031216 403.033310888327,-280.796538530564 352.618246176847,-163.101309630605 487.943354729551,-118.899252735178 561.5,-167.169758563815 " style="fill: rgb(14,173,105); fill-opacity: 1; stroke: rgb(0,0,0); stroke-width: 3" />
	<polygon points="309.63028342738,-350.455466878783 389.605234934662,-317.940292703018 374.378888906316,-383.650140878813 315.12506988817,-369.897532509277 " style="fill: rgb(14,173,105); fill-opacity: 1; stroke: rgb(0,0,0); stroke-width: 3" />
	<polygon points="209.902997142862,-285.686850005613 208.059770338413,-335.833199066527 159.003045167053,-383.146032505706 150.081613314696,-281.166445415559 " style="fill: rgb(14,173,105); fill-opacity: 1; stroke: rgb(0,0,0); stroke-width: 3" />
	<polygon points="279.936085932771,-281.518558480543 288.791400267918,-317.949857095106 285.83738527325,-328.448274273454 227.376099188436,-334.952424937313 208.059770338413,-335.833199066527 209.902997142862,-285.686850005613 246.321212147976,-230.37040181174 " style="fill: rgb(14,173,105); fill-opacity: 1; stroke: rgb(0,0,0); stroke-width: 3" />
	<polygon points="288.791400267918,-317.949857095106 399.461465725415,-281.518558480543 403.047817675049,-280.872439010683 403.43693927268,-282.519337712663 389.605234934662,-317.940292703018 309.63028342738,-350.455466878783 288.149188090971,-328.837029885097 " style="fill: rgb(14,173,105); fill-opacity: 1; stroke: rgb(0,0,0); stroke-width: 3" />
	<circle cx="279.936085932771" cy="-281.518558480543" r="2" style="fill: rgb(0,0,0)" />
	<circle cx="399.461465725415" cy="-281.518558480543" r="2" style="fill: rgb(0,0,0)" />
	<circle cx="288.791400267918" cy="-317.949857095106" r="2" style="fill: rgb(0,0,0)" />
	<circle cx="254.100469758415" cy="-226.033293706232" r="2" style="fill: rgb(0,0,0)" />
	<circle cx="259.621727555673" cy="-217.73524096439" r="2" style="fill: rgb(0,0,0)" />
	<circle cx="352.618246176847" cy="-163.101309630605" r="2" style="fill: rgb(0,0,0)" />
	<circle cx="403.033310888327" cy="-280.796538530564" r="2" style="fill: rgb(0,0,0)" />
	<circle cx="285.83738527325" cy="-328.448274273454" r="2" style="fill: rgb(0,0,0)" />
	<circle cx="227.376099188436" cy="-334.952424937313" r="2" style="fill: rgb(0,0,0)" />
	<circle cx="208.059770338413" cy="-335.833199066527" r="2" style="fill: rgb(0,0,0)" />
	<circle cx="209.902997142862" cy="-285.686850005613" r="2" style="fill: rgb(0,0,0)" />
	<circle cx="246.321212147976" cy="-230.37040181174" r="2" style="fill: rgb(0,0,0)" />
	<circle cx="403.047817675049" cy="-280.872439010683" r="2" style="fill: rgb(0,0,0)" />
	<circle cx="403.43693927268" cy="-282.519337712663" r="2" style="fill: rgb(0,0,0)" />
	<circle cx="389.605234934662" cy="-317.940292703018" r="2" style="fill: rgb(0,0,0)" />
	<circle cx="309.63028342738" cy="-350.455466878783" r="2" style="fill: rgb(0,0,0)" />
	<circle cx="288.149188090971" cy="-328.837029885097" r="2" style="fill: rgb(0,0,0)" />
	<circle cx="188.100220919988" cy="-231.525376936658" r="2" style="fill: rgb(0,0,0)" />
	<circle cx="172.283565929036" cy="-173.655994309297" r="2" style="fill: rgb(0,0,0)" />
	<circle cx="180.16555885236" cy="-157.337329437678" r="2" style="fill: rgb(0,0,0)" />
	<circle cx="218.26760734748" cy="-126.900075947722" r="2" style="fill: rgb(0,0,0)" />
	<circle cx="261.765289340827" cy="-53.5" r="2" style="fill: rgb(0,0,0)" />
	<circle cx="487.943354729551" cy="-118.899252735178" r="2" style="fill: rgb(0,0,0)" />
	<circle cx="561.5" cy="-167.169758563815" r="2" style="fill: rgb(0,0,0)" />
	<circle cx="404.566113900376" cy="-281.513620031216" r="2" style="fill: rgb(0,0,0)" />
	<circle cx="280.720133726936" cy="-376.653178087453" r="2" style="fill: rgb(0,0,0)" />
	<circle cx="187.672484800295" cy="-409.567692071618" r="2" style="fill: rgb(0,0,0)" />
	<circle cx="187.344472868959" cy="-400.763492022385" r="2" style="fill: rgb(0,0,0)" />
	<circle cx="292.667577102209" cy="-358.149162382764" r="2" style="fill: rgb(0,0,0)" />
	<circle cx="282.336384334382" cy="-375.511565736682" r="2" style="fill: rgb(0,0,0)" />
	<circle cx="281.377017585715" cy="-375.798962690051" r="2" style="fill: rgb(0,0,0)" />
	<circle cx="159.003045167053" cy="-383.146032505706" r="2" style="fill: rgb(0,0,0)" />
	<circle cx="150.081613314696" cy="-281.166445415559" r="2" style="fill: rgb(0,0,0)" />
	<circle cx="521.270277035571" cy="-436.850370798251" r="2" style="fill: rgb(0,0,0)" />
	<circle cx="471.127505124659" cy="-478.83742096393" r="2" style="fill: rgb(0,0,0)" />
	<circle cx="396.183221515221" cy="-385.069689044759" r="2" style="fill: rgb(0,0,0)" />
	<circle cx="374.378888906316" cy="-383.650140878813" r="2" style="fill: rgb(0,0,0)" />
	<circle cx="315.12506988817" cy="-369.897532509277" r="2" style="fill: rgb(0,0,0)" />
	<circle cx="74.8801427541229" cy="-205.152046175868" r="2" style="fill: rgb(0,0,0)" />
	<circle cx="67.3138283773517" cy="-200.638464772385" r="2" style="fill: rgb(0,0,0)" />
	<circle cx="33.5" cy="-117.702598483423" r="2" style="fill: rgb(0,0,0)" />
	<circle cx="81.1768762133697" cy="-72.9351389725275" r="2" style="fill: rgb(0,0,0)" />
	<circle cx="169.15744006623" cy="-72.7297599848453" r="2" style="fill: rgb(0,0,0)" />
	<circle cx="281.688865583119" cy="-376.399130536659" r="2" style="fill: rgb(0,0,0)" />
	<circle cx="299.836036326118" cy="-434.457975678712" r="2" style="fill: rgb(0,0,0)" />
	<circle cx="198.308217068321" cy="-498.498081173222" r="2" style="fill: rgb(0,0,0)" />
	<!--
	Generated using the Perl SVG Module V2.86
	by Ronan Oger
	Info: http://www.roitsystems.com/
	-->
</svg>