<?xml version="1.0" encoding="UTF-8" standalone="yes"?>
<!DOCTYPE svg PUBLIC "-//W3C//DTD SVG 1.0//EN" "http://www.w3.org/TR/2001/REC-SVG-20010904/DTD/svg10.dtd">
<!-- generated using polymake; Michael Joswig, Georg Loho, Benjamin Lorenz, Rico Raber; license CC BY-NC-ND 3.0; see polymake.org and matchthenet.de -->
<svg height="841pt" id="document" viewBox="0 -643.285708302791 572 643.285708302791" width="595pt" xmlns="http://www.w3.org/2000/svg" xmlns:svg="http://www.w3.org/2000/svg" xmlns:xlink="http://www.w3.org/1999/xlink">
	<title id="document_title">planar_net_</title>
	<polygon points="323.325984923598,-331.632551668065 403.58749770546,-331.632551668065 384.719334453798,-427.715833436479 297.217235044541,-419.980625275515 277.733220274747,-345.400946648891 " style="fill: rgb(226,200,51); fill-opacity: 1; stroke: rgb(0,0,0); stroke-width: 3" />
	<polygon points="495.18309602654,-235.307580207953 433.193438625919,-94.1259345396101 447.920335554335,-96.0690815210578 543.184825724614,-130.232948232425 561.5,-200.898550137821 " style="fill: rgb(226,200,51); fill-opacity: 1; stroke: rgb(0,0,0); stroke-width: 3" />
	<polygon points="435.51739296898,-300.419671704407 403.58749770546,-331.632551668065 323.325984923598,-331.632551668065 381.295280291626,-221.797197358719 " style="fill: rgb(226,200,51); fill-opacity: 1; stroke: rgb(0,0,0); stroke-width: 3" />
	<polygon points="302.653408145421,-510.934580918936 313.352737785002,-541.380317752288 308.71895209334,-548.48530114202 284.625846549615,-553.373356981888 210.390631814985,-524.574602672315 236.608421394793,-504.434370783051 " style="fill: rgb(226,200,51); fill-opacity: 1; stroke: rgb(0,0,0); stroke-width: 3" />
	<polygon points="323.325984923598,-331.632551668065 277.733220274747,-345.400946648891 271.893885130435,-330.376351942552 243.147879040137,-188.975794288422 258.77477752354,-131.1367849826 269.850035470588,-112.30672218636 356.733897489812,-212.015848655102 " style="fill: rgb(226,200,51); fill-opacity: 1; stroke: rgb(0,0,0); stroke-width: 3" />
	<polygon points="409.868576620592,-469.75699617736 507.710180925391,-404.425572176646 512.897430607089,-465.829400240661 461.389704381354,-519.94841022835 412.360518264719,-495.069684649557 " style="fill: rgb(226,200,51); fill-opacity: 1; stroke: rgb(0,0,0); stroke-width: 3" />
	<polygon points="297.217235044541,-419.980625275515 384.719334453798,-427.715833436479 409.868576620592,-469.75699617736 412.360518264719,-495.069684649557 313.352737785002,-541.380317752288 302.653408145421,-510.934580918936 " style="fill: rgb(226,200,51); fill-opacity: 1; stroke: rgb(0,0,0); stroke-width: 3" />
	<polygon points="271.893885130435,-330.376351942552 174.12695349305,-290.061875067008 178.267121835101,-257.26156352727 243.147879040137,-188.975794288422 " style="fill: rgb(226,200,51); fill-opacity: 1; stroke: rgb(0,0,0); stroke-width: 3" />
	<polygon points="258.77477752354,-131.1367849826 243.147879040137,-188.975794288422 154.600394025562,-221.097466624035 75.2864440595497,-214.059519673865 81.5411016979202,-208.479975237725 " style="fill: rgb(226,200,51); fill-opacity: 1; stroke: rgb(0,0,0); stroke-width: 3" />
	<polygon points="384.719334453798,-427.715833436479 403.58749770546,-331.632551668065 447.414136590023,-323.089261245379 463.308483859703,-346.285429537694 423.89188291159,-457.134453279881 " style="fill: rgb(226,200,51); fill-opacity: 1; stroke: rgb(0,0,0); stroke-width: 3" />
	<polygon points="277.733220274747,-345.400946648891 297.217235044541,-419.980625275515 242.760750992859,-493.033108942382 207.072184078952,-437.082066071554 261.651435438368,-346.502072206559 " style="fill: rgb(226,200,51); fill-opacity: 1; stroke: rgb(0,0,0); stroke-width: 3" />
	<polygon points="313.352737785002,-541.380317752288 412.360518264719,-495.069684649557 440.123670870827,-542.525131492413 405.487690021639,-606.785708302791 315.134171429043,-549.673643561415 " style="fill: rgb(226,200,51); fill-opacity: 1; stroke: rgb(0,0,0); stroke-width: 3" />
	<polygon points="33.5,-148.722897097139 82.0607467972521,-53.5 183.249594728828,-55.3193214004266 65.9291342607833,-145.43023803157 58.0814802759699,-148.37411051909 " style="fill: rgb(226,200,51); fill-opacity: 1; stroke: rgb(0,0,0); stroke-width: 3" />
	<polygon points="459.286039215093,-285.394893696017 435.51739296898,-300.419671704407 381.295280291626,-221.797197358719 341.540478090148,-95.6612743135563 433.193438625919,-94.1259345396101 495.18309602654,-235.307580207953 " style="fill: rgb(226,200,51); fill-opacity: 1; stroke: rgb(0,0,0); stroke-width: 3" />
	<polygon points="269.850035470588,-112.30672218636 258.77477752354,-131.1367849826 65.9291342607833,-145.43023803157 183.249594728828,-55.3193214004266 198.103985170427,-55.2530044326282 " style="fill: rgb(226,200,51); fill-opacity: 1; stroke: rgb(0,0,0); stroke-width: 3" />
	<circle cx="323.325984923598" cy="-331.632551668065" r="2" style="fill: rgb(0,0,0)" />
	<circle cx="403.58749770546" cy="-331.632551668065" r="2" style="fill: rgb(0,0,0)" />
	<circle cx="384.719334453798" cy="-427.715833436479" r="2" style="fill: rgb(0,0,0)" />
	<circle cx="297.217235044541" cy="-419.980625275515" r="2" style="fill: rgb(0,0,0)" />
	<circle cx="277.733220274747" cy="-345.400946648891" r="2" style="fill: rgb(0,0,0)" />
	<circle cx="381.295280291626" cy="-221.797197358719" r="2" style="fill: rgb(0,0,0)" />
	<circle cx="435.51739296898" cy="-300.419671704407" r="2" style="fill: rgb(0,0,0)" />
	<circle cx="271.893885130435" cy="-330.376351942552" r="2" style="fill: rgb(0,0,0)" />
	<circle cx="243.147879040137" cy="-188.975794288422" r="2" style="fill: rgb(0,0,0)" />
	<circle cx="258.77477752354" cy="-131.1367849826" r="2" style="fill: rgb(0,0,0)" />
	<circle cx="269.850035470588" cy="-112.30672218636" r="2" style="fill: rgb(0,0,0)" />
	<circle cx="356.733897489812" cy="-212.015848655102" r="2" style="fill: rgb(0,0,0)" />
	<circle cx="409.868576620592" cy="-469.75699617736" r="2" style="fill: rgb(0,0,0)" />
	<circle cx="412.360518264719" cy="-495.069684649557" r="2" style="fill: rgb(0,0,0)" />
	<circle cx="313.352737785002" cy="-541.380317752288" r="2" style="fill: rgb(0,0,0)" />
	<circle cx="302.653408145421" cy="-510.934580918936" r="2" style="fill: rgb(0,0,0)" />
	<circle cx="447.414136590023" cy="-323.089261245379" r="2" style="fill: rgb(0,0,0)" />
	<circle cx="463.308483859703" cy="-346.285429537694" r="2" style="fill: rgb(0,0,0)" />
	<circle cx="423.89188291159" cy="-457.134453279881" r="2" style="fill: rgb(0,0,0)" />
	<circle cx="242.760750992859" cy="-493.033108942382" r="2" style="fill: rgb(0,0,0)" />
	<circle cx="207.072184078952" cy="-437.082066071554" r="2" style="fill: rgb(0,0,0)" />
	<circle cx="261.651435438368" cy="-346.502072206559" r="2" style="fill: rgb(0,0,0)" />
	<circle cx="341.540478090148" cy="-95.6612743135563" r="2" style="fill: rgb(0,0,0)" />
	<circle cx="433.193438625919" cy="-94.1259345396101" r="2" style="fill: rgb(0,0,0)" />
	<circle cx="495.18309602654" cy="-235.307580207953" r="2" style="fill: rgb(0,0,0)" />
	<circle cx="459.286039215093" cy="-285.394893696017" r="2" style="fill: rgb(0,0,0)" />
	<circle cx="174.12695349305" cy="-290.061875067008" r="2" style="fill: rgb(0,0,0)" />
	<circle cx="178.267121835101" cy="-257.26156352727" r="2" style="fill: rgb(0,0,0)" />
	<circle cx="154.600394025562" cy="-221.097466624035" r="2" style="fill: rgb(0,0,0)" />
	<circle cx="75.2864440595497" cy="-214.059519673865" r="2" style="fill: rgb(0,0,0)" />
	<circle cx="81.5411016979202" cy="-208.479975237725" r="2" style="fill: rgb(0,0,0)" />
	<circle cx="65.9291342607833" cy="-145.43023803157" r="2" style="fill: rgb(0,0,0)" />
	<circle cx="183.249594728828" cy="-55.3193214004266" r="2" style="fill: rgb(0,0,0)" />
	<circle cx="198.103985170427" cy="-55.2530044326282" r="2" style="fill: rgb(0,0,0)" />
	<circle cx="308.71895209334" cy="-548.48530114202" r="2" style="fill: rgb(0,0,0)" />
	<circle cx="284.625846549615" cy="-553.373356981888" r="2" style="fill: rgb(0,0,0)" />
	<circle cx="210.390631814985" cy="-524.574602672315" r="2" style="fill: rgb(0,0,0)" />
	<circle cx="236.608421394793" cy="-504.434370783051" r="2" style="fill: rgb(0,0,0)" />
	<circle cx="507.710180925391" cy="-404.425572176646" r="2" style="fill: rgb(0,0,0)" />
	<circle cx="512.897430607089" cy="-465.829400240661" r="2" style="fill: rgb(0,0,0)" />
	<circle cx="461.389704381354" cy="-519.94841022835" r="2" style="fill: rgb(0,0,0)" />
	<circle cx="440.123670870827" cy="-542.525131492413" r="2" style="fill: rgb(0,0,0)" />
	<circle cx="405.487690021639" cy="-606.785708302791" r="2" style="fill: rgb(0,0,0)" />
	<circle cx="315.134171429043" cy="-549.673643561415" r="2" style="fill: rgb(0,0,0)" />
	<circle cx="447.920335554335" cy="-96.0690815210578" r="2" style="fill: rgb(0,0,0)" />
	<circle cx="543.184825724614" cy="-130.232948232425" r="2" style="fill: rgb(0,0,0)" />
	<circle cx="561.5" cy="-200.898550137821" r="2" style="fill: rgb(0,0,0)" />
	<circle cx="58.0814802759699" cy="-148.37411051909" r="2" style="fill: rgb(0,0,0)" />
	<circle cx="33.5" cy="-148.722897097139" r="2" style="fill: rgb(0,0,0)" />
	<circle cx="82.0607467972521" cy="-53.5" r="2" style="fill: rgb(0,0,0)" />
	<!--
	Generated using the Perl SVG Module V2.84
	by Ronan Oger
	Info: http://www.roitsystems.com/
	-->
</svg>