<?xml version="1.0" encoding="UTF-8" standalone="yes"?>
<!DOCTYPE svg PUBLIC "-//W3C//DTD SVG 1.0//EN" "http://www.w3.org/TR/2001/REC-SVG-20010904/DTD/svg10.dtd">
<!-- generated using polymake; Michael Joswig, Georg Loho, Benjamin Lorenz, Rico Raber; license CC BY-NC-ND 3.0; see polymake.org and matchthenet.de -->
<svg height="841pt" id="document" viewBox="0 -665.212986724985 572 665.212986724985" width="595pt" xmlns="http://www.w3.org/2000/svg" xmlns:svg="http://www.w3.org/2000/svg" xmlns:xlink="http://www.w3.org/1999/xlink">
	<title id="document_title">planar_net_</title>
	<polygon points="330.364857803911,-455.561064217784 452.493786940712,-455.561064217784 454.58070213003,-521.324405011643 450.00725603717,-523.058802807165 " style="fill: rgb(67,184,206); fill-opacity: 1; stroke: rgb(0,0,0); stroke-width: 3" />
	<polygon points="200.098781555211,-381.726853235351 33.5,-183.029356984919 63.1300693759754,-163.567869633246 254.838464847657,-306.920666993125 " style="fill: rgb(67,184,206); fill-opacity: 1; stroke: rgb(0,0,0); stroke-width: 3" />
	<polygon points="511.941494420576,-459.723382347622 462.713705551763,-446.225175102783 447.190106312445,-339.193900468444 524.979608541799,-395.054706477218 " style="fill: rgb(67,184,206); fill-opacity: 1; stroke: rgb(0,0,0); stroke-width: 3" />
	<polygon points="462.713705551763,-446.225175102783 452.493786940712,-455.561064217784 330.364857803911,-455.561064217784 200.098781555211,-381.726853235351 254.838464847657,-306.920666993125 269.18603834347,-301.623479560359 447.190106312445,-339.193900468444 " style="fill: rgb(84,13,110); fill-opacity: 1; stroke: rgb(0,0,0); stroke-width: 3" />
	<polygon points="269.18603834347,-301.623479560359 254.838464847657,-306.920666993125 298.744360322642,-71.6029971343867 319.450977107126,-53.5 " style="fill: rgb(67,184,206); fill-opacity: 1; stroke: rgb(0,0,0); stroke-width: 3" />
	<polygon points="447.190106312445,-339.193900468444 269.18603834347,-301.623479560359 506.130017062487,-212.464205635154 515.305961352876,-211.377753627755 522.17834794048,-279.625453094254 " style="fill: rgb(255,210,63); fill-opacity: 1; stroke: rgb(0,0,0); stroke-width: 3" />
	<polygon points="471.488940865719,-524.075602612823 492.5664792538,-526.243072338479 492.889086296367,-596.652163342551 476.768535140071,-595.532176415288 " style="fill: rgb(67,184,206); fill-opacity: 1; stroke: rgb(0,0,0); stroke-width: 3" />
	<polygon points="450.00725603717,-523.058802807165 454.58070213003,-521.324405011643 471.488940865719,-524.075602612823 476.768535140071,-595.532176415288 452.248426766843,-595.52262725943 " style="fill: rgb(255,210,63); fill-opacity: 1; stroke: rgb(0,0,0); stroke-width: 3" />
	<polygon points="330.364857803911,-455.561064217784 450.00725603717,-523.058802807165 405.93350447644,-580.622099480055 397.402645051113,-576.822325553052 182.550425842514,-431.65217389297 " style="fill: rgb(255,210,63); fill-opacity: 1; stroke: rgb(0,0,0); stroke-width: 3" />
	<polygon points="489.800421445485,-506.808064444625 499.420406437859,-485.714922125934 561.5,-463.395555606489 560.116974631842,-531.97445484457 550.953884210756,-541.705029400636 " style="fill: rgb(255,210,63); fill-opacity: 1; stroke: rgb(0,0,0); stroke-width: 3" />
	<polygon points="452.248426766843,-595.52262725943 476.768535140071,-595.532176415288 492.521871870304,-599.132026712763 501.219882389286,-609.280470941698 495.542310796811,-616.5704306396 470.863558485956,-628.712986724985 446.546207233376,-602.918473176102 " style="fill: rgb(84,13,110); fill-opacity: 1; stroke: rgb(0,0,0); stroke-width: 3" />
	<polygon points="454.58070213003,-521.324405011643 452.493786940712,-455.561064217784 464.429303703117,-448.5504293251 499.420406437859,-485.714922125934 489.800421445485,-506.808064444625 471.089574987321,-516.751141148118 " style="fill: rgb(238,66,102); fill-opacity: 1; stroke: rgb(0,0,0); stroke-width: 3" />
	<circle cx="330.364857803911" cy="-455.561064217784" r="2" style="fill: rgb(0,0,0)" />
	<circle cx="452.493786940712" cy="-455.561064217784" r="2" style="fill: rgb(0,0,0)" />
	<circle cx="454.58070213003" cy="-521.324405011643" r="2" style="fill: rgb(0,0,0)" />
	<circle cx="450.00725603717" cy="-523.058802807165" r="2" style="fill: rgb(0,0,0)" />
	<circle cx="200.098781555211" cy="-381.726853235351" r="2" style="fill: rgb(0,0,0)" />
	<circle cx="254.838464847657" cy="-306.920666993125" r="2" style="fill: rgb(0,0,0)" />
	<circle cx="269.18603834347" cy="-301.623479560359" r="2" style="fill: rgb(0,0,0)" />
	<circle cx="447.190106312445" cy="-339.193900468444" r="2" style="fill: rgb(0,0,0)" />
	<circle cx="462.713705551763" cy="-446.225175102783" r="2" style="fill: rgb(0,0,0)" />
	<circle cx="471.488940865719" cy="-524.075602612823" r="2" style="fill: rgb(0,0,0)" />
	<circle cx="476.768535140071" cy="-595.532176415288" r="2" style="fill: rgb(0,0,0)" />
	<circle cx="452.248426766843" cy="-595.52262725943" r="2" style="fill: rgb(0,0,0)" />
	<circle cx="405.93350447644" cy="-580.622099480055" r="2" style="fill: rgb(0,0,0)" />
	<circle cx="397.402645051113" cy="-576.822325553052" r="2" style="fill: rgb(0,0,0)" />
	<circle cx="182.550425842514" cy="-431.65217389297" r="2" style="fill: rgb(0,0,0)" />
	<circle cx="464.429303703117" cy="-448.5504293251" r="2" style="fill: rgb(0,0,0)" />
	<circle cx="499.420406437859" cy="-485.714922125934" r="2" style="fill: rgb(0,0,0)" />
	<circle cx="489.800421445485" cy="-506.808064444625" r="2" style="fill: rgb(0,0,0)" />
	<circle cx="471.089574987321" cy="-516.751141148118" r="2" style="fill: rgb(0,0,0)" />
	<circle cx="33.5" cy="-183.029356984919" r="2" style="fill: rgb(0,0,0)" />
	<circle cx="63.1300693759754" cy="-163.567869633246" r="2" style="fill: rgb(0,0,0)" />
	<circle cx="524.979608541799" cy="-395.054706477218" r="2" style="fill: rgb(0,0,0)" />
	<circle cx="511.941494420576" cy="-459.723382347622" r="2" style="fill: rgb(0,0,0)" />
	<circle cx="298.744360322642" cy="-71.6029971343867" r="2" style="fill: rgb(0,0,0)" />
	<circle cx="319.450977107126" cy="-53.5" r="2" style="fill: rgb(0,0,0)" />
	<circle cx="506.130017062487" cy="-212.464205635154" r="2" style="fill: rgb(0,0,0)" />
	<circle cx="515.305961352876" cy="-211.377753627755" r="2" style="fill: rgb(0,0,0)" />
	<circle cx="522.17834794048" cy="-279.625453094254" r="2" style="fill: rgb(0,0,0)" />
	<circle cx="492.5664792538" cy="-526.243072338479" r="2" style="fill: rgb(0,0,0)" />
	<circle cx="492.889086296367" cy="-596.652163342551" r="2" style="fill: rgb(0,0,0)" />
	<circle cx="492.521871870304" cy="-599.132026712763" r="2" style="fill: rgb(0,0,0)" />
	<circle cx="501.219882389286" cy="-609.280470941698" r="2" style="fill: rgb(0,0,0)" />
	<circle cx="495.542310796811" cy="-616.5704306396" r="2" style="fill: rgb(0,0,0)" />
	<circle cx="470.863558485956" cy="-628.712986724985" r="2" style="fill: rgb(0,0,0)" />
	<circle cx="446.546207233376" cy="-602.918473176102" r="2" style="fill: rgb(0,0,0)" />
	<circle cx="561.5" cy="-463.395555606489" r="2" style="fill: rgb(0,0,0)" />
	<circle cx="560.116974631842" cy="-531.97445484457" r="2" style="fill: rgb(0,0,0)" />
	<circle cx="550.953884210756" cy="-541.705029400636" r="2" style="fill: rgb(0,0,0)" />
	<!--
	Generated using the Perl SVG Module V2.87
	by Ronan Oger

	-->
</svg>