<?xml version="1.0" encoding="UTF-8" standalone="yes"?>
<!DOCTYPE svg PUBLIC "-//W3C//DTD SVG 1.0//EN" "http://www.w3.org/TR/2001/REC-SVG-20010904/DTD/svg10.dtd">
<!-- generated using polymake; Michael Joswig, Georg Loho, Benjamin Lorenz, Rico Raber; license CC BY-NC-SA 3.0; see polymake.org and matchthenet.de -->
<svg height="841pt" id="document" viewBox="0 -528.553770339476 572 528.553770339476" width="595pt" xmlns="http://www.w3.org/2000/svg" xmlns:svg="http://www.w3.org/2000/svg" xmlns:xlink="http://www.w3.org/1999/xlink">
	<title id="document_title">planar_net_</title>
	<polygon points="279.674233430817,-291.836599632091 335.652106229599,-291.836599632091 344.74893671976,-302.599058053663 262.732645853076,-374.210915531951 253.23835642884,-372.805260316423 247.386140550357,-366.756781173389 246.311538605246,-360.15057561752 " style="fill: rgb(84,13,110); fill-opacity: 1; stroke: rgb(0,0,0); stroke-width: 3" />
	<polygon points="484.81551109078,-326.643180928102 426.240655072733,-178.59855345818 471.466641332709,-53.5 480.217117174296,-56.1355393743066 512.574148205825,-107.70210180052 532.741238151518,-248.293583116391 517.547822374349,-312.705856605631 " style="fill: rgb(84,13,110); fill-opacity: 1; stroke: rgb(0,0,0); stroke-width: 3" />
	<polygon points="321.624353751319,-249.306973712599 335.652106229599,-291.836599632091 279.674233430817,-291.836599632091 242.381288031129,-271.008420951545 232.134803778327,-218.565249899666 " style="fill: rgb(255,210,63); fill-opacity: 1; stroke: rgb(0,0,0); stroke-width: 3" />
	<polygon points="532.741238151518,-248.293583116391 512.574148205825,-107.70210180052 554.865338751488,-159.522866354332 561.5,-187.286840401181 " style="fill: rgb(67,184,206); fill-opacity: 1; stroke: rgb(0,0,0); stroke-width: 3" />
	<polygon points="178.748066993449,-378.27604972432 188.057333897017,-392.89865000579 192.94337933961,-417.133528618543 153.970481161261,-439.196241991109 88.6819924716652,-424.658371399528 33.5,-398.947760273166 168.253093366028,-374.367180969553 " style="fill: rgb(84,13,110); fill-opacity: 1; stroke: rgb(0,0,0); stroke-width: 3" />
	<polygon points="344.74893671976,-302.599058053663 335.652106229599,-291.836599632091 348.978796503181,-249.082111601055 426.240655072733,-178.59855345818 484.81551109078,-326.643180928102 " style="fill: rgb(255,210,63); fill-opacity: 1; stroke: rgb(0,0,0); stroke-width: 3" />
	<polygon points="279.674233430817,-291.836599632091 246.311538605246,-360.15057561752 225.343773931291,-318.80360363138 238.53459992979,-280.34280308204 " style="fill: rgb(67,184,206); fill-opacity: 1; stroke: rgb(0,0,0); stroke-width: 3" />
	<polygon points="253.23835642884,-372.805260316423 262.732645853076,-374.210915531951 338.340976719714,-454.956533978111 247.651847783974,-438.925570645515 242.3346072581,-410.820987905331 " style="fill: rgb(255,210,63); fill-opacity: 1; stroke: rgb(0,0,0); stroke-width: 3" />
	<polygon points="243.924896115564,-440.993824922472 234.295888067501,-478.146671212749 205.951284759179,-481.529044351647 221.954779235054,-439.701562018354 " style="fill: rgb(67,184,206); fill-opacity: 1; stroke: rgb(0,0,0); stroke-width: 3" />
	<polygon points="242.3346072581,-410.820987905331 247.651847783974,-438.925570645515 243.924896115564,-440.993824922472 221.954779235054,-439.701562018354 204.298393081349,-422.396799395504 " style="fill: rgb(255,210,63); fill-opacity: 1; stroke: rgb(0,0,0); stroke-width: 3" />
	<polygon points="247.386140550357,-366.756781173389 253.23835642884,-372.805260316423 226.724704884473,-402.149997014452 188.057333897017,-392.89865000579 178.748066993449,-378.27604972432 " style="fill: rgb(255,210,63); fill-opacity: 1; stroke: rgb(0,0,0); stroke-width: 3" />
	<polygon points="262.732645853076,-374.210915531951 344.74893671976,-302.599058053663 440.458393939453,-407.653638627484 411.245038326768,-427.957162092193 361.340986985974,-424.339446866015 " style="fill: rgb(255,210,63); fill-opacity: 1; stroke: rgb(0,0,0); stroke-width: 3" />
	<polygon points="246.311538605246,-360.15057561752 247.386140550357,-366.756781173389 178.752106733835,-355.213467454078 171.892221371869,-346.361027157581 220.197549800087,-321.845499758975 " style="fill: rgb(255,210,63); fill-opacity: 1; stroke: rgb(0,0,0); stroke-width: 3" />
	<polygon points="338.340976719714,-454.956533978111 377.641002772993,-485.924423087542 311.745540400415,-492.053770339476 245.385123876423,-480.00453141979 244.363713389653,-441.63776840705 247.651847783974,-438.925570645515 " style="fill: rgb(238,66,102); fill-opacity: 1; stroke: rgb(0,0,0); stroke-width: 3" />
	<polygon points="326.266757070176,-144.828388110027 321.624353751319,-249.306973712599 232.134803778327,-218.565249899666 196.62691986165,-115.019823584688 " style="fill: rgb(67,184,206); fill-opacity: 1; stroke: rgb(0,0,0); stroke-width: 3" />
	<polygon points="209.15534300184,-294.444880716826 160.527155838404,-270.57617209262 166.165064070556,-133.715604209163 172.273786704227,-126.91851637446 232.134803778327,-218.565249899666 242.381288031129,-271.008420951545 " style="fill: rgb(238,66,102); fill-opacity: 1; stroke: rgb(0,0,0); stroke-width: 3" />
	<circle cx="279.674233430817" cy="-291.836599632091" r="2" style="fill: rgb(0,0,0)" />
	<circle cx="335.652106229599" cy="-291.836599632091" r="2" style="fill: rgb(0,0,0)" />
	<circle cx="344.74893671976" cy="-302.599058053663" r="2" style="fill: rgb(0,0,0)" />
	<circle cx="262.732645853076" cy="-374.210915531951" r="2" style="fill: rgb(0,0,0)" />
	<circle cx="253.23835642884" cy="-372.805260316423" r="2" style="fill: rgb(0,0,0)" />
	<circle cx="247.386140550357" cy="-366.756781173389" r="2" style="fill: rgb(0,0,0)" />
	<circle cx="246.311538605246" cy="-360.15057561752" r="2" style="fill: rgb(0,0,0)" />
	<circle cx="242.381288031129" cy="-271.008420951545" r="2" style="fill: rgb(0,0,0)" />
	<circle cx="232.134803778327" cy="-218.565249899666" r="2" style="fill: rgb(0,0,0)" />
	<circle cx="321.624353751319" cy="-249.306973712599" r="2" style="fill: rgb(0,0,0)" />
	<circle cx="348.978796503181" cy="-249.082111601055" r="2" style="fill: rgb(0,0,0)" />
	<circle cx="426.240655072733" cy="-178.59855345818" r="2" style="fill: rgb(0,0,0)" />
	<circle cx="484.81551109078" cy="-326.643180928102" r="2" style="fill: rgb(0,0,0)" />
	<circle cx="225.343773931291" cy="-318.80360363138" r="2" style="fill: rgb(0,0,0)" />
	<circle cx="238.53459992979" cy="-280.34280308204" r="2" style="fill: rgb(0,0,0)" />
	<circle cx="338.340976719714" cy="-454.956533978111" r="2" style="fill: rgb(0,0,0)" />
	<circle cx="247.651847783974" cy="-438.925570645515" r="2" style="fill: rgb(0,0,0)" />
	<circle cx="242.3346072581" cy="-410.820987905331" r="2" style="fill: rgb(0,0,0)" />
	<circle cx="226.724704884473" cy="-402.149997014452" r="2" style="fill: rgb(0,0,0)" />
	<circle cx="188.057333897017" cy="-392.89865000579" r="2" style="fill: rgb(0,0,0)" />
	<circle cx="178.748066993449" cy="-378.27604972432" r="2" style="fill: rgb(0,0,0)" />
	<circle cx="440.458393939453" cy="-407.653638627484" r="2" style="fill: rgb(0,0,0)" />
	<circle cx="411.245038326768" cy="-427.957162092193" r="2" style="fill: rgb(0,0,0)" />
	<circle cx="361.340986985974" cy="-424.339446866015" r="2" style="fill: rgb(0,0,0)" />
	<circle cx="178.752106733835" cy="-355.213467454078" r="2" style="fill: rgb(0,0,0)" />
	<circle cx="171.892221371869" cy="-346.361027157581" r="2" style="fill: rgb(0,0,0)" />
	<circle cx="220.197549800087" cy="-321.845499758975" r="2" style="fill: rgb(0,0,0)" />
	<circle cx="196.62691986165" cy="-115.019823584688" r="2" style="fill: rgb(0,0,0)" />
	<circle cx="326.266757070176" cy="-144.828388110027" r="2" style="fill: rgb(0,0,0)" />
	<circle cx="209.15534300184" cy="-294.444880716826" r="2" style="fill: rgb(0,0,0)" />
	<circle cx="160.527155838404" cy="-270.57617209262" r="2" style="fill: rgb(0,0,0)" />
	<circle cx="166.165064070556" cy="-133.715604209163" r="2" style="fill: rgb(0,0,0)" />
	<circle cx="172.273786704227" cy="-126.91851637446" r="2" style="fill: rgb(0,0,0)" />
	<circle cx="471.466641332709" cy="-53.5" r="2" style="fill: rgb(0,0,0)" />
	<circle cx="480.217117174296" cy="-56.1355393743066" r="2" style="fill: rgb(0,0,0)" />
	<circle cx="512.574148205825" cy="-107.70210180052" r="2" style="fill: rgb(0,0,0)" />
	<circle cx="532.741238151518" cy="-248.293583116391" r="2" style="fill: rgb(0,0,0)" />
	<circle cx="517.547822374349" cy="-312.705856605631" r="2" style="fill: rgb(0,0,0)" />
	<circle cx="243.924896115564" cy="-440.993824922472" r="2" style="fill: rgb(0,0,0)" />
	<circle cx="221.954779235054" cy="-439.701562018354" r="2" style="fill: rgb(0,0,0)" />
	<circle cx="204.298393081349" cy="-422.396799395504" r="2" style="fill: rgb(0,0,0)" />
	<circle cx="377.641002772993" cy="-485.924423087542" r="2" style="fill: rgb(0,0,0)" />
	<circle cx="311.745540400415" cy="-492.053770339476" r="2" style="fill: rgb(0,0,0)" />
	<circle cx="245.385123876423" cy="-480.00453141979" r="2" style="fill: rgb(0,0,0)" />
	<circle cx="244.363713389653" cy="-441.63776840705" r="2" style="fill: rgb(0,0,0)" />
	<circle cx="192.94337933961" cy="-417.133528618543" r="2" style="fill: rgb(0,0,0)" />
	<circle cx="153.970481161261" cy="-439.196241991109" r="2" style="fill: rgb(0,0,0)" />
	<circle cx="88.6819924716652" cy="-424.658371399528" r="2" style="fill: rgb(0,0,0)" />
	<circle cx="33.5" cy="-398.947760273166" r="2" style="fill: rgb(0,0,0)" />
	<circle cx="168.253093366028" cy="-374.367180969553" r="2" style="fill: rgb(0,0,0)" />
	<circle cx="554.865338751488" cy="-159.522866354332" r="2" style="fill: rgb(0,0,0)" />
	<circle cx="561.5" cy="-187.286840401181" r="2" style="fill: rgb(0,0,0)" />
	<circle cx="234.295888067501" cy="-478.146671212749" r="2" style="fill: rgb(0,0,0)" />
	<circle cx="205.951284759179" cy="-481.529044351647" r="2" style="fill: rgb(0,0,0)" />
	<!-- 
	Generated using the Perl SVG Module V2.64
	by Ronan Oger
	Info: http://www.roitsystems.com/
 -->
</svg>