<?xml version="1.0" encoding="UTF-8" standalone="yes"?>
<!DOCTYPE svg PUBLIC "-//W3C//DTD SVG 1.0//EN" "http://www.w3.org/TR/2001/REC-SVG-20010904/DTD/svg10.dtd">
<!-- generated using polymake; Michael Joswig, Georg Loho, Benjamin Lorenz, Rico Raber; license CC BY-NC-ND 3.0; see polymake.org and matchthenet.de -->
<svg height="841pt" id="document" viewBox="0 -765.925447816368 572 765.925447816368" width="595pt" xmlns="http://www.w3.org/2000/svg" xmlns:svg="http://www.w3.org/2000/svg" xmlns:xlink="http://www.w3.org/1999/xlink">
	<title id="document_title">planar_net_</title>
	<polygon points="269.968399166059,-280.495753992897 337.156341544422,-280.495753992897 417.146930263799,-416.193947675777 353.327094559636,-439.631135741095 254.659489237566,-385.476287932497 " style="fill: rgb(226,200,51); fill-opacity: 1; stroke: rgb(0,0,0); stroke-width: 3" />
	<polygon points="330.493886408256,-161.390778541552 337.156341544422,-280.495753992897 269.968399166059,-280.495753992897 205.018258292345,-242.057045366526 196.57520207183,-216.900362160467 210.830199503065,-174.701601546906 327.268205261127,-160.092458460117 " style="fill: rgb(226,200,51); fill-opacity: 1; stroke: rgb(0,0,0); stroke-width: 3" />
	<polygon points="353.327094559636,-439.631135741095 417.146930263799,-416.193947675777 451.813508337978,-556.879574881174 419.41748753293,-606.642428666676 294.232705445112,-602.852685205088 277.212879108498,-505.411741744829 " style="fill: rgb(226,200,51); fill-opacity: 1; stroke: rgb(0,0,0); stroke-width: 3" />
	<polygon points="294.232705445112,-602.852685205088 419.41748753293,-606.642428666676 380.020433121822,-703.4502314791 370.678720285463,-715.102228740488 310.183349484784,-729.425447816368 265.821921343551,-678.984763689823 267.048833398709,-664.305992564167 " style="fill: rgb(226,200,51); fill-opacity: 1; stroke: rgb(0,0,0); stroke-width: 3" />
	<polygon points="269.968399166059,-280.495753992897 254.659489237566,-385.476287932497 206.553868341858,-413.4136882324 198.325155321647,-340.41500774554 194.582598590065,-284.106320692836 " style="fill: rgb(226,200,51); fill-opacity: 1; stroke: rgb(0,0,0); stroke-width: 3" />
	<polygon points="451.813508337978,-556.879574881174 561.5,-632.652897750441 485.796964302166,-687.374353241122 419.41748753293,-606.642428666676 " style="fill: rgb(226,200,51); fill-opacity: 1; stroke: rgb(0,0,0); stroke-width: 3" />
	<polygon points="277.212879108498,-505.411741744829 294.232705445112,-602.852685205088 228.84160039408,-618.327673573788 196.871872052597,-508.912079190889 196.929626759669,-508.490321434443 " style="fill: rgb(226,200,51); fill-opacity: 1; stroke: rgb(0,0,0); stroke-width: 3" />
	<polygon points="205.018258292345,-242.057045366526 151.293046636817,-259.327731544477 94.1671776162679,-232.447031862423 97.8089779868258,-207.995772980238 196.57520207183,-216.900362160467 " style="fill: rgb(226,200,51); fill-opacity: 1; stroke: rgb(0,0,0); stroke-width: 3" />
	<polygon points="206.553868341858,-413.4136882324 206.483808286768,-413.544118797315 206.063699938102,-413.475386078089 158.932428960942,-389.752113828222 198.325155321647,-340.41500774554 " style="fill: rgb(226,200,51); fill-opacity: 1; stroke: rgb(0,0,0); stroke-width: 3" />
	<polygon points="33.5,-180.30120896983 46.6652324723443,-173.694523802521 97.8089779868258,-207.995772980238 94.1671776162679,-232.447031862423 81.533514751431,-283.677305263817 " style="fill: rgb(226,200,51); fill-opacity: 1; stroke: rgb(0,0,0); stroke-width: 3" />
	<polygon points="210.830199503065,-174.701601546906 196.57520207183,-216.900362160467 119.276420578681,-154.779857428562 105.5571181411,-94.7462073559825 172.68563823992,-92.3047505729726 210.685267531672,-172.744555154764 " style="fill: rgb(226,200,51); fill-opacity: 1; stroke: rgb(0,0,0); stroke-width: 3" />
	<polygon points="327.268205261127,-160.092458460117 210.830199503065,-174.701601546906 211.22624508938,-172.77957559732 281.370910730837,-121.848465624915 " style="fill: rgb(226,200,51); fill-opacity: 1; stroke: rgb(0,0,0); stroke-width: 3" />
	<polygon points="417.146930263799,-416.193947675777 337.156341544422,-280.495753992897 444.775679622884,-229.032548134125 461.547515803366,-240.517353107551 543.651804041926,-345.548818700517 " style="fill: rgb(226,200,51); fill-opacity: 1; stroke: rgb(0,0,0); stroke-width: 3" />
	<polygon points="341.551949096765,-144.334563143065 330.493886408256,-161.390778541552 327.268205261127,-160.092458460117 284.807594874662,-118.065548047999 286.806290257286,-65.887894764317 300.673720746377,-60.3443389986859 " style="fill: rgb(226,200,51); fill-opacity: 1; stroke: rgb(0,0,0); stroke-width: 3" />
	<polygon points="221.255544828028,-53.5 251.334908037049,-96.1817782474565 210.685267531672,-172.744555154764 172.68563823992,-92.3047505729726 " style="fill: rgb(226,200,51); fill-opacity: 1; stroke: rgb(0,0,0); stroke-width: 3" />
	<polygon points="254.659489237566,-385.476287932497 353.327094559636,-439.631135741095 261.534304103443,-480.795993814794 210.153026996384,-419.031581541562 210.179803615216,-418.885967132022 " style="fill: rgb(226,200,51); fill-opacity: 1; stroke: rgb(0,0,0); stroke-width: 3" />
	<circle cx="269.968399166059" cy="-280.495753992897" r="2" style="fill: rgb(0,0,0)" />
	<circle cx="337.156341544422" cy="-280.495753992897" r="2" style="fill: rgb(0,0,0)" />
	<circle cx="417.146930263799" cy="-416.193947675777" r="2" style="fill: rgb(0,0,0)" />
	<circle cx="353.327094559636" cy="-439.631135741095" r="2" style="fill: rgb(0,0,0)" />
	<circle cx="254.659489237566" cy="-385.476287932497" r="2" style="fill: rgb(0,0,0)" />
	<circle cx="205.018258292345" cy="-242.057045366526" r="2" style="fill: rgb(0,0,0)" />
	<circle cx="196.57520207183" cy="-216.900362160467" r="2" style="fill: rgb(0,0,0)" />
	<circle cx="210.830199503065" cy="-174.701601546906" r="2" style="fill: rgb(0,0,0)" />
	<circle cx="327.268205261127" cy="-160.092458460117" r="2" style="fill: rgb(0,0,0)" />
	<circle cx="330.493886408256" cy="-161.390778541552" r="2" style="fill: rgb(0,0,0)" />
	<circle cx="451.813508337978" cy="-556.879574881174" r="2" style="fill: rgb(0,0,0)" />
	<circle cx="419.41748753293" cy="-606.642428666676" r="2" style="fill: rgb(0,0,0)" />
	<circle cx="294.232705445112" cy="-602.852685205088" r="2" style="fill: rgb(0,0,0)" />
	<circle cx="277.212879108498" cy="-505.411741744829" r="2" style="fill: rgb(0,0,0)" />
	<circle cx="206.553868341858" cy="-413.4136882324" r="2" style="fill: rgb(0,0,0)" />
	<circle cx="198.325155321647" cy="-340.41500774554" r="2" style="fill: rgb(0,0,0)" />
	<circle cx="194.582598590065" cy="-284.106320692836" r="2" style="fill: rgb(0,0,0)" />
	<circle cx="444.775679622884" cy="-229.032548134125" r="2" style="fill: rgb(0,0,0)" />
	<circle cx="461.547515803366" cy="-240.517353107551" r="2" style="fill: rgb(0,0,0)" />
	<circle cx="543.651804041926" cy="-345.548818700517" r="2" style="fill: rgb(0,0,0)" />
	<circle cx="261.534304103443" cy="-480.795993814794" r="2" style="fill: rgb(0,0,0)" />
	<circle cx="210.153026996384" cy="-419.031581541562" r="2" style="fill: rgb(0,0,0)" />
	<circle cx="210.179803615216" cy="-418.885967132022" r="2" style="fill: rgb(0,0,0)" />
	<circle cx="151.293046636817" cy="-259.327731544477" r="2" style="fill: rgb(0,0,0)" />
	<circle cx="94.1671776162679" cy="-232.447031862423" r="2" style="fill: rgb(0,0,0)" />
	<circle cx="97.8089779868258" cy="-207.995772980238" r="2" style="fill: rgb(0,0,0)" />
	<circle cx="119.276420578681" cy="-154.779857428562" r="2" style="fill: rgb(0,0,0)" />
	<circle cx="105.5571181411" cy="-94.7462073559825" r="2" style="fill: rgb(0,0,0)" />
	<circle cx="172.68563823992" cy="-92.3047505729726" r="2" style="fill: rgb(0,0,0)" />
	<circle cx="210.685267531672" cy="-172.744555154764" r="2" style="fill: rgb(0,0,0)" />
	<circle cx="211.22624508938" cy="-172.77957559732" r="2" style="fill: rgb(0,0,0)" />
	<circle cx="281.370910730837" cy="-121.848465624915" r="2" style="fill: rgb(0,0,0)" />
	<circle cx="284.807594874662" cy="-118.065548047999" r="2" style="fill: rgb(0,0,0)" />
	<circle cx="286.806290257286" cy="-65.887894764317" r="2" style="fill: rgb(0,0,0)" />
	<circle cx="300.673720746377" cy="-60.3443389986859" r="2" style="fill: rgb(0,0,0)" />
	<circle cx="341.551949096765" cy="-144.334563143065" r="2" style="fill: rgb(0,0,0)" />
	<circle cx="380.020433121822" cy="-703.4502314791" r="2" style="fill: rgb(0,0,0)" />
	<circle cx="370.678720285463" cy="-715.102228740488" r="2" style="fill: rgb(0,0,0)" />
	<circle cx="310.183349484784" cy="-729.425447816368" r="2" style="fill: rgb(0,0,0)" />
	<circle cx="265.821921343551" cy="-678.984763689823" r="2" style="fill: rgb(0,0,0)" />
	<circle cx="267.048833398709" cy="-664.305992564167" r="2" style="fill: rgb(0,0,0)" />
	<circle cx="561.5" cy="-632.652897750441" r="2" style="fill: rgb(0,0,0)" />
	<circle cx="485.796964302166" cy="-687.374353241122" r="2" style="fill: rgb(0,0,0)" />
	<circle cx="228.84160039408" cy="-618.327673573788" r="2" style="fill: rgb(0,0,0)" />
	<circle cx="196.871872052597" cy="-508.912079190889" r="2" style="fill: rgb(0,0,0)" />
	<circle cx="196.929626759669" cy="-508.490321434443" r="2" style="fill: rgb(0,0,0)" />
	<circle cx="206.483808286768" cy="-413.544118797315" r="2" style="fill: rgb(0,0,0)" />
	<circle cx="206.063699938102" cy="-413.475386078089" r="2" style="fill: rgb(0,0,0)" />
	<circle cx="158.932428960942" cy="-389.752113828222" r="2" style="fill: rgb(0,0,0)" />
	<circle cx="81.533514751431" cy="-283.677305263817" r="2" style="fill: rgb(0,0,0)" />
	<circle cx="33.5" cy="-180.30120896983" r="2" style="fill: rgb(0,0,0)" />
	<circle cx="46.6652324723443" cy="-173.694523802521" r="2" style="fill: rgb(0,0,0)" />
	<circle cx="221.255544828028" cy="-53.5" r="2" style="fill: rgb(0,0,0)" />
	<circle cx="251.334908037049" cy="-96.1817782474565" r="2" style="fill: rgb(0,0,0)" />
	<!--
	Generated using the Perl SVG Module V2.86
	by Ronan Oger
	Info: http://www.roitsystems.com/
	-->
</svg>