<?xml version="1.0" encoding="UTF-8" standalone="yes"?>
<!DOCTYPE svg PUBLIC "-//W3C//DTD SVG 1.0//EN" "http://www.w3.org/TR/2001/REC-SVG-20010904/DTD/svg10.dtd">
<!-- generated using polymake; Michael Joswig, Georg Loho, Benjamin Lorenz, Rico Raber; license CC BY-NC-ND 3.0; see polymake.org and matchthenet.de -->
<svg height="841pt" id="document" viewBox="0 -771.330739339706 572 771.330739339706" width="595pt" xmlns="http://www.w3.org/2000/svg" xmlns:svg="http://www.w3.org/2000/svg" xmlns:xlink="http://www.w3.org/1999/xlink">
	<title id="document_title">planar_net_</title>
	<polygon points="185.647032401631,-346.311697698818 233.549117755269,-346.311697698818 258.459441035695,-382.97981081673 174.885353893303,-467.037454702626 " style="fill: rgb(67,184,206); fill-opacity: 1; stroke: rgb(0,0,0); stroke-width: 3" />
	<polygon points="158.491551876143,-511.703527674675 183.766307335052,-521.999268691018 190.015440335012,-673.509781998845 78.2169619543274,-734.830739339706 68.8022004179024,-720.091155493558 " style="fill: rgb(255,210,63); fill-opacity: 1; stroke: rgb(0,0,0); stroke-width: 3" />
	<polygon points="227.972695271399,-521.858393604985 372.236210449263,-422.341772950551 379.097198973592,-532.6951014497 353.706268226002,-562.342932219111 350.682942270223,-563.955865848215 " style="fill: rgb(255,210,63); fill-opacity: 1; stroke: rgb(0,0,0); stroke-width: 3" />
	<polygon points="259.848081691415,-272.061450750827 255.719383402347,-276.052209070136 82.0993588443706,-217.820546257484 142.97594990612,-190.896852887529 168.242034460159,-186.981411381263 " style="fill: rgb(255,210,63); fill-opacity: 1; stroke: rgb(0,0,0); stroke-width: 3" />
	<polygon points="372.236210449263,-422.341772950551 372.851568136934,-399.201610242581 433.886021305889,-362.37121928968 525.840802923116,-428.368488961716 467.26123213031,-478.867656657814 " style="fill: rgb(255,210,63); fill-opacity: 1; stroke: rgb(0,0,0); stroke-width: 3" />
	<polygon points="247.636420902487,-303.068311255394 233.549117755269,-346.311697698818 185.647032401631,-346.311697698818 167.611174667518,-317.27771741055 251.733349819177,-282.405321310262 " style="fill: rgb(255,210,63); fill-opacity: 1; stroke: rgb(0,0,0); stroke-width: 3" />
	<polygon points="167.611174667518,-317.27771741055 64.0014369114335,-241.239849959757 68.736814889045,-224.403304525658 82.0993588443706,-217.820546257484 255.719383402347,-276.052209070136 251.733349819177,-282.405321310262 " style="fill: rgb(238,66,102); fill-opacity: 1; stroke: rgb(0,0,0); stroke-width: 3" />
	<polygon points="95.068640976624,-53.6928322008496 98.4898791251749,-53.5 123.912073992809,-166.027289400108 82.0993588443706,-217.820546257484 68.736814889045,-224.403304525658 65.8176370298432,-96.9253143545632 " style="fill: rgb(238,66,102); fill-opacity: 1; stroke: rgb(0,0,0); stroke-width: 3" />
	<polygon points="174.885353893303,-467.037454702626 258.459441035695,-382.97981081673 278.279528401435,-383.798839631758 372.851568136934,-399.201610242581 372.236210449263,-422.341772950551 227.972695271399,-521.858393604985 183.766307335052,-521.999268691018 158.491551876143,-511.703527674675 " style="fill: rgb(136,136,136); fill-opacity: 1; stroke: rgb(0,0,0); stroke-width: 3" />
	<polygon points="183.766307335052,-521.999268691018 227.972695271399,-521.858393604985 307.603870229746,-624.273616411663 262.95757419415,-651.317599020885 " style="fill: rgb(67,184,206); fill-opacity: 1; stroke: rgb(0,0,0); stroke-width: 3" />
	<polygon points="379.097198973592,-532.6951014497 441.249904120894,-578.725236091498 442.399784052122,-614.592043700765 439.070539260358,-639.942030682961 353.706268226002,-562.342932219111 " style="fill: rgb(255,210,63); fill-opacity: 1; stroke: rgb(0,0,0); stroke-width: 3" />
	<polygon points="278.279528401435,-383.798839631758 286.515406101062,-310.469119911935 301.865213042778,-296.042498447673 309.202845543601,-294.490194307148 314.426414072957,-296.874860603385 359.540216537346,-329.169545515277 372.851568136934,-399.201610242581 " style="fill: rgb(84,13,110); fill-opacity: 1; stroke: rgb(0,0,0); stroke-width: 3" />
	<polygon points="185.647032401631,-346.311697698818 174.885353893303,-467.037454702626 146.171000994975,-504.975572169803 33.5,-308.062320386757 161.214058861409,-322.409940868667 " style="fill: rgb(255,210,63); fill-opacity: 1; stroke: rgb(0,0,0); stroke-width: 3" />
	<polygon points="433.886021305889,-362.37121928968 479.146446049846,-330.282345854308 561.5,-424.347074314214 525.840802923116,-428.368488961716 " style="fill: rgb(67,184,206); fill-opacity: 1; stroke: rgb(0,0,0); stroke-width: 3" />
	<polygon points="258.459441035695,-382.97981081673 233.549117755269,-346.311697698818 255.288085367767,-306.363482867616 277.306837322375,-376.792539641309 " style="fill: rgb(67,184,206); fill-opacity: 1; stroke: rgb(0,0,0); stroke-width: 3" />
	<circle cx="185.647032401631" cy="-346.311697698818" r="2" style="fill: rgb(0,0,0)" />
	<circle cx="233.549117755269" cy="-346.311697698818" r="2" style="fill: rgb(0,0,0)" />
	<circle cx="258.459441035695" cy="-382.97981081673" r="2" style="fill: rgb(0,0,0)" />
	<circle cx="174.885353893303" cy="-467.037454702626" r="2" style="fill: rgb(0,0,0)" />
	<circle cx="167.611174667518" cy="-317.27771741055" r="2" style="fill: rgb(0,0,0)" />
	<circle cx="251.733349819177" cy="-282.405321310262" r="2" style="fill: rgb(0,0,0)" />
	<circle cx="247.636420902487" cy="-303.068311255394" r="2" style="fill: rgb(0,0,0)" />
	<circle cx="278.279528401435" cy="-383.798839631758" r="2" style="fill: rgb(0,0,0)" />
	<circle cx="372.851568136934" cy="-399.201610242581" r="2" style="fill: rgb(0,0,0)" />
	<circle cx="372.236210449263" cy="-422.341772950551" r="2" style="fill: rgb(0,0,0)" />
	<circle cx="227.972695271399" cy="-521.858393604985" r="2" style="fill: rgb(0,0,0)" />
	<circle cx="183.766307335052" cy="-521.999268691018" r="2" style="fill: rgb(0,0,0)" />
	<circle cx="158.491551876143" cy="-511.703527674675" r="2" style="fill: rgb(0,0,0)" />
	<circle cx="146.171000994975" cy="-504.975572169803" r="2" style="fill: rgb(0,0,0)" />
	<circle cx="33.5" cy="-308.062320386757" r="2" style="fill: rgb(0,0,0)" />
	<circle cx="161.214058861409" cy="-322.409940868667" r="2" style="fill: rgb(0,0,0)" />
	<circle cx="255.288085367767" cy="-306.363482867616" r="2" style="fill: rgb(0,0,0)" />
	<circle cx="277.306837322375" cy="-376.792539641309" r="2" style="fill: rgb(0,0,0)" />
	<circle cx="64.0014369114335" cy="-241.239849959757" r="2" style="fill: rgb(0,0,0)" />
	<circle cx="68.736814889045" cy="-224.403304525658" r="2" style="fill: rgb(0,0,0)" />
	<circle cx="82.0993588443706" cy="-217.820546257484" r="2" style="fill: rgb(0,0,0)" />
	<circle cx="255.719383402347" cy="-276.052209070136" r="2" style="fill: rgb(0,0,0)" />
	<circle cx="190.015440335012" cy="-673.509781998845" r="2" style="fill: rgb(0,0,0)" />
	<circle cx="78.2169619543274" cy="-734.830739339706" r="2" style="fill: rgb(0,0,0)" />
	<circle cx="68.8022004179024" cy="-720.091155493558" r="2" style="fill: rgb(0,0,0)" />
	<circle cx="379.097198973592" cy="-532.6951014497" r="2" style="fill: rgb(0,0,0)" />
	<circle cx="353.706268226002" cy="-562.342932219111" r="2" style="fill: rgb(0,0,0)" />
	<circle cx="350.682942270223" cy="-563.955865848215" r="2" style="fill: rgb(0,0,0)" />
	<circle cx="433.886021305889" cy="-362.37121928968" r="2" style="fill: rgb(0,0,0)" />
	<circle cx="525.840802923116" cy="-428.368488961716" r="2" style="fill: rgb(0,0,0)" />
	<circle cx="467.26123213031" cy="-478.867656657814" r="2" style="fill: rgb(0,0,0)" />
	<circle cx="307.603870229746" cy="-624.273616411663" r="2" style="fill: rgb(0,0,0)" />
	<circle cx="262.95757419415" cy="-651.317599020885" r="2" style="fill: rgb(0,0,0)" />
	<circle cx="286.515406101062" cy="-310.469119911935" r="2" style="fill: rgb(0,0,0)" />
	<circle cx="301.865213042778" cy="-296.042498447673" r="2" style="fill: rgb(0,0,0)" />
	<circle cx="309.202845543601" cy="-294.490194307148" r="2" style="fill: rgb(0,0,0)" />
	<circle cx="314.426414072957" cy="-296.874860603385" r="2" style="fill: rgb(0,0,0)" />
	<circle cx="359.540216537346" cy="-329.169545515277" r="2" style="fill: rgb(0,0,0)" />
	<circle cx="142.97594990612" cy="-190.896852887529" r="2" style="fill: rgb(0,0,0)" />
	<circle cx="168.242034460159" cy="-186.981411381263" r="2" style="fill: rgb(0,0,0)" />
	<circle cx="259.848081691415" cy="-272.061450750827" r="2" style="fill: rgb(0,0,0)" />
	<circle cx="65.8176370298432" cy="-96.9253143545632" r="2" style="fill: rgb(0,0,0)" />
	<circle cx="95.068640976624" cy="-53.6928322008496" r="2" style="fill: rgb(0,0,0)" />
	<circle cx="98.4898791251749" cy="-53.5" r="2" style="fill: rgb(0,0,0)" />
	<circle cx="123.912073992809" cy="-166.027289400108" r="2" style="fill: rgb(0,0,0)" />
	<circle cx="441.249904120894" cy="-578.725236091498" r="2" style="fill: rgb(0,0,0)" />
	<circle cx="442.399784052122" cy="-614.592043700765" r="2" style="fill: rgb(0,0,0)" />
	<circle cx="439.070539260358" cy="-639.942030682961" r="2" style="fill: rgb(0,0,0)" />
	<circle cx="479.146446049846" cy="-330.282345854308" r="2" style="fill: rgb(0,0,0)" />
	<circle cx="561.5" cy="-424.347074314214" r="2" style="fill: rgb(0,0,0)" />
	<!--
	Generated using the Perl SVG Module V2.86
	by Ronan Oger
	Info: http://www.roitsystems.com/
	-->
</svg>