<?xml version="1.0" encoding="UTF-8" standalone="yes"?>
<!DOCTYPE svg PUBLIC "-//W3C//DTD SVG 1.0//EN" "http://www.w3.org/TR/2001/REC-SVG-20010904/DTD/svg10.dtd">
<!-- generated using polymake; Michael Joswig, Georg Loho, Benjamin Lorenz, Rico Raber; license CC BY-NC-SA 3.0; see polymake.org and matchthenet.de -->
<svg height="841pt" id="document" viewBox="0 -626.557603240827 572 626.557603240827" width="595pt" xmlns="http://www.w3.org/2000/svg" xmlns:svg="http://www.w3.org/2000/svg" xmlns:xlink="http://www.w3.org/1999/xlink">
	<title id="document_title">planar_net_</title>
	<polygon points="434.237124257137,-195.555737357622 446.198769061372,-195.555737357622 464.479317463544,-240.677355161622 473.534828141897,-287.036134788949 447.709893314886,-310.941528032334 295.932934077971,-273.044447241135 " style="fill: rgb(14,173,105); fill-opacity: 1; stroke: rgb(0,0,0); stroke-width: 3" />
	<polygon points="70.2184353653771,-438.642648968071 259.013058562502,-439.263351265344 415.871548659373,-510.515002293644 462.863976807111,-565.366677142631 470.522935682709,-579.886741557974 435.623199413613,-590.057603240827 " style="fill: rgb(14,173,105); fill-opacity: 1; stroke: rgb(0,0,0); stroke-width: 3" />
	<polygon points="467.897080745702,-108.158629178849 446.198769061372,-195.555737357622 434.237124257137,-195.555737357622 440.075506639705,-61.8906815391591 " style="fill: rgb(14,173,105); fill-opacity: 1; stroke: rgb(0,0,0); stroke-width: 3" />
	<polygon points="295.932934077971,-273.044447241135 447.709893314886,-310.941528032334 442.809329080189,-337.783216050919 259.013058562502,-439.263351265344 70.2184353653771,-438.642648968071 " style="fill: rgb(14,173,105); fill-opacity: 1; stroke: rgb(0,0,0); stroke-width: 3" />
	<polygon points="447.709893314886,-310.941528032334 473.534828141897,-287.036134788949 481.852431643652,-320.918417428699 443.128852382848,-337.839591335925 " style="fill: rgb(14,173,105); fill-opacity: 1; stroke: rgb(0,0,0); stroke-width: 3" />
	<polygon points="506.488505319804,-484.8906397953 501.495096000784,-510.753843736439 481.010844443826,-514.246422426527 415.871548659373,-510.515002293644 259.013058562502,-439.263351265344 466.530301919579,-471.13623329435 " style="fill: rgb(14,173,105); fill-opacity: 1; stroke: rgb(0,0,0); stroke-width: 3" />
	<polygon points="478.023676256605,-530.368575942754 462.863976807111,-565.366677142631 415.871548659373,-510.515002293644 " style="fill: rgb(14,173,105); fill-opacity: 1; stroke: rgb(0,0,0); stroke-width: 3" />
	<polygon points="434.237124257137,-195.555737357622 295.932934077971,-273.044447241135 33.5,-370.506000971375 328.886055248784,-107.458080753169 332.29008734624,-108.911432750305 " style="fill: rgb(14,173,105); fill-opacity: 1; stroke: rgb(0,0,0); stroke-width: 3" />
	<polygon points="473.534828141897,-287.036134788949 464.479317463544,-240.677355161622 529.061071743054,-308.242504281032 512.237034192371,-325.608341496251 486.646328730568,-319.366927498161 " style="fill: rgb(14,173,105); fill-opacity: 1; stroke: rgb(0,0,0); stroke-width: 3" />
	<polygon points="464.479317463544,-240.677355161622 446.198769061372,-195.555737357622 523.167826911794,-242.297960043119 557.419721723029,-277.549326659471 540.311825166727,-295.315099778267 " style="fill: rgb(14,173,105); fill-opacity: 1; stroke: rgb(0,0,0); stroke-width: 3" />
	<polygon points="529.061071743054,-308.242504281032 551.777927701417,-298.637959812046 561.5,-306.779389766485 559.610739933915,-323.08652372946 526.022819249426,-341.156807597954 512.237034192371,-325.608341496251 " style="fill: rgb(14,173,105); fill-opacity: 1; stroke: rgb(0,0,0); stroke-width: 3" />
	<polygon points="484.70891097345,-61.9719047780685 467.897080745702,-108.158629178849 440.075506639705,-61.8906815391591 439.238183203189,-58.2853305145354 475.273424716068,-53.5 " style="fill: rgb(14,173,105); fill-opacity: 1; stroke: rgb(0,0,0); stroke-width: 3" />
	<circle cx="434.237124257137" cy="-195.555737357622" r="2" style="fill: rgb(0,0,0)" />
	<circle cx="446.198769061372" cy="-195.555737357622" r="2" style="fill: rgb(0,0,0)" />
	<circle cx="464.479317463544" cy="-240.677355161622" r="2" style="fill: rgb(0,0,0)" />
	<circle cx="473.534828141897" cy="-287.036134788949" r="2" style="fill: rgb(0,0,0)" />
	<circle cx="447.709893314886" cy="-310.941528032334" r="2" style="fill: rgb(0,0,0)" />
	<circle cx="295.932934077971" cy="-273.044447241135" r="2" style="fill: rgb(0,0,0)" />
	<circle cx="440.075506639705" cy="-61.8906815391591" r="2" style="fill: rgb(0,0,0)" />
	<circle cx="467.897080745702" cy="-108.158629178849" r="2" style="fill: rgb(0,0,0)" />
	<circle cx="442.809329080189" cy="-337.783216050919" r="2" style="fill: rgb(0,0,0)" />
	<circle cx="259.013058562502" cy="-439.263351265344" r="2" style="fill: rgb(0,0,0)" />
	<circle cx="70.2184353653771" cy="-438.642648968071" r="2" style="fill: rgb(0,0,0)" />
	<circle cx="481.852431643652" cy="-320.918417428699" r="2" style="fill: rgb(0,0,0)" />
	<circle cx="443.128852382848" cy="-337.839591335925" r="2" style="fill: rgb(0,0,0)" />
	<circle cx="33.5" cy="-370.506000971375" r="2" style="fill: rgb(0,0,0)" />
	<circle cx="328.886055248784" cy="-107.458080753169" r="2" style="fill: rgb(0,0,0)" />
	<circle cx="332.29008734624" cy="-108.911432750305" r="2" style="fill: rgb(0,0,0)" />
	<circle cx="529.061071743054" cy="-308.242504281032" r="2" style="fill: rgb(0,0,0)" />
	<circle cx="512.237034192371" cy="-325.608341496251" r="2" style="fill: rgb(0,0,0)" />
	<circle cx="486.646328730568" cy="-319.366927498161" r="2" style="fill: rgb(0,0,0)" />
	<circle cx="523.167826911794" cy="-242.297960043119" r="2" style="fill: rgb(0,0,0)" />
	<circle cx="557.419721723029" cy="-277.549326659471" r="2" style="fill: rgb(0,0,0)" />
	<circle cx="540.311825166727" cy="-295.315099778267" r="2" style="fill: rgb(0,0,0)" />
	<circle cx="439.238183203189" cy="-58.2853305145354" r="2" style="fill: rgb(0,0,0)" />
	<circle cx="475.273424716068" cy="-53.5" r="2" style="fill: rgb(0,0,0)" />
	<circle cx="484.70891097345" cy="-61.9719047780685" r="2" style="fill: rgb(0,0,0)" />
	<circle cx="415.871548659373" cy="-510.515002293644" r="2" style="fill: rgb(0,0,0)" />
	<circle cx="462.863976807111" cy="-565.366677142631" r="2" style="fill: rgb(0,0,0)" />
	<circle cx="470.522935682709" cy="-579.886741557974" r="2" style="fill: rgb(0,0,0)" />
	<circle cx="435.623199413613" cy="-590.057603240827" r="2" style="fill: rgb(0,0,0)" />
	<circle cx="551.777927701417" cy="-298.637959812046" r="2" style="fill: rgb(0,0,0)" />
	<circle cx="561.5" cy="-306.779389766485" r="2" style="fill: rgb(0,0,0)" />
	<circle cx="559.610739933915" cy="-323.08652372946" r="2" style="fill: rgb(0,0,0)" />
	<circle cx="526.022819249426" cy="-341.156807597954" r="2" style="fill: rgb(0,0,0)" />
	<circle cx="466.530301919579" cy="-471.13623329435" r="2" style="fill: rgb(0,0,0)" />
	<circle cx="506.488505319804" cy="-484.8906397953" r="2" style="fill: rgb(0,0,0)" />
	<circle cx="501.495096000784" cy="-510.753843736439" r="2" style="fill: rgb(0,0,0)" />
	<circle cx="481.010844443826" cy="-514.246422426527" r="2" style="fill: rgb(0,0,0)" />
	<circle cx="478.023676256605" cy="-530.368575942754" r="2" style="fill: rgb(0,0,0)" />
	<!-- 
	Generated using the Perl SVG Module V2.64
	by Ronan Oger
	Info: http://www.roitsystems.com/
 -->
</svg>