<?xml version="1.0" encoding="UTF-8" standalone="yes"?>
<!DOCTYPE svg PUBLIC "-//W3C//DTD SVG 1.0//EN" "http://www.w3.org/TR/2001/REC-SVG-20010904/DTD/svg10.dtd">
<!-- generated using polymake; Michael Joswig, Georg Loho, Benjamin Lorenz, Rico Raber; license CC BY-NC-ND 3.0; see polymake.org and matchthenet.de -->
<svg height="841pt" id="document" viewBox="0 -721.189478951272 572 721.189478951272" width="595pt" xmlns="http://www.w3.org/2000/svg" xmlns:svg="http://www.w3.org/2000/svg" xmlns:xlink="http://www.w3.org/1999/xlink">
	<title id="document_title">planar_net_</title>
	<polygon points="244.855427182396,-363.237954911916 304.057061751566,-363.237954911916 316.476785366748,-518.494785364429 222.360965372216,-399.804843950337 223.255726043519,-388.595117923108 " style="fill: rgb(255,210,63); fill-opacity: 1; stroke: rgb(0,0,0); stroke-width: 3" />
	<polygon points="96.8278528291315,-457.207888972878 120.274365810151,-485.524928806647 33.5,-578.394704854298 74.3520522014903,-463.639526498349 " style="fill: rgb(67,184,206); fill-opacity: 1; stroke: rgb(0,0,0); stroke-width: 3" />
	<polygon points="345.574653236951,-624.940089527727 441.02496496703,-430.064104562411 522.590608874212,-523.067518322819 517.658129981188,-609.387445224043 504.912596053052,-632.754373569942 349.360858617176,-671.7022327589 " style="fill: rgb(238,66,102); fill-opacity: 1; stroke: rgb(0,0,0); stroke-width: 3" />
	<polygon points="380.187994154724,-316.489418975859 304.057061751566,-363.237954911916 244.855427182396,-363.237954911916 257.319284940379,-234.073421943215 274.063693775946,-210.102950151685 276.475979619654,-209.66393819358 " style="fill: rgb(238,66,102); fill-opacity: 1; stroke: rgb(0,0,0); stroke-width: 3" />
	<polygon points="222.360965372216,-399.804843950337 316.476785366748,-518.494785364429 341.720130168089,-625.919467054688 314.043960895024,-663.801693033685 208.528385398237,-529.799606376714 " style="fill: rgb(255,210,63); fill-opacity: 1; stroke: rgb(0,0,0); stroke-width: 3" />
	<polygon points="208.528385398237,-529.799606376714 314.043960895024,-663.801693033685 155.056605567054,-684.689478951272 151.793563434672,-678.580362892404 129.652641961959,-553.423000099642 " style="fill: rgb(255,210,63); fill-opacity: 1; stroke: rgb(0,0,0); stroke-width: 3" />
	<polygon points="223.255726043519,-388.595117923108 222.360965372216,-399.804843950337 191.497144300741,-526.837922618443 120.274365810151,-485.524928806647 96.8278528291315,-457.207888972878 107.532467961263,-442.41943747749 " style="fill: rgb(238,66,102); fill-opacity: 1; stroke: rgb(0,0,0); stroke-width: 3" />
	<polygon points="316.476785366748,-518.494785364429 304.057061751566,-363.237954911916 392.581712025629,-375.268365320178 426.569020254067,-401.954075852987 441.02496496703,-430.064104562411 345.574653236951,-624.940089527727 " style="fill: rgb(238,66,102); fill-opacity: 1; stroke: rgb(0,0,0); stroke-width: 3" />
	<polygon points="187.486339422711,-217.613346095491 180.492226858814,-200.750088041304 194.565854989135,-182.08298954255 230.137193316949,-178.851406123991 274.063693775946,-210.102950151685 257.319284940379,-234.073421943215 " style="fill: rgb(238,66,102); fill-opacity: 1; stroke: rgb(0,0,0); stroke-width: 3" />
	<polygon points="244.855427182396,-363.237954911916 223.255726043519,-388.595117923108 99.5272724559783,-357.286978254617 134.651348609597,-294.726018775552 " style="fill: rgb(67,184,206); fill-opacity: 1; stroke: rgb(0,0,0); stroke-width: 3" />
	<polygon points="189.562487634872,-53.5 213.117455245102,-65.8945744709809 243.243334373817,-139.518730208595 230.137193316949,-178.851406123991 194.565854989135,-182.08298954255 188.978979026606,-60.4013231110048 " style="fill: rgb(238,66,102); fill-opacity: 1; stroke: rgb(0,0,0); stroke-width: 3" />
	<polygon points="341.523844882442,-127.779270345302 305.503874599051,-176.169263020818 273.14946828088,-137.630482965228 288.407484280779,-59.5582225323292 " style="fill: rgb(67,184,206); fill-opacity: 1; stroke: rgb(0,0,0); stroke-width: 3" />
	<polygon points="441.02496496703,-430.064104562411 426.569020254067,-401.954075852987 553.894322543457,-335.239489151596 558.112375233188,-341.757265300968 561.5,-401.986441360347 " style="fill: rgb(255,210,63); fill-opacity: 1; stroke: rgb(0,0,0); stroke-width: 3" />
	<polygon points="413.765629774503,-289.290031970982 380.187994154724,-316.489418975859 276.475979619654,-209.66393819358 308.992106965502,-190.877240119492 " style="fill: rgb(67,184,206); fill-opacity: 1; stroke: rgb(0,0,0); stroke-width: 3" />
	<polygon points="276.475979619654,-209.66393819358 274.063693775946,-210.102950151685 242.974651344307,-166.061289336354 273.14946828088,-137.630482965228 305.503874599051,-176.169263020818 303.604411596707,-183.69690639238 " style="fill: rgb(238,66,102); fill-opacity: 1; stroke: rgb(0,0,0); stroke-width: 3" />
	<circle cx="244.855427182396" cy="-363.237954911916" r="2" style="fill: rgb(0,0,0)" />
	<circle cx="304.057061751566" cy="-363.237954911916" r="2" style="fill: rgb(0,0,0)" />
	<circle cx="316.476785366748" cy="-518.494785364429" r="2" style="fill: rgb(0,0,0)" />
	<circle cx="222.360965372216" cy="-399.804843950337" r="2" style="fill: rgb(0,0,0)" />
	<circle cx="223.255726043519" cy="-388.595117923108" r="2" style="fill: rgb(0,0,0)" />
	<circle cx="257.319284940379" cy="-234.073421943215" r="2" style="fill: rgb(0,0,0)" />
	<circle cx="274.063693775946" cy="-210.102950151685" r="2" style="fill: rgb(0,0,0)" />
	<circle cx="276.475979619654" cy="-209.66393819358" r="2" style="fill: rgb(0,0,0)" />
	<circle cx="380.187994154724" cy="-316.489418975859" r="2" style="fill: rgb(0,0,0)" />
	<circle cx="341.720130168089" cy="-625.919467054688" r="2" style="fill: rgb(0,0,0)" />
	<circle cx="314.043960895024" cy="-663.801693033685" r="2" style="fill: rgb(0,0,0)" />
	<circle cx="208.528385398237" cy="-529.799606376714" r="2" style="fill: rgb(0,0,0)" />
	<circle cx="191.497144300741" cy="-526.837922618443" r="2" style="fill: rgb(0,0,0)" />
	<circle cx="120.274365810151" cy="-485.524928806647" r="2" style="fill: rgb(0,0,0)" />
	<circle cx="96.8278528291315" cy="-457.207888972878" r="2" style="fill: rgb(0,0,0)" />
	<circle cx="107.532467961263" cy="-442.41943747749" r="2" style="fill: rgb(0,0,0)" />
	<circle cx="392.581712025629" cy="-375.268365320178" r="2" style="fill: rgb(0,0,0)" />
	<circle cx="426.569020254067" cy="-401.954075852987" r="2" style="fill: rgb(0,0,0)" />
	<circle cx="441.02496496703" cy="-430.064104562411" r="2" style="fill: rgb(0,0,0)" />
	<circle cx="345.574653236951" cy="-624.940089527727" r="2" style="fill: rgb(0,0,0)" />
	<circle cx="99.5272724559783" cy="-357.286978254617" r="2" style="fill: rgb(0,0,0)" />
	<circle cx="134.651348609597" cy="-294.726018775552" r="2" style="fill: rgb(0,0,0)" />
	<circle cx="187.486339422711" cy="-217.613346095491" r="2" style="fill: rgb(0,0,0)" />
	<circle cx="180.492226858814" cy="-200.750088041304" r="2" style="fill: rgb(0,0,0)" />
	<circle cx="194.565854989135" cy="-182.08298954255" r="2" style="fill: rgb(0,0,0)" />
	<circle cx="230.137193316949" cy="-178.851406123991" r="2" style="fill: rgb(0,0,0)" />
	<circle cx="308.992106965502" cy="-190.877240119492" r="2" style="fill: rgb(0,0,0)" />
	<circle cx="413.765629774503" cy="-289.290031970982" r="2" style="fill: rgb(0,0,0)" />
	<circle cx="242.974651344307" cy="-166.061289336354" r="2" style="fill: rgb(0,0,0)" />
	<circle cx="273.14946828088" cy="-137.630482965228" r="2" style="fill: rgb(0,0,0)" />
	<circle cx="305.503874599051" cy="-176.169263020818" r="2" style="fill: rgb(0,0,0)" />
	<circle cx="303.604411596707" cy="-183.69690639238" r="2" style="fill: rgb(0,0,0)" />
	<circle cx="155.056605567054" cy="-684.689478951272" r="2" style="fill: rgb(0,0,0)" />
	<circle cx="151.793563434672" cy="-678.580362892404" r="2" style="fill: rgb(0,0,0)" />
	<circle cx="129.652641961959" cy="-553.423000099642" r="2" style="fill: rgb(0,0,0)" />
	<circle cx="33.5" cy="-578.394704854298" r="2" style="fill: rgb(0,0,0)" />
	<circle cx="74.3520522014903" cy="-463.639526498349" r="2" style="fill: rgb(0,0,0)" />
	<circle cx="522.590608874212" cy="-523.067518322819" r="2" style="fill: rgb(0,0,0)" />
	<circle cx="517.658129981188" cy="-609.387445224043" r="2" style="fill: rgb(0,0,0)" />
	<circle cx="504.912596053052" cy="-632.754373569942" r="2" style="fill: rgb(0,0,0)" />
	<circle cx="349.360858617176" cy="-671.7022327589" r="2" style="fill: rgb(0,0,0)" />
	<circle cx="553.894322543457" cy="-335.239489151596" r="2" style="fill: rgb(0,0,0)" />
	<circle cx="558.112375233188" cy="-341.757265300968" r="2" style="fill: rgb(0,0,0)" />
	<circle cx="561.5" cy="-401.986441360347" r="2" style="fill: rgb(0,0,0)" />
	<circle cx="188.978979026606" cy="-60.4013231110048" r="2" style="fill: rgb(0,0,0)" />
	<circle cx="189.562487634872" cy="-53.5" r="2" style="fill: rgb(0,0,0)" />
	<circle cx="213.117455245102" cy="-65.8945744709809" r="2" style="fill: rgb(0,0,0)" />
	<circle cx="243.243334373817" cy="-139.518730208595" r="2" style="fill: rgb(0,0,0)" />
	<circle cx="288.407484280779" cy="-59.5582225323292" r="2" style="fill: rgb(0,0,0)" />
	<circle cx="341.523844882442" cy="-127.779270345302" r="2" style="fill: rgb(0,0,0)" />
	<!--
	Generated using the Perl SVG Module V2.86
	by Ronan Oger
	Info: http://www.roitsystems.com/
	-->
</svg>