<?xml version="1.0" encoding="UTF-8" standalone="yes"?>
<!DOCTYPE svg PUBLIC "-//W3C//DTD SVG 1.0//EN" "http://www.w3.org/TR/2001/REC-SVG-20010904/DTD/svg10.dtd">
<!-- generated using polymake; Michael Joswig, Georg Loho, Benjamin Lorenz, Rico Raber; license CC BY-NC-ND 3.0; see polymake.org and matchthenet.de -->
<svg height="841pt" id="document" viewBox="0 -452.191758049567 572 452.191758049567" width="595pt" xmlns="http://www.w3.org/2000/svg" xmlns:svg="http://www.w3.org/2000/svg" xmlns:xlink="http://www.w3.org/1999/xlink">
	<title id="document_title">planar_net_</title>
	<polygon points="260.376598611188,-255.56524716191 314.420993335118,-255.56524716191 263.440658776321,-295.226129845807 " style="fill: rgb(14,173,105); fill-opacity: 1; stroke: rgb(0,0,0); stroke-width: 3" />
	<polygon points="191.89512141686,-186.503542437695 142.854297164775,-212.439231093502 117.134157646501,-98.7807244825309 192.684739311944,-53.5 " style="fill: rgb(14,173,105); fill-opacity: 1; stroke: rgb(0,0,0); stroke-width: 3" />
	<polygon points="465.534899547405,-250.16784722876 454.258919782353,-135.336724613657 486.820792839069,-141.986396993964 561.5,-188.690255693899 520.843035252601,-255.964121284239 487.60442575742,-277.8628072819 " style="fill: rgb(14,173,105); fill-opacity: 1; stroke: rgb(0,0,0); stroke-width: 3" />
	<polygon points="218.749509322763,-181.476395043786 194.935272773626,-174.795663872894 279.014549764252,-71.7362587798867 311.393907012304,-79.2243121938282 351.721525848315,-136.920671220572 " style="fill: rgb(14,173,105); fill-opacity: 1; stroke: rgb(0,0,0); stroke-width: 3" />
	<polygon points="340.443016195277,-344.722214815578 344.924921587904,-345.09014708353 374.923438424476,-368.21219489334 378.213475464913,-407.879981142001 298.350132414051,-415.691758049567 313.544769466621,-362.190409195604 " style="fill: rgb(14,173,105); fill-opacity: 1; stroke: rgb(0,0,0); stroke-width: 3" />
	<polygon points="357.495623176132,-206.709326007538 245.28316520575,-214.042637668968 218.749509322763,-181.476395043786 351.721525848315,-136.920671220572 " style="fill: rgb(14,173,105); fill-opacity: 1; stroke: rgb(0,0,0); stroke-width: 3" />
	<polygon points="155.948868764603,-237.357682119205 146.106631636486,-292.684593637261 71.2693785922755,-321.642545541836 33.5,-252.706083385087 142.854297164775,-212.439231093502 " style="fill: rgb(14,173,105); fill-opacity: 1; stroke: rgb(0,0,0); stroke-width: 3" />
	<polygon points="357.213582340213,-211.016264416041 357.495623176132,-206.709326007538 384.178598854025,-141.96509579434 454.258919782353,-135.336724613657 465.534899547405,-250.16784722876 417.819983470895,-252.823960075596 " style="fill: rgb(14,173,105); fill-opacity: 1; stroke: rgb(0,0,0); stroke-width: 3" />
	<polygon points="454.94944686723,-305.655772421244 417.819983470895,-252.823960075596 465.534899547405,-250.16784722876 483.452465995985,-280.713478864733 " style="fill: rgb(14,173,105); fill-opacity: 1; stroke: rgb(0,0,0); stroke-width: 3" />
	<polygon points="315.138537759032,-255.516799812817 314.420993335118,-255.56524716191 260.376598611188,-255.56524716191 255.12658805105,-254.148861537905 245.28316520575,-214.042637668968 357.495623176132,-206.709326007538 357.213582340213,-211.016264416041 " style="fill: rgb(14,173,105); fill-opacity: 1; stroke: rgb(0,0,0); stroke-width: 3" />
	<polygon points="259.703651424505,-313.929800224247 314.416678814738,-257.232102818922 286.360970889985,-343.69249572366 257.926500628344,-328.855569056941 " style="fill: rgb(14,173,105); fill-opacity: 1; stroke: rgb(0,0,0); stroke-width: 3" />
	<polygon points="259.525073582266,-313.796411178459 259.532206064507,-313.895347799458 256.671557022574,-328.651821878929 202.552804606375,-315.828719240836 157.664215650387,-282.021155717895 236.526676083633,-263.466357648896 " style="fill: rgb(14,173,105); fill-opacity: 1; stroke: rgb(0,0,0); stroke-width: 3" />
	<polygon points="263.440658776321,-295.226129845807 314.420993335118,-255.56524716191 315.139729746635,-255.540045640445 314.416678814738,-257.232102818922 259.703651424505,-313.929800224247 259.693498781328,-313.831127780708 " style="fill: rgb(14,173,105); fill-opacity: 1; stroke: rgb(0,0,0); stroke-width: 3" />
	<polygon points="315.425125320198,-257.334415755504 315.138537759032,-255.516799812817 357.213582340213,-211.016264416041 366.140144065251,-284.100707152822 344.924921587904,-345.09014708353 340.443016195277,-344.722214815578 " style="fill: rgb(14,173,105); fill-opacity: 1; stroke: rgb(0,0,0); stroke-width: 3" />
	<polygon points="255.12658805105,-254.148861537905 234.803651892205,-255.945080400508 155.948868764603,-237.357682119205 142.854297164775,-212.439231093502 191.89512141686,-186.503542437695 216.445404144103,-183.497939435231 245.28316520575,-214.042637668968 " style="fill: rgb(14,173,105); fill-opacity: 1; stroke: rgb(0,0,0); stroke-width: 3" />
	<polygon points="260.376598611188,-255.56524716191 263.440658776321,-295.226129845807 259.525073582266,-313.796411178459 236.526676083633,-263.466357648896 254.993864876871,-254.793925787318 " style="fill: rgb(14,173,105); fill-opacity: 1; stroke: rgb(0,0,0); stroke-width: 3" />
	<circle cx="260.376598611188" cy="-255.56524716191" r="2" style="fill: rgb(0,0,0)" />
	<circle cx="314.420993335118" cy="-255.56524716191" r="2" style="fill: rgb(0,0,0)" />
	<circle cx="263.440658776321" cy="-295.226129845807" r="2" style="fill: rgb(0,0,0)" />
	<circle cx="255.12658805105" cy="-254.148861537905" r="2" style="fill: rgb(0,0,0)" />
	<circle cx="245.28316520575" cy="-214.042637668968" r="2" style="fill: rgb(0,0,0)" />
	<circle cx="357.495623176132" cy="-206.709326007538" r="2" style="fill: rgb(0,0,0)" />
	<circle cx="357.213582340213" cy="-211.016264416041" r="2" style="fill: rgb(0,0,0)" />
	<circle cx="315.138537759032" cy="-255.516799812817" r="2" style="fill: rgb(0,0,0)" />
	<circle cx="315.139729746635" cy="-255.540045640445" r="2" style="fill: rgb(0,0,0)" />
	<circle cx="314.416678814738" cy="-257.232102818922" r="2" style="fill: rgb(0,0,0)" />
	<circle cx="259.703651424505" cy="-313.929800224247" r="2" style="fill: rgb(0,0,0)" />
	<circle cx="259.693498781328" cy="-313.831127780708" r="2" style="fill: rgb(0,0,0)" />
	<circle cx="259.525073582266" cy="-313.796411178459" r="2" style="fill: rgb(0,0,0)" />
	<circle cx="236.526676083633" cy="-263.466357648896" r="2" style="fill: rgb(0,0,0)" />
	<circle cx="254.993864876871" cy="-254.793925787318" r="2" style="fill: rgb(0,0,0)" />
	<circle cx="218.749509322763" cy="-181.476395043786" r="2" style="fill: rgb(0,0,0)" />
	<circle cx="351.721525848315" cy="-136.920671220572" r="2" style="fill: rgb(0,0,0)" />
	<circle cx="384.178598854025" cy="-141.96509579434" r="2" style="fill: rgb(0,0,0)" />
	<circle cx="454.258919782353" cy="-135.336724613657" r="2" style="fill: rgb(0,0,0)" />
	<circle cx="465.534899547405" cy="-250.16784722876" r="2" style="fill: rgb(0,0,0)" />
	<circle cx="417.819983470895" cy="-252.823960075596" r="2" style="fill: rgb(0,0,0)" />
	<circle cx="366.140144065251" cy="-284.100707152822" r="2" style="fill: rgb(0,0,0)" />
	<circle cx="344.924921587904" cy="-345.09014708353" r="2" style="fill: rgb(0,0,0)" />
	<circle cx="340.443016195277" cy="-344.722214815578" r="2" style="fill: rgb(0,0,0)" />
	<circle cx="315.425125320198" cy="-257.334415755504" r="2" style="fill: rgb(0,0,0)" />
	<circle cx="234.803651892205" cy="-255.945080400508" r="2" style="fill: rgb(0,0,0)" />
	<circle cx="155.948868764603" cy="-237.357682119205" r="2" style="fill: rgb(0,0,0)" />
	<circle cx="142.854297164775" cy="-212.439231093502" r="2" style="fill: rgb(0,0,0)" />
	<circle cx="191.89512141686" cy="-186.503542437695" r="2" style="fill: rgb(0,0,0)" />
	<circle cx="216.445404144103" cy="-183.497939435231" r="2" style="fill: rgb(0,0,0)" />
	<circle cx="286.360970889985" cy="-343.69249572366" r="2" style="fill: rgb(0,0,0)" />
	<circle cx="257.926500628344" cy="-328.855569056941" r="2" style="fill: rgb(0,0,0)" />
	<circle cx="259.532206064507" cy="-313.895347799458" r="2" style="fill: rgb(0,0,0)" />
	<circle cx="256.671557022574" cy="-328.651821878929" r="2" style="fill: rgb(0,0,0)" />
	<circle cx="202.552804606375" cy="-315.828719240836" r="2" style="fill: rgb(0,0,0)" />
	<circle cx="157.664215650387" cy="-282.021155717895" r="2" style="fill: rgb(0,0,0)" />
	<circle cx="194.935272773626" cy="-174.795663872894" r="2" style="fill: rgb(0,0,0)" />
	<circle cx="279.014549764252" cy="-71.7362587798867" r="2" style="fill: rgb(0,0,0)" />
	<circle cx="311.393907012304" cy="-79.2243121938282" r="2" style="fill: rgb(0,0,0)" />
	<circle cx="486.820792839069" cy="-141.986396993964" r="2" style="fill: rgb(0,0,0)" />
	<circle cx="561.5" cy="-188.690255693899" r="2" style="fill: rgb(0,0,0)" />
	<circle cx="520.843035252601" cy="-255.964121284239" r="2" style="fill: rgb(0,0,0)" />
	<circle cx="487.60442575742" cy="-277.8628072819" r="2" style="fill: rgb(0,0,0)" />
	<circle cx="483.452465995985" cy="-280.713478864733" r="2" style="fill: rgb(0,0,0)" />
	<circle cx="454.94944686723" cy="-305.655772421244" r="2" style="fill: rgb(0,0,0)" />
	<circle cx="374.923438424476" cy="-368.21219489334" r="2" style="fill: rgb(0,0,0)" />
	<circle cx="378.213475464913" cy="-407.879981142001" r="2" style="fill: rgb(0,0,0)" />
	<circle cx="298.350132414051" cy="-415.691758049567" r="2" style="fill: rgb(0,0,0)" />
	<circle cx="313.544769466621" cy="-362.190409195604" r="2" style="fill: rgb(0,0,0)" />
	<circle cx="117.134157646501" cy="-98.7807244825309" r="2" style="fill: rgb(0,0,0)" />
	<circle cx="192.684739311944" cy="-53.5" r="2" style="fill: rgb(0,0,0)" />
	<circle cx="146.106631636486" cy="-292.684593637261" r="2" style="fill: rgb(0,0,0)" />
	<circle cx="71.2693785922755" cy="-321.642545541836" r="2" style="fill: rgb(0,0,0)" />
	<circle cx="33.5" cy="-252.706083385087" r="2" style="fill: rgb(0,0,0)" />
	<!--
	Generated using the Perl SVG Module V2.86
	by Ronan Oger
	Info: http://www.roitsystems.com/
	-->
</svg>