<?xml version="1.0" encoding="UTF-8" standalone="yes"?>
<!DOCTYPE svg PUBLIC "-//W3C//DTD SVG 1.0//EN" "http://www.w3.org/TR/2001/REC-SVG-20010904/DTD/svg10.dtd">
<!-- generated using polymake; Michael Joswig, Georg Loho, Benjamin Lorenz, Rico Raber; license CC BY-NC-ND 3.0; see polymake.org and matchthenet.de -->
<svg height="841pt" id="document" viewBox="0 -626.406380445781 572 626.406380445781" width="595pt" xmlns="http://www.w3.org/2000/svg" xmlns:svg="http://www.w3.org/2000/svg" xmlns:xlink="http://www.w3.org/1999/xlink">
	<title id="document_title">planar_net_</title>
	<polygon points="69.1833045338658,-335.866275321529 192.753383825111,-335.866275321529 270.074337524077,-382.039054947861 260.966398475698,-419.742886132002 125.171168746899,-376.314215026728 " style="fill: rgb(255,210,63); fill-opacity: 1; stroke: rgb(0,0,0); stroke-width: 3" />
	<polygon points="379.992019176388,-274.419900818107 257.578700528131,-232.167914519437 245.487453958396,-114.517201044349 321.785886663506,-147.338394590947 " style="fill: rgb(67,184,206); fill-opacity: 1; stroke: rgb(0,0,0); stroke-width: 3" />
	<polygon points="243.441810730716,-111.953586172144 292.917390591815,-53.5 354.763472753628,-90.0436711995156 321.785886663506,-147.338394590947 245.487453958396,-114.517201044349 " style="fill: rgb(255,210,63); fill-opacity: 1; stroke: rgb(0,0,0); stroke-width: 3" />
	<polygon points="33.5,-354.991584495434 121.965319039035,-507.111085545641 124.112828283047,-569.31844926381 111.79378482155,-576.615361651869 36.3749306907891,-589.906380445781 " style="fill: rgb(255,210,63); fill-opacity: 1; stroke: rgb(0,0,0); stroke-width: 3" />
	<polygon points="367.561429741484,-307.114971883263 192.753383825111,-335.866275321529 69.1833045338658,-335.866275321529 49.7960493281527,-305.676927132501 257.578700528131,-232.167914519437 379.992019176388,-274.419900818107 381.309147884761,-278.280409436632 " style="fill: rgb(84,13,110); fill-opacity: 1; stroke: rgb(0,0,0); stroke-width: 3" />
	<polygon points="225.80924427389,-480.735167479522 256.141737909254,-481.244565137396 269.216249818081,-542.146581995181 222.370272476064,-552.560068839609 208.366323399111,-512.880819974343 " style="fill: rgb(255,210,63); fill-opacity: 1; stroke: rgb(0,0,0); stroke-width: 3" />
	<polygon points="381.309147884761,-278.280409436632 379.992019176388,-274.419900818107 440.843547434868,-148.583679499762 502.029554523917,-173.613243006419 531.928143569367,-206.771180585487 519.356404074616,-223.326117001782 " style="fill: rgb(238,66,102); fill-opacity: 1; stroke: rgb(0,0,0); stroke-width: 3" />
	<polygon points="125.171168746899,-376.314215026728 260.966398475698,-419.742886132002 286.800827894481,-438.560224708355 256.141737909254,-481.244565137396 225.80924427389,-480.735167479522 " style="fill: rgb(255,210,63); fill-opacity: 1; stroke: rgb(0,0,0); stroke-width: 3" />
	<polygon points="69.1833045338658,-335.866275321529 125.171168746899,-376.314215026728 204.69512527842,-497.589512983476 176.288403456344,-520.625498273547 121.965319039035,-507.111085545641 33.5,-354.991584495434 34.5689233768091,-345.305927094957 " style="fill: rgb(84,13,110); fill-opacity: 1; stroke: rgb(0,0,0); stroke-width: 3" />
	<polygon points="286.800827894481,-438.560224708355 303.21036324512,-439.568512259133 316.847523190735,-520.453002604668 303.427953927786,-536.32844636125 287.069335723288,-535.313800497713 256.141737909254,-481.244565137396 " style="fill: rgb(238,66,102); fill-opacity: 1; stroke: rgb(0,0,0); stroke-width: 3" />
	<polygon points="121.965319039035,-507.111085545641 176.288403456344,-520.625498273547 170.368001565602,-562.284857626683 131.866463567943,-568.56297920025 " style="fill: rgb(67,184,206); fill-opacity: 1; stroke: rgb(0,0,0); stroke-width: 3" />
	<polygon points="547.215617269784,-200.861269956085 531.928143569367,-206.771180585487 502.029554523917,-173.613243006419 537.348595549221,-111.059720926854 549.995733555145,-117.771923431571 561.5,-155.047050423227 " style="fill: rgb(238,66,102); fill-opacity: 1; stroke: rgb(0,0,0); stroke-width: 3" />
	<polygon points="49.7960493281527,-305.676927132501 52.3341225477979,-296.268806130058 209.917980407059,-122.026003337368 213.154321166216,-122.557864144873 257.578700528131,-232.167914519437 " style="fill: rgb(255,210,63); fill-opacity: 1; stroke: rgb(0,0,0); stroke-width: 3" />
	<polygon points="260.966398475698,-419.742886132002 270.074337524077,-382.039054947861 350.715475914926,-352.965145786241 303.129032140605,-427.56272227707 288.75212125453,-435.53730236523 " style="fill: rgb(255,210,63); fill-opacity: 1; stroke: rgb(0,0,0); stroke-width: 3" />
	<polygon points="378.204057034668,-340.169135449142 367.561429741484,-307.114971883263 381.309147884761,-278.280409436632 491.841727021109,-377.575767576027 420.427637534598,-417.92797609866 " style="fill: rgb(255,210,63); fill-opacity: 1; stroke: rgb(0,0,0); stroke-width: 3" />
	<polygon points="270.074337524077,-382.039054947861 192.753383825111,-335.866275321529 369.349806378463,-321.788139512157 349.770767506959,-350.467478444737 " style="fill: rgb(67,184,206); fill-opacity: 1; stroke: rgb(0,0,0); stroke-width: 3" />
	<circle cx="69.1833045338658" cy="-335.866275321529" r="2" style="fill: rgb(0,0,0)" />
	<circle cx="192.753383825111" cy="-335.866275321529" r="2" style="fill: rgb(0,0,0)" />
	<circle cx="270.074337524077" cy="-382.039054947861" r="2" style="fill: rgb(0,0,0)" />
	<circle cx="260.966398475698" cy="-419.742886132002" r="2" style="fill: rgb(0,0,0)" />
	<circle cx="125.171168746899" cy="-376.314215026728" r="2" style="fill: rgb(0,0,0)" />
	<circle cx="49.7960493281527" cy="-305.676927132501" r="2" style="fill: rgb(0,0,0)" />
	<circle cx="257.578700528131" cy="-232.167914519437" r="2" style="fill: rgb(0,0,0)" />
	<circle cx="379.992019176388" cy="-274.419900818107" r="2" style="fill: rgb(0,0,0)" />
	<circle cx="381.309147884761" cy="-278.280409436632" r="2" style="fill: rgb(0,0,0)" />
	<circle cx="367.561429741484" cy="-307.114971883263" r="2" style="fill: rgb(0,0,0)" />
	<circle cx="286.800827894481" cy="-438.560224708355" r="2" style="fill: rgb(0,0,0)" />
	<circle cx="256.141737909254" cy="-481.244565137396" r="2" style="fill: rgb(0,0,0)" />
	<circle cx="225.80924427389" cy="-480.735167479522" r="2" style="fill: rgb(0,0,0)" />
	<circle cx="204.69512527842" cy="-497.589512983476" r="2" style="fill: rgb(0,0,0)" />
	<circle cx="176.288403456344" cy="-520.625498273547" r="2" style="fill: rgb(0,0,0)" />
	<circle cx="121.965319039035" cy="-507.111085545641" r="2" style="fill: rgb(0,0,0)" />
	<circle cx="33.5" cy="-354.991584495434" r="2" style="fill: rgb(0,0,0)" />
	<circle cx="34.5689233768091" cy="-345.305927094957" r="2" style="fill: rgb(0,0,0)" />
	<circle cx="350.715475914926" cy="-352.965145786241" r="2" style="fill: rgb(0,0,0)" />
	<circle cx="303.129032140605" cy="-427.56272227707" r="2" style="fill: rgb(0,0,0)" />
	<circle cx="288.75212125453" cy="-435.53730236523" r="2" style="fill: rgb(0,0,0)" />
	<circle cx="369.349806378463" cy="-321.788139512157" r="2" style="fill: rgb(0,0,0)" />
	<circle cx="349.770767506959" cy="-350.467478444737" r="2" style="fill: rgb(0,0,0)" />
	<circle cx="245.487453958396" cy="-114.517201044349" r="2" style="fill: rgb(0,0,0)" />
	<circle cx="321.785886663506" cy="-147.338394590947" r="2" style="fill: rgb(0,0,0)" />
	<circle cx="440.843547434868" cy="-148.583679499762" r="2" style="fill: rgb(0,0,0)" />
	<circle cx="502.029554523917" cy="-173.613243006419" r="2" style="fill: rgb(0,0,0)" />
	<circle cx="531.928143569367" cy="-206.771180585487" r="2" style="fill: rgb(0,0,0)" />
	<circle cx="519.356404074616" cy="-223.326117001782" r="2" style="fill: rgb(0,0,0)" />
	<circle cx="52.3341225477979" cy="-296.268806130058" r="2" style="fill: rgb(0,0,0)" />
	<circle cx="209.917980407059" cy="-122.026003337368" r="2" style="fill: rgb(0,0,0)" />
	<circle cx="213.154321166216" cy="-122.557864144873" r="2" style="fill: rgb(0,0,0)" />
	<circle cx="491.841727021109" cy="-377.575767576027" r="2" style="fill: rgb(0,0,0)" />
	<circle cx="420.427637534598" cy="-417.92797609866" r="2" style="fill: rgb(0,0,0)" />
	<circle cx="378.204057034668" cy="-340.169135449142" r="2" style="fill: rgb(0,0,0)" />
	<circle cx="269.216249818081" cy="-542.146581995181" r="2" style="fill: rgb(0,0,0)" />
	<circle cx="222.370272476064" cy="-552.560068839609" r="2" style="fill: rgb(0,0,0)" />
	<circle cx="208.366323399111" cy="-512.880819974343" r="2" style="fill: rgb(0,0,0)" />
	<circle cx="303.21036324512" cy="-439.568512259133" r="2" style="fill: rgb(0,0,0)" />
	<circle cx="316.847523190735" cy="-520.453002604668" r="2" style="fill: rgb(0,0,0)" />
	<circle cx="303.427953927786" cy="-536.32844636125" r="2" style="fill: rgb(0,0,0)" />
	<circle cx="287.069335723288" cy="-535.313800497713" r="2" style="fill: rgb(0,0,0)" />
	<circle cx="124.112828283047" cy="-569.31844926381" r="2" style="fill: rgb(0,0,0)" />
	<circle cx="111.79378482155" cy="-576.615361651869" r="2" style="fill: rgb(0,0,0)" />
	<circle cx="36.3749306907891" cy="-589.906380445781" r="2" style="fill: rgb(0,0,0)" />
	<circle cx="170.368001565602" cy="-562.284857626683" r="2" style="fill: rgb(0,0,0)" />
	<circle cx="131.866463567943" cy="-568.56297920025" r="2" style="fill: rgb(0,0,0)" />
	<circle cx="243.441810730716" cy="-111.953586172144" r="2" style="fill: rgb(0,0,0)" />
	<circle cx="292.917390591815" cy="-53.5" r="2" style="fill: rgb(0,0,0)" />
	<circle cx="354.763472753628" cy="-90.0436711995156" r="2" style="fill: rgb(0,0,0)" />
	<circle cx="537.348595549221" cy="-111.059720926854" r="2" style="fill: rgb(0,0,0)" />
	<circle cx="549.995733555145" cy="-117.771923431571" r="2" style="fill: rgb(0,0,0)" />
	<circle cx="561.5" cy="-155.047050423227" r="2" style="fill: rgb(0,0,0)" />
	<circle cx="547.215617269784" cy="-200.861269956085" r="2" style="fill: rgb(0,0,0)" />
	<!--
	Generated using the Perl SVG Module V2.84
	by Ronan Oger
	Info: http://www.roitsystems.com/
	-->
</svg>