<?xml version="1.0" encoding="UTF-8" standalone="yes"?>
<!DOCTYPE svg PUBLIC "-//W3C//DTD SVG 1.0//EN" "http://www.w3.org/TR/2001/REC-SVG-20010904/DTD/svg10.dtd">
<!-- generated using polymake; Michael Joswig, Georg Loho, Benjamin Lorenz, Rico Raber; license CC BY-NC-ND 3.0; see polymake.org and matchthenet.de -->
<svg height="841pt" id="document" viewBox="0 -515.89481763894 572 515.89481763894" width="595pt" xmlns="http://www.w3.org/2000/svg" xmlns:svg="http://www.w3.org/2000/svg" xmlns:xlink="http://www.w3.org/1999/xlink">
	<title id="document_title">planar_net_</title>
	<polygon points="258.461553163403,-233.445387023712 398.406474990804,-233.445387023712 380.681122471897,-309.723265469835 256.132549083188,-235.615718817896 " style="fill: rgb(67,184,206); fill-opacity: 1; stroke: rgb(0,0,0); stroke-width: 3" />
	<polygon points="407.489454619438,-217.062500637074 398.406474990804,-233.445387023712 258.461553163403,-233.445387023712 322.855734730643,-175.828983323118 361.881685916853,-174.750289004318 405.988257025036,-209.507552598125 " style="fill: rgb(238,66,102); fill-opacity: 1; stroke: rgb(0,0,0); stroke-width: 3" />
	<polygon points="192.92556085023,-380.000254277092 193.157845143193,-382.31371045556 78.1789089928695,-418.430216721689 56.3659370845682,-393.546625792396 53.5475687534034,-388.968799327107 33.5,-345.779665746687 52.8543899249422,-322.174041634424 " style="fill: rgb(84,13,110); fill-opacity: 1; stroke: rgb(0,0,0); stroke-width: 3" />
	<polygon points="193.157845143193,-382.31371045556 240.971338039753,-381.139396328409 345.622243002656,-426.425742205432 351.851924652368,-437.632085616775 315.659747476263,-479.39481763894 270.124833430383,-475.053348675303 " style="fill: rgb(238,66,102); fill-opacity: 1; stroke: rgb(0,0,0); stroke-width: 3" />
	<polygon points="356.298752461166,-349.874355231908 373.770994303116,-335.99035690853 393.098417517737,-409.65898311782 373.29774494736,-418.70889743304 362.954129519663,-411.132573390759 " style="fill: rgb(255,210,63); fill-opacity: 1; stroke: rgb(0,0,0); stroke-width: 3" />
	<polygon points="256.132549083188,-235.615718817896 380.681122471897,-309.723265469835 382.389600151295,-317.553967893563 373.770994303116,-335.99035690853 356.298752461166,-349.874355231908 240.971338039753,-381.139396328409 193.157845143193,-382.31371045556 192.92556085023,-380.000254277092 " style="fill: rgb(136,136,136); fill-opacity: 1; stroke: rgb(0,0,0); stroke-width: 3" />
	<polygon points="434.603779868787,-69.0489400427617 438.259860968467,-65.1077769924711 446.230130822946,-143.876453657912 430.799369018877,-137.944799354656 " style="fill: rgb(67,184,206); fill-opacity: 1; stroke: rgb(0,0,0); stroke-width: 3" />
	<polygon points="382.389600151295,-317.553967893563 449.632929102575,-375.333267837962 451.796715999816,-393.487032702459 414.516467984974,-400.336469068651 373.770994303116,-335.99035690853 " style="fill: rgb(255,210,63); fill-opacity: 1; stroke: rgb(0,0,0); stroke-width: 3" />
	<polygon points="493.781570752503,-221.133372266894 497.527681982795,-186.298825060143 561.5,-178.96845915656 548.535254367436,-232.689170668819 527.526071126154,-238.397217873109 " style="fill: rgb(255,210,63); fill-opacity: 1; stroke: rgb(0,0,0); stroke-width: 3" />
	<polygon points="360.708907093038,-100.672761034555 367.184776820446,-53.5 408.801786250911,-108.537600768037 389.24984942321,-117.316637379451 " style="fill: rgb(67,184,206); fill-opacity: 1; stroke: rgb(0,0,0); stroke-width: 3" />
	<polygon points="497.527681982795,-186.298825060143 472.343838398467,-169.711632089365 470.2801846554,-162.590541868137 522.227737314562,-102.845404845101 555.056871673725,-98.692480786493 545.58522652958,-143.442505235549 " style="fill: rgb(238,66,102); fill-opacity: 1; stroke: rgb(0,0,0); stroke-width: 3" />
	<polygon points="322.855734730643,-175.828983323118 334.186524213538,-115.785044299823 360.708907093038,-100.672761034555 389.24984942321,-117.316637379451 361.881685916853,-174.750289004318 " style="fill: rgb(255,210,63); fill-opacity: 1; stroke: rgb(0,0,0); stroke-width: 3" />
	<polygon points="240.971338039753,-381.139396328409 356.298752461166,-349.874355231908 350.950356606127,-411.260493712559 " style="fill: rgb(14,173,105); fill-opacity: 1; stroke: rgb(0,0,0); stroke-width: 3" />
	<polygon points="380.681122471897,-309.723265469835 398.406474990804,-233.445387023712 410.447864402708,-219.096016782387 462.924111823544,-269.229831691272 386.87843754987,-314.805792622176 " style="fill: rgb(255,210,63); fill-opacity: 1; stroke: rgb(0,0,0); stroke-width: 3" />
	<polygon points="478.63887411626,-231.377389597748 407.489454619438,-217.062500637074 405.988257025036,-209.507552598125 472.343838398467,-169.711632089365 497.527681982795,-186.298825060143 493.781570752503,-221.133372266894 " style="fill: rgb(238,66,102); fill-opacity: 1; stroke: rgb(0,0,0); stroke-width: 3" />
	<polygon points="258.461553163403,-233.445387023712 256.132549083188,-235.615718817896 120.070528995582,-156.059800553255 265.046438962427,-111.948698523447 303.310259713154,-159.588402818234 " style="fill: rgb(255,210,63); fill-opacity: 1; stroke: rgb(0,0,0); stroke-width: 3" />
	<polygon points="405.988257025036,-209.507552598125 361.881685916853,-174.750289004318 409.93282970634,-133.052227979883 430.799369018877,-137.944799354656 446.230130822946,-143.876453657912 452.56746320825,-147.724415579279 " style="fill: rgb(238,66,102); fill-opacity: 1; stroke: rgb(0,0,0); stroke-width: 3" />
	<circle cx="258.461553163403" cy="-233.445387023712" r="2" style="fill: rgb(0,0,0)" />
	<circle cx="398.406474990804" cy="-233.445387023712" r="2" style="fill: rgb(0,0,0)" />
	<circle cx="380.681122471897" cy="-309.723265469835" r="2" style="fill: rgb(0,0,0)" />
	<circle cx="256.132549083188" cy="-235.615718817896" r="2" style="fill: rgb(0,0,0)" />
	<circle cx="322.855734730643" cy="-175.828983323118" r="2" style="fill: rgb(0,0,0)" />
	<circle cx="361.881685916853" cy="-174.750289004318" r="2" style="fill: rgb(0,0,0)" />
	<circle cx="405.988257025036" cy="-209.507552598125" r="2" style="fill: rgb(0,0,0)" />
	<circle cx="407.489454619438" cy="-217.062500637074" r="2" style="fill: rgb(0,0,0)" />
	<circle cx="382.389600151295" cy="-317.553967893563" r="2" style="fill: rgb(0,0,0)" />
	<circle cx="373.770994303116" cy="-335.99035690853" r="2" style="fill: rgb(0,0,0)" />
	<circle cx="356.298752461166" cy="-349.874355231908" r="2" style="fill: rgb(0,0,0)" />
	<circle cx="240.971338039753" cy="-381.139396328409" r="2" style="fill: rgb(0,0,0)" />
	<circle cx="193.157845143193" cy="-382.31371045556" r="2" style="fill: rgb(0,0,0)" />
	<circle cx="192.92556085023" cy="-380.000254277092" r="2" style="fill: rgb(0,0,0)" />
	<circle cx="410.447864402708" cy="-219.096016782387" r="2" style="fill: rgb(0,0,0)" />
	<circle cx="462.924111823544" cy="-269.229831691272" r="2" style="fill: rgb(0,0,0)" />
	<circle cx="386.87843754987" cy="-314.805792622176" r="2" style="fill: rgb(0,0,0)" />
	<circle cx="120.070528995582" cy="-156.059800553255" r="2" style="fill: rgb(0,0,0)" />
	<circle cx="265.046438962427" cy="-111.948698523447" r="2" style="fill: rgb(0,0,0)" />
	<circle cx="303.310259713154" cy="-159.588402818234" r="2" style="fill: rgb(0,0,0)" />
	<circle cx="334.186524213538" cy="-115.785044299823" r="2" style="fill: rgb(0,0,0)" />
	<circle cx="360.708907093038" cy="-100.672761034555" r="2" style="fill: rgb(0,0,0)" />
	<circle cx="389.24984942321" cy="-117.316637379451" r="2" style="fill: rgb(0,0,0)" />
	<circle cx="472.343838398467" cy="-169.711632089365" r="2" style="fill: rgb(0,0,0)" />
	<circle cx="497.527681982795" cy="-186.298825060143" r="2" style="fill: rgb(0,0,0)" />
	<circle cx="493.781570752503" cy="-221.133372266894" r="2" style="fill: rgb(0,0,0)" />
	<circle cx="478.63887411626" cy="-231.377389597748" r="2" style="fill: rgb(0,0,0)" />
	<circle cx="409.93282970634" cy="-133.052227979883" r="2" style="fill: rgb(0,0,0)" />
	<circle cx="430.799369018877" cy="-137.944799354656" r="2" style="fill: rgb(0,0,0)" />
	<circle cx="446.230130822946" cy="-143.876453657912" r="2" style="fill: rgb(0,0,0)" />
	<circle cx="452.56746320825" cy="-147.724415579279" r="2" style="fill: rgb(0,0,0)" />
	<circle cx="78.1789089928695" cy="-418.430216721689" r="2" style="fill: rgb(0,0,0)" />
	<circle cx="56.3659370845682" cy="-393.546625792396" r="2" style="fill: rgb(0,0,0)" />
	<circle cx="53.5475687534034" cy="-388.968799327107" r="2" style="fill: rgb(0,0,0)" />
	<circle cx="33.5" cy="-345.779665746687" r="2" style="fill: rgb(0,0,0)" />
	<circle cx="52.8543899249422" cy="-322.174041634424" r="2" style="fill: rgb(0,0,0)" />
	<circle cx="345.622243002656" cy="-426.425742205432" r="2" style="fill: rgb(0,0,0)" />
	<circle cx="351.851924652368" cy="-437.632085616775" r="2" style="fill: rgb(0,0,0)" />
	<circle cx="315.659747476263" cy="-479.39481763894" r="2" style="fill: rgb(0,0,0)" />
	<circle cx="270.124833430383" cy="-475.053348675303" r="2" style="fill: rgb(0,0,0)" />
	<circle cx="393.098417517737" cy="-409.65898311782" r="2" style="fill: rgb(0,0,0)" />
	<circle cx="373.29774494736" cy="-418.70889743304" r="2" style="fill: rgb(0,0,0)" />
	<circle cx="362.954129519663" cy="-411.132573390759" r="2" style="fill: rgb(0,0,0)" />
	<circle cx="449.632929102575" cy="-375.333267837962" r="2" style="fill: rgb(0,0,0)" />
	<circle cx="451.796715999816" cy="-393.487032702459" r="2" style="fill: rgb(0,0,0)" />
	<circle cx="414.516467984974" cy="-400.336469068651" r="2" style="fill: rgb(0,0,0)" />
	<circle cx="350.950356606127" cy="-411.260493712559" r="2" style="fill: rgb(0,0,0)" />
	<circle cx="367.184776820446" cy="-53.5" r="2" style="fill: rgb(0,0,0)" />
	<circle cx="408.801786250911" cy="-108.537600768037" r="2" style="fill: rgb(0,0,0)" />
	<circle cx="561.5" cy="-178.96845915656" r="2" style="fill: rgb(0,0,0)" />
	<circle cx="548.535254367436" cy="-232.689170668819" r="2" style="fill: rgb(0,0,0)" />
	<circle cx="527.526071126154" cy="-238.397217873109" r="2" style="fill: rgb(0,0,0)" />
	<circle cx="470.2801846554" cy="-162.590541868137" r="2" style="fill: rgb(0,0,0)" />
	<circle cx="522.227737314562" cy="-102.845404845101" r="2" style="fill: rgb(0,0,0)" />
	<circle cx="555.056871673725" cy="-98.692480786493" r="2" style="fill: rgb(0,0,0)" />
	<circle cx="545.58522652958" cy="-143.442505235549" r="2" style="fill: rgb(0,0,0)" />
	<circle cx="434.603779868787" cy="-69.0489400427617" r="2" style="fill: rgb(0,0,0)" />
	<circle cx="438.259860968467" cy="-65.1077769924711" r="2" style="fill: rgb(0,0,0)" />
	<!--
	Generated using the Perl SVG Module V2.86
	by Ronan Oger
	Info: http://www.roitsystems.com/
	-->
</svg>