<?xml version="1.0" encoding="UTF-8" standalone="yes"?>
<!DOCTYPE svg PUBLIC "-//W3C//DTD SVG 1.0//EN" "http://www.w3.org/TR/2001/REC-SVG-20010904/DTD/svg10.dtd">
<!-- generated using polymake; Michael Joswig, Georg Loho, Benjamin Lorenz, Rico Raber; license CC BY-NC-ND 3.0; see polymake.org and matchthenet.de -->
<svg height="841pt" id="document" viewBox="0 -680.204401019397 572 680.204401019397" width="595pt" xmlns="http://www.w3.org/2000/svg" xmlns:svg="http://www.w3.org/2000/svg" xmlns:xlink="http://www.w3.org/1999/xlink">
	<title id="document_title">planar_net_</title>
	<polygon points="239.486559119429,-408.179142737526 507.522482017819,-408.179142737526 284.783749325642,-524.617511981354 281.302475473328,-523.591392244035 273.298000793412,-511.182101254451 " style="fill: rgb(255,210,63); fill-opacity: 1; stroke: rgb(0,0,0); stroke-width: 3" />
	<polygon points="255.886992421348,-86.9307512746098 295.839330651266,-159.088732300531 218.061513929026,-139.202848122351 222.29177238474,-90.4237230814517 " style="fill: rgb(67,184,206); fill-opacity: 1; stroke: rgb(0,0,0); stroke-width: 3" />
	<polygon points="392.527994825714,-214.174502726369 263.817857079922,-267.450736617351 212.669236455683,-141.328207879201 218.061513929026,-139.202848122351 295.839330651266,-159.088732300531 " style="fill: rgb(255,210,63); fill-opacity: 1; stroke: rgb(0,0,0); stroke-width: 3" />
	<polygon points="530.10135929864,-398.133421743742 507.522482017819,-408.179142737526 239.486559119429,-408.179142737526 198.468432583857,-384.936311293952 184.847662373816,-312.399214877618 263.817857079922,-267.450736617351 392.527994825714,-214.174502726369 " style="fill: rgb(84,13,110); fill-opacity: 1; stroke: rgb(0,0,0); stroke-width: 3" />
	<polygon points="198.468432583857,-384.936311293952 162.814847435103,-399.342914214845 33.5,-404.077672242595 46.0826462337285,-348.755031920983 184.847662373816,-312.399214877618 " style="fill: rgb(255,210,63); fill-opacity: 1; stroke: rgb(0,0,0); stroke-width: 3" />
	<polygon points="561.219902458241,-315.795636065601 530.10135929864,-398.133421743742 392.527994825714,-214.174502726369 478.976310878645,-144.10433407479 561.432713933118,-146.080479587445 561.5,-146.205989310702 " style="fill: rgb(238,66,102); fill-opacity: 1; stroke: rgb(0,0,0); stroke-width: 3" />
	<polygon points="273.298000793412,-511.182101254451 281.302475473328,-523.591392244035 242.869577746852,-538.185988892646 229.601768531282,-539.305448890187 224.163922647512,-512.505974282478 " style="fill: rgb(255,210,63); fill-opacity: 1; stroke: rgb(0,0,0); stroke-width: 3" />
	<polygon points="285.845749402001,-573.089125025595 291.265568111936,-599.604052861421 283.144674685133,-603.771757981571 224.140151851784,-595.433819383236 233.234647670805,-548.529887363429 245.946936771925,-544.569375038458 " style="fill: rgb(238,66,102); fill-opacity: 1; stroke: rgb(0,0,0); stroke-width: 3" />
	<polygon points="284.783749325642,-524.617511981354 507.522482017819,-408.179142737526 532.150423538061,-410.225286921935 471.064936108431,-473.600659932612 330.438819849425,-584.902436235559 310.743193208609,-595.106065810212 297.867630474629,-571.30195445796 " style="fill: rgb(84,13,110); fill-opacity: 1; stroke: rgb(0,0,0); stroke-width: 3" />
	<polygon points="330.438819849425,-584.902436235559 471.064936108431,-473.600659932612 390.324415726817,-622.737158180323 " style="fill: rgb(14,173,105); fill-opacity: 1; stroke: rgb(0,0,0); stroke-width: 3" />
	<polygon points="239.486559119429,-408.179142737526 273.298000793412,-511.182101254451 224.151052210138,-510.483731730075 202.294757251816,-442.995714052544 192.399107336569,-405.83653679531 " style="fill: rgb(255,210,63); fill-opacity: 1; stroke: rgb(0,0,0); stroke-width: 3" />
	<polygon points="158.292293229446,-53.5 208.020754873722,-91.2812320816924 218.061513929026,-139.202848122351 212.669236455683,-141.328207879201 153.611347354659,-155.233808061269 127.394360256076,-104.91892849397 127.158666197261,-104.310945697513 " style="fill: rgb(84,13,110); fill-opacity: 1; stroke: rgb(0,0,0); stroke-width: 3" />
	<polygon points="263.817857079922,-267.450736617351 184.847662373816,-312.399214877618 140.389536391753,-176.013914454834 195.170417875833,-149.932215788545 " style="fill: rgb(67,184,206); fill-opacity: 1; stroke: rgb(0,0,0); stroke-width: 3" />
	<polygon points="310.743193208609,-595.106065810212 330.438819849425,-584.902436235559 386.002575363541,-628.838979697644 385.98272647358,-628.979997877309 355.584838167622,-643.704401019397 307.635957931496,-603.688825561637 " style="fill: rgb(238,66,102); fill-opacity: 1; stroke: rgb(0,0,0); stroke-width: 3" />
	<polygon points="224.163922647512,-512.505974282478 229.601768531282,-539.305448890187 200.350532790556,-577.08181585104 199.720025241076,-576.915517925004 195.581100195263,-447.580228849658 " style="fill: rgb(255,210,63); fill-opacity: 1; stroke: rgb(0,0,0); stroke-width: 3" />
	<polygon points="281.302475473328,-523.591392244035 284.783749325642,-524.617511981354 285.845749402001,-573.089125025595 245.946936771925,-544.569375038458 " style="fill: rgb(67,184,206); fill-opacity: 1; stroke: rgb(0,0,0); stroke-width: 3" />
	<circle cx="239.486559119429" cy="-408.179142737526" r="2" style="fill: rgb(0,0,0)" />
	<circle cx="507.522482017819" cy="-408.179142737526" r="2" style="fill: rgb(0,0,0)" />
	<circle cx="284.783749325642" cy="-524.617511981354" r="2" style="fill: rgb(0,0,0)" />
	<circle cx="281.302475473328" cy="-523.591392244035" r="2" style="fill: rgb(0,0,0)" />
	<circle cx="273.298000793412" cy="-511.182101254451" r="2" style="fill: rgb(0,0,0)" />
	<circle cx="198.468432583857" cy="-384.936311293952" r="2" style="fill: rgb(0,0,0)" />
	<circle cx="184.847662373816" cy="-312.399214877618" r="2" style="fill: rgb(0,0,0)" />
	<circle cx="263.817857079922" cy="-267.450736617351" r="2" style="fill: rgb(0,0,0)" />
	<circle cx="392.527994825714" cy="-214.174502726369" r="2" style="fill: rgb(0,0,0)" />
	<circle cx="530.10135929864" cy="-398.133421743742" r="2" style="fill: rgb(0,0,0)" />
	<circle cx="242.869577746852" cy="-538.185988892646" r="2" style="fill: rgb(0,0,0)" />
	<circle cx="229.601768531282" cy="-539.305448890187" r="2" style="fill: rgb(0,0,0)" />
	<circle cx="224.163922647512" cy="-512.505974282478" r="2" style="fill: rgb(0,0,0)" />
	<circle cx="532.150423538061" cy="-410.225286921935" r="2" style="fill: rgb(0,0,0)" />
	<circle cx="471.064936108431" cy="-473.600659932612" r="2" style="fill: rgb(0,0,0)" />
	<circle cx="330.438819849425" cy="-584.902436235559" r="2" style="fill: rgb(0,0,0)" />
	<circle cx="310.743193208609" cy="-595.106065810212" r="2" style="fill: rgb(0,0,0)" />
	<circle cx="297.867630474629" cy="-571.30195445796" r="2" style="fill: rgb(0,0,0)" />
	<circle cx="224.151052210138" cy="-510.483731730075" r="2" style="fill: rgb(0,0,0)" />
	<circle cx="202.294757251816" cy="-442.995714052544" r="2" style="fill: rgb(0,0,0)" />
	<circle cx="192.399107336569" cy="-405.83653679531" r="2" style="fill: rgb(0,0,0)" />
	<circle cx="285.845749402001" cy="-573.089125025595" r="2" style="fill: rgb(0,0,0)" />
	<circle cx="245.946936771925" cy="-544.569375038458" r="2" style="fill: rgb(0,0,0)" />
	<circle cx="212.669236455683" cy="-141.328207879201" r="2" style="fill: rgb(0,0,0)" />
	<circle cx="218.061513929026" cy="-139.202848122351" r="2" style="fill: rgb(0,0,0)" />
	<circle cx="295.839330651266" cy="-159.088732300531" r="2" style="fill: rgb(0,0,0)" />
	<circle cx="162.814847435103" cy="-399.342914214845" r="2" style="fill: rgb(0,0,0)" />
	<circle cx="33.5" cy="-404.077672242595" r="2" style="fill: rgb(0,0,0)" />
	<circle cx="46.0826462337285" cy="-348.755031920983" r="2" style="fill: rgb(0,0,0)" />
	<circle cx="478.976310878645" cy="-144.10433407479" r="2" style="fill: rgb(0,0,0)" />
	<circle cx="561.432713933118" cy="-146.080479587445" r="2" style="fill: rgb(0,0,0)" />
	<circle cx="561.5" cy="-146.205989310702" r="2" style="fill: rgb(0,0,0)" />
	<circle cx="561.219902458241" cy="-315.795636065601" r="2" style="fill: rgb(0,0,0)" />
	<circle cx="140.389536391753" cy="-176.013914454834" r="2" style="fill: rgb(0,0,0)" />
	<circle cx="195.170417875833" cy="-149.932215788545" r="2" style="fill: rgb(0,0,0)" />
	<circle cx="200.350532790556" cy="-577.08181585104" r="2" style="fill: rgb(0,0,0)" />
	<circle cx="199.720025241076" cy="-576.915517925004" r="2" style="fill: rgb(0,0,0)" />
	<circle cx="195.581100195263" cy="-447.580228849658" r="2" style="fill: rgb(0,0,0)" />
	<circle cx="390.324415726817" cy="-622.737158180323" r="2" style="fill: rgb(0,0,0)" />
	<circle cx="386.002575363541" cy="-628.838979697644" r="2" style="fill: rgb(0,0,0)" />
	<circle cx="385.98272647358" cy="-628.979997877309" r="2" style="fill: rgb(0,0,0)" />
	<circle cx="355.584838167622" cy="-643.704401019397" r="2" style="fill: rgb(0,0,0)" />
	<circle cx="307.635957931496" cy="-603.688825561637" r="2" style="fill: rgb(0,0,0)" />
	<circle cx="291.265568111936" cy="-599.604052861421" r="2" style="fill: rgb(0,0,0)" />
	<circle cx="283.144674685133" cy="-603.771757981571" r="2" style="fill: rgb(0,0,0)" />
	<circle cx="224.140151851784" cy="-595.433819383236" r="2" style="fill: rgb(0,0,0)" />
	<circle cx="233.234647670805" cy="-548.529887363429" r="2" style="fill: rgb(0,0,0)" />
	<circle cx="222.29177238474" cy="-90.4237230814517" r="2" style="fill: rgb(0,0,0)" />
	<circle cx="255.886992421348" cy="-86.9307512746098" r="2" style="fill: rgb(0,0,0)" />
	<circle cx="153.611347354659" cy="-155.233808061269" r="2" style="fill: rgb(0,0,0)" />
	<circle cx="127.394360256076" cy="-104.91892849397" r="2" style="fill: rgb(0,0,0)" />
	<circle cx="127.158666197261" cy="-104.310945697513" r="2" style="fill: rgb(0,0,0)" />
	<circle cx="158.292293229446" cy="-53.5" r="2" style="fill: rgb(0,0,0)" />
	<circle cx="208.020754873722" cy="-91.2812320816924" r="2" style="fill: rgb(0,0,0)" />
	<!--
	Generated using the Perl SVG Module V2.86
	by Ronan Oger
	Info: http://www.roitsystems.com/
	-->
</svg>