<?xml version="1.0" encoding="UTF-8" standalone="yes"?>
<!DOCTYPE svg PUBLIC "-//W3C//DTD SVG 1.0//EN" "http://www.w3.org/TR/2001/REC-SVG-20010904/DTD/svg10.dtd">
<!-- generated using polymake; Michael Joswig, Georg Loho, Benjamin Lorenz, Rico Raber; license CC BY-NC-ND 3.0; see polymake.org and matchthenet.de -->
<svg height="841pt" id="document" viewBox="0 -793.485205067512 572 793.485205067512" width="595pt" xmlns="http://www.w3.org/2000/svg" xmlns:svg="http://www.w3.org/2000/svg" xmlns:xlink="http://www.w3.org/1999/xlink">
	<title id="document_title">planar_net_</title>
	<polygon points="390.796021014525,-427.60342390674 426.857597661666,-427.60342390674 391.02390043568,-538.010458618758 307.5573300577,-545.924236656485 301.777545978261,-533.907023406622 " style="fill: rgb(255,210,63); fill-opacity: 1; stroke: rgb(0,0,0); stroke-width: 3" />
	<polygon points="250.576849409346,-393.505977286212 233.561153498943,-252.603553855799 285.284502726839,-309.978680598989 354.951239053533,-403.141000610284 " style="fill: rgb(67,184,206); fill-opacity: 1; stroke: rgb(0,0,0); stroke-width: 3" />
	<polygon points="451.976439559242,-388.213038003919 426.857597661666,-427.60342390674 390.796021014525,-427.60342390674 354.951239053533,-403.141000610284 285.284502726839,-309.978680598989 446.659677467565,-344.109790898549 " style="fill: rgb(238,66,102); fill-opacity: 1; stroke: rgb(0,0,0); stroke-width: 3" />
	<polygon points="33.5,-643.26087069152 258.038720078191,-644.138457984683 269.561492695339,-667.659335905084 263.708709567979,-756.985205067512 240.297245959331,-756.862990353085 48.5031920402342,-662.962393016992 " style="fill: rgb(238,66,102); fill-opacity: 1; stroke: rgb(0,0,0); stroke-width: 3" />
	<polygon points="442.737689114067,-591.417929824067 461.365742893358,-585.444562304088 482.686068301583,-597.483488479829 493.567440555074,-614.245817739991 426.539477981082,-673.580615330672 " style="fill: rgb(255,210,63); fill-opacity: 1; stroke: rgb(0,0,0); stroke-width: 3" />
	<polygon points="546.95191914825,-282.151672283572 481.547439288767,-296.295345085666 525.043296779229,-245.386436659144 539.96156726797,-263.429628459947 " style="fill: rgb(67,184,206); fill-opacity: 1; stroke: rgb(0,0,0); stroke-width: 3" />
	<polygon points="561.5,-301.845462231378 451.976439559242,-388.213038003919 446.659677467565,-344.109790898549 446.652690728213,-317.779491494289 481.547439288767,-296.295345085666 546.95191914825,-282.151672283572 " style="fill: rgb(238,66,102); fill-opacity: 1; stroke: rgb(0,0,0); stroke-width: 3" />
	<polygon points="390.796021014525,-427.60342390674 301.777545978261,-533.907023406622 271.011855740795,-501.031527658896 347.432303267971,-429.290590337134 " style="fill: rgb(67,184,206); fill-opacity: 1; stroke: rgb(0,0,0); stroke-width: 3" />
	<polygon points="481.547439288767,-296.295345085666 446.652690728213,-317.779491494289 424.464500609953,-53.5 522.418342354971,-243.255964823798 " style="fill: rgb(67,184,206); fill-opacity: 1; stroke: rgb(0,0,0); stroke-width: 3" />
	<polygon points="369.437018540804,-632.967255062332 363.901324872601,-672.368510627449 282.077367354506,-654.53794951349 258.038720078191,-644.138457984683 300.300048745959,-591.348249934451 " style="fill: rgb(255,210,63); fill-opacity: 1; stroke: rgb(0,0,0); stroke-width: 3" />
	<polygon points="301.777545978261,-533.907023406622 307.5573300577,-545.924236656485 300.300048745959,-591.348249934451 258.038720078191,-644.138457984683 33.5,-643.26087069152 119.341947980439,-547.446639614953 258.727796707829,-520.714411678924 " style="fill: rgb(84,13,110); fill-opacity: 1; stroke: rgb(0,0,0); stroke-width: 3" />
	<polygon points="391.02390043568,-538.010458618758 426.857597661666,-427.60342390674 469.708587188563,-446.213942878935 461.365742893358,-585.444562304088 442.737689114067,-591.417929824067 407.877257527862,-572.23843154808 " style="fill: rgb(238,66,102); fill-opacity: 1; stroke: rgb(0,0,0); stroke-width: 3" />
	<polygon points="236.443593660933,-250.130743075905 232.512918475938,-121.547086639904 255.558104207987,-130.61158706258 443.228093184123,-318.00406461412 446.659677467565,-344.109790898549 285.284502726839,-309.978680598989 " style="fill: rgb(238,66,102); fill-opacity: 1; stroke: rgb(0,0,0); stroke-width: 3" />
	<polygon points="307.5573300577,-545.924236656485 391.02390043568,-538.010458618758 398.352489094464,-575.452167506009 319.063369550455,-590.462087631867 " style="fill: rgb(67,184,206); fill-opacity: 1; stroke: rgb(0,0,0); stroke-width: 3" />
	<circle cx="390.796021014525" cy="-427.60342390674" r="2" style="fill: rgb(0,0,0)" />
	<circle cx="426.857597661666" cy="-427.60342390674" r="2" style="fill: rgb(0,0,0)" />
	<circle cx="391.02390043568" cy="-538.010458618758" r="2" style="fill: rgb(0,0,0)" />
	<circle cx="307.5573300577" cy="-545.924236656485" r="2" style="fill: rgb(0,0,0)" />
	<circle cx="301.777545978261" cy="-533.907023406622" r="2" style="fill: rgb(0,0,0)" />
	<circle cx="354.951239053533" cy="-403.141000610284" r="2" style="fill: rgb(0,0,0)" />
	<circle cx="285.284502726839" cy="-309.978680598989" r="2" style="fill: rgb(0,0,0)" />
	<circle cx="446.659677467565" cy="-344.109790898549" r="2" style="fill: rgb(0,0,0)" />
	<circle cx="451.976439559242" cy="-388.213038003919" r="2" style="fill: rgb(0,0,0)" />
	<circle cx="271.011855740795" cy="-501.031527658896" r="2" style="fill: rgb(0,0,0)" />
	<circle cx="347.432303267971" cy="-429.290590337134" r="2" style="fill: rgb(0,0,0)" />
	<circle cx="300.300048745959" cy="-591.348249934451" r="2" style="fill: rgb(0,0,0)" />
	<circle cx="258.038720078191" cy="-644.138457984683" r="2" style="fill: rgb(0,0,0)" />
	<circle cx="33.5" cy="-643.26087069152" r="2" style="fill: rgb(0,0,0)" />
	<circle cx="119.341947980439" cy="-547.446639614953" r="2" style="fill: rgb(0,0,0)" />
	<circle cx="258.727796707829" cy="-520.714411678924" r="2" style="fill: rgb(0,0,0)" />
	<circle cx="469.708587188563" cy="-446.213942878935" r="2" style="fill: rgb(0,0,0)" />
	<circle cx="461.365742893358" cy="-585.444562304088" r="2" style="fill: rgb(0,0,0)" />
	<circle cx="442.737689114067" cy="-591.417929824067" r="2" style="fill: rgb(0,0,0)" />
	<circle cx="407.877257527862" cy="-572.23843154808" r="2" style="fill: rgb(0,0,0)" />
	<circle cx="398.352489094464" cy="-575.452167506009" r="2" style="fill: rgb(0,0,0)" />
	<circle cx="319.063369550455" cy="-590.462087631867" r="2" style="fill: rgb(0,0,0)" />
	<circle cx="250.576849409346" cy="-393.505977286212" r="2" style="fill: rgb(0,0,0)" />
	<circle cx="233.561153498943" cy="-252.603553855799" r="2" style="fill: rgb(0,0,0)" />
	<circle cx="446.652690728213" cy="-317.779491494289" r="2" style="fill: rgb(0,0,0)" />
	<circle cx="481.547439288767" cy="-296.295345085666" r="2" style="fill: rgb(0,0,0)" />
	<circle cx="546.95191914825" cy="-282.151672283572" r="2" style="fill: rgb(0,0,0)" />
	<circle cx="561.5" cy="-301.845462231378" r="2" style="fill: rgb(0,0,0)" />
	<circle cx="236.443593660933" cy="-250.130743075905" r="2" style="fill: rgb(0,0,0)" />
	<circle cx="232.512918475938" cy="-121.547086639904" r="2" style="fill: rgb(0,0,0)" />
	<circle cx="255.558104207987" cy="-130.61158706258" r="2" style="fill: rgb(0,0,0)" />
	<circle cx="443.228093184123" cy="-318.00406461412" r="2" style="fill: rgb(0,0,0)" />
	<circle cx="269.561492695339" cy="-667.659335905084" r="2" style="fill: rgb(0,0,0)" />
	<circle cx="263.708709567979" cy="-756.985205067512" r="2" style="fill: rgb(0,0,0)" />
	<circle cx="240.297245959331" cy="-756.862990353085" r="2" style="fill: rgb(0,0,0)" />
	<circle cx="48.5031920402342" cy="-662.962393016992" r="2" style="fill: rgb(0,0,0)" />
	<circle cx="369.437018540804" cy="-632.967255062332" r="2" style="fill: rgb(0,0,0)" />
	<circle cx="363.901324872601" cy="-672.368510627449" r="2" style="fill: rgb(0,0,0)" />
	<circle cx="282.077367354506" cy="-654.53794951349" r="2" style="fill: rgb(0,0,0)" />
	<circle cx="482.686068301583" cy="-597.483488479829" r="2" style="fill: rgb(0,0,0)" />
	<circle cx="493.567440555074" cy="-614.245817739991" r="2" style="fill: rgb(0,0,0)" />
	<circle cx="426.539477981082" cy="-673.580615330672" r="2" style="fill: rgb(0,0,0)" />
	<circle cx="525.043296779229" cy="-245.386436659144" r="2" style="fill: rgb(0,0,0)" />
	<circle cx="539.96156726797" cy="-263.429628459947" r="2" style="fill: rgb(0,0,0)" />
	<circle cx="424.464500609953" cy="-53.5" r="2" style="fill: rgb(0,0,0)" />
	<circle cx="522.418342354971" cy="-243.255964823798" r="2" style="fill: rgb(0,0,0)" />
	<!--
	Generated using the Perl SVG Module V2.84
	by Ronan Oger
	Info: http://www.roitsystems.com/
	-->
</svg>