<?xml version="1.0" encoding="UTF-8" standalone="yes"?>
<!DOCTYPE svg PUBLIC "-//W3C//DTD SVG 1.0//EN" "http://www.w3.org/TR/2001/REC-SVG-20010904/DTD/svg10.dtd">
<!-- generated using polymake; Michael Joswig, Georg Loho, Benjamin Lorenz, Rico Raber; license CC BY-NC-ND 3.0; see polymake.org and matchthenet.de -->
<svg height="841pt" id="document" viewBox="0 -538.907749269187 572 538.907749269187" width="595pt" xmlns="http://www.w3.org/2000/svg" xmlns:svg="http://www.w3.org/2000/svg" xmlns:xlink="http://www.w3.org/1999/xlink">
	<title id="document_title">planar_net_</title>
	<polygon points="283.933795287488,-221.238361798177 361.076208417342,-221.238361798177 352.40030388563,-457.652719715127 223.603701393526,-354.931241148804 213.238932748046,-320.766836307434 " style="fill: rgb(14,173,105); fill-opacity: 1; stroke: rgb(0,0,0); stroke-width: 3" />
	<polygon points="286.295604987927,-67.6053445621366 361.076208417342,-221.238361798177 283.933795287488,-221.238361798177 236.092544707827,-103.605785574432 229.678537829371,-68.7756797918355 " style="fill: rgb(14,173,105); fill-opacity: 1; stroke: rgb(0,0,0); stroke-width: 3" />
	<polygon points="223.603701393526,-354.931241148804 352.40030388563,-457.652719715127 306.087009322365,-493.136198304079 207.481939870865,-404.208527658028 " style="fill: rgb(14,173,105); fill-opacity: 1; stroke: rgb(0,0,0); stroke-width: 3" />
	<polygon points="352.40030388563,-457.652719715127 361.076208417342,-221.238361798177 471.205344667794,-351.878386228012 476.208400719591,-365.623588278712 480.039469018654,-425.782140654525 467.786843760414,-458.685358449167 405.926766224548,-480.867291336311 " style="fill: rgb(14,173,105); fill-opacity: 1; stroke: rgb(0,0,0); stroke-width: 3" />
	<polygon points="129.105320533639,-320.091586806056 118.611862883252,-329.659331699956 33.5,-332.060125335333 117.744582677417,-303.593264432106 127.401549043557,-315.976356485114 " style="fill: rgb(14,173,105); fill-opacity: 1; stroke: rgb(0,0,0); stroke-width: 3" />
	<polygon points="306.087009322365,-493.136198304079 241.027454435665,-502.407749269187 224.911236829124,-484.194051938941 177.373725380688,-413.554275475339 207.481939870865,-404.208527658028 " style="fill: rgb(14,173,105); fill-opacity: 1; stroke: rgb(0,0,0); stroke-width: 3" />
	<polygon points="480.039469018654,-425.782140654525 476.208400719591,-365.623588278712 534.60775284136,-364.150420434989 535.437163329864,-365.47768715452 " style="fill: rgb(14,173,105); fill-opacity: 1; stroke: rgb(0,0,0); stroke-width: 3" />
	<polygon points="236.092544707827,-103.605785574432 187.543221067825,-63.6461195592469 201.599775340557,-56.6453160219518 221.429254876286,-57.0413415090741 222.596949005175,-58.0834783161065 229.678537829371,-68.7756797918355 " style="fill: rgb(14,173,105); fill-opacity: 1; stroke: rgb(0,0,0); stroke-width: 3" />
	<polygon points="283.933795287488,-221.238361798177 213.238932748046,-320.766836307434 129.105320533639,-320.091586806056 127.401549043557,-315.976356485114 164.912136702974,-265.510847992756 " style="fill: rgb(14,173,105); fill-opacity: 1; stroke: rgb(0,0,0); stroke-width: 3" />
	<polygon points="213.238932748046,-320.766836307434 223.603701393526,-354.931241148804 194.745042590959,-398.00489867198 163.551581055074,-393.442493663592 155.366566438365,-381.838187069078 " style="fill: rgb(14,173,105); fill-opacity: 1; stroke: rgb(0,0,0); stroke-width: 3" />
	<polygon points="282.422569478743,-53.5 286.295604987927,-67.6053445621366 229.678537829371,-68.7756797918355 224.122997777506,-57.216785060748 " style="fill: rgb(14,173,105); fill-opacity: 1; stroke: rgb(0,0,0); stroke-width: 3" />
	<polygon points="467.786843760414,-458.685358449167 480.039469018654,-425.782140654525 548.529651234334,-380.89754878832 561.5,-395.902053036762 489.987365418388,-448.755198405507 " style="fill: rgb(14,173,105); fill-opacity: 1; stroke: rgb(0,0,0); stroke-width: 3" />
	<circle cx="283.933795287488" cy="-221.238361798177" r="2" style="fill: rgb(0,0,0)" />
	<circle cx="361.076208417342" cy="-221.238361798177" r="2" style="fill: rgb(0,0,0)" />
	<circle cx="352.40030388563" cy="-457.652719715127" r="2" style="fill: rgb(0,0,0)" />
	<circle cx="223.603701393526" cy="-354.931241148804" r="2" style="fill: rgb(0,0,0)" />
	<circle cx="213.238932748046" cy="-320.766836307434" r="2" style="fill: rgb(0,0,0)" />
	<circle cx="236.092544707827" cy="-103.605785574432" r="2" style="fill: rgb(0,0,0)" />
	<circle cx="229.678537829371" cy="-68.7756797918355" r="2" style="fill: rgb(0,0,0)" />
	<circle cx="286.295604987927" cy="-67.6053445621366" r="2" style="fill: rgb(0,0,0)" />
	<circle cx="306.087009322365" cy="-493.136198304079" r="2" style="fill: rgb(0,0,0)" />
	<circle cx="207.481939870865" cy="-404.208527658028" r="2" style="fill: rgb(0,0,0)" />
	<circle cx="471.205344667794" cy="-351.878386228012" r="2" style="fill: rgb(0,0,0)" />
	<circle cx="476.208400719591" cy="-365.623588278712" r="2" style="fill: rgb(0,0,0)" />
	<circle cx="480.039469018654" cy="-425.782140654525" r="2" style="fill: rgb(0,0,0)" />
	<circle cx="467.786843760414" cy="-458.685358449167" r="2" style="fill: rgb(0,0,0)" />
	<circle cx="405.926766224548" cy="-480.867291336311" r="2" style="fill: rgb(0,0,0)" />
	<circle cx="129.105320533639" cy="-320.091586806056" r="2" style="fill: rgb(0,0,0)" />
	<circle cx="127.401549043557" cy="-315.976356485114" r="2" style="fill: rgb(0,0,0)" />
	<circle cx="164.912136702974" cy="-265.510847992756" r="2" style="fill: rgb(0,0,0)" />
	<circle cx="194.745042590959" cy="-398.00489867198" r="2" style="fill: rgb(0,0,0)" />
	<circle cx="163.551581055074" cy="-393.442493663592" r="2" style="fill: rgb(0,0,0)" />
	<circle cx="155.366566438365" cy="-381.838187069078" r="2" style="fill: rgb(0,0,0)" />
	<circle cx="187.543221067825" cy="-63.6461195592469" r="2" style="fill: rgb(0,0,0)" />
	<circle cx="201.599775340557" cy="-56.6453160219518" r="2" style="fill: rgb(0,0,0)" />
	<circle cx="221.429254876286" cy="-57.0413415090741" r="2" style="fill: rgb(0,0,0)" />
	<circle cx="222.596949005175" cy="-58.0834783161065" r="2" style="fill: rgb(0,0,0)" />
	<circle cx="224.122997777506" cy="-57.216785060748" r="2" style="fill: rgb(0,0,0)" />
	<circle cx="282.422569478743" cy="-53.5" r="2" style="fill: rgb(0,0,0)" />
	<circle cx="241.027454435665" cy="-502.407749269187" r="2" style="fill: rgb(0,0,0)" />
	<circle cx="224.911236829124" cy="-484.194051938941" r="2" style="fill: rgb(0,0,0)" />
	<circle cx="177.373725380688" cy="-413.554275475339" r="2" style="fill: rgb(0,0,0)" />
	<circle cx="534.60775284136" cy="-364.150420434989" r="2" style="fill: rgb(0,0,0)" />
	<circle cx="535.437163329864" cy="-365.47768715452" r="2" style="fill: rgb(0,0,0)" />
	<circle cx="548.529651234334" cy="-380.89754878832" r="2" style="fill: rgb(0,0,0)" />
	<circle cx="561.5" cy="-395.902053036762" r="2" style="fill: rgb(0,0,0)" />
	<circle cx="489.987365418388" cy="-448.755198405507" r="2" style="fill: rgb(0,0,0)" />
	<circle cx="118.611862883252" cy="-329.659331699956" r="2" style="fill: rgb(0,0,0)" />
	<circle cx="33.5" cy="-332.060125335333" r="2" style="fill: rgb(0,0,0)" />
	<circle cx="117.744582677417" cy="-303.593264432106" r="2" style="fill: rgb(0,0,0)" />
	<!--
	Generated using the Perl SVG Module V2.84
	by Ronan Oger
	Info: http://www.roitsystems.com/
	-->
</svg>