<?xml version="1.0" encoding="UTF-8" standalone="yes"?>
<!DOCTYPE svg PUBLIC "-//W3C//DTD SVG 1.0//EN" "http://www.w3.org/TR/2001/REC-SVG-20010904/DTD/svg10.dtd">
<!-- generated using polymake; Michael Joswig, Georg Loho, Benjamin Lorenz, Rico Raber; license CC BY-NC-SA 3.0; see polymake.org and matchthenet.de -->
<svg height="841pt" id="document" viewBox="0 -690.034689904763 572 690.034689904763" width="595pt" xmlns="http://www.w3.org/2000/svg" xmlns:svg="http://www.w3.org/2000/svg" xmlns:xlink="http://www.w3.org/1999/xlink">
	<title id="document_title">planar_net_</title>
	<polygon points="242.140521551972,-316.000708502713 276.923430239066,-316.000708502713 298.350600912378,-347.582806683757 252.338404977201,-438.745464280693 203.053269622248,-393.677416827325 " style="fill: rgb(14,173,105); fill-opacity: 1; stroke: rgb(0,0,0); stroke-width: 3" />
	<polygon points="87.8467089912661,-263.577968831241 41.7213942476332,-195.180232729344 59.5882783660173,-111.913586264802 160.924960904445,-164.745255758858 211.181265567637,-217.924563082534 188.647515180992,-249.092904804443 " style="fill: rgb(14,173,105); fill-opacity: 1; stroke: rgb(0,0,0); stroke-width: 3" />
	<polygon points="282.041017481681,-474.814558125809 355.18180584051,-426.71172658926 368.063257538065,-438.283338115196 393.249904171838,-507.397492938535 351.374491479608,-520.305285977973 299.506076641204,-504.066085775929 " style="fill: rgb(14,173,105); fill-opacity: 1; stroke: rgb(0,0,0); stroke-width: 3" />
	<polygon points="230.032089009115,-94.0060358163087 160.924960904445,-164.745255758858 59.5882783660173,-111.913586264802 63.7468752769227,-101.666299799004 119.925500793275,-53.5 " style="fill: rgb(14,173,105); fill-opacity: 1; stroke: rgb(0,0,0); stroke-width: 3" />
	<polygon points="66.4886286085355,-463.564966304131 233.077479623679,-504.082188464507 198.932740363873,-546.369076053108 37.6632839622552,-552.323471516274 33.5,-542.078088418063 " style="fill: rgb(14,173,105); fill-opacity: 1; stroke: rgb(0,0,0); stroke-width: 3" />
	<polygon points="441.719214955306,-504.819757251431 479.93673238985,-589.736998124548 442.441600375792,-653.534689904763 351.374491479608,-520.305285977973 393.249904171838,-507.397492938535 " style="fill: rgb(14,173,105); fill-opacity: 1; stroke: rgb(0,0,0); stroke-width: 3" />
	<polygon points="321.812265359791,-198.45034531239 276.923430239066,-316.000708502713 242.140521551972,-316.000708502713 188.647515180992,-249.092904804443 211.181265567637,-217.924563082534 " style="fill: rgb(14,173,105); fill-opacity: 1; stroke: rgb(0,0,0); stroke-width: 3" />
	<polygon points="252.338404977201,-438.745464280693 298.350600912378,-347.582806683757 375.613788563814,-369.805920158996 355.18180584051,-426.71172658926 282.041017481681,-474.814558125809 " style="fill: rgb(14,173,105); fill-opacity: 1; stroke: rgb(0,0,0); stroke-width: 3" />
	<polygon points="242.140521551972,-316.000708502713 203.053269622248,-393.677416827325 113.255311155938,-347.556579851027 173.162473250021,-265.205189224075 " style="fill: rgb(14,173,105); fill-opacity: 1; stroke: rgb(0,0,0); stroke-width: 3" />
	<polygon points="375.613788563814,-369.805920158996 433.272834487265,-342.0056477013 454.642184771712,-450.310203572865 371.248423408865,-433.169109267681 355.18180584051,-426.71172658926 " style="fill: rgb(14,173,105); fill-opacity: 1; stroke: rgb(0,0,0); stroke-width: 3" />
	<polygon points="404.481168027528,-291.181033684565 377.038716856528,-218.975994754923 444.190268533901,-202.152736749145 561.5,-200.532054968461 530.637125288068,-288.389891277349 514.781054792219,-295.704410058105 " style="fill: rgb(14,173,105); fill-opacity: 1; stroke: rgb(0,0,0); stroke-width: 3" />
	<polygon points="337.167000094703,-183.163884510358 321.812265359791,-198.45034531239 211.181265567637,-217.924563082534 195.350919159876,-146.488332649811 292.855793263377,-129.976763402327 " style="fill: rgb(14,173,105); fill-opacity: 1; stroke: rgb(0,0,0); stroke-width: 3" />
	<polygon points="203.053269622248,-393.677416827325 252.338404977201,-438.745464280693 261.060316063519,-484.649200374846 233.077479623679,-504.082188464507 66.4886286085355,-463.564966304131 102.203131308349,-389.199186129589 " style="fill: rgb(14,173,105); fill-opacity: 1; stroke: rgb(0,0,0); stroke-width: 3" />
	<polygon points="439.518608785469,-484.57015401705 441.477855054905,-501.921768080846 393.249904171838,-507.397492938535 368.063257538065,-438.283338115196 " style="fill: rgb(14,173,105); fill-opacity: 1; stroke: rgb(0,0,0); stroke-width: 3" />
	<polygon points="298.350600912378,-347.582806683757 276.923430239066,-316.000708502713 355.412581678307,-217.651593046492 377.038716856528,-218.975994754923 404.481168027528,-291.181033684565 378.716318016545,-349.777904159328 " style="fill: rgb(14,173,105); fill-opacity: 1; stroke: rgb(0,0,0); stroke-width: 3" />
	<circle cx="242.140521551972" cy="-316.000708502713" r="2" style="fill: rgb(0,0,0)" />
	<circle cx="276.923430239066" cy="-316.000708502713" r="2" style="fill: rgb(0,0,0)" />
	<circle cx="298.350600912378" cy="-347.582806683757" r="2" style="fill: rgb(0,0,0)" />
	<circle cx="252.338404977201" cy="-438.745464280693" r="2" style="fill: rgb(0,0,0)" />
	<circle cx="203.053269622248" cy="-393.677416827325" r="2" style="fill: rgb(0,0,0)" />
	<circle cx="188.647515180992" cy="-249.092904804443" r="2" style="fill: rgb(0,0,0)" />
	<circle cx="211.181265567637" cy="-217.924563082534" r="2" style="fill: rgb(0,0,0)" />
	<circle cx="321.812265359791" cy="-198.45034531239" r="2" style="fill: rgb(0,0,0)" />
	<circle cx="375.613788563814" cy="-369.805920158996" r="2" style="fill: rgb(0,0,0)" />
	<circle cx="355.18180584051" cy="-426.71172658926" r="2" style="fill: rgb(0,0,0)" />
	<circle cx="282.041017481681" cy="-474.814558125809" r="2" style="fill: rgb(0,0,0)" />
	<circle cx="113.255311155938" cy="-347.556579851027" r="2" style="fill: rgb(0,0,0)" />
	<circle cx="173.162473250021" cy="-265.205189224075" r="2" style="fill: rgb(0,0,0)" />
	<circle cx="261.060316063519" cy="-484.649200374846" r="2" style="fill: rgb(0,0,0)" />
	<circle cx="233.077479623679" cy="-504.082188464507" r="2" style="fill: rgb(0,0,0)" />
	<circle cx="66.4886286085355" cy="-463.564966304131" r="2" style="fill: rgb(0,0,0)" />
	<circle cx="102.203131308349" cy="-389.199186129589" r="2" style="fill: rgb(0,0,0)" />
	<circle cx="355.412581678307" cy="-217.651593046492" r="2" style="fill: rgb(0,0,0)" />
	<circle cx="377.038716856528" cy="-218.975994754923" r="2" style="fill: rgb(0,0,0)" />
	<circle cx="404.481168027528" cy="-291.181033684565" r="2" style="fill: rgb(0,0,0)" />
	<circle cx="378.716318016545" cy="-349.777904159328" r="2" style="fill: rgb(0,0,0)" />
	<circle cx="87.8467089912661" cy="-263.577968831241" r="2" style="fill: rgb(0,0,0)" />
	<circle cx="41.7213942476332" cy="-195.180232729344" r="2" style="fill: rgb(0,0,0)" />
	<circle cx="59.5882783660173" cy="-111.913586264802" r="2" style="fill: rgb(0,0,0)" />
	<circle cx="160.924960904445" cy="-164.745255758858" r="2" style="fill: rgb(0,0,0)" />
	<circle cx="195.350919159876" cy="-146.488332649811" r="2" style="fill: rgb(0,0,0)" />
	<circle cx="292.855793263377" cy="-129.976763402327" r="2" style="fill: rgb(0,0,0)" />
	<circle cx="337.167000094703" cy="-183.163884510358" r="2" style="fill: rgb(0,0,0)" />
	<circle cx="368.063257538065" cy="-438.283338115196" r="2" style="fill: rgb(0,0,0)" />
	<circle cx="393.249904171838" cy="-507.397492938535" r="2" style="fill: rgb(0,0,0)" />
	<circle cx="351.374491479608" cy="-520.305285977973" r="2" style="fill: rgb(0,0,0)" />
	<circle cx="299.506076641204" cy="-504.066085775929" r="2" style="fill: rgb(0,0,0)" />
	<circle cx="433.272834487265" cy="-342.0056477013" r="2" style="fill: rgb(0,0,0)" />
	<circle cx="454.642184771712" cy="-450.310203572865" r="2" style="fill: rgb(0,0,0)" />
	<circle cx="371.248423408865" cy="-433.169109267681" r="2" style="fill: rgb(0,0,0)" />
	<circle cx="198.932740363873" cy="-546.369076053108" r="2" style="fill: rgb(0,0,0)" />
	<circle cx="37.6632839622552" cy="-552.323471516274" r="2" style="fill: rgb(0,0,0)" />
	<circle cx="33.5" cy="-542.078088418063" r="2" style="fill: rgb(0,0,0)" />
	<circle cx="444.190268533901" cy="-202.152736749145" r="2" style="fill: rgb(0,0,0)" />
	<circle cx="561.5" cy="-200.532054968461" r="2" style="fill: rgb(0,0,0)" />
	<circle cx="530.637125288068" cy="-288.389891277349" r="2" style="fill: rgb(0,0,0)" />
	<circle cx="514.781054792219" cy="-295.704410058105" r="2" style="fill: rgb(0,0,0)" />
	<circle cx="63.7468752769227" cy="-101.666299799004" r="2" style="fill: rgb(0,0,0)" />
	<circle cx="119.925500793275" cy="-53.5" r="2" style="fill: rgb(0,0,0)" />
	<circle cx="230.032089009115" cy="-94.0060358163087" r="2" style="fill: rgb(0,0,0)" />
	<circle cx="441.719214955306" cy="-504.819757251431" r="2" style="fill: rgb(0,0,0)" />
	<circle cx="479.93673238985" cy="-589.736998124548" r="2" style="fill: rgb(0,0,0)" />
	<circle cx="442.441600375792" cy="-653.534689904763" r="2" style="fill: rgb(0,0,0)" />
	<circle cx="439.518608785469" cy="-484.57015401705" r="2" style="fill: rgb(0,0,0)" />
	<circle cx="441.477855054905" cy="-501.921768080846" r="2" style="fill: rgb(0,0,0)" />
	<!-- 
	Generated using the Perl SVG Module V2.64
	by Ronan Oger
	Info: http://www.roitsystems.com/
 -->
</svg>