<?xml version="1.0" encoding="UTF-8" standalone="yes"?>
<!DOCTYPE svg PUBLIC "-//W3C//DTD SVG 1.0//EN" "http://www.w3.org/TR/2001/REC-SVG-20010904/DTD/svg10.dtd">
<!-- generated using polymake; Michael Joswig, Georg Loho, Benjamin Lorenz, Rico Raber; license CC BY-NC-ND 3.0; see polymake.org and matchthenet.de -->
<svg height="841pt" id="document" viewBox="0 -725.543725681621 572 725.543725681621" width="595pt" xmlns="http://www.w3.org/2000/svg" xmlns:svg="http://www.w3.org/2000/svg" xmlns:xlink="http://www.w3.org/1999/xlink">
	<title id="document_title">planar_net_</title>
	<polygon points="88.9864021416911,-400.608073853016 397.491996786975,-400.608073853016 430.156356705893,-448.388365207201 338.225408306832,-522.788609672472 253.466056991478,-514.03819819176 " style="fill: rgb(14,173,105); fill-opacity: 1; stroke: rgb(0,0,0); stroke-width: 3" />
	<polygon points="368.515432524204,-323.395166282028 397.491996786975,-400.608073853016 88.9864021416911,-400.608073853016 55.263773528298,-355.964849925139 245.217332745868,-282.021722239849 " style="fill: rgb(14,173,105); fill-opacity: 1; stroke: rgb(0,0,0); stroke-width: 3" />
	<polygon points="424.561146980235,-565.291237296454 459.476464073365,-557.322490520408 462.529020381812,-619.196529202947 450.738319405985,-622.583079029365 444.797029651544,-618.782043368651 " style="fill: rgb(14,173,105); fill-opacity: 1; stroke: rgb(0,0,0); stroke-width: 3" />
	<polygon points="55.263773528298,-355.964849925139 171.10287562275,-162.867870571205 239.952556542963,-110.401147481561 263.34920517618,-108.173692193349 257.104550506417,-247.999972772954 245.217332745868,-282.021722239849 " style="fill: rgb(14,173,105); fill-opacity: 1; stroke: rgb(0,0,0); stroke-width: 3" />
	<polygon points="338.225408306832,-522.788609672472 430.156356705893,-448.388365207201 512.021348619215,-497.86879052149 496.952853867094,-531.472970602973 459.476464073365,-557.322490520408 424.561146980235,-565.291237296454 " style="fill: rgb(14,173,105); fill-opacity: 1; stroke: rgb(0,0,0); stroke-width: 3" />
	<polygon points="512.021348619215,-497.86879052149 561.5,-518.317084632268 548.525529164578,-599.255881876122 510.324830510443,-598.779515645298 496.952853867094,-531.472970602973 " style="fill: rgb(14,173,105); fill-opacity: 1; stroke: rgb(0,0,0); stroke-width: 3" />
	<polygon points="449.678571903103,-263.533967377312 368.515432524204,-323.395166282028 245.217332745868,-282.021722239849 278.237728766161,-267.584311476895 386.576778639848,-232.801143869666 " style="fill: rgb(14,173,105); fill-opacity: 1; stroke: rgb(0,0,0); stroke-width: 3" />
	<polygon points="88.9864021416911,-400.608073853016 253.466056991478,-514.03819819176 210.121197471818,-669.47213260872 204.629193931024,-673.897592262605 122.149485101637,-600.426003651536 33.5,-393.432260265728 " style="fill: rgb(14,173,105); fill-opacity: 1; stroke: rgb(0,0,0); stroke-width: 3" />
	<polygon points="301.711248716435,-143.322081357747 257.104550506417,-247.999972772954 263.34920517618,-108.173692193349 266.220825523738,-107.163225662337 " style="fill: rgb(14,173,105); fill-opacity: 1; stroke: rgb(0,0,0); stroke-width: 3" />
	<polygon points="253.466056991478,-514.03819819176 338.225408306832,-522.788609672472 358.441821121468,-616.871710068536 321.369900988815,-660.419729764246 " style="fill: rgb(14,173,105); fill-opacity: 1; stroke: rgb(0,0,0); stroke-width: 3" />
	<polygon points="122.149485101637,-600.426003651536 204.629193931024,-673.897592262605 200.709022602431,-685.521774211573 198.069061039377,-689.043725681621 139.658609127795,-685.19903102708 " style="fill: rgb(14,173,105); fill-opacity: 1; stroke: rgb(0,0,0); stroke-width: 3" />
	<polygon points="430.156356705893,-448.388365207201 397.491996786975,-400.608073853016 390.752191588852,-318.412883008709 490.251046765884,-334.868767871345 496.77850156417,-341.420527868396 508.594673008281,-393.637840772309 " style="fill: rgb(14,173,105); fill-opacity: 1; stroke: rgb(0,0,0); stroke-width: 3" />
	<polygon points="459.476464073365,-557.322490520408 496.952853867094,-531.472970602973 495.794635613368,-600.085209273354 471.932713631628,-618.029077284218 467.588696257749,-618.73833906044 " style="fill: rgb(14,173,105); fill-opacity: 1; stroke: rgb(0,0,0); stroke-width: 3" />
	<polygon points="496.77850156417,-341.420527868396 490.251046765884,-334.868767871345 491.436041670796,-264.690861512811 541.299608046911,-255.709896539478 547.416241077347,-276.959336987859 " style="fill: rgb(14,173,105); fill-opacity: 1; stroke: rgb(0,0,0); stroke-width: 3" />
	<polygon points="274.998775008438,-86.6512690252537 266.114218389441,-106.900134985656 263.34920517618,-108.173692193349 239.952556542963,-110.401147481561 226.155698158325,-53.5134575283128 256.011577625331,-53.5 " style="fill: rgb(14,173,105); fill-opacity: 1; stroke: rgb(0,0,0); stroke-width: 3" />
	<circle cx="88.9864021416911" cy="-400.608073853016" r="2" style="fill: rgb(0,0,0)" />
	<circle cx="397.491996786975" cy="-400.608073853016" r="2" style="fill: rgb(0,0,0)" />
	<circle cx="430.156356705893" cy="-448.388365207201" r="2" style="fill: rgb(0,0,0)" />
	<circle cx="338.225408306832" cy="-522.788609672472" r="2" style="fill: rgb(0,0,0)" />
	<circle cx="253.466056991478" cy="-514.03819819176" r="2" style="fill: rgb(0,0,0)" />
	<circle cx="55.263773528298" cy="-355.964849925139" r="2" style="fill: rgb(0,0,0)" />
	<circle cx="245.217332745868" cy="-282.021722239849" r="2" style="fill: rgb(0,0,0)" />
	<circle cx="368.515432524204" cy="-323.395166282028" r="2" style="fill: rgb(0,0,0)" />
	<circle cx="512.021348619215" cy="-497.86879052149" r="2" style="fill: rgb(0,0,0)" />
	<circle cx="496.952853867094" cy="-531.472970602973" r="2" style="fill: rgb(0,0,0)" />
	<circle cx="459.476464073365" cy="-557.322490520408" r="2" style="fill: rgb(0,0,0)" />
	<circle cx="424.561146980235" cy="-565.291237296454" r="2" style="fill: rgb(0,0,0)" />
	<circle cx="210.121197471818" cy="-669.47213260872" r="2" style="fill: rgb(0,0,0)" />
	<circle cx="204.629193931024" cy="-673.897592262605" r="2" style="fill: rgb(0,0,0)" />
	<circle cx="122.149485101637" cy="-600.426003651536" r="2" style="fill: rgb(0,0,0)" />
	<circle cx="33.5" cy="-393.432260265728" r="2" style="fill: rgb(0,0,0)" />
	<circle cx="358.441821121468" cy="-616.871710068536" r="2" style="fill: rgb(0,0,0)" />
	<circle cx="321.369900988815" cy="-660.419729764246" r="2" style="fill: rgb(0,0,0)" />
	<circle cx="390.752191588852" cy="-318.412883008709" r="2" style="fill: rgb(0,0,0)" />
	<circle cx="490.251046765884" cy="-334.868767871345" r="2" style="fill: rgb(0,0,0)" />
	<circle cx="496.77850156417" cy="-341.420527868396" r="2" style="fill: rgb(0,0,0)" />
	<circle cx="508.594673008281" cy="-393.637840772309" r="2" style="fill: rgb(0,0,0)" />
	<circle cx="171.10287562275" cy="-162.867870571205" r="2" style="fill: rgb(0,0,0)" />
	<circle cx="239.952556542963" cy="-110.401147481561" r="2" style="fill: rgb(0,0,0)" />
	<circle cx="263.34920517618" cy="-108.173692193349" r="2" style="fill: rgb(0,0,0)" />
	<circle cx="257.104550506417" cy="-247.999972772954" r="2" style="fill: rgb(0,0,0)" />
	<circle cx="278.237728766161" cy="-267.584311476895" r="2" style="fill: rgb(0,0,0)" />
	<circle cx="386.576778639848" cy="-232.801143869666" r="2" style="fill: rgb(0,0,0)" />
	<circle cx="449.678571903103" cy="-263.533967377312" r="2" style="fill: rgb(0,0,0)" />
	<circle cx="462.529020381812" cy="-619.196529202947" r="2" style="fill: rgb(0,0,0)" />
	<circle cx="450.738319405985" cy="-622.583079029365" r="2" style="fill: rgb(0,0,0)" />
	<circle cx="444.797029651544" cy="-618.782043368651" r="2" style="fill: rgb(0,0,0)" />
	<circle cx="561.5" cy="-518.317084632268" r="2" style="fill: rgb(0,0,0)" />
	<circle cx="548.525529164578" cy="-599.255881876122" r="2" style="fill: rgb(0,0,0)" />
	<circle cx="510.324830510443" cy="-598.779515645298" r="2" style="fill: rgb(0,0,0)" />
	<circle cx="495.794635613368" cy="-600.085209273354" r="2" style="fill: rgb(0,0,0)" />
	<circle cx="471.932713631628" cy="-618.029077284218" r="2" style="fill: rgb(0,0,0)" />
	<circle cx="467.588696257749" cy="-618.73833906044" r="2" style="fill: rgb(0,0,0)" />
	<circle cx="200.709022602431" cy="-685.521774211573" r="2" style="fill: rgb(0,0,0)" />
	<circle cx="198.069061039377" cy="-689.043725681621" r="2" style="fill: rgb(0,0,0)" />
	<circle cx="139.658609127795" cy="-685.19903102708" r="2" style="fill: rgb(0,0,0)" />
	<circle cx="491.436041670796" cy="-264.690861512811" r="2" style="fill: rgb(0,0,0)" />
	<circle cx="541.299608046911" cy="-255.709896539478" r="2" style="fill: rgb(0,0,0)" />
	<circle cx="547.416241077347" cy="-276.959336987859" r="2" style="fill: rgb(0,0,0)" />
	<circle cx="266.220825523738" cy="-107.163225662337" r="2" style="fill: rgb(0,0,0)" />
	<circle cx="301.711248716435" cy="-143.322081357747" r="2" style="fill: rgb(0,0,0)" />
	<circle cx="226.155698158325" cy="-53.5134575283128" r="2" style="fill: rgb(0,0,0)" />
	<circle cx="256.011577625331" cy="-53.5" r="2" style="fill: rgb(0,0,0)" />
	<circle cx="274.998775008438" cy="-86.6512690252537" r="2" style="fill: rgb(0,0,0)" />
	<circle cx="266.114218389441" cy="-106.900134985656" r="2" style="fill: rgb(0,0,0)" />
	<!--
	Generated using the Perl SVG Module V2.87
	by Ronan Oger

	-->
</svg>