<?xml version="1.0" encoding="UTF-8" standalone="yes"?>
<!DOCTYPE svg PUBLIC "-//W3C//DTD SVG 1.0//EN" "http://www.w3.org/TR/2001/REC-SVG-20010904/DTD/svg10.dtd">
<!-- generated using polymake; Michael Joswig, Georg Loho, Benjamin Lorenz, Rico Raber; license CC BY-NC-ND 3.0; see polymake.org and matchthenet.de -->
<svg height="841pt" id="document" viewBox="0 -607.760329431333 572 607.760329431333" width="595pt" xmlns="http://www.w3.org/2000/svg" xmlns:svg="http://www.w3.org/2000/svg" xmlns:xlink="http://www.w3.org/1999/xlink">
	<title id="document_title">planar_net_</title>
	<polygon points="228.028777257884,-395.96213342346 315.561618855657,-395.96213342346 269.078954664212,-447.912040014394 240.335798343487,-441.738362312046 " style="fill: rgb(14,173,105); fill-opacity: 1; stroke: rgb(0,0,0); stroke-width: 3" />
	<polygon points="198.396652293393,-508.602302914059 242.052474834763,-517.186797358465 266.671313245542,-562.411145965792 243.498689636867,-571.260329431333 146.98392147189,-555.189076313638 " style="fill: rgb(14,173,105); fill-opacity: 1; stroke: rgb(0,0,0); stroke-width: 3" />
	<polygon points="128.506141464066,-190.525015294007 169.176467568137,-126.662427200059 334.359197279767,-53.5 416.204456006386,-241.577943598181 " style="fill: rgb(14,173,105); fill-opacity: 1; stroke: rgb(0,0,0); stroke-width: 3" />
	<polygon points="344.612576667268,-374.45879049436 315.561618855657,-395.96213342346 228.028777257884,-395.96213342346 128.506141464066,-190.525015294007 416.204456006386,-241.577943598181 423.74696059917,-248.102748683193 388.230460365069,-327.975377859528 382.044412396202,-337.348586658349 " style="fill: rgb(14,173,105); fill-opacity: 1; stroke: rgb(0,0,0); stroke-width: 3" />
	<polygon points="358.322305679683,-483.822201585596 353.692279879832,-381.783551906029 382.044412396202,-337.348586658349 371.674863528981,-481.339848863527 367.154738681871,-486.036568507381 " style="fill: rgb(14,173,105); fill-opacity: 1; stroke: rgb(0,0,0); stroke-width: 3" />
	<polygon points="269.078954664212,-447.912040014394 315.561618855657,-395.96213342346 348.343159088368,-380.739698438547 300.067565953922,-470.755198630769 " style="fill: rgb(14,173,105); fill-opacity: 1; stroke: rgb(0,0,0); stroke-width: 3" />
	<polygon points="382.044412396202,-337.348586658349 388.230460365069,-327.975377859528 390.823898443281,-470.567369487541 371.674863528981,-481.339848863527 " style="fill: rgb(14,173,105); fill-opacity: 1; stroke: rgb(0,0,0); stroke-width: 3" />
	<polygon points="388.230460365069,-327.975377859528 423.74696059917,-248.102748683193 453.120397261314,-453.141554844418 422.521434360901,-466.407061732567 " style="fill: rgb(14,173,105); fill-opacity: 1; stroke: rgb(0,0,0); stroke-width: 3" />
	<polygon points="242.052474834763,-517.186797358465 287.068092435816,-491.682617265359 291.575676644244,-496.391373858181 298.786088249973,-517.145694240478 296.275383232751,-550.401769834212 280.536092176527,-551.397031323533 " style="fill: rgb(14,173,105); fill-opacity: 1; stroke: rgb(0,0,0); stroke-width: 3" />
	<polygon points="82.2772765960191,-309.406292241968 115.185528306366,-422.576184072369 45.9468553186461,-491.709329622215 33.5,-483.357010080858 " style="fill: rgb(14,173,105); fill-opacity: 1; stroke: rgb(0,0,0); stroke-width: 3" />
	<polygon points="240.335798343487,-441.738362312046 269.078954664212,-447.912040014394 285.564551191974,-482.701823462441 287.068092435816,-491.682617265359 242.052474834763,-517.186797358465 198.396652293393,-508.602302914059 " style="fill: rgb(14,173,105); fill-opacity: 1; stroke: rgb(0,0,0); stroke-width: 3" />
	<polygon points="423.74696059917,-248.102748683193 416.204456006386,-241.577943598181 530.331983674574,-71.1465302011697 542.219464451543,-62.0156348550643 561.5,-77.6213864191838 561.472494582287,-93.3920893786808 " style="fill: rgb(14,173,105); fill-opacity: 1; stroke: rgb(0,0,0); stroke-width: 3" />
	<polygon points="228.028777257884,-395.96213342346 240.335798343487,-441.738362312046 166.404460479354,-469.375941906864 115.185528306366,-422.576184072369 82.2772765960191,-309.406292241968 65.6204999917745,-235.54793200683 " style="fill: rgb(14,173,105); fill-opacity: 1; stroke: rgb(0,0,0); stroke-width: 3" />
	<circle cx="228.028777257884" cy="-395.96213342346" r="2" style="fill: rgb(0,0,0)" />
	<circle cx="315.561618855657" cy="-395.96213342346" r="2" style="fill: rgb(0,0,0)" />
	<circle cx="269.078954664212" cy="-447.912040014394" r="2" style="fill: rgb(0,0,0)" />
	<circle cx="240.335798343487" cy="-441.738362312046" r="2" style="fill: rgb(0,0,0)" />
	<circle cx="128.506141464066" cy="-190.525015294007" r="2" style="fill: rgb(0,0,0)" />
	<circle cx="416.204456006386" cy="-241.577943598181" r="2" style="fill: rgb(0,0,0)" />
	<circle cx="423.74696059917" cy="-248.102748683193" r="2" style="fill: rgb(0,0,0)" />
	<circle cx="388.230460365069" cy="-327.975377859528" r="2" style="fill: rgb(0,0,0)" />
	<circle cx="382.044412396202" cy="-337.348586658349" r="2" style="fill: rgb(0,0,0)" />
	<circle cx="344.612576667268" cy="-374.45879049436" r="2" style="fill: rgb(0,0,0)" />
	<circle cx="348.343159088368" cy="-380.739698438547" r="2" style="fill: rgb(0,0,0)" />
	<circle cx="300.067565953922" cy="-470.755198630769" r="2" style="fill: rgb(0,0,0)" />
	<circle cx="285.564551191974" cy="-482.701823462441" r="2" style="fill: rgb(0,0,0)" />
	<circle cx="287.068092435816" cy="-491.682617265359" r="2" style="fill: rgb(0,0,0)" />
	<circle cx="242.052474834763" cy="-517.186797358465" r="2" style="fill: rgb(0,0,0)" />
	<circle cx="198.396652293393" cy="-508.602302914059" r="2" style="fill: rgb(0,0,0)" />
	<circle cx="166.404460479354" cy="-469.375941906864" r="2" style="fill: rgb(0,0,0)" />
	<circle cx="115.185528306366" cy="-422.576184072369" r="2" style="fill: rgb(0,0,0)" />
	<circle cx="82.2772765960191" cy="-309.406292241968" r="2" style="fill: rgb(0,0,0)" />
	<circle cx="65.6204999917745" cy="-235.54793200683" r="2" style="fill: rgb(0,0,0)" />
	<circle cx="169.176467568137" cy="-126.662427200059" r="2" style="fill: rgb(0,0,0)" />
	<circle cx="334.359197279767" cy="-53.5" r="2" style="fill: rgb(0,0,0)" />
	<circle cx="390.823898443281" cy="-470.567369487541" r="2" style="fill: rgb(0,0,0)" />
	<circle cx="371.674863528981" cy="-481.339848863527" r="2" style="fill: rgb(0,0,0)" />
	<circle cx="453.120397261314" cy="-453.141554844418" r="2" style="fill: rgb(0,0,0)" />
	<circle cx="422.521434360901" cy="-466.407061732567" r="2" style="fill: rgb(0,0,0)" />
	<circle cx="530.331983674574" cy="-71.1465302011697" r="2" style="fill: rgb(0,0,0)" />
	<circle cx="542.219464451543" cy="-62.0156348550643" r="2" style="fill: rgb(0,0,0)" />
	<circle cx="561.5" cy="-77.6213864191838" r="2" style="fill: rgb(0,0,0)" />
	<circle cx="561.472494582287" cy="-93.3920893786808" r="2" style="fill: rgb(0,0,0)" />
	<circle cx="266.671313245542" cy="-562.411145965792" r="2" style="fill: rgb(0,0,0)" />
	<circle cx="243.498689636867" cy="-571.260329431333" r="2" style="fill: rgb(0,0,0)" />
	<circle cx="146.98392147189" cy="-555.189076313638" r="2" style="fill: rgb(0,0,0)" />
	<circle cx="291.575676644244" cy="-496.391373858181" r="2" style="fill: rgb(0,0,0)" />
	<circle cx="298.786088249973" cy="-517.145694240478" r="2" style="fill: rgb(0,0,0)" />
	<circle cx="296.275383232751" cy="-550.401769834212" r="2" style="fill: rgb(0,0,0)" />
	<circle cx="280.536092176527" cy="-551.397031323533" r="2" style="fill: rgb(0,0,0)" />
	<circle cx="45.9468553186461" cy="-491.709329622215" r="2" style="fill: rgb(0,0,0)" />
	<circle cx="33.5" cy="-483.357010080858" r="2" style="fill: rgb(0,0,0)" />
	<circle cx="367.154738681871" cy="-486.036568507381" r="2" style="fill: rgb(0,0,0)" />
	<circle cx="358.322305679683" cy="-483.822201585596" r="2" style="fill: rgb(0,0,0)" />
	<circle cx="353.692279879832" cy="-381.783551906029" r="2" style="fill: rgb(0,0,0)" />
	<!--
	Generated using the Perl SVG Module V2.86
	by Ronan Oger
	Info: http://www.roitsystems.com/
	-->
</svg>