<?xml version="1.0" encoding="UTF-8" standalone="yes"?>
<!DOCTYPE svg PUBLIC "-//W3C//DTD SVG 1.0//EN" "http://www.w3.org/TR/2001/REC-SVG-20010904/DTD/svg10.dtd">
<!-- generated using polymake; Michael Joswig, Georg Loho, Benjamin Lorenz, Rico Raber; license CC BY-NC-ND 3.0; see polymake.org and matchthenet.de -->
<svg height="841pt" id="document" viewBox="0 -748.052394941863 572 748.052394941863" width="595pt" xmlns="http://www.w3.org/2000/svg" xmlns:svg="http://www.w3.org/2000/svg" xmlns:xlink="http://www.w3.org/1999/xlink">
	<title id="document_title">planar_net_</title>
	<polygon points="236.158182310074,-382.526197470963 306.367504435027,-382.526197470963 293.074083444435,-472.320690032645 206.194479834574,-446.020492074543 " style="fill: rgb(67,184,206); fill-opacity: 1; stroke: rgb(0,0,0); stroke-width: 3" />
	<polygon points="236.158182310074,-382.526197470963 206.194479834569,-319.031902867392 293.074083444427,-292.731704909277 306.367504435027,-382.526197470963 " style="fill: rgb(67,184,206); fill-opacity: 1; stroke: rgb(0,0,0); stroke-width: 3" />
	<polygon points="293.074083444435,-472.320690032645 306.367504435027,-382.526197470963 373.565322743337,-402.86832439637 383.84723991729,-472.320690032626 " style="fill: rgb(67,184,206); fill-opacity: 1; stroke: rgb(0,0,0); stroke-width: 3" />
	<polygon points="236.158182310074,-382.526197470963 206.194479834574,-446.020492074543 130.661520783807,-395.676296450039 191.524480027798,-328.33042702876 " style="fill: rgb(67,184,206); fill-opacity: 1; stroke: rgb(0,0,0); stroke-width: 3" />
	<polygon points="373.565322743339,-362.184070545532 306.367504435027,-382.526197470963 293.074083444427,-292.731704909277 383.847239917273,-292.731704909267 " style="fill: rgb(67,184,206); fill-opacity: 1; stroke: rgb(0,0,0); stroke-width: 3" />
	<polygon points="206.194479834574,-446.020492074543 293.074083444435,-472.320690032645 254.334215703321,-554.412032958953 195.912562660641,-515.472857710823 " style="fill: rgb(67,184,206); fill-opacity: 1; stroke: rgb(0,0,0); stroke-width: 3" />
	<polygon points="383.84723991729,-472.320690032626 373.565322743337,-402.86832439637 431.986975786017,-363.929149148216 470.726843527153,-446.02049207449 " style="fill: rgb(67,184,206); fill-opacity: 1; stroke: rgb(0,0,0); stroke-width: 3" />
	<polygon points="206.194479834574,-446.020492074543 159.119471351006,-498.109766301757 91.9216530427055,-477.767639376364 130.661520783807,-395.676296450039 " style="fill: rgb(67,184,206); fill-opacity: 1; stroke: rgb(0,0,0); stroke-width: 3" />
	<polygon points="206.194479834569,-319.031902867392 195.912562660613,-249.579537231123 254.334215703278,-210.640361982975 293.074083444427,-292.731704909277 " style="fill: rgb(67,184,206); fill-opacity: 1; stroke: rgb(0,0,0); stroke-width: 3" />
	<polygon points="293.074083444435,-472.320690032645 383.84723991729,-472.320690032626 373.565322743354,-541.773055668896 306.367504435052,-562.115182594331 " style="fill: rgb(67,184,206); fill-opacity: 1; stroke: rgb(0,0,0); stroke-width: 3" />
	<polygon points="195.912562660641,-515.472857710823 254.334215703321,-554.412032958953 193.471256459324,-621.757902380224 135.764645448055,-551.688558287151 " style="fill: rgb(67,184,206); fill-opacity: 1; stroke: rgb(0,0,0); stroke-width: 3" />
	<polygon points="191.524480027798,-328.33042702876 130.661520783807,-395.676296450039 72.9549097725127,-325.606952356956 133.102826985089,-289.391251780631 " style="fill: rgb(67,184,206); fill-opacity: 1; stroke: rgb(0,0,0); stroke-width: 3" />
	<polygon points="383.84723991729,-472.320690032626 470.726843527153,-446.02049207449 484.020264517776,-535.814984636172 413.810942392824,-535.814984636195 " style="fill: rgb(67,184,206); fill-opacity: 1; stroke: rgb(0,0,0); stroke-width: 3" />
	<polygon points="383.847239917273,-292.731704909267 293.074083444427,-292.731704909277 306.367504435018,-202.937212347591 373.565322743318,-223.279339272992 " style="fill: rgb(67,184,206); fill-opacity: 1; stroke: rgb(0,0,0); stroke-width: 3" />
	<polygon points="195.912562660613,-249.579537231123 135.764645448013,-213.363836654827 193.471256459247,-143.29449256173 254.334215703278,-210.640361982975 " style="fill: rgb(67,184,206); fill-opacity: 1; stroke: rgb(0,0,0); stroke-width: 3" />
	<polygon points="306.367504435052,-562.115182594331 373.565322743354,-541.773055668896 420.64033122695,-593.862329896084 345.107372176204,-644.206525520622 " style="fill: rgb(67,184,206); fill-opacity: 1; stroke: rgb(0,0,0); stroke-width: 3" />
	<polygon points="470.726843527153,-446.02049207449 431.986975786017,-363.929149148216 499.184794094318,-343.587022222777 546.259802577904,-395.676296449941 " style="fill: rgb(67,184,206); fill-opacity: 1; stroke: rgb(0,0,0); stroke-width: 3" />
	<polygon points="130.661520783807,-395.676296450039 91.9216530427055,-477.767639376364 33.5,-438.828464128245 43.7819171739139,-369.376098491973 " style="fill: rgb(67,184,206); fill-opacity: 1; stroke: rgb(0,0,0); stroke-width: 3" />
	<polygon points="373.565322743318,-223.279339272992 306.367504435018,-202.937212347591 345.107372176128,-120.845869421282 420.640331226885,-171.190065045771 " style="fill: rgb(67,184,206); fill-opacity: 1; stroke: rgb(0,0,0); stroke-width: 3" />
	<polygon points="135.764645448055,-551.688558287151 193.471256459324,-621.757902380224 115.706422169417,-668.58093606993 88.6896369644786,-603.77783251437 " style="fill: rgb(67,184,206); fill-opacity: 1; stroke: rgb(0,0,0); stroke-width: 3" />
	<polygon points="470.726843527153,-446.02049207449 561.5,-446.020492074458 551.218082826082,-515.472857710723 484.020264517776,-535.814984636172 " style="fill: rgb(67,184,206); fill-opacity: 1; stroke: rgb(0,0,0); stroke-width: 3" />
	<polygon points="88.6896369644096,-161.274562427643 115.706422169304,-96.47145887207 193.471256459247,-143.29449256173 135.764645448013,-213.363836654827 " style="fill: rgb(67,184,206); fill-opacity: 1; stroke: rgb(0,0,0); stroke-width: 3" />
	<polygon points="345.107372176204,-644.206525520622 420.64033122695,-593.862329896084 450.604033702482,-657.356624499647 405.970331420252,-711.552394941863 " style="fill: rgb(67,184,206); fill-opacity: 1; stroke: rgb(0,0,0); stroke-width: 3" />
	<polygon points="420.640331226885,-171.190065045771 345.107372176128,-120.845869421282 405.970331420119,-53.5 450.604033702377,-107.695770442182 " style="fill: rgb(67,184,206); fill-opacity: 1; stroke: rgb(0,0,0); stroke-width: 3" />
	<circle cx="236.158182310074" cy="-382.526197470963" r="2" style="fill: rgb(0,0,0)" />
	<circle cx="306.367504435027" cy="-382.526197470963" r="2" style="fill: rgb(0,0,0)" />
	<circle cx="293.074083444435" cy="-472.320690032645" r="2" style="fill: rgb(0,0,0)" />
	<circle cx="206.194479834574" cy="-446.020492074543" r="2" style="fill: rgb(0,0,0)" />
	<circle cx="206.194479834569" cy="-319.031902867392" r="2" style="fill: rgb(0,0,0)" />
	<circle cx="293.074083444427" cy="-292.731704909277" r="2" style="fill: rgb(0,0,0)" />
	<circle cx="373.565322743337" cy="-402.86832439637" r="2" style="fill: rgb(0,0,0)" />
	<circle cx="383.84723991729" cy="-472.320690032626" r="2" style="fill: rgb(0,0,0)" />
	<circle cx="130.661520783807" cy="-395.676296450039" r="2" style="fill: rgb(0,0,0)" />
	<circle cx="191.524480027798" cy="-328.33042702876" r="2" style="fill: rgb(0,0,0)" />
	<circle cx="254.334215703321" cy="-554.412032958953" r="2" style="fill: rgb(0,0,0)" />
	<circle cx="195.912562660641" cy="-515.472857710823" r="2" style="fill: rgb(0,0,0)" />
	<circle cx="383.847239917273" cy="-292.731704909267" r="2" style="fill: rgb(0,0,0)" />
	<circle cx="373.565322743339" cy="-362.184070545532" r="2" style="fill: rgb(0,0,0)" />
	<circle cx="195.912562660613" cy="-249.579537231123" r="2" style="fill: rgb(0,0,0)" />
	<circle cx="254.334215703278" cy="-210.640361982975" r="2" style="fill: rgb(0,0,0)" />
	<circle cx="431.986975786017" cy="-363.929149148216" r="2" style="fill: rgb(0,0,0)" />
	<circle cx="470.726843527153" cy="-446.02049207449" r="2" style="fill: rgb(0,0,0)" />
	<circle cx="373.565322743354" cy="-541.773055668896" r="2" style="fill: rgb(0,0,0)" />
	<circle cx="306.367504435052" cy="-562.115182594331" r="2" style="fill: rgb(0,0,0)" />
	<circle cx="159.119471351006" cy="-498.109766301757" r="2" style="fill: rgb(0,0,0)" />
	<circle cx="91.9216530427055" cy="-477.767639376364" r="2" style="fill: rgb(0,0,0)" />
	<circle cx="72.9549097725127" cy="-325.606952356956" r="2" style="fill: rgb(0,0,0)" />
	<circle cx="133.102826985089" cy="-289.391251780631" r="2" style="fill: rgb(0,0,0)" />
	<circle cx="193.471256459324" cy="-621.757902380224" r="2" style="fill: rgb(0,0,0)" />
	<circle cx="135.764645448055" cy="-551.688558287151" r="2" style="fill: rgb(0,0,0)" />
	<circle cx="306.367504435018" cy="-202.937212347591" r="2" style="fill: rgb(0,0,0)" />
	<circle cx="373.565322743318" cy="-223.279339272992" r="2" style="fill: rgb(0,0,0)" />
	<circle cx="135.764645448013" cy="-213.363836654827" r="2" style="fill: rgb(0,0,0)" />
	<circle cx="193.471256459247" cy="-143.29449256173" r="2" style="fill: rgb(0,0,0)" />
	<circle cx="484.020264517776" cy="-535.814984636172" r="2" style="fill: rgb(0,0,0)" />
	<circle cx="413.810942392824" cy="-535.814984636195" r="2" style="fill: rgb(0,0,0)" />
	<circle cx="499.184794094318" cy="-343.587022222777" r="2" style="fill: rgb(0,0,0)" />
	<circle cx="546.259802577904" cy="-395.676296449941" r="2" style="fill: rgb(0,0,0)" />
	<circle cx="420.64033122695" cy="-593.862329896084" r="2" style="fill: rgb(0,0,0)" />
	<circle cx="345.107372176204" cy="-644.206525520622" r="2" style="fill: rgb(0,0,0)" />
	<circle cx="33.5" cy="-438.828464128245" r="2" style="fill: rgb(0,0,0)" />
	<circle cx="43.7819171739139" cy="-369.376098491973" r="2" style="fill: rgb(0,0,0)" />
	<circle cx="115.706422169417" cy="-668.58093606993" r="2" style="fill: rgb(0,0,0)" />
	<circle cx="88.6896369644786" cy="-603.77783251437" r="2" style="fill: rgb(0,0,0)" />
	<circle cx="345.107372176128" cy="-120.845869421282" r="2" style="fill: rgb(0,0,0)" />
	<circle cx="420.640331226885" cy="-171.190065045771" r="2" style="fill: rgb(0,0,0)" />
	<circle cx="88.6896369644096" cy="-161.274562427643" r="2" style="fill: rgb(0,0,0)" />
	<circle cx="115.706422169304" cy="-96.47145887207" r="2" style="fill: rgb(0,0,0)" />
	<circle cx="561.5" cy="-446.020492074458" r="2" style="fill: rgb(0,0,0)" />
	<circle cx="551.218082826082" cy="-515.472857710723" r="2" style="fill: rgb(0,0,0)" />
	<circle cx="450.604033702482" cy="-657.356624499647" r="2" style="fill: rgb(0,0,0)" />
	<circle cx="405.970331420252" cy="-711.552394941863" r="2" style="fill: rgb(0,0,0)" />
	<circle cx="405.970331420119" cy="-53.5" r="2" style="fill: rgb(0,0,0)" />
	<circle cx="450.604033702377" cy="-107.695770442182" r="2" style="fill: rgb(0,0,0)" />
	<!--
	Generated using the Perl SVG Module V2.86
	by Ronan Oger
	Info: http://www.roitsystems.com/
	-->
</svg>