<?xml version="1.0" encoding="UTF-8" standalone="yes"?>
<!DOCTYPE svg PUBLIC "-//W3C//DTD SVG 1.0//EN" "http://www.w3.org/TR/2001/REC-SVG-20010904/DTD/svg10.dtd">
<!-- generated using polymake; Michael Joswig, Georg Loho, Benjamin Lorenz, Rico Raber; license CC BY-NC-ND 3.0; see polymake.org and matchthenet.de -->
<svg height="841pt" id="document" viewBox="0 -723.058732735351 572 723.058732735351" width="595pt" xmlns="http://www.w3.org/2000/svg" xmlns:svg="http://www.w3.org/2000/svg" xmlns:xlink="http://www.w3.org/1999/xlink">
	<title id="document_title">planar_net_</title>
	<polygon points="245.637242844915,-372.043148219485 292.223154861174,-372.043148219485 306.618993372655,-416.348983410102 268.93019885305,-443.731495457856 231.241404333441,-416.348983410105 " style="fill: rgb(14,173,105); fill-opacity: 1; stroke: rgb(0,0,0); stroke-width: 3" />
	<polygon points="292.223154861167,-325.457236203219 292.223154861174,-372.043148219485 245.637242844915,-372.043148219485 245.637242844914,-325.457236203225 " style="fill: rgb(14,173,105); fill-opacity: 1; stroke: rgb(0,0,0); stroke-width: 3" />
	<polygon points="292.223154861167,-325.457236203219 245.637242844914,-325.457236203225 231.241404333433,-281.151401012608 268.930198853032,-253.768888964848 306.618993372638,-281.151401012596 " style="fill: rgb(14,173,105); fill-opacity: 1; stroke: rgb(0,0,0); stroke-width: 3" />
	<polygon points="201.331407654297,-339.853074714707 186.935569142813,-295.547239524098 231.241404333433,-281.151401012608 245.637242844914,-325.457236203225 " style="fill: rgb(14,173,105); fill-opacity: 1; stroke: rgb(0,0,0); stroke-width: 3" />
	<polygon points="201.331407654289,-357.647309708016 186.935569142821,-401.953144898632 140.349657126561,-401.953144898644 125.953818615064,-357.647309708038 163.642613134667,-330.264797660279 " style="fill: rgb(14,173,105); fill-opacity: 1; stroke: rgb(0,0,0); stroke-width: 3" />
	<polygon points="268.930198853032,-253.768888964848 231.241404333433,-281.151401012608 203.858892285668,-243.462606493005 241.54768680526,-216.080094445244 " style="fill: rgb(14,173,105); fill-opacity: 1; stroke: rgb(0,0,0); stroke-width: 3" />
	<polygon points="245.637242844915,-372.043148219485 205.292659580368,-348.750192211357 245.637242844914,-325.457236203225 " style="fill: rgb(14,173,105); fill-opacity: 1; stroke: rgb(0,0,0); stroke-width: 3" />
	<polygon points="231.241404333441,-416.348983410105 268.93019885305,-443.731495457856 241.547686805299,-481.420289977469 203.858892285691,-454.037777929724 " style="fill: rgb(14,173,105); fill-opacity: 1; stroke: rgb(0,0,0); stroke-width: 3" />
	<polygon points="163.642613134667,-330.264797660279 125.953818615064,-357.647309708038 98.5713065673016,-319.958515188434 136.260101086897,-292.576003140674 " style="fill: rgb(14,173,105); fill-opacity: 1; stroke: rgb(0,0,0); stroke-width: 3" />
	<polygon points="245.637242844915,-372.043148219485 231.241404333441,-416.348983410105 186.935569142821,-401.953144898632 201.331407654289,-357.647309708016 " style="fill: rgb(14,173,105); fill-opacity: 1; stroke: rgb(0,0,0); stroke-width: 3" />
	<polygon points="306.618993372655,-416.348983410102 292.223154861174,-372.043148219485 336.528990051791,-357.647309708002 350.924828563275,-401.953144898612 " style="fill: rgb(14,173,105); fill-opacity: 1; stroke: rgb(0,0,0); stroke-width: 3" />
	<polygon points="350.924828563275,-401.953144898612 336.528990051791,-357.647309708002 374.217784571398,-330.264797660245 411.906579091011,-357.647309707982 397.510740579535,-401.953144898597 " style="fill: rgb(14,173,105); fill-opacity: 1; stroke: rgb(0,0,0); stroke-width: 3" />
	<polygon points="186.935569142813,-295.547239524098 196.621324878392,-249.979341457396 231.241404333433,-281.151401012608 " style="fill: rgb(14,173,105); fill-opacity: 1; stroke: rgb(0,0,0); stroke-width: 3" />
	<polygon points="203.858892285668,-243.462606493005 166.170097766047,-216.080094445268 180.565936277498,-171.774259254652 227.151848293752,-171.774259254638 241.54768680526,-216.080094445244 " style="fill: rgb(14,173,105); fill-opacity: 1; stroke: rgb(0,0,0); stroke-width: 3" />
	<polygon points="271.45768348436,-157.378420743127 285.853521995872,-201.684255933728 241.54768680526,-216.080094445244 227.151848293752,-171.774259254638 " style="fill: rgb(14,173,105); fill-opacity: 1; stroke: rgb(0,0,0); stroke-width: 3" />
	<polygon points="332.567738125718,-348.750192211342 292.223154861174,-372.043148219485 292.223154861167,-325.457236203219 " style="fill: rgb(14,173,105); fill-opacity: 1; stroke: rgb(0,0,0); stroke-width: 3" />
	<polygon points="306.618993372638,-281.151401012596 268.930198853032,-253.768888964848 296.312710900783,-216.080094445235 334.001505420388,-243.462606492977 " style="fill: rgb(14,173,105); fill-opacity: 1; stroke: rgb(0,0,0); stroke-width: 3" />
	<polygon points="140.221353012949,-148.481303246522 180.565936277496,-125.18834723839 180.565936277498,-171.774259254652 " style="fill: rgb(14,173,105); fill-opacity: 1; stroke: rgb(0,0,0); stroke-width: 3" />
	<polygon points="121.86426257547,-495.81612848898 136.260101086955,-540.121963679587 98.5713065673496,-567.504475727346 60.8825120477361,-540.121963679613 75.2783505592103,-495.816128488999 " style="fill: rgb(14,173,105); fill-opacity: 1; stroke: rgb(0,0,0); stroke-width: 3" />
	<polygon points="336.528990051795,-339.853074714684 292.223154861167,-325.457236203219 306.618993372638,-281.151401012596 350.92482856326,-295.547239524065 " style="fill: rgb(14,173,105); fill-opacity: 1; stroke: rgb(0,0,0); stroke-width: 3" />
	<polygon points="203.858892285691,-454.037777929724 161.300543973102,-472.985975397852 142.352346504974,-430.427627085271 184.910694817566,-411.479429617136 " style="fill: rgb(14,173,105); fill-opacity: 1; stroke: rgb(0,0,0); stroke-width: 3" />
	<polygon points="268.93019885305,-443.731495457856 287.87839632117,-486.289843770447 241.547686805299,-481.420289977469 " style="fill: rgb(14,173,105); fill-opacity: 1; stroke: rgb(0,0,0); stroke-width: 3" />
	<polygon points="350.924828563275,-401.953144898612 397.510740579535,-401.953144898597 397.510740579538,-448.539056914857 350.924828563283,-448.539056914878 " style="fill: rgb(14,173,105); fill-opacity: 1; stroke: rgb(0,0,0); stroke-width: 3" />
	<polygon points="268.930198853032,-253.768888964848 241.54768680526,-216.080094445244 287.878396321128,-211.210540652242 " style="fill: rgb(14,173,105); fill-opacity: 1; stroke: rgb(0,0,0); stroke-width: 3" />
	<polygon points="268.930198853082,-654.306666894561 231.241404333496,-681.689178942333 203.858892285713,-644.000384422738 241.547686805307,-616.617872374965 " style="fill: rgb(14,173,105); fill-opacity: 1; stroke: rgb(0,0,0); stroke-width: 3" />
	<polygon points="125.953818615064,-357.647309708038 140.349657126561,-401.953144898644 96.0438219359492,-416.348983410144 81.6479834244499,-372.043148219545 " style="fill: rgb(14,173,105); fill-opacity: 1; stroke: rgb(0,0,0); stroke-width: 3" />
	<polygon points="371.690299939987,-216.080094445211 334.001505420388,-243.462606492977 296.312710900783,-216.080094445235 310.708549412258,-171.774259254616 357.294461428507,-171.7742592546 " style="fill: rgb(14,173,105); fill-opacity: 1; stroke: rgb(0,0,0); stroke-width: 3" />
	<polygon points="231.241404333441,-416.348983410105 203.858892285691,-454.037777929724 184.910694817566,-411.479429617136 " style="fill: rgb(14,173,105); fill-opacity: 1; stroke: rgb(0,0,0); stroke-width: 3" />
	<polygon points="352.949702888513,-286.020954805564 306.618993372638,-281.151401012596 334.001505420388,-243.462606492977 " style="fill: rgb(14,173,105); fill-opacity: 1; stroke: rgb(0,0,0); stroke-width: 3" />
	<polygon points="296.312710900816,-481.420289977464 334.001505420414,-454.037777929709 371.690299940031,-481.420289977452 357.294461428571,-525.726125168067 310.708549412316,-525.726125168074 " style="fill: rgb(14,173,105); fill-opacity: 1; stroke: rgb(0,0,0); stroke-width: 3" />
	<polygon points="125.953818615064,-357.647309708038 79.6231090991951,-362.516863501032 98.5713065673016,-319.958515188434 " style="fill: rgb(14,173,105); fill-opacity: 1; stroke: rgb(0,0,0); stroke-width: 3" />
	<polygon points="411.906579091011,-357.647309707982 374.217784571398,-330.264797660245 401.600296619138,-292.576003140624 439.28909113875,-319.958515188354 " style="fill: rgb(14,173,105); fill-opacity: 1; stroke: rgb(0,0,0); stroke-width: 3" />
	<polygon points="397.510740579535,-401.953144898597 411.906579091011,-357.647309707982 456.212414281631,-372.043148219457 441.816575770161,-416.348983410068 " style="fill: rgb(14,173,105); fill-opacity: 1; stroke: rgb(0,0,0); stroke-width: 3" />
	<polygon points="227.151848293752,-171.774259254638 180.565936277498,-171.774259254652 180.565936277496,-125.18834723839 227.151848293745,-125.188347238372 " style="fill: rgb(14,173,105); fill-opacity: 1; stroke: rgb(0,0,0); stroke-width: 3" />
	<polygon points="121.86426257542,-201.684255933815 136.260101086865,-157.378420743203 180.565936277498,-171.774259254652 166.170097766047,-216.080094445268 " style="fill: rgb(14,173,105); fill-opacity: 1; stroke: rgb(0,0,0); stroke-width: 3" />
	<polygon points="203.858892285691,-454.037777929724 241.547686805299,-481.420289977469 227.151848293824,-525.726125168087 180.565936277571,-525.7261251681 166.170097766089,-481.420289977488 " style="fill: rgb(14,173,105); fill-opacity: 1; stroke: rgb(0,0,0); stroke-width: 3" />
	<polygon points="268.93019885305,-443.731495457856 306.618993372655,-416.348983410102 334.001505420414,-454.037777929709 296.312710900816,-481.420289977464 " style="fill: rgb(14,173,105); fill-opacity: 1; stroke: rgb(0,0,0); stroke-width: 3" />
	<polygon points="161.300543973102,-472.985975397852 114.96983445723,-468.116421604883 142.352346504974,-430.427627085271 " style="fill: rgb(14,173,105); fill-opacity: 1; stroke: rgb(0,0,0); stroke-width: 3" />
	<polygon points="166.170097766089,-481.420289977488 180.565936277571,-525.7261251681 136.260101086955,-540.121963679587 121.86426257547,-495.81612848898 " style="fill: rgb(14,173,105); fill-opacity: 1; stroke: rgb(0,0,0); stroke-width: 3" />
	<polygon points="60.8825120477361,-540.121963679613 98.5713065673496,-567.504475727346 71.1887945196117,-605.193270246969 33.5,-577.810758199243 " style="fill: rgb(14,173,105); fill-opacity: 1; stroke: rgb(0,0,0); stroke-width: 3" />
	<polygon points="357.294461428507,-171.7742592546 310.708549412258,-171.774259254616 310.708549412257,-125.188347238355 357.2944614285,-125.188347238334 " style="fill: rgb(14,173,105); fill-opacity: 1; stroke: rgb(0,0,0); stroke-width: 3" />
	<polygon points="306.618993372655,-416.348983410102 350.924828563275,-401.953144898612 341.239072827696,-447.521042965313 " style="fill: rgb(14,173,105); fill-opacity: 1; stroke: rgb(0,0,0); stroke-width: 3" />
	<polygon points="283.008842528193,-532.62055328632 255.626330480448,-570.309347805935 236.678133012327,-527.750999493346 " style="fill: rgb(14,173,105); fill-opacity: 1; stroke: rgb(0,0,0); stroke-width: 3" />
	<polygon points="287.87839632117,-486.289843770447 283.008842528193,-532.62055328632 236.678133012327,-527.750999493346 241.547686805299,-481.420289977469 " style="fill: rgb(14,173,105); fill-opacity: 1; stroke: rgb(0,0,0); stroke-width: 3" />
	<polygon points="397.510740579535,-401.953144898597 437.855323844085,-425.246100906724 397.510740579538,-448.539056914857 " style="fill: rgb(14,173,105); fill-opacity: 1; stroke: rgb(0,0,0); stroke-width: 3" />
	<polygon points="271.45768348436,-157.378420743127 227.151848293752,-171.774259254638 236.837604029309,-126.206361187929 " style="fill: rgb(14,173,105); fill-opacity: 1; stroke: rgb(0,0,0); stroke-width: 3" />
	<polygon points="357.294461428571,-525.726125168067 371.690299940031,-481.420289977452 415.996135130655,-495.816128488913 401.600296619202,-540.121963679524 " style="fill: rgb(14,173,105); fill-opacity: 1; stroke: rgb(0,0,0); stroke-width: 3" />
	<polygon points="441.816575770161,-416.348983410068 456.212414281631,-372.043148219457 502.798326297891,-372.043148219448 517.194164809385,-416.34898341005 479.505370289782,-443.731495457804 " style="fill: rgb(14,173,105); fill-opacity: 1; stroke: rgb(0,0,0); stroke-width: 3" />
	<polygon points="241.547686805214,-80.8825120477412 227.151848293745,-125.188347238372 180.565936277496,-125.18834723839 166.170097766015,-80.8825120477732 203.85889228561,-53.5 " style="fill: rgb(14,173,105); fill-opacity: 1; stroke: rgb(0,0,0); stroke-width: 3" />
	<polygon points="371.690299939987,-216.080094445211 357.294461428507,-171.7742592546 401.600296619124,-157.378420743116 415.996135130607,-201.684255933721 " style="fill: rgb(14,173,105); fill-opacity: 1; stroke: rgb(0,0,0); stroke-width: 3" />
	<polygon points="411.906579091011,-357.647309707982 439.28909113875,-319.958515188354 458.237288606888,-362.516863500936 " style="fill: rgb(14,173,105); fill-opacity: 1; stroke: rgb(0,0,0); stroke-width: 3" />
	<polygon points="163.642613134716,-577.810758199192 125.953818615119,-605.193270246952 98.5713065673496,-567.504475727346 136.260101086955,-540.121963679587 " style="fill: rgb(14,173,105); fill-opacity: 1; stroke: rgb(0,0,0); stroke-width: 3" />
	<polygon points="357.294461428507,-171.7742592546 357.2944614285,-125.188347238334 397.639044693051,-148.481303246455 " style="fill: rgb(14,173,105); fill-opacity: 1; stroke: rgb(0,0,0); stroke-width: 3" />
	<polygon points="517.194164809385,-416.34898341005 502.798326297891,-372.043148219448 547.104161488503,-357.647309707948 561.5,-401.953144898544 " style="fill: rgb(14,173,105); fill-opacity: 1; stroke: rgb(0,0,0); stroke-width: 3" />
	<polygon points="310.708549412316,-525.726125168074 357.294461428571,-525.726125168067 357.294461428574,-572.312037184328 310.708549412323,-572.31203718434 " style="fill: rgb(14,173,105); fill-opacity: 1; stroke: rgb(0,0,0); stroke-width: 3" />
	<polygon points="180.565936277571,-525.7261251681 227.151848293824,-525.726125168087 227.151848293826,-572.312037184349 180.565936277579,-572.312037184367 " style="fill: rgb(14,173,105); fill-opacity: 1; stroke: rgb(0,0,0); stroke-width: 3" />
	<polygon points="180.565936277571,-525.7261251681 170.880180541988,-571.294023234803 136.260101086955,-540.121963679587 " style="fill: rgb(14,173,105); fill-opacity: 1; stroke: rgb(0,0,0); stroke-width: 3" />
	<polygon points="166.170097766111,-616.617872374997 203.858892285713,-644.000384422738 176.476380237965,-681.689178942353 138.787585718364,-654.306666894619 " style="fill: rgb(14,173,105); fill-opacity: 1; stroke: rgb(0,0,0); stroke-width: 3" />
	<polygon points="231.241404333496,-681.689178942333 184.91069481763,-686.558732735351 203.858892285713,-644.000384422738 " style="fill: rgb(14,173,105); fill-opacity: 1; stroke: rgb(0,0,0); stroke-width: 3" />
	<polygon points="117.519504035484,-610.062824039931 71.1887945196117,-605.193270246969 98.5713065673496,-567.504475727346 " style="fill: rgb(14,173,105); fill-opacity: 1; stroke: rgb(0,0,0); stroke-width: 3" />
	<polygon points="227.151848293826,-572.312037184349 241.547686805307,-616.617872374965 203.858892285713,-644.000384422738 166.170097766111,-616.617872374997 180.565936277579,-572.312037184367 " style="fill: rgb(14,173,105); fill-opacity: 1; stroke: rgb(0,0,0); stroke-width: 3" />
	<polygon points="357.294461428571,-525.726125168067 401.600296619202,-540.121963679524 366.980217164193,-571.294023234765 " style="fill: rgb(14,173,105); fill-opacity: 1; stroke: rgb(0,0,0); stroke-width: 3" />
	<circle cx="245.637242844915" cy="-372.043148219485" r="2" style="fill: rgb(0,0,0)" />
	<circle cx="292.223154861174" cy="-372.043148219485" r="2" style="fill: rgb(0,0,0)" />
	<circle cx="306.618993372655" cy="-416.348983410102" r="2" style="fill: rgb(0,0,0)" />
	<circle cx="268.93019885305" cy="-443.731495457856" r="2" style="fill: rgb(0,0,0)" />
	<circle cx="231.241404333441" cy="-416.348983410105" r="2" style="fill: rgb(0,0,0)" />
	<circle cx="245.637242844914" cy="-325.457236203225" r="2" style="fill: rgb(0,0,0)" />
	<circle cx="292.223154861167" cy="-325.457236203219" r="2" style="fill: rgb(0,0,0)" />
	<circle cx="241.547686805299" cy="-481.420289977469" r="2" style="fill: rgb(0,0,0)" />
	<circle cx="203.858892285691" cy="-454.037777929724" r="2" style="fill: rgb(0,0,0)" />
	<circle cx="186.935569142821" cy="-401.953144898632" r="2" style="fill: rgb(0,0,0)" />
	<circle cx="201.331407654289" cy="-357.647309708016" r="2" style="fill: rgb(0,0,0)" />
	<circle cx="336.528990051791" cy="-357.647309708002" r="2" style="fill: rgb(0,0,0)" />
	<circle cx="350.924828563275" cy="-401.953144898612" r="2" style="fill: rgb(0,0,0)" />
	<circle cx="334.001505420414" cy="-454.037777929709" r="2" style="fill: rgb(0,0,0)" />
	<circle cx="296.312710900816" cy="-481.420289977464" r="2" style="fill: rgb(0,0,0)" />
	<circle cx="231.241404333433" cy="-281.151401012608" r="2" style="fill: rgb(0,0,0)" />
	<circle cx="268.930198853032" cy="-253.768888964848" r="2" style="fill: rgb(0,0,0)" />
	<circle cx="306.618993372638" cy="-281.151401012596" r="2" style="fill: rgb(0,0,0)" />
	<circle cx="205.292659580368" cy="-348.750192211357" r="2" style="fill: rgb(0,0,0)" />
	<circle cx="332.567738125718" cy="-348.750192211342" r="2" style="fill: rgb(0,0,0)" />
	<circle cx="287.87839632117" cy="-486.289843770447" r="2" style="fill: rgb(0,0,0)" />
	<circle cx="184.910694817566" cy="-411.479429617136" r="2" style="fill: rgb(0,0,0)" />
	<circle cx="227.151848293824" cy="-525.726125168087" r="2" style="fill: rgb(0,0,0)" />
	<circle cx="180.565936277571" cy="-525.7261251681" r="2" style="fill: rgb(0,0,0)" />
	<circle cx="166.170097766089" cy="-481.420289977488" r="2" style="fill: rgb(0,0,0)" />
	<circle cx="140.349657126561" cy="-401.953144898644" r="2" style="fill: rgb(0,0,0)" />
	<circle cx="125.953818615064" cy="-357.647309708038" r="2" style="fill: rgb(0,0,0)" />
	<circle cx="163.642613134667" cy="-330.264797660279" r="2" style="fill: rgb(0,0,0)" />
	<circle cx="374.217784571398" cy="-330.264797660245" r="2" style="fill: rgb(0,0,0)" />
	<circle cx="411.906579091011" cy="-357.647309707982" r="2" style="fill: rgb(0,0,0)" />
	<circle cx="397.510740579535" cy="-401.953144898597" r="2" style="fill: rgb(0,0,0)" />
	<circle cx="341.239072827696" cy="-447.521042965313" r="2" style="fill: rgb(0,0,0)" />
	<circle cx="371.690299940031" cy="-481.420289977452" r="2" style="fill: rgb(0,0,0)" />
	<circle cx="357.294461428571" cy="-525.726125168067" r="2" style="fill: rgb(0,0,0)" />
	<circle cx="310.708549412316" cy="-525.726125168074" r="2" style="fill: rgb(0,0,0)" />
	<circle cx="201.331407654297" cy="-339.853074714707" r="2" style="fill: rgb(0,0,0)" />
	<circle cx="186.935569142813" cy="-295.547239524098" r="2" style="fill: rgb(0,0,0)" />
	<circle cx="203.858892285668" cy="-243.462606493005" r="2" style="fill: rgb(0,0,0)" />
	<circle cx="241.54768680526" cy="-216.080094445244" r="2" style="fill: rgb(0,0,0)" />
	<circle cx="296.312710900783" cy="-216.080094445235" r="2" style="fill: rgb(0,0,0)" />
	<circle cx="334.001505420388" cy="-243.462606492977" r="2" style="fill: rgb(0,0,0)" />
	<circle cx="350.92482856326" cy="-295.547239524065" r="2" style="fill: rgb(0,0,0)" />
	<circle cx="336.528990051795" cy="-339.853074714684" r="2" style="fill: rgb(0,0,0)" />
	<circle cx="283.008842528193" cy="-532.62055328632" r="2" style="fill: rgb(0,0,0)" />
	<circle cx="236.678133012327" cy="-527.750999493346" r="2" style="fill: rgb(0,0,0)" />
	<circle cx="161.300543973102" cy="-472.985975397852" r="2" style="fill: rgb(0,0,0)" />
	<circle cx="142.352346504974" cy="-430.427627085271" r="2" style="fill: rgb(0,0,0)" />
	<circle cx="136.260101086955" cy="-540.121963679587" r="2" style="fill: rgb(0,0,0)" />
	<circle cx="121.86426257547" cy="-495.81612848898" r="2" style="fill: rgb(0,0,0)" />
	<circle cx="227.151848293826" cy="-572.312037184349" r="2" style="fill: rgb(0,0,0)" />
	<circle cx="180.565936277579" cy="-572.312037184367" r="2" style="fill: rgb(0,0,0)" />
	<circle cx="98.5713065673016" cy="-319.958515188434" r="2" style="fill: rgb(0,0,0)" />
	<circle cx="136.260101086897" cy="-292.576003140674" r="2" style="fill: rgb(0,0,0)" />
	<circle cx="96.0438219359492" cy="-416.348983410144" r="2" style="fill: rgb(0,0,0)" />
	<circle cx="81.6479834244499" cy="-372.043148219545" r="2" style="fill: rgb(0,0,0)" />
	<circle cx="397.510740579538" cy="-448.539056914857" r="2" style="fill: rgb(0,0,0)" />
	<circle cx="350.924828563283" cy="-448.539056914878" r="2" style="fill: rgb(0,0,0)" />
	<circle cx="401.600296619138" cy="-292.576003140624" r="2" style="fill: rgb(0,0,0)" />
	<circle cx="439.28909113875" cy="-319.958515188354" r="2" style="fill: rgb(0,0,0)" />
	<circle cx="456.212414281631" cy="-372.043148219457" r="2" style="fill: rgb(0,0,0)" />
	<circle cx="441.816575770161" cy="-416.348983410068" r="2" style="fill: rgb(0,0,0)" />
	<circle cx="415.996135130655" cy="-495.816128488913" r="2" style="fill: rgb(0,0,0)" />
	<circle cx="401.600296619202" cy="-540.121963679524" r="2" style="fill: rgb(0,0,0)" />
	<circle cx="357.294461428574" cy="-572.312037184328" r="2" style="fill: rgb(0,0,0)" />
	<circle cx="310.708549412323" cy="-572.31203718434" r="2" style="fill: rgb(0,0,0)" />
	<circle cx="196.621324878392" cy="-249.979341457396" r="2" style="fill: rgb(0,0,0)" />
	<circle cx="166.170097766047" cy="-216.080094445268" r="2" style="fill: rgb(0,0,0)" />
	<circle cx="180.565936277498" cy="-171.774259254652" r="2" style="fill: rgb(0,0,0)" />
	<circle cx="227.151848293752" cy="-171.774259254638" r="2" style="fill: rgb(0,0,0)" />
	<circle cx="287.878396321128" cy="-211.210540652242" r="2" style="fill: rgb(0,0,0)" />
	<circle cx="310.708549412258" cy="-171.774259254616" r="2" style="fill: rgb(0,0,0)" />
	<circle cx="357.294461428507" cy="-171.7742592546" r="2" style="fill: rgb(0,0,0)" />
	<circle cx="371.690299939987" cy="-216.080094445211" r="2" style="fill: rgb(0,0,0)" />
	<circle cx="352.949702888513" cy="-286.020954805564" r="2" style="fill: rgb(0,0,0)" />
	<circle cx="255.626330480448" cy="-570.309347805935" r="2" style="fill: rgb(0,0,0)" />
	<circle cx="114.96983445723" cy="-468.116421604883" r="2" style="fill: rgb(0,0,0)" />
	<circle cx="98.5713065673496" cy="-567.504475727346" r="2" style="fill: rgb(0,0,0)" />
	<circle cx="60.8825120477361" cy="-540.121963679613" r="2" style="fill: rgb(0,0,0)" />
	<circle cx="75.2783505592103" cy="-495.816128488999" r="2" style="fill: rgb(0,0,0)" />
	<circle cx="170.880180541988" cy="-571.294023234803" r="2" style="fill: rgb(0,0,0)" />
	<circle cx="241.547686805307" cy="-616.617872374965" r="2" style="fill: rgb(0,0,0)" />
	<circle cx="203.858892285713" cy="-644.000384422738" r="2" style="fill: rgb(0,0,0)" />
	<circle cx="166.170097766111" cy="-616.617872374997" r="2" style="fill: rgb(0,0,0)" />
	<circle cx="79.6231090991951" cy="-362.516863501032" r="2" style="fill: rgb(0,0,0)" />
	<circle cx="437.855323844085" cy="-425.246100906724" r="2" style="fill: rgb(0,0,0)" />
	<circle cx="458.237288606888" cy="-362.516863500936" r="2" style="fill: rgb(0,0,0)" />
	<circle cx="502.798326297891" cy="-372.043148219448" r="2" style="fill: rgb(0,0,0)" />
	<circle cx="517.194164809385" cy="-416.34898341005" r="2" style="fill: rgb(0,0,0)" />
	<circle cx="479.505370289782" cy="-443.731495457804" r="2" style="fill: rgb(0,0,0)" />
	<circle cx="366.980217164193" cy="-571.294023234765" r="2" style="fill: rgb(0,0,0)" />
	<circle cx="271.45768348436" cy="-157.378420743127" r="2" style="fill: rgb(0,0,0)" />
	<circle cx="285.853521995872" cy="-201.684255933728" r="2" style="fill: rgb(0,0,0)" />
	<circle cx="180.565936277496" cy="-125.18834723839" r="2" style="fill: rgb(0,0,0)" />
	<circle cx="227.151848293745" cy="-125.188347238372" r="2" style="fill: rgb(0,0,0)" />
	<circle cx="121.86426257542" cy="-201.684255933815" r="2" style="fill: rgb(0,0,0)" />
	<circle cx="136.260101086865" cy="-157.378420743203" r="2" style="fill: rgb(0,0,0)" />
	<circle cx="310.708549412257" cy="-125.188347238355" r="2" style="fill: rgb(0,0,0)" />
	<circle cx="357.2944614285" cy="-125.188347238334" r="2" style="fill: rgb(0,0,0)" />
	<circle cx="401.600296619124" cy="-157.378420743116" r="2" style="fill: rgb(0,0,0)" />
	<circle cx="415.996135130607" cy="-201.684255933721" r="2" style="fill: rgb(0,0,0)" />
	<circle cx="71.1887945196117" cy="-605.193270246969" r="2" style="fill: rgb(0,0,0)" />
	<circle cx="33.5" cy="-577.810758199243" r="2" style="fill: rgb(0,0,0)" />
	<circle cx="163.642613134716" cy="-577.810758199192" r="2" style="fill: rgb(0,0,0)" />
	<circle cx="125.953818615119" cy="-605.193270246952" r="2" style="fill: rgb(0,0,0)" />
	<circle cx="268.930198853082" cy="-654.306666894561" r="2" style="fill: rgb(0,0,0)" />
	<circle cx="231.241404333496" cy="-681.689178942333" r="2" style="fill: rgb(0,0,0)" />
	<circle cx="176.476380237965" cy="-681.689178942353" r="2" style="fill: rgb(0,0,0)" />
	<circle cx="138.787585718364" cy="-654.306666894619" r="2" style="fill: rgb(0,0,0)" />
	<circle cx="547.104161488503" cy="-357.647309707948" r="2" style="fill: rgb(0,0,0)" />
	<circle cx="561.5" cy="-401.953144898544" r="2" style="fill: rgb(0,0,0)" />
	<circle cx="236.837604029309" cy="-126.206361187929" r="2" style="fill: rgb(0,0,0)" />
	<circle cx="140.221353012949" cy="-148.481303246522" r="2" style="fill: rgb(0,0,0)" />
	<circle cx="166.170097766015" cy="-80.8825120477732" r="2" style="fill: rgb(0,0,0)" />
	<circle cx="203.85889228561" cy="-53.5" r="2" style="fill: rgb(0,0,0)" />
	<circle cx="241.547686805214" cy="-80.8825120477412" r="2" style="fill: rgb(0,0,0)" />
	<circle cx="397.639044693051" cy="-148.481303246455" r="2" style="fill: rgb(0,0,0)" />
	<circle cx="117.519504035484" cy="-610.062824039931" r="2" style="fill: rgb(0,0,0)" />
	<circle cx="184.91069481763" cy="-686.558732735351" r="2" style="fill: rgb(0,0,0)" />
	<!--
	Generated using the Perl SVG Module V2.87
	by Ronan Oger

	-->
</svg>