<?xml version="1.0" encoding="UTF-8" standalone="yes"?>
<!DOCTYPE svg PUBLIC "-//W3C//DTD SVG 1.0//EN" "http://www.w3.org/TR/2001/REC-SVG-20010904/DTD/svg10.dtd">
<!-- generated using polymake; Michael Joswig, Georg Loho, Benjamin Lorenz, Rico Raber; license CC BY-NC-ND 3.0; see polymake.org and matchthenet.de -->
<svg height="841pt" id="document" viewBox="0 -529.161597541099 572 529.161597541099" width="595pt" xmlns="http://www.w3.org/2000/svg" xmlns:svg="http://www.w3.org/2000/svg" xmlns:xlink="http://www.w3.org/1999/xlink">
	<title id="document_title">planar_net_</title>
	<polygon points="235.759190984111,-196.53358934481 324.59759344299,-196.53358934481 324.597593442996,-344.597593442947 176.533589344879,-344.597593442975 176.533589344872,-255.759190984087 " style="fill: rgb(14,173,105); fill-opacity: 1; stroke: rgb(0,0,0); stroke-width: 3" />
	<polygon points="472.661597541116,-344.59759344289 472.66159754112,-255.75919098402 561.5,-344.597593442908 " style="fill: rgb(14,173,105); fill-opacity: 1; stroke: rgb(0,0,0); stroke-width: 3" />
	<polygon points="324.597593442992,-107.695186885928 324.59759344299,-196.53358934481 235.759190984111,-196.53358934481 " style="fill: rgb(14,173,105); fill-opacity: 1; stroke: rgb(0,0,0); stroke-width: 3" />
	<polygon points="324.597593442996,-344.597593442947 324.59759344299,-196.53358934481 413.43599590187,-196.533589344795 472.66159754112,-255.75919098402 472.661597541116,-344.59759344289 " style="fill: rgb(14,173,105); fill-opacity: 1; stroke: rgb(0,0,0); stroke-width: 3" />
	<polygon points="176.533589344872,-255.759190984087 176.533589344879,-344.597593442975 87.6951868859941,-344.597593442988 " style="fill: rgb(14,173,105); fill-opacity: 1; stroke: rgb(0,0,0); stroke-width: 3" />
	<polygon points="176.533589344879,-344.597593442975 324.597593442996,-344.597593442947 324.597593442997,-492.661597541087 235.759190984126,-492.661597541099 176.533589344878,-433.43599590185 " style="fill: rgb(14,173,105); fill-opacity: 1; stroke: rgb(0,0,0); stroke-width: 3" />
	<polygon points="235.759190984111,-196.53358934481 176.533589344872,-255.759190984087 55.1780747544047,-223.24207885255 33.5,-142.338402458916 122.33840245886,-53.5 203.242078852505,-75.1780747543574 " style="fill: rgb(14,173,105); fill-opacity: 1; stroke: rgb(0,0,0); stroke-width: 3" />
	<circle cx="235.759190984111" cy="-196.53358934481" r="2" style="fill: rgb(0,0,0)" />
	<circle cx="324.59759344299" cy="-196.53358934481" r="2" style="fill: rgb(0,0,0)" />
	<circle cx="324.597593442996" cy="-344.597593442947" r="2" style="fill: rgb(0,0,0)" />
	<circle cx="176.533589344879" cy="-344.597593442975" r="2" style="fill: rgb(0,0,0)" />
	<circle cx="176.533589344872" cy="-255.759190984087" r="2" style="fill: rgb(0,0,0)" />
	<circle cx="324.597593442992" cy="-107.695186885928" r="2" style="fill: rgb(0,0,0)" />
	<circle cx="413.43599590187" cy="-196.533589344795" r="2" style="fill: rgb(0,0,0)" />
	<circle cx="472.66159754112" cy="-255.75919098402" r="2" style="fill: rgb(0,0,0)" />
	<circle cx="472.661597541116" cy="-344.59759344289" r="2" style="fill: rgb(0,0,0)" />
	<circle cx="87.6951868859941" cy="-344.597593442988" r="2" style="fill: rgb(0,0,0)" />
	<circle cx="324.597593442997" cy="-492.661597541087" r="2" style="fill: rgb(0,0,0)" />
	<circle cx="235.759190984126" cy="-492.661597541099" r="2" style="fill: rgb(0,0,0)" />
	<circle cx="176.533589344878" cy="-433.43599590185" r="2" style="fill: rgb(0,0,0)" />
	<circle cx="55.1780747544047" cy="-223.24207885255" r="2" style="fill: rgb(0,0,0)" />
	<circle cx="33.5" cy="-142.338402458916" r="2" style="fill: rgb(0,0,0)" />
	<circle cx="122.33840245886" cy="-53.5" r="2" style="fill: rgb(0,0,0)" />
	<circle cx="203.242078852505" cy="-75.1780747543574" r="2" style="fill: rgb(0,0,0)" />
	<circle cx="561.5" cy="-344.597593442908" r="2" style="fill: rgb(0,0,0)" />
	<!--
	Generated using the Perl SVG Module V2.84
	by Ronan Oger
	Info: http://www.roitsystems.com/
	-->
</svg>