<?xml version="1.0" encoding="UTF-8" standalone="yes"?>
<!DOCTYPE svg PUBLIC "-//W3C//DTD SVG 1.0//EN" "http://www.w3.org/TR/2001/REC-SVG-20010904/DTD/svg10.dtd">
<!-- generated using polymake; Michael Joswig, Georg Loho, Benjamin Lorenz, Rico Raber; license CC BY-NC-ND 3.0; see polymake.org and matchthenet.de -->
<svg height="841pt" id="document" viewBox="0 -811 525.627202147933 811" width="595pt" xmlns="http://www.w3.org/2000/svg" xmlns:svg="http://www.w3.org/2000/svg" xmlns:xlink="http://www.w3.org/1999/xlink">
	<title id="document_title">planar_net_</title>
	<polygon points="153.906800536981,-354.51700134247 334.517001342452,-354.51700134247 334.517001342456,-535.127202147944 214.110200805473,-535.127202147942 153.906800536979,-474.923801879449 " style="fill: rgb(14,173,105); fill-opacity: 1; stroke: rgb(0,0,0); stroke-width: 3" />
	<polygon points="334.517001342379,-173.906800536979 334.517001342452,-354.51700134247 153.906800536981,-354.51700134247 153.906800536964,-234.110200805482 214.110200805422,-173.906800536983 " style="fill: rgb(14,173,105); fill-opacity: 1; stroke: rgb(0,0,0); stroke-width: 3" />
	<polygon points="214.110200805473,-535.127202147942 334.517001342456,-535.127202147944 334.517001342464,-655.534002684935 314.449201252968,-655.534002684935 214.110200805473,-555.195002237437 " style="fill: rgb(14,173,105); fill-opacity: 1; stroke: rgb(0,0,0); stroke-width: 3" />
	<polygon points="334.517001342379,-53.5 334.517001342379,-173.906800536979 214.110200805422,-173.906800536983 214.110200805423,-153.839000447485 314.449201252886,-53.5000000000002 " style="fill: rgb(14,173,105); fill-opacity: 1; stroke: rgb(0,0,0); stroke-width: 3" />
	<polygon points="334.517001342464,-655.534002684935 334.517001342465,-740.674467845612 314.449201252969,-740.674467845614 314.449201252968,-655.534002684935 " style="fill: rgb(14,173,105); fill-opacity: 1; stroke: rgb(0,0,0); stroke-width: 3" />
	<polygon points="334.517001342456,-535.127202147944 334.517001342452,-354.51700134247 515.127202147933,-354.517001342468 515.127202147929,-474.923801879449 454.923801879434,-535.12720214794 " style="fill: rgb(14,173,105); fill-opacity: 1; stroke: rgb(0,0,0); stroke-width: 3" />
	<polygon points="153.906800536964,-234.110200805482 139.71672301018,-219.920123278708 199.920123278638,-159.716723010211 214.110200805422,-173.906800536983 " style="fill: rgb(14,173,105); fill-opacity: 1; stroke: rgb(0,0,0); stroke-width: 3" />
	<polygon points="214.110200805473,-555.195002237437 314.449201252968,-655.534002684935 292.413227360498,-737.7733768459 155.347603758883,-774.5 95.1442034903846,-714.296599731497 131.870826644502,-577.230976129891 " style="fill: rgb(14,173,105); fill-opacity: 1; stroke: rgb(0,0,0); stroke-width: 3" />
	<polygon points="153.906800536979,-474.923801879449 214.110200805473,-535.127202147942 199.920123278694,-549.317279674722 139.7167230102,-489.113879406228 " style="fill: rgb(14,173,105); fill-opacity: 1; stroke: rgb(0,0,0); stroke-width: 3" />
	<polygon points="153.906800536981,-354.51700134247 153.906800536979,-474.923801879449 133.839000447483,-474.92380187945 33.5,-374.584801431965 33.5000000000002,-354.517001342468 " style="fill: rgb(14,173,105); fill-opacity: 1; stroke: rgb(0,0,0); stroke-width: 3" />
	<circle cx="153.906800536981" cy="-354.51700134247" r="2" style="fill: rgb(0,0,0)" />
	<circle cx="334.517001342452" cy="-354.51700134247" r="2" style="fill: rgb(0,0,0)" />
	<circle cx="334.517001342456" cy="-535.127202147944" r="2" style="fill: rgb(0,0,0)" />
	<circle cx="214.110200805473" cy="-535.127202147942" r="2" style="fill: rgb(0,0,0)" />
	<circle cx="153.906800536979" cy="-474.923801879449" r="2" style="fill: rgb(0,0,0)" />
	<circle cx="153.906800536964" cy="-234.110200805482" r="2" style="fill: rgb(0,0,0)" />
	<circle cx="214.110200805422" cy="-173.906800536983" r="2" style="fill: rgb(0,0,0)" />
	<circle cx="334.517001342379" cy="-173.906800536979" r="2" style="fill: rgb(0,0,0)" />
	<circle cx="334.517001342464" cy="-655.534002684935" r="2" style="fill: rgb(0,0,0)" />
	<circle cx="314.449201252968" cy="-655.534002684935" r="2" style="fill: rgb(0,0,0)" />
	<circle cx="214.110200805473" cy="-555.195002237437" r="2" style="fill: rgb(0,0,0)" />
	<circle cx="515.127202147933" cy="-354.517001342468" r="2" style="fill: rgb(0,0,0)" />
	<circle cx="515.127202147929" cy="-474.923801879449" r="2" style="fill: rgb(0,0,0)" />
	<circle cx="454.923801879434" cy="-535.12720214794" r="2" style="fill: rgb(0,0,0)" />
	<circle cx="199.920123278694" cy="-549.317279674722" r="2" style="fill: rgb(0,0,0)" />
	<circle cx="139.7167230102" cy="-489.113879406228" r="2" style="fill: rgb(0,0,0)" />
	<circle cx="133.839000447483" cy="-474.92380187945" r="2" style="fill: rgb(0,0,0)" />
	<circle cx="33.5" cy="-374.584801431965" r="2" style="fill: rgb(0,0,0)" />
	<circle cx="33.5000000000002" cy="-354.517001342468" r="2" style="fill: rgb(0,0,0)" />
	<circle cx="214.110200805423" cy="-153.839000447485" r="2" style="fill: rgb(0,0,0)" />
	<circle cx="314.449201252886" cy="-53.5000000000002" r="2" style="fill: rgb(0,0,0)" />
	<circle cx="334.517001342379" cy="-53.5" r="2" style="fill: rgb(0,0,0)" />
	<circle cx="139.71672301018" cy="-219.920123278708" r="2" style="fill: rgb(0,0,0)" />
	<circle cx="199.920123278638" cy="-159.716723010211" r="2" style="fill: rgb(0,0,0)" />
	<circle cx="334.517001342465" cy="-740.674467845612" r="2" style="fill: rgb(0,0,0)" />
	<circle cx="314.449201252969" cy="-740.674467845614" r="2" style="fill: rgb(0,0,0)" />
	<circle cx="292.413227360498" cy="-737.7733768459" r="2" style="fill: rgb(0,0,0)" />
	<circle cx="155.347603758883" cy="-774.5" r="2" style="fill: rgb(0,0,0)" />
	<circle cx="95.1442034903846" cy="-714.296599731497" r="2" style="fill: rgb(0,0,0)" />
	<circle cx="131.870826644502" cy="-577.230976129891" r="2" style="fill: rgb(0,0,0)" />
	<!--
	Generated using the Perl SVG Module V2.84
	by Ronan Oger
	Info: http://www.roitsystems.com/
	-->
</svg>