<?xml version="1.0" encoding="UTF-8" standalone="yes"?>
<!DOCTYPE svg PUBLIC "-//W3C//DTD SVG 1.0//EN" "http://www.w3.org/TR/2001/REC-SVG-20010904/DTD/svg10.dtd">
<!-- generated using polymake; Michael Joswig, Georg Loho, Benjamin Lorenz, Rico Raber; license CC BY-NC-ND 3.0; see polymake.org and matchthenet.de -->
<svg height="841pt" id="document" viewBox="0 -596.259223145332 572 596.259223145332" width="595pt" xmlns="http://www.w3.org/2000/svg" xmlns:svg="http://www.w3.org/2000/svg" xmlns:xlink="http://www.w3.org/1999/xlink">
	<title id="document_title">planar_net_</title>
	<polygon points="196.928571428571,-245.473508859615 322.642857142853,-245.473508859615 335.214285714283,-258.044937431043 259.785714285711,-333.473508859613 184.357142857139,-258.044937431043 " style="fill: rgb(14,173,105); fill-opacity: 1; stroke: rgb(0,0,0); stroke-width: 3" />
	<polygon points="360.357142857137,-180.150449831306 322.642857142853,-245.473508859615 196.928571428571,-245.473508859615 159.214285714287,-180.150449831303 222.071428571428,-71.2786847841195 297.499999999997,-71.2786847841204 " style="fill: rgb(14,173,105); fill-opacity: 1; stroke: rgb(0,0,0); stroke-width: 3" />
	<polygon points="196.928571428571,-245.473508859615 184.357142857139,-258.044937431043 131.021088504791,-204.708883078679 143.592517076223,-192.137454507251 " style="fill: rgb(14,173,105); fill-opacity: 1; stroke: rgb(0,0,0); stroke-width: 3" />
	<polygon points="372.928571428558,-446.61636600247 486.071428571429,-333.473508859619 561.5,-408.9020802882 561.499999999989,-484.33065171677 486.071428571398,-559.759223145332 " style="fill: rgb(14,173,105); fill-opacity: 1; stroke: rgb(0,0,0); stroke-width: 3" />
	<polygon points="259.785714285711,-333.473508859613 335.214285714283,-258.044937431043 410.64285714286,-258.044937431046 486.071428571429,-333.473508859619 372.928571428558,-446.61636600247 " style="fill: rgb(14,173,105); fill-opacity: 1; stroke: rgb(0,0,0); stroke-width: 3" />
	<polygon points="377.530033647565,-184.751912050316 360.357142857137,-180.150449831306 297.499999999997,-71.2786847841204 302.101462219003,-54.1057939936856 405.138806961595,-81.7145673077169 " style="fill: rgb(14,173,105); fill-opacity: 1; stroke: rgb(0,0,0); stroke-width: 3" />
	<polygon points="297.499999999997,-71.2786847841204 222.071428571428,-71.2786847841195 222.071428571428,-53.5 297.499999999996,-53.5000000000046 " style="fill: rgb(14,173,105); fill-opacity: 1; stroke: rgb(0,0,0); stroke-width: 3" />
	<polygon points="335.214285714283,-258.044937431043 322.642857142853,-245.473508859615 375.978911495207,-192.137454507256 388.550340066637,-204.708883078685 " style="fill: rgb(14,173,105); fill-opacity: 1; stroke: rgb(0,0,0); stroke-width: 3" />
	<polygon points="184.357142857139,-258.044937431043 259.785714285711,-333.473508859613 146.642857142858,-446.616366002472 33.5,-333.473508859615 108.928571428568,-258.044937431042 " style="fill: rgb(14,173,105); fill-opacity: 1; stroke: rgb(0,0,0); stroke-width: 3" />
	<polygon points="142.041394923854,-184.751912050306 114.432621609829,-81.7145673077137 217.469966352425,-54.1057939936906 222.071428571428,-71.2786847841195 159.214285714287,-180.150449831303 " style="fill: rgb(14,173,105); fill-opacity: 1; stroke: rgb(0,0,0); stroke-width: 3" />
	<circle cx="196.928571428571" cy="-245.473508859615" r="2" style="fill: rgb(0,0,0)" />
	<circle cx="322.642857142853" cy="-245.473508859615" r="2" style="fill: rgb(0,0,0)" />
	<circle cx="335.214285714283" cy="-258.044937431043" r="2" style="fill: rgb(0,0,0)" />
	<circle cx="259.785714285711" cy="-333.473508859613" r="2" style="fill: rgb(0,0,0)" />
	<circle cx="184.357142857139" cy="-258.044937431043" r="2" style="fill: rgb(0,0,0)" />
	<circle cx="159.214285714287" cy="-180.150449831303" r="2" style="fill: rgb(0,0,0)" />
	<circle cx="222.071428571428" cy="-71.2786847841195" r="2" style="fill: rgb(0,0,0)" />
	<circle cx="297.499999999997" cy="-71.2786847841204" r="2" style="fill: rgb(0,0,0)" />
	<circle cx="360.357142857137" cy="-180.150449831306" r="2" style="fill: rgb(0,0,0)" />
	<circle cx="131.021088504791" cy="-204.708883078679" r="2" style="fill: rgb(0,0,0)" />
	<circle cx="143.592517076223" cy="-192.137454507251" r="2" style="fill: rgb(0,0,0)" />
	<circle cx="410.64285714286" cy="-258.044937431046" r="2" style="fill: rgb(0,0,0)" />
	<circle cx="486.071428571429" cy="-333.473508859619" r="2" style="fill: rgb(0,0,0)" />
	<circle cx="372.928571428558" cy="-446.61636600247" r="2" style="fill: rgb(0,0,0)" />
	<circle cx="375.978911495207" cy="-192.137454507256" r="2" style="fill: rgb(0,0,0)" />
	<circle cx="388.550340066637" cy="-204.708883078685" r="2" style="fill: rgb(0,0,0)" />
	<circle cx="146.642857142858" cy="-446.616366002472" r="2" style="fill: rgb(0,0,0)" />
	<circle cx="33.5" cy="-333.473508859615" r="2" style="fill: rgb(0,0,0)" />
	<circle cx="108.928571428568" cy="-258.044937431042" r="2" style="fill: rgb(0,0,0)" />
	<circle cx="302.101462219003" cy="-54.1057939936856" r="2" style="fill: rgb(0,0,0)" />
	<circle cx="405.138806961595" cy="-81.7145673077169" r="2" style="fill: rgb(0,0,0)" />
	<circle cx="377.530033647565" cy="-184.751912050316" r="2" style="fill: rgb(0,0,0)" />
	<circle cx="222.071428571428" cy="-53.5" r="2" style="fill: rgb(0,0,0)" />
	<circle cx="297.499999999996" cy="-53.5000000000046" r="2" style="fill: rgb(0,0,0)" />
	<circle cx="142.041394923854" cy="-184.751912050306" r="2" style="fill: rgb(0,0,0)" />
	<circle cx="114.432621609829" cy="-81.7145673077137" r="2" style="fill: rgb(0,0,0)" />
	<circle cx="217.469966352425" cy="-54.1057939936906" r="2" style="fill: rgb(0,0,0)" />
	<circle cx="561.5" cy="-408.9020802882" r="2" style="fill: rgb(0,0,0)" />
	<circle cx="561.499999999989" cy="-484.33065171677" r="2" style="fill: rgb(0,0,0)" />
	<circle cx="486.071428571398" cy="-559.759223145332" r="2" style="fill: rgb(0,0,0)" />
	<!--
	Generated using the Perl SVG Module V2.87
	by Ronan Oger

	-->
</svg>