<?xml version="1.0" encoding="UTF-8" standalone="yes"?>
<!DOCTYPE svg PUBLIC "-//W3C//DTD SVG 1.0//EN" "http://www.w3.org/TR/2001/REC-SVG-20010904/DTD/svg10.dtd">
<!-- generated using polymake; Michael Joswig, Georg Loho, Benjamin Lorenz, Rico Raber; license CC BY-NC-ND 3.0; see polymake.org and matchthenet.de -->
<svg height="841pt" id="document" viewBox="0 -811 535.644648886004 811" width="595pt" xmlns="http://www.w3.org/2000/svg" xmlns:svg="http://www.w3.org/2000/svg" xmlns:xlink="http://www.w3.org/1999/xlink">
	<title id="document_title">planar_net_</title>
	<polygon points="156.411162221501,-360.77790555375 340.777905553749,-360.77790555375 340.777905553753,-545.144648885999 217.866743332252,-545.144648885998 156.4111622215,-483.689067775248 " style="fill: rgb(255,210,63); fill-opacity: 1; stroke: rgb(0,0,0); stroke-width: 3" />
	<polygon points="340.777905553748,-176.411162221502 340.777905553749,-360.77790555375 156.411162221501,-360.77790555375 156.411162221502,-237.866743332251 217.866743332251,-176.411162221501 " style="fill: rgb(255,210,63); fill-opacity: 1; stroke: rgb(0,0,0); stroke-width: 3" />
	<polygon points="217.866743332252,-545.144648885998 340.777905553753,-545.144648885999 340.777905553758,-668.055811107504 279.322324443012,-668.055811107508 217.86674333226,-606.600229996755 " style="fill: rgb(255,210,63); fill-opacity: 1; stroke: rgb(0,0,0); stroke-width: 3" />
	<polygon points="340.777905553742,-53.5000000000013 340.777905553748,-176.411162221502 217.866743332251,-176.411162221501 217.86674333225,-114.95558111075 279.322324442995,-53.5 " style="fill: rgb(255,210,63); fill-opacity: 1; stroke: rgb(0,0,0); stroke-width: 3" />
	<polygon points="340.777905553758,-668.055811107504 340.777905553761,-754.96712739785 279.322324443016,-754.967127397856 279.322324443012,-668.055811107508 " style="fill: rgb(67,184,206); fill-opacity: 1; stroke: rgb(0,0,0); stroke-width: 3" />
	<polygon points="340.777905553753,-545.144648885999 340.777905553749,-360.77790555375 525.144648886004,-360.777905553748 525.144648886002,-483.689067775246 463.689067775249,-545.144648885996 " style="fill: rgb(255,210,63); fill-opacity: 1; stroke: rgb(0,0,0); stroke-width: 3" />
	<polygon points="156.411162221502,-237.866743332251 112.955504076328,-194.411085187079 174.411085187072,-132.955504076334 217.866743332251,-176.411162221501 " style="fill: rgb(67,184,206); fill-opacity: 1; stroke: rgb(0,0,0); stroke-width: 3" />
	<polygon points="217.86674333226,-606.600229996755 279.322324443012,-668.055811107508 256.828020552145,-752.005696109134 172.878135550523,-774.5 111.422554439769,-713.04441888924 133.916858330636,-629.094533887614 " style="fill: rgb(238,66,102); fill-opacity: 1; stroke: rgb(0,0,0); stroke-width: 3" />
	<polygon points="156.4111622215,-483.689067775248 217.866743332252,-545.144648885998 174.411085187083,-588.600307031175 112.955504076332,-527.144725920427 " style="fill: rgb(67,184,206); fill-opacity: 1; stroke: rgb(0,0,0); stroke-width: 3" />
	<polygon points="156.411162221501,-360.77790555375 156.4111622215,-483.689067775248 94.9555811107498,-483.689067775249 33.5,-422.233486664504 33.5000000000004,-360.777905553755 " style="fill: rgb(255,210,63); fill-opacity: 1; stroke: rgb(0,0,0); stroke-width: 3" />
	<circle cx="156.411162221501" cy="-360.77790555375" r="2" style="fill: rgb(0,0,0)" />
	<circle cx="340.777905553749" cy="-360.77790555375" r="2" style="fill: rgb(0,0,0)" />
	<circle cx="340.777905553753" cy="-545.144648885999" r="2" style="fill: rgb(0,0,0)" />
	<circle cx="217.866743332252" cy="-545.144648885998" r="2" style="fill: rgb(0,0,0)" />
	<circle cx="156.4111622215" cy="-483.689067775248" r="2" style="fill: rgb(0,0,0)" />
	<circle cx="156.411162221502" cy="-237.866743332251" r="2" style="fill: rgb(0,0,0)" />
	<circle cx="217.866743332251" cy="-176.411162221501" r="2" style="fill: rgb(0,0,0)" />
	<circle cx="340.777905553748" cy="-176.411162221502" r="2" style="fill: rgb(0,0,0)" />
	<circle cx="340.777905553758" cy="-668.055811107504" r="2" style="fill: rgb(0,0,0)" />
	<circle cx="279.322324443012" cy="-668.055811107508" r="2" style="fill: rgb(0,0,0)" />
	<circle cx="217.86674333226" cy="-606.600229996755" r="2" style="fill: rgb(0,0,0)" />
	<circle cx="525.144648886004" cy="-360.777905553748" r="2" style="fill: rgb(0,0,0)" />
	<circle cx="525.144648886002" cy="-483.689067775246" r="2" style="fill: rgb(0,0,0)" />
	<circle cx="463.689067775249" cy="-545.144648885996" r="2" style="fill: rgb(0,0,0)" />
	<circle cx="174.411085187083" cy="-588.600307031175" r="2" style="fill: rgb(0,0,0)" />
	<circle cx="112.955504076332" cy="-527.144725920427" r="2" style="fill: rgb(0,0,0)" />
	<circle cx="94.9555811107498" cy="-483.689067775249" r="2" style="fill: rgb(0,0,0)" />
	<circle cx="33.5" cy="-422.233486664504" r="2" style="fill: rgb(0,0,0)" />
	<circle cx="33.5000000000004" cy="-360.777905553755" r="2" style="fill: rgb(0,0,0)" />
	<circle cx="217.86674333225" cy="-114.95558111075" r="2" style="fill: rgb(0,0,0)" />
	<circle cx="279.322324442995" cy="-53.5" r="2" style="fill: rgb(0,0,0)" />
	<circle cx="340.777905553742" cy="-53.5000000000013" r="2" style="fill: rgb(0,0,0)" />
	<circle cx="112.955504076328" cy="-194.411085187079" r="2" style="fill: rgb(0,0,0)" />
	<circle cx="174.411085187072" cy="-132.955504076334" r="2" style="fill: rgb(0,0,0)" />
	<circle cx="340.777905553761" cy="-754.96712739785" r="2" style="fill: rgb(0,0,0)" />
	<circle cx="279.322324443016" cy="-754.967127397856" r="2" style="fill: rgb(0,0,0)" />
	<circle cx="256.828020552145" cy="-752.005696109134" r="2" style="fill: rgb(0,0,0)" />
	<circle cx="172.878135550523" cy="-774.5" r="2" style="fill: rgb(0,0,0)" />
	<circle cx="111.422554439769" cy="-713.04441888924" r="2" style="fill: rgb(0,0,0)" />
	<circle cx="133.916858330636" cy="-629.094533887614" r="2" style="fill: rgb(0,0,0)" />
	<!--
	Generated using the Perl SVG Module V2.87
	by Ronan Oger

	-->
</svg>