<?xml version="1.0" encoding="UTF-8" standalone="yes"?>
<!DOCTYPE svg PUBLIC "-//W3C//DTD SVG 1.0//EN" "http://www.w3.org/TR/2001/REC-SVG-20010904/DTD/svg10.dtd">
<!-- generated using polymake; Michael Joswig, Georg Loho, Benjamin Lorenz, Rico Raber; license CC BY-NC-ND 3.0; see polymake.org and matchthenet.de -->
<svg height="841pt" id="document" viewBox="0 -630.008373564589 572 630.008373564589" width="595pt" xmlns="http://www.w3.org/2000/svg" xmlns:svg="http://www.w3.org/2000/svg" xmlns:xlink="http://www.w3.org/1999/xlink">
	<title id="document_title">planar_net_</title>
	<polygon points="267.486537752134,-299.4949113167 472.482297182703,-299.4949113167 472.482297182707,-340.494063202814 308.485689638244,-504.490670747269 267.486537752127,-504.490670747268 " style="fill: rgb(255,210,63); fill-opacity: 1; stroke: rgb(0,0,0); stroke-width: 3" />
	<polygon points="472.482297182701,-258.495759430589 472.482297182703,-299.4949113167 267.486537752134,-299.4949113167 267.486537752138,-94.4991518861279 308.485689638251,-94.4991518861286 " style="fill: rgb(255,210,63); fill-opacity: 1; stroke: rgb(0,0,0); stroke-width: 3" />
	<polygon points="267.486537752138,-94.4991518861279 267.486537752135,-53.5 308.485689638237,-53.5000000000014 308.485689638251,-94.4991518861286 " style="fill: rgb(67,184,206); fill-opacity: 1; stroke: rgb(0,0,0); stroke-width: 3" />
	<polygon points="501.473075504264,-229.504981109032 472.482297182701,-258.495759430589 308.485689638251,-94.4991518861286 337.476467959822,-65.5083735645572 " style="fill: rgb(67,184,206); fill-opacity: 1; stroke: rgb(0,0,0); stroke-width: 3" />
	<polygon points="472.482297182707,-340.494063202814 472.482297182703,-299.4949113167 513.481449068831,-299.494911316694 513.481449068834,-340.494063202797 " style="fill: rgb(67,184,206); fill-opacity: 1; stroke: rgb(0,0,0); stroke-width: 3" />
	<polygon points="267.486537752134,-299.4949113167 267.486537752127,-504.490670747268 226.487385866013,-504.490670747271 62.4907783215645,-340.494063202803 62.4907783215662,-299.494911316686 " style="fill: rgb(255,210,63); fill-opacity: 1; stroke: rgb(0,0,0); stroke-width: 3" />
	<polygon points="337.476467959801,-533.481449068832 501.473075504279,-369.484841524385 561.5,-593.508373564589 " style="fill: rgb(14,173,105); fill-opacity: 1; stroke: rgb(0,0,0); stroke-width: 3" />
	<polygon points="226.487385866013,-504.490670747271 197.496607544441,-533.481449068842 33.5,-369.484841524359 62.4907783215645,-340.494063202803 " style="fill: rgb(67,184,206); fill-opacity: 1; stroke: rgb(0,0,0); stroke-width: 3" />
	<polygon points="308.485689638244,-504.490670747269 472.482297182707,-340.494063202814 501.473075504279,-369.484841524385 337.476467959801,-533.481449068832 " style="fill: rgb(67,184,206); fill-opacity: 1; stroke: rgb(0,0,0); stroke-width: 3" />
	<polygon points="267.486537752127,-504.490670747268 308.485689638244,-504.490670747269 308.485689638249,-545.489822633393 267.486537752143,-545.489822633404 " style="fill: rgb(67,184,206); fill-opacity: 1; stroke: rgb(0,0,0); stroke-width: 3" />
	<circle cx="267.486537752134" cy="-299.4949113167" r="2" style="fill: rgb(0,0,0)" />
	<circle cx="472.482297182703" cy="-299.4949113167" r="2" style="fill: rgb(0,0,0)" />
	<circle cx="472.482297182707" cy="-340.494063202814" r="2" style="fill: rgb(0,0,0)" />
	<circle cx="308.485689638244" cy="-504.490670747269" r="2" style="fill: rgb(0,0,0)" />
	<circle cx="267.486537752127" cy="-504.490670747268" r="2" style="fill: rgb(0,0,0)" />
	<circle cx="267.486537752138" cy="-94.4991518861279" r="2" style="fill: rgb(0,0,0)" />
	<circle cx="308.485689638251" cy="-94.4991518861286" r="2" style="fill: rgb(0,0,0)" />
	<circle cx="472.482297182701" cy="-258.495759430589" r="2" style="fill: rgb(0,0,0)" />
	<circle cx="513.481449068831" cy="-299.494911316694" r="2" style="fill: rgb(0,0,0)" />
	<circle cx="513.481449068834" cy="-340.494063202797" r="2" style="fill: rgb(0,0,0)" />
	<circle cx="226.487385866013" cy="-504.490670747271" r="2" style="fill: rgb(0,0,0)" />
	<circle cx="62.4907783215645" cy="-340.494063202803" r="2" style="fill: rgb(0,0,0)" />
	<circle cx="62.4907783215662" cy="-299.494911316686" r="2" style="fill: rgb(0,0,0)" />
	<circle cx="501.473075504279" cy="-369.484841524385" r="2" style="fill: rgb(0,0,0)" />
	<circle cx="337.476467959801" cy="-533.481449068832" r="2" style="fill: rgb(0,0,0)" />
	<circle cx="308.485689638249" cy="-545.489822633393" r="2" style="fill: rgb(0,0,0)" />
	<circle cx="267.486537752143" cy="-545.489822633404" r="2" style="fill: rgb(0,0,0)" />
	<circle cx="267.486537752135" cy="-53.5" r="2" style="fill: rgb(0,0,0)" />
	<circle cx="308.485689638237" cy="-53.5000000000014" r="2" style="fill: rgb(0,0,0)" />
	<circle cx="337.476467959822" cy="-65.5083735645572" r="2" style="fill: rgb(0,0,0)" />
	<circle cx="501.473075504264" cy="-229.504981109032" r="2" style="fill: rgb(0,0,0)" />
	<circle cx="197.496607544441" cy="-533.481449068842" r="2" style="fill: rgb(0,0,0)" />
	<circle cx="33.5" cy="-369.484841524359" r="2" style="fill: rgb(0,0,0)" />
	<circle cx="561.5" cy="-593.508373564589" r="2" style="fill: rgb(0,0,0)" />
	<!--
	Generated using the Perl SVG Module V2.84
	by Ronan Oger
	Info: http://www.roitsystems.com/
	-->
</svg>