<?xml version="1.0" encoding="UTF-8" standalone="yes"?>
<!DOCTYPE svg PUBLIC "-//W3C//DTD SVG 1.0//EN" "http://www.w3.org/TR/2001/REC-SVG-20010904/DTD/svg10.dtd">
<!-- generated using polymake; Michael Joswig, Georg Loho, Benjamin Lorenz, Rico Raber; license CC BY-NC-ND 3.0; see polymake.org and matchthenet.de -->
<svg height="841pt" id="document" viewBox="0 -613.410743837554 572 613.410743837554" width="595pt" xmlns="http://www.w3.org/2000/svg" xmlns:svg="http://www.w3.org/2000/svg" xmlns:xlink="http://www.w3.org/1999/xlink">
	<title id="document_title">planar_net_</title>
	<polygon points="222.071428571429,-237.482172408982 297.499999999999,-237.482172408982 335.214285714285,-275.196458123268 259.785714285714,-350.625029551838 184.357142857141,-275.196458123267 " style="fill: rgb(255,210,63); fill-opacity: 1; stroke: rgb(0,0,0); stroke-width: 3" />
	<polygon points="335.214285714284,-172.159113380672 297.499999999999,-237.482172408982 222.071428571429,-237.482172408982 184.357142857144,-172.159113380671 222.071428571429,-106.83605435236 297.499999999999,-106.83605435236 " style="fill: rgb(238,66,102); fill-opacity: 1; stroke: rgb(0,0,0); stroke-width: 3" />
	<polygon points="222.071428571429,-237.482172408982 184.357142857141,-275.196458123267 131.021088504786,-221.860403770909 168.735374219068,-184.146118056622 " style="fill: rgb(67,184,206); fill-opacity: 1; stroke: rgb(0,0,0); stroke-width: 3" />
	<polygon points="372.928571428566,-463.767886694694 486.071428571429,-350.625029551843 561.5,-426.05360098042 561.499999999994,-501.48217240899 486.071428571414,-576.910743837554 " style="fill: rgb(255,210,63); fill-opacity: 1; stroke: rgb(0,0,0); stroke-width: 3" />
	<polygon points="259.785714285714,-350.625029551838 335.214285714285,-275.196458123268 410.642857142859,-275.19645812327 486.071428571429,-350.625029551843 372.928571428566,-463.767886694694 " style="fill: rgb(255,210,63); fill-opacity: 1; stroke: rgb(0,0,0); stroke-width: 3" />
	<polygon points="386.732958085579,-185.96350003769 335.214285714284,-172.159113380672 297.499999999999,-106.83605435236 311.304386657014,-55.3173819810598 414.341731399609,-82.9261552950892 " style="fill: rgb(255,210,63); fill-opacity: 1; stroke: rgb(0,0,0); stroke-width: 3" />
	<polygon points="297.499999999999,-106.83605435236 222.071428571429,-106.83605435236 222.071428571426,-53.5 297.499999999989,-53.500000000006 " style="fill: rgb(67,184,206); fill-opacity: 1; stroke: rgb(0,0,0); stroke-width: 3" />
	<polygon points="335.214285714285,-275.196458123268 297.499999999999,-237.482172408982 350.836054352357,-184.146118056624 388.55034006665,-221.860403770896 " style="fill: rgb(67,184,206); fill-opacity: 1; stroke: rgb(0,0,0); stroke-width: 3" />
	<polygon points="184.357142857141,-275.196458123267 259.785714285714,-350.625029551838 146.642857142858,-463.767886694702 33.5,-350.625029551842 108.928571428571,-275.196458123264 " style="fill: rgb(255,210,63); fill-opacity: 1; stroke: rgb(0,0,0); stroke-width: 3" />
	<polygon points="132.838470485845,-185.963500037682 105.22969717182,-82.9261552950875 208.267041914418,-55.3173819810645 222.071428571429,-106.83605435236 184.357142857144,-172.159113380671 " style="fill: rgb(255,210,63); fill-opacity: 1; stroke: rgb(0,0,0); stroke-width: 3" />
	<circle cx="222.071428571429" cy="-237.482172408982" r="2" style="fill: rgb(0,0,0)" />
	<circle cx="297.499999999999" cy="-237.482172408982" r="2" style="fill: rgb(0,0,0)" />
	<circle cx="335.214285714285" cy="-275.196458123268" r="2" style="fill: rgb(0,0,0)" />
	<circle cx="259.785714285714" cy="-350.625029551838" r="2" style="fill: rgb(0,0,0)" />
	<circle cx="184.357142857141" cy="-275.196458123267" r="2" style="fill: rgb(0,0,0)" />
	<circle cx="184.357142857144" cy="-172.159113380671" r="2" style="fill: rgb(0,0,0)" />
	<circle cx="222.071428571429" cy="-106.83605435236" r="2" style="fill: rgb(0,0,0)" />
	<circle cx="297.499999999999" cy="-106.83605435236" r="2" style="fill: rgb(0,0,0)" />
	<circle cx="335.214285714284" cy="-172.159113380672" r="2" style="fill: rgb(0,0,0)" />
	<circle cx="131.021088504786" cy="-221.860403770909" r="2" style="fill: rgb(0,0,0)" />
	<circle cx="168.735374219068" cy="-184.146118056622" r="2" style="fill: rgb(0,0,0)" />
	<circle cx="410.642857142859" cy="-275.19645812327" r="2" style="fill: rgb(0,0,0)" />
	<circle cx="486.071428571429" cy="-350.625029551843" r="2" style="fill: rgb(0,0,0)" />
	<circle cx="372.928571428566" cy="-463.767886694694" r="2" style="fill: rgb(0,0,0)" />
	<circle cx="350.836054352357" cy="-184.146118056624" r="2" style="fill: rgb(0,0,0)" />
	<circle cx="388.55034006665" cy="-221.860403770896" r="2" style="fill: rgb(0,0,0)" />
	<circle cx="146.642857142858" cy="-463.767886694702" r="2" style="fill: rgb(0,0,0)" />
	<circle cx="33.5" cy="-350.625029551842" r="2" style="fill: rgb(0,0,0)" />
	<circle cx="108.928571428571" cy="-275.196458123264" r="2" style="fill: rgb(0,0,0)" />
	<circle cx="311.304386657014" cy="-55.3173819810598" r="2" style="fill: rgb(0,0,0)" />
	<circle cx="414.341731399609" cy="-82.9261552950892" r="2" style="fill: rgb(0,0,0)" />
	<circle cx="386.732958085579" cy="-185.96350003769" r="2" style="fill: rgb(0,0,0)" />
	<circle cx="222.071428571426" cy="-53.5" r="2" style="fill: rgb(0,0,0)" />
	<circle cx="297.499999999989" cy="-53.500000000006" r="2" style="fill: rgb(0,0,0)" />
	<circle cx="132.838470485845" cy="-185.963500037682" r="2" style="fill: rgb(0,0,0)" />
	<circle cx="105.22969717182" cy="-82.9261552950875" r="2" style="fill: rgb(0,0,0)" />
	<circle cx="208.267041914418" cy="-55.3173819810645" r="2" style="fill: rgb(0,0,0)" />
	<circle cx="561.5" cy="-426.05360098042" r="2" style="fill: rgb(0,0,0)" />
	<circle cx="561.499999999994" cy="-501.48217240899" r="2" style="fill: rgb(0,0,0)" />
	<circle cx="486.071428571414" cy="-576.910743837554" r="2" style="fill: rgb(0,0,0)" />
	<!--
	Generated using the Perl SVG Module V2.87
	by Ronan Oger

	-->
</svg>