<?xml version="1.0" encoding="UTF-8" standalone="yes"?>
<!DOCTYPE svg PUBLIC "-//W3C//DTD SVG 1.0//EN" "http://www.w3.org/TR/2001/REC-SVG-20010904/DTD/svg10.dtd">
<!-- generated using polymake; Michael Joswig, Georg Loho, Benjamin Lorenz, Rico Raber; license CC BY-NC-ND 3.0; see polymake.org and matchthenet.de -->
<svg height="841pt" id="document" viewBox="0 -811 525.627202147941 811" width="595pt" xmlns="http://www.w3.org/2000/svg" xmlns:svg="http://www.w3.org/2000/svg" xmlns:xlink="http://www.w3.org/1999/xlink">
	<title id="document_title">planar_net_</title>
	<polygon points="153.906800536983,-354.517001342454 334.517001342456,-354.517001342454 334.517001342462,-535.127202147931 214.110200805476,-535.127202147929 153.90680053698,-474.923801879436 " style="fill: rgb(61,81,50); fill-opacity: 1; stroke: rgb(0,0,0); stroke-width: 3" />
	<polygon points="334.517001342455,-173.906800536982 334.517001342456,-354.517001342454 153.906800536983,-354.517001342454 153.906800536984,-234.110200805471 214.110200805475,-173.90680053698 " style="fill: rgb(61,81,50); fill-opacity: 1; stroke: rgb(0,0,0); stroke-width: 3" />
	<polygon points="214.110200805476,-535.127202147929 334.517001342462,-535.127202147931 334.51700134247,-655.534002684922 314.449201252973,-655.534002684922 214.110200805478,-555.195002237427 " style="fill: rgb(61,81,50); fill-opacity: 1; stroke: rgb(0,0,0); stroke-width: 3" />
	<polygon points="334.517001342454,-53.5000000000011 334.517001342455,-173.906800536982 214.110200805475,-173.90680053698 214.110200805475,-153.839000447482 314.449201252958,-53.5 " style="fill: rgb(61,81,50); fill-opacity: 1; stroke: rgb(0,0,0); stroke-width: 3" />
	<polygon points="334.51700134247,-655.534002684922 334.517001342471,-740.6744678456 314.449201252974,-740.6744678456 314.449201252973,-655.534002684922 " style="fill: rgb(216,176,92); fill-opacity: 1; stroke: rgb(0,0,0); stroke-width: 3" />
	<polygon points="334.517001342462,-535.127202147931 334.517001342456,-354.517001342454 515.127202147941,-354.517001342451 515.127202147938,-474.923801879433 454.92380187944,-535.127202147925 " style="fill: rgb(61,81,50); fill-opacity: 1; stroke: rgb(0,0,0); stroke-width: 3" />
	<polygon points="153.906800536984,-234.110200805471 139.716723010205,-219.920123278691 199.920123278695,-159.716723010203 214.110200805475,-173.90680053698 " style="fill: rgb(216,176,92); fill-opacity: 1; stroke: rgb(0,0,0); stroke-width: 3" />
	<polygon points="214.110200805478,-555.195002237427 314.449201252973,-655.534002684922 292.413227360507,-737.773376845896 155.347603758893,-774.5 95.1442034903909,-714.296599731491 131.870826644503,-577.230976129872 " style="fill: rgb(245,210,177); fill-opacity: 1; stroke: rgb(0,0,0); stroke-width: 3" />
	<polygon points="153.90680053698,-474.923801879436 214.110200805476,-535.127202147929 199.920123278697,-549.317279674709 139.716723010201,-489.113879406213 " style="fill: rgb(216,176,92); fill-opacity: 1; stroke: rgb(0,0,0); stroke-width: 3" />
	<polygon points="153.906800536983,-354.517001342454 153.90680053698,-474.923801879436 133.839000447483,-474.923801879436 33.5,-374.584801431949 33.5000000000004,-354.517001342452 " style="fill: rgb(61,81,50); fill-opacity: 1; stroke: rgb(0,0,0); stroke-width: 3" />
	<circle cx="153.906800536983" cy="-354.517001342454" r="2" style="fill: rgb(0,0,0)" />
	<circle cx="334.517001342456" cy="-354.517001342454" r="2" style="fill: rgb(0,0,0)" />
	<circle cx="334.517001342462" cy="-535.127202147931" r="2" style="fill: rgb(0,0,0)" />
	<circle cx="214.110200805476" cy="-535.127202147929" r="2" style="fill: rgb(0,0,0)" />
	<circle cx="153.90680053698" cy="-474.923801879436" r="2" style="fill: rgb(0,0,0)" />
	<circle cx="153.906800536984" cy="-234.110200805471" r="2" style="fill: rgb(0,0,0)" />
	<circle cx="214.110200805475" cy="-173.90680053698" r="2" style="fill: rgb(0,0,0)" />
	<circle cx="334.517001342455" cy="-173.906800536982" r="2" style="fill: rgb(0,0,0)" />
	<circle cx="334.51700134247" cy="-655.534002684922" r="2" style="fill: rgb(0,0,0)" />
	<circle cx="314.449201252973" cy="-655.534002684922" r="2" style="fill: rgb(0,0,0)" />
	<circle cx="214.110200805478" cy="-555.195002237427" r="2" style="fill: rgb(0,0,0)" />
	<circle cx="515.127202147941" cy="-354.517001342451" r="2" style="fill: rgb(0,0,0)" />
	<circle cx="515.127202147938" cy="-474.923801879433" r="2" style="fill: rgb(0,0,0)" />
	<circle cx="454.92380187944" cy="-535.127202147925" r="2" style="fill: rgb(0,0,0)" />
	<circle cx="199.920123278697" cy="-549.317279674709" r="2" style="fill: rgb(0,0,0)" />
	<circle cx="139.716723010201" cy="-489.113879406213" r="2" style="fill: rgb(0,0,0)" />
	<circle cx="133.839000447483" cy="-474.923801879436" r="2" style="fill: rgb(0,0,0)" />
	<circle cx="33.5" cy="-374.584801431949" r="2" style="fill: rgb(0,0,0)" />
	<circle cx="33.5000000000004" cy="-354.517001342452" r="2" style="fill: rgb(0,0,0)" />
	<circle cx="214.110200805475" cy="-153.839000447482" r="2" style="fill: rgb(0,0,0)" />
	<circle cx="314.449201252958" cy="-53.5" r="2" style="fill: rgb(0,0,0)" />
	<circle cx="334.517001342454" cy="-53.5000000000011" r="2" style="fill: rgb(0,0,0)" />
	<circle cx="139.716723010205" cy="-219.920123278691" r="2" style="fill: rgb(0,0,0)" />
	<circle cx="199.920123278695" cy="-159.716723010203" r="2" style="fill: rgb(0,0,0)" />
	<circle cx="334.517001342471" cy="-740.6744678456" r="2" style="fill: rgb(0,0,0)" />
	<circle cx="314.449201252974" cy="-740.6744678456" r="2" style="fill: rgb(0,0,0)" />
	<circle cx="292.413227360507" cy="-737.773376845896" r="2" style="fill: rgb(0,0,0)" />
	<circle cx="155.347603758893" cy="-774.5" r="2" style="fill: rgb(0,0,0)" />
	<circle cx="95.1442034903909" cy="-714.296599731491" r="2" style="fill: rgb(0,0,0)" />
	<circle cx="131.870826644503" cy="-577.230976129872" r="2" style="fill: rgb(0,0,0)" />
	<!--
	Generated using the Perl SVG Module V2.84
	by Ronan Oger
	Info: http://www.roitsystems.com/
	-->
</svg>