<?xml version="1.0" encoding="UTF-8" standalone="yes"?>
<!DOCTYPE svg PUBLIC "-//W3C//DTD SVG 1.0//EN" "http://www.w3.org/TR/2001/REC-SVG-20010904/DTD/svg10.dtd">
<!-- generated using polymake; Michael Joswig, Georg Loho, Benjamin Lorenz, Rico Raber; license CC BY-NC-ND 3.0; see polymake.org and matchthenet.de -->
<svg height="841pt" id="document" viewBox="0 -630.008373564594 572 630.008373564594" width="595pt" xmlns="http://www.w3.org/2000/svg" xmlns:svg="http://www.w3.org/2000/svg" xmlns:xlink="http://www.w3.org/1999/xlink">
	<title id="document_title">planar_net_</title>
	<polygon points="267.486537752135,-299.494911316706 472.482297182704,-299.494911316706 472.482297182705,-340.49406320282 308.485689638243,-504.490670747274 267.486537752127,-504.490670747274 " style="fill: rgb(14,173,105); fill-opacity: 1; stroke: rgb(0,0,0); stroke-width: 3" />
	<polygon points="472.482297182699,-258.495759430597 472.482297182704,-299.494911316706 267.486537752135,-299.494911316706 267.48653775214,-94.4991518861313 308.485689638253,-94.4991518861324 " style="fill: rgb(14,173,105); fill-opacity: 1; stroke: rgb(0,0,0); stroke-width: 3" />
	<polygon points="267.48653775214,-94.4991518861313 267.486537752136,-53.5000000000117 308.485689638234,-53.5 308.485689638253,-94.4991518861324 " style="fill: rgb(14,173,105); fill-opacity: 1; stroke: rgb(0,0,0); stroke-width: 3" />
	<polygon points="501.473075504264,-229.504981109039 472.482297182699,-258.495759430597 308.485689638253,-94.4991518861324 337.476467959825,-65.5083735645618 " style="fill: rgb(14,173,105); fill-opacity: 1; stroke: rgb(0,0,0); stroke-width: 3" />
	<polygon points="472.482297182705,-340.49406320282 472.482297182704,-299.494911316706 513.481449068823,-299.4949113167 513.481449068838,-340.4940632028 " style="fill: rgb(14,173,105); fill-opacity: 1; stroke: rgb(0,0,0); stroke-width: 3" />
	<polygon points="267.486537752135,-299.494911316706 267.486537752127,-504.490670747274 226.487385866013,-504.490670747274 62.4907783215647,-340.494063202807 62.4907783215664,-299.494911316691 " style="fill: rgb(14,173,105); fill-opacity: 1; stroke: rgb(0,0,0); stroke-width: 3" />
	<polygon points="337.476467959801,-533.481449068838 501.473075504277,-369.484841524391 561.5,-593.508373564594 " style="fill: rgb(14,173,105); fill-opacity: 1; stroke: rgb(0,0,0); stroke-width: 3" />
	<polygon points="226.487385866013,-504.490670747274 197.496607544441,-533.481449068845 33.5,-369.484841524364 62.4907783215647,-340.494063202807 " style="fill: rgb(14,173,105); fill-opacity: 1; stroke: rgb(0,0,0); stroke-width: 3" />
	<polygon points="308.485689638243,-504.490670747274 472.482297182705,-340.49406320282 501.473075504277,-369.484841524391 337.476467959801,-533.481449068838 " style="fill: rgb(14,173,105); fill-opacity: 1; stroke: rgb(0,0,0); stroke-width: 3" />
	<polygon points="267.486537752127,-504.490670747274 308.485689638243,-504.490670747274 308.485689638246,-545.489822633391 267.486537752137,-545.489822633397 " style="fill: rgb(14,173,105); fill-opacity: 1; stroke: rgb(0,0,0); stroke-width: 3" />
	<circle cx="267.486537752135" cy="-299.494911316706" r="2" style="fill: rgb(0,0,0)" />
	<circle cx="472.482297182704" cy="-299.494911316706" r="2" style="fill: rgb(0,0,0)" />
	<circle cx="472.482297182705" cy="-340.49406320282" r="2" style="fill: rgb(0,0,0)" />
	<circle cx="308.485689638243" cy="-504.490670747274" r="2" style="fill: rgb(0,0,0)" />
	<circle cx="267.486537752127" cy="-504.490670747274" r="2" style="fill: rgb(0,0,0)" />
	<circle cx="267.48653775214" cy="-94.4991518861313" r="2" style="fill: rgb(0,0,0)" />
	<circle cx="308.485689638253" cy="-94.4991518861324" r="2" style="fill: rgb(0,0,0)" />
	<circle cx="472.482297182699" cy="-258.495759430597" r="2" style="fill: rgb(0,0,0)" />
	<circle cx="513.481449068823" cy="-299.4949113167" r="2" style="fill: rgb(0,0,0)" />
	<circle cx="513.481449068838" cy="-340.4940632028" r="2" style="fill: rgb(0,0,0)" />
	<circle cx="226.487385866013" cy="-504.490670747274" r="2" style="fill: rgb(0,0,0)" />
	<circle cx="62.4907783215647" cy="-340.494063202807" r="2" style="fill: rgb(0,0,0)" />
	<circle cx="62.4907783215664" cy="-299.494911316691" r="2" style="fill: rgb(0,0,0)" />
	<circle cx="501.473075504277" cy="-369.484841524391" r="2" style="fill: rgb(0,0,0)" />
	<circle cx="337.476467959801" cy="-533.481449068838" r="2" style="fill: rgb(0,0,0)" />
	<circle cx="308.485689638246" cy="-545.489822633391" r="2" style="fill: rgb(0,0,0)" />
	<circle cx="267.486537752137" cy="-545.489822633397" r="2" style="fill: rgb(0,0,0)" />
	<circle cx="267.486537752136" cy="-53.5000000000117" r="2" style="fill: rgb(0,0,0)" />
	<circle cx="308.485689638234" cy="-53.5" r="2" style="fill: rgb(0,0,0)" />
	<circle cx="337.476467959825" cy="-65.5083735645618" r="2" style="fill: rgb(0,0,0)" />
	<circle cx="501.473075504264" cy="-229.504981109039" r="2" style="fill: rgb(0,0,0)" />
	<circle cx="197.496607544441" cy="-533.481449068845" r="2" style="fill: rgb(0,0,0)" />
	<circle cx="33.5" cy="-369.484841524364" r="2" style="fill: rgb(0,0,0)" />
	<circle cx="561.5" cy="-593.508373564594" r="2" style="fill: rgb(0,0,0)" />
	<!--
	Generated using the Perl SVG Module V2.84
	by Ronan Oger
	Info: http://www.roitsystems.com/
	-->
</svg>