<?xml version="1.0" encoding="UTF-8" standalone="yes"?>
<!DOCTYPE svg PUBLIC "-//W3C//DTD SVG 1.0//EN" "http://www.w3.org/TR/2001/REC-SVG-20010904/DTD/svg10.dtd">
<!-- generated using polymake; Michael Joswig, Georg Loho, Benjamin Lorenz, Rico Raber; license CC BY-NC-ND 3.0; see polymake.org and matchthenet.de -->
<svg height="841pt" id="document" viewBox="0 -811 528.093097398944 811" width="595pt" xmlns="http://www.w3.org/2000/svg" xmlns:svg="http://www.w3.org/2000/svg" xmlns:xlink="http://www.w3.org/1999/xlink">
	<title id="document_title">planar_net_</title>
	<polygon points="154.523274349731,-356.058185874336 336.058185874327,-356.058185874336 336.058185874336,-537.593097398938 215.0349115246,-537.593097398934 154.523274349728,-477.081460224065 " style="fill: rgb(14,173,105); fill-opacity: 1; stroke: rgb(0,0,0); stroke-width: 3" />
	<polygon points="336.058185874285,-174.523274349729 336.058185874327,-356.058185874336 154.523274349731,-356.058185874336 154.523274349722,-235.034911524601 215.034911524568,-174.52327434973 " style="fill: rgb(14,173,105); fill-opacity: 1; stroke: rgb(0,0,0); stroke-width: 3" />
	<polygon points="215.0349115246,-537.593097398934 336.058185874336,-537.593097398938 336.058185874345,-658.616371748681 305.802367286912,-658.61637174868 215.034911524601,-567.848915986365 " style="fill: rgb(14,173,105); fill-opacity: 1; stroke: rgb(0,0,0); stroke-width: 3" />
	<polygon points="336.058185874283,-53.5000000000006 336.058185874285,-174.523274349729 215.034911524568,-174.52327434973 215.034911524569,-144.267455762297 305.802367286855,-53.5 " style="fill: rgb(14,173,105); fill-opacity: 1; stroke: rgb(0,0,0); stroke-width: 3" />
	<polygon points="336.058185874345,-658.616371748681 336.058185874346,-744.192749722777 305.802367286913,-744.192749722779 305.802367286912,-658.61637174868 " style="fill: rgb(14,173,105); fill-opacity: 1; stroke: rgb(0,0,0); stroke-width: 3" />
	<polygon points="336.058185874336,-537.593097398938 336.058185874327,-356.058185874336 517.593097398944,-356.058185874333 517.593097398936,-477.081460224064 457.08146022406,-537.59309739893 " style="fill: rgb(14,173,105); fill-opacity: 1; stroke: rgb(0,0,0); stroke-width: 3" />
	<polygon points="154.523274349722,-235.034911524601 133.129179856189,-213.640817031084 193.64081703103,-153.129179856221 215.034911524568,-174.52327434973 " style="fill: rgb(14,173,105); fill-opacity: 1; stroke: rgb(0,0,0); stroke-width: 3" />
	<polygon points="215.034911524601,-567.848915986365 305.802367286912,-658.61637174868 283.653570856324,-741.276805354136 159.66292044813,-774.5 99.1512832732541,-713.98836282512 132.374477919136,-589.997712416936 " style="fill: rgb(14,173,105); fill-opacity: 1; stroke: rgb(0,0,0); stroke-width: 3" />
	<polygon points="154.523274349728,-477.081460224065 215.0349115246,-537.593097398934 193.64081703108,-558.987191892464 133.129179856212,-498.475554717597 " style="fill: rgb(14,173,105); fill-opacity: 1; stroke: rgb(0,0,0); stroke-width: 3" />
	<polygon points="154.523274349731,-356.058185874336 154.523274349728,-477.081460224065 124.267455762295,-477.081460224064 33.5,-386.314004461764 33.5000000000009,-356.058185874332 " style="fill: rgb(14,173,105); fill-opacity: 1; stroke: rgb(0,0,0); stroke-width: 3" />
	<circle cx="154.523274349731" cy="-356.058185874336" r="2" style="fill: rgb(0,0,0)" />
	<circle cx="336.058185874327" cy="-356.058185874336" r="2" style="fill: rgb(0,0,0)" />
	<circle cx="336.058185874336" cy="-537.593097398938" r="2" style="fill: rgb(0,0,0)" />
	<circle cx="215.0349115246" cy="-537.593097398934" r="2" style="fill: rgb(0,0,0)" />
	<circle cx="154.523274349728" cy="-477.081460224065" r="2" style="fill: rgb(0,0,0)" />
	<circle cx="154.523274349722" cy="-235.034911524601" r="2" style="fill: rgb(0,0,0)" />
	<circle cx="215.034911524568" cy="-174.52327434973" r="2" style="fill: rgb(0,0,0)" />
	<circle cx="336.058185874285" cy="-174.523274349729" r="2" style="fill: rgb(0,0,0)" />
	<circle cx="336.058185874345" cy="-658.616371748681" r="2" style="fill: rgb(0,0,0)" />
	<circle cx="305.802367286912" cy="-658.61637174868" r="2" style="fill: rgb(0,0,0)" />
	<circle cx="215.034911524601" cy="-567.848915986365" r="2" style="fill: rgb(0,0,0)" />
	<circle cx="517.593097398944" cy="-356.058185874333" r="2" style="fill: rgb(0,0,0)" />
	<circle cx="517.593097398936" cy="-477.081460224064" r="2" style="fill: rgb(0,0,0)" />
	<circle cx="457.08146022406" cy="-537.59309739893" r="2" style="fill: rgb(0,0,0)" />
	<circle cx="193.64081703108" cy="-558.987191892464" r="2" style="fill: rgb(0,0,0)" />
	<circle cx="133.129179856212" cy="-498.475554717597" r="2" style="fill: rgb(0,0,0)" />
	<circle cx="124.267455762295" cy="-477.081460224064" r="2" style="fill: rgb(0,0,0)" />
	<circle cx="33.5" cy="-386.314004461764" r="2" style="fill: rgb(0,0,0)" />
	<circle cx="33.5000000000009" cy="-356.058185874332" r="2" style="fill: rgb(0,0,0)" />
	<circle cx="215.034911524569" cy="-144.267455762297" r="2" style="fill: rgb(0,0,0)" />
	<circle cx="305.802367286855" cy="-53.5" r="2" style="fill: rgb(0,0,0)" />
	<circle cx="336.058185874283" cy="-53.5000000000006" r="2" style="fill: rgb(0,0,0)" />
	<circle cx="133.129179856189" cy="-213.640817031084" r="2" style="fill: rgb(0,0,0)" />
	<circle cx="193.64081703103" cy="-153.129179856221" r="2" style="fill: rgb(0,0,0)" />
	<circle cx="336.058185874346" cy="-744.192749722777" r="2" style="fill: rgb(0,0,0)" />
	<circle cx="305.802367286913" cy="-744.192749722779" r="2" style="fill: rgb(0,0,0)" />
	<circle cx="283.653570856324" cy="-741.276805354136" r="2" style="fill: rgb(0,0,0)" />
	<circle cx="159.66292044813" cy="-774.5" r="2" style="fill: rgb(0,0,0)" />
	<circle cx="99.1512832732541" cy="-713.98836282512" r="2" style="fill: rgb(0,0,0)" />
	<circle cx="132.374477919136" cy="-589.997712416936" r="2" style="fill: rgb(0,0,0)" />
	<!--
	Generated using the Perl SVG Module V2.84
	by Ronan Oger
	Info: http://www.roitsystems.com/
	-->
</svg>