<?xml version="1.0" encoding="UTF-8" standalone="yes"?>
<!DOCTYPE svg PUBLIC "-//W3C//DTD SVG 1.0//EN" "http://www.w3.org/TR/2001/REC-SVG-20010904/DTD/svg10.dtd">
<!-- generated using polymake; Michael Joswig, Georg Loho, Benjamin Lorenz, Rico Raber; license CC BY-NC-ND 3.0; see polymake.org and matchthenet.de -->
<svg height="841pt" id="document" viewBox="0 -811 535.644648885997 811" width="595pt" xmlns="http://www.w3.org/2000/svg" xmlns:svg="http://www.w3.org/2000/svg" xmlns:xlink="http://www.w3.org/1999/xlink">
	<title id="document_title">planar_net_</title>
	<polygon points="156.411162221509,-360.777905553743 340.777905553747,-360.777905553743 340.777905553752,-545.144648885984 217.866743332256,-545.144648885982 156.411162221507,-483.689067775234 " style="fill: rgb(14,173,105); fill-opacity: 1; stroke: rgb(0,0,0); stroke-width: 3" />
	<polygon points="340.777905553691,-176.411162221489 340.777905553747,-360.777905553743 156.411162221509,-360.777905553743 156.411162221496,-237.866743332246 217.866743332218,-176.411162221492 " style="fill: rgb(14,173,105); fill-opacity: 1; stroke: rgb(0,0,0); stroke-width: 3" />
	<polygon points="217.866743332256,-545.144648885982 340.777905553752,-545.144648885984 340.777905553763,-668.055811107492 279.322324443016,-668.055811107489 217.86674333226,-606.600229996729 " style="fill: rgb(14,173,105); fill-opacity: 1; stroke: rgb(0,0,0); stroke-width: 3" />
	<polygon points="340.777905553617,-53.5000000000026 340.777905553691,-176.411162221489 217.866743332218,-176.411162221492 217.866743332203,-114.955581110744 279.322324442892,-53.5 " style="fill: rgb(14,173,105); fill-opacity: 1; stroke: rgb(0,0,0); stroke-width: 3" />
	<polygon points="340.777905553763,-668.055811107492 340.77790555377,-754.967127397843 279.322324443033,-754.96712739786 279.322324443016,-668.055811107489 " style="fill: rgb(14,173,105); fill-opacity: 1; stroke: rgb(0,0,0); stroke-width: 3" />
	<polygon points="340.777905553752,-545.144648885984 340.777905553747,-360.777905553743 525.144648885997,-360.777905553741 525.144648885993,-483.689067775233 463.689067775241,-545.14464888598 " style="fill: rgb(14,173,105); fill-opacity: 1; stroke: rgb(0,0,0); stroke-width: 3" />
	<polygon points="156.411162221496,-237.866743332246 112.955504076307,-194.411085187087 174.411085187013,-132.955504076349 217.866743332218,-176.411162221492 " style="fill: rgb(14,173,105); fill-opacity: 1; stroke: rgb(0,0,0); stroke-width: 3" />
	<polygon points="217.86674333226,-606.600229996729 279.322324443016,-668.055811107489 256.82802055215,-752.005696109119 172.87813555053,-774.5 111.422554439775,-713.044418889242 133.916858330638,-629.094533887604 " style="fill: rgb(14,173,105); fill-opacity: 1; stroke: rgb(0,0,0); stroke-width: 3" />
	<polygon points="156.411162221507,-483.689067775234 217.866743332256,-545.144648885982 174.411085187092,-588.600307031165 112.955504076346,-527.144725920421 " style="fill: rgb(14,173,105); fill-opacity: 1; stroke: rgb(0,0,0); stroke-width: 3" />
	<polygon points="156.411162221509,-360.777905553743 156.411162221507,-483.689067775234 94.9555811107569,-483.689067775247 33.5000000000012,-422.233486664533 33.5,-360.777905553794 " style="fill: rgb(14,173,105); fill-opacity: 1; stroke: rgb(0,0,0); stroke-width: 3" />
	<circle cx="156.411162221509" cy="-360.777905553743" r="2" style="fill: rgb(0,0,0)" />
	<circle cx="340.777905553747" cy="-360.777905553743" r="2" style="fill: rgb(0,0,0)" />
	<circle cx="340.777905553752" cy="-545.144648885984" r="2" style="fill: rgb(0,0,0)" />
	<circle cx="217.866743332256" cy="-545.144648885982" r="2" style="fill: rgb(0,0,0)" />
	<circle cx="156.411162221507" cy="-483.689067775234" r="2" style="fill: rgb(0,0,0)" />
	<circle cx="156.411162221496" cy="-237.866743332246" r="2" style="fill: rgb(0,0,0)" />
	<circle cx="217.866743332218" cy="-176.411162221492" r="2" style="fill: rgb(0,0,0)" />
	<circle cx="340.777905553691" cy="-176.411162221489" r="2" style="fill: rgb(0,0,0)" />
	<circle cx="340.777905553763" cy="-668.055811107492" r="2" style="fill: rgb(0,0,0)" />
	<circle cx="279.322324443016" cy="-668.055811107489" r="2" style="fill: rgb(0,0,0)" />
	<circle cx="217.86674333226" cy="-606.600229996729" r="2" style="fill: rgb(0,0,0)" />
	<circle cx="525.144648885997" cy="-360.777905553741" r="2" style="fill: rgb(0,0,0)" />
	<circle cx="525.144648885993" cy="-483.689067775233" r="2" style="fill: rgb(0,0,0)" />
	<circle cx="463.689067775241" cy="-545.14464888598" r="2" style="fill: rgb(0,0,0)" />
	<circle cx="174.411085187092" cy="-588.600307031165" r="2" style="fill: rgb(0,0,0)" />
	<circle cx="112.955504076346" cy="-527.144725920421" r="2" style="fill: rgb(0,0,0)" />
	<circle cx="94.9555811107569" cy="-483.689067775247" r="2" style="fill: rgb(0,0,0)" />
	<circle cx="33.5000000000012" cy="-422.233486664533" r="2" style="fill: rgb(0,0,0)" />
	<circle cx="33.5" cy="-360.777905553794" r="2" style="fill: rgb(0,0,0)" />
	<circle cx="217.866743332203" cy="-114.955581110744" r="2" style="fill: rgb(0,0,0)" />
	<circle cx="279.322324442892" cy="-53.5" r="2" style="fill: rgb(0,0,0)" />
	<circle cx="340.777905553617" cy="-53.5000000000026" r="2" style="fill: rgb(0,0,0)" />
	<circle cx="112.955504076307" cy="-194.411085187087" r="2" style="fill: rgb(0,0,0)" />
	<circle cx="174.411085187013" cy="-132.955504076349" r="2" style="fill: rgb(0,0,0)" />
	<circle cx="340.77790555377" cy="-754.967127397843" r="2" style="fill: rgb(0,0,0)" />
	<circle cx="279.322324443033" cy="-754.96712739786" r="2" style="fill: rgb(0,0,0)" />
	<circle cx="256.82802055215" cy="-752.005696109119" r="2" style="fill: rgb(0,0,0)" />
	<circle cx="172.87813555053" cy="-774.5" r="2" style="fill: rgb(0,0,0)" />
	<circle cx="111.422554439775" cy="-713.044418889242" r="2" style="fill: rgb(0,0,0)" />
	<circle cx="133.916858330638" cy="-629.094533887604" r="2" style="fill: rgb(0,0,0)" />
	<!--
	Generated using the Perl SVG Module V2.84
	by Ronan Oger
	Info: http://www.roitsystems.com/
	-->
</svg>