<?xml version="1.0" encoding="UTF-8" standalone="yes"?>
<!DOCTYPE svg PUBLIC "-//W3C//DTD SVG 1.0//EN" "http://www.w3.org/TR/2001/REC-SVG-20010904/DTD/svg10.dtd">
<!-- generated using polymake; Michael Joswig, Georg Loho, Benjamin Lorenz, Rico Raber; license CC BY-NC-ND 3.0; see polymake.org and matchthenet.de -->
<svg height="841pt" id="document" viewBox="0 -811 528.093097398946 811" width="595pt" xmlns="http://www.w3.org/2000/svg" xmlns:svg="http://www.w3.org/2000/svg" xmlns:xlink="http://www.w3.org/1999/xlink">
	<title id="document_title">planar_net_</title>
	<polygon points="154.523274349733,-356.058185874329 336.058185874332,-356.058185874329 336.05818587434,-537.593097398931 215.034911524602,-537.593097398929 154.52327434973,-477.081460224061 " style="fill: rgb(255,210,63); fill-opacity: 1; stroke: rgb(0,0,0); stroke-width: 3" />
	<polygon points="336.058185874331,-174.523274349731 336.058185874332,-356.058185874329 154.523274349733,-356.058185874329 154.523274349735,-235.034911524595 215.034911524601,-174.52327434973 " style="fill: rgb(255,210,63); fill-opacity: 1; stroke: rgb(0,0,0); stroke-width: 3" />
	<polygon points="215.034911524602,-537.593097398929 336.05818587434,-537.593097398931 336.058185874347,-658.616371748674 305.802367286914,-658.616371748674 215.034911524603,-567.848915986361 " style="fill: rgb(255,210,63); fill-opacity: 1; stroke: rgb(0,0,0); stroke-width: 3" />
	<polygon points="336.058185874329,-53.5000000000019 336.058185874331,-174.523274349731 215.034911524601,-174.52327434973 215.034911524602,-144.267455762294 305.802367286897,-53.5 " style="fill: rgb(255,210,63); fill-opacity: 1; stroke: rgb(0,0,0); stroke-width: 3" />
	<polygon points="336.058185874347,-658.616371748674 336.058185874349,-744.192749722774 305.802367286916,-744.192749722774 305.802367286914,-658.616371748674 " style="fill: rgb(67,184,206); fill-opacity: 1; stroke: rgb(0,0,0); stroke-width: 3" />
	<polygon points="336.05818587434,-537.593097398931 336.058185874332,-356.058185874329 517.593097398946,-356.058185874325 517.593097398941,-477.081460224057 457.081460224068,-537.593097398925 " style="fill: rgb(255,210,63); fill-opacity: 1; stroke: rgb(0,0,0); stroke-width: 3" />
	<polygon points="154.523274349735,-235.034911524595 133.129179856211,-213.64081703107 193.640817031075,-153.129179856209 215.034911524601,-174.52327434973 " style="fill: rgb(67,184,206); fill-opacity: 1; stroke: rgb(0,0,0); stroke-width: 3" />
	<polygon points="215.034911524603,-567.848915986361 305.802367286914,-658.616371748674 283.653570856327,-741.276805354132 159.662920448133,-774.5 99.1512832732577,-713.988362825121 132.374477919138,-589.997712416934 " style="fill: rgb(238,66,102); fill-opacity: 1; stroke: rgb(0,0,0); stroke-width: 3" />
	<polygon points="154.52327434973,-477.081460224061 215.034911524602,-537.593097398929 193.640817031079,-558.987191892456 133.129179856207,-498.475554717583 " style="fill: rgb(67,184,206); fill-opacity: 1; stroke: rgb(0,0,0); stroke-width: 3" />
	<polygon points="154.523274349733,-356.058185874329 154.52327434973,-477.081460224061 124.267455762297,-477.081460224061 33.5,-386.314004461759 33.5000000000007,-356.058185874325 " style="fill: rgb(255,210,63); fill-opacity: 1; stroke: rgb(0,0,0); stroke-width: 3" />
	<circle cx="154.523274349733" cy="-356.058185874329" r="2" style="fill: rgb(0,0,0)" />
	<circle cx="336.058185874332" cy="-356.058185874329" r="2" style="fill: rgb(0,0,0)" />
	<circle cx="336.05818587434" cy="-537.593097398931" r="2" style="fill: rgb(0,0,0)" />
	<circle cx="215.034911524602" cy="-537.593097398929" r="2" style="fill: rgb(0,0,0)" />
	<circle cx="154.52327434973" cy="-477.081460224061" r="2" style="fill: rgb(0,0,0)" />
	<circle cx="154.523274349735" cy="-235.034911524595" r="2" style="fill: rgb(0,0,0)" />
	<circle cx="215.034911524601" cy="-174.52327434973" r="2" style="fill: rgb(0,0,0)" />
	<circle cx="336.058185874331" cy="-174.523274349731" r="2" style="fill: rgb(0,0,0)" />
	<circle cx="336.058185874347" cy="-658.616371748674" r="2" style="fill: rgb(0,0,0)" />
	<circle cx="305.802367286914" cy="-658.616371748674" r="2" style="fill: rgb(0,0,0)" />
	<circle cx="215.034911524603" cy="-567.848915986361" r="2" style="fill: rgb(0,0,0)" />
	<circle cx="517.593097398946" cy="-356.058185874325" r="2" style="fill: rgb(0,0,0)" />
	<circle cx="517.593097398941" cy="-477.081460224057" r="2" style="fill: rgb(0,0,0)" />
	<circle cx="457.081460224068" cy="-537.593097398925" r="2" style="fill: rgb(0,0,0)" />
	<circle cx="193.640817031079" cy="-558.987191892456" r="2" style="fill: rgb(0,0,0)" />
	<circle cx="133.129179856207" cy="-498.475554717583" r="2" style="fill: rgb(0,0,0)" />
	<circle cx="124.267455762297" cy="-477.081460224061" r="2" style="fill: rgb(0,0,0)" />
	<circle cx="33.5" cy="-386.314004461759" r="2" style="fill: rgb(0,0,0)" />
	<circle cx="33.5000000000007" cy="-356.058185874325" r="2" style="fill: rgb(0,0,0)" />
	<circle cx="215.034911524602" cy="-144.267455762294" r="2" style="fill: rgb(0,0,0)" />
	<circle cx="305.802367286897" cy="-53.5" r="2" style="fill: rgb(0,0,0)" />
	<circle cx="336.058185874329" cy="-53.5000000000019" r="2" style="fill: rgb(0,0,0)" />
	<circle cx="133.129179856211" cy="-213.64081703107" r="2" style="fill: rgb(0,0,0)" />
	<circle cx="193.640817031075" cy="-153.129179856209" r="2" style="fill: rgb(0,0,0)" />
	<circle cx="336.058185874349" cy="-744.192749722774" r="2" style="fill: rgb(0,0,0)" />
	<circle cx="305.802367286916" cy="-744.192749722774" r="2" style="fill: rgb(0,0,0)" />
	<circle cx="283.653570856327" cy="-741.276805354132" r="2" style="fill: rgb(0,0,0)" />
	<circle cx="159.662920448133" cy="-774.5" r="2" style="fill: rgb(0,0,0)" />
	<circle cx="99.1512832732577" cy="-713.988362825121" r="2" style="fill: rgb(0,0,0)" />
	<circle cx="132.374477919138" cy="-589.997712416934" r="2" style="fill: rgb(0,0,0)" />
	<!--
	Generated using the Perl SVG Module V2.87
	by Ronan Oger

	-->
</svg>