<?xml version="1.0" encoding="UTF-8" standalone="yes"?>
<!DOCTYPE svg PUBLIC "-//W3C//DTD SVG 1.0//EN" "http://www.w3.org/TR/2001/REC-SVG-20010904/DTD/svg10.dtd">
<!-- generated using polymake; Michael Joswig, Georg Loho, Benjamin Lorenz, Rico Raber; license CC BY-NC-ND 3.0; see polymake.org and matchthenet.de -->
<svg height="841pt" id="document" viewBox="0 -633.641505717158 572 633.641505717158" width="595pt" xmlns="http://www.w3.org/2000/svg" xmlns:svg="http://www.w3.org/2000/svg" xmlns:xlink="http://www.w3.org/1999/xlink">
	<title id="document_title">planar_net_</title>
	<polygon points="275.690746605195,-322.518340313283 319.309253394792,-322.518340313283 332.788113262038,-364.002005426594 297.499999999999,-389.640320444541 262.211886737956,-364.002005426597 " style="fill: rgb(255,210,63); fill-opacity: 1; stroke: rgb(0,0,0); stroke-width: 3" />
	<polygon points="341.118506789591,-284.743605358348 297.499999999994,-284.743605358348 284.021140132749,-243.259940245037 319.309253394788,-217.62162522709 354.597366656831,-243.259940245035 " style="fill: rgb(255,210,63); fill-opacity: 1; stroke: rgb(0,0,0); stroke-width: 3" />
	<polygon points="279.461764647999,-199.880380199513 244.173651385953,-174.24206518157 257.652511253191,-132.758400068258 301.271018042788,-132.758400068256 314.749877910041,-174.242065181565 " style="fill: rgb(255,210,63); fill-opacity: 1; stroke: rgb(0,0,0); stroke-width: 3" />
	<polygon points="438.06336219322,-120.621980131259 394.444855403622,-120.62198013126 380.965995536377,-79.1383150179479 416.254108798418,-53.5 451.542222060461,-79.1383150179447 " style="fill: rgb(255,210,63); fill-opacity: 1; stroke: rgb(0,0,0); stroke-width: 3" />
	<polygon points="222.364397991168,-486.63996554037 235.843257858413,-528.123630653682 200.555144596373,-553.761945671631 165.26703133433,-528.123630653686 178.74589120157,-486.639965540372 " style="fill: rgb(255,210,63); fill-opacity: 1; stroke: rgb(0,0,0); stroke-width: 3" />
	<polygon points="302.059375484749,-433.019880490066 337.347488746789,-407.381565472118 372.635602008836,-433.019880490059 359.1567421416,-474.503545603371 315.538235352002,-474.503545603374 " style="fill: rgb(255,210,63); fill-opacity: 1; stroke: rgb(0,0,0); stroke-width: 3" />
	<polygon points="375.453451025875,-373.070802924164 361.974591158628,-331.587137810854 397.262704420671,-305.948822792907 432.550817682716,-331.587137810846 419.071957815473,-373.070802924157 " style="fill: rgb(255,210,63); fill-opacity: 1; stroke: rgb(0,0,0); stroke-width: 3" />
	<polygon points="448.258435712069,-405.485670539896 461.73729557931,-364.002005426585 505.355802368909,-364.002005426581 518.83466223616,-405.485670539888 483.546548974117,-431.123985557834 " style="fill: rgb(255,210,63); fill-opacity: 1; stroke: rgb(0,0,0); stroke-width: 3" />
	<polygon points="222.364397991166,-381.743250454179 257.65251125321,-407.381565472122 244.173651385967,-448.865230585434 200.555144596372,-448.86523058544 187.076284729127,-407.381565472129 " style="fill: rgb(255,210,63); fill-opacity: 1; stroke: rgb(0,0,0); stroke-width: 3" />
	<polygon points="246.504268708598,-290.103472697549 233.025408841361,-331.587137810861 189.406902051763,-331.58713781087 175.928042184507,-290.103472697564 211.216155446546,-264.465157679614 " style="fill: rgb(255,210,63); fill-opacity: 1; stroke: rgb(0,0,0); stroke-width: 3" />
	<polygon points="146.741564287924,-322.51834031331 111.453451025886,-348.156655331264 76.1653377638356,-322.518340313333 89.6441976310702,-281.034675200019 133.262704420668,-281.034675200003 " style="fill: rgb(255,210,63); fill-opacity: 1; stroke: rgb(0,0,0); stroke-width: 3" />
	<polygon points="429.732968665662,-199.880380199503 394.444855403622,-225.518695217453 359.156742141578,-199.88038019951 372.635602008822,-158.396715086197 416.254108798417,-158.396715086192 " style="fill: rgb(255,210,63); fill-opacity: 1; stroke: rgb(0,0,0); stroke-width: 3" />
	<polygon points="253.881493210397,-284.743605358348 232.072239815598,-246.968870403413 275.690746605196,-246.968870403413 " style="fill: rgb(14,173,105); fill-opacity: 1; stroke: rgb(0,0,0); stroke-width: 3" />
	<polygon points="284.021140132749,-243.259940245037 244.173651385958,-225.51869521746 279.461764647999,-199.880380199513 " style="fill: rgb(14,173,105); fill-opacity: 1; stroke: rgb(0,0,0); stroke-width: 3" />
	<polygon points="341.118506789591,-284.743605358348 319.309253394792,-322.518340313283 297.499999999994,-284.743605358348 " style="fill: rgb(14,173,105); fill-opacity: 1; stroke: rgb(0,0,0); stroke-width: 3" />
	<polygon points="297.499999999994,-284.743605358348 319.309253394792,-322.518340313283 275.690746605195,-322.518340313283 " style="fill: rgb(14,173,105); fill-opacity: 1; stroke: rgb(0,0,0); stroke-width: 3" />
	<polygon points="211.216155446546,-264.465157679614 171.368666699753,-246.723912652041 206.65677996179,-221.08559763409 " style="fill: rgb(14,173,105); fill-opacity: 1; stroke: rgb(0,0,0); stroke-width: 3" />
	<polygon points="211.216155446546,-264.465157679614 175.928042184507,-290.103472697564 171.368666699753,-246.723912652041 " style="fill: rgb(14,173,105); fill-opacity: 1; stroke: rgb(0,0,0); stroke-width: 3" />
	<polygon points="319.309253394788,-217.62162522709 279.461764647999,-199.880380199513 314.749877910041,-174.242065181565 " style="fill: rgb(14,173,105); fill-opacity: 1; stroke: rgb(0,0,0); stroke-width: 3" />
	<polygon points="275.690746605195,-322.518340313283 262.211886737956,-364.002005426597 233.025408841361,-331.587137810861 " style="fill: rgb(14,173,105); fill-opacity: 1; stroke: rgb(0,0,0); stroke-width: 3" />
	<polygon points="361.974591158628,-331.587137810854 319.309253394792,-322.518340313283 348.495731291383,-290.103472697543 " style="fill: rgb(14,173,105); fill-opacity: 1; stroke: rgb(0,0,0); stroke-width: 3" />
	<polygon points="359.156742141578,-199.88038019951 319.309253394788,-217.62162522709 323.868628879535,-174.242065181565 " style="fill: rgb(14,173,105); fill-opacity: 1; stroke: rgb(0,0,0); stroke-width: 3" />
	<polygon points="354.597366656831,-243.259940245035 319.309253394788,-217.62162522709 359.156742141578,-199.88038019951 " style="fill: rgb(14,173,105); fill-opacity: 1; stroke: rgb(0,0,0); stroke-width: 3" />
	<polygon points="233.025408841361,-331.587137810861 219.546548974121,-373.070802924174 190.360071077526,-340.655935308439 " style="fill: rgb(14,173,105); fill-opacity: 1; stroke: rgb(0,0,0); stroke-width: 3" />
	<polygon points="171.368666699753,-246.723912652041 175.928042184507,-290.103472697564 136.080553437713,-272.362227669992 " style="fill: rgb(14,173,105); fill-opacity: 1; stroke: rgb(0,0,0); stroke-width: 3" />
	<polygon points="359.156742141578,-199.88038019951 323.868628879535,-174.242065181565 363.716117626325,-156.500820153983 " style="fill: rgb(14,173,105); fill-opacity: 1; stroke: rgb(0,0,0); stroke-width: 3" />
	<polygon points="233.025408841361,-331.587137810861 262.211886737956,-364.002005426597 219.546548974121,-373.070802924174 " style="fill: rgb(14,173,105); fill-opacity: 1; stroke: rgb(0,0,0); stroke-width: 3" />
	<polygon points="175.928042184507,-290.103472697564 189.406902051763,-331.58713781087 146.741564287924,-322.51834031331 " style="fill: rgb(14,173,105); fill-opacity: 1; stroke: rgb(0,0,0); stroke-width: 3" />
	<polygon points="361.974591158628,-331.587137810854 348.495731291383,-290.103472697543 391.16106905522,-299.172270195113 " style="fill: rgb(14,173,105); fill-opacity: 1; stroke: rgb(0,0,0); stroke-width: 3" />
	<polygon points="383.783844553427,-275.67480786077 341.118506789591,-284.743605358348 354.597366656831,-243.259940245035 " style="fill: rgb(14,173,105); fill-opacity: 1; stroke: rgb(0,0,0); stroke-width: 3" />
	<polygon points="262.211886737956,-364.002005426597 297.499999999999,-389.640320444541 257.65251125321,-407.381565472122 " style="fill: rgb(14,173,105); fill-opacity: 1; stroke: rgb(0,0,0); stroke-width: 3" />
	<polygon points="332.788113262038,-364.002005426594 319.309253394792,-322.518340313283 361.974591158628,-331.587137810854 " style="fill: rgb(14,173,105); fill-opacity: 1; stroke: rgb(0,0,0); stroke-width: 3" />
	<polygon points="262.211886737956,-364.002005426597 257.65251125321,-407.381565472122 222.364397991166,-381.743250454179 " style="fill: rgb(14,173,105); fill-opacity: 1; stroke: rgb(0,0,0); stroke-width: 3" />
	<polygon points="175.928042184507,-290.103472697564 146.741564287924,-322.51834031331 133.262704420668,-281.034675200003 " style="fill: rgb(14,173,105); fill-opacity: 1; stroke: rgb(0,0,0); stroke-width: 3" />
	<polygon points="190.360071077526,-340.655935308439 176.881211210286,-382.139600421752 147.69473331369,-349.724732806017 " style="fill: rgb(14,173,105); fill-opacity: 1; stroke: rgb(0,0,0); stroke-width: 3" />
	<polygon points="297.499999999994,-284.743605358348 253.881493210397,-284.743605358348 275.690746605196,-246.968870403413 " style="fill: rgb(14,173,105); fill-opacity: 1; stroke: rgb(0,0,0); stroke-width: 3" />
	<polygon points="257.65251125321,-407.381565472122 297.499999999999,-389.640320444541 292.940624515253,-433.019880490066 " style="fill: rgb(14,173,105); fill-opacity: 1; stroke: rgb(0,0,0); stroke-width: 3" />
	<polygon points="275.690746605195,-322.518340313283 253.881493210397,-284.743605358348 297.499999999994,-284.743605358348 " style="fill: rgb(14,173,105); fill-opacity: 1; stroke: rgb(0,0,0); stroke-width: 3" />
	<polygon points="171.368666699753,-246.723912652041 136.080553437713,-272.362227669992 131.521177952958,-228.982667624468 " style="fill: rgb(14,173,105); fill-opacity: 1; stroke: rgb(0,0,0); stroke-width: 3" />
	<polygon points="319.309253394788,-217.62162522709 284.021140132749,-243.259940245037 279.461764647999,-199.880380199513 " style="fill: rgb(14,173,105); fill-opacity: 1; stroke: rgb(0,0,0); stroke-width: 3" />
	<polygon points="275.690746605195,-322.518340313283 233.025408841361,-331.587137810861 246.504268708598,-290.103472697549 " style="fill: rgb(14,173,105); fill-opacity: 1; stroke: rgb(0,0,0); stroke-width: 3" />
	<polygon points="323.868628879535,-174.242065181565 328.428004364281,-130.862505136039 363.716117626325,-156.500820153983 " style="fill: rgb(14,173,105); fill-opacity: 1; stroke: rgb(0,0,0); stroke-width: 3" />
	<polygon points="354.597366656831,-243.259940245035 359.156742141578,-199.88038019951 394.444855403622,-225.518695217453 " style="fill: rgb(14,173,105); fill-opacity: 1; stroke: rgb(0,0,0); stroke-width: 3" />
	<polygon points="383.783844553427,-275.67480786077 354.597366656831,-243.259940245035 397.262704420666,-234.191142747456 " style="fill: rgb(14,173,105); fill-opacity: 1; stroke: rgb(0,0,0); stroke-width: 3" />
	<polygon points="219.546548974121,-373.070802924174 176.881211210286,-382.139600421752 190.360071077526,-340.655935308439 " style="fill: rgb(14,173,105); fill-opacity: 1; stroke: rgb(0,0,0); stroke-width: 3" />
	<polygon points="297.499999999999,-389.640320444541 337.347488746789,-407.381565472118 302.059375484749,-433.019880490066 " style="fill: rgb(14,173,105); fill-opacity: 1; stroke: rgb(0,0,0); stroke-width: 3" />
	<polygon points="187.076284729127,-407.381565472129 157.889806832535,-439.796433087871 144.410946965288,-398.312767974562 " style="fill: rgb(14,173,105); fill-opacity: 1; stroke: rgb(0,0,0); stroke-width: 3" />
	<polygon points="332.788113262038,-364.002005426594 361.974591158628,-331.587137810854 375.453451025875,-373.070802924164 " style="fill: rgb(14,173,105); fill-opacity: 1; stroke: rgb(0,0,0); stroke-width: 3" />
	<polygon points="257.65251125321,-407.381565472122 292.940624515253,-433.019880490066 253.093135768465,-450.761125517647 " style="fill: rgb(14,173,105); fill-opacity: 1; stroke: rgb(0,0,0); stroke-width: 3" />
	<polygon points="432.550817682716,-331.587137810846 397.262704420671,-305.948822792907 437.11019316746,-288.207577765322 " style="fill: rgb(14,173,105); fill-opacity: 1; stroke: rgb(0,0,0); stroke-width: 3" />
	<polygon points="368.275493111071,-113.121260108456 363.716117626325,-156.500820153983 328.428004364281,-130.862505136039 " style="fill: rgb(14,173,105); fill-opacity: 1; stroke: rgb(0,0,0); stroke-width: 3" />
	<polygon points="301.271018042788,-132.758400068256 257.652511253191,-132.758400068258 279.461764647989,-94.9836651133209 " style="fill: rgb(14,173,105); fill-opacity: 1; stroke: rgb(0,0,0); stroke-width: 3" />
	<polygon points="432.550817682716,-331.587137810846 437.11019316746,-288.207577765322 472.398306429507,-313.845892783264 " style="fill: rgb(14,173,105); fill-opacity: 1; stroke: rgb(0,0,0); stroke-width: 3" />
	<polygon points="297.499999999999,-389.640320444541 332.788113262038,-364.002005426594 337.347488746789,-407.381565472118 " style="fill: rgb(14,173,105); fill-opacity: 1; stroke: rgb(0,0,0); stroke-width: 3" />
	<polygon points="136.080553437713,-272.362227669992 96.2330646909185,-254.62098264242 131.521177952958,-228.982667624468 " style="fill: rgb(14,173,105); fill-opacity: 1; stroke: rgb(0,0,0); stroke-width: 3" />
	<polygon points="257.652511253191,-132.758400068258 235.843257858391,-94.9836651133215 279.461764647989,-94.9836651133209 " style="fill: rgb(14,173,105); fill-opacity: 1; stroke: rgb(0,0,0); stroke-width: 3" />
	<polygon points="337.347488746789,-407.381565472118 332.788113262038,-364.002005426594 372.63560200883,-381.74325045417 " style="fill: rgb(14,173,105); fill-opacity: 1; stroke: rgb(0,0,0); stroke-width: 3" />
	<polygon points="458.919446562254,-167.46551258376 416.254108798417,-158.396715086192 445.440586695008,-125.981847470448 " style="fill: rgb(14,173,105); fill-opacity: 1; stroke: rgb(0,0,0); stroke-width: 3" />
	<polygon points="301.271018042788,-132.758400068256 279.461764647989,-94.9836651133209 323.080271437586,-94.9836651133173 " style="fill: rgb(14,173,105); fill-opacity: 1; stroke: rgb(0,0,0); stroke-width: 3" />
	<polygon points="375.453451025875,-373.070802924164 419.071957815473,-373.070802924157 397.262704420676,-410.845537879093 " style="fill: rgb(14,173,105); fill-opacity: 1; stroke: rgb(0,0,0); stroke-width: 3" />
	<polygon points="416.254108798417,-158.396715086192 372.635602008822,-158.396715086197 394.444855403622,-120.62198013126 " style="fill: rgb(14,173,105); fill-opacity: 1; stroke: rgb(0,0,0); stroke-width: 3" />
	<polygon points="187.076284729127,-407.381565472129 200.555144596372,-448.86523058544 157.889806832535,-439.796433087871 " style="fill: rgb(14,173,105); fill-opacity: 1; stroke: rgb(0,0,0); stroke-width: 3" />
	<polygon points="419.071957815473,-373.070802924157 432.550817682716,-331.587137810846 461.73729557931,-364.002005426585 " style="fill: rgb(14,173,105); fill-opacity: 1; stroke: rgb(0,0,0); stroke-width: 3" />
	<polygon points="157.889806832535,-439.796433087871 171.368666699782,-481.280098201183 128.703328935944,-472.211300703615 " style="fill: rgb(14,173,105); fill-opacity: 1; stroke: rgb(0,0,0); stroke-width: 3" />
	<polygon points="89.6441976310702,-281.034675200019 46.9788598672342,-290.103472697601 60.4577197344657,-248.619807584286 " style="fill: rgb(14,173,105); fill-opacity: 1; stroke: rgb(0,0,0); stroke-width: 3" />
	<polygon points="416.254108798417,-158.396715086192 394.444855403622,-120.62198013126 438.06336219322,-120.621980131259 " style="fill: rgb(14,173,105); fill-opacity: 1; stroke: rgb(0,0,0); stroke-width: 3" />
	<polygon points="157.889806832535,-439.796433087871 200.555144596372,-448.86523058544 171.368666699782,-481.280098201183 " style="fill: rgb(14,173,105); fill-opacity: 1; stroke: rgb(0,0,0); stroke-width: 3" />
	<polygon points="461.73729557931,-364.002005426585 432.550817682716,-331.587137810846 475.216155446553,-322.518340313273 " style="fill: rgb(14,173,105); fill-opacity: 1; stroke: rgb(0,0,0); stroke-width: 3" />
	<polygon points="359.1567421416,-474.503545603371 372.635602008836,-433.019880490059 401.822079905434,-465.434748105795 " style="fill: rgb(14,173,105); fill-opacity: 1; stroke: rgb(0,0,0); stroke-width: 3" />
	<polygon points="337.347488746789,-407.381565472118 372.63560200883,-381.74325045417 377.194977493582,-425.122810499694 " style="fill: rgb(14,173,105); fill-opacity: 1; stroke: rgb(0,0,0); stroke-width: 3" />
	<polygon points="200.555144596372,-448.86523058544 222.364397991168,-486.63996554037 178.74589120157,-486.639965540372 " style="fill: rgb(14,173,105); fill-opacity: 1; stroke: rgb(0,0,0); stroke-width: 3" />
	<polygon points="292.940624515253,-433.019880490066 288.381249030509,-476.399440535592 253.093135768465,-450.761125517647 " style="fill: rgb(14,173,105); fill-opacity: 1; stroke: rgb(0,0,0); stroke-width: 3" />
	<polygon points="419.071957815473,-373.070802924157 461.73729557931,-364.002005426585 448.258435712069,-405.485670539896 " style="fill: rgb(14,173,105); fill-opacity: 1; stroke: rgb(0,0,0); stroke-width: 3" />
	<polygon points="89.6441976310702,-281.034675200019 76.1653377638356,-322.518340313333 46.9788598672342,-290.103472697601 " style="fill: rgb(14,173,105); fill-opacity: 1; stroke: rgb(0,0,0); stroke-width: 3" />
	<polygon points="200.555144596372,-448.86523058544 244.173651385967,-448.865230585434 222.364397991168,-486.63996554037 " style="fill: rgb(14,173,105); fill-opacity: 1; stroke: rgb(0,0,0); stroke-width: 3" />
	<polygon points="397.262704420676,-410.845537879093 419.071957815473,-373.070802924157 440.881211210275,-410.845537879092 " style="fill: rgb(14,173,105); fill-opacity: 1; stroke: rgb(0,0,0); stroke-width: 3" />
	<polygon points="429.732968665662,-199.880380199503 416.254108798417,-158.396715086192 458.919446562254,-167.46551258376 " style="fill: rgb(14,173,105); fill-opacity: 1; stroke: rgb(0,0,0); stroke-width: 3" />
	<polygon points="461.73729557931,-364.002005426585 475.216155446553,-322.518340313273 504.402633343148,-354.933207929011 " style="fill: rgb(14,173,105); fill-opacity: 1; stroke: rgb(0,0,0); stroke-width: 3" />
	<polygon points="244.173651385967,-448.865230585434 265.982904780765,-486.63996554037 222.364397991168,-486.63996554037 " style="fill: rgb(14,173,105); fill-opacity: 1; stroke: rgb(0,0,0); stroke-width: 3" />
	<polygon points="171.368666699782,-481.280098201183 142.182188803192,-513.694965816927 128.703328935944,-472.211300703615 " style="fill: rgb(14,173,105); fill-opacity: 1; stroke: rgb(0,0,0); stroke-width: 3" />
	<polygon points="518.83466223616,-405.485670539888 505.355802368909,-364.002005426581 548.021140132749,-373.070802924146 " style="fill: rgb(14,173,105); fill-opacity: 1; stroke: rgb(0,0,0); stroke-width: 3" />
	<polygon points="483.546548974117,-431.123985557834 518.83466223616,-405.485670539888 523.394037720911,-448.865230585412 " style="fill: rgb(14,173,105); fill-opacity: 1; stroke: rgb(0,0,0); stroke-width: 3" />
	<polygon points="76.1653377638356,-322.518340313333 33.5,-331.587137810916 46.9788598672342,-290.103472697601 " style="fill: rgb(14,173,105); fill-opacity: 1; stroke: rgb(0,0,0); stroke-width: 3" />
	<polygon points="518.83466223616,-405.485670539888 548.021140132749,-373.070802924146 561.5,-414.554468037456 " style="fill: rgb(14,173,105); fill-opacity: 1; stroke: rgb(0,0,0); stroke-width: 3" />
	<polygon points="359.1567421416,-474.503545603371 401.822079905434,-465.434748105795 388.343220038196,-506.918413219109 " style="fill: rgb(14,173,105); fill-opacity: 1; stroke: rgb(0,0,0); stroke-width: 3" />
	<polygon points="165.26703133433,-528.123630653686 160.707655849583,-571.503190699213 125.419542587539,-545.864875681272 " style="fill: rgb(14,173,105); fill-opacity: 1; stroke: rgb(0,0,0); stroke-width: 3" />
	<polygon points="165.26703133433,-528.123630653686 200.555144596373,-553.761945671631 160.707655849583,-571.503190699213 " style="fill: rgb(14,173,105); fill-opacity: 1; stroke: rgb(0,0,0); stroke-width: 3" />
	<polygon points="200.555144596373,-553.761945671631 195.995769111628,-597.141505717158 160.707655849583,-571.503190699213 " style="fill: rgb(14,173,105); fill-opacity: 1; stroke: rgb(0,0,0); stroke-width: 3" />
	<polygon points="337.347488746802,-512.278280558308 359.1567421416,-474.503545603371 380.965995536401,-512.278280558307 " style="fill: rgb(14,173,105); fill-opacity: 1; stroke: rgb(0,0,0); stroke-width: 3" />
	<polygon points="337.347488746802,-512.278280558308 380.965995536401,-512.278280558307 359.156742141604,-550.053015513244 " style="fill: rgb(14,173,105); fill-opacity: 1; stroke: rgb(0,0,0); stroke-width: 3" />
	<polygon points="315.538235352002,-474.503545603374 337.347488746802,-512.278280558308 293.728981957206,-512.278280558312 " style="fill: rgb(14,173,105); fill-opacity: 1; stroke: rgb(0,0,0); stroke-width: 3" />
	<polygon points="315.538235352002,-474.503545603374 359.1567421416,-474.503545603371 337.347488746802,-512.278280558308 " style="fill: rgb(14,173,105); fill-opacity: 1; stroke: rgb(0,0,0); stroke-width: 3" />
	<circle cx="275.690746605195" cy="-322.518340313283" r="2" style="fill: rgb(0,0,0)" />
	<circle cx="319.309253394792" cy="-322.518340313283" r="2" style="fill: rgb(0,0,0)" />
	<circle cx="332.788113262038" cy="-364.002005426594" r="2" style="fill: rgb(0,0,0)" />
	<circle cx="297.499999999999" cy="-389.640320444541" r="2" style="fill: rgb(0,0,0)" />
	<circle cx="262.211886737956" cy="-364.002005426597" r="2" style="fill: rgb(0,0,0)" />
	<circle cx="297.499999999994" cy="-284.743605358348" r="2" style="fill: rgb(0,0,0)" />
	<circle cx="233.025408841361" cy="-331.587137810861" r="2" style="fill: rgb(0,0,0)" />
	<circle cx="257.65251125321" cy="-407.381565472122" r="2" style="fill: rgb(0,0,0)" />
	<circle cx="361.974591158628" cy="-331.587137810854" r="2" style="fill: rgb(0,0,0)" />
	<circle cx="337.347488746789" cy="-407.381565472118" r="2" style="fill: rgb(0,0,0)" />
	<circle cx="341.118506789591" cy="-284.743605358348" r="2" style="fill: rgb(0,0,0)" />
	<circle cx="253.881493210397" cy="-284.743605358348" r="2" style="fill: rgb(0,0,0)" />
	<circle cx="219.546548974121" cy="-373.070802924174" r="2" style="fill: rgb(0,0,0)" />
	<circle cx="246.504268708598" cy="-290.103472697549" r="2" style="fill: rgb(0,0,0)" />
	<circle cx="222.364397991166" cy="-381.743250454179" r="2" style="fill: rgb(0,0,0)" />
	<circle cx="292.940624515253" cy="-433.019880490066" r="2" style="fill: rgb(0,0,0)" />
	<circle cx="348.495731291383" cy="-290.103472697543" r="2" style="fill: rgb(0,0,0)" />
	<circle cx="375.453451025875" cy="-373.070802924164" r="2" style="fill: rgb(0,0,0)" />
	<circle cx="302.059375484749" cy="-433.019880490066" r="2" style="fill: rgb(0,0,0)" />
	<circle cx="372.63560200883" cy="-381.74325045417" r="2" style="fill: rgb(0,0,0)" />
	<circle cx="284.021140132749" cy="-243.259940245037" r="2" style="fill: rgb(0,0,0)" />
	<circle cx="319.309253394788" cy="-217.62162522709" r="2" style="fill: rgb(0,0,0)" />
	<circle cx="354.597366656831" cy="-243.259940245035" r="2" style="fill: rgb(0,0,0)" />
	<circle cx="275.690746605196" cy="-246.968870403413" r="2" style="fill: rgb(0,0,0)" />
	<circle cx="190.360071077526" cy="-340.655935308439" r="2" style="fill: rgb(0,0,0)" />
	<circle cx="189.406902051763" cy="-331.58713781087" r="2" style="fill: rgb(0,0,0)" />
	<circle cx="175.928042184507" cy="-290.103472697564" r="2" style="fill: rgb(0,0,0)" />
	<circle cx="211.216155446546" cy="-264.465157679614" r="2" style="fill: rgb(0,0,0)" />
	<circle cx="244.173651385967" cy="-448.865230585434" r="2" style="fill: rgb(0,0,0)" />
	<circle cx="200.555144596372" cy="-448.86523058544" r="2" style="fill: rgb(0,0,0)" />
	<circle cx="187.076284729127" cy="-407.381565472129" r="2" style="fill: rgb(0,0,0)" />
	<circle cx="253.093135768465" cy="-450.761125517647" r="2" style="fill: rgb(0,0,0)" />
	<circle cx="391.16106905522" cy="-299.172270195113" r="2" style="fill: rgb(0,0,0)" />
	<circle cx="397.262704420671" cy="-305.948822792907" r="2" style="fill: rgb(0,0,0)" />
	<circle cx="432.550817682716" cy="-331.587137810846" r="2" style="fill: rgb(0,0,0)" />
	<circle cx="419.071957815473" cy="-373.070802924157" r="2" style="fill: rgb(0,0,0)" />
	<circle cx="372.635602008836" cy="-433.019880490059" r="2" style="fill: rgb(0,0,0)" />
	<circle cx="359.1567421416" cy="-474.503545603371" r="2" style="fill: rgb(0,0,0)" />
	<circle cx="315.538235352002" cy="-474.503545603374" r="2" style="fill: rgb(0,0,0)" />
	<circle cx="377.194977493582" cy="-425.122810499694" r="2" style="fill: rgb(0,0,0)" />
	<circle cx="359.156742141578" cy="-199.88038019951" r="2" style="fill: rgb(0,0,0)" />
	<circle cx="383.783844553427" cy="-275.67480786077" r="2" style="fill: rgb(0,0,0)" />
	<circle cx="279.461764647999" cy="-199.880380199513" r="2" style="fill: rgb(0,0,0)" />
	<circle cx="232.072239815598" cy="-246.968870403413" r="2" style="fill: rgb(0,0,0)" />
	<circle cx="176.881211210286" cy="-382.139600421752" r="2" style="fill: rgb(0,0,0)" />
	<circle cx="171.368666699753" cy="-246.723912652041" r="2" style="fill: rgb(0,0,0)" />
	<circle cx="146.741564287924" cy="-322.51834031331" r="2" style="fill: rgb(0,0,0)" />
	<circle cx="157.889806832535" cy="-439.796433087871" r="2" style="fill: rgb(0,0,0)" />
	<circle cx="222.364397991168" cy="-486.63996554037" r="2" style="fill: rgb(0,0,0)" />
	<circle cx="288.381249030509" cy="-476.399440535592" r="2" style="fill: rgb(0,0,0)" />
	<circle cx="437.11019316746" cy="-288.207577765322" r="2" style="fill: rgb(0,0,0)" />
	<circle cx="397.262704420676" cy="-410.845537879093" r="2" style="fill: rgb(0,0,0)" />
	<circle cx="461.73729557931" cy="-364.002005426585" r="2" style="fill: rgb(0,0,0)" />
	<circle cx="401.822079905434" cy="-465.434748105795" r="2" style="fill: rgb(0,0,0)" />
	<circle cx="337.347488746802" cy="-512.278280558308" r="2" style="fill: rgb(0,0,0)" />
	<circle cx="323.868628879535" cy="-174.242065181565" r="2" style="fill: rgb(0,0,0)" />
	<circle cx="394.444855403622" cy="-225.518695217453" r="2" style="fill: rgb(0,0,0)" />
	<circle cx="397.262704420666" cy="-234.191142747456" r="2" style="fill: rgb(0,0,0)" />
	<circle cx="244.173651385958" cy="-225.51869521746" r="2" style="fill: rgb(0,0,0)" />
	<circle cx="314.749877910041" cy="-174.242065181565" r="2" style="fill: rgb(0,0,0)" />
	<circle cx="147.69473331369" cy="-349.724732806017" r="2" style="fill: rgb(0,0,0)" />
	<circle cx="206.65677996179" cy="-221.08559763409" r="2" style="fill: rgb(0,0,0)" />
	<circle cx="136.080553437713" cy="-272.362227669992" r="2" style="fill: rgb(0,0,0)" />
	<circle cx="133.262704420668" cy="-281.034675200003" r="2" style="fill: rgb(0,0,0)" />
	<circle cx="144.410946965288" cy="-398.312767974562" r="2" style="fill: rgb(0,0,0)" />
	<circle cx="171.368666699782" cy="-481.280098201183" r="2" style="fill: rgb(0,0,0)" />
	<circle cx="178.74589120157" cy="-486.639965540372" r="2" style="fill: rgb(0,0,0)" />
	<circle cx="265.982904780765" cy="-486.63996554037" r="2" style="fill: rgb(0,0,0)" />
	<circle cx="472.398306429507" cy="-313.845892783264" r="2" style="fill: rgb(0,0,0)" />
	<circle cx="440.881211210275" cy="-410.845537879092" r="2" style="fill: rgb(0,0,0)" />
	<circle cx="475.216155446553" cy="-322.518340313273" r="2" style="fill: rgb(0,0,0)" />
	<circle cx="448.258435712069" cy="-405.485670539896" r="2" style="fill: rgb(0,0,0)" />
	<circle cx="388.343220038196" cy="-506.918413219109" r="2" style="fill: rgb(0,0,0)" />
	<circle cx="380.965995536401" cy="-512.278280558307" r="2" style="fill: rgb(0,0,0)" />
	<circle cx="293.728981957206" cy="-512.278280558312" r="2" style="fill: rgb(0,0,0)" />
	<circle cx="363.716117626325" cy="-156.500820153983" r="2" style="fill: rgb(0,0,0)" />
	<circle cx="372.635602008822" cy="-158.396715086197" r="2" style="fill: rgb(0,0,0)" />
	<circle cx="416.254108798417" cy="-158.396715086192" r="2" style="fill: rgb(0,0,0)" />
	<circle cx="429.732968665662" cy="-199.880380199503" r="2" style="fill: rgb(0,0,0)" />
	<circle cx="244.173651385953" cy="-174.24206518157" r="2" style="fill: rgb(0,0,0)" />
	<circle cx="257.652511253191" cy="-132.758400068258" r="2" style="fill: rgb(0,0,0)" />
	<circle cx="301.271018042788" cy="-132.758400068256" r="2" style="fill: rgb(0,0,0)" />
	<circle cx="131.521177952958" cy="-228.982667624468" r="2" style="fill: rgb(0,0,0)" />
	<circle cx="111.453451025886" cy="-348.156655331264" r="2" style="fill: rgb(0,0,0)" />
	<circle cx="76.1653377638356" cy="-322.518340313333" r="2" style="fill: rgb(0,0,0)" />
	<circle cx="89.6441976310702" cy="-281.034675200019" r="2" style="fill: rgb(0,0,0)" />
	<circle cx="128.703328935944" cy="-472.211300703615" r="2" style="fill: rgb(0,0,0)" />
	<circle cx="235.843257858413" cy="-528.123630653682" r="2" style="fill: rgb(0,0,0)" />
	<circle cx="200.555144596373" cy="-553.761945671631" r="2" style="fill: rgb(0,0,0)" />
	<circle cx="165.26703133433" cy="-528.123630653686" r="2" style="fill: rgb(0,0,0)" />
	<circle cx="504.402633343148" cy="-354.933207929011" r="2" style="fill: rgb(0,0,0)" />
	<circle cx="505.355802368909" cy="-364.002005426581" r="2" style="fill: rgb(0,0,0)" />
	<circle cx="518.83466223616" cy="-405.485670539888" r="2" style="fill: rgb(0,0,0)" />
	<circle cx="483.546548974117" cy="-431.123985557834" r="2" style="fill: rgb(0,0,0)" />
	<circle cx="359.156742141604" cy="-550.053015513244" r="2" style="fill: rgb(0,0,0)" />
	<circle cx="328.428004364281" cy="-130.862505136039" r="2" style="fill: rgb(0,0,0)" />
	<circle cx="394.444855403622" cy="-120.62198013126" r="2" style="fill: rgb(0,0,0)" />
	<circle cx="458.919446562254" cy="-167.46551258376" r="2" style="fill: rgb(0,0,0)" />
	<circle cx="279.461764647989" cy="-94.9836651133209" r="2" style="fill: rgb(0,0,0)" />
	<circle cx="96.2330646909185" cy="-254.62098264242" r="2" style="fill: rgb(0,0,0)" />
	<circle cx="46.9788598672342" cy="-290.103472697601" r="2" style="fill: rgb(0,0,0)" />
	<circle cx="142.182188803192" cy="-513.694965816927" r="2" style="fill: rgb(0,0,0)" />
	<circle cx="160.707655849583" cy="-571.503190699213" r="2" style="fill: rgb(0,0,0)" />
	<circle cx="548.021140132749" cy="-373.070802924146" r="2" style="fill: rgb(0,0,0)" />
	<circle cx="523.394037720911" cy="-448.865230585412" r="2" style="fill: rgb(0,0,0)" />
	<circle cx="368.275493111071" cy="-113.121260108456" r="2" style="fill: rgb(0,0,0)" />
	<circle cx="438.06336219322" cy="-120.621980131259" r="2" style="fill: rgb(0,0,0)" />
	<circle cx="445.440586695008" cy="-125.981847470448" r="2" style="fill: rgb(0,0,0)" />
	<circle cx="235.843257858391" cy="-94.9836651133215" r="2" style="fill: rgb(0,0,0)" />
	<circle cx="323.080271437586" cy="-94.9836651133173" r="2" style="fill: rgb(0,0,0)" />
	<circle cx="60.4577197344657" cy="-248.619807584286" r="2" style="fill: rgb(0,0,0)" />
	<circle cx="33.5" cy="-331.587137810916" r="2" style="fill: rgb(0,0,0)" />
	<circle cx="125.419542587539" cy="-545.864875681272" r="2" style="fill: rgb(0,0,0)" />
	<circle cx="195.995769111628" cy="-597.141505717158" r="2" style="fill: rgb(0,0,0)" />
	<circle cx="561.5" cy="-414.554468037456" r="2" style="fill: rgb(0,0,0)" />
	<circle cx="380.965995536377" cy="-79.1383150179479" r="2" style="fill: rgb(0,0,0)" />
	<circle cx="416.254108798418" cy="-53.5" r="2" style="fill: rgb(0,0,0)" />
	<circle cx="451.542222060461" cy="-79.1383150179447" r="2" style="fill: rgb(0,0,0)" />
	<!--
	Generated using the Perl SVG Module V2.84
	by Ronan Oger
	Info: http://www.roitsystems.com/
	-->
</svg>