<?xml version="1.0" encoding="UTF-8" standalone="yes"?>
<!DOCTYPE svg PUBLIC "-//W3C//DTD SVG 1.0//EN" "http://www.w3.org/TR/2001/REC-SVG-20010904/DTD/svg10.dtd">
<!-- generated using polymake; Michael Joswig, Georg Loho, Benjamin Lorenz, Rico Raber; license CC BY-NC-ND 3.0; see polymake.org and matchthenet.de -->
<svg height="841pt" id="document" viewBox="0 -737.998963027917 572 737.998963027917" width="595pt" xmlns="http://www.w3.org/2000/svg" xmlns:svg="http://www.w3.org/2000/svg" xmlns:xlink="http://www.w3.org/1999/xlink">
	<title id="document_title">planar_net_</title>
	<polygon points="316.716676301842,-386.705373965372 353.477422422885,-386.705373965372 383.217490760713,-438.21668334706 364.837117700199,-470.05242334996 328.076371579161,-470.052423349964 298.33630324133,-418.541113968274 " style="fill: rgb(14,173,105); fill-opacity: 1; stroke: rgb(0,0,0); stroke-width: 3" />
	<polygon points="342.11772714558,-351.743826823082 353.477422422885,-386.705373965372 316.716676301842,-386.705373965372 268.596234903494,-351.743826823082 257.236539626188,-316.782279680792 293.997285747231,-316.782279680792 " style="fill: rgb(14,173,105); fill-opacity: 1; stroke: rgb(0,0,0); stroke-width: 3" />
	<polygon points="383.217490760713,-438.21668334706 353.477422422885,-386.705373965372 357.319966723491,-350.14600705792 390.902579361923,-365.097949532156 420.64264769975,-416.609258913844 416.800103399145,-453.168625821295 " style="fill: rgb(14,173,105); fill-opacity: 1; stroke: rgb(0,0,0); stroke-width: 3" />
	<polygon points="364.837117700199,-470.05242334996 383.217490760713,-438.21668334706 407.815231102902,-465.535241607594 414.0325983846,-524.689539871027 395.652225324101,-556.525279873925 371.054484981903,-529.206721613391 " style="fill: rgb(14,173,105); fill-opacity: 1; stroke: rgb(0,0,0); stroke-width: 3" />
	<polygon points="416.800103399145,-453.168625821295 420.64264769975,-416.609258913844 454.225260338186,-401.657316439607 502.345701736559,-436.618863581876 498.50315743596,-473.17823048932 464.920544797519,-488.130172963562 " style="fill: rgb(14,173,105); fill-opacity: 1; stroke: rgb(0,0,0); stroke-width: 3" />
	<polygon points="375.70033978401,-336.791884348844 342.11772714558,-351.743826823082 293.997285747231,-316.782279680792 297.839830047836,-280.222912773339 331.422442686266,-265.270970299101 379.542884084613,-300.23251744139 " style="fill: rgb(14,173,105); fill-opacity: 1; stroke: rgb(0,0,0); stroke-width: 3" />
	<polygon points="243.998494561314,-379.062385083626 185.818141580695,-366.695769297346 174.458446303387,-331.734222155064 199.056186645568,-304.415663894514 257.236539626188,-316.782279680792 268.596234903494,-351.743826823082 " style="fill: rgb(14,173,105); fill-opacity: 1; stroke: rgb(0,0,0); stroke-width: 3" />
	<polygon points="316.716676301842,-386.705373965372 298.33630324133,-418.541113968274 246.824993859632,-388.801045630465 265.205366920137,-356.965305627561 " style="fill: rgb(14,173,105); fill-opacity: 1; stroke: rgb(0,0,0); stroke-width: 3" />
	<polygon points="298.33630324133,-418.541113968274 328.076371579161,-470.052423349964 321.859004297506,-529.206721613401 282.059024377417,-573.409077402598 223.878671396804,-585.775693188899 169.540862716794,-561.582942067748 139.800794378963,-510.071632686056 146.018161660618,-450.91733442262 185.818141580707,-406.714978633422 243.99849456132,-394.348362847121 " style="fill: rgb(14,173,105); fill-opacity: 1; stroke: rgb(0,0,0); stroke-width: 3" />
	<polygon points="293.997285747231,-316.782279680792 257.236539626188,-316.782279680792 209.116098227839,-281.820732538501 197.756402950533,-246.85918539621 234.517149071577,-246.859185396211 282.637590469927,-281.820732538503 " style="fill: rgb(14,173,105); fill-opacity: 1; stroke: rgb(0,0,0); stroke-width: 3" />
	<polygon points="328.076371579161,-470.052423349964 364.837117700199,-470.05242334996 364.8371177002,-529.532560025616 328.076371579163,-529.532560025624 " style="fill: rgb(14,173,105); fill-opacity: 1; stroke: rgb(0,0,0); stroke-width: 3" />
	<polygon points="420.64264769975,-416.609258913844 390.902579361923,-365.097949532156 422.738319364818,-346.717576471633 452.478387702642,-398.228885853318 " style="fill: rgb(14,173,105); fill-opacity: 1; stroke: rgb(0,0,0); stroke-width: 3" />
	<polygon points="234.517149071577,-246.859185396211 197.756402950533,-246.85918539621 168.016334612705,-195.347876014522 186.39670767322,-163.512136011624 223.15745379426,-163.512136011621 252.897522132091,-215.023445393311 " style="fill: rgb(14,173,105); fill-opacity: 1; stroke: rgb(0,0,0); stroke-width: 3" />
	<polygon points="371.054484981903,-529.206721613391 395.652225324101,-556.525279873925 377.27185226361,-613.094251449444 341.314416644126,-620.737240331216 316.716676301928,-593.418682070688 335.097049362419,-536.849710495165 " style="fill: rgb(14,173,105); fill-opacity: 1; stroke: rgb(0,0,0); stroke-width: 3" />
	<polygon points="116.278093322774,-344.100837941373 82.6954806843449,-329.148895467134 107.293221026529,-301.830337206585 165.473574007142,-289.463721420276 199.056186645568,-304.415663894514 174.458446303387,-331.734222155064 " style="fill: rgb(14,173,105); fill-opacity: 1; stroke: rgb(0,0,0); stroke-width: 3" />
	<polygon points="379.542884084613,-300.23251744139 331.422442686266,-265.270970299101 313.042069625744,-208.701998723593 331.422442686265,-152.133027148084 379.542884084612,-117.171480005793 439.023020760264,-117.171480005792 487.143462158611,-152.133027148083 505.523835219132,-208.701998723591 487.143462158611,-265.2709702991 439.023020760265,-300.232517441391 " style="fill: rgb(14,173,105); fill-opacity: 1; stroke: rgb(0,0,0); stroke-width: 3" />
	<polygon points="331.422442686266,-265.270970299101 297.839830047836,-280.222912773339 273.647078926685,-225.885104093334 307.229691565111,-210.933161619094 " style="fill: rgb(14,173,105); fill-opacity: 1; stroke: rgb(0,0,0); stroke-width: 3" />
	<polygon points="185.818141580707,-406.714978633422 146.018161660618,-450.91733442262 118.699603400068,-426.319594080445 158.499583320158,-382.11723829125 " style="fill: rgb(14,173,105); fill-opacity: 1; stroke: rgb(0,0,0); stroke-width: 3" />
	<polygon points="139.800794378963,-510.071632686056 169.540862716794,-561.582942067748 137.7051227139,-579.96331512828 107.965054376082,-528.452005746589 " style="fill: rgb(14,173,105); fill-opacity: 1; stroke: rgb(0,0,0); stroke-width: 3" />
	<polygon points="223.878671396804,-585.775693188899 282.059024377417,-573.409077402598 289.702013259169,-609.366513022086 231.521660278571,-621.733128808376 " style="fill: rgb(14,173,105); fill-opacity: 1; stroke: rgb(0,0,0); stroke-width: 3" />
	<polygon points="379.542884084612,-117.171480005793 331.422442686265,-152.133027148084 309.815018253039,-122.392958810257 357.935459651374,-87.4314116679848 " style="fill: rgb(14,173,105); fill-opacity: 1; stroke: rgb(0,0,0); stroke-width: 3" />
	<polygon points="395.652225324101,-556.525279873925 414.0325983846,-524.689539871027 438.630338726801,-552.008098131554 444.847706008524,-611.162396394979 426.467332948037,-642.998136397877 401.869592605828,-615.67957813735 " style="fill: rgb(14,173,105); fill-opacity: 1; stroke: rgb(0,0,0); stroke-width: 3" />
	<polygon points="82.6954806843605,-444.261852463645 76.4781134027001,-503.416150727083 51.880373060517,-530.734708987624 33.5,-498.898968984725 39.7173672816653,-439.744670721285 64.3151076238476,-412.426112460744 " style="fill: rgb(14,173,105); fill-opacity: 1; stroke: rgb(0,0,0); stroke-width: 3" />
	<polygon points="498.50315743596,-473.17823048932 502.345701736559,-436.618863581876 561.5,-442.836230863524 557.657455699409,-479.395597770967 " style="fill: rgb(14,173,105); fill-opacity: 1; stroke: rgb(0,0,0); stroke-width: 3" />
	<polygon points="439.023020760264,-117.171480005792 379.542884084612,-117.171480005793 361.16251102409,-85.3357400028931 379.542884084605,-53.5 439.023020760252,-53.5000000000086 457.403393820776,-85.335740002907 " style="fill: rgb(14,173,105); fill-opacity: 1; stroke: rgb(0,0,0); stroke-width: 3" />
	<polygon points="146.018161660618,-450.91733442262 139.800794378963,-510.071632686056 106.218181740528,-525.023575160296 76.4781134027001,-503.416150727083 82.6954806843605,-444.261852463645 116.278093322795,-429.309909989404 " style="fill: rgb(14,173,105); fill-opacity: 1; stroke: rgb(0,0,0); stroke-width: 3" />
	<polygon points="377.27185226361,-613.094251449444 373.42930796303,-649.653618356901 333.629328042981,-693.855974146139 297.671892423507,-701.498963027917 301.514436724081,-664.939596120456 341.314416644126,-620.737240331216 " style="fill: rgb(14,173,105); fill-opacity: 1; stroke: rgb(0,0,0); stroke-width: 3" />
	<polygon points="426.467332948037,-642.998136397877 444.847706008524,-611.162396394979 481.608452129572,-611.16239639495 511.348520467491,-662.673705776592 492.968147407013,-694.509445779487 456.207401285958,-694.509445779517 " style="fill: rgb(14,173,105); fill-opacity: 1; stroke: rgb(0,0,0); stroke-width: 3" />
	<polygon points="169.540862716794,-561.582942067748 223.878671396804,-585.775693188899 227.721215697405,-622.335060096356 197.981147359578,-643.942484529571 143.643338679575,-619.749733408414 139.800794378971,-583.190366500957 " style="fill: rgb(14,173,105); fill-opacity: 1; stroke: rgb(0,0,0); stroke-width: 3" />
	<polygon points="487.143462158611,-152.133027148083 439.023020760264,-117.171480005792 460.630445193479,-87.4314116679556 508.750886591811,-122.392958810254 " style="fill: rgb(14,173,105); fill-opacity: 1; stroke: rgb(0,0,0); stroke-width: 3" />
	<polygon points="137.7051227139,-579.96331512828 133.862578413284,-616.522682035736 100.279965774858,-601.570739561494 70.5398974370473,-550.059430179796 74.3824417376623,-513.50006327234 107.965054376082,-528.452005746589 " style="fill: rgb(14,173,105); fill-opacity: 1; stroke: rgb(0,0,0); stroke-width: 3" />
	<polygon points="143.643338679575,-619.749733408414 197.981147359578,-643.942484529571 216.361520420092,-675.778224532472 180.404084800605,-683.42121341421 126.066276120604,-659.228462293048 107.68590306009,-627.392722290147 " style="fill: rgb(14,173,105); fill-opacity: 1; stroke: rgb(0,0,0); stroke-width: 3" />
	<circle cx="316.716676301842" cy="-386.705373965372" r="2" style="fill: rgb(0,0,0)" />
	<circle cx="353.477422422885" cy="-386.705373965372" r="2" style="fill: rgb(0,0,0)" />
	<circle cx="383.217490760713" cy="-438.21668334706" r="2" style="fill: rgb(0,0,0)" />
	<circle cx="364.837117700199" cy="-470.05242334996" r="2" style="fill: rgb(0,0,0)" />
	<circle cx="328.076371579161" cy="-470.052423349964" r="2" style="fill: rgb(0,0,0)" />
	<circle cx="298.33630324133" cy="-418.541113968274" r="2" style="fill: rgb(0,0,0)" />
	<circle cx="268.596234903494" cy="-351.743826823082" r="2" style="fill: rgb(0,0,0)" />
	<circle cx="257.236539626188" cy="-316.782279680792" r="2" style="fill: rgb(0,0,0)" />
	<circle cx="293.997285747231" cy="-316.782279680792" r="2" style="fill: rgb(0,0,0)" />
	<circle cx="342.11772714558" cy="-351.743826823082" r="2" style="fill: rgb(0,0,0)" />
	<circle cx="357.319966723491" cy="-350.14600705792" r="2" style="fill: rgb(0,0,0)" />
	<circle cx="390.902579361923" cy="-365.097949532156" r="2" style="fill: rgb(0,0,0)" />
	<circle cx="420.64264769975" cy="-416.609258913844" r="2" style="fill: rgb(0,0,0)" />
	<circle cx="416.800103399145" cy="-453.168625821295" r="2" style="fill: rgb(0,0,0)" />
	<circle cx="407.815231102902" cy="-465.535241607594" r="2" style="fill: rgb(0,0,0)" />
	<circle cx="414.0325983846" cy="-524.689539871027" r="2" style="fill: rgb(0,0,0)" />
	<circle cx="395.652225324101" cy="-556.525279873925" r="2" style="fill: rgb(0,0,0)" />
	<circle cx="371.054484981903" cy="-529.206721613391" r="2" style="fill: rgb(0,0,0)" />
	<circle cx="246.824993859632" cy="-388.801045630465" r="2" style="fill: rgb(0,0,0)" />
	<circle cx="265.205366920137" cy="-356.965305627561" r="2" style="fill: rgb(0,0,0)" />
	<circle cx="321.859004297506" cy="-529.206721613401" r="2" style="fill: rgb(0,0,0)" />
	<circle cx="282.059024377417" cy="-573.409077402598" r="2" style="fill: rgb(0,0,0)" />
	<circle cx="223.878671396804" cy="-585.775693188899" r="2" style="fill: rgb(0,0,0)" />
	<circle cx="169.540862716794" cy="-561.582942067748" r="2" style="fill: rgb(0,0,0)" />
	<circle cx="139.800794378963" cy="-510.071632686056" r="2" style="fill: rgb(0,0,0)" />
	<circle cx="146.018161660618" cy="-450.91733442262" r="2" style="fill: rgb(0,0,0)" />
	<circle cx="185.818141580707" cy="-406.714978633422" r="2" style="fill: rgb(0,0,0)" />
	<circle cx="243.99849456132" cy="-394.348362847121" r="2" style="fill: rgb(0,0,0)" />
	<circle cx="364.8371177002" cy="-529.532560025616" r="2" style="fill: rgb(0,0,0)" />
	<circle cx="328.076371579163" cy="-529.532560025624" r="2" style="fill: rgb(0,0,0)" />
	<circle cx="297.839830047836" cy="-280.222912773339" r="2" style="fill: rgb(0,0,0)" />
	<circle cx="331.422442686266" cy="-265.270970299101" r="2" style="fill: rgb(0,0,0)" />
	<circle cx="379.542884084613" cy="-300.23251744139" r="2" style="fill: rgb(0,0,0)" />
	<circle cx="375.70033978401" cy="-336.791884348844" r="2" style="fill: rgb(0,0,0)" />
	<circle cx="243.998494561314" cy="-379.062385083626" r="2" style="fill: rgb(0,0,0)" />
	<circle cx="185.818141580695" cy="-366.695769297346" r="2" style="fill: rgb(0,0,0)" />
	<circle cx="174.458446303387" cy="-331.734222155064" r="2" style="fill: rgb(0,0,0)" />
	<circle cx="199.056186645568" cy="-304.415663894514" r="2" style="fill: rgb(0,0,0)" />
	<circle cx="209.116098227839" cy="-281.820732538501" r="2" style="fill: rgb(0,0,0)" />
	<circle cx="197.756402950533" cy="-246.85918539621" r="2" style="fill: rgb(0,0,0)" />
	<circle cx="234.517149071577" cy="-246.859185396211" r="2" style="fill: rgb(0,0,0)" />
	<circle cx="282.637590469927" cy="-281.820732538503" r="2" style="fill: rgb(0,0,0)" />
	<circle cx="454.225260338186" cy="-401.657316439607" r="2" style="fill: rgb(0,0,0)" />
	<circle cx="502.345701736559" cy="-436.618863581876" r="2" style="fill: rgb(0,0,0)" />
	<circle cx="498.50315743596" cy="-473.17823048932" r="2" style="fill: rgb(0,0,0)" />
	<circle cx="464.920544797519" cy="-488.130172963562" r="2" style="fill: rgb(0,0,0)" />
	<circle cx="422.738319364818" cy="-346.717576471633" r="2" style="fill: rgb(0,0,0)" />
	<circle cx="452.478387702642" cy="-398.228885853318" r="2" style="fill: rgb(0,0,0)" />
	<circle cx="377.27185226361" cy="-613.094251449444" r="2" style="fill: rgb(0,0,0)" />
	<circle cx="341.314416644126" cy="-620.737240331216" r="2" style="fill: rgb(0,0,0)" />
	<circle cx="316.716676301928" cy="-593.418682070688" r="2" style="fill: rgb(0,0,0)" />
	<circle cx="335.097049362419" cy="-536.849710495165" r="2" style="fill: rgb(0,0,0)" />
	<circle cx="438.630338726801" cy="-552.008098131554" r="2" style="fill: rgb(0,0,0)" />
	<circle cx="444.847706008524" cy="-611.162396394979" r="2" style="fill: rgb(0,0,0)" />
	<circle cx="426.467332948037" cy="-642.998136397877" r="2" style="fill: rgb(0,0,0)" />
	<circle cx="401.869592605828" cy="-615.67957813735" r="2" style="fill: rgb(0,0,0)" />
	<circle cx="118.699603400068" cy="-426.319594080445" r="2" style="fill: rgb(0,0,0)" />
	<circle cx="158.499583320158" cy="-382.11723829125" r="2" style="fill: rgb(0,0,0)" />
	<circle cx="137.7051227139" cy="-579.96331512828" r="2" style="fill: rgb(0,0,0)" />
	<circle cx="107.965054376082" cy="-528.452005746589" r="2" style="fill: rgb(0,0,0)" />
	<circle cx="289.702013259169" cy="-609.366513022086" r="2" style="fill: rgb(0,0,0)" />
	<circle cx="231.521660278571" cy="-621.733128808376" r="2" style="fill: rgb(0,0,0)" />
	<circle cx="106.218181740528" cy="-525.023575160296" r="2" style="fill: rgb(0,0,0)" />
	<circle cx="76.4781134027001" cy="-503.416150727083" r="2" style="fill: rgb(0,0,0)" />
	<circle cx="82.6954806843605" cy="-444.261852463645" r="2" style="fill: rgb(0,0,0)" />
	<circle cx="116.278093322795" cy="-429.309909989404" r="2" style="fill: rgb(0,0,0)" />
	<circle cx="227.721215697405" cy="-622.335060096356" r="2" style="fill: rgb(0,0,0)" />
	<circle cx="197.981147359578" cy="-643.942484529571" r="2" style="fill: rgb(0,0,0)" />
	<circle cx="143.643338679575" cy="-619.749733408414" r="2" style="fill: rgb(0,0,0)" />
	<circle cx="139.800794378971" cy="-583.190366500957" r="2" style="fill: rgb(0,0,0)" />
	<circle cx="313.042069625744" cy="-208.701998723593" r="2" style="fill: rgb(0,0,0)" />
	<circle cx="331.422442686265" cy="-152.133027148084" r="2" style="fill: rgb(0,0,0)" />
	<circle cx="379.542884084612" cy="-117.171480005793" r="2" style="fill: rgb(0,0,0)" />
	<circle cx="439.023020760264" cy="-117.171480005792" r="2" style="fill: rgb(0,0,0)" />
	<circle cx="487.143462158611" cy="-152.133027148083" r="2" style="fill: rgb(0,0,0)" />
	<circle cx="505.523835219132" cy="-208.701998723591" r="2" style="fill: rgb(0,0,0)" />
	<circle cx="487.143462158611" cy="-265.2709702991" r="2" style="fill: rgb(0,0,0)" />
	<circle cx="439.023020760265" cy="-300.232517441391" r="2" style="fill: rgb(0,0,0)" />
	<circle cx="273.647078926685" cy="-225.885104093334" r="2" style="fill: rgb(0,0,0)" />
	<circle cx="307.229691565111" cy="-210.933161619094" r="2" style="fill: rgb(0,0,0)" />
	<circle cx="116.278093322774" cy="-344.100837941373" r="2" style="fill: rgb(0,0,0)" />
	<circle cx="82.6954806843449" cy="-329.148895467134" r="2" style="fill: rgb(0,0,0)" />
	<circle cx="107.293221026529" cy="-301.830337206585" r="2" style="fill: rgb(0,0,0)" />
	<circle cx="165.473574007142" cy="-289.463721420276" r="2" style="fill: rgb(0,0,0)" />
	<circle cx="168.016334612705" cy="-195.347876014522" r="2" style="fill: rgb(0,0,0)" />
	<circle cx="186.39670767322" cy="-163.512136011624" r="2" style="fill: rgb(0,0,0)" />
	<circle cx="223.15745379426" cy="-163.512136011621" r="2" style="fill: rgb(0,0,0)" />
	<circle cx="252.897522132091" cy="-215.023445393311" r="2" style="fill: rgb(0,0,0)" />
	<circle cx="561.5" cy="-442.836230863524" r="2" style="fill: rgb(0,0,0)" />
	<circle cx="557.657455699409" cy="-479.395597770967" r="2" style="fill: rgb(0,0,0)" />
	<circle cx="373.42930796303" cy="-649.653618356901" r="2" style="fill: rgb(0,0,0)" />
	<circle cx="333.629328042981" cy="-693.855974146139" r="2" style="fill: rgb(0,0,0)" />
	<circle cx="297.671892423507" cy="-701.498963027917" r="2" style="fill: rgb(0,0,0)" />
	<circle cx="301.514436724081" cy="-664.939596120456" r="2" style="fill: rgb(0,0,0)" />
	<circle cx="481.608452129572" cy="-611.16239639495" r="2" style="fill: rgb(0,0,0)" />
	<circle cx="511.348520467491" cy="-662.673705776592" r="2" style="fill: rgb(0,0,0)" />
	<circle cx="492.968147407013" cy="-694.509445779487" r="2" style="fill: rgb(0,0,0)" />
	<circle cx="456.207401285958" cy="-694.509445779517" r="2" style="fill: rgb(0,0,0)" />
	<circle cx="133.862578413284" cy="-616.522682035736" r="2" style="fill: rgb(0,0,0)" />
	<circle cx="100.279965774858" cy="-601.570739561494" r="2" style="fill: rgb(0,0,0)" />
	<circle cx="70.5398974370473" cy="-550.059430179796" r="2" style="fill: rgb(0,0,0)" />
	<circle cx="74.3824417376623" cy="-513.50006327234" r="2" style="fill: rgb(0,0,0)" />
	<circle cx="51.880373060517" cy="-530.734708987624" r="2" style="fill: rgb(0,0,0)" />
	<circle cx="33.5" cy="-498.898968984725" r="2" style="fill: rgb(0,0,0)" />
	<circle cx="39.7173672816653" cy="-439.744670721285" r="2" style="fill: rgb(0,0,0)" />
	<circle cx="64.3151076238476" cy="-412.426112460744" r="2" style="fill: rgb(0,0,0)" />
	<circle cx="216.361520420092" cy="-675.778224532472" r="2" style="fill: rgb(0,0,0)" />
	<circle cx="180.404084800605" cy="-683.42121341421" r="2" style="fill: rgb(0,0,0)" />
	<circle cx="126.066276120604" cy="-659.228462293048" r="2" style="fill: rgb(0,0,0)" />
	<circle cx="107.68590306009" cy="-627.392722290147" r="2" style="fill: rgb(0,0,0)" />
	<circle cx="309.815018253039" cy="-122.392958810257" r="2" style="fill: rgb(0,0,0)" />
	<circle cx="357.935459651374" cy="-87.4314116679848" r="2" style="fill: rgb(0,0,0)" />
	<circle cx="361.16251102409" cy="-85.3357400028931" r="2" style="fill: rgb(0,0,0)" />
	<circle cx="379.542884084605" cy="-53.5" r="2" style="fill: rgb(0,0,0)" />
	<circle cx="439.023020760252" cy="-53.5000000000086" r="2" style="fill: rgb(0,0,0)" />
	<circle cx="457.403393820776" cy="-85.335740002907" r="2" style="fill: rgb(0,0,0)" />
	<circle cx="460.630445193479" cy="-87.4314116679556" r="2" style="fill: rgb(0,0,0)" />
	<circle cx="508.750886591811" cy="-122.392958810254" r="2" style="fill: rgb(0,0,0)" />
	<!--
	Generated using the Perl SVG Module V2.87
	by Ronan Oger

	-->
</svg>