<?xml version="1.0" encoding="UTF-8" standalone="yes"?>
<!DOCTYPE svg PUBLIC "-//W3C//DTD SVG 1.0//EN" "http://www.w3.org/TR/2001/REC-SVG-20010904/DTD/svg10.dtd">
<!-- generated using polymake; Michael Joswig, Georg Loho, Benjamin Lorenz, Rico Raber; license CC BY-NC-ND 3.0; see polymake.org and matchthenet.de -->
<svg height="841pt" id="document" viewBox="0 -586.264156844872 572 586.264156844872" width="595pt" xmlns="http://www.w3.org/2000/svg" xmlns:svg="http://www.w3.org/2000/svg" xmlns:xlink="http://www.w3.org/1999/xlink">
	<title id="document_title">planar_net_</title>
	<polygon points="288.89888404306,-251.540245386202 311.023749559144,-251.540245386202 314.263861097556,-273.42657334051 276.494353142225,-317.199229249138 254.369487626145,-317.199229249142 251.12937608773,-295.312901294831 " style="fill: rgb(14,173,105); fill-opacity: 1; stroke: rgb(0,0,0); stroke-width: 3" />
	<polygon points="288.89888404306,-251.540245386202 288.898884043057,-229.415379870115 311.023749559133,-229.415379870106 311.023749559144,-251.540245386202 " style="fill: rgb(14,173,105); fill-opacity: 1; stroke: rgb(0,0,0); stroke-width: 3" />
	<polygon points="348.793257514445,-185.64272396146 311.023749559133,-229.415379870106 288.898884043057,-229.415379870115 285.658772504645,-207.529051915807 323.428280459959,-163.756396007161 345.553145976031,-163.756396007149 " style="fill: rgb(14,173,105); fill-opacity: 1; stroke: rgb(0,0,0); stroke-width: 3" />
	<polygon points="332.910077513452,-254.780356924613 311.023749559144,-251.540245386202 311.023749559133,-229.415379870106 354.796405467728,-191.645871914735 376.682733422037,-194.885983453146 376.682733422048,-217.010848969241 " style="fill: rgb(14,173,105); fill-opacity: 1; stroke: rgb(0,0,0); stroke-width: 3" />
	<polygon points="276.494353142225,-317.199229249138 314.263861097556,-273.42657334051 334.301150020403,-282.808296355352 346.516117723622,-301.255633239415 308.746609768292,-345.028289148042 288.709320845444,-335.646566133201 " style="fill: rgb(14,173,105); fill-opacity: 1; stroke: rgb(0,0,0); stroke-width: 3" />
	<polygon points="449.915517488465,-485.927335351146 472.040383004553,-485.927335351145 472.040383004556,-508.052200867233 449.915517488477,-508.052200867242 " style="fill: rgb(14,173,105); fill-opacity: 1; stroke: rgb(0,0,0); stroke-width: 3" />
	<polygon points="288.89888404306,-251.540245386202 251.12937608773,-295.312901294831 229.004510571645,-295.312901294841 225.764399033226,-273.426573340536 263.533906988557,-229.653917431905 285.658772504642,-229.653917431895 " style="fill: rgb(14,173,105); fill-opacity: 1; stroke: rgb(0,0,0); stroke-width: 3" />
	<polygon points="263.533906988557,-229.653917431905 225.764399033226,-273.426573340536 205.727110110379,-264.044850325694 193.512142407159,-245.597513441631 231.28165036249,-201.824857533002 251.318939285338,-211.206580547842 " style="fill: rgb(14,173,105); fill-opacity: 1; stroke: rgb(0,0,0); stroke-width: 3" />
	<polygon points="265.621483581795,-198.147328900973 253.406515878568,-179.699992016914 291.176023833881,-135.927336108271 311.213312756732,-145.309059123104 323.428280459959,-163.756396007161 285.658772504645,-207.529051915807 " style="fill: rgb(14,173,105); fill-opacity: 1; stroke: rgb(0,0,0); stroke-width: 3" />
	<polygon points="285.658772504642,-229.653917431895 263.533906988557,-229.653917431905 252.471474230511,-210.493221839659 274.596339746584,-210.493221839643 " style="fill: rgb(14,173,105); fill-opacity: 1; stroke: rgb(0,0,0); stroke-width: 3" />
	<polygon points="314.263861097556,-273.42657334051 311.023749559144,-251.540245386202 331.597921332341,-259.677390459992 334.838032870766,-281.563718414291 " style="fill: rgb(14,173,105); fill-opacity: 1; stroke: rgb(0,0,0); stroke-width: 3" />
	<polygon points="251.12937608773,-295.312901294831 254.369487626145,-317.199229249142 232.483159671836,-320.439340787559 229.243048133415,-298.553012833258 " style="fill: rgb(14,173,105); fill-opacity: 1; stroke: rgb(0,0,0); stroke-width: 3" />
	<polygon points="345.553145976031,-163.756396007149 323.428280459959,-163.756396007161 312.365847701914,-144.595700414914 334.490713217975,-144.595700414895 " style="fill: rgb(14,173,105); fill-opacity: 1; stroke: rgb(0,0,0); stroke-width: 3" />
	<polygon points="370.679585468761,-182.402612423033 348.793257514445,-185.64272396146 345.553145976031,-163.756396007149 367.43947393034,-160.516284468732 " style="fill: rgb(14,173,105); fill-opacity: 1; stroke: rgb(0,0,0); stroke-width: 3" />
	<polygon points="287.556785900271,-336.359924841385 306.441539877946,-347.887098879612 290.796897438795,-403.545218677514 268.67203192273,-403.545218677526 249.787277945052,-392.018044639298 265.431920384202,-336.359924841396 " style="fill: rgb(14,173,105); fill-opacity: 1; stroke: rgb(0,0,0); stroke-width: 3" />
	<polygon points="334.838032870766,-281.563718414291 331.597921332341,-259.677390459992 384.364862486618,-236.050476617846 398.533365360565,-253.043510496925 401.773476898991,-274.929838451222 349.006535744713,-298.556752293369 " style="fill: rgb(14,173,105); fill-opacity: 1; stroke: rgb(0,0,0); stroke-width: 3" />
	<polygon points="374.08836302146,-81.8628740090205 353.514191248261,-90.0000190828086 336.180131013481,-76.2508362022854 356.754302786667,-68.1136911284948 " style="fill: rgb(14,173,105); fill-opacity: 1; stroke: rgb(0,0,0); stroke-width: 3" />
	<polygon points="229.243048133415,-298.553012833258 232.483159671836,-320.439340787559 194.713651716511,-364.211996696196 172.588786200427,-364.211996696213 169.348674662006,-342.325668741911 207.118182617332,-298.553012833274 " style="fill: rgb(14,173,105); fill-opacity: 1; stroke: rgb(0,0,0); stroke-width: 3" />
	<polygon points="225.764399033226,-273.426573340536 229.004510571645,-295.312901294841 208.430338798446,-287.175756221058 205.190227260015,-265.289428266761 " style="fill: rgb(14,173,105); fill-opacity: 1; stroke: rgb(0,0,0); stroke-width: 3" />
	<polygon points="385.150795779515,-101.023569601276 374.08836302146,-81.8628740090205 393.249058613701,-70.8004412509697 404.31149137176,-89.9611368432137 " style="fill: rgb(14,173,105); fill-opacity: 1; stroke: rgb(0,0,0); stroke-width: 3" />
	<polygon points="118.070487895856,-89.8388163461322 101.497213007005,-75.1815235004683 105.904163517622,-53.5 122.477438406487,-68.1572928456578 " style="fill: rgb(14,173,105); fill-opacity: 1; stroke: rgb(0,0,0); stroke-width: 3" />
	<polygon points="208.430338798446,-287.175756221058 155.663397644176,-310.80267006322 141.494894770223,-293.809636184146 138.254783231792,-271.92330822985 191.021724386062,-248.296394387688 205.190227260015,-265.289428266761 " style="fill: rgb(14,173,105); fill-opacity: 1; stroke: rgb(0,0,0); stroke-width: 3" />
	<polygon points="254.369487626145,-317.199229249142 260.779844668697,-338.375088067426 229.827902845198,-387.207028780839 207.941574890894,-390.447140319259 201.531217848339,-369.271281500973 232.483159671836,-320.439340787559 " style="fill: rgb(14,173,105); fill-opacity: 1; stroke: rgb(0,0,0); stroke-width: 3" />
	<polygon points="254.369487626145,-317.199229249142 276.494353142225,-317.199229249138 287.556785900271,-336.359924841385 265.431920384202,-336.359924841396 " style="fill: rgb(14,173,105); fill-opacity: 1; stroke: rgb(0,0,0); stroke-width: 3" />
	<polygon points="376.682733422048,-217.010848969241 376.682733422037,-194.885983453146 395.84342901429,-205.948416211175 395.843429014314,-228.073281727264 " style="fill: rgb(14,173,105); fill-opacity: 1; stroke: rgb(0,0,0); stroke-width: 3" />
	<polygon points="366.127317749229,-155.619250933364 345.553145976031,-163.756396007149 334.490713217975,-144.595700414895 353.514191248261,-90.0000190828086 374.08836302146,-81.8628740090205 385.150795779515,-101.023569601276 " style="fill: rgb(14,173,105); fill-opacity: 1; stroke: rgb(0,0,0); stroke-width: 3" />
	<polygon points="308.746609768292,-345.028289148042 346.516117723622,-301.255633239415 404.175134744453,-297.010766613174 447.947790653083,-334.780274568504 452.192657279326,-392.439291589332 414.423149323995,-436.211947497957 356.764132303164,-440.456814124199 312.991476394535,-402.687306168869 " style="fill: rgb(14,173,105); fill-opacity: 1; stroke: rgb(0,0,0); stroke-width: 3" />
	<polygon points="370.679585468761,-182.402612423033 367.43947393034,-160.516284468732 405.208981885666,-116.743628560095 427.33384740175,-116.743628560078 430.573958940171,-138.62995651438 392.804450984844,-182.402612423018 " style="fill: rgb(14,173,105); fill-opacity: 1; stroke: rgb(0,0,0); stroke-width: 3" />
	<polygon points="293.481093724239,-133.068526376687 309.12573616335,-77.4104065787425 331.250601679407,-77.4104065787218 350.135355657085,-88.9375806169495 334.490713217975,-144.595700414895 312.365847701914,-144.595700414914 " style="fill: rgb(14,173,105); fill-opacity: 1; stroke: rgb(0,0,0); stroke-width: 3" />
	<polygon points="312.991476394535,-402.687306168869 356.764132303164,-440.456814124199 347.382409288325,-460.49410304705 328.935072404263,-472.709070750271 285.162416495633,-434.939562794935 294.544139510472,-414.902273872084 " style="fill: rgb(14,173,105); fill-opacity: 1; stroke: rgb(0,0,0); stroke-width: 3" />
	<polygon points="404.175134744453,-297.010766613174 413.556857759296,-276.973477690327 432.004194643356,-264.758509987105 475.776850551978,-302.528017942431 466.395127537139,-322.56530686528 447.947790653083,-334.780274568504 " style="fill: rgb(14,173,105); fill-opacity: 1; stroke: rgb(0,0,0); stroke-width: 3" />
	<polygon points="231.28165036249,-201.824857533002 193.512142407159,-245.597513441631 135.853125386328,-249.842380067875 92.0804694776993,-212.072872112543 87.8356028514576,-154.413855091712 125.60511080679,-110.641199183082 183.264127827621,-106.396332556839 227.03678373625,-144.16584051217 " style="fill: rgb(14,173,105); fill-opacity: 1; stroke: rgb(0,0,0); stroke-width: 3" />
	<polygon points="169.348674662006,-342.325668741911 172.588786200427,-364.211996696213 152.014614427226,-356.074851622432 148.774502888793,-334.18852366814 " style="fill: rgb(14,173,105); fill-opacity: 1; stroke: rgb(0,0,0); stroke-width: 3" />
	<polygon points="285.162416495633,-434.939562794935 328.935072404263,-472.709070750271 328.935072404272,-494.833936266362 307.048744449964,-498.074047804776 263.276088541332,-460.304539849426 263.276088541324,-438.179674333337 " style="fill: rgb(14,173,105); fill-opacity: 1; stroke: rgb(0,0,0); stroke-width: 3" />
	<polygon points="466.395127537139,-322.56530686528 475.776850551978,-302.528017942431 497.820513289557,-300.634183943125 488.438790274721,-320.671472865965 " style="fill: rgb(14,173,105); fill-opacity: 1; stroke: rgb(0,0,0); stroke-width: 3" />
	<polygon points="229.827902845198,-387.207028780839 243.57708572572,-404.541089015619 221.690757771428,-407.781200554045 207.941574890894,-390.447140319259 " style="fill: rgb(14,173,105); fill-opacity: 1; stroke: rgb(0,0,0); stroke-width: 3" />
	<polygon points="194.713651716511,-364.211996696196 194.713651716514,-386.336862212283 172.588786200439,-386.336862212308 172.588786200427,-364.211996696213 " style="fill: rgb(14,173,105); fill-opacity: 1; stroke: rgb(0,0,0); stroke-width: 3" />
	<polygon points="452.192657279326,-392.439291589332 447.947790653083,-334.780274568504 468.750173490033,-327.245651657574 490.431696990507,-331.652602168203 494.676563616744,-389.311619189023 473.874180779795,-396.846242099957 " style="fill: rgb(14,173,105); fill-opacity: 1; stroke: rgb(0,0,0); stroke-width: 3" />
	<polygon points="183.264127827621,-106.396332556839 125.60511080679,-110.641199183082 118.070487895856,-89.8388163461322 122.477438406487,-68.1572928456578 180.136455427322,-63.9124262194206 187.671078338256,-84.714809056369 " style="fill: rgb(14,173,105); fill-opacity: 1; stroke: rgb(0,0,0); stroke-width: 3" />
	<polygon points="125.60511080679,-110.641199183082 87.8356028514576,-154.413855091712 67.798313928607,-145.032132076869 55.5833462253869,-126.584795192807 93.3528541807258,-82.8121392841846 113.390143103576,-92.1938622990247 " style="fill: rgb(14,173,105); fill-opacity: 1; stroke: rgb(0,0,0); stroke-width: 3" />
	<polygon points="172.588786200427,-364.211996696213 167.552388837473,-385.756006901078 116.331250565175,-412.569737163261 95.7570787919773,-404.432592089485 100.793476154929,-382.888581884617 152.014614427226,-356.074851622432 " style="fill: rgb(14,173,105); fill-opacity: 1; stroke: rgb(0,0,0); stroke-width: 3" />
	<polygon points="528.088281808371,-386.851842820893 523.843415182148,-329.192825800079 539.488057621416,-313.548183360816 557.255133373788,-326.733049431958 561.5,-384.392066452768 545.855357560734,-400.036708892031 " style="fill: rgb(14,173,105); fill-opacity: 1; stroke: rgb(0,0,0); stroke-width: 3" />
	<polygon points="126.471402371484,-269.879668990722 108.024065487423,-282.094636693943 64.2514095788039,-244.325128738614 73.6331325936443,-224.287839815765 92.0804694776993,-212.072872112543 135.853125386328,-249.842380067875 " style="fill: rgb(14,173,105); fill-opacity: 1; stroke: rgb(0,0,0); stroke-width: 3" />
	<polygon points="414.423149323995,-436.211947497957 452.192657279326,-392.439291589332 472.229946202176,-401.821014604176 484.444913905397,-420.268351488237 446.675405950061,-464.041007396854 426.638117027211,-454.659284382013 " style="fill: rgb(14,173,105); fill-opacity: 1; stroke: rgb(0,0,0); stroke-width: 3" />
	<polygon points="494.676563616744,-389.311619189023 490.431696990507,-331.652602168203 506.076339429773,-316.007959728938 523.843415182148,-329.192825800079 528.088281808371,-386.851842820893 512.443639369108,-402.496485260159 " style="fill: rgb(14,173,105); fill-opacity: 1; stroke: rgb(0,0,0); stroke-width: 3" />
	<polygon points="359.891804703464,-482.940720461616 417.550821724297,-478.695853835382 433.195464163568,-494.340496274651 420.010598092417,-512.107572027024 362.351581071576,-516.352438653242 346.706938632307,-500.707796213977 " style="fill: rgb(14,173,105); fill-opacity: 1; stroke: rgb(0,0,0); stroke-width: 3" />
	<polygon points="328.935072404272,-494.833936266362 332.175183942688,-516.720264220671 310.28885598839,-519.960375759091 307.048744449964,-498.074047804776 " style="fill: rgb(14,173,105); fill-opacity: 1; stroke: rgb(0,0,0); stroke-width: 3" />
	<polygon points="87.8356028514576,-154.413855091712 92.0804694776993,-212.072872112543 71.2780866407482,-219.607495023473 49.5965631402741,-215.200544512843 45.3516965140412,-157.541527492017 66.1540793509898,-150.006904581084 " style="fill: rgb(14,173,105); fill-opacity: 1; stroke: rgb(0,0,0); stroke-width: 3" />
	<polygon points="512.443639369108,-402.496485260159 528.088281808371,-386.851842820893 543.73292424764,-402.496485260155 528.088281808389,-418.141127699421 " style="fill: rgb(14,173,105); fill-opacity: 1; stroke: rgb(0,0,0); stroke-width: 3" />
	<polygon points="356.764132303164,-440.456814124199 414.423149323995,-436.211947497957 421.957772234928,-457.014330334908 417.550821724297,-478.695853835382 359.891804703464,-482.940720461616 352.35718179253,-462.138337624667 " style="fill: rgb(14,173,105); fill-opacity: 1; stroke: rgb(0,0,0); stroke-width: 3" />
	<polygon points="64.2514095788039,-244.325128738614 42.2077468412245,-246.21896273792 51.5894698560626,-226.181673815079 73.6331325936443,-224.287839815765 " style="fill: rgb(14,173,105); fill-opacity: 1; stroke: rgb(0,0,0); stroke-width: 3" />
	<polygon points="473.874180779795,-396.846242099957 494.676563616744,-389.311619189023 511.602929884027,-403.559699729603 490.800547047084,-411.094322640534 " style="fill: rgb(14,173,105); fill-opacity: 1; stroke: rgb(0,0,0); stroke-width: 3" />
	<polygon points="347.382409288325,-460.49410304705 348.737213183695,-482.577449272431 330.289876299646,-494.792416975657 328.935072404263,-472.709070750271 " style="fill: rgb(14,173,105); fill-opacity: 1; stroke: rgb(0,0,0); stroke-width: 3" />
	<polygon points="362.351581071576,-516.352438653242 420.010598092417,-512.107572027024 435.655240531682,-527.752214466295 422.470374460523,-545.519290218666 364.811357439678,-549.764156844872 349.166715000413,-534.119514405603 " style="fill: rgb(14,173,105); fill-opacity: 1; stroke: rgb(0,0,0); stroke-width: 3" />
	<polygon points="472.040383004553,-485.927335351145 509.809890959901,-442.154679442541 531.934756475991,-442.154679442548 535.174868014399,-464.041007396851 497.405360059041,-507.813663305446 475.280494542954,-507.813663305441 " style="fill: rgb(14,173,105); fill-opacity: 1; stroke: rgb(0,0,0); stroke-width: 3" />
	<polygon points="446.675405950061,-464.041007396854 484.444913905397,-420.268351488237 506.569779421487,-420.268351488239 509.809890959901,-442.154679442541 472.040383004553,-485.927335351145 449.915517488465,-485.927335351146 " style="fill: rgb(14,173,105); fill-opacity: 1; stroke: rgb(0,0,0); stroke-width: 3" />
	<polygon points="426.638117027211,-454.659284382013 446.675405950061,-464.041007396854 448.569239949368,-486.084670134433 428.53195102652,-476.702947119595 " style="fill: rgb(14,173,105); fill-opacity: 1; stroke: rgb(0,0,0); stroke-width: 3" />
	<polygon points="67.798313928607,-145.032132076869 45.714967703226,-146.386935972237 33.5,-127.939599088191 55.5833462253869,-126.584795192807 " style="fill: rgb(14,173,105); fill-opacity: 1; stroke: rgb(0,0,0); stroke-width: 3" />
	<circle cx="288.89888404306" cy="-251.540245386202" r="2" style="fill: rgb(0,0,0)" />
	<circle cx="311.023749559144" cy="-251.540245386202" r="2" style="fill: rgb(0,0,0)" />
	<circle cx="314.263861097556" cy="-273.42657334051" r="2" style="fill: rgb(0,0,0)" />
	<circle cx="276.494353142225" cy="-317.199229249138" r="2" style="fill: rgb(0,0,0)" />
	<circle cx="254.369487626145" cy="-317.199229249142" r="2" style="fill: rgb(0,0,0)" />
	<circle cx="251.12937608773" cy="-295.312901294831" r="2" style="fill: rgb(0,0,0)" />
	<circle cx="288.898884043057" cy="-229.415379870115" r="2" style="fill: rgb(0,0,0)" />
	<circle cx="311.023749559133" cy="-229.415379870106" r="2" style="fill: rgb(0,0,0)" />
	<circle cx="334.301150020403" cy="-282.808296355352" r="2" style="fill: rgb(0,0,0)" />
	<circle cx="346.516117723622" cy="-301.255633239415" r="2" style="fill: rgb(0,0,0)" />
	<circle cx="308.746609768292" cy="-345.028289148042" r="2" style="fill: rgb(0,0,0)" />
	<circle cx="288.709320845444" cy="-335.646566133201" r="2" style="fill: rgb(0,0,0)" />
	<circle cx="229.004510571645" cy="-295.312901294841" r="2" style="fill: rgb(0,0,0)" />
	<circle cx="225.764399033226" cy="-273.426573340536" r="2" style="fill: rgb(0,0,0)" />
	<circle cx="263.533906988557" cy="-229.653917431905" r="2" style="fill: rgb(0,0,0)" />
	<circle cx="285.658772504642" cy="-229.653917431895" r="2" style="fill: rgb(0,0,0)" />
	<circle cx="331.597921332341" cy="-259.677390459992" r="2" style="fill: rgb(0,0,0)" />
	<circle cx="334.838032870766" cy="-281.563718414291" r="2" style="fill: rgb(0,0,0)" />
	<circle cx="232.483159671836" cy="-320.439340787559" r="2" style="fill: rgb(0,0,0)" />
	<circle cx="229.243048133415" cy="-298.553012833258" r="2" style="fill: rgb(0,0,0)" />
	<circle cx="287.556785900271" cy="-336.359924841385" r="2" style="fill: rgb(0,0,0)" />
	<circle cx="265.431920384202" cy="-336.359924841396" r="2" style="fill: rgb(0,0,0)" />
	<circle cx="285.658772504645" cy="-207.529051915807" r="2" style="fill: rgb(0,0,0)" />
	<circle cx="323.428280459959" cy="-163.756396007161" r="2" style="fill: rgb(0,0,0)" />
	<circle cx="345.553145976031" cy="-163.756396007149" r="2" style="fill: rgb(0,0,0)" />
	<circle cx="348.793257514445" cy="-185.64272396146" r="2" style="fill: rgb(0,0,0)" />
	<circle cx="354.796405467728" cy="-191.645871914735" r="2" style="fill: rgb(0,0,0)" />
	<circle cx="376.682733422037" cy="-194.885983453146" r="2" style="fill: rgb(0,0,0)" />
	<circle cx="376.682733422048" cy="-217.010848969241" r="2" style="fill: rgb(0,0,0)" />
	<circle cx="332.910077513452" cy="-254.780356924613" r="2" style="fill: rgb(0,0,0)" />
	<circle cx="404.175134744453" cy="-297.010766613174" r="2" style="fill: rgb(0,0,0)" />
	<circle cx="447.947790653083" cy="-334.780274568504" r="2" style="fill: rgb(0,0,0)" />
	<circle cx="452.192657279326" cy="-392.439291589332" r="2" style="fill: rgb(0,0,0)" />
	<circle cx="414.423149323995" cy="-436.211947497957" r="2" style="fill: rgb(0,0,0)" />
	<circle cx="356.764132303164" cy="-440.456814124199" r="2" style="fill: rgb(0,0,0)" />
	<circle cx="312.991476394535" cy="-402.687306168869" r="2" style="fill: rgb(0,0,0)" />
	<circle cx="205.727110110379" cy="-264.044850325694" r="2" style="fill: rgb(0,0,0)" />
	<circle cx="193.512142407159" cy="-245.597513441631" r="2" style="fill: rgb(0,0,0)" />
	<circle cx="231.28165036249" cy="-201.824857533002" r="2" style="fill: rgb(0,0,0)" />
	<circle cx="251.318939285338" cy="-211.206580547842" r="2" style="fill: rgb(0,0,0)" />
	<circle cx="252.471474230511" cy="-210.493221839659" r="2" style="fill: rgb(0,0,0)" />
	<circle cx="274.596339746584" cy="-210.493221839643" r="2" style="fill: rgb(0,0,0)" />
	<circle cx="208.430338798446" cy="-287.175756221058" r="2" style="fill: rgb(0,0,0)" />
	<circle cx="205.190227260015" cy="-265.289428266761" r="2" style="fill: rgb(0,0,0)" />
	<circle cx="384.364862486618" cy="-236.050476617846" r="2" style="fill: rgb(0,0,0)" />
	<circle cx="398.533365360565" cy="-253.043510496925" r="2" style="fill: rgb(0,0,0)" />
	<circle cx="401.773476898991" cy="-274.929838451222" r="2" style="fill: rgb(0,0,0)" />
	<circle cx="349.006535744713" cy="-298.556752293369" r="2" style="fill: rgb(0,0,0)" />
	<circle cx="194.713651716511" cy="-364.211996696196" r="2" style="fill: rgb(0,0,0)" />
	<circle cx="172.588786200427" cy="-364.211996696213" r="2" style="fill: rgb(0,0,0)" />
	<circle cx="169.348674662006" cy="-342.325668741911" r="2" style="fill: rgb(0,0,0)" />
	<circle cx="207.118182617332" cy="-298.553012833274" r="2" style="fill: rgb(0,0,0)" />
	<circle cx="260.779844668697" cy="-338.375088067426" r="2" style="fill: rgb(0,0,0)" />
	<circle cx="229.827902845198" cy="-387.207028780839" r="2" style="fill: rgb(0,0,0)" />
	<circle cx="207.941574890894" cy="-390.447140319259" r="2" style="fill: rgb(0,0,0)" />
	<circle cx="201.531217848339" cy="-369.271281500973" r="2" style="fill: rgb(0,0,0)" />
	<circle cx="306.441539877946" cy="-347.887098879612" r="2" style="fill: rgb(0,0,0)" />
	<circle cx="290.796897438795" cy="-403.545218677514" r="2" style="fill: rgb(0,0,0)" />
	<circle cx="268.67203192273" cy="-403.545218677526" r="2" style="fill: rgb(0,0,0)" />
	<circle cx="249.787277945052" cy="-392.018044639298" r="2" style="fill: rgb(0,0,0)" />
	<circle cx="265.621483581795" cy="-198.147328900973" r="2" style="fill: rgb(0,0,0)" />
	<circle cx="253.406515878568" cy="-179.699992016914" r="2" style="fill: rgb(0,0,0)" />
	<circle cx="291.176023833881" cy="-135.927336108271" r="2" style="fill: rgb(0,0,0)" />
	<circle cx="311.213312756732" cy="-145.309059123104" r="2" style="fill: rgb(0,0,0)" />
	<circle cx="312.365847701914" cy="-144.595700414914" r="2" style="fill: rgb(0,0,0)" />
	<circle cx="334.490713217975" cy="-144.595700414895" r="2" style="fill: rgb(0,0,0)" />
	<circle cx="367.43947393034" cy="-160.516284468732" r="2" style="fill: rgb(0,0,0)" />
	<circle cx="370.679585468761" cy="-182.402612423033" r="2" style="fill: rgb(0,0,0)" />
	<circle cx="395.84342901429" cy="-205.948416211175" r="2" style="fill: rgb(0,0,0)" />
	<circle cx="395.843429014314" cy="-228.073281727264" r="2" style="fill: rgb(0,0,0)" />
	<circle cx="347.382409288325" cy="-460.49410304705" r="2" style="fill: rgb(0,0,0)" />
	<circle cx="328.935072404263" cy="-472.709070750271" r="2" style="fill: rgb(0,0,0)" />
	<circle cx="285.162416495633" cy="-434.939562794935" r="2" style="fill: rgb(0,0,0)" />
	<circle cx="294.544139510472" cy="-414.902273872084" r="2" style="fill: rgb(0,0,0)" />
	<circle cx="413.556857759296" cy="-276.973477690327" r="2" style="fill: rgb(0,0,0)" />
	<circle cx="432.004194643356" cy="-264.758509987105" r="2" style="fill: rgb(0,0,0)" />
	<circle cx="475.776850551978" cy="-302.528017942431" r="2" style="fill: rgb(0,0,0)" />
	<circle cx="466.395127537139" cy="-322.56530686528" r="2" style="fill: rgb(0,0,0)" />
	<circle cx="468.750173490033" cy="-327.245651657574" r="2" style="fill: rgb(0,0,0)" />
	<circle cx="490.431696990507" cy="-331.652602168203" r="2" style="fill: rgb(0,0,0)" />
	<circle cx="494.676563616744" cy="-389.311619189023" r="2" style="fill: rgb(0,0,0)" />
	<circle cx="473.874180779795" cy="-396.846242099957" r="2" style="fill: rgb(0,0,0)" />
	<circle cx="472.229946202176" cy="-401.821014604176" r="2" style="fill: rgb(0,0,0)" />
	<circle cx="484.444913905397" cy="-420.268351488237" r="2" style="fill: rgb(0,0,0)" />
	<circle cx="446.675405950061" cy="-464.041007396854" r="2" style="fill: rgb(0,0,0)" />
	<circle cx="426.638117027211" cy="-454.659284382013" r="2" style="fill: rgb(0,0,0)" />
	<circle cx="421.957772234928" cy="-457.014330334908" r="2" style="fill: rgb(0,0,0)" />
	<circle cx="417.550821724297" cy="-478.695853835382" r="2" style="fill: rgb(0,0,0)" />
	<circle cx="359.891804703464" cy="-482.940720461616" r="2" style="fill: rgb(0,0,0)" />
	<circle cx="352.35718179253" cy="-462.138337624667" r="2" style="fill: rgb(0,0,0)" />
	<circle cx="135.853125386328" cy="-249.842380067875" r="2" style="fill: rgb(0,0,0)" />
	<circle cx="92.0804694776993" cy="-212.072872112543" r="2" style="fill: rgb(0,0,0)" />
	<circle cx="87.8356028514576" cy="-154.413855091712" r="2" style="fill: rgb(0,0,0)" />
	<circle cx="125.60511080679" cy="-110.641199183082" r="2" style="fill: rgb(0,0,0)" />
	<circle cx="183.264127827621" cy="-106.396332556839" r="2" style="fill: rgb(0,0,0)" />
	<circle cx="227.03678373625" cy="-144.16584051217" r="2" style="fill: rgb(0,0,0)" />
	<circle cx="155.663397644176" cy="-310.80267006322" r="2" style="fill: rgb(0,0,0)" />
	<circle cx="141.494894770223" cy="-293.809636184146" r="2" style="fill: rgb(0,0,0)" />
	<circle cx="138.254783231792" cy="-271.92330822985" r="2" style="fill: rgb(0,0,0)" />
	<circle cx="191.021724386062" cy="-248.296394387688" r="2" style="fill: rgb(0,0,0)" />
	<circle cx="152.014614427226" cy="-356.074851622432" r="2" style="fill: rgb(0,0,0)" />
	<circle cx="148.774502888793" cy="-334.18852366814" r="2" style="fill: rgb(0,0,0)" />
	<circle cx="194.713651716514" cy="-386.336862212283" r="2" style="fill: rgb(0,0,0)" />
	<circle cx="172.588786200439" cy="-386.336862212308" r="2" style="fill: rgb(0,0,0)" />
	<circle cx="243.57708572572" cy="-404.541089015619" r="2" style="fill: rgb(0,0,0)" />
	<circle cx="221.690757771428" cy="-407.781200554045" r="2" style="fill: rgb(0,0,0)" />
	<circle cx="353.514191248261" cy="-90.0000190828086" r="2" style="fill: rgb(0,0,0)" />
	<circle cx="374.08836302146" cy="-81.8628740090205" r="2" style="fill: rgb(0,0,0)" />
	<circle cx="385.150795779515" cy="-101.023569601276" r="2" style="fill: rgb(0,0,0)" />
	<circle cx="366.127317749229" cy="-155.619250933364" r="2" style="fill: rgb(0,0,0)" />
	<circle cx="293.481093724239" cy="-133.068526376687" r="2" style="fill: rgb(0,0,0)" />
	<circle cx="309.12573616335" cy="-77.4104065787425" r="2" style="fill: rgb(0,0,0)" />
	<circle cx="331.250601679407" cy="-77.4104065787218" r="2" style="fill: rgb(0,0,0)" />
	<circle cx="350.135355657085" cy="-88.9375806169495" r="2" style="fill: rgb(0,0,0)" />
	<circle cx="405.208981885666" cy="-116.743628560095" r="2" style="fill: rgb(0,0,0)" />
	<circle cx="427.33384740175" cy="-116.743628560078" r="2" style="fill: rgb(0,0,0)" />
	<circle cx="430.573958940171" cy="-138.62995651438" r="2" style="fill: rgb(0,0,0)" />
	<circle cx="392.804450984844" cy="-182.402612423018" r="2" style="fill: rgb(0,0,0)" />
	<circle cx="328.935072404272" cy="-494.833936266362" r="2" style="fill: rgb(0,0,0)" />
	<circle cx="307.048744449964" cy="-498.074047804776" r="2" style="fill: rgb(0,0,0)" />
	<circle cx="263.276088541332" cy="-460.304539849426" r="2" style="fill: rgb(0,0,0)" />
	<circle cx="263.276088541324" cy="-438.179674333337" r="2" style="fill: rgb(0,0,0)" />
	<circle cx="348.737213183695" cy="-482.577449272431" r="2" style="fill: rgb(0,0,0)" />
	<circle cx="330.289876299646" cy="-494.792416975657" r="2" style="fill: rgb(0,0,0)" />
	<circle cx="497.820513289557" cy="-300.634183943125" r="2" style="fill: rgb(0,0,0)" />
	<circle cx="488.438790274721" cy="-320.671472865965" r="2" style="fill: rgb(0,0,0)" />
	<circle cx="506.076339429773" cy="-316.007959728938" r="2" style="fill: rgb(0,0,0)" />
	<circle cx="523.843415182148" cy="-329.192825800079" r="2" style="fill: rgb(0,0,0)" />
	<circle cx="528.088281808371" cy="-386.851842820893" r="2" style="fill: rgb(0,0,0)" />
	<circle cx="512.443639369108" cy="-402.496485260159" r="2" style="fill: rgb(0,0,0)" />
	<circle cx="511.602929884027" cy="-403.559699729603" r="2" style="fill: rgb(0,0,0)" />
	<circle cx="490.800547047084" cy="-411.094322640534" r="2" style="fill: rgb(0,0,0)" />
	<circle cx="506.569779421487" cy="-420.268351488239" r="2" style="fill: rgb(0,0,0)" />
	<circle cx="509.809890959901" cy="-442.154679442541" r="2" style="fill: rgb(0,0,0)" />
	<circle cx="472.040383004553" cy="-485.927335351145" r="2" style="fill: rgb(0,0,0)" />
	<circle cx="449.915517488465" cy="-485.927335351146" r="2" style="fill: rgb(0,0,0)" />
	<circle cx="448.569239949368" cy="-486.084670134433" r="2" style="fill: rgb(0,0,0)" />
	<circle cx="428.53195102652" cy="-476.702947119595" r="2" style="fill: rgb(0,0,0)" />
	<circle cx="433.195464163568" cy="-494.340496274651" r="2" style="fill: rgb(0,0,0)" />
	<circle cx="420.010598092417" cy="-512.107572027024" r="2" style="fill: rgb(0,0,0)" />
	<circle cx="362.351581071576" cy="-516.352438653242" r="2" style="fill: rgb(0,0,0)" />
	<circle cx="346.706938632307" cy="-500.707796213977" r="2" style="fill: rgb(0,0,0)" />
	<circle cx="118.070487895856" cy="-89.8388163461322" r="2" style="fill: rgb(0,0,0)" />
	<circle cx="122.477438406487" cy="-68.1572928456578" r="2" style="fill: rgb(0,0,0)" />
	<circle cx="180.136455427322" cy="-63.9124262194206" r="2" style="fill: rgb(0,0,0)" />
	<circle cx="187.671078338256" cy="-84.714809056369" r="2" style="fill: rgb(0,0,0)" />
	<circle cx="67.798313928607" cy="-145.032132076869" r="2" style="fill: rgb(0,0,0)" />
	<circle cx="55.5833462253869" cy="-126.584795192807" r="2" style="fill: rgb(0,0,0)" />
	<circle cx="93.3528541807258" cy="-82.8121392841846" r="2" style="fill: rgb(0,0,0)" />
	<circle cx="113.390143103576" cy="-92.1938622990247" r="2" style="fill: rgb(0,0,0)" />
	<circle cx="126.471402371484" cy="-269.879668990722" r="2" style="fill: rgb(0,0,0)" />
	<circle cx="108.024065487423" cy="-282.094636693943" r="2" style="fill: rgb(0,0,0)" />
	<circle cx="64.2514095788039" cy="-244.325128738614" r="2" style="fill: rgb(0,0,0)" />
	<circle cx="73.6331325936443" cy="-224.287839815765" r="2" style="fill: rgb(0,0,0)" />
	<circle cx="71.2780866407482" cy="-219.607495023473" r="2" style="fill: rgb(0,0,0)" />
	<circle cx="49.5965631402741" cy="-215.200544512843" r="2" style="fill: rgb(0,0,0)" />
	<circle cx="45.3516965140412" cy="-157.541527492017" r="2" style="fill: rgb(0,0,0)" />
	<circle cx="66.1540793509898" cy="-150.006904581084" r="2" style="fill: rgb(0,0,0)" />
	<circle cx="167.552388837473" cy="-385.756006901078" r="2" style="fill: rgb(0,0,0)" />
	<circle cx="116.331250565175" cy="-412.569737163261" r="2" style="fill: rgb(0,0,0)" />
	<circle cx="95.7570787919773" cy="-404.432592089485" r="2" style="fill: rgb(0,0,0)" />
	<circle cx="100.793476154929" cy="-382.888581884617" r="2" style="fill: rgb(0,0,0)" />
	<circle cx="336.180131013481" cy="-76.2508362022854" r="2" style="fill: rgb(0,0,0)" />
	<circle cx="356.754302786667" cy="-68.1136911284948" r="2" style="fill: rgb(0,0,0)" />
	<circle cx="393.249058613701" cy="-70.8004412509697" r="2" style="fill: rgb(0,0,0)" />
	<circle cx="404.31149137176" cy="-89.9611368432137" r="2" style="fill: rgb(0,0,0)" />
	<circle cx="332.175183942688" cy="-516.720264220671" r="2" style="fill: rgb(0,0,0)" />
	<circle cx="310.28885598839" cy="-519.960375759091" r="2" style="fill: rgb(0,0,0)" />
	<circle cx="539.488057621416" cy="-313.548183360816" r="2" style="fill: rgb(0,0,0)" />
	<circle cx="557.255133373788" cy="-326.733049431958" r="2" style="fill: rgb(0,0,0)" />
	<circle cx="561.5" cy="-384.392066452768" r="2" style="fill: rgb(0,0,0)" />
	<circle cx="545.855357560734" cy="-400.036708892031" r="2" style="fill: rgb(0,0,0)" />
	<circle cx="543.73292424764" cy="-402.496485260155" r="2" style="fill: rgb(0,0,0)" />
	<circle cx="528.088281808389" cy="-418.141127699421" r="2" style="fill: rgb(0,0,0)" />
	<circle cx="472.040383004556" cy="-508.052200867233" r="2" style="fill: rgb(0,0,0)" />
	<circle cx="449.915517488477" cy="-508.052200867242" r="2" style="fill: rgb(0,0,0)" />
	<circle cx="531.934756475991" cy="-442.154679442548" r="2" style="fill: rgb(0,0,0)" />
	<circle cx="535.174868014399" cy="-464.041007396851" r="2" style="fill: rgb(0,0,0)" />
	<circle cx="497.405360059041" cy="-507.813663305446" r="2" style="fill: rgb(0,0,0)" />
	<circle cx="475.280494542954" cy="-507.813663305441" r="2" style="fill: rgb(0,0,0)" />
	<circle cx="435.655240531682" cy="-527.752214466295" r="2" style="fill: rgb(0,0,0)" />
	<circle cx="422.470374460523" cy="-545.519290218666" r="2" style="fill: rgb(0,0,0)" />
	<circle cx="364.811357439678" cy="-549.764156844872" r="2" style="fill: rgb(0,0,0)" />
	<circle cx="349.166715000413" cy="-534.119514405603" r="2" style="fill: rgb(0,0,0)" />
	<circle cx="101.497213007005" cy="-75.1815235004683" r="2" style="fill: rgb(0,0,0)" />
	<circle cx="105.904163517622" cy="-53.5" r="2" style="fill: rgb(0,0,0)" />
	<circle cx="45.714967703226" cy="-146.386935972237" r="2" style="fill: rgb(0,0,0)" />
	<circle cx="33.5" cy="-127.939599088191" r="2" style="fill: rgb(0,0,0)" />
	<circle cx="42.2077468412245" cy="-246.21896273792" r="2" style="fill: rgb(0,0,0)" />
	<circle cx="51.5894698560626" cy="-226.181673815079" r="2" style="fill: rgb(0,0,0)" />
	<!--
	Generated using the Perl SVG Module V2.87
	by Ronan Oger

	-->
</svg>