<?xml version="1.0" encoding="UTF-8" standalone="yes"?>
<!DOCTYPE svg PUBLIC "-//W3C//DTD SVG 1.0//EN" "http://www.w3.org/TR/2001/REC-SVG-20010904/DTD/svg10.dtd">
<!-- generated using polymake; Michael Joswig, Georg Loho, Benjamin Lorenz, Rico Raber; license CC BY-NC-ND 3.0; see polymake.org and matchthenet.de -->
<svg height="841pt" id="document" viewBox="0 -705.667955468881 572 705.667955468881" width="595pt" xmlns="http://www.w3.org/2000/svg" xmlns:svg="http://www.w3.org/2000/svg" xmlns:xlink="http://www.w3.org/1999/xlink">
	<title id="document_title">planar_net_</title>
	<polygon points="310.685865052693,-287.793479189202 371.71813275989,-287.793479189202 414.874406783041,-330.949753212353 414.874406783042,-391.982020919549 371.718132759891,-435.1382949427 310.685865052694,-435.138294942699 267.529591029542,-391.982020919549 267.529591029542,-330.949753212352 " style="fill: rgb(14,173,105); fill-opacity: 1; stroke: rgb(0,0,0); stroke-width: 3" />
	<polygon points="341.2019989063,-240.298121897993 371.71813275989,-287.793479189202 310.685865052693,-287.793479189202 " style="fill: rgb(14,173,105); fill-opacity: 1; stroke: rgb(0,0,0); stroke-width: 3" />
	<polygon points="310.685865052693,-287.793479189202 267.529591029542,-330.949753212352 255.523372366792,-275.787260526439 " style="fill: rgb(14,173,105); fill-opacity: 1; stroke: rgb(0,0,0); stroke-width: 3" />
	<polygon points="267.529591029542,-330.949753212352 267.529591029542,-391.982020919549 220.034233738332,-361.465887065943 " style="fill: rgb(14,173,105); fill-opacity: 1; stroke: rgb(0,0,0); stroke-width: 3" />
	<polygon points="267.529591029542,-391.982020919549 310.685865052694,-435.138294942699 255.523372366781,-447.144513605451 " style="fill: rgb(14,173,105); fill-opacity: 1; stroke: rgb(0,0,0); stroke-width: 3" />
	<polygon points="310.685865052694,-435.138294942699 371.718132759891,-435.1382949427 341.201998906285,-482.633652233909 " style="fill: rgb(14,173,105); fill-opacity: 1; stroke: rgb(0,0,0); stroke-width: 3" />
	<polygon points="371.718132759891,-435.1382949427 414.874406783042,-391.982020919549 426.880625445792,-447.144513605462 " style="fill: rgb(14,173,105); fill-opacity: 1; stroke: rgb(0,0,0); stroke-width: 3" />
	<polygon points="414.874406783042,-391.982020919549 414.874406783041,-330.949753212353 462.369764074251,-361.465887065959 " style="fill: rgb(14,173,105); fill-opacity: 1; stroke: rgb(0,0,0); stroke-width: 3" />
	<polygon points="414.874406783041,-330.949753212353 371.71813275989,-287.793479189202 426.880625445802,-275.787260526451 " style="fill: rgb(14,173,105); fill-opacity: 1; stroke: rgb(0,0,0); stroke-width: 3" />
	<polygon points="394.190863425192,-220.824007532923 341.2019989063,-240.298121897993 292.946007210509,-210.999452178108 " style="fill: rgb(14,173,105); fill-opacity: 1; stroke: rgb(0,0,0); stroke-width: 3" />
	<polygon points="257.697078149279,-268.319436249799 201.535745179548,-274.059655444084 288.213243541141,-220.82394685195 " style="fill: rgb(14,173,105); fill-opacity: 1; stroke: rgb(0,0,0); stroke-width: 3" />
	<polygon points="216.290720282796,-354.648308319982 180.637614219854,-398.419496576298 204.284435550008,-299.485749597418 " style="fill: rgb(14,173,105); fill-opacity: 1; stroke: rgb(0,0,0); stroke-width: 3" />
	<polygon points="248.055548090138,-444.970807822967 253.795800523091,-501.132137395383 200.560113960086,-414.454786214476 " style="fill: rgb(14,173,105); fill-opacity: 1; stroke: rgb(0,0,0); stroke-width: 3" />
	<polygon points="334.384420160324,-486.377165689448 378.155629814122,-522.030245482763 279.221845651928,-498.383488532657 " style="fill: rgb(14,173,105); fill-opacity: 1; stroke: rgb(0,0,0); stroke-width: 3" />
	<polygon points="424.706919663307,-454.612337882108 480.868361741004,-448.872008611552 394.190882268984,-502.107810122576 " style="fill: rgb(14,173,105); fill-opacity: 1; stroke: rgb(0,0,0); stroke-width: 3" />
	<polygon points="466.113277529789,-368.283465811924 501.76633850203,-324.512240827754 478.119685276514,-423.4459993125 " style="fill: rgb(14,173,105); fill-opacity: 1; stroke: rgb(0,0,0); stroke-width: 3" />
	<polygon points="424.706900819491,-268.319425877195 394.190863425192,-220.824007532923 480.868242833133,-274.059672520896 " style="fill: rgb(14,173,105); fill-opacity: 1; stroke: rgb(0,0,0); stroke-width: 3" />
	<polygon points="424.706900819491,-268.319425877195 371.71813275989,-287.793479189202 341.2019989063,-240.298121897993 394.190863425192,-220.824007532923 " style="fill: rgb(14,173,105); fill-opacity: 1; stroke: rgb(0,0,0); stroke-width: 3" />
	<polygon points="310.685865052693,-287.793479189202 257.697078149279,-268.319436249799 288.213243541141,-220.82394685195 341.2019989063,-240.298121897993 " style="fill: rgb(14,173,105); fill-opacity: 1; stroke: rgb(0,0,0); stroke-width: 3" />
	<polygon points="267.529591029542,-330.949753212352 216.290720282796,-354.648308319982 204.284435550008,-299.485749597418 255.523372366792,-275.787260526439 " style="fill: rgb(14,173,105); fill-opacity: 1; stroke: rgb(0,0,0); stroke-width: 3" />
	<polygon points="267.529591029542,-391.982020919549 248.055548090138,-444.970807822967 200.560113960086,-414.454786214476 220.034233738332,-361.465887065943 " style="fill: rgb(14,173,105); fill-opacity: 1; stroke: rgb(0,0,0); stroke-width: 3" />
	<polygon points="310.685865052694,-435.138294942699 334.384420160324,-486.377165689448 279.221845651928,-498.383488532657 255.523372366781,-447.144513605451 " style="fill: rgb(14,173,105); fill-opacity: 1; stroke: rgb(0,0,0); stroke-width: 3" />
	<polygon points="371.718132759891,-435.1382949427 424.706919663307,-454.612337882108 394.190882268984,-502.107810122576 341.201998906285,-482.633652233909 " style="fill: rgb(14,173,105); fill-opacity: 1; stroke: rgb(0,0,0); stroke-width: 3" />
	<polygon points="414.874406783042,-391.982020919549 466.113277529789,-368.283465811924 478.119685276514,-423.4459993125 426.880625445792,-447.144513605462 " style="fill: rgb(14,173,105); fill-opacity: 1; stroke: rgb(0,0,0); stroke-width: 3" />
	<polygon points="414.874406783041,-330.949753212353 434.348449722448,-277.96096630894 481.843906177082,-308.477041813681 462.369764074251,-361.465887065959 " style="fill: rgb(14,173,105); fill-opacity: 1; stroke: rgb(0,0,0); stroke-width: 3" />
	<polygon points="394.190863425192,-220.824007532923 292.946007210509,-210.999452178108 350.674451746448,-142.683168747661 " style="fill: rgb(14,173,105); fill-opacity: 1; stroke: rgb(0,0,0); stroke-width: 3" />
	<polygon points="288.213243541141,-220.82394685195 201.535745179548,-274.059655444084 206.36997928758,-184.749506550172 " style="fill: rgb(14,173,105); fill-opacity: 1; stroke: rgb(0,0,0); stroke-width: 3" />
	<polygon points="204.284435550008,-299.485749597418 180.637614219854,-398.419496576298 120.904062649945,-331.849302742022 " style="fill: rgb(14,173,105); fill-opacity: 1; stroke: rgb(0,0,0); stroke-width: 3" />
	<polygon points="200.560113960086,-414.454786214476 253.795800523091,-501.132137395383 164.485648860581,-496.297954436159 " style="fill: rgb(14,173,105); fill-opacity: 1; stroke: rgb(0,0,0); stroke-width: 3" />
	<polygon points="279.221845651928,-498.383488532657 378.155629814122,-522.030245482763 311.585477826163,-581.763843688364 " style="fill: rgb(14,173,105); fill-opacity: 1; stroke: rgb(0,0,0); stroke-width: 3" />
	<polygon points="394.190882268984,-502.107810122576 480.868361741004,-448.872008611552 476.034092580941,-538.18223129405 " style="fill: rgb(14,173,105); fill-opacity: 1; stroke: rgb(0,0,0); stroke-width: 3" />
	<polygon points="478.119685276514,-423.4459993125 501.76633850203,-324.512240827754 561.5,-391.082192423846 " style="fill: rgb(14,173,105); fill-opacity: 1; stroke: rgb(0,0,0); stroke-width: 3" />
	<polygon points="480.868242833133,-274.059672520896 394.190863425192,-220.824007532923 476.034030762019,-184.749522434172 " style="fill: rgb(14,173,105); fill-opacity: 1; stroke: rgb(0,0,0); stroke-width: 3" />
	<polygon points="394.190863425192,-220.824007532923 350.674451746448,-142.683168747661 361.16208803464,-53.8592868242141 404.678499713382,-132.000125609481 " style="fill: rgb(14,173,105); fill-opacity: 1; stroke: rgb(0,0,0); stroke-width: 3" />
	<polygon points="350.674451746448,-142.683168747661 292.946007210509,-210.999452178108 299.731774163705,-121.816273266579 357.460142654211,-53.5 " style="fill: rgb(14,173,105); fill-opacity: 1; stroke: rgb(0,0,0); stroke-width: 3" />
	<polygon points="201.535745179548,-274.059655444084 153.151945153274,-198.835352288088 157.986206331257,-109.525244006834 206.36997928758,-184.749506550172 " style="fill: rgb(14,173,105); fill-opacity: 1; stroke: rgb(0,0,0); stroke-width: 3" />
	<polygon points="180.637614219854,-398.419496576298 93.2335696828695,-379.440415633312 33.5,-312.870334155377 120.904062649945,-331.849302742022 " style="fill: rgb(14,173,105); fill-opacity: 1; stroke: rgb(0,0,0); stroke-width: 3" />
	<polygon points="253.795800523091,-501.132137395383 178.571525076989,-549.515980503353 89.2613991838305,-544.681806309031 164.485648860581,-496.297954436159 " style="fill: rgb(14,173,105); fill-opacity: 1; stroke: rgb(0,0,0); stroke-width: 3" />
	<polygon points="378.155629814122,-522.030245482763 359.176610101987,-609.434303315509 292.606555627087,-669.167955468881 311.585477826163,-581.763843688364 " style="fill: rgb(14,173,105); fill-opacity: 1; stroke: rgb(0,0,0); stroke-width: 3" />
	<polygon points="480.868361741004,-448.872008611552 529.252223662948,-524.096271956606 524.417948424535,-613.406504704629 476.034092580941,-538.18223129405 " style="fill: rgb(14,173,105); fill-opacity: 1; stroke: rgb(0,0,0); stroke-width: 3" />
	<polygon points="480.868242833133,-274.059672520896 476.034030762019,-184.749522434172 524.417775649311,-109.525310891999 529.251987720419,-198.835460978726 " style="fill: rgb(14,173,105); fill-opacity: 1; stroke: rgb(0,0,0); stroke-width: 3" />
	<circle cx="310.685865052693" cy="-287.793479189202" r="2" style="fill: rgb(0,0,0)" />
	<circle cx="371.71813275989" cy="-287.793479189202" r="2" style="fill: rgb(0,0,0)" />
	<circle cx="414.874406783041" cy="-330.949753212353" r="2" style="fill: rgb(0,0,0)" />
	<circle cx="414.874406783042" cy="-391.982020919549" r="2" style="fill: rgb(0,0,0)" />
	<circle cx="371.718132759891" cy="-435.1382949427" r="2" style="fill: rgb(0,0,0)" />
	<circle cx="310.685865052694" cy="-435.138294942699" r="2" style="fill: rgb(0,0,0)" />
	<circle cx="267.529591029542" cy="-391.982020919549" r="2" style="fill: rgb(0,0,0)" />
	<circle cx="267.529591029542" cy="-330.949753212352" r="2" style="fill: rgb(0,0,0)" />
	<circle cx="341.2019989063" cy="-240.298121897993" r="2" style="fill: rgb(0,0,0)" />
	<circle cx="255.523372366792" cy="-275.787260526439" r="2" style="fill: rgb(0,0,0)" />
	<circle cx="220.034233738332" cy="-361.465887065943" r="2" style="fill: rgb(0,0,0)" />
	<circle cx="255.523372366781" cy="-447.144513605451" r="2" style="fill: rgb(0,0,0)" />
	<circle cx="341.201998906285" cy="-482.633652233909" r="2" style="fill: rgb(0,0,0)" />
	<circle cx="426.880625445792" cy="-447.144513605462" r="2" style="fill: rgb(0,0,0)" />
	<circle cx="462.369764074251" cy="-361.465887065959" r="2" style="fill: rgb(0,0,0)" />
	<circle cx="426.880625445802" cy="-275.787260526451" r="2" style="fill: rgb(0,0,0)" />
	<circle cx="394.190863425192" cy="-220.824007532923" r="2" style="fill: rgb(0,0,0)" />
	<circle cx="424.706900819491" cy="-268.319425877195" r="2" style="fill: rgb(0,0,0)" />
	<circle cx="257.697078149279" cy="-268.319436249799" r="2" style="fill: rgb(0,0,0)" />
	<circle cx="288.213243541141" cy="-220.82394685195" r="2" style="fill: rgb(0,0,0)" />
	<circle cx="216.290720282796" cy="-354.648308319982" r="2" style="fill: rgb(0,0,0)" />
	<circle cx="204.284435550008" cy="-299.485749597418" r="2" style="fill: rgb(0,0,0)" />
	<circle cx="248.055548090138" cy="-444.970807822967" r="2" style="fill: rgb(0,0,0)" />
	<circle cx="200.560113960086" cy="-414.454786214476" r="2" style="fill: rgb(0,0,0)" />
	<circle cx="334.384420160324" cy="-486.377165689448" r="2" style="fill: rgb(0,0,0)" />
	<circle cx="279.221845651928" cy="-498.383488532657" r="2" style="fill: rgb(0,0,0)" />
	<circle cx="424.706919663307" cy="-454.612337882108" r="2" style="fill: rgb(0,0,0)" />
	<circle cx="394.190882268984" cy="-502.107810122576" r="2" style="fill: rgb(0,0,0)" />
	<circle cx="466.113277529789" cy="-368.283465811924" r="2" style="fill: rgb(0,0,0)" />
	<circle cx="478.119685276514" cy="-423.4459993125" r="2" style="fill: rgb(0,0,0)" />
	<circle cx="434.348449722448" cy="-277.96096630894" r="2" style="fill: rgb(0,0,0)" />
	<circle cx="481.843906177082" cy="-308.477041813681" r="2" style="fill: rgb(0,0,0)" />
	<circle cx="292.946007210509" cy="-210.999452178108" r="2" style="fill: rgb(0,0,0)" />
	<circle cx="480.868242833133" cy="-274.059672520896" r="2" style="fill: rgb(0,0,0)" />
	<circle cx="201.535745179548" cy="-274.059655444084" r="2" style="fill: rgb(0,0,0)" />
	<circle cx="180.637614219854" cy="-398.419496576298" r="2" style="fill: rgb(0,0,0)" />
	<circle cx="253.795800523091" cy="-501.132137395383" r="2" style="fill: rgb(0,0,0)" />
	<circle cx="378.155629814122" cy="-522.030245482763" r="2" style="fill: rgb(0,0,0)" />
	<circle cx="480.868361741004" cy="-448.872008611552" r="2" style="fill: rgb(0,0,0)" />
	<circle cx="501.76633850203" cy="-324.512240827754" r="2" style="fill: rgb(0,0,0)" />
	<circle cx="350.674451746448" cy="-142.683168747661" r="2" style="fill: rgb(0,0,0)" />
	<circle cx="476.034030762019" cy="-184.749522434172" r="2" style="fill: rgb(0,0,0)" />
	<circle cx="206.36997928758" cy="-184.749506550172" r="2" style="fill: rgb(0,0,0)" />
	<circle cx="120.904062649945" cy="-331.849302742022" r="2" style="fill: rgb(0,0,0)" />
	<circle cx="164.485648860581" cy="-496.297954436159" r="2" style="fill: rgb(0,0,0)" />
	<circle cx="311.585477826163" cy="-581.763843688364" r="2" style="fill: rgb(0,0,0)" />
	<circle cx="476.034092580941" cy="-538.18223129405" r="2" style="fill: rgb(0,0,0)" />
	<circle cx="561.5" cy="-391.082192423846" r="2" style="fill: rgb(0,0,0)" />
	<circle cx="361.16208803464" cy="-53.8592868242141" r="2" style="fill: rgb(0,0,0)" />
	<circle cx="404.678499713382" cy="-132.000125609481" r="2" style="fill: rgb(0,0,0)" />
	<circle cx="299.731774163705" cy="-121.816273266579" r="2" style="fill: rgb(0,0,0)" />
	<circle cx="357.460142654211" cy="-53.5" r="2" style="fill: rgb(0,0,0)" />
	<circle cx="524.417775649311" cy="-109.525310891999" r="2" style="fill: rgb(0,0,0)" />
	<circle cx="529.251987720419" cy="-198.835460978726" r="2" style="fill: rgb(0,0,0)" />
	<circle cx="153.151945153274" cy="-198.835352288088" r="2" style="fill: rgb(0,0,0)" />
	<circle cx="157.986206331257" cy="-109.525244006834" r="2" style="fill: rgb(0,0,0)" />
	<circle cx="93.2335696828695" cy="-379.440415633312" r="2" style="fill: rgb(0,0,0)" />
	<circle cx="33.5" cy="-312.870334155377" r="2" style="fill: rgb(0,0,0)" />
	<circle cx="178.571525076989" cy="-549.515980503353" r="2" style="fill: rgb(0,0,0)" />
	<circle cx="89.2613991838305" cy="-544.681806309031" r="2" style="fill: rgb(0,0,0)" />
	<circle cx="359.176610101987" cy="-609.434303315509" r="2" style="fill: rgb(0,0,0)" />
	<circle cx="292.606555627087" cy="-669.167955468881" r="2" style="fill: rgb(0,0,0)" />
	<circle cx="529.252223662948" cy="-524.096271956606" r="2" style="fill: rgb(0,0,0)" />
	<circle cx="524.417948424535" cy="-613.406504704629" r="2" style="fill: rgb(0,0,0)" />
	<!--
	Generated using the Perl SVG Module V2.87
	by Ronan Oger

	-->
</svg>