<?xml version="1.0" encoding="UTF-8" standalone="yes"?>
<!DOCTYPE svg PUBLIC "-//W3C//DTD SVG 1.0//EN" "http://www.w3.org/TR/2001/REC-SVG-20010904/DTD/svg10.dtd">
<!-- generated using polymake; Michael Joswig, Georg Loho, Benjamin Lorenz, Rico Raber; license CC BY-NC-ND 3.0; see polymake.org and matchthenet.de -->
<svg height="841pt" id="document" viewBox="0 -456.516401342967 572 456.516401342967" width="595pt" xmlns="http://www.w3.org/2000/svg" xmlns:svg="http://www.w3.org/2000/svg" xmlns:xlink="http://www.w3.org/1999/xlink">
	<title id="document_title">planar_net_</title>
	<polygon points="271.424022412681,-205.216899313669 337.115276754981,-205.216899313669 282.680956996693,-238.113380411171 " style="fill: rgb(14,173,105); fill-opacity: 1; stroke: rgb(0,0,0); stroke-width: 3" />
	<polygon points="340.951534375637,-198.539324108857 337.115276754981,-205.216899313669 271.424022412681,-205.216899313669 " style="fill: rgb(14,173,105); fill-opacity: 1; stroke: rgb(0,0,0); stroke-width: 3" />
	<polygon points="339.215529965754,-119.169705775629 340.951534375637,-198.539324108857 265.388960139253,-157.48132780333 " style="fill: rgb(14,173,105); fill-opacity: 1; stroke: rgb(0,0,0); stroke-width: 3" />
	<polygon points="271.424022412681,-205.216899313669 265.388960139253,-157.48132780333 340.951534375637,-198.539324108857 " style="fill: rgb(14,173,105); fill-opacity: 1; stroke: rgb(0,0,0); stroke-width: 3" />
	<polygon points="298.051668713806,-292.335483275286 337.115276754981,-205.216899313669 375.714854365931,-317.571994648044 " style="fill: rgb(14,173,105); fill-opacity: 1; stroke: rgb(0,0,0); stroke-width: 3" />
	<polygon points="442.4072608415,-115.703804379652 376.102601685822,-127.356794702909 420.456903598829,-103.064048401406 " style="fill: rgb(14,173,105); fill-opacity: 1; stroke: rgb(0,0,0); stroke-width: 3" />
	<polygon points="282.680956996693,-238.113380411171 337.115276754981,-205.216899313669 298.051668713806,-292.335483275286 " style="fill: rgb(14,173,105); fill-opacity: 1; stroke: rgb(0,0,0); stroke-width: 3" />
	<polygon points="436.398075350601,-194.047986599729 340.951534375637,-198.539324108857 376.102601685822,-127.356794702909 " style="fill: rgb(14,173,105); fill-opacity: 1; stroke: rgb(0,0,0); stroke-width: 3" />
	<polygon points="436.398075350601,-194.047986599729 337.115276754981,-205.216899313669 340.951534375637,-198.539324108857 " style="fill: rgb(14,173,105); fill-opacity: 1; stroke: rgb(0,0,0); stroke-width: 3" />
	<polygon points="420.026492691767,-290.301122946642 337.115276754981,-205.216899313669 436.398075350601,-194.047986599729 " style="fill: rgb(14,173,105); fill-opacity: 1; stroke: rgb(0,0,0); stroke-width: 3" />
	<polygon points="271.424022412681,-205.216899313669 210.085250653962,-122.086017336959 265.388960139253,-157.48132780333 " style="fill: rgb(14,173,105); fill-opacity: 1; stroke: rgb(0,0,0); stroke-width: 3" />
	<polygon points="339.215529965754,-119.169705775629 314.09143308012,-53.5 334.891288809616,-68.783769647749 " style="fill: rgb(14,173,105); fill-opacity: 1; stroke: rgb(0,0,0); stroke-width: 3" />
	<polygon points="442.4072608415,-115.703804379652 420.456903598829,-103.064048401406 431.142474560533,-79.5683852646524 " style="fill: rgb(14,173,105); fill-opacity: 1; stroke: rgb(0,0,0); stroke-width: 3" />
	<polygon points="265.388960139253,-157.48132780333 241.738753747395,-96.2277889384823 339.215529965754,-119.169705775629 " style="fill: rgb(14,173,105); fill-opacity: 1; stroke: rgb(0,0,0); stroke-width: 3" />
	<polygon points="466.933762016951,-171.998510339812 436.398075350601,-194.047986599729 442.4072608415,-115.703804379652 " style="fill: rgb(14,173,105); fill-opacity: 1; stroke: rgb(0,0,0); stroke-width: 3" />
	<polygon points="298.051668713806,-292.335483275286 375.714854365931,-317.571994648044 330.023075162648,-365.229790881832 " style="fill: rgb(14,173,105); fill-opacity: 1; stroke: rgb(0,0,0); stroke-width: 3" />
	<polygon points="282.680956996693,-238.113380411171 298.051668713806,-292.335483275286 244.394593754235,-340.926985720605 " style="fill: rgb(14,173,105); fill-opacity: 1; stroke: rgb(0,0,0); stroke-width: 3" />
	<polygon points="241.738753747395,-96.2277889384823 314.09143308012,-53.5 339.215529965754,-119.169705775629 " style="fill: rgb(14,173,105); fill-opacity: 1; stroke: rgb(0,0,0); stroke-width: 3" />
	<polygon points="466.38814878769,-229.134965981101 436.398075350601,-194.047986599729 474.053841683508,-194.854724106441 " style="fill: rgb(14,173,105); fill-opacity: 1; stroke: rgb(0,0,0); stroke-width: 3" />
	<polygon points="330.023075162648,-365.229790881832 375.714854365931,-317.571994648044 372.827074504655,-338.138435078675 " style="fill: rgb(14,173,105); fill-opacity: 1; stroke: rgb(0,0,0); stroke-width: 3" />
	<polygon points="436.398075350601,-194.047986599729 376.102601685822,-127.356794702909 442.4072608415,-115.703804379652 " style="fill: rgb(14,173,105); fill-opacity: 1; stroke: rgb(0,0,0); stroke-width: 3" />
	<polygon points="330.023075162648,-365.229790881832 372.827074504655,-338.138435078675 337.530579060059,-368.614777515863 " style="fill: rgb(14,173,105); fill-opacity: 1; stroke: rgb(0,0,0); stroke-width: 3" />
	<polygon points="271.424022412681,-205.216899313669 282.680956996693,-238.113380411171 200.106552362333,-310.348764720647 " style="fill: rgb(14,173,105); fill-opacity: 1; stroke: rgb(0,0,0); stroke-width: 3" />
	<polygon points="255.645825822191,-394.880978260039 274.474931411591,-368.361060352595 276.336471319804,-376.383243250813 " style="fill: rgb(14,173,105); fill-opacity: 1; stroke: rgb(0,0,0); stroke-width: 3" />
	<polygon points="271.424022412681,-205.216899313669 200.106552362333,-310.348764720647 163.766120042248,-294.114901878813 " style="fill: rgb(14,173,105); fill-opacity: 1; stroke: rgb(0,0,0); stroke-width: 3" />
	<polygon points="420.026492691767,-290.301122946642 436.398075350601,-194.047986599729 466.38814878769,-229.134965981101 " style="fill: rgb(14,173,105); fill-opacity: 1; stroke: rgb(0,0,0); stroke-width: 3" />
	<polygon points="244.394593754235,-340.926985720605 298.051668713806,-292.335483275286 274.474931411591,-368.361060352595 " style="fill: rgb(14,173,105); fill-opacity: 1; stroke: rgb(0,0,0); stroke-width: 3" />
	<polygon points="110.422585329566,-302.423447924563 134.472931443641,-367.120773897629 77.9388087176778,-344.691407576645 " style="fill: rgb(14,173,105); fill-opacity: 1; stroke: rgb(0,0,0); stroke-width: 3" />
	<polygon points="420.026492691767,-290.301122946642 466.38814878769,-229.134965981101 436.38385931018,-303.097774923804 " style="fill: rgb(14,173,105); fill-opacity: 1; stroke: rgb(0,0,0); stroke-width: 3" />
	<polygon points="436.38385931018,-303.097774923804 466.38814878769,-229.134965981101 473.942494047195,-302.027933557363 " style="fill: rgb(14,173,105); fill-opacity: 1; stroke: rgb(0,0,0); stroke-width: 3" />
	<polygon points="337.530579060059,-368.614777515863 372.827074504655,-338.138435078675 385.63758874099,-373.461038732127 " style="fill: rgb(14,173,105); fill-opacity: 1; stroke: rgb(0,0,0); stroke-width: 3" />
	<polygon points="255.645825822191,-394.880978260039 276.336471319804,-376.383243250813 297.16717325523,-420.016401342967 " style="fill: rgb(14,173,105); fill-opacity: 1; stroke: rgb(0,0,0); stroke-width: 3" />
	<polygon points="244.394593754235,-340.926985720605 274.474931411591,-368.361060352595 255.645825822191,-394.880978260039 " style="fill: rgb(14,173,105); fill-opacity: 1; stroke: rgb(0,0,0); stroke-width: 3" />
	<polygon points="466.933762016951,-171.998510339812 442.4072608415,-115.703804379652 504.892874527304,-127.39907908043 " style="fill: rgb(14,173,105); fill-opacity: 1; stroke: rgb(0,0,0); stroke-width: 3" />
	<polygon points="114.904502514093,-271.156091683814 61.6500389345753,-268.760624092887 65.033396464447,-244.984948415621 " style="fill: rgb(14,173,105); fill-opacity: 1; stroke: rgb(0,0,0); stroke-width: 3" />
	<polygon points="505.292065519552,-106.390764670667 442.4072608415,-115.703804379652 431.142474560533,-79.5683852646524 " style="fill: rgb(14,173,105); fill-opacity: 1; stroke: rgb(0,0,0); stroke-width: 3" />
	<polygon points="466.38814878769,-229.134965981101 474.053841683508,-194.854724106441 532.487061918304,-198.799627682676 " style="fill: rgb(14,173,105); fill-opacity: 1; stroke: rgb(0,0,0); stroke-width: 3" />
	<polygon points="134.472931443641,-367.120773897629 160.556104042282,-348.733469639081 151.407525947196,-396.400180298103 " style="fill: rgb(14,173,105); fill-opacity: 1; stroke: rgb(0,0,0); stroke-width: 3" />
	<polygon points="104.905646707099,-120.756330598856 64.8484082058278,-199.042635008657 33.5,-154.205329010315 " style="fill: rgb(14,173,105); fill-opacity: 1; stroke: rgb(0,0,0); stroke-width: 3" />
	<polygon points="65.033396464447,-244.984948415621 61.6500389345753,-268.760624092887 44.9885347705941,-260.840643326098 " style="fill: rgb(14,173,105); fill-opacity: 1; stroke: rgb(0,0,0); stroke-width: 3" />
	<polygon points="271.424022412681,-205.216899313669 163.766120042248,-294.114901878813 176.097870480346,-165.390862392245 " style="fill: rgb(14,173,105); fill-opacity: 1; stroke: rgb(0,0,0); stroke-width: 3" />
	<polygon points="110.422585329566,-302.423447924563 160.556104042282,-348.733469639081 134.472931443641,-367.120773897629 " style="fill: rgb(14,173,105); fill-opacity: 1; stroke: rgb(0,0,0); stroke-width: 3" />
	<polygon points="163.766120042248,-294.114901878813 200.106552362333,-310.348764720647 160.556104042282,-348.733469639081 " style="fill: rgb(14,173,105); fill-opacity: 1; stroke: rgb(0,0,0); stroke-width: 3" />
	<polygon points="176.097870480346,-165.390862392245 126.812994260053,-221.764661668539 104.905646707099,-120.756330598856 " style="fill: rgb(14,173,105); fill-opacity: 1; stroke: rgb(0,0,0); stroke-width: 3" />
	<polygon points="176.097870480346,-165.390862392245 163.766120042248,-294.114901878813 126.812994260053,-221.764661668539 " style="fill: rgb(14,173,105); fill-opacity: 1; stroke: rgb(0,0,0); stroke-width: 3" />
	<polygon points="163.766120042248,-294.114901878813 114.904502514093,-271.156091683814 126.812994260053,-221.764661668539 " style="fill: rgb(14,173,105); fill-opacity: 1; stroke: rgb(0,0,0); stroke-width: 3" />
	<polygon points="163.766120042248,-294.114901878813 160.556104042282,-348.733469639081 110.422585329566,-302.423447924563 " style="fill: rgb(14,173,105); fill-opacity: 1; stroke: rgb(0,0,0); stroke-width: 3" />
	<polygon points="126.812994260053,-221.764661668539 114.904502514093,-271.156091683814 65.033396464447,-244.984948415621 " style="fill: rgb(14,173,105); fill-opacity: 1; stroke: rgb(0,0,0); stroke-width: 3" />
	<polygon points="104.905646707099,-120.756330598856 126.812994260053,-221.764661668539 64.8484082058278,-199.042635008657 " style="fill: rgb(14,173,105); fill-opacity: 1; stroke: rgb(0,0,0); stroke-width: 3" />
	<polygon points="33.5,-154.205329010315 64.8484082058278,-199.042635008657 41.2664350339232,-189.189205009949 " style="fill: rgb(14,173,105); fill-opacity: 1; stroke: rgb(0,0,0); stroke-width: 3" />
	<polygon points="521.167150154078,-255.166510658055 532.487061918304,-198.799627682676 561.5,-219.833850201281 " style="fill: rgb(14,173,105); fill-opacity: 1; stroke: rgb(0,0,0); stroke-width: 3" />
	<polygon points="77.9388087176778,-344.691407576645 101.559884863297,-394.805884903391 63.8893949456405,-356.647401429714 " style="fill: rgb(14,173,105); fill-opacity: 1; stroke: rgb(0,0,0); stroke-width: 3" />
	<polygon points="134.472931443641,-367.120773897629 151.407525947196,-396.400180298103 108.593510866411,-401.471750553161 " style="fill: rgb(14,173,105); fill-opacity: 1; stroke: rgb(0,0,0); stroke-width: 3" />
	<polygon points="466.38814878769,-229.134965981101 532.487061918304,-198.799627682676 521.167150154078,-255.166510658055 " style="fill: rgb(14,173,105); fill-opacity: 1; stroke: rgb(0,0,0); stroke-width: 3" />
	<polygon points="77.9388087176778,-344.691407576645 134.472931443641,-367.120773897629 101.559884863297,-394.805884903391 " style="fill: rgb(14,173,105); fill-opacity: 1; stroke: rgb(0,0,0); stroke-width: 3" />
	<polygon points="473.942494047195,-302.027933557363 466.38814878769,-229.134965981101 506.917789656678,-274.254014286656 " style="fill: rgb(14,173,105); fill-opacity: 1; stroke: rgb(0,0,0); stroke-width: 3" />
	<circle cx="271.424022412681" cy="-205.216899313669" r="2" style="fill: rgb(0,0,0)" />
	<circle cx="337.115276754981" cy="-205.216899313669" r="2" style="fill: rgb(0,0,0)" />
	<circle cx="282.680956996693" cy="-238.113380411171" r="2" style="fill: rgb(0,0,0)" />
	<circle cx="340.951534375637" cy="-198.539324108857" r="2" style="fill: rgb(0,0,0)" />
	<circle cx="298.051668713806" cy="-292.335483275286" r="2" style="fill: rgb(0,0,0)" />
	<circle cx="200.106552362333" cy="-310.348764720647" r="2" style="fill: rgb(0,0,0)" />
	<circle cx="265.388960139253" cy="-157.48132780333" r="2" style="fill: rgb(0,0,0)" />
	<circle cx="436.398075350601" cy="-194.047986599729" r="2" style="fill: rgb(0,0,0)" />
	<circle cx="375.714854365931" cy="-317.571994648044" r="2" style="fill: rgb(0,0,0)" />
	<circle cx="244.394593754235" cy="-340.926985720605" r="2" style="fill: rgb(0,0,0)" />
	<circle cx="163.766120042248" cy="-294.114901878813" r="2" style="fill: rgb(0,0,0)" />
	<circle cx="339.215529965754" cy="-119.169705775629" r="2" style="fill: rgb(0,0,0)" />
	<circle cx="210.085250653962" cy="-122.086017336959" r="2" style="fill: rgb(0,0,0)" />
	<circle cx="376.102601685822" cy="-127.356794702909" r="2" style="fill: rgb(0,0,0)" />
	<circle cx="420.026492691767" cy="-290.301122946642" r="2" style="fill: rgb(0,0,0)" />
	<circle cx="330.023075162648" cy="-365.229790881832" r="2" style="fill: rgb(0,0,0)" />
	<circle cx="274.474931411591" cy="-368.361060352595" r="2" style="fill: rgb(0,0,0)" />
	<circle cx="176.097870480346" cy="-165.390862392245" r="2" style="fill: rgb(0,0,0)" />
	<circle cx="160.556104042282" cy="-348.733469639081" r="2" style="fill: rgb(0,0,0)" />
	<circle cx="241.738753747395" cy="-96.2277889384823" r="2" style="fill: rgb(0,0,0)" />
	<circle cx="442.4072608415" cy="-115.703804379652" r="2" style="fill: rgb(0,0,0)" />
	<circle cx="466.38814878769" cy="-229.134965981101" r="2" style="fill: rgb(0,0,0)" />
	<circle cx="372.827074504655" cy="-338.138435078675" r="2" style="fill: rgb(0,0,0)" />
	<circle cx="255.645825822191" cy="-394.880978260039" r="2" style="fill: rgb(0,0,0)" />
	<circle cx="126.812994260053" cy="-221.764661668539" r="2" style="fill: rgb(0,0,0)" />
	<circle cx="110.422585329566" cy="-302.423447924563" r="2" style="fill: rgb(0,0,0)" />
	<circle cx="314.09143308012" cy="-53.5" r="2" style="fill: rgb(0,0,0)" />
	<circle cx="420.456903598829" cy="-103.064048401406" r="2" style="fill: rgb(0,0,0)" />
	<circle cx="466.933762016951" cy="-171.998510339812" r="2" style="fill: rgb(0,0,0)" />
	<circle cx="474.053841683508" cy="-194.854724106441" r="2" style="fill: rgb(0,0,0)" />
	<circle cx="436.38385931018" cy="-303.097774923804" r="2" style="fill: rgb(0,0,0)" />
	<circle cx="337.530579060059" cy="-368.614777515863" r="2" style="fill: rgb(0,0,0)" />
	<circle cx="276.336471319804" cy="-376.383243250813" r="2" style="fill: rgb(0,0,0)" />
	<circle cx="104.905646707099" cy="-120.756330598856" r="2" style="fill: rgb(0,0,0)" />
	<circle cx="114.904502514093" cy="-271.156091683814" r="2" style="fill: rgb(0,0,0)" />
	<circle cx="134.472931443641" cy="-367.120773897629" r="2" style="fill: rgb(0,0,0)" />
	<circle cx="334.891288809616" cy="-68.783769647749" r="2" style="fill: rgb(0,0,0)" />
	<circle cx="431.142474560533" cy="-79.5683852646524" r="2" style="fill: rgb(0,0,0)" />
	<circle cx="504.892874527304" cy="-127.39907908043" r="2" style="fill: rgb(0,0,0)" />
	<circle cx="532.487061918304" cy="-198.799627682676" r="2" style="fill: rgb(0,0,0)" />
	<circle cx="473.942494047195" cy="-302.027933557363" r="2" style="fill: rgb(0,0,0)" />
	<circle cx="385.63758874099" cy="-373.461038732127" r="2" style="fill: rgb(0,0,0)" />
	<circle cx="297.16717325523" cy="-420.016401342967" r="2" style="fill: rgb(0,0,0)" />
	<circle cx="64.8484082058278" cy="-199.042635008657" r="2" style="fill: rgb(0,0,0)" />
	<circle cx="65.033396464447" cy="-244.984948415621" r="2" style="fill: rgb(0,0,0)" />
	<circle cx="77.9388087176778" cy="-344.691407576645" r="2" style="fill: rgb(0,0,0)" />
	<circle cx="151.407525947196" cy="-396.400180298103" r="2" style="fill: rgb(0,0,0)" />
	<circle cx="505.292065519552" cy="-106.390764670667" r="2" style="fill: rgb(0,0,0)" />
	<circle cx="521.167150154078" cy="-255.166510658055" r="2" style="fill: rgb(0,0,0)" />
	<circle cx="506.917789656678" cy="-274.254014286656" r="2" style="fill: rgb(0,0,0)" />
	<circle cx="33.5" cy="-154.205329010315" r="2" style="fill: rgb(0,0,0)" />
	<circle cx="61.6500389345753" cy="-268.760624092887" r="2" style="fill: rgb(0,0,0)" />
	<circle cx="101.559884863297" cy="-394.805884903391" r="2" style="fill: rgb(0,0,0)" />
	<circle cx="108.593510866411" cy="-401.471750553161" r="2" style="fill: rgb(0,0,0)" />
	<circle cx="561.5" cy="-219.833850201281" r="2" style="fill: rgb(0,0,0)" />
	<circle cx="41.2664350339232" cy="-189.189205009949" r="2" style="fill: rgb(0,0,0)" />
	<circle cx="44.9885347705941" cy="-260.840643326098" r="2" style="fill: rgb(0,0,0)" />
	<circle cx="63.8893949456405" cy="-356.647401429714" r="2" style="fill: rgb(0,0,0)" />
	<!--
	Generated using the Perl SVG Module V2.87
	by Ronan Oger

	-->
</svg>