<?xml version="1.0" encoding="UTF-8" standalone="yes"?>
<!DOCTYPE svg PUBLIC "-//W3C//DTD SVG 1.0//EN" "http://www.w3.org/TR/2001/REC-SVG-20010904/DTD/svg10.dtd">
<!-- generated using polymake; Michael Joswig, Georg Loho, Benjamin Lorenz, Rico Raber; license CC BY-NC-ND 3.0; see polymake.org and matchthenet.de -->
<svg height="841pt" id="document" viewBox="0 -494.732301119281 572 494.732301119281" width="595pt" xmlns="http://www.w3.org/2000/svg" xmlns:svg="http://www.w3.org/2000/svg" xmlns:xlink="http://www.w3.org/1999/xlink">
	<title id="document_title">planar_net_</title>
	<polygon points="33.5,-239.909082735818 448.587344964756,-239.909082735818 514.325813755655,-264.223310918749 521.490456238683,-314.348304873921 " style="fill: rgb(14,173,105); fill-opacity: 1; stroke: rgb(0,0,0); stroke-width: 3" />
	<polygon points="517.456910182022,-228.537415002331 512.238274039273,-230.199618978699 537.494927396849,-53.5 561.499999999989,-152.726296778855 " style="fill: rgb(14,173,105); fill-opacity: 1; stroke: rgb(0,0,0); stroke-width: 3" />
	<polygon points="512.238274039273,-230.199618978699 448.587344964756,-239.909082735818 33.5,-239.909082735818 537.494927396849,-53.5 " style="fill: rgb(14,173,105); fill-opacity: 1; stroke: rgb(0,0,0); stroke-width: 3" />
	<polygon points="521.490456238683,-314.348304873921 514.325813755655,-264.223310918749 517.456910182174,-251.280750469336 561.5,-327.091868692785 " style="fill: rgb(14,173,105); fill-opacity: 1; stroke: rgb(0,0,0); stroke-width: 3" />
	<polygon points="33.5,-239.909082735818 521.490456238683,-314.348304873921 525.481798148544,-356.148199617272 524.513447150704,-458.232301119281 " style="fill: rgb(14,173,105); fill-opacity: 1; stroke: rgb(0,0,0); stroke-width: 3" />
	<polygon points="514.325813755655,-264.223310918749 448.587344964756,-239.909082735818 512.729653190135,-245.519675755413 513.598581277191,-250.927267569649 " style="fill: rgb(14,173,105); fill-opacity: 1; stroke: rgb(0,0,0); stroke-width: 3" />
	<circle cx="33.5" cy="-239.909082735818" r="2" style="fill: rgb(0,0,0)" />
	<circle cx="448.587344964756" cy="-239.909082735818" r="2" style="fill: rgb(0,0,0)" />
	<circle cx="514.325813755655" cy="-264.223310918749" r="2" style="fill: rgb(0,0,0)" />
	<circle cx="521.490456238683" cy="-314.348304873921" r="2" style="fill: rgb(0,0,0)" />
	<circle cx="537.494927396849" cy="-53.5" r="2" style="fill: rgb(0,0,0)" />
	<circle cx="512.238274039273" cy="-230.199618978699" r="2" style="fill: rgb(0,0,0)" />
	<circle cx="517.456910182174" cy="-251.280750469336" r="2" style="fill: rgb(0,0,0)" />
	<circle cx="561.5" cy="-327.091868692785" r="2" style="fill: rgb(0,0,0)" />
	<circle cx="525.481798148544" cy="-356.148199617272" r="2" style="fill: rgb(0,0,0)" />
	<circle cx="524.513447150704" cy="-458.232301119281" r="2" style="fill: rgb(0,0,0)" />
	<circle cx="512.729653190135" cy="-245.519675755413" r="2" style="fill: rgb(0,0,0)" />
	<circle cx="513.598581277191" cy="-250.927267569649" r="2" style="fill: rgb(0,0,0)" />
	<circle cx="561.499999999989" cy="-152.726296778855" r="2" style="fill: rgb(0,0,0)" />
	<circle cx="517.456910182022" cy="-228.537415002331" r="2" style="fill: rgb(0,0,0)" />
	<!--
	Generated using the Perl SVG Module V2.86
	by Ronan Oger
	Info: http://www.roitsystems.com/
	-->
</svg>