<?xml version="1.0" encoding="UTF-8" standalone="yes"?>
<!DOCTYPE svg PUBLIC "-//W3C//DTD SVG 1.0//EN" "http://www.w3.org/TR/2001/REC-SVG-20010904/DTD/svg10.dtd">
<!-- generated using polymake; Michael Joswig, Georg Loho, Benjamin Lorenz, Rico Raber; license CC BY-NC-ND 3.0; see polymake.org and matchthenet.de -->
<svg height="841pt" id="document" viewBox="0 -769.261184600874 572 769.261184600874" width="595pt" xmlns="http://www.w3.org/2000/svg" xmlns:svg="http://www.w3.org/2000/svg" xmlns:xlink="http://www.w3.org/1999/xlink">
	<title id="document_title">planar_net_</title>
	<polygon points="198.813737464861,-327.339750610335 396.186262535129,-327.339750610335 330.395420845043,-524.712275680605 264.604579154952,-524.712275680614 " style="fill: rgb(14,173,105); fill-opacity: 1; stroke: rgb(0,0,0); stroke-width: 3" />
	<polygon points="352.325701408415,-53.5000000000056 374.255981971767,-119.290841690091 220.744018028229,-119.290841690087 242.674298591598,-53.5 " style="fill: rgb(14,173,105); fill-opacity: 1; stroke: rgb(0,0,0); stroke-width: 3" />
	<polygon points="374.255981971767,-119.290841690091 396.186262535129,-327.339750610335 198.813737464861,-327.339750610335 220.744018028229,-119.290841690087 " style="fill: rgb(14,173,105); fill-opacity: 1; stroke: rgb(0,0,0); stroke-width: 3" />
	<polygon points="264.604579154952,-524.712275680614 330.395420845043,-524.712275680605 352.325701408412,-732.761184600861 242.674298591592,-732.761184600874 " style="fill: rgb(14,173,105); fill-opacity: 1; stroke: rgb(0,0,0); stroke-width: 3" />
	<polygon points="198.813737464861,-327.339750610335 264.604579154952,-524.712275680614 55.4302805633692,-521.336106666598 33.5,-455.545264976505 " style="fill: rgb(14,173,105); fill-opacity: 1; stroke: rgb(0,0,0); stroke-width: 3" />
	<polygon points="330.395420845043,-524.712275680605 396.186262535129,-327.339750610335 561.5,-455.545264976494 539.569719436641,-521.33610666658 " style="fill: rgb(14,173,105); fill-opacity: 1; stroke: rgb(0,0,0); stroke-width: 3" />
	<circle cx="198.813737464861" cy="-327.339750610335" r="2" style="fill: rgb(0,0,0)" />
	<circle cx="396.186262535129" cy="-327.339750610335" r="2" style="fill: rgb(0,0,0)" />
	<circle cx="330.395420845043" cy="-524.712275680605" r="2" style="fill: rgb(0,0,0)" />
	<circle cx="264.604579154952" cy="-524.712275680614" r="2" style="fill: rgb(0,0,0)" />
	<circle cx="220.744018028229" cy="-119.290841690087" r="2" style="fill: rgb(0,0,0)" />
	<circle cx="374.255981971767" cy="-119.290841690091" r="2" style="fill: rgb(0,0,0)" />
	<circle cx="352.325701408412" cy="-732.761184600861" r="2" style="fill: rgb(0,0,0)" />
	<circle cx="242.674298591592" cy="-732.761184600874" r="2" style="fill: rgb(0,0,0)" />
	<circle cx="55.4302805633692" cy="-521.336106666598" r="2" style="fill: rgb(0,0,0)" />
	<circle cx="33.5" cy="-455.545264976505" r="2" style="fill: rgb(0,0,0)" />
	<circle cx="561.5" cy="-455.545264976494" r="2" style="fill: rgb(0,0,0)" />
	<circle cx="539.569719436641" cy="-521.33610666658" r="2" style="fill: rgb(0,0,0)" />
	<circle cx="242.674298591598" cy="-53.5" r="2" style="fill: rgb(0,0,0)" />
	<circle cx="352.325701408415" cy="-53.5000000000056" r="2" style="fill: rgb(0,0,0)" />
	<!--
	Generated using the Perl SVG Module V2.86
	by Ronan Oger
	Info: http://www.roitsystems.com/
	-->
</svg>