<?xml version="1.0" encoding="UTF-8" standalone="yes"?>
<!DOCTYPE svg PUBLIC "-//W3C//DTD SVG 1.0//EN" "http://www.w3.org/TR/2001/REC-SVG-20010904/DTD/svg10.dtd">
<!-- generated using polymake; Michael Joswig, Georg Loho, Benjamin Lorenz, Rico Raber; license CC BY-NC-ND 3.0; see polymake.org and matchthenet.de -->
<svg height="841pt" id="document" viewBox="0 -483.876368345542 572 483.876368345542" width="595pt" xmlns="http://www.w3.org/2000/svg" xmlns:svg="http://www.w3.org/2000/svg" xmlns:xlink="http://www.w3.org/1999/xlink">
	<title id="document_title">planar_net_</title>
	<polygon points="298.526629906571,-304.178151076457 561.5,-304.178151076457 300.445398239715,-316.953323625392 " style="fill: rgb(14,173,105); fill-opacity: 1; stroke: rgb(0,0,0); stroke-width: 3" />
	<polygon points="298.526629906571,-304.178151076457 297.518392771525,-288.193328425008 561.5,-304.178151076457 " style="fill: rgb(14,173,105); fill-opacity: 1; stroke: rgb(0,0,0); stroke-width: 3" />
	<polygon points="297.518392771525,-288.193328425008 298.594264085209,-270.073446688579 561.5,-304.178151076457 " style="fill: rgb(14,173,105); fill-opacity: 1; stroke: rgb(0,0,0); stroke-width: 3" />
	<polygon points="304.216788075797,-334.147775557441 561.5,-304.178151076457 305.686830675678,-339.850704445185 " style="fill: rgb(14,173,105); fill-opacity: 1; stroke: rgb(0,0,0); stroke-width: 3" />
	<polygon points="298.594264085209,-270.073446688579 302.177303549289,-252.278800264476 561.5,-304.178151076457 " style="fill: rgb(14,173,105); fill-opacity: 1; stroke: rgb(0,0,0); stroke-width: 3" />
	<polygon points="307.230708308427,-237.080306999283 312.345562332551,-225.217551257568 561.5,-304.178151076457 " style="fill: rgb(14,173,105); fill-opacity: 1; stroke: rgb(0,0,0); stroke-width: 3" />
	<polygon points="316.776645688411,-216.281048243581 320.379300789101,-209.554486267117 561.5,-304.178151076457 " style="fill: rgb(14,173,105); fill-opacity: 1; stroke: rgb(0,0,0); stroke-width: 3" />
	<polygon points="325.557492045633,-200.409902955428 561.5,-304.178151076457 323.255793278268,-204.415399370803 " style="fill: rgb(14,173,105); fill-opacity: 1; stroke: rgb(0,0,0); stroke-width: 3" />
	<polygon points="324.158180052453,-403.688160019316 561.5,-304.178151076457 325.237802135702,-407.216446084912 " style="fill: rgb(14,173,105); fill-opacity: 1; stroke: rgb(0,0,0); stroke-width: 3" />
	<polygon points="323.255793278268,-204.415399370803 561.5,-304.178151076457 320.379300789101,-209.554486267117 " style="fill: rgb(14,173,105); fill-opacity: 1; stroke: rgb(0,0,0); stroke-width: 3" />
	<polygon points="312.345562332551,-225.217551257568 316.776645688411,-216.281048243581 561.5,-304.178151076457 " style="fill: rgb(14,173,105); fill-opacity: 1; stroke: rgb(0,0,0); stroke-width: 3" />
	<polygon points="302.177303549289,-252.278800264476 307.230708308427,-237.080306999283 561.5,-304.178151076457 " style="fill: rgb(14,173,105); fill-opacity: 1; stroke: rgb(0,0,0); stroke-width: 3" />
	<polygon points="306.890340907181,-344.310904197669 561.5,-304.178151076457 307.876811353812,-347.866359501958 " style="fill: rgb(14,173,105); fill-opacity: 1; stroke: rgb(0,0,0); stroke-width: 3" />
	<polygon points="305.686830675678,-339.850704445185 561.5,-304.178151076457 306.890340907181,-344.310904197669 " style="fill: rgb(14,173,105); fill-opacity: 1; stroke: rgb(0,0,0); stroke-width: 3" />
	<polygon points="302.449663312887,-326.724634048182 561.5,-304.178151076457 304.216788075797,-334.147775557441 " style="fill: rgb(14,173,105); fill-opacity: 1; stroke: rgb(0,0,0); stroke-width: 3" />
	<polygon points="300.445398239715,-316.953323625392 561.5,-304.178151076457 302.449663312887,-326.724634048182 " style="fill: rgb(14,173,105); fill-opacity: 1; stroke: rgb(0,0,0); stroke-width: 3" />
	<polygon points="70.5349916634487,-447.376368345542 325.14465050132,-407.243615328671 326.348160736496,-411.703815084634 " style="fill: rgb(14,173,105); fill-opacity: 1; stroke: rgb(0,0,0); stroke-width: 3" />
	<polygon points="320.379300789101,-209.554486267117 113.643172570216,-53.5 323.255793278268,-204.415399370803 " style="fill: rgb(14,173,105); fill-opacity: 1; stroke: rgb(0,0,0); stroke-width: 3" />
	<polygon points="316.776645688411,-216.281048243581 107.99071111298,-61.2847443424167 320.379300789101,-209.554486267117 " style="fill: rgb(14,173,105); fill-opacity: 1; stroke: rgb(0,0,0); stroke-width: 3" />
	<polygon points="312.345562332551,-225.217551257568 98.6763198356021,-74.6912584900223 316.776645688411,-216.281048243581 " style="fill: rgb(14,173,105); fill-opacity: 1; stroke: rgb(0,0,0); stroke-width: 3" />
	<polygon points="307.230708308427,-237.080306999283 83.8911243424831,-98.2479495168245 312.345562332551,-225.217551257568 " style="fill: rgb(14,173,105); fill-opacity: 1; stroke: rgb(0,0,0); stroke-width: 3" />
	<polygon points="302.177303549289,-252.278800264476 63.4073808338218,-138.565444011867 307.230708308427,-237.080306999283 " style="fill: rgb(14,173,105); fill-opacity: 1; stroke: rgb(0,0,0); stroke-width: 3" />
	<polygon points="70.5349916634487,-447.376368345542 561.5,-304.178151076457 324.158180052453,-403.688160019316 " style="fill: rgb(14,173,105); fill-opacity: 1; stroke: rgb(0,0,0); stroke-width: 3" />
	<polygon points="307.876811353812,-347.866359501958 561.5,-304.178151076457 70.5349916634487,-447.376368345542 " style="fill: rgb(14,173,105); fill-opacity: 1; stroke: rgb(0,0,0); stroke-width: 3" />
	<polygon points="306.890340907181,-344.310904197669 307.876811353812,-347.866359501958 68.0003887500872,-441.100919150309 " style="fill: rgb(14,173,105); fill-opacity: 1; stroke: rgb(0,0,0); stroke-width: 3" />
	<polygon points="298.594264085209,-270.073446688579 42.9771172579806,-199.771021694686 302.177303549289,-252.278800264476 " style="fill: rgb(14,173,105); fill-opacity: 1; stroke: rgb(0,0,0); stroke-width: 3" />
	<polygon points="305.686830675678,-339.850704445185 306.890340907181,-344.310904197669 66.6522382616297,-437.704534994509 " style="fill: rgb(14,173,105); fill-opacity: 1; stroke: rgb(0,0,0); stroke-width: 3" />
	<polygon points="304.216788075797,-334.147775557441 305.686830675678,-339.850704445185 64.5059441427991,-432.288188697735 " style="fill: rgb(14,173,105); fill-opacity: 1; stroke: rgb(0,0,0); stroke-width: 3" />
	<polygon points="302.449663312887,-326.724634048182 304.216788075797,-334.147775557441 61.0268549597126,-423.318879741543 " style="fill: rgb(14,173,105); fill-opacity: 1; stroke: rgb(0,0,0); stroke-width: 3" />
	<polygon points="297.518392771525,-288.193328425008 33.5,-272.828053962994 298.594264085209,-270.073446688579 " style="fill: rgb(14,173,105); fill-opacity: 1; stroke: rgb(0,0,0); stroke-width: 3" />
	<polygon points="300.445398239715,-316.953323625392 302.449663312887,-326.724634048182 55.4414396963263,-407.979530269851 " style="fill: rgb(14,173,105); fill-opacity: 1; stroke: rgb(0,0,0); stroke-width: 3" />
	<polygon points="70.5349916634487,-447.376368345542 324.158180052453,-403.688160019316 325.14465050132,-407.243615328671 " style="fill: rgb(14,173,105); fill-opacity: 1; stroke: rgb(0,0,0); stroke-width: 3" />
	<polygon points="298.526629906571,-304.178151076457 37.6374012239413,-337.220602601704 297.518392771525,-288.193328425008 " style="fill: rgb(14,173,105); fill-opacity: 1; stroke: rgb(0,0,0); stroke-width: 3" />
	<polygon points="298.526629906571,-304.178151076457 300.445398239715,-316.953323625392 47.1561216712305,-381.430082022694 " style="fill: rgb(14,173,105); fill-opacity: 1; stroke: rgb(0,0,0); stroke-width: 3" />
	<circle cx="298.526629906571" cy="-304.178151076457" r="2" style="fill: rgb(0,0,0)" />
	<circle cx="561.5" cy="-304.178151076457" r="2" style="fill: rgb(0,0,0)" />
	<circle cx="300.445398239715" cy="-316.953323625392" r="2" style="fill: rgb(0,0,0)" />
	<circle cx="297.518392771525" cy="-288.193328425008" r="2" style="fill: rgb(0,0,0)" />
	<circle cx="302.449663312887" cy="-326.724634048182" r="2" style="fill: rgb(0,0,0)" />
	<circle cx="47.1561216712305" cy="-381.430082022694" r="2" style="fill: rgb(0,0,0)" />
	<circle cx="298.594264085209" cy="-270.073446688579" r="2" style="fill: rgb(0,0,0)" />
	<circle cx="37.6374012239413" cy="-337.220602601704" r="2" style="fill: rgb(0,0,0)" />
	<circle cx="304.216788075797" cy="-334.147775557441" r="2" style="fill: rgb(0,0,0)" />
	<circle cx="55.4414396963263" cy="-407.979530269851" r="2" style="fill: rgb(0,0,0)" />
	<circle cx="302.177303549289" cy="-252.278800264476" r="2" style="fill: rgb(0,0,0)" />
	<circle cx="33.5" cy="-272.828053962994" r="2" style="fill: rgb(0,0,0)" />
	<circle cx="305.686830675678" cy="-339.850704445185" r="2" style="fill: rgb(0,0,0)" />
	<circle cx="61.0268549597126" cy="-423.318879741543" r="2" style="fill: rgb(0,0,0)" />
	<circle cx="307.230708308427" cy="-237.080306999283" r="2" style="fill: rgb(0,0,0)" />
	<circle cx="42.9771172579806" cy="-199.771021694686" r="2" style="fill: rgb(0,0,0)" />
	<circle cx="306.890340907181" cy="-344.310904197669" r="2" style="fill: rgb(0,0,0)" />
	<circle cx="64.5059441427991" cy="-432.288188697735" r="2" style="fill: rgb(0,0,0)" />
	<circle cx="312.345562332551" cy="-225.217551257568" r="2" style="fill: rgb(0,0,0)" />
	<circle cx="63.4073808338218" cy="-138.565444011867" r="2" style="fill: rgb(0,0,0)" />
	<circle cx="307.876811353812" cy="-347.866359501958" r="2" style="fill: rgb(0,0,0)" />
	<circle cx="66.6522382616297" cy="-437.704534994509" r="2" style="fill: rgb(0,0,0)" />
	<circle cx="316.776645688411" cy="-216.281048243581" r="2" style="fill: rgb(0,0,0)" />
	<circle cx="83.8911243424831" cy="-98.2479495168245" r="2" style="fill: rgb(0,0,0)" />
	<circle cx="70.5349916634487" cy="-447.376368345542" r="2" style="fill: rgb(0,0,0)" />
	<circle cx="68.0003887500872" cy="-441.100919150309" r="2" style="fill: rgb(0,0,0)" />
	<circle cx="320.379300789101" cy="-209.554486267117" r="2" style="fill: rgb(0,0,0)" />
	<circle cx="98.6763198356021" cy="-74.6912584900223" r="2" style="fill: rgb(0,0,0)" />
	<circle cx="324.158180052453" cy="-403.688160019316" r="2" style="fill: rgb(0,0,0)" />
	<circle cx="323.255793278268" cy="-204.415399370803" r="2" style="fill: rgb(0,0,0)" />
	<circle cx="107.99071111298" cy="-61.2847443424167" r="2" style="fill: rgb(0,0,0)" />
	<circle cx="325.237802135702" cy="-407.216446084912" r="2" style="fill: rgb(0,0,0)" />
	<circle cx="325.14465050132" cy="-407.243615328671" r="2" style="fill: rgb(0,0,0)" />
	<circle cx="325.557492045633" cy="-200.409902955428" r="2" style="fill: rgb(0,0,0)" />
	<circle cx="113.643172570216" cy="-53.5" r="2" style="fill: rgb(0,0,0)" />
	<circle cx="326.348160736496" cy="-411.703815084634" r="2" style="fill: rgb(0,0,0)" />
	<!--
	Generated using the Perl SVG Module V2.86
	by Ronan Oger
	Info: http://www.roitsystems.com/
	-->
</svg>