<?xml version="1.0" encoding="UTF-8" standalone="yes"?>
<!DOCTYPE svg PUBLIC "-//W3C//DTD SVG 1.0//EN" "http://www.w3.org/TR/2001/REC-SVG-20010904/DTD/svg10.dtd">
<!-- generated using polymake; Michael Joswig, Georg Loho, Benjamin Lorenz, Rico Raber; license CC BY-NC-ND 3.0; see polymake.org and matchthenet.de -->
<svg height="841pt" id="document" viewBox="0 -759.499624550929 572 759.499624550929" width="595pt" xmlns="http://www.w3.org/2000/svg" xmlns:svg="http://www.w3.org/2000/svg" xmlns:xlink="http://www.w3.org/1999/xlink">
	<title id="document_title">planar_net_</title>
	<polygon points="210.752233334499,-354.911170103468 272.516022474422,-354.911170103468 291.602082955653,-413.652024236074 241.634127904474,-449.955868618229 191.666172853283,-413.65202423608 " style="fill: rgb(110,60,59); fill-opacity: 1; stroke: rgb(0,0,0); stroke-width: 3" />
	<polygon points="303.397917044381,-301.422159674305 272.516022474422,-354.911170103468 241.634127904458,-301.422159674305 " style="fill: rgb(73,117,66); fill-opacity: 1; stroke: rgb(0,0,0); stroke-width: 3" />
	<polygon points="210.752233334499,-354.911170103468 241.634127904458,-301.422159674305 272.516022474422,-354.911170103468 " style="fill: rgb(73,117,66); fill-opacity: 1; stroke: rgb(0,0,0); stroke-width: 3" />
	<polygon points="348.026111971231,-438.773620494478 404.450140986805,-413.652024236055 445.778182665033,-459.551464537248 414.896288095074,-513.040474966408 354.482185935626,-500.199061135041 " style="fill: rgb(110,60,59); fill-opacity: 1; stroke: rgb(0,0,0); stroke-width: 3" />
	<polygon points="394.693913773791,-367.752583934844 413.779974255021,-309.011729802238 455.108015933237,-354.91117010345 " style="fill: rgb(73,117,66); fill-opacity: 1; stroke: rgb(0,0,0); stroke-width: 3" />
	<polygon points="298.058156920048,-475.077464876635 348.026111971231,-438.773620494478 354.482185935626,-500.199061135041 " style="fill: rgb(73,117,66); fill-opacity: 1; stroke: rgb(0,0,0); stroke-width: 3" />
	<polygon points="241.634127904474,-449.955868618229 282.962169582698,-495.855308919437 252.080275012745,-549.344319348601 191.666172853297,-536.502905517214 185.210098888902,-475.07746487665 " style="fill: rgb(110,60,59); fill-opacity: 1; stroke: rgb(0,0,0); stroke-width: 3" />
	<polygon points="191.666172853283,-413.65202423608 241.634127904474,-449.955868618229 185.210098888902,-475.07746487665 " style="fill: rgb(73,117,66); fill-opacity: 1; stroke: rgb(0,0,0); stroke-width: 3" />
	<polygon points="252.080275012745,-549.344319348601 282.962169582698,-495.855308919437 313.844064152669,-549.344319348593 " style="fill: rgb(73,117,66); fill-opacity: 1; stroke: rgb(0,0,0); stroke-width: 3" />
	<polygon points="413.779974255021,-309.011729802238 444.661868824986,-255.522719373079 505.075970984428,-268.364133204468 511.532044948808,-329.789573845031 455.108015933237,-354.91117010345 " style="fill: rgb(110,60,59); fill-opacity: 1; stroke: rgb(0,0,0); stroke-width: 3" />
	<polygon points="413.779974255021,-309.011729802238 363.812019203831,-272.707885420101 420.2360482194,-247.586289161671 " style="fill: rgb(73,117,66); fill-opacity: 1; stroke: rgb(0,0,0); stroke-width: 3" />
	<polygon points="414.896288095074,-513.040474966408 445.778182665033,-459.551464537248 476.660077234998,-513.040474966405 " style="fill: rgb(73,117,66); fill-opacity: 1; stroke: rgb(0,0,0); stroke-width: 3" />
	<polygon points="313.844064152669,-549.344319348593 344.725958722628,-602.833329777761 282.962169582708,-602.833329777755 " style="fill: rgb(73,117,66); fill-opacity: 1; stroke: rgb(0,0,0); stroke-width: 3" />
	<polygon points="252.080275012745,-549.344319348601 313.844064152669,-549.344319348593 282.962169582708,-602.833329777755 " style="fill: rgb(73,117,66); fill-opacity: 1; stroke: rgb(0,0,0); stroke-width: 3" />
	<polygon points="185.210098888902,-475.07746487665 191.666172853297,-536.502905517214 135.242143837715,-511.381309258815 " style="fill: rgb(73,117,66); fill-opacity: 1; stroke: rgb(0,0,0); stroke-width: 3" />
	<polygon points="200.306086226232,-255.522719373099 143.882057210661,-280.644315631518 150.338131175034,-219.218874990951 " style="fill: rgb(73,117,66); fill-opacity: 1; stroke: rgb(0,0,0); stroke-width: 3" />
	<polygon points="200.306086226232,-255.522719373099 150.338131175034,-219.218874990951 206.762160190603,-194.09727873253 " style="fill: rgb(73,117,66); fill-opacity: 1; stroke: rgb(0,0,0); stroke-width: 3" />
	<polygon points="191.666172853297,-536.502905517214 252.080275012745,-549.344319348601 210.752233334532,-595.243759649817 " style="fill: rgb(73,117,66); fill-opacity: 1; stroke: rgb(0,0,0); stroke-width: 3" />
	<polygon points="210.752233334532,-595.243759649817 252.080275012745,-549.344319348601 271.166335493979,-608.085173481206 " style="fill: rgb(73,117,66); fill-opacity: 1; stroke: rgb(0,0,0); stroke-width: 3" />
	<polygon points="191.666172853297,-536.502905517214 185.210098888932,-597.928346157782 124.795996729492,-610.769759989197 93.9141021595142,-557.280749560043 135.242143837715,-511.381309258815 " style="fill: rgb(110,60,59); fill-opacity: 1; stroke: rgb(0,0,0); stroke-width: 3" />
	<polygon points="303.397917044379,-152.888450730389 253.429961993194,-189.192295112535 246.973888028811,-127.766854471971 " style="fill: rgb(73,117,66); fill-opacity: 1; stroke: rgb(0,0,0); stroke-width: 3" />
	<polygon points="206.762160190603,-194.09727873253 150.338131175034,-219.218874990951 156.79420513941,-157.793434350385 " style="fill: rgb(73,117,66); fill-opacity: 1; stroke: rgb(0,0,0); stroke-width: 3" />
	<polygon points="93.9141021594905,-434.429868278887 124.795996729457,-487.918878708048 63.0322075895291,-487.918878708041 " style="fill: rgb(73,117,66); fill-opacity: 1; stroke: rgb(0,0,0); stroke-width: 3" />
	<polygon points="303.397917044379,-152.888450730389 246.973888028811,-127.766854471971 253.429961993202,-66.3414138313983 313.844064152638,-53.5 344.725958722591,-106.989010429172 " style="fill: rgb(110,60,59); fill-opacity: 1; stroke: rgb(0,0,0); stroke-width: 3" />
	<polygon points="150.338131175034,-219.218874990951 93.9141021594546,-194.097278732551 143.882057210632,-157.793434350387 " style="fill: rgb(73,117,66); fill-opacity: 1; stroke: rgb(0,0,0); stroke-width: 3" />
	<polygon points="263.876109101488,-661.574183910354 313.844064152676,-697.878028292512 257.420035137102,-722.999624550929 " style="fill: rgb(73,117,66); fill-opacity: 1; stroke: rgb(0,0,0); stroke-width: 3" />
	<polygon points="124.795996729492,-610.769759989197 166.124038407725,-656.669200290396 105.709936248284,-669.510614121812 " style="fill: rgb(73,117,66); fill-opacity: 1; stroke: rgb(0,0,0); stroke-width: 3" />
	<polygon points="52.5860604812437,-239.996719033769 33.5,-181.255864901166 93.9141021594546,-194.097278732551 " style="fill: rgb(73,117,66); fill-opacity: 1; stroke: rgb(0,0,0); stroke-width: 3" />
	<polygon points="93.9141021594546,-194.097278732551 33.5,-181.255864901166 74.8280416782073,-135.356424599946 " style="fill: rgb(73,117,66); fill-opacity: 1; stroke: rgb(0,0,0); stroke-width: 3" />
	<polygon points="143.882057210632,-157.793434350387 93.9141021594546,-194.097278732551 87.4580281950517,-132.671838091987 " style="fill: rgb(73,117,66); fill-opacity: 1; stroke: rgb(0,0,0); stroke-width: 3" />
	<polygon points="124.795996729492,-610.769759989197 185.210098888932,-597.928346157782 166.124038407725,-656.669200290396 " style="fill: rgb(73,117,66); fill-opacity: 1; stroke: rgb(0,0,0); stroke-width: 3" />
	<polygon points="210.752233334532,-595.243759649817 271.166335493979,-608.085173481206 229.838293815766,-653.984613782423 " style="fill: rgb(73,117,66); fill-opacity: 1; stroke: rgb(0,0,0); stroke-width: 3" />
	<polygon points="511.532044948808,-329.789573845031 505.075970984428,-268.364133204468 561.5,-293.485729462897 " style="fill: rgb(73,117,66); fill-opacity: 1; stroke: rgb(0,0,0); stroke-width: 3" />
	<polygon points="83.4679550512167,-293.48572946292 52.5860604812437,-239.996719033769 93.9141021594546,-194.097278732551 150.338131175034,-219.218874990951 143.882057210661,-280.644315631518 " style="fill: rgb(110,60,59); fill-opacity: 1; stroke: rgb(0,0,0); stroke-width: 3" />
	<polygon points="344.725958722628,-602.833329777761 363.812019203858,-661.574183910369 313.844064152676,-697.878028292512 263.876109101488,-661.574183910354 282.962169582708,-602.833329777755 " style="fill: rgb(110,60,59); fill-opacity: 1; stroke: rgb(0,0,0); stroke-width: 3" />
	<polygon points="353.365872095567,-189.192295112549 303.397917044379,-152.888450730389 359.821946059956,-127.766854471976 " style="fill: rgb(73,117,66); fill-opacity: 1; stroke: rgb(0,0,0); stroke-width: 3" />
	<polygon points="150.338131175053,-342.06975627208 93.9141021594774,-316.948160013674 143.882057210661,-280.644315631518 " style="fill: rgb(73,117,66); fill-opacity: 1; stroke: rgb(0,0,0); stroke-width: 3" />
	<polygon points="260.720188385674,-242.681305541695 200.306086226232,-255.522719373099 219.392146707448,-196.781865240491 " style="fill: rgb(73,117,66); fill-opacity: 1; stroke: rgb(0,0,0); stroke-width: 3" />
	<polygon points="334.279811614349,-247.933149245154 272.51602247442,-247.933149245145 253.429961993194,-189.192295112535 303.397917044379,-152.888450730389 353.365872095567,-189.192295112549 " style="fill: rgb(110,60,59); fill-opacity: 1; stroke: rgb(0,0,0); stroke-width: 3" />
	<polygon points="191.666172853283,-413.65202423608 185.210098888902,-475.07746487665 124.795996729457,-487.918878708048 93.9141021594905,-434.429868278887 135.242143837706,-388.530427977669 " style="fill: rgb(110,60,59); fill-opacity: 1; stroke: rgb(0,0,0); stroke-width: 3" />
	<polygon points="241.634127904458,-301.422159674305 200.306086226232,-255.522719373099 260.720188385674,-242.681305541695 " style="fill: rgb(73,117,66); fill-opacity: 1; stroke: rgb(0,0,0); stroke-width: 3" />
	<polygon points="210.752233334499,-354.911170103468 191.666172853283,-413.65202423608 150.338131175056,-367.752583934878 " style="fill: rgb(73,117,66); fill-opacity: 1; stroke: rgb(0,0,0); stroke-width: 3" />
	<polygon points="210.752233334499,-354.911170103468 150.338131175053,-342.06975627208 143.882057210661,-280.644315631518 200.306086226232,-255.522719373099 241.634127904458,-301.422159674305 " style="fill: rgb(110,60,59); fill-opacity: 1; stroke: rgb(0,0,0); stroke-width: 3" />
	<polygon points="334.279811614349,-247.933149245154 303.397917044381,-301.422159674305 272.51602247442,-247.933149245145 " style="fill: rgb(73,117,66); fill-opacity: 1; stroke: rgb(0,0,0); stroke-width: 3" />
	<polygon points="303.397917044381,-301.422159674305 241.634127904458,-301.422159674305 272.51602247442,-247.933149245145 " style="fill: rgb(73,117,66); fill-opacity: 1; stroke: rgb(0,0,0); stroke-width: 3" />
	<polygon points="241.634127904474,-449.955868618229 291.602082955653,-413.652024236074 298.058156920048,-475.077464876635 " style="fill: rgb(73,117,66); fill-opacity: 1; stroke: rgb(0,0,0); stroke-width: 3" />
	<polygon points="298.058156920048,-475.077464876635 291.602082955653,-413.652024236074 348.026111971231,-438.773620494478 " style="fill: rgb(73,117,66); fill-opacity: 1; stroke: rgb(0,0,0); stroke-width: 3" />
	<polygon points="352.016185115101,-426.493438067461 332.930124633868,-367.752583934858 393.344226793318,-380.593997766255 " style="fill: rgb(73,117,66); fill-opacity: 1; stroke: rgb(0,0,0); stroke-width: 3" />
	<polygon points="291.602082955653,-413.652024236074 332.930124633868,-367.752583934858 352.016185115101,-426.493438067461 " style="fill: rgb(73,117,66); fill-opacity: 1; stroke: rgb(0,0,0); stroke-width: 3" />
	<polygon points="332.930124633868,-367.752583934858 272.516022474422,-354.911170103468 313.844064152638,-309.011729802256 " style="fill: rgb(73,117,66); fill-opacity: 1; stroke: rgb(0,0,0); stroke-width: 3" />
	<polygon points="291.602082955653,-413.652024236074 272.516022474422,-354.911170103468 332.930124633868,-367.752583934858 " style="fill: rgb(73,117,66); fill-opacity: 1; stroke: rgb(0,0,0); stroke-width: 3" />
	<polygon points="332.930124633868,-367.752583934858 313.844064152638,-309.011729802256 363.812019203831,-272.707885420101 413.779974255021,-309.011729802238 394.693913773791,-367.752583934844 " style="fill: rgb(110,60,59); fill-opacity: 1; stroke: rgb(0,0,0); stroke-width: 3" />
	<circle cx="210.752233334499" cy="-354.911170103468" r="2" style="fill: rgb(0,0,0)" />
	<circle cx="272.516022474422" cy="-354.911170103468" r="2" style="fill: rgb(0,0,0)" />
	<circle cx="291.602082955653" cy="-413.652024236074" r="2" style="fill: rgb(0,0,0)" />
	<circle cx="241.634127904474" cy="-449.955868618229" r="2" style="fill: rgb(0,0,0)" />
	<circle cx="191.666172853283" cy="-413.65202423608" r="2" style="fill: rgb(0,0,0)" />
	<circle cx="241.634127904458" cy="-301.422159674305" r="2" style="fill: rgb(0,0,0)" />
	<circle cx="185.210098888902" cy="-475.07746487665" r="2" style="fill: rgb(0,0,0)" />
	<circle cx="150.338131175056" cy="-367.752583934878" r="2" style="fill: rgb(0,0,0)" />
	<circle cx="298.058156920048" cy="-475.077464876635" r="2" style="fill: rgb(0,0,0)" />
	<circle cx="332.930124633868" cy="-367.752583934858" r="2" style="fill: rgb(0,0,0)" />
	<circle cx="303.397917044381" cy="-301.422159674305" r="2" style="fill: rgb(0,0,0)" />
	<circle cx="150.338131175053" cy="-342.06975627208" r="2" style="fill: rgb(0,0,0)" />
	<circle cx="143.882057210661" cy="-280.644315631518" r="2" style="fill: rgb(0,0,0)" />
	<circle cx="200.306086226232" cy="-255.522719373099" r="2" style="fill: rgb(0,0,0)" />
	<circle cx="282.962169582698" cy="-495.855308919437" r="2" style="fill: rgb(0,0,0)" />
	<circle cx="252.080275012745" cy="-549.344319348601" r="2" style="fill: rgb(0,0,0)" />
	<circle cx="191.666172853297" cy="-536.502905517214" r="2" style="fill: rgb(0,0,0)" />
	<circle cx="124.795996729457" cy="-487.918878708048" r="2" style="fill: rgb(0,0,0)" />
	<circle cx="93.9141021594905" cy="-434.429868278887" r="2" style="fill: rgb(0,0,0)" />
	<circle cx="135.242143837706" cy="-388.530427977669" r="2" style="fill: rgb(0,0,0)" />
	<circle cx="348.026111971231" cy="-438.773620494478" r="2" style="fill: rgb(0,0,0)" />
	<circle cx="352.016185115101" cy="-426.493438067461" r="2" style="fill: rgb(0,0,0)" />
	<circle cx="313.844064152638" cy="-309.011729802256" r="2" style="fill: rgb(0,0,0)" />
	<circle cx="272.51602247442" cy="-247.933149245145" r="2" style="fill: rgb(0,0,0)" />
	<circle cx="150.338131175034" cy="-219.218874990951" r="2" style="fill: rgb(0,0,0)" />
	<circle cx="93.9141021594774" cy="-316.948160013674" r="2" style="fill: rgb(0,0,0)" />
	<circle cx="260.720188385674" cy="-242.681305541695" r="2" style="fill: rgb(0,0,0)" />
	<circle cx="313.844064152669" cy="-549.344319348593" r="2" style="fill: rgb(0,0,0)" />
	<circle cx="135.242143837715" cy="-511.381309258815" r="2" style="fill: rgb(0,0,0)" />
	<circle cx="210.752233334532" cy="-595.243759649817" r="2" style="fill: rgb(0,0,0)" />
	<circle cx="63.0322075895291" cy="-487.918878708041" r="2" style="fill: rgb(0,0,0)" />
	<circle cx="354.482185935626" cy="-500.199061135041" r="2" style="fill: rgb(0,0,0)" />
	<circle cx="393.344226793318" cy="-380.593997766255" r="2" style="fill: rgb(0,0,0)" />
	<circle cx="363.812019203831" cy="-272.707885420101" r="2" style="fill: rgb(0,0,0)" />
	<circle cx="413.779974255021" cy="-309.011729802238" r="2" style="fill: rgb(0,0,0)" />
	<circle cx="394.693913773791" cy="-367.752583934844" r="2" style="fill: rgb(0,0,0)" />
	<circle cx="334.279811614349" cy="-247.933149245154" r="2" style="fill: rgb(0,0,0)" />
	<circle cx="206.762160190603" cy="-194.09727873253" r="2" style="fill: rgb(0,0,0)" />
	<circle cx="83.4679550512167" cy="-293.48572946292" r="2" style="fill: rgb(0,0,0)" />
	<circle cx="52.5860604812437" cy="-239.996719033769" r="2" style="fill: rgb(0,0,0)" />
	<circle cx="93.9141021594546" cy="-194.097278732551" r="2" style="fill: rgb(0,0,0)" />
	<circle cx="219.392146707448" cy="-196.781865240491" r="2" style="fill: rgb(0,0,0)" />
	<circle cx="282.962169582708" cy="-602.833329777755" r="2" style="fill: rgb(0,0,0)" />
	<circle cx="185.210098888932" cy="-597.928346157782" r="2" style="fill: rgb(0,0,0)" />
	<circle cx="124.795996729492" cy="-610.769759989197" r="2" style="fill: rgb(0,0,0)" />
	<circle cx="93.9141021595142" cy="-557.280749560043" r="2" style="fill: rgb(0,0,0)" />
	<circle cx="271.166335493979" cy="-608.085173481206" r="2" style="fill: rgb(0,0,0)" />
	<circle cx="404.450140986805" cy="-413.652024236055" r="2" style="fill: rgb(0,0,0)" />
	<circle cx="445.778182665033" cy="-459.551464537248" r="2" style="fill: rgb(0,0,0)" />
	<circle cx="414.896288095074" cy="-513.040474966408" r="2" style="fill: rgb(0,0,0)" />
	<circle cx="455.108015933237" cy="-354.91117010345" r="2" style="fill: rgb(0,0,0)" />
	<circle cx="420.2360482194" cy="-247.586289161671" r="2" style="fill: rgb(0,0,0)" />
	<circle cx="253.429961993194" cy="-189.192295112535" r="2" style="fill: rgb(0,0,0)" />
	<circle cx="303.397917044379" cy="-152.888450730389" r="2" style="fill: rgb(0,0,0)" />
	<circle cx="353.365872095567" cy="-189.192295112549" r="2" style="fill: rgb(0,0,0)" />
	<circle cx="156.79420513941" cy="-157.793434350385" r="2" style="fill: rgb(0,0,0)" />
	<circle cx="143.882057210632" cy="-157.793434350387" r="2" style="fill: rgb(0,0,0)" />
	<circle cx="33.5" cy="-181.255864901166" r="2" style="fill: rgb(0,0,0)" />
	<circle cx="344.725958722628" cy="-602.833329777761" r="2" style="fill: rgb(0,0,0)" />
	<circle cx="166.124038407725" cy="-656.669200290396" r="2" style="fill: rgb(0,0,0)" />
	<circle cx="229.838293815766" cy="-653.984613782423" r="2" style="fill: rgb(0,0,0)" />
	<circle cx="476.660077234998" cy="-513.040474966405" r="2" style="fill: rgb(0,0,0)" />
	<circle cx="444.661868824986" cy="-255.522719373079" r="2" style="fill: rgb(0,0,0)" />
	<circle cx="505.075970984428" cy="-268.364133204468" r="2" style="fill: rgb(0,0,0)" />
	<circle cx="511.532044948808" cy="-329.789573845031" r="2" style="fill: rgb(0,0,0)" />
	<circle cx="246.973888028811" cy="-127.766854471971" r="2" style="fill: rgb(0,0,0)" />
	<circle cx="359.821946059956" cy="-127.766854471976" r="2" style="fill: rgb(0,0,0)" />
	<circle cx="87.4580281950517" cy="-132.671838091987" r="2" style="fill: rgb(0,0,0)" />
	<circle cx="74.8280416782073" cy="-135.356424599946" r="2" style="fill: rgb(0,0,0)" />
	<circle cx="363.812019203858" cy="-661.574183910369" r="2" style="fill: rgb(0,0,0)" />
	<circle cx="313.844064152676" cy="-697.878028292512" r="2" style="fill: rgb(0,0,0)" />
	<circle cx="263.876109101488" cy="-661.574183910354" r="2" style="fill: rgb(0,0,0)" />
	<circle cx="105.709936248284" cy="-669.510614121812" r="2" style="fill: rgb(0,0,0)" />
	<circle cx="561.5" cy="-293.485729462897" r="2" style="fill: rgb(0,0,0)" />
	<circle cx="253.429961993202" cy="-66.3414138313983" r="2" style="fill: rgb(0,0,0)" />
	<circle cx="313.844064152638" cy="-53.5" r="2" style="fill: rgb(0,0,0)" />
	<circle cx="344.725958722591" cy="-106.989010429172" r="2" style="fill: rgb(0,0,0)" />
	<circle cx="257.420035137102" cy="-722.999624550929" r="2" style="fill: rgb(0,0,0)" />
	<!--
	Generated using the Perl SVG Module V2.84
	by Ronan Oger
	Info: http://www.roitsystems.com/
	-->
</svg>