<?xml version="1.0" encoding="UTF-8" standalone="yes"?>
<!DOCTYPE svg PUBLIC "-//W3C//DTD SVG 1.0//EN" "http://www.w3.org/TR/2001/REC-SVG-20010904/DTD/svg10.dtd">
<!-- generated using polymake; Michael Joswig, Georg Loho, Benjamin Lorenz, Rico Raber; license CC BY-NC-ND 3.0; see polymake.org and matchthenet.de -->
<svg height="841pt" id="document" viewBox="0 -811 482.604022468949 811" width="595pt" xmlns="http://www.w3.org/2000/svg" xmlns:svg="http://www.w3.org/2000/svg" xmlns:xlink="http://www.w3.org/1999/xlink">
	<title id="document_title">planar_net_</title>
	<polygon points="151.470442566713,-413.99990084946 354.13271011154,-413.99990084946 252.801809846891,-475.85204399931 " style="fill: rgb(14,173,105); fill-opacity: 1; stroke: rgb(0,0,0); stroke-width: 3" />
	<polygon points="244.108985818009,-233.750285320223 41.4471132609245,-233.749385480617 142.778290104493,-171.897717561382 " style="fill: rgb(14,173,105); fill-opacity: 1; stroke: rgb(0,0,0); stroke-width: 3" />
	<polygon points="371.517808756468,-53.5 464.156846199461,-233.74980595639 362.82541060141,-171.897966364332 " style="fill: rgb(14,173,105); fill-opacity: 1; stroke: rgb(0,0,0); stroke-width: 3" />
	<polygon points="464.156846199461,-233.74980595639 362.825640767232,-295.602011694175 261.494568638393,-233.750294526132 " style="fill: rgb(14,173,105); fill-opacity: 1; stroke: rgb(0,0,0); stroke-width: 3" />
	<polygon points="464.156846199461,-233.74980595639 261.494568638393,-233.750294526132 362.82541060141,-171.897966364332 " style="fill: rgb(14,173,105); fill-opacity: 1; stroke: rgb(0,0,0); stroke-width: 3" />
	<polygon points="142.777877210517,-295.60166363091 41.4471132609245,-233.749385480617 244.108985818009,-233.750285320223 " style="fill: rgb(14,173,105); fill-opacity: 1; stroke: rgb(0,0,0); stroke-width: 3" />
	<polygon points="362.825370289125,-656.101968749465 464.156706196851,-594.25001560077 371.518015947417,-774.5 " style="fill: rgb(14,173,105); fill-opacity: 1; stroke: rgb(0,0,0); stroke-width: 3" />
	<polygon points="362.825640767232,-295.602011694175 354.13271011154,-413.99990084946 261.494568638393,-233.750294526132 " style="fill: rgb(14,173,105); fill-opacity: 1; stroke: rgb(0,0,0); stroke-width: 3" />
	<polygon points="261.494568638393,-233.750294526132 354.13271011154,-413.99990084946 252.801714534979,-352.147932474675 " style="fill: rgb(14,173,105); fill-opacity: 1; stroke: rgb(0,0,0); stroke-width: 3" />
	<polygon points="472.104022468949,-249.212962968939 354.13271011154,-413.99990084946 362.825640767232,-295.602011694175 " style="fill: rgb(14,173,105); fill-opacity: 1; stroke: rgb(0,0,0); stroke-width: 3" />
	<polygon points="362.82563991584,-532.397850425956 354.13271011154,-413.99990084946 472.103839746109,-578.786969541488 " style="fill: rgb(14,173,105); fill-opacity: 1; stroke: rgb(0,0,0); stroke-width: 3" />
	<polygon points="151.470442566713,-413.99990084946 142.777877210517,-295.60166363091 244.108985818009,-233.750285320223 " style="fill: rgb(14,173,105); fill-opacity: 1; stroke: rgb(0,0,0); stroke-width: 3" />
	<polygon points="151.470442566713,-413.99990084946 244.108985818009,-233.750285320223 252.801714534979,-352.147932474675 " style="fill: rgb(14,173,105); fill-opacity: 1; stroke: rgb(0,0,0); stroke-width: 3" />
	<polygon points="252.801714534979,-352.147932474675 354.13271011154,-413.99990084946 151.470442566713,-413.99990084946 " style="fill: rgb(14,173,105); fill-opacity: 1; stroke: rgb(0,0,0); stroke-width: 3" />
	<polygon points="151.470442566713,-413.99990084946 33.5,-249.212294295344 142.777877210517,-295.60166363091 " style="fill: rgb(14,173,105); fill-opacity: 1; stroke: rgb(0,0,0); stroke-width: 3" />
	<polygon points="151.470442566713,-413.99990084946 142.778021265933,-532.398156784122 33.5000669126475,-578.78755530592 " style="fill: rgb(14,173,105); fill-opacity: 1; stroke: rgb(0,0,0); stroke-width: 3" />
	<polygon points="261.494865756369,-594.249951616178 464.156706196851,-594.25001560077 362.825370289125,-656.101968749465 " style="fill: rgb(14,173,105); fill-opacity: 1; stroke: rgb(0,0,0); stroke-width: 3" />
	<polygon points="261.494865756369,-594.249951616178 362.82563991584,-532.397850425956 464.156706196851,-594.25001560077 " style="fill: rgb(14,173,105); fill-opacity: 1; stroke: rgb(0,0,0); stroke-width: 3" />
	<polygon points="41.4472988574515,-594.250661171795 244.109033462075,-594.249972139219 142.778654570274,-656.102195040814 " style="fill: rgb(14,173,105); fill-opacity: 1; stroke: rgb(0,0,0); stroke-width: 3" />
	<polygon points="142.778021265933,-532.398156784122 244.109033462075,-594.249972139219 41.4472988574515,-594.250661171795 " style="fill: rgb(14,173,105); fill-opacity: 1; stroke: rgb(0,0,0); stroke-width: 3" />
	<polygon points="151.470442566713,-413.99990084946 244.109033462075,-594.249972139219 142.778021265933,-532.398156784122 " style="fill: rgb(14,173,105); fill-opacity: 1; stroke: rgb(0,0,0); stroke-width: 3" />
	<polygon points="261.494865756369,-594.249951616178 354.13271011154,-413.99990084946 362.82563991584,-532.397850425956 " style="fill: rgb(14,173,105); fill-opacity: 1; stroke: rgb(0,0,0); stroke-width: 3" />
	<polygon points="252.801809846891,-475.85204399931 354.13271011154,-413.99990084946 261.494865756369,-594.249951616178 " style="fill: rgb(14,173,105); fill-opacity: 1; stroke: rgb(0,0,0); stroke-width: 3" />
	<polygon points="151.470442566713,-413.99990084946 252.801809846891,-475.85204399931 244.109033462075,-594.249972139219 " style="fill: rgb(14,173,105); fill-opacity: 1; stroke: rgb(0,0,0); stroke-width: 3" />
	<circle cx="151.470442566713" cy="-413.99990084946" r="2" style="fill: rgb(0,0,0)" />
	<circle cx="354.13271011154" cy="-413.99990084946" r="2" style="fill: rgb(0,0,0)" />
	<circle cx="252.801809846891" cy="-475.85204399931" r="2" style="fill: rgb(0,0,0)" />
	<circle cx="252.801714534979" cy="-352.147932474675" r="2" style="fill: rgb(0,0,0)" />
	<circle cx="261.494865756369" cy="-594.249951616178" r="2" style="fill: rgb(0,0,0)" />
	<circle cx="244.109033462075" cy="-594.249972139219" r="2" style="fill: rgb(0,0,0)" />
	<circle cx="261.494568638393" cy="-233.750294526132" r="2" style="fill: rgb(0,0,0)" />
	<circle cx="244.108985818009" cy="-233.750285320223" r="2" style="fill: rgb(0,0,0)" />
	<circle cx="362.82563991584" cy="-532.397850425956" r="2" style="fill: rgb(0,0,0)" />
	<circle cx="142.778021265933" cy="-532.398156784122" r="2" style="fill: rgb(0,0,0)" />
	<circle cx="362.825640767232" cy="-295.602011694175" r="2" style="fill: rgb(0,0,0)" />
	<circle cx="142.777877210517" cy="-295.60166363091" r="2" style="fill: rgb(0,0,0)" />
	<circle cx="472.103839746109" cy="-578.786969541488" r="2" style="fill: rgb(0,0,0)" />
	<circle cx="464.156706196851" cy="-594.25001560077" r="2" style="fill: rgb(0,0,0)" />
	<circle cx="33.5000669126475" cy="-578.78755530592" r="2" style="fill: rgb(0,0,0)" />
	<circle cx="41.4472988574515" cy="-594.250661171795" r="2" style="fill: rgb(0,0,0)" />
	<circle cx="464.156846199461" cy="-233.74980595639" r="2" style="fill: rgb(0,0,0)" />
	<circle cx="472.104022468949" cy="-249.212962968939" r="2" style="fill: rgb(0,0,0)" />
	<circle cx="41.4471132609245" cy="-233.749385480617" r="2" style="fill: rgb(0,0,0)" />
	<circle cx="33.5" cy="-249.212294295344" r="2" style="fill: rgb(0,0,0)" />
	<circle cx="362.825370289125" cy="-656.101968749465" r="2" style="fill: rgb(0,0,0)" />
	<circle cx="142.778654570274" cy="-656.102195040814" r="2" style="fill: rgb(0,0,0)" />
	<circle cx="362.82541060141" cy="-171.897966364332" r="2" style="fill: rgb(0,0,0)" />
	<circle cx="142.778290104493" cy="-171.897717561382" r="2" style="fill: rgb(0,0,0)" />
	<circle cx="371.518015947417" cy="-774.5" r="2" style="fill: rgb(0,0,0)" />
	<circle cx="371.517808756468" cy="-53.5" r="2" style="fill: rgb(0,0,0)" />
	<!--
	Generated using the Perl SVG Module V2.86
	by Ronan Oger
	Info: http://www.roitsystems.com/
	-->
</svg>