<?xml version="1.0" encoding="UTF-8" standalone="yes"?>
<!DOCTYPE svg PUBLIC "-//W3C//DTD SVG 1.0//EN" "http://www.w3.org/TR/2001/REC-SVG-20010904/DTD/svg10.dtd">
<!-- generated using polymake; Michael Joswig, Georg Loho, Benjamin Lorenz, Rico Raber; license CC BY-NC-SA 3.0; see polymake.org and matchthenet.de -->
<svg height="841pt" id="document" viewBox="0 -641.591373396471 572 641.591373396471" width="595pt" xmlns="http://www.w3.org/2000/svg" xmlns:svg="http://www.w3.org/2000/svg" xmlns:xlink="http://www.w3.org/1999/xlink">
	<title id="document_title">planar_net_</title>
	<polygon points="382.494199657002,-323.542995014523 339.897636614829,-294.641732566789 354.221308712906,-245.199012458511 405.670387955396,-243.542993383067 423.143995519066,-291.962237416709 " style="fill: rgb(14,173,105); fill-opacity: 1; stroke: rgb(0,0,0); stroke-width: 3" />
	<polygon points="278.048813888397,-294.641732566789 339.897636614829,-294.641732566789 336.166690654746,-345.982069499086 " style="fill: rgb(14,173,105); fill-opacity: 1; stroke: rgb(0,0,0); stroke-width: 3" />
	<polygon points="382.494199657002,-323.542995014523 336.166690654746,-345.982069499086 339.897636614829,-294.641732566789 " style="fill: rgb(14,173,105); fill-opacity: 1; stroke: rgb(0,0,0); stroke-width: 3" />
	<polygon points="251.420858932014,-179.901922801451 229.914317081241,-226.669634010143 178.789693661885,-220.667714791488 168.69948057746,-170.190613507938 213.588009356909,-144.995968479785 " style="fill: rgb(14,173,105); fill-opacity: 1; stroke: rgb(0,0,0); stroke-width: 3" />
	<polygon points="229.914317081241,-226.669634010143 199.15419085675,-267.943897040897 178.789693661885,-220.667714791488 " style="fill: rgb(14,173,105); fill-opacity: 1; stroke: rgb(0,0,0); stroke-width: 3" />
	<polygon points="378.511693745671,-199.814793295467 320.239300671575,-173.710912450745 348.582571550834,-130.741049174913 " style="fill: rgb(14,173,105); fill-opacity: 1; stroke: rgb(0,0,0); stroke-width: 3" />
	<polygon points="405.670387955396,-243.542993383067 398.645547535981,-192.548858708966 444.973056538242,-170.109784224402 480.629872135173,-207.235808190953 456.339487102403,-252.620027353989 " style="fill: rgb(14,173,105); fill-opacity: 1; stroke: rgb(0,0,0); stroke-width: 3" />
	<polygon points="423.143995519066,-291.962237416709 405.670387955396,-243.542993383067 456.339487102403,-252.620027353989 " style="fill: rgb(14,173,105); fill-opacity: 1; stroke: rgb(0,0,0); stroke-width: 3" />
	<polygon points="444.973056538242,-170.109784224402 398.645547535981,-192.548858708966 399.806862771173,-117.278772824131 " style="fill: rgb(14,173,105); fill-opacity: 1; stroke: rgb(0,0,0); stroke-width: 3" />
	<polygon points="199.15419085675,-267.943897040897 160.484845378007,-301.920828543379 116.221378354568,-275.643544795938 127.534396752916,-225.426358805508 178.789693661885,-220.667714791488 " style="fill: rgb(14,173,105); fill-opacity: 1; stroke: rgb(0,0,0); stroke-width: 3" />
	<polygon points="199.15419085675,-267.943897040897 228.902945914946,-309.95296423556 177.647649005979,-314.71160824959 " style="fill: rgb(14,173,105); fill-opacity: 1; stroke: rgb(0,0,0); stroke-width: 3" />
	<polygon points="168.69948057746,-170.190613507938 178.789693661885,-220.667714791488 130.030135098718,-204.167545010422 " style="fill: rgb(14,173,105); fill-opacity: 1; stroke: rgb(0,0,0); stroke-width: 3" />
	<polygon points="213.588009356909,-144.995968479785 168.69948057746,-170.190613507938 169.324542333468,-118.718684732343 " style="fill: rgb(14,173,105); fill-opacity: 1; stroke: rgb(0,0,0); stroke-width: 3" />
	<polygon points="444.973056538242,-170.109784224402 399.806862771173,-117.278772824131 448.538101703685,-100.69515119974 " style="fill: rgb(14,173,105); fill-opacity: 1; stroke: rgb(0,0,0); stroke-width: 3" />
	<polygon points="456.339487102403,-252.620027353989 480.629872135173,-207.235808190953 507.788566344903,-250.964008278552 " style="fill: rgb(14,173,105); fill-opacity: 1; stroke: rgb(0,0,0); stroke-width: 3" />
	<polygon points="343.191531074175,-396.976204173183 393.860630221183,-406.053238144104 360.665138637851,-445.39544820683 " style="fill: rgb(14,173,105); fill-opacity: 1; stroke: rgb(0,0,0); stroke-width: 3" />
	<polygon points="343.191531074175,-396.976204173183 360.665138637851,-445.39544820683 294.357886916394,-450.593147010118 " style="fill: rgb(14,173,105); fill-opacity: 1; stroke: rgb(0,0,0); stroke-width: 3" />
	<polygon points="480.629872135173,-207.235808190953 444.973056538242,-170.109784224402 494.953544233248,-157.793088082679 " style="fill: rgb(14,173,105); fill-opacity: 1; stroke: rgb(0,0,0); stroke-width: 3" />
	<polygon points="101.505210279086,-63.9745734943615 151.903954947877,-53.5 148.334983382588,-122.914431258535 " style="fill: rgb(14,173,105); fill-opacity: 1; stroke: rgb(0,0,0); stroke-width: 3" />
	<polygon points="480.629872135173,-207.235808190953 513.825363718505,-167.893598128223 561.5,-187.306975204502 557.769054039918,-238.647312136797 507.788566344903,-250.964008278552 " style="fill: rgb(14,173,105); fill-opacity: 1; stroke: rgb(0,0,0); stroke-width: 3" />
	<polygon points="256.948735223113,-485.952806562595 294.357886916394,-450.593147010118 306.275674511379,-500.670252486762 " style="fill: rgb(14,173,105); fill-opacity: 1; stroke: rgb(0,0,0); stroke-width: 3" />
	<polygon points="294.357886916394,-450.593147010118 360.665138637851,-445.39544820683 306.275674511379,-500.670252486762 " style="fill: rgb(14,173,105); fill-opacity: 1; stroke: rgb(0,0,0); stroke-width: 3" />
	<polygon points="500.283177423807,-323.373741362584 504.014123383894,-272.033404430292 546.610686426073,-300.934666878027 " style="fill: rgb(14,173,105); fill-opacity: 1; stroke: rgb(0,0,0); stroke-width: 3" />
	<polygon points="94.7148365037794,-322.411256004624 43.5902130844162,-316.409336785966 33.5,-265.932235502416 78.3885287794549,-240.737590474267 116.221378354568,-275.643544795938 " style="fill: rgb(14,173,105); fill-opacity: 1; stroke: rgb(0,0,0); stroke-width: 3" />
	<polygon points="360.665138637851,-445.39544820683 387.823832847592,-489.12364829442 333.056831386437,-517.861296486293 " style="fill: rgb(14,173,105); fill-opacity: 1; stroke: rgb(0,0,0); stroke-width: 3" />
	<polygon points="97.0796864736156,-127.673075272549 85.7666680752765,-177.890261262976 47.9338185001605,-142.984306941324 " style="fill: rgb(14,173,105); fill-opacity: 1; stroke: rgb(0,0,0); stroke-width: 3" />
	<polygon points="423.480648444537,-526.249672260971 416.458435452756,-605.091373396471 380.024057049256,-568.728119630769 " style="fill: rgb(14,173,105); fill-opacity: 1; stroke: rgb(0,0,0); stroke-width: 3" />
	<polygon points="437.804320542603,-476.806952152691 423.480648444537,-526.249672260971 387.823832847592,-489.12364829442 " style="fill: rgb(14,173,105); fill-opacity: 1; stroke: rgb(0,0,0); stroke-width: 3" />
	<polygon points="387.823832847592,-489.12364829442 423.480648444537,-526.249672260971 380.024057049256,-568.728119630769 " style="fill: rgb(14,173,105); fill-opacity: 1; stroke: rgb(0,0,0); stroke-width: 3" />
	<polygon points="333.056831386437,-517.861296486293 387.823832847592,-489.12364829442 357.526414998547,-563.14914951476 " style="fill: rgb(14,173,105); fill-opacity: 1; stroke: rgb(0,0,0); stroke-width: 3" />
	<polygon points="561.5,-187.306975204502 513.825363718505,-167.893598128223 541.99865288945,-110.593073112927 " style="fill: rgb(14,173,105); fill-opacity: 1; stroke: rgb(0,0,0); stroke-width: 3" />
	<polygon points="101.505210279086,-63.9745734943615 148.334983382588,-122.914431258535 97.0796864736156,-127.673075272549 " style="fill: rgb(14,173,105); fill-opacity: 1; stroke: rgb(0,0,0); stroke-width: 3" />
	<polygon points="127.534396752916,-225.426358805508 116.221378354568,-275.643544795938 78.3885287794549,-240.737590474267 " style="fill: rgb(14,173,105); fill-opacity: 1; stroke: rgb(0,0,0); stroke-width: 3" />
	<polygon points="441.535266502675,-425.466615220404 437.804320542603,-476.806952152691 387.823832847592,-489.12364829442 360.665138637851,-445.39544820683 393.860630221183,-406.053238144104 " style="fill: rgb(14,173,105); fill-opacity: 1; stroke: rgb(0,0,0); stroke-width: 3" />
	<polygon points="168.69948057746,-170.190613507938 130.030135098718,-204.167545010422 85.7666680752765,-177.890261262976 97.0796864736156,-127.673075272549 148.334983382588,-122.914431258535 " style="fill: rgb(14,173,105); fill-opacity: 1; stroke: rgb(0,0,0); stroke-width: 3" />
	<polygon points="160.484845378007,-301.920828543379 115.596316598543,-327.115473571528 116.221378354568,-275.643544795938 " style="fill: rgb(14,173,105); fill-opacity: 1; stroke: rgb(0,0,0); stroke-width: 3" />
	<polygon points="418.151015253941,-360.669018981072 445.309709463674,-404.39721906867 393.860630221183,-406.053238144104 " style="fill: rgb(14,173,105); fill-opacity: 1; stroke: rgb(0,0,0); stroke-width: 3" />
	<polygon points="269.658331367241,-345.429033707338 322.118148871762,-395.503667088929 249.644128255769,-392.854573534433 " style="fill: rgb(14,173,105); fill-opacity: 1; stroke: rgb(0,0,0); stroke-width: 3" />
	<polygon points="198.317694953112,-336.826782865045 176.811153102339,-383.594494073735 125.686529682979,-377.592574855079 115.596316598543,-327.115473571528 160.484845378007,-301.920828543379 " style="fill: rgb(14,173,105); fill-opacity: 1; stroke: rgb(0,0,0); stroke-width: 3" />
	<polygon points="423.143995519066,-291.962237416709 456.339487102403,-252.620027353989 504.014123383894,-272.033404430292 500.283177423807,-323.373741362584 450.302689728791,-335.69043750431 " style="fill: rgb(14,173,105); fill-opacity: 1; stroke: rgb(0,0,0); stroke-width: 3" />
	<polygon points="336.166690654746,-345.982069499086 322.118148871762,-395.503667088929 269.658331367241,-345.429033707338 " style="fill: rgb(14,173,105); fill-opacity: 1; stroke: rgb(0,0,0); stroke-width: 3" />
	<polygon points="382.494199657002,-323.542995014523 423.143995519066,-291.962237416709 430.168835938493,-342.956372090813 " style="fill: rgb(14,173,105); fill-opacity: 1; stroke: rgb(0,0,0); stroke-width: 3" />
	<polygon points="382.494199657002,-323.542995014523 418.151015253941,-360.669018981072 393.860630221183,-406.053238144104 343.191531074175,-396.976204173183 336.166690654746,-345.982069499086 " style="fill: rgb(14,173,105); fill-opacity: 1; stroke: rgb(0,0,0); stroke-width: 3" />
	<polygon points="229.870479650458,-312.769012123727 278.048813888397,-294.641732566789 269.658331367241,-345.429033707338 " style="fill: rgb(14,173,105); fill-opacity: 1; stroke: rgb(0,0,0); stroke-width: 3" />
	<polygon points="278.048813888397,-294.641732566789 336.166690654746,-345.982069499086 269.658331367241,-345.429033707338 " style="fill: rgb(14,173,105); fill-opacity: 1; stroke: rgb(0,0,0); stroke-width: 3" />
	<polygon points="405.670387955396,-243.542993383067 354.221308712906,-245.199012458511 378.511693745671,-199.814793295467 " style="fill: rgb(14,173,105); fill-opacity: 1; stroke: rgb(0,0,0); stroke-width: 3" />
	<polygon points="378.511693745671,-199.814793295467 354.221308712906,-245.199012458511 320.239300671575,-173.710912450745 " style="fill: rgb(14,173,105); fill-opacity: 1; stroke: rgb(0,0,0); stroke-width: 3" />
	<polygon points="268.583662559972,-192.69270250765 278.673875644411,-243.169803791195 229.914317081241,-226.669634010143 " style="fill: rgb(14,173,105); fill-opacity: 1; stroke: rgb(0,0,0); stroke-width: 3" />
	<polygon points="339.443060462447,-243.168015830964 278.673875644411,-243.169803791195 279.308527965367,-191.697992374556 " style="fill: rgb(14,173,105); fill-opacity: 1; stroke: rgb(0,0,0); stroke-width: 3" />
	<polygon points="278.673875644411,-243.169803791195 339.897636614829,-294.641732566789 278.048813888397,-294.641732566789 " style="fill: rgb(14,173,105); fill-opacity: 1; stroke: rgb(0,0,0); stroke-width: 3" />
	<polygon points="339.443060462447,-243.168015830964 339.897636614829,-294.641732566789 278.673875644411,-243.169803791195 " style="fill: rgb(14,173,105); fill-opacity: 1; stroke: rgb(0,0,0); stroke-width: 3" />
	<polygon points="278.673875644411,-243.169803791195 278.048813888397,-294.641732566789 228.902945914946,-309.95296423556 199.15419085675,-267.943897040897 229.914317081241,-226.669634010143 " style="fill: rgb(14,173,105); fill-opacity: 1; stroke: rgb(0,0,0); stroke-width: 3" />
	<circle cx="278.048813888397" cy="-294.641732566789" r="2" style="fill: rgb(0,0,0)" />
	<circle cx="339.897636614829" cy="-294.641732566789" r="2" style="fill: rgb(0,0,0)" />
	<circle cx="336.166690654746" cy="-345.982069499086" r="2" style="fill: rgb(0,0,0)" />
	<circle cx="382.494199657002" cy="-323.542995014523" r="2" style="fill: rgb(0,0,0)" />
	<circle cx="269.658331367241" cy="-345.429033707338" r="2" style="fill: rgb(0,0,0)" />
	<circle cx="278.673875644411" cy="-243.169803791195" r="2" style="fill: rgb(0,0,0)" />
	<circle cx="354.221308712906" cy="-245.199012458511" r="2" style="fill: rgb(0,0,0)" />
	<circle cx="405.670387955396" cy="-243.542993383067" r="2" style="fill: rgb(0,0,0)" />
	<circle cx="423.143995519066" cy="-291.962237416709" r="2" style="fill: rgb(0,0,0)" />
	<circle cx="418.151015253941" cy="-360.669018981072" r="2" style="fill: rgb(0,0,0)" />
	<circle cx="393.860630221183" cy="-406.053238144104" r="2" style="fill: rgb(0,0,0)" />
	<circle cx="343.191531074175" cy="-396.976204173183" r="2" style="fill: rgb(0,0,0)" />
	<circle cx="322.118148871762" cy="-395.503667088929" r="2" style="fill: rgb(0,0,0)" />
	<circle cx="229.870479650458" cy="-312.769012123727" r="2" style="fill: rgb(0,0,0)" />
	<circle cx="339.443060462447" cy="-243.168015830964" r="2" style="fill: rgb(0,0,0)" />
	<circle cx="228.902945914946" cy="-309.95296423556" r="2" style="fill: rgb(0,0,0)" />
	<circle cx="199.15419085675" cy="-267.943897040897" r="2" style="fill: rgb(0,0,0)" />
	<circle cx="229.914317081241" cy="-226.669634010143" r="2" style="fill: rgb(0,0,0)" />
	<circle cx="456.339487102403" cy="-252.620027353989" r="2" style="fill: rgb(0,0,0)" />
	<circle cx="430.168835938493" cy="-342.956372090813" r="2" style="fill: rgb(0,0,0)" />
	<circle cx="378.511693745671" cy="-199.814793295467" r="2" style="fill: rgb(0,0,0)" />
	<circle cx="360.665138637851" cy="-445.39544820683" r="2" style="fill: rgb(0,0,0)" />
	<circle cx="445.309709463674" cy="-404.39721906867" r="2" style="fill: rgb(0,0,0)" />
	<circle cx="249.644128255769" cy="-392.854573534433" r="2" style="fill: rgb(0,0,0)" />
	<circle cx="279.308527965367" cy="-191.697992374556" r="2" style="fill: rgb(0,0,0)" />
	<circle cx="178.789693661885" cy="-220.667714791488" r="2" style="fill: rgb(0,0,0)" />
	<circle cx="177.647649005979" cy="-314.71160824959" r="2" style="fill: rgb(0,0,0)" />
	<circle cx="268.583662559972" cy="-192.69270250765" r="2" style="fill: rgb(0,0,0)" />
	<circle cx="398.645547535981" cy="-192.548858708966" r="2" style="fill: rgb(0,0,0)" />
	<circle cx="444.973056538242" cy="-170.109784224402" r="2" style="fill: rgb(0,0,0)" />
	<circle cx="480.629872135173" cy="-207.235808190953" r="2" style="fill: rgb(0,0,0)" />
	<circle cx="504.014123383894" cy="-272.033404430292" r="2" style="fill: rgb(0,0,0)" />
	<circle cx="500.283177423807" cy="-323.373741362584" r="2" style="fill: rgb(0,0,0)" />
	<circle cx="450.302689728791" cy="-335.69043750431" r="2" style="fill: rgb(0,0,0)" />
	<circle cx="320.239300671575" cy="-173.710912450745" r="2" style="fill: rgb(0,0,0)" />
	<circle cx="294.357886916394" cy="-450.593147010118" r="2" style="fill: rgb(0,0,0)" />
	<circle cx="441.535266502675" cy="-425.466615220404" r="2" style="fill: rgb(0,0,0)" />
	<circle cx="437.804320542603" cy="-476.806952152691" r="2" style="fill: rgb(0,0,0)" />
	<circle cx="387.823832847592" cy="-489.12364829442" r="2" style="fill: rgb(0,0,0)" />
	<circle cx="168.69948057746" cy="-170.190613507938" r="2" style="fill: rgb(0,0,0)" />
	<circle cx="213.588009356909" cy="-144.995968479785" r="2" style="fill: rgb(0,0,0)" />
	<circle cx="251.420858932014" cy="-179.901922801451" r="2" style="fill: rgb(0,0,0)" />
	<circle cx="160.484845378007" cy="-301.920828543379" r="2" style="fill: rgb(0,0,0)" />
	<circle cx="116.221378354568" cy="-275.643544795938" r="2" style="fill: rgb(0,0,0)" />
	<circle cx="127.534396752916" cy="-225.426358805508" r="2" style="fill: rgb(0,0,0)" />
	<circle cx="399.806862771173" cy="-117.278772824131" r="2" style="fill: rgb(0,0,0)" />
	<circle cx="507.788566344903" cy="-250.964008278552" r="2" style="fill: rgb(0,0,0)" />
	<circle cx="494.953544233248" cy="-157.793088082679" r="2" style="fill: rgb(0,0,0)" />
	<circle cx="546.610686426073" cy="-300.934666878027" r="2" style="fill: rgb(0,0,0)" />
	<circle cx="348.582571550834" cy="-130.741049174913" r="2" style="fill: rgb(0,0,0)" />
	<circle cx="306.275674511379" cy="-500.670252486762" r="2" style="fill: rgb(0,0,0)" />
	<circle cx="333.056831386437" cy="-517.861296486293" r="2" style="fill: rgb(0,0,0)" />
	<circle cx="423.480648444537" cy="-526.249672260971" r="2" style="fill: rgb(0,0,0)" />
	<circle cx="130.030135098718" cy="-204.167545010422" r="2" style="fill: rgb(0,0,0)" />
	<circle cx="169.324542333468" cy="-118.718684732343" r="2" style="fill: rgb(0,0,0)" />
	<circle cx="78.3885287794549" cy="-240.737590474267" r="2" style="fill: rgb(0,0,0)" />
	<circle cx="115.596316598543" cy="-327.115473571528" r="2" style="fill: rgb(0,0,0)" />
	<circle cx="448.538101703685" cy="-100.69515119974" r="2" style="fill: rgb(0,0,0)" />
	<circle cx="513.825363718505" cy="-167.893598128223" r="2" style="fill: rgb(0,0,0)" />
	<circle cx="561.5" cy="-187.306975204502" r="2" style="fill: rgb(0,0,0)" />
	<circle cx="557.769054039918" cy="-238.647312136797" r="2" style="fill: rgb(0,0,0)" />
	<circle cx="256.948735223113" cy="-485.952806562595" r="2" style="fill: rgb(0,0,0)" />
	<circle cx="357.526414998547" cy="-563.14914951476" r="2" style="fill: rgb(0,0,0)" />
	<circle cx="380.024057049256" cy="-568.728119630769" r="2" style="fill: rgb(0,0,0)" />
	<circle cx="85.7666680752765" cy="-177.890261262976" r="2" style="fill: rgb(0,0,0)" />
	<circle cx="97.0796864736156" cy="-127.673075272549" r="2" style="fill: rgb(0,0,0)" />
	<circle cx="148.334983382588" cy="-122.914431258535" r="2" style="fill: rgb(0,0,0)" />
	<circle cx="94.7148365037794" cy="-322.411256004624" r="2" style="fill: rgb(0,0,0)" />
	<circle cx="43.5902130844162" cy="-316.409336785966" r="2" style="fill: rgb(0,0,0)" />
	<circle cx="33.5" cy="-265.932235502416" r="2" style="fill: rgb(0,0,0)" />
	<circle cx="198.317694953112" cy="-336.826782865045" r="2" style="fill: rgb(0,0,0)" />
	<circle cx="176.811153102339" cy="-383.594494073735" r="2" style="fill: rgb(0,0,0)" />
	<circle cx="125.686529682979" cy="-377.592574855079" r="2" style="fill: rgb(0,0,0)" />
	<circle cx="541.99865288945" cy="-110.593073112927" r="2" style="fill: rgb(0,0,0)" />
	<circle cx="416.458435452756" cy="-605.091373396471" r="2" style="fill: rgb(0,0,0)" />
	<circle cx="47.9338185001605" cy="-142.984306941324" r="2" style="fill: rgb(0,0,0)" />
	<circle cx="101.505210279086" cy="-63.9745734943615" r="2" style="fill: rgb(0,0,0)" />
	<circle cx="151.903954947877" cy="-53.5" r="2" style="fill: rgb(0,0,0)" />
	<!-- 
	Generated using the Perl SVG Module V2.64
	by Ronan Oger
	Info: http://www.roitsystems.com/
 -->
</svg>