<?xml version="1.0" encoding="UTF-8" standalone="yes"?>
<!DOCTYPE svg PUBLIC "-//W3C//DTD SVG 1.0//EN" "http://www.w3.org/TR/2001/REC-SVG-20010904/DTD/svg10.dtd">
<!-- generated using polymake; Michael Joswig, Georg Loho, Benjamin Lorenz, Rico Raber; license CC BY-NC-ND 3.0; see polymake.org and matchthenet.de -->
<svg height="841pt" id="document" viewBox="0 -699.681884264242 572 699.681884264242" width="595pt" xmlns="http://www.w3.org/2000/svg" xmlns:svg="http://www.w3.org/2000/svg" xmlns:xlink="http://www.w3.org/1999/xlink">
	<title id="document_title">planar_net_</title>
	<polygon points="255.760802376963,-286.046531181862 339.239197623033,-286.046531181862 380.978395246071,-358.340942132118 339.239197623036,-430.635353082372 255.760802376964,-430.635353082371 214.021604753926,-358.340942132116 " style="fill: rgb(14,173,105); fill-opacity: 1; stroke: rgb(0,0,0); stroke-width: 3" />
	<polygon points="227.934670628279,-499.149256774092 367.065329371728,-499.149256774097 297.500000000006,-663.181884264242 " style="fill: rgb(14,173,105); fill-opacity: 1; stroke: rgb(0,0,0); stroke-width: 3" />
	<polygon points="210.339087141831,-227.691442352585 140.773757770107,-348.182127269671 33.5,-205.920471066057 " style="fill: rgb(14,173,105); fill-opacity: 1; stroke: rgb(0,0,0); stroke-width: 3" />
	<polygon points="367.065329371712,-217.532627490135 339.239197623033,-286.046531181862 255.760802376963,-286.046531181862 227.934670628272,-217.532627490138 " style="fill: rgb(14,173,105); fill-opacity: 1; stroke: rgb(0,0,0); stroke-width: 3" />
	<polygon points="140.77375777011,-368.499756994565 210.339087141838,-488.990441911654 33.5000000000051,-510.761413198189 " style="fill: rgb(14,173,105); fill-opacity: 1; stroke: rgb(0,0,0); stroke-width: 3" />
	<polygon points="367.065329371712,-217.532627490135 227.934670628272,-217.532627490138 297.499999999998,-53.5 " style="fill: rgb(14,173,105); fill-opacity: 1; stroke: rgb(0,0,0); stroke-width: 3" />
	<polygon points="255.760802376963,-286.046531181862 214.021604753926,-358.340942132116 140.773757770107,-348.182127269671 210.339087141831,-227.691442352585 " style="fill: rgb(14,173,105); fill-opacity: 1; stroke: rgb(0,0,0); stroke-width: 3" />
	<polygon points="454.226242229884,-348.182127269662 384.660912858159,-227.691442352579 561.499999999996,-205.920471066052 " style="fill: rgb(14,173,105); fill-opacity: 1; stroke: rgb(0,0,0); stroke-width: 3" />
	<polygon points="214.021604753926,-358.340942132116 255.760802376964,-430.635353082371 210.339087141838,-488.990441911654 140.77375777011,-368.499756994565 " style="fill: rgb(14,173,105); fill-opacity: 1; stroke: rgb(0,0,0); stroke-width: 3" />
	<polygon points="380.978395246071,-358.340942132118 339.239197623033,-286.046531181862 384.660912858159,-227.691442352579 454.226242229884,-348.182127269662 " style="fill: rgb(14,173,105); fill-opacity: 1; stroke: rgb(0,0,0); stroke-width: 3" />
	<polygon points="255.760802376964,-430.635353082371 339.239197623036,-430.635353082372 367.065329371728,-499.149256774097 227.934670628279,-499.149256774092 " style="fill: rgb(14,173,105); fill-opacity: 1; stroke: rgb(0,0,0); stroke-width: 3" />
	<polygon points="384.660912858168,-488.990441911641 454.22624222989,-368.49975699456 561.5,-510.761413198182 " style="fill: rgb(14,173,105); fill-opacity: 1; stroke: rgb(0,0,0); stroke-width: 3" />
	<polygon points="339.239197623036,-430.635353082372 380.978395246071,-358.340942132118 454.22624222989,-368.49975699456 384.660912858168,-488.990441911641 " style="fill: rgb(14,173,105); fill-opacity: 1; stroke: rgb(0,0,0); stroke-width: 3" />
	<circle cx="255.760802376963" cy="-286.046531181862" r="2" style="fill: rgb(0,0,0)" />
	<circle cx="339.239197623033" cy="-286.046531181862" r="2" style="fill: rgb(0,0,0)" />
	<circle cx="380.978395246071" cy="-358.340942132118" r="2" style="fill: rgb(0,0,0)" />
	<circle cx="339.239197623036" cy="-430.635353082372" r="2" style="fill: rgb(0,0,0)" />
	<circle cx="255.760802376964" cy="-430.635353082371" r="2" style="fill: rgb(0,0,0)" />
	<circle cx="214.021604753926" cy="-358.340942132116" r="2" style="fill: rgb(0,0,0)" />
	<circle cx="227.934670628272" cy="-217.532627490138" r="2" style="fill: rgb(0,0,0)" />
	<circle cx="367.065329371712" cy="-217.532627490135" r="2" style="fill: rgb(0,0,0)" />
	<circle cx="140.773757770107" cy="-348.182127269671" r="2" style="fill: rgb(0,0,0)" />
	<circle cx="210.339087141831" cy="-227.691442352585" r="2" style="fill: rgb(0,0,0)" />
	<circle cx="210.339087141838" cy="-488.990441911654" r="2" style="fill: rgb(0,0,0)" />
	<circle cx="140.77375777011" cy="-368.499756994565" r="2" style="fill: rgb(0,0,0)" />
	<circle cx="384.660912858159" cy="-227.691442352579" r="2" style="fill: rgb(0,0,0)" />
	<circle cx="454.226242229884" cy="-348.182127269662" r="2" style="fill: rgb(0,0,0)" />
	<circle cx="367.065329371728" cy="-499.149256774097" r="2" style="fill: rgb(0,0,0)" />
	<circle cx="227.934670628279" cy="-499.149256774092" r="2" style="fill: rgb(0,0,0)" />
	<circle cx="454.22624222989" cy="-368.49975699456" r="2" style="fill: rgb(0,0,0)" />
	<circle cx="384.660912858168" cy="-488.990441911641" r="2" style="fill: rgb(0,0,0)" />
	<circle cx="297.499999999998" cy="-53.5" r="2" style="fill: rgb(0,0,0)" />
	<circle cx="33.5" cy="-205.920471066057" r="2" style="fill: rgb(0,0,0)" />
	<circle cx="33.5000000000051" cy="-510.761413198189" r="2" style="fill: rgb(0,0,0)" />
	<circle cx="561.499999999996" cy="-205.920471066052" r="2" style="fill: rgb(0,0,0)" />
	<circle cx="297.500000000006" cy="-663.181884264242" r="2" style="fill: rgb(0,0,0)" />
	<circle cx="561.5" cy="-510.761413198182" r="2" style="fill: rgb(0,0,0)" />
	<!--
	Generated using the Perl SVG Module V2.87
	by Ronan Oger

	-->
</svg>