<?xml version="1.0" encoding="UTF-8" standalone="yes"?>
<!DOCTYPE svg PUBLIC "-//W3C//DTD SVG 1.0//EN" "http://www.w3.org/TR/2001/REC-SVG-20010904/DTD/svg10.dtd">
<!-- generated using polymake; Michael Joswig, Georg Loho, Benjamin Lorenz, Rico Raber; license CC BY-NC-ND 3.0; see polymake.org and matchthenet.de -->
<svg height="841pt" id="document" viewBox="0 -759.499624550929 572 759.499624550929" width="595pt" xmlns="http://www.w3.org/2000/svg" xmlns:svg="http://www.w3.org/2000/svg" xmlns:xlink="http://www.w3.org/1999/xlink">
	<title id="document_title">planar_net_</title>
	<polygon points="210.7522333345,-354.911170103468 272.516022474422,-354.911170103468 291.602082955653,-413.652024236073 241.634127904475,-449.955868618229 191.666172853284,-413.652024236079 " style="fill: rgb(255,210,63); fill-opacity: 1; stroke: rgb(0,0,0); stroke-width: 3" />
	<polygon points="303.397917044382,-301.422159674304 272.516022474422,-354.911170103468 241.634127904458,-301.422159674304 " style="fill: rgb(14,173,105); fill-opacity: 1; stroke: rgb(0,0,0); stroke-width: 3" />
	<polygon points="210.7522333345,-354.911170103468 241.634127904458,-301.422159674304 272.516022474422,-354.911170103468 " style="fill: rgb(14,173,105); fill-opacity: 1; stroke: rgb(0,0,0); stroke-width: 3" />
	<polygon points="348.026111971231,-438.773620494478 404.450140986806,-413.652024236055 445.778182665034,-459.551464537247 414.896288095075,-513.040474966408 354.482185935627,-500.199061135041 " style="fill: rgb(255,210,63); fill-opacity: 1; stroke: rgb(0,0,0); stroke-width: 3" />
	<polygon points="394.693913773791,-367.752583934844 413.779974255022,-309.011729802238 455.108015933237,-354.91117010345 " style="fill: rgb(14,173,105); fill-opacity: 1; stroke: rgb(0,0,0); stroke-width: 3" />
	<polygon points="298.058156920048,-475.077464876635 348.026111971231,-438.773620494478 354.482185935627,-500.199061135041 " style="fill: rgb(14,173,105); fill-opacity: 1; stroke: rgb(0,0,0); stroke-width: 3" />
	<polygon points="241.634127904475,-449.955868618229 282.962169582698,-495.855308919437 252.080275012745,-549.344319348601 191.666172853297,-536.502905517213 185.210098888902,-475.07746487665 " style="fill: rgb(255,210,63); fill-opacity: 1; stroke: rgb(0,0,0); stroke-width: 3" />
	<polygon points="191.666172853284,-413.652024236079 241.634127904475,-449.955868618229 185.210098888902,-475.07746487665 " style="fill: rgb(14,173,105); fill-opacity: 1; stroke: rgb(0,0,0); stroke-width: 3" />
	<polygon points="252.080275012745,-549.344319348601 282.962169582698,-495.855308919437 313.844064152669,-549.344319348593 " style="fill: rgb(14,173,105); fill-opacity: 1; stroke: rgb(0,0,0); stroke-width: 3" />
	<polygon points="413.779974255022,-309.011729802238 444.661868824987,-255.522719373079 505.075970984429,-268.364133204469 511.532044948808,-329.789573845032 455.108015933237,-354.91117010345 " style="fill: rgb(255,210,63); fill-opacity: 1; stroke: rgb(0,0,0); stroke-width: 3" />
	<polygon points="413.779974255022,-309.011729802238 363.812019203832,-272.707885420101 420.236048219401,-247.58628916167 " style="fill: rgb(14,173,105); fill-opacity: 1; stroke: rgb(0,0,0); stroke-width: 3" />
	<polygon points="414.896288095075,-513.040474966408 445.778182665034,-459.551464537247 476.660077234998,-513.040474966404 " style="fill: rgb(14,173,105); fill-opacity: 1; stroke: rgb(0,0,0); stroke-width: 3" />
	<polygon points="313.844064152669,-549.344319348593 344.725958722628,-602.833329777761 282.962169582709,-602.833329777754 " style="fill: rgb(14,173,105); fill-opacity: 1; stroke: rgb(0,0,0); stroke-width: 3" />
	<polygon points="252.080275012745,-549.344319348601 313.844064152669,-549.344319348593 282.962169582709,-602.833329777754 " style="fill: rgb(14,173,105); fill-opacity: 1; stroke: rgb(0,0,0); stroke-width: 3" />
	<polygon points="185.210098888902,-475.07746487665 191.666172853297,-536.502905517213 135.242143837716,-511.381309258815 " style="fill: rgb(14,173,105); fill-opacity: 1; stroke: rgb(0,0,0); stroke-width: 3" />
	<polygon points="200.306086226232,-255.522719373099 143.882057210661,-280.644315631518 150.338131175035,-219.21887499095 " style="fill: rgb(14,173,105); fill-opacity: 1; stroke: rgb(0,0,0); stroke-width: 3" />
	<polygon points="200.306086226232,-255.522719373099 150.338131175035,-219.21887499095 206.762160190604,-194.09727873253 " style="fill: rgb(14,173,105); fill-opacity: 1; stroke: rgb(0,0,0); stroke-width: 3" />
	<polygon points="191.666172853297,-536.502905517213 252.080275012745,-549.344319348601 210.752233334533,-595.243759649816 " style="fill: rgb(14,173,105); fill-opacity: 1; stroke: rgb(0,0,0); stroke-width: 3" />
	<polygon points="210.752233334533,-595.243759649816 252.080275012745,-549.344319348601 271.16633549398,-608.085173481205 " style="fill: rgb(14,173,105); fill-opacity: 1; stroke: rgb(0,0,0); stroke-width: 3" />
	<polygon points="191.666172853297,-536.502905517213 185.210098888932,-597.928346157781 124.795996729492,-610.769759989196 93.9141021595146,-557.280749560042 135.242143837716,-511.381309258815 " style="fill: rgb(255,210,63); fill-opacity: 1; stroke: rgb(0,0,0); stroke-width: 3" />
	<polygon points="303.397917044379,-152.888450730389 253.429961993195,-189.192295112535 246.973888028812,-127.766854471971 " style="fill: rgb(14,173,105); fill-opacity: 1; stroke: rgb(0,0,0); stroke-width: 3" />
	<polygon points="206.762160190604,-194.09727873253 150.338131175035,-219.21887499095 156.79420513941,-157.793434350384 " style="fill: rgb(14,173,105); fill-opacity: 1; stroke: rgb(0,0,0); stroke-width: 3" />
	<polygon points="93.914102159491,-434.429868278886 124.795996729458,-487.918878708047 63.0322075895297,-487.91887870804 " style="fill: rgb(14,173,105); fill-opacity: 1; stroke: rgb(0,0,0); stroke-width: 3" />
	<polygon points="303.397917044379,-152.888450730389 246.973888028812,-127.766854471971 253.429961993203,-66.3414138313977 313.84406415264,-53.5 344.725958722591,-106.989010429173 " style="fill: rgb(255,210,63); fill-opacity: 1; stroke: rgb(0,0,0); stroke-width: 3" />
	<polygon points="150.338131175035,-219.21887499095 93.9141021594551,-194.09727873255 143.882057210633,-157.793434350386 " style="fill: rgb(14,173,105); fill-opacity: 1; stroke: rgb(0,0,0); stroke-width: 3" />
	<polygon points="263.876109101488,-661.574183910354 313.844064152677,-697.878028292512 257.420035137102,-722.999624550929 " style="fill: rgb(14,173,105); fill-opacity: 1; stroke: rgb(0,0,0); stroke-width: 3" />
	<polygon points="124.795996729492,-610.769759989196 166.124038407725,-656.669200290395 105.709936248284,-669.510614121811 " style="fill: rgb(14,173,105); fill-opacity: 1; stroke: rgb(0,0,0); stroke-width: 3" />
	<polygon points="52.5860604812443,-239.996719033768 33.5,-181.255864901165 93.9141021594551,-194.09727873255 " style="fill: rgb(14,173,105); fill-opacity: 1; stroke: rgb(0,0,0); stroke-width: 3" />
	<polygon points="93.9141021594551,-194.09727873255 33.5,-181.255864901165 74.8280416782073,-135.356424599945 " style="fill: rgb(14,173,105); fill-opacity: 1; stroke: rgb(0,0,0); stroke-width: 3" />
	<polygon points="143.882057210633,-157.793434350386 93.9141021594551,-194.09727873255 87.458028195052,-132.671838091987 " style="fill: rgb(14,173,105); fill-opacity: 1; stroke: rgb(0,0,0); stroke-width: 3" />
	<polygon points="124.795996729492,-610.769759989196 185.210098888932,-597.928346157781 166.124038407725,-656.669200290395 " style="fill: rgb(14,173,105); fill-opacity: 1; stroke: rgb(0,0,0); stroke-width: 3" />
	<polygon points="210.752233334533,-595.243759649816 271.16633549398,-608.085173481205 229.838293815766,-653.984613782422 " style="fill: rgb(14,173,105); fill-opacity: 1; stroke: rgb(0,0,0); stroke-width: 3" />
	<polygon points="511.532044948808,-329.789573845032 505.075970984429,-268.364133204469 561.5,-293.485729462898 " style="fill: rgb(14,173,105); fill-opacity: 1; stroke: rgb(0,0,0); stroke-width: 3" />
	<polygon points="83.4679550512174,-293.48572946292 52.5860604812443,-239.996719033768 93.9141021594551,-194.09727873255 150.338131175035,-219.21887499095 143.882057210661,-280.644315631518 " style="fill: rgb(255,210,63); fill-opacity: 1; stroke: rgb(0,0,0); stroke-width: 3" />
	<polygon points="344.725958722628,-602.833329777761 363.812019203857,-661.574183910369 313.844064152677,-697.878028292512 263.876109101488,-661.574183910354 282.962169582709,-602.833329777754 " style="fill: rgb(255,210,63); fill-opacity: 1; stroke: rgb(0,0,0); stroke-width: 3" />
	<polygon points="353.365872095567,-189.19229511255 303.397917044379,-152.888450730389 359.821946059957,-127.766854471976 " style="fill: rgb(14,173,105); fill-opacity: 1; stroke: rgb(0,0,0); stroke-width: 3" />
	<polygon points="150.338131175053,-342.06975627208 93.914102159478,-316.948160013673 143.882057210661,-280.644315631518 " style="fill: rgb(14,173,105); fill-opacity: 1; stroke: rgb(0,0,0); stroke-width: 3" />
	<polygon points="260.720188385674,-242.681305541694 200.306086226232,-255.522719373099 219.392146707448,-196.78186524049 " style="fill: rgb(14,173,105); fill-opacity: 1; stroke: rgb(0,0,0); stroke-width: 3" />
	<polygon points="334.279811614349,-247.933149245154 272.516022474421,-247.933149245145 253.429961993195,-189.192295112535 303.397917044379,-152.888450730389 353.365872095567,-189.19229511255 " style="fill: rgb(255,210,63); fill-opacity: 1; stroke: rgb(0,0,0); stroke-width: 3" />
	<polygon points="191.666172853284,-413.652024236079 185.210098888902,-475.07746487665 124.795996729458,-487.918878708047 93.914102159491,-434.429868278886 135.242143837707,-388.530427977668 " style="fill: rgb(255,210,63); fill-opacity: 1; stroke: rgb(0,0,0); stroke-width: 3" />
	<polygon points="241.634127904458,-301.422159674304 200.306086226232,-255.522719373099 260.720188385674,-242.681305541694 " style="fill: rgb(14,173,105); fill-opacity: 1; stroke: rgb(0,0,0); stroke-width: 3" />
	<polygon points="210.7522333345,-354.911170103468 191.666172853284,-413.652024236079 150.338131175057,-367.752583934878 " style="fill: rgb(14,173,105); fill-opacity: 1; stroke: rgb(0,0,0); stroke-width: 3" />
	<polygon points="210.7522333345,-354.911170103468 150.338131175053,-342.06975627208 143.882057210661,-280.644315631518 200.306086226232,-255.522719373099 241.634127904458,-301.422159674304 " style="fill: rgb(255,210,63); fill-opacity: 1; stroke: rgb(0,0,0); stroke-width: 3" />
	<polygon points="334.279811614349,-247.933149245154 303.397917044382,-301.422159674304 272.516022474421,-247.933149245145 " style="fill: rgb(14,173,105); fill-opacity: 1; stroke: rgb(0,0,0); stroke-width: 3" />
	<polygon points="303.397917044382,-301.422159674304 241.634127904458,-301.422159674304 272.516022474421,-247.933149245145 " style="fill: rgb(14,173,105); fill-opacity: 1; stroke: rgb(0,0,0); stroke-width: 3" />
	<polygon points="241.634127904475,-449.955868618229 291.602082955653,-413.652024236073 298.058156920048,-475.077464876635 " style="fill: rgb(14,173,105); fill-opacity: 1; stroke: rgb(0,0,0); stroke-width: 3" />
	<polygon points="298.058156920048,-475.077464876635 291.602082955653,-413.652024236073 348.026111971231,-438.773620494478 " style="fill: rgb(14,173,105); fill-opacity: 1; stroke: rgb(0,0,0); stroke-width: 3" />
	<polygon points="352.016185115102,-426.49343806746 332.930124633868,-367.752583934858 393.344226793318,-380.593997766255 " style="fill: rgb(14,173,105); fill-opacity: 1; stroke: rgb(0,0,0); stroke-width: 3" />
	<polygon points="291.602082955653,-413.652024236073 332.930124633868,-367.752583934858 352.016185115102,-426.49343806746 " style="fill: rgb(14,173,105); fill-opacity: 1; stroke: rgb(0,0,0); stroke-width: 3" />
	<polygon points="332.930124633868,-367.752583934858 272.516022474422,-354.911170103468 313.844064152639,-309.011729802255 " style="fill: rgb(14,173,105); fill-opacity: 1; stroke: rgb(0,0,0); stroke-width: 3" />
	<polygon points="291.602082955653,-413.652024236073 272.516022474422,-354.911170103468 332.930124633868,-367.752583934858 " style="fill: rgb(14,173,105); fill-opacity: 1; stroke: rgb(0,0,0); stroke-width: 3" />
	<polygon points="332.930124633868,-367.752583934858 313.844064152639,-309.011729802255 363.812019203832,-272.707885420101 413.779974255022,-309.011729802238 394.693913773791,-367.752583934844 " style="fill: rgb(255,210,63); fill-opacity: 1; stroke: rgb(0,0,0); stroke-width: 3" />
	<circle cx="210.7522333345" cy="-354.911170103468" r="2" style="fill: rgb(0,0,0)" />
	<circle cx="272.516022474422" cy="-354.911170103468" r="2" style="fill: rgb(0,0,0)" />
	<circle cx="291.602082955653" cy="-413.652024236073" r="2" style="fill: rgb(0,0,0)" />
	<circle cx="241.634127904475" cy="-449.955868618229" r="2" style="fill: rgb(0,0,0)" />
	<circle cx="191.666172853284" cy="-413.652024236079" r="2" style="fill: rgb(0,0,0)" />
	<circle cx="241.634127904458" cy="-301.422159674304" r="2" style="fill: rgb(0,0,0)" />
	<circle cx="185.210098888902" cy="-475.07746487665" r="2" style="fill: rgb(0,0,0)" />
	<circle cx="150.338131175057" cy="-367.752583934878" r="2" style="fill: rgb(0,0,0)" />
	<circle cx="298.058156920048" cy="-475.077464876635" r="2" style="fill: rgb(0,0,0)" />
	<circle cx="332.930124633868" cy="-367.752583934858" r="2" style="fill: rgb(0,0,0)" />
	<circle cx="303.397917044382" cy="-301.422159674304" r="2" style="fill: rgb(0,0,0)" />
	<circle cx="150.338131175053" cy="-342.06975627208" r="2" style="fill: rgb(0,0,0)" />
	<circle cx="143.882057210661" cy="-280.644315631518" r="2" style="fill: rgb(0,0,0)" />
	<circle cx="200.306086226232" cy="-255.522719373099" r="2" style="fill: rgb(0,0,0)" />
	<circle cx="282.962169582698" cy="-495.855308919437" r="2" style="fill: rgb(0,0,0)" />
	<circle cx="252.080275012745" cy="-549.344319348601" r="2" style="fill: rgb(0,0,0)" />
	<circle cx="191.666172853297" cy="-536.502905517213" r="2" style="fill: rgb(0,0,0)" />
	<circle cx="124.795996729458" cy="-487.918878708047" r="2" style="fill: rgb(0,0,0)" />
	<circle cx="93.914102159491" cy="-434.429868278886" r="2" style="fill: rgb(0,0,0)" />
	<circle cx="135.242143837707" cy="-388.530427977668" r="2" style="fill: rgb(0,0,0)" />
	<circle cx="348.026111971231" cy="-438.773620494478" r="2" style="fill: rgb(0,0,0)" />
	<circle cx="352.016185115102" cy="-426.49343806746" r="2" style="fill: rgb(0,0,0)" />
	<circle cx="313.844064152639" cy="-309.011729802255" r="2" style="fill: rgb(0,0,0)" />
	<circle cx="272.516022474421" cy="-247.933149245145" r="2" style="fill: rgb(0,0,0)" />
	<circle cx="150.338131175035" cy="-219.21887499095" r="2" style="fill: rgb(0,0,0)" />
	<circle cx="93.914102159478" cy="-316.948160013673" r="2" style="fill: rgb(0,0,0)" />
	<circle cx="260.720188385674" cy="-242.681305541694" r="2" style="fill: rgb(0,0,0)" />
	<circle cx="313.844064152669" cy="-549.344319348593" r="2" style="fill: rgb(0,0,0)" />
	<circle cx="135.242143837716" cy="-511.381309258815" r="2" style="fill: rgb(0,0,0)" />
	<circle cx="210.752233334533" cy="-595.243759649816" r="2" style="fill: rgb(0,0,0)" />
	<circle cx="63.0322075895297" cy="-487.91887870804" r="2" style="fill: rgb(0,0,0)" />
	<circle cx="354.482185935627" cy="-500.199061135041" r="2" style="fill: rgb(0,0,0)" />
	<circle cx="393.344226793318" cy="-380.593997766255" r="2" style="fill: rgb(0,0,0)" />
	<circle cx="363.812019203832" cy="-272.707885420101" r="2" style="fill: rgb(0,0,0)" />
	<circle cx="413.779974255022" cy="-309.011729802238" r="2" style="fill: rgb(0,0,0)" />
	<circle cx="394.693913773791" cy="-367.752583934844" r="2" style="fill: rgb(0,0,0)" />
	<circle cx="334.279811614349" cy="-247.933149245154" r="2" style="fill: rgb(0,0,0)" />
	<circle cx="206.762160190604" cy="-194.09727873253" r="2" style="fill: rgb(0,0,0)" />
	<circle cx="83.4679550512174" cy="-293.48572946292" r="2" style="fill: rgb(0,0,0)" />
	<circle cx="52.5860604812443" cy="-239.996719033768" r="2" style="fill: rgb(0,0,0)" />
	<circle cx="93.9141021594551" cy="-194.09727873255" r="2" style="fill: rgb(0,0,0)" />
	<circle cx="219.392146707448" cy="-196.78186524049" r="2" style="fill: rgb(0,0,0)" />
	<circle cx="282.962169582709" cy="-602.833329777754" r="2" style="fill: rgb(0,0,0)" />
	<circle cx="185.210098888932" cy="-597.928346157781" r="2" style="fill: rgb(0,0,0)" />
	<circle cx="124.795996729492" cy="-610.769759989196" r="2" style="fill: rgb(0,0,0)" />
	<circle cx="93.9141021595146" cy="-557.280749560042" r="2" style="fill: rgb(0,0,0)" />
	<circle cx="271.16633549398" cy="-608.085173481205" r="2" style="fill: rgb(0,0,0)" />
	<circle cx="404.450140986806" cy="-413.652024236055" r="2" style="fill: rgb(0,0,0)" />
	<circle cx="445.778182665034" cy="-459.551464537247" r="2" style="fill: rgb(0,0,0)" />
	<circle cx="414.896288095075" cy="-513.040474966408" r="2" style="fill: rgb(0,0,0)" />
	<circle cx="455.108015933237" cy="-354.91117010345" r="2" style="fill: rgb(0,0,0)" />
	<circle cx="420.236048219401" cy="-247.58628916167" r="2" style="fill: rgb(0,0,0)" />
	<circle cx="253.429961993195" cy="-189.192295112535" r="2" style="fill: rgb(0,0,0)" />
	<circle cx="303.397917044379" cy="-152.888450730389" r="2" style="fill: rgb(0,0,0)" />
	<circle cx="353.365872095567" cy="-189.19229511255" r="2" style="fill: rgb(0,0,0)" />
	<circle cx="156.79420513941" cy="-157.793434350384" r="2" style="fill: rgb(0,0,0)" />
	<circle cx="143.882057210633" cy="-157.793434350386" r="2" style="fill: rgb(0,0,0)" />
	<circle cx="33.5" cy="-181.255864901165" r="2" style="fill: rgb(0,0,0)" />
	<circle cx="344.725958722628" cy="-602.833329777761" r="2" style="fill: rgb(0,0,0)" />
	<circle cx="166.124038407725" cy="-656.669200290395" r="2" style="fill: rgb(0,0,0)" />
	<circle cx="229.838293815766" cy="-653.984613782422" r="2" style="fill: rgb(0,0,0)" />
	<circle cx="476.660077234998" cy="-513.040474966404" r="2" style="fill: rgb(0,0,0)" />
	<circle cx="444.661868824987" cy="-255.522719373079" r="2" style="fill: rgb(0,0,0)" />
	<circle cx="505.075970984429" cy="-268.364133204469" r="2" style="fill: rgb(0,0,0)" />
	<circle cx="511.532044948808" cy="-329.789573845032" r="2" style="fill: rgb(0,0,0)" />
	<circle cx="246.973888028812" cy="-127.766854471971" r="2" style="fill: rgb(0,0,0)" />
	<circle cx="359.821946059957" cy="-127.766854471976" r="2" style="fill: rgb(0,0,0)" />
	<circle cx="87.458028195052" cy="-132.671838091987" r="2" style="fill: rgb(0,0,0)" />
	<circle cx="74.8280416782073" cy="-135.356424599945" r="2" style="fill: rgb(0,0,0)" />
	<circle cx="363.812019203857" cy="-661.574183910369" r="2" style="fill: rgb(0,0,0)" />
	<circle cx="313.844064152677" cy="-697.878028292512" r="2" style="fill: rgb(0,0,0)" />
	<circle cx="263.876109101488" cy="-661.574183910354" r="2" style="fill: rgb(0,0,0)" />
	<circle cx="105.709936248284" cy="-669.510614121811" r="2" style="fill: rgb(0,0,0)" />
	<circle cx="561.5" cy="-293.485729462898" r="2" style="fill: rgb(0,0,0)" />
	<circle cx="253.429961993203" cy="-66.3414138313977" r="2" style="fill: rgb(0,0,0)" />
	<circle cx="313.84406415264" cy="-53.5" r="2" style="fill: rgb(0,0,0)" />
	<circle cx="344.725958722591" cy="-106.989010429173" r="2" style="fill: rgb(0,0,0)" />
	<circle cx="257.420035137102" cy="-722.999624550929" r="2" style="fill: rgb(0,0,0)" />
	<!--
	Generated using the Perl SVG Module V2.87
	by Ronan Oger

	-->
</svg>