<?xml version="1.0" encoding="UTF-8" standalone="yes"?>
<!DOCTYPE svg PUBLIC "-//W3C//DTD SVG 1.0//EN" "http://www.w3.org/TR/2001/REC-SVG-20010904/DTD/svg10.dtd">
<!-- generated using polymake; Michael Joswig, Georg Loho, Benjamin Lorenz, Rico Raber; license CC BY-NC-ND 3.0; see polymake.org and matchthenet.de -->
<svg height="841pt" id="document" viewBox="0 -811 534.411401813432 811" width="595pt" xmlns="http://www.w3.org/2000/svg" xmlns:svg="http://www.w3.org/2000/svg" xmlns:xlink="http://www.w3.org/1999/xlink">
	<title id="document_title">planar_net_</title>
	<polygon points="288.938706474067,-385.801572536258 435.676905320087,-385.801572536258 435.676905320088,-392.78910581464 365.801572536268,-462.664438598459 288.938706474066,-462.664438598459 " style="fill: rgb(255,210,63); fill-opacity: 1; stroke: rgb(0,0,0); stroke-width: 3" />
	<polygon points="435.676905320087,-308.938706474057 435.676905320087,-385.801572536258 288.938706474067,-385.801572536258 219.063373690248,-315.926239752438 219.063373690248,-239.063373690237 365.801572536268,-239.063373690237 " style="fill: rgb(238,66,102); fill-opacity: 1; stroke: rgb(0,0,0); stroke-width: 3" />
	<polygon points="435.676905320088,-392.78910581464 435.676905320087,-385.801572536258 512.539771382294,-385.801572536252 512.539771382294,-392.789105814634 " style="fill: rgb(67,184,206); fill-opacity: 1; stroke: rgb(0,0,0); stroke-width: 3" />
	<polygon points="180.238198846031,-539.527304660664 110.362866062203,-609.402637444488 33.5,-609.402637444485 33.5000000000141,-462.664438598448 103.375332783842,-392.789105814624 180.238198846035,-392.789105814638 " style="fill: rgb(238,66,102); fill-opacity: 1; stroke: rgb(0,0,0); stroke-width: 3" />
	<polygon points="219.063373690248,-315.926239752438 209.181509360427,-308.938706474056 209.181509360428,-232.075840411856 219.063373690248,-239.063373690237 " style="fill: rgb(67,184,206); fill-opacity: 1; stroke: rgb(0,0,0); stroke-width: 3" />
	<polygon points="219.063373690247,-670.183589524708 219.063373690247,-747.04645558691 212.075840411865,-747.046455586911 212.075840411865,-670.183589524708 " style="fill: rgb(67,184,206); fill-opacity: 1; stroke: rgb(0,0,0); stroke-width: 3" />
	<polygon points="288.938706474067,-385.801572536258 288.938706474066,-462.664438598459 180.238198846031,-539.527304660664 180.238198846035,-392.789105814638 190.120063175856,-385.801572536256 " style="fill: rgb(255,210,63); fill-opacity: 1; stroke: rgb(0,0,0); stroke-width: 3" />
	<polygon points="377.173202967406,-767.512466721609 447.048535751225,-697.637133937793 523.911401813432,-697.637133937806 523.91140181343,-774.5 377.173202967401,-774.49999999998 " style="fill: rgb(255,210,63); fill-opacity: 1; stroke: rgb(0,0,0); stroke-width: 3" />
	<polygon points="365.801572536268,-239.063373690237 219.063373690248,-239.063373690237 212.075840411866,-229.181509360414 212.075840411865,-130.362866062203 288.938706474067,-130.362866062207 " style="fill: rgb(255,210,63); fill-opacity: 1; stroke: rgb(0,0,0); stroke-width: 3" />
	<polygon points="288.938706474066,-462.664438598459 365.801572536268,-462.664438598459 219.063373690247,-670.183589524708 212.075840411865,-670.183589524708 212.075840411865,-571.364946226494 " style="fill: rgb(255,210,63); fill-opacity: 1; stroke: rgb(0,0,0); stroke-width: 3" />
	<polygon points="365.801572536268,-462.664438598459 435.676905320088,-392.78910581464 490.027159134108,-447.139359628657 447.048535751225,-697.637133937793 377.173202967406,-767.512466721609 322.822949153383,-713.162212907594 " style="fill: rgb(238,66,102); fill-opacity: 1; stroke: rgb(0,0,0); stroke-width: 3" />
	<polygon points="440.617837484996,-303.997774309149 435.676905320087,-308.938706474057 365.801572536268,-239.063373690237 343.288960288085,-107.850253814016 397.639214102102,-53.5 " style="fill: rgb(255,210,63); fill-opacity: 1; stroke: rgb(0,0,0); stroke-width: 3" />
	<circle cx="288.938706474067" cy="-385.801572536258" r="2" style="fill: rgb(0,0,0)" />
	<circle cx="435.676905320087" cy="-385.801572536258" r="2" style="fill: rgb(0,0,0)" />
	<circle cx="435.676905320088" cy="-392.78910581464" r="2" style="fill: rgb(0,0,0)" />
	<circle cx="365.801572536268" cy="-462.664438598459" r="2" style="fill: rgb(0,0,0)" />
	<circle cx="288.938706474066" cy="-462.664438598459" r="2" style="fill: rgb(0,0,0)" />
	<circle cx="219.063373690248" cy="-315.926239752438" r="2" style="fill: rgb(0,0,0)" />
	<circle cx="219.063373690248" cy="-239.063373690237" r="2" style="fill: rgb(0,0,0)" />
	<circle cx="365.801572536268" cy="-239.063373690237" r="2" style="fill: rgb(0,0,0)" />
	<circle cx="435.676905320087" cy="-308.938706474057" r="2" style="fill: rgb(0,0,0)" />
	<circle cx="512.539771382294" cy="-385.801572536252" r="2" style="fill: rgb(0,0,0)" />
	<circle cx="512.539771382294" cy="-392.789105814634" r="2" style="fill: rgb(0,0,0)" />
	<circle cx="180.238198846031" cy="-539.527304660664" r="2" style="fill: rgb(0,0,0)" />
	<circle cx="180.238198846035" cy="-392.789105814638" r="2" style="fill: rgb(0,0,0)" />
	<circle cx="190.120063175856" cy="-385.801572536256" r="2" style="fill: rgb(0,0,0)" />
	<circle cx="219.063373690247" cy="-670.183589524708" r="2" style="fill: rgb(0,0,0)" />
	<circle cx="212.075840411865" cy="-670.183589524708" r="2" style="fill: rgb(0,0,0)" />
	<circle cx="212.075840411865" cy="-571.364946226494" r="2" style="fill: rgb(0,0,0)" />
	<circle cx="490.027159134108" cy="-447.139359628657" r="2" style="fill: rgb(0,0,0)" />
	<circle cx="447.048535751225" cy="-697.637133937793" r="2" style="fill: rgb(0,0,0)" />
	<circle cx="377.173202967406" cy="-767.512466721609" r="2" style="fill: rgb(0,0,0)" />
	<circle cx="322.822949153383" cy="-713.162212907594" r="2" style="fill: rgb(0,0,0)" />
	<circle cx="209.181509360427" cy="-308.938706474056" r="2" style="fill: rgb(0,0,0)" />
	<circle cx="209.181509360428" cy="-232.075840411856" r="2" style="fill: rgb(0,0,0)" />
	<circle cx="212.075840411866" cy="-229.181509360414" r="2" style="fill: rgb(0,0,0)" />
	<circle cx="212.075840411865" cy="-130.362866062203" r="2" style="fill: rgb(0,0,0)" />
	<circle cx="288.938706474067" cy="-130.362866062207" r="2" style="fill: rgb(0,0,0)" />
	<circle cx="343.288960288085" cy="-107.850253814016" r="2" style="fill: rgb(0,0,0)" />
	<circle cx="397.639214102102" cy="-53.5" r="2" style="fill: rgb(0,0,0)" />
	<circle cx="440.617837484996" cy="-303.997774309149" r="2" style="fill: rgb(0,0,0)" />
	<circle cx="110.362866062203" cy="-609.402637444488" r="2" style="fill: rgb(0,0,0)" />
	<circle cx="33.5" cy="-609.402637444485" r="2" style="fill: rgb(0,0,0)" />
	<circle cx="33.5000000000141" cy="-462.664438598448" r="2" style="fill: rgb(0,0,0)" />
	<circle cx="103.375332783842" cy="-392.789105814624" r="2" style="fill: rgb(0,0,0)" />
	<circle cx="219.063373690247" cy="-747.04645558691" r="2" style="fill: rgb(0,0,0)" />
	<circle cx="212.075840411865" cy="-747.046455586911" r="2" style="fill: rgb(0,0,0)" />
	<circle cx="523.911401813432" cy="-697.637133937806" r="2" style="fill: rgb(0,0,0)" />
	<circle cx="523.91140181343" cy="-774.5" r="2" style="fill: rgb(0,0,0)" />
	<circle cx="377.173202967401" cy="-774.49999999998" r="2" style="fill: rgb(0,0,0)" />
	<!--
	Generated using the Perl SVG Module V2.87
	by Ronan Oger

	-->
</svg>