<?xml version="1.0" encoding="UTF-8" standalone="yes"?>
<!DOCTYPE svg PUBLIC "-//W3C//DTD SVG 1.0//EN" "http://www.w3.org/TR/2001/REC-SVG-20010904/DTD/svg10.dtd">
<!-- generated using polymake; Michael Joswig, Georg Loho, Benjamin Lorenz, Rico Raber; license CC BY-NC-ND 3.0; see polymake.org and matchthenet.de -->
<svg height="841pt" id="document" viewBox="0 -737.998963027917 572 737.998963027917" width="595pt" xmlns="http://www.w3.org/2000/svg" xmlns:svg="http://www.w3.org/2000/svg" xmlns:xlink="http://www.w3.org/1999/xlink">
	<title id="document_title">planar_net_</title>
	<polygon points="316.716676301842,-386.705373965371 353.477422422885,-386.705373965371 383.217490760713,-438.216683347059 364.837117700199,-470.052423349959 328.076371579161,-470.052423349964 298.33630324133,-418.541113968274 " style="fill: rgb(73,117,66); fill-opacity: 1; stroke: rgb(0,0,0); stroke-width: 3" />
	<polygon points="342.11772714558,-351.743826823082 353.477422422885,-386.705373965371 316.716676301842,-386.705373965371 268.596234903493,-351.743826823081 257.236539626188,-316.782279680791 293.997285747231,-316.782279680791 " style="fill: rgb(73,117,66); fill-opacity: 1; stroke: rgb(0,0,0); stroke-width: 3" />
	<polygon points="383.217490760713,-438.216683347059 353.477422422885,-386.705373965371 357.31996672349,-350.14600705792 390.902579361923,-365.097949532155 420.64264769975,-416.609258913843 416.800103399145,-453.168625821295 " style="fill: rgb(73,117,66); fill-opacity: 1; stroke: rgb(0,0,0); stroke-width: 3" />
	<polygon points="364.837117700199,-470.052423349959 383.217490760713,-438.216683347059 407.815231102902,-465.535241607594 414.032598384601,-524.689539871026 395.652225324101,-556.525279873925 371.054484981903,-529.206721613391 " style="fill: rgb(73,117,66); fill-opacity: 1; stroke: rgb(0,0,0); stroke-width: 3" />
	<polygon points="416.800103399145,-453.168625821295 420.64264769975,-416.609258913843 454.225260338186,-401.657316439606 502.345701736559,-436.618863581875 498.50315743596,-473.17823048932 464.920544797519,-488.130172963561 " style="fill: rgb(73,117,66); fill-opacity: 1; stroke: rgb(0,0,0); stroke-width: 3" />
	<polygon points="375.70033978401,-336.791884348844 342.11772714558,-351.743826823082 293.997285747231,-316.782279680791 297.839830047836,-280.222912773338 331.422442686266,-265.270970299101 379.542884084613,-300.23251744139 " style="fill: rgb(73,117,66); fill-opacity: 1; stroke: rgb(0,0,0); stroke-width: 3" />
	<polygon points="243.998494561314,-379.062385083625 185.818141580695,-366.695769297345 174.458446303387,-331.734222155063 199.056186645568,-304.415663894514 257.236539626188,-316.782279680791 268.596234903493,-351.743826823081 " style="fill: rgb(73,117,66); fill-opacity: 1; stroke: rgb(0,0,0); stroke-width: 3" />
	<polygon points="316.716676301842,-386.705373965371 298.33630324133,-418.541113968274 246.824993859632,-388.801045630464 265.205366920137,-356.965305627561 " style="fill: rgb(73,117,66); fill-opacity: 1; stroke: rgb(0,0,0); stroke-width: 3" />
	<polygon points="298.33630324133,-418.541113968274 328.076371579161,-470.052423349964 321.859004297506,-529.2067216134 282.059024377417,-573.409077402598 223.878671396804,-585.775693188899 169.540862716794,-561.582942067748 139.800794378963,-510.071632686056 146.018161660618,-450.91733442262 185.818141580707,-406.714978633422 243.99849456132,-394.348362847121 " style="fill: rgb(73,117,66); fill-opacity: 1; stroke: rgb(0,0,0); stroke-width: 3" />
	<polygon points="293.997285747231,-316.782279680791 257.236539626188,-316.782279680791 209.116098227839,-281.8207325385 197.756402950533,-246.85918539621 234.517149071577,-246.859185396211 282.637590469927,-281.820732538502 " style="fill: rgb(73,117,66); fill-opacity: 1; stroke: rgb(0,0,0); stroke-width: 3" />
	<polygon points="328.076371579161,-470.052423349964 364.837117700199,-470.052423349959 364.8371177002,-529.532560025615 328.076371579163,-529.532560025623 " style="fill: rgb(73,117,66); fill-opacity: 1; stroke: rgb(0,0,0); stroke-width: 3" />
	<polygon points="420.64264769975,-416.609258913843 390.902579361923,-365.097949532155 422.738319364818,-346.717576471632 452.478387702642,-398.228885853317 " style="fill: rgb(73,117,66); fill-opacity: 1; stroke: rgb(0,0,0); stroke-width: 3" />
	<polygon points="234.517149071577,-246.859185396211 197.756402950533,-246.85918539621 168.016334612705,-195.347876014522 186.39670767322,-163.512136011623 223.157453794259,-163.51213601162 252.897522132091,-215.023445393311 " style="fill: rgb(73,117,66); fill-opacity: 1; stroke: rgb(0,0,0); stroke-width: 3" />
	<polygon points="371.054484981903,-529.206721613391 395.652225324101,-556.525279873925 377.27185226361,-613.094251449444 341.314416644126,-620.737240331215 316.716676301928,-593.418682070687 335.097049362419,-536.849710495165 " style="fill: rgb(73,117,66); fill-opacity: 1; stroke: rgb(0,0,0); stroke-width: 3" />
	<polygon points="116.278093322774,-344.100837941372 82.695480684345,-329.148895467133 107.293221026529,-301.830337206584 165.473574007142,-289.463721420275 199.056186645568,-304.415663894514 174.458446303387,-331.734222155063 " style="fill: rgb(73,117,66); fill-opacity: 1; stroke: rgb(0,0,0); stroke-width: 3" />
	<polygon points="379.542884084613,-300.23251744139 331.422442686266,-265.270970299101 313.042069625744,-208.701998723592 331.422442686265,-152.133027148084 379.542884084611,-117.171480005792 439.023020760263,-117.171480005792 487.14346215861,-152.133027148082 505.523835219132,-208.701998723591 487.143462158611,-265.270970299099 439.023020760265,-300.232517441391 " style="fill: rgb(73,117,66); fill-opacity: 1; stroke: rgb(0,0,0); stroke-width: 3" />
	<polygon points="331.422442686266,-265.270970299101 297.839830047836,-280.222912773338 273.647078926685,-225.885104093333 307.229691565111,-210.933161619093 " style="fill: rgb(73,117,66); fill-opacity: 1; stroke: rgb(0,0,0); stroke-width: 3" />
	<polygon points="185.818141580707,-406.714978633422 146.018161660618,-450.91733442262 118.699603400068,-426.319594080445 158.499583320158,-382.11723829125 " style="fill: rgb(73,117,66); fill-opacity: 1; stroke: rgb(0,0,0); stroke-width: 3" />
	<polygon points="139.800794378963,-510.071632686056 169.540862716794,-561.582942067748 137.7051227139,-579.96331512828 107.965054376082,-528.452005746589 " style="fill: rgb(73,117,66); fill-opacity: 1; stroke: rgb(0,0,0); stroke-width: 3" />
	<polygon points="223.878671396804,-585.775693188899 282.059024377417,-573.409077402598 289.702013259169,-609.366513022086 231.52166027857,-621.733128808375 " style="fill: rgb(73,117,66); fill-opacity: 1; stroke: rgb(0,0,0); stroke-width: 3" />
	<polygon points="379.542884084611,-117.171480005792 331.422442686265,-152.133027148084 309.815018253039,-122.392958810256 357.935459651373,-87.4314116679841 " style="fill: rgb(73,117,66); fill-opacity: 1; stroke: rgb(0,0,0); stroke-width: 3" />
	<polygon points="395.652225324101,-556.525279873925 414.032598384601,-524.689539871026 438.630338726801,-552.008098131554 444.847706008524,-611.162396394979 426.467332948037,-642.998136397877 401.869592605827,-615.679578137349 " style="fill: rgb(73,117,66); fill-opacity: 1; stroke: rgb(0,0,0); stroke-width: 3" />
	<polygon points="82.6954806843603,-444.261852463645 76.4781134027002,-503.416150727082 51.8803730605173,-530.734708987624 33.5,-498.898968984725 39.7173672816651,-439.744670721285 64.3151076238473,-412.426112460744 " style="fill: rgb(73,117,66); fill-opacity: 1; stroke: rgb(0,0,0); stroke-width: 3" />
	<polygon points="498.50315743596,-473.17823048932 502.345701736559,-436.618863581875 561.5,-442.836230863523 557.657455699409,-479.395597770967 " style="fill: rgb(73,117,66); fill-opacity: 1; stroke: rgb(0,0,0); stroke-width: 3" />
	<polygon points="439.023020760263,-117.171480005792 379.542884084611,-117.171480005792 361.16251102409,-85.3357400028925 379.542884084604,-53.5 439.023020760251,-53.5000000000092 457.403393820775,-85.3357400029073 " style="fill: rgb(73,117,66); fill-opacity: 1; stroke: rgb(0,0,0); stroke-width: 3" />
	<polygon points="146.018161660618,-450.91733442262 139.800794378963,-510.071632686056 106.218181740528,-525.023575160295 76.4781134027002,-503.416150727082 82.6954806843603,-444.261852463645 116.278093322795,-429.309909989404 " style="fill: rgb(73,117,66); fill-opacity: 1; stroke: rgb(0,0,0); stroke-width: 3" />
	<polygon points="377.27185226361,-613.094251449444 373.42930796303,-649.653618356901 333.629328042981,-693.85597414614 297.671892423507,-701.498963027917 301.514436724081,-664.939596120456 341.314416644126,-620.737240331215 " style="fill: rgb(73,117,66); fill-opacity: 1; stroke: rgb(0,0,0); stroke-width: 3" />
	<polygon points="426.467332948037,-642.998136397877 444.847706008524,-611.162396394979 481.608452129572,-611.16239639495 511.34852046749,-662.673705776592 492.968147407013,-694.509445779486 456.207401285957,-694.509445779516 " style="fill: rgb(73,117,66); fill-opacity: 1; stroke: rgb(0,0,0); stroke-width: 3" />
	<polygon points="169.540862716794,-561.582942067748 223.878671396804,-585.775693188899 227.721215697406,-622.335060096356 197.981147359579,-643.94248452957 143.643338679575,-619.749733408413 139.800794378971,-583.190366500956 " style="fill: rgb(73,117,66); fill-opacity: 1; stroke: rgb(0,0,0); stroke-width: 3" />
	<polygon points="487.14346215861,-152.133027148082 439.023020760263,-117.171480005792 460.630445193478,-87.4314116679549 508.750886591809,-122.392958810253 " style="fill: rgb(73,117,66); fill-opacity: 1; stroke: rgb(0,0,0); stroke-width: 3" />
	<polygon points="137.7051227139,-579.96331512828 133.862578413284,-616.522682035736 100.279965774858,-601.570739561493 70.5398974370472,-550.059430179795 74.3824417376622,-513.50006327234 107.965054376082,-528.452005746589 " style="fill: rgb(73,117,66); fill-opacity: 1; stroke: rgb(0,0,0); stroke-width: 3" />
	<polygon points="143.643338679575,-619.749733408413 197.981147359579,-643.94248452957 216.361520420092,-675.778224532471 180.404084800606,-683.421213414209 126.066276120605,-659.228462293047 107.685903060091,-627.392722290147 " style="fill: rgb(73,117,66); fill-opacity: 1; stroke: rgb(0,0,0); stroke-width: 3" />
	<circle cx="316.716676301842" cy="-386.705373965371" r="2" style="fill: rgb(0,0,0)" />
	<circle cx="353.477422422885" cy="-386.705373965371" r="2" style="fill: rgb(0,0,0)" />
	<circle cx="383.217490760713" cy="-438.216683347059" r="2" style="fill: rgb(0,0,0)" />
	<circle cx="364.837117700199" cy="-470.052423349959" r="2" style="fill: rgb(0,0,0)" />
	<circle cx="328.076371579161" cy="-470.052423349964" r="2" style="fill: rgb(0,0,0)" />
	<circle cx="298.33630324133" cy="-418.541113968274" r="2" style="fill: rgb(0,0,0)" />
	<circle cx="268.596234903493" cy="-351.743826823081" r="2" style="fill: rgb(0,0,0)" />
	<circle cx="257.236539626188" cy="-316.782279680791" r="2" style="fill: rgb(0,0,0)" />
	<circle cx="293.997285747231" cy="-316.782279680791" r="2" style="fill: rgb(0,0,0)" />
	<circle cx="342.11772714558" cy="-351.743826823082" r="2" style="fill: rgb(0,0,0)" />
	<circle cx="357.31996672349" cy="-350.14600705792" r="2" style="fill: rgb(0,0,0)" />
	<circle cx="390.902579361923" cy="-365.097949532155" r="2" style="fill: rgb(0,0,0)" />
	<circle cx="420.64264769975" cy="-416.609258913843" r="2" style="fill: rgb(0,0,0)" />
	<circle cx="416.800103399145" cy="-453.168625821295" r="2" style="fill: rgb(0,0,0)" />
	<circle cx="407.815231102902" cy="-465.535241607594" r="2" style="fill: rgb(0,0,0)" />
	<circle cx="414.032598384601" cy="-524.689539871026" r="2" style="fill: rgb(0,0,0)" />
	<circle cx="395.652225324101" cy="-556.525279873925" r="2" style="fill: rgb(0,0,0)" />
	<circle cx="371.054484981903" cy="-529.206721613391" r="2" style="fill: rgb(0,0,0)" />
	<circle cx="246.824993859632" cy="-388.801045630464" r="2" style="fill: rgb(0,0,0)" />
	<circle cx="265.205366920137" cy="-356.965305627561" r="2" style="fill: rgb(0,0,0)" />
	<circle cx="321.859004297506" cy="-529.2067216134" r="2" style="fill: rgb(0,0,0)" />
	<circle cx="282.059024377417" cy="-573.409077402598" r="2" style="fill: rgb(0,0,0)" />
	<circle cx="223.878671396804" cy="-585.775693188899" r="2" style="fill: rgb(0,0,0)" />
	<circle cx="169.540862716794" cy="-561.582942067748" r="2" style="fill: rgb(0,0,0)" />
	<circle cx="139.800794378963" cy="-510.071632686056" r="2" style="fill: rgb(0,0,0)" />
	<circle cx="146.018161660618" cy="-450.91733442262" r="2" style="fill: rgb(0,0,0)" />
	<circle cx="185.818141580707" cy="-406.714978633422" r="2" style="fill: rgb(0,0,0)" />
	<circle cx="243.99849456132" cy="-394.348362847121" r="2" style="fill: rgb(0,0,0)" />
	<circle cx="364.8371177002" cy="-529.532560025615" r="2" style="fill: rgb(0,0,0)" />
	<circle cx="328.076371579163" cy="-529.532560025623" r="2" style="fill: rgb(0,0,0)" />
	<circle cx="297.839830047836" cy="-280.222912773338" r="2" style="fill: rgb(0,0,0)" />
	<circle cx="331.422442686266" cy="-265.270970299101" r="2" style="fill: rgb(0,0,0)" />
	<circle cx="379.542884084613" cy="-300.23251744139" r="2" style="fill: rgb(0,0,0)" />
	<circle cx="375.70033978401" cy="-336.791884348844" r="2" style="fill: rgb(0,0,0)" />
	<circle cx="243.998494561314" cy="-379.062385083625" r="2" style="fill: rgb(0,0,0)" />
	<circle cx="185.818141580695" cy="-366.695769297345" r="2" style="fill: rgb(0,0,0)" />
	<circle cx="174.458446303387" cy="-331.734222155063" r="2" style="fill: rgb(0,0,0)" />
	<circle cx="199.056186645568" cy="-304.415663894514" r="2" style="fill: rgb(0,0,0)" />
	<circle cx="209.116098227839" cy="-281.8207325385" r="2" style="fill: rgb(0,0,0)" />
	<circle cx="197.756402950533" cy="-246.85918539621" r="2" style="fill: rgb(0,0,0)" />
	<circle cx="234.517149071577" cy="-246.859185396211" r="2" style="fill: rgb(0,0,0)" />
	<circle cx="282.637590469927" cy="-281.820732538502" r="2" style="fill: rgb(0,0,0)" />
	<circle cx="454.225260338186" cy="-401.657316439606" r="2" style="fill: rgb(0,0,0)" />
	<circle cx="502.345701736559" cy="-436.618863581875" r="2" style="fill: rgb(0,0,0)" />
	<circle cx="498.50315743596" cy="-473.17823048932" r="2" style="fill: rgb(0,0,0)" />
	<circle cx="464.920544797519" cy="-488.130172963561" r="2" style="fill: rgb(0,0,0)" />
	<circle cx="422.738319364818" cy="-346.717576471632" r="2" style="fill: rgb(0,0,0)" />
	<circle cx="452.478387702642" cy="-398.228885853317" r="2" style="fill: rgb(0,0,0)" />
	<circle cx="377.27185226361" cy="-613.094251449444" r="2" style="fill: rgb(0,0,0)" />
	<circle cx="341.314416644126" cy="-620.737240331215" r="2" style="fill: rgb(0,0,0)" />
	<circle cx="316.716676301928" cy="-593.418682070687" r="2" style="fill: rgb(0,0,0)" />
	<circle cx="335.097049362419" cy="-536.849710495165" r="2" style="fill: rgb(0,0,0)" />
	<circle cx="438.630338726801" cy="-552.008098131554" r="2" style="fill: rgb(0,0,0)" />
	<circle cx="444.847706008524" cy="-611.162396394979" r="2" style="fill: rgb(0,0,0)" />
	<circle cx="426.467332948037" cy="-642.998136397877" r="2" style="fill: rgb(0,0,0)" />
	<circle cx="401.869592605827" cy="-615.679578137349" r="2" style="fill: rgb(0,0,0)" />
	<circle cx="118.699603400068" cy="-426.319594080445" r="2" style="fill: rgb(0,0,0)" />
	<circle cx="158.499583320158" cy="-382.11723829125" r="2" style="fill: rgb(0,0,0)" />
	<circle cx="137.7051227139" cy="-579.96331512828" r="2" style="fill: rgb(0,0,0)" />
	<circle cx="107.965054376082" cy="-528.452005746589" r="2" style="fill: rgb(0,0,0)" />
	<circle cx="289.702013259169" cy="-609.366513022086" r="2" style="fill: rgb(0,0,0)" />
	<circle cx="231.52166027857" cy="-621.733128808375" r="2" style="fill: rgb(0,0,0)" />
	<circle cx="106.218181740528" cy="-525.023575160295" r="2" style="fill: rgb(0,0,0)" />
	<circle cx="76.4781134027002" cy="-503.416150727082" r="2" style="fill: rgb(0,0,0)" />
	<circle cx="82.6954806843603" cy="-444.261852463645" r="2" style="fill: rgb(0,0,0)" />
	<circle cx="116.278093322795" cy="-429.309909989404" r="2" style="fill: rgb(0,0,0)" />
	<circle cx="227.721215697406" cy="-622.335060096356" r="2" style="fill: rgb(0,0,0)" />
	<circle cx="197.981147359579" cy="-643.94248452957" r="2" style="fill: rgb(0,0,0)" />
	<circle cx="143.643338679575" cy="-619.749733408413" r="2" style="fill: rgb(0,0,0)" />
	<circle cx="139.800794378971" cy="-583.190366500956" r="2" style="fill: rgb(0,0,0)" />
	<circle cx="313.042069625744" cy="-208.701998723592" r="2" style="fill: rgb(0,0,0)" />
	<circle cx="331.422442686265" cy="-152.133027148084" r="2" style="fill: rgb(0,0,0)" />
	<circle cx="379.542884084611" cy="-117.171480005792" r="2" style="fill: rgb(0,0,0)" />
	<circle cx="439.023020760263" cy="-117.171480005792" r="2" style="fill: rgb(0,0,0)" />
	<circle cx="487.14346215861" cy="-152.133027148082" r="2" style="fill: rgb(0,0,0)" />
	<circle cx="505.523835219132" cy="-208.701998723591" r="2" style="fill: rgb(0,0,0)" />
	<circle cx="487.143462158611" cy="-265.270970299099" r="2" style="fill: rgb(0,0,0)" />
	<circle cx="439.023020760265" cy="-300.232517441391" r="2" style="fill: rgb(0,0,0)" />
	<circle cx="273.647078926685" cy="-225.885104093333" r="2" style="fill: rgb(0,0,0)" />
	<circle cx="307.229691565111" cy="-210.933161619093" r="2" style="fill: rgb(0,0,0)" />
	<circle cx="116.278093322774" cy="-344.100837941372" r="2" style="fill: rgb(0,0,0)" />
	<circle cx="82.695480684345" cy="-329.148895467133" r="2" style="fill: rgb(0,0,0)" />
	<circle cx="107.293221026529" cy="-301.830337206584" r="2" style="fill: rgb(0,0,0)" />
	<circle cx="165.473574007142" cy="-289.463721420275" r="2" style="fill: rgb(0,0,0)" />
	<circle cx="168.016334612705" cy="-195.347876014522" r="2" style="fill: rgb(0,0,0)" />
	<circle cx="186.39670767322" cy="-163.512136011623" r="2" style="fill: rgb(0,0,0)" />
	<circle cx="223.157453794259" cy="-163.51213601162" r="2" style="fill: rgb(0,0,0)" />
	<circle cx="252.897522132091" cy="-215.023445393311" r="2" style="fill: rgb(0,0,0)" />
	<circle cx="561.5" cy="-442.836230863523" r="2" style="fill: rgb(0,0,0)" />
	<circle cx="557.657455699409" cy="-479.395597770967" r="2" style="fill: rgb(0,0,0)" />
	<circle cx="373.42930796303" cy="-649.653618356901" r="2" style="fill: rgb(0,0,0)" />
	<circle cx="333.629328042981" cy="-693.85597414614" r="2" style="fill: rgb(0,0,0)" />
	<circle cx="297.671892423507" cy="-701.498963027917" r="2" style="fill: rgb(0,0,0)" />
	<circle cx="301.514436724081" cy="-664.939596120456" r="2" style="fill: rgb(0,0,0)" />
	<circle cx="481.608452129572" cy="-611.16239639495" r="2" style="fill: rgb(0,0,0)" />
	<circle cx="511.34852046749" cy="-662.673705776592" r="2" style="fill: rgb(0,0,0)" />
	<circle cx="492.968147407013" cy="-694.509445779486" r="2" style="fill: rgb(0,0,0)" />
	<circle cx="456.207401285957" cy="-694.509445779516" r="2" style="fill: rgb(0,0,0)" />
	<circle cx="133.862578413284" cy="-616.522682035736" r="2" style="fill: rgb(0,0,0)" />
	<circle cx="100.279965774858" cy="-601.570739561493" r="2" style="fill: rgb(0,0,0)" />
	<circle cx="70.5398974370472" cy="-550.059430179795" r="2" style="fill: rgb(0,0,0)" />
	<circle cx="74.3824417376622" cy="-513.50006327234" r="2" style="fill: rgb(0,0,0)" />
	<circle cx="51.8803730605173" cy="-530.734708987624" r="2" style="fill: rgb(0,0,0)" />
	<circle cx="33.5" cy="-498.898968984725" r="2" style="fill: rgb(0,0,0)" />
	<circle cx="39.7173672816651" cy="-439.744670721285" r="2" style="fill: rgb(0,0,0)" />
	<circle cx="64.3151076238473" cy="-412.426112460744" r="2" style="fill: rgb(0,0,0)" />
	<circle cx="216.361520420092" cy="-675.778224532471" r="2" style="fill: rgb(0,0,0)" />
	<circle cx="180.404084800606" cy="-683.421213414209" r="2" style="fill: rgb(0,0,0)" />
	<circle cx="126.066276120605" cy="-659.228462293047" r="2" style="fill: rgb(0,0,0)" />
	<circle cx="107.685903060091" cy="-627.392722290147" r="2" style="fill: rgb(0,0,0)" />
	<circle cx="309.815018253039" cy="-122.392958810256" r="2" style="fill: rgb(0,0,0)" />
	<circle cx="357.935459651373" cy="-87.4314116679841" r="2" style="fill: rgb(0,0,0)" />
	<circle cx="361.16251102409" cy="-85.3357400028925" r="2" style="fill: rgb(0,0,0)" />
	<circle cx="379.542884084604" cy="-53.5" r="2" style="fill: rgb(0,0,0)" />
	<circle cx="439.023020760251" cy="-53.5000000000092" r="2" style="fill: rgb(0,0,0)" />
	<circle cx="457.403393820775" cy="-85.3357400029073" r="2" style="fill: rgb(0,0,0)" />
	<circle cx="460.630445193478" cy="-87.4314116679549" r="2" style="fill: rgb(0,0,0)" />
	<circle cx="508.750886591809" cy="-122.392958810253" r="2" style="fill: rgb(0,0,0)" />
	<!--
	Generated using the Perl SVG Module V2.86
	by Ronan Oger
	Info: http://www.roitsystems.com/
	-->
</svg>