<?xml version="1.0" encoding="UTF-8" standalone="yes"?>
<!DOCTYPE svg PUBLIC "-//W3C//DTD SVG 1.0//EN" "http://www.w3.org/TR/2001/REC-SVG-20010904/DTD/svg10.dtd">
<!-- generated using polymake; Michael Joswig, Georg Loho, Benjamin Lorenz, Rico Raber; license CC BY-NC-ND 3.0; see polymake.org and matchthenet.de -->
<svg height="841pt" id="document" viewBox="0 -811 534.411401813433 811" width="595pt" xmlns="http://www.w3.org/2000/svg" xmlns:svg="http://www.w3.org/2000/svg" xmlns:xlink="http://www.w3.org/1999/xlink">
	<title id="document_title">planar_net_</title>
	<polygon points="288.938706474066,-385.801572536259 435.676905320086,-385.801572536259 435.676905320087,-392.789105814641 365.801572536267,-462.66443859846 288.938706474065,-462.66443859846 " style="fill: rgb(14,173,105); fill-opacity: 1; stroke: rgb(0,0,0); stroke-width: 3" />
	<polygon points="435.676905320086,-308.938706474058 435.676905320086,-385.801572536259 288.938706474066,-385.801572536259 219.063373690247,-315.926239752439 219.063373690247,-239.063373690238 365.801572536267,-239.063373690238 " style="fill: rgb(14,173,105); fill-opacity: 1; stroke: rgb(0,0,0); stroke-width: 3" />
	<polygon points="435.676905320087,-392.789105814641 435.676905320086,-385.801572536259 512.539771382293,-385.801572536253 512.539771382293,-392.789105814635 " style="fill: rgb(14,173,105); fill-opacity: 1; stroke: rgb(0,0,0); stroke-width: 3" />
	<polygon points="180.23819884603,-539.527304660666 110.362866062203,-609.40263744449 33.5,-609.402637444487 33.5000000000132,-462.664438598451 103.375332783841,-392.789105814626 180.238198846034,-392.789105814639 " style="fill: rgb(14,173,105); fill-opacity: 1; stroke: rgb(0,0,0); stroke-width: 3" />
	<polygon points="219.063373690247,-315.926239752439 209.181509360425,-308.938706474057 209.181509360427,-232.075840411857 219.063373690247,-239.063373690238 " style="fill: rgb(14,173,105); fill-opacity: 1; stroke: rgb(0,0,0); stroke-width: 3" />
	<polygon points="219.063373690247,-670.183589524709 219.063373690246,-747.046455586911 212.075840411864,-747.046455586911 212.075840411865,-670.183589524709 " style="fill: rgb(14,173,105); fill-opacity: 1; stroke: rgb(0,0,0); stroke-width: 3" />
	<polygon points="288.938706474066,-385.801572536259 288.938706474065,-462.66443859846 180.23819884603,-539.527304660666 180.238198846034,-392.789105814639 190.120063175855,-385.801572536257 " style="fill: rgb(14,173,105); fill-opacity: 1; stroke: rgb(0,0,0); stroke-width: 3" />
	<polygon points="377.173202967408,-767.51246672161 447.048535751226,-697.637133937793 523.911401813433,-697.637133937806 523.911401813432,-774.5 377.173202967403,-774.499999999981 " style="fill: rgb(14,173,105); fill-opacity: 1; stroke: rgb(0,0,0); stroke-width: 3" />
	<polygon points="365.801572536267,-239.063373690238 219.063373690247,-239.063373690238 212.075840411865,-229.181509360414 212.075840411864,-130.362866062203 288.938706474066,-130.362866062207 " style="fill: rgb(14,173,105); fill-opacity: 1; stroke: rgb(0,0,0); stroke-width: 3" />
	<polygon points="288.938706474065,-462.66443859846 365.801572536267,-462.66443859846 219.063373690247,-670.183589524709 212.075840411865,-670.183589524709 212.075840411864,-571.364946226495 " style="fill: rgb(14,173,105); fill-opacity: 1; stroke: rgb(0,0,0); stroke-width: 3" />
	<polygon points="365.801572536267,-462.66443859846 435.676905320087,-392.789105814641 490.027159134108,-447.139359628657 447.048535751226,-697.637133937793 377.173202967408,-767.51246672161 322.822949153384,-713.162212907595 " style="fill: rgb(14,173,105); fill-opacity: 1; stroke: rgb(0,0,0); stroke-width: 3" />
	<polygon points="440.617837484995,-303.997774309149 435.676905320086,-308.938706474058 365.801572536267,-239.063373690238 343.288960288084,-107.850253814017 397.639214102101,-53.5 " style="fill: rgb(14,173,105); fill-opacity: 1; stroke: rgb(0,0,0); stroke-width: 3" />
	<circle cx="288.938706474066" cy="-385.801572536259" r="2" style="fill: rgb(0,0,0)" />
	<circle cx="435.676905320086" cy="-385.801572536259" r="2" style="fill: rgb(0,0,0)" />
	<circle cx="435.676905320087" cy="-392.789105814641" r="2" style="fill: rgb(0,0,0)" />
	<circle cx="365.801572536267" cy="-462.66443859846" r="2" style="fill: rgb(0,0,0)" />
	<circle cx="288.938706474065" cy="-462.66443859846" r="2" style="fill: rgb(0,0,0)" />
	<circle cx="219.063373690247" cy="-315.926239752439" r="2" style="fill: rgb(0,0,0)" />
	<circle cx="219.063373690247" cy="-239.063373690238" r="2" style="fill: rgb(0,0,0)" />
	<circle cx="365.801572536267" cy="-239.063373690238" r="2" style="fill: rgb(0,0,0)" />
	<circle cx="435.676905320086" cy="-308.938706474058" r="2" style="fill: rgb(0,0,0)" />
	<circle cx="512.539771382293" cy="-385.801572536253" r="2" style="fill: rgb(0,0,0)" />
	<circle cx="512.539771382293" cy="-392.789105814635" r="2" style="fill: rgb(0,0,0)" />
	<circle cx="180.23819884603" cy="-539.527304660666" r="2" style="fill: rgb(0,0,0)" />
	<circle cx="180.238198846034" cy="-392.789105814639" r="2" style="fill: rgb(0,0,0)" />
	<circle cx="190.120063175855" cy="-385.801572536257" r="2" style="fill: rgb(0,0,0)" />
	<circle cx="219.063373690247" cy="-670.183589524709" r="2" style="fill: rgb(0,0,0)" />
	<circle cx="212.075840411865" cy="-670.183589524709" r="2" style="fill: rgb(0,0,0)" />
	<circle cx="212.075840411864" cy="-571.364946226495" r="2" style="fill: rgb(0,0,0)" />
	<circle cx="490.027159134108" cy="-447.139359628657" r="2" style="fill: rgb(0,0,0)" />
	<circle cx="447.048535751226" cy="-697.637133937793" r="2" style="fill: rgb(0,0,0)" />
	<circle cx="377.173202967408" cy="-767.51246672161" r="2" style="fill: rgb(0,0,0)" />
	<circle cx="322.822949153384" cy="-713.162212907595" r="2" style="fill: rgb(0,0,0)" />
	<circle cx="209.181509360425" cy="-308.938706474057" r="2" style="fill: rgb(0,0,0)" />
	<circle cx="209.181509360427" cy="-232.075840411857" r="2" style="fill: rgb(0,0,0)" />
	<circle cx="212.075840411865" cy="-229.181509360414" r="2" style="fill: rgb(0,0,0)" />
	<circle cx="212.075840411864" cy="-130.362866062203" r="2" style="fill: rgb(0,0,0)" />
	<circle cx="288.938706474066" cy="-130.362866062207" r="2" style="fill: rgb(0,0,0)" />
	<circle cx="343.288960288084" cy="-107.850253814017" r="2" style="fill: rgb(0,0,0)" />
	<circle cx="397.639214102101" cy="-53.5" r="2" style="fill: rgb(0,0,0)" />
	<circle cx="440.617837484995" cy="-303.997774309149" r="2" style="fill: rgb(0,0,0)" />
	<circle cx="110.362866062203" cy="-609.40263744449" r="2" style="fill: rgb(0,0,0)" />
	<circle cx="33.5" cy="-609.402637444487" r="2" style="fill: rgb(0,0,0)" />
	<circle cx="33.5000000000132" cy="-462.664438598451" r="2" style="fill: rgb(0,0,0)" />
	<circle cx="103.375332783841" cy="-392.789105814626" r="2" style="fill: rgb(0,0,0)" />
	<circle cx="219.063373690246" cy="-747.046455586911" r="2" style="fill: rgb(0,0,0)" />
	<circle cx="212.075840411864" cy="-747.046455586911" r="2" style="fill: rgb(0,0,0)" />
	<circle cx="523.911401813433" cy="-697.637133937806" r="2" style="fill: rgb(0,0,0)" />
	<circle cx="523.911401813432" cy="-774.5" r="2" style="fill: rgb(0,0,0)" />
	<circle cx="377.173202967403" cy="-774.499999999981" r="2" style="fill: rgb(0,0,0)" />
	<!--
	Generated using the Perl SVG Module V2.86
	by Ronan Oger
	Info: http://www.roitsystems.com/
	-->
</svg>