<?xml version="1.0" encoding="UTF-8" standalone="yes"?>
<!DOCTYPE svg PUBLIC "-//W3C//DTD SVG 1.0//EN" "http://www.w3.org/TR/2001/REC-SVG-20010904/DTD/svg10.dtd">
<!-- generated using polymake; Michael Joswig, Georg Loho, Benjamin Lorenz, Rico Raber; license CC BY-NC-ND 3.0; see polymake.org and matchthenet.de -->
<svg height="841pt" id="document" viewBox="0 -377.607647801945 572 377.607647801945" width="595pt" xmlns="http://www.w3.org/2000/svg" xmlns:svg="http://www.w3.org/2000/svg" xmlns:xlink="http://www.w3.org/1999/xlink">
	<title id="document_title">planar_net_</title>
	<polygon points="33.5,-144.178326650854 297.902005415302,-144.178326650854 295.770646059133,-163.23942651911 " style="fill: rgb(73,117,66); fill-opacity: 1; stroke: rgb(0,0,0); stroke-width: 3" />
	<polygon points="33.5,-144.178326650854 292.240568160439,-178.643998391355 288.686454317731,-190.269918257949 " style="fill: rgb(73,117,66); fill-opacity: 1; stroke: rgb(0,0,0); stroke-width: 3" />
	<polygon points="297.097994598945,-123.574499067285 297.902005415302,-144.178326650854 33.5,-144.178326650854 " style="fill: rgb(73,117,66); fill-opacity: 1; stroke: rgb(0,0,0); stroke-width: 3" />
	<polygon points="292.240568160439,-178.643998391355 526.02441423223,-294.746011503561 288.686454317731,-190.269918257949 " style="fill: rgb(73,117,66); fill-opacity: 1; stroke: rgb(0,0,0); stroke-width: 3" />
	<polygon points="33.5,-144.178326650854 283.200654449426,-205.390655123456 281.243559554331,-210.359684762126 " style="fill: rgb(73,117,66); fill-opacity: 1; stroke: rgb(0,0,0); stroke-width: 3" />
	<polygon points="33.5,-144.178326650854 285.651975783041,-198.906164721692 283.200654449426,-205.390655123456 " style="fill: rgb(73,117,66); fill-opacity: 1; stroke: rgb(0,0,0); stroke-width: 3" />
	<polygon points="33.5,-144.178326650854 288.686454317731,-190.269918257949 285.651975783041,-198.906164721692 " style="fill: rgb(73,117,66); fill-opacity: 1; stroke: rgb(0,0,0); stroke-width: 3" />
	<polygon points="33.5,-144.178326650854 281.243559554331,-210.359684762126 279.672421380158,-214.252825718906 " style="fill: rgb(73,117,66); fill-opacity: 1; stroke: rgb(0,0,0); stroke-width: 3" />
	<polygon points="33.5,-144.178326650854 295.770646059133,-163.23942651911 292.240568160439,-178.643998391355 " style="fill: rgb(73,117,66); fill-opacity: 1; stroke: rgb(0,0,0); stroke-width: 3" />
	<polygon points="295.770646059133,-163.23942651911 540.170359082714,-260.285794709555 292.240568160439,-178.643998391355 " style="fill: rgb(73,117,66); fill-opacity: 1; stroke: rgb(0,0,0); stroke-width: 3" />
	<polygon points="283.62377737485,-211.08733170975 526.02441423223,-294.746011503561 282.749478276091,-215.193500575936 " style="fill: rgb(73,117,66); fill-opacity: 1; stroke: rgb(0,0,0); stroke-width: 3" />
	<polygon points="33.5,-144.178326650854 279.672421380158,-214.252825718906 501.976606166724,-341.107647801945 " style="fill: rgb(73,117,66); fill-opacity: 1; stroke: rgb(0,0,0); stroke-width: 3" />
	<polygon points="288.686454317731,-190.269918257949 526.02441423223,-294.746011503561 286.373222588835,-199.126654221519 " style="fill: rgb(73,117,66); fill-opacity: 1; stroke: rgb(0,0,0); stroke-width: 3" />
	<polygon points="286.373222588835,-199.126654221519 526.02441423223,-294.746011503561 284.779683223828,-205.873373746103 " style="fill: rgb(73,117,66); fill-opacity: 1; stroke: rgb(0,0,0); stroke-width: 3" />
	<polygon points="284.779683223828,-205.873373746103 526.02441423223,-294.746011503561 283.62377737485,-211.08733170975 " style="fill: rgb(73,117,66); fill-opacity: 1; stroke: rgb(0,0,0); stroke-width: 3" />
	<polygon points="295.770646059133,-163.23942651911 297.902005415302,-144.178326650854 555.773971019279,-202.577554520238 " style="fill: rgb(73,117,66); fill-opacity: 1; stroke: rgb(0,0,0); stroke-width: 3" />
	<polygon points="33.5,-144.178326650854 501.976606166724,-341.107647801945 255.804184802433,-271.033148739165 " style="fill: rgb(73,117,66); fill-opacity: 1; stroke: rgb(0,0,0); stroke-width: 3" />
	<polygon points="561.5,-123.574499066529 297.902005415302,-144.178326650854 297.097994598945,-123.574499067285 " style="fill: rgb(73,117,66); fill-opacity: 1; stroke: rgb(0,0,0); stroke-width: 3" />
	<polygon points="561.5,-123.574499066529 313.756440462838,-57.3931409564112 315.327578637001,-53.5 " style="fill: rgb(73,117,66); fill-opacity: 1; stroke: rgb(0,0,0); stroke-width: 3" />
	<polygon points="33.5,-144.178326650854 273.46320907195,-55.1336482045296 275.332947072528,-58.8925179120244 " style="fill: rgb(73,117,66); fill-opacity: 1; stroke: rgb(0,0,0); stroke-width: 3" />
	<polygon points="277.671308003419,-63.6939285518693 33.5,-144.178326650854 275.332947072528,-58.8925179120244 " style="fill: rgb(73,117,66); fill-opacity: 1; stroke: rgb(0,0,0); stroke-width: 3" />
	<polygon points="561.5,-123.574499066529 311.799345567488,-62.3621705947035 313.756440462838,-57.3931409564112 " style="fill: rgb(73,117,66); fill-opacity: 1; stroke: rgb(0,0,0); stroke-width: 3" />
	<polygon points="561.5,-123.574499066529 297.097994598945,-123.574499067285 299.229353955655,-104.51339919888 " style="fill: rgb(73,117,66); fill-opacity: 1; stroke: rgb(0,0,0); stroke-width: 3" />
	<polygon points="297.097994598945,-123.574499067285 33.5,-144.178326650854 293.487758489771,-104.737450037869 " style="fill: rgb(73,117,66); fill-opacity: 1; stroke: rgb(0,0,0); stroke-width: 3" />
	<polygon points="288.76799626334,-89.6548067326451 33.5,-144.178326650854 284.318726946651,-78.3411980906797 " style="fill: rgb(73,117,66); fill-opacity: 1; stroke: rgb(0,0,0); stroke-width: 3" />
	<polygon points="561.5,-123.574499066529 302.75943185508,-89.1088273265134 306.313545698485,-77.482907459926 " style="fill: rgb(73,117,66); fill-opacity: 1; stroke: rgb(0,0,0); stroke-width: 3" />
	<polygon points="561.5,-123.574499066529 299.229353955655,-104.51339919888 302.75943185508,-89.1088273265134 " style="fill: rgb(73,117,66); fill-opacity: 1; stroke: rgb(0,0,0); stroke-width: 3" />
	<polygon points="293.487758489771,-104.737450037869 33.5,-144.178326650854 288.76799626334,-89.6548067326451 " style="fill: rgb(73,117,66); fill-opacity: 1; stroke: rgb(0,0,0); stroke-width: 3" />
	<polygon points="561.5,-123.574499066529 306.313545698485,-77.482907459926 309.348024233558,-68.8466609962682 " style="fill: rgb(73,117,66); fill-opacity: 1; stroke: rgb(0,0,0); stroke-width: 3" />
	<polygon points="284.318726946651,-78.3411980906797 33.5,-144.178326650854 280.620486503971,-69.9676784848759 " style="fill: rgb(73,117,66); fill-opacity: 1; stroke: rgb(0,0,0); stroke-width: 3" />
	<polygon points="280.620486503971,-69.9676784848759 33.5,-144.178326650854 277.671308003419,-63.6939285518693 " style="fill: rgb(73,117,66); fill-opacity: 1; stroke: rgb(0,0,0); stroke-width: 3" />
	<polygon points="561.5,-123.574499066529 309.348024233558,-68.8466609962682 311.799345567488,-62.3621705947035 " style="fill: rgb(73,117,66); fill-opacity: 1; stroke: rgb(0,0,0); stroke-width: 3" />
	<circle cx="33.5" cy="-144.178326650854" r="2" style="fill: rgb(0,0,0)" />
	<circle cx="297.902005415302" cy="-144.178326650854" r="2" style="fill: rgb(0,0,0)" />
	<circle cx="295.770646059133" cy="-163.23942651911" r="2" style="fill: rgb(0,0,0)" />
	<circle cx="297.097994598945" cy="-123.574499067285" r="2" style="fill: rgb(0,0,0)" />
	<circle cx="292.240568160439" cy="-178.643998391355" r="2" style="fill: rgb(0,0,0)" />
	<circle cx="555.773971019279" cy="-202.577554520238" r="2" style="fill: rgb(0,0,0)" />
	<circle cx="561.5" cy="-123.574499066529" r="2" style="fill: rgb(0,0,0)" />
	<circle cx="293.487758489771" cy="-104.737450037869" r="2" style="fill: rgb(0,0,0)" />
	<circle cx="288.686454317731" cy="-190.269918257949" r="2" style="fill: rgb(0,0,0)" />
	<circle cx="540.170359082714" cy="-260.285794709555" r="2" style="fill: rgb(0,0,0)" />
	<circle cx="299.229353955655" cy="-104.51339919888" r="2" style="fill: rgb(0,0,0)" />
	<circle cx="288.76799626334" cy="-89.6548067326451" r="2" style="fill: rgb(0,0,0)" />
	<circle cx="526.02441423223" cy="-294.746011503561" r="2" style="fill: rgb(0,0,0)" />
	<circle cx="285.651975783041" cy="-198.906164721692" r="2" style="fill: rgb(0,0,0)" />
	<circle cx="302.75943185508" cy="-89.1088273265134" r="2" style="fill: rgb(0,0,0)" />
	<circle cx="284.318726946651" cy="-78.3411980906797" r="2" style="fill: rgb(0,0,0)" />
	<circle cx="286.373222588835" cy="-199.126654221519" r="2" style="fill: rgb(0,0,0)" />
	<circle cx="283.200654449426" cy="-205.390655123456" r="2" style="fill: rgb(0,0,0)" />
	<circle cx="306.313545698485" cy="-77.482907459926" r="2" style="fill: rgb(0,0,0)" />
	<circle cx="280.620486503971" cy="-69.9676784848759" r="2" style="fill: rgb(0,0,0)" />
	<circle cx="284.779683223828" cy="-205.873373746103" r="2" style="fill: rgb(0,0,0)" />
	<circle cx="281.243559554331" cy="-210.359684762126" r="2" style="fill: rgb(0,0,0)" />
	<circle cx="309.348024233558" cy="-68.8466609962682" r="2" style="fill: rgb(0,0,0)" />
	<circle cx="277.671308003419" cy="-63.6939285518693" r="2" style="fill: rgb(0,0,0)" />
	<circle cx="283.62377737485" cy="-211.08733170975" r="2" style="fill: rgb(0,0,0)" />
	<circle cx="279.672421380158" cy="-214.252825718906" r="2" style="fill: rgb(0,0,0)" />
	<circle cx="311.799345567488" cy="-62.3621705947035" r="2" style="fill: rgb(0,0,0)" />
	<circle cx="275.332947072528" cy="-58.8925179120244" r="2" style="fill: rgb(0,0,0)" />
	<circle cx="282.749478276091" cy="-215.193500575936" r="2" style="fill: rgb(0,0,0)" />
	<circle cx="501.976606166724" cy="-341.107647801945" r="2" style="fill: rgb(0,0,0)" />
	<circle cx="313.756440462838" cy="-57.3931409564112" r="2" style="fill: rgb(0,0,0)" />
	<circle cx="273.46320907195" cy="-55.1336482045296" r="2" style="fill: rgb(0,0,0)" />
	<circle cx="255.804184802433" cy="-271.033148739165" r="2" style="fill: rgb(0,0,0)" />
	<circle cx="315.327578637001" cy="-53.5" r="2" style="fill: rgb(0,0,0)" />
	<!--
	Generated using the Perl SVG Module V2.86
	by Ronan Oger
	Info: http://www.roitsystems.com/
	-->
</svg>