<?xml version="1.0" encoding="UTF-8" standalone="yes"?>
<!DOCTYPE svg PUBLIC "-//W3C//DTD SVG 1.0//EN" "http://www.w3.org/TR/2001/REC-SVG-20010904/DTD/svg10.dtd">
<!-- generated using polymake; Michael Joswig, Georg Loho, Benjamin Lorenz, Rico Raber; license CC BY-NC-ND 3.0; see polymake.org and matchthenet.de -->
<svg height="841pt" id="document" viewBox="0 -811 559.905337396968 811" width="595pt" xmlns="http://www.w3.org/2000/svg" xmlns:svg="http://www.w3.org/2000/svg" xmlns:xlink="http://www.w3.org/1999/xlink">
	<title id="document_title">planar_net_</title>
	<polygon points="252.598670301454,-424.094017071351 370.128387314415,-424.094017071351 265.657489681408,-540.896070111255 " style="fill: rgb(14,173,105); fill-opacity: 1; stroke: rgb(0,0,0); stroke-width: 3" />
	<polygon points="252.598670301454,-424.094017071351 265.657567067826,-307.292064101431 370.128387314415,-424.094017071351 " style="fill: rgb(14,173,105); fill-opacity: 1; stroke: rgb(0,0,0); stroke-width: 3" />
	<polygon points="252.598667935999,-657.698015467122 370.128371393735,-657.697871420307 265.657747485226,-774.5 " style="fill: rgb(14,173,105); fill-opacity: 1; stroke: rgb(0,0,0); stroke-width: 3" />
	<polygon points="383.187272761455,-307.292017585546 370.128387314415,-424.094017071351 265.657567067826,-307.292064101431 " style="fill: rgb(14,173,105); fill-opacity: 1; stroke: rgb(0,0,0); stroke-width: 3" />
	<polygon points="383.187272761455,-307.292017585546 265.657567067826,-307.292064101431 370.128252968865,-190.490087622136 " style="fill: rgb(14,173,105); fill-opacity: 1; stroke: rgb(0,0,0); stroke-width: 3" />
	<polygon points="383.187226729637,-540.896078105546 370.128387314415,-424.094017071351 497.814898777159,-514.940035016283 " style="fill: rgb(14,173,105); fill-opacity: 1; stroke: rgb(0,0,0); stroke-width: 3" />
	<polygon points="497.814923512102,-333.248033892054 370.128387314415,-424.094017071351 383.187272761455,-307.292017585546 " style="fill: rgb(14,173,105); fill-opacity: 1; stroke: rgb(0,0,0); stroke-width: 3" />
	<polygon points="497.814915730206,-281.335966919897 383.187272761455,-307.292017585546 370.128252968865,-190.490087622136 " style="fill: rgb(14,173,105); fill-opacity: 1; stroke: rgb(0,0,0); stroke-width: 3" />
	<polygon points="497.814915730206,-281.335966919897 370.128252968865,-190.490087622136 484.756046093293,-164.533943814552 " style="fill: rgb(14,173,105); fill-opacity: 1; stroke: rgb(0,0,0); stroke-width: 3" />
	<polygon points="421.718910488988,-651.92986562492 497.814898777159,-514.940035016283 536.346680673317,-625.974031889333 " style="fill: rgb(14,173,105); fill-opacity: 1; stroke: rgb(0,0,0); stroke-width: 3" />
	<polygon points="383.187226729637,-540.896078105546 497.814898777159,-514.940035016283 421.718910488988,-651.92986562492 " style="fill: rgb(14,173,105); fill-opacity: 1; stroke: rgb(0,0,0); stroke-width: 3" />
	<polygon points="484.756046093293,-164.533943814552 370.128252968865,-190.490087622136 446.224270866418,-53.5 " style="fill: rgb(14,173,105); fill-opacity: 1; stroke: rgb(0,0,0); stroke-width: 3" />
	<polygon points="421.718910488988,-651.92986562492 536.346680673317,-625.974031889333 549.405337396968,-742.776026160501 " style="fill: rgb(14,173,105); fill-opacity: 1; stroke: rgb(0,0,0); stroke-width: 3" />
	<polygon points="252.598515920814,-190.490292679212 265.6571594952,-73.6882097495593 370.128252968865,-190.490087622136 " style="fill: rgb(14,173,105); fill-opacity: 1; stroke: rgb(0,0,0); stroke-width: 3" />
	<polygon points="265.657567067826,-307.292064101431 252.598515920814,-190.490292679212 370.128252968865,-190.490087622136 " style="fill: rgb(14,173,105); fill-opacity: 1; stroke: rgb(0,0,0); stroke-width: 3" />
	<polygon points="265.657489681408,-540.896070111255 370.128387314415,-424.094017071351 383.187226729637,-540.896078105546 " style="fill: rgb(14,173,105); fill-opacity: 1; stroke: rgb(0,0,0); stroke-width: 3" />
	<polygon points="265.657489681408,-540.896070111255 383.187226729637,-540.896078105546 370.128371393735,-657.697871420307 " style="fill: rgb(14,173,105); fill-opacity: 1; stroke: rgb(0,0,0); stroke-width: 3" />
	<polygon points="265.657489681408,-540.896070111255 370.128371393735,-657.697871420307 252.598667935999,-657.698015467122 " style="fill: rgb(14,173,105); fill-opacity: 1; stroke: rgb(0,0,0); stroke-width: 3" />
	<polygon points="137.97093255308,-398.137738131815 33.5002446194194,-281.335685287521 151.030048280772,-281.335859429898 " style="fill: rgb(14,173,105); fill-opacity: 1; stroke: rgb(0,0,0); stroke-width: 3" />
	<polygon points="137.970888980531,-450.050103585678 151.029754316294,-566.851985680127 33.5,-566.851976608303 " style="fill: rgb(14,173,105); fill-opacity: 1; stroke: rgb(0,0,0); stroke-width: 3" />
	<polygon points="137.970888980531,-450.050103585678 265.657489681408,-540.896070111255 151.029754316294,-566.851985680127 " style="fill: rgb(14,173,105); fill-opacity: 1; stroke: rgb(0,0,0); stroke-width: 3" />
	<polygon points="265.657567067826,-307.292064101431 137.97093255308,-398.137738131815 151.030048280772,-281.335859429898 " style="fill: rgb(14,173,105); fill-opacity: 1; stroke: rgb(0,0,0); stroke-width: 3" />
	<polygon points="252.598670301454,-424.094017071351 137.97093255308,-398.137738131815 265.657567067826,-307.292064101431 " style="fill: rgb(14,173,105); fill-opacity: 1; stroke: rgb(0,0,0); stroke-width: 3" />
	<polygon points="252.598670301454,-424.094017071351 265.657489681408,-540.896070111255 137.970888980531,-450.050103585678 " style="fill: rgb(14,173,105); fill-opacity: 1; stroke: rgb(0,0,0); stroke-width: 3" />
	<circle cx="252.598670301454" cy="-424.094017071351" r="2" style="fill: rgb(0,0,0)" />
	<circle cx="370.128387314415" cy="-424.094017071351" r="2" style="fill: rgb(0,0,0)" />
	<circle cx="265.657489681408" cy="-540.896070111255" r="2" style="fill: rgb(0,0,0)" />
	<circle cx="265.657567067826" cy="-307.292064101431" r="2" style="fill: rgb(0,0,0)" />
	<circle cx="383.187226729637" cy="-540.896078105546" r="2" style="fill: rgb(0,0,0)" />
	<circle cx="137.970888980531" cy="-450.050103585678" r="2" style="fill: rgb(0,0,0)" />
	<circle cx="383.187272761455" cy="-307.292017585546" r="2" style="fill: rgb(0,0,0)" />
	<circle cx="137.97093255308" cy="-398.137738131815" r="2" style="fill: rgb(0,0,0)" />
	<circle cx="497.814898777159" cy="-514.940035016283" r="2" style="fill: rgb(0,0,0)" />
	<circle cx="370.128371393735" cy="-657.697871420307" r="2" style="fill: rgb(0,0,0)" />
	<circle cx="151.029754316294" cy="-566.851985680127" r="2" style="fill: rgb(0,0,0)" />
	<circle cx="370.128252968865" cy="-190.490087622136" r="2" style="fill: rgb(0,0,0)" />
	<circle cx="497.814923512102" cy="-333.248033892054" r="2" style="fill: rgb(0,0,0)" />
	<circle cx="151.030048280772" cy="-281.335859429898" r="2" style="fill: rgb(0,0,0)" />
	<circle cx="421.718910488988" cy="-651.92986562492" r="2" style="fill: rgb(0,0,0)" />
	<circle cx="252.598667935999" cy="-657.698015467122" r="2" style="fill: rgb(0,0,0)" />
	<circle cx="33.5" cy="-566.851976608303" r="2" style="fill: rgb(0,0,0)" />
	<circle cx="497.814915730206" cy="-281.335966919897" r="2" style="fill: rgb(0,0,0)" />
	<circle cx="252.598515920814" cy="-190.490292679212" r="2" style="fill: rgb(0,0,0)" />
	<circle cx="33.5002446194194" cy="-281.335685287521" r="2" style="fill: rgb(0,0,0)" />
	<circle cx="536.346680673317" cy="-625.974031889333" r="2" style="fill: rgb(0,0,0)" />
	<circle cx="265.657747485226" cy="-774.5" r="2" style="fill: rgb(0,0,0)" />
	<circle cx="484.756046093293" cy="-164.533943814552" r="2" style="fill: rgb(0,0,0)" />
	<circle cx="265.6571594952" cy="-73.6882097495593" r="2" style="fill: rgb(0,0,0)" />
	<circle cx="549.405337396968" cy="-742.776026160501" r="2" style="fill: rgb(0,0,0)" />
	<circle cx="446.224270866418" cy="-53.5" r="2" style="fill: rgb(0,0,0)" />
	<!--
	Generated using the Perl SVG Module V2.87
	by Ronan Oger

	-->
</svg>