<?xml version="1.0" encoding="UTF-8" standalone="yes"?>
<!DOCTYPE svg PUBLIC "-//W3C//DTD SVG 1.0//EN" "http://www.w3.org/TR/2001/REC-SVG-20010904/DTD/svg10.dtd">
<!-- generated using polymake; Michael Joswig, Georg Loho, Benjamin Lorenz, Rico Raber; license CC BY-NC-ND 3.0; see polymake.org and matchthenet.de -->
<svg height="841pt" id="document" viewBox="0 -714.005350354415 572 714.005350354415" width="595pt" xmlns="http://www.w3.org/2000/svg" xmlns:svg="http://www.w3.org/2000/svg" xmlns:xlink="http://www.w3.org/1999/xlink">
	<title id="document_title">planar_net_</title>
	<polygon points="247.836226833288,-381.98225495929 293.182854293997,-381.98225495929 229.284883044214,-487.707320524338 " style="fill: rgb(14,173,105); fill-opacity: 1; stroke: rgb(0,0,0); stroke-width: 3" />
	<polygon points="168.378603472175,-374.255294264665 118.866587374745,-459.562684594032 112.525172128676,-395.930392780338 " style="fill: rgb(14,173,105); fill-opacity: 1; stroke: rgb(0,0,0); stroke-width: 3" />
	<polygon points="247.836226833288,-381.98225495929 209.063927941797,-423.289241863571 168.378603472175,-374.255294264665 " style="fill: rgb(14,173,105); fill-opacity: 1; stroke: rgb(0,0,0); stroke-width: 3" />
	<polygon points="118.866587374745,-459.562684594032 65.3063579446333,-453.986083564383 79.5448483486775,-437.283485977496 " style="fill: rgb(14,173,105); fill-opacity: 1; stroke: rgb(0,0,0); stroke-width: 3" />
	<polygon points="112.525172128676,-395.930392780338 118.866587374745,-459.562684594032 79.5448483486775,-437.283485977496 " style="fill: rgb(14,173,105); fill-opacity: 1; stroke: rgb(0,0,0); stroke-width: 3" />
	<polygon points="79.5448483486775,-437.283485977496 65.3063579446333,-453.986083564383 33.5,-387.352415936307 " style="fill: rgb(14,173,105); fill-opacity: 1; stroke: rgb(0,0,0); stroke-width: 3" />
	<polygon points="138.555422678818,-490.22109958821 206.292855265217,-493.804527368894 183.101713671969,-538.02125994156 " style="fill: rgb(14,173,105); fill-opacity: 1; stroke: rgb(0,0,0); stroke-width: 3" />
	<polygon points="138.555422678818,-490.22109958821 183.101713671969,-538.02125994156 93.7165061790653,-520.041700232377 " style="fill: rgb(14,173,105); fill-opacity: 1; stroke: rgb(0,0,0); stroke-width: 3" />
	<polygon points="206.292855265217,-493.804527368894 241.747796948974,-542.831000563874 192.68791173306,-541.844656420417 " style="fill: rgb(14,173,105); fill-opacity: 1; stroke: rgb(0,0,0); stroke-width: 3" />
	<polygon points="168.378603472175,-374.255294264665 209.063927941797,-423.289241863571 118.866587374745,-459.562684594032 " style="fill: rgb(14,173,105); fill-opacity: 1; stroke: rgb(0,0,0); stroke-width: 3" />
	<polygon points="193.450007569782,-240.023071326512 201.032952116679,-271.291920507048 154.392524055565,-263.869822408207 " style="fill: rgb(14,173,105); fill-opacity: 1; stroke: rgb(0,0,0); stroke-width: 3" />
	<polygon points="212.28504928251,-158.516582379987 172.880561285544,-94.9475673941185 226.532728221037,-136.597114787062 " style="fill: rgb(14,173,105); fill-opacity: 1; stroke: rgb(0,0,0); stroke-width: 3" />
	<polygon points="176.558320818575,-346.028396391251 121.107528027639,-323.343042804313 154.392524055565,-263.869822408207 " style="fill: rgb(14,173,105); fill-opacity: 1; stroke: rgb(0,0,0); stroke-width: 3" />
	<polygon points="209.063927941797,-423.289241863571 206.292855265217,-493.804527368894 138.555422678818,-490.22109958821 " style="fill: rgb(14,173,105); fill-opacity: 1; stroke: rgb(0,0,0); stroke-width: 3" />
	<polygon points="201.032952116679,-271.291920507048 176.558320818575,-346.028396391251 154.392524055565,-263.869822408207 " style="fill: rgb(14,173,105); fill-opacity: 1; stroke: rgb(0,0,0); stroke-width: 3" />
	<polygon points="254.939392388529,-98.9981500813504 226.532728221037,-136.597114787062 200.410177486221,-67.5369785985357 " style="fill: rgb(14,173,105); fill-opacity: 1; stroke: rgb(0,0,0); stroke-width: 3" />
	<polygon points="192.68791173306,-541.844656420417 241.747796948974,-542.831000563874 233.553038501953,-672.265912158473 " style="fill: rgb(14,173,105); fill-opacity: 1; stroke: rgb(0,0,0); stroke-width: 3" />
	<polygon points="394.563102813858,-516.191180748509 373.680709195416,-423.21064762717 404.452162955268,-460.267533743278 " style="fill: rgb(14,173,105); fill-opacity: 1; stroke: rgb(0,0,0); stroke-width: 3" />
	<polygon points="229.284883044214,-487.707320524338 241.747796948974,-542.831000563874 206.292855265217,-493.804527368894 " style="fill: rgb(14,173,105); fill-opacity: 1; stroke: rgb(0,0,0); stroke-width: 3" />
	<polygon points="199.596615428152,-239.148819941082 240.287372286132,-288.302886323281 201.032952116679,-271.291920507048 " style="fill: rgb(14,173,105); fill-opacity: 1; stroke: rgb(0,0,0); stroke-width: 3" />
	<polygon points="240.287372286132,-288.302886323281 293.182854293997,-381.98225495929 247.836226833288,-381.98225495929 " style="fill: rgb(14,173,105); fill-opacity: 1; stroke: rgb(0,0,0); stroke-width: 3" />
	<polygon points="240.287372286132,-288.302886323281 176.558320818575,-346.028396391251 201.032952116679,-271.291920507048 " style="fill: rgb(14,173,105); fill-opacity: 1; stroke: rgb(0,0,0); stroke-width: 3" />
	<polygon points="209.063927941797,-423.289241863571 229.284883044214,-487.707320524338 206.292855265217,-493.804527368894 " style="fill: rgb(14,173,105); fill-opacity: 1; stroke: rgb(0,0,0); stroke-width: 3" />
	<polygon points="247.836226833288,-381.98225495929 229.284883044214,-487.707320524338 209.063927941797,-423.289241863571 " style="fill: rgb(14,173,105); fill-opacity: 1; stroke: rgb(0,0,0); stroke-width: 3" />
	<polygon points="247.836226833288,-381.98225495929 176.558320818575,-346.028396391251 240.287372286132,-288.302886323281 " style="fill: rgb(14,173,105); fill-opacity: 1; stroke: rgb(0,0,0); stroke-width: 3" />
	<polygon points="112.525172128676,-395.930392780338 79.5448483486775,-437.283485977496 62.3993011870906,-364.484011026745 " style="fill: rgb(14,173,105); fill-opacity: 1; stroke: rgb(0,0,0); stroke-width: 3" />
	<polygon points="226.532728221037,-136.597114787062 240.755996694077,-224.493480067263 212.28504928251,-158.516582379987 " style="fill: rgb(14,173,105); fill-opacity: 1; stroke: rgb(0,0,0); stroke-width: 3" />
	<polygon points="193.450007569782,-240.023071326512 154.392524055565,-263.869822408207 123.820976103888,-257.780994968435 " style="fill: rgb(14,173,105); fill-opacity: 1; stroke: rgb(0,0,0); stroke-width: 3" />
	<polygon points="154.392524055565,-263.869822408207 121.107528027639,-323.343042804313 123.222357272807,-264.207559714134 " style="fill: rgb(14,173,105); fill-opacity: 1; stroke: rgb(0,0,0); stroke-width: 3" />
	<polygon points="93.7165061790653,-520.041700232377 183.101713671969,-538.02125994156 84.4737442391685,-633.143348282741 " style="fill: rgb(14,173,105); fill-opacity: 1; stroke: rgb(0,0,0); stroke-width: 3" />
	<polygon points="93.7165061790653,-520.041700232377 84.4737442391685,-633.143348282741 41.765388903636,-555.599006130991 " style="fill: rgb(14,173,105); fill-opacity: 1; stroke: rgb(0,0,0); stroke-width: 3" />
	<polygon points="324.221095413123,-158.783354663009 226.532728221037,-136.597114787062 254.939392388529,-98.9981500813504 " style="fill: rgb(14,173,105); fill-opacity: 1; stroke: rgb(0,0,0); stroke-width: 3" />
	<polygon points="324.221095413123,-158.783354663009 240.755996694077,-224.493480067263 226.532728221037,-136.597114787062 " style="fill: rgb(14,173,105); fill-opacity: 1; stroke: rgb(0,0,0); stroke-width: 3" />
	<polygon points="330.880467929956,-53.5 324.221095413123,-158.783354663009 254.939392388529,-98.9981500813504 " style="fill: rgb(14,173,105); fill-opacity: 1; stroke: rgb(0,0,0); stroke-width: 3" />
	<polygon points="394.142363131688,-282.557307503136 240.287372286132,-288.302886323281 240.755996694077,-224.493480067263 " style="fill: rgb(14,173,105); fill-opacity: 1; stroke: rgb(0,0,0); stroke-width: 3" />
	<polygon points="394.142363131688,-282.557307503136 240.755996694077,-224.493480067263 324.221095413123,-158.783354663009 " style="fill: rgb(14,173,105); fill-opacity: 1; stroke: rgb(0,0,0); stroke-width: 3" />
	<polygon points="394.142363131688,-282.557307503136 293.182854293997,-381.98225495929 240.287372286132,-288.302886323281 " style="fill: rgb(14,173,105); fill-opacity: 1; stroke: rgb(0,0,0); stroke-width: 3" />
	<polygon points="389.978598434945,-191.245311697707 394.142363131688,-282.557307503136 324.221095413123,-158.783354663009 " style="fill: rgb(14,173,105); fill-opacity: 1; stroke: rgb(0,0,0); stroke-width: 3" />
	<polygon points="373.680709195416,-423.21064762717 421.139640988187,-430.361141623313 421.152953958197,-431.364245133745 " style="fill: rgb(14,173,105); fill-opacity: 1; stroke: rgb(0,0,0); stroke-width: 3" />
	<polygon points="192.68791173306,-541.844656420417 233.553038501953,-672.265912158473 173.404131860545,-677.505350354415 " style="fill: rgb(14,173,105); fill-opacity: 1; stroke: rgb(0,0,0); stroke-width: 3" />
	<polygon points="389.978598434945,-191.245311697707 324.221095413123,-158.783354663009 399.031397716569,-84.4035813326095 " style="fill: rgb(14,173,105); fill-opacity: 1; stroke: rgb(0,0,0); stroke-width: 3" />
	<polygon points="440.481442171208,-397.327177958978 434.527835850446,-371.995323988624 524.202167525776,-354.282849485983 " style="fill: rgb(14,173,105); fill-opacity: 1; stroke: rgb(0,0,0); stroke-width: 3" />
	<polygon points="262.525364728344,-533.413060880505 373.680709195416,-423.21064762717 394.563102813858,-516.191180748509 " style="fill: rgb(14,173,105); fill-opacity: 1; stroke: rgb(0,0,0); stroke-width: 3" />
	<polygon points="373.680709195416,-423.21064762717 293.182854293997,-381.98225495929 434.527835850446,-371.995323988624 " style="fill: rgb(14,173,105); fill-opacity: 1; stroke: rgb(0,0,0); stroke-width: 3" />
	<polygon points="229.284883044214,-487.707320524338 373.680709195416,-423.21064762717 262.525364728344,-533.413060880505 " style="fill: rgb(14,173,105); fill-opacity: 1; stroke: rgb(0,0,0); stroke-width: 3" />
	<polygon points="229.284883044214,-487.707320524338 293.182854293997,-381.98225495929 373.680709195416,-423.21064762717 " style="fill: rgb(14,173,105); fill-opacity: 1; stroke: rgb(0,0,0); stroke-width: 3" />
	<polygon points="389.978598434945,-191.245311697707 399.031397716569,-84.4035813326095 455.749833541081,-105.100482559283 " style="fill: rgb(14,173,105); fill-opacity: 1; stroke: rgb(0,0,0); stroke-width: 3" />
	<polygon points="478.870695244109,-464.261873716285 524.202167525776,-354.282849485983 561.5,-456.045606167384 " style="fill: rgb(14,173,105); fill-opacity: 1; stroke: rgb(0,0,0); stroke-width: 3" />
	<polygon points="440.481442171208,-397.327177958978 524.202167525776,-354.282849485983 478.870695244109,-464.261873716285 " style="fill: rgb(14,173,105); fill-opacity: 1; stroke: rgb(0,0,0); stroke-width: 3" />
	<polygon points="373.680709195416,-423.21064762717 434.527835850446,-371.995323988624 440.481442171208,-397.327177958978 " style="fill: rgb(14,173,105); fill-opacity: 1; stroke: rgb(0,0,0); stroke-width: 3" />
	<polygon points="421.139640988187,-430.361141623313 440.481442171208,-397.327177958978 421.235693469702,-431.359724523527 " style="fill: rgb(14,173,105); fill-opacity: 1; stroke: rgb(0,0,0); stroke-width: 3" />
	<polygon points="373.680709195416,-423.21064762717 440.481442171208,-397.327177958978 421.139640988187,-430.361141623313 " style="fill: rgb(14,173,105); fill-opacity: 1; stroke: rgb(0,0,0); stroke-width: 3" />
	<polygon points="394.563102813858,-516.191180748509 404.452162955268,-460.267533743278 443.359625610597,-456.417544331051 " style="fill: rgb(14,173,105); fill-opacity: 1; stroke: rgb(0,0,0); stroke-width: 3" />
	<polygon points="372.505975254811,-567.565616732876 394.563102813858,-516.191180748509 386.832094134679,-598.867299196823 " style="fill: rgb(14,173,105); fill-opacity: 1; stroke: rgb(0,0,0); stroke-width: 3" />
	<polygon points="262.525364728344,-533.413060880505 372.505975254811,-567.565616732876 372.606171854103,-601.989779291691 " style="fill: rgb(14,173,105); fill-opacity: 1; stroke: rgb(0,0,0); stroke-width: 3" />
	<polygon points="262.525364728344,-533.413060880505 394.563102813858,-516.191180748509 372.505975254811,-567.565616732876 " style="fill: rgb(14,173,105); fill-opacity: 1; stroke: rgb(0,0,0); stroke-width: 3" />
	<circle cx="247.836226833288" cy="-381.98225495929" r="2" style="fill: rgb(0,0,0)" />
	<circle cx="293.182854293997" cy="-381.98225495929" r="2" style="fill: rgb(0,0,0)" />
	<circle cx="229.284883044214" cy="-487.707320524338" r="2" style="fill: rgb(0,0,0)" />
	<circle cx="240.287372286132" cy="-288.302886323281" r="2" style="fill: rgb(0,0,0)" />
	<circle cx="209.063927941797" cy="-423.289241863571" r="2" style="fill: rgb(0,0,0)" />
	<circle cx="373.680709195416" cy="-423.21064762717" r="2" style="fill: rgb(0,0,0)" />
	<circle cx="176.558320818575" cy="-346.028396391251" r="2" style="fill: rgb(0,0,0)" />
	<circle cx="394.142363131688" cy="-282.557307503136" r="2" style="fill: rgb(0,0,0)" />
	<circle cx="168.378603472175" cy="-374.255294264665" r="2" style="fill: rgb(0,0,0)" />
	<circle cx="206.292855265217" cy="-493.804527368894" r="2" style="fill: rgb(0,0,0)" />
	<circle cx="434.527835850446" cy="-371.995323988624" r="2" style="fill: rgb(0,0,0)" />
	<circle cx="262.525364728344" cy="-533.413060880505" r="2" style="fill: rgb(0,0,0)" />
	<circle cx="201.032952116679" cy="-271.291920507048" r="2" style="fill: rgb(0,0,0)" />
	<circle cx="240.755996694077" cy="-224.493480067263" r="2" style="fill: rgb(0,0,0)" />
	<circle cx="118.866587374745" cy="-459.562684594032" r="2" style="fill: rgb(0,0,0)" />
	<circle cx="138.555422678818" cy="-490.22109958821" r="2" style="fill: rgb(0,0,0)" />
	<circle cx="241.747796948974" cy="-542.831000563874" r="2" style="fill: rgb(0,0,0)" />
	<circle cx="440.481442171208" cy="-397.327177958978" r="2" style="fill: rgb(0,0,0)" />
	<circle cx="394.563102813858" cy="-516.191180748509" r="2" style="fill: rgb(0,0,0)" />
	<circle cx="154.392524055565" cy="-263.869822408207" r="2" style="fill: rgb(0,0,0)" />
	<circle cx="199.596615428152" cy="-239.148819941082" r="2" style="fill: rgb(0,0,0)" />
	<circle cx="324.221095413123" cy="-158.783354663009" r="2" style="fill: rgb(0,0,0)" />
	<circle cx="112.525172128676" cy="-395.930392780338" r="2" style="fill: rgb(0,0,0)" />
	<circle cx="183.101713671969" cy="-538.02125994156" r="2" style="fill: rgb(0,0,0)" />
	<circle cx="192.68791173306" cy="-541.844656420417" r="2" style="fill: rgb(0,0,0)" />
	<circle cx="524.202167525776" cy="-354.282849485983" r="2" style="fill: rgb(0,0,0)" />
	<circle cx="421.139640988187" cy="-430.361141623313" r="2" style="fill: rgb(0,0,0)" />
	<circle cx="404.452162955268" cy="-460.267533743278" r="2" style="fill: rgb(0,0,0)" />
	<circle cx="372.505975254811" cy="-567.565616732876" r="2" style="fill: rgb(0,0,0)" />
	<circle cx="193.450007569782" cy="-240.023071326512" r="2" style="fill: rgb(0,0,0)" />
	<circle cx="121.107528027639" cy="-323.343042804313" r="2" style="fill: rgb(0,0,0)" />
	<circle cx="226.532728221037" cy="-136.597114787062" r="2" style="fill: rgb(0,0,0)" />
	<circle cx="389.978598434945" cy="-191.245311697707" r="2" style="fill: rgb(0,0,0)" />
	<circle cx="79.5448483486775" cy="-437.283485977496" r="2" style="fill: rgb(0,0,0)" />
	<circle cx="93.7165061790653" cy="-520.041700232377" r="2" style="fill: rgb(0,0,0)" />
	<circle cx="233.553038501953" cy="-672.265912158473" r="2" style="fill: rgb(0,0,0)" />
	<circle cx="478.870695244109" cy="-464.261873716285" r="2" style="fill: rgb(0,0,0)" />
	<circle cx="421.152953958197" cy="-431.364245133745" r="2" style="fill: rgb(0,0,0)" />
	<circle cx="421.235693469702" cy="-431.359724523527" r="2" style="fill: rgb(0,0,0)" />
	<circle cx="443.359625610597" cy="-456.417544331051" r="2" style="fill: rgb(0,0,0)" />
	<circle cx="386.832094134679" cy="-598.867299196823" r="2" style="fill: rgb(0,0,0)" />
	<circle cx="372.606171854103" cy="-601.989779291691" r="2" style="fill: rgb(0,0,0)" />
	<circle cx="123.820976103888" cy="-257.780994968435" r="2" style="fill: rgb(0,0,0)" />
	<circle cx="123.222357272807" cy="-264.207559714134" r="2" style="fill: rgb(0,0,0)" />
	<circle cx="212.28504928251" cy="-158.516582379987" r="2" style="fill: rgb(0,0,0)" />
	<circle cx="254.939392388529" cy="-98.9981500813504" r="2" style="fill: rgb(0,0,0)" />
	<circle cx="399.031397716569" cy="-84.4035813326095" r="2" style="fill: rgb(0,0,0)" />
	<circle cx="65.3063579446333" cy="-453.986083564383" r="2" style="fill: rgb(0,0,0)" />
	<circle cx="62.3993011870906" cy="-364.484011026745" r="2" style="fill: rgb(0,0,0)" />
	<circle cx="84.4737442391685" cy="-633.143348282741" r="2" style="fill: rgb(0,0,0)" />
	<circle cx="173.404131860545" cy="-677.505350354415" r="2" style="fill: rgb(0,0,0)" />
	<circle cx="561.5" cy="-456.045606167384" r="2" style="fill: rgb(0,0,0)" />
	<circle cx="172.880561285544" cy="-94.9475673941185" r="2" style="fill: rgb(0,0,0)" />
	<circle cx="200.410177486221" cy="-67.5369785985357" r="2" style="fill: rgb(0,0,0)" />
	<circle cx="330.880467929956" cy="-53.5" r="2" style="fill: rgb(0,0,0)" />
	<circle cx="455.749833541081" cy="-105.100482559283" r="2" style="fill: rgb(0,0,0)" />
	<circle cx="33.5" cy="-387.352415936307" r="2" style="fill: rgb(0,0,0)" />
	<circle cx="41.765388903636" cy="-555.599006130991" r="2" style="fill: rgb(0,0,0)" />
	<!--
	Generated using the Perl SVG Module V2.87
	by Ronan Oger

	-->
</svg>