<?xml version="1.0" encoding="UTF-8" standalone="yes"?>
<!DOCTYPE svg PUBLIC "-//W3C//DTD SVG 1.0//EN" "http://www.w3.org/TR/2001/REC-SVG-20010904/DTD/svg10.dtd">
<!-- generated using polymake; Michael Joswig, Georg Loho, Benjamin Lorenz, Rico Raber; license CC BY-NC-ND 3.0; see polymake.org and matchthenet.de -->
<svg height="841pt" id="document" viewBox="0 -522.057138268451 572 522.057138268451" width="595pt" xmlns="http://www.w3.org/2000/svg" xmlns:svg="http://www.w3.org/2000/svg" xmlns:xlink="http://www.w3.org/1999/xlink">
	<title id="document_title">planar_net_</title>
	<polygon points="299.050230387867,-333.581281031051 561.5,-333.581281031051 301.685810130487,-348.484905255637 " style="fill: rgb(14,173,105); fill-opacity: 1; stroke: rgb(0,0,0); stroke-width: 3" />
	<polygon points="299.050230387867,-333.581281031051 297.534697159816,-314.060313359087 561.5,-333.581281031051 " style="fill: rgb(14,173,105); fill-opacity: 1; stroke: rgb(0,0,0); stroke-width: 3" />
	<polygon points="297.534697159816,-314.060313359087 299.177171261359,-291.277481271632 561.5,-333.581281031051 " style="fill: rgb(14,173,105); fill-opacity: 1; stroke: rgb(0,0,0); stroke-width: 3" />
	<polygon points="306.400507940819,-367.458827655843 561.5,-333.581281031051 308.126038950741,-373.499307774629 " style="fill: rgb(14,173,105); fill-opacity: 1; stroke: rgb(0,0,0); stroke-width: 3" />
	<polygon points="299.177171261359,-291.277481271632 304.779912639945,-269.133319337468 561.5,-333.581281031051 " style="fill: rgb(14,173,105); fill-opacity: 1; stroke: rgb(0,0,0); stroke-width: 3" />
	<polygon points="304.779912639945,-269.133319337468 312.355159706446,-251.078411675156 561.5,-333.581281031051 " style="fill: rgb(14,173,105); fill-opacity: 1; stroke: rgb(0,0,0); stroke-width: 3" />
	<polygon points="319.542171747363,-237.758855812208 325.41379826467,-228.188913005949 561.5,-333.581281031051 " style="fill: rgb(14,173,105); fill-opacity: 1; stroke: rgb(0,0,0); stroke-width: 3" />
	<polygon points="333.519350606737,-216.037056478708 561.5,-333.581281031051 329.982427392065,-221.228907204055 " style="fill: rgb(14,173,105); fill-opacity: 1; stroke: rgb(0,0,0); stroke-width: 3" />
	<polygon points="329.226319249021,-440.99078951564 561.5,-333.581281031051 330.751150901727,-445.593735085259 " style="fill: rgb(14,173,105); fill-opacity: 1; stroke: rgb(0,0,0); stroke-width: 3" />
	<polygon points="329.982427392065,-221.228907204055 561.5,-333.581281031051 325.41379826467,-228.188913005949 " style="fill: rgb(14,173,105); fill-opacity: 1; stroke: rgb(0,0,0); stroke-width: 3" />
	<polygon points="312.355159706446,-251.078411675156 319.542171747363,-237.758855812208 561.5,-333.581281031051 " style="fill: rgb(14,173,105); fill-opacity: 1; stroke: rgb(0,0,0); stroke-width: 3" />
	<polygon points="308.126038950741,-373.499307774629 561.5,-333.581281031051 309.504651471675,-378.148108676482 " style="fill: rgb(14,173,105); fill-opacity: 1; stroke: rgb(0,0,0); stroke-width: 3" />
	<polygon points="304.251405566074,-359.415489010018 561.5,-333.581281031051 306.400507940819,-367.458827655843 " style="fill: rgb(14,173,105); fill-opacity: 1; stroke: rgb(0,0,0); stroke-width: 3" />
	<polygon points="301.685810130487,-348.484905255637 561.5,-333.581281031051 304.251405566074,-359.415489010018 " style="fill: rgb(14,173,105); fill-opacity: 1; stroke: rgb(0,0,0); stroke-width: 3" />
	<polygon points="77.232117615143,-485.557138268451 330.604945613942,-445.639618274796 332.330499766373,-451.680115162287 " style="fill: rgb(14,173,105); fill-opacity: 1; stroke: rgb(0,0,0); stroke-width: 3" />
	<polygon points="325.41379826467,-228.188913005949 134.816213720634,-53.5 329.982427392065,-221.228907204055 " style="fill: rgb(14,173,105); fill-opacity: 1; stroke: rgb(0,0,0); stroke-width: 3" />
	<polygon points="319.542171747363,-237.758855812208 124.505883096427,-65.4631769222835 325.41379826467,-228.188913005949 " style="fill: rgb(14,173,105); fill-opacity: 1; stroke: rgb(0,0,0); stroke-width: 3" />
	<polygon points="312.355159706446,-251.078411675156 106.616986230364,-88.1332556382369 319.542171747363,-237.758855812208 " style="fill: rgb(14,173,105); fill-opacity: 1; stroke: rgb(0,0,0); stroke-width: 3" />
	<polygon points="304.779912639945,-269.133319337468 78.9305428697817,-131.110632018171 312.355159706446,-251.078411675156 " style="fill: rgb(14,173,105); fill-opacity: 1; stroke: rgb(0,0,0); stroke-width: 3" />
	<polygon points="77.232117615143,-485.557138268451 561.5,-333.581281031051 329.226319249021,-440.99078951564 " style="fill: rgb(14,173,105); fill-opacity: 1; stroke: rgb(0,0,0); stroke-width: 3" />
	<polygon points="299.177171261359,-291.277481271632 48.3011253822421,-203.735829116221 304.779912639945,-269.133319337468 " style="fill: rgb(14,173,105); fill-opacity: 1; stroke: rgb(0,0,0); stroke-width: 3" />
	<polygon points="309.504651471675,-378.148108676482 561.5,-333.581281031051 77.232117615143,-485.557138268451 " style="fill: rgb(14,173,105); fill-opacity: 1; stroke: rgb(0,0,0); stroke-width: 3" />
	<polygon points="308.126038950741,-373.499307774629 309.504651471675,-378.148108676482 73.9542262783031,-478.164241441367 " style="fill: rgb(14,173,105); fill-opacity: 1; stroke: rgb(0,0,0); stroke-width: 3" />
	<polygon points="306.400507940819,-367.458827655843 308.126038950741,-373.499307774629 71.8999068425353,-473.441294441669 " style="fill: rgb(14,173,105); fill-opacity: 1; stroke: rgb(0,0,0); stroke-width: 3" />
	<polygon points="304.251405566074,-359.415489010018 306.400507940819,-367.458827655843 68.4015503365654,-465.332784154771 " style="fill: rgb(14,173,105); fill-opacity: 1; stroke: rgb(0,0,0); stroke-width: 3" />
	<polygon points="297.534697159816,-314.060313359087 33.5,-295.516812421998 299.177171261359,-291.277481271632 " style="fill: rgb(14,173,105); fill-opacity: 1; stroke: rgb(0,0,0); stroke-width: 3" />
	<polygon points="301.685810130487,-348.484905255637 304.251405566074,-359.415489010018 62.3746469780744,-450.735044842944 " style="fill: rgb(14,173,105); fill-opacity: 1; stroke: rgb(0,0,0); stroke-width: 3" />
	<polygon points="77.232117615143,-485.557138268451 329.226319249021,-440.99078951564 330.604945613942,-445.639618274796 " style="fill: rgb(14,173,105); fill-opacity: 1; stroke: rgb(0,0,0); stroke-width: 3" />
	<polygon points="299.050230387867,-333.581281031051 39.7464887589562,-374.088826090574 297.534697159816,-314.060313359087 " style="fill: rgb(14,173,105); fill-opacity: 1; stroke: rgb(0,0,0); stroke-width: 3" />
	<polygon points="299.050230387867,-333.581281031051 301.685810130487,-348.484905255637 52.5191484881451,-423.59082100796 " style="fill: rgb(14,173,105); fill-opacity: 1; stroke: rgb(0,0,0); stroke-width: 3" />
	<circle cx="299.050230387867" cy="-333.581281031051" r="2" style="fill: rgb(0,0,0)" />
	<circle cx="561.5" cy="-333.581281031051" r="2" style="fill: rgb(0,0,0)" />
	<circle cx="301.685810130487" cy="-348.484905255637" r="2" style="fill: rgb(0,0,0)" />
	<circle cx="297.534697159816" cy="-314.060313359087" r="2" style="fill: rgb(0,0,0)" />
	<circle cx="304.251405566074" cy="-359.415489010018" r="2" style="fill: rgb(0,0,0)" />
	<circle cx="52.5191484881451" cy="-423.59082100796" r="2" style="fill: rgb(0,0,0)" />
	<circle cx="299.177171261359" cy="-291.277481271632" r="2" style="fill: rgb(0,0,0)" />
	<circle cx="39.7464887589562" cy="-374.088826090574" r="2" style="fill: rgb(0,0,0)" />
	<circle cx="306.400507940819" cy="-367.458827655843" r="2" style="fill: rgb(0,0,0)" />
	<circle cx="62.3746469780744" cy="-450.735044842944" r="2" style="fill: rgb(0,0,0)" />
	<circle cx="304.779912639945" cy="-269.133319337468" r="2" style="fill: rgb(0,0,0)" />
	<circle cx="33.5" cy="-295.516812421998" r="2" style="fill: rgb(0,0,0)" />
	<circle cx="308.126038950741" cy="-373.499307774629" r="2" style="fill: rgb(0,0,0)" />
	<circle cx="68.4015503365654" cy="-465.332784154771" r="2" style="fill: rgb(0,0,0)" />
	<circle cx="312.355159706446" cy="-251.078411675156" r="2" style="fill: rgb(0,0,0)" />
	<circle cx="48.3011253822421" cy="-203.735829116221" r="2" style="fill: rgb(0,0,0)" />
	<circle cx="309.504651471675" cy="-378.148108676482" r="2" style="fill: rgb(0,0,0)" />
	<circle cx="71.8999068425353" cy="-473.441294441669" r="2" style="fill: rgb(0,0,0)" />
	<circle cx="319.542171747363" cy="-237.758855812208" r="2" style="fill: rgb(0,0,0)" />
	<circle cx="78.9305428697817" cy="-131.110632018171" r="2" style="fill: rgb(0,0,0)" />
	<circle cx="77.232117615143" cy="-485.557138268451" r="2" style="fill: rgb(0,0,0)" />
	<circle cx="73.9542262783031" cy="-478.164241441367" r="2" style="fill: rgb(0,0,0)" />
	<circle cx="325.41379826467" cy="-228.188913005949" r="2" style="fill: rgb(0,0,0)" />
	<circle cx="106.616986230364" cy="-88.1332556382369" r="2" style="fill: rgb(0,0,0)" />
	<circle cx="329.226319249021" cy="-440.99078951564" r="2" style="fill: rgb(0,0,0)" />
	<circle cx="329.982427392065" cy="-221.228907204055" r="2" style="fill: rgb(0,0,0)" />
	<circle cx="124.505883096427" cy="-65.4631769222835" r="2" style="fill: rgb(0,0,0)" />
	<circle cx="330.751150901727" cy="-445.593735085259" r="2" style="fill: rgb(0,0,0)" />
	<circle cx="330.604945613942" cy="-445.639618274796" r="2" style="fill: rgb(0,0,0)" />
	<circle cx="333.519350606737" cy="-216.037056478708" r="2" style="fill: rgb(0,0,0)" />
	<circle cx="134.816213720634" cy="-53.5" r="2" style="fill: rgb(0,0,0)" />
	<circle cx="332.330499766373" cy="-451.680115162287" r="2" style="fill: rgb(0,0,0)" />
	<!--
	Generated using the Perl SVG Module V2.86
	by Ronan Oger
	Info: http://www.roitsystems.com/
	-->
</svg>