<?xml version="1.0" encoding="UTF-8" standalone="yes"?>
<!DOCTYPE svg PUBLIC "-//W3C//DTD SVG 1.0//EN" "http://www.w3.org/TR/2001/REC-SVG-20010904/DTD/svg10.dtd">
<!-- generated using polymake; Michael Joswig, Georg Loho, Benjamin Lorenz, Rico Raber; license CC BY-NC-ND 3.0; see polymake.org and matchthenet.de -->
<svg height="841pt" id="document" viewBox="0 -586.26415684487 572 586.26415684487" width="595pt" xmlns="http://www.w3.org/2000/svg" xmlns:svg="http://www.w3.org/2000/svg" xmlns:xlink="http://www.w3.org/1999/xlink">
	<title id="document_title">planar_net_</title>
	<polygon points="288.89888404306,-251.540245386201 311.023749559144,-251.540245386201 314.263861097556,-273.426573340509 276.494353142225,-317.199229249137 254.369487626145,-317.199229249141 251.12937608773,-295.31290129483 " style="fill: rgb(73,117,66); fill-opacity: 1; stroke: rgb(0,0,0); stroke-width: 3" />
	<polygon points="288.89888404306,-251.540245386201 288.898884043057,-229.415379870114 311.023749559132,-229.415379870106 311.023749559144,-251.540245386201 " style="fill: rgb(73,117,66); fill-opacity: 1; stroke: rgb(0,0,0); stroke-width: 3" />
	<polygon points="348.793257514445,-185.642723961459 311.023749559132,-229.415379870106 288.898884043057,-229.415379870114 285.658772504645,-207.529051915806 323.428280459959,-163.75639600716 345.553145976031,-163.756396007148 " style="fill: rgb(73,117,66); fill-opacity: 1; stroke: rgb(0,0,0); stroke-width: 3" />
	<polygon points="332.910077513452,-254.780356924612 311.023749559144,-251.540245386201 311.023749559132,-229.415379870106 354.796405467728,-191.645871914735 376.682733422036,-194.885983453145 376.682733422047,-217.010848969241 " style="fill: rgb(73,117,66); fill-opacity: 1; stroke: rgb(0,0,0); stroke-width: 3" />
	<polygon points="276.494353142225,-317.199229249137 314.263861097556,-273.426573340509 334.301150020402,-282.808296355351 346.516117723622,-301.255633239414 308.746609768292,-345.028289148041 288.709320845444,-335.646566133199 " style="fill: rgb(73,117,66); fill-opacity: 1; stroke: rgb(0,0,0); stroke-width: 3" />
	<polygon points="449.915517488465,-485.927335351144 472.040383004553,-485.927335351143 472.040383004556,-508.052200867231 449.915517488476,-508.05220086724 " style="fill: rgb(73,117,66); fill-opacity: 1; stroke: rgb(0,0,0); stroke-width: 3" />
	<polygon points="288.89888404306,-251.540245386201 251.12937608773,-295.31290129483 229.004510571645,-295.31290129484 225.764399033226,-273.426573340535 263.533906988557,-229.653917431904 285.658772504641,-229.653917431895 " style="fill: rgb(73,117,66); fill-opacity: 1; stroke: rgb(0,0,0); stroke-width: 3" />
	<polygon points="263.533906988557,-229.653917431904 225.764399033226,-273.426573340535 205.727110110379,-264.044850325694 193.512142407159,-245.597513441631 231.28165036249,-201.824857533001 251.318939285338,-211.206580547841 " style="fill: rgb(73,117,66); fill-opacity: 1; stroke: rgb(0,0,0); stroke-width: 3" />
	<polygon points="265.621483581795,-198.147328900972 253.406515878568,-179.699992016914 291.176023833881,-135.927336108271 311.213312756732,-145.309059123103 323.428280459959,-163.75639600716 285.658772504645,-207.529051915806 " style="fill: rgb(73,117,66); fill-opacity: 1; stroke: rgb(0,0,0); stroke-width: 3" />
	<polygon points="285.658772504641,-229.653917431895 263.533906988557,-229.653917431904 252.47147423051,-210.493221839658 274.596339746584,-210.493221839642 " style="fill: rgb(73,117,66); fill-opacity: 1; stroke: rgb(0,0,0); stroke-width: 3" />
	<polygon points="314.263861097556,-273.426573340509 311.023749559144,-251.540245386201 331.597921332341,-259.677390459992 334.838032870765,-281.56371841429 " style="fill: rgb(73,117,66); fill-opacity: 1; stroke: rgb(0,0,0); stroke-width: 3" />
	<polygon points="251.12937608773,-295.31290129483 254.369487626145,-317.199229249141 232.483159671836,-320.439340787558 229.243048133415,-298.553012833257 " style="fill: rgb(73,117,66); fill-opacity: 1; stroke: rgb(0,0,0); stroke-width: 3" />
	<polygon points="345.553145976031,-163.756396007148 323.428280459959,-163.75639600716 312.365847701914,-144.595700414913 334.490713217974,-144.595700414894 " style="fill: rgb(73,117,66); fill-opacity: 1; stroke: rgb(0,0,0); stroke-width: 3" />
	<polygon points="370.679585468761,-182.402612423032 348.793257514445,-185.642723961459 345.553145976031,-163.756396007148 367.439473930339,-160.516284468731 " style="fill: rgb(73,117,66); fill-opacity: 1; stroke: rgb(0,0,0); stroke-width: 3" />
	<polygon points="287.556785900271,-336.359924841384 306.441539877946,-347.887098879611 290.796897438795,-403.545218677513 268.67203192273,-403.545218677525 249.787277945052,-392.018044639297 265.431920384202,-336.359924841395 " style="fill: rgb(73,117,66); fill-opacity: 1; stroke: rgb(0,0,0); stroke-width: 3" />
	<polygon points="334.838032870765,-281.56371841429 331.597921332341,-259.677390459992 384.364862486617,-236.050476617846 398.533365360565,-253.043510496924 401.77347689899,-274.929838451222 349.006535744713,-298.556752293368 " style="fill: rgb(73,117,66); fill-opacity: 1; stroke: rgb(0,0,0); stroke-width: 3" />
	<polygon points="374.088363021459,-81.8628740090201 353.51419124826,-90.000019082808 336.180131013481,-76.2508362022848 356.754302786667,-68.1136911284943 " style="fill: rgb(73,117,66); fill-opacity: 1; stroke: rgb(0,0,0); stroke-width: 3" />
	<polygon points="229.243048133415,-298.553012833257 232.483159671836,-320.439340787558 194.713651716511,-364.211996696195 172.588786200427,-364.211996696212 169.348674662006,-342.32566874191 207.118182617332,-298.553012833273 " style="fill: rgb(73,117,66); fill-opacity: 1; stroke: rgb(0,0,0); stroke-width: 3" />
	<polygon points="225.764399033226,-273.426573340535 229.004510571645,-295.31290129484 208.430338798445,-287.175756221057 205.190227260015,-265.289428266761 " style="fill: rgb(73,117,66); fill-opacity: 1; stroke: rgb(0,0,0); stroke-width: 3" />
	<polygon points="385.150795779515,-101.023569601276 374.088363021459,-81.8628740090201 393.249058613701,-70.8004412509694 404.31149137176,-89.9611368432135 " style="fill: rgb(73,117,66); fill-opacity: 1; stroke: rgb(0,0,0); stroke-width: 3" />
	<polygon points="118.070487895855,-89.838816346132 101.497213007004,-75.1815235004684 105.904163517621,-53.5 122.477438406486,-68.1572928456575 " style="fill: rgb(73,117,66); fill-opacity: 1; stroke: rgb(0,0,0); stroke-width: 3" />
	<polygon points="208.430338798445,-287.175756221057 155.663397644176,-310.802670063219 141.494894770223,-293.809636184146 138.254783231792,-271.92330822985 191.021724386062,-248.296394387687 205.190227260015,-265.289428266761 " style="fill: rgb(73,117,66); fill-opacity: 1; stroke: rgb(0,0,0); stroke-width: 3" />
	<polygon points="254.369487626145,-317.199229249141 260.779844668697,-338.375088067425 229.827902845198,-387.207028780838 207.941574890893,-390.447140319258 201.531217848339,-369.271281500972 232.483159671836,-320.439340787558 " style="fill: rgb(73,117,66); fill-opacity: 1; stroke: rgb(0,0,0); stroke-width: 3" />
	<polygon points="254.369487626145,-317.199229249141 276.494353142225,-317.199229249137 287.556785900271,-336.359924841384 265.431920384202,-336.359924841395 " style="fill: rgb(73,117,66); fill-opacity: 1; stroke: rgb(0,0,0); stroke-width: 3" />
	<polygon points="376.682733422047,-217.010848969241 376.682733422036,-194.885983453145 395.84342901429,-205.948416211175 395.843429014313,-228.073281727263 " style="fill: rgb(73,117,66); fill-opacity: 1; stroke: rgb(0,0,0); stroke-width: 3" />
	<polygon points="366.127317749228,-155.619250933363 345.553145976031,-163.756396007148 334.490713217974,-144.595700414894 353.51419124826,-90.000019082808 374.088363021459,-81.8628740090201 385.150795779515,-101.023569601276 " style="fill: rgb(73,117,66); fill-opacity: 1; stroke: rgb(0,0,0); stroke-width: 3" />
	<polygon points="308.746609768292,-345.028289148041 346.516117723622,-301.255633239414 404.175134744453,-297.010766613173 447.947790653082,-334.780274568503 452.192657279326,-392.439291589331 414.423149323996,-436.211947497956 356.764132303165,-440.456814124197 312.991476394535,-402.687306168867 " style="fill: rgb(73,117,66); fill-opacity: 1; stroke: rgb(0,0,0); stroke-width: 3" />
	<polygon points="370.679585468761,-182.402612423032 367.439473930339,-160.516284468731 405.208981885665,-116.743628560094 427.333847401749,-116.743628560077 430.57395894017,-138.629956514379 392.804450984844,-182.402612423017 " style="fill: rgb(73,117,66); fill-opacity: 1; stroke: rgb(0,0,0); stroke-width: 3" />
	<polygon points="293.481093724239,-133.068526376686 309.12573616335,-77.4104065787409 331.250601679407,-77.4104065787206 350.135355657085,-88.9375806169481 334.490713217974,-144.595700414894 312.365847701914,-144.595700414913 " style="fill: rgb(73,117,66); fill-opacity: 1; stroke: rgb(0,0,0); stroke-width: 3" />
	<polygon points="312.991476394535,-402.687306168867 356.764132303165,-440.456814124197 347.382409288325,-460.494103047048 328.935072404264,-472.709070750269 285.162416495633,-434.939562794933 294.544139510472,-414.902273872083 " style="fill: rgb(73,117,66); fill-opacity: 1; stroke: rgb(0,0,0); stroke-width: 3" />
	<polygon points="404.175134744453,-297.010766613173 413.556857759295,-276.973477690326 432.004194643356,-264.758509987104 475.776850551978,-302.52801794243 466.395127537138,-322.565306865279 447.947790653082,-334.780274568503 " style="fill: rgb(73,117,66); fill-opacity: 1; stroke: rgb(0,0,0); stroke-width: 3" />
	<polygon points="231.28165036249,-201.824857533001 193.512142407159,-245.597513441631 135.853125386328,-249.842380067874 92.0804694776991,-212.072872112543 87.835602851457,-154.413855091711 125.605110806789,-110.641199183082 183.264127827621,-106.396332556839 227.036783736249,-144.16584051217 " style="fill: rgb(73,117,66); fill-opacity: 1; stroke: rgb(0,0,0); stroke-width: 3" />
	<polygon points="169.348674662006,-342.32566874191 172.588786200427,-364.211996696212 152.014614427226,-356.074851622431 148.774502888793,-334.188523668139 " style="fill: rgb(73,117,66); fill-opacity: 1; stroke: rgb(0,0,0); stroke-width: 3" />
	<polygon points="285.162416495633,-434.939562794933 328.935072404264,-472.709070750269 328.935072404272,-494.833936266361 307.048744449964,-498.074047804774 263.276088541332,-460.304539849424 263.276088541324,-438.179674333335 " style="fill: rgb(73,117,66); fill-opacity: 1; stroke: rgb(0,0,0); stroke-width: 3" />
	<polygon points="466.395127537138,-322.565306865279 475.776850551978,-302.52801794243 497.820513289557,-300.634183943124 488.438790274721,-320.671472865964 " style="fill: rgb(73,117,66); fill-opacity: 1; stroke: rgb(0,0,0); stroke-width: 3" />
	<polygon points="229.827902845198,-387.207028780838 243.57708572572,-404.541089015618 221.690757771428,-407.781200554044 207.941574890893,-390.447140319258 " style="fill: rgb(73,117,66); fill-opacity: 1; stroke: rgb(0,0,0); stroke-width: 3" />
	<polygon points="194.713651716511,-364.211996696195 194.713651716514,-386.336862212282 172.588786200439,-386.336862212307 172.588786200427,-364.211996696212 " style="fill: rgb(73,117,66); fill-opacity: 1; stroke: rgb(0,0,0); stroke-width: 3" />
	<polygon points="452.192657279326,-392.439291589331 447.947790653082,-334.780274568503 468.750173490032,-327.245651657573 490.431696990507,-331.652602168201 494.676563616744,-389.311619189021 473.874180779795,-396.846242099955 " style="fill: rgb(73,117,66); fill-opacity: 1; stroke: rgb(0,0,0); stroke-width: 3" />
	<polygon points="183.264127827621,-106.396332556839 125.605110806789,-110.641199183082 118.070487895855,-89.838816346132 122.477438406486,-68.1572928456575 180.136455427321,-63.9124262194205 187.671078338256,-84.7148090563689 " style="fill: rgb(73,117,66); fill-opacity: 1; stroke: rgb(0,0,0); stroke-width: 3" />
	<polygon points="125.605110806789,-110.641199183082 87.835602851457,-154.413855091711 67.7983139286064,-145.032132076868 55.5833462253862,-126.584795192807 93.3528541807249,-82.8121392841845 113.390143103575,-92.1938622990246 " style="fill: rgb(73,117,66); fill-opacity: 1; stroke: rgb(0,0,0); stroke-width: 3" />
	<polygon points="172.588786200427,-364.211996696212 167.552388837473,-385.756006901076 116.331250565175,-412.56973716326 95.757078791977,-404.432592089484 100.793476154929,-382.888581884616 152.014614427226,-356.074851622431 " style="fill: rgb(73,117,66); fill-opacity: 1; stroke: rgb(0,0,0); stroke-width: 3" />
	<polygon points="528.088281808371,-386.851842820891 523.843415182147,-329.192825800077 539.488057621416,-313.548183360814 557.255133373788,-326.733049431956 561.5,-384.392066452766 545.855357560734,-400.036708892029 " style="fill: rgb(73,117,66); fill-opacity: 1; stroke: rgb(0,0,0); stroke-width: 3" />
	<polygon points="126.471402371484,-269.879668990721 108.024065487423,-282.094636693943 64.2514095788037,-244.325128738614 73.633132593644,-224.287839815765 92.0804694776991,-212.072872112543 135.853125386328,-249.842380067874 " style="fill: rgb(73,117,66); fill-opacity: 1; stroke: rgb(0,0,0); stroke-width: 3" />
	<polygon points="414.423149323996,-436.211947497956 452.192657279326,-392.439291589331 472.229946202176,-401.821014604175 484.444913905397,-420.268351488236 446.675405950061,-464.041007396852 426.638117027211,-454.659284382011 " style="fill: rgb(73,117,66); fill-opacity: 1; stroke: rgb(0,0,0); stroke-width: 3" />
	<polygon points="494.676563616744,-389.311619189021 490.431696990507,-331.652602168201 506.076339429773,-316.007959728936 523.843415182147,-329.192825800077 528.088281808371,-386.851842820891 512.443639369108,-402.496485260157 " style="fill: rgb(73,117,66); fill-opacity: 1; stroke: rgb(0,0,0); stroke-width: 3" />
	<polygon points="359.891804703464,-482.940720461614 417.550821724297,-478.695853835381 433.195464163568,-494.340496274649 420.010598092417,-512.107572027023 362.351581071577,-516.352438653241 346.706938632307,-500.707796213976 " style="fill: rgb(73,117,66); fill-opacity: 1; stroke: rgb(0,0,0); stroke-width: 3" />
	<polygon points="328.935072404272,-494.833936266361 332.175183942688,-516.72026422067 310.28885598839,-519.96037575909 307.048744449964,-498.074047804774 " style="fill: rgb(73,117,66); fill-opacity: 1; stroke: rgb(0,0,0); stroke-width: 3" />
	<polygon points="87.835602851457,-154.413855091711 92.0804694776991,-212.072872112543 71.2780866407479,-219.607495023473 49.5965631402737,-215.200544512843 45.3516965140403,-157.541527492017 66.1540793509892,-150.006904581083 " style="fill: rgb(73,117,66); fill-opacity: 1; stroke: rgb(0,0,0); stroke-width: 3" />
	<polygon points="512.443639369108,-402.496485260157 528.088281808371,-386.851842820891 543.73292424764,-402.496485260153 528.088281808389,-418.141127699419 " style="fill: rgb(73,117,66); fill-opacity: 1; stroke: rgb(0,0,0); stroke-width: 3" />
	<polygon points="356.764132303165,-440.456814124197 414.423149323996,-436.211947497956 421.957772234928,-457.014330334907 417.550821724297,-478.695853835381 359.891804703464,-482.940720461614 352.35718179253,-462.138337624665 " style="fill: rgb(73,117,66); fill-opacity: 1; stroke: rgb(0,0,0); stroke-width: 3" />
	<polygon points="64.2514095788037,-244.325128738614 42.2077468412245,-246.21896273792 51.5894698560624,-226.181673815078 73.633132593644,-224.287839815765 " style="fill: rgb(73,117,66); fill-opacity: 1; stroke: rgb(0,0,0); stroke-width: 3" />
	<polygon points="473.874180779795,-396.846242099955 494.676563616744,-389.311619189021 511.602929884027,-403.559699729602 490.800547047084,-411.094322640533 " style="fill: rgb(73,117,66); fill-opacity: 1; stroke: rgb(0,0,0); stroke-width: 3" />
	<polygon points="347.382409288325,-460.494103047048 348.737213183695,-482.577449272429 330.289876299647,-494.792416975655 328.935072404264,-472.709070750269 " style="fill: rgb(73,117,66); fill-opacity: 1; stroke: rgb(0,0,0); stroke-width: 3" />
	<polygon points="362.351581071577,-516.352438653241 420.010598092417,-512.107572027023 435.655240531683,-527.752214466294 422.470374460524,-545.519290218665 364.811357439678,-549.76415684487 349.166715000414,-534.119514405602 " style="fill: rgb(73,117,66); fill-opacity: 1; stroke: rgb(0,0,0); stroke-width: 3" />
	<polygon points="472.040383004553,-485.927335351143 509.809890959901,-442.154679442539 531.934756475991,-442.154679442546 535.174868014399,-464.041007396849 497.405360059041,-507.813663305444 475.280494542954,-507.813663305439 " style="fill: rgb(73,117,66); fill-opacity: 1; stroke: rgb(0,0,0); stroke-width: 3" />
	<polygon points="446.675405950061,-464.041007396852 484.444913905397,-420.268351488236 506.569779421487,-420.268351488238 509.809890959901,-442.154679442539 472.040383004553,-485.927335351143 449.915517488465,-485.927335351144 " style="fill: rgb(73,117,66); fill-opacity: 1; stroke: rgb(0,0,0); stroke-width: 3" />
	<polygon points="426.638117027211,-454.659284382011 446.675405950061,-464.041007396852 448.569239949368,-486.084670134432 428.531951026521,-476.702947119594 " style="fill: rgb(73,117,66); fill-opacity: 1; stroke: rgb(0,0,0); stroke-width: 3" />
	<polygon points="67.7983139286064,-145.032132076868 45.7149677032256,-146.386935972237 33.5,-127.939599088191 55.5833462253862,-126.584795192807 " style="fill: rgb(73,117,66); fill-opacity: 1; stroke: rgb(0,0,0); stroke-width: 3" />
	<circle cx="288.89888404306" cy="-251.540245386201" r="2" style="fill: rgb(0,0,0)" />
	<circle cx="311.023749559144" cy="-251.540245386201" r="2" style="fill: rgb(0,0,0)" />
	<circle cx="314.263861097556" cy="-273.426573340509" r="2" style="fill: rgb(0,0,0)" />
	<circle cx="276.494353142225" cy="-317.199229249137" r="2" style="fill: rgb(0,0,0)" />
	<circle cx="254.369487626145" cy="-317.199229249141" r="2" style="fill: rgb(0,0,0)" />
	<circle cx="251.12937608773" cy="-295.31290129483" r="2" style="fill: rgb(0,0,0)" />
	<circle cx="288.898884043057" cy="-229.415379870114" r="2" style="fill: rgb(0,0,0)" />
	<circle cx="311.023749559132" cy="-229.415379870106" r="2" style="fill: rgb(0,0,0)" />
	<circle cx="334.301150020402" cy="-282.808296355351" r="2" style="fill: rgb(0,0,0)" />
	<circle cx="346.516117723622" cy="-301.255633239414" r="2" style="fill: rgb(0,0,0)" />
	<circle cx="308.746609768292" cy="-345.028289148041" r="2" style="fill: rgb(0,0,0)" />
	<circle cx="288.709320845444" cy="-335.646566133199" r="2" style="fill: rgb(0,0,0)" />
	<circle cx="229.004510571645" cy="-295.31290129484" r="2" style="fill: rgb(0,0,0)" />
	<circle cx="225.764399033226" cy="-273.426573340535" r="2" style="fill: rgb(0,0,0)" />
	<circle cx="263.533906988557" cy="-229.653917431904" r="2" style="fill: rgb(0,0,0)" />
	<circle cx="285.658772504641" cy="-229.653917431895" r="2" style="fill: rgb(0,0,0)" />
	<circle cx="331.597921332341" cy="-259.677390459992" r="2" style="fill: rgb(0,0,0)" />
	<circle cx="334.838032870765" cy="-281.56371841429" r="2" style="fill: rgb(0,0,0)" />
	<circle cx="232.483159671836" cy="-320.439340787558" r="2" style="fill: rgb(0,0,0)" />
	<circle cx="229.243048133415" cy="-298.553012833257" r="2" style="fill: rgb(0,0,0)" />
	<circle cx="287.556785900271" cy="-336.359924841384" r="2" style="fill: rgb(0,0,0)" />
	<circle cx="265.431920384202" cy="-336.359924841395" r="2" style="fill: rgb(0,0,0)" />
	<circle cx="285.658772504645" cy="-207.529051915806" r="2" style="fill: rgb(0,0,0)" />
	<circle cx="323.428280459959" cy="-163.75639600716" r="2" style="fill: rgb(0,0,0)" />
	<circle cx="345.553145976031" cy="-163.756396007148" r="2" style="fill: rgb(0,0,0)" />
	<circle cx="348.793257514445" cy="-185.642723961459" r="2" style="fill: rgb(0,0,0)" />
	<circle cx="354.796405467728" cy="-191.645871914735" r="2" style="fill: rgb(0,0,0)" />
	<circle cx="376.682733422036" cy="-194.885983453145" r="2" style="fill: rgb(0,0,0)" />
	<circle cx="376.682733422047" cy="-217.010848969241" r="2" style="fill: rgb(0,0,0)" />
	<circle cx="332.910077513452" cy="-254.780356924612" r="2" style="fill: rgb(0,0,0)" />
	<circle cx="404.175134744453" cy="-297.010766613173" r="2" style="fill: rgb(0,0,0)" />
	<circle cx="447.947790653082" cy="-334.780274568503" r="2" style="fill: rgb(0,0,0)" />
	<circle cx="452.192657279326" cy="-392.439291589331" r="2" style="fill: rgb(0,0,0)" />
	<circle cx="414.423149323996" cy="-436.211947497956" r="2" style="fill: rgb(0,0,0)" />
	<circle cx="356.764132303165" cy="-440.456814124197" r="2" style="fill: rgb(0,0,0)" />
	<circle cx="312.991476394535" cy="-402.687306168867" r="2" style="fill: rgb(0,0,0)" />
	<circle cx="205.727110110379" cy="-264.044850325694" r="2" style="fill: rgb(0,0,0)" />
	<circle cx="193.512142407159" cy="-245.597513441631" r="2" style="fill: rgb(0,0,0)" />
	<circle cx="231.28165036249" cy="-201.824857533001" r="2" style="fill: rgb(0,0,0)" />
	<circle cx="251.318939285338" cy="-211.206580547841" r="2" style="fill: rgb(0,0,0)" />
	<circle cx="252.47147423051" cy="-210.493221839658" r="2" style="fill: rgb(0,0,0)" />
	<circle cx="274.596339746584" cy="-210.493221839642" r="2" style="fill: rgb(0,0,0)" />
	<circle cx="208.430338798445" cy="-287.175756221057" r="2" style="fill: rgb(0,0,0)" />
	<circle cx="205.190227260015" cy="-265.289428266761" r="2" style="fill: rgb(0,0,0)" />
	<circle cx="384.364862486617" cy="-236.050476617846" r="2" style="fill: rgb(0,0,0)" />
	<circle cx="398.533365360565" cy="-253.043510496924" r="2" style="fill: rgb(0,0,0)" />
	<circle cx="401.77347689899" cy="-274.929838451222" r="2" style="fill: rgb(0,0,0)" />
	<circle cx="349.006535744713" cy="-298.556752293368" r="2" style="fill: rgb(0,0,0)" />
	<circle cx="194.713651716511" cy="-364.211996696195" r="2" style="fill: rgb(0,0,0)" />
	<circle cx="172.588786200427" cy="-364.211996696212" r="2" style="fill: rgb(0,0,0)" />
	<circle cx="169.348674662006" cy="-342.32566874191" r="2" style="fill: rgb(0,0,0)" />
	<circle cx="207.118182617332" cy="-298.553012833273" r="2" style="fill: rgb(0,0,0)" />
	<circle cx="260.779844668697" cy="-338.375088067425" r="2" style="fill: rgb(0,0,0)" />
	<circle cx="229.827902845198" cy="-387.207028780838" r="2" style="fill: rgb(0,0,0)" />
	<circle cx="207.941574890893" cy="-390.447140319258" r="2" style="fill: rgb(0,0,0)" />
	<circle cx="201.531217848339" cy="-369.271281500972" r="2" style="fill: rgb(0,0,0)" />
	<circle cx="306.441539877946" cy="-347.887098879611" r="2" style="fill: rgb(0,0,0)" />
	<circle cx="290.796897438795" cy="-403.545218677513" r="2" style="fill: rgb(0,0,0)" />
	<circle cx="268.67203192273" cy="-403.545218677525" r="2" style="fill: rgb(0,0,0)" />
	<circle cx="249.787277945052" cy="-392.018044639297" r="2" style="fill: rgb(0,0,0)" />
	<circle cx="265.621483581795" cy="-198.147328900972" r="2" style="fill: rgb(0,0,0)" />
	<circle cx="253.406515878568" cy="-179.699992016914" r="2" style="fill: rgb(0,0,0)" />
	<circle cx="291.176023833881" cy="-135.927336108271" r="2" style="fill: rgb(0,0,0)" />
	<circle cx="311.213312756732" cy="-145.309059123103" r="2" style="fill: rgb(0,0,0)" />
	<circle cx="312.365847701914" cy="-144.595700414913" r="2" style="fill: rgb(0,0,0)" />
	<circle cx="334.490713217974" cy="-144.595700414894" r="2" style="fill: rgb(0,0,0)" />
	<circle cx="367.439473930339" cy="-160.516284468731" r="2" style="fill: rgb(0,0,0)" />
	<circle cx="370.679585468761" cy="-182.402612423032" r="2" style="fill: rgb(0,0,0)" />
	<circle cx="395.84342901429" cy="-205.948416211175" r="2" style="fill: rgb(0,0,0)" />
	<circle cx="395.843429014313" cy="-228.073281727263" r="2" style="fill: rgb(0,0,0)" />
	<circle cx="347.382409288325" cy="-460.494103047048" r="2" style="fill: rgb(0,0,0)" />
	<circle cx="328.935072404264" cy="-472.709070750269" r="2" style="fill: rgb(0,0,0)" />
	<circle cx="285.162416495633" cy="-434.939562794933" r="2" style="fill: rgb(0,0,0)" />
	<circle cx="294.544139510472" cy="-414.902273872083" r="2" style="fill: rgb(0,0,0)" />
	<circle cx="413.556857759295" cy="-276.973477690326" r="2" style="fill: rgb(0,0,0)" />
	<circle cx="432.004194643356" cy="-264.758509987104" r="2" style="fill: rgb(0,0,0)" />
	<circle cx="475.776850551978" cy="-302.52801794243" r="2" style="fill: rgb(0,0,0)" />
	<circle cx="466.395127537138" cy="-322.565306865279" r="2" style="fill: rgb(0,0,0)" />
	<circle cx="468.750173490032" cy="-327.245651657573" r="2" style="fill: rgb(0,0,0)" />
	<circle cx="490.431696990507" cy="-331.652602168201" r="2" style="fill: rgb(0,0,0)" />
	<circle cx="494.676563616744" cy="-389.311619189021" r="2" style="fill: rgb(0,0,0)" />
	<circle cx="473.874180779795" cy="-396.846242099955" r="2" style="fill: rgb(0,0,0)" />
	<circle cx="472.229946202176" cy="-401.821014604175" r="2" style="fill: rgb(0,0,0)" />
	<circle cx="484.444913905397" cy="-420.268351488236" r="2" style="fill: rgb(0,0,0)" />
	<circle cx="446.675405950061" cy="-464.041007396852" r="2" style="fill: rgb(0,0,0)" />
	<circle cx="426.638117027211" cy="-454.659284382011" r="2" style="fill: rgb(0,0,0)" />
	<circle cx="421.957772234928" cy="-457.014330334907" r="2" style="fill: rgb(0,0,0)" />
	<circle cx="417.550821724297" cy="-478.695853835381" r="2" style="fill: rgb(0,0,0)" />
	<circle cx="359.891804703464" cy="-482.940720461614" r="2" style="fill: rgb(0,0,0)" />
	<circle cx="352.35718179253" cy="-462.138337624665" r="2" style="fill: rgb(0,0,0)" />
	<circle cx="135.853125386328" cy="-249.842380067874" r="2" style="fill: rgb(0,0,0)" />
	<circle cx="92.0804694776991" cy="-212.072872112543" r="2" style="fill: rgb(0,0,0)" />
	<circle cx="87.835602851457" cy="-154.413855091711" r="2" style="fill: rgb(0,0,0)" />
	<circle cx="125.605110806789" cy="-110.641199183082" r="2" style="fill: rgb(0,0,0)" />
	<circle cx="183.264127827621" cy="-106.396332556839" r="2" style="fill: rgb(0,0,0)" />
	<circle cx="227.036783736249" cy="-144.16584051217" r="2" style="fill: rgb(0,0,0)" />
	<circle cx="155.663397644176" cy="-310.802670063219" r="2" style="fill: rgb(0,0,0)" />
	<circle cx="141.494894770223" cy="-293.809636184146" r="2" style="fill: rgb(0,0,0)" />
	<circle cx="138.254783231792" cy="-271.92330822985" r="2" style="fill: rgb(0,0,0)" />
	<circle cx="191.021724386062" cy="-248.296394387687" r="2" style="fill: rgb(0,0,0)" />
	<circle cx="152.014614427226" cy="-356.074851622431" r="2" style="fill: rgb(0,0,0)" />
	<circle cx="148.774502888793" cy="-334.188523668139" r="2" style="fill: rgb(0,0,0)" />
	<circle cx="194.713651716514" cy="-386.336862212282" r="2" style="fill: rgb(0,0,0)" />
	<circle cx="172.588786200439" cy="-386.336862212307" r="2" style="fill: rgb(0,0,0)" />
	<circle cx="243.57708572572" cy="-404.541089015618" r="2" style="fill: rgb(0,0,0)" />
	<circle cx="221.690757771428" cy="-407.781200554044" r="2" style="fill: rgb(0,0,0)" />
	<circle cx="353.51419124826" cy="-90.000019082808" r="2" style="fill: rgb(0,0,0)" />
	<circle cx="374.088363021459" cy="-81.8628740090201" r="2" style="fill: rgb(0,0,0)" />
	<circle cx="385.150795779515" cy="-101.023569601276" r="2" style="fill: rgb(0,0,0)" />
	<circle cx="366.127317749228" cy="-155.619250933363" r="2" style="fill: rgb(0,0,0)" />
	<circle cx="293.481093724239" cy="-133.068526376686" r="2" style="fill: rgb(0,0,0)" />
	<circle cx="309.12573616335" cy="-77.4104065787409" r="2" style="fill: rgb(0,0,0)" />
	<circle cx="331.250601679407" cy="-77.4104065787206" r="2" style="fill: rgb(0,0,0)" />
	<circle cx="350.135355657085" cy="-88.9375806169481" r="2" style="fill: rgb(0,0,0)" />
	<circle cx="405.208981885665" cy="-116.743628560094" r="2" style="fill: rgb(0,0,0)" />
	<circle cx="427.333847401749" cy="-116.743628560077" r="2" style="fill: rgb(0,0,0)" />
	<circle cx="430.57395894017" cy="-138.629956514379" r="2" style="fill: rgb(0,0,0)" />
	<circle cx="392.804450984844" cy="-182.402612423017" r="2" style="fill: rgb(0,0,0)" />
	<circle cx="328.935072404272" cy="-494.833936266361" r="2" style="fill: rgb(0,0,0)" />
	<circle cx="307.048744449964" cy="-498.074047804774" r="2" style="fill: rgb(0,0,0)" />
	<circle cx="263.276088541332" cy="-460.304539849424" r="2" style="fill: rgb(0,0,0)" />
	<circle cx="263.276088541324" cy="-438.179674333335" r="2" style="fill: rgb(0,0,0)" />
	<circle cx="348.737213183695" cy="-482.577449272429" r="2" style="fill: rgb(0,0,0)" />
	<circle cx="330.289876299647" cy="-494.792416975655" r="2" style="fill: rgb(0,0,0)" />
	<circle cx="497.820513289557" cy="-300.634183943124" r="2" style="fill: rgb(0,0,0)" />
	<circle cx="488.438790274721" cy="-320.671472865964" r="2" style="fill: rgb(0,0,0)" />
	<circle cx="506.076339429773" cy="-316.007959728936" r="2" style="fill: rgb(0,0,0)" />
	<circle cx="523.843415182147" cy="-329.192825800077" r="2" style="fill: rgb(0,0,0)" />
	<circle cx="528.088281808371" cy="-386.851842820891" r="2" style="fill: rgb(0,0,0)" />
	<circle cx="512.443639369108" cy="-402.496485260157" r="2" style="fill: rgb(0,0,0)" />
	<circle cx="511.602929884027" cy="-403.559699729602" r="2" style="fill: rgb(0,0,0)" />
	<circle cx="490.800547047084" cy="-411.094322640533" r="2" style="fill: rgb(0,0,0)" />
	<circle cx="506.569779421487" cy="-420.268351488238" r="2" style="fill: rgb(0,0,0)" />
	<circle cx="509.809890959901" cy="-442.154679442539" r="2" style="fill: rgb(0,0,0)" />
	<circle cx="472.040383004553" cy="-485.927335351143" r="2" style="fill: rgb(0,0,0)" />
	<circle cx="449.915517488465" cy="-485.927335351144" r="2" style="fill: rgb(0,0,0)" />
	<circle cx="448.569239949368" cy="-486.084670134432" r="2" style="fill: rgb(0,0,0)" />
	<circle cx="428.531951026521" cy="-476.702947119594" r="2" style="fill: rgb(0,0,0)" />
	<circle cx="433.195464163568" cy="-494.340496274649" r="2" style="fill: rgb(0,0,0)" />
	<circle cx="420.010598092417" cy="-512.107572027023" r="2" style="fill: rgb(0,0,0)" />
	<circle cx="362.351581071577" cy="-516.352438653241" r="2" style="fill: rgb(0,0,0)" />
	<circle cx="346.706938632307" cy="-500.707796213976" r="2" style="fill: rgb(0,0,0)" />
	<circle cx="118.070487895855" cy="-89.838816346132" r="2" style="fill: rgb(0,0,0)" />
	<circle cx="122.477438406486" cy="-68.1572928456575" r="2" style="fill: rgb(0,0,0)" />
	<circle cx="180.136455427321" cy="-63.9124262194205" r="2" style="fill: rgb(0,0,0)" />
	<circle cx="187.671078338256" cy="-84.7148090563689" r="2" style="fill: rgb(0,0,0)" />
	<circle cx="67.7983139286064" cy="-145.032132076868" r="2" style="fill: rgb(0,0,0)" />
	<circle cx="55.5833462253862" cy="-126.584795192807" r="2" style="fill: rgb(0,0,0)" />
	<circle cx="93.3528541807249" cy="-82.8121392841845" r="2" style="fill: rgb(0,0,0)" />
	<circle cx="113.390143103575" cy="-92.1938622990246" r="2" style="fill: rgb(0,0,0)" />
	<circle cx="126.471402371484" cy="-269.879668990721" r="2" style="fill: rgb(0,0,0)" />
	<circle cx="108.024065487423" cy="-282.094636693943" r="2" style="fill: rgb(0,0,0)" />
	<circle cx="64.2514095788037" cy="-244.325128738614" r="2" style="fill: rgb(0,0,0)" />
	<circle cx="73.633132593644" cy="-224.287839815765" r="2" style="fill: rgb(0,0,0)" />
	<circle cx="71.2780866407479" cy="-219.607495023473" r="2" style="fill: rgb(0,0,0)" />
	<circle cx="49.5965631402737" cy="-215.200544512843" r="2" style="fill: rgb(0,0,0)" />
	<circle cx="45.3516965140403" cy="-157.541527492017" r="2" style="fill: rgb(0,0,0)" />
	<circle cx="66.1540793509892" cy="-150.006904581083" r="2" style="fill: rgb(0,0,0)" />
	<circle cx="167.552388837473" cy="-385.756006901076" r="2" style="fill: rgb(0,0,0)" />
	<circle cx="116.331250565175" cy="-412.56973716326" r="2" style="fill: rgb(0,0,0)" />
	<circle cx="95.757078791977" cy="-404.432592089484" r="2" style="fill: rgb(0,0,0)" />
	<circle cx="100.793476154929" cy="-382.888581884616" r="2" style="fill: rgb(0,0,0)" />
	<circle cx="336.180131013481" cy="-76.2508362022848" r="2" style="fill: rgb(0,0,0)" />
	<circle cx="356.754302786667" cy="-68.1136911284943" r="2" style="fill: rgb(0,0,0)" />
	<circle cx="393.249058613701" cy="-70.8004412509694" r="2" style="fill: rgb(0,0,0)" />
	<circle cx="404.31149137176" cy="-89.9611368432135" r="2" style="fill: rgb(0,0,0)" />
	<circle cx="332.175183942688" cy="-516.72026422067" r="2" style="fill: rgb(0,0,0)" />
	<circle cx="310.28885598839" cy="-519.96037575909" r="2" style="fill: rgb(0,0,0)" />
	<circle cx="539.488057621416" cy="-313.548183360814" r="2" style="fill: rgb(0,0,0)" />
	<circle cx="557.255133373788" cy="-326.733049431956" r="2" style="fill: rgb(0,0,0)" />
	<circle cx="561.5" cy="-384.392066452766" r="2" style="fill: rgb(0,0,0)" />
	<circle cx="545.855357560734" cy="-400.036708892029" r="2" style="fill: rgb(0,0,0)" />
	<circle cx="543.73292424764" cy="-402.496485260153" r="2" style="fill: rgb(0,0,0)" />
	<circle cx="528.088281808389" cy="-418.141127699419" r="2" style="fill: rgb(0,0,0)" />
	<circle cx="472.040383004556" cy="-508.052200867231" r="2" style="fill: rgb(0,0,0)" />
	<circle cx="449.915517488476" cy="-508.05220086724" r="2" style="fill: rgb(0,0,0)" />
	<circle cx="531.934756475991" cy="-442.154679442546" r="2" style="fill: rgb(0,0,0)" />
	<circle cx="535.174868014399" cy="-464.041007396849" r="2" style="fill: rgb(0,0,0)" />
	<circle cx="497.405360059041" cy="-507.813663305444" r="2" style="fill: rgb(0,0,0)" />
	<circle cx="475.280494542954" cy="-507.813663305439" r="2" style="fill: rgb(0,0,0)" />
	<circle cx="435.655240531683" cy="-527.752214466294" r="2" style="fill: rgb(0,0,0)" />
	<circle cx="422.470374460524" cy="-545.519290218665" r="2" style="fill: rgb(0,0,0)" />
	<circle cx="364.811357439678" cy="-549.76415684487" r="2" style="fill: rgb(0,0,0)" />
	<circle cx="349.166715000414" cy="-534.119514405602" r="2" style="fill: rgb(0,0,0)" />
	<circle cx="101.497213007004" cy="-75.1815235004684" r="2" style="fill: rgb(0,0,0)" />
	<circle cx="105.904163517621" cy="-53.5" r="2" style="fill: rgb(0,0,0)" />
	<circle cx="45.7149677032256" cy="-146.386935972237" r="2" style="fill: rgb(0,0,0)" />
	<circle cx="33.5" cy="-127.939599088191" r="2" style="fill: rgb(0,0,0)" />
	<circle cx="42.2077468412245" cy="-246.21896273792" r="2" style="fill: rgb(0,0,0)" />
	<circle cx="51.5894698560624" cy="-226.181673815078" r="2" style="fill: rgb(0,0,0)" />
	<!--
	Generated using the Perl SVG Module V2.86
	by Ronan Oger
	Info: http://www.roitsystems.com/
	-->
</svg>