<?xml version="1.0" encoding="UTF-8" standalone="yes"?>
<!DOCTYPE svg PUBLIC "-//W3C//DTD SVG 1.0//EN" "http://www.w3.org/TR/2001/REC-SVG-20010904/DTD/svg10.dtd">
<!-- generated using polymake; Michael Joswig, Georg Loho, Benjamin Lorenz, Rico Raber; license CC BY-NC-ND 3.0; see polymake.org and matchthenet.de -->
<svg height="841pt" id="document" viewBox="0 -811 464.103355631216 811" width="595pt" xmlns="http://www.w3.org/2000/svg" xmlns:svg="http://www.w3.org/2000/svg" xmlns:xlink="http://www.w3.org/1999/xlink">
	<title id="document_title">planar_net_</title>
	<polygon points="290.740564398086,-400.508004613083 426.459557092355,-400.508004613083 426.459557092356,-427.651803151937 393.886998845731,-460.224361398561 290.740564398083,-460.224361398561 " style="fill: rgb(255,210,63); fill-opacity: 1; stroke: rgb(0,0,0); stroke-width: 3" />
	<polygon points="426.459557092354,-373.36420607423 426.459557092355,-400.508004613083 290.740564398086,-400.508004613083 225.595447904839,-335.362888119834 225.595447904839,-275.646531334356 328.741882352482,-275.646531334356 " style="fill: rgb(238,66,102); fill-opacity: 1; stroke: rgb(0,0,0); stroke-width: 3" />
	<polygon points="426.459557092356,-427.651803151937 426.459557092355,-400.508004613083 453.603355631215,-400.50800461308 453.603355631216,-427.651803151929 " style="fill: rgb(67,184,206); fill-opacity: 1; stroke: rgb(0,0,0); stroke-width: 3" />
	<polygon points="363.676107651268,-636.306339099307 405.901948482063,-678.532179930065 405.901948482107,-770.661287197202 402.063235679311,-774.5 313.772841214916,-686.209605535673 " style="fill: rgb(255,210,63); fill-opacity: 1; stroke: rgb(0,0,0); stroke-width: 3" />
	<polygon points="290.740564398086,-400.508004613083 290.740564398083,-460.224361398561 190.934031525357,-530.798237599579 190.934031525364,-405.93676432085 198.611457130959,-400.508004613079 " style="fill: rgb(255,210,63); fill-opacity: 1; stroke: rgb(0,0,0); stroke-width: 3" />
	<polygon points="340.756831988757,-57.3387128027922 298.530991157989,-99.5645536335598 294.692278355192,-95.7258408307595 336.918119185959,-53.5 " style="fill: rgb(67,184,206); fill-opacity: 1; stroke: rgb(0,0,0); stroke-width: 3" />
	<polygon points="190.934031525357,-530.798237599579 158.361473278728,-563.370795846203 33.5,-563.370795846195 33.5000000000062,-503.654439060713 131.217674739891,-405.936764320841 190.934031525364,-405.93676432085 " style="fill: rgb(238,66,102); fill-opacity: 1; stroke: rgb(0,0,0); stroke-width: 3" />
	<polygon points="445.653121106336,-354.17064206025 426.459557092354,-373.36420607423 328.741882352482,-275.646531334356 298.530991157989,-99.5645536335598 340.756831988757,-57.3387128027922 405.901948482001,-122.483829296045 " style="fill: rgb(238,66,102); fill-opacity: 1; stroke: rgb(0,0,0); stroke-width: 3" />
	<polygon points="225.595447904839,-335.362888119834 217.918022299244,-329.934128412062 217.918022299247,-270.217771626588 225.595447904839,-275.646531334356 " style="fill: rgb(67,184,206); fill-opacity: 1; stroke: rgb(0,0,0); stroke-width: 3" />
	<polygon points="328.741882352482,-275.646531334356 225.595447904839,-275.646531334356 220.166688197067,-267.96910572876 220.166688197066,-129.775444828067 225.595447904837,-129.775444828068 " style="fill: rgb(255,210,63); fill-opacity: 1; stroke: rgb(0,0,0); stroke-width: 3" />
	<polygon points="393.886998845731,-460.224361398561 426.459557092356,-427.651803151937 445.65312110635,-446.845367165921 405.901948482063,-678.532179930065 363.676107651268,-636.306339099307 " style="fill: rgb(255,210,63); fill-opacity: 1; stroke: rgb(0,0,0); stroke-width: 3" />
	<polygon points="290.740564398083,-460.224361398561 393.886998845731,-460.224361398561 290.740564398089,-606.095447904846 220.166688197062,-606.095447904862 220.166688197059,-560.030894271302 " style="fill: rgb(255,210,63); fill-opacity: 1; stroke: rgb(0,0,0); stroke-width: 3" />
	<circle cx="290.740564398086" cy="-400.508004613083" r="2" style="fill: rgb(0,0,0)" />
	<circle cx="426.459557092355" cy="-400.508004613083" r="2" style="fill: rgb(0,0,0)" />
	<circle cx="426.459557092356" cy="-427.651803151937" r="2" style="fill: rgb(0,0,0)" />
	<circle cx="393.886998845731" cy="-460.224361398561" r="2" style="fill: rgb(0,0,0)" />
	<circle cx="290.740564398083" cy="-460.224361398561" r="2" style="fill: rgb(0,0,0)" />
	<circle cx="225.595447904839" cy="-335.362888119834" r="2" style="fill: rgb(0,0,0)" />
	<circle cx="225.595447904839" cy="-275.646531334356" r="2" style="fill: rgb(0,0,0)" />
	<circle cx="328.741882352482" cy="-275.646531334356" r="2" style="fill: rgb(0,0,0)" />
	<circle cx="426.459557092354" cy="-373.36420607423" r="2" style="fill: rgb(0,0,0)" />
	<circle cx="453.603355631215" cy="-400.50800461308" r="2" style="fill: rgb(0,0,0)" />
	<circle cx="453.603355631216" cy="-427.651803151929" r="2" style="fill: rgb(0,0,0)" />
	<circle cx="190.934031525357" cy="-530.798237599579" r="2" style="fill: rgb(0,0,0)" />
	<circle cx="190.934031525364" cy="-405.93676432085" r="2" style="fill: rgb(0,0,0)" />
	<circle cx="198.611457130959" cy="-400.508004613079" r="2" style="fill: rgb(0,0,0)" />
	<circle cx="445.65312110635" cy="-446.845367165921" r="2" style="fill: rgb(0,0,0)" />
	<circle cx="405.901948482063" cy="-678.532179930065" r="2" style="fill: rgb(0,0,0)" />
	<circle cx="363.676107651268" cy="-636.306339099307" r="2" style="fill: rgb(0,0,0)" />
	<circle cx="290.740564398089" cy="-606.095447904846" r="2" style="fill: rgb(0,0,0)" />
	<circle cx="220.166688197062" cy="-606.095447904862" r="2" style="fill: rgb(0,0,0)" />
	<circle cx="220.166688197059" cy="-560.030894271302" r="2" style="fill: rgb(0,0,0)" />
	<circle cx="298.530991157989" cy="-99.5645536335598" r="2" style="fill: rgb(0,0,0)" />
	<circle cx="340.756831988757" cy="-57.3387128027922" r="2" style="fill: rgb(0,0,0)" />
	<circle cx="405.901948482001" cy="-122.483829296045" r="2" style="fill: rgb(0,0,0)" />
	<circle cx="445.653121106336" cy="-354.17064206025" r="2" style="fill: rgb(0,0,0)" />
	<circle cx="217.918022299244" cy="-329.934128412062" r="2" style="fill: rgb(0,0,0)" />
	<circle cx="217.918022299247" cy="-270.217771626588" r="2" style="fill: rgb(0,0,0)" />
	<circle cx="220.166688197067" cy="-267.96910572876" r="2" style="fill: rgb(0,0,0)" />
	<circle cx="220.166688197066" cy="-129.775444828067" r="2" style="fill: rgb(0,0,0)" />
	<circle cx="225.595447904837" cy="-129.775444828068" r="2" style="fill: rgb(0,0,0)" />
	<circle cx="158.361473278728" cy="-563.370795846203" r="2" style="fill: rgb(0,0,0)" />
	<circle cx="33.5" cy="-563.370795846195" r="2" style="fill: rgb(0,0,0)" />
	<circle cx="33.5000000000062" cy="-503.654439060713" r="2" style="fill: rgb(0,0,0)" />
	<circle cx="131.217674739891" cy="-405.936764320841" r="2" style="fill: rgb(0,0,0)" />
	<circle cx="405.901948482107" cy="-770.661287197202" r="2" style="fill: rgb(0,0,0)" />
	<circle cx="402.063235679311" cy="-774.5" r="2" style="fill: rgb(0,0,0)" />
	<circle cx="313.772841214916" cy="-686.209605535673" r="2" style="fill: rgb(0,0,0)" />
	<circle cx="294.692278355192" cy="-95.7258408307595" r="2" style="fill: rgb(0,0,0)" />
	<circle cx="336.918119185959" cy="-53.5" r="2" style="fill: rgb(0,0,0)" />
	<!--
	Generated using the Perl SVG Module V2.87
	by Ronan Oger

	-->
</svg>