<?xml version="1.0" encoding="UTF-8" standalone="yes"?>
<!DOCTYPE svg PUBLIC "-//W3C//DTD SVG 1.0//EN" "http://www.w3.org/TR/2001/REC-SVG-20010904/DTD/svg10.dtd">
<!-- generated using polymake; Michael Joswig, Georg Loho, Benjamin Lorenz, Rico Raber; license CC BY-NC-ND 3.0; see polymake.org and matchthenet.de -->
<svg height="841pt" id="document" viewBox="0 -522.05713826845 572 522.05713826845" width="595pt" xmlns="http://www.w3.org/2000/svg" xmlns:svg="http://www.w3.org/2000/svg" xmlns:xlink="http://www.w3.org/1999/xlink">
	<title id="document_title">planar_net_</title>
	<polygon points="299.050230387867,-333.58128103105 561.5,-333.58128103105 301.685810130487,-348.484905255636 " style="fill: rgb(14,173,105); fill-opacity: 1; stroke: rgb(0,0,0); stroke-width: 3" />
	<polygon points="299.050230387867,-333.58128103105 297.534697159816,-314.060313359086 561.5,-333.58128103105 " style="fill: rgb(14,173,105); fill-opacity: 1; stroke: rgb(0,0,0); stroke-width: 3" />
	<polygon points="297.534697159816,-314.060313359086 299.177171261359,-291.277481271632 561.5,-333.58128103105 " style="fill: rgb(14,173,105); fill-opacity: 1; stroke: rgb(0,0,0); stroke-width: 3" />
	<polygon points="306.400507940819,-367.458827655842 561.5,-333.58128103105 308.126038950741,-373.499307774628 " style="fill: rgb(14,173,105); fill-opacity: 1; stroke: rgb(0,0,0); stroke-width: 3" />
	<polygon points="299.177171261359,-291.277481271632 304.779912639945,-269.133319337467 561.5,-333.58128103105 " style="fill: rgb(14,173,105); fill-opacity: 1; stroke: rgb(0,0,0); stroke-width: 3" />
	<polygon points="304.779912639945,-269.133319337467 312.355159706446,-251.078411675155 561.5,-333.58128103105 " style="fill: rgb(14,173,105); fill-opacity: 1; stroke: rgb(0,0,0); stroke-width: 3" />
	<polygon points="319.542171747363,-237.758855812208 325.41379826467,-228.188913005949 561.5,-333.58128103105 " style="fill: rgb(14,173,105); fill-opacity: 1; stroke: rgb(0,0,0); stroke-width: 3" />
	<polygon points="333.519350606737,-216.037056478708 561.5,-333.58128103105 329.982427392065,-221.228907204054 " style="fill: rgb(14,173,105); fill-opacity: 1; stroke: rgb(0,0,0); stroke-width: 3" />
	<polygon points="329.226319249021,-440.990789515639 561.5,-333.58128103105 330.751150901727,-445.593735085258 " style="fill: rgb(14,173,105); fill-opacity: 1; stroke: rgb(0,0,0); stroke-width: 3" />
	<polygon points="329.982427392065,-221.228907204054 561.5,-333.58128103105 325.41379826467,-228.188913005949 " style="fill: rgb(14,173,105); fill-opacity: 1; stroke: rgb(0,0,0); stroke-width: 3" />
	<polygon points="312.355159706446,-251.078411675155 319.542171747363,-237.758855812208 561.5,-333.58128103105 " style="fill: rgb(14,173,105); fill-opacity: 1; stroke: rgb(0,0,0); stroke-width: 3" />
	<polygon points="308.126038950741,-373.499307774628 561.5,-333.58128103105 309.504651471675,-378.148108676481 " style="fill: rgb(14,173,105); fill-opacity: 1; stroke: rgb(0,0,0); stroke-width: 3" />
	<polygon points="304.251405566074,-359.415489010017 561.5,-333.58128103105 306.400507940819,-367.458827655842 " style="fill: rgb(14,173,105); fill-opacity: 1; stroke: rgb(0,0,0); stroke-width: 3" />
	<polygon points="301.685810130487,-348.484905255636 561.5,-333.58128103105 304.251405566074,-359.415489010017 " style="fill: rgb(14,173,105); fill-opacity: 1; stroke: rgb(0,0,0); stroke-width: 3" />
	<polygon points="77.2321176151431,-485.55713826845 330.604945613942,-445.639618274796 332.330499766373,-451.680115162286 " style="fill: rgb(14,173,105); fill-opacity: 1; stroke: rgb(0,0,0); stroke-width: 3" />
	<polygon points="325.41379826467,-228.188913005949 134.816213720634,-53.5 329.982427392065,-221.228907204054 " style="fill: rgb(14,173,105); fill-opacity: 1; stroke: rgb(0,0,0); stroke-width: 3" />
	<polygon points="319.542171747363,-237.758855812208 124.505883096427,-65.463176922283 325.41379826467,-228.188913005949 " style="fill: rgb(14,173,105); fill-opacity: 1; stroke: rgb(0,0,0); stroke-width: 3" />
	<polygon points="312.355159706446,-251.078411675155 106.616986230364,-88.1332556382366 319.542171747363,-237.758855812208 " style="fill: rgb(14,173,105); fill-opacity: 1; stroke: rgb(0,0,0); stroke-width: 3" />
	<polygon points="304.779912639945,-269.133319337467 78.9305428697818,-131.110632018171 312.355159706446,-251.078411675155 " style="fill: rgb(14,173,105); fill-opacity: 1; stroke: rgb(0,0,0); stroke-width: 3" />
	<polygon points="77.2321176151431,-485.55713826845 561.5,-333.58128103105 329.226319249021,-440.990789515639 " style="fill: rgb(14,173,105); fill-opacity: 1; stroke: rgb(0,0,0); stroke-width: 3" />
	<polygon points="299.177171261359,-291.277481271632 48.3011253822421,-203.73582911622 304.779912639945,-269.133319337467 " style="fill: rgb(14,173,105); fill-opacity: 1; stroke: rgb(0,0,0); stroke-width: 3" />
	<polygon points="309.504651471675,-378.148108676481 561.5,-333.58128103105 77.2321176151431,-485.55713826845 " style="fill: rgb(14,173,105); fill-opacity: 1; stroke: rgb(0,0,0); stroke-width: 3" />
	<polygon points="308.126038950741,-373.499307774628 309.504651471675,-378.148108676481 73.9542262783034,-478.164241441367 " style="fill: rgb(14,173,105); fill-opacity: 1; stroke: rgb(0,0,0); stroke-width: 3" />
	<polygon points="306.400507940819,-367.458827655842 308.126038950741,-373.499307774628 71.899906842535,-473.441294441668 " style="fill: rgb(14,173,105); fill-opacity: 1; stroke: rgb(0,0,0); stroke-width: 3" />
	<polygon points="304.251405566074,-359.415489010017 306.400507940819,-367.458827655842 68.4015503365649,-465.332784154769 " style="fill: rgb(14,173,105); fill-opacity: 1; stroke: rgb(0,0,0); stroke-width: 3" />
	<polygon points="297.534697159816,-314.060313359086 33.5,-295.516812421997 299.177171261359,-291.277481271632 " style="fill: rgb(14,173,105); fill-opacity: 1; stroke: rgb(0,0,0); stroke-width: 3" />
	<polygon points="301.685810130487,-348.484905255636 304.251405566074,-359.415489010017 62.3746469780755,-450.735044842946 " style="fill: rgb(14,173,105); fill-opacity: 1; stroke: rgb(0,0,0); stroke-width: 3" />
	<polygon points="77.2321176151431,-485.55713826845 329.226319249021,-440.990789515639 330.604945613942,-445.639618274796 " style="fill: rgb(14,173,105); fill-opacity: 1; stroke: rgb(0,0,0); stroke-width: 3" />
	<polygon points="299.050230387867,-333.58128103105 39.7464887589563,-374.088826090574 297.534697159816,-314.060313359086 " style="fill: rgb(14,173,105); fill-opacity: 1; stroke: rgb(0,0,0); stroke-width: 3" />
	<polygon points="299.050230387867,-333.58128103105 301.685810130487,-348.484905255636 52.5191484881445,-423.590821007957 " style="fill: rgb(14,173,105); fill-opacity: 1; stroke: rgb(0,0,0); stroke-width: 3" />
	<circle cx="299.050230387867" cy="-333.58128103105" r="2" style="fill: rgb(0,0,0)" />
	<circle cx="561.5" cy="-333.58128103105" r="2" style="fill: rgb(0,0,0)" />
	<circle cx="301.685810130487" cy="-348.484905255636" r="2" style="fill: rgb(0,0,0)" />
	<circle cx="297.534697159816" cy="-314.060313359086" r="2" style="fill: rgb(0,0,0)" />
	<circle cx="304.251405566074" cy="-359.415489010017" r="2" style="fill: rgb(0,0,0)" />
	<circle cx="52.5191484881445" cy="-423.590821007957" r="2" style="fill: rgb(0,0,0)" />
	<circle cx="299.177171261359" cy="-291.277481271632" r="2" style="fill: rgb(0,0,0)" />
	<circle cx="39.7464887589563" cy="-374.088826090574" r="2" style="fill: rgb(0,0,0)" />
	<circle cx="306.400507940819" cy="-367.458827655842" r="2" style="fill: rgb(0,0,0)" />
	<circle cx="62.3746469780755" cy="-450.735044842946" r="2" style="fill: rgb(0,0,0)" />
	<circle cx="304.779912639945" cy="-269.133319337467" r="2" style="fill: rgb(0,0,0)" />
	<circle cx="33.5" cy="-295.516812421997" r="2" style="fill: rgb(0,0,0)" />
	<circle cx="308.126038950741" cy="-373.499307774628" r="2" style="fill: rgb(0,0,0)" />
	<circle cx="68.4015503365649" cy="-465.332784154769" r="2" style="fill: rgb(0,0,0)" />
	<circle cx="312.355159706446" cy="-251.078411675155" r="2" style="fill: rgb(0,0,0)" />
	<circle cx="48.3011253822421" cy="-203.73582911622" r="2" style="fill: rgb(0,0,0)" />
	<circle cx="309.504651471675" cy="-378.148108676481" r="2" style="fill: rgb(0,0,0)" />
	<circle cx="71.899906842535" cy="-473.441294441668" r="2" style="fill: rgb(0,0,0)" />
	<circle cx="319.542171747363" cy="-237.758855812208" r="2" style="fill: rgb(0,0,0)" />
	<circle cx="78.9305428697818" cy="-131.110632018171" r="2" style="fill: rgb(0,0,0)" />
	<circle cx="77.2321176151431" cy="-485.55713826845" r="2" style="fill: rgb(0,0,0)" />
	<circle cx="73.9542262783034" cy="-478.164241441367" r="2" style="fill: rgb(0,0,0)" />
	<circle cx="325.41379826467" cy="-228.188913005949" r="2" style="fill: rgb(0,0,0)" />
	<circle cx="106.616986230364" cy="-88.1332556382366" r="2" style="fill: rgb(0,0,0)" />
	<circle cx="329.226319249021" cy="-440.990789515639" r="2" style="fill: rgb(0,0,0)" />
	<circle cx="329.982427392065" cy="-221.228907204054" r="2" style="fill: rgb(0,0,0)" />
	<circle cx="124.505883096427" cy="-65.463176922283" r="2" style="fill: rgb(0,0,0)" />
	<circle cx="330.751150901727" cy="-445.593735085258" r="2" style="fill: rgb(0,0,0)" />
	<circle cx="330.604945613942" cy="-445.639618274796" r="2" style="fill: rgb(0,0,0)" />
	<circle cx="333.519350606737" cy="-216.037056478708" r="2" style="fill: rgb(0,0,0)" />
	<circle cx="134.816213720634" cy="-53.5" r="2" style="fill: rgb(0,0,0)" />
	<circle cx="332.330499766373" cy="-451.680115162286" r="2" style="fill: rgb(0,0,0)" />
	<!--
	Generated using the Perl SVG Module V2.87
	by Ronan Oger

	-->
</svg>