<?xml version="1.0" encoding="UTF-8" standalone="yes"?>
<!DOCTYPE svg PUBLIC "-//W3C//DTD SVG 1.0//EN" "http://www.w3.org/TR/2001/REC-SVG-20010904/DTD/svg10.dtd">
<!-- generated using polymake; Michael Joswig, Georg Loho, Benjamin Lorenz, Rico Raber; license CC BY-NC-SA 3.0; see polymake.org and matchthenet.de -->
<svg height="841pt" id="document" viewBox="0 -767.88814540282 572 767.88814540282" width="595pt" xmlns="http://www.w3.org/2000/svg" xmlns:svg="http://www.w3.org/2000/svg" xmlns:xlink="http://www.w3.org/1999/xlink">
	<title id="document_title">planar_net_</title>
	<polygon points="232.886538989366,-392.444072701406 362.113461010634,-392.444072701406 297.499999999998,-430.474428835977 " style="fill: rgb(14,173,105); fill-opacity: 1; stroke: rgb(0,0,0); stroke-width: 3" />
	<polygon points="297.500000000001,-354.413716566835 362.113461010634,-392.444072701406 232.886538989366,-392.444072701406 " style="fill: rgb(14,173,105); fill-opacity: 1; stroke: rgb(0,0,0); stroke-width: 3" />
	<polygon points="232.886538989366,-392.444072701406 297.499999999998,-430.474428835977 295.614604616947,-505.425430268547 " style="fill: rgb(14,173,105); fill-opacity: 1; stroke: rgb(0,0,0); stroke-width: 3" />
	<polygon points="232.886538989366,-392.444072701406 295.614604616947,-505.425430268547 231.001143606315,-467.395074133972 " style="fill: rgb(14,173,105); fill-opacity: 1; stroke: rgb(0,0,0); stroke-width: 3" />
	<polygon points="232.886538989366,-392.444072701406 295.614604616952,-279.462715134273 297.500000000001,-354.413716566835 " style="fill: rgb(14,173,105); fill-opacity: 1; stroke: rgb(0,0,0); stroke-width: 3" />
	<polygon points="297.499999999998,-430.474428835977 362.113461010634,-392.444072701406 299.385395383051,-505.425430268542 " style="fill: rgb(14,173,105); fill-opacity: 1; stroke: rgb(0,0,0); stroke-width: 3" />
	<polygon points="232.886538989366,-392.444072701406 231.001143606317,-317.493071268841 295.614604616952,-279.462715134273 " style="fill: rgb(14,173,105); fill-opacity: 1; stroke: rgb(0,0,0); stroke-width: 3" />
	<polygon points="299.385395383051,-505.425430268542 362.113461010634,-392.444072701406 363.998856393683,-467.395074133977 " style="fill: rgb(14,173,105); fill-opacity: 1; stroke: rgb(0,0,0); stroke-width: 3" />
	<polygon points="232.886538989366,-392.444072701406 231.001143606315,-467.395074133972 164.557302308477,-502.128678684646 " style="fill: rgb(14,173,105); fill-opacity: 1; stroke: rgb(0,0,0); stroke-width: 3" />
	<polygon points="299.385395383056,-279.462715134273 362.113461010634,-392.444072701406 297.500000000001,-354.413716566835 " style="fill: rgb(14,173,105); fill-opacity: 1; stroke: rgb(0,0,0); stroke-width: 3" />
	<polygon points="232.886538989366,-392.444072701406 164.557302308477,-502.128678684646 166.442697691528,-427.177677252078 " style="fill: rgb(14,173,105); fill-opacity: 1; stroke: rgb(0,0,0); stroke-width: 3" />
	<polygon points="363.998856393688,-317.493071268844 362.113461010634,-392.444072701406 299.385395383056,-279.462715134273 " style="fill: rgb(14,173,105); fill-opacity: 1; stroke: rgb(0,0,0); stroke-width: 3" />
	<polygon points="232.886538989366,-392.444072701406 164.557302308478,-282.759466718167 231.001143606317,-317.493071268841 " style="fill: rgb(14,173,105); fill-opacity: 1; stroke: rgb(0,0,0); stroke-width: 3" />
	<polygon points="363.998856393683,-467.395074133977 362.113461010634,-392.444072701406 430.442697691527,-502.128678684644 " style="fill: rgb(14,173,105); fill-opacity: 1; stroke: rgb(0,0,0); stroke-width: 3" />
	<polygon points="231.001143606315,-467.395074133972 295.614604616947,-505.425430268547 166.387682595681,-505.42543026854 " style="fill: rgb(14,173,105); fill-opacity: 1; stroke: rgb(0,0,0); stroke-width: 3" />
	<polygon points="232.886538989366,-392.444072701406 166.442697691529,-357.710468150735 164.557302308478,-282.759466718167 " style="fill: rgb(14,173,105); fill-opacity: 1; stroke: rgb(0,0,0); stroke-width: 3" />
	<polygon points="430.442697691527,-502.128678684644 362.113461010634,-392.444072701406 428.557302308474,-427.177677252079 " style="fill: rgb(14,173,105); fill-opacity: 1; stroke: rgb(0,0,0); stroke-width: 3" />
	<polygon points="166.387682595681,-505.42543026854 295.614604616947,-505.425430268547 231.001143606312,-543.455786403111 " style="fill: rgb(14,173,105); fill-opacity: 1; stroke: rgb(0,0,0); stroke-width: 3" />
	<polygon points="430.442697691533,-282.759466718175 362.113461010634,-392.444072701406 363.998856393688,-317.493071268844 " style="fill: rgb(14,173,105); fill-opacity: 1; stroke: rgb(0,0,0); stroke-width: 3" />
	<polygon points="299.385395383051,-505.425430268542 363.998856393683,-467.395074133977 428.612317404322,-505.425430268541 " style="fill: rgb(14,173,105); fill-opacity: 1; stroke: rgb(0,0,0); stroke-width: 3" />
	<polygon points="231.001143606317,-317.493071268841 166.387682595684,-279.46271513427 295.614604616952,-279.462715134273 " style="fill: rgb(14,173,105); fill-opacity: 1; stroke: rgb(0,0,0); stroke-width: 3" />
	<polygon points="428.557302308478,-357.710468150738 362.113461010634,-392.444072701406 430.442697691533,-282.759466718175 " style="fill: rgb(14,173,105); fill-opacity: 1; stroke: rgb(0,0,0); stroke-width: 3" />
	<polygon points="299.385395383051,-505.425430268542 428.612317404322,-505.425430268541 363.99885639368,-543.45578640311 " style="fill: rgb(14,173,105); fill-opacity: 1; stroke: rgb(0,0,0); stroke-width: 3" />
	<polygon points="295.614604616952,-279.462715134273 166.387682595684,-279.46271513427 231.001143606317,-241.432358999702 " style="fill: rgb(14,173,105); fill-opacity: 1; stroke: rgb(0,0,0); stroke-width: 3" />
	<polygon points="231.001143606312,-543.455786403111 295.614604616947,-505.425430268547 232.886538989367,-618.406787835676 " style="fill: rgb(14,173,105); fill-opacity: 1; stroke: rgb(0,0,0); stroke-width: 3" />
	<polygon points="428.612317404322,-279.462715134279 363.998856393688,-317.493071268844 299.385395383056,-279.462715134273 " style="fill: rgb(14,173,105); fill-opacity: 1; stroke: rgb(0,0,0); stroke-width: 3" />
	<polygon points="166.442697691528,-427.177677252078 164.557302308477,-502.128678684646 101.829236680892,-389.147321117506 " style="fill: rgb(14,173,105); fill-opacity: 1; stroke: rgb(0,0,0); stroke-width: 3" />
	<polygon points="299.385395383051,-505.425430268542 363.99885639368,-543.45578640311 362.113461010634,-618.406787835677 " style="fill: rgb(14,173,105); fill-opacity: 1; stroke: rgb(0,0,0); stroke-width: 3" />
	<polygon points="428.612317404322,-279.462715134279 299.385395383056,-279.462715134273 363.99885639369,-241.432358999704 " style="fill: rgb(14,173,105); fill-opacity: 1; stroke: rgb(0,0,0); stroke-width: 3" />
	<polygon points="101.829236680892,-389.147321117506 164.557302308477,-502.128678684646 99.9438412978427,-464.098322550076 " style="fill: rgb(14,173,105); fill-opacity: 1; stroke: rgb(0,0,0); stroke-width: 3" />
	<polygon points="295.614604616952,-279.462715134273 231.001143606317,-241.432358999702 232.886538989372,-166.481357567133 " style="fill: rgb(14,173,105); fill-opacity: 1; stroke: rgb(0,0,0); stroke-width: 3" />
	<polygon points="166.387682595681,-505.42543026854 231.001143606312,-543.455786403111 229.11574822326,-618.406787835682 " style="fill: rgb(14,173,105); fill-opacity: 1; stroke: rgb(0,0,0); stroke-width: 3" />
	<polygon points="430.442697691527,-502.128678684644 428.557302308474,-427.177677252079 493.170763319108,-389.14732111751 " style="fill: rgb(14,173,105); fill-opacity: 1; stroke: rgb(0,0,0); stroke-width: 3" />
	<polygon points="363.99885639369,-241.432358999704 299.385395383056,-279.462715134273 362.113461010637,-166.481357567142 " style="fill: rgb(14,173,105); fill-opacity: 1; stroke: rgb(0,0,0); stroke-width: 3" />
	<polygon points="166.387682595681,-505.42543026854 229.11574822326,-618.406787835682 164.502287212631,-580.376431701108 " style="fill: rgb(14,173,105); fill-opacity: 1; stroke: rgb(0,0,0); stroke-width: 3" />
	<polygon points="430.442697691527,-502.128678684644 493.170763319108,-389.14732111751 495.05615870216,-464.098322550073 " style="fill: rgb(14,173,105); fill-opacity: 1; stroke: rgb(0,0,0); stroke-width: 3" />
	<polygon points="99.9438412978427,-464.098322550076 164.557302308477,-502.128678684646 35.3303802872054,-502.12867868464 " style="fill: rgb(14,173,105); fill-opacity: 1; stroke: rgb(0,0,0); stroke-width: 3" />
	<polygon points="231.001143606317,-241.432358999702 166.387682595684,-279.46271513427 229.115748223266,-166.481357567137 " style="fill: rgb(14,173,105); fill-opacity: 1; stroke: rgb(0,0,0); stroke-width: 3" />
	<polygon points="363.99885639368,-543.45578640311 428.612317404322,-505.425430268541 365.88425177673,-618.406787835677 " style="fill: rgb(14,173,105); fill-opacity: 1; stroke: rgb(0,0,0); stroke-width: 3" />
	<polygon points="166.387682595681,-505.42543026854 164.502287212631,-580.376431701108 98.0584459147854,-615.110036251785 " style="fill: rgb(14,173,105); fill-opacity: 1; stroke: rgb(0,0,0); stroke-width: 3" />
	<polygon points="166.387682595684,-279.46271513427 164.502287212633,-204.511713701705 229.115748223266,-166.481357567137 " style="fill: rgb(14,173,105); fill-opacity: 1; stroke: rgb(0,0,0); stroke-width: 3" />
	<polygon points="365.88425177673,-618.406787835677 428.612317404322,-505.425430268541 430.497712787366,-580.376431701108 " style="fill: rgb(14,173,105); fill-opacity: 1; stroke: rgb(0,0,0); stroke-width: 3" />
	<polygon points="101.829236680892,-389.147321117506 99.9438412978427,-464.098322550076 33.5,-498.831927100746 " style="fill: rgb(14,173,105); fill-opacity: 1; stroke: rgb(0,0,0); stroke-width: 3" />
	<polygon points="430.442697691527,-502.128678684644 495.05615870216,-464.098322550073 559.669619712802,-502.128678684643 " style="fill: rgb(14,173,105); fill-opacity: 1; stroke: rgb(0,0,0); stroke-width: 3" />
	<polygon points="428.612317404322,-279.462715134279 363.99885639369,-241.432358999704 365.88425177675,-166.481357567136 " style="fill: rgb(14,173,105); fill-opacity: 1; stroke: rgb(0,0,0); stroke-width: 3" />
	<polygon points="166.387682595684,-279.46271513427 98.0584459147952,-169.778109151032 164.502287212633,-204.511713701705 " style="fill: rgb(14,173,105); fill-opacity: 1; stroke: rgb(0,0,0); stroke-width: 3" />
	<polygon points="430.497712787366,-580.376431701108 428.612317404322,-505.425430268541 496.941554085203,-615.110036251777 " style="fill: rgb(14,173,105); fill-opacity: 1; stroke: rgb(0,0,0); stroke-width: 3" />
	<polygon points="430.49771278738,-204.511713701712 428.612317404322,-279.462715134279 365.88425177675,-166.481357567136 " style="fill: rgb(14,173,105); fill-opacity: 1; stroke: rgb(0,0,0); stroke-width: 3" />
	<polygon points="495.05615870216,-464.098322550073 493.170763319108,-389.14732111751 561.5,-498.831927100744 " style="fill: rgb(14,173,105); fill-opacity: 1; stroke: rgb(0,0,0); stroke-width: 3" />
	<polygon points="164.502287212631,-580.376431701108 229.11574822326,-618.406787835682 99.8888262019917,-618.406787835676 " style="fill: rgb(14,173,105); fill-opacity: 1; stroke: rgb(0,0,0); stroke-width: 3" />
	<polygon points="496.941554085227,-169.778109151044 428.612317404322,-279.462715134279 430.49771278738,-204.511713701712 " style="fill: rgb(14,173,105); fill-opacity: 1; stroke: rgb(0,0,0); stroke-width: 3" />
	<polygon points="99.8888262019917,-618.406787835676 229.11574822326,-618.406787835682 164.502287212627,-656.437143970248 " style="fill: rgb(14,173,105); fill-opacity: 1; stroke: rgb(0,0,0); stroke-width: 3" />
	<polygon points="365.88425177673,-618.406787835677 430.497712787366,-580.376431701108 495.111173798005,-618.40678783568 " style="fill: rgb(14,173,105); fill-opacity: 1; stroke: rgb(0,0,0); stroke-width: 3" />
	<polygon points="164.502287212633,-204.511713701705 99.8888262020001,-166.481357567133 229.115748223266,-166.481357567137 " style="fill: rgb(14,173,105); fill-opacity: 1; stroke: rgb(0,0,0); stroke-width: 3" />
	<polygon points="365.88425177673,-618.406787835677 495.111173798005,-618.40678783568 430.497712787369,-656.437143970247 " style="fill: rgb(14,173,105); fill-opacity: 1; stroke: rgb(0,0,0); stroke-width: 3" />
	<polygon points="229.115748223266,-166.481357567137 99.8888262020001,-166.481357567133 164.502287212632,-128.451001432564 " style="fill: rgb(14,173,105); fill-opacity: 1; stroke: rgb(0,0,0); stroke-width: 3" />
	<polygon points="495.111173798017,-166.481357567151 430.49771278738,-204.511713701712 365.88425177675,-166.481357567136 " style="fill: rgb(14,173,105); fill-opacity: 1; stroke: rgb(0,0,0); stroke-width: 3" />
	<polygon points="495.111173798017,-166.481357567151 365.88425177675,-166.481357567136 430.497712787384,-128.451001432567 " style="fill: rgb(14,173,105); fill-opacity: 1; stroke: rgb(0,0,0); stroke-width: 3" />
	<polygon points="164.502287212627,-656.437143970248 162.616891829566,-731.38814540282 99.8888262019917,-618.406787835676 " style="fill: rgb(14,173,105); fill-opacity: 1; stroke: rgb(0,0,0); stroke-width: 3" />
	<polygon points="99.8888262020001,-166.481357567133 162.61689182958,-53.5 164.502287212632,-128.451001432564 " style="fill: rgb(14,173,105); fill-opacity: 1; stroke: rgb(0,0,0); stroke-width: 3" />
	<circle cx="232.886538989366" cy="-392.444072701406" r="2" style="fill: rgb(0,0,0)" />
	<circle cx="362.113461010634" cy="-392.444072701406" r="2" style="fill: rgb(0,0,0)" />
	<circle cx="297.499999999998" cy="-430.474428835977" r="2" style="fill: rgb(0,0,0)" />
	<circle cx="297.500000000001" cy="-354.413716566835" r="2" style="fill: rgb(0,0,0)" />
	<circle cx="295.614604616947" cy="-505.425430268547" r="2" style="fill: rgb(0,0,0)" />
	<circle cx="299.385395383051" cy="-505.425430268542" r="2" style="fill: rgb(0,0,0)" />
	<circle cx="295.614604616952" cy="-279.462715134273" r="2" style="fill: rgb(0,0,0)" />
	<circle cx="299.385395383056" cy="-279.462715134273" r="2" style="fill: rgb(0,0,0)" />
	<circle cx="231.001143606315" cy="-467.395074133972" r="2" style="fill: rgb(0,0,0)" />
	<circle cx="363.998856393683" cy="-467.395074133977" r="2" style="fill: rgb(0,0,0)" />
	<circle cx="231.001143606317" cy="-317.493071268841" r="2" style="fill: rgb(0,0,0)" />
	<circle cx="363.998856393688" cy="-317.493071268844" r="2" style="fill: rgb(0,0,0)" />
	<circle cx="164.557302308477" cy="-502.128678684646" r="2" style="fill: rgb(0,0,0)" />
	<circle cx="166.387682595681" cy="-505.42543026854" r="2" style="fill: rgb(0,0,0)" />
	<circle cx="430.442697691527" cy="-502.128678684644" r="2" style="fill: rgb(0,0,0)" />
	<circle cx="428.612317404322" cy="-505.425430268541" r="2" style="fill: rgb(0,0,0)" />
	<circle cx="164.557302308478" cy="-282.759466718167" r="2" style="fill: rgb(0,0,0)" />
	<circle cx="166.387682595684" cy="-279.46271513427" r="2" style="fill: rgb(0,0,0)" />
	<circle cx="430.442697691533" cy="-282.759466718175" r="2" style="fill: rgb(0,0,0)" />
	<circle cx="428.612317404322" cy="-279.462715134279" r="2" style="fill: rgb(0,0,0)" />
	<circle cx="166.442697691528" cy="-427.177677252078" r="2" style="fill: rgb(0,0,0)" />
	<circle cx="231.001143606312" cy="-543.455786403111" r="2" style="fill: rgb(0,0,0)" />
	<circle cx="428.557302308474" cy="-427.177677252079" r="2" style="fill: rgb(0,0,0)" />
	<circle cx="363.99885639368" cy="-543.45578640311" r="2" style="fill: rgb(0,0,0)" />
	<circle cx="166.442697691529" cy="-357.710468150735" r="2" style="fill: rgb(0,0,0)" />
	<circle cx="231.001143606317" cy="-241.432358999702" r="2" style="fill: rgb(0,0,0)" />
	<circle cx="428.557302308478" cy="-357.710468150738" r="2" style="fill: rgb(0,0,0)" />
	<circle cx="363.99885639369" cy="-241.432358999704" r="2" style="fill: rgb(0,0,0)" />
	<circle cx="101.829236680892" cy="-389.147321117506" r="2" style="fill: rgb(0,0,0)" />
	<circle cx="232.886538989367" cy="-618.406787835676" r="2" style="fill: rgb(0,0,0)" />
	<circle cx="229.11574822326" cy="-618.406787835682" r="2" style="fill: rgb(0,0,0)" />
	<circle cx="493.170763319108" cy="-389.14732111751" r="2" style="fill: rgb(0,0,0)" />
	<circle cx="362.113461010634" cy="-618.406787835677" r="2" style="fill: rgb(0,0,0)" />
	<circle cx="365.88425177673" cy="-618.406787835677" r="2" style="fill: rgb(0,0,0)" />
	<circle cx="232.886538989372" cy="-166.481357567133" r="2" style="fill: rgb(0,0,0)" />
	<circle cx="229.115748223266" cy="-166.481357567137" r="2" style="fill: rgb(0,0,0)" />
	<circle cx="362.113461010637" cy="-166.481357567142" r="2" style="fill: rgb(0,0,0)" />
	<circle cx="365.88425177675" cy="-166.481357567136" r="2" style="fill: rgb(0,0,0)" />
	<circle cx="99.9438412978427" cy="-464.098322550076" r="2" style="fill: rgb(0,0,0)" />
	<circle cx="164.502287212631" cy="-580.376431701108" r="2" style="fill: rgb(0,0,0)" />
	<circle cx="495.05615870216" cy="-464.098322550073" r="2" style="fill: rgb(0,0,0)" />
	<circle cx="430.497712787366" cy="-580.376431701108" r="2" style="fill: rgb(0,0,0)" />
	<circle cx="164.502287212633" cy="-204.511713701705" r="2" style="fill: rgb(0,0,0)" />
	<circle cx="430.49771278738" cy="-204.511713701712" r="2" style="fill: rgb(0,0,0)" />
	<circle cx="35.3303802872054" cy="-502.12867868464" r="2" style="fill: rgb(0,0,0)" />
	<circle cx="33.5" cy="-498.831927100746" r="2" style="fill: rgb(0,0,0)" />
	<circle cx="98.0584459147854" cy="-615.110036251785" r="2" style="fill: rgb(0,0,0)" />
	<circle cx="99.8888262019917" cy="-618.406787835676" r="2" style="fill: rgb(0,0,0)" />
	<circle cx="559.669619712802" cy="-502.128678684643" r="2" style="fill: rgb(0,0,0)" />
	<circle cx="561.5" cy="-498.831927100744" r="2" style="fill: rgb(0,0,0)" />
	<circle cx="496.941554085203" cy="-615.110036251777" r="2" style="fill: rgb(0,0,0)" />
	<circle cx="495.111173798005" cy="-618.40678783568" r="2" style="fill: rgb(0,0,0)" />
	<circle cx="98.0584459147952" cy="-169.778109151032" r="2" style="fill: rgb(0,0,0)" />
	<circle cx="99.8888262020001" cy="-166.481357567133" r="2" style="fill: rgb(0,0,0)" />
	<circle cx="496.941554085227" cy="-169.778109151044" r="2" style="fill: rgb(0,0,0)" />
	<circle cx="495.111173798017" cy="-166.481357567151" r="2" style="fill: rgb(0,0,0)" />
	<circle cx="164.502287212627" cy="-656.437143970248" r="2" style="fill: rgb(0,0,0)" />
	<circle cx="430.497712787369" cy="-656.437143970247" r="2" style="fill: rgb(0,0,0)" />
	<circle cx="164.502287212632" cy="-128.451001432564" r="2" style="fill: rgb(0,0,0)" />
	<circle cx="430.497712787384" cy="-128.451001432567" r="2" style="fill: rgb(0,0,0)" />
	<circle cx="162.616891829566" cy="-731.38814540282" r="2" style="fill: rgb(0,0,0)" />
	<circle cx="162.61689182958" cy="-53.5" r="2" style="fill: rgb(0,0,0)" />
	<!-- 
	Generated using the Perl SVG Module V2.64
	by Ronan Oger
	Info: http://www.roitsystems.com/
 -->
</svg>