<?xml version="1.0" encoding="UTF-8" standalone="yes"?>
<!DOCTYPE svg PUBLIC "-//W3C//DTD SVG 1.0//EN" "http://www.w3.org/TR/2001/REC-SVG-20010904/DTD/svg10.dtd">
<!-- generated using polymake; Michael Joswig, Georg Loho, Benjamin Lorenz, Rico Raber; license CC BY-NC-ND 3.0; see polymake.org and matchthenet.de -->
<svg height="841pt" id="document" viewBox="0 -789.640824959863 572 789.640824959863" width="595pt" xmlns="http://www.w3.org/2000/svg" xmlns:svg="http://www.w3.org/2000/svg" xmlns:xlink="http://www.w3.org/1999/xlink">
	<title id="document_title">planar_net_</title>
	<polygon points="227.100000000017,-403.320412479936 385.499999999999,-403.320412479936 306.299999999999,-491.868704388917 " style="fill: rgb(14,173,105); fill-opacity: 1; stroke: rgb(0,0,0); stroke-width: 3" />
	<polygon points="306.300000000017,-314.772120570954 385.499999999999,-403.320412479936 227.100000000017,-403.320412479936 " style="fill: rgb(14,173,105); fill-opacity: 1; stroke: rgb(0,0,0); stroke-width: 3" />
	<polygon points="227.100000000017,-403.320412479936 306.299999999999,-491.868704388917 209.500000000006,-560.739598095903 " style="fill: rgb(14,173,105); fill-opacity: 1; stroke: rgb(0,0,0); stroke-width: 3" />
	<polygon points="227.100000000017,-403.320412479936 209.500000000006,-560.739598095903 130.300000000023,-472.191306186906 " style="fill: rgb(14,173,105); fill-opacity: 1; stroke: rgb(0,0,0); stroke-width: 3" />
	<polygon points="227.100000000017,-403.320412479936 209.500000000028,-245.901226863962 306.300000000017,-314.772120570954 " style="fill: rgb(14,173,105); fill-opacity: 1; stroke: rgb(0,0,0); stroke-width: 3" />
	<polygon points="306.299999999999,-491.868704388917 385.499999999999,-403.320412479936 403.099999999988,-560.739598095898 " style="fill: rgb(14,173,105); fill-opacity: 1; stroke: rgb(0,0,0); stroke-width: 3" />
	<polygon points="227.100000000017,-403.320412479936 130.300000000031,-334.449518772935 209.500000000028,-245.901226863962 " style="fill: rgb(14,173,105); fill-opacity: 1; stroke: rgb(0,0,0); stroke-width: 3" />
	<polygon points="403.099999999988,-560.739598095898 385.499999999999,-403.320412479936 482.299999999985,-472.191306186936 " style="fill: rgb(14,173,105); fill-opacity: 1; stroke: rgb(0,0,0); stroke-width: 3" />
	<polygon points="403.100000000012,-245.901226863969 385.499999999999,-403.320412479936 306.300000000017,-314.772120570954 " style="fill: rgb(14,173,105); fill-opacity: 1; stroke: rgb(0,0,0); stroke-width: 3" />
	<polygon points="306.299999999999,-491.868704388917 363.988888888884,-595.7216393439 209.500000000006,-560.739598095903 " style="fill: rgb(14,173,105); fill-opacity: 1; stroke: rgb(0,0,0); stroke-width: 3" />
	<polygon points="482.299999999994,-334.449518772967 385.499999999999,-403.320412479936 403.100000000012,-245.901226863969 " style="fill: rgb(14,173,105); fill-opacity: 1; stroke: rgb(0,0,0); stroke-width: 3" />
	<polygon points="209.500000000006,-560.739598095903 363.988888888884,-595.7216393439 267.188888888885,-664.592533050882 " style="fill: rgb(14,173,105); fill-opacity: 1; stroke: rgb(0,0,0); stroke-width: 3" />
	<polygon points="130.300000000023,-472.191306186906 209.500000000006,-560.739598095903 51.1000000000282,-560.739598095881 " style="fill: rgb(14,173,105); fill-opacity: 1; stroke: rgb(0,0,0); stroke-width: 3" />
	<polygon points="363.988888888905,-210.919185615974 306.300000000017,-314.772120570954 209.500000000028,-245.901226863962 " style="fill: rgb(14,173,105); fill-opacity: 1; stroke: rgb(0,0,0); stroke-width: 3" />
	<polygon points="209.500000000006,-560.739598095903 130.300000000006,-649.287890004884 51.1000000000282,-560.739598095881 " style="fill: rgb(14,173,105); fill-opacity: 1; stroke: rgb(0,0,0); stroke-width: 3" />
	<polygon points="363.988888888905,-210.919185615974 209.500000000028,-245.901226863962 267.188888888923,-142.048291908984 " style="fill: rgb(14,173,105); fill-opacity: 1; stroke: rgb(0,0,0); stroke-width: 3" />
	<polygon points="130.300000000031,-334.449518772935 51.1000000000419,-245.901226863946 209.500000000028,-245.901226863962 " style="fill: rgb(14,173,105); fill-opacity: 1; stroke: rgb(0,0,0); stroke-width: 3" />
	<polygon points="403.099999999988,-560.739598095898 482.299999999985,-472.191306186936 561.49999999997,-560.739598095931 " style="fill: rgb(14,173,105); fill-opacity: 1; stroke: rgb(0,0,0); stroke-width: 3" />
	<polygon points="209.500000000028,-245.901226863962 51.1000000000419,-245.901226863946 130.300000000042,-157.352934954964 " style="fill: rgb(14,173,105); fill-opacity: 1; stroke: rgb(0,0,0); stroke-width: 3" />
	<polygon points="363.988888888884,-595.7216393439 346.388888888875,-753.140824959863 267.188888888885,-664.592533050882 " style="fill: rgb(14,173,105); fill-opacity: 1; stroke: rgb(0,0,0); stroke-width: 3" />
	<polygon points="482.299999999994,-334.449518772967 403.100000000012,-245.901226863969 561.5,-245.901226863993 " style="fill: rgb(14,173,105); fill-opacity: 1; stroke: rgb(0,0,0); stroke-width: 3" />
	<polygon points="346.388888888921,-53.5 363.988888888905,-210.919185615974 267.188888888923,-142.048291908984 " style="fill: rgb(14,173,105); fill-opacity: 1; stroke: rgb(0,0,0); stroke-width: 3" />
	<polygon points="130.300000000006,-649.287890004884 33.5,-718.158783711857 51.1000000000282,-560.739598095881 " style="fill: rgb(14,173,105); fill-opacity: 1; stroke: rgb(0,0,0); stroke-width: 3" />
	<polygon points="33.5000000000523,-88.4820412479733 130.300000000042,-157.352934954964 51.1000000000419,-245.901226863946 " style="fill: rgb(14,173,105); fill-opacity: 1; stroke: rgb(0,0,0); stroke-width: 3" />
	<circle cx="227.100000000017" cy="-403.320412479936" r="2" style="fill: rgb(0,0,0)" />
	<circle cx="385.499999999999" cy="-403.320412479936" r="2" style="fill: rgb(0,0,0)" />
	<circle cx="306.299999999999" cy="-491.868704388917" r="2" style="fill: rgb(0,0,0)" />
	<circle cx="306.300000000017" cy="-314.772120570954" r="2" style="fill: rgb(0,0,0)" />
	<circle cx="209.500000000006" cy="-560.739598095903" r="2" style="fill: rgb(0,0,0)" />
	<circle cx="403.099999999988" cy="-560.739598095898" r="2" style="fill: rgb(0,0,0)" />
	<circle cx="209.500000000028" cy="-245.901226863962" r="2" style="fill: rgb(0,0,0)" />
	<circle cx="403.100000000012" cy="-245.901226863969" r="2" style="fill: rgb(0,0,0)" />
	<circle cx="130.300000000023" cy="-472.191306186906" r="2" style="fill: rgb(0,0,0)" />
	<circle cx="363.988888888884" cy="-595.7216393439" r="2" style="fill: rgb(0,0,0)" />
	<circle cx="482.299999999985" cy="-472.191306186936" r="2" style="fill: rgb(0,0,0)" />
	<circle cx="130.300000000031" cy="-334.449518772935" r="2" style="fill: rgb(0,0,0)" />
	<circle cx="363.988888888905" cy="-210.919185615974" r="2" style="fill: rgb(0,0,0)" />
	<circle cx="482.299999999994" cy="-334.449518772967" r="2" style="fill: rgb(0,0,0)" />
	<circle cx="51.1000000000282" cy="-560.739598095881" r="2" style="fill: rgb(0,0,0)" />
	<circle cx="267.188888888885" cy="-664.592533050882" r="2" style="fill: rgb(0,0,0)" />
	<circle cx="561.49999999997" cy="-560.739598095931" r="2" style="fill: rgb(0,0,0)" />
	<circle cx="51.1000000000419" cy="-245.901226863946" r="2" style="fill: rgb(0,0,0)" />
	<circle cx="267.188888888923" cy="-142.048291908984" r="2" style="fill: rgb(0,0,0)" />
	<circle cx="561.5" cy="-245.901226863993" r="2" style="fill: rgb(0,0,0)" />
	<circle cx="130.300000000006" cy="-649.287890004884" r="2" style="fill: rgb(0,0,0)" />
	<circle cx="346.388888888875" cy="-753.140824959863" r="2" style="fill: rgb(0,0,0)" />
	<circle cx="130.300000000042" cy="-157.352934954964" r="2" style="fill: rgb(0,0,0)" />
	<circle cx="346.388888888921" cy="-53.5" r="2" style="fill: rgb(0,0,0)" />
	<circle cx="33.5" cy="-718.158783711857" r="2" style="fill: rgb(0,0,0)" />
	<circle cx="33.5000000000523" cy="-88.4820412479733" r="2" style="fill: rgb(0,0,0)" />
	<!--
	Generated using the Perl SVG Module V2.86
	by Ronan Oger
	Info: http://www.roitsystems.com/
	-->
</svg>