<?xml version="1.0" encoding="UTF-8" standalone="yes"?>
<!DOCTYPE svg PUBLIC "-//W3C//DTD SVG 1.0//EN" "http://www.w3.org/TR/2001/REC-SVG-20010904/DTD/svg10.dtd">
<!-- generated using polymake; Michael Joswig, Georg Loho, Benjamin Lorenz, Rico Raber; license CC BY-NC-ND 3.0; see polymake.org and matchthenet.de -->
<svg height="841pt" id="document" viewBox="0 -789.64082495988 572 789.64082495988" width="595pt" xmlns="http://www.w3.org/2000/svg" xmlns:svg="http://www.w3.org/2000/svg" xmlns:xlink="http://www.w3.org/1999/xlink">
	<title id="document_title">planar_net_</title>
	<polygon points="227.100000000015,-403.320412479941 385.5,-403.320412479941 306.299999999998,-491.868704388924 " style="fill: rgb(42,107,61); fill-opacity: 1; stroke: rgb(0,0,0); stroke-width: 3" />
	<polygon points="306.300000000017,-314.772120570958 385.5,-403.320412479941 227.100000000015,-403.320412479941 " style="fill: rgb(42,107,61); fill-opacity: 1; stroke: rgb(0,0,0); stroke-width: 3" />
	<polygon points="227.100000000015,-403.320412479941 306.299999999998,-491.868704388924 209.500000000004,-560.73959809591 " style="fill: rgb(42,107,61); fill-opacity: 1; stroke: rgb(0,0,0); stroke-width: 3" />
	<polygon points="227.100000000015,-403.320412479941 209.500000000004,-560.73959809591 130.30000000002,-472.191306186912 " style="fill: rgb(42,107,61); fill-opacity: 1; stroke: rgb(0,0,0); stroke-width: 3" />
	<polygon points="227.100000000015,-403.320412479941 209.500000000026,-245.901226863965 306.300000000017,-314.772120570958 " style="fill: rgb(42,107,61); fill-opacity: 1; stroke: rgb(0,0,0); stroke-width: 3" />
	<polygon points="306.299999999998,-491.868704388924 385.5,-403.320412479941 403.099999999989,-560.739598095914 " style="fill: rgb(42,107,61); fill-opacity: 1; stroke: rgb(0,0,0); stroke-width: 3" />
	<polygon points="227.100000000015,-403.320412479941 130.300000000028,-334.44951877294 209.500000000026,-245.901226863965 " style="fill: rgb(42,107,61); fill-opacity: 1; stroke: rgb(0,0,0); stroke-width: 3" />
	<polygon points="403.099999999989,-560.739598095914 385.5,-403.320412479941 482.299999999987,-472.191306186942 " style="fill: rgb(42,107,61); fill-opacity: 1; stroke: rgb(0,0,0); stroke-width: 3" />
	<polygon points="403.100000000013,-245.901226863972 385.5,-403.320412479941 306.300000000017,-314.772120570958 " style="fill: rgb(42,107,61); fill-opacity: 1; stroke: rgb(0,0,0); stroke-width: 3" />
	<polygon points="306.299999999998,-491.868704388924 363.988888888884,-595.721639343907 209.500000000004,-560.73959809591 " style="fill: rgb(42,107,61); fill-opacity: 1; stroke: rgb(0,0,0); stroke-width: 3" />
	<polygon points="482.299999999996,-334.449518772971 385.5,-403.320412479941 403.100000000013,-245.901226863972 " style="fill: rgb(42,107,61); fill-opacity: 1; stroke: rgb(0,0,0); stroke-width: 3" />
	<polygon points="209.500000000004,-560.73959809591 363.988888888884,-595.721639343907 267.188888888884,-664.59253305089 " style="fill: rgb(42,107,61); fill-opacity: 1; stroke: rgb(0,0,0); stroke-width: 3" />
	<polygon points="130.30000000002,-472.191306186912 209.500000000004,-560.73959809591 51.1000000000144,-560.739598095888 " style="fill: rgb(42,107,61); fill-opacity: 1; stroke: rgb(0,0,0); stroke-width: 3" />
	<polygon points="363.988888888907,-210.919185615977 306.300000000017,-314.772120570958 209.500000000026,-245.901226863965 " style="fill: rgb(42,107,61); fill-opacity: 1; stroke: rgb(0,0,0); stroke-width: 3" />
	<polygon points="209.500000000004,-560.73959809591 130.300000000003,-649.287890004893 51.1000000000144,-560.739598095888 " style="fill: rgb(42,107,61); fill-opacity: 1; stroke: rgb(0,0,0); stroke-width: 3" />
	<polygon points="363.988888888907,-210.919185615977 209.500000000026,-245.901226863965 267.188888888922,-142.048291908986 " style="fill: rgb(42,107,61); fill-opacity: 1; stroke: rgb(0,0,0); stroke-width: 3" />
	<polygon points="130.300000000028,-334.44951877294 51.1000000000376,-245.901226863949 209.500000000026,-245.901226863965 " style="fill: rgb(42,107,61); fill-opacity: 1; stroke: rgb(0,0,0); stroke-width: 3" />
	<polygon points="403.099999999989,-560.739598095914 482.299999999987,-472.191306186942 561.499999999978,-560.739598095934 " style="fill: rgb(42,107,61); fill-opacity: 1; stroke: rgb(0,0,0); stroke-width: 3" />
	<polygon points="209.500000000026,-245.901226863965 51.1000000000376,-245.901226863949 130.300000000039,-157.352934954967 " style="fill: rgb(42,107,61); fill-opacity: 1; stroke: rgb(0,0,0); stroke-width: 3" />
	<polygon points="363.988888888884,-595.721639343907 346.388888888874,-753.14082495988 267.188888888884,-664.59253305089 " style="fill: rgb(42,107,61); fill-opacity: 1; stroke: rgb(0,0,0); stroke-width: 3" />
	<polygon points="482.299999999996,-334.449518772971 403.100000000013,-245.901226863972 561.5,-245.901226863996 " style="fill: rgb(42,107,61); fill-opacity: 1; stroke: rgb(0,0,0); stroke-width: 3" />
	<polygon points="346.388888888919,-53.5 363.988888888907,-210.919185615977 267.188888888922,-142.048291908986 " style="fill: rgb(42,107,61); fill-opacity: 1; stroke: rgb(0,0,0); stroke-width: 3" />
	<polygon points="130.300000000003,-649.287890004893 33.5,-718.158783711872 51.1000000000144,-560.739598095888 " style="fill: rgb(42,107,61); fill-opacity: 1; stroke: rgb(0,0,0); stroke-width: 3" />
	<polygon points="33.5000000000476,-88.4820412479747 130.300000000039,-157.352934954967 51.1000000000376,-245.901226863949 " style="fill: rgb(42,107,61); fill-opacity: 1; stroke: rgb(0,0,0); stroke-width: 3" />
	<circle cx="227.100000000015" cy="-403.320412479941" r="2" style="fill: rgb(0,0,0)" />
	<circle cx="385.5" cy="-403.320412479941" r="2" style="fill: rgb(0,0,0)" />
	<circle cx="306.299999999998" cy="-491.868704388924" r="2" style="fill: rgb(0,0,0)" />
	<circle cx="306.300000000017" cy="-314.772120570958" r="2" style="fill: rgb(0,0,0)" />
	<circle cx="209.500000000004" cy="-560.73959809591" r="2" style="fill: rgb(0,0,0)" />
	<circle cx="403.099999999989" cy="-560.739598095914" r="2" style="fill: rgb(0,0,0)" />
	<circle cx="209.500000000026" cy="-245.901226863965" r="2" style="fill: rgb(0,0,0)" />
	<circle cx="403.100000000013" cy="-245.901226863972" r="2" style="fill: rgb(0,0,0)" />
	<circle cx="130.30000000002" cy="-472.191306186912" r="2" style="fill: rgb(0,0,0)" />
	<circle cx="363.988888888884" cy="-595.721639343907" r="2" style="fill: rgb(0,0,0)" />
	<circle cx="482.299999999987" cy="-472.191306186942" r="2" style="fill: rgb(0,0,0)" />
	<circle cx="130.300000000028" cy="-334.44951877294" r="2" style="fill: rgb(0,0,0)" />
	<circle cx="363.988888888907" cy="-210.919185615977" r="2" style="fill: rgb(0,0,0)" />
	<circle cx="482.299999999996" cy="-334.449518772971" r="2" style="fill: rgb(0,0,0)" />
	<circle cx="51.1000000000144" cy="-560.739598095888" r="2" style="fill: rgb(0,0,0)" />
	<circle cx="267.188888888884" cy="-664.59253305089" r="2" style="fill: rgb(0,0,0)" />
	<circle cx="561.499999999978" cy="-560.739598095934" r="2" style="fill: rgb(0,0,0)" />
	<circle cx="51.1000000000376" cy="-245.901226863949" r="2" style="fill: rgb(0,0,0)" />
	<circle cx="267.188888888922" cy="-142.048291908986" r="2" style="fill: rgb(0,0,0)" />
	<circle cx="561.5" cy="-245.901226863996" r="2" style="fill: rgb(0,0,0)" />
	<circle cx="130.300000000003" cy="-649.287890004893" r="2" style="fill: rgb(0,0,0)" />
	<circle cx="346.388888888874" cy="-753.14082495988" r="2" style="fill: rgb(0,0,0)" />
	<circle cx="130.300000000039" cy="-157.352934954967" r="2" style="fill: rgb(0,0,0)" />
	<circle cx="346.388888888919" cy="-53.5" r="2" style="fill: rgb(0,0,0)" />
	<circle cx="33.5" cy="-718.158783711872" r="2" style="fill: rgb(0,0,0)" />
	<circle cx="33.5000000000476" cy="-88.4820412479747" r="2" style="fill: rgb(0,0,0)" />
	<!--
	Generated using the Perl SVG Module V2.86
	by Ronan Oger
	Info: http://www.roitsystems.com/
	-->
</svg>