<?xml version="1.0" encoding="UTF-8" standalone="yes"?>
<!DOCTYPE svg PUBLIC "-//W3C//DTD SVG 1.0//EN" "http://www.w3.org/TR/2001/REC-SVG-20010904/DTD/svg10.dtd">
<!-- generated using polymake; Michael Joswig, Georg Loho, Benjamin Lorenz, Rico Raber; license CC BY-NC-ND 3.0; see polymake.org and matchthenet.de -->
<svg height="841pt" id="document" viewBox="0 -664.389070820509 572 664.389070820509" width="595pt" xmlns="http://www.w3.org/2000/svg" xmlns:svg="http://www.w3.org/2000/svg" xmlns:xlink="http://www.w3.org/1999/xlink">
	<title id="document_title">planar_net_</title>
	<polygon points="252.839215089332,-340.694535410259 318.056427454726,-340.694535410259 294.280022043318,-401.423172266569 " style="fill: rgb(14,173,105); fill-opacity: 1; stroke: rgb(0,0,0); stroke-width: 3" />
	<polygon points="294.280022043315,-279.965898553952 318.056427454726,-340.694535410259 252.839215089332,-340.694535410259 " style="fill: rgb(14,173,105); fill-opacity: 1; stroke: rgb(0,0,0); stroke-width: 3" />
	<polygon points="252.839215089332,-340.694535410259 294.280022043318,-401.423172266569 229.062809677918,-401.423172266562 " style="fill: rgb(14,173,105); fill-opacity: 1; stroke: rgb(0,0,0); stroke-width: 3" />
	<polygon points="294.280022043318,-401.423172266569 318.056427454726,-340.694535410259 365.937190322089,-384.97452339527 " style="fill: rgb(14,173,105); fill-opacity: 1; stroke: rgb(0,0,0); stroke-width: 3" />
	<polygon points="252.839215089332,-340.694535410259 229.062809677918,-401.423172266562 181.182046810561,-357.143184281546 " style="fill: rgb(14,173,105); fill-opacity: 1; stroke: rgb(0,0,0); stroke-width: 3" />
	<polygon points="252.839215089332,-340.694535410259 229.062809677925,-279.965898553945 294.280022043315,-279.965898553952 " style="fill: rgb(14,173,105); fill-opacity: 1; stroke: rgb(0,0,0); stroke-width: 3" />
	<polygon points="365.937190322081,-296.414547425243 318.056427454726,-340.694535410259 294.280022043315,-279.965898553952 " style="fill: rgb(14,173,105); fill-opacity: 1; stroke: rgb(0,0,0); stroke-width: 3" />
	<polygon points="229.062809677918,-401.423172266562 294.280022043318,-401.423172266569 252.839215089334,-462.151809122876 " style="fill: rgb(14,173,105); fill-opacity: 1; stroke: rgb(0,0,0); stroke-width: 3" />
	<polygon points="252.839215089332,-340.694535410259 181.182046810567,-324.245886538959 229.062809677925,-279.965898553945 " style="fill: rgb(14,173,105); fill-opacity: 1; stroke: rgb(0,0,0); stroke-width: 3" />
	<polygon points="294.280022043318,-401.423172266569 365.937190322089,-384.97452339527 342.160784910674,-445.70316025158 " style="fill: rgb(14,173,105); fill-opacity: 1; stroke: rgb(0,0,0); stroke-width: 3" />
	<polygon points="365.937190322089,-384.97452339527 318.056427454726,-340.694535410259 376.744856488474,-312.252434815119 " style="fill: rgb(14,173,105); fill-opacity: 1; stroke: rgb(0,0,0); stroke-width: 3" />
	<polygon points="181.182046810561,-357.143184281546 229.062809677918,-401.423172266562 170.374380644167,-429.865272861696 " style="fill: rgb(14,173,105); fill-opacity: 1; stroke: rgb(0,0,0); stroke-width: 3" />
	<polygon points="294.280022043315,-279.965898553952 229.062809677925,-279.965898553945 252.839215089334,-219.237261697634 " style="fill: rgb(14,173,105); fill-opacity: 1; stroke: rgb(0,0,0); stroke-width: 3" />
	<polygon points="294.280022043318,-401.423172266569 318.056427454724,-462.151809122883 252.839215089334,-462.151809122876 " style="fill: rgb(14,173,105); fill-opacity: 1; stroke: rgb(0,0,0); stroke-width: 3" />
	<polygon points="365.937190322081,-296.414547425243 294.280022043315,-279.965898553952 342.160784910678,-235.685910568939 " style="fill: rgb(14,173,105); fill-opacity: 1; stroke: rgb(0,0,0); stroke-width: 3" />
	<polygon points="229.062809677918,-401.423172266562 252.839215089334,-462.151809122876 181.182046810567,-445.703160251587 " style="fill: rgb(14,173,105); fill-opacity: 1; stroke: rgb(0,0,0); stroke-width: 3" />
	<polygon points="229.062809677925,-279.965898553945 181.182046810567,-324.245886538959 170.374380644175,-251.523797958815 " style="fill: rgb(14,173,105); fill-opacity: 1; stroke: rgb(0,0,0); stroke-width: 3" />
	<polygon points="342.160784910674,-445.70316025158 365.937190322089,-384.97452339527 407.37799727607,-445.703160251578 " style="fill: rgb(14,173,105); fill-opacity: 1; stroke: rgb(0,0,0); stroke-width: 3" />
	<polygon points="318.056427454733,-219.237261697648 294.280022043315,-279.965898553952 252.839215089334,-219.237261697634 " style="fill: rgb(14,173,105); fill-opacity: 1; stroke: rgb(0,0,0); stroke-width: 3" />
	<polygon points="365.937190322089,-384.97452339527 376.744856488474,-312.252434815119 424.625619355834,-356.532422800135 " style="fill: rgb(14,173,105); fill-opacity: 1; stroke: rgb(0,0,0); stroke-width: 3" />
	<polygon points="181.182046810561,-357.143184281546 170.374380644167,-429.865272861696 122.493617776812,-385.585284876674 " style="fill: rgb(14,173,105); fill-opacity: 1; stroke: rgb(0,0,0); stroke-width: 3" />
	<polygon points="229.062809677925,-279.965898553945 181.182046810563,-235.685910568933 252.839215089334,-219.237261697634 " style="fill: rgb(14,173,105); fill-opacity: 1; stroke: rgb(0,0,0); stroke-width: 3" />
	<polygon points="252.839215089334,-462.151809122876 318.056427454724,-462.151809122883 294.280022043316,-522.880445979194 " style="fill: rgb(14,173,105); fill-opacity: 1; stroke: rgb(0,0,0); stroke-width: 3" />
	<polygon points="365.937190322081,-296.414547425243 342.160784910678,-235.685910568939 407.377997276076,-235.685910568941 " style="fill: rgb(14,173,105); fill-opacity: 1; stroke: rgb(0,0,0); stroke-width: 3" />
	<polygon points="365.937190322089,-384.97452339527 431.154402687488,-384.974523395279 407.37799727607,-445.703160251578 " style="fill: rgb(14,173,105); fill-opacity: 1; stroke: rgb(0,0,0); stroke-width: 3" />
	<polygon points="181.182046810567,-324.245886538959 122.493617776816,-295.803785943819 170.374380644175,-251.523797958815 " style="fill: rgb(14,173,105); fill-opacity: 1; stroke: rgb(0,0,0); stroke-width: 3" />
	<polygon points="181.182046810567,-445.703160251587 252.839215089334,-462.151809122876 204.958452221972,-506.431797107891 " style="fill: rgb(14,173,105); fill-opacity: 1; stroke: rgb(0,0,0); stroke-width: 3" />
	<polygon points="342.160784910674,-445.70316025158 407.37799727607,-445.703160251578 365.937190322087,-506.431797107885 " style="fill: rgb(14,173,105); fill-opacity: 1; stroke: rgb(0,0,0); stroke-width: 3" />
	<polygon points="318.056427454733,-219.237261697648 252.839215089334,-219.237261697634 294.280022043317,-158.508624841327 " style="fill: rgb(14,173,105); fill-opacity: 1; stroke: rgb(0,0,0); stroke-width: 3" />
	<polygon points="424.625619355834,-356.532422800135 376.744856488474,-312.252434815119 448.40202476724,-295.803785943825 " style="fill: rgb(14,173,105); fill-opacity: 1; stroke: rgb(0,0,0); stroke-width: 3" />
	<polygon points="122.493617776812,-385.585284876674 170.374380644167,-429.865272861696 98.7172123653992,-446.313921732982 " style="fill: rgb(14,173,105); fill-opacity: 1; stroke: rgb(0,0,0); stroke-width: 3" />
	<polygon points="252.839215089334,-462.151809122876 294.280022043316,-522.880445979194 229.062809677916,-522.88044597918 " style="fill: rgb(14,173,105); fill-opacity: 1; stroke: rgb(0,0,0); stroke-width: 3" />
	<polygon points="252.839215089334,-219.237261697634 181.182046810563,-235.685910568933 204.958452221977,-174.957273712623 " style="fill: rgb(14,173,105); fill-opacity: 1; stroke: rgb(0,0,0); stroke-width: 3" />
	<polygon points="407.377997276076,-235.685910568941 342.160784910678,-235.685910568939 365.937190322087,-174.957273712628 " style="fill: rgb(14,173,105); fill-opacity: 1; stroke: rgb(0,0,0); stroke-width: 3" />
	<polygon points="407.37799727607,-445.703160251578 431.154402687488,-384.974523395279 479.035165554842,-429.254511380299 " style="fill: rgb(14,173,105); fill-opacity: 1; stroke: rgb(0,0,0); stroke-width: 3" />
	<polygon points="170.374380644175,-251.523797958815 122.493617776816,-295.803785943819 98.7172123654094,-235.075149087508 " style="fill: rgb(14,173,105); fill-opacity: 1; stroke: rgb(0,0,0); stroke-width: 3" />
	<polygon points="181.182046810567,-445.703160251587 204.958452221972,-506.431797107891 139.741239856575,-506.431797107891 " style="fill: rgb(14,173,105); fill-opacity: 1; stroke: rgb(0,0,0); stroke-width: 3" />
	<polygon points="294.280022043317,-158.508624841327 252.839215089334,-219.237261697634 229.062809677928,-158.50862484132 " style="fill: rgb(14,173,105); fill-opacity: 1; stroke: rgb(0,0,0); stroke-width: 3" />
	<polygon points="365.937190322087,-506.431797107885 407.37799727607,-445.703160251578 431.154402687477,-506.431797107892 " style="fill: rgb(14,173,105); fill-opacity: 1; stroke: rgb(0,0,0); stroke-width: 3" />
	<polygon points="424.625619355834,-356.532422800135 448.40202476724,-295.803785943825 489.84283172123,-356.532422800127 " style="fill: rgb(14,173,105); fill-opacity: 1; stroke: rgb(0,0,0); stroke-width: 3" />
	<polygon points="122.493617776812,-385.585284876674 98.7172123653992,-446.313921732982 57.2764054114165,-385.585284876675 " style="fill: rgb(14,173,105); fill-opacity: 1; stroke: rgb(0,0,0); stroke-width: 3" />
	<polygon points="229.062809677916,-522.88044597918 294.280022043316,-522.880445979194 252.839215089332,-583.609082835501 " style="fill: rgb(14,173,105); fill-opacity: 1; stroke: rgb(0,0,0); stroke-width: 3" />
	<polygon points="181.182046810563,-235.685910568933 139.741239856581,-174.957273712625 204.958452221977,-174.957273712623 " style="fill: rgb(14,173,105); fill-opacity: 1; stroke: rgb(0,0,0); stroke-width: 3" />
	<polygon points="407.37799727607,-445.703160251578 479.035165554842,-429.254511380299 455.258760143411,-489.983148236603 " style="fill: rgb(14,173,105); fill-opacity: 1; stroke: rgb(0,0,0); stroke-width: 3" />
	<polygon points="407.377997276076,-235.685910568941 365.937190322087,-174.957273712628 431.154402687487,-174.957273712635 " style="fill: rgb(14,173,105); fill-opacity: 1; stroke: rgb(0,0,0); stroke-width: 3" />
	<polygon points="139.741239856575,-506.431797107891 204.958452221972,-506.431797107891 181.182046810563,-567.160433964202 " style="fill: rgb(14,173,105); fill-opacity: 1; stroke: rgb(0,0,0); stroke-width: 3" />
	<polygon points="294.280022043317,-158.508624841327 229.062809677928,-158.50862484132 252.839215089336,-97.7799879850088 " style="fill: rgb(14,173,105); fill-opacity: 1; stroke: rgb(0,0,0); stroke-width: 3" />
	<polygon points="365.937190322087,-506.431797107885 431.154402687477,-506.431797107892 407.377997276069,-567.160433964203 " style="fill: rgb(14,173,105); fill-opacity: 1; stroke: rgb(0,0,0); stroke-width: 3" />
	<polygon points="489.84283172123,-356.532422800127 448.40202476724,-295.803785943825 513.61923713264,-295.803785943825 " style="fill: rgb(14,173,105); fill-opacity: 1; stroke: rgb(0,0,0); stroke-width: 3" />
	<polygon points="57.2764054114165,-385.585284876675 98.7172123653992,-446.313921732982 33.5,-446.313921732974 " style="fill: rgb(14,173,105); fill-opacity: 1; stroke: rgb(0,0,0); stroke-width: 3" />
	<polygon points="204.958452221977,-174.957273712623 139.741239856581,-174.957273712625 181.182046810564,-114.228636856318 " style="fill: rgb(14,173,105); fill-opacity: 1; stroke: rgb(0,0,0); stroke-width: 3" />
	<polygon points="455.258760143411,-489.983148236603 479.035165554842,-429.254511380299 520.475972508807,-489.983148236619 " style="fill: rgb(14,173,105); fill-opacity: 1; stroke: rgb(0,0,0); stroke-width: 3" />
	<polygon points="431.154402687487,-174.957273712635 365.937190322087,-174.957273712628 407.377997276071,-114.228636856321 " style="fill: rgb(14,173,105); fill-opacity: 1; stroke: rgb(0,0,0); stroke-width: 3" />
	<polygon points="139.741239856575,-506.431797107891 181.182046810563,-567.160433964202 115.964834445164,-567.160433964196 " style="fill: rgb(14,173,105); fill-opacity: 1; stroke: rgb(0,0,0); stroke-width: 3" />
	<polygon points="407.377997276069,-567.160433964203 431.154402687477,-506.431797107892 479.03516555484,-550.711785092903 " style="fill: rgb(14,173,105); fill-opacity: 1; stroke: rgb(0,0,0); stroke-width: 3" />
	<polygon points="489.84283172123,-356.532422800127 513.61923713264,-295.803785943825 561.5,-340.083773928839 " style="fill: rgb(14,173,105); fill-opacity: 1; stroke: rgb(0,0,0); stroke-width: 3" />
	<polygon points="139.741239856581,-174.957273712625 115.964834445174,-114.228636856311 181.182046810564,-114.228636856318 " style="fill: rgb(14,173,105); fill-opacity: 1; stroke: rgb(0,0,0); stroke-width: 3" />
	<polygon points="479.035165554838,-130.677285727611 431.154402687487,-174.957273712635 407.377997276071,-114.228636856321 " style="fill: rgb(14,173,105); fill-opacity: 1; stroke: rgb(0,0,0); stroke-width: 3" />
	<polygon points="181.182046810563,-567.160433964202 139.74123985658,-627.889070820509 115.964834445164,-567.160433964196 " style="fill: rgb(14,173,105); fill-opacity: 1; stroke: rgb(0,0,0); stroke-width: 3" />
	<polygon points="139.741239856583,-53.5 181.182046810564,-114.228636856318 115.964834445174,-114.228636856311 " style="fill: rgb(14,173,105); fill-opacity: 1; stroke: rgb(0,0,0); stroke-width: 3" />
	<circle cx="252.839215089332" cy="-340.694535410259" r="2" style="fill: rgb(0,0,0)" />
	<circle cx="318.056427454726" cy="-340.694535410259" r="2" style="fill: rgb(0,0,0)" />
	<circle cx="294.280022043318" cy="-401.423172266569" r="2" style="fill: rgb(0,0,0)" />
	<circle cx="294.280022043315" cy="-279.965898553952" r="2" style="fill: rgb(0,0,0)" />
	<circle cx="229.062809677918" cy="-401.423172266562" r="2" style="fill: rgb(0,0,0)" />
	<circle cx="365.937190322089" cy="-384.97452339527" r="2" style="fill: rgb(0,0,0)" />
	<circle cx="229.062809677925" cy="-279.965898553945" r="2" style="fill: rgb(0,0,0)" />
	<circle cx="365.937190322081" cy="-296.414547425243" r="2" style="fill: rgb(0,0,0)" />
	<circle cx="181.182046810561" cy="-357.143184281546" r="2" style="fill: rgb(0,0,0)" />
	<circle cx="252.839215089334" cy="-462.151809122876" r="2" style="fill: rgb(0,0,0)" />
	<circle cx="342.160784910674" cy="-445.70316025158" r="2" style="fill: rgb(0,0,0)" />
	<circle cx="376.744856488474" cy="-312.252434815119" r="2" style="fill: rgb(0,0,0)" />
	<circle cx="181.182046810567" cy="-324.245886538959" r="2" style="fill: rgb(0,0,0)" />
	<circle cx="252.839215089334" cy="-219.237261697634" r="2" style="fill: rgb(0,0,0)" />
	<circle cx="342.160784910678" cy="-235.685910568939" r="2" style="fill: rgb(0,0,0)" />
	<circle cx="170.374380644167" cy="-429.865272861696" r="2" style="fill: rgb(0,0,0)" />
	<circle cx="318.056427454724" cy="-462.151809122883" r="2" style="fill: rgb(0,0,0)" />
	<circle cx="181.182046810567" cy="-445.703160251587" r="2" style="fill: rgb(0,0,0)" />
	<circle cx="407.37799727607" cy="-445.703160251578" r="2" style="fill: rgb(0,0,0)" />
	<circle cx="424.625619355834" cy="-356.532422800135" r="2" style="fill: rgb(0,0,0)" />
	<circle cx="170.374380644175" cy="-251.523797958815" r="2" style="fill: rgb(0,0,0)" />
	<circle cx="318.056427454733" cy="-219.237261697648" r="2" style="fill: rgb(0,0,0)" />
	<circle cx="181.182046810563" cy="-235.685910568933" r="2" style="fill: rgb(0,0,0)" />
	<circle cx="407.377997276076" cy="-235.685910568941" r="2" style="fill: rgb(0,0,0)" />
	<circle cx="122.493617776812" cy="-385.585284876674" r="2" style="fill: rgb(0,0,0)" />
	<circle cx="294.280022043316" cy="-522.880445979194" r="2" style="fill: rgb(0,0,0)" />
	<circle cx="204.958452221972" cy="-506.431797107891" r="2" style="fill: rgb(0,0,0)" />
	<circle cx="431.154402687488" cy="-384.974523395279" r="2" style="fill: rgb(0,0,0)" />
	<circle cx="365.937190322087" cy="-506.431797107885" r="2" style="fill: rgb(0,0,0)" />
	<circle cx="448.40202476724" cy="-295.803785943825" r="2" style="fill: rgb(0,0,0)" />
	<circle cx="122.493617776816" cy="-295.803785943819" r="2" style="fill: rgb(0,0,0)" />
	<circle cx="294.280022043317" cy="-158.508624841327" r="2" style="fill: rgb(0,0,0)" />
	<circle cx="204.958452221977" cy="-174.957273712623" r="2" style="fill: rgb(0,0,0)" />
	<circle cx="365.937190322087" cy="-174.957273712628" r="2" style="fill: rgb(0,0,0)" />
	<circle cx="98.7172123653992" cy="-446.313921732982" r="2" style="fill: rgb(0,0,0)" />
	<circle cx="229.062809677916" cy="-522.88044597918" r="2" style="fill: rgb(0,0,0)" />
	<circle cx="139.741239856575" cy="-506.431797107891" r="2" style="fill: rgb(0,0,0)" />
	<circle cx="479.035165554842" cy="-429.254511380299" r="2" style="fill: rgb(0,0,0)" />
	<circle cx="431.154402687477" cy="-506.431797107892" r="2" style="fill: rgb(0,0,0)" />
	<circle cx="489.84283172123" cy="-356.532422800127" r="2" style="fill: rgb(0,0,0)" />
	<circle cx="98.7172123654094" cy="-235.075149087508" r="2" style="fill: rgb(0,0,0)" />
	<circle cx="229.062809677928" cy="-158.50862484132" r="2" style="fill: rgb(0,0,0)" />
	<circle cx="139.741239856581" cy="-174.957273712625" r="2" style="fill: rgb(0,0,0)" />
	<circle cx="431.154402687487" cy="-174.957273712635" r="2" style="fill: rgb(0,0,0)" />
	<circle cx="57.2764054114165" cy="-385.585284876675" r="2" style="fill: rgb(0,0,0)" />
	<circle cx="252.839215089332" cy="-583.609082835501" r="2" style="fill: rgb(0,0,0)" />
	<circle cx="181.182046810563" cy="-567.160433964202" r="2" style="fill: rgb(0,0,0)" />
	<circle cx="455.258760143411" cy="-489.983148236603" r="2" style="fill: rgb(0,0,0)" />
	<circle cx="407.377997276069" cy="-567.160433964203" r="2" style="fill: rgb(0,0,0)" />
	<circle cx="513.61923713264" cy="-295.803785943825" r="2" style="fill: rgb(0,0,0)" />
	<circle cx="252.839215089336" cy="-97.7799879850088" r="2" style="fill: rgb(0,0,0)" />
	<circle cx="181.182046810564" cy="-114.228636856318" r="2" style="fill: rgb(0,0,0)" />
	<circle cx="407.377997276071" cy="-114.228636856321" r="2" style="fill: rgb(0,0,0)" />
	<circle cx="33.5" cy="-446.313921732974" r="2" style="fill: rgb(0,0,0)" />
	<circle cx="115.964834445164" cy="-567.160433964196" r="2" style="fill: rgb(0,0,0)" />
	<circle cx="520.475972508807" cy="-489.983148236619" r="2" style="fill: rgb(0,0,0)" />
	<circle cx="479.03516555484" cy="-550.711785092903" r="2" style="fill: rgb(0,0,0)" />
	<circle cx="561.5" cy="-340.083773928839" r="2" style="fill: rgb(0,0,0)" />
	<circle cx="115.964834445174" cy="-114.228636856311" r="2" style="fill: rgb(0,0,0)" />
	<circle cx="479.035165554838" cy="-130.677285727611" r="2" style="fill: rgb(0,0,0)" />
	<circle cx="139.74123985658" cy="-627.889070820509" r="2" style="fill: rgb(0,0,0)" />
	<circle cx="139.741239856583" cy="-53.5" r="2" style="fill: rgb(0,0,0)" />
	<!--
	Generated using the Perl SVG Module V2.87
	by Ronan Oger

	-->
</svg>