<?xml version="1.0" encoding="UTF-8" standalone="yes"?>
<!DOCTYPE svg PUBLIC "-//W3C//DTD SVG 1.0//EN" "http://www.w3.org/TR/2001/REC-SVG-20010904/DTD/svg10.dtd">
<!-- generated using polymake; Michael Joswig, Georg Loho, Benjamin Lorenz, Rico Raber; license CC BY-NC-ND 3.0; see polymake.org and matchthenet.de -->
<svg height="841pt" id="document" viewBox="0 -779.784464445366 572 779.784464445366" width="595pt" xmlns="http://www.w3.org/2000/svg" xmlns:svg="http://www.w3.org/2000/svg" xmlns:xlink="http://www.w3.org/1999/xlink">
	<title id="document_title">planar_net_</title>
	<polygon points="296.252402431662,-379.263101998182 324.288374704015,-379.263101998182 338.306360840194,-403.542966205837 324.28837470403,-427.822830413498 296.252402431682,-427.822830413502 282.234416295499,-403.542966205844 " style="fill: rgb(14,173,105); fill-opacity: 1; stroke: rgb(0,0,0); stroke-width: 3" />
	<polygon points="324.288374704001,-351.227129725814 324.288374704015,-379.263101998182 296.252402431662,-379.263101998182 296.252402431659,-351.227129725824 " style="fill: rgb(14,173,105); fill-opacity: 1; stroke: rgb(0,0,0); stroke-width: 3" />
	<polygon points="282.234416295499,-403.542966205844 296.252402431682,-427.822830413502 271.972538224028,-441.840816549688 257.954552087842,-417.560952342043 " style="fill: rgb(14,173,105); fill-opacity: 1; stroke: rgb(0,0,0); stroke-width: 3" />
	<polygon points="296.252402431662,-379.263101998182 282.234416295499,-403.542966205844 256.622281175503,-414.946223453282 229.198962163056,-409.117217054435 210.439235036581,-388.282429333021 207.50867793872,-360.400041050232 221.526664074881,-336.12017684257 247.138799194878,-324.716919595132 274.562118207325,-330.545925993979 293.3218453338,-351.380713715392 " style="fill: rgb(14,173,105); fill-opacity: 1; stroke: rgb(0,0,0); stroke-width: 3" />
	<polygon points="338.306360840152,-326.947265518142 324.288374704001,-351.227129725814 296.252402431659,-351.227129725824 282.23441629548,-326.947265518169 296.252402431633,-302.667401310497 324.288374703969,-302.667401310484 " style="fill: rgb(14,173,105); fill-opacity: 1; stroke: rgb(0,0,0); stroke-width: 3" />
	<polygon points="271.972538224028,-441.840816549688 257.954552087862,-466.120680757352 229.918579815511,-466.120680757382 215.900593679325,-441.840816549743 229.918579815491,-417.560952342074 257.954552087842,-417.560952342043 " style="fill: rgb(14,173,105); fill-opacity: 1; stroke: rgb(0,0,0); stroke-width: 3" />
	<polygon points="373.401977940759,-324.716919595093 345.978658928317,-330.545925993959 340.149652529449,-303.122606981512 367.572971541876,-297.29360058264 " style="fill: rgb(14,173,105); fill-opacity: 1; stroke: rgb(0,0,0); stroke-width: 3" />
	<polygon points="264.907232523567,-470.965755569177 273.570824409558,-497.629549689473 246.907030289264,-506.293141575471 238.243438403269,-479.629347455183 " style="fill: rgb(14,173,105); fill-opacity: 1; stroke: rgb(0,0,0); stroke-width: 3" />
	<polygon points="274.562118207325,-330.545925993979 247.138799194878,-324.716919595132 252.96780559372,-297.293600582679 280.391124606161,-303.122606981516 " style="fill: rgb(14,173,105); fill-opacity: 1; stroke: rgb(0,0,0); stroke-width: 3" />
	<polygon points="210.439235036581,-388.282429333021 229.198962163056,-409.117217054435 208.364174441638,-427.876944180916 189.604447315167,-407.042156459516 " style="fill: rgb(14,173,105); fill-opacity: 1; stroke: rgb(0,0,0); stroke-width: 3" />
	<polygon points="324.288374703969,-302.667401310484 296.252402431633,-302.667401310497 273.570824409474,-286.188270275127 264.907232523472,-259.524476154821 273.570824409423,-232.860682034507 296.252402431551,-216.381550999114 324.288374703885,-216.381550999101 346.969952726045,-232.860682034471 355.633544612047,-259.524476154777 346.969952726097,-286.188270275092 " style="fill: rgb(14,173,105); fill-opacity: 1; stroke: rgb(0,0,0); stroke-width: 3" />
	<polygon points="226.988022717682,-494.003069040177 208.228295591239,-514.837856761625 180.804976578808,-520.66686316052 155.192841458807,-509.263605913126 141.174855322621,-484.983741705488 144.105412420449,-457.101353422692 162.865139546893,-436.266565701244 190.288458559324,-430.437559302349 215.900593679325,-441.840816549743 229.918579815511,-466.120680757382 " style="fill: rgb(14,173,105); fill-opacity: 1; stroke: rgb(0,0,0); stroke-width: 3" />
	<polygon points="247.138799194878,-324.716919595132 221.526664074881,-336.12017684257 198.84508605271,-319.641045807213 201.775643150524,-291.758657524416 227.387778270514,-280.355400276977 250.06935629269,-296.834531312335 " style="fill: rgb(14,173,105); fill-opacity: 1; stroke: rgb(0,0,0); stroke-width: 3" />
	<polygon points="207.50867793872,-360.400041050232 210.439235036581,-388.282429333021 187.757657014431,-404.761560368409 162.145521894416,-393.358303121017 159.214964796553,-365.475914838234 181.896542818704,-348.996783802842 " style="fill: rgb(14,173,105); fill-opacity: 1; stroke: rgb(0,0,0); stroke-width: 3" />
	<polygon points="221.526664074881,-336.12017684257 207.50867793872,-360.400041050232 183.228813731048,-346.382054914069 197.2467998672,-322.102190706413 " style="fill: rgb(14,173,105); fill-opacity: 1; stroke: rgb(0,0,0); stroke-width: 3" />
	<polygon points="227.387778270514,-280.355400276977 201.775643150524,-291.758657524416 190.372385903074,-266.146522404415 215.984521023055,-254.743265156976 " style="fill: rgb(14,173,105); fill-opacity: 1; stroke: rgb(0,0,0); stroke-width: 3" />
	<polygon points="180.085358926271,-340.47583352866 152.662039913834,-346.304839927556 127.049904793819,-334.901582680162 113.031918657615,-310.621718472525 115.962475755429,-282.73933018973 134.722202881867,-261.904542468282 162.145521894304,-256.075536069386 187.75765701432,-267.478793316779 201.775643150524,-291.758657524416 198.84508605271,-319.641045807213 " style="fill: rgb(14,173,105); fill-opacity: 1; stroke: rgb(0,0,0); stroke-width: 3" />
	<polygon points="159.214964796553,-365.475914838234 162.145521894416,-393.358303121017 134.263133611616,-396.288860218885 131.332576513749,-368.406471936114 " style="fill: rgb(14,173,105); fill-opacity: 1; stroke: rgb(0,0,0); stroke-width: 3" />
	<polygon points="324.288374703885,-216.381550999101 296.252402431551,-216.381550999114 296.252402431547,-188.34557872675 324.288374703871,-188.345578726734 " style="fill: rgb(14,173,105); fill-opacity: 1; stroke: rgb(0,0,0); stroke-width: 3" />
	<polygon points="296.252402431551,-216.381550999114 273.570824409423,-232.860682034507 247.958689289403,-221.457424787115 245.0281321915,-193.575036504334 267.709710213621,-177.095905468944 293.321845333645,-188.499162716336 " style="fill: rgb(14,173,105); fill-opacity: 1; stroke: rgb(0,0,0); stroke-width: 3" />
	<polygon points="144.105412420449,-457.101353422692 141.174855322621,-484.983741705488 115.562720202621,-496.386998952929 92.8811421804455,-479.907867917582 95.8116992782715,-452.02547963479 121.423834398274,-440.622222387345 " style="fill: rgb(14,173,105); fill-opacity: 1; stroke: rgb(0,0,0); stroke-width: 3" />
	<polygon points="141.174855322621,-484.983741705488 155.192841458807,-509.263605913126 130.912977251152,-523.281592049326 116.89499111497,-499.001727841698 " style="fill: rgb(14,173,105); fill-opacity: 1; stroke: rgb(0,0,0); stroke-width: 3" />
	<polygon points="162.145521894304,-256.075536069386 134.722202881867,-261.904542468282 128.89319648296,-234.481223455838 156.316515495392,-228.65221705694 " style="fill: rgb(14,173,105); fill-opacity: 1; stroke: rgb(0,0,0); stroke-width: 3" />
	<polygon points="115.962475755429,-282.73933018973 113.031918657615,-310.621718472525 85.1495303748063,-307.691161374711 88.0800874726169,-279.808773091928 " style="fill: rgb(14,173,105); fill-opacity: 1; stroke: rgb(0,0,0); stroke-width: 3" />
	<polygon points="134.722202881867,-261.904542468282 115.962475755429,-282.73933018973 88.5391567429757,-276.910323790893 79.8755648569527,-250.246529670614 98.6352919833868,-229.41174194917 126.058610995844,-235.240748348005 " style="fill: rgb(14,173,105); fill-opacity: 1; stroke: rgb(0,0,0); stroke-width: 3" />
	<polygon points="98.6352919833868,-229.41174194917 79.8755648569527,-250.246529670614 59.0407771354904,-231.486802544171 77.8005042619192,-210.652014822734 " style="fill: rgb(14,173,105); fill-opacity: 1; stroke: rgb(0,0,0); stroke-width: 3" />
	<polygon points="324.288374703736,-102.059728415336 296.252402431413,-102.059728415353 282.234416295235,-77.7798642076935 296.252402431368,-53.5000000000161 324.288374703685,-53.5 338.306360839868,-77.7798642076614 " style="fill: rgb(14,173,105); fill-opacity: 1; stroke: rgb(0,0,0); stroke-width: 3" />
	<polygon points="265.28587306161,-673.889948308685 292.709192074051,-679.718954707536 286.880185675201,-707.142273719998 259.45686666277,-701.313267321147 " style="fill: rgb(14,173,105); fill-opacity: 1; stroke: rgb(0,0,0); stroke-width: 3" />
	<polygon points="540.665212278572,-250.24652967038 521.905485152112,-229.411741948952 542.740272873549,-210.652014822481 561.5,-231.486802543899 " style="fill: rgb(14,173,105); fill-opacity: 1; stroke: rgb(0,0,0); stroke-width: 3" />
	<polygon points="92.8811421805364,-566.193718228911 64.8451699081847,-566.193718228941 42.1635918860099,-549.714587193594 33.5,-523.050793073311 42.1635918859535,-496.386998953008 64.8451699080939,-479.907867917612 92.8811421804455,-479.907867917582 115.562720202621,-496.386998952929 124.226312088631,-523.050793073212 115.562720202677,-549.714587193515 " style="fill: rgb(14,173,105); fill-opacity: 1; stroke: rgb(0,0,0); stroke-width: 3" />
	<polygon points="296.252402431547,-188.34557872675 273.570824409388,-171.86644769138 264.907232523374,-145.20265357107 273.570824409305,-118.53885945075 296.252402431413,-102.059728415353 324.288374703736,-102.059728415336 346.969952725896,-118.538859450707 355.63354461191,-145.202653571017 346.969952725979,-171.866447691336 324.288374703871,-188.345578726734 " style="fill: rgb(14,173,105); fill-opacity: 1; stroke: rgb(0,0,0); stroke-width: 3" />
	<polygon points="256.622281175576,-605.556578745528 275.382008302048,-626.391366466946 254.54722058063,-645.151093593433 235.787493454158,-624.316305872019 " style="fill: rgb(14,173,105); fill-opacity: 1; stroke: rgb(0,0,0); stroke-width: 3" />
	<polygon points="275.382008302048,-626.391366466946 302.805327314494,-632.220372865798 311.468919200491,-658.88416698609 292.709192074051,-679.718954707536 265.28587306161,-673.889948308685 256.62228117561,-647.226154188389 " style="fill: rgb(14,173,105); fill-opacity: 1; stroke: rgb(0,0,0); stroke-width: 3" />
	<polygon points="504.578301380148,-282.739330189554 485.818574253683,-261.904542468121 494.482166139668,-235.240748347825 521.905485152112,-229.411741948952 540.665212278572,-250.24652967038 532.001620392588,-276.91032379068 " style="fill: rgb(14,173,105); fill-opacity: 1; stroke: rgb(0,0,0); stroke-width: 3" />
	<polygon points="485.818574253683,-261.904542468121 458.395255241239,-256.075536069253 464.224261640111,-228.652217056801 491.64758065254,-234.481223455663 " style="fill: rgb(14,173,105); fill-opacity: 1; stroke: rgb(0,0,0); stroke-width: 3" />
	<polygon points="183.735533676677,-548.549251443314 161.053955654554,-565.028382478722 135.441820534558,-553.625125231331 132.511263436686,-525.742736948533 155.192841458807,-509.263605913126 180.804976578808,-520.66686316052 " style="fill: rgb(14,173,105); fill-opacity: 1; stroke: rgb(0,0,0); stroke-width: 3" />
	<polygon points="302.805327314494,-632.220372865798 328.41746243449,-620.817115618362 339.820719681932,-646.429250738372 314.208584561948,-657.832507985801 " style="fill: rgb(14,173,105); fill-opacity: 1; stroke: rgb(0,0,0); stroke-width: 3" />
	<polygon points="356.832075244891,-737.455458046475 329.408756232454,-743.284464445366 303.796621112439,-731.881207197968 289.778634976236,-707.601342990329 292.709192074051,-679.718954707536 311.468919200491,-658.88416698609 338.892238212927,-653.0551605872 364.504373332943,-664.458417834598 378.522359469145,-688.738282042236 375.591802371331,-716.620670325031 " style="fill: rgb(14,173,105); fill-opacity: 1; stroke: rgb(0,0,0); stroke-width: 3" />
	<polygon points="507.508858477996,-310.621718472352 504.578301380148,-282.739330189554 532.460689662953,-279.808773091698 535.391246760801,-307.691161374489 " style="fill: rgb(14,173,105); fill-opacity: 1; stroke: rgb(0,0,0); stroke-width: 3" />
	<polygon points="346.969952726045,-232.860682034471 324.288374703885,-216.381550999101 327.218931801729,-188.499162716303 352.831066921726,-177.095905468868 375.512644943882,-193.575036504234 372.582087846041,-221.457424787036 " style="fill: rgb(14,173,105); fill-opacity: 1; stroke: rgb(0,0,0); stroke-width: 3" />
	<polygon points="245.028132191721,-536.91519521971 267.709710213878,-553.394326255076 251.230579178509,-576.075904277249 228.549001156356,-559.59677324189 " style="fill: rgb(14,173,105); fill-opacity: 1; stroke: rgb(0,0,0); stroke-width: 3" />
	<polygon points="421.695691083028,-563.578989339885 447.307826203018,-552.175732092427 458.711083450486,-577.787867212424 433.098948330504,-589.191124459879 " style="fill: rgb(14,173,105); fill-opacity: 1; stroke: rgb(0,0,0); stroke-width: 3" />
	<polygon points="418.765133985063,-291.758657524332 393.152998865064,-280.355400276915 404.556256112487,-254.743265156902 430.168391232476,-266.14652240431 " style="fill: rgb(14,173,105); fill-opacity: 1; stroke: rgb(0,0,0); stroke-width: 3" />
	<polygon points="370.471420843009,-596.537251410689 384.489406979212,-620.817115618327 370.471420843054,-645.096979825981 342.435448570694,-645.096979825996 328.41746243449,-620.817115618362 342.435448570653,-596.537251410702 " style="fill: rgb(14,173,105); fill-opacity: 1; stroke: rgb(0,0,0); stroke-width: 3" />
	<polygon points="489.361784611525,-527.895867884725 503.379770747741,-552.175732092356 489.361784611596,-576.455596300022 461.325812339234,-576.455596300056 447.307826203018,-552.175732092427 461.325812339167,-527.895867884756 " style="fill: rgb(14,173,105); fill-opacity: 1; stroke: rgb(0,0,0); stroke-width: 3" />
	<polygon points="320.74516434632,-547.820075406492 339.504891472793,-568.65486312791 342.435448570653,-596.537251410702 328.41746243449,-620.817115618362 302.805327314494,-632.220372865798 275.382008302048,-626.391366466946 256.622281175576,-605.556578745528 253.691724077716,-577.674190462737 267.709710213878,-553.394326255076 293.321845333875,-541.99106900764 " style="fill: rgb(14,173,105); fill-opacity: 1; stroke: rgb(0,0,0); stroke-width: 3" />
	<polygon points="421.695691082911,-319.641045807132 418.765133985063,-291.758657524332 432.783120121237,-267.478793316676 458.395255241239,-256.075536069253 485.818574253683,-261.904542468121 504.578301380148,-282.739330189554 507.508858477996,-310.621718472352 493.490872341822,-334.901582680009 467.87873722182,-346.304839927432 440.455418209376,-340.475833528564 " style="fill: rgb(14,173,105); fill-opacity: 1; stroke: rgb(0,0,0); stroke-width: 3" />
	<polygon points="352.831066921956,-553.394326255037 375.512644944096,-536.915195219663 391.991775979486,-559.596773241822 369.310197957357,-576.075904277191 " style="fill: rgb(14,173,105); fill-opacity: 1; stroke: rgb(0,0,0); stroke-width: 3" />
	<polygon points="458.395255241275,-393.358303120889 461.325812339115,-365.4759148381 489.20820062192,-368.406471935937 486.277643524084,-396.288860218717 " style="fill: rgb(14,173,105); fill-opacity: 1; stroke: rgb(0,0,0); stroke-width: 3" />
	<polygon points="273.570824409558,-497.629549689473 296.252402431718,-514.108680724843 293.321845333875,-541.99106900764 267.709710213878,-553.394326255076 245.028132191721,-536.91519521971 247.958689289562,-509.032806936909 " style="fill: rgb(14,173,105); fill-opacity: 1; stroke: rgb(0,0,0); stroke-width: 3" />
	<polygon points="399.014113060763,-336.120176842515 373.401977940759,-324.716919595093 370.471420842914,-296.834531312297 393.152998865064,-280.355400276915 418.765133985063,-291.758657524332 421.695691082911,-319.641045807132 " style="fill: rgb(14,173,105); fill-opacity: 1; stroke: rgb(0,0,0); stroke-width: 3" />
	<polygon points="296.252402431718,-514.108680724843 324.288374704064,-514.108680724839 324.288374704068,-542.144652997203 296.252402431732,-542.14465299721 " style="fill: rgb(14,173,105); fill-opacity: 1; stroke: rgb(0,0,0); stroke-width: 3" />
	<polygon points="413.032099196942,-360.400041050169 399.014113060763,-336.120176842515 423.293977268423,-322.10219070633 437.3119634046,-346.382054913972 " style="fill: rgb(14,173,105); fill-opacity: 1; stroke: rgb(0,0,0); stroke-width: 3" />
	<polygon points="324.288374704064,-514.108680724839 346.96995272621,-497.629549689463 372.582087846221,-509.032806936876 375.512644944096,-536.915195219663 352.831066921956,-553.394326255037 327.218931801941,-541.991069007624 " style="fill: rgb(14,173,105); fill-opacity: 1; stroke: rgb(0,0,0); stroke-width: 3" />
	<polygon points="410.1015420991,-388.282429332963 413.032099196942,-360.400041050169 438.644234316947,-348.996783802742 461.325812339115,-365.4759148381 458.395255241275,-393.358303120889 432.783120121268,-404.76156036832 " style="fill: rgb(14,173,105); fill-opacity: 1; stroke: rgb(0,0,0); stroke-width: 3" />
	<polygon points="439.635528114808,-479.178691880573 458.395255241292,-500.013479601971 461.325812339167,-527.895867884756 447.307826203018,-552.175732092427 421.695691083028,-563.578989339885 394.272372070579,-557.74998294106 375.512644944096,-536.915195219663 372.582087846221,-509.032806936876 386.60007398237,-484.752942729206 412.21220910236,-473.349685481748 " style="fill: rgb(14,173,105); fill-opacity: 1; stroke: rgb(0,0,0); stroke-width: 3" />
	<polygon points="346.96995272621,-497.629549689463 355.633544612179,-470.965755569165 382.297338732483,-479.629347455135 373.633746846525,-506.293141575422 " style="fill: rgb(14,173,105); fill-opacity: 1; stroke: rgb(0,0,0); stroke-width: 3" />
	<polygon points="391.341814972641,-409.117217054392 410.1015420991,-388.282429332963 430.936329820538,-407.042156459423 412.176602694089,-427.87694418085 " style="fill: rgb(14,173,105); fill-opacity: 1; stroke: rgb(0,0,0); stroke-width: 3" />
	<polygon points="296.252402431682,-427.822830413502 324.28837470403,-427.822830413498 346.969952726189,-444.301961448868 355.633544612179,-470.965755569165 346.96995272621,-497.629549689463 324.288374704064,-514.108680724839 296.252402431718,-514.108680724843 273.570824409558,-497.629549689473 264.907232523567,-470.965755569177 273.570824409536,-444.301961448878 " style="fill: rgb(14,173,105); fill-opacity: 1; stroke: rgb(0,0,0); stroke-width: 3" />
	<polygon points="365.729679852645,-423.467173727435 393.152998865093,-429.296180126286 401.816590751085,-455.959974246575 383.056863624628,-476.794761968012 355.633544612179,-470.965755569165 346.969952726189,-444.301961448868 " style="fill: rgb(14,173,105); fill-opacity: 1; stroke: rgb(0,0,0); stroke-width: 3" />
	<polygon points="324.28837470403,-427.822830413498 338.306360840194,-403.542966205837 362.586225047862,-417.560952342002 348.56823891171,-441.840816549657 " style="fill: rgb(14,173,105); fill-opacity: 1; stroke: rgb(0,0,0); stroke-width: 3" />
	<polygon points="338.306360840194,-403.542966205837 324.288374704015,-379.263101998182 327.218931801857,-351.380713715388 345.978658928317,-330.545925993959 373.401977940759,-324.716919595093 399.014113060763,-336.120176842515 413.032099196942,-360.400041050169 410.1015420991,-388.282429332963 391.341814972641,-409.117217054392 363.918495960198,-414.946223453259 " style="fill: rgb(14,173,105); fill-opacity: 1; stroke: rgb(0,0,0); stroke-width: 3" />
	<circle cx="296.252402431662" cy="-379.263101998182" r="2" style="fill: rgb(0,0,0)" />
	<circle cx="324.288374704015" cy="-379.263101998182" r="2" style="fill: rgb(0,0,0)" />
	<circle cx="338.306360840194" cy="-403.542966205837" r="2" style="fill: rgb(0,0,0)" />
	<circle cx="324.28837470403" cy="-427.822830413498" r="2" style="fill: rgb(0,0,0)" />
	<circle cx="296.252402431682" cy="-427.822830413502" r="2" style="fill: rgb(0,0,0)" />
	<circle cx="282.234416295499" cy="-403.542966205844" r="2" style="fill: rgb(0,0,0)" />
	<circle cx="296.252402431659" cy="-351.227129725824" r="2" style="fill: rgb(0,0,0)" />
	<circle cx="324.288374704001" cy="-351.227129725814" r="2" style="fill: rgb(0,0,0)" />
	<circle cx="271.972538224028" cy="-441.840816549688" r="2" style="fill: rgb(0,0,0)" />
	<circle cx="257.954552087842" cy="-417.560952342043" r="2" style="fill: rgb(0,0,0)" />
	<circle cx="256.622281175503" cy="-414.946223453282" r="2" style="fill: rgb(0,0,0)" />
	<circle cx="229.198962163056" cy="-409.117217054435" r="2" style="fill: rgb(0,0,0)" />
	<circle cx="210.439235036581" cy="-388.282429333021" r="2" style="fill: rgb(0,0,0)" />
	<circle cx="207.50867793872" cy="-360.400041050232" r="2" style="fill: rgb(0,0,0)" />
	<circle cx="221.526664074881" cy="-336.12017684257" r="2" style="fill: rgb(0,0,0)" />
	<circle cx="247.138799194878" cy="-324.716919595132" r="2" style="fill: rgb(0,0,0)" />
	<circle cx="274.562118207325" cy="-330.545925993979" r="2" style="fill: rgb(0,0,0)" />
	<circle cx="293.3218453338" cy="-351.380713715392" r="2" style="fill: rgb(0,0,0)" />
	<circle cx="346.969952726189" cy="-444.301961448868" r="2" style="fill: rgb(0,0,0)" />
	<circle cx="355.633544612179" cy="-470.965755569165" r="2" style="fill: rgb(0,0,0)" />
	<circle cx="346.96995272621" cy="-497.629549689463" r="2" style="fill: rgb(0,0,0)" />
	<circle cx="324.288374704064" cy="-514.108680724839" r="2" style="fill: rgb(0,0,0)" />
	<circle cx="296.252402431718" cy="-514.108680724843" r="2" style="fill: rgb(0,0,0)" />
	<circle cx="273.570824409558" cy="-497.629549689473" r="2" style="fill: rgb(0,0,0)" />
	<circle cx="264.907232523567" cy="-470.965755569177" r="2" style="fill: rgb(0,0,0)" />
	<circle cx="273.570824409536" cy="-444.301961448878" r="2" style="fill: rgb(0,0,0)" />
	<circle cx="362.586225047862" cy="-417.560952342002" r="2" style="fill: rgb(0,0,0)" />
	<circle cx="348.56823891171" cy="-441.840816549657" r="2" style="fill: rgb(0,0,0)" />
	<circle cx="327.218931801857" cy="-351.380713715388" r="2" style="fill: rgb(0,0,0)" />
	<circle cx="345.978658928317" cy="-330.545925993959" r="2" style="fill: rgb(0,0,0)" />
	<circle cx="373.401977940759" cy="-324.716919595093" r="2" style="fill: rgb(0,0,0)" />
	<circle cx="399.014113060763" cy="-336.120176842515" r="2" style="fill: rgb(0,0,0)" />
	<circle cx="413.032099196942" cy="-360.400041050169" r="2" style="fill: rgb(0,0,0)" />
	<circle cx="410.1015420991" cy="-388.282429332963" r="2" style="fill: rgb(0,0,0)" />
	<circle cx="391.341814972641" cy="-409.117217054392" r="2" style="fill: rgb(0,0,0)" />
	<circle cx="363.918495960198" cy="-414.946223453259" r="2" style="fill: rgb(0,0,0)" />
	<circle cx="282.23441629548" cy="-326.947265518169" r="2" style="fill: rgb(0,0,0)" />
	<circle cx="296.252402431633" cy="-302.667401310497" r="2" style="fill: rgb(0,0,0)" />
	<circle cx="324.288374703969" cy="-302.667401310484" r="2" style="fill: rgb(0,0,0)" />
	<circle cx="338.306360840152" cy="-326.947265518142" r="2" style="fill: rgb(0,0,0)" />
	<circle cx="257.954552087862" cy="-466.120680757352" r="2" style="fill: rgb(0,0,0)" />
	<circle cx="229.918579815511" cy="-466.120680757382" r="2" style="fill: rgb(0,0,0)" />
	<circle cx="215.900593679325" cy="-441.840816549743" r="2" style="fill: rgb(0,0,0)" />
	<circle cx="229.918579815491" cy="-417.560952342074" r="2" style="fill: rgb(0,0,0)" />
	<circle cx="252.96780559372" cy="-297.293600582679" r="2" style="fill: rgb(0,0,0)" />
	<circle cx="280.391124606161" cy="-303.122606981516" r="2" style="fill: rgb(0,0,0)" />
	<circle cx="208.364174441638" cy="-427.876944180916" r="2" style="fill: rgb(0,0,0)" />
	<circle cx="189.604447315167" cy="-407.042156459516" r="2" style="fill: rgb(0,0,0)" />
	<circle cx="198.84508605271" cy="-319.641045807213" r="2" style="fill: rgb(0,0,0)" />
	<circle cx="201.775643150524" cy="-291.758657524416" r="2" style="fill: rgb(0,0,0)" />
	<circle cx="227.387778270514" cy="-280.355400276977" r="2" style="fill: rgb(0,0,0)" />
	<circle cx="250.06935629269" cy="-296.834531312335" r="2" style="fill: rgb(0,0,0)" />
	<circle cx="187.757657014431" cy="-404.761560368409" r="2" style="fill: rgb(0,0,0)" />
	<circle cx="162.145521894416" cy="-393.358303121017" r="2" style="fill: rgb(0,0,0)" />
	<circle cx="159.214964796553" cy="-365.475914838234" r="2" style="fill: rgb(0,0,0)" />
	<circle cx="181.896542818704" cy="-348.996783802842" r="2" style="fill: rgb(0,0,0)" />
	<circle cx="183.228813731048" cy="-346.382054914069" r="2" style="fill: rgb(0,0,0)" />
	<circle cx="197.2467998672" cy="-322.102190706413" r="2" style="fill: rgb(0,0,0)" />
	<circle cx="246.907030289264" cy="-506.293141575471" r="2" style="fill: rgb(0,0,0)" />
	<circle cx="238.243438403269" cy="-479.629347455183" r="2" style="fill: rgb(0,0,0)" />
	<circle cx="293.321845333875" cy="-541.99106900764" r="2" style="fill: rgb(0,0,0)" />
	<circle cx="267.709710213878" cy="-553.394326255076" r="2" style="fill: rgb(0,0,0)" />
	<circle cx="245.028132191721" cy="-536.91519521971" r="2" style="fill: rgb(0,0,0)" />
	<circle cx="247.958689289562" cy="-509.032806936909" r="2" style="fill: rgb(0,0,0)" />
	<circle cx="324.288374704068" cy="-542.144652997203" r="2" style="fill: rgb(0,0,0)" />
	<circle cx="296.252402431732" cy="-542.14465299721" r="2" style="fill: rgb(0,0,0)" />
	<circle cx="372.582087846221" cy="-509.032806936876" r="2" style="fill: rgb(0,0,0)" />
	<circle cx="375.512644944096" cy="-536.915195219663" r="2" style="fill: rgb(0,0,0)" />
	<circle cx="352.831066921956" cy="-553.394326255037" r="2" style="fill: rgb(0,0,0)" />
	<circle cx="327.218931801941" cy="-541.991069007624" r="2" style="fill: rgb(0,0,0)" />
	<circle cx="382.297338732483" cy="-479.629347455135" r="2" style="fill: rgb(0,0,0)" />
	<circle cx="373.633746846525" cy="-506.293141575422" r="2" style="fill: rgb(0,0,0)" />
	<circle cx="365.729679852645" cy="-423.467173727435" r="2" style="fill: rgb(0,0,0)" />
	<circle cx="393.152998865093" cy="-429.296180126286" r="2" style="fill: rgb(0,0,0)" />
	<circle cx="401.816590751085" cy="-455.959974246575" r="2" style="fill: rgb(0,0,0)" />
	<circle cx="383.056863624628" cy="-476.794761968012" r="2" style="fill: rgb(0,0,0)" />
	<circle cx="340.149652529449" cy="-303.122606981512" r="2" style="fill: rgb(0,0,0)" />
	<circle cx="367.572971541876" cy="-297.29360058264" r="2" style="fill: rgb(0,0,0)" />
	<circle cx="370.471420842914" cy="-296.834531312297" r="2" style="fill: rgb(0,0,0)" />
	<circle cx="393.152998865064" cy="-280.355400276915" r="2" style="fill: rgb(0,0,0)" />
	<circle cx="418.765133985063" cy="-291.758657524332" r="2" style="fill: rgb(0,0,0)" />
	<circle cx="421.695691082911" cy="-319.641045807132" r="2" style="fill: rgb(0,0,0)" />
	<circle cx="423.293977268423" cy="-322.10219070633" r="2" style="fill: rgb(0,0,0)" />
	<circle cx="437.3119634046" cy="-346.382054913972" r="2" style="fill: rgb(0,0,0)" />
	<circle cx="438.644234316947" cy="-348.996783802742" r="2" style="fill: rgb(0,0,0)" />
	<circle cx="461.325812339115" cy="-365.4759148381" r="2" style="fill: rgb(0,0,0)" />
	<circle cx="458.395255241275" cy="-393.358303120889" r="2" style="fill: rgb(0,0,0)" />
	<circle cx="432.783120121268" cy="-404.76156036832" r="2" style="fill: rgb(0,0,0)" />
	<circle cx="430.936329820538" cy="-407.042156459423" r="2" style="fill: rgb(0,0,0)" />
	<circle cx="412.176602694089" cy="-427.87694418085" r="2" style="fill: rgb(0,0,0)" />
	<circle cx="273.570824409474" cy="-286.188270275127" r="2" style="fill: rgb(0,0,0)" />
	<circle cx="264.907232523472" cy="-259.524476154821" r="2" style="fill: rgb(0,0,0)" />
	<circle cx="273.570824409423" cy="-232.860682034507" r="2" style="fill: rgb(0,0,0)" />
	<circle cx="296.252402431551" cy="-216.381550999114" r="2" style="fill: rgb(0,0,0)" />
	<circle cx="324.288374703885" cy="-216.381550999101" r="2" style="fill: rgb(0,0,0)" />
	<circle cx="346.969952726045" cy="-232.860682034471" r="2" style="fill: rgb(0,0,0)" />
	<circle cx="355.633544612047" cy="-259.524476154777" r="2" style="fill: rgb(0,0,0)" />
	<circle cx="346.969952726097" cy="-286.188270275092" r="2" style="fill: rgb(0,0,0)" />
	<circle cx="226.988022717682" cy="-494.003069040177" r="2" style="fill: rgb(0,0,0)" />
	<circle cx="208.228295591239" cy="-514.837856761625" r="2" style="fill: rgb(0,0,0)" />
	<circle cx="180.804976578808" cy="-520.66686316052" r="2" style="fill: rgb(0,0,0)" />
	<circle cx="155.192841458807" cy="-509.263605913126" r="2" style="fill: rgb(0,0,0)" />
	<circle cx="141.174855322621" cy="-484.983741705488" r="2" style="fill: rgb(0,0,0)" />
	<circle cx="144.105412420449" cy="-457.101353422692" r="2" style="fill: rgb(0,0,0)" />
	<circle cx="162.865139546893" cy="-436.266565701244" r="2" style="fill: rgb(0,0,0)" />
	<circle cx="190.288458559324" cy="-430.437559302349" r="2" style="fill: rgb(0,0,0)" />
	<circle cx="190.372385903074" cy="-266.146522404415" r="2" style="fill: rgb(0,0,0)" />
	<circle cx="215.984521023055" cy="-254.743265156976" r="2" style="fill: rgb(0,0,0)" />
	<circle cx="180.085358926271" cy="-340.47583352866" r="2" style="fill: rgb(0,0,0)" />
	<circle cx="152.662039913834" cy="-346.304839927556" r="2" style="fill: rgb(0,0,0)" />
	<circle cx="127.049904793819" cy="-334.901582680162" r="2" style="fill: rgb(0,0,0)" />
	<circle cx="113.031918657615" cy="-310.621718472525" r="2" style="fill: rgb(0,0,0)" />
	<circle cx="115.962475755429" cy="-282.73933018973" r="2" style="fill: rgb(0,0,0)" />
	<circle cx="134.722202881867" cy="-261.904542468282" r="2" style="fill: rgb(0,0,0)" />
	<circle cx="162.145521894304" cy="-256.075536069386" r="2" style="fill: rgb(0,0,0)" />
	<circle cx="187.75765701432" cy="-267.478793316779" r="2" style="fill: rgb(0,0,0)" />
	<circle cx="134.263133611616" cy="-396.288860218885" r="2" style="fill: rgb(0,0,0)" />
	<circle cx="131.332576513749" cy="-368.406471936114" r="2" style="fill: rgb(0,0,0)" />
	<circle cx="251.230579178509" cy="-576.075904277249" r="2" style="fill: rgb(0,0,0)" />
	<circle cx="228.549001156356" cy="-559.59677324189" r="2" style="fill: rgb(0,0,0)" />
	<circle cx="320.74516434632" cy="-547.820075406492" r="2" style="fill: rgb(0,0,0)" />
	<circle cx="339.504891472793" cy="-568.65486312791" r="2" style="fill: rgb(0,0,0)" />
	<circle cx="342.435448570653" cy="-596.537251410702" r="2" style="fill: rgb(0,0,0)" />
	<circle cx="328.41746243449" cy="-620.817115618362" r="2" style="fill: rgb(0,0,0)" />
	<circle cx="302.805327314494" cy="-632.220372865798" r="2" style="fill: rgb(0,0,0)" />
	<circle cx="275.382008302048" cy="-626.391366466946" r="2" style="fill: rgb(0,0,0)" />
	<circle cx="256.622281175576" cy="-605.556578745528" r="2" style="fill: rgb(0,0,0)" />
	<circle cx="253.691724077716" cy="-577.674190462737" r="2" style="fill: rgb(0,0,0)" />
	<circle cx="391.991775979486" cy="-559.596773241822" r="2" style="fill: rgb(0,0,0)" />
	<circle cx="369.310197957357" cy="-576.075904277191" r="2" style="fill: rgb(0,0,0)" />
	<circle cx="386.60007398237" cy="-484.752942729206" r="2" style="fill: rgb(0,0,0)" />
	<circle cx="412.21220910236" cy="-473.349685481748" r="2" style="fill: rgb(0,0,0)" />
	<circle cx="439.635528114808" cy="-479.178691880573" r="2" style="fill: rgb(0,0,0)" />
	<circle cx="458.395255241292" cy="-500.013479601971" r="2" style="fill: rgb(0,0,0)" />
	<circle cx="461.325812339167" cy="-527.895867884756" r="2" style="fill: rgb(0,0,0)" />
	<circle cx="447.307826203018" cy="-552.175732092427" r="2" style="fill: rgb(0,0,0)" />
	<circle cx="421.695691083028" cy="-563.578989339885" r="2" style="fill: rgb(0,0,0)" />
	<circle cx="394.272372070579" cy="-557.74998294106" r="2" style="fill: rgb(0,0,0)" />
	<circle cx="404.556256112487" cy="-254.743265156902" r="2" style="fill: rgb(0,0,0)" />
	<circle cx="430.168391232476" cy="-266.14652240431" r="2" style="fill: rgb(0,0,0)" />
	<circle cx="432.783120121237" cy="-267.478793316676" r="2" style="fill: rgb(0,0,0)" />
	<circle cx="458.395255241239" cy="-256.075536069253" r="2" style="fill: rgb(0,0,0)" />
	<circle cx="485.818574253683" cy="-261.904542468121" r="2" style="fill: rgb(0,0,0)" />
	<circle cx="504.578301380148" cy="-282.739330189554" r="2" style="fill: rgb(0,0,0)" />
	<circle cx="507.508858477996" cy="-310.621718472352" r="2" style="fill: rgb(0,0,0)" />
	<circle cx="493.490872341822" cy="-334.901582680009" r="2" style="fill: rgb(0,0,0)" />
	<circle cx="467.87873722182" cy="-346.304839927432" r="2" style="fill: rgb(0,0,0)" />
	<circle cx="440.455418209376" cy="-340.475833528564" r="2" style="fill: rgb(0,0,0)" />
	<circle cx="489.20820062192" cy="-368.406471935937" r="2" style="fill: rgb(0,0,0)" />
	<circle cx="486.277643524084" cy="-396.288860218717" r="2" style="fill: rgb(0,0,0)" />
	<circle cx="296.252402431547" cy="-188.34557872675" r="2" style="fill: rgb(0,0,0)" />
	<circle cx="324.288374703871" cy="-188.345578726734" r="2" style="fill: rgb(0,0,0)" />
	<circle cx="247.958689289403" cy="-221.457424787115" r="2" style="fill: rgb(0,0,0)" />
	<circle cx="245.0281321915" cy="-193.575036504334" r="2" style="fill: rgb(0,0,0)" />
	<circle cx="267.709710213621" cy="-177.095905468944" r="2" style="fill: rgb(0,0,0)" />
	<circle cx="293.321845333645" cy="-188.499162716336" r="2" style="fill: rgb(0,0,0)" />
	<circle cx="327.218931801729" cy="-188.499162716303" r="2" style="fill: rgb(0,0,0)" />
	<circle cx="352.831066921726" cy="-177.095905468868" r="2" style="fill: rgb(0,0,0)" />
	<circle cx="375.512644943882" cy="-193.575036504234" r="2" style="fill: rgb(0,0,0)" />
	<circle cx="372.582087846041" cy="-221.457424787036" r="2" style="fill: rgb(0,0,0)" />
	<circle cx="115.562720202621" cy="-496.386998952929" r="2" style="fill: rgb(0,0,0)" />
	<circle cx="92.8811421804455" cy="-479.907867917582" r="2" style="fill: rgb(0,0,0)" />
	<circle cx="95.8116992782715" cy="-452.02547963479" r="2" style="fill: rgb(0,0,0)" />
	<circle cx="121.423834398274" cy="-440.622222387345" r="2" style="fill: rgb(0,0,0)" />
	<circle cx="130.912977251152" cy="-523.281592049326" r="2" style="fill: rgb(0,0,0)" />
	<circle cx="116.89499111497" cy="-499.001727841698" r="2" style="fill: rgb(0,0,0)" />
	<circle cx="183.735533676677" cy="-548.549251443314" r="2" style="fill: rgb(0,0,0)" />
	<circle cx="161.053955654554" cy="-565.028382478722" r="2" style="fill: rgb(0,0,0)" />
	<circle cx="135.441820534558" cy="-553.625125231331" r="2" style="fill: rgb(0,0,0)" />
	<circle cx="132.511263436686" cy="-525.742736948533" r="2" style="fill: rgb(0,0,0)" />
	<circle cx="128.89319648296" cy="-234.481223455838" r="2" style="fill: rgb(0,0,0)" />
	<circle cx="156.316515495392" cy="-228.65221705694" r="2" style="fill: rgb(0,0,0)" />
	<circle cx="85.1495303748063" cy="-307.691161374711" r="2" style="fill: rgb(0,0,0)" />
	<circle cx="88.0800874726169" cy="-279.808773091928" r="2" style="fill: rgb(0,0,0)" />
	<circle cx="88.5391567429757" cy="-276.910323790893" r="2" style="fill: rgb(0,0,0)" />
	<circle cx="79.8755648569527" cy="-250.246529670614" r="2" style="fill: rgb(0,0,0)" />
	<circle cx="98.6352919833868" cy="-229.41174194917" r="2" style="fill: rgb(0,0,0)" />
	<circle cx="126.058610995844" cy="-235.240748348005" r="2" style="fill: rgb(0,0,0)" />
	<circle cx="254.54722058063" cy="-645.151093593433" r="2" style="fill: rgb(0,0,0)" />
	<circle cx="235.787493454158" cy="-624.316305872019" r="2" style="fill: rgb(0,0,0)" />
	<circle cx="311.468919200491" cy="-658.88416698609" r="2" style="fill: rgb(0,0,0)" />
	<circle cx="292.709192074051" cy="-679.718954707536" r="2" style="fill: rgb(0,0,0)" />
	<circle cx="265.28587306161" cy="-673.889948308685" r="2" style="fill: rgb(0,0,0)" />
	<circle cx="256.62228117561" cy="-647.226154188389" r="2" style="fill: rgb(0,0,0)" />
	<circle cx="339.820719681932" cy="-646.429250738372" r="2" style="fill: rgb(0,0,0)" />
	<circle cx="314.208584561948" cy="-657.832507985801" r="2" style="fill: rgb(0,0,0)" />
	<circle cx="370.471420843009" cy="-596.537251410689" r="2" style="fill: rgb(0,0,0)" />
	<circle cx="384.489406979212" cy="-620.817115618327" r="2" style="fill: rgb(0,0,0)" />
	<circle cx="370.471420843054" cy="-645.096979825981" r="2" style="fill: rgb(0,0,0)" />
	<circle cx="342.435448570694" cy="-645.096979825996" r="2" style="fill: rgb(0,0,0)" />
	<circle cx="458.711083450486" cy="-577.787867212424" r="2" style="fill: rgb(0,0,0)" />
	<circle cx="433.098948330504" cy="-589.191124459879" r="2" style="fill: rgb(0,0,0)" />
	<circle cx="489.361784611525" cy="-527.895867884725" r="2" style="fill: rgb(0,0,0)" />
	<circle cx="503.379770747741" cy="-552.175732092356" r="2" style="fill: rgb(0,0,0)" />
	<circle cx="489.361784611596" cy="-576.455596300022" r="2" style="fill: rgb(0,0,0)" />
	<circle cx="461.325812339234" cy="-576.455596300056" r="2" style="fill: rgb(0,0,0)" />
	<circle cx="494.482166139668" cy="-235.240748347825" r="2" style="fill: rgb(0,0,0)" />
	<circle cx="521.905485152112" cy="-229.411741948952" r="2" style="fill: rgb(0,0,0)" />
	<circle cx="540.665212278572" cy="-250.24652967038" r="2" style="fill: rgb(0,0,0)" />
	<circle cx="532.001620392588" cy="-276.91032379068" r="2" style="fill: rgb(0,0,0)" />
	<circle cx="464.224261640111" cy="-228.652217056801" r="2" style="fill: rgb(0,0,0)" />
	<circle cx="491.64758065254" cy="-234.481223455663" r="2" style="fill: rgb(0,0,0)" />
	<circle cx="532.460689662953" cy="-279.808773091698" r="2" style="fill: rgb(0,0,0)" />
	<circle cx="535.391246760801" cy="-307.691161374489" r="2" style="fill: rgb(0,0,0)" />
	<circle cx="273.570824409388" cy="-171.86644769138" r="2" style="fill: rgb(0,0,0)" />
	<circle cx="264.907232523374" cy="-145.20265357107" r="2" style="fill: rgb(0,0,0)" />
	<circle cx="273.570824409305" cy="-118.53885945075" r="2" style="fill: rgb(0,0,0)" />
	<circle cx="296.252402431413" cy="-102.059728415353" r="2" style="fill: rgb(0,0,0)" />
	<circle cx="324.288374703736" cy="-102.059728415336" r="2" style="fill: rgb(0,0,0)" />
	<circle cx="346.969952725896" cy="-118.538859450707" r="2" style="fill: rgb(0,0,0)" />
	<circle cx="355.63354461191" cy="-145.202653571017" r="2" style="fill: rgb(0,0,0)" />
	<circle cx="346.969952725979" cy="-171.866447691336" r="2" style="fill: rgb(0,0,0)" />
	<circle cx="124.226312088631" cy="-523.050793073212" r="2" style="fill: rgb(0,0,0)" />
	<circle cx="115.562720202677" cy="-549.714587193515" r="2" style="fill: rgb(0,0,0)" />
	<circle cx="92.8811421805364" cy="-566.193718228911" r="2" style="fill: rgb(0,0,0)" />
	<circle cx="64.8451699081847" cy="-566.193718228941" r="2" style="fill: rgb(0,0,0)" />
	<circle cx="42.1635918860099" cy="-549.714587193594" r="2" style="fill: rgb(0,0,0)" />
	<circle cx="33.5" cy="-523.050793073311" r="2" style="fill: rgb(0,0,0)" />
	<circle cx="42.1635918859535" cy="-496.386998953008" r="2" style="fill: rgb(0,0,0)" />
	<circle cx="64.8451699080939" cy="-479.907867917612" r="2" style="fill: rgb(0,0,0)" />
	<circle cx="59.0407771354904" cy="-231.486802544171" r="2" style="fill: rgb(0,0,0)" />
	<circle cx="77.8005042619192" cy="-210.652014822734" r="2" style="fill: rgb(0,0,0)" />
	<circle cx="286.880185675201" cy="-707.142273719998" r="2" style="fill: rgb(0,0,0)" />
	<circle cx="259.45686666277" cy="-701.313267321147" r="2" style="fill: rgb(0,0,0)" />
	<circle cx="338.892238212927" cy="-653.0551605872" r="2" style="fill: rgb(0,0,0)" />
	<circle cx="364.504373332943" cy="-664.458417834598" r="2" style="fill: rgb(0,0,0)" />
	<circle cx="378.522359469145" cy="-688.738282042236" r="2" style="fill: rgb(0,0,0)" />
	<circle cx="375.591802371331" cy="-716.620670325031" r="2" style="fill: rgb(0,0,0)" />
	<circle cx="356.832075244891" cy="-737.455458046475" r="2" style="fill: rgb(0,0,0)" />
	<circle cx="329.408756232454" cy="-743.284464445366" r="2" style="fill: rgb(0,0,0)" />
	<circle cx="303.796621112439" cy="-731.881207197968" r="2" style="fill: rgb(0,0,0)" />
	<circle cx="289.778634976236" cy="-707.601342990329" r="2" style="fill: rgb(0,0,0)" />
	<circle cx="542.740272873549" cy="-210.652014822481" r="2" style="fill: rgb(0,0,0)" />
	<circle cx="561.5" cy="-231.486802543899" r="2" style="fill: rgb(0,0,0)" />
	<circle cx="282.234416295235" cy="-77.7798642076935" r="2" style="fill: rgb(0,0,0)" />
	<circle cx="296.252402431368" cy="-53.5000000000161" r="2" style="fill: rgb(0,0,0)" />
	<circle cx="324.288374703685" cy="-53.5" r="2" style="fill: rgb(0,0,0)" />
	<circle cx="338.306360839868" cy="-77.7798642076614" r="2" style="fill: rgb(0,0,0)" />
	<!--
	Generated using the Perl SVG Module V2.86
	by Ronan Oger
	Info: http://www.roitsystems.com/
	-->
</svg>