<?xml version="1.0" encoding="UTF-8" standalone="yes"?>
<!DOCTYPE svg PUBLIC "-//W3C//DTD SVG 1.0//EN" "http://www.w3.org/TR/2001/REC-SVG-20010904/DTD/svg10.dtd">
<!-- generated using polymake; Michael Joswig, Georg Loho, Benjamin Lorenz, Rico Raber; license CC BY-NC-ND 3.0; see polymake.org and matchthenet.de -->
<svg height="841pt" id="document" viewBox="0 -646.270701760975 572 646.270701760975" width="595pt" xmlns="http://www.w3.org/2000/svg" xmlns:svg="http://www.w3.org/2000/svg" xmlns:xlink="http://www.w3.org/1999/xlink">
	<title id="document_title">planar_net_</title>
	<polygon points="250.174693287505,-290.28244548617 314.598192352288,-290.28244548617 310.391275453679,-376.359579175262 " style="fill: rgb(14,173,105); fill-opacity: 1; stroke: rgb(0,0,0); stroke-width: 3" />
	<polygon points="310.391275453676,-204.205311797083 314.598192352288,-290.28244548617 250.174693287505,-290.28244548617 " style="fill: rgb(14,173,105); fill-opacity: 1; stroke: rgb(0,0,0); stroke-width: 3" />
	<polygon points="250.174693287505,-290.28244548617 310.391275453679,-376.359579175262 228.088379569794,-350.801714963855 " style="fill: rgb(14,173,105); fill-opacity: 1; stroke: rgb(0,0,0); stroke-width: 3" />
	<polygon points="310.391275453679,-376.359579175262 314.598192352288,-290.28244548617 378.714654612397,-296.564682269254 " style="fill: rgb(14,173,105); fill-opacity: 1; stroke: rgb(0,0,0); stroke-width: 3" />
	<polygon points="250.174693287505,-290.28244548617 228.088379569794,-350.801714963855 148.669999049278,-317.339916903677 " style="fill: rgb(14,173,105); fill-opacity: 1; stroke: rgb(0,0,0); stroke-width: 3" />
	<polygon points="378.714654612395,-284.000208703089 314.598192352288,-290.28244548617 310.391275453676,-204.205311797083 " style="fill: rgb(14,173,105); fill-opacity: 1; stroke: rgb(0,0,0); stroke-width: 3" />
	<polygon points="310.391275453676,-204.205311797083 250.174693287505,-290.28244548617 228.088379569803,-229.763176008476 " style="fill: rgb(14,173,105); fill-opacity: 1; stroke: rgb(0,0,0); stroke-width: 3" />
	<polygon points="310.391275453679,-376.359579175262 378.714654612397,-296.564682269254 394.794189784895,-358.949261937526 " style="fill: rgb(14,173,105); fill-opacity: 1; stroke: rgb(0,0,0); stroke-width: 3" />
	<polygon points="228.088379569794,-350.801714963855 310.391275453679,-376.359579175262 212.008844397289,-413.186294632125 " style="fill: rgb(14,173,105); fill-opacity: 1; stroke: rgb(0,0,0); stroke-width: 3" />
	<polygon points="250.174693287505,-290.28244548617 148.669999049288,-263.224974068645 228.088379569803,-229.763176008476 " style="fill: rgb(14,173,105); fill-opacity: 1; stroke: rgb(0,0,0); stroke-width: 3" />
	<polygon points="394.794189784895,-358.949261937526 378.714654612397,-296.564682269254 477.097085668775,-333.391397726126 " style="fill: rgb(14,173,105); fill-opacity: 1; stroke: rgb(0,0,0); stroke-width: 3" />
	<polygon points="228.088379569794,-350.801714963855 200.205810215118,-408.878815080273 148.669999049278,-317.339916903677 " style="fill: rgb(14,173,105); fill-opacity: 1; stroke: rgb(0,0,0); stroke-width: 3" />
	<polygon points="378.714654612395,-284.000208703089 310.391275453676,-204.205311797083 394.794189784898,-221.615629034822 " style="fill: rgb(14,173,105); fill-opacity: 1; stroke: rgb(0,0,0); stroke-width: 3" />
	<polygon points="212.008844397289,-413.186294632125 310.391275453679,-376.359579175262 265.100209808872,-449.678679460796 " style="fill: rgb(14,173,105); fill-opacity: 1; stroke: rgb(0,0,0); stroke-width: 3" />
	<polygon points="310.391275453676,-204.205311797083 228.088379569803,-229.763176008476 212.0088443973,-167.378596340204 " style="fill: rgb(14,173,105); fill-opacity: 1; stroke: rgb(0,0,0); stroke-width: 3" />
	<polygon points="310.391275453679,-376.359579175262 394.794189784895,-358.949261937526 404.713679074297,-422.604512812754 " style="fill: rgb(14,173,105); fill-opacity: 1; stroke: rgb(0,0,0); stroke-width: 3" />
	<polygon points="378.714654612395,-284.000208703089 394.794189784898,-221.615629034822 477.097085668784,-247.173493246223 " style="fill: rgb(14,173,105); fill-opacity: 1; stroke: rgb(0,0,0); stroke-width: 3" />
	<polygon points="212.008844397289,-413.186294632125 265.100209808872,-449.678679460796 212.875308977759,-518.231803584373 " style="fill: rgb(14,173,105); fill-opacity: 1; stroke: rgb(0,0,0); stroke-width: 3" />
	<polygon points="228.088379569803,-229.763176008476 148.669999049288,-263.224974068645 200.205810215137,-171.686075892056 " style="fill: rgb(14,173,105); fill-opacity: 1; stroke: rgb(0,0,0); stroke-width: 3" />
	<polygon points="394.794189784895,-358.949261937526 477.097085668775,-333.391397726126 416.880503502596,-419.468531415219 " style="fill: rgb(14,173,105); fill-opacity: 1; stroke: rgb(0,0,0); stroke-width: 3" />
	<polygon points="148.669999049278,-317.339916903677 200.205810215118,-408.878815080273 136.089347955011,-402.596578297175 " style="fill: rgb(14,173,105); fill-opacity: 1; stroke: rgb(0,0,0); stroke-width: 3" />
	<polygon points="310.391275453676,-204.205311797083 212.0088443973,-167.378596340204 265.100209808898,-130.886211511547 " style="fill: rgb(14,173,105); fill-opacity: 1; stroke: rgb(0,0,0); stroke-width: 3" />
	<polygon points="310.391275453679,-376.359579175262 321.497089546327,-480.819957334857 265.100209808872,-449.678679460796 " style="fill: rgb(14,173,105); fill-opacity: 1; stroke: rgb(0,0,0); stroke-width: 3" />
	<polygon points="394.794189784898,-221.615629034822 310.391275453676,-204.205311797083 404.713679074292,-157.960378159595 " style="fill: rgb(14,173,105); fill-opacity: 1; stroke: rgb(0,0,0); stroke-width: 3" />
	<polygon points="200.205810215118,-408.878815080273 131.882431056393,-488.673711986264 136.089347955011,-402.596578297175 " style="fill: rgb(14,173,105); fill-opacity: 1; stroke: rgb(0,0,0); stroke-width: 3" />
	<polygon points="265.100209808898,-130.886211511547 212.0088443973,-167.378596340204 212.875308977804,-62.3330873879636 " style="fill: rgb(14,173,105); fill-opacity: 1; stroke: rgb(0,0,0); stroke-width: 3" />
	<polygon points="265.100209808872,-449.678679460796 314.380003215992,-491.174332166862 212.875308977759,-518.231803584373 " style="fill: rgb(14,173,105); fill-opacity: 1; stroke: rgb(0,0,0); stroke-width: 3" />
	<polygon points="394.794189784898,-221.615629034822 416.880503502606,-161.096359557127 477.097085668784,-247.173493246223 " style="fill: rgb(14,173,105); fill-opacity: 1; stroke: rgb(0,0,0); stroke-width: 3" />
	<polygon points="200.205810215137,-171.686075892056 148.669999049288,-263.224974068645 136.089347955033,-177.968312675139 " style="fill: rgb(14,173,105); fill-opacity: 1; stroke: rgb(0,0,0); stroke-width: 3" />
	<polygon points="416.880503502596,-419.468531415219 477.097085668775,-333.391397726126 481.304002567379,-419.468531415222 " style="fill: rgb(14,173,105); fill-opacity: 1; stroke: rgb(0,0,0); stroke-width: 3" />
	<polygon points="404.713679074292,-157.960378159595 310.391275453676,-204.205311797083 348.316799336839,-126.819100285536 " style="fill: rgb(14,173,105); fill-opacity: 1; stroke: rgb(0,0,0); stroke-width: 3" />
	<polygon points="148.669999049278,-317.339916903677 136.089347955011,-402.596578297175 72.8910694874173,-390.091985921441 " style="fill: rgb(14,173,105); fill-opacity: 1; stroke: rgb(0,0,0); stroke-width: 3" />
	<polygon points="200.205810215137,-171.686075892056 136.089347955033,-177.968312675139 131.882431056426,-91.8911789860431 " style="fill: rgb(14,173,105); fill-opacity: 1; stroke: rgb(0,0,0); stroke-width: 3" />
	<polygon points="314.380003215992,-491.174332166862 292.293689498274,-551.693601644552 212.875308977759,-518.231803584373 " style="fill: rgb(14,173,105); fill-opacity: 1; stroke: rgb(0,0,0); stroke-width: 3" />
	<polygon points="404.713679074292,-157.960378159595 348.316799336839,-126.819100285536 393.607864981644,-53.5 " style="fill: rgb(14,173,105); fill-opacity: 1; stroke: rgb(0,0,0); stroke-width: 3" />
	<polygon points="136.089347955011,-402.596578297175 131.882431056393,-488.673711986264 71.6658488902259,-402.596578297162 " style="fill: rgb(14,173,105); fill-opacity: 1; stroke: rgb(0,0,0); stroke-width: 3" />
	<polygon points="477.097085668784,-247.173493246223 416.880503502606,-161.096359557127 481.304002567394,-161.096359557132 " style="fill: rgb(14,173,105); fill-opacity: 1; stroke: rgb(0,0,0); stroke-width: 3" />
	<polygon points="148.669999049288,-263.224974068645 72.8910694874422,-190.472905050872 136.089347955033,-177.968312675139 " style="fill: rgb(14,173,105); fill-opacity: 1; stroke: rgb(0,0,0); stroke-width: 3" />
	<polygon points="481.304002567379,-419.468531415222 477.097085668775,-333.391397726126 545.420464827485,-413.186294632138 " style="fill: rgb(14,173,105); fill-opacity: 1; stroke: rgb(0,0,0); stroke-width: 3" />
	<polygon points="416.880503502606,-161.096359557127 477.097085668779,-75.0192258680383 481.304002567394,-161.096359557132 " style="fill: rgb(14,173,105); fill-opacity: 1; stroke: rgb(0,0,0); stroke-width: 3" />
	<polygon points="136.089347955033,-177.968312675139 71.6658488902441,-177.968312675136 131.882431056426,-91.8911789860431 " style="fill: rgb(14,173,105); fill-opacity: 1; stroke: rgb(0,0,0); stroke-width: 3" />
	<polygon points="292.293689498274,-551.693601644552 264.4111201436,-609.770701760975 212.875308977759,-518.231803584373 " style="fill: rgb(14,173,105); fill-opacity: 1; stroke: rgb(0,0,0); stroke-width: 3" />
	<polygon points="71.6658488902259,-402.596578297162 131.882431056393,-488.673711986264 49.5795351725113,-463.115847774848 " style="fill: rgb(14,173,105); fill-opacity: 1; stroke: rgb(0,0,0); stroke-width: 3" />
	<polygon points="477.097085668784,-247.173493246223 481.304002567394,-161.096359557132 545.420464827508,-167.378596340213 " style="fill: rgb(14,173,105); fill-opacity: 1; stroke: rgb(0,0,0); stroke-width: 3" />
	<polygon points="71.6658488902441,-177.968312675136 49.5795351725436,-117.44904319744 131.882431056426,-91.8911789860431 " style="fill: rgb(14,173,105); fill-opacity: 1; stroke: rgb(0,0,0); stroke-width: 3" />
	<polygon points="481.304002567394,-161.096359557132 477.097085668779,-75.0192258680383 545.420464827499,-154.814122774042 " style="fill: rgb(14,173,105); fill-opacity: 1; stroke: rgb(0,0,0); stroke-width: 3" />
	<polygon points="131.882431056393,-488.673711986264 33.5,-525.500427443115 49.5795351725113,-463.115847774848 " style="fill: rgb(14,173,105); fill-opacity: 1; stroke: rgb(0,0,0); stroke-width: 3" />
	<polygon points="545.420464827499,-154.814122774042 477.097085668779,-75.0192258680383 561.5,-92.4295431057762 " style="fill: rgb(14,173,105); fill-opacity: 1; stroke: rgb(0,0,0); stroke-width: 3" />
	<circle cx="250.174693287505" cy="-290.28244548617" r="2" style="fill: rgb(0,0,0)" />
	<circle cx="314.598192352288" cy="-290.28244548617" r="2" style="fill: rgb(0,0,0)" />
	<circle cx="310.391275453679" cy="-376.359579175262" r="2" style="fill: rgb(0,0,0)" />
	<circle cx="310.391275453676" cy="-204.205311797083" r="2" style="fill: rgb(0,0,0)" />
	<circle cx="228.088379569794" cy="-350.801714963855" r="2" style="fill: rgb(0,0,0)" />
	<circle cx="378.714654612397" cy="-296.564682269254" r="2" style="fill: rgb(0,0,0)" />
	<circle cx="378.714654612395" cy="-284.000208703089" r="2" style="fill: rgb(0,0,0)" />
	<circle cx="228.088379569803" cy="-229.763176008476" r="2" style="fill: rgb(0,0,0)" />
	<circle cx="148.669999049278" cy="-317.339916903677" r="2" style="fill: rgb(0,0,0)" />
	<circle cx="212.008844397289" cy="-413.186294632125" r="2" style="fill: rgb(0,0,0)" />
	<circle cx="394.794189784895" cy="-358.949261937526" r="2" style="fill: rgb(0,0,0)" />
	<circle cx="394.794189784898" cy="-221.615629034822" r="2" style="fill: rgb(0,0,0)" />
	<circle cx="148.669999049288" cy="-263.224974068645" r="2" style="fill: rgb(0,0,0)" />
	<circle cx="212.0088443973" cy="-167.378596340204" r="2" style="fill: rgb(0,0,0)" />
	<circle cx="200.205810215118" cy="-408.878815080273" r="2" style="fill: rgb(0,0,0)" />
	<circle cx="265.100209808872" cy="-449.678679460796" r="2" style="fill: rgb(0,0,0)" />
	<circle cx="477.097085668775" cy="-333.391397726126" r="2" style="fill: rgb(0,0,0)" />
	<circle cx="404.713679074297" cy="-422.604512812754" r="2" style="fill: rgb(0,0,0)" />
	<circle cx="477.097085668784" cy="-247.173493246223" r="2" style="fill: rgb(0,0,0)" />
	<circle cx="404.713679074292" cy="-157.960378159595" r="2" style="fill: rgb(0,0,0)" />
	<circle cx="200.205810215137" cy="-171.686075892056" r="2" style="fill: rgb(0,0,0)" />
	<circle cx="265.100209808898" cy="-130.886211511547" r="2" style="fill: rgb(0,0,0)" />
	<circle cx="136.089347955011" cy="-402.596578297175" r="2" style="fill: rgb(0,0,0)" />
	<circle cx="212.875308977759" cy="-518.231803584373" r="2" style="fill: rgb(0,0,0)" />
	<circle cx="321.497089546327" cy="-480.819957334857" r="2" style="fill: rgb(0,0,0)" />
	<circle cx="416.880503502596" cy="-419.468531415219" r="2" style="fill: rgb(0,0,0)" />
	<circle cx="416.880503502606" cy="-161.096359557127" r="2" style="fill: rgb(0,0,0)" />
	<circle cx="348.316799336839" cy="-126.819100285536" r="2" style="fill: rgb(0,0,0)" />
	<circle cx="136.089347955033" cy="-177.968312675139" r="2" style="fill: rgb(0,0,0)" />
	<circle cx="212.875308977804" cy="-62.3330873879636" r="2" style="fill: rgb(0,0,0)" />
	<circle cx="131.882431056393" cy="-488.673711986264" r="2" style="fill: rgb(0,0,0)" />
	<circle cx="72.8910694874173" cy="-390.091985921441" r="2" style="fill: rgb(0,0,0)" />
	<circle cx="314.380003215992" cy="-491.174332166862" r="2" style="fill: rgb(0,0,0)" />
	<circle cx="481.304002567379" cy="-419.468531415222" r="2" style="fill: rgb(0,0,0)" />
	<circle cx="481.304002567394" cy="-161.096359557132" r="2" style="fill: rgb(0,0,0)" />
	<circle cx="393.607864981644" cy="-53.5" r="2" style="fill: rgb(0,0,0)" />
	<circle cx="131.882431056426" cy="-91.8911789860431" r="2" style="fill: rgb(0,0,0)" />
	<circle cx="72.8910694874422" cy="-190.472905050872" r="2" style="fill: rgb(0,0,0)" />
	<circle cx="71.6658488902259" cy="-402.596578297162" r="2" style="fill: rgb(0,0,0)" />
	<circle cx="292.293689498274" cy="-551.693601644552" r="2" style="fill: rgb(0,0,0)" />
	<circle cx="545.420464827485" cy="-413.186294632138" r="2" style="fill: rgb(0,0,0)" />
	<circle cx="477.097085668779" cy="-75.0192258680383" r="2" style="fill: rgb(0,0,0)" />
	<circle cx="545.420464827508" cy="-167.378596340213" r="2" style="fill: rgb(0,0,0)" />
	<circle cx="71.6658488902441" cy="-177.968312675136" r="2" style="fill: rgb(0,0,0)" />
	<circle cx="49.5795351725113" cy="-463.115847774848" r="2" style="fill: rgb(0,0,0)" />
	<circle cx="264.4111201436" cy="-609.770701760975" r="2" style="fill: rgb(0,0,0)" />
	<circle cx="545.420464827499" cy="-154.814122774042" r="2" style="fill: rgb(0,0,0)" />
	<circle cx="49.5795351725436" cy="-117.44904319744" r="2" style="fill: rgb(0,0,0)" />
	<circle cx="33.5" cy="-525.500427443115" r="2" style="fill: rgb(0,0,0)" />
	<circle cx="561.5" cy="-92.4295431057762" r="2" style="fill: rgb(0,0,0)" />
	<!--
	Generated using the Perl SVG Module V2.87
	by Ronan Oger

	-->
</svg>