<?xml version="1.0" encoding="UTF-8" standalone="yes"?>
<!DOCTYPE svg PUBLIC "-//W3C//DTD SVG 1.0//EN" "http://www.w3.org/TR/2001/REC-SVG-20010904/DTD/svg10.dtd">
<!-- generated using polymake; Michael Joswig, Georg Loho, Benjamin Lorenz, Rico Raber; license CC BY-NC-SA 3.0; see polymake.org and matchthenet.de -->
<svg height="841pt" id="document" viewBox="0 -779.784464445367 572 779.784464445367" width="595pt" xmlns="http://www.w3.org/2000/svg" xmlns:svg="http://www.w3.org/2000/svg" xmlns:xlink="http://www.w3.org/1999/xlink">
	<title id="document_title">planar_net_</title>
	<polygon points="296.252402431661,-379.263101998182 324.288374704015,-379.263101998182 338.306360840194,-403.542966205837 324.288374704029,-427.822830413498 296.252402431682,-427.822830413501 282.234416295499,-403.542966205844 " style="fill: rgb(238,66,102); fill-opacity: 1; stroke: rgb(0,0,0); stroke-width: 3" />
	<polygon points="324.288374704,-351.227129725814 324.288374704015,-379.263101998182 296.252402431661,-379.263101998182 296.252402431658,-351.227129725825 " style="fill: rgb(67,184,206); fill-opacity: 1; stroke: rgb(0,0,0); stroke-width: 3" />
	<polygon points="282.234416295499,-403.542966205844 296.252402431682,-427.822830413501 271.972538224028,-441.840816549688 257.954552087842,-417.560952342043 " style="fill: rgb(67,184,206); fill-opacity: 1; stroke: rgb(0,0,0); stroke-width: 3" />
	<polygon points="296.252402431661,-379.263101998182 282.234416295499,-403.542966205844 256.622281175503,-414.946223453282 229.198962163056,-409.117217054435 210.439235036581,-388.282429333021 207.508677938719,-360.400041050232 221.526664074881,-336.12017684257 247.138799194878,-324.716919595132 274.562118207325,-330.545925993979 293.321845333799,-351.380713715392 " style="fill: rgb(136,136,136); fill-opacity: 1; stroke: rgb(0,0,0); stroke-width: 3" />
	<polygon points="338.306360840152,-326.947265518142 324.288374704,-351.227129725814 296.252402431658,-351.227129725825 282.23441629548,-326.947265518169 296.252402431633,-302.667401310498 324.288374703969,-302.667401310484 " style="fill: rgb(238,66,102); fill-opacity: 1; stroke: rgb(0,0,0); stroke-width: 3" />
	<polygon points="271.972538224028,-441.840816549688 257.954552087862,-466.120680757352 229.91857981551,-466.120680757381 215.900593679324,-441.840816549742 229.91857981549,-417.560952342074 257.954552087842,-417.560952342043 " style="fill: rgb(238,66,102); fill-opacity: 1; stroke: rgb(0,0,0); stroke-width: 3" />
	<polygon points="373.401977940759,-324.716919595093 345.978658928316,-330.545925993959 340.149652529448,-303.122606981512 367.572971541876,-297.29360058264 " style="fill: rgb(67,184,206); fill-opacity: 1; stroke: rgb(0,0,0); stroke-width: 3" />
	<polygon points="264.907232523567,-470.965755569176 273.570824409557,-497.629549689472 246.907030289264,-506.29314157547 238.243438403268,-479.629347455183 " style="fill: rgb(67,184,206); fill-opacity: 1; stroke: rgb(0,0,0); stroke-width: 3" />
	<polygon points="274.562118207325,-330.545925993979 247.138799194878,-324.716919595132 252.96780559372,-297.293600582679 280.39112460616,-303.122606981516 " style="fill: rgb(67,184,206); fill-opacity: 1; stroke: rgb(0,0,0); stroke-width: 3" />
	<polygon points="210.439235036581,-388.282429333021 229.198962163056,-409.117217054435 208.364174441638,-427.876944180916 189.604447315167,-407.042156459516 " style="fill: rgb(67,184,206); fill-opacity: 1; stroke: rgb(0,0,0); stroke-width: 3" />
	<polygon points="324.288374703969,-302.667401310484 296.252402431633,-302.667401310498 273.570824409474,-286.188270275127 264.907232523472,-259.524476154821 273.570824409422,-232.860682034507 296.25240243155,-216.381550999115 324.288374703885,-216.381550999101 346.969952726045,-232.860682034471 355.633544612047,-259.524476154777 346.969952726096,-286.188270275092 " style="fill: rgb(136,136,136); fill-opacity: 1; stroke: rgb(0,0,0); stroke-width: 3" />
	<polygon points="226.988022717682,-494.003069040177 208.228295591238,-514.837856761624 180.804976578807,-520.666863160519 155.192841458806,-509.263605913125 141.174855322621,-484.983741705487 144.105412420449,-457.101353422691 162.865139546892,-436.266565701244 190.288458559324,-430.437559302348 215.900593679324,-441.840816549742 229.91857981551,-466.120680757381 " style="fill: rgb(136,136,136); fill-opacity: 1; stroke: rgb(0,0,0); stroke-width: 3" />
	<polygon points="247.138799194878,-324.716919595132 221.526664074881,-336.12017684257 198.845086052709,-319.641045807213 201.775643150523,-291.758657524416 227.387778270514,-280.355400276977 250.06935629269,-296.834531312335 " style="fill: rgb(238,66,102); fill-opacity: 1; stroke: rgb(0,0,0); stroke-width: 3" />
	<polygon points="207.508677938719,-360.400041050232 210.439235036581,-388.282429333021 187.757657014431,-404.761560368408 162.145521894416,-393.358303121017 159.214964796553,-365.475914838234 181.896542818704,-348.996783802842 " style="fill: rgb(238,66,102); fill-opacity: 1; stroke: rgb(0,0,0); stroke-width: 3" />
	<polygon points="221.526664074881,-336.12017684257 207.508677938719,-360.400041050232 183.228813731048,-346.38205491407 197.2467998672,-322.102190706413 " style="fill: rgb(67,184,206); fill-opacity: 1; stroke: rgb(0,0,0); stroke-width: 3" />
	<polygon points="227.387778270514,-280.355400276977 201.775643150523,-291.758657524416 190.372385903074,-266.146522404416 215.984521023054,-254.743265156976 " style="fill: rgb(67,184,206); fill-opacity: 1; stroke: rgb(0,0,0); stroke-width: 3" />
	<polygon points="180.085358926271,-340.47583352866 152.662039913835,-346.304839927556 127.049904793819,-334.901582680163 113.031918657615,-310.621718472526 115.962475755429,-282.73933018973 134.722202881867,-261.904542468282 162.145521894304,-256.075536069386 187.75765701432,-267.47879331678 201.775643150523,-291.758657524416 198.845086052709,-319.641045807213 " style="fill: rgb(136,136,136); fill-opacity: 1; stroke: rgb(0,0,0); stroke-width: 3" />
	<polygon points="159.214964796553,-365.475914838234 162.145521894416,-393.358303121017 134.263133611616,-396.288860218885 131.332576513749,-368.406471936114 " style="fill: rgb(67,184,206); fill-opacity: 1; stroke: rgb(0,0,0); stroke-width: 3" />
	<polygon points="324.288374703885,-216.381550999101 296.25240243155,-216.381550999115 296.252402431547,-188.34557872675 324.288374703871,-188.345578726734 " style="fill: rgb(67,184,206); fill-opacity: 1; stroke: rgb(0,0,0); stroke-width: 3" />
	<polygon points="296.25240243155,-216.381550999115 273.570824409422,-232.860682034507 247.958689289403,-221.457424787115 245.0281321915,-193.575036504334 267.709710213621,-177.095905468945 293.321845333645,-188.499162716336 " style="fill: rgb(238,66,102); fill-opacity: 1; stroke: rgb(0,0,0); stroke-width: 3" />
	<polygon points="144.105412420449,-457.101353422691 141.174855322621,-484.983741705487 115.562720202621,-496.386998952928 92.8811421804451,-479.907867917582 95.8116992782712,-452.02547963479 121.423834398273,-440.622222387345 " style="fill: rgb(238,66,102); fill-opacity: 1; stroke: rgb(0,0,0); stroke-width: 3" />
	<polygon points="141.174855322621,-484.983741705487 155.192841458806,-509.263605913125 130.912977251152,-523.281592049326 116.894991114969,-499.001727841697 " style="fill: rgb(67,184,206); fill-opacity: 1; stroke: rgb(0,0,0); stroke-width: 3" />
	<polygon points="162.145521894304,-256.075536069386 134.722202881867,-261.904542468282 128.89319648296,-234.481223455838 156.316515495392,-228.65221705694 " style="fill: rgb(67,184,206); fill-opacity: 1; stroke: rgb(0,0,0); stroke-width: 3" />
	<polygon points="115.962475755429,-282.73933018973 113.031918657615,-310.621718472526 85.1495303748064,-307.691161374711 88.0800874726171,-279.808773091929 " style="fill: rgb(67,184,206); fill-opacity: 1; stroke: rgb(0,0,0); stroke-width: 3" />
	<polygon points="134.722202881867,-261.904542468282 115.962475755429,-282.73933018973 88.5391567429761,-276.910323790894 79.8755648569523,-250.246529670615 98.6352919833861,-229.411741949171 126.058610995843,-235.240748348005 " style="fill: rgb(238,66,102); fill-opacity: 1; stroke: rgb(0,0,0); stroke-width: 3" />
	<polygon points="98.6352919833861,-229.411741949171 79.8755648569523,-250.246529670615 59.0407771354898,-231.486802544172 77.8005042619184,-210.652014822735 " style="fill: rgb(67,184,206); fill-opacity: 1; stroke: rgb(0,0,0); stroke-width: 3" />
	<polygon points="324.288374703735,-102.059728415336 296.252402431413,-102.059728415353 282.234416295234,-77.7798642076938 296.252402431368,-53.5000000000161 324.288374703684,-53.5 338.306360839867,-77.7798642076614 " style="fill: rgb(238,66,102); fill-opacity: 1; stroke: rgb(0,0,0); stroke-width: 3" />
	<polygon points="265.285873061609,-673.889948308685 292.70919207405,-679.718954707536 286.8801856752,-707.142273719999 259.456866662769,-701.313267321147 " style="fill: rgb(67,184,206); fill-opacity: 1; stroke: rgb(0,0,0); stroke-width: 3" />
	<polygon points="540.665212278572,-250.24652967038 521.905485152112,-229.411741948953 542.74027287355,-210.652014822481 561.5,-231.4868025439 " style="fill: rgb(67,184,206); fill-opacity: 1; stroke: rgb(0,0,0); stroke-width: 3" />
	<polygon points="92.8811421805372,-566.19371822891 64.845169908185,-566.193718228941 42.1635918860097,-549.714587193595 33.5,-523.050793073311 42.1635918859534,-496.386998953008 64.8451699080935,-479.907867917612 92.8811421804451,-479.907867917582 115.562720202621,-496.386998952928 124.22631208863,-523.050793073212 115.562720202677,-549.714587193514 " style="fill: rgb(136,136,136); fill-opacity: 1; stroke: rgb(0,0,0); stroke-width: 3" />
	<polygon points="296.252402431547,-188.34557872675 273.570824409388,-171.86644769138 264.907232523374,-145.202653571071 273.570824409305,-118.538859450751 296.252402431413,-102.059728415353 324.288374703735,-102.059728415336 346.969952725895,-118.538859450707 355.633544611909,-145.202653571017 346.969952725978,-171.866447691336 324.288374703871,-188.345578726734 " style="fill: rgb(136,136,136); fill-opacity: 1; stroke: rgb(0,0,0); stroke-width: 3" />
	<polygon points="256.622281175575,-605.556578745528 275.382008302047,-626.391366466946 254.547220580629,-645.151093593433 235.787493454157,-624.31630587202 " style="fill: rgb(67,184,206); fill-opacity: 1; stroke: rgb(0,0,0); stroke-width: 3" />
	<polygon points="275.382008302047,-626.391366466946 302.805327314493,-632.220372865798 311.46891920049,-658.88416698609 292.70919207405,-679.718954707536 265.285873061609,-673.889948308685 256.622281175609,-647.22615418839 " style="fill: rgb(238,66,102); fill-opacity: 1; stroke: rgb(0,0,0); stroke-width: 3" />
	<polygon points="504.578301380147,-282.739330189554 485.818574253683,-261.904542468121 494.482166139668,-235.240748347825 521.905485152112,-229.411741948953 540.665212278572,-250.24652967038 532.001620392588,-276.91032379068 " style="fill: rgb(238,66,102); fill-opacity: 1; stroke: rgb(0,0,0); stroke-width: 3" />
	<polygon points="485.818574253683,-261.904542468121 458.395255241238,-256.075536069253 464.224261640111,-228.652217056802 491.647580652539,-234.481223455663 " style="fill: rgb(67,184,206); fill-opacity: 1; stroke: rgb(0,0,0); stroke-width: 3" />
	<polygon points="183.735533676677,-548.549251443314 161.053955654553,-565.028382478721 135.441820534558,-553.625125231331 132.511263436686,-525.742736948533 155.192841458806,-509.263605913125 180.804976578807,-520.666863160519 " style="fill: rgb(238,66,102); fill-opacity: 1; stroke: rgb(0,0,0); stroke-width: 3" />
	<polygon points="302.805327314493,-632.220372865798 328.417462434489,-620.817115618362 339.820719681931,-646.429250738372 314.208584561947,-657.832507985801 " style="fill: rgb(67,184,206); fill-opacity: 1; stroke: rgb(0,0,0); stroke-width: 3" />
	<polygon points="356.83207524489,-737.455458046476 329.408756232453,-743.284464445367 303.796621112438,-731.881207197969 289.778634976235,-707.601342990331 292.70919207405,-679.718954707536 311.46891920049,-658.88416698609 338.892238212926,-653.055160587199 364.504373332941,-664.458417834598 378.522359469144,-688.738282042237 375.591802371329,-716.620670325031 " style="fill: rgb(136,136,136); fill-opacity: 1; stroke: rgb(0,0,0); stroke-width: 3" />
	<polygon points="507.508858477995,-310.621718472352 504.578301380147,-282.739330189554 532.460689662953,-279.808773091698 535.391246760801,-307.691161374489 " style="fill: rgb(67,184,206); fill-opacity: 1; stroke: rgb(0,0,0); stroke-width: 3" />
	<polygon points="346.969952726045,-232.860682034471 324.288374703885,-216.381550999101 327.218931801728,-188.499162716303 352.831066921725,-177.095905468867 375.512644943881,-193.575036504233 372.58208784604,-221.457424787035 " style="fill: rgb(238,66,102); fill-opacity: 1; stroke: rgb(0,0,0); stroke-width: 3" />
	<polygon points="245.028132191721,-536.91519521971 267.709710213877,-553.394326255076 251.230579178508,-576.075904277248 228.549001156356,-559.59677324189 " style="fill: rgb(67,184,206); fill-opacity: 1; stroke: rgb(0,0,0); stroke-width: 3" />
	<polygon points="421.695691083027,-563.578989339886 447.307826203016,-552.175732092428 458.711083450485,-577.787867212425 433.098948330503,-589.19112445988 " style="fill: rgb(67,184,206); fill-opacity: 1; stroke: rgb(0,0,0); stroke-width: 3" />
	<polygon points="418.765133985063,-291.758657524332 393.152998865064,-280.355400276915 404.556256112486,-254.743265156902 430.168391232475,-266.14652240431 " style="fill: rgb(67,184,206); fill-opacity: 1; stroke: rgb(0,0,0); stroke-width: 3" />
	<polygon points="370.471420843008,-596.537251410688 384.48940697921,-620.817115618327 370.471420843053,-645.096979825981 342.435448570693,-645.096979825996 328.417462434489,-620.817115618362 342.435448570652,-596.537251410701 " style="fill: rgb(238,66,102); fill-opacity: 1; stroke: rgb(0,0,0); stroke-width: 3" />
	<polygon points="489.361784611523,-527.895867884726 503.379770747739,-552.175732092358 489.361784611594,-576.455596300023 461.325812339232,-576.455596300056 447.307826203016,-552.175732092428 461.325812339166,-527.895867884757 " style="fill: rgb(238,66,102); fill-opacity: 1; stroke: rgb(0,0,0); stroke-width: 3" />
	<polygon points="320.74516434632,-547.820075406492 339.504891472792,-568.65486312791 342.435448570652,-596.537251410701 328.417462434489,-620.817115618362 302.805327314493,-632.220372865798 275.382008302047,-626.391366466946 256.622281175575,-605.556578745528 253.691724077715,-577.674190462736 267.709710213877,-553.394326255076 293.321845333875,-541.99106900764 " style="fill: rgb(136,136,136); fill-opacity: 1; stroke: rgb(0,0,0); stroke-width: 3" />
	<polygon points="421.695691082911,-319.641045807132 418.765133985063,-291.758657524332 432.783120121236,-267.478793316676 458.395255241238,-256.075536069253 485.818574253683,-261.904542468121 504.578301380147,-282.739330189554 507.508858477995,-310.621718472352 493.490872341822,-334.901582680009 467.87873722182,-346.304839927432 440.455418209375,-340.475833528564 " style="fill: rgb(136,136,136); fill-opacity: 1; stroke: rgb(0,0,0); stroke-width: 3" />
	<polygon points="352.831066921955,-553.394326255037 375.512644944095,-536.915195219663 391.991775979484,-559.596773241822 369.310197957356,-576.07590427719 " style="fill: rgb(67,184,206); fill-opacity: 1; stroke: rgb(0,0,0); stroke-width: 3" />
	<polygon points="458.395255241274,-393.358303120889 461.325812339114,-365.4759148381 489.208200621919,-368.406471935937 486.277643524084,-396.288860218716 " style="fill: rgb(67,184,206); fill-opacity: 1; stroke: rgb(0,0,0); stroke-width: 3" />
	<polygon points="273.570824409557,-497.629549689472 296.252402431717,-514.108680724843 293.321845333875,-541.99106900764 267.709710213877,-553.394326255076 245.028132191721,-536.91519521971 247.958689289561,-509.032806936909 " style="fill: rgb(238,66,102); fill-opacity: 1; stroke: rgb(0,0,0); stroke-width: 3" />
	<polygon points="399.014113060763,-336.120176842515 373.401977940759,-324.716919595093 370.471420842913,-296.834531312297 393.152998865064,-280.355400276915 418.765133985063,-291.758657524332 421.695691082911,-319.641045807132 " style="fill: rgb(238,66,102); fill-opacity: 1; stroke: rgb(0,0,0); stroke-width: 3" />
	<polygon points="296.252402431717,-514.108680724843 324.288374704063,-514.108680724839 324.288374704068,-542.144652997202 296.252402431731,-542.14465299721 " style="fill: rgb(67,184,206); fill-opacity: 1; stroke: rgb(0,0,0); stroke-width: 3" />
	<polygon points="413.032099196941,-360.400041050169 399.014113060763,-336.120176842515 423.293977268422,-322.10219070633 437.3119634046,-346.382054913972 " style="fill: rgb(67,184,206); fill-opacity: 1; stroke: rgb(0,0,0); stroke-width: 3" />
	<polygon points="324.288374704063,-514.108680724839 346.96995272621,-497.629549689463 372.58208784622,-509.032806936876 375.512644944095,-536.915195219663 352.831066921955,-553.394326255037 327.21893180194,-541.991069007624 " style="fill: rgb(238,66,102); fill-opacity: 1; stroke: rgb(0,0,0); stroke-width: 3" />
	<polygon points="410.1015420991,-388.282429332963 413.032099196941,-360.400041050169 438.644234316946,-348.996783802742 461.325812339114,-365.4759148381 458.395255241274,-393.358303120889 432.783120121267,-404.76156036832 " style="fill: rgb(238,66,102); fill-opacity: 1; stroke: rgb(0,0,0); stroke-width: 3" />
	<polygon points="439.635528114807,-479.178691880573 458.395255241291,-500.013479601971 461.325812339166,-527.895867884757 447.307826203016,-552.175732092428 421.695691083027,-563.578989339886 394.272372070578,-557.74998294106 375.512644944095,-536.915195219663 372.58208784622,-509.032806936876 386.600073982369,-484.752942729206 412.212209102359,-473.349685481748 " style="fill: rgb(136,136,136); fill-opacity: 1; stroke: rgb(0,0,0); stroke-width: 3" />
	<polygon points="346.96995272621,-497.629549689463 355.633544612179,-470.965755569164 382.297338732482,-479.629347455135 373.633746846524,-506.293141575422 " style="fill: rgb(67,184,206); fill-opacity: 1; stroke: rgb(0,0,0); stroke-width: 3" />
	<polygon points="391.34181497264,-409.117217054392 410.1015420991,-388.282429332963 430.936329820538,-407.042156459423 412.176602694088,-427.87694418085 " style="fill: rgb(67,184,206); fill-opacity: 1; stroke: rgb(0,0,0); stroke-width: 3" />
	<polygon points="296.252402431682,-427.822830413501 324.288374704029,-427.822830413498 346.969952726188,-444.301961448868 355.633544612179,-470.965755569164 346.96995272621,-497.629549689463 324.288374704063,-514.108680724839 296.252402431717,-514.108680724843 273.570824409557,-497.629549689472 264.907232523567,-470.965755569176 273.570824409536,-444.301961448878 " style="fill: rgb(136,136,136); fill-opacity: 1; stroke: rgb(0,0,0); stroke-width: 3" />
	<polygon points="365.729679852644,-423.467173727435 393.152998865093,-429.296180126286 401.816590751084,-455.959974246574 383.056863624627,-476.794761968012 355.633544612179,-470.965755569164 346.969952726188,-444.301961448868 " style="fill: rgb(238,66,102); fill-opacity: 1; stroke: rgb(0,0,0); stroke-width: 3" />
	<polygon points="324.288374704029,-427.822830413498 338.306360840194,-403.542966205837 362.586225047862,-417.560952342002 348.56823891171,-441.840816549657 " style="fill: rgb(67,184,206); fill-opacity: 1; stroke: rgb(0,0,0); stroke-width: 3" />
	<polygon points="338.306360840194,-403.542966205837 324.288374704015,-379.263101998182 327.218931801857,-351.380713715388 345.978658928316,-330.545925993959 373.401977940759,-324.716919595093 399.014113060763,-336.120176842515 413.032099196941,-360.400041050169 410.1015420991,-388.282429332963 391.34181497264,-409.117217054392 363.918495960198,-414.946223453259 " style="fill: rgb(136,136,136); fill-opacity: 1; stroke: rgb(0,0,0); stroke-width: 3" />
	<circle cx="296.252402431661" cy="-379.263101998182" r="2" style="fill: rgb(0,0,0)" />
	<circle cx="324.288374704015" cy="-379.263101998182" r="2" style="fill: rgb(0,0,0)" />
	<circle cx="338.306360840194" cy="-403.542966205837" r="2" style="fill: rgb(0,0,0)" />
	<circle cx="324.288374704029" cy="-427.822830413498" r="2" style="fill: rgb(0,0,0)" />
	<circle cx="296.252402431682" cy="-427.822830413501" r="2" style="fill: rgb(0,0,0)" />
	<circle cx="282.234416295499" cy="-403.542966205844" r="2" style="fill: rgb(0,0,0)" />
	<circle cx="296.252402431658" cy="-351.227129725825" r="2" style="fill: rgb(0,0,0)" />
	<circle cx="324.288374704" cy="-351.227129725814" r="2" style="fill: rgb(0,0,0)" />
	<circle cx="271.972538224028" cy="-441.840816549688" r="2" style="fill: rgb(0,0,0)" />
	<circle cx="257.954552087842" cy="-417.560952342043" r="2" style="fill: rgb(0,0,0)" />
	<circle cx="256.622281175503" cy="-414.946223453282" r="2" style="fill: rgb(0,0,0)" />
	<circle cx="229.198962163056" cy="-409.117217054435" r="2" style="fill: rgb(0,0,0)" />
	<circle cx="210.439235036581" cy="-388.282429333021" r="2" style="fill: rgb(0,0,0)" />
	<circle cx="207.508677938719" cy="-360.400041050232" r="2" style="fill: rgb(0,0,0)" />
	<circle cx="221.526664074881" cy="-336.12017684257" r="2" style="fill: rgb(0,0,0)" />
	<circle cx="247.138799194878" cy="-324.716919595132" r="2" style="fill: rgb(0,0,0)" />
	<circle cx="274.562118207325" cy="-330.545925993979" r="2" style="fill: rgb(0,0,0)" />
	<circle cx="293.321845333799" cy="-351.380713715392" r="2" style="fill: rgb(0,0,0)" />
	<circle cx="346.969952726188" cy="-444.301961448868" r="2" style="fill: rgb(0,0,0)" />
	<circle cx="355.633544612179" cy="-470.965755569164" r="2" style="fill: rgb(0,0,0)" />
	<circle cx="346.96995272621" cy="-497.629549689463" r="2" style="fill: rgb(0,0,0)" />
	<circle cx="324.288374704063" cy="-514.108680724839" r="2" style="fill: rgb(0,0,0)" />
	<circle cx="296.252402431717" cy="-514.108680724843" r="2" style="fill: rgb(0,0,0)" />
	<circle cx="273.570824409557" cy="-497.629549689472" r="2" style="fill: rgb(0,0,0)" />
	<circle cx="264.907232523567" cy="-470.965755569176" r="2" style="fill: rgb(0,0,0)" />
	<circle cx="273.570824409536" cy="-444.301961448878" r="2" style="fill: rgb(0,0,0)" />
	<circle cx="362.586225047862" cy="-417.560952342002" r="2" style="fill: rgb(0,0,0)" />
	<circle cx="348.56823891171" cy="-441.840816549657" r="2" style="fill: rgb(0,0,0)" />
	<circle cx="327.218931801857" cy="-351.380713715388" r="2" style="fill: rgb(0,0,0)" />
	<circle cx="345.978658928316" cy="-330.545925993959" r="2" style="fill: rgb(0,0,0)" />
	<circle cx="373.401977940759" cy="-324.716919595093" r="2" style="fill: rgb(0,0,0)" />
	<circle cx="399.014113060763" cy="-336.120176842515" r="2" style="fill: rgb(0,0,0)" />
	<circle cx="413.032099196941" cy="-360.400041050169" r="2" style="fill: rgb(0,0,0)" />
	<circle cx="410.1015420991" cy="-388.282429332963" r="2" style="fill: rgb(0,0,0)" />
	<circle cx="391.34181497264" cy="-409.117217054392" r="2" style="fill: rgb(0,0,0)" />
	<circle cx="363.918495960198" cy="-414.946223453259" r="2" style="fill: rgb(0,0,0)" />
	<circle cx="282.23441629548" cy="-326.947265518169" r="2" style="fill: rgb(0,0,0)" />
	<circle cx="296.252402431633" cy="-302.667401310498" r="2" style="fill: rgb(0,0,0)" />
	<circle cx="324.288374703969" cy="-302.667401310484" r="2" style="fill: rgb(0,0,0)" />
	<circle cx="338.306360840152" cy="-326.947265518142" r="2" style="fill: rgb(0,0,0)" />
	<circle cx="257.954552087862" cy="-466.120680757352" r="2" style="fill: rgb(0,0,0)" />
	<circle cx="229.91857981551" cy="-466.120680757381" r="2" style="fill: rgb(0,0,0)" />
	<circle cx="215.900593679324" cy="-441.840816549742" r="2" style="fill: rgb(0,0,0)" />
	<circle cx="229.91857981549" cy="-417.560952342074" r="2" style="fill: rgb(0,0,0)" />
	<circle cx="252.96780559372" cy="-297.293600582679" r="2" style="fill: rgb(0,0,0)" />
	<circle cx="280.39112460616" cy="-303.122606981516" r="2" style="fill: rgb(0,0,0)" />
	<circle cx="208.364174441638" cy="-427.876944180916" r="2" style="fill: rgb(0,0,0)" />
	<circle cx="189.604447315167" cy="-407.042156459516" r="2" style="fill: rgb(0,0,0)" />
	<circle cx="198.845086052709" cy="-319.641045807213" r="2" style="fill: rgb(0,0,0)" />
	<circle cx="201.775643150523" cy="-291.758657524416" r="2" style="fill: rgb(0,0,0)" />
	<circle cx="227.387778270514" cy="-280.355400276977" r="2" style="fill: rgb(0,0,0)" />
	<circle cx="250.06935629269" cy="-296.834531312335" r="2" style="fill: rgb(0,0,0)" />
	<circle cx="187.757657014431" cy="-404.761560368408" r="2" style="fill: rgb(0,0,0)" />
	<circle cx="162.145521894416" cy="-393.358303121017" r="2" style="fill: rgb(0,0,0)" />
	<circle cx="159.214964796553" cy="-365.475914838234" r="2" style="fill: rgb(0,0,0)" />
	<circle cx="181.896542818704" cy="-348.996783802842" r="2" style="fill: rgb(0,0,0)" />
	<circle cx="183.228813731048" cy="-346.38205491407" r="2" style="fill: rgb(0,0,0)" />
	<circle cx="197.2467998672" cy="-322.102190706413" r="2" style="fill: rgb(0,0,0)" />
	<circle cx="246.907030289264" cy="-506.29314157547" r="2" style="fill: rgb(0,0,0)" />
	<circle cx="238.243438403268" cy="-479.629347455183" r="2" style="fill: rgb(0,0,0)" />
	<circle cx="293.321845333875" cy="-541.99106900764" r="2" style="fill: rgb(0,0,0)" />
	<circle cx="267.709710213877" cy="-553.394326255076" r="2" style="fill: rgb(0,0,0)" />
	<circle cx="245.028132191721" cy="-536.91519521971" r="2" style="fill: rgb(0,0,0)" />
	<circle cx="247.958689289561" cy="-509.032806936909" r="2" style="fill: rgb(0,0,0)" />
	<circle cx="324.288374704068" cy="-542.144652997202" r="2" style="fill: rgb(0,0,0)" />
	<circle cx="296.252402431731" cy="-542.14465299721" r="2" style="fill: rgb(0,0,0)" />
	<circle cx="372.58208784622" cy="-509.032806936876" r="2" style="fill: rgb(0,0,0)" />
	<circle cx="375.512644944095" cy="-536.915195219663" r="2" style="fill: rgb(0,0,0)" />
	<circle cx="352.831066921955" cy="-553.394326255037" r="2" style="fill: rgb(0,0,0)" />
	<circle cx="327.21893180194" cy="-541.991069007624" r="2" style="fill: rgb(0,0,0)" />
	<circle cx="382.297338732482" cy="-479.629347455135" r="2" style="fill: rgb(0,0,0)" />
	<circle cx="373.633746846524" cy="-506.293141575422" r="2" style="fill: rgb(0,0,0)" />
	<circle cx="365.729679852644" cy="-423.467173727435" r="2" style="fill: rgb(0,0,0)" />
	<circle cx="393.152998865093" cy="-429.296180126286" r="2" style="fill: rgb(0,0,0)" />
	<circle cx="401.816590751084" cy="-455.959974246574" r="2" style="fill: rgb(0,0,0)" />
	<circle cx="383.056863624627" cy="-476.794761968012" r="2" style="fill: rgb(0,0,0)" />
	<circle cx="340.149652529448" cy="-303.122606981512" r="2" style="fill: rgb(0,0,0)" />
	<circle cx="367.572971541876" cy="-297.29360058264" r="2" style="fill: rgb(0,0,0)" />
	<circle cx="370.471420842913" cy="-296.834531312297" r="2" style="fill: rgb(0,0,0)" />
	<circle cx="393.152998865064" cy="-280.355400276915" r="2" style="fill: rgb(0,0,0)" />
	<circle cx="418.765133985063" cy="-291.758657524332" r="2" style="fill: rgb(0,0,0)" />
	<circle cx="421.695691082911" cy="-319.641045807132" r="2" style="fill: rgb(0,0,0)" />
	<circle cx="423.293977268422" cy="-322.10219070633" r="2" style="fill: rgb(0,0,0)" />
	<circle cx="437.3119634046" cy="-346.382054913972" r="2" style="fill: rgb(0,0,0)" />
	<circle cx="438.644234316946" cy="-348.996783802742" r="2" style="fill: rgb(0,0,0)" />
	<circle cx="461.325812339114" cy="-365.4759148381" r="2" style="fill: rgb(0,0,0)" />
	<circle cx="458.395255241274" cy="-393.358303120889" r="2" style="fill: rgb(0,0,0)" />
	<circle cx="432.783120121267" cy="-404.76156036832" r="2" style="fill: rgb(0,0,0)" />
	<circle cx="430.936329820538" cy="-407.042156459423" r="2" style="fill: rgb(0,0,0)" />
	<circle cx="412.176602694088" cy="-427.87694418085" r="2" style="fill: rgb(0,0,0)" />
	<circle cx="273.570824409474" cy="-286.188270275127" r="2" style="fill: rgb(0,0,0)" />
	<circle cx="264.907232523472" cy="-259.524476154821" r="2" style="fill: rgb(0,0,0)" />
	<circle cx="273.570824409422" cy="-232.860682034507" r="2" style="fill: rgb(0,0,0)" />
	<circle cx="296.25240243155" cy="-216.381550999115" r="2" style="fill: rgb(0,0,0)" />
	<circle cx="324.288374703885" cy="-216.381550999101" r="2" style="fill: rgb(0,0,0)" />
	<circle cx="346.969952726045" cy="-232.860682034471" r="2" style="fill: rgb(0,0,0)" />
	<circle cx="355.633544612047" cy="-259.524476154777" r="2" style="fill: rgb(0,0,0)" />
	<circle cx="346.969952726096" cy="-286.188270275092" r="2" style="fill: rgb(0,0,0)" />
	<circle cx="226.988022717682" cy="-494.003069040177" r="2" style="fill: rgb(0,0,0)" />
	<circle cx="208.228295591238" cy="-514.837856761624" r="2" style="fill: rgb(0,0,0)" />
	<circle cx="180.804976578807" cy="-520.666863160519" r="2" style="fill: rgb(0,0,0)" />
	<circle cx="155.192841458806" cy="-509.263605913125" r="2" style="fill: rgb(0,0,0)" />
	<circle cx="141.174855322621" cy="-484.983741705487" r="2" style="fill: rgb(0,0,0)" />
	<circle cx="144.105412420449" cy="-457.101353422691" r="2" style="fill: rgb(0,0,0)" />
	<circle cx="162.865139546892" cy="-436.266565701244" r="2" style="fill: rgb(0,0,0)" />
	<circle cx="190.288458559324" cy="-430.437559302348" r="2" style="fill: rgb(0,0,0)" />
	<circle cx="190.372385903074" cy="-266.146522404416" r="2" style="fill: rgb(0,0,0)" />
	<circle cx="215.984521023054" cy="-254.743265156976" r="2" style="fill: rgb(0,0,0)" />
	<circle cx="180.085358926271" cy="-340.47583352866" r="2" style="fill: rgb(0,0,0)" />
	<circle cx="152.662039913835" cy="-346.304839927556" r="2" style="fill: rgb(0,0,0)" />
	<circle cx="127.049904793819" cy="-334.901582680163" r="2" style="fill: rgb(0,0,0)" />
	<circle cx="113.031918657615" cy="-310.621718472526" r="2" style="fill: rgb(0,0,0)" />
	<circle cx="115.962475755429" cy="-282.73933018973" r="2" style="fill: rgb(0,0,0)" />
	<circle cx="134.722202881867" cy="-261.904542468282" r="2" style="fill: rgb(0,0,0)" />
	<circle cx="162.145521894304" cy="-256.075536069386" r="2" style="fill: rgb(0,0,0)" />
	<circle cx="187.75765701432" cy="-267.47879331678" r="2" style="fill: rgb(0,0,0)" />
	<circle cx="134.263133611616" cy="-396.288860218885" r="2" style="fill: rgb(0,0,0)" />
	<circle cx="131.332576513749" cy="-368.406471936114" r="2" style="fill: rgb(0,0,0)" />
	<circle cx="251.230579178508" cy="-576.075904277248" r="2" style="fill: rgb(0,0,0)" />
	<circle cx="228.549001156356" cy="-559.59677324189" r="2" style="fill: rgb(0,0,0)" />
	<circle cx="320.74516434632" cy="-547.820075406492" r="2" style="fill: rgb(0,0,0)" />
	<circle cx="339.504891472792" cy="-568.65486312791" r="2" style="fill: rgb(0,0,0)" />
	<circle cx="342.435448570652" cy="-596.537251410701" r="2" style="fill: rgb(0,0,0)" />
	<circle cx="328.417462434489" cy="-620.817115618362" r="2" style="fill: rgb(0,0,0)" />
	<circle cx="302.805327314493" cy="-632.220372865798" r="2" style="fill: rgb(0,0,0)" />
	<circle cx="275.382008302047" cy="-626.391366466946" r="2" style="fill: rgb(0,0,0)" />
	<circle cx="256.622281175575" cy="-605.556578745528" r="2" style="fill: rgb(0,0,0)" />
	<circle cx="253.691724077715" cy="-577.674190462736" r="2" style="fill: rgb(0,0,0)" />
	<circle cx="391.991775979484" cy="-559.596773241822" r="2" style="fill: rgb(0,0,0)" />
	<circle cx="369.310197957356" cy="-576.07590427719" r="2" style="fill: rgb(0,0,0)" />
	<circle cx="386.600073982369" cy="-484.752942729206" r="2" style="fill: rgb(0,0,0)" />
	<circle cx="412.212209102359" cy="-473.349685481748" r="2" style="fill: rgb(0,0,0)" />
	<circle cx="439.635528114807" cy="-479.178691880573" r="2" style="fill: rgb(0,0,0)" />
	<circle cx="458.395255241291" cy="-500.013479601971" r="2" style="fill: rgb(0,0,0)" />
	<circle cx="461.325812339166" cy="-527.895867884757" r="2" style="fill: rgb(0,0,0)" />
	<circle cx="447.307826203016" cy="-552.175732092428" r="2" style="fill: rgb(0,0,0)" />
	<circle cx="421.695691083027" cy="-563.578989339886" r="2" style="fill: rgb(0,0,0)" />
	<circle cx="394.272372070578" cy="-557.74998294106" r="2" style="fill: rgb(0,0,0)" />
	<circle cx="404.556256112486" cy="-254.743265156902" r="2" style="fill: rgb(0,0,0)" />
	<circle cx="430.168391232475" cy="-266.14652240431" r="2" style="fill: rgb(0,0,0)" />
	<circle cx="432.783120121236" cy="-267.478793316676" r="2" style="fill: rgb(0,0,0)" />
	<circle cx="458.395255241238" cy="-256.075536069253" r="2" style="fill: rgb(0,0,0)" />
	<circle cx="485.818574253683" cy="-261.904542468121" r="2" style="fill: rgb(0,0,0)" />
	<circle cx="504.578301380147" cy="-282.739330189554" r="2" style="fill: rgb(0,0,0)" />
	<circle cx="507.508858477995" cy="-310.621718472352" r="2" style="fill: rgb(0,0,0)" />
	<circle cx="493.490872341822" cy="-334.901582680009" r="2" style="fill: rgb(0,0,0)" />
	<circle cx="467.87873722182" cy="-346.304839927432" r="2" style="fill: rgb(0,0,0)" />
	<circle cx="440.455418209375" cy="-340.475833528564" r="2" style="fill: rgb(0,0,0)" />
	<circle cx="489.208200621919" cy="-368.406471935937" r="2" style="fill: rgb(0,0,0)" />
	<circle cx="486.277643524084" cy="-396.288860218716" r="2" style="fill: rgb(0,0,0)" />
	<circle cx="296.252402431547" cy="-188.34557872675" r="2" style="fill: rgb(0,0,0)" />
	<circle cx="324.288374703871" cy="-188.345578726734" r="2" style="fill: rgb(0,0,0)" />
	<circle cx="247.958689289403" cy="-221.457424787115" r="2" style="fill: rgb(0,0,0)" />
	<circle cx="245.0281321915" cy="-193.575036504334" r="2" style="fill: rgb(0,0,0)" />
	<circle cx="267.709710213621" cy="-177.095905468945" r="2" style="fill: rgb(0,0,0)" />
	<circle cx="293.321845333645" cy="-188.499162716336" r="2" style="fill: rgb(0,0,0)" />
	<circle cx="327.218931801728" cy="-188.499162716303" r="2" style="fill: rgb(0,0,0)" />
	<circle cx="352.831066921725" cy="-177.095905468867" r="2" style="fill: rgb(0,0,0)" />
	<circle cx="375.512644943881" cy="-193.575036504233" r="2" style="fill: rgb(0,0,0)" />
	<circle cx="372.58208784604" cy="-221.457424787035" r="2" style="fill: rgb(0,0,0)" />
	<circle cx="115.562720202621" cy="-496.386998952928" r="2" style="fill: rgb(0,0,0)" />
	<circle cx="92.8811421804451" cy="-479.907867917582" r="2" style="fill: rgb(0,0,0)" />
	<circle cx="95.8116992782712" cy="-452.02547963479" r="2" style="fill: rgb(0,0,0)" />
	<circle cx="121.423834398273" cy="-440.622222387345" r="2" style="fill: rgb(0,0,0)" />
	<circle cx="130.912977251152" cy="-523.281592049326" r="2" style="fill: rgb(0,0,0)" />
	<circle cx="116.894991114969" cy="-499.001727841697" r="2" style="fill: rgb(0,0,0)" />
	<circle cx="183.735533676677" cy="-548.549251443314" r="2" style="fill: rgb(0,0,0)" />
	<circle cx="161.053955654553" cy="-565.028382478721" r="2" style="fill: rgb(0,0,0)" />
	<circle cx="135.441820534558" cy="-553.625125231331" r="2" style="fill: rgb(0,0,0)" />
	<circle cx="132.511263436686" cy="-525.742736948533" r="2" style="fill: rgb(0,0,0)" />
	<circle cx="128.89319648296" cy="-234.481223455838" r="2" style="fill: rgb(0,0,0)" />
	<circle cx="156.316515495392" cy="-228.65221705694" r="2" style="fill: rgb(0,0,0)" />
	<circle cx="85.1495303748064" cy="-307.691161374711" r="2" style="fill: rgb(0,0,0)" />
	<circle cx="88.0800874726171" cy="-279.808773091929" r="2" style="fill: rgb(0,0,0)" />
	<circle cx="88.5391567429761" cy="-276.910323790894" r="2" style="fill: rgb(0,0,0)" />
	<circle cx="79.8755648569523" cy="-250.246529670615" r="2" style="fill: rgb(0,0,0)" />
	<circle cx="98.6352919833861" cy="-229.411741949171" r="2" style="fill: rgb(0,0,0)" />
	<circle cx="126.058610995843" cy="-235.240748348005" r="2" style="fill: rgb(0,0,0)" />
	<circle cx="254.547220580629" cy="-645.151093593433" r="2" style="fill: rgb(0,0,0)" />
	<circle cx="235.787493454157" cy="-624.31630587202" r="2" style="fill: rgb(0,0,0)" />
	<circle cx="311.46891920049" cy="-658.88416698609" r="2" style="fill: rgb(0,0,0)" />
	<circle cx="292.70919207405" cy="-679.718954707536" r="2" style="fill: rgb(0,0,0)" />
	<circle cx="265.285873061609" cy="-673.889948308685" r="2" style="fill: rgb(0,0,0)" />
	<circle cx="256.622281175609" cy="-647.22615418839" r="2" style="fill: rgb(0,0,0)" />
	<circle cx="339.820719681931" cy="-646.429250738372" r="2" style="fill: rgb(0,0,0)" />
	<circle cx="314.208584561947" cy="-657.832507985801" r="2" style="fill: rgb(0,0,0)" />
	<circle cx="370.471420843008" cy="-596.537251410688" r="2" style="fill: rgb(0,0,0)" />
	<circle cx="384.48940697921" cy="-620.817115618327" r="2" style="fill: rgb(0,0,0)" />
	<circle cx="370.471420843053" cy="-645.096979825981" r="2" style="fill: rgb(0,0,0)" />
	<circle cx="342.435448570693" cy="-645.096979825996" r="2" style="fill: rgb(0,0,0)" />
	<circle cx="458.711083450485" cy="-577.787867212425" r="2" style="fill: rgb(0,0,0)" />
	<circle cx="433.098948330503" cy="-589.19112445988" r="2" style="fill: rgb(0,0,0)" />
	<circle cx="489.361784611523" cy="-527.895867884726" r="2" style="fill: rgb(0,0,0)" />
	<circle cx="503.379770747739" cy="-552.175732092358" r="2" style="fill: rgb(0,0,0)" />
	<circle cx="489.361784611594" cy="-576.455596300023" r="2" style="fill: rgb(0,0,0)" />
	<circle cx="461.325812339232" cy="-576.455596300056" r="2" style="fill: rgb(0,0,0)" />
	<circle cx="494.482166139668" cy="-235.240748347825" r="2" style="fill: rgb(0,0,0)" />
	<circle cx="521.905485152112" cy="-229.411741948953" r="2" style="fill: rgb(0,0,0)" />
	<circle cx="540.665212278572" cy="-250.24652967038" r="2" style="fill: rgb(0,0,0)" />
	<circle cx="532.001620392588" cy="-276.91032379068" r="2" style="fill: rgb(0,0,0)" />
	<circle cx="464.224261640111" cy="-228.652217056802" r="2" style="fill: rgb(0,0,0)" />
	<circle cx="491.647580652539" cy="-234.481223455663" r="2" style="fill: rgb(0,0,0)" />
	<circle cx="532.460689662953" cy="-279.808773091698" r="2" style="fill: rgb(0,0,0)" />
	<circle cx="535.391246760801" cy="-307.691161374489" r="2" style="fill: rgb(0,0,0)" />
	<circle cx="273.570824409388" cy="-171.86644769138" r="2" style="fill: rgb(0,0,0)" />
	<circle cx="264.907232523374" cy="-145.202653571071" r="2" style="fill: rgb(0,0,0)" />
	<circle cx="273.570824409305" cy="-118.538859450751" r="2" style="fill: rgb(0,0,0)" />
	<circle cx="296.252402431413" cy="-102.059728415353" r="2" style="fill: rgb(0,0,0)" />
	<circle cx="324.288374703735" cy="-102.059728415336" r="2" style="fill: rgb(0,0,0)" />
	<circle cx="346.969952725895" cy="-118.538859450707" r="2" style="fill: rgb(0,0,0)" />
	<circle cx="355.633544611909" cy="-145.202653571017" r="2" style="fill: rgb(0,0,0)" />
	<circle cx="346.969952725978" cy="-171.866447691336" r="2" style="fill: rgb(0,0,0)" />
	<circle cx="124.22631208863" cy="-523.050793073212" r="2" style="fill: rgb(0,0,0)" />
	<circle cx="115.562720202677" cy="-549.714587193514" r="2" style="fill: rgb(0,0,0)" />
	<circle cx="92.8811421805372" cy="-566.19371822891" r="2" style="fill: rgb(0,0,0)" />
	<circle cx="64.845169908185" cy="-566.193718228941" r="2" style="fill: rgb(0,0,0)" />
	<circle cx="42.1635918860097" cy="-549.714587193595" r="2" style="fill: rgb(0,0,0)" />
	<circle cx="33.5" cy="-523.050793073311" r="2" style="fill: rgb(0,0,0)" />
	<circle cx="42.1635918859534" cy="-496.386998953008" r="2" style="fill: rgb(0,0,0)" />
	<circle cx="64.8451699080935" cy="-479.907867917612" r="2" style="fill: rgb(0,0,0)" />
	<circle cx="59.0407771354898" cy="-231.486802544172" r="2" style="fill: rgb(0,0,0)" />
	<circle cx="77.8005042619184" cy="-210.652014822735" r="2" style="fill: rgb(0,0,0)" />
	<circle cx="286.8801856752" cy="-707.142273719999" r="2" style="fill: rgb(0,0,0)" />
	<circle cx="259.456866662769" cy="-701.313267321147" r="2" style="fill: rgb(0,0,0)" />
	<circle cx="338.892238212926" cy="-653.055160587199" r="2" style="fill: rgb(0,0,0)" />
	<circle cx="364.504373332941" cy="-664.458417834598" r="2" style="fill: rgb(0,0,0)" />
	<circle cx="378.522359469144" cy="-688.738282042237" r="2" style="fill: rgb(0,0,0)" />
	<circle cx="375.591802371329" cy="-716.620670325031" r="2" style="fill: rgb(0,0,0)" />
	<circle cx="356.83207524489" cy="-737.455458046476" r="2" style="fill: rgb(0,0,0)" />
	<circle cx="329.408756232453" cy="-743.284464445367" r="2" style="fill: rgb(0,0,0)" />
	<circle cx="303.796621112438" cy="-731.881207197969" r="2" style="fill: rgb(0,0,0)" />
	<circle cx="289.778634976235" cy="-707.601342990331" r="2" style="fill: rgb(0,0,0)" />
	<circle cx="542.74027287355" cy="-210.652014822481" r="2" style="fill: rgb(0,0,0)" />
	<circle cx="561.5" cy="-231.4868025439" r="2" style="fill: rgb(0,0,0)" />
	<circle cx="282.234416295234" cy="-77.7798642076938" r="2" style="fill: rgb(0,0,0)" />
	<circle cx="296.252402431368" cy="-53.5000000000161" r="2" style="fill: rgb(0,0,0)" />
	<circle cx="324.288374703684" cy="-53.5" r="2" style="fill: rgb(0,0,0)" />
	<circle cx="338.306360839867" cy="-77.7798642076614" r="2" style="fill: rgb(0,0,0)" />
	<!-- 
	Generated using the Perl SVG Module V2.64
	by Ronan Oger
	Info: http://www.roitsystems.com/
 -->
</svg>