<?xml version="1.0" encoding="UTF-8" standalone="yes"?>
<!DOCTYPE svg PUBLIC "-//W3C//DTD SVG 1.0//EN" "http://www.w3.org/TR/2001/REC-SVG-20010904/DTD/svg10.dtd">
<!-- generated using polymake; Michael Joswig, Georg Loho, Benjamin Lorenz, Rico Raber; license CC BY-NC-ND 3.0; see polymake.org and matchthenet.de -->
<svg height="841pt" id="document" viewBox="0 -725.753126007923 572 725.753126007923" width="595pt" xmlns="http://www.w3.org/2000/svg" xmlns:svg="http://www.w3.org/2000/svg" xmlns:xlink="http://www.w3.org/1999/xlink">
	<title id="document_title">planar_net_</title>
	<polygon points="237.838042759429,-355.844615989105 299.06707758996,-355.844615989105 298.381223536969,-394.817598571943 " style="fill: rgb(14,173,105); fill-opacity: 1; stroke: rgb(0,0,0); stroke-width: 3" />
	<polygon points="298.381223536972,-316.87163340626 299.06707758996,-355.844615989105 237.838042759429,-355.844615989105 " style="fill: rgb(14,173,105); fill-opacity: 1; stroke: rgb(0,0,0); stroke-width: 3" />
	<polygon points="237.838042759429,-355.844615989105 298.381223536969,-394.817598571943 263.189864672264,-411.578625641904 " style="fill: rgb(14,173,105); fill-opacity: 1; stroke: rgb(0,0,0); stroke-width: 3" />
	<polygon points="298.381223536969,-394.817598571943 299.06707758996,-355.844615989105 360.258199340897,-357.998989480559 " style="fill: rgb(14,173,105); fill-opacity: 1; stroke: rgb(0,0,0); stroke-width: 3" />
	<polygon points="237.838042759429,-355.844615989105 263.189864672264,-411.578625641904 227.430551409525,-427.091049119935 " style="fill: rgb(14,173,105); fill-opacity: 1; stroke: rgb(0,0,0); stroke-width: 3" />
	<polygon points="360.258199340893,-353.690242497649 299.06707758996,-355.844615989105 298.381223536972,-316.87163340626 " style="fill: rgb(14,173,105); fill-opacity: 1; stroke: rgb(0,0,0); stroke-width: 3" />
	<polygon points="298.381223536972,-316.87163340626 237.838042759429,-355.844615989105 263.189864672265,-300.110606336302 " style="fill: rgb(14,173,105); fill-opacity: 1; stroke: rgb(0,0,0); stroke-width: 3" />
	<polygon points="298.381223536969,-394.817598571943 360.258199340897,-357.998989480559 332.961046954437,-412.80647234439 " style="fill: rgb(14,173,105); fill-opacity: 1; stroke: rgb(0,0,0); stroke-width: 3" />
	<polygon points="263.189864672264,-411.578625641904 298.381223536969,-394.817598571943 290.487017058724,-466.386108505732 " style="fill: rgb(14,173,105); fill-opacity: 1; stroke: rgb(0,0,0); stroke-width: 3" />
	<polygon points="263.189864672265,-300.110606336302 237.838042759429,-355.844615989105 227.430551409524,-284.59818285827 " style="fill: rgb(14,173,105); fill-opacity: 1; stroke: rgb(0,0,0); stroke-width: 3" />
	<polygon points="332.961046954437,-412.80647234439 360.258199340897,-357.998989480559 368.152405819143,-429.567499414354 " style="fill: rgb(14,173,105); fill-opacity: 1; stroke: rgb(0,0,0); stroke-width: 3" />
	<polygon points="263.189864672264,-411.578625641904 286.564960364513,-468.170140974656 227.430551409525,-427.091049119935 " style="fill: rgb(14,173,105); fill-opacity: 1; stroke: rgb(0,0,0); stroke-width: 3" />
	<polygon points="237.838042759429,-355.844615989105 227.430551409525,-427.091049119935 197.602802003194,-401.997840227138 " style="fill: rgb(14,173,105); fill-opacity: 1; stroke: rgb(0,0,0); stroke-width: 3" />
	<polygon points="360.258199340893,-353.690242497649 298.381223536972,-316.87163340626 332.961046954445,-298.88275963382 " style="fill: rgb(14,173,105); fill-opacity: 1; stroke: rgb(0,0,0); stroke-width: 3" />
	<polygon points="298.381223536969,-394.817598571943 329.073420380097,-418.845765795583 290.487017058724,-466.386108505732 " style="fill: rgb(14,173,105); fill-opacity: 1; stroke: rgb(0,0,0); stroke-width: 3" />
	<polygon points="298.381223536972,-316.87163340626 263.189864672265,-300.110606336302 290.487017058722,-245.303123472471 " style="fill: rgb(14,173,105); fill-opacity: 1; stroke: rgb(0,0,0); stroke-width: 3" />
	<polygon points="237.838042759429,-355.844615989105 197.602802003194,-401.997840227138 168.676438778179,-375.870665145265 " style="fill: rgb(14,173,105); fill-opacity: 1; stroke: rgb(0,0,0); stroke-width: 3" />
	<polygon points="360.258199340893,-353.690242497649 332.961046954445,-298.88275963382 368.152405819154,-282.121732563863 " style="fill: rgb(14,173,105); fill-opacity: 1; stroke: rgb(0,0,0); stroke-width: 3" />
	<polygon points="329.073420380097,-418.845765795583 358.901169786429,-443.938974688381 290.487017058724,-466.386108505732 " style="fill: rgb(14,173,105); fill-opacity: 1; stroke: rgb(0,0,0); stroke-width: 3" />
	<polygon points="263.189864672265,-300.110606336302 227.430551409524,-284.59818285827 286.564960364509,-243.519091003555 " style="fill: rgb(14,173,105); fill-opacity: 1; stroke: rgb(0,0,0); stroke-width: 3" />
	<polygon points="227.430551409524,-284.59818285827 237.838042759429,-355.844615989105 197.602802003192,-309.691391751069 " style="fill: rgb(14,173,105); fill-opacity: 1; stroke: rgb(0,0,0); stroke-width: 3" />
	<polygon points="368.152405819143,-429.567499414354 360.258199340897,-357.998989480559 398.844602662271,-405.539332190714 " style="fill: rgb(14,173,105); fill-opacity: 1; stroke: rgb(0,0,0); stroke-width: 3" />
	<polygon points="227.430551409525,-427.091049119935 286.564960364513,-468.170140974656 225.373838613575,-466.015767483198 " style="fill: rgb(14,173,105); fill-opacity: 1; stroke: rgb(0,0,0); stroke-width: 3" />
	<polygon points="332.961046954445,-298.88275963382 298.381223536972,-316.87163340626 303.752368942476,-245.069677255357 " style="fill: rgb(14,173,105); fill-opacity: 1; stroke: rgb(0,0,0); stroke-width: 3" />
	<polygon points="197.602802003194,-401.997840227138 227.430551409525,-427.091049119935 159.016398681824,-449.538182937291 " style="fill: rgb(14,173,105); fill-opacity: 1; stroke: rgb(0,0,0); stroke-width: 3" />
	<polygon points="237.838042759429,-355.844615989105 168.676438778175,-335.818566832943 197.602802003192,-309.691391751069 " style="fill: rgb(14,173,105); fill-opacity: 1; stroke: rgb(0,0,0); stroke-width: 3" />
	<polygon points="398.844602662271,-405.539332190714 360.258199340897,-357.998989480559 428.672352068606,-380.44612329792 " style="fill: rgb(14,173,105); fill-opacity: 1; stroke: rgb(0,0,0); stroke-width: 3" />
	<polygon points="225.373838613575,-466.015767483198 286.564960364513,-468.170140974656 224.68798456058,-504.98875006604 " style="fill: rgb(14,173,105); fill-opacity: 1; stroke: rgb(0,0,0); stroke-width: 3" />
	<polygon points="332.961046954445,-298.88275963382 307.609225041622,-243.148749981014 368.152405819154,-282.121732563863 " style="fill: rgb(14,173,105); fill-opacity: 1; stroke: rgb(0,0,0); stroke-width: 3" />
	<polygon points="197.602802003194,-401.997840227138 155.76855121472,-446.706789747851 168.676438778179,-375.870665145265 " style="fill: rgb(14,173,105); fill-opacity: 1; stroke: rgb(0,0,0); stroke-width: 3" />
	<polygon points="360.258199340893,-353.690242497649 368.152405819154,-282.121732563863 398.844602662278,-306.149899787509 " style="fill: rgb(14,173,105); fill-opacity: 1; stroke: rgb(0,0,0); stroke-width: 3" />
	<polygon points="290.487017058724,-466.386108505732 358.901169786429,-443.938974688381 349.737494463865,-481.825526679386 " style="fill: rgb(14,173,105); fill-opacity: 1; stroke: rgb(0,0,0); stroke-width: 3" />
	<polygon points="286.564960364509,-243.519091003555 227.430551409524,-284.59818285827 225.373838613578,-245.673464495006 " style="fill: rgb(14,173,105); fill-opacity: 1; stroke: rgb(0,0,0); stroke-width: 3" />
	<polygon points="227.430551409525,-427.091049119935 225.373838613575,-466.015767483198 164.296409149795,-461.709688480721 " style="fill: rgb(14,173,105); fill-opacity: 1; stroke: rgb(0,0,0); stroke-width: 3" />
	<polygon points="227.430551409524,-284.59818285827 197.602802003192,-309.691391751069 159.016398681817,-262.151049040915 " style="fill: rgb(14,173,105); fill-opacity: 1; stroke: rgb(0,0,0); stroke-width: 3" />
	<polygon points="368.152405819143,-429.567499414354 398.844602662271,-405.539332190714 435.73438306974,-454.407919317492 " style="fill: rgb(14,173,105); fill-opacity: 1; stroke: rgb(0,0,0); stroke-width: 3" />
	<polygon points="360.258199340893,-353.690242497649 398.844602662278,-306.149899787509 428.672352068606,-331.243108680311 " style="fill: rgb(14,173,105); fill-opacity: 1; stroke: rgb(0,0,0); stroke-width: 3" />
	<polygon points="290.487017058724,-466.386108505732 349.737494463865,-481.825526679386 339.246436464683,-519.366190888246 " style="fill: rgb(14,173,105); fill-opacity: 1; stroke: rgb(0,0,0); stroke-width: 3" />
	<polygon points="286.564960364509,-243.519091003555 225.373838613578,-245.673464495006 224.687984560588,-206.700481912163 " style="fill: rgb(14,173,105); fill-opacity: 1; stroke: rgb(0,0,0); stroke-width: 3" />
	<polygon points="225.373838613575,-466.015767483198 224.68798456058,-504.98875006604 164.144803783045,-466.015767483199 " style="fill: rgb(14,173,105); fill-opacity: 1; stroke: rgb(0,0,0); stroke-width: 3" />
	<polygon points="197.602802003192,-309.691391751069 168.676438778175,-335.818566832943 155.768551214719,-264.982442230359 " style="fill: rgb(14,173,105); fill-opacity: 1; stroke: rgb(0,0,0); stroke-width: 3" />
	<polygon points="398.844602662271,-405.539332190714 428.672352068606,-380.44612329792 439.079843418507,-451.692556428746 " style="fill: rgb(14,173,105); fill-opacity: 1; stroke: rgb(0,0,0); stroke-width: 3" />
	<polygon points="224.68798456058,-504.98875006604 286.564960364513,-468.170140974656 259.267807978051,-522.977623838484 " style="fill: rgb(14,173,105); fill-opacity: 1; stroke: rgb(0,0,0); stroke-width: 3" />
	<polygon points="368.152405819154,-282.121732563863 307.609225041622,-243.148749981014 368.838259872157,-243.148749981025 " style="fill: rgb(14,173,105); fill-opacity: 1; stroke: rgb(0,0,0); stroke-width: 3" />
	<polygon points="168.676438778179,-375.870665145265 155.76855121472,-446.706789747851 132.393455522471,-390.1152744151 " style="fill: rgb(14,173,105); fill-opacity: 1; stroke: rgb(0,0,0); stroke-width: 3" />
	<polygon points="227.430551409524,-284.59818285827 164.296409149801,-249.979543497477 225.373838613578,-245.673464495006 " style="fill: rgb(14,173,105); fill-opacity: 1; stroke: rgb(0,0,0); stroke-width: 3" />
	<polygon points="358.901169786429,-443.938974688381 409.494527382365,-495.17062776764 349.737494463865,-481.825526679386 " style="fill: rgb(14,173,105); fill-opacity: 1; stroke: rgb(0,0,0); stroke-width: 3" />
	<polygon points="398.844602662278,-306.149899787509 368.152405819154,-282.121732563863 435.734383069751,-257.281312660738 " style="fill: rgb(14,173,105); fill-opacity: 1; stroke: rgb(0,0,0); stroke-width: 3" />
	<polygon points="286.564960364513,-468.170140974656 294.459166842755,-539.738650908449 259.267807978051,-522.977623838484 " style="fill: rgb(14,173,105); fill-opacity: 1; stroke: rgb(0,0,0); stroke-width: 3" />
	<polygon points="368.838259872157,-243.148749981025 307.609225041622,-243.148749981014 368.152405819166,-204.175767398172 " style="fill: rgb(14,173,105); fill-opacity: 1; stroke: rgb(0,0,0); stroke-width: 3" />
	<polygon points="132.393455522471,-390.1152744151 155.76855121472,-446.706789747851 96.6341422597293,-405.627697893128 " style="fill: rgb(14,173,105); fill-opacity: 1; stroke: rgb(0,0,0); stroke-width: 3" />
	<polygon points="225.373838613578,-245.673464495006 164.144803783046,-245.673464494997 224.687984560588,-206.700481912163 " style="fill: rgb(14,173,105); fill-opacity: 1; stroke: rgb(0,0,0); stroke-width: 3" />
	<polygon points="349.737494463865,-481.825526679386 408.408040445937,-499.340141732093 339.246436464683,-519.366190888246 " style="fill: rgb(14,173,105); fill-opacity: 1; stroke: rgb(0,0,0); stroke-width: 3" />
	<polygon points="398.844602662278,-306.149899787509 439.079843418527,-259.996675549482 428.672352068606,-331.243108680311 " style="fill: rgb(14,173,105); fill-opacity: 1; stroke: rgb(0,0,0); stroke-width: 3" />
	<polygon points="286.564960364509,-243.519091003555 224.687984560588,-206.700481912163 259.267807978062,-188.711608139723 " style="fill: rgb(14,173,105); fill-opacity: 1; stroke: rgb(0,0,0); stroke-width: 3" />
	<polygon points="164.144803783045,-466.015767483199 224.68798456058,-504.98875006604 189.496625695873,-521.749777135998 " style="fill: rgb(14,173,105); fill-opacity: 1; stroke: rgb(0,0,0); stroke-width: 3" />
	<polygon points="168.676438778175,-335.818566832943 132.393455522467,-321.573957563101 155.768551214719,-264.982442230359 " style="fill: rgb(14,173,105); fill-opacity: 1; stroke: rgb(0,0,0); stroke-width: 3" />
	<polygon points="439.079843418507,-451.692556428746 428.672352068606,-380.44612329792 464.431665331345,-395.958546775952 " style="fill: rgb(14,173,105); fill-opacity: 1; stroke: rgb(0,0,0); stroke-width: 3" />
	<polygon points="368.152405819154,-282.121732563863 368.838259872157,-243.148749981025 430.029381623094,-245.303123472496 " style="fill: rgb(14,173,105); fill-opacity: 1; stroke: rgb(0,0,0); stroke-width: 3" />
	<polygon points="224.68798456058,-504.98875006604 259.267807978051,-522.977623838484 230.059129966077,-576.790706216952 " style="fill: rgb(14,173,105); fill-opacity: 1; stroke: rgb(0,0,0); stroke-width: 3" />
	<polygon points="368.152405819166,-204.175767398172 307.609225041622,-243.148749981014 332.961046954459,-187.414740328213 " style="fill: rgb(14,173,105); fill-opacity: 1; stroke: rgb(0,0,0); stroke-width: 3" />
	<polygon points="164.144803783045,-466.015767483199 189.496625695873,-521.749777135998 153.737312433131,-537.262200614027 " style="fill: rgb(14,173,105); fill-opacity: 1; stroke: rgb(0,0,0); stroke-width: 3" />
	<polygon points="132.393455522467,-321.573957563101 96.6341422597276,-306.061534085067 155.768551214719,-264.982442230359 " style="fill: rgb(14,173,105); fill-opacity: 1; stroke: rgb(0,0,0); stroke-width: 3" />
	<polygon points="439.079843418507,-451.692556428746 464.431665331345,-395.958546775952 499.623024196053,-412.719573845917 " style="fill: rgb(14,173,105); fill-opacity: 1; stroke: rgb(0,0,0); stroke-width: 3" />
	<polygon points="368.838259872157,-243.148749981025 368.152405819166,-204.175767398172 430.029381623091,-240.994376489556 " style="fill: rgb(14,173,105); fill-opacity: 1; stroke: rgb(0,0,0); stroke-width: 3" />
	<polygon points="259.267807978051,-522.977623838484 294.459166842755,-539.738650908449 233.915986065217,-578.711633491284 " style="fill: rgb(14,173,105); fill-opacity: 1; stroke: rgb(0,0,0); stroke-width: 3" />
	<polygon points="96.6341422597293,-405.627697893128 155.76855121472,-446.706789747851 94.5774294637818,-444.552416256393 " style="fill: rgb(14,173,105); fill-opacity: 1; stroke: rgb(0,0,0); stroke-width: 3" />
	<polygon points="224.687984560588,-206.700481912163 164.144803783046,-245.673464494997 189.496625695887,-189.939454842198 " style="fill: rgb(14,173,105); fill-opacity: 1; stroke: rgb(0,0,0); stroke-width: 3" />
	<polygon points="339.246436464683,-519.366190888246 408.408040445937,-499.340141732093 368.172799689692,-545.493365970124 " style="fill: rgb(14,173,105); fill-opacity: 1; stroke: rgb(0,0,0); stroke-width: 3" />
	<polygon points="428.672352068606,-331.243108680311 439.079843418527,-259.996675549482 464.431665331348,-315.730685202291 " style="fill: rgb(14,173,105); fill-opacity: 1; stroke: rgb(0,0,0); stroke-width: 3" />
	<polygon points="224.68798456058,-504.98875006604 216.793778082331,-576.557259999826 189.496625695873,-521.749777135998 " style="fill: rgb(14,173,105); fill-opacity: 1; stroke: rgb(0,0,0); stroke-width: 3" />
	<polygon points="259.267807978062,-188.711608139723 224.687984560588,-206.700481912163 230.059129966094,-134.898525761257 " style="fill: rgb(14,173,105); fill-opacity: 1; stroke: rgb(0,0,0); stroke-width: 3" />
	<polygon points="164.144803783045,-466.015767483199 153.737312433131,-537.262200614027 123.909563026803,-512.168991721227 " style="fill: rgb(14,173,105); fill-opacity: 1; stroke: rgb(0,0,0); stroke-width: 3" />
	<polygon points="189.496625695887,-189.939454842198 164.144803783046,-245.673464494997 153.73731243315,-174.427031364161 " style="fill: rgb(14,173,105); fill-opacity: 1; stroke: rgb(0,0,0); stroke-width: 3" />
	<polygon points="368.172799689692,-545.493365970124 408.408040445937,-499.340141732093 398.000549096021,-570.586574862927 " style="fill: rgb(14,173,105); fill-opacity: 1; stroke: rgb(0,0,0); stroke-width: 3" />
	<polygon points="464.431665331348,-315.730685202291 439.079843418527,-259.996675549482 499.623024196059,-298.969658132341 " style="fill: rgb(14,173,105); fill-opacity: 1; stroke: rgb(0,0,0); stroke-width: 3" />
	<polygon points="189.496625695873,-521.749777135998 212.871721388116,-578.341292468752 153.737312433131,-537.262200614027 " style="fill: rgb(14,173,105); fill-opacity: 1; stroke: rgb(0,0,0); stroke-width: 3" />
	<polygon points="368.152405819166,-204.175767398172 332.961046954459,-187.414740328213 360.258199340919,-132.60725746438 " style="fill: rgb(14,173,105); fill-opacity: 1; stroke: rgb(0,0,0); stroke-width: 3" />
	<polygon points="155.768551214719,-264.982442230359 96.6341422597276,-306.061534085067 94.5774294637861,-267.136815721803 " style="fill: rgb(14,173,105); fill-opacity: 1; stroke: rgb(0,0,0); stroke-width: 3" />
	<polygon points="439.079843418507,-451.692556428746 499.623024196053,-412.719573845917 500.308878249039,-451.692556428759 " style="fill: rgb(14,173,105); fill-opacity: 1; stroke: rgb(0,0,0); stroke-width: 3" />
	<polygon points="430.029381623091,-240.994376489556 368.152405819166,-204.175767398172 402.732229236639,-186.186893625728 " style="fill: rgb(14,173,105); fill-opacity: 1; stroke: rgb(0,0,0); stroke-width: 3" />
	<polygon points="294.459166842755,-539.738650908449 295.145020895745,-578.711633491292 233.915986065217,-578.711633491284 " style="fill: rgb(14,173,105); fill-opacity: 1; stroke: rgb(0,0,0); stroke-width: 3" />
	<polygon points="224.687984560588,-206.700481912163 189.496625695887,-189.939454842198 216.793778082357,-135.131971978371 " style="fill: rgb(14,173,105); fill-opacity: 1; stroke: rgb(0,0,0); stroke-width: 3" />
	<polygon points="96.6341422597293,-405.627697893128 94.5774294637818,-444.552416256393 33.5,-440.246337253922 " style="fill: rgb(14,173,105); fill-opacity: 1; stroke: rgb(0,0,0); stroke-width: 3" />
	<polygon points="164.144803783046,-245.673464494997 123.909563026816,-199.520240256956 153.73731243315,-174.427031364161 " style="fill: rgb(14,173,105); fill-opacity: 1; stroke: rgb(0,0,0); stroke-width: 3" />
	<polygon points="408.408040445937,-499.340141732093 433.759862358761,-555.0741513849 398.000549096021,-570.586574862927 " style="fill: rgb(14,173,105); fill-opacity: 1; stroke: rgb(0,0,0); stroke-width: 3" />
	<polygon points="430.029381623091,-240.994376489556 402.732229236639,-186.186893625728 437.923588101349,-169.425866555768 " style="fill: rgb(14,173,105); fill-opacity: 1; stroke: rgb(0,0,0); stroke-width: 3" />
	<polygon points="295.145020895745,-578.711633491292 294.459166842753,-617.684616074137 233.915986065217,-578.711633491284 " style="fill: rgb(14,173,105); fill-opacity: 1; stroke: rgb(0,0,0); stroke-width: 3" />
	<polygon points="189.496625695887,-189.939454842198 153.73731243315,-174.427031364161 212.871721388139,-133.347939509452 " style="fill: rgb(14,173,105); fill-opacity: 1; stroke: rgb(0,0,0); stroke-width: 3" />
	<polygon points="123.909563026803,-512.168991721227 153.737312433131,-537.262200614027 85.3231597054261,-559.709334431375 " style="fill: rgb(14,173,105); fill-opacity: 1; stroke: rgb(0,0,0); stroke-width: 3" />
	<polygon points="499.623024196059,-298.969658132341 439.079843418527,-259.996675549482 500.30887824906,-259.996675549499 " style="fill: rgb(14,173,105); fill-opacity: 1; stroke: rgb(0,0,0); stroke-width: 3" />
	<polygon points="153.737312433131,-537.262200614027 212.871721388116,-578.341292468752 151.680599637178,-576.186918977289 " style="fill: rgb(14,173,105); fill-opacity: 1; stroke: rgb(0,0,0); stroke-width: 3" />
	<polygon points="368.152405819166,-204.175767398172 360.258199340919,-132.60725746438 398.844602662294,-180.147600174535 " style="fill: rgb(14,173,105); fill-opacity: 1; stroke: rgb(0,0,0); stroke-width: 3" />
	<polygon points="96.6341422597276,-306.061534085067 33.5000000000074,-271.442894724268 94.5774294637861,-267.136815721803 " style="fill: rgb(14,173,105); fill-opacity: 1; stroke: rgb(0,0,0); stroke-width: 3" />
	<polygon points="500.308878249039,-451.692556428759 499.623024196053,-412.719573845917 561.499999999975,-449.538182937309 " style="fill: rgb(14,173,105); fill-opacity: 1; stroke: rgb(0,0,0); stroke-width: 3" />
	<polygon points="430.029381623091,-240.994376489556 437.923588101349,-169.425866555768 468.615784944473,-193.45403377941 " style="fill: rgb(14,173,105); fill-opacity: 1; stroke: rgb(0,0,0); stroke-width: 3" />
	<polygon points="151.680599637178,-576.186918977289 212.871721388116,-578.341292468752 150.994745584179,-615.15990156013 " style="fill: rgb(14,173,105); fill-opacity: 1; stroke: rgb(0,0,0); stroke-width: 3" />
	<polygon points="398.844602662294,-180.147600174535 360.258199340919,-132.60725746438 428.672352068628,-155.054391281741 " style="fill: rgb(14,173,105); fill-opacity: 1; stroke: rgb(0,0,0); stroke-width: 3" />
	<polygon points="123.909563026816,-199.520240256956 85.3231597054442,-151.979897546797 153.73731243315,-174.427031364161 " style="fill: rgb(14,173,105); fill-opacity: 1; stroke: rgb(0,0,0); stroke-width: 3" />
	<polygon points="433.759862358761,-555.0741513849 457.134958051007,-611.665666717655 398.000549096021,-570.586574862927 " style="fill: rgb(14,173,105); fill-opacity: 1; stroke: rgb(0,0,0); stroke-width: 3" />
	<polygon points="233.915986065217,-578.711633491284 294.459166842753,-617.684616074137 259.267807978044,-634.445643144091 " style="fill: rgb(14,173,105); fill-opacity: 1; stroke: rgb(0,0,0); stroke-width: 3" />
	<polygon points="212.871721388139,-133.347939509452 153.73731243315,-174.427031364161 151.680599637207,-135.502313000896 " style="fill: rgb(14,173,105); fill-opacity: 1; stroke: rgb(0,0,0); stroke-width: 3" />
	<polygon points="153.737312433131,-537.262200614027 144.573637110565,-575.148752605032 85.3231597054261,-559.709334431375 " style="fill: rgb(14,173,105); fill-opacity: 1; stroke: rgb(0,0,0); stroke-width: 3" />
	<polygon points="499.623024196059,-298.969658132341 500.30887824906,-259.996675549499 561.5,-262.151049040969 " style="fill: rgb(14,173,105); fill-opacity: 1; stroke: rgb(0,0,0); stroke-width: 3" />
	<polygon points="212.871721388116,-578.341292468752 185.574569001649,-633.148775332579 150.994745584179,-615.15990156013 " style="fill: rgb(14,173,105); fill-opacity: 1; stroke: rgb(0,0,0); stroke-width: 3" />
	<polygon points="212.871721388139,-133.347939509452 151.680599637207,-135.502313000896 150.99474558422,-96.5293304180506 " style="fill: rgb(14,173,105); fill-opacity: 1; stroke: rgb(0,0,0); stroke-width: 3" />
	<polygon points="144.573637110565,-575.148752605032 134.082579111378,-612.689416813893 85.3231597054261,-559.709334431375 " style="fill: rgb(14,173,105); fill-opacity: 1; stroke: rgb(0,0,0); stroke-width: 3" />
	<polygon points="468.615784944473,-193.45403377941 437.923588101349,-169.425866555768 505.505565351943,-144.585446652636 " style="fill: rgb(14,173,105); fill-opacity: 1; stroke: rgb(0,0,0); stroke-width: 3" />
	<polygon points="428.672352068628,-155.054391281741 360.258199340919,-132.60725746438 419.508676746068,-117.167839290735 " style="fill: rgb(14,173,105); fill-opacity: 1; stroke: rgb(0,0,0); stroke-width: 3" />
	<polygon points="153.73731243315,-174.427031364161 85.3231597054442,-151.979897546797 144.573637110595,-136.540479373156 " style="fill: rgb(14,173,105); fill-opacity: 1; stroke: rgb(0,0,0); stroke-width: 3" />
	<polygon points="294.459166842753,-617.684616074137 286.564960364497,-689.253126007923 259.267807978044,-634.445643144091 " style="fill: rgb(14,173,105); fill-opacity: 1; stroke: rgb(0,0,0); stroke-width: 3" />
	<polygon points="419.508676746068,-117.167839290735 360.258199340919,-132.60725746438 409.017618746893,-79.6271750818739 " style="fill: rgb(14,173,105); fill-opacity: 1; stroke: rgb(0,0,0); stroke-width: 3" />
	<polygon points="144.573637110595,-136.540479373156 85.3231597054442,-151.979897546797 134.082579111423,-98.9998151642944 " style="fill: rgb(14,173,105); fill-opacity: 1; stroke: rgb(0,0,0); stroke-width: 3" />
	<polygon points="185.574569001649,-633.148775332579 156.36589098967,-686.961857711045 150.994745584179,-615.15990156013 " style="fill: rgb(14,173,105); fill-opacity: 1; stroke: rgb(0,0,0); stroke-width: 3" />
	<polygon points="85.3231597054261,-559.709334431375 134.082579111378,-612.689416813893 95.8019606807572,-620.035029092918 " style="fill: rgb(14,173,105); fill-opacity: 1; stroke: rgb(0,0,0); stroke-width: 3" />
	<polygon points="428.672352068628,-155.054391281741 419.508676746068,-117.167839290735 479.265709664572,-103.82273820248 " style="fill: rgb(14,173,105); fill-opacity: 1; stroke: rgb(0,0,0); stroke-width: 3" />
	<polygon points="85.3231597054442,-151.979897546797 95.8019606808061,-91.6542028852556 134.082579111423,-98.9998151642944 " style="fill: rgb(14,173,105); fill-opacity: 1; stroke: rgb(0,0,0); stroke-width: 3" />
	<polygon points="419.508676746068,-117.167839290735 409.017618746893,-79.6271750818739 478.179222728138,-99.6532242380366 " style="fill: rgb(14,173,105); fill-opacity: 1; stroke: rgb(0,0,0); stroke-width: 3" />
	<polygon points="134.082579111378,-612.689416813893 108.396862198521,-679.954668294404 95.8019606807572,-620.035029092918 " style="fill: rgb(14,173,105); fill-opacity: 1; stroke: rgb(0,0,0); stroke-width: 3" />
	<polygon points="478.179222728138,-99.6532242380366 409.017618746893,-79.6271750818739 437.943981971911,-53.5 " style="fill: rgb(14,173,105); fill-opacity: 1; stroke: rgb(0,0,0); stroke-width: 3" />
	<circle cx="237.838042759429" cy="-355.844615989105" r="2" style="fill: rgb(0,0,0)" />
	<circle cx="299.06707758996" cy="-355.844615989105" r="2" style="fill: rgb(0,0,0)" />
	<circle cx="298.381223536969" cy="-394.817598571943" r="2" style="fill: rgb(0,0,0)" />
	<circle cx="298.381223536972" cy="-316.87163340626" r="2" style="fill: rgb(0,0,0)" />
	<circle cx="263.189864672264" cy="-411.578625641904" r="2" style="fill: rgb(0,0,0)" />
	<circle cx="360.258199340897" cy="-357.998989480559" r="2" style="fill: rgb(0,0,0)" />
	<circle cx="360.258199340893" cy="-353.690242497649" r="2" style="fill: rgb(0,0,0)" />
	<circle cx="263.189864672265" cy="-300.110606336302" r="2" style="fill: rgb(0,0,0)" />
	<circle cx="227.430551409525" cy="-427.091049119935" r="2" style="fill: rgb(0,0,0)" />
	<circle cx="290.487017058724" cy="-466.386108505732" r="2" style="fill: rgb(0,0,0)" />
	<circle cx="332.961046954437" cy="-412.80647234439" r="2" style="fill: rgb(0,0,0)" />
	<circle cx="332.961046954445" cy="-298.88275963382" r="2" style="fill: rgb(0,0,0)" />
	<circle cx="227.430551409524" cy="-284.59818285827" r="2" style="fill: rgb(0,0,0)" />
	<circle cx="290.487017058722" cy="-245.303123472471" r="2" style="fill: rgb(0,0,0)" />
	<circle cx="286.564960364513" cy="-468.170140974656" r="2" style="fill: rgb(0,0,0)" />
	<circle cx="197.602802003194" cy="-401.997840227138" r="2" style="fill: rgb(0,0,0)" />
	<circle cx="329.073420380097" cy="-418.845765795583" r="2" style="fill: rgb(0,0,0)" />
	<circle cx="368.152405819143" cy="-429.567499414354" r="2" style="fill: rgb(0,0,0)" />
	<circle cx="368.152405819154" cy="-282.121732563863" r="2" style="fill: rgb(0,0,0)" />
	<circle cx="303.752368942476" cy="-245.069677255357" r="2" style="fill: rgb(0,0,0)" />
	<circle cx="286.564960364509" cy="-243.519091003555" r="2" style="fill: rgb(0,0,0)" />
	<circle cx="197.602802003192" cy="-309.691391751069" r="2" style="fill: rgb(0,0,0)" />
	<circle cx="225.373838613575" cy="-466.015767483198" r="2" style="fill: rgb(0,0,0)" />
	<circle cx="168.676438778179" cy="-375.870665145265" r="2" style="fill: rgb(0,0,0)" />
	<circle cx="159.016398681824" cy="-449.538182937291" r="2" style="fill: rgb(0,0,0)" />
	<circle cx="358.901169786429" cy="-443.938974688381" r="2" style="fill: rgb(0,0,0)" />
	<circle cx="398.844602662271" cy="-405.539332190714" r="2" style="fill: rgb(0,0,0)" />
	<circle cx="307.609225041622" cy="-243.148749981014" r="2" style="fill: rgb(0,0,0)" />
	<circle cx="398.844602662278" cy="-306.149899787509" r="2" style="fill: rgb(0,0,0)" />
	<circle cx="225.373838613578" cy="-245.673464495006" r="2" style="fill: rgb(0,0,0)" />
	<circle cx="168.676438778175" cy="-335.818566832943" r="2" style="fill: rgb(0,0,0)" />
	<circle cx="159.016398681817" cy="-262.151049040915" r="2" style="fill: rgb(0,0,0)" />
	<circle cx="224.68798456058" cy="-504.98875006604" r="2" style="fill: rgb(0,0,0)" />
	<circle cx="164.296409149795" cy="-461.709688480721" r="2" style="fill: rgb(0,0,0)" />
	<circle cx="155.76855121472" cy="-446.706789747851" r="2" style="fill: rgb(0,0,0)" />
	<circle cx="349.737494463865" cy="-481.825526679386" r="2" style="fill: rgb(0,0,0)" />
	<circle cx="428.672352068606" cy="-380.44612329792" r="2" style="fill: rgb(0,0,0)" />
	<circle cx="435.73438306974" cy="-454.407919317492" r="2" style="fill: rgb(0,0,0)" />
	<circle cx="368.838259872157" cy="-243.148749981025" r="2" style="fill: rgb(0,0,0)" />
	<circle cx="428.672352068606" cy="-331.243108680311" r="2" style="fill: rgb(0,0,0)" />
	<circle cx="435.734383069751" cy="-257.281312660738" r="2" style="fill: rgb(0,0,0)" />
	<circle cx="224.687984560588" cy="-206.700481912163" r="2" style="fill: rgb(0,0,0)" />
	<circle cx="164.296409149801" cy="-249.979543497477" r="2" style="fill: rgb(0,0,0)" />
	<circle cx="155.768551214719" cy="-264.982442230359" r="2" style="fill: rgb(0,0,0)" />
	<circle cx="164.144803783045" cy="-466.015767483199" r="2" style="fill: rgb(0,0,0)" />
	<circle cx="259.267807978051" cy="-522.977623838484" r="2" style="fill: rgb(0,0,0)" />
	<circle cx="132.393455522471" cy="-390.1152744151" r="2" style="fill: rgb(0,0,0)" />
	<circle cx="339.246436464683" cy="-519.366190888246" r="2" style="fill: rgb(0,0,0)" />
	<circle cx="409.494527382365" cy="-495.17062776764" r="2" style="fill: rgb(0,0,0)" />
	<circle cx="439.079843418507" cy="-451.692556428746" r="2" style="fill: rgb(0,0,0)" />
	<circle cx="368.152405819166" cy="-204.175767398172" r="2" style="fill: rgb(0,0,0)" />
	<circle cx="430.029381623094" cy="-245.303123472496" r="2" style="fill: rgb(0,0,0)" />
	<circle cx="439.079843418527" cy="-259.996675549482" r="2" style="fill: rgb(0,0,0)" />
	<circle cx="164.144803783046" cy="-245.673464494997" r="2" style="fill: rgb(0,0,0)" />
	<circle cx="259.267807978062" cy="-188.711608139723" r="2" style="fill: rgb(0,0,0)" />
	<circle cx="132.393455522467" cy="-321.573957563101" r="2" style="fill: rgb(0,0,0)" />
	<circle cx="189.496625695873" cy="-521.749777135998" r="2" style="fill: rgb(0,0,0)" />
	<circle cx="294.459166842755" cy="-539.738650908449" r="2" style="fill: rgb(0,0,0)" />
	<circle cx="230.059129966077" cy="-576.790706216952" r="2" style="fill: rgb(0,0,0)" />
	<circle cx="96.6341422597293" cy="-405.627697893128" r="2" style="fill: rgb(0,0,0)" />
	<circle cx="408.408040445937" cy="-499.340141732093" r="2" style="fill: rgb(0,0,0)" />
	<circle cx="464.431665331345" cy="-395.958546775952" r="2" style="fill: rgb(0,0,0)" />
	<circle cx="332.961046954459" cy="-187.414740328213" r="2" style="fill: rgb(0,0,0)" />
	<circle cx="430.029381623091" cy="-240.994376489556" r="2" style="fill: rgb(0,0,0)" />
	<circle cx="464.431665331348" cy="-315.730685202291" r="2" style="fill: rgb(0,0,0)" />
	<circle cx="189.496625695887" cy="-189.939454842198" r="2" style="fill: rgb(0,0,0)" />
	<circle cx="230.059129966094" cy="-134.898525761257" r="2" style="fill: rgb(0,0,0)" />
	<circle cx="96.6341422597276" cy="-306.061534085067" r="2" style="fill: rgb(0,0,0)" />
	<circle cx="153.737312433131" cy="-537.262200614027" r="2" style="fill: rgb(0,0,0)" />
	<circle cx="216.793778082331" cy="-576.557259999826" r="2" style="fill: rgb(0,0,0)" />
	<circle cx="233.915986065217" cy="-578.711633491284" r="2" style="fill: rgb(0,0,0)" />
	<circle cx="94.5774294637818" cy="-444.552416256393" r="2" style="fill: rgb(0,0,0)" />
	<circle cx="368.172799689692" cy="-545.493365970124" r="2" style="fill: rgb(0,0,0)" />
	<circle cx="499.623024196053" cy="-412.719573845917" r="2" style="fill: rgb(0,0,0)" />
	<circle cx="360.258199340919" cy="-132.60725746438" r="2" style="fill: rgb(0,0,0)" />
	<circle cx="402.732229236639" cy="-186.186893625728" r="2" style="fill: rgb(0,0,0)" />
	<circle cx="499.623024196059" cy="-298.969658132341" r="2" style="fill: rgb(0,0,0)" />
	<circle cx="153.73731243315" cy="-174.427031364161" r="2" style="fill: rgb(0,0,0)" />
	<circle cx="216.793778082357" cy="-135.131971978371" r="2" style="fill: rgb(0,0,0)" />
	<circle cx="94.5774294637861" cy="-267.136815721803" r="2" style="fill: rgb(0,0,0)" />
	<circle cx="123.909563026803" cy="-512.168991721227" r="2" style="fill: rgb(0,0,0)" />
	<circle cx="212.871721388116" cy="-578.341292468752" r="2" style="fill: rgb(0,0,0)" />
	<circle cx="295.145020895745" cy="-578.711633491292" r="2" style="fill: rgb(0,0,0)" />
	<circle cx="33.5" cy="-440.246337253922" r="2" style="fill: rgb(0,0,0)" />
	<circle cx="398.000549096021" cy="-570.586574862927" r="2" style="fill: rgb(0,0,0)" />
	<circle cx="500.308878249039" cy="-451.692556428759" r="2" style="fill: rgb(0,0,0)" />
	<circle cx="398.844602662294" cy="-180.147600174535" r="2" style="fill: rgb(0,0,0)" />
	<circle cx="437.923588101349" cy="-169.425866555768" r="2" style="fill: rgb(0,0,0)" />
	<circle cx="500.30887824906" cy="-259.996675549499" r="2" style="fill: rgb(0,0,0)" />
	<circle cx="123.909563026816" cy="-199.520240256956" r="2" style="fill: rgb(0,0,0)" />
	<circle cx="212.871721388139" cy="-133.347939509452" r="2" style="fill: rgb(0,0,0)" />
	<circle cx="33.5000000000074" cy="-271.442894724268" r="2" style="fill: rgb(0,0,0)" />
	<circle cx="85.3231597054261" cy="-559.709334431375" r="2" style="fill: rgb(0,0,0)" />
	<circle cx="151.680599637178" cy="-576.186918977289" r="2" style="fill: rgb(0,0,0)" />
	<circle cx="294.459166842753" cy="-617.684616074137" r="2" style="fill: rgb(0,0,0)" />
	<circle cx="433.759862358761" cy="-555.0741513849" r="2" style="fill: rgb(0,0,0)" />
	<circle cx="561.499999999975" cy="-449.538182937309" r="2" style="fill: rgb(0,0,0)" />
	<circle cx="428.672352068628" cy="-155.054391281741" r="2" style="fill: rgb(0,0,0)" />
	<circle cx="468.615784944473" cy="-193.45403377941" r="2" style="fill: rgb(0,0,0)" />
	<circle cx="561.5" cy="-262.151049040969" r="2" style="fill: rgb(0,0,0)" />
	<circle cx="85.3231597054442" cy="-151.979897546797" r="2" style="fill: rgb(0,0,0)" />
	<circle cx="151.680599637207" cy="-135.502313000896" r="2" style="fill: rgb(0,0,0)" />
	<circle cx="144.573637110565" cy="-575.148752605032" r="2" style="fill: rgb(0,0,0)" />
	<circle cx="150.994745584179" cy="-615.15990156013" r="2" style="fill: rgb(0,0,0)" />
	<circle cx="259.267807978044" cy="-634.445643144091" r="2" style="fill: rgb(0,0,0)" />
	<circle cx="457.134958051007" cy="-611.665666717655" r="2" style="fill: rgb(0,0,0)" />
	<circle cx="419.508676746068" cy="-117.167839290735" r="2" style="fill: rgb(0,0,0)" />
	<circle cx="505.505565351943" cy="-144.585446652636" r="2" style="fill: rgb(0,0,0)" />
	<circle cx="144.573637110595" cy="-136.540479373156" r="2" style="fill: rgb(0,0,0)" />
	<circle cx="150.99474558422" cy="-96.5293304180506" r="2" style="fill: rgb(0,0,0)" />
	<circle cx="134.082579111378" cy="-612.689416813893" r="2" style="fill: rgb(0,0,0)" />
	<circle cx="185.574569001649" cy="-633.148775332579" r="2" style="fill: rgb(0,0,0)" />
	<circle cx="286.564960364497" cy="-689.253126007923" r="2" style="fill: rgb(0,0,0)" />
	<circle cx="409.017618746893" cy="-79.6271750818739" r="2" style="fill: rgb(0,0,0)" />
	<circle cx="479.265709664572" cy="-103.82273820248" r="2" style="fill: rgb(0,0,0)" />
	<circle cx="134.082579111423" cy="-98.9998151642944" r="2" style="fill: rgb(0,0,0)" />
	<circle cx="95.8019606807572" cy="-620.035029092918" r="2" style="fill: rgb(0,0,0)" />
	<circle cx="156.36589098967" cy="-686.961857711045" r="2" style="fill: rgb(0,0,0)" />
	<circle cx="478.179222728138" cy="-99.6532242380366" r="2" style="fill: rgb(0,0,0)" />
	<circle cx="95.8019606808061" cy="-91.6542028852556" r="2" style="fill: rgb(0,0,0)" />
	<circle cx="108.396862198521" cy="-679.954668294404" r="2" style="fill: rgb(0,0,0)" />
	<circle cx="437.943981971911" cy="-53.5" r="2" style="fill: rgb(0,0,0)" />
	<!--
	Generated using the Perl SVG Module V2.86
	by Ronan Oger
	Info: http://www.roitsystems.com/
	-->
</svg>