<?xml version="1.0" encoding="UTF-8" standalone="yes"?>
<!DOCTYPE svg PUBLIC "-//W3C//DTD SVG 1.0//EN" "http://www.w3.org/TR/2001/REC-SVG-20010904/DTD/svg10.dtd">
<!-- generated using polymake; Michael Joswig, Georg Loho, Benjamin Lorenz, Rico Raber; license CC BY-NC-SA 3.0; see polymake.org and matchthenet.de -->
<svg height="841pt" id="document" viewBox="0 -664.389070820515 572 664.389070820515" width="595pt" xmlns="http://www.w3.org/2000/svg" xmlns:svg="http://www.w3.org/2000/svg" xmlns:xlink="http://www.w3.org/1999/xlink">
	<title id="document_title">planar_net_</title>
	<polygon points="252.839215089332,-340.694535410256 318.056427454727,-340.694535410256 294.280022043318,-401.423172266567 " style="fill: rgb(14,173,105); fill-opacity: 1; stroke: rgb(0,0,0); stroke-width: 3" />
	<polygon points="294.280022043318,-279.965898553947 318.056427454727,-340.694535410256 252.839215089332,-340.694535410256 " style="fill: rgb(14,173,105); fill-opacity: 1; stroke: rgb(0,0,0); stroke-width: 3" />
	<polygon points="252.839215089332,-340.694535410256 294.280022043318,-401.423172266567 229.062809677919,-401.423172266561 " style="fill: rgb(14,173,105); fill-opacity: 1; stroke: rgb(0,0,0); stroke-width: 3" />
	<polygon points="294.280022043318,-401.423172266567 318.056427454727,-340.694535410256 365.937190322089,-384.974523395267 " style="fill: rgb(14,173,105); fill-opacity: 1; stroke: rgb(0,0,0); stroke-width: 3" />
	<polygon points="252.839215089332,-340.694535410256 229.062809677919,-401.423172266561 181.182046810561,-357.143184281545 " style="fill: rgb(14,173,105); fill-opacity: 1; stroke: rgb(0,0,0); stroke-width: 3" />
	<polygon points="252.839215089332,-340.694535410256 229.062809677926,-279.965898553942 294.280022043318,-279.965898553947 " style="fill: rgb(14,173,105); fill-opacity: 1; stroke: rgb(0,0,0); stroke-width: 3" />
	<polygon points="365.93719032208,-296.414547425241 318.056427454727,-340.694535410256 294.280022043318,-279.965898553947 " style="fill: rgb(14,173,105); fill-opacity: 1; stroke: rgb(0,0,0); stroke-width: 3" />
	<polygon points="229.062809677919,-401.423172266561 294.280022043318,-401.423172266567 252.839215089331,-462.151809122878 " style="fill: rgb(14,173,105); fill-opacity: 1; stroke: rgb(0,0,0); stroke-width: 3" />
	<polygon points="252.839215089332,-340.694535410256 181.182046810571,-324.245886538958 229.062809677926,-279.965898553942 " style="fill: rgb(14,173,105); fill-opacity: 1; stroke: rgb(0,0,0); stroke-width: 3" />
	<polygon points="294.280022043318,-401.423172266567 365.937190322089,-384.974523395267 342.160784910675,-445.703160251578 " style="fill: rgb(14,173,105); fill-opacity: 1; stroke: rgb(0,0,0); stroke-width: 3" />
	<polygon points="365.937190322089,-384.974523395267 318.056427454727,-340.694535410256 376.744856488475,-312.252434815117 " style="fill: rgb(14,173,105); fill-opacity: 1; stroke: rgb(0,0,0); stroke-width: 3" />
	<polygon points="181.182046810561,-357.143184281545 229.062809677919,-401.423172266561 170.374380644168,-429.865272861695 " style="fill: rgb(14,173,105); fill-opacity: 1; stroke: rgb(0,0,0); stroke-width: 3" />
	<polygon points="294.280022043318,-279.965898553947 229.062809677926,-279.965898553942 252.839215089334,-219.237261697631 " style="fill: rgb(14,173,105); fill-opacity: 1; stroke: rgb(0,0,0); stroke-width: 3" />
	<polygon points="294.280022043318,-401.423172266567 318.056427454724,-462.151809122881 252.839215089331,-462.151809122878 " style="fill: rgb(14,173,105); fill-opacity: 1; stroke: rgb(0,0,0); stroke-width: 3" />
	<polygon points="365.93719032208,-296.414547425241 294.280022043318,-279.965898553947 342.160784910684,-235.685910568936 " style="fill: rgb(14,173,105); fill-opacity: 1; stroke: rgb(0,0,0); stroke-width: 3" />
	<polygon points="229.062809677919,-401.423172266561 252.839215089331,-462.151809122878 181.182046810565,-445.703160251588 " style="fill: rgb(14,173,105); fill-opacity: 1; stroke: rgb(0,0,0); stroke-width: 3" />
	<polygon points="229.062809677926,-279.965898553942 181.182046810571,-324.245886538958 170.374380644179,-251.523797958813 " style="fill: rgb(14,173,105); fill-opacity: 1; stroke: rgb(0,0,0); stroke-width: 3" />
	<polygon points="342.160784910675,-445.703160251578 365.937190322089,-384.974523395267 407.37799727607,-445.703160251576 " style="fill: rgb(14,173,105); fill-opacity: 1; stroke: rgb(0,0,0); stroke-width: 3" />
	<polygon points="318.056427454733,-219.237261697643 294.280022043318,-279.965898553947 252.839215089334,-219.237261697631 " style="fill: rgb(14,173,105); fill-opacity: 1; stroke: rgb(0,0,0); stroke-width: 3" />
	<polygon points="365.937190322089,-384.974523395267 376.744856488475,-312.252434815117 424.625619355835,-356.532422800132 " style="fill: rgb(14,173,105); fill-opacity: 1; stroke: rgb(0,0,0); stroke-width: 3" />
	<polygon points="181.182046810561,-357.143184281545 170.374380644168,-429.865272861695 122.493617776812,-385.585284876673 " style="fill: rgb(14,173,105); fill-opacity: 1; stroke: rgb(0,0,0); stroke-width: 3" />
	<polygon points="229.062809677926,-279.965898553942 181.182046810562,-235.685910568931 252.839215089334,-219.237261697631 " style="fill: rgb(14,173,105); fill-opacity: 1; stroke: rgb(0,0,0); stroke-width: 3" />
	<polygon points="252.839215089331,-462.151809122878 318.056427454724,-462.151809122881 294.280022043316,-522.880445979193 " style="fill: rgb(14,173,105); fill-opacity: 1; stroke: rgb(0,0,0); stroke-width: 3" />
	<polygon points="365.93719032208,-296.414547425241 342.160784910684,-235.685910568936 407.377997276082,-235.685910568947 " style="fill: rgb(14,173,105); fill-opacity: 1; stroke: rgb(0,0,0); stroke-width: 3" />
	<polygon points="365.937190322089,-384.974523395267 431.154402687489,-384.974523395277 407.37799727607,-445.703160251576 " style="fill: rgb(14,173,105); fill-opacity: 1; stroke: rgb(0,0,0); stroke-width: 3" />
	<polygon points="181.182046810571,-324.245886538958 122.493617776821,-295.803785943818 170.374380644179,-251.523797958813 " style="fill: rgb(14,173,105); fill-opacity: 1; stroke: rgb(0,0,0); stroke-width: 3" />
	<polygon points="181.182046810565,-445.703160251588 252.839215089331,-462.151809122878 204.958452221969,-506.431797107892 " style="fill: rgb(14,173,105); fill-opacity: 1; stroke: rgb(0,0,0); stroke-width: 3" />
	<polygon points="342.160784910675,-445.703160251578 407.37799727607,-445.703160251576 365.937190322088,-506.431797107884 " style="fill: rgb(14,173,105); fill-opacity: 1; stroke: rgb(0,0,0); stroke-width: 3" />
	<polygon points="318.056427454733,-219.237261697643 252.839215089334,-219.237261697631 294.280022043316,-158.508624841326 " style="fill: rgb(14,173,105); fill-opacity: 1; stroke: rgb(0,0,0); stroke-width: 3" />
	<polygon points="424.625619355835,-356.532422800132 376.744856488475,-312.252434815117 448.402024767239,-295.803785943814 " style="fill: rgb(14,173,105); fill-opacity: 1; stroke: rgb(0,0,0); stroke-width: 3" />
	<polygon points="122.493617776812,-385.585284876673 170.374380644168,-429.865272861695 98.7172123653992,-446.31392173298 " style="fill: rgb(14,173,105); fill-opacity: 1; stroke: rgb(0,0,0); stroke-width: 3" />
	<polygon points="252.839215089331,-462.151809122878 294.280022043316,-522.880445979193 229.062809677916,-522.880445979182 " style="fill: rgb(14,173,105); fill-opacity: 1; stroke: rgb(0,0,0); stroke-width: 3" />
	<polygon points="252.839215089334,-219.237261697631 181.182046810562,-235.685910568931 204.958452221977,-174.95727371262 " style="fill: rgb(14,173,105); fill-opacity: 1; stroke: rgb(0,0,0); stroke-width: 3" />
	<polygon points="407.377997276082,-235.685910568947 342.160784910684,-235.685910568936 365.937190322094,-174.957273712625 " style="fill: rgb(14,173,105); fill-opacity: 1; stroke: rgb(0,0,0); stroke-width: 3" />
	<polygon points="407.37799727607,-445.703160251576 431.154402687489,-384.974523395277 479.035165554843,-429.254511380299 " style="fill: rgb(14,173,105); fill-opacity: 1; stroke: rgb(0,0,0); stroke-width: 3" />
	<polygon points="170.374380644179,-251.523797958813 122.493617776821,-295.803785943818 98.717212365413,-235.075149087506 " style="fill: rgb(14,173,105); fill-opacity: 1; stroke: rgb(0,0,0); stroke-width: 3" />
	<polygon points="181.182046810565,-445.703160251588 204.958452221969,-506.431797107892 139.741239856571,-506.431797107891 " style="fill: rgb(14,173,105); fill-opacity: 1; stroke: rgb(0,0,0); stroke-width: 3" />
	<polygon points="294.280022043316,-158.508624841326 252.839215089334,-219.237261697631 229.062809677928,-158.508624841317 " style="fill: rgb(14,173,105); fill-opacity: 1; stroke: rgb(0,0,0); stroke-width: 3" />
	<polygon points="365.937190322088,-506.431797107884 407.37799727607,-445.703160251576 431.154402687477,-506.43179710789 " style="fill: rgb(14,173,105); fill-opacity: 1; stroke: rgb(0,0,0); stroke-width: 3" />
	<polygon points="424.625619355835,-356.532422800132 448.402024767239,-295.803785943814 489.842831721231,-356.532422800109 " style="fill: rgb(14,173,105); fill-opacity: 1; stroke: rgb(0,0,0); stroke-width: 3" />
	<polygon points="122.493617776812,-385.585284876673 98.7172123653992,-446.31392173298 57.2764054114226,-385.585284876669 " style="fill: rgb(14,173,105); fill-opacity: 1; stroke: rgb(0,0,0); stroke-width: 3" />
	<polygon points="229.062809677916,-522.880445979182 294.280022043316,-522.880445979193 252.839215089332,-583.6090828355 " style="fill: rgb(14,173,105); fill-opacity: 1; stroke: rgb(0,0,0); stroke-width: 3" />
	<polygon points="181.182046810562,-235.685910568931 139.741239856576,-174.957273712625 204.958452221977,-174.95727371262 " style="fill: rgb(14,173,105); fill-opacity: 1; stroke: rgb(0,0,0); stroke-width: 3" />
	<polygon points="407.37799727607,-445.703160251576 479.035165554843,-429.254511380299 455.25876014341,-489.983148236603 " style="fill: rgb(14,173,105); fill-opacity: 1; stroke: rgb(0,0,0); stroke-width: 3" />
	<polygon points="407.377997276082,-235.685910568947 365.937190322094,-174.957273712625 431.154402687493,-174.957273712636 " style="fill: rgb(14,173,105); fill-opacity: 1; stroke: rgb(0,0,0); stroke-width: 3" />
	<polygon points="139.741239856571,-506.431797107891 204.958452221969,-506.431797107892 181.182046810559,-567.160433964203 " style="fill: rgb(14,173,105); fill-opacity: 1; stroke: rgb(0,0,0); stroke-width: 3" />
	<polygon points="294.280022043316,-158.508624841326 229.062809677928,-158.508624841317 252.839215089337,-97.7799879850057 " style="fill: rgb(14,173,105); fill-opacity: 1; stroke: rgb(0,0,0); stroke-width: 3" />
	<polygon points="365.937190322088,-506.431797107884 431.154402687477,-506.43179710789 407.377997276069,-567.160433964202 " style="fill: rgb(14,173,105); fill-opacity: 1; stroke: rgb(0,0,0); stroke-width: 3" />
	<polygon points="489.842831721231,-356.532422800109 448.402024767239,-295.803785943814 513.619237132638,-295.803785943809 " style="fill: rgb(14,173,105); fill-opacity: 1; stroke: rgb(0,0,0); stroke-width: 3" />
	<polygon points="57.2764054114226,-385.585284876669 98.7172123653992,-446.31392173298 33.5,-446.313921732965 " style="fill: rgb(14,173,105); fill-opacity: 1; stroke: rgb(0,0,0); stroke-width: 3" />
	<polygon points="204.958452221977,-174.95727371262 139.741239856576,-174.957273712625 181.182046810562,-114.228636856315 " style="fill: rgb(14,173,105); fill-opacity: 1; stroke: rgb(0,0,0); stroke-width: 3" />
	<polygon points="455.25876014341,-489.983148236603 479.035165554843,-429.254511380299 520.475972508804,-489.983148236621 " style="fill: rgb(14,173,105); fill-opacity: 1; stroke: rgb(0,0,0); stroke-width: 3" />
	<polygon points="431.154402687493,-174.957273712636 365.937190322094,-174.957273712625 407.377997276075,-114.22863685632 " style="fill: rgb(14,173,105); fill-opacity: 1; stroke: rgb(0,0,0); stroke-width: 3" />
	<polygon points="139.741239856571,-506.431797107891 181.182046810559,-567.160433964203 115.96483444516,-567.160433964197 " style="fill: rgb(14,173,105); fill-opacity: 1; stroke: rgb(0,0,0); stroke-width: 3" />
	<polygon points="407.377997276069,-567.160433964202 431.154402687477,-506.43179710789 479.035165554841,-550.711785092901 " style="fill: rgb(14,173,105); fill-opacity: 1; stroke: rgb(0,0,0); stroke-width: 3" />
	<polygon points="489.842831721231,-356.532422800109 513.619237132638,-295.803785943809 561.5,-340.083773928822 " style="fill: rgb(14,173,105); fill-opacity: 1; stroke: rgb(0,0,0); stroke-width: 3" />
	<polygon points="139.741239856576,-174.957273712625 115.96483444517,-114.228636856312 181.182046810562,-114.228636856315 " style="fill: rgb(14,173,105); fill-opacity: 1; stroke: rgb(0,0,0); stroke-width: 3" />
	<polygon points="479.035165554842,-130.677285727614 431.154402687493,-174.957273712636 407.377997276075,-114.22863685632 " style="fill: rgb(14,173,105); fill-opacity: 1; stroke: rgb(0,0,0); stroke-width: 3" />
	<polygon points="181.182046810559,-567.160433964203 139.741239856582,-627.889070820515 115.96483444516,-567.160433964197 " style="fill: rgb(14,173,105); fill-opacity: 1; stroke: rgb(0,0,0); stroke-width: 3" />
	<polygon points="139.741239856578,-53.5 181.182046810562,-114.228636856315 115.96483444517,-114.228636856312 " style="fill: rgb(14,173,105); fill-opacity: 1; stroke: rgb(0,0,0); stroke-width: 3" />
	<circle cx="252.839215089332" cy="-340.694535410256" r="2" style="fill: rgb(0,0,0)" />
	<circle cx="318.056427454727" cy="-340.694535410256" r="2" style="fill: rgb(0,0,0)" />
	<circle cx="294.280022043318" cy="-401.423172266567" r="2" style="fill: rgb(0,0,0)" />
	<circle cx="294.280022043318" cy="-279.965898553947" r="2" style="fill: rgb(0,0,0)" />
	<circle cx="229.062809677919" cy="-401.423172266561" r="2" style="fill: rgb(0,0,0)" />
	<circle cx="365.937190322089" cy="-384.974523395267" r="2" style="fill: rgb(0,0,0)" />
	<circle cx="229.062809677926" cy="-279.965898553942" r="2" style="fill: rgb(0,0,0)" />
	<circle cx="365.93719032208" cy="-296.414547425241" r="2" style="fill: rgb(0,0,0)" />
	<circle cx="181.182046810561" cy="-357.143184281545" r="2" style="fill: rgb(0,0,0)" />
	<circle cx="252.839215089331" cy="-462.151809122878" r="2" style="fill: rgb(0,0,0)" />
	<circle cx="342.160784910675" cy="-445.703160251578" r="2" style="fill: rgb(0,0,0)" />
	<circle cx="376.744856488475" cy="-312.252434815117" r="2" style="fill: rgb(0,0,0)" />
	<circle cx="181.182046810571" cy="-324.245886538958" r="2" style="fill: rgb(0,0,0)" />
	<circle cx="252.839215089334" cy="-219.237261697631" r="2" style="fill: rgb(0,0,0)" />
	<circle cx="342.160784910684" cy="-235.685910568936" r="2" style="fill: rgb(0,0,0)" />
	<circle cx="170.374380644168" cy="-429.865272861695" r="2" style="fill: rgb(0,0,0)" />
	<circle cx="318.056427454724" cy="-462.151809122881" r="2" style="fill: rgb(0,0,0)" />
	<circle cx="181.182046810565" cy="-445.703160251588" r="2" style="fill: rgb(0,0,0)" />
	<circle cx="407.37799727607" cy="-445.703160251576" r="2" style="fill: rgb(0,0,0)" />
	<circle cx="424.625619355835" cy="-356.532422800132" r="2" style="fill: rgb(0,0,0)" />
	<circle cx="170.374380644179" cy="-251.523797958813" r="2" style="fill: rgb(0,0,0)" />
	<circle cx="318.056427454733" cy="-219.237261697643" r="2" style="fill: rgb(0,0,0)" />
	<circle cx="181.182046810562" cy="-235.685910568931" r="2" style="fill: rgb(0,0,0)" />
	<circle cx="407.377997276082" cy="-235.685910568947" r="2" style="fill: rgb(0,0,0)" />
	<circle cx="122.493617776812" cy="-385.585284876673" r="2" style="fill: rgb(0,0,0)" />
	<circle cx="294.280022043316" cy="-522.880445979193" r="2" style="fill: rgb(0,0,0)" />
	<circle cx="204.958452221969" cy="-506.431797107892" r="2" style="fill: rgb(0,0,0)" />
	<circle cx="431.154402687489" cy="-384.974523395277" r="2" style="fill: rgb(0,0,0)" />
	<circle cx="365.937190322088" cy="-506.431797107884" r="2" style="fill: rgb(0,0,0)" />
	<circle cx="448.402024767239" cy="-295.803785943814" r="2" style="fill: rgb(0,0,0)" />
	<circle cx="122.493617776821" cy="-295.803785943818" r="2" style="fill: rgb(0,0,0)" />
	<circle cx="294.280022043316" cy="-158.508624841326" r="2" style="fill: rgb(0,0,0)" />
	<circle cx="204.958452221977" cy="-174.95727371262" r="2" style="fill: rgb(0,0,0)" />
	<circle cx="365.937190322094" cy="-174.957273712625" r="2" style="fill: rgb(0,0,0)" />
	<circle cx="98.7172123653992" cy="-446.31392173298" r="2" style="fill: rgb(0,0,0)" />
	<circle cx="229.062809677916" cy="-522.880445979182" r="2" style="fill: rgb(0,0,0)" />
	<circle cx="139.741239856571" cy="-506.431797107891" r="2" style="fill: rgb(0,0,0)" />
	<circle cx="479.035165554843" cy="-429.254511380299" r="2" style="fill: rgb(0,0,0)" />
	<circle cx="431.154402687477" cy="-506.43179710789" r="2" style="fill: rgb(0,0,0)" />
	<circle cx="489.842831721231" cy="-356.532422800109" r="2" style="fill: rgb(0,0,0)" />
	<circle cx="98.717212365413" cy="-235.075149087506" r="2" style="fill: rgb(0,0,0)" />
	<circle cx="229.062809677928" cy="-158.508624841317" r="2" style="fill: rgb(0,0,0)" />
	<circle cx="139.741239856576" cy="-174.957273712625" r="2" style="fill: rgb(0,0,0)" />
	<circle cx="431.154402687493" cy="-174.957273712636" r="2" style="fill: rgb(0,0,0)" />
	<circle cx="57.2764054114226" cy="-385.585284876669" r="2" style="fill: rgb(0,0,0)" />
	<circle cx="252.839215089332" cy="-583.6090828355" r="2" style="fill: rgb(0,0,0)" />
	<circle cx="181.182046810559" cy="-567.160433964203" r="2" style="fill: rgb(0,0,0)" />
	<circle cx="455.25876014341" cy="-489.983148236603" r="2" style="fill: rgb(0,0,0)" />
	<circle cx="407.377997276069" cy="-567.160433964202" r="2" style="fill: rgb(0,0,0)" />
	<circle cx="513.619237132638" cy="-295.803785943809" r="2" style="fill: rgb(0,0,0)" />
	<circle cx="252.839215089337" cy="-97.7799879850057" r="2" style="fill: rgb(0,0,0)" />
	<circle cx="181.182046810562" cy="-114.228636856315" r="2" style="fill: rgb(0,0,0)" />
	<circle cx="407.377997276075" cy="-114.22863685632" r="2" style="fill: rgb(0,0,0)" />
	<circle cx="33.5" cy="-446.313921732965" r="2" style="fill: rgb(0,0,0)" />
	<circle cx="115.96483444516" cy="-567.160433964197" r="2" style="fill: rgb(0,0,0)" />
	<circle cx="520.475972508804" cy="-489.983148236621" r="2" style="fill: rgb(0,0,0)" />
	<circle cx="479.035165554841" cy="-550.711785092901" r="2" style="fill: rgb(0,0,0)" />
	<circle cx="561.5" cy="-340.083773928822" r="2" style="fill: rgb(0,0,0)" />
	<circle cx="115.96483444517" cy="-114.228636856312" r="2" style="fill: rgb(0,0,0)" />
	<circle cx="479.035165554842" cy="-130.677285727614" r="2" style="fill: rgb(0,0,0)" />
	<circle cx="139.741239856582" cy="-627.889070820515" r="2" style="fill: rgb(0,0,0)" />
	<circle cx="139.741239856578" cy="-53.5" r="2" style="fill: rgb(0,0,0)" />
	<!-- 
	Generated using the Perl SVG Module V2.64
	by Ronan Oger
	Info: http://www.roitsystems.com/
 -->
</svg>