<?xml version="1.0" encoding="UTF-8" standalone="yes"?>
<!DOCTYPE svg PUBLIC "-//W3C//DTD SVG 1.0//EN" "http://www.w3.org/TR/2001/REC-SVG-20010904/DTD/svg10.dtd">
<!-- generated using polymake; Michael Joswig, Georg Loho, Benjamin Lorenz, Rico Raber; license CC BY-NC-ND 3.0; see polymake.org and matchthenet.de -->
<svg height="841pt" id="document" viewBox="0 -740.434576815236 572 740.434576815236" width="595pt" xmlns="http://www.w3.org/2000/svg" xmlns:svg="http://www.w3.org/2000/svg" xmlns:xlink="http://www.w3.org/1999/xlink">
	<title id="document_title">planar_net_</title>
	<polygon points="276.72601798002,-345.22456219202 318.273982019983,-345.22456219202 297.500000000001,-381.20615452615 " style="fill: rgb(14,173,105); fill-opacity: 1; stroke: rgb(0,0,0); stroke-width: 3" />
	<polygon points="392.527032351056,-312.164974212967 351.886991009992,-320.803281666551 364.726017980019,-281.288819727548 " style="fill: rgb(14,173,105); fill-opacity: 1; stroke: rgb(0,0,0); stroke-width: 3" />
	<polygon points="351.886991009992,-320.803281666551 318.273982019983,-345.22456219202 276.72601798002,-345.22456219202 243.113008990011,-320.803281666551 230.273982019983,-281.288819727548 243.11300899001,-241.774357788545 276.726017980019,-217.353077263076 318.273982019982,-217.353077263076 351.886991009991,-241.774357788545 364.726017980019,-281.288819727548 " style="fill: rgb(14,173,105); fill-opacity: 1; stroke: rgb(0,0,0); stroke-width: 3" />
	<polygon points="276.72601798002,-345.22456219202 297.500000000001,-381.20615452615 293.157055167004,-422.526514471867 265.356040795968,-453.402668957286 224.715999454904,-462.04097641087 186.760045631897,-445.141896990622 165.986063611916,-409.160304656491 170.329008444913,-367.839944710774 198.130022815949,-336.963790225355 238.770064157013,-328.325482771771 " style="fill: rgb(14,173,105); fill-opacity: 1; stroke: rgb(0,0,0); stroke-width: 3" />
	<polygon points="297.500000000001,-381.20615452615 318.273982019983,-345.22456219202 356.229935842989,-328.325482771771 396.869977184053,-336.963790225355 424.67099155509,-367.839944710774 429.013936388087,-409.160304656491 408.239954368106,-445.141896990621 370.284000545099,-462.04097641087 329.643959204035,-453.402668957286 301.842944832998,-422.526514471867 " style="fill: rgb(14,173,105); fill-opacity: 1; stroke: rgb(0,0,0); stroke-width: 3" />
	<polygon points="272.075958113839,-623.099754930517 267.733013280841,-664.420114876234 239.931998909804,-695.296269361654 199.29195756874,-703.934576815236 161.336003745734,-687.035497394986 140.562021725753,-651.053905060855 144.904966558751,-609.733545115137 172.705980929788,-578.857390629718 213.346022270852,-570.219083176136 251.301976093858,-587.118162596385 " style="fill: rgb(14,173,105); fill-opacity: 1; stroke: rgb(0,0,0); stroke-width: 3" />
	<polygon points="439.886991009991,-305.710100253016 398.339026970028,-305.710100253017 364.726017980019,-281.288819727548 351.886991009991,-241.774357788545 364.726017980019,-202.259895849541 398.339026970029,-177.838615324072 439.886991009992,-177.838615324072 473.500000000001,-202.25989584954 486.339026970028,-241.774357788544 473.5,-281.288819727548 " style="fill: rgb(14,173,105); fill-opacity: 1; stroke: rgb(0,0,0); stroke-width: 3" />
	<polygon points="351.886991009991,-241.774357788545 318.273982019982,-217.353077263076 356.229935842989,-200.453997842827 " style="fill: rgb(14,173,105); fill-opacity: 1; stroke: rgb(0,0,0); stroke-width: 3" />
	<polygon points="303.311994618974,-470.301748377535 324.085976638956,-506.283340711666 319.743031805958,-547.603700657383 291.942017434922,-578.479855142802 251.301976093858,-587.118162596385 213.346022270852,-570.219083176136 192.57204025087,-534.237490842006 196.914985083868,-492.917130896289 224.715999454904,-462.04097641087 265.356040795968,-453.402668957286 " style="fill: rgb(14,173,105); fill-opacity: 1; stroke: rgb(0,0,0); stroke-width: 3" />
	<polygon points="408.239954368106,-445.141896990621 429.013936388087,-409.160304656491 466.969890211094,-392.261225236243 507.609931552158,-400.899532689827 535.410945923195,-431.775687175246 539.753890756192,-473.096047120963 518.979908736209,-509.077639455093 481.023954913202,-525.976718875341 440.383913572138,-517.338411421757 412.582899201101,-486.462256936337 " style="fill: rgb(14,173,105); fill-opacity: 1; stroke: rgb(0,0,0); stroke-width: 3" />
	<polygon points="293.157055167004,-422.526514471867 305.996082137032,-462.040976410871 265.356040795968,-453.402668957286 " style="fill: rgb(14,173,105); fill-opacity: 1; stroke: rgb(0,0,0); stroke-width: 3" />
	<polygon points="518.979908736209,-509.077639455093 539.753890756192,-473.096047120963 560.527872776174,-509.077639455094 " style="fill: rgb(14,173,105); fill-opacity: 1; stroke: rgb(0,0,0); stroke-width: 3" />
	<polygon points="439.886991009992,-177.838615324072 398.339026970029,-177.838615324072 419.113008990011,-141.85702298994 " style="fill: rgb(14,173,105); fill-opacity: 1; stroke: rgb(0,0,0); stroke-width: 3" />
	<polygon points="196.660973029973,-305.710100253016 155.11300899001,-305.710100253016 121.500000000001,-281.288819727548 108.660973029973,-241.774357788545 121.500000000001,-202.259895849542 155.11300899001,-177.838615324074 196.660973029973,-177.838615324074 230.273982019983,-202.259895849542 243.11300899001,-241.774357788545 230.273982019983,-281.288819727548 " style="fill: rgb(14,173,105); fill-opacity: 1; stroke: rgb(0,0,0); stroke-width: 3" />
	<polygon points="243.113008990011,-320.803281666551 202.472967648946,-312.164974212967 230.273982019983,-281.288819727548 " style="fill: rgb(14,173,105); fill-opacity: 1; stroke: rgb(0,0,0); stroke-width: 3" />
	<polygon points="165.986063611916,-409.160304656491 186.760045631897,-445.141896990622 182.4171007989,-486.462256936339 154.616086427863,-517.338411421758 113.976045086799,-525.976718875342 76.0200912637929,-509.077639455094 55.2461092438118,-473.096047120963 59.5890540768092,-431.775687175246 87.3900684478459,-400.899532689826 128.03010978891,-392.261225236242 " style="fill: rgb(14,173,105); fill-opacity: 1; stroke: rgb(0,0,0); stroke-width: 3" />
	<polygon points="473.500000000001,-202.25989584954 439.886991009992,-177.838615324072 427.047964039965,-138.324153385067 439.886991009993,-98.8096914460633 473.500000000002,-74.3884109205952 515.047964039965,-74.3884109205954 548.660973029974,-98.8096914460639 561.5,-138.324153385069 548.660973029972,-177.838615324072 515.047964039963,-202.259895849541 " style="fill: rgb(14,173,105); fill-opacity: 1; stroke: rgb(0,0,0); stroke-width: 3" />
	<polygon points="429.013936388087,-409.160304656491 424.67099155509,-367.839944710774 462.626945378097,-384.739024131023 " style="fill: rgb(14,173,105); fill-opacity: 1; stroke: rgb(0,0,0); stroke-width: 3" />
	<polygon points="276.726017980019,-217.353077263076 243.11300899001,-241.774357788545 238.770064157013,-200.453997842827 " style="fill: rgb(14,173,105); fill-opacity: 1; stroke: rgb(0,0,0); stroke-width: 3" />
	<polygon points="370.284000545099,-462.04097641087 408.239954368106,-445.141896990621 403.897009535109,-486.462256936339 " style="fill: rgb(14,173,105); fill-opacity: 1; stroke: rgb(0,0,0); stroke-width: 3" />
	<polygon points="318.273982019982,-217.353077263076 276.726017980019,-217.353077263076 243.11300899001,-192.931796737608 230.273982019982,-153.417334798604 243.11300899001,-113.9028728596 276.726017980019,-89.4815923341323 318.273982019981,-89.4815923341329 351.886991009991,-113.902872859602 364.726017980019,-153.417334798605 351.886991009991,-192.931796737609 " style="fill: rgb(14,173,105); fill-opacity: 1; stroke: rgb(0,0,0); stroke-width: 3" />
	<polygon points="186.760045631897,-445.141896990622 224.715999454904,-462.04097641087 191.102990464894,-486.462256936339 " style="fill: rgb(14,173,105); fill-opacity: 1; stroke: rgb(0,0,0); stroke-width: 3" />
	<polygon points="79.9520359600373,-202.259895849541 46.3390269700277,-177.838615324073 33.5,-138.324153385069 46.339026970028,-98.809691446066 79.9520359600381,-74.3884109205988 121.500000000001,-74.3884109205991 155.113008990011,-98.809691446068 167.952035960039,-138.324153385071 155.11300899001,-177.838615324074 121.500000000001,-202.259895849542 " style="fill: rgb(14,173,105); fill-opacity: 1; stroke: rgb(0,0,0); stroke-width: 3" />
	<polygon points="170.329008444913,-367.839944710774 165.986063611916,-409.160304656491 132.373054621906,-384.739024131024 " style="fill: rgb(14,173,105); fill-opacity: 1; stroke: rgb(0,0,0); stroke-width: 3" />
	<polygon points="55.2461092438118,-473.096047120963 76.0200912637929,-509.077639455094 34.4721272238284,-509.077639455094 " style="fill: rgb(14,173,105); fill-opacity: 1; stroke: rgb(0,0,0); stroke-width: 3" />
	<polygon points="291.942017434922,-578.479855142802 279.102990464894,-617.994317081807 251.301976093858,-587.118162596385 " style="fill: rgb(14,173,105); fill-opacity: 1; stroke: rgb(0,0,0); stroke-width: 3" />
	<polygon points="486.339026970028,-241.774357788544 473.500000000001,-202.25989584954 514.140041341067,-210.898203303123 " style="fill: rgb(14,173,105); fill-opacity: 1; stroke: rgb(0,0,0); stroke-width: 3" />
	<polygon points="196.660973029973,-177.838615324074 155.11300899001,-177.838615324074 175.886991009991,-141.857022989942 " style="fill: rgb(14,173,105); fill-opacity: 1; stroke: rgb(0,0,0); stroke-width: 3" />
	<polygon points="192.57204025087,-534.237490842006 213.346022270852,-570.219083176136 171.798058230888,-570.219083176138 " style="fill: rgb(14,173,105); fill-opacity: 1; stroke: rgb(0,0,0); stroke-width: 3" />
	<polygon points="108.660973029973,-241.774357788545 80.8599586589357,-210.898203303125 121.500000000001,-202.259895849542 " style="fill: rgb(14,173,105); fill-opacity: 1; stroke: rgb(0,0,0); stroke-width: 3" />
	<polygon points="318.273982019981,-89.4815923341329 276.726017980019,-89.4815923341323 297.5,-53.5 " style="fill: rgb(14,173,105); fill-opacity: 1; stroke: rgb(0,0,0); stroke-width: 3" />
	<polygon points="548.660973029974,-98.8096914460639 515.047964039965,-74.3884109205954 553.003917862973,-57.4893315003453 " style="fill: rgb(14,173,105); fill-opacity: 1; stroke: rgb(0,0,0); stroke-width: 3" />
	<circle cx="276.72601798002" cy="-345.22456219202" r="2" style="fill: rgb(0,0,0)" />
	<circle cx="318.273982019983" cy="-345.22456219202" r="2" style="fill: rgb(0,0,0)" />
	<circle cx="297.500000000001" cy="-381.20615452615" r="2" style="fill: rgb(0,0,0)" />
	<circle cx="243.113008990011" cy="-320.803281666551" r="2" style="fill: rgb(0,0,0)" />
	<circle cx="230.273982019983" cy="-281.288819727548" r="2" style="fill: rgb(0,0,0)" />
	<circle cx="243.11300899001" cy="-241.774357788545" r="2" style="fill: rgb(0,0,0)" />
	<circle cx="276.726017980019" cy="-217.353077263076" r="2" style="fill: rgb(0,0,0)" />
	<circle cx="318.273982019982" cy="-217.353077263076" r="2" style="fill: rgb(0,0,0)" />
	<circle cx="351.886991009991" cy="-241.774357788545" r="2" style="fill: rgb(0,0,0)" />
	<circle cx="364.726017980019" cy="-281.288819727548" r="2" style="fill: rgb(0,0,0)" />
	<circle cx="351.886991009992" cy="-320.803281666551" r="2" style="fill: rgb(0,0,0)" />
	<circle cx="293.157055167004" cy="-422.526514471867" r="2" style="fill: rgb(0,0,0)" />
	<circle cx="265.356040795968" cy="-453.402668957286" r="2" style="fill: rgb(0,0,0)" />
	<circle cx="224.715999454904" cy="-462.04097641087" r="2" style="fill: rgb(0,0,0)" />
	<circle cx="186.760045631897" cy="-445.141896990622" r="2" style="fill: rgb(0,0,0)" />
	<circle cx="165.986063611916" cy="-409.160304656491" r="2" style="fill: rgb(0,0,0)" />
	<circle cx="170.329008444913" cy="-367.839944710774" r="2" style="fill: rgb(0,0,0)" />
	<circle cx="198.130022815949" cy="-336.963790225355" r="2" style="fill: rgb(0,0,0)" />
	<circle cx="238.770064157013" cy="-328.325482771771" r="2" style="fill: rgb(0,0,0)" />
	<circle cx="356.229935842989" cy="-328.325482771771" r="2" style="fill: rgb(0,0,0)" />
	<circle cx="396.869977184053" cy="-336.963790225355" r="2" style="fill: rgb(0,0,0)" />
	<circle cx="424.67099155509" cy="-367.839944710774" r="2" style="fill: rgb(0,0,0)" />
	<circle cx="429.013936388087" cy="-409.160304656491" r="2" style="fill: rgb(0,0,0)" />
	<circle cx="408.239954368106" cy="-445.141896990621" r="2" style="fill: rgb(0,0,0)" />
	<circle cx="370.284000545099" cy="-462.04097641087" r="2" style="fill: rgb(0,0,0)" />
	<circle cx="329.643959204035" cy="-453.402668957286" r="2" style="fill: rgb(0,0,0)" />
	<circle cx="301.842944832998" cy="-422.526514471867" r="2" style="fill: rgb(0,0,0)" />
	<circle cx="392.527032351056" cy="-312.164974212967" r="2" style="fill: rgb(0,0,0)" />
	<circle cx="364.726017980019" cy="-202.259895849541" r="2" style="fill: rgb(0,0,0)" />
	<circle cx="398.339026970029" cy="-177.838615324072" r="2" style="fill: rgb(0,0,0)" />
	<circle cx="439.886991009992" cy="-177.838615324072" r="2" style="fill: rgb(0,0,0)" />
	<circle cx="473.500000000001" cy="-202.25989584954" r="2" style="fill: rgb(0,0,0)" />
	<circle cx="486.339026970028" cy="-241.774357788544" r="2" style="fill: rgb(0,0,0)" />
	<circle cx="473.5" cy="-281.288819727548" r="2" style="fill: rgb(0,0,0)" />
	<circle cx="439.886991009991" cy="-305.710100253016" r="2" style="fill: rgb(0,0,0)" />
	<circle cx="398.339026970028" cy="-305.710100253017" r="2" style="fill: rgb(0,0,0)" />
	<circle cx="356.229935842989" cy="-200.453997842827" r="2" style="fill: rgb(0,0,0)" />
	<circle cx="196.660973029973" cy="-305.710100253016" r="2" style="fill: rgb(0,0,0)" />
	<circle cx="155.11300899001" cy="-305.710100253016" r="2" style="fill: rgb(0,0,0)" />
	<circle cx="121.500000000001" cy="-281.288819727548" r="2" style="fill: rgb(0,0,0)" />
	<circle cx="108.660973029973" cy="-241.774357788545" r="2" style="fill: rgb(0,0,0)" />
	<circle cx="121.500000000001" cy="-202.259895849542" r="2" style="fill: rgb(0,0,0)" />
	<circle cx="155.11300899001" cy="-177.838615324074" r="2" style="fill: rgb(0,0,0)" />
	<circle cx="196.660973029973" cy="-177.838615324074" r="2" style="fill: rgb(0,0,0)" />
	<circle cx="230.273982019983" cy="-202.259895849542" r="2" style="fill: rgb(0,0,0)" />
	<circle cx="202.472967648946" cy="-312.164974212967" r="2" style="fill: rgb(0,0,0)" />
	<circle cx="238.770064157013" cy="-200.453997842827" r="2" style="fill: rgb(0,0,0)" />
	<circle cx="243.11300899001" cy="-192.931796737608" r="2" style="fill: rgb(0,0,0)" />
	<circle cx="230.273982019982" cy="-153.417334798604" r="2" style="fill: rgb(0,0,0)" />
	<circle cx="243.11300899001" cy="-113.9028728596" r="2" style="fill: rgb(0,0,0)" />
	<circle cx="276.726017980019" cy="-89.4815923341323" r="2" style="fill: rgb(0,0,0)" />
	<circle cx="318.273982019981" cy="-89.4815923341329" r="2" style="fill: rgb(0,0,0)" />
	<circle cx="351.886991009991" cy="-113.902872859602" r="2" style="fill: rgb(0,0,0)" />
	<circle cx="364.726017980019" cy="-153.417334798605" r="2" style="fill: rgb(0,0,0)" />
	<circle cx="351.886991009991" cy="-192.931796737609" r="2" style="fill: rgb(0,0,0)" />
	<circle cx="303.311994618974" cy="-470.301748377535" r="2" style="fill: rgb(0,0,0)" />
	<circle cx="324.085976638956" cy="-506.283340711666" r="2" style="fill: rgb(0,0,0)" />
	<circle cx="319.743031805958" cy="-547.603700657383" r="2" style="fill: rgb(0,0,0)" />
	<circle cx="291.942017434922" cy="-578.479855142802" r="2" style="fill: rgb(0,0,0)" />
	<circle cx="251.301976093858" cy="-587.118162596385" r="2" style="fill: rgb(0,0,0)" />
	<circle cx="213.346022270852" cy="-570.219083176136" r="2" style="fill: rgb(0,0,0)" />
	<circle cx="192.57204025087" cy="-534.237490842006" r="2" style="fill: rgb(0,0,0)" />
	<circle cx="196.914985083868" cy="-492.917130896289" r="2" style="fill: rgb(0,0,0)" />
	<circle cx="305.996082137032" cy="-462.040976410871" r="2" style="fill: rgb(0,0,0)" />
	<circle cx="182.4171007989" cy="-486.462256936339" r="2" style="fill: rgb(0,0,0)" />
	<circle cx="154.616086427863" cy="-517.338411421758" r="2" style="fill: rgb(0,0,0)" />
	<circle cx="113.976045086799" cy="-525.976718875342" r="2" style="fill: rgb(0,0,0)" />
	<circle cx="76.0200912637929" cy="-509.077639455094" r="2" style="fill: rgb(0,0,0)" />
	<circle cx="55.2461092438118" cy="-473.096047120963" r="2" style="fill: rgb(0,0,0)" />
	<circle cx="59.5890540768092" cy="-431.775687175246" r="2" style="fill: rgb(0,0,0)" />
	<circle cx="87.3900684478459" cy="-400.899532689826" r="2" style="fill: rgb(0,0,0)" />
	<circle cx="128.03010978891" cy="-392.261225236242" r="2" style="fill: rgb(0,0,0)" />
	<circle cx="191.102990464894" cy="-486.462256936339" r="2" style="fill: rgb(0,0,0)" />
	<circle cx="132.373054621906" cy="-384.739024131024" r="2" style="fill: rgb(0,0,0)" />
	<circle cx="466.969890211094" cy="-392.261225236243" r="2" style="fill: rgb(0,0,0)" />
	<circle cx="507.609931552158" cy="-400.899532689827" r="2" style="fill: rgb(0,0,0)" />
	<circle cx="535.410945923195" cy="-431.775687175246" r="2" style="fill: rgb(0,0,0)" />
	<circle cx="539.753890756192" cy="-473.096047120963" r="2" style="fill: rgb(0,0,0)" />
	<circle cx="518.979908736209" cy="-509.077639455093" r="2" style="fill: rgb(0,0,0)" />
	<circle cx="481.023954913202" cy="-525.976718875341" r="2" style="fill: rgb(0,0,0)" />
	<circle cx="440.383913572138" cy="-517.338411421757" r="2" style="fill: rgb(0,0,0)" />
	<circle cx="412.582899201101" cy="-486.462256936337" r="2" style="fill: rgb(0,0,0)" />
	<circle cx="462.626945378097" cy="-384.739024131023" r="2" style="fill: rgb(0,0,0)" />
	<circle cx="403.897009535109" cy="-486.462256936339" r="2" style="fill: rgb(0,0,0)" />
	<circle cx="419.113008990011" cy="-141.85702298994" r="2" style="fill: rgb(0,0,0)" />
	<circle cx="427.047964039965" cy="-138.324153385067" r="2" style="fill: rgb(0,0,0)" />
	<circle cx="439.886991009993" cy="-98.8096914460633" r="2" style="fill: rgb(0,0,0)" />
	<circle cx="473.500000000002" cy="-74.3884109205952" r="2" style="fill: rgb(0,0,0)" />
	<circle cx="515.047964039965" cy="-74.3884109205954" r="2" style="fill: rgb(0,0,0)" />
	<circle cx="548.660973029974" cy="-98.8096914460639" r="2" style="fill: rgb(0,0,0)" />
	<circle cx="561.5" cy="-138.324153385069" r="2" style="fill: rgb(0,0,0)" />
	<circle cx="548.660973029972" cy="-177.838615324072" r="2" style="fill: rgb(0,0,0)" />
	<circle cx="515.047964039963" cy="-202.259895849541" r="2" style="fill: rgb(0,0,0)" />
	<circle cx="514.140041341067" cy="-210.898203303123" r="2" style="fill: rgb(0,0,0)" />
	<circle cx="79.9520359600373" cy="-202.259895849541" r="2" style="fill: rgb(0,0,0)" />
	<circle cx="46.3390269700277" cy="-177.838615324073" r="2" style="fill: rgb(0,0,0)" />
	<circle cx="33.5" cy="-138.324153385069" r="2" style="fill: rgb(0,0,0)" />
	<circle cx="46.339026970028" cy="-98.809691446066" r="2" style="fill: rgb(0,0,0)" />
	<circle cx="79.9520359600381" cy="-74.3884109205988" r="2" style="fill: rgb(0,0,0)" />
	<circle cx="121.500000000001" cy="-74.3884109205991" r="2" style="fill: rgb(0,0,0)" />
	<circle cx="155.113008990011" cy="-98.809691446068" r="2" style="fill: rgb(0,0,0)" />
	<circle cx="167.952035960039" cy="-138.324153385071" r="2" style="fill: rgb(0,0,0)" />
	<circle cx="175.886991009991" cy="-141.857022989942" r="2" style="fill: rgb(0,0,0)" />
	<circle cx="80.8599586589357" cy="-210.898203303125" r="2" style="fill: rgb(0,0,0)" />
	<circle cx="297.5" cy="-53.5" r="2" style="fill: rgb(0,0,0)" />
	<circle cx="272.075958113839" cy="-623.099754930517" r="2" style="fill: rgb(0,0,0)" />
	<circle cx="267.733013280841" cy="-664.420114876234" r="2" style="fill: rgb(0,0,0)" />
	<circle cx="239.931998909804" cy="-695.296269361654" r="2" style="fill: rgb(0,0,0)" />
	<circle cx="199.29195756874" cy="-703.934576815236" r="2" style="fill: rgb(0,0,0)" />
	<circle cx="161.336003745734" cy="-687.035497394986" r="2" style="fill: rgb(0,0,0)" />
	<circle cx="140.562021725753" cy="-651.053905060855" r="2" style="fill: rgb(0,0,0)" />
	<circle cx="144.904966558751" cy="-609.733545115137" r="2" style="fill: rgb(0,0,0)" />
	<circle cx="172.705980929788" cy="-578.857390629718" r="2" style="fill: rgb(0,0,0)" />
	<circle cx="279.102990464894" cy="-617.994317081807" r="2" style="fill: rgb(0,0,0)" />
	<circle cx="171.798058230888" cy="-570.219083176138" r="2" style="fill: rgb(0,0,0)" />
	<circle cx="34.4721272238284" cy="-509.077639455094" r="2" style="fill: rgb(0,0,0)" />
	<circle cx="560.527872776174" cy="-509.077639455094" r="2" style="fill: rgb(0,0,0)" />
	<circle cx="553.003917862973" cy="-57.4893315003453" r="2" style="fill: rgb(0,0,0)" />
	<!--
	Generated using the Perl SVG Module V2.84
	by Ronan Oger
	Info: http://www.roitsystems.com/
	-->
</svg>