<?xml version="1.0" encoding="UTF-8" standalone="yes"?>
<!DOCTYPE svg PUBLIC "-//W3C//DTD SVG 1.0//EN" "http://www.w3.org/TR/2001/REC-SVG-20010904/DTD/svg10.dtd">
<!-- generated using polymake; Michael Joswig, Georg Loho, Benjamin Lorenz, Rico Raber; license CC BY-NC-ND 3.0; see polymake.org and matchthenet.de -->
<svg height="841pt" id="document" viewBox="0 -779.738216705534 572 779.738216705534" width="595pt" xmlns="http://www.w3.org/2000/svg" xmlns:svg="http://www.w3.org/2000/svg" xmlns:xlink="http://www.w3.org/1999/xlink">
	<title id="document_title">planar_net_</title>
	<polygon points="258.284609690823,-393.115242270655 336.715390309167,-393.115242270655 375.93078061834,-461.038290724786 336.715390309168,-528.961339178916 258.284609690823,-528.961339178916 219.06921938165,-461.038290724785 " style="fill: rgb(14,173,105); fill-opacity: 1; stroke: rgb(0,0,0); stroke-width: 3" />
	<polygon points="375.930780618339,-325.192193816525 336.715390309167,-393.115242270655 258.284609690823,-393.115242270655 219.069219381651,-325.192193816525 258.284609690823,-257.269145362394 336.715390309167,-257.269145362394 " style="fill: rgb(14,173,105); fill-opacity: 1; stroke: rgb(0,0,0); stroke-width: 3" />
	<polygon points="258.284609690823,-393.115242270655 219.06921938165,-461.038290724785 151.146170927515,-421.822900415615 190.361561236678,-353.899851961487 " style="fill: rgb(14,173,105); fill-opacity: 1; stroke: rgb(0,0,0); stroke-width: 3" />
	<polygon points="454.361561236685,-596.884387633046 493.576951545858,-528.961339178916 561.5,-568.176729488094 522.28460969083,-636.099777942215 " style="fill: rgb(14,173,105); fill-opacity: 1; stroke: rgb(0,0,0); stroke-width: 3" />
	<polygon points="454.361561236684,-189.346096908263 375.93078061834,-189.346096908263 336.715390309169,-121.423048454131 375.930780618341,-53.5 454.361561236685,-53.5000000000019 493.576951545856,-121.423048454134 " style="fill: rgb(14,173,105); fill-opacity: 1; stroke: rgb(0,0,0); stroke-width: 3" />
	<polygon points="101.423048454134,-528.961339178916 140.638438763307,-596.884387633048 72.7153903091704,-636.09977794223 33.5,-568.176729488103 " style="fill: rgb(14,173,105); fill-opacity: 1; stroke: rgb(0,0,0); stroke-width: 3" />
	<polygon points="258.284609690823,-528.961339178916 336.715390309168,-528.961339178916 336.715390309173,-607.392119797268 258.284609690834,-607.392119797271 " style="fill: rgb(14,173,105); fill-opacity: 1; stroke: rgb(0,0,0); stroke-width: 3" />
	<polygon points="454.361561236683,-325.192193816526 375.930780618339,-325.192193816525 336.715390309167,-257.269145362394 375.93078061834,-189.346096908263 454.361561236684,-189.346096908263 493.576951545856,-257.269145362394 " style="fill: rgb(14,173,105); fill-opacity: 1; stroke: rgb(0,0,0); stroke-width: 3" />
	<polygon points="336.715390309167,-257.269145362394 258.284609690823,-257.269145362394 258.284609690821,-178.838364744042 336.715390309156,-178.838364744039 " style="fill: rgb(14,173,105); fill-opacity: 1; stroke: rgb(0,0,0); stroke-width: 3" />
	<polygon points="219.06921938165,-461.038290724785 258.284609690823,-528.961339178916 219.069219381651,-596.884387633048 140.638438763307,-596.884387633048 101.423048454134,-528.961339178916 140.638438763306,-461.038290724784 " style="fill: rgb(14,173,105); fill-opacity: 1; stroke: rgb(0,0,0); stroke-width: 3" />
	<polygon points="336.715390309168,-528.961339178916 375.93078061834,-461.038290724786 454.361561236685,-461.038290724786 493.576951545858,-528.961339178916 454.361561236685,-596.884387633046 375.93078061834,-596.884387633046 " style="fill: rgb(14,173,105); fill-opacity: 1; stroke: rgb(0,0,0); stroke-width: 3" />
	<polygon points="375.93078061834,-461.038290724786 336.715390309167,-393.115242270655 404.638438763302,-353.899851961479 443.853829072474,-421.822900415598 " style="fill: rgb(14,173,105); fill-opacity: 1; stroke: rgb(0,0,0); stroke-width: 3" />
	<polygon points="336.715390309173,-607.392119797268 375.930780618345,-675.315168251401 336.715390309179,-743.238216705534 258.28460969084,-743.238216705534 219.069219381667,-675.315168251402 258.284609690834,-607.392119797271 " style="fill: rgb(14,173,105); fill-opacity: 1; stroke: rgb(0,0,0); stroke-width: 3" />
	<polygon points="140.638438763306,-325.192193816524 101.423048454134,-257.269145362394 140.638438763306,-189.346096908264 219.069219381651,-189.346096908265 258.284609690823,-257.269145362394 219.069219381651,-325.192193816525 " style="fill: rgb(14,173,105); fill-opacity: 1; stroke: rgb(0,0,0); stroke-width: 3" />
	<circle cx="258.284609690823" cy="-393.115242270655" r="2" style="fill: rgb(0,0,0)" />
	<circle cx="336.715390309167" cy="-393.115242270655" r="2" style="fill: rgb(0,0,0)" />
	<circle cx="375.93078061834" cy="-461.038290724786" r="2" style="fill: rgb(0,0,0)" />
	<circle cx="336.715390309168" cy="-528.961339178916" r="2" style="fill: rgb(0,0,0)" />
	<circle cx="258.284609690823" cy="-528.961339178916" r="2" style="fill: rgb(0,0,0)" />
	<circle cx="219.06921938165" cy="-461.038290724785" r="2" style="fill: rgb(0,0,0)" />
	<circle cx="219.069219381651" cy="-325.192193816525" r="2" style="fill: rgb(0,0,0)" />
	<circle cx="258.284609690823" cy="-257.269145362394" r="2" style="fill: rgb(0,0,0)" />
	<circle cx="336.715390309167" cy="-257.269145362394" r="2" style="fill: rgb(0,0,0)" />
	<circle cx="375.930780618339" cy="-325.192193816525" r="2" style="fill: rgb(0,0,0)" />
	<circle cx="151.146170927515" cy="-421.822900415615" r="2" style="fill: rgb(0,0,0)" />
	<circle cx="190.361561236678" cy="-353.899851961487" r="2" style="fill: rgb(0,0,0)" />
	<circle cx="336.715390309173" cy="-607.392119797268" r="2" style="fill: rgb(0,0,0)" />
	<circle cx="258.284609690834" cy="-607.392119797271" r="2" style="fill: rgb(0,0,0)" />
	<circle cx="219.069219381651" cy="-596.884387633048" r="2" style="fill: rgb(0,0,0)" />
	<circle cx="140.638438763307" cy="-596.884387633048" r="2" style="fill: rgb(0,0,0)" />
	<circle cx="101.423048454134" cy="-528.961339178916" r="2" style="fill: rgb(0,0,0)" />
	<circle cx="140.638438763306" cy="-461.038290724784" r="2" style="fill: rgb(0,0,0)" />
	<circle cx="454.361561236685" cy="-461.038290724786" r="2" style="fill: rgb(0,0,0)" />
	<circle cx="493.576951545858" cy="-528.961339178916" r="2" style="fill: rgb(0,0,0)" />
	<circle cx="454.361561236685" cy="-596.884387633046" r="2" style="fill: rgb(0,0,0)" />
	<circle cx="375.93078061834" cy="-596.884387633046" r="2" style="fill: rgb(0,0,0)" />
	<circle cx="404.638438763302" cy="-353.899851961479" r="2" style="fill: rgb(0,0,0)" />
	<circle cx="443.853829072474" cy="-421.822900415598" r="2" style="fill: rgb(0,0,0)" />
	<circle cx="375.93078061834" cy="-189.346096908263" r="2" style="fill: rgb(0,0,0)" />
	<circle cx="454.361561236684" cy="-189.346096908263" r="2" style="fill: rgb(0,0,0)" />
	<circle cx="493.576951545856" cy="-257.269145362394" r="2" style="fill: rgb(0,0,0)" />
	<circle cx="454.361561236683" cy="-325.192193816526" r="2" style="fill: rgb(0,0,0)" />
	<circle cx="258.284609690821" cy="-178.838364744042" r="2" style="fill: rgb(0,0,0)" />
	<circle cx="336.715390309156" cy="-178.838364744039" r="2" style="fill: rgb(0,0,0)" />
	<circle cx="140.638438763306" cy="-325.192193816524" r="2" style="fill: rgb(0,0,0)" />
	<circle cx="101.423048454134" cy="-257.269145362394" r="2" style="fill: rgb(0,0,0)" />
	<circle cx="140.638438763306" cy="-189.346096908264" r="2" style="fill: rgb(0,0,0)" />
	<circle cx="219.069219381651" cy="-189.346096908265" r="2" style="fill: rgb(0,0,0)" />
	<circle cx="375.930780618345" cy="-675.315168251401" r="2" style="fill: rgb(0,0,0)" />
	<circle cx="336.715390309179" cy="-743.238216705534" r="2" style="fill: rgb(0,0,0)" />
	<circle cx="258.28460969084" cy="-743.238216705534" r="2" style="fill: rgb(0,0,0)" />
	<circle cx="219.069219381667" cy="-675.315168251402" r="2" style="fill: rgb(0,0,0)" />
	<circle cx="72.7153903091704" cy="-636.09977794223" r="2" style="fill: rgb(0,0,0)" />
	<circle cx="33.5" cy="-568.176729488103" r="2" style="fill: rgb(0,0,0)" />
	<circle cx="561.5" cy="-568.176729488094" r="2" style="fill: rgb(0,0,0)" />
	<circle cx="522.28460969083" cy="-636.099777942215" r="2" style="fill: rgb(0,0,0)" />
	<circle cx="336.715390309169" cy="-121.423048454131" r="2" style="fill: rgb(0,0,0)" />
	<circle cx="375.930780618341" cy="-53.5" r="2" style="fill: rgb(0,0,0)" />
	<circle cx="454.361561236685" cy="-53.5000000000019" r="2" style="fill: rgb(0,0,0)" />
	<circle cx="493.576951545856" cy="-121.423048454134" r="2" style="fill: rgb(0,0,0)" />
	<!--
	Generated using the Perl SVG Module V2.87
	by Ronan Oger

	-->
</svg>