<?xml version="1.0" encoding="UTF-8" standalone="yes"?>
<!DOCTYPE svg PUBLIC "-//W3C//DTD SVG 1.0//EN" "http://www.w3.org/TR/2001/REC-SVG-20010904/DTD/svg10.dtd">
<!-- generated using polymake; Michael Joswig, Georg Loho, Benjamin Lorenz, Rico Raber; license CC BY-NC-ND 3.0; see polymake.org and matchthenet.de -->
<svg height="841pt" id="document" viewBox="0 -710.280177969482 572 710.280177969482" width="595pt" xmlns="http://www.w3.org/2000/svg" xmlns:svg="http://www.w3.org/2000/svg" xmlns:xlink="http://www.w3.org/1999/xlink">
	<title id="document_title">planar_net_</title>
	<polygon points="273.612287243274,-363.929572123852 300.106690496891,-363.929572123852 313.353892123702,-386.874398399595 300.106690496905,-409.819224675344 273.612287243293,-409.819224675347 260.365085616478,-386.874398399602 " style="fill: rgb(238,66,102); fill-opacity: 1; stroke: rgb(0,0,0); stroke-width: 3" />
	<polygon points="208.534211665582,-270.460349482545 184.3303699203,-281.236594122233 173.554125280602,-257.032752376941 197.757967025875,-246.256507737252 " style="fill: rgb(67,184,206); fill-opacity: 1; stroke: rgb(0,0,0); stroke-width: 3" />
	<polygon points="300.106690496878,-337.435168870222 300.106690496891,-363.929572123852 273.612287243274,-363.929572123852 273.612287243271,-337.435168870231 " style="fill: rgb(67,184,206); fill-opacity: 1; stroke: rgb(0,0,0); stroke-width: 3" />
	<polygon points="313.353892123702,-386.874398399595 300.106690496891,-363.929572123852 302.876109754184,-337.580307983413 320.604325868393,-317.891129301374 346.519762843793,-312.382633123705 370.723604589088,-323.158877763377 383.970806215899,-346.103704039119 381.201386958607,-372.452968179559 363.473170844398,-392.142146861598 337.557733868997,-397.650643039267 " style="fill: rgb(136,136,136); fill-opacity: 1; stroke: rgb(0,0,0); stroke-width: 3" />
	<polygon points="260.365085616478,-386.874398399602 273.612287243293,-409.819224675347 250.667460967552,-423.066426302165 237.420259340734,-400.121600026432 " style="fill: rgb(67,184,206); fill-opacity: 1; stroke: rgb(0,0,0); stroke-width: 3" />
	<polygon points="313.353892123662,-314.490342594463 300.106690496878,-337.435168870222 273.612287243271,-337.435168870231 260.36508561646,-314.490342594488 273.612287243247,-291.54551631873 300.106690496848,-291.545516318717 " style="fill: rgb(238,66,102); fill-opacity: 1; stroke: rgb(0,0,0); stroke-width: 3" />
	<polygon points="346.519762843793,-312.382633123705 320.604325868393,-317.891129301374 315.095829690722,-291.975692325969 341.011266666109,-286.467196148295 " style="fill: rgb(67,184,206); fill-opacity: 1; stroke: rgb(0,0,0); stroke-width: 3" />
	<polygon points="273.612287243274,-363.929572123852 260.365085616478,-386.874398399602 236.161243871191,-397.650643039289 210.245806895786,-392.142146861639 192.517590781563,-372.452968179614 189.748171524251,-346.103704039179 202.995373151046,-323.15887776343 227.199214896334,-312.382633123742 253.114651871739,-317.891129301392 270.842867985962,-337.580307983417 " style="fill: rgb(136,136,136); fill-opacity: 1; stroke: rgb(0,0,0); stroke-width: 3" />
	<polygon points="321.541112984925,-475.78759389553 329.728333846104,-450.589919035819 354.926008705819,-458.777139896999 346.738787844651,-483.974814756699 " style="fill: rgb(67,184,206); fill-opacity: 1; stroke: rgb(0,0,0); stroke-width: 3" />
	<polygon points="300.106690496905,-409.819224675344 313.353892123702,-386.874398399595 336.298718399457,-400.121600026393 323.051516772672,-423.066426302136 " style="fill: rgb(67,184,206); fill-opacity: 1; stroke: rgb(0,0,0); stroke-width: 3" />
	<polygon points="202.995373151046,-323.15887776343 189.748171524251,-346.103704039179 166.803345248493,-332.856502412383 180.050546875278,-309.91167613664 " style="fill: rgb(67,184,206); fill-opacity: 1; stroke: rgb(0,0,0); stroke-width: 3" />
	<polygon points="167.282202997592,-523.907455718579 145.847780509626,-539.480475219381 121.643938764339,-528.704230579739 118.874519507018,-502.354966439295 140.308941994982,-486.781946938493 164.512783740274,-497.558191578138 " style="fill: rgb(238,66,102); fill-opacity: 1; stroke: rgb(0,0,0); stroke-width: 3" />
	<polygon points="337.557733868997,-397.650643039267 363.473170844398,-392.142146861598 381.201386958612,-411.831325543636 373.014166097434,-437.029000403345 347.098729122039,-442.537496581015 329.370513007821,-422.848317898976 " style="fill: rgb(238,66,102); fill-opacity: 1; stroke: rgb(0,0,0); stroke-width: 3" />
	<polygon points="370.723604589088,-323.158877763377 346.519762843793,-312.382633123705 343.750343586497,-286.033368983264 365.184766074489,-270.460349482486 389.388607819779,-281.236594122153 392.158027077078,-307.585858262598 " style="fill: rgb(238,66,102); fill-opacity: 1; stroke: rgb(0,0,0); stroke-width: 3" />
	<polygon points="273.612287243293,-409.819224675347 300.106690496905,-409.819224675344 321.541112984905,-425.39224417611 329.728333846104,-450.589919035819 321.541112984925,-475.78759389553 300.106690496938,-491.360613396302 273.612287243327,-491.360613396305 252.177864755326,-475.787593895539 243.990643894127,-450.58991903583 252.177864755306,-425.39224417612 " style="fill: rgb(136,136,136); fill-opacity: 1; stroke: rgb(0,0,0); stroke-width: 3" />
	<polygon points="300.106690496848,-291.545516318717 273.612287243247,-291.54551631873 252.177864755247,-275.972496817964 243.990643894038,-250.774821958246 252.177864755199,-225.57714709852 273.612287243169,-210.004127597732 300.106690496769,-210.004127597719 321.541112984769,-225.577147098486 329.728333845979,-250.774821958204 321.541112984818,-275.97249681793 " style="fill: rgb(136,136,136); fill-opacity: 1; stroke: rgb(0,0,0); stroke-width: 3" />
	<polygon points="253.114651871739,-317.891129301392 227.199214896334,-312.382633123742 232.707711073979,-286.467196148332 258.623148049378,-291.975692325973 " style="fill: rgb(67,184,206); fill-opacity: 1; stroke: rgb(0,0,0); stroke-width: 3" />
	<polygon points="250.667460967552,-423.066426302165 237.420259340753,-446.011252577916 210.925856087137,-446.011252577944 197.678654460319,-423.066426302217 210.925856087118,-400.121600026462 237.420259340734,-400.121600026432 " style="fill: rgb(238,66,102); fill-opacity: 1; stroke: rgb(0,0,0); stroke-width: 3" />
	<polygon points="381.201386958607,-372.452968179559 383.970806215899,-346.103704039119 408.174647961195,-335.327459399443 429.609070449203,-350.900478900197 426.839651191913,-377.249743040632 402.635809446615,-388.025987680312 " style="fill: rgb(238,66,102); fill-opacity: 1; stroke: rgb(0,0,0); stroke-width: 3" />
	<polygon points="243.990643894127,-450.58991903583 252.177864755326,-475.787593895539 226.98018989562,-483.974814756745 218.792969034416,-458.777139897044 " style="fill: rgb(67,184,206); fill-opacity: 1; stroke: rgb(0,0,0); stroke-width: 3" />
	<polygon points="383.970806215899,-346.103704039119 370.723604589088,-323.158877763377 393.668430864836,-309.911676136561 406.915632491645,-332.856502412291 " style="fill: rgb(67,184,206); fill-opacity: 1; stroke: rgb(0,0,0); stroke-width: 3" />
	<polygon points="363.473170844398,-392.142146861598 381.201386958607,-372.452968179559 400.890565640655,-390.181184293768 383.162349526455,-409.870362975805 " style="fill: rgb(67,184,206); fill-opacity: 1; stroke: rgb(0,0,0); stroke-width: 3" />
	<polygon points="252.177864755326,-475.787593895539 273.612287243327,-491.360613396305 270.842867986034,-517.709877536748 246.639026240745,-528.486122176433 225.204603752747,-512.913102675671 227.974023010038,-486.563838535224 " style="fill: rgb(238,66,102); fill-opacity: 1; stroke: rgb(0,0,0); stroke-width: 3" />
	<polygon points="273.612287243169,-210.004127597732 252.177864755199,-225.57714709852 227.974023009888,-214.800902458876 225.204603752538,-188.451638318449 246.639026240502,-172.878618817664 270.842867985816,-183.654863457307 " style="fill: rgb(238,66,102); fill-opacity: 1; stroke: rgb(0,0,0); stroke-width: 3" />
	<polygon points="189.748171524251,-346.103704039179 192.517590781563,-372.452968179614 171.083168293571,-388.025987680397 146.879326548265,-377.249743040754 144.109907290952,-350.900478900324 165.544329778945,-335.327459399538 " style="fill: rgb(238,66,102); fill-opacity: 1; stroke: rgb(0,0,0); stroke-width: 3" />
	<polygon points="227.199214896334,-312.382633123742 202.995373151046,-323.15887776343 181.560950663034,-307.585858262675 184.3303699203,-281.236594122233 208.534211665582,-270.460349482545 229.968634153598,-286.0333689833 " style="fill: rgb(238,66,102); fill-opacity: 1; stroke: rgb(0,0,0); stroke-width: 3" />
	<polygon points="192.517590781563,-372.452968179614 210.245806895786,-392.142146861639 190.556628213757,-409.870362975868 172.828412099537,-390.181184293856 " style="fill: rgb(67,184,206); fill-opacity: 1; stroke: rgb(0,0,0); stroke-width: 3" />
	<polygon points="402.635809446603,-396.258306042858 429.130212700222,-396.258306042842 450.564635188232,-411.831325543595 458.751856049437,-437.029000403294 450.56463518826,-462.226675263002 429.130212700268,-477.79969476378 402.635809446649,-477.799694763796 381.20138695864,-462.226675263043 373.014166097434,-437.029000403345 381.201386958612,-411.831325543636 " style="fill: rgb(136,136,136); fill-opacity: 1; stroke: rgb(0,0,0); stroke-width: 3" />
	<polygon points="389.388607819779,-281.236594122153 365.184766074489,-270.460349482486 375.961010714162,-246.256507737182 400.164852459442,-257.032752376841 " style="fill: rgb(67,184,206); fill-opacity: 1; stroke: rgb(0,0,0); stroke-width: 3" />
	<polygon points="392.158027077078,-307.585858262598 389.388607819779,-281.236594122153 402.635809446585,-258.291767846409 426.839651191879,-247.515523206737 452.755088167281,-253.024019384407 470.483304281494,-272.71319806645 473.252723538793,-299.062462206894 460.005521911987,-322.007288482639 435.801680166694,-332.783533122311 409.886243191291,-327.275036944641 " style="fill: rgb(136,136,136); fill-opacity: 1; stroke: rgb(0,0,0); stroke-width: 3" />
	<polygon points="208.156436829857,-472.360516718385 190.428220715664,-492.049695400442 164.512783740274,-497.558191578138 140.308941994982,-486.781946938493 127.061740368164,-463.837120662766 129.831159625444,-437.487856522325 147.559375739637,-417.798677840268 173.474812715027,-412.290181662572 197.678654460319,-423.066426302217 210.925856087137,-446.011252577944 " style="fill: rgb(136,136,136); fill-opacity: 1; stroke: rgb(0,0,0); stroke-width: 3" />
	<polygon points="300.106690496938,-491.360613396302 321.541112984925,-475.78759389553 345.744954730227,-486.563838535193 348.51437398755,-512.913102675626 327.079951499569,-528.486122176396 302.876109754263,-517.709877536733 " style="fill: rgb(238,66,102); fill-opacity: 1; stroke: rgb(0,0,0); stroke-width: 3" />
	<polygon points="166.803345248493,-332.856502412383 142.599503503208,-343.632747052076 116.684066527796,-338.124250874441 98.9558504135599,-318.435072192435 96.1864311562339,-292.085808052014 109.433632783018,-269.140981776271 133.637474528304,-258.364737136578 159.552911503716,-263.873233314213 177.281127617952,-283.562411996219 180.050546875278,-309.91167613664 " style="fill: rgb(136,136,136); fill-opacity: 1; stroke: rgb(0,0,0); stroke-width: 3" />
	<polygon points="450.56463518826,-462.226675263002 458.751856049437,-437.029000403294 483.949530909159,-445.216221264472 475.762310047985,-470.41389612417 " style="fill: rgb(67,184,206); fill-opacity: 1; stroke: rgb(0,0,0); stroke-width: 3" />
	<polygon points="279.804896960515,-98.3868535417389 253.889459985114,-103.895349719438 236.161243870879,-84.2061710374176 244.348464732034,-59.0084961776978 270.263901707429,-53.5 287.992117821668,-73.1891786820221 " style="fill: rgb(238,66,102); fill-opacity: 1; stroke: rgb(0,0,0); stroke-width: 3" />
	<polygon points="129.831159625444,-437.487856522325 127.061740368164,-463.837120662766 102.857898622873,-474.613365302456 81.4234761348576,-459.040345801712 84.1928953921351,-432.691081661274 108.396737137429,-421.914837021581 " style="fill: rgb(238,66,102); fill-opacity: 1; stroke: rgb(0,0,0); stroke-width: 3" />
	<polygon points="270.842867985816,-183.654863457307 246.639026240502,-172.878618817664 233.391824613662,-149.933792541939 236.161243870924,-123.584528401498 253.889459985114,-103.895349719438 279.804896960515,-98.3868535417389 304.008738705828,-109.163098181381 317.255940332669,-132.107924457106 314.486521075406,-158.457188597548 296.758304961216,-178.146367279607 " style="fill: rgb(136,136,136); fill-opacity: 1; stroke: rgb(0,0,0); stroke-width: 3" />
	<polygon points="273.612287243327,-491.360613396305 300.106690496938,-491.360613396302 300.106690496942,-517.855016649929 273.61228724334,-517.855016649936 " style="fill: rgb(67,184,206); fill-opacity: 1; stroke: rgb(0,0,0); stroke-width: 3" />
	<polygon points="470.483304281494,-272.71319806645 452.755088167281,-253.024019384407 460.942309028474,-227.826344524699 486.857746003876,-222.317848347024 504.585962118085,-242.007027029062 496.398741256893,-267.204701888774 " style="fill: rgb(238,66,102); fill-opacity: 1; stroke: rgb(0,0,0); stroke-width: 3" />
	<polygon points="426.839651191913,-377.249743040632 429.609070449203,-350.900478900197 455.958334589654,-353.669898157485 453.188915332367,-380.019162297911 " style="fill: rgb(67,184,206); fill-opacity: 1; stroke: rgb(0,0,0); stroke-width: 3" />
	<polygon points="468.292851302432,-392.142146861546 494.208288277838,-397.650643039183 502.395509139042,-422.848317898875 484.667293024841,-442.537496580928 458.751856049437,-437.029000403294 450.564635188232,-411.831325543595 " style="fill: rgb(238,66,102); fill-opacity: 1; stroke: rgb(0,0,0); stroke-width: 3" />
	<polygon points="321.541112984769,-225.577147098486 300.106690496769,-210.004127597719 302.876109754062,-183.654863457276 327.079951499351,-172.878618817591 348.514373987348,-188.451638318354 345.744954730057,-214.800902458801 " style="fill: rgb(238,66,102); fill-opacity: 1; stroke: rgb(0,0,0); stroke-width: 3" />
	<polygon points="109.433632783018,-269.140981776271 96.1864311562339,-292.085808052014 69.6920279026119,-292.085808052036 56.4448262757674,-269.140981776321 69.6920279025482,-246.196155500583 96.186431156174,-246.196155500559 " style="fill: rgb(238,66,102); fill-opacity: 1; stroke: rgb(0,0,0); stroke-width: 3" />
	<polygon points="300.106690496769,-210.004127597719 273.612287243169,-210.004127597732 273.612287243166,-183.509724344104 300.106690496756,-183.509724344089 " style="fill: rgb(67,184,206); fill-opacity: 1; stroke: rgb(0,0,0); stroke-width: 3" />
	<polygon points="225.204603752747,-512.913102675671 246.639026240745,-528.486122176433 231.066006739979,-549.920544664446 209.631584251986,-534.347525163691 " style="fill: rgb(67,184,206); fill-opacity: 1; stroke: rgb(0,0,0); stroke-width: 3" />
	<polygon points="144.109907290952,-350.900478900324 146.879326548265,-377.249743040754 120.530062407819,-380.019162298071 117.760643150504,-353.669898157652 " style="fill: rgb(67,184,206); fill-opacity: 1; stroke: rgb(0,0,0); stroke-width: 3" />
	<polygon points="429.130212700268,-477.79969476378 450.56463518826,-462.226675263002 474.768476933564,-473.002919902663 477.537896190885,-499.352184043099 456.103473702898,-514.925203543876 431.899631957589,-504.148958904215 " style="fill: rgb(238,66,102); fill-opacity: 1; stroke: rgb(0,0,0); stroke-width: 3" />
	<polygon points="327.079951499569,-528.486122176396 348.51437398755,-512.913102675626 364.087393488335,-534.347525163626 342.652971000364,-549.92054466439 " style="fill: rgb(67,184,206); fill-opacity: 1; stroke: rgb(0,0,0); stroke-width: 3" />
	<polygon points="296.758304961436,-523.218373714403 314.486521075657,-542.907552396432 317.255940332967,-569.25681653687 304.008738706171,-592.201642812618 279.804896960884,-602.977887452302 253.88945998548,-597.469391274648 236.161243871259,-577.780212592619 233.39182461395,-551.430948452181 246.639026240745,-528.486122176433 270.842867986034,-517.709877536748 " style="fill: rgb(136,136,136); fill-opacity: 1; stroke: rgb(0,0,0); stroke-width: 3" />
	<polygon points="127.061740368164,-463.837120662766 140.308941994982,-486.781946938493 117.36411571924,-500.029148565325 104.116914092425,-477.084322289607 " style="fill: rgb(67,184,206); fill-opacity: 1; stroke: rgb(0,0,0); stroke-width: 3" />
	<polygon points="473.252723538793,-299.062462206894 470.483304281494,-272.71319806645 496.832568421945,-269.943778809145 499.601987679243,-296.293042949581 " style="fill: rgb(67,184,206); fill-opacity: 1; stroke: rgb(0,0,0); stroke-width: 3" />
	<polygon points="531.878356650773,-429.643201763667 553.312779138788,-445.2162212644 561.5,-470.41389612408 553.312779138827,-495.611570983777 531.878356650835,-511.184590484555 505.383953397213,-511.184590484583 483.949530909197,-495.61157098385 475.762310047985,-470.41389612417 483.949530909159,-445.216221264472 505.38395339715,-429.643201763694 " style="fill: rgb(136,136,136); fill-opacity: 1; stroke: rgb(0,0,0); stroke-width: 3" />
	<polygon points="279.804896960884,-602.977887452302 304.008738706171,-592.201642812618 314.784983345861,-616.405484557919 290.581141600586,-627.181729197597 " style="fill: rgb(67,184,206); fill-opacity: 1; stroke: rgb(0,0,0); stroke-width: 3" />
	<polygon points="452.755088167281,-253.024019384407 426.839651191879,-247.515523206737 432.348147369553,-221.600086231328 458.263584344941,-227.108582408992 " style="fill: rgb(67,184,206); fill-opacity: 1; stroke: rgb(0,0,0); stroke-width: 3" />
	<polygon points="96.1864311562339,-292.085808052014 98.9558504135599,-318.435072192435 72.6065862731133,-321.204491449764 69.8371670157865,-294.855227309357 " style="fill: rgb(67,184,206); fill-opacity: 1; stroke: rgb(0,0,0); stroke-width: 3" />
	<polygon points="133.637474528304,-258.364737136578 109.433632783018,-269.140981776271 98.6573881433139,-244.93714003098 122.861229888593,-234.160895391287 " style="fill: rgb(67,184,206); fill-opacity: 1; stroke: rgb(0,0,0); stroke-width: 3" />
	<polygon points="244.3484647325,-642.356244816409 270.263901707898,-647.864740994062 264.755405530246,-673.780177969482 238.839968554856,-668.271681791827 " style="fill: rgb(67,184,206); fill-opacity: 1; stroke: rgb(0,0,0); stroke-width: 3" />
	<polygon points="236.161243871259,-577.780212592619 253.88945998548,-597.469391274648 234.200281303451,-615.197607388883 216.472065189231,-595.508428706857 " style="fill: rgb(67,184,206); fill-opacity: 1; stroke: rgb(0,0,0); stroke-width: 3" />
	<polygon points="108.396737137553,-551.649056855494 84.1928953922685,-562.425301495186 58.2774584168612,-556.916805317536 40.5492423026309,-537.227626635507 37.77982304531,-510.878362495064 51.0270246720964,-487.933536219308 75.230866417381,-477.157291579616 101.146303392788,-482.665787757266 118.874519507018,-502.354966439295 121.643938764339,-528.704230579739 " style="fill: rgb(136,136,136); fill-opacity: 1; stroke: rgb(0,0,0); stroke-width: 3" />
	<polygon points="504.585962118085,-242.007027029062 486.857746003876,-222.317848347024 506.546924685923,-204.589632232804 524.275140800124,-224.278810914834 " style="fill: rgb(67,184,206); fill-opacity: 1; stroke: rgb(0,0,0); stroke-width: 3" />
	<polygon points="253.88945998548,-597.469391274648 279.804896960884,-602.977887452302 287.992117822089,-628.175562312007 270.263901707898,-647.864740994062 244.3484647325,-642.356244816409 236.161243871292,-617.158569956701 " style="fill: rgb(238,66,102); fill-opacity: 1; stroke: rgb(0,0,0); stroke-width: 3" />
	<polygon points="69.6920279025482,-246.196155500583 56.4448262757674,-269.140981776321 33.5,-255.893780149529 46.747201626777,-232.948953873799 " style="fill: rgb(67,184,206); fill-opacity: 1; stroke: rgb(0,0,0); stroke-width: 3" />
	<circle cx="273.612287243274" cy="-363.929572123852" r="2" style="fill: rgb(0,0,0)" />
	<circle cx="300.106690496891" cy="-363.929572123852" r="2" style="fill: rgb(0,0,0)" />
	<circle cx="313.353892123702" cy="-386.874398399595" r="2" style="fill: rgb(0,0,0)" />
	<circle cx="300.106690496905" cy="-409.819224675344" r="2" style="fill: rgb(0,0,0)" />
	<circle cx="273.612287243293" cy="-409.819224675347" r="2" style="fill: rgb(0,0,0)" />
	<circle cx="260.365085616478" cy="-386.874398399602" r="2" style="fill: rgb(0,0,0)" />
	<circle cx="273.612287243271" cy="-337.435168870231" r="2" style="fill: rgb(0,0,0)" />
	<circle cx="300.106690496878" cy="-337.435168870222" r="2" style="fill: rgb(0,0,0)" />
	<circle cx="302.876109754184" cy="-337.580307983413" r="2" style="fill: rgb(0,0,0)" />
	<circle cx="320.604325868393" cy="-317.891129301374" r="2" style="fill: rgb(0,0,0)" />
	<circle cx="346.519762843793" cy="-312.382633123705" r="2" style="fill: rgb(0,0,0)" />
	<circle cx="370.723604589088" cy="-323.158877763377" r="2" style="fill: rgb(0,0,0)" />
	<circle cx="383.970806215899" cy="-346.103704039119" r="2" style="fill: rgb(0,0,0)" />
	<circle cx="381.201386958607" cy="-372.452968179559" r="2" style="fill: rgb(0,0,0)" />
	<circle cx="363.473170844398" cy="-392.142146861598" r="2" style="fill: rgb(0,0,0)" />
	<circle cx="337.557733868997" cy="-397.650643039267" r="2" style="fill: rgb(0,0,0)" />
	<circle cx="250.667460967552" cy="-423.066426302165" r="2" style="fill: rgb(0,0,0)" />
	<circle cx="237.420259340734" cy="-400.121600026432" r="2" style="fill: rgb(0,0,0)" />
	<circle cx="236.161243871191" cy="-397.650643039289" r="2" style="fill: rgb(0,0,0)" />
	<circle cx="210.245806895786" cy="-392.142146861639" r="2" style="fill: rgb(0,0,0)" />
	<circle cx="192.517590781563" cy="-372.452968179614" r="2" style="fill: rgb(0,0,0)" />
	<circle cx="189.748171524251" cy="-346.103704039179" r="2" style="fill: rgb(0,0,0)" />
	<circle cx="202.995373151046" cy="-323.15887776343" r="2" style="fill: rgb(0,0,0)" />
	<circle cx="227.199214896334" cy="-312.382633123742" r="2" style="fill: rgb(0,0,0)" />
	<circle cx="253.114651871739" cy="-317.891129301392" r="2" style="fill: rgb(0,0,0)" />
	<circle cx="270.842867985962" cy="-337.580307983417" r="2" style="fill: rgb(0,0,0)" />
	<circle cx="336.298718399457" cy="-400.121600026393" r="2" style="fill: rgb(0,0,0)" />
	<circle cx="323.051516772672" cy="-423.066426302136" r="2" style="fill: rgb(0,0,0)" />
	<circle cx="321.541112984905" cy="-425.39224417611" r="2" style="fill: rgb(0,0,0)" />
	<circle cx="329.728333846104" cy="-450.589919035819" r="2" style="fill: rgb(0,0,0)" />
	<circle cx="321.541112984925" cy="-475.78759389553" r="2" style="fill: rgb(0,0,0)" />
	<circle cx="300.106690496938" cy="-491.360613396302" r="2" style="fill: rgb(0,0,0)" />
	<circle cx="273.612287243327" cy="-491.360613396305" r="2" style="fill: rgb(0,0,0)" />
	<circle cx="252.177864755326" cy="-475.787593895539" r="2" style="fill: rgb(0,0,0)" />
	<circle cx="243.990643894127" cy="-450.58991903583" r="2" style="fill: rgb(0,0,0)" />
	<circle cx="252.177864755306" cy="-425.39224417612" r="2" style="fill: rgb(0,0,0)" />
	<circle cx="260.36508561646" cy="-314.490342594488" r="2" style="fill: rgb(0,0,0)" />
	<circle cx="273.612287243247" cy="-291.54551631873" r="2" style="fill: rgb(0,0,0)" />
	<circle cx="300.106690496848" cy="-291.545516318717" r="2" style="fill: rgb(0,0,0)" />
	<circle cx="313.353892123662" cy="-314.490342594463" r="2" style="fill: rgb(0,0,0)" />
	<circle cx="315.095829690722" cy="-291.975692325969" r="2" style="fill: rgb(0,0,0)" />
	<circle cx="341.011266666109" cy="-286.467196148295" r="2" style="fill: rgb(0,0,0)" />
	<circle cx="381.201386958612" cy="-411.831325543636" r="2" style="fill: rgb(0,0,0)" />
	<circle cx="373.014166097434" cy="-437.029000403345" r="2" style="fill: rgb(0,0,0)" />
	<circle cx="347.098729122039" cy="-442.537496581015" r="2" style="fill: rgb(0,0,0)" />
	<circle cx="329.370513007821" cy="-422.848317898976" r="2" style="fill: rgb(0,0,0)" />
	<circle cx="343.750343586497" cy="-286.033368983264" r="2" style="fill: rgb(0,0,0)" />
	<circle cx="365.184766074489" cy="-270.460349482486" r="2" style="fill: rgb(0,0,0)" />
	<circle cx="389.388607819779" cy="-281.236594122153" r="2" style="fill: rgb(0,0,0)" />
	<circle cx="392.158027077078" cy="-307.585858262598" r="2" style="fill: rgb(0,0,0)" />
	<circle cx="408.174647961195" cy="-335.327459399443" r="2" style="fill: rgb(0,0,0)" />
	<circle cx="429.609070449203" cy="-350.900478900197" r="2" style="fill: rgb(0,0,0)" />
	<circle cx="426.839651191913" cy="-377.249743040632" r="2" style="fill: rgb(0,0,0)" />
	<circle cx="402.635809446615" cy="-388.025987680312" r="2" style="fill: rgb(0,0,0)" />
	<circle cx="393.668430864836" cy="-309.911676136561" r="2" style="fill: rgb(0,0,0)" />
	<circle cx="406.915632491645" cy="-332.856502412291" r="2" style="fill: rgb(0,0,0)" />
	<circle cx="400.890565640655" cy="-390.181184293768" r="2" style="fill: rgb(0,0,0)" />
	<circle cx="383.162349526455" cy="-409.870362975805" r="2" style="fill: rgb(0,0,0)" />
	<circle cx="237.420259340753" cy="-446.011252577916" r="2" style="fill: rgb(0,0,0)" />
	<circle cx="210.925856087137" cy="-446.011252577944" r="2" style="fill: rgb(0,0,0)" />
	<circle cx="197.678654460319" cy="-423.066426302217" r="2" style="fill: rgb(0,0,0)" />
	<circle cx="210.925856087118" cy="-400.121600026462" r="2" style="fill: rgb(0,0,0)" />
	<circle cx="166.803345248493" cy="-332.856502412383" r="2" style="fill: rgb(0,0,0)" />
	<circle cx="180.050546875278" cy="-309.91167613664" r="2" style="fill: rgb(0,0,0)" />
	<circle cx="232.707711073979" cy="-286.467196148332" r="2" style="fill: rgb(0,0,0)" />
	<circle cx="258.623148049378" cy="-291.975692325973" r="2" style="fill: rgb(0,0,0)" />
	<circle cx="171.083168293571" cy="-388.025987680397" r="2" style="fill: rgb(0,0,0)" />
	<circle cx="146.879326548265" cy="-377.249743040754" r="2" style="fill: rgb(0,0,0)" />
	<circle cx="144.109907290952" cy="-350.900478900324" r="2" style="fill: rgb(0,0,0)" />
	<circle cx="165.544329778945" cy="-335.327459399538" r="2" style="fill: rgb(0,0,0)" />
	<circle cx="181.560950663034" cy="-307.585858262675" r="2" style="fill: rgb(0,0,0)" />
	<circle cx="184.3303699203" cy="-281.236594122233" r="2" style="fill: rgb(0,0,0)" />
	<circle cx="208.534211665582" cy="-270.460349482545" r="2" style="fill: rgb(0,0,0)" />
	<circle cx="229.968634153598" cy="-286.0333689833" r="2" style="fill: rgb(0,0,0)" />
	<circle cx="190.556628213757" cy="-409.870362975868" r="2" style="fill: rgb(0,0,0)" />
	<circle cx="172.828412099537" cy="-390.181184293856" r="2" style="fill: rgb(0,0,0)" />
	<circle cx="354.926008705819" cy="-458.777139896999" r="2" style="fill: rgb(0,0,0)" />
	<circle cx="346.738787844651" cy="-483.974814756699" r="2" style="fill: rgb(0,0,0)" />
	<circle cx="226.98018989562" cy="-483.974814756745" r="2" style="fill: rgb(0,0,0)" />
	<circle cx="218.792969034416" cy="-458.777139897044" r="2" style="fill: rgb(0,0,0)" />
	<circle cx="270.842867986034" cy="-517.709877536748" r="2" style="fill: rgb(0,0,0)" />
	<circle cx="246.639026240745" cy="-528.486122176433" r="2" style="fill: rgb(0,0,0)" />
	<circle cx="225.204603752747" cy="-512.913102675671" r="2" style="fill: rgb(0,0,0)" />
	<circle cx="227.974023010038" cy="-486.563838535224" r="2" style="fill: rgb(0,0,0)" />
	<circle cx="345.744954730227" cy="-486.563838535193" r="2" style="fill: rgb(0,0,0)" />
	<circle cx="348.51437398755" cy="-512.913102675626" r="2" style="fill: rgb(0,0,0)" />
	<circle cx="327.079951499569" cy="-528.486122176396" r="2" style="fill: rgb(0,0,0)" />
	<circle cx="302.876109754263" cy="-517.709877536733" r="2" style="fill: rgb(0,0,0)" />
	<circle cx="300.106690496942" cy="-517.855016649929" r="2" style="fill: rgb(0,0,0)" />
	<circle cx="273.61228724334" cy="-517.855016649936" r="2" style="fill: rgb(0,0,0)" />
	<circle cx="252.177864755247" cy="-275.972496817964" r="2" style="fill: rgb(0,0,0)" />
	<circle cx="243.990643894038" cy="-250.774821958246" r="2" style="fill: rgb(0,0,0)" />
	<circle cx="252.177864755199" cy="-225.57714709852" r="2" style="fill: rgb(0,0,0)" />
	<circle cx="273.612287243169" cy="-210.004127597732" r="2" style="fill: rgb(0,0,0)" />
	<circle cx="300.106690496769" cy="-210.004127597719" r="2" style="fill: rgb(0,0,0)" />
	<circle cx="321.541112984769" cy="-225.577147098486" r="2" style="fill: rgb(0,0,0)" />
	<circle cx="329.728333845979" cy="-250.774821958204" r="2" style="fill: rgb(0,0,0)" />
	<circle cx="321.541112984818" cy="-275.97249681793" r="2" style="fill: rgb(0,0,0)" />
	<circle cx="402.635809446603" cy="-396.258306042858" r="2" style="fill: rgb(0,0,0)" />
	<circle cx="429.130212700222" cy="-396.258306042842" r="2" style="fill: rgb(0,0,0)" />
	<circle cx="450.564635188232" cy="-411.831325543595" r="2" style="fill: rgb(0,0,0)" />
	<circle cx="458.751856049437" cy="-437.029000403294" r="2" style="fill: rgb(0,0,0)" />
	<circle cx="450.56463518826" cy="-462.226675263002" r="2" style="fill: rgb(0,0,0)" />
	<circle cx="429.130212700268" cy="-477.79969476378" r="2" style="fill: rgb(0,0,0)" />
	<circle cx="402.635809446649" cy="-477.799694763796" r="2" style="fill: rgb(0,0,0)" />
	<circle cx="381.20138695864" cy="-462.226675263043" r="2" style="fill: rgb(0,0,0)" />
	<circle cx="375.961010714162" cy="-246.256507737182" r="2" style="fill: rgb(0,0,0)" />
	<circle cx="400.164852459442" cy="-257.032752376841" r="2" style="fill: rgb(0,0,0)" />
	<circle cx="402.635809446585" cy="-258.291767846409" r="2" style="fill: rgb(0,0,0)" />
	<circle cx="426.839651191879" cy="-247.515523206737" r="2" style="fill: rgb(0,0,0)" />
	<circle cx="452.755088167281" cy="-253.024019384407" r="2" style="fill: rgb(0,0,0)" />
	<circle cx="470.483304281494" cy="-272.71319806645" r="2" style="fill: rgb(0,0,0)" />
	<circle cx="473.252723538793" cy="-299.062462206894" r="2" style="fill: rgb(0,0,0)" />
	<circle cx="460.005521911987" cy="-322.007288482639" r="2" style="fill: rgb(0,0,0)" />
	<circle cx="435.801680166694" cy="-332.783533122311" r="2" style="fill: rgb(0,0,0)" />
	<circle cx="409.886243191291" cy="-327.275036944641" r="2" style="fill: rgb(0,0,0)" />
	<circle cx="455.958334589654" cy="-353.669898157485" r="2" style="fill: rgb(0,0,0)" />
	<circle cx="453.188915332367" cy="-380.019162297911" r="2" style="fill: rgb(0,0,0)" />
	<circle cx="208.156436829857" cy="-472.360516718385" r="2" style="fill: rgb(0,0,0)" />
	<circle cx="190.428220715664" cy="-492.049695400442" r="2" style="fill: rgb(0,0,0)" />
	<circle cx="164.512783740274" cy="-497.558191578138" r="2" style="fill: rgb(0,0,0)" />
	<circle cx="140.308941994982" cy="-486.781946938493" r="2" style="fill: rgb(0,0,0)" />
	<circle cx="127.061740368164" cy="-463.837120662766" r="2" style="fill: rgb(0,0,0)" />
	<circle cx="129.831159625444" cy="-437.487856522325" r="2" style="fill: rgb(0,0,0)" />
	<circle cx="147.559375739637" cy="-417.798677840268" r="2" style="fill: rgb(0,0,0)" />
	<circle cx="173.474812715027" cy="-412.290181662572" r="2" style="fill: rgb(0,0,0)" />
	<circle cx="142.599503503208" cy="-343.632747052076" r="2" style="fill: rgb(0,0,0)" />
	<circle cx="116.684066527796" cy="-338.124250874441" r="2" style="fill: rgb(0,0,0)" />
	<circle cx="98.9558504135599" cy="-318.435072192435" r="2" style="fill: rgb(0,0,0)" />
	<circle cx="96.1864311562339" cy="-292.085808052014" r="2" style="fill: rgb(0,0,0)" />
	<circle cx="109.433632783018" cy="-269.140981776271" r="2" style="fill: rgb(0,0,0)" />
	<circle cx="133.637474528304" cy="-258.364737136578" r="2" style="fill: rgb(0,0,0)" />
	<circle cx="159.552911503716" cy="-263.873233314213" r="2" style="fill: rgb(0,0,0)" />
	<circle cx="177.281127617952" cy="-283.562411996219" r="2" style="fill: rgb(0,0,0)" />
	<circle cx="120.530062407819" cy="-380.019162298071" r="2" style="fill: rgb(0,0,0)" />
	<circle cx="117.760643150504" cy="-353.669898157652" r="2" style="fill: rgb(0,0,0)" />
	<circle cx="173.554125280602" cy="-257.032752376941" r="2" style="fill: rgb(0,0,0)" />
	<circle cx="197.757967025875" cy="-246.256507737252" r="2" style="fill: rgb(0,0,0)" />
	<circle cx="231.066006739979" cy="-549.920544664446" r="2" style="fill: rgb(0,0,0)" />
	<circle cx="209.631584251986" cy="-534.347525163691" r="2" style="fill: rgb(0,0,0)" />
	<circle cx="296.758304961436" cy="-523.218373714403" r="2" style="fill: rgb(0,0,0)" />
	<circle cx="314.486521075657" cy="-542.907552396432" r="2" style="fill: rgb(0,0,0)" />
	<circle cx="317.255940332967" cy="-569.25681653687" r="2" style="fill: rgb(0,0,0)" />
	<circle cx="304.008738706171" cy="-592.201642812618" r="2" style="fill: rgb(0,0,0)" />
	<circle cx="279.804896960884" cy="-602.977887452302" r="2" style="fill: rgb(0,0,0)" />
	<circle cx="253.88945998548" cy="-597.469391274648" r="2" style="fill: rgb(0,0,0)" />
	<circle cx="236.161243871259" cy="-577.780212592619" r="2" style="fill: rgb(0,0,0)" />
	<circle cx="233.39182461395" cy="-551.430948452181" r="2" style="fill: rgb(0,0,0)" />
	<circle cx="364.087393488335" cy="-534.347525163626" r="2" style="fill: rgb(0,0,0)" />
	<circle cx="342.652971000364" cy="-549.92054466439" r="2" style="fill: rgb(0,0,0)" />
	<circle cx="227.974023009888" cy="-214.800902458876" r="2" style="fill: rgb(0,0,0)" />
	<circle cx="225.204603752538" cy="-188.451638318449" r="2" style="fill: rgb(0,0,0)" />
	<circle cx="246.639026240502" cy="-172.878618817664" r="2" style="fill: rgb(0,0,0)" />
	<circle cx="270.842867985816" cy="-183.654863457307" r="2" style="fill: rgb(0,0,0)" />
	<circle cx="302.876109754062" cy="-183.654863457276" r="2" style="fill: rgb(0,0,0)" />
	<circle cx="327.079951499351" cy="-172.878618817591" r="2" style="fill: rgb(0,0,0)" />
	<circle cx="348.514373987348" cy="-188.451638318354" r="2" style="fill: rgb(0,0,0)" />
	<circle cx="345.744954730057" cy="-214.800902458801" r="2" style="fill: rgb(0,0,0)" />
	<circle cx="273.612287243166" cy="-183.509724344104" r="2" style="fill: rgb(0,0,0)" />
	<circle cx="300.106690496756" cy="-183.509724344089" r="2" style="fill: rgb(0,0,0)" />
	<circle cx="483.949530909159" cy="-445.216221264472" r="2" style="fill: rgb(0,0,0)" />
	<circle cx="475.762310047985" cy="-470.41389612417" r="2" style="fill: rgb(0,0,0)" />
	<circle cx="468.292851302432" cy="-392.142146861546" r="2" style="fill: rgb(0,0,0)" />
	<circle cx="494.208288277838" cy="-397.650643039183" r="2" style="fill: rgb(0,0,0)" />
	<circle cx="502.395509139042" cy="-422.848317898875" r="2" style="fill: rgb(0,0,0)" />
	<circle cx="484.667293024841" cy="-442.537496580928" r="2" style="fill: rgb(0,0,0)" />
	<circle cx="474.768476933564" cy="-473.002919902663" r="2" style="fill: rgb(0,0,0)" />
	<circle cx="477.537896190885" cy="-499.352184043099" r="2" style="fill: rgb(0,0,0)" />
	<circle cx="456.103473702898" cy="-514.925203543876" r="2" style="fill: rgb(0,0,0)" />
	<circle cx="431.899631957589" cy="-504.148958904215" r="2" style="fill: rgb(0,0,0)" />
	<circle cx="460.942309028474" cy="-227.826344524699" r="2" style="fill: rgb(0,0,0)" />
	<circle cx="486.857746003876" cy="-222.317848347024" r="2" style="fill: rgb(0,0,0)" />
	<circle cx="504.585962118085" cy="-242.007027029062" r="2" style="fill: rgb(0,0,0)" />
	<circle cx="496.398741256893" cy="-267.204701888774" r="2" style="fill: rgb(0,0,0)" />
	<circle cx="496.832568421945" cy="-269.943778809145" r="2" style="fill: rgb(0,0,0)" />
	<circle cx="499.601987679243" cy="-296.293042949581" r="2" style="fill: rgb(0,0,0)" />
	<circle cx="432.348147369553" cy="-221.600086231328" r="2" style="fill: rgb(0,0,0)" />
	<circle cx="458.263584344941" cy="-227.108582408992" r="2" style="fill: rgb(0,0,0)" />
	<circle cx="167.282202997592" cy="-523.907455718579" r="2" style="fill: rgb(0,0,0)" />
	<circle cx="145.847780509626" cy="-539.480475219381" r="2" style="fill: rgb(0,0,0)" />
	<circle cx="121.643938764339" cy="-528.704230579739" r="2" style="fill: rgb(0,0,0)" />
	<circle cx="118.874519507018" cy="-502.354966439295" r="2" style="fill: rgb(0,0,0)" />
	<circle cx="102.857898622873" cy="-474.613365302456" r="2" style="fill: rgb(0,0,0)" />
	<circle cx="81.4234761348576" cy="-459.040345801712" r="2" style="fill: rgb(0,0,0)" />
	<circle cx="84.1928953921351" cy="-432.691081661274" r="2" style="fill: rgb(0,0,0)" />
	<circle cx="108.396737137429" cy="-421.914837021581" r="2" style="fill: rgb(0,0,0)" />
	<circle cx="117.36411571924" cy="-500.029148565325" r="2" style="fill: rgb(0,0,0)" />
	<circle cx="104.116914092425" cy="-477.084322289607" r="2" style="fill: rgb(0,0,0)" />
	<circle cx="69.6920279026119" cy="-292.085808052036" r="2" style="fill: rgb(0,0,0)" />
	<circle cx="56.4448262757674" cy="-269.140981776321" r="2" style="fill: rgb(0,0,0)" />
	<circle cx="69.6920279025482" cy="-246.196155500583" r="2" style="fill: rgb(0,0,0)" />
	<circle cx="96.186431156174" cy="-246.196155500559" r="2" style="fill: rgb(0,0,0)" />
	<circle cx="72.6065862731133" cy="-321.204491449764" r="2" style="fill: rgb(0,0,0)" />
	<circle cx="69.8371670157865" cy="-294.855227309357" r="2" style="fill: rgb(0,0,0)" />
	<circle cx="98.6573881433139" cy="-244.93714003098" r="2" style="fill: rgb(0,0,0)" />
	<circle cx="122.861229888593" cy="-234.160895391287" r="2" style="fill: rgb(0,0,0)" />
	<circle cx="314.784983345861" cy="-616.405484557919" r="2" style="fill: rgb(0,0,0)" />
	<circle cx="290.581141600586" cy="-627.181729197597" r="2" style="fill: rgb(0,0,0)" />
	<circle cx="234.200281303451" cy="-615.197607388883" r="2" style="fill: rgb(0,0,0)" />
	<circle cx="216.472065189231" cy="-595.508428706857" r="2" style="fill: rgb(0,0,0)" />
	<circle cx="287.992117822089" cy="-628.175562312007" r="2" style="fill: rgb(0,0,0)" />
	<circle cx="270.263901707898" cy="-647.864740994062" r="2" style="fill: rgb(0,0,0)" />
	<circle cx="244.3484647325" cy="-642.356244816409" r="2" style="fill: rgb(0,0,0)" />
	<circle cx="236.161243871292" cy="-617.158569956701" r="2" style="fill: rgb(0,0,0)" />
	<circle cx="233.391824613662" cy="-149.933792541939" r="2" style="fill: rgb(0,0,0)" />
	<circle cx="236.161243870924" cy="-123.584528401498" r="2" style="fill: rgb(0,0,0)" />
	<circle cx="253.889459985114" cy="-103.895349719438" r="2" style="fill: rgb(0,0,0)" />
	<circle cx="279.804896960515" cy="-98.3868535417389" r="2" style="fill: rgb(0,0,0)" />
	<circle cx="304.008738705828" cy="-109.163098181381" r="2" style="fill: rgb(0,0,0)" />
	<circle cx="317.255940332669" cy="-132.107924457106" r="2" style="fill: rgb(0,0,0)" />
	<circle cx="314.486521075406" cy="-158.457188597548" r="2" style="fill: rgb(0,0,0)" />
	<circle cx="296.758304961216" cy="-178.146367279607" r="2" style="fill: rgb(0,0,0)" />
	<circle cx="505.38395339715" cy="-429.643201763694" r="2" style="fill: rgb(0,0,0)" />
	<circle cx="531.878356650773" cy="-429.643201763667" r="2" style="fill: rgb(0,0,0)" />
	<circle cx="553.312779138788" cy="-445.2162212644" r="2" style="fill: rgb(0,0,0)" />
	<circle cx="561.5" cy="-470.41389612408" r="2" style="fill: rgb(0,0,0)" />
	<circle cx="553.312779138827" cy="-495.611570983777" r="2" style="fill: rgb(0,0,0)" />
	<circle cx="531.878356650835" cy="-511.184590484555" r="2" style="fill: rgb(0,0,0)" />
	<circle cx="505.383953397213" cy="-511.184590484583" r="2" style="fill: rgb(0,0,0)" />
	<circle cx="483.949530909197" cy="-495.61157098385" r="2" style="fill: rgb(0,0,0)" />
	<circle cx="506.546924685923" cy="-204.589632232804" r="2" style="fill: rgb(0,0,0)" />
	<circle cx="524.275140800124" cy="-224.278810914834" r="2" style="fill: rgb(0,0,0)" />
	<circle cx="108.396737137553" cy="-551.649056855494" r="2" style="fill: rgb(0,0,0)" />
	<circle cx="84.1928953922685" cy="-562.425301495186" r="2" style="fill: rgb(0,0,0)" />
	<circle cx="58.2774584168612" cy="-556.916805317536" r="2" style="fill: rgb(0,0,0)" />
	<circle cx="40.5492423026309" cy="-537.227626635507" r="2" style="fill: rgb(0,0,0)" />
	<circle cx="37.77982304531" cy="-510.878362495064" r="2" style="fill: rgb(0,0,0)" />
	<circle cx="51.0270246720964" cy="-487.933536219308" r="2" style="fill: rgb(0,0,0)" />
	<circle cx="75.230866417381" cy="-477.157291579616" r="2" style="fill: rgb(0,0,0)" />
	<circle cx="101.146303392788" cy="-482.665787757266" r="2" style="fill: rgb(0,0,0)" />
	<circle cx="33.5" cy="-255.893780149529" r="2" style="fill: rgb(0,0,0)" />
	<circle cx="46.747201626777" cy="-232.948953873799" r="2" style="fill: rgb(0,0,0)" />
	<circle cx="264.755405530246" cy="-673.780177969482" r="2" style="fill: rgb(0,0,0)" />
	<circle cx="238.839968554856" cy="-668.271681791827" r="2" style="fill: rgb(0,0,0)" />
	<circle cx="236.161243870879" cy="-84.2061710374176" r="2" style="fill: rgb(0,0,0)" />
	<circle cx="244.348464732034" cy="-59.0084961776978" r="2" style="fill: rgb(0,0,0)" />
	<circle cx="270.263901707429" cy="-53.5" r="2" style="fill: rgb(0,0,0)" />
	<circle cx="287.992117821668" cy="-73.1891786820221" r="2" style="fill: rgb(0,0,0)" />
	<!--
	Generated using the Perl SVG Module V2.84
	by Ronan Oger
	Info: http://www.roitsystems.com/
	-->
</svg>