<?xml version="1.0" encoding="UTF-8" standalone="yes"?>
<!DOCTYPE svg PUBLIC "-//W3C//DTD SVG 1.0//EN" "http://www.w3.org/TR/2001/REC-SVG-20010904/DTD/svg10.dtd">
<!-- generated using polymake; Michael Joswig, Georg Loho, Benjamin Lorenz, Rico Raber; license CC BY-NC-SA 3.0; see polymake.org and matchthenet.de -->
<svg height="841pt" id="document" viewBox="0 -647.34710609234 572 647.34710609234" width="595pt" xmlns="http://www.w3.org/2000/svg" xmlns:svg="http://www.w3.org/2000/svg" xmlns:xlink="http://www.w3.org/1999/xlink">
	<title id="document_title">planar_net_</title>
	<polygon points="292.16383119747,-329.409952759942 331.459448643602,-329.409952759942 311.811639920536,-363.440955725688 " style="fill: rgb(14,173,105); fill-opacity: 1; stroke: rgb(0,0,0); stroke-width: 3" />
	<polygon points="363.25027096198,-306.312568345379 331.459448643602,-329.409952759942 292.16383119747,-329.409952759942 260.373008879093,-306.312568345379 248.229995283781,-268.940215311394 260.373008879092,-231.567862277408 292.16383119747,-208.470477862845 331.459448643602,-208.470477862845 363.250270961979,-231.567862277408 375.393284557291,-268.940215311394 " style="fill: rgb(136,136,136); fill-opacity: 1; stroke: rgb(0,0,0); stroke-width: 3" />
	<polygon points="401.687184886268,-298.142550080426 363.25027096198,-306.312568345379 375.393284557291,-268.940215311394 " style="fill: rgb(14,173,105); fill-opacity: 1; stroke: rgb(0,0,0); stroke-width: 3" />
	<polygon points="260.373008879093,-306.312568345379 221.936094954805,-298.142550080426 248.229995283781,-268.940215311394 " style="fill: rgb(14,173,105); fill-opacity: 1; stroke: rgb(0,0,0); stroke-width: 3" />
	<polygon points="446.4797243218,-292.037599725958 407.184106875668,-292.037599725958 375.393284557291,-268.940215311394 363.250270961979,-231.567862277408 375.393284557291,-194.195509243423 407.184106875669,-171.098124828859 446.479724321801,-171.098124828859 478.270546640178,-194.195509243423 490.41356023549,-231.567862277408 478.270546640178,-268.940215311394 " style="fill: rgb(136,136,136); fill-opacity: 1; stroke: rgb(0,0,0); stroke-width: 3" />
	<polygon points="216.439172965403,-292.037599725957 177.143555519271,-292.037599725957 145.352733200894,-268.940215311394 133.209719605582,-231.567862277408 145.352733200894,-194.195509243423 177.143555519271,-171.09812482886 216.439172965403,-171.09812482886 248.229995283781,-194.195509243423 260.373008879092,-231.567862277408 248.229995283781,-268.940215311394 " style="fill: rgb(136,136,136); fill-opacity: 1; stroke: rgb(0,0,0); stroke-width: 3" />
	<polygon points="306.55495979923,-550.020299641517 294.411946203919,-587.392652675504 268.118045874943,-558.19031790647 " style="fill: rgb(14,173,105); fill-opacity: 1; stroke: rgb(0,0,0); stroke-width: 3" />
	<polygon points="176.673571505525,-492.193379885463 164.530557910212,-529.56573291945 138.236657581237,-500.363398150416 " style="fill: rgb(14,173,105); fill-opacity: 1; stroke: rgb(0,0,0); stroke-width: 3" />
	<polygon points="331.459448643602,-208.470477862845 292.16383119747,-208.470477862845 260.373008879092,-185.373093448281 248.229995283781,-148.000740414295 260.373008879092,-110.62838738031 292.16383119747,-87.5310029657471 331.459448643602,-87.5310029657479 363.250270961979,-110.628387380311 375.393284557291,-148.000740414298 363.250270961979,-185.373093448283 " style="fill: rgb(136,136,136); fill-opacity: 1; stroke: rgb(0,0,0); stroke-width: 3" />
	<polygon points="133.209719605582,-231.567862277408 106.915819276605,-202.365527508375 145.352733200894,-194.195509243423 " style="fill: rgb(14,173,105); fill-opacity: 1; stroke: rgb(0,0,0); stroke-width: 3" />
	<polygon points="446.479724321801,-171.098124828859 407.184106875669,-171.098124828859 426.831915598736,-137.067121863112 " style="fill: rgb(14,173,105); fill-opacity: 1; stroke: rgb(0,0,0); stroke-width: 3" />
	<polygon points="216.439172965403,-171.09812482886 177.143555519271,-171.09812482886 196.791364242336,-137.067121863114 " style="fill: rgb(14,173,105); fill-opacity: 1; stroke: rgb(0,0,0); stroke-width: 3" />
	<polygon points="331.459448643602,-87.5310029657479 292.16383119747,-87.5310029657471 311.811639920536,-53.5 " style="fill: rgb(14,173,105); fill-opacity: 1; stroke: rgb(0,0,0); stroke-width: 3" />
	<polygon points="549.35698640469,-96.3534187608884 517.566164086313,-73.2560343463242 553.464496909491,-57.2730668186929 " style="fill: rgb(14,173,105); fill-opacity: 1; stroke: rgb(0,0,0); stroke-width: 3" />
	<polygon points="106.057115754761,-194.195509243422 74.266293436383,-171.098124828858 62.1232798410718,-133.725771794873 74.2662934363842,-96.3534187608882 106.057115754762,-73.2560343463258 145.352733200895,-73.2560343463266 177.143555519273,-96.3534187608906 189.286569114584,-133.725771794876 177.143555519271,-171.09812482886 145.352733200894,-194.195509243423 " style="fill: rgb(136,136,136); fill-opacity: 1; stroke: rgb(0,0,0); stroke-width: 3" />
	<polygon points="82.6905160349964,-450.349427657039 102.338324758062,-484.380430622785 63.0427073119288,-484.380430622786 " style="fill: rgb(14,173,105); fill-opacity: 1; stroke: rgb(0,0,0); stroke-width: 3" />
	<polygon points="521.284955083011,-484.380430622784 540.932763806077,-450.349427657039 560.580572529145,-484.380430622786 " style="fill: rgb(14,173,105); fill-opacity: 1; stroke: rgb(0,0,0); stroke-width: 3" />
	<polygon points="478.270546640178,-194.195509243423 446.479724321801,-171.098124828859 434.336710726491,-133.725771794872 446.479724321804,-96.3534187608863 478.270546640181,-73.2560343463234 517.566164086313,-73.2560343463242 549.35698640469,-96.3534187608884 561.5,-133.725771794875 549.356986404688,-171.098124828861 517.566164086309,-194.195509243424 " style="fill: rgb(136,136,136); fill-opacity: 1; stroke: rgb(0,0,0); stroke-width: 3" />
	<polygon points="490.41356023549,-231.567862277408 478.270546640178,-194.195509243423 516.707460564467,-202.365527508375 " style="fill: rgb(14,173,105); fill-opacity: 1; stroke: rgb(0,0,0); stroke-width: 3" />
	<polygon points="127.483055470526,-602.677087827389 89.0461415462393,-610.84710609234 53.1478087230648,-594.864138564708 33.5,-560.833135598961 37.6075105047992,-521.752783656767 63.901410833776,-492.550448887736 102.338324758062,-484.380430622785 138.236657581237,-500.363398150416 157.884466304302,-534.394401116163 153.776955799503,-573.474753058357 " style="fill: rgb(136,136,136); fill-opacity: 1; stroke: rgb(0,0,0); stroke-width: 3" />
	<polygon points="292.16383119747,-208.470477862845 260.373008879092,-231.567862277408 256.265498374294,-192.487510335214 " style="fill: rgb(14,173,105); fill-opacity: 1; stroke: rgb(0,0,0); stroke-width: 3" />
	<polygon points="363.250270961979,-231.567862277408 331.459448643602,-208.470477862845 367.357781466778,-192.487510335214 " style="fill: rgb(14,173,105); fill-opacity: 1; stroke: rgb(0,0,0); stroke-width: 3" />
	<polygon points="191.534684121031,-350.799338266297 187.427173616233,-389.879690208491 155.636351297855,-366.782305793928 " style="fill: rgb(14,173,105); fill-opacity: 1; stroke: rgb(0,0,0); stroke-width: 3" />
	<polygon points="436.19610622484,-389.87969020849 432.088595720042,-350.799338266297 467.986928543219,-366.782305793927 " style="fill: rgb(14,173,105); fill-opacity: 1; stroke: rgb(0,0,0); stroke-width: 3" />
	<polygon points="187.427173616233,-389.879690208491 207.0749823393,-423.910693174237 202.967471834502,-462.991045116431 176.673571505525,-492.193379885463 138.236657581237,-500.363398150416 102.338324758062,-484.380430622785 82.6905160349964,-450.349427657039 86.7980265397945,-411.269075714844 113.091926868771,-382.066740945812 151.528840793059,-373.896722680859 " style="fill: rgb(136,136,136); fill-opacity: 1; stroke: rgb(0,0,0); stroke-width: 3" />
	<polygon points="416.548297501774,-423.910693174236 436.19610622484,-389.87969020849 472.094439048016,-373.89672268086 510.531352972304,-382.066740945813 536.82525330128,-411.269075714846 540.932763806077,-450.349427657039 521.284955083011,-484.380430622784 485.386622259835,-500.363398150415 446.949708335547,-492.193379885461 420.655808006571,-462.991045116429 " style="fill: rgb(136,136,136); fill-opacity: 1; stroke: rgb(0,0,0); stroke-width: 3" />
	<polygon points="207.0749823393,-423.910693174237 242.973315162475,-439.893660701867 211.182492844097,-462.991045116432 " style="fill: rgb(14,173,105); fill-opacity: 1; stroke: rgb(0,0,0); stroke-width: 3" />
	<polygon points="380.649964678599,-439.893660701867 416.548297501774,-423.910693174236 412.440786996977,-462.99104511643 " style="fill: rgb(14,173,105); fill-opacity: 1; stroke: rgb(0,0,0); stroke-width: 3" />
	<polygon points="317.308561909938,-447.706609964545 336.956370633004,-481.737612930291 332.848860128206,-520.817964872485 306.55495979923,-550.020299641517 268.118045874943,-558.19031790647 232.219713051767,-542.207350378839 212.571904328701,-508.176347413093 216.679414833499,-469.095995470899 242.973315162475,-439.893660701867 281.410229086763,-431.723642436914 " style="fill: rgb(136,136,136); fill-opacity: 1; stroke: rgb(0,0,0); stroke-width: 3" />
	<polygon points="307.704129415739,-402.521307667882 319.847143011051,-439.893660701868 281.410229086763,-431.723642436914 " style="fill: rgb(14,173,105); fill-opacity: 1; stroke: rgb(0,0,0); stroke-width: 3" />
	<polygon points="292.16383119747,-329.409952759942 311.811639920536,-363.440955725688 307.704129415739,-402.521307667882 281.410229086763,-431.723642436914 242.973315162475,-439.893660701867 207.0749823393,-423.910693174237 187.427173616233,-389.879690208491 191.534684121031,-350.799338266297 217.828584450007,-321.597003497265 256.265498374295,-313.426985232311 " style="fill: rgb(136,136,136); fill-opacity: 1; stroke: rgb(0,0,0); stroke-width: 3" />
	<polygon points="311.811639920536,-363.440955725688 331.459448643602,-329.409952759942 367.357781466778,-313.426985232312 405.794695391066,-321.597003497265 432.088595720042,-350.799338266297 436.19610622484,-389.87969020849 416.548297501774,-423.910693174236 380.649964678599,-439.893660701867 342.213050754311,-431.723642436914 315.919150425334,-402.521307667882 " style="fill: rgb(136,136,136); fill-opacity: 1; stroke: rgb(0,0,0); stroke-width: 3" />
	<circle cx="292.16383119747" cy="-329.409952759942" r="2" style="fill: rgb(0,0,0)" />
	<circle cx="331.459448643602" cy="-329.409952759942" r="2" style="fill: rgb(0,0,0)" />
	<circle cx="311.811639920536" cy="-363.440955725688" r="2" style="fill: rgb(0,0,0)" />
	<circle cx="260.373008879093" cy="-306.312568345379" r="2" style="fill: rgb(0,0,0)" />
	<circle cx="248.229995283781" cy="-268.940215311394" r="2" style="fill: rgb(0,0,0)" />
	<circle cx="260.373008879092" cy="-231.567862277408" r="2" style="fill: rgb(0,0,0)" />
	<circle cx="292.16383119747" cy="-208.470477862845" r="2" style="fill: rgb(0,0,0)" />
	<circle cx="331.459448643602" cy="-208.470477862845" r="2" style="fill: rgb(0,0,0)" />
	<circle cx="363.250270961979" cy="-231.567862277408" r="2" style="fill: rgb(0,0,0)" />
	<circle cx="375.393284557291" cy="-268.940215311394" r="2" style="fill: rgb(0,0,0)" />
	<circle cx="363.25027096198" cy="-306.312568345379" r="2" style="fill: rgb(0,0,0)" />
	<circle cx="307.704129415739" cy="-402.521307667882" r="2" style="fill: rgb(0,0,0)" />
	<circle cx="281.410229086763" cy="-431.723642436914" r="2" style="fill: rgb(0,0,0)" />
	<circle cx="242.973315162475" cy="-439.893660701867" r="2" style="fill: rgb(0,0,0)" />
	<circle cx="207.0749823393" cy="-423.910693174237" r="2" style="fill: rgb(0,0,0)" />
	<circle cx="187.427173616233" cy="-389.879690208491" r="2" style="fill: rgb(0,0,0)" />
	<circle cx="191.534684121031" cy="-350.799338266297" r="2" style="fill: rgb(0,0,0)" />
	<circle cx="217.828584450007" cy="-321.597003497265" r="2" style="fill: rgb(0,0,0)" />
	<circle cx="256.265498374295" cy="-313.426985232311" r="2" style="fill: rgb(0,0,0)" />
	<circle cx="367.357781466778" cy="-313.426985232312" r="2" style="fill: rgb(0,0,0)" />
	<circle cx="405.794695391066" cy="-321.597003497265" r="2" style="fill: rgb(0,0,0)" />
	<circle cx="432.088595720042" cy="-350.799338266297" r="2" style="fill: rgb(0,0,0)" />
	<circle cx="436.19610622484" cy="-389.87969020849" r="2" style="fill: rgb(0,0,0)" />
	<circle cx="416.548297501774" cy="-423.910693174236" r="2" style="fill: rgb(0,0,0)" />
	<circle cx="380.649964678599" cy="-439.893660701867" r="2" style="fill: rgb(0,0,0)" />
	<circle cx="342.213050754311" cy="-431.723642436914" r="2" style="fill: rgb(0,0,0)" />
	<circle cx="315.919150425334" cy="-402.521307667882" r="2" style="fill: rgb(0,0,0)" />
	<circle cx="401.687184886268" cy="-298.142550080426" r="2" style="fill: rgb(0,0,0)" />
	<circle cx="221.936094954805" cy="-298.142550080426" r="2" style="fill: rgb(0,0,0)" />
	<circle cx="375.393284557291" cy="-194.195509243423" r="2" style="fill: rgb(0,0,0)" />
	<circle cx="407.184106875669" cy="-171.098124828859" r="2" style="fill: rgb(0,0,0)" />
	<circle cx="446.479724321801" cy="-171.098124828859" r="2" style="fill: rgb(0,0,0)" />
	<circle cx="478.270546640178" cy="-194.195509243423" r="2" style="fill: rgb(0,0,0)" />
	<circle cx="490.41356023549" cy="-231.567862277408" r="2" style="fill: rgb(0,0,0)" />
	<circle cx="478.270546640178" cy="-268.940215311394" r="2" style="fill: rgb(0,0,0)" />
	<circle cx="446.4797243218" cy="-292.037599725958" r="2" style="fill: rgb(0,0,0)" />
	<circle cx="407.184106875668" cy="-292.037599725958" r="2" style="fill: rgb(0,0,0)" />
	<circle cx="216.439172965403" cy="-292.037599725957" r="2" style="fill: rgb(0,0,0)" />
	<circle cx="177.143555519271" cy="-292.037599725957" r="2" style="fill: rgb(0,0,0)" />
	<circle cx="145.352733200894" cy="-268.940215311394" r="2" style="fill: rgb(0,0,0)" />
	<circle cx="133.209719605582" cy="-231.567862277408" r="2" style="fill: rgb(0,0,0)" />
	<circle cx="145.352733200894" cy="-194.195509243423" r="2" style="fill: rgb(0,0,0)" />
	<circle cx="177.143555519271" cy="-171.09812482886" r="2" style="fill: rgb(0,0,0)" />
	<circle cx="216.439172965403" cy="-171.09812482886" r="2" style="fill: rgb(0,0,0)" />
	<circle cx="248.229995283781" cy="-194.195509243423" r="2" style="fill: rgb(0,0,0)" />
	<circle cx="260.373008879092" cy="-185.373093448281" r="2" style="fill: rgb(0,0,0)" />
	<circle cx="248.229995283781" cy="-148.000740414295" r="2" style="fill: rgb(0,0,0)" />
	<circle cx="260.373008879092" cy="-110.62838738031" r="2" style="fill: rgb(0,0,0)" />
	<circle cx="292.16383119747" cy="-87.5310029657471" r="2" style="fill: rgb(0,0,0)" />
	<circle cx="331.459448643602" cy="-87.5310029657479" r="2" style="fill: rgb(0,0,0)" />
	<circle cx="363.250270961979" cy="-110.628387380311" r="2" style="fill: rgb(0,0,0)" />
	<circle cx="375.393284557291" cy="-148.000740414298" r="2" style="fill: rgb(0,0,0)" />
	<circle cx="363.250270961979" cy="-185.373093448283" r="2" style="fill: rgb(0,0,0)" />
	<circle cx="256.265498374294" cy="-192.487510335214" r="2" style="fill: rgb(0,0,0)" />
	<circle cx="367.357781466778" cy="-192.487510335214" r="2" style="fill: rgb(0,0,0)" />
	<circle cx="155.636351297855" cy="-366.782305793928" r="2" style="fill: rgb(0,0,0)" />
	<circle cx="202.967471834502" cy="-462.991045116431" r="2" style="fill: rgb(0,0,0)" />
	<circle cx="176.673571505525" cy="-492.193379885463" r="2" style="fill: rgb(0,0,0)" />
	<circle cx="138.236657581237" cy="-500.363398150416" r="2" style="fill: rgb(0,0,0)" />
	<circle cx="102.338324758062" cy="-484.380430622785" r="2" style="fill: rgb(0,0,0)" />
	<circle cx="82.6905160349964" cy="-450.349427657039" r="2" style="fill: rgb(0,0,0)" />
	<circle cx="86.7980265397945" cy="-411.269075714844" r="2" style="fill: rgb(0,0,0)" />
	<circle cx="113.091926868771" cy="-382.066740945812" r="2" style="fill: rgb(0,0,0)" />
	<circle cx="151.528840793059" cy="-373.896722680859" r="2" style="fill: rgb(0,0,0)" />
	<circle cx="211.182492844097" cy="-462.991045116432" r="2" style="fill: rgb(0,0,0)" />
	<circle cx="317.308561909938" cy="-447.706609964545" r="2" style="fill: rgb(0,0,0)" />
	<circle cx="336.956370633004" cy="-481.737612930291" r="2" style="fill: rgb(0,0,0)" />
	<circle cx="332.848860128206" cy="-520.817964872485" r="2" style="fill: rgb(0,0,0)" />
	<circle cx="306.55495979923" cy="-550.020299641517" r="2" style="fill: rgb(0,0,0)" />
	<circle cx="268.118045874943" cy="-558.19031790647" r="2" style="fill: rgb(0,0,0)" />
	<circle cx="232.219713051767" cy="-542.207350378839" r="2" style="fill: rgb(0,0,0)" />
	<circle cx="212.571904328701" cy="-508.176347413093" r="2" style="fill: rgb(0,0,0)" />
	<circle cx="216.679414833499" cy="-469.095995470899" r="2" style="fill: rgb(0,0,0)" />
	<circle cx="319.847143011051" cy="-439.893660701868" r="2" style="fill: rgb(0,0,0)" />
	<circle cx="467.986928543219" cy="-366.782305793927" r="2" style="fill: rgb(0,0,0)" />
	<circle cx="472.094439048016" cy="-373.89672268086" r="2" style="fill: rgb(0,0,0)" />
	<circle cx="510.531352972304" cy="-382.066740945813" r="2" style="fill: rgb(0,0,0)" />
	<circle cx="536.82525330128" cy="-411.269075714846" r="2" style="fill: rgb(0,0,0)" />
	<circle cx="540.932763806077" cy="-450.349427657039" r="2" style="fill: rgb(0,0,0)" />
	<circle cx="521.284955083011" cy="-484.380430622784" r="2" style="fill: rgb(0,0,0)" />
	<circle cx="485.386622259835" cy="-500.363398150415" r="2" style="fill: rgb(0,0,0)" />
	<circle cx="446.949708335547" cy="-492.193379885461" r="2" style="fill: rgb(0,0,0)" />
	<circle cx="420.655808006571" cy="-462.991045116429" r="2" style="fill: rgb(0,0,0)" />
	<circle cx="412.440786996977" cy="-462.99104511643" r="2" style="fill: rgb(0,0,0)" />
	<circle cx="426.831915598736" cy="-137.067121863112" r="2" style="fill: rgb(0,0,0)" />
	<circle cx="434.336710726491" cy="-133.725771794872" r="2" style="fill: rgb(0,0,0)" />
	<circle cx="446.479724321804" cy="-96.3534187608863" r="2" style="fill: rgb(0,0,0)" />
	<circle cx="478.270546640181" cy="-73.2560343463234" r="2" style="fill: rgb(0,0,0)" />
	<circle cx="517.566164086313" cy="-73.2560343463242" r="2" style="fill: rgb(0,0,0)" />
	<circle cx="549.35698640469" cy="-96.3534187608884" r="2" style="fill: rgb(0,0,0)" />
	<circle cx="561.5" cy="-133.725771794875" r="2" style="fill: rgb(0,0,0)" />
	<circle cx="549.356986404688" cy="-171.098124828861" r="2" style="fill: rgb(0,0,0)" />
	<circle cx="517.566164086309" cy="-194.195509243424" r="2" style="fill: rgb(0,0,0)" />
	<circle cx="516.707460564467" cy="-202.365527508375" r="2" style="fill: rgb(0,0,0)" />
	<circle cx="106.915819276605" cy="-202.365527508375" r="2" style="fill: rgb(0,0,0)" />
	<circle cx="196.791364242336" cy="-137.067121863114" r="2" style="fill: rgb(0,0,0)" />
	<circle cx="106.057115754761" cy="-194.195509243422" r="2" style="fill: rgb(0,0,0)" />
	<circle cx="74.266293436383" cy="-171.098124828858" r="2" style="fill: rgb(0,0,0)" />
	<circle cx="62.1232798410718" cy="-133.725771794873" r="2" style="fill: rgb(0,0,0)" />
	<circle cx="74.2662934363842" cy="-96.3534187608882" r="2" style="fill: rgb(0,0,0)" />
	<circle cx="106.057115754762" cy="-73.2560343463258" r="2" style="fill: rgb(0,0,0)" />
	<circle cx="145.352733200895" cy="-73.2560343463266" r="2" style="fill: rgb(0,0,0)" />
	<circle cx="177.143555519273" cy="-96.3534187608906" r="2" style="fill: rgb(0,0,0)" />
	<circle cx="189.286569114584" cy="-133.725771794876" r="2" style="fill: rgb(0,0,0)" />
	<circle cx="311.811639920536" cy="-53.5" r="2" style="fill: rgb(0,0,0)" />
	<circle cx="164.530557910212" cy="-529.56573291945" r="2" style="fill: rgb(0,0,0)" />
	<circle cx="63.0427073119288" cy="-484.380430622786" r="2" style="fill: rgb(0,0,0)" />
	<circle cx="157.884466304302" cy="-534.394401116163" r="2" style="fill: rgb(0,0,0)" />
	<circle cx="153.776955799503" cy="-573.474753058357" r="2" style="fill: rgb(0,0,0)" />
	<circle cx="127.483055470526" cy="-602.677087827389" r="2" style="fill: rgb(0,0,0)" />
	<circle cx="89.0461415462393" cy="-610.84710609234" r="2" style="fill: rgb(0,0,0)" />
	<circle cx="53.1478087230648" cy="-594.864138564708" r="2" style="fill: rgb(0,0,0)" />
	<circle cx="33.5" cy="-560.833135598961" r="2" style="fill: rgb(0,0,0)" />
	<circle cx="37.6075105047992" cy="-521.752783656767" r="2" style="fill: rgb(0,0,0)" />
	<circle cx="63.901410833776" cy="-492.550448887736" r="2" style="fill: rgb(0,0,0)" />
	<circle cx="294.411946203919" cy="-587.392652675504" r="2" style="fill: rgb(0,0,0)" />
	<circle cx="560.580572529145" cy="-484.380430622786" r="2" style="fill: rgb(0,0,0)" />
	<circle cx="553.464496909491" cy="-57.2730668186929" r="2" style="fill: rgb(0,0,0)" />
	<!-- 
	Generated using the Perl SVG Module V2.64
	by Ronan Oger
	Info: http://www.roitsystems.com/
 -->
</svg>