<?xml version="1.0" encoding="UTF-8" standalone="yes"?>
<!DOCTYPE svg PUBLIC "-//W3C//DTD SVG 1.0//EN" "http://www.w3.org/TR/2001/REC-SVG-20010904/DTD/svg10.dtd">
<!-- generated using polymake; Michael Joswig, Georg Loho, Benjamin Lorenz, Rico Raber; license CC BY-NC-SA 3.0; see polymake.org and matchthenet.de -->
<svg height="841pt" id="document" viewBox="0 -790.245948869758 572 790.245948869758" width="595pt" xmlns="http://www.w3.org/2000/svg" xmlns:svg="http://www.w3.org/2000/svg" xmlns:xlink="http://www.w3.org/1999/xlink">
	<title id="document_title">planar_net_</title>
	<polygon points="258.284609690825,-403.622974434884 336.715390309168,-403.622974434884 375.93078061834,-471.546022889014 336.715390309168,-539.469071343143 258.284609690825,-539.469071343143 219.069219381653,-471.546022889013 " style="fill: rgb(238,66,102); fill-opacity: 1; stroke: rgb(0,0,0); stroke-width: 3" />
	<polygon points="336.715390309157,-325.192193816531 336.715390309168,-403.622974434884 258.284609690825,-403.622974434884 258.284609690823,-325.192193816538 " style="fill: rgb(67,184,206); fill-opacity: 1; stroke: rgb(0,0,0); stroke-width: 3" />
	<polygon points="336.715390309168,-539.469071343143 375.93078061834,-471.546022889014 443.853829072477,-510.761413198188 404.638438763312,-578.68446165231 " style="fill: rgb(67,184,206); fill-opacity: 1; stroke: rgb(0,0,0); stroke-width: 3" />
	<polygon points="336.715390309148,-189.346096908265 258.284609690814,-189.346096908272 219.069219381642,-121.42304845414 258.284609690805,-53.5000000000044 336.715390309139,-53.5 375.93078061831,-121.423048454131 " style="fill: rgb(238,66,102); fill-opacity: 1; stroke: rgb(0,0,0); stroke-width: 3" />
	<polygon points="443.853829072477,-510.761413198188 522.284609690822,-510.761413198186 561.5,-578.684461652306 522.284609690834,-646.607510106428 443.853829072489,-646.60751010643 404.638438763312,-578.68446165231 " style="fill: rgb(238,66,102); fill-opacity: 1; stroke: rgb(0,0,0); stroke-width: 3" />
	<polygon points="493.576951545854,-403.622974434884 454.361561236683,-335.699925980755 522.284609690821,-296.484535671578 561.499999999987,-364.407584125698 " style="fill: rgb(67,184,206); fill-opacity: 1; stroke: rgb(0,0,0); stroke-width: 3" />
	<polygon points="375.93078061834,-471.546022889014 336.715390309168,-403.622974434884 375.930780618339,-335.699925980755 454.361561236683,-335.699925980755 493.576951545854,-403.622974434884 454.361561236682,-471.546022889014 " style="fill: rgb(238,66,102); fill-opacity: 1; stroke: rgb(0,0,0); stroke-width: 3" />
	<polygon points="375.930780618319,-257.269145362395 336.715390309157,-325.192193816531 258.284609690823,-325.192193816538 219.069219381651,-257.269145362408 258.284609690814,-189.346096908272 336.715390309148,-189.346096908265 " style="fill: rgb(238,66,102); fill-opacity: 1; stroke: rgb(0,0,0); stroke-width: 3" />
	<polygon points="258.284609690825,-675.315168251401 336.715390309169,-675.315168251403 336.715390309173,-753.745948869758 258.284609690836,-753.745948869755 " style="fill: rgb(67,184,206); fill-opacity: 1; stroke: rgb(0,0,0); stroke-width: 3" />
	<polygon points="140.63843876331,-335.699925980755 101.423048454138,-403.622974434884 33.5,-364.407584125712 72.7153903091667,-296.484535671587 " style="fill: rgb(67,184,206); fill-opacity: 1; stroke: rgb(0,0,0); stroke-width: 3" />
	<polygon points="258.284609690825,-539.469071343143 336.715390309168,-539.469071343143 375.93078061834,-607.392119797274 336.715390309169,-675.315168251403 258.284609690825,-675.315168251401 219.069219381653,-607.392119797271 " style="fill: rgb(238,66,102); fill-opacity: 1; stroke: rgb(0,0,0); stroke-width: 3" />
	<polygon points="219.069219381653,-607.392119797271 258.284609690825,-675.315168251401 219.069219381653,-743.238216705533 140.638438763309,-743.238216705532 101.423048454137,-675.315168251399 140.638438763309,-607.392119797268 " style="fill: rgb(238,66,102); fill-opacity: 1; stroke: rgb(0,0,0); stroke-width: 3" />
	<polygon points="219.069219381653,-471.546022889013 258.284609690825,-539.469071343143 190.361561236694,-578.684461652323 151.14617092752,-510.7614131982 " style="fill: rgb(67,184,206); fill-opacity: 1; stroke: rgb(0,0,0); stroke-width: 3" />
	<polygon points="258.284609690825,-403.622974434884 219.069219381653,-471.546022889013 140.638438763309,-471.546022889013 101.423048454138,-403.622974434884 140.63843876331,-335.699925980755 219.069219381654,-335.699925980755 " style="fill: rgb(238,66,102); fill-opacity: 1; stroke: rgb(0,0,0); stroke-width: 3" />
	<circle cx="258.284609690825" cy="-403.622974434884" r="2" style="fill: rgb(0,0,0)" />
	<circle cx="336.715390309168" cy="-403.622974434884" r="2" style="fill: rgb(0,0,0)" />
	<circle cx="375.93078061834" cy="-471.546022889014" r="2" style="fill: rgb(0,0,0)" />
	<circle cx="336.715390309168" cy="-539.469071343143" r="2" style="fill: rgb(0,0,0)" />
	<circle cx="258.284609690825" cy="-539.469071343143" r="2" style="fill: rgb(0,0,0)" />
	<circle cx="219.069219381653" cy="-471.546022889013" r="2" style="fill: rgb(0,0,0)" />
	<circle cx="258.284609690823" cy="-325.192193816538" r="2" style="fill: rgb(0,0,0)" />
	<circle cx="336.715390309157" cy="-325.192193816531" r="2" style="fill: rgb(0,0,0)" />
	<circle cx="443.853829072477" cy="-510.761413198188" r="2" style="fill: rgb(0,0,0)" />
	<circle cx="404.638438763312" cy="-578.68446165231" r="2" style="fill: rgb(0,0,0)" />
	<circle cx="375.930780618339" cy="-335.699925980755" r="2" style="fill: rgb(0,0,0)" />
	<circle cx="454.361561236683" cy="-335.699925980755" r="2" style="fill: rgb(0,0,0)" />
	<circle cx="493.576951545854" cy="-403.622974434884" r="2" style="fill: rgb(0,0,0)" />
	<circle cx="454.361561236682" cy="-471.546022889014" r="2" style="fill: rgb(0,0,0)" />
	<circle cx="375.93078061834" cy="-607.392119797274" r="2" style="fill: rgb(0,0,0)" />
	<circle cx="336.715390309169" cy="-675.315168251403" r="2" style="fill: rgb(0,0,0)" />
	<circle cx="258.284609690825" cy="-675.315168251401" r="2" style="fill: rgb(0,0,0)" />
	<circle cx="219.069219381653" cy="-607.392119797271" r="2" style="fill: rgb(0,0,0)" />
	<circle cx="190.361561236694" cy="-578.684461652323" r="2" style="fill: rgb(0,0,0)" />
	<circle cx="151.14617092752" cy="-510.7614131982" r="2" style="fill: rgb(0,0,0)" />
	<circle cx="140.638438763309" cy="-471.546022889013" r="2" style="fill: rgb(0,0,0)" />
	<circle cx="101.423048454138" cy="-403.622974434884" r="2" style="fill: rgb(0,0,0)" />
	<circle cx="140.63843876331" cy="-335.699925980755" r="2" style="fill: rgb(0,0,0)" />
	<circle cx="219.069219381654" cy="-335.699925980755" r="2" style="fill: rgb(0,0,0)" />
	<circle cx="219.069219381651" cy="-257.269145362408" r="2" style="fill: rgb(0,0,0)" />
	<circle cx="258.284609690814" cy="-189.346096908272" r="2" style="fill: rgb(0,0,0)" />
	<circle cx="336.715390309148" cy="-189.346096908265" r="2" style="fill: rgb(0,0,0)" />
	<circle cx="375.930780618319" cy="-257.269145362395" r="2" style="fill: rgb(0,0,0)" />
	<circle cx="522.284609690822" cy="-510.761413198186" r="2" style="fill: rgb(0,0,0)" />
	<circle cx="561.5" cy="-578.684461652306" r="2" style="fill: rgb(0,0,0)" />
	<circle cx="522.284609690834" cy="-646.607510106428" r="2" style="fill: rgb(0,0,0)" />
	<circle cx="443.853829072489" cy="-646.60751010643" r="2" style="fill: rgb(0,0,0)" />
	<circle cx="522.284609690821" cy="-296.484535671578" r="2" style="fill: rgb(0,0,0)" />
	<circle cx="561.499999999987" cy="-364.407584125698" r="2" style="fill: rgb(0,0,0)" />
	<circle cx="336.715390309173" cy="-753.745948869758" r="2" style="fill: rgb(0,0,0)" />
	<circle cx="258.284609690836" cy="-753.745948869755" r="2" style="fill: rgb(0,0,0)" />
	<circle cx="219.069219381653" cy="-743.238216705533" r="2" style="fill: rgb(0,0,0)" />
	<circle cx="140.638438763309" cy="-743.238216705532" r="2" style="fill: rgb(0,0,0)" />
	<circle cx="101.423048454137" cy="-675.315168251399" r="2" style="fill: rgb(0,0,0)" />
	<circle cx="140.638438763309" cy="-607.392119797268" r="2" style="fill: rgb(0,0,0)" />
	<circle cx="33.5" cy="-364.407584125712" r="2" style="fill: rgb(0,0,0)" />
	<circle cx="72.7153903091667" cy="-296.484535671587" r="2" style="fill: rgb(0,0,0)" />
	<circle cx="219.069219381642" cy="-121.42304845414" r="2" style="fill: rgb(0,0,0)" />
	<circle cx="258.284609690805" cy="-53.5000000000044" r="2" style="fill: rgb(0,0,0)" />
	<circle cx="336.715390309139" cy="-53.5" r="2" style="fill: rgb(0,0,0)" />
	<circle cx="375.93078061831" cy="-121.423048454131" r="2" style="fill: rgb(0,0,0)" />
	<!-- 
	Generated using the Perl SVG Module V2.64
	by Ronan Oger
	Info: http://www.roitsystems.com/
 -->
</svg>