<?xml version="1.0" encoding="UTF-8" standalone="yes"?>
<!DOCTYPE svg PUBLIC "-//W3C//DTD SVG 1.0//EN" "http://www.w3.org/TR/2001/REC-SVG-20010904/DTD/svg10.dtd">
<!-- generated using polymake; Michael Joswig, Georg Loho, Benjamin Lorenz, Rico Raber; license CC BY-NC-ND 3.0; see polymake.org and matchthenet.de -->
<svg height="841pt" id="document" viewBox="0 -699.708145131823 572 699.708145131823" width="595pt" xmlns="http://www.w3.org/2000/svg" xmlns:svg="http://www.w3.org/2000/svg" xmlns:xlink="http://www.w3.org/1999/xlink">
	<title id="document_title">planar_net_</title>
	<polygon points="214.260544252391,-358.35407256591 328.513606309824,-358.35407256591 380.739455747607,-459.972096754546 " style="fill: rgb(14,173,105); fill-opacity: 1; stroke: rgb(0,0,0); stroke-width: 3" />
	<polygon points="380.739455747603,-256.736048377276 328.513606309824,-358.35407256591 214.260544252391,-358.35407256591 " style="fill: rgb(14,173,105); fill-opacity: 1; stroke: rgb(0,0,0); stroke-width: 3" />
	<polygon points="214.260544252391,-358.35407256591 380.739455747607,-459.972096754546 266.486393690174,-459.972096754546 " style="fill: rgb(14,173,105); fill-opacity: 1; stroke: rgb(0,0,0); stroke-width: 3" />
	<polygon points="380.739455747607,-459.972096754546 328.513606309824,-358.35407256591 395.021088504786,-265.453496671101 " style="fill: rgb(14,173,105); fill-opacity: 1; stroke: rgb(0,0,0); stroke-width: 3" />
	<polygon points="214.260544252391,-358.35407256591 266.486393690174,-459.972096754546 199.978911495216,-552.872672649358 " style="fill: rgb(14,173,105); fill-opacity: 1; stroke: rgb(0,0,0); stroke-width: 3" />
	<polygon points="380.739455747603,-256.736048377276 214.260544252391,-358.35407256591 266.486393690171,-256.736048377274 " style="fill: rgb(14,173,105); fill-opacity: 1; stroke: rgb(0,0,0); stroke-width: 3" />
	<polygon points="266.486393690174,-459.972096754546 380.739455747607,-459.972096754546 214.260544252394,-561.590120943181 " style="fill: rgb(14,173,105); fill-opacity: 1; stroke: rgb(0,0,0); stroke-width: 3" />
	<polygon points="266.486393690171,-256.736048377274 214.260544252391,-358.35407256591 199.978911495212,-163.835472482469 " style="fill: rgb(14,173,105); fill-opacity: 1; stroke: rgb(0,0,0); stroke-width: 3" />
	<polygon points="380.739455747607,-459.972096754546 395.021088504786,-265.453496671101 447.246937942567,-367.071520859736 " style="fill: rgb(14,173,105); fill-opacity: 1; stroke: rgb(0,0,0); stroke-width: 3" />
	<polygon points="214.260544252391,-358.35407256591 199.978911495216,-552.872672649358 147.753062057433,-451.254648460724 " style="fill: rgb(14,173,105); fill-opacity: 1; stroke: rgb(0,0,0); stroke-width: 3" />
	<polygon points="380.739455747603,-256.736048377276 266.486393690171,-256.736048377274 214.260544252393,-155.118024188636 " style="fill: rgb(14,173,105); fill-opacity: 1; stroke: rgb(0,0,0); stroke-width: 3" />
	<polygon points="380.739455747607,-459.972096754546 447.246937942567,-367.071520859736 560.274829602273,-383.758578613067 " style="fill: rgb(14,173,105); fill-opacity: 1; stroke: rgb(0,0,0); stroke-width: 3" />
	<polygon points="214.260544252391,-358.35407256591 147.753062057431,-265.453496671102 199.978911495212,-163.835472482469 " style="fill: rgb(14,173,105); fill-opacity: 1; stroke: rgb(0,0,0); stroke-width: 3" />
	<polygon points="214.260544252394,-561.590120943181 380.739455747607,-459.972096754546 328.513606309827,-561.590120943182 " style="fill: rgb(14,173,105); fill-opacity: 1; stroke: rgb(0,0,0); stroke-width: 3" />
	<polygon points="447.246937942567,-367.071520859736 395.021088504786,-265.453496671101 561.5,-367.071520859735 " style="fill: rgb(14,173,105); fill-opacity: 1; stroke: rgb(0,0,0); stroke-width: 3" />
	<polygon points="147.753062057433,-451.254648460724 199.978911495216,-552.872672649358 33.5,-451.254648460727 " style="fill: rgb(14,173,105); fill-opacity: 1; stroke: rgb(0,0,0); stroke-width: 3" />
	<polygon points="380.739455747607,-459.972096754546 395.021088504787,-654.490696837988 328.513606309827,-561.590120943182 " style="fill: rgb(14,173,105); fill-opacity: 1; stroke: rgb(0,0,0); stroke-width: 3" />
	<polygon points="380.739455747603,-256.736048377276 214.260544252393,-155.118024188636 328.513606309826,-155.118024188639 " style="fill: rgb(14,173,105); fill-opacity: 1; stroke: rgb(0,0,0); stroke-width: 3" />
	<polygon points="214.260544252394,-561.590120943181 328.513606309827,-561.590120943182 380.73945574761,-663.208145131823 " style="fill: rgb(14,173,105); fill-opacity: 1; stroke: rgb(0,0,0); stroke-width: 3" />
	<polygon points="561.5,-367.071520859735 395.021088504786,-265.453496671101 509.27415056222,-265.453496671101 " style="fill: rgb(14,173,105); fill-opacity: 1; stroke: rgb(0,0,0); stroke-width: 3" />
	<polygon points="33.5,-451.254648460727 199.978911495216,-552.872672649358 85.7258494377823,-552.872672649361 " style="fill: rgb(14,173,105); fill-opacity: 1; stroke: rgb(0,0,0); stroke-width: 3" />
	<polygon points="380.739455747605,-53.5000000000006 328.513606309826,-155.118024188639 214.260544252393,-155.118024188636 " style="fill: rgb(14,173,105); fill-opacity: 1; stroke: rgb(0,0,0); stroke-width: 3" />
	<polygon points="214.260544252394,-561.590120943181 380.73945574761,-663.208145131823 266.486393690176,-663.20814513182 " style="fill: rgb(14,173,105); fill-opacity: 1; stroke: rgb(0,0,0); stroke-width: 3" />
	<polygon points="380.739455747605,-53.5000000000006 214.260544252393,-155.118024188636 266.486393690173,-53.5 " style="fill: rgb(14,173,105); fill-opacity: 1; stroke: rgb(0,0,0); stroke-width: 3" />
	<circle cx="214.260544252391" cy="-358.35407256591" r="2" style="fill: rgb(0,0,0)" />
	<circle cx="328.513606309824" cy="-358.35407256591" r="2" style="fill: rgb(0,0,0)" />
	<circle cx="380.739455747607" cy="-459.972096754546" r="2" style="fill: rgb(0,0,0)" />
	<circle cx="380.739455747603" cy="-256.736048377276" r="2" style="fill: rgb(0,0,0)" />
	<circle cx="266.486393690174" cy="-459.972096754546" r="2" style="fill: rgb(0,0,0)" />
	<circle cx="395.021088504786" cy="-265.453496671101" r="2" style="fill: rgb(0,0,0)" />
	<circle cx="266.486393690171" cy="-256.736048377274" r="2" style="fill: rgb(0,0,0)" />
	<circle cx="199.978911495216" cy="-552.872672649358" r="2" style="fill: rgb(0,0,0)" />
	<circle cx="214.260544252394" cy="-561.590120943181" r="2" style="fill: rgb(0,0,0)" />
	<circle cx="447.246937942567" cy="-367.071520859736" r="2" style="fill: rgb(0,0,0)" />
	<circle cx="199.978911495212" cy="-163.835472482469" r="2" style="fill: rgb(0,0,0)" />
	<circle cx="214.260544252393" cy="-155.118024188636" r="2" style="fill: rgb(0,0,0)" />
	<circle cx="147.753062057433" cy="-451.254648460724" r="2" style="fill: rgb(0,0,0)" />
	<circle cx="328.513606309827" cy="-561.590120943182" r="2" style="fill: rgb(0,0,0)" />
	<circle cx="560.274829602273" cy="-383.758578613067" r="2" style="fill: rgb(0,0,0)" />
	<circle cx="561.5" cy="-367.071520859735" r="2" style="fill: rgb(0,0,0)" />
	<circle cx="147.753062057431" cy="-265.453496671102" r="2" style="fill: rgb(0,0,0)" />
	<circle cx="328.513606309826" cy="-155.118024188639" r="2" style="fill: rgb(0,0,0)" />
	<circle cx="33.5" cy="-451.254648460727" r="2" style="fill: rgb(0,0,0)" />
	<circle cx="395.021088504787" cy="-654.490696837988" r="2" style="fill: rgb(0,0,0)" />
	<circle cx="380.73945574761" cy="-663.208145131823" r="2" style="fill: rgb(0,0,0)" />
	<circle cx="509.27415056222" cy="-265.453496671101" r="2" style="fill: rgb(0,0,0)" />
	<circle cx="380.739455747605" cy="-53.5000000000006" r="2" style="fill: rgb(0,0,0)" />
	<circle cx="85.7258494377823" cy="-552.872672649361" r="2" style="fill: rgb(0,0,0)" />
	<circle cx="266.486393690176" cy="-663.20814513182" r="2" style="fill: rgb(0,0,0)" />
	<circle cx="266.486393690173" cy="-53.5" r="2" style="fill: rgb(0,0,0)" />
	<!--
	Generated using the Perl SVG Module V2.87
	by Ronan Oger

	-->
</svg>