<?xml version="1.0" encoding="UTF-8" standalone="yes"?>
<!DOCTYPE svg PUBLIC "-//W3C//DTD SVG 1.0//EN" "http://www.w3.org/TR/2001/REC-SVG-20010904/DTD/svg10.dtd">
<!-- generated using polymake; Michael Joswig, Georg Loho, Benjamin Lorenz, Rico Raber; license CC BY-NC-ND 3.0; see polymake.org and matchthenet.de -->
<svg height="841pt" id="document" viewBox="0 -767.888145402822 572 767.888145402822" width="595pt" xmlns="http://www.w3.org/2000/svg" xmlns:svg="http://www.w3.org/2000/svg" xmlns:xlink="http://www.w3.org/1999/xlink">
	<title id="document_title">planar_net_</title>
	<polygon points="232.886538989369,-392.444072701409 362.113461010637,-392.444072701409 297.500000000003,-430.474428835977 " style="fill: rgb(42,107,61); fill-opacity: 1; stroke: rgb(0,0,0); stroke-width: 3" />
	<polygon points="297.500000000003,-354.41371656684 362.113461010637,-392.444072701409 232.886538989369,-392.444072701409 " style="fill: rgb(42,107,61); fill-opacity: 1; stroke: rgb(0,0,0); stroke-width: 3" />
	<polygon points="232.886538989369,-392.444072701409 297.500000000003,-430.474428835977 295.614604616953,-505.425430268544 " style="fill: rgb(42,107,61); fill-opacity: 1; stroke: rgb(0,0,0); stroke-width: 3" />
	<polygon points="232.886538989369,-392.444072701409 295.614604616953,-505.425430268544 231.001143606318,-467.395074133975 " style="fill: rgb(42,107,61); fill-opacity: 1; stroke: rgb(0,0,0); stroke-width: 3" />
	<polygon points="232.886538989369,-392.444072701409 295.614604616952,-279.462715134275 297.500000000003,-354.41371656684 " style="fill: rgb(42,107,61); fill-opacity: 1; stroke: rgb(0,0,0); stroke-width: 3" />
	<polygon points="297.500000000003,-430.474428835977 362.113461010637,-392.444072701409 299.385395383054,-505.425430268542 " style="fill: rgb(42,107,61); fill-opacity: 1; stroke: rgb(0,0,0); stroke-width: 3" />
	<polygon points="232.886538989369,-392.444072701409 231.001143606318,-317.493071268842 295.614604616952,-279.462715134275 " style="fill: rgb(42,107,61); fill-opacity: 1; stroke: rgb(0,0,0); stroke-width: 3" />
	<polygon points="299.385395383054,-505.425430268542 362.113461010637,-392.444072701409 363.998856393688,-467.395074133975 " style="fill: rgb(42,107,61); fill-opacity: 1; stroke: rgb(0,0,0); stroke-width: 3" />
	<polygon points="232.886538989369,-392.444072701409 231.001143606318,-467.395074133975 164.557302308478,-502.128678684648 " style="fill: rgb(42,107,61); fill-opacity: 1; stroke: rgb(0,0,0); stroke-width: 3" />
	<polygon points="299.385395383056,-279.462715134273 362.113461010637,-392.444072701409 297.500000000003,-354.41371656684 " style="fill: rgb(42,107,61); fill-opacity: 1; stroke: rgb(0,0,0); stroke-width: 3" />
	<polygon points="232.886538989369,-392.444072701409 164.557302308478,-502.128678684648 166.442697691529,-427.177677252082 " style="fill: rgb(42,107,61); fill-opacity: 1; stroke: rgb(0,0,0); stroke-width: 3" />
	<polygon points="363.99885639369,-317.493071268843 362.113461010637,-392.444072701409 299.385395383056,-279.462715134273 " style="fill: rgb(42,107,61); fill-opacity: 1; stroke: rgb(0,0,0); stroke-width: 3" />
	<polygon points="232.886538989369,-392.444072701409 164.55730230848,-282.759466718172 231.001143606318,-317.493071268842 " style="fill: rgb(42,107,61); fill-opacity: 1; stroke: rgb(0,0,0); stroke-width: 3" />
	<polygon points="363.998856393688,-467.395074133975 362.113461010637,-392.444072701409 430.442697691526,-502.128678684644 " style="fill: rgb(42,107,61); fill-opacity: 1; stroke: rgb(0,0,0); stroke-width: 3" />
	<polygon points="231.001143606318,-467.395074133975 295.614604616953,-505.425430268544 166.387682595685,-505.425430268544 " style="fill: rgb(42,107,61); fill-opacity: 1; stroke: rgb(0,0,0); stroke-width: 3" />
	<polygon points="232.886538989369,-392.444072701409 166.442697691529,-357.710468150736 164.55730230848,-282.759466718172 " style="fill: rgb(42,107,61); fill-opacity: 1; stroke: rgb(0,0,0); stroke-width: 3" />
	<polygon points="430.442697691526,-502.128678684644 362.113461010637,-392.444072701409 428.557302308477,-427.17767725208 " style="fill: rgb(42,107,61); fill-opacity: 1; stroke: rgb(0,0,0); stroke-width: 3" />
	<polygon points="166.387682595685,-505.425430268544 295.614604616953,-505.425430268544 231.001143606318,-543.455786403112 " style="fill: rgb(42,107,61); fill-opacity: 1; stroke: rgb(0,0,0); stroke-width: 3" />
	<polygon points="430.442697691534,-282.759466718172 362.113461010637,-392.444072701409 363.99885639369,-317.493071268843 " style="fill: rgb(42,107,61); fill-opacity: 1; stroke: rgb(0,0,0); stroke-width: 3" />
	<polygon points="299.385395383054,-505.425430268542 363.998856393688,-467.395074133975 428.612317404325,-505.425430268546 " style="fill: rgb(42,107,61); fill-opacity: 1; stroke: rgb(0,0,0); stroke-width: 3" />
	<polygon points="231.001143606318,-317.493071268842 166.387682595684,-279.462715134271 295.614604616952,-279.462715134275 " style="fill: rgb(42,107,61); fill-opacity: 1; stroke: rgb(0,0,0); stroke-width: 3" />
	<polygon points="428.557302308479,-357.710468150738 362.113461010637,-392.444072701409 430.442697691534,-282.759466718172 " style="fill: rgb(42,107,61); fill-opacity: 1; stroke: rgb(0,0,0); stroke-width: 3" />
	<polygon points="299.385395383054,-505.425430268542 428.612317404325,-505.425430268546 363.99885639369,-543.455786403114 " style="fill: rgb(42,107,61); fill-opacity: 1; stroke: rgb(0,0,0); stroke-width: 3" />
	<polygon points="295.614604616952,-279.462715134275 166.387682595684,-279.462715134271 231.001143606319,-241.432358999702 " style="fill: rgb(42,107,61); fill-opacity: 1; stroke: rgb(0,0,0); stroke-width: 3" />
	<polygon points="231.001143606318,-543.455786403112 295.614604616953,-505.425430268544 232.88653898937,-618.406787835677 " style="fill: rgb(42,107,61); fill-opacity: 1; stroke: rgb(0,0,0); stroke-width: 3" />
	<polygon points="428.612317404324,-279.462715134276 363.99885639369,-317.493071268843 299.385395383056,-279.462715134273 " style="fill: rgb(42,107,61); fill-opacity: 1; stroke: rgb(0,0,0); stroke-width: 3" />
	<polygon points="166.442697691529,-427.177677252082 164.557302308478,-502.128678684648 101.829236680895,-389.147321117517 " style="fill: rgb(42,107,61); fill-opacity: 1; stroke: rgb(0,0,0); stroke-width: 3" />
	<polygon points="299.385395383054,-505.425430268542 363.99885639369,-543.455786403114 362.11346101064,-618.406787835683 " style="fill: rgb(42,107,61); fill-opacity: 1; stroke: rgb(0,0,0); stroke-width: 3" />
	<polygon points="428.612317404324,-279.462715134276 299.385395383056,-279.462715134273 363.998856393691,-241.432358999704 " style="fill: rgb(42,107,61); fill-opacity: 1; stroke: rgb(0,0,0); stroke-width: 3" />
	<polygon points="101.829236680895,-389.147321117517 164.557302308478,-502.128678684648 99.9438412978434,-464.09832255008 " style="fill: rgb(42,107,61); fill-opacity: 1; stroke: rgb(0,0,0); stroke-width: 3" />
	<polygon points="295.614604616952,-279.462715134275 231.001143606319,-241.432358999702 232.886538989374,-166.481357567133 " style="fill: rgb(42,107,61); fill-opacity: 1; stroke: rgb(0,0,0); stroke-width: 3" />
	<polygon points="166.387682595685,-505.425430268544 231.001143606318,-543.455786403112 229.115748223266,-618.406787835682 " style="fill: rgb(42,107,61); fill-opacity: 1; stroke: rgb(0,0,0); stroke-width: 3" />
	<polygon points="430.442697691526,-502.128678684644 428.557302308477,-427.17767725208 493.170763319117,-389.147321117514 " style="fill: rgb(42,107,61); fill-opacity: 1; stroke: rgb(0,0,0); stroke-width: 3" />
	<polygon points="363.998856393691,-241.432358999704 299.385395383056,-279.462715134273 362.113461010639,-166.48135756714 " style="fill: rgb(42,107,61); fill-opacity: 1; stroke: rgb(0,0,0); stroke-width: 3" />
	<polygon points="166.387682595685,-505.425430268544 229.115748223266,-618.406787835682 164.502287212632,-580.376431701111 " style="fill: rgb(42,107,61); fill-opacity: 1; stroke: rgb(0,0,0); stroke-width: 3" />
	<polygon points="430.442697691526,-502.128678684644 493.170763319117,-389.147321117514 495.056158702163,-464.09832255008 " style="fill: rgb(42,107,61); fill-opacity: 1; stroke: rgb(0,0,0); stroke-width: 3" />
	<polygon points="99.9438412978434,-464.09832255008 164.557302308478,-502.128678684648 35.3303802872101,-502.128678684649 " style="fill: rgb(42,107,61); fill-opacity: 1; stroke: rgb(0,0,0); stroke-width: 3" />
	<polygon points="231.001143606319,-241.432358999702 166.387682595684,-279.462715134271 229.11574822327,-166.481357567132 " style="fill: rgb(42,107,61); fill-opacity: 1; stroke: rgb(0,0,0); stroke-width: 3" />
	<polygon points="363.99885639369,-543.455786403114 428.612317404325,-505.425430268546 365.884251776739,-618.406787835684 " style="fill: rgb(42,107,61); fill-opacity: 1; stroke: rgb(0,0,0); stroke-width: 3" />
	<polygon points="166.387682595685,-505.425430268544 164.502287212632,-580.376431701111 98.05844591479,-615.110036251785 " style="fill: rgb(42,107,61); fill-opacity: 1; stroke: rgb(0,0,0); stroke-width: 3" />
	<polygon points="166.387682595684,-279.462715134271 164.502287212633,-204.511713701705 229.11574822327,-166.481357567132 " style="fill: rgb(42,107,61); fill-opacity: 1; stroke: rgb(0,0,0); stroke-width: 3" />
	<polygon points="365.884251776739,-618.406787835684 428.612317404325,-505.425430268546 430.497712787376,-580.376431701112 " style="fill: rgb(42,107,61); fill-opacity: 1; stroke: rgb(0,0,0); stroke-width: 3" />
	<polygon points="101.829236680895,-389.147321117517 99.9438412978434,-464.09832255008 33.5,-498.831927100751 " style="fill: rgb(42,107,61); fill-opacity: 1; stroke: rgb(0,0,0); stroke-width: 3" />
	<polygon points="430.442697691526,-502.128678684644 495.056158702163,-464.09832255008 559.6696197128,-502.128678684655 " style="fill: rgb(42,107,61); fill-opacity: 1; stroke: rgb(0,0,0); stroke-width: 3" />
	<polygon points="428.612317404324,-279.462715134276 363.998856393691,-241.432358999704 365.884251776747,-166.481357567135 " style="fill: rgb(42,107,61); fill-opacity: 1; stroke: rgb(0,0,0); stroke-width: 3" />
	<polygon points="166.387682595684,-279.462715134271 98.0584459147953,-169.778109151036 164.502287212633,-204.511713701705 " style="fill: rgb(42,107,61); fill-opacity: 1; stroke: rgb(0,0,0); stroke-width: 3" />
	<polygon points="430.497712787376,-580.376431701112 428.612317404325,-505.425430268546 496.941554085214,-615.110036251781 " style="fill: rgb(42,107,61); fill-opacity: 1; stroke: rgb(0,0,0); stroke-width: 3" />
	<polygon points="430.497712787379,-204.511713701709 428.612317404324,-279.462715134276 365.884251776747,-166.481357567135 " style="fill: rgb(42,107,61); fill-opacity: 1; stroke: rgb(0,0,0); stroke-width: 3" />
	<polygon points="495.056158702163,-464.09832255008 493.170763319117,-389.147321117514 561.5,-498.831927100754 " style="fill: rgb(42,107,61); fill-opacity: 1; stroke: rgb(0,0,0); stroke-width: 3" />
	<polygon points="164.502287212632,-580.376431701111 229.115748223266,-618.406787835682 99.8888262019977,-618.406787835678 " style="fill: rgb(42,107,61); fill-opacity: 1; stroke: rgb(0,0,0); stroke-width: 3" />
	<polygon points="496.941554085226,-169.778109151037 428.612317404324,-279.462715134276 430.497712787379,-204.511713701709 " style="fill: rgb(42,107,61); fill-opacity: 1; stroke: rgb(0,0,0); stroke-width: 3" />
	<polygon points="99.8888262019977,-618.406787835678 229.115748223266,-618.406787835682 164.502287212631,-656.437143970251 " style="fill: rgb(42,107,61); fill-opacity: 1; stroke: rgb(0,0,0); stroke-width: 3" />
	<polygon points="365.884251776739,-618.406787835684 430.497712787376,-580.376431701112 495.111173798016,-618.406787835683 " style="fill: rgb(42,107,61); fill-opacity: 1; stroke: rgb(0,0,0); stroke-width: 3" />
	<polygon points="164.502287212633,-204.511713701705 99.8888262019961,-166.481357567134 229.11574822327,-166.481357567132 " style="fill: rgb(42,107,61); fill-opacity: 1; stroke: rgb(0,0,0); stroke-width: 3" />
	<polygon points="365.884251776739,-618.406787835684 495.111173798016,-618.406787835683 430.497712787381,-656.437143970252 " style="fill: rgb(42,107,61); fill-opacity: 1; stroke: rgb(0,0,0); stroke-width: 3" />
	<polygon points="229.11574822327,-166.481357567132 99.8888262019961,-166.481357567134 164.502287212631,-128.451001432565 " style="fill: rgb(42,107,61); fill-opacity: 1; stroke: rgb(0,0,0); stroke-width: 3" />
	<polygon points="495.111173798016,-166.481357567144 430.497712787379,-204.511713701709 365.884251776747,-166.481357567135 " style="fill: rgb(42,107,61); fill-opacity: 1; stroke: rgb(0,0,0); stroke-width: 3" />
	<polygon points="495.111173798016,-166.481357567144 365.884251776747,-166.481357567135 430.497712787382,-128.451001432566 " style="fill: rgb(42,107,61); fill-opacity: 1; stroke: rgb(0,0,0); stroke-width: 3" />
	<polygon points="164.502287212631,-656.437143970251 162.616891829574,-731.388145402822 99.8888262019977,-618.406787835678 " style="fill: rgb(42,107,61); fill-opacity: 1; stroke: rgb(0,0,0); stroke-width: 3" />
	<polygon points="99.8888262019961,-166.481357567134 162.616891829579,-53.5 164.502287212631,-128.451001432565 " style="fill: rgb(42,107,61); fill-opacity: 1; stroke: rgb(0,0,0); stroke-width: 3" />
	<circle cx="232.886538989369" cy="-392.444072701409" r="2" style="fill: rgb(0,0,0)" />
	<circle cx="362.113461010637" cy="-392.444072701409" r="2" style="fill: rgb(0,0,0)" />
	<circle cx="297.500000000003" cy="-430.474428835977" r="2" style="fill: rgb(0,0,0)" />
	<circle cx="297.500000000003" cy="-354.41371656684" r="2" style="fill: rgb(0,0,0)" />
	<circle cx="295.614604616953" cy="-505.425430268544" r="2" style="fill: rgb(0,0,0)" />
	<circle cx="299.385395383054" cy="-505.425430268542" r="2" style="fill: rgb(0,0,0)" />
	<circle cx="295.614604616952" cy="-279.462715134275" r="2" style="fill: rgb(0,0,0)" />
	<circle cx="299.385395383056" cy="-279.462715134273" r="2" style="fill: rgb(0,0,0)" />
	<circle cx="231.001143606318" cy="-467.395074133975" r="2" style="fill: rgb(0,0,0)" />
	<circle cx="363.998856393688" cy="-467.395074133975" r="2" style="fill: rgb(0,0,0)" />
	<circle cx="231.001143606318" cy="-317.493071268842" r="2" style="fill: rgb(0,0,0)" />
	<circle cx="363.99885639369" cy="-317.493071268843" r="2" style="fill: rgb(0,0,0)" />
	<circle cx="164.557302308478" cy="-502.128678684648" r="2" style="fill: rgb(0,0,0)" />
	<circle cx="166.387682595685" cy="-505.425430268544" r="2" style="fill: rgb(0,0,0)" />
	<circle cx="430.442697691526" cy="-502.128678684644" r="2" style="fill: rgb(0,0,0)" />
	<circle cx="428.612317404325" cy="-505.425430268546" r="2" style="fill: rgb(0,0,0)" />
	<circle cx="164.55730230848" cy="-282.759466718172" r="2" style="fill: rgb(0,0,0)" />
	<circle cx="166.387682595684" cy="-279.462715134271" r="2" style="fill: rgb(0,0,0)" />
	<circle cx="430.442697691534" cy="-282.759466718172" r="2" style="fill: rgb(0,0,0)" />
	<circle cx="428.612317404324" cy="-279.462715134276" r="2" style="fill: rgb(0,0,0)" />
	<circle cx="166.442697691529" cy="-427.177677252082" r="2" style="fill: rgb(0,0,0)" />
	<circle cx="231.001143606318" cy="-543.455786403112" r="2" style="fill: rgb(0,0,0)" />
	<circle cx="428.557302308477" cy="-427.17767725208" r="2" style="fill: rgb(0,0,0)" />
	<circle cx="363.99885639369" cy="-543.455786403114" r="2" style="fill: rgb(0,0,0)" />
	<circle cx="166.442697691529" cy="-357.710468150736" r="2" style="fill: rgb(0,0,0)" />
	<circle cx="231.001143606319" cy="-241.432358999702" r="2" style="fill: rgb(0,0,0)" />
	<circle cx="428.557302308479" cy="-357.710468150738" r="2" style="fill: rgb(0,0,0)" />
	<circle cx="363.998856393691" cy="-241.432358999704" r="2" style="fill: rgb(0,0,0)" />
	<circle cx="101.829236680895" cy="-389.147321117517" r="2" style="fill: rgb(0,0,0)" />
	<circle cx="232.88653898937" cy="-618.406787835677" r="2" style="fill: rgb(0,0,0)" />
	<circle cx="229.115748223266" cy="-618.406787835682" r="2" style="fill: rgb(0,0,0)" />
	<circle cx="493.170763319117" cy="-389.147321117514" r="2" style="fill: rgb(0,0,0)" />
	<circle cx="362.11346101064" cy="-618.406787835683" r="2" style="fill: rgb(0,0,0)" />
	<circle cx="365.884251776739" cy="-618.406787835684" r="2" style="fill: rgb(0,0,0)" />
	<circle cx="232.886538989374" cy="-166.481357567133" r="2" style="fill: rgb(0,0,0)" />
	<circle cx="229.11574822327" cy="-166.481357567132" r="2" style="fill: rgb(0,0,0)" />
	<circle cx="362.113461010639" cy="-166.48135756714" r="2" style="fill: rgb(0,0,0)" />
	<circle cx="365.884251776747" cy="-166.481357567135" r="2" style="fill: rgb(0,0,0)" />
	<circle cx="99.9438412978434" cy="-464.09832255008" r="2" style="fill: rgb(0,0,0)" />
	<circle cx="164.502287212632" cy="-580.376431701111" r="2" style="fill: rgb(0,0,0)" />
	<circle cx="495.056158702163" cy="-464.09832255008" r="2" style="fill: rgb(0,0,0)" />
	<circle cx="430.497712787376" cy="-580.376431701112" r="2" style="fill: rgb(0,0,0)" />
	<circle cx="164.502287212633" cy="-204.511713701705" r="2" style="fill: rgb(0,0,0)" />
	<circle cx="430.497712787379" cy="-204.511713701709" r="2" style="fill: rgb(0,0,0)" />
	<circle cx="35.3303802872101" cy="-502.128678684649" r="2" style="fill: rgb(0,0,0)" />
	<circle cx="33.5" cy="-498.831927100751" r="2" style="fill: rgb(0,0,0)" />
	<circle cx="98.05844591479" cy="-615.110036251785" r="2" style="fill: rgb(0,0,0)" />
	<circle cx="99.8888262019977" cy="-618.406787835678" r="2" style="fill: rgb(0,0,0)" />
	<circle cx="559.6696197128" cy="-502.128678684655" r="2" style="fill: rgb(0,0,0)" />
	<circle cx="561.5" cy="-498.831927100754" r="2" style="fill: rgb(0,0,0)" />
	<circle cx="496.941554085214" cy="-615.110036251781" r="2" style="fill: rgb(0,0,0)" />
	<circle cx="495.111173798016" cy="-618.406787835683" r="2" style="fill: rgb(0,0,0)" />
	<circle cx="98.0584459147953" cy="-169.778109151036" r="2" style="fill: rgb(0,0,0)" />
	<circle cx="99.8888262019961" cy="-166.481357567134" r="2" style="fill: rgb(0,0,0)" />
	<circle cx="496.941554085226" cy="-169.778109151037" r="2" style="fill: rgb(0,0,0)" />
	<circle cx="495.111173798016" cy="-166.481357567144" r="2" style="fill: rgb(0,0,0)" />
	<circle cx="164.502287212631" cy="-656.437143970251" r="2" style="fill: rgb(0,0,0)" />
	<circle cx="430.497712787381" cy="-656.437143970252" r="2" style="fill: rgb(0,0,0)" />
	<circle cx="164.502287212631" cy="-128.451001432565" r="2" style="fill: rgb(0,0,0)" />
	<circle cx="430.497712787382" cy="-128.451001432566" r="2" style="fill: rgb(0,0,0)" />
	<circle cx="162.616891829574" cy="-731.388145402822" r="2" style="fill: rgb(0,0,0)" />
	<circle cx="162.616891829579" cy="-53.5" r="2" style="fill: rgb(0,0,0)" />
	<!--
	Generated using the Perl SVG Module V2.86
	by Ronan Oger
	Info: http://www.roitsystems.com/
	-->
</svg>