<?xml version="1.0" encoding="UTF-8" standalone="yes"?>
<!DOCTYPE svg PUBLIC "-//W3C//DTD SVG 1.0//EN" "http://www.w3.org/TR/2001/REC-SVG-20010904/DTD/svg10.dtd">
<!-- generated using polymake; Michael Joswig, Georg Loho, Benjamin Lorenz, Rico Raber; license CC BY-NC-ND 3.0; see polymake.org and matchthenet.de -->
<svg height="841pt" id="document" viewBox="0 -811 515.120780099938 811" width="595pt" xmlns="http://www.w3.org/2000/svg" xmlns:svg="http://www.w3.org/2000/svg" xmlns:xlink="http://www.w3.org/1999/xlink">
	<title id="document_title">planar_net_</title>
	<polygon points="227.044433656991,-426.081474077526 301.74979657993,-426.081474077526 264.397115118461,-490.778216167728 " style="fill: rgb(61,81,50); fill-opacity: 1; stroke: rgb(0,0,0); stroke-width: 3" />
	<polygon points="354.574465293743,-373.256805363713 301.74979657993,-426.081474077526 227.044433656991,-426.081474077526 174.219764943178,-373.256805363713 174.219764943178,-298.551442440773 227.044433656991,-245.72677372696 301.74979657993,-245.72677372696 354.574465293743,-298.551442440773 " style="fill: rgb(61,81,50); fill-opacity: 1; stroke: rgb(0,0,0); stroke-width: 3" />
	<polygon points="174.219764943178,-373.256805363713 109.523022852975,-335.904123902242 174.219764943178,-298.551442440773 " style="fill: rgb(61,81,50); fill-opacity: 1; stroke: rgb(0,0,0); stroke-width: 3" />
	<polygon points="419.271207383946,-335.904123902242 354.574465293743,-373.256805363713 354.574465293743,-298.551442440773 " style="fill: rgb(61,81,50); fill-opacity: 1; stroke: rgb(0,0,0); stroke-width: 3" />
	<polygon points="482.104496930495,-245.726773726964 429.279828216681,-298.551442440777 354.574465293743,-298.551442440773 301.74979657993,-245.72677372696 301.749796579932,-171.021410804019 354.574465293745,-118.196742090205 429.279828216684,-118.196742090206 482.104496930496,-171.021410804022 " style="fill: rgb(61,81,50); fill-opacity: 1; stroke: rgb(0,0,0); stroke-width: 3" />
	<polygon points="301.74979657993,-245.72677372696 227.044433656991,-245.72677372696 264.397115118461,-181.030031636757 " style="fill: rgb(61,81,50); fill-opacity: 1; stroke: rgb(0,0,0); stroke-width: 3" />
	<polygon points="429.279828216684,-118.196742090206 354.574465293745,-118.196742090205 391.927146755216,-53.5 " style="fill: rgb(61,81,50); fill-opacity: 1; stroke: rgb(0,0,0); stroke-width: 3" />
	<polygon points="420.588867313981,-580.95556634301 457.941548775452,-516.258824252808 495.294230236923,-580.955566343011 " style="fill: rgb(61,81,50); fill-opacity: 1; stroke: rgb(0,0,0); stroke-width: 3" />
	<polygon points="99.5144020202376,-298.551442440771 46.6897333064244,-245.726773726958 46.6897333064245,-171.021410804019 99.5144020202379,-118.196742090208 174.219764943178,-118.19674209021 227.044433656992,-171.021410804023 227.044433656991,-245.72677372696 174.219764943178,-298.551442440773 " style="fill: rgb(61,81,50); fill-opacity: 1; stroke: rgb(0,0,0); stroke-width: 3" />
	<polygon points="70.8526814614708,-516.258824252808 108.205362922941,-580.955566343011 33.5,-580.955566343012 " style="fill: rgb(61,81,50); fill-opacity: 1; stroke: rgb(0,0,0); stroke-width: 3" />
	<polygon points="348.429027904415,-600.290737038762 420.588867313981,-580.95556634301 485.285609404185,-618.308247804482 504.620780099938,-690.468087214048 467.268098638466,-755.164829304249 395.108259228897,-774.5 330.411517138693,-737.147318538528 311.07634644294,-664.987479128962 " style="fill: rgb(61,81,50); fill-opacity: 1; stroke: rgb(0,0,0); stroke-width: 3" />
	<polygon points="283.732285814212,-562.938055577293 348.429027904415,-600.290737038762 283.732285814214,-637.643418500234 " style="fill: rgb(61,81,50); fill-opacity: 1; stroke: rgb(0,0,0); stroke-width: 3" />
	<polygon points="264.397115118461,-490.778216167728 301.74979657993,-426.081474077526 373.909635989497,-406.746303381773 438.606378079699,-444.098984843243 457.941548775452,-516.258824252808 420.588867313981,-580.95556634301 348.429027904415,-600.290737038762 283.732285814212,-562.938055577293 " style="fill: rgb(61,81,50); fill-opacity: 1; stroke: rgb(0,0,0); stroke-width: 3" />
	<polygon points="227.044433656991,-426.081474077526 264.397115118461,-490.778216167728 245.061944422709,-562.938055577294 180.365202332507,-600.290737038764 108.205362922941,-580.955566343011 70.8526814614708,-516.258824252808 90.1878521572229,-444.098984843242 154.884594247425,-406.746303381772 " style="fill: rgb(61,81,50); fill-opacity: 1; stroke: rgb(0,0,0); stroke-width: 3" />
	<circle cx="227.044433656991" cy="-426.081474077526" r="2" style="fill: rgb(0,0,0)" />
	<circle cx="301.74979657993" cy="-426.081474077526" r="2" style="fill: rgb(0,0,0)" />
	<circle cx="264.397115118461" cy="-490.778216167728" r="2" style="fill: rgb(0,0,0)" />
	<circle cx="174.219764943178" cy="-373.256805363713" r="2" style="fill: rgb(0,0,0)" />
	<circle cx="174.219764943178" cy="-298.551442440773" r="2" style="fill: rgb(0,0,0)" />
	<circle cx="227.044433656991" cy="-245.72677372696" r="2" style="fill: rgb(0,0,0)" />
	<circle cx="301.74979657993" cy="-245.72677372696" r="2" style="fill: rgb(0,0,0)" />
	<circle cx="354.574465293743" cy="-298.551442440773" r="2" style="fill: rgb(0,0,0)" />
	<circle cx="354.574465293743" cy="-373.256805363713" r="2" style="fill: rgb(0,0,0)" />
	<circle cx="373.909635989497" cy="-406.746303381773" r="2" style="fill: rgb(0,0,0)" />
	<circle cx="438.606378079699" cy="-444.098984843243" r="2" style="fill: rgb(0,0,0)" />
	<circle cx="457.941548775452" cy="-516.258824252808" r="2" style="fill: rgb(0,0,0)" />
	<circle cx="420.588867313981" cy="-580.95556634301" r="2" style="fill: rgb(0,0,0)" />
	<circle cx="348.429027904415" cy="-600.290737038762" r="2" style="fill: rgb(0,0,0)" />
	<circle cx="283.732285814212" cy="-562.938055577293" r="2" style="fill: rgb(0,0,0)" />
	<circle cx="245.061944422709" cy="-562.938055577294" r="2" style="fill: rgb(0,0,0)" />
	<circle cx="180.365202332507" cy="-600.290737038764" r="2" style="fill: rgb(0,0,0)" />
	<circle cx="108.205362922941" cy="-580.955566343011" r="2" style="fill: rgb(0,0,0)" />
	<circle cx="70.8526814614708" cy="-516.258824252808" r="2" style="fill: rgb(0,0,0)" />
	<circle cx="90.1878521572229" cy="-444.098984843242" r="2" style="fill: rgb(0,0,0)" />
	<circle cx="154.884594247425" cy="-406.746303381772" r="2" style="fill: rgb(0,0,0)" />
	<circle cx="109.523022852975" cy="-335.904123902242" r="2" style="fill: rgb(0,0,0)" />
	<circle cx="419.271207383946" cy="-335.904123902242" r="2" style="fill: rgb(0,0,0)" />
	<circle cx="301.749796579932" cy="-171.021410804019" r="2" style="fill: rgb(0,0,0)" />
	<circle cx="354.574465293745" cy="-118.196742090205" r="2" style="fill: rgb(0,0,0)" />
	<circle cx="429.279828216684" cy="-118.196742090206" r="2" style="fill: rgb(0,0,0)" />
	<circle cx="482.104496930496" cy="-171.021410804022" r="2" style="fill: rgb(0,0,0)" />
	<circle cx="482.104496930495" cy="-245.726773726964" r="2" style="fill: rgb(0,0,0)" />
	<circle cx="429.279828216681" cy="-298.551442440777" r="2" style="fill: rgb(0,0,0)" />
	<circle cx="264.397115118461" cy="-181.030031636757" r="2" style="fill: rgb(0,0,0)" />
	<circle cx="99.5144020202376" cy="-298.551442440771" r="2" style="fill: rgb(0,0,0)" />
	<circle cx="46.6897333064244" cy="-245.726773726958" r="2" style="fill: rgb(0,0,0)" />
	<circle cx="46.6897333064245" cy="-171.021410804019" r="2" style="fill: rgb(0,0,0)" />
	<circle cx="99.5144020202379" cy="-118.196742090208" r="2" style="fill: rgb(0,0,0)" />
	<circle cx="174.219764943178" cy="-118.19674209021" r="2" style="fill: rgb(0,0,0)" />
	<circle cx="227.044433656992" cy="-171.021410804023" r="2" style="fill: rgb(0,0,0)" />
	<circle cx="495.294230236923" cy="-580.955566343011" r="2" style="fill: rgb(0,0,0)" />
	<circle cx="485.285609404185" cy="-618.308247804482" r="2" style="fill: rgb(0,0,0)" />
	<circle cx="504.620780099938" cy="-690.468087214048" r="2" style="fill: rgb(0,0,0)" />
	<circle cx="467.268098638466" cy="-755.164829304249" r="2" style="fill: rgb(0,0,0)" />
	<circle cx="395.108259228897" cy="-774.5" r="2" style="fill: rgb(0,0,0)" />
	<circle cx="330.411517138693" cy="-737.147318538528" r="2" style="fill: rgb(0,0,0)" />
	<circle cx="311.07634644294" cy="-664.987479128962" r="2" style="fill: rgb(0,0,0)" />
	<circle cx="283.732285814214" cy="-637.643418500234" r="2" style="fill: rgb(0,0,0)" />
	<circle cx="33.5" cy="-580.955566343012" r="2" style="fill: rgb(0,0,0)" />
	<circle cx="391.927146755216" cy="-53.5" r="2" style="fill: rgb(0,0,0)" />
	<!--
	Generated using the Perl SVG Module V2.84
	by Ronan Oger
	Info: http://www.roitsystems.com/
	-->
</svg>