<?xml version="1.0" encoding="UTF-8" standalone="yes"?>
<!DOCTYPE svg PUBLIC "-//W3C//DTD SVG 1.0//EN" "http://www.w3.org/TR/2001/REC-SVG-20010904/DTD/svg10.dtd">
<!-- generated using polymake; Michael Joswig, Georg Loho, Benjamin Lorenz, Rico Raber; license CC BY-NC-ND 3.0; see polymake.org and matchthenet.de -->
<svg height="841pt" id="document" viewBox="0 -809.708218050372 572 809.708218050372" width="595pt" xmlns="http://www.w3.org/2000/svg" xmlns:svg="http://www.w3.org/2000/svg" xmlns:xlink="http://www.w3.org/1999/xlink">
	<title id="document_title">planar_net_</title>
	<polygon points="263.557283975049,-403.267252409532 319.795417260371,-403.267252409532 359.561782667696,-443.033617816857 359.561782667697,-499.271751102179 319.795417260374,-539.038116509503 263.557283975051,-539.038116509502 223.790918567726,-499.271751102178 223.790918567725,-443.033617816856 " style="fill: rgb(136,136,136); fill-opacity: 1; stroke: rgb(0,0,0); stroke-width: 3" />
	<polygon points="347.914483903011,-354.563600323017 319.795417260371,-403.267252409532 263.557283975049,-403.267252409532 235.438217332385,-354.563600323027 263.557283975028,-305.859948236513 319.795417260341,-305.859948236508 " style="fill: rgb(238,66,102); fill-opacity: 1; stroke: rgb(0,0,0); stroke-width: 3" />
	<polygon points="319.795417260374,-539.038116509503 359.561782667697,-499.271751102179 399.32814807503,-539.038116509509 359.56178266771,-578.804481916826 " style="fill: rgb(67,184,206); fill-opacity: 1; stroke: rgb(0,0,0); stroke-width: 3" />
	<polygon points="263.557283975051,-539.038116509502 319.795417260374,-539.038116509503 347.914483903038,-587.741768596009 319.795417260394,-636.445420682522 263.55728397508,-636.445420682526 235.43821733241,-587.741768596017 " style="fill: rgb(238,66,102); fill-opacity: 1; stroke: rgb(0,0,0); stroke-width: 3" />
	<polygon points="223.790918567726,-499.271751102178 263.557283975051,-539.038116509502 223.790918567726,-578.804481916838 184.024553160403,-539.038116509515 " style="fill: rgb(67,184,206); fill-opacity: 1; stroke: rgb(0,0,0); stroke-width: 3" />
	<polygon points="399.32814807503,-539.038116509509 455.566281360355,-539.038116509515 495.332646767685,-578.804481916835 495.33264676769,-635.042615202147 455.566281360367,-674.80898060946 399.328148075042,-674.808980609455 359.561782667712,-635.042615202134 359.56178266771,-578.804481916826 " style="fill: rgb(136,136,136); fill-opacity: 1; stroke: rgb(0,0,0); stroke-width: 3" />
	<polygon points="223.790918567725,-443.033617816856 223.790918567726,-499.271751102178 175.087266481221,-527.390817744844 126.383614394706,-499.271751102201 126.3836143947,-443.033617816887 175.087266481209,-414.914551174216 " style="fill: rgb(238,66,102); fill-opacity: 1; stroke: rgb(0,0,0); stroke-width: 3" />
	<polygon points="359.561782667697,-499.271751102179 359.561782667696,-443.033617816857 408.265434754201,-414.914551174192 456.969086840716,-443.033617816834 456.969086840722,-499.271751102147 408.265434754213,-527.390817744818 " style="fill: rgb(238,66,102); fill-opacity: 1; stroke: rgb(0,0,0); stroke-width: 3" />
	<polygon points="235.43821733241,-587.741768596017 263.55728397508,-636.445420682526 249.001784019829,-690.767286045113 200.298131933323,-718.886352687773 145.976266570736,-704.330852732509 117.857199928066,-655.627200645994 132.412699883317,-601.305335283407 181.116351969823,-573.186268640747 " style="fill: rgb(136,136,136); fill-opacity: 1; stroke: rgb(0,0,0); stroke-width: 3" />
	<polygon points="359.561782667696,-443.033617816857 319.795417260371,-403.267252409532 359.561782667699,-363.500887002205 399.328148075019,-403.26725240952 " style="fill: rgb(67,184,206); fill-opacity: 1; stroke: rgb(0,0,0); stroke-width: 3" />
	<polygon points="402.236349265595,-369.119100278281 347.914483903011,-354.563600323017 319.795417260341,-305.859948236508 334.350917215593,-251.538082873925 383.054569302099,-223.419016231266 437.376434664685,-237.974516186528 465.495501307353,-286.678168273039 450.940001352101,-341.000033635622 " style="fill: rgb(136,136,136); fill-opacity: 1; stroke: rgb(0,0,0); stroke-width: 3" />
	<polygon points="263.55728397508,-636.445420682526 319.795417260394,-636.445420682522 319.795417260398,-692.68355396786 263.557283975089,-692.683553967857 " style="fill: rgb(67,184,206); fill-opacity: 1; stroke: rgb(0,0,0); stroke-width: 3" />
	<polygon points="399.328148075042,-674.808980609455 455.566281360367,-674.80898060946 483.685348003032,-723.512632695968 455.566281360385,-772.216284782476 399.328148075067,-772.216284782474 371.209081432397,-723.512632695963 " style="fill: rgb(238,66,102); fill-opacity: 1; stroke: rgb(0,0,0); stroke-width: 3" />
	<polygon points="61.6190666426953,-286.678168273105 33.5,-237.974516186622 61.6190666426358,-189.270864100116 117.857199927967,-189.270864100092 145.976266570664,-237.974516186572 117.857199928021,-286.678168273085 " style="fill: rgb(238,66,102); fill-opacity: 1; stroke: rgb(0,0,0); stroke-width: 3" />
	<polygon points="263.557283975049,-403.267252409532 223.790918567725,-443.033617816856 184.024553160396,-403.267252409533 223.790918567713,-363.500887002208 " style="fill: rgb(67,184,206); fill-opacity: 1; stroke: rgb(0,0,0); stroke-width: 3" />
	<polygon points="126.3836143947,-443.033617816887 126.383614394706,-499.271751102201 70.1454811093736,-499.271751102214 70.1454811093697,-443.033617816902 " style="fill: rgb(67,184,206); fill-opacity: 1; stroke: rgb(0,0,0); stroke-width: 3" />
	<polygon points="456.969086840722,-499.271751102147 456.969086840716,-443.033617816834 513.207220126052,-443.03361781683 513.207220126052,-499.271751102133 " style="fill: rgb(67,184,206); fill-opacity: 1; stroke: rgb(0,0,0); stroke-width: 3" />
	<polygon points="181.116351969811,-369.1191002783 132.412699883296,-341.000033635657 117.857199928021,-286.678168273085 145.976266570664,-237.974516186572 200.298131933239,-223.419016231299 249.001784019754,-251.538082873942 263.557283975028,-305.859948236513 235.438217332385,-354.563600323027 " style="fill: rgb(136,136,136); fill-opacity: 1; stroke: rgb(0,0,0); stroke-width: 3" />
	<polygon points="465.495501307353,-286.678168273039 437.376434664685,-237.974516186528 465.495501307345,-189.270864100018 521.733634592671,-189.270864100004 549.852701235338,-237.974516186506 521.733634592678,-286.678168273022 " style="fill: rgb(238,66,102); fill-opacity: 1; stroke: rgb(0,0,0); stroke-width: 3" />
	<polygon points="455.566281360367,-674.80898060946 495.33264676769,-635.042615202147 535.099012175025,-674.808980609491 495.332646767698,-714.575346016789 " style="fill: rgb(67,184,206); fill-opacity: 1; stroke: rgb(0,0,0); stroke-width: 3" />
	<polygon points="383.054569302099,-223.419016231266 334.350917215593,-251.538082873925 285.647265129088,-223.419016231261 285.647265129071,-167.180882945939 334.350917215567,-139.061816303281 383.054569302079,-167.180882945945 " style="fill: rgb(238,66,102); fill-opacity: 1; stroke: rgb(0,0,0); stroke-width: 3" />
	<polygon points="425.729135900026,-149.504498692689 425.729135900033,-93.2663654073504 465.49550130736,-53.5000000000087 521.733634592681,-53.5 561.5,-93.2663654073295 561.499999999994,-149.504498692668 521.733634592671,-189.270864100004 465.495501307345,-189.270864100018 " style="fill: rgb(136,136,136); fill-opacity: 1; stroke: rgb(0,0,0); stroke-width: 3" />
	<polygon points="319.795417260341,-305.859948236508 263.557283975028,-305.859948236513 263.557283975027,-249.621814951183 319.795417260332,-249.621814951178 " style="fill: rgb(67,184,206); fill-opacity: 1; stroke: rgb(0,0,0); stroke-width: 3" />
	<polygon points="145.976266570736,-704.330852732509 200.298131933323,-718.886352687773 185.742631978058,-773.208218050372 131.420766615481,-758.652718095097 " style="fill: rgb(67,184,206); fill-opacity: 1; stroke: rgb(0,0,0); stroke-width: 3" />
	<polygon points="437.376434664685,-237.974516186528 383.054569302099,-223.419016231266 397.610069257365,-169.097150868675 451.931934619938,-183.652650823939 " style="fill: rgb(67,184,206); fill-opacity: 1; stroke: rgb(0,0,0); stroke-width: 3" />
	<polygon points="200.298131933239,-223.419016231299 145.976266570664,-237.974516186572 131.420766615382,-183.652650823986 185.742631977955,-169.097150868718 " style="fill: rgb(67,184,206); fill-opacity: 1; stroke: rgb(0,0,0); stroke-width: 3" />
	<circle cx="263.557283975049" cy="-403.267252409532" r="2" style="fill: rgb(0,0,0)" />
	<circle cx="319.795417260371" cy="-403.267252409532" r="2" style="fill: rgb(0,0,0)" />
	<circle cx="359.561782667696" cy="-443.033617816857" r="2" style="fill: rgb(0,0,0)" />
	<circle cx="359.561782667697" cy="-499.271751102179" r="2" style="fill: rgb(0,0,0)" />
	<circle cx="319.795417260374" cy="-539.038116509503" r="2" style="fill: rgb(0,0,0)" />
	<circle cx="263.557283975051" cy="-539.038116509502" r="2" style="fill: rgb(0,0,0)" />
	<circle cx="223.790918567726" cy="-499.271751102178" r="2" style="fill: rgb(0,0,0)" />
	<circle cx="223.790918567725" cy="-443.033617816856" r="2" style="fill: rgb(0,0,0)" />
	<circle cx="235.438217332385" cy="-354.563600323027" r="2" style="fill: rgb(0,0,0)" />
	<circle cx="263.557283975028" cy="-305.859948236513" r="2" style="fill: rgb(0,0,0)" />
	<circle cx="319.795417260341" cy="-305.859948236508" r="2" style="fill: rgb(0,0,0)" />
	<circle cx="347.914483903011" cy="-354.563600323017" r="2" style="fill: rgb(0,0,0)" />
	<circle cx="399.32814807503" cy="-539.038116509509" r="2" style="fill: rgb(0,0,0)" />
	<circle cx="359.56178266771" cy="-578.804481916826" r="2" style="fill: rgb(0,0,0)" />
	<circle cx="347.914483903038" cy="-587.741768596009" r="2" style="fill: rgb(0,0,0)" />
	<circle cx="319.795417260394" cy="-636.445420682522" r="2" style="fill: rgb(0,0,0)" />
	<circle cx="263.55728397508" cy="-636.445420682526" r="2" style="fill: rgb(0,0,0)" />
	<circle cx="235.43821733241" cy="-587.741768596017" r="2" style="fill: rgb(0,0,0)" />
	<circle cx="223.790918567726" cy="-578.804481916838" r="2" style="fill: rgb(0,0,0)" />
	<circle cx="184.024553160403" cy="-539.038116509515" r="2" style="fill: rgb(0,0,0)" />
	<circle cx="175.087266481221" cy="-527.390817744844" r="2" style="fill: rgb(0,0,0)" />
	<circle cx="126.383614394706" cy="-499.271751102201" r="2" style="fill: rgb(0,0,0)" />
	<circle cx="126.3836143947" cy="-443.033617816887" r="2" style="fill: rgb(0,0,0)" />
	<circle cx="175.087266481209" cy="-414.914551174216" r="2" style="fill: rgb(0,0,0)" />
	<circle cx="408.265434754201" cy="-414.914551174192" r="2" style="fill: rgb(0,0,0)" />
	<circle cx="456.969086840716" cy="-443.033617816834" r="2" style="fill: rgb(0,0,0)" />
	<circle cx="456.969086840722" cy="-499.271751102147" r="2" style="fill: rgb(0,0,0)" />
	<circle cx="408.265434754213" cy="-527.390817744818" r="2" style="fill: rgb(0,0,0)" />
	<circle cx="359.561782667699" cy="-363.500887002205" r="2" style="fill: rgb(0,0,0)" />
	<circle cx="399.328148075019" cy="-403.26725240952" r="2" style="fill: rgb(0,0,0)" />
	<circle cx="184.024553160396" cy="-403.267252409533" r="2" style="fill: rgb(0,0,0)" />
	<circle cx="223.790918567713" cy="-363.500887002208" r="2" style="fill: rgb(0,0,0)" />
	<circle cx="334.350917215593" cy="-251.538082873925" r="2" style="fill: rgb(0,0,0)" />
	<circle cx="383.054569302099" cy="-223.419016231266" r="2" style="fill: rgb(0,0,0)" />
	<circle cx="437.376434664685" cy="-237.974516186528" r="2" style="fill: rgb(0,0,0)" />
	<circle cx="465.495501307353" cy="-286.678168273039" r="2" style="fill: rgb(0,0,0)" />
	<circle cx="450.940001352101" cy="-341.000033635622" r="2" style="fill: rgb(0,0,0)" />
	<circle cx="402.236349265595" cy="-369.119100278281" r="2" style="fill: rgb(0,0,0)" />
	<circle cx="181.116351969811" cy="-369.1191002783" r="2" style="fill: rgb(0,0,0)" />
	<circle cx="132.412699883296" cy="-341.000033635657" r="2" style="fill: rgb(0,0,0)" />
	<circle cx="117.857199928021" cy="-286.678168273085" r="2" style="fill: rgb(0,0,0)" />
	<circle cx="145.976266570664" cy="-237.974516186572" r="2" style="fill: rgb(0,0,0)" />
	<circle cx="200.298131933239" cy="-223.419016231299" r="2" style="fill: rgb(0,0,0)" />
	<circle cx="249.001784019754" cy="-251.538082873942" r="2" style="fill: rgb(0,0,0)" />
	<circle cx="263.557283975027" cy="-249.621814951183" r="2" style="fill: rgb(0,0,0)" />
	<circle cx="319.795417260332" cy="-249.621814951178" r="2" style="fill: rgb(0,0,0)" />
	<circle cx="455.566281360355" cy="-539.038116509515" r="2" style="fill: rgb(0,0,0)" />
	<circle cx="495.332646767685" cy="-578.804481916835" r="2" style="fill: rgb(0,0,0)" />
	<circle cx="495.33264676769" cy="-635.042615202147" r="2" style="fill: rgb(0,0,0)" />
	<circle cx="455.566281360367" cy="-674.80898060946" r="2" style="fill: rgb(0,0,0)" />
	<circle cx="399.328148075042" cy="-674.808980609455" r="2" style="fill: rgb(0,0,0)" />
	<circle cx="359.561782667712" cy="-635.042615202134" r="2" style="fill: rgb(0,0,0)" />
	<circle cx="249.001784019829" cy="-690.767286045113" r="2" style="fill: rgb(0,0,0)" />
	<circle cx="200.298131933323" cy="-718.886352687773" r="2" style="fill: rgb(0,0,0)" />
	<circle cx="145.976266570736" cy="-704.330852732509" r="2" style="fill: rgb(0,0,0)" />
	<circle cx="117.857199928066" cy="-655.627200645994" r="2" style="fill: rgb(0,0,0)" />
	<circle cx="132.412699883317" cy="-601.305335283407" r="2" style="fill: rgb(0,0,0)" />
	<circle cx="181.116351969823" cy="-573.186268640747" r="2" style="fill: rgb(0,0,0)" />
	<circle cx="319.795417260398" cy="-692.68355396786" r="2" style="fill: rgb(0,0,0)" />
	<circle cx="263.557283975089" cy="-692.683553967857" r="2" style="fill: rgb(0,0,0)" />
	<circle cx="70.1454811093736" cy="-499.271751102214" r="2" style="fill: rgb(0,0,0)" />
	<circle cx="70.1454811093697" cy="-443.033617816902" r="2" style="fill: rgb(0,0,0)" />
	<circle cx="513.207220126052" cy="-443.03361781683" r="2" style="fill: rgb(0,0,0)" />
	<circle cx="513.207220126052" cy="-499.271751102133" r="2" style="fill: rgb(0,0,0)" />
	<circle cx="465.495501307345" cy="-189.270864100018" r="2" style="fill: rgb(0,0,0)" />
	<circle cx="521.733634592671" cy="-189.270864100004" r="2" style="fill: rgb(0,0,0)" />
	<circle cx="549.852701235338" cy="-237.974516186506" r="2" style="fill: rgb(0,0,0)" />
	<circle cx="521.733634592678" cy="-286.678168273022" r="2" style="fill: rgb(0,0,0)" />
	<circle cx="285.647265129088" cy="-223.419016231261" r="2" style="fill: rgb(0,0,0)" />
	<circle cx="285.647265129071" cy="-167.180882945939" r="2" style="fill: rgb(0,0,0)" />
	<circle cx="334.350917215567" cy="-139.061816303281" r="2" style="fill: rgb(0,0,0)" />
	<circle cx="383.054569302079" cy="-167.180882945945" r="2" style="fill: rgb(0,0,0)" />
	<circle cx="397.610069257365" cy="-169.097150868675" r="2" style="fill: rgb(0,0,0)" />
	<circle cx="451.931934619938" cy="-183.652650823939" r="2" style="fill: rgb(0,0,0)" />
	<circle cx="61.6190666426953" cy="-286.678168273105" r="2" style="fill: rgb(0,0,0)" />
	<circle cx="33.5" cy="-237.974516186622" r="2" style="fill: rgb(0,0,0)" />
	<circle cx="61.6190666426358" cy="-189.270864100116" r="2" style="fill: rgb(0,0,0)" />
	<circle cx="117.857199927967" cy="-189.270864100092" r="2" style="fill: rgb(0,0,0)" />
	<circle cx="131.420766615382" cy="-183.652650823986" r="2" style="fill: rgb(0,0,0)" />
	<circle cx="185.742631977955" cy="-169.097150868718" r="2" style="fill: rgb(0,0,0)" />
	<circle cx="483.685348003032" cy="-723.512632695968" r="2" style="fill: rgb(0,0,0)" />
	<circle cx="455.566281360385" cy="-772.216284782476" r="2" style="fill: rgb(0,0,0)" />
	<circle cx="399.328148075067" cy="-772.216284782474" r="2" style="fill: rgb(0,0,0)" />
	<circle cx="371.209081432397" cy="-723.512632695963" r="2" style="fill: rgb(0,0,0)" />
	<circle cx="535.099012175025" cy="-674.808980609491" r="2" style="fill: rgb(0,0,0)" />
	<circle cx="495.332646767698" cy="-714.575346016789" r="2" style="fill: rgb(0,0,0)" />
	<circle cx="185.742631978058" cy="-773.208218050372" r="2" style="fill: rgb(0,0,0)" />
	<circle cx="131.420766615481" cy="-758.652718095097" r="2" style="fill: rgb(0,0,0)" />
	<circle cx="425.729135900026" cy="-149.504498692689" r="2" style="fill: rgb(0,0,0)" />
	<circle cx="425.729135900033" cy="-93.2663654073504" r="2" style="fill: rgb(0,0,0)" />
	<circle cx="465.49550130736" cy="-53.5000000000087" r="2" style="fill: rgb(0,0,0)" />
	<circle cx="521.733634592681" cy="-53.5" r="2" style="fill: rgb(0,0,0)" />
	<circle cx="561.5" cy="-93.2663654073295" r="2" style="fill: rgb(0,0,0)" />
	<circle cx="561.499999999994" cy="-149.504498692668" r="2" style="fill: rgb(0,0,0)" />
	<!--
	Generated using the Perl SVG Module V2.87
	by Ronan Oger

	-->
</svg>