<?xml version="1.0" encoding="UTF-8" standalone="yes"?>
<!DOCTYPE svg PUBLIC "-//W3C//DTD SVG 1.0//EN" "http://www.w3.org/TR/2001/REC-SVG-20010904/DTD/svg10.dtd">
<!-- generated using polymake; Michael Joswig, Georg Loho, Benjamin Lorenz, Rico Raber; license CC BY-NC-ND 3.0; see polymake.org and matchthenet.de -->
<svg height="841pt" id="document" viewBox="0 -725.753126007918 572 725.753126007918" width="595pt" xmlns="http://www.w3.org/2000/svg" xmlns:svg="http://www.w3.org/2000/svg" xmlns:xlink="http://www.w3.org/1999/xlink">
	<title id="document_title">planar_net_</title>
	<polygon points="237.838042759429,-355.844615989102 299.06707758996,-355.844615989102 298.381223536968,-394.817598571942 " style="fill: rgb(14,173,105); fill-opacity: 1; stroke: rgb(0,0,0); stroke-width: 3" />
	<polygon points="298.381223536972,-316.87163340626 299.06707758996,-355.844615989102 237.838042759429,-355.844615989102 " style="fill: rgb(14,173,105); fill-opacity: 1; stroke: rgb(0,0,0); stroke-width: 3" />
	<polygon points="237.838042759429,-355.844615989102 298.381223536968,-394.817598571942 263.189864672263,-411.578625641902 " style="fill: rgb(14,173,105); fill-opacity: 1; stroke: rgb(0,0,0); stroke-width: 3" />
	<polygon points="298.381223536968,-394.817598571942 299.06707758996,-355.844615989102 360.258199340896,-357.998989480559 " style="fill: rgb(14,173,105); fill-opacity: 1; stroke: rgb(0,0,0); stroke-width: 3" />
	<polygon points="237.838042759429,-355.844615989102 263.189864672263,-411.578625641902 227.430551409524,-427.091049119932 " style="fill: rgb(14,173,105); fill-opacity: 1; stroke: rgb(0,0,0); stroke-width: 3" />
	<polygon points="360.258199340893,-353.690242497648 299.06707758996,-355.844615989102 298.381223536972,-316.87163340626 " style="fill: rgb(14,173,105); fill-opacity: 1; stroke: rgb(0,0,0); stroke-width: 3" />
	<polygon points="298.381223536972,-316.87163340626 237.838042759429,-355.844615989102 263.189864672265,-300.1106063363 " style="fill: rgb(14,173,105); fill-opacity: 1; stroke: rgb(0,0,0); stroke-width: 3" />
	<polygon points="298.381223536968,-394.817598571942 360.258199340896,-357.998989480559 332.961046954436,-412.80647234439 " style="fill: rgb(14,173,105); fill-opacity: 1; stroke: rgb(0,0,0); stroke-width: 3" />
	<polygon points="263.189864672263,-411.578625641902 298.381223536968,-394.817598571942 290.487017058722,-466.386108505728 " style="fill: rgb(14,173,105); fill-opacity: 1; stroke: rgb(0,0,0); stroke-width: 3" />
	<polygon points="263.189864672265,-300.1106063363 237.838042759429,-355.844615989102 227.430551409526,-284.598182858267 " style="fill: rgb(14,173,105); fill-opacity: 1; stroke: rgb(0,0,0); stroke-width: 3" />
	<polygon points="332.961046954436,-412.80647234439 360.258199340896,-357.998989480559 368.152405819141,-429.567499414353 " style="fill: rgb(14,173,105); fill-opacity: 1; stroke: rgb(0,0,0); stroke-width: 3" />
	<polygon points="263.189864672263,-411.578625641902 286.564960364511,-468.170140974651 227.430551409524,-427.091049119932 " style="fill: rgb(14,173,105); fill-opacity: 1; stroke: rgb(0,0,0); stroke-width: 3" />
	<polygon points="237.838042759429,-355.844615989102 227.430551409524,-427.091049119932 197.602802003194,-401.997840227135 " style="fill: rgb(14,173,105); fill-opacity: 1; stroke: rgb(0,0,0); stroke-width: 3" />
	<polygon points="360.258199340893,-353.690242497648 298.381223536972,-316.87163340626 332.961046954446,-298.882759633819 " style="fill: rgb(14,173,105); fill-opacity: 1; stroke: rgb(0,0,0); stroke-width: 3" />
	<polygon points="298.381223536968,-394.817598571942 329.073420380096,-418.845765795582 290.487017058722,-466.386108505728 " style="fill: rgb(14,173,105); fill-opacity: 1; stroke: rgb(0,0,0); stroke-width: 3" />
	<polygon points="298.381223536972,-316.87163340626 263.189864672265,-300.1106063363 290.487017058724,-245.30312347247 " style="fill: rgb(14,173,105); fill-opacity: 1; stroke: rgb(0,0,0); stroke-width: 3" />
	<polygon points="237.838042759429,-355.844615989102 197.602802003194,-401.997840227135 168.676438778179,-375.870665145261 " style="fill: rgb(14,173,105); fill-opacity: 1; stroke: rgb(0,0,0); stroke-width: 3" />
	<polygon points="360.258199340893,-353.690242497648 332.961046954446,-298.882759633819 368.152405819155,-282.121732563864 " style="fill: rgb(14,173,105); fill-opacity: 1; stroke: rgb(0,0,0); stroke-width: 3" />
	<polygon points="329.073420380096,-418.845765795582 358.901169786427,-443.93897468838 290.487017058722,-466.386108505728 " style="fill: rgb(14,173,105); fill-opacity: 1; stroke: rgb(0,0,0); stroke-width: 3" />
	<polygon points="263.189864672265,-300.1106063363 227.430551409526,-284.598182858267 286.564960364511,-243.519091003553 " style="fill: rgb(14,173,105); fill-opacity: 1; stroke: rgb(0,0,0); stroke-width: 3" />
	<polygon points="227.430551409526,-284.598182858267 237.838042759429,-355.844615989102 197.602802003194,-309.691391751065 " style="fill: rgb(14,173,105); fill-opacity: 1; stroke: rgb(0,0,0); stroke-width: 3" />
	<polygon points="368.152405819141,-429.567499414353 360.258199340896,-357.998989480559 398.844602662269,-405.539332190714 " style="fill: rgb(14,173,105); fill-opacity: 1; stroke: rgb(0,0,0); stroke-width: 3" />
	<polygon points="227.430551409524,-427.091049119932 286.564960364511,-468.170140974651 225.373838613573,-466.015767483193 " style="fill: rgb(14,173,105); fill-opacity: 1; stroke: rgb(0,0,0); stroke-width: 3" />
	<polygon points="332.961046954446,-298.882759633819 298.381223536972,-316.87163340626 303.752368942479,-245.069677255355 " style="fill: rgb(14,173,105); fill-opacity: 1; stroke: rgb(0,0,0); stroke-width: 3" />
	<polygon points="197.602802003194,-401.997840227135 227.430551409524,-427.091049119932 159.016398681823,-449.538182937287 " style="fill: rgb(14,173,105); fill-opacity: 1; stroke: rgb(0,0,0); stroke-width: 3" />
	<polygon points="237.838042759429,-355.844615989102 168.676438778176,-335.818566832938 197.602802003194,-309.691391751065 " style="fill: rgb(14,173,105); fill-opacity: 1; stroke: rgb(0,0,0); stroke-width: 3" />
	<polygon points="398.844602662269,-405.539332190714 360.258199340896,-357.998989480559 428.672352068605,-380.446123297921 " style="fill: rgb(14,173,105); fill-opacity: 1; stroke: rgb(0,0,0); stroke-width: 3" />
	<polygon points="225.373838613573,-466.015767483193 286.564960364511,-468.170140974651 224.687984560577,-504.988750066035 " style="fill: rgb(14,173,105); fill-opacity: 1; stroke: rgb(0,0,0); stroke-width: 3" />
	<polygon points="332.961046954446,-298.882759633819 307.609225041625,-243.148749981013 368.152405819155,-282.121732563864 " style="fill: rgb(14,173,105); fill-opacity: 1; stroke: rgb(0,0,0); stroke-width: 3" />
	<polygon points="197.602802003194,-401.997840227135 155.768551214719,-446.706789747847 168.676438778179,-375.870665145261 " style="fill: rgb(14,173,105); fill-opacity: 1; stroke: rgb(0,0,0); stroke-width: 3" />
	<polygon points="360.258199340893,-353.690242497648 368.152405819155,-282.121732563864 398.844602662278,-306.149899787509 " style="fill: rgb(14,173,105); fill-opacity: 1; stroke: rgb(0,0,0); stroke-width: 3" />
	<polygon points="290.487017058722,-466.386108505728 358.901169786427,-443.93897468838 349.737494463863,-481.825526679384 " style="fill: rgb(14,173,105); fill-opacity: 1; stroke: rgb(0,0,0); stroke-width: 3" />
	<polygon points="286.564960364511,-243.519091003553 227.430551409526,-284.598182858267 225.373838613581,-245.673464495003 " style="fill: rgb(14,173,105); fill-opacity: 1; stroke: rgb(0,0,0); stroke-width: 3" />
	<polygon points="227.430551409524,-427.091049119932 225.373838613573,-466.015767483193 164.296409149794,-461.709688480717 " style="fill: rgb(14,173,105); fill-opacity: 1; stroke: rgb(0,0,0); stroke-width: 3" />
	<polygon points="227.430551409526,-284.598182858267 197.602802003194,-309.691391751065 159.01639868182,-262.151049040911 " style="fill: rgb(14,173,105); fill-opacity: 1; stroke: rgb(0,0,0); stroke-width: 3" />
	<polygon points="368.152405819141,-429.567499414353 398.844602662269,-405.539332190714 435.734383069737,-454.407919317493 " style="fill: rgb(14,173,105); fill-opacity: 1; stroke: rgb(0,0,0); stroke-width: 3" />
	<polygon points="360.258199340893,-353.690242497648 398.844602662278,-306.149899787509 428.672352068606,-331.243108680312 " style="fill: rgb(14,173,105); fill-opacity: 1; stroke: rgb(0,0,0); stroke-width: 3" />
	<polygon points="290.487017058722,-466.386108505728 349.737494463863,-481.825526679384 339.246436464679,-519.366190888243 " style="fill: rgb(14,173,105); fill-opacity: 1; stroke: rgb(0,0,0); stroke-width: 3" />
	<polygon points="286.564960364511,-243.519091003553 225.373838613581,-245.673464495003 224.687984560591,-206.700481912161 " style="fill: rgb(14,173,105); fill-opacity: 1; stroke: rgb(0,0,0); stroke-width: 3" />
	<polygon points="225.373838613573,-466.015767483193 224.687984560577,-504.988750066035 164.144803783044,-466.015767483195 " style="fill: rgb(14,173,105); fill-opacity: 1; stroke: rgb(0,0,0); stroke-width: 3" />
	<polygon points="197.602802003194,-309.691391751065 168.676438778176,-335.818566832938 155.768551214721,-264.982442230355 " style="fill: rgb(14,173,105); fill-opacity: 1; stroke: rgb(0,0,0); stroke-width: 3" />
	<polygon points="398.844602662269,-405.539332190714 428.672352068605,-380.446123297921 439.079843418504,-451.692556428747 " style="fill: rgb(14,173,105); fill-opacity: 1; stroke: rgb(0,0,0); stroke-width: 3" />
	<polygon points="224.687984560577,-504.988750066035 286.564960364511,-468.170140974651 259.267807978048,-522.977623838481 " style="fill: rgb(14,173,105); fill-opacity: 1; stroke: rgb(0,0,0); stroke-width: 3" />
	<polygon points="368.152405819155,-282.121732563864 307.609225041625,-243.148749981013 368.838259872158,-243.148749981025 " style="fill: rgb(14,173,105); fill-opacity: 1; stroke: rgb(0,0,0); stroke-width: 3" />
	<polygon points="168.676438778179,-375.870665145261 155.768551214719,-446.706789747847 132.393455522471,-390.115274415095 " style="fill: rgb(14,173,105); fill-opacity: 1; stroke: rgb(0,0,0); stroke-width: 3" />
	<polygon points="227.430551409526,-284.598182858267 164.296409149804,-249.979543497474 225.373838613581,-245.673464495003 " style="fill: rgb(14,173,105); fill-opacity: 1; stroke: rgb(0,0,0); stroke-width: 3" />
	<polygon points="358.901169786427,-443.93897468838 409.494527382361,-495.17062776764 349.737494463863,-481.825526679384 " style="fill: rgb(14,173,105); fill-opacity: 1; stroke: rgb(0,0,0); stroke-width: 3" />
	<polygon points="398.844602662278,-306.149899787509 368.152405819155,-282.121732563864 435.734383069751,-257.28131266074 " style="fill: rgb(14,173,105); fill-opacity: 1; stroke: rgb(0,0,0); stroke-width: 3" />
	<polygon points="286.564960364511,-468.170140974651 294.459166842753,-539.738650908446 259.267807978048,-522.977623838481 " style="fill: rgb(14,173,105); fill-opacity: 1; stroke: rgb(0,0,0); stroke-width: 3" />
	<polygon points="368.838259872158,-243.148749981025 307.609225041625,-243.148749981013 368.152405819167,-204.175767398171 " style="fill: rgb(14,173,105); fill-opacity: 1; stroke: rgb(0,0,0); stroke-width: 3" />
	<polygon points="132.393455522471,-390.115274415095 155.768551214719,-446.706789747847 96.6341422597298,-405.627697893122 " style="fill: rgb(14,173,105); fill-opacity: 1; stroke: rgb(0,0,0); stroke-width: 3" />
	<polygon points="225.373838613581,-245.673464495003 164.144803783049,-245.673464494993 224.687984560591,-206.700481912161 " style="fill: rgb(14,173,105); fill-opacity: 1; stroke: rgb(0,0,0); stroke-width: 3" />
	<polygon points="349.737494463863,-481.825526679384 408.408040445933,-499.340141732093 339.246436464679,-519.366190888243 " style="fill: rgb(14,173,105); fill-opacity: 1; stroke: rgb(0,0,0); stroke-width: 3" />
	<polygon points="398.844602662278,-306.149899787509 439.079843418527,-259.996675549484 428.672352068606,-331.243108680312 " style="fill: rgb(14,173,105); fill-opacity: 1; stroke: rgb(0,0,0); stroke-width: 3" />
	<polygon points="286.564960364511,-243.519091003553 224.687984560591,-206.700481912161 259.267807978065,-188.711608139721 " style="fill: rgb(14,173,105); fill-opacity: 1; stroke: rgb(0,0,0); stroke-width: 3" />
	<polygon points="164.144803783044,-466.015767483195 224.687984560577,-504.988750066035 189.49662569587,-521.749777135994 " style="fill: rgb(14,173,105); fill-opacity: 1; stroke: rgb(0,0,0); stroke-width: 3" />
	<polygon points="168.676438778176,-335.818566832938 132.393455522468,-321.573957563096 155.768551214721,-264.982442230355 " style="fill: rgb(14,173,105); fill-opacity: 1; stroke: rgb(0,0,0); stroke-width: 3" />
	<polygon points="439.079843418504,-451.692556428747 428.672352068605,-380.446123297921 464.431665331343,-395.958546775954 " style="fill: rgb(14,173,105); fill-opacity: 1; stroke: rgb(0,0,0); stroke-width: 3" />
	<polygon points="368.152405819155,-282.121732563864 368.838259872158,-243.148749981025 430.029381623095,-245.303123472498 " style="fill: rgb(14,173,105); fill-opacity: 1; stroke: rgb(0,0,0); stroke-width: 3" />
	<polygon points="224.687984560577,-504.988750066035 259.267807978048,-522.977623838481 230.059129966075,-576.790706216947 " style="fill: rgb(14,173,105); fill-opacity: 1; stroke: rgb(0,0,0); stroke-width: 3" />
	<polygon points="368.152405819167,-204.175767398171 307.609225041625,-243.148749981013 332.96104695446,-187.414740328212 " style="fill: rgb(14,173,105); fill-opacity: 1; stroke: rgb(0,0,0); stroke-width: 3" />
	<polygon points="164.144803783044,-466.015767483195 189.49662569587,-521.749777135994 153.737312433129,-537.262200614022 " style="fill: rgb(14,173,105); fill-opacity: 1; stroke: rgb(0,0,0); stroke-width: 3" />
	<polygon points="132.393455522468,-321.573957563096 96.6341422597295,-306.061534085062 155.768551214721,-264.982442230355 " style="fill: rgb(14,173,105); fill-opacity: 1; stroke: rgb(0,0,0); stroke-width: 3" />
	<polygon points="439.079843418504,-451.692556428747 464.431665331343,-395.958546775954 499.62302419605,-412.71957384592 " style="fill: rgb(14,173,105); fill-opacity: 1; stroke: rgb(0,0,0); stroke-width: 3" />
	<polygon points="368.838259872158,-243.148749981025 368.152405819167,-204.175767398171 430.029381623092,-240.994376489554 " style="fill: rgb(14,173,105); fill-opacity: 1; stroke: rgb(0,0,0); stroke-width: 3" />
	<polygon points="259.267807978048,-522.977623838481 294.459166842753,-539.738650908446 233.915986065215,-578.711633491279 " style="fill: rgb(14,173,105); fill-opacity: 1; stroke: rgb(0,0,0); stroke-width: 3" />
	<polygon points="96.6341422597298,-405.627697893122 155.768551214719,-446.706789747847 94.5774294637818,-444.552416256387 " style="fill: rgb(14,173,105); fill-opacity: 1; stroke: rgb(0,0,0); stroke-width: 3" />
	<polygon points="224.687984560591,-206.700481912161 164.144803783049,-245.673464494993 189.496625695891,-189.939454842195 " style="fill: rgb(14,173,105); fill-opacity: 1; stroke: rgb(0,0,0); stroke-width: 3" />
	<polygon points="339.246436464679,-519.366190888243 408.408040445933,-499.340141732093 368.172799689688,-545.493365970122 " style="fill: rgb(14,173,105); fill-opacity: 1; stroke: rgb(0,0,0); stroke-width: 3" />
	<polygon points="428.672352068606,-331.243108680312 439.079843418527,-259.996675549484 464.431665331347,-315.730685202293 " style="fill: rgb(14,173,105); fill-opacity: 1; stroke: rgb(0,0,0); stroke-width: 3" />
	<polygon points="224.687984560577,-504.988750066035 216.793778082328,-576.557259999821 189.49662569587,-521.749777135994 " style="fill: rgb(14,173,105); fill-opacity: 1; stroke: rgb(0,0,0); stroke-width: 3" />
	<polygon points="259.267807978065,-188.711608139721 224.687984560591,-206.700481912161 230.059129966099,-134.898525761256 " style="fill: rgb(14,173,105); fill-opacity: 1; stroke: rgb(0,0,0); stroke-width: 3" />
	<polygon points="164.144803783044,-466.015767483195 153.737312433129,-537.262200614022 123.909563026801,-512.168991721222 " style="fill: rgb(14,173,105); fill-opacity: 1; stroke: rgb(0,0,0); stroke-width: 3" />
	<polygon points="189.496625695891,-189.939454842195 164.144803783049,-245.673464494993 153.737312433154,-174.427031364158 " style="fill: rgb(14,173,105); fill-opacity: 1; stroke: rgb(0,0,0); stroke-width: 3" />
	<polygon points="368.172799689688,-545.493365970122 408.408040445933,-499.340141732093 398.000549096015,-570.586574862925 " style="fill: rgb(14,173,105); fill-opacity: 1; stroke: rgb(0,0,0); stroke-width: 3" />
	<polygon points="464.431665331347,-315.730685202293 439.079843418527,-259.996675549484 499.623024196059,-298.969658132344 " style="fill: rgb(14,173,105); fill-opacity: 1; stroke: rgb(0,0,0); stroke-width: 3" />
	<polygon points="189.49662569587,-521.749777135994 212.871721388113,-578.341292468747 153.737312433129,-537.262200614022 " style="fill: rgb(14,173,105); fill-opacity: 1; stroke: rgb(0,0,0); stroke-width: 3" />
	<polygon points="368.152405819167,-204.175767398171 332.96104695446,-187.414740328212 360.25819934092,-132.60725746438 " style="fill: rgb(14,173,105); fill-opacity: 1; stroke: rgb(0,0,0); stroke-width: 3" />
	<polygon points="155.768551214721,-264.982442230355 96.6341422597295,-306.061534085062 94.5774294637888,-267.136815721798 " style="fill: rgb(14,173,105); fill-opacity: 1; stroke: rgb(0,0,0); stroke-width: 3" />
	<polygon points="439.079843418504,-451.692556428747 499.62302419605,-412.71957384592 500.308878249035,-451.692556428761 " style="fill: rgb(14,173,105); fill-opacity: 1; stroke: rgb(0,0,0); stroke-width: 3" />
	<polygon points="430.029381623092,-240.994376489554 368.152405819167,-204.175767398171 402.73222923664,-186.186893625727 " style="fill: rgb(14,173,105); fill-opacity: 1; stroke: rgb(0,0,0); stroke-width: 3" />
	<polygon points="294.459166842753,-539.738650908446 295.145020895742,-578.711633491288 233.915986065215,-578.711633491279 " style="fill: rgb(14,173,105); fill-opacity: 1; stroke: rgb(0,0,0); stroke-width: 3" />
	<polygon points="224.687984560591,-206.700481912161 189.496625695891,-189.939454842195 216.793778082361,-135.131971978369 " style="fill: rgb(14,173,105); fill-opacity: 1; stroke: rgb(0,0,0); stroke-width: 3" />
	<polygon points="96.6341422597298,-405.627697893122 94.5774294637818,-444.552416256387 33.5,-440.246337253915 " style="fill: rgb(14,173,105); fill-opacity: 1; stroke: rgb(0,0,0); stroke-width: 3" />
	<polygon points="164.144803783049,-245.673464494993 123.909563026819,-199.520240256952 153.737312433154,-174.427031364158 " style="fill: rgb(14,173,105); fill-opacity: 1; stroke: rgb(0,0,0); stroke-width: 3" />
	<polygon points="408.408040445933,-499.340141732093 433.759862358756,-555.0741513849 398.000549096015,-570.586574862925 " style="fill: rgb(14,173,105); fill-opacity: 1; stroke: rgb(0,0,0); stroke-width: 3" />
	<polygon points="430.029381623092,-240.994376489554 402.73222923664,-186.186893625727 437.923588101349,-169.425866555766 " style="fill: rgb(14,173,105); fill-opacity: 1; stroke: rgb(0,0,0); stroke-width: 3" />
	<polygon points="295.145020895742,-578.711633491288 294.45916684275,-617.684616074132 233.915986065215,-578.711633491279 " style="fill: rgb(14,173,105); fill-opacity: 1; stroke: rgb(0,0,0); stroke-width: 3" />
	<polygon points="189.496625695891,-189.939454842195 153.737312433154,-174.427031364158 212.871721388144,-133.34793950945 " style="fill: rgb(14,173,105); fill-opacity: 1; stroke: rgb(0,0,0); stroke-width: 3" />
	<polygon points="123.909563026801,-512.168991721222 153.737312433129,-537.262200614022 85.3231597054242,-559.709334431369 " style="fill: rgb(14,173,105); fill-opacity: 1; stroke: rgb(0,0,0); stroke-width: 3" />
	<polygon points="499.623024196059,-298.969658132344 439.079843418527,-259.996675549484 500.308878249061,-259.996675549503 " style="fill: rgb(14,173,105); fill-opacity: 1; stroke: rgb(0,0,0); stroke-width: 3" />
	<polygon points="153.737312433129,-537.262200614022 212.871721388113,-578.341292468747 151.680599637176,-576.186918977284 " style="fill: rgb(14,173,105); fill-opacity: 1; stroke: rgb(0,0,0); stroke-width: 3" />
	<polygon points="368.152405819167,-204.175767398171 360.25819934092,-132.60725746438 398.844602662295,-180.147600174534 " style="fill: rgb(14,173,105); fill-opacity: 1; stroke: rgb(0,0,0); stroke-width: 3" />
	<polygon points="96.6341422597295,-306.061534085062 33.5000000000106,-271.442894724261 94.5774294637888,-267.136815721798 " style="fill: rgb(14,173,105); fill-opacity: 1; stroke: rgb(0,0,0); stroke-width: 3" />
	<polygon points="500.308878249035,-451.692556428761 499.62302419605,-412.71957384592 561.49999999997,-449.538182937313 " style="fill: rgb(14,173,105); fill-opacity: 1; stroke: rgb(0,0,0); stroke-width: 3" />
	<polygon points="430.029381623092,-240.994376489554 437.923588101349,-169.425866555766 468.615784944474,-193.454033779409 " style="fill: rgb(14,173,105); fill-opacity: 1; stroke: rgb(0,0,0); stroke-width: 3" />
	<polygon points="151.680599637176,-576.186918977284 212.871721388113,-578.341292468747 150.994745584176,-615.159901560125 " style="fill: rgb(14,173,105); fill-opacity: 1; stroke: rgb(0,0,0); stroke-width: 3" />
	<polygon points="398.844602662295,-180.147600174534 360.25819934092,-132.60725746438 428.672352068629,-155.05439128174 " style="fill: rgb(14,173,105); fill-opacity: 1; stroke: rgb(0,0,0); stroke-width: 3" />
	<polygon points="123.909563026819,-199.520240256952 85.3231597054496,-151.979897546792 153.737312433154,-174.427031364158 " style="fill: rgb(14,173,105); fill-opacity: 1; stroke: rgb(0,0,0); stroke-width: 3" />
	<polygon points="433.759862358756,-555.0741513849 457.134958050999,-611.665666717655 398.000549096015,-570.586574862925 " style="fill: rgb(14,173,105); fill-opacity: 1; stroke: rgb(0,0,0); stroke-width: 3" />
	<polygon points="233.915986065215,-578.711633491279 294.45916684275,-617.684616074132 259.267807978041,-634.445643144087 " style="fill: rgb(14,173,105); fill-opacity: 1; stroke: rgb(0,0,0); stroke-width: 3" />
	<polygon points="212.871721388144,-133.34793950945 153.737312433154,-174.427031364158 151.680599637213,-135.502313000893 " style="fill: rgb(14,173,105); fill-opacity: 1; stroke: rgb(0,0,0); stroke-width: 3" />
	<polygon points="153.737312433129,-537.262200614022 144.573637110563,-575.148752605027 85.3231597054242,-559.709334431369 " style="fill: rgb(14,173,105); fill-opacity: 1; stroke: rgb(0,0,0); stroke-width: 3" />
	<polygon points="499.623024196059,-298.969658132344 500.308878249061,-259.996675549503 561.5,-262.151049040973 " style="fill: rgb(14,173,105); fill-opacity: 1; stroke: rgb(0,0,0); stroke-width: 3" />
	<polygon points="212.871721388113,-578.341292468747 185.574569001645,-633.148775332573 150.994745584176,-615.159901560125 " style="fill: rgb(14,173,105); fill-opacity: 1; stroke: rgb(0,0,0); stroke-width: 3" />
	<polygon points="212.871721388144,-133.34793950945 151.680599637213,-135.502313000893 150.994745584226,-96.5293304180481 " style="fill: rgb(14,173,105); fill-opacity: 1; stroke: rgb(0,0,0); stroke-width: 3" />
	<polygon points="144.573637110563,-575.148752605027 134.082579111375,-612.689416813887 85.3231597054242,-559.709334431369 " style="fill: rgb(14,173,105); fill-opacity: 1; stroke: rgb(0,0,0); stroke-width: 3" />
	<polygon points="468.615784944474,-193.454033779409 437.923588101349,-169.425866555766 505.505565351944,-144.585446652635 " style="fill: rgb(14,173,105); fill-opacity: 1; stroke: rgb(0,0,0); stroke-width: 3" />
	<polygon points="428.672352068629,-155.05439128174 360.25819934092,-132.60725746438 419.508676746068,-117.167839290735 " style="fill: rgb(14,173,105); fill-opacity: 1; stroke: rgb(0,0,0); stroke-width: 3" />
	<polygon points="153.737312433154,-174.427031364158 85.3231597054496,-151.979897546792 144.5736371106,-136.540479373153 " style="fill: rgb(14,173,105); fill-opacity: 1; stroke: rgb(0,0,0); stroke-width: 3" />
	<polygon points="294.45916684275,-617.684616074132 286.564960364494,-689.253126007918 259.267807978041,-634.445643144087 " style="fill: rgb(14,173,105); fill-opacity: 1; stroke: rgb(0,0,0); stroke-width: 3" />
	<polygon points="419.508676746068,-117.167839290735 360.25819934092,-132.60725746438 409.017618746893,-79.6271750818739 " style="fill: rgb(14,173,105); fill-opacity: 1; stroke: rgb(0,0,0); stroke-width: 3" />
	<polygon points="144.5736371106,-136.540479373153 85.3231597054496,-151.979897546792 134.082579111429,-98.9998151642911 " style="fill: rgb(14,173,105); fill-opacity: 1; stroke: rgb(0,0,0); stroke-width: 3" />
	<polygon points="185.574569001645,-633.148775332573 156.365890989666,-686.961857711039 150.994745584176,-615.159901560125 " style="fill: rgb(14,173,105); fill-opacity: 1; stroke: rgb(0,0,0); stroke-width: 3" />
	<polygon points="85.3231597054242,-559.709334431369 134.082579111375,-612.689416813887 95.8019606807549,-620.035029092912 " style="fill: rgb(14,173,105); fill-opacity: 1; stroke: rgb(0,0,0); stroke-width: 3" />
	<polygon points="428.672352068629,-155.05439128174 419.508676746068,-117.167839290735 479.265709664572,-103.822738202479 " style="fill: rgb(14,173,105); fill-opacity: 1; stroke: rgb(0,0,0); stroke-width: 3" />
	<polygon points="85.3231597054496,-151.979897546792 95.8019606808121,-91.6542028852517 134.082579111429,-98.9998151642911 " style="fill: rgb(14,173,105); fill-opacity: 1; stroke: rgb(0,0,0); stroke-width: 3" />
	<polygon points="419.508676746068,-117.167839290735 409.017618746893,-79.6271750818739 478.179222728138,-99.6532242380363 " style="fill: rgb(14,173,105); fill-opacity: 1; stroke: rgb(0,0,0); stroke-width: 3" />
	<polygon points="134.082579111375,-612.689416813887 108.396862198518,-679.954668294398 95.8019606807549,-620.035029092912 " style="fill: rgb(14,173,105); fill-opacity: 1; stroke: rgb(0,0,0); stroke-width: 3" />
	<polygon points="478.179222728138,-99.6532242380363 409.017618746893,-79.6271750818739 437.943981971911,-53.5 " style="fill: rgb(14,173,105); fill-opacity: 1; stroke: rgb(0,0,0); stroke-width: 3" />
	<circle cx="237.838042759429" cy="-355.844615989102" r="2" style="fill: rgb(0,0,0)" />
	<circle cx="299.06707758996" cy="-355.844615989102" r="2" style="fill: rgb(0,0,0)" />
	<circle cx="298.381223536968" cy="-394.817598571942" r="2" style="fill: rgb(0,0,0)" />
	<circle cx="298.381223536972" cy="-316.87163340626" r="2" style="fill: rgb(0,0,0)" />
	<circle cx="263.189864672263" cy="-411.578625641902" r="2" style="fill: rgb(0,0,0)" />
	<circle cx="360.258199340896" cy="-357.998989480559" r="2" style="fill: rgb(0,0,0)" />
	<circle cx="360.258199340893" cy="-353.690242497648" r="2" style="fill: rgb(0,0,0)" />
	<circle cx="263.189864672265" cy="-300.1106063363" r="2" style="fill: rgb(0,0,0)" />
	<circle cx="227.430551409524" cy="-427.091049119932" r="2" style="fill: rgb(0,0,0)" />
	<circle cx="290.487017058722" cy="-466.386108505728" r="2" style="fill: rgb(0,0,0)" />
	<circle cx="332.961046954436" cy="-412.80647234439" r="2" style="fill: rgb(0,0,0)" />
	<circle cx="332.961046954446" cy="-298.882759633819" r="2" style="fill: rgb(0,0,0)" />
	<circle cx="227.430551409526" cy="-284.598182858267" r="2" style="fill: rgb(0,0,0)" />
	<circle cx="290.487017058724" cy="-245.30312347247" r="2" style="fill: rgb(0,0,0)" />
	<circle cx="286.564960364511" cy="-468.170140974651" r="2" style="fill: rgb(0,0,0)" />
	<circle cx="197.602802003194" cy="-401.997840227135" r="2" style="fill: rgb(0,0,0)" />
	<circle cx="329.073420380096" cy="-418.845765795582" r="2" style="fill: rgb(0,0,0)" />
	<circle cx="368.152405819141" cy="-429.567499414353" r="2" style="fill: rgb(0,0,0)" />
	<circle cx="368.152405819155" cy="-282.121732563864" r="2" style="fill: rgb(0,0,0)" />
	<circle cx="303.752368942479" cy="-245.069677255355" r="2" style="fill: rgb(0,0,0)" />
	<circle cx="286.564960364511" cy="-243.519091003553" r="2" style="fill: rgb(0,0,0)" />
	<circle cx="197.602802003194" cy="-309.691391751065" r="2" style="fill: rgb(0,0,0)" />
	<circle cx="225.373838613573" cy="-466.015767483193" r="2" style="fill: rgb(0,0,0)" />
	<circle cx="168.676438778179" cy="-375.870665145261" r="2" style="fill: rgb(0,0,0)" />
	<circle cx="159.016398681823" cy="-449.538182937287" r="2" style="fill: rgb(0,0,0)" />
	<circle cx="358.901169786427" cy="-443.93897468838" r="2" style="fill: rgb(0,0,0)" />
	<circle cx="398.844602662269" cy="-405.539332190714" r="2" style="fill: rgb(0,0,0)" />
	<circle cx="307.609225041625" cy="-243.148749981013" r="2" style="fill: rgb(0,0,0)" />
	<circle cx="398.844602662278" cy="-306.149899787509" r="2" style="fill: rgb(0,0,0)" />
	<circle cx="225.373838613581" cy="-245.673464495003" r="2" style="fill: rgb(0,0,0)" />
	<circle cx="168.676438778176" cy="-335.818566832938" r="2" style="fill: rgb(0,0,0)" />
	<circle cx="159.01639868182" cy="-262.151049040911" r="2" style="fill: rgb(0,0,0)" />
	<circle cx="224.687984560577" cy="-504.988750066035" r="2" style="fill: rgb(0,0,0)" />
	<circle cx="164.296409149794" cy="-461.709688480717" r="2" style="fill: rgb(0,0,0)" />
	<circle cx="155.768551214719" cy="-446.706789747847" r="2" style="fill: rgb(0,0,0)" />
	<circle cx="349.737494463863" cy="-481.825526679384" r="2" style="fill: rgb(0,0,0)" />
	<circle cx="428.672352068605" cy="-380.446123297921" r="2" style="fill: rgb(0,0,0)" />
	<circle cx="435.734383069737" cy="-454.407919317493" r="2" style="fill: rgb(0,0,0)" />
	<circle cx="368.838259872158" cy="-243.148749981025" r="2" style="fill: rgb(0,0,0)" />
	<circle cx="428.672352068606" cy="-331.243108680312" r="2" style="fill: rgb(0,0,0)" />
	<circle cx="435.734383069751" cy="-257.28131266074" r="2" style="fill: rgb(0,0,0)" />
	<circle cx="224.687984560591" cy="-206.700481912161" r="2" style="fill: rgb(0,0,0)" />
	<circle cx="164.296409149804" cy="-249.979543497474" r="2" style="fill: rgb(0,0,0)" />
	<circle cx="155.768551214721" cy="-264.982442230355" r="2" style="fill: rgb(0,0,0)" />
	<circle cx="164.144803783044" cy="-466.015767483195" r="2" style="fill: rgb(0,0,0)" />
	<circle cx="259.267807978048" cy="-522.977623838481" r="2" style="fill: rgb(0,0,0)" />
	<circle cx="132.393455522471" cy="-390.115274415095" r="2" style="fill: rgb(0,0,0)" />
	<circle cx="339.246436464679" cy="-519.366190888243" r="2" style="fill: rgb(0,0,0)" />
	<circle cx="409.494527382361" cy="-495.17062776764" r="2" style="fill: rgb(0,0,0)" />
	<circle cx="439.079843418504" cy="-451.692556428747" r="2" style="fill: rgb(0,0,0)" />
	<circle cx="368.152405819167" cy="-204.175767398171" r="2" style="fill: rgb(0,0,0)" />
	<circle cx="430.029381623095" cy="-245.303123472498" r="2" style="fill: rgb(0,0,0)" />
	<circle cx="439.079843418527" cy="-259.996675549484" r="2" style="fill: rgb(0,0,0)" />
	<circle cx="164.144803783049" cy="-245.673464494993" r="2" style="fill: rgb(0,0,0)" />
	<circle cx="259.267807978065" cy="-188.711608139721" r="2" style="fill: rgb(0,0,0)" />
	<circle cx="132.393455522468" cy="-321.573957563096" r="2" style="fill: rgb(0,0,0)" />
	<circle cx="189.49662569587" cy="-521.749777135994" r="2" style="fill: rgb(0,0,0)" />
	<circle cx="294.459166842753" cy="-539.738650908446" r="2" style="fill: rgb(0,0,0)" />
	<circle cx="230.059129966075" cy="-576.790706216947" r="2" style="fill: rgb(0,0,0)" />
	<circle cx="96.6341422597298" cy="-405.627697893122" r="2" style="fill: rgb(0,0,0)" />
	<circle cx="408.408040445933" cy="-499.340141732093" r="2" style="fill: rgb(0,0,0)" />
	<circle cx="464.431665331343" cy="-395.958546775954" r="2" style="fill: rgb(0,0,0)" />
	<circle cx="332.96104695446" cy="-187.414740328212" r="2" style="fill: rgb(0,0,0)" />
	<circle cx="430.029381623092" cy="-240.994376489554" r="2" style="fill: rgb(0,0,0)" />
	<circle cx="464.431665331347" cy="-315.730685202293" r="2" style="fill: rgb(0,0,0)" />
	<circle cx="189.496625695891" cy="-189.939454842195" r="2" style="fill: rgb(0,0,0)" />
	<circle cx="230.059129966099" cy="-134.898525761256" r="2" style="fill: rgb(0,0,0)" />
	<circle cx="96.6341422597295" cy="-306.061534085062" r="2" style="fill: rgb(0,0,0)" />
	<circle cx="153.737312433129" cy="-537.262200614022" r="2" style="fill: rgb(0,0,0)" />
	<circle cx="216.793778082328" cy="-576.557259999821" r="2" style="fill: rgb(0,0,0)" />
	<circle cx="233.915986065215" cy="-578.711633491279" r="2" style="fill: rgb(0,0,0)" />
	<circle cx="94.5774294637818" cy="-444.552416256387" r="2" style="fill: rgb(0,0,0)" />
	<circle cx="368.172799689688" cy="-545.493365970122" r="2" style="fill: rgb(0,0,0)" />
	<circle cx="499.62302419605" cy="-412.71957384592" r="2" style="fill: rgb(0,0,0)" />
	<circle cx="360.25819934092" cy="-132.60725746438" r="2" style="fill: rgb(0,0,0)" />
	<circle cx="402.73222923664" cy="-186.186893625727" r="2" style="fill: rgb(0,0,0)" />
	<circle cx="499.623024196059" cy="-298.969658132344" r="2" style="fill: rgb(0,0,0)" />
	<circle cx="153.737312433154" cy="-174.427031364158" r="2" style="fill: rgb(0,0,0)" />
	<circle cx="216.793778082361" cy="-135.131971978369" r="2" style="fill: rgb(0,0,0)" />
	<circle cx="94.5774294637888" cy="-267.136815721798" r="2" style="fill: rgb(0,0,0)" />
	<circle cx="123.909563026801" cy="-512.168991721222" r="2" style="fill: rgb(0,0,0)" />
	<circle cx="212.871721388113" cy="-578.341292468747" r="2" style="fill: rgb(0,0,0)" />
	<circle cx="295.145020895742" cy="-578.711633491288" r="2" style="fill: rgb(0,0,0)" />
	<circle cx="33.5" cy="-440.246337253915" r="2" style="fill: rgb(0,0,0)" />
	<circle cx="398.000549096015" cy="-570.586574862925" r="2" style="fill: rgb(0,0,0)" />
	<circle cx="500.308878249035" cy="-451.692556428761" r="2" style="fill: rgb(0,0,0)" />
	<circle cx="398.844602662295" cy="-180.147600174534" r="2" style="fill: rgb(0,0,0)" />
	<circle cx="437.923588101349" cy="-169.425866555766" r="2" style="fill: rgb(0,0,0)" />
	<circle cx="500.308878249061" cy="-259.996675549503" r="2" style="fill: rgb(0,0,0)" />
	<circle cx="123.909563026819" cy="-199.520240256952" r="2" style="fill: rgb(0,0,0)" />
	<circle cx="212.871721388144" cy="-133.34793950945" r="2" style="fill: rgb(0,0,0)" />
	<circle cx="33.5000000000106" cy="-271.442894724261" r="2" style="fill: rgb(0,0,0)" />
	<circle cx="85.3231597054242" cy="-559.709334431369" r="2" style="fill: rgb(0,0,0)" />
	<circle cx="151.680599637176" cy="-576.186918977284" r="2" style="fill: rgb(0,0,0)" />
	<circle cx="294.45916684275" cy="-617.684616074132" r="2" style="fill: rgb(0,0,0)" />
	<circle cx="433.759862358756" cy="-555.0741513849" r="2" style="fill: rgb(0,0,0)" />
	<circle cx="561.49999999997" cy="-449.538182937313" r="2" style="fill: rgb(0,0,0)" />
	<circle cx="428.672352068629" cy="-155.05439128174" r="2" style="fill: rgb(0,0,0)" />
	<circle cx="468.615784944474" cy="-193.454033779409" r="2" style="fill: rgb(0,0,0)" />
	<circle cx="561.5" cy="-262.151049040973" r="2" style="fill: rgb(0,0,0)" />
	<circle cx="85.3231597054496" cy="-151.979897546792" r="2" style="fill: rgb(0,0,0)" />
	<circle cx="151.680599637213" cy="-135.502313000893" r="2" style="fill: rgb(0,0,0)" />
	<circle cx="144.573637110563" cy="-575.148752605027" r="2" style="fill: rgb(0,0,0)" />
	<circle cx="150.994745584176" cy="-615.159901560125" r="2" style="fill: rgb(0,0,0)" />
	<circle cx="259.267807978041" cy="-634.445643144087" r="2" style="fill: rgb(0,0,0)" />
	<circle cx="457.134958050999" cy="-611.665666717655" r="2" style="fill: rgb(0,0,0)" />
	<circle cx="419.508676746068" cy="-117.167839290735" r="2" style="fill: rgb(0,0,0)" />
	<circle cx="505.505565351944" cy="-144.585446652635" r="2" style="fill: rgb(0,0,0)" />
	<circle cx="144.5736371106" cy="-136.540479373153" r="2" style="fill: rgb(0,0,0)" />
	<circle cx="150.994745584226" cy="-96.5293304180481" r="2" style="fill: rgb(0,0,0)" />
	<circle cx="134.082579111375" cy="-612.689416813887" r="2" style="fill: rgb(0,0,0)" />
	<circle cx="185.574569001645" cy="-633.148775332573" r="2" style="fill: rgb(0,0,0)" />
	<circle cx="286.564960364494" cy="-689.253126007918" r="2" style="fill: rgb(0,0,0)" />
	<circle cx="409.017618746893" cy="-79.6271750818739" r="2" style="fill: rgb(0,0,0)" />
	<circle cx="479.265709664572" cy="-103.822738202479" r="2" style="fill: rgb(0,0,0)" />
	<circle cx="134.082579111429" cy="-98.9998151642911" r="2" style="fill: rgb(0,0,0)" />
	<circle cx="95.8019606807549" cy="-620.035029092912" r="2" style="fill: rgb(0,0,0)" />
	<circle cx="156.365890989666" cy="-686.961857711039" r="2" style="fill: rgb(0,0,0)" />
	<circle cx="478.179222728138" cy="-99.6532242380363" r="2" style="fill: rgb(0,0,0)" />
	<circle cx="95.8019606808121" cy="-91.6542028852517" r="2" style="fill: rgb(0,0,0)" />
	<circle cx="108.396862198518" cy="-679.954668294398" r="2" style="fill: rgb(0,0,0)" />
	<circle cx="437.943981971911" cy="-53.5" r="2" style="fill: rgb(0,0,0)" />
	<!--
	Generated using the Perl SVG Module V2.84
	by Ronan Oger
	Info: http://www.roitsystems.com/
	-->
</svg>