<?xml version="1.0" encoding="UTF-8" standalone="yes"?>
<!DOCTYPE svg PUBLIC "-//W3C//DTD SVG 1.0//EN" "http://www.w3.org/TR/2001/REC-SVG-20010904/DTD/svg10.dtd">
<!-- generated using polymake; Michael Joswig, Georg Loho, Benjamin Lorenz, Rico Raber; license CC BY-NC-ND 3.0; see polymake.org and matchthenet.de -->
<svg height="841pt" id="document" viewBox="0 -608.538171000616 572 608.538171000616" width="595pt" xmlns="http://www.w3.org/2000/svg" xmlns:svg="http://www.w3.org/2000/svg" xmlns:xlink="http://www.w3.org/1999/xlink">
	<title id="document_title">planar_net_</title>
	<polygon points="278.802768182904,-309.362026281438 316.197231817111,-309.362026281438 327.752756575618,-344.926274594113 297.500000000012,-366.90618883569 267.247243424402,-344.926274594116 " style="fill: rgb(255,210,63); fill-opacity: 1; stroke: rgb(0,0,0); stroke-width: 3" />
	<polygon points="389.351841586171,-324.911518604237 377.796316827664,-289.347270291569 402.818096953686,-261.5577681403 439.395401838215,-269.332514301689 450.95092659672,-304.89676261435 425.929146470697,-332.686264765623 " style="fill: rgb(238,66,102); fill-opacity: 1; stroke: rgb(0,0,0); stroke-width: 3" />
	<polygon points="334.894463634199,-276.977470813313 316.197231817111,-309.362026281438 278.802768182904,-309.362026281438 260.105536365798,-276.97747081332 278.802768182889,-244.592915345196 316.19723181709,-244.592915345193 " style="fill: rgb(238,66,102); fill-opacity: 1; stroke: rgb(0,0,0); stroke-width: 3" />
	<polygon points="371.471768518728,-269.202724651897 334.894463634199,-276.977470813313 316.19723181709,-244.592915345193 341.219011943109,-216.803413193926 375.380554337125,-232.013111802121 " style="fill: rgb(255,210,63); fill-opacity: 1; stroke: rgb(0,0,0); stroke-width: 3" />
	<polygon points="375.380554337125,-232.013111802121 341.219011943109,-216.803413193926 337.310226124704,-179.61380034415 367.562982700306,-157.633886102563 401.724525094315,-172.843584710755 405.633310912723,-210.033197560535 " style="fill: rgb(238,66,102); fill-opacity: 1; stroke: rgb(0,0,0); stroke-width: 3" />
	<polygon points="316.19723181709,-244.592915345193 278.802768182889,-244.592915345196 260.105536365784,-212.208359877076 278.802768182868,-179.823804408949 316.197231817062,-179.823804408944 334.894463634172,-212.208359877067 " style="fill: rgb(238,66,102); fill-opacity: 1; stroke: rgb(0,0,0); stroke-width: 3" />
	<polygon points="450.95092659672,-304.89676261435 439.395401838215,-269.332514301689 469.648158413824,-247.352600060111 499.900914989432,-269.332514301665 488.345390230926,-304.896762614334 " style="fill: rgb(255,210,63); fill-opacity: 1; stroke: rgb(0,0,0); stroke-width: 3" />
	<polygon points="260.105536365798,-276.97747081332 223.528231481267,-269.202724651923 219.619445662847,-232.013111802155 253.780988056852,-216.803413193945 278.802768182889,-244.592915345196 " style="fill: rgb(255,210,63); fill-opacity: 1; stroke: rgb(0,0,0); stroke-width: 3" />
	<polygon points="401.724525094315,-172.843584710755 367.562982700306,-157.633886102563 363.654196881901,-120.444273252785 393.906953457497,-98.4643590111951 428.0684958515,-113.674057619386 431.977281669907,-150.863670469168 " style="fill: rgb(238,66,102); fill-opacity: 1; stroke: rgb(0,0,0); stroke-width: 3" />
	<polygon points="316.197231817062,-179.823804408944 278.802768182868,-179.823804408949 267.247243424362,-144.259556096273 297.499999999954,-122.279641854692 327.752756575555,-144.259556096264 " style="fill: rgb(255,210,63); fill-opacity: 1; stroke: rgb(0,0,0); stroke-width: 3" />
	<polygon points="222.711072731574,-212.208359877096 204.013840914439,-179.823804408998 222.711072731518,-147.439248940878 260.105536365732,-147.439248940856 278.802768182868,-179.823804408949 260.105536365784,-212.208359877076 " style="fill: rgb(238,66,102); fill-opacity: 1; stroke: rgb(0,0,0); stroke-width: 3" />
	<polygon points="233.085701030341,-129.049857488085 229.176915211902,-91.8602446383226 259.429671787488,-69.8803303967472 293.591214181513,-85.0900290049345 297.499999999954,-122.279641854692 267.247243424362,-144.259556096273 " style="fill: rgb(238,66,102); fill-opacity: 1; stroke: rgb(0,0,0); stroke-width: 3" />
	<polygon points="81.6328296430492,-332.686264765749 45.0555247585179,-324.91151860438 33.5,-289.347270291727 58.5217801260135,-261.557768140443 95.09908501054,-269.33251430181 106.654609769062,-304.89676261447 " style="fill: rgb(238,66,102); fill-opacity: 1; stroke: rgb(0,0,0); stroke-width: 3" />
	<polygon points="155.604598161764,-269.332514301791 144.04907340327,-304.896762614459 106.654609769062,-304.89676261447 95.09908501054,-269.33251430181 125.351841586143,-247.352600060233 " style="fill: rgb(255,210,63); fill-opacity: 1; stroke: rgb(0,0,0); stroke-width: 3" />
	<polygon points="428.0684958515,-113.674057619386 393.906953457497,-98.4643590111951 397.815739275897,-61.2747461614211 434.393044160411,-53.5 453.09027597751,-85.8845554681146 " style="fill: rgb(255,210,63); fill-opacity: 1; stroke: rgb(0,0,0); stroke-width: 3" />
	<polygon points="157.515328770826,-368.25051307839 120.938023886308,-376.025259239842 95.916243760274,-348.235757088604 107.471768518757,-312.671508775914 144.04907340327,-304.896762614459 169.07085352931,-332.686264765704 " style="fill: rgb(238,66,102); fill-opacity: 1; stroke: rgb(0,0,0); stroke-width: 3" />
	<polygon points="191.106586999603,-449.724897510103 221.359343575206,-471.704811751669 209.803818816703,-507.269060064346 172.409355182506,-507.269060064358 160.853830424003,-471.704811751687 " style="fill: rgb(255,210,63); fill-opacity: 1; stroke: rgb(0,0,0); stroke-width: 3" />
	<polygon points="228.501050633806,-539.65361553247 209.803818816725,-572.038171000606 172.409355182536,-572.038171000616 153.712123365429,-539.65361553249 172.409355182506,-507.269060064358 209.803818816703,-507.269060064346 " style="fill: rgb(238,66,102); fill-opacity: 1; stroke: rgb(0,0,0); stroke-width: 3" />
	<polygon points="217.203683172336,-289.347270291609 205.648158413839,-324.911518604283 169.07085352931,-332.686264765704 144.04907340327,-304.896762614459 155.604598161764,-269.332514301791 192.181903046297,-261.557768140366 " style="fill: rgb(238,66,102); fill-opacity: 1; stroke: rgb(0,0,0); stroke-width: 3" />
	<polygon points="488.345390230926,-304.896762614334 499.900914989432,-269.332514301665 536.478219873968,-261.557768140254 561.5,-289.347270291504 549.944475241492,-324.911518604169 513.367170356953,-332.686264765583 " style="fill: rgb(238,66,102); fill-opacity: 1; stroke: rgb(0,0,0); stroke-width: 3" />
	<polygon points="230.669938539874,-352.701020755534 211.972706722786,-385.085576223661 175.395401838256,-377.310830062272 171.486616019836,-340.121217212502 205.648158413839,-324.911518604283 " style="fill: rgb(255,210,63); fill-opacity: 1; stroke: rgb(0,0,0); stroke-width: 3" />
	<polygon points="373.640656424907,-471.704811751606 403.893413000503,-449.724897510036 434.146169576117,-471.704811751606 422.590644817632,-507.269060064274 385.19618118343,-507.269060064274 " style="fill: rgb(255,210,63); fill-opacity: 1; stroke: rgb(0,0,0); stroke-width: 3" />
	<polygon points="229.176915211999,-397.325586052106 259.429671787606,-419.305500293676 255.520885969207,-456.495113143453 221.359343575206,-471.704811751669 191.106586999603,-449.724897510103 195.015372818001,-412.535284660321 " style="fill: rgb(238,66,102); fill-opacity: 1; stroke: rgb(0,0,0); stroke-width: 3" />
	<polygon points="285.77364254483,-478.475027385015 281.864856726466,-515.664640234789 247.703314332473,-530.874338843 217.450557756845,-508.894424601438 221.359343575206,-471.704811751669 255.520885969207,-456.495113143453 " style="fill: rgb(238,66,102); fill-opacity: 1; stroke: rgb(0,0,0); stroke-width: 3" />
	<polygon points="278.802768182904,-309.362026281438 267.247243424402,-344.926274594116 230.669938539874,-352.701020755534 205.648158413839,-324.911518604283 217.203683172336,-289.347270291609 253.780988056867,-281.572524130187 " style="fill: rgb(238,66,102); fill-opacity: 1; stroke: rgb(0,0,0); stroke-width: 3" />
	<polygon points="425.929146470697,-332.686264765623 450.95092659672,-304.89676261435 487.528231481256,-312.671508775756 499.083756239774,-348.235757088431 474.061976113752,-376.025259239702 437.484671229212,-368.250513078297 " style="fill: rgb(238,66,102); fill-opacity: 1; stroke: rgb(0,0,0); stroke-width: 3" />
	<polygon points="293.591214181611,-404.095801685465 318.612994307644,-431.88530383672 299.915762490558,-464.269859304844 263.338457606028,-456.495113143446 259.429671787606,-419.305500293676 " style="fill: rgb(255,210,63); fill-opacity: 1; stroke: rgb(0,0,0); stroke-width: 3" />
	<polygon points="267.247243424402,-344.926274594116 297.500000000012,-366.90618883569 293.591214181611,-404.095801685465 259.429671787606,-419.305500293676 229.176915211999,-397.325586052106 233.085701030398,-360.135973202327 " style="fill: rgb(238,66,102); fill-opacity: 1; stroke: rgb(0,0,0); stroke-width: 3" />
	<polygon points="335.570328212456,-419.305500293651 365.823084788056,-397.325586052076 399.984627182075,-412.535284660271 403.893413000503,-449.724897510036 373.640656424907,-471.704811751606 339.479114030884,-456.495113143412 " style="fill: rgb(238,66,102); fill-opacity: 1; stroke: rgb(0,0,0); stroke-width: 3" />
	<polygon points="364.330061460147,-352.701020755508 389.351841586171,-324.911518604237 423.513383980185,-340.121217212431 419.604598161786,-377.310830062207 383.027293277255,-385.085576223624 " style="fill: rgb(255,210,63); fill-opacity: 1; stroke: rgb(0,0,0); stroke-width: 3" />
	<polygon points="327.752756575618,-344.926274594113 316.197231817111,-309.362026281438 341.219011943133,-281.572524130172 377.796316827664,-289.347270291569 389.351841586171,-324.911518604237 364.330061460147,-352.701020755508 " style="fill: rgb(238,66,102); fill-opacity: 1; stroke: rgb(0,0,0); stroke-width: 3" />
	<polygon points="297.500000000012,-366.90618883569 327.752756575618,-344.926274594113 361.914298969634,-360.135973202308 365.823084788056,-397.325586052076 335.570328212456,-419.305500293651 301.408785818435,-404.095801685457 " style="fill: rgb(238,66,102); fill-opacity: 1; stroke: rgb(0,0,0); stroke-width: 3" />
	<circle cx="278.802768182904" cy="-309.362026281438" r="2" style="fill: rgb(0,0,0)" />
	<circle cx="316.197231817111" cy="-309.362026281438" r="2" style="fill: rgb(0,0,0)" />
	<circle cx="327.752756575618" cy="-344.926274594113" r="2" style="fill: rgb(0,0,0)" />
	<circle cx="297.500000000012" cy="-366.90618883569" r="2" style="fill: rgb(0,0,0)" />
	<circle cx="267.247243424402" cy="-344.926274594116" r="2" style="fill: rgb(0,0,0)" />
	<circle cx="260.105536365798" cy="-276.97747081332" r="2" style="fill: rgb(0,0,0)" />
	<circle cx="278.802768182889" cy="-244.592915345196" r="2" style="fill: rgb(0,0,0)" />
	<circle cx="316.19723181709" cy="-244.592915345193" r="2" style="fill: rgb(0,0,0)" />
	<circle cx="334.894463634199" cy="-276.977470813313" r="2" style="fill: rgb(0,0,0)" />
	<circle cx="230.669938539874" cy="-352.701020755534" r="2" style="fill: rgb(0,0,0)" />
	<circle cx="205.648158413839" cy="-324.911518604283" r="2" style="fill: rgb(0,0,0)" />
	<circle cx="217.203683172336" cy="-289.347270291609" r="2" style="fill: rgb(0,0,0)" />
	<circle cx="253.780988056867" cy="-281.572524130187" r="2" style="fill: rgb(0,0,0)" />
	<circle cx="293.591214181611" cy="-404.095801685465" r="2" style="fill: rgb(0,0,0)" />
	<circle cx="259.429671787606" cy="-419.305500293676" r="2" style="fill: rgb(0,0,0)" />
	<circle cx="229.176915211999" cy="-397.325586052106" r="2" style="fill: rgb(0,0,0)" />
	<circle cx="233.085701030398" cy="-360.135973202327" r="2" style="fill: rgb(0,0,0)" />
	<circle cx="341.219011943133" cy="-281.572524130172" r="2" style="fill: rgb(0,0,0)" />
	<circle cx="377.796316827664" cy="-289.347270291569" r="2" style="fill: rgb(0,0,0)" />
	<circle cx="389.351841586171" cy="-324.911518604237" r="2" style="fill: rgb(0,0,0)" />
	<circle cx="364.330061460147" cy="-352.701020755508" r="2" style="fill: rgb(0,0,0)" />
	<circle cx="361.914298969634" cy="-360.135973202308" r="2" style="fill: rgb(0,0,0)" />
	<circle cx="365.823084788056" cy="-397.325586052076" r="2" style="fill: rgb(0,0,0)" />
	<circle cx="335.570328212456" cy="-419.305500293651" r="2" style="fill: rgb(0,0,0)" />
	<circle cx="301.408785818435" cy="-404.095801685457" r="2" style="fill: rgb(0,0,0)" />
	<circle cx="341.219011943109" cy="-216.803413193926" r="2" style="fill: rgb(0,0,0)" />
	<circle cx="375.380554337125" cy="-232.013111802121" r="2" style="fill: rgb(0,0,0)" />
	<circle cx="371.471768518728" cy="-269.202724651897" r="2" style="fill: rgb(0,0,0)" />
	<circle cx="260.105536365784" cy="-212.208359877076" r="2" style="fill: rgb(0,0,0)" />
	<circle cx="278.802768182868" cy="-179.823804408949" r="2" style="fill: rgb(0,0,0)" />
	<circle cx="316.197231817062" cy="-179.823804408944" r="2" style="fill: rgb(0,0,0)" />
	<circle cx="334.894463634172" cy="-212.208359877067" r="2" style="fill: rgb(0,0,0)" />
	<circle cx="223.528231481267" cy="-269.202724651923" r="2" style="fill: rgb(0,0,0)" />
	<circle cx="219.619445662847" cy="-232.013111802155" r="2" style="fill: rgb(0,0,0)" />
	<circle cx="253.780988056852" cy="-216.803413193945" r="2" style="fill: rgb(0,0,0)" />
	<circle cx="169.07085352931" cy="-332.686264765704" r="2" style="fill: rgb(0,0,0)" />
	<circle cx="144.04907340327" cy="-304.896762614459" r="2" style="fill: rgb(0,0,0)" />
	<circle cx="155.604598161764" cy="-269.332514301791" r="2" style="fill: rgb(0,0,0)" />
	<circle cx="192.181903046297" cy="-261.557768140366" r="2" style="fill: rgb(0,0,0)" />
	<circle cx="211.972706722786" cy="-385.085576223661" r="2" style="fill: rgb(0,0,0)" />
	<circle cx="175.395401838256" cy="-377.310830062272" r="2" style="fill: rgb(0,0,0)" />
	<circle cx="171.486616019836" cy="-340.121217212502" r="2" style="fill: rgb(0,0,0)" />
	<circle cx="255.520885969207" cy="-456.495113143453" r="2" style="fill: rgb(0,0,0)" />
	<circle cx="221.359343575206" cy="-471.704811751669" r="2" style="fill: rgb(0,0,0)" />
	<circle cx="191.106586999603" cy="-449.724897510103" r="2" style="fill: rgb(0,0,0)" />
	<circle cx="195.015372818001" cy="-412.535284660321" r="2" style="fill: rgb(0,0,0)" />
	<circle cx="318.612994307644" cy="-431.88530383672" r="2" style="fill: rgb(0,0,0)" />
	<circle cx="299.915762490558" cy="-464.269859304844" r="2" style="fill: rgb(0,0,0)" />
	<circle cx="263.338457606028" cy="-456.495113143446" r="2" style="fill: rgb(0,0,0)" />
	<circle cx="402.818096953686" cy="-261.5577681403" r="2" style="fill: rgb(0,0,0)" />
	<circle cx="439.395401838215" cy="-269.332514301689" r="2" style="fill: rgb(0,0,0)" />
	<circle cx="450.95092659672" cy="-304.89676261435" r="2" style="fill: rgb(0,0,0)" />
	<circle cx="425.929146470697" cy="-332.686264765623" r="2" style="fill: rgb(0,0,0)" />
	<circle cx="423.513383980185" cy="-340.121217212431" r="2" style="fill: rgb(0,0,0)" />
	<circle cx="419.604598161786" cy="-377.310830062207" r="2" style="fill: rgb(0,0,0)" />
	<circle cx="383.027293277255" cy="-385.085576223624" r="2" style="fill: rgb(0,0,0)" />
	<circle cx="399.984627182075" cy="-412.535284660271" r="2" style="fill: rgb(0,0,0)" />
	<circle cx="403.893413000503" cy="-449.724897510036" r="2" style="fill: rgb(0,0,0)" />
	<circle cx="373.640656424907" cy="-471.704811751606" r="2" style="fill: rgb(0,0,0)" />
	<circle cx="339.479114030884" cy="-456.495113143412" r="2" style="fill: rgb(0,0,0)" />
	<circle cx="337.310226124704" cy="-179.61380034415" r="2" style="fill: rgb(0,0,0)" />
	<circle cx="367.562982700306" cy="-157.633886102563" r="2" style="fill: rgb(0,0,0)" />
	<circle cx="401.724525094315" cy="-172.843584710755" r="2" style="fill: rgb(0,0,0)" />
	<circle cx="405.633310912723" cy="-210.033197560535" r="2" style="fill: rgb(0,0,0)" />
	<circle cx="267.247243424362" cy="-144.259556096273" r="2" style="fill: rgb(0,0,0)" />
	<circle cx="297.499999999954" cy="-122.279641854692" r="2" style="fill: rgb(0,0,0)" />
	<circle cx="327.752756575555" cy="-144.259556096264" r="2" style="fill: rgb(0,0,0)" />
	<circle cx="222.711072731574" cy="-212.208359877096" r="2" style="fill: rgb(0,0,0)" />
	<circle cx="204.013840914439" cy="-179.823804408998" r="2" style="fill: rgb(0,0,0)" />
	<circle cx="222.711072731518" cy="-147.439248940878" r="2" style="fill: rgb(0,0,0)" />
	<circle cx="260.105536365732" cy="-147.439248940856" r="2" style="fill: rgb(0,0,0)" />
	<circle cx="106.654609769062" cy="-304.89676261447" r="2" style="fill: rgb(0,0,0)" />
	<circle cx="95.09908501054" cy="-269.33251430181" r="2" style="fill: rgb(0,0,0)" />
	<circle cx="125.351841586143" cy="-247.352600060233" r="2" style="fill: rgb(0,0,0)" />
	<circle cx="157.515328770826" cy="-368.25051307839" r="2" style="fill: rgb(0,0,0)" />
	<circle cx="120.938023886308" cy="-376.025259239842" r="2" style="fill: rgb(0,0,0)" />
	<circle cx="95.916243760274" cy="-348.235757088604" r="2" style="fill: rgb(0,0,0)" />
	<circle cx="107.471768518757" cy="-312.671508775914" r="2" style="fill: rgb(0,0,0)" />
	<circle cx="209.803818816703" cy="-507.269060064346" r="2" style="fill: rgb(0,0,0)" />
	<circle cx="172.409355182506" cy="-507.269060064358" r="2" style="fill: rgb(0,0,0)" />
	<circle cx="160.853830424003" cy="-471.704811751687" r="2" style="fill: rgb(0,0,0)" />
	<circle cx="285.77364254483" cy="-478.475027385015" r="2" style="fill: rgb(0,0,0)" />
	<circle cx="281.864856726466" cy="-515.664640234789" r="2" style="fill: rgb(0,0,0)" />
	<circle cx="247.703314332473" cy="-530.874338843" r="2" style="fill: rgb(0,0,0)" />
	<circle cx="217.450557756845" cy="-508.894424601438" r="2" style="fill: rgb(0,0,0)" />
	<circle cx="469.648158413824" cy="-247.352600060111" r="2" style="fill: rgb(0,0,0)" />
	<circle cx="499.900914989432" cy="-269.332514301665" r="2" style="fill: rgb(0,0,0)" />
	<circle cx="488.345390230926" cy="-304.896762614334" r="2" style="fill: rgb(0,0,0)" />
	<circle cx="487.528231481256" cy="-312.671508775756" r="2" style="fill: rgb(0,0,0)" />
	<circle cx="499.083756239774" cy="-348.235757088431" r="2" style="fill: rgb(0,0,0)" />
	<circle cx="474.061976113752" cy="-376.025259239702" r="2" style="fill: rgb(0,0,0)" />
	<circle cx="437.484671229212" cy="-368.250513078297" r="2" style="fill: rgb(0,0,0)" />
	<circle cx="434.146169576117" cy="-471.704811751606" r="2" style="fill: rgb(0,0,0)" />
	<circle cx="422.590644817632" cy="-507.269060064274" r="2" style="fill: rgb(0,0,0)" />
	<circle cx="385.19618118343" cy="-507.269060064274" r="2" style="fill: rgb(0,0,0)" />
	<circle cx="363.654196881901" cy="-120.444273252785" r="2" style="fill: rgb(0,0,0)" />
	<circle cx="393.906953457497" cy="-98.4643590111951" r="2" style="fill: rgb(0,0,0)" />
	<circle cx="428.0684958515" cy="-113.674057619386" r="2" style="fill: rgb(0,0,0)" />
	<circle cx="431.977281669907" cy="-150.863670469168" r="2" style="fill: rgb(0,0,0)" />
	<circle cx="233.085701030341" cy="-129.049857488085" r="2" style="fill: rgb(0,0,0)" />
	<circle cx="229.176915211902" cy="-91.8602446383226" r="2" style="fill: rgb(0,0,0)" />
	<circle cx="259.429671787488" cy="-69.8803303967472" r="2" style="fill: rgb(0,0,0)" />
	<circle cx="293.591214181513" cy="-85.0900290049345" r="2" style="fill: rgb(0,0,0)" />
	<circle cx="81.6328296430492" cy="-332.686264765749" r="2" style="fill: rgb(0,0,0)" />
	<circle cx="45.0555247585179" cy="-324.91151860438" r="2" style="fill: rgb(0,0,0)" />
	<circle cx="33.5" cy="-289.347270291727" r="2" style="fill: rgb(0,0,0)" />
	<circle cx="58.5217801260135" cy="-261.557768140443" r="2" style="fill: rgb(0,0,0)" />
	<circle cx="228.501050633806" cy="-539.65361553247" r="2" style="fill: rgb(0,0,0)" />
	<circle cx="209.803818816725" cy="-572.038171000606" r="2" style="fill: rgb(0,0,0)" />
	<circle cx="172.409355182536" cy="-572.038171000616" r="2" style="fill: rgb(0,0,0)" />
	<circle cx="153.712123365429" cy="-539.65361553249" r="2" style="fill: rgb(0,0,0)" />
	<circle cx="536.478219873968" cy="-261.557768140254" r="2" style="fill: rgb(0,0,0)" />
	<circle cx="561.5" cy="-289.347270291504" r="2" style="fill: rgb(0,0,0)" />
	<circle cx="549.944475241492" cy="-324.911518604169" r="2" style="fill: rgb(0,0,0)" />
	<circle cx="513.367170356953" cy="-332.686264765583" r="2" style="fill: rgb(0,0,0)" />
	<circle cx="397.815739275897" cy="-61.2747461614211" r="2" style="fill: rgb(0,0,0)" />
	<circle cx="434.393044160411" cy="-53.5" r="2" style="fill: rgb(0,0,0)" />
	<circle cx="453.09027597751" cy="-85.8845554681146" r="2" style="fill: rgb(0,0,0)" />
	<!--
	Generated using the Perl SVG Module V2.86
	by Ronan Oger
	Info: http://www.roitsystems.com/
	-->
</svg>