<?xml version="1.0" encoding="UTF-8" standalone="yes"?>
<!DOCTYPE svg PUBLIC "-//W3C//DTD SVG 1.0//EN" "http://www.w3.org/TR/2001/REC-SVG-20010904/DTD/svg10.dtd">
<!-- generated using polymake; Michael Joswig, Georg Loho, Benjamin Lorenz, Rico Raber; license CC BY-NC-ND 3.0; see polymake.org and matchthenet.de -->
<svg height="841pt" id="document" viewBox="0 -725.753126007919 572 725.753126007919" width="595pt" xmlns="http://www.w3.org/2000/svg" xmlns:svg="http://www.w3.org/2000/svg" xmlns:xlink="http://www.w3.org/1999/xlink">
	<title id="document_title">planar_net_</title>
	<polygon points="237.838042759429,-355.844615989103 299.06707758996,-355.844615989103 298.381223536968,-394.817598571943 " style="fill: rgb(14,173,105); fill-opacity: 1; stroke: rgb(0,0,0); stroke-width: 3" />
	<polygon points="298.381223536973,-316.87163340626 299.06707758996,-355.844615989103 237.838042759429,-355.844615989103 " style="fill: rgb(14,173,105); fill-opacity: 1; stroke: rgb(0,0,0); stroke-width: 3" />
	<polygon points="237.838042759429,-355.844615989103 298.381223536968,-394.817598571943 263.189864672263,-411.578625641902 " style="fill: rgb(14,173,105); fill-opacity: 1; stroke: rgb(0,0,0); stroke-width: 3" />
	<polygon points="298.381223536968,-394.817598571943 299.06707758996,-355.844615989103 360.258199340897,-357.998989480559 " style="fill: rgb(14,173,105); fill-opacity: 1; stroke: rgb(0,0,0); stroke-width: 3" />
	<polygon points="237.838042759429,-355.844615989103 263.189864672263,-411.578625641902 227.430551409524,-427.091049119932 " style="fill: rgb(14,173,105); fill-opacity: 1; stroke: rgb(0,0,0); stroke-width: 3" />
	<polygon points="360.258199340893,-353.690242497649 299.06707758996,-355.844615989103 298.381223536973,-316.87163340626 " style="fill: rgb(14,173,105); fill-opacity: 1; stroke: rgb(0,0,0); stroke-width: 3" />
	<polygon points="298.381223536973,-316.87163340626 237.838042759429,-355.844615989103 263.189864672265,-300.110606336301 " style="fill: rgb(14,173,105); fill-opacity: 1; stroke: rgb(0,0,0); stroke-width: 3" />
	<polygon points="298.381223536968,-394.817598571943 360.258199340897,-357.998989480559 332.961046954436,-412.80647234439 " style="fill: rgb(14,173,105); fill-opacity: 1; stroke: rgb(0,0,0); stroke-width: 3" />
	<polygon points="263.189864672263,-411.578625641902 298.381223536968,-394.817598571943 290.487017058722,-466.386108505728 " style="fill: rgb(14,173,105); fill-opacity: 1; stroke: rgb(0,0,0); stroke-width: 3" />
	<polygon points="263.189864672265,-300.110606336301 237.838042759429,-355.844615989103 227.430551409526,-284.598182858268 " style="fill: rgb(14,173,105); fill-opacity: 1; stroke: rgb(0,0,0); stroke-width: 3" />
	<polygon points="332.961046954436,-412.80647234439 360.258199340897,-357.998989480559 368.152405819141,-429.567499414354 " style="fill: rgb(14,173,105); fill-opacity: 1; stroke: rgb(0,0,0); stroke-width: 3" />
	<polygon points="263.189864672263,-411.578625641902 286.564960364511,-468.170140974652 227.430551409524,-427.091049119932 " style="fill: rgb(14,173,105); fill-opacity: 1; stroke: rgb(0,0,0); stroke-width: 3" />
	<polygon points="237.838042759429,-355.844615989103 227.430551409524,-427.091049119932 197.602802003194,-401.997840227135 " style="fill: rgb(14,173,105); fill-opacity: 1; stroke: rgb(0,0,0); stroke-width: 3" />
	<polygon points="360.258199340893,-353.690242497649 298.381223536973,-316.87163340626 332.961046954446,-298.88275963382 " style="fill: rgb(14,173,105); fill-opacity: 1; stroke: rgb(0,0,0); stroke-width: 3" />
	<polygon points="298.381223536968,-394.817598571943 329.073420380096,-418.845765795582 290.487017058722,-466.386108505728 " style="fill: rgb(14,173,105); fill-opacity: 1; stroke: rgb(0,0,0); stroke-width: 3" />
	<polygon points="298.381223536973,-316.87163340626 263.189864672265,-300.110606336301 290.487017058724,-245.30312347247 " style="fill: rgb(14,173,105); fill-opacity: 1; stroke: rgb(0,0,0); stroke-width: 3" />
	<polygon points="237.838042759429,-355.844615989103 197.602802003194,-401.997840227135 168.676438778179,-375.870665145261 " style="fill: rgb(14,173,105); fill-opacity: 1; stroke: rgb(0,0,0); stroke-width: 3" />
	<polygon points="360.258199340893,-353.690242497649 332.961046954446,-298.88275963382 368.152405819156,-282.121732563864 " style="fill: rgb(14,173,105); fill-opacity: 1; stroke: rgb(0,0,0); stroke-width: 3" />
	<polygon points="329.073420380096,-418.845765795582 358.901169786427,-443.938974688381 290.487017058722,-466.386108505728 " style="fill: rgb(14,173,105); fill-opacity: 1; stroke: rgb(0,0,0); stroke-width: 3" />
	<polygon points="263.189864672265,-300.110606336301 227.430551409526,-284.598182858268 286.564960364511,-243.519091003554 " style="fill: rgb(14,173,105); fill-opacity: 1; stroke: rgb(0,0,0); stroke-width: 3" />
	<polygon points="227.430551409526,-284.598182858268 237.838042759429,-355.844615989103 197.602802003194,-309.691391751066 " style="fill: rgb(14,173,105); fill-opacity: 1; stroke: rgb(0,0,0); stroke-width: 3" />
	<polygon points="368.152405819141,-429.567499414354 360.258199340897,-357.998989480559 398.844602662269,-405.539332190715 " style="fill: rgb(14,173,105); fill-opacity: 1; stroke: rgb(0,0,0); stroke-width: 3" />
	<polygon points="227.430551409524,-427.091049119932 286.564960364511,-468.170140974652 225.373838613573,-466.015767483194 " style="fill: rgb(14,173,105); fill-opacity: 1; stroke: rgb(0,0,0); stroke-width: 3" />
	<polygon points="332.961046954446,-298.88275963382 298.381223536973,-316.87163340626 303.752368942479,-245.069677255356 " style="fill: rgb(14,173,105); fill-opacity: 1; stroke: rgb(0,0,0); stroke-width: 3" />
	<polygon points="197.602802003194,-401.997840227135 227.430551409524,-427.091049119932 159.016398681823,-449.538182937287 " style="fill: rgb(14,173,105); fill-opacity: 1; stroke: rgb(0,0,0); stroke-width: 3" />
	<polygon points="237.838042759429,-355.844615989103 168.676438778176,-335.818566832939 197.602802003194,-309.691391751066 " style="fill: rgb(14,173,105); fill-opacity: 1; stroke: rgb(0,0,0); stroke-width: 3" />
	<polygon points="398.844602662269,-405.539332190715 360.258199340897,-357.998989480559 428.672352068605,-380.446123297921 " style="fill: rgb(14,173,105); fill-opacity: 1; stroke: rgb(0,0,0); stroke-width: 3" />
	<polygon points="225.373838613573,-466.015767483194 286.564960364511,-468.170140974652 224.687984560577,-504.988750066036 " style="fill: rgb(14,173,105); fill-opacity: 1; stroke: rgb(0,0,0); stroke-width: 3" />
	<polygon points="332.961046954446,-298.88275963382 307.609225041625,-243.148749981013 368.152405819156,-282.121732563864 " style="fill: rgb(14,173,105); fill-opacity: 1; stroke: rgb(0,0,0); stroke-width: 3" />
	<polygon points="197.602802003194,-401.997840227135 155.768551214719,-446.706789747847 168.676438778179,-375.870665145261 " style="fill: rgb(14,173,105); fill-opacity: 1; stroke: rgb(0,0,0); stroke-width: 3" />
	<polygon points="360.258199340893,-353.690242497649 368.152405819156,-282.121732563864 398.844602662278,-306.149899787509 " style="fill: rgb(14,173,105); fill-opacity: 1; stroke: rgb(0,0,0); stroke-width: 3" />
	<polygon points="290.487017058722,-466.386108505728 358.901169786427,-443.938974688381 349.737494463863,-481.825526679385 " style="fill: rgb(14,173,105); fill-opacity: 1; stroke: rgb(0,0,0); stroke-width: 3" />
	<polygon points="286.564960364511,-243.519091003554 227.430551409526,-284.598182858268 225.373838613581,-245.673464495004 " style="fill: rgb(14,173,105); fill-opacity: 1; stroke: rgb(0,0,0); stroke-width: 3" />
	<polygon points="227.430551409524,-427.091049119932 225.373838613573,-466.015767483194 164.296409149794,-461.709688480717 " style="fill: rgb(14,173,105); fill-opacity: 1; stroke: rgb(0,0,0); stroke-width: 3" />
	<polygon points="227.430551409526,-284.598182858268 197.602802003194,-309.691391751066 159.01639868182,-262.151049040912 " style="fill: rgb(14,173,105); fill-opacity: 1; stroke: rgb(0,0,0); stroke-width: 3" />
	<polygon points="368.152405819141,-429.567499414354 398.844602662269,-405.539332190715 435.734383069737,-454.407919317494 " style="fill: rgb(14,173,105); fill-opacity: 1; stroke: rgb(0,0,0); stroke-width: 3" />
	<polygon points="360.258199340893,-353.690242497649 398.844602662278,-306.149899787509 428.672352068606,-331.243108680312 " style="fill: rgb(14,173,105); fill-opacity: 1; stroke: rgb(0,0,0); stroke-width: 3" />
	<polygon points="290.487017058722,-466.386108505728 349.737494463863,-481.825526679385 339.24643646468,-519.366190888244 " style="fill: rgb(14,173,105); fill-opacity: 1; stroke: rgb(0,0,0); stroke-width: 3" />
	<polygon points="286.564960364511,-243.519091003554 225.373838613581,-245.673464495004 224.687984560591,-206.700481912161 " style="fill: rgb(14,173,105); fill-opacity: 1; stroke: rgb(0,0,0); stroke-width: 3" />
	<polygon points="225.373838613573,-466.015767483194 224.687984560577,-504.988750066036 164.144803783044,-466.015767483196 " style="fill: rgb(14,173,105); fill-opacity: 1; stroke: rgb(0,0,0); stroke-width: 3" />
	<polygon points="197.602802003194,-309.691391751066 168.676438778176,-335.818566832939 155.768551214721,-264.982442230356 " style="fill: rgb(14,173,105); fill-opacity: 1; stroke: rgb(0,0,0); stroke-width: 3" />
	<polygon points="398.844602662269,-405.539332190715 428.672352068605,-380.446123297921 439.079843418504,-451.692556428747 " style="fill: rgb(14,173,105); fill-opacity: 1; stroke: rgb(0,0,0); stroke-width: 3" />
	<polygon points="224.687984560577,-504.988750066036 286.564960364511,-468.170140974652 259.267807978048,-522.977623838481 " style="fill: rgb(14,173,105); fill-opacity: 1; stroke: rgb(0,0,0); stroke-width: 3" />
	<polygon points="368.152405819156,-282.121732563864 307.609225041625,-243.148749981013 368.838259872158,-243.148749981026 " style="fill: rgb(14,173,105); fill-opacity: 1; stroke: rgb(0,0,0); stroke-width: 3" />
	<polygon points="168.676438778179,-375.870665145261 155.768551214719,-446.706789747847 132.393455522471,-390.115274415096 " style="fill: rgb(14,173,105); fill-opacity: 1; stroke: rgb(0,0,0); stroke-width: 3" />
	<polygon points="227.430551409526,-284.598182858268 164.296409149804,-249.979543497474 225.373838613581,-245.673464495004 " style="fill: rgb(14,173,105); fill-opacity: 1; stroke: rgb(0,0,0); stroke-width: 3" />
	<polygon points="358.901169786427,-443.938974688381 409.494527382361,-495.17062776764 349.737494463863,-481.825526679385 " style="fill: rgb(14,173,105); fill-opacity: 1; stroke: rgb(0,0,0); stroke-width: 3" />
	<polygon points="398.844602662278,-306.149899787509 368.152405819156,-282.121732563864 435.734383069752,-257.28131266074 " style="fill: rgb(14,173,105); fill-opacity: 1; stroke: rgb(0,0,0); stroke-width: 3" />
	<polygon points="286.564960364511,-468.170140974652 294.459166842753,-539.738650908446 259.267807978048,-522.977623838481 " style="fill: rgb(14,173,105); fill-opacity: 1; stroke: rgb(0,0,0); stroke-width: 3" />
	<polygon points="368.838259872158,-243.148749981026 307.609225041625,-243.148749981013 368.152405819168,-204.175767398171 " style="fill: rgb(14,173,105); fill-opacity: 1; stroke: rgb(0,0,0); stroke-width: 3" />
	<polygon points="132.393455522471,-390.115274415096 155.768551214719,-446.706789747847 96.6341422597297,-405.627697893123 " style="fill: rgb(14,173,105); fill-opacity: 1; stroke: rgb(0,0,0); stroke-width: 3" />
	<polygon points="225.373838613581,-245.673464495004 164.144803783049,-245.673464494994 224.687984560591,-206.700481912161 " style="fill: rgb(14,173,105); fill-opacity: 1; stroke: rgb(0,0,0); stroke-width: 3" />
	<polygon points="349.737494463863,-481.825526679385 408.408040445933,-499.340141732094 339.24643646468,-519.366190888244 " style="fill: rgb(14,173,105); fill-opacity: 1; stroke: rgb(0,0,0); stroke-width: 3" />
	<polygon points="398.844602662278,-306.149899787509 439.079843418528,-259.996675549484 428.672352068606,-331.243108680312 " style="fill: rgb(14,173,105); fill-opacity: 1; stroke: rgb(0,0,0); stroke-width: 3" />
	<polygon points="286.564960364511,-243.519091003554 224.687984560591,-206.700481912161 259.267807978065,-188.711608139722 " style="fill: rgb(14,173,105); fill-opacity: 1; stroke: rgb(0,0,0); stroke-width: 3" />
	<polygon points="164.144803783044,-466.015767483196 224.687984560577,-504.988750066036 189.49662569587,-521.749777135994 " style="fill: rgb(14,173,105); fill-opacity: 1; stroke: rgb(0,0,0); stroke-width: 3" />
	<polygon points="168.676438778176,-335.818566832939 132.393455522468,-321.573957563097 155.768551214721,-264.982442230356 " style="fill: rgb(14,173,105); fill-opacity: 1; stroke: rgb(0,0,0); stroke-width: 3" />
	<polygon points="439.079843418504,-451.692556428747 428.672352068605,-380.446123297921 464.431665331343,-395.958546775955 " style="fill: rgb(14,173,105); fill-opacity: 1; stroke: rgb(0,0,0); stroke-width: 3" />
	<polygon points="368.152405819156,-282.121732563864 368.838259872158,-243.148749981026 430.029381623095,-245.303123472498 " style="fill: rgb(14,173,105); fill-opacity: 1; stroke: rgb(0,0,0); stroke-width: 3" />
	<polygon points="224.687984560577,-504.988750066036 259.267807978048,-522.977623838481 230.059129966075,-576.790706216947 " style="fill: rgb(14,173,105); fill-opacity: 1; stroke: rgb(0,0,0); stroke-width: 3" />
	<polygon points="368.152405819168,-204.175767398171 307.609225041625,-243.148749981013 332.96104695446,-187.414740328212 " style="fill: rgb(14,173,105); fill-opacity: 1; stroke: rgb(0,0,0); stroke-width: 3" />
	<polygon points="164.144803783044,-466.015767483196 189.49662569587,-521.749777135994 153.737312433129,-537.262200614023 " style="fill: rgb(14,173,105); fill-opacity: 1; stroke: rgb(0,0,0); stroke-width: 3" />
	<polygon points="132.393455522468,-321.573957563097 96.6341422597294,-306.061534085063 155.768551214721,-264.982442230356 " style="fill: rgb(14,173,105); fill-opacity: 1; stroke: rgb(0,0,0); stroke-width: 3" />
	<polygon points="439.079843418504,-451.692556428747 464.431665331343,-395.958546775955 499.623024196051,-412.71957384592 " style="fill: rgb(14,173,105); fill-opacity: 1; stroke: rgb(0,0,0); stroke-width: 3" />
	<polygon points="368.838259872158,-243.148749981026 368.152405819168,-204.175767398171 430.029381623092,-240.994376489554 " style="fill: rgb(14,173,105); fill-opacity: 1; stroke: rgb(0,0,0); stroke-width: 3" />
	<polygon points="259.267807978048,-522.977623838481 294.459166842753,-539.738650908446 233.915986065215,-578.71163349128 " style="fill: rgb(14,173,105); fill-opacity: 1; stroke: rgb(0,0,0); stroke-width: 3" />
	<polygon points="96.6341422597297,-405.627697893123 155.768551214719,-446.706789747847 94.5774294637818,-444.552416256387 " style="fill: rgb(14,173,105); fill-opacity: 1; stroke: rgb(0,0,0); stroke-width: 3" />
	<polygon points="224.687984560591,-206.700481912161 164.144803783049,-245.673464494994 189.496625695891,-189.939454842195 " style="fill: rgb(14,173,105); fill-opacity: 1; stroke: rgb(0,0,0); stroke-width: 3" />
	<polygon points="339.24643646468,-519.366190888244 408.408040445933,-499.340141732094 368.172799689688,-545.493365970123 " style="fill: rgb(14,173,105); fill-opacity: 1; stroke: rgb(0,0,0); stroke-width: 3" />
	<polygon points="428.672352068606,-331.243108680312 439.079843418528,-259.996675549484 464.431665331347,-315.730685202293 " style="fill: rgb(14,173,105); fill-opacity: 1; stroke: rgb(0,0,0); stroke-width: 3" />
	<polygon points="224.687984560577,-504.988750066036 216.793778082328,-576.557259999822 189.49662569587,-521.749777135994 " style="fill: rgb(14,173,105); fill-opacity: 1; stroke: rgb(0,0,0); stroke-width: 3" />
	<polygon points="259.267807978065,-188.711608139722 224.687984560591,-206.700481912161 230.059129966099,-134.898525761256 " style="fill: rgb(14,173,105); fill-opacity: 1; stroke: rgb(0,0,0); stroke-width: 3" />
	<polygon points="164.144803783044,-466.015767483196 153.737312433129,-537.262200614023 123.909563026802,-512.168991721222 " style="fill: rgb(14,173,105); fill-opacity: 1; stroke: rgb(0,0,0); stroke-width: 3" />
	<polygon points="189.496625695891,-189.939454842195 164.144803783049,-245.673464494994 153.737312433154,-174.427031364158 " style="fill: rgb(14,173,105); fill-opacity: 1; stroke: rgb(0,0,0); stroke-width: 3" />
	<polygon points="368.172799689688,-545.493365970123 408.408040445933,-499.340141732094 398.000549096015,-570.586574862926 " style="fill: rgb(14,173,105); fill-opacity: 1; stroke: rgb(0,0,0); stroke-width: 3" />
	<polygon points="464.431665331347,-315.730685202293 439.079843418528,-259.996675549484 499.623024196059,-298.969658132344 " style="fill: rgb(14,173,105); fill-opacity: 1; stroke: rgb(0,0,0); stroke-width: 3" />
	<polygon points="189.49662569587,-521.749777135994 212.871721388113,-578.341292468747 153.737312433129,-537.262200614023 " style="fill: rgb(14,173,105); fill-opacity: 1; stroke: rgb(0,0,0); stroke-width: 3" />
	<polygon points="368.152405819168,-204.175767398171 332.96104695446,-187.414740328212 360.25819934092,-132.60725746438 " style="fill: rgb(14,173,105); fill-opacity: 1; stroke: rgb(0,0,0); stroke-width: 3" />
	<polygon points="155.768551214721,-264.982442230356 96.6341422597294,-306.061534085063 94.5774294637885,-267.136815721798 " style="fill: rgb(14,173,105); fill-opacity: 1; stroke: rgb(0,0,0); stroke-width: 3" />
	<polygon points="439.079843418504,-451.692556428747 499.623024196051,-412.71957384592 500.308878249036,-451.692556428761 " style="fill: rgb(14,173,105); fill-opacity: 1; stroke: rgb(0,0,0); stroke-width: 3" />
	<polygon points="430.029381623092,-240.994376489554 368.152405819168,-204.175767398171 402.73222923664,-186.186893625727 " style="fill: rgb(14,173,105); fill-opacity: 1; stroke: rgb(0,0,0); stroke-width: 3" />
	<polygon points="294.459166842753,-539.738650908446 295.145020895742,-578.711633491288 233.915986065215,-578.71163349128 " style="fill: rgb(14,173,105); fill-opacity: 1; stroke: rgb(0,0,0); stroke-width: 3" />
	<polygon points="224.687984560591,-206.700481912161 189.496625695891,-189.939454842195 216.793778082361,-135.131971978369 " style="fill: rgb(14,173,105); fill-opacity: 1; stroke: rgb(0,0,0); stroke-width: 3" />
	<polygon points="96.6341422597297,-405.627697893123 94.5774294637818,-444.552416256387 33.5,-440.246337253916 " style="fill: rgb(14,173,105); fill-opacity: 1; stroke: rgb(0,0,0); stroke-width: 3" />
	<polygon points="164.144803783049,-245.673464494994 123.909563026819,-199.520240256952 153.737312433154,-174.427031364158 " style="fill: rgb(14,173,105); fill-opacity: 1; stroke: rgb(0,0,0); stroke-width: 3" />
	<polygon points="408.408040445933,-499.340141732094 433.759862358756,-555.0741513849 398.000549096015,-570.586574862926 " style="fill: rgb(14,173,105); fill-opacity: 1; stroke: rgb(0,0,0); stroke-width: 3" />
	<polygon points="430.029381623092,-240.994376489554 402.73222923664,-186.186893625727 437.923588101349,-169.425866555767 " style="fill: rgb(14,173,105); fill-opacity: 1; stroke: rgb(0,0,0); stroke-width: 3" />
	<polygon points="295.145020895742,-578.711633491288 294.45916684275,-617.684616074133 233.915986065215,-578.71163349128 " style="fill: rgb(14,173,105); fill-opacity: 1; stroke: rgb(0,0,0); stroke-width: 3" />
	<polygon points="189.496625695891,-189.939454842195 153.737312433154,-174.427031364158 212.871721388144,-133.34793950945 " style="fill: rgb(14,173,105); fill-opacity: 1; stroke: rgb(0,0,0); stroke-width: 3" />
	<polygon points="123.909563026802,-512.168991721222 153.737312433129,-537.262200614023 85.3231597054242,-559.70933443137 " style="fill: rgb(14,173,105); fill-opacity: 1; stroke: rgb(0,0,0); stroke-width: 3" />
	<polygon points="499.623024196059,-298.969658132344 439.079843418528,-259.996675549484 500.308878249061,-259.996675549503 " style="fill: rgb(14,173,105); fill-opacity: 1; stroke: rgb(0,0,0); stroke-width: 3" />
	<polygon points="153.737312433129,-537.262200614023 212.871721388113,-578.341292468747 151.680599637176,-576.186918977284 " style="fill: rgb(14,173,105); fill-opacity: 1; stroke: rgb(0,0,0); stroke-width: 3" />
	<polygon points="368.152405819168,-204.175767398171 360.25819934092,-132.60725746438 398.844602662295,-180.147600174535 " style="fill: rgb(14,173,105); fill-opacity: 1; stroke: rgb(0,0,0); stroke-width: 3" />
	<polygon points="96.6341422597294,-306.061534085063 33.5000000000103,-271.442894724262 94.5774294637885,-267.136815721798 " style="fill: rgb(14,173,105); fill-opacity: 1; stroke: rgb(0,0,0); stroke-width: 3" />
	<polygon points="500.308878249036,-451.692556428761 499.623024196051,-412.71957384592 561.499999999971,-449.538182937313 " style="fill: rgb(14,173,105); fill-opacity: 1; stroke: rgb(0,0,0); stroke-width: 3" />
	<polygon points="430.029381623092,-240.994376489554 437.923588101349,-169.425866555767 468.615784944474,-193.454033779409 " style="fill: rgb(14,173,105); fill-opacity: 1; stroke: rgb(0,0,0); stroke-width: 3" />
	<polygon points="151.680599637176,-576.186918977284 212.871721388113,-578.341292468747 150.994745584176,-615.159901560126 " style="fill: rgb(14,173,105); fill-opacity: 1; stroke: rgb(0,0,0); stroke-width: 3" />
	<polygon points="398.844602662295,-180.147600174535 360.25819934092,-132.60725746438 428.672352068629,-155.05439128174 " style="fill: rgb(14,173,105); fill-opacity: 1; stroke: rgb(0,0,0); stroke-width: 3" />
	<polygon points="123.909563026819,-199.520240256952 85.3231597054492,-151.979897546793 153.737312433154,-174.427031364158 " style="fill: rgb(14,173,105); fill-opacity: 1; stroke: rgb(0,0,0); stroke-width: 3" />
	<polygon points="433.759862358756,-555.0741513849 457.134958050999,-611.665666717656 398.000549096015,-570.586574862926 " style="fill: rgb(14,173,105); fill-opacity: 1; stroke: rgb(0,0,0); stroke-width: 3" />
	<polygon points="233.915986065215,-578.71163349128 294.45916684275,-617.684616074133 259.267807978042,-634.445643144088 " style="fill: rgb(14,173,105); fill-opacity: 1; stroke: rgb(0,0,0); stroke-width: 3" />
	<polygon points="212.871721388144,-133.34793950945 153.737312433154,-174.427031364158 151.680599637213,-135.502313000893 " style="fill: rgb(14,173,105); fill-opacity: 1; stroke: rgb(0,0,0); stroke-width: 3" />
	<polygon points="153.737312433129,-537.262200614023 144.573637110563,-575.148752605028 85.3231597054242,-559.70933443137 " style="fill: rgb(14,173,105); fill-opacity: 1; stroke: rgb(0,0,0); stroke-width: 3" />
	<polygon points="499.623024196059,-298.969658132344 500.308878249061,-259.996675549503 561.5,-262.151049040973 " style="fill: rgb(14,173,105); fill-opacity: 1; stroke: rgb(0,0,0); stroke-width: 3" />
	<polygon points="212.871721388113,-578.341292468747 185.574569001646,-633.148775332574 150.994745584176,-615.159901560126 " style="fill: rgb(14,173,105); fill-opacity: 1; stroke: rgb(0,0,0); stroke-width: 3" />
	<polygon points="212.871721388144,-133.34793950945 151.680599637213,-135.502313000893 150.994745584226,-96.5293304180481 " style="fill: rgb(14,173,105); fill-opacity: 1; stroke: rgb(0,0,0); stroke-width: 3" />
	<polygon points="144.573637110563,-575.148752605028 134.082579111375,-612.689416813888 85.3231597054242,-559.70933443137 " style="fill: rgb(14,173,105); fill-opacity: 1; stroke: rgb(0,0,0); stroke-width: 3" />
	<polygon points="468.615784944474,-193.454033779409 437.923588101349,-169.425866555767 505.505565351944,-144.585446652635 " style="fill: rgb(14,173,105); fill-opacity: 1; stroke: rgb(0,0,0); stroke-width: 3" />
	<polygon points="428.672352068629,-155.05439128174 360.25819934092,-132.60725746438 419.508676746068,-117.167839290735 " style="fill: rgb(14,173,105); fill-opacity: 1; stroke: rgb(0,0,0); stroke-width: 3" />
	<polygon points="153.737312433154,-174.427031364158 85.3231597054492,-151.979897546793 144.5736371106,-136.540479373153 " style="fill: rgb(14,173,105); fill-opacity: 1; stroke: rgb(0,0,0); stroke-width: 3" />
	<polygon points="294.45916684275,-617.684616074133 286.564960364494,-689.253126007919 259.267807978042,-634.445643144088 " style="fill: rgb(14,173,105); fill-opacity: 1; stroke: rgb(0,0,0); stroke-width: 3" />
	<polygon points="419.508676746068,-117.167839290735 360.25819934092,-132.60725746438 409.017618746893,-79.627175081874 " style="fill: rgb(14,173,105); fill-opacity: 1; stroke: rgb(0,0,0); stroke-width: 3" />
	<polygon points="144.5736371106,-136.540479373153 85.3231597054492,-151.979897546793 134.082579111428,-98.9998151642912 " style="fill: rgb(14,173,105); fill-opacity: 1; stroke: rgb(0,0,0); stroke-width: 3" />
	<polygon points="185.574569001646,-633.148775332574 156.365890989667,-686.96185771104 150.994745584176,-615.159901560126 " style="fill: rgb(14,173,105); fill-opacity: 1; stroke: rgb(0,0,0); stroke-width: 3" />
	<polygon points="85.3231597054242,-559.70933443137 134.082579111375,-612.689416813888 95.8019606807552,-620.035029092913 " style="fill: rgb(14,173,105); fill-opacity: 1; stroke: rgb(0,0,0); stroke-width: 3" />
	<polygon points="428.672352068629,-155.05439128174 419.508676746068,-117.167839290735 479.265709664573,-103.822738202479 " style="fill: rgb(14,173,105); fill-opacity: 1; stroke: rgb(0,0,0); stroke-width: 3" />
	<polygon points="85.3231597054492,-151.979897546793 95.8019606808115,-91.6542028852521 134.082579111428,-98.9998151642912 " style="fill: rgb(14,173,105); fill-opacity: 1; stroke: rgb(0,0,0); stroke-width: 3" />
	<polygon points="419.508676746068,-117.167839290735 409.017618746893,-79.627175081874 478.179222728138,-99.6532242380364 " style="fill: rgb(14,173,105); fill-opacity: 1; stroke: rgb(0,0,0); stroke-width: 3" />
	<polygon points="134.082579111375,-612.689416813888 108.396862198518,-679.954668294399 95.8019606807552,-620.035029092913 " style="fill: rgb(14,173,105); fill-opacity: 1; stroke: rgb(0,0,0); stroke-width: 3" />
	<polygon points="478.179222728138,-99.6532242380364 409.017618746893,-79.627175081874 437.943981971912,-53.5 " style="fill: rgb(14,173,105); fill-opacity: 1; stroke: rgb(0,0,0); stroke-width: 3" />
	<circle cx="237.838042759429" cy="-355.844615989103" r="2" style="fill: rgb(0,0,0)" />
	<circle cx="299.06707758996" cy="-355.844615989103" r="2" style="fill: rgb(0,0,0)" />
	<circle cx="298.381223536968" cy="-394.817598571943" r="2" style="fill: rgb(0,0,0)" />
	<circle cx="298.381223536973" cy="-316.87163340626" r="2" style="fill: rgb(0,0,0)" />
	<circle cx="263.189864672263" cy="-411.578625641902" r="2" style="fill: rgb(0,0,0)" />
	<circle cx="360.258199340897" cy="-357.998989480559" r="2" style="fill: rgb(0,0,0)" />
	<circle cx="360.258199340893" cy="-353.690242497649" r="2" style="fill: rgb(0,0,0)" />
	<circle cx="263.189864672265" cy="-300.110606336301" r="2" style="fill: rgb(0,0,0)" />
	<circle cx="227.430551409524" cy="-427.091049119932" r="2" style="fill: rgb(0,0,0)" />
	<circle cx="290.487017058722" cy="-466.386108505728" r="2" style="fill: rgb(0,0,0)" />
	<circle cx="332.961046954436" cy="-412.80647234439" r="2" style="fill: rgb(0,0,0)" />
	<circle cx="332.961046954446" cy="-298.88275963382" r="2" style="fill: rgb(0,0,0)" />
	<circle cx="227.430551409526" cy="-284.598182858268" r="2" style="fill: rgb(0,0,0)" />
	<circle cx="290.487017058724" cy="-245.30312347247" r="2" style="fill: rgb(0,0,0)" />
	<circle cx="286.564960364511" cy="-468.170140974652" r="2" style="fill: rgb(0,0,0)" />
	<circle cx="197.602802003194" cy="-401.997840227135" r="2" style="fill: rgb(0,0,0)" />
	<circle cx="329.073420380096" cy="-418.845765795582" r="2" style="fill: rgb(0,0,0)" />
	<circle cx="368.152405819141" cy="-429.567499414354" r="2" style="fill: rgb(0,0,0)" />
	<circle cx="368.152405819156" cy="-282.121732563864" r="2" style="fill: rgb(0,0,0)" />
	<circle cx="303.752368942479" cy="-245.069677255356" r="2" style="fill: rgb(0,0,0)" />
	<circle cx="286.564960364511" cy="-243.519091003554" r="2" style="fill: rgb(0,0,0)" />
	<circle cx="197.602802003194" cy="-309.691391751066" r="2" style="fill: rgb(0,0,0)" />
	<circle cx="225.373838613573" cy="-466.015767483194" r="2" style="fill: rgb(0,0,0)" />
	<circle cx="168.676438778179" cy="-375.870665145261" r="2" style="fill: rgb(0,0,0)" />
	<circle cx="159.016398681823" cy="-449.538182937287" r="2" style="fill: rgb(0,0,0)" />
	<circle cx="358.901169786427" cy="-443.938974688381" r="2" style="fill: rgb(0,0,0)" />
	<circle cx="398.844602662269" cy="-405.539332190715" r="2" style="fill: rgb(0,0,0)" />
	<circle cx="307.609225041625" cy="-243.148749981013" r="2" style="fill: rgb(0,0,0)" />
	<circle cx="398.844602662278" cy="-306.149899787509" r="2" style="fill: rgb(0,0,0)" />
	<circle cx="225.373838613581" cy="-245.673464495004" r="2" style="fill: rgb(0,0,0)" />
	<circle cx="168.676438778176" cy="-335.818566832939" r="2" style="fill: rgb(0,0,0)" />
	<circle cx="159.01639868182" cy="-262.151049040912" r="2" style="fill: rgb(0,0,0)" />
	<circle cx="224.687984560577" cy="-504.988750066036" r="2" style="fill: rgb(0,0,0)" />
	<circle cx="164.296409149794" cy="-461.709688480717" r="2" style="fill: rgb(0,0,0)" />
	<circle cx="155.768551214719" cy="-446.706789747847" r="2" style="fill: rgb(0,0,0)" />
	<circle cx="349.737494463863" cy="-481.825526679385" r="2" style="fill: rgb(0,0,0)" />
	<circle cx="428.672352068605" cy="-380.446123297921" r="2" style="fill: rgb(0,0,0)" />
	<circle cx="435.734383069737" cy="-454.407919317494" r="2" style="fill: rgb(0,0,0)" />
	<circle cx="368.838259872158" cy="-243.148749981026" r="2" style="fill: rgb(0,0,0)" />
	<circle cx="428.672352068606" cy="-331.243108680312" r="2" style="fill: rgb(0,0,0)" />
	<circle cx="435.734383069752" cy="-257.28131266074" r="2" style="fill: rgb(0,0,0)" />
	<circle cx="224.687984560591" cy="-206.700481912161" r="2" style="fill: rgb(0,0,0)" />
	<circle cx="164.296409149804" cy="-249.979543497474" r="2" style="fill: rgb(0,0,0)" />
	<circle cx="155.768551214721" cy="-264.982442230356" r="2" style="fill: rgb(0,0,0)" />
	<circle cx="164.144803783044" cy="-466.015767483196" r="2" style="fill: rgb(0,0,0)" />
	<circle cx="259.267807978048" cy="-522.977623838481" r="2" style="fill: rgb(0,0,0)" />
	<circle cx="132.393455522471" cy="-390.115274415096" r="2" style="fill: rgb(0,0,0)" />
	<circle cx="339.24643646468" cy="-519.366190888244" r="2" style="fill: rgb(0,0,0)" />
	<circle cx="409.494527382361" cy="-495.17062776764" r="2" style="fill: rgb(0,0,0)" />
	<circle cx="439.079843418504" cy="-451.692556428747" r="2" style="fill: rgb(0,0,0)" />
	<circle cx="368.152405819168" cy="-204.175767398171" r="2" style="fill: rgb(0,0,0)" />
	<circle cx="430.029381623095" cy="-245.303123472498" r="2" style="fill: rgb(0,0,0)" />
	<circle cx="439.079843418528" cy="-259.996675549484" r="2" style="fill: rgb(0,0,0)" />
	<circle cx="164.144803783049" cy="-245.673464494994" r="2" style="fill: rgb(0,0,0)" />
	<circle cx="259.267807978065" cy="-188.711608139722" r="2" style="fill: rgb(0,0,0)" />
	<circle cx="132.393455522468" cy="-321.573957563097" r="2" style="fill: rgb(0,0,0)" />
	<circle cx="189.49662569587" cy="-521.749777135994" r="2" style="fill: rgb(0,0,0)" />
	<circle cx="294.459166842753" cy="-539.738650908446" r="2" style="fill: rgb(0,0,0)" />
	<circle cx="230.059129966075" cy="-576.790706216947" r="2" style="fill: rgb(0,0,0)" />
	<circle cx="96.6341422597297" cy="-405.627697893123" r="2" style="fill: rgb(0,0,0)" />
	<circle cx="408.408040445933" cy="-499.340141732094" r="2" style="fill: rgb(0,0,0)" />
	<circle cx="464.431665331343" cy="-395.958546775955" r="2" style="fill: rgb(0,0,0)" />
	<circle cx="332.96104695446" cy="-187.414740328212" r="2" style="fill: rgb(0,0,0)" />
	<circle cx="430.029381623092" cy="-240.994376489554" r="2" style="fill: rgb(0,0,0)" />
	<circle cx="464.431665331347" cy="-315.730685202293" r="2" style="fill: rgb(0,0,0)" />
	<circle cx="189.496625695891" cy="-189.939454842195" r="2" style="fill: rgb(0,0,0)" />
	<circle cx="230.059129966099" cy="-134.898525761256" r="2" style="fill: rgb(0,0,0)" />
	<circle cx="96.6341422597294" cy="-306.061534085063" r="2" style="fill: rgb(0,0,0)" />
	<circle cx="153.737312433129" cy="-537.262200614023" r="2" style="fill: rgb(0,0,0)" />
	<circle cx="216.793778082328" cy="-576.557259999822" r="2" style="fill: rgb(0,0,0)" />
	<circle cx="233.915986065215" cy="-578.71163349128" r="2" style="fill: rgb(0,0,0)" />
	<circle cx="94.5774294637818" cy="-444.552416256387" r="2" style="fill: rgb(0,0,0)" />
	<circle cx="368.172799689688" cy="-545.493365970123" r="2" style="fill: rgb(0,0,0)" />
	<circle cx="499.623024196051" cy="-412.71957384592" r="2" style="fill: rgb(0,0,0)" />
	<circle cx="360.25819934092" cy="-132.60725746438" r="2" style="fill: rgb(0,0,0)" />
	<circle cx="402.73222923664" cy="-186.186893625727" r="2" style="fill: rgb(0,0,0)" />
	<circle cx="499.623024196059" cy="-298.969658132344" r="2" style="fill: rgb(0,0,0)" />
	<circle cx="153.737312433154" cy="-174.427031364158" r="2" style="fill: rgb(0,0,0)" />
	<circle cx="216.793778082361" cy="-135.131971978369" r="2" style="fill: rgb(0,0,0)" />
	<circle cx="94.5774294637885" cy="-267.136815721798" r="2" style="fill: rgb(0,0,0)" />
	<circle cx="123.909563026802" cy="-512.168991721222" r="2" style="fill: rgb(0,0,0)" />
	<circle cx="212.871721388113" cy="-578.341292468747" r="2" style="fill: rgb(0,0,0)" />
	<circle cx="295.145020895742" cy="-578.711633491288" r="2" style="fill: rgb(0,0,0)" />
	<circle cx="33.5" cy="-440.246337253916" r="2" style="fill: rgb(0,0,0)" />
	<circle cx="398.000549096015" cy="-570.586574862926" r="2" style="fill: rgb(0,0,0)" />
	<circle cx="500.308878249036" cy="-451.692556428761" r="2" style="fill: rgb(0,0,0)" />
	<circle cx="398.844602662295" cy="-180.147600174535" r="2" style="fill: rgb(0,0,0)" />
	<circle cx="437.923588101349" cy="-169.425866555767" r="2" style="fill: rgb(0,0,0)" />
	<circle cx="500.308878249061" cy="-259.996675549503" r="2" style="fill: rgb(0,0,0)" />
	<circle cx="123.909563026819" cy="-199.520240256952" r="2" style="fill: rgb(0,0,0)" />
	<circle cx="212.871721388144" cy="-133.34793950945" r="2" style="fill: rgb(0,0,0)" />
	<circle cx="33.5000000000103" cy="-271.442894724262" r="2" style="fill: rgb(0,0,0)" />
	<circle cx="85.3231597054242" cy="-559.70933443137" r="2" style="fill: rgb(0,0,0)" />
	<circle cx="151.680599637176" cy="-576.186918977284" r="2" style="fill: rgb(0,0,0)" />
	<circle cx="294.45916684275" cy="-617.684616074133" r="2" style="fill: rgb(0,0,0)" />
	<circle cx="433.759862358756" cy="-555.0741513849" r="2" style="fill: rgb(0,0,0)" />
	<circle cx="561.499999999971" cy="-449.538182937313" r="2" style="fill: rgb(0,0,0)" />
	<circle cx="428.672352068629" cy="-155.05439128174" r="2" style="fill: rgb(0,0,0)" />
	<circle cx="468.615784944474" cy="-193.454033779409" r="2" style="fill: rgb(0,0,0)" />
	<circle cx="561.5" cy="-262.151049040973" r="2" style="fill: rgb(0,0,0)" />
	<circle cx="85.3231597054492" cy="-151.979897546793" r="2" style="fill: rgb(0,0,0)" />
	<circle cx="151.680599637213" cy="-135.502313000893" r="2" style="fill: rgb(0,0,0)" />
	<circle cx="144.573637110563" cy="-575.148752605028" r="2" style="fill: rgb(0,0,0)" />
	<circle cx="150.994745584176" cy="-615.159901560126" r="2" style="fill: rgb(0,0,0)" />
	<circle cx="259.267807978042" cy="-634.445643144088" r="2" style="fill: rgb(0,0,0)" />
	<circle cx="457.134958050999" cy="-611.665666717656" r="2" style="fill: rgb(0,0,0)" />
	<circle cx="419.508676746068" cy="-117.167839290735" r="2" style="fill: rgb(0,0,0)" />
	<circle cx="505.505565351944" cy="-144.585446652635" r="2" style="fill: rgb(0,0,0)" />
	<circle cx="144.5736371106" cy="-136.540479373153" r="2" style="fill: rgb(0,0,0)" />
	<circle cx="150.994745584226" cy="-96.5293304180481" r="2" style="fill: rgb(0,0,0)" />
	<circle cx="134.082579111375" cy="-612.689416813888" r="2" style="fill: rgb(0,0,0)" />
	<circle cx="185.574569001646" cy="-633.148775332574" r="2" style="fill: rgb(0,0,0)" />
	<circle cx="286.564960364494" cy="-689.253126007919" r="2" style="fill: rgb(0,0,0)" />
	<circle cx="409.017618746893" cy="-79.627175081874" r="2" style="fill: rgb(0,0,0)" />
	<circle cx="479.265709664573" cy="-103.822738202479" r="2" style="fill: rgb(0,0,0)" />
	<circle cx="134.082579111428" cy="-98.9998151642912" r="2" style="fill: rgb(0,0,0)" />
	<circle cx="95.8019606807552" cy="-620.035029092913" r="2" style="fill: rgb(0,0,0)" />
	<circle cx="156.365890989667" cy="-686.96185771104" r="2" style="fill: rgb(0,0,0)" />
	<circle cx="478.179222728138" cy="-99.6532242380364" r="2" style="fill: rgb(0,0,0)" />
	<circle cx="95.8019606808115" cy="-91.6542028852521" r="2" style="fill: rgb(0,0,0)" />
	<circle cx="108.396862198518" cy="-679.954668294399" r="2" style="fill: rgb(0,0,0)" />
	<circle cx="437.943981971912" cy="-53.5" r="2" style="fill: rgb(0,0,0)" />
	<!--
	Generated using the Perl SVG Module V2.87
	by Ronan Oger

	-->
</svg>