<?xml version="1.0" encoding="UTF-8" standalone="yes"?>
<!DOCTYPE svg PUBLIC "-//W3C//DTD SVG 1.0//EN" "http://www.w3.org/TR/2001/REC-SVG-20010904/DTD/svg10.dtd">
<!-- generated using polymake; Michael Joswig, Georg Loho, Benjamin Lorenz, Rico Raber; license CC BY-NC-ND 3.0; see polymake.org and matchthenet.de -->
<svg height="841pt" id="document" viewBox="0 -656.717360817815 572 656.717360817815" width="595pt" xmlns="http://www.w3.org/2000/svg" xmlns:svg="http://www.w3.org/2000/svg" xmlns:xlink="http://www.w3.org/1999/xlink">
	<title id="document_title">planar_net_</title>
	<polygon points="322.762756871387,-336.858680408917 345.077886311378,-336.858680408917 338.211692637538,-358.091211731325 315.896563197557,-358.091211731337 " style="fill: rgb(67,184,206); fill-opacity: 1; stroke: rgb(0,0,0); stroke-width: 3" />
	<polygon points="384.68547869004,-375.261736886799 365.305022930545,-346.283538291834 380.755164378191,-330.182043604341 400.135620137683,-359.160242199301 " style="fill: rgb(67,184,206); fill-opacity: 1; stroke: rgb(0,0,0); stroke-width: 3" />
	<polygon points="322.762756871387,-336.858680408917 292.956677025961,-318.777318084609 315.271806465951,-318.777318084609 345.077886311378,-336.858680408917 " style="fill: rgb(67,184,206); fill-opacity: 1; stroke: rgb(0,0,0); stroke-width: 3" />
	<polygon points="345.077886311378,-336.858680408917 315.271806465951,-318.777318084609 293.662675857984,-291.420718631776 323.468755703411,-309.502080956085 " style="fill: rgb(67,184,206); fill-opacity: 1; stroke: rgb(0,0,0); stroke-width: 3" />
	<polygon points="353.110946370835,-370.782241621385 345.077886311378,-336.858680408917 364.458342070874,-365.836879003883 372.491402130327,-399.760440216345 " style="fill: rgb(67,184,206); fill-opacity: 1; stroke: rgb(0,0,0); stroke-width: 3" />
	<polygon points="345.077886311378,-336.858680408917 323.468755703411,-309.502080956085 320.724870534453,-287.356289118738 342.334001142419,-314.712888571571 " style="fill: rgb(67,184,206); fill-opacity: 1; stroke: rgb(0,0,0); stroke-width: 3" />
	<polygon points="338.211692637538,-358.091211731325 345.077886311378,-336.858680408917 353.110946370835,-370.782241621385 346.244752696993,-392.014772943788 " style="fill: rgb(67,184,206); fill-opacity: 1; stroke: rgb(0,0,0); stroke-width: 3" />
	<polygon points="365.305022930549,-327.433822525987 345.077886311378,-336.858680408917 342.334001142419,-314.712888571571 362.561137761586,-305.28803068865 " style="fill: rgb(67,184,206); fill-opacity: 1; stroke: rgb(0,0,0); stroke-width: 3" />
	<polygon points="292.956677025961,-318.777318084609 270.016790854375,-292.526609871501 292.331920294357,-292.526609871496 315.271806465951,-318.777318084609 " style="fill: rgb(67,184,206); fill-opacity: 1; stroke: rgb(0,0,0); stroke-width: 3" />
	<polygon points="364.458342070874,-365.836879003883 345.077886311378,-336.858680408917 365.305022930545,-346.283538291834 384.68547869004,-375.261736886799 " style="fill: rgb(67,184,206); fill-opacity: 1; stroke: rgb(0,0,0); stroke-width: 3" />
	<polygon points="397.237134744791,-306.478517204033 362.40823620173,-304.966602678619 340.799105593766,-277.610003225793 375.628004136831,-279.121917751209 " style="fill: rgb(67,184,206); fill-opacity: 1; stroke: rgb(0,0,0); stroke-width: 3" />
	<polygon points="372.491402130327,-399.760440216345 364.458342070874,-365.836879003883 384.19292468154,-376.253752388275 392.225984740991,-410.177313600737 " style="fill: rgb(67,184,206); fill-opacity: 1; stroke: rgb(0,0,0); stroke-width: 3" />
	<polygon points="322.762756871387,-336.858680408917 315.896563197557,-358.091211731337 285.805873629855,-340.487562660902 292.672067303678,-319.255031338481 " style="fill: rgb(67,184,206); fill-opacity: 1; stroke: rgb(0,0,0); stroke-width: 3" />
	<polygon points="315.896563197557,-358.091211731337 322.227203821584,-392.373292306245 292.136514253885,-374.769643235814 285.805873629855,-340.487562660902 " style="fill: rgb(67,184,206); fill-opacity: 1; stroke: rgb(0,0,0); stroke-width: 3" />
	<polygon points="323.468755703411,-309.502080956085 293.662675857984,-291.420718631776 289.823346833759,-269.438349456291 319.629426679184,-287.519711780598 " style="fill: rgb(67,184,206); fill-opacity: 1; stroke: rgb(0,0,0); stroke-width: 3" />
	<polygon points="315.896563197557,-358.091211731337 338.211692637538,-358.091211731325 345.702643042975,-392.13858639191 323.387513602995,-392.138586391924 " style="fill: rgb(67,184,206); fill-opacity: 1; stroke: rgb(0,0,0); stroke-width: 3" />
	<polygon points="362.40823620173,-304.966602678619 342.334001142419,-314.712888571571 320.724870534453,-287.356289118738 340.799105593766,-277.610003225793 " style="fill: rgb(67,184,206); fill-opacity: 1; stroke: rgb(0,0,0); stroke-width: 3" />
	<polygon points="346.244752696993,-392.014772943788 353.110946370835,-370.782241621385 371.029698943404,-400.686361161971 364.163505269571,-421.918892484386 " style="fill: rgb(67,184,206); fill-opacity: 1; stroke: rgb(0,0,0); stroke-width: 3" />
	<polygon points="323.387513602995,-392.138586391924 345.702643042975,-392.13858639191 360.059787122256,-423.906659565175 337.744657682277,-423.906659565189 " style="fill: rgb(67,184,206); fill-opacity: 1; stroke: rgb(0,0,0); stroke-width: 3" />
	<polygon points="375.628004136831,-279.121917751209 340.799105593766,-277.610003225793 343.408005490932,-242.846060690723 378.236904033991,-244.357975216133 " style="fill: rgb(67,184,206); fill-opacity: 1; stroke: rgb(0,0,0); stroke-width: 3" />
	<polygon points="292.672067303678,-319.255031338481 285.805873629855,-340.487562660902 259.99658229675,-317.052150564293 266.862775970561,-295.819619241865 " style="fill: rgb(67,184,206); fill-opacity: 1; stroke: rgb(0,0,0); stroke-width: 3" />
	<polygon points="364.163505269571,-421.918892484386 371.029698943404,-400.686361161971 387.988114904926,-415.190744292587 381.121921231102,-436.423275614997 " style="fill: rgb(67,184,206); fill-opacity: 1; stroke: rgb(0,0,0); stroke-width: 3" />
	<polygon points="292.331920294357,-292.526609871496 270.016790854375,-292.526609871501 261.434048762068,-271.928028849968 283.749178202047,-271.928028849962 " style="fill: rgb(67,184,206); fill-opacity: 1; stroke: rgb(0,0,0); stroke-width: 3" />
	<polygon points="422.996192379853,-426.564271253618 440.666224404614,-412.935809485411 467.391531064091,-435.320984115338 449.721499039336,-448.949445883546 " style="fill: rgb(67,184,206); fill-opacity: 1; stroke: rgb(0,0,0); stroke-width: 3" />
	<polygon points="319.629426679184,-287.519711780598 289.823346833759,-269.438349456291 308.227569160989,-256.818935743545 338.033649006418,-274.900298067855 " style="fill: rgb(67,184,206); fill-opacity: 1; stroke: rgb(0,0,0); stroke-width: 3" />
	<polygon points="392.225984740991,-410.177313600737 384.19292468154,-376.253752388275 401.862956706313,-362.625290620079 409.896016765761,-396.548851832532 " style="fill: rgb(67,184,206); fill-opacity: 1; stroke: rgb(0,0,0); stroke-width: 3" />
	<polygon points="323.387513602998,-455.674732738462 315.896563197562,-489.722107399053 285.225535864263,-506.293955261474 292.716486269696,-472.246580600884 " style="fill: rgb(67,184,206); fill-opacity: 1; stroke: rgb(0,0,0); stroke-width: 3" />
	<polygon points="440.827466724343,-412.629382380828 474.480988382081,-403.531111155598 503.355184812311,-423.066178080597 469.701663154577,-432.164449305825 " style="fill: rgb(67,184,206); fill-opacity: 1; stroke: rgb(0,0,0); stroke-width: 3" />
	<polygon points="266.862775970561,-295.819619241865 259.99658229675,-317.052150564293 225.352125376426,-320.937979169752 232.218319050229,-299.705447847328 " style="fill: rgb(67,184,206); fill-opacity: 1; stroke: rgb(0,0,0); stroke-width: 3" />
	<polygon points="381.121921231102,-436.423275614997 387.988114904926,-415.190744292587 405.906867477521,-445.094863833161 399.0406738037,-466.327395155575 " style="fill: rgb(67,184,206); fill-opacity: 1; stroke: rgb(0,0,0); stroke-width: 3" />
	<polygon points="399.0406738037,-466.327395155575 405.906867477521,-445.094863833161 413.93992753701,-479.018425045621 407.073733863189,-500.250956368034 " style="fill: rgb(67,184,206); fill-opacity: 1; stroke: rgb(0,0,0); stroke-width: 3" />
	<polygon points="283.749178202047,-271.928028849962 261.434048762068,-271.928028849968 238.494162590482,-245.677320636861 260.809292030455,-245.67732063685 " style="fill: rgb(67,184,206); fill-opacity: 1; stroke: rgb(0,0,0); stroke-width: 3" />
	<polygon points="397.237134744791,-306.478517204033 375.628004136831,-279.121917751209 402.289936285103,-256.661298138739 423.899066893064,-284.017897591554 " style="fill: rgb(67,184,206); fill-opacity: 1; stroke: rgb(0,0,0); stroke-width: 3" />
	<polygon points="381.121921231102,-436.423275614997 399.0406738037,-466.327395155575 405.380629876153,-500.607754200579 387.461877303554,-470.703634659999 " style="fill: rgb(67,184,206); fill-opacity: 1; stroke: rgb(0,0,0); stroke-width: 3" />
	<polygon points="409.896016765761,-396.548851832532 401.862956706313,-362.625290620079 432.794406664899,-378.70582116838 440.827466724343,-412.629382380828 " style="fill: rgb(67,184,206); fill-opacity: 1; stroke: rgb(0,0,0); stroke-width: 3" />
	<polygon points="200.655022685594,-193.672397100094 182.736270113027,-163.768277559505 189.602463786862,-142.535746237092 207.521216359437,-172.439865777693 " style="fill: rgb(67,184,206); fill-opacity: 1; stroke: rgb(0,0,0); stroke-width: 3" />
	<polygon points="308.715547821599,-423.762493161407 323.072691900882,-455.530566334668 290.867893406633,-468.87931208848 276.510749327347,-437.111238915226 " style="fill: rgb(67,184,206); fill-opacity: 1; stroke: rgb(0,0,0); stroke-width: 3" />
	<polygon points="285.805873629855,-340.487562660902 292.136514253885,-374.769643235814 258.070994530471,-382.177640618962 251.740353906435,-347.895560044057 " style="fill: rgb(67,184,206); fill-opacity: 1; stroke: rgb(0,0,0); stroke-width: 3" />
	<polygon points="337.744657682277,-423.906659565189 360.059787122256,-423.906659565175 345.702643042978,-455.67473273844 323.387513602998,-455.674732738462 " style="fill: rgb(67,184,206); fill-opacity: 1; stroke: rgb(0,0,0); stroke-width: 3" />
	<polygon points="292.136514253885,-374.769643235814 322.227203821584,-392.373292306245 303.683902767175,-421.89420091795 273.593213199479,-404.290551847528 " style="fill: rgb(67,184,206); fill-opacity: 1; stroke: rgb(0,0,0); stroke-width: 3" />
	<polygon points="270.016790854375,-292.526609871501 236.962334745514,-281.447756564314 228.379592653201,-260.84917554278 261.434048762068,-271.928028849968 " style="fill: rgb(67,184,206); fill-opacity: 1; stroke: rgb(0,0,0); stroke-width: 3" />
	<polygon points="289.823346833759,-269.438349456291 283.699143656782,-235.118789512985 302.103365984008,-222.499375800231 308.227569160989,-256.818935743545 " style="fill: rgb(67,184,206); fill-opacity: 1; stroke: rgb(0,0,0); stroke-width: 3" />
	<polygon points="378.236904033991,-244.357975216133 343.408005490932,-242.846060690723 369.412218696104,-219.627125425827 404.241117239154,-221.139039951243 " style="fill: rgb(67,184,206); fill-opacity: 1; stroke: rgb(0,0,0); stroke-width: 3" />
	<polygon points="292.136514253885,-374.769643235814 272.903036025469,-403.84560193871 238.837516302063,-411.253599321852 258.070994530471,-382.177640618962 " style="fill: rgb(67,184,206); fill-opacity: 1; stroke: rgb(0,0,0); stroke-width: 3" />
	<polygon points="259.99658229675,-317.052150564293 285.805873629855,-340.487562660902 251.201720795909,-344.717298574673 225.39242946281,-321.281886478066 " style="fill: rgb(67,184,206); fill-opacity: 1; stroke: rgb(0,0,0); stroke-width: 3" />
	<polygon points="338.033649006418,-274.900298067855 308.227569160989,-256.818935743545 302.44454007903,-222.44024126728 332.250619924454,-240.521603591587 " style="fill: rgb(67,184,206); fill-opacity: 1; stroke: rgb(0,0,0); stroke-width: 3" />
	<polygon points="323.387513602995,-392.138586391924 337.744657682277,-423.906659565189 323.072691900882,-455.530566334668 308.715547821599,-423.762493161407 " style="fill: rgb(67,184,206); fill-opacity: 1; stroke: rgb(0,0,0); stroke-width: 3" />
	<polygon points="231.003212185028,-227.595958312541 208.688082745055,-227.595958312552 215.554276418889,-206.363426990138 237.869405858858,-206.363426990121 " style="fill: rgb(67,184,206); fill-opacity: 1; stroke: rgb(0,0,0); stroke-width: 3" />
	<polygon points="364.163505269571,-421.918892484386 381.121921231102,-436.423275614997 381.49269221217,-471.283002925098 364.534276250641,-456.778619794495 " style="fill: rgb(67,184,206); fill-opacity: 1; stroke: rgb(0,0,0); stroke-width: 3" />
	<polygon points="392.225984740991,-410.177313600737 409.896016765761,-396.548851832532 440.666224404614,-412.935809485411 422.996192379853,-426.564271253618 " style="fill: rgb(67,184,206); fill-opacity: 1; stroke: rgb(0,0,0); stroke-width: 3" />
	<polygon points="261.434048762068,-271.928028849968 230.767525732044,-255.347847171114 207.827639560469,-229.097138958016 238.494162590482,-245.677320636861 " style="fill: rgb(67,184,206); fill-opacity: 1; stroke: rgb(0,0,0); stroke-width: 3" />
	<polygon points="273.593213199479,-404.290551847528 303.683902767175,-421.89420091795 269.845789395858,-430.279911545281 239.755099828171,-412.676262474857 " style="fill: rgb(67,184,206); fill-opacity: 1; stroke: rgb(0,0,0); stroke-width: 3" />
	<polygon points="323.387513602998,-455.674732738462 345.702643042978,-455.67473273844 338.211692637541,-489.722107399024 315.896563197562,-489.722107399053 " style="fill: rgb(67,184,206); fill-opacity: 1; stroke: rgb(0,0,0); stroke-width: 3" />
	<polygon points="283.699143656782,-235.118789512985 270.623136602652,-202.802290649784 289.027358929873,-190.182876937025 302.103365984008,-222.499375800231 " style="fill: rgb(67,184,206); fill-opacity: 1; stroke: rgb(0,0,0); stroke-width: 3" />
	<polygon points="375.628004136831,-279.121917751209 378.236904033991,-244.357975216133 404.362412751539,-221.275604161484 401.753512854378,-256.039546696563 " style="fill: rgb(67,184,206); fill-opacity: 1; stroke: rgb(0,0,0); stroke-width: 3" />
	<polygon points="238.494162590482,-245.677320636861 208.688082745055,-227.595958312552 231.003212185028,-227.595958312541 260.809292030455,-245.67732063685 " style="fill: rgb(67,184,206); fill-opacity: 1; stroke: rgb(0,0,0); stroke-width: 3" />
	<polygon points="225.352125376426,-320.937979169752 200.147006393516,-345.021999521691 165.446501191706,-341.673418031859 190.65162017461,-317.589397679921 " style="fill: rgb(67,184,206); fill-opacity: 1; stroke: rgb(0,0,0); stroke-width: 3" />
	<polygon points="232.218319050229,-299.705447847328 225.352125376426,-320.937979169752 190.65162017461,-317.589397679921 197.517813848406,-296.3568663575 " style="fill: rgb(67,184,206); fill-opacity: 1; stroke: rgb(0,0,0); stroke-width: 3" />
	<polygon points="251.740353906435,-347.895560044057 258.070994530471,-382.177640618962 238.68544078457,-411.152429060293 232.354800160536,-376.870348485387 " style="fill: rgb(67,184,206); fill-opacity: 1; stroke: rgb(0,0,0); stroke-width: 3" />
	<polygon points="197.517813848406,-296.3568663575 190.65162017461,-317.589397679921 172.561840687722,-304.523224558484 179.42803436151,-283.290693236066 " style="fill: rgb(67,184,206); fill-opacity: 1; stroke: rgb(0,0,0); stroke-width: 3" />
	<polygon points="493.096293660344,-374.055554016638 486.043260792224,-339.914775076843 514.91745722245,-359.449842001834 521.970490090577,-393.59062094163 " style="fill: rgb(67,184,206); fill-opacity: 1; stroke: rgb(0,0,0); stroke-width: 3" />
	<polygon points="208.688082745055,-227.595958312552 200.655022685594,-193.672397100094 207.521216359437,-172.439865777693 215.554276418889,-206.363426990138 " style="fill: rgb(67,184,206); fill-opacity: 1; stroke: rgb(0,0,0); stroke-width: 3" />
	<polygon points="98.7770623161794,-321.665433083698 91.9108686423937,-342.897964406106 59.8752630411911,-356.647801969483 66.7414567149706,-335.41527064708 " style="fill: rgb(67,184,206); fill-opacity: 1; stroke: rgb(0,0,0); stroke-width: 3" />
	<polygon points="423.899066893064,-284.017897591554 402.289936285103,-256.661298138739 405.898647262543,-221.986880128679 427.507777870502,-249.343479581495 " style="fill: rgb(67,184,206); fill-opacity: 1; stroke: rgb(0,0,0); stroke-width: 3" />
	<polygon points="236.962334745514,-281.447756564314 208.80796958252,-260.888822216355 200.225227490209,-240.290241194822 228.379592653201,-260.84917554278 " style="fill: rgb(67,184,206); fill-opacity: 1; stroke: rgb(0,0,0); stroke-width: 3" />
	<polygon points="474.480988382081,-403.531111155598 466.44792832263,-369.607549943156 484.363815969736,-339.701713906167 492.396876029183,-373.625275118607 " style="fill: rgb(67,184,206); fill-opacity: 1; stroke: rgb(0,0,0); stroke-width: 3" />
	<polygon points="440.827466724343,-412.629382380828 432.794406664899,-378.70582116838 466.44792832263,-369.607549943156 474.480988382081,-403.531111155598 " style="fill: rgb(67,184,206); fill-opacity: 1; stroke: rgb(0,0,0); stroke-width: 3" />
	<polygon points="225.39242946281,-321.281886478066 251.201720795909,-344.717298574673 228.591408479448,-371.252404306649 202.782117146348,-347.81699221005 " style="fill: rgb(67,184,206); fill-opacity: 1; stroke: rgb(0,0,0); stroke-width: 3" />
	<polygon points="332.250619924454,-240.521603591587 302.44454007903,-222.44024126728 321.456346728817,-193.218857536077 351.26242657424,-211.300219860377 " style="fill: rgb(67,184,206); fill-opacity: 1; stroke: rgb(0,0,0); stroke-width: 3" />
	<polygon points="364.534276250641,-456.778619794495 381.49269221217,-471.283002925098 392.391347054406,-504.397310737353 375.432931092877,-489.892927606749 " style="fill: rgb(67,184,206); fill-opacity: 1; stroke: rgb(0,0,0); stroke-width: 3" />
	<polygon points="407.073733863189,-500.250956368034 413.93992753701,-479.018425045621 436.255056977004,-479.018425045597 429.388863303195,-500.250956368008 " style="fill: rgb(67,184,206); fill-opacity: 1; stroke: rgb(0,0,0); stroke-width: 3" />
	<polygon points="302.103365984008,-222.499375800231 289.027358929873,-190.182876937025 304.951505945975,-159.170627726999 318.027513000111,-191.487126590202 " style="fill: rgb(67,184,206); fill-opacity: 1; stroke: rgb(0,0,0); stroke-width: 3" />
	<polygon points="269.845789395858,-430.279911545281 279.117895845729,-463.885954175103 249.027206278046,-446.282305104674 239.755099828171,-412.676262474857 " style="fill: rgb(67,184,206); fill-opacity: 1; stroke: rgb(0,0,0); stroke-width: 3" />
	<polygon points="232.354800160536,-376.870348485387 238.68544078457,-411.152429060293 210.230127826374,-391.012090838053 203.899487202347,-356.730010263149 " style="fill: rgb(67,184,206); fill-opacity: 1; stroke: rgb(0,0,0); stroke-width: 3" />
	<polygon points="315.896563197562,-489.722107399053 338.211692637541,-489.722107399024 345.077886311387,-510.954638721427 322.762756871415,-510.954638721456 " style="fill: rgb(67,184,206); fill-opacity: 1; stroke: rgb(0,0,0); stroke-width: 3" />
	<polygon points="239.755099828171,-412.676262474857 249.027206278046,-446.282305104674 232.220444496711,-476.825239110443 222.94833804684,-443.219196480621 " style="fill: rgb(67,184,206); fill-opacity: 1; stroke: rgb(0,0,0); stroke-width: 3" />
	<polygon points="385.229989112479,-203.455300838128 351.26242657424,-211.300219860377 321.456346728817,-193.218857536077 355.423909267064,-185.373938513824 " style="fill: rgb(67,184,206); fill-opacity: 1; stroke: rgb(0,0,0); stroke-width: 3" />
	<polygon points="435.979364577071,-163.390038461282 402.521778913185,-173.184323570404 393.786875253271,-139.434664056457 427.244460917157,-129.640378947335 " style="fill: rgb(67,184,206); fill-opacity: 1; stroke: rgb(0,0,0); stroke-width: 3" />
	<polygon points="237.869405858858,-206.363426990121 215.554276418889,-206.363426990138 208.063326013449,-172.31605232955 230.378455453419,-172.316052329533 " style="fill: rgb(67,184,206); fill-opacity: 1; stroke: rgb(0,0,0); stroke-width: 3" />
	<polygon points="279.117895845729,-463.885954175103 262.471390270674,-494.516525691068 232.380700702995,-476.912876620642 249.027206278046,-446.282305104674 " style="fill: rgb(67,184,206); fill-opacity: 1; stroke: rgb(0,0,0); stroke-width: 3" />
	<polygon points="190.65162017461,-317.589397679921 165.446501191706,-341.673418031859 146.923523121799,-329.228970059142 172.128642104708,-305.144949707209 " style="fill: rgb(67,184,206); fill-opacity: 1; stroke: rgb(0,0,0); stroke-width: 3" />
	<polygon points="503.355184812311,-423.066178080597 521.970490090577,-393.59062094163 556.447772863568,-388.427769806165 537.832467585302,-417.903326945122 " style="fill: rgb(67,184,206); fill-opacity: 1; stroke: rgb(0,0,0); stroke-width: 3" />
	<polygon points="385.229989112479,-203.455300838128 355.423909267064,-185.373938513824 346.68900560715,-151.624278999878 376.495085452563,-169.705641324188 " style="fill: rgb(67,184,206); fill-opacity: 1; stroke: rgb(0,0,0); stroke-width: 3" />
	<polygon points="350.740085867619,-179.43616664323 318.027513000111,-191.487126590202 304.951505945975,-159.170627726999 337.664078813479,-147.119667780033 " style="fill: rgb(67,184,206); fill-opacity: 1; stroke: rgb(0,0,0); stroke-width: 3" />
	<polygon points="407.073733863189,-500.250956368034 429.388863303195,-500.250956368008 459.194943148622,-518.332318692318 436.879813708616,-518.332318692343 " style="fill: rgb(67,184,206); fill-opacity: 1; stroke: rgb(0,0,0); stroke-width: 3" />
	<polygon points="237.869405858847,-74.732531322398 230.37845545341,-108.779905982988 208.063326013438,-108.77990598301 215.554276418875,-74.7325313224254 " style="fill: rgb(67,184,206); fill-opacity: 1; stroke: rgb(0,0,0); stroke-width: 3" />
	<polygon points="402.521778913185,-173.184323570404 385.229989112479,-203.455300838128 376.495085452563,-169.705641324188 393.786875253271,-139.434664056457 " style="fill: rgb(67,184,206); fill-opacity: 1; stroke: rgb(0,0,0); stroke-width: 3" />
	<polygon points="203.899487202347,-356.730010263149 210.230127826374,-391.012090838053 175.76555009898,-396.259084389396 169.434909474952,-361.977003814498 " style="fill: rgb(67,184,206); fill-opacity: 1; stroke: rgb(0,0,0); stroke-width: 3" />
	<polygon points="146.923523121799,-329.228970059142 165.446501191706,-341.673418031859 135.81309931056,-360.036412128842 117.29012124064,-347.591964156136 " style="fill: rgb(67,184,206); fill-opacity: 1; stroke: rgb(0,0,0); stroke-width: 3" />
	<polygon points="169.434909474952,-361.977003814498 175.76555009898,-396.259084389396 153.946503735608,-423.448554318923 147.615863111585,-389.166473744034 " style="fill: rgb(67,184,206); fill-opacity: 1; stroke: rgb(0,0,0); stroke-width: 3" />
	<polygon points="429.388863303195,-500.250956368008 436.255056977004,-479.018425045597 466.34574654472,-496.62207411601 459.479552870919,-517.854605438425 " style="fill: rgb(67,184,206); fill-opacity: 1; stroke: rgb(0,0,0); stroke-width: 3" />
	<polygon points="179.42803436151,-283.290693236066 172.561840687722,-304.523224558484 146.186577646528,-327.319793571445 153.052771320317,-306.087262249027 " style="fill: rgb(67,184,206); fill-opacity: 1; stroke: rgb(0,0,0); stroke-width: 3" />
	<polygon points="315.896563197562,-489.722107399053 322.037902278564,-511.175521025228 291.366874945259,-527.74736888765 285.225535864263,-506.293955261474 " style="fill: rgb(67,184,206); fill-opacity: 1; stroke: rgb(0,0,0); stroke-width: 3" />
	<polygon points="179.42803436151,-283.290693236066 153.052771320317,-306.087262249027 120.374389032877,-318.230630411565 146.749652074073,-295.434061398603 " style="fill: rgb(67,184,206); fill-opacity: 1; stroke: rgb(0,0,0); stroke-width: 3" />
	<polygon points="426.789764720991,-128.590975556125 393.628037269833,-139.344481575555 363.821957424424,-121.263119251246 396.983684875587,-110.509613231815 " style="fill: rgb(67,184,206); fill-opacity: 1; stroke: rgb(0,0,0); stroke-width: 3" />
	<polygon points="337.664078813479,-147.119667780033 304.951505945975,-159.170627726999 317.198954271803,-126.53111074587 349.911527139303,-114.48015079891 " style="fill: rgb(67,184,206); fill-opacity: 1; stroke: rgb(0,0,0); stroke-width: 3" />
	<polygon points="210.230127826374,-391.012090838053 238.68544078457,-411.152429060293 204.248827007589,-416.579923033578 175.793514049402,-396.439584811336 " style="fill: rgb(67,184,206); fill-opacity: 1; stroke: rgb(0,0,0); stroke-width: 3" />
	<polygon points="125.95021700583,-383.821870789297 132.280857629852,-418.10395136419 118.423533438623,-435.595079634911 112.092892814602,-401.312999060021 " style="fill: rgb(67,184,206); fill-opacity: 1; stroke: rgb(0,0,0); stroke-width: 3" />
	<polygon points="238.68544078457,-411.152429060293 217.804231012613,-439.068609632042 183.367617235641,-444.49610360532 204.248827007589,-416.579923033578 " style="fill: rgb(67,184,206); fill-opacity: 1; stroke: rgb(0,0,0); stroke-width: 3" />
	<polygon points="474.480988382081,-403.531111155598 493.096293660344,-374.055554016638 521.970490090577,-393.59062094163 503.355184812311,-423.066178080597 " style="fill: rgb(67,184,206); fill-opacity: 1; stroke: rgb(0,0,0); stroke-width: 3" />
	<polygon points="322.762756871415,-510.954638721456 345.077886311387,-510.954638721427 315.271806465959,-529.036001045725 292.95667702599,-529.036001045739 " style="fill: rgb(67,184,206); fill-opacity: 1; stroke: rgb(0,0,0); stroke-width: 3" />
	<polygon points="315.271806465959,-529.036001045725 345.077886311387,-510.954638721427 323.468755703411,-538.311238174252 293.662675857985,-556.392600498533 " style="fill: rgb(67,184,206); fill-opacity: 1; stroke: rgb(0,0,0); stroke-width: 3" />
	<polygon points="208.063326013449,-172.31605232955 193.706181934163,-140.547979156279 216.021311374135,-140.547979156266 230.378455453419,-172.316052329533 " style="fill: rgb(67,184,206); fill-opacity: 1; stroke: rgb(0,0,0); stroke-width: 3" />
	<polygon points="459.479552870919,-517.854605438425 466.34574654472,-496.62207411601 492.15503787785,-520.057486212606 485.288844204063,-541.29001753503 " style="fill: rgb(67,184,206); fill-opacity: 1; stroke: rgb(0,0,0); stroke-width: 3" />
	<polygon points="376.495085452563,-169.705641324188 346.68900560715,-151.624278999878 363.821957424424,-121.263119251246 393.628037269833,-139.344481575555 " style="fill: rgb(67,184,206); fill-opacity: 1; stroke: rgb(0,0,0); stroke-width: 3" />
	<polygon points="436.879813708616,-518.332318692343 459.194943148622,-518.332318692318 482.134829320208,-544.583026905427 459.81969988021,-544.583026905456 " style="fill: rgb(67,184,206); fill-opacity: 1; stroke: rgb(0,0,0); stroke-width: 3" />
	<polygon points="153.946503735608,-423.448554318923 153.064885782865,-458.299103942145 131.399239677114,-452.954500987418 132.280857629852,-418.10395136419 " style="fill: rgb(67,184,206); fill-opacity: 1; stroke: rgb(0,0,0); stroke-width: 3" />
	<polygon points="232.380700702995,-476.912876620642 262.471390270674,-494.516525691068 229.485402032228,-505.797600072004 199.394712464553,-488.193951001578 " style="fill: rgb(67,184,206); fill-opacity: 1; stroke: rgb(0,0,0); stroke-width: 3" />
	<polygon points="121.017165719107,-319.83709981241 114.150972045325,-341.069631134822 91.9108686423937,-342.897964406106 98.7770623161794,-321.665433083698 " style="fill: rgb(67,184,206); fill-opacity: 1; stroke: rgb(0,0,0); stroke-width: 3" />
	<polygon points="222.94833804684,-443.219196480621 232.220444496711,-476.825239110443 198.923335912507,-487.151933605133 189.651229462635,-453.545890975313 " style="fill: rgb(67,184,206); fill-opacity: 1; stroke: rgb(0,0,0); stroke-width: 3" />
	<polygon points="153.052771320317,-306.087262249027 146.186577646528,-327.319793571445 114.150972045325,-341.069631134822 121.017165719107,-319.83709981241 " style="fill: rgb(67,184,206); fill-opacity: 1; stroke: rgb(0,0,0); stroke-width: 3" />
	<polygon points="229.485402032228,-505.797600072004 227.149526659295,-527.990136839253 197.058837091623,-510.386487768827 199.394712464553,-488.193951001578 " style="fill: rgb(67,184,206); fill-opacity: 1; stroke: rgb(0,0,0); stroke-width: 3" />
	<polygon points="175.793514049402,-396.439584811336 204.248827007589,-416.579923033578 183.221640833014,-444.386316198374 154.766327874834,-424.24597797614 " style="fill: rgb(67,184,206); fill-opacity: 1; stroke: rgb(0,0,0); stroke-width: 3" />
	<polygon points="485.288844204063,-541.29001753503 492.15503787785,-520.057486212606 526.799494798176,-516.171657607123 519.933301124396,-537.404188929542 " style="fill: rgb(67,184,206); fill-opacity: 1; stroke: rgb(0,0,0); stroke-width: 3" />
	<polygon points="285.225535864263,-506.293955261474 291.366874945259,-527.74736888765 264.776774920846,-550.292981319944 258.63543583985,-528.839567693763 " style="fill: rgb(67,184,206); fill-opacity: 1; stroke: rgb(0,0,0); stroke-width: 3" />
	<polygon points="270.016790854399,-555.286709258855 292.331920294378,-555.28670925883 283.749178202075,-575.885290280368 261.434048762104,-575.885290280396 " style="fill: rgb(67,184,206); fill-opacity: 1; stroke: rgb(0,0,0); stroke-width: 3" />
	<polygon points="292.95667702599,-529.036001045739 315.271806465959,-529.036001045725 292.331920294378,-555.28670925883 270.016790854399,-555.286709258855 " style="fill: rgb(67,184,206); fill-opacity: 1; stroke: rgb(0,0,0); stroke-width: 3" />
	<polygon points="193.706181934163,-140.547979156279 208.063326013438,-108.77990598301 230.37845545341,-108.779905982988 216.021311374135,-140.547979156266 " style="fill: rgb(67,184,206); fill-opacity: 1; stroke: rgb(0,0,0); stroke-width: 3" />
	<polygon points="183.221640833014,-444.386316198374 186.563365970395,-479.087482351137 158.108053012229,-458.947144128907 154.766327874834,-424.24597797614 " style="fill: rgb(67,184,206); fill-opacity: 1; stroke: rgb(0,0,0); stroke-width: 3" />
	<polygon points="519.933301124396,-537.404188929542 526.799494798176,-516.171657607123 561.5,-519.520239096929 554.633806326226,-540.752770419344 " style="fill: rgb(67,184,206); fill-opacity: 1; stroke: rgb(0,0,0); stroke-width: 3" />
	<polygon points="147.615863111585,-389.166473744034 153.946503735608,-423.448554318923 132.280857629852,-418.10395136419 125.95021700583,-383.821870789297 " style="fill: rgb(67,184,206); fill-opacity: 1; stroke: rgb(0,0,0); stroke-width: 3" />
	<polygon points="205.990289692606,-535.078979686377 171.645226532847,-529.099456644617 141.554536965194,-511.495807574166 175.899600124937,-517.475330615944 " style="fill: rgb(67,184,206); fill-opacity: 1; stroke: rgb(0,0,0); stroke-width: 3" />
	<polygon points="227.149526659295,-527.990136839253 205.990289692606,-535.078979686377 175.899600124937,-517.475330615944 197.058837091623,-510.386487768827 " style="fill: rgb(67,184,206); fill-opacity: 1; stroke: rgb(0,0,0); stroke-width: 3" />
	<polygon points="261.434048762104,-575.885290280396 283.749178202075,-575.885290280368 260.809292030492,-602.135998493473 238.494162590518,-602.135998493507 " style="fill: rgb(67,184,206); fill-opacity: 1; stroke: rgb(0,0,0); stroke-width: 3" />
	<polygon points="186.563365970395,-479.087482351137 177.886419854314,-499.646558400966 149.431106896167,-479.506220178731 158.108053012229,-458.947144128907 " style="fill: rgb(67,184,206); fill-opacity: 1; stroke: rgb(0,0,0); stroke-width: 3" />
	<polygon points="112.092892814602,-401.312999060021 118.423533438623,-435.595079634911 112.376072799371,-469.928245510951 106.045432175352,-435.64616493606 " style="fill: rgb(67,184,206); fill-opacity: 1; stroke: rgb(0,0,0); stroke-width: 3" />
	<polygon points="177.886419854314,-499.646558400966 155.626961300938,-498.071278478482 127.171648342798,-477.93094025624 149.431106896167,-479.506220178731 " style="fill: rgb(67,184,206); fill-opacity: 1; stroke: rgb(0,0,0); stroke-width: 3" />
	<polygon points="231.003212184997,-53.5 237.869405858847,-74.732531322398 215.554276418875,-74.7325313224254 208.68808274503,-53.5000000000225 " style="fill: rgb(67,184,206); fill-opacity: 1; stroke: rgb(0,0,0); stroke-width: 3" />
	<polygon points="66.7414567149706,-335.41527064708 59.8752630411911,-356.647801969483 33.5,-379.44437098245 40.3661936737806,-358.211839660047 " style="fill: rgb(67,184,206); fill-opacity: 1; stroke: rgb(0,0,0); stroke-width: 3" />
	<polygon points="132.280857629852,-418.10395136419 127.944378927182,-452.69488965323 114.087054735953,-470.186017923949 118.423533438623,-435.595079634911 " style="fill: rgb(67,184,206); fill-opacity: 1; stroke: rgb(0,0,0); stroke-width: 3" />
	<polygon points="153.064885782865,-458.299103942145 141.313218709711,-477.269167804065 119.647572603964,-471.924564849347 131.399239677114,-452.954500987418 " style="fill: rgb(67,184,206); fill-opacity: 1; stroke: rgb(0,0,0); stroke-width: 3" />
	<polygon points="238.494162590518,-602.135998493507 260.809292030492,-602.135998493473 231.003212185065,-620.217360817782 208.688082745092,-620.217360817815 " style="fill: rgb(67,184,206); fill-opacity: 1; stroke: rgb(0,0,0); stroke-width: 3" />
	<circle cx="322.762756871387" cy="-336.858680408917" r="2" style="fill: rgb(0,0,0)" />
	<circle cx="345.077886311378" cy="-336.858680408917" r="2" style="fill: rgb(0,0,0)" />
	<circle cx="338.211692637538" cy="-358.091211731325" r="2" style="fill: rgb(0,0,0)" />
	<circle cx="315.896563197557" cy="-358.091211731337" r="2" style="fill: rgb(0,0,0)" />
	<circle cx="292.956677025961" cy="-318.777318084609" r="2" style="fill: rgb(0,0,0)" />
	<circle cx="315.271806465951" cy="-318.777318084609" r="2" style="fill: rgb(0,0,0)" />
	<circle cx="353.110946370835" cy="-370.782241621385" r="2" style="fill: rgb(0,0,0)" />
	<circle cx="346.244752696993" cy="-392.014772943788" r="2" style="fill: rgb(0,0,0)" />
	<circle cx="285.805873629855" cy="-340.487562660902" r="2" style="fill: rgb(0,0,0)" />
	<circle cx="292.672067303678" cy="-319.255031338481" r="2" style="fill: rgb(0,0,0)" />
	<circle cx="345.702643042975" cy="-392.13858639191" r="2" style="fill: rgb(0,0,0)" />
	<circle cx="323.387513602995" cy="-392.138586391924" r="2" style="fill: rgb(0,0,0)" />
	<circle cx="293.662675857984" cy="-291.420718631776" r="2" style="fill: rgb(0,0,0)" />
	<circle cx="323.468755703411" cy="-309.502080956085" r="2" style="fill: rgb(0,0,0)" />
	<circle cx="270.016790854375" cy="-292.526609871501" r="2" style="fill: rgb(0,0,0)" />
	<circle cx="292.331920294357" cy="-292.526609871496" r="2" style="fill: rgb(0,0,0)" />
	<circle cx="364.458342070874" cy="-365.836879003883" r="2" style="fill: rgb(0,0,0)" />
	<circle cx="372.491402130327" cy="-399.760440216345" r="2" style="fill: rgb(0,0,0)" />
	<circle cx="371.029698943404" cy="-400.686361161971" r="2" style="fill: rgb(0,0,0)" />
	<circle cx="364.163505269571" cy="-421.918892484386" r="2" style="fill: rgb(0,0,0)" />
	<circle cx="322.227203821584" cy="-392.373292306245" r="2" style="fill: rgb(0,0,0)" />
	<circle cx="292.136514253885" cy="-374.769643235814" r="2" style="fill: rgb(0,0,0)" />
	<circle cx="259.99658229675" cy="-317.052150564293" r="2" style="fill: rgb(0,0,0)" />
	<circle cx="266.862775970561" cy="-295.819619241865" r="2" style="fill: rgb(0,0,0)" />
	<circle cx="360.059787122256" cy="-423.906659565175" r="2" style="fill: rgb(0,0,0)" />
	<circle cx="337.744657682277" cy="-423.906659565189" r="2" style="fill: rgb(0,0,0)" />
	<circle cx="320.724870534453" cy="-287.356289118738" r="2" style="fill: rgb(0,0,0)" />
	<circle cx="342.334001142419" cy="-314.712888571571" r="2" style="fill: rgb(0,0,0)" />
	<circle cx="289.823346833759" cy="-269.438349456291" r="2" style="fill: rgb(0,0,0)" />
	<circle cx="319.629426679184" cy="-287.519711780598" r="2" style="fill: rgb(0,0,0)" />
	<circle cx="261.434048762068" cy="-271.928028849968" r="2" style="fill: rgb(0,0,0)" />
	<circle cx="283.749178202047" cy="-271.928028849962" r="2" style="fill: rgb(0,0,0)" />
	<circle cx="365.305022930545" cy="-346.283538291834" r="2" style="fill: rgb(0,0,0)" />
	<circle cx="384.68547869004" cy="-375.261736886799" r="2" style="fill: rgb(0,0,0)" />
	<circle cx="384.19292468154" cy="-376.253752388275" r="2" style="fill: rgb(0,0,0)" />
	<circle cx="392.225984740991" cy="-410.177313600737" r="2" style="fill: rgb(0,0,0)" />
	<circle cx="387.988114904926" cy="-415.190744292587" r="2" style="fill: rgb(0,0,0)" />
	<circle cx="381.121921231102" cy="-436.423275614997" r="2" style="fill: rgb(0,0,0)" />
	<circle cx="258.070994530471" cy="-382.177640618962" r="2" style="fill: rgb(0,0,0)" />
	<circle cx="251.740353906435" cy="-347.895560044057" r="2" style="fill: rgb(0,0,0)" />
	<circle cx="303.683902767175" cy="-421.89420091795" r="2" style="fill: rgb(0,0,0)" />
	<circle cx="273.593213199479" cy="-404.290551847528" r="2" style="fill: rgb(0,0,0)" />
	<circle cx="225.352125376426" cy="-320.937979169752" r="2" style="fill: rgb(0,0,0)" />
	<circle cx="232.218319050229" cy="-299.705447847328" r="2" style="fill: rgb(0,0,0)" />
	<circle cx="251.201720795909" cy="-344.717298574673" r="2" style="fill: rgb(0,0,0)" />
	<circle cx="225.39242946281" cy="-321.281886478066" r="2" style="fill: rgb(0,0,0)" />
	<circle cx="345.702643042978" cy="-455.67473273844" r="2" style="fill: rgb(0,0,0)" />
	<circle cx="323.387513602998" cy="-455.674732738462" r="2" style="fill: rgb(0,0,0)" />
	<circle cx="323.072691900882" cy="-455.530566334668" r="2" style="fill: rgb(0,0,0)" />
	<circle cx="308.715547821599" cy="-423.762493161407" r="2" style="fill: rgb(0,0,0)" />
	<circle cx="362.561137761586" cy="-305.28803068865" r="2" style="fill: rgb(0,0,0)" />
	<circle cx="365.305022930549" cy="-327.433822525987" r="2" style="fill: rgb(0,0,0)" />
	<circle cx="340.799105593766" cy="-277.610003225793" r="2" style="fill: rgb(0,0,0)" />
	<circle cx="362.40823620173" cy="-304.966602678619" r="2" style="fill: rgb(0,0,0)" />
	<circle cx="308.227569160989" cy="-256.818935743545" r="2" style="fill: rgb(0,0,0)" />
	<circle cx="338.033649006418" cy="-274.900298067855" r="2" style="fill: rgb(0,0,0)" />
	<circle cx="238.494162590482" cy="-245.677320636861" r="2" style="fill: rgb(0,0,0)" />
	<circle cx="260.809292030455" cy="-245.67732063685" r="2" style="fill: rgb(0,0,0)" />
	<circle cx="236.962334745514" cy="-281.447756564314" r="2" style="fill: rgb(0,0,0)" />
	<circle cx="228.379592653201" cy="-260.84917554278" r="2" style="fill: rgb(0,0,0)" />
	<circle cx="380.755164378191" cy="-330.182043604341" r="2" style="fill: rgb(0,0,0)" />
	<circle cx="400.135620137683" cy="-359.160242199301" r="2" style="fill: rgb(0,0,0)" />
	<circle cx="401.862956706313" cy="-362.625290620079" r="2" style="fill: rgb(0,0,0)" />
	<circle cx="409.896016765761" cy="-396.548851832532" r="2" style="fill: rgb(0,0,0)" />
	<circle cx="405.906867477521" cy="-445.094863833161" r="2" style="fill: rgb(0,0,0)" />
	<circle cx="399.0406738037" cy="-466.327395155575" r="2" style="fill: rgb(0,0,0)" />
	<circle cx="381.49269221217" cy="-471.283002925098" r="2" style="fill: rgb(0,0,0)" />
	<circle cx="364.534276250641" cy="-456.778619794495" r="2" style="fill: rgb(0,0,0)" />
	<circle cx="272.903036025469" cy="-403.84560193871" r="2" style="fill: rgb(0,0,0)" />
	<circle cx="238.837516302063" cy="-411.253599321852" r="2" style="fill: rgb(0,0,0)" />
	<circle cx="238.68544078457" cy="-411.152429060293" r="2" style="fill: rgb(0,0,0)" />
	<circle cx="232.354800160536" cy="-376.870348485387" r="2" style="fill: rgb(0,0,0)" />
	<circle cx="269.845789395858" cy="-430.279911545281" r="2" style="fill: rgb(0,0,0)" />
	<circle cx="239.755099828171" cy="-412.676262474857" r="2" style="fill: rgb(0,0,0)" />
	<circle cx="190.65162017461" cy="-317.589397679921" r="2" style="fill: rgb(0,0,0)" />
	<circle cx="197.517813848406" cy="-296.3568663575" r="2" style="fill: rgb(0,0,0)" />
	<circle cx="228.591408479448" cy="-371.252404306649" r="2" style="fill: rgb(0,0,0)" />
	<circle cx="202.782117146348" cy="-347.81699221005" r="2" style="fill: rgb(0,0,0)" />
	<circle cx="338.211692637541" cy="-489.722107399024" r="2" style="fill: rgb(0,0,0)" />
	<circle cx="315.896563197562" cy="-489.722107399053" r="2" style="fill: rgb(0,0,0)" />
	<circle cx="290.867893406633" cy="-468.87931208848" r="2" style="fill: rgb(0,0,0)" />
	<circle cx="276.510749327347" cy="-437.111238915226" r="2" style="fill: rgb(0,0,0)" />
	<circle cx="375.628004136831" cy="-279.121917751209" r="2" style="fill: rgb(0,0,0)" />
	<circle cx="397.237134744791" cy="-306.478517204033" r="2" style="fill: rgb(0,0,0)" />
	<circle cx="283.699143656782" cy="-235.118789512985" r="2" style="fill: rgb(0,0,0)" />
	<circle cx="302.103365984008" cy="-222.499375800231" r="2" style="fill: rgb(0,0,0)" />
	<circle cx="302.44454007903" cy="-222.44024126728" r="2" style="fill: rgb(0,0,0)" />
	<circle cx="332.250619924454" cy="-240.521603591587" r="2" style="fill: rgb(0,0,0)" />
	<circle cx="230.767525732044" cy="-255.347847171114" r="2" style="fill: rgb(0,0,0)" />
	<circle cx="207.827639560469" cy="-229.097138958016" r="2" style="fill: rgb(0,0,0)" />
	<circle cx="208.688082745055" cy="-227.595958312552" r="2" style="fill: rgb(0,0,0)" />
	<circle cx="231.003212185028" cy="-227.595958312541" r="2" style="fill: rgb(0,0,0)" />
	<circle cx="208.80796958252" cy="-260.888822216355" r="2" style="fill: rgb(0,0,0)" />
	<circle cx="200.225227490209" cy="-240.290241194822" r="2" style="fill: rgb(0,0,0)" />
	<circle cx="432.794406664899" cy="-378.70582116838" r="2" style="fill: rgb(0,0,0)" />
	<circle cx="440.827466724343" cy="-412.629382380828" r="2" style="fill: rgb(0,0,0)" />
	<circle cx="440.666224404614" cy="-412.935809485411" r="2" style="fill: rgb(0,0,0)" />
	<circle cx="422.996192379853" cy="-426.564271253618" r="2" style="fill: rgb(0,0,0)" />
	<circle cx="413.93992753701" cy="-479.018425045621" r="2" style="fill: rgb(0,0,0)" />
	<circle cx="407.073733863189" cy="-500.250956368034" r="2" style="fill: rgb(0,0,0)" />
	<circle cx="405.380629876153" cy="-500.607754200579" r="2" style="fill: rgb(0,0,0)" />
	<circle cx="387.461877303554" cy="-470.703634659999" r="2" style="fill: rgb(0,0,0)" />
	<circle cx="392.391347054406" cy="-504.397310737353" r="2" style="fill: rgb(0,0,0)" />
	<circle cx="375.432931092877" cy="-489.892927606749" r="2" style="fill: rgb(0,0,0)" />
	<circle cx="210.230127826374" cy="-391.012090838053" r="2" style="fill: rgb(0,0,0)" />
	<circle cx="203.899487202347" cy="-356.730010263149" r="2" style="fill: rgb(0,0,0)" />
	<circle cx="279.117895845729" cy="-463.885954175103" r="2" style="fill: rgb(0,0,0)" />
	<circle cx="249.027206278046" cy="-446.282305104674" r="2" style="fill: rgb(0,0,0)" />
	<circle cx="200.147006393516" cy="-345.021999521691" r="2" style="fill: rgb(0,0,0)" />
	<circle cx="165.446501191706" cy="-341.673418031859" r="2" style="fill: rgb(0,0,0)" />
	<circle cx="172.561840687722" cy="-304.523224558484" r="2" style="fill: rgb(0,0,0)" />
	<circle cx="179.42803436151" cy="-283.290693236066" r="2" style="fill: rgb(0,0,0)" />
	<circle cx="285.225535864263" cy="-506.293955261474" r="2" style="fill: rgb(0,0,0)" />
	<circle cx="292.716486269696" cy="-472.246580600884" r="2" style="fill: rgb(0,0,0)" />
	<circle cx="345.077886311387" cy="-510.954638721427" r="2" style="fill: rgb(0,0,0)" />
	<circle cx="322.762756871415" cy="-510.954638721456" r="2" style="fill: rgb(0,0,0)" />
	<circle cx="343.408005490932" cy="-242.846060690723" r="2" style="fill: rgb(0,0,0)" />
	<circle cx="378.236904033991" cy="-244.357975216133" r="2" style="fill: rgb(0,0,0)" />
	<circle cx="402.289936285103" cy="-256.661298138739" r="2" style="fill: rgb(0,0,0)" />
	<circle cx="423.899066893064" cy="-284.017897591554" r="2" style="fill: rgb(0,0,0)" />
	<circle cx="270.623136602652" cy="-202.802290649784" r="2" style="fill: rgb(0,0,0)" />
	<circle cx="289.027358929873" cy="-190.182876937025" r="2" style="fill: rgb(0,0,0)" />
	<circle cx="321.456346728817" cy="-193.218857536077" r="2" style="fill: rgb(0,0,0)" />
	<circle cx="351.26242657424" cy="-211.300219860377" r="2" style="fill: rgb(0,0,0)" />
	<circle cx="215.554276418889" cy="-206.363426990138" r="2" style="fill: rgb(0,0,0)" />
	<circle cx="237.869405858858" cy="-206.363426990121" r="2" style="fill: rgb(0,0,0)" />
	<circle cx="466.44792832263" cy="-369.607549943156" r="2" style="fill: rgb(0,0,0)" />
	<circle cx="474.480988382081" cy="-403.531111155598" r="2" style="fill: rgb(0,0,0)" />
	<circle cx="467.391531064091" cy="-435.320984115338" r="2" style="fill: rgb(0,0,0)" />
	<circle cx="449.721499039336" cy="-448.949445883546" r="2" style="fill: rgb(0,0,0)" />
	<circle cx="436.255056977004" cy="-479.018425045597" r="2" style="fill: rgb(0,0,0)" />
	<circle cx="429.388863303195" cy="-500.250956368008" r="2" style="fill: rgb(0,0,0)" />
	<circle cx="175.76555009898" cy="-396.259084389396" r="2" style="fill: rgb(0,0,0)" />
	<circle cx="169.434909474952" cy="-361.977003814498" r="2" style="fill: rgb(0,0,0)" />
	<circle cx="204.248827007589" cy="-416.579923033578" r="2" style="fill: rgb(0,0,0)" />
	<circle cx="175.793514049402" cy="-396.439584811336" r="2" style="fill: rgb(0,0,0)" />
	<circle cx="232.220444496711" cy="-476.825239110443" r="2" style="fill: rgb(0,0,0)" />
	<circle cx="222.94833804684" cy="-443.219196480621" r="2" style="fill: rgb(0,0,0)" />
	<circle cx="262.471390270674" cy="-494.516525691068" r="2" style="fill: rgb(0,0,0)" />
	<circle cx="232.380700702995" cy="-476.912876620642" r="2" style="fill: rgb(0,0,0)" />
	<circle cx="146.923523121799" cy="-329.228970059142" r="2" style="fill: rgb(0,0,0)" />
	<circle cx="172.128642104708" cy="-305.144949707209" r="2" style="fill: rgb(0,0,0)" />
	<circle cx="146.186577646528" cy="-327.319793571445" r="2" style="fill: rgb(0,0,0)" />
	<circle cx="153.052771320317" cy="-306.087262249027" r="2" style="fill: rgb(0,0,0)" />
	<circle cx="322.037902278564" cy="-511.175521025228" r="2" style="fill: rgb(0,0,0)" />
	<circle cx="291.366874945259" cy="-527.74736888765" r="2" style="fill: rgb(0,0,0)" />
	<circle cx="315.271806465959" cy="-529.036001045725" r="2" style="fill: rgb(0,0,0)" />
	<circle cx="292.95667702599" cy="-529.036001045739" r="2" style="fill: rgb(0,0,0)" />
	<circle cx="369.412218696104" cy="-219.627125425827" r="2" style="fill: rgb(0,0,0)" />
	<circle cx="404.241117239154" cy="-221.139039951243" r="2" style="fill: rgb(0,0,0)" />
	<circle cx="404.362412751539" cy="-221.275604161484" r="2" style="fill: rgb(0,0,0)" />
	<circle cx="401.753512854378" cy="-256.039546696563" r="2" style="fill: rgb(0,0,0)" />
	<circle cx="405.898647262543" cy="-221.986880128679" r="2" style="fill: rgb(0,0,0)" />
	<circle cx="427.507777870502" cy="-249.343479581495" r="2" style="fill: rgb(0,0,0)" />
	<circle cx="304.951505945975" cy="-159.170627726999" r="2" style="fill: rgb(0,0,0)" />
	<circle cx="318.027513000111" cy="-191.487126590202" r="2" style="fill: rgb(0,0,0)" />
	<circle cx="355.423909267064" cy="-185.373938513824" r="2" style="fill: rgb(0,0,0)" />
	<circle cx="385.229989112479" cy="-203.455300838128" r="2" style="fill: rgb(0,0,0)" />
	<circle cx="200.655022685594" cy="-193.672397100094" r="2" style="fill: rgb(0,0,0)" />
	<circle cx="207.521216359437" cy="-172.439865777693" r="2" style="fill: rgb(0,0,0)" />
	<circle cx="208.063326013449" cy="-172.31605232955" r="2" style="fill: rgb(0,0,0)" />
	<circle cx="230.378455453419" cy="-172.316052329533" r="2" style="fill: rgb(0,0,0)" />
	<circle cx="503.355184812311" cy="-423.066178080597" r="2" style="fill: rgb(0,0,0)" />
	<circle cx="469.701663154577" cy="-432.164449305825" r="2" style="fill: rgb(0,0,0)" />
	<circle cx="484.363815969736" cy="-339.701713906167" r="2" style="fill: rgb(0,0,0)" />
	<circle cx="492.396876029183" cy="-373.625275118607" r="2" style="fill: rgb(0,0,0)" />
	<circle cx="459.194943148622" cy="-518.332318692318" r="2" style="fill: rgb(0,0,0)" />
	<circle cx="436.879813708616" cy="-518.332318692343" r="2" style="fill: rgb(0,0,0)" />
	<circle cx="466.34574654472" cy="-496.62207411601" r="2" style="fill: rgb(0,0,0)" />
	<circle cx="459.479552870919" cy="-517.854605438425" r="2" style="fill: rgb(0,0,0)" />
	<circle cx="153.946503735608" cy="-423.448554318923" r="2" style="fill: rgb(0,0,0)" />
	<circle cx="147.615863111585" cy="-389.166473744034" r="2" style="fill: rgb(0,0,0)" />
	<circle cx="217.804231012613" cy="-439.068609632042" r="2" style="fill: rgb(0,0,0)" />
	<circle cx="183.367617235641" cy="-444.49610360532" r="2" style="fill: rgb(0,0,0)" />
	<circle cx="183.221640833014" cy="-444.386316198374" r="2" style="fill: rgb(0,0,0)" />
	<circle cx="154.766327874834" cy="-424.24597797614" r="2" style="fill: rgb(0,0,0)" />
	<circle cx="198.923335912507" cy="-487.151933605133" r="2" style="fill: rgb(0,0,0)" />
	<circle cx="189.651229462635" cy="-453.545890975313" r="2" style="fill: rgb(0,0,0)" />
	<circle cx="229.485402032228" cy="-505.797600072004" r="2" style="fill: rgb(0,0,0)" />
	<circle cx="199.394712464553" cy="-488.193951001578" r="2" style="fill: rgb(0,0,0)" />
	<circle cx="135.81309931056" cy="-360.036412128842" r="2" style="fill: rgb(0,0,0)" />
	<circle cx="117.29012124064" cy="-347.591964156136" r="2" style="fill: rgb(0,0,0)" />
	<circle cx="120.374389032877" cy="-318.230630411565" r="2" style="fill: rgb(0,0,0)" />
	<circle cx="146.749652074073" cy="-295.434061398603" r="2" style="fill: rgb(0,0,0)" />
	<circle cx="114.150972045325" cy="-341.069631134822" r="2" style="fill: rgb(0,0,0)" />
	<circle cx="121.017165719107" cy="-319.83709981241" r="2" style="fill: rgb(0,0,0)" />
	<circle cx="264.776774920846" cy="-550.292981319944" r="2" style="fill: rgb(0,0,0)" />
	<circle cx="258.63543583985" cy="-528.839567693763" r="2" style="fill: rgb(0,0,0)" />
	<circle cx="323.468755703411" cy="-538.311238174252" r="2" style="fill: rgb(0,0,0)" />
	<circle cx="293.662675857985" cy="-556.392600498533" r="2" style="fill: rgb(0,0,0)" />
	<circle cx="292.331920294378" cy="-555.28670925883" r="2" style="fill: rgb(0,0,0)" />
	<circle cx="270.016790854399" cy="-555.286709258855" r="2" style="fill: rgb(0,0,0)" />
	<circle cx="337.664078813479" cy="-147.119667780033" r="2" style="fill: rgb(0,0,0)" />
	<circle cx="350.740085867619" cy="-179.43616664323" r="2" style="fill: rgb(0,0,0)" />
	<circle cx="346.68900560715" cy="-151.624278999878" r="2" style="fill: rgb(0,0,0)" />
	<circle cx="376.495085452563" cy="-169.705641324188" r="2" style="fill: rgb(0,0,0)" />
	<circle cx="182.736270113027" cy="-163.768277559505" r="2" style="fill: rgb(0,0,0)" />
	<circle cx="189.602463786862" cy="-142.535746237092" r="2" style="fill: rgb(0,0,0)" />
	<circle cx="193.706181934163" cy="-140.547979156279" r="2" style="fill: rgb(0,0,0)" />
	<circle cx="216.021311374135" cy="-140.547979156266" r="2" style="fill: rgb(0,0,0)" />
	<circle cx="493.096293660344" cy="-374.055554016638" r="2" style="fill: rgb(0,0,0)" />
	<circle cx="521.970490090577" cy="-393.59062094163" r="2" style="fill: rgb(0,0,0)" />
	<circle cx="482.134829320208" cy="-544.583026905427" r="2" style="fill: rgb(0,0,0)" />
	<circle cx="459.81969988021" cy="-544.583026905456" r="2" style="fill: rgb(0,0,0)" />
	<circle cx="492.15503787785" cy="-520.057486212606" r="2" style="fill: rgb(0,0,0)" />
	<circle cx="485.288844204063" cy="-541.29001753503" r="2" style="fill: rgb(0,0,0)" />
	<circle cx="132.280857629852" cy="-418.10395136419" r="2" style="fill: rgb(0,0,0)" />
	<circle cx="125.95021700583" cy="-383.821870789297" r="2" style="fill: rgb(0,0,0)" />
	<circle cx="186.563365970395" cy="-479.087482351137" r="2" style="fill: rgb(0,0,0)" />
	<circle cx="158.108053012229" cy="-458.947144128907" r="2" style="fill: rgb(0,0,0)" />
	<circle cx="227.149526659295" cy="-527.990136839253" r="2" style="fill: rgb(0,0,0)" />
	<circle cx="197.058837091623" cy="-510.386487768827" r="2" style="fill: rgb(0,0,0)" />
	<circle cx="91.9108686423937" cy="-342.897964406106" r="2" style="fill: rgb(0,0,0)" />
	<circle cx="98.7770623161794" cy="-321.665433083698" r="2" style="fill: rgb(0,0,0)" />
	<circle cx="283.749178202075" cy="-575.885290280368" r="2" style="fill: rgb(0,0,0)" />
	<circle cx="261.434048762104" cy="-575.885290280396" r="2" style="fill: rgb(0,0,0)" />
	<circle cx="317.198954271803" cy="-126.53111074587" r="2" style="fill: rgb(0,0,0)" />
	<circle cx="349.911527139303" cy="-114.48015079891" r="2" style="fill: rgb(0,0,0)" />
	<circle cx="393.786875253271" cy="-139.434664056457" r="2" style="fill: rgb(0,0,0)" />
	<circle cx="402.521778913185" cy="-173.184323570404" r="2" style="fill: rgb(0,0,0)" />
	<circle cx="363.821957424424" cy="-121.263119251246" r="2" style="fill: rgb(0,0,0)" />
	<circle cx="393.628037269833" cy="-139.344481575555" r="2" style="fill: rgb(0,0,0)" />
	<circle cx="208.063326013438" cy="-108.77990598301" r="2" style="fill: rgb(0,0,0)" />
	<circle cx="230.37845545341" cy="-108.779905982988" r="2" style="fill: rgb(0,0,0)" />
	<circle cx="486.043260792224" cy="-339.914775076843" r="2" style="fill: rgb(0,0,0)" />
	<circle cx="514.91745722245" cy="-359.449842001834" r="2" style="fill: rgb(0,0,0)" />
	<circle cx="556.447772863568" cy="-388.427769806165" r="2" style="fill: rgb(0,0,0)" />
	<circle cx="537.832467585302" cy="-417.903326945122" r="2" style="fill: rgb(0,0,0)" />
	<circle cx="526.799494798176" cy="-516.171657607123" r="2" style="fill: rgb(0,0,0)" />
	<circle cx="519.933301124396" cy="-537.404188929542" r="2" style="fill: rgb(0,0,0)" />
	<circle cx="118.423533438623" cy="-435.595079634911" r="2" style="fill: rgb(0,0,0)" />
	<circle cx="112.092892814602" cy="-401.312999060021" r="2" style="fill: rgb(0,0,0)" />
	<circle cx="153.064885782865" cy="-458.299103942145" r="2" style="fill: rgb(0,0,0)" />
	<circle cx="131.399239677114" cy="-452.954500987418" r="2" style="fill: rgb(0,0,0)" />
	<circle cx="177.886419854314" cy="-499.646558400966" r="2" style="fill: rgb(0,0,0)" />
	<circle cx="149.431106896167" cy="-479.506220178731" r="2" style="fill: rgb(0,0,0)" />
	<circle cx="205.990289692606" cy="-535.078979686377" r="2" style="fill: rgb(0,0,0)" />
	<circle cx="175.899600124937" cy="-517.475330615944" r="2" style="fill: rgb(0,0,0)" />
	<circle cx="59.8752630411911" cy="-356.647801969483" r="2" style="fill: rgb(0,0,0)" />
	<circle cx="66.7414567149706" cy="-335.41527064708" r="2" style="fill: rgb(0,0,0)" />
	<circle cx="260.809292030492" cy="-602.135998493473" r="2" style="fill: rgb(0,0,0)" />
	<circle cx="238.494162590518" cy="-602.135998493507" r="2" style="fill: rgb(0,0,0)" />
	<circle cx="427.244460917157" cy="-129.640378947335" r="2" style="fill: rgb(0,0,0)" />
	<circle cx="435.979364577071" cy="-163.390038461282" r="2" style="fill: rgb(0,0,0)" />
	<circle cx="396.983684875587" cy="-110.509613231815" r="2" style="fill: rgb(0,0,0)" />
	<circle cx="426.789764720991" cy="-128.590975556125" r="2" style="fill: rgb(0,0,0)" />
	<circle cx="215.554276418875" cy="-74.7325313224254" r="2" style="fill: rgb(0,0,0)" />
	<circle cx="237.869405858847" cy="-74.732531322398" r="2" style="fill: rgb(0,0,0)" />
	<circle cx="561.5" cy="-519.520239096929" r="2" style="fill: rgb(0,0,0)" />
	<circle cx="554.633806326226" cy="-540.752770419344" r="2" style="fill: rgb(0,0,0)" />
	<circle cx="112.376072799371" cy="-469.928245510951" r="2" style="fill: rgb(0,0,0)" />
	<circle cx="106.045432175352" cy="-435.64616493606" r="2" style="fill: rgb(0,0,0)" />
	<circle cx="127.944378927182" cy="-452.69488965323" r="2" style="fill: rgb(0,0,0)" />
	<circle cx="114.087054735953" cy="-470.186017923949" r="2" style="fill: rgb(0,0,0)" />
	<circle cx="141.313218709711" cy="-477.269167804065" r="2" style="fill: rgb(0,0,0)" />
	<circle cx="119.647572603964" cy="-471.924564849347" r="2" style="fill: rgb(0,0,0)" />
	<circle cx="155.626961300938" cy="-498.071278478482" r="2" style="fill: rgb(0,0,0)" />
	<circle cx="127.171648342798" cy="-477.93094025624" r="2" style="fill: rgb(0,0,0)" />
	<circle cx="171.645226532847" cy="-529.099456644617" r="2" style="fill: rgb(0,0,0)" />
	<circle cx="141.554536965194" cy="-511.495807574166" r="2" style="fill: rgb(0,0,0)" />
	<circle cx="33.5" cy="-379.44437098245" r="2" style="fill: rgb(0,0,0)" />
	<circle cx="40.3661936737806" cy="-358.211839660047" r="2" style="fill: rgb(0,0,0)" />
	<circle cx="231.003212185065" cy="-620.217360817782" r="2" style="fill: rgb(0,0,0)" />
	<circle cx="208.688082745092" cy="-620.217360817815" r="2" style="fill: rgb(0,0,0)" />
	<circle cx="208.68808274503" cy="-53.5000000000225" r="2" style="fill: rgb(0,0,0)" />
	<circle cx="231.003212184997" cy="-53.5" r="2" style="fill: rgb(0,0,0)" />
	<!--
	Generated using the Perl SVG Module V2.87
	by Ronan Oger

	-->
</svg>