<?xml version="1.0" encoding="UTF-8" standalone="yes"?>
<!DOCTYPE svg PUBLIC "-//W3C//DTD SVG 1.0//EN" "http://www.w3.org/TR/2001/REC-SVG-20010904/DTD/svg10.dtd">
<!-- generated using polymake; Michael Joswig, Georg Loho, Benjamin Lorenz, Rico Raber; license CC BY-NC-ND 3.0; see polymake.org and matchthenet.de -->
<svg height="841pt" id="document" viewBox="0 -699.681884264302 572 699.681884264302" width="595pt" xmlns="http://www.w3.org/2000/svg" xmlns:svg="http://www.w3.org/2000/svg" xmlns:xlink="http://www.w3.org/1999/xlink">
	<title id="document_title">planar_net_</title>
	<polygon points="281.736666942195,-358.34094213213 344.789999173416,-358.34094213213 313.263333057809,-412.946729637632 250.210000826595,-412.946729637645 " style="fill: rgb(67,184,206); fill-opacity: 1; stroke: rgb(0,0,0); stroke-width: 3" />
	<polygon points="250.210000826585,-274.929223923258 190.446667768778,-254.82781284635 237.736666942192,-213.121953741918 297.499999999999,-233.223364818821 " style="fill: rgb(67,184,206); fill-opacity: 1; stroke: rgb(0,0,0); stroke-width: 3" />
	<polygon points="392.079998346829,-316.635083027692 344.789999173416,-358.34094213213 281.736666942195,-358.34094213213 250.210000826585,-274.929223923258 297.499999999999,-233.223364818821 360.553332231218,-233.22336481882 " style="fill: rgb(238,66,102); fill-opacity: 1; stroke: rgb(0,0,0); stroke-width: 3" />
	<polygon points="281.736666942195,-358.34094213213 250.210000826595,-412.946729637645 190.446667768797,-433.048140714567 133.973333884402,-364.03938785738 165.500000000003,-309.433600351864 225.263333057802,-289.332189274942 " style="fill: rgb(238,66,102); fill-opacity: 1; stroke: rgb(0,0,0); stroke-width: 3" />
	<polygon points="360.553332231218,-233.22336481882 297.499999999999,-233.223364818821 250.210000826584,-191.517505714384 281.736666942191,-108.10578750551 344.78999917341,-108.105787505511 392.079998346825,-149.811646609948 " style="fill: rgb(238,66,102); fill-opacity: 1; stroke: rgb(0,0,0); stroke-width: 3" />
	<polygon points="165.500000000003,-309.433600351864 133.973333884402,-364.03938785738 45.9733338843999,-349.636422505717 33.5,-287.82915232437 65.0266661156015,-233.223364818854 153.026666115604,-247.626330170517 " style="fill: rgb(238,66,102); fill-opacity: 1; stroke: rgb(0,0,0); stroke-width: 3" />
	<polygon points="190.446667768797,-433.048140714567 121.43791491161,-489.521474598963 64.9645810272191,-420.512721741785 133.973333884402,-364.03938785738 " style="fill: rgb(67,184,206); fill-opacity: 1; stroke: rgb(0,0,0); stroke-width: 3" />
	<polygon points="313.263333057809,-412.946729637632 344.789999173416,-358.34094213213 404.553332231218,-338.239531055219 461.026666115608,-407.248283912403 429.500000000001,-461.854071417905 369.736666942198,-481.955482494816 " style="fill: rgb(238,66,102); fill-opacity: 1; stroke: rgb(0,0,0); stroke-width: 3" />
	<polygon points="475.491716555706,-285.108416912068 392.079998346829,-316.635083027692 360.553332231218,-233.22336481882 443.965050440094,-201.696698703202 " style="fill: rgb(67,184,206); fill-opacity: 1; stroke: rgb(0,0,0); stroke-width: 3" />
	<polygon points="313.263333057798,-53.5000000000126 344.78999917341,-108.105787505511 281.736666942191,-108.10578750551 250.210000826581,-53.5 " style="fill: rgb(67,184,206); fill-opacity: 1; stroke: rgb(0,0,0); stroke-width: 3" />
	<polygon points="250.210000826595,-412.946729637645 313.263333057809,-412.946729637632 344.78999917342,-496.358447846505 297.500000000013,-538.064306950955 234.446667768799,-538.064306950968 202.920001653188,-454.652588742095 " style="fill: rgb(238,66,102); fill-opacity: 1; stroke: rgb(0,0,0); stroke-width: 3" />
	<polygon points="234.446667768799,-538.064306950968 297.500000000013,-538.064306950955 344.789999173428,-579.770166055393 313.263333057832,-663.181884264291 250.210000826618,-663.181884264302 202.920001653203,-621.476025159865 " style="fill: rgb(238,66,102); fill-opacity: 1; stroke: rgb(0,0,0); stroke-width: 3" />
	<polygon points="369.736666942198,-481.955482494816 429.500000000001,-461.854071417905 417.026666115625,-523.661341599254 357.263333057827,-543.762752676167 " style="fill: rgb(67,184,206); fill-opacity: 1; stroke: rgb(0,0,0); stroke-width: 3" />
	<polygon points="429.500000000001,-461.854071417905 461.026666115608,-407.248283912403 549.026666115608,-421.651249264084 561.5,-483.458519445426 529.973333884392,-538.064306950928 441.973333884392,-523.661341599247 " style="fill: rgb(238,66,102); fill-opacity: 1; stroke: rgb(0,0,0); stroke-width: 3" />
	<circle cx="281.736666942195" cy="-358.34094213213" r="2" style="fill: rgb(0,0,0)" />
	<circle cx="344.789999173416" cy="-358.34094213213" r="2" style="fill: rgb(0,0,0)" />
	<circle cx="313.263333057809" cy="-412.946729637632" r="2" style="fill: rgb(0,0,0)" />
	<circle cx="250.210000826595" cy="-412.946729637645" r="2" style="fill: rgb(0,0,0)" />
	<circle cx="250.210000826585" cy="-274.929223923258" r="2" style="fill: rgb(0,0,0)" />
	<circle cx="297.499999999999" cy="-233.223364818821" r="2" style="fill: rgb(0,0,0)" />
	<circle cx="360.553332231218" cy="-233.22336481882" r="2" style="fill: rgb(0,0,0)" />
	<circle cx="392.079998346829" cy="-316.635083027692" r="2" style="fill: rgb(0,0,0)" />
	<circle cx="190.446667768797" cy="-433.048140714567" r="2" style="fill: rgb(0,0,0)" />
	<circle cx="133.973333884402" cy="-364.03938785738" r="2" style="fill: rgb(0,0,0)" />
	<circle cx="165.500000000003" cy="-309.433600351864" r="2" style="fill: rgb(0,0,0)" />
	<circle cx="225.263333057802" cy="-289.332189274942" r="2" style="fill: rgb(0,0,0)" />
	<circle cx="404.553332231218" cy="-338.239531055219" r="2" style="fill: rgb(0,0,0)" />
	<circle cx="461.026666115608" cy="-407.248283912403" r="2" style="fill: rgb(0,0,0)" />
	<circle cx="429.500000000001" cy="-461.854071417905" r="2" style="fill: rgb(0,0,0)" />
	<circle cx="369.736666942198" cy="-481.955482494816" r="2" style="fill: rgb(0,0,0)" />
	<circle cx="344.78999917342" cy="-496.358447846505" r="2" style="fill: rgb(0,0,0)" />
	<circle cx="297.500000000013" cy="-538.064306950955" r="2" style="fill: rgb(0,0,0)" />
	<circle cx="234.446667768799" cy="-538.064306950968" r="2" style="fill: rgb(0,0,0)" />
	<circle cx="202.920001653188" cy="-454.652588742095" r="2" style="fill: rgb(0,0,0)" />
	<circle cx="190.446667768778" cy="-254.82781284635" r="2" style="fill: rgb(0,0,0)" />
	<circle cx="237.736666942192" cy="-213.121953741918" r="2" style="fill: rgb(0,0,0)" />
	<circle cx="250.210000826584" cy="-191.517505714384" r="2" style="fill: rgb(0,0,0)" />
	<circle cx="281.736666942191" cy="-108.10578750551" r="2" style="fill: rgb(0,0,0)" />
	<circle cx="344.78999917341" cy="-108.105787505511" r="2" style="fill: rgb(0,0,0)" />
	<circle cx="392.079998346825" cy="-149.811646609948" r="2" style="fill: rgb(0,0,0)" />
	<circle cx="443.965050440094" cy="-201.696698703202" r="2" style="fill: rgb(0,0,0)" />
	<circle cx="475.491716555706" cy="-285.108416912068" r="2" style="fill: rgb(0,0,0)" />
	<circle cx="45.9733338843999" cy="-349.636422505717" r="2" style="fill: rgb(0,0,0)" />
	<circle cx="33.5" cy="-287.82915232437" r="2" style="fill: rgb(0,0,0)" />
	<circle cx="65.0266661156015" cy="-233.223364818854" r="2" style="fill: rgb(0,0,0)" />
	<circle cx="153.026666115604" cy="-247.626330170517" r="2" style="fill: rgb(0,0,0)" />
	<circle cx="121.43791491161" cy="-489.521474598963" r="2" style="fill: rgb(0,0,0)" />
	<circle cx="64.9645810272191" cy="-420.512721741785" r="2" style="fill: rgb(0,0,0)" />
	<circle cx="417.026666115625" cy="-523.661341599254" r="2" style="fill: rgb(0,0,0)" />
	<circle cx="357.263333057827" cy="-543.762752676167" r="2" style="fill: rgb(0,0,0)" />
	<circle cx="549.026666115608" cy="-421.651249264084" r="2" style="fill: rgb(0,0,0)" />
	<circle cx="561.5" cy="-483.458519445426" r="2" style="fill: rgb(0,0,0)" />
	<circle cx="529.973333884392" cy="-538.064306950928" r="2" style="fill: rgb(0,0,0)" />
	<circle cx="441.973333884392" cy="-523.661341599247" r="2" style="fill: rgb(0,0,0)" />
	<circle cx="344.789999173428" cy="-579.770166055393" r="2" style="fill: rgb(0,0,0)" />
	<circle cx="313.263333057832" cy="-663.181884264291" r="2" style="fill: rgb(0,0,0)" />
	<circle cx="250.210000826618" cy="-663.181884264302" r="2" style="fill: rgb(0,0,0)" />
	<circle cx="202.920001653203" cy="-621.476025159865" r="2" style="fill: rgb(0,0,0)" />
	<circle cx="250.210000826581" cy="-53.5" r="2" style="fill: rgb(0,0,0)" />
	<circle cx="313.263333057798" cy="-53.5000000000126" r="2" style="fill: rgb(0,0,0)" />
	<!--
	Generated using the Perl SVG Module V2.84
	by Ronan Oger
	Info: http://www.roitsystems.com/
	-->
</svg>