<?xml version="1.0" encoding="UTF-8" standalone="yes"?>
<!DOCTYPE svg PUBLIC "-//W3C//DTD SVG 1.0//EN" "http://www.w3.org/TR/2001/REC-SVG-20010904/DTD/svg10.dtd">
<!-- generated using polymake; Michael Joswig, Georg Loho, Benjamin Lorenz, Rico Raber; license CC BY-NC-ND 3.0; see polymake.org and matchthenet.de -->
<svg height="841pt" id="document" viewBox="0 -651.238058436875 572 651.238058436875" width="595pt" xmlns="http://www.w3.org/2000/svg" xmlns:svg="http://www.w3.org/2000/svg" xmlns:xlink="http://www.w3.org/1999/xlink">
	<title id="document_title">planar_net_</title>
	<polygon points="226.01192037155,-334.119029218436 273.178425440545,-334.119029218436 313.839205672438,-358.022588605215 266.672700603442,-358.022588605215 " style="fill: rgb(14,173,105); fill-opacity: 1; stroke: rgb(0,0,0); stroke-width: 3" />
	<polygon points="313.839205672438,-358.022588605215 326.23294692466,-324.103309903027 366.257621949188,-299.149260339789 353.863880696965,-333.068539041978 " style="fill: rgb(14,173,105); fill-opacity: 1; stroke: rgb(0,0,0); stroke-width: 3" />
	<polygon points="279.684150277635,-298.597235425781 273.178425440545,-334.119029218436 226.01192037155,-334.119029218436 232.517645208647,-298.597235425785 " style="fill: rgb(14,173,105); fill-opacity: 1; stroke: rgb(0,0,0); stroke-width: 3" />
	<polygon points="313.839205672438,-358.022588605215 273.178425440545,-334.119029218436 285.572166692769,-300.199750516251 326.23294692466,-324.103309903027 " style="fill: rgb(14,173,105); fill-opacity: 1; stroke: rgb(0,0,0); stroke-width: 3" />
	<polygon points="266.672700603442,-358.022588605215 313.839205672438,-358.022588605215 329.290302160558,-390.662838408462 282.123797091563,-390.662838408462 " style="fill: rgb(14,173,105); fill-opacity: 1; stroke: rgb(0,0,0); stroke-width: 3" />
	<polygon points="329.290302160558,-390.662838408462 313.839205672438,-358.022588605215 361.005710741432,-358.022588605214 376.456807229572,-390.662838408457 " style="fill: rgb(14,173,105); fill-opacity: 1; stroke: rgb(0,0,0); stroke-width: 3" />
	<polygon points="232.517645208647,-298.597235425785 226.01192037155,-334.119029218436 204.15437744268,-292.322773195481 210.66010227978,-256.800979402836 " style="fill: rgb(14,173,105); fill-opacity: 1; stroke: rgb(0,0,0); stroke-width: 3" />
	<polygon points="279.684150277635,-298.597235425781 232.517645208647,-298.597235425785 213.813686301975,-255.297799844689 260.980191370952,-255.297799844681 " style="fill: rgb(14,173,105); fill-opacity: 1; stroke: rgb(0,0,0); stroke-width: 3" />
	<polygon points="226.01192037155,-334.119029218436 266.672700603442,-358.022588605215 236.811005611281,-378.330258636478 196.150225379385,-354.426699249695 " style="fill: rgb(14,173,105); fill-opacity: 1; stroke: rgb(0,0,0); stroke-width: 3" />
	<polygon points="326.23294692466,-324.103309903027 285.572166692769,-300.199750516251 323.640032644902,-272.351648565232 364.300812876792,-296.255207951996 " style="fill: rgb(14,173,105); fill-opacity: 1; stroke: rgb(0,0,0); stroke-width: 3" />
	<polygon points="260.980191370952,-255.297799844681 213.813686301975,-255.297799844689 239.023370045755,-215.433642435269 286.189875114725,-215.433642435268 " style="fill: rgb(14,173,105); fill-opacity: 1; stroke: rgb(0,0,0); stroke-width: 3" />
	<polygon points="196.150225379385,-354.426699249695 236.811005611281,-378.330258636478 250.083625228885,-411.915372279131 209.422844996989,-388.011812892347 " style="fill: rgb(14,173,105); fill-opacity: 1; stroke: rgb(0,0,0); stroke-width: 3" />
	<polygon points="306.282996749602,-259.646233297657 279.684150277635,-298.597235425781 260.980191370952,-255.297799844681 287.57903784292,-216.346797716562 " style="fill: rgb(14,173,105); fill-opacity: 1; stroke: rgb(0,0,0); stroke-width: 3" />
	<polygon points="266.672700603442,-358.022588605215 282.123797091563,-390.662838408462 253.363915601951,-412.502973632565 237.912819113827,-379.862723829329 " style="fill: rgb(14,173,105); fill-opacity: 1; stroke: rgb(0,0,0); stroke-width: 3" />
	<polygon points="204.15437744268,-292.322773195481 168.054161961759,-293.269732611041 174.559886798851,-257.747938818404 210.66010227978,-256.800979402836 " style="fill: rgb(14,173,105); fill-opacity: 1; stroke: rgb(0,0,0); stroke-width: 3" />
	<polygon points="384.504845620139,-352.180146993195 396.898586872354,-318.26086829101 443.86647346233,-313.936885208802 431.472732210116,-347.856163910984 " style="fill: rgb(14,173,105); fill-opacity: 1; stroke: rgb(0,0,0); stroke-width: 3" />
	<polygon points="226.01192037155,-334.119029218436 196.150225379385,-354.426699249695 155.489445147498,-330.523139862904 185.35114013966,-310.215469831644 " style="fill: rgb(14,173,105); fill-opacity: 1; stroke: rgb(0,0,0); stroke-width: 3" />
	<polygon points="364.300812876792,-296.255207951996 362.771122341603,-249.113514650939 405.441178993422,-229.015120044545 406.970869528612,-276.156813345599 " style="fill: rgb(14,173,105); fill-opacity: 1; stroke: rgb(0,0,0); stroke-width: 3" />
	<polygon points="329.290302160558,-390.662838408462 376.456807229572,-390.662838408457 417.117587461466,-414.566397795238 369.951082392451,-414.566397795241 " style="fill: rgb(14,173,105); fill-opacity: 1; stroke: rgb(0,0,0); stroke-width: 3" />
	<polygon points="282.123797091563,-390.662838408462 329.290302160558,-390.662838408462 300.827755998229,-412.889078663193 253.661250929233,-412.889078663191 " style="fill: rgb(14,173,105); fill-opacity: 1; stroke: rgb(0,0,0); stroke-width: 3" />
	<polygon points="253.661250929233,-412.889078663191 300.827755998229,-412.889078663193 319.531714904906,-456.188514244292 272.365209835915,-456.188514244291 " style="fill: rgb(14,173,105); fill-opacity: 1; stroke: rgb(0,0,0); stroke-width: 3" />
	<polygon points="364.300812876792,-296.255207951996 323.640032644902,-272.351648565232 322.110342109719,-225.209955264179 362.771122341603,-249.113514650939 " style="fill: rgb(14,173,105); fill-opacity: 1; stroke: rgb(0,0,0); stroke-width: 3" />
	<polygon points="353.863880696965,-333.068539041978 366.257621949188,-299.149260339789 396.898586872354,-318.26086829101 384.504845620139,-352.180146993195 " style="fill: rgb(14,173,105); fill-opacity: 1; stroke: rgb(0,0,0); stroke-width: 3" />
	<polygon points="279.684150277607,-132.27004944475 232.51764520865,-132.270049444756 204.055099046325,-110.043809190023 251.221604115282,-110.043809190021 " style="fill: rgb(14,173,105); fill-opacity: 1; stroke: rgb(0,0,0); stroke-width: 3" />
	<polygon points="413.16288303158,-294.191873607218 430.506409998907,-250.329802603246 461.147374922071,-269.441410554454 443.803847954741,-313.303481558438 " style="fill: rgb(14,173,105); fill-opacity: 1; stroke: rgb(0,0,0); stroke-width: 3" />
	<polygon points="410.611862624369,-450.088191587888 417.117587461466,-414.566397795238 438.975130390338,-456.362653818192 432.469405553236,-491.884447610837 " style="fill: rgb(14,173,105); fill-opacity: 1; stroke: rgb(0,0,0); stroke-width: 3" />
	<polygon points="210.66010227978,-256.800979402836 174.559886798851,-257.747938818404 136.636675786934,-229.703166275749 172.736891267863,-228.756206860182 " style="fill: rgb(14,173,105); fill-opacity: 1; stroke: rgb(0,0,0); stroke-width: 3" />
	<polygon points="253.661250929233,-412.889078663191 272.365209835915,-456.188514244291 245.766363363951,-495.139516372412 227.062404457267,-451.840080791315 " style="fill: rgb(14,173,105); fill-opacity: 1; stroke: rgb(0,0,0); stroke-width: 3" />
	<polygon points="239.023370045755,-215.433642435269 213.813686301975,-255.297799844689 187.214839830001,-216.346797716577 212.424523573768,-176.48264030716 " style="fill: rgb(14,173,105); fill-opacity: 1; stroke: rgb(0,0,0); stroke-width: 3" />
	<polygon points="172.736891267863,-228.756206860182 136.636675786934,-229.703166275749 143.914261440205,-183.101493049533 180.014476921132,-182.15453363396 " style="fill: rgb(14,173,105); fill-opacity: 1; stroke: rgb(0,0,0); stroke-width: 3" />
	<polygon points="300.827755998229,-412.889078663193 329.290302160558,-390.662838408462 351.14784508942,-432.45909443142 322.685298927096,-454.685334686155 " style="fill: rgb(14,173,105); fill-opacity: 1; stroke: rgb(0,0,0); stroke-width: 3" />
	<polygon points="196.150225379385,-354.426699249695 209.422844996989,-388.011812892347 169.398169972456,-412.965862455581 156.125550354846,-379.38074881294 " style="fill: rgb(14,173,105); fill-opacity: 1; stroke: rgb(0,0,0); stroke-width: 3" />
	<polygon points="156.125550354846,-379.38074881294 169.398169972456,-412.965862455581 123.127556304347,-422.115152657579 109.854936686726,-388.530039014948 " style="fill: rgb(14,173,105); fill-opacity: 1; stroke: rgb(0,0,0); stroke-width: 3" />
	<polygon points="209.422844996989,-388.011812892347 250.083625228885,-411.915372279131 212.015759276751,-439.763474230148 171.354979044857,-415.859914843376 " style="fill: rgb(14,173,105); fill-opacity: 1; stroke: rgb(0,0,0); stroke-width: 3" />
	<polygon points="155.489445147498,-330.523139862904 196.150225379385,-354.426699249695 148.983720310388,-354.426699249681 108.322940078509,-330.52313986289 " style="fill: rgb(14,173,105); fill-opacity: 1; stroke: rgb(0,0,0); stroke-width: 3" />
	<polygon points="396.898586872354,-318.26086829101 366.257621949188,-299.149260339789 413.16288303158,-294.191873607218 443.803847954741,-313.303481558438 " style="fill: rgb(14,173,105); fill-opacity: 1; stroke: rgb(0,0,0); stroke-width: 3" />
	<polygon points="362.771122341603,-249.113514650939 322.110342109719,-225.209955264179 364.045623546571,-203.620342686918 404.706403778446,-227.523902073679 " style="fill: rgb(14,173,105); fill-opacity: 1; stroke: rgb(0,0,0); stroke-width: 3" />
	<polygon points="286.189875114725,-215.433642435268 239.023370045755,-215.433642435269 213.813686301981,-175.56948502585 260.980191370945,-175.569485025852 " style="fill: rgb(14,173,105); fill-opacity: 1; stroke: rgb(0,0,0); stroke-width: 3" />
	<polygon points="247.155526092142,-496.052671653704 272.365209835921,-535.916829063119 252.146987389586,-578.530238707676 226.937303645805,-538.666081298257 " style="fill: rgb(14,173,105); fill-opacity: 1; stroke: rgb(0,0,0); stroke-width: 3" />
	<polygon points="369.951082392451,-414.566397795241 417.117587461466,-414.566397795238 410.611862624369,-450.088191587888 363.44535755536,-450.088191587896 " style="fill: rgb(14,173,105); fill-opacity: 1; stroke: rgb(0,0,0); stroke-width: 3" />
	<polygon points="168.054161961759,-293.269732611041 129.755960185805,-265.739259655571 136.261685022884,-230.217465862929 174.559886798851,-257.747938818404 " style="fill: rgb(14,173,105); fill-opacity: 1; stroke: rgb(0,0,0); stroke-width: 3" />
	<polygon points="490.834360052304,-309.612902126596 530.518654067923,-284.121020891469 561.159618991098,-303.232628842673 521.475324975475,-328.724510077811 " style="fill: rgb(14,173,105); fill-opacity: 1; stroke: rgb(0,0,0); stroke-width: 3" />
	<polygon points="169.398169972456,-412.965862455581 159.448640020344,-459.071025443645 113.178026352244,-468.220315645652 123.127556304347,-422.115152657579 " style="fill: rgb(14,173,105); fill-opacity: 1; stroke: rgb(0,0,0); stroke-width: 3" />
	<polygon points="306.408097561061,-172.820232790714 286.189875114725,-215.433642435268 260.980191370945,-175.569485025852 281.198413817283,-132.956075381297 " style="fill: rgb(14,173,105); fill-opacity: 1; stroke: rgb(0,0,0); stroke-width: 3" />
	<polygon points="180.014476921132,-182.15453363396 143.914261440205,-183.101493049533 134.203510396564,-136.945447783586 170.303725877485,-135.998488368007 " style="fill: rgb(14,173,105); fill-opacity: 1; stroke: rgb(0,0,0); stroke-width: 3" />
	<polygon points="171.354979044857,-415.859914843376 212.015759276751,-439.763474230148 213.545449811932,-486.905167531202 172.884669580042,-463.001608144434 " style="fill: rgb(14,173,105); fill-opacity: 1; stroke: rgb(0,0,0); stroke-width: 3" />
	<polygon points="119.293148819587,-185.841095271789 89.4278116451923,-165.538781971003 96.7053972984791,-118.937108744808 126.570734472866,-139.239422045587 " style="fill: rgb(14,173,105); fill-opacity: 1; stroke: rgb(0,0,0); stroke-width: 3" />
	<polygon points="430.506409998907,-250.329802603246 462.269214577123,-215.461429458662 492.910179500292,-234.573037409856 461.147374922071,-269.441410554454 " style="fill: rgb(14,173,105); fill-opacity: 1; stroke: rgb(0,0,0); stroke-width: 3" />
	<polygon points="478.440618800091,-343.532180828776 490.834360052304,-309.612902126596 521.475324975475,-328.724510077811 509.081583723266,-362.643788779988 " style="fill: rgb(14,173,105); fill-opacity: 1; stroke: rgb(0,0,0); stroke-width: 3" />
	<polygon points="404.706403778446,-227.523902073679 364.045623546571,-203.620342686918 369.865284487197,-156.814245360182 410.526064719069,-180.71780474694 " style="fill: rgb(14,173,105); fill-opacity: 1; stroke: rgb(0,0,0); stroke-width: 3" />
	<polygon points="431.472732210116,-347.856163910984 443.86647346233,-313.936885208802 490.834360052304,-309.612902126596 478.440618800091,-343.532180828776 " style="fill: rgb(14,173,105); fill-opacity: 1; stroke: rgb(0,0,0); stroke-width: 3" />
	<polygon points="509.081583723266,-362.643788779988 521.475324975475,-328.724510077811 561.5,-303.770460514563 549.106258747788,-337.68973921674 " style="fill: rgb(14,173,105); fill-opacity: 1; stroke: rgb(0,0,0); stroke-width: 3" />
	<polygon points="109.854936686726,-388.530039014948 123.127556304347,-422.115152657579 109.792757638139,-467.357415476269 96.5201380205191,-433.772301833637 " style="fill: rgb(14,173,105); fill-opacity: 1; stroke: rgb(0,0,0); stroke-width: 3" />
	<polygon points="260.980191370945,-175.569485025852 213.813686301981,-175.56948502585 232.51764520865,-132.270049444756 279.684150277607,-132.27004944475 " style="fill: rgb(14,173,105); fill-opacity: 1; stroke: rgb(0,0,0); stroke-width: 3" />
	<polygon points="272.365209835921,-535.916829063119 319.531714904905,-535.916829063133 300.827755998236,-579.216264644228 253.661250929256,-579.21626464422 " style="fill: rgb(14,173,105); fill-opacity: 1; stroke: rgb(0,0,0); stroke-width: 3" />
	<polygon points="272.365209835915,-456.188514244291 319.531714904906,-456.188514244292 294.322031161127,-496.052671653712 247.155526092142,-496.052671653704 " style="fill: rgb(14,173,105); fill-opacity: 1; stroke: rgb(0,0,0); stroke-width: 3" />
	<polygon points="253.661250929256,-579.21626464422 300.827755998236,-579.216264644228 307.33348083534,-614.738058436875 260.166975766363,-614.738058436866 " style="fill: rgb(14,173,105); fill-opacity: 1; stroke: rgb(0,0,0); stroke-width: 3" />
	<polygon points="443.86647346233,-313.936885208802 482.164675238268,-286.406412253313 529.13256182822,-282.08242917111 490.834360052304,-309.612902126596 " style="fill: rgb(14,173,105); fill-opacity: 1; stroke: rgb(0,0,0); stroke-width: 3" />
	<polygon points="363.44535755536,-450.088191587896 410.611862624369,-450.088191587888 429.315821531052,-493.387627168989 382.149316462043,-493.387627168996 " style="fill: rgb(14,173,105); fill-opacity: 1; stroke: rgb(0,0,0); stroke-width: 3" />
	<polygon points="136.261685022884,-230.217465862929 129.755960185805,-265.739259655571 91.4577584098406,-238.208786700115 97.9634832469011,-202.686992907466 " style="fill: rgb(14,173,105); fill-opacity: 1; stroke: rgb(0,0,0); stroke-width: 3" />
	<polygon points="172.884669580042,-463.001608144434 213.545449811932,-486.905167531202 171.610168375077,-508.494780108459 130.949388143196,-484.59122072169 " style="fill: rgb(14,173,105); fill-opacity: 1; stroke: rgb(0,0,0); stroke-width: 3" />
	<polygon points="410.526064719069,-180.71780474694 369.865284487197,-156.814245360182 405.666020321878,-152.078255115365 446.326800553736,-175.981814502135 " style="fill: rgb(14,173,105); fill-opacity: 1; stroke: rgb(0,0,0); stroke-width: 3" />
	<polygon points="251.221604115282,-110.043809190021 204.055099046325,-110.043809190023 219.506195534452,-77.4035593867739 266.672700603415,-77.4035593867766 " style="fill: rgb(14,173,105); fill-opacity: 1; stroke: rgb(0,0,0); stroke-width: 3" />
	<polygon points="136.636675786934,-229.703166275749 119.293148819587,-185.841095271789 126.570734472866,-139.239422045587 143.914261440205,-183.101493049533 " style="fill: rgb(14,173,105); fill-opacity: 1; stroke: rgb(0,0,0); stroke-width: 3" />
	<polygon points="295.574296268769,-99.8412728677112 279.684150277607,-132.27004944475 251.221604115282,-110.043809190021 267.111750106448,-77.615032612986 " style="fill: rgb(14,173,105); fill-opacity: 1; stroke: rgb(0,0,0); stroke-width: 3" />
	<polygon points="247.155526092142,-496.052671653704 294.322031161127,-496.052671653712 319.531714904905,-535.916829063133 272.365209835921,-535.916829063119 " style="fill: rgb(14,173,105); fill-opacity: 1; stroke: rgb(0,0,0); stroke-width: 3" />
	<polygon points="91.4577584098406,-238.208786700115 55.357542928918,-239.155746115713 61.8632677659706,-203.633952323071 97.9634832469011,-202.686992907466 " style="fill: rgb(14,173,105); fill-opacity: 1; stroke: rgb(0,0,0); stroke-width: 3" />
	<polygon points="307.333480835305,-53.5000000000243 266.672700603415,-77.4035593867766 219.506195534452,-77.4035593867739 260.166975766347,-53.5 " style="fill: rgb(14,173,105); fill-opacity: 1; stroke: rgb(0,0,0); stroke-width: 3" />
	<polygon points="130.949388143196,-484.59122072169 171.610168375077,-508.494780108459 165.790507434448,-555.300877435195 125.129727202569,-531.397318048428 " style="fill: rgb(14,173,105); fill-opacity: 1; stroke: rgb(0,0,0); stroke-width: 3" />
	<polygon points="446.326800553736,-175.981814502135 405.666020321878,-152.078255115365 408.887893782806,-116.10963238241 449.548674014658,-140.013191769183 " style="fill: rgb(14,173,105); fill-opacity: 1; stroke: rgb(0,0,0); stroke-width: 3" />
	<polygon points="55.357542928918,-239.155746115713 33.5,-197.359490092786 40.0057248370552,-161.837696300148 61.8632677659706,-203.633952323071 " style="fill: rgb(14,173,105); fill-opacity: 1; stroke: rgb(0,0,0); stroke-width: 3" />
	<polygon points="125.129727202569,-531.397318048428 165.790507434448,-555.300877435195 142.179999221706,-582.626070789309 101.519218989834,-558.722511402544 " style="fill: rgb(14,173,105); fill-opacity: 1; stroke: rgb(0,0,0); stroke-width: 3" />
	<circle cx="226.01192037155" cy="-334.119029218436" r="2" style="fill: rgb(0,0,0)" />
	<circle cx="273.178425440545" cy="-334.119029218436" r="2" style="fill: rgb(0,0,0)" />
	<circle cx="313.839205672438" cy="-358.022588605215" r="2" style="fill: rgb(0,0,0)" />
	<circle cx="266.672700603442" cy="-358.022588605215" r="2" style="fill: rgb(0,0,0)" />
	<circle cx="232.517645208647" cy="-298.597235425785" r="2" style="fill: rgb(0,0,0)" />
	<circle cx="279.684150277635" cy="-298.597235425781" r="2" style="fill: rgb(0,0,0)" />
	<circle cx="285.572166692769" cy="-300.199750516251" r="2" style="fill: rgb(0,0,0)" />
	<circle cx="326.23294692466" cy="-324.103309903027" r="2" style="fill: rgb(0,0,0)" />
	<circle cx="329.290302160558" cy="-390.662838408462" r="2" style="fill: rgb(0,0,0)" />
	<circle cx="282.123797091563" cy="-390.662838408462" r="2" style="fill: rgb(0,0,0)" />
	<circle cx="236.811005611281" cy="-378.330258636478" r="2" style="fill: rgb(0,0,0)" />
	<circle cx="196.150225379385" cy="-354.426699249695" r="2" style="fill: rgb(0,0,0)" />
	<circle cx="204.15437744268" cy="-292.322773195481" r="2" style="fill: rgb(0,0,0)" />
	<circle cx="210.66010227978" cy="-256.800979402836" r="2" style="fill: rgb(0,0,0)" />
	<circle cx="213.813686301975" cy="-255.297799844689" r="2" style="fill: rgb(0,0,0)" />
	<circle cx="260.980191370952" cy="-255.297799844681" r="2" style="fill: rgb(0,0,0)" />
	<circle cx="366.257621949188" cy="-299.149260339789" r="2" style="fill: rgb(0,0,0)" />
	<circle cx="353.863880696965" cy="-333.068539041978" r="2" style="fill: rgb(0,0,0)" />
	<circle cx="323.640032644902" cy="-272.351648565232" r="2" style="fill: rgb(0,0,0)" />
	<circle cx="364.300812876792" cy="-296.255207951996" r="2" style="fill: rgb(0,0,0)" />
	<circle cx="361.005710741432" cy="-358.022588605214" r="2" style="fill: rgb(0,0,0)" />
	<circle cx="376.456807229572" cy="-390.662838408457" r="2" style="fill: rgb(0,0,0)" />
	<circle cx="253.363915601951" cy="-412.502973632565" r="2" style="fill: rgb(0,0,0)" />
	<circle cx="237.912819113827" cy="-379.862723829329" r="2" style="fill: rgb(0,0,0)" />
	<circle cx="300.827755998229" cy="-412.889078663193" r="2" style="fill: rgb(0,0,0)" />
	<circle cx="253.661250929233" cy="-412.889078663191" r="2" style="fill: rgb(0,0,0)" />
	<circle cx="250.083625228885" cy="-411.915372279131" r="2" style="fill: rgb(0,0,0)" />
	<circle cx="209.422844996989" cy="-388.011812892347" r="2" style="fill: rgb(0,0,0)" />
	<circle cx="155.489445147498" cy="-330.523139862904" r="2" style="fill: rgb(0,0,0)" />
	<circle cx="185.35114013966" cy="-310.215469831644" r="2" style="fill: rgb(0,0,0)" />
	<circle cx="168.054161961759" cy="-293.269732611041" r="2" style="fill: rgb(0,0,0)" />
	<circle cx="174.559886798851" cy="-257.747938818404" r="2" style="fill: rgb(0,0,0)" />
	<circle cx="239.023370045755" cy="-215.433642435269" r="2" style="fill: rgb(0,0,0)" />
	<circle cx="286.189875114725" cy="-215.433642435268" r="2" style="fill: rgb(0,0,0)" />
	<circle cx="287.57903784292" cy="-216.346797716562" r="2" style="fill: rgb(0,0,0)" />
	<circle cx="306.282996749602" cy="-259.646233297657" r="2" style="fill: rgb(0,0,0)" />
	<circle cx="396.898586872354" cy="-318.26086829101" r="2" style="fill: rgb(0,0,0)" />
	<circle cx="384.504845620139" cy="-352.180146993195" r="2" style="fill: rgb(0,0,0)" />
	<circle cx="322.110342109719" cy="-225.209955264179" r="2" style="fill: rgb(0,0,0)" />
	<circle cx="362.771122341603" cy="-249.113514650939" r="2" style="fill: rgb(0,0,0)" />
	<circle cx="417.117587461466" cy="-414.566397795238" r="2" style="fill: rgb(0,0,0)" />
	<circle cx="369.951082392451" cy="-414.566397795241" r="2" style="fill: rgb(0,0,0)" />
	<circle cx="319.531714904906" cy="-456.188514244292" r="2" style="fill: rgb(0,0,0)" />
	<circle cx="272.365209835915" cy="-456.188514244291" r="2" style="fill: rgb(0,0,0)" />
	<circle cx="351.14784508942" cy="-432.45909443142" r="2" style="fill: rgb(0,0,0)" />
	<circle cx="322.685298927096" cy="-454.685334686155" r="2" style="fill: rgb(0,0,0)" />
	<circle cx="169.398169972456" cy="-412.965862455581" r="2" style="fill: rgb(0,0,0)" />
	<circle cx="156.125550354846" cy="-379.38074881294" r="2" style="fill: rgb(0,0,0)" />
	<circle cx="212.015759276751" cy="-439.763474230148" r="2" style="fill: rgb(0,0,0)" />
	<circle cx="171.354979044857" cy="-415.859914843376" r="2" style="fill: rgb(0,0,0)" />
	<circle cx="148.983720310388" cy="-354.426699249681" r="2" style="fill: rgb(0,0,0)" />
	<circle cx="108.322940078509" cy="-330.52313986289" r="2" style="fill: rgb(0,0,0)" />
	<circle cx="136.636675786934" cy="-229.703166275749" r="2" style="fill: rgb(0,0,0)" />
	<circle cx="172.736891267863" cy="-228.756206860182" r="2" style="fill: rgb(0,0,0)" />
	<circle cx="129.755960185805" cy="-265.739259655571" r="2" style="fill: rgb(0,0,0)" />
	<circle cx="136.261685022884" cy="-230.217465862929" r="2" style="fill: rgb(0,0,0)" />
	<circle cx="187.214839830001" cy="-216.346797716577" r="2" style="fill: rgb(0,0,0)" />
	<circle cx="212.424523573768" cy="-176.48264030716" r="2" style="fill: rgb(0,0,0)" />
	<circle cx="213.813686301981" cy="-175.56948502585" r="2" style="fill: rgb(0,0,0)" />
	<circle cx="260.980191370945" cy="-175.569485025852" r="2" style="fill: rgb(0,0,0)" />
	<circle cx="443.86647346233" cy="-313.936885208802" r="2" style="fill: rgb(0,0,0)" />
	<circle cx="431.472732210116" cy="-347.856163910984" r="2" style="fill: rgb(0,0,0)" />
	<circle cx="413.16288303158" cy="-294.191873607218" r="2" style="fill: rgb(0,0,0)" />
	<circle cx="443.803847954741" cy="-313.303481558438" r="2" style="fill: rgb(0,0,0)" />
	<circle cx="405.441178993422" cy="-229.015120044545" r="2" style="fill: rgb(0,0,0)" />
	<circle cx="406.970869528612" cy="-276.156813345599" r="2" style="fill: rgb(0,0,0)" />
	<circle cx="364.045623546571" cy="-203.620342686918" r="2" style="fill: rgb(0,0,0)" />
	<circle cx="404.706403778446" cy="-227.523902073679" r="2" style="fill: rgb(0,0,0)" />
	<circle cx="410.611862624369" cy="-450.088191587888" r="2" style="fill: rgb(0,0,0)" />
	<circle cx="363.44535755536" cy="-450.088191587896" r="2" style="fill: rgb(0,0,0)" />
	<circle cx="245.766363363951" cy="-495.139516372412" r="2" style="fill: rgb(0,0,0)" />
	<circle cx="227.062404457267" cy="-451.840080791315" r="2" style="fill: rgb(0,0,0)" />
	<circle cx="294.322031161127" cy="-496.052671653712" r="2" style="fill: rgb(0,0,0)" />
	<circle cx="247.155526092142" cy="-496.052671653704" r="2" style="fill: rgb(0,0,0)" />
	<circle cx="123.127556304347" cy="-422.115152657579" r="2" style="fill: rgb(0,0,0)" />
	<circle cx="109.854936686726" cy="-388.530039014948" r="2" style="fill: rgb(0,0,0)" />
	<circle cx="213.545449811932" cy="-486.905167531202" r="2" style="fill: rgb(0,0,0)" />
	<circle cx="172.884669580042" cy="-463.001608144434" r="2" style="fill: rgb(0,0,0)" />
	<circle cx="143.914261440205" cy="-183.101493049533" r="2" style="fill: rgb(0,0,0)" />
	<circle cx="180.014476921132" cy="-182.15453363396" r="2" style="fill: rgb(0,0,0)" />
	<circle cx="91.4577584098406" cy="-238.208786700115" r="2" style="fill: rgb(0,0,0)" />
	<circle cx="97.9634832469011" cy="-202.686992907466" r="2" style="fill: rgb(0,0,0)" />
	<circle cx="281.198413817283" cy="-132.956075381297" r="2" style="fill: rgb(0,0,0)" />
	<circle cx="306.408097561061" cy="-172.820232790714" r="2" style="fill: rgb(0,0,0)" />
	<circle cx="232.51764520865" cy="-132.270049444756" r="2" style="fill: rgb(0,0,0)" />
	<circle cx="279.684150277607" cy="-132.27004944475" r="2" style="fill: rgb(0,0,0)" />
	<circle cx="490.834360052304" cy="-309.612902126596" r="2" style="fill: rgb(0,0,0)" />
	<circle cx="478.440618800091" cy="-343.532180828776" r="2" style="fill: rgb(0,0,0)" />
	<circle cx="430.506409998907" cy="-250.329802603246" r="2" style="fill: rgb(0,0,0)" />
	<circle cx="461.147374922071" cy="-269.441410554454" r="2" style="fill: rgb(0,0,0)" />
	<circle cx="369.865284487197" cy="-156.814245360182" r="2" style="fill: rgb(0,0,0)" />
	<circle cx="410.526064719069" cy="-180.71780474694" r="2" style="fill: rgb(0,0,0)" />
	<circle cx="438.975130390338" cy="-456.362653818192" r="2" style="fill: rgb(0,0,0)" />
	<circle cx="432.469405553236" cy="-491.884447610837" r="2" style="fill: rgb(0,0,0)" />
	<circle cx="429.315821531052" cy="-493.387627168989" r="2" style="fill: rgb(0,0,0)" />
	<circle cx="382.149316462043" cy="-493.387627168996" r="2" style="fill: rgb(0,0,0)" />
	<circle cx="319.531714904905" cy="-535.916829063133" r="2" style="fill: rgb(0,0,0)" />
	<circle cx="272.365209835921" cy="-535.916829063119" r="2" style="fill: rgb(0,0,0)" />
	<circle cx="159.448640020344" cy="-459.071025443645" r="2" style="fill: rgb(0,0,0)" />
	<circle cx="113.178026352244" cy="-468.220315645652" r="2" style="fill: rgb(0,0,0)" />
	<circle cx="109.792757638139" cy="-467.357415476269" r="2" style="fill: rgb(0,0,0)" />
	<circle cx="96.5201380205191" cy="-433.772301833637" r="2" style="fill: rgb(0,0,0)" />
	<circle cx="171.610168375077" cy="-508.494780108459" r="2" style="fill: rgb(0,0,0)" />
	<circle cx="130.949388143196" cy="-484.59122072169" r="2" style="fill: rgb(0,0,0)" />
	<circle cx="134.203510396564" cy="-136.945447783586" r="2" style="fill: rgb(0,0,0)" />
	<circle cx="170.303725877485" cy="-135.998488368007" r="2" style="fill: rgb(0,0,0)" />
	<circle cx="119.293148819587" cy="-185.841095271789" r="2" style="fill: rgb(0,0,0)" />
	<circle cx="126.570734472866" cy="-139.239422045587" r="2" style="fill: rgb(0,0,0)" />
	<circle cx="55.357542928918" cy="-239.155746115713" r="2" style="fill: rgb(0,0,0)" />
	<circle cx="61.8632677659706" cy="-203.633952323071" r="2" style="fill: rgb(0,0,0)" />
	<circle cx="204.055099046325" cy="-110.043809190023" r="2" style="fill: rgb(0,0,0)" />
	<circle cx="251.221604115282" cy="-110.043809190021" r="2" style="fill: rgb(0,0,0)" />
	<circle cx="521.475324975475" cy="-328.724510077811" r="2" style="fill: rgb(0,0,0)" />
	<circle cx="509.081583723266" cy="-362.643788779988" r="2" style="fill: rgb(0,0,0)" />
	<circle cx="482.164675238268" cy="-286.406412253313" r="2" style="fill: rgb(0,0,0)" />
	<circle cx="529.13256182822" cy="-282.08242917111" r="2" style="fill: rgb(0,0,0)" />
	<circle cx="462.269214577123" cy="-215.461429458662" r="2" style="fill: rgb(0,0,0)" />
	<circle cx="492.910179500292" cy="-234.573037409856" r="2" style="fill: rgb(0,0,0)" />
	<circle cx="405.666020321878" cy="-152.078255115365" r="2" style="fill: rgb(0,0,0)" />
	<circle cx="446.326800553736" cy="-175.981814502135" r="2" style="fill: rgb(0,0,0)" />
	<circle cx="252.146987389586" cy="-578.530238707676" r="2" style="fill: rgb(0,0,0)" />
	<circle cx="226.937303645805" cy="-538.666081298257" r="2" style="fill: rgb(0,0,0)" />
	<circle cx="300.827755998236" cy="-579.216264644228" r="2" style="fill: rgb(0,0,0)" />
	<circle cx="253.661250929256" cy="-579.21626464422" r="2" style="fill: rgb(0,0,0)" />
	<circle cx="165.790507434448" cy="-555.300877435195" r="2" style="fill: rgb(0,0,0)" />
	<circle cx="125.129727202569" cy="-531.397318048428" r="2" style="fill: rgb(0,0,0)" />
	<circle cx="89.4278116451923" cy="-165.538781971003" r="2" style="fill: rgb(0,0,0)" />
	<circle cx="96.7053972984791" cy="-118.937108744808" r="2" style="fill: rgb(0,0,0)" />
	<circle cx="33.5" cy="-197.359490092786" r="2" style="fill: rgb(0,0,0)" />
	<circle cx="40.0057248370552" cy="-161.837696300148" r="2" style="fill: rgb(0,0,0)" />
	<circle cx="219.506195534452" cy="-77.4035593867739" r="2" style="fill: rgb(0,0,0)" />
	<circle cx="266.672700603415" cy="-77.4035593867766" r="2" style="fill: rgb(0,0,0)" />
	<circle cx="267.111750106448" cy="-77.615032612986" r="2" style="fill: rgb(0,0,0)" />
	<circle cx="295.574296268769" cy="-99.8412728677112" r="2" style="fill: rgb(0,0,0)" />
	<circle cx="530.518654067923" cy="-284.121020891469" r="2" style="fill: rgb(0,0,0)" />
	<circle cx="561.159618991098" cy="-303.232628842673" r="2" style="fill: rgb(0,0,0)" />
	<circle cx="561.5" cy="-303.770460514563" r="2" style="fill: rgb(0,0,0)" />
	<circle cx="549.106258747788" cy="-337.68973921674" r="2" style="fill: rgb(0,0,0)" />
	<circle cx="408.887893782806" cy="-116.10963238241" r="2" style="fill: rgb(0,0,0)" />
	<circle cx="449.548674014658" cy="-140.013191769183" r="2" style="fill: rgb(0,0,0)" />
	<circle cx="307.33348083534" cy="-614.738058436875" r="2" style="fill: rgb(0,0,0)" />
	<circle cx="260.166975766363" cy="-614.738058436866" r="2" style="fill: rgb(0,0,0)" />
	<circle cx="142.179999221706" cy="-582.626070789309" r="2" style="fill: rgb(0,0,0)" />
	<circle cx="101.519218989834" cy="-558.722511402544" r="2" style="fill: rgb(0,0,0)" />
	<circle cx="260.166975766347" cy="-53.5" r="2" style="fill: rgb(0,0,0)" />
	<circle cx="307.333480835305" cy="-53.5000000000243" r="2" style="fill: rgb(0,0,0)" />
	<!--
	Generated using the Perl SVG Module V2.84
	by Ronan Oger
	Info: http://www.roitsystems.com/
	-->
</svg>