<?xml version="1.0" encoding="UTF-8" standalone="yes"?>
<!DOCTYPE svg PUBLIC "-//W3C//DTD SVG 1.0//EN" "http://www.w3.org/TR/2001/REC-SVG-20010904/DTD/svg10.dtd">
<!-- generated using polymake; Michael Joswig, Georg Loho, Benjamin Lorenz, Rico Raber; license CC BY-NC-ND 3.0; see polymake.org and matchthenet.de -->
<svg height="841pt" id="document" viewBox="0 -585.292015749945 572 585.292015749945" width="595pt" xmlns="http://www.w3.org/2000/svg" xmlns:svg="http://www.w3.org/2000/svg" xmlns:xlink="http://www.w3.org/1999/xlink">
	<title id="document_title">planar_net_</title>
	<polygon points="264.199547890661,-288.590081939041 316.129932683025,-288.590081939041 323.079804193009,-340.053312994601 271.149419400649,-340.053312994605 " style="fill: rgb(157,116,59); fill-opacity: 1; stroke: rgb(0,0,0); stroke-width: 3" />
	<polygon points="334.324932513582,-253.98113563331 316.129932683025,-288.590081939041 264.199547890661,-288.590081939041 234.759419739484,-245.811071675528 252.954419570045,-211.202125369799 304.884804362399,-211.202125369794 " style="fill: rgb(186,145,77); fill-opacity: 1; stroke: rgb(0,0,0); stroke-width: 3" />
	<polygon points="323.079804193009,-340.053312994601 316.129932683025,-288.590081939041 347.992498230919,-265.927026100667 394.326666695643,-289.377179562115 401.276538205627,-340.840410617672 369.413972657733,-363.503466456049 " style="fill: rgb(186,145,77); fill-opacity: 1; stroke: rgb(0,0,0); stroke-width: 3" />
	<polygon points="380.659100978306,-230.530982171834 351.21897282712,-187.751971908328 399.858729972514,-140.627821257958 429.298858123707,-183.406831521448 " style="fill: rgb(157,116,59); fill-opacity: 1; stroke: rgb(0,0,0); stroke-width: 3" />
	<polygon points="369.413972657733,-363.503466456049 401.276538205627,-340.840410617672 440.530102372471,-396.027993006117 408.66753682458,-418.691048844496 " style="fill: rgb(157,116,59); fill-opacity: 1; stroke: rgb(0,0,0); stroke-width: 3" />
	<polygon points="380.659100978306,-230.530982171834 334.324932513582,-253.98113563331 304.884804362399,-211.202125369794 351.21897282712,-187.751971908328 " style="fill: rgb(157,116,59); fill-opacity: 1; stroke: rgb(0,0,0); stroke-width: 3" />
	<polygon points="351.21897282712,-187.751971908328 304.884804362399,-211.202125369794 284.760677515852,-146.537366278422 331.094845980568,-123.087212816951 " style="fill: rgb(157,116,59); fill-opacity: 1; stroke: rgb(0,0,0); stroke-width: 3" />
	<polygon points="264.199547890661,-288.590081939041 271.149419400649,-340.053312994605 206.471461022731,-360.134977510915 199.521589512732,-308.671746455363 " style="fill: rgb(157,116,59); fill-opacity: 1; stroke: rgb(0,0,0); stroke-width: 3" />
	<polygon points="252.954419570045,-211.202125369799 234.759419739484,-245.811071675528 174.814966341535,-214.296407525286 193.009966172091,-179.687461219557 " style="fill: rgb(157,116,59); fill-opacity: 1; stroke: rgb(0,0,0); stroke-width: 3" />
	<polygon points="401.276538205627,-340.840410617672 394.326666695643,-289.377179562115 448.408095002242,-330.141265005059 455.357966512218,-381.604496060609 " style="fill: rgb(157,116,59); fill-opacity: 1; stroke: rgb(0,0,0); stroke-width: 3" />
	<polygon points="351.21897282712,-187.751971908328 356.056806855602,-120.201199066011 404.696564000986,-73.0770484156562 399.858729972514,-140.627821257958 " style="fill: rgb(157,116,59); fill-opacity: 1; stroke: rgb(0,0,0); stroke-width: 3" />
	<polygon points="271.149419400649,-340.053312994605 323.079804193009,-340.053312994601 311.834675872414,-406.836983444304 259.904291080057,-406.836983444314 " style="fill: rgb(157,116,59); fill-opacity: 1; stroke: rgb(0,0,0); stroke-width: 3" />
	<polygon points="206.471461022731,-360.134977510915 171.651133507299,-418.221605416123 123.295396685521,-399.287837140731 158.115724200952,-341.201209235523 " style="fill: rgb(157,116,59); fill-opacity: 1; stroke: rgb(0,0,0); stroke-width: 3" />
	<polygon points="304.884804362399,-211.202125369794 252.954419570045,-211.202125369799 205.319291588294,-163.062680713227 257.249676380648,-163.062680713223 " style="fill: rgb(157,116,59); fill-opacity: 1; stroke: rgb(0,0,0); stroke-width: 3" />
	<polygon points="264.199547890661,-288.590081939041 197.538342063574,-276.640387911155 168.098213912404,-233.861377647644 234.759419739484,-245.811071675528 " style="fill: rgb(157,116,59); fill-opacity: 1; stroke: rgb(0,0,0); stroke-width: 3" />
	<polygon points="286.689804531821,-120.283670449713 234.759419739474,-120.283670449708 223.514291418877,-53.5 275.44467621122,-53.5000000000064 " style="fill: rgb(157,116,59); fill-opacity: 1; stroke: rgb(0,0,0); stroke-width: 3" />
	<polygon points="271.149419400649,-340.053312994605 236.32909188521,-398.139940899822 171.651133507299,-418.221605416123 206.471461022731,-360.134977510915 " style="fill: rgb(157,116,59); fill-opacity: 1; stroke: rgb(0,0,0); stroke-width: 3" />
	<polygon points="323.079804193009,-340.053312994601 369.413972657733,-363.503466456049 390.177475264368,-427.965769464748 343.843306799643,-404.5156160033 " style="fill: rgb(157,116,59); fill-opacity: 1; stroke: rgb(0,0,0); stroke-width: 3" />
	<polygon points="236.32909188521,-398.139940899822 243.278963395198,-449.603171955386 178.601005017297,-469.684836471683 171.651133507299,-418.221605416123 " style="fill: rgb(157,116,59); fill-opacity: 1; stroke: rgb(0,0,0); stroke-width: 3" />
	<polygon points="199.521589512732,-308.671746455363 206.471461022731,-360.134977510915 160.137292557999,-336.684824049467 153.187421048008,-285.221592993918 " style="fill: rgb(157,116,59); fill-opacity: 1; stroke: rgb(0,0,0); stroke-width: 3" />
	<polygon points="259.904291080057,-406.836983444314 311.834675872414,-406.836983444304 341.27480402359,-449.615993707817 289.344419231234,-449.615993707825 " style="fill: rgb(157,116,59); fill-opacity: 1; stroke: rgb(0,0,0); stroke-width: 3" />
	<polygon points="257.249676380648,-163.062680713223 205.319291588294,-163.062680713227 234.759419739474,-120.283670449708 286.689804531821,-120.283670449713 " style="fill: rgb(157,116,59); fill-opacity: 1; stroke: rgb(0,0,0); stroke-width: 3" />
	<polygon points="455.357966512218,-381.604496060609 448.408095002242,-330.141265005059 486.8622868904,-295.240835338475 493.812158400376,-346.704066394022 " style="fill: rgb(157,116,59); fill-opacity: 1; stroke: rgb(0,0,0); stroke-width: 3" />
	<polygon points="193.009966172091,-179.687461219557 174.814966341535,-214.296407525286 114.87051294358,-182.781743375051 133.06551277413,-148.172797069321 " style="fill: rgb(157,116,59); fill-opacity: 1; stroke: rgb(0,0,0); stroke-width: 3" />
	<polygon points="408.66753682458,-418.691048844496 440.530102372471,-396.027993006117 479.783666539321,-451.215575394561 447.921100991434,-473.878631232942 " style="fill: rgb(157,116,59); fill-opacity: 1; stroke: rgb(0,0,0); stroke-width: 3" />
	<polygon points="153.187421048008,-285.221592993918 160.137292557999,-336.684824049467 118.805934182855,-390.333965371084 111.856062672867,-338.870734315533 " style="fill: rgb(157,116,59); fill-opacity: 1; stroke: rgb(0,0,0); stroke-width: 3" />
	<polygon points="193.009966172091,-179.687461219557 133.06551277413,-148.172797069321 117.912009005343,-98.5025223749672 177.856462403305,-130.017186525205 " style="fill: rgb(157,116,59); fill-opacity: 1; stroke: rgb(0,0,0); stroke-width: 3" />
	<polygon points="493.812158400376,-346.704066394022 486.8622868904,-295.240835338475 554.550128490022,-297.447110313718 561.5,-348.91034136926 " style="fill: rgb(157,116,59); fill-opacity: 1; stroke: rgb(0,0,0); stroke-width: 3" />
	<polygon points="289.344419231234,-449.615993707825 341.27480402359,-449.615993707817 293.639676041837,-497.75543836439 241.709291249486,-497.755438364392 " style="fill: rgb(157,116,59); fill-opacity: 1; stroke: rgb(0,0,0); stroke-width: 3" />
	<polygon points="114.87051294358,-182.781743375051 62.9401281512113,-182.781743375086 33.5,-140.002733111603 51.694999830551,-105.393786805876 103.625384622921,-105.393786805841 133.06551277413,-148.172797069321 " style="fill: rgb(186,145,77); fill-opacity: 1; stroke: rgb(0,0,0); stroke-width: 3" />
	<polygon points="440.530102372471,-396.027993006117 491.78155637093,-404.397779605981 531.035120537765,-459.585361994415 479.783666539321,-451.215575394561 " style="fill: rgb(157,116,59); fill-opacity: 1; stroke: rgb(0,0,0); stroke-width: 3" />
	<polygon points="171.651133507299,-418.221605416123 159.359163471272,-468.676261666236 111.0034266495,-449.742493390846 123.295396685521,-399.287837140731 " style="fill: rgb(157,116,59); fill-opacity: 1; stroke: rgb(0,0,0); stroke-width: 3" />
	<polygon points="447.921100991434,-473.878631232942 479.783666539321,-451.215575394561 526.117835004054,-474.665728856008 533.067706514055,-526.128959911566 501.205140966166,-548.792015749945 454.870972501432,-525.341862288497 " style="fill: rgb(186,145,77); fill-opacity: 1; stroke: rgb(0,0,0); stroke-width: 3" />
	<polygon points="44.745128320565,-53.9305557503143 96.6755131129321,-53.9305557502766 103.625384622921,-105.393786805841 51.694999830551,-105.393786805876 " style="fill: rgb(157,116,59); fill-opacity: 1; stroke: rgb(0,0,0); stroke-width: 3" />
	<circle cx="264.199547890661" cy="-288.590081939041" r="2" style="fill: rgb(0,0,0)" />
	<circle cx="316.129932683025" cy="-288.590081939041" r="2" style="fill: rgb(0,0,0)" />
	<circle cx="323.079804193009" cy="-340.053312994601" r="2" style="fill: rgb(0,0,0)" />
	<circle cx="271.149419400649" cy="-340.053312994605" r="2" style="fill: rgb(0,0,0)" />
	<circle cx="234.759419739484" cy="-245.811071675528" r="2" style="fill: rgb(0,0,0)" />
	<circle cx="252.954419570045" cy="-211.202125369799" r="2" style="fill: rgb(0,0,0)" />
	<circle cx="304.884804362399" cy="-211.202125369794" r="2" style="fill: rgb(0,0,0)" />
	<circle cx="334.324932513582" cy="-253.98113563331" r="2" style="fill: rgb(0,0,0)" />
	<circle cx="347.992498230919" cy="-265.927026100667" r="2" style="fill: rgb(0,0,0)" />
	<circle cx="394.326666695643" cy="-289.377179562115" r="2" style="fill: rgb(0,0,0)" />
	<circle cx="401.276538205627" cy="-340.840410617672" r="2" style="fill: rgb(0,0,0)" />
	<circle cx="369.413972657733" cy="-363.503466456049" r="2" style="fill: rgb(0,0,0)" />
	<circle cx="206.471461022731" cy="-360.134977510915" r="2" style="fill: rgb(0,0,0)" />
	<circle cx="199.521589512732" cy="-308.671746455363" r="2" style="fill: rgb(0,0,0)" />
	<circle cx="311.834675872414" cy="-406.836983444304" r="2" style="fill: rgb(0,0,0)" />
	<circle cx="259.904291080057" cy="-406.836983444314" r="2" style="fill: rgb(0,0,0)" />
	<circle cx="351.21897282712" cy="-187.751971908328" r="2" style="fill: rgb(0,0,0)" />
	<circle cx="380.659100978306" cy="-230.530982171834" r="2" style="fill: rgb(0,0,0)" />
	<circle cx="174.814966341535" cy="-214.296407525286" r="2" style="fill: rgb(0,0,0)" />
	<circle cx="193.009966172091" cy="-179.687461219557" r="2" style="fill: rgb(0,0,0)" />
	<circle cx="205.319291588294" cy="-163.062680713227" r="2" style="fill: rgb(0,0,0)" />
	<circle cx="257.249676380648" cy="-163.062680713223" r="2" style="fill: rgb(0,0,0)" />
	<circle cx="197.538342063574" cy="-276.640387911155" r="2" style="fill: rgb(0,0,0)" />
	<circle cx="168.098213912404" cy="-233.861377647644" r="2" style="fill: rgb(0,0,0)" />
	<circle cx="440.530102372471" cy="-396.027993006117" r="2" style="fill: rgb(0,0,0)" />
	<circle cx="408.66753682458" cy="-418.691048844496" r="2" style="fill: rgb(0,0,0)" />
	<circle cx="448.408095002242" cy="-330.141265005059" r="2" style="fill: rgb(0,0,0)" />
	<circle cx="455.357966512218" cy="-381.604496060609" r="2" style="fill: rgb(0,0,0)" />
	<circle cx="390.177475264368" cy="-427.965769464748" r="2" style="fill: rgb(0,0,0)" />
	<circle cx="343.843306799643" cy="-404.5156160033" r="2" style="fill: rgb(0,0,0)" />
	<circle cx="236.32909188521" cy="-398.139940899822" r="2" style="fill: rgb(0,0,0)" />
	<circle cx="171.651133507299" cy="-418.221605416123" r="2" style="fill: rgb(0,0,0)" />
	<circle cx="160.137292557999" cy="-336.684824049467" r="2" style="fill: rgb(0,0,0)" />
	<circle cx="153.187421048008" cy="-285.221592993918" r="2" style="fill: rgb(0,0,0)" />
	<circle cx="341.27480402359" cy="-449.615993707817" r="2" style="fill: rgb(0,0,0)" />
	<circle cx="289.344419231234" cy="-449.615993707825" r="2" style="fill: rgb(0,0,0)" />
	<circle cx="399.858729972514" cy="-140.627821257958" r="2" style="fill: rgb(0,0,0)" />
	<circle cx="429.298858123707" cy="-183.406831521448" r="2" style="fill: rgb(0,0,0)" />
	<circle cx="284.760677515852" cy="-146.537366278422" r="2" style="fill: rgb(0,0,0)" />
	<circle cx="331.094845980568" cy="-123.087212816951" r="2" style="fill: rgb(0,0,0)" />
	<circle cx="114.87051294358" cy="-182.781743375051" r="2" style="fill: rgb(0,0,0)" />
	<circle cx="133.06551277413" cy="-148.172797069321" r="2" style="fill: rgb(0,0,0)" />
	<circle cx="234.759419739474" cy="-120.283670449708" r="2" style="fill: rgb(0,0,0)" />
	<circle cx="286.689804531821" cy="-120.283670449713" r="2" style="fill: rgb(0,0,0)" />
	<circle cx="479.783666539321" cy="-451.215575394561" r="2" style="fill: rgb(0,0,0)" />
	<circle cx="447.921100991434" cy="-473.878631232942" r="2" style="fill: rgb(0,0,0)" />
	<circle cx="486.8622868904" cy="-295.240835338475" r="2" style="fill: rgb(0,0,0)" />
	<circle cx="493.812158400376" cy="-346.704066394022" r="2" style="fill: rgb(0,0,0)" />
	<circle cx="123.295396685521" cy="-399.287837140731" r="2" style="fill: rgb(0,0,0)" />
	<circle cx="158.115724200952" cy="-341.201209235523" r="2" style="fill: rgb(0,0,0)" />
	<circle cx="243.278963395198" cy="-449.603171955386" r="2" style="fill: rgb(0,0,0)" />
	<circle cx="178.601005017297" cy="-469.684836471683" r="2" style="fill: rgb(0,0,0)" />
	<circle cx="118.805934182855" cy="-390.333965371084" r="2" style="fill: rgb(0,0,0)" />
	<circle cx="111.856062672867" cy="-338.870734315533" r="2" style="fill: rgb(0,0,0)" />
	<circle cx="293.639676041837" cy="-497.75543836439" r="2" style="fill: rgb(0,0,0)" />
	<circle cx="241.709291249486" cy="-497.755438364392" r="2" style="fill: rgb(0,0,0)" />
	<circle cx="356.056806855602" cy="-120.201199066011" r="2" style="fill: rgb(0,0,0)" />
	<circle cx="404.696564000986" cy="-73.0770484156562" r="2" style="fill: rgb(0,0,0)" />
	<circle cx="117.912009005343" cy="-98.5025223749672" r="2" style="fill: rgb(0,0,0)" />
	<circle cx="177.856462403305" cy="-130.017186525205" r="2" style="fill: rgb(0,0,0)" />
	<circle cx="62.9401281512113" cy="-182.781743375086" r="2" style="fill: rgb(0,0,0)" />
	<circle cx="33.5" cy="-140.002733111603" r="2" style="fill: rgb(0,0,0)" />
	<circle cx="51.694999830551" cy="-105.393786805876" r="2" style="fill: rgb(0,0,0)" />
	<circle cx="103.625384622921" cy="-105.393786805841" r="2" style="fill: rgb(0,0,0)" />
	<circle cx="223.514291418877" cy="-53.5" r="2" style="fill: rgb(0,0,0)" />
	<circle cx="275.44467621122" cy="-53.5000000000064" r="2" style="fill: rgb(0,0,0)" />
	<circle cx="491.78155637093" cy="-404.397779605981" r="2" style="fill: rgb(0,0,0)" />
	<circle cx="531.035120537765" cy="-459.585361994415" r="2" style="fill: rgb(0,0,0)" />
	<circle cx="526.117835004054" cy="-474.665728856008" r="2" style="fill: rgb(0,0,0)" />
	<circle cx="533.067706514055" cy="-526.128959911566" r="2" style="fill: rgb(0,0,0)" />
	<circle cx="501.205140966166" cy="-548.792015749945" r="2" style="fill: rgb(0,0,0)" />
	<circle cx="454.870972501432" cy="-525.341862288497" r="2" style="fill: rgb(0,0,0)" />
	<circle cx="554.550128490022" cy="-297.447110313718" r="2" style="fill: rgb(0,0,0)" />
	<circle cx="561.5" cy="-348.91034136926" r="2" style="fill: rgb(0,0,0)" />
	<circle cx="159.359163471272" cy="-468.676261666236" r="2" style="fill: rgb(0,0,0)" />
	<circle cx="111.0034266495" cy="-449.742493390846" r="2" style="fill: rgb(0,0,0)" />
	<circle cx="44.745128320565" cy="-53.9305557503143" r="2" style="fill: rgb(0,0,0)" />
	<circle cx="96.6755131129321" cy="-53.9305557502766" r="2" style="fill: rgb(0,0,0)" />
	<!--
	Generated using the Perl SVG Module V2.86
	by Ronan Oger
	Info: http://www.roitsystems.com/
	-->
</svg>