<?xml version="1.0" encoding="UTF-8" standalone="yes"?>
<!DOCTYPE svg PUBLIC "-//W3C//DTD SVG 1.0//EN" "http://www.w3.org/TR/2001/REC-SVG-20010904/DTD/svg10.dtd">
<!-- generated using polymake; Michael Joswig, Georg Loho, Benjamin Lorenz, Rico Raber; license CC BY-NC-ND 3.0; see polymake.org and matchthenet.de -->
<svg height="841pt" id="document" viewBox="0 -762.530541362929 572 762.530541362929" width="595pt" xmlns="http://www.w3.org/2000/svg" xmlns:svg="http://www.w3.org/2000/svg" xmlns:xlink="http://www.w3.org/1999/xlink">
	<title id="document_title">planar_net_</title>
	<polygon points="245.94473515378,-371.66973081923 293.871251691706,-371.66973081923 310.062104240508,-410.089701707285 262.135587702586,-410.089701707287 " style="fill: rgb(67,184,206); fill-opacity: 1; stroke: rgb(0,0,0); stroke-width: 3" />
	<polygon points="222.072304474995,-332.119746428973 205.881451926202,-370.539717317028 176.226005236085,-337.795225076592 192.416857784859,-299.375254188536 " style="fill: rgb(67,184,206); fill-opacity: 1; stroke: rgb(0,0,0); stroke-width: 3" />
	<polygon points="310.062104240493,-333.249759931169 293.871251691706,-371.66973081923 245.94473515378,-371.66973081923 262.135587702575,-333.249759931174 " style="fill: rgb(67,184,206); fill-opacity: 1; stroke: rgb(0,0,0); stroke-width: 3" />
	<polygon points="245.94473515378,-371.66973081923 205.881451926202,-370.539717317028 222.072304474995,-332.119746428973 262.135587702575,-333.249759931174 " style="fill: rgb(67,184,206); fill-opacity: 1; stroke: rgb(0,0,0); stroke-width: 3" />
	<polygon points="310.062104240493,-333.249759931169 262.135587702575,-333.249759931174 240.075732126817,-294.974310065086 288.002248664722,-294.974310065075 " style="fill: rgb(67,184,206); fill-opacity: 1; stroke: rgb(0,0,0); stroke-width: 3" />
	<polygon points="362.496647852848,-335.478651094526 314.570131314921,-335.47865109453 336.629986890681,-297.20320122845 384.556503428614,-297.203201228449 " style="fill: rgb(67,184,206); fill-opacity: 1; stroke: rgb(0,0,0); stroke-width: 3" />
	<polygon points="150.166505422723,-441.217051981388 166.357357971535,-479.637022869423 122.625920886769,-473.37533771485 106.43506833794,-434.955366826817 " style="fill: rgb(67,184,206); fill-opacity: 1; stroke: rgb(0,0,0); stroke-width: 3" />
	<polygon points="205.881451926195,-372.799744321462 176.226005236098,-405.544236561918 133.596668927283,-393.95169687708 163.252115617369,-361.207204636627 " style="fill: rgb(67,184,206); fill-opacity: 1; stroke: rgb(0,0,0); stroke-width: 3" />
	<polygon points="262.135587702575,-333.249759931174 222.072304474995,-332.119746428973 197.78904430074,-295.214861037148 237.852327528318,-296.344874539347 " style="fill: rgb(67,184,206); fill-opacity: 1; stroke: rgb(0,0,0); stroke-width: 3" />
	<polygon points="245.94473515378,-371.66973081923 262.135587702586,-410.089701707287 222.072304475007,-411.219715209506 205.881451926195,-372.799744321462 " style="fill: rgb(67,184,206); fill-opacity: 1; stroke: rgb(0,0,0); stroke-width: 3" />
	<polygon points="310.062104240493,-333.249759931169 288.002248664722,-294.974310065075 274.385857897778,-252.947637665799 296.445713473549,-291.223087531894 " style="fill: rgb(67,184,206); fill-opacity: 1; stroke: rgb(0,0,0); stroke-width: 3" />
	<polygon points="192.416857784859,-299.375254188536 176.226005236085,-337.795225076592 150.166505422678,-302.122409657159 166.357357971442,-263.702438769093 " style="fill: rgb(67,184,206); fill-opacity: 1; stroke: rgb(0,0,0); stroke-width: 3" />
	<polygon points="328.27544158846,-255.392661974954 296.445713473549,-291.223087531894 274.385857897778,-252.947637665799 306.215586012691,-217.117212108857 " style="fill: rgb(67,184,206); fill-opacity: 1; stroke: rgb(0,0,0); stroke-width: 3" />
	<polygon points="310.062104240508,-410.089701707285 293.871251691706,-371.66973081923 314.570131314921,-335.47865109453 330.760983863722,-373.898621982582 " style="fill: rgb(67,184,206); fill-opacity: 1; stroke: rgb(0,0,0); stroke-width: 3" />
	<polygon points="274.03781936335,-253.061996781714 226.111302825459,-253.061996781729 186.280212561933,-248.609150286836 203.847070350757,-212.584865409627 229.509354413946,-172.107734037511 277.435870951838,-172.107734037497 317.266961215363,-176.56058053239 299.70010342654,-212.584865409599 " style="fill: rgb(136,136,136); fill-opacity: 1; stroke: rgb(0,0,0); stroke-width: 3" />
	<polygon points="205.881451926195,-372.799744321462 222.072304475007,-411.219715209506 192.41685778491,-443.964207449958 176.226005236098,-405.544236561918 " style="fill: rgb(67,184,206); fill-opacity: 1; stroke: rgb(0,0,0); stroke-width: 3" />
	<polygon points="288.002248664748,-448.365151573365 310.062104240508,-410.089701707285 296.445713473565,-452.116374106568 274.385857897806,-490.39182397264 " style="fill: rgb(67,184,206); fill-opacity: 1; stroke: rgb(0,0,0); stroke-width: 3" />
	<polygon points="176.226005236098,-405.544236561918 147.377799648893,-439.002095502274 104.748463340084,-427.409555817449 133.596668927283,-393.95169687708 " style="fill: rgb(67,184,206); fill-opacity: 1; stroke: rgb(0,0,0); stroke-width: 3" />
	<polygon points="262.135587702586,-410.089701707287 310.062104240508,-410.089701707285 288.002248664748,-448.365151573365 240.075732126821,-448.365151573364 " style="fill: rgb(67,184,206); fill-opacity: 1; stroke: rgb(0,0,0); stroke-width: 3" />
	<polygon points="163.252115617369,-361.207204636627 133.596668927283,-393.95169687708 91.262673397446,-381.323153296992 120.918120087533,-348.57866105654 " style="fill: rgb(67,184,206); fill-opacity: 1; stroke: rgb(0,0,0); stroke-width: 3" />
	<polygon points="288.002248664722,-294.974310065075 240.075732126817,-294.974310065086 226.111302825459,-253.061996781729 274.03781936335,-253.061996781714 " style="fill: rgb(67,184,206); fill-opacity: 1; stroke: rgb(0,0,0); stroke-width: 3" />
	<polygon points="330.760983863722,-373.898621982582 314.570131314921,-335.47865109453 362.496647852848,-335.478651094526 378.687500401665,-373.898621982568 " style="fill: rgb(67,184,206); fill-opacity: 1; stroke: rgb(0,0,0); stroke-width: 3" />
	<polygon points="237.852327528318,-296.344874539347 197.78904430074,-295.214861037148 181.173010128279,-254.281321013667 221.236293355854,-255.411334515865 " style="fill: rgb(67,184,206); fill-opacity: 1; stroke: rgb(0,0,0); stroke-width: 3" />
	<polygon points="362.496647852848,-335.478651094526 384.556503428614,-297.203201228449 424.482985863985,-293.70754766629 402.42313028822,-331.982997532367 " style="fill: rgb(67,184,206); fill-opacity: 1; stroke: rgb(0,0,0); stroke-width: 3" />
	<polygon points="310.062104240508,-410.089701707285 330.760983863722,-373.898621982582 378.338850118078,-379.669031859092 357.639970494871,-415.860111583792 " style="fill: rgb(67,184,206); fill-opacity: 1; stroke: rgb(0,0,0); stroke-width: 3" />
	<polygon points="176.226005236098,-405.544236561918 192.41685778491,-443.964207449958 166.357357971535,-479.637022869423 150.166505422723,-441.217051981388 " style="fill: rgb(67,184,206); fill-opacity: 1; stroke: rgb(0,0,0); stroke-width: 3" />
	<polygon points="357.639970494871,-415.860111583792 378.338850118078,-379.669031859092 417.974630626668,-385.61449205689 397.275751003458,-421.805571781588 " style="fill: rgb(67,184,206); fill-opacity: 1; stroke: rgb(0,0,0); stroke-width: 3" />
	<polygon points="78.479027266083,-471.732451803355 49.6908525489092,-499.617655584975 33.5000000000765,-461.197684696951 62.288174717243,-433.312480915331 " style="fill: rgb(67,184,206); fill-opacity: 1; stroke: rgb(0,0,0); stroke-width: 3" />
	<polygon points="262.135587702586,-410.089701707287 237.852327528346,-446.994587099126 197.789044300775,-448.124600601332 222.072304475007,-411.219715209506 " style="fill: rgb(67,184,206); fill-opacity: 1; stroke: rgb(0,0,0); stroke-width: 3" />
	<polygon points="150.166505422678,-302.122409657159 106.435068337913,-308.384094811791 122.625920886672,-269.964123923731 166.357357971442,-263.702438769093 " style="fill: rgb(67,184,206); fill-opacity: 1; stroke: rgb(0,0,0); stroke-width: 3" />
	<polygon points="62.2881747172304,-310.026980723367 33.5,-282.141776941815 49.6908525487468,-243.721806053763 78.4790272659876,-271.607009835309 " style="fill: rgb(67,184,206); fill-opacity: 1; stroke: rgb(0,0,0); stroke-width: 3" />
	<polygon points="310.062104240508,-410.089701707285 357.639970494871,-415.860111583792 374.930937669238,-456.513152609646 327.353071414887,-450.742742733148 " style="fill: rgb(67,184,206); fill-opacity: 1; stroke: rgb(0,0,0); stroke-width: 3" />
	<polygon points="274.385857897806,-490.39182397264 296.445713473565,-452.116374106568 328.275441588478,-487.946799663503 306.215586012736,-526.222249529577 " style="fill: rgb(67,184,206); fill-opacity: 1; stroke: rgb(0,0,0); stroke-width: 3" />
	<polygon points="203.847070350757,-212.584865409627 186.280212561933,-248.609150286836 157.709563977631,-214.913967694266 175.276421766441,-178.889682817054 " style="fill: rgb(67,184,206); fill-opacity: 1; stroke: rgb(0,0,0); stroke-width: 3" />
	<polygon points="277.435870951838,-172.107734037497 229.509354413946,-172.107734037511 215.544925112591,-130.195420754148 263.471441650481,-130.195420754147 " style="fill: rgb(67,184,206); fill-opacity: 1; stroke: rgb(0,0,0); stroke-width: 3" />
	<polygon points="378.687500401665,-373.898621982568 362.496647852848,-335.478651094526 402.559931080428,-334.348637592293 418.75078362925,-372.768608480323 " style="fill: rgb(67,184,206); fill-opacity: 1; stroke: rgb(0,0,0); stroke-width: 3" />
	<polygon points="157.709563977875,-528.425493944376 175.276421766944,-564.449778821484 153.829150536996,-603.071817183846 136.262292747928,-567.047532306739 " style="fill: rgb(67,184,206); fill-opacity: 1; stroke: rgb(0,0,0); stroke-width: 3" />
	<polygon points="133.596668927283,-393.95169687708 104.748463340084,-427.409555817449 61.8491354198462,-416.859913431733 90.6973410070394,-383.402054491366 " style="fill: rgb(67,184,206); fill-opacity: 1; stroke: rgb(0,0,0); stroke-width: 3" />
	<polygon points="240.075732126821,-448.365151573364 288.002248664748,-448.365151573365 274.037819363398,-490.277464856718 226.111302825478,-490.277464856723 " style="fill: rgb(67,184,206); fill-opacity: 1; stroke: rgb(0,0,0); stroke-width: 3" />
	<polygon points="344.985378675927,-145.416926238482 317.266961215363,-176.56058053239 304.107310188576,-134.388660071873 331.82572764914,-103.245005777966 " style="fill: rgb(67,184,206); fill-opacity: 1; stroke: rgb(0,0,0); stroke-width: 3" />
	<polygon points="226.111302825478,-490.277464856723 274.037819363398,-490.277464856718 299.700103426864,-530.754596228725 317.266961215932,-566.778881105839 277.435870952412,-571.231727600732 229.509354414493,-571.231727600732 203.847070351026,-530.754596228724 186.280212561958,-494.73031135161 " style="fill: rgb(136,136,136); fill-opacity: 1; stroke: rgb(0,0,0); stroke-width: 3" />
	<polygon points="357.639970494871,-415.860111583792 397.275751003458,-421.805571781588 416.938965810404,-461.36571932846 377.303185301818,-455.420259130665 " style="fill: rgb(67,184,206); fill-opacity: 1; stroke: rgb(0,0,0); stroke-width: 3" />
	<polygon points="418.75078362925,-372.768608480323 402.559931080428,-334.348637592293 432.215377770514,-301.60414535183 448.406230319336,-340.024116239856 " style="fill: rgb(67,184,206); fill-opacity: 1; stroke: rgb(0,0,0); stroke-width: 3" />
	<polygon points="237.852327528346,-446.994587099126 221.236293355895,-487.92812712261 181.173010128326,-489.058140624832 197.789044300775,-448.124600601332 " style="fill: rgb(67,184,206); fill-opacity: 1; stroke: rgb(0,0,0); stroke-width: 3" />
	<polygon points="106.435068337913,-308.384094811791 62.2881747172304,-310.026980723367 78.4790272659876,-271.607009835309 122.625920886672,-269.964123923731 " style="fill: rgb(67,184,206); fill-opacity: 1; stroke: rgb(0,0,0); stroke-width: 3" />
	<polygon points="328.27544158846,-255.392661974954 306.215586012691,-217.117212108857 329.962184650854,-184.830331698906 352.022040226622,-223.105781565002 " style="fill: rgb(67,184,206); fill-opacity: 1; stroke: rgb(0,0,0); stroke-width: 3" />
	<polygon points="448.406230319336,-340.024116239856 432.215377770514,-301.60414535183 458.27487758388,-265.931329932356 474.465730132699,-304.351300820377 " style="fill: rgb(67,184,206); fill-opacity: 1; stroke: rgb(0,0,0); stroke-width: 3" />
	<polygon points="317.266961215363,-176.56058053239 277.435870951838,-172.107734037497 264.276219925056,-129.935813576985 304.107310188576,-134.388660071873 " style="fill: rgb(67,184,206); fill-opacity: 1; stroke: rgb(0,0,0); stroke-width: 3" />
	<polygon points="186.280212561958,-494.73031135161 203.847070351026,-530.754596228724 175.276421766944,-564.449778821484 157.709563977875,-528.425493944376 " style="fill: rgb(67,184,206); fill-opacity: 1; stroke: rgb(0,0,0); stroke-width: 3" />
	<polygon points="418.75078362925,-372.768608480323 448.406230319336,-340.024116239856 491.035566628158,-351.616655924679 461.380119938082,-384.361148165142 " style="fill: rgb(67,184,206); fill-opacity: 1; stroke: rgb(0,0,0); stroke-width: 3" />
	<polygon points="229.509354413946,-172.107734037511 203.847070350757,-212.584865409627 175.926596341123,-178.349000858666 201.5888804043,-137.871869486555 " style="fill: rgb(67,184,206); fill-opacity: 1; stroke: rgb(0,0,0); stroke-width: 3" />
	<polygon points="277.435870952412,-571.231727600732 317.266961215932,-566.778881105839 304.107310189152,-608.950801566351 264.276219925637,-613.403648061256 " style="fill: rgb(67,184,206); fill-opacity: 1; stroke: rgb(0,0,0); stroke-width: 3" />
	<polygon points="175.276421766441,-178.889682817054 157.709563977631,-214.913967694266 136.262292747416,-176.291929332059 153.829150536237,-140.26764445487 " style="fill: rgb(67,184,206); fill-opacity: 1; stroke: rgb(0,0,0); stroke-width: 3" />
	<polygon points="304.107310189152,-608.950801566351 317.266961215932,-566.778881105839 344.985378676493,-597.922535399744 331.825727649713,-640.094455860258 " style="fill: rgb(67,184,206); fill-opacity: 1; stroke: rgb(0,0,0); stroke-width: 3" />
	<polygon points="215.544925113154,-613.144040884094 263.471441651064,-613.144040884087 241.411586075301,-651.419490750169 193.485069537387,-651.419490750166 " style="fill: rgb(67,184,206); fill-opacity: 1; stroke: rgb(0,0,0); stroke-width: 3" />
	<polygon points="106.43506833794,-434.955366826817 122.625920886769,-473.37533771485 78.479027266083,-471.732451803355 62.288174717243,-433.312480915331 " style="fill: rgb(67,184,206); fill-opacity: 1; stroke: rgb(0,0,0); stroke-width: 3" />
	<polygon points="397.275751003458,-421.805571781588 417.974630626668,-385.61449205689 443.471867296117,-421.691329677399 422.772987672925,-457.8824094021 " style="fill: rgb(67,184,206); fill-opacity: 1; stroke: rgb(0,0,0); stroke-width: 3" />
	<polygon points="306.215586012736,-526.222249529577 328.275441588478,-487.946799663503 352.022040226656,-520.23368007344 329.962184650921,-558.509129939506 " style="fill: rgb(67,184,206); fill-opacity: 1; stroke: rgb(0,0,0); stroke-width: 3" />
	<polygon points="461.380119938082,-384.361148165142 491.035566628158,-351.616655924679 533.369562158003,-364.245199504753 503.714115467923,-396.989691745216 " style="fill: rgb(67,184,206); fill-opacity: 1; stroke: rgb(0,0,0); stroke-width: 3" />
	<polygon points="201.5888804043,-137.871869486555 175.926596341123,-178.349000858666 155.412396616189,-139.223371149739 181.074680679372,-98.7462397776324 " style="fill: rgb(67,184,206); fill-opacity: 1; stroke: rgb(0,0,0); stroke-width: 3" />
	<polygon points="155.412396616908,-604.116090488905 181.074680680371,-644.593221860931 139.957057105083,-651.490967928807 114.294773041623,-611.013836556784 " style="fill: rgb(67,184,206); fill-opacity: 1; stroke: rgb(0,0,0); stroke-width: 3" />
	<polygon points="331.82572764914,-103.245005777966 304.107310188576,-134.388660071873 286.599347029915,-93.8285994640616 314.317764490462,-62.684945170151 " style="fill: rgb(67,184,206); fill-opacity: 1; stroke: rgb(0,0,0); stroke-width: 3" />
	<polygon points="263.471441650481,-130.195420754147 215.544925112591,-130.195420754148 193.485069536836,-91.9199708880569 241.411586074724,-91.9199708880666 " style="fill: rgb(67,184,206); fill-opacity: 1; stroke: rgb(0,0,0); stroke-width: 3" />
	<polygon points="175.926596341608,-564.99046077986 201.588880405073,-605.467592151879 181.074680680371,-644.593221860931 155.412396616908,-604.116090488905 " style="fill: rgb(67,184,206); fill-opacity: 1; stroke: rgb(0,0,0); stroke-width: 3" />
	<polygon points="448.406230319336,-340.024116239856 474.465730132699,-304.351300820377 517.890309641898,-312.472457445141 491.830809828531,-348.145272864622 " style="fill: rgb(67,184,206); fill-opacity: 1; stroke: rgb(0,0,0); stroke-width: 3" />
	<polygon points="264.276219925637,-613.403648061256 304.107310189152,-608.950801566351 282.972384742272,-647.744644078134 243.14129447876,-652.197490573013 " style="fill: rgb(67,184,206); fill-opacity: 1; stroke: rgb(0,0,0); stroke-width: 3" />
	<polygon points="229.509354413946,-172.107734037511 207.132857679805,-134.016531846177 193.168428378452,-92.1042185628226 215.544925112591,-130.195420754148 " style="fill: rgb(67,184,206); fill-opacity: 1; stroke: rgb(0,0,0); stroke-width: 3" />
	<polygon points="304.107310188576,-134.388660071873 264.276219925056,-129.935813576985 243.141294478161,-91.1419710652023 282.972384741676,-95.5948175600941 " style="fill: rgb(67,184,206); fill-opacity: 1; stroke: rgb(0,0,0); stroke-width: 3" />
	<polygon points="229.509354414493,-571.231727600732 277.435870952412,-571.231727600732 263.471441651064,-613.144040884087 215.544925113154,-613.144040884094 " style="fill: rgb(67,184,206); fill-opacity: 1; stroke: rgb(0,0,0); stroke-width: 3" />
	<polygon points="203.847070351026,-530.754596228724 229.509354414493,-571.231727600732 201.588880405073,-605.467592151879 175.926596341608,-564.99046077986 " style="fill: rgb(67,184,206); fill-opacity: 1; stroke: rgb(0,0,0); stroke-width: 3" />
	<polygon points="243.14129447876,-652.197490573013 282.972384742272,-647.744644078134 302.297601370525,-684.68749009151 262.466511107015,-689.140336586378 " style="fill: rgb(67,184,206); fill-opacity: 1; stroke: rgb(0,0,0); stroke-width: 3" />
	<polygon points="422.772987672925,-457.8824094021 443.471867296117,-421.691329677399 465.046742856702,-460.242231547771 444.347863233519,-496.433311272484 " style="fill: rgb(67,184,206); fill-opacity: 1; stroke: rgb(0,0,0); stroke-width: 3" />
	<polygon points="193.485069537387,-651.419490750166 209.675922086195,-689.839461638226 188.977042462984,-726.030541362929 172.786189914176,-687.610570474871 " style="fill: rgb(67,184,206); fill-opacity: 1; stroke: rgb(0,0,0); stroke-width: 3" />
	<polygon points="491.830809828531,-348.145272864622 517.890309641898,-312.472457445141 561.5,-319.532358106284 535.440500186635,-355.205173525761 " style="fill: rgb(67,184,206); fill-opacity: 1; stroke: rgb(0,0,0); stroke-width: 3" />
	<polygon points="114.294773040858,-132.325625082109 139.957057104035,-91.8484937100059 181.074680679372,-98.7462397776324 155.412396616189,-139.223371149739 " style="fill: rgb(67,184,206); fill-opacity: 1; stroke: rgb(0,0,0); stroke-width: 3" />
	<polygon points="304.107310189152,-608.950801566351 331.825727649713,-640.094455860258 314.317764491051,-680.654516468069 286.599347030491,-649.510862174163 " style="fill: rgb(67,184,206); fill-opacity: 1; stroke: rgb(0,0,0); stroke-width: 3" />
	<polygon points="209.675922085629,-53.5 257.602438623508,-53.500000000012 241.411586074724,-91.9199708880666 193.485069536836,-91.9199708880569 " style="fill: rgb(67,184,206); fill-opacity: 1; stroke: rgb(0,0,0); stroke-width: 3" />
	<polygon points="229.509354414493,-571.231727600732 215.544925113154,-613.144040884094 193.168428379027,-651.23524307544 207.132857680366,-609.322929792074 " style="fill: rgb(67,184,206); fill-opacity: 1; stroke: rgb(0,0,0); stroke-width: 3" />
	<polygon points="262.466511106421,-54.1991250518417 302.297601369931,-58.6519715467223 282.972384741676,-95.5948175600941 243.141294478161,-91.1419710652023 " style="fill: rgb(67,184,206); fill-opacity: 1; stroke: rgb(0,0,0); stroke-width: 3" />
	<polygon points="193.485069537387,-651.419490750166 241.411586075301,-651.419490750169 257.602438624103,-689.839461638226 209.675922086195,-689.839461638226 " style="fill: rgb(67,184,206); fill-opacity: 1; stroke: rgb(0,0,0); stroke-width: 3" />
	<circle cx="245.94473515378" cy="-371.66973081923" r="2" style="fill: rgb(0,0,0)" />
	<circle cx="293.871251691706" cy="-371.66973081923" r="2" style="fill: rgb(0,0,0)" />
	<circle cx="310.062104240508" cy="-410.089701707285" r="2" style="fill: rgb(0,0,0)" />
	<circle cx="262.135587702586" cy="-410.089701707287" r="2" style="fill: rgb(0,0,0)" />
	<circle cx="262.135587702575" cy="-333.249759931174" r="2" style="fill: rgb(0,0,0)" />
	<circle cx="310.062104240493" cy="-333.249759931169" r="2" style="fill: rgb(0,0,0)" />
	<circle cx="222.072304475007" cy="-411.219715209506" r="2" style="fill: rgb(0,0,0)" />
	<circle cx="205.881451926195" cy="-372.799744321462" r="2" style="fill: rgb(0,0,0)" />
	<circle cx="314.570131314921" cy="-335.47865109453" r="2" style="fill: rgb(0,0,0)" />
	<circle cx="330.760983863722" cy="-373.898621982582" r="2" style="fill: rgb(0,0,0)" />
	<circle cx="288.002248664748" cy="-448.365151573365" r="2" style="fill: rgb(0,0,0)" />
	<circle cx="240.075732126821" cy="-448.365151573364" r="2" style="fill: rgb(0,0,0)" />
	<circle cx="205.881451926202" cy="-370.539717317028" r="2" style="fill: rgb(0,0,0)" />
	<circle cx="222.072304474995" cy="-332.119746428973" r="2" style="fill: rgb(0,0,0)" />
	<circle cx="240.075732126817" cy="-294.974310065086" r="2" style="fill: rgb(0,0,0)" />
	<circle cx="288.002248664722" cy="-294.974310065075" r="2" style="fill: rgb(0,0,0)" />
	<circle cx="192.41685778491" cy="-443.964207449958" r="2" style="fill: rgb(0,0,0)" />
	<circle cx="176.226005236098" cy="-405.544236561918" r="2" style="fill: rgb(0,0,0)" />
	<circle cx="237.852327528346" cy="-446.994587099126" r="2" style="fill: rgb(0,0,0)" />
	<circle cx="197.789044300775" cy="-448.124600601332" r="2" style="fill: rgb(0,0,0)" />
	<circle cx="362.496647852848" cy="-335.478651094526" r="2" style="fill: rgb(0,0,0)" />
	<circle cx="378.687500401665" cy="-373.898621982568" r="2" style="fill: rgb(0,0,0)" />
	<circle cx="378.338850118078" cy="-379.669031859092" r="2" style="fill: rgb(0,0,0)" />
	<circle cx="357.639970494871" cy="-415.860111583792" r="2" style="fill: rgb(0,0,0)" />
	<circle cx="296.445713473565" cy="-452.116374106568" r="2" style="fill: rgb(0,0,0)" />
	<circle cx="274.385857897806" cy="-490.39182397264" r="2" style="fill: rgb(0,0,0)" />
	<circle cx="274.037819363398" cy="-490.277464856718" r="2" style="fill: rgb(0,0,0)" />
	<circle cx="226.111302825478" cy="-490.277464856723" r="2" style="fill: rgb(0,0,0)" />
	<circle cx="176.226005236085" cy="-337.795225076592" r="2" style="fill: rgb(0,0,0)" />
	<circle cx="192.416857784859" cy="-299.375254188536" r="2" style="fill: rgb(0,0,0)" />
	<circle cx="197.78904430074" cy="-295.214861037148" r="2" style="fill: rgb(0,0,0)" />
	<circle cx="237.852327528318" cy="-296.344874539347" r="2" style="fill: rgb(0,0,0)" />
	<circle cx="274.385857897778" cy="-252.947637665799" r="2" style="fill: rgb(0,0,0)" />
	<circle cx="296.445713473549" cy="-291.223087531894" r="2" style="fill: rgb(0,0,0)" />
	<circle cx="226.111302825459" cy="-253.061996781729" r="2" style="fill: rgb(0,0,0)" />
	<circle cx="274.03781936335" cy="-253.061996781714" r="2" style="fill: rgb(0,0,0)" />
	<circle cx="133.596668927283" cy="-393.95169687708" r="2" style="fill: rgb(0,0,0)" />
	<circle cx="163.252115617369" cy="-361.207204636627" r="2" style="fill: rgb(0,0,0)" />
	<circle cx="166.357357971535" cy="-479.637022869423" r="2" style="fill: rgb(0,0,0)" />
	<circle cx="150.166505422723" cy="-441.217051981388" r="2" style="fill: rgb(0,0,0)" />
	<circle cx="221.236293355895" cy="-487.92812712261" r="2" style="fill: rgb(0,0,0)" />
	<circle cx="181.173010128326" cy="-489.058140624832" r="2" style="fill: rgb(0,0,0)" />
	<circle cx="336.629986890681" cy="-297.20320122845" r="2" style="fill: rgb(0,0,0)" />
	<circle cx="384.556503428614" cy="-297.203201228449" r="2" style="fill: rgb(0,0,0)" />
	<circle cx="402.559931080428" cy="-334.348637592293" r="2" style="fill: rgb(0,0,0)" />
	<circle cx="418.75078362925" cy="-372.768608480323" r="2" style="fill: rgb(0,0,0)" />
	<circle cx="417.974630626668" cy="-385.61449205689" r="2" style="fill: rgb(0,0,0)" />
	<circle cx="397.275751003458" cy="-421.805571781588" r="2" style="fill: rgb(0,0,0)" />
	<circle cx="374.930937669238" cy="-456.513152609646" r="2" style="fill: rgb(0,0,0)" />
	<circle cx="327.353071414887" cy="-450.742742733148" r="2" style="fill: rgb(0,0,0)" />
	<circle cx="328.275441588478" cy="-487.946799663503" r="2" style="fill: rgb(0,0,0)" />
	<circle cx="306.215586012736" cy="-526.222249529577" r="2" style="fill: rgb(0,0,0)" />
	<circle cx="299.700103426864" cy="-530.754596228725" r="2" style="fill: rgb(0,0,0)" />
	<circle cx="317.266961215932" cy="-566.778881105839" r="2" style="fill: rgb(0,0,0)" />
	<circle cx="277.435870952412" cy="-571.231727600732" r="2" style="fill: rgb(0,0,0)" />
	<circle cx="229.509354414493" cy="-571.231727600732" r="2" style="fill: rgb(0,0,0)" />
	<circle cx="203.847070351026" cy="-530.754596228724" r="2" style="fill: rgb(0,0,0)" />
	<circle cx="186.280212561958" cy="-494.73031135161" r="2" style="fill: rgb(0,0,0)" />
	<circle cx="150.166505422678" cy="-302.122409657159" r="2" style="fill: rgb(0,0,0)" />
	<circle cx="166.357357971442" cy="-263.702438769093" r="2" style="fill: rgb(0,0,0)" />
	<circle cx="181.173010128279" cy="-254.281321013667" r="2" style="fill: rgb(0,0,0)" />
	<circle cx="221.236293355854" cy="-255.411334515865" r="2" style="fill: rgb(0,0,0)" />
	<circle cx="306.215586012691" cy="-217.117212108857" r="2" style="fill: rgb(0,0,0)" />
	<circle cx="328.27544158846" cy="-255.392661974954" r="2" style="fill: rgb(0,0,0)" />
	<circle cx="186.280212561933" cy="-248.609150286836" r="2" style="fill: rgb(0,0,0)" />
	<circle cx="203.847070350757" cy="-212.584865409627" r="2" style="fill: rgb(0,0,0)" />
	<circle cx="229.509354413946" cy="-172.107734037511" r="2" style="fill: rgb(0,0,0)" />
	<circle cx="277.435870951838" cy="-172.107734037497" r="2" style="fill: rgb(0,0,0)" />
	<circle cx="317.266961215363" cy="-176.56058053239" r="2" style="fill: rgb(0,0,0)" />
	<circle cx="299.70010342654" cy="-212.584865409599" r="2" style="fill: rgb(0,0,0)" />
	<circle cx="147.377799648893" cy="-439.002095502274" r="2" style="fill: rgb(0,0,0)" />
	<circle cx="104.748463340084" cy="-427.409555817449" r="2" style="fill: rgb(0,0,0)" />
	<circle cx="91.262673397446" cy="-381.323153296992" r="2" style="fill: rgb(0,0,0)" />
	<circle cx="120.918120087533" cy="-348.57866105654" r="2" style="fill: rgb(0,0,0)" />
	<circle cx="122.625920886769" cy="-473.37533771485" r="2" style="fill: rgb(0,0,0)" />
	<circle cx="106.43506833794" cy="-434.955366826817" r="2" style="fill: rgb(0,0,0)" />
	<circle cx="424.482985863985" cy="-293.70754766629" r="2" style="fill: rgb(0,0,0)" />
	<circle cx="402.42313028822" cy="-331.982997532367" r="2" style="fill: rgb(0,0,0)" />
	<circle cx="432.215377770514" cy="-301.60414535183" r="2" style="fill: rgb(0,0,0)" />
	<circle cx="448.406230319336" cy="-340.024116239856" r="2" style="fill: rgb(0,0,0)" />
	<circle cx="416.938965810404" cy="-461.36571932846" r="2" style="fill: rgb(0,0,0)" />
	<circle cx="377.303185301818" cy="-455.420259130665" r="2" style="fill: rgb(0,0,0)" />
	<circle cx="443.471867296117" cy="-421.691329677399" r="2" style="fill: rgb(0,0,0)" />
	<circle cx="422.772987672925" cy="-457.8824094021" r="2" style="fill: rgb(0,0,0)" />
	<circle cx="352.022040226656" cy="-520.23368007344" r="2" style="fill: rgb(0,0,0)" />
	<circle cx="329.962184650921" cy="-558.509129939506" r="2" style="fill: rgb(0,0,0)" />
	<circle cx="175.276421766944" cy="-564.449778821484" r="2" style="fill: rgb(0,0,0)" />
	<circle cx="157.709563977875" cy="-528.425493944376" r="2" style="fill: rgb(0,0,0)" />
	<circle cx="304.107310189152" cy="-608.950801566351" r="2" style="fill: rgb(0,0,0)" />
	<circle cx="264.276219925637" cy="-613.403648061256" r="2" style="fill: rgb(0,0,0)" />
	<circle cx="263.471441651064" cy="-613.144040884087" r="2" style="fill: rgb(0,0,0)" />
	<circle cx="215.544925113154" cy="-613.144040884094" r="2" style="fill: rgb(0,0,0)" />
	<circle cx="201.588880405073" cy="-605.467592151879" r="2" style="fill: rgb(0,0,0)" />
	<circle cx="175.926596341608" cy="-564.99046077986" r="2" style="fill: rgb(0,0,0)" />
	<circle cx="106.435068337913" cy="-308.384094811791" r="2" style="fill: rgb(0,0,0)" />
	<circle cx="122.625920886672" cy="-269.964123923731" r="2" style="fill: rgb(0,0,0)" />
	<circle cx="329.962184650854" cy="-184.830331698906" r="2" style="fill: rgb(0,0,0)" />
	<circle cx="352.022040226622" cy="-223.105781565002" r="2" style="fill: rgb(0,0,0)" />
	<circle cx="157.709563977631" cy="-214.913967694266" r="2" style="fill: rgb(0,0,0)" />
	<circle cx="175.276421766441" cy="-178.889682817054" r="2" style="fill: rgb(0,0,0)" />
	<circle cx="215.544925112591" cy="-130.195420754148" r="2" style="fill: rgb(0,0,0)" />
	<circle cx="263.471441650481" cy="-130.195420754147" r="2" style="fill: rgb(0,0,0)" />
	<circle cx="264.276219925056" cy="-129.935813576985" r="2" style="fill: rgb(0,0,0)" />
	<circle cx="304.107310188576" cy="-134.388660071873" r="2" style="fill: rgb(0,0,0)" />
	<circle cx="175.926596341123" cy="-178.349000858666" r="2" style="fill: rgb(0,0,0)" />
	<circle cx="201.5888804043" cy="-137.871869486555" r="2" style="fill: rgb(0,0,0)" />
	<circle cx="61.8491354198462" cy="-416.859913431733" r="2" style="fill: rgb(0,0,0)" />
	<circle cx="90.6973410070394" cy="-383.402054491366" r="2" style="fill: rgb(0,0,0)" />
	<circle cx="78.479027266083" cy="-471.732451803355" r="2" style="fill: rgb(0,0,0)" />
	<circle cx="62.288174717243" cy="-433.312480915331" r="2" style="fill: rgb(0,0,0)" />
	<circle cx="458.27487758388" cy="-265.931329932356" r="2" style="fill: rgb(0,0,0)" />
	<circle cx="474.465730132699" cy="-304.351300820377" r="2" style="fill: rgb(0,0,0)" />
	<circle cx="491.035566628158" cy="-351.616655924679" r="2" style="fill: rgb(0,0,0)" />
	<circle cx="461.380119938082" cy="-384.361148165142" r="2" style="fill: rgb(0,0,0)" />
	<circle cx="465.046742856702" cy="-460.242231547771" r="2" style="fill: rgb(0,0,0)" />
	<circle cx="444.347863233519" cy="-496.433311272484" r="2" style="fill: rgb(0,0,0)" />
	<circle cx="153.829150536996" cy="-603.071817183846" r="2" style="fill: rgb(0,0,0)" />
	<circle cx="136.262292747928" cy="-567.047532306739" r="2" style="fill: rgb(0,0,0)" />
	<circle cx="344.985378676493" cy="-597.922535399744" r="2" style="fill: rgb(0,0,0)" />
	<circle cx="331.825727649713" cy="-640.094455860258" r="2" style="fill: rgb(0,0,0)" />
	<circle cx="282.972384742272" cy="-647.744644078134" r="2" style="fill: rgb(0,0,0)" />
	<circle cx="243.14129447876" cy="-652.197490573013" r="2" style="fill: rgb(0,0,0)" />
	<circle cx="241.411586075301" cy="-651.419490750169" r="2" style="fill: rgb(0,0,0)" />
	<circle cx="193.485069537387" cy="-651.419490750166" r="2" style="fill: rgb(0,0,0)" />
	<circle cx="193.168428379027" cy="-651.23524307544" r="2" style="fill: rgb(0,0,0)" />
	<circle cx="207.132857680366" cy="-609.322929792074" r="2" style="fill: rgb(0,0,0)" />
	<circle cx="181.074680680371" cy="-644.593221860931" r="2" style="fill: rgb(0,0,0)" />
	<circle cx="155.412396616908" cy="-604.116090488905" r="2" style="fill: rgb(0,0,0)" />
	<circle cx="62.2881747172304" cy="-310.026980723367" r="2" style="fill: rgb(0,0,0)" />
	<circle cx="78.4790272659876" cy="-271.607009835309" r="2" style="fill: rgb(0,0,0)" />
	<circle cx="136.262292747416" cy="-176.291929332059" r="2" style="fill: rgb(0,0,0)" />
	<circle cx="153.829150536237" cy="-140.26764445487" r="2" style="fill: rgb(0,0,0)" />
	<circle cx="193.485069536836" cy="-91.9199708880569" r="2" style="fill: rgb(0,0,0)" />
	<circle cx="241.411586074724" cy="-91.9199708880666" r="2" style="fill: rgb(0,0,0)" />
	<circle cx="207.132857679805" cy="-134.016531846177" r="2" style="fill: rgb(0,0,0)" />
	<circle cx="193.168428378452" cy="-92.1042185628226" r="2" style="fill: rgb(0,0,0)" />
	<circle cx="331.82572764914" cy="-103.245005777966" r="2" style="fill: rgb(0,0,0)" />
	<circle cx="344.985378675927" cy="-145.416926238482" r="2" style="fill: rgb(0,0,0)" />
	<circle cx="243.141294478161" cy="-91.1419710652023" r="2" style="fill: rgb(0,0,0)" />
	<circle cx="282.972384741676" cy="-95.5948175600941" r="2" style="fill: rgb(0,0,0)" />
	<circle cx="155.412396616189" cy="-139.223371149739" r="2" style="fill: rgb(0,0,0)" />
	<circle cx="181.074680679372" cy="-98.7462397776324" r="2" style="fill: rgb(0,0,0)" />
	<circle cx="49.6908525489092" cy="-499.617655584975" r="2" style="fill: rgb(0,0,0)" />
	<circle cx="33.5000000000765" cy="-461.197684696951" r="2" style="fill: rgb(0,0,0)" />
	<circle cx="517.890309641898" cy="-312.472457445141" r="2" style="fill: rgb(0,0,0)" />
	<circle cx="491.830809828531" cy="-348.145272864622" r="2" style="fill: rgb(0,0,0)" />
	<circle cx="533.369562158003" cy="-364.245199504753" r="2" style="fill: rgb(0,0,0)" />
	<circle cx="503.714115467923" cy="-396.989691745216" r="2" style="fill: rgb(0,0,0)" />
	<circle cx="314.317764491051" cy="-680.654516468069" r="2" style="fill: rgb(0,0,0)" />
	<circle cx="286.599347030491" cy="-649.510862174163" r="2" style="fill: rgb(0,0,0)" />
	<circle cx="302.297601370525" cy="-684.68749009151" r="2" style="fill: rgb(0,0,0)" />
	<circle cx="262.466511107015" cy="-689.140336586378" r="2" style="fill: rgb(0,0,0)" />
	<circle cx="257.602438624103" cy="-689.839461638226" r="2" style="fill: rgb(0,0,0)" />
	<circle cx="209.675922086195" cy="-689.839461638226" r="2" style="fill: rgb(0,0,0)" />
	<circle cx="139.957057105083" cy="-651.490967928807" r="2" style="fill: rgb(0,0,0)" />
	<circle cx="114.294773041623" cy="-611.013836556784" r="2" style="fill: rgb(0,0,0)" />
	<circle cx="33.5" cy="-282.141776941815" r="2" style="fill: rgb(0,0,0)" />
	<circle cx="49.6908525487468" cy="-243.721806053763" r="2" style="fill: rgb(0,0,0)" />
	<circle cx="209.675922085629" cy="-53.5" r="2" style="fill: rgb(0,0,0)" />
	<circle cx="257.602438623508" cy="-53.500000000012" r="2" style="fill: rgb(0,0,0)" />
	<circle cx="286.599347029915" cy="-93.8285994640616" r="2" style="fill: rgb(0,0,0)" />
	<circle cx="314.317764490462" cy="-62.684945170151" r="2" style="fill: rgb(0,0,0)" />
	<circle cx="262.466511106421" cy="-54.1991250518417" r="2" style="fill: rgb(0,0,0)" />
	<circle cx="302.297601369931" cy="-58.6519715467223" r="2" style="fill: rgb(0,0,0)" />
	<circle cx="114.294773040858" cy="-132.325625082109" r="2" style="fill: rgb(0,0,0)" />
	<circle cx="139.957057104035" cy="-91.8484937100059" r="2" style="fill: rgb(0,0,0)" />
	<circle cx="561.5" cy="-319.532358106284" r="2" style="fill: rgb(0,0,0)" />
	<circle cx="535.440500186635" cy="-355.205173525761" r="2" style="fill: rgb(0,0,0)" />
	<circle cx="188.977042462984" cy="-726.030541362929" r="2" style="fill: rgb(0,0,0)" />
	<circle cx="172.786189914176" cy="-687.610570474871" r="2" style="fill: rgb(0,0,0)" />
	<!--
	Generated using the Perl SVG Module V2.84
	by Ronan Oger
	Info: http://www.roitsystems.com/
	-->
</svg>