<?xml version="1.0" encoding="UTF-8" standalone="yes"?>
<!DOCTYPE svg PUBLIC "-//W3C//DTD SVG 1.0//EN" "http://www.w3.org/TR/2001/REC-SVG-20010904/DTD/svg10.dtd">
<!-- generated using polymake; Michael Joswig, Georg Loho, Benjamin Lorenz, Rico Raber; license CC BY-NC-ND 3.0; see polymake.org and matchthenet.de -->
<svg height="841pt" id="document" viewBox="0 -525.218084564602 572 525.218084564602" width="595pt" xmlns="http://www.w3.org/2000/svg" xmlns:svg="http://www.w3.org/2000/svg" xmlns:xlink="http://www.w3.org/1999/xlink">
	<title id="document_title">planar_net_</title>
	<polygon points="268.726020600767,-254.86331291616 301.797736148792,-254.86331291616 290.942423897158,-286.102720164205 257.870708349138,-286.102720164214 " style="fill: rgb(14,173,105); fill-opacity: 1; stroke: rgb(0,0,0); stroke-width: 3" />
	<polygon points="216.666178963417,-234.160358574607 205.810866711805,-265.399765822655 184.263855760819,-243.807630262996 195.119168012425,-212.568223014952 " style="fill: rgb(14,173,105); fill-opacity: 1; stroke: rgb(0,0,0); stroke-width: 3" />
	<polygon points="315.622784083465,-227.672100207774 301.797736148792,-254.86331291616 268.726020600767,-254.86331291616 282.551068535446,-227.672100207778 " style="fill: rgb(14,173,105); fill-opacity: 1; stroke: rgb(0,0,0); stroke-width: 3" />
	<polygon points="309.381527283905,-308.229692300014 323.92466021289,-281.415679479131 356.984683726689,-282.295005673993 342.441550797709,-309.109018494871 " style="fill: rgb(14,173,105); fill-opacity: 1; stroke: rgb(0,0,0); stroke-width: 3" />
	<polygon points="268.726020600767,-254.86331291616 257.870708349138,-286.102720164214 227.648128025521,-290.236681645804 238.503440277146,-258.997274397753 " style="fill: rgb(14,173,105); fill-opacity: 1; stroke: rgb(0,0,0); stroke-width: 3" />
	<polygon points="290.942423897158,-286.102720164205 301.797736148792,-254.86331291616 316.340869077778,-228.049300095277 334.779972464526,-250.176272231086 323.92466021289,-281.415679479131 309.381527283905,-308.229692300014 " style="fill: rgb(14,173,105); fill-opacity: 1; stroke: rgb(0,0,0); stroke-width: 3" />
	<polygon points="315.622784083465,-227.672100207774 282.551068535446,-227.672100207778 266.257984582128,-198.892354125164 299.329700130145,-198.892354125158 " style="fill: rgb(14,173,105); fill-opacity: 1; stroke: rgb(0,0,0); stroke-width: 3" />
	<polygon points="323.92466021289,-281.415679479131 334.779972464526,-250.176272231086 367.851688012553,-250.176272231084 356.996375760921,-281.415679479127 " style="fill: rgb(14,173,105); fill-opacity: 1; stroke: rgb(0,0,0); stroke-width: 3" />
	<polygon points="257.870708349138,-286.102720164214 290.942423897158,-286.102720164205 305.791102312402,-310.783080350528 275.689122447434,-315.719152387801 242.617406899416,-315.71915238781 227.76872848417,-291.038792201486 " style="fill: rgb(14,173,105); fill-opacity: 1; stroke: rgb(0,0,0); stroke-width: 3" />
	<polygon points="334.779972464526,-250.176272231086 316.340869077778,-228.049300095277 345.337860320866,-218.579954933272 378.022672241307,-213.536004198422 396.461775628057,-235.662976334222 367.464784384966,-245.132321496233 " style="fill: rgb(14,173,105); fill-opacity: 1; stroke: rgb(0,0,0); stroke-width: 3" />
	<polygon points="268.726020600767,-254.86331291616 238.462046923183,-258.682461537424 252.287094857853,-231.491248829049 282.551068535446,-227.672100207778 " style="fill: rgb(14,173,105); fill-opacity: 1; stroke: rgb(0,0,0); stroke-width: 3" />
	<polygon points="342.441550797709,-309.109018494871 372.925186430551,-307.994587001783 388.447300886684,-337.197366528736 357.963665253842,-338.311798021833 " style="fill: rgb(14,173,105); fill-opacity: 1; stroke: rgb(0,0,0); stroke-width: 3" />
	<polygon points="275.689122447434,-315.719152387801 305.791102312402,-310.783080350528 295.770235729241,-342.300069455014 265.668255864277,-347.236141492299 " style="fill: rgb(14,173,105); fill-opacity: 1; stroke: rgb(0,0,0); stroke-width: 3" />
	<polygon points="309.381527283905,-308.229692300014 342.441550797709,-309.109018494871 357.963665253842,-338.311798021833 324.903641740041,-337.432471826978 " style="fill: rgb(14,173,105); fill-opacity: 1; stroke: rgb(0,0,0); stroke-width: 3" />
	<polygon points="396.461775628057,-235.662976334222 378.022672241307,-213.536004198422 388.877984492948,-182.296596950376 403.421117421938,-155.482584129486 421.860220808684,-177.609556265283 411.004908557043,-208.848963513332 " style="fill: rgb(14,173,105); fill-opacity: 1; stroke: rgb(0,0,0); stroke-width: 3" />
	<polygon points="342.441550797709,-309.109018494871 356.984683726689,-282.295005673993 387.339503311681,-279.281879903075 372.79637038271,-306.095892723947 " style="fill: rgb(14,173,105); fill-opacity: 1; stroke: rgb(0,0,0); stroke-width: 3" />
	<polygon points="367.851688012553,-250.176272231084 398.074268336175,-246.042310749502 387.218956084541,-277.28171799754 356.996375760921,-281.415679479127 " style="fill: rgb(14,173,105); fill-opacity: 1; stroke: rgb(0,0,0); stroke-width: 3" />
	<polygon points="332.474148505661,-202.245234178718 315.622784083465,-227.672100207774 299.329700130145,-198.892354125158 316.181064552343,-173.465488096108 " style="fill: rgb(14,173,105); fill-opacity: 1; stroke: rgb(0,0,0); stroke-width: 3" />
	<polygon points="227.76872848417,-291.038792201486 242.617406899416,-315.71915238781 227.124594931945,-344.937488182828 208.662047281425,-369.219751940585 193.81336886618,-344.539391754265 209.306180833651,-315.321055959243 " style="fill: rgb(14,173,105); fill-opacity: 1; stroke: rgb(0,0,0); stroke-width: 3" />
	<polygon points="265.668255864277,-347.236141492299 295.770235729241,-342.300069455014 282.960518998079,-369.984092938178 252.858539133119,-374.920164975452 " style="fill: rgb(14,173,105); fill-opacity: 1; stroke: rgb(0,0,0); stroke-width: 3" />
	<polygon points="238.462046923183,-258.682461537424 218.489331094734,-232.322852440823 232.314379029391,-205.131639732443 252.287094857853,-231.491248829049 " style="fill: rgb(14,173,105); fill-opacity: 1; stroke: rgb(0,0,0); stroke-width: 3" />
	<polygon points="378.022672241307,-213.536004198422 345.337860320866,-218.579954933272 351.301681818145,-186.050411400688 383.98649373858,-181.00646066583 " style="fill: rgb(14,173,105); fill-opacity: 1; stroke: rgb(0,0,0); stroke-width: 3" />
	<polygon points="282.551068535446,-227.672100207778 252.107840982241,-229.596650828686 235.814757028923,-200.81690474608 266.257984582128,-198.892354125164 " style="fill: rgb(14,173,105); fill-opacity: 1; stroke: rgb(0,0,0); stroke-width: 3" />
	<polygon points="396.461775628057,-235.662976334222 411.004908557043,-208.848963513332 444.064932070847,-209.728289708187 429.521799141864,-236.542302529075 " style="fill: rgb(14,173,105); fill-opacity: 1; stroke: rgb(0,0,0); stroke-width: 3" />
	<polygon points="286.006351859866,-171.451829534362 252.934636311857,-171.451829534373 266.257984582121,-144.01130494358 299.329700130123,-144.011304943566 " style="fill: rgb(14,173,105); fill-opacity: 1; stroke: rgb(0,0,0); stroke-width: 3" />
	<polygon points="266.257984582128,-198.892354125164 235.814757028923,-200.81690474608 221.765488426583,-173.740862740495 252.208715979786,-171.816312119581 " style="fill: rgb(14,173,105); fill-opacity: 1; stroke: rgb(0,0,0); stroke-width: 3" />
	<polygon points="299.329700130145,-198.892354125158 266.257984582128,-198.892354125164 252.934636311857,-171.451829534373 286.006351859866,-171.451829534362 " style="fill: rgb(14,173,105); fill-opacity: 1; stroke: rgb(0,0,0); stroke-width: 3" />
	<polygon points="242.617406899416,-315.71915238781 275.689122447434,-315.719152387801 264.833810195799,-346.958559635847 231.762094647787,-346.958559635863 " style="fill: rgb(14,173,105); fill-opacity: 1; stroke: rgb(0,0,0); stroke-width: 3" />
	<polygon points="429.521799141864,-236.542302529075 444.064932070847,-209.728289708187 474.419751655839,-206.715163937267 459.876618726865,-233.529176758148 " style="fill: rgb(14,173,105); fill-opacity: 1; stroke: rgb(0,0,0); stroke-width: 3" />
	<polygon points="383.98649373858,-181.00646066583 351.301681818145,-186.050411400688 360.817908871949,-157.068772012808 393.502720792378,-152.024821277947 " style="fill: rgb(14,173,105); fill-opacity: 1; stroke: rgb(0,0,0); stroke-width: 3" />
	<polygon points="372.79637038271,-306.095892723947 387.339503311681,-279.281879903075 406.604296492203,-306.163213817175 392.061163563246,-332.977226638052 " style="fill: rgb(14,173,105); fill-opacity: 1; stroke: rgb(0,0,0); stroke-width: 3" />
	<polygon points="316.181064552343,-173.465488096108 299.329700130145,-198.892354125158 287.743384453176,-170.67442918404 304.594748875371,-145.247563155001 " style="fill: rgb(14,173,105); fill-opacity: 1; stroke: rgb(0,0,0); stroke-width: 3" />
	<polygon points="324.903641740041,-337.432471826978 357.963665253842,-338.311798021833 370.55270178023,-366.09686880249 337.492678266436,-365.217542607639 " style="fill: rgb(14,173,105); fill-opacity: 1; stroke: rgb(0,0,0); stroke-width: 3" />
	<polygon points="199.192259151483,-208.698352163236 168.734167622954,-207.025432742371 182.559215557601,-179.834220033998 213.017307086129,-181.507139454858 " style="fill: rgb(14,173,105); fill-opacity: 1; stroke: rgb(0,0,0); stroke-width: 3" />
	<polygon points="238.503440277146,-258.997274397753 227.648128025521,-290.236681645804 205.810866711805,-265.399765822655 216.666178963417,-234.160358574607 " style="fill: rgb(14,173,105); fill-opacity: 1; stroke: rgb(0,0,0); stroke-width: 3" />
	<polygon points="217.937046713115,-374.14977234425 251.00876226112,-374.149772344229 267.301846214438,-402.929518426844 234.230130666435,-402.929518426867 " style="fill: rgb(14,173,105); fill-opacity: 1; stroke: rgb(0,0,0); stroke-width: 3" />
	<polygon points="185.831463967093,-428.420764528238 204.900072342131,-455.441618399446 174.798092477175,-460.377690436721 155.729484102128,-433.356836565509 " style="fill: rgb(14,173,105); fill-opacity: 1; stroke: rgb(0,0,0); stroke-width: 3" />
	<polygon points="195.119168012425,-212.568223014952 184.263855760819,-243.807630262996 153.970452110568,-247.385855274328 164.82576436217,-216.14644802629 " style="fill: rgb(14,173,105); fill-opacity: 1; stroke: rgb(0,0,0); stroke-width: 3" />
	<polygon points="271.927147508172,-401.941018846661 302.029127373122,-397.004946809383 318.69592936164,-422.553170043586 288.593949496692,-427.489242080857 " style="fill: rgb(14,173,105); fill-opacity: 1; stroke: rgb(0,0,0); stroke-width: 3" />
	<polygon points="387.218956084541,-277.28171799754 398.074268336175,-246.042310749502 419.911529649881,-270.87922657266 409.056217398258,-302.118633820696 " style="fill: rgb(14,173,105); fill-opacity: 1; stroke: rgb(0,0,0); stroke-width: 3" />
	<polygon points="227.648128025521,-290.236681645804 198.098797747434,-297.808410580805 176.261536433719,-272.971494757666 205.810866711805,-265.399765822655 " style="fill: rgb(14,173,105); fill-opacity: 1; stroke: rgb(0,0,0); stroke-width: 3" />
	<polygon points="392.061163563246,-332.977226638052 406.604296492203,-306.163213817175 425.266407000511,-330.292441536363 410.723274071564,-357.106454357238 " style="fill: rgb(14,173,105); fill-opacity: 1; stroke: rgb(0,0,0); stroke-width: 3" />
	<polygon points="205.810866711805,-265.399765822655 175.846892770855,-271.114156832639 154.29988181988,-249.52202127298 184.263855760819,-243.807630262996 " style="fill: rgb(14,173,105); fill-opacity: 1; stroke: rgb(0,0,0); stroke-width: 3" />
	<polygon points="357.963665253842,-338.311798021833 388.447300886684,-337.197366528736 401.771692139284,-364.637384690114 371.288056506439,-365.751816183208 " style="fill: rgb(14,173,105); fill-opacity: 1; stroke: rgb(0,0,0); stroke-width: 3" />
	<polygon points="218.489331094734,-232.322852440823 199.192259151483,-208.698352163236 213.017307086129,-181.507139454858 232.314379029391,-205.131639732443 " style="fill: rgb(14,173,105); fill-opacity: 1; stroke: rgb(0,0,0); stroke-width: 3" />
	<polygon points="231.762094647787,-346.958559635863 264.833810195799,-346.958559635847 251.00876226112,-374.149772344229 217.937046713115,-374.14977234425 " style="fill: rgb(14,173,105); fill-opacity: 1; stroke: rgb(0,0,0); stroke-width: 3" />
	<polygon points="252.858539133119,-374.920164975452 282.960518998079,-369.984092938178 302.029127373122,-397.004946809383 271.927147508172,-401.941018846661 " style="fill: rgb(14,173,105); fill-opacity: 1; stroke: rgb(0,0,0); stroke-width: 3" />
	<polygon points="315.622784083431,-115.231558860938 299.329700130123,-144.011304943566 266.257984582121,-144.01130494358 282.551068535435,-115.231558860962 " style="fill: rgb(14,173,105); fill-opacity: 1; stroke: rgb(0,0,0); stroke-width: 3" />
	<polygon points="411.004908557043,-208.848963513332 421.860220808684,-177.609556265283 454.931936356712,-177.609556265284 444.076624105073,-208.848963513331 " style="fill: rgb(14,173,105); fill-opacity: 1; stroke: rgb(0,0,0); stroke-width: 3" />
	<polygon points="252.208715979786,-171.816312119581 221.765488426583,-173.740862740495 232.293165999482,-145.111122890651 262.736393552679,-143.186572269727 " style="fill: rgb(14,173,105); fill-opacity: 1; stroke: rgb(0,0,0); stroke-width: 3" />
	<polygon points="209.306180833651,-315.321055959243 193.81336886618,-344.539391754265 161.128556945746,-339.495441019422 176.621368913214,-310.277105224401 " style="fill: rgb(14,173,105); fill-opacity: 1; stroke: rgb(0,0,0); stroke-width: 3" />
	<polygon points="409.056217398258,-302.118633820696 419.911529649881,-270.87922657266 441.458540600857,-292.471362132329 430.60322834924,-323.710769380359 " style="fill: rgb(14,173,105); fill-opacity: 1; stroke: rgb(0,0,0); stroke-width: 3" />
	<polygon points="275.275472119965,-112.58412338122 262.736393552679,-143.186572269727 232.293165999482,-145.111122890651 244.832244566771,-114.508674002155 " style="fill: rgb(14,173,105); fill-opacity: 1; stroke: rgb(0,0,0); stroke-width: 3" />
	<polygon points="234.230130666435,-402.929518426867 267.301846214438,-402.929518426844 280.625194484709,-430.370043017636 247.553478936714,-430.370043017664 " style="fill: rgb(14,173,105); fill-opacity: 1; stroke: rgb(0,0,0); stroke-width: 3" />
	<polygon points="168.539200833281,-405.672813082359 198.641180698257,-400.736741045075 185.831463967093,-428.420764528238 155.729484102128,-433.356836565509 " style="fill: rgb(14,173,105); fill-opacity: 1; stroke: rgb(0,0,0); stroke-width: 3" />
	<polygon points="244.832244566771,-114.508674002155 232.293165999482,-145.111122890651 211.952983176303,-122.378525993941 224.492061743585,-91.7760771054506 " style="fill: rgb(14,173,105); fill-opacity: 1; stroke: rgb(0,0,0); stroke-width: 3" />
	<polygon points="410.723274071564,-357.106454357238 425.266407000511,-330.292441536363 455.669250142705,-332.774603461044 441.126117213755,-359.588616281913 " style="fill: rgb(14,173,105); fill-opacity: 1; stroke: rgb(0,0,0); stroke-width: 3" />
	<polygon points="193.81336886618,-344.539391754265 208.662047281425,-369.219751940585 178.560067416442,-374.15582397786 145.488351868406,-374.155823977878 130.639673453158,-349.475463791562 160.741653318144,-344.539391754281 " style="fill: rgb(14,173,105); fill-opacity: 1; stroke: rgb(0,0,0); stroke-width: 3" />
	<polygon points="432.418108665028,-146.013238967472 403.421117421938,-155.482584129486 408.51791982254,-122.805972086935 437.514911065619,-113.336626924912 " style="fill: rgb(14,173,105); fill-opacity: 1; stroke: rgb(0,0,0); stroke-width: 3" />
	<polygon points="161.128556945746,-339.495441019422 130.629055031011,-338.971626260095 146.121866998481,-309.753290465074 176.621368913214,-310.277105224401 " style="fill: rgb(14,173,105); fill-opacity: 1; stroke: rgb(0,0,0); stroke-width: 3" />
	<polygon points="474.299204428692,-204.71500203175 485.154516680339,-173.475594783702 506.991777994039,-198.312510606866 496.136465742404,-229.551917854911 " style="fill: rgb(14,173,105); fill-opacity: 1; stroke: rgb(0,0,0); stroke-width: 3" />
	<polygon points="421.860220808684,-177.609556265283 403.421117421938,-155.482584129486 432.418108665028,-146.013238967472 465.102920585471,-140.969288232608 483.542023972217,-163.096260368398 454.545032729123,-172.56560553042 " style="fill: rgb(14,173,105); fill-opacity: 1; stroke: rgb(0,0,0); stroke-width: 3" />
	<polygon points="454.931936356712,-177.609556265284 485.154516680339,-173.475594783702 474.299204428692,-204.71500203175 444.076624105073,-208.848963513331 " style="fill: rgb(14,173,105); fill-opacity: 1; stroke: rgb(0,0,0); stroke-width: 3" />
	<polygon points="288.593949496692,-427.489242080857 318.69592936164,-422.553170043586 311.061275874819,-452.086305080099 280.959296009878,-457.022377117377 " style="fill: rgb(14,173,105); fill-opacity: 1; stroke: rgb(0,0,0); stroke-width: 3" />
	<polygon points="437.514911065619,-113.336626924912 408.51791982254,-122.805972086935 416.955532655644,-93.4921410744659 445.952523898709,-84.0227959124562 " style="fill: rgb(14,173,105); fill-opacity: 1; stroke: rgb(0,0,0); stroke-width: 3" />
	<polygon points="480.582969136522,-79.4581053121249 447.89815721609,-84.5020560469998 427.406326212143,-58.5439507348766 460.091138132572,-53.5 " style="fill: rgb(14,173,105); fill-opacity: 1; stroke: rgb(0,0,0); stroke-width: 3" />
	<polygon points="178.560067416442,-374.15582397786 208.662047281425,-369.219751940585 198.641180698257,-400.736741045075 168.539200833281,-405.672813082359 " style="fill: rgb(14,173,105); fill-opacity: 1; stroke: rgb(0,0,0); stroke-width: 3" />
	<polygon points="221.765488426583,-173.740862740495 199.821299439743,-152.552503468041 210.348977012632,-123.922763618199 232.293165999482,-145.111122890651 " style="fill: rgb(14,173,105); fill-opacity: 1; stroke: rgb(0,0,0); stroke-width: 3" />
	<polygon points="441.458540600857,-292.471362132329 471.75194425111,-288.893137121011 460.896631999496,-320.132544369035 430.60322834924,-323.710769380359 " style="fill: rgb(14,173,105); fill-opacity: 1; stroke: rgb(0,0,0); stroke-width: 3" />
	<polygon points="130.639673453158,-349.475463791562 112.177125802644,-373.757727549325 79.6379800463755,-367.846521010683 98.1005276968858,-343.56425725292 " style="fill: rgb(14,173,105); fill-opacity: 1; stroke: rgb(0,0,0); stroke-width: 3" />
	<polygon points="455.669250142705,-332.774603461044 488.707549152551,-334.260930418952 474.164416223608,-361.074943239815 441.126117213755,-359.588616281913 " style="fill: rgb(14,173,105); fill-opacity: 1; stroke: rgb(0,0,0); stroke-width: 3" />
	<polygon points="168.734167622954,-207.025432742371 135.668029679145,-206.418068954571 149.493077613783,-179.226856246204 182.559215557601,-179.834220033998 " style="fill: rgb(14,173,105); fill-opacity: 1; stroke: rgb(0,0,0); stroke-width: 3" />
	<polygon points="145.488351868406,-374.155823977878 178.560067416442,-374.15582397786 167.704755164807,-405.395231225906 134.633039616776,-405.395231225933 " style="fill: rgb(14,173,105); fill-opacity: 1; stroke: rgb(0,0,0); stroke-width: 3" />
	<polygon points="471.066742082734,-108.439744700013 438.381930162296,-113.483695434884 447.89815721609,-84.5020560469998 480.582969136522,-79.4581053121249 " style="fill: rgb(14,173,105); fill-opacity: 1; stroke: rgb(0,0,0); stroke-width: 3" />
	<polygon points="483.542023972217,-163.096260368398 465.102920585471,-140.969288232608 475.958232837113,-109.729880984558 490.501365766103,-82.9158681636619 508.940469152841,-105.042840299451 498.085156901199,-136.282247547504 " style="fill: rgb(14,173,105); fill-opacity: 1; stroke: rgb(0,0,0); stroke-width: 3" />
	<polygon points="98.1005276968858,-343.56425725292 79.6379800463755,-367.846521010683 49.1787307976417,-366.194814574194 67.6412784481432,-341.912550816435 " style="fill: rgb(14,173,105); fill-opacity: 1; stroke: rgb(0,0,0); stroke-width: 3" />
	<polygon points="280.959296009878,-457.022377117377 311.061275874819,-452.086305080099 301.620910484098,-483.782012527312 271.518930619161,-488.718084564602 " style="fill: rgb(14,173,105); fill-opacity: 1; stroke: rgb(0,0,0); stroke-width: 3" />
	<polygon points="465.102920585471,-140.969288232608 432.418108665028,-146.013238967472 438.381930162296,-113.483695434884 471.066742082734,-108.439744700013 " style="fill: rgb(14,173,105); fill-opacity: 1; stroke: rgb(0,0,0); stroke-width: 3" />
	<polygon points="153.970452110568,-247.385855274328 121.437252535155,-253.329700383005 132.292564786755,-222.090293134968 164.82576436217,-216.14644802629 " style="fill: rgb(14,173,105); fill-opacity: 1; stroke: rgb(0,0,0); stroke-width: 3" />
	<polygon points="96.6843138351746,-402.976063344353 111.532992250419,-427.656423530667 81.4310123854321,-432.592495567948 48.3592968373911,-432.592495567973 33.5106184221466,-407.912135381663 63.6125982871386,-402.976063344375 " style="fill: rgb(14,173,105); fill-opacity: 1; stroke: rgb(0,0,0); stroke-width: 3" />
	<polygon points="134.633039616776,-405.395231225933 167.704755164807,-405.395231225906 153.879707230127,-432.586443934289 120.807991682102,-432.58644393432 " style="fill: rgb(14,173,105); fill-opacity: 1; stroke: rgb(0,0,0); stroke-width: 3" />
	<polygon points="176.88416045623,-128.727600015128 187.411838029106,-100.097860165284 210.348977012632,-123.922763618199 199.821299439743,-152.552503468041 " style="fill: rgb(14,173,105); fill-opacity: 1; stroke: rgb(0,0,0); stroke-width: 3" />
	<polygon points="120.807991682102,-432.58644393432 153.879707230127,-432.586443934289 170.172791183444,-461.366190016904 137.101075635421,-461.366190016938 " style="fill: rgb(14,173,105); fill-opacity: 1; stroke: rgb(0,0,0); stroke-width: 3" />
	<polygon points="130.639673453158,-349.475463791562 145.488351868406,-374.155823977878 129.995539900937,-403.374159772902 111.532992250419,-427.656423530667 96.6843138351746,-402.976063344353 112.177125802644,-373.757727549325 " style="fill: rgb(14,173,105); fill-opacity: 1; stroke: rgb(0,0,0); stroke-width: 3" />
	<polygon points="112.177125802644,-373.757727549325 96.6843138351746,-402.976063344353 63.9995019147403,-397.932112609515 79.4923138822067,-368.713776814488 " style="fill: rgb(14,173,105); fill-opacity: 1; stroke: rgb(0,0,0); stroke-width: 3" />
	<polygon points="63.9995019147403,-397.932112609515 33.5,-397.408297850195 48.9928119674754,-368.189962055163 79.4923138822067,-368.713776814488 " style="fill: rgb(14,173,105); fill-opacity: 1; stroke: rgb(0,0,0); stroke-width: 3" />
	<polygon points="483.542023972217,-163.096260368398 498.085156901199,-136.282247547504 531.145180415008,-137.16157374235 516.602047486026,-163.975586563243 " style="fill: rgb(14,173,105); fill-opacity: 1; stroke: rgb(0,0,0); stroke-width: 3" />
	<polygon points="516.602047486026,-163.975586563243 531.145180415008,-137.16157374235 561.5,-134.148447971426 546.956867071026,-160.962460792313 " style="fill: rgb(14,173,105); fill-opacity: 1; stroke: rgb(0,0,0); stroke-width: 3" />
	<polygon points="81.4310123854321,-432.592495567948 111.532992250419,-427.656423530667 101.512125667251,-459.173412635162 71.4101458022729,-464.109484672451 " style="fill: rgb(14,173,105); fill-opacity: 1; stroke: rgb(0,0,0); stroke-width: 3" />
	<polygon points="498.085156901199,-136.282247547504 508.940469152841,-105.042840299451 542.012184700869,-105.042840299451 531.156872449229,-136.282247547503 " style="fill: rgb(14,173,105); fill-opacity: 1; stroke: rgb(0,0,0); stroke-width: 3" />
	<circle cx="268.726020600767" cy="-254.86331291616" r="2" style="fill: rgb(0,0,0)" />
	<circle cx="301.797736148792" cy="-254.86331291616" r="2" style="fill: rgb(0,0,0)" />
	<circle cx="290.942423897158" cy="-286.102720164205" r="2" style="fill: rgb(0,0,0)" />
	<circle cx="257.870708349138" cy="-286.102720164214" r="2" style="fill: rgb(0,0,0)" />
	<circle cx="282.551068535446" cy="-227.672100207778" r="2" style="fill: rgb(0,0,0)" />
	<circle cx="315.622784083465" cy="-227.672100207774" r="2" style="fill: rgb(0,0,0)" />
	<circle cx="227.648128025521" cy="-290.236681645804" r="2" style="fill: rgb(0,0,0)" />
	<circle cx="238.503440277146" cy="-258.997274397753" r="2" style="fill: rgb(0,0,0)" />
	<circle cx="316.340869077778" cy="-228.049300095277" r="2" style="fill: rgb(0,0,0)" />
	<circle cx="334.779972464526" cy="-250.176272231086" r="2" style="fill: rgb(0,0,0)" />
	<circle cx="323.92466021289" cy="-281.415679479131" r="2" style="fill: rgb(0,0,0)" />
	<circle cx="309.381527283905" cy="-308.229692300014" r="2" style="fill: rgb(0,0,0)" />
	<circle cx="305.791102312402" cy="-310.783080350528" r="2" style="fill: rgb(0,0,0)" />
	<circle cx="275.689122447434" cy="-315.719152387801" r="2" style="fill: rgb(0,0,0)" />
	<circle cx="242.617406899416" cy="-315.71915238781" r="2" style="fill: rgb(0,0,0)" />
	<circle cx="227.76872848417" cy="-291.038792201486" r="2" style="fill: rgb(0,0,0)" />
	<circle cx="266.257984582128" cy="-198.892354125164" r="2" style="fill: rgb(0,0,0)" />
	<circle cx="299.329700130145" cy="-198.892354125158" r="2" style="fill: rgb(0,0,0)" />
	<circle cx="238.462046923183" cy="-258.682461537424" r="2" style="fill: rgb(0,0,0)" />
	<circle cx="252.287094857853" cy="-231.491248829049" r="2" style="fill: rgb(0,0,0)" />
	<circle cx="205.810866711805" cy="-265.399765822655" r="2" style="fill: rgb(0,0,0)" />
	<circle cx="216.666178963417" cy="-234.160358574607" r="2" style="fill: rgb(0,0,0)" />
	<circle cx="356.984683726689" cy="-282.295005673993" r="2" style="fill: rgb(0,0,0)" />
	<circle cx="342.441550797709" cy="-309.109018494871" r="2" style="fill: rgb(0,0,0)" />
	<circle cx="367.851688012553" cy="-250.176272231084" r="2" style="fill: rgb(0,0,0)" />
	<circle cx="356.996375760921" cy="-281.415679479127" r="2" style="fill: rgb(0,0,0)" />
	<circle cx="345.337860320866" cy="-218.579954933272" r="2" style="fill: rgb(0,0,0)" />
	<circle cx="378.022672241307" cy="-213.536004198422" r="2" style="fill: rgb(0,0,0)" />
	<circle cx="396.461775628057" cy="-235.662976334222" r="2" style="fill: rgb(0,0,0)" />
	<circle cx="367.464784384966" cy="-245.132321496233" r="2" style="fill: rgb(0,0,0)" />
	<circle cx="295.770235729241" cy="-342.300069455014" r="2" style="fill: rgb(0,0,0)" />
	<circle cx="265.668255864277" cy="-347.236141492299" r="2" style="fill: rgb(0,0,0)" />
	<circle cx="227.124594931945" cy="-344.937488182828" r="2" style="fill: rgb(0,0,0)" />
	<circle cx="208.662047281425" cy="-369.219751940585" r="2" style="fill: rgb(0,0,0)" />
	<circle cx="193.81336886618" cy="-344.539391754265" r="2" style="fill: rgb(0,0,0)" />
	<circle cx="209.306180833651" cy="-315.321055959243" r="2" style="fill: rgb(0,0,0)" />
	<circle cx="264.833810195799" cy="-346.958559635847" r="2" style="fill: rgb(0,0,0)" />
	<circle cx="231.762094647787" cy="-346.958559635863" r="2" style="fill: rgb(0,0,0)" />
	<circle cx="316.181064552343" cy="-173.465488096108" r="2" style="fill: rgb(0,0,0)" />
	<circle cx="332.474148505661" cy="-202.245234178718" r="2" style="fill: rgb(0,0,0)" />
	<circle cx="252.107840982241" cy="-229.596650828686" r="2" style="fill: rgb(0,0,0)" />
	<circle cx="235.814757028923" cy="-200.81690474608" r="2" style="fill: rgb(0,0,0)" />
	<circle cx="252.934636311857" cy="-171.451829534373" r="2" style="fill: rgb(0,0,0)" />
	<circle cx="286.006351859866" cy="-171.451829534362" r="2" style="fill: rgb(0,0,0)" />
	<circle cx="218.489331094734" cy="-232.322852440823" r="2" style="fill: rgb(0,0,0)" />
	<circle cx="232.314379029391" cy="-205.131639732443" r="2" style="fill: rgb(0,0,0)" />
	<circle cx="184.263855760819" cy="-243.807630262996" r="2" style="fill: rgb(0,0,0)" />
	<circle cx="195.119168012425" cy="-212.568223014952" r="2" style="fill: rgb(0,0,0)" />
	<circle cx="198.098797747434" cy="-297.808410580805" r="2" style="fill: rgb(0,0,0)" />
	<circle cx="176.261536433719" cy="-272.971494757666" r="2" style="fill: rgb(0,0,0)" />
	<circle cx="357.963665253842" cy="-338.311798021833" r="2" style="fill: rgb(0,0,0)" />
	<circle cx="324.903641740041" cy="-337.432471826978" r="2" style="fill: rgb(0,0,0)" />
	<circle cx="387.339503311681" cy="-279.281879903075" r="2" style="fill: rgb(0,0,0)" />
	<circle cx="372.79637038271" cy="-306.095892723947" r="2" style="fill: rgb(0,0,0)" />
	<circle cx="398.074268336175" cy="-246.042310749502" r="2" style="fill: rgb(0,0,0)" />
	<circle cx="387.218956084541" cy="-277.28171799754" r="2" style="fill: rgb(0,0,0)" />
	<circle cx="388.877984492948" cy="-182.296596950376" r="2" style="fill: rgb(0,0,0)" />
	<circle cx="403.421117421938" cy="-155.482584129486" r="2" style="fill: rgb(0,0,0)" />
	<circle cx="421.860220808684" cy="-177.609556265283" r="2" style="fill: rgb(0,0,0)" />
	<circle cx="411.004908557043" cy="-208.848963513332" r="2" style="fill: rgb(0,0,0)" />
	<circle cx="351.301681818145" cy="-186.050411400688" r="2" style="fill: rgb(0,0,0)" />
	<circle cx="383.98649373858" cy="-181.00646066583" r="2" style="fill: rgb(0,0,0)" />
	<circle cx="282.960518998079" cy="-369.984092938178" r="2" style="fill: rgb(0,0,0)" />
	<circle cx="252.858539133119" cy="-374.920164975452" r="2" style="fill: rgb(0,0,0)" />
	<circle cx="161.128556945746" cy="-339.495441019422" r="2" style="fill: rgb(0,0,0)" />
	<circle cx="176.621368913214" cy="-310.277105224401" r="2" style="fill: rgb(0,0,0)" />
	<circle cx="178.560067416442" cy="-374.15582397786" r="2" style="fill: rgb(0,0,0)" />
	<circle cx="145.488351868406" cy="-374.155823977878" r="2" style="fill: rgb(0,0,0)" />
	<circle cx="130.639673453158" cy="-349.475463791562" r="2" style="fill: rgb(0,0,0)" />
	<circle cx="160.741653318144" cy="-344.539391754281" r="2" style="fill: rgb(0,0,0)" />
	<circle cx="251.00876226112" cy="-374.149772344229" r="2" style="fill: rgb(0,0,0)" />
	<circle cx="217.937046713115" cy="-374.14977234425" r="2" style="fill: rgb(0,0,0)" />
	<circle cx="287.743384453176" cy="-170.67442918404" r="2" style="fill: rgb(0,0,0)" />
	<circle cx="304.594748875371" cy="-145.247563155001" r="2" style="fill: rgb(0,0,0)" />
	<circle cx="221.765488426583" cy="-173.740862740495" r="2" style="fill: rgb(0,0,0)" />
	<circle cx="252.208715979786" cy="-171.816312119581" r="2" style="fill: rgb(0,0,0)" />
	<circle cx="266.257984582121" cy="-144.01130494358" r="2" style="fill: rgb(0,0,0)" />
	<circle cx="299.329700130123" cy="-144.011304943566" r="2" style="fill: rgb(0,0,0)" />
	<circle cx="199.192259151483" cy="-208.698352163236" r="2" style="fill: rgb(0,0,0)" />
	<circle cx="213.017307086129" cy="-181.507139454858" r="2" style="fill: rgb(0,0,0)" />
	<circle cx="153.970452110568" cy="-247.385855274328" r="2" style="fill: rgb(0,0,0)" />
	<circle cx="164.82576436217" cy="-216.14644802629" r="2" style="fill: rgb(0,0,0)" />
	<circle cx="175.846892770855" cy="-271.114156832639" r="2" style="fill: rgb(0,0,0)" />
	<circle cx="154.29988181988" cy="-249.52202127298" r="2" style="fill: rgb(0,0,0)" />
	<circle cx="372.925186430551" cy="-307.994587001783" r="2" style="fill: rgb(0,0,0)" />
	<circle cx="388.447300886684" cy="-337.197366528736" r="2" style="fill: rgb(0,0,0)" />
	<circle cx="370.55270178023" cy="-366.09686880249" r="2" style="fill: rgb(0,0,0)" />
	<circle cx="337.492678266436" cy="-365.217542607639" r="2" style="fill: rgb(0,0,0)" />
	<circle cx="406.604296492203" cy="-306.163213817175" r="2" style="fill: rgb(0,0,0)" />
	<circle cx="392.061163563246" cy="-332.977226638052" r="2" style="fill: rgb(0,0,0)" />
	<circle cx="419.911529649881" cy="-270.87922657266" r="2" style="fill: rgb(0,0,0)" />
	<circle cx="409.056217398258" cy="-302.118633820696" r="2" style="fill: rgb(0,0,0)" />
	<circle cx="444.064932070847" cy="-209.728289708187" r="2" style="fill: rgb(0,0,0)" />
	<circle cx="429.521799141864" cy="-236.542302529075" r="2" style="fill: rgb(0,0,0)" />
	<circle cx="454.931936356712" cy="-177.609556265284" r="2" style="fill: rgb(0,0,0)" />
	<circle cx="444.076624105073" cy="-208.848963513331" r="2" style="fill: rgb(0,0,0)" />
	<circle cx="432.418108665028" cy="-146.013238967472" r="2" style="fill: rgb(0,0,0)" />
	<circle cx="465.102920585471" cy="-140.969288232608" r="2" style="fill: rgb(0,0,0)" />
	<circle cx="483.542023972217" cy="-163.096260368398" r="2" style="fill: rgb(0,0,0)" />
	<circle cx="454.545032729123" cy="-172.56560553042" r="2" style="fill: rgb(0,0,0)" />
	<circle cx="360.817908871949" cy="-157.068772012808" r="2" style="fill: rgb(0,0,0)" />
	<circle cx="393.502720792378" cy="-152.024821277947" r="2" style="fill: rgb(0,0,0)" />
	<circle cx="302.029127373122" cy="-397.004946809383" r="2" style="fill: rgb(0,0,0)" />
	<circle cx="271.927147508172" cy="-401.941018846661" r="2" style="fill: rgb(0,0,0)" />
	<circle cx="130.629055031011" cy="-338.971626260095" r="2" style="fill: rgb(0,0,0)" />
	<circle cx="146.121866998481" cy="-309.753290465074" r="2" style="fill: rgb(0,0,0)" />
	<circle cx="198.641180698257" cy="-400.736741045075" r="2" style="fill: rgb(0,0,0)" />
	<circle cx="168.539200833281" cy="-405.672813082359" r="2" style="fill: rgb(0,0,0)" />
	<circle cx="167.704755164807" cy="-405.395231225906" r="2" style="fill: rgb(0,0,0)" />
	<circle cx="134.633039616776" cy="-405.395231225933" r="2" style="fill: rgb(0,0,0)" />
	<circle cx="129.995539900937" cy="-403.374159772902" r="2" style="fill: rgb(0,0,0)" />
	<circle cx="111.532992250419" cy="-427.656423530667" r="2" style="fill: rgb(0,0,0)" />
	<circle cx="96.6843138351746" cy="-402.976063344353" r="2" style="fill: rgb(0,0,0)" />
	<circle cx="112.177125802644" cy="-373.757727549325" r="2" style="fill: rgb(0,0,0)" />
	<circle cx="267.301846214438" cy="-402.929518426844" r="2" style="fill: rgb(0,0,0)" />
	<circle cx="234.230130666435" cy="-402.929518426867" r="2" style="fill: rgb(0,0,0)" />
	<circle cx="232.293165999482" cy="-145.111122890651" r="2" style="fill: rgb(0,0,0)" />
	<circle cx="262.736393552679" cy="-143.186572269727" r="2" style="fill: rgb(0,0,0)" />
	<circle cx="282.551068535435" cy="-115.231558860962" r="2" style="fill: rgb(0,0,0)" />
	<circle cx="315.622784083431" cy="-115.231558860938" r="2" style="fill: rgb(0,0,0)" />
	<circle cx="168.734167622954" cy="-207.025432742371" r="2" style="fill: rgb(0,0,0)" />
	<circle cx="182.559215557601" cy="-179.834220033998" r="2" style="fill: rgb(0,0,0)" />
	<circle cx="121.437252535155" cy="-253.329700383005" r="2" style="fill: rgb(0,0,0)" />
	<circle cx="132.292564786755" cy="-222.090293134968" r="2" style="fill: rgb(0,0,0)" />
	<circle cx="401.771692139284" cy="-364.637384690114" r="2" style="fill: rgb(0,0,0)" />
	<circle cx="371.288056506439" cy="-365.751816183208" r="2" style="fill: rgb(0,0,0)" />
	<circle cx="425.266407000511" cy="-330.292441536363" r="2" style="fill: rgb(0,0,0)" />
	<circle cx="410.723274071564" cy="-357.106454357238" r="2" style="fill: rgb(0,0,0)" />
	<circle cx="441.458540600857" cy="-292.471362132329" r="2" style="fill: rgb(0,0,0)" />
	<circle cx="430.60322834924" cy="-323.710769380359" r="2" style="fill: rgb(0,0,0)" />
	<circle cx="474.419751655839" cy="-206.715163937267" r="2" style="fill: rgb(0,0,0)" />
	<circle cx="459.876618726865" cy="-233.529176758148" r="2" style="fill: rgb(0,0,0)" />
	<circle cx="485.154516680339" cy="-173.475594783702" r="2" style="fill: rgb(0,0,0)" />
	<circle cx="474.299204428692" cy="-204.71500203175" r="2" style="fill: rgb(0,0,0)" />
	<circle cx="408.51791982254" cy="-122.805972086935" r="2" style="fill: rgb(0,0,0)" />
	<circle cx="437.514911065619" cy="-113.336626924912" r="2" style="fill: rgb(0,0,0)" />
	<circle cx="475.958232837113" cy="-109.729880984558" r="2" style="fill: rgb(0,0,0)" />
	<circle cx="490.501365766103" cy="-82.9158681636619" r="2" style="fill: rgb(0,0,0)" />
	<circle cx="508.940469152841" cy="-105.042840299451" r="2" style="fill: rgb(0,0,0)" />
	<circle cx="498.085156901199" cy="-136.282247547504" r="2" style="fill: rgb(0,0,0)" />
	<circle cx="438.381930162296" cy="-113.483695434884" r="2" style="fill: rgb(0,0,0)" />
	<circle cx="471.066742082734" cy="-108.439744700013" r="2" style="fill: rgb(0,0,0)" />
	<circle cx="318.69592936164" cy="-422.553170043586" r="2" style="fill: rgb(0,0,0)" />
	<circle cx="288.593949496692" cy="-427.489242080857" r="2" style="fill: rgb(0,0,0)" />
	<circle cx="185.831463967093" cy="-428.420764528238" r="2" style="fill: rgb(0,0,0)" />
	<circle cx="155.729484102128" cy="-433.356836565509" r="2" style="fill: rgb(0,0,0)" />
	<circle cx="153.879707230127" cy="-432.586443934289" r="2" style="fill: rgb(0,0,0)" />
	<circle cx="120.807991682102" cy="-432.58644393432" r="2" style="fill: rgb(0,0,0)" />
	<circle cx="79.6379800463755" cy="-367.846521010683" r="2" style="fill: rgb(0,0,0)" />
	<circle cx="98.1005276968858" cy="-343.56425725292" r="2" style="fill: rgb(0,0,0)" />
	<circle cx="81.4310123854321" cy="-432.592495567948" r="2" style="fill: rgb(0,0,0)" />
	<circle cx="48.3592968373911" cy="-432.592495567973" r="2" style="fill: rgb(0,0,0)" />
	<circle cx="33.5106184221466" cy="-407.912135381663" r="2" style="fill: rgb(0,0,0)" />
	<circle cx="63.6125982871386" cy="-402.976063344375" r="2" style="fill: rgb(0,0,0)" />
	<circle cx="63.9995019147403" cy="-397.932112609515" r="2" style="fill: rgb(0,0,0)" />
	<circle cx="79.4923138822067" cy="-368.713776814488" r="2" style="fill: rgb(0,0,0)" />
	<circle cx="280.625194484709" cy="-430.370043017636" r="2" style="fill: rgb(0,0,0)" />
	<circle cx="247.553478936714" cy="-430.370043017664" r="2" style="fill: rgb(0,0,0)" />
	<circle cx="244.832244566771" cy="-114.508674002155" r="2" style="fill: rgb(0,0,0)" />
	<circle cx="275.275472119965" cy="-112.58412338122" r="2" style="fill: rgb(0,0,0)" />
	<circle cx="199.821299439743" cy="-152.552503468041" r="2" style="fill: rgb(0,0,0)" />
	<circle cx="210.348977012632" cy="-123.922763618199" r="2" style="fill: rgb(0,0,0)" />
	<circle cx="135.668029679145" cy="-206.418068954571" r="2" style="fill: rgb(0,0,0)" />
	<circle cx="149.493077613783" cy="-179.226856246204" r="2" style="fill: rgb(0,0,0)" />
	<circle cx="455.669250142705" cy="-332.774603461044" r="2" style="fill: rgb(0,0,0)" />
	<circle cx="441.126117213755" cy="-359.588616281913" r="2" style="fill: rgb(0,0,0)" />
	<circle cx="471.75194425111" cy="-288.893137121011" r="2" style="fill: rgb(0,0,0)" />
	<circle cx="460.896631999496" cy="-320.132544369035" r="2" style="fill: rgb(0,0,0)" />
	<circle cx="506.991777994039" cy="-198.312510606866" r="2" style="fill: rgb(0,0,0)" />
	<circle cx="496.136465742404" cy="-229.551917854911" r="2" style="fill: rgb(0,0,0)" />
	<circle cx="416.955532655644" cy="-93.4921410744659" r="2" style="fill: rgb(0,0,0)" />
	<circle cx="445.952523898709" cy="-84.0227959124562" r="2" style="fill: rgb(0,0,0)" />
	<circle cx="531.145180415008" cy="-137.16157374235" r="2" style="fill: rgb(0,0,0)" />
	<circle cx="516.602047486026" cy="-163.975586563243" r="2" style="fill: rgb(0,0,0)" />
	<circle cx="542.012184700869" cy="-105.042840299451" r="2" style="fill: rgb(0,0,0)" />
	<circle cx="531.156872449229" cy="-136.282247547503" r="2" style="fill: rgb(0,0,0)" />
	<circle cx="447.89815721609" cy="-84.5020560469998" r="2" style="fill: rgb(0,0,0)" />
	<circle cx="480.582969136522" cy="-79.4581053121249" r="2" style="fill: rgb(0,0,0)" />
	<circle cx="311.061275874819" cy="-452.086305080099" r="2" style="fill: rgb(0,0,0)" />
	<circle cx="280.959296009878" cy="-457.022377117377" r="2" style="fill: rgb(0,0,0)" />
	<circle cx="204.900072342131" cy="-455.441618399446" r="2" style="fill: rgb(0,0,0)" />
	<circle cx="174.798092477175" cy="-460.377690436721" r="2" style="fill: rgb(0,0,0)" />
	<circle cx="170.172791183444" cy="-461.366190016904" r="2" style="fill: rgb(0,0,0)" />
	<circle cx="137.101075635421" cy="-461.366190016938" r="2" style="fill: rgb(0,0,0)" />
	<circle cx="49.1787307976417" cy="-366.194814574194" r="2" style="fill: rgb(0,0,0)" />
	<circle cx="67.6412784481432" cy="-341.912550816435" r="2" style="fill: rgb(0,0,0)" />
	<circle cx="101.512125667251" cy="-459.173412635162" r="2" style="fill: rgb(0,0,0)" />
	<circle cx="71.4101458022729" cy="-464.109484672451" r="2" style="fill: rgb(0,0,0)" />
	<circle cx="33.5" cy="-397.408297850195" r="2" style="fill: rgb(0,0,0)" />
	<circle cx="48.9928119674754" cy="-368.189962055163" r="2" style="fill: rgb(0,0,0)" />
	<circle cx="211.952983176303" cy="-122.378525993941" r="2" style="fill: rgb(0,0,0)" />
	<circle cx="224.492061743585" cy="-91.7760771054506" r="2" style="fill: rgb(0,0,0)" />
	<circle cx="176.88416045623" cy="-128.727600015128" r="2" style="fill: rgb(0,0,0)" />
	<circle cx="187.411838029106" cy="-100.097860165284" r="2" style="fill: rgb(0,0,0)" />
	<circle cx="488.707549152551" cy="-334.260930418952" r="2" style="fill: rgb(0,0,0)" />
	<circle cx="474.164416223608" cy="-361.074943239815" r="2" style="fill: rgb(0,0,0)" />
	<circle cx="561.5" cy="-134.148447971426" r="2" style="fill: rgb(0,0,0)" />
	<circle cx="546.956867071026" cy="-160.962460792313" r="2" style="fill: rgb(0,0,0)" />
	<circle cx="427.406326212143" cy="-58.5439507348766" r="2" style="fill: rgb(0,0,0)" />
	<circle cx="460.091138132572" cy="-53.5" r="2" style="fill: rgb(0,0,0)" />
	<circle cx="301.620910484098" cy="-483.782012527312" r="2" style="fill: rgb(0,0,0)" />
	<circle cx="271.518930619161" cy="-488.718084564602" r="2" style="fill: rgb(0,0,0)" />
	<!--
	Generated using the Perl SVG Module V2.87
	by Ronan Oger

	-->
</svg>