<?xml version="1.0" encoding="UTF-8" standalone="yes"?>
<!DOCTYPE svg PUBLIC "-//W3C//DTD SVG 1.0//EN" "http://www.w3.org/TR/2001/REC-SVG-20010904/DTD/svg10.dtd">
<!-- generated using polymake; Michael Joswig, Georg Loho, Benjamin Lorenz, Rico Raber; license CC BY-NC-ND 3.0; see polymake.org and matchthenet.de -->
<svg height="841pt" id="document" viewBox="0 -710.783600974578 572 710.783600974578" width="595pt" xmlns="http://www.w3.org/2000/svg" xmlns:svg="http://www.w3.org/2000/svg" xmlns:xlink="http://www.w3.org/1999/xlink">
	<title id="document_title">planar_net_</title>
	<polygon points="159.961852452548,-436.526809304187 212.685399550754,-436.526809304187 175.025723052026,-473.425605824247 122.30217595383,-473.425605824244 " style="fill: rgb(67,184,206); fill-opacity: 1; stroke: rgb(0,0,0); stroke-width: 3" />
	<polygon points="159.961852452548,-436.526809304187 167.493787752288,-384.344030830272 220.217334850481,-384.344030830258 212.685399550754,-436.526809304187 " style="fill: rgb(67,184,206); fill-opacity: 1; stroke: rgb(0,0,0); stroke-width: 3" />
	<polygon points="159.961852452548,-436.526809304187 122.30217595383,-473.425605824244 123.37816671094,-420.713039367011 161.037843209655,-383.814242846962 " style="fill: rgb(67,184,206); fill-opacity: 1; stroke: rgb(0,0,0); stroke-width: 3" />
	<polygon points="161.037843209655,-383.814242846962 123.37816671094,-420.713039367011 92.2377831759615,-378.168369525635 129.89745967466,-341.269573005585 " style="fill: rgb(67,184,206); fill-opacity: 1; stroke: rgb(0,0,0); stroke-width: 3" />
	<polygon points="216.926014158087,-505.427762374178 254.585690656795,-468.528965854118 435.735778260758,-483.394511701812 466.876161795744,-525.939181543175 429.216485297036,-562.837978063235 248.066397693072,-547.97243221554 " style="fill: rgb(238,66,102); fill-opacity: 1; stroke: rgb(0,0,0); stroke-width: 3" />
	<polygon points="175.025723052026,-473.425605824247 212.685399550754,-436.526809304187 254.585690656795,-468.528965854118 216.926014158087,-505.427762374178 " style="fill: rgb(67,184,206); fill-opacity: 1; stroke: rgb(0,0,0); stroke-width: 3" />
	<polygon points="159.961852452555,-510.324402344305 212.685399550746,-510.324402344306 220.217334850495,-562.507180818222 167.493787752319,-562.507180818235 " style="fill: rgb(67,184,206); fill-opacity: 1; stroke: rgb(0,0,0); stroke-width: 3" />
	<polygon points="339.206539688997,-246.947131941778 220.217334850481,-384.344030830258 167.493787752288,-384.344030830272 159.961852452543,-332.161252356359 278.951057291062,-194.764353467879 331.67460438925,-194.764353467862 " style="fill: rgb(238,66,102); fill-opacity: 1; stroke: rgb(0,0,0); stroke-width: 3" />
	<polygon points="122.30217595383,-473.425605824244 175.025723052026,-473.425605824247 212.685399550746,-510.324402344306 159.961852452555,-510.324402344305 " style="fill: rgb(67,184,206); fill-opacity: 1; stroke: rgb(0,0,0); stroke-width: 3" />
	<polygon points="123.37816671094,-420.713039367011 122.30217595383,-473.425605824244 86.179629108119,-435.020735976827 87.2556198652331,-382.308169519602 " style="fill: rgb(67,184,206); fill-opacity: 1; stroke: rgb(0,0,0); stroke-width: 3" />
	<polygon points="263.256965134749,-451.436174582445 212.685399550754,-436.526809304187 220.217334850481,-384.344030830258 373.203455357189,-286.203388767043 423.775020941186,-301.112754045301 416.243085641458,-353.29553251923 " style="fill: rgb(238,66,102); fill-opacity: 1; stroke: rgb(0,0,0); stroke-width: 3" />
	<polygon points="416.243085641458,-353.29553251923 423.775020941186,-301.112754045301 476.498568039393,-301.11275404528 468.966632739668,-353.295532519202 " style="fill: rgb(67,184,206); fill-opacity: 1; stroke: rgb(0,0,0); stroke-width: 3" />
	<polygon points="422.697192333306,-642.281444424667 460.35686883202,-605.382647904604 502.257159938064,-637.384804454524 464.597483439356,-674.283600974578 " style="fill: rgb(67,184,206); fill-opacity: 1; stroke: rgb(0,0,0); stroke-width: 3" />
	<polygon points="122.30217595383,-473.425605824244 159.961852452555,-510.324402344305 161.037843209664,-563.036968801532 123.378166710941,-526.138172281476 " style="fill: rgb(67,184,206); fill-opacity: 1; stroke: rgb(0,0,0); stroke-width: 3" />
	<polygon points="389.778105272994,-232.037766663506 339.206539688997,-246.947131941778 331.67460438925,-194.764353467862 382.246169973243,-179.854988189596 " style="fill: rgb(67,184,206); fill-opacity: 1; stroke: rgb(0,0,0); stroke-width: 3" />
	<polygon points="122.30217595383,-473.425605824244 69.6225468457013,-471.27407249945 33.5,-432.869202652036 86.179629108119,-435.020735976827 " style="fill: rgb(67,184,206); fill-opacity: 1; stroke: rgb(0,0,0); stroke-width: 3" />
	<polygon points="87.2556198652331,-382.308169519602 86.179629108119,-435.020735976827 34.1614316155492,-426.425414677343 35.2374223726512,-373.712848220131 " style="fill: rgb(67,184,206); fill-opacity: 1; stroke: rgb(0,0,0); stroke-width: 3" />
	<polygon points="159.961852452543,-332.161252356359 107.238305354338,-332.16125235638 99.7063700545725,-279.978473882473 218.69557489309,-142.581574993997 271.419121991296,-142.581574993975 278.951057291062,-194.764353467879 " style="fill: rgb(238,66,102); fill-opacity: 1; stroke: rgb(0,0,0); stroke-width: 3" />
	<polygon points="123.378166710941,-526.138172281476 161.037843209664,-563.036968801532 129.897459674694,-605.581638642915 92.2377831759718,-568.682842122882 " style="fill: rgb(67,184,206); fill-opacity: 1; stroke: rgb(0,0,0); stroke-width: 3" />
	<polygon points="468.966632739668,-353.295532519202 476.498568039393,-301.11275404528 518.398859145422,-269.110597495334 510.866923845691,-321.293375969254 " style="fill: rgb(67,184,206); fill-opacity: 1; stroke: rgb(0,0,0); stroke-width: 3" />
	<polygon points="248.066397693072,-547.97243221554 429.216485297036,-562.837978063235 460.35686883202,-605.382647904604 422.697192333306,-642.281444424667 241.547104729335,-627.415898576968 210.406721194351,-584.8712287356 " style="fill: rgb(238,66,102); fill-opacity: 1; stroke: rgb(0,0,0); stroke-width: 3" />
	<polygon points="39.4508876566009,-227.795695408587 158.44009249512,-90.3987965201173 211.163639593326,-90.3987965200961 218.69557489309,-142.581574993997 99.7063700545725,-279.978473882473 46.9828229563664,-279.978473882493 " style="fill: rgb(238,66,102); fill-opacity: 1; stroke: rgb(0,0,0); stroke-width: 3" />
	<polygon points="339.20653968898,-142.581574993937 286.482992590808,-142.581574993953 324.142669089533,-105.682778473898 376.866216187694,-105.682778473886 " style="fill: rgb(67,184,206); fill-opacity: 1; stroke: rgb(0,0,0); stroke-width: 3" />
	<polygon points="331.67460438925,-194.764353467862 278.951057291062,-194.764353467879 286.482992590808,-142.581574993953 339.20653968898,-142.581574993937 " style="fill: rgb(67,184,206); fill-opacity: 1; stroke: rgb(0,0,0); stroke-width: 3" />
	<polygon points="382.246169973243,-179.854988189596 331.67460438925,-194.764353467862 357.362769143385,-148.722083647822 407.93433472737,-133.812718369563 " style="fill: rgb(67,184,206); fill-opacity: 1; stroke: rgb(0,0,0); stroke-width: 3" />
	<polygon points="389.778105272994,-232.037766663506 382.246169973243,-179.854988189596 413.386553508215,-137.310318348215 420.918488807961,-189.493096822125 " style="fill: rgb(67,184,206); fill-opacity: 1; stroke: rgb(0,0,0); stroke-width: 3" />
	<polygon points="429.216485297036,-562.837978063235 466.876161795744,-525.939181543175 508.776452901789,-557.941338093094 471.116776403087,-594.840134613149 " style="fill: rgb(67,184,206); fill-opacity: 1; stroke: rgb(0,0,0); stroke-width: 3" />
	<polygon points="271.419121991296,-142.581574993975 218.69557489309,-142.581574993997 226.227510192834,-90.3987965200695 278.951057291026,-90.3987965200493 " style="fill: rgb(67,184,206); fill-opacity: 1; stroke: rgb(0,0,0); stroke-width: 3" />
	<polygon points="471.116776403087,-594.840134613149 508.776452901789,-557.941338093094 561.5,-557.941338093086 523.840323501294,-594.840134613135 " style="fill: rgb(67,184,206); fill-opacity: 1; stroke: rgb(0,0,0); stroke-width: 3" />
	<polygon points="263.88718669156,-53.500000000016 316.610733789742,-53.5 278.951057291026,-90.3987965200493 226.227510192834,-90.3987965200695 " style="fill: rgb(67,184,206); fill-opacity: 1; stroke: rgb(0,0,0); stroke-width: 3" />
	<circle cx="159.961852452548" cy="-436.526809304187" r="2" style="fill: rgb(0,0,0)" />
	<circle cx="212.685399550754" cy="-436.526809304187" r="2" style="fill: rgb(0,0,0)" />
	<circle cx="175.025723052026" cy="-473.425605824247" r="2" style="fill: rgb(0,0,0)" />
	<circle cx="122.30217595383" cy="-473.425605824244" r="2" style="fill: rgb(0,0,0)" />
	<circle cx="167.493787752288" cy="-384.344030830272" r="2" style="fill: rgb(0,0,0)" />
	<circle cx="220.217334850481" cy="-384.344030830258" r="2" style="fill: rgb(0,0,0)" />
	<circle cx="123.37816671094" cy="-420.713039367011" r="2" style="fill: rgb(0,0,0)" />
	<circle cx="161.037843209655" cy="-383.814242846962" r="2" style="fill: rgb(0,0,0)" />
	<circle cx="254.585690656795" cy="-468.528965854118" r="2" style="fill: rgb(0,0,0)" />
	<circle cx="216.926014158087" cy="-505.427762374178" r="2" style="fill: rgb(0,0,0)" />
	<circle cx="212.685399550746" cy="-510.324402344306" r="2" style="fill: rgb(0,0,0)" />
	<circle cx="159.961852452555" cy="-510.324402344305" r="2" style="fill: rgb(0,0,0)" />
	<circle cx="159.961852452543" cy="-332.161252356359" r="2" style="fill: rgb(0,0,0)" />
	<circle cx="278.951057291062" cy="-194.764353467879" r="2" style="fill: rgb(0,0,0)" />
	<circle cx="331.67460438925" cy="-194.764353467862" r="2" style="fill: rgb(0,0,0)" />
	<circle cx="339.206539688997" cy="-246.947131941778" r="2" style="fill: rgb(0,0,0)" />
	<circle cx="373.203455357189" cy="-286.203388767043" r="2" style="fill: rgb(0,0,0)" />
	<circle cx="423.775020941186" cy="-301.112754045301" r="2" style="fill: rgb(0,0,0)" />
	<circle cx="416.243085641458" cy="-353.29553251923" r="2" style="fill: rgb(0,0,0)" />
	<circle cx="263.256965134749" cy="-451.436174582445" r="2" style="fill: rgb(0,0,0)" />
	<circle cx="92.2377831759615" cy="-378.168369525635" r="2" style="fill: rgb(0,0,0)" />
	<circle cx="129.89745967466" cy="-341.269573005585" r="2" style="fill: rgb(0,0,0)" />
	<circle cx="86.179629108119" cy="-435.020735976827" r="2" style="fill: rgb(0,0,0)" />
	<circle cx="87.2556198652331" cy="-382.308169519602" r="2" style="fill: rgb(0,0,0)" />
	<circle cx="435.735778260758" cy="-483.394511701812" r="2" style="fill: rgb(0,0,0)" />
	<circle cx="466.876161795744" cy="-525.939181543175" r="2" style="fill: rgb(0,0,0)" />
	<circle cx="429.216485297036" cy="-562.837978063235" r="2" style="fill: rgb(0,0,0)" />
	<circle cx="248.066397693072" cy="-547.97243221554" r="2" style="fill: rgb(0,0,0)" />
	<circle cx="220.217334850495" cy="-562.507180818222" r="2" style="fill: rgb(0,0,0)" />
	<circle cx="167.493787752319" cy="-562.507180818235" r="2" style="fill: rgb(0,0,0)" />
	<circle cx="161.037843209664" cy="-563.036968801532" r="2" style="fill: rgb(0,0,0)" />
	<circle cx="123.378166710941" cy="-526.138172281476" r="2" style="fill: rgb(0,0,0)" />
	<circle cx="382.246169973243" cy="-179.854988189596" r="2" style="fill: rgb(0,0,0)" />
	<circle cx="389.778105272994" cy="-232.037766663506" r="2" style="fill: rgb(0,0,0)" />
	<circle cx="107.238305354338" cy="-332.16125235638" r="2" style="fill: rgb(0,0,0)" />
	<circle cx="99.7063700545725" cy="-279.978473882473" r="2" style="fill: rgb(0,0,0)" />
	<circle cx="218.69557489309" cy="-142.581574993997" r="2" style="fill: rgb(0,0,0)" />
	<circle cx="271.419121991296" cy="-142.581574993975" r="2" style="fill: rgb(0,0,0)" />
	<circle cx="286.482992590808" cy="-142.581574993953" r="2" style="fill: rgb(0,0,0)" />
	<circle cx="339.20653968898" cy="-142.581574993937" r="2" style="fill: rgb(0,0,0)" />
	<circle cx="476.498568039393" cy="-301.11275404528" r="2" style="fill: rgb(0,0,0)" />
	<circle cx="468.966632739668" cy="-353.295532519202" r="2" style="fill: rgb(0,0,0)" />
	<circle cx="69.6225468457013" cy="-471.27407249945" r="2" style="fill: rgb(0,0,0)" />
	<circle cx="33.5" cy="-432.869202652036" r="2" style="fill: rgb(0,0,0)" />
	<circle cx="34.1614316155492" cy="-426.425414677343" r="2" style="fill: rgb(0,0,0)" />
	<circle cx="35.2374223726512" cy="-373.712848220131" r="2" style="fill: rgb(0,0,0)" />
	<circle cx="460.35686883202" cy="-605.382647904604" r="2" style="fill: rgb(0,0,0)" />
	<circle cx="422.697192333306" cy="-642.281444424667" r="2" style="fill: rgb(0,0,0)" />
	<circle cx="241.547104729335" cy="-627.415898576968" r="2" style="fill: rgb(0,0,0)" />
	<circle cx="210.406721194351" cy="-584.8712287356" r="2" style="fill: rgb(0,0,0)" />
	<circle cx="508.776452901789" cy="-557.941338093094" r="2" style="fill: rgb(0,0,0)" />
	<circle cx="471.116776403087" cy="-594.840134613149" r="2" style="fill: rgb(0,0,0)" />
	<circle cx="129.897459674694" cy="-605.581638642915" r="2" style="fill: rgb(0,0,0)" />
	<circle cx="92.2377831759718" cy="-568.682842122882" r="2" style="fill: rgb(0,0,0)" />
	<circle cx="357.362769143385" cy="-148.722083647822" r="2" style="fill: rgb(0,0,0)" />
	<circle cx="407.93433472737" cy="-133.812718369563" r="2" style="fill: rgb(0,0,0)" />
	<circle cx="413.386553508215" cy="-137.310318348215" r="2" style="fill: rgb(0,0,0)" />
	<circle cx="420.918488807961" cy="-189.493096822125" r="2" style="fill: rgb(0,0,0)" />
	<circle cx="46.9828229563664" cy="-279.978473882493" r="2" style="fill: rgb(0,0,0)" />
	<circle cx="39.4508876566009" cy="-227.795695408587" r="2" style="fill: rgb(0,0,0)" />
	<circle cx="158.44009249512" cy="-90.3987965201173" r="2" style="fill: rgb(0,0,0)" />
	<circle cx="211.163639593326" cy="-90.3987965200961" r="2" style="fill: rgb(0,0,0)" />
	<circle cx="226.227510192834" cy="-90.3987965200695" r="2" style="fill: rgb(0,0,0)" />
	<circle cx="278.951057291026" cy="-90.3987965200493" r="2" style="fill: rgb(0,0,0)" />
	<circle cx="324.142669089533" cy="-105.682778473898" r="2" style="fill: rgb(0,0,0)" />
	<circle cx="376.866216187694" cy="-105.682778473886" r="2" style="fill: rgb(0,0,0)" />
	<circle cx="518.398859145422" cy="-269.110597495334" r="2" style="fill: rgb(0,0,0)" />
	<circle cx="510.866923845691" cy="-321.293375969254" r="2" style="fill: rgb(0,0,0)" />
	<circle cx="502.257159938064" cy="-637.384804454524" r="2" style="fill: rgb(0,0,0)" />
	<circle cx="464.597483439356" cy="-674.283600974578" r="2" style="fill: rgb(0,0,0)" />
	<circle cx="561.5" cy="-557.941338093086" r="2" style="fill: rgb(0,0,0)" />
	<circle cx="523.840323501294" cy="-594.840134613135" r="2" style="fill: rgb(0,0,0)" />
	<circle cx="263.88718669156" cy="-53.500000000016" r="2" style="fill: rgb(0,0,0)" />
	<circle cx="316.610733789742" cy="-53.5" r="2" style="fill: rgb(0,0,0)" />
	<!--
	Generated using the Perl SVG Module V2.84
	by Ronan Oger
	Info: http://www.roitsystems.com/
	-->
</svg>