<?xml version="1.0" encoding="UTF-8" standalone="yes"?>
<!DOCTYPE svg PUBLIC "-//W3C//DTD SVG 1.0//EN" "http://www.w3.org/TR/2001/REC-SVG-20010904/DTD/svg10.dtd">
<!-- generated using polymake; Michael Joswig, Georg Loho, Benjamin Lorenz, Rico Raber; license CC BY-NC-ND 3.0; see polymake.org and matchthenet.de -->
<svg height="841pt" id="document" viewBox="0 -610.05384783392 572 610.05384783392" width="595pt" xmlns="http://www.w3.org/2000/svg" xmlns:svg="http://www.w3.org/2000/svg" xmlns:xlink="http://www.w3.org/1999/xlink">
	<title id="document_title">planar_net_</title>
	<polygon points="286.828300717868,-313.6013918535 312.648652657358,-313.6013918535 298.898790445671,-329.751373914913 273.078438506183,-329.751373914913 " style="fill: rgb(157,116,59); fill-opacity: 1; stroke: rgb(0,0,0); stroke-width: 3" />
	<polygon points="286.828300717868,-313.6013918535 283.259634189644,-288.564340297204 309.079986129129,-288.564340297201 312.648652657358,-313.6013918535 " style="fill: rgb(157,116,59); fill-opacity: 1; stroke: rgb(0,0,0); stroke-width: 3" />
	<polygon points="286.828300717868,-313.6013918535 273.078438506183,-329.751373914913 268.664552162806,-304.849427429343 282.414414374492,-288.699445367942 " style="fill: rgb(157,116,59); fill-opacity: 1; stroke: rgb(0,0,0); stroke-width: 3" />
	<polygon points="272.205927440865,-270.10731192526 248.61519078221,-279.221393081596 227.578712497231,-276.510818826984 251.169449155886,-267.396737670649 " style="fill: rgb(157,116,59); fill-opacity: 1; stroke: rgb(0,0,0); stroke-width: 3" />
	<polygon points="475.21098799482,-324.635778581696 496.402278879616,-325.535679720884 507.266557225449,-343.752377759998 486.075266340661,-342.852476620815 " style="fill: rgb(157,116,59); fill-opacity: 1; stroke: rgb(0,0,0); stroke-width: 3" />
	<polygon points="446.259252606938,-445.143365431502 460.009114818587,-428.993383370104 481.053759855592,-431.63980485789 467.303897643934,-447.789786919281 " style="fill: rgb(157,116,59); fill-opacity: 1; stroke: rgb(0,0,0); stroke-width: 3" />
	<polygon points="369.032613922567,-169.100560204262 340.235811287111,-169.305960773483 339.049527712868,-148.128771094356 367.846330348318,-147.923370525134 " style="fill: rgb(157,116,59); fill-opacity: 1; stroke: rgb(0,0,0); stroke-width: 3" />
	<polygon points="346.02618077449,-548.51679627762 371.846532713943,-548.516796277616 368.277866185724,-573.55384783392 342.457514246273,-573.55384783392 " style="fill: rgb(157,116,59); fill-opacity: 1; stroke: rgb(0,0,0); stroke-width: 3" />
	<polygon points="380.439413393456,-213.400719477313 384.59062331336,-188.453639735919 413.38742594884,-188.248239166676 409.236216028943,-213.195318908065 " style="fill: rgb(157,116,59); fill-opacity: 1; stroke: rgb(0,0,0); stroke-width: 3" />
	<polygon points="310.959301674483,-528.198954139258 336.966861484536,-540.564424779189 322.794689473591,-556.345114622015 296.787129663529,-543.979643982086 " style="fill: rgb(157,116,59); fill-opacity: 1; stroke: rgb(0,0,0); stroke-width: 3" />
	<polygon points="312.648652657327,-222.767894478251 286.828300717859,-222.767894478264 273.078438506179,-206.61791241685 298.898790445645,-206.617912416839 " style="fill: rgb(157,116,59); fill-opacity: 1; stroke: rgb(0,0,0); stroke-width: 3" />
	<polygon points="156.490761340954,-225.120392448858 136.163878673079,-231.178318862293 120.440689144976,-207.051998328835 140.767571812845,-200.994071915389 " style="fill: rgb(157,116,59); fill-opacity: 1; stroke: rgb(0,0,0); stroke-width: 3" />
	<polygon points="452.079927894463,-334.860424788597 475.21098799482,-324.635778581696 486.075266340661,-342.852476620815 462.944206240304,-353.077122827717 " style="fill: rgb(157,116,59); fill-opacity: 1; stroke: rgb(0,0,0); stroke-width: 3" />
	<polygon points="397.283630858038,-486.94516065129 416.596414422338,-470.617095168355 432.153459671869,-485.03441026266 412.840676107572,-501.362475745587 " style="fill: rgb(157,116,59); fill-opacity: 1; stroke: rgb(0,0,0); stroke-width: 3" />
	<polygon points="528.305132431638,-341.058127452817 537.58498561197,-321.985504235866 561.5,-330.211160333891 552.220146819668,-349.283783550841 " style="fill: rgb(157,116,59); fill-opacity: 1; stroke: rgb(0,0,0); stroke-width: 3" />
	<polygon points="405.128651856269,-521.121152659071 425.894799979576,-516.802851656938 437.311881502236,-534.678278391127 416.545733378928,-538.996579393255 " style="fill: rgb(157,116,59); fill-opacity: 1; stroke: rgb(0,0,0); stroke-width: 3" />
	<polygon points="419.738601671951,-168.011065491521 414.337363077285,-147.499916009649 440.150701668101,-148.101684299399 445.55194026277,-168.612833781275 " style="fill: rgb(157,116,59); fill-opacity: 1; stroke: rgb(0,0,0); stroke-width: 3" />
	<polygon points="478.163732984479,-123.080741006163 454.800660489948,-132.763518244017 451.816476002611,-107.650096048543 475.17954849714,-97.9673188106949 " style="fill: rgb(157,116,59); fill-opacity: 1; stroke: rgb(0,0,0); stroke-width: 3" />
	<polygon points="413.097311971997,-147.574764096382 384.300509336531,-147.780164665622 379.79385702616,-122.894839343739 408.590659661618,-122.689438774497 " style="fill: rgb(157,116,59); fill-opacity: 1; stroke: rgb(0,0,0); stroke-width: 3" />
	<polygon points="437.311881502236,-534.678278391127 457.044982127165,-550.495802569987 436.278834003859,-554.814103572115 416.545733378928,-538.996579393255 " style="fill: rgb(157,116,59); fill-opacity: 1; stroke: rgb(0,0,0); stroke-width: 3" />
	<polygon points="424.441435420565,-504.793087176146 445.207583543874,-500.474786174018 425.894799979576,-516.802851656938 405.128651856269,-521.121152659071 " style="fill: rgb(157,116,59); fill-opacity: 1; stroke: rgb(0,0,0); stroke-width: 3" />
	<polygon points="154.517434024491,-184.844089853988 140.767571812845,-200.994071915389 120.135944387622,-205.915106482524 133.885806599269,-189.765124421124 " style="fill: rgb(157,116,59); fill-opacity: 1; stroke: rgb(0,0,0); stroke-width: 3" />
	<polygon points="412.840676107572,-501.362475745587 432.153459671869,-485.03441026266 424.441435420565,-504.793087176146 405.128651856269,-521.121152659071 " style="fill: rgb(157,116,59); fill-opacity: 1; stroke: rgb(0,0,0); stroke-width: 3" />
	<polygon points="351.903984468021,-528.137099146298 377.724336407481,-528.137099146296 371.846532713943,-548.516796277616 346.02618077449,-548.51679627762 " style="fill: rgb(157,116,59); fill-opacity: 1; stroke: rgb(0,0,0); stroke-width: 3" />
	<polygon points="317.240326127078,-108.198607049879 288.481072340867,-109.682976639233 309.217983944305,-89.7010215654192 337.977237730508,-88.2166519760767 " style="fill: rgb(157,116,59); fill-opacity: 1; stroke: rgb(0,0,0); stroke-width: 3" />
	<polygon points="93.6970449357734,-356.540579593416 80.7238302652439,-378.865146227317 64.9905868961273,-402.984911659608 60.5767005527315,-378.082965174079 73.5499152232613,-355.758398540177 89.2831585923769,-331.638633107886 " style="fill: rgb(186,145,77); fill-opacity: 1; stroke: rgb(0,0,0); stroke-width: 3" />
	<polygon points="298.912946129219,-522.876053392385 296.787129663529,-543.979643982086 268.027875877266,-542.495274392747 270.153692342947,-521.391683803052 " style="fill: rgb(157,116,59); fill-opacity: 1; stroke: rgb(0,0,0); stroke-width: 3" />
	<polygon points="303.202182435581,-268.184643165879 277.3818304961,-268.184643165885 283.259634189638,-247.804946034563 309.07998612911,-247.804946034552 " style="fill: rgb(157,116,59); fill-opacity: 1; stroke: rgb(0,0,0); stroke-width: 3" />
	<polygon points="505.682132059948,-306.463056503933 504.647044251039,-281.194144286544 515.511322596858,-299.410842325656 516.546410405771,-324.679754543045 " style="fill: rgb(157,116,59); fill-opacity: 1; stroke: rgb(0,0,0); stroke-width: 3" />
	<polygon points="64.9905868961273,-402.984911659608 37.913886343397,-412.790538544131 33.5,-387.88859205861 60.5767005527315,-378.082965174079 " style="fill: rgb(157,116,59); fill-opacity: 1; stroke: rgb(0,0,0); stroke-width: 3" />
	<polygon points="397.283630858038,-486.94516065129 412.840676107572,-501.362475745587 404.894035537207,-521.027966715042 389.33699028767,-506.610651620742 " style="fill: rgb(157,116,59); fill-opacity: 1; stroke: rgb(0,0,0); stroke-width: 3" />
	<polygon points="507.266557225449,-343.752377759998 516.546410405771,-324.679754543045 537.58498561197,-321.985504235866 528.305132431638,-341.058127452817 " style="fill: rgb(157,116,59); fill-opacity: 1; stroke: rgb(0,0,0); stroke-width: 3" />
	<polygon points="184.492232101368,-230.501370144353 170.742369889698,-246.651352205742 156.490761340954,-225.120392448858 170.24062355261,-208.970410387462 " style="fill: rgb(157,116,59); fill-opacity: 1; stroke: rgb(0,0,0); stroke-width: 3" />
	<polygon points="289.020725001324,-166.940556236525 268.72756167234,-151.848278292969 289.614756940464,-132.023467947055 309.907920269451,-147.115745890606 " style="fill: rgb(157,116,59); fill-opacity: 1; stroke: rgb(0,0,0); stroke-width: 3" />
	<polygon points="337.977237730508,-88.2166519760767 309.217983944305,-89.7010215654192 327.004671352285,-70.9840686795983 355.763925138484,-69.4996990902638 " style="fill: rgb(157,116,59); fill-opacity: 1; stroke: rgb(0,0,0); stroke-width: 3" />
	<polygon points="364.499278096731,-145.630263122472 335.740024310518,-147.114632711825 309.919672371068,-147.114632711827 290.606888806572,-130.786567228948 319.366142592785,-129.302197639594 345.186494532234,-129.302197639593 " style="fill: rgb(186,145,77); fill-opacity: 1; stroke: rgb(0,0,0); stroke-width: 3" />
	<polygon points="409.236216028943,-213.195318908065 413.38742594884,-188.248239166676 439.200764539665,-188.850007456436 435.049554619771,-213.797087197823 " style="fill: rgb(157,116,59); fill-opacity: 1; stroke: rgb(0,0,0); stroke-width: 3" />
	<polygon points="384.59062331336,-188.453639735919 361.708835386052,-205.938542156869 349.668490075626,-188.476849334297 372.550278002929,-170.991946913348 " style="fill: rgb(157,116,59); fill-opacity: 1; stroke: rgb(0,0,0); stroke-width: 3" />
	<polygon points="346.026180774474,-507.757402014978 371.846532713937,-507.757402014977 377.724336407481,-528.137099146296 351.903984468021,-528.137099146298 " style="fill: rgb(157,116,59); fill-opacity: 1; stroke: rgb(0,0,0); stroke-width: 3" />
	<polygon points="496.417124217621,-324.211022269974 492.848457689379,-299.173970713713 500.225757451794,-279.287893180935 503.794423980031,-304.324944737196 " style="fill: rgb(157,116,59); fill-opacity: 1; stroke: rgb(0,0,0); stroke-width: 3" />
	<polygon points="425.157055465562,-431.204692351579 438.906917677211,-415.054710290178 460.009114818587,-428.993383370104 446.259252606938,-445.143365431502 " style="fill: rgb(157,116,59); fill-opacity: 1; stroke: rgb(0,0,0); stroke-width: 3" />
	<polygon points="292.624188623456,-486.830902176669 313.085118140175,-507.095363549541 298.912946129219,-522.876053392385 278.452016612502,-502.611592019515 " style="fill: rgb(157,116,59); fill-opacity: 1; stroke: rgb(0,0,0); stroke-width: 3" />
	<polygon points="471.64232146658,-299.598727025427 478.782419872333,-279.626255316084 499.988556095118,-279.20149900436 492.848457689379,-299.173970713713 " style="fill: rgb(157,116,59); fill-opacity: 1; stroke: rgb(0,0,0); stroke-width: 3" />
	<polygon points="170.24062355261,-208.970410387462 156.490761340954,-225.120392448858 140.767571812845,-200.994071915389 154.517434024491,-184.844089853988 " style="fill: rgb(157,116,59); fill-opacity: 1; stroke: rgb(0,0,0); stroke-width: 3" />
	<polygon points="183.958205362031,-469.946204200892 201.906498783378,-488.50824443194 185.339819957234,-501.753084336429 167.391526535889,-483.191044105388 " style="fill: rgb(157,116,59); fill-opacity: 1; stroke: rgb(0,0,0); stroke-width: 3" />
	<polygon points="97.3239657867378,-188.339223468196 76.1771868796684,-173.523545416392 89.9270490912985,-157.373563354991 111.073827998373,-172.189241406794 " style="fill: rgb(157,116,59); fill-opacity: 1; stroke: rgb(0,0,0); stroke-width: 3" />
	<polygon points="475.21098799482,-324.635778581696 471.64232146658,-299.598727025427 492.848457689379,-299.173970713713 496.417124217621,-324.211022269974 " style="fill: rgb(157,116,59); fill-opacity: 1; stroke: rgb(0,0,0); stroke-width: 3" />
	<polygon points="337.734279135119,-168.231061839847 311.913927195665,-168.231061839848 309.919672371068,-147.114632711827 335.740024310518,-147.114632711825 " style="fill: rgb(157,116,59); fill-opacity: 1; stroke: rgb(0,0,0); stroke-width: 3" />
	<polygon points="414.337363077285,-147.499916009649 411.353178589951,-122.38649381418 437.166517180764,-122.988262103924 440.150701668101,-148.101684299399 " style="fill: rgb(157,116,59); fill-opacity: 1; stroke: rgb(0,0,0); stroke-width: 3" />
	<polygon points="342.457514245992,-53.6489358731567 368.277866185418,-53.6489358731591 382.0277283971,-69.7989179345725 356.20737645767,-69.7989179345751 " style="fill: rgb(157,116,59); fill-opacity: 1; stroke: rgb(0,0,0); stroke-width: 3" />
	<polygon points="446.699964819859,-304.67352398592 427.414008009714,-287.505459325179 427.882037553566,-266.300234031157 447.167994363707,-283.468298691897 " style="fill: rgb(157,116,59); fill-opacity: 1; stroke: rgb(0,0,0); stroke-width: 3" />
	<polygon points="364.079434975748,-88.3609581656486 338.259083036313,-88.3609581656517 356.20737645767,-69.7989179345751 382.0277283971,-69.7989179345725 " style="fill: rgb(157,116,59); fill-opacity: 1; stroke: rgb(0,0,0); stroke-width: 3" />
	<polygon points="413.38742594884,-188.248239166676 419.738601671951,-168.011065491521 445.55194026277,-168.612833781275 439.200764539665,-188.850007456436 " style="fill: rgb(157,116,59); fill-opacity: 1; stroke: rgb(0,0,0); stroke-width: 3" />
	<polygon points="471.250543135812,-361.15225902601 485.53905191831,-345.476827670011 506.482087674974,-348.833892566566 492.193578892467,-364.509323922561 " style="fill: rgb(157,116,59); fill-opacity: 1; stroke: rgb(0,0,0); stroke-width: 3" />
	<polygon points="384.59062331336,-188.453639735919 372.550278002929,-170.991946913348 373.137526357286,-149.78968828851 385.177871667715,-167.251381111082 " style="fill: rgb(157,116,59); fill-opacity: 1; stroke: rgb(0,0,0); stroke-width: 3" />
	<polygon points="496.402278879616,-325.535679720884 505.682132059948,-306.463056503933 516.546410405771,-324.679754543045 507.266557225449,-343.752377759998 " style="fill: rgb(157,116,59); fill-opacity: 1; stroke: rgb(0,0,0); stroke-width: 3" />
	<polygon points="328.828011488907,-206.050027063886 300.031208853439,-206.255427633118 318.631757940909,-188.34704557543 347.428560576372,-188.141645006202 " style="fill: rgb(157,116,59); fill-opacity: 1; stroke: rgb(0,0,0); stroke-width: 3" />
	<polygon points="411.353178589951,-122.38649381418 425.475697012103,-106.561352271679 451.289035602915,-107.163120561423 437.166517180764,-122.988262103924 " style="fill: rgb(157,116,59); fill-opacity: 1; stroke: rgb(0,0,0); stroke-width: 3" />
	<polygon points="271.026179288303,-185.507041673865 250.54658886807,-170.668722778459 268.494882289423,-152.106682547381 288.974472709661,-166.945001442785 " style="fill: rgb(157,116,59); fill-opacity: 1; stroke: rgb(0,0,0); stroke-width: 3" />
	<polygon points="319.366142592785,-129.302197639594 290.606888806572,-130.786567228948 288.481072340867,-109.682976639233 317.240326127078,-108.198607049879 " style="fill: rgb(157,116,59); fill-opacity: 1; stroke: rgb(0,0,0); stroke-width: 3" />
	<polygon points="298.912946129219,-522.876053392385 313.085118140175,-507.095363549541 310.959301674483,-528.198954139258 296.787129663529,-543.979643982086 " style="fill: rgb(157,116,59); fill-opacity: 1; stroke: rgb(0,0,0); stroke-width: 3" />
	<polygon points="390.468427006873,-168.073942604588 384.300509336531,-147.780164665622 413.097311971997,-147.574764096382 419.265229642343,-167.868542035348 " style="fill: rgb(157,116,59); fill-opacity: 1; stroke: rgb(0,0,0); stroke-width: 3" />
	<polygon points="313.085118140175,-507.095363549541 341.619793106641,-510.977419187845 344.846263298152,-531.940971404193 316.311588331687,-528.058915765887 " style="fill: rgb(157,116,59); fill-opacity: 1; stroke: rgb(0,0,0); stroke-width: 3" />
	<polygon points="133.885806599269,-189.765124421124 120.135944387622,-205.915106482524 97.3239657867378,-188.339223468196 111.073827998373,-172.189241406794 " style="fill: rgb(157,116,59); fill-opacity: 1; stroke: rgb(0,0,0); stroke-width: 3" />
	<polygon points="313.080223052794,-54.9843695893344 341.839476838991,-53.5 355.763925138484,-69.4996990902638 327.004671352285,-70.9840686795983 " style="fill: rgb(157,116,59); fill-opacity: 1; stroke: rgb(0,0,0); stroke-width: 3" />
	<polygon points="327.00467135249,-465.385217652242 355.763925138744,-466.869587241597 341.839476839238,-482.869286331852 313.080223052982,-481.384916742495 " style="fill: rgb(157,116,59); fill-opacity: 1; stroke: rgb(0,0,0); stroke-width: 3" />
	<polygon points="413.38742594884,-188.248239166676 384.59062331336,-188.453639735919 390.468427006873,-168.073942604588 419.265229642343,-167.868542035348 " style="fill: rgb(157,116,59); fill-opacity: 1; stroke: rgb(0,0,0); stroke-width: 3" />
	<polygon points="343.192239707627,-108.185768511562 317.371887768186,-108.18576851157 338.259083036313,-88.3609581656517 364.079434975748,-88.3609581656486 " style="fill: rgb(157,116,59); fill-opacity: 1; stroke: rgb(0,0,0); stroke-width: 3" />
	<polygon points="440.150701668101,-148.101684299399 437.166517180764,-122.988262103924 451.816476002611,-107.650096048543 454.800660489948,-132.763518244017 " style="fill: rgb(157,116,59); fill-opacity: 1; stroke: rgb(0,0,0); stroke-width: 3" />
	<polygon points="386.804794647996,-463.928138187348 397.283630858038,-486.94516065129 387.990992578149,-506.011557930885 377.512156368106,-482.994535466942 " style="fill: rgb(157,116,59); fill-opacity: 1; stroke: rgb(0,0,0); stroke-width: 3" />
	<polygon points="452.079927894463,-334.860424788597 448.511261366226,-309.823373232321 471.64232146658,-299.598727025427 475.21098799482,-324.635778581696 " style="fill: rgb(157,116,59); fill-opacity: 1; stroke: rgb(0,0,0); stroke-width: 3" />
	<polygon points="205.731091335695,-438.17993339518 226.618286603816,-458.004743741087 227.964940274505,-483.789954583169 207.077745006388,-463.965144237261 " style="fill: rgb(157,116,59); fill-opacity: 1; stroke: rgb(0,0,0); stroke-width: 3" />
	<polygon points="116.359859145109,-321.833006223363 120.773745488503,-346.734952708897 93.6970449357734,-356.540579593416 89.2831585923769,-331.638633107886 " style="fill: rgb(157,116,59); fill-opacity: 1; stroke: rgb(0,0,0); stroke-width: 3" />
	<polygon points="356.20737645793,-466.570368397267 382.027728397398,-466.570368397266 368.277866185713,-482.720350458681 342.457514246248,-482.720350458681 " style="fill: rgb(157,116,59); fill-opacity: 1; stroke: rgb(0,0,0); stroke-width: 3" />
	<polygon points="345.186494532234,-129.302197639593 319.366142592785,-129.302197639594 317.371887768186,-108.18576851157 343.192239707627,-108.185768511562 " style="fill: rgb(157,116,59); fill-opacity: 1; stroke: rgb(0,0,0); stroke-width: 3" />
	<polygon points="445.55194026277,-168.612833781275 440.150701668101,-148.101684299399 457.402880120249,-135.763006490182 462.804118714915,-156.27415597206 " style="fill: rgb(157,116,59); fill-opacity: 1; stroke: rgb(0,0,0); stroke-width: 3" />
	<polygon points="408.590659661618,-122.689438774497 379.79385702616,-122.894839343739 392.755670917708,-106.105794937786 421.552473553164,-105.900394368548 " style="fill: rgb(157,116,59); fill-opacity: 1; stroke: rgb(0,0,0); stroke-width: 3" />
	<polygon points="347.428560576372,-188.141645006202 318.631757940909,-188.34704557543 340.235811287111,-169.305960773483 369.032613922567,-169.100560204262 " style="fill: rgb(157,116,59); fill-opacity: 1; stroke: rgb(0,0,0); stroke-width: 3" />
	<polygon points="224.038172848542,-312.589449181757 214.084823402061,-331.31941090677 203.876336468451,-312.727277464103 213.829685914928,-293.997315739089 " style="fill: rgb(157,116,59); fill-opacity: 1; stroke: rgb(0,0,0); stroke-width: 3" />
	<polygon points="278.452016612502,-502.611592019515 298.912946129219,-522.876053392385 270.176753492686,-520.997419799384 249.715823975975,-500.732958426509 " style="fill: rgb(157,116,59); fill-opacity: 1; stroke: rgb(0,0,0); stroke-width: 3" />
	<polygon points="183.690951754346,-441.149909180005 201.639245175697,-459.711949411054 201.906498783378,-488.50824443194 183.958205362031,-469.946204200892 " style="fill: rgb(157,116,59); fill-opacity: 1; stroke: rgb(0,0,0); stroke-width: 3" />
	<polygon points="487.860933210687,-152.847002817155 462.804118714915,-156.27415597206 457.402880120249,-135.763006490182 482.459694616015,-132.335853335283 " style="fill: rgb(157,116,59); fill-opacity: 1; stroke: rgb(0,0,0); stroke-width: 3" />
	<polygon points="386.804794647996,-463.928138187348 406.117578212304,-447.600072704413 416.596414422338,-470.617095168355 397.283630858038,-486.94516065129 " style="fill: rgb(157,116,59); fill-opacity: 1; stroke: rgb(0,0,0); stroke-width: 3" />
	<polygon points="139.52317054292,-358.000807049188 112.905229389587,-368.99094991352 94.4422343027646,-358.550717931031 121.060175456113,-347.560575066693 " style="fill: rgb(157,116,59); fill-opacity: 1; stroke: rgb(0,0,0); stroke-width: 3" />
	<polygon points="342.457514246248,-482.720350458681 368.277866185713,-482.720350458681 371.846532713937,-507.757402014977 346.026180774474,-507.757402014978 " style="fill: rgb(157,116,59); fill-opacity: 1; stroke: rgb(0,0,0); stroke-width: 3" />
	<polygon points="140.893624711269,-313.784098134422 145.307511054659,-338.686044619962 120.773745488503,-346.734952708897 116.359859145109,-321.833006223363 " style="fill: rgb(157,116,59); fill-opacity: 1; stroke: rgb(0,0,0); stroke-width: 3" />
	<polygon points="331.998985071067,-267.979242596648 303.202182435581,-268.184643165879 309.07998612911,-247.804946034552 337.876788764587,-247.599545465326 " style="fill: rgb(157,116,59); fill-opacity: 1; stroke: rgb(0,0,0); stroke-width: 3" />
	<polygon points="312.154509345211,-481.822387889953 340.68918431167,-485.704443528261 341.619793106641,-510.977419187845 313.085118140175,-507.095363549541 " style="fill: rgb(157,116,59); fill-opacity: 1; stroke: rgb(0,0,0); stroke-width: 3" />
	<polygon points="414.948568531917,-412.612558908911 428.698430743571,-396.462576847507 438.906917677211,-415.054710290178 425.157055465562,-431.204692351579 " style="fill: rgb(157,116,59); fill-opacity: 1; stroke: rgb(0,0,0); stroke-width: 3" />
	<polygon points="448.511261366226,-309.823373232321 454.247655710065,-289.40342192591 477.378715810419,-279.178775719016 471.64232146658,-299.598727025427 " style="fill: rgb(157,116,59); fill-opacity: 1; stroke: rgb(0,0,0); stroke-width: 3" />
	<polygon points="184.558798205597,-415.344145931918 202.507091626948,-433.906186162969 201.639245175697,-459.711949411054 183.690951754346,-441.149909180005 " style="fill: rgb(157,116,59); fill-opacity: 1; stroke: rgb(0,0,0); stroke-width: 3" />
	<polygon points="226.7130469042,-435.075392858249 247.600242172322,-454.900203204152 226.618286603816,-458.004743741087 205.731091335695,-438.17993339518 " style="fill: rgb(157,116,59); fill-opacity: 1; stroke: rgb(0,0,0); stroke-width: 3" />
	<polygon points="437.791419111961,-350.535856144596 452.079927894463,-334.860424788597 461.653402733682,-353.787368834776 447.364893951186,-369.462800190775 " style="fill: rgb(157,116,59); fill-opacity: 1; stroke: rgb(0,0,0); stroke-width: 3" />
	<polygon points="317.371887768447,-428.18351782027 343.192239707918,-428.183517820266 364.079434976044,-448.008328166188 338.259083036576,-448.00832816619 " style="fill: rgb(157,116,59); fill-opacity: 1; stroke: rgb(0,0,0); stroke-width: 3" />
	<polygon points="386.554962880609,-442.719219886038 405.867746444906,-426.391154403088 406.117578212304,-447.600072704413 386.804794647996,-463.928138187348 " style="fill: rgb(157,116,59); fill-opacity: 1; stroke: rgb(0,0,0); stroke-width: 3" />
	<polygon points="342.027998684492,-222.652465723932 328.828011488907,-206.050027063886 347.438524658091,-188.151999969849 360.638511853679,-204.754438629883 " style="fill: rgb(157,116,59); fill-opacity: 1; stroke: rgb(0,0,0); stroke-width: 3" />
	<polygon points="275.239509125082,-467.739975195039 292.624188623456,-486.830902176669 278.353944496049,-502.522962715951 260.969264997676,-483.432035734332 " style="fill: rgb(157,116,59); fill-opacity: 1; stroke: rgb(0,0,0); stroke-width: 3" />
	<polygon points="420.951891353591,-306.604142294838 401.665934543441,-289.436077634095 427.414008009714,-287.505459325179 446.699964819859,-304.67352398592 " style="fill: rgb(157,116,59); fill-opacity: 1; stroke: rgb(0,0,0); stroke-width: 3" />
	<polygon points="342.027998684492,-222.652465723932 313.231196049021,-222.857866293164 300.031208853439,-206.255427633118 328.828011488907,-206.050027063886 " style="fill: rgb(157,116,59); fill-opacity: 1; stroke: rgb(0,0,0); stroke-width: 3" />
	<polygon points="316.847083866998,-188.055872185762 291.026731927538,-188.055872185768 311.913927195665,-168.231061839848 337.734279135119,-168.231061839847 " style="fill: rgb(157,116,59); fill-opacity: 1; stroke: rgb(0,0,0); stroke-width: 3" />
	<polygon points="170.742369889698,-246.651352205742 150.503970452572,-252.99862088191 136.25236190383,-231.467661125037 156.490761340954,-225.120392448858 " style="fill: rgb(157,116,59); fill-opacity: 1; stroke: rgb(0,0,0); stroke-width: 3" />
	<polygon points="467.303897643934,-447.789786919281 481.053759855592,-431.63980485789 487.023254756892,-451.992833184108 473.273392545232,-468.142815245489 " style="fill: rgb(157,116,59); fill-opacity: 1; stroke: rgb(0,0,0); stroke-width: 3" />
	<polygon points="447.364893951186,-369.462800190775 461.653402733682,-353.787368834776 485.53905191831,-345.476827670011 471.250543135812,-361.15225902601 " style="fill: rgb(157,116,59); fill-opacity: 1; stroke: rgb(0,0,0); stroke-width: 3" />
	<polygon points="291.026731927538,-188.055872185768 289.020725001324,-166.940556236525 309.907920269451,-147.115745890606 311.913927195665,-168.231061839848 " style="fill: rgb(157,116,59); fill-opacity: 1; stroke: rgb(0,0,0); stroke-width: 3" />
	<polygon points="367.26900607033,-425.551155225415 386.554962880609,-442.719219886038 386.086933336907,-463.924445180065 366.800976526627,-446.75638051944 " style="fill: rgb(157,116,59); fill-opacity: 1; stroke: rgb(0,0,0); stroke-width: 3" />
	<polygon points="367.26900607033,-425.551155225415 386.581789634632,-409.223089742463 405.867746444906,-426.391154403088 386.554962880609,-442.719219886038 " style="fill: rgb(157,116,59); fill-opacity: 1; stroke: rgb(0,0,0); stroke-width: 3" />
	<polygon points="338.259083036576,-448.00832816619 364.079434976044,-448.008328166188 382.027728397398,-466.570368397266 356.20737645793,-466.570368397267 " style="fill: rgb(157,116,59); fill-opacity: 1; stroke: rgb(0,0,0); stroke-width: 3" />
	<polygon points="204.80427462779,-320.521976502986 209.218160971172,-345.423922988541 188.936284086053,-351.630862769236 184.52239774267,-326.728916283688 " style="fill: rgb(157,116,59); fill-opacity: 1; stroke: rgb(0,0,0); stroke-width: 3" />
	<polygon points="309.217983944513,-446.668264766417 337.977237730769,-448.152634355767 355.763925138744,-466.869587241597 327.00467135249,-465.385217652242 " style="fill: rgb(157,116,59); fill-opacity: 1; stroke: rgb(0,0,0); stroke-width: 3" />
	<polygon points="396.434615016344,-250.071825720712 390.556811322777,-229.692128589409 417.259320489765,-240.475172482813 423.137124183345,-260.854869614121 " style="fill: rgb(157,116,59); fill-opacity: 1; stroke: rgb(0,0,0); stroke-width: 3" />
	<polygon points="308.942001857789,-446.950771065479 326.445320920102,-465.932983688943 312.273148909159,-481.713673531787 294.769829846836,-462.731460908324 " style="fill: rgb(157,116,59); fill-opacity: 1; stroke: rgb(0,0,0); stroke-width: 3" />
	<polygon points="240.726399891127,-414.022714418524 261.613595159251,-433.847524764433 247.600242172322,-454.900203204152 226.7130469042,-435.075392858249 " style="fill: rgb(157,116,59); fill-opacity: 1; stroke: rgb(0,0,0); stroke-width: 3" />
	<polygon points="163.770506141481,-349.126276602453 139.52317054292,-358.000807049188 121.060175456113,-347.560575066693 145.307511054659,-338.686044619962 " style="fill: rgb(157,116,59); fill-opacity: 1; stroke: rgb(0,0,0); stroke-width: 3" />
	<polygon points="337.876788764587,-247.599545465326 309.07998612911,-247.804946034552 313.231196049021,-222.857866293164 342.027998684492,-222.652465723932 " style="fill: rgb(157,116,59); fill-opacity: 1; stroke: rgb(0,0,0); stroke-width: 3" />
	<polygon points="438.906917677211,-415.054710290178 428.698430743571,-396.462576847507 449.965027656105,-410.149109906761 460.173514589731,-428.741243349421 " style="fill: rgb(157,116,59); fill-opacity: 1; stroke: rgb(0,0,0); stroke-width: 3" />
	<polygon points="337.876788764587,-247.599545465326 342.027998684492,-222.652465723932 361.708835386052,-205.938542156869 384.59062331336,-188.453639735919 380.439413393456,-213.400719477313 360.758576691895,-230.114643044377 " style="fill: rgb(186,145,77); fill-opacity: 1; stroke: rgb(0,0,0); stroke-width: 3" />
	<polygon points="175.701899412479,-268.618808840298 158.799488378243,-281.432439576898 152.829993476972,-261.079411250697 169.732404511206,-248.265780514094 " style="fill: rgb(157,116,59); fill-opacity: 1; stroke: rgb(0,0,0); stroke-width: 3" />
	<polygon points="437.791419111961,-350.535856144596 434.222752583723,-325.498804588317 448.511261366226,-309.823373232321 452.079927894463,-334.860424788597 " style="fill: rgb(157,116,59); fill-opacity: 1; stroke: rgb(0,0,0); stroke-width: 3" />
	<polygon points="408.402400644227,-325.498804588336 422.152262855912,-309.348822526923 447.972614795407,-309.348822526904 434.222752583723,-325.498804588317 " style="fill: rgb(157,116,59); fill-opacity: 1; stroke: rgb(0,0,0); stroke-width: 3" />
	<polygon points="372.776286622897,-290.277919834427 350.308216440731,-272.264484467745 379.083295884136,-271.127455687786 401.551366066292,-289.140891054468 " style="fill: rgb(157,116,59); fill-opacity: 1; stroke: rgb(0,0,0); stroke-width: 3" />
	<polygon points="366.661396896842,-369.152219825944 380.411259108508,-353.00223776453 378.844313806453,-374.154668212226 365.094451594784,-390.304650273634 " style="fill: rgb(157,116,59); fill-opacity: 1; stroke: rgb(0,0,0); stroke-width: 3" />
	<polygon points="187.556458516742,-266.207141394178 193.525953418026,-286.560169720391 175.701899412479,-268.618808840298 169.732404511206,-248.265780514094 " style="fill: rgb(157,116,59); fill-opacity: 1; stroke: rgb(0,0,0); stroke-width: 3" />
	<polygon points="273.078438506179,-206.61791241685 271.026179288303,-185.507041673865 288.974472709661,-166.945001442785 291.026731927538,-188.055872185768 " style="fill: rgb(157,116,59); fill-opacity: 1; stroke: rgb(0,0,0); stroke-width: 3" />
	<polygon points="283.259634189638,-247.804946034563 268.971125407126,-232.129514678573 272.539791935347,-207.092463122285 286.828300717859,-222.767894478264 " style="fill: rgb(157,116,59); fill-opacity: 1; stroke: rgb(0,0,0); stroke-width: 3" />
	<polygon points="204.474717474617,-237.613395856629 190.724855262949,-253.763377918021 170.742369889698,-246.651352205742 184.492232101368,-230.501370144353 " style="fill: rgb(157,116,59); fill-opacity: 1; stroke: rgb(0,0,0); stroke-width: 3" />
	<polygon points="250.546588868073,-365.700563553308 268.494882289427,-384.262603784383 249.758294014131,-394.203473526322 231.810000592778,-375.641433295256 " style="fill: rgb(157,116,59); fill-opacity: 1; stroke: rgb(0,0,0); stroke-width: 3" />
	<polygon points="391.419944515033,-401.977972591071 405.169806726695,-385.827990529665 428.698430743571,-396.462576847507 414.948568531917,-412.612558908911 " style="fill: rgb(157,116,59); fill-opacity: 1; stroke: rgb(0,0,0); stroke-width: 3" />
	<polygon points="248.61519078221,-279.221393081596 234.865328570536,-295.371375142996 213.82068353354,-292.724953655198 227.570545745215,-276.5749715938 " style="fill: rgb(157,116,59); fill-opacity: 1; stroke: rgb(0,0,0); stroke-width: 3" />
	<polygon points="345.160937369619,-268.849354059798 339.283133676062,-248.469656928481 366.530361783722,-239.148359171751 372.408165477287,-259.52805630306 " style="fill: rgb(157,116,59); fill-opacity: 1; stroke: rgb(0,0,0); stroke-width: 3" />
	<polygon points="272.539791935347,-207.092463122285 249.408731834977,-196.867816915416 243.672337491115,-176.447865609012 266.803397591485,-186.672511815881 " style="fill: rgb(157,116,59); fill-opacity: 1; stroke: rgb(0,0,0); stroke-width: 3" />
	<polygon points="411.971067172466,-350.535856144621 408.402400644227,-325.498804588336 434.222752583723,-325.498804588317 437.791419111961,-350.535856144596 " style="fill: rgb(157,116,59); fill-opacity: 1; stroke: rgb(0,0,0); stroke-width: 3" />
	<polygon points="221.601050843924,-256.221943267589 207.851188632249,-272.37192532898 190.724855262949,-253.763377918021 204.474717474617,-237.613395856629 " style="fill: rgb(157,116,59); fill-opacity: 1; stroke: rgb(0,0,0); stroke-width: 3" />
	<polygon points="290.60688880677,-405.582719102891 288.481072341076,-426.68630969261 274.308900330118,-442.466999535452 276.434716795811,-421.363408945733 " style="fill: rgb(157,116,59); fill-opacity: 1; stroke: rgb(0,0,0); stroke-width: 3" />
	<polygon points="345.186494532506,-407.067088692238 364.499278096819,-390.739023209285 386.581789634632,-409.223089742463 367.26900607033,-425.551155225415 " style="fill: rgb(157,116,59); fill-opacity: 1; stroke: rgb(0,0,0); stroke-width: 3" />
	<polygon points="192.708490552039,-295.940441537091 182.755141105559,-314.670403262104 159.148309795884,-305.598091156638 169.101659242362,-286.868129431626 " style="fill: rgb(157,116,59); fill-opacity: 1; stroke: rgb(0,0,0); stroke-width: 3" />
	<polygon points="372.408165477287,-259.52805630306 366.530361783722,-239.148359171751 390.556811322777,-229.692128589409 396.434615016344,-250.071825720712 " style="fill: rgb(157,116,59); fill-opacity: 1; stroke: rgb(0,0,0); stroke-width: 3" />
	<polygon points="250.358417065525,-395.125495666116 271.24561233365,-414.950306012027 261.613595159251,-433.847524764433 240.726399891127,-414.022714418524 " style="fill: rgb(157,116,59); fill-opacity: 1; stroke: rgb(0,0,0); stroke-width: 3" />
	<polygon points="298.898790445671,-329.751373914913 327.669832698573,-330.986347235371 345.61812611992,-349.548387466447 316.847083867024,-348.313414145991 " style="fill: rgb(157,116,59); fill-opacity: 1; stroke: rgb(0,0,0); stroke-width: 3" />
	<polygon points="159.356619798091,-324.224330116913 163.770506141481,-349.126276602453 145.307511054659,-338.686044619962 140.893624711269,-313.784098134422 " style="fill: rgb(157,116,59); fill-opacity: 1; stroke: rgb(0,0,0); stroke-width: 3" />
	<polygon points="401.551366066292,-289.140891054468 379.083295884136,-271.127455687786 404.813663312864,-268.973676158239 427.281733495014,-286.987111524921 " style="fill: rgb(157,116,59); fill-opacity: 1; stroke: rgb(0,0,0); stroke-width: 3" />
	<polygon points="274.308900330118,-442.466999535452 294.769829846836,-462.731460908324 312.154509345211,-481.822387889953 313.085118140175,-507.095363549541 292.624188623456,-486.830902176669 275.239509125082,-467.739975195039 " style="fill: rgb(186,145,77); fill-opacity: 1; stroke: rgb(0,0,0); stroke-width: 3" />
	<polygon points="221.244993062167,-394.033313223707 239.19328648352,-412.595353454767 223.675012943995,-432.564642820561 205.726719522643,-414.002602589509 " style="fill: rgb(157,116,59); fill-opacity: 1; stroke: rgb(0,0,0); stroke-width: 3" />
	<polygon points="309.919672371083,-389.254653619939 335.740024310558,-389.254653619933 364.499278096819,-390.739023209285 345.186494532506,-407.067088692238 319.36614259303,-407.067088692244 290.60688880677,-405.582719102891 " style="fill: rgb(186,145,77); fill-opacity: 1; stroke: rgb(0,0,0); stroke-width: 3" />
	<polygon points="268.971125407126,-232.129514678573 245.840065306764,-221.904868471698 249.408731834977,-196.867816915416 272.539791935347,-207.092463122285 " style="fill: rgb(157,116,59); fill-opacity: 1; stroke: rgb(0,0,0); stroke-width: 3" />
	<polygon points="327.672469103965,-330.923315846006 341.422331315648,-314.773333784594 359.421551403158,-333.285995681811 345.671689191486,-349.435977743224 " style="fill: rgb(157,116,59); fill-opacity: 1; stroke: rgb(0,0,0); stroke-width: 3" />
	<polygon points="184.52239774267,-326.728916283688 188.936284086053,-351.630862769236 163.770506141481,-349.126276602453 159.356619798091,-324.224330116913 " style="fill: rgb(157,116,59); fill-opacity: 1; stroke: rgb(0,0,0); stroke-width: 3" />
	<polygon points="268.72756167234,-384.521008038794 289.614756940467,-404.345818384706 271.24561233365,-414.950306012027 250.358417065525,-395.125495666116 " style="fill: rgb(157,116,59); fill-opacity: 1; stroke: rgb(0,0,0); stroke-width: 3" />
	<polygon points="316.847083867024,-348.313414145991 345.61812611992,-349.548387466447 366.527500324073,-369.349804128169 337.756458071177,-368.114830807713 " style="fill: rgb(157,116,59); fill-opacity: 1; stroke: rgb(0,0,0); stroke-width: 3" />
	<polygon points="205.726719522643,-414.002602589509 223.675012943995,-432.564642820561 202.507091626948,-433.906186162969 184.558798205597,-415.344145931918 " style="fill: rgb(157,116,59); fill-opacity: 1; stroke: rgb(0,0,0); stroke-width: 3" />
	<polygon points="392.169046972778,-307.523870934163 372.883090162621,-290.355806273419 401.665934543441,-289.436077634095 420.951891353591,-306.604142294838 " style="fill: rgb(157,116,59); fill-opacity: 1; stroke: rgb(0,0,0); stroke-width: 3" />
	<polygon points="250.306632815648,-340.752928214868 243.846500279212,-360.955584452006 222.666883798839,-362.097721557678 229.127016335266,-341.895065320531 " style="fill: rgb(157,116,59); fill-opacity: 1; stroke: rgb(0,0,0); stroke-width: 3" />
	<polygon points="231.810000592778,-375.641433295256 249.758294014131,-394.203473526322 239.19328648352,-412.595353454767 221.244993062167,-394.033313223707 " style="fill: rgb(157,116,59); fill-opacity: 1; stroke: rgb(0,0,0); stroke-width: 3" />
	<polygon points="207.851188632249,-272.37192532898 213.82068353354,-292.724953655198 193.525953418026,-286.560169720391 187.556458516742,-266.207141394178 " style="fill: rgb(157,116,59); fill-opacity: 1; stroke: rgb(0,0,0); stroke-width: 3" />
	<polygon points="291.026731927539,-348.313414145992 316.847083867024,-348.313414145991 337.73427913515,-368.138224491911 311.913927195668,-368.138224491913 " style="fill: rgb(157,116,59); fill-opacity: 1; stroke: rgb(0,0,0); stroke-width: 3" />
	<polygon points="345.186494532506,-407.067088692238 367.26900607033,-425.551155225415 366.583302855701,-446.750458103708 344.500791317877,-428.266391570533 " style="fill: rgb(157,116,59); fill-opacity: 1; stroke: rgb(0,0,0); stroke-width: 3" />
	<polygon points="319.36614259303,-407.067088692244 345.186494532506,-407.067088692238 343.192239707918,-428.183517820266 317.371887768447,-428.18351782027 " style="fill: rgb(157,116,59); fill-opacity: 1; stroke: rgb(0,0,0); stroke-width: 3" />
	<polygon points="311.913927195668,-368.138224491913 337.73427913515,-368.138224491911 335.740024310558,-389.254653619933 309.919672371083,-389.254653619939 " style="fill: rgb(157,116,59); fill-opacity: 1; stroke: rgb(0,0,0); stroke-width: 3" />
	<polygon points="298.898790445645,-206.617912416839 273.078438506179,-206.61791241685 291.026731927538,-188.055872185768 316.847083866998,-188.055872185762 " style="fill: rgb(157,116,59); fill-opacity: 1; stroke: rgb(0,0,0); stroke-width: 3" />
	<polygon points="245.183959776461,-314.243633761366 224.038172848542,-312.589449181757 213.829685914928,-293.997315739089 234.975472842841,-295.651500318693 " style="fill: rgb(157,116,59); fill-opacity: 1; stroke: rgb(0,0,0); stroke-width: 3" />
	<polygon points="289.020725001321,-369.428730095232 309.907920269449,-389.25354044115 289.614756940467,-404.345818384706 268.72756167234,-384.521008038794 " style="fill: rgb(157,116,59); fill-opacity: 1; stroke: rgb(0,0,0); stroke-width: 3" />
	<polygon points="383.186873411074,-349.65937401278 379.618206882842,-324.622322456491 408.402400644227,-325.498804588336 411.971067172466,-350.535856144621 " style="fill: rgb(157,116,59); fill-opacity: 1; stroke: rgb(0,0,0); stroke-width: 3" />
	<polygon points="365.094451594784,-390.304650273634 378.844313806453,-374.154668212226 405.169806726695,-385.827990529665 391.419944515033,-401.977972591071 " style="fill: rgb(157,116,59); fill-opacity: 1; stroke: rgb(0,0,0); stroke-width: 3" />
	<polygon points="379.618206882842,-324.622322456491 393.201544585383,-308.332031842664 421.985738346767,-309.208513974509 408.402400644227,-325.498804588336 " style="fill: rgb(157,116,59); fill-opacity: 1; stroke: rgb(0,0,0); stroke-width: 3" />
	<polygon points="213.829685914928,-293.997315739089 203.876336468451,-312.727277464103 182.755141105559,-314.670403262104 192.708490552039,-295.940441537091 " style="fill: rgb(157,116,59); fill-opacity: 1; stroke: rgb(0,0,0); stroke-width: 3" />
	<polygon points="337.876788764615,-288.769740866393 309.079986129129,-288.564340297201 303.202182435581,-268.184643165879 331.998985071057,-268.390043735076 " style="fill: rgb(157,116,59); fill-opacity: 1; stroke: rgb(0,0,0); stroke-width: 3" />
	<polygon points="273.078438506183,-329.751373914913 291.026731927539,-348.313414145992 288.97447270966,-369.424284888972 271.026179288305,-350.862244657894 " style="fill: rgb(157,116,59); fill-opacity: 1; stroke: rgb(0,0,0); stroke-width: 3" />
	<polygon points="341.432846418751,-314.477873985345 337.864179890515,-289.440822429052 360.332250072683,-307.454257795736 379.618206882842,-324.622322456491 383.186873411074,-349.65937401278 360.718803228907,-331.645938646096 " style="fill: rgb(186,145,77); fill-opacity: 1; stroke: rgb(0,0,0); stroke-width: 3" />
	<polygon points="309.07998612911,-247.804946034552 283.259634189638,-247.804946034563 286.828300717859,-222.767894478264 312.648652657327,-222.767894478251 " style="fill: rgb(157,116,59); fill-opacity: 1; stroke: rgb(0,0,0); stroke-width: 3" />
	<polygon points="245.892746472268,-315.850981729305 250.306632815648,-340.752928214868 229.127016335266,-341.895065320531 224.713129991882,-316.993118834975 " style="fill: rgb(157,116,59); fill-opacity: 1; stroke: rgb(0,0,0); stroke-width: 3" />
	<polygon points="202.220327684907,-368.467293541372 176.934239368773,-368.016661661554 163.725505653903,-351.421180798584 189.011593970024,-351.871812678403 " style="fill: rgb(157,116,59); fill-opacity: 1; stroke: rgb(0,0,0); stroke-width: 3" />
	<polygon points="411.971067172466,-350.535856144621 437.791419111961,-350.535856144596 443.669222805505,-370.915553275916 417.848870866012,-370.915553275943 " style="fill: rgb(157,116,59); fill-opacity: 1; stroke: rgb(0,0,0); stroke-width: 3" />
	<polygon points="379.618206882842,-324.622322456491 360.332250072683,-307.454257795736 372.883090162621,-290.355806273419 392.169046972778,-307.523870934163 " style="fill: rgb(157,116,59); fill-opacity: 1; stroke: rgb(0,0,0); stroke-width: 3" />
	<polygon points="207.851188632249,-272.37192532898 187.785473132427,-265.498229605106 170.659139763127,-246.889682194149 190.724855262949,-253.763377918021 " style="fill: rgb(157,116,59); fill-opacity: 1; stroke: rgb(0,0,0); stroke-width: 3" />
	<polygon points="288.481072341076,-426.68630969261 317.240326127332,-428.17067928196 337.977237730769,-448.152634355767 309.217983944513,-446.668264766417 " style="fill: rgb(157,116,59); fill-opacity: 1; stroke: rgb(0,0,0); stroke-width: 3" />
	<polygon points="288.481072341076,-426.68630969261 308.942001857789,-446.950771065479 294.769829846836,-462.731460908324 274.308900330118,-442.466999535452 " style="fill: rgb(157,116,59); fill-opacity: 1; stroke: rgb(0,0,0); stroke-width: 3" />
	<polygon points="337.756458071177,-368.114830807713 366.527500324073,-369.349804128169 364.584730234934,-390.471032212845 335.813687982046,-389.236058892393 " style="fill: rgb(157,116,59); fill-opacity: 1; stroke: rgb(0,0,0); stroke-width: 3" />
	<polygon points="383.186873411074,-349.65937401278 411.971067172466,-350.535856144621 417.372305767109,-371.047005626498 388.588112005718,-370.170523494658 " style="fill: rgb(157,116,59); fill-opacity: 1; stroke: rgb(0,0,0); stroke-width: 3" />
	<polygon points="224.713129991882,-316.993118834975 229.127016335266,-341.895065320531 222.426894686054,-362.019403851521 218.013008342671,-337.117457365965 " style="fill: rgb(157,116,59); fill-opacity: 1; stroke: rgb(0,0,0); stroke-width: 3" />
	<polygon points="337.876788764615,-288.769740866393 331.998985071057,-268.390043735076 339.283133676062,-248.469656928481 345.160937369619,-268.849354059798 " style="fill: rgb(157,116,59); fill-opacity: 1; stroke: rgb(0,0,0); stroke-width: 3" />
	<polygon points="345.671689191486,-349.435977743224 359.421551403158,-333.285995681811 380.411259108508,-353.00223776453 366.661396896842,-369.152219825944 " style="fill: rgb(157,116,59); fill-opacity: 1; stroke: rgb(0,0,0); stroke-width: 3" />
	<polygon points="227.570545745215,-276.5749715938 213.82068353354,-292.724953655198 207.851188632249,-272.37192532898 221.601050843924,-256.221943267589 " style="fill: rgb(157,116,59); fill-opacity: 1; stroke: rgb(0,0,0); stroke-width: 3" />
	<polygon points="290.60688880677,-405.582719102891 319.36614259303,-407.067088692244 317.240326127332,-428.17067928196 288.481072341076,-426.68630969261 " style="fill: rgb(157,116,59); fill-opacity: 1; stroke: rgb(0,0,0); stroke-width: 3" />
	<polygon points="272.205927440865,-270.10731192526 258.456065229191,-286.257293986662 234.865328570536,-295.371375142996 248.61519078221,-279.221393081596 " style="fill: rgb(157,116,59); fill-opacity: 1; stroke: rgb(0,0,0); stroke-width: 3" />
	<polygon points="277.3818304961,-268.184643165885 260.42190292432,-255.447238085407 266.299706617848,-235.06754095409 283.259634189638,-247.804946034563 " style="fill: rgb(157,116,59); fill-opacity: 1; stroke: rgb(0,0,0); stroke-width: 3" />
	<polygon points="283.259634189644,-288.564340297204 277.3818304961,-268.184643165885 303.202182435581,-268.184643165879 309.079986129129,-288.564340297201 " style="fill: rgb(157,116,59); fill-opacity: 1; stroke: rgb(0,0,0); stroke-width: 3" />
	<polygon points="218.013008342671,-337.117457365965 222.426894686054,-362.019403851521 209.218160971172,-345.423922988541 204.80427462779,-320.521976502986 " style="fill: rgb(157,116,59); fill-opacity: 1; stroke: rgb(0,0,0); stroke-width: 3" />
	<polygon points="260.42190292432,-255.447238085407 235.45176750537,-251.437042506427 241.329571198896,-231.057345375113 266.299706617848,-235.06754095409 " style="fill: rgb(157,116,59); fill-opacity: 1; stroke: rgb(0,0,0); stroke-width: 3" />
	<polygon points="360.332250072683,-307.454257795736 337.864179890515,-289.440822429052 350.308216440731,-272.264484467745 372.776286622897,-290.277919834427 " style="fill: rgb(157,116,59); fill-opacity: 1; stroke: rgb(0,0,0); stroke-width: 3" />
	<polygon points="273.078438506183,-329.751373914913 298.898790445671,-329.751373914913 316.847083867024,-348.313414145991 291.026731927539,-348.313414145992 " style="fill: rgb(157,116,59); fill-opacity: 1; stroke: rgb(0,0,0); stroke-width: 3" />
	<polygon points="268.664552162806,-304.849427429343 245.183959776461,-314.243633761366 234.975472842841,-295.651500318693 258.456065229191,-286.257293986662 " style="fill: rgb(157,116,59); fill-opacity: 1; stroke: rgb(0,0,0); stroke-width: 3" />
	<polygon points="298.898790445671,-329.751373914913 312.648652657358,-313.6013918535 341.422331315648,-314.773333784594 327.672469103965,-330.923315846006 " style="fill: rgb(157,116,59); fill-opacity: 1; stroke: rgb(0,0,0); stroke-width: 3" />
	<polygon points="282.414414374492,-288.699445367942 268.664552162806,-304.849427429343 258.456065229191,-286.257293986662 272.205927440865,-270.10731192526 " style="fill: rgb(157,116,59); fill-opacity: 1; stroke: rgb(0,0,0); stroke-width: 3" />
	<polygon points="222.426894686054,-362.019403851521 202.220327684907,-368.467293541372 189.011593970024,-351.871812678403 209.218160971172,-345.423922988541 " style="fill: rgb(157,116,59); fill-opacity: 1; stroke: rgb(0,0,0); stroke-width: 3" />
	<polygon points="341.432846418751,-314.477873985345 312.648652657358,-313.6013918535 309.079986129129,-288.564340297201 337.864179890515,-289.440822429052 " style="fill: rgb(157,116,59); fill-opacity: 1; stroke: rgb(0,0,0); stroke-width: 3" />
	<polygon points="291.026731927539,-348.313414145992 311.913927195668,-368.138224491913 309.907920269449,-389.25354044115 289.020725001321,-369.428730095232 " style="fill: rgb(157,116,59); fill-opacity: 1; stroke: rgb(0,0,0); stroke-width: 3" />
	<polygon points="273.078438506183,-329.751373914913 268.036348947095,-350.35375155203 245.264543256561,-361.355305851984 250.306632815648,-340.752928214868 " style="fill: rgb(157,116,59); fill-opacity: 1; stroke: rgb(0,0,0); stroke-width: 3" />
	<polygon points="271.026179288305,-350.862244657894 288.97447270966,-369.424284888972 268.494882289427,-384.262603784383 250.546588868073,-365.700563553308 " style="fill: rgb(157,116,59); fill-opacity: 1; stroke: rgb(0,0,0); stroke-width: 3" />
	<polygon points="268.664552162806,-304.849427429343 273.078438506183,-329.751373914913 250.306632815648,-340.752928214868 245.892746472268,-315.850981729305 " style="fill: rgb(157,116,59); fill-opacity: 1; stroke: rgb(0,0,0); stroke-width: 3" />
	<circle cx="286.828300717868" cy="-313.6013918535" r="2" style="fill: rgb(0,0,0)" />
	<circle cx="312.648652657358" cy="-313.6013918535" r="2" style="fill: rgb(0,0,0)" />
	<circle cx="298.898790445671" cy="-329.751373914913" r="2" style="fill: rgb(0,0,0)" />
	<circle cx="273.078438506183" cy="-329.751373914913" r="2" style="fill: rgb(0,0,0)" />
	<circle cx="283.259634189644" cy="-288.564340297204" r="2" style="fill: rgb(0,0,0)" />
	<circle cx="309.079986129129" cy="-288.564340297201" r="2" style="fill: rgb(0,0,0)" />
	<circle cx="268.664552162806" cy="-304.849427429343" r="2" style="fill: rgb(0,0,0)" />
	<circle cx="282.414414374492" cy="-288.699445367942" r="2" style="fill: rgb(0,0,0)" />
	<circle cx="316.847083867024" cy="-348.313414145991" r="2" style="fill: rgb(0,0,0)" />
	<circle cx="291.026731927539" cy="-348.313414145992" r="2" style="fill: rgb(0,0,0)" />
	<circle cx="341.422331315648" cy="-314.773333784594" r="2" style="fill: rgb(0,0,0)" />
	<circle cx="327.672469103965" cy="-330.923315846006" r="2" style="fill: rgb(0,0,0)" />
	<circle cx="277.3818304961" cy="-268.184643165885" r="2" style="fill: rgb(0,0,0)" />
	<circle cx="303.202182435581" cy="-268.184643165879" r="2" style="fill: rgb(0,0,0)" />
	<circle cx="337.864179890515" cy="-289.440822429052" r="2" style="fill: rgb(0,0,0)" />
	<circle cx="341.432846418751" cy="-314.477873985345" r="2" style="fill: rgb(0,0,0)" />
	<circle cx="258.456065229191" cy="-286.257293986662" r="2" style="fill: rgb(0,0,0)" />
	<circle cx="272.205927440865" cy="-270.10731192526" r="2" style="fill: rgb(0,0,0)" />
	<circle cx="250.306632815648" cy="-340.752928214868" r="2" style="fill: rgb(0,0,0)" />
	<circle cx="245.892746472268" cy="-315.850981729305" r="2" style="fill: rgb(0,0,0)" />
	<circle cx="327.669832698573" cy="-330.986347235371" r="2" style="fill: rgb(0,0,0)" />
	<circle cx="345.61812611992" cy="-349.548387466447" r="2" style="fill: rgb(0,0,0)" />
	<circle cx="337.73427913515" cy="-368.138224491911" r="2" style="fill: rgb(0,0,0)" />
	<circle cx="311.913927195668" cy="-368.138224491913" r="2" style="fill: rgb(0,0,0)" />
	<circle cx="288.97447270966" cy="-369.424284888972" r="2" style="fill: rgb(0,0,0)" />
	<circle cx="271.026179288305" cy="-350.862244657894" r="2" style="fill: rgb(0,0,0)" />
	<circle cx="359.421551403158" cy="-333.285995681811" r="2" style="fill: rgb(0,0,0)" />
	<circle cx="345.671689191486" cy="-349.435977743224" r="2" style="fill: rgb(0,0,0)" />
	<circle cx="283.259634189638" cy="-247.804946034563" r="2" style="fill: rgb(0,0,0)" />
	<circle cx="309.07998612911" cy="-247.804946034552" r="2" style="fill: rgb(0,0,0)" />
	<circle cx="331.998985071057" cy="-268.390043735076" r="2" style="fill: rgb(0,0,0)" />
	<circle cx="337.876788764615" cy="-288.769740866393" r="2" style="fill: rgb(0,0,0)" />
	<circle cx="360.332250072683" cy="-307.454257795736" r="2" style="fill: rgb(0,0,0)" />
	<circle cx="379.618206882842" cy="-324.622322456491" r="2" style="fill: rgb(0,0,0)" />
	<circle cx="383.186873411074" cy="-349.65937401278" r="2" style="fill: rgb(0,0,0)" />
	<circle cx="360.718803228907" cy="-331.645938646096" r="2" style="fill: rgb(0,0,0)" />
	<circle cx="234.865328570536" cy="-295.371375142996" r="2" style="fill: rgb(0,0,0)" />
	<circle cx="248.61519078221" cy="-279.221393081596" r="2" style="fill: rgb(0,0,0)" />
	<circle cx="245.183959776461" cy="-314.243633761366" r="2" style="fill: rgb(0,0,0)" />
	<circle cx="234.975472842841" cy="-295.651500318693" r="2" style="fill: rgb(0,0,0)" />
	<circle cx="229.127016335266" cy="-341.895065320531" r="2" style="fill: rgb(0,0,0)" />
	<circle cx="224.713129991882" cy="-316.993118834975" r="2" style="fill: rgb(0,0,0)" />
	<circle cx="268.036348947095" cy="-350.35375155203" r="2" style="fill: rgb(0,0,0)" />
	<circle cx="245.264543256561" cy="-361.355305851984" r="2" style="fill: rgb(0,0,0)" />
	<circle cx="366.527500324073" cy="-369.349804128169" r="2" style="fill: rgb(0,0,0)" />
	<circle cx="337.756458071177" cy="-368.114830807713" r="2" style="fill: rgb(0,0,0)" />
	<circle cx="335.740024310558" cy="-389.254653619933" r="2" style="fill: rgb(0,0,0)" />
	<circle cx="309.919672371083" cy="-389.254653619939" r="2" style="fill: rgb(0,0,0)" />
	<circle cx="309.907920269449" cy="-389.25354044115" r="2" style="fill: rgb(0,0,0)" />
	<circle cx="289.020725001321" cy="-369.428730095232" r="2" style="fill: rgb(0,0,0)" />
	<circle cx="268.494882289427" cy="-384.262603784383" r="2" style="fill: rgb(0,0,0)" />
	<circle cx="250.546588868073" cy="-365.700563553308" r="2" style="fill: rgb(0,0,0)" />
	<circle cx="380.411259108508" cy="-353.00223776453" r="2" style="fill: rgb(0,0,0)" />
	<circle cx="366.661396896842" cy="-369.152219825944" r="2" style="fill: rgb(0,0,0)" />
	<circle cx="337.876788764587" cy="-247.599545465326" r="2" style="fill: rgb(0,0,0)" />
	<circle cx="331.998985071067" cy="-267.979242596648" r="2" style="fill: rgb(0,0,0)" />
	<circle cx="286.828300717859" cy="-222.767894478264" r="2" style="fill: rgb(0,0,0)" />
	<circle cx="312.648652657327" cy="-222.767894478251" r="2" style="fill: rgb(0,0,0)" />
	<circle cx="260.42190292432" cy="-255.447238085407" r="2" style="fill: rgb(0,0,0)" />
	<circle cx="266.299706617848" cy="-235.06754095409" r="2" style="fill: rgb(0,0,0)" />
	<circle cx="339.283133676062" cy="-248.469656928481" r="2" style="fill: rgb(0,0,0)" />
	<circle cx="345.160937369619" cy="-268.849354059798" r="2" style="fill: rgb(0,0,0)" />
	<circle cx="408.402400644227" cy="-325.498804588336" r="2" style="fill: rgb(0,0,0)" />
	<circle cx="411.971067172466" cy="-350.535856144621" r="2" style="fill: rgb(0,0,0)" />
	<circle cx="372.883090162621" cy="-290.355806273419" r="2" style="fill: rgb(0,0,0)" />
	<circle cx="392.169046972778" cy="-307.523870934163" r="2" style="fill: rgb(0,0,0)" />
	<circle cx="350.308216440731" cy="-272.264484467745" r="2" style="fill: rgb(0,0,0)" />
	<circle cx="372.776286622897" cy="-290.277919834427" r="2" style="fill: rgb(0,0,0)" />
	<circle cx="227.578712497231" cy="-276.510818826984" r="2" style="fill: rgb(0,0,0)" />
	<circle cx="251.169449155886" cy="-267.396737670649" r="2" style="fill: rgb(0,0,0)" />
	<circle cx="213.82068353354" cy="-292.724953655198" r="2" style="fill: rgb(0,0,0)" />
	<circle cx="227.570545745215" cy="-276.5749715938" r="2" style="fill: rgb(0,0,0)" />
	<circle cx="224.038172848542" cy="-312.589449181757" r="2" style="fill: rgb(0,0,0)" />
	<circle cx="213.829685914928" cy="-293.997315739089" r="2" style="fill: rgb(0,0,0)" />
	<circle cx="243.846500279212" cy="-360.955584452006" r="2" style="fill: rgb(0,0,0)" />
	<circle cx="222.666883798839" cy="-362.097721557678" r="2" style="fill: rgb(0,0,0)" />
	<circle cx="222.426894686054" cy="-362.019403851521" r="2" style="fill: rgb(0,0,0)" />
	<circle cx="218.013008342671" cy="-337.117457365965" r="2" style="fill: rgb(0,0,0)" />
	<circle cx="364.584730234934" cy="-390.471032212845" r="2" style="fill: rgb(0,0,0)" />
	<circle cx="335.813687982046" cy="-389.236058892393" r="2" style="fill: rgb(0,0,0)" />
	<circle cx="364.499278096819" cy="-390.739023209285" r="2" style="fill: rgb(0,0,0)" />
	<circle cx="345.186494532506" cy="-407.067088692238" r="2" style="fill: rgb(0,0,0)" />
	<circle cx="319.36614259303" cy="-407.067088692244" r="2" style="fill: rgb(0,0,0)" />
	<circle cx="290.60688880677" cy="-405.582719102891" r="2" style="fill: rgb(0,0,0)" />
	<circle cx="289.614756940467" cy="-404.345818384706" r="2" style="fill: rgb(0,0,0)" />
	<circle cx="268.72756167234" cy="-384.521008038794" r="2" style="fill: rgb(0,0,0)" />
	<circle cx="249.758294014131" cy="-394.203473526322" r="2" style="fill: rgb(0,0,0)" />
	<circle cx="231.810000592778" cy="-375.641433295256" r="2" style="fill: rgb(0,0,0)" />
	<circle cx="378.844313806453" cy="-374.154668212226" r="2" style="fill: rgb(0,0,0)" />
	<circle cx="365.094451594784" cy="-390.304650273634" r="2" style="fill: rgb(0,0,0)" />
	<circle cx="313.231196049021" cy="-222.857866293164" r="2" style="fill: rgb(0,0,0)" />
	<circle cx="342.027998684492" cy="-222.652465723932" r="2" style="fill: rgb(0,0,0)" />
	<circle cx="273.078438506179" cy="-206.61791241685" r="2" style="fill: rgb(0,0,0)" />
	<circle cx="298.898790445645" cy="-206.617912416839" r="2" style="fill: rgb(0,0,0)" />
	<circle cx="268.971125407126" cy="-232.129514678573" r="2" style="fill: rgb(0,0,0)" />
	<circle cx="272.539791935347" cy="-207.092463122285" r="2" style="fill: rgb(0,0,0)" />
	<circle cx="235.45176750537" cy="-251.437042506427" r="2" style="fill: rgb(0,0,0)" />
	<circle cx="241.329571198896" cy="-231.057345375113" r="2" style="fill: rgb(0,0,0)" />
	<circle cx="366.530361783722" cy="-239.148359171751" r="2" style="fill: rgb(0,0,0)" />
	<circle cx="372.408165477287" cy="-259.52805630306" r="2" style="fill: rgb(0,0,0)" />
	<circle cx="434.222752583723" cy="-325.498804588317" r="2" style="fill: rgb(0,0,0)" />
	<circle cx="437.791419111961" cy="-350.535856144596" r="2" style="fill: rgb(0,0,0)" />
	<circle cx="393.201544585383" cy="-308.332031842664" r="2" style="fill: rgb(0,0,0)" />
	<circle cx="421.985738346767" cy="-309.208513974509" r="2" style="fill: rgb(0,0,0)" />
	<circle cx="417.372305767109" cy="-371.047005626498" r="2" style="fill: rgb(0,0,0)" />
	<circle cx="388.588112005718" cy="-370.170523494658" r="2" style="fill: rgb(0,0,0)" />
	<circle cx="401.665934543441" cy="-289.436077634095" r="2" style="fill: rgb(0,0,0)" />
	<circle cx="420.951891353591" cy="-306.604142294838" r="2" style="fill: rgb(0,0,0)" />
	<circle cx="379.083295884136" cy="-271.127455687786" r="2" style="fill: rgb(0,0,0)" />
	<circle cx="401.551366066292" cy="-289.140891054468" r="2" style="fill: rgb(0,0,0)" />
	<circle cx="207.851188632249" cy="-272.37192532898" r="2" style="fill: rgb(0,0,0)" />
	<circle cx="221.601050843924" cy="-256.221943267589" r="2" style="fill: rgb(0,0,0)" />
	<circle cx="214.084823402061" cy="-331.31941090677" r="2" style="fill: rgb(0,0,0)" />
	<circle cx="203.876336468451" cy="-312.727277464103" r="2" style="fill: rgb(0,0,0)" />
	<circle cx="209.218160971172" cy="-345.423922988541" r="2" style="fill: rgb(0,0,0)" />
	<circle cx="204.80427462779" cy="-320.521976502986" r="2" style="fill: rgb(0,0,0)" />
	<circle cx="386.581789634632" cy="-409.223089742463" r="2" style="fill: rgb(0,0,0)" />
	<circle cx="367.26900607033" cy="-425.551155225415" r="2" style="fill: rgb(0,0,0)" />
	<circle cx="343.192239707918" cy="-428.183517820266" r="2" style="fill: rgb(0,0,0)" />
	<circle cx="317.371887768447" cy="-428.18351782027" r="2" style="fill: rgb(0,0,0)" />
	<circle cx="317.240326127332" cy="-428.17067928196" r="2" style="fill: rgb(0,0,0)" />
	<circle cx="288.481072341076" cy="-426.68630969261" r="2" style="fill: rgb(0,0,0)" />
	<circle cx="271.24561233365" cy="-414.950306012027" r="2" style="fill: rgb(0,0,0)" />
	<circle cx="250.358417065525" cy="-395.125495666116" r="2" style="fill: rgb(0,0,0)" />
	<circle cx="239.19328648352" cy="-412.595353454767" r="2" style="fill: rgb(0,0,0)" />
	<circle cx="221.244993062167" cy="-394.033313223707" r="2" style="fill: rgb(0,0,0)" />
	<circle cx="405.169806726695" cy="-385.827990529665" r="2" style="fill: rgb(0,0,0)" />
	<circle cx="391.419944515033" cy="-401.977972591071" r="2" style="fill: rgb(0,0,0)" />
	<circle cx="300.031208853439" cy="-206.255427633118" r="2" style="fill: rgb(0,0,0)" />
	<circle cx="328.828011488907" cy="-206.050027063886" r="2" style="fill: rgb(0,0,0)" />
	<circle cx="361.708835386052" cy="-205.938542156869" r="2" style="fill: rgb(0,0,0)" />
	<circle cx="384.59062331336" cy="-188.453639735919" r="2" style="fill: rgb(0,0,0)" />
	<circle cx="380.439413393456" cy="-213.400719477313" r="2" style="fill: rgb(0,0,0)" />
	<circle cx="360.758576691895" cy="-230.114643044377" r="2" style="fill: rgb(0,0,0)" />
	<circle cx="291.026731927538" cy="-188.055872185768" r="2" style="fill: rgb(0,0,0)" />
	<circle cx="316.847083866998" cy="-188.055872185762" r="2" style="fill: rgb(0,0,0)" />
	<circle cx="245.840065306764" cy="-221.904868471698" r="2" style="fill: rgb(0,0,0)" />
	<circle cx="249.408731834977" cy="-196.867816915416" r="2" style="fill: rgb(0,0,0)" />
	<circle cx="390.556811322777" cy="-229.692128589409" r="2" style="fill: rgb(0,0,0)" />
	<circle cx="396.434615016344" cy="-250.071825720712" r="2" style="fill: rgb(0,0,0)" />
	<circle cx="448.511261366226" cy="-309.823373232321" r="2" style="fill: rgb(0,0,0)" />
	<circle cx="452.079927894463" cy="-334.860424788597" r="2" style="fill: rgb(0,0,0)" />
	<circle cx="422.152262855912" cy="-309.348822526923" r="2" style="fill: rgb(0,0,0)" />
	<circle cx="447.972614795407" cy="-309.348822526904" r="2" style="fill: rgb(0,0,0)" />
	<circle cx="443.669222805505" cy="-370.915553275916" r="2" style="fill: rgb(0,0,0)" />
	<circle cx="417.848870866012" cy="-370.915553275943" r="2" style="fill: rgb(0,0,0)" />
	<circle cx="427.414008009714" cy="-287.505459325179" r="2" style="fill: rgb(0,0,0)" />
	<circle cx="446.699964819859" cy="-304.67352398592" r="2" style="fill: rgb(0,0,0)" />
	<circle cx="404.813663312864" cy="-268.973676158239" r="2" style="fill: rgb(0,0,0)" />
	<circle cx="427.281733495014" cy="-286.987111524921" r="2" style="fill: rgb(0,0,0)" />
	<circle cx="190.724855262949" cy="-253.763377918021" r="2" style="fill: rgb(0,0,0)" />
	<circle cx="204.474717474617" cy="-237.613395856629" r="2" style="fill: rgb(0,0,0)" />
	<circle cx="193.525953418026" cy="-286.560169720391" r="2" style="fill: rgb(0,0,0)" />
	<circle cx="187.556458516742" cy="-266.207141394178" r="2" style="fill: rgb(0,0,0)" />
	<circle cx="182.755141105559" cy="-314.670403262104" r="2" style="fill: rgb(0,0,0)" />
	<circle cx="192.708490552039" cy="-295.940441537091" r="2" style="fill: rgb(0,0,0)" />
	<circle cx="188.936284086053" cy="-351.630862769236" r="2" style="fill: rgb(0,0,0)" />
	<circle cx="184.52239774267" cy="-326.728916283688" r="2" style="fill: rgb(0,0,0)" />
	<circle cx="202.220327684907" cy="-368.467293541372" r="2" style="fill: rgb(0,0,0)" />
	<circle cx="189.011593970024" cy="-351.871812678403" r="2" style="fill: rgb(0,0,0)" />
	<circle cx="405.867746444906" cy="-426.391154403088" r="2" style="fill: rgb(0,0,0)" />
	<circle cx="386.554962880609" cy="-442.719219886038" r="2" style="fill: rgb(0,0,0)" />
	<circle cx="366.583302855701" cy="-446.750458103708" r="2" style="fill: rgb(0,0,0)" />
	<circle cx="344.500791317877" cy="-428.266391570533" r="2" style="fill: rgb(0,0,0)" />
	<circle cx="364.079434976044" cy="-448.008328166188" r="2" style="fill: rgb(0,0,0)" />
	<circle cx="338.259083036576" cy="-448.00832816619" r="2" style="fill: rgb(0,0,0)" />
	<circle cx="274.308900330118" cy="-442.466999535452" r="2" style="fill: rgb(0,0,0)" />
	<circle cx="276.434716795811" cy="-421.363408945733" r="2" style="fill: rgb(0,0,0)" />
	<circle cx="337.977237730769" cy="-448.152634355767" r="2" style="fill: rgb(0,0,0)" />
	<circle cx="309.217983944513" cy="-446.668264766417" r="2" style="fill: rgb(0,0,0)" />
	<circle cx="261.613595159251" cy="-433.847524764433" r="2" style="fill: rgb(0,0,0)" />
	<circle cx="240.726399891127" cy="-414.022714418524" r="2" style="fill: rgb(0,0,0)" />
	<circle cx="223.675012943995" cy="-432.564642820561" r="2" style="fill: rgb(0,0,0)" />
	<circle cx="205.726719522643" cy="-414.002602589509" r="2" style="fill: rgb(0,0,0)" />
	<circle cx="428.698430743571" cy="-396.462576847507" r="2" style="fill: rgb(0,0,0)" />
	<circle cx="414.948568531917" cy="-412.612558908911" r="2" style="fill: rgb(0,0,0)" />
	<circle cx="318.631757940909" cy="-188.34704557543" r="2" style="fill: rgb(0,0,0)" />
	<circle cx="347.428560576372" cy="-188.141645006202" r="2" style="fill: rgb(0,0,0)" />
	<circle cx="347.438524658091" cy="-188.151999969849" r="2" style="fill: rgb(0,0,0)" />
	<circle cx="360.638511853679" cy="-204.754438629883" r="2" style="fill: rgb(0,0,0)" />
	<circle cx="413.38742594884" cy="-188.248239166676" r="2" style="fill: rgb(0,0,0)" />
	<circle cx="409.236216028943" cy="-213.195318908065" r="2" style="fill: rgb(0,0,0)" />
	<circle cx="349.668490075626" cy="-188.476849334297" r="2" style="fill: rgb(0,0,0)" />
	<circle cx="372.550278002929" cy="-170.991946913348" r="2" style="fill: rgb(0,0,0)" />
	<circle cx="311.913927195665" cy="-168.231061839848" r="2" style="fill: rgb(0,0,0)" />
	<circle cx="337.734279135119" cy="-168.231061839847" r="2" style="fill: rgb(0,0,0)" />
	<circle cx="271.026179288303" cy="-185.507041673865" r="2" style="fill: rgb(0,0,0)" />
	<circle cx="288.974472709661" cy="-166.945001442785" r="2" style="fill: rgb(0,0,0)" />
	<circle cx="243.672337491115" cy="-176.447865609012" r="2" style="fill: rgb(0,0,0)" />
	<circle cx="266.803397591485" cy="-186.672511815881" r="2" style="fill: rgb(0,0,0)" />
	<circle cx="417.259320489765" cy="-240.475172482813" r="2" style="fill: rgb(0,0,0)" />
	<circle cx="423.137124183345" cy="-260.854869614121" r="2" style="fill: rgb(0,0,0)" />
	<circle cx="471.64232146658" cy="-299.598727025427" r="2" style="fill: rgb(0,0,0)" />
	<circle cx="475.21098799482" cy="-324.635778581696" r="2" style="fill: rgb(0,0,0)" />
	<circle cx="461.653402733682" cy="-353.787368834776" r="2" style="fill: rgb(0,0,0)" />
	<circle cx="447.364893951186" cy="-369.462800190775" r="2" style="fill: rgb(0,0,0)" />
	<circle cx="427.882037553566" cy="-266.300234031157" r="2" style="fill: rgb(0,0,0)" />
	<circle cx="447.167994363707" cy="-283.468298691897" r="2" style="fill: rgb(0,0,0)" />
	<circle cx="170.742369889698" cy="-246.651352205742" r="2" style="fill: rgb(0,0,0)" />
	<circle cx="184.492232101368" cy="-230.501370144353" r="2" style="fill: rgb(0,0,0)" />
	<circle cx="187.785473132427" cy="-265.498229605106" r="2" style="fill: rgb(0,0,0)" />
	<circle cx="170.659139763127" cy="-246.889682194149" r="2" style="fill: rgb(0,0,0)" />
	<circle cx="175.701899412479" cy="-268.618808840298" r="2" style="fill: rgb(0,0,0)" />
	<circle cx="169.732404511206" cy="-248.265780514094" r="2" style="fill: rgb(0,0,0)" />
	<circle cx="159.148309795884" cy="-305.598091156638" r="2" style="fill: rgb(0,0,0)" />
	<circle cx="169.101659242362" cy="-286.868129431626" r="2" style="fill: rgb(0,0,0)" />
	<circle cx="163.770506141481" cy="-349.126276602453" r="2" style="fill: rgb(0,0,0)" />
	<circle cx="159.356619798091" cy="-324.224330116913" r="2" style="fill: rgb(0,0,0)" />
	<circle cx="176.934239368773" cy="-368.016661661554" r="2" style="fill: rgb(0,0,0)" />
	<circle cx="163.725505653903" cy="-351.421180798584" r="2" style="fill: rgb(0,0,0)" />
	<circle cx="406.117578212304" cy="-447.600072704413" r="2" style="fill: rgb(0,0,0)" />
	<circle cx="386.804794647996" cy="-463.928138187348" r="2" style="fill: rgb(0,0,0)" />
	<circle cx="386.086933336907" cy="-463.924445180065" r="2" style="fill: rgb(0,0,0)" />
	<circle cx="366.800976526627" cy="-446.75638051944" r="2" style="fill: rgb(0,0,0)" />
	<circle cx="382.027728397398" cy="-466.570368397266" r="2" style="fill: rgb(0,0,0)" />
	<circle cx="356.20737645793" cy="-466.570368397267" r="2" style="fill: rgb(0,0,0)" />
	<circle cx="308.942001857789" cy="-446.950771065479" r="2" style="fill: rgb(0,0,0)" />
	<circle cx="294.769829846836" cy="-462.731460908324" r="2" style="fill: rgb(0,0,0)" />
	<circle cx="355.763925138744" cy="-466.869587241597" r="2" style="fill: rgb(0,0,0)" />
	<circle cx="327.00467135249" cy="-465.385217652242" r="2" style="fill: rgb(0,0,0)" />
	<circle cx="247.600242172322" cy="-454.900203204152" r="2" style="fill: rgb(0,0,0)" />
	<circle cx="226.7130469042" cy="-435.075392858249" r="2" style="fill: rgb(0,0,0)" />
	<circle cx="202.507091626948" cy="-433.906186162969" r="2" style="fill: rgb(0,0,0)" />
	<circle cx="184.558798205597" cy="-415.344145931918" r="2" style="fill: rgb(0,0,0)" />
	<circle cx="438.906917677211" cy="-415.054710290178" r="2" style="fill: rgb(0,0,0)" />
	<circle cx="425.157055465562" cy="-431.204692351579" r="2" style="fill: rgb(0,0,0)" />
	<circle cx="340.235811287111" cy="-169.305960773483" r="2" style="fill: rgb(0,0,0)" />
	<circle cx="369.032613922567" cy="-169.100560204262" r="2" style="fill: rgb(0,0,0)" />
	<circle cx="439.200764539665" cy="-188.850007456436" r="2" style="fill: rgb(0,0,0)" />
	<circle cx="435.049554619771" cy="-213.797087197823" r="2" style="fill: rgb(0,0,0)" />
	<circle cx="390.468427006873" cy="-168.073942604588" r="2" style="fill: rgb(0,0,0)" />
	<circle cx="419.265229642343" cy="-167.868542035348" r="2" style="fill: rgb(0,0,0)" />
	<circle cx="373.137526357286" cy="-149.78968828851" r="2" style="fill: rgb(0,0,0)" />
	<circle cx="385.177871667715" cy="-167.251381111082" r="2" style="fill: rgb(0,0,0)" />
	<circle cx="309.919672371068" cy="-147.114632711827" r="2" style="fill: rgb(0,0,0)" />
	<circle cx="335.740024310518" cy="-147.114632711825" r="2" style="fill: rgb(0,0,0)" />
	<circle cx="289.020725001324" cy="-166.940556236525" r="2" style="fill: rgb(0,0,0)" />
	<circle cx="309.907920269451" cy="-147.115745890606" r="2" style="fill: rgb(0,0,0)" />
	<circle cx="250.54658886807" cy="-170.668722778459" r="2" style="fill: rgb(0,0,0)" />
	<circle cx="268.494882289423" cy="-152.106682547381" r="2" style="fill: rgb(0,0,0)" />
	<circle cx="486.075266340661" cy="-342.852476620815" r="2" style="fill: rgb(0,0,0)" />
	<circle cx="462.944206240304" cy="-353.077122827717" r="2" style="fill: rgb(0,0,0)" />
	<circle cx="492.848457689379" cy="-299.173970713713" r="2" style="fill: rgb(0,0,0)" />
	<circle cx="496.417124217621" cy="-324.211022269974" r="2" style="fill: rgb(0,0,0)" />
	<circle cx="454.247655710065" cy="-289.40342192591" r="2" style="fill: rgb(0,0,0)" />
	<circle cx="477.378715810419" cy="-279.178775719016" r="2" style="fill: rgb(0,0,0)" />
	<circle cx="485.53905191831" cy="-345.476827670011" r="2" style="fill: rgb(0,0,0)" />
	<circle cx="471.250543135812" cy="-361.15225902601" r="2" style="fill: rgb(0,0,0)" />
	<circle cx="156.490761340954" cy="-225.120392448858" r="2" style="fill: rgb(0,0,0)" />
	<circle cx="170.24062355261" cy="-208.970410387462" r="2" style="fill: rgb(0,0,0)" />
	<circle cx="158.799488378243" cy="-281.432439576898" r="2" style="fill: rgb(0,0,0)" />
	<circle cx="152.829993476972" cy="-261.079411250697" r="2" style="fill: rgb(0,0,0)" />
	<circle cx="145.307511054659" cy="-338.686044619962" r="2" style="fill: rgb(0,0,0)" />
	<circle cx="140.893624711269" cy="-313.784098134422" r="2" style="fill: rgb(0,0,0)" />
	<circle cx="416.596414422338" cy="-470.617095168355" r="2" style="fill: rgb(0,0,0)" />
	<circle cx="397.283630858038" cy="-486.94516065129" r="2" style="fill: rgb(0,0,0)" />
	<circle cx="368.277866185713" cy="-482.720350458681" r="2" style="fill: rgb(0,0,0)" />
	<circle cx="342.457514246248" cy="-482.720350458681" r="2" style="fill: rgb(0,0,0)" />
	<circle cx="326.445320920102" cy="-465.932983688943" r="2" style="fill: rgb(0,0,0)" />
	<circle cx="312.273148909159" cy="-481.713673531787" r="2" style="fill: rgb(0,0,0)" />
	<circle cx="312.154509345211" cy="-481.822387889953" r="2" style="fill: rgb(0,0,0)" />
	<circle cx="313.085118140175" cy="-507.095363549541" r="2" style="fill: rgb(0,0,0)" />
	<circle cx="292.624188623456" cy="-486.830902176669" r="2" style="fill: rgb(0,0,0)" />
	<circle cx="275.239509125082" cy="-467.739975195039" r="2" style="fill: rgb(0,0,0)" />
	<circle cx="341.839476839238" cy="-482.869286331852" r="2" style="fill: rgb(0,0,0)" />
	<circle cx="313.080223052982" cy="-481.384916742495" r="2" style="fill: rgb(0,0,0)" />
	<circle cx="226.618286603816" cy="-458.004743741087" r="2" style="fill: rgb(0,0,0)" />
	<circle cx="205.731091335695" cy="-438.17993339518" r="2" style="fill: rgb(0,0,0)" />
	<circle cx="201.639245175697" cy="-459.711949411054" r="2" style="fill: rgb(0,0,0)" />
	<circle cx="183.690951754346" cy="-441.149909180005" r="2" style="fill: rgb(0,0,0)" />
	<circle cx="460.009114818587" cy="-428.993383370104" r="2" style="fill: rgb(0,0,0)" />
	<circle cx="446.259252606938" cy="-445.143365431502" r="2" style="fill: rgb(0,0,0)" />
	<circle cx="449.965027656105" cy="-410.149109906761" r="2" style="fill: rgb(0,0,0)" />
	<circle cx="460.173514589731" cy="-428.741243349421" r="2" style="fill: rgb(0,0,0)" />
	<circle cx="339.049527712868" cy="-148.128771094356" r="2" style="fill: rgb(0,0,0)" />
	<circle cx="367.846330348318" cy="-147.923370525134" r="2" style="fill: rgb(0,0,0)" />
	<circle cx="419.738601671951" cy="-168.011065491521" r="2" style="fill: rgb(0,0,0)" />
	<circle cx="445.55194026277" cy="-168.612833781275" r="2" style="fill: rgb(0,0,0)" />
	<circle cx="384.300509336531" cy="-147.780164665622" r="2" style="fill: rgb(0,0,0)" />
	<circle cx="413.097311971997" cy="-147.574764096382" r="2" style="fill: rgb(0,0,0)" />
	<circle cx="290.606888806572" cy="-130.786567228948" r="2" style="fill: rgb(0,0,0)" />
	<circle cx="319.366142592785" cy="-129.302197639594" r="2" style="fill: rgb(0,0,0)" />
	<circle cx="345.186494532234" cy="-129.302197639593" r="2" style="fill: rgb(0,0,0)" />
	<circle cx="364.499278096731" cy="-145.630263122472" r="2" style="fill: rgb(0,0,0)" />
	<circle cx="268.72756167234" cy="-151.848278292969" r="2" style="fill: rgb(0,0,0)" />
	<circle cx="289.614756940464" cy="-132.023467947055" r="2" style="fill: rgb(0,0,0)" />
	<circle cx="496.402278879616" cy="-325.535679720884" r="2" style="fill: rgb(0,0,0)" />
	<circle cx="507.266557225449" cy="-343.752377759998" r="2" style="fill: rgb(0,0,0)" />
	<circle cx="500.225757451794" cy="-279.287893180935" r="2" style="fill: rgb(0,0,0)" />
	<circle cx="503.794423980031" cy="-304.324944737196" r="2" style="fill: rgb(0,0,0)" />
	<circle cx="478.782419872333" cy="-279.626255316084" r="2" style="fill: rgb(0,0,0)" />
	<circle cx="499.988556095118" cy="-279.20149900436" r="2" style="fill: rgb(0,0,0)" />
	<circle cx="506.482087674974" cy="-348.833892566566" r="2" style="fill: rgb(0,0,0)" />
	<circle cx="492.193578892467" cy="-364.509323922561" r="2" style="fill: rgb(0,0,0)" />
	<circle cx="140.767571812845" cy="-200.994071915389" r="2" style="fill: rgb(0,0,0)" />
	<circle cx="154.517434024491" cy="-184.844089853988" r="2" style="fill: rgb(0,0,0)" />
	<circle cx="150.503970452572" cy="-252.99862088191" r="2" style="fill: rgb(0,0,0)" />
	<circle cx="136.25236190383" cy="-231.467661125037" r="2" style="fill: rgb(0,0,0)" />
	<circle cx="120.773745488503" cy="-346.734952708897" r="2" style="fill: rgb(0,0,0)" />
	<circle cx="116.359859145109" cy="-321.833006223363" r="2" style="fill: rgb(0,0,0)" />
	<circle cx="139.52317054292" cy="-358.000807049188" r="2" style="fill: rgb(0,0,0)" />
	<circle cx="121.060175456113" cy="-347.560575066693" r="2" style="fill: rgb(0,0,0)" />
	<circle cx="432.153459671869" cy="-485.03441026266" r="2" style="fill: rgb(0,0,0)" />
	<circle cx="412.840676107572" cy="-501.362475745587" r="2" style="fill: rgb(0,0,0)" />
	<circle cx="387.990992578149" cy="-506.011557930885" r="2" style="fill: rgb(0,0,0)" />
	<circle cx="377.512156368106" cy="-482.994535466942" r="2" style="fill: rgb(0,0,0)" />
	<circle cx="371.846532713937" cy="-507.757402014977" r="2" style="fill: rgb(0,0,0)" />
	<circle cx="346.026180774474" cy="-507.757402014978" r="2" style="fill: rgb(0,0,0)" />
	<circle cx="298.912946129219" cy="-522.876053392385" r="2" style="fill: rgb(0,0,0)" />
	<circle cx="278.452016612502" cy="-502.611592019515" r="2" style="fill: rgb(0,0,0)" />
	<circle cx="340.68918431167" cy="-485.704443528261" r="2" style="fill: rgb(0,0,0)" />
	<circle cx="341.619793106641" cy="-510.977419187845" r="2" style="fill: rgb(0,0,0)" />
	<circle cx="278.353944496049" cy="-502.522962715951" r="2" style="fill: rgb(0,0,0)" />
	<circle cx="260.969264997676" cy="-483.432035734332" r="2" style="fill: rgb(0,0,0)" />
	<circle cx="227.964940274505" cy="-483.789954583169" r="2" style="fill: rgb(0,0,0)" />
	<circle cx="207.077745006388" cy="-463.965144237261" r="2" style="fill: rgb(0,0,0)" />
	<circle cx="201.906498783378" cy="-488.50824443194" r="2" style="fill: rgb(0,0,0)" />
	<circle cx="183.958205362031" cy="-469.946204200892" r="2" style="fill: rgb(0,0,0)" />
	<circle cx="481.053759855592" cy="-431.63980485789" r="2" style="fill: rgb(0,0,0)" />
	<circle cx="467.303897643934" cy="-447.789786919281" r="2" style="fill: rgb(0,0,0)" />
	<circle cx="414.337363077285" cy="-147.499916009649" r="2" style="fill: rgb(0,0,0)" />
	<circle cx="440.150701668101" cy="-148.101684299399" r="2" style="fill: rgb(0,0,0)" />
	<circle cx="379.79385702616" cy="-122.894839343739" r="2" style="fill: rgb(0,0,0)" />
	<circle cx="408.590659661618" cy="-122.689438774497" r="2" style="fill: rgb(0,0,0)" />
	<circle cx="288.481072340867" cy="-109.682976639233" r="2" style="fill: rgb(0,0,0)" />
	<circle cx="317.240326127078" cy="-108.198607049879" r="2" style="fill: rgb(0,0,0)" />
	<circle cx="317.371887768186" cy="-108.18576851157" r="2" style="fill: rgb(0,0,0)" />
	<circle cx="343.192239707627" cy="-108.185768511562" r="2" style="fill: rgb(0,0,0)" />
	<circle cx="505.682132059948" cy="-306.463056503933" r="2" style="fill: rgb(0,0,0)" />
	<circle cx="516.546410405771" cy="-324.679754543045" r="2" style="fill: rgb(0,0,0)" />
	<circle cx="136.163878673079" cy="-231.178318862293" r="2" style="fill: rgb(0,0,0)" />
	<circle cx="120.440689144976" cy="-207.051998328835" r="2" style="fill: rgb(0,0,0)" />
	<circle cx="120.135944387622" cy="-205.915106482524" r="2" style="fill: rgb(0,0,0)" />
	<circle cx="133.885806599269" cy="-189.765124421124" r="2" style="fill: rgb(0,0,0)" />
	<circle cx="93.6970449357734" cy="-356.540579593416" r="2" style="fill: rgb(0,0,0)" />
	<circle cx="89.2831585923769" cy="-331.638633107886" r="2" style="fill: rgb(0,0,0)" />
	<circle cx="112.905229389587" cy="-368.99094991352" r="2" style="fill: rgb(0,0,0)" />
	<circle cx="94.4422343027646" cy="-358.550717931031" r="2" style="fill: rgb(0,0,0)" />
	<circle cx="424.441435420565" cy="-504.793087176146" r="2" style="fill: rgb(0,0,0)" />
	<circle cx="405.128651856269" cy="-521.121152659071" r="2" style="fill: rgb(0,0,0)" />
	<circle cx="404.894035537207" cy="-521.027966715042" r="2" style="fill: rgb(0,0,0)" />
	<circle cx="389.33699028767" cy="-506.610651620742" r="2" style="fill: rgb(0,0,0)" />
	<circle cx="377.724336407481" cy="-528.137099146296" r="2" style="fill: rgb(0,0,0)" />
	<circle cx="351.903984468021" cy="-528.137099146298" r="2" style="fill: rgb(0,0,0)" />
	<circle cx="310.959301674483" cy="-528.198954139258" r="2" style="fill: rgb(0,0,0)" />
	<circle cx="296.787129663529" cy="-543.979643982086" r="2" style="fill: rgb(0,0,0)" />
	<circle cx="270.176753492686" cy="-520.997419799384" r="2" style="fill: rgb(0,0,0)" />
	<circle cx="249.715823975975" cy="-500.732958426509" r="2" style="fill: rgb(0,0,0)" />
	<circle cx="344.846263298152" cy="-531.940971404193" r="2" style="fill: rgb(0,0,0)" />
	<circle cx="316.311588331687" cy="-528.058915765887" r="2" style="fill: rgb(0,0,0)" />
	<circle cx="185.339819957234" cy="-501.753084336429" r="2" style="fill: rgb(0,0,0)" />
	<circle cx="167.391526535889" cy="-483.191044105388" r="2" style="fill: rgb(0,0,0)" />
	<circle cx="487.023254756892" cy="-451.992833184108" r="2" style="fill: rgb(0,0,0)" />
	<circle cx="473.273392545232" cy="-468.142815245489" r="2" style="fill: rgb(0,0,0)" />
	<circle cx="411.353178589951" cy="-122.38649381418" r="2" style="fill: rgb(0,0,0)" />
	<circle cx="437.166517180764" cy="-122.988262103924" r="2" style="fill: rgb(0,0,0)" />
	<circle cx="457.402880120249" cy="-135.763006490182" r="2" style="fill: rgb(0,0,0)" />
	<circle cx="462.804118714915" cy="-156.27415597206" r="2" style="fill: rgb(0,0,0)" />
	<circle cx="392.755670917708" cy="-106.105794937786" r="2" style="fill: rgb(0,0,0)" />
	<circle cx="421.552473553164" cy="-105.900394368548" r="2" style="fill: rgb(0,0,0)" />
	<circle cx="309.217983944305" cy="-89.7010215654192" r="2" style="fill: rgb(0,0,0)" />
	<circle cx="337.977237730508" cy="-88.2166519760767" r="2" style="fill: rgb(0,0,0)" />
	<circle cx="338.259083036313" cy="-88.3609581656517" r="2" style="fill: rgb(0,0,0)" />
	<circle cx="364.079434975748" cy="-88.3609581656486" r="2" style="fill: rgb(0,0,0)" />
	<circle cx="504.647044251039" cy="-281.194144286544" r="2" style="fill: rgb(0,0,0)" />
	<circle cx="515.511322596858" cy="-299.410842325656" r="2" style="fill: rgb(0,0,0)" />
	<circle cx="537.58498561197" cy="-321.985504235866" r="2" style="fill: rgb(0,0,0)" />
	<circle cx="528.305132431638" cy="-341.058127452817" r="2" style="fill: rgb(0,0,0)" />
	<circle cx="97.3239657867378" cy="-188.339223468196" r="2" style="fill: rgb(0,0,0)" />
	<circle cx="111.073827998373" cy="-172.189241406794" r="2" style="fill: rgb(0,0,0)" />
	<circle cx="80.7238302652439" cy="-378.865146227317" r="2" style="fill: rgb(0,0,0)" />
	<circle cx="64.9905868961273" cy="-402.984911659608" r="2" style="fill: rgb(0,0,0)" />
	<circle cx="60.5767005527315" cy="-378.082965174079" r="2" style="fill: rgb(0,0,0)" />
	<circle cx="73.5499152232613" cy="-355.758398540177" r="2" style="fill: rgb(0,0,0)" />
	<circle cx="445.207583543874" cy="-500.474786174018" r="2" style="fill: rgb(0,0,0)" />
	<circle cx="425.894799979576" cy="-516.802851656938" r="2" style="fill: rgb(0,0,0)" />
	<circle cx="371.846532713943" cy="-548.516796277616" r="2" style="fill: rgb(0,0,0)" />
	<circle cx="346.02618077449" cy="-548.51679627762" r="2" style="fill: rgb(0,0,0)" />
	<circle cx="336.966861484536" cy="-540.564424779189" r="2" style="fill: rgb(0,0,0)" />
	<circle cx="322.794689473591" cy="-556.345114622015" r="2" style="fill: rgb(0,0,0)" />
	<circle cx="268.027875877266" cy="-542.495274392747" r="2" style="fill: rgb(0,0,0)" />
	<circle cx="270.153692342947" cy="-521.391683803052" r="2" style="fill: rgb(0,0,0)" />
	<circle cx="425.475697012103" cy="-106.561352271679" r="2" style="fill: rgb(0,0,0)" />
	<circle cx="451.289035602915" cy="-107.163120561423" r="2" style="fill: rgb(0,0,0)" />
	<circle cx="451.816476002611" cy="-107.650096048543" r="2" style="fill: rgb(0,0,0)" />
	<circle cx="454.800660489948" cy="-132.763518244017" r="2" style="fill: rgb(0,0,0)" />
	<circle cx="482.459694616015" cy="-132.335853335283" r="2" style="fill: rgb(0,0,0)" />
	<circle cx="487.860933210687" cy="-152.847002817155" r="2" style="fill: rgb(0,0,0)" />
	<circle cx="327.004671352285" cy="-70.9840686795983" r="2" style="fill: rgb(0,0,0)" />
	<circle cx="355.763925138484" cy="-69.4996990902638" r="2" style="fill: rgb(0,0,0)" />
	<circle cx="356.20737645767" cy="-69.7989179345751" r="2" style="fill: rgb(0,0,0)" />
	<circle cx="382.0277283971" cy="-69.7989179345725" r="2" style="fill: rgb(0,0,0)" />
	<circle cx="561.5" cy="-330.211160333891" r="2" style="fill: rgb(0,0,0)" />
	<circle cx="552.220146819668" cy="-349.283783550841" r="2" style="fill: rgb(0,0,0)" />
	<circle cx="76.1771868796684" cy="-173.523545416392" r="2" style="fill: rgb(0,0,0)" />
	<circle cx="89.9270490912985" cy="-157.373563354991" r="2" style="fill: rgb(0,0,0)" />
	<circle cx="37.913886343397" cy="-412.790538544131" r="2" style="fill: rgb(0,0,0)" />
	<circle cx="33.5" cy="-387.88859205861" r="2" style="fill: rgb(0,0,0)" />
	<circle cx="437.311881502236" cy="-534.678278391127" r="2" style="fill: rgb(0,0,0)" />
	<circle cx="416.545733378928" cy="-538.996579393255" r="2" style="fill: rgb(0,0,0)" />
	<circle cx="368.277866185724" cy="-573.55384783392" r="2" style="fill: rgb(0,0,0)" />
	<circle cx="342.457514246273" cy="-573.55384783392" r="2" style="fill: rgb(0,0,0)" />
	<circle cx="475.17954849714" cy="-97.9673188106949" r="2" style="fill: rgb(0,0,0)" />
	<circle cx="478.163732984479" cy="-123.080741006163" r="2" style="fill: rgb(0,0,0)" />
	<circle cx="313.080223052794" cy="-54.9843695893344" r="2" style="fill: rgb(0,0,0)" />
	<circle cx="341.839476838991" cy="-53.5" r="2" style="fill: rgb(0,0,0)" />
	<circle cx="342.457514245992" cy="-53.6489358731567" r="2" style="fill: rgb(0,0,0)" />
	<circle cx="368.277866185418" cy="-53.6489358731591" r="2" style="fill: rgb(0,0,0)" />
	<circle cx="457.044982127165" cy="-550.495802569987" r="2" style="fill: rgb(0,0,0)" />
	<circle cx="436.278834003859" cy="-554.814103572115" r="2" style="fill: rgb(0,0,0)" />
	<!--
	Generated using the Perl SVG Module V2.84
	by Ronan Oger
	Info: http://www.roitsystems.com/
	-->
</svg>