<?xml version="1.0" encoding="UTF-8" standalone="yes"?>
<!DOCTYPE svg PUBLIC "-//W3C//DTD SVG 1.0//EN" "http://www.w3.org/TR/2001/REC-SVG-20010904/DTD/svg10.dtd">
<!-- generated using polymake; Michael Joswig, Georg Loho, Benjamin Lorenz, Rico Raber; license CC BY-NC-ND 3.0; see polymake.org and matchthenet.de -->
<svg height="841pt" id="document" viewBox="0 -606.912662524202 572 606.912662524202" width="595pt" xmlns="http://www.w3.org/2000/svg" xmlns:svg="http://www.w3.org/2000/svg" xmlns:xlink="http://www.w3.org/1999/xlink">
	<title id="document_title">planar_net_</title>
	<polygon points="235.328366682187,-322.140838972282 280.988423984704,-322.140838972282 303.818452635964,-361.683608534515 258.158395333449,-361.683608534517 " style="fill: rgb(67,184,206); fill-opacity: 1; stroke: rgb(0,0,0); stroke-width: 3" />
	<polygon points="192.868544206302,-338.933822869893 173.238750381677,-395.269576329737 135.79530509281,-369.138574860814 155.425098917431,-312.802821400974 " style="fill: rgb(67,184,206); fill-opacity: 1; stroke: rgb(0,0,0); stroke-width: 3" />
	<polygon points="319.961720709954,-276.973062119177 280.988423984704,-322.140838972282 235.328366682187,-322.140838972282 274.301663407431,-276.973062119185 " style="fill: rgb(67,184,206); fill-opacity: 1; stroke: rgb(0,0,0); stroke-width: 3" />
	<polygon points="274.301663407431,-276.973062119185 235.328366682187,-322.140838972282 228.641606104921,-276.973062119178 267.614902830165,-231.805285266081 " style="fill: rgb(67,184,206); fill-opacity: 1; stroke: rgb(0,0,0); stroke-width: 3" />
	<polygon points="235.328366682187,-322.140838972282 258.158395333449,-361.683608534517 238.528601508824,-418.01936199436 215.698572857562,-378.476592432125 " style="fill: rgb(67,184,206); fill-opacity: 1; stroke: rgb(0,0,0); stroke-width: 3" />
	<polygon points="235.328366682187,-322.140838972282 192.868544206298,-305.347855074672 186.181783629018,-260.180078221579 228.641606104921,-276.973062119178 " style="fill: rgb(67,184,206); fill-opacity: 1; stroke: rgb(0,0,0); stroke-width: 3" />
	<polygon points="319.961720709954,-276.973062119177 274.301663407431,-276.973062119185 274.301663407431,-231.313004816665 319.961720709947,-231.313004816654 " style="fill: rgb(67,184,206); fill-opacity: 1; stroke: rgb(0,0,0); stroke-width: 3" />
	<polygon points="235.328366682187,-322.140838972282 215.698572857562,-378.476592432125 173.238750381677,-395.269576329737 192.868544206302,-338.933822869893 " style="fill: rgb(67,184,206); fill-opacity: 1; stroke: rgb(0,0,0); stroke-width: 3" />
	<polygon points="444.680495243754,-295.428382467541 447.47646358311,-249.85401034993 490.172970803581,-291.519994013548 487.377002464228,-337.094366131158 " style="fill: rgb(67,184,206); fill-opacity: 1; stroke: rgb(0,0,0); stroke-width: 3" />
	<polygon points="215.698572857562,-378.476592432125 238.528601508824,-418.01936199436 198.985831946592,-440.849390645624 176.155803295328,-401.306621083395 " style="fill: rgb(67,184,206); fill-opacity: 1; stroke: rgb(0,0,0); stroke-width: 3" />
	<polygon points="303.818452635964,-361.683608534515 280.988423984704,-322.140838972282 322.654407648326,-279.444331751802 345.484436299586,-318.987101314032 " style="fill: rgb(67,184,206); fill-opacity: 1; stroke: rgb(0,0,0); stroke-width: 3" />
	<polygon points="267.614902830165,-231.805285266081 228.641606104921,-276.973062119178 187.289772362065,-257.611588028275 226.263069087299,-212.443811175183 " style="fill: rgb(67,184,206); fill-opacity: 1; stroke: rgb(0,0,0); stroke-width: 3" />
	<polygon points="258.158395333449,-361.683608534517 303.818452635964,-361.683608534515 287.675184561976,-419.115662471119 242.015127259466,-419.115662471139 " style="fill: rgb(67,184,206); fill-opacity: 1; stroke: rgb(0,0,0); stroke-width: 3" />
	<polygon points="187.289772362065,-257.611588028275 127.7930486585,-261.991746932608 82.6252718053885,-223.018450207375 78.2451129010417,-163.521726503826 117.218409626276,-118.353949650735 176.715133329841,-113.973790746402 221.882910182953,-152.947087471635 226.263069087299,-212.443811175183 " style="fill: rgb(136,136,136); fill-opacity: 1; stroke: rgb(0,0,0); stroke-width: 3" />
	<polygon points="258.158395333463,-476.547716407752 303.818452635967,-476.547716407726 280.988423984711,-516.090485969963 235.328366682215,-516.090485970002 " style="fill: rgb(67,184,206); fill-opacity: 1; stroke: rgb(0,0,0); stroke-width: 3" />
	<polygon points="156.526009470709,-457.642374543241 179.356038121972,-497.18514410547 133.695980819452,-497.185144105482 110.86595216818,-457.642374543267 " style="fill: rgb(67,184,206); fill-opacity: 1; stroke: rgb(0,0,0); stroke-width: 3" />
	<polygon points="117.218409626276,-118.353949650735 78.2451129010417,-163.521726503826 36.8932791581858,-144.160252412923 75.8665758834215,-98.9924755598382 " style="fill: rgb(67,184,206); fill-opacity: 1; stroke: rgb(0,0,0); stroke-width: 3" />
	<polygon points="319.961720709947,-231.313004816654 274.301663407431,-231.313004816665 313.274960132679,-186.145227963563 358.935017435187,-186.145227963561 " style="fill: rgb(67,184,206); fill-opacity: 1; stroke: rgb(0,0,0); stroke-width: 3" />
	<polygon points="358.935017435187,-186.145227963561 313.274960132679,-186.145227963563 290.444931481422,-146.602458401326 336.104988783926,-146.602458401326 " style="fill: rgb(67,184,206); fill-opacity: 1; stroke: rgb(0,0,0); stroke-width: 3" />
	<polygon points="303.818452635964,-361.683608534515 345.484436299586,-318.987101314032 405.137725681523,-318.258411118803 447.834232902,-359.924394782425 448.562923097223,-419.577684164365 406.896939433599,-462.274191384849 347.243650051663,-463.002881580077 304.547142831185,-421.336897916455 " style="fill: rgb(136,136,136); fill-opacity: 1; stroke: rgb(0,0,0); stroke-width: 3" />
	<polygon points="429.726968084866,-501.816960947076 471.392951748487,-459.120453726595 516.9673238661,-461.916422065948 475.301340202477,-504.612929286427 " style="fill: rgb(67,184,206); fill-opacity: 1; stroke: rgb(0,0,0); stroke-width: 3" />
	<polygon points="238.528601508824,-418.01936199436 227.360624902088,-476.622452544238 187.817855339858,-499.45248119549 198.985831946592,-440.849390645624 " style="fill: rgb(67,184,206); fill-opacity: 1; stroke: rgb(0,0,0); stroke-width: 3" />
	<polygon points="365.129497563047,-237.999765393924 319.961720709954,-276.973062119177 319.961720709947,-231.313004816654 365.129497563041,-192.3397080914 " style="fill: rgb(67,184,206); fill-opacity: 1; stroke: rgb(0,0,0); stroke-width: 3" />
	<polygon points="173.238750381677,-395.269576329737 127.132442482307,-433.127921451717 89.6889971934368,-406.996919982804 135.79530509281,-369.138574860814 " style="fill: rgb(67,184,206); fill-opacity: 1; stroke: rgb(0,0,0); stroke-width: 3" />
	<polygon points="267.614902830165,-231.805285266081 226.263069087299,-212.443811175183 235.996203758461,-153.585404698631 277.348037501324,-172.94687878952 " style="fill: rgb(67,184,206); fill-opacity: 1; stroke: rgb(0,0,0); stroke-width: 3" />
	<polygon points="345.484436299586,-318.987101314032 322.654407648326,-279.444331751802 380.463659385942,-264.708785035669 403.29368803721,-304.251554597891 " style="fill: rgb(67,184,206); fill-opacity: 1; stroke: rgb(0,0,0); stroke-width: 3" />
	<polygon points="419.788448505406,-506.07658660156 454.720134446057,-535.480976583559 425.315744464064,-570.412662524202 390.384058523409,-541.008272542208 " style="fill: rgb(67,184,206); fill-opacity: 1; stroke: rgb(0,0,0); stroke-width: 3" />
	<polygon points="176.155803295328,-401.306621083395 198.985831946592,-440.849390645624 179.356038121972,-497.18514410547 156.526009470709,-457.642374543241 " style="fill: rgb(67,184,206); fill-opacity: 1; stroke: rgb(0,0,0); stroke-width: 3" />
	<polygon points="242.015127259466,-419.115662471139 287.675184561976,-419.115662471119 303.818452635967,-476.547716407726 258.158395333463,-476.547716407752 " style="fill: rgb(67,184,206); fill-opacity: 1; stroke: rgb(0,0,0); stroke-width: 3" />
	<polygon points="403.29368803721,-304.251554597891 380.463659385942,-264.708785035669 403.293688037193,-225.166015473427 426.123716688455,-264.708785035648 " style="fill: rgb(67,184,206); fill-opacity: 1; stroke: rgb(0,0,0); stroke-width: 3" />
	<polygon points="447.834232902,-359.924394782425 405.137725681523,-318.258411118803 444.680495243754,-295.428382467541 487.377002464228,-337.094366131158 " style="fill: rgb(67,184,206); fill-opacity: 1; stroke: rgb(0,0,0); stroke-width: 3" />
	<polygon points="221.882910182953,-152.947087471635 176.715133329841,-113.973790746402 196.076607420732,-72.6219570035402 241.244384273843,-111.595253728776 " style="fill: rgb(67,184,206); fill-opacity: 1; stroke: rgb(0,0,0); stroke-width: 3" />
	<polygon points="378.564811259814,-129.809474503718 358.935017435187,-186.145227963561 336.104988783926,-146.602458401326 355.734782608553,-90.266704941482 " style="fill: rgb(67,184,206); fill-opacity: 1; stroke: rgb(0,0,0); stroke-width: 3" />
	<polygon points="527.297004254574,-436.090565074562 526.568314059358,-376.437275692628 560.771309804786,-346.188376292692 561.5,-405.841665674625 " style="fill: rgb(67,184,206); fill-opacity: 1; stroke: rgb(0,0,0); stroke-width: 3" />
	<polygon points="82.6252718053885,-223.018450207375 37.8801589043472,-213.923632763234 33.5,-154.426909059691 78.2451129010417,-163.521726503826 " style="fill: rgb(67,184,206); fill-opacity: 1; stroke: rgb(0,0,0); stroke-width: 3" />
	<polygon points="487.377002464228,-337.094366131158 490.172970803581,-291.519994013548 535.747342921199,-294.315962352898 532.951374581846,-339.890334470504 " style="fill: rgb(67,184,206); fill-opacity: 1; stroke: rgb(0,0,0); stroke-width: 3" />
	<polygon points="347.243650051663,-463.002881580077 406.896939433599,-462.274191384849 419.788448505406,-506.07658660156 360.135159123469,-506.805276796787 " style="fill: rgb(67,184,206); fill-opacity: 1; stroke: rgb(0,0,0); stroke-width: 3" />
	<polygon points="448.562923097223,-419.577684164365 447.834232902,-359.924394782425 491.636628118714,-347.032885710625 492.365318313933,-406.68617509256 " style="fill: rgb(67,184,206); fill-opacity: 1; stroke: rgb(0,0,0); stroke-width: 3" />
	<polygon points="360.135159123469,-506.805276796787 419.788448505406,-506.07658660156 390.384058523409,-541.008272542208 330.73076914147,-541.736962737432 " style="fill: rgb(67,184,206); fill-opacity: 1; stroke: rgb(0,0,0); stroke-width: 3" />
	<polygon points="179.356038121972,-497.18514410547 140.382741396728,-542.352920958567 94.722684094201,-542.352920958588 133.695980819452,-497.185144105482 " style="fill: rgb(67,184,206); fill-opacity: 1; stroke: rgb(0,0,0); stroke-width: 3" />
	<polygon points="176.715133329841,-113.973790746402 117.218409626276,-118.353949650735 126.313227070429,-73.6088367496962 185.80995077399,-69.2286778453628 " style="fill: rgb(67,184,206); fill-opacity: 1; stroke: rgb(0,0,0); stroke-width: 3" />
	<polygon points="71.9581874294201,-53.5 113.310021172279,-72.861474090903 117.218409626276,-118.353949650735 75.8665758834215,-98.9924755598382 " style="fill: rgb(67,184,206); fill-opacity: 1; stroke: rgb(0,0,0); stroke-width: 3" />
	<polygon points="406.896939433599,-462.274191384849 448.562923097223,-419.577684164365 471.392951748487,-459.120453726595 429.726968084866,-501.816960947076 " style="fill: rgb(67,184,206); fill-opacity: 1; stroke: rgb(0,0,0); stroke-width: 3" />
	<polygon points="492.365318313933,-406.68617509256 491.636628118714,-347.032885710625 526.568314059358,-376.437275692628 527.297004254574,-436.090565074562 " style="fill: rgb(67,184,206); fill-opacity: 1; stroke: rgb(0,0,0); stroke-width: 3" />
	<polygon points="475.301340202477,-504.612929286427 516.9673238661,-461.916422065948 520.875712320086,-507.408897625784 479.20972865646,-550.105404846262 " style="fill: rgb(67,184,206); fill-opacity: 1; stroke: rgb(0,0,0); stroke-width: 3" />
	<polygon points="448.562923097223,-419.577684164365 492.365318313933,-406.68617509256 525.430890271595,-438.174407560936 481.62849505488,-451.065916632738 " style="fill: rgb(67,184,206); fill-opacity: 1; stroke: rgb(0,0,0); stroke-width: 3" />
	<circle cx="235.328366682187" cy="-322.140838972282" r="2" style="fill: rgb(0,0,0)" />
	<circle cx="280.988423984704" cy="-322.140838972282" r="2" style="fill: rgb(0,0,0)" />
	<circle cx="303.818452635964" cy="-361.683608534515" r="2" style="fill: rgb(0,0,0)" />
	<circle cx="258.158395333449" cy="-361.683608534517" r="2" style="fill: rgb(0,0,0)" />
	<circle cx="274.301663407431" cy="-276.973062119185" r="2" style="fill: rgb(0,0,0)" />
	<circle cx="319.961720709954" cy="-276.973062119177" r="2" style="fill: rgb(0,0,0)" />
	<circle cx="238.528601508824" cy="-418.01936199436" r="2" style="fill: rgb(0,0,0)" />
	<circle cx="215.698572857562" cy="-378.476592432125" r="2" style="fill: rgb(0,0,0)" />
	<circle cx="322.654407648326" cy="-279.444331751802" r="2" style="fill: rgb(0,0,0)" />
	<circle cx="345.484436299586" cy="-318.987101314032" r="2" style="fill: rgb(0,0,0)" />
	<circle cx="287.675184561976" cy="-419.115662471119" r="2" style="fill: rgb(0,0,0)" />
	<circle cx="242.015127259466" cy="-419.115662471139" r="2" style="fill: rgb(0,0,0)" />
	<circle cx="228.641606104921" cy="-276.973062119178" r="2" style="fill: rgb(0,0,0)" />
	<circle cx="267.614902830165" cy="-231.805285266081" r="2" style="fill: rgb(0,0,0)" />
	<circle cx="274.301663407431" cy="-231.313004816665" r="2" style="fill: rgb(0,0,0)" />
	<circle cx="319.961720709947" cy="-231.313004816654" r="2" style="fill: rgb(0,0,0)" />
	<circle cx="173.238750381677" cy="-395.269576329737" r="2" style="fill: rgb(0,0,0)" />
	<circle cx="192.868544206302" cy="-338.933822869893" r="2" style="fill: rgb(0,0,0)" />
	<circle cx="198.985831946592" cy="-440.849390645624" r="2" style="fill: rgb(0,0,0)" />
	<circle cx="176.155803295328" cy="-401.306621083395" r="2" style="fill: rgb(0,0,0)" />
	<circle cx="405.137725681523" cy="-318.258411118803" r="2" style="fill: rgb(0,0,0)" />
	<circle cx="447.834232902" cy="-359.924394782425" r="2" style="fill: rgb(0,0,0)" />
	<circle cx="448.562923097223" cy="-419.577684164365" r="2" style="fill: rgb(0,0,0)" />
	<circle cx="406.896939433599" cy="-462.274191384849" r="2" style="fill: rgb(0,0,0)" />
	<circle cx="347.243650051663" cy="-463.002881580077" r="2" style="fill: rgb(0,0,0)" />
	<circle cx="304.547142831185" cy="-421.336897916455" r="2" style="fill: rgb(0,0,0)" />
	<circle cx="380.463659385942" cy="-264.708785035669" r="2" style="fill: rgb(0,0,0)" />
	<circle cx="403.29368803721" cy="-304.251554597891" r="2" style="fill: rgb(0,0,0)" />
	<circle cx="303.818452635967" cy="-476.547716407726" r="2" style="fill: rgb(0,0,0)" />
	<circle cx="258.158395333463" cy="-476.547716407752" r="2" style="fill: rgb(0,0,0)" />
	<circle cx="192.868544206298" cy="-305.347855074672" r="2" style="fill: rgb(0,0,0)" />
	<circle cx="186.181783629018" cy="-260.180078221579" r="2" style="fill: rgb(0,0,0)" />
	<circle cx="187.289772362065" cy="-257.611588028275" r="2" style="fill: rgb(0,0,0)" />
	<circle cx="226.263069087299" cy="-212.443811175183" r="2" style="fill: rgb(0,0,0)" />
	<circle cx="313.274960132679" cy="-186.145227963563" r="2" style="fill: rgb(0,0,0)" />
	<circle cx="358.935017435187" cy="-186.145227963561" r="2" style="fill: rgb(0,0,0)" />
	<circle cx="365.129497563041" cy="-192.3397080914" r="2" style="fill: rgb(0,0,0)" />
	<circle cx="365.129497563047" cy="-237.999765393924" r="2" style="fill: rgb(0,0,0)" />
	<circle cx="135.79530509281" cy="-369.138574860814" r="2" style="fill: rgb(0,0,0)" />
	<circle cx="155.425098917431" cy="-312.802821400974" r="2" style="fill: rgb(0,0,0)" />
	<circle cx="227.360624902088" cy="-476.622452544238" r="2" style="fill: rgb(0,0,0)" />
	<circle cx="187.817855339858" cy="-499.45248119549" r="2" style="fill: rgb(0,0,0)" />
	<circle cx="179.356038121972" cy="-497.18514410547" r="2" style="fill: rgb(0,0,0)" />
	<circle cx="156.526009470709" cy="-457.642374543241" r="2" style="fill: rgb(0,0,0)" />
	<circle cx="444.680495243754" cy="-295.428382467541" r="2" style="fill: rgb(0,0,0)" />
	<circle cx="487.377002464228" cy="-337.094366131158" r="2" style="fill: rgb(0,0,0)" />
	<circle cx="419.788448505406" cy="-506.07658660156" r="2" style="fill: rgb(0,0,0)" />
	<circle cx="360.135159123469" cy="-506.805276796787" r="2" style="fill: rgb(0,0,0)" />
	<circle cx="491.636628118714" cy="-347.032885710625" r="2" style="fill: rgb(0,0,0)" />
	<circle cx="492.365318313933" cy="-406.68617509256" r="2" style="fill: rgb(0,0,0)" />
	<circle cx="471.392951748487" cy="-459.120453726595" r="2" style="fill: rgb(0,0,0)" />
	<circle cx="429.726968084866" cy="-501.816960947076" r="2" style="fill: rgb(0,0,0)" />
	<circle cx="403.293688037193" cy="-225.166015473427" r="2" style="fill: rgb(0,0,0)" />
	<circle cx="426.123716688455" cy="-264.708785035648" r="2" style="fill: rgb(0,0,0)" />
	<circle cx="280.988423984711" cy="-516.090485969963" r="2" style="fill: rgb(0,0,0)" />
	<circle cx="235.328366682215" cy="-516.090485970002" r="2" style="fill: rgb(0,0,0)" />
	<circle cx="127.7930486585" cy="-261.991746932608" r="2" style="fill: rgb(0,0,0)" />
	<circle cx="82.6252718053885" cy="-223.018450207375" r="2" style="fill: rgb(0,0,0)" />
	<circle cx="78.2451129010417" cy="-163.521726503826" r="2" style="fill: rgb(0,0,0)" />
	<circle cx="117.218409626276" cy="-118.353949650735" r="2" style="fill: rgb(0,0,0)" />
	<circle cx="176.715133329841" cy="-113.973790746402" r="2" style="fill: rgb(0,0,0)" />
	<circle cx="221.882910182953" cy="-152.947087471635" r="2" style="fill: rgb(0,0,0)" />
	<circle cx="235.996203758461" cy="-153.585404698631" r="2" style="fill: rgb(0,0,0)" />
	<circle cx="277.348037501324" cy="-172.94687878952" r="2" style="fill: rgb(0,0,0)" />
	<circle cx="290.444931481422" cy="-146.602458401326" r="2" style="fill: rgb(0,0,0)" />
	<circle cx="336.104988783926" cy="-146.602458401326" r="2" style="fill: rgb(0,0,0)" />
	<circle cx="127.132442482307" cy="-433.127921451717" r="2" style="fill: rgb(0,0,0)" />
	<circle cx="89.6889971934368" cy="-406.996919982804" r="2" style="fill: rgb(0,0,0)" />
	<circle cx="133.695980819452" cy="-497.185144105482" r="2" style="fill: rgb(0,0,0)" />
	<circle cx="110.86595216818" cy="-457.642374543267" r="2" style="fill: rgb(0,0,0)" />
	<circle cx="447.47646358311" cy="-249.85401034993" r="2" style="fill: rgb(0,0,0)" />
	<circle cx="490.172970803581" cy="-291.519994013548" r="2" style="fill: rgb(0,0,0)" />
	<circle cx="390.384058523409" cy="-541.008272542208" r="2" style="fill: rgb(0,0,0)" />
	<circle cx="330.73076914147" cy="-541.736962737432" r="2" style="fill: rgb(0,0,0)" />
	<circle cx="526.568314059358" cy="-376.437275692628" r="2" style="fill: rgb(0,0,0)" />
	<circle cx="527.297004254574" cy="-436.090565074562" r="2" style="fill: rgb(0,0,0)" />
	<circle cx="525.430890271595" cy="-438.174407560936" r="2" style="fill: rgb(0,0,0)" />
	<circle cx="481.62849505488" cy="-451.065916632738" r="2" style="fill: rgb(0,0,0)" />
	<circle cx="516.9673238661" cy="-461.916422065948" r="2" style="fill: rgb(0,0,0)" />
	<circle cx="475.301340202477" cy="-504.612929286427" r="2" style="fill: rgb(0,0,0)" />
	<circle cx="36.8932791581858" cy="-144.160252412923" r="2" style="fill: rgb(0,0,0)" />
	<circle cx="75.8665758834215" cy="-98.9924755598382" r="2" style="fill: rgb(0,0,0)" />
	<circle cx="196.076607420732" cy="-72.6219570035402" r="2" style="fill: rgb(0,0,0)" />
	<circle cx="241.244384273843" cy="-111.595253728776" r="2" style="fill: rgb(0,0,0)" />
	<circle cx="37.8801589043472" cy="-213.923632763234" r="2" style="fill: rgb(0,0,0)" />
	<circle cx="33.5" cy="-154.426909059691" r="2" style="fill: rgb(0,0,0)" />
	<circle cx="126.313227070429" cy="-73.6088367496962" r="2" style="fill: rgb(0,0,0)" />
	<circle cx="185.80995077399" cy="-69.2286778453628" r="2" style="fill: rgb(0,0,0)" />
	<circle cx="355.734782608553" cy="-90.266704941482" r="2" style="fill: rgb(0,0,0)" />
	<circle cx="378.564811259814" cy="-129.809474503718" r="2" style="fill: rgb(0,0,0)" />
	<circle cx="140.382741396728" cy="-542.352920958567" r="2" style="fill: rgb(0,0,0)" />
	<circle cx="94.722684094201" cy="-542.352920958588" r="2" style="fill: rgb(0,0,0)" />
	<circle cx="535.747342921199" cy="-294.315962352898" r="2" style="fill: rgb(0,0,0)" />
	<circle cx="532.951374581846" cy="-339.890334470504" r="2" style="fill: rgb(0,0,0)" />
	<circle cx="454.720134446057" cy="-535.480976583559" r="2" style="fill: rgb(0,0,0)" />
	<circle cx="425.315744464064" cy="-570.412662524202" r="2" style="fill: rgb(0,0,0)" />
	<circle cx="560.771309804786" cy="-346.188376292692" r="2" style="fill: rgb(0,0,0)" />
	<circle cx="561.5" cy="-405.841665674625" r="2" style="fill: rgb(0,0,0)" />
	<circle cx="520.875712320086" cy="-507.408897625784" r="2" style="fill: rgb(0,0,0)" />
	<circle cx="479.20972865646" cy="-550.105404846262" r="2" style="fill: rgb(0,0,0)" />
	<circle cx="71.9581874294201" cy="-53.5" r="2" style="fill: rgb(0,0,0)" />
	<circle cx="113.310021172279" cy="-72.861474090903" r="2" style="fill: rgb(0,0,0)" />
	<!--
	Generated using the Perl SVG Module V2.87
	by Ronan Oger

	-->
</svg>