<?xml version="1.0" encoding="UTF-8" standalone="yes"?>
<!DOCTYPE svg PUBLIC "-//W3C//DTD SVG 1.0//EN" "http://www.w3.org/TR/2001/REC-SVG-20010904/DTD/svg10.dtd">
<!-- generated using polymake; Michael Joswig, Georg Loho, Benjamin Lorenz, Rico Raber; license CC BY-NC-ND 3.0; see polymake.org and matchthenet.de -->
<svg height="841pt" id="document" viewBox="0 -651.238058436876 572 651.238058436876" width="595pt" xmlns="http://www.w3.org/2000/svg" xmlns:svg="http://www.w3.org/2000/svg" xmlns:xlink="http://www.w3.org/1999/xlink">
	<title id="document_title">planar_net_</title>
	<polygon points="226.01192037155,-334.119029218436 273.178425440545,-334.119029218436 313.839205672438,-358.022588605216 266.672700603442,-358.022588605216 " style="fill: rgb(67,184,206); fill-opacity: 1; stroke: rgb(0,0,0); stroke-width: 3" />
	<polygon points="313.839205672438,-358.022588605216 326.23294692466,-324.103309903028 366.257621949189,-299.14926033979 353.863880696966,-333.068539041978 " style="fill: rgb(67,184,206); fill-opacity: 1; stroke: rgb(0,0,0); stroke-width: 3" />
	<polygon points="279.684150277635,-298.597235425782 273.178425440545,-334.119029218436 226.01192037155,-334.119029218436 232.517645208648,-298.597235425786 " style="fill: rgb(67,184,206); fill-opacity: 1; stroke: rgb(0,0,0); stroke-width: 3" />
	<polygon points="313.839205672438,-358.022588605216 273.178425440545,-334.119029218436 285.572166692769,-300.199750516251 326.23294692466,-324.103309903028 " style="fill: rgb(67,184,206); fill-opacity: 1; stroke: rgb(0,0,0); stroke-width: 3" />
	<polygon points="266.672700603442,-358.022588605216 313.839205672438,-358.022588605216 329.290302160559,-390.662838408463 282.123797091563,-390.662838408462 " style="fill: rgb(67,184,206); fill-opacity: 1; stroke: rgb(0,0,0); stroke-width: 3" />
	<polygon points="329.290302160559,-390.662838408463 313.839205672438,-358.022588605216 361.005710741433,-358.022588605215 376.456807229572,-390.662838408458 " style="fill: rgb(67,184,206); fill-opacity: 1; stroke: rgb(0,0,0); stroke-width: 3" />
	<polygon points="232.517645208648,-298.597235425786 226.01192037155,-334.119029218436 204.15437744268,-292.322773195481 210.66010227978,-256.800979402836 " style="fill: rgb(67,184,206); fill-opacity: 1; stroke: rgb(0,0,0); stroke-width: 3" />
	<polygon points="279.684150277635,-298.597235425782 232.517645208648,-298.597235425786 213.813686301975,-255.297799844689 260.980191370952,-255.297799844682 " style="fill: rgb(67,184,206); fill-opacity: 1; stroke: rgb(0,0,0); stroke-width: 3" />
	<polygon points="226.01192037155,-334.119029218436 266.672700603442,-358.022588605216 236.811005611281,-378.330258636479 196.150225379385,-354.426699249695 " style="fill: rgb(67,184,206); fill-opacity: 1; stroke: rgb(0,0,0); stroke-width: 3" />
	<polygon points="326.23294692466,-324.103309903028 285.572166692769,-300.199750516251 323.640032644902,-272.351648565232 364.300812876792,-296.255207951996 " style="fill: rgb(67,184,206); fill-opacity: 1; stroke: rgb(0,0,0); stroke-width: 3" />
	<polygon points="260.980191370952,-255.297799844682 213.813686301975,-255.297799844689 239.023370045756,-215.43364243527 286.189875114726,-215.433642435268 " style="fill: rgb(67,184,206); fill-opacity: 1; stroke: rgb(0,0,0); stroke-width: 3" />
	<polygon points="196.150225379385,-354.426699249695 236.811005611281,-378.330258636479 250.083625228885,-411.915372279132 209.422844996989,-388.011812892348 " style="fill: rgb(67,184,206); fill-opacity: 1; stroke: rgb(0,0,0); stroke-width: 3" />
	<polygon points="306.282996749602,-259.646233297658 279.684150277635,-298.597235425782 260.980191370952,-255.297799844682 287.57903784292,-216.346797716562 " style="fill: rgb(67,184,206); fill-opacity: 1; stroke: rgb(0,0,0); stroke-width: 3" />
	<polygon points="266.672700603442,-358.022588605216 282.123797091563,-390.662838408462 253.363915601951,-412.502973632566 237.912819113828,-379.86272382933 " style="fill: rgb(67,184,206); fill-opacity: 1; stroke: rgb(0,0,0); stroke-width: 3" />
	<polygon points="204.15437744268,-292.322773195481 168.054161961759,-293.269732611042 174.559886798852,-257.747938818404 210.66010227978,-256.800979402836 " style="fill: rgb(67,184,206); fill-opacity: 1; stroke: rgb(0,0,0); stroke-width: 3" />
	<polygon points="384.50484562014,-352.180146993195 396.898586872355,-318.26086829101 443.866473462331,-313.936885208802 431.472732210116,-347.856163910985 " style="fill: rgb(67,184,206); fill-opacity: 1; stroke: rgb(0,0,0); stroke-width: 3" />
	<polygon points="226.01192037155,-334.119029218436 196.150225379385,-354.426699249695 155.489445147499,-330.523139862904 185.35114013966,-310.215469831645 " style="fill: rgb(67,184,206); fill-opacity: 1; stroke: rgb(0,0,0); stroke-width: 3" />
	<polygon points="364.300812876792,-296.255207951996 362.771122341604,-249.113514650939 405.441178993423,-229.015120044546 406.970869528612,-276.156813345599 " style="fill: rgb(67,184,206); fill-opacity: 1; stroke: rgb(0,0,0); stroke-width: 3" />
	<polygon points="329.290302160559,-390.662838408463 376.456807229572,-390.662838408458 417.117587461467,-414.566397795238 369.951082392451,-414.566397795242 " style="fill: rgb(67,184,206); fill-opacity: 1; stroke: rgb(0,0,0); stroke-width: 3" />
	<polygon points="282.123797091563,-390.662838408462 329.290302160559,-390.662838408463 300.82775599823,-412.889078663194 253.661250929233,-412.889078663192 " style="fill: rgb(67,184,206); fill-opacity: 1; stroke: rgb(0,0,0); stroke-width: 3" />
	<polygon points="253.661250929233,-412.889078663192 300.82775599823,-412.889078663194 319.531714904907,-456.188514244292 272.365209835916,-456.188514244292 " style="fill: rgb(67,184,206); fill-opacity: 1; stroke: rgb(0,0,0); stroke-width: 3" />
	<polygon points="364.300812876792,-296.255207951996 323.640032644902,-272.351648565232 322.11034210972,-225.209955264179 362.771122341604,-249.113514650939 " style="fill: rgb(67,184,206); fill-opacity: 1; stroke: rgb(0,0,0); stroke-width: 3" />
	<polygon points="353.863880696966,-333.068539041978 366.257621949189,-299.14926033979 396.898586872355,-318.26086829101 384.50484562014,-352.180146993195 " style="fill: rgb(67,184,206); fill-opacity: 1; stroke: rgb(0,0,0); stroke-width: 3" />
	<polygon points="279.684150277607,-132.270049444751 232.51764520865,-132.270049444756 204.055099046326,-110.043809190023 251.221604115283,-110.043809190021 " style="fill: rgb(67,184,206); fill-opacity: 1; stroke: rgb(0,0,0); stroke-width: 3" />
	<polygon points="413.16288303158,-294.191873607218 430.506409998907,-250.329802603247 461.147374922072,-269.441410554454 443.803847954741,-313.303481558438 " style="fill: rgb(67,184,206); fill-opacity: 1; stroke: rgb(0,0,0); stroke-width: 3" />
	<polygon points="410.61186262437,-450.088191587889 417.117587461467,-414.566397795238 438.975130390338,-456.362653818192 432.469405553237,-491.884447610837 " style="fill: rgb(67,184,206); fill-opacity: 1; stroke: rgb(0,0,0); stroke-width: 3" />
	<polygon points="210.66010227978,-256.800979402836 174.559886798852,-257.747938818404 136.636675786934,-229.70316627575 172.736891267863,-228.756206860182 " style="fill: rgb(67,184,206); fill-opacity: 1; stroke: rgb(0,0,0); stroke-width: 3" />
	<polygon points="253.661250929233,-412.889078663192 272.365209835916,-456.188514244292 245.766363363951,-495.139516372413 227.062404457267,-451.840080791316 " style="fill: rgb(67,184,206); fill-opacity: 1; stroke: rgb(0,0,0); stroke-width: 3" />
	<polygon points="239.023370045756,-215.43364243527 213.813686301975,-255.297799844689 187.214839830002,-216.346797716578 212.424523573768,-176.48264030716 " style="fill: rgb(67,184,206); fill-opacity: 1; stroke: rgb(0,0,0); stroke-width: 3" />
	<polygon points="172.736891267863,-228.756206860182 136.636675786934,-229.70316627575 143.914261440205,-183.101493049534 180.014476921132,-182.15453363396 " style="fill: rgb(67,184,206); fill-opacity: 1; stroke: rgb(0,0,0); stroke-width: 3" />
	<polygon points="300.82775599823,-412.889078663194 329.290302160559,-390.662838408463 351.14784508942,-432.459094431421 322.685298927097,-454.685334686155 " style="fill: rgb(67,184,206); fill-opacity: 1; stroke: rgb(0,0,0); stroke-width: 3" />
	<polygon points="196.150225379385,-354.426699249695 209.422844996989,-388.011812892348 169.398169972456,-412.965862455581 156.125550354846,-379.380748812941 " style="fill: rgb(67,184,206); fill-opacity: 1; stroke: rgb(0,0,0); stroke-width: 3" />
	<polygon points="156.125550354846,-379.380748812941 169.398169972456,-412.965862455581 123.127556304348,-422.11515265758 109.854936686726,-388.530039014949 " style="fill: rgb(67,184,206); fill-opacity: 1; stroke: rgb(0,0,0); stroke-width: 3" />
	<polygon points="209.422844996989,-388.011812892348 250.083625228885,-411.915372279132 212.015759276751,-439.763474230148 171.354979044857,-415.859914843377 " style="fill: rgb(67,184,206); fill-opacity: 1; stroke: rgb(0,0,0); stroke-width: 3" />
	<polygon points="155.489445147499,-330.523139862904 196.150225379385,-354.426699249695 148.983720310388,-354.426699249681 108.322940078509,-330.52313986289 " style="fill: rgb(67,184,206); fill-opacity: 1; stroke: rgb(0,0,0); stroke-width: 3" />
	<polygon points="396.898586872355,-318.26086829101 366.257621949189,-299.14926033979 413.16288303158,-294.191873607218 443.803847954741,-313.303481558438 " style="fill: rgb(67,184,206); fill-opacity: 1; stroke: rgb(0,0,0); stroke-width: 3" />
	<polygon points="362.771122341604,-249.113514650939 322.11034210972,-225.209955264179 364.045623546571,-203.620342686919 404.706403778447,-227.523902073679 " style="fill: rgb(67,184,206); fill-opacity: 1; stroke: rgb(0,0,0); stroke-width: 3" />
	<polygon points="286.189875114726,-215.433642435268 239.023370045756,-215.43364243527 213.813686301981,-175.569485025851 260.980191370945,-175.569485025853 " style="fill: rgb(67,184,206); fill-opacity: 1; stroke: rgb(0,0,0); stroke-width: 3" />
	<polygon points="247.155526092142,-496.052671653705 272.365209835922,-535.91682906312 252.146987389586,-578.530238707677 226.937303645805,-538.666081298258 " style="fill: rgb(67,184,206); fill-opacity: 1; stroke: rgb(0,0,0); stroke-width: 3" />
	<polygon points="369.951082392451,-414.566397795242 417.117587461467,-414.566397795238 410.61186262437,-450.088191587889 363.445357555361,-450.088191587897 " style="fill: rgb(67,184,206); fill-opacity: 1; stroke: rgb(0,0,0); stroke-width: 3" />
	<polygon points="168.054161961759,-293.269732611042 129.755960185805,-265.739259655571 136.261685022884,-230.21746586293 174.559886798852,-257.747938818404 " style="fill: rgb(67,184,206); fill-opacity: 1; stroke: rgb(0,0,0); stroke-width: 3" />
	<polygon points="490.834360052305,-309.612902126596 530.518654067923,-284.121020891469 561.159618991098,-303.232628842673 521.475324975475,-328.724510077811 " style="fill: rgb(67,184,206); fill-opacity: 1; stroke: rgb(0,0,0); stroke-width: 3" />
	<polygon points="169.398169972456,-412.965862455581 159.448640020344,-459.071025443646 113.178026352244,-468.220315645653 123.127556304348,-422.11515265758 " style="fill: rgb(67,184,206); fill-opacity: 1; stroke: rgb(0,0,0); stroke-width: 3" />
	<polygon points="306.408097561061,-172.820232790715 286.189875114726,-215.433642435268 260.980191370945,-175.569485025853 281.198413817283,-132.956075381297 " style="fill: rgb(67,184,206); fill-opacity: 1; stroke: rgb(0,0,0); stroke-width: 3" />
	<polygon points="180.014476921132,-182.15453363396 143.914261440205,-183.101493049534 134.203510396565,-136.945447783587 170.303725877485,-135.998488368007 " style="fill: rgb(67,184,206); fill-opacity: 1; stroke: rgb(0,0,0); stroke-width: 3" />
	<polygon points="171.354979044857,-415.859914843377 212.015759276751,-439.763474230148 213.545449811932,-486.905167531203 172.884669580042,-463.001608144434 " style="fill: rgb(67,184,206); fill-opacity: 1; stroke: rgb(0,0,0); stroke-width: 3" />
	<polygon points="119.293148819588,-185.84109527179 89.4278116451926,-165.538781971003 96.7053972984798,-118.937108744808 126.570734472867,-139.239422045588 " style="fill: rgb(67,184,206); fill-opacity: 1; stroke: rgb(0,0,0); stroke-width: 3" />
	<polygon points="430.506409998907,-250.329802603247 462.269214577123,-215.461429458662 492.910179500292,-234.573037409855 461.147374922072,-269.441410554454 " style="fill: rgb(67,184,206); fill-opacity: 1; stroke: rgb(0,0,0); stroke-width: 3" />
	<polygon points="478.440618800092,-343.532180828776 490.834360052305,-309.612902126596 521.475324975475,-328.724510077811 509.081583723267,-362.643788779988 " style="fill: rgb(67,184,206); fill-opacity: 1; stroke: rgb(0,0,0); stroke-width: 3" />
	<polygon points="404.706403778447,-227.523902073679 364.045623546571,-203.620342686919 369.865284487197,-156.814245360182 410.526064719069,-180.71780474694 " style="fill: rgb(67,184,206); fill-opacity: 1; stroke: rgb(0,0,0); stroke-width: 3" />
	<polygon points="431.472732210116,-347.856163910985 443.866473462331,-313.936885208802 490.834360052305,-309.612902126596 478.440618800092,-343.532180828776 " style="fill: rgb(67,184,206); fill-opacity: 1; stroke: rgb(0,0,0); stroke-width: 3" />
	<polygon points="509.081583723267,-362.643788779988 521.475324975475,-328.724510077811 561.5,-303.770460514563 549.106258747789,-337.68973921674 " style="fill: rgb(67,184,206); fill-opacity: 1; stroke: rgb(0,0,0); stroke-width: 3" />
	<polygon points="109.854936686726,-388.530039014949 123.127556304348,-422.11515265758 109.79275763814,-467.357415476269 96.5201380205192,-433.772301833638 " style="fill: rgb(67,184,206); fill-opacity: 1; stroke: rgb(0,0,0); stroke-width: 3" />
	<polygon points="260.980191370945,-175.569485025853 213.813686301981,-175.569485025851 232.51764520865,-132.270049444756 279.684150277607,-132.270049444751 " style="fill: rgb(67,184,206); fill-opacity: 1; stroke: rgb(0,0,0); stroke-width: 3" />
	<polygon points="272.365209835922,-535.91682906312 319.531714904905,-535.916829063134 300.827755998236,-579.216264644228 253.661250929257,-579.216264644221 " style="fill: rgb(67,184,206); fill-opacity: 1; stroke: rgb(0,0,0); stroke-width: 3" />
	<polygon points="272.365209835916,-456.188514244292 319.531714904907,-456.188514244292 294.322031161127,-496.052671653713 247.155526092142,-496.052671653705 " style="fill: rgb(67,184,206); fill-opacity: 1; stroke: rgb(0,0,0); stroke-width: 3" />
	<polygon points="253.661250929257,-579.216264644221 300.827755998236,-579.216264644228 307.33348083534,-614.738058436876 260.166975766363,-614.738058436868 " style="fill: rgb(67,184,206); fill-opacity: 1; stroke: rgb(0,0,0); stroke-width: 3" />
	<polygon points="443.866473462331,-313.936885208802 482.164675238268,-286.406412253313 529.13256182822,-282.08242917111 490.834360052305,-309.612902126596 " style="fill: rgb(67,184,206); fill-opacity: 1; stroke: rgb(0,0,0); stroke-width: 3" />
	<polygon points="363.445357555361,-450.088191587897 410.61186262437,-450.088191587889 429.315821531053,-493.38762716899 382.149316462043,-493.387627168996 " style="fill: rgb(67,184,206); fill-opacity: 1; stroke: rgb(0,0,0); stroke-width: 3" />
	<polygon points="136.261685022884,-230.21746586293 129.755960185805,-265.739259655571 91.4577584098407,-238.208786700116 97.9634832469012,-202.686992907466 " style="fill: rgb(67,184,206); fill-opacity: 1; stroke: rgb(0,0,0); stroke-width: 3" />
	<polygon points="172.884669580042,-463.001608144434 213.545449811932,-486.905167531203 171.610168375078,-508.494780108459 130.949388143196,-484.59122072169 " style="fill: rgb(67,184,206); fill-opacity: 1; stroke: rgb(0,0,0); stroke-width: 3" />
	<polygon points="410.526064719069,-180.71780474694 369.865284487197,-156.814245360182 405.666020321878,-152.078255115365 446.326800553736,-175.981814502136 " style="fill: rgb(67,184,206); fill-opacity: 1; stroke: rgb(0,0,0); stroke-width: 3" />
	<polygon points="251.221604115283,-110.043809190021 204.055099046326,-110.043809190023 219.506195534453,-77.4035593867742 266.672700603416,-77.4035593867771 " style="fill: rgb(67,184,206); fill-opacity: 1; stroke: rgb(0,0,0); stroke-width: 3" />
	<polygon points="136.636675786934,-229.70316627575 119.293148819588,-185.84109527179 126.570734472867,-139.239422045588 143.914261440205,-183.101493049534 " style="fill: rgb(67,184,206); fill-opacity: 1; stroke: rgb(0,0,0); stroke-width: 3" />
	<polygon points="295.57429626877,-99.8412728677115 279.684150277607,-132.270049444751 251.221604115283,-110.043809190021 267.111750106448,-77.6150326129863 " style="fill: rgb(67,184,206); fill-opacity: 1; stroke: rgb(0,0,0); stroke-width: 3" />
	<polygon points="247.155526092142,-496.052671653705 294.322031161127,-496.052671653713 319.531714904905,-535.916829063134 272.365209835922,-535.91682906312 " style="fill: rgb(67,184,206); fill-opacity: 1; stroke: rgb(0,0,0); stroke-width: 3" />
	<polygon points="91.4577584098407,-238.208786700116 55.3575429289181,-239.155746115714 61.8632677659706,-203.633952323072 97.9634832469012,-202.686992907466 " style="fill: rgb(67,184,206); fill-opacity: 1; stroke: rgb(0,0,0); stroke-width: 3" />
	<polygon points="307.333480835306,-53.5000000000246 266.672700603416,-77.4035593867771 219.506195534453,-77.4035593867742 260.166975766348,-53.5 " style="fill: rgb(67,184,206); fill-opacity: 1; stroke: rgb(0,0,0); stroke-width: 3" />
	<polygon points="130.949388143196,-484.59122072169 171.610168375078,-508.494780108459 165.790507434448,-555.300877435195 125.129727202569,-531.397318048428 " style="fill: rgb(67,184,206); fill-opacity: 1; stroke: rgb(0,0,0); stroke-width: 3" />
	<polygon points="446.326800553736,-175.981814502136 405.666020321878,-152.078255115365 408.887893782807,-116.10963238241 449.548674014658,-140.013191769183 " style="fill: rgb(67,184,206); fill-opacity: 1; stroke: rgb(0,0,0); stroke-width: 3" />
	<polygon points="55.3575429289181,-239.155746115714 33.5,-197.359490092787 40.005724837055,-161.837696300149 61.8632677659706,-203.633952323072 " style="fill: rgb(67,184,206); fill-opacity: 1; stroke: rgb(0,0,0); stroke-width: 3" />
	<polygon points="125.129727202569,-531.397318048428 165.790507434448,-555.300877435195 142.179999221706,-582.62607078931 101.519218989835,-558.722511402545 " style="fill: rgb(67,184,206); fill-opacity: 1; stroke: rgb(0,0,0); stroke-width: 3" />
	<circle cx="226.01192037155" cy="-334.119029218436" r="2" style="fill: rgb(0,0,0)" />
	<circle cx="273.178425440545" cy="-334.119029218436" r="2" style="fill: rgb(0,0,0)" />
	<circle cx="313.839205672438" cy="-358.022588605216" r="2" style="fill: rgb(0,0,0)" />
	<circle cx="266.672700603442" cy="-358.022588605216" r="2" style="fill: rgb(0,0,0)" />
	<circle cx="232.517645208648" cy="-298.597235425786" r="2" style="fill: rgb(0,0,0)" />
	<circle cx="279.684150277635" cy="-298.597235425782" r="2" style="fill: rgb(0,0,0)" />
	<circle cx="285.572166692769" cy="-300.199750516251" r="2" style="fill: rgb(0,0,0)" />
	<circle cx="326.23294692466" cy="-324.103309903028" r="2" style="fill: rgb(0,0,0)" />
	<circle cx="329.290302160559" cy="-390.662838408463" r="2" style="fill: rgb(0,0,0)" />
	<circle cx="282.123797091563" cy="-390.662838408462" r="2" style="fill: rgb(0,0,0)" />
	<circle cx="236.811005611281" cy="-378.330258636479" r="2" style="fill: rgb(0,0,0)" />
	<circle cx="196.150225379385" cy="-354.426699249695" r="2" style="fill: rgb(0,0,0)" />
	<circle cx="204.15437744268" cy="-292.322773195481" r="2" style="fill: rgb(0,0,0)" />
	<circle cx="210.66010227978" cy="-256.800979402836" r="2" style="fill: rgb(0,0,0)" />
	<circle cx="213.813686301975" cy="-255.297799844689" r="2" style="fill: rgb(0,0,0)" />
	<circle cx="260.980191370952" cy="-255.297799844682" r="2" style="fill: rgb(0,0,0)" />
	<circle cx="366.257621949189" cy="-299.14926033979" r="2" style="fill: rgb(0,0,0)" />
	<circle cx="353.863880696966" cy="-333.068539041978" r="2" style="fill: rgb(0,0,0)" />
	<circle cx="323.640032644902" cy="-272.351648565232" r="2" style="fill: rgb(0,0,0)" />
	<circle cx="364.300812876792" cy="-296.255207951996" r="2" style="fill: rgb(0,0,0)" />
	<circle cx="361.005710741433" cy="-358.022588605215" r="2" style="fill: rgb(0,0,0)" />
	<circle cx="376.456807229572" cy="-390.662838408458" r="2" style="fill: rgb(0,0,0)" />
	<circle cx="253.363915601951" cy="-412.502973632566" r="2" style="fill: rgb(0,0,0)" />
	<circle cx="237.912819113828" cy="-379.86272382933" r="2" style="fill: rgb(0,0,0)" />
	<circle cx="300.82775599823" cy="-412.889078663194" r="2" style="fill: rgb(0,0,0)" />
	<circle cx="253.661250929233" cy="-412.889078663192" r="2" style="fill: rgb(0,0,0)" />
	<circle cx="250.083625228885" cy="-411.915372279132" r="2" style="fill: rgb(0,0,0)" />
	<circle cx="209.422844996989" cy="-388.011812892348" r="2" style="fill: rgb(0,0,0)" />
	<circle cx="155.489445147499" cy="-330.523139862904" r="2" style="fill: rgb(0,0,0)" />
	<circle cx="185.35114013966" cy="-310.215469831645" r="2" style="fill: rgb(0,0,0)" />
	<circle cx="168.054161961759" cy="-293.269732611042" r="2" style="fill: rgb(0,0,0)" />
	<circle cx="174.559886798852" cy="-257.747938818404" r="2" style="fill: rgb(0,0,0)" />
	<circle cx="239.023370045756" cy="-215.43364243527" r="2" style="fill: rgb(0,0,0)" />
	<circle cx="286.189875114726" cy="-215.433642435268" r="2" style="fill: rgb(0,0,0)" />
	<circle cx="287.57903784292" cy="-216.346797716562" r="2" style="fill: rgb(0,0,0)" />
	<circle cx="306.282996749602" cy="-259.646233297658" r="2" style="fill: rgb(0,0,0)" />
	<circle cx="396.898586872355" cy="-318.26086829101" r="2" style="fill: rgb(0,0,0)" />
	<circle cx="384.50484562014" cy="-352.180146993195" r="2" style="fill: rgb(0,0,0)" />
	<circle cx="322.11034210972" cy="-225.209955264179" r="2" style="fill: rgb(0,0,0)" />
	<circle cx="362.771122341604" cy="-249.113514650939" r="2" style="fill: rgb(0,0,0)" />
	<circle cx="417.117587461467" cy="-414.566397795238" r="2" style="fill: rgb(0,0,0)" />
	<circle cx="369.951082392451" cy="-414.566397795242" r="2" style="fill: rgb(0,0,0)" />
	<circle cx="319.531714904907" cy="-456.188514244292" r="2" style="fill: rgb(0,0,0)" />
	<circle cx="272.365209835916" cy="-456.188514244292" r="2" style="fill: rgb(0,0,0)" />
	<circle cx="351.14784508942" cy="-432.459094431421" r="2" style="fill: rgb(0,0,0)" />
	<circle cx="322.685298927097" cy="-454.685334686155" r="2" style="fill: rgb(0,0,0)" />
	<circle cx="169.398169972456" cy="-412.965862455581" r="2" style="fill: rgb(0,0,0)" />
	<circle cx="156.125550354846" cy="-379.380748812941" r="2" style="fill: rgb(0,0,0)" />
	<circle cx="212.015759276751" cy="-439.763474230148" r="2" style="fill: rgb(0,0,0)" />
	<circle cx="171.354979044857" cy="-415.859914843377" r="2" style="fill: rgb(0,0,0)" />
	<circle cx="148.983720310388" cy="-354.426699249681" r="2" style="fill: rgb(0,0,0)" />
	<circle cx="108.322940078509" cy="-330.52313986289" r="2" style="fill: rgb(0,0,0)" />
	<circle cx="136.636675786934" cy="-229.70316627575" r="2" style="fill: rgb(0,0,0)" />
	<circle cx="172.736891267863" cy="-228.756206860182" r="2" style="fill: rgb(0,0,0)" />
	<circle cx="129.755960185805" cy="-265.739259655571" r="2" style="fill: rgb(0,0,0)" />
	<circle cx="136.261685022884" cy="-230.21746586293" r="2" style="fill: rgb(0,0,0)" />
	<circle cx="187.214839830002" cy="-216.346797716578" r="2" style="fill: rgb(0,0,0)" />
	<circle cx="212.424523573768" cy="-176.48264030716" r="2" style="fill: rgb(0,0,0)" />
	<circle cx="213.813686301981" cy="-175.569485025851" r="2" style="fill: rgb(0,0,0)" />
	<circle cx="260.980191370945" cy="-175.569485025853" r="2" style="fill: rgb(0,0,0)" />
	<circle cx="443.866473462331" cy="-313.936885208802" r="2" style="fill: rgb(0,0,0)" />
	<circle cx="431.472732210116" cy="-347.856163910985" r="2" style="fill: rgb(0,0,0)" />
	<circle cx="413.16288303158" cy="-294.191873607218" r="2" style="fill: rgb(0,0,0)" />
	<circle cx="443.803847954741" cy="-313.303481558438" r="2" style="fill: rgb(0,0,0)" />
	<circle cx="405.441178993423" cy="-229.015120044546" r="2" style="fill: rgb(0,0,0)" />
	<circle cx="406.970869528612" cy="-276.156813345599" r="2" style="fill: rgb(0,0,0)" />
	<circle cx="364.045623546571" cy="-203.620342686919" r="2" style="fill: rgb(0,0,0)" />
	<circle cx="404.706403778447" cy="-227.523902073679" r="2" style="fill: rgb(0,0,0)" />
	<circle cx="410.61186262437" cy="-450.088191587889" r="2" style="fill: rgb(0,0,0)" />
	<circle cx="363.445357555361" cy="-450.088191587897" r="2" style="fill: rgb(0,0,0)" />
	<circle cx="245.766363363951" cy="-495.139516372413" r="2" style="fill: rgb(0,0,0)" />
	<circle cx="227.062404457267" cy="-451.840080791316" r="2" style="fill: rgb(0,0,0)" />
	<circle cx="294.322031161127" cy="-496.052671653713" r="2" style="fill: rgb(0,0,0)" />
	<circle cx="247.155526092142" cy="-496.052671653705" r="2" style="fill: rgb(0,0,0)" />
	<circle cx="123.127556304348" cy="-422.11515265758" r="2" style="fill: rgb(0,0,0)" />
	<circle cx="109.854936686726" cy="-388.530039014949" r="2" style="fill: rgb(0,0,0)" />
	<circle cx="213.545449811932" cy="-486.905167531203" r="2" style="fill: rgb(0,0,0)" />
	<circle cx="172.884669580042" cy="-463.001608144434" r="2" style="fill: rgb(0,0,0)" />
	<circle cx="143.914261440205" cy="-183.101493049534" r="2" style="fill: rgb(0,0,0)" />
	<circle cx="180.014476921132" cy="-182.15453363396" r="2" style="fill: rgb(0,0,0)" />
	<circle cx="91.4577584098407" cy="-238.208786700116" r="2" style="fill: rgb(0,0,0)" />
	<circle cx="97.9634832469012" cy="-202.686992907466" r="2" style="fill: rgb(0,0,0)" />
	<circle cx="281.198413817283" cy="-132.956075381297" r="2" style="fill: rgb(0,0,0)" />
	<circle cx="306.408097561061" cy="-172.820232790715" r="2" style="fill: rgb(0,0,0)" />
	<circle cx="232.51764520865" cy="-132.270049444756" r="2" style="fill: rgb(0,0,0)" />
	<circle cx="279.684150277607" cy="-132.270049444751" r="2" style="fill: rgb(0,0,0)" />
	<circle cx="490.834360052305" cy="-309.612902126596" r="2" style="fill: rgb(0,0,0)" />
	<circle cx="478.440618800092" cy="-343.532180828776" r="2" style="fill: rgb(0,0,0)" />
	<circle cx="430.506409998907" cy="-250.329802603247" r="2" style="fill: rgb(0,0,0)" />
	<circle cx="461.147374922072" cy="-269.441410554454" r="2" style="fill: rgb(0,0,0)" />
	<circle cx="369.865284487197" cy="-156.814245360182" r="2" style="fill: rgb(0,0,0)" />
	<circle cx="410.526064719069" cy="-180.71780474694" r="2" style="fill: rgb(0,0,0)" />
	<circle cx="438.975130390338" cy="-456.362653818192" r="2" style="fill: rgb(0,0,0)" />
	<circle cx="432.469405553237" cy="-491.884447610837" r="2" style="fill: rgb(0,0,0)" />
	<circle cx="429.315821531053" cy="-493.38762716899" r="2" style="fill: rgb(0,0,0)" />
	<circle cx="382.149316462043" cy="-493.387627168996" r="2" style="fill: rgb(0,0,0)" />
	<circle cx="319.531714904905" cy="-535.916829063134" r="2" style="fill: rgb(0,0,0)" />
	<circle cx="272.365209835922" cy="-535.91682906312" r="2" style="fill: rgb(0,0,0)" />
	<circle cx="159.448640020344" cy="-459.071025443646" r="2" style="fill: rgb(0,0,0)" />
	<circle cx="113.178026352244" cy="-468.220315645653" r="2" style="fill: rgb(0,0,0)" />
	<circle cx="109.79275763814" cy="-467.357415476269" r="2" style="fill: rgb(0,0,0)" />
	<circle cx="96.5201380205192" cy="-433.772301833638" r="2" style="fill: rgb(0,0,0)" />
	<circle cx="171.610168375078" cy="-508.494780108459" r="2" style="fill: rgb(0,0,0)" />
	<circle cx="130.949388143196" cy="-484.59122072169" r="2" style="fill: rgb(0,0,0)" />
	<circle cx="134.203510396565" cy="-136.945447783587" r="2" style="fill: rgb(0,0,0)" />
	<circle cx="170.303725877485" cy="-135.998488368007" r="2" style="fill: rgb(0,0,0)" />
	<circle cx="119.293148819588" cy="-185.84109527179" r="2" style="fill: rgb(0,0,0)" />
	<circle cx="126.570734472867" cy="-139.239422045588" r="2" style="fill: rgb(0,0,0)" />
	<circle cx="55.3575429289181" cy="-239.155746115714" r="2" style="fill: rgb(0,0,0)" />
	<circle cx="61.8632677659706" cy="-203.633952323072" r="2" style="fill: rgb(0,0,0)" />
	<circle cx="204.055099046326" cy="-110.043809190023" r="2" style="fill: rgb(0,0,0)" />
	<circle cx="251.221604115283" cy="-110.043809190021" r="2" style="fill: rgb(0,0,0)" />
	<circle cx="521.475324975475" cy="-328.724510077811" r="2" style="fill: rgb(0,0,0)" />
	<circle cx="509.081583723267" cy="-362.643788779988" r="2" style="fill: rgb(0,0,0)" />
	<circle cx="482.164675238268" cy="-286.406412253313" r="2" style="fill: rgb(0,0,0)" />
	<circle cx="529.13256182822" cy="-282.08242917111" r="2" style="fill: rgb(0,0,0)" />
	<circle cx="462.269214577123" cy="-215.461429458662" r="2" style="fill: rgb(0,0,0)" />
	<circle cx="492.910179500292" cy="-234.573037409855" r="2" style="fill: rgb(0,0,0)" />
	<circle cx="405.666020321878" cy="-152.078255115365" r="2" style="fill: rgb(0,0,0)" />
	<circle cx="446.326800553736" cy="-175.981814502136" r="2" style="fill: rgb(0,0,0)" />
	<circle cx="252.146987389586" cy="-578.530238707677" r="2" style="fill: rgb(0,0,0)" />
	<circle cx="226.937303645805" cy="-538.666081298258" r="2" style="fill: rgb(0,0,0)" />
	<circle cx="300.827755998236" cy="-579.216264644228" r="2" style="fill: rgb(0,0,0)" />
	<circle cx="253.661250929257" cy="-579.216264644221" r="2" style="fill: rgb(0,0,0)" />
	<circle cx="165.790507434448" cy="-555.300877435195" r="2" style="fill: rgb(0,0,0)" />
	<circle cx="125.129727202569" cy="-531.397318048428" r="2" style="fill: rgb(0,0,0)" />
	<circle cx="89.4278116451926" cy="-165.538781971003" r="2" style="fill: rgb(0,0,0)" />
	<circle cx="96.7053972984798" cy="-118.937108744808" r="2" style="fill: rgb(0,0,0)" />
	<circle cx="33.5" cy="-197.359490092787" r="2" style="fill: rgb(0,0,0)" />
	<circle cx="40.005724837055" cy="-161.837696300149" r="2" style="fill: rgb(0,0,0)" />
	<circle cx="219.506195534453" cy="-77.4035593867742" r="2" style="fill: rgb(0,0,0)" />
	<circle cx="266.672700603416" cy="-77.4035593867771" r="2" style="fill: rgb(0,0,0)" />
	<circle cx="267.111750106448" cy="-77.6150326129863" r="2" style="fill: rgb(0,0,0)" />
	<circle cx="295.57429626877" cy="-99.8412728677115" r="2" style="fill: rgb(0,0,0)" />
	<circle cx="530.518654067923" cy="-284.121020891469" r="2" style="fill: rgb(0,0,0)" />
	<circle cx="561.159618991098" cy="-303.232628842673" r="2" style="fill: rgb(0,0,0)" />
	<circle cx="561.5" cy="-303.770460514563" r="2" style="fill: rgb(0,0,0)" />
	<circle cx="549.106258747789" cy="-337.68973921674" r="2" style="fill: rgb(0,0,0)" />
	<circle cx="408.887893782807" cy="-116.10963238241" r="2" style="fill: rgb(0,0,0)" />
	<circle cx="449.548674014658" cy="-140.013191769183" r="2" style="fill: rgb(0,0,0)" />
	<circle cx="307.33348083534" cy="-614.738058436876" r="2" style="fill: rgb(0,0,0)" />
	<circle cx="260.166975766363" cy="-614.738058436868" r="2" style="fill: rgb(0,0,0)" />
	<circle cx="142.179999221706" cy="-582.62607078931" r="2" style="fill: rgb(0,0,0)" />
	<circle cx="101.519218989835" cy="-558.722511402545" r="2" style="fill: rgb(0,0,0)" />
	<circle cx="260.166975766348" cy="-53.5" r="2" style="fill: rgb(0,0,0)" />
	<circle cx="307.333480835306" cy="-53.5000000000246" r="2" style="fill: rgb(0,0,0)" />
	<!--
	Generated using the Perl SVG Module V2.87
	by Ronan Oger

	-->
</svg>