<?xml version="1.0" encoding="UTF-8" standalone="yes"?>
<!DOCTYPE svg PUBLIC "-//W3C//DTD SVG 1.0//EN" "http://www.w3.org/TR/2001/REC-SVG-20010904/DTD/svg10.dtd">
<!-- generated using polymake; Michael Joswig, Georg Loho, Benjamin Lorenz, Rico Raber; license CC BY-NC-ND 3.0; see polymake.org and matchthenet.de -->
<svg height="841pt" id="document" viewBox="0 -719.440659320335 572 719.440659320335" width="595pt" xmlns="http://www.w3.org/2000/svg" xmlns:svg="http://www.w3.org/2000/svg" xmlns:xlink="http://www.w3.org/1999/xlink">
	<title id="document_title">planar_net_</title>
	<polygon points="268.453125510137,-367.422320414206 323.4059009962,-367.422320414206 298.910972560026,-416.613844221958 243.958197073971,-416.613844221972 " style="fill: rgb(67,184,206); fill-opacity: 1; stroke: rgb(0,0,0); stroke-width: 3" />
	<polygon points="364.853163651191,-321.20472286825 323.4059009962,-367.422320414206 268.453125510137,-367.422320414206 223.862165687822,-355.867921027717 207.537431410368,-312.794020649084 201.574512796662,-258.165720883963 243.021775451653,-211.948123338007 297.974550937716,-211.948123338007 342.565510760031,-223.502522724496 358.890245037485,-266.576423103128 " style="fill: rgb(136,136,136); fill-opacity: 1; stroke: rgb(0,0,0); stroke-width: 3" />
	<polygon points="298.910972560026,-416.613844221958 323.4059009962,-367.422320414206 383.252956100129,-350.92165679424 429.496080697246,-380.609717713022 460.777441518379,-414.422944536796 451.244276858186,-459.489302439557 426.749348422011,-508.680826247309 366.902293318081,-525.181489867275 320.659168720965,-495.493428948493 289.377807899831,-461.680202124719 " style="fill: rgb(136,136,136); fill-opacity: 1; stroke: rgb(0,0,0); stroke-width: 3" />
	<polygon points="243.958197073971,-416.613844221972 298.910972560026,-416.613844221958 284.777859787602,-460.455753012748 229.825084301557,-460.455753012769 " style="fill: rgb(67,184,206); fill-opacity: 1; stroke: rgb(0,0,0); stroke-width: 3" />
	<polygon points="180.929759206421,-390.169757820191 142.275003461792,-415.223055035949 125.950269184337,-372.149154657328 164.605024928966,-347.095857441563 " style="fill: rgb(67,184,206); fill-opacity: 1; stroke: rgb(0,0,0); stroke-width: 3" />
	<polygon points="411.096288248312,-291.516661949449 364.853163651191,-321.20472286825 358.890245037485,-266.576423103128 405.133369634602,-236.888362184338 " style="fill: rgb(67,184,206); fill-opacity: 1; stroke: rgb(0,0,0); stroke-width: 3" />
	<polygon points="268.453125510137,-367.422320414206 243.958197073971,-416.613844221972 198.412910892108,-409.72292630995 222.907839328273,-360.531402502185 " style="fill: rgb(67,184,206); fill-opacity: 1; stroke: rgb(0,0,0); stroke-width: 3" />
	<polygon points="289.377807899831,-461.680202124719 320.659168720965,-495.493428948493 270.816629898229,-518.634925385108 239.535269077086,-484.821698561348 " style="fill: rgb(67,184,206); fill-opacity: 1; stroke: rgb(0,0,0); stroke-width: 3" />
	<polygon points="460.777441518379,-414.422944536796 429.496080697246,-380.609717713022 479.338619519982,-357.468221276408 510.619980341125,-391.281448100167 " style="fill: rgb(67,184,206); fill-opacity: 1; stroke: rgb(0,0,0); stroke-width: 3" />
	<polygon points="358.890245037485,-266.576423103128 342.565510760031,-223.502522724496 385.497917241432,-189.200685932021 401.822651518887,-232.27458631065 " style="fill: rgb(67,184,206); fill-opacity: 1; stroke: rgb(0,0,0); stroke-width: 3" />
	<polygon points="223.862165687822,-355.867921027717 180.929759206421,-390.169757820191 164.605024928966,-347.095857441563 207.537431410368,-312.794020649084 " style="fill: rgb(67,184,206); fill-opacity: 1; stroke: rgb(0,0,0); stroke-width: 3" />
	<polygon points="342.565510760031,-223.502522724496 297.974550937716,-211.948123338007 327.415258213086,-165.547128857848 372.006218035401,-177.10152824432 " style="fill: rgb(67,184,206); fill-opacity: 1; stroke: rgb(0,0,0); stroke-width: 3" />
	<polygon points="320.659168720965,-495.493428948493 366.902293318081,-525.181489867275 319.71408562107,-553.343176392869 273.470961023949,-523.655115474094 " style="fill: rgb(67,184,206); fill-opacity: 1; stroke: rgb(0,0,0); stroke-width: 3" />
	<polygon points="440.477407263516,-207.221289094888 401.822651518887,-232.27458631065 385.497917241432,-189.200685932021 424.152672986062,-164.147388716263 " style="fill: rgb(67,184,206); fill-opacity: 1; stroke: rgb(0,0,0); stroke-width: 3" />
	<polygon points="243.958197073971,-416.613844221972 229.825084301557,-460.455753012769 183.987257622269,-455.900372855465 198.120370394676,-412.058464064672 " style="fill: rgb(67,184,206); fill-opacity: 1; stroke: rgb(0,0,0); stroke-width: 3" />
	<polygon points="451.244276858186,-459.489302439557 460.777441518379,-414.422944536796 515.436803414603,-408.751816719537 505.90363875441,-453.818174622295 " style="fill: rgb(67,184,206); fill-opacity: 1; stroke: rgb(0,0,0); stroke-width: 3" />
	<polygon points="505.90363875441,-453.818174622295 515.436803414603,-408.751816719537 561.5,-408.55240911414 551.966835339809,-453.618767016892 " style="fill: rgb(67,184,206); fill-opacity: 1; stroke: rgb(0,0,0); stroke-width: 3" />
	<polygon points="297.974550937716,-211.948123338007 243.021775451653,-211.948123338007 267.516703887828,-162.756599530248 322.469479373882,-162.756599530244 " style="fill: rgb(67,184,206); fill-opacity: 1; stroke: rgb(0,0,0); stroke-width: 3" />
	<polygon points="366.902293318081,-525.181489867275 426.749348422011,-508.680826247309 472.992473019131,-538.368887166093 504.273833840268,-572.182113989867 494.740669180074,-617.248471892626 470.245740743897,-666.439995700374 410.398685639963,-682.940659320335 364.155561042843,-653.252598401551 332.874200221706,-619.439371577777 342.4073648819,-574.373013675019 " style="fill: rgb(136,136,136); fill-opacity: 1; stroke: rgb(0,0,0); stroke-width: 3" />
	<polygon points="426.749348422011,-508.680826247309 451.244276858186,-459.489302439557 506.197052344256,-459.489302439552 481.702123908088,-508.680826247296 " style="fill: rgb(67,184,206); fill-opacity: 1; stroke: rgb(0,0,0); stroke-width: 3" />
	<polygon points="201.574512796662,-258.165720883963 207.537431410368,-312.794020649084 161.294306813252,-342.482081567872 155.331388199541,-287.853781802763 " style="fill: rgb(67,184,206); fill-opacity: 1; stroke: rgb(0,0,0); stroke-width: 3" />
	<polygon points="372.006218035401,-177.10152824432 327.415258213086,-165.547128857848 348.126202433851,-124.402085018487 392.717162256157,-135.956484404947 " style="fill: rgb(67,184,206); fill-opacity: 1; stroke: rgb(0,0,0); stroke-width: 3" />
	<polygon points="243.021775451653,-211.948123338007 201.574512796662,-258.165720883963 146.621737310597,-258.16572088396 102.030777488281,-246.611321497469 85.7060432108268,-203.537421118837 79.7431245971212,-148.909121353717 121.190387252114,-102.691523807764 176.143162738179,-102.691523807768 220.734122560495,-114.245923194259 237.058856837949,-157.319823572891 " style="fill: rgb(136,136,136); fill-opacity: 1; stroke: rgb(0,0,0); stroke-width: 3" />
	<polygon points="239.535269077086,-484.821698561348 270.816629898229,-518.634925385108 231.159755011424,-542.069731065348 199.878394190279,-508.256504241604 " style="fill: rgb(67,184,206); fill-opacity: 1; stroke: rgb(0,0,0); stroke-width: 3" />
	<polygon points="96.725014847367,-422.082820358752 80.4002805699071,-379.008919980142 125.950269184337,-372.149154657328 142.275003461792,-415.223055035949 " style="fill: rgb(67,184,206); fill-opacity: 1; stroke: rgb(0,0,0); stroke-width: 3" />
	<polygon points="472.992473019131,-538.368887166093 522.835011841867,-515.227390729477 554.116372663013,-549.040617553236 504.273833840268,-572.182113989867 " style="fill: rgb(67,184,206); fill-opacity: 1; stroke: rgb(0,0,0); stroke-width: 3" />
	<polygon points="319.71408562107,-553.343176392869 284.135526821023,-582.601064163001 237.892402223907,-552.913003244236 273.470961023949,-523.655115474094 " style="fill: rgb(67,184,206); fill-opacity: 1; stroke: rgb(0,0,0); stroke-width: 3" />
	<polygon points="267.516703887828,-162.756599530248 281.649816660252,-118.914690739457 336.602592146295,-118.914690739448 322.469479373882,-162.756599530244 " style="fill: rgb(67,184,206); fill-opacity: 1; stroke: rgb(0,0,0); stroke-width: 3" />
	<polygon points="394.59379979621,-89.931099294094 392.717162256157,-135.956484404947 348.126202433851,-124.402085018487 350.002839973908,-78.3766999076433 " style="fill: rgb(67,184,206); fill-opacity: 1; stroke: rgb(0,0,0); stroke-width: 3" />
	<polygon points="155.331388199541,-287.853781802763 161.294306813252,-342.482081567872 119.244850456605,-361.289023455603 113.281931842895,-306.660723690498 " style="fill: rgb(67,184,206); fill-opacity: 1; stroke: rgb(0,0,0); stroke-width: 3" />
	<polygon points="121.190387252114,-102.691523807764 145.685315688284,-53.5 200.638091174347,-53.500000000006 176.143162738179,-102.691523807768 " style="fill: rgb(67,184,206); fill-opacity: 1; stroke: rgb(0,0,0); stroke-width: 3" />
	<polygon points="332.874200221706,-619.439371577777 364.155561042843,-653.252598401551 314.313022220108,-676.394094838168 283.031661398962,-642.580868014409 " style="fill: rgb(67,184,206); fill-opacity: 1; stroke: rgb(0,0,0); stroke-width: 3" />
	<polygon points="85.7060432108268,-203.537421118837 102.030777488281,-246.611321497469 59.0983710068782,-280.913158289942 42.7736367294249,-237.839257911316 " style="fill: rgb(67,184,206); fill-opacity: 1; stroke: rgb(0,0,0); stroke-width: 3" />
	<polygon points="494.740669180074,-617.248471892626 504.273833840268,-572.182113989867 558.933195736491,-566.510986172611 549.400031076298,-611.577344075364 " style="fill: rgb(67,184,206); fill-opacity: 1; stroke: rgb(0,0,0); stroke-width: 3" />
	<polygon points="220.734122560495,-114.245923194259 176.143162738179,-102.691523807768 205.583870013551,-56.2905293276093 250.174829835868,-67.8449287140833 " style="fill: rgb(67,184,206); fill-opacity: 1; stroke: rgb(0,0,0); stroke-width: 3" />
	<polygon points="33.5,-178.597182272516 79.7431245971212,-148.909121353717 85.7060432108268,-203.537421118837 39.4629186137079,-233.225482037622 " style="fill: rgb(67,184,206); fill-opacity: 1; stroke: rgb(0,0,0); stroke-width: 3" />
	<circle cx="268.453125510137" cy="-367.422320414206" r="2" style="fill: rgb(0,0,0)" />
	<circle cx="323.4059009962" cy="-367.422320414206" r="2" style="fill: rgb(0,0,0)" />
	<circle cx="298.910972560026" cy="-416.613844221958" r="2" style="fill: rgb(0,0,0)" />
	<circle cx="243.958197073971" cy="-416.613844221972" r="2" style="fill: rgb(0,0,0)" />
	<circle cx="223.862165687822" cy="-355.867921027717" r="2" style="fill: rgb(0,0,0)" />
	<circle cx="207.537431410368" cy="-312.794020649084" r="2" style="fill: rgb(0,0,0)" />
	<circle cx="201.574512796662" cy="-258.165720883963" r="2" style="fill: rgb(0,0,0)" />
	<circle cx="243.021775451653" cy="-211.948123338007" r="2" style="fill: rgb(0,0,0)" />
	<circle cx="297.974550937716" cy="-211.948123338007" r="2" style="fill: rgb(0,0,0)" />
	<circle cx="342.565510760031" cy="-223.502522724496" r="2" style="fill: rgb(0,0,0)" />
	<circle cx="358.890245037485" cy="-266.576423103128" r="2" style="fill: rgb(0,0,0)" />
	<circle cx="364.853163651191" cy="-321.20472286825" r="2" style="fill: rgb(0,0,0)" />
	<circle cx="383.252956100129" cy="-350.92165679424" r="2" style="fill: rgb(0,0,0)" />
	<circle cx="429.496080697246" cy="-380.609717713022" r="2" style="fill: rgb(0,0,0)" />
	<circle cx="460.777441518379" cy="-414.422944536796" r="2" style="fill: rgb(0,0,0)" />
	<circle cx="451.244276858186" cy="-459.489302439557" r="2" style="fill: rgb(0,0,0)" />
	<circle cx="426.749348422011" cy="-508.680826247309" r="2" style="fill: rgb(0,0,0)" />
	<circle cx="366.902293318081" cy="-525.181489867275" r="2" style="fill: rgb(0,0,0)" />
	<circle cx="320.659168720965" cy="-495.493428948493" r="2" style="fill: rgb(0,0,0)" />
	<circle cx="289.377807899831" cy="-461.680202124719" r="2" style="fill: rgb(0,0,0)" />
	<circle cx="284.777859787602" cy="-460.455753012748" r="2" style="fill: rgb(0,0,0)" />
	<circle cx="229.825084301557" cy="-460.455753012769" r="2" style="fill: rgb(0,0,0)" />
	<circle cx="198.412910892108" cy="-409.72292630995" r="2" style="fill: rgb(0,0,0)" />
	<circle cx="222.907839328273" cy="-360.531402502185" r="2" style="fill: rgb(0,0,0)" />
	<circle cx="405.133369634602" cy="-236.888362184338" r="2" style="fill: rgb(0,0,0)" />
	<circle cx="411.096288248312" cy="-291.516661949449" r="2" style="fill: rgb(0,0,0)" />
	<circle cx="385.497917241432" cy="-189.200685932021" r="2" style="fill: rgb(0,0,0)" />
	<circle cx="401.822651518887" cy="-232.27458631065" r="2" style="fill: rgb(0,0,0)" />
	<circle cx="180.929759206421" cy="-390.169757820191" r="2" style="fill: rgb(0,0,0)" />
	<circle cx="164.605024928966" cy="-347.095857441563" r="2" style="fill: rgb(0,0,0)" />
	<circle cx="327.415258213086" cy="-165.547128857848" r="2" style="fill: rgb(0,0,0)" />
	<circle cx="372.006218035401" cy="-177.10152824432" r="2" style="fill: rgb(0,0,0)" />
	<circle cx="267.516703887828" cy="-162.756599530248" r="2" style="fill: rgb(0,0,0)" />
	<circle cx="322.469479373882" cy="-162.756599530244" r="2" style="fill: rgb(0,0,0)" />
	<circle cx="161.294306813252" cy="-342.482081567872" r="2" style="fill: rgb(0,0,0)" />
	<circle cx="155.331388199541" cy="-287.853781802763" r="2" style="fill: rgb(0,0,0)" />
	<circle cx="146.621737310597" cy="-258.16572088396" r="2" style="fill: rgb(0,0,0)" />
	<circle cx="102.030777488281" cy="-246.611321497469" r="2" style="fill: rgb(0,0,0)" />
	<circle cx="85.7060432108268" cy="-203.537421118837" r="2" style="fill: rgb(0,0,0)" />
	<circle cx="79.7431245971212" cy="-148.909121353717" r="2" style="fill: rgb(0,0,0)" />
	<circle cx="121.190387252114" cy="-102.691523807764" r="2" style="fill: rgb(0,0,0)" />
	<circle cx="176.143162738179" cy="-102.691523807768" r="2" style="fill: rgb(0,0,0)" />
	<circle cx="220.734122560495" cy="-114.245923194259" r="2" style="fill: rgb(0,0,0)" />
	<circle cx="237.058856837949" cy="-157.319823572891" r="2" style="fill: rgb(0,0,0)" />
	<circle cx="270.816629898229" cy="-518.634925385108" r="2" style="fill: rgb(0,0,0)" />
	<circle cx="239.535269077086" cy="-484.821698561348" r="2" style="fill: rgb(0,0,0)" />
	<circle cx="479.338619519982" cy="-357.468221276408" r="2" style="fill: rgb(0,0,0)" />
	<circle cx="510.619980341125" cy="-391.281448100167" r="2" style="fill: rgb(0,0,0)" />
	<circle cx="319.71408562107" cy="-553.343176392869" r="2" style="fill: rgb(0,0,0)" />
	<circle cx="273.470961023949" cy="-523.655115474094" r="2" style="fill: rgb(0,0,0)" />
	<circle cx="515.436803414603" cy="-408.751816719537" r="2" style="fill: rgb(0,0,0)" />
	<circle cx="505.90363875441" cy="-453.818174622295" r="2" style="fill: rgb(0,0,0)" />
	<circle cx="472.992473019131" cy="-538.368887166093" r="2" style="fill: rgb(0,0,0)" />
	<circle cx="504.273833840268" cy="-572.182113989867" r="2" style="fill: rgb(0,0,0)" />
	<circle cx="494.740669180074" cy="-617.248471892626" r="2" style="fill: rgb(0,0,0)" />
	<circle cx="470.245740743897" cy="-666.439995700374" r="2" style="fill: rgb(0,0,0)" />
	<circle cx="410.398685639963" cy="-682.940659320335" r="2" style="fill: rgb(0,0,0)" />
	<circle cx="364.155561042843" cy="-653.252598401551" r="2" style="fill: rgb(0,0,0)" />
	<circle cx="332.874200221706" cy="-619.439371577777" r="2" style="fill: rgb(0,0,0)" />
	<circle cx="342.4073648819" cy="-574.373013675019" r="2" style="fill: rgb(0,0,0)" />
	<circle cx="506.197052344256" cy="-459.489302439552" r="2" style="fill: rgb(0,0,0)" />
	<circle cx="481.702123908088" cy="-508.680826247296" r="2" style="fill: rgb(0,0,0)" />
	<circle cx="183.987257622269" cy="-455.900372855465" r="2" style="fill: rgb(0,0,0)" />
	<circle cx="198.120370394676" cy="-412.058464064672" r="2" style="fill: rgb(0,0,0)" />
	<circle cx="424.152672986062" cy="-164.147388716263" r="2" style="fill: rgb(0,0,0)" />
	<circle cx="440.477407263516" cy="-207.221289094888" r="2" style="fill: rgb(0,0,0)" />
	<circle cx="142.275003461792" cy="-415.223055035949" r="2" style="fill: rgb(0,0,0)" />
	<circle cx="125.950269184337" cy="-372.149154657328" r="2" style="fill: rgb(0,0,0)" />
	<circle cx="348.126202433851" cy="-124.402085018487" r="2" style="fill: rgb(0,0,0)" />
	<circle cx="392.717162256157" cy="-135.956484404947" r="2" style="fill: rgb(0,0,0)" />
	<circle cx="281.649816660252" cy="-118.914690739457" r="2" style="fill: rgb(0,0,0)" />
	<circle cx="336.602592146295" cy="-118.914690739448" r="2" style="fill: rgb(0,0,0)" />
	<circle cx="119.244850456605" cy="-361.289023455603" r="2" style="fill: rgb(0,0,0)" />
	<circle cx="113.281931842895" cy="-306.660723690498" r="2" style="fill: rgb(0,0,0)" />
	<circle cx="145.685315688284" cy="-53.5" r="2" style="fill: rgb(0,0,0)" />
	<circle cx="200.638091174347" cy="-53.500000000006" r="2" style="fill: rgb(0,0,0)" />
	<circle cx="59.0983710068782" cy="-280.913158289942" r="2" style="fill: rgb(0,0,0)" />
	<circle cx="42.7736367294249" cy="-237.839257911316" r="2" style="fill: rgb(0,0,0)" />
	<circle cx="205.583870013551" cy="-56.2905293276093" r="2" style="fill: rgb(0,0,0)" />
	<circle cx="250.174829835868" cy="-67.8449287140833" r="2" style="fill: rgb(0,0,0)" />
	<circle cx="39.4629186137079" cy="-233.225482037622" r="2" style="fill: rgb(0,0,0)" />
	<circle cx="33.5" cy="-178.597182272516" r="2" style="fill: rgb(0,0,0)" />
	<circle cx="231.159755011424" cy="-542.069731065348" r="2" style="fill: rgb(0,0,0)" />
	<circle cx="199.878394190279" cy="-508.256504241604" r="2" style="fill: rgb(0,0,0)" />
	<circle cx="284.135526821023" cy="-582.601064163001" r="2" style="fill: rgb(0,0,0)" />
	<circle cx="237.892402223907" cy="-552.913003244236" r="2" style="fill: rgb(0,0,0)" />
	<circle cx="561.5" cy="-408.55240911414" r="2" style="fill: rgb(0,0,0)" />
	<circle cx="551.966835339809" cy="-453.618767016892" r="2" style="fill: rgb(0,0,0)" />
	<circle cx="522.835011841867" cy="-515.227390729477" r="2" style="fill: rgb(0,0,0)" />
	<circle cx="554.116372663013" cy="-549.040617553236" r="2" style="fill: rgb(0,0,0)" />
	<circle cx="314.313022220108" cy="-676.394094838168" r="2" style="fill: rgb(0,0,0)" />
	<circle cx="283.031661398962" cy="-642.580868014409" r="2" style="fill: rgb(0,0,0)" />
	<circle cx="558.933195736491" cy="-566.510986172611" r="2" style="fill: rgb(0,0,0)" />
	<circle cx="549.400031076298" cy="-611.577344075364" r="2" style="fill: rgb(0,0,0)" />
	<circle cx="96.725014847367" cy="-422.082820358752" r="2" style="fill: rgb(0,0,0)" />
	<circle cx="80.4002805699071" cy="-379.008919980142" r="2" style="fill: rgb(0,0,0)" />
	<circle cx="350.002839973908" cy="-78.3766999076433" r="2" style="fill: rgb(0,0,0)" />
	<circle cx="394.59379979621" cy="-89.931099294094" r="2" style="fill: rgb(0,0,0)" />
	<!--
	Generated using the Perl SVG Module V2.87
	by Ronan Oger

	-->
</svg>