<?xml version="1.0" encoding="UTF-8" standalone="yes"?>
<!DOCTYPE svg PUBLIC "-//W3C//DTD SVG 1.0//EN" "http://www.w3.org/TR/2001/REC-SVG-20010904/DTD/svg10.dtd">
<!-- generated using polymake; Michael Joswig, Georg Loho, Benjamin Lorenz, Rico Raber; license CC BY-NC-ND 3.0; see polymake.org and matchthenet.de -->
<svg height="841pt" id="document" viewBox="0 -738.784375237151 572 738.784375237151" width="595pt" xmlns="http://www.w3.org/2000/svg" xmlns:svg="http://www.w3.org/2000/svg" xmlns:xlink="http://www.w3.org/1999/xlink">
	<title id="document_title">planar_net_</title>
	<polygon points="185.599819205079,-415.482205698076 276.859710728122,-415.482205698076 246.439746887113,-501.522856559804 155.179855364079,-501.522856559818 " style="fill: rgb(67,184,206); fill-opacity: 1; stroke: rgb(0,0,0); stroke-width: 3" />
	<polygon points="350.299999999988,-311.621952585181 276.859710728122,-415.482205698076 185.599819205079,-415.482205698076 155.179855364064,-329.441554836352 228.620144635932,-225.581301723456 319.880036158971,-225.581301723455 " style="fill: rgb(238,66,102); fill-opacity: 1; stroke: rgb(0,0,0); stroke-width: 3" />
	<polygon points="246.439746887113,-501.522856559804 276.859710728122,-415.482205698076 399.260192847916,-380.862121327105 470.240108476952,-438.222555234919 439.82014463594,-524.263206096647 317.419662516146,-558.883290467618 " style="fill: rgb(238,66,102); fill-opacity: 1; stroke: rgb(0,0,0); stroke-width: 3" />
	<polygon points="155.179855364079,-501.522856559818 246.439746887113,-501.522856559804 276.85971072813,-587.563507421531 185.599819205106,-587.563507421552 " style="fill: rgb(67,184,206); fill-opacity: 1; stroke: rgb(0,0,0); stroke-width: 3" />
	<polygon points="155.179855364064,-329.441554836352 63.9199638410206,-329.441554836354 33.5,-243.400903974635 106.940289271869,-139.540650861745 198.200180794913,-139.540650861742 228.620144635932,-225.581301723456 " style="fill: rgb(238,66,102); fill-opacity: 1; stroke: rgb(0,0,0); stroke-width: 3" />
	<polygon points="421.27991562902,-254.261518677355 350.299999999988,-311.621952585181 319.880036158971,-225.581301723455 390.859951788005,-168.220867815634 " style="fill: rgb(67,184,206); fill-opacity: 1; stroke: rgb(0,0,0); stroke-width: 3" />
	<polygon points="185.599819205079,-415.482205698076 155.179855364079,-501.522856559818 84.1999397350276,-444.16242265202 114.619903576012,-358.121771790282 " style="fill: rgb(67,184,206); fill-opacity: 1; stroke: rgb(0,0,0); stroke-width: 3" />
	<polygon points="439.82014463594,-524.263206096647 470.240108476952,-438.222555234919 561.5,-438.222555234914 531.080036158987,-524.263206096634 " style="fill: rgb(67,184,206); fill-opacity: 1; stroke: rgb(0,0,0); stroke-width: 3" />
	<polygon points="319.880036158971,-225.581301723455 228.620144635932,-225.581301723456 259.040108476945,-139.540650861723 350.299999999971,-139.540650861712 " style="fill: rgb(67,184,206); fill-opacity: 1; stroke: rgb(0,0,0); stroke-width: 3" />
	<polygon points="155.179855364079,-501.522856559818 185.599819205106,-587.563507421552 114.619903576077,-644.92394132938 84.1999397350468,-558.883290467658 " style="fill: rgb(67,184,206); fill-opacity: 1; stroke: rgb(0,0,0); stroke-width: 3" />
	<polygon points="317.419662516146,-558.883290467618 439.82014463594,-524.263206096647 510.800060264985,-581.623640004463 480.380096423971,-667.664290866187 357.979614304165,-702.284375237151 286.999698675121,-644.923941329336 " style="fill: rgb(238,66,102); fill-opacity: 1; stroke: rgb(0,0,0); stroke-width: 3" />
	<polygon points="137.360253112879,-53.5000000000101 228.620144635914,-53.5 198.200180794913,-139.540650861742 106.940289271869,-139.540650861745 " style="fill: rgb(67,184,206); fill-opacity: 1; stroke: rgb(0,0,0); stroke-width: 3" />
	<circle cx="185.599819205079" cy="-415.482205698076" r="2" style="fill: rgb(0,0,0)" />
	<circle cx="276.859710728122" cy="-415.482205698076" r="2" style="fill: rgb(0,0,0)" />
	<circle cx="246.439746887113" cy="-501.522856559804" r="2" style="fill: rgb(0,0,0)" />
	<circle cx="155.179855364079" cy="-501.522856559818" r="2" style="fill: rgb(0,0,0)" />
	<circle cx="155.179855364064" cy="-329.441554836352" r="2" style="fill: rgb(0,0,0)" />
	<circle cx="228.620144635932" cy="-225.581301723456" r="2" style="fill: rgb(0,0,0)" />
	<circle cx="319.880036158971" cy="-225.581301723455" r="2" style="fill: rgb(0,0,0)" />
	<circle cx="350.299999999988" cy="-311.621952585181" r="2" style="fill: rgb(0,0,0)" />
	<circle cx="399.260192847916" cy="-380.862121327105" r="2" style="fill: rgb(0,0,0)" />
	<circle cx="470.240108476952" cy="-438.222555234919" r="2" style="fill: rgb(0,0,0)" />
	<circle cx="439.82014463594" cy="-524.263206096647" r="2" style="fill: rgb(0,0,0)" />
	<circle cx="317.419662516146" cy="-558.883290467618" r="2" style="fill: rgb(0,0,0)" />
	<circle cx="276.85971072813" cy="-587.563507421531" r="2" style="fill: rgb(0,0,0)" />
	<circle cx="185.599819205106" cy="-587.563507421552" r="2" style="fill: rgb(0,0,0)" />
	<circle cx="84.1999397350276" cy="-444.16242265202" r="2" style="fill: rgb(0,0,0)" />
	<circle cx="114.619903576012" cy="-358.121771790282" r="2" style="fill: rgb(0,0,0)" />
	<circle cx="63.9199638410206" cy="-329.441554836354" r="2" style="fill: rgb(0,0,0)" />
	<circle cx="33.5" cy="-243.400903974635" r="2" style="fill: rgb(0,0,0)" />
	<circle cx="106.940289271869" cy="-139.540650861745" r="2" style="fill: rgb(0,0,0)" />
	<circle cx="198.200180794913" cy="-139.540650861742" r="2" style="fill: rgb(0,0,0)" />
	<circle cx="390.859951788005" cy="-168.220867815634" r="2" style="fill: rgb(0,0,0)" />
	<circle cx="421.27991562902" cy="-254.261518677355" r="2" style="fill: rgb(0,0,0)" />
	<circle cx="259.040108476945" cy="-139.540650861723" r="2" style="fill: rgb(0,0,0)" />
	<circle cx="350.299999999971" cy="-139.540650861712" r="2" style="fill: rgb(0,0,0)" />
	<circle cx="561.5" cy="-438.222555234914" r="2" style="fill: rgb(0,0,0)" />
	<circle cx="531.080036158987" cy="-524.263206096634" r="2" style="fill: rgb(0,0,0)" />
	<circle cx="510.800060264985" cy="-581.623640004463" r="2" style="fill: rgb(0,0,0)" />
	<circle cx="480.380096423971" cy="-667.664290866187" r="2" style="fill: rgb(0,0,0)" />
	<circle cx="357.979614304165" cy="-702.284375237151" r="2" style="fill: rgb(0,0,0)" />
	<circle cx="286.999698675121" cy="-644.923941329336" r="2" style="fill: rgb(0,0,0)" />
	<circle cx="114.619903576077" cy="-644.92394132938" r="2" style="fill: rgb(0,0,0)" />
	<circle cx="84.1999397350468" cy="-558.883290467658" r="2" style="fill: rgb(0,0,0)" />
	<circle cx="137.360253112879" cy="-53.5000000000101" r="2" style="fill: rgb(0,0,0)" />
	<circle cx="228.620144635914" cy="-53.5" r="2" style="fill: rgb(0,0,0)" />
	<!--
	Generated using the Perl SVG Module V2.87
	by Ronan Oger

	-->
</svg>