<?xml version="1.0" encoding="UTF-8" standalone="yes"?>
<!DOCTYPE svg PUBLIC "-//W3C//DTD SVG 1.0//EN" "http://www.w3.org/TR/2001/REC-SVG-20010904/DTD/svg10.dtd">
<!-- generated using polymake; Michael Joswig, Georg Loho, Benjamin Lorenz, Rico Raber; license CC BY-NC-ND 3.0; see polymake.org and matchthenet.de -->
<svg height="841pt" id="document" viewBox="0 -762.530541362928 572 762.530541362928" width="595pt" xmlns="http://www.w3.org/2000/svg" xmlns:svg="http://www.w3.org/2000/svg" xmlns:xlink="http://www.w3.org/1999/xlink">
	<title id="document_title">planar_net_</title>
	<polygon points="245.94473515378,-371.669730819229 293.871251691706,-371.669730819229 310.062104240508,-410.089701707283 262.135587702586,-410.089701707286 " style="fill: rgb(157,116,59); fill-opacity: 1; stroke: rgb(0,0,0); stroke-width: 3" />
	<polygon points="222.072304474994,-332.119746428972 205.881451926202,-370.539717317026 176.226005236085,-337.79522507659 192.416857784859,-299.375254188535 " style="fill: rgb(157,116,59); fill-opacity: 1; stroke: rgb(0,0,0); stroke-width: 3" />
	<polygon points="310.062104240493,-333.249759931168 293.871251691706,-371.669730819229 245.94473515378,-371.669730819229 262.135587702575,-333.249759931172 " style="fill: rgb(157,116,59); fill-opacity: 1; stroke: rgb(0,0,0); stroke-width: 3" />
	<polygon points="245.94473515378,-371.669730819229 205.881451926202,-370.539717317026 222.072304474994,-332.119746428972 262.135587702575,-333.249759931172 " style="fill: rgb(157,116,59); fill-opacity: 1; stroke: rgb(0,0,0); stroke-width: 3" />
	<polygon points="310.062104240493,-333.249759931168 262.135587702575,-333.249759931172 240.075732126817,-294.974310065085 288.002248664722,-294.974310065074 " style="fill: rgb(157,116,59); fill-opacity: 1; stroke: rgb(0,0,0); stroke-width: 3" />
	<polygon points="362.496647852848,-335.478651094525 314.570131314921,-335.478651094529 336.629986890681,-297.203201228449 384.556503428614,-297.203201228448 " style="fill: rgb(157,116,59); fill-opacity: 1; stroke: rgb(0,0,0); stroke-width: 3" />
	<polygon points="150.166505422723,-441.217051981387 166.357357971535,-479.637022869422 122.625920886769,-473.375337714849 106.43506833794,-434.955366826816 " style="fill: rgb(157,116,59); fill-opacity: 1; stroke: rgb(0,0,0); stroke-width: 3" />
	<polygon points="205.881451926195,-372.79974432146 176.226005236098,-405.544236561916 133.596668927283,-393.951696877079 163.252115617369,-361.207204636626 " style="fill: rgb(157,116,59); fill-opacity: 1; stroke: rgb(0,0,0); stroke-width: 3" />
	<polygon points="262.135587702575,-333.249759931172 222.072304474994,-332.119746428972 197.78904430074,-295.214861037147 237.852327528317,-296.344874539346 " style="fill: rgb(157,116,59); fill-opacity: 1; stroke: rgb(0,0,0); stroke-width: 3" />
	<polygon points="245.94473515378,-371.669730819229 262.135587702586,-410.089701707286 222.072304475007,-411.219715209504 205.881451926195,-372.79974432146 " style="fill: rgb(157,116,59); fill-opacity: 1; stroke: rgb(0,0,0); stroke-width: 3" />
	<polygon points="310.062104240493,-333.249759931168 288.002248664722,-294.974310065074 274.385857897778,-252.947637665798 296.445713473549,-291.223087531893 " style="fill: rgb(157,116,59); fill-opacity: 1; stroke: rgb(0,0,0); stroke-width: 3" />
	<polygon points="192.416857784859,-299.375254188535 176.226005236085,-337.79522507659 150.166505422679,-302.122409657158 166.357357971442,-263.702438769091 " style="fill: rgb(157,116,59); fill-opacity: 1; stroke: rgb(0,0,0); stroke-width: 3" />
	<polygon points="328.27544158846,-255.392661974953 296.445713473549,-291.223087531893 274.385857897778,-252.947637665798 306.215586012691,-217.117212108856 " style="fill: rgb(157,116,59); fill-opacity: 1; stroke: rgb(0,0,0); stroke-width: 3" />
	<polygon points="310.062104240508,-410.089701707283 293.871251691706,-371.669730819229 314.570131314921,-335.478651094529 330.760983863722,-373.89862198258 " style="fill: rgb(157,116,59); fill-opacity: 1; stroke: rgb(0,0,0); stroke-width: 3" />
	<polygon points="274.03781936335,-253.061996781713 226.111302825459,-253.061996781727 186.280212561933,-248.609150286835 203.847070350757,-212.584865409626 229.509354413946,-172.107734037511 277.435870951838,-172.107734037496 317.266961215363,-176.560580532389 299.70010342654,-212.584865409598 " style="fill: rgb(203,46,34); fill-opacity: 1; stroke: rgb(0,0,0); stroke-width: 3" />
	<polygon points="205.881451926195,-372.79974432146 222.072304475007,-411.219715209504 192.41685778491,-443.964207449957 176.226005236098,-405.544236561916 " style="fill: rgb(157,116,59); fill-opacity: 1; stroke: rgb(0,0,0); stroke-width: 3" />
	<polygon points="288.002248664748,-448.365151573364 310.062104240508,-410.089701707283 296.445713473565,-452.116374106566 274.385857897806,-490.391823972639 " style="fill: rgb(157,116,59); fill-opacity: 1; stroke: rgb(0,0,0); stroke-width: 3" />
	<polygon points="176.226005236098,-405.544236561916 147.377799648893,-439.002095502273 104.748463340084,-427.409555817448 133.596668927283,-393.951696877079 " style="fill: rgb(157,116,59); fill-opacity: 1; stroke: rgb(0,0,0); stroke-width: 3" />
	<polygon points="262.135587702586,-410.089701707286 310.062104240508,-410.089701707283 288.002248664748,-448.365151573364 240.075732126821,-448.365151573363 " style="fill: rgb(157,116,59); fill-opacity: 1; stroke: rgb(0,0,0); stroke-width: 3" />
	<polygon points="163.252115617369,-361.207204636626 133.596668927283,-393.951696877079 91.2626733974459,-381.323153296991 120.918120087533,-348.578661056538 " style="fill: rgb(157,116,59); fill-opacity: 1; stroke: rgb(0,0,0); stroke-width: 3" />
	<polygon points="288.002248664722,-294.974310065074 240.075732126817,-294.974310065085 226.111302825459,-253.061996781727 274.03781936335,-253.061996781713 " style="fill: rgb(157,116,59); fill-opacity: 1; stroke: rgb(0,0,0); stroke-width: 3" />
	<polygon points="330.760983863722,-373.89862198258 314.570131314921,-335.478651094529 362.496647852848,-335.478651094525 378.687500401665,-373.898621982567 " style="fill: rgb(157,116,59); fill-opacity: 1; stroke: rgb(0,0,0); stroke-width: 3" />
	<polygon points="237.852327528317,-296.344874539346 197.78904430074,-295.214861037147 181.173010128279,-254.281321013666 221.236293355854,-255.411334515864 " style="fill: rgb(157,116,59); fill-opacity: 1; stroke: rgb(0,0,0); stroke-width: 3" />
	<polygon points="362.496647852848,-335.478651094525 384.556503428614,-297.203201228448 424.482985863985,-293.707547666289 402.42313028822,-331.982997532365 " style="fill: rgb(157,116,59); fill-opacity: 1; stroke: rgb(0,0,0); stroke-width: 3" />
	<polygon points="310.062104240508,-410.089701707283 330.760983863722,-373.89862198258 378.338850118078,-379.66903185909 357.639970494871,-415.860111583791 " style="fill: rgb(157,116,59); fill-opacity: 1; stroke: rgb(0,0,0); stroke-width: 3" />
	<polygon points="176.226005236098,-405.544236561916 192.41685778491,-443.964207449957 166.357357971535,-479.637022869422 150.166505422723,-441.217051981387 " style="fill: rgb(157,116,59); fill-opacity: 1; stroke: rgb(0,0,0); stroke-width: 3" />
	<polygon points="357.639970494871,-415.860111583791 378.338850118078,-379.66903185909 417.974630626668,-385.614492056889 397.275751003458,-421.805571781586 " style="fill: rgb(157,116,59); fill-opacity: 1; stroke: rgb(0,0,0); stroke-width: 3" />
	<polygon points="78.479027266083,-471.732451803354 49.6908525489093,-499.617655584974 33.5000000000766,-461.19768469695 62.2881747172429,-433.31248091533 " style="fill: rgb(157,116,59); fill-opacity: 1; stroke: rgb(0,0,0); stroke-width: 3" />
	<polygon points="262.135587702586,-410.089701707286 237.852327528346,-446.994587099124 197.789044300775,-448.124600601331 222.072304475007,-411.219715209504 " style="fill: rgb(157,116,59); fill-opacity: 1; stroke: rgb(0,0,0); stroke-width: 3" />
	<polygon points="150.166505422679,-302.122409657158 106.435068337913,-308.384094811789 122.625920886672,-269.964123923729 166.357357971442,-263.702438769091 " style="fill: rgb(157,116,59); fill-opacity: 1; stroke: rgb(0,0,0); stroke-width: 3" />
	<polygon points="62.2881747172303,-310.026980723365 33.5,-282.141776941814 49.690852548747,-243.721806053762 78.4790272659876,-271.607009835308 " style="fill: rgb(157,116,59); fill-opacity: 1; stroke: rgb(0,0,0); stroke-width: 3" />
	<polygon points="310.062104240508,-410.089701707283 357.639970494871,-415.860111583791 374.930937669238,-456.513152609645 327.353071414887,-450.742742733147 " style="fill: rgb(157,116,59); fill-opacity: 1; stroke: rgb(0,0,0); stroke-width: 3" />
	<polygon points="274.385857897806,-490.391823972639 296.445713473565,-452.116374106566 328.275441588478,-487.946799663501 306.215586012736,-526.222249529576 " style="fill: rgb(157,116,59); fill-opacity: 1; stroke: rgb(0,0,0); stroke-width: 3" />
	<polygon points="203.847070350757,-212.584865409626 186.280212561933,-248.609150286835 157.709563977631,-214.913967694265 175.276421766441,-178.889682817053 " style="fill: rgb(157,116,59); fill-opacity: 1; stroke: rgb(0,0,0); stroke-width: 3" />
	<polygon points="277.435870951838,-172.107734037496 229.509354413946,-172.107734037511 215.544925112591,-130.195420754148 263.47144165048,-130.195420754147 " style="fill: rgb(157,116,59); fill-opacity: 1; stroke: rgb(0,0,0); stroke-width: 3" />
	<polygon points="378.687500401665,-373.898621982567 362.496647852848,-335.478651094525 402.559931080428,-334.348637592292 418.75078362925,-372.768608480322 " style="fill: rgb(157,116,59); fill-opacity: 1; stroke: rgb(0,0,0); stroke-width: 3" />
	<polygon points="157.709563977875,-528.425493944375 175.276421766944,-564.449778821482 153.829150536996,-603.071817183845 136.262292747928,-567.047532306738 " style="fill: rgb(157,116,59); fill-opacity: 1; stroke: rgb(0,0,0); stroke-width: 3" />
	<polygon points="133.596668927283,-393.951696877079 104.748463340084,-427.409555817448 61.8491354198461,-416.859913431732 90.6973410070393,-383.402054491365 " style="fill: rgb(157,116,59); fill-opacity: 1; stroke: rgb(0,0,0); stroke-width: 3" />
	<polygon points="240.075732126821,-448.365151573363 288.002248664748,-448.365151573364 274.037819363398,-490.277464856717 226.111302825478,-490.277464856722 " style="fill: rgb(157,116,59); fill-opacity: 1; stroke: rgb(0,0,0); stroke-width: 3" />
	<polygon points="344.985378675926,-145.416926238481 317.266961215363,-176.560580532389 304.107310188576,-134.388660071872 331.825727649139,-103.245005777965 " style="fill: rgb(157,116,59); fill-opacity: 1; stroke: rgb(0,0,0); stroke-width: 3" />
	<polygon points="226.111302825478,-490.277464856722 274.037819363398,-490.277464856717 299.700103426864,-530.754596228723 317.266961215932,-566.778881105838 277.435870952412,-571.231727600731 229.509354414493,-571.231727600731 203.847070351026,-530.754596228723 186.280212561958,-494.730311351609 " style="fill: rgb(203,46,34); fill-opacity: 1; stroke: rgb(0,0,0); stroke-width: 3" />
	<polygon points="357.639970494871,-415.860111583791 397.275751003458,-421.805571781586 416.938965810404,-461.365719328459 377.303185301818,-455.420259130664 " style="fill: rgb(157,116,59); fill-opacity: 1; stroke: rgb(0,0,0); stroke-width: 3" />
	<polygon points="418.75078362925,-372.768608480322 402.559931080428,-334.348637592292 432.215377770514,-301.604145351829 448.406230319336,-340.024116239855 " style="fill: rgb(157,116,59); fill-opacity: 1; stroke: rgb(0,0,0); stroke-width: 3" />
	<polygon points="237.852327528346,-446.994587099124 221.236293355895,-487.928127122609 181.173010128326,-489.05814062483 197.789044300775,-448.124600601331 " style="fill: rgb(157,116,59); fill-opacity: 1; stroke: rgb(0,0,0); stroke-width: 3" />
	<polygon points="106.435068337913,-308.384094811789 62.2881747172303,-310.026980723365 78.4790272659876,-271.607009835308 122.625920886672,-269.964123923729 " style="fill: rgb(157,116,59); fill-opacity: 1; stroke: rgb(0,0,0); stroke-width: 3" />
	<polygon points="328.27544158846,-255.392661974953 306.215586012691,-217.117212108856 329.962184650854,-184.830331698905 352.022040226621,-223.105781565 " style="fill: rgb(157,116,59); fill-opacity: 1; stroke: rgb(0,0,0); stroke-width: 3" />
	<polygon points="448.406230319336,-340.024116239855 432.215377770514,-301.604145351829 458.27487758388,-265.931329932355 474.465730132698,-304.351300820375 " style="fill: rgb(157,116,59); fill-opacity: 1; stroke: rgb(0,0,0); stroke-width: 3" />
	<polygon points="317.266961215363,-176.560580532389 277.435870951838,-172.107734037496 264.276219925055,-129.935813576984 304.107310188576,-134.388660071872 " style="fill: rgb(157,116,59); fill-opacity: 1; stroke: rgb(0,0,0); stroke-width: 3" />
	<polygon points="186.280212561958,-494.730311351609 203.847070351026,-530.754596228723 175.276421766944,-564.449778821482 157.709563977875,-528.425493944375 " style="fill: rgb(157,116,59); fill-opacity: 1; stroke: rgb(0,0,0); stroke-width: 3" />
	<polygon points="418.75078362925,-372.768608480322 448.406230319336,-340.024116239855 491.035566628158,-351.616655924678 461.380119938082,-384.361148165141 " style="fill: rgb(157,116,59); fill-opacity: 1; stroke: rgb(0,0,0); stroke-width: 3" />
	<polygon points="229.509354413946,-172.107734037511 203.847070350757,-212.584865409626 175.926596341123,-178.349000858664 201.5888804043,-137.871869486554 " style="fill: rgb(157,116,59); fill-opacity: 1; stroke: rgb(0,0,0); stroke-width: 3" />
	<polygon points="277.435870952412,-571.231727600731 317.266961215932,-566.778881105838 304.107310189153,-608.95080156635 264.276219925637,-613.403648061255 " style="fill: rgb(157,116,59); fill-opacity: 1; stroke: rgb(0,0,0); stroke-width: 3" />
	<polygon points="175.276421766441,-178.889682817053 157.709563977631,-214.913967694265 136.262292747416,-176.291929332057 153.829150536237,-140.267644454868 " style="fill: rgb(157,116,59); fill-opacity: 1; stroke: rgb(0,0,0); stroke-width: 3" />
	<polygon points="304.107310189153,-608.95080156635 317.266961215932,-566.778881105838 344.985378676494,-597.922535399743 331.825727649713,-640.094455860257 " style="fill: rgb(157,116,59); fill-opacity: 1; stroke: rgb(0,0,0); stroke-width: 3" />
	<polygon points="215.544925113154,-613.144040884093 263.471441651064,-613.144040884086 241.411586075301,-651.419490750167 193.485069537387,-651.419490750165 " style="fill: rgb(157,116,59); fill-opacity: 1; stroke: rgb(0,0,0); stroke-width: 3" />
	<polygon points="106.43506833794,-434.955366826816 122.625920886769,-473.375337714849 78.479027266083,-471.732451803354 62.2881747172429,-433.31248091533 " style="fill: rgb(157,116,59); fill-opacity: 1; stroke: rgb(0,0,0); stroke-width: 3" />
	<polygon points="397.275751003458,-421.805571781586 417.974630626668,-385.614492056889 443.471867296117,-421.691329677398 422.772987672925,-457.882409402099 " style="fill: rgb(157,116,59); fill-opacity: 1; stroke: rgb(0,0,0); stroke-width: 3" />
	<polygon points="306.215586012736,-526.222249529576 328.275441588478,-487.946799663501 352.022040226656,-520.233680073439 329.96218465092,-558.509129939504 " style="fill: rgb(157,116,59); fill-opacity: 1; stroke: rgb(0,0,0); stroke-width: 3" />
	<polygon points="461.380119938082,-384.361148165141 491.035566628158,-351.616655924678 533.369562158003,-364.245199504751 503.714115467923,-396.989691745214 " style="fill: rgb(157,116,59); fill-opacity: 1; stroke: rgb(0,0,0); stroke-width: 3" />
	<polygon points="201.5888804043,-137.871869486554 175.926596341123,-178.349000858664 155.41239661619,-139.223371149738 181.074680679373,-98.7462397776315 " style="fill: rgb(157,116,59); fill-opacity: 1; stroke: rgb(0,0,0); stroke-width: 3" />
	<polygon points="155.412396616908,-604.116090488903 181.07468068037,-644.59322186093 139.957057105083,-651.490967928806 114.294773041623,-611.013836556783 " style="fill: rgb(157,116,59); fill-opacity: 1; stroke: rgb(0,0,0); stroke-width: 3" />
	<polygon points="331.825727649139,-103.245005777965 304.107310188576,-134.388660071872 286.599347029914,-93.8285994640606 314.317764490461,-62.68494517015 " style="fill: rgb(157,116,59); fill-opacity: 1; stroke: rgb(0,0,0); stroke-width: 3" />
	<polygon points="263.47144165048,-130.195420754147 215.544925112591,-130.195420754148 193.485069536836,-91.9199708880567 241.411586074723,-91.919970888066 " style="fill: rgb(157,116,59); fill-opacity: 1; stroke: rgb(0,0,0); stroke-width: 3" />
	<polygon points="175.926596341608,-564.990460779859 201.588880405073,-605.467592151877 181.07468068037,-644.59322186093 155.412396616908,-604.116090488903 " style="fill: rgb(157,116,59); fill-opacity: 1; stroke: rgb(0,0,0); stroke-width: 3" />
	<polygon points="448.406230319336,-340.024116239855 474.465730132698,-304.351300820375 517.890309641898,-312.47245744514 491.830809828531,-348.14527286462 " style="fill: rgb(157,116,59); fill-opacity: 1; stroke: rgb(0,0,0); stroke-width: 3" />
	<polygon points="264.276219925637,-613.403648061255 304.107310189153,-608.95080156635 282.972384742272,-647.744644078133 243.14129447876,-652.197490573012 " style="fill: rgb(157,116,59); fill-opacity: 1; stroke: rgb(0,0,0); stroke-width: 3" />
	<polygon points="229.509354413946,-172.107734037511 207.132857679805,-134.016531846176 193.168428378452,-92.104218562822 215.544925112591,-130.195420754148 " style="fill: rgb(157,116,59); fill-opacity: 1; stroke: rgb(0,0,0); stroke-width: 3" />
	<polygon points="304.107310188576,-134.388660071872 264.276219925055,-129.935813576984 243.14129447816,-91.1419710652014 282.972384741675,-95.594817560093 " style="fill: rgb(157,116,59); fill-opacity: 1; stroke: rgb(0,0,0); stroke-width: 3" />
	<polygon points="229.509354414493,-571.231727600731 277.435870952412,-571.231727600731 263.471441651064,-613.144040884086 215.544925113154,-613.144040884093 " style="fill: rgb(157,116,59); fill-opacity: 1; stroke: rgb(0,0,0); stroke-width: 3" />
	<polygon points="203.847070351026,-530.754596228723 229.509354414493,-571.231727600731 201.588880405073,-605.467592151877 175.926596341608,-564.990460779859 " style="fill: rgb(157,116,59); fill-opacity: 1; stroke: rgb(0,0,0); stroke-width: 3" />
	<polygon points="243.14129447876,-652.197490573012 282.972384742272,-647.744644078133 302.297601370525,-684.687490091509 262.466511107016,-689.140336586377 " style="fill: rgb(157,116,59); fill-opacity: 1; stroke: rgb(0,0,0); stroke-width: 3" />
	<polygon points="422.772987672925,-457.882409402099 443.471867296117,-421.691329677398 465.046742856702,-460.242231547769 444.34786323352,-496.433311272483 " style="fill: rgb(157,116,59); fill-opacity: 1; stroke: rgb(0,0,0); stroke-width: 3" />
	<polygon points="193.485069537387,-651.419490750165 209.675922086195,-689.839461638225 188.977042462984,-726.030541362928 172.786189914176,-687.61057047487 " style="fill: rgb(157,116,59); fill-opacity: 1; stroke: rgb(0,0,0); stroke-width: 3" />
	<polygon points="491.830809828531,-348.14527286462 517.890309641898,-312.47245744514 561.5,-319.532358106282 535.440500186635,-355.20517352576 " style="fill: rgb(157,116,59); fill-opacity: 1; stroke: rgb(0,0,0); stroke-width: 3" />
	<polygon points="114.294773040859,-132.325625082107 139.957057104036,-91.8484937100047 181.074680679373,-98.7462397776315 155.41239661619,-139.223371149738 " style="fill: rgb(157,116,59); fill-opacity: 1; stroke: rgb(0,0,0); stroke-width: 3" />
	<polygon points="304.107310189153,-608.95080156635 331.825727649713,-640.094455860257 314.317764491052,-680.654516468068 286.599347030491,-649.510862174162 " style="fill: rgb(157,116,59); fill-opacity: 1; stroke: rgb(0,0,0); stroke-width: 3" />
	<polygon points="209.675922085629,-53.5 257.602438623508,-53.5000000000114 241.411586074723,-91.919970888066 193.485069536836,-91.9199708880567 " style="fill: rgb(157,116,59); fill-opacity: 1; stroke: rgb(0,0,0); stroke-width: 3" />
	<polygon points="229.509354414493,-571.231727600731 215.544925113154,-613.144040884093 193.168428379027,-651.235243075439 207.132857680366,-609.322929792073 " style="fill: rgb(157,116,59); fill-opacity: 1; stroke: rgb(0,0,0); stroke-width: 3" />
	<polygon points="262.466511106421,-54.1991250518406 302.29760136993,-58.651971546721 282.972384741675,-95.594817560093 243.14129447816,-91.1419710652014 " style="fill: rgb(157,116,59); fill-opacity: 1; stroke: rgb(0,0,0); stroke-width: 3" />
	<polygon points="193.485069537387,-651.419490750165 241.411586075301,-651.419490750167 257.602438624103,-689.839461638225 209.675922086195,-689.839461638225 " style="fill: rgb(157,116,59); fill-opacity: 1; stroke: rgb(0,0,0); stroke-width: 3" />
	<circle cx="245.94473515378" cy="-371.669730819229" r="2" style="fill: rgb(0,0,0)" />
	<circle cx="293.871251691706" cy="-371.669730819229" r="2" style="fill: rgb(0,0,0)" />
	<circle cx="310.062104240508" cy="-410.089701707283" r="2" style="fill: rgb(0,0,0)" />
	<circle cx="262.135587702586" cy="-410.089701707286" r="2" style="fill: rgb(0,0,0)" />
	<circle cx="262.135587702575" cy="-333.249759931172" r="2" style="fill: rgb(0,0,0)" />
	<circle cx="310.062104240493" cy="-333.249759931168" r="2" style="fill: rgb(0,0,0)" />
	<circle cx="222.072304475007" cy="-411.219715209504" r="2" style="fill: rgb(0,0,0)" />
	<circle cx="205.881451926195" cy="-372.79974432146" r="2" style="fill: rgb(0,0,0)" />
	<circle cx="314.570131314921" cy="-335.478651094529" r="2" style="fill: rgb(0,0,0)" />
	<circle cx="330.760983863722" cy="-373.89862198258" r="2" style="fill: rgb(0,0,0)" />
	<circle cx="288.002248664748" cy="-448.365151573364" r="2" style="fill: rgb(0,0,0)" />
	<circle cx="240.075732126821" cy="-448.365151573363" r="2" style="fill: rgb(0,0,0)" />
	<circle cx="205.881451926202" cy="-370.539717317026" r="2" style="fill: rgb(0,0,0)" />
	<circle cx="222.072304474994" cy="-332.119746428972" r="2" style="fill: rgb(0,0,0)" />
	<circle cx="240.075732126817" cy="-294.974310065085" r="2" style="fill: rgb(0,0,0)" />
	<circle cx="288.002248664722" cy="-294.974310065074" r="2" style="fill: rgb(0,0,0)" />
	<circle cx="192.41685778491" cy="-443.964207449957" r="2" style="fill: rgb(0,0,0)" />
	<circle cx="176.226005236098" cy="-405.544236561916" r="2" style="fill: rgb(0,0,0)" />
	<circle cx="237.852327528346" cy="-446.994587099124" r="2" style="fill: rgb(0,0,0)" />
	<circle cx="197.789044300775" cy="-448.124600601331" r="2" style="fill: rgb(0,0,0)" />
	<circle cx="362.496647852848" cy="-335.478651094525" r="2" style="fill: rgb(0,0,0)" />
	<circle cx="378.687500401665" cy="-373.898621982567" r="2" style="fill: rgb(0,0,0)" />
	<circle cx="378.338850118078" cy="-379.66903185909" r="2" style="fill: rgb(0,0,0)" />
	<circle cx="357.639970494871" cy="-415.860111583791" r="2" style="fill: rgb(0,0,0)" />
	<circle cx="296.445713473565" cy="-452.116374106566" r="2" style="fill: rgb(0,0,0)" />
	<circle cx="274.385857897806" cy="-490.391823972639" r="2" style="fill: rgb(0,0,0)" />
	<circle cx="274.037819363398" cy="-490.277464856717" r="2" style="fill: rgb(0,0,0)" />
	<circle cx="226.111302825478" cy="-490.277464856722" r="2" style="fill: rgb(0,0,0)" />
	<circle cx="176.226005236085" cy="-337.79522507659" r="2" style="fill: rgb(0,0,0)" />
	<circle cx="192.416857784859" cy="-299.375254188535" r="2" style="fill: rgb(0,0,0)" />
	<circle cx="197.78904430074" cy="-295.214861037147" r="2" style="fill: rgb(0,0,0)" />
	<circle cx="237.852327528317" cy="-296.344874539346" r="2" style="fill: rgb(0,0,0)" />
	<circle cx="274.385857897778" cy="-252.947637665798" r="2" style="fill: rgb(0,0,0)" />
	<circle cx="296.445713473549" cy="-291.223087531893" r="2" style="fill: rgb(0,0,0)" />
	<circle cx="226.111302825459" cy="-253.061996781727" r="2" style="fill: rgb(0,0,0)" />
	<circle cx="274.03781936335" cy="-253.061996781713" r="2" style="fill: rgb(0,0,0)" />
	<circle cx="133.596668927283" cy="-393.951696877079" r="2" style="fill: rgb(0,0,0)" />
	<circle cx="163.252115617369" cy="-361.207204636626" r="2" style="fill: rgb(0,0,0)" />
	<circle cx="166.357357971535" cy="-479.637022869422" r="2" style="fill: rgb(0,0,0)" />
	<circle cx="150.166505422723" cy="-441.217051981387" r="2" style="fill: rgb(0,0,0)" />
	<circle cx="221.236293355895" cy="-487.928127122609" r="2" style="fill: rgb(0,0,0)" />
	<circle cx="181.173010128326" cy="-489.05814062483" r="2" style="fill: rgb(0,0,0)" />
	<circle cx="336.629986890681" cy="-297.203201228449" r="2" style="fill: rgb(0,0,0)" />
	<circle cx="384.556503428614" cy="-297.203201228448" r="2" style="fill: rgb(0,0,0)" />
	<circle cx="402.559931080428" cy="-334.348637592292" r="2" style="fill: rgb(0,0,0)" />
	<circle cx="418.75078362925" cy="-372.768608480322" r="2" style="fill: rgb(0,0,0)" />
	<circle cx="417.974630626668" cy="-385.614492056889" r="2" style="fill: rgb(0,0,0)" />
	<circle cx="397.275751003458" cy="-421.805571781586" r="2" style="fill: rgb(0,0,0)" />
	<circle cx="374.930937669238" cy="-456.513152609645" r="2" style="fill: rgb(0,0,0)" />
	<circle cx="327.353071414887" cy="-450.742742733147" r="2" style="fill: rgb(0,0,0)" />
	<circle cx="328.275441588478" cy="-487.946799663501" r="2" style="fill: rgb(0,0,0)" />
	<circle cx="306.215586012736" cy="-526.222249529576" r="2" style="fill: rgb(0,0,0)" />
	<circle cx="299.700103426864" cy="-530.754596228723" r="2" style="fill: rgb(0,0,0)" />
	<circle cx="317.266961215932" cy="-566.778881105838" r="2" style="fill: rgb(0,0,0)" />
	<circle cx="277.435870952412" cy="-571.231727600731" r="2" style="fill: rgb(0,0,0)" />
	<circle cx="229.509354414493" cy="-571.231727600731" r="2" style="fill: rgb(0,0,0)" />
	<circle cx="203.847070351026" cy="-530.754596228723" r="2" style="fill: rgb(0,0,0)" />
	<circle cx="186.280212561958" cy="-494.730311351609" r="2" style="fill: rgb(0,0,0)" />
	<circle cx="150.166505422679" cy="-302.122409657158" r="2" style="fill: rgb(0,0,0)" />
	<circle cx="166.357357971442" cy="-263.702438769091" r="2" style="fill: rgb(0,0,0)" />
	<circle cx="181.173010128279" cy="-254.281321013666" r="2" style="fill: rgb(0,0,0)" />
	<circle cx="221.236293355854" cy="-255.411334515864" r="2" style="fill: rgb(0,0,0)" />
	<circle cx="306.215586012691" cy="-217.117212108856" r="2" style="fill: rgb(0,0,0)" />
	<circle cx="328.27544158846" cy="-255.392661974953" r="2" style="fill: rgb(0,0,0)" />
	<circle cx="186.280212561933" cy="-248.609150286835" r="2" style="fill: rgb(0,0,0)" />
	<circle cx="203.847070350757" cy="-212.584865409626" r="2" style="fill: rgb(0,0,0)" />
	<circle cx="229.509354413946" cy="-172.107734037511" r="2" style="fill: rgb(0,0,0)" />
	<circle cx="277.435870951838" cy="-172.107734037496" r="2" style="fill: rgb(0,0,0)" />
	<circle cx="317.266961215363" cy="-176.560580532389" r="2" style="fill: rgb(0,0,0)" />
	<circle cx="299.70010342654" cy="-212.584865409598" r="2" style="fill: rgb(0,0,0)" />
	<circle cx="147.377799648893" cy="-439.002095502273" r="2" style="fill: rgb(0,0,0)" />
	<circle cx="104.748463340084" cy="-427.409555817448" r="2" style="fill: rgb(0,0,0)" />
	<circle cx="91.2626733974459" cy="-381.323153296991" r="2" style="fill: rgb(0,0,0)" />
	<circle cx="120.918120087533" cy="-348.578661056538" r="2" style="fill: rgb(0,0,0)" />
	<circle cx="122.625920886769" cy="-473.375337714849" r="2" style="fill: rgb(0,0,0)" />
	<circle cx="106.43506833794" cy="-434.955366826816" r="2" style="fill: rgb(0,0,0)" />
	<circle cx="424.482985863985" cy="-293.707547666289" r="2" style="fill: rgb(0,0,0)" />
	<circle cx="402.42313028822" cy="-331.982997532365" r="2" style="fill: rgb(0,0,0)" />
	<circle cx="432.215377770514" cy="-301.604145351829" r="2" style="fill: rgb(0,0,0)" />
	<circle cx="448.406230319336" cy="-340.024116239855" r="2" style="fill: rgb(0,0,0)" />
	<circle cx="416.938965810404" cy="-461.365719328459" r="2" style="fill: rgb(0,0,0)" />
	<circle cx="377.303185301818" cy="-455.420259130664" r="2" style="fill: rgb(0,0,0)" />
	<circle cx="443.471867296117" cy="-421.691329677398" r="2" style="fill: rgb(0,0,0)" />
	<circle cx="422.772987672925" cy="-457.882409402099" r="2" style="fill: rgb(0,0,0)" />
	<circle cx="352.022040226656" cy="-520.233680073439" r="2" style="fill: rgb(0,0,0)" />
	<circle cx="329.96218465092" cy="-558.509129939504" r="2" style="fill: rgb(0,0,0)" />
	<circle cx="175.276421766944" cy="-564.449778821482" r="2" style="fill: rgb(0,0,0)" />
	<circle cx="157.709563977875" cy="-528.425493944375" r="2" style="fill: rgb(0,0,0)" />
	<circle cx="304.107310189153" cy="-608.95080156635" r="2" style="fill: rgb(0,0,0)" />
	<circle cx="264.276219925637" cy="-613.403648061255" r="2" style="fill: rgb(0,0,0)" />
	<circle cx="263.471441651064" cy="-613.144040884086" r="2" style="fill: rgb(0,0,0)" />
	<circle cx="215.544925113154" cy="-613.144040884093" r="2" style="fill: rgb(0,0,0)" />
	<circle cx="201.588880405073" cy="-605.467592151877" r="2" style="fill: rgb(0,0,0)" />
	<circle cx="175.926596341608" cy="-564.990460779859" r="2" style="fill: rgb(0,0,0)" />
	<circle cx="106.435068337913" cy="-308.384094811789" r="2" style="fill: rgb(0,0,0)" />
	<circle cx="122.625920886672" cy="-269.964123923729" r="2" style="fill: rgb(0,0,0)" />
	<circle cx="329.962184650854" cy="-184.830331698905" r="2" style="fill: rgb(0,0,0)" />
	<circle cx="352.022040226621" cy="-223.105781565" r="2" style="fill: rgb(0,0,0)" />
	<circle cx="157.709563977631" cy="-214.913967694265" r="2" style="fill: rgb(0,0,0)" />
	<circle cx="175.276421766441" cy="-178.889682817053" r="2" style="fill: rgb(0,0,0)" />
	<circle cx="215.544925112591" cy="-130.195420754148" r="2" style="fill: rgb(0,0,0)" />
	<circle cx="263.47144165048" cy="-130.195420754147" r="2" style="fill: rgb(0,0,0)" />
	<circle cx="264.276219925055" cy="-129.935813576984" r="2" style="fill: rgb(0,0,0)" />
	<circle cx="304.107310188576" cy="-134.388660071872" r="2" style="fill: rgb(0,0,0)" />
	<circle cx="175.926596341123" cy="-178.349000858664" r="2" style="fill: rgb(0,0,0)" />
	<circle cx="201.5888804043" cy="-137.871869486554" r="2" style="fill: rgb(0,0,0)" />
	<circle cx="61.8491354198461" cy="-416.859913431732" r="2" style="fill: rgb(0,0,0)" />
	<circle cx="90.6973410070393" cy="-383.402054491365" r="2" style="fill: rgb(0,0,0)" />
	<circle cx="78.479027266083" cy="-471.732451803354" r="2" style="fill: rgb(0,0,0)" />
	<circle cx="62.2881747172429" cy="-433.31248091533" r="2" style="fill: rgb(0,0,0)" />
	<circle cx="458.27487758388" cy="-265.931329932355" r="2" style="fill: rgb(0,0,0)" />
	<circle cx="474.465730132698" cy="-304.351300820375" r="2" style="fill: rgb(0,0,0)" />
	<circle cx="491.035566628158" cy="-351.616655924678" r="2" style="fill: rgb(0,0,0)" />
	<circle cx="461.380119938082" cy="-384.361148165141" r="2" style="fill: rgb(0,0,0)" />
	<circle cx="465.046742856702" cy="-460.242231547769" r="2" style="fill: rgb(0,0,0)" />
	<circle cx="444.34786323352" cy="-496.433311272483" r="2" style="fill: rgb(0,0,0)" />
	<circle cx="153.829150536996" cy="-603.071817183845" r="2" style="fill: rgb(0,0,0)" />
	<circle cx="136.262292747928" cy="-567.047532306738" r="2" style="fill: rgb(0,0,0)" />
	<circle cx="344.985378676494" cy="-597.922535399743" r="2" style="fill: rgb(0,0,0)" />
	<circle cx="331.825727649713" cy="-640.094455860257" r="2" style="fill: rgb(0,0,0)" />
	<circle cx="282.972384742272" cy="-647.744644078133" r="2" style="fill: rgb(0,0,0)" />
	<circle cx="243.14129447876" cy="-652.197490573012" r="2" style="fill: rgb(0,0,0)" />
	<circle cx="241.411586075301" cy="-651.419490750167" r="2" style="fill: rgb(0,0,0)" />
	<circle cx="193.485069537387" cy="-651.419490750165" r="2" style="fill: rgb(0,0,0)" />
	<circle cx="193.168428379027" cy="-651.235243075439" r="2" style="fill: rgb(0,0,0)" />
	<circle cx="207.132857680366" cy="-609.322929792073" r="2" style="fill: rgb(0,0,0)" />
	<circle cx="181.07468068037" cy="-644.59322186093" r="2" style="fill: rgb(0,0,0)" />
	<circle cx="155.412396616908" cy="-604.116090488903" r="2" style="fill: rgb(0,0,0)" />
	<circle cx="62.2881747172303" cy="-310.026980723365" r="2" style="fill: rgb(0,0,0)" />
	<circle cx="78.4790272659876" cy="-271.607009835308" r="2" style="fill: rgb(0,0,0)" />
	<circle cx="136.262292747416" cy="-176.291929332057" r="2" style="fill: rgb(0,0,0)" />
	<circle cx="153.829150536237" cy="-140.267644454868" r="2" style="fill: rgb(0,0,0)" />
	<circle cx="193.485069536836" cy="-91.9199708880567" r="2" style="fill: rgb(0,0,0)" />
	<circle cx="241.411586074723" cy="-91.919970888066" r="2" style="fill: rgb(0,0,0)" />
	<circle cx="207.132857679805" cy="-134.016531846176" r="2" style="fill: rgb(0,0,0)" />
	<circle cx="193.168428378452" cy="-92.104218562822" r="2" style="fill: rgb(0,0,0)" />
	<circle cx="331.825727649139" cy="-103.245005777965" r="2" style="fill: rgb(0,0,0)" />
	<circle cx="344.985378675926" cy="-145.416926238481" r="2" style="fill: rgb(0,0,0)" />
	<circle cx="243.14129447816" cy="-91.1419710652014" r="2" style="fill: rgb(0,0,0)" />
	<circle cx="282.972384741675" cy="-95.594817560093" r="2" style="fill: rgb(0,0,0)" />
	<circle cx="155.41239661619" cy="-139.223371149738" r="2" style="fill: rgb(0,0,0)" />
	<circle cx="181.074680679373" cy="-98.7462397776315" r="2" style="fill: rgb(0,0,0)" />
	<circle cx="49.6908525489093" cy="-499.617655584974" r="2" style="fill: rgb(0,0,0)" />
	<circle cx="33.5000000000766" cy="-461.19768469695" r="2" style="fill: rgb(0,0,0)" />
	<circle cx="517.890309641898" cy="-312.47245744514" r="2" style="fill: rgb(0,0,0)" />
	<circle cx="491.830809828531" cy="-348.14527286462" r="2" style="fill: rgb(0,0,0)" />
	<circle cx="533.369562158003" cy="-364.245199504751" r="2" style="fill: rgb(0,0,0)" />
	<circle cx="503.714115467923" cy="-396.989691745214" r="2" style="fill: rgb(0,0,0)" />
	<circle cx="314.317764491052" cy="-680.654516468068" r="2" style="fill: rgb(0,0,0)" />
	<circle cx="286.599347030491" cy="-649.510862174162" r="2" style="fill: rgb(0,0,0)" />
	<circle cx="302.297601370525" cy="-684.687490091509" r="2" style="fill: rgb(0,0,0)" />
	<circle cx="262.466511107016" cy="-689.140336586377" r="2" style="fill: rgb(0,0,0)" />
	<circle cx="257.602438624103" cy="-689.839461638225" r="2" style="fill: rgb(0,0,0)" />
	<circle cx="209.675922086195" cy="-689.839461638225" r="2" style="fill: rgb(0,0,0)" />
	<circle cx="139.957057105083" cy="-651.490967928806" r="2" style="fill: rgb(0,0,0)" />
	<circle cx="114.294773041623" cy="-611.013836556783" r="2" style="fill: rgb(0,0,0)" />
	<circle cx="33.5" cy="-282.141776941814" r="2" style="fill: rgb(0,0,0)" />
	<circle cx="49.690852548747" cy="-243.721806053762" r="2" style="fill: rgb(0,0,0)" />
	<circle cx="209.675922085629" cy="-53.5" r="2" style="fill: rgb(0,0,0)" />
	<circle cx="257.602438623508" cy="-53.5000000000114" r="2" style="fill: rgb(0,0,0)" />
	<circle cx="286.599347029914" cy="-93.8285994640606" r="2" style="fill: rgb(0,0,0)" />
	<circle cx="314.317764490461" cy="-62.68494517015" r="2" style="fill: rgb(0,0,0)" />
	<circle cx="262.466511106421" cy="-54.1991250518406" r="2" style="fill: rgb(0,0,0)" />
	<circle cx="302.29760136993" cy="-58.651971546721" r="2" style="fill: rgb(0,0,0)" />
	<circle cx="114.294773040859" cy="-132.325625082107" r="2" style="fill: rgb(0,0,0)" />
	<circle cx="139.957057104036" cy="-91.8484937100047" r="2" style="fill: rgb(0,0,0)" />
	<circle cx="561.5" cy="-319.532358106282" r="2" style="fill: rgb(0,0,0)" />
	<circle cx="535.440500186635" cy="-355.20517352576" r="2" style="fill: rgb(0,0,0)" />
	<circle cx="188.977042462984" cy="-726.030541362928" r="2" style="fill: rgb(0,0,0)" />
	<circle cx="172.786189914176" cy="-687.61057047487" r="2" style="fill: rgb(0,0,0)" />
	<!--
	Generated using the Perl SVG Module V2.86
	by Ronan Oger
	Info: http://www.roitsystems.com/
	-->
</svg>