<?xml version="1.0" encoding="UTF-8" standalone="yes"?>
<!DOCTYPE svg PUBLIC "-//W3C//DTD SVG 1.0//EN" "http://www.w3.org/TR/2001/REC-SVG-20010904/DTD/svg10.dtd">
<!-- generated using polymake; Michael Joswig, Georg Loho, Benjamin Lorenz, Rico Raber; license CC BY-NC-ND 3.0; see polymake.org and matchthenet.de -->
<svg height="841pt" id="document" viewBox="0 -762.530541362929 572 762.530541362929" width="595pt" xmlns="http://www.w3.org/2000/svg" xmlns:svg="http://www.w3.org/2000/svg" xmlns:xlink="http://www.w3.org/1999/xlink">
	<title id="document_title">planar_net_</title>
	<polygon points="245.94473515378,-371.66973081923 293.871251691706,-371.66973081923 310.062104240508,-410.089701707284 262.135587702586,-410.089701707286 " style="fill: rgb(67,184,206); fill-opacity: 1; stroke: rgb(0,0,0); stroke-width: 3" />
	<polygon points="222.072304474994,-332.119746428973 205.881451926202,-370.539717317027 176.226005236085,-337.795225076591 192.416857784859,-299.375254188536 " style="fill: rgb(67,184,206); fill-opacity: 1; stroke: rgb(0,0,0); stroke-width: 3" />
	<polygon points="310.062104240493,-333.249759931169 293.871251691706,-371.66973081923 245.94473515378,-371.66973081923 262.135587702575,-333.249759931173 " style="fill: rgb(67,184,206); fill-opacity: 1; stroke: rgb(0,0,0); stroke-width: 3" />
	<polygon points="245.94473515378,-371.66973081923 205.881451926202,-370.539717317027 222.072304474994,-332.119746428973 262.135587702575,-333.249759931173 " style="fill: rgb(67,184,206); fill-opacity: 1; stroke: rgb(0,0,0); stroke-width: 3" />
	<polygon points="310.062104240493,-333.249759931169 262.135587702575,-333.249759931173 240.075732126817,-294.974310065085 288.002248664722,-294.974310065074 " style="fill: rgb(67,184,206); fill-opacity: 1; stroke: rgb(0,0,0); stroke-width: 3" />
	<polygon points="362.496647852849,-335.478651094526 314.570131314921,-335.47865109453 336.629986890681,-297.203201228449 384.556503428614,-297.203201228448 " style="fill: rgb(67,184,206); fill-opacity: 1; stroke: rgb(0,0,0); stroke-width: 3" />
	<polygon points="150.166505422723,-441.217051981387 166.357357971535,-479.637022869422 122.625920886768,-473.37533771485 106.43506833794,-434.955366826816 " style="fill: rgb(67,184,206); fill-opacity: 1; stroke: rgb(0,0,0); stroke-width: 3" />
	<polygon points="205.881451926195,-372.799744321461 176.226005236098,-405.544236561917 133.596668927283,-393.951696877079 163.252115617369,-361.207204636627 " style="fill: rgb(67,184,206); fill-opacity: 1; stroke: rgb(0,0,0); stroke-width: 3" />
	<polygon points="262.135587702575,-333.249759931173 222.072304474994,-332.119746428973 197.78904430074,-295.214861037147 237.852327528317,-296.344874539346 " style="fill: rgb(67,184,206); fill-opacity: 1; stroke: rgb(0,0,0); stroke-width: 3" />
	<polygon points="245.94473515378,-371.66973081923 262.135587702586,-410.089701707286 222.072304475007,-411.219715209505 205.881451926195,-372.799744321461 " style="fill: rgb(67,184,206); fill-opacity: 1; stroke: rgb(0,0,0); stroke-width: 3" />
	<polygon points="310.062104240493,-333.249759931169 288.002248664722,-294.974310065074 274.385857897778,-252.947637665798 296.445713473549,-291.223087531893 " style="fill: rgb(67,184,206); fill-opacity: 1; stroke: rgb(0,0,0); stroke-width: 3" />
	<polygon points="192.416857784859,-299.375254188536 176.226005236085,-337.795225076591 150.166505422678,-302.122409657159 166.357357971443,-263.702438769092 " style="fill: rgb(67,184,206); fill-opacity: 1; stroke: rgb(0,0,0); stroke-width: 3" />
	<polygon points="328.27544158846,-255.392661974953 296.445713473549,-291.223087531893 274.385857897778,-252.947637665798 306.215586012691,-217.117212108856 " style="fill: rgb(67,184,206); fill-opacity: 1; stroke: rgb(0,0,0); stroke-width: 3" />
	<polygon points="310.062104240508,-410.089701707284 293.871251691706,-371.66973081923 314.570131314921,-335.47865109453 330.760983863722,-373.898621982581 " style="fill: rgb(67,184,206); fill-opacity: 1; stroke: rgb(0,0,0); stroke-width: 3" />
	<polygon points="274.03781936335,-253.061996781713 226.111302825459,-253.061996781728 186.280212561933,-248.609150286835 203.847070350756,-212.584865409626 229.509354413945,-172.107734037511 277.435870951836,-172.107734037497 317.266961215362,-176.56058053239 299.700103426539,-212.584865409598 " style="fill: rgb(136,136,136); fill-opacity: 1; stroke: rgb(0,0,0); stroke-width: 3" />
	<polygon points="205.881451926195,-372.799744321461 222.072304475007,-411.219715209505 192.41685778491,-443.964207449958 176.226005236098,-405.544236561917 " style="fill: rgb(67,184,206); fill-opacity: 1; stroke: rgb(0,0,0); stroke-width: 3" />
	<polygon points="288.002248664748,-448.365151573364 310.062104240508,-410.089701707284 296.445713473565,-452.116374106567 274.385857897806,-490.39182397264 " style="fill: rgb(67,184,206); fill-opacity: 1; stroke: rgb(0,0,0); stroke-width: 3" />
	<polygon points="176.226005236098,-405.544236561917 147.377799648893,-439.002095502273 104.748463340083,-427.409555817449 133.596668927283,-393.951696877079 " style="fill: rgb(67,184,206); fill-opacity: 1; stroke: rgb(0,0,0); stroke-width: 3" />
	<polygon points="262.135587702586,-410.089701707286 310.062104240508,-410.089701707284 288.002248664748,-448.365151573364 240.075732126821,-448.365151573364 " style="fill: rgb(67,184,206); fill-opacity: 1; stroke: rgb(0,0,0); stroke-width: 3" />
	<polygon points="163.252115617369,-361.207204636627 133.596668927283,-393.951696877079 91.2626733974456,-381.323153296991 120.918120087533,-348.578661056539 " style="fill: rgb(67,184,206); fill-opacity: 1; stroke: rgb(0,0,0); stroke-width: 3" />
	<polygon points="288.002248664722,-294.974310065074 240.075732126817,-294.974310065085 226.111302825459,-253.061996781728 274.03781936335,-253.061996781713 " style="fill: rgb(67,184,206); fill-opacity: 1; stroke: rgb(0,0,0); stroke-width: 3" />
	<polygon points="330.760983863722,-373.898621982581 314.570131314921,-335.47865109453 362.496647852849,-335.478651094526 378.687500401664,-373.898621982568 " style="fill: rgb(67,184,206); fill-opacity: 1; stroke: rgb(0,0,0); stroke-width: 3" />
	<polygon points="237.852327528317,-296.344874539346 197.78904430074,-295.214861037147 181.173010128279,-254.281321013667 221.236293355854,-255.411334515864 " style="fill: rgb(67,184,206); fill-opacity: 1; stroke: rgb(0,0,0); stroke-width: 3" />
	<polygon points="362.496647852849,-335.478651094526 384.556503428614,-297.203201228448 424.482985863986,-293.70754766629 402.42313028822,-331.982997532366 " style="fill: rgb(67,184,206); fill-opacity: 1; stroke: rgb(0,0,0); stroke-width: 3" />
	<polygon points="310.062104240508,-410.089701707284 330.760983863722,-373.898621982581 378.338850118078,-379.669031859091 357.639970494871,-415.860111583791 " style="fill: rgb(67,184,206); fill-opacity: 1; stroke: rgb(0,0,0); stroke-width: 3" />
	<polygon points="176.226005236098,-405.544236561917 192.41685778491,-443.964207449958 166.357357971535,-479.637022869422 150.166505422723,-441.217051981387 " style="fill: rgb(67,184,206); fill-opacity: 1; stroke: rgb(0,0,0); stroke-width: 3" />
	<polygon points="357.639970494871,-415.860111583791 378.338850118078,-379.669031859091 417.974630626668,-385.614492056889 397.275751003458,-421.805571781587 " style="fill: rgb(67,184,206); fill-opacity: 1; stroke: rgb(0,0,0); stroke-width: 3" />
	<polygon points="78.4790272660827,-471.732451803355 49.6908525489086,-499.617655584974 33.5000000000763,-461.197684696949 62.288174717243,-433.31248091533 " style="fill: rgb(67,184,206); fill-opacity: 1; stroke: rgb(0,0,0); stroke-width: 3" />
	<polygon points="262.135587702586,-410.089701707286 237.852327528346,-446.994587099125 197.789044300775,-448.124600601332 222.072304475007,-411.219715209505 " style="fill: rgb(67,184,206); fill-opacity: 1; stroke: rgb(0,0,0); stroke-width: 3" />
	<polygon points="150.166505422678,-302.122409657159 106.435068337913,-308.38409481179 122.625920886672,-269.96412392373 166.357357971443,-263.702438769092 " style="fill: rgb(67,184,206); fill-opacity: 1; stroke: rgb(0,0,0); stroke-width: 3" />
	<polygon points="62.2881747172302,-310.026980723365 33.5,-282.141776941814 49.690852548747,-243.721806053762 78.4790272659876,-271.607009835308 " style="fill: rgb(67,184,206); fill-opacity: 1; stroke: rgb(0,0,0); stroke-width: 3" />
	<polygon points="310.062104240508,-410.089701707284 357.639970494871,-415.860111583791 374.930937669238,-456.513152609646 327.353071414887,-450.742742733147 " style="fill: rgb(67,184,206); fill-opacity: 1; stroke: rgb(0,0,0); stroke-width: 3" />
	<polygon points="274.385857897806,-490.39182397264 296.445713473565,-452.116374106567 328.275441588478,-487.946799663502 306.215586012736,-526.222249529576 " style="fill: rgb(67,184,206); fill-opacity: 1; stroke: rgb(0,0,0); stroke-width: 3" />
	<polygon points="203.847070350756,-212.584865409626 186.280212561933,-248.609150286835 157.709563977631,-214.913967694265 175.27642176644,-178.889682817053 " style="fill: rgb(67,184,206); fill-opacity: 1; stroke: rgb(0,0,0); stroke-width: 3" />
	<polygon points="277.435870951836,-172.107734037497 229.509354413945,-172.107734037511 215.54492511259,-130.195420754149 263.471441650479,-130.195420754147 " style="fill: rgb(67,184,206); fill-opacity: 1; stroke: rgb(0,0,0); stroke-width: 3" />
	<polygon points="378.687500401664,-373.898621982568 362.496647852849,-335.478651094526 402.559931080428,-334.348637592293 418.75078362925,-372.768608480322 " style="fill: rgb(67,184,206); fill-opacity: 1; stroke: rgb(0,0,0); stroke-width: 3" />
	<polygon points="157.709563977875,-528.425493944376 175.276421766944,-564.449778821483 153.829150536995,-603.071817183846 136.262292747928,-567.047532306739 " style="fill: rgb(67,184,206); fill-opacity: 1; stroke: rgb(0,0,0); stroke-width: 3" />
	<polygon points="133.596668927283,-393.951696877079 104.748463340083,-427.409555817449 61.8491354198458,-416.859913431732 90.697341007039,-383.402054491365 " style="fill: rgb(67,184,206); fill-opacity: 1; stroke: rgb(0,0,0); stroke-width: 3" />
	<polygon points="240.075732126821,-448.365151573364 288.002248664748,-448.365151573364 274.037819363398,-490.277464856717 226.111302825478,-490.277464856723 " style="fill: rgb(67,184,206); fill-opacity: 1; stroke: rgb(0,0,0); stroke-width: 3" />
	<polygon points="344.985378675926,-145.416926238482 317.266961215362,-176.56058053239 304.107310188575,-134.388660071872 331.825727649139,-103.245005777966 " style="fill: rgb(67,184,206); fill-opacity: 1; stroke: rgb(0,0,0); stroke-width: 3" />
	<polygon points="226.111302825478,-490.277464856723 274.037819363398,-490.277464856717 299.700103426864,-530.754596228724 317.266961215932,-566.778881105839 277.435870952412,-571.231727600732 229.509354414493,-571.231727600732 203.847070351026,-530.754596228724 186.280212561958,-494.73031135161 " style="fill: rgb(136,136,136); fill-opacity: 1; stroke: rgb(0,0,0); stroke-width: 3" />
	<polygon points="357.639970494871,-415.860111583791 397.275751003458,-421.805571781587 416.938965810404,-461.365719328459 377.303185301818,-455.420259130665 " style="fill: rgb(67,184,206); fill-opacity: 1; stroke: rgb(0,0,0); stroke-width: 3" />
	<polygon points="418.75078362925,-372.768608480322 402.559931080428,-334.348637592293 432.215377770514,-301.60414535183 448.406230319336,-340.024116239856 " style="fill: rgb(67,184,206); fill-opacity: 1; stroke: rgb(0,0,0); stroke-width: 3" />
	<polygon points="237.852327528346,-446.994587099125 221.236293355895,-487.928127122609 181.173010128326,-489.058140624831 197.789044300775,-448.124600601332 " style="fill: rgb(67,184,206); fill-opacity: 1; stroke: rgb(0,0,0); stroke-width: 3" />
	<polygon points="106.435068337913,-308.38409481179 62.2881747172302,-310.026980723365 78.4790272659876,-271.607009835308 122.625920886672,-269.96412392373 " style="fill: rgb(67,184,206); fill-opacity: 1; stroke: rgb(0,0,0); stroke-width: 3" />
	<polygon points="328.27544158846,-255.392661974953 306.215586012691,-217.117212108856 329.962184650854,-184.830331698906 352.022040226622,-223.105781565001 " style="fill: rgb(67,184,206); fill-opacity: 1; stroke: rgb(0,0,0); stroke-width: 3" />
	<polygon points="448.406230319336,-340.024116239856 432.215377770514,-301.60414535183 458.27487758388,-265.931329932356 474.465730132699,-304.351300820376 " style="fill: rgb(67,184,206); fill-opacity: 1; stroke: rgb(0,0,0); stroke-width: 3" />
	<polygon points="317.266961215362,-176.56058053239 277.435870951836,-172.107734037497 264.276219925055,-129.935813576984 304.107310188575,-134.388660071872 " style="fill: rgb(67,184,206); fill-opacity: 1; stroke: rgb(0,0,0); stroke-width: 3" />
	<polygon points="186.280212561958,-494.73031135161 203.847070351026,-530.754596228724 175.276421766944,-564.449778821483 157.709563977875,-528.425493944376 " style="fill: rgb(67,184,206); fill-opacity: 1; stroke: rgb(0,0,0); stroke-width: 3" />
	<polygon points="418.75078362925,-372.768608480322 448.406230319336,-340.024116239856 491.035566628158,-351.616655924679 461.380119938082,-384.361148165142 " style="fill: rgb(67,184,206); fill-opacity: 1; stroke: rgb(0,0,0); stroke-width: 3" />
	<polygon points="229.509354413945,-172.107734037511 203.847070350756,-212.584865409626 175.926596341123,-178.349000858664 201.588880404299,-137.871869486555 " style="fill: rgb(67,184,206); fill-opacity: 1; stroke: rgb(0,0,0); stroke-width: 3" />
	<polygon points="277.435870952412,-571.231727600732 317.266961215932,-566.778881105839 304.107310189153,-608.950801566351 264.276219925637,-613.403648061256 " style="fill: rgb(67,184,206); fill-opacity: 1; stroke: rgb(0,0,0); stroke-width: 3" />
	<polygon points="175.27642176644,-178.889682817053 157.709563977631,-214.913967694265 136.262292747415,-176.291929332058 153.829150536235,-140.267644454869 " style="fill: rgb(67,184,206); fill-opacity: 1; stroke: rgb(0,0,0); stroke-width: 3" />
	<polygon points="304.107310189153,-608.950801566351 317.266961215932,-566.778881105839 344.985378676494,-597.922535399744 331.825727649713,-640.094455860258 " style="fill: rgb(67,184,206); fill-opacity: 1; stroke: rgb(0,0,0); stroke-width: 3" />
	<polygon points="215.544925113154,-613.144040884094 263.471441651064,-613.144040884087 241.411586075301,-651.419490750168 193.485069537386,-651.419490750166 " style="fill: rgb(67,184,206); fill-opacity: 1; stroke: rgb(0,0,0); stroke-width: 3" />
	<polygon points="106.43506833794,-434.955366826816 122.625920886768,-473.37533771485 78.4790272660827,-471.732451803355 62.288174717243,-433.31248091533 " style="fill: rgb(67,184,206); fill-opacity: 1; stroke: rgb(0,0,0); stroke-width: 3" />
	<polygon points="397.275751003458,-421.805571781587 417.974630626668,-385.614492056889 443.471867296117,-421.691329677398 422.772987672925,-457.882409402099 " style="fill: rgb(67,184,206); fill-opacity: 1; stroke: rgb(0,0,0); stroke-width: 3" />
	<polygon points="306.215586012736,-526.222249529576 328.275441588478,-487.946799663502 352.022040226656,-520.233680073439 329.962184650921,-558.509129939505 " style="fill: rgb(67,184,206); fill-opacity: 1; stroke: rgb(0,0,0); stroke-width: 3" />
	<polygon points="461.380119938082,-384.361148165142 491.035566628158,-351.616655924679 533.369562158003,-364.245199504753 503.714115467923,-396.989691745216 " style="fill: rgb(67,184,206); fill-opacity: 1; stroke: rgb(0,0,0); stroke-width: 3" />
	<polygon points="201.588880404299,-137.871869486555 175.926596341123,-178.349000858664 155.412396616189,-139.223371149738 181.074680679372,-98.746239777632 " style="fill: rgb(67,184,206); fill-opacity: 1; stroke: rgb(0,0,0); stroke-width: 3" />
	<polygon points="155.412396616908,-604.116090488905 181.07468068037,-644.593221860931 139.957057105083,-651.490967928807 114.294773041623,-611.013836556784 " style="fill: rgb(67,184,206); fill-opacity: 1; stroke: rgb(0,0,0); stroke-width: 3" />
	<polygon points="331.825727649139,-103.245005777966 304.107310188575,-134.388660071872 286.599347029914,-93.8285994640609 314.317764490462,-62.6849451701506 " style="fill: rgb(67,184,206); fill-opacity: 1; stroke: rgb(0,0,0); stroke-width: 3" />
	<polygon points="263.471441650479,-130.195420754147 215.54492511259,-130.195420754149 193.485069536835,-91.9199708880569 241.411586074722,-91.9199708880656 " style="fill: rgb(67,184,206); fill-opacity: 1; stroke: rgb(0,0,0); stroke-width: 3" />
	<polygon points="175.926596341608,-564.99046077986 201.588880405073,-605.467592151878 181.07468068037,-644.593221860931 155.412396616908,-604.116090488905 " style="fill: rgb(67,184,206); fill-opacity: 1; stroke: rgb(0,0,0); stroke-width: 3" />
	<polygon points="448.406230319336,-340.024116239856 474.465730132699,-304.351300820376 517.890309641898,-312.472457445142 491.830809828531,-348.145272864622 " style="fill: rgb(67,184,206); fill-opacity: 1; stroke: rgb(0,0,0); stroke-width: 3" />
	<polygon points="264.276219925637,-613.403648061256 304.107310189153,-608.950801566351 282.972384742272,-647.744644078134 243.14129447876,-652.197490573013 " style="fill: rgb(67,184,206); fill-opacity: 1; stroke: rgb(0,0,0); stroke-width: 3" />
	<polygon points="229.509354413945,-172.107734037511 207.132857679804,-134.016531846177 193.168428378451,-92.1042185628226 215.54492511259,-130.195420754149 " style="fill: rgb(67,184,206); fill-opacity: 1; stroke: rgb(0,0,0); stroke-width: 3" />
	<polygon points="304.107310188575,-134.388660071872 264.276219925055,-129.935813576984 243.14129447816,-91.1419710652013 282.972384741675,-95.5948175600935 " style="fill: rgb(67,184,206); fill-opacity: 1; stroke: rgb(0,0,0); stroke-width: 3" />
	<polygon points="229.509354414493,-571.231727600732 277.435870952412,-571.231727600732 263.471441651064,-613.144040884087 215.544925113154,-613.144040884094 " style="fill: rgb(67,184,206); fill-opacity: 1; stroke: rgb(0,0,0); stroke-width: 3" />
	<polygon points="203.847070351026,-530.754596228724 229.509354414493,-571.231727600732 201.588880405073,-605.467592151878 175.926596341608,-564.99046077986 " style="fill: rgb(67,184,206); fill-opacity: 1; stroke: rgb(0,0,0); stroke-width: 3" />
	<polygon points="243.14129447876,-652.197490573013 282.972384742272,-647.744644078134 302.297601370525,-684.68749009151 262.466511107016,-689.140336586378 " style="fill: rgb(67,184,206); fill-opacity: 1; stroke: rgb(0,0,0); stroke-width: 3" />
	<polygon points="422.772987672925,-457.882409402099 443.471867296117,-421.691329677398 465.046742856702,-460.24223154777 444.347863233519,-496.433311272484 " style="fill: rgb(67,184,206); fill-opacity: 1; stroke: rgb(0,0,0); stroke-width: 3" />
	<polygon points="193.485069537386,-651.419490750166 209.675922086195,-689.839461638226 188.977042462984,-726.030541362929 172.786189914175,-687.61057047487 " style="fill: rgb(67,184,206); fill-opacity: 1; stroke: rgb(0,0,0); stroke-width: 3" />
	<polygon points="491.830809828531,-348.145272864622 517.890309641898,-312.472457445142 561.5,-319.532358106284 535.440500186634,-355.205173525761 " style="fill: rgb(67,184,206); fill-opacity: 1; stroke: rgb(0,0,0); stroke-width: 3" />
	<polygon points="114.294773040859,-132.325625082106 139.957057104035,-91.8484937100051 181.074680679372,-98.746239777632 155.412396616189,-139.223371149738 " style="fill: rgb(67,184,206); fill-opacity: 1; stroke: rgb(0,0,0); stroke-width: 3" />
	<polygon points="304.107310189153,-608.950801566351 331.825727649713,-640.094455860258 314.317764491052,-680.654516468069 286.599347030491,-649.510862174162 " style="fill: rgb(67,184,206); fill-opacity: 1; stroke: rgb(0,0,0); stroke-width: 3" />
	<polygon points="209.675922085628,-53.5 257.602438623507,-53.5000000000109 241.411586074722,-91.9199708880656 193.485069536835,-91.9199708880569 " style="fill: rgb(67,184,206); fill-opacity: 1; stroke: rgb(0,0,0); stroke-width: 3" />
	<polygon points="229.509354414493,-571.231727600732 215.544925113154,-613.144040884094 193.168428379026,-651.235243075439 207.132857680366,-609.322929792073 " style="fill: rgb(67,184,206); fill-opacity: 1; stroke: rgb(0,0,0); stroke-width: 3" />
	<polygon points="262.466511106421,-54.1991250518406 302.297601369931,-58.6519715467216 282.972384741675,-95.5948175600935 243.14129447816,-91.1419710652013 " style="fill: rgb(67,184,206); fill-opacity: 1; stroke: rgb(0,0,0); stroke-width: 3" />
	<polygon points="193.485069537386,-651.419490750166 241.411586075301,-651.419490750168 257.602438624103,-689.839461638226 209.675922086195,-689.839461638226 " style="fill: rgb(67,184,206); fill-opacity: 1; stroke: rgb(0,0,0); stroke-width: 3" />
	<circle cx="245.94473515378" cy="-371.66973081923" r="2" style="fill: rgb(0,0,0)" />
	<circle cx="293.871251691706" cy="-371.66973081923" r="2" style="fill: rgb(0,0,0)" />
	<circle cx="310.062104240508" cy="-410.089701707284" r="2" style="fill: rgb(0,0,0)" />
	<circle cx="262.135587702586" cy="-410.089701707286" r="2" style="fill: rgb(0,0,0)" />
	<circle cx="262.135587702575" cy="-333.249759931173" r="2" style="fill: rgb(0,0,0)" />
	<circle cx="310.062104240493" cy="-333.249759931169" r="2" style="fill: rgb(0,0,0)" />
	<circle cx="222.072304475007" cy="-411.219715209505" r="2" style="fill: rgb(0,0,0)" />
	<circle cx="205.881451926195" cy="-372.799744321461" r="2" style="fill: rgb(0,0,0)" />
	<circle cx="314.570131314921" cy="-335.47865109453" r="2" style="fill: rgb(0,0,0)" />
	<circle cx="330.760983863722" cy="-373.898621982581" r="2" style="fill: rgb(0,0,0)" />
	<circle cx="288.002248664748" cy="-448.365151573364" r="2" style="fill: rgb(0,0,0)" />
	<circle cx="240.075732126821" cy="-448.365151573364" r="2" style="fill: rgb(0,0,0)" />
	<circle cx="205.881451926202" cy="-370.539717317027" r="2" style="fill: rgb(0,0,0)" />
	<circle cx="222.072304474994" cy="-332.119746428973" r="2" style="fill: rgb(0,0,0)" />
	<circle cx="240.075732126817" cy="-294.974310065085" r="2" style="fill: rgb(0,0,0)" />
	<circle cx="288.002248664722" cy="-294.974310065074" r="2" style="fill: rgb(0,0,0)" />
	<circle cx="192.41685778491" cy="-443.964207449958" r="2" style="fill: rgb(0,0,0)" />
	<circle cx="176.226005236098" cy="-405.544236561917" r="2" style="fill: rgb(0,0,0)" />
	<circle cx="237.852327528346" cy="-446.994587099125" r="2" style="fill: rgb(0,0,0)" />
	<circle cx="197.789044300775" cy="-448.124600601332" r="2" style="fill: rgb(0,0,0)" />
	<circle cx="362.496647852849" cy="-335.478651094526" r="2" style="fill: rgb(0,0,0)" />
	<circle cx="378.687500401664" cy="-373.898621982568" r="2" style="fill: rgb(0,0,0)" />
	<circle cx="378.338850118078" cy="-379.669031859091" r="2" style="fill: rgb(0,0,0)" />
	<circle cx="357.639970494871" cy="-415.860111583791" r="2" style="fill: rgb(0,0,0)" />
	<circle cx="296.445713473565" cy="-452.116374106567" r="2" style="fill: rgb(0,0,0)" />
	<circle cx="274.385857897806" cy="-490.39182397264" r="2" style="fill: rgb(0,0,0)" />
	<circle cx="274.037819363398" cy="-490.277464856717" r="2" style="fill: rgb(0,0,0)" />
	<circle cx="226.111302825478" cy="-490.277464856723" r="2" style="fill: rgb(0,0,0)" />
	<circle cx="176.226005236085" cy="-337.795225076591" r="2" style="fill: rgb(0,0,0)" />
	<circle cx="192.416857784859" cy="-299.375254188536" r="2" style="fill: rgb(0,0,0)" />
	<circle cx="197.78904430074" cy="-295.214861037147" r="2" style="fill: rgb(0,0,0)" />
	<circle cx="237.852327528317" cy="-296.344874539346" r="2" style="fill: rgb(0,0,0)" />
	<circle cx="274.385857897778" cy="-252.947637665798" r="2" style="fill: rgb(0,0,0)" />
	<circle cx="296.445713473549" cy="-291.223087531893" r="2" style="fill: rgb(0,0,0)" />
	<circle cx="226.111302825459" cy="-253.061996781728" r="2" style="fill: rgb(0,0,0)" />
	<circle cx="274.03781936335" cy="-253.061996781713" r="2" style="fill: rgb(0,0,0)" />
	<circle cx="133.596668927283" cy="-393.951696877079" r="2" style="fill: rgb(0,0,0)" />
	<circle cx="163.252115617369" cy="-361.207204636627" r="2" style="fill: rgb(0,0,0)" />
	<circle cx="166.357357971535" cy="-479.637022869422" r="2" style="fill: rgb(0,0,0)" />
	<circle cx="150.166505422723" cy="-441.217051981387" r="2" style="fill: rgb(0,0,0)" />
	<circle cx="221.236293355895" cy="-487.928127122609" r="2" style="fill: rgb(0,0,0)" />
	<circle cx="181.173010128326" cy="-489.058140624831" r="2" style="fill: rgb(0,0,0)" />
	<circle cx="336.629986890681" cy="-297.203201228449" r="2" style="fill: rgb(0,0,0)" />
	<circle cx="384.556503428614" cy="-297.203201228448" r="2" style="fill: rgb(0,0,0)" />
	<circle cx="402.559931080428" cy="-334.348637592293" r="2" style="fill: rgb(0,0,0)" />
	<circle cx="418.75078362925" cy="-372.768608480322" r="2" style="fill: rgb(0,0,0)" />
	<circle cx="417.974630626668" cy="-385.614492056889" r="2" style="fill: rgb(0,0,0)" />
	<circle cx="397.275751003458" cy="-421.805571781587" r="2" style="fill: rgb(0,0,0)" />
	<circle cx="374.930937669238" cy="-456.513152609646" r="2" style="fill: rgb(0,0,0)" />
	<circle cx="327.353071414887" cy="-450.742742733147" r="2" style="fill: rgb(0,0,0)" />
	<circle cx="328.275441588478" cy="-487.946799663502" r="2" style="fill: rgb(0,0,0)" />
	<circle cx="306.215586012736" cy="-526.222249529576" r="2" style="fill: rgb(0,0,0)" />
	<circle cx="299.700103426864" cy="-530.754596228724" r="2" style="fill: rgb(0,0,0)" />
	<circle cx="317.266961215932" cy="-566.778881105839" r="2" style="fill: rgb(0,0,0)" />
	<circle cx="277.435870952412" cy="-571.231727600732" r="2" style="fill: rgb(0,0,0)" />
	<circle cx="229.509354414493" cy="-571.231727600732" r="2" style="fill: rgb(0,0,0)" />
	<circle cx="203.847070351026" cy="-530.754596228724" r="2" style="fill: rgb(0,0,0)" />
	<circle cx="186.280212561958" cy="-494.73031135161" r="2" style="fill: rgb(0,0,0)" />
	<circle cx="150.166505422678" cy="-302.122409657159" r="2" style="fill: rgb(0,0,0)" />
	<circle cx="166.357357971443" cy="-263.702438769092" r="2" style="fill: rgb(0,0,0)" />
	<circle cx="181.173010128279" cy="-254.281321013667" r="2" style="fill: rgb(0,0,0)" />
	<circle cx="221.236293355854" cy="-255.411334515864" r="2" style="fill: rgb(0,0,0)" />
	<circle cx="306.215586012691" cy="-217.117212108856" r="2" style="fill: rgb(0,0,0)" />
	<circle cx="328.27544158846" cy="-255.392661974953" r="2" style="fill: rgb(0,0,0)" />
	<circle cx="186.280212561933" cy="-248.609150286835" r="2" style="fill: rgb(0,0,0)" />
	<circle cx="203.847070350756" cy="-212.584865409626" r="2" style="fill: rgb(0,0,0)" />
	<circle cx="229.509354413945" cy="-172.107734037511" r="2" style="fill: rgb(0,0,0)" />
	<circle cx="277.435870951836" cy="-172.107734037497" r="2" style="fill: rgb(0,0,0)" />
	<circle cx="317.266961215362" cy="-176.56058053239" r="2" style="fill: rgb(0,0,0)" />
	<circle cx="299.700103426539" cy="-212.584865409598" r="2" style="fill: rgb(0,0,0)" />
	<circle cx="147.377799648893" cy="-439.002095502273" r="2" style="fill: rgb(0,0,0)" />
	<circle cx="104.748463340083" cy="-427.409555817449" r="2" style="fill: rgb(0,0,0)" />
	<circle cx="91.2626733974456" cy="-381.323153296991" r="2" style="fill: rgb(0,0,0)" />
	<circle cx="120.918120087533" cy="-348.578661056539" r="2" style="fill: rgb(0,0,0)" />
	<circle cx="122.625920886768" cy="-473.37533771485" r="2" style="fill: rgb(0,0,0)" />
	<circle cx="106.43506833794" cy="-434.955366826816" r="2" style="fill: rgb(0,0,0)" />
	<circle cx="424.482985863986" cy="-293.70754766629" r="2" style="fill: rgb(0,0,0)" />
	<circle cx="402.42313028822" cy="-331.982997532366" r="2" style="fill: rgb(0,0,0)" />
	<circle cx="432.215377770514" cy="-301.60414535183" r="2" style="fill: rgb(0,0,0)" />
	<circle cx="448.406230319336" cy="-340.024116239856" r="2" style="fill: rgb(0,0,0)" />
	<circle cx="416.938965810404" cy="-461.365719328459" r="2" style="fill: rgb(0,0,0)" />
	<circle cx="377.303185301818" cy="-455.420259130665" r="2" style="fill: rgb(0,0,0)" />
	<circle cx="443.471867296117" cy="-421.691329677398" r="2" style="fill: rgb(0,0,0)" />
	<circle cx="422.772987672925" cy="-457.882409402099" r="2" style="fill: rgb(0,0,0)" />
	<circle cx="352.022040226656" cy="-520.233680073439" r="2" style="fill: rgb(0,0,0)" />
	<circle cx="329.962184650921" cy="-558.509129939505" r="2" style="fill: rgb(0,0,0)" />
	<circle cx="175.276421766944" cy="-564.449778821483" r="2" style="fill: rgb(0,0,0)" />
	<circle cx="157.709563977875" cy="-528.425493944376" r="2" style="fill: rgb(0,0,0)" />
	<circle cx="304.107310189153" cy="-608.950801566351" r="2" style="fill: rgb(0,0,0)" />
	<circle cx="264.276219925637" cy="-613.403648061256" r="2" style="fill: rgb(0,0,0)" />
	<circle cx="263.471441651064" cy="-613.144040884087" r="2" style="fill: rgb(0,0,0)" />
	<circle cx="215.544925113154" cy="-613.144040884094" r="2" style="fill: rgb(0,0,0)" />
	<circle cx="201.588880405073" cy="-605.467592151878" r="2" style="fill: rgb(0,0,0)" />
	<circle cx="175.926596341608" cy="-564.99046077986" r="2" style="fill: rgb(0,0,0)" />
	<circle cx="106.435068337913" cy="-308.38409481179" r="2" style="fill: rgb(0,0,0)" />
	<circle cx="122.625920886672" cy="-269.96412392373" r="2" style="fill: rgb(0,0,0)" />
	<circle cx="329.962184650854" cy="-184.830331698906" r="2" style="fill: rgb(0,0,0)" />
	<circle cx="352.022040226622" cy="-223.105781565001" r="2" style="fill: rgb(0,0,0)" />
	<circle cx="157.709563977631" cy="-214.913967694265" r="2" style="fill: rgb(0,0,0)" />
	<circle cx="175.27642176644" cy="-178.889682817053" r="2" style="fill: rgb(0,0,0)" />
	<circle cx="215.54492511259" cy="-130.195420754149" r="2" style="fill: rgb(0,0,0)" />
	<circle cx="263.471441650479" cy="-130.195420754147" r="2" style="fill: rgb(0,0,0)" />
	<circle cx="264.276219925055" cy="-129.935813576984" r="2" style="fill: rgb(0,0,0)" />
	<circle cx="304.107310188575" cy="-134.388660071872" r="2" style="fill: rgb(0,0,0)" />
	<circle cx="175.926596341123" cy="-178.349000858664" r="2" style="fill: rgb(0,0,0)" />
	<circle cx="201.588880404299" cy="-137.871869486555" r="2" style="fill: rgb(0,0,0)" />
	<circle cx="61.8491354198458" cy="-416.859913431732" r="2" style="fill: rgb(0,0,0)" />
	<circle cx="90.697341007039" cy="-383.402054491365" r="2" style="fill: rgb(0,0,0)" />
	<circle cx="78.4790272660827" cy="-471.732451803355" r="2" style="fill: rgb(0,0,0)" />
	<circle cx="62.288174717243" cy="-433.31248091533" r="2" style="fill: rgb(0,0,0)" />
	<circle cx="458.27487758388" cy="-265.931329932356" r="2" style="fill: rgb(0,0,0)" />
	<circle cx="474.465730132699" cy="-304.351300820376" r="2" style="fill: rgb(0,0,0)" />
	<circle cx="491.035566628158" cy="-351.616655924679" r="2" style="fill: rgb(0,0,0)" />
	<circle cx="461.380119938082" cy="-384.361148165142" r="2" style="fill: rgb(0,0,0)" />
	<circle cx="465.046742856702" cy="-460.24223154777" r="2" style="fill: rgb(0,0,0)" />
	<circle cx="444.347863233519" cy="-496.433311272484" r="2" style="fill: rgb(0,0,0)" />
	<circle cx="153.829150536995" cy="-603.071817183846" r="2" style="fill: rgb(0,0,0)" />
	<circle cx="136.262292747928" cy="-567.047532306739" r="2" style="fill: rgb(0,0,0)" />
	<circle cx="344.985378676494" cy="-597.922535399744" r="2" style="fill: rgb(0,0,0)" />
	<circle cx="331.825727649713" cy="-640.094455860258" r="2" style="fill: rgb(0,0,0)" />
	<circle cx="282.972384742272" cy="-647.744644078134" r="2" style="fill: rgb(0,0,0)" />
	<circle cx="243.14129447876" cy="-652.197490573013" r="2" style="fill: rgb(0,0,0)" />
	<circle cx="241.411586075301" cy="-651.419490750168" r="2" style="fill: rgb(0,0,0)" />
	<circle cx="193.485069537386" cy="-651.419490750166" r="2" style="fill: rgb(0,0,0)" />
	<circle cx="193.168428379026" cy="-651.235243075439" r="2" style="fill: rgb(0,0,0)" />
	<circle cx="207.132857680366" cy="-609.322929792073" r="2" style="fill: rgb(0,0,0)" />
	<circle cx="181.07468068037" cy="-644.593221860931" r="2" style="fill: rgb(0,0,0)" />
	<circle cx="155.412396616908" cy="-604.116090488905" r="2" style="fill: rgb(0,0,0)" />
	<circle cx="62.2881747172302" cy="-310.026980723365" r="2" style="fill: rgb(0,0,0)" />
	<circle cx="78.4790272659876" cy="-271.607009835308" r="2" style="fill: rgb(0,0,0)" />
	<circle cx="136.262292747415" cy="-176.291929332058" r="2" style="fill: rgb(0,0,0)" />
	<circle cx="153.829150536235" cy="-140.267644454869" r="2" style="fill: rgb(0,0,0)" />
	<circle cx="193.485069536835" cy="-91.9199708880569" r="2" style="fill: rgb(0,0,0)" />
	<circle cx="241.411586074722" cy="-91.9199708880656" r="2" style="fill: rgb(0,0,0)" />
	<circle cx="207.132857679804" cy="-134.016531846177" r="2" style="fill: rgb(0,0,0)" />
	<circle cx="193.168428378451" cy="-92.1042185628226" r="2" style="fill: rgb(0,0,0)" />
	<circle cx="331.825727649139" cy="-103.245005777966" r="2" style="fill: rgb(0,0,0)" />
	<circle cx="344.985378675926" cy="-145.416926238482" r="2" style="fill: rgb(0,0,0)" />
	<circle cx="243.14129447816" cy="-91.1419710652013" r="2" style="fill: rgb(0,0,0)" />
	<circle cx="282.972384741675" cy="-95.5948175600935" r="2" style="fill: rgb(0,0,0)" />
	<circle cx="155.412396616189" cy="-139.223371149738" r="2" style="fill: rgb(0,0,0)" />
	<circle cx="181.074680679372" cy="-98.746239777632" r="2" style="fill: rgb(0,0,0)" />
	<circle cx="49.6908525489086" cy="-499.617655584974" r="2" style="fill: rgb(0,0,0)" />
	<circle cx="33.5000000000763" cy="-461.197684696949" r="2" style="fill: rgb(0,0,0)" />
	<circle cx="517.890309641898" cy="-312.472457445142" r="2" style="fill: rgb(0,0,0)" />
	<circle cx="491.830809828531" cy="-348.145272864622" r="2" style="fill: rgb(0,0,0)" />
	<circle cx="533.369562158003" cy="-364.245199504753" r="2" style="fill: rgb(0,0,0)" />
	<circle cx="503.714115467923" cy="-396.989691745216" r="2" style="fill: rgb(0,0,0)" />
	<circle cx="314.317764491052" cy="-680.654516468069" r="2" style="fill: rgb(0,0,0)" />
	<circle cx="286.599347030491" cy="-649.510862174162" r="2" style="fill: rgb(0,0,0)" />
	<circle cx="302.297601370525" cy="-684.68749009151" r="2" style="fill: rgb(0,0,0)" />
	<circle cx="262.466511107016" cy="-689.140336586378" r="2" style="fill: rgb(0,0,0)" />
	<circle cx="257.602438624103" cy="-689.839461638226" r="2" style="fill: rgb(0,0,0)" />
	<circle cx="209.675922086195" cy="-689.839461638226" r="2" style="fill: rgb(0,0,0)" />
	<circle cx="139.957057105083" cy="-651.490967928807" r="2" style="fill: rgb(0,0,0)" />
	<circle cx="114.294773041623" cy="-611.013836556784" r="2" style="fill: rgb(0,0,0)" />
	<circle cx="33.5" cy="-282.141776941814" r="2" style="fill: rgb(0,0,0)" />
	<circle cx="49.690852548747" cy="-243.721806053762" r="2" style="fill: rgb(0,0,0)" />
	<circle cx="209.675922085628" cy="-53.5" r="2" style="fill: rgb(0,0,0)" />
	<circle cx="257.602438623507" cy="-53.5000000000109" r="2" style="fill: rgb(0,0,0)" />
	<circle cx="286.599347029914" cy="-93.8285994640609" r="2" style="fill: rgb(0,0,0)" />
	<circle cx="314.317764490462" cy="-62.6849451701506" r="2" style="fill: rgb(0,0,0)" />
	<circle cx="262.466511106421" cy="-54.1991250518406" r="2" style="fill: rgb(0,0,0)" />
	<circle cx="302.297601369931" cy="-58.6519715467216" r="2" style="fill: rgb(0,0,0)" />
	<circle cx="114.294773040859" cy="-132.325625082106" r="2" style="fill: rgb(0,0,0)" />
	<circle cx="139.957057104035" cy="-91.8484937100051" r="2" style="fill: rgb(0,0,0)" />
	<circle cx="561.5" cy="-319.532358106284" r="2" style="fill: rgb(0,0,0)" />
	<circle cx="535.440500186634" cy="-355.205173525761" r="2" style="fill: rgb(0,0,0)" />
	<circle cx="188.977042462984" cy="-726.030541362929" r="2" style="fill: rgb(0,0,0)" />
	<circle cx="172.786189914175" cy="-687.61057047487" r="2" style="fill: rgb(0,0,0)" />
	<!--
	Generated using the Perl SVG Module V2.87
	by Ronan Oger

	-->
</svg>