<?xml version="1.0" encoding="UTF-8" standalone="yes"?>
<!DOCTYPE svg PUBLIC "-//W3C//DTD SVG 1.0//EN" "http://www.w3.org/TR/2001/REC-SVG-20010904/DTD/svg10.dtd">
<!-- generated using polymake; Michael Joswig, Georg Loho, Benjamin Lorenz, Rico Raber; license CC BY-NC-ND 3.0; see polymake.org and matchthenet.de -->
<svg height="841pt" id="document" viewBox="0 -656.717360817817 572 656.717360817817" width="595pt" xmlns="http://www.w3.org/2000/svg" xmlns:svg="http://www.w3.org/2000/svg" xmlns:xlink="http://www.w3.org/1999/xlink">
	<title id="document_title">planar_net_</title>
	<polygon points="322.762756871387,-336.858680408918 345.077886311378,-336.858680408918 338.211692637538,-358.091211731326 315.896563197557,-358.091211731338 " style="fill: rgb(67,184,206); fill-opacity: 1; stroke: rgb(0,0,0); stroke-width: 3" />
	<polygon points="384.68547869004,-375.2617368868 365.305022930545,-346.283538291835 380.755164378191,-330.182043604342 400.135620137683,-359.160242199302 " style="fill: rgb(67,184,206); fill-opacity: 1; stroke: rgb(0,0,0); stroke-width: 3" />
	<polygon points="322.762756871387,-336.858680408918 292.95667702596,-318.77731808461 315.271806465951,-318.77731808461 345.077886311378,-336.858680408918 " style="fill: rgb(67,184,206); fill-opacity: 1; stroke: rgb(0,0,0); stroke-width: 3" />
	<polygon points="345.077886311378,-336.858680408918 315.271806465951,-318.77731808461 293.662675857984,-291.420718631777 323.468755703411,-309.502080956086 " style="fill: rgb(67,184,206); fill-opacity: 1; stroke: rgb(0,0,0); stroke-width: 3" />
	<polygon points="353.110946370835,-370.782241621385 345.077886311378,-336.858680408918 364.458342070874,-365.836879003883 372.491402130327,-399.760440216346 " style="fill: rgb(67,184,206); fill-opacity: 1; stroke: rgb(0,0,0); stroke-width: 3" />
	<polygon points="345.077886311378,-336.858680408918 323.468755703411,-309.502080956086 320.724870534453,-287.356289118739 342.334001142419,-314.712888571572 " style="fill: rgb(67,184,206); fill-opacity: 1; stroke: rgb(0,0,0); stroke-width: 3" />
	<polygon points="338.211692637538,-358.091211731326 345.077886311378,-336.858680408918 353.110946370835,-370.782241621385 346.244752696994,-392.014772943788 " style="fill: rgb(67,184,206); fill-opacity: 1; stroke: rgb(0,0,0); stroke-width: 3" />
	<polygon points="365.305022930549,-327.433822525988 345.077886311378,-336.858680408918 342.334001142419,-314.712888571572 362.561137761586,-305.288030688651 " style="fill: rgb(67,184,206); fill-opacity: 1; stroke: rgb(0,0,0); stroke-width: 3" />
	<polygon points="292.95667702596,-318.77731808461 270.016790854375,-292.526609871502 292.331920294357,-292.526609871497 315.271806465951,-318.77731808461 " style="fill: rgb(67,184,206); fill-opacity: 1; stroke: rgb(0,0,0); stroke-width: 3" />
	<polygon points="364.458342070874,-365.836879003883 345.077886311378,-336.858680408918 365.305022930545,-346.283538291835 384.68547869004,-375.2617368868 " style="fill: rgb(67,184,206); fill-opacity: 1; stroke: rgb(0,0,0); stroke-width: 3" />
	<polygon points="397.237134744791,-306.478517204034 362.40823620173,-304.96660267862 340.799105593766,-277.610003225794 375.628004136831,-279.12191775121 " style="fill: rgb(67,184,206); fill-opacity: 1; stroke: rgb(0,0,0); stroke-width: 3" />
	<polygon points="372.491402130327,-399.760440216346 364.458342070874,-365.836879003883 384.19292468154,-376.253752388276 392.225984740992,-410.177313600738 " style="fill: rgb(67,184,206); fill-opacity: 1; stroke: rgb(0,0,0); stroke-width: 3" />
	<polygon points="322.762756871387,-336.858680408918 315.896563197557,-358.091211731338 285.805873629854,-340.487562660903 292.672067303678,-319.255031338482 " style="fill: rgb(67,184,206); fill-opacity: 1; stroke: rgb(0,0,0); stroke-width: 3" />
	<polygon points="315.896563197557,-358.091211731338 322.227203821584,-392.373292306246 292.136514253885,-374.769643235815 285.805873629854,-340.487562660903 " style="fill: rgb(67,184,206); fill-opacity: 1; stroke: rgb(0,0,0); stroke-width: 3" />
	<polygon points="323.468755703411,-309.502080956086 293.662675857984,-291.420718631777 289.823346833759,-269.438349456292 319.629426679184,-287.519711780598 " style="fill: rgb(67,184,206); fill-opacity: 1; stroke: rgb(0,0,0); stroke-width: 3" />
	<polygon points="315.896563197557,-358.091211731338 338.211692637538,-358.091211731326 345.702643042975,-392.138586391911 323.387513602995,-392.138586391925 " style="fill: rgb(67,184,206); fill-opacity: 1; stroke: rgb(0,0,0); stroke-width: 3" />
	<polygon points="362.40823620173,-304.96660267862 342.334001142419,-314.712888571572 320.724870534453,-287.356289118739 340.799105593766,-277.610003225794 " style="fill: rgb(67,184,206); fill-opacity: 1; stroke: rgb(0,0,0); stroke-width: 3" />
	<polygon points="346.244752696994,-392.014772943788 353.110946370835,-370.782241621385 371.029698943404,-400.686361161972 364.163505269571,-421.918892484387 " style="fill: rgb(67,184,206); fill-opacity: 1; stroke: rgb(0,0,0); stroke-width: 3" />
	<polygon points="323.387513602995,-392.138586391925 345.702643042975,-392.138586391911 360.059787122256,-423.906659565176 337.744657682277,-423.90665956519 " style="fill: rgb(67,184,206); fill-opacity: 1; stroke: rgb(0,0,0); stroke-width: 3" />
	<polygon points="375.628004136831,-279.12191775121 340.799105593766,-277.610003225794 343.408005490932,-242.846060690723 378.236904033991,-244.357975216134 " style="fill: rgb(67,184,206); fill-opacity: 1; stroke: rgb(0,0,0); stroke-width: 3" />
	<polygon points="292.672067303678,-319.255031338482 285.805873629854,-340.487562660903 259.99658229675,-317.052150564294 266.862775970561,-295.819619241866 " style="fill: rgb(67,184,206); fill-opacity: 1; stroke: rgb(0,0,0); stroke-width: 3" />
	<polygon points="364.163505269571,-421.918892484387 371.029698943404,-400.686361161972 387.988114904926,-415.190744292588 381.121921231102,-436.423275614998 " style="fill: rgb(67,184,206); fill-opacity: 1; stroke: rgb(0,0,0); stroke-width: 3" />
	<polygon points="292.331920294357,-292.526609871497 270.016790854375,-292.526609871502 261.434048762068,-271.928028849969 283.749178202047,-271.928028849963 " style="fill: rgb(67,184,206); fill-opacity: 1; stroke: rgb(0,0,0); stroke-width: 3" />
	<polygon points="422.996192379853,-426.564271253619 440.666224404614,-412.935809485412 467.391531064091,-435.320984115339 449.721499039336,-448.949445883547 " style="fill: rgb(67,184,206); fill-opacity: 1; stroke: rgb(0,0,0); stroke-width: 3" />
	<polygon points="319.629426679184,-287.519711780598 289.823346833759,-269.438349456292 308.227569160989,-256.818935743546 338.033649006417,-274.900298067856 " style="fill: rgb(67,184,206); fill-opacity: 1; stroke: rgb(0,0,0); stroke-width: 3" />
	<polygon points="392.225984740992,-410.177313600738 384.19292468154,-376.253752388276 401.862956706313,-362.62529062008 409.896016765761,-396.548851832532 " style="fill: rgb(67,184,206); fill-opacity: 1; stroke: rgb(0,0,0); stroke-width: 3" />
	<polygon points="323.387513602998,-455.674732738463 315.896563197562,-489.722107399054 285.225535864263,-506.293955261475 292.716486269696,-472.246580600885 " style="fill: rgb(67,184,206); fill-opacity: 1; stroke: rgb(0,0,0); stroke-width: 3" />
	<polygon points="440.827466724343,-412.629382380828 474.480988382081,-403.531111155599 503.355184812312,-423.066178080598 469.701663154577,-432.164449305825 " style="fill: rgb(67,184,206); fill-opacity: 1; stroke: rgb(0,0,0); stroke-width: 3" />
	<polygon points="266.862775970561,-295.819619241866 259.99658229675,-317.052150564294 225.352125376426,-320.937979169753 232.218319050229,-299.705447847329 " style="fill: rgb(67,184,206); fill-opacity: 1; stroke: rgb(0,0,0); stroke-width: 3" />
	<polygon points="381.121921231102,-436.423275614998 387.988114904926,-415.190744292588 405.906867477521,-445.094863833162 399.0406738037,-466.327395155576 " style="fill: rgb(67,184,206); fill-opacity: 1; stroke: rgb(0,0,0); stroke-width: 3" />
	<polygon points="399.0406738037,-466.327395155576 405.906867477521,-445.094863833162 413.93992753701,-479.018425045622 407.073733863189,-500.250956368035 " style="fill: rgb(67,184,206); fill-opacity: 1; stroke: rgb(0,0,0); stroke-width: 3" />
	<polygon points="283.749178202047,-271.928028849963 261.434048762068,-271.928028849969 238.494162590482,-245.677320636861 260.809292030454,-245.677320636851 " style="fill: rgb(67,184,206); fill-opacity: 1; stroke: rgb(0,0,0); stroke-width: 3" />
	<polygon points="397.237134744791,-306.478517204034 375.628004136831,-279.12191775121 402.289936285103,-256.66129813874 423.899066893064,-284.017897591555 " style="fill: rgb(67,184,206); fill-opacity: 1; stroke: rgb(0,0,0); stroke-width: 3" />
	<polygon points="381.121921231102,-436.423275614998 399.0406738037,-466.327395155576 405.380629876153,-500.60775420058 387.461877303554,-470.70363466 " style="fill: rgb(67,184,206); fill-opacity: 1; stroke: rgb(0,0,0); stroke-width: 3" />
	<polygon points="409.896016765761,-396.548851832532 401.862956706313,-362.62529062008 432.794406664899,-378.705821168381 440.827466724343,-412.629382380828 " style="fill: rgb(67,184,206); fill-opacity: 1; stroke: rgb(0,0,0); stroke-width: 3" />
	<polygon points="200.655022685593,-193.672397100094 182.736270113027,-163.768277559506 189.602463786862,-142.535746237093 207.521216359436,-172.439865777693 " style="fill: rgb(67,184,206); fill-opacity: 1; stroke: rgb(0,0,0); stroke-width: 3" />
	<polygon points="308.715547821599,-423.762493161408 323.072691900882,-455.530566334669 290.867893406633,-468.879312088481 276.510749327347,-437.111238915227 " style="fill: rgb(67,184,206); fill-opacity: 1; stroke: rgb(0,0,0); stroke-width: 3" />
	<polygon points="285.805873629854,-340.487562660903 292.136514253885,-374.769643235815 258.070994530471,-382.177640618963 251.740353906435,-347.895560044058 " style="fill: rgb(67,184,206); fill-opacity: 1; stroke: rgb(0,0,0); stroke-width: 3" />
	<polygon points="337.744657682277,-423.90665956519 360.059787122256,-423.906659565176 345.702643042978,-455.674732738441 323.387513602998,-455.674732738463 " style="fill: rgb(67,184,206); fill-opacity: 1; stroke: rgb(0,0,0); stroke-width: 3" />
	<polygon points="292.136514253885,-374.769643235815 322.227203821584,-392.373292306246 303.683902767175,-421.894200917951 273.593213199479,-404.290551847528 " style="fill: rgb(67,184,206); fill-opacity: 1; stroke: rgb(0,0,0); stroke-width: 3" />
	<polygon points="270.016790854375,-292.526609871502 236.962334745514,-281.447756564315 228.379592653201,-260.849175542781 261.434048762068,-271.928028849969 " style="fill: rgb(67,184,206); fill-opacity: 1; stroke: rgb(0,0,0); stroke-width: 3" />
	<polygon points="289.823346833759,-269.438349456292 283.699143656782,-235.118789512985 302.103365984008,-222.499375800231 308.227569160989,-256.818935743546 " style="fill: rgb(67,184,206); fill-opacity: 1; stroke: rgb(0,0,0); stroke-width: 3" />
	<polygon points="378.236904033991,-244.357975216134 343.408005490932,-242.846060690723 369.412218696104,-219.627125425827 404.241117239154,-221.139039951244 " style="fill: rgb(67,184,206); fill-opacity: 1; stroke: rgb(0,0,0); stroke-width: 3" />
	<polygon points="292.136514253885,-374.769643235815 272.903036025469,-403.84560193871 238.837516302063,-411.253599321853 258.070994530471,-382.177640618963 " style="fill: rgb(67,184,206); fill-opacity: 1; stroke: rgb(0,0,0); stroke-width: 3" />
	<polygon points="259.99658229675,-317.052150564294 285.805873629854,-340.487562660903 251.201720795909,-344.717298574674 225.39242946281,-321.281886478067 " style="fill: rgb(67,184,206); fill-opacity: 1; stroke: rgb(0,0,0); stroke-width: 3" />
	<polygon points="338.033649006417,-274.900298067856 308.227569160989,-256.818935743546 302.444540079029,-222.440241267281 332.250619924454,-240.521603591588 " style="fill: rgb(67,184,206); fill-opacity: 1; stroke: rgb(0,0,0); stroke-width: 3" />
	<polygon points="323.387513602995,-392.138586391925 337.744657682277,-423.90665956519 323.072691900882,-455.530566334669 308.715547821599,-423.762493161408 " style="fill: rgb(67,184,206); fill-opacity: 1; stroke: rgb(0,0,0); stroke-width: 3" />
	<polygon points="231.003212185028,-227.595958312542 208.688082745055,-227.595958312552 215.554276418889,-206.363426990139 237.869405858858,-206.363426990122 " style="fill: rgb(67,184,206); fill-opacity: 1; stroke: rgb(0,0,0); stroke-width: 3" />
	<polygon points="364.163505269571,-421.918892484387 381.121921231102,-436.423275614998 381.49269221217,-471.283002925099 364.534276250641,-456.778619794496 " style="fill: rgb(67,184,206); fill-opacity: 1; stroke: rgb(0,0,0); stroke-width: 3" />
	<polygon points="392.225984740992,-410.177313600738 409.896016765761,-396.548851832532 440.666224404614,-412.935809485412 422.996192379853,-426.564271253619 " style="fill: rgb(67,184,206); fill-opacity: 1; stroke: rgb(0,0,0); stroke-width: 3" />
	<polygon points="261.434048762068,-271.928028849969 230.767525732044,-255.347847171115 207.827639560469,-229.097138958016 238.494162590482,-245.677320636861 " style="fill: rgb(67,184,206); fill-opacity: 1; stroke: rgb(0,0,0); stroke-width: 3" />
	<polygon points="273.593213199479,-404.290551847528 303.683902767175,-421.894200917951 269.845789395858,-430.279911545282 239.755099828171,-412.676262474858 " style="fill: rgb(67,184,206); fill-opacity: 1; stroke: rgb(0,0,0); stroke-width: 3" />
	<polygon points="323.387513602998,-455.674732738463 345.702643042978,-455.674732738441 338.211692637541,-489.722107399025 315.896563197562,-489.722107399054 " style="fill: rgb(67,184,206); fill-opacity: 1; stroke: rgb(0,0,0); stroke-width: 3" />
	<polygon points="283.699143656782,-235.118789512985 270.623136602652,-202.802290649785 289.027358929873,-190.182876937026 302.103365984008,-222.499375800231 " style="fill: rgb(67,184,206); fill-opacity: 1; stroke: rgb(0,0,0); stroke-width: 3" />
	<polygon points="375.628004136831,-279.12191775121 378.236904033991,-244.357975216134 404.362412751539,-221.275604161485 401.753512854378,-256.039546696564 " style="fill: rgb(67,184,206); fill-opacity: 1; stroke: rgb(0,0,0); stroke-width: 3" />
	<polygon points="238.494162590482,-245.677320636861 208.688082745055,-227.595958312552 231.003212185028,-227.595958312542 260.809292030454,-245.677320636851 " style="fill: rgb(67,184,206); fill-opacity: 1; stroke: rgb(0,0,0); stroke-width: 3" />
	<polygon points="225.352125376426,-320.937979169753 200.147006393516,-345.021999521692 165.446501191706,-341.67341803186 190.65162017461,-317.589397679922 " style="fill: rgb(67,184,206); fill-opacity: 1; stroke: rgb(0,0,0); stroke-width: 3" />
	<polygon points="232.218319050229,-299.705447847329 225.352125376426,-320.937979169753 190.65162017461,-317.589397679922 197.517813848406,-296.356866357501 " style="fill: rgb(67,184,206); fill-opacity: 1; stroke: rgb(0,0,0); stroke-width: 3" />
	<polygon points="251.740353906435,-347.895560044058 258.070994530471,-382.177640618963 238.68544078457,-411.152429060294 232.354800160536,-376.870348485388 " style="fill: rgb(67,184,206); fill-opacity: 1; stroke: rgb(0,0,0); stroke-width: 3" />
	<polygon points="197.517813848406,-296.356866357501 190.65162017461,-317.589397679922 172.561840687722,-304.523224558485 179.42803436151,-283.290693236066 " style="fill: rgb(67,184,206); fill-opacity: 1; stroke: rgb(0,0,0); stroke-width: 3" />
	<polygon points="493.096293660344,-374.055554016638 486.043260792224,-339.914775076844 514.91745722245,-359.449842001835 521.970490090577,-393.590620941631 " style="fill: rgb(67,184,206); fill-opacity: 1; stroke: rgb(0,0,0); stroke-width: 3" />
	<polygon points="208.688082745055,-227.595958312552 200.655022685593,-193.672397100094 207.521216359436,-172.439865777693 215.554276418889,-206.363426990139 " style="fill: rgb(67,184,206); fill-opacity: 1; stroke: rgb(0,0,0); stroke-width: 3" />
	<polygon points="98.7770623161789,-321.665433083699 91.9108686423933,-342.897964406107 59.8752630411908,-356.647801969484 66.7414567149701,-335.415270647081 " style="fill: rgb(67,184,206); fill-opacity: 1; stroke: rgb(0,0,0); stroke-width: 3" />
	<polygon points="423.899066893064,-284.017897591555 402.289936285103,-256.66129813874 405.898647262544,-221.986880128679 427.507777870502,-249.343479581496 " style="fill: rgb(67,184,206); fill-opacity: 1; stroke: rgb(0,0,0); stroke-width: 3" />
	<polygon points="236.962334745514,-281.447756564315 208.80796958252,-260.888822216356 200.225227490209,-240.290241194823 228.379592653201,-260.849175542781 " style="fill: rgb(67,184,206); fill-opacity: 1; stroke: rgb(0,0,0); stroke-width: 3" />
	<polygon points="474.480988382081,-403.531111155599 466.44792832263,-369.607549943157 484.363815969737,-339.701713906168 492.396876029183,-373.625275118608 " style="fill: rgb(67,184,206); fill-opacity: 1; stroke: rgb(0,0,0); stroke-width: 3" />
	<polygon points="440.827466724343,-412.629382380828 432.794406664899,-378.705821168381 466.44792832263,-369.607549943157 474.480988382081,-403.531111155599 " style="fill: rgb(67,184,206); fill-opacity: 1; stroke: rgb(0,0,0); stroke-width: 3" />
	<polygon points="225.39242946281,-321.281886478067 251.201720795909,-344.717298574674 228.591408479448,-371.25240430665 202.782117146347,-347.816992210051 " style="fill: rgb(67,184,206); fill-opacity: 1; stroke: rgb(0,0,0); stroke-width: 3" />
	<polygon points="332.250619924454,-240.521603591588 302.444540079029,-222.440241267281 321.456346728817,-193.218857536078 351.26242657424,-211.300219860378 " style="fill: rgb(67,184,206); fill-opacity: 1; stroke: rgb(0,0,0); stroke-width: 3" />
	<polygon points="364.534276250641,-456.778619794496 381.49269221217,-471.283002925099 392.391347054406,-504.397310737354 375.432931092877,-489.89292760675 " style="fill: rgb(67,184,206); fill-opacity: 1; stroke: rgb(0,0,0); stroke-width: 3" />
	<polygon points="407.073733863189,-500.250956368035 413.93992753701,-479.018425045622 436.255056977005,-479.018425045598 429.388863303195,-500.250956368009 " style="fill: rgb(67,184,206); fill-opacity: 1; stroke: rgb(0,0,0); stroke-width: 3" />
	<polygon points="302.103365984008,-222.499375800231 289.027358929873,-190.182876937026 304.951505945975,-159.170627726999 318.027513000111,-191.487126590202 " style="fill: rgb(67,184,206); fill-opacity: 1; stroke: rgb(0,0,0); stroke-width: 3" />
	<polygon points="269.845789395858,-430.279911545282 279.11789584573,-463.885954175103 249.027206278046,-446.282305104675 239.755099828171,-412.676262474858 " style="fill: rgb(67,184,206); fill-opacity: 1; stroke: rgb(0,0,0); stroke-width: 3" />
	<polygon points="232.354800160536,-376.870348485388 238.68544078457,-411.152429060294 210.230127826373,-391.012090838054 203.899487202347,-356.73001026315 " style="fill: rgb(67,184,206); fill-opacity: 1; stroke: rgb(0,0,0); stroke-width: 3" />
	<polygon points="315.896563197562,-489.722107399054 338.211692637541,-489.722107399025 345.077886311387,-510.954638721428 322.762756871415,-510.954638721457 " style="fill: rgb(67,184,206); fill-opacity: 1; stroke: rgb(0,0,0); stroke-width: 3" />
	<polygon points="239.755099828171,-412.676262474858 249.027206278046,-446.282305104675 232.220444496712,-476.825239110444 222.94833804684,-443.219196480622 " style="fill: rgb(67,184,206); fill-opacity: 1; stroke: rgb(0,0,0); stroke-width: 3" />
	<polygon points="385.229989112479,-203.455300838129 351.26242657424,-211.300219860378 321.456346728817,-193.218857536078 355.423909267064,-185.373938513824 " style="fill: rgb(67,184,206); fill-opacity: 1; stroke: rgb(0,0,0); stroke-width: 3" />
	<polygon points="435.979364577071,-163.390038461283 402.521778913185,-173.184323570404 393.786875253271,-139.434664056458 427.244460917157,-129.640378947336 " style="fill: rgb(67,184,206); fill-opacity: 1; stroke: rgb(0,0,0); stroke-width: 3" />
	<polygon points="237.869405858858,-206.363426990122 215.554276418889,-206.363426990139 208.063326013449,-172.31605232955 230.378455453418,-172.316052329534 " style="fill: rgb(67,184,206); fill-opacity: 1; stroke: rgb(0,0,0); stroke-width: 3" />
	<polygon points="279.11789584573,-463.885954175103 262.471390270674,-494.516525691068 232.380700702995,-476.912876620643 249.027206278046,-446.282305104675 " style="fill: rgb(67,184,206); fill-opacity: 1; stroke: rgb(0,0,0); stroke-width: 3" />
	<polygon points="190.65162017461,-317.589397679922 165.446501191706,-341.67341803186 146.923523121798,-329.228970059143 172.128642104708,-305.14494970721 " style="fill: rgb(67,184,206); fill-opacity: 1; stroke: rgb(0,0,0); stroke-width: 3" />
	<polygon points="503.355184812312,-423.066178080598 521.970490090577,-393.590620941631 556.447772863569,-388.427769806166 537.832467585303,-417.903326945122 " style="fill: rgb(67,184,206); fill-opacity: 1; stroke: rgb(0,0,0); stroke-width: 3" />
	<polygon points="385.229989112479,-203.455300838129 355.423909267064,-185.373938513824 346.68900560715,-151.624278999878 376.495085452563,-169.705641324189 " style="fill: rgb(67,184,206); fill-opacity: 1; stroke: rgb(0,0,0); stroke-width: 3" />
	<polygon points="350.740085867619,-179.436166643231 318.027513000111,-191.487126590202 304.951505945975,-159.170627726999 337.664078813479,-147.119667780034 " style="fill: rgb(67,184,206); fill-opacity: 1; stroke: rgb(0,0,0); stroke-width: 3" />
	<polygon points="407.073733863189,-500.250956368035 429.388863303195,-500.250956368009 459.194943148622,-518.332318692319 436.879813708616,-518.332318692344 " style="fill: rgb(67,184,206); fill-opacity: 1; stroke: rgb(0,0,0); stroke-width: 3" />
	<polygon points="237.869405858846,-74.7325313223981 230.37845545341,-108.779905982988 208.063326013438,-108.77990598301 215.554276418874,-74.7325313224257 " style="fill: rgb(67,184,206); fill-opacity: 1; stroke: rgb(0,0,0); stroke-width: 3" />
	<polygon points="402.521778913185,-173.184323570404 385.229989112479,-203.455300838129 376.495085452563,-169.705641324189 393.786875253271,-139.434664056458 " style="fill: rgb(67,184,206); fill-opacity: 1; stroke: rgb(0,0,0); stroke-width: 3" />
	<polygon points="203.899487202347,-356.73001026315 210.230127826373,-391.012090838054 175.765550098979,-396.259084389396 169.434909474951,-361.977003814499 " style="fill: rgb(67,184,206); fill-opacity: 1; stroke: rgb(0,0,0); stroke-width: 3" />
	<polygon points="146.923523121798,-329.228970059143 165.446501191706,-341.67341803186 135.813099310559,-360.036412128843 117.29012124064,-347.591964156137 " style="fill: rgb(67,184,206); fill-opacity: 1; stroke: rgb(0,0,0); stroke-width: 3" />
	<polygon points="169.434909474951,-361.977003814499 175.765550098979,-396.259084389396 153.946503735607,-423.448554318923 147.615863111585,-389.166473744034 " style="fill: rgb(67,184,206); fill-opacity: 1; stroke: rgb(0,0,0); stroke-width: 3" />
	<polygon points="429.388863303195,-500.250956368009 436.255056977005,-479.018425045598 466.34574654472,-496.622074116012 459.479552870919,-517.854605438426 " style="fill: rgb(67,184,206); fill-opacity: 1; stroke: rgb(0,0,0); stroke-width: 3" />
	<polygon points="179.42803436151,-283.290693236066 172.561840687722,-304.523224558485 146.186577646527,-327.319793571446 153.052771320317,-306.087262249028 " style="fill: rgb(67,184,206); fill-opacity: 1; stroke: rgb(0,0,0); stroke-width: 3" />
	<polygon points="315.896563197562,-489.722107399054 322.037902278564,-511.175521025229 291.366874945259,-527.747368887652 285.225535864263,-506.293955261475 " style="fill: rgb(67,184,206); fill-opacity: 1; stroke: rgb(0,0,0); stroke-width: 3" />
	<polygon points="179.42803436151,-283.290693236066 153.052771320317,-306.087262249028 120.374389032877,-318.230630411565 146.749652074072,-295.434061398604 " style="fill: rgb(67,184,206); fill-opacity: 1; stroke: rgb(0,0,0); stroke-width: 3" />
	<polygon points="426.789764720991,-128.590975556125 393.628037269833,-139.344481575556 363.821957424424,-121.263119251246 396.983684875587,-110.509613231815 " style="fill: rgb(67,184,206); fill-opacity: 1; stroke: rgb(0,0,0); stroke-width: 3" />
	<polygon points="337.664078813479,-147.119667780034 304.951505945975,-159.170627726999 317.198954271803,-126.531110745871 349.911527139303,-114.48015079891 " style="fill: rgb(67,184,206); fill-opacity: 1; stroke: rgb(0,0,0); stroke-width: 3" />
	<polygon points="210.230127826373,-391.012090838054 238.68544078457,-411.152429060294 204.248827007589,-416.579923033579 175.793514049402,-396.439584811337 " style="fill: rgb(67,184,206); fill-opacity: 1; stroke: rgb(0,0,0); stroke-width: 3" />
	<polygon points="125.95021700583,-383.821870789297 132.280857629852,-418.10395136419 118.423533438623,-435.595079634911 112.092892814602,-401.312999060022 " style="fill: rgb(67,184,206); fill-opacity: 1; stroke: rgb(0,0,0); stroke-width: 3" />
	<polygon points="238.68544078457,-411.152429060294 217.804231012613,-439.068609632043 183.36761723564,-444.496103605321 204.248827007589,-416.579923033579 " style="fill: rgb(67,184,206); fill-opacity: 1; stroke: rgb(0,0,0); stroke-width: 3" />
	<polygon points="474.480988382081,-403.531111155599 493.096293660344,-374.055554016638 521.970490090577,-393.590620941631 503.355184812312,-423.066178080598 " style="fill: rgb(67,184,206); fill-opacity: 1; stroke: rgb(0,0,0); stroke-width: 3" />
	<polygon points="322.762756871415,-510.954638721457 345.077886311387,-510.954638721428 315.271806465959,-529.036001045726 292.95667702599,-529.036001045741 " style="fill: rgb(67,184,206); fill-opacity: 1; stroke: rgb(0,0,0); stroke-width: 3" />
	<polygon points="315.271806465959,-529.036001045726 345.077886311387,-510.954638721428 323.468755703411,-538.311238174253 293.662675857985,-556.392600498534 " style="fill: rgb(67,184,206); fill-opacity: 1; stroke: rgb(0,0,0); stroke-width: 3" />
	<polygon points="208.063326013449,-172.31605232955 193.706181934163,-140.547979156279 216.021311374134,-140.547979156267 230.378455453418,-172.316052329534 " style="fill: rgb(67,184,206); fill-opacity: 1; stroke: rgb(0,0,0); stroke-width: 3" />
	<polygon points="459.479552870919,-517.854605438426 466.34574654472,-496.622074116012 492.15503787785,-520.057486212608 485.288844204063,-541.290017535031 " style="fill: rgb(67,184,206); fill-opacity: 1; stroke: rgb(0,0,0); stroke-width: 3" />
	<polygon points="376.495085452563,-169.705641324189 346.68900560715,-151.624278999878 363.821957424424,-121.263119251246 393.628037269833,-139.344481575556 " style="fill: rgb(67,184,206); fill-opacity: 1; stroke: rgb(0,0,0); stroke-width: 3" />
	<polygon points="436.879813708616,-518.332318692344 459.194943148622,-518.332318692319 482.134829320208,-544.583026905428 459.81969988021,-544.583026905457 " style="fill: rgb(67,184,206); fill-opacity: 1; stroke: rgb(0,0,0); stroke-width: 3" />
	<polygon points="153.946503735607,-423.448554318923 153.064885782865,-458.299103942146 131.399239677114,-452.954500987419 132.280857629852,-418.10395136419 " style="fill: rgb(67,184,206); fill-opacity: 1; stroke: rgb(0,0,0); stroke-width: 3" />
	<polygon points="232.380700702995,-476.912876620643 262.471390270674,-494.516525691068 229.485402032228,-505.797600072005 199.394712464554,-488.193951001579 " style="fill: rgb(67,184,206); fill-opacity: 1; stroke: rgb(0,0,0); stroke-width: 3" />
	<polygon points="121.017165719106,-319.837099812411 114.150972045324,-341.069631134823 91.9108686423933,-342.897964406107 98.7770623161789,-321.665433083699 " style="fill: rgb(67,184,206); fill-opacity: 1; stroke: rgb(0,0,0); stroke-width: 3" />
	<polygon points="222.94833804684,-443.219196480622 232.220444496712,-476.825239110444 198.923335912507,-487.151933605134 189.651229462635,-453.545890975315 " style="fill: rgb(67,184,206); fill-opacity: 1; stroke: rgb(0,0,0); stroke-width: 3" />
	<polygon points="153.052771320317,-306.087262249028 146.186577646527,-327.319793571446 114.150972045324,-341.069631134823 121.017165719106,-319.837099812411 " style="fill: rgb(67,184,206); fill-opacity: 1; stroke: rgb(0,0,0); stroke-width: 3" />
	<polygon points="229.485402032228,-505.797600072005 227.149526659295,-527.990136839254 197.058837091623,-510.386487768828 199.394712464554,-488.193951001579 " style="fill: rgb(67,184,206); fill-opacity: 1; stroke: rgb(0,0,0); stroke-width: 3" />
	<polygon points="175.793514049402,-396.439584811337 204.248827007589,-416.579923033579 183.221640833014,-444.386316198375 154.766327874834,-424.24597797614 " style="fill: rgb(67,184,206); fill-opacity: 1; stroke: rgb(0,0,0); stroke-width: 3" />
	<polygon points="485.288844204063,-541.290017535031 492.15503787785,-520.057486212608 526.799494798176,-516.171657607125 519.933301124397,-537.404188929544 " style="fill: rgb(67,184,206); fill-opacity: 1; stroke: rgb(0,0,0); stroke-width: 3" />
	<polygon points="285.225535864263,-506.293955261475 291.366874945259,-527.747368887652 264.776774920846,-550.292981319946 258.63543583985,-528.839567693765 " style="fill: rgb(67,184,206); fill-opacity: 1; stroke: rgb(0,0,0); stroke-width: 3" />
	<polygon points="270.016790854399,-555.286709258856 292.331920294378,-555.286709258831 283.749178202075,-575.885290280369 261.434048762104,-575.885290280397 " style="fill: rgb(67,184,206); fill-opacity: 1; stroke: rgb(0,0,0); stroke-width: 3" />
	<polygon points="292.95667702599,-529.036001045741 315.271806465959,-529.036001045726 292.331920294378,-555.286709258831 270.016790854399,-555.286709258856 " style="fill: rgb(67,184,206); fill-opacity: 1; stroke: rgb(0,0,0); stroke-width: 3" />
	<polygon points="193.706181934163,-140.547979156279 208.063326013438,-108.77990598301 230.37845545341,-108.779905982988 216.021311374134,-140.547979156267 " style="fill: rgb(67,184,206); fill-opacity: 1; stroke: rgb(0,0,0); stroke-width: 3" />
	<polygon points="183.221640833014,-444.386316198375 186.563365970395,-479.087482351138 158.108053012229,-458.947144128908 154.766327874834,-424.24597797614 " style="fill: rgb(67,184,206); fill-opacity: 1; stroke: rgb(0,0,0); stroke-width: 3" />
	<polygon points="519.933301124397,-537.404188929544 526.799494798176,-516.171657607125 561.5,-519.520239096931 554.633806326226,-540.752770419346 " style="fill: rgb(67,184,206); fill-opacity: 1; stroke: rgb(0,0,0); stroke-width: 3" />
	<polygon points="147.615863111585,-389.166473744034 153.946503735607,-423.448554318923 132.280857629852,-418.10395136419 125.95021700583,-383.821870789297 " style="fill: rgb(67,184,206); fill-opacity: 1; stroke: rgb(0,0,0); stroke-width: 3" />
	<polygon points="205.990289692607,-535.078979686379 171.645226532848,-529.099456644618 141.554536965194,-511.495807574167 175.899600124937,-517.475330615946 " style="fill: rgb(67,184,206); fill-opacity: 1; stroke: rgb(0,0,0); stroke-width: 3" />
	<polygon points="227.149526659295,-527.990136839254 205.990289692607,-535.078979686379 175.899600124937,-517.475330615946 197.058837091623,-510.386487768828 " style="fill: rgb(67,184,206); fill-opacity: 1; stroke: rgb(0,0,0); stroke-width: 3" />
	<polygon points="261.434048762104,-575.885290280397 283.749178202075,-575.885290280369 260.809292030492,-602.135998493475 238.494162590517,-602.135998493509 " style="fill: rgb(67,184,206); fill-opacity: 1; stroke: rgb(0,0,0); stroke-width: 3" />
	<polygon points="186.563365970395,-479.087482351138 177.886419854313,-499.646558400967 149.431106896166,-479.506220178732 158.108053012229,-458.947144128908 " style="fill: rgb(67,184,206); fill-opacity: 1; stroke: rgb(0,0,0); stroke-width: 3" />
	<polygon points="112.092892814602,-401.312999060022 118.423533438623,-435.595079634911 112.376072799371,-469.928245510951 106.045432175352,-435.64616493606 " style="fill: rgb(67,184,206); fill-opacity: 1; stroke: rgb(0,0,0); stroke-width: 3" />
	<polygon points="177.886419854313,-499.646558400967 155.626961300938,-498.071278478482 127.171648342798,-477.930940256241 149.431106896166,-479.506220178732 " style="fill: rgb(67,184,206); fill-opacity: 1; stroke: rgb(0,0,0); stroke-width: 3" />
	<polygon points="231.003212184997,-53.5 237.869405858846,-74.7325313223981 215.554276418874,-74.7325313224257 208.688082745029,-53.5000000000228 " style="fill: rgb(67,184,206); fill-opacity: 1; stroke: rgb(0,0,0); stroke-width: 3" />
	<polygon points="66.7414567149701,-335.415270647081 59.8752630411908,-356.647801969484 33.5,-379.444370982451 40.3661936737805,-358.211839660048 " style="fill: rgb(67,184,206); fill-opacity: 1; stroke: rgb(0,0,0); stroke-width: 3" />
	<polygon points="132.280857629852,-418.10395136419 127.944378927181,-452.694889653231 114.087054735953,-470.18601792395 118.423533438623,-435.595079634911 " style="fill: rgb(67,184,206); fill-opacity: 1; stroke: rgb(0,0,0); stroke-width: 3" />
	<polygon points="153.064885782865,-458.299103942146 141.31321870971,-477.269167804066 119.647572603963,-471.924564849347 131.399239677114,-452.954500987419 " style="fill: rgb(67,184,206); fill-opacity: 1; stroke: rgb(0,0,0); stroke-width: 3" />
	<polygon points="238.494162590517,-602.135998493509 260.809292030492,-602.135998493475 231.003212185065,-620.217360817783 208.688082745092,-620.217360817817 " style="fill: rgb(67,184,206); fill-opacity: 1; stroke: rgb(0,0,0); stroke-width: 3" />
	<circle cx="322.762756871387" cy="-336.858680408918" r="2" style="fill: rgb(0,0,0)" />
	<circle cx="345.077886311378" cy="-336.858680408918" r="2" style="fill: rgb(0,0,0)" />
	<circle cx="338.211692637538" cy="-358.091211731326" r="2" style="fill: rgb(0,0,0)" />
	<circle cx="315.896563197557" cy="-358.091211731338" r="2" style="fill: rgb(0,0,0)" />
	<circle cx="292.95667702596" cy="-318.77731808461" r="2" style="fill: rgb(0,0,0)" />
	<circle cx="315.271806465951" cy="-318.77731808461" r="2" style="fill: rgb(0,0,0)" />
	<circle cx="353.110946370835" cy="-370.782241621385" r="2" style="fill: rgb(0,0,0)" />
	<circle cx="346.244752696994" cy="-392.014772943788" r="2" style="fill: rgb(0,0,0)" />
	<circle cx="285.805873629854" cy="-340.487562660903" r="2" style="fill: rgb(0,0,0)" />
	<circle cx="292.672067303678" cy="-319.255031338482" r="2" style="fill: rgb(0,0,0)" />
	<circle cx="345.702643042975" cy="-392.138586391911" r="2" style="fill: rgb(0,0,0)" />
	<circle cx="323.387513602995" cy="-392.138586391925" r="2" style="fill: rgb(0,0,0)" />
	<circle cx="293.662675857984" cy="-291.420718631777" r="2" style="fill: rgb(0,0,0)" />
	<circle cx="323.468755703411" cy="-309.502080956086" r="2" style="fill: rgb(0,0,0)" />
	<circle cx="270.016790854375" cy="-292.526609871502" r="2" style="fill: rgb(0,0,0)" />
	<circle cx="292.331920294357" cy="-292.526609871497" r="2" style="fill: rgb(0,0,0)" />
	<circle cx="364.458342070874" cy="-365.836879003883" r="2" style="fill: rgb(0,0,0)" />
	<circle cx="372.491402130327" cy="-399.760440216346" r="2" style="fill: rgb(0,0,0)" />
	<circle cx="371.029698943404" cy="-400.686361161972" r="2" style="fill: rgb(0,0,0)" />
	<circle cx="364.163505269571" cy="-421.918892484387" r="2" style="fill: rgb(0,0,0)" />
	<circle cx="322.227203821584" cy="-392.373292306246" r="2" style="fill: rgb(0,0,0)" />
	<circle cx="292.136514253885" cy="-374.769643235815" r="2" style="fill: rgb(0,0,0)" />
	<circle cx="259.99658229675" cy="-317.052150564294" r="2" style="fill: rgb(0,0,0)" />
	<circle cx="266.862775970561" cy="-295.819619241866" r="2" style="fill: rgb(0,0,0)" />
	<circle cx="360.059787122256" cy="-423.906659565176" r="2" style="fill: rgb(0,0,0)" />
	<circle cx="337.744657682277" cy="-423.90665956519" r="2" style="fill: rgb(0,0,0)" />
	<circle cx="320.724870534453" cy="-287.356289118739" r="2" style="fill: rgb(0,0,0)" />
	<circle cx="342.334001142419" cy="-314.712888571572" r="2" style="fill: rgb(0,0,0)" />
	<circle cx="289.823346833759" cy="-269.438349456292" r="2" style="fill: rgb(0,0,0)" />
	<circle cx="319.629426679184" cy="-287.519711780598" r="2" style="fill: rgb(0,0,0)" />
	<circle cx="261.434048762068" cy="-271.928028849969" r="2" style="fill: rgb(0,0,0)" />
	<circle cx="283.749178202047" cy="-271.928028849963" r="2" style="fill: rgb(0,0,0)" />
	<circle cx="365.305022930545" cy="-346.283538291835" r="2" style="fill: rgb(0,0,0)" />
	<circle cx="384.68547869004" cy="-375.2617368868" r="2" style="fill: rgb(0,0,0)" />
	<circle cx="384.19292468154" cy="-376.253752388276" r="2" style="fill: rgb(0,0,0)" />
	<circle cx="392.225984740992" cy="-410.177313600738" r="2" style="fill: rgb(0,0,0)" />
	<circle cx="387.988114904926" cy="-415.190744292588" r="2" style="fill: rgb(0,0,0)" />
	<circle cx="381.121921231102" cy="-436.423275614998" r="2" style="fill: rgb(0,0,0)" />
	<circle cx="258.070994530471" cy="-382.177640618963" r="2" style="fill: rgb(0,0,0)" />
	<circle cx="251.740353906435" cy="-347.895560044058" r="2" style="fill: rgb(0,0,0)" />
	<circle cx="303.683902767175" cy="-421.894200917951" r="2" style="fill: rgb(0,0,0)" />
	<circle cx="273.593213199479" cy="-404.290551847528" r="2" style="fill: rgb(0,0,0)" />
	<circle cx="225.352125376426" cy="-320.937979169753" r="2" style="fill: rgb(0,0,0)" />
	<circle cx="232.218319050229" cy="-299.705447847329" r="2" style="fill: rgb(0,0,0)" />
	<circle cx="251.201720795909" cy="-344.717298574674" r="2" style="fill: rgb(0,0,0)" />
	<circle cx="225.39242946281" cy="-321.281886478067" r="2" style="fill: rgb(0,0,0)" />
	<circle cx="345.702643042978" cy="-455.674732738441" r="2" style="fill: rgb(0,0,0)" />
	<circle cx="323.387513602998" cy="-455.674732738463" r="2" style="fill: rgb(0,0,0)" />
	<circle cx="323.072691900882" cy="-455.530566334669" r="2" style="fill: rgb(0,0,0)" />
	<circle cx="308.715547821599" cy="-423.762493161408" r="2" style="fill: rgb(0,0,0)" />
	<circle cx="362.561137761586" cy="-305.288030688651" r="2" style="fill: rgb(0,0,0)" />
	<circle cx="365.305022930549" cy="-327.433822525988" r="2" style="fill: rgb(0,0,0)" />
	<circle cx="340.799105593766" cy="-277.610003225794" r="2" style="fill: rgb(0,0,0)" />
	<circle cx="362.40823620173" cy="-304.96660267862" r="2" style="fill: rgb(0,0,0)" />
	<circle cx="308.227569160989" cy="-256.818935743546" r="2" style="fill: rgb(0,0,0)" />
	<circle cx="338.033649006417" cy="-274.900298067856" r="2" style="fill: rgb(0,0,0)" />
	<circle cx="238.494162590482" cy="-245.677320636861" r="2" style="fill: rgb(0,0,0)" />
	<circle cx="260.809292030454" cy="-245.677320636851" r="2" style="fill: rgb(0,0,0)" />
	<circle cx="236.962334745514" cy="-281.447756564315" r="2" style="fill: rgb(0,0,0)" />
	<circle cx="228.379592653201" cy="-260.849175542781" r="2" style="fill: rgb(0,0,0)" />
	<circle cx="380.755164378191" cy="-330.182043604342" r="2" style="fill: rgb(0,0,0)" />
	<circle cx="400.135620137683" cy="-359.160242199302" r="2" style="fill: rgb(0,0,0)" />
	<circle cx="401.862956706313" cy="-362.62529062008" r="2" style="fill: rgb(0,0,0)" />
	<circle cx="409.896016765761" cy="-396.548851832532" r="2" style="fill: rgb(0,0,0)" />
	<circle cx="405.906867477521" cy="-445.094863833162" r="2" style="fill: rgb(0,0,0)" />
	<circle cx="399.0406738037" cy="-466.327395155576" r="2" style="fill: rgb(0,0,0)" />
	<circle cx="381.49269221217" cy="-471.283002925099" r="2" style="fill: rgb(0,0,0)" />
	<circle cx="364.534276250641" cy="-456.778619794496" r="2" style="fill: rgb(0,0,0)" />
	<circle cx="272.903036025469" cy="-403.84560193871" r="2" style="fill: rgb(0,0,0)" />
	<circle cx="238.837516302063" cy="-411.253599321853" r="2" style="fill: rgb(0,0,0)" />
	<circle cx="238.68544078457" cy="-411.152429060294" r="2" style="fill: rgb(0,0,0)" />
	<circle cx="232.354800160536" cy="-376.870348485388" r="2" style="fill: rgb(0,0,0)" />
	<circle cx="269.845789395858" cy="-430.279911545282" r="2" style="fill: rgb(0,0,0)" />
	<circle cx="239.755099828171" cy="-412.676262474858" r="2" style="fill: rgb(0,0,0)" />
	<circle cx="190.65162017461" cy="-317.589397679922" r="2" style="fill: rgb(0,0,0)" />
	<circle cx="197.517813848406" cy="-296.356866357501" r="2" style="fill: rgb(0,0,0)" />
	<circle cx="228.591408479448" cy="-371.25240430665" r="2" style="fill: rgb(0,0,0)" />
	<circle cx="202.782117146347" cy="-347.816992210051" r="2" style="fill: rgb(0,0,0)" />
	<circle cx="338.211692637541" cy="-489.722107399025" r="2" style="fill: rgb(0,0,0)" />
	<circle cx="315.896563197562" cy="-489.722107399054" r="2" style="fill: rgb(0,0,0)" />
	<circle cx="290.867893406633" cy="-468.879312088481" r="2" style="fill: rgb(0,0,0)" />
	<circle cx="276.510749327347" cy="-437.111238915227" r="2" style="fill: rgb(0,0,0)" />
	<circle cx="375.628004136831" cy="-279.12191775121" r="2" style="fill: rgb(0,0,0)" />
	<circle cx="397.237134744791" cy="-306.478517204034" r="2" style="fill: rgb(0,0,0)" />
	<circle cx="283.699143656782" cy="-235.118789512985" r="2" style="fill: rgb(0,0,0)" />
	<circle cx="302.103365984008" cy="-222.499375800231" r="2" style="fill: rgb(0,0,0)" />
	<circle cx="302.444540079029" cy="-222.440241267281" r="2" style="fill: rgb(0,0,0)" />
	<circle cx="332.250619924454" cy="-240.521603591588" r="2" style="fill: rgb(0,0,0)" />
	<circle cx="230.767525732044" cy="-255.347847171115" r="2" style="fill: rgb(0,0,0)" />
	<circle cx="207.827639560469" cy="-229.097138958016" r="2" style="fill: rgb(0,0,0)" />
	<circle cx="208.688082745055" cy="-227.595958312552" r="2" style="fill: rgb(0,0,0)" />
	<circle cx="231.003212185028" cy="-227.595958312542" r="2" style="fill: rgb(0,0,0)" />
	<circle cx="208.80796958252" cy="-260.888822216356" r="2" style="fill: rgb(0,0,0)" />
	<circle cx="200.225227490209" cy="-240.290241194823" r="2" style="fill: rgb(0,0,0)" />
	<circle cx="432.794406664899" cy="-378.705821168381" r="2" style="fill: rgb(0,0,0)" />
	<circle cx="440.827466724343" cy="-412.629382380828" r="2" style="fill: rgb(0,0,0)" />
	<circle cx="440.666224404614" cy="-412.935809485412" r="2" style="fill: rgb(0,0,0)" />
	<circle cx="422.996192379853" cy="-426.564271253619" r="2" style="fill: rgb(0,0,0)" />
	<circle cx="413.93992753701" cy="-479.018425045622" r="2" style="fill: rgb(0,0,0)" />
	<circle cx="407.073733863189" cy="-500.250956368035" r="2" style="fill: rgb(0,0,0)" />
	<circle cx="405.380629876153" cy="-500.60775420058" r="2" style="fill: rgb(0,0,0)" />
	<circle cx="387.461877303554" cy="-470.70363466" r="2" style="fill: rgb(0,0,0)" />
	<circle cx="392.391347054406" cy="-504.397310737354" r="2" style="fill: rgb(0,0,0)" />
	<circle cx="375.432931092877" cy="-489.89292760675" r="2" style="fill: rgb(0,0,0)" />
	<circle cx="210.230127826373" cy="-391.012090838054" r="2" style="fill: rgb(0,0,0)" />
	<circle cx="203.899487202347" cy="-356.73001026315" r="2" style="fill: rgb(0,0,0)" />
	<circle cx="279.11789584573" cy="-463.885954175103" r="2" style="fill: rgb(0,0,0)" />
	<circle cx="249.027206278046" cy="-446.282305104675" r="2" style="fill: rgb(0,0,0)" />
	<circle cx="200.147006393516" cy="-345.021999521692" r="2" style="fill: rgb(0,0,0)" />
	<circle cx="165.446501191706" cy="-341.67341803186" r="2" style="fill: rgb(0,0,0)" />
	<circle cx="172.561840687722" cy="-304.523224558485" r="2" style="fill: rgb(0,0,0)" />
	<circle cx="179.42803436151" cy="-283.290693236066" r="2" style="fill: rgb(0,0,0)" />
	<circle cx="285.225535864263" cy="-506.293955261475" r="2" style="fill: rgb(0,0,0)" />
	<circle cx="292.716486269696" cy="-472.246580600885" r="2" style="fill: rgb(0,0,0)" />
	<circle cx="345.077886311387" cy="-510.954638721428" r="2" style="fill: rgb(0,0,0)" />
	<circle cx="322.762756871415" cy="-510.954638721457" r="2" style="fill: rgb(0,0,0)" />
	<circle cx="343.408005490932" cy="-242.846060690723" r="2" style="fill: rgb(0,0,0)" />
	<circle cx="378.236904033991" cy="-244.357975216134" r="2" style="fill: rgb(0,0,0)" />
	<circle cx="402.289936285103" cy="-256.66129813874" r="2" style="fill: rgb(0,0,0)" />
	<circle cx="423.899066893064" cy="-284.017897591555" r="2" style="fill: rgb(0,0,0)" />
	<circle cx="270.623136602652" cy="-202.802290649785" r="2" style="fill: rgb(0,0,0)" />
	<circle cx="289.027358929873" cy="-190.182876937026" r="2" style="fill: rgb(0,0,0)" />
	<circle cx="321.456346728817" cy="-193.218857536078" r="2" style="fill: rgb(0,0,0)" />
	<circle cx="351.26242657424" cy="-211.300219860378" r="2" style="fill: rgb(0,0,0)" />
	<circle cx="215.554276418889" cy="-206.363426990139" r="2" style="fill: rgb(0,0,0)" />
	<circle cx="237.869405858858" cy="-206.363426990122" r="2" style="fill: rgb(0,0,0)" />
	<circle cx="466.44792832263" cy="-369.607549943157" r="2" style="fill: rgb(0,0,0)" />
	<circle cx="474.480988382081" cy="-403.531111155599" r="2" style="fill: rgb(0,0,0)" />
	<circle cx="467.391531064091" cy="-435.320984115339" r="2" style="fill: rgb(0,0,0)" />
	<circle cx="449.721499039336" cy="-448.949445883547" r="2" style="fill: rgb(0,0,0)" />
	<circle cx="436.255056977005" cy="-479.018425045598" r="2" style="fill: rgb(0,0,0)" />
	<circle cx="429.388863303195" cy="-500.250956368009" r="2" style="fill: rgb(0,0,0)" />
	<circle cx="175.765550098979" cy="-396.259084389396" r="2" style="fill: rgb(0,0,0)" />
	<circle cx="169.434909474951" cy="-361.977003814499" r="2" style="fill: rgb(0,0,0)" />
	<circle cx="204.248827007589" cy="-416.579923033579" r="2" style="fill: rgb(0,0,0)" />
	<circle cx="175.793514049402" cy="-396.439584811337" r="2" style="fill: rgb(0,0,0)" />
	<circle cx="232.220444496712" cy="-476.825239110444" r="2" style="fill: rgb(0,0,0)" />
	<circle cx="222.94833804684" cy="-443.219196480622" r="2" style="fill: rgb(0,0,0)" />
	<circle cx="262.471390270674" cy="-494.516525691068" r="2" style="fill: rgb(0,0,0)" />
	<circle cx="232.380700702995" cy="-476.912876620643" r="2" style="fill: rgb(0,0,0)" />
	<circle cx="146.923523121798" cy="-329.228970059143" r="2" style="fill: rgb(0,0,0)" />
	<circle cx="172.128642104708" cy="-305.14494970721" r="2" style="fill: rgb(0,0,0)" />
	<circle cx="146.186577646527" cy="-327.319793571446" r="2" style="fill: rgb(0,0,0)" />
	<circle cx="153.052771320317" cy="-306.087262249028" r="2" style="fill: rgb(0,0,0)" />
	<circle cx="322.037902278564" cy="-511.175521025229" r="2" style="fill: rgb(0,0,0)" />
	<circle cx="291.366874945259" cy="-527.747368887652" r="2" style="fill: rgb(0,0,0)" />
	<circle cx="315.271806465959" cy="-529.036001045726" r="2" style="fill: rgb(0,0,0)" />
	<circle cx="292.95667702599" cy="-529.036001045741" r="2" style="fill: rgb(0,0,0)" />
	<circle cx="369.412218696104" cy="-219.627125425827" r="2" style="fill: rgb(0,0,0)" />
	<circle cx="404.241117239154" cy="-221.139039951244" r="2" style="fill: rgb(0,0,0)" />
	<circle cx="404.362412751539" cy="-221.275604161485" r="2" style="fill: rgb(0,0,0)" />
	<circle cx="401.753512854378" cy="-256.039546696564" r="2" style="fill: rgb(0,0,0)" />
	<circle cx="405.898647262544" cy="-221.986880128679" r="2" style="fill: rgb(0,0,0)" />
	<circle cx="427.507777870502" cy="-249.343479581496" r="2" style="fill: rgb(0,0,0)" />
	<circle cx="304.951505945975" cy="-159.170627726999" r="2" style="fill: rgb(0,0,0)" />
	<circle cx="318.027513000111" cy="-191.487126590202" r="2" style="fill: rgb(0,0,0)" />
	<circle cx="355.423909267064" cy="-185.373938513824" r="2" style="fill: rgb(0,0,0)" />
	<circle cx="385.229989112479" cy="-203.455300838129" r="2" style="fill: rgb(0,0,0)" />
	<circle cx="200.655022685593" cy="-193.672397100094" r="2" style="fill: rgb(0,0,0)" />
	<circle cx="207.521216359436" cy="-172.439865777693" r="2" style="fill: rgb(0,0,0)" />
	<circle cx="208.063326013449" cy="-172.31605232955" r="2" style="fill: rgb(0,0,0)" />
	<circle cx="230.378455453418" cy="-172.316052329534" r="2" style="fill: rgb(0,0,0)" />
	<circle cx="503.355184812312" cy="-423.066178080598" r="2" style="fill: rgb(0,0,0)" />
	<circle cx="469.701663154577" cy="-432.164449305825" r="2" style="fill: rgb(0,0,0)" />
	<circle cx="484.363815969737" cy="-339.701713906168" r="2" style="fill: rgb(0,0,0)" />
	<circle cx="492.396876029183" cy="-373.625275118608" r="2" style="fill: rgb(0,0,0)" />
	<circle cx="459.194943148622" cy="-518.332318692319" r="2" style="fill: rgb(0,0,0)" />
	<circle cx="436.879813708616" cy="-518.332318692344" r="2" style="fill: rgb(0,0,0)" />
	<circle cx="466.34574654472" cy="-496.622074116012" r="2" style="fill: rgb(0,0,0)" />
	<circle cx="459.479552870919" cy="-517.854605438426" r="2" style="fill: rgb(0,0,0)" />
	<circle cx="153.946503735607" cy="-423.448554318923" r="2" style="fill: rgb(0,0,0)" />
	<circle cx="147.615863111585" cy="-389.166473744034" r="2" style="fill: rgb(0,0,0)" />
	<circle cx="217.804231012613" cy="-439.068609632043" r="2" style="fill: rgb(0,0,0)" />
	<circle cx="183.36761723564" cy="-444.496103605321" r="2" style="fill: rgb(0,0,0)" />
	<circle cx="183.221640833014" cy="-444.386316198375" r="2" style="fill: rgb(0,0,0)" />
	<circle cx="154.766327874834" cy="-424.24597797614" r="2" style="fill: rgb(0,0,0)" />
	<circle cx="198.923335912507" cy="-487.151933605134" r="2" style="fill: rgb(0,0,0)" />
	<circle cx="189.651229462635" cy="-453.545890975315" r="2" style="fill: rgb(0,0,0)" />
	<circle cx="229.485402032228" cy="-505.797600072005" r="2" style="fill: rgb(0,0,0)" />
	<circle cx="199.394712464554" cy="-488.193951001579" r="2" style="fill: rgb(0,0,0)" />
	<circle cx="135.813099310559" cy="-360.036412128843" r="2" style="fill: rgb(0,0,0)" />
	<circle cx="117.29012124064" cy="-347.591964156137" r="2" style="fill: rgb(0,0,0)" />
	<circle cx="120.374389032877" cy="-318.230630411565" r="2" style="fill: rgb(0,0,0)" />
	<circle cx="146.749652074072" cy="-295.434061398604" r="2" style="fill: rgb(0,0,0)" />
	<circle cx="114.150972045324" cy="-341.069631134823" r="2" style="fill: rgb(0,0,0)" />
	<circle cx="121.017165719106" cy="-319.837099812411" r="2" style="fill: rgb(0,0,0)" />
	<circle cx="264.776774920846" cy="-550.292981319946" r="2" style="fill: rgb(0,0,0)" />
	<circle cx="258.63543583985" cy="-528.839567693765" r="2" style="fill: rgb(0,0,0)" />
	<circle cx="323.468755703411" cy="-538.311238174253" r="2" style="fill: rgb(0,0,0)" />
	<circle cx="293.662675857985" cy="-556.392600498534" r="2" style="fill: rgb(0,0,0)" />
	<circle cx="292.331920294378" cy="-555.286709258831" r="2" style="fill: rgb(0,0,0)" />
	<circle cx="270.016790854399" cy="-555.286709258856" r="2" style="fill: rgb(0,0,0)" />
	<circle cx="337.664078813479" cy="-147.119667780034" r="2" style="fill: rgb(0,0,0)" />
	<circle cx="350.740085867619" cy="-179.436166643231" r="2" style="fill: rgb(0,0,0)" />
	<circle cx="346.68900560715" cy="-151.624278999878" r="2" style="fill: rgb(0,0,0)" />
	<circle cx="376.495085452563" cy="-169.705641324189" r="2" style="fill: rgb(0,0,0)" />
	<circle cx="182.736270113027" cy="-163.768277559506" r="2" style="fill: rgb(0,0,0)" />
	<circle cx="189.602463786862" cy="-142.535746237093" r="2" style="fill: rgb(0,0,0)" />
	<circle cx="193.706181934163" cy="-140.547979156279" r="2" style="fill: rgb(0,0,0)" />
	<circle cx="216.021311374134" cy="-140.547979156267" r="2" style="fill: rgb(0,0,0)" />
	<circle cx="493.096293660344" cy="-374.055554016638" r="2" style="fill: rgb(0,0,0)" />
	<circle cx="521.970490090577" cy="-393.590620941631" r="2" style="fill: rgb(0,0,0)" />
	<circle cx="482.134829320208" cy="-544.583026905428" r="2" style="fill: rgb(0,0,0)" />
	<circle cx="459.81969988021" cy="-544.583026905457" r="2" style="fill: rgb(0,0,0)" />
	<circle cx="492.15503787785" cy="-520.057486212608" r="2" style="fill: rgb(0,0,0)" />
	<circle cx="485.288844204063" cy="-541.290017535031" r="2" style="fill: rgb(0,0,0)" />
	<circle cx="132.280857629852" cy="-418.10395136419" r="2" style="fill: rgb(0,0,0)" />
	<circle cx="125.95021700583" cy="-383.821870789297" r="2" style="fill: rgb(0,0,0)" />
	<circle cx="186.563365970395" cy="-479.087482351138" r="2" style="fill: rgb(0,0,0)" />
	<circle cx="158.108053012229" cy="-458.947144128908" r="2" style="fill: rgb(0,0,0)" />
	<circle cx="227.149526659295" cy="-527.990136839254" r="2" style="fill: rgb(0,0,0)" />
	<circle cx="197.058837091623" cy="-510.386487768828" r="2" style="fill: rgb(0,0,0)" />
	<circle cx="91.9108686423933" cy="-342.897964406107" r="2" style="fill: rgb(0,0,0)" />
	<circle cx="98.7770623161789" cy="-321.665433083699" r="2" style="fill: rgb(0,0,0)" />
	<circle cx="283.749178202075" cy="-575.885290280369" r="2" style="fill: rgb(0,0,0)" />
	<circle cx="261.434048762104" cy="-575.885290280397" r="2" style="fill: rgb(0,0,0)" />
	<circle cx="317.198954271803" cy="-126.531110745871" r="2" style="fill: rgb(0,0,0)" />
	<circle cx="349.911527139303" cy="-114.48015079891" r="2" style="fill: rgb(0,0,0)" />
	<circle cx="393.786875253271" cy="-139.434664056458" r="2" style="fill: rgb(0,0,0)" />
	<circle cx="402.521778913185" cy="-173.184323570404" r="2" style="fill: rgb(0,0,0)" />
	<circle cx="363.821957424424" cy="-121.263119251246" r="2" style="fill: rgb(0,0,0)" />
	<circle cx="393.628037269833" cy="-139.344481575556" r="2" style="fill: rgb(0,0,0)" />
	<circle cx="208.063326013438" cy="-108.77990598301" r="2" style="fill: rgb(0,0,0)" />
	<circle cx="230.37845545341" cy="-108.779905982988" r="2" style="fill: rgb(0,0,0)" />
	<circle cx="486.043260792224" cy="-339.914775076844" r="2" style="fill: rgb(0,0,0)" />
	<circle cx="514.91745722245" cy="-359.449842001835" r="2" style="fill: rgb(0,0,0)" />
	<circle cx="556.447772863569" cy="-388.427769806166" r="2" style="fill: rgb(0,0,0)" />
	<circle cx="537.832467585303" cy="-417.903326945122" r="2" style="fill: rgb(0,0,0)" />
	<circle cx="526.799494798176" cy="-516.171657607125" r="2" style="fill: rgb(0,0,0)" />
	<circle cx="519.933301124397" cy="-537.404188929544" r="2" style="fill: rgb(0,0,0)" />
	<circle cx="118.423533438623" cy="-435.595079634911" r="2" style="fill: rgb(0,0,0)" />
	<circle cx="112.092892814602" cy="-401.312999060022" r="2" style="fill: rgb(0,0,0)" />
	<circle cx="153.064885782865" cy="-458.299103942146" r="2" style="fill: rgb(0,0,0)" />
	<circle cx="131.399239677114" cy="-452.954500987419" r="2" style="fill: rgb(0,0,0)" />
	<circle cx="177.886419854313" cy="-499.646558400967" r="2" style="fill: rgb(0,0,0)" />
	<circle cx="149.431106896166" cy="-479.506220178732" r="2" style="fill: rgb(0,0,0)" />
	<circle cx="205.990289692607" cy="-535.078979686379" r="2" style="fill: rgb(0,0,0)" />
	<circle cx="175.899600124937" cy="-517.475330615946" r="2" style="fill: rgb(0,0,0)" />
	<circle cx="59.8752630411908" cy="-356.647801969484" r="2" style="fill: rgb(0,0,0)" />
	<circle cx="66.7414567149701" cy="-335.415270647081" r="2" style="fill: rgb(0,0,0)" />
	<circle cx="260.809292030492" cy="-602.135998493475" r="2" style="fill: rgb(0,0,0)" />
	<circle cx="238.494162590517" cy="-602.135998493509" r="2" style="fill: rgb(0,0,0)" />
	<circle cx="427.244460917157" cy="-129.640378947336" r="2" style="fill: rgb(0,0,0)" />
	<circle cx="435.979364577071" cy="-163.390038461283" r="2" style="fill: rgb(0,0,0)" />
	<circle cx="396.983684875587" cy="-110.509613231815" r="2" style="fill: rgb(0,0,0)" />
	<circle cx="426.789764720991" cy="-128.590975556125" r="2" style="fill: rgb(0,0,0)" />
	<circle cx="215.554276418874" cy="-74.7325313224257" r="2" style="fill: rgb(0,0,0)" />
	<circle cx="237.869405858846" cy="-74.7325313223981" r="2" style="fill: rgb(0,0,0)" />
	<circle cx="561.5" cy="-519.520239096931" r="2" style="fill: rgb(0,0,0)" />
	<circle cx="554.633806326226" cy="-540.752770419346" r="2" style="fill: rgb(0,0,0)" />
	<circle cx="112.376072799371" cy="-469.928245510951" r="2" style="fill: rgb(0,0,0)" />
	<circle cx="106.045432175352" cy="-435.64616493606" r="2" style="fill: rgb(0,0,0)" />
	<circle cx="127.944378927181" cy="-452.694889653231" r="2" style="fill: rgb(0,0,0)" />
	<circle cx="114.087054735953" cy="-470.18601792395" r="2" style="fill: rgb(0,0,0)" />
	<circle cx="141.31321870971" cy="-477.269167804066" r="2" style="fill: rgb(0,0,0)" />
	<circle cx="119.647572603963" cy="-471.924564849347" r="2" style="fill: rgb(0,0,0)" />
	<circle cx="155.626961300938" cy="-498.071278478482" r="2" style="fill: rgb(0,0,0)" />
	<circle cx="127.171648342798" cy="-477.930940256241" r="2" style="fill: rgb(0,0,0)" />
	<circle cx="171.645226532848" cy="-529.099456644618" r="2" style="fill: rgb(0,0,0)" />
	<circle cx="141.554536965194" cy="-511.495807574167" r="2" style="fill: rgb(0,0,0)" />
	<circle cx="33.5" cy="-379.444370982451" r="2" style="fill: rgb(0,0,0)" />
	<circle cx="40.3661936737805" cy="-358.211839660048" r="2" style="fill: rgb(0,0,0)" />
	<circle cx="231.003212185065" cy="-620.217360817783" r="2" style="fill: rgb(0,0,0)" />
	<circle cx="208.688082745092" cy="-620.217360817817" r="2" style="fill: rgb(0,0,0)" />
	<circle cx="208.688082745029" cy="-53.5000000000228" r="2" style="fill: rgb(0,0,0)" />
	<circle cx="231.003212184997" cy="-53.5" r="2" style="fill: rgb(0,0,0)" />
	<!--
	Generated using the Perl SVG Module V2.86
	by Ronan Oger
	Info: http://www.roitsystems.com/
	-->
</svg>