<?xml version="1.0" encoding="UTF-8" standalone="yes"?>
<!DOCTYPE svg PUBLIC "-//W3C//DTD SVG 1.0//EN" "http://www.w3.org/TR/2001/REC-SVG-20010904/DTD/svg10.dtd">
<!-- generated using polymake; Michael Joswig, Georg Loho, Benjamin Lorenz, Rico Raber; license CC BY-NC-ND 3.0; see polymake.org and matchthenet.de -->
<svg height="841pt" id="document" viewBox="0 -614.984685697022 572 614.984685697022" width="595pt" xmlns="http://www.w3.org/2000/svg" xmlns:svg="http://www.w3.org/2000/svg" xmlns:xlink="http://www.w3.org/1999/xlink">
	<title id="document_title">planar_net_</title>
	<polygon points="282.751270245704,-315.992342848386 322.04350779536,-315.992342848386 305.115032078626,-353.23331029399 265.822794528973,-353.233310294002 " style="fill: rgb(157,116,59); fill-opacity: 1; stroke: rgb(0,0,0); stroke-width: 3" />
	<polygon points="282.751270245704,-315.992342848386 265.822794528969,-278.751375402784 305.115032078623,-278.751375402783 322.04350779536,-315.992342848386 " style="fill: rgb(157,116,59); fill-opacity: 1; stroke: rgb(0,0,0); stroke-width: 3" />
	<polygon points="305.115032078626,-353.23331029399 322.04350779536,-315.992342848386 365.423572120212,-317.133696310985 348.495096403483,-354.374663756585 " style="fill: rgb(157,116,59); fill-opacity: 1; stroke: rgb(0,0,0); stroke-width: 3" />
	<polygon points="282.751270245704,-315.992342848386 265.822794528973,-353.233310294002 241.132009980648,-320.616932433105 258.060485697365,-283.37596498749 " style="fill: rgb(157,116,59); fill-opacity: 1; stroke: rgb(0,0,0); stroke-width: 3" />
	<polygon points="265.822794528973,-353.233310294002 305.115032078626,-353.23331029399 320.394543231382,-389.432985300704 281.10230568174,-389.432985300724 " style="fill: rgb(157,116,59); fill-opacity: 1; stroke: rgb(0,0,0); stroke-width: 3" />
	<polygon points="348.495096403483,-354.374663756585 365.423572120212,-317.133696310985 391.843686331381,-351.55912635367 413.327797262646,-384.457650775784 396.399321545929,-421.698618221386 369.979207334751,-387.273188178699 " style="fill: rgb(186,145,77); fill-opacity: 1; stroke: rgb(0,0,0); stroke-width: 3" />
	<polygon points="305.115032078626,-353.23331029399 348.495096403483,-354.374663756585 364.999136614033,-390.032714578066 321.619072289178,-388.891361115473 " style="fill: rgb(157,116,59); fill-opacity: 1; stroke: rgb(0,0,0); stroke-width: 3" />
	<polygon points="281.10230568174,-389.432985300724 320.394543231382,-389.432985300704 339.651394276625,-428.321368609559 300.359156726992,-428.321368609584 " style="fill: rgb(157,116,59); fill-opacity: 1; stroke: rgb(0,0,0); stroke-width: 3" />
	<polygon points="241.132009980648,-320.616932433105 265.822794528973,-353.233310294002 225.385158059879,-359.418817805116 200.69437351155,-326.802439944231 " style="fill: rgb(157,116,59); fill-opacity: 1; stroke: rgb(0,0,0); stroke-width: 3" />
	<polygon points="365.423572120219,-314.850989385774 322.04350779536,-315.992342848386 305.115032078623,-278.751375402783 348.495096403474,-277.610021940179 " style="fill: rgb(157,116,59); fill-opacity: 1; stroke: rgb(0,0,0); stroke-width: 3" />
	<polygon points="413.327797262646,-384.457650775784 391.843686331381,-351.55912635367 434.933285133838,-346.41917075087 456.417396065113,-379.317695172976 " style="fill: rgb(157,116,59); fill-opacity: 1; stroke: rgb(0,0,0); stroke-width: 3" />
	<polygon points="365.423572120219,-314.850989385774 348.495096403474,-277.610021940179 369.979207334714,-244.711497518057 396.399321545866,-210.286067475358 413.32779726261,-247.52703492095 391.84368633137,-280.425559343074 " style="fill: rgb(186,145,77); fill-opacity: 1; stroke: rgb(0,0,0); stroke-width: 3" />
	<polygon points="258.060485697365,-283.37596498749 241.132009980648,-320.616932433105 200.322893666147,-323.45928568459 217.251369382864,-286.218318238977 " style="fill: rgb(157,116,59); fill-opacity: 1; stroke: rgb(0,0,0); stroke-width: 3" />
	<polygon points="281.10230568174,-389.432985300724 300.359156726992,-428.321368609584 273.673171624744,-459.326547943033 254.416320579491,-420.438164634179 " style="fill: rgb(157,116,59); fill-opacity: 1; stroke: rgb(0,0,0); stroke-width: 3" />
	<polygon points="456.70786158747,-246.385681458326 439.779385870717,-209.144714012742 479.071623420375,-209.144714012712 496.000099137123,-246.385681458292 " style="fill: rgb(157,116,59); fill-opacity: 1; stroke: rgb(0,0,0); stroke-width: 3" />
	<polygon points="391.843686331381,-351.55912635367 365.423572120212,-317.133696310985 408.440129868004,-311.414568048211 434.86024407917,-345.839998090884 " style="fill: rgb(157,116,59); fill-opacity: 1; stroke: rgb(0,0,0); stroke-width: 3" />
	<polygon points="281.102305681719,-242.551700396069 253.375402026073,-212.473772275136 271.296061295788,-172.951846210056 299.022964951433,-203.029774330982 " style="fill: rgb(157,116,59); fill-opacity: 1; stroke: rgb(0,0,0); stroke-width: 3" />
	<polygon points="265.822794528973,-353.233310294002 281.10230568174,-389.432985300724 253.375402026118,-419.510913421666 238.095890873351,-383.311238414947 " style="fill: rgb(157,116,59); fill-opacity: 1; stroke: rgb(0,0,0); stroke-width: 3" />
	<polygon points="391.84368633137,-280.425559343074 413.32779726261,-247.52703492095 456.417396065066,-252.666990523722 434.933285133828,-285.565514945845 " style="fill: rgb(157,116,59); fill-opacity: 1; stroke: rgb(0,0,0); stroke-width: 3" />
	<polygon points="305.115032078623,-278.751375402783 265.822794528969,-278.751375402784 281.102305681719,-242.551700396069 320.394543231367,-242.55170039606 " style="fill: rgb(157,116,59); fill-opacity: 1; stroke: rgb(0,0,0); stroke-width: 3" />
	<polygon points="161.58600171702,-323.005706184688 142.88008479758,-357.559556966646 99.513746913801,-355.980504369282 118.219663833233,-321.426653587329 " style="fill: rgb(157,116,59); fill-opacity: 1; stroke: rgb(0,0,0); stroke-width: 3" />
	<polygon points="439.779385870792,-422.839971683964 479.071623420449,-422.83997168394 496.000099137188,-460.080939129545 456.707861587528,-460.080939129567 " style="fill: rgb(157,116,59); fill-opacity: 1; stroke: rgb(0,0,0); stroke-width: 3" />
	<polygon points="364.999136614033,-390.032714578066 385.655186275321,-428.196313477347 342.275121950468,-427.054960014754 321.619072289178,-388.891361115473 " style="fill: rgb(157,116,59); fill-opacity: 1; stroke: rgb(0,0,0); stroke-width: 3" />
	<polygon points="300.359156726992,-428.321368609584 339.651394276625,-428.321368609559 382.920971718771,-431.619297737529 360.996039963032,-466.155659935821 321.703802413396,-466.155659935841 278.434224971249,-462.85773080787 " style="fill: rgb(186,145,77); fill-opacity: 1; stroke: rgb(0,0,0); stroke-width: 3" />
	<polygon points="348.495096403474,-277.610021940179 305.115032078623,-278.751375402783 321.619072289157,-243.093324581297 364.999136614003,-241.95197111869 " style="fill: rgb(157,116,59); fill-opacity: 1; stroke: rgb(0,0,0); stroke-width: 3" />
	<polygon points="360.996039962725,-165.829025761208 321.703802413082,-165.829025761229 340.960653458326,-126.940642452366 380.252891007968,-126.940642452333 " style="fill: rgb(157,116,59); fill-opacity: 1; stroke: rgb(0,0,0); stroke-width: 3" />
	<polygon points="456.417396065113,-379.317695172976 434.933285133838,-346.41917075087 473.596967825417,-339.419201294917 495.081078756688,-372.317725717008 " style="fill: rgb(157,116,59); fill-opacity: 1; stroke: rgb(0,0,0); stroke-width: 3" />
	<polygon points="162.033666276999,-224.679570699961 145.1051905603,-261.920538145571 106.191907415099,-267.364463799018 62.8827169570135,-270.093326276407 79.8111926737116,-232.852358830799 118.724475818914,-227.408433177351 " style="fill: rgb(186,145,77); fill-opacity: 1; stroke: rgb(0,0,0); stroke-width: 3" />
	<polygon points="265.822794528969,-278.751375402784 238.095890873337,-248.673447281853 253.375402026073,-212.473772275136 281.102305681719,-242.551700396069 " style="fill: rgb(157,116,59); fill-opacity: 1; stroke: rgb(0,0,0); stroke-width: 3" />
	<polygon points="225.385158059879,-359.418817805116 206.679241140424,-393.972668587069 181.988456592096,-361.356290726196 200.69437351155,-326.802439944231 " style="fill: rgb(157,116,59); fill-opacity: 1; stroke: rgb(0,0,0); stroke-width: 3" />
	<polygon points="439.779385870792,-422.839971683964 456.7078615875,-385.599004238367 496.000099137162,-385.599004238348 479.071623420449,-422.83997168394 " style="fill: rgb(157,116,59); fill-opacity: 1; stroke: rgb(0,0,0); stroke-width: 3" />
	<polygon points="396.399321545929,-421.698618221386 439.779385870792,-422.839971683964 454.726135253794,-460.919593915 411.346070928936,-459.778240452425 " style="fill: rgb(157,116,59); fill-opacity: 1; stroke: rgb(0,0,0); stroke-width: 3" />
	<polygon points="396.399321545929,-421.698618221386 413.327797262646,-384.457650775784 456.7078615875,-385.599004238367 439.779385870792,-422.839971683964 " style="fill: rgb(157,116,59); fill-opacity: 1; stroke: rgb(0,0,0); stroke-width: 3" />
	<polygon points="217.251369382864,-286.218318238977 200.322893666147,-323.45928568459 174.487907517304,-293.854667424125 191.416383234016,-256.613699978516 " style="fill: rgb(157,116,59); fill-opacity: 1; stroke: rgb(0,0,0); stroke-width: 3" />
	<polygon points="206.679241140424,-393.972668587069 185.023512438747,-431.578015054749 160.33272789042,-398.961637193882 181.988456592096,-361.356290726196 " style="fill: rgb(157,116,59); fill-opacity: 1; stroke: rgb(0,0,0); stroke-width: 3" />
	<polygon points="320.394543231367,-242.55170039606 281.102305681719,-242.551700396069 300.35915672696,-203.663317087211 339.651394276608,-203.66331708719 " style="fill: rgb(157,116,59); fill-opacity: 1; stroke: rgb(0,0,0); stroke-width: 3" />
	<polygon points="200.69437351155,-326.802439944231 181.988456592096,-361.356290726196 142.88008479758,-357.559556966646 161.58600171702,-323.005706184688 " style="fill: rgb(157,116,59); fill-opacity: 1; stroke: rgb(0,0,0); stroke-width: 3" />
	<polygon points="364.999136614003,-241.95197111869 321.619072289157,-243.093324581297 342.275121950432,-204.929725682008 385.65518627527,-203.78837221939 " style="fill: rgb(157,116,59); fill-opacity: 1; stroke: rgb(0,0,0); stroke-width: 3" />
	<polygon points="297.166210310032,-502.001637023559 340.435787752177,-505.299566151528 355.145545488709,-541.734480162566 311.875968046569,-538.436551034593 " style="fill: rgb(157,116,59); fill-opacity: 1; stroke: rgb(0,0,0); stroke-width: 3" />
	<polygon points="413.32779726261,-247.52703492095 396.399321545866,-210.286067475358 439.779385870717,-209.144714012742 456.70786158747,-246.385681458326 " style="fill: rgb(157,116,59); fill-opacity: 1; stroke: rgb(0,0,0); stroke-width: 3" />
	<polygon points="181.988456592096,-361.356290726196 160.33272789042,-398.961637193882 121.117700486414,-396.499614171669 142.773429188087,-358.894267703984 " style="fill: rgb(157,116,59); fill-opacity: 1; stroke: rgb(0,0,0); stroke-width: 3" />
	<polygon points="382.920971718735,-200.365387959203 339.651394276608,-203.66331708719 300.35915672696,-203.663317087211 278.434224970953,-169.126954889217 321.703802413082,-165.829025761229 360.996039962725,-165.829025761208 " style="fill: rgb(186,145,77); fill-opacity: 1; stroke: rgb(0,0,0); stroke-width: 3" />
	<polygon points="278.434224971249,-462.85773080787 321.703802413396,-466.155659935841 340.435787752177,-505.299566151528 297.166210310032,-502.001637023559 " style="fill: rgb(157,116,59); fill-opacity: 1; stroke: rgb(0,0,0); stroke-width: 3" />
	<polygon points="439.779385870717,-209.144714012742 396.399321545866,-210.286067475358 411.346070928827,-172.206445244305 454.72613525367,-171.065091781682 " style="fill: rgb(157,116,59); fill-opacity: 1; stroke: rgb(0,0,0); stroke-width: 3" />
	<polygon points="321.703802413396,-466.155659935841 360.996039963032,-466.155659935821 380.252891008275,-505.044043244677 340.960653458642,-505.044043244696 " style="fill: rgb(157,116,59); fill-opacity: 1; stroke: rgb(0,0,0); stroke-width: 3" />
	<polygon points="439.779385870717,-209.144714012742 456.707861587454,-171.903746567137 496.00009913711,-171.903746567094 479.071623420375,-209.144714012712 " style="fill: rgb(157,116,59); fill-opacity: 1; stroke: rgb(0,0,0); stroke-width: 3" />
	<polygon points="185.023512438747,-431.578015054749 142.171698970294,-438.423068087429 103.012547088142,-441.654283884923 78.3217625398077,-409.037906024064 121.173576008267,-402.192852991377 160.33272789042,-398.961637193882 " style="fill: rgb(186,145,77); fill-opacity: 1; stroke: rgb(0,0,0); stroke-width: 3" />
	<polygon points="121.117700486414,-396.499614171669 77.7226240833151,-396.496075238152 99.3783527849884,-358.890728770467 142.773429188087,-358.894267703984 " style="fill: rgb(157,116,59); fill-opacity: 1; stroke: rgb(0,0,0); stroke-width: 3" />
	<polygon points="380.252891007968,-126.940642452333 340.960653458326,-126.940642452366 356.240164611079,-90.7409674456424 395.532402160711,-90.7409674456081 " style="fill: rgb(157,116,59); fill-opacity: 1; stroke: rgb(0,0,0); stroke-width: 3" />
	<polygon points="191.416383234016,-256.613699978516 174.487907517304,-293.854667424125 145.1051905603,-261.920538145571 162.033666276999,-224.679570699961 " style="fill: rgb(157,116,59); fill-opacity: 1; stroke: rgb(0,0,0); stroke-width: 3" />
	<polygon points="356.240164611403,-541.243718251406 395.53240216103,-541.24371825139 378.603926444297,-578.484685696995 339.311688894671,-578.484685697022 " style="fill: rgb(157,116,59); fill-opacity: 1; stroke: rgb(0,0,0); stroke-width: 3" />
	<polygon points="340.960653458642,-505.044043244696 380.252891008275,-505.044043244677 395.53240216103,-541.24371825139 356.240164611403,-541.243718251406 " style="fill: rgb(157,116,59); fill-opacity: 1; stroke: rgb(0,0,0); stroke-width: 3" />
	<polygon points="496.000099137123,-246.385681458292 479.071623420375,-209.144714012712 503.76240796868,-176.528336151792 520.690883685421,-213.769303597372 " style="fill: rgb(157,116,59); fill-opacity: 1; stroke: rgb(0,0,0); stroke-width: 3" />
	<polygon points="378.603926443973,-53.5 395.532402160711,-90.7409674456081 356.240164611079,-90.7409674456424 339.311688894346,-53.5000000000324 " style="fill: rgb(157,116,59); fill-opacity: 1; stroke: rgb(0,0,0); stroke-width: 3" />
	<polygon points="297.166210309714,-129.983048673513 311.875968046234,-93.5481346624763 355.145545488362,-90.2502055344928 340.435787751835,-126.685119545527 " style="fill: rgb(157,116,59); fill-opacity: 1; stroke: rgb(0,0,0); stroke-width: 3" />
	<polygon points="479.071623420449,-422.83997168394 496.000099137162,-385.599004238348 520.690883685493,-418.215382099241 503.76240796879,-455.456349544831 " style="fill: rgb(157,116,59); fill-opacity: 1; stroke: rgb(0,0,0); stroke-width: 3" />
	<polygon points="503.76240796879,-455.456349544831 520.690883685493,-418.215382099241 561.5,-415.373028847757 544.571524283292,-452.613996293341 " style="fill: rgb(157,116,59); fill-opacity: 1; stroke: rgb(0,0,0); stroke-width: 3" />
	<polygon points="103.012547088142,-441.654283884923 81.3568183864752,-479.259630352612 56.6660338381427,-446.643252491762 78.3217625398077,-409.037906024064 " style="fill: rgb(157,116,59); fill-opacity: 1; stroke: rgb(0,0,0); stroke-width: 3" />
	<polygon points="321.703802413082,-165.829025761229 278.434224970953,-169.126954889217 297.166210309714,-129.983048673513 340.435787751835,-126.685119545527 " style="fill: rgb(157,116,59); fill-opacity: 1; stroke: rgb(0,0,0); stroke-width: 3" />
	<polygon points="79.8111926737116,-232.852358830799 62.8827169570135,-270.093326276407 33.5,-238.159196997861 50.428475716687,-200.918229552252 " style="fill: rgb(157,116,59); fill-opacity: 1; stroke: rgb(0,0,0); stroke-width: 3" />
	<circle cx="282.751270245704" cy="-315.992342848386" r="2" style="fill: rgb(0,0,0)" />
	<circle cx="322.04350779536" cy="-315.992342848386" r="2" style="fill: rgb(0,0,0)" />
	<circle cx="305.115032078626" cy="-353.23331029399" r="2" style="fill: rgb(0,0,0)" />
	<circle cx="265.822794528973" cy="-353.233310294002" r="2" style="fill: rgb(0,0,0)" />
	<circle cx="265.822794528969" cy="-278.751375402784" r="2" style="fill: rgb(0,0,0)" />
	<circle cx="305.115032078623" cy="-278.751375402783" r="2" style="fill: rgb(0,0,0)" />
	<circle cx="365.423572120212" cy="-317.133696310985" r="2" style="fill: rgb(0,0,0)" />
	<circle cx="348.495096403483" cy="-354.374663756585" r="2" style="fill: rgb(0,0,0)" />
	<circle cx="241.132009980648" cy="-320.616932433105" r="2" style="fill: rgb(0,0,0)" />
	<circle cx="258.060485697365" cy="-283.37596498749" r="2" style="fill: rgb(0,0,0)" />
	<circle cx="320.394543231382" cy="-389.432985300704" r="2" style="fill: rgb(0,0,0)" />
	<circle cx="281.10230568174" cy="-389.432985300724" r="2" style="fill: rgb(0,0,0)" />
	<circle cx="348.495096403474" cy="-277.610021940179" r="2" style="fill: rgb(0,0,0)" />
	<circle cx="365.423572120219" cy="-314.850989385774" r="2" style="fill: rgb(0,0,0)" />
	<circle cx="281.102305681719" cy="-242.551700396069" r="2" style="fill: rgb(0,0,0)" />
	<circle cx="320.394543231367" cy="-242.55170039606" r="2" style="fill: rgb(0,0,0)" />
	<circle cx="391.843686331381" cy="-351.55912635367" r="2" style="fill: rgb(0,0,0)" />
	<circle cx="413.327797262646" cy="-384.457650775784" r="2" style="fill: rgb(0,0,0)" />
	<circle cx="396.399321545929" cy="-421.698618221386" r="2" style="fill: rgb(0,0,0)" />
	<circle cx="369.979207334751" cy="-387.273188178699" r="2" style="fill: rgb(0,0,0)" />
	<circle cx="364.999136614033" cy="-390.032714578066" r="2" style="fill: rgb(0,0,0)" />
	<circle cx="321.619072289178" cy="-388.891361115473" r="2" style="fill: rgb(0,0,0)" />
	<circle cx="225.385158059879" cy="-359.418817805116" r="2" style="fill: rgb(0,0,0)" />
	<circle cx="200.69437351155" cy="-326.802439944231" r="2" style="fill: rgb(0,0,0)" />
	<circle cx="200.322893666147" cy="-323.45928568459" r="2" style="fill: rgb(0,0,0)" />
	<circle cx="217.251369382864" cy="-286.218318238977" r="2" style="fill: rgb(0,0,0)" />
	<circle cx="339.651394276625" cy="-428.321368609559" r="2" style="fill: rgb(0,0,0)" />
	<circle cx="300.359156726992" cy="-428.321368609584" r="2" style="fill: rgb(0,0,0)" />
	<circle cx="253.375402026118" cy="-419.510913421666" r="2" style="fill: rgb(0,0,0)" />
	<circle cx="238.095890873351" cy="-383.311238414947" r="2" style="fill: rgb(0,0,0)" />
	<circle cx="369.979207334714" cy="-244.711497518057" r="2" style="fill: rgb(0,0,0)" />
	<circle cx="396.399321545866" cy="-210.286067475358" r="2" style="fill: rgb(0,0,0)" />
	<circle cx="413.32779726261" cy="-247.52703492095" r="2" style="fill: rgb(0,0,0)" />
	<circle cx="391.84368633137" cy="-280.425559343074" r="2" style="fill: rgb(0,0,0)" />
	<circle cx="321.619072289157" cy="-243.093324581297" r="2" style="fill: rgb(0,0,0)" />
	<circle cx="364.999136614003" cy="-241.95197111869" r="2" style="fill: rgb(0,0,0)" />
	<circle cx="238.095890873337" cy="-248.673447281853" r="2" style="fill: rgb(0,0,0)" />
	<circle cx="253.375402026073" cy="-212.473772275136" r="2" style="fill: rgb(0,0,0)" />
	<circle cx="300.35915672696" cy="-203.663317087211" r="2" style="fill: rgb(0,0,0)" />
	<circle cx="339.651394276608" cy="-203.66331708719" r="2" style="fill: rgb(0,0,0)" />
	<circle cx="434.933285133838" cy="-346.41917075087" r="2" style="fill: rgb(0,0,0)" />
	<circle cx="456.417396065113" cy="-379.317695172976" r="2" style="fill: rgb(0,0,0)" />
	<circle cx="408.440129868004" cy="-311.414568048211" r="2" style="fill: rgb(0,0,0)" />
	<circle cx="434.86024407917" cy="-345.839998090884" r="2" style="fill: rgb(0,0,0)" />
	<circle cx="456.7078615875" cy="-385.599004238367" r="2" style="fill: rgb(0,0,0)" />
	<circle cx="439.779385870792" cy="-422.839971683964" r="2" style="fill: rgb(0,0,0)" />
	<circle cx="385.655186275321" cy="-428.196313477347" r="2" style="fill: rgb(0,0,0)" />
	<circle cx="342.275121950468" cy="-427.054960014754" r="2" style="fill: rgb(0,0,0)" />
	<circle cx="206.679241140424" cy="-393.972668587069" r="2" style="fill: rgb(0,0,0)" />
	<circle cx="181.988456592096" cy="-361.356290726196" r="2" style="fill: rgb(0,0,0)" />
	<circle cx="174.487907517304" cy="-293.854667424125" r="2" style="fill: rgb(0,0,0)" />
	<circle cx="191.416383234016" cy="-256.613699978516" r="2" style="fill: rgb(0,0,0)" />
	<circle cx="273.673171624744" cy="-459.326547943033" r="2" style="fill: rgb(0,0,0)" />
	<circle cx="254.416320579491" cy="-420.438164634179" r="2" style="fill: rgb(0,0,0)" />
	<circle cx="382.920971718771" cy="-431.619297737529" r="2" style="fill: rgb(0,0,0)" />
	<circle cx="360.996039963032" cy="-466.155659935821" r="2" style="fill: rgb(0,0,0)" />
	<circle cx="321.703802413396" cy="-466.155659935841" r="2" style="fill: rgb(0,0,0)" />
	<circle cx="278.434224971249" cy="-462.85773080787" r="2" style="fill: rgb(0,0,0)" />
	<circle cx="456.417396065066" cy="-252.666990523722" r="2" style="fill: rgb(0,0,0)" />
	<circle cx="434.933285133828" cy="-285.565514945845" r="2" style="fill: rgb(0,0,0)" />
	<circle cx="439.779385870717" cy="-209.144714012742" r="2" style="fill: rgb(0,0,0)" />
	<circle cx="456.70786158747" cy="-246.385681458326" r="2" style="fill: rgb(0,0,0)" />
	<circle cx="342.275121950432" cy="-204.929725682008" r="2" style="fill: rgb(0,0,0)" />
	<circle cx="385.65518627527" cy="-203.78837221939" r="2" style="fill: rgb(0,0,0)" />
	<circle cx="271.296061295788" cy="-172.951846210056" r="2" style="fill: rgb(0,0,0)" />
	<circle cx="299.022964951433" cy="-203.029774330982" r="2" style="fill: rgb(0,0,0)" />
	<circle cx="278.434224970953" cy="-169.126954889217" r="2" style="fill: rgb(0,0,0)" />
	<circle cx="321.703802413082" cy="-165.829025761229" r="2" style="fill: rgb(0,0,0)" />
	<circle cx="360.996039962725" cy="-165.829025761208" r="2" style="fill: rgb(0,0,0)" />
	<circle cx="382.920971718735" cy="-200.365387959203" r="2" style="fill: rgb(0,0,0)" />
	<circle cx="473.596967825417" cy="-339.419201294917" r="2" style="fill: rgb(0,0,0)" />
	<circle cx="495.081078756688" cy="-372.317725717008" r="2" style="fill: rgb(0,0,0)" />
	<circle cx="496.000099137162" cy="-385.599004238348" r="2" style="fill: rgb(0,0,0)" />
	<circle cx="479.071623420449" cy="-422.83997168394" r="2" style="fill: rgb(0,0,0)" />
	<circle cx="454.726135253794" cy="-460.919593915" r="2" style="fill: rgb(0,0,0)" />
	<circle cx="411.346070928936" cy="-459.778240452425" r="2" style="fill: rgb(0,0,0)" />
	<circle cx="185.023512438747" cy="-431.578015054749" r="2" style="fill: rgb(0,0,0)" />
	<circle cx="160.33272789042" cy="-398.961637193882" r="2" style="fill: rgb(0,0,0)" />
	<circle cx="142.88008479758" cy="-357.559556966646" r="2" style="fill: rgb(0,0,0)" />
	<circle cx="161.58600171702" cy="-323.005706184688" r="2" style="fill: rgb(0,0,0)" />
	<circle cx="145.1051905603" cy="-261.920538145571" r="2" style="fill: rgb(0,0,0)" />
	<circle cx="162.033666276999" cy="-224.679570699961" r="2" style="fill: rgb(0,0,0)" />
	<circle cx="340.435787752177" cy="-505.299566151528" r="2" style="fill: rgb(0,0,0)" />
	<circle cx="297.166210310032" cy="-502.001637023559" r="2" style="fill: rgb(0,0,0)" />
	<circle cx="380.252891008275" cy="-505.044043244677" r="2" style="fill: rgb(0,0,0)" />
	<circle cx="340.960653458642" cy="-505.044043244696" r="2" style="fill: rgb(0,0,0)" />
	<circle cx="479.071623420375" cy="-209.144714012712" r="2" style="fill: rgb(0,0,0)" />
	<circle cx="496.000099137123" cy="-246.385681458292" r="2" style="fill: rgb(0,0,0)" />
	<circle cx="411.346070928827" cy="-172.206445244305" r="2" style="fill: rgb(0,0,0)" />
	<circle cx="454.72613525367" cy="-171.065091781682" r="2" style="fill: rgb(0,0,0)" />
	<circle cx="340.960653458326" cy="-126.940642452366" r="2" style="fill: rgb(0,0,0)" />
	<circle cx="380.252891007968" cy="-126.940642452333" r="2" style="fill: rgb(0,0,0)" />
	<circle cx="297.166210309714" cy="-129.983048673513" r="2" style="fill: rgb(0,0,0)" />
	<circle cx="340.435787751835" cy="-126.685119545527" r="2" style="fill: rgb(0,0,0)" />
	<circle cx="496.000099137188" cy="-460.080939129545" r="2" style="fill: rgb(0,0,0)" />
	<circle cx="456.707861587528" cy="-460.080939129567" r="2" style="fill: rgb(0,0,0)" />
	<circle cx="520.690883685493" cy="-418.215382099241" r="2" style="fill: rgb(0,0,0)" />
	<circle cx="503.76240796879" cy="-455.456349544831" r="2" style="fill: rgb(0,0,0)" />
	<circle cx="121.117700486414" cy="-396.499614171669" r="2" style="fill: rgb(0,0,0)" />
	<circle cx="142.773429188087" cy="-358.894267703984" r="2" style="fill: rgb(0,0,0)" />
	<circle cx="142.171698970294" cy="-438.423068087429" r="2" style="fill: rgb(0,0,0)" />
	<circle cx="103.012547088142" cy="-441.654283884923" r="2" style="fill: rgb(0,0,0)" />
	<circle cx="78.3217625398077" cy="-409.037906024064" r="2" style="fill: rgb(0,0,0)" />
	<circle cx="121.173576008267" cy="-402.192852991377" r="2" style="fill: rgb(0,0,0)" />
	<circle cx="99.513746913801" cy="-355.980504369282" r="2" style="fill: rgb(0,0,0)" />
	<circle cx="118.219663833233" cy="-321.426653587329" r="2" style="fill: rgb(0,0,0)" />
	<circle cx="106.191907415099" cy="-267.364463799018" r="2" style="fill: rgb(0,0,0)" />
	<circle cx="62.8827169570135" cy="-270.093326276407" r="2" style="fill: rgb(0,0,0)" />
	<circle cx="79.8111926737116" cy="-232.852358830799" r="2" style="fill: rgb(0,0,0)" />
	<circle cx="118.724475818914" cy="-227.408433177351" r="2" style="fill: rgb(0,0,0)" />
	<circle cx="355.145545488709" cy="-541.734480162566" r="2" style="fill: rgb(0,0,0)" />
	<circle cx="311.875968046569" cy="-538.436551034593" r="2" style="fill: rgb(0,0,0)" />
	<circle cx="395.53240216103" cy="-541.24371825139" r="2" style="fill: rgb(0,0,0)" />
	<circle cx="356.240164611403" cy="-541.243718251406" r="2" style="fill: rgb(0,0,0)" />
	<circle cx="456.707861587454" cy="-171.903746567137" r="2" style="fill: rgb(0,0,0)" />
	<circle cx="496.00009913711" cy="-171.903746567094" r="2" style="fill: rgb(0,0,0)" />
	<circle cx="503.76240796868" cy="-176.528336151792" r="2" style="fill: rgb(0,0,0)" />
	<circle cx="520.690883685421" cy="-213.769303597372" r="2" style="fill: rgb(0,0,0)" />
	<circle cx="356.240164611079" cy="-90.7409674456424" r="2" style="fill: rgb(0,0,0)" />
	<circle cx="395.532402160711" cy="-90.7409674456081" r="2" style="fill: rgb(0,0,0)" />
	<circle cx="311.875968046234" cy="-93.5481346624763" r="2" style="fill: rgb(0,0,0)" />
	<circle cx="355.145545488362" cy="-90.2502055344928" r="2" style="fill: rgb(0,0,0)" />
	<circle cx="561.5" cy="-415.373028847757" r="2" style="fill: rgb(0,0,0)" />
	<circle cx="544.571524283292" cy="-452.613996293341" r="2" style="fill: rgb(0,0,0)" />
	<circle cx="77.7226240833151" cy="-396.496075238152" r="2" style="fill: rgb(0,0,0)" />
	<circle cx="99.3783527849884" cy="-358.890728770467" r="2" style="fill: rgb(0,0,0)" />
	<circle cx="81.3568183864752" cy="-479.259630352612" r="2" style="fill: rgb(0,0,0)" />
	<circle cx="56.6660338381427" cy="-446.643252491762" r="2" style="fill: rgb(0,0,0)" />
	<circle cx="33.5" cy="-238.159196997861" r="2" style="fill: rgb(0,0,0)" />
	<circle cx="50.428475716687" cy="-200.918229552252" r="2" style="fill: rgb(0,0,0)" />
	<circle cx="378.603926444297" cy="-578.484685696995" r="2" style="fill: rgb(0,0,0)" />
	<circle cx="339.311688894671" cy="-578.484685697022" r="2" style="fill: rgb(0,0,0)" />
	<circle cx="339.311688894346" cy="-53.5000000000324" r="2" style="fill: rgb(0,0,0)" />
	<circle cx="378.603926443973" cy="-53.5" r="2" style="fill: rgb(0,0,0)" />
	<!--
	Generated using the Perl SVG Module V2.84
	by Ronan Oger
	Info: http://www.roitsystems.com/
	-->
</svg>