<?xml version="1.0" encoding="UTF-8" standalone="yes"?>
<!DOCTYPE svg PUBLIC "-//W3C//DTD SVG 1.0//EN" "http://www.w3.org/TR/2001/REC-SVG-20010904/DTD/svg10.dtd">
<!-- generated using polymake; Michael Joswig, Georg Loho, Benjamin Lorenz, Rico Raber; license CC BY-NC-ND 3.0; see polymake.org and matchthenet.de -->
<svg height="841pt" id="document" viewBox="0 -719.034330535645 572 719.034330535645" width="595pt" xmlns="http://www.w3.org/2000/svg" xmlns:svg="http://www.w3.org/2000/svg" xmlns:xlink="http://www.w3.org/1999/xlink">
	<title id="document_title">planar_net_</title>
	<polygon points="233.074007480917,-350.167556115971 329.71299625954,-350.167556115971 388.639767735159,-399.612148801967 361.925992519083,-449.056741487962 265.287003740458,-449.056741487961 206.360232264839,-399.612148801966 " style="fill: rgb(238,66,102); fill-opacity: 1; stroke: rgb(0,0,0); stroke-width: 3" />
	<polygon points="437.188419138237,-433.160223573013 463.902194354316,-383.71563088702 508.398007955506,-418.04515322782 481.684232739431,-467.489745913808 " style="fill: rgb(67,184,206); fill-opacity: 1; stroke: rgb(0,0,0); stroke-width: 3" />
	<polygon points="388.639767735154,-300.722963429978 329.71299625954,-350.167556115971 233.074007480917,-350.167556115971 206.360232264843,-300.722963429975 265.287003740458,-251.278370743981 361.92599251908,-251.278370743982 " style="fill: rgb(238,66,102); fill-opacity: 1; stroke: rgb(0,0,0); stroke-width: 3" />
	<polygon points="388.639767735159,-399.612148801967 329.71299625954,-350.167556115971 397.850342516405,-314.468337812253 456.777113992022,-363.91293049823 " style="fill: rgb(67,184,206); fill-opacity: 1; stroke: rgb(0,0,0); stroke-width: 3" />
	<polygon points="463.902194354315,-316.619481344929 437.188419138229,-267.174888658931 481.684232739425,-232.845366318121 508.3980079555,-282.289959004116 " style="fill: rgb(67,184,206); fill-opacity: 1; stroke: rgb(0,0,0); stroke-width: 3" />
	<polygon points="388.63976773516,-597.390519545954 463.902194354321,-581.494001631031 437.188419138232,-630.938594317009 361.925992519075,-646.835112231939 " style="fill: rgb(67,184,206); fill-opacity: 1; stroke: rgb(0,0,0); stroke-width: 3" />
	<polygon points="361.925992519083,-449.056741487962 388.639767735159,-399.612148801967 463.902194354316,-383.71563088702 437.188419138237,-433.160223573013 " style="fill: rgb(67,184,206); fill-opacity: 1; stroke: rgb(0,0,0); stroke-width: 3" />
	<polygon points="206.360232264839,-399.612148801966 265.287003740458,-449.056741487961 197.149657483596,-484.755959791682 138.222886007976,-435.311367105702 " style="fill: rgb(67,184,206); fill-opacity: 1; stroke: rgb(0,0,0); stroke-width: 3" />
	<polygon points="481.684232739431,-467.489745913808 508.398007955506,-418.04515322782 561.5,-436.445478580549 534.786224783925,-485.890071266533 " style="fill: rgb(67,184,206); fill-opacity: 1; stroke: rgb(0,0,0); stroke-width: 3" />
	<polygon points="463.902194354315,-316.619481344929 388.639767735154,-300.722963429978 361.92599251908,-251.278370743982 437.188419138229,-267.174888658931 " style="fill: rgb(67,184,206); fill-opacity: 1; stroke: rgb(0,0,0); stroke-width: 3" />
	<polygon points="197.451980845387,-540.954733201466 142.054653387367,-550.416743700748 83.1278819117536,-500.97215101475 138.525209369769,-491.510140515482 " style="fill: rgb(67,184,206); fill-opacity: 1; stroke: rgb(0,0,0); stroke-width: 3" />
	<polygon points="361.925992519083,-449.056741487962 437.188419138237,-433.160223573013 481.615328836015,-467.578870072909 406.352902216858,-483.475387987855 " style="fill: rgb(67,184,206); fill-opacity: 1; stroke: rgb(0,0,0); stroke-width: 3" />
	<polygon points="437.188419138229,-267.174888658931 361.92599251908,-251.278370743982 406.352902216865,-216.859724244091 481.615328836002,-232.756242159048 " style="fill: rgb(67,184,206); fill-opacity: 1; stroke: rgb(0,0,0); stroke-width: 3" />
	<polygon points="206.360232264819,-597.390519545922 265.287003740437,-646.835112231922 197.149657483574,-682.534330535645 138.222886007954,-633.089737849655 " style="fill: rgb(67,184,206); fill-opacity: 1; stroke: rgb(0,0,0); stroke-width: 3" />
	<polygon points="265.287003740458,-449.056741487961 361.925992519083,-449.056741487962 388.639767735164,-498.501334173963 329.712996259542,-547.945926859953 233.074007480907,-547.945926859943 206.360232264828,-498.501334173944 " style="fill: rgb(238,66,102); fill-opacity: 1; stroke: rgb(0,0,0); stroke-width: 3" />
	<polygon points="361.92599251908,-251.278370743982 265.287003740458,-251.278370743981 206.360232264843,-201.833778057983 233.074007480917,-152.389185371989 329.712996259537,-152.389185371994 388.639767735152,-201.833778057992 " style="fill: rgb(238,66,102); fill-opacity: 1; stroke: rgb(0,0,0); stroke-width: 3" />
	<polygon points="233.074007480907,-547.945926859943 329.712996259542,-547.945926859953 388.63976773516,-597.390519545954 361.925992519075,-646.835112231939 265.287003740437,-646.835112231922 206.360232264819,-597.390519545922 " style="fill: rgb(238,66,102); fill-opacity: 1; stroke: rgb(0,0,0); stroke-width: 3" />
	<polygon points="233.074007480917,-350.167556115971 157.811580861769,-334.271038201021 131.097805645683,-284.826445515024 206.360232264843,-300.722963429975 " style="fill: rgb(67,184,206); fill-opacity: 1; stroke: rgb(0,0,0); stroke-width: 3" />
	<polygon points="265.287003740458,-251.278370743981 206.360232264843,-300.722963429975 138.222886007975,-265.023745126264 197.149657483573,-215.579152440275 " style="fill: rgb(67,184,206); fill-opacity: 1; stroke: rgb(0,0,0); stroke-width: 3" />
	<polygon points="138.222886007976,-435.311367105702 138.525209369769,-491.510140515482 83.1090263384747,-500.861086479505 82.8067029766826,-444.662313069724 " style="fill: rgb(67,184,206); fill-opacity: 1; stroke: rgb(0,0,0); stroke-width: 3" />
	<polygon points="197.149657483596,-484.755959791682 197.451980845387,-540.954733201466 138.525209369769,-491.510140515482 138.222886007976,-435.311367105702 " style="fill: rgb(67,184,206); fill-opacity: 1; stroke: rgb(0,0,0); stroke-width: 3" />
	<polygon points="329.712996259542,-547.945926859953 388.639767735164,-498.501334173963 456.777113992028,-534.200552477679 397.850342516417,-583.64514516366 " style="fill: rgb(67,184,206); fill-opacity: 1; stroke: rgb(0,0,0); stroke-width: 3" />
	<polygon points="456.474790630229,-109.935786344479 456.777113992017,-166.134559754259 397.850342516404,-116.689967068274 397.548019154621,-60.4911936584875 " style="fill: rgb(67,184,206); fill-opacity: 1; stroke: rgb(0,0,0); stroke-width: 3" />
	<polygon points="388.639767735152,-201.833778057992 329.712996259537,-152.389185371994 397.850342516404,-116.689967068274 456.777113992017,-166.134559754259 " style="fill: rgb(67,184,206); fill-opacity: 1; stroke: rgb(0,0,0); stroke-width: 3" />
	<polygon points="233.074007480917,-350.167556115971 206.360232264839,-399.612148801966 131.097805645685,-415.508666716912 157.811580861763,-366.064074030917 " style="fill: rgb(67,184,206); fill-opacity: 1; stroke: rgb(0,0,0); stroke-width: 3" />
	<polygon points="157.811580861763,-366.064074030917 131.097805645685,-415.508666716912 86.6019920444944,-381.179144376113 113.315767260563,-331.734551690119 " style="fill: rgb(67,184,206); fill-opacity: 1; stroke: rgb(0,0,0); stroke-width: 3" />
	<polygon points="265.287003740455,-53.5 361.925992519074,-53.5000000000223 388.639767735148,-102.944592686026 329.712996259537,-152.389185371994 233.074007480917,-152.389185371989 206.360232264842,-102.944592685983 " style="fill: rgb(238,66,102); fill-opacity: 1; stroke: rgb(0,0,0); stroke-width: 3" />
	<polygon points="206.360232264843,-201.833778057983 131.09780564569,-217.730295972928 157.811580861764,-168.285703286939 233.074007480917,-152.389185371989 " style="fill: rgb(67,184,206); fill-opacity: 1; stroke: rgb(0,0,0); stroke-width: 3" />
	<polygon points="113.315767260563,-331.734551690119 86.6019920444944,-381.179144376113 33.5,-362.778819023394 60.2137752160657,-313.334226337402 " style="fill: rgb(67,184,206); fill-opacity: 1; stroke: rgb(0,0,0); stroke-width: 3" />
	<polygon points="206.360232264842,-102.944592685983 233.074007480917,-152.389185371989 157.81158086177,-136.492667457032 131.097805645684,-87.0480747710251 " style="fill: rgb(67,184,206); fill-opacity: 1; stroke: rgb(0,0,0); stroke-width: 3" />
	<circle cx="233.074007480917" cy="-350.167556115971" r="2" style="fill: rgb(0,0,0)" />
	<circle cx="329.71299625954" cy="-350.167556115971" r="2" style="fill: rgb(0,0,0)" />
	<circle cx="388.639767735159" cy="-399.612148801967" r="2" style="fill: rgb(0,0,0)" />
	<circle cx="361.925992519083" cy="-449.056741487962" r="2" style="fill: rgb(0,0,0)" />
	<circle cx="265.287003740458" cy="-449.056741487961" r="2" style="fill: rgb(0,0,0)" />
	<circle cx="206.360232264839" cy="-399.612148801966" r="2" style="fill: rgb(0,0,0)" />
	<circle cx="206.360232264843" cy="-300.722963429975" r="2" style="fill: rgb(0,0,0)" />
	<circle cx="265.287003740458" cy="-251.278370743981" r="2" style="fill: rgb(0,0,0)" />
	<circle cx="361.92599251908" cy="-251.278370743982" r="2" style="fill: rgb(0,0,0)" />
	<circle cx="388.639767735154" cy="-300.722963429978" r="2" style="fill: rgb(0,0,0)" />
	<circle cx="397.850342516405" cy="-314.468337812253" r="2" style="fill: rgb(0,0,0)" />
	<circle cx="456.777113992022" cy="-363.91293049823" r="2" style="fill: rgb(0,0,0)" />
	<circle cx="463.902194354316" cy="-383.71563088702" r="2" style="fill: rgb(0,0,0)" />
	<circle cx="437.188419138237" cy="-433.160223573013" r="2" style="fill: rgb(0,0,0)" />
	<circle cx="197.149657483596" cy="-484.755959791682" r="2" style="fill: rgb(0,0,0)" />
	<circle cx="138.222886007976" cy="-435.311367105702" r="2" style="fill: rgb(0,0,0)" />
	<circle cx="388.639767735164" cy="-498.501334173963" r="2" style="fill: rgb(0,0,0)" />
	<circle cx="329.712996259542" cy="-547.945926859953" r="2" style="fill: rgb(0,0,0)" />
	<circle cx="233.074007480907" cy="-547.945926859943" r="2" style="fill: rgb(0,0,0)" />
	<circle cx="206.360232264828" cy="-498.501334173944" r="2" style="fill: rgb(0,0,0)" />
	<circle cx="131.097805645685" cy="-415.508666716912" r="2" style="fill: rgb(0,0,0)" />
	<circle cx="157.811580861763" cy="-366.064074030917" r="2" style="fill: rgb(0,0,0)" />
	<circle cx="437.188419138229" cy="-267.174888658931" r="2" style="fill: rgb(0,0,0)" />
	<circle cx="463.902194354315" cy="-316.619481344929" r="2" style="fill: rgb(0,0,0)" />
	<circle cx="206.360232264843" cy="-201.833778057983" r="2" style="fill: rgb(0,0,0)" />
	<circle cx="233.074007480917" cy="-152.389185371989" r="2" style="fill: rgb(0,0,0)" />
	<circle cx="329.712996259537" cy="-152.389185371994" r="2" style="fill: rgb(0,0,0)" />
	<circle cx="388.639767735152" cy="-201.833778057992" r="2" style="fill: rgb(0,0,0)" />
	<circle cx="157.811580861769" cy="-334.271038201021" r="2" style="fill: rgb(0,0,0)" />
	<circle cx="131.097805645683" cy="-284.826445515024" r="2" style="fill: rgb(0,0,0)" />
	<circle cx="138.222886007975" cy="-265.023745126264" r="2" style="fill: rgb(0,0,0)" />
	<circle cx="197.149657483573" cy="-215.579152440275" r="2" style="fill: rgb(0,0,0)" />
	<circle cx="508.398007955506" cy="-418.04515322782" r="2" style="fill: rgb(0,0,0)" />
	<circle cx="481.684232739431" cy="-467.489745913808" r="2" style="fill: rgb(0,0,0)" />
	<circle cx="481.615328836015" cy="-467.578870072909" r="2" style="fill: rgb(0,0,0)" />
	<circle cx="406.352902216858" cy="-483.475387987855" r="2" style="fill: rgb(0,0,0)" />
	<circle cx="197.451980845387" cy="-540.954733201466" r="2" style="fill: rgb(0,0,0)" />
	<circle cx="138.525209369769" cy="-491.510140515482" r="2" style="fill: rgb(0,0,0)" />
	<circle cx="388.63976773516" cy="-597.390519545954" r="2" style="fill: rgb(0,0,0)" />
	<circle cx="361.925992519075" cy="-646.835112231939" r="2" style="fill: rgb(0,0,0)" />
	<circle cx="265.287003740437" cy="-646.835112231922" r="2" style="fill: rgb(0,0,0)" />
	<circle cx="206.360232264819" cy="-597.390519545922" r="2" style="fill: rgb(0,0,0)" />
	<circle cx="456.777113992028" cy="-534.200552477679" r="2" style="fill: rgb(0,0,0)" />
	<circle cx="397.850342516417" cy="-583.64514516366" r="2" style="fill: rgb(0,0,0)" />
	<circle cx="86.6019920444944" cy="-381.179144376113" r="2" style="fill: rgb(0,0,0)" />
	<circle cx="113.315767260563" cy="-331.734551690119" r="2" style="fill: rgb(0,0,0)" />
	<circle cx="481.684232739425" cy="-232.845366318121" r="2" style="fill: rgb(0,0,0)" />
	<circle cx="508.3980079555" cy="-282.289959004116" r="2" style="fill: rgb(0,0,0)" />
	<circle cx="406.352902216865" cy="-216.859724244091" r="2" style="fill: rgb(0,0,0)" />
	<circle cx="481.615328836002" cy="-232.756242159048" r="2" style="fill: rgb(0,0,0)" />
	<circle cx="397.850342516404" cy="-116.689967068274" r="2" style="fill: rgb(0,0,0)" />
	<circle cx="456.777113992017" cy="-166.134559754259" r="2" style="fill: rgb(0,0,0)" />
	<circle cx="206.360232264842" cy="-102.944592685983" r="2" style="fill: rgb(0,0,0)" />
	<circle cx="265.287003740455" cy="-53.5" r="2" style="fill: rgb(0,0,0)" />
	<circle cx="361.925992519074" cy="-53.5000000000223" r="2" style="fill: rgb(0,0,0)" />
	<circle cx="388.639767735148" cy="-102.944592686026" r="2" style="fill: rgb(0,0,0)" />
	<circle cx="131.09780564569" cy="-217.730295972928" r="2" style="fill: rgb(0,0,0)" />
	<circle cx="157.811580861764" cy="-168.285703286939" r="2" style="fill: rgb(0,0,0)" />
	<circle cx="561.5" cy="-436.445478580549" r="2" style="fill: rgb(0,0,0)" />
	<circle cx="534.786224783925" cy="-485.890071266533" r="2" style="fill: rgb(0,0,0)" />
	<circle cx="142.054653387367" cy="-550.416743700748" r="2" style="fill: rgb(0,0,0)" />
	<circle cx="83.1278819117536" cy="-500.97215101475" r="2" style="fill: rgb(0,0,0)" />
	<circle cx="83.1090263384747" cy="-500.861086479505" r="2" style="fill: rgb(0,0,0)" />
	<circle cx="82.8067029766826" cy="-444.662313069724" r="2" style="fill: rgb(0,0,0)" />
	<circle cx="463.902194354321" cy="-581.494001631031" r="2" style="fill: rgb(0,0,0)" />
	<circle cx="437.188419138232" cy="-630.938594317009" r="2" style="fill: rgb(0,0,0)" />
	<circle cx="197.149657483574" cy="-682.534330535645" r="2" style="fill: rgb(0,0,0)" />
	<circle cx="138.222886007954" cy="-633.089737849655" r="2" style="fill: rgb(0,0,0)" />
	<circle cx="33.5" cy="-362.778819023394" r="2" style="fill: rgb(0,0,0)" />
	<circle cx="60.2137752160657" cy="-313.334226337402" r="2" style="fill: rgb(0,0,0)" />
	<circle cx="397.548019154621" cy="-60.4911936584875" r="2" style="fill: rgb(0,0,0)" />
	<circle cx="456.474790630229" cy="-109.935786344479" r="2" style="fill: rgb(0,0,0)" />
	<circle cx="157.81158086177" cy="-136.492667457032" r="2" style="fill: rgb(0,0,0)" />
	<circle cx="131.097805645684" cy="-87.0480747710251" r="2" style="fill: rgb(0,0,0)" />
	<!--
	Generated using the Perl SVG Module V2.87
	by Ronan Oger

	-->
</svg>