<?xml version="1.0" encoding="UTF-8" standalone="yes"?>
<!DOCTYPE svg PUBLIC "-//W3C//DTD SVG 1.0//EN" "http://www.w3.org/TR/2001/REC-SVG-20010904/DTD/svg10.dtd">
<!-- generated using polymake; Michael Joswig, Georg Loho, Benjamin Lorenz, Rico Raber; license CC BY-NC-ND 3.0; see polymake.org and matchthenet.de -->
<svg height="841pt" id="document" viewBox="0 -657.010749390917 572 657.010749390917" width="595pt" xmlns="http://www.w3.org/2000/svg" xmlns:svg="http://www.w3.org/2000/svg" xmlns:xlink="http://www.w3.org/1999/xlink">
	<title id="document_title">planar_net_</title>
	<polygon points="285.238673835679,-277.958237204424 373.687397075235,-277.958237204424 370.285523104487,-366.34151557876 281.836799864938,-366.341515578768 " style="fill: rgb(14,173,105); fill-opacity: 1; stroke: rgb(0,0,0); stroke-width: 3" />
	<polygon points="387.294892958243,-209.920757789381 373.687397075235,-277.958237204424 285.238673835679,-277.958237204424 203.593698537627,-243.939497496902 217.201194420635,-175.902018081859 305.649917660191,-175.902018081859 " style="fill: rgb(14,173,105); fill-opacity: 1; stroke: rgb(0,0,0); stroke-width: 3" />
	<polygon points="370.285523104487,-366.34151557876 373.687397075235,-277.958237204424 442.197899512533,-266.977635893562 473.051276760432,-349.870613612461 469.649402789682,-438.253891986793 401.138900352383,-449.234493297658 " style="fill: rgb(14,173,105); fill-opacity: 1; stroke: rgb(0,0,0); stroke-width: 3" />
	<polygon points="281.836799864938,-366.341515578768 370.285523104487,-366.34151557876 373.687397075244,-454.724793953099 285.238673835699,-454.724793953107 " style="fill: rgb(14,173,105); fill-opacity: 1; stroke: rgb(0,0,0); stroke-width: 3" />
	<polygon points="203.593698537627,-243.939497496902 115.144975298066,-243.939497496902 33.5,-209.920757789385 47.1074958830012,-141.883278374347 135.556219122568,-141.883278374344 217.201194420635,-175.902018081859 " style="fill: rgb(14,173,105); fill-opacity: 1; stroke: rgb(0,0,0); stroke-width: 3" />
	<polygon points="418.148270206134,-127.027780070457 387.294892958243,-209.920757789381 305.649917660191,-175.902018081859 336.503294908087,-93.0090403629465 " style="fill: rgb(14,173,105); fill-opacity: 1; stroke: rgb(0,0,0); stroke-width: 3" />
	<polygon points="285.238673835679,-277.958237204424 281.836799864938,-366.341515578768 193.649759238512,-359.542801857682 197.051633209251,-271.159523483338 " style="fill: rgb(14,173,105); fill-opacity: 1; stroke: rgb(0,0,0); stroke-width: 3" />
	<polygon points="469.649402789682,-438.253891986793 473.051276760432,-349.870613612461 561.5,-349.87061361246 558.098126029259,-438.253891986784 " style="fill: rgb(14,173,105); fill-opacity: 1; stroke: rgb(0,0,0); stroke-width: 3" />
	<polygon points="305.649917660191,-175.902018081859 217.201194420635,-175.902018081859 220.603068391383,-87.5187397075205 309.051791630932,-87.5187397075148 " style="fill: rgb(14,173,105); fill-opacity: 1; stroke: rgb(0,0,0); stroke-width: 3" />
	<polygon points="281.836799864938,-366.341515578768 285.238673835699,-454.724793953107 197.051633209275,-461.523507674226 193.649759238507,-373.140229299884 " style="fill: rgb(14,173,105); fill-opacity: 1; stroke: rgb(0,0,0); stroke-width: 3" />
	<polygon points="401.138900352383,-449.234493297658 469.649402789682,-438.253891986793 500.502780037591,-521.1468697057 497.10090606686,-609.530148080047 428.590403629568,-620.510749390917 397.737026381653,-537.617771672004 " style="fill: rgb(14,173,105); fill-opacity: 1; stroke: rgb(0,0,0); stroke-width: 3" />
	<polygon points="50.5093698537459,-53.5000000000077 138.958093093308,-53.5 135.556219122568,-141.883278374344 47.1074958830012,-141.883278374347 " style="fill: rgb(14,173,105); fill-opacity: 1; stroke: rgb(0,0,0); stroke-width: 3" />
	<circle cx="285.238673835679" cy="-277.958237204424" r="2" style="fill: rgb(0,0,0)" />
	<circle cx="373.687397075235" cy="-277.958237204424" r="2" style="fill: rgb(0,0,0)" />
	<circle cx="370.285523104487" cy="-366.34151557876" r="2" style="fill: rgb(0,0,0)" />
	<circle cx="281.836799864938" cy="-366.341515578768" r="2" style="fill: rgb(0,0,0)" />
	<circle cx="203.593698537627" cy="-243.939497496902" r="2" style="fill: rgb(0,0,0)" />
	<circle cx="217.201194420635" cy="-175.902018081859" r="2" style="fill: rgb(0,0,0)" />
	<circle cx="305.649917660191" cy="-175.902018081859" r="2" style="fill: rgb(0,0,0)" />
	<circle cx="387.294892958243" cy="-209.920757789381" r="2" style="fill: rgb(0,0,0)" />
	<circle cx="442.197899512533" cy="-266.977635893562" r="2" style="fill: rgb(0,0,0)" />
	<circle cx="473.051276760432" cy="-349.870613612461" r="2" style="fill: rgb(0,0,0)" />
	<circle cx="469.649402789682" cy="-438.253891986793" r="2" style="fill: rgb(0,0,0)" />
	<circle cx="401.138900352383" cy="-449.234493297658" r="2" style="fill: rgb(0,0,0)" />
	<circle cx="373.687397075244" cy="-454.724793953099" r="2" style="fill: rgb(0,0,0)" />
	<circle cx="285.238673835699" cy="-454.724793953107" r="2" style="fill: rgb(0,0,0)" />
	<circle cx="193.649759238512" cy="-359.542801857682" r="2" style="fill: rgb(0,0,0)" />
	<circle cx="197.051633209251" cy="-271.159523483338" r="2" style="fill: rgb(0,0,0)" />
	<circle cx="115.144975298066" cy="-243.939497496902" r="2" style="fill: rgb(0,0,0)" />
	<circle cx="33.5" cy="-209.920757789385" r="2" style="fill: rgb(0,0,0)" />
	<circle cx="47.1074958830012" cy="-141.883278374347" r="2" style="fill: rgb(0,0,0)" />
	<circle cx="135.556219122568" cy="-141.883278374344" r="2" style="fill: rgb(0,0,0)" />
	<circle cx="336.503294908087" cy="-93.0090403629465" r="2" style="fill: rgb(0,0,0)" />
	<circle cx="418.148270206134" cy="-127.027780070457" r="2" style="fill: rgb(0,0,0)" />
	<circle cx="220.603068391383" cy="-87.5187397075205" r="2" style="fill: rgb(0,0,0)" />
	<circle cx="309.051791630932" cy="-87.5187397075148" r="2" style="fill: rgb(0,0,0)" />
	<circle cx="561.5" cy="-349.87061361246" r="2" style="fill: rgb(0,0,0)" />
	<circle cx="558.098126029259" cy="-438.253891986784" r="2" style="fill: rgb(0,0,0)" />
	<circle cx="500.502780037591" cy="-521.1468697057" r="2" style="fill: rgb(0,0,0)" />
	<circle cx="497.10090606686" cy="-609.530148080047" r="2" style="fill: rgb(0,0,0)" />
	<circle cx="428.590403629568" cy="-620.510749390917" r="2" style="fill: rgb(0,0,0)" />
	<circle cx="397.737026381653" cy="-537.617771672004" r="2" style="fill: rgb(0,0,0)" />
	<circle cx="197.051633209275" cy="-461.523507674226" r="2" style="fill: rgb(0,0,0)" />
	<circle cx="193.649759238507" cy="-373.140229299884" r="2" style="fill: rgb(0,0,0)" />
	<circle cx="50.5093698537459" cy="-53.5000000000077" r="2" style="fill: rgb(0,0,0)" />
	<circle cx="138.958093093308" cy="-53.5" r="2" style="fill: rgb(0,0,0)" />
	<!--
	Generated using the Perl SVG Module V2.87
	by Ronan Oger

	-->
</svg>