<?xml version="1.0" encoding="UTF-8" standalone="yes"?>
<!DOCTYPE svg PUBLIC "-//W3C//DTD SVG 1.0//EN" "http://www.w3.org/TR/2001/REC-SVG-20010904/DTD/svg10.dtd">
<!-- generated using polymake; Michael Joswig, Georg Loho, Benjamin Lorenz, Rico Raber; license CC BY-NC-ND 3.0; see polymake.org and matchthenet.de -->
<svg height="841pt" id="document" viewBox="0 -585.759554810846 572 585.759554810846" width="595pt" xmlns="http://www.w3.org/2000/svg" xmlns:svg="http://www.w3.org/2000/svg" xmlns:xlink="http://www.w3.org/1999/xlink">
	<title id="document_title">planar_net_</title>
	<polygon points="313.534886456067,-282.3666472507 345.60465936821,-282.3666472507 361.639545824283,-310.139885286214 329.569772912153,-365.686361357249 297.500000000013,-365.686361357251 281.465113543938,-337.913123321735 " style="fill: rgb(238,66,102); fill-opacity: 1; stroke: rgb(0,0,0); stroke-width: 3" />
	<polygon points="233.360454175716,-310.139885286234 249.395340631794,-337.913123321744 220.680700288892,-323.632375280611 204.645813832818,-295.859137245102 " style="fill: rgb(67,184,206); fill-opacity: 1; stroke: rgb(0,0,0); stroke-width: 3" />
	<polygon points="313.534886456067,-282.3666472507 302.844962152018,-252.130975387646 334.914735064154,-252.130975387642 345.60465936821,-282.3666472507 " style="fill: rgb(67,184,206); fill-opacity: 1; stroke: rgb(0,0,0); stroke-width: 3" />
	<polygon points="313.534886456067,-282.3666472507 281.465113543938,-337.913123321735 249.395340631794,-337.913123321744 233.360454175716,-310.139885286234 265.430227087846,-254.593409215197 297.49999999999,-254.593409215189 " style="fill: rgb(238,66,102); fill-opacity: 1; stroke: rgb(0,0,0); stroke-width: 3" />
	<polygon points="366.984507976271,-196.584499316598 334.914735064154,-252.130975387642 302.844962152018,-252.130975387646 286.810075695945,-224.357737352131 318.879848608062,-168.811261281087 350.949621520196,-168.811261281081 " style="fill: rgb(238,66,102); fill-opacity: 1; stroke: rgb(0,0,0); stroke-width: 3" />
	<polygon points="265.430227087846,-254.593409215197 233.360454175716,-310.139885286234 205.587216140193,-294.104998830173 237.656989052321,-238.558522759141 " style="fill: rgb(67,184,206); fill-opacity: 1; stroke: rgb(0,0,0); stroke-width: 3" />
	<polygon points="329.569772912153,-365.686361357249 361.639545824283,-310.139885286214 389.412783859805,-326.174771742276 357.343010947679,-381.721247813304 " style="fill: rgb(67,184,206); fill-opacity: 1; stroke: rgb(0,0,0); stroke-width: 3" />
	<polygon points="297.49999999999,-254.593409215189 265.430227087846,-254.593409215197 238.705416327727,-236.866175238284 270.775189239871,-236.866175238275 " style="fill: rgb(67,184,206); fill-opacity: 1; stroke: rgb(0,0,0); stroke-width: 3" />
	<polygon points="377.134481454132,-288.226737170388 345.60465936821,-282.3666472507 334.914735064154,-252.130975387642 376.594530627885,-203.379811500905 408.124352713807,-209.239901420594 418.814277017863,-239.475573283651 " style="fill: rgb(238,66,102); fill-opacity: 1; stroke: rgb(0,0,0); stroke-width: 3" />
	<polygon points="237.656989052321,-238.558522759141 205.587216140193,-294.104998830173 141.447670315906,-294.104998830188 109.377897403747,-238.558522759172 141.447670315877,-183.01204668814 205.587216140164,-183.012046688124 " style="fill: rgb(238,66,102); fill-opacity: 1; stroke: rgb(0,0,0); stroke-width: 3" />
	<polygon points="281.465113543938,-337.913123321735 297.500000000013,-365.686361357251 265.970177914093,-371.546451276949 249.935291458015,-343.773213241439 " style="fill: rgb(67,184,206); fill-opacity: 1; stroke: rgb(0,0,0); stroke-width: 3" />
	<polygon points="286.810075695945,-224.357737352131 259.036837660419,-208.322850896076 291.106610572533,-152.776374825039 318.879848608062,-168.811261281087 " style="fill: rgb(67,184,206); fill-opacity: 1; stroke: rgb(0,0,0); stroke-width: 3" />
	<polygon points="361.639545824283,-310.139885286214 345.60465936821,-282.3666472507 374.319299711109,-296.647395291838 390.354186167179,-324.420633327351 " style="fill: rgb(67,184,206); fill-opacity: 1; stroke: rgb(0,0,0); stroke-width: 3" />
	<polygon points="418.814277017863,-239.475573283651 408.124352713807,-209.239901420594 433.746019442859,-228.527216647497 444.435943746911,-258.762888510554 " style="fill: rgb(67,184,206); fill-opacity: 1; stroke: rgb(0,0,0); stroke-width: 3" />
	<polygon points="233.900405001962,-427.092927347987 244.590329306012,-457.328599211041 212.520556393875,-457.328599211054 201.830632089819,-427.092927347996 " style="fill: rgb(67,184,206); fill-opacity: 1; stroke: rgb(0,0,0); stroke-width: 3" />
	<polygon points="249.935291458015,-343.773213241439 265.970177914093,-371.546451276949 233.900405001962,-427.092927347987 201.830632089819,-427.092927347996 185.795745633741,-399.319689312487 217.865518545872,-343.773213241448 " style="fill: rgb(238,66,102); fill-opacity: 1; stroke: rgb(0,0,0); stroke-width: 3" />
	<polygon points="297.500000000013,-365.686361357251 329.569772912153,-365.686361357249 356.294583672273,-383.413595334163 324.224810760132,-383.413595334165 " style="fill: rgb(67,184,206); fill-opacity: 1; stroke: rgb(0,0,0); stroke-width: 3" />
	<polygon points="485.622102596252,-381.721247813275 453.552329684093,-326.174771742262 481.325567719602,-310.139885286178 513.395340631756,-365.686361357185 " style="fill: rgb(67,184,206); fill-opacity: 1; stroke: rgb(0,0,0); stroke-width: 3" />
	<polygon points="220.680700288892,-323.632375280611 165.134224217868,-355.702148192763 149.099337761791,-327.928910157256 204.645813832818,-295.859137245102 " style="fill: rgb(67,184,206); fill-opacity: 1; stroke: rgb(0,0,0); stroke-width: 3" />
	<polygon points="350.949621520196,-168.811261281081 318.879848608062,-168.811261281087 292.155037847943,-151.084027304173 324.224810760077,-151.084027304168 " style="fill: rgb(67,184,206); fill-opacity: 1; stroke: rgb(0,0,0); stroke-width: 3" />
	<polygon points="390.354186167179,-324.420633327351 374.319299711109,-296.647395291838 429.865775782139,-264.577622379697 445.900662238212,-292.350860415207 " style="fill: rgb(67,184,206); fill-opacity: 1; stroke: rgb(0,0,0); stroke-width: 3" />
	<polygon points="398.514330062194,-190.724409396894 366.984507976271,-196.584499316598 350.949621520196,-168.811261281081 382.479443606117,-162.951171361382 " style="fill: rgb(67,184,206); fill-opacity: 1; stroke: rgb(0,0,0); stroke-width: 3" />
	<polygon points="297.500000000013,-365.686361357251 318.339897781891,-390.061943300611 296.960049173817,-450.533287026728 265.430227087901,-456.393376946425 244.590329306021,-432.017795003065 265.970177914093,-371.546451276949 " style="fill: rgb(238,66,102); fill-opacity: 1; stroke: rgb(0,0,0); stroke-width: 3" />
	<polygon points="357.343010947679,-381.721247813304 389.412783859805,-326.174771742276 453.552329684093,-326.174771742262 485.622102596252,-381.721247813275 453.552329684125,-437.267723884303 389.412783859838,-437.267723884317 " style="fill: rgb(238,66,102); fill-opacity: 1; stroke: rgb(0,0,0); stroke-width: 3" />
	<polygon points="379.664261863093,-154.530513239942 350.949621520196,-168.811261281081 324.224810760077,-151.084027304168 328.204469925634,-87.0680632680609 356.919110268531,-72.7873152269202 383.64392102865,-90.5145492038338 " style="fill: rgb(238,66,102); fill-opacity: 1; stroke: rgb(0,0,0); stroke-width: 3" />
	<polygon points="398.514330062194,-190.724409396894 382.479443606117,-162.951171361382 414.549216518253,-107.404695290347 446.618989430397,-107.40469529034 462.653875886474,-135.177933325852 430.584102974337,-190.724409396889 " style="fill: rgb(238,66,102); fill-opacity: 1; stroke: rgb(0,0,0); stroke-width: 3" />
	<polygon points="389.412783859838,-437.267723884317 453.552329684125,-437.267723884303 453.55232968413,-469.337496796449 389.412783859844,-469.33749679646 " style="fill: rgb(67,184,206); fill-opacity: 1; stroke: rgb(0,0,0); stroke-width: 3" />
	<polygon points="292.155037847943,-151.084027304173 292.155037847943,-86.9444814798845 324.224810760073,-86.9444814798667 324.224810760077,-151.084027304168 " style="fill: rgb(67,184,206); fill-opacity: 1; stroke: rgb(0,0,0); stroke-width: 3" />
	<polygon points="141.447670315906,-294.104998830188 113.674432280396,-310.139885286272 81.6046593682434,-254.59340921526 109.377897403747,-238.558522759172 " style="fill: rgb(67,184,206); fill-opacity: 1; stroke: rgb(0,0,0); stroke-width: 3" />
	<polygon points="485.622102596252,-381.721247813275 513.395340631756,-365.686361357185 545.40332264981,-367.676190939942 517.630084614305,-383.711077396032 " style="fill: rgb(67,184,206); fill-opacity: 1; stroke: rgb(0,0,0); stroke-width: 3" />
	<polygon points="324.224810760132,-383.413595334165 356.294583672273,-383.413595334163 356.294583672273,-447.553141158452 324.224810760137,-447.553141158465 " style="fill: rgb(67,184,206); fill-opacity: 1; stroke: rgb(0,0,0); stroke-width: 3" />
	<polygon points="201.830632089819,-427.092927347996 212.520556393875,-457.328599211054 170.840760830142,-506.079763097794 139.31093874422,-500.219673178106 128.621014440164,-469.984001315047 170.300810003898,-421.232837428307 " style="fill: rgb(238,66,102); fill-opacity: 1; stroke: rgb(0,0,0); stroke-width: 3" />
	<polygon points="141.447670315877,-183.01204668814 109.377897403747,-238.558522759172 81.6046593682252,-222.523636303108 113.674432280356,-166.977160232081 " style="fill: rgb(67,184,206); fill-opacity: 1; stroke: rgb(0,0,0); stroke-width: 3" />
	<polygon points="185.795745633741,-399.319689312487 201.830632089819,-427.092927347996 173.115991746917,-412.812179306862 157.081105290845,-385.03894127135 " style="fill: rgb(67,184,206); fill-opacity: 1; stroke: rgb(0,0,0); stroke-width: 3" />
	<polygon points="81.6046593682434,-254.59340921526 49.5966773501898,-252.603579632501 77.3699153856942,-236.568693176413 109.377897403747,-238.558522759172 " style="fill: rgb(67,184,206); fill-opacity: 1; stroke: rgb(0,0,0); stroke-width: 3" />
	<polygon points="296.960049173817,-450.533287026728 326.474187495643,-463.078643687921 294.944365409727,-468.938733607618 265.430227087901,-456.393376946425 " style="fill: rgb(67,184,206); fill-opacity: 1; stroke: rgb(0,0,0); stroke-width: 3" />
	<polygon points="389.412783859844,-469.33749679646 453.55232968413,-469.337496796449 469.587216140204,-497.110734831967 453.552329684133,-524.883972867486 389.412783859842,-524.883972867489 373.377897403769,-497.110734831972 " style="fill: rgb(238,66,102); fill-opacity: 1; stroke: rgb(0,0,0); stroke-width: 3" />
	<polygon points="453.552329684125,-437.267723884303 471.279563661042,-463.992534644421 471.279563661042,-496.062307556559 453.55232968413,-469.337496796449 " style="fill: rgb(67,184,206); fill-opacity: 1; stroke: rgb(0,0,0); stroke-width: 3" />
	<polygon points="356.919110268531,-72.7873152269202 328.204469925634,-87.0680632680609 296.381622476876,-83.096071967779 325.096262819773,-68.8153239266389 " style="fill: rgb(67,184,206); fill-opacity: 1; stroke: rgb(0,0,0); stroke-width: 3" />
	<polygon points="453.552329684125,-437.267723884303 485.622102596252,-381.721247813275 513.395340631774,-397.75613426934 481.325567719646,-453.302610340361 " style="fill: rgb(67,184,206); fill-opacity: 1; stroke: rgb(0,0,0); stroke-width: 3" />
	<polygon points="383.64392102865,-90.5145492038338 356.919110268531,-72.7873152269202 382.540776997582,-53.5 409.265587757697,-71.2272339769143 " style="fill: rgb(67,184,206); fill-opacity: 1; stroke: rgb(0,0,0); stroke-width: 3" />
	<polygon points="33.5,-194.750398267604 65.5697729121402,-139.20392219658 97.639545824287,-139.203922196576 113.674432280356,-166.977160232081 81.6046593682252,-222.523636303108 49.5348864560765,-222.523636303112 " style="fill: rgb(238,66,102); fill-opacity: 1; stroke: rgb(0,0,0); stroke-width: 3" />
	<polygon points="481.325567719646,-453.302610340361 513.395340631774,-397.75613426934 545.465113543922,-397.756134269338 561.5,-425.529372304843 529.430227087864,-481.075848375858 497.360454175718,-481.075848375861 " style="fill: rgb(238,66,102); fill-opacity: 1; stroke: rgb(0,0,0); stroke-width: 3" />
	<polygon points="469.587216140204,-497.110734831967 490.427113922088,-521.486316775342 474.392227466019,-549.259554810846 453.552329684133,-524.883972867486 " style="fill: rgb(67,184,206); fill-opacity: 1; stroke: rgb(0,0,0); stroke-width: 3" />
	<circle cx="313.534886456067" cy="-282.3666472507" r="2" style="fill: rgb(0,0,0)" />
	<circle cx="345.60465936821" cy="-282.3666472507" r="2" style="fill: rgb(0,0,0)" />
	<circle cx="361.639545824283" cy="-310.139885286214" r="2" style="fill: rgb(0,0,0)" />
	<circle cx="329.569772912153" cy="-365.686361357249" r="2" style="fill: rgb(0,0,0)" />
	<circle cx="297.500000000013" cy="-365.686361357251" r="2" style="fill: rgb(0,0,0)" />
	<circle cx="281.465113543938" cy="-337.913123321735" r="2" style="fill: rgb(0,0,0)" />
	<circle cx="302.844962152018" cy="-252.130975387646" r="2" style="fill: rgb(0,0,0)" />
	<circle cx="334.914735064154" cy="-252.130975387642" r="2" style="fill: rgb(0,0,0)" />
	<circle cx="249.395340631794" cy="-337.913123321744" r="2" style="fill: rgb(0,0,0)" />
	<circle cx="233.360454175716" cy="-310.139885286234" r="2" style="fill: rgb(0,0,0)" />
	<circle cx="265.430227087846" cy="-254.593409215197" r="2" style="fill: rgb(0,0,0)" />
	<circle cx="297.49999999999" cy="-254.593409215189" r="2" style="fill: rgb(0,0,0)" />
	<circle cx="389.412783859805" cy="-326.174771742276" r="2" style="fill: rgb(0,0,0)" />
	<circle cx="357.343010947679" cy="-381.721247813304" r="2" style="fill: rgb(0,0,0)" />
	<circle cx="265.970177914093" cy="-371.546451276949" r="2" style="fill: rgb(0,0,0)" />
	<circle cx="249.935291458015" cy="-343.773213241439" r="2" style="fill: rgb(0,0,0)" />
	<circle cx="374.319299711109" cy="-296.647395291838" r="2" style="fill: rgb(0,0,0)" />
	<circle cx="390.354186167179" cy="-324.420633327351" r="2" style="fill: rgb(0,0,0)" />
	<circle cx="356.294583672273" cy="-383.413595334163" r="2" style="fill: rgb(0,0,0)" />
	<circle cx="324.224810760132" cy="-383.413595334165" r="2" style="fill: rgb(0,0,0)" />
	<circle cx="286.810075695945" cy="-224.357737352131" r="2" style="fill: rgb(0,0,0)" />
	<circle cx="318.879848608062" cy="-168.811261281087" r="2" style="fill: rgb(0,0,0)" />
	<circle cx="350.949621520196" cy="-168.811261281081" r="2" style="fill: rgb(0,0,0)" />
	<circle cx="366.984507976271" cy="-196.584499316598" r="2" style="fill: rgb(0,0,0)" />
	<circle cx="376.594530627885" cy="-203.379811500905" r="2" style="fill: rgb(0,0,0)" />
	<circle cx="408.124352713807" cy="-209.239901420594" r="2" style="fill: rgb(0,0,0)" />
	<circle cx="418.814277017863" cy="-239.475573283651" r="2" style="fill: rgb(0,0,0)" />
	<circle cx="377.134481454132" cy="-288.226737170388" r="2" style="fill: rgb(0,0,0)" />
	<circle cx="220.680700288892" cy="-323.632375280611" r="2" style="fill: rgb(0,0,0)" />
	<circle cx="204.645813832818" cy="-295.859137245102" r="2" style="fill: rgb(0,0,0)" />
	<circle cx="205.587216140193" cy="-294.104998830173" r="2" style="fill: rgb(0,0,0)" />
	<circle cx="237.656989052321" cy="-238.558522759141" r="2" style="fill: rgb(0,0,0)" />
	<circle cx="238.705416327727" cy="-236.866175238284" r="2" style="fill: rgb(0,0,0)" />
	<circle cx="270.775189239871" cy="-236.866175238275" r="2" style="fill: rgb(0,0,0)" />
	<circle cx="453.552329684093" cy="-326.174771742262" r="2" style="fill: rgb(0,0,0)" />
	<circle cx="485.622102596252" cy="-381.721247813275" r="2" style="fill: rgb(0,0,0)" />
	<circle cx="453.552329684125" cy="-437.267723884303" r="2" style="fill: rgb(0,0,0)" />
	<circle cx="389.412783859838" cy="-437.267723884317" r="2" style="fill: rgb(0,0,0)" />
	<circle cx="233.900405001962" cy="-427.092927347987" r="2" style="fill: rgb(0,0,0)" />
	<circle cx="201.830632089819" cy="-427.092927347996" r="2" style="fill: rgb(0,0,0)" />
	<circle cx="185.795745633741" cy="-399.319689312487" r="2" style="fill: rgb(0,0,0)" />
	<circle cx="217.865518545872" cy="-343.773213241448" r="2" style="fill: rgb(0,0,0)" />
	<circle cx="318.339897781891" cy="-390.061943300611" r="2" style="fill: rgb(0,0,0)" />
	<circle cx="296.960049173817" cy="-450.533287026728" r="2" style="fill: rgb(0,0,0)" />
	<circle cx="265.430227087901" cy="-456.393376946425" r="2" style="fill: rgb(0,0,0)" />
	<circle cx="244.590329306021" cy="-432.017795003065" r="2" style="fill: rgb(0,0,0)" />
	<circle cx="429.865775782139" cy="-264.577622379697" r="2" style="fill: rgb(0,0,0)" />
	<circle cx="445.900662238212" cy="-292.350860415207" r="2" style="fill: rgb(0,0,0)" />
	<circle cx="356.294583672273" cy="-447.553141158452" r="2" style="fill: rgb(0,0,0)" />
	<circle cx="324.224810760137" cy="-447.553141158465" r="2" style="fill: rgb(0,0,0)" />
	<circle cx="259.036837660419" cy="-208.322850896076" r="2" style="fill: rgb(0,0,0)" />
	<circle cx="291.106610572533" cy="-152.776374825039" r="2" style="fill: rgb(0,0,0)" />
	<circle cx="292.155037847943" cy="-151.084027304173" r="2" style="fill: rgb(0,0,0)" />
	<circle cx="324.224810760077" cy="-151.084027304168" r="2" style="fill: rgb(0,0,0)" />
	<circle cx="382.479443606117" cy="-162.951171361382" r="2" style="fill: rgb(0,0,0)" />
	<circle cx="398.514330062194" cy="-190.724409396894" r="2" style="fill: rgb(0,0,0)" />
	<circle cx="433.746019442859" cy="-228.527216647497" r="2" style="fill: rgb(0,0,0)" />
	<circle cx="444.435943746911" cy="-258.762888510554" r="2" style="fill: rgb(0,0,0)" />
	<circle cx="165.134224217868" cy="-355.702148192763" r="2" style="fill: rgb(0,0,0)" />
	<circle cx="149.099337761791" cy="-327.928910157256" r="2" style="fill: rgb(0,0,0)" />
	<circle cx="141.447670315906" cy="-294.104998830188" r="2" style="fill: rgb(0,0,0)" />
	<circle cx="109.377897403747" cy="-238.558522759172" r="2" style="fill: rgb(0,0,0)" />
	<circle cx="141.447670315877" cy="-183.01204668814" r="2" style="fill: rgb(0,0,0)" />
	<circle cx="205.587216140164" cy="-183.012046688124" r="2" style="fill: rgb(0,0,0)" />
	<circle cx="481.325567719602" cy="-310.139885286178" r="2" style="fill: rgb(0,0,0)" />
	<circle cx="513.395340631756" cy="-365.686361357185" r="2" style="fill: rgb(0,0,0)" />
	<circle cx="453.55232968413" cy="-469.337496796449" r="2" style="fill: rgb(0,0,0)" />
	<circle cx="389.412783859844" cy="-469.33749679646" r="2" style="fill: rgb(0,0,0)" />
	<circle cx="513.395340631774" cy="-397.75613426934" r="2" style="fill: rgb(0,0,0)" />
	<circle cx="481.325567719646" cy="-453.302610340361" r="2" style="fill: rgb(0,0,0)" />
	<circle cx="244.590329306012" cy="-457.328599211041" r="2" style="fill: rgb(0,0,0)" />
	<circle cx="212.520556393875" cy="-457.328599211054" r="2" style="fill: rgb(0,0,0)" />
	<circle cx="173.115991746917" cy="-412.812179306862" r="2" style="fill: rgb(0,0,0)" />
	<circle cx="157.081105290845" cy="-385.03894127135" r="2" style="fill: rgb(0,0,0)" />
	<circle cx="326.474187495643" cy="-463.078643687921" r="2" style="fill: rgb(0,0,0)" />
	<circle cx="294.944365409727" cy="-468.938733607618" r="2" style="fill: rgb(0,0,0)" />
	<circle cx="328.204469925634" cy="-87.0680632680609" r="2" style="fill: rgb(0,0,0)" />
	<circle cx="356.919110268531" cy="-72.7873152269202" r="2" style="fill: rgb(0,0,0)" />
	<circle cx="383.64392102865" cy="-90.5145492038338" r="2" style="fill: rgb(0,0,0)" />
	<circle cx="379.664261863093" cy="-154.530513239942" r="2" style="fill: rgb(0,0,0)" />
	<circle cx="292.155037847943" cy="-86.9444814798845" r="2" style="fill: rgb(0,0,0)" />
	<circle cx="324.224810760073" cy="-86.9444814798667" r="2" style="fill: rgb(0,0,0)" />
	<circle cx="414.549216518253" cy="-107.404695290347" r="2" style="fill: rgb(0,0,0)" />
	<circle cx="446.618989430397" cy="-107.40469529034" r="2" style="fill: rgb(0,0,0)" />
	<circle cx="462.653875886474" cy="-135.177933325852" r="2" style="fill: rgb(0,0,0)" />
	<circle cx="430.584102974337" cy="-190.724409396889" r="2" style="fill: rgb(0,0,0)" />
	<circle cx="113.674432280396" cy="-310.139885286272" r="2" style="fill: rgb(0,0,0)" />
	<circle cx="81.6046593682434" cy="-254.59340921526" r="2" style="fill: rgb(0,0,0)" />
	<circle cx="81.6046593682252" cy="-222.523636303108" r="2" style="fill: rgb(0,0,0)" />
	<circle cx="113.674432280356" cy="-166.977160232081" r="2" style="fill: rgb(0,0,0)" />
	<circle cx="545.40332264981" cy="-367.676190939942" r="2" style="fill: rgb(0,0,0)" />
	<circle cx="517.630084614305" cy="-383.711077396032" r="2" style="fill: rgb(0,0,0)" />
	<circle cx="469.587216140204" cy="-497.110734831967" r="2" style="fill: rgb(0,0,0)" />
	<circle cx="453.552329684133" cy="-524.883972867486" r="2" style="fill: rgb(0,0,0)" />
	<circle cx="389.412783859842" cy="-524.883972867489" r="2" style="fill: rgb(0,0,0)" />
	<circle cx="373.377897403769" cy="-497.110734831972" r="2" style="fill: rgb(0,0,0)" />
	<circle cx="471.279563661042" cy="-463.992534644421" r="2" style="fill: rgb(0,0,0)" />
	<circle cx="471.279563661042" cy="-496.062307556559" r="2" style="fill: rgb(0,0,0)" />
	<circle cx="545.465113543922" cy="-397.756134269338" r="2" style="fill: rgb(0,0,0)" />
	<circle cx="561.5" cy="-425.529372304843" r="2" style="fill: rgb(0,0,0)" />
	<circle cx="529.430227087864" cy="-481.075848375858" r="2" style="fill: rgb(0,0,0)" />
	<circle cx="497.360454175718" cy="-481.075848375861" r="2" style="fill: rgb(0,0,0)" />
	<circle cx="170.840760830142" cy="-506.079763097794" r="2" style="fill: rgb(0,0,0)" />
	<circle cx="139.31093874422" cy="-500.219673178106" r="2" style="fill: rgb(0,0,0)" />
	<circle cx="128.621014440164" cy="-469.984001315047" r="2" style="fill: rgb(0,0,0)" />
	<circle cx="170.300810003898" cy="-421.232837428307" r="2" style="fill: rgb(0,0,0)" />
	<circle cx="296.381622476876" cy="-83.096071967779" r="2" style="fill: rgb(0,0,0)" />
	<circle cx="325.096262819773" cy="-68.8153239266389" r="2" style="fill: rgb(0,0,0)" />
	<circle cx="382.540776997582" cy="-53.5" r="2" style="fill: rgb(0,0,0)" />
	<circle cx="409.265587757697" cy="-71.2272339769143" r="2" style="fill: rgb(0,0,0)" />
	<circle cx="49.5966773501898" cy="-252.603579632501" r="2" style="fill: rgb(0,0,0)" />
	<circle cx="77.3699153856942" cy="-236.568693176413" r="2" style="fill: rgb(0,0,0)" />
	<circle cx="49.5348864560765" cy="-222.523636303112" r="2" style="fill: rgb(0,0,0)" />
	<circle cx="33.5" cy="-194.750398267604" r="2" style="fill: rgb(0,0,0)" />
	<circle cx="65.5697729121402" cy="-139.20392219658" r="2" style="fill: rgb(0,0,0)" />
	<circle cx="97.639545824287" cy="-139.203922196576" r="2" style="fill: rgb(0,0,0)" />
	<circle cx="490.427113922088" cy="-521.486316775342" r="2" style="fill: rgb(0,0,0)" />
	<circle cx="474.392227466019" cy="-549.259554810846" r="2" style="fill: rgb(0,0,0)" />
	<!--
	Generated using the Perl SVG Module V2.87
	by Ronan Oger

	-->
</svg>