<?xml version="1.0" encoding="UTF-8" standalone="yes"?>
<!DOCTYPE svg PUBLIC "-//W3C//DTD SVG 1.0//EN" "http://www.w3.org/TR/2001/REC-SVG-20010904/DTD/svg10.dtd">
<!-- generated using polymake; Michael Joswig, Georg Loho, Benjamin Lorenz, Rico Raber; license CC BY-NC-ND 3.0; see polymake.org and matchthenet.de -->
<svg height="841pt" id="document" viewBox="0 -811 538.967207620719 811" width="595pt" xmlns="http://www.w3.org/2000/svg" xmlns:svg="http://www.w3.org/2000/svg" xmlns:xlink="http://www.w3.org/1999/xlink">
	<title id="document_title">planar_net_</title>
	<polygon points="258.703478515932,-414.000000000001 295.837020673316,-414.000000000001 303.263729104794,-486.099999999991 266.130186947412,-486.099999999996 " style="fill: rgb(67,184,206); fill-opacity: 1; stroke: rgb(0,0,0); stroke-width: 3" />
	<polygon points="303.263729104791,-341.900000000002 295.837020673316,-414.000000000001 258.703478515932,-414.000000000001 266.130186947409,-341.900000000011 " style="fill: rgb(67,184,206); fill-opacity: 1; stroke: rgb(0,0,0); stroke-width: 3" />
	<polygon points="303.263729104794,-486.099999999991 295.837020673316,-414.000000000001 334.17246265684,-352.486100058178 341.599171088317,-424.586100058169 " style="fill: rgb(67,184,206); fill-opacity: 1; stroke: rgb(0,0,0); stroke-width: 3" />
	<polygon points="83.5700057362203,-489.604872046201 90.9967141677031,-561.704872046189 40.9267084314791,-509.297234017944 33.5,-437.197234017958 " style="fill: rgb(67,184,206); fill-opacity: 1; stroke: rgb(0,0,0); stroke-width: 3" />
	<polygon points="341.599171088317,-424.586100058169 334.17246265684,-352.486100058178 404.920334034936,-368.243786867909 412.347042466419,-440.343786867894 " style="fill: rgb(67,184,206); fill-opacity: 1; stroke: rgb(0,0,0); stroke-width: 3" />
	<polygon points="220.368036532406,-352.48610005817 149.620165154312,-368.243786867901 157.046873585787,-296.143786867922 227.794744963884,-280.386100058187 " style="fill: rgb(67,184,206); fill-opacity: 1; stroke: rgb(0,0,0); stroke-width: 3" />
	<polygon points="258.703478515932,-414.000000000001 266.130186947412,-486.099999999996 227.79474496389,-547.61389994182 220.36803653241,-475.513899941824 " style="fill: rgb(67,184,206); fill-opacity: 1; stroke: rgb(0,0,0); stroke-width: 3" />
	<polygon points="303.263729104791,-341.900000000002 266.130186947409,-341.900000000011 258.703478515932,-269.800000000017 295.837020673312,-269.800000000004 " style="fill: rgb(67,184,206); fill-opacity: 1; stroke: rgb(0,0,0); stroke-width: 3" />
	<polygon points="373.744448932902,-503.012543588621 412.079890916421,-441.498643646801 458.311797699098,-497.321370142056 419.976355715581,-558.835270083873 " style="fill: rgb(67,184,206); fill-opacity: 1; stroke: rgb(0,0,0); stroke-width: 3" />
	<polygon points="266.130186947409,-341.900000000011 258.703478515932,-414.000000000001 220.368036532406,-352.48610005817 227.794744963884,-280.386100058187 " style="fill: rgb(67,184,206); fill-opacity: 1; stroke: rgb(0,0,0); stroke-width: 3" />
	<polygon points="266.130186947412,-486.099999999996 303.263729104794,-486.099999999991 295.837020673318,-558.199999999982 258.703478515937,-558.199999999996 " style="fill: rgb(67,184,206); fill-opacity: 1; stroke: rgb(0,0,0); stroke-width: 3" />
	<polygon points="295.837020673312,-269.800000000004 258.703478515932,-269.800000000017 266.130186947409,-197.700000000026 303.263729104787,-197.700000000004 " style="fill: rgb(67,184,206); fill-opacity: 1; stroke: rgb(0,0,0); stroke-width: 3" />
	<polygon points="412.347042466419,-440.343786867894 404.920334034936,-368.243786867909 470.970493453028,-338.395127953816 478.397201884503,-410.49512795379 " style="fill: rgb(67,184,206); fill-opacity: 1; stroke: rgb(0,0,0); stroke-width: 3" />
	<polygon points="258.703478515932,-414.000000000001 220.36803653241,-475.513899941824 149.887316704306,-458.601356353195 188.222758687824,-397.087456411373 " style="fill: rgb(67,184,206); fill-opacity: 1; stroke: rgb(0,0,0); stroke-width: 3" />
	<polygon points="258.703478515932,-269.800000000017 220.368036532406,-208.286100058185 227.794744963884,-136.186100058204 266.130186947409,-197.700000000026 " style="fill: rgb(67,184,206); fill-opacity: 1; stroke: rgb(0,0,0); stroke-width: 3" />
	<polygon points="341.599171088315,-280.386100058179 303.263729104791,-341.900000000002 295.837020673312,-269.800000000004 334.172462656836,-208.28610005818 " style="fill: rgb(67,184,206); fill-opacity: 1; stroke: rgb(0,0,0); stroke-width: 3" />
	<polygon points="303.263729104794,-486.099999999991 341.599171088317,-424.586100058169 412.079890916421,-441.498643646801 373.744448932902,-503.012543588621 " style="fill: rgb(67,184,206); fill-opacity: 1; stroke: rgb(0,0,0); stroke-width: 3" />
	<polygon points="258.703478515937,-558.199999999996 295.837020673318,-558.199999999982 303.263729104795,-630.299999999977 266.130186947417,-630.299999999995 " style="fill: rgb(67,184,206); fill-opacity: 1; stroke: rgb(0,0,0); stroke-width: 3" />
	<polygon points="220.36803653241,-475.513899941824 227.79474496389,-547.61389994182 157.046873585794,-531.856213132093 149.620165154308,-459.756213132101 " style="fill: rgb(67,184,206); fill-opacity: 1; stroke: rgb(0,0,0); stroke-width: 3" />
	<polygon points="295.837020673318,-558.199999999982 303.263729104794,-486.099999999991 341.599171088321,-547.613899941823 334.172462656843,-619.713899941804 " style="fill: rgb(67,184,206); fill-opacity: 1; stroke: rgb(0,0,0); stroke-width: 3" />
	<polygon points="303.263729104787,-197.700000000004 266.130186947409,-197.700000000026 258.703478515933,-125.600000000028 295.837020673309,-125.600000000002 " style="fill: rgb(67,184,206); fill-opacity: 1; stroke: rgb(0,0,0); stroke-width: 3" />
	<polygon points="258.703478515943,-702.399999999997 295.837020673319,-702.399999999969 303.263729104797,-774.49999999997 266.130186947423,-774.5 " style="fill: rgb(67,184,206); fill-opacity: 1; stroke: rgb(0,0,0); stroke-width: 3" />
	<polygon points="149.620165154308,-459.756213132101 157.046873585794,-531.856213132093 90.9967141677031,-561.704872046189 83.5700057362203,-489.604872046201 " style="fill: rgb(67,184,206); fill-opacity: 1; stroke: rgb(0,0,0); stroke-width: 3" />
	<polygon points="412.347042466419,-440.343786867894 478.397201884503,-410.49512795379 527.603472112605,-463.714569592765 461.553312694517,-493.56322850687 " style="fill: rgb(67,184,206); fill-opacity: 1; stroke: rgb(0,0,0); stroke-width: 3" />
	<polygon points="227.79474496389,-547.61389994182 162.241543348466,-578.538708042965 91.4936719703747,-562.781021233236 157.046873585794,-531.856213132093 " style="fill: rgb(67,184,206); fill-opacity: 1; stroke: rgb(0,0,0); stroke-width: 3" />
	<polygon points="149.620165154312,-368.243786867901 83.5700057362093,-338.395127953815 90.9967141676822,-266.295127953846 157.046873585787,-296.143786867922 " style="fill: rgb(67,184,206); fill-opacity: 1; stroke: rgb(0,0,0); stroke-width: 3" />
	<polygon points="303.263729104784,-53.5 295.837020673309,-125.600000000002 258.703478515933,-125.600000000028 266.130186947409,-53.5000000000355 " style="fill: rgb(67,184,206); fill-opacity: 1; stroke: rgb(0,0,0); stroke-width: 3" />
	<polygon points="266.130186947417,-630.299999999995 303.263729104795,-630.299999999977 295.837020673319,-702.399999999969 258.703478515943,-702.399999999997 " style="fill: rgb(67,184,206); fill-opacity: 1; stroke: rgb(0,0,0); stroke-width: 3" />
	<polygon points="478.397201884503,-410.49512795379 470.970493453028,-338.395127953816 521.040499189247,-390.802765982064 528.467207620719,-462.902765982036 " style="fill: rgb(67,184,206); fill-opacity: 1; stroke: rgb(0,0,0); stroke-width: 3" />
	<polygon points="419.976355715581,-558.835270083873 458.311797699098,-497.321370142056 526.310385596958,-472.226389727201 487.974943613437,-533.740289669015 " style="fill: rgb(67,184,206); fill-opacity: 1; stroke: rgb(0,0,0); stroke-width: 3" />
	<circle cx="258.703478515932" cy="-414.000000000001" r="2" style="fill: rgb(0,0,0)" />
	<circle cx="295.837020673316" cy="-414.000000000001" r="2" style="fill: rgb(0,0,0)" />
	<circle cx="303.263729104794" cy="-486.099999999991" r="2" style="fill: rgb(0,0,0)" />
	<circle cx="266.130186947412" cy="-486.099999999996" r="2" style="fill: rgb(0,0,0)" />
	<circle cx="266.130186947409" cy="-341.900000000011" r="2" style="fill: rgb(0,0,0)" />
	<circle cx="303.263729104791" cy="-341.900000000002" r="2" style="fill: rgb(0,0,0)" />
	<circle cx="334.17246265684" cy="-352.486100058178" r="2" style="fill: rgb(0,0,0)" />
	<circle cx="341.599171088317" cy="-424.586100058169" r="2" style="fill: rgb(0,0,0)" />
	<circle cx="227.79474496389" cy="-547.61389994182" r="2" style="fill: rgb(0,0,0)" />
	<circle cx="220.36803653241" cy="-475.513899941824" r="2" style="fill: rgb(0,0,0)" />
	<circle cx="295.837020673318" cy="-558.199999999982" r="2" style="fill: rgb(0,0,0)" />
	<circle cx="258.703478515937" cy="-558.199999999996" r="2" style="fill: rgb(0,0,0)" />
	<circle cx="258.703478515932" cy="-269.800000000017" r="2" style="fill: rgb(0,0,0)" />
	<circle cx="295.837020673312" cy="-269.800000000004" r="2" style="fill: rgb(0,0,0)" />
	<circle cx="220.368036532406" cy="-352.48610005817" r="2" style="fill: rgb(0,0,0)" />
	<circle cx="227.794744963884" cy="-280.386100058187" r="2" style="fill: rgb(0,0,0)" />
	<circle cx="404.920334034936" cy="-368.243786867909" r="2" style="fill: rgb(0,0,0)" />
	<circle cx="412.347042466419" cy="-440.343786867894" r="2" style="fill: rgb(0,0,0)" />
	<circle cx="412.079890916421" cy="-441.498643646801" r="2" style="fill: rgb(0,0,0)" />
	<circle cx="373.744448932902" cy="-503.012543588621" r="2" style="fill: rgb(0,0,0)" />
	<circle cx="149.887316704306" cy="-458.601356353195" r="2" style="fill: rgb(0,0,0)" />
	<circle cx="188.222758687824" cy="-397.087456411373" r="2" style="fill: rgb(0,0,0)" />
	<circle cx="157.046873585794" cy="-531.856213132093" r="2" style="fill: rgb(0,0,0)" />
	<circle cx="149.620165154308" cy="-459.756213132101" r="2" style="fill: rgb(0,0,0)" />
	<circle cx="303.263729104795" cy="-630.299999999977" r="2" style="fill: rgb(0,0,0)" />
	<circle cx="266.130186947417" cy="-630.299999999995" r="2" style="fill: rgb(0,0,0)" />
	<circle cx="341.599171088321" cy="-547.613899941823" r="2" style="fill: rgb(0,0,0)" />
	<circle cx="334.172462656843" cy="-619.713899941804" r="2" style="fill: rgb(0,0,0)" />
	<circle cx="266.130186947409" cy="-197.700000000026" r="2" style="fill: rgb(0,0,0)" />
	<circle cx="303.263729104787" cy="-197.700000000004" r="2" style="fill: rgb(0,0,0)" />
	<circle cx="334.172462656836" cy="-208.28610005818" r="2" style="fill: rgb(0,0,0)" />
	<circle cx="341.599171088315" cy="-280.386100058179" r="2" style="fill: rgb(0,0,0)" />
	<circle cx="149.620165154312" cy="-368.243786867901" r="2" style="fill: rgb(0,0,0)" />
	<circle cx="157.046873585787" cy="-296.143786867922" r="2" style="fill: rgb(0,0,0)" />
	<circle cx="470.970493453028" cy="-338.395127953816" r="2" style="fill: rgb(0,0,0)" />
	<circle cx="478.397201884503" cy="-410.49512795379" r="2" style="fill: rgb(0,0,0)" />
	<circle cx="458.311797699098" cy="-497.321370142056" r="2" style="fill: rgb(0,0,0)" />
	<circle cx="419.976355715581" cy="-558.835270083873" r="2" style="fill: rgb(0,0,0)" />
	<circle cx="90.9967141677031" cy="-561.704872046189" r="2" style="fill: rgb(0,0,0)" />
	<circle cx="83.5700057362203" cy="-489.604872046201" r="2" style="fill: rgb(0,0,0)" />
	<circle cx="162.241543348466" cy="-578.538708042965" r="2" style="fill: rgb(0,0,0)" />
	<circle cx="91.4936719703747" cy="-562.781021233236" r="2" style="fill: rgb(0,0,0)" />
	<circle cx="295.837020673319" cy="-702.399999999969" r="2" style="fill: rgb(0,0,0)" />
	<circle cx="258.703478515943" cy="-702.399999999997" r="2" style="fill: rgb(0,0,0)" />
	<circle cx="220.368036532406" cy="-208.286100058185" r="2" style="fill: rgb(0,0,0)" />
	<circle cx="227.794744963884" cy="-136.186100058204" r="2" style="fill: rgb(0,0,0)" />
	<circle cx="258.703478515933" cy="-125.600000000028" r="2" style="fill: rgb(0,0,0)" />
	<circle cx="295.837020673309" cy="-125.600000000002" r="2" style="fill: rgb(0,0,0)" />
	<circle cx="83.5700057362093" cy="-338.395127953815" r="2" style="fill: rgb(0,0,0)" />
	<circle cx="90.9967141676822" cy="-266.295127953846" r="2" style="fill: rgb(0,0,0)" />
	<circle cx="527.603472112605" cy="-463.714569592765" r="2" style="fill: rgb(0,0,0)" />
	<circle cx="461.553312694517" cy="-493.56322850687" r="2" style="fill: rgb(0,0,0)" />
	<circle cx="521.040499189247" cy="-390.802765982064" r="2" style="fill: rgb(0,0,0)" />
	<circle cx="528.467207620719" cy="-462.902765982036" r="2" style="fill: rgb(0,0,0)" />
	<circle cx="526.310385596958" cy="-472.226389727201" r="2" style="fill: rgb(0,0,0)" />
	<circle cx="487.974943613437" cy="-533.740289669015" r="2" style="fill: rgb(0,0,0)" />
	<circle cx="40.9267084314791" cy="-509.297234017944" r="2" style="fill: rgb(0,0,0)" />
	<circle cx="33.5" cy="-437.197234017958" r="2" style="fill: rgb(0,0,0)" />
	<circle cx="303.263729104797" cy="-774.49999999997" r="2" style="fill: rgb(0,0,0)" />
	<circle cx="266.130186947423" cy="-774.5" r="2" style="fill: rgb(0,0,0)" />
	<circle cx="266.130186947409" cy="-53.5000000000355" r="2" style="fill: rgb(0,0,0)" />
	<circle cx="303.263729104784" cy="-53.5" r="2" style="fill: rgb(0,0,0)" />
	<!--
	Generated using the Perl SVG Module V2.87
	by Ronan Oger

	-->
</svg>