<?xml version="1.0" encoding="UTF-8" standalone="yes"?>
<!DOCTYPE svg PUBLIC "-//W3C//DTD SVG 1.0//EN" "http://www.w3.org/TR/2001/REC-SVG-20010904/DTD/svg10.dtd">
<!-- generated using polymake; Michael Joswig, Georg Loho, Benjamin Lorenz, Rico Raber; license CC BY-NC-ND 3.0; see polymake.org and matchthenet.de -->
<svg height="841pt" id="document" viewBox="0 -610.053847833922 572 610.053847833922" width="595pt" xmlns="http://www.w3.org/2000/svg" xmlns:svg="http://www.w3.org/2000/svg" xmlns:xlink="http://www.w3.org/1999/xlink">
	<title id="document_title">planar_net_</title>
	<polygon points="286.828300717868,-313.601391853501 312.648652657358,-313.601391853501 298.898790445671,-329.751373914914 273.078438506183,-329.751373914914 " style="fill: rgb(157,116,59); fill-opacity: 1; stroke: rgb(0,0,0); stroke-width: 3" />
	<polygon points="286.828300717868,-313.601391853501 283.259634189645,-288.564340297205 309.079986129129,-288.564340297202 312.648652657358,-313.601391853501 " style="fill: rgb(157,116,59); fill-opacity: 1; stroke: rgb(0,0,0); stroke-width: 3" />
	<polygon points="286.828300717868,-313.601391853501 273.078438506183,-329.751373914914 268.664552162806,-304.849427429344 282.414414374492,-288.699445367942 " style="fill: rgb(157,116,59); fill-opacity: 1; stroke: rgb(0,0,0); stroke-width: 3" />
	<polygon points="272.205927440865,-270.107311925261 248.61519078221,-279.221393081597 227.578712497231,-276.510818826985 251.169449155886,-267.39673767065 " style="fill: rgb(157,116,59); fill-opacity: 1; stroke: rgb(0,0,0); stroke-width: 3" />
	<polygon points="475.21098799482,-324.635778581697 496.402278879616,-325.535679720885 507.26655722545,-343.75237776 486.075266340661,-342.852476620816 " style="fill: rgb(157,116,59); fill-opacity: 1; stroke: rgb(0,0,0); stroke-width: 3" />
	<polygon points="446.259252606939,-445.143365431503 460.009114818588,-428.993383370104 481.053759855593,-431.639804857891 467.303897643935,-447.789786919282 " style="fill: rgb(157,116,59); fill-opacity: 1; stroke: rgb(0,0,0); stroke-width: 3" />
	<polygon points="369.032613922567,-169.100560204263 340.235811287112,-169.305960773484 339.049527712868,-148.128771094357 367.846330348318,-147.923370525135 " style="fill: rgb(157,116,59); fill-opacity: 1; stroke: rgb(0,0,0); stroke-width: 3" />
	<polygon points="346.026180774491,-548.516796277621 371.846532713943,-548.516796277618 368.277866185725,-573.553847833921 342.457514246274,-573.553847833922 " style="fill: rgb(157,116,59); fill-opacity: 1; stroke: rgb(0,0,0); stroke-width: 3" />
	<polygon points="380.439413393456,-213.400719477314 384.59062331336,-188.45363973592 413.38742594884,-188.248239166677 409.236216028943,-213.195318908066 " style="fill: rgb(157,116,59); fill-opacity: 1; stroke: rgb(0,0,0); stroke-width: 3" />
	<polygon points="310.959301674484,-528.198954139261 336.966861484537,-540.564424779194 322.794689473591,-556.345114622019 296.787129663529,-543.979643982089 " style="fill: rgb(157,116,59); fill-opacity: 1; stroke: rgb(0,0,0); stroke-width: 3" />
	<polygon points="312.648652657327,-222.767894478252 286.828300717859,-222.767894478265 273.078438506179,-206.617912416851 298.898790445645,-206.617912416839 " style="fill: rgb(157,116,59); fill-opacity: 1; stroke: rgb(0,0,0); stroke-width: 3" />
	<polygon points="156.490761340955,-225.120392448858 136.163878673079,-231.178318862294 120.440689144976,-207.051998328835 140.767571812845,-200.994071915389 " style="fill: rgb(157,116,59); fill-opacity: 1; stroke: rgb(0,0,0); stroke-width: 3" />
	<polygon points="452.079927894463,-334.860424788598 475.21098799482,-324.635778581697 486.075266340661,-342.852476620816 462.944206240304,-353.077122827718 " style="fill: rgb(157,116,59); fill-opacity: 1; stroke: rgb(0,0,0); stroke-width: 3" />
	<polygon points="397.283630858034,-486.945160651294 416.596414422335,-470.61709516836 432.153459671865,-485.034410262667 412.840676107567,-501.362475745592 " style="fill: rgb(157,116,59); fill-opacity: 1; stroke: rgb(0,0,0); stroke-width: 3" />
	<polygon points="528.305132431638,-341.058127452818 537.58498561197,-321.985504235867 561.5,-330.211160333892 552.220146819668,-349.283783550842 " style="fill: rgb(157,116,59); fill-opacity: 1; stroke: rgb(0,0,0); stroke-width: 3" />
	<polygon points="405.128651856263,-521.121152659076 425.89479997957,-516.802851656944 437.31188150223,-534.678278391134 416.545733378922,-538.996579393261 " style="fill: rgb(157,116,59); fill-opacity: 1; stroke: rgb(0,0,0); stroke-width: 3" />
	<polygon points="419.738601671951,-168.011065491522 414.337363077285,-147.49991600965 440.150701668102,-148.1016842994 445.551940262771,-168.612833781276 " style="fill: rgb(157,116,59); fill-opacity: 1; stroke: rgb(0,0,0); stroke-width: 3" />
	<polygon points="478.16373298448,-123.080741006164 454.800660489948,-132.763518244018 451.816476002611,-107.650096048543 475.17954849714,-97.9673188106953 " style="fill: rgb(157,116,59); fill-opacity: 1; stroke: rgb(0,0,0); stroke-width: 3" />
	<polygon points="413.097311971997,-147.574764096383 384.300509336532,-147.780164665623 379.79385702616,-122.89483934374 408.590659661618,-122.689438774498 " style="fill: rgb(157,116,59); fill-opacity: 1; stroke: rgb(0,0,0); stroke-width: 3" />
	<polygon points="437.31188150223,-534.678278391134 457.044982127158,-550.495802569995 436.278834003852,-554.814103572121 416.545733378922,-538.996579393261 " style="fill: rgb(157,116,59); fill-opacity: 1; stroke: rgb(0,0,0); stroke-width: 3" />
	<polygon points="424.441435420561,-504.793087176153 445.20758354387,-500.474786174025 425.89479997957,-516.802851656944 405.128651856263,-521.121152659076 " style="fill: rgb(157,116,59); fill-opacity: 1; stroke: rgb(0,0,0); stroke-width: 3" />
	<polygon points="154.517434024491,-184.844089853988 140.767571812845,-200.994071915389 120.135944387622,-205.915106482524 133.885806599269,-189.765124421125 " style="fill: rgb(157,116,59); fill-opacity: 1; stroke: rgb(0,0,0); stroke-width: 3" />
	<polygon points="412.840676107567,-501.362475745592 432.153459671865,-485.034410262667 424.441435420561,-504.793087176153 405.128651856263,-521.121152659076 " style="fill: rgb(157,116,59); fill-opacity: 1; stroke: rgb(0,0,0); stroke-width: 3" />
	<polygon points="351.903984468022,-528.137099146299 377.724336407481,-528.137099146297 371.846532713943,-548.516796277618 346.026180774491,-548.516796277621 " style="fill: rgb(157,116,59); fill-opacity: 1; stroke: rgb(0,0,0); stroke-width: 3" />
	<polygon points="317.240326127078,-108.19860704988 288.481072340867,-109.682976639234 309.217983944305,-89.7010215654195 337.977237730508,-88.2166519760767 " style="fill: rgb(157,116,59); fill-opacity: 1; stroke: rgb(0,0,0); stroke-width: 3" />
	<polygon points="93.6970449357734,-356.540579593417 80.7238302652439,-378.865146227318 64.9905868961271,-402.984911659609 60.5767005527314,-378.082965174079 73.5499152232613,-355.758398540177 89.2831585923768,-331.638633107886 " style="fill: rgb(186,145,77); fill-opacity: 1; stroke: rgb(0,0,0); stroke-width: 3" />
	<polygon points="298.912946129221,-522.876053392388 296.787129663529,-543.979643982089 268.027875877266,-542.495274392748 270.153692342948,-521.391683803054 " style="fill: rgb(157,116,59); fill-opacity: 1; stroke: rgb(0,0,0); stroke-width: 3" />
	<polygon points="303.202182435581,-268.18464316588 277.381830496101,-268.184643165885 283.259634189638,-247.804946034564 309.07998612911,-247.804946034553 " style="fill: rgb(157,116,59); fill-opacity: 1; stroke: rgb(0,0,0); stroke-width: 3" />
	<polygon points="505.682132059949,-306.463056503934 504.64704425104,-281.194144286545 515.511322596858,-299.410842325657 516.546410405771,-324.679754543047 " style="fill: rgb(157,116,59); fill-opacity: 1; stroke: rgb(0,0,0); stroke-width: 3" />
	<polygon points="64.9905868961271,-402.984911659609 37.9138863433969,-412.790538544131 33.5,-387.88859205861 60.5767005527314,-378.082965174079 " style="fill: rgb(157,116,59); fill-opacity: 1; stroke: rgb(0,0,0); stroke-width: 3" />
	<polygon points="397.283630858034,-486.945160651294 412.840676107567,-501.362475745592 404.894035537201,-521.027966715047 389.336990287665,-506.610651620746 " style="fill: rgb(157,116,59); fill-opacity: 1; stroke: rgb(0,0,0); stroke-width: 3" />
	<polygon points="507.26655722545,-343.75237776 516.546410405771,-324.679754543047 537.58498561197,-321.985504235867 528.305132431638,-341.058127452818 " style="fill: rgb(157,116,59); fill-opacity: 1; stroke: rgb(0,0,0); stroke-width: 3" />
	<polygon points="184.492232101368,-230.501370144353 170.742369889699,-246.651352205743 156.490761340955,-225.120392448858 170.24062355261,-208.970410387462 " style="fill: rgb(157,116,59); fill-opacity: 1; stroke: rgb(0,0,0); stroke-width: 3" />
	<polygon points="289.020725001324,-166.940556236525 268.72756167234,-151.84827829297 289.614756940464,-132.023467947056 309.907920269451,-147.115745890607 " style="fill: rgb(157,116,59); fill-opacity: 1; stroke: rgb(0,0,0); stroke-width: 3" />
	<polygon points="337.977237730508,-88.2166519760767 309.217983944305,-89.7010215654195 327.004671352284,-70.9840686795985 355.763925138484,-69.4996990902635 " style="fill: rgb(157,116,59); fill-opacity: 1; stroke: rgb(0,0,0); stroke-width: 3" />
	<polygon points="364.499278096731,-145.630263122472 335.740024310518,-147.114632711825 309.919672371068,-147.114632711827 290.606888806572,-130.786567228948 319.366142592785,-129.302197639594 345.186494532235,-129.302197639593 " style="fill: rgb(186,145,77); fill-opacity: 1; stroke: rgb(0,0,0); stroke-width: 3" />
	<polygon points="409.236216028943,-213.195318908066 413.38742594884,-188.248239166677 439.200764539665,-188.850007456437 435.049554619771,-213.797087197824 " style="fill: rgb(157,116,59); fill-opacity: 1; stroke: rgb(0,0,0); stroke-width: 3" />
	<polygon points="384.59062331336,-188.45363973592 361.708835386052,-205.93854215687 349.668490075626,-188.476849334298 372.550278002929,-170.991946913349 " style="fill: rgb(157,116,59); fill-opacity: 1; stroke: rgb(0,0,0); stroke-width: 3" />
	<polygon points="346.026180774475,-507.75740201498 371.846532713937,-507.757402014978 377.724336407481,-528.137099146297 351.903984468022,-528.137099146299 " style="fill: rgb(157,116,59); fill-opacity: 1; stroke: rgb(0,0,0); stroke-width: 3" />
	<polygon points="496.417124217621,-324.211022269976 492.84845768938,-299.173970713714 500.225757451794,-279.287893180936 503.794423980032,-304.324944737197 " style="fill: rgb(157,116,59); fill-opacity: 1; stroke: rgb(0,0,0); stroke-width: 3" />
	<polygon points="425.157055465562,-431.204692351579 438.906917677212,-415.054710290178 460.009114818588,-428.993383370104 446.259252606939,-445.143365431503 " style="fill: rgb(157,116,59); fill-opacity: 1; stroke: rgb(0,0,0); stroke-width: 3" />
	<polygon points="292.624188623458,-486.830902176671 313.085118140177,-507.095363549545 298.912946129221,-522.876053392388 278.452016612503,-502.611592019516 " style="fill: rgb(157,116,59); fill-opacity: 1; stroke: rgb(0,0,0); stroke-width: 3" />
	<polygon points="471.64232146658,-299.598727025428 478.782419872334,-279.626255316085 499.988556095119,-279.201499004361 492.84845768938,-299.173970713714 " style="fill: rgb(157,116,59); fill-opacity: 1; stroke: rgb(0,0,0); stroke-width: 3" />
	<polygon points="170.24062355261,-208.970410387462 156.490761340955,-225.120392448858 140.767571812845,-200.994071915389 154.517434024491,-184.844089853988 " style="fill: rgb(157,116,59); fill-opacity: 1; stroke: rgb(0,0,0); stroke-width: 3" />
	<polygon points="183.958205362031,-469.946204200893 201.906498783378,-488.508244431941 185.339819957234,-501.75308433643 167.391526535889,-483.191044105389 " style="fill: rgb(157,116,59); fill-opacity: 1; stroke: rgb(0,0,0); stroke-width: 3" />
	<polygon points="97.323965786738,-188.339223468196 76.1771868796685,-173.523545416392 89.9270490912986,-157.373563354992 111.073827998373,-172.189241406794 " style="fill: rgb(157,116,59); fill-opacity: 1; stroke: rgb(0,0,0); stroke-width: 3" />
	<polygon points="475.21098799482,-324.635778581697 471.64232146658,-299.598727025428 492.84845768938,-299.173970713714 496.417124217621,-324.211022269976 " style="fill: rgb(157,116,59); fill-opacity: 1; stroke: rgb(0,0,0); stroke-width: 3" />
	<polygon points="337.734279135119,-168.231061839848 311.913927195665,-168.231061839849 309.919672371068,-147.114632711827 335.740024310518,-147.114632711825 " style="fill: rgb(157,116,59); fill-opacity: 1; stroke: rgb(0,0,0); stroke-width: 3" />
	<polygon points="414.337363077285,-147.49991600965 411.353178589951,-122.38649381418 437.166517180764,-122.988262103925 440.150701668102,-148.1016842994 " style="fill: rgb(157,116,59); fill-opacity: 1; stroke: rgb(0,0,0); stroke-width: 3" />
	<polygon points="342.457514245992,-53.6489358731567 368.277866185418,-53.6489358731589 382.0277283971,-69.7989179345724 356.20737645767,-69.7989179345752 " style="fill: rgb(157,116,59); fill-opacity: 1; stroke: rgb(0,0,0); stroke-width: 3" />
	<polygon points="446.699964819859,-304.673523985921 427.414008009714,-287.50545932518 427.882037553566,-266.300234031158 447.167994363707,-283.468298691898 " style="fill: rgb(157,116,59); fill-opacity: 1; stroke: rgb(0,0,0); stroke-width: 3" />
	<polygon points="364.079434975748,-88.3609581656486 338.259083036313,-88.3609581656519 356.20737645767,-69.7989179345752 382.0277283971,-69.7989179345724 " style="fill: rgb(157,116,59); fill-opacity: 1; stroke: rgb(0,0,0); stroke-width: 3" />
	<polygon points="413.38742594884,-188.248239166677 419.738601671951,-168.011065491522 445.551940262771,-168.612833781276 439.200764539665,-188.850007456437 " style="fill: rgb(157,116,59); fill-opacity: 1; stroke: rgb(0,0,0); stroke-width: 3" />
	<polygon points="471.250543135813,-361.152259026011 485.53905191831,-345.476827670012 506.482087674974,-348.833892566567 492.193578892467,-364.509323922562 " style="fill: rgb(157,116,59); fill-opacity: 1; stroke: rgb(0,0,0); stroke-width: 3" />
	<polygon points="384.59062331336,-188.45363973592 372.550278002929,-170.991946913349 373.137526357286,-149.789688288511 385.177871667716,-167.251381111083 " style="fill: rgb(157,116,59); fill-opacity: 1; stroke: rgb(0,0,0); stroke-width: 3" />
	<polygon points="496.402278879616,-325.535679720885 505.682132059949,-306.463056503934 516.546410405771,-324.679754543047 507.26655722545,-343.75237776 " style="fill: rgb(157,116,59); fill-opacity: 1; stroke: rgb(0,0,0); stroke-width: 3" />
	<polygon points="328.828011488907,-206.050027063886 300.031208853439,-206.255427633118 318.631757940909,-188.347045575431 347.428560576372,-188.141645006203 " style="fill: rgb(157,116,59); fill-opacity: 1; stroke: rgb(0,0,0); stroke-width: 3" />
	<polygon points="411.353178589951,-122.38649381418 425.475697012104,-106.56135227168 451.289035602915,-107.163120561424 437.166517180764,-122.988262103925 " style="fill: rgb(157,116,59); fill-opacity: 1; stroke: rgb(0,0,0); stroke-width: 3" />
	<polygon points="271.026179288303,-185.507041673866 250.54658886807,-170.668722778459 268.494882289423,-152.106682547382 288.974472709661,-166.945001442786 " style="fill: rgb(157,116,59); fill-opacity: 1; stroke: rgb(0,0,0); stroke-width: 3" />
	<polygon points="319.366142592785,-129.302197639594 290.606888806572,-130.786567228948 288.481072340867,-109.682976639234 317.240326127078,-108.19860704988 " style="fill: rgb(157,116,59); fill-opacity: 1; stroke: rgb(0,0,0); stroke-width: 3" />
	<polygon points="298.912946129221,-522.876053392388 313.085118140177,-507.095363549545 310.959301674484,-528.198954139261 296.787129663529,-543.979643982089 " style="fill: rgb(157,116,59); fill-opacity: 1; stroke: rgb(0,0,0); stroke-width: 3" />
	<polygon points="390.468427006873,-168.073942604589 384.300509336532,-147.780164665623 413.097311971997,-147.574764096383 419.265229642343,-167.868542035349 " style="fill: rgb(157,116,59); fill-opacity: 1; stroke: rgb(0,0,0); stroke-width: 3" />
	<polygon points="313.085118140177,-507.095363549545 341.619793106643,-510.977419187848 344.846263298154,-531.940971404196 316.31158833169,-528.058915765891 " style="fill: rgb(157,116,59); fill-opacity: 1; stroke: rgb(0,0,0); stroke-width: 3" />
	<polygon points="133.885806599269,-189.765124421125 120.135944387622,-205.915106482524 97.323965786738,-188.339223468196 111.073827998373,-172.189241406794 " style="fill: rgb(157,116,59); fill-opacity: 1; stroke: rgb(0,0,0); stroke-width: 3" />
	<polygon points="313.080223052794,-54.9843695893349 341.83947683899,-53.5 355.763925138484,-69.4996990902635 327.004671352284,-70.9840686795985 " style="fill: rgb(157,116,59); fill-opacity: 1; stroke: rgb(0,0,0); stroke-width: 3" />
	<polygon points="327.004671352491,-465.385217652244 355.763925138745,-466.869587241598 341.839476839239,-482.869286331853 313.080223052983,-481.384916742497 " style="fill: rgb(157,116,59); fill-opacity: 1; stroke: rgb(0,0,0); stroke-width: 3" />
	<polygon points="413.38742594884,-188.248239166677 384.59062331336,-188.45363973592 390.468427006873,-168.073942604589 419.265229642343,-167.868542035349 " style="fill: rgb(157,116,59); fill-opacity: 1; stroke: rgb(0,0,0); stroke-width: 3" />
	<polygon points="343.192239707627,-108.185768511562 317.371887768186,-108.18576851157 338.259083036313,-88.3609581656519 364.079434975748,-88.3609581656486 " style="fill: rgb(157,116,59); fill-opacity: 1; stroke: rgb(0,0,0); stroke-width: 3" />
	<polygon points="440.150701668102,-148.1016842994 437.166517180764,-122.988262103925 451.816476002611,-107.650096048543 454.800660489948,-132.763518244018 " style="fill: rgb(157,116,59); fill-opacity: 1; stroke: rgb(0,0,0); stroke-width: 3" />
	<polygon points="386.804794647993,-463.928138187352 397.283630858034,-486.945160651294 387.990992578144,-506.011557930888 377.512156368102,-482.994535466946 " style="fill: rgb(157,116,59); fill-opacity: 1; stroke: rgb(0,0,0); stroke-width: 3" />
	<polygon points="452.079927894463,-334.860424788598 448.511261366226,-309.823373232322 471.64232146658,-299.598727025428 475.21098799482,-324.635778581697 " style="fill: rgb(157,116,59); fill-opacity: 1; stroke: rgb(0,0,0); stroke-width: 3" />
	<polygon points="205.731091335695,-438.179933395181 226.618286603816,-458.004743741088 227.964940274505,-483.78995458317 207.077745006388,-463.965144237262 " style="fill: rgb(157,116,59); fill-opacity: 1; stroke: rgb(0,0,0); stroke-width: 3" />
	<polygon points="116.359859145108,-321.833006223364 120.773745488503,-346.734952708898 93.6970449357734,-356.540579593417 89.2831585923768,-331.638633107886 " style="fill: rgb(157,116,59); fill-opacity: 1; stroke: rgb(0,0,0); stroke-width: 3" />
	<polygon points="356.207376457931,-466.570368397269 382.027728397398,-466.570368397267 368.277866185714,-482.720350458682 342.457514246248,-482.720350458683 " style="fill: rgb(157,116,59); fill-opacity: 1; stroke: rgb(0,0,0); stroke-width: 3" />
	<polygon points="345.186494532235,-129.302197639593 319.366142592785,-129.302197639594 317.371887768186,-108.18576851157 343.192239707627,-108.185768511562 " style="fill: rgb(157,116,59); fill-opacity: 1; stroke: rgb(0,0,0); stroke-width: 3" />
	<polygon points="445.551940262771,-168.612833781276 440.150701668102,-148.1016842994 457.40288012025,-135.763006490183 462.804118714915,-156.274155972061 " style="fill: rgb(157,116,59); fill-opacity: 1; stroke: rgb(0,0,0); stroke-width: 3" />
	<polygon points="408.590659661618,-122.689438774498 379.79385702616,-122.89483934374 392.755670917708,-106.105794937787 421.552473553164,-105.900394368549 " style="fill: rgb(157,116,59); fill-opacity: 1; stroke: rgb(0,0,0); stroke-width: 3" />
	<polygon points="347.428560576372,-188.141645006203 318.631757940909,-188.347045575431 340.235811287112,-169.305960773484 369.032613922567,-169.100560204263 " style="fill: rgb(157,116,59); fill-opacity: 1; stroke: rgb(0,0,0); stroke-width: 3" />
	<polygon points="224.038172848542,-312.589449181758 214.084823402061,-331.319410906771 203.876336468451,-312.727277464104 213.829685914928,-293.99731573909 " style="fill: rgb(157,116,59); fill-opacity: 1; stroke: rgb(0,0,0); stroke-width: 3" />
	<polygon points="278.452016612503,-502.611592019516 298.912946129221,-522.876053392388 270.176753492687,-520.997419799386 249.715823975976,-500.732958426508 " style="fill: rgb(157,116,59); fill-opacity: 1; stroke: rgb(0,0,0); stroke-width: 3" />
	<polygon points="183.690951754346,-441.149909180006 201.639245175697,-459.711949411055 201.906498783378,-488.508244431941 183.958205362031,-469.946204200893 " style="fill: rgb(157,116,59); fill-opacity: 1; stroke: rgb(0,0,0); stroke-width: 3" />
	<polygon points="487.860933210687,-152.847002817157 462.804118714915,-156.274155972061 457.40288012025,-135.763006490183 482.459694616016,-132.335853335284 " style="fill: rgb(157,116,59); fill-opacity: 1; stroke: rgb(0,0,0); stroke-width: 3" />
	<polygon points="386.804794647993,-463.928138187352 406.117578212302,-447.600072704418 416.596414422335,-470.61709516836 397.283630858034,-486.945160651294 " style="fill: rgb(157,116,59); fill-opacity: 1; stroke: rgb(0,0,0); stroke-width: 3" />
	<polygon points="139.52317054292,-358.000807049189 112.905229389587,-368.990949913521 94.4422343027643,-358.550717931031 121.060175456112,-347.560575066694 " style="fill: rgb(157,116,59); fill-opacity: 1; stroke: rgb(0,0,0); stroke-width: 3" />
	<polygon points="342.457514246248,-482.720350458683 368.277866185714,-482.720350458682 371.846532713937,-507.757402014978 346.026180774475,-507.75740201498 " style="fill: rgb(157,116,59); fill-opacity: 1; stroke: rgb(0,0,0); stroke-width: 3" />
	<polygon points="140.893624711269,-313.784098134423 145.307511054659,-338.686044619962 120.773745488503,-346.734952708898 116.359859145108,-321.833006223364 " style="fill: rgb(157,116,59); fill-opacity: 1; stroke: rgb(0,0,0); stroke-width: 3" />
	<polygon points="331.998985071067,-267.979242596649 303.202182435581,-268.18464316588 309.07998612911,-247.804946034553 337.876788764588,-247.599545465327 " style="fill: rgb(157,116,59); fill-opacity: 1; stroke: rgb(0,0,0); stroke-width: 3" />
	<polygon points="312.154509345212,-481.822387889956 340.689184311672,-485.704443528263 341.619793106643,-510.977419187848 313.085118140177,-507.095363549545 " style="fill: rgb(157,116,59); fill-opacity: 1; stroke: rgb(0,0,0); stroke-width: 3" />
	<polygon points="414.948568531918,-412.612558908911 428.698430743571,-396.462576847507 438.906917677212,-415.054710290178 425.157055465562,-431.204692351579 " style="fill: rgb(157,116,59); fill-opacity: 1; stroke: rgb(0,0,0); stroke-width: 3" />
	<polygon points="448.511261366226,-309.823373232322 454.247655710066,-289.403421925911 477.378715810419,-279.178775719017 471.64232146658,-299.598727025428 " style="fill: rgb(157,116,59); fill-opacity: 1; stroke: rgb(0,0,0); stroke-width: 3" />
	<polygon points="184.558798205597,-415.344145931919 202.507091626948,-433.90618616297 201.639245175697,-459.711949411055 183.690951754346,-441.149909180006 " style="fill: rgb(157,116,59); fill-opacity: 1; stroke: rgb(0,0,0); stroke-width: 3" />
	<polygon points="226.7130469042,-435.07539285825 247.600242172322,-454.900203204153 226.618286603816,-458.004743741088 205.731091335695,-438.179933395181 " style="fill: rgb(157,116,59); fill-opacity: 1; stroke: rgb(0,0,0); stroke-width: 3" />
	<polygon points="437.791419111961,-350.535856144597 452.079927894463,-334.860424788598 461.653402733682,-353.787368834777 447.364893951186,-369.462800190776 " style="fill: rgb(157,116,59); fill-opacity: 1; stroke: rgb(0,0,0); stroke-width: 3" />
	<polygon points="317.371887768448,-428.183517820271 343.192239707918,-428.183517820267 364.079434976045,-448.008328166189 338.259083036576,-448.008328166191 " style="fill: rgb(157,116,59); fill-opacity: 1; stroke: rgb(0,0,0); stroke-width: 3" />
	<polygon points="386.554962880607,-442.719219886042 405.867746444905,-426.391154403093 406.117578212302,-447.600072704418 386.804794647993,-463.928138187352 " style="fill: rgb(157,116,59); fill-opacity: 1; stroke: rgb(0,0,0); stroke-width: 3" />
	<polygon points="342.027998684492,-222.652465723933 328.828011488907,-206.050027063886 347.438524658091,-188.15199996985 360.638511853679,-204.754438629884 " style="fill: rgb(157,116,59); fill-opacity: 1; stroke: rgb(0,0,0); stroke-width: 3" />
	<polygon points="275.239509125083,-467.739975195042 292.624188623458,-486.830902176671 278.353944496051,-502.522962715953 260.969264997678,-483.432035734335 " style="fill: rgb(157,116,59); fill-opacity: 1; stroke: rgb(0,0,0); stroke-width: 3" />
	<polygon points="420.951891353591,-306.604142294839 401.665934543441,-289.436077634096 427.414008009714,-287.50545932518 446.699964819859,-304.673523985921 " style="fill: rgb(157,116,59); fill-opacity: 1; stroke: rgb(0,0,0); stroke-width: 3" />
	<polygon points="342.027998684492,-222.652465723933 313.231196049022,-222.857866293165 300.031208853439,-206.255427633118 328.828011488907,-206.050027063886 " style="fill: rgb(157,116,59); fill-opacity: 1; stroke: rgb(0,0,0); stroke-width: 3" />
	<polygon points="316.847083866998,-188.055872185762 291.026731927538,-188.055872185768 311.913927195665,-168.231061839849 337.734279135119,-168.231061839848 " style="fill: rgb(157,116,59); fill-opacity: 1; stroke: rgb(0,0,0); stroke-width: 3" />
	<polygon points="170.742369889699,-246.651352205743 150.503970452572,-252.99862088191 136.25236190383,-231.467661125037 156.490761340955,-225.120392448858 " style="fill: rgb(157,116,59); fill-opacity: 1; stroke: rgb(0,0,0); stroke-width: 3" />
	<polygon points="467.303897643935,-447.789786919282 481.053759855593,-431.639804857891 487.023254756893,-451.992833184108 473.273392545233,-468.142815245489 " style="fill: rgb(157,116,59); fill-opacity: 1; stroke: rgb(0,0,0); stroke-width: 3" />
	<polygon points="447.364893951186,-369.462800190776 461.653402733682,-353.787368834777 485.53905191831,-345.476827670012 471.250543135813,-361.152259026011 " style="fill: rgb(157,116,59); fill-opacity: 1; stroke: rgb(0,0,0); stroke-width: 3" />
	<polygon points="291.026731927538,-188.055872185768 289.020725001324,-166.940556236525 309.907920269451,-147.115745890607 311.913927195665,-168.231061839849 " style="fill: rgb(157,116,59); fill-opacity: 1; stroke: rgb(0,0,0); stroke-width: 3" />
	<polygon points="367.26900607033,-425.551155225417 386.554962880607,-442.719219886042 386.086933336905,-463.924445180069 366.800976526625,-446.756380519443 " style="fill: rgb(157,116,59); fill-opacity: 1; stroke: rgb(0,0,0); stroke-width: 3" />
	<polygon points="367.26900607033,-425.551155225417 386.581789634632,-409.223089742466 405.867746444905,-426.391154403093 386.554962880607,-442.719219886042 " style="fill: rgb(157,116,59); fill-opacity: 1; stroke: rgb(0,0,0); stroke-width: 3" />
	<polygon points="338.259083036576,-448.008328166191 364.079434976045,-448.008328166189 382.027728397398,-466.570368397267 356.207376457931,-466.570368397269 " style="fill: rgb(157,116,59); fill-opacity: 1; stroke: rgb(0,0,0); stroke-width: 3" />
	<polygon points="204.80427462779,-320.521976502987 209.218160971172,-345.423922988542 188.936284086053,-351.630862769237 184.52239774267,-326.728916283689 " style="fill: rgb(157,116,59); fill-opacity: 1; stroke: rgb(0,0,0); stroke-width: 3" />
	<polygon points="309.217983944514,-446.668264766419 337.97723773077,-448.152634355768 355.763925138745,-466.869587241598 327.004671352491,-465.385217652244 " style="fill: rgb(157,116,59); fill-opacity: 1; stroke: rgb(0,0,0); stroke-width: 3" />
	<polygon points="396.434615016345,-250.071825720713 390.556811322777,-229.69212858941 417.259320489765,-240.475172482813 423.137124183345,-260.854869614122 " style="fill: rgb(157,116,59); fill-opacity: 1; stroke: rgb(0,0,0); stroke-width: 3" />
	<polygon points="308.94200185779,-446.95077106548 326.445320920103,-465.932983688944 312.27314890916,-481.713673531788 294.769829846837,-462.731460908325 " style="fill: rgb(157,116,59); fill-opacity: 1; stroke: rgb(0,0,0); stroke-width: 3" />
	<polygon points="240.726399891127,-414.022714418525 261.613595159251,-433.847524764434 247.600242172322,-454.900203204153 226.7130469042,-435.07539285825 " style="fill: rgb(157,116,59); fill-opacity: 1; stroke: rgb(0,0,0); stroke-width: 3" />
	<polygon points="163.770506141481,-349.126276602454 139.52317054292,-358.000807049189 121.060175456112,-347.560575066694 145.307511054659,-338.686044619962 " style="fill: rgb(157,116,59); fill-opacity: 1; stroke: rgb(0,0,0); stroke-width: 3" />
	<polygon points="337.876788764588,-247.599545465327 309.07998612911,-247.804946034553 313.231196049022,-222.857866293165 342.027998684492,-222.652465723933 " style="fill: rgb(157,116,59); fill-opacity: 1; stroke: rgb(0,0,0); stroke-width: 3" />
	<polygon points="438.906917677212,-415.054710290178 428.698430743571,-396.462576847507 449.965027656106,-410.149109906761 460.173514589732,-428.741243349421 " style="fill: rgb(157,116,59); fill-opacity: 1; stroke: rgb(0,0,0); stroke-width: 3" />
	<polygon points="337.876788764588,-247.599545465327 342.027998684492,-222.652465723933 361.708835386052,-205.93854215687 384.59062331336,-188.45363973592 380.439413393456,-213.400719477314 360.758576691895,-230.114643044378 " style="fill: rgb(186,145,77); fill-opacity: 1; stroke: rgb(0,0,0); stroke-width: 3" />
	<polygon points="175.701899412479,-268.618808840299 158.799488378243,-281.432439576898 152.829993476972,-261.079411250698 169.732404511206,-248.265780514094 " style="fill: rgb(157,116,59); fill-opacity: 1; stroke: rgb(0,0,0); stroke-width: 3" />
	<polygon points="437.791419111961,-350.535856144597 434.222752583724,-325.498804588318 448.511261366226,-309.823373232322 452.079927894463,-334.860424788598 " style="fill: rgb(157,116,59); fill-opacity: 1; stroke: rgb(0,0,0); stroke-width: 3" />
	<polygon points="408.402400644227,-325.498804588337 422.152262855912,-309.348822526924 447.972614795407,-309.348822526905 434.222752583724,-325.498804588318 " style="fill: rgb(157,116,59); fill-opacity: 1; stroke: rgb(0,0,0); stroke-width: 3" />
	<polygon points="372.776286622897,-290.277919834428 350.308216440731,-272.264484467746 379.083295884137,-271.127455687787 401.551366066292,-289.140891054469 " style="fill: rgb(157,116,59); fill-opacity: 1; stroke: rgb(0,0,0); stroke-width: 3" />
	<polygon points="366.661396896842,-369.152219825945 380.411259108508,-353.00223776453 378.844313806453,-374.154668212227 365.094451594784,-390.304650273634 " style="fill: rgb(157,116,59); fill-opacity: 1; stroke: rgb(0,0,0); stroke-width: 3" />
	<polygon points="187.556458516742,-266.207141394179 193.525953418026,-286.560169720392 175.701899412479,-268.618808840299 169.732404511206,-248.265780514094 " style="fill: rgb(157,116,59); fill-opacity: 1; stroke: rgb(0,0,0); stroke-width: 3" />
	<polygon points="273.078438506179,-206.617912416851 271.026179288303,-185.507041673866 288.974472709661,-166.945001442786 291.026731927538,-188.055872185768 " style="fill: rgb(157,116,59); fill-opacity: 1; stroke: rgb(0,0,0); stroke-width: 3" />
	<polygon points="283.259634189638,-247.804946034564 268.971125407126,-232.129514678574 272.539791935347,-207.092463122285 286.828300717859,-222.767894478265 " style="fill: rgb(157,116,59); fill-opacity: 1; stroke: rgb(0,0,0); stroke-width: 3" />
	<polygon points="204.474717474617,-237.61339585663 190.724855262949,-253.763377918022 170.742369889699,-246.651352205743 184.492232101368,-230.501370144353 " style="fill: rgb(157,116,59); fill-opacity: 1; stroke: rgb(0,0,0); stroke-width: 3" />
	<polygon points="250.546588868073,-365.700563553309 268.494882289427,-384.262603784384 249.758294014131,-394.203473526323 231.810000592778,-375.641433295257 " style="fill: rgb(157,116,59); fill-opacity: 1; stroke: rgb(0,0,0); stroke-width: 3" />
	<polygon points="391.419944515034,-401.977972591072 405.169806726695,-385.827990529665 428.698430743571,-396.462576847507 414.948568531918,-412.612558908911 " style="fill: rgb(157,116,59); fill-opacity: 1; stroke: rgb(0,0,0); stroke-width: 3" />
	<polygon points="248.61519078221,-279.221393081597 234.865328570536,-295.371375142997 213.82068353354,-292.724953655199 227.570545745215,-276.5749715938 " style="fill: rgb(157,116,59); fill-opacity: 1; stroke: rgb(0,0,0); stroke-width: 3" />
	<polygon points="345.160937369619,-268.849354059799 339.283133676063,-248.469656928482 366.530361783723,-239.148359171752 372.408165477287,-259.528056303061 " style="fill: rgb(157,116,59); fill-opacity: 1; stroke: rgb(0,0,0); stroke-width: 3" />
	<polygon points="272.539791935347,-207.092463122285 249.408731834977,-196.867816915417 243.672337491115,-176.447865609013 266.803397591485,-186.672511815881 " style="fill: rgb(157,116,59); fill-opacity: 1; stroke: rgb(0,0,0); stroke-width: 3" />
	<polygon points="411.971067172466,-350.535856144622 408.402400644227,-325.498804588337 434.222752583724,-325.498804588318 437.791419111961,-350.535856144597 " style="fill: rgb(157,116,59); fill-opacity: 1; stroke: rgb(0,0,0); stroke-width: 3" />
	<polygon points="221.601050843924,-256.221943267589 207.851188632249,-272.37192532898 190.724855262949,-253.763377918022 204.474717474617,-237.61339585663 " style="fill: rgb(157,116,59); fill-opacity: 1; stroke: rgb(0,0,0); stroke-width: 3" />
	<polygon points="290.60688880677,-405.582719102892 288.481072341077,-426.686309692611 274.308900330119,-442.466999535454 276.434716795812,-421.363408945734 " style="fill: rgb(157,116,59); fill-opacity: 1; stroke: rgb(0,0,0); stroke-width: 3" />
	<polygon points="345.186494532506,-407.06708869224 364.49927809682,-390.739023209287 386.581789634632,-409.223089742466 367.26900607033,-425.551155225417 " style="fill: rgb(157,116,59); fill-opacity: 1; stroke: rgb(0,0,0); stroke-width: 3" />
	<polygon points="192.708490552039,-295.940441537092 182.755141105559,-314.670403262105 159.148309795884,-305.598091156639 169.101659242361,-286.868129431627 " style="fill: rgb(157,116,59); fill-opacity: 1; stroke: rgb(0,0,0); stroke-width: 3" />
	<polygon points="372.408165477287,-259.528056303061 366.530361783723,-239.148359171752 390.556811322777,-229.69212858941 396.434615016345,-250.071825720713 " style="fill: rgb(157,116,59); fill-opacity: 1; stroke: rgb(0,0,0); stroke-width: 3" />
	<polygon points="250.358417065525,-395.125495666117 271.24561233365,-414.950306012029 261.613595159251,-433.847524764434 240.726399891127,-414.022714418525 " style="fill: rgb(157,116,59); fill-opacity: 1; stroke: rgb(0,0,0); stroke-width: 3" />
	<polygon points="298.898790445671,-329.751373914914 327.669832698574,-330.986347235372 345.618126119921,-349.548387466448 316.847083867024,-348.313414145992 " style="fill: rgb(157,116,59); fill-opacity: 1; stroke: rgb(0,0,0); stroke-width: 3" />
	<polygon points="159.356619798091,-324.224330116913 163.770506141481,-349.126276602454 145.307511054659,-338.686044619962 140.893624711269,-313.784098134423 " style="fill: rgb(157,116,59); fill-opacity: 1; stroke: rgb(0,0,0); stroke-width: 3" />
	<polygon points="401.551366066292,-289.140891054469 379.083295884137,-271.127455687787 404.813663312864,-268.97367615824 427.281733495015,-286.987111524922 " style="fill: rgb(157,116,59); fill-opacity: 1; stroke: rgb(0,0,0); stroke-width: 3" />
	<polygon points="274.308900330119,-442.466999535454 294.769829846837,-462.731460908325 312.154509345212,-481.822387889956 313.085118140177,-507.095363549545 292.624188623458,-486.830902176671 275.239509125083,-467.739975195042 " style="fill: rgb(186,145,77); fill-opacity: 1; stroke: rgb(0,0,0); stroke-width: 3" />
	<polygon points="221.244993062167,-394.033313223708 239.19328648352,-412.595353454768 223.675012943995,-432.564642820562 205.726719522643,-414.00260258951 " style="fill: rgb(157,116,59); fill-opacity: 1; stroke: rgb(0,0,0); stroke-width: 3" />
	<polygon points="309.919672371083,-389.25465361994 335.740024310559,-389.254653619934 364.49927809682,-390.739023209287 345.186494532506,-407.06708869224 319.366142593031,-407.067088692245 290.60688880677,-405.582719102892 " style="fill: rgb(186,145,77); fill-opacity: 1; stroke: rgb(0,0,0); stroke-width: 3" />
	<polygon points="268.971125407126,-232.129514678574 245.840065306764,-221.904868471699 249.408731834977,-196.867816915417 272.539791935347,-207.092463122285 " style="fill: rgb(157,116,59); fill-opacity: 1; stroke: rgb(0,0,0); stroke-width: 3" />
	<polygon points="327.672469103966,-330.923315846007 341.422331315648,-314.773333784595 359.421551403159,-333.285995681812 345.671689191486,-349.435977743225 " style="fill: rgb(157,116,59); fill-opacity: 1; stroke: rgb(0,0,0); stroke-width: 3" />
	<polygon points="184.52239774267,-326.728916283689 188.936284086053,-351.630862769237 163.770506141481,-349.126276602454 159.356619798091,-324.224330116913 " style="fill: rgb(157,116,59); fill-opacity: 1; stroke: rgb(0,0,0); stroke-width: 3" />
	<polygon points="268.72756167234,-384.521008038795 289.614756940467,-404.345818384707 271.24561233365,-414.950306012029 250.358417065525,-395.125495666117 " style="fill: rgb(157,116,59); fill-opacity: 1; stroke: rgb(0,0,0); stroke-width: 3" />
	<polygon points="316.847083867024,-348.313414145992 345.618126119921,-349.548387466448 366.527500324073,-369.349804128169 337.756458071177,-368.114830807714 " style="fill: rgb(157,116,59); fill-opacity: 1; stroke: rgb(0,0,0); stroke-width: 3" />
	<polygon points="205.726719522643,-414.00260258951 223.675012943995,-432.564642820562 202.507091626948,-433.90618616297 184.558798205597,-415.344145931919 " style="fill: rgb(157,116,59); fill-opacity: 1; stroke: rgb(0,0,0); stroke-width: 3" />
	<polygon points="392.169046972778,-307.523870934164 372.883090162621,-290.35580627342 401.665934543441,-289.436077634096 420.951891353591,-306.604142294839 " style="fill: rgb(157,116,59); fill-opacity: 1; stroke: rgb(0,0,0); stroke-width: 3" />
	<polygon points="250.306632815649,-340.752928214869 243.846500279212,-360.955584452007 222.666883798839,-362.097721557679 229.127016335266,-341.895065320532 " style="fill: rgb(157,116,59); fill-opacity: 1; stroke: rgb(0,0,0); stroke-width: 3" />
	<polygon points="231.810000592778,-375.641433295257 249.758294014131,-394.203473526323 239.19328648352,-412.595353454768 221.244993062167,-394.033313223708 " style="fill: rgb(157,116,59); fill-opacity: 1; stroke: rgb(0,0,0); stroke-width: 3" />
	<polygon points="207.851188632249,-272.37192532898 213.82068353354,-292.724953655199 193.525953418026,-286.560169720392 187.556458516742,-266.207141394179 " style="fill: rgb(157,116,59); fill-opacity: 1; stroke: rgb(0,0,0); stroke-width: 3" />
	<polygon points="291.026731927539,-348.313414145993 316.847083867024,-348.313414145992 337.73427913515,-368.138224491912 311.913927195668,-368.138224491914 " style="fill: rgb(157,116,59); fill-opacity: 1; stroke: rgb(0,0,0); stroke-width: 3" />
	<polygon points="345.186494532506,-407.06708869224 367.26900607033,-425.551155225417 366.583302855699,-446.75045810371 344.500791317876,-428.266391570534 " style="fill: rgb(157,116,59); fill-opacity: 1; stroke: rgb(0,0,0); stroke-width: 3" />
	<polygon points="319.366142593031,-407.067088692245 345.186494532506,-407.06708869224 343.192239707918,-428.183517820267 317.371887768448,-428.183517820271 " style="fill: rgb(157,116,59); fill-opacity: 1; stroke: rgb(0,0,0); stroke-width: 3" />
	<polygon points="311.913927195668,-368.138224491914 337.73427913515,-368.138224491912 335.740024310559,-389.254653619934 309.919672371083,-389.25465361994 " style="fill: rgb(157,116,59); fill-opacity: 1; stroke: rgb(0,0,0); stroke-width: 3" />
	<polygon points="298.898790445645,-206.617912416839 273.078438506179,-206.617912416851 291.026731927538,-188.055872185768 316.847083866998,-188.055872185762 " style="fill: rgb(157,116,59); fill-opacity: 1; stroke: rgb(0,0,0); stroke-width: 3" />
	<polygon points="245.183959776461,-314.243633761367 224.038172848542,-312.589449181758 213.829685914928,-293.99731573909 234.975472842841,-295.651500318694 " style="fill: rgb(157,116,59); fill-opacity: 1; stroke: rgb(0,0,0); stroke-width: 3" />
	<polygon points="289.020725001321,-369.428730095233 309.907920269449,-389.253540441151 289.614756940467,-404.345818384707 268.72756167234,-384.521008038795 " style="fill: rgb(157,116,59); fill-opacity: 1; stroke: rgb(0,0,0); stroke-width: 3" />
	<polygon points="383.186873411074,-349.659374012781 379.618206882842,-324.622322456492 408.402400644227,-325.498804588337 411.971067172466,-350.535856144622 " style="fill: rgb(157,116,59); fill-opacity: 1; stroke: rgb(0,0,0); stroke-width: 3" />
	<polygon points="365.094451594784,-390.304650273634 378.844313806453,-374.154668212227 405.169806726695,-385.827990529665 391.419944515034,-401.977972591072 " style="fill: rgb(157,116,59); fill-opacity: 1; stroke: rgb(0,0,0); stroke-width: 3" />
	<polygon points="379.618206882842,-324.622322456492 393.201544585383,-308.332031842665 421.985738346767,-309.20851397451 408.402400644227,-325.498804588337 " style="fill: rgb(157,116,59); fill-opacity: 1; stroke: rgb(0,0,0); stroke-width: 3" />
	<polygon points="213.829685914928,-293.99731573909 203.876336468451,-312.727277464104 182.755141105559,-314.670403262105 192.708490552039,-295.940441537092 " style="fill: rgb(157,116,59); fill-opacity: 1; stroke: rgb(0,0,0); stroke-width: 3" />
	<polygon points="337.876788764615,-288.769740866394 309.079986129129,-288.564340297202 303.202182435581,-268.18464316588 331.998985071058,-268.390043735077 " style="fill: rgb(157,116,59); fill-opacity: 1; stroke: rgb(0,0,0); stroke-width: 3" />
	<polygon points="273.078438506183,-329.751373914914 291.026731927539,-348.313414145993 288.97447270966,-369.424284888972 271.026179288305,-350.862244657895 " style="fill: rgb(157,116,59); fill-opacity: 1; stroke: rgb(0,0,0); stroke-width: 3" />
	<polygon points="341.432846418751,-314.477873985346 337.864179890515,-289.440822429053 360.332250072683,-307.454257795737 379.618206882842,-324.622322456492 383.186873411074,-349.659374012781 360.718803228907,-331.645938646097 " style="fill: rgb(186,145,77); fill-opacity: 1; stroke: rgb(0,0,0); stroke-width: 3" />
	<polygon points="309.07998612911,-247.804946034553 283.259634189638,-247.804946034564 286.828300717859,-222.767894478265 312.648652657327,-222.767894478252 " style="fill: rgb(157,116,59); fill-opacity: 1; stroke: rgb(0,0,0); stroke-width: 3" />
	<polygon points="245.892746472268,-315.850981729306 250.306632815649,-340.752928214869 229.127016335266,-341.895065320532 224.713129991882,-316.993118834976 " style="fill: rgb(157,116,59); fill-opacity: 1; stroke: rgb(0,0,0); stroke-width: 3" />
	<polygon points="202.220327684907,-368.467293541373 176.934239368773,-368.016661661555 163.725505653903,-351.421180798585 189.011593970024,-351.871812678404 " style="fill: rgb(157,116,59); fill-opacity: 1; stroke: rgb(0,0,0); stroke-width: 3" />
	<polygon points="411.971067172466,-350.535856144622 437.791419111961,-350.535856144597 443.669222805505,-370.915553275917 417.848870866012,-370.915553275944 " style="fill: rgb(157,116,59); fill-opacity: 1; stroke: rgb(0,0,0); stroke-width: 3" />
	<polygon points="379.618206882842,-324.622322456492 360.332250072683,-307.454257795737 372.883090162621,-290.35580627342 392.169046972778,-307.523870934164 " style="fill: rgb(157,116,59); fill-opacity: 1; stroke: rgb(0,0,0); stroke-width: 3" />
	<polygon points="207.851188632249,-272.37192532898 187.785473132427,-265.498229605107 170.659139763127,-246.88968219415 190.724855262949,-253.763377918022 " style="fill: rgb(157,116,59); fill-opacity: 1; stroke: rgb(0,0,0); stroke-width: 3" />
	<polygon points="288.481072341077,-426.686309692611 317.240326127333,-428.170679281961 337.97723773077,-448.152634355768 309.217983944514,-446.668264766419 " style="fill: rgb(157,116,59); fill-opacity: 1; stroke: rgb(0,0,0); stroke-width: 3" />
	<polygon points="288.481072341077,-426.686309692611 308.94200185779,-446.95077106548 294.769829846837,-462.731460908325 274.308900330119,-442.466999535454 " style="fill: rgb(157,116,59); fill-opacity: 1; stroke: rgb(0,0,0); stroke-width: 3" />
	<polygon points="337.756458071177,-368.114830807714 366.527500324073,-369.349804128169 364.584730234934,-390.471032212846 335.813687982046,-389.236058892394 " style="fill: rgb(157,116,59); fill-opacity: 1; stroke: rgb(0,0,0); stroke-width: 3" />
	<polygon points="383.186873411074,-349.659374012781 411.971067172466,-350.535856144622 417.37230576711,-371.047005626499 388.588112005719,-370.170523494659 " style="fill: rgb(157,116,59); fill-opacity: 1; stroke: rgb(0,0,0); stroke-width: 3" />
	<polygon points="224.713129991882,-316.993118834976 229.127016335266,-341.895065320532 222.426894686054,-362.019403851522 218.013008342671,-337.117457365966 " style="fill: rgb(157,116,59); fill-opacity: 1; stroke: rgb(0,0,0); stroke-width: 3" />
	<polygon points="337.876788764615,-288.769740866394 331.998985071058,-268.390043735077 339.283133676063,-248.469656928482 345.160937369619,-268.849354059799 " style="fill: rgb(157,116,59); fill-opacity: 1; stroke: rgb(0,0,0); stroke-width: 3" />
	<polygon points="345.671689191486,-349.435977743225 359.421551403159,-333.285995681812 380.411259108508,-353.00223776453 366.661396896842,-369.152219825945 " style="fill: rgb(157,116,59); fill-opacity: 1; stroke: rgb(0,0,0); stroke-width: 3" />
	<polygon points="227.570545745215,-276.5749715938 213.82068353354,-292.724953655199 207.851188632249,-272.37192532898 221.601050843924,-256.221943267589 " style="fill: rgb(157,116,59); fill-opacity: 1; stroke: rgb(0,0,0); stroke-width: 3" />
	<polygon points="290.60688880677,-405.582719102892 319.366142593031,-407.067088692245 317.240326127333,-428.170679281961 288.481072341077,-426.686309692611 " style="fill: rgb(157,116,59); fill-opacity: 1; stroke: rgb(0,0,0); stroke-width: 3" />
	<polygon points="272.205927440865,-270.107311925261 258.456065229191,-286.257293986662 234.865328570536,-295.371375142997 248.61519078221,-279.221393081597 " style="fill: rgb(157,116,59); fill-opacity: 1; stroke: rgb(0,0,0); stroke-width: 3" />
	<polygon points="277.381830496101,-268.184643165885 260.42190292432,-255.447238085407 266.299706617848,-235.067540954091 283.259634189638,-247.804946034564 " style="fill: rgb(157,116,59); fill-opacity: 1; stroke: rgb(0,0,0); stroke-width: 3" />
	<polygon points="283.259634189645,-288.564340297205 277.381830496101,-268.184643165885 303.202182435581,-268.18464316588 309.079986129129,-288.564340297202 " style="fill: rgb(157,116,59); fill-opacity: 1; stroke: rgb(0,0,0); stroke-width: 3" />
	<polygon points="218.013008342671,-337.117457365966 222.426894686054,-362.019403851522 209.218160971172,-345.423922988542 204.80427462779,-320.521976502987 " style="fill: rgb(157,116,59); fill-opacity: 1; stroke: rgb(0,0,0); stroke-width: 3" />
	<polygon points="260.42190292432,-255.447238085407 235.45176750537,-251.437042506428 241.329571198896,-231.057345375114 266.299706617848,-235.067540954091 " style="fill: rgb(157,116,59); fill-opacity: 1; stroke: rgb(0,0,0); stroke-width: 3" />
	<polygon points="360.332250072683,-307.454257795737 337.864179890515,-289.440822429053 350.308216440731,-272.264484467746 372.776286622897,-290.277919834428 " style="fill: rgb(157,116,59); fill-opacity: 1; stroke: rgb(0,0,0); stroke-width: 3" />
	<polygon points="273.078438506183,-329.751373914914 298.898790445671,-329.751373914914 316.847083867024,-348.313414145992 291.026731927539,-348.313414145993 " style="fill: rgb(157,116,59); fill-opacity: 1; stroke: rgb(0,0,0); stroke-width: 3" />
	<polygon points="268.664552162806,-304.849427429344 245.183959776461,-314.243633761367 234.975472842841,-295.651500318694 258.456065229191,-286.257293986662 " style="fill: rgb(157,116,59); fill-opacity: 1; stroke: rgb(0,0,0); stroke-width: 3" />
	<polygon points="298.898790445671,-329.751373914914 312.648652657358,-313.601391853501 341.422331315648,-314.773333784595 327.672469103966,-330.923315846007 " style="fill: rgb(157,116,59); fill-opacity: 1; stroke: rgb(0,0,0); stroke-width: 3" />
	<polygon points="282.414414374492,-288.699445367942 268.664552162806,-304.849427429344 258.456065229191,-286.257293986662 272.205927440865,-270.107311925261 " style="fill: rgb(157,116,59); fill-opacity: 1; stroke: rgb(0,0,0); stroke-width: 3" />
	<polygon points="222.426894686054,-362.019403851522 202.220327684907,-368.467293541373 189.011593970024,-351.871812678404 209.218160971172,-345.423922988542 " style="fill: rgb(157,116,59); fill-opacity: 1; stroke: rgb(0,0,0); stroke-width: 3" />
	<polygon points="341.432846418751,-314.477873985346 312.648652657358,-313.601391853501 309.079986129129,-288.564340297202 337.864179890515,-289.440822429053 " style="fill: rgb(157,116,59); fill-opacity: 1; stroke: rgb(0,0,0); stroke-width: 3" />
	<polygon points="291.026731927539,-348.313414145993 311.913927195668,-368.138224491914 309.907920269449,-389.253540441151 289.020725001321,-369.428730095233 " style="fill: rgb(157,116,59); fill-opacity: 1; stroke: rgb(0,0,0); stroke-width: 3" />
	<polygon points="273.078438506183,-329.751373914914 268.036348947095,-350.353751552031 245.264543256561,-361.355305851985 250.306632815649,-340.752928214869 " style="fill: rgb(157,116,59); fill-opacity: 1; stroke: rgb(0,0,0); stroke-width: 3" />
	<polygon points="271.026179288305,-350.862244657895 288.97447270966,-369.424284888972 268.494882289427,-384.262603784384 250.546588868073,-365.700563553309 " style="fill: rgb(157,116,59); fill-opacity: 1; stroke: rgb(0,0,0); stroke-width: 3" />
	<polygon points="268.664552162806,-304.849427429344 273.078438506183,-329.751373914914 250.306632815649,-340.752928214869 245.892746472268,-315.850981729306 " style="fill: rgb(157,116,59); fill-opacity: 1; stroke: rgb(0,0,0); stroke-width: 3" />
	<circle cx="286.828300717868" cy="-313.601391853501" r="2" style="fill: rgb(0,0,0)" />
	<circle cx="312.648652657358" cy="-313.601391853501" r="2" style="fill: rgb(0,0,0)" />
	<circle cx="298.898790445671" cy="-329.751373914914" r="2" style="fill: rgb(0,0,0)" />
	<circle cx="273.078438506183" cy="-329.751373914914" r="2" style="fill: rgb(0,0,0)" />
	<circle cx="283.259634189645" cy="-288.564340297205" r="2" style="fill: rgb(0,0,0)" />
	<circle cx="309.079986129129" cy="-288.564340297202" r="2" style="fill: rgb(0,0,0)" />
	<circle cx="268.664552162806" cy="-304.849427429344" r="2" style="fill: rgb(0,0,0)" />
	<circle cx="282.414414374492" cy="-288.699445367942" r="2" style="fill: rgb(0,0,0)" />
	<circle cx="316.847083867024" cy="-348.313414145992" r="2" style="fill: rgb(0,0,0)" />
	<circle cx="291.026731927539" cy="-348.313414145993" r="2" style="fill: rgb(0,0,0)" />
	<circle cx="341.422331315648" cy="-314.773333784595" r="2" style="fill: rgb(0,0,0)" />
	<circle cx="327.672469103966" cy="-330.923315846007" r="2" style="fill: rgb(0,0,0)" />
	<circle cx="277.381830496101" cy="-268.184643165885" r="2" style="fill: rgb(0,0,0)" />
	<circle cx="303.202182435581" cy="-268.18464316588" r="2" style="fill: rgb(0,0,0)" />
	<circle cx="337.864179890515" cy="-289.440822429053" r="2" style="fill: rgb(0,0,0)" />
	<circle cx="341.432846418751" cy="-314.477873985346" r="2" style="fill: rgb(0,0,0)" />
	<circle cx="258.456065229191" cy="-286.257293986662" r="2" style="fill: rgb(0,0,0)" />
	<circle cx="272.205927440865" cy="-270.107311925261" r="2" style="fill: rgb(0,0,0)" />
	<circle cx="250.306632815649" cy="-340.752928214869" r="2" style="fill: rgb(0,0,0)" />
	<circle cx="245.892746472268" cy="-315.850981729306" r="2" style="fill: rgb(0,0,0)" />
	<circle cx="327.669832698574" cy="-330.986347235372" r="2" style="fill: rgb(0,0,0)" />
	<circle cx="345.618126119921" cy="-349.548387466448" r="2" style="fill: rgb(0,0,0)" />
	<circle cx="337.73427913515" cy="-368.138224491912" r="2" style="fill: rgb(0,0,0)" />
	<circle cx="311.913927195668" cy="-368.138224491914" r="2" style="fill: rgb(0,0,0)" />
	<circle cx="288.97447270966" cy="-369.424284888972" r="2" style="fill: rgb(0,0,0)" />
	<circle cx="271.026179288305" cy="-350.862244657895" r="2" style="fill: rgb(0,0,0)" />
	<circle cx="359.421551403159" cy="-333.285995681812" r="2" style="fill: rgb(0,0,0)" />
	<circle cx="345.671689191486" cy="-349.435977743225" r="2" style="fill: rgb(0,0,0)" />
	<circle cx="283.259634189638" cy="-247.804946034564" r="2" style="fill: rgb(0,0,0)" />
	<circle cx="309.07998612911" cy="-247.804946034553" r="2" style="fill: rgb(0,0,0)" />
	<circle cx="331.998985071058" cy="-268.390043735077" r="2" style="fill: rgb(0,0,0)" />
	<circle cx="337.876788764615" cy="-288.769740866394" r="2" style="fill: rgb(0,0,0)" />
	<circle cx="360.332250072683" cy="-307.454257795737" r="2" style="fill: rgb(0,0,0)" />
	<circle cx="379.618206882842" cy="-324.622322456492" r="2" style="fill: rgb(0,0,0)" />
	<circle cx="383.186873411074" cy="-349.659374012781" r="2" style="fill: rgb(0,0,0)" />
	<circle cx="360.718803228907" cy="-331.645938646097" r="2" style="fill: rgb(0,0,0)" />
	<circle cx="234.865328570536" cy="-295.371375142997" r="2" style="fill: rgb(0,0,0)" />
	<circle cx="248.61519078221" cy="-279.221393081597" r="2" style="fill: rgb(0,0,0)" />
	<circle cx="245.183959776461" cy="-314.243633761367" r="2" style="fill: rgb(0,0,0)" />
	<circle cx="234.975472842841" cy="-295.651500318694" r="2" style="fill: rgb(0,0,0)" />
	<circle cx="229.127016335266" cy="-341.895065320532" r="2" style="fill: rgb(0,0,0)" />
	<circle cx="224.713129991882" cy="-316.993118834976" r="2" style="fill: rgb(0,0,0)" />
	<circle cx="268.036348947095" cy="-350.353751552031" r="2" style="fill: rgb(0,0,0)" />
	<circle cx="245.264543256561" cy="-361.355305851985" r="2" style="fill: rgb(0,0,0)" />
	<circle cx="366.527500324073" cy="-369.349804128169" r="2" style="fill: rgb(0,0,0)" />
	<circle cx="337.756458071177" cy="-368.114830807714" r="2" style="fill: rgb(0,0,0)" />
	<circle cx="335.740024310559" cy="-389.254653619934" r="2" style="fill: rgb(0,0,0)" />
	<circle cx="309.919672371083" cy="-389.25465361994" r="2" style="fill: rgb(0,0,0)" />
	<circle cx="309.907920269449" cy="-389.253540441151" r="2" style="fill: rgb(0,0,0)" />
	<circle cx="289.020725001321" cy="-369.428730095233" r="2" style="fill: rgb(0,0,0)" />
	<circle cx="268.494882289427" cy="-384.262603784384" r="2" style="fill: rgb(0,0,0)" />
	<circle cx="250.546588868073" cy="-365.700563553309" r="2" style="fill: rgb(0,0,0)" />
	<circle cx="380.411259108508" cy="-353.00223776453" r="2" style="fill: rgb(0,0,0)" />
	<circle cx="366.661396896842" cy="-369.152219825945" r="2" style="fill: rgb(0,0,0)" />
	<circle cx="337.876788764588" cy="-247.599545465327" r="2" style="fill: rgb(0,0,0)" />
	<circle cx="331.998985071067" cy="-267.979242596649" r="2" style="fill: rgb(0,0,0)" />
	<circle cx="286.828300717859" cy="-222.767894478265" r="2" style="fill: rgb(0,0,0)" />
	<circle cx="312.648652657327" cy="-222.767894478252" r="2" style="fill: rgb(0,0,0)" />
	<circle cx="260.42190292432" cy="-255.447238085407" r="2" style="fill: rgb(0,0,0)" />
	<circle cx="266.299706617848" cy="-235.067540954091" r="2" style="fill: rgb(0,0,0)" />
	<circle cx="339.283133676063" cy="-248.469656928482" r="2" style="fill: rgb(0,0,0)" />
	<circle cx="345.160937369619" cy="-268.849354059799" r="2" style="fill: rgb(0,0,0)" />
	<circle cx="408.402400644227" cy="-325.498804588337" r="2" style="fill: rgb(0,0,0)" />
	<circle cx="411.971067172466" cy="-350.535856144622" r="2" style="fill: rgb(0,0,0)" />
	<circle cx="372.883090162621" cy="-290.35580627342" r="2" style="fill: rgb(0,0,0)" />
	<circle cx="392.169046972778" cy="-307.523870934164" r="2" style="fill: rgb(0,0,0)" />
	<circle cx="350.308216440731" cy="-272.264484467746" r="2" style="fill: rgb(0,0,0)" />
	<circle cx="372.776286622897" cy="-290.277919834428" r="2" style="fill: rgb(0,0,0)" />
	<circle cx="227.578712497231" cy="-276.510818826985" r="2" style="fill: rgb(0,0,0)" />
	<circle cx="251.169449155886" cy="-267.39673767065" r="2" style="fill: rgb(0,0,0)" />
	<circle cx="213.82068353354" cy="-292.724953655199" r="2" style="fill: rgb(0,0,0)" />
	<circle cx="227.570545745215" cy="-276.5749715938" r="2" style="fill: rgb(0,0,0)" />
	<circle cx="224.038172848542" cy="-312.589449181758" r="2" style="fill: rgb(0,0,0)" />
	<circle cx="213.829685914928" cy="-293.99731573909" r="2" style="fill: rgb(0,0,0)" />
	<circle cx="243.846500279212" cy="-360.955584452007" r="2" style="fill: rgb(0,0,0)" />
	<circle cx="222.666883798839" cy="-362.097721557679" r="2" style="fill: rgb(0,0,0)" />
	<circle cx="222.426894686054" cy="-362.019403851522" r="2" style="fill: rgb(0,0,0)" />
	<circle cx="218.013008342671" cy="-337.117457365966" r="2" style="fill: rgb(0,0,0)" />
	<circle cx="364.584730234934" cy="-390.471032212846" r="2" style="fill: rgb(0,0,0)" />
	<circle cx="335.813687982046" cy="-389.236058892394" r="2" style="fill: rgb(0,0,0)" />
	<circle cx="364.49927809682" cy="-390.739023209287" r="2" style="fill: rgb(0,0,0)" />
	<circle cx="345.186494532506" cy="-407.06708869224" r="2" style="fill: rgb(0,0,0)" />
	<circle cx="319.366142593031" cy="-407.067088692245" r="2" style="fill: rgb(0,0,0)" />
	<circle cx="290.60688880677" cy="-405.582719102892" r="2" style="fill: rgb(0,0,0)" />
	<circle cx="289.614756940467" cy="-404.345818384707" r="2" style="fill: rgb(0,0,0)" />
	<circle cx="268.72756167234" cy="-384.521008038795" r="2" style="fill: rgb(0,0,0)" />
	<circle cx="249.758294014131" cy="-394.203473526323" r="2" style="fill: rgb(0,0,0)" />
	<circle cx="231.810000592778" cy="-375.641433295257" r="2" style="fill: rgb(0,0,0)" />
	<circle cx="378.844313806453" cy="-374.154668212227" r="2" style="fill: rgb(0,0,0)" />
	<circle cx="365.094451594784" cy="-390.304650273634" r="2" style="fill: rgb(0,0,0)" />
	<circle cx="313.231196049022" cy="-222.857866293165" r="2" style="fill: rgb(0,0,0)" />
	<circle cx="342.027998684492" cy="-222.652465723933" r="2" style="fill: rgb(0,0,0)" />
	<circle cx="273.078438506179" cy="-206.617912416851" r="2" style="fill: rgb(0,0,0)" />
	<circle cx="298.898790445645" cy="-206.617912416839" r="2" style="fill: rgb(0,0,0)" />
	<circle cx="268.971125407126" cy="-232.129514678574" r="2" style="fill: rgb(0,0,0)" />
	<circle cx="272.539791935347" cy="-207.092463122285" r="2" style="fill: rgb(0,0,0)" />
	<circle cx="235.45176750537" cy="-251.437042506428" r="2" style="fill: rgb(0,0,0)" />
	<circle cx="241.329571198896" cy="-231.057345375114" r="2" style="fill: rgb(0,0,0)" />
	<circle cx="366.530361783723" cy="-239.148359171752" r="2" style="fill: rgb(0,0,0)" />
	<circle cx="372.408165477287" cy="-259.528056303061" r="2" style="fill: rgb(0,0,0)" />
	<circle cx="434.222752583724" cy="-325.498804588318" r="2" style="fill: rgb(0,0,0)" />
	<circle cx="437.791419111961" cy="-350.535856144597" r="2" style="fill: rgb(0,0,0)" />
	<circle cx="393.201544585383" cy="-308.332031842665" r="2" style="fill: rgb(0,0,0)" />
	<circle cx="421.985738346767" cy="-309.20851397451" r="2" style="fill: rgb(0,0,0)" />
	<circle cx="417.37230576711" cy="-371.047005626499" r="2" style="fill: rgb(0,0,0)" />
	<circle cx="388.588112005719" cy="-370.170523494659" r="2" style="fill: rgb(0,0,0)" />
	<circle cx="401.665934543441" cy="-289.436077634096" r="2" style="fill: rgb(0,0,0)" />
	<circle cx="420.951891353591" cy="-306.604142294839" r="2" style="fill: rgb(0,0,0)" />
	<circle cx="379.083295884137" cy="-271.127455687787" r="2" style="fill: rgb(0,0,0)" />
	<circle cx="401.551366066292" cy="-289.140891054469" r="2" style="fill: rgb(0,0,0)" />
	<circle cx="207.851188632249" cy="-272.37192532898" r="2" style="fill: rgb(0,0,0)" />
	<circle cx="221.601050843924" cy="-256.221943267589" r="2" style="fill: rgb(0,0,0)" />
	<circle cx="214.084823402061" cy="-331.319410906771" r="2" style="fill: rgb(0,0,0)" />
	<circle cx="203.876336468451" cy="-312.727277464104" r="2" style="fill: rgb(0,0,0)" />
	<circle cx="209.218160971172" cy="-345.423922988542" r="2" style="fill: rgb(0,0,0)" />
	<circle cx="204.80427462779" cy="-320.521976502987" r="2" style="fill: rgb(0,0,0)" />
	<circle cx="386.581789634632" cy="-409.223089742466" r="2" style="fill: rgb(0,0,0)" />
	<circle cx="367.26900607033" cy="-425.551155225417" r="2" style="fill: rgb(0,0,0)" />
	<circle cx="343.192239707918" cy="-428.183517820267" r="2" style="fill: rgb(0,0,0)" />
	<circle cx="317.371887768448" cy="-428.183517820271" r="2" style="fill: rgb(0,0,0)" />
	<circle cx="317.240326127333" cy="-428.170679281961" r="2" style="fill: rgb(0,0,0)" />
	<circle cx="288.481072341077" cy="-426.686309692611" r="2" style="fill: rgb(0,0,0)" />
	<circle cx="271.24561233365" cy="-414.950306012029" r="2" style="fill: rgb(0,0,0)" />
	<circle cx="250.358417065525" cy="-395.125495666117" r="2" style="fill: rgb(0,0,0)" />
	<circle cx="239.19328648352" cy="-412.595353454768" r="2" style="fill: rgb(0,0,0)" />
	<circle cx="221.244993062167" cy="-394.033313223708" r="2" style="fill: rgb(0,0,0)" />
	<circle cx="405.169806726695" cy="-385.827990529665" r="2" style="fill: rgb(0,0,0)" />
	<circle cx="391.419944515034" cy="-401.977972591072" r="2" style="fill: rgb(0,0,0)" />
	<circle cx="300.031208853439" cy="-206.255427633118" r="2" style="fill: rgb(0,0,0)" />
	<circle cx="328.828011488907" cy="-206.050027063886" r="2" style="fill: rgb(0,0,0)" />
	<circle cx="361.708835386052" cy="-205.93854215687" r="2" style="fill: rgb(0,0,0)" />
	<circle cx="384.59062331336" cy="-188.45363973592" r="2" style="fill: rgb(0,0,0)" />
	<circle cx="380.439413393456" cy="-213.400719477314" r="2" style="fill: rgb(0,0,0)" />
	<circle cx="360.758576691895" cy="-230.114643044378" r="2" style="fill: rgb(0,0,0)" />
	<circle cx="291.026731927538" cy="-188.055872185768" r="2" style="fill: rgb(0,0,0)" />
	<circle cx="316.847083866998" cy="-188.055872185762" r="2" style="fill: rgb(0,0,0)" />
	<circle cx="245.840065306764" cy="-221.904868471699" r="2" style="fill: rgb(0,0,0)" />
	<circle cx="249.408731834977" cy="-196.867816915417" r="2" style="fill: rgb(0,0,0)" />
	<circle cx="390.556811322777" cy="-229.69212858941" r="2" style="fill: rgb(0,0,0)" />
	<circle cx="396.434615016345" cy="-250.071825720713" r="2" style="fill: rgb(0,0,0)" />
	<circle cx="448.511261366226" cy="-309.823373232322" r="2" style="fill: rgb(0,0,0)" />
	<circle cx="452.079927894463" cy="-334.860424788598" r="2" style="fill: rgb(0,0,0)" />
	<circle cx="422.152262855912" cy="-309.348822526924" r="2" style="fill: rgb(0,0,0)" />
	<circle cx="447.972614795407" cy="-309.348822526905" r="2" style="fill: rgb(0,0,0)" />
	<circle cx="443.669222805505" cy="-370.915553275917" r="2" style="fill: rgb(0,0,0)" />
	<circle cx="417.848870866012" cy="-370.915553275944" r="2" style="fill: rgb(0,0,0)" />
	<circle cx="427.414008009714" cy="-287.50545932518" r="2" style="fill: rgb(0,0,0)" />
	<circle cx="446.699964819859" cy="-304.673523985921" r="2" style="fill: rgb(0,0,0)" />
	<circle cx="404.813663312864" cy="-268.97367615824" r="2" style="fill: rgb(0,0,0)" />
	<circle cx="427.281733495015" cy="-286.987111524922" r="2" style="fill: rgb(0,0,0)" />
	<circle cx="190.724855262949" cy="-253.763377918022" r="2" style="fill: rgb(0,0,0)" />
	<circle cx="204.474717474617" cy="-237.61339585663" r="2" style="fill: rgb(0,0,0)" />
	<circle cx="193.525953418026" cy="-286.560169720392" r="2" style="fill: rgb(0,0,0)" />
	<circle cx="187.556458516742" cy="-266.207141394179" r="2" style="fill: rgb(0,0,0)" />
	<circle cx="182.755141105559" cy="-314.670403262105" r="2" style="fill: rgb(0,0,0)" />
	<circle cx="192.708490552039" cy="-295.940441537092" r="2" style="fill: rgb(0,0,0)" />
	<circle cx="188.936284086053" cy="-351.630862769237" r="2" style="fill: rgb(0,0,0)" />
	<circle cx="184.52239774267" cy="-326.728916283689" r="2" style="fill: rgb(0,0,0)" />
	<circle cx="202.220327684907" cy="-368.467293541373" r="2" style="fill: rgb(0,0,0)" />
	<circle cx="189.011593970024" cy="-351.871812678404" r="2" style="fill: rgb(0,0,0)" />
	<circle cx="405.867746444905" cy="-426.391154403093" r="2" style="fill: rgb(0,0,0)" />
	<circle cx="386.554962880607" cy="-442.719219886042" r="2" style="fill: rgb(0,0,0)" />
	<circle cx="366.583302855699" cy="-446.75045810371" r="2" style="fill: rgb(0,0,0)" />
	<circle cx="344.500791317876" cy="-428.266391570534" r="2" style="fill: rgb(0,0,0)" />
	<circle cx="364.079434976045" cy="-448.008328166189" r="2" style="fill: rgb(0,0,0)" />
	<circle cx="338.259083036576" cy="-448.008328166191" r="2" style="fill: rgb(0,0,0)" />
	<circle cx="274.308900330119" cy="-442.466999535454" r="2" style="fill: rgb(0,0,0)" />
	<circle cx="276.434716795812" cy="-421.363408945734" r="2" style="fill: rgb(0,0,0)" />
	<circle cx="337.97723773077" cy="-448.152634355768" r="2" style="fill: rgb(0,0,0)" />
	<circle cx="309.217983944514" cy="-446.668264766419" r="2" style="fill: rgb(0,0,0)" />
	<circle cx="261.613595159251" cy="-433.847524764434" r="2" style="fill: rgb(0,0,0)" />
	<circle cx="240.726399891127" cy="-414.022714418525" r="2" style="fill: rgb(0,0,0)" />
	<circle cx="223.675012943995" cy="-432.564642820562" r="2" style="fill: rgb(0,0,0)" />
	<circle cx="205.726719522643" cy="-414.00260258951" r="2" style="fill: rgb(0,0,0)" />
	<circle cx="428.698430743571" cy="-396.462576847507" r="2" style="fill: rgb(0,0,0)" />
	<circle cx="414.948568531918" cy="-412.612558908911" r="2" style="fill: rgb(0,0,0)" />
	<circle cx="318.631757940909" cy="-188.347045575431" r="2" style="fill: rgb(0,0,0)" />
	<circle cx="347.428560576372" cy="-188.141645006203" r="2" style="fill: rgb(0,0,0)" />
	<circle cx="347.438524658091" cy="-188.15199996985" r="2" style="fill: rgb(0,0,0)" />
	<circle cx="360.638511853679" cy="-204.754438629884" r="2" style="fill: rgb(0,0,0)" />
	<circle cx="413.38742594884" cy="-188.248239166677" r="2" style="fill: rgb(0,0,0)" />
	<circle cx="409.236216028943" cy="-213.195318908066" r="2" style="fill: rgb(0,0,0)" />
	<circle cx="349.668490075626" cy="-188.476849334298" r="2" style="fill: rgb(0,0,0)" />
	<circle cx="372.550278002929" cy="-170.991946913349" r="2" style="fill: rgb(0,0,0)" />
	<circle cx="311.913927195665" cy="-168.231061839849" r="2" style="fill: rgb(0,0,0)" />
	<circle cx="337.734279135119" cy="-168.231061839848" r="2" style="fill: rgb(0,0,0)" />
	<circle cx="271.026179288303" cy="-185.507041673866" r="2" style="fill: rgb(0,0,0)" />
	<circle cx="288.974472709661" cy="-166.945001442786" r="2" style="fill: rgb(0,0,0)" />
	<circle cx="243.672337491115" cy="-176.447865609013" r="2" style="fill: rgb(0,0,0)" />
	<circle cx="266.803397591485" cy="-186.672511815881" r="2" style="fill: rgb(0,0,0)" />
	<circle cx="417.259320489765" cy="-240.475172482813" r="2" style="fill: rgb(0,0,0)" />
	<circle cx="423.137124183345" cy="-260.854869614122" r="2" style="fill: rgb(0,0,0)" />
	<circle cx="471.64232146658" cy="-299.598727025428" r="2" style="fill: rgb(0,0,0)" />
	<circle cx="475.21098799482" cy="-324.635778581697" r="2" style="fill: rgb(0,0,0)" />
	<circle cx="461.653402733682" cy="-353.787368834777" r="2" style="fill: rgb(0,0,0)" />
	<circle cx="447.364893951186" cy="-369.462800190776" r="2" style="fill: rgb(0,0,0)" />
	<circle cx="427.882037553566" cy="-266.300234031158" r="2" style="fill: rgb(0,0,0)" />
	<circle cx="447.167994363707" cy="-283.468298691898" r="2" style="fill: rgb(0,0,0)" />
	<circle cx="170.742369889699" cy="-246.651352205743" r="2" style="fill: rgb(0,0,0)" />
	<circle cx="184.492232101368" cy="-230.501370144353" r="2" style="fill: rgb(0,0,0)" />
	<circle cx="187.785473132427" cy="-265.498229605107" r="2" style="fill: rgb(0,0,0)" />
	<circle cx="170.659139763127" cy="-246.88968219415" r="2" style="fill: rgb(0,0,0)" />
	<circle cx="175.701899412479" cy="-268.618808840299" r="2" style="fill: rgb(0,0,0)" />
	<circle cx="169.732404511206" cy="-248.265780514094" r="2" style="fill: rgb(0,0,0)" />
	<circle cx="159.148309795884" cy="-305.598091156639" r="2" style="fill: rgb(0,0,0)" />
	<circle cx="169.101659242361" cy="-286.868129431627" r="2" style="fill: rgb(0,0,0)" />
	<circle cx="163.770506141481" cy="-349.126276602454" r="2" style="fill: rgb(0,0,0)" />
	<circle cx="159.356619798091" cy="-324.224330116913" r="2" style="fill: rgb(0,0,0)" />
	<circle cx="176.934239368773" cy="-368.016661661555" r="2" style="fill: rgb(0,0,0)" />
	<circle cx="163.725505653903" cy="-351.421180798585" r="2" style="fill: rgb(0,0,0)" />
	<circle cx="406.117578212302" cy="-447.600072704418" r="2" style="fill: rgb(0,0,0)" />
	<circle cx="386.804794647993" cy="-463.928138187352" r="2" style="fill: rgb(0,0,0)" />
	<circle cx="386.086933336905" cy="-463.924445180069" r="2" style="fill: rgb(0,0,0)" />
	<circle cx="366.800976526625" cy="-446.756380519443" r="2" style="fill: rgb(0,0,0)" />
	<circle cx="382.027728397398" cy="-466.570368397267" r="2" style="fill: rgb(0,0,0)" />
	<circle cx="356.207376457931" cy="-466.570368397269" r="2" style="fill: rgb(0,0,0)" />
	<circle cx="308.94200185779" cy="-446.95077106548" r="2" style="fill: rgb(0,0,0)" />
	<circle cx="294.769829846837" cy="-462.731460908325" r="2" style="fill: rgb(0,0,0)" />
	<circle cx="355.763925138745" cy="-466.869587241598" r="2" style="fill: rgb(0,0,0)" />
	<circle cx="327.004671352491" cy="-465.385217652244" r="2" style="fill: rgb(0,0,0)" />
	<circle cx="247.600242172322" cy="-454.900203204153" r="2" style="fill: rgb(0,0,0)" />
	<circle cx="226.7130469042" cy="-435.07539285825" r="2" style="fill: rgb(0,0,0)" />
	<circle cx="202.507091626948" cy="-433.90618616297" r="2" style="fill: rgb(0,0,0)" />
	<circle cx="184.558798205597" cy="-415.344145931919" r="2" style="fill: rgb(0,0,0)" />
	<circle cx="438.906917677212" cy="-415.054710290178" r="2" style="fill: rgb(0,0,0)" />
	<circle cx="425.157055465562" cy="-431.204692351579" r="2" style="fill: rgb(0,0,0)" />
	<circle cx="340.235811287112" cy="-169.305960773484" r="2" style="fill: rgb(0,0,0)" />
	<circle cx="369.032613922567" cy="-169.100560204263" r="2" style="fill: rgb(0,0,0)" />
	<circle cx="439.200764539665" cy="-188.850007456437" r="2" style="fill: rgb(0,0,0)" />
	<circle cx="435.049554619771" cy="-213.797087197824" r="2" style="fill: rgb(0,0,0)" />
	<circle cx="390.468427006873" cy="-168.073942604589" r="2" style="fill: rgb(0,0,0)" />
	<circle cx="419.265229642343" cy="-167.868542035349" r="2" style="fill: rgb(0,0,0)" />
	<circle cx="373.137526357286" cy="-149.789688288511" r="2" style="fill: rgb(0,0,0)" />
	<circle cx="385.177871667716" cy="-167.251381111083" r="2" style="fill: rgb(0,0,0)" />
	<circle cx="309.919672371068" cy="-147.114632711827" r="2" style="fill: rgb(0,0,0)" />
	<circle cx="335.740024310518" cy="-147.114632711825" r="2" style="fill: rgb(0,0,0)" />
	<circle cx="289.020725001324" cy="-166.940556236525" r="2" style="fill: rgb(0,0,0)" />
	<circle cx="309.907920269451" cy="-147.115745890607" r="2" style="fill: rgb(0,0,0)" />
	<circle cx="250.54658886807" cy="-170.668722778459" r="2" style="fill: rgb(0,0,0)" />
	<circle cx="268.494882289423" cy="-152.106682547382" r="2" style="fill: rgb(0,0,0)" />
	<circle cx="486.075266340661" cy="-342.852476620816" r="2" style="fill: rgb(0,0,0)" />
	<circle cx="462.944206240304" cy="-353.077122827718" r="2" style="fill: rgb(0,0,0)" />
	<circle cx="492.84845768938" cy="-299.173970713714" r="2" style="fill: rgb(0,0,0)" />
	<circle cx="496.417124217621" cy="-324.211022269976" r="2" style="fill: rgb(0,0,0)" />
	<circle cx="454.247655710066" cy="-289.403421925911" r="2" style="fill: rgb(0,0,0)" />
	<circle cx="477.378715810419" cy="-279.178775719017" r="2" style="fill: rgb(0,0,0)" />
	<circle cx="485.53905191831" cy="-345.476827670012" r="2" style="fill: rgb(0,0,0)" />
	<circle cx="471.250543135813" cy="-361.152259026011" r="2" style="fill: rgb(0,0,0)" />
	<circle cx="156.490761340955" cy="-225.120392448858" r="2" style="fill: rgb(0,0,0)" />
	<circle cx="170.24062355261" cy="-208.970410387462" r="2" style="fill: rgb(0,0,0)" />
	<circle cx="158.799488378243" cy="-281.432439576898" r="2" style="fill: rgb(0,0,0)" />
	<circle cx="152.829993476972" cy="-261.079411250698" r="2" style="fill: rgb(0,0,0)" />
	<circle cx="145.307511054659" cy="-338.686044619962" r="2" style="fill: rgb(0,0,0)" />
	<circle cx="140.893624711269" cy="-313.784098134423" r="2" style="fill: rgb(0,0,0)" />
	<circle cx="416.596414422335" cy="-470.61709516836" r="2" style="fill: rgb(0,0,0)" />
	<circle cx="397.283630858034" cy="-486.945160651294" r="2" style="fill: rgb(0,0,0)" />
	<circle cx="368.277866185714" cy="-482.720350458682" r="2" style="fill: rgb(0,0,0)" />
	<circle cx="342.457514246248" cy="-482.720350458683" r="2" style="fill: rgb(0,0,0)" />
	<circle cx="326.445320920103" cy="-465.932983688944" r="2" style="fill: rgb(0,0,0)" />
	<circle cx="312.27314890916" cy="-481.713673531788" r="2" style="fill: rgb(0,0,0)" />
	<circle cx="312.154509345212" cy="-481.822387889956" r="2" style="fill: rgb(0,0,0)" />
	<circle cx="313.085118140177" cy="-507.095363549545" r="2" style="fill: rgb(0,0,0)" />
	<circle cx="292.624188623458" cy="-486.830902176671" r="2" style="fill: rgb(0,0,0)" />
	<circle cx="275.239509125083" cy="-467.739975195042" r="2" style="fill: rgb(0,0,0)" />
	<circle cx="341.839476839239" cy="-482.869286331853" r="2" style="fill: rgb(0,0,0)" />
	<circle cx="313.080223052983" cy="-481.384916742497" r="2" style="fill: rgb(0,0,0)" />
	<circle cx="226.618286603816" cy="-458.004743741088" r="2" style="fill: rgb(0,0,0)" />
	<circle cx="205.731091335695" cy="-438.179933395181" r="2" style="fill: rgb(0,0,0)" />
	<circle cx="201.639245175697" cy="-459.711949411055" r="2" style="fill: rgb(0,0,0)" />
	<circle cx="183.690951754346" cy="-441.149909180006" r="2" style="fill: rgb(0,0,0)" />
	<circle cx="460.009114818588" cy="-428.993383370104" r="2" style="fill: rgb(0,0,0)" />
	<circle cx="446.259252606939" cy="-445.143365431503" r="2" style="fill: rgb(0,0,0)" />
	<circle cx="449.965027656106" cy="-410.149109906761" r="2" style="fill: rgb(0,0,0)" />
	<circle cx="460.173514589732" cy="-428.741243349421" r="2" style="fill: rgb(0,0,0)" />
	<circle cx="339.049527712868" cy="-148.128771094357" r="2" style="fill: rgb(0,0,0)" />
	<circle cx="367.846330348318" cy="-147.923370525135" r="2" style="fill: rgb(0,0,0)" />
	<circle cx="419.738601671951" cy="-168.011065491522" r="2" style="fill: rgb(0,0,0)" />
	<circle cx="445.551940262771" cy="-168.612833781276" r="2" style="fill: rgb(0,0,0)" />
	<circle cx="384.300509336532" cy="-147.780164665623" r="2" style="fill: rgb(0,0,0)" />
	<circle cx="413.097311971997" cy="-147.574764096383" r="2" style="fill: rgb(0,0,0)" />
	<circle cx="290.606888806572" cy="-130.786567228948" r="2" style="fill: rgb(0,0,0)" />
	<circle cx="319.366142592785" cy="-129.302197639594" r="2" style="fill: rgb(0,0,0)" />
	<circle cx="345.186494532235" cy="-129.302197639593" r="2" style="fill: rgb(0,0,0)" />
	<circle cx="364.499278096731" cy="-145.630263122472" r="2" style="fill: rgb(0,0,0)" />
	<circle cx="268.72756167234" cy="-151.84827829297" r="2" style="fill: rgb(0,0,0)" />
	<circle cx="289.614756940464" cy="-132.023467947056" r="2" style="fill: rgb(0,0,0)" />
	<circle cx="496.402278879616" cy="-325.535679720885" r="2" style="fill: rgb(0,0,0)" />
	<circle cx="507.26655722545" cy="-343.75237776" r="2" style="fill: rgb(0,0,0)" />
	<circle cx="500.225757451794" cy="-279.287893180936" r="2" style="fill: rgb(0,0,0)" />
	<circle cx="503.794423980032" cy="-304.324944737197" r="2" style="fill: rgb(0,0,0)" />
	<circle cx="478.782419872334" cy="-279.626255316085" r="2" style="fill: rgb(0,0,0)" />
	<circle cx="499.988556095119" cy="-279.201499004361" r="2" style="fill: rgb(0,0,0)" />
	<circle cx="506.482087674974" cy="-348.833892566567" r="2" style="fill: rgb(0,0,0)" />
	<circle cx="492.193578892467" cy="-364.509323922562" r="2" style="fill: rgb(0,0,0)" />
	<circle cx="140.767571812845" cy="-200.994071915389" r="2" style="fill: rgb(0,0,0)" />
	<circle cx="154.517434024491" cy="-184.844089853988" r="2" style="fill: rgb(0,0,0)" />
	<circle cx="150.503970452572" cy="-252.99862088191" r="2" style="fill: rgb(0,0,0)" />
	<circle cx="136.25236190383" cy="-231.467661125037" r="2" style="fill: rgb(0,0,0)" />
	<circle cx="120.773745488503" cy="-346.734952708898" r="2" style="fill: rgb(0,0,0)" />
	<circle cx="116.359859145108" cy="-321.833006223364" r="2" style="fill: rgb(0,0,0)" />
	<circle cx="139.52317054292" cy="-358.000807049189" r="2" style="fill: rgb(0,0,0)" />
	<circle cx="121.060175456112" cy="-347.560575066694" r="2" style="fill: rgb(0,0,0)" />
	<circle cx="432.153459671865" cy="-485.034410262667" r="2" style="fill: rgb(0,0,0)" />
	<circle cx="412.840676107567" cy="-501.362475745592" r="2" style="fill: rgb(0,0,0)" />
	<circle cx="387.990992578144" cy="-506.011557930888" r="2" style="fill: rgb(0,0,0)" />
	<circle cx="377.512156368102" cy="-482.994535466946" r="2" style="fill: rgb(0,0,0)" />
	<circle cx="371.846532713937" cy="-507.757402014978" r="2" style="fill: rgb(0,0,0)" />
	<circle cx="346.026180774475" cy="-507.75740201498" r="2" style="fill: rgb(0,0,0)" />
	<circle cx="298.912946129221" cy="-522.876053392388" r="2" style="fill: rgb(0,0,0)" />
	<circle cx="278.452016612503" cy="-502.611592019516" r="2" style="fill: rgb(0,0,0)" />
	<circle cx="340.689184311672" cy="-485.704443528263" r="2" style="fill: rgb(0,0,0)" />
	<circle cx="341.619793106643" cy="-510.977419187848" r="2" style="fill: rgb(0,0,0)" />
	<circle cx="278.353944496051" cy="-502.522962715953" r="2" style="fill: rgb(0,0,0)" />
	<circle cx="260.969264997678" cy="-483.432035734335" r="2" style="fill: rgb(0,0,0)" />
	<circle cx="227.964940274505" cy="-483.78995458317" r="2" style="fill: rgb(0,0,0)" />
	<circle cx="207.077745006388" cy="-463.965144237262" r="2" style="fill: rgb(0,0,0)" />
	<circle cx="201.906498783378" cy="-488.508244431941" r="2" style="fill: rgb(0,0,0)" />
	<circle cx="183.958205362031" cy="-469.946204200893" r="2" style="fill: rgb(0,0,0)" />
	<circle cx="481.053759855593" cy="-431.639804857891" r="2" style="fill: rgb(0,0,0)" />
	<circle cx="467.303897643935" cy="-447.789786919282" r="2" style="fill: rgb(0,0,0)" />
	<circle cx="414.337363077285" cy="-147.49991600965" r="2" style="fill: rgb(0,0,0)" />
	<circle cx="440.150701668102" cy="-148.1016842994" r="2" style="fill: rgb(0,0,0)" />
	<circle cx="379.79385702616" cy="-122.89483934374" r="2" style="fill: rgb(0,0,0)" />
	<circle cx="408.590659661618" cy="-122.689438774498" r="2" style="fill: rgb(0,0,0)" />
	<circle cx="288.481072340867" cy="-109.682976639234" r="2" style="fill: rgb(0,0,0)" />
	<circle cx="317.240326127078" cy="-108.19860704988" r="2" style="fill: rgb(0,0,0)" />
	<circle cx="317.371887768186" cy="-108.18576851157" r="2" style="fill: rgb(0,0,0)" />
	<circle cx="343.192239707627" cy="-108.185768511562" r="2" style="fill: rgb(0,0,0)" />
	<circle cx="505.682132059949" cy="-306.463056503934" r="2" style="fill: rgb(0,0,0)" />
	<circle cx="516.546410405771" cy="-324.679754543047" r="2" style="fill: rgb(0,0,0)" />
	<circle cx="136.163878673079" cy="-231.178318862294" r="2" style="fill: rgb(0,0,0)" />
	<circle cx="120.440689144976" cy="-207.051998328835" r="2" style="fill: rgb(0,0,0)" />
	<circle cx="120.135944387622" cy="-205.915106482524" r="2" style="fill: rgb(0,0,0)" />
	<circle cx="133.885806599269" cy="-189.765124421125" r="2" style="fill: rgb(0,0,0)" />
	<circle cx="93.6970449357734" cy="-356.540579593417" r="2" style="fill: rgb(0,0,0)" />
	<circle cx="89.2831585923768" cy="-331.638633107886" r="2" style="fill: rgb(0,0,0)" />
	<circle cx="112.905229389587" cy="-368.990949913521" r="2" style="fill: rgb(0,0,0)" />
	<circle cx="94.4422343027643" cy="-358.550717931031" r="2" style="fill: rgb(0,0,0)" />
	<circle cx="424.441435420561" cy="-504.793087176153" r="2" style="fill: rgb(0,0,0)" />
	<circle cx="405.128651856263" cy="-521.121152659076" r="2" style="fill: rgb(0,0,0)" />
	<circle cx="404.894035537201" cy="-521.027966715047" r="2" style="fill: rgb(0,0,0)" />
	<circle cx="389.336990287665" cy="-506.610651620746" r="2" style="fill: rgb(0,0,0)" />
	<circle cx="377.724336407481" cy="-528.137099146297" r="2" style="fill: rgb(0,0,0)" />
	<circle cx="351.903984468022" cy="-528.137099146299" r="2" style="fill: rgb(0,0,0)" />
	<circle cx="310.959301674484" cy="-528.198954139261" r="2" style="fill: rgb(0,0,0)" />
	<circle cx="296.787129663529" cy="-543.979643982089" r="2" style="fill: rgb(0,0,0)" />
	<circle cx="270.176753492687" cy="-520.997419799386" r="2" style="fill: rgb(0,0,0)" />
	<circle cx="249.715823975976" cy="-500.732958426508" r="2" style="fill: rgb(0,0,0)" />
	<circle cx="344.846263298154" cy="-531.940971404196" r="2" style="fill: rgb(0,0,0)" />
	<circle cx="316.31158833169" cy="-528.058915765891" r="2" style="fill: rgb(0,0,0)" />
	<circle cx="185.339819957234" cy="-501.75308433643" r="2" style="fill: rgb(0,0,0)" />
	<circle cx="167.391526535889" cy="-483.191044105389" r="2" style="fill: rgb(0,0,0)" />
	<circle cx="487.023254756893" cy="-451.992833184108" r="2" style="fill: rgb(0,0,0)" />
	<circle cx="473.273392545233" cy="-468.142815245489" r="2" style="fill: rgb(0,0,0)" />
	<circle cx="411.353178589951" cy="-122.38649381418" r="2" style="fill: rgb(0,0,0)" />
	<circle cx="437.166517180764" cy="-122.988262103925" r="2" style="fill: rgb(0,0,0)" />
	<circle cx="457.40288012025" cy="-135.763006490183" r="2" style="fill: rgb(0,0,0)" />
	<circle cx="462.804118714915" cy="-156.274155972061" r="2" style="fill: rgb(0,0,0)" />
	<circle cx="392.755670917708" cy="-106.105794937787" r="2" style="fill: rgb(0,0,0)" />
	<circle cx="421.552473553164" cy="-105.900394368549" r="2" style="fill: rgb(0,0,0)" />
	<circle cx="309.217983944305" cy="-89.7010215654195" r="2" style="fill: rgb(0,0,0)" />
	<circle cx="337.977237730508" cy="-88.2166519760767" r="2" style="fill: rgb(0,0,0)" />
	<circle cx="338.259083036313" cy="-88.3609581656519" r="2" style="fill: rgb(0,0,0)" />
	<circle cx="364.079434975748" cy="-88.3609581656486" r="2" style="fill: rgb(0,0,0)" />
	<circle cx="504.64704425104" cy="-281.194144286545" r="2" style="fill: rgb(0,0,0)" />
	<circle cx="515.511322596858" cy="-299.410842325657" r="2" style="fill: rgb(0,0,0)" />
	<circle cx="537.58498561197" cy="-321.985504235867" r="2" style="fill: rgb(0,0,0)" />
	<circle cx="528.305132431638" cy="-341.058127452818" r="2" style="fill: rgb(0,0,0)" />
	<circle cx="97.323965786738" cy="-188.339223468196" r="2" style="fill: rgb(0,0,0)" />
	<circle cx="111.073827998373" cy="-172.189241406794" r="2" style="fill: rgb(0,0,0)" />
	<circle cx="80.7238302652439" cy="-378.865146227318" r="2" style="fill: rgb(0,0,0)" />
	<circle cx="64.9905868961271" cy="-402.984911659609" r="2" style="fill: rgb(0,0,0)" />
	<circle cx="60.5767005527314" cy="-378.082965174079" r="2" style="fill: rgb(0,0,0)" />
	<circle cx="73.5499152232613" cy="-355.758398540177" r="2" style="fill: rgb(0,0,0)" />
	<circle cx="445.20758354387" cy="-500.474786174025" r="2" style="fill: rgb(0,0,0)" />
	<circle cx="425.89479997957" cy="-516.802851656944" r="2" style="fill: rgb(0,0,0)" />
	<circle cx="371.846532713943" cy="-548.516796277618" r="2" style="fill: rgb(0,0,0)" />
	<circle cx="346.026180774491" cy="-548.516796277621" r="2" style="fill: rgb(0,0,0)" />
	<circle cx="336.966861484537" cy="-540.564424779194" r="2" style="fill: rgb(0,0,0)" />
	<circle cx="322.794689473591" cy="-556.345114622019" r="2" style="fill: rgb(0,0,0)" />
	<circle cx="268.027875877266" cy="-542.495274392748" r="2" style="fill: rgb(0,0,0)" />
	<circle cx="270.153692342948" cy="-521.391683803054" r="2" style="fill: rgb(0,0,0)" />
	<circle cx="425.475697012104" cy="-106.56135227168" r="2" style="fill: rgb(0,0,0)" />
	<circle cx="451.289035602915" cy="-107.163120561424" r="2" style="fill: rgb(0,0,0)" />
	<circle cx="451.816476002611" cy="-107.650096048543" r="2" style="fill: rgb(0,0,0)" />
	<circle cx="454.800660489948" cy="-132.763518244018" r="2" style="fill: rgb(0,0,0)" />
	<circle cx="482.459694616016" cy="-132.335853335284" r="2" style="fill: rgb(0,0,0)" />
	<circle cx="487.860933210687" cy="-152.847002817157" r="2" style="fill: rgb(0,0,0)" />
	<circle cx="327.004671352284" cy="-70.9840686795985" r="2" style="fill: rgb(0,0,0)" />
	<circle cx="355.763925138484" cy="-69.4996990902635" r="2" style="fill: rgb(0,0,0)" />
	<circle cx="356.20737645767" cy="-69.7989179345752" r="2" style="fill: rgb(0,0,0)" />
	<circle cx="382.0277283971" cy="-69.7989179345724" r="2" style="fill: rgb(0,0,0)" />
	<circle cx="561.5" cy="-330.211160333892" r="2" style="fill: rgb(0,0,0)" />
	<circle cx="552.220146819668" cy="-349.283783550842" r="2" style="fill: rgb(0,0,0)" />
	<circle cx="76.1771868796685" cy="-173.523545416392" r="2" style="fill: rgb(0,0,0)" />
	<circle cx="89.9270490912986" cy="-157.373563354992" r="2" style="fill: rgb(0,0,0)" />
	<circle cx="37.9138863433969" cy="-412.790538544131" r="2" style="fill: rgb(0,0,0)" />
	<circle cx="33.5" cy="-387.88859205861" r="2" style="fill: rgb(0,0,0)" />
	<circle cx="437.31188150223" cy="-534.678278391134" r="2" style="fill: rgb(0,0,0)" />
	<circle cx="416.545733378922" cy="-538.996579393261" r="2" style="fill: rgb(0,0,0)" />
	<circle cx="368.277866185725" cy="-573.553847833921" r="2" style="fill: rgb(0,0,0)" />
	<circle cx="342.457514246274" cy="-573.553847833922" r="2" style="fill: rgb(0,0,0)" />
	<circle cx="475.17954849714" cy="-97.9673188106953" r="2" style="fill: rgb(0,0,0)" />
	<circle cx="478.16373298448" cy="-123.080741006164" r="2" style="fill: rgb(0,0,0)" />
	<circle cx="313.080223052794" cy="-54.9843695893349" r="2" style="fill: rgb(0,0,0)" />
	<circle cx="341.83947683899" cy="-53.5" r="2" style="fill: rgb(0,0,0)" />
	<circle cx="342.457514245992" cy="-53.6489358731567" r="2" style="fill: rgb(0,0,0)" />
	<circle cx="368.277866185418" cy="-53.6489358731589" r="2" style="fill: rgb(0,0,0)" />
	<circle cx="457.044982127158" cy="-550.495802569995" r="2" style="fill: rgb(0,0,0)" />
	<circle cx="436.278834003852" cy="-554.814103572121" r="2" style="fill: rgb(0,0,0)" />
	<!--
	Generated using the Perl SVG Module V2.86
	by Ronan Oger
	Info: http://www.roitsystems.com/
	-->
</svg>