<?xml version="1.0" encoding="UTF-8" standalone="yes"?>
<!DOCTYPE svg PUBLIC "-//W3C//DTD SVG 1.0//EN" "http://www.w3.org/TR/2001/REC-SVG-20010904/DTD/svg10.dtd">
<!-- generated using polymake; Michael Joswig, Georg Loho, Benjamin Lorenz, Rico Raber; license CC BY-NC-ND 3.0; see polymake.org and matchthenet.de -->
<svg height="841pt" id="document" viewBox="0 -656.717360817818 572 656.717360817818" width="595pt" xmlns="http://www.w3.org/2000/svg" xmlns:svg="http://www.w3.org/2000/svg" xmlns:xlink="http://www.w3.org/1999/xlink">
	<title id="document_title">planar_net_</title>
	<polygon points="322.762756871387,-336.858680408919 345.077886311377,-336.858680408919 338.211692637538,-358.091211731326 315.896563197557,-358.091211731339 " style="fill: rgb(157,116,59); fill-opacity: 1; stroke: rgb(0,0,0); stroke-width: 3" />
	<polygon points="384.68547869004,-375.2617368868 365.305022930545,-346.283538291836 380.755164378191,-330.182043604343 400.135620137683,-359.160242199303 " style="fill: rgb(157,116,59); fill-opacity: 1; stroke: rgb(0,0,0); stroke-width: 3" />
	<polygon points="322.762756871387,-336.858680408919 292.95667702596,-318.777318084611 315.271806465951,-318.777318084611 345.077886311377,-336.858680408919 " style="fill: rgb(157,116,59); fill-opacity: 1; stroke: rgb(0,0,0); stroke-width: 3" />
	<polygon points="345.077886311377,-336.858680408919 315.271806465951,-318.777318084611 293.662675857984,-291.420718631778 323.468755703411,-309.502080956086 " style="fill: rgb(157,116,59); fill-opacity: 1; stroke: rgb(0,0,0); stroke-width: 3" />
	<polygon points="353.110946370835,-370.782241621386 345.077886311377,-336.858680408919 364.458342070873,-365.836879003884 372.491402130327,-399.760440216347 " style="fill: rgb(157,116,59); fill-opacity: 1; stroke: rgb(0,0,0); stroke-width: 3" />
	<polygon points="345.077886311377,-336.858680408919 323.468755703411,-309.502080956086 320.724870534453,-287.356289118739 342.334001142419,-314.712888571572 " style="fill: rgb(157,116,59); fill-opacity: 1; stroke: rgb(0,0,0); stroke-width: 3" />
	<polygon points="338.211692637538,-358.091211731326 345.077886311377,-336.858680408919 353.110946370835,-370.782241621386 346.244752696993,-392.014772943789 " style="fill: rgb(157,116,59); fill-opacity: 1; stroke: rgb(0,0,0); stroke-width: 3" />
	<polygon points="365.305022930549,-327.433822525989 345.077886311377,-336.858680408919 342.334001142419,-314.712888571572 362.561137761585,-305.288030688652 " style="fill: rgb(157,116,59); fill-opacity: 1; stroke: rgb(0,0,0); stroke-width: 3" />
	<polygon points="292.95667702596,-318.777318084611 270.016790854375,-292.526609871503 292.331920294357,-292.526609871497 315.271806465951,-318.777318084611 " style="fill: rgb(157,116,59); fill-opacity: 1; stroke: rgb(0,0,0); stroke-width: 3" />
	<polygon points="364.458342070873,-365.836879003884 345.077886311377,-336.858680408919 365.305022930545,-346.283538291836 384.68547869004,-375.2617368868 " style="fill: rgb(157,116,59); fill-opacity: 1; stroke: rgb(0,0,0); stroke-width: 3" />
	<polygon points="397.23713474479,-306.478517204034 362.40823620173,-304.966602678621 340.799105593766,-277.610003225795 375.628004136831,-279.121917751211 " style="fill: rgb(157,116,59); fill-opacity: 1; stroke: rgb(0,0,0); stroke-width: 3" />
	<polygon points="372.491402130327,-399.760440216347 364.458342070873,-365.836879003884 384.19292468154,-376.253752388277 392.225984740992,-410.177313600739 " style="fill: rgb(157,116,59); fill-opacity: 1; stroke: rgb(0,0,0); stroke-width: 3" />
	<polygon points="322.762756871387,-336.858680408919 315.896563197557,-358.091211731339 285.805873629854,-340.487562660904 292.672067303677,-319.255031338482 " style="fill: rgb(157,116,59); fill-opacity: 1; stroke: rgb(0,0,0); stroke-width: 3" />
	<polygon points="315.896563197557,-358.091211731339 322.227203821584,-392.373292306247 292.136514253885,-374.769643235816 285.805873629854,-340.487562660904 " style="fill: rgb(157,116,59); fill-opacity: 1; stroke: rgb(0,0,0); stroke-width: 3" />
	<polygon points="323.468755703411,-309.502080956086 293.662675857984,-291.420718631778 289.823346833759,-269.438349456292 319.629426679184,-287.519711780599 " style="fill: rgb(157,116,59); fill-opacity: 1; stroke: rgb(0,0,0); stroke-width: 3" />
	<polygon points="315.896563197557,-358.091211731339 338.211692637538,-358.091211731326 345.702643042975,-392.138586391912 323.387513602995,-392.138586391926 " style="fill: rgb(157,116,59); fill-opacity: 1; stroke: rgb(0,0,0); stroke-width: 3" />
	<polygon points="362.40823620173,-304.966602678621 342.334001142419,-314.712888571572 320.724870534453,-287.356289118739 340.799105593766,-277.610003225795 " style="fill: rgb(157,116,59); fill-opacity: 1; stroke: rgb(0,0,0); stroke-width: 3" />
	<polygon points="346.244752696993,-392.014772943789 353.110946370835,-370.782241621386 371.029698943404,-400.686361161973 364.163505269571,-421.918892484388 " style="fill: rgb(157,116,59); fill-opacity: 1; stroke: rgb(0,0,0); stroke-width: 3" />
	<polygon points="323.387513602995,-392.138586391926 345.702643042975,-392.138586391912 360.059787122256,-423.906659565177 337.744657682277,-423.906659565191 " style="fill: rgb(157,116,59); fill-opacity: 1; stroke: rgb(0,0,0); stroke-width: 3" />
	<polygon points="375.628004136831,-279.121917751211 340.799105593766,-277.610003225795 343.408005490932,-242.846060690724 378.23690403399,-244.357975216134 " style="fill: rgb(157,116,59); fill-opacity: 1; stroke: rgb(0,0,0); stroke-width: 3" />
	<polygon points="292.672067303677,-319.255031338482 285.805873629854,-340.487562660904 259.99658229675,-317.052150564295 266.86277597056,-295.819619241867 " style="fill: rgb(157,116,59); fill-opacity: 1; stroke: rgb(0,0,0); stroke-width: 3" />
	<polygon points="364.163505269571,-421.918892484388 371.029698943404,-400.686361161973 387.988114904926,-415.190744292589 381.121921231102,-436.423275614999 " style="fill: rgb(157,116,59); fill-opacity: 1; stroke: rgb(0,0,0); stroke-width: 3" />
	<polygon points="292.331920294357,-292.526609871497 270.016790854375,-292.526609871503 261.434048762067,-271.92802884997 283.749178202046,-271.928028849964 " style="fill: rgb(157,116,59); fill-opacity: 1; stroke: rgb(0,0,0); stroke-width: 3" />
	<polygon points="422.996192379853,-426.56427125362 440.666224404614,-412.935809485413 467.391531064091,-435.32098411534 449.721499039336,-448.949445883548 " style="fill: rgb(157,116,59); fill-opacity: 1; stroke: rgb(0,0,0); stroke-width: 3" />
	<polygon points="319.629426679184,-287.519711780599 289.823346833759,-269.438349456292 308.227569160989,-256.818935743546 338.033649006417,-274.900298067857 " style="fill: rgb(157,116,59); fill-opacity: 1; stroke: rgb(0,0,0); stroke-width: 3" />
	<polygon points="392.225984740992,-410.177313600739 384.19292468154,-376.253752388277 401.862956706313,-362.625290620081 409.896016765761,-396.548851832533 " style="fill: rgb(157,116,59); fill-opacity: 1; stroke: rgb(0,0,0); stroke-width: 3" />
	<polygon points="323.387513602998,-455.674732738464 315.896563197562,-489.722107399056 285.225535864263,-506.293955261476 292.716486269695,-472.246580600886 " style="fill: rgb(157,116,59); fill-opacity: 1; stroke: rgb(0,0,0); stroke-width: 3" />
	<polygon points="440.827466724343,-412.629382380829 474.480988382081,-403.5311111556 503.355184812312,-423.066178080599 469.701663154577,-432.164449305826 " style="fill: rgb(157,116,59); fill-opacity: 1; stroke: rgb(0,0,0); stroke-width: 3" />
	<polygon points="266.86277597056,-295.819619241867 259.99658229675,-317.052150564295 225.352125376425,-320.937979169754 232.218319050228,-299.70544784733 " style="fill: rgb(157,116,59); fill-opacity: 1; stroke: rgb(0,0,0); stroke-width: 3" />
	<polygon points="381.121921231102,-436.423275614999 387.988114904926,-415.190744292589 405.906867477521,-445.094863833163 399.0406738037,-466.327395155578 " style="fill: rgb(157,116,59); fill-opacity: 1; stroke: rgb(0,0,0); stroke-width: 3" />
	<polygon points="399.0406738037,-466.327395155578 405.906867477521,-445.094863833163 413.93992753701,-479.018425045623 407.073733863189,-500.250956368036 " style="fill: rgb(157,116,59); fill-opacity: 1; stroke: rgb(0,0,0); stroke-width: 3" />
	<polygon points="283.749178202046,-271.928028849964 261.434048762067,-271.92802884997 238.494162590482,-245.677320636862 260.809292030454,-245.677320636851 " style="fill: rgb(157,116,59); fill-opacity: 1; stroke: rgb(0,0,0); stroke-width: 3" />
	<polygon points="397.23713474479,-306.478517204034 375.628004136831,-279.121917751211 402.289936285103,-256.661298138741 423.899066893064,-284.017897591555 " style="fill: rgb(157,116,59); fill-opacity: 1; stroke: rgb(0,0,0); stroke-width: 3" />
	<polygon points="381.121921231102,-436.423275614999 399.0406738037,-466.327395155578 405.380629876153,-500.607754200581 387.461877303554,-470.703634660001 " style="fill: rgb(157,116,59); fill-opacity: 1; stroke: rgb(0,0,0); stroke-width: 3" />
	<polygon points="409.896016765761,-396.548851832533 401.862956706313,-362.625290620081 432.794406664899,-378.705821168382 440.827466724343,-412.629382380829 " style="fill: rgb(157,116,59); fill-opacity: 1; stroke: rgb(0,0,0); stroke-width: 3" />
	<polygon points="200.655022685593,-193.672397100095 182.736270113026,-163.768277559506 189.602463786861,-142.535746237093 207.521216359436,-172.439865777694 " style="fill: rgb(157,116,59); fill-opacity: 1; stroke: rgb(0,0,0); stroke-width: 3" />
	<polygon points="308.715547821599,-423.762493161409 323.072691900881,-455.53056633467 290.867893406632,-468.879312088482 276.510749327347,-437.111238915228 " style="fill: rgb(157,116,59); fill-opacity: 1; stroke: rgb(0,0,0); stroke-width: 3" />
	<polygon points="285.805873629854,-340.487562660904 292.136514253885,-374.769643235816 258.070994530471,-382.177640618964 251.740353906435,-347.895560044059 " style="fill: rgb(157,116,59); fill-opacity: 1; stroke: rgb(0,0,0); stroke-width: 3" />
	<polygon points="337.744657682277,-423.906659565191 360.059787122256,-423.906659565177 345.702643042978,-455.674732738442 323.387513602998,-455.674732738464 " style="fill: rgb(157,116,59); fill-opacity: 1; stroke: rgb(0,0,0); stroke-width: 3" />
	<polygon points="292.136514253885,-374.769643235816 322.227203821584,-392.373292306247 303.683902767175,-421.894200917952 273.593213199479,-404.290551847529 " style="fill: rgb(157,116,59); fill-opacity: 1; stroke: rgb(0,0,0); stroke-width: 3" />
	<polygon points="270.016790854375,-292.526609871503 236.962334745514,-281.447756564316 228.3795926532,-260.849175542781 261.434048762067,-271.92802884997 " style="fill: rgb(157,116,59); fill-opacity: 1; stroke: rgb(0,0,0); stroke-width: 3" />
	<polygon points="289.823346833759,-269.438349456292 283.699143656782,-235.118789512986 302.103365984008,-222.499375800232 308.227569160989,-256.818935743546 " style="fill: rgb(157,116,59); fill-opacity: 1; stroke: rgb(0,0,0); stroke-width: 3" />
	<polygon points="378.23690403399,-244.357975216134 343.408005490932,-242.846060690724 369.412218696104,-219.627125425828 404.241117239154,-221.139039951244 " style="fill: rgb(157,116,59); fill-opacity: 1; stroke: rgb(0,0,0); stroke-width: 3" />
	<polygon points="292.136514253885,-374.769643235816 272.903036025469,-403.845601938712 238.837516302062,-411.253599321854 258.070994530471,-382.177640618964 " style="fill: rgb(157,116,59); fill-opacity: 1; stroke: rgb(0,0,0); stroke-width: 3" />
	<polygon points="259.99658229675,-317.052150564295 285.805873629854,-340.487562660904 251.201720795909,-344.717298574674 225.39242946281,-321.281886478067 " style="fill: rgb(157,116,59); fill-opacity: 1; stroke: rgb(0,0,0); stroke-width: 3" />
	<polygon points="338.033649006417,-274.900298067857 308.227569160989,-256.818935743546 302.444540079029,-222.440241267281 332.250619924454,-240.521603591589 " style="fill: rgb(157,116,59); fill-opacity: 1; stroke: rgb(0,0,0); stroke-width: 3" />
	<polygon points="323.387513602995,-392.138586391926 337.744657682277,-423.906659565191 323.072691900881,-455.53056633467 308.715547821599,-423.762493161409 " style="fill: rgb(157,116,59); fill-opacity: 1; stroke: rgb(0,0,0); stroke-width: 3" />
	<polygon points="231.003212185027,-227.595958312543 208.688082745055,-227.595958312553 215.554276418889,-206.36342699014 237.869405858858,-206.363426990123 " style="fill: rgb(157,116,59); fill-opacity: 1; stroke: rgb(0,0,0); stroke-width: 3" />
	<polygon points="364.163505269571,-421.918892484388 381.121921231102,-436.423275614999 381.49269221217,-471.2830029251 364.534276250641,-456.778619794497 " style="fill: rgb(157,116,59); fill-opacity: 1; stroke: rgb(0,0,0); stroke-width: 3" />
	<polygon points="392.225984740992,-410.177313600739 409.896016765761,-396.548851832533 440.666224404614,-412.935809485413 422.996192379853,-426.56427125362 " style="fill: rgb(157,116,59); fill-opacity: 1; stroke: rgb(0,0,0); stroke-width: 3" />
	<polygon points="261.434048762067,-271.92802884997 230.767525732044,-255.347847171115 207.827639560468,-229.097138958017 238.494162590482,-245.677320636862 " style="fill: rgb(157,116,59); fill-opacity: 1; stroke: rgb(0,0,0); stroke-width: 3" />
	<polygon points="273.593213199479,-404.290551847529 303.683902767175,-421.894200917952 269.845789395857,-430.279911545283 239.755099828171,-412.676262474859 " style="fill: rgb(157,116,59); fill-opacity: 1; stroke: rgb(0,0,0); stroke-width: 3" />
	<polygon points="323.387513602998,-455.674732738464 345.702643042978,-455.674732738442 338.211692637541,-489.722107399026 315.896563197562,-489.722107399056 " style="fill: rgb(157,116,59); fill-opacity: 1; stroke: rgb(0,0,0); stroke-width: 3" />
	<polygon points="283.699143656782,-235.118789512986 270.623136602651,-202.802290649785 289.027358929873,-190.182876937026 302.103365984008,-222.499375800232 " style="fill: rgb(157,116,59); fill-opacity: 1; stroke: rgb(0,0,0); stroke-width: 3" />
	<polygon points="375.628004136831,-279.121917751211 378.23690403399,-244.357975216134 404.362412751539,-221.275604161486 401.753512854378,-256.039546696564 " style="fill: rgb(157,116,59); fill-opacity: 1; stroke: rgb(0,0,0); stroke-width: 3" />
	<polygon points="238.494162590482,-245.677320636862 208.688082745055,-227.595958312553 231.003212185027,-227.595958312543 260.809292030454,-245.677320636851 " style="fill: rgb(157,116,59); fill-opacity: 1; stroke: rgb(0,0,0); stroke-width: 3" />
	<polygon points="225.352125376425,-320.937979169754 200.147006393515,-345.021999521693 165.446501191705,-341.673418031861 190.651620174609,-317.589397679922 " style="fill: rgb(157,116,59); fill-opacity: 1; stroke: rgb(0,0,0); stroke-width: 3" />
	<polygon points="232.218319050228,-299.70544784733 225.352125376425,-320.937979169754 190.651620174609,-317.589397679922 197.517813848406,-296.356866357501 " style="fill: rgb(157,116,59); fill-opacity: 1; stroke: rgb(0,0,0); stroke-width: 3" />
	<polygon points="251.740353906435,-347.895560044059 258.070994530471,-382.177640618964 238.68544078457,-411.152429060295 232.354800160536,-376.870348485389 " style="fill: rgb(157,116,59); fill-opacity: 1; stroke: rgb(0,0,0); stroke-width: 3" />
	<polygon points="197.517813848406,-296.356866357501 190.651620174609,-317.589397679922 172.561840687721,-304.523224558486 179.42803436151,-283.290693236067 " style="fill: rgb(157,116,59); fill-opacity: 1; stroke: rgb(0,0,0); stroke-width: 3" />
	<polygon points="493.096293660344,-374.055554016639 486.043260792224,-339.914775076844 514.91745722245,-359.449842001835 521.970490090577,-393.590620941632 " style="fill: rgb(157,116,59); fill-opacity: 1; stroke: rgb(0,0,0); stroke-width: 3" />
	<polygon points="208.688082745055,-227.595958312553 200.655022685593,-193.672397100095 207.521216359436,-172.439865777694 215.554276418889,-206.36342699014 " style="fill: rgb(157,116,59); fill-opacity: 1; stroke: rgb(0,0,0); stroke-width: 3" />
	<polygon points="98.7770623161785,-321.6654330837 91.910868642393,-342.897964406109 59.8752630411906,-356.647801969486 66.7414567149698,-335.415270647083 " style="fill: rgb(157,116,59); fill-opacity: 1; stroke: rgb(0,0,0); stroke-width: 3" />
	<polygon points="423.899066893064,-284.017897591555 402.289936285103,-256.661298138741 405.898647262543,-221.98688012868 427.507777870502,-249.343479581496 " style="fill: rgb(157,116,59); fill-opacity: 1; stroke: rgb(0,0,0); stroke-width: 3" />
	<polygon points="236.962334745514,-281.447756564316 208.80796958252,-260.888822216356 200.225227490208,-240.290241194823 228.3795926532,-260.849175542781 " style="fill: rgb(157,116,59); fill-opacity: 1; stroke: rgb(0,0,0); stroke-width: 3" />
	<polygon points="474.480988382081,-403.5311111556 466.44792832263,-369.607549943158 484.363815969737,-339.701713906169 492.396876029183,-373.625275118609 " style="fill: rgb(157,116,59); fill-opacity: 1; stroke: rgb(0,0,0); stroke-width: 3" />
	<polygon points="440.827466724343,-412.629382380829 432.794406664899,-378.705821168382 466.44792832263,-369.607549943158 474.480988382081,-403.5311111556 " style="fill: rgb(157,116,59); fill-opacity: 1; stroke: rgb(0,0,0); stroke-width: 3" />
	<polygon points="225.39242946281,-321.281886478067 251.201720795909,-344.717298574674 228.591408479447,-371.252404306651 202.782117146347,-347.816992210052 " style="fill: rgb(157,116,59); fill-opacity: 1; stroke: rgb(0,0,0); stroke-width: 3" />
	<polygon points="332.250619924454,-240.521603591589 302.444540079029,-222.440241267281 321.456346728817,-193.218857536078 351.26242657424,-211.300219860378 " style="fill: rgb(157,116,59); fill-opacity: 1; stroke: rgb(0,0,0); stroke-width: 3" />
	<polygon points="364.534276250641,-456.778619794497 381.49269221217,-471.2830029251 392.391347054406,-504.397310737355 375.432931092877,-489.892927606751 " style="fill: rgb(157,116,59); fill-opacity: 1; stroke: rgb(0,0,0); stroke-width: 3" />
	<polygon points="407.073733863189,-500.250956368036 413.93992753701,-479.018425045623 436.255056977005,-479.0184250456 429.388863303195,-500.250956368011 " style="fill: rgb(157,116,59); fill-opacity: 1; stroke: rgb(0,0,0); stroke-width: 3" />
	<polygon points="302.103365984008,-222.499375800232 289.027358929873,-190.182876937026 304.951505945975,-159.170627727 318.027513000111,-191.487126590203 " style="fill: rgb(157,116,59); fill-opacity: 1; stroke: rgb(0,0,0); stroke-width: 3" />
	<polygon points="269.845789395857,-430.279911545283 279.117895845729,-463.885954175105 249.027206278045,-446.282305104676 239.755099828171,-412.676262474859 " style="fill: rgb(157,116,59); fill-opacity: 1; stroke: rgb(0,0,0); stroke-width: 3" />
	<polygon points="232.354800160536,-376.870348485389 238.68544078457,-411.152429060295 210.230127826373,-391.012090838055 203.899487202346,-356.730010263151 " style="fill: rgb(157,116,59); fill-opacity: 1; stroke: rgb(0,0,0); stroke-width: 3" />
	<polygon points="315.896563197562,-489.722107399056 338.211692637541,-489.722107399026 345.077886311387,-510.95463872143 322.762756871415,-510.954638721458 " style="fill: rgb(157,116,59); fill-opacity: 1; stroke: rgb(0,0,0); stroke-width: 3" />
	<polygon points="239.755099828171,-412.676262474859 249.027206278045,-446.282305104676 232.220444496711,-476.825239110445 222.94833804684,-443.219196480623 " style="fill: rgb(157,116,59); fill-opacity: 1; stroke: rgb(0,0,0); stroke-width: 3" />
	<polygon points="385.229989112479,-203.455300838129 351.26242657424,-211.300219860378 321.456346728817,-193.218857536078 355.423909267064,-185.373938513825 " style="fill: rgb(157,116,59); fill-opacity: 1; stroke: rgb(0,0,0); stroke-width: 3" />
	<polygon points="435.979364577071,-163.390038461283 402.521778913185,-173.184323570405 393.786875253271,-139.434664056458 427.244460917157,-129.640378947336 " style="fill: rgb(157,116,59); fill-opacity: 1; stroke: rgb(0,0,0); stroke-width: 3" />
	<polygon points="237.869405858858,-206.363426990123 215.554276418889,-206.36342699014 208.063326013449,-172.316052329551 230.378455453418,-172.316052329534 " style="fill: rgb(157,116,59); fill-opacity: 1; stroke: rgb(0,0,0); stroke-width: 3" />
	<polygon points="279.117895845729,-463.885954175105 262.471390270674,-494.51652569107 232.380700702994,-476.912876620644 249.027206278045,-446.282305104676 " style="fill: rgb(157,116,59); fill-opacity: 1; stroke: rgb(0,0,0); stroke-width: 3" />
	<polygon points="190.651620174609,-317.589397679922 165.446501191705,-341.673418031861 146.923523121798,-329.228970059144 172.128642104707,-305.14494970721 " style="fill: rgb(157,116,59); fill-opacity: 1; stroke: rgb(0,0,0); stroke-width: 3" />
	<polygon points="503.355184812312,-423.066178080599 521.970490090577,-393.590620941632 556.447772863569,-388.427769806167 537.832467585303,-417.903326945123 " style="fill: rgb(157,116,59); fill-opacity: 1; stroke: rgb(0,0,0); stroke-width: 3" />
	<polygon points="385.229989112479,-203.455300838129 355.423909267064,-185.373938513825 346.68900560715,-151.624278999879 376.495085452563,-169.705641324189 " style="fill: rgb(157,116,59); fill-opacity: 1; stroke: rgb(0,0,0); stroke-width: 3" />
	<polygon points="350.740085867619,-179.436166643232 318.027513000111,-191.487126590203 304.951505945975,-159.170627727 337.664078813479,-147.119667780034 " style="fill: rgb(157,116,59); fill-opacity: 1; stroke: rgb(0,0,0); stroke-width: 3" />
	<polygon points="407.073733863189,-500.250956368036 429.388863303195,-500.250956368011 459.194943148622,-518.33231869232 436.879813708616,-518.332318692345 " style="fill: rgb(157,116,59); fill-opacity: 1; stroke: rgb(0,0,0); stroke-width: 3" />
	<polygon points="237.869405858846,-74.732531322398 230.378455453409,-108.779905982988 208.063326013438,-108.779905983011 215.554276418874,-74.7325313224259 " style="fill: rgb(157,116,59); fill-opacity: 1; stroke: rgb(0,0,0); stroke-width: 3" />
	<polygon points="402.521778913185,-173.184323570405 385.229989112479,-203.455300838129 376.495085452563,-169.705641324189 393.786875253271,-139.434664056458 " style="fill: rgb(157,116,59); fill-opacity: 1; stroke: rgb(0,0,0); stroke-width: 3" />
	<polygon points="203.899487202346,-356.730010263151 210.230127826373,-391.012090838055 175.765550098979,-396.259084389398 169.434909474951,-361.9770038145 " style="fill: rgb(157,116,59); fill-opacity: 1; stroke: rgb(0,0,0); stroke-width: 3" />
	<polygon points="146.923523121798,-329.228970059144 165.446501191705,-341.673418031861 135.813099310559,-360.036412128844 117.29012124064,-347.591964156138 " style="fill: rgb(157,116,59); fill-opacity: 1; stroke: rgb(0,0,0); stroke-width: 3" />
	<polygon points="169.434909474951,-361.9770038145 175.765550098979,-396.259084389398 153.946503735607,-423.448554318925 147.615863111584,-389.166473744036 " style="fill: rgb(157,116,59); fill-opacity: 1; stroke: rgb(0,0,0); stroke-width: 3" />
	<polygon points="429.388863303195,-500.250956368011 436.255056977005,-479.0184250456 466.34574654472,-496.622074116013 459.479552870919,-517.854605438427 " style="fill: rgb(157,116,59); fill-opacity: 1; stroke: rgb(0,0,0); stroke-width: 3" />
	<polygon points="179.42803436151,-283.290693236067 172.561840687721,-304.523224558486 146.186577646527,-327.319793571447 153.052771320316,-306.087262249029 " style="fill: rgb(157,116,59); fill-opacity: 1; stroke: rgb(0,0,0); stroke-width: 3" />
	<polygon points="315.896563197562,-489.722107399056 322.037902278563,-511.17552102523 291.366874945259,-527.747368887653 285.225535864263,-506.293955261476 " style="fill: rgb(157,116,59); fill-opacity: 1; stroke: rgb(0,0,0); stroke-width: 3" />
	<polygon points="179.42803436151,-283.290693236067 153.052771320316,-306.087262249029 120.374389032876,-318.230630411566 146.749652074072,-295.434061398605 " style="fill: rgb(157,116,59); fill-opacity: 1; stroke: rgb(0,0,0); stroke-width: 3" />
	<polygon points="426.789764720991,-128.590975556126 393.628037269833,-139.344481575556 363.821957424424,-121.263119251247 396.983684875587,-110.509613231816 " style="fill: rgb(157,116,59); fill-opacity: 1; stroke: rgb(0,0,0); stroke-width: 3" />
	<polygon points="337.664078813479,-147.119667780034 304.951505945975,-159.170627727 317.198954271803,-126.531110745871 349.911527139303,-114.480150798911 " style="fill: rgb(157,116,59); fill-opacity: 1; stroke: rgb(0,0,0); stroke-width: 3" />
	<polygon points="210.230127826373,-391.012090838055 238.68544078457,-411.152429060295 204.248827007588,-416.57992303358 175.793514049401,-396.439584811338 " style="fill: rgb(157,116,59); fill-opacity: 1; stroke: rgb(0,0,0); stroke-width: 3" />
	<polygon points="125.950217005829,-383.821870789299 132.280857629851,-418.103951364192 118.423533438622,-435.595079634913 112.092892814601,-401.312999060023 " style="fill: rgb(157,116,59); fill-opacity: 1; stroke: rgb(0,0,0); stroke-width: 3" />
	<polygon points="238.68544078457,-411.152429060295 217.804231012612,-439.068609632044 183.36761723564,-444.496103605323 204.248827007588,-416.57992303358 " style="fill: rgb(157,116,59); fill-opacity: 1; stroke: rgb(0,0,0); stroke-width: 3" />
	<polygon points="474.480988382081,-403.5311111556 493.096293660344,-374.055554016639 521.970490090577,-393.590620941632 503.355184812312,-423.066178080599 " style="fill: rgb(157,116,59); fill-opacity: 1; stroke: rgb(0,0,0); stroke-width: 3" />
	<polygon points="322.762756871415,-510.954638721458 345.077886311387,-510.95463872143 315.271806465959,-529.036001045727 292.956677025989,-529.036001045742 " style="fill: rgb(157,116,59); fill-opacity: 1; stroke: rgb(0,0,0); stroke-width: 3" />
	<polygon points="315.271806465959,-529.036001045727 345.077886311387,-510.95463872143 323.46875570341,-538.311238174254 293.662675857984,-556.392600498535 " style="fill: rgb(157,116,59); fill-opacity: 1; stroke: rgb(0,0,0); stroke-width: 3" />
	<polygon points="208.063326013449,-172.316052329551 193.706181934163,-140.54797915628 216.021311374134,-140.547979156267 230.378455453418,-172.316052329534 " style="fill: rgb(157,116,59); fill-opacity: 1; stroke: rgb(0,0,0); stroke-width: 3" />
	<polygon points="459.479552870919,-517.854605438427 466.34574654472,-496.622074116013 492.15503787785,-520.057486212609 485.288844204063,-541.290017535032 " style="fill: rgb(157,116,59); fill-opacity: 1; stroke: rgb(0,0,0); stroke-width: 3" />
	<polygon points="376.495085452563,-169.705641324189 346.68900560715,-151.624278999879 363.821957424424,-121.263119251247 393.628037269833,-139.344481575556 " style="fill: rgb(157,116,59); fill-opacity: 1; stroke: rgb(0,0,0); stroke-width: 3" />
	<polygon points="436.879813708616,-518.332318692345 459.194943148622,-518.33231869232 482.134829320208,-544.583026905429 459.81969988021,-544.583026905458 " style="fill: rgb(157,116,59); fill-opacity: 1; stroke: rgb(0,0,0); stroke-width: 3" />
	<polygon points="153.946503735607,-423.448554318925 153.064885782864,-458.299103942147 131.399239677113,-452.954500987421 132.280857629851,-418.103951364192 " style="fill: rgb(157,116,59); fill-opacity: 1; stroke: rgb(0,0,0); stroke-width: 3" />
	<polygon points="232.380700702994,-476.912876620644 262.471390270674,-494.51652569107 229.485402032227,-505.797600072006 199.394712464553,-488.19395100158 " style="fill: rgb(157,116,59); fill-opacity: 1; stroke: rgb(0,0,0); stroke-width: 3" />
	<polygon points="121.017165719106,-319.837099812412 114.150972045324,-341.069631134824 91.910868642393,-342.897964406109 98.7770623161785,-321.6654330837 " style="fill: rgb(157,116,59); fill-opacity: 1; stroke: rgb(0,0,0); stroke-width: 3" />
	<polygon points="222.94833804684,-443.219196480623 232.220444496711,-476.825239110445 198.923335912506,-487.151933605135 189.651229462635,-453.545890975316 " style="fill: rgb(157,116,59); fill-opacity: 1; stroke: rgb(0,0,0); stroke-width: 3" />
	<polygon points="153.052771320316,-306.087262249029 146.186577646527,-327.319793571447 114.150972045324,-341.069631134824 121.017165719106,-319.837099812412 " style="fill: rgb(157,116,59); fill-opacity: 1; stroke: rgb(0,0,0); stroke-width: 3" />
	<polygon points="229.485402032227,-505.797600072006 227.149526659295,-527.990136839255 197.058837091622,-510.386487768829 199.394712464553,-488.19395100158 " style="fill: rgb(157,116,59); fill-opacity: 1; stroke: rgb(0,0,0); stroke-width: 3" />
	<polygon points="175.793514049401,-396.439584811338 204.248827007588,-416.57992303358 183.221640833013,-444.386316198376 154.766327874833,-424.245977976142 " style="fill: rgb(157,116,59); fill-opacity: 1; stroke: rgb(0,0,0); stroke-width: 3" />
	<polygon points="485.288844204063,-541.290017535032 492.15503787785,-520.057486212609 526.799494798176,-516.171657607126 519.933301124397,-537.404188929545 " style="fill: rgb(157,116,59); fill-opacity: 1; stroke: rgb(0,0,0); stroke-width: 3" />
	<polygon points="285.225535864263,-506.293955261476 291.366874945259,-527.747368887653 264.776774920846,-550.292981319946 258.63543583985,-528.839567693766 " style="fill: rgb(157,116,59); fill-opacity: 1; stroke: rgb(0,0,0); stroke-width: 3" />
	<polygon points="270.016790854399,-555.286709258857 292.331920294377,-555.286709258832 283.749178202075,-575.88529028037 261.434048762104,-575.885290280398 " style="fill: rgb(157,116,59); fill-opacity: 1; stroke: rgb(0,0,0); stroke-width: 3" />
	<polygon points="292.956677025989,-529.036001045742 315.271806465959,-529.036001045727 292.331920294377,-555.286709258832 270.016790854399,-555.286709258857 " style="fill: rgb(157,116,59); fill-opacity: 1; stroke: rgb(0,0,0); stroke-width: 3" />
	<polygon points="193.706181934163,-140.54797915628 208.063326013438,-108.779905983011 230.378455453409,-108.779905982988 216.021311374134,-140.547979156267 " style="fill: rgb(157,116,59); fill-opacity: 1; stroke: rgb(0,0,0); stroke-width: 3" />
	<polygon points="183.221640833013,-444.386316198376 186.563365970394,-479.087482351139 158.108053012228,-458.947144128909 154.766327874833,-424.245977976142 " style="fill: rgb(157,116,59); fill-opacity: 1; stroke: rgb(0,0,0); stroke-width: 3" />
	<polygon points="519.933301124397,-537.404188929545 526.799494798176,-516.171657607126 561.5,-519.520239096932 554.633806326226,-540.752770419347 " style="fill: rgb(157,116,59); fill-opacity: 1; stroke: rgb(0,0,0); stroke-width: 3" />
	<polygon points="147.615863111584,-389.166473744036 153.946503735607,-423.448554318925 132.280857629851,-418.103951364192 125.950217005829,-383.821870789299 " style="fill: rgb(157,116,59); fill-opacity: 1; stroke: rgb(0,0,0); stroke-width: 3" />
	<polygon points="205.990289692606,-535.07897968638 171.645226532847,-529.099456644619 141.554536965193,-511.495807574168 175.899600124936,-517.475330615947 " style="fill: rgb(157,116,59); fill-opacity: 1; stroke: rgb(0,0,0); stroke-width: 3" />
	<polygon points="227.149526659295,-527.990136839255 205.990289692606,-535.07897968638 175.899600124936,-517.475330615947 197.058837091622,-510.386487768829 " style="fill: rgb(157,116,59); fill-opacity: 1; stroke: rgb(0,0,0); stroke-width: 3" />
	<polygon points="261.434048762104,-575.885290280398 283.749178202075,-575.88529028037 260.809292030492,-602.135998493476 238.494162590517,-602.13599849351 " style="fill: rgb(157,116,59); fill-opacity: 1; stroke: rgb(0,0,0); stroke-width: 3" />
	<polygon points="186.563365970394,-479.087482351139 177.886419854313,-499.646558400968 149.431106896166,-479.506220178733 158.108053012228,-458.947144128909 " style="fill: rgb(157,116,59); fill-opacity: 1; stroke: rgb(0,0,0); stroke-width: 3" />
	<polygon points="112.092892814601,-401.312999060023 118.423533438622,-435.595079634913 112.37607279937,-469.928245510953 106.045432175351,-435.646164936062 " style="fill: rgb(157,116,59); fill-opacity: 1; stroke: rgb(0,0,0); stroke-width: 3" />
	<polygon points="177.886419854313,-499.646558400968 155.626961300937,-498.071278478484 127.171648342798,-477.930940256242 149.431106896166,-479.506220178733 " style="fill: rgb(157,116,59); fill-opacity: 1; stroke: rgb(0,0,0); stroke-width: 3" />
	<polygon points="231.003212184996,-53.5 237.869405858846,-74.732531322398 215.554276418874,-74.7325313224259 208.688082745029,-53.5000000000229 " style="fill: rgb(157,116,59); fill-opacity: 1; stroke: rgb(0,0,0); stroke-width: 3" />
	<polygon points="66.7414567149698,-335.415270647083 59.8752630411906,-356.647801969486 33.5,-379.444370982453 40.3661936737804,-358.21183966005 " style="fill: rgb(157,116,59); fill-opacity: 1; stroke: rgb(0,0,0); stroke-width: 3" />
	<polygon points="132.280857629851,-418.103951364192 127.944378927181,-452.694889653232 114.087054735952,-470.186017923951 118.423533438622,-435.595079634913 " style="fill: rgb(157,116,59); fill-opacity: 1; stroke: rgb(0,0,0); stroke-width: 3" />
	<polygon points="153.064885782864,-458.299103942147 141.31321870971,-477.269167804068 119.647572603963,-471.924564849349 131.399239677113,-452.954500987421 " style="fill: rgb(157,116,59); fill-opacity: 1; stroke: rgb(0,0,0); stroke-width: 3" />
	<polygon points="238.494162590517,-602.13599849351 260.809292030492,-602.135998493476 231.003212185064,-620.217360817785 208.688082745092,-620.217360817818 " style="fill: rgb(157,116,59); fill-opacity: 1; stroke: rgb(0,0,0); stroke-width: 3" />
	<circle cx="322.762756871387" cy="-336.858680408919" r="2" style="fill: rgb(0,0,0)" />
	<circle cx="345.077886311377" cy="-336.858680408919" r="2" style="fill: rgb(0,0,0)" />
	<circle cx="338.211692637538" cy="-358.091211731326" r="2" style="fill: rgb(0,0,0)" />
	<circle cx="315.896563197557" cy="-358.091211731339" r="2" style="fill: rgb(0,0,0)" />
	<circle cx="292.95667702596" cy="-318.777318084611" r="2" style="fill: rgb(0,0,0)" />
	<circle cx="315.271806465951" cy="-318.777318084611" r="2" style="fill: rgb(0,0,0)" />
	<circle cx="353.110946370835" cy="-370.782241621386" r="2" style="fill: rgb(0,0,0)" />
	<circle cx="346.244752696993" cy="-392.014772943789" r="2" style="fill: rgb(0,0,0)" />
	<circle cx="285.805873629854" cy="-340.487562660904" r="2" style="fill: rgb(0,0,0)" />
	<circle cx="292.672067303677" cy="-319.255031338482" r="2" style="fill: rgb(0,0,0)" />
	<circle cx="345.702643042975" cy="-392.138586391912" r="2" style="fill: rgb(0,0,0)" />
	<circle cx="323.387513602995" cy="-392.138586391926" r="2" style="fill: rgb(0,0,0)" />
	<circle cx="293.662675857984" cy="-291.420718631778" r="2" style="fill: rgb(0,0,0)" />
	<circle cx="323.468755703411" cy="-309.502080956086" r="2" style="fill: rgb(0,0,0)" />
	<circle cx="270.016790854375" cy="-292.526609871503" r="2" style="fill: rgb(0,0,0)" />
	<circle cx="292.331920294357" cy="-292.526609871497" r="2" style="fill: rgb(0,0,0)" />
	<circle cx="364.458342070873" cy="-365.836879003884" r="2" style="fill: rgb(0,0,0)" />
	<circle cx="372.491402130327" cy="-399.760440216347" r="2" style="fill: rgb(0,0,0)" />
	<circle cx="371.029698943404" cy="-400.686361161973" r="2" style="fill: rgb(0,0,0)" />
	<circle cx="364.163505269571" cy="-421.918892484388" r="2" style="fill: rgb(0,0,0)" />
	<circle cx="322.227203821584" cy="-392.373292306247" r="2" style="fill: rgb(0,0,0)" />
	<circle cx="292.136514253885" cy="-374.769643235816" r="2" style="fill: rgb(0,0,0)" />
	<circle cx="259.99658229675" cy="-317.052150564295" r="2" style="fill: rgb(0,0,0)" />
	<circle cx="266.86277597056" cy="-295.819619241867" r="2" style="fill: rgb(0,0,0)" />
	<circle cx="360.059787122256" cy="-423.906659565177" r="2" style="fill: rgb(0,0,0)" />
	<circle cx="337.744657682277" cy="-423.906659565191" r="2" style="fill: rgb(0,0,0)" />
	<circle cx="320.724870534453" cy="-287.356289118739" r="2" style="fill: rgb(0,0,0)" />
	<circle cx="342.334001142419" cy="-314.712888571572" r="2" style="fill: rgb(0,0,0)" />
	<circle cx="289.823346833759" cy="-269.438349456292" r="2" style="fill: rgb(0,0,0)" />
	<circle cx="319.629426679184" cy="-287.519711780599" r="2" style="fill: rgb(0,0,0)" />
	<circle cx="261.434048762067" cy="-271.92802884997" r="2" style="fill: rgb(0,0,0)" />
	<circle cx="283.749178202046" cy="-271.928028849964" r="2" style="fill: rgb(0,0,0)" />
	<circle cx="365.305022930545" cy="-346.283538291836" r="2" style="fill: rgb(0,0,0)" />
	<circle cx="384.68547869004" cy="-375.2617368868" r="2" style="fill: rgb(0,0,0)" />
	<circle cx="384.19292468154" cy="-376.253752388277" r="2" style="fill: rgb(0,0,0)" />
	<circle cx="392.225984740992" cy="-410.177313600739" r="2" style="fill: rgb(0,0,0)" />
	<circle cx="387.988114904926" cy="-415.190744292589" r="2" style="fill: rgb(0,0,0)" />
	<circle cx="381.121921231102" cy="-436.423275614999" r="2" style="fill: rgb(0,0,0)" />
	<circle cx="258.070994530471" cy="-382.177640618964" r="2" style="fill: rgb(0,0,0)" />
	<circle cx="251.740353906435" cy="-347.895560044059" r="2" style="fill: rgb(0,0,0)" />
	<circle cx="303.683902767175" cy="-421.894200917952" r="2" style="fill: rgb(0,0,0)" />
	<circle cx="273.593213199479" cy="-404.290551847529" r="2" style="fill: rgb(0,0,0)" />
	<circle cx="225.352125376425" cy="-320.937979169754" r="2" style="fill: rgb(0,0,0)" />
	<circle cx="232.218319050228" cy="-299.70544784733" r="2" style="fill: rgb(0,0,0)" />
	<circle cx="251.201720795909" cy="-344.717298574674" r="2" style="fill: rgb(0,0,0)" />
	<circle cx="225.39242946281" cy="-321.281886478067" r="2" style="fill: rgb(0,0,0)" />
	<circle cx="345.702643042978" cy="-455.674732738442" r="2" style="fill: rgb(0,0,0)" />
	<circle cx="323.387513602998" cy="-455.674732738464" r="2" style="fill: rgb(0,0,0)" />
	<circle cx="323.072691900881" cy="-455.53056633467" r="2" style="fill: rgb(0,0,0)" />
	<circle cx="308.715547821599" cy="-423.762493161409" r="2" style="fill: rgb(0,0,0)" />
	<circle cx="362.561137761585" cy="-305.288030688652" r="2" style="fill: rgb(0,0,0)" />
	<circle cx="365.305022930549" cy="-327.433822525989" r="2" style="fill: rgb(0,0,0)" />
	<circle cx="340.799105593766" cy="-277.610003225795" r="2" style="fill: rgb(0,0,0)" />
	<circle cx="362.40823620173" cy="-304.966602678621" r="2" style="fill: rgb(0,0,0)" />
	<circle cx="308.227569160989" cy="-256.818935743546" r="2" style="fill: rgb(0,0,0)" />
	<circle cx="338.033649006417" cy="-274.900298067857" r="2" style="fill: rgb(0,0,0)" />
	<circle cx="238.494162590482" cy="-245.677320636862" r="2" style="fill: rgb(0,0,0)" />
	<circle cx="260.809292030454" cy="-245.677320636851" r="2" style="fill: rgb(0,0,0)" />
	<circle cx="236.962334745514" cy="-281.447756564316" r="2" style="fill: rgb(0,0,0)" />
	<circle cx="228.3795926532" cy="-260.849175542781" r="2" style="fill: rgb(0,0,0)" />
	<circle cx="380.755164378191" cy="-330.182043604343" r="2" style="fill: rgb(0,0,0)" />
	<circle cx="400.135620137683" cy="-359.160242199303" r="2" style="fill: rgb(0,0,0)" />
	<circle cx="401.862956706313" cy="-362.625290620081" r="2" style="fill: rgb(0,0,0)" />
	<circle cx="409.896016765761" cy="-396.548851832533" r="2" style="fill: rgb(0,0,0)" />
	<circle cx="405.906867477521" cy="-445.094863833163" r="2" style="fill: rgb(0,0,0)" />
	<circle cx="399.0406738037" cy="-466.327395155578" r="2" style="fill: rgb(0,0,0)" />
	<circle cx="381.49269221217" cy="-471.2830029251" r="2" style="fill: rgb(0,0,0)" />
	<circle cx="364.534276250641" cy="-456.778619794497" r="2" style="fill: rgb(0,0,0)" />
	<circle cx="272.903036025469" cy="-403.845601938712" r="2" style="fill: rgb(0,0,0)" />
	<circle cx="238.837516302062" cy="-411.253599321854" r="2" style="fill: rgb(0,0,0)" />
	<circle cx="238.68544078457" cy="-411.152429060295" r="2" style="fill: rgb(0,0,0)" />
	<circle cx="232.354800160536" cy="-376.870348485389" r="2" style="fill: rgb(0,0,0)" />
	<circle cx="269.845789395857" cy="-430.279911545283" r="2" style="fill: rgb(0,0,0)" />
	<circle cx="239.755099828171" cy="-412.676262474859" r="2" style="fill: rgb(0,0,0)" />
	<circle cx="190.651620174609" cy="-317.589397679922" r="2" style="fill: rgb(0,0,0)" />
	<circle cx="197.517813848406" cy="-296.356866357501" r="2" style="fill: rgb(0,0,0)" />
	<circle cx="228.591408479447" cy="-371.252404306651" r="2" style="fill: rgb(0,0,0)" />
	<circle cx="202.782117146347" cy="-347.816992210052" r="2" style="fill: rgb(0,0,0)" />
	<circle cx="338.211692637541" cy="-489.722107399026" r="2" style="fill: rgb(0,0,0)" />
	<circle cx="315.896563197562" cy="-489.722107399056" r="2" style="fill: rgb(0,0,0)" />
	<circle cx="290.867893406632" cy="-468.879312088482" r="2" style="fill: rgb(0,0,0)" />
	<circle cx="276.510749327347" cy="-437.111238915228" r="2" style="fill: rgb(0,0,0)" />
	<circle cx="375.628004136831" cy="-279.121917751211" r="2" style="fill: rgb(0,0,0)" />
	<circle cx="397.23713474479" cy="-306.478517204034" r="2" style="fill: rgb(0,0,0)" />
	<circle cx="283.699143656782" cy="-235.118789512986" r="2" style="fill: rgb(0,0,0)" />
	<circle cx="302.103365984008" cy="-222.499375800232" r="2" style="fill: rgb(0,0,0)" />
	<circle cx="302.444540079029" cy="-222.440241267281" r="2" style="fill: rgb(0,0,0)" />
	<circle cx="332.250619924454" cy="-240.521603591589" r="2" style="fill: rgb(0,0,0)" />
	<circle cx="230.767525732044" cy="-255.347847171115" r="2" style="fill: rgb(0,0,0)" />
	<circle cx="207.827639560468" cy="-229.097138958017" r="2" style="fill: rgb(0,0,0)" />
	<circle cx="208.688082745055" cy="-227.595958312553" r="2" style="fill: rgb(0,0,0)" />
	<circle cx="231.003212185027" cy="-227.595958312543" r="2" style="fill: rgb(0,0,0)" />
	<circle cx="208.80796958252" cy="-260.888822216356" r="2" style="fill: rgb(0,0,0)" />
	<circle cx="200.225227490208" cy="-240.290241194823" r="2" style="fill: rgb(0,0,0)" />
	<circle cx="432.794406664899" cy="-378.705821168382" r="2" style="fill: rgb(0,0,0)" />
	<circle cx="440.827466724343" cy="-412.629382380829" r="2" style="fill: rgb(0,0,0)" />
	<circle cx="440.666224404614" cy="-412.935809485413" r="2" style="fill: rgb(0,0,0)" />
	<circle cx="422.996192379853" cy="-426.56427125362" r="2" style="fill: rgb(0,0,0)" />
	<circle cx="413.93992753701" cy="-479.018425045623" r="2" style="fill: rgb(0,0,0)" />
	<circle cx="407.073733863189" cy="-500.250956368036" r="2" style="fill: rgb(0,0,0)" />
	<circle cx="405.380629876153" cy="-500.607754200581" r="2" style="fill: rgb(0,0,0)" />
	<circle cx="387.461877303554" cy="-470.703634660001" r="2" style="fill: rgb(0,0,0)" />
	<circle cx="392.391347054406" cy="-504.397310737355" r="2" style="fill: rgb(0,0,0)" />
	<circle cx="375.432931092877" cy="-489.892927606751" r="2" style="fill: rgb(0,0,0)" />
	<circle cx="210.230127826373" cy="-391.012090838055" r="2" style="fill: rgb(0,0,0)" />
	<circle cx="203.899487202346" cy="-356.730010263151" r="2" style="fill: rgb(0,0,0)" />
	<circle cx="279.117895845729" cy="-463.885954175105" r="2" style="fill: rgb(0,0,0)" />
	<circle cx="249.027206278045" cy="-446.282305104676" r="2" style="fill: rgb(0,0,0)" />
	<circle cx="200.147006393515" cy="-345.021999521693" r="2" style="fill: rgb(0,0,0)" />
	<circle cx="165.446501191705" cy="-341.673418031861" r="2" style="fill: rgb(0,0,0)" />
	<circle cx="172.561840687721" cy="-304.523224558486" r="2" style="fill: rgb(0,0,0)" />
	<circle cx="179.42803436151" cy="-283.290693236067" r="2" style="fill: rgb(0,0,0)" />
	<circle cx="285.225535864263" cy="-506.293955261476" r="2" style="fill: rgb(0,0,0)" />
	<circle cx="292.716486269695" cy="-472.246580600886" r="2" style="fill: rgb(0,0,0)" />
	<circle cx="345.077886311387" cy="-510.95463872143" r="2" style="fill: rgb(0,0,0)" />
	<circle cx="322.762756871415" cy="-510.954638721458" r="2" style="fill: rgb(0,0,0)" />
	<circle cx="343.408005490932" cy="-242.846060690724" r="2" style="fill: rgb(0,0,0)" />
	<circle cx="378.23690403399" cy="-244.357975216134" r="2" style="fill: rgb(0,0,0)" />
	<circle cx="402.289936285103" cy="-256.661298138741" r="2" style="fill: rgb(0,0,0)" />
	<circle cx="423.899066893064" cy="-284.017897591555" r="2" style="fill: rgb(0,0,0)" />
	<circle cx="270.623136602651" cy="-202.802290649785" r="2" style="fill: rgb(0,0,0)" />
	<circle cx="289.027358929873" cy="-190.182876937026" r="2" style="fill: rgb(0,0,0)" />
	<circle cx="321.456346728817" cy="-193.218857536078" r="2" style="fill: rgb(0,0,0)" />
	<circle cx="351.26242657424" cy="-211.300219860378" r="2" style="fill: rgb(0,0,0)" />
	<circle cx="215.554276418889" cy="-206.36342699014" r="2" style="fill: rgb(0,0,0)" />
	<circle cx="237.869405858858" cy="-206.363426990123" r="2" style="fill: rgb(0,0,0)" />
	<circle cx="466.44792832263" cy="-369.607549943158" r="2" style="fill: rgb(0,0,0)" />
	<circle cx="474.480988382081" cy="-403.5311111556" r="2" style="fill: rgb(0,0,0)" />
	<circle cx="467.391531064091" cy="-435.32098411534" r="2" style="fill: rgb(0,0,0)" />
	<circle cx="449.721499039336" cy="-448.949445883548" r="2" style="fill: rgb(0,0,0)" />
	<circle cx="436.255056977005" cy="-479.0184250456" r="2" style="fill: rgb(0,0,0)" />
	<circle cx="429.388863303195" cy="-500.250956368011" r="2" style="fill: rgb(0,0,0)" />
	<circle cx="175.765550098979" cy="-396.259084389398" r="2" style="fill: rgb(0,0,0)" />
	<circle cx="169.434909474951" cy="-361.9770038145" r="2" style="fill: rgb(0,0,0)" />
	<circle cx="204.248827007588" cy="-416.57992303358" r="2" style="fill: rgb(0,0,0)" />
	<circle cx="175.793514049401" cy="-396.439584811338" r="2" style="fill: rgb(0,0,0)" />
	<circle cx="232.220444496711" cy="-476.825239110445" r="2" style="fill: rgb(0,0,0)" />
	<circle cx="222.94833804684" cy="-443.219196480623" r="2" style="fill: rgb(0,0,0)" />
	<circle cx="262.471390270674" cy="-494.51652569107" r="2" style="fill: rgb(0,0,0)" />
	<circle cx="232.380700702994" cy="-476.912876620644" r="2" style="fill: rgb(0,0,0)" />
	<circle cx="146.923523121798" cy="-329.228970059144" r="2" style="fill: rgb(0,0,0)" />
	<circle cx="172.128642104707" cy="-305.14494970721" r="2" style="fill: rgb(0,0,0)" />
	<circle cx="146.186577646527" cy="-327.319793571447" r="2" style="fill: rgb(0,0,0)" />
	<circle cx="153.052771320316" cy="-306.087262249029" r="2" style="fill: rgb(0,0,0)" />
	<circle cx="322.037902278563" cy="-511.17552102523" r="2" style="fill: rgb(0,0,0)" />
	<circle cx="291.366874945259" cy="-527.747368887653" r="2" style="fill: rgb(0,0,0)" />
	<circle cx="315.271806465959" cy="-529.036001045727" r="2" style="fill: rgb(0,0,0)" />
	<circle cx="292.956677025989" cy="-529.036001045742" r="2" style="fill: rgb(0,0,0)" />
	<circle cx="369.412218696104" cy="-219.627125425828" r="2" style="fill: rgb(0,0,0)" />
	<circle cx="404.241117239154" cy="-221.139039951244" r="2" style="fill: rgb(0,0,0)" />
	<circle cx="404.362412751539" cy="-221.275604161486" r="2" style="fill: rgb(0,0,0)" />
	<circle cx="401.753512854378" cy="-256.039546696564" r="2" style="fill: rgb(0,0,0)" />
	<circle cx="405.898647262543" cy="-221.98688012868" r="2" style="fill: rgb(0,0,0)" />
	<circle cx="427.507777870502" cy="-249.343479581496" r="2" style="fill: rgb(0,0,0)" />
	<circle cx="304.951505945975" cy="-159.170627727" r="2" style="fill: rgb(0,0,0)" />
	<circle cx="318.027513000111" cy="-191.487126590203" r="2" style="fill: rgb(0,0,0)" />
	<circle cx="355.423909267064" cy="-185.373938513825" r="2" style="fill: rgb(0,0,0)" />
	<circle cx="385.229989112479" cy="-203.455300838129" r="2" style="fill: rgb(0,0,0)" />
	<circle cx="200.655022685593" cy="-193.672397100095" r="2" style="fill: rgb(0,0,0)" />
	<circle cx="207.521216359436" cy="-172.439865777694" r="2" style="fill: rgb(0,0,0)" />
	<circle cx="208.063326013449" cy="-172.316052329551" r="2" style="fill: rgb(0,0,0)" />
	<circle cx="230.378455453418" cy="-172.316052329534" r="2" style="fill: rgb(0,0,0)" />
	<circle cx="503.355184812312" cy="-423.066178080599" r="2" style="fill: rgb(0,0,0)" />
	<circle cx="469.701663154577" cy="-432.164449305826" r="2" style="fill: rgb(0,0,0)" />
	<circle cx="484.363815969737" cy="-339.701713906169" r="2" style="fill: rgb(0,0,0)" />
	<circle cx="492.396876029183" cy="-373.625275118609" r="2" style="fill: rgb(0,0,0)" />
	<circle cx="459.194943148622" cy="-518.33231869232" r="2" style="fill: rgb(0,0,0)" />
	<circle cx="436.879813708616" cy="-518.332318692345" r="2" style="fill: rgb(0,0,0)" />
	<circle cx="466.34574654472" cy="-496.622074116013" r="2" style="fill: rgb(0,0,0)" />
	<circle cx="459.479552870919" cy="-517.854605438427" r="2" style="fill: rgb(0,0,0)" />
	<circle cx="153.946503735607" cy="-423.448554318925" r="2" style="fill: rgb(0,0,0)" />
	<circle cx="147.615863111584" cy="-389.166473744036" r="2" style="fill: rgb(0,0,0)" />
	<circle cx="217.804231012612" cy="-439.068609632044" r="2" style="fill: rgb(0,0,0)" />
	<circle cx="183.36761723564" cy="-444.496103605323" r="2" style="fill: rgb(0,0,0)" />
	<circle cx="183.221640833013" cy="-444.386316198376" r="2" style="fill: rgb(0,0,0)" />
	<circle cx="154.766327874833" cy="-424.245977976142" r="2" style="fill: rgb(0,0,0)" />
	<circle cx="198.923335912506" cy="-487.151933605135" r="2" style="fill: rgb(0,0,0)" />
	<circle cx="189.651229462635" cy="-453.545890975316" r="2" style="fill: rgb(0,0,0)" />
	<circle cx="229.485402032227" cy="-505.797600072006" r="2" style="fill: rgb(0,0,0)" />
	<circle cx="199.394712464553" cy="-488.19395100158" r="2" style="fill: rgb(0,0,0)" />
	<circle cx="135.813099310559" cy="-360.036412128844" r="2" style="fill: rgb(0,0,0)" />
	<circle cx="117.29012124064" cy="-347.591964156138" r="2" style="fill: rgb(0,0,0)" />
	<circle cx="120.374389032876" cy="-318.230630411566" r="2" style="fill: rgb(0,0,0)" />
	<circle cx="146.749652074072" cy="-295.434061398605" r="2" style="fill: rgb(0,0,0)" />
	<circle cx="114.150972045324" cy="-341.069631134824" r="2" style="fill: rgb(0,0,0)" />
	<circle cx="121.017165719106" cy="-319.837099812412" r="2" style="fill: rgb(0,0,0)" />
	<circle cx="264.776774920846" cy="-550.292981319946" r="2" style="fill: rgb(0,0,0)" />
	<circle cx="258.63543583985" cy="-528.839567693766" r="2" style="fill: rgb(0,0,0)" />
	<circle cx="323.46875570341" cy="-538.311238174254" r="2" style="fill: rgb(0,0,0)" />
	<circle cx="293.662675857984" cy="-556.392600498535" r="2" style="fill: rgb(0,0,0)" />
	<circle cx="292.331920294377" cy="-555.286709258832" r="2" style="fill: rgb(0,0,0)" />
	<circle cx="270.016790854399" cy="-555.286709258857" r="2" style="fill: rgb(0,0,0)" />
	<circle cx="337.664078813479" cy="-147.119667780034" r="2" style="fill: rgb(0,0,0)" />
	<circle cx="350.740085867619" cy="-179.436166643232" r="2" style="fill: rgb(0,0,0)" />
	<circle cx="346.68900560715" cy="-151.624278999879" r="2" style="fill: rgb(0,0,0)" />
	<circle cx="376.495085452563" cy="-169.705641324189" r="2" style="fill: rgb(0,0,0)" />
	<circle cx="182.736270113026" cy="-163.768277559506" r="2" style="fill: rgb(0,0,0)" />
	<circle cx="189.602463786861" cy="-142.535746237093" r="2" style="fill: rgb(0,0,0)" />
	<circle cx="193.706181934163" cy="-140.54797915628" r="2" style="fill: rgb(0,0,0)" />
	<circle cx="216.021311374134" cy="-140.547979156267" r="2" style="fill: rgb(0,0,0)" />
	<circle cx="493.096293660344" cy="-374.055554016639" r="2" style="fill: rgb(0,0,0)" />
	<circle cx="521.970490090577" cy="-393.590620941632" r="2" style="fill: rgb(0,0,0)" />
	<circle cx="482.134829320208" cy="-544.583026905429" r="2" style="fill: rgb(0,0,0)" />
	<circle cx="459.81969988021" cy="-544.583026905458" r="2" style="fill: rgb(0,0,0)" />
	<circle cx="492.15503787785" cy="-520.057486212609" r="2" style="fill: rgb(0,0,0)" />
	<circle cx="485.288844204063" cy="-541.290017535032" r="2" style="fill: rgb(0,0,0)" />
	<circle cx="132.280857629851" cy="-418.103951364192" r="2" style="fill: rgb(0,0,0)" />
	<circle cx="125.950217005829" cy="-383.821870789299" r="2" style="fill: rgb(0,0,0)" />
	<circle cx="186.563365970394" cy="-479.087482351139" r="2" style="fill: rgb(0,0,0)" />
	<circle cx="158.108053012228" cy="-458.947144128909" r="2" style="fill: rgb(0,0,0)" />
	<circle cx="227.149526659295" cy="-527.990136839255" r="2" style="fill: rgb(0,0,0)" />
	<circle cx="197.058837091622" cy="-510.386487768829" r="2" style="fill: rgb(0,0,0)" />
	<circle cx="91.910868642393" cy="-342.897964406109" r="2" style="fill: rgb(0,0,0)" />
	<circle cx="98.7770623161785" cy="-321.6654330837" r="2" style="fill: rgb(0,0,0)" />
	<circle cx="283.749178202075" cy="-575.88529028037" r="2" style="fill: rgb(0,0,0)" />
	<circle cx="261.434048762104" cy="-575.885290280398" r="2" style="fill: rgb(0,0,0)" />
	<circle cx="317.198954271803" cy="-126.531110745871" r="2" style="fill: rgb(0,0,0)" />
	<circle cx="349.911527139303" cy="-114.480150798911" r="2" style="fill: rgb(0,0,0)" />
	<circle cx="393.786875253271" cy="-139.434664056458" r="2" style="fill: rgb(0,0,0)" />
	<circle cx="402.521778913185" cy="-173.184323570405" r="2" style="fill: rgb(0,0,0)" />
	<circle cx="363.821957424424" cy="-121.263119251247" r="2" style="fill: rgb(0,0,0)" />
	<circle cx="393.628037269833" cy="-139.344481575556" r="2" style="fill: rgb(0,0,0)" />
	<circle cx="208.063326013438" cy="-108.779905983011" r="2" style="fill: rgb(0,0,0)" />
	<circle cx="230.378455453409" cy="-108.779905982988" r="2" style="fill: rgb(0,0,0)" />
	<circle cx="486.043260792224" cy="-339.914775076844" r="2" style="fill: rgb(0,0,0)" />
	<circle cx="514.91745722245" cy="-359.449842001835" r="2" style="fill: rgb(0,0,0)" />
	<circle cx="556.447772863569" cy="-388.427769806167" r="2" style="fill: rgb(0,0,0)" />
	<circle cx="537.832467585303" cy="-417.903326945123" r="2" style="fill: rgb(0,0,0)" />
	<circle cx="526.799494798176" cy="-516.171657607126" r="2" style="fill: rgb(0,0,0)" />
	<circle cx="519.933301124397" cy="-537.404188929545" r="2" style="fill: rgb(0,0,0)" />
	<circle cx="118.423533438622" cy="-435.595079634913" r="2" style="fill: rgb(0,0,0)" />
	<circle cx="112.092892814601" cy="-401.312999060023" r="2" style="fill: rgb(0,0,0)" />
	<circle cx="153.064885782864" cy="-458.299103942147" r="2" style="fill: rgb(0,0,0)" />
	<circle cx="131.399239677113" cy="-452.954500987421" r="2" style="fill: rgb(0,0,0)" />
	<circle cx="177.886419854313" cy="-499.646558400968" r="2" style="fill: rgb(0,0,0)" />
	<circle cx="149.431106896166" cy="-479.506220178733" r="2" style="fill: rgb(0,0,0)" />
	<circle cx="205.990289692606" cy="-535.07897968638" r="2" style="fill: rgb(0,0,0)" />
	<circle cx="175.899600124936" cy="-517.475330615947" r="2" style="fill: rgb(0,0,0)" />
	<circle cx="59.8752630411906" cy="-356.647801969486" r="2" style="fill: rgb(0,0,0)" />
	<circle cx="66.7414567149698" cy="-335.415270647083" r="2" style="fill: rgb(0,0,0)" />
	<circle cx="260.809292030492" cy="-602.135998493476" r="2" style="fill: rgb(0,0,0)" />
	<circle cx="238.494162590517" cy="-602.13599849351" r="2" style="fill: rgb(0,0,0)" />
	<circle cx="427.244460917157" cy="-129.640378947336" r="2" style="fill: rgb(0,0,0)" />
	<circle cx="435.979364577071" cy="-163.390038461283" r="2" style="fill: rgb(0,0,0)" />
	<circle cx="396.983684875587" cy="-110.509613231816" r="2" style="fill: rgb(0,0,0)" />
	<circle cx="426.789764720991" cy="-128.590975556126" r="2" style="fill: rgb(0,0,0)" />
	<circle cx="215.554276418874" cy="-74.7325313224259" r="2" style="fill: rgb(0,0,0)" />
	<circle cx="237.869405858846" cy="-74.732531322398" r="2" style="fill: rgb(0,0,0)" />
	<circle cx="561.5" cy="-519.520239096932" r="2" style="fill: rgb(0,0,0)" />
	<circle cx="554.633806326226" cy="-540.752770419347" r="2" style="fill: rgb(0,0,0)" />
	<circle cx="112.37607279937" cy="-469.928245510953" r="2" style="fill: rgb(0,0,0)" />
	<circle cx="106.045432175351" cy="-435.646164936062" r="2" style="fill: rgb(0,0,0)" />
	<circle cx="127.944378927181" cy="-452.694889653232" r="2" style="fill: rgb(0,0,0)" />
	<circle cx="114.087054735952" cy="-470.186017923951" r="2" style="fill: rgb(0,0,0)" />
	<circle cx="141.31321870971" cy="-477.269167804068" r="2" style="fill: rgb(0,0,0)" />
	<circle cx="119.647572603963" cy="-471.924564849349" r="2" style="fill: rgb(0,0,0)" />
	<circle cx="155.626961300937" cy="-498.071278478484" r="2" style="fill: rgb(0,0,0)" />
	<circle cx="127.171648342798" cy="-477.930940256242" r="2" style="fill: rgb(0,0,0)" />
	<circle cx="171.645226532847" cy="-529.099456644619" r="2" style="fill: rgb(0,0,0)" />
	<circle cx="141.554536965193" cy="-511.495807574168" r="2" style="fill: rgb(0,0,0)" />
	<circle cx="33.5" cy="-379.444370982453" r="2" style="fill: rgb(0,0,0)" />
	<circle cx="40.3661936737804" cy="-358.21183966005" r="2" style="fill: rgb(0,0,0)" />
	<circle cx="231.003212185064" cy="-620.217360817785" r="2" style="fill: rgb(0,0,0)" />
	<circle cx="208.688082745092" cy="-620.217360817818" r="2" style="fill: rgb(0,0,0)" />
	<circle cx="208.688082745029" cy="-53.5000000000229" r="2" style="fill: rgb(0,0,0)" />
	<circle cx="231.003212184996" cy="-53.5" r="2" style="fill: rgb(0,0,0)" />
	<!--
	Generated using the Perl SVG Module V2.84
	by Ronan Oger
	Info: http://www.roitsystems.com/
	-->
</svg>