<?xml version="1.0" encoding="UTF-8" standalone="yes"?>
<!DOCTYPE svg PUBLIC "-//W3C//DTD SVG 1.0//EN" "http://www.w3.org/TR/2001/REC-SVG-20010904/DTD/svg10.dtd">
<!-- generated using polymake; Michael Joswig, Georg Loho, Benjamin Lorenz, Rico Raber; license CC BY-NC-ND 3.0; see polymake.org and matchthenet.de -->
<svg height="841pt" id="document" viewBox="0 -614.984685697021 572 614.984685697021" width="595pt" xmlns="http://www.w3.org/2000/svg" xmlns:svg="http://www.w3.org/2000/svg" xmlns:xlink="http://www.w3.org/1999/xlink">
	<title id="document_title">planar_net_</title>
	<polygon points="282.751270245704,-315.992342848386 322.04350779536,-315.992342848386 305.115032078626,-353.233310293989 265.822794528973,-353.233310294001 " style="fill: rgb(14,173,105); fill-opacity: 1; stroke: rgb(0,0,0); stroke-width: 3" />
	<polygon points="282.751270245704,-315.992342848386 265.822794528969,-278.751375402783 305.115032078623,-278.751375402782 322.04350779536,-315.992342848386 " style="fill: rgb(14,173,105); fill-opacity: 1; stroke: rgb(0,0,0); stroke-width: 3" />
	<polygon points="305.115032078626,-353.233310293989 322.04350779536,-315.992342848386 365.423572120211,-317.133696310984 348.495096403483,-354.374663756584 " style="fill: rgb(14,173,105); fill-opacity: 1; stroke: rgb(0,0,0); stroke-width: 3" />
	<polygon points="282.751270245704,-315.992342848386 265.822794528973,-353.233310294001 241.132009980647,-320.616932433105 258.060485697365,-283.37596498749 " style="fill: rgb(14,173,105); fill-opacity: 1; stroke: rgb(0,0,0); stroke-width: 3" />
	<polygon points="265.822794528973,-353.233310294001 305.115032078626,-353.233310293989 320.394543231382,-389.432985300703 281.10230568174,-389.432985300723 " style="fill: rgb(14,173,105); fill-opacity: 1; stroke: rgb(0,0,0); stroke-width: 3" />
	<polygon points="348.495096403483,-354.374663756584 365.423572120211,-317.133696310984 391.843686331381,-351.55912635367 413.327797262646,-384.457650775783 396.399321545929,-421.698618221386 369.979207334751,-387.273188178699 " style="fill: rgb(14,173,105); fill-opacity: 1; stroke: rgb(0,0,0); stroke-width: 3" />
	<polygon points="305.115032078626,-353.233310293989 348.495096403483,-354.374663756584 364.999136614032,-390.032714578066 321.619072289178,-388.891361115473 " style="fill: rgb(14,173,105); fill-opacity: 1; stroke: rgb(0,0,0); stroke-width: 3" />
	<polygon points="281.10230568174,-389.432985300723 320.394543231382,-389.432985300703 339.651394276625,-428.321368609559 300.359156726992,-428.321368609584 " style="fill: rgb(14,173,105); fill-opacity: 1; stroke: rgb(0,0,0); stroke-width: 3" />
	<polygon points="241.132009980647,-320.616932433105 265.822794528973,-353.233310294001 225.385158059879,-359.418817805116 200.694373511549,-326.802439944231 " style="fill: rgb(14,173,105); fill-opacity: 1; stroke: rgb(0,0,0); stroke-width: 3" />
	<polygon points="365.423572120219,-314.850989385774 322.04350779536,-315.992342848386 305.115032078623,-278.751375402782 348.495096403474,-277.610021940178 " style="fill: rgb(14,173,105); fill-opacity: 1; stroke: rgb(0,0,0); stroke-width: 3" />
	<polygon points="413.327797262646,-384.457650775783 391.843686331381,-351.55912635367 434.933285133838,-346.41917075087 456.417396065113,-379.317695172975 " style="fill: rgb(14,173,105); fill-opacity: 1; stroke: rgb(0,0,0); stroke-width: 3" />
	<polygon points="365.423572120219,-314.850989385774 348.495096403474,-277.610021940178 369.979207334714,-244.711497518057 396.399321545866,-210.286067475357 413.32779726261,-247.527034920949 391.84368633137,-280.425559343073 " style="fill: rgb(14,173,105); fill-opacity: 1; stroke: rgb(0,0,0); stroke-width: 3" />
	<polygon points="258.060485697365,-283.37596498749 241.132009980647,-320.616932433105 200.322893666147,-323.459285684589 217.251369382864,-286.218318238976 " style="fill: rgb(14,173,105); fill-opacity: 1; stroke: rgb(0,0,0); stroke-width: 3" />
	<polygon points="281.10230568174,-389.432985300723 300.359156726992,-428.321368609584 273.673171624744,-459.326547943033 254.416320579491,-420.438164634179 " style="fill: rgb(14,173,105); fill-opacity: 1; stroke: rgb(0,0,0); stroke-width: 3" />
	<polygon points="456.70786158747,-246.385681458325 439.779385870717,-209.144714012741 479.071623420375,-209.144714012711 496.000099137123,-246.38568145829 " style="fill: rgb(14,173,105); fill-opacity: 1; stroke: rgb(0,0,0); stroke-width: 3" />
	<polygon points="391.843686331381,-351.55912635367 365.423572120211,-317.133696310984 408.440129868004,-311.414568048211 434.86024407917,-345.839998090884 " style="fill: rgb(14,173,105); fill-opacity: 1; stroke: rgb(0,0,0); stroke-width: 3" />
	<polygon points="281.102305681719,-242.551700396068 253.375402026073,-212.473772275136 271.296061295788,-172.951846210055 299.022964951433,-203.029774330982 " style="fill: rgb(14,173,105); fill-opacity: 1; stroke: rgb(0,0,0); stroke-width: 3" />
	<polygon points="265.822794528973,-353.233310294001 281.10230568174,-389.432985300723 253.375402026118,-419.510913421665 238.095890873351,-383.311238414946 " style="fill: rgb(14,173,105); fill-opacity: 1; stroke: rgb(0,0,0); stroke-width: 3" />
	<polygon points="391.84368633137,-280.425559343073 413.32779726261,-247.527034920949 456.417396065066,-252.666990523722 434.933285133828,-285.565514945845 " style="fill: rgb(14,173,105); fill-opacity: 1; stroke: rgb(0,0,0); stroke-width: 3" />
	<polygon points="305.115032078623,-278.751375402782 265.822794528969,-278.751375402783 281.102305681719,-242.551700396068 320.394543231367,-242.551700396059 " style="fill: rgb(14,173,105); fill-opacity: 1; stroke: rgb(0,0,0); stroke-width: 3" />
	<polygon points="161.58600171702,-323.005706184687 142.88008479758,-357.559556966645 99.5137469138008,-355.980504369282 118.219663833233,-321.426653587328 " style="fill: rgb(14,173,105); fill-opacity: 1; stroke: rgb(0,0,0); stroke-width: 3" />
	<polygon points="439.779385870792,-422.839971683963 479.071623420449,-422.83997168394 496.000099137188,-460.080939129544 456.707861587528,-460.080939129566 " style="fill: rgb(14,173,105); fill-opacity: 1; stroke: rgb(0,0,0); stroke-width: 3" />
	<polygon points="364.999136614032,-390.032714578066 385.655186275321,-428.196313477346 342.275121950468,-427.054960014753 321.619072289178,-388.891361115473 " style="fill: rgb(14,173,105); fill-opacity: 1; stroke: rgb(0,0,0); stroke-width: 3" />
	<polygon points="300.359156726992,-428.321368609584 339.651394276625,-428.321368609559 382.920971718771,-431.619297737529 360.996039963031,-466.155659935821 321.703802413395,-466.15565993584 278.434224971249,-462.85773080787 " style="fill: rgb(14,173,105); fill-opacity: 1; stroke: rgb(0,0,0); stroke-width: 3" />
	<polygon points="348.495096403474,-277.610021940178 305.115032078623,-278.751375402782 321.619072289157,-243.093324581296 364.999136614003,-241.95197111869 " style="fill: rgb(14,173,105); fill-opacity: 1; stroke: rgb(0,0,0); stroke-width: 3" />
	<polygon points="360.996039962725,-165.829025761208 321.703802413082,-165.829025761228 340.960653458326,-126.940642452366 380.252891007968,-126.940642452333 " style="fill: rgb(14,173,105); fill-opacity: 1; stroke: rgb(0,0,0); stroke-width: 3" />
	<polygon points="456.417396065113,-379.317695172975 434.933285133838,-346.41917075087 473.596967825416,-339.419201294916 495.081078756688,-372.317725717008 " style="fill: rgb(14,173,105); fill-opacity: 1; stroke: rgb(0,0,0); stroke-width: 3" />
	<polygon points="162.033666276999,-224.67957069996 145.1051905603,-261.92053814557 106.191907415099,-267.364463799017 62.8827169570134,-270.093326276406 79.8111926737116,-232.852358830798 118.724475818914,-227.40843317735 " style="fill: rgb(14,173,105); fill-opacity: 1; stroke: rgb(0,0,0); stroke-width: 3" />
	<polygon points="265.822794528969,-278.751375402783 238.095890873337,-248.673447281852 253.375402026073,-212.473772275136 281.102305681719,-242.551700396068 " style="fill: rgb(14,173,105); fill-opacity: 1; stroke: rgb(0,0,0); stroke-width: 3" />
	<polygon points="225.385158059879,-359.418817805116 206.679241140424,-393.972668587068 181.988456592096,-361.356290726195 200.694373511549,-326.802439944231 " style="fill: rgb(14,173,105); fill-opacity: 1; stroke: rgb(0,0,0); stroke-width: 3" />
	<polygon points="439.779385870792,-422.839971683963 456.7078615875,-385.599004238366 496.000099137163,-385.599004238348 479.071623420449,-422.83997168394 " style="fill: rgb(14,173,105); fill-opacity: 1; stroke: rgb(0,0,0); stroke-width: 3" />
	<polygon points="396.399321545929,-421.698618221386 439.779385870792,-422.839971683963 454.726135253794,-460.919593915 411.346070928936,-459.778240452424 " style="fill: rgb(14,173,105); fill-opacity: 1; stroke: rgb(0,0,0); stroke-width: 3" />
	<polygon points="396.399321545929,-421.698618221386 413.327797262646,-384.457650775783 456.7078615875,-385.599004238366 439.779385870792,-422.839971683963 " style="fill: rgb(14,173,105); fill-opacity: 1; stroke: rgb(0,0,0); stroke-width: 3" />
	<polygon points="217.251369382864,-286.218318238976 200.322893666147,-323.459285684589 174.487907517304,-293.854667424125 191.416383234016,-256.613699978515 " style="fill: rgb(14,173,105); fill-opacity: 1; stroke: rgb(0,0,0); stroke-width: 3" />
	<polygon points="206.679241140424,-393.972668587068 185.023512438747,-431.578015054749 160.33272789042,-398.961637193882 181.988456592096,-361.356290726195 " style="fill: rgb(14,173,105); fill-opacity: 1; stroke: rgb(0,0,0); stroke-width: 3" />
	<polygon points="320.394543231367,-242.551700396059 281.102305681719,-242.551700396068 300.35915672696,-203.663317087211 339.651394276607,-203.66331708719 " style="fill: rgb(14,173,105); fill-opacity: 1; stroke: rgb(0,0,0); stroke-width: 3" />
	<polygon points="200.694373511549,-326.802439944231 181.988456592096,-361.356290726195 142.88008479758,-357.559556966645 161.58600171702,-323.005706184687 " style="fill: rgb(14,173,105); fill-opacity: 1; stroke: rgb(0,0,0); stroke-width: 3" />
	<polygon points="364.999136614003,-241.95197111869 321.619072289157,-243.093324581296 342.275121950432,-204.929725682008 385.65518627527,-203.788372219389 " style="fill: rgb(14,173,105); fill-opacity: 1; stroke: rgb(0,0,0); stroke-width: 3" />
	<polygon points="297.166210310033,-502.001637023559 340.435787752177,-505.299566151527 355.145545488709,-541.734480162565 311.87596804657,-538.436551034593 " style="fill: rgb(14,173,105); fill-opacity: 1; stroke: rgb(0,0,0); stroke-width: 3" />
	<polygon points="413.32779726261,-247.527034920949 396.399321545866,-210.286067475357 439.779385870717,-209.144714012741 456.70786158747,-246.385681458325 " style="fill: rgb(14,173,105); fill-opacity: 1; stroke: rgb(0,0,0); stroke-width: 3" />
	<polygon points="181.988456592096,-361.356290726195 160.33272789042,-398.961637193882 121.117700486413,-396.499614171669 142.773429188087,-358.894267703983 " style="fill: rgb(14,173,105); fill-opacity: 1; stroke: rgb(0,0,0); stroke-width: 3" />
	<polygon points="382.920971718735,-200.365387959203 339.651394276607,-203.66331708719 300.35915672696,-203.663317087211 278.434224970953,-169.126954889216 321.703802413082,-165.829025761228 360.996039962725,-165.829025761208 " style="fill: rgb(14,173,105); fill-opacity: 1; stroke: rgb(0,0,0); stroke-width: 3" />
	<polygon points="278.434224971249,-462.85773080787 321.703802413395,-466.15565993584 340.435787752177,-505.299566151527 297.166210310033,-502.001637023559 " style="fill: rgb(14,173,105); fill-opacity: 1; stroke: rgb(0,0,0); stroke-width: 3" />
	<polygon points="439.779385870717,-209.144714012741 396.399321545866,-210.286067475357 411.346070928827,-172.206445244305 454.726135253669,-171.065091781682 " style="fill: rgb(14,173,105); fill-opacity: 1; stroke: rgb(0,0,0); stroke-width: 3" />
	<polygon points="321.703802413395,-466.15565993584 360.996039963031,-466.155659935821 380.252891008274,-505.044043244677 340.960653458641,-505.044043244696 " style="fill: rgb(14,173,105); fill-opacity: 1; stroke: rgb(0,0,0); stroke-width: 3" />
	<polygon points="439.779385870717,-209.144714012741 456.707861587453,-171.903746567136 496.00009913711,-171.903746567094 479.071623420375,-209.144714012711 " style="fill: rgb(14,173,105); fill-opacity: 1; stroke: rgb(0,0,0); stroke-width: 3" />
	<polygon points="185.023512438747,-431.578015054749 142.171698970294,-438.423068087429 103.012547088142,-441.654283884922 78.3217625398075,-409.037906024063 121.173576008267,-402.192852991376 160.33272789042,-398.961637193882 " style="fill: rgb(14,173,105); fill-opacity: 1; stroke: rgb(0,0,0); stroke-width: 3" />
	<polygon points="121.117700486413,-396.499614171669 77.722624083315,-396.496075238151 99.3783527849884,-358.890728770466 142.773429188087,-358.894267703983 " style="fill: rgb(14,173,105); fill-opacity: 1; stroke: rgb(0,0,0); stroke-width: 3" />
	<polygon points="380.252891007968,-126.940642452333 340.960653458326,-126.940642452366 356.240164611079,-90.7409674456422 395.532402160711,-90.7409674456081 " style="fill: rgb(14,173,105); fill-opacity: 1; stroke: rgb(0,0,0); stroke-width: 3" />
	<polygon points="191.416383234016,-256.613699978515 174.487907517304,-293.854667424125 145.1051905603,-261.92053814557 162.033666276999,-224.67957069996 " style="fill: rgb(14,173,105); fill-opacity: 1; stroke: rgb(0,0,0); stroke-width: 3" />
	<polygon points="356.240164611402,-541.243718251406 395.532402161029,-541.243718251389 378.603926444296,-578.484685696995 339.31168889467,-578.484685697021 " style="fill: rgb(14,173,105); fill-opacity: 1; stroke: rgb(0,0,0); stroke-width: 3" />
	<polygon points="340.960653458641,-505.044043244696 380.252891008274,-505.044043244677 395.532402161029,-541.243718251389 356.240164611402,-541.243718251406 " style="fill: rgb(14,173,105); fill-opacity: 1; stroke: rgb(0,0,0); stroke-width: 3" />
	<polygon points="496.000099137123,-246.38568145829 479.071623420375,-209.144714012711 503.76240796868,-176.528336151791 520.69088368542,-213.76930359737 " style="fill: rgb(14,173,105); fill-opacity: 1; stroke: rgb(0,0,0); stroke-width: 3" />
	<polygon points="378.603926443973,-53.5 395.532402160711,-90.7409674456081 356.240164611079,-90.7409674456422 339.311688894346,-53.5000000000322 " style="fill: rgb(14,173,105); fill-opacity: 1; stroke: rgb(0,0,0); stroke-width: 3" />
	<polygon points="297.166210309714,-129.983048673512 311.875968046235,-93.5481346624763 355.145545488362,-90.2502055344931 340.435787751835,-126.685119545527 " style="fill: rgb(14,173,105); fill-opacity: 1; stroke: rgb(0,0,0); stroke-width: 3" />
	<polygon points="479.071623420449,-422.83997168394 496.000099137163,-385.599004238348 520.690883685493,-418.215382099241 503.762407968791,-455.456349544831 " style="fill: rgb(14,173,105); fill-opacity: 1; stroke: rgb(0,0,0); stroke-width: 3" />
	<polygon points="503.762407968791,-455.456349544831 520.690883685493,-418.215382099241 561.5,-415.373028847756 544.571524283292,-452.613996293341 " style="fill: rgb(14,173,105); fill-opacity: 1; stroke: rgb(0,0,0); stroke-width: 3" />
	<polygon points="103.012547088142,-441.654283884922 81.3568183864752,-479.259630352611 56.6660338381427,-446.643252491762 78.3217625398075,-409.037906024063 " style="fill: rgb(14,173,105); fill-opacity: 1; stroke: rgb(0,0,0); stroke-width: 3" />
	<polygon points="321.703802413082,-165.829025761228 278.434224970953,-169.126954889216 297.166210309714,-129.983048673512 340.435787751835,-126.685119545527 " style="fill: rgb(14,173,105); fill-opacity: 1; stroke: rgb(0,0,0); stroke-width: 3" />
	<polygon points="79.8111926737116,-232.852358830798 62.8827169570134,-270.093326276406 33.5,-238.15919699786 50.428475716687,-200.918229552251 " style="fill: rgb(14,173,105); fill-opacity: 1; stroke: rgb(0,0,0); stroke-width: 3" />
	<circle cx="282.751270245704" cy="-315.992342848386" r="2" style="fill: rgb(0,0,0)" />
	<circle cx="322.04350779536" cy="-315.992342848386" r="2" style="fill: rgb(0,0,0)" />
	<circle cx="305.115032078626" cy="-353.233310293989" r="2" style="fill: rgb(0,0,0)" />
	<circle cx="265.822794528973" cy="-353.233310294001" r="2" style="fill: rgb(0,0,0)" />
	<circle cx="265.822794528969" cy="-278.751375402783" r="2" style="fill: rgb(0,0,0)" />
	<circle cx="305.115032078623" cy="-278.751375402782" r="2" style="fill: rgb(0,0,0)" />
	<circle cx="365.423572120211" cy="-317.133696310984" r="2" style="fill: rgb(0,0,0)" />
	<circle cx="348.495096403483" cy="-354.374663756584" r="2" style="fill: rgb(0,0,0)" />
	<circle cx="241.132009980647" cy="-320.616932433105" r="2" style="fill: rgb(0,0,0)" />
	<circle cx="258.060485697365" cy="-283.37596498749" r="2" style="fill: rgb(0,0,0)" />
	<circle cx="320.394543231382" cy="-389.432985300703" r="2" style="fill: rgb(0,0,0)" />
	<circle cx="281.10230568174" cy="-389.432985300723" r="2" style="fill: rgb(0,0,0)" />
	<circle cx="348.495096403474" cy="-277.610021940178" r="2" style="fill: rgb(0,0,0)" />
	<circle cx="365.423572120219" cy="-314.850989385774" r="2" style="fill: rgb(0,0,0)" />
	<circle cx="281.102305681719" cy="-242.551700396068" r="2" style="fill: rgb(0,0,0)" />
	<circle cx="320.394543231367" cy="-242.551700396059" r="2" style="fill: rgb(0,0,0)" />
	<circle cx="391.843686331381" cy="-351.55912635367" r="2" style="fill: rgb(0,0,0)" />
	<circle cx="413.327797262646" cy="-384.457650775783" r="2" style="fill: rgb(0,0,0)" />
	<circle cx="396.399321545929" cy="-421.698618221386" r="2" style="fill: rgb(0,0,0)" />
	<circle cx="369.979207334751" cy="-387.273188178699" r="2" style="fill: rgb(0,0,0)" />
	<circle cx="364.999136614032" cy="-390.032714578066" r="2" style="fill: rgb(0,0,0)" />
	<circle cx="321.619072289178" cy="-388.891361115473" r="2" style="fill: rgb(0,0,0)" />
	<circle cx="225.385158059879" cy="-359.418817805116" r="2" style="fill: rgb(0,0,0)" />
	<circle cx="200.694373511549" cy="-326.802439944231" r="2" style="fill: rgb(0,0,0)" />
	<circle cx="200.322893666147" cy="-323.459285684589" r="2" style="fill: rgb(0,0,0)" />
	<circle cx="217.251369382864" cy="-286.218318238976" r="2" style="fill: rgb(0,0,0)" />
	<circle cx="339.651394276625" cy="-428.321368609559" r="2" style="fill: rgb(0,0,0)" />
	<circle cx="300.359156726992" cy="-428.321368609584" r="2" style="fill: rgb(0,0,0)" />
	<circle cx="253.375402026118" cy="-419.510913421665" r="2" style="fill: rgb(0,0,0)" />
	<circle cx="238.095890873351" cy="-383.311238414946" r="2" style="fill: rgb(0,0,0)" />
	<circle cx="369.979207334714" cy="-244.711497518057" r="2" style="fill: rgb(0,0,0)" />
	<circle cx="396.399321545866" cy="-210.286067475357" r="2" style="fill: rgb(0,0,0)" />
	<circle cx="413.32779726261" cy="-247.527034920949" r="2" style="fill: rgb(0,0,0)" />
	<circle cx="391.84368633137" cy="-280.425559343073" r="2" style="fill: rgb(0,0,0)" />
	<circle cx="321.619072289157" cy="-243.093324581296" r="2" style="fill: rgb(0,0,0)" />
	<circle cx="364.999136614003" cy="-241.95197111869" r="2" style="fill: rgb(0,0,0)" />
	<circle cx="238.095890873337" cy="-248.673447281852" r="2" style="fill: rgb(0,0,0)" />
	<circle cx="253.375402026073" cy="-212.473772275136" r="2" style="fill: rgb(0,0,0)" />
	<circle cx="300.35915672696" cy="-203.663317087211" r="2" style="fill: rgb(0,0,0)" />
	<circle cx="339.651394276607" cy="-203.66331708719" r="2" style="fill: rgb(0,0,0)" />
	<circle cx="434.933285133838" cy="-346.41917075087" r="2" style="fill: rgb(0,0,0)" />
	<circle cx="456.417396065113" cy="-379.317695172975" r="2" style="fill: rgb(0,0,0)" />
	<circle cx="408.440129868004" cy="-311.414568048211" r="2" style="fill: rgb(0,0,0)" />
	<circle cx="434.86024407917" cy="-345.839998090884" r="2" style="fill: rgb(0,0,0)" />
	<circle cx="456.7078615875" cy="-385.599004238366" r="2" style="fill: rgb(0,0,0)" />
	<circle cx="439.779385870792" cy="-422.839971683963" r="2" style="fill: rgb(0,0,0)" />
	<circle cx="385.655186275321" cy="-428.196313477346" r="2" style="fill: rgb(0,0,0)" />
	<circle cx="342.275121950468" cy="-427.054960014753" r="2" style="fill: rgb(0,0,0)" />
	<circle cx="206.679241140424" cy="-393.972668587068" r="2" style="fill: rgb(0,0,0)" />
	<circle cx="181.988456592096" cy="-361.356290726195" r="2" style="fill: rgb(0,0,0)" />
	<circle cx="174.487907517304" cy="-293.854667424125" r="2" style="fill: rgb(0,0,0)" />
	<circle cx="191.416383234016" cy="-256.613699978515" r="2" style="fill: rgb(0,0,0)" />
	<circle cx="273.673171624744" cy="-459.326547943033" r="2" style="fill: rgb(0,0,0)" />
	<circle cx="254.416320579491" cy="-420.438164634179" r="2" style="fill: rgb(0,0,0)" />
	<circle cx="382.920971718771" cy="-431.619297737529" r="2" style="fill: rgb(0,0,0)" />
	<circle cx="360.996039963031" cy="-466.155659935821" r="2" style="fill: rgb(0,0,0)" />
	<circle cx="321.703802413395" cy="-466.15565993584" r="2" style="fill: rgb(0,0,0)" />
	<circle cx="278.434224971249" cy="-462.85773080787" r="2" style="fill: rgb(0,0,0)" />
	<circle cx="456.417396065066" cy="-252.666990523722" r="2" style="fill: rgb(0,0,0)" />
	<circle cx="434.933285133828" cy="-285.565514945845" r="2" style="fill: rgb(0,0,0)" />
	<circle cx="439.779385870717" cy="-209.144714012741" r="2" style="fill: rgb(0,0,0)" />
	<circle cx="456.70786158747" cy="-246.385681458325" r="2" style="fill: rgb(0,0,0)" />
	<circle cx="342.275121950432" cy="-204.929725682008" r="2" style="fill: rgb(0,0,0)" />
	<circle cx="385.65518627527" cy="-203.788372219389" r="2" style="fill: rgb(0,0,0)" />
	<circle cx="271.296061295788" cy="-172.951846210055" r="2" style="fill: rgb(0,0,0)" />
	<circle cx="299.022964951433" cy="-203.029774330982" r="2" style="fill: rgb(0,0,0)" />
	<circle cx="278.434224970953" cy="-169.126954889216" r="2" style="fill: rgb(0,0,0)" />
	<circle cx="321.703802413082" cy="-165.829025761228" r="2" style="fill: rgb(0,0,0)" />
	<circle cx="360.996039962725" cy="-165.829025761208" r="2" style="fill: rgb(0,0,0)" />
	<circle cx="382.920971718735" cy="-200.365387959203" r="2" style="fill: rgb(0,0,0)" />
	<circle cx="473.596967825416" cy="-339.419201294916" r="2" style="fill: rgb(0,0,0)" />
	<circle cx="495.081078756688" cy="-372.317725717008" r="2" style="fill: rgb(0,0,0)" />
	<circle cx="496.000099137163" cy="-385.599004238348" r="2" style="fill: rgb(0,0,0)" />
	<circle cx="479.071623420449" cy="-422.83997168394" r="2" style="fill: rgb(0,0,0)" />
	<circle cx="454.726135253794" cy="-460.919593915" r="2" style="fill: rgb(0,0,0)" />
	<circle cx="411.346070928936" cy="-459.778240452424" r="2" style="fill: rgb(0,0,0)" />
	<circle cx="185.023512438747" cy="-431.578015054749" r="2" style="fill: rgb(0,0,0)" />
	<circle cx="160.33272789042" cy="-398.961637193882" r="2" style="fill: rgb(0,0,0)" />
	<circle cx="142.88008479758" cy="-357.559556966645" r="2" style="fill: rgb(0,0,0)" />
	<circle cx="161.58600171702" cy="-323.005706184687" r="2" style="fill: rgb(0,0,0)" />
	<circle cx="145.1051905603" cy="-261.92053814557" r="2" style="fill: rgb(0,0,0)" />
	<circle cx="162.033666276999" cy="-224.67957069996" r="2" style="fill: rgb(0,0,0)" />
	<circle cx="340.435787752177" cy="-505.299566151527" r="2" style="fill: rgb(0,0,0)" />
	<circle cx="297.166210310033" cy="-502.001637023559" r="2" style="fill: rgb(0,0,0)" />
	<circle cx="380.252891008274" cy="-505.044043244677" r="2" style="fill: rgb(0,0,0)" />
	<circle cx="340.960653458641" cy="-505.044043244696" r="2" style="fill: rgb(0,0,0)" />
	<circle cx="479.071623420375" cy="-209.144714012711" r="2" style="fill: rgb(0,0,0)" />
	<circle cx="496.000099137123" cy="-246.38568145829" r="2" style="fill: rgb(0,0,0)" />
	<circle cx="411.346070928827" cy="-172.206445244305" r="2" style="fill: rgb(0,0,0)" />
	<circle cx="454.726135253669" cy="-171.065091781682" r="2" style="fill: rgb(0,0,0)" />
	<circle cx="340.960653458326" cy="-126.940642452366" r="2" style="fill: rgb(0,0,0)" />
	<circle cx="380.252891007968" cy="-126.940642452333" r="2" style="fill: rgb(0,0,0)" />
	<circle cx="297.166210309714" cy="-129.983048673512" r="2" style="fill: rgb(0,0,0)" />
	<circle cx="340.435787751835" cy="-126.685119545527" r="2" style="fill: rgb(0,0,0)" />
	<circle cx="496.000099137188" cy="-460.080939129544" r="2" style="fill: rgb(0,0,0)" />
	<circle cx="456.707861587528" cy="-460.080939129566" r="2" style="fill: rgb(0,0,0)" />
	<circle cx="520.690883685493" cy="-418.215382099241" r="2" style="fill: rgb(0,0,0)" />
	<circle cx="503.762407968791" cy="-455.456349544831" r="2" style="fill: rgb(0,0,0)" />
	<circle cx="121.117700486413" cy="-396.499614171669" r="2" style="fill: rgb(0,0,0)" />
	<circle cx="142.773429188087" cy="-358.894267703983" r="2" style="fill: rgb(0,0,0)" />
	<circle cx="142.171698970294" cy="-438.423068087429" r="2" style="fill: rgb(0,0,0)" />
	<circle cx="103.012547088142" cy="-441.654283884922" r="2" style="fill: rgb(0,0,0)" />
	<circle cx="78.3217625398075" cy="-409.037906024063" r="2" style="fill: rgb(0,0,0)" />
	<circle cx="121.173576008267" cy="-402.192852991376" r="2" style="fill: rgb(0,0,0)" />
	<circle cx="99.5137469138008" cy="-355.980504369282" r="2" style="fill: rgb(0,0,0)" />
	<circle cx="118.219663833233" cy="-321.426653587328" r="2" style="fill: rgb(0,0,0)" />
	<circle cx="106.191907415099" cy="-267.364463799017" r="2" style="fill: rgb(0,0,0)" />
	<circle cx="62.8827169570134" cy="-270.093326276406" r="2" style="fill: rgb(0,0,0)" />
	<circle cx="79.8111926737116" cy="-232.852358830798" r="2" style="fill: rgb(0,0,0)" />
	<circle cx="118.724475818914" cy="-227.40843317735" r="2" style="fill: rgb(0,0,0)" />
	<circle cx="355.145545488709" cy="-541.734480162565" r="2" style="fill: rgb(0,0,0)" />
	<circle cx="311.87596804657" cy="-538.436551034593" r="2" style="fill: rgb(0,0,0)" />
	<circle cx="395.532402161029" cy="-541.243718251389" r="2" style="fill: rgb(0,0,0)" />
	<circle cx="356.240164611402" cy="-541.243718251406" r="2" style="fill: rgb(0,0,0)" />
	<circle cx="456.707861587453" cy="-171.903746567136" r="2" style="fill: rgb(0,0,0)" />
	<circle cx="496.00009913711" cy="-171.903746567094" r="2" style="fill: rgb(0,0,0)" />
	<circle cx="503.76240796868" cy="-176.528336151791" r="2" style="fill: rgb(0,0,0)" />
	<circle cx="520.69088368542" cy="-213.76930359737" r="2" style="fill: rgb(0,0,0)" />
	<circle cx="356.240164611079" cy="-90.7409674456422" r="2" style="fill: rgb(0,0,0)" />
	<circle cx="395.532402160711" cy="-90.7409674456081" r="2" style="fill: rgb(0,0,0)" />
	<circle cx="311.875968046235" cy="-93.5481346624763" r="2" style="fill: rgb(0,0,0)" />
	<circle cx="355.145545488362" cy="-90.2502055344931" r="2" style="fill: rgb(0,0,0)" />
	<circle cx="561.5" cy="-415.373028847756" r="2" style="fill: rgb(0,0,0)" />
	<circle cx="544.571524283292" cy="-452.613996293341" r="2" style="fill: rgb(0,0,0)" />
	<circle cx="77.722624083315" cy="-396.496075238151" r="2" style="fill: rgb(0,0,0)" />
	<circle cx="99.3783527849884" cy="-358.890728770466" r="2" style="fill: rgb(0,0,0)" />
	<circle cx="81.3568183864752" cy="-479.259630352611" r="2" style="fill: rgb(0,0,0)" />
	<circle cx="56.6660338381427" cy="-446.643252491762" r="2" style="fill: rgb(0,0,0)" />
	<circle cx="33.5" cy="-238.15919699786" r="2" style="fill: rgb(0,0,0)" />
	<circle cx="50.428475716687" cy="-200.918229552251" r="2" style="fill: rgb(0,0,0)" />
	<circle cx="378.603926444296" cy="-578.484685696995" r="2" style="fill: rgb(0,0,0)" />
	<circle cx="339.31168889467" cy="-578.484685697021" r="2" style="fill: rgb(0,0,0)" />
	<circle cx="339.311688894346" cy="-53.5000000000322" r="2" style="fill: rgb(0,0,0)" />
	<circle cx="378.603926443973" cy="-53.5" r="2" style="fill: rgb(0,0,0)" />
	<!--
	Generated using the Perl SVG Module V2.87
	by Ronan Oger

	-->
</svg>