<?xml version="1.0" encoding="UTF-8" standalone="yes"?>
<!DOCTYPE svg PUBLIC "-//W3C//DTD SVG 1.0//EN" "http://www.w3.org/TR/2001/REC-SVG-20010904/DTD/svg10.dtd">
<!-- generated using polymake; Michael Joswig, Georg Loho, Benjamin Lorenz, Rico Raber; license CC BY-NC-ND 3.0; see polymake.org and matchthenet.de -->
<svg height="841pt" id="document" viewBox="0 -585.292015749944 572 585.292015749944" width="595pt" xmlns="http://www.w3.org/2000/svg" xmlns:svg="http://www.w3.org/2000/svg" xmlns:xlink="http://www.w3.org/1999/xlink">
	<title id="document_title">planar_net_</title>
	<polygon points="264.19954789066,-288.590081939041 316.129932683025,-288.590081939041 323.079804193009,-340.053312994601 271.149419400649,-340.053312994605 " style="fill: rgb(14,173,105); fill-opacity: 1; stroke: rgb(0,0,0); stroke-width: 3" />
	<polygon points="334.324932513582,-253.98113563331 316.129932683025,-288.590081939041 264.19954789066,-288.590081939041 234.759419739484,-245.811071675528 252.954419570045,-211.202125369799 304.884804362399,-211.202125369794 " style="fill: rgb(14,173,105); fill-opacity: 1; stroke: rgb(0,0,0); stroke-width: 3" />
	<polygon points="323.079804193009,-340.053312994601 316.129932683025,-288.590081939041 347.992498230919,-265.927026100666 394.326666695643,-289.377179562115 401.276538205627,-340.840410617671 369.413972657733,-363.503466456048 " style="fill: rgb(14,173,105); fill-opacity: 1; stroke: rgb(0,0,0); stroke-width: 3" />
	<polygon points="380.659100978306,-230.530982171834 351.21897282712,-187.751971908327 399.858729972514,-140.627821257958 429.298858123707,-183.406831521448 " style="fill: rgb(14,173,105); fill-opacity: 1; stroke: rgb(0,0,0); stroke-width: 3" />
	<polygon points="369.413972657733,-363.503466456048 401.276538205627,-340.840410617671 440.530102372471,-396.027993006117 408.66753682458,-418.691048844496 " style="fill: rgb(14,173,105); fill-opacity: 1; stroke: rgb(0,0,0); stroke-width: 3" />
	<polygon points="380.659100978306,-230.530982171834 334.324932513582,-253.98113563331 304.884804362399,-211.202125369794 351.21897282712,-187.751971908327 " style="fill: rgb(14,173,105); fill-opacity: 1; stroke: rgb(0,0,0); stroke-width: 3" />
	<polygon points="351.21897282712,-187.751971908327 304.884804362399,-211.202125369794 284.760677515852,-146.537366278422 331.094845980568,-123.08721281695 " style="fill: rgb(14,173,105); fill-opacity: 1; stroke: rgb(0,0,0); stroke-width: 3" />
	<polygon points="264.19954789066,-288.590081939041 271.149419400649,-340.053312994605 206.471461022731,-360.134977510915 199.521589512732,-308.671746455362 " style="fill: rgb(14,173,105); fill-opacity: 1; stroke: rgb(0,0,0); stroke-width: 3" />
	<polygon points="252.954419570045,-211.202125369799 234.759419739484,-245.811071675528 174.814966341535,-214.296407525286 193.009966172091,-179.687461219557 " style="fill: rgb(14,173,105); fill-opacity: 1; stroke: rgb(0,0,0); stroke-width: 3" />
	<polygon points="401.276538205627,-340.840410617671 394.326666695643,-289.377179562115 448.408095002241,-330.141265005058 455.357966512218,-381.604496060609 " style="fill: rgb(14,173,105); fill-opacity: 1; stroke: rgb(0,0,0); stroke-width: 3" />
	<polygon points="351.21897282712,-187.751971908327 356.056806855602,-120.20119906601 404.696564000986,-73.0770484156558 399.858729972514,-140.627821257958 " style="fill: rgb(14,173,105); fill-opacity: 1; stroke: rgb(0,0,0); stroke-width: 3" />
	<polygon points="271.149419400649,-340.053312994605 323.079804193009,-340.053312994601 311.834675872414,-406.836983444303 259.904291080057,-406.836983444313 " style="fill: rgb(14,173,105); fill-opacity: 1; stroke: rgb(0,0,0); stroke-width: 3" />
	<polygon points="206.471461022731,-360.134977510915 171.651133507299,-418.221605416123 123.295396685521,-399.287837140731 158.115724200952,-341.201209235522 " style="fill: rgb(14,173,105); fill-opacity: 1; stroke: rgb(0,0,0); stroke-width: 3" />
	<polygon points="304.884804362399,-211.202125369794 252.954419570045,-211.202125369799 205.319291588294,-163.062680713227 257.249676380648,-163.062680713222 " style="fill: rgb(14,173,105); fill-opacity: 1; stroke: rgb(0,0,0); stroke-width: 3" />
	<polygon points="264.19954789066,-288.590081939041 197.538342063574,-276.640387911155 168.098213912404,-233.861377647644 234.759419739484,-245.811071675528 " style="fill: rgb(14,173,105); fill-opacity: 1; stroke: rgb(0,0,0); stroke-width: 3" />
	<polygon points="286.689804531821,-120.283670449713 234.759419739474,-120.283670449708 223.514291418877,-53.5 275.44467621122,-53.5000000000065 " style="fill: rgb(14,173,105); fill-opacity: 1; stroke: rgb(0,0,0); stroke-width: 3" />
	<polygon points="271.149419400649,-340.053312994605 236.32909188521,-398.139940899822 171.651133507299,-418.221605416123 206.471461022731,-360.134977510915 " style="fill: rgb(14,173,105); fill-opacity: 1; stroke: rgb(0,0,0); stroke-width: 3" />
	<polygon points="323.079804193009,-340.053312994601 369.413972657733,-363.503466456048 390.177475264367,-427.965769464747 343.843306799643,-404.515616003299 " style="fill: rgb(14,173,105); fill-opacity: 1; stroke: rgb(0,0,0); stroke-width: 3" />
	<polygon points="236.32909188521,-398.139940899822 243.278963395198,-449.603171955386 178.601005017297,-469.684836471683 171.651133507299,-418.221605416123 " style="fill: rgb(14,173,105); fill-opacity: 1; stroke: rgb(0,0,0); stroke-width: 3" />
	<polygon points="199.521589512732,-308.671746455362 206.471461022731,-360.134977510915 160.137292557999,-336.684824049466 153.187421048008,-285.221592993918 " style="fill: rgb(14,173,105); fill-opacity: 1; stroke: rgb(0,0,0); stroke-width: 3" />
	<polygon points="259.904291080057,-406.836983444313 311.834675872414,-406.836983444303 341.27480402359,-449.615993707817 289.344419231234,-449.615993707825 " style="fill: rgb(14,173,105); fill-opacity: 1; stroke: rgb(0,0,0); stroke-width: 3" />
	<polygon points="257.249676380648,-163.062680713222 205.319291588294,-163.062680713227 234.759419739474,-120.283670449708 286.689804531821,-120.283670449713 " style="fill: rgb(14,173,105); fill-opacity: 1; stroke: rgb(0,0,0); stroke-width: 3" />
	<polygon points="455.357966512218,-381.604496060609 448.408095002241,-330.141265005058 486.862286890399,-295.240835338475 493.812158400376,-346.704066394022 " style="fill: rgb(14,173,105); fill-opacity: 1; stroke: rgb(0,0,0); stroke-width: 3" />
	<polygon points="193.009966172091,-179.687461219557 174.814966341535,-214.296407525286 114.87051294358,-182.78174337505 133.06551277413,-148.172797069321 " style="fill: rgb(14,173,105); fill-opacity: 1; stroke: rgb(0,0,0); stroke-width: 3" />
	<polygon points="408.66753682458,-418.691048844496 440.530102372471,-396.027993006117 479.783666539321,-451.21557539456 447.921100991434,-473.878631232942 " style="fill: rgb(14,173,105); fill-opacity: 1; stroke: rgb(0,0,0); stroke-width: 3" />
	<polygon points="153.187421048008,-285.221592993918 160.137292557999,-336.684824049466 118.805934182855,-390.333965371083 111.856062672867,-338.870734315533 " style="fill: rgb(14,173,105); fill-opacity: 1; stroke: rgb(0,0,0); stroke-width: 3" />
	<polygon points="193.009966172091,-179.687461219557 133.06551277413,-148.172797069321 117.912009005343,-98.502522374967 177.856462403305,-130.017186525205 " style="fill: rgb(14,173,105); fill-opacity: 1; stroke: rgb(0,0,0); stroke-width: 3" />
	<polygon points="493.812158400376,-346.704066394022 486.862286890399,-295.240835338475 554.550128490022,-297.447110313717 561.5,-348.91034136926 " style="fill: rgb(14,173,105); fill-opacity: 1; stroke: rgb(0,0,0); stroke-width: 3" />
	<polygon points="289.344419231234,-449.615993707825 341.27480402359,-449.615993707817 293.639676041837,-497.755438364389 241.709291249486,-497.755438364392 " style="fill: rgb(14,173,105); fill-opacity: 1; stroke: rgb(0,0,0); stroke-width: 3" />
	<polygon points="114.87051294358,-182.78174337505 62.9401281512113,-182.781743375086 33.5,-140.002733111603 51.6949998305511,-105.393786805876 103.625384622921,-105.39378680584 133.06551277413,-148.172797069321 " style="fill: rgb(14,173,105); fill-opacity: 1; stroke: rgb(0,0,0); stroke-width: 3" />
	<polygon points="440.530102372471,-396.027993006117 491.781556370929,-404.39777960598 531.035120537764,-459.585361994414 479.783666539321,-451.21557539456 " style="fill: rgb(14,173,105); fill-opacity: 1; stroke: rgb(0,0,0); stroke-width: 3" />
	<polygon points="171.651133507299,-418.221605416123 159.359163471272,-468.676261666235 111.0034266495,-449.742493390846 123.295396685521,-399.287837140731 " style="fill: rgb(14,173,105); fill-opacity: 1; stroke: rgb(0,0,0); stroke-width: 3" />
	<polygon points="447.921100991434,-473.878631232942 479.783666539321,-451.21557539456 526.117835004054,-474.665728856007 533.067706514055,-526.128959911565 501.205140966167,-548.792015749944 454.870972501432,-525.341862288497 " style="fill: rgb(14,173,105); fill-opacity: 1; stroke: rgb(0,0,0); stroke-width: 3" />
	<polygon points="44.7451283205652,-53.930555750314 96.675513112932,-53.9305557502763 103.625384622921,-105.39378680584 51.6949998305511,-105.393786805876 " style="fill: rgb(14,173,105); fill-opacity: 1; stroke: rgb(0,0,0); stroke-width: 3" />
	<circle cx="264.19954789066" cy="-288.590081939041" r="2" style="fill: rgb(0,0,0)" />
	<circle cx="316.129932683025" cy="-288.590081939041" r="2" style="fill: rgb(0,0,0)" />
	<circle cx="323.079804193009" cy="-340.053312994601" r="2" style="fill: rgb(0,0,0)" />
	<circle cx="271.149419400649" cy="-340.053312994605" r="2" style="fill: rgb(0,0,0)" />
	<circle cx="234.759419739484" cy="-245.811071675528" r="2" style="fill: rgb(0,0,0)" />
	<circle cx="252.954419570045" cy="-211.202125369799" r="2" style="fill: rgb(0,0,0)" />
	<circle cx="304.884804362399" cy="-211.202125369794" r="2" style="fill: rgb(0,0,0)" />
	<circle cx="334.324932513582" cy="-253.98113563331" r="2" style="fill: rgb(0,0,0)" />
	<circle cx="347.992498230919" cy="-265.927026100666" r="2" style="fill: rgb(0,0,0)" />
	<circle cx="394.326666695643" cy="-289.377179562115" r="2" style="fill: rgb(0,0,0)" />
	<circle cx="401.276538205627" cy="-340.840410617671" r="2" style="fill: rgb(0,0,0)" />
	<circle cx="369.413972657733" cy="-363.503466456048" r="2" style="fill: rgb(0,0,0)" />
	<circle cx="206.471461022731" cy="-360.134977510915" r="2" style="fill: rgb(0,0,0)" />
	<circle cx="199.521589512732" cy="-308.671746455362" r="2" style="fill: rgb(0,0,0)" />
	<circle cx="311.834675872414" cy="-406.836983444303" r="2" style="fill: rgb(0,0,0)" />
	<circle cx="259.904291080057" cy="-406.836983444313" r="2" style="fill: rgb(0,0,0)" />
	<circle cx="351.21897282712" cy="-187.751971908327" r="2" style="fill: rgb(0,0,0)" />
	<circle cx="380.659100978306" cy="-230.530982171834" r="2" style="fill: rgb(0,0,0)" />
	<circle cx="174.814966341535" cy="-214.296407525286" r="2" style="fill: rgb(0,0,0)" />
	<circle cx="193.009966172091" cy="-179.687461219557" r="2" style="fill: rgb(0,0,0)" />
	<circle cx="205.319291588294" cy="-163.062680713227" r="2" style="fill: rgb(0,0,0)" />
	<circle cx="257.249676380648" cy="-163.062680713222" r="2" style="fill: rgb(0,0,0)" />
	<circle cx="197.538342063574" cy="-276.640387911155" r="2" style="fill: rgb(0,0,0)" />
	<circle cx="168.098213912404" cy="-233.861377647644" r="2" style="fill: rgb(0,0,0)" />
	<circle cx="440.530102372471" cy="-396.027993006117" r="2" style="fill: rgb(0,0,0)" />
	<circle cx="408.66753682458" cy="-418.691048844496" r="2" style="fill: rgb(0,0,0)" />
	<circle cx="448.408095002241" cy="-330.141265005058" r="2" style="fill: rgb(0,0,0)" />
	<circle cx="455.357966512218" cy="-381.604496060609" r="2" style="fill: rgb(0,0,0)" />
	<circle cx="390.177475264367" cy="-427.965769464747" r="2" style="fill: rgb(0,0,0)" />
	<circle cx="343.843306799643" cy="-404.515616003299" r="2" style="fill: rgb(0,0,0)" />
	<circle cx="236.32909188521" cy="-398.139940899822" r="2" style="fill: rgb(0,0,0)" />
	<circle cx="171.651133507299" cy="-418.221605416123" r="2" style="fill: rgb(0,0,0)" />
	<circle cx="160.137292557999" cy="-336.684824049466" r="2" style="fill: rgb(0,0,0)" />
	<circle cx="153.187421048008" cy="-285.221592993918" r="2" style="fill: rgb(0,0,0)" />
	<circle cx="341.27480402359" cy="-449.615993707817" r="2" style="fill: rgb(0,0,0)" />
	<circle cx="289.344419231234" cy="-449.615993707825" r="2" style="fill: rgb(0,0,0)" />
	<circle cx="399.858729972514" cy="-140.627821257958" r="2" style="fill: rgb(0,0,0)" />
	<circle cx="429.298858123707" cy="-183.406831521448" r="2" style="fill: rgb(0,0,0)" />
	<circle cx="284.760677515852" cy="-146.537366278422" r="2" style="fill: rgb(0,0,0)" />
	<circle cx="331.094845980568" cy="-123.08721281695" r="2" style="fill: rgb(0,0,0)" />
	<circle cx="114.87051294358" cy="-182.78174337505" r="2" style="fill: rgb(0,0,0)" />
	<circle cx="133.06551277413" cy="-148.172797069321" r="2" style="fill: rgb(0,0,0)" />
	<circle cx="234.759419739474" cy="-120.283670449708" r="2" style="fill: rgb(0,0,0)" />
	<circle cx="286.689804531821" cy="-120.283670449713" r="2" style="fill: rgb(0,0,0)" />
	<circle cx="479.783666539321" cy="-451.21557539456" r="2" style="fill: rgb(0,0,0)" />
	<circle cx="447.921100991434" cy="-473.878631232942" r="2" style="fill: rgb(0,0,0)" />
	<circle cx="486.862286890399" cy="-295.240835338475" r="2" style="fill: rgb(0,0,0)" />
	<circle cx="493.812158400376" cy="-346.704066394022" r="2" style="fill: rgb(0,0,0)" />
	<circle cx="123.295396685521" cy="-399.287837140731" r="2" style="fill: rgb(0,0,0)" />
	<circle cx="158.115724200952" cy="-341.201209235522" r="2" style="fill: rgb(0,0,0)" />
	<circle cx="243.278963395198" cy="-449.603171955386" r="2" style="fill: rgb(0,0,0)" />
	<circle cx="178.601005017297" cy="-469.684836471683" r="2" style="fill: rgb(0,0,0)" />
	<circle cx="118.805934182855" cy="-390.333965371083" r="2" style="fill: rgb(0,0,0)" />
	<circle cx="111.856062672867" cy="-338.870734315533" r="2" style="fill: rgb(0,0,0)" />
	<circle cx="293.639676041837" cy="-497.755438364389" r="2" style="fill: rgb(0,0,0)" />
	<circle cx="241.709291249486" cy="-497.755438364392" r="2" style="fill: rgb(0,0,0)" />
	<circle cx="356.056806855602" cy="-120.20119906601" r="2" style="fill: rgb(0,0,0)" />
	<circle cx="404.696564000986" cy="-73.0770484156558" r="2" style="fill: rgb(0,0,0)" />
	<circle cx="117.912009005343" cy="-98.502522374967" r="2" style="fill: rgb(0,0,0)" />
	<circle cx="177.856462403305" cy="-130.017186525205" r="2" style="fill: rgb(0,0,0)" />
	<circle cx="62.9401281512113" cy="-182.781743375086" r="2" style="fill: rgb(0,0,0)" />
	<circle cx="33.5" cy="-140.002733111603" r="2" style="fill: rgb(0,0,0)" />
	<circle cx="51.6949998305511" cy="-105.393786805876" r="2" style="fill: rgb(0,0,0)" />
	<circle cx="103.625384622921" cy="-105.39378680584" r="2" style="fill: rgb(0,0,0)" />
	<circle cx="223.514291418877" cy="-53.5" r="2" style="fill: rgb(0,0,0)" />
	<circle cx="275.44467621122" cy="-53.5000000000065" r="2" style="fill: rgb(0,0,0)" />
	<circle cx="491.781556370929" cy="-404.39777960598" r="2" style="fill: rgb(0,0,0)" />
	<circle cx="531.035120537764" cy="-459.585361994414" r="2" style="fill: rgb(0,0,0)" />
	<circle cx="526.117835004054" cy="-474.665728856007" r="2" style="fill: rgb(0,0,0)" />
	<circle cx="533.067706514055" cy="-526.128959911565" r="2" style="fill: rgb(0,0,0)" />
	<circle cx="501.205140966167" cy="-548.792015749944" r="2" style="fill: rgb(0,0,0)" />
	<circle cx="454.870972501432" cy="-525.341862288497" r="2" style="fill: rgb(0,0,0)" />
	<circle cx="554.550128490022" cy="-297.447110313717" r="2" style="fill: rgb(0,0,0)" />
	<circle cx="561.5" cy="-348.91034136926" r="2" style="fill: rgb(0,0,0)" />
	<circle cx="159.359163471272" cy="-468.676261666235" r="2" style="fill: rgb(0,0,0)" />
	<circle cx="111.0034266495" cy="-449.742493390846" r="2" style="fill: rgb(0,0,0)" />
	<circle cx="44.7451283205652" cy="-53.930555750314" r="2" style="fill: rgb(0,0,0)" />
	<circle cx="96.675513112932" cy="-53.9305557502763" r="2" style="fill: rgb(0,0,0)" />
	<!--
	Generated using the Perl SVG Module V2.87
	by Ronan Oger

	-->
</svg>