<?xml version="1.0" encoding="UTF-8" standalone="no"?>
<!-- Generator: Adobe Illustrator 16.0.0, SVG Export Plug-In . SVG Version: 6.00 Build 0)  -->

<svg
   xmlns:dc="http://purl.org/dc/elements/1.1/"
   xmlns:cc="http://creativecommons.org/ns#"
   xmlns:rdf="http://www.w3.org/1999/02/22-rdf-syntax-ns#"
   xmlns:svg="http://www.w3.org/2000/svg"
   xmlns="http://www.w3.org/2000/svg"
   xmlns:sodipodi="http://sodipodi.sourceforge.net/DTD/sodipodi-0.dtd"
   xmlns:inkscape="http://www.inkscape.org/namespaces/inkscape"
   version="1.1"
   id="Capa_1"
   x="0px"
   y="0px"
   width="792.001px"
   height="792.001px"
   viewBox="0 0 792.001 792.001"
   style="enable-background:new 0 0 792.001 792.001;"
   xml:space="preserve"
   inkscape:version="0.48.4 r9939"
   sodipodi:docname="arrow_red.svg"><metadata
     id="metadata3128"><rdf:RDF><cc:Work
         rdf:about=""><dc:format>image/svg+xml</dc:format><dc:type
           rdf:resource="http://purl.org/dc/dcmitype/StillImage" /><dc:title /></cc:Work></rdf:RDF></metadata><defs
     id="defs3126" /><sodipodi:namedview
     pagecolor="#ffffff"
     bordercolor="#666666"
     borderopacity="1"
     objecttolerance="10"
     gridtolerance="10"
     guidetolerance="10"
     inkscape:pageopacity="0"
     inkscape:pageshadow="2"
     inkscape:window-width="1366"
     inkscape:window-height="744"
     id="namedview3124"
     showgrid="false"
     inkscape:zoom="0.75378695"
     inkscape:cx="162.51277"
     inkscape:cy="396.00049"
     inkscape:window-x="0"
     inkscape:window-y="24"
     inkscape:window-maximized="1"
     inkscape:current-layer="Capa_1" /><g
     id="g3087"
     style="fill:#ff0015;fill-opacity:0.33789954"><g
       id="_x33__12_"
       style="fill:#ff0015;fill-opacity:0.33789954"><g
         id="g3090"
         style="fill:#ff0015;fill-opacity:0.33789954"><path
           d="M526.599,603.244L420.918,708.628V83.353l105.681,105.384c9.725,9.7,25.511,9.7,35.235,0     c9.724-9.699,9.724-25.437,0-35.136L414.855,7.067C409.659,1.896,402.78-0.306,396,0.04c-6.804-0.371-13.683,1.831-18.879,7.027     L230.167,153.6c-9.724,9.7-9.724,25.437,0,35.137c9.725,9.699,25.511,9.699,35.235,0L371.083,83.353v625.275L265.402,603.244     c-9.724-9.699-25.511-9.699-35.235,0c-9.724,9.7-9.724,25.437,0,35.137l146.954,146.558c5.196,5.171,12.075,7.373,18.855,7.027     c6.805,0.346,13.684-1.856,18.855-7.027l146.953-146.558c9.725-9.7,9.725-25.437,0-35.137     C552.085,593.545,536.323,593.545,526.599,603.244z"
           id="path3092"
           style="fill:#ff0015;fill-opacity:0.33789954" /></g></g></g><g
     id="g3094" /><g
     id="g3096" /><g
     id="g3098" /><g
     id="g3100" /><g
     id="g3102" /><g
     id="g3104" /><g
     id="g3106" /><g
     id="g3108" /><g
     id="g3110" /><g
     id="g3112" /><g
     id="g3114" /><g
     id="g3116" /><g
     id="g3118" /><g
     id="g3120" /><g
     id="g3122" /></svg>