<?xml version="1.0" encoding="UTF-8" standalone="no"?>
<!-- Generator: Adobe Illustrator 18.1.1, SVG Export Plug-In . SVG Version: 6.00 Build 0)  -->

<svg
   xmlns:dc="http://purl.org/dc/elements/1.1/"
   xmlns:cc="http://creativecommons.org/ns#"
   xmlns:rdf="http://www.w3.org/1999/02/22-rdf-syntax-ns#"
   xmlns:svg="http://www.w3.org/2000/svg"
   xmlns="http://www.w3.org/2000/svg"
   xmlns:sodipodi="http://sodipodi.sourceforge.net/DTD/sodipodi-0.dtd"
   xmlns:inkscape="http://www.inkscape.org/namespaces/inkscape"
   version="1.1"
   id="Capa_1"
   x="0px"
   y="0px"
   viewBox="0 0 70 70"
   style="enable-background:new 0 0 70 70;"
   xml:space="preserve"
   width="512px"
   height="512px"
   inkscape:version="0.48.4 r9939"
   sodipodi:docname="checkmark.svg"><metadata
     id="metadata3138"><rdf:RDF><cc:Work
         rdf:about=""><dc:format>image/svg+xml</dc:format><dc:type
           rdf:resource="http://purl.org/dc/dcmitype/StillImage" /></cc:Work></rdf:RDF></metadata><defs
     id="defs3136" /><sodipodi:namedview
     pagecolor="#ffffff"
     bordercolor="#666666"
     borderopacity="1"
     objecttolerance="10"
     gridtolerance="10"
     guidetolerance="10"
     inkscape:pageopacity="0"
     inkscape:pageshadow="2"
     inkscape:window-width="1366"
     inkscape:window-height="744"
     id="namedview3134"
     showgrid="false"
     inkscape:zoom="1.1660156"
     inkscape:cx="256"
     inkscape:cy="256"
     inkscape:window-x="0"
     inkscape:window-y="24"
     inkscape:window-maximized="1"
     inkscape:current-layer="Capa_1" /><g
     id="g3096"><g
       id="g3098"><g
         id="g3100"><path
           d="M26.474,70c-2.176,0-4.234-1.018-5.557-2.764L3.049,43.639C0.725,40.57,1.33,36.2,4.399,33.875     c3.074-2.326,7.441-1.717,9.766,1.35l11.752,15.518L55.474,3.285c2.035-3.265,6.332-4.264,9.604-2.232     c3.268,2.034,4.266,6.334,2.23,9.602l-34.916,56.06c-1.213,1.949-3.307,3.175-5.6,3.279C26.685,69.998,26.58,70,26.474,70z"
           fill="#91DC5A"
           id="path3102" /></g></g></g><g
     id="g3104" /><g
     id="g3106" /><g
     id="g3108" /><g
     id="g3110" /><g
     id="g3112" /><g
     id="g3114" /><g
     id="g3116" /><g
     id="g3118" /><g
     id="g3120" /><g
     id="g3122" /><g
     id="g3124" /><g
     id="g3126" /><g
     id="g3128" /><g
     id="g3130" /><g
     id="g3132" /><path
     style="fill:#ffffff;fill-opacity:0.65753425"
     d="m 187.133,511.01721 c -10.97408,-1.4492 -20.0294,-5.92793 -28.39593,-14.04454 -4.7743,-4.63169 -132.812487,-172.76276 -138.855972,-182.33626 -1.257818,-1.99252 -3.295806,-6.17891 -4.528863,-9.30312 -1.984128,-5.02719 -2.246202,-6.91306 -2.279155,-16.40063 -0.04506,-12.97484 1.673397,-18.94194 8.314685,-28.87149 9.425951,-14.09297 24.78759,-22.06253 42.247746,-21.91798 13.656821,0.11306 27.309363,6.14342 36.163932,15.97371 2.279357,2.53053 23.247797,29.90355 46.596537,60.82894 23.34874,30.92539 42.7912,56.13537 43.20546,56.02216 0.41426,-0.11319 49.47631,-78.53303 109.02679,-174.2663 C 400.01175,33.717691 407.33151,22.201027 413.65393,15.724047 c 7.42553,-7.6070531 13.72054,-11.2966371 23.465,-13.7531347 7.82495,-1.9726065 21.6905,-1.30192404 28.74104,1.3902162 19.26275,7.3551915 31.88137,23.9993685 33.4927,44.1774585 0.63062,7.896877 -0.93046,16.815993 -4.17258,23.839744 -2.84805,6.170035 -258.1446,415.949599 -262.45391,421.267919 -7.58543,9.36155 -18.6766,15.93773 -30.4083,18.0297 -7.30715,1.303 -7.81558,1.31443 -15.18488,0.34126 l 0,0 z"
     id="path3154"
     inkscape:connector-curvature="0"
     transform="scale(0.13671875,0.13671875)" /><path
     style="fill:#ffffff;fill-opacity:0.65753425"
     d="m 183.06466,509.80267 c -6.49853,-1.42237 -14.96494,-5.65931 -20.25941,-10.13862 -5.62911,-4.76243 -25.55211,-30.26641 -90.921501,-116.39117 -41.572135,-54.77166 -51.56002,-68.50115 -54.904497,-75.47254 l -3.085785,-6.43217 0.04299,-12.43551 c 0.0501,-14.4922 1.068968,-18.04685 8.250316,-28.78386 9.331778,-13.95216 23.688398,-21.32115 41.448737,-21.27487 7.916683,0.0206 15.750789,1.90344 22.725706,5.46178 9.077561,4.63102 9.992548,5.74951 82.291283,100.59311 6.75714,8.86422 13.40179,17.31153 14.7659,18.7718 1.3641,1.46028 3.26653,3.75937 4.22761,5.10909 l 1.74743,2.45403 2.94348,-4.374 c 1.61891,-2.4057 2.94348,-4.54431 2.94348,-4.75248 0,-0.20817 0.75852,-1.19266 1.68559,-2.18776 0.92707,-0.99509 1.48319,-2.13675 1.23581,-2.537 -0.24737,-0.40026 -0.12427,-0.72774 0.27357,-0.72774 0.78003,0 3.80879,-4.7341 3.6287,-5.67183 -0.06,-0.31271 0.23868,-0.80467 0.66387,-1.09326 1.35703,-0.92104 6.52028,-8.92406 6.52028,-10.1064 0,-0.62621 0.29732,-1.13856 0.66072,-1.13856 0.3634,0 18.89471,-29.23417 41.18069,-64.96483 94.90364,-152.15702 143.44463,-229.677034 151.21653,-241.492929 9.63065,-14.641824 16.3382,-21.663128 24.69565,-25.8508457 7.78188,-3.8993159 13.68755,-4.9911693 24.59389,-4.5469771 10.89049,0.4435474 16.75562,2.3236297 25.192,8.075373 9.50785,6.4822468 16.65959,16.0305128 19.95593,26.6430988 3.01405,9.703743 2.43107,23.973484 -1.33044,32.565921 -2.46997,5.642133 -60.25691,99.060169 -176.83229,285.865989 -81.66945,130.87097 -85.10771,136.22681 -91.15415,141.99266 -12.05948,11.49984 -28.63164,16.2923 -44.40209,12.8405 z"
     id="path3156"
     inkscape:connector-curvature="0"
     transform="scale(0.13671875,0.13671875)" /></svg>