<?xml version="1.0" encoding="UTF-8" standalone="no"?>
<svg
   xmlns:dc="http://purl.org/dc/elements/1.1/"
   xmlns:cc="http://creativecommons.org/ns#"
   xmlns:rdf="http://www.w3.org/1999/02/22-rdf-syntax-ns#"
   xmlns:svg="http://www.w3.org/2000/svg"
   xmlns="http://www.w3.org/2000/svg"
   xmlns:sodipodi="http://sodipodi.sourceforge.net/DTD/sodipodi-0.dtd"
   xmlns:inkscape="http://www.inkscape.org/namespaces/inkscape"
   width="50"
   height="50"
   viewBox="0 0 50 50"
   id="svg3037"
   version="1.1"
   inkscape:version="0.48.4 r9939"
   sodipodi:docname="settings.svg">
  <metadata
     id="metadata3045">
    <rdf:RDF>
      <cc:Work
         rdf:about="">
        <dc:format>image/svg+xml</dc:format>
        <dc:type
           rdf:resource="http://purl.org/dc/dcmitype/StillImage" />
      </cc:Work>
    </rdf:RDF>
  </metadata>
  <defs
     id="defs3043" />
  <sodipodi:namedview
     pagecolor="#ffffff"
     bordercolor="#666666"
     borderopacity="1"
     objecttolerance="10"
     gridtolerance="10"
     guidetolerance="10"
     inkscape:pageopacity="0"
     inkscape:pageshadow="2"
     inkscape:window-width="1366"
     inkscape:window-height="744"
     id="namedview3041"
     showgrid="false"
     inkscape:zoom="11.94"
     inkscape:cx="25"
     inkscape:cy="25"
     inkscape:window-x="0"
     inkscape:window-y="24"
     inkscape:window-maximized="1"
     inkscape:current-layer="svg3037" />
  <path
     style="text-indent:0;text-align:start;line-height:normal;text-transform:none;block-progression:tb;-inkscape-font-specification:Bitstream Vera Sans"
     d="M 21.09375 0 L 20.96875 0.84375 L 19.90625 7.40625 C 18.595387 7.7826883 17.330512 8.2621723 16.15625 8.90625 L 10.75 5.0625 L 10.0625 4.5625 L 9.46875 5.15625 L 5.21875 9.40625 L 4.625 10 L 5.125 10.6875 L 8.90625 16.125 C 8.2558769 17.301813 7.7599264 18.557268 7.375 19.875 L 0.84375 20.96875 L 0 21.09375 L 0 21.96875 L 0 27.96875 L 0 28.78125 L 0.8125 28.9375 L 7.34375 30.09375 C 7.7270515 31.411369 8.2533453 32.664899 8.90625 33.84375 L 5.0625 39.25 L 4.5625 39.9375 L 5.15625 40.53125 L 9.40625 44.78125 L 10 45.375 L 10.6875 44.875 L 16.09375 41.0625 C 17.278442 41.71689 18.551064 42.210635 19.875 42.59375 L 20.96875 49.15625 L 21.09375 50 L 21.9375 50 L 27.9375 50 L 28.78125 50 L 28.9375 49.1875 L 30.09375 42.625 C 31.409096 42.239205 32.636364 41.684943 33.8125 41.03125 L 39.3125 44.875 L 40 45.375 L 40.59375 44.78125 L 44.84375 40.53125 L 45.4375 39.9375 L 44.9375 39.21875 L 41.03125 33.8125 C 41.67083 32.648275 42.185776 31.392917 42.5625 30.09375 L 49.1875 28.9375 L 50 28.78125 L 50 27.96875 L 50 21.96875 L 50 21.09375 L 49.15625 20.96875 L 42.59375 19.90625 C 42.214301 18.596329 41.675813 17.360931 41.03125 16.1875 L 44.875 10.6875 L 45.375 10 L 44.78125 9.40625 L 40.53125 5.15625 L 39.9375 4.5625 L 39.21875 5.0625 L 33.84375 8.9375 C 32.668539 8.2844523 31.411254 7.7906733 30.09375 7.40625 L 28.9375 0.8125 L 28.78125 0 L 27.9375 0 L 21.9375 0 L 21.09375 0 z M 22.8125 2 L 27.125 2 L 28.21875 8.28125 L 28.3125 8.90625 L 28.96875 9.0625 C 30.573153 9.4619521 32.06175 10.104512 33.4375 10.9375 L 34 11.28125 L 34.53125 10.90625 L 39.6875 7.1875 L 42.75 10.21875 L 39.09375 15.46875 L 38.71875 16 L 39.03125 16.5625 C 39.855736 17.934444 40.475974 19.436089 40.875 21.03125 L 41.0625 21.65625 L 41.6875 21.78125 L 48 22.8125 L 48 27.125 L 41.6875 28.21875 L 41.03125 28.34375 L 40.875 28.96875 C 40.480078 30.562575 39.855527 32.065902 39.03125 33.4375 L 38.71875 34 L 39.09375 34.53125 L 42.8125 39.71875 L 39.78125 42.75 L 34.53125 39.09375 L 34 38.71875 L 33.4375 39.0625 C 32.069259 39.895302 30.567544 40.531906 28.96875 40.9375 L 28.34375 41.09375 L 28.21875 41.71875 L 27.125 48 L 22.78125 48 L 21.75 41.75 L 21.65625 41.09375 L 21 40.9375 C 19.393889 40.540685 17.883819 39.925173 16.5 39.09375 L 15.96875 38.75 L 15.40625 39.125 L 10.21875 42.75 L 7.1875 39.6875 L 10.84375 34.5625 L 11.21875 34.03125 L 10.90625 33.46875 C 10.066177 32.080886 9.4005086 30.581151 9 28.96875 L 8.84375 28.34375 L 8.21875 28.21875 L 2 27.125 L 2 22.8125 L 8.21875 21.78125 L 8.875 21.65625 L 9.03125 21.03125 C 9.4360125 19.413143 10.069062 17.885885 10.90625 16.5 L 11.25 15.9375 L 10.875 15.40625 L 7.25 10.21875 L 10.28125 7.1875 L 15.4375 10.84375 L 15.96875 11.25 L 16.53125 10.90625 C 17.908621 10.078322 19.424128 9.4567353 21.03125 9.0625 L 21.6875 8.90625 L 21.78125 8.25 L 22.8125 2 z M 25 16 C 20.041484 16 16 20.041484 16 25 C 16 29.958516 20.041484 34 25 34 C 29.958516 34 34 29.958516 34 25 C 34 20.041484 29.958516 16 25 16 z M 25 18 C 28.877484 18 32 21.122516 32 25 C 32 28.877484 28.877484 32 25 32 C 21.122516 32 18 28.877484 18 25 C 18 21.122516 21.122516 18 25 18 z"
     color="#000"
     overflow="visible"
     enable-background="accumulate"
     font-family="Bitstream Vera Sans"
     id="path3039" />
  <path
     style="fill:#241c1c;fill-opacity:0.65753424999999999"
     d="m 22.798244,47.793132 c -0.04637,-0.197925 -1.020839,-6.15405 -1.064457,-6.506109 -0.02293,-0.18505 -0.125248,-0.232397 -1.114022,-0.515484 -1.648302,-0.471909 -2.855087,-0.986668 -4.132549,-1.762753 l -0.535131,-0.325103 -2.858789,2.001395 -2.85879,2.001394 -1.2410808,-1.225983 C 8.3108308,40.786198 7.6453538,40.101583 7.5145873,39.939121 l -0.2377572,-0.295384 1.997293,-2.796324 1.9972929,-2.796324 -0.132074,-0.258375 c -0.07264,-0.142107 -0.294856,-0.541851 -0.49381,-0.88832 C 10.124624,31.997261 9.4850876,30.462219 9.1570334,29.331637 8.945109,28.601277 8.832071,28.337813 8.7115013,28.293211 8.6226434,28.260341 7.0916569,27.976824 5.309309,27.663174 l -3.2406323,-0.570272 0,-2.116882 0,-2.116883 0.1884422,-0.04381 c 0.1036432,-0.0241 1.5640704,-0.269111 3.2453937,-0.544475 1.6813232,-0.275364 3.1379338,-0.519946 3.2369122,-0.543515 0.1367968,-0.03257 0.2049894,-0.148442 0.2843109,-0.483084 0.3242946,-1.368133 1.0797253,-3.243505 1.8268393,-4.535164 0.236958,-0.409667 0.430832,-0.761307 0.430832,-0.781423 0,-0.02012 -0.866885,-1.274321 -1.9264112,-2.787122 C 8.2954697,11.627741 7.4093791,10.339935 7.3859057,10.27875 7.3606811,10.213 7.9411088,9.5703615 8.8051546,8.7073841 L 10.267082,7.247264 10.795183,7.6157387 c 0.290455,0.202661 1.576411,1.1153487 2.85768,2.0281946 l 2.329579,1.6597197 0.476116,-0.288117 c 1.290919,-0.781187 2.976439,-1.4832456 4.542637,-1.8921148 l 0.716438,-0.1870321 0.528333,-3.2370388 c 0.290584,-1.7803713 0.547646,-3.340682 0.571251,-3.467357 l 0.04292,-0.2303183 2.125209,0 c 1.422887,0 2.12521,0.028943 2.12521,0.087579 0,0.148807 1.168145,6.8036263 1.199827,6.8353082 0.0164,0.016403 0.327902,0.1077938 0.692218,0.2030897 1.428544,0.3736708 2.653183,0.8758717 4.068257,1.6683127 0.506039,0.283382 0.964323,0.496342 1.01841,0.473245 0.05409,-0.0231 1.323214,-0.929542 2.820283,-2.0143227 1.497068,-1.0847808 2.74118,-1.9733416 2.764692,-1.9745795 0.02351,-0.00124 0.708651,0.666719 1.522534,1.4843488 l 1.479785,1.4865994 -2.00835,2.874638 -2.008351,2.874636 0.451668,0.810456 c 0.755459,1.355568 1.243041,2.554166 1.733036,4.260238 0.113135,0.393914 0.222942,0.617696 0.317465,0.646977 0.07948,0.02462 1.538978,0.271837 3.243333,0.549369 1.704355,0.277533 3.202471,0.526448 3.329146,0.553145 l 0.230318,0.04854 0,2.108267 0,2.108266 -3.329146,0.576339 c -1.83103,0.316987 -3.404522,0.604499 -3.49665,0.638916 -0.122808,0.04588 -0.209617,0.227264 -0.325328,0.679762 -0.370649,1.449455 -0.927077,2.825438 -1.699239,4.202023 l -0.46053,0.82102 1.959615,2.738444 c 1.077788,1.506145 1.990374,2.789757 2.02797,2.852473 0.04862,0.08111 -0.351499,0.534397 -1.386186,1.570352 -0.799997,0.800978 -1.480447,1.456324 -1.512112,1.456324 -0.03166,0 -1.238099,-0.822266 -2.680965,-1.827256 -1.442865,-1.004991 -2.723672,-1.8928 -2.846236,-1.972909 -0.221293,-0.14464 -0.22853,-0.142371 -1.039835,0.326015 -0.449346,0.259419 -1.149308,0.621304 -1.555471,0.804189 -0.751554,0.338407 -2.522451,0.944384 -3.047951,1.042969 -0.159323,0.02989 -0.289678,0.06654 -0.289678,0.08144 0,0.01491 -0.263819,1.539547 -0.586265,3.388093 -0.322445,1.848545 -0.586264,3.396225 -0.586264,3.439289 0,0.04651 -0.866294,0.0783 -2.134083,0.0783 l -2.134083,0 -0.04414,-0.188443 0,0 z m 3.21991,-13.838227 c 2.464308,-0.189684 5.029161,-1.74701 6.485983,-3.938155 1.612613,-2.425462 1.960402,-5.386917 0.958981,-8.165829 -0.967286,-2.684191 -3.362809,-4.851109 -6.175105,-5.585815 -0.995629,-0.260105 -2.594211,-0.346849 -3.622129,-0.196548 -3.535742,0.516994 -6.475296,3.158316 -7.416129,6.663727 -0.201614,0.751188 -0.224258,0.979314 -0.224258,2.25934 0,1.278465 0.02285,1.509268 0.223832,2.261306 0.99354,3.717566 4.210598,6.435611 7.971777,6.735237 0.414572,0.03303 0.847989,0.04987 0.963149,0.03743 0.115159,-0.01244 0.490413,-0.04425 0.833899,-0.07069 l 0,0 z"
     id="path3047"
     inkscape:connector-curvature="0" />
</svg>
