<?xml version="1.0" encoding="iso-8859-1"?>
<!-- Generator: Adobe Illustrator 19.1.0, SVG Export Plug-In . SVG Version: 6.00 Build 0)  -->
<svg version="1.1" id="Capa_1" xmlns="http://www.w3.org/2000/svg" xmlns:xlink="http://www.w3.org/1999/xlink" x="0px" y="0px"
	 viewBox="0 0 64 64" style="enable-background:new 0 0 64 64;" xml:space="preserve">
<g>
	<g>
		<path d="M32,64c7.747,0,15.029-3.017,20.506-8.496C57.984,50.028,61,42.746,61,35s-3.017-15.028-8.495-20.504
			C47.266,9.253,40.371,6.273,33,6.024V2h5V0h-6h-1h-5v2h5v4.024c-7.371,0.248-14.266,3.229-19.506,8.471
			C6.017,19.971,3,27.253,3,35s3.017,15.028,8.494,20.504C16.971,60.983,24.253,64,32,64z M12.908,15.909
			C17.771,11.045,24.163,8.271,31,8.024V11h2V8.024c6.837,0.248,13.229,3.021,18.092,7.885c4.863,4.862,7.637,11.254,7.884,18.091
			H56v2h2.976c-0.248,6.836-3.021,13.228-7.884,18.09C46.229,58.954,39.837,61.728,33,61.976V59h-2v2.976
			c-6.837-0.248-13.229-3.021-18.092-7.886C8.045,49.228,5.272,42.836,5.024,36H8v-2H5.024C5.271,27.163,8.045,20.771,12.908,15.909
			z"/>
		<path d="M16.686,21.1l-2.829-2.828l1.414-1.414l2.829,2.828L16.686,21.1z"/>
		<path d="M48.729,53.143L45.9,50.313l1.414-1.414l2.829,2.829L48.729,53.143z"/>
		<path d="M47.315,21.101l-1.414-1.414l2.828-2.828l1.414,1.414L47.315,21.101z"/>
		<path d="M15.272,53.143l-1.414-1.414l2.83-2.83l1.414,1.414L15.272,53.143z"/>
		<path d="M32,39c2.206,0,4-1.794,4-4c0-1.858-1.28-3.411-3-3.858V21h-2v10.142c-1.72,0.447-3,2-3,3.858C28,37.206,29.794,39,32,39z
			 M32,33c1.103,0,2,0.897,2,2s-0.897,2-2,2s-2-0.897-2-2S30.897,33,32,33z"/>
	</g>
</g>
<g>
</g>
<g>
</g>
<g>
</g>
<g>
</g>
<g>
</g>
<g>
</g>
<g>
</g>
<g>
</g>
<g>
</g>
<g>
</g>
<g>
</g>
<g>
</g>
<g>
</g>
<g>
</g>
<g>
</g>
</svg>
